<svg width="1200" height="630" viewBox="0 0 1200 630" xmlns="http://www.w3.org/2000/svg"><mask id="satori_om-id"><rect x="0" y="0" width="1200" height="630" fill="#fff"/></mask><defs><pattern id="satori_pattern_id-0_0" x="0" y="0" width="1" height="1" patternUnits="objectBoundingBox"><linearGradient id="satori_biid-0_0" x1="-0.09774620284174435" y1="0.18618324350808482" x2="1.0977462028417444" y2="0.8138167564919152" spreadMethod="pad"><stop offset="0%" stop-color="#f8fafc"/><stop offset="50%" stop-color="#eef2ff"/><stop offset="100%" stop-color="#ffffff"/></linearGradient><rect x="0" y="0" width="1200" height="630" fill="url(#satori_biid-0_0)"/></pattern></defs><clipPath id="satori_cp-id-0"><rect x="0" y="0" width="1200" height="630"/></clipPath><mask id="satori_om-id-0"><rect x="0" y="0" width="1200" height="630" fill="#fff"/></mask><rect x="0" y="0" width="1200" height="630" fill="url(#satori_pattern_id-0_0)"/><mask id="satori_om-id-0-0"><rect x="0" y="0" width="1200" height="509" fill="#fff" mask="url(#satori_om-id-0)"/></mask><mask id="satori_om-id-0-0-0"><rect x="72" y="72" width="1056" height="365" fill="#fff" mask="url(#satori_om-id-0)"/></mask><mask id="satori_om-id-0-0-0-0"><rect x="72" y="113" width="1056" height="38" fill="#fff" mask="url(#satori_om-id-0)"/></mask><path fill="#64748b" d="M82.7 143.2Q82.2 143.7 81.4 143.7Q80.6 143.7 80.1 143.2Q79.7 142.8 79.7 141.9L79.7 141.9L79.7 124.0L74.1 124.0Q73.4 124.0 73.0 123.5Q72.5 123.1 72.5 122.4Q72.5 121.8 73.0 121.3Q73.4 120.9 74.1 120.9L74.1 120.9L88.7 120.9Q89.4 120.9 89.9 121.3Q90.3 121.8 90.3 122.4Q90.3 123.1 89.9 123.5Q89.4 124.0 88.7 124.0L88.7 124.0L83.2 124.0L83.2 141.9Q83.2 142.8 82.7 143.2ZM95.5 143.3Q95.1 143.8 94.3 143.8Q93.6 143.8 93.1 143.3Q92.6 142.8 92.6 142.0L92.6 142.0L92.6 122.4Q92.6 121.6 93.1 121.1Q93.5 120.6 94.3 120.6L94.3 120.6Q95.1 120.6 95.5 121.1Q96.0 121.6 96.0 122.4L96.0 122.4L96.0 129.8L96.0 129.8Q96.7 128.3 98.1 127.5Q99.4 126.8 101.3 126.8L101.3 126.8Q103.9 126.8 105.5 128.4Q107.0 130.1 107.0 132.9L107.0 132.9L107.0 142.0Q107.0 142.8 106.5 143.3Q106.1 143.8 105.3 143.8L105.3 143.8Q104.6 143.8 104.1 143.3Q103.6 142.8 103.6 142.0L103.6 142.0L103.6 133.5Q103.6 131.7 102.7 130.7Q101.8 129.7 100.0 129.7L100.0 129.7Q98.2 129.7 97.1 130.8Q96 132.0 96 134.0L96 134.0L96 142.0Q96 142.8 95.5 143.3ZM116.0 143.8L116.0 143.8Q113.3 143.8 111.7 142.1Q110.2 140.5 110.2 137.7L110.2 137.7L110.2 128.5Q110.2 127.7 110.6 127.2Q111.1 126.7 111.9 126.7L111.9 126.7Q112.6 126.7 113.1 127.2Q113.6 127.7 113.6 128.5L113.6 128.5L113.6 137.0Q113.6 138.9 114.5 139.9Q115.3 140.9 117.1 140.9L117.1 140.9Q118.9 140.9 119.9 139.7Q121.0 138.5 121.0 136.6L121.0 136.6L121.0 128.5Q121.0 127.7 121.5 127.2Q121.9 126.7 122.7 126.7L122.7 126.7Q123.4 126.7 123.9 127.2Q124.4 127.7 124.4 128.5L124.4 128.5L124.4 142.0Q124.4 142.8 123.9 143.3Q123.5 143.8 122.8 143.8Q122.0 143.8 121.6 143.3Q121.1 142.8 121.1 142.1L121.1 142.1L121.1 140.7L121.0 140.7Q119.6 143.8 116.0 143.8ZM129.4 143.8L129.4 143.8Q128.6 143.8 128.1 143.3Q127.7 142.8 127.7 142.0L127.7 142.0L127.7 128.4Q127.7 127.7 128.1 127.2Q128.6 126.7 129.3 126.7L129.3 126.7Q130 126.7 130.4 127.2Q130.9 127.7 130.9 128.4L130.9 128.4L130.9 129.8L131.0 129.8Q131.3 128.5 132.3 127.6Q133.3 126.8 134.6 126.8L134.6 126.8Q135.5 126.8 135.9 127.2L135.9 127.2Q136.4 127.5 136.4 128.4L136.4 128.4Q136.4 129.1 135.9 129.5L135.9 129.5Q135.4 130.0 134.3 130.0L134.3 130.0Q132.7 130 131.9 131.0Q131.1 132.0 131.1 133.6L131.1 133.6L131.1 142.0Q131.1 142.8 130.6 143.3Q130.1 143.8 129.4 143.8ZM144.3 143.8L144.3 143.8Q141.9 143.8 140.2 142.9Q138.5 142.0 137.9 140.4L137.9 140.4Q137.7 140.1 137.7 139.7L137.7 139.7Q137.7 139.1 138.1 138.8Q138.5 138.4 139.2 138.4L139.2 138.4Q140.0 138.4 140.6 139.3L140.6 139.3Q141.3 140.3 142.1 140.8Q143.0 141.2 144.4 141.2L144.4 141.2Q145.9 141.2 146.8 140.6Q147.6 140.0 147.6 139.0L147.6 139.0Q147.6 138.2 147.1 137.7Q146.5 137.3 145.2 136.9L145.2 136.9L142.6 136.3Q137.9 135.2 137.9 131.7L137.9 131.7Q137.9 129.4 139.7 128.1Q141.5 126.7 144.4 126.7L144.4 126.7Q146.6 126.7 148.2 127.7Q149.9 128.7 150.3 130.2L150.3 130.2Q150.3 130.6 150.3 130.7L150.3 130.7Q150.3 131.3 150.0 131.6Q149.6 131.9 149 131.9L149 131.9Q148.1 131.9 147.6 131.2L147.6 131.2Q147.1 130.3 146.3 129.8Q145.5 129.3 144.3 129.3L144.3 129.3Q142.9 129.3 142.0 129.9Q141.2 130.5 141.2 131.5L141.2 131.5Q141.2 133.0 143.7 133.6L143.7 133.6L146.3 134.2Q148.9 134.8 150.0 135.9Q151.0 136.9 151.0 138.7L151.0 138.7Q151.0 141.0 149.2 142.4Q147.3 143.8 144.3 143.8ZM159.8 143.8L159.8 143.8Q156.7 143.8 154.8 141.4Q152.9 139.1 152.9 135.3Q152.9 131.4 154.8 129.1Q156.7 126.8 159.8 126.8L159.8 126.8Q161.5 126.8 162.9 127.6Q164.3 128.4 165.0 129.8L165.0 129.8L165.0 129.8L165.0 122.4Q165.0 121.6 165.5 121.1Q166.0 120.6 166.7 120.6L166.7 120.6Q167.5 120.6 167.9 121.1Q168.4 121.6 168.4 122.4L168.4 122.4L168.4 142.1Q168.4 142.9 167.9 143.3Q167.5 143.8 166.7 143.8L166.7 143.8Q166 143.8 165.5 143.3Q165.0 142.9 165.0 142.1L165.0 142.1L165.0 140.5L165.0 140.5Q164.3 142.0 163 142.9Q161.7 143.8 159.8 143.8ZM160.7 140.9L160.7 140.9Q162.7 140.9 163.9 139.4Q165.0 137.8 165.0 135.3L165.0 135.3Q165.0 132.7 163.9 131.2Q162.7 129.6 160.7 129.6L160.7 129.6Q158.7 129.6 157.5 131.1Q156.4 132.7 156.4 135.3L156.4 135.3Q156.4 137.9 157.5 139.4Q158.7 140.9 160.7 140.9ZM176.7 143.8L176.7 143.8Q174.3 143.8 172.7 142.4Q171.2 141 171.2 138.8L171.2 138.8Q171.2 136.6 172.8 135.4Q174.4 134.1 177.3 133.9L177.3 133.9L181.8 133.7L181.8 132.4Q181.8 131.0 180.9 130.3Q180.1 129.5 178.5 129.5L178.5 129.5Q177.3 129.5 176.4 130.0Q175.6 130.5 174.9 131.6L174.9 131.6Q174.4 132.3 173.5 132.3L173.5 132.3Q172.9 132.3 172.5 131.9Q172.0 131.5 172.0 130.9L172.0 130.9Q172.0 130.3 172.3 129.8L172.3 129.8Q173.0 128.4 174.7 127.6Q176.4 126.7 178.6 126.7L178.6 126.7Q181.6 126.7 183.4 128.2Q185.2 129.7 185.2 132.1L185.2 132.1L185.2 142.1Q185.2 142.8 184.7 143.3Q184.3 143.8 183.5 143.8L183.5 143.8Q182.8 143.8 182.4 143.3Q182.0 142.9 181.9 142.2L181.9 142.2L181.9 140.8L181.9 140.8Q181.2 142.1 179.7 142.9Q178.3 143.8 176.7 143.8ZM177.6 141.1L177.6 141.1Q179.4 141.1 180.6 140.0Q181.8 138.9 181.8 137.3L181.8 137.3L181.8 136.0L177.8 136.3Q176.2 136.4 175.4 137.0Q174.6 137.6 174.6 138.7L174.6 138.7Q174.6 139.8 175.4 140.4Q176.3 141.1 177.6 141.1ZM190.5 149.6L190.5 149.6Q189.3 149.6 188.7 149.2Q188.0 148.8 188.0 148.0L188.0 148.0Q188.0 147.4 188.4 147.1Q188.8 146.8 189.4 146.8L189.4 146.8Q189.5 146.8 189.8 146.8Q190.0 146.8 190.2 146.8L190.2 146.8Q191.9 146.8 192.7 144.6L192.7 144.6L193.0 143.6L187.5 129.3Q187.4 128.7 187.4 128.3L187.4 128.3Q187.4 127.6 187.8 127.2Q188.3 126.7 189.1 126.7L189.1 126.7Q189.7 126.7 190.1 127.0Q190.5 127.3 190.7 128.0L190.7 128.0L194.9 140.4L194.9 140.4L199.1 128.0Q199.3 127.3 199.7 127.0Q200.1 126.7 200.8 126.7L200.8 126.7Q201.5 126.7 201.9 127.2Q202.4 127.6 202.4 128.3L202.4 128.3Q202.4 128.7 202.2 129.2L202.2 129.2L196.5 144.3Q195.4 147.3 194.1 148.4Q192.8 149.6 190.5 149.6ZM207.2 139.7L207.2 139.7Q207.9 139.7 208.3 140.0Q208.7 140.4 208.7 141.1L208.7 141.1Q208.7 141.5 208.6 142.0L208.6 142.0L207.3 147.3Q207.0 148.5 205.8 148.5L205.8 148.5Q205.2 148.5 204.9 148.1Q204.5 147.8 204.5 147.3L204.5 147.3Q204.5 147.1 204.5 146.9L204.5 146.9L205.5 141.1Q205.8 139.7 207.2 139.7Z M233.7 143.5L221.2 143.5Q220.4 143.5 220.0 143.1Q219.5 142.7 219.5 142L219.5 142Q219.5 141.5 219.7 141.1Q219.9 140.8 220.5 140.2L220.5 140.2L227.6 133.0Q229.8 130.8 230.5 129.6Q231.2 128.4 231.2 127.1L231.2 127.1Q231.2 125.5 230.1 124.4Q229 123.4 227.3 123.4L227.3 123.4Q224.0 123.4 222.8 126.7L222.8 126.7Q222.5 127.3 222.2 127.6Q221.8 127.9 221.2 127.9L221.2 127.9Q220.5 127.9 220.1 127.5Q219.6 127.0 219.6 126.4L219.6 126.4Q219.6 126 219.7 125.6L219.7 125.6Q219.9 124.7 220.5 123.8Q221.1 122.9 222.0 122.2Q222.9 121.4 224.3 121.0Q225.7 120.5 227.3 120.5L227.3 120.5Q230.5 120.5 232.6 122.3Q234.7 124.1 234.7 126.9L234.7 126.9Q234.7 128.8 233.6 130.5Q232.6 132.1 229.7 135.0L229.7 135.0L224.3 140.4L224.3 140.5L233.7 140.5Q234.4 140.5 234.8 140.9Q235.2 141.3 235.2 142L235.2 142Q235.2 142.7 234.8 143.1Q234.4 143.5 233.7 143.5L233.7 143.5ZM246.6 143.9L246.6 143.9Q244.0 143.9 242.0 142.6Q240.1 141.3 239.0 138.9L239.0 138.9Q237.8 136.3 237.8 132.5L237.8 132.5Q237.8 126.8 240.1 123.7Q242.5 120.5 246.8 120.5L246.8 120.5Q249.1 120.5 251.0 121.5Q252.8 122.4 253.7 124.1L253.7 124.1Q254.1 124.8 254.1 125.4L254.1 125.4Q254.1 126.0 253.7 126.4Q253.3 126.8 252.6 126.8L252.6 126.8Q252.0 126.8 251.7 126.6Q251.3 126.3 250.8 125.7L250.8 125.7Q249.3 123.4 246.7 123.4L246.7 123.4Q244.1 123.4 242.6 125.7Q241.2 128.0 241.1 132.1L241.1 132.1L241.1 132.3L241.2 132.3Q241.9 130.7 243.6 129.7Q245.2 128.7 247.4 128.7L247.4 128.7Q250.7 128.7 252.8 130.8Q254.9 132.9 254.9 136.1L254.9 136.1Q254.9 139.5 252.5 141.7Q250.2 143.9 246.6 143.9ZM246.6 141.0L246.6 141.0Q248.6 141.0 250.0 139.6Q251.4 138.2 251.4 136.2L251.4 136.2Q251.4 134.2 250.0 132.8Q248.7 131.5 246.6 131.5Q244.5 131.5 243.2 132.8Q241.8 134.1 241.8 136.1L241.8 136.1Q241.8 138.2 243.2 139.6Q244.6 141.0 246.6 141.0Z M282.1 140.7Q279.3 143.8 274.4 143.8Q269.5 143.8 266.7 140.7Q263.8 137.6 263.8 132.2Q263.8 126.8 266.7 123.7Q269.5 120.5 274.4 120.5L274.4 120.5Q279.2 120.5 282.1 123.7Q284.9 126.8 284.9 132.2Q284.9 137.6 282.1 140.7ZM274.4 140.8L274.4 140.8Q277.6 140.8 279.5 138.5Q281.3 136.1 281.3 132.2L281.3 132.2Q281.3 128.3 279.5 125.9Q277.6 123.6 274.4 123.6L274.4 123.6Q271.2 123.6 269.3 125.9Q267.4 128.3 267.4 132.2L267.4 132.2Q267.4 136.1 269.3 138.5Q271.2 140.8 274.4 140.8ZM294.9 143.8L294.9 143.8Q291.3 143.8 289.2 141.5Q287.1 139.2 287.1 135.3L287.1 135.3Q287.1 131.4 289.2 129.1Q291.3 126.7 294.9 126.7L294.9 126.7Q297.2 126.7 299.1 127.9Q300.9 129.0 301.5 130.7L301.5 130.7Q301.6 131.2 301.6 131.5L301.6 131.5Q301.6 132.1 301.2 132.5Q300.8 132.9 300.2 132.9L300.2 132.9Q299.7 132.9 299.3 132.7Q299.0 132.4 298.7 131.9L298.7 131.9Q298.0 130.7 297.1 130.1Q296.2 129.5 294.9 129.5L294.9 129.5Q292.9 129.5 291.8 131.1Q290.6 132.6 290.6 135.3L290.6 135.3Q290.6 137.9 291.8 139.4Q292.9 141.0 294.9 141.0L294.9 141.0Q297.4 141.0 298.7 138.7L298.7 138.7Q299.0 138.1 299.3 137.9Q299.7 137.6 300.2 137.6L300.2 137.6Q300.8 137.6 301.3 138.0Q301.7 138.4 301.7 139.0L301.7 139.0Q301.7 139.4 301.5 139.9L301.5 139.9Q300.8 141.6 299 142.7Q297.2 143.8 294.9 143.8ZM305.4 139.5L305.4 139.5L305.4 129.7L304.2 129.7Q303.5 129.7 303.2 129.4Q302.8 129 302.8 128.4Q302.8 127.8 303.2 127.4Q303.5 127.0 304.2 127.0L304.2 127.0L305.4 127.0L305.4 124.6Q305.4 123.8 305.8 123.3Q306.3 122.8 307.1 122.8Q307.8 122.8 308.3 123.3Q308.8 123.8 308.8 124.6L308.8 124.6L308.8 127.0L310.7 127.0Q311.3 127.0 311.7 127.4Q312.1 127.8 312.1 128.4Q312.1 129 311.7 129.4Q311.3 129.7 310.7 129.7L310.7 129.7L308.8 129.7L308.8 138.8Q308.8 139.8 309.1 140.3Q309.5 140.7 310.4 140.8L310.4 140.8L310.7 140.8Q312.2 140.9 312.2 142.1L312.2 142.1Q312.2 143.6 309.7 143.6L309.7 143.6L309.5 143.6Q305.4 143.6 305.4 139.5ZM327.4 141.5Q325.3 143.8 321.7 143.8Q318.2 143.8 316.0 141.5Q313.9 139.2 313.9 135.3L313.9 135.3Q313.9 131.3 316.0 129.0Q318.2 126.7 321.7 126.7Q325.3 126.7 327.4 129.0Q329.5 131.3 329.5 135.3L329.5 135.3Q329.5 139.2 327.4 141.5ZM321.7 141L321.7 141Q323.7 141 324.9 139.5Q326.1 138.0 326.1 135.3L326.1 135.3Q326.1 132.5 324.9 131.0Q323.7 129.5 321.7 129.5Q319.7 129.5 318.5 131.0Q317.4 132.5 317.4 135.3L317.4 135.3Q317.4 138.0 318.5 139.5Q319.7 141 321.7 141ZM333.9 143.8L333.9 143.8Q333.1 143.8 332.7 143.3Q332.3 142.9 332.3 142.1L332.3 142.1L332.3 122.4Q332.3 121.6 332.7 121.1Q333.2 120.6 333.9 120.6Q334.7 120.6 335.2 121.1Q335.6 121.6 335.6 122.4L335.6 122.4L335.6 129.8L335.7 129.8Q336.5 128.4 337.8 127.6Q339.2 126.8 340.9 126.8L340.9 126.8Q344.0 126.8 345.9 129.1Q347.8 131.4 347.8 135.3L347.8 135.3Q347.8 139.2 345.9 141.5Q344.0 143.8 340.9 143.8L340.9 143.8Q339.1 143.8 337.7 142.9Q336.4 142.1 335.6 140.7L335.6 140.7L335.5 140.7L335.5 142.1Q335.5 142.9 335.1 143.3Q334.6 143.8 333.9 143.8ZM340.0 140.9L340.0 140.9Q342.0 140.9 343.1 139.4Q344.3 137.9 344.3 135.3L344.3 135.3Q344.3 132.7 343.1 131.1Q342.0 129.6 340.0 129.6L340.0 129.6Q338.0 129.6 336.8 131.2Q335.6 132.7 335.6 135.3L335.6 135.3Q335.6 137.8 336.8 139.3Q338.0 140.9 340.0 140.9ZM357.5 143.8L357.5 143.8Q353.8 143.8 351.7 141.5Q349.6 139.3 349.6 135.3L349.6 135.3Q349.6 131.4 351.7 129.1Q353.8 126.7 357.3 126.7L357.3 126.7Q360.5 126.7 362.6 128.9Q364.6 131 364.6 134.4L364.6 134.4Q364.6 135.2 364.2 135.6Q363.8 136.1 363.0 136.1L363.0 136.1L353.0 136.1L353.0 136.2Q353.0 138.4 354.2 139.7Q355.4 141.0 357.4 141.0L357.4 141.0Q358.8 141.0 359.8 140.5Q360.7 140.0 361.7 138.7L361.7 138.7Q362.2 138.1 362.8 138.1L362.8 138.1Q363.5 138.1 363.9 138.5Q364.3 138.9 364.3 139.5L364.3 139.5Q364.3 139.8 364.0 140.4L364.0 140.4Q363.2 142 361.5 142.9Q359.8 143.8 357.5 143.8ZM353.0 133.7L353.0 133.7L361.3 133.7Q361.2 131.8 360.1 130.6Q359 129.5 357.2 129.5L357.2 129.5Q355.5 129.5 354.3 130.6Q353.2 131.8 353.0 133.7ZM368.9 143.8L368.9 143.8Q368.2 143.8 367.7 143.3Q367.3 142.8 367.3 142.0L367.3 142.0L367.3 128.4Q367.3 127.7 367.7 127.2Q368.1 126.7 368.9 126.7L368.9 126.7Q369.6 126.7 370.0 127.2Q370.5 127.7 370.5 128.4L370.5 128.4L370.5 129.8L370.5 129.8Q370.9 128.5 371.9 127.6Q372.9 126.8 374.1 126.8L374.1 126.8Q375.0 126.8 375.5 127.2L375.5 127.2Q375.9 127.5 375.9 128.4L375.9 128.4Q375.9 129.1 375.4 129.5L375.4 129.5Q374.9 130.0 373.9 130.0L373.9 130.0Q372.2 130 371.4 131.0Q370.6 132.0 370.6 133.6L370.6 133.6L370.6 142.0Q370.6 142.8 370.2 143.3Q369.7 143.8 368.9 143.8Z M398.4 143.5L385.9 143.5Q385.1 143.5 384.7 143.1Q384.3 142.7 384.3 142L384.3 142Q384.3 141.5 384.4 141.1Q384.6 140.8 385.2 140.2L385.2 140.2L392.3 133.0Q394.5 130.8 395.2 129.6Q395.9 128.4 395.9 127.1L395.9 127.1Q395.9 125.5 394.8 124.4Q393.7 123.4 392 123.4L392 123.4Q388.7 123.4 387.5 126.7L387.5 126.7Q387.2 127.3 386.9 127.6Q386.5 127.9 385.9 127.9L385.9 127.9Q385.2 127.9 384.8 127.5Q384.3 127.0 384.3 126.4L384.3 126.4Q384.3 126 384.4 125.6L384.4 125.6Q384.6 124.7 385.2 123.8Q385.8 122.9 386.7 122.2Q387.6 121.4 389.0 121.0Q390.4 120.5 392.0 120.5L392.0 120.5Q395.3 120.5 397.3 122.3Q399.4 124.1 399.4 126.9L399.4 126.9Q399.4 128.8 398.3 130.5Q397.3 132.1 394.4 135.0L394.4 135.0L389 140.4L389 140.5L398.4 140.5Q399.1 140.5 399.5 140.9Q399.9 141.3 399.9 142L399.9 142Q399.9 142.7 399.5 143.1Q399.1 143.5 398.4 143.5L398.4 143.5ZM417.4 140.7Q415.1 143.9 411.1 143.9Q407.0 143.9 404.8 140.7Q402.5 137.6 402.5 132.2L402.5 132.2Q402.5 126.8 404.8 123.6Q407.1 120.5 411.1 120.5L411.1 120.5Q415.1 120.5 417.4 123.6Q419.7 126.8 419.7 132.2L419.7 132.2Q419.7 137.6 417.4 140.7ZM411.1 141.0L411.1 141.0Q413.5 141.0 414.8 138.6Q416.2 136.3 416.2 132.2L416.2 132.2Q416.2 128.1 414.8 125.8Q413.5 123.4 411.1 123.4Q408.7 123.4 407.3 125.8Q406 128.1 406 132.2L406 132.2Q406 136.3 407.3 138.6Q408.7 141.0 411.1 141.0ZM436.9 143.5L424.4 143.5Q423.6 143.5 423.2 143.1Q422.8 142.7 422.8 142L422.8 142Q422.8 141.5 422.9 141.1Q423.1 140.8 423.7 140.2L423.7 140.2L430.8 133.0Q433.0 130.8 433.7 129.6Q434.4 128.4 434.4 127.1L434.4 127.1Q434.4 125.5 433.3 124.4Q432.2 123.4 430.5 123.4L430.5 123.4Q427.2 123.4 426.0 126.7L426.0 126.7Q425.7 127.3 425.4 127.6Q425 127.9 424.4 127.9L424.4 127.9Q423.7 127.9 423.3 127.5Q422.8 127.0 422.8 126.4L422.8 126.4Q422.8 126 422.9 125.6L422.9 125.6Q423.1 124.7 423.7 123.8Q424.3 122.9 425.2 122.2Q426.1 121.4 427.5 121.0Q428.9 120.5 430.5 120.5L430.5 120.5Q433.8 120.5 435.8 122.3Q437.9 124.1 437.9 126.9L437.9 126.9Q437.9 128.8 436.8 130.5Q435.8 132.1 432.9 135.0L432.9 135.0L427.5 140.4L427.5 140.5L436.9 140.5Q437.6 140.5 438.0 140.9Q438.4 141.3 438.4 142L438.4 142Q438.4 142.7 438.0 143.1Q437.6 143.5 436.9 143.5L436.9 143.5ZM449.2 143.9L449.2 143.9Q446.5 143.9 444.6 142.9Q442.7 141.9 441.8 140.2L441.8 140.2Q441.3 139.3 441.3 138.5L441.3 138.5Q441.3 137.8 441.7 137.4Q442.1 136.9 442.9 136.9L442.9 136.9Q443.4 136.9 443.8 137.2Q444.2 137.5 444.4 138.1L444.4 138.1Q445.6 141.0 449.2 141.0L449.2 141.0Q451.3 141.0 452.5 139.9Q453.8 138.9 453.8 137.2L453.8 137.2Q453.8 135.3 452.5 134.3Q451.3 133.2 449.0 133.2L449.0 133.2L447.5 133.2Q446.8 133.2 446.4 132.8Q446.0 132.5 446.0 131.8Q446.0 131.2 446.4 130.9Q446.8 130.5 447.5 130.5L447.5 130.5L448.9 130.5Q450.8 130.5 452 129.5Q453.2 128.4 453.2 126.9L453.2 126.9Q453.2 125.3 452.2 124.3Q451.1 123.4 449.2 123.4L449.2 123.4Q447.5 123.4 446.5 124.1Q445.4 124.8 444.8 126.2L444.8 126.2Q444.6 126.9 444.2 127.2Q443.9 127.4 443.3 127.4L443.3 127.4Q442.5 127.4 442.1 127.0Q441.8 126.6 441.8 125.9L441.8 125.9Q441.8 125.1 442.2 124.2L442.2 124.2Q443.0 122.5 444.9 121.5Q446.7 120.5 449.2 120.5L449.2 120.5Q452.6 120.5 454.6 122.2Q456.6 123.8 456.6 126.4L456.6 126.4Q456.6 128.4 455.3 129.8Q454 131.2 451.9 131.7L451.9 131.7L451.9 131.8Q454.4 132.0 455.9 133.4Q457.4 134.9 457.4 137.2L457.4 137.2Q457.4 140.2 455.1 142.0Q452.8 143.9 449.2 143.9Z " clip-path="url(#satori_cp-id-0)" mask="url(#satori_om-id-0)"/><mask id="satori_om-id-0-0-0-1"><rect x="72" y="175" width="1056" height="221" fill="#fff" mask="url(#satori_om-id-0)"/></mask><path fill="#0f172a" d="M83.9 233.8Q82.7 235.1 80.5 235.1Q78.3 235.1 77 233.8Q75.8 232.6 75.8 230.2L75.8 230.2L75.8 193.8Q75.8 191.4 77 190.1Q78.3 188.8 80.5 188.8Q82.7 188.8 83.9 190.1Q85.2 191.4 85.2 193.8L85.2 193.8L85.2 207.8L105.5 207.8L105.5 193.8Q105.5 191.4 106.8 190.1Q108 188.8 110.2 188.8Q112.4 188.8 113.7 190.1Q114.9 191.4 114.9 193.8L114.9 193.8L114.9 230.2Q114.9 232.6 113.7 233.8Q112.4 235.1 110.2 235.1Q108 235.1 106.8 233.8Q105.5 232.6 105.5 230.2L105.5 230.2L105.5 215.6L85.2 215.6L85.2 230.2Q85.2 232.6 83.9 233.8ZM149.2 230.6Q144.7 235.3 137.0 235.3Q129.4 235.3 124.9 230.6Q120.4 226.0 120.4 217.8L120.4 217.8Q120.4 209.7 125.0 205.0Q129.5 200.3 137.0 200.3L137.0 200.3Q144.6 200.3 149.1 205.0Q153.6 209.7 153.6 217.8L153.6 217.8Q153.6 226.0 149.2 230.6ZM137.0 228.3L137.0 228.3Q140.4 228.3 142.4 225.6Q144.3 222.8 144.3 217.8L144.3 217.8Q144.3 212.9 142.4 210.1Q140.4 207.3 137.0 207.3Q133.7 207.3 131.7 210.1Q129.7 212.9 129.7 217.8L129.7 217.8Q129.7 222.8 131.7 225.6Q133.6 228.3 137.0 228.3ZM162.9 235.2L162.9 235.2Q160.8 235.2 159.5 234.0Q158.3 232.7 158.3 230.5L158.3 230.5L158.3 205.0Q158.3 202.8 159.5 201.6Q160.7 200.4 162.7 200.4Q164.7 200.4 165.9 201.6Q167.1 202.8 167.1 205.0L167.1 205.0L167.1 207.1L167.3 207.1Q168.4 204.1 170.9 202.2Q173.5 200.4 176.9 200.4L176.9 200.4Q180.5 200.4 182.9 202.2Q185.4 204.0 186.2 207.3L186.2 207.3L186.4 207.3Q187.5 204.1 190.3 202.3Q193.1 200.4 196.8 200.4L196.8 200.4Q201.8 200.4 204.8 203.5Q207.8 206.6 207.8 211.7L207.8 211.7L207.8 230.5Q207.8 232.7 206.5 234.0Q205.3 235.2 203.2 235.2L203.2 235.2Q201.1 235.2 199.9 234.0Q198.7 232.7 198.7 230.5L198.7 230.5L198.7 214.0Q198.7 211.1 197.3 209.5Q195.8 208.0 193.2 208.0L193.2 208.0Q190.6 208.0 189.0 209.7Q187.4 211.4 187.4 214.2L187.4 214.2L187.4 230.5Q187.4 232.7 186.3 234.0Q185.1 235.2 183.0 235.2L183.0 235.2Q181 235.2 179.8 234.0Q178.7 232.7 178.7 230.5L178.7 230.5L178.7 213.7Q178.7 211.0 177.2 209.5Q175.8 208.0 173.3 208.0L173.3 208.0Q170.7 208.0 169.0 209.7Q167.4 211.5 167.4 214.3L167.4 214.3L167.4 230.5Q167.4 232.7 166.2 234.0Q164.9 235.2 162.9 235.2ZM229.0 235.3L229.0 235.3Q221.1 235.3 216.7 230.7Q212.3 226.1 212.3 218.0L212.3 218.0Q212.3 209.9 216.7 205.1Q221.1 200.3 228.5 200.3L228.5 200.3Q235.6 200.3 240.0 204.7Q244.4 209.1 244.4 215.9L244.4 215.9Q244.4 217.8 243.4 218.9Q242.3 219.9 240.4 219.9L240.4 219.9L221.3 219.9L221.3 220.3Q221.3 224.0 223.4 226.3Q225.5 228.5 228.9 228.5L228.9 228.5Q231.4 228.5 233.3 227.6Q235.1 226.7 236.9 224.5L236.9 224.5Q238.3 223.1 239.9 223.1L239.9 223.1Q241.4 223.1 242.5 224.1Q243.5 225.0 243.5 226.5L243.5 226.5Q243.5 227.6 242.8 228.7L242.8 228.7Q241.2 231.8 237.5 233.5Q233.8 235.3 229.0 235.3ZM221.4 214.3L221.4 214.3L235.6 214.3Q235.5 211.0 233.6 209.1Q231.6 207.1 228.6 207.1Q225.6 207.1 223.6 209.1Q221.7 211.1 221.4 214.3ZM258.1 233.9Q256.8 235.2 254.6 235.2Q252.4 235.2 251.1 233.9Q249.9 232.6 249.9 230.3L249.9 230.3L249.9 194.4Q249.9 192.1 251.1 190.8Q252.4 189.5 254.6 189.5L254.6 189.5L268.3 189.5Q276.1 189.5 280.4 193.3Q284.7 197.1 284.7 203.8L284.7 203.8Q284.7 208.1 282.6 211.5Q280.6 214.8 276.9 216.4L276.9 216.4L283.4 227.6Q284.4 229.4 284.4 230.9L284.4 230.9Q284.4 232.8 283.1 234.0Q281.7 235.2 279.7 235.2L279.7 235.2Q278.0 235.2 277.0 234.5Q276 233.7 274.8 231.6L274.8 231.6L267.3 218.1L259.3 218.1L259.3 230.3Q259.3 232.6 258.1 233.9ZM259.3 196.8L259.3 211.2L267.4 211.2Q271 211.2 273.0 209.3Q275.0 207.4 275.0 204.0L275.0 204.0Q275.0 200.7 272.9 198.8Q270.8 196.8 267.3 196.8L267.3 196.8L259.3 196.8ZM317.6 230.6Q313.1 235.3 305.4 235.3Q297.8 235.3 293.3 230.6Q288.8 226.0 288.8 217.8L288.8 217.8Q288.8 209.7 293.4 205.0Q297.9 200.3 305.4 200.3L305.4 200.3Q313.0 200.3 317.5 205.0Q322.0 209.7 322.0 217.8L322.0 217.8Q322.0 226.0 317.6 230.6ZM305.4 228.3L305.4 228.3Q308.8 228.3 310.8 225.6Q312.8 222.8 312.8 217.8L312.8 217.8Q312.8 212.9 310.8 210.1Q308.8 207.3 305.4 207.3Q302.1 207.3 300.1 210.1Q298.1 212.9 298.1 217.8L298.1 217.8Q298.1 222.8 300.1 225.6Q302.0 228.3 305.4 228.3ZM331.4 235.2L331.4 235.2Q329.4 235.2 328.2 234.0Q326.9 232.8 326.9 230.6L326.9 230.6L326.9 193.6Q326.9 191.3 328.2 190.0Q329.4 188.8 331.5 188.8Q333.6 188.8 334.8 190.0Q336.1 191.3 336.1 193.6L336.1 193.6L336.1 206.9L336.3 206.9Q337.7 203.9 340.4 202.2Q343.1 200.5 346.6 200.5L346.6 200.5Q353.0 200.5 356.6 205.1Q360.2 209.7 360.2 217.8Q360.2 225.9 356.6 230.5Q353.0 235.1 346.6 235.1L346.6 235.1Q343 235.1 340.3 233.4Q337.6 231.8 336.1 228.8L336.1 228.8L335.9 228.8L335.9 230.6Q335.9 232.8 334.7 234.0Q333.5 235.2 331.4 235.2ZM343.5 227.7L343.5 227.7Q346.9 227.7 348.9 225.1Q350.9 222.4 350.9 217.8L350.9 217.8Q350.9 213.2 348.9 210.5Q346.9 207.8 343.5 207.8L343.5 207.8Q340.2 207.8 338.1 210.6Q336.0 213.3 336.0 217.8L336.0 217.8Q336.0 222.3 338.1 225.0Q340.2 227.7 343.5 227.7ZM392.4 230.6Q388.0 235.3 380.3 235.3Q372.7 235.3 368.2 230.6Q363.7 226.0 363.7 217.8L363.7 217.8Q363.7 209.7 368.2 205.0Q372.8 200.3 380.3 200.3L380.3 200.3Q387.9 200.3 392.4 205.0Q396.9 209.7 396.9 217.8L396.9 217.8Q396.9 226.0 392.4 230.6ZM380.3 228.3L380.3 228.3Q383.7 228.3 385.7 225.6Q387.6 222.8 387.6 217.8L387.6 217.8Q387.6 212.9 385.7 210.1Q383.7 207.3 380.3 207.3Q376.9 207.3 375.0 210.1Q373.0 212.9 373.0 217.8L373.0 217.8Q373.0 222.8 374.9 225.6Q376.9 228.3 380.3 228.3ZM404.0 226.0L404.0 226.0L404.0 207.9L402.3 207.9Q400.7 207.9 399.7 207.0Q398.8 206.1 398.8 204.5Q398.8 202.9 399.7 202.0Q400.7 201.1 402.3 201.1L402.3 201.1L404.0 201.1L404.0 197.3Q404.0 195.1 405.3 193.8Q406.5 192.6 408.6 192.6Q410.7 192.6 411.9 193.8Q413.2 195.1 413.2 197.3L413.2 197.3L413.2 201.1L416.4 201.1Q418 201.1 418.9 202.0Q419.9 202.9 419.9 204.5Q419.9 206.1 418.9 207.0Q418 207.9 416.4 207.9L416.4 207.9L413.2 207.9L413.2 224.0Q413.2 225.7 413.8 226.6Q414.5 227.4 415.9 227.5L415.9 227.5L416.5 227.6Q418.3 227.7 419.1 228.5Q420 229.3 420 230.9L420 230.9Q420 232.8 418.3 233.9Q416.5 234.9 413.5 234.9L413.5 234.9L413.2 234.9Q404.0 234.9 404.0 226.0ZM433.8 211.1Q432.4 212.6 430.3 212.6Q428.2 212.6 426.7 211.1Q425.3 209.6 425.3 207.6L425.3 207.6Q425.3 205.4 426.7 204.0Q428.2 202.5 430.3 202.5Q432.4 202.5 433.8 204.0Q435.3 205.5 435.3 207.6Q435.3 209.6 433.8 211.1ZM433.8 233.5Q432.4 234.9 430.3 234.9Q428.2 234.9 426.7 233.5Q425.3 232.0 425.3 229.9Q425.3 227.8 426.7 226.3Q428.2 224.9 430.3 224.9Q432.4 224.9 433.8 226.3Q435.3 227.8 435.3 229.9Q435.3 232.0 433.8 233.5Z M458.6 235.1L458.6 235.1Q456.4 235.1 455.1 233.9Q453.8 232.7 453.8 230.7L453.8 230.7Q453.8 229.5 454.4 227.7L454.4 227.7L466.7 194.2Q467.7 191.4 469.4 190.1Q471.2 188.8 473.8 188.8L473.8 188.8Q476.6 188.8 478.3 190.1Q480.0 191.4 481.0 194.1L481.0 194.1L493.4 227.7Q494 229.4 494 230.7L494 230.7Q494 232.6 492.7 233.9Q491.3 235.1 489.3 235.1L489.3 235.1Q487.3 235.1 486.1 234.2Q485 233.2 484.4 231.0L484.4 231.0L482 223.9L465.7 223.9L463.3 230.9Q462.7 233.1 461.6 234.1Q460.4 235.1 458.6 235.1ZM473.6 198.1L467.8 216.6L479.8 216.6L473.8 198.1L473.6 198.1ZM506.8 234.0Q505.6 235.2 503.5 235.2Q501.4 235.2 500.2 234.0Q498.9 232.7 498.9 230.5L498.9 230.5L498.9 205.0Q498.9 202.8 500.1 201.6Q501.3 200.4 503.3 200.4Q505.4 200.4 506.7 201.6Q507.9 202.9 507.9 205.0L507.9 205.0L507.9 206.9L508.1 206.9Q510.8 200.4 518.4 200.4L518.4 200.4Q524.0 200.4 527 203.7Q530.0 207.1 530.0 213.0L530.0 213.0L530.0 230.5Q530.0 232.7 528.8 234.0Q527.5 235.2 525.5 235.2Q523.4 235.2 522.2 234.0Q520.9 232.7 520.9 230.5L520.9 230.5L520.9 214.9Q520.9 211.6 519.3 209.8Q517.8 208.0 514.8 208.0Q511.7 208.0 509.9 210.0Q508.1 212.1 508.1 215.3L508.1 215.3L508.1 230.5Q508.1 232.7 506.8 234.0Z M585.5 229.0Q579.6 235.3 569.6 235.3Q559.6 235.3 553.7 229.0Q547.8 222.8 547.8 212.0L547.8 212.0Q547.8 201.2 553.7 195.0Q559.6 188.7 569.6 188.7Q579.6 188.7 585.5 195.0Q591.3 201.2 591.3 212.0L591.3 212.0Q591.3 222.8 585.5 229.0ZM569.6 227.4L569.6 227.4Q575.1 227.4 578.4 223.3Q581.7 219.1 581.7 212.0L581.7 212.0Q581.7 204.9 578.4 200.7Q575.1 196.6 569.6 196.6Q564.1 196.6 560.8 200.7Q557.5 204.9 557.5 212.0L557.5 212.0Q557.5 219.1 560.8 223.3Q564.0 227.4 569.6 227.4ZM604.5 245.3Q603.3 246.5 601.2 246.5Q599.1 246.5 597.9 245.3Q596.6 244.0 596.6 241.7L596.6 241.7L596.6 205.1Q596.6 202.8 597.9 201.6Q599.1 200.4 601.1 200.4Q603.2 200.4 604.4 201.6Q605.6 202.8 605.6 205.1L605.6 205.1L605.6 206.9L605.8 206.9Q607.2 203.9 609.9 202.2Q612.6 200.5 616.2 200.5L616.2 200.5Q622.6 200.5 626.2 205.1Q629.9 209.7 629.9 217.8L629.9 217.8Q629.9 225.9 626.3 230.5Q622.7 235.1 616.3 235.1L616.3 235.1Q612.8 235.1 610.0 233.4Q607.3 231.8 605.9 228.9L605.9 228.9L605.8 228.9L605.8 241.7Q605.8 244.0 604.5 245.3ZM613.1 227.7L613.1 227.7Q616.5 227.7 618.5 225.1Q620.6 222.4 620.6 217.8Q620.6 213.2 618.5 210.5Q616.5 207.8 613.1 207.8L613.1 207.8Q609.8 207.8 607.8 210.6Q605.7 213.3 605.7 217.8L605.7 217.8Q605.7 222.3 607.7 225.0Q609.8 227.7 613.1 227.7ZM650 235.3L650 235.3Q642.2 235.3 637.8 230.7Q633.4 226.1 633.4 218.0L633.4 218.0Q633.4 209.9 637.8 205.1Q642.1 200.3 649.6 200.3L649.6 200.3Q656.7 200.3 661.0 204.7Q665.4 209.1 665.4 215.9L665.4 215.9Q665.4 217.8 664.4 218.9Q663.4 219.9 661.5 219.9L661.5 219.9L642.3 219.9L642.3 220.3Q642.3 224.0 644.4 226.3Q646.5 228.5 650.0 228.5L650.0 228.5Q652.5 228.5 654.3 227.6Q656.1 226.7 658.0 224.5L658.0 224.5Q659.3 223.1 660.9 223.1L660.9 223.1Q662.5 223.1 663.5 224.1Q664.5 225.0 664.5 226.5L664.5 226.5Q664.5 227.6 663.9 228.7L663.9 228.7Q662.2 231.8 658.5 233.5Q654.8 235.3 650 235.3ZM642.4 214.3L642.4 214.3L656.7 214.3Q656.5 211.0 654.6 209.1Q652.7 207.1 649.7 207.1Q646.7 207.1 644.7 209.1Q642.7 211.1 642.4 214.3ZM678 234.0Q676.8 235.2 674.7 235.2Q672.6 235.2 671.4 234.0Q670.1 232.7 670.1 230.5L670.1 230.5L670.1 205.0Q670.1 202.8 671.3 201.6Q672.5 200.4 674.5 200.4Q676.6 200.4 677.8 201.6Q679.1 202.9 679.1 205.0L679.1 205.0L679.1 206.9L679.3 206.9Q682.0 200.4 689.6 200.4L689.6 200.4Q695.2 200.4 698.2 203.7Q701.2 207.1 701.2 213.0L701.2 213.0L701.2 230.5Q701.2 232.7 700.0 234.0Q698.7 235.2 696.7 235.2Q694.6 235.2 693.3 234.0Q692.1 232.7 692.1 230.5L692.1 230.5L692.1 214.9Q692.1 211.6 690.5 209.8Q689.0 208.0 685.9 208.0Q682.9 208.0 681.1 210.0Q679.3 212.1 679.3 215.3L679.3 215.3L679.3 230.5Q679.3 232.7 678 234.0Z M736.9 235.3L736.9 235.3Q730.2 235.3 725.7 232.9Q721.3 230.5 719.8 226.6L719.8 226.6Q719.3 225.3 719.3 224.1L719.3 224.1Q719.3 222.2 720.5 221.1Q721.7 220.0 723.5 220.0L723.5 220.0Q725.0 220.0 726.0 220.6Q727 221.2 727.8 222.7L727.8 222.7Q728.9 225.2 731.4 226.5Q733.8 227.7 737.2 227.7L737.2 227.7Q740.9 227.7 743.3 226.1Q745.7 224.5 745.7 222.0L745.7 222.0Q745.7 219.7 743.9 218.4Q742.1 217.0 737.9 216.1L737.9 216.1L733.1 215.2Q719.7 212.6 719.7 202.4L719.7 202.4Q719.7 198.3 721.9 195.2Q724.1 192.1 728.0 190.4Q731.9 188.7 736.9 188.7L736.9 188.7Q743.1 188.7 747.5 191.1Q751.9 193.6 753.4 198.0L753.4 198.0Q753.7 199.0 753.7 200.1L753.7 200.1Q753.7 201.8 752.6 202.8Q751.5 203.9 749.7 203.9L749.7 203.9Q748.1 203.9 747.0 203.2Q746 202.6 745.2 201.1L745.2 201.1Q743.1 196.3 736.9 196.3L736.9 196.3Q733.4 196.3 731.3 197.8Q729.2 199.3 729.2 201.8L729.2 201.8Q729.2 203.9 730.9 205.2Q732.7 206.6 736.7 207.4L736.7 207.4L741.4 208.3Q748.6 209.8 751.8 212.8Q755.1 215.8 755.1 220.9L755.1 220.9Q755.1 227.6 750.2 231.4Q745.3 235.3 736.9 235.3ZM787.6 230.6Q783.1 235.3 775.4 235.3Q767.8 235.3 763.3 230.6Q758.8 226.0 758.8 217.8L758.8 217.8Q758.8 209.7 763.4 205.0Q767.9 200.3 775.4 200.3L775.4 200.3Q783.0 200.3 787.5 205.0Q792.0 209.7 792.0 217.8L792.0 217.8Q792.0 226.0 787.6 230.6ZM775.4 228.3L775.4 228.3Q778.8 228.3 780.8 225.6Q782.8 222.8 782.8 217.8L782.8 217.8Q782.8 212.9 780.8 210.1Q778.8 207.3 775.4 207.3Q772.1 207.3 770.1 210.1Q768.1 212.9 768.1 217.8L768.1 217.8Q768.1 222.8 770.1 225.6Q772.0 228.3 775.4 228.3ZM808.6 235.2L808.6 235.2Q803.1 235.2 799.8 231.8Q796.6 228.5 796.6 222.6L796.6 222.6L796.6 205.1Q796.6 202.9 797.8 201.6Q799.1 200.4 801.1 200.4Q803.2 200.4 804.4 201.6Q805.7 202.9 805.7 205.1L805.7 205.1L805.7 220.7Q805.7 224.1 807.3 225.8Q808.9 227.6 811.9 227.6Q815.0 227.6 816.8 225.6Q818.5 223.6 818.5 220.2L818.5 220.2L818.5 205.1Q818.5 202.9 819.8 201.6Q821.0 200.4 823.1 200.4Q825.2 200.4 826.4 201.6Q827.7 202.9 827.7 205.1L827.7 205.1L827.7 230.6Q827.7 232.8 826.5 234.0Q825.3 235.2 823.3 235.2Q821.2 235.2 820.0 234.0Q818.8 232.8 818.8 230.6L818.8 230.6L818.8 228.5L818.7 228.5Q816.0 235.2 808.6 235.2ZM838.2 235.2L838.2 235.2Q836.1 235.2 834.8 234.0Q833.6 232.7 833.6 230.5L833.6 230.5L833.6 205.0Q833.6 202.8 834.8 201.6Q836 200.4 838 200.4L838 200.4Q839.9 200.4 841.1 201.6Q842.3 202.8 842.3 205.0L842.3 205.0L842.3 207.1L842.5 207.1Q843.2 204.1 845.0 202.3Q846.9 200.5 849.5 200.5L849.5 200.5Q851.3 200.5 852.3 201.4L852.3 201.4Q853.6 202.4 853.6 204.7L853.6 204.7Q853.6 206.9 852.3 208.0L852.3 208.0Q851.0 209.2 848.3 209.2L848.3 209.2Q845.3 209.2 844.0 210.8Q842.7 212.5 842.7 215.6L842.7 215.6L842.7 230.5Q842.7 232.7 841.5 234.0Q840.3 235.2 838.2 235.2ZM872.2 235.3L872.2 235.3Q864.6 235.3 860.1 230.6Q855.7 225.9 855.7 217.8L855.7 217.8Q855.7 209.8 860.1 205.1Q864.5 200.3 872.1 200.3L872.1 200.3Q877.1 200.3 881.0 202.5Q884.8 204.7 886.2 208.3L886.2 208.3Q886.7 209.6 886.7 210.6L886.7 210.6Q886.7 212.2 885.6 213.2Q884.5 214.1 882.8 214.1L882.8 214.1Q881.5 214.1 880.6 213.6Q879.7 213.0 879.0 211.8L879.0 211.8Q876.6 207.5 872.4 207.5L872.4 207.5Q868.9 207.5 866.9 210.2Q864.9 212.9 864.9 217.8L864.9 217.8Q864.9 222.7 866.9 225.4Q868.9 228.1 872.3 228.1L872.3 228.1Q876.5 228.1 878.9 224.2L878.9 224.2Q879.8 222.7 880.7 222.1Q881.6 221.5 883.0 221.5L883.0 221.5Q884.7 221.5 885.8 222.5Q886.9 223.5 886.9 225.1L886.9 225.1Q886.9 226.2 886.3 227.5L886.3 227.5Q884.8 231.0 880.9 233.1Q876.9 235.3 872.2 235.3ZM907.2 235.3L907.2 235.3Q899.3 235.3 894.9 230.7Q890.5 226.1 890.5 218.0L890.5 218.0Q890.5 209.9 894.9 205.1Q899.3 200.3 906.7 200.3L906.7 200.3Q913.8 200.3 918.2 204.7Q922.6 209.1 922.6 215.9L922.6 215.9Q922.6 217.8 921.6 218.9Q920.5 219.9 918.6 219.9L918.6 219.9L899.5 219.9L899.5 220.3Q899.5 224.0 901.6 226.3Q903.7 228.5 907.1 228.5L907.1 228.5Q909.6 228.5 911.5 227.6Q913.3 226.7 915.1 224.5L915.1 224.5Q916.4 223.1 918.1 223.1L918.1 223.1Q919.6 223.1 920.6 224.1Q921.7 225.0 921.7 226.5L921.7 226.5Q921.7 227.6 921.0 228.7L921.0 228.7Q919.4 231.8 915.7 233.5Q912 235.3 907.2 235.3ZM899.6 214.3L899.6 214.3L913.8 214.3Q913.7 211.0 911.8 209.1Q909.8 207.1 906.8 207.1Q903.8 207.1 901.8 209.1Q899.8 211.1 899.6 214.3Z M92.3 308.9L92.3 308.9Q85.5 308.9 81.0 306.5Q76.6 304.1 75.2 300.2L75.2 300.2Q74.7 298.9 74.7 297.7L74.7 297.7Q74.7 295.8 75.8 294.7Q77.0 293.6 78.8 293.6L78.8 293.6Q80.3 293.6 81.3 294.2Q82.3 294.8 83.2 296.3L83.2 296.3Q84.2 298.8 86.7 300.1Q89.1 301.3 92.5 301.3L92.5 301.3Q96.3 301.3 98.6 299.7Q101.0 298.1 101.0 295.6L101.0 295.6Q101.0 293.3 99.2 292.0Q97.4 290.6 93.2 289.7L93.2 289.7L88.4 288.8Q75 286.1 75 276.0L75 276.0Q75 271.9 77.2 268.8Q79.4 265.6 83.3 264.0Q87.3 262.3 92.2 262.3L92.2 262.3Q98.4 262.3 102.8 264.7Q107.2 267.2 108.7 271.6L108.7 271.6Q109.0 272.6 109.0 273.7L109.0 273.7Q109.0 275.4 107.9 276.4Q106.8 277.5 105 277.5L105 277.5Q103.4 277.5 102.4 276.8Q101.3 276.2 100.5 274.7L100.5 274.7Q98.4 269.9 92.2 269.9L92.2 269.9Q88.7 269.9 86.6 271.4Q84.5 272.9 84.5 275.4L84.5 275.4Q84.5 277.5 86.2 278.8Q88 280.2 92.0 281.0L92.0 281.0L96.7 281.9Q103.9 283.4 107.1 286.4Q110.4 289.4 110.4 294.5L110.4 294.5Q110.4 301.1 105.5 305.0Q100.7 308.9 92.3 308.9ZM142.9 304.2Q138.4 308.9 130.8 308.9Q123.1 308.9 118.6 304.2Q114.2 299.6 114.2 291.4L114.2 291.4Q114.2 283.3 118.7 278.6Q123.2 273.9 130.8 273.9L130.8 273.9Q138.3 273.9 142.8 278.6Q147.3 283.3 147.3 291.4L147.3 291.4Q147.3 299.6 142.9 304.2ZM130.8 301.9L130.8 301.9Q134.1 301.9 136.1 299.1Q138.1 296.4 138.1 291.4L138.1 291.4Q138.1 286.5 136.1 283.7Q134.1 280.9 130.8 280.9Q127.4 280.9 125.4 283.7Q123.4 286.5 123.4 291.4L123.4 291.4Q123.4 296.4 125.4 299.1Q127.3 301.9 130.8 301.9ZM162.4 307.6Q161.1 308.8 159.0 308.8Q156.9 308.8 155.7 307.6Q154.5 306.4 154.5 304.1L154.5 304.1L154.5 281.5L152.7 281.5Q151.3 281.5 150.3 280.6Q149.4 279.7 149.4 278.1Q149.4 276.6 150.3 275.7Q151.3 274.8 152.7 274.8L152.7 274.8L154.5 274.8L154.5 272.3Q154.5 267.4 156.8 265.0Q159.2 262.7 164.0 262.6L164.0 262.6Q167.5 262.6 169.2 263.6Q170.9 264.6 170.9 266.3L170.9 266.3Q170.9 268.2 169.1 268.7L169.1 268.7Q168.2 269.0 167.3 269.0L167.3 269.0Q165.2 269.1 164.3 269.9Q163.4 270.8 163.4 272.7L163.4 272.7L163.4 274.8L167.2 274.8Q168.7 274.8 169.6 275.7Q170.6 276.6 170.6 278.1Q170.6 279.7 169.6 280.6Q168.7 281.5 167.2 281.5L167.2 281.5L163.6 281.5L163.6 304.1Q163.6 306.4 162.4 307.6ZM177.3 299.6L177.3 299.6L177.3 281.5L175.5 281.5Q173.9 281.5 172.9 280.6Q172.0 279.7 172.0 278.1Q172.0 276.5 172.9 275.6Q173.9 274.6 175.5 274.6L175.5 274.6L177.3 274.6L177.3 270.9Q177.3 268.7 178.5 267.4Q179.7 266.2 181.8 266.2Q183.9 266.2 185.2 267.4Q186.4 268.7 186.4 270.9L186.4 270.9L186.4 274.6L189.6 274.6Q191.2 274.6 192.2 275.6Q193.1 276.5 193.1 278.1Q193.1 279.6 192.2 280.6Q191.2 281.5 189.6 281.5L189.6 281.5L186.4 281.5L186.4 297.6Q186.4 299.3 187.0 300.1Q187.7 301.0 189.2 301.1L189.2 301.1L189.8 301.1Q191.5 301.3 192.4 302.1Q193.2 302.9 193.2 304.5L193.2 304.5Q193.2 306.4 191.5 307.5Q189.7 308.5 186.8 308.5L186.8 308.5L186.4 308.5Q177.3 308.5 177.3 299.6ZM208.8 308.8L208.8 308.8Q206.5 308.8 205.1 307.7Q203.8 306.5 203.0 304.0L203.0 304.0L196.3 280.7Q195.8 279.0 195.8 277.9L195.8 277.9Q195.8 276.1 197.0 275.1Q198.3 274.0 200.2 274.0L200.2 274.0Q203.7 274.0 204.5 277.8L204.5 277.8L209.4 299.5L209.6 299.5L214.8 278.1Q215.7 274.0 220.0 274.0L220.0 274.0Q222 274.0 223.3 275.0Q224.6 276.1 225.1 278.1L225.1 278.1L230.3 299.5L230.5 299.5L235.5 277.8Q235.8 275.9 236.9 274.9Q238 274.0 239.7 274.0L239.7 274.0Q241.6 274.0 242.8 275.0Q244 276.1 244 277.8L244 277.8Q244 278.9 243.5 280.6L243.5 280.6L236.8 304.0Q236.0 306.5 234.6 307.6Q233.3 308.8 230.9 308.8L230.9 308.8Q228.4 308.8 227 307.7Q225.6 306.5 225 304.0L225 304.0L219.9 284.5L219.7 284.5L214.7 304.0Q214.1 306.5 212.7 307.6Q211.3 308.8 208.8 308.8ZM258.0 308.7L258.0 308.7Q253.2 308.7 250 305.8Q246.8 303.0 246.8 298.5L246.8 298.5Q246.8 294.0 250.2 291.4Q253.6 288.8 259.9 288.4L259.9 288.4L268.3 287.9L268.3 285.7Q268.3 283.4 266.8 282.1Q265.3 280.7 262.7 280.7L262.7 280.7Q260.6 280.7 259.2 281.5Q257.7 282.3 256.2 284.3L256.2 284.3Q254.7 286.0 252.6 286.0L252.6 286.0Q250.9 286.0 249.8 285.0Q248.8 284.0 248.8 282.5L248.8 282.5Q248.8 281.4 249.2 280.4L249.2 280.4Q250.4 277.4 254.1 275.7Q257.9 273.9 263.1 273.9L263.1 273.9Q269.5 273.9 273.4 277.0Q277.3 280.1 277.3 285.1L277.3 285.1L277.3 304.2Q277.3 306.4 276.1 307.6Q274.8 308.8 272.8 308.8L272.8 308.8Q270.9 308.8 269.8 307.8Q268.6 306.7 268.5 304.7L268.5 304.7L268.5 303.0L268.3 303.0Q266.9 305.6 264.1 307.2Q261.3 308.7 258.0 308.7ZM261.0 302.1L261.0 302.1Q264.1 302.1 266.2 300.3Q268.3 298.6 268.3 295.9L268.3 295.9L268.3 293.4L261.3 293.9Q258.7 294.1 257.3 295.1Q255.9 296.2 255.9 298.0L255.9 298.0Q255.9 299.9 257.3 301.0Q258.7 302.1 261.0 302.1ZM287.7 308.8L287.7 308.8Q285.6 308.8 284.4 307.6Q283.2 306.3 283.2 304.1L283.2 304.1L283.2 278.6Q283.2 276.4 284.4 275.2Q285.6 274.0 287.6 274.0L287.6 274.0Q289.5 274.0 290.7 275.2Q291.9 276.4 291.9 278.6L291.9 278.6L291.9 280.7L292.1 280.7Q292.7 277.6 294.6 275.9Q296.5 274.1 299.0 274.1L299.0 274.1Q300.9 274.1 301.9 275.0L301.9 275.0Q303.2 276.0 303.2 278.3L303.2 278.3Q303.2 280.5 301.9 281.6L301.9 281.6Q300.5 282.8 297.9 282.8L297.9 282.8Q294.9 282.8 293.6 284.4Q292.3 286.1 292.3 289.2L292.3 289.2L292.3 304.1Q292.3 306.3 291.1 307.6Q289.8 308.8 287.7 308.8ZM321.8 308.9L321.8 308.9Q314 308.9 309.6 304.3Q305.2 299.7 305.2 291.6L305.2 291.6Q305.2 283.5 309.6 278.7Q314.0 273.9 321.4 273.9L321.4 273.9Q328.5 273.9 332.9 278.3Q337.3 282.6 337.3 289.5L337.3 289.5Q337.3 291.4 336.3 292.5Q335.2 293.5 333.3 293.5L333.3 293.5L314.2 293.5L314.2 293.9Q314.2 297.6 316.3 299.9Q318.3 302.1 321.8 302.1L321.8 302.1Q324.3 302.1 326.1 301.2Q328.0 300.3 329.8 298.1L329.8 298.1Q331.1 296.7 332.8 296.7L332.8 296.7Q334.3 296.7 335.3 297.6Q336.3 298.6 336.3 300.1L336.3 300.1Q336.3 301.1 335.7 302.3L335.7 302.3Q334.1 305.4 330.4 307.1Q326.7 308.9 321.8 308.9ZM314.3 287.9L314.3 287.9L328.5 287.9Q328.4 284.6 326.4 282.6Q324.5 280.7 321.5 280.7Q318.5 280.7 316.5 282.7Q314.5 284.7 314.3 287.9Z M371.9 308.9L371.9 308.9Q365.2 308.9 360.7 306.5Q356.2 304.1 354.8 300.2L354.8 300.2Q354.3 298.9 354.3 297.7L354.3 297.7Q354.3 295.8 355.5 294.7Q356.6 293.6 358.5 293.6L358.5 293.6Q359.9 293.6 361.0 294.2Q362.0 294.8 362.8 296.3L362.8 296.3Q363.9 298.8 366.3 300.1Q368.8 301.3 372.1 301.3L372.1 301.3Q375.9 301.3 378.3 299.7Q380.6 298.1 380.6 295.6L380.6 295.6Q380.6 293.3 378.8 292.0Q377.1 290.6 372.8 289.7L372.8 289.7L368.1 288.8Q354.7 286.1 354.7 276.0L354.7 276.0Q354.7 271.9 356.9 268.8Q359.1 265.6 363.0 264.0Q366.9 262.3 371.9 262.3L371.9 262.3Q378.1 262.3 382.5 264.7Q386.8 267.2 388.3 271.6L388.3 271.6Q388.7 272.6 388.7 273.7L388.7 273.7Q388.7 275.4 387.6 276.4Q386.5 277.5 384.7 277.5L384.7 277.5Q383.1 277.5 382.0 276.8Q381.0 276.2 380.2 274.7L380.2 274.7Q378.0 269.9 371.9 269.9L371.9 269.9Q368.4 269.9 366.3 271.4Q364.1 272.9 364.1 275.4L364.1 275.4Q364.1 277.5 365.9 278.8Q367.7 280.2 371.6 281.0L371.6 281.0L376.4 281.9Q383.5 283.4 386.8 286.4Q390.1 289.4 390.1 294.5L390.1 294.5Q390.1 301.1 385.2 305.0Q380.3 308.9 371.9 308.9ZM397.5 299.6L397.5 299.6L397.5 281.5L395.7 281.5Q394.1 281.5 393.1 280.6Q392.2 279.7 392.2 278.1Q392.2 276.5 393.1 275.6Q394.1 274.6 395.7 274.6L395.7 274.6L397.5 274.6L397.5 270.9Q397.5 268.7 398.7 267.4Q399.9 266.2 402.0 266.2Q404.2 266.2 405.4 267.4Q406.6 268.7 406.6 270.9L406.6 270.9L406.6 274.6L409.8 274.6Q411.4 274.6 412.4 275.6Q413.3 276.5 413.3 278.1Q413.3 279.6 412.4 280.6Q411.4 281.5 409.8 281.5L409.8 281.5L406.6 281.5L406.6 297.6Q406.6 299.3 407.3 300.1Q407.9 301.0 409.4 301.1L409.4 301.1L410.0 301.1Q411.7 301.3 412.6 302.1Q413.4 302.9 413.4 304.5L413.4 304.5Q413.4 306.4 411.7 307.5Q409.9 308.5 407.0 308.5L407.0 308.5L406.7 308.5Q397.5 308.5 397.5 299.6ZM427.7 308.7L427.7 308.7Q422.8 308.7 419.7 305.8Q416.5 303.0 416.5 298.5L416.5 298.5Q416.5 294.0 419.8 291.4Q423.2 288.8 429.5 288.4L429.5 288.4L438.0 287.9L438.0 285.7Q438.0 283.4 436.5 282.1Q434.9 280.7 432.3 280.7L432.3 280.7Q430.3 280.7 428.8 281.5Q427.4 282.3 425.8 284.3L425.8 284.3Q424.3 286.0 422.2 286.0L422.2 286.0Q420.6 286.0 419.5 285.0Q418.4 284.0 418.4 282.5L418.4 282.5Q418.4 281.4 418.9 280.4L418.9 280.4Q420.0 277.4 423.8 275.7Q427.5 273.9 432.8 273.9L432.8 273.9Q439.2 273.9 443.1 277.0Q446.9 280.1 446.9 285.1L446.9 285.1L446.9 304.2Q446.9 306.4 445.7 307.6Q444.5 308.8 442.5 308.8L442.5 308.8Q440.6 308.8 439.4 307.8Q438.3 306.7 438.1 304.7L438.1 304.7L438.1 303.0L437.9 303.0Q436.6 305.6 433.7 307.2Q430.9 308.7 427.7 308.7ZM430.7 302.1L430.7 302.1Q433.7 302.1 435.8 300.3Q438.0 298.6 438.0 295.9L438.0 295.9L438.0 293.4L430.9 293.9Q428.3 294.1 427.0 295.1Q425.6 296.2 425.6 298.0L425.6 298.0Q425.6 299.9 427.0 301.0Q428.4 302.1 430.7 302.1ZM468.1 308.9L468.1 308.9Q460.5 308.9 456.0 304.2Q451.6 299.5 451.6 291.4L451.6 291.4Q451.6 283.4 456.0 278.6Q460.5 273.9 468.0 273.9L468.0 273.9Q473.0 273.9 476.9 276.1Q480.8 278.3 482.2 281.9L482.2 281.9Q482.7 283.2 482.7 284.2L482.7 284.2Q482.7 285.8 481.5 286.8Q480.4 287.7 478.8 287.7L478.8 287.7Q477.4 287.7 476.5 287.2Q475.6 286.6 474.9 285.4L474.9 285.4Q472.5 281.1 468.3 281.1L468.3 281.1Q464.8 281.1 462.8 283.8Q460.8 286.5 460.8 291.4L460.8 291.4Q460.8 296.3 462.8 299.0Q464.8 301.7 468.3 301.7L468.3 301.7Q472.5 301.7 474.8 297.8L474.8 297.8Q475.8 296.3 476.7 295.7Q477.6 295.1 479.0 295.1L479.0 295.1Q480.6 295.1 481.7 296.1Q482.8 297.1 482.8 298.7L482.8 298.7Q482.8 299.8 482.2 301.1L482.2 301.1Q480.7 304.6 476.8 306.7Q472.9 308.9 468.1 308.9ZM495.8 307.6Q494.5 308.8 492.5 308.8Q490.4 308.8 489.2 307.6Q487.9 306.3 487.9 304.1L487.9 304.1L487.9 267.1Q487.9 264.9 489.2 263.6Q490.4 262.4 492.5 262.4Q494.5 262.4 495.8 263.6Q497.0 264.9 497.0 267.1L497.0 267.1L497.0 287.9L497.2 287.9L509.3 275.8Q511 274.0 512.9 274.0L512.9 274.0Q514.7 274.0 515.8 275.1Q517.0 276.2 517.0 277.9L517.0 277.9Q517.0 279.0 516.6 279.7Q516.2 280.5 515.3 281.4L515.3 281.4L506.7 289.4L516.1 301.3Q517.3 303.1 517.3 304.7L517.3 304.7Q517.3 306.5 516.1 307.6Q514.9 308.8 513 308.8L513 308.8Q511.5 308.8 510.6 308.2Q509.6 307.6 508.5 306.0L508.5 306.0L499.9 294.6L497.0 297.3L497.0 304.1Q497.0 306.3 495.8 307.6Z M545.1 307.6Q543.9 308.8 541.8 308.8Q539.7 308.8 538.5 307.6Q537.2 306.4 537.2 304.1L537.2 304.1L537.2 281.5L535.5 281.5Q534 281.5 533.1 280.6Q532.1 279.7 532.1 278.1Q532.1 276.6 533.1 275.7Q534 274.8 535.5 274.8L535.5 274.8L537.2 274.8L537.2 272.3Q537.2 267.4 539.6 265.0Q542.0 262.7 546.8 262.6L546.8 262.6Q550.3 262.6 552.0 263.6Q553.7 264.6 553.7 266.3L553.7 266.3Q553.7 268.2 551.8 268.7L551.8 268.7Q551.0 269.0 550.1 269.0L550.1 269.0Q548.0 269.1 547.0 269.9Q546.1 270.8 546.1 272.7L546.1 272.7L546.1 274.8L550.0 274.8Q551.4 274.8 552.4 275.7Q553.3 276.6 553.3 278.1Q553.3 279.7 552.4 280.6Q551.4 281.5 550.0 281.5L550.0 281.5L546.3 281.5L546.3 304.1Q546.3 306.4 545.1 307.6ZM585.1 304.2Q580.6 308.9 572.9 308.9Q565.3 308.9 560.8 304.2Q556.3 299.6 556.3 291.4L556.3 291.4Q556.3 283.3 560.9 278.6Q565.4 273.9 572.9 273.9L572.9 273.9Q580.5 273.9 585.0 278.6Q589.5 283.3 589.5 291.4L589.5 291.4Q589.5 299.6 585.1 304.2ZM572.9 301.9L572.9 301.9Q576.3 301.9 578.3 299.1Q580.3 296.4 580.3 291.4L580.3 291.4Q580.3 286.5 578.3 283.7Q576.3 280.9 572.9 280.9Q569.6 280.9 567.6 283.7Q565.6 286.5 565.6 291.4L565.6 291.4Q565.6 296.4 567.6 299.1Q569.5 301.9 572.9 301.9ZM598.8 308.8L598.8 308.8Q596.7 308.8 595.5 307.6Q594.2 306.3 594.2 304.1L594.2 304.1L594.2 278.6Q594.2 276.4 595.4 275.2Q596.6 274.0 598.6 274.0L598.6 274.0Q600.6 274.0 601.8 275.2Q602.9 276.4 602.9 278.6L602.9 278.6L602.9 280.7L603.1 280.7Q603.8 277.6 605.7 275.9Q607.6 274.1 610.1 274.1L610.1 274.1Q611.9 274.1 612.9 275.0L612.9 275.0Q614.3 276.0 614.3 278.3L614.3 278.3Q614.3 280.5 612.9 281.6L612.9 281.6Q611.6 282.8 609.0 282.8L609.0 282.8Q606.0 282.8 604.7 284.4Q603.3 286.1 603.3 289.2L603.3 289.2L603.3 304.1Q603.3 306.3 602.1 307.6Q600.9 308.8 598.8 308.8Z M638.3 307.6Q637.2 308.7 635.2 308.7Q633.2 308.7 632.0 307.6Q630.9 306.4 630.9 304.3L630.9 304.3L630.9 268.5Q630.9 265.6 632.5 264.0Q634.2 262.4 637.0 262.4L637.0 262.4Q639.5 262.4 641.0 263.6Q642.5 264.7 643.5 267.3L643.5 267.3L654.7 295.0L654.9 295.0L666.1 267.3Q667.1 264.7 668.6 263.6Q670.2 262.4 672.6 262.4L672.6 262.4Q675.5 262.4 677.1 264.0Q678.7 265.6 678.7 268.5L678.7 268.5L678.7 304.3Q678.7 306.4 677.6 307.6Q676.5 308.7 674.5 308.7Q672.5 308.7 671.4 307.6Q670.3 306.4 670.3 304.3L670.3 304.3L670.3 277.7L670.0 277.7L658.9 305.0Q657.7 307.9 654.8 307.9L654.8 307.9Q651.9 307.9 650.8 305.0L650.8 305.0L639.6 277.7L639.3 277.7L639.3 304.3Q639.3 306.4 638.3 307.6ZM712.9 304.2Q708.4 308.9 700.8 308.9Q693.1 308.9 688.7 304.2Q684.2 299.6 684.2 291.4L684.2 291.4Q684.2 283.3 688.7 278.6Q693.2 273.9 700.8 273.9L700.8 273.9Q708.4 273.9 712.9 278.6Q717.4 283.3 717.4 291.4L717.4 291.4Q717.4 299.6 712.9 304.2ZM700.8 301.9L700.8 301.9Q704.2 301.9 706.1 299.1Q708.1 296.4 708.1 291.4L708.1 291.4Q708.1 286.5 706.1 283.7Q704.2 280.9 700.8 280.9Q697.4 280.9 695.4 283.7Q693.4 286.5 693.4 291.4L693.4 291.4Q693.4 296.4 695.4 299.1Q697.4 301.9 700.8 301.9ZM726.8 308.8L726.8 308.8Q724.7 308.8 723.5 307.6Q722.3 306.4 722.3 304.2L722.3 304.2L722.3 267.1Q722.3 264.9 723.5 263.6Q724.8 262.4 726.8 262.4Q728.9 262.4 730.2 263.6Q731.4 264.9 731.4 267.1L731.4 267.1L731.4 280.5L731.6 280.5Q733 277.5 735.7 275.8Q738.4 274.1 741.9 274.1L741.9 274.1Q748.3 274.1 751.9 278.7Q755.6 283.3 755.6 291.4Q755.6 299.5 751.9 304.1Q748.3 308.7 742.0 308.7L742.0 308.7Q738.3 308.7 735.6 307.0Q732.9 305.4 731.5 302.4L731.5 302.4L731.3 302.4L731.3 304.2Q731.3 306.4 730.0 307.6Q728.8 308.8 726.8 308.8ZM738.8 301.3L738.8 301.3Q742.3 301.3 744.2 298.7Q746.2 296.0 746.2 291.4L746.2 291.4Q746.2 286.8 744.2 284.1Q742.3 281.4 738.8 281.4L738.8 281.4Q735.5 281.4 733.4 284.2Q731.4 286.9 731.4 291.4L731.4 291.4Q731.4 295.9 733.4 298.6Q735.5 301.3 738.8 301.3ZM768.5 269.1Q767.1 270.5 765 270.5Q762.9 270.5 761.5 269.1Q760.1 267.7 760.1 265.8L760.1 265.8Q760.1 263.8 761.5 262.4Q762.9 261.1 765 261.1Q767.1 261.1 768.5 262.4Q769.9 263.8 769.9 265.8L769.9 265.8Q769.9 267.7 768.5 269.1ZM768.3 307.5Q767.1 308.8 765 308.8Q762.9 308.8 761.7 307.5Q760.4 306.3 760.4 304.1L760.4 304.1L760.4 278.7Q760.4 276.5 761.7 275.2Q762.9 274.0 765 274.0Q767.1 274.0 768.3 275.2Q769.6 276.5 769.6 278.7L769.6 278.7L769.6 304.1Q769.6 306.3 768.3 307.5ZM783.7 307.6Q782.5 308.8 780.4 308.8Q778.3 308.8 777.1 307.6Q775.8 306.3 775.8 304.1L775.8 304.1L775.8 267.1Q775.8 264.9 777.1 263.6Q778.3 262.4 780.4 262.4Q782.5 262.4 783.7 263.6Q785.0 264.9 785.0 267.1L785.0 267.1L785.0 304.1Q785.0 306.3 783.7 307.6ZM806.5 308.9L806.5 308.9Q798.7 308.9 794.3 304.3Q789.9 299.7 789.9 291.6L789.9 291.6Q789.9 283.5 794.3 278.7Q798.7 273.9 806.1 273.9L806.1 273.9Q813.2 273.9 817.6 278.3Q822.0 282.6 822.0 289.5L822.0 289.5Q822.0 291.4 820.9 292.5Q819.9 293.5 818 293.5L818 293.5L798.9 293.5L798.9 293.9Q798.9 297.6 801.0 299.9Q803.0 302.1 806.5 302.1L806.5 302.1Q809 302.1 810.8 301.2Q812.7 300.3 814.5 298.1L814.5 298.1Q815.8 296.7 817.5 296.7L817.5 296.7Q819 296.7 820.0 297.6Q821.0 298.6 821.0 300.1L821.0 300.1Q821.0 301.1 820.4 302.3L820.4 302.3Q818.8 305.4 815.1 307.1Q811.4 308.9 806.5 308.9ZM799.0 287.9L799.0 287.9L813.2 287.9Q813.1 284.6 811.1 282.6Q809.2 280.7 806.2 280.7Q803.2 280.7 801.2 282.7Q799.2 284.7 799.0 287.9Z M83.1 381.2Q82.0 382.3 80.0 382.3Q78.0 382.3 76.9 381.2Q75.8 380.0 75.8 377.9L75.8 377.9L75.8 342.1Q75.8 339.3 77.4 337.6Q79.0 336.0 81.8 336.0L81.8 336.0Q84.3 336.0 85.8 337.2Q87.3 338.3 88.3 340.9L88.3 340.9L99.5 368.6L99.8 368.6L110.9 340.9Q111.9 338.3 113.5 337.2Q115.0 336.0 117.4 336.0L117.4 336.0Q120.3 336.0 121.9 337.6Q123.5 339.3 123.5 342.1L123.5 342.1L123.5 377.9Q123.5 380.0 122.4 381.2Q121.3 382.3 119.3 382.3Q117.3 382.3 116.2 381.2Q115.1 380.0 115.1 377.9L115.1 377.9L115.1 351.3L114.8 351.3L103.7 378.6Q102.5 381.5 99.7 381.5L99.7 381.5Q96.7 381.5 95.6 378.6L95.6 378.6L84.4 351.3L84.2 351.3L84.2 377.9Q84.2 380.0 83.1 381.2ZM140.1 382.3L140.1 382.3Q135.3 382.3 132.1 379.4Q128.9 376.6 128.9 372.1L128.9 372.1Q128.9 367.6 132.3 365.0Q135.7 362.4 142.0 362L142.0 362L150.4 361.5L150.4 359.3Q150.4 357.0 148.9 355.7Q147.4 354.3 144.8 354.3L144.8 354.3Q142.7 354.3 141.3 355.1Q139.8 355.9 138.3 357.9L138.3 357.9Q136.8 359.6 134.7 359.6L134.7 359.6Q133 359.6 131.9 358.6Q130.8 357.6 130.8 356.1L130.8 356.1Q130.8 355.0 131.3 354L131.3 354Q132.5 351 136.2 349.3Q140.0 347.5 145.2 347.5L145.2 347.5Q151.6 347.5 155.5 350.6Q159.4 353.7 159.4 358.7L159.4 358.7L159.4 377.8Q159.4 380.0 158.2 381.2Q156.9 382.4 154.9 382.4L154.9 382.4Q153.0 382.4 151.9 381.4Q150.7 380.3 150.6 378.3L150.6 378.3L150.6 376.6L150.4 376.6Q149 379.3 146.2 380.8Q143.3 382.3 140.1 382.3ZM143.1 375.7L143.1 375.7Q146.2 375.7 148.3 373.9Q150.4 372.2 150.4 369.5L150.4 369.5L150.4 367.0L143.3 367.5Q140.8 367.7 139.4 368.8Q138 369.8 138 371.6L138 371.6Q138 373.5 139.4 374.6Q140.8 375.7 143.1 375.7ZM173.1 381.2Q171.9 382.4 169.8 382.4Q167.8 382.4 166.5 381.2Q165.3 379.9 165.3 377.7L165.3 377.7L165.3 352.2Q165.3 350.0 166.4 348.8Q167.6 347.6 169.7 347.6Q171.7 347.6 173.0 348.8Q174.2 350.1 174.2 352.2L174.2 352.2L174.2 354.1L174.4 354.1Q177.2 347.6 184.7 347.6L184.7 347.6Q190.3 347.6 193.3 350.9Q196.3 354.3 196.3 360.2L196.3 360.2L196.3 377.7Q196.3 379.9 195.1 381.2Q193.8 382.4 191.8 382.4Q189.7 382.4 188.5 381.2Q187.2 379.9 187.2 377.7L187.2 377.7L187.2 362.1Q187.2 358.8 185.7 357.0Q184.1 355.2 181.1 355.2Q178.0 355.2 176.2 357.2Q174.4 359.3 174.4 362.5L174.4 362.5L174.4 377.7Q174.4 379.9 173.1 381.2ZM210.3 342.7Q208.9 344.1 206.8 344.1Q204.8 344.1 203.4 342.7Q202.0 341.3 202.0 339.4L202.0 339.4Q202.0 337.4 203.4 336.0Q204.8 334.7 206.8 334.7Q208.9 334.7 210.3 336.0Q211.7 337.4 211.7 339.4L211.7 339.4Q211.7 341.3 210.3 342.7ZM210.2 381.1Q209.0 382.4 206.8 382.4Q204.7 382.4 203.5 381.1Q202.3 379.9 202.3 377.7L202.3 377.7L202.3 352.3Q202.3 350.1 203.5 348.8Q204.7 347.6 206.8 347.6Q209.0 347.6 210.2 348.8Q211.4 350.1 211.4 352.3L211.4 352.3L211.4 377.7Q211.4 379.9 210.2 381.1ZM225.3 392.5Q224.1 393.7 222.0 393.7Q220.0 393.7 218.7 392.5Q217.5 391.2 217.5 388.9L217.5 388.9L217.5 352.3Q217.5 350 218.7 348.8Q219.9 347.6 222.0 347.6Q224 347.6 225.2 348.8Q226.5 350.0 226.5 352.3L226.5 352.3L226.5 354.1L226.7 354.1Q228.0 351.1 230.7 349.4Q233.4 347.7 237.0 347.7L237.0 347.7Q243.4 347.7 247.1 352.3Q250.8 356.9 250.8 365L250.8 365Q250.8 373.1 247.1 377.7Q243.5 382.3 237.2 382.3L237.2 382.3Q233.6 382.3 230.9 380.6Q228.1 379 226.8 376.1L226.8 376.1L226.6 376.1L226.6 388.9Q226.6 391.2 225.3 392.5ZM234.0 374.9L234.0 374.9Q237.4 374.9 239.4 372.3Q241.4 369.6 241.4 365Q241.4 360.4 239.4 357.7Q237.4 355.0 234.0 355.0L234.0 355.0Q230.6 355.0 228.6 357.8Q226.6 360.5 226.6 365L226.6 365Q226.6 369.5 228.6 372.2Q230.6 374.9 234.0 374.9ZM267.3 382.4L267.3 382.4Q261.8 382.4 258.6 379.0Q255.3 375.7 255.3 369.8L255.3 369.8L255.3 352.3Q255.3 350.1 256.5 348.8Q257.8 347.6 259.8 347.6Q261.9 347.6 263.2 348.8Q264.4 350.1 264.4 352.3L264.4 352.3L264.4 367.9Q264.4 371.3 266.0 373.0Q267.6 374.8 270.7 374.8Q273.7 374.8 275.5 372.8Q277.3 370.8 277.3 367.4L277.3 367.4L277.3 352.3Q277.3 350.1 278.5 348.8Q279.8 347.6 281.8 347.6Q283.9 347.6 285.1 348.8Q286.4 350.1 286.4 352.3L286.4 352.3L286.4 377.8Q286.4 380 285.2 381.2Q284 382.4 282.0 382.4Q279.9 382.4 278.8 381.2Q277.6 380 277.6 377.8L277.6 377.8L277.6 375.7L277.4 375.7Q274.8 382.4 267.3 382.4ZM300.4 381.2Q299.2 382.4 297.1 382.4Q295.0 382.4 293.8 381.2Q292.5 379.9 292.5 377.7L292.5 377.7L292.5 340.8Q292.5 338.5 293.8 337.2Q295.0 336.0 297.1 336.0Q299.2 336.0 300.4 337.2Q301.7 338.5 301.7 340.8L301.7 340.8L301.7 377.7Q301.7 379.9 300.4 381.2ZM317.7 382.3L317.7 382.3Q312.9 382.3 309.7 379.4Q306.5 376.6 306.5 372.1L306.5 372.1Q306.5 367.6 309.9 365.0Q313.3 362.4 319.6 362L319.6 362L328 361.5L328 359.3Q328 357.0 326.5 355.7Q325.0 354.3 322.4 354.3L322.4 354.3Q320.3 354.3 318.8 355.1Q317.4 355.9 315.9 357.9L315.9 357.9Q314.4 359.6 312.3 359.6L312.3 359.6Q310.6 359.6 309.5 358.6Q308.4 357.6 308.4 356.1L308.4 356.1Q308.4 355.0 308.9 354L308.9 354Q310.1 351 313.8 349.3Q317.6 347.5 322.8 347.5L322.8 347.5Q329.2 347.5 333.1 350.6Q337.0 353.7 337.0 358.7L337.0 358.7L337.0 377.8Q337.0 380.0 335.8 381.2Q334.5 382.4 332.5 382.4L332.5 382.4Q330.6 382.4 329.5 381.4Q328.3 380.3 328.2 378.3L328.2 378.3L328.2 376.6L328.0 376.6Q326.6 379.3 323.8 380.8Q320.9 382.3 317.7 382.3ZM320.7 375.7L320.7 375.7Q323.8 375.7 325.9 373.9Q328 372.2 328 369.5L328 369.5L328 367.0L320.9 367.5Q318.4 367.7 317.0 368.8Q315.6 369.8 315.6 371.6L315.6 371.6Q315.6 373.5 317 374.6Q318.4 375.7 320.7 375.7ZM345.3 373.2L345.3 373.2L345.3 355.1L343.5 355.1Q341.9 355.1 341.0 354.2Q340 353.3 340 351.7Q340 350.1 341.0 349.2Q341.9 348.3 343.5 348.3L343.5 348.3L345.3 348.3L345.3 344.5Q345.3 342.3 346.5 341.0Q347.7 339.8 349.8 339.8Q352.0 339.8 353.2 341.0Q354.4 342.3 354.4 344.5L354.4 344.5L354.4 348.3L357.6 348.3Q359.3 348.3 360.2 349.2Q361.1 350.1 361.1 351.7Q361.1 353.3 360.2 354.2Q359.3 355.1 357.6 355.1L357.6 355.1L354.4 355.1L354.4 371.2Q354.4 372.9 355.1 373.8Q355.7 374.6 357.2 374.7L357.2 374.7L357.8 374.8Q359.5 374.9 360.4 375.7Q361.3 376.5 361.3 378.1L361.3 378.1Q361.3 380.0 359.5 381.1Q357.8 382.1 354.8 382.1L354.8 382.1L354.5 382.1Q345.3 382.1 345.3 373.2ZM373.8 342.7Q372.4 344.1 370.3 344.1Q368.3 344.1 366.8 342.7Q365.4 341.3 365.4 339.4L365.4 339.4Q365.4 337.4 366.8 336.0Q368.3 334.7 370.3 334.7Q372.4 334.7 373.8 336.0Q375.2 337.4 375.2 339.4L375.2 339.4Q375.2 341.3 373.8 342.7ZM373.7 381.1Q372.4 382.4 370.3 382.4Q368.2 382.4 367.0 381.1Q365.8 379.9 365.8 377.7L365.8 377.7L365.8 352.3Q365.8 350.1 367.0 348.8Q368.2 347.6 370.3 347.6Q372.4 347.6 373.7 348.8Q374.9 350.1 374.9 352.3L374.9 352.3L374.9 377.7Q374.9 379.9 373.7 381.1ZM408.4 377.8Q404.0 382.5 396.3 382.5Q388.7 382.5 384.2 377.8Q379.7 373.2 379.7 365.0L379.7 365.0Q379.7 356.9 384.2 352.2Q388.8 347.5 396.3 347.5L396.3 347.5Q403.9 347.5 408.4 352.2Q412.9 356.9 412.9 365.0L412.9 365.0Q412.9 373.2 408.4 377.8ZM396.3 375.5L396.3 375.5Q399.7 375.5 401.7 372.8Q403.6 370 403.6 365L403.6 365Q403.6 360.1 401.7 357.3Q399.7 354.5 396.3 354.5Q392.9 354.5 391.0 357.3Q389.0 360.1 389.0 365L389.0 365Q389.0 370 390.9 372.8Q392.9 375.5 396.3 375.5ZM425.5 381.2Q424.2 382.4 422.2 382.4Q420.1 382.4 418.8 381.2Q417.6 379.9 417.6 377.7L417.6 377.7L417.6 352.2Q417.6 350.0 418.8 348.8Q419.9 347.6 422 347.6Q424.1 347.6 425.3 348.8Q426.6 350.1 426.6 352.2L426.6 352.2L426.6 354.1L426.8 354.1Q429.5 347.6 437.1 347.6L437.1 347.6Q442.6 347.6 445.7 350.9Q448.7 354.3 448.7 360.2L448.7 360.2L448.7 377.7Q448.7 379.9 447.4 381.2Q446.2 382.4 444.1 382.4Q442.1 382.4 440.8 381.2Q439.6 379.9 439.6 377.7L439.6 377.7L439.6 362.1Q439.6 358.8 438 357.0Q436.4 355.2 433.4 355.2Q430.4 355.2 428.5 357.2Q426.7 359.3 426.7 362.5L426.7 362.5L426.7 377.7Q426.7 379.9 425.5 381.2Z M476.1 381.1Q474.8 382.4 472.6 382.4Q470.4 382.4 469.2 381.1Q467.9 379.8 467.9 377.5L467.9 377.5L467.9 341.6Q467.9 339.3 469.2 338.0Q470.4 336.7 472.6 336.7L472.6 336.7L486.4 336.7Q494.1 336.7 498.4 340.5Q502.7 344.3 502.7 351.0L502.7 351.0Q502.7 355.3 500.7 358.7Q498.6 362.0 494.9 363.6L494.9 363.6L501.4 374.8Q502.4 376.6 502.4 378.1L502.4 378.1Q502.4 380.0 501.1 381.2Q499.8 382.4 497.7 382.4L497.7 382.4Q496 382.4 495.0 381.7Q494.0 380.9 492.9 378.8L492.9 378.8L485.4 365.3L477.3 365.3L477.3 377.5Q477.3 379.8 476.1 381.1ZM477.3 344.0L477.3 358.4L485.5 358.4Q489.0 358.4 491.0 356.5Q493 354.6 493 351.2L493 351.2Q493 347.9 490.9 346.0Q488.9 344.0 485.4 344.0L485.4 344.0L477.3 344.0ZM523.5 382.5L523.5 382.5Q515.7 382.5 511.3 377.9Q506.9 373.3 506.9 365.2L506.9 365.2Q506.9 357.1 511.3 352.3Q515.6 347.5 523.1 347.5L523.1 347.5Q530.2 347.5 534.5 351.9Q538.9 356.3 538.9 363.1L538.9 363.1Q538.9 365.0 537.9 366.1Q536.9 367.1 535.0 367.1L535.0 367.1L515.8 367.1L515.8 367.5Q515.8 371.2 517.9 373.5Q520 375.7 523.5 375.7L523.5 375.7Q526.0 375.7 527.8 374.8Q529.6 373.9 531.5 371.7L531.5 371.7Q532.8 370.3 534.4 370.3L534.4 370.3Q536.0 370.3 537.0 371.3Q538 372.2 538 373.7L538 373.7Q538 374.8 537.4 375.9L537.4 375.9Q535.7 379 532.0 380.7Q528.3 382.5 523.5 382.5ZM515.9 361.5L515.9 361.5L530.2 361.5Q530.0 358.2 528.1 356.3Q526.2 354.3 523.2 354.3Q520.2 354.3 518.2 356.3Q516.2 358.3 515.9 361.5ZM557.3 382.5L557.3 382.5Q551.7 382.5 547.9 380.6Q544.1 378.8 542.9 375.8L542.9 375.8Q542.5 374.8 542.5 374.1L542.5 374.1Q542.5 372.5 543.6 371.6Q544.6 370.6 546.2 370.6L546.2 370.6Q548.3 370.6 550.2 372.7L550.2 372.7Q551.6 374.4 553.3 375.3Q554.9 376.1 557.5 376.1L557.5 376.1Q560 376.1 561.5 375.1Q563.0 374.1 563.0 372.5L563.0 372.5Q563.0 371.1 562.0 370.3Q561.0 369.5 558.5 369.0L558.5 369.0L552.9 367.8Q548 366.7 545.5 364.3Q543.0 361.8 543.0 358.1L543.0 358.1Q543.0 353.3 546.9 350.4Q550.8 347.5 557.3 347.5L557.3 347.5Q562.3 347.5 565.9 349.5Q569.5 351.5 570.4 354.5L570.4 354.5Q570.6 355.3 570.6 355.8L570.6 355.8Q570.6 357.3 569.7 358.1Q568.8 358.9 567.1 358.9L567.1 358.9Q565.0 358.9 563.8 357.5L563.8 357.5Q562.4 355.8 560.9 354.9Q559.4 353.9 557.1 353.9L557.1 353.9Q554.8 353.9 553.3 354.9Q551.8 355.9 551.8 357.6L551.8 357.6Q551.8 358.9 552.9 359.8Q554.0 360.7 556.5 361.2L556.5 361.2L562.0 362.4Q567.4 363.5 569.7 365.6Q572.1 367.8 572.1 371.5L572.1 371.5Q572.1 376.5 568.0 379.5Q563.9 382.5 557.3 382.5ZM592 382.5L592 382.5Q584.2 382.5 579.8 377.9Q575.4 373.3 575.4 365.2L575.4 365.2Q575.4 357.1 579.8 352.3Q584.1 347.5 591.6 347.5L591.6 347.5Q598.7 347.5 603.0 351.9Q607.4 356.3 607.4 363.1L607.4 363.1Q607.4 365.0 606.4 366.1Q605.4 367.1 603.5 367.1L603.5 367.1L584.3 367.1L584.3 367.5Q584.3 371.2 586.4 373.5Q588.5 375.7 592.0 375.7L592.0 375.7Q594.5 375.7 596.3 374.8Q598.1 373.9 600.0 371.7L600.0 371.7Q601.3 370.3 602.9 370.3L602.9 370.3Q604.5 370.3 605.5 371.3Q606.5 372.2 606.5 373.7L606.5 373.7Q606.5 374.8 605.9 375.9L605.9 375.9Q604.2 379 600.5 380.7Q596.8 382.5 592 382.5ZM584.4 361.5L584.4 361.5L598.7 361.5Q598.5 358.2 596.6 356.3Q594.7 354.3 591.7 354.3Q588.7 354.3 586.7 356.3Q584.7 358.3 584.4 361.5ZM622.0 382.3L622.0 382.3Q617.2 382.3 614 379.4Q610.8 376.6 610.8 372.1L610.8 372.1Q610.8 367.6 614.2 365.0Q617.6 362.4 623.9 362L623.9 362L632.3 361.5L632.3 359.3Q632.3 357.0 630.8 355.7Q629.3 354.3 626.7 354.3L626.7 354.3Q624.6 354.3 623.2 355.1Q621.7 355.9 620.2 357.9L620.2 357.9Q618.7 359.6 616.6 359.6L616.6 359.6Q614.9 359.6 613.8 358.6Q612.8 357.6 612.8 356.1L612.8 356.1Q612.8 355.0 613.2 354L613.2 354Q614.4 351 618.1 349.3Q621.9 347.5 627.1 347.5L627.1 347.5Q633.5 347.5 637.4 350.6Q641.3 353.7 641.3 358.7L641.3 358.7L641.3 377.8Q641.3 380.0 640.1 381.2Q638.8 382.4 636.8 382.4L636.8 382.4Q634.9 382.4 633.8 381.4Q632.6 380.3 632.5 378.3L632.5 378.3L632.5 376.6L632.3 376.6Q630.9 379.3 628.1 380.8Q625.3 382.3 622.0 382.3ZM625.0 375.7L625.0 375.7Q628.1 375.7 630.2 373.9Q632.3 372.2 632.3 369.5L632.3 369.5L632.3 367.0L625.3 367.5Q622.7 367.7 621.3 368.8Q619.9 369.8 619.9 371.6L619.9 371.6Q619.9 373.5 621.3 374.6Q622.7 375.7 625.0 375.7ZM651.7 382.4L651.7 382.4Q649.6 382.4 648.4 381.2Q647.2 379.9 647.2 377.7L647.2 377.7L647.2 352.2Q647.2 350 648.4 348.8Q649.6 347.6 651.6 347.6L651.6 347.6Q653.5 347.6 654.7 348.8Q655.9 350 655.9 352.2L655.9 352.2L655.9 354.3L656.1 354.3Q656.7 351.3 658.6 349.5Q660.5 347.7 663.0 347.7L663.0 347.7Q664.9 347.7 665.9 348.6L665.9 348.6Q667.2 349.6 667.2 351.9L667.2 351.9Q667.2 354.1 665.9 355.2L665.9 355.2Q664.5 356.4 661.9 356.4L661.9 356.4Q658.9 356.4 657.6 358.0Q656.3 359.7 656.3 362.8L656.3 362.8L656.3 377.7Q656.3 379.9 655.1 381.2Q653.8 382.4 651.7 382.4ZM685.7 382.5L685.7 382.5Q678.1 382.5 673.7 377.8Q669.2 373.1 669.2 365L669.2 365Q669.2 357.0 673.7 352.3Q678.1 347.5 685.7 347.5L685.7 347.5Q690.7 347.5 694.5 349.7Q698.4 351.9 699.8 355.5L699.8 355.5Q700.3 356.8 700.3 357.8L700.3 357.8Q700.3 359.4 699.2 360.4Q698.1 361.3 696.4 361.3L696.4 361.3Q695.0 361.3 694.1 360.8Q693.3 360.2 692.5 359.0L692.5 359.0Q690.1 354.7 685.9 354.7L685.9 354.7Q682.5 354.7 680.5 357.4Q678.5 360.1 678.5 365.0L678.5 365.0Q678.5 369.9 680.5 372.6Q682.4 375.3 685.9 375.3L685.9 375.3Q690.1 375.3 692.4 371.4L692.4 371.4Q693.4 369.9 694.3 369.3Q695.2 368.7 696.6 368.7L696.6 368.7Q698.2 368.7 699.3 369.7Q700.4 370.7 700.4 372.3L700.4 372.3Q700.4 373.4 699.8 374.7L699.8 374.7Q698.3 378.2 694.4 380.3Q690.5 382.5 685.7 382.5ZM713.4 381.2Q712.2 382.4 710.1 382.4Q708.0 382.4 706.8 381.2Q705.5 379.9 705.5 377.7L705.5 377.7L705.5 340.7Q705.5 338.5 706.7 337.2Q707.9 336.0 710.0 336.0L710.0 336.0Q712.1 336.0 713.3 337.2Q714.5 338.4 714.5 340.7L714.5 340.7L714.5 354.2L714.7 354.2Q716.0 351.0 718.7 349.3Q721.4 347.6 725.2 347.6L725.2 347.6Q730.8 347.6 733.8 351.0Q736.9 354.3 736.9 360.2L736.9 360.2L736.9 377.7Q736.9 379.9 735.7 381.2Q734.4 382.4 732.3 382.4Q730.3 382.4 729.0 381.2Q727.8 379.9 727.8 377.7L727.8 377.7L727.8 362.1Q727.8 358.8 726.2 357.0Q724.6 355.2 721.5 355.2L721.5 355.2Q718.3 355.2 716.5 357.2Q714.7 359.3 714.7 362.6L714.7 362.6L714.7 377.7Q714.7 379.9 713.4 381.2Z " clip-path="url(#satori_cp-id-0)" mask="url(#satori_om-id-0)"/><defs><clipPath id="satori_bc-id-0-1" clip-path="url(#satori_cp-id-0)"><rect x="0" y="509" width="1200" height="121"/></clipPath></defs><mask id="satori_om-id-0-1"><rect x="0" y="510" width="1200" height="120" fill="#fff" mask="url(#satori_om-id-0)"/><path width="1200" height="121" fill="none" stroke="#000" stroke-width="2" d="M0,509 A0,0 0 0 1 0,509 h1200 A0,0 0 0 1 1200,509"/></mask><path width="1200" height="121" clip-path="url(#satori_bc-id-0-1)" fill="none" stroke="rgba(0,0,0,0.08)" stroke-width="2" d="M0,509 A0,0 0 0 1 0,509 h1200 A0,0 0 0 1 1200,509"/><mask id="satori_om-id-0-1-0"><rect x="48" y="538" width="228" height="64" fill="#fff" mask="url(#satori_om-id-0)"/></mask><mask id="satori_om-id-0-1-0-0"><rect x="48" y="538" width="72" height="64" fill="#fff" mask="url(#satori_om-id-0)"/></mask><clipPath id="satori_cp-id-0-1-0-0-0" clip-path="url(#satori_cp-id-0)"><rect x="48" y="538" width="72" height="64"/></clipPath><mask id="satori_om-id-0-1-0-0-0"><rect x="48" y="538" width="72" height="64" fill="#fff" mask="url(#satori_om-id-0)"/></mask><image x="48" y="538" width="72" height="64" href="data:image/svg+xml;utf8,%3Csvg  xmlns=%22http://www.w3.org/2000/svg%22 width=%2273.60461760461762%22 height=%2264%22 viewBox=%220 0 797 693%22%3E%3Cg transform=%22matrix(1,0,0,1,-345,-96.5)%22%3E%3Cpath d=%22M756.942,197.15L756.942,474C701.751,474 656.942,518.808 656.942,574C656.942,629.192 701.751,674 756.942,674L756.942,777L495.122,777C443.175,777 401,734.825 401,682.878L401,614L364.755,614C353.852,614 345,605.148 345,594.245L345,436.814C345,425.878 353.878,417 364.814,417L401,417L401,365.122C401,313.175 443.175,271 495.122,271L715.058,271L715.058,197.15C696.492,189.056 683.5,170.533 683.5,149C683.5,120.024 707.024,96.5 736,96.5C764.976,96.5 788.5,120.024 788.5,149C788.5,170.533 775.508,189.056 756.942,197.15ZM559,388C520.918,388 490,418.918 490,457C490,495.082 520.918,526 559,526C597.082,526 628,495.082 628,457C628,418.918 597.082,388 559,388Z%22 fill=%22%23ad47ff%22%3E%3C/path%3E%3Cg transform=%22matrix(-1,1.22465e-16,-1.22465e-16,-1,1486.06,1043)%22%3E%3Cpath d=%22M401,417L401,348.122C401,296.175 443.175,254 495.122,254L705.058,254L705.058,357C760.249,357 805.058,401.808 805.058,457C805.058,512.192 760.249,557 705.058,557L705.058,760L495.122,760C443.175,760 401,717.825 401,665.878L401,614L364.755,614C353.852,614 345,605.148 345,594.245L345,436.814C345,425.878 353.878,417 364.814,417L401,417ZM552,643C590.082,643 621,612.082 621,574C621,535.918 590.082,505 552,505C513.918,505 483,535.918 483,574C483,612.082 513.918,643 552,643Z%22 fill=%22%2300d5bd%22%3E%3C/path%3E%3C/g%3E%3C/g%3E%3C/svg%3E" preserveAspectRatio="none" clip-path="url(#satori_cp-id-0-1-0-0-0)" mask="url(#satori_om-id-0-1-0-0-0)"/><mask id="satori_om-id-0-1-0-0-0-0"><rect x="48" y="538" width="0" height="64" fill="#fff" mask="url(#satori_om-id-0)"/></mask><mask id="satori_om-id-0-1-0-0-0-0-0"><rect x="48" y="538" width="0" height="64" fill="#fff" mask="url(#satori_om-id-0)"/></mask><mask id="satori_om-id-0-1-0-0-0-0-1"><rect x="48" y="538" width="0" height="64" fill="#fff" mask="url(#satori_om-id-0)"/></mask><mask id="satori_om-id-0-1-0-0-0-0-1-0"><rect x="48" y="538" width="0" height="64" fill="#fff" mask="url(#satori_om-id-0)"/></mask><mask id="satori_om-id-0-1-0-1"><rect x="138" y="540" width="138" height="60" fill="#fff" mask="url(#satori_om-id-0)"/></mask><mask id="satori_om-id-0-1-0-1-0"><rect x="138" y="540" width="138" height="36" fill="#fff" mask="url(#satori_om-id-0)"/></mask><path fill="#0f172a" d="M150.7 571.2L150.7 571.2Q145.9 571.2 143.0 568.6Q140.1 566.1 140.1 561.8L140.1 561.8L140.1 547.9Q140.1 546.5 140.8 545.8Q141.5 545.1 142.8 545.1Q144.0 545.1 144.7 545.8Q145.4 546.5 145.4 547.9L145.4 547.9L145.4 561.3Q145.4 563.8 146.8 565.2Q148.2 566.7 150.7 566.7L150.7 566.7Q153.3 566.7 154.7 565.2Q156.1 563.8 156.1 561.3L156.1 561.3L156.1 547.9Q156.1 546.5 156.8 545.8Q157.5 545.1 158.7 545.1Q160.0 545.1 160.7 545.8Q161.4 546.5 161.4 547.9L161.4 547.9L161.4 561.8Q161.4 566.1 158.5 568.6Q155.6 571.2 150.7 571.2ZM170.2 570.4Q169.5 571.2 168.2 571.2Q167.0 571.2 166.3 570.4Q165.6 569.7 165.6 568.4L165.6 568.4L165.6 548.2Q165.6 546.9 166.3 546.2Q167.0 545.4 168.2 545.4L168.2 545.4L176.0 545.4Q180.3 545.4 182.7 547.6Q185.1 549.7 185.1 553.5L185.1 553.5Q185.1 555.9 184.0 557.8Q182.9 559.7 180.8 560.6L180.8 560.6L184.4 566.9Q185.0 567.9 185.0 568.7L185.0 568.7Q185.0 569.8 184.2 570.5Q183.5 571.2 182.3 571.2L182.3 571.2Q181.4 571.2 180.8 570.8Q180.3 570.3 179.6 569.2L179.6 569.2L175.4 561.5L170.9 561.5L170.9 568.4Q170.9 569.7 170.2 570.4ZM170.9 549.6L170.9 557.7L175.5 557.7Q177.5 557.7 178.6 556.6Q179.7 555.5 179.7 553.6L179.7 553.6Q179.7 551.8 178.5 550.7Q177.4 549.6 175.4 549.6L175.4 549.6L170.9 549.6ZM198.1 562.7L190.8 562.7Q189.7 562.7 189.1 562.1Q188.4 561.5 188.4 560.5Q188.4 559.4 189.1 558.8Q189.7 558.2 190.8 558.2L190.8 558.2L198.1 558.2Q199.2 558.2 199.9 558.8Q200.6 559.4 200.6 560.5Q200.6 561.5 199.9 562.1Q199.2 562.7 198.1 562.7L198.1 562.7ZM209.1 570.4Q208.4 571.2 207.2 571.2Q205.9 571.2 205.2 570.4Q204.5 569.7 204.5 568.4L204.5 568.4L204.5 548.2Q204.5 546.9 205.2 546.2Q205.9 545.4 207.2 545.4L207.2 545.4L214.9 545.4Q219.3 545.4 221.7 547.6Q224.1 549.7 224.1 553.5L224.1 553.5Q224.1 555.9 223.0 557.8Q221.8 559.7 219.7 560.6L219.7 560.6L223.4 566.9Q224.0 567.9 224.0 568.7L224.0 568.7Q224.0 569.8 223.2 570.5Q222.4 571.2 221.3 571.2L221.3 571.2Q220.3 571.2 219.8 570.8Q219.2 570.3 218.6 569.2L218.6 569.2L214.4 561.5L209.8 561.5L209.8 568.4Q209.8 569.7 209.1 570.4ZM209.8 549.6L209.8 557.7L214.4 557.7Q216.4 557.7 217.5 556.6Q218.6 555.5 218.6 553.6L218.6 553.6Q218.6 551.8 217.5 550.7Q216.3 549.6 214.4 549.6L214.4 549.6L209.8 549.6ZM229.3 571.1L229.3 571.1Q228.0 571.1 227.3 570.5Q226.6 569.8 226.6 568.6L226.6 568.6Q226.6 567.9 226.9 566.9L226.9 566.9L233.9 548.1Q234.4 546.5 235.4 545.8Q236.3 545.1 237.8 545.1L237.8 545.1Q239.4 545.1 240.4 545.8Q241.3 546.5 241.9 548.1L241.9 548.1L248.9 566.9Q249.2 567.9 249.2 568.6L249.2 568.6Q249.2 569.7 248.5 570.4Q247.7 571.1 246.5 571.1L246.5 571.1Q245.4 571.1 244.8 570.6Q244.1 570.0 243.8 568.8L243.8 568.8L242.4 564.8L233.3 564.8L232.0 568.7Q231.6 570.0 231.0 570.6Q230.3 571.1 229.3 571.1ZM237.7 550.3L234.5 560.7L241.2 560.7L237.9 550.3L237.7 550.3ZM262.1 570.8L255.1 570.8Q253.8 570.8 253.1 570.1Q252.4 569.3 252.4 568.0L252.4 568.0L252.4 548.2Q252.4 546.9 253.1 546.2Q253.8 545.4 255.1 545.4L255.1 545.4L262.1 545.4Q267.8 545.4 271.0 548.7Q274.2 552.0 274.2 558.0L274.2 558.0Q274.2 564.0 271.0 567.4Q267.8 570.8 262.1 570.8L262.1 570.8ZM257.7 549.8L257.7 566.4L261.5 566.4Q265.0 566.4 266.9 564.3Q268.8 562.1 268.8 558.0L268.8 558.0Q268.8 554.1 266.9 551.9Q265.0 549.8 261.5 549.8L261.5 549.8L257.7 549.8Z " clip-path="url(#satori_cp-id-0)" mask="url(#satori_om-id-0)"/><mask id="satori_om-id-0-1-0-1-1"><rect x="138" y="576" width="138" height="24" fill="#fff" mask="url(#satori_om-id-0)"/></mask><path fill="#334155" d="M145.0 595.3L145.0 595.3Q142.4 595.3 140.8 593.8Q139.2 592.4 139.2 590.1L139.2 590.1L139.2 582.1Q139.2 581.5 139.6 581.1Q139.9 580.8 140.5 580.8L140.5 580.8Q141.1 580.8 141.4 581.1Q141.8 581.5 141.8 582.1L141.8 582.1L141.8 589.8Q141.8 591.3 142.6 592.2Q143.5 593.1 145.0 593.1Q146.6 593.1 147.4 592.2Q148.3 591.3 148.3 589.8L148.3 589.8L148.3 582.1Q148.3 581.5 148.6 581.1Q149.0 580.8 149.6 580.8L149.6 580.8Q150.2 580.8 150.5 581.1Q150.8 581.5 150.8 582.1L150.8 582.1L150.8 590.1Q150.8 592.4 149.3 593.8Q147.7 595.3 145.0 595.3ZM155.5 594.9Q155.2 595.2 154.6 595.2Q154.0 595.2 153.6 594.9Q153.3 594.5 153.3 593.9L153.3 593.9L153.3 582.3Q153.3 581.6 153.6 581.3Q154.0 581.0 154.6 581.0L154.6 581.0L158.9 581.0Q161.2 581.0 162.5 582.1Q163.8 583.3 163.8 585.3L163.8 585.3Q163.8 586.7 163.1 587.8Q162.4 588.8 161.2 589.3L161.2 589.3L163.4 593.2Q163.7 593.7 163.7 594.1L163.7 594.1Q163.7 594.6 163.4 594.9Q163.0 595.2 162.4 595.2L162.4 595.2Q162.0 595.2 161.7 595.0Q161.5 594.8 161.2 594.3L161.2 594.3L158.7 589.7L155.8 589.7L155.8 593.9Q155.8 594.5 155.5 594.9ZM155.8 583.0L155.8 587.8L158.7 587.8Q159.9 587.8 160.5 587.2Q161.2 586.5 161.2 585.4L161.2 585.4Q161.2 584.3 160.5 583.6Q159.8 583.0 158.6 583.0L158.6 583.0L155.8 583.0ZM171.1 590.4L166.7 590.4Q166.2 590.4 165.9 590.1Q165.6 589.8 165.6 589.3Q165.6 588.8 165.9 588.5Q166.2 588.2 166.7 588.2L166.7 588.2L171.1 588.2Q171.7 588.2 172.0 588.5Q172.3 588.8 172.3 589.3Q172.3 589.8 172.0 590.1Q171.7 590.4 171.1 590.4L171.1 590.4ZM176.7 594.9Q176.4 595.2 175.8 595.2Q175.2 595.2 174.9 594.9Q174.6 594.5 174.6 593.9L174.6 593.9L174.6 582.3Q174.6 581.6 174.9 581.3Q175.2 581.0 175.8 581.0L175.8 581.0L180.1 581.0Q182.4 581.0 183.7 582.1Q185.0 583.3 185.0 585.3L185.0 585.3Q185.0 586.7 184.3 587.8Q183.7 588.8 182.5 589.3L182.5 589.3L184.7 593.2Q185.0 593.7 185.0 594.1L185.0 594.1Q185.0 594.6 184.6 594.9Q184.2 595.2 183.7 595.2L183.7 595.2Q183.2 595.2 183.0 595.0Q182.7 594.8 182.4 594.3L182.4 594.3L179.9 589.7L177.1 589.7L177.1 593.9Q177.1 594.5 176.7 594.9ZM177.1 583.0L177.1 587.8L179.9 587.8Q181.1 587.8 181.8 587.2Q182.4 586.5 182.4 585.4L182.4 585.4Q182.4 584.3 181.8 583.6Q181.1 583.0 179.9 583.0L179.9 583.0L177.1 583.0ZM187.7 595.2L187.7 595.2Q187.1 595.2 186.7 594.9Q186.4 594.6 186.4 594.0L186.4 594.0Q186.4 593.7 186.6 593.3L186.6 593.3L190.7 582.2Q190.9 581.4 191.4 581.1Q191.8 580.8 192.5 580.8L192.5 580.8Q193.2 580.8 193.6 581.1Q194.1 581.4 194.3 582.1L194.3 582.1L198.4 593.3Q198.6 593.7 198.6 594.0L198.6 594.0Q198.6 594.6 198.2 594.9Q197.9 595.2 197.3 595.2L197.3 595.2Q196.8 595.2 196.5 595.0Q196.2 594.7 196.0 594.1L196.0 594.1L195.1 591.4L189.9 591.4L188.9 594.1Q188.8 594.7 188.5 595.0Q188.2 595.2 187.7 595.2ZM192.4 583.4L190.5 589.5L194.5 589.5L192.5 583.4L192.4 583.4ZM205.6 595.0L201.7 595.0Q201.1 595.0 200.8 594.7Q200.4 594.3 200.4 593.7L200.4 593.7L200.4 582.3Q200.4 581.6 200.8 581.3Q201.1 581.0 201.7 581.0L201.7 581.0L205.6 581.0Q208.7 581.0 210.5 582.8Q212.3 584.6 212.3 588.0L212.3 588.0Q212.3 591.3 210.5 593.2Q208.7 595.0 205.6 595.0L205.6 595.0ZM202.9 583.1L202.9 592.9L205.3 592.9Q207.4 592.9 208.6 591.6Q209.7 590.4 209.7 588.0L209.7 588.0Q209.7 585.6 208.6 584.3Q207.4 583.1 205.3 583.1L205.3 583.1L202.9 583.1Z M227.0 595.0L219.2 595.0Q218.7 595.0 218.3 594.8Q218.0 594.5 218.0 594.0L218.0 594.0Q218.0 593.6 218.2 593.3Q218.3 593.1 218.7 592.7L218.7 592.7L223.0 588.4Q224.4 587.1 224.8 586.4Q225.3 585.7 225.3 584.9L225.3 584.9Q225.3 583.9 224.6 583.3Q224.0 582.7 223.0 582.7L223.0 582.7Q221.1 582.7 220.3 584.6L220.3 584.6Q220.1 585.0 219.9 585.2Q219.6 585.4 219.2 585.4L219.2 585.4Q218.7 585.4 218.4 585.1Q218.1 584.8 218.1 584.3L218.1 584.3Q218.1 584.1 218.2 583.8L218.2 583.8Q218.3 583.2 218.7 582.7Q219.1 582.1 219.7 581.7Q220.3 581.2 221.1 580.9Q222.0 580.7 223.0 580.7L223.0 580.7Q225.1 580.7 226.4 581.8Q227.8 582.9 227.8 584.7L227.8 584.7Q227.8 585.9 227.1 586.9Q226.4 588.0 224.6 589.8L224.6 589.8L221.4 592.9L221.4 593.0L227.0 593.0Q227.5 593.0 227.8 593.3Q228.1 593.5 228.1 594.0Q228.1 594.5 227.8 594.8Q227.5 595.0 227.0 595.0L227.0 595.0ZM235.2 595.3L235.2 595.3Q232.6 595.3 231.1 593.4Q229.7 591.4 229.7 588.0L229.7 588.0Q229.7 584.6 231.1 582.6Q232.6 580.7 235.2 580.7L235.2 580.7Q237.8 580.7 239.3 582.6Q240.7 584.6 240.7 588.0L240.7 588.0Q240.7 591.4 239.3 593.3Q237.8 595.3 235.2 595.3ZM235.2 593.3L235.2 593.3Q236.6 593.3 237.4 591.9Q238.2 590.5 238.2 588.0L238.2 588.0Q238.2 585.5 237.4 584.1Q236.6 582.7 235.2 582.7Q233.8 582.7 233.0 584.1Q232.2 585.5 232.2 588.0L232.2 588.0Q232.2 590.5 233.0 591.9Q233.8 593.3 235.2 593.3ZM251.6 595.0L243.8 595.0Q243.2 595.0 242.9 594.8Q242.6 594.5 242.6 594.0L242.6 594.0Q242.6 593.6 242.7 593.3Q242.9 593.1 243.3 592.7L243.3 592.7L247.6 588.4Q248.9 587.1 249.4 586.4Q249.8 585.7 249.8 584.9L249.8 584.9Q249.8 583.9 249.2 583.3Q248.5 582.7 247.5 582.7L247.5 582.7Q245.6 582.7 244.9 584.6L244.9 584.6Q244.7 585.0 244.4 585.2Q244.2 585.4 243.7 585.4L243.7 585.4Q243.2 585.4 242.9 585.1Q242.6 584.8 242.6 584.3L242.6 584.3Q242.6 584.1 242.7 583.8L242.7 583.8Q242.9 583.2 243.2 582.7Q243.6 582.1 244.2 581.7Q244.8 581.2 245.7 580.9Q246.5 580.7 247.5 580.7L247.5 580.7Q249.6 580.7 251.0 581.8Q252.3 582.9 252.3 584.7L252.3 584.7Q252.3 585.9 251.6 586.9Q251.0 588.0 249.2 589.8L249.2 589.8L245.9 592.9L245.9 593.0L251.6 593.0Q252.1 593.0 252.4 593.3Q252.6 593.5 252.6 594.0Q252.6 594.5 252.4 594.8Q252.1 595.0 251.6 595.0L251.6 595.0ZM259.6 595.3L259.6 595.3Q258.0 595.3 256.7 594.6Q255.4 593.9 254.9 592.8L254.9 592.8Q254.6 592.3 254.6 591.8L254.6 591.8Q254.6 591.3 254.9 591.0Q255.2 590.7 255.7 590.7L255.7 590.7Q256.1 590.7 256.4 590.9Q256.6 591.1 256.8 591.5L256.8 591.5Q257.2 592.3 257.9 592.8Q258.6 593.3 259.6 593.3L259.6 593.3Q260.9 593.3 261.7 592.5Q262.5 591.7 262.5 590.4L262.5 590.4Q262.5 589.2 261.7 588.4Q260.9 587.7 259.6 587.7L259.6 587.7Q258.3 587.7 257.4 588.5L257.4 588.5Q257.0 589.0 256.7 589.1Q256.4 589.3 256.0 589.3L256.0 589.3Q255.4 589.3 255.1 588.9Q254.8 588.5 254.8 588.0L254.8 588.0Q254.8 587.9 254.8 587.8L254.8 587.8L255.3 582.5Q255.4 581.7 255.8 581.3Q256.2 581.0 257.0 581.0L257.0 581.0L263.1 581.0Q263.6 581.0 263.9 581.2Q264.2 581.5 264.2 582.0L264.2 582.0Q264.2 582.4 263.9 582.7Q263.6 583.0 263.1 583.0L263.1 583.0L257.4 583.0L257.1 587.2L257.1 587.2Q257.6 586.5 258.4 586.1Q259.2 585.8 260.3 585.8L260.3 585.8Q262.3 585.8 263.6 587.0Q264.9 588.3 264.9 590.4L264.9 590.4Q264.9 592.6 263.4 593.9Q261.9 595.3 259.6 595.3Z " clip-path="url(#satori_cp-id-0)" mask="url(#satori_om-id-0)"/><mask id="satori_om-id-0-1-1"><rect x="972" y="557" width="180" height="26" fill="#fff" mask="url(#satori_om-id-0)"/></mask><path fill="#334155" d="M975.4 577.8Q975.1 578.2 974.5 578.2Q973.9 578.2 973.5 577.8Q973.2 577.5 973.2 576.8L973.2 576.8L973.2 563.6Q973.2 563.0 973.5 562.6Q973.9 562.2 974.5 562.2Q975.1 562.2 975.5 562.6Q975.8 563.0 975.8 563.6L975.8 563.6L975.8 568.5L975.9 568.5Q976.4 567.5 977.3 566.9Q978.3 566.4 979.5 566.4L979.5 566.4Q981.6 566.4 982.9 568.0Q984.2 569.5 984.2 572.3L984.2 572.3Q984.2 575.0 982.9 576.6Q981.6 578.1 979.5 578.1L979.5 578.1Q978.2 578.1 977.3 577.6Q976.4 577.0 975.8 576.0L975.8 576.0L975.8 576.0L975.8 576.8Q975.8 577.5 975.4 577.8ZM978.6 575.9L978.6 575.9Q979.9 575.9 980.7 574.9Q981.4 574.0 981.4 572.3Q981.4 570.6 980.7 569.6Q979.9 568.6 978.6 568.6L978.6 568.6Q977.4 568.6 976.6 569.6Q975.8 570.6 975.8 572.3L975.8 572.3Q975.8 573.9 976.6 574.9Q977.4 575.9 978.6 575.9ZM987.5 582.2L987.5 582.2Q986.6 582.2 986.1 581.9Q985.7 581.5 985.7 580.9L985.7 580.9Q985.7 580.5 985.9 580.3Q986.2 580.0 986.7 580.0L986.7 580.0Q986.8 580.0 987.0 580.0Q987.1 580.0 987.3 580.0L987.3 580.0Q988.3 580.0 988.9 578.7L988.9 578.7L989.1 578.2L985.3 568.3Q985.2 567.9 985.2 567.6L985.2 567.6Q985.2 567.0 985.6 566.7Q986.0 566.3 986.6 566.3L986.6 566.3Q987.1 566.3 987.4 566.6Q987.7 566.8 987.8 567.4L987.8 567.4L990.6 575.7L990.6 575.7L993.3 567.4Q993.5 566.8 993.8 566.6Q994.1 566.3 994.6 566.3L994.6 566.3Q995.2 566.3 995.5 566.7Q995.9 567.0 995.9 567.5L995.9 567.5Q995.9 567.9 995.8 568.3L995.8 568.3L992.0 578.4Q991.2 580.5 990.2 581.3Q989.2 582.2 987.5 582.2Z M1003.4 578.1L1003.4 578.1Q1002.8 578.1 1002.4 577.7Q1002.0 577.4 1002.0 576.7L1002.0 576.7L1002.0 563.9Q1002.0 563.2 1002.4 562.8Q1002.8 562.4 1003.4 562.4L1003.4 562.4L1008.1 562.4Q1010.4 562.4 1011.8 563.9Q1013.3 565.3 1013.3 567.6L1013.3 567.6Q1013.3 569.9 1011.8 571.4Q1010.3 572.8 1008.0 572.8L1008.0 572.8L1004.8 572.8L1004.8 576.7Q1004.8 577.4 1004.5 577.8Q1004.1 578.1 1003.4 578.1ZM1004.8 564.7L1004.8 570.6L1007.3 570.6Q1008.8 570.6 1009.7 569.8Q1010.5 569.0 1010.5 567.6L1010.5 567.6Q1010.5 566.2 1009.7 565.5Q1008.8 564.7 1007.3 564.7L1007.3 564.7L1004.8 564.7ZM1018.4 578.1L1018.4 578.1Q1016.7 578.1 1015.7 577.2Q1014.6 576.2 1014.6 574.7L1014.6 574.7Q1014.6 573.2 1015.7 572.3Q1016.8 571.4 1018.9 571.3L1018.9 571.3L1021.9 571.1L1021.9 570.3Q1021.9 569.4 1021.4 568.9Q1020.8 568.4 1019.8 568.4L1019.8 568.4Q1019.0 568.4 1018.5 568.7Q1017.9 569.0 1017.4 569.8L1017.4 569.8Q1017.0 570.3 1016.3 570.3L1016.3 570.3Q1015.8 570.3 1015.5 570.0Q1015.2 569.7 1015.2 569.2L1015.2 569.2Q1015.2 568.9 1015.4 568.5L1015.4 568.5Q1015.8 567.5 1017.0 566.9Q1018.3 566.3 1019.9 566.3L1019.9 566.3Q1022.0 566.3 1023.3 567.4Q1024.6 568.4 1024.6 570.1L1024.6 570.1L1024.6 576.8Q1024.6 577.5 1024.2 577.8Q1023.9 578.2 1023.3 578.2L1023.3 578.2Q1022.7 578.2 1022.4 577.8Q1022.0 577.5 1022.0 576.9L1022.0 576.9L1022.0 576.1L1021.9 576.1Q1021.5 577.0 1020.5 577.6Q1019.5 578.1 1018.4 578.1ZM1019.2 576.1L1019.2 576.1Q1020.3 576.1 1021.1 575.4Q1021.9 574.7 1021.9 573.7L1021.9 573.7L1021.9 572.9L1019.3 573.0Q1018.3 573.1 1017.8 573.5Q1017.3 573.9 1017.3 574.6L1017.3 574.6Q1017.3 575.3 1017.8 575.7Q1018.3 576.1 1019.2 576.1ZM1027.6 578.2L1027.6 578.2Q1027.1 578.2 1026.7 577.9Q1026.4 577.5 1026.4 577.1L1026.4 577.1Q1026.4 576.6 1026.7 576.2L1026.7 576.2L1029.6 572.3L1026.7 568.3Q1026.4 567.9 1026.4 567.5L1026.4 567.5Q1026.4 567.0 1026.8 566.7Q1027.2 566.3 1027.7 566.3L1027.7 566.3Q1028.1 566.3 1028.4 566.5Q1028.6 566.6 1028.9 567.1L1028.9 567.1L1031.2 570.6L1031.3 570.6L1033.6 567.1Q1033.9 566.7 1034.1 566.5Q1034.4 566.3 1034.7 566.3L1034.7 566.3Q1035.3 566.3 1035.6 566.7Q1036.0 567.0 1036.0 567.5L1036.0 567.5Q1036.0 567.9 1035.7 568.4L1035.7 568.4L1032.8 572.2L1035.7 576.2Q1036.0 576.6 1036.0 577.0L1036.0 577.0Q1036.0 577.5 1035.6 577.8Q1035.2 578.2 1034.7 578.2L1034.7 578.2Q1034.0 578.2 1033.6 577.5L1033.6 577.5L1031.2 573.9L1031.1 573.9L1028.7 577.5Q1028.4 577.9 1028.2 578.0Q1027.9 578.2 1027.6 578.2ZM1038.6 575.1L1038.6 575.1L1038.6 568.6L1037.9 568.6Q1037.4 568.6 1037.1 568.3Q1036.8 568.1 1036.8 567.6L1036.8 567.6Q1036.8 567.1 1037.1 566.8Q1037.4 566.6 1037.9 566.6L1037.9 566.6L1038.6 566.6L1038.6 565.0Q1038.6 564.4 1039.0 564.0Q1039.3 563.6 1039.9 563.6L1039.9 563.6Q1040.6 563.6 1040.9 564.0Q1041.3 564.4 1041.3 565.0L1041.3 565.0L1041.3 566.6L1042.5 566.6Q1043.0 566.6 1043.3 566.8Q1043.6 567.1 1043.6 567.6L1043.6 567.6Q1043.6 568.1 1043.3 568.3Q1043.0 568.6 1042.5 568.6L1042.5 568.6L1041.3 568.6L1041.3 574.6Q1041.3 575.2 1041.5 575.5Q1041.8 575.8 1042.4 575.9L1042.4 575.9L1042.5 575.9Q1043.6 576.0 1043.6 576.9L1043.6 576.9Q1043.6 577.5 1043.1 577.8Q1042.6 578.1 1041.7 578.1L1041.7 578.1L1041.6 578.1Q1038.6 578.1 1038.6 575.1ZM1054.3 576.6Q1052.8 578.2 1050.3 578.2Q1047.8 578.2 1046.3 576.6Q1044.8 575.0 1044.8 572.3L1044.8 572.3Q1044.8 569.5 1046.3 567.9Q1047.8 566.3 1050.3 566.3L1050.3 566.3Q1052.8 566.3 1054.3 567.9Q1055.8 569.5 1055.8 572.3L1055.8 572.3Q1055.8 575.0 1054.3 576.6ZM1048.2 575.1Q1049.0 576.1 1050.3 576.1Q1051.6 576.1 1052.3 575.1Q1053.1 574.1 1053.1 572.3L1053.1 572.3Q1053.1 570.5 1052.3 569.5Q1051.6 568.5 1050.3 568.5L1050.3 568.5Q1049 568.5 1048.2 569.5Q1047.5 570.5 1047.5 572.3L1047.5 572.3Q1047.5 574.1 1048.2 575.1ZM1059.8 577.8Q1059.4 578.2 1058.8 578.2Q1058.2 578.2 1057.9 577.8Q1057.5 577.4 1057.5 576.8L1057.5 576.8L1057.5 567.7Q1057.5 567.1 1057.9 566.7Q1058.2 566.3 1058.8 566.3Q1059.4 566.3 1059.7 566.7Q1060.1 567.1 1060.1 567.7L1060.1 567.7L1060.1 568.5L1060.2 568.5Q1061.1 566.3 1063.7 566.3L1063.7 566.3Q1065.6 566.3 1066.6 567.5Q1067.6 568.6 1067.6 570.6L1067.6 570.6L1067.6 576.8Q1067.6 577.4 1067.3 577.8Q1066.9 578.2 1066.3 578.2Q1065.7 578.2 1065.3 577.8Q1065.0 577.4 1065.0 576.8L1065.0 576.8L1065.0 571.1Q1065.0 569.9 1064.4 569.3Q1063.8 568.6 1062.7 568.6L1062.7 568.6Q1061.5 568.6 1060.9 569.4Q1060.2 570.1 1060.2 571.4L1060.2 571.4L1060.2 576.8Q1060.2 577.4 1059.8 577.8ZM1071.7 575.2L1071.7 575.2Q1072.2 575.2 1072.5 575.5Q1072.9 575.8 1072.9 576.3L1072.9 576.3Q1072.9 576.6 1072.8 576.9L1072.8 576.9L1071.9 580.6Q1071.8 581.1 1071.5 581.3Q1071.2 581.5 1070.8 581.5Q1070.3 581.5 1070.0 581.2Q1069.7 581.0 1069.8 580.5L1069.8 580.5Q1069.8 580.4 1069.8 580.3L1069.8 580.3L1070.4 576.3Q1070.6 575.2 1071.7 575.2Z M1087.1 578.2L1087.1 578.2Q1083.7 578.2 1081.8 576.1Q1079.9 573.9 1079.9 570.2L1079.9 570.2Q1079.9 566.5 1081.8 564.3Q1083.7 562.2 1087.0 562.2L1087.0 562.2Q1089.2 562.2 1090.8 563.1Q1092.4 564.1 1093.2 565.8L1093.2 565.8Q1093.5 566.3 1093.5 566.8L1093.5 566.8Q1093.5 567.4 1093.1 567.7Q1092.8 568.1 1092.2 568.1L1092.2 568.1Q1091.3 568.1 1090.9 567.1L1090.9 567.1Q1090.3 565.8 1089.3 565.2Q1088.3 564.5 1087.1 564.5L1087.1 564.5Q1085.1 564.5 1083.9 566.1Q1082.7 567.6 1082.7 570.2L1082.7 570.2Q1082.7 572.8 1083.9 574.3Q1085.1 575.9 1087.1 575.9L1087.1 575.9Q1089.9 575.9 1090.9 573.4L1090.9 573.4Q1091.1 573.0 1091.4 572.8Q1091.7 572.6 1092.2 572.6L1092.2 572.6Q1092.7 572.6 1093.1 572.9Q1093.4 573.2 1093.4 573.8L1093.4 573.8Q1093.4 574.3 1093.2 574.8L1093.2 574.8Q1092.4 576.4 1090.8 577.3Q1089.3 578.2 1087.1 578.2ZM1097.4 578.1L1097.4 578.1Q1096.8 578.1 1096.3 577.6Q1095.9 577.2 1095.9 576.5L1095.9 576.5Q1095.9 575.9 1096.3 575.4Q1096.8 575.0 1097.4 575.0L1097.4 575.0Q1098.1 575.0 1098.5 575.4Q1099.0 575.9 1099.0 576.5L1099.0 576.5Q1099.0 577.2 1098.5 577.6Q1098.1 578.1 1097.4 578.1Z M1111.0 578.2L1111.0 578.2Q1108.3 578.2 1106.9 576.6Q1105.4 575.1 1105.4 572.3L1105.4 572.3Q1105.4 569.6 1106.9 567.9Q1108.3 566.3 1110.8 566.3L1110.8 566.3Q1113.1 566.3 1114.6 567.8Q1116.0 569.3 1116.0 571.6L1116.0 571.6Q1116.0 572.2 1115.7 572.6Q1115.4 572.9 1114.8 572.9L1114.8 572.9L1108.1 572.9L1108.1 573.0Q1108.1 574.4 1108.9 575.3Q1109.6 576.1 1110.9 576.1L1110.9 576.1Q1111.8 576.1 1112.5 575.8Q1113.1 575.4 1113.8 574.6L1113.8 574.6Q1114.2 574.2 1114.7 574.2L1114.7 574.2Q1115.1 574.2 1115.4 574.4Q1115.8 574.7 1115.8 575.2L1115.8 575.2Q1115.8 575.5 1115.6 575.9L1115.6 575.9Q1115 577.0 1113.8 577.6Q1112.6 578.2 1111.0 578.2ZM1108.1 571.1L1108.1 571.1L1113.4 571.1Q1113.4 569.9 1112.7 569.1Q1111.9 568.4 1110.8 568.4Q1109.7 568.4 1108.9 569.2Q1108.2 569.9 1108.1 571.1ZM1118.5 575.1L1118.5 575.1L1118.5 568.6L1117.8 568.6Q1117.3 568.6 1117.0 568.3Q1116.7 568.1 1116.7 567.6L1116.7 567.6Q1116.7 567.1 1117.0 566.8Q1117.3 566.6 1117.8 566.6L1117.8 566.6L1118.5 566.6L1118.5 565.0Q1118.5 564.4 1118.9 564.0Q1119.2 563.6 1119.8 563.6L1119.8 563.6Q1120.5 563.6 1120.8 564.0Q1121.2 564.4 1121.2 565.0L1121.2 565.0L1121.2 566.6L1122.4 566.6Q1122.9 566.6 1123.2 566.8Q1123.5 567.1 1123.5 567.6L1123.5 567.6Q1123.5 568.1 1123.2 568.3Q1122.9 568.6 1122.4 568.6L1122.4 568.6L1121.2 568.6L1121.2 574.6Q1121.2 575.2 1121.4 575.5Q1121.7 575.8 1122.3 575.9L1122.3 575.9L1122.4 575.9Q1123.5 576.0 1123.5 576.9L1123.5 576.9Q1123.5 577.5 1123.0 577.8Q1122.5 578.1 1121.6 578.1L1121.6 578.1L1121.5 578.1Q1118.5 578.1 1118.5 575.1Z M1132.9 578.1L1132.9 578.1Q1131.2 578.1 1130.2 577.2Q1129.1 576.2 1129.1 574.7L1129.1 574.7Q1129.1 573.2 1130.2 572.3Q1131.3 571.4 1133.4 571.3L1133.4 571.3L1136.4 571.1L1136.4 570.3Q1136.4 569.4 1135.9 568.9Q1135.3 568.4 1134.3 568.4L1134.3 568.4Q1133.5 568.4 1133.0 568.7Q1132.4 569.0 1131.9 569.8L1131.9 569.8Q1131.5 570.3 1130.8 570.3L1130.8 570.3Q1130.3 570.3 1130.0 570.0Q1129.7 569.7 1129.7 569.2L1129.7 569.2Q1129.7 568.9 1129.9 568.5L1129.9 568.5Q1130.3 567.5 1131.5 566.9Q1132.8 566.3 1134.4 566.3L1134.4 566.3Q1136.5 566.3 1137.8 567.4Q1139.1 568.4 1139.1 570.1L1139.1 570.1L1139.1 576.8Q1139.1 577.5 1138.7 577.8Q1138.4 578.2 1137.8 578.2L1137.8 578.2Q1137.2 578.2 1136.9 577.8Q1136.5 577.5 1136.5 576.9L1136.5 576.9L1136.5 576.1L1136.4 576.1Q1136.0 577.0 1135.0 577.6Q1134.0 578.1 1132.9 578.1ZM1133.7 576.1L1133.7 576.1Q1134.8 576.1 1135.6 575.4Q1136.4 574.7 1136.4 573.7L1136.4 573.7L1136.4 572.9L1133.8 573.0Q1132.8 573.1 1132.3 573.5Q1131.8 573.9 1131.8 574.6L1131.8 574.6Q1131.8 575.3 1132.3 575.7Q1132.8 576.1 1133.7 576.1ZM1143.6 577.8Q1143.2 578.2 1142.6 578.2Q1142.0 578.2 1141.7 577.8Q1141.3 577.4 1141.3 576.8L1141.3 576.8L1141.3 563.6Q1141.3 563.0 1141.7 562.6Q1142.0 562.2 1142.6 562.2Q1143.2 562.2 1143.6 562.6Q1144.0 563.0 1144.0 563.6L1144.0 563.6L1144.0 576.8Q1144.0 577.4 1143.6 577.8ZM1148.1 578.1L1148.1 578.1Q1147.5 578.1 1147.0 577.6Q1146.6 577.2 1146.6 576.5L1146.6 576.5Q1146.6 575.9 1147.0 575.4Q1147.5 575.0 1148.1 575.0L1148.1 575.0Q1148.8 575.0 1149.2 575.4Q1149.7 575.9 1149.7 576.5L1149.7 576.5Q1149.7 577.2 1149.2 577.6Q1148.8 578.1 1148.1 578.1Z " clip-path="url(#satori_cp-id-0)" mask="url(#satori_om-id-0)"/></svg>