<svg width="1200" height="630" viewBox="0 0 1200 630" xmlns="http://www.w3.org/2000/svg"><mask id="satori_om-id"><rect x="0" y="0" width="1200" height="630" fill="#fff"/></mask><defs><pattern id="satori_pattern_id-0_0" x="0" y="0" width="1" height="1" patternUnits="objectBoundingBox"><linearGradient id="satori_biid-0_0" x1="-0.09774620284174435" y1="0.18618324350808482" x2="1.0977462028417444" y2="0.8138167564919152" spreadMethod="pad"><stop offset="0%" stop-color="#f8fafc"/><stop offset="50%" stop-color="#eef2ff"/><stop offset="100%" stop-color="#ffffff"/></linearGradient><rect x="0" y="0" width="1200" height="630" fill="url(#satori_biid-0_0)"/></pattern></defs><clipPath id="satori_cp-id-0"><rect x="0" y="0" width="1200" height="630"/></clipPath><mask id="satori_om-id-0"><rect x="0" y="0" width="1200" height="630" fill="#fff"/></mask><rect x="0" y="0" width="1200" height="630" fill="url(#satori_pattern_id-0_0)"/><mask id="satori_om-id-0-0"><rect x="0" y="0" width="1200" height="509" fill="#fff" mask="url(#satori_om-id-0)"/></mask><mask id="satori_om-id-0-0-0"><rect x="72" y="72" width="1056" height="365" fill="#fff" mask="url(#satori_om-id-0)"/></mask><mask id="satori_om-id-0-0-0-0"><rect x="72" y="113" width="1056" height="38" fill="#fff" mask="url(#satori_om-id-0)"/></mask><path fill="#64748b" d="M82.7 143.2Q82.2 143.7 81.4 143.7Q80.6 143.7 80.1 143.2Q79.7 142.8 79.7 141.9L79.7 141.9L79.7 124.0L74.1 124.0Q73.4 124.0 73.0 123.5Q72.5 123.1 72.5 122.4Q72.5 121.8 73.0 121.3Q73.4 120.9 74.1 120.9L74.1 120.9L88.7 120.9Q89.4 120.9 89.9 121.3Q90.3 121.8 90.3 122.4Q90.3 123.1 89.9 123.5Q89.4 124.0 88.7 124.0L88.7 124.0L83.2 124.0L83.2 141.9Q83.2 142.8 82.7 143.2ZM95.5 143.3Q95.1 143.8 94.3 143.8Q93.6 143.8 93.1 143.3Q92.6 142.8 92.6 142.0L92.6 142.0L92.6 122.4Q92.6 121.6 93.1 121.1Q93.5 120.6 94.3 120.6L94.3 120.6Q95.1 120.6 95.5 121.1Q96.0 121.6 96.0 122.4L96.0 122.4L96.0 129.8L96.0 129.8Q96.7 128.3 98.1 127.5Q99.4 126.8 101.3 126.8L101.3 126.8Q103.9 126.8 105.5 128.4Q107.0 130.1 107.0 132.9L107.0 132.9L107.0 142.0Q107.0 142.8 106.5 143.3Q106.1 143.8 105.3 143.8L105.3 143.8Q104.6 143.8 104.1 143.3Q103.6 142.8 103.6 142.0L103.6 142.0L103.6 133.5Q103.6 131.7 102.7 130.7Q101.8 129.7 100.0 129.7L100.0 129.7Q98.2 129.7 97.1 130.8Q96 132.0 96 134.0L96 134.0L96 142.0Q96 142.8 95.5 143.3ZM116.0 143.8L116.0 143.8Q113.3 143.8 111.7 142.1Q110.2 140.5 110.2 137.7L110.2 137.7L110.2 128.5Q110.2 127.7 110.6 127.2Q111.1 126.7 111.9 126.7L111.9 126.7Q112.6 126.7 113.1 127.2Q113.6 127.7 113.6 128.5L113.6 128.5L113.6 137.0Q113.6 138.9 114.5 139.9Q115.3 140.9 117.1 140.9L117.1 140.9Q118.9 140.9 119.9 139.7Q121.0 138.5 121.0 136.6L121.0 136.6L121.0 128.5Q121.0 127.7 121.5 127.2Q121.9 126.7 122.7 126.7L122.7 126.7Q123.4 126.7 123.9 127.2Q124.4 127.7 124.4 128.5L124.4 128.5L124.4 142.0Q124.4 142.8 123.9 143.3Q123.5 143.8 122.8 143.8Q122.0 143.8 121.6 143.3Q121.1 142.8 121.1 142.1L121.1 142.1L121.1 140.7L121.0 140.7Q119.6 143.8 116.0 143.8ZM129.4 143.8L129.4 143.8Q128.6 143.8 128.1 143.3Q127.7 142.8 127.7 142.0L127.7 142.0L127.7 128.4Q127.7 127.7 128.1 127.2Q128.6 126.7 129.3 126.7L129.3 126.7Q130 126.7 130.4 127.2Q130.9 127.7 130.9 128.4L130.9 128.4L130.9 129.8L131.0 129.8Q131.3 128.5 132.3 127.6Q133.3 126.8 134.6 126.8L134.6 126.8Q135.5 126.8 135.9 127.2L135.9 127.2Q136.4 127.5 136.4 128.4L136.4 128.4Q136.4 129.1 135.9 129.5L135.9 129.5Q135.4 130.0 134.3 130.0L134.3 130.0Q132.7 130 131.9 131.0Q131.1 132.0 131.1 133.6L131.1 133.6L131.1 142.0Q131.1 142.8 130.6 143.3Q130.1 143.8 129.4 143.8ZM144.3 143.8L144.3 143.8Q141.9 143.8 140.2 142.9Q138.5 142.0 137.9 140.4L137.9 140.4Q137.7 140.1 137.7 139.7L137.7 139.7Q137.7 139.1 138.1 138.8Q138.5 138.4 139.2 138.4L139.2 138.4Q140.0 138.4 140.6 139.3L140.6 139.3Q141.3 140.3 142.1 140.8Q143.0 141.2 144.4 141.2L144.4 141.2Q145.9 141.2 146.8 140.6Q147.6 140.0 147.6 139.0L147.6 139.0Q147.6 138.2 147.1 137.7Q146.5 137.3 145.2 136.9L145.2 136.9L142.6 136.3Q137.9 135.2 137.9 131.7L137.9 131.7Q137.9 129.4 139.7 128.1Q141.5 126.7 144.4 126.7L144.4 126.7Q146.6 126.7 148.2 127.7Q149.9 128.7 150.3 130.2L150.3 130.2Q150.3 130.6 150.3 130.7L150.3 130.7Q150.3 131.3 150.0 131.6Q149.6 131.9 149 131.9L149 131.9Q148.1 131.9 147.6 131.2L147.6 131.2Q147.1 130.3 146.3 129.8Q145.5 129.3 144.3 129.3L144.3 129.3Q142.9 129.3 142.0 129.9Q141.2 130.5 141.2 131.5L141.2 131.5Q141.2 133.0 143.7 133.6L143.7 133.6L146.3 134.2Q148.9 134.8 150.0 135.9Q151.0 136.9 151.0 138.7L151.0 138.7Q151.0 141.0 149.2 142.4Q147.3 143.8 144.3 143.8ZM159.8 143.8L159.8 143.8Q156.7 143.8 154.8 141.4Q152.9 139.1 152.9 135.3Q152.9 131.4 154.8 129.1Q156.7 126.8 159.8 126.8L159.8 126.8Q161.5 126.8 162.9 127.6Q164.3 128.4 165.0 129.8L165.0 129.8L165.0 129.8L165.0 122.4Q165.0 121.6 165.5 121.1Q166.0 120.6 166.7 120.6L166.7 120.6Q167.5 120.6 167.9 121.1Q168.4 121.6 168.4 122.4L168.4 122.4L168.4 142.1Q168.4 142.9 167.9 143.3Q167.5 143.8 166.7 143.8L166.7 143.8Q166 143.8 165.5 143.3Q165.0 142.9 165.0 142.1L165.0 142.1L165.0 140.5L165.0 140.5Q164.3 142.0 163 142.9Q161.7 143.8 159.8 143.8ZM160.7 140.9L160.7 140.9Q162.7 140.9 163.9 139.4Q165.0 137.8 165.0 135.3L165.0 135.3Q165.0 132.7 163.9 131.2Q162.7 129.6 160.7 129.6L160.7 129.6Q158.7 129.6 157.5 131.1Q156.4 132.7 156.4 135.3L156.4 135.3Q156.4 137.9 157.5 139.4Q158.7 140.9 160.7 140.9ZM176.7 143.8L176.7 143.8Q174.3 143.8 172.7 142.4Q171.2 141 171.2 138.8L171.2 138.8Q171.2 136.6 172.8 135.4Q174.4 134.1 177.3 133.9L177.3 133.9L181.8 133.7L181.8 132.4Q181.8 131.0 180.9 130.3Q180.1 129.5 178.5 129.5L178.5 129.5Q177.3 129.5 176.4 130.0Q175.6 130.5 174.9 131.6L174.9 131.6Q174.4 132.3 173.5 132.3L173.5 132.3Q172.9 132.3 172.5 131.9Q172.0 131.5 172.0 130.9L172.0 130.9Q172.0 130.3 172.3 129.8L172.3 129.8Q173.0 128.4 174.7 127.6Q176.4 126.7 178.6 126.7L178.6 126.7Q181.6 126.7 183.4 128.2Q185.2 129.7 185.2 132.1L185.2 132.1L185.2 142.1Q185.2 142.8 184.7 143.3Q184.3 143.8 183.5 143.8L183.5 143.8Q182.8 143.8 182.4 143.3Q182.0 142.9 181.9 142.2L181.9 142.2L181.9 140.8L181.9 140.8Q181.2 142.1 179.7 142.9Q178.3 143.8 176.7 143.8ZM177.6 141.1L177.6 141.1Q179.4 141.1 180.6 140.0Q181.8 138.9 181.8 137.3L181.8 137.3L181.8 136.0L177.8 136.3Q176.2 136.4 175.4 137.0Q174.6 137.6 174.6 138.7L174.6 138.7Q174.6 139.8 175.4 140.4Q176.3 141.1 177.6 141.1ZM190.5 149.6L190.5 149.6Q189.3 149.6 188.7 149.2Q188.0 148.8 188.0 148.0L188.0 148.0Q188.0 147.4 188.4 147.1Q188.8 146.8 189.4 146.8L189.4 146.8Q189.5 146.8 189.8 146.8Q190.0 146.8 190.2 146.8L190.2 146.8Q191.9 146.8 192.7 144.6L192.7 144.6L193.0 143.6L187.5 129.3Q187.4 128.7 187.4 128.3L187.4 128.3Q187.4 127.6 187.8 127.2Q188.3 126.7 189.1 126.7L189.1 126.7Q189.7 126.7 190.1 127.0Q190.5 127.3 190.7 128.0L190.7 128.0L194.9 140.4L194.9 140.4L199.1 128.0Q199.3 127.3 199.7 127.0Q200.1 126.7 200.8 126.7L200.8 126.7Q201.5 126.7 201.9 127.2Q202.4 127.6 202.4 128.3L202.4 128.3Q202.4 128.7 202.2 129.2L202.2 129.2L196.5 144.3Q195.4 147.3 194.1 148.4Q192.8 149.6 190.5 149.6ZM207.2 139.7L207.2 139.7Q207.9 139.7 208.3 140.0Q208.7 140.4 208.7 141.1L208.7 141.1Q208.7 141.5 208.6 142.0L208.6 142.0L207.3 147.3Q207.0 148.5 205.8 148.5L205.8 148.5Q205.2 148.5 204.9 148.1Q204.5 147.8 204.5 147.3L204.5 147.3Q204.5 147.1 204.5 146.9L204.5 146.9L205.5 141.1Q205.8 139.7 207.2 139.7Z M223.1 143.8L223.1 143.8Q222.4 143.8 222.0 143.4Q221.5 143.0 221.5 142.3L221.5 142.3Q221.5 141.8 221.8 141.2L221.8 141.2L230.9 124.0L230.9 123.9L220.4 123.9Q219.7 123.9 219.3 123.5Q218.8 123.1 218.8 122.4L218.8 122.4Q218.8 121.7 219.3 121.3Q219.7 120.9 220.4 120.9L220.4 120.9L232.3 120.9Q233.3 120.9 233.9 121.5Q234.5 122 234.5 122.9L234.5 122.9Q234.5 123.7 233.8 125.1L233.8 125.1L224.7 142.8Q224.4 143.3 224.1 143.5Q223.7 143.8 223.1 143.8Z M247.2 143.2Q246.7 143.7 245.9 143.7Q245.1 143.7 244.7 143.2Q244.2 142.8 244.2 141.9L244.2 141.9L244.2 122.6Q244.2 121.7 244.7 121.2Q245.2 120.7 246.1 120.7L246.1 120.7Q246.7 120.7 247.1 120.9Q247.5 121.2 248.0 121.8L248.0 121.8L259.1 137.5L259.2 137.5L259.2 122.5Q259.2 121.6 259.7 121.1Q260.1 120.7 260.9 120.7L260.9 120.7Q261.7 120.7 262.2 121.1Q262.6 121.6 262.6 122.5L262.6 122.5L262.6 141.9Q262.6 142.8 262.1 143.2Q261.6 143.7 260.8 143.7L260.8 143.7Q260.1 143.7 259.7 143.5Q259.3 143.3 258.9 142.6L258.9 142.6L247.8 126.9L247.6 126.9L247.6 141.9Q247.6 142.8 247.2 143.2ZM279.1 141.5Q277.0 143.8 273.4 143.8Q269.9 143.8 267.8 141.5Q265.6 139.2 265.6 135.3L265.6 135.3Q265.6 131.3 267.8 129.0Q269.9 126.7 273.4 126.7Q277.0 126.7 279.1 129.0Q281.2 131.3 281.2 135.3L281.2 135.3Q281.2 139.2 279.1 141.5ZM273.4 141L273.4 141Q275.4 141 276.6 139.5Q277.8 138.0 277.8 135.3L277.8 135.3Q277.8 132.5 276.6 131.0Q275.4 129.5 273.4 129.5Q271.4 129.5 270.2 131.0Q269.1 132.5 269.1 135.3L269.1 135.3Q269.1 138.0 270.2 139.5Q271.4 141 273.4 141ZM290.2 143.8L290.2 143.8Q289.3 143.8 288.7 143.4Q288.2 143.0 287.8 142.0L287.8 142.0L283.0 129.2Q282.8 128.7 282.8 128.3L282.8 128.3Q282.8 127.6 283.2 127.2Q283.7 126.7 284.5 126.7L284.5 126.7Q285.7 126.7 286.1 128.1L286.1 128.1L290.1 140.2L290.2 140.2L294.3 128.0Q294.7 126.7 295.9 126.7L295.9 126.7Q296.6 126.7 297.0 127.2Q297.5 127.6 297.5 128.3L297.5 128.3Q297.5 128.7 297.3 129.2L297.3 129.2L292.5 142.0Q292.1 142.9 291.6 143.4Q291.0 143.8 290.2 143.8ZM306.9 143.8L306.9 143.8Q303.2 143.8 301.1 141.5Q299.1 139.3 299.1 135.3L299.1 135.3Q299.1 131.4 301.1 129.1Q303.2 126.7 306.7 126.7L306.7 126.7Q310.0 126.7 312.0 128.9Q314.1 131 314.1 134.4L314.1 134.4Q314.1 135.2 313.6 135.6Q313.2 136.1 312.4 136.1L312.4 136.1L302.5 136.1L302.5 136.2Q302.5 138.4 303.6 139.7Q304.8 141.0 306.8 141.0L306.8 141.0Q308.2 141.0 309.2 140.5Q310.2 140.0 311.1 138.7L311.1 138.7Q311.6 138.1 312.3 138.1L312.3 138.1Q312.9 138.1 313.3 138.5Q313.7 138.9 313.7 139.5L313.7 139.5Q313.7 139.8 313.5 140.4L313.5 140.4Q312.6 142 310.9 142.9Q309.2 143.8 306.9 143.8ZM302.5 133.7L302.5 133.7L310.7 133.7Q310.6 131.8 309.5 130.6Q308.4 129.5 306.7 129.5L306.7 129.5Q304.9 129.5 303.8 130.6Q302.6 131.8 302.5 133.7ZM319.6 143.3Q319.1 143.8 318.4 143.8Q317.6 143.8 317.1 143.3Q316.7 142.8 316.7 142.0L316.7 142.0L316.7 128.5Q316.7 127.7 317.1 127.2Q317.6 126.7 318.3 126.7Q319.0 126.7 319.5 127.2Q319.9 127.7 319.9 128.5L319.9 128.5L319.9 129.8L320.0 129.8Q320.5 128.4 321.8 127.6Q323.0 126.8 324.7 126.8L324.7 126.8Q326.4 126.8 327.6 127.6Q328.8 128.4 329.3 130.0L329.3 130.0L329.3 130.0Q330.0 128.5 331.3 127.6Q332.7 126.8 334.5 126.8L334.5 126.8Q336.9 126.8 338.4 128.2Q339.8 129.7 339.8 132.2L339.8 132.2L339.8 142.0Q339.8 142.8 339.4 143.3Q338.9 143.8 338.1 143.8Q337.4 143.8 336.9 143.3Q336.4 142.8 336.4 142.0L336.4 142.0L336.4 133.0Q336.4 131.4 335.6 130.5Q334.8 129.6 333.3 129.6Q331.8 129.6 330.9 130.6Q329.9 131.6 329.9 133.2L329.9 133.2L329.9 142.0Q329.9 142.8 329.5 143.3Q329.0 143.8 328.3 143.8Q327.5 143.8 327.0 143.3Q326.6 142.8 326.6 142.0L326.6 142.0L326.6 132.7Q326.6 131.3 325.8 130.5Q324.9 129.6 323.5 129.6L323.5 129.6Q322.0 129.6 321.0 130.7Q320.1 131.7 320.1 133.3L320.1 133.3L320.1 142.0Q320.1 142.8 319.6 143.3ZM344.8 143.8L344.8 143.8Q344.1 143.8 343.6 143.3Q343.2 142.9 343.2 142.1L343.2 142.1L343.2 122.4Q343.2 121.6 343.7 121.1Q344.1 120.6 344.9 120.6Q345.6 120.6 346.1 121.1Q346.6 121.6 346.6 122.4L346.6 122.4L346.6 129.8L346.7 129.8Q347.4 128.4 348.8 127.6Q350.1 126.8 351.9 126.8L351.9 126.8Q355.0 126.8 356.8 129.1Q358.7 131.4 358.7 135.3L358.7 135.3Q358.7 139.2 356.8 141.5Q355.0 143.8 351.8 143.8L351.8 143.8Q350.1 143.8 348.7 142.9Q347.3 142.1 346.5 140.7L346.5 140.7L346.5 140.7L346.5 142.1Q346.5 142.9 346.0 143.3Q345.6 143.8 344.8 143.8ZM350.9 140.9L350.9 140.9Q352.9 140.9 354.1 139.4Q355.2 137.9 355.2 135.3L355.2 135.3Q355.2 132.7 354.1 131.1Q352.9 129.6 350.9 129.6L350.9 129.6Q349 129.6 347.8 131.2Q346.6 132.7 346.6 135.3L346.6 135.3Q346.6 137.8 347.8 139.3Q349 140.9 350.9 140.9ZM368.4 143.8L368.4 143.8Q364.7 143.8 362.6 141.5Q360.6 139.3 360.6 135.3L360.6 135.3Q360.6 131.4 362.6 129.1Q364.7 126.7 368.2 126.7L368.2 126.7Q371.5 126.7 373.5 128.9Q375.6 131 375.6 134.4L375.6 134.4Q375.6 135.2 375.1 135.6Q374.7 136.1 373.9 136.1L373.9 136.1L364.0 136.1L364.0 136.2Q364.0 138.4 365.2 139.7Q366.3 141.0 368.4 141.0L368.4 141.0Q369.7 141.0 370.7 140.5Q371.7 140.0 372.6 138.7L372.6 138.7Q373.1 138.1 373.8 138.1L373.8 138.1Q374.4 138.1 374.8 138.5Q375.2 138.9 375.2 139.5L375.2 139.5Q375.2 139.8 375.0 140.4L375.0 140.4Q374.2 142 372.4 142.9Q370.7 143.8 368.4 143.8ZM364 133.7L364 133.7L372.2 133.7Q372.2 131.8 371.1 130.6Q370.0 129.5 368.2 129.5L368.2 129.5Q366.4 129.5 365.3 130.6Q364.1 131.8 364 133.7ZM379.9 143.8L379.9 143.8Q379.1 143.8 378.7 143.3Q378.2 142.8 378.2 142.0L378.2 142.0L378.2 128.4Q378.2 127.7 378.6 127.2Q379.1 126.7 379.8 126.7L379.8 126.7Q380.5 126.7 381.0 127.2Q381.4 127.7 381.4 128.4L381.4 128.4L381.4 129.8L381.5 129.8Q381.8 128.5 382.8 127.6Q383.8 126.8 385.1 126.8L385.1 126.8Q386.0 126.8 386.4 127.2L386.4 127.2Q386.9 127.5 386.9 128.4L386.9 128.4Q386.9 129.1 386.4 129.5L386.4 129.5Q385.9 130.0 384.8 130.0L384.8 130.0Q383.2 130 382.4 131.0Q381.6 132.0 381.6 133.6L381.6 133.6L381.6 142.0Q381.6 142.8 381.1 143.3Q380.6 143.8 379.9 143.8Z M409.3 143.5L396.9 143.5Q396.1 143.5 395.6 143.1Q395.2 142.7 395.2 142L395.2 142Q395.2 141.5 395.4 141.1Q395.6 140.8 396.2 140.2L396.2 140.2L403.2 133.0Q405.4 130.8 406.1 129.6Q406.9 128.4 406.9 127.1L406.9 127.1Q406.9 125.5 405.8 124.4Q404.7 123.4 403.0 123.4L403.0 123.4Q399.6 123.4 398.4 126.7L398.4 126.7Q398.2 127.3 397.8 127.6Q397.5 127.9 396.8 127.9L396.8 127.9Q396.1 127.9 395.7 127.5Q395.3 127.0 395.3 126.4L395.3 126.4Q395.3 126 395.4 125.6L395.4 125.6Q395.6 124.7 396.2 123.8Q396.8 122.9 397.7 122.2Q398.6 121.4 400.0 121.0Q401.4 120.5 403.0 120.5L403.0 120.5Q406.2 120.5 408.3 122.3Q410.3 124.1 410.3 126.9L410.3 126.9Q410.3 128.8 409.3 130.5Q408.2 132.1 405.3 135.0L405.3 135.0L400.0 140.4L400.0 140.5L409.3 140.5Q410.0 140.5 410.4 140.9Q410.9 141.3 410.9 142L410.9 142Q410.9 142.7 410.4 143.1Q410.0 143.5 409.3 143.5L409.3 143.5ZM428.4 140.7Q426.1 143.9 422.0 143.9Q418 143.9 415.7 140.7Q413.4 137.6 413.4 132.2L413.4 132.2Q413.4 126.8 415.7 123.6Q418.0 120.5 422.0 120.5L422.0 120.5Q426.1 120.5 428.4 123.6Q430.7 126.8 430.7 132.2L430.7 132.2Q430.7 137.6 428.4 140.7ZM422.0 141.0L422.0 141.0Q424.5 141.0 425.8 138.6Q427.1 136.3 427.1 132.2L427.1 132.2Q427.1 128.1 425.8 125.8Q424.5 123.4 422.0 123.4Q419.6 123.4 418.3 125.8Q417.0 128.1 417.0 132.2L417.0 132.2Q417.0 136.3 418.3 138.6Q419.6 141.0 422.0 141.0ZM447.8 143.5L435.4 143.5Q434.6 143.5 434.1 143.1Q433.7 142.7 433.7 142L433.7 142Q433.7 141.5 433.9 141.1Q434.1 140.8 434.7 140.2L434.7 140.2L441.7 133.0Q443.9 130.8 444.6 129.6Q445.4 128.4 445.4 127.1L445.4 127.1Q445.4 125.5 444.3 124.4Q443.2 123.4 441.5 123.4L441.5 123.4Q438.1 123.4 436.9 126.7L436.9 126.7Q436.7 127.3 436.3 127.6Q436.0 127.9 435.3 127.9L435.3 127.9Q434.6 127.9 434.2 127.5Q433.8 127.0 433.8 126.4L433.8 126.4Q433.8 126 433.9 125.6L433.9 125.6Q434.1 124.7 434.7 123.8Q435.3 122.9 436.2 122.2Q437.1 121.4 438.5 121.0Q439.9 120.5 441.5 120.5L441.5 120.5Q444.7 120.5 446.8 122.3Q448.8 124.1 448.8 126.9L448.8 126.9Q448.8 128.8 447.8 130.5Q446.7 132.1 443.8 135.0L443.8 135.0L438.5 140.4L438.5 140.5L447.8 140.5Q448.5 140.5 448.9 140.9Q449.4 141.3 449.4 142L449.4 142Q449.4 142.7 448.9 143.1Q448.5 143.5 447.8 143.5L447.8 143.5ZM464.7 143.8L464.7 143.8Q464.0 143.8 463.5 143.3Q463.0 142.8 463.0 142.0L463.0 142.0L463.0 139.0L453.7 139.0Q452.8 139.0 452.2 138.4Q451.7 137.9 451.7 137L451.7 137Q451.7 135.9 452.5 134.5L452.5 134.5Q454.4 131.0 459.8 123.3L459.8 123.3Q460.8 121.8 461.6 121.2Q462.4 120.6 463.5 120.6L463.5 120.6Q464.9 120.6 465.6 121.3Q466.4 122 466.4 123.3L466.4 123.3L466.4 136.0L468.2 136.0Q468.8 136.0 469.3 136.5Q469.7 136.9 469.7 137.5Q469.7 138.2 469.3 138.6Q468.8 139.0 468.2 139.0L468.2 139.0L466.4 139.0L466.4 142.0Q466.4 142.8 465.9 143.3Q465.4 143.8 464.7 143.8ZM455.0 136.1L463.0 136.1L463.0 123.7L463.0 123.7Q457.2 132.0 455.0 136L455.0 136L455.0 136.1Z " clip-path="url(#satori_cp-id-0)" mask="url(#satori_om-id-0)"/><mask id="satori_om-id-0-0-0-1"><rect x="72" y="175" width="1056" height="221" fill="#fff" mask="url(#satori_om-id-0)"/></mask><path fill="#0f172a" d="M83.9 233.8Q82.7 235.1 80.5 235.1Q78.3 235.1 77 233.8Q75.8 232.6 75.8 230.2L75.8 230.2L75.8 193.8Q75.8 191.4 77 190.1Q78.3 188.8 80.5 188.8Q82.7 188.8 83.9 190.1Q85.2 191.4 85.2 193.8L85.2 193.8L85.2 207.8L105.5 207.8L105.5 193.8Q105.5 191.4 106.8 190.1Q108 188.8 110.2 188.8Q112.4 188.8 113.7 190.1Q114.9 191.4 114.9 193.8L114.9 193.8L114.9 230.2Q114.9 232.6 113.7 233.8Q112.4 235.1 110.2 235.1Q108 235.1 106.8 233.8Q105.5 232.6 105.5 230.2L105.5 230.2L105.5 215.6L85.2 215.6L85.2 230.2Q85.2 232.6 83.9 233.8ZM133.6 235.2L133.6 235.2Q128.1 235.2 124.8 231.8Q121.5 228.5 121.5 222.6L121.5 222.6L121.5 205.1Q121.5 202.9 122.8 201.6Q124 200.4 126.1 200.4Q128.1 200.4 129.4 201.6Q130.6 202.9 130.6 205.1L130.6 205.1L130.6 220.7Q130.6 224.1 132.2 225.8Q133.8 227.6 136.9 227.6Q139.9 227.6 141.7 225.6Q143.5 223.6 143.5 220.2L143.5 220.2L143.5 205.1Q143.5 202.9 144.7 201.6Q146.0 200.4 148.0 200.4Q150.1 200.4 151.3 201.6Q152.6 202.9 152.6 205.1L152.6 205.1L152.6 230.6Q152.6 232.8 151.4 234.0Q150.2 235.2 148.2 235.2Q146.2 235.2 145.0 234.0Q143.8 232.8 143.8 230.6L143.8 230.6L143.8 228.5L143.6 228.5Q141.0 235.2 133.6 235.2ZM163.1 235.2L163.1 235.2Q161 235.2 159.8 234.0Q158.5 232.7 158.5 230.5L158.5 230.5L158.5 205.0Q158.5 202.8 159.7 201.6Q160.9 200.4 162.9 200.4Q164.9 200.4 166.1 201.6Q167.3 202.8 167.3 205.0L167.3 205.0L167.3 207.1L167.5 207.1Q168.6 204.1 171.2 202.2Q173.7 200.4 177.1 200.4L177.1 200.4Q180.7 200.4 183.2 202.2Q185.6 204.0 186.4 207.3L186.4 207.3L186.6 207.3Q187.8 204.1 190.5 202.3Q193.3 200.4 197.0 200.4L197.0 200.4Q202.0 200.4 205.0 203.5Q208 206.6 208 211.7L208 211.7L208 230.5Q208 232.7 206.8 234.0Q205.5 235.2 203.4 235.2L203.4 235.2Q201.3 235.2 200.1 234.0Q198.9 232.7 198.9 230.5L198.9 230.5L198.9 214.0Q198.9 211.1 197.5 209.5Q196.1 208.0 193.4 208.0L193.4 208.0Q190.8 208.0 189.2 209.7Q187.7 211.4 187.7 214.2L187.7 214.2L187.7 230.5Q187.7 232.7 186.5 234.0Q185.3 235.2 183.3 235.2L183.3 235.2Q181.2 235.2 180.0 234.0Q178.9 232.7 178.9 230.5L178.9 230.5L178.9 213.7Q178.9 211.0 177.4 209.5Q176 208.0 173.5 208.0L173.5 208.0Q170.9 208.0 169.3 209.7Q167.7 211.5 167.7 214.3L167.7 214.3L167.7 230.5Q167.7 232.7 166.4 234.0Q165.2 235.2 163.1 235.2ZM223.7 235.1L223.7 235.1Q218.8 235.1 215.7 232.2Q212.5 229.4 212.5 224.9L212.5 224.9Q212.5 220.4 215.8 217.8Q219.2 215.2 225.5 214.8L225.5 214.8L234.0 214.3L234.0 212.1Q234.0 209.8 232.5 208.5Q230.9 207.1 228.3 207.1L228.3 207.1Q226.3 207.1 224.8 207.9Q223.4 208.7 221.8 210.7L221.8 210.7Q220.3 212.4 218.2 212.4L218.2 212.4Q216.6 212.4 215.5 211.4Q214.4 210.4 214.4 208.9L214.4 208.9Q214.4 207.8 214.9 206.8L214.9 206.8Q216.0 203.8 219.8 202.1Q223.5 200.3 228.8 200.3L228.8 200.3Q235.2 200.3 239.1 203.4Q242.9 206.5 242.9 211.5L242.9 211.5L242.9 230.6Q242.9 232.8 241.7 234.0Q240.5 235.2 238.5 235.2L238.5 235.2Q236.6 235.2 235.4 234.2Q234.3 233.1 234.1 231.1L234.1 231.1L234.1 229.4L233.9 229.4Q232.6 232.1 229.7 233.6Q226.9 235.1 223.7 235.1ZM226.7 228.5L226.7 228.5Q229.7 228.5 231.8 226.7Q234.0 225.0 234.0 222.3L234.0 222.3L234.0 219.8L226.9 220.3Q224.3 220.5 223.0 221.6Q221.6 222.6 221.6 224.4L221.6 224.4Q221.6 226.3 223.0 227.4Q224.4 228.5 226.7 228.5ZM256.7 234.0Q255.4 235.2 253.4 235.2Q251.3 235.2 250.1 234.0Q248.8 232.7 248.8 230.5L248.8 230.5L248.8 205.0Q248.8 202.8 250.0 201.6Q251.2 200.4 253.2 200.4Q255.3 200.4 256.5 201.6Q257.8 202.9 257.8 205.0L257.8 205.0L257.8 206.9L258.0 206.9Q260.7 200.4 268.3 200.4L268.3 200.4Q273.8 200.4 276.9 203.7Q279.9 207.1 279.9 213.0L279.9 213.0L279.9 230.5Q279.9 232.7 278.7 234.0Q277.4 235.2 275.3 235.2Q273.3 235.2 272.0 234.0Q270.8 232.7 270.8 230.5L270.8 230.5L270.8 214.9Q270.8 211.6 269.2 209.8Q267.7 208.0 264.6 208.0Q261.6 208.0 259.8 210.0Q257.9 212.1 257.9 215.3L257.9 215.3L257.9 230.5Q257.9 232.7 256.7 234.0Z M307.3 233.8Q306.1 235.1 303.8 235.1Q301.6 235.1 300.4 233.8Q299.1 232.6 299.1 230.2L299.1 230.2L299.1 194.4Q299.1 192.1 300.4 190.8Q301.6 189.5 303.8 189.5L303.8 189.5L317.5 189.5Q324.4 189.5 328.8 193.7Q333.1 198.0 333.1 204.9L333.1 204.9Q333.1 211.8 328.6 216.1Q324.2 220.3 317 220.3L317 220.3L308.6 220.3L308.6 230.2Q308.6 232.6 307.3 233.8ZM308.6 196.9L308.6 213.0L314.9 213.0Q319 213.0 321.3 210.9Q323.5 208.8 323.5 204.9Q323.5 201.1 321.3 199.0Q319.0 196.9 315.0 196.9L315.0 196.9L308.6 196.9ZM353.3 235.3L353.3 235.3Q345.4 235.3 341.0 230.7Q336.7 226.1 336.7 218.0L336.7 218.0Q336.7 209.9 341.0 205.1Q345.4 200.3 352.8 200.3L352.8 200.3Q359.9 200.3 364.3 204.7Q368.7 209.1 368.7 215.9L368.7 215.9Q368.7 217.8 367.7 218.9Q366.7 219.9 364.8 219.9L364.8 219.9L345.6 219.9L345.6 220.3Q345.6 224.0 347.7 226.3Q349.8 228.5 353.3 228.5L353.3 228.5Q355.8 228.5 357.6 227.6Q359.4 226.7 361.3 224.5L361.3 224.5Q362.6 223.1 364.2 223.1L364.2 223.1Q365.8 223.1 366.8 224.1Q367.8 225.0 367.8 226.5L367.8 226.5Q367.8 227.6 367.2 228.7L367.2 228.7Q365.5 231.8 361.8 233.5Q358.1 235.3 353.3 235.3ZM345.7 214.3L345.7 214.3L359.9 214.3Q359.8 211.0 357.9 209.1Q355.9 207.1 352.9 207.1Q349.9 207.1 348.0 209.1Q346.0 211.1 345.7 214.3ZM378.0 235.2L378.0 235.2Q375.9 235.2 374.6 234.0Q373.4 232.7 373.4 230.5L373.4 230.5L373.4 205.0Q373.4 202.8 374.6 201.6Q375.8 200.4 377.8 200.4L377.8 200.4Q379.8 200.4 380.9 201.6Q382.1 202.8 382.1 205.0L382.1 205.0L382.1 207.1L382.3 207.1Q383.0 204.1 384.9 202.3Q386.8 200.5 389.3 200.5L389.3 200.5Q391.1 200.5 392.1 201.4L392.1 201.4Q393.4 202.4 393.4 204.7L393.4 204.7Q393.4 206.9 392.1 208.0L392.1 208.0Q390.8 209.2 388.2 209.2L388.2 209.2Q385.2 209.2 383.8 210.8Q382.5 212.5 382.5 215.6L382.5 215.6L382.5 230.5Q382.5 232.7 381.3 234.0Q380.1 235.2 378.0 235.2ZM412.0 235.3L412.0 235.3Q404.4 235.3 399.9 230.6Q395.5 225.9 395.5 217.8L395.5 217.8Q395.5 209.8 399.9 205.1Q404.3 200.3 411.9 200.3L411.9 200.3Q416.9 200.3 420.8 202.5Q424.7 204.7 426.0 208.3L426.0 208.3Q426.5 209.6 426.5 210.6L426.5 210.6Q426.5 212.2 425.4 213.2Q424.3 214.1 422.6 214.1L422.6 214.1Q421.3 214.1 420.4 213.6Q419.5 213.0 418.8 211.8L418.8 211.8Q416.4 207.5 412.2 207.5L412.2 207.5Q408.7 207.5 406.7 210.2Q404.7 212.9 404.7 217.8L404.7 217.8Q404.7 222.7 406.7 225.4Q408.7 228.1 412.1 228.1L412.1 228.1Q416.3 228.1 418.7 224.2L418.7 224.2Q419.6 222.7 420.5 222.1Q421.4 221.5 422.8 221.5L422.8 221.5Q424.5 221.5 425.6 222.5Q426.7 223.5 426.7 225.1L426.7 225.1Q426.7 226.2 426.1 227.5L426.1 227.5Q424.6 231.0 420.7 233.1Q416.8 235.3 412.0 235.3ZM447.0 235.3L447.0 235.3Q439.1 235.3 434.7 230.7Q430.3 226.1 430.3 218.0L430.3 218.0Q430.3 209.9 434.7 205.1Q439.1 200.3 446.5 200.3L446.5 200.3Q453.6 200.3 458.0 204.7Q462.4 209.1 462.4 215.9L462.4 215.9Q462.4 217.8 461.4 218.9Q460.3 219.9 458.4 219.9L458.4 219.9L439.3 219.9L439.3 220.3Q439.3 224.0 441.4 226.3Q443.5 228.5 446.9 228.5L446.9 228.5Q449.4 228.5 451.3 227.6Q453.1 226.7 454.9 224.5L454.9 224.5Q456.3 223.1 457.9 223.1L457.9 223.1Q459.4 223.1 460.5 224.1Q461.5 225.0 461.5 226.5L461.5 226.5Q461.5 227.6 460.8 228.7L460.8 228.7Q459.2 231.8 455.5 233.5Q451.8 235.3 447.0 235.3ZM439.4 214.3L439.4 214.3L453.6 214.3Q453.5 211.0 451.6 209.1Q449.6 207.1 446.6 207.1Q443.6 207.1 441.6 209.1Q439.7 211.1 439.4 214.3ZM475.0 245.3Q473.7 246.5 471.7 246.5Q469.6 246.5 468.3 245.3Q467.1 244.0 467.1 241.7L467.1 241.7L467.1 205.1Q467.1 202.8 468.3 201.6Q469.6 200.4 471.6 200.4Q473.6 200.4 474.9 201.6Q476.1 202.8 476.1 205.1L476.1 205.1L476.1 206.9L476.3 206.9Q477.7 203.9 480.4 202.2Q483.1 200.5 486.7 200.5L486.7 200.5Q493.0 200.5 496.7 205.1Q500.4 209.7 500.4 217.8L500.4 217.8Q500.4 225.9 496.8 230.5Q493.1 235.1 486.8 235.1L486.8 235.1Q483.2 235.1 480.5 233.4Q477.8 231.8 476.4 228.9L476.4 228.9L476.2 228.9L476.2 241.7Q476.2 244.0 475.0 245.3ZM483.6 227.7L483.6 227.7Q487 227.7 489.0 225.1Q491.0 222.4 491.0 217.8Q491.0 213.2 489.0 210.5Q487 207.8 483.6 207.8L483.6 207.8Q480.3 207.8 478.2 210.6Q476.2 213.3 476.2 217.8L476.2 217.8Q476.2 222.3 478.2 225.0Q480.2 227.7 483.6 227.7ZM507.5 226.0L507.5 226.0L507.5 207.9L505.8 207.9Q504.1 207.9 503.2 207.0Q502.2 206.1 502.2 204.5Q502.2 202.9 503.2 202.0Q504.1 201.1 505.8 201.1L505.8 201.1L507.5 201.1L507.5 197.3Q507.5 195.1 508.7 193.8Q509.9 192.6 512.1 192.6Q514.2 192.6 515.4 193.8Q516.6 195.1 516.6 197.3L516.6 197.3L516.6 201.1L519.8 201.1Q521.5 201.1 522.4 202.0Q523.3 202.9 523.3 204.5Q523.3 206.1 522.4 207.0Q521.5 207.9 519.8 207.9L519.8 207.9L516.6 207.9L516.6 224.0Q516.6 225.7 517.3 226.6Q517.9 227.4 519.4 227.5L519.4 227.5L520 227.6Q521.8 227.7 522.6 228.5Q523.5 229.3 523.5 230.9L523.5 230.9Q523.5 232.8 521.7 233.9Q520.0 234.9 517 234.9L517 234.9L516.7 234.9Q507.5 234.9 507.5 226.0ZM536 195.5Q534.6 196.9 532.5 196.9Q530.5 196.9 529.1 195.5Q527.7 194.1 527.7 192.2L527.7 192.2Q527.7 190.2 529.1 188.8Q530.5 187.5 532.5 187.5Q534.6 187.5 536 188.8Q537.4 190.2 537.4 192.2L537.4 192.2Q537.4 194.1 536 195.5ZM535.9 233.9Q534.7 235.2 532.5 235.2Q530.4 235.2 529.2 233.9Q528.0 232.7 528.0 230.5L528.0 230.5L528.0 205.1Q528.0 202.9 529.2 201.6Q530.4 200.4 532.5 200.4Q534.7 200.4 535.9 201.6Q537.1 202.9 537.1 205.1L537.1 205.1L537.1 230.5Q537.1 232.7 535.9 233.9ZM570.7 230.6Q566.2 235.3 558.5 235.3Q550.9 235.3 546.4 230.6Q541.9 226.0 541.9 217.8L541.9 217.8Q541.9 209.7 546.5 205.0Q551.0 200.3 558.5 200.3L558.5 200.3Q566.1 200.3 570.6 205.0Q575.1 209.7 575.1 217.8L575.1 217.8Q575.1 226.0 570.7 230.6ZM558.5 228.3L558.5 228.3Q561.9 228.3 563.9 225.6Q565.8 222.8 565.8 217.8L565.8 217.8Q565.8 212.9 563.9 210.1Q561.9 207.3 558.5 207.3Q555.2 207.3 553.2 210.1Q551.2 212.9 551.2 217.8L551.2 217.8Q551.2 222.8 553.2 225.6Q555.1 228.3 558.5 228.3ZM587.7 234.0Q586.4 235.2 584.4 235.2Q582.3 235.2 581.1 234.0Q579.8 232.7 579.8 230.5L579.8 230.5L579.8 205.0Q579.8 202.8 581.0 201.6Q582.2 200.4 584.2 200.4Q586.3 200.4 587.5 201.6Q588.8 202.9 588.8 205.0L588.8 205.0L588.8 206.9L589.0 206.9Q591.7 200.4 599.3 200.4L599.3 200.4Q604.8 200.4 607.9 203.7Q610.9 207.1 610.9 213.0L610.9 213.0L610.9 230.5Q610.9 232.7 609.7 234.0Q608.4 235.2 606.3 235.2Q604.3 235.2 603.0 234.0Q601.8 232.7 601.8 230.5L601.8 230.5L601.8 214.9Q601.8 211.6 600.2 209.8Q598.7 208.0 595.6 208.0Q592.6 208.0 590.8 210.0Q588.9 212.1 588.9 215.3L588.9 215.3L588.9 230.5Q588.9 232.7 587.7 234.0Z M656.8 230.6Q652.4 235.3 644.7 235.3Q637.1 235.3 632.6 230.6Q628.1 226.0 628.1 217.8L628.1 217.8Q628.1 209.7 632.6 205.0Q637.2 200.3 644.7 200.3L644.7 200.3Q652.3 200.3 656.8 205.0Q661.3 209.7 661.3 217.8L661.3 217.8Q661.3 226.0 656.8 230.6ZM644.7 228.3L644.7 228.3Q648.1 228.3 650.1 225.6Q652.0 222.8 652.0 217.8L652.0 217.8Q652.0 212.9 650.1 210.1Q648.1 207.3 644.7 207.3Q641.3 207.3 639.4 210.1Q637.4 212.9 637.4 217.8L637.4 217.8Q637.4 222.8 639.3 225.6Q641.3 228.3 644.7 228.3ZM676.3 234.0Q675.1 235.2 673 235.2Q670.9 235.2 669.7 234.0Q668.4 232.8 668.4 230.5L668.4 230.5L668.4 207.9L666.7 207.9Q665.2 207.9 664.3 207.0Q663.3 206.1 663.3 204.6Q663.3 203.0 664.3 202.1Q665.2 201.2 666.7 201.2L666.7 201.2L668.4 201.2L668.4 198.7Q668.4 193.8 670.8 191.4Q673.2 189.1 678 189.1L678 189.1Q681.5 189.1 683.2 190.1Q684.9 191.1 684.9 192.7L684.9 192.7Q684.9 194.6 683.0 195.1L683.0 195.1Q682.2 195.4 681.3 195.4L681.3 195.4Q679.2 195.5 678.3 196.3Q677.3 197.2 677.3 199.1L677.3 199.1L677.3 201.2L681.2 201.2Q682.7 201.2 683.6 202.1Q684.5 203.0 684.5 204.6Q684.5 206.1 683.6 207.0Q682.7 207.9 681.2 207.9L681.2 207.9L677.6 207.9L677.6 230.5Q677.6 232.8 676.3 234.0Z M710.4 233.9Q709.2 235.2 706.9 235.2Q704.7 235.2 703.5 233.9Q702.2 232.6 702.2 230.3L702.2 230.3L702.2 194.4Q702.2 192.1 703.5 190.8Q704.7 189.5 706.9 189.5L706.9 189.5L720.7 189.5Q728.4 189.5 732.7 193.3Q737 197.1 737 203.8L737 203.8Q737 208.1 735.0 211.5Q732.9 214.8 729.3 216.4L729.3 216.4L735.8 227.6Q736.8 229.4 736.8 230.9L736.8 230.9Q736.8 232.8 735.4 234.0Q734.1 235.2 732 235.2L732 235.2Q730.3 235.2 729.3 234.5Q728.3 233.7 727.2 231.6L727.2 231.6L719.7 218.1L711.7 218.1L711.7 230.3Q711.7 232.6 710.4 233.9ZM711.7 196.8L711.7 211.2L719.8 211.2Q723.3 211.2 725.3 209.3Q727.3 207.4 727.3 204.0L727.3 204.0Q727.3 200.7 725.3 198.8Q723.2 196.8 719.7 196.8L719.7 196.8L711.7 196.8ZM769.9 230.6Q765.4 235.3 757.8 235.3Q750.1 235.3 745.7 230.6Q741.2 226.0 741.2 217.8L741.2 217.8Q741.2 209.7 745.7 205.0Q750.2 200.3 757.8 200.3L757.8 200.3Q765.4 200.3 769.9 205.0Q774.4 209.7 774.4 217.8L774.4 217.8Q774.4 226.0 769.9 230.6ZM757.8 228.3L757.8 228.3Q761.2 228.3 763.1 225.6Q765.1 222.8 765.1 217.8L765.1 217.8Q765.1 212.9 763.1 210.1Q761.2 207.3 757.8 207.3Q754.4 207.3 752.4 210.1Q750.4 212.9 750.4 217.8L750.4 217.8Q750.4 222.8 752.4 225.6Q754.4 228.3 757.8 228.3ZM783.8 235.2L783.8 235.2Q781.7 235.2 780.5 234.0Q779.3 232.8 779.3 230.6L779.3 230.6L779.3 193.6Q779.3 191.3 780.5 190.0Q781.8 188.8 783.8 188.8Q785.9 188.8 787.2 190.0Q788.4 191.3 788.4 193.6L788.4 193.6L788.4 206.9L788.6 206.9Q790 203.9 792.7 202.2Q795.4 200.5 798.9 200.5L798.9 200.5Q805.3 200.5 808.9 205.1Q812.6 209.7 812.6 217.8Q812.6 225.9 808.9 230.5Q805.3 235.1 799.0 235.1L799.0 235.1Q795.3 235.1 792.6 233.4Q789.9 231.8 788.5 228.8L788.5 228.8L788.3 228.8L788.3 230.6Q788.3 232.8 787.0 234.0Q785.8 235.2 783.8 235.2ZM795.8 227.7L795.8 227.7Q799.3 227.7 801.2 225.1Q803.2 222.4 803.2 217.8L803.2 217.8Q803.2 213.2 801.2 210.5Q799.3 207.8 795.8 207.8L795.8 207.8Q792.5 207.8 790.4 210.6Q788.4 213.3 788.4 217.8L788.4 217.8Q788.4 222.3 790.4 225.0Q792.5 227.7 795.8 227.7ZM844.8 230.6Q840.3 235.3 832.7 235.3Q825 235.3 820.5 230.6Q816.1 226.0 816.1 217.8L816.1 217.8Q816.1 209.7 820.6 205.0Q825.1 200.3 832.7 200.3L832.7 200.3Q840.3 200.3 844.8 205.0Q849.3 209.7 849.3 217.8L849.3 217.8Q849.3 226.0 844.8 230.6ZM832.7 228.3L832.7 228.3Q836.0 228.3 838 225.6Q840.0 222.8 840.0 217.8L840.0 217.8Q840.0 212.9 838 210.1Q836.0 207.3 832.7 207.3Q829.3 207.3 827.3 210.1Q825.3 212.9 825.3 217.8L825.3 217.8Q825.3 222.8 827.3 225.6Q829.3 228.3 832.7 228.3ZM856.4 226.0L856.4 226.0L856.4 207.9L854.6 207.9Q853 207.9 852.0 207.0Q851.1 206.1 851.1 204.5Q851.1 202.9 852.0 202.0Q853 201.1 854.6 201.1L854.6 201.1L856.4 201.1L856.4 197.3Q856.4 195.1 857.6 193.8Q858.8 192.6 860.9 192.6Q863.1 192.6 864.3 193.8Q865.5 195.1 865.5 197.3L865.5 197.3L865.5 201.1L868.7 201.1Q870.3 201.1 871.3 202.0Q872.2 202.9 872.2 204.5Q872.2 206.1 871.3 207.0Q870.3 207.9 868.7 207.9L868.7 207.9L865.5 207.9L865.5 224.0Q865.5 225.7 866.2 226.6Q866.8 227.4 868.3 227.5L868.3 227.5L868.9 227.6Q870.6 227.7 871.5 228.5Q872.3 229.3 872.3 230.9L872.3 230.9Q872.3 232.8 870.6 233.9Q868.8 234.9 865.9 234.9L865.9 234.9L865.6 234.9Q856.4 234.9 856.4 226.0Z M898.3 233.8Q897.1 235.1 894.8 235.1Q892.6 235.1 891.4 233.8Q890.1 232.6 890.1 230.2L890.1 230.2L890.1 194.4Q890.1 192.1 891.4 190.8Q892.6 189.5 894.8 189.5L894.8 189.5L915.9 189.5Q917.9 189.5 919.1 190.5Q920.2 191.6 920.2 193.4Q920.2 195.2 919.0 196.2Q917.9 197.3 915.9 197.3L915.9 197.3L899.6 197.3L899.6 209.3L914.4 209.3Q916.3 209.3 917.3 210.3Q918.4 211.3 918.4 213.1L918.4 213.1Q918.4 214.8 917.4 215.8Q916.3 216.8 914.4 216.8L914.4 216.8L899.6 216.8L899.6 230.2Q899.6 232.6 898.3 233.8ZM934.3 235.1L934.3 235.1Q929.5 235.1 926.3 232.2Q923.1 229.4 923.1 224.9L923.1 224.9Q923.1 220.4 926.5 217.8Q929.9 215.2 936.2 214.8L936.2 214.8L944.6 214.3L944.6 212.1Q944.6 209.8 943.1 208.5Q941.6 207.1 939 207.1L939 207.1Q936.9 207.1 935.5 207.9Q934.0 208.7 932.5 210.7L932.5 210.7Q931 212.4 928.9 212.4L928.9 212.4Q927.2 212.4 926.1 211.4Q925.1 210.4 925.1 208.9L925.1 208.9Q925.1 207.8 925.5 206.8L925.5 206.8Q926.7 203.8 930.4 202.1Q934.2 200.3 939.4 200.3L939.4 200.3Q945.8 200.3 949.7 203.4Q953.6 206.5 953.6 211.5L953.6 211.5L953.6 230.6Q953.6 232.8 952.4 234.0Q951.2 235.2 949.2 235.2L949.2 235.2Q947.3 235.2 946.1 234.2Q944.9 233.1 944.8 231.1L944.8 231.1L944.8 229.4L944.6 229.4Q943.2 232.1 940.4 233.6Q937.6 235.1 934.3 235.1ZM937.3 228.5L937.3 228.5Q940.4 228.5 942.5 226.7Q944.6 225.0 944.6 222.3L944.6 222.3L944.6 219.8L937.6 220.3Q935 220.5 933.6 221.6Q932.2 222.6 932.2 224.4L932.2 224.4Q932.2 226.3 933.6 227.4Q935.0 228.5 937.3 228.5ZM967.7 195.5Q966.3 196.9 964.2 196.9Q962.1 196.9 960.7 195.5Q959.3 194.1 959.3 192.2L959.3 192.2Q959.3 190.2 960.7 188.8Q962.1 187.5 964.2 187.5Q966.3 187.5 967.7 188.8Q969.1 190.2 969.1 192.2L969.1 192.2Q969.1 194.1 967.7 195.5ZM967.5 233.9Q966.3 235.2 964.2 235.2Q962.1 235.2 960.8 233.9Q959.6 232.7 959.6 230.5L959.6 230.5L959.6 205.1Q959.6 202.9 960.8 201.6Q962.1 200.4 964.2 200.4Q966.3 200.4 967.5 201.6Q968.8 202.9 968.8 205.1L968.8 205.1L968.8 230.5Q968.8 232.7 967.5 233.9ZM982.9 234.0Q981.7 235.2 979.6 235.2Q977.5 235.2 976.3 234.0Q975.0 232.7 975.0 230.5L975.0 230.5L975.0 193.6Q975.0 191.3 976.3 190.0Q977.5 188.8 979.6 188.8Q981.7 188.8 982.9 190.0Q984.2 191.3 984.2 193.6L984.2 193.6L984.2 230.5Q984.2 232.7 982.9 234.0ZM1002.2 235.2L1002.2 235.2Q996.7 235.2 993.4 231.8Q990.2 228.5 990.2 222.6L990.2 222.6L990.2 205.1Q990.2 202.9 991.4 201.6Q992.7 200.4 994.7 200.4Q996.8 200.4 998.0 201.6Q999.3 202.9 999.3 205.1L999.3 205.1L999.3 220.7Q999.3 224.1 1000.9 225.8Q1002.5 227.6 1005.5 227.6Q1008.6 227.6 1010.3 225.6Q1012.1 223.6 1012.1 220.2L1012.1 220.2L1012.1 205.1Q1012.1 202.9 1013.4 201.6Q1014.6 200.4 1016.7 200.4Q1018.8 200.4 1020 201.6Q1021.3 202.9 1021.3 205.1L1021.3 205.1L1021.3 230.6Q1021.3 232.8 1020.1 234.0Q1018.9 235.2 1016.8 235.2Q1014.8 235.2 1013.6 234.0Q1012.4 232.8 1012.4 230.6L1012.4 230.6L1012.4 228.5L1012.3 228.5Q1009.6 235.2 1002.2 235.2ZM1031.8 235.2L1031.8 235.2Q1029.7 235.2 1028.4 234.0Q1027.2 232.7 1027.2 230.5L1027.2 230.5L1027.2 205.0Q1027.2 202.8 1028.4 201.6Q1029.6 200.4 1031.6 200.4L1031.6 200.4Q1033.5 200.4 1034.7 201.6Q1035.9 202.8 1035.9 205.0L1035.9 205.0L1035.9 207.1L1036.1 207.1Q1036.8 204.1 1038.6 202.3Q1040.5 200.5 1043.1 200.5L1043.1 200.5Q1044.9 200.5 1045.9 201.4L1045.9 201.4Q1047.2 202.4 1047.2 204.7L1047.2 204.7Q1047.2 206.9 1045.9 208.0L1045.9 208.0Q1044.6 209.2 1041.9 209.2L1041.9 209.2Q1038.9 209.2 1037.6 210.8Q1036.3 212.5 1036.3 215.6L1036.3 215.6L1036.3 230.5Q1036.3 232.7 1035.1 234.0Q1033.9 235.2 1031.8 235.2ZM1065.9 235.3L1065.9 235.3Q1058.0 235.3 1053.6 230.7Q1049.3 226.1 1049.3 218.0L1049.3 218.0Q1049.3 209.9 1053.6 205.1Q1058 200.3 1065.4 200.3L1065.4 200.3Q1072.5 200.3 1076.9 204.7Q1081.3 209.1 1081.3 215.9L1081.3 215.9Q1081.3 217.8 1080.3 218.9Q1079.3 219.9 1077.3 219.9L1077.3 219.9L1058.2 219.9L1058.2 220.3Q1058.2 224.0 1060.3 226.3Q1062.4 228.5 1065.8 228.5L1065.8 228.5Q1068.3 228.5 1070.2 227.6Q1072 226.7 1073.8 224.5L1073.8 224.5Q1075.2 223.1 1076.8 223.1L1076.8 223.1Q1078.3 223.1 1079.4 224.1Q1080.4 225.0 1080.4 226.5L1080.4 226.5Q1080.4 227.6 1079.8 228.7L1079.8 228.7Q1078.1 231.8 1074.4 233.5Q1070.7 235.3 1065.9 235.3ZM1058.3 214.3L1058.3 214.3L1072.5 214.3Q1072.4 211.0 1070.5 209.1Q1068.5 207.1 1065.5 207.1Q1062.5 207.1 1060.5 209.1Q1058.6 211.1 1058.3 214.3Z M101.9 308.1L80.5 308.1Q78.3 308.1 77 306.9Q75.8 305.6 75.8 303.2L75.8 303.2L75.8 268.0Q75.8 265.6 77 264.4Q78.3 263.1 80.5 263.1L80.5 263.1L101.9 263.1Q103.9 263.1 105.0 264.1Q106.2 265.1 106.2 267.0Q106.2 268.8 105.0 269.8Q103.8 270.9 101.9 270.9L101.9 270.9L85.2 270.9L85.2 281.7L101.1 281.7Q102.9 281.7 104.0 282.7Q105.0 283.7 105.0 285.3L105.0 285.3Q105.0 287.0 104.0 288.0Q102.9 289.0 101.1 289.0L101.1 289.0L85.2 289.0L85.2 300.3L101.9 300.3Q103.8 300.3 105.0 301.4Q106.2 302.4 106.2 304.2Q106.2 306.1 105.0 307.1Q103.9 308.1 101.9 308.1L101.9 308.1ZM114.9 308.8L114.9 308.8Q113.1 308.8 112.0 307.8Q110.8 306.7 110.8 305.1L110.8 305.1Q110.8 303.6 112.0 302.0L112.0 302.0L119.9 291.5L112.1 280.8Q111.1 279.5 111.1 278.0L111.1 278.0Q111.1 276.2 112.3 275.1Q113.6 274.0 115.5 274.0L115.5 274.0Q116.8 274.0 117.7 274.5Q118.6 275.1 119.5 276.6L119.5 276.6L125.8 286.0L125.9 286.0L132.1 276.6Q133 275.1 133.8 274.6Q134.7 274.0 135.9 274.0L135.9 274.0Q137.8 274.0 139.0 275.0Q140.2 276.1 140.2 277.8L140.2 277.8Q140.2 279.4 139 281.0L139 281.0L131.3 291.2L139.1 302.0Q140.1 303.3 140.1 304.8L140.1 304.8Q140.1 306.6 138.9 307.7Q137.7 308.8 135.8 308.8L135.8 308.8Q134.5 308.8 133.7 308.3Q132.9 307.7 132.1 306.5L132.1 306.5L125.4 296.5L125.3 296.5L118.7 306.3Q117.8 307.8 117.0 308.3Q116.2 308.8 114.9 308.8ZM153.3 318.9Q152.1 320.1 150 320.1Q147.9 320.1 146.7 318.9Q145.4 317.6 145.4 315.3L145.4 315.3L145.4 278.6Q145.4 276.4 146.7 275.2Q147.9 274.0 149.9 274.0Q152.0 274.0 153.2 275.2Q154.4 276.4 154.4 278.7L154.4 278.7L154.4 280.5L154.6 280.5Q156 277.5 158.7 275.8Q161.4 274.1 165 274.1L165 274.1Q171.4 274.1 175.0 278.7Q178.7 283.3 178.7 291.4L178.7 291.4Q178.7 299.5 175.1 304.1Q171.5 308.7 165.2 308.7L165.2 308.7Q161.6 308.7 158.8 307.0Q156.1 305.4 154.8 302.5L154.8 302.5L154.6 302.5L154.6 315.3Q154.6 317.6 153.3 318.9ZM161.9 301.3L161.9 301.3Q165.3 301.3 167.4 298.6Q169.4 296.0 169.4 291.4Q169.4 286.8 167.4 284.1Q165.3 281.4 161.9 281.4L161.9 281.4Q158.6 281.4 156.6 284.2Q154.5 286.9 154.5 291.4L154.5 291.4Q154.5 295.9 156.5 298.6Q158.6 301.3 161.9 301.3ZM191.5 307.6Q190.3 308.8 188.2 308.8Q186.1 308.8 184.9 307.6Q183.6 306.3 183.6 304.1L183.6 304.1L183.6 267.1Q183.6 264.9 184.9 263.6Q186.1 262.4 188.2 262.4Q190.3 262.4 191.5 263.6Q192.8 264.9 192.8 267.1L192.8 267.1L192.8 304.1Q192.8 306.3 191.5 307.6ZM208.8 308.7L208.8 308.7Q204.0 308.7 200.8 305.8Q197.6 303.0 197.6 298.5L197.6 298.5Q197.6 294.0 201.0 291.4Q204.3 288.8 210.7 288.4L210.7 288.4L219.1 287.9L219.1 285.7Q219.1 283.4 217.6 282.1Q216.1 280.7 213.5 280.7L213.5 280.7Q211.4 280.7 209.9 281.5Q208.5 282.3 207.0 284.3L207.0 284.3Q205.5 286.0 203.3 286.0L203.3 286.0Q201.7 286.0 200.6 285.0Q199.5 284.0 199.5 282.5L199.5 282.5Q199.5 281.4 200 280.4L200 280.4Q201.2 277.4 204.9 275.7Q208.7 273.9 213.9 273.9L213.9 273.9Q220.3 273.9 224.2 277.0Q228.1 280.1 228.1 285.1L228.1 285.1L228.1 304.2Q228.1 306.4 226.8 307.6Q225.6 308.8 223.6 308.8L223.6 308.8Q221.7 308.8 220.5 307.8Q219.4 306.7 219.3 304.7L219.3 304.7L219.3 303.0L219.1 303.0Q217.7 305.6 214.9 307.2Q212.0 308.7 208.8 308.7ZM211.8 302.1L211.8 302.1Q214.8 302.1 217.0 300.3Q219.1 298.6 219.1 295.9L219.1 295.9L219.1 293.4L212.0 293.9Q209.5 294.1 208.1 295.1Q206.7 296.2 206.7 298.0L206.7 298.0Q206.7 299.9 208.1 301.0Q209.5 302.1 211.8 302.1ZM241.8 307.6Q240.6 308.8 238.5 308.8Q236.4 308.8 235.2 307.6Q233.9 306.3 233.9 304.1L233.9 304.1L233.9 278.6Q233.9 276.4 235.1 275.2Q236.3 274.0 238.3 274.0Q240.4 274.0 241.7 275.2Q242.9 276.5 242.9 278.6L242.9 278.6L242.9 280.5L243.1 280.5Q245.8 274.0 253.4 274.0L253.4 274.0Q259.0 274.0 262 277.3Q265.0 280.6 265.0 286.6L265.0 286.6L265.0 304.1Q265.0 306.3 263.8 307.6Q262.5 308.8 260.5 308.8Q258.4 308.8 257.2 307.6Q255.9 306.3 255.9 304.1L255.9 304.1L255.9 288.5Q255.9 285.1 254.3 283.4Q252.8 281.6 249.8 281.6Q246.7 281.6 244.9 283.6Q243.1 285.6 243.1 288.9L243.1 288.9L243.1 304.1Q243.1 306.3 241.8 307.6ZM280.7 308.7L280.7 308.7Q275.9 308.7 272.7 305.8Q269.5 303.0 269.5 298.5L269.5 298.5Q269.5 294.0 272.9 291.4Q276.3 288.8 282.6 288.4L282.6 288.4L291 287.9L291 285.7Q291 283.4 289.5 282.1Q288.0 280.7 285.4 280.7L285.4 280.7Q283.3 280.7 281.8 281.5Q280.4 282.3 278.9 284.3L278.9 284.3Q277.4 286.0 275.3 286.0L275.3 286.0Q273.6 286.0 272.5 285.0Q271.4 284.0 271.4 282.5L271.4 282.5Q271.4 281.4 271.9 280.4L271.9 280.4Q273.1 277.4 276.8 275.7Q280.6 273.9 285.8 273.9L285.8 273.9Q292.2 273.9 296.1 277.0Q300.0 280.1 300.0 285.1L300.0 285.1L300.0 304.2Q300.0 306.4 298.8 307.6Q297.5 308.8 295.5 308.8L295.5 308.8Q293.6 308.8 292.5 307.8Q291.3 306.7 291.2 304.7L291.2 304.7L291.2 303.0L291.0 303.0Q289.6 305.6 286.8 307.2Q283.9 308.7 280.7 308.7ZM283.7 302.1L283.7 302.1Q286.8 302.1 288.9 300.3Q291 298.6 291 295.9L291 295.9L291 293.4L283.9 293.9Q281.4 294.1 280.0 295.1Q278.6 296.2 278.6 298.0L278.6 298.0Q278.6 299.9 280 301.0Q281.4 302.1 283.7 302.1ZM308.3 299.6L308.3 299.6L308.3 281.5L306.5 281.5Q304.9 281.5 304.0 280.6Q303 279.7 303 278.1Q303 276.5 304.0 275.6Q304.9 274.6 306.5 274.6L306.5 274.6L308.3 274.6L308.3 270.9Q308.3 268.7 309.5 267.4Q310.7 266.2 312.8 266.2Q315.0 266.2 316.2 267.4Q317.4 268.7 317.4 270.9L317.4 270.9L317.4 274.6L320.6 274.6Q322.3 274.6 323.2 275.6Q324.1 276.5 324.1 278.1Q324.1 279.6 323.2 280.6Q322.3 281.5 320.6 281.5L320.6 281.5L317.4 281.5L317.4 297.6Q317.4 299.3 318.1 300.1Q318.7 301.0 320.2 301.1L320.2 301.1L320.8 301.1Q322.5 301.3 323.4 302.1Q324.3 302.9 324.3 304.5L324.3 304.5Q324.3 306.4 322.5 307.5Q320.8 308.5 317.8 308.5L317.8 308.5L317.5 308.5Q308.3 308.5 308.3 299.6ZM336.8 269.1Q335.4 270.5 333.3 270.5Q331.3 270.5 329.8 269.1Q328.4 267.7 328.4 265.8L328.4 265.8Q328.4 263.8 329.8 262.4Q331.3 261.1 333.3 261.1Q335.4 261.1 336.8 262.4Q338.2 263.8 338.2 265.8L338.2 265.8Q338.2 267.7 336.8 269.1ZM336.7 307.5Q335.4 308.8 333.3 308.8Q331.2 308.8 330.0 307.5Q328.8 306.3 328.8 304.1L328.8 304.1L328.8 278.7Q328.8 276.5 330.0 275.2Q331.2 274.0 333.3 274.0Q335.4 274.0 336.7 275.2Q337.9 276.5 337.9 278.7L337.9 278.7L337.9 304.1Q337.9 306.3 336.7 307.5ZM371.4 304.2Q367.0 308.9 359.3 308.9Q351.7 308.9 347.2 304.2Q342.7 299.6 342.7 291.4L342.7 291.4Q342.7 283.3 347.2 278.6Q351.8 273.9 359.3 273.9L359.3 273.9Q366.9 273.9 371.4 278.6Q375.9 283.3 375.9 291.4L375.9 291.4Q375.9 299.6 371.4 304.2ZM359.3 301.9L359.3 301.9Q362.7 301.9 364.7 299.1Q366.6 296.4 366.6 291.4L366.6 291.4Q366.6 286.5 364.7 283.7Q362.7 280.9 359.3 280.9Q355.9 280.9 354.0 283.7Q352.0 286.5 352.0 291.4L352.0 291.4Q352.0 296.4 353.9 299.1Q355.9 301.9 359.3 301.9ZM388.5 307.6Q387.2 308.8 385.2 308.8Q383.1 308.8 381.8 307.6Q380.6 306.3 380.6 304.1L380.6 304.1L380.6 278.6Q380.6 276.4 381.8 275.2Q382.9 274.0 385 274.0Q387.1 274.0 388.3 275.2Q389.6 276.5 389.6 278.6L389.6 278.6L389.6 280.5L389.8 280.5Q392.5 274.0 400.1 274.0L400.1 274.0Q405.6 274.0 408.7 277.3Q411.7 280.6 411.7 286.6L411.7 286.6L411.7 304.1Q411.7 306.3 410.4 307.6Q409.2 308.8 407.1 308.8Q405.1 308.8 403.8 307.6Q402.6 306.3 402.6 304.1L402.6 304.1L402.6 288.5Q402.6 285.1 401 283.4Q399.4 281.6 396.4 281.6Q393.4 281.6 391.5 283.6Q389.7 285.6 389.7 288.9L389.7 288.9L389.7 304.1Q389.7 306.3 388.5 307.6Z M448.1 308.1L435.6 308.1Q433.4 308.1 432.2 306.9Q430.9 305.6 430.9 303.2L430.9 303.2L430.9 268.0Q430.9 265.6 432.2 264.4Q433.4 263.1 435.6 263.1L435.6 263.1L448.1 263.1Q458.3 263.1 464.0 268.9Q469.6 274.7 469.6 285.4L469.6 285.4Q469.6 296.1 464.0 302.1Q458.3 308.1 448.1 308.1L448.1 308.1ZM440.3 270.8L440.3 300.3L447 300.3Q453.3 300.3 456.7 296.5Q460 292.7 460 285.5L460 285.5Q460 278.4 456.6 274.6Q453.3 270.8 447 270.8L447 270.8L440.3 270.8ZM486.8 308.8L486.8 308.8Q481.3 308.8 478.0 305.4Q474.8 302.1 474.8 296.2L474.8 296.2L474.8 278.7Q474.8 276.5 476 275.2Q477.3 274.0 479.3 274.0Q481.4 274.0 482.6 275.2Q483.9 276.5 483.9 278.7L483.9 278.7L483.9 294.3Q483.9 297.7 485.5 299.4Q487.1 301.2 490.1 301.2Q493.2 301.2 494.9 299.2Q496.7 297.2 496.7 293.8L496.7 293.8L496.7 278.7Q496.7 276.5 498.0 275.2Q499.2 274.0 501.3 274.0Q503.3 274.0 504.6 275.2Q505.8 276.5 505.8 278.7L505.8 278.7L505.8 304.2Q505.8 306.4 504.7 307.6Q503.5 308.8 501.4 308.8Q499.4 308.8 498.2 307.6Q497.0 306.4 497.0 304.2L497.0 304.2L497.0 302.1L496.8 302.1Q494.2 308.8 486.8 308.8ZM516.3 308.8L516.3 308.8Q514.3 308.8 513.0 307.6Q511.8 306.3 511.8 304.1L511.8 304.1L511.8 278.6Q511.8 276.4 513.0 275.2Q514.2 274.0 516.2 274.0L516.2 274.0Q518.1 274.0 519.3 275.2Q520.5 276.4 520.5 278.6L520.5 278.6L520.5 280.7L520.7 280.7Q521.3 277.6 523.2 275.9Q525.1 274.1 527.7 274.1L527.7 274.1Q529.5 274.1 530.5 275.0L530.5 275.0Q531.8 276.0 531.8 278.3L531.8 278.3Q531.8 280.5 530.5 281.6L530.5 281.6Q529.2 282.8 526.5 282.8L526.5 282.8Q523.5 282.8 522.2 284.4Q520.9 286.1 520.9 289.2L520.9 289.2L520.9 304.1Q520.9 306.3 519.7 307.6Q518.5 308.8 516.3 308.8ZM543.3 269.1Q541.8 270.5 539.8 270.5Q537.7 270.5 536.3 269.1Q534.9 267.7 534.9 265.8L534.9 265.8Q534.9 263.8 536.3 262.4Q537.7 261.1 539.8 261.1Q541.8 261.1 543.3 262.4Q544.7 263.8 544.7 265.8L544.7 265.8Q544.7 267.7 543.3 269.1ZM543.1 307.5Q541.9 308.8 539.8 308.8Q537.7 308.8 536.4 307.5Q535.2 306.3 535.2 304.1L535.2 304.1L535.2 278.7Q535.2 276.5 536.4 275.2Q537.7 274.0 539.8 274.0Q541.9 274.0 543.1 275.2Q544.3 276.5 544.3 278.7L544.3 278.7L544.3 304.1Q544.3 306.3 543.1 307.5ZM558.3 307.6Q557.0 308.8 555.0 308.8Q552.9 308.8 551.7 307.6Q550.4 306.3 550.4 304.1L550.4 304.1L550.4 278.6Q550.4 276.4 551.6 275.2Q552.8 274.0 554.8 274.0Q556.9 274.0 558.1 275.2Q559.4 276.5 559.4 278.6L559.4 278.6L559.4 280.5L559.6 280.5Q562.3 274.0 569.9 274.0L569.9 274.0Q575.4 274.0 578.5 277.3Q581.5 280.6 581.5 286.6L581.5 286.6L581.5 304.1Q581.5 306.3 580.3 307.6Q579 308.8 576.9 308.8Q574.9 308.8 573.6 307.6Q572.4 306.3 572.4 304.1L572.4 304.1L572.4 288.5Q572.4 285.1 570.8 283.4Q569.3 281.6 566.2 281.6Q563.2 281.6 561.4 283.6Q559.5 285.6 559.5 288.9L559.5 288.9L559.5 304.1Q559.5 306.3 558.3 307.6ZM602.3 320.7L602.3 320.7Q597.3 320.7 593.6 319.0Q589.8 317.3 588.2 314.6L588.2 314.6Q587.5 313.4 587.5 312.1L587.5 312.1Q587.5 310.6 588.5 309.6Q589.5 308.7 591.2 308.7L591.2 308.7Q592.9 308.7 594.3 310.0L594.3 310.0Q598.2 313.6 602.2 313.7L602.2 313.7Q605.9 313.7 608.0 311.8Q610.2 310.0 610.2 306.8L610.2 306.8L610.2 301.4L610.0 301.4Q608.8 304.1 606.0 305.8Q603.3 307.4 599.7 307.4L599.7 307.4Q593.4 307.4 589.7 303.0Q586.1 298.5 586.1 290.8L586.1 290.8Q586.1 283.0 589.7 278.5Q593.3 274.1 599.8 274.1L599.8 274.1Q603.3 274.1 606.0 275.8Q608.7 277.5 610.0 280.4L610.0 280.4L610.2 280.4L610.2 278.6Q610.2 276.3 611.5 275.1Q612.8 274.0 614.8 274.0L614.8 274.0Q616.8 274.0 618.1 275.1Q619.3 276.3 619.3 278.6L619.3 278.6L619.3 306.8Q619.3 313.4 614.8 317.1Q610.3 320.8 602.3 320.7ZM602.8 300.6L602.8 300.6Q606.2 300.6 608.2 298.1Q610.3 295.5 610.3 291.0Q610.3 286.4 608.2 283.7Q606.2 281.1 602.8 281.1L602.8 281.1Q599.4 281.1 597.4 283.7Q595.4 286.4 595.4 290.9L595.4 290.9Q595.4 295.5 597.4 298.1Q599.3 300.6 602.8 300.6Z M647.8 308.7L647.8 308.7Q643.0 308.7 639.8 305.8Q636.6 303.0 636.6 298.5L636.6 298.5Q636.6 294.0 640.0 291.4Q643.3 288.8 649.7 288.4L649.7 288.4L658.1 287.9L658.1 285.7Q658.1 283.4 656.6 282.1Q655.1 280.7 652.5 280.7L652.5 280.7Q650.4 280.7 648.9 281.5Q647.5 282.3 646.0 284.3L646.0 284.3Q644.5 286.0 642.3 286.0L642.3 286.0Q640.7 286.0 639.6 285.0Q638.5 284.0 638.5 282.5L638.5 282.5Q638.5 281.4 639 280.4L639 280.4Q640.2 277.4 643.9 275.7Q647.7 273.9 652.9 273.9L652.9 273.9Q659.3 273.9 663.2 277.0Q667.1 280.1 667.1 285.1L667.1 285.1L667.1 304.2Q667.1 306.4 665.8 307.6Q664.6 308.8 662.6 308.8L662.6 308.8Q660.7 308.8 659.5 307.8Q658.4 306.7 658.3 304.7L658.3 304.7L658.3 303.0L658.1 303.0Q656.7 305.6 653.9 307.2Q651.0 308.7 647.8 308.7ZM650.8 302.1L650.8 302.1Q653.8 302.1 656.0 300.3Q658.1 298.6 658.1 295.9L658.1 295.9L658.1 293.4L651.0 293.9Q648.5 294.1 647.1 295.1Q645.7 296.2 645.7 298.0L645.7 298.0Q645.7 299.9 647.1 301.0Q648.5 302.1 650.8 302.1Z M694.6 307.4Q693.3 308.7 691.1 308.7Q688.9 308.7 687.6 307.4Q686.4 306.1 686.4 303.8L686.4 303.8L686.4 268.0Q686.4 265.6 687.6 264.4Q688.9 263.1 691.1 263.1L691.1 263.1L704.7 263.1Q711.7 263.1 716.0 267.3Q720.3 271.6 720.3 278.5L720.3 278.5Q720.3 285.4 715.9 289.7Q711.4 293.9 704.3 293.9L704.3 293.9L695.8 293.9L695.8 303.8Q695.8 306.1 694.6 307.4ZM695.8 270.5L695.8 286.6L702.2 286.6Q706.3 286.6 708.5 284.5Q710.8 282.4 710.8 278.5Q710.8 274.7 708.5 272.6Q706.3 270.5 702.2 270.5L702.2 270.5L695.8 270.5ZM733.3 269.1Q731.9 270.5 729.8 270.5Q727.8 270.5 726.4 269.1Q725.0 267.7 725.0 265.8L725.0 265.8Q725.0 263.8 726.4 262.4Q727.8 261.1 729.8 261.1Q731.9 261.1 733.3 262.4Q734.7 263.8 734.7 265.8L734.7 265.8Q734.7 267.7 733.3 269.1ZM733.2 307.5Q732.0 308.8 729.8 308.8Q727.7 308.8 726.5 307.5Q725.3 306.3 725.3 304.1L725.3 304.1L725.3 278.7Q725.3 276.5 726.5 275.2Q727.7 274.0 729.8 274.0Q732.0 274.0 733.2 275.2Q734.4 276.5 734.4 278.7L734.4 278.7L734.4 304.1Q734.4 306.3 733.2 307.5ZM755.8 308.9L755.8 308.9Q748.2 308.9 743.7 304.2Q739.3 299.5 739.3 291.4L739.3 291.4Q739.3 283.4 743.7 278.6Q748.1 273.9 755.7 273.9L755.7 273.9Q760.7 273.9 764.6 276.1Q768.4 278.3 769.8 281.9L769.8 281.9Q770.3 283.2 770.3 284.2L770.3 284.2Q770.3 285.8 769.2 286.8Q768.1 287.7 766.4 287.7L766.4 287.7Q765.1 287.7 764.2 287.2Q763.3 286.6 762.6 285.4L762.6 285.4Q760.2 281.1 756.0 281.1L756.0 281.1Q752.5 281.1 750.5 283.8Q748.5 286.5 748.5 291.4L748.5 291.4Q748.5 296.3 750.5 299.0Q752.5 301.7 755.9 301.7L755.9 301.7Q760.1 301.7 762.5 297.8L762.5 297.8Q763.4 296.3 764.3 295.7Q765.2 295.1 766.6 295.1L766.6 295.1Q768.3 295.1 769.4 296.1Q770.5 297.1 770.5 298.7L770.5 298.7Q770.5 299.8 769.9 301.1L769.9 301.1Q768.4 304.6 764.5 306.7Q760.5 308.9 755.8 308.9ZM783.4 307.6Q782.2 308.8 780.1 308.8Q778.1 308.8 776.8 307.6Q775.6 306.3 775.6 304.1L775.6 304.1L775.6 267.1Q775.6 264.9 776.8 263.6Q778.1 262.4 780.1 262.4Q782.2 262.4 783.4 263.6Q784.7 264.9 784.7 267.1L784.7 267.1L784.7 287.9L784.8 287.9L796.9 275.8Q798.7 274.0 800.6 274.0L800.6 274.0Q802.3 274.0 803.5 275.1Q804.6 276.2 804.6 277.9L804.6 277.9Q804.6 279.0 804.3 279.7Q803.9 280.5 802.9 281.4L802.9 281.4L794.4 289.4L803.7 301.3Q805 303.1 805 304.7L805 304.7Q805 306.5 803.8 307.6Q802.6 308.8 800.7 308.8L800.7 308.8Q799.2 308.8 798.2 308.2Q797.3 307.6 796.2 306.0L796.2 306.0L787.6 294.6L784.7 297.3L784.7 304.1Q784.7 306.3 783.4 307.6Z M832.3 308.7L832.3 308.7Q827.5 308.7 824.3 305.8Q821.1 303.0 821.1 298.5L821.1 298.5Q821.1 294.0 824.5 291.4Q827.9 288.8 834.2 288.4L834.2 288.4L842.6 287.9L842.6 285.7Q842.6 283.4 841.1 282.1Q839.6 280.7 837 280.7L837 280.7Q834.9 280.7 833.5 281.5Q832.0 282.3 830.5 284.3L830.5 284.3Q829 286.0 826.9 286.0L826.9 286.0Q825.2 286.0 824.1 285.0Q823.1 284.0 823.1 282.5L823.1 282.5Q823.1 281.4 823.5 280.4L823.5 280.4Q824.7 277.4 828.4 275.7Q832.2 273.9 837.4 273.9L837.4 273.9Q843.8 273.9 847.7 277.0Q851.6 280.1 851.6 285.1L851.6 285.1L851.6 304.2Q851.6 306.4 850.4 307.6Q849.2 308.8 847.2 308.8L847.2 308.8Q845.3 308.8 844.1 307.8Q842.9 306.7 842.8 304.7L842.8 304.7L842.8 303.0L842.6 303.0Q841.2 305.6 838.4 307.2Q835.6 308.7 832.3 308.7ZM835.3 302.1L835.3 302.1Q838.4 302.1 840.5 300.3Q842.6 298.6 842.6 295.9L842.6 295.9L842.6 293.4L835.6 293.9Q833 294.1 831.6 295.1Q830.2 296.2 830.2 298.0L830.2 298.0Q830.2 299.9 831.6 301.0Q833.0 302.1 835.3 302.1ZM865.3 307.6Q864.1 308.8 862.0 308.8Q860.0 308.8 858.7 307.6Q857.5 306.3 857.5 304.1L857.5 304.1L857.5 278.6Q857.5 276.4 858.6 275.2Q859.8 274.0 861.9 274.0Q863.9 274.0 865.2 275.2Q866.4 276.5 866.4 278.6L866.4 278.6L866.4 280.5L866.6 280.5Q869.4 274.0 876.9 274.0L876.9 274.0Q882.5 274.0 885.5 277.3Q888.6 280.6 888.6 286.6L888.6 286.6L888.6 304.1Q888.6 306.3 887.3 307.6Q886.1 308.8 884 308.8Q881.9 308.8 880.7 307.6Q879.4 306.3 879.4 304.1L879.4 304.1L879.4 288.5Q879.4 285.1 877.9 283.4Q876.3 281.6 873.3 281.6Q870.3 281.6 868.4 283.6Q866.6 285.6 866.6 288.9L866.6 288.9L866.6 304.1Q866.6 306.3 865.3 307.6ZM906.8 308.7L906.8 308.7Q900.5 308.7 896.8 304.0Q893.1 299.4 893.1 291.3L893.1 291.3Q893.1 283.4 896.8 278.7Q900.5 274.1 906.8 274.1L906.8 274.1Q910.4 274.1 913.1 275.8Q915.8 277.6 917.1 280.4L917.1 280.4L917.3 280.4L917.3 267.1Q917.3 264.9 918.5 263.6Q919.8 262.4 921.8 262.4Q923.9 262.4 925.1 263.6Q926.4 264.9 926.4 267.1L926.4 267.1L926.4 304.2Q926.4 306.4 925.1 307.6Q923.9 308.8 921.8 308.8L921.8 308.8Q919.8 308.8 918.5 307.6Q917.3 306.4 917.3 304.2L917.3 304.2L917.3 302.2L917.1 302.2Q916.0 305.1 913.3 306.9Q910.5 308.7 906.8 308.7ZM909.9 301.3L909.9 301.3Q913.3 301.3 915.3 298.7Q917.3 296.0 917.3 291.4L917.3 291.4Q917.3 286.8 915.3 284.1Q913.3 281.4 909.9 281.4L909.9 281.4Q906.4 281.4 904.5 284.1Q902.5 286.8 902.5 291.4L902.5 291.4Q902.5 296.0 904.5 298.7Q906.4 301.3 909.9 301.3Z M954.1 307.4Q952.8 308.7 950.6 308.7Q948.4 308.7 947.2 307.4Q945.9 306.1 945.9 303.8L945.9 303.8L945.9 268.0Q945.9 265.6 947.2 264.4Q948.4 263.1 950.6 263.1L950.6 263.1L964.3 263.1Q971.2 263.1 975.5 267.3Q979.9 271.6 979.9 278.5L979.9 278.5Q979.9 285.4 975.4 289.7Q970.9 293.9 963.8 293.9L963.8 293.9L955.3 293.9L955.3 303.8Q955.3 306.1 954.1 307.4ZM955.3 270.5L955.3 286.6L961.7 286.6Q965.8 286.6 968.0 284.5Q970.3 282.4 970.3 278.5Q970.3 274.7 968.0 272.6Q965.8 270.5 961.8 270.5L961.8 270.5L955.3 270.5ZM992.8 307.6Q991.5 308.8 989.4 308.8Q987.4 308.8 986.1 307.6Q984.9 306.3 984.9 304.1L984.9 304.1L984.9 267.1Q984.9 264.9 986.1 263.6Q987.4 262.4 989.4 262.4Q991.5 262.4 992.8 263.6Q994 264.9 994 267.1L994 267.1L994 304.1Q994 306.3 992.8 307.6ZM1010.1 308.7L1010.1 308.7Q1005.2 308.7 1002.0 305.8Q998.8 303.0 998.8 298.5L998.8 298.5Q998.8 294.0 1002.2 291.4Q1005.6 288.8 1011.9 288.4L1011.9 288.4L1020.3 287.9L1020.3 285.7Q1020.3 283.4 1018.8 282.1Q1017.3 280.7 1014.7 280.7L1014.7 280.7Q1012.6 280.7 1011.2 281.5Q1009.8 282.3 1008.2 284.3L1008.2 284.3Q1006.7 286.0 1004.6 286.0L1004.6 286.0Q1002.9 286.0 1001.9 285.0Q1000.8 284.0 1000.8 282.5L1000.8 282.5Q1000.8 281.4 1001.3 280.4L1001.3 280.4Q1002.4 277.4 1006.2 275.7Q1009.9 273.9 1015.1 273.9L1015.1 273.9Q1021.6 273.9 1025.4 277.0Q1029.3 280.1 1029.3 285.1L1029.3 285.1L1029.3 304.2Q1029.3 306.4 1028.1 307.6Q1026.9 308.8 1024.9 308.8L1024.9 308.8Q1023.0 308.8 1021.8 307.8Q1020.6 306.7 1020.5 304.7L1020.5 304.7L1020.5 303.0L1020.3 303.0Q1018.9 305.6 1016.1 307.2Q1013.3 308.7 1010.1 308.7ZM1013.1 302.1L1013.1 302.1Q1016.1 302.1 1018.2 300.3Q1020.3 298.6 1020.3 295.9L1020.3 295.9L1020.3 293.4L1013.3 293.9Q1010.7 294.1 1009.3 295.1Q1007.9 296.2 1007.9 298.0L1007.9 298.0Q1007.9 299.9 1009.3 301.0Q1010.8 302.1 1013.1 302.1ZM1050.5 308.9L1050.5 308.9Q1042.9 308.9 1038.4 304.2Q1034.0 299.5 1034.0 291.4L1034.0 291.4Q1034.0 283.4 1038.4 278.6Q1042.8 273.9 1050.4 273.9L1050.4 273.9Q1055.4 273.9 1059.3 276.1Q1063.2 278.3 1064.5 281.9L1064.5 281.9Q1065.0 283.2 1065.0 284.2L1065.0 284.2Q1065.0 285.8 1063.9 286.8Q1062.8 287.7 1061.1 287.7L1061.1 287.7Q1059.8 287.7 1058.9 287.2Q1058 286.6 1057.3 285.4L1057.3 285.4Q1054.9 281.1 1050.7 281.1L1050.7 281.1Q1047.2 281.1 1045.2 283.8Q1043.2 286.5 1043.2 291.4L1043.2 291.4Q1043.2 296.3 1045.2 299.0Q1047.2 301.7 1050.6 301.7L1050.6 301.7Q1054.8 301.7 1057.2 297.8L1057.2 297.8Q1058.1 296.3 1059.0 295.7Q1059.9 295.1 1061.3 295.1L1061.3 295.1Q1063.0 295.1 1064.1 296.1Q1065.2 297.1 1065.2 298.7L1065.2 298.7Q1065.2 299.8 1064.6 301.1L1064.6 301.1Q1063.1 304.6 1059.2 306.7Q1055.3 308.9 1050.5 308.9ZM1085.5 308.9L1085.5 308.9Q1077.6 308.9 1073.2 304.3Q1068.8 299.7 1068.8 291.6L1068.8 291.6Q1068.8 283.5 1073.2 278.7Q1077.6 273.9 1085.0 273.9L1085.0 273.9Q1092.1 273.9 1096.5 278.3Q1100.9 282.6 1100.9 289.5L1100.9 289.5Q1100.9 291.4 1099.9 292.5Q1098.8 293.5 1096.9 293.5L1096.9 293.5L1077.8 293.5L1077.8 293.9Q1077.8 297.6 1079.9 299.9Q1082.0 302.1 1085.4 302.1L1085.4 302.1Q1087.9 302.1 1089.8 301.2Q1091.6 300.3 1093.4 298.1L1093.4 298.1Q1094.8 296.7 1096.4 296.7L1096.4 296.7Q1097.9 296.7 1099.0 297.6Q1100.0 298.6 1100.0 300.1L1100.0 300.1Q1100.0 301.1 1099.3 302.3L1099.3 302.3Q1097.7 305.4 1094 307.1Q1090.3 308.9 1085.5 308.9ZM1077.9 287.9L1077.9 287.9L1092.1 287.9Q1092 284.6 1090.1 282.6Q1088.1 280.7 1085.1 280.7Q1082.1 280.7 1080.1 282.7Q1078.2 284.7 1077.9 287.9Z M94.7 381.0Q93.5 382.3 91.3 382.3Q89.0 382.3 87.8 381.0Q86.5 379.8 86.5 377.4L86.5 377.4L86.5 344.5L77.2 344.5Q75.3 344.5 74.1 343.4Q72.9 342.4 72.9 340.6Q72.9 338.8 74.1 337.7Q75.3 336.7 77.2 336.7L77.2 336.7L105.3 336.7Q107.3 336.7 108.4 337.7Q109.6 338.8 109.6 340.6Q109.6 342.4 108.4 343.4Q107.2 344.5 105.3 344.5L105.3 344.5L96.0 344.5L96.0 377.4Q96.0 379.8 94.7 381.0ZM123.4 382.3L123.4 382.3Q118.5 382.3 115.3 379.4Q112.2 376.6 112.2 372.1L112.2 372.1Q112.2 367.6 115.5 365.0Q118.9 362.4 125.2 362L125.2 362L133.7 361.5L133.7 359.3Q133.7 357.0 132.1 355.7Q130.6 354.3 128.0 354.3L128.0 354.3Q125.9 354.3 124.5 355.1Q123.1 355.9 121.5 357.9L121.5 357.9Q120.0 359.6 117.9 359.6L117.9 359.6Q116.3 359.6 115.2 358.6Q114.1 357.6 114.1 356.1L114.1 356.1Q114.1 355.0 114.6 354L114.6 354Q115.7 351 119.5 349.3Q123.2 347.5 128.4 347.5L128.4 347.5Q134.9 347.5 138.8 350.6Q142.6 353.7 142.6 358.7L142.6 358.7L142.6 377.8Q142.6 380.0 141.4 381.2Q140.2 382.4 138.2 382.4L138.2 382.4Q136.3 382.4 135.1 381.4Q133.9 380.3 133.8 378.3L133.8 378.3L133.8 376.6L133.6 376.6Q132.3 379.3 129.4 380.8Q126.6 382.3 123.4 382.3ZM126.4 375.7L126.4 375.7Q129.4 375.7 131.5 373.9Q133.7 372.2 133.7 369.5L133.7 369.5L133.7 367.0L126.6 367.5Q124.0 367.7 122.6 368.8Q121.3 369.8 121.3 371.6L121.3 371.6Q121.3 373.5 122.7 374.6Q124.1 375.7 126.4 375.7ZM162.2 382.5L162.2 382.5Q156.5 382.5 152.8 380.6Q149.0 378.8 147.8 375.8L147.8 375.8Q147.4 374.8 147.4 374.1L147.4 374.1Q147.4 372.5 148.5 371.6Q149.5 370.6 151.1 370.6L151.1 370.6Q153.2 370.6 155.1 372.7L155.1 372.7Q156.4 374.4 158.1 375.3Q159.8 376.1 162.4 376.1L162.4 376.1Q164.9 376.1 166.4 375.1Q167.8 374.1 167.8 372.5L167.8 372.5Q167.8 371.1 166.8 370.3Q165.8 369.5 163.4 369.0L163.4 369.0L157.8 367.8Q152.9 366.7 150.4 364.3Q147.9 361.8 147.9 358.1L147.9 358.1Q147.9 353.3 151.8 350.4Q155.6 347.5 162.1 347.5L162.1 347.5Q167.2 347.5 170.8 349.5Q174.4 351.5 175.3 354.5L175.3 354.5Q175.5 355.3 175.5 355.8L175.5 355.8Q175.5 357.3 174.6 358.1Q173.7 358.9 172.0 358.9L172.0 358.9Q169.8 358.9 168.7 357.5L168.7 357.5Q167.3 355.8 165.8 354.9Q164.3 353.9 162.0 353.9L162.0 353.9Q159.7 353.9 158.2 354.9Q156.7 355.9 156.7 357.6L156.7 357.6Q156.7 358.9 157.8 359.8Q158.9 360.7 161.4 361.2L161.4 361.2L166.9 362.4Q172.3 363.5 174.6 365.6Q177.0 367.8 177.0 371.5L177.0 371.5Q177.0 376.5 172.9 379.5Q168.8 382.5 162.2 382.5ZM189.6 381.2Q188.3 382.4 186.3 382.4Q184.2 382.4 182.9 381.2Q181.7 379.9 181.7 377.7L181.7 377.7L181.7 340.8Q181.7 338.5 182.9 337.2Q184.2 336.0 186.3 336.0Q188.3 336.0 189.6 337.2Q190.8 338.5 190.8 340.8L190.8 340.8L190.8 361.5L190.9 361.5L203.1 349.4Q204.8 347.6 206.7 347.6L206.7 347.6Q208.4 347.6 209.6 348.7Q210.8 349.8 210.8 351.5L210.8 351.5Q210.8 352.6 210.4 353.3Q210 354.1 209.0 355.0L209.0 355.0L200.5 363.0L209.8 374.9Q211.1 376.7 211.1 378.3L211.1 378.3Q211.1 380.1 209.9 381.3Q208.7 382.4 206.8 382.4L206.8 382.4Q205.3 382.4 204.3 381.8Q203.4 381.2 202.3 379.6L202.3 379.6L193.7 368.2L190.8 370.9L190.8 377.7Q190.8 379.9 189.6 381.2Z " clip-path="url(#satori_cp-id-0)" mask="url(#satori_om-id-0)"/><defs><clipPath id="satori_bc-id-0-1" clip-path="url(#satori_cp-id-0)"><rect x="0" y="509" width="1200" height="121"/></clipPath></defs><mask id="satori_om-id-0-1"><rect x="0" y="510" width="1200" height="120" fill="#fff" mask="url(#satori_om-id-0)"/><path width="1200" height="121" fill="none" stroke="#000" stroke-width="2" d="M0,509 A0,0 0 0 1 0,509 h1200 A0,0 0 0 1 1200,509"/></mask><path width="1200" height="121" clip-path="url(#satori_bc-id-0-1)" fill="none" stroke="rgba(0,0,0,0.08)" stroke-width="2" d="M0,509 A0,0 0 0 1 0,509 h1200 A0,0 0 0 1 1200,509"/><mask id="satori_om-id-0-1-0"><rect x="48" y="538" width="228" height="64" fill="#fff" mask="url(#satori_om-id-0)"/></mask><mask id="satori_om-id-0-1-0-0"><rect x="48" y="538" width="72" height="64" fill="#fff" mask="url(#satori_om-id-0)"/></mask><clipPath id="satori_cp-id-0-1-0-0-0" clip-path="url(#satori_cp-id-0)"><rect x="48" y="538" width="72" height="64"/></clipPath><mask id="satori_om-id-0-1-0-0-0"><rect x="48" y="538" width="72" height="64" fill="#fff" mask="url(#satori_om-id-0)"/></mask><image x="48" y="538" width="72" height="64" href="data:image/svg+xml;utf8,%3Csvg  xmlns=%22http://www.w3.org/2000/svg%22 width=%2273.60461760461762%22 height=%2264%22 viewBox=%220 0 797 693%22%3E%3Cg transform=%22matrix(1,0,0,1,-345,-96.5)%22%3E%3Cpath d=%22M756.942,197.15L756.942,474C701.751,474 656.942,518.808 656.942,574C656.942,629.192 701.751,674 756.942,674L756.942,777L495.122,777C443.175,777 401,734.825 401,682.878L401,614L364.755,614C353.852,614 345,605.148 345,594.245L345,436.814C345,425.878 353.878,417 364.814,417L401,417L401,365.122C401,313.175 443.175,271 495.122,271L715.058,271L715.058,197.15C696.492,189.056 683.5,170.533 683.5,149C683.5,120.024 707.024,96.5 736,96.5C764.976,96.5 788.5,120.024 788.5,149C788.5,170.533 775.508,189.056 756.942,197.15ZM559,388C520.918,388 490,418.918 490,457C490,495.082 520.918,526 559,526C597.082,526 628,495.082 628,457C628,418.918 597.082,388 559,388Z%22 fill=%22%23ad47ff%22%3E%3C/path%3E%3Cg transform=%22matrix(-1,1.22465e-16,-1.22465e-16,-1,1486.06,1043)%22%3E%3Cpath d=%22M401,417L401,348.122C401,296.175 443.175,254 495.122,254L705.058,254L705.058,357C760.249,357 805.058,401.808 805.058,457C805.058,512.192 760.249,557 705.058,557L705.058,760L495.122,760C443.175,760 401,717.825 401,665.878L401,614L364.755,614C353.852,614 345,605.148 345,594.245L345,436.814C345,425.878 353.878,417 364.814,417L401,417ZM552,643C590.082,643 621,612.082 621,574C621,535.918 590.082,505 552,505C513.918,505 483,535.918 483,574C483,612.082 513.918,643 552,643Z%22 fill=%22%2300d5bd%22%3E%3C/path%3E%3C/g%3E%3C/g%3E%3C/svg%3E" preserveAspectRatio="none" clip-path="url(#satori_cp-id-0-1-0-0-0)" mask="url(#satori_om-id-0-1-0-0-0)"/><mask id="satori_om-id-0-1-0-0-0-0"><rect x="48" y="538" width="0" height="64" fill="#fff" mask="url(#satori_om-id-0)"/></mask><mask id="satori_om-id-0-1-0-0-0-0-0"><rect x="48" y="538" width="0" height="64" fill="#fff" mask="url(#satori_om-id-0)"/></mask><mask id="satori_om-id-0-1-0-0-0-0-1"><rect x="48" y="538" width="0" height="64" fill="#fff" mask="url(#satori_om-id-0)"/></mask><mask id="satori_om-id-0-1-0-0-0-0-1-0"><rect x="48" y="538" width="0" height="64" fill="#fff" mask="url(#satori_om-id-0)"/></mask><mask id="satori_om-id-0-1-0-1"><rect x="138" y="540" width="138" height="60" fill="#fff" mask="url(#satori_om-id-0)"/></mask><mask id="satori_om-id-0-1-0-1-0"><rect x="138" y="540" width="138" height="36" fill="#fff" mask="url(#satori_om-id-0)"/></mask><path fill="#0f172a" d="M150.7 571.2L150.7 571.2Q145.9 571.2 143.0 568.6Q140.1 566.1 140.1 561.8L140.1 561.8L140.1 547.9Q140.1 546.5 140.8 545.8Q141.5 545.1 142.8 545.1Q144.0 545.1 144.7 545.8Q145.4 546.5 145.4 547.9L145.4 547.9L145.4 561.3Q145.4 563.8 146.8 565.2Q148.2 566.7 150.7 566.7L150.7 566.7Q153.3 566.7 154.7 565.2Q156.1 563.8 156.1 561.3L156.1 561.3L156.1 547.9Q156.1 546.5 156.8 545.8Q157.5 545.1 158.7 545.1Q160.0 545.1 160.7 545.8Q161.4 546.5 161.4 547.9L161.4 547.9L161.4 561.8Q161.4 566.1 158.5 568.6Q155.6 571.2 150.7 571.2ZM170.2 570.4Q169.5 571.2 168.2 571.2Q167.0 571.2 166.3 570.4Q165.6 569.7 165.6 568.4L165.6 568.4L165.6 548.2Q165.6 546.9 166.3 546.2Q167.0 545.4 168.2 545.4L168.2 545.4L176.0 545.4Q180.3 545.4 182.7 547.6Q185.1 549.7 185.1 553.5L185.1 553.5Q185.1 555.9 184.0 557.8Q182.9 559.7 180.8 560.6L180.8 560.6L184.4 566.9Q185.0 567.9 185.0 568.7L185.0 568.7Q185.0 569.8 184.2 570.5Q183.5 571.2 182.3 571.2L182.3 571.2Q181.4 571.2 180.8 570.8Q180.3 570.3 179.6 569.2L179.6 569.2L175.4 561.5L170.9 561.5L170.9 568.4Q170.9 569.7 170.2 570.4ZM170.9 549.6L170.9 557.7L175.5 557.7Q177.5 557.7 178.6 556.6Q179.7 555.5 179.7 553.6L179.7 553.6Q179.7 551.8 178.5 550.7Q177.4 549.6 175.4 549.6L175.4 549.6L170.9 549.6ZM198.1 562.7L190.8 562.7Q189.7 562.7 189.1 562.1Q188.4 561.5 188.4 560.5Q188.4 559.4 189.1 558.8Q189.7 558.2 190.8 558.2L190.8 558.2L198.1 558.2Q199.2 558.2 199.9 558.8Q200.6 559.4 200.6 560.5Q200.6 561.5 199.9 562.1Q199.2 562.7 198.1 562.7L198.1 562.7ZM209.1 570.4Q208.4 571.2 207.2 571.2Q205.9 571.2 205.2 570.4Q204.5 569.7 204.5 568.4L204.5 568.4L204.5 548.2Q204.5 546.9 205.2 546.2Q205.9 545.4 207.2 545.4L207.2 545.4L214.9 545.4Q219.3 545.4 221.7 547.6Q224.1 549.7 224.1 553.5L224.1 553.5Q224.1 555.9 223.0 557.8Q221.8 559.7 219.7 560.6L219.7 560.6L223.4 566.9Q224.0 567.9 224.0 568.7L224.0 568.7Q224.0 569.8 223.2 570.5Q222.4 571.2 221.3 571.2L221.3 571.2Q220.3 571.2 219.8 570.8Q219.2 570.3 218.6 569.2L218.6 569.2L214.4 561.5L209.8 561.5L209.8 568.4Q209.8 569.7 209.1 570.4ZM209.8 549.6L209.8 557.7L214.4 557.7Q216.4 557.7 217.5 556.6Q218.6 555.5 218.6 553.6L218.6 553.6Q218.6 551.8 217.5 550.7Q216.3 549.6 214.4 549.6L214.4 549.6L209.8 549.6ZM229.3 571.1L229.3 571.1Q228.0 571.1 227.3 570.5Q226.6 569.8 226.6 568.6L226.6 568.6Q226.6 567.9 226.9 566.9L226.9 566.9L233.9 548.1Q234.4 546.5 235.4 545.8Q236.3 545.1 237.8 545.1L237.8 545.1Q239.4 545.1 240.4 545.8Q241.3 546.5 241.9 548.1L241.9 548.1L248.9 566.9Q249.2 567.9 249.2 568.6L249.2 568.6Q249.2 569.7 248.5 570.4Q247.7 571.1 246.5 571.1L246.5 571.1Q245.4 571.1 244.8 570.6Q244.1 570.0 243.8 568.8L243.8 568.8L242.4 564.8L233.3 564.8L232.0 568.7Q231.6 570.0 231.0 570.6Q230.3 571.1 229.3 571.1ZM237.7 550.3L234.5 560.7L241.2 560.7L237.9 550.3L237.7 550.3ZM262.1 570.8L255.1 570.8Q253.8 570.8 253.1 570.1Q252.4 569.3 252.4 568.0L252.4 568.0L252.4 548.2Q252.4 546.9 253.1 546.2Q253.8 545.4 255.1 545.4L255.1 545.4L262.1 545.4Q267.8 545.4 271.0 548.7Q274.2 552.0 274.2 558.0L274.2 558.0Q274.2 564.0 271.0 567.4Q267.8 570.8 262.1 570.8L262.1 570.8ZM257.7 549.8L257.7 566.4L261.5 566.4Q265.0 566.4 266.9 564.3Q268.8 562.1 268.8 558.0L268.8 558.0Q268.8 554.1 266.9 551.9Q265.0 549.8 261.5 549.8L261.5 549.8L257.7 549.8Z " clip-path="url(#satori_cp-id-0)" mask="url(#satori_om-id-0)"/><mask id="satori_om-id-0-1-0-1-1"><rect x="138" y="576" width="138" height="24" fill="#fff" mask="url(#satori_om-id-0)"/></mask><path fill="#334155" d="M145.0 595.3L145.0 595.3Q142.4 595.3 140.8 593.8Q139.2 592.4 139.2 590.1L139.2 590.1L139.2 582.1Q139.2 581.5 139.6 581.1Q139.9 580.8 140.5 580.8L140.5 580.8Q141.1 580.8 141.4 581.1Q141.8 581.5 141.8 582.1L141.8 582.1L141.8 589.8Q141.8 591.3 142.6 592.2Q143.5 593.1 145.0 593.1Q146.6 593.1 147.4 592.2Q148.3 591.3 148.3 589.8L148.3 589.8L148.3 582.1Q148.3 581.5 148.6 581.1Q149.0 580.8 149.6 580.8L149.6 580.8Q150.2 580.8 150.5 581.1Q150.8 581.5 150.8 582.1L150.8 582.1L150.8 590.1Q150.8 592.4 149.3 593.8Q147.7 595.3 145.0 595.3ZM155.5 594.9Q155.2 595.2 154.6 595.2Q154.0 595.2 153.6 594.9Q153.3 594.5 153.3 593.9L153.3 593.9L153.3 582.3Q153.3 581.6 153.6 581.3Q154.0 581.0 154.6 581.0L154.6 581.0L158.9 581.0Q161.2 581.0 162.5 582.1Q163.8 583.3 163.8 585.3L163.8 585.3Q163.8 586.7 163.1 587.8Q162.4 588.8 161.2 589.3L161.2 589.3L163.4 593.2Q163.7 593.7 163.7 594.1L163.7 594.1Q163.7 594.6 163.4 594.9Q163.0 595.2 162.4 595.2L162.4 595.2Q162.0 595.2 161.7 595.0Q161.5 594.8 161.2 594.3L161.2 594.3L158.7 589.7L155.8 589.7L155.8 593.9Q155.8 594.5 155.5 594.9ZM155.8 583.0L155.8 587.8L158.7 587.8Q159.9 587.8 160.5 587.2Q161.2 586.5 161.2 585.4L161.2 585.4Q161.2 584.3 160.5 583.6Q159.8 583.0 158.6 583.0L158.6 583.0L155.8 583.0ZM171.1 590.4L166.7 590.4Q166.2 590.4 165.9 590.1Q165.6 589.8 165.6 589.3Q165.6 588.8 165.9 588.5Q166.2 588.2 166.7 588.2L166.7 588.2L171.1 588.2Q171.7 588.2 172.0 588.5Q172.3 588.8 172.3 589.3Q172.3 589.8 172.0 590.1Q171.7 590.4 171.1 590.4L171.1 590.4ZM176.7 594.9Q176.4 595.2 175.8 595.2Q175.2 595.2 174.9 594.9Q174.6 594.5 174.6 593.9L174.6 593.9L174.6 582.3Q174.6 581.6 174.9 581.3Q175.2 581.0 175.8 581.0L175.8 581.0L180.1 581.0Q182.4 581.0 183.7 582.1Q185.0 583.3 185.0 585.3L185.0 585.3Q185.0 586.7 184.3 587.8Q183.7 588.8 182.5 589.3L182.5 589.3L184.7 593.2Q185.0 593.7 185.0 594.1L185.0 594.1Q185.0 594.6 184.6 594.9Q184.2 595.2 183.7 595.2L183.7 595.2Q183.2 595.2 183.0 595.0Q182.7 594.8 182.4 594.3L182.4 594.3L179.9 589.7L177.1 589.7L177.1 593.9Q177.1 594.5 176.7 594.9ZM177.1 583.0L177.1 587.8L179.9 587.8Q181.1 587.8 181.8 587.2Q182.4 586.5 182.4 585.4L182.4 585.4Q182.4 584.3 181.8 583.6Q181.1 583.0 179.9 583.0L179.9 583.0L177.1 583.0ZM187.7 595.2L187.7 595.2Q187.1 595.2 186.7 594.9Q186.4 594.6 186.4 594.0L186.4 594.0Q186.4 593.7 186.6 593.3L186.6 593.3L190.7 582.2Q190.9 581.4 191.4 581.1Q191.8 580.8 192.5 580.8L192.5 580.8Q193.2 580.8 193.6 581.1Q194.1 581.4 194.3 582.1L194.3 582.1L198.4 593.3Q198.6 593.7 198.6 594.0L198.6 594.0Q198.6 594.6 198.2 594.9Q197.9 595.2 197.3 595.2L197.3 595.2Q196.8 595.2 196.5 595.0Q196.2 594.7 196.0 594.1L196.0 594.1L195.1 591.4L189.9 591.4L188.9 594.1Q188.8 594.7 188.5 595.0Q188.2 595.2 187.7 595.2ZM192.4 583.4L190.5 589.5L194.5 589.5L192.5 583.4L192.4 583.4ZM205.6 595.0L201.7 595.0Q201.1 595.0 200.8 594.7Q200.4 594.3 200.4 593.7L200.4 593.7L200.4 582.3Q200.4 581.6 200.8 581.3Q201.1 581.0 201.7 581.0L201.7 581.0L205.6 581.0Q208.7 581.0 210.5 582.8Q212.3 584.6 212.3 588.0L212.3 588.0Q212.3 591.3 210.5 593.2Q208.7 595.0 205.6 595.0L205.6 595.0ZM202.9 583.1L202.9 592.9L205.3 592.9Q207.4 592.9 208.6 591.6Q209.7 590.4 209.7 588.0L209.7 588.0Q209.7 585.6 208.6 584.3Q207.4 583.1 205.3 583.1L205.3 583.1L202.9 583.1Z M227.0 595.0L219.2 595.0Q218.7 595.0 218.3 594.8Q218.0 594.5 218.0 594.0L218.0 594.0Q218.0 593.6 218.2 593.3Q218.3 593.1 218.7 592.7L218.7 592.7L223.0 588.4Q224.4 587.1 224.8 586.4Q225.3 585.7 225.3 584.9L225.3 584.9Q225.3 583.9 224.6 583.3Q224.0 582.7 223.0 582.7L223.0 582.7Q221.1 582.7 220.3 584.6L220.3 584.6Q220.1 585.0 219.9 585.2Q219.6 585.4 219.2 585.4L219.2 585.4Q218.7 585.4 218.4 585.1Q218.1 584.8 218.1 584.3L218.1 584.3Q218.1 584.1 218.2 583.8L218.2 583.8Q218.3 583.2 218.7 582.7Q219.1 582.1 219.7 581.7Q220.3 581.2 221.1 580.9Q222.0 580.7 223.0 580.7L223.0 580.7Q225.1 580.7 226.4 581.8Q227.8 582.9 227.8 584.7L227.8 584.7Q227.8 585.9 227.1 586.9Q226.4 588.0 224.6 589.8L224.6 589.8L221.4 592.9L221.4 593.0L227.0 593.0Q227.5 593.0 227.8 593.3Q228.1 593.5 228.1 594.0Q228.1 594.5 227.8 594.8Q227.5 595.0 227.0 595.0L227.0 595.0ZM235.2 595.3L235.2 595.3Q232.6 595.3 231.1 593.4Q229.7 591.4 229.7 588.0L229.7 588.0Q229.7 584.6 231.1 582.6Q232.6 580.7 235.2 580.7L235.2 580.7Q237.8 580.7 239.3 582.6Q240.7 584.6 240.7 588.0L240.7 588.0Q240.7 591.4 239.3 593.3Q237.8 595.3 235.2 595.3ZM235.2 593.3L235.2 593.3Q236.6 593.3 237.4 591.9Q238.2 590.5 238.2 588.0L238.2 588.0Q238.2 585.5 237.4 584.1Q236.6 582.7 235.2 582.7Q233.8 582.7 233.0 584.1Q232.2 585.5 232.2 588.0L232.2 588.0Q232.2 590.5 233.0 591.9Q233.8 593.3 235.2 593.3ZM251.6 595.0L243.8 595.0Q243.2 595.0 242.9 594.8Q242.6 594.5 242.6 594.0L242.6 594.0Q242.6 593.6 242.7 593.3Q242.9 593.1 243.3 592.7L243.3 592.7L247.6 588.4Q248.9 587.1 249.4 586.4Q249.8 585.7 249.8 584.9L249.8 584.9Q249.8 583.9 249.2 583.3Q248.5 582.7 247.5 582.7L247.5 582.7Q245.6 582.7 244.9 584.6L244.9 584.6Q244.7 585.0 244.4 585.2Q244.2 585.4 243.7 585.4L243.7 585.4Q243.2 585.4 242.9 585.1Q242.6 584.8 242.6 584.3L242.6 584.3Q242.6 584.1 242.7 583.8L242.7 583.8Q242.9 583.2 243.2 582.7Q243.6 582.1 244.2 581.7Q244.8 581.2 245.7 580.9Q246.5 580.7 247.5 580.7L247.5 580.7Q249.6 580.7 251.0 581.8Q252.3 582.9 252.3 584.7L252.3 584.7Q252.3 585.9 251.6 586.9Q251.0 588.0 249.2 589.8L249.2 589.8L245.9 592.9L245.9 593.0L251.6 593.0Q252.1 593.0 252.4 593.3Q252.6 593.5 252.6 594.0Q252.6 594.5 252.4 594.8Q252.1 595.0 251.6 595.0L251.6 595.0ZM259.6 595.3L259.6 595.3Q258.0 595.3 256.7 594.6Q255.4 593.9 254.9 592.8L254.9 592.8Q254.6 592.3 254.6 591.8L254.6 591.8Q254.6 591.3 254.9 591.0Q255.2 590.7 255.7 590.7L255.7 590.7Q256.1 590.7 256.4 590.9Q256.6 591.1 256.8 591.5L256.8 591.5Q257.2 592.3 257.9 592.8Q258.6 593.3 259.6 593.3L259.6 593.3Q260.9 593.3 261.7 592.5Q262.5 591.7 262.5 590.4L262.5 590.4Q262.5 589.2 261.7 588.4Q260.9 587.7 259.6 587.7L259.6 587.7Q258.3 587.7 257.4 588.5L257.4 588.5Q257.0 589.0 256.7 589.1Q256.4 589.3 256.0 589.3L256.0 589.3Q255.4 589.3 255.1 588.9Q254.8 588.5 254.8 588.0L254.8 588.0Q254.8 587.9 254.8 587.8L254.8 587.8L255.3 582.5Q255.4 581.7 255.8 581.3Q256.2 581.0 257.0 581.0L257.0 581.0L263.1 581.0Q263.6 581.0 263.9 581.2Q264.2 581.5 264.2 582.0L264.2 582.0Q264.2 582.4 263.9 582.7Q263.6 583.0 263.1 583.0L263.1 583.0L257.4 583.0L257.1 587.2L257.1 587.2Q257.6 586.5 258.4 586.1Q259.2 585.8 260.3 585.8L260.3 585.8Q262.3 585.8 263.6 587.0Q264.9 588.3 264.9 590.4L264.9 590.4Q264.9 592.6 263.4 593.9Q261.9 595.3 259.6 595.3Z " clip-path="url(#satori_cp-id-0)" mask="url(#satori_om-id-0)"/><mask id="satori_om-id-0-1-1"><rect x="780" y="557" width="372" height="26" fill="#fff" mask="url(#satori_om-id-0)"/></mask><path fill="#334155" d="M783.4 577.8Q783.1 578.2 782.5 578.2Q781.9 578.2 781.5 577.8Q781.2 577.5 781.2 576.8L781.2 576.8L781.2 563.6Q781.2 563.0 781.5 562.6Q781.9 562.2 782.5 562.2Q783.1 562.2 783.5 562.6Q783.8 563.0 783.8 563.6L783.8 563.6L783.8 568.5L783.9 568.5Q784.4 567.5 785.3 566.9Q786.3 566.4 787.5 566.4L787.5 566.4Q789.6 566.4 790.9 568.0Q792.2 569.5 792.2 572.3L792.2 572.3Q792.2 575.0 790.9 576.6Q789.6 578.1 787.5 578.1L787.5 578.1Q786.2 578.1 785.3 577.6Q784.4 577.0 783.8 576.0L783.8 576.0L783.8 576.0L783.8 576.8Q783.8 577.5 783.4 577.8ZM786.6 575.9L786.6 575.9Q787.9 575.9 788.7 574.9Q789.4 574.0 789.4 572.3Q789.4 570.6 788.7 569.6Q787.9 568.6 786.6 568.6L786.6 568.6Q785.4 568.6 784.6 569.6Q783.8 570.6 783.8 572.3L783.8 572.3Q783.8 573.9 784.6 574.9Q785.4 575.9 786.6 575.9ZM795.5 582.2L795.5 582.2Q794.6 582.2 794.1 581.9Q793.7 581.5 793.7 580.9L793.7 580.9Q793.7 580.5 793.9 580.3Q794.2 580.0 794.7 580.0L794.7 580.0Q794.8 580.0 795.0 580.0Q795.1 580.0 795.3 580.0L795.3 580.0Q796.3 580.0 796.9 578.7L796.9 578.7L797.1 578.2L793.3 568.3Q793.2 567.9 793.2 567.6L793.2 567.6Q793.2 567.0 793.6 566.7Q794.0 566.3 794.6 566.3L794.6 566.3Q795.1 566.3 795.4 566.6Q795.7 566.8 795.8 567.4L795.8 567.4L798.6 575.7L798.6 575.7L801.3 567.4Q801.5 566.8 801.8 566.6Q802.1 566.3 802.6 566.3L802.6 566.3Q803.2 566.3 803.5 566.7Q803.9 567.0 803.9 567.5L803.9 567.5Q803.9 567.9 803.8 568.3L803.8 568.3L800.0 578.4Q799.2 580.5 798.2 581.3Q797.2 582.2 795.5 582.2Z M811.4 578.1L811.4 578.1Q810.8 578.1 810.4 577.8Q810.0 577.4 810.0 576.7L810.0 576.7L810.0 563.7Q810.0 563.0 810.4 562.6Q810.8 562.3 811.5 562.3L811.5 562.3Q811.9 562.3 812.3 562.4Q812.6 562.6 812.9 563.1L812.9 563.1L820.1 573.3L820.2 573.3L820.2 563.7Q820.2 563.0 820.6 562.6Q820.9 562.3 821.6 562.3L821.6 562.3Q822.2 562.3 822.6 562.6Q822.9 563.0 822.9 563.7L822.9 563.7L822.9 576.7Q822.9 577.4 822.5 577.8Q822.2 578.1 821.5 578.1L821.5 578.1Q821.0 578.1 820.7 577.9Q820.4 577.8 820.1 577.3L820.1 577.3L812.8 567.1L812.7 567.1L812.7 576.7Q812.7 577.4 812.4 577.8Q812.0 578.1 811.4 578.1ZM830.3 582.2L830.3 582.2Q828.7 582.2 827.5 581.7Q826.3 581.1 825.7 580.2L825.7 580.2Q825.4 579.8 825.4 579.4L825.4 579.4Q825.4 578.9 825.7 578.6Q826.1 578.3 826.6 578.3L826.6 578.3Q827.1 578.3 827.5 578.8L827.5 578.8Q828.2 579.5 828.9 579.8Q829.5 580.1 830.3 580.1L830.3 580.1Q831.6 580.1 832.4 579.4Q833.2 578.7 833.2 577.6L833.2 577.6L833.2 575.8L833.2 575.8Q832.7 576.7 831.7 577.3Q830.8 577.8 829.6 577.8L829.6 577.8Q827.4 577.8 826.2 576.3Q824.9 574.7 824.9 572.1L824.9 572.1Q824.9 569.4 826.2 567.9Q827.4 566.4 829.6 566.4L829.6 566.4Q830.8 566.4 831.8 566.9Q832.7 567.5 833.2 568.5L833.2 568.5L833.2 568.5L833.2 567.7Q833.2 567.1 833.6 566.7Q834.0 566.3 834.6 566.3Q835.2 566.3 835.5 566.7Q835.9 567.1 835.9 567.7L835.9 567.7L835.9 577.6Q835.9 579.7 834.4 581.0Q832.9 582.2 830.3 582.2ZM830.4 575.7L830.4 575.7Q831.7 575.7 832.5 574.8Q833.2 573.8 833.2 572.1L833.2 572.1Q833.2 570.5 832.5 569.5Q831.7 568.5 830.4 568.5L830.4 568.5Q829.1 568.5 828.4 569.5Q827.6 570.5 827.6 572.1L827.6 572.1Q827.6 573.8 828.4 574.8Q829.1 575.7 830.4 575.7ZM847.1 576.6Q845.6 578.2 843.1 578.2Q840.6 578.2 839.1 576.6Q837.6 575.0 837.6 572.3L837.6 572.3Q837.6 569.5 839.1 567.9Q840.6 566.3 843.1 566.3L843.1 566.3Q845.6 566.3 847.1 567.9Q848.6 569.5 848.6 572.3L848.6 572.3Q848.6 575.0 847.1 576.6ZM841.1 575.1Q841.8 576.1 843.1 576.1Q844.4 576.1 845.2 575.1Q845.9 574.1 845.9 572.3L845.9 572.3Q845.9 570.5 845.2 569.5Q844.4 568.5 843.1 568.5L843.1 568.5Q841.8 568.5 841.1 569.5Q840.3 570.5 840.3 572.3L840.3 572.3Q840.3 574.1 841.1 575.1ZM852.2 575.2L852.2 575.2Q852.8 575.2 853.1 575.5Q853.4 575.8 853.4 576.3L853.4 576.3Q853.4 576.6 853.3 576.9L853.3 576.9L852.4 580.6Q852.3 581.1 852.0 581.3Q851.8 581.5 851.3 581.5Q850.8 581.5 850.6 581.2Q850.3 581.0 850.3 580.5L850.3 580.5Q850.3 580.4 850.3 580.3L850.3 580.3L851.0 576.3Q851.1 575.2 852.2 575.2Z M862.3 578.1L862.3 578.1Q861.7 578.1 861.3 577.7Q860.9 577.4 860.9 576.7L860.9 576.7L860.9 563.7Q860.9 563.0 861.3 562.6Q861.7 562.3 862.3 562.3L862.3 562.3Q863.0 562.3 863.3 562.6Q863.7 563.0 863.7 563.7L863.7 563.7L863.7 568.9L871.2 568.9L871.2 563.7Q871.2 563.0 871.6 562.6Q872.0 562.3 872.6 562.3L872.6 562.3Q873.3 562.3 873.6 562.6Q874.0 563.0 874.0 563.7L874.0 563.7L874.0 576.7Q874.0 577.4 873.6 577.8Q873.3 578.1 872.6 578.1L872.6 578.1Q872.0 578.1 871.6 577.8Q871.2 577.4 871.2 576.7L871.2 576.7L871.2 571.2L863.7 571.2L863.7 576.7Q863.7 577.4 863.3 577.8Q863.0 578.1 862.3 578.1ZM878.3 578.1L878.3 578.1Q877.7 578.1 877.2 577.6Q876.8 577.2 876.8 576.5L876.8 576.5Q876.8 575.9 877.2 575.4Q877.7 575.0 878.3 575.0L878.3 575.0Q879.0 575.0 879.4 575.4Q879.9 575.9 879.9 576.5L879.9 576.5Q879.9 577.2 879.4 577.6Q879.0 578.1 878.3 578.1ZM884.3 575.2L884.3 575.2Q884.8 575.2 885.1 575.5Q885.5 575.8 885.5 576.3L885.5 576.3Q885.5 576.6 885.4 576.9L885.4 576.9L884.5 580.6Q884.3 581.1 884.1 581.3Q883.8 581.5 883.4 581.5Q882.9 581.5 882.6 581.2Q882.3 581.0 882.4 580.5L882.4 580.5Q882.4 580.4 882.4 580.3L882.4 580.3L883.0 576.3Q883.2 575.2 884.3 575.2Z M899.7 578.2L899.7 578.2Q896.3 578.2 894.4 576.1Q892.4 573.9 892.4 570.2L892.4 570.2Q892.4 566.5 894.4 564.3Q896.3 562.2 899.6 562.2L899.6 562.2Q901.8 562.2 903.4 563.1Q905.0 564.1 905.8 565.8L905.8 565.8Q906.0 566.3 906.0 566.8L906.0 566.8Q906.0 567.4 905.7 567.7Q905.4 568.1 904.8 568.1L904.8 568.1Q903.9 568.1 903.5 567.1L903.5 567.1Q902.9 565.8 901.9 565.2Q900.9 564.5 899.7 564.5L899.7 564.5Q897.7 564.5 896.5 566.1Q895.3 567.6 895.3 570.2L895.3 570.2Q895.3 572.8 896.5 574.3Q897.6 575.9 899.7 575.9L899.7 575.9Q902.5 575.9 903.5 573.4L903.5 573.4Q903.7 573.0 904.0 572.8Q904.3 572.6 904.7 572.6L904.7 572.6Q905.3 572.6 905.7 572.9Q906.0 573.2 906.0 573.8L906.0 573.8Q906.0 574.3 905.8 574.8L905.8 574.8Q905.0 576.4 903.4 577.3Q901.8 578.2 899.7 578.2ZM911.5 578.1L911.5 578.1Q909.8 578.1 908.8 577.2Q907.7 576.2 907.7 574.7L907.7 574.7Q907.7 573.2 908.8 572.3Q909.9 571.4 912.0 571.3L912.0 571.3L915.1 571.1L915.1 570.3Q915.1 569.4 914.5 568.9Q913.9 568.4 912.9 568.4L912.9 568.4Q912.1 568.4 911.6 568.7Q911.0 569.0 910.5 569.8L910.5 569.8Q910.1 570.3 909.5 570.3L909.5 570.3Q909.0 570.3 908.6 570.0Q908.3 569.7 908.3 569.2L908.3 569.2Q908.3 568.9 908.5 568.5L908.5 568.5Q908.9 567.5 910.2 566.9Q911.4 566.3 913.0 566.3L913.0 566.3Q915.1 566.3 916.4 567.4Q917.7 568.4 917.7 570.1L917.7 570.1L917.7 576.8Q917.7 577.5 917.3 577.8Q917.0 578.2 916.4 578.2L916.4 578.2Q915.8 578.2 915.5 577.8Q915.1 577.5 915.1 576.9L915.1 576.9L915.1 576.1L915.1 576.1Q914.6 577.0 913.6 577.6Q912.6 578.1 911.5 578.1ZM912.3 576.1L912.3 576.1Q913.5 576.1 914.3 575.4Q915.1 574.7 915.1 573.7L915.1 573.7L915.1 572.9L912.4 573.0Q911.4 573.1 910.9 573.5Q910.4 573.9 910.4 574.6L910.4 574.6Q910.4 575.3 910.9 575.7Q911.4 576.1 912.3 576.1ZM922.2 577.8Q921.8 578.2 921.2 578.2Q920.6 578.2 920.2 577.8Q919.8 577.4 919.8 576.8L919.8 576.8L919.8 567.7Q919.8 567.1 920.2 566.7Q920.5 566.3 921.1 566.3L921.1 566.3Q921.7 566.3 922.0 566.7Q922.4 567.1 922.4 567.7L922.4 567.7L922.4 568.6L922.4 568.6Q922.7 567.6 923.3 567.0Q924.0 566.4 924.9 566.4L924.9 566.4Q925.5 566.4 925.8 566.7L925.8 566.7Q926.2 567.0 926.2 567.6L926.2 567.6Q926.2 568.2 925.8 568.6L925.8 568.6Q925.4 568.9 924.6 568.9L924.6 568.9Q922.5 568.9 922.5 571.3L922.5 571.3L922.5 576.8Q922.5 577.4 922.2 577.8ZM928.1 575.1L928.1 575.1L928.1 568.6L927.4 568.6Q926.9 568.6 926.6 568.3Q926.4 568.1 926.4 567.6L926.4 567.6Q926.4 567.1 926.6 566.8Q926.9 566.6 927.4 566.6L927.4 566.6L928.1 566.6L928.1 565.0Q928.1 564.4 928.5 564.0Q928.9 563.6 929.5 563.6L929.5 563.6Q930.1 563.6 930.5 564.0Q930.8 564.4 930.8 565.0L930.8 565.0L930.8 566.6L932.1 566.6Q932.6 566.6 932.8 566.8Q933.1 567.1 933.1 567.6L933.1 567.6Q933.1 568.1 932.8 568.3Q932.5 568.6 932.1 568.6L932.1 568.6L930.8 568.6L930.8 574.6Q930.8 575.2 931.1 575.5Q931.3 575.8 931.9 575.9L931.9 575.9L932.1 575.9Q933.2 576.0 933.2 576.9L933.2 576.9Q933.2 577.5 932.7 577.8Q932.2 578.1 931.3 578.1L931.3 578.1L931.1 578.1Q928.1 578.1 928.1 575.1ZM939.8 578.2L939.8 578.2Q937.2 578.2 935.8 576.6Q934.3 575.1 934.3 572.3L934.3 572.3Q934.3 569.6 935.8 567.9Q937.2 566.3 939.7 566.3L939.7 566.3Q942.0 566.3 943.5 567.8Q944.9 569.3 944.9 571.6L944.9 571.6Q944.9 572.2 944.6 572.6Q944.3 572.9 943.7 572.9L943.7 572.9L937.0 572.9L937.0 573.0Q937.0 574.4 937.7 575.3Q938.5 576.1 939.8 576.1L939.8 576.1Q940.7 576.1 941.4 575.8Q942.0 575.4 942.7 574.6L942.7 574.6Q943.1 574.2 943.6 574.2L943.6 574.2Q944.0 574.2 944.3 574.4Q944.6 574.7 944.6 575.2L944.6 575.2Q944.6 575.5 944.5 575.9L944.5 575.9Q943.9 577.0 942.7 577.6Q941.5 578.2 939.8 578.2ZM937.0 571.1L937.0 571.1L942.3 571.1Q942.3 569.9 941.6 569.1Q940.8 568.4 939.7 568.4Q938.6 568.4 937.8 569.2Q937.1 569.9 937.0 571.1ZM949.0 577.8Q948.6 578.2 948.0 578.2Q947.4 578.2 947.0 577.8Q946.7 577.4 946.7 576.8L946.7 576.8L946.7 567.7Q946.7 567.1 947.0 566.7Q947.4 566.3 947.9 566.3L947.9 566.3Q948.5 566.3 948.8 566.7Q949.2 567.1 949.2 567.7L949.2 567.7L949.2 568.6L949.3 568.6Q949.5 567.6 950.2 567.0Q950.8 566.4 951.7 566.4L951.7 566.4Q952.3 566.4 952.6 566.7L952.6 566.7Q953.0 567.0 953.0 567.6L953.0 567.6Q953.0 568.2 952.6 568.6L952.6 568.6Q952.2 568.9 951.4 568.9L951.4 568.9Q949.3 568.9 949.3 571.3L949.3 571.3L949.3 576.8Q949.3 577.4 949.0 577.8ZM956.1 575.2L956.1 575.2Q956.6 575.2 957.0 575.5Q957.3 575.8 957.3 576.3L957.3 576.3Q957.3 576.6 957.2 576.9L957.2 576.9L956.3 580.6Q956.2 581.1 955.9 581.3Q955.7 581.5 955.2 581.5Q954.7 581.5 954.4 581.2Q954.2 581.0 954.2 580.5L954.2 580.5Q954.2 580.4 954.2 580.3L954.2 580.3L954.8 576.3Q955.0 575.2 956.1 575.2Z M973.7 577.9L966.2 577.9Q965.5 577.9 965.2 577.6Q964.8 577.2 964.8 576.5L964.8 576.5L964.8 563.9Q964.8 563.2 965.2 562.8Q965.5 562.4 966.2 562.4L966.2 562.4L973.7 562.4Q974.3 562.4 974.7 562.8Q975.0 563.1 975.0 563.6Q975.0 564.2 974.7 564.5Q974.3 564.8 973.7 564.8L973.7 564.8L967.6 564.8L967.6 569.0L973.4 569.0Q974.0 569.0 974.3 569.3Q974.6 569.6 974.6 570.1Q974.6 570.6 974.3 570.9Q974.0 571.2 973.4 571.2L973.4 571.2L967.6 571.2L967.6 575.6L973.7 575.6Q974.3 575.6 974.7 575.9Q975.0 576.2 975.0 576.8Q975.0 577.3 974.7 577.6Q974.3 577.9 973.7 577.9L973.7 577.9ZM978.8 578.1L978.8 578.1Q978.2 578.1 977.7 577.6Q977.3 577.2 977.3 576.5L977.3 576.5Q977.3 575.9 977.7 575.4Q978.2 575.0 978.8 575.0L978.8 575.0Q979.5 575.0 979.9 575.4Q980.4 575.9 980.4 576.5L980.4 576.5Q980.4 577.2 979.9 577.6Q979.5 578.1 978.8 578.1ZM984.8 575.2L984.8 575.2Q985.3 575.2 985.7 575.5Q986.0 575.8 986.0 576.3L986.0 576.3Q986.0 576.6 985.9 576.9L985.9 576.9L985.0 580.6Q984.9 581.1 984.6 581.3Q984.3 581.5 983.9 581.5Q983.4 581.5 983.1 581.2Q982.9 581.0 982.9 580.5L982.9 580.5Q982.9 580.4 982.9 580.3L982.9 580.3L983.5 576.3Q983.7 575.2 984.8 575.2Z M996.6 578.1L996.6 578.1Q994.9 578.1 993.8 577.2Q992.8 576.2 992.8 574.7L992.8 574.7Q992.8 573.2 993.9 572.3Q995.0 571.4 997.1 571.3L997.1 571.3L1000.1 571.1L1000.1 570.3Q1000.1 569.4 999.5 568.9Q999.0 568.4 998.0 568.4L998.0 568.4Q997.2 568.4 996.6 568.7Q996.1 569.0 995.6 569.8L995.6 569.8Q995.2 570.3 994.5 570.3L994.5 570.3Q994.0 570.3 993.7 570.0Q993.4 569.7 993.4 569.2L993.4 569.2Q993.4 568.9 993.6 568.5L993.6 568.5Q994.0 567.5 995.2 566.9Q996.5 566.3 998.1 566.3L998.1 566.3Q1000.2 566.3 1001.5 567.4Q1002.8 568.4 1002.8 570.1L1002.8 570.1L1002.8 576.8Q1002.8 577.5 1002.4 577.8Q1002.0 578.2 1001.5 578.2L1001.5 578.2Q1000.9 578.2 1000.5 577.8Q1000.2 577.5 1000.2 576.9L1000.2 576.9L1000.2 576.1L1000.1 576.1Q999.6 577.0 998.7 577.6Q997.7 578.1 996.6 578.1ZM997.4 576.1L997.4 576.1Q998.5 576.1 999.3 575.4Q1000.1 574.7 1000.1 573.7L1000.1 573.7L1000.1 572.9L997.5 573.0Q996.5 573.1 996.0 573.5Q995.4 573.9 995.4 574.6L995.4 574.6Q995.4 575.3 996.0 575.7Q996.5 576.1 997.4 576.1ZM1007.2 577.8Q1006.8 578.2 1006.2 578.2Q1005.6 578.2 1005.3 577.8Q1004.9 577.4 1004.9 576.8L1004.9 576.8L1004.9 567.7Q1004.9 567.1 1005.2 566.7Q1005.6 566.3 1006.2 566.3Q1006.8 566.3 1007.1 566.7Q1007.5 567.1 1007.5 567.7L1007.5 567.7L1007.5 568.5L1007.6 568.5Q1008.5 566.3 1011.1 566.3L1011.1 566.3Q1013.0 566.3 1014.0 567.5Q1015.0 568.6 1015.0 570.6L1015.0 570.6L1015.0 576.8Q1015.0 577.4 1014.7 577.8Q1014.3 578.2 1013.7 578.2Q1013.1 578.2 1012.7 577.8Q1012.4 577.4 1012.4 576.8L1012.4 576.8L1012.4 571.1Q1012.4 569.9 1011.8 569.3Q1011.2 568.6 1010.1 568.6L1010.1 568.6Q1008.9 568.6 1008.3 569.4Q1007.6 570.1 1007.6 571.4L1007.6 571.4L1007.6 576.8Q1007.6 577.4 1007.2 577.8ZM1021.4 578.1L1021.4 578.1Q1019.3 578.1 1018.0 576.5Q1016.7 575.0 1016.7 572.2L1016.7 572.2Q1016.7 569.5 1018.0 568.0Q1019.3 566.4 1021.4 566.4L1021.4 566.4Q1022.6 566.4 1023.6 566.9Q1024.5 567.5 1025.0 568.5L1025.0 568.5L1025.0 568.5L1025.0 563.6Q1025.0 563.0 1025.4 562.6Q1025.7 562.2 1026.4 562.2Q1027.0 562.2 1027.3 562.6Q1027.7 563.0 1027.7 563.6L1027.7 563.6L1027.7 576.8Q1027.7 577.5 1027.3 577.8Q1027.0 578.2 1026.4 578.2L1026.4 578.2Q1025.8 578.2 1025.4 577.8Q1025.0 577.5 1025.0 576.8L1025.0 576.8L1025.0 575.9L1025.0 575.9Q1024.5 576.9 1023.6 577.5Q1022.7 578.1 1021.4 578.1ZM1022.2 575.9L1022.2 575.9Q1023.5 575.9 1024.3 574.9Q1025.0 573.9 1025.0 572.3L1025.0 572.3Q1025.0 570.6 1024.3 569.6Q1023.5 568.6 1022.2 568.6L1022.2 568.6Q1020.9 568.6 1020.2 569.6Q1019.4 570.6 1019.4 572.3L1019.4 572.3Q1019.4 574.0 1020.2 575.0Q1020.9 575.9 1022.2 575.9Z M1040.1 578.2L1040.1 578.2Q1037.8 578.2 1036.3 577.4Q1034.8 576.5 1034.3 575.2L1034.3 575.2Q1034.2 574.8 1034.2 574.4L1034.2 574.4Q1034.2 573.8 1034.5 573.4Q1034.8 573.1 1035.4 573.1L1035.4 573.1Q1035.8 573.1 1036.2 573.3Q1036.5 573.5 1036.7 574.0L1036.7 574.0Q1037.0 574.9 1038.0 575.4Q1038.9 575.9 1040.2 575.9L1040.2 575.9Q1041.6 575.9 1042.4 575.3Q1043.3 574.7 1043.3 573.7L1043.3 573.7Q1043.3 572.8 1042.7 572.3Q1042.0 571.8 1040.5 571.5L1040.5 571.5L1038.9 571.1Q1034.3 570.2 1034.3 566.8L1034.3 566.8Q1034.3 564.7 1035.9 563.5Q1037.5 562.2 1040.1 562.2L1040.1 562.2Q1042.1 562.2 1043.6 563.1Q1045.1 563.9 1045.6 565.5L1045.6 565.5Q1045.7 565.7 1045.7 566.1L1045.7 566.1Q1045.7 566.6 1045.3 566.9Q1045.0 567.2 1044.5 567.2L1044.5 567.2Q1043.6 567.2 1043.1 566.4L1043.1 566.4Q1042.4 564.5 1040.1 564.5L1040.1 564.5Q1038.8 564.5 1037.9 565.1Q1037.1 565.6 1037.1 566.6L1037.1 566.6Q1037.1 567.4 1037.8 567.9Q1038.4 568.4 1039.8 568.7L1039.8 568.7L1041.5 569.1Q1043.9 569.6 1045.0 570.6Q1046.1 571.6 1046.1 573.4L1046.1 573.4Q1046.1 575.6 1044.5 576.9Q1042.9 578.2 1040.1 578.2ZM1048.7 575.1L1048.7 575.1L1048.7 568.6L1048.0 568.6Q1047.5 568.6 1047.2 568.3Q1046.9 568.1 1046.9 567.6L1046.9 567.6Q1046.9 567.1 1047.2 566.8Q1047.4 566.6 1048.0 566.6L1048.0 566.6L1048.7 566.6L1048.7 565.0Q1048.7 564.4 1049.0 564.0Q1049.4 563.6 1050.0 563.6L1050.0 563.6Q1050.6 563.6 1051.0 564.0Q1051.3 564.4 1051.3 565.0L1051.3 565.0L1051.3 566.6L1052.6 566.6Q1053.1 566.6 1053.4 566.8Q1053.7 567.1 1053.7 567.6L1053.7 567.6Q1053.7 568.1 1053.4 568.3Q1053.1 568.6 1052.6 568.6L1052.6 568.6L1051.3 568.6L1051.3 574.6Q1051.3 575.2 1051.6 575.5Q1051.8 575.8 1052.4 575.9L1052.4 575.9L1052.6 575.9Q1053.7 576.0 1053.7 576.9L1053.7 576.9Q1053.7 577.5 1053.2 577.8Q1052.7 578.1 1051.8 578.1L1051.8 578.1L1051.7 578.1Q1048.7 578.1 1048.7 575.1ZM1060.4 578.2L1060.4 578.2Q1057.8 578.2 1056.3 576.6Q1054.8 575.1 1054.8 572.3L1054.8 572.3Q1054.8 569.6 1056.3 567.9Q1057.8 566.3 1060.2 566.3L1060.2 566.3Q1062.6 566.3 1064.0 567.8Q1065.5 569.3 1065.5 571.6L1065.5 571.6Q1065.5 572.2 1065.1 572.6Q1064.8 572.9 1064.2 572.9L1064.2 572.9L1057.5 572.9L1057.5 573.0Q1057.5 574.4 1058.3 575.3Q1059.0 576.1 1060.3 576.1L1060.3 576.1Q1061.3 576.1 1061.9 575.8Q1062.6 575.4 1063.2 574.6L1063.2 574.6Q1063.6 574.2 1064.1 574.2L1064.1 574.2Q1064.6 574.2 1064.9 574.4Q1065.2 574.7 1065.2 575.2L1065.2 575.2Q1065.2 575.5 1065.0 575.9L1065.0 575.9Q1064.4 577.0 1063.2 577.6Q1062.0 578.2 1060.4 578.2ZM1057.5 571.1L1057.5 571.1L1062.8 571.1Q1062.8 569.9 1062.1 569.1Q1061.4 568.4 1060.2 568.4Q1059.1 568.4 1058.4 569.2Q1057.6 569.9 1057.5 571.1ZM1069.6 564.5Q1069.2 565.0 1068.6 565.0Q1068.0 565.0 1067.5 564.5Q1067.1 564.1 1067.1 563.5L1067.1 563.5Q1067.1 562.9 1067.5 562.5Q1068.0 562.1 1068.6 562.1L1068.6 562.1Q1069.2 562.1 1069.6 562.5Q1070.1 562.9 1070.1 563.5L1070.1 563.5Q1070.1 564.1 1069.6 564.5ZM1069.6 577.8Q1069.2 578.2 1068.6 578.2Q1068.0 578.2 1067.6 577.8Q1067.2 577.4 1067.2 576.8L1067.2 576.8L1067.2 567.7Q1067.2 567.1 1067.6 566.7Q1068.0 566.3 1068.6 566.3Q1069.2 566.3 1069.6 566.7Q1069.9 567.1 1069.9 567.8L1069.9 567.8L1069.9 576.8Q1069.9 577.4 1069.6 577.8ZM1074.5 577.8Q1074.1 578.2 1073.5 578.2Q1072.9 578.2 1072.5 577.8Q1072.2 577.4 1072.2 576.8L1072.2 576.8L1072.2 567.7Q1072.2 567.1 1072.5 566.7Q1072.9 566.3 1073.4 566.3Q1074.0 566.3 1074.4 566.7Q1074.8 567.1 1074.8 567.7L1074.8 567.7L1074.8 568.5L1074.8 568.5Q1075.8 566.3 1078.4 566.3L1078.4 566.3Q1080.2 566.3 1081.3 567.5Q1082.3 568.6 1082.3 570.6L1082.3 570.6L1082.3 576.8Q1082.3 577.4 1081.9 577.8Q1081.6 578.2 1081.0 578.2Q1080.4 578.2 1080.0 577.8Q1079.6 577.4 1079.6 576.8L1079.6 576.8L1079.6 571.1Q1079.6 569.9 1079.1 569.3Q1078.5 568.6 1077.4 568.6L1077.4 568.6Q1076.2 568.6 1075.5 569.4Q1074.8 570.1 1074.8 571.4L1074.8 571.4L1074.8 576.8Q1074.8 577.4 1074.5 577.8ZM1087.5 577.8Q1087.1 578.2 1086.5 578.2Q1085.9 578.2 1085.6 577.8Q1085.2 577.4 1085.2 576.8L1085.2 576.8L1085.2 568.6L1084.5 568.6Q1084.0 568.6 1083.7 568.4Q1083.4 568.1 1083.4 567.6L1083.4 567.6Q1083.4 567.1 1083.7 566.9Q1084.0 566.6 1084.5 566.6L1084.5 566.6L1085.2 566.6L1085.2 565.6Q1085.2 562.3 1088.3 562.3L1088.3 562.3Q1089.4 562.3 1089.9 562.6Q1090.4 562.9 1090.4 563.4L1090.4 563.4Q1090.4 564.0 1089.8 564.2L1089.8 564.2Q1089.5 564.3 1089.2 564.3L1089.2 564.3Q1088.5 564.3 1088.1 564.6Q1087.8 565.0 1087.8 565.7L1087.8 565.7L1087.8 566.6L1089.3 566.6Q1089.7 566.6 1090.0 566.9Q1090.3 567.1 1090.3 567.6L1090.3 567.6Q1090.3 568.1 1090.0 568.4Q1089.7 568.6 1089.3 568.6L1089.3 568.6L1087.9 568.6L1087.9 576.8Q1087.9 577.4 1087.5 577.8ZM1096.9 578.2L1096.9 578.2Q1094.3 578.2 1092.8 576.6Q1091.4 575.1 1091.4 572.3L1091.4 572.3Q1091.4 569.6 1092.8 567.9Q1094.3 566.3 1096.8 566.3L1096.8 566.3Q1099.1 566.3 1100.6 567.8Q1102.0 569.3 1102.0 571.6L1102.0 571.6Q1102.0 572.2 1101.7 572.6Q1101.4 572.9 1100.8 572.9L1100.8 572.9L1094.0 572.9L1094.0 573.0Q1094.0 574.4 1094.8 575.3Q1095.6 576.1 1096.9 576.1L1096.9 576.1Q1097.8 576.1 1098.4 575.8Q1099.1 575.4 1099.7 574.6L1099.7 574.6Q1100.1 574.2 1100.6 574.2L1100.6 574.2Q1101.1 574.2 1101.4 574.4Q1101.7 574.7 1101.7 575.2L1101.7 575.2Q1101.7 575.5 1101.5 575.9L1101.5 575.9Q1101.0 577.0 1099.8 577.6Q1098.5 578.2 1096.9 578.2ZM1094.1 571.1L1094.1 571.1L1099.4 571.1Q1099.3 569.9 1098.6 569.1Q1097.9 568.4 1096.8 568.4Q1095.6 568.4 1094.9 569.2Q1094.1 569.9 1094.1 571.1ZM1106.1 577.8Q1105.7 578.2 1105.1 578.2Q1104.5 578.2 1104.2 577.8Q1103.8 577.4 1103.8 576.8L1103.8 576.8L1103.8 563.6Q1103.8 563.0 1104.2 562.6Q1104.5 562.2 1105.1 562.2Q1105.7 562.2 1106.1 562.6Q1106.5 563.0 1106.5 563.6L1106.5 563.6L1106.5 576.8Q1106.5 577.4 1106.1 577.8ZM1113.0 578.1L1113.0 578.1Q1110.8 578.1 1109.6 576.5Q1108.3 575.0 1108.3 572.2L1108.3 572.2Q1108.3 569.5 1109.6 568.0Q1110.8 566.4 1113.0 566.4L1113.0 566.4Q1114.2 566.4 1115.1 566.9Q1116.1 567.5 1116.5 568.5L1116.5 568.5L1116.6 568.5L1116.6 563.6Q1116.6 563.0 1117.0 562.6Q1117.3 562.2 1117.9 562.2Q1118.5 562.2 1118.9 562.6Q1119.3 563.0 1119.3 563.6L1119.3 563.6L1119.3 576.8Q1119.3 577.5 1118.9 577.8Q1118.5 578.2 1117.9 578.2L1117.9 578.2Q1117.3 578.2 1117.0 577.8Q1116.6 577.5 1116.6 576.8L1116.6 576.8L1116.6 575.9L1116.5 575.9Q1116.1 576.9 1115.2 577.5Q1114.3 578.1 1113.0 578.1ZM1113.8 575.9L1113.8 575.9Q1115.1 575.9 1115.8 574.9Q1116.6 573.9 1116.6 572.3L1116.6 572.3Q1116.6 570.6 1115.8 569.6Q1115.1 568.6 1113.8 568.6L1113.8 568.6Q1112.5 568.6 1111.8 569.6Q1111.0 570.6 1111.0 572.3L1111.0 572.3Q1111.0 574.0 1111.8 575.0Q1112.5 575.9 1113.8 575.9ZM1123.4 575.2L1123.4 575.2Q1123.9 575.2 1124.3 575.5Q1124.6 575.8 1124.6 576.3L1124.6 576.3Q1124.6 576.6 1124.5 576.9L1124.5 576.9L1123.6 580.6Q1123.5 581.1 1123.2 581.3Q1123.0 581.5 1122.5 581.5Q1122.0 581.5 1121.7 581.2Q1121.5 581.0 1121.5 580.5L1121.5 580.5Q1121.5 580.4 1121.5 580.3L1121.5 580.3L1122.1 576.3Q1122.3 575.2 1123.4 575.2Z M1132.8 578.1L1132.8 578.1Q1132.2 578.1 1131.8 577.8Q1131.4 577.4 1131.4 576.9L1131.4 576.9Q1131.4 576.5 1131.6 576.0L1131.6 576.0L1136.1 563.8Q1136.4 563.0 1136.8 562.6Q1137.3 562.3 1138.1 562.3L1138.1 562.3Q1138.8 562.3 1139.3 562.6Q1139.8 563.0 1140.1 563.8L1140.1 563.8L1144.6 576.0Q1144.8 576.5 1144.8 576.9L1144.8 576.9Q1144.8 577.4 1144.4 577.8Q1144.0 578.1 1143.4 578.1L1143.4 578.1Q1142.8 578.1 1142.5 577.9Q1142.2 577.6 1142.0 577.0L1142.0 577.0L1141.0 574.0L1135.2 574.0L1134.2 576.9Q1134.0 577.6 1133.6 577.9Q1133.3 578.1 1132.8 578.1ZM1138.0 565.2L1135.8 571.8L1140.3 571.8L1138.1 565.2L1138.0 565.2ZM1148.4 578.1L1148.4 578.1Q1147.8 578.1 1147.3 577.6Q1146.9 577.2 1146.9 576.5L1146.9 576.5Q1146.9 575.9 1147.3 575.4Q1147.8 575.0 1148.4 575.0L1148.4 575.0Q1149.1 575.0 1149.5 575.4Q1150.0 575.9 1150.0 576.5L1150.0 576.5Q1150.0 577.2 1149.5 577.6Q1149.1 578.1 1148.4 578.1Z " clip-path="url(#satori_cp-id-0)" mask="url(#satori_om-id-0)"/></svg>