<svg width="1200" height="630" viewBox="0 0 1200 630" xmlns="http://www.w3.org/2000/svg"><mask id="satori_om-id"><rect x="0" y="0" width="1200" height="630" fill="#fff"/></mask><defs><pattern id="satori_pattern_id-0_0" x="0" y="0" width="1" height="1" patternUnits="objectBoundingBox"><linearGradient id="satori_biid-0_0" x1="-0.09774620284174435" y1="0.18618324350808482" x2="1.0977462028417444" y2="0.8138167564919152" spreadMethod="pad"><stop offset="0%" stop-color="#f8fafc"/><stop offset="50%" stop-color="#eef2ff"/><stop offset="100%" stop-color="#ffffff"/></linearGradient><rect x="0" y="0" width="1200" height="630" fill="url(#satori_biid-0_0)"/></pattern></defs><clipPath id="satori_cp-id-0"><rect x="0" y="0" width="1200" height="630"/></clipPath><mask id="satori_om-id-0"><rect x="0" y="0" width="1200" height="630" fill="#fff"/></mask><rect x="0" y="0" width="1200" height="630" fill="url(#satori_pattern_id-0_0)"/><mask id="satori_om-id-0-0"><rect x="0" y="0" width="1200" height="509" fill="#fff" mask="url(#satori_om-id-0)"/></mask><mask id="satori_om-id-0-0-0"><rect x="72" y="72" width="1056" height="365" fill="#fff" mask="url(#satori_om-id-0)"/></mask><mask id="satori_om-id-0-0-0-0"><rect x="72" y="113" width="1056" height="38" fill="#fff" mask="url(#satori_om-id-0)"/></mask><path fill="#64748b" d="M82.7 143.2Q82.2 143.7 81.4 143.7Q80.6 143.7 80.1 143.2Q79.7 142.8 79.7 141.9L79.7 141.9L79.7 124.0L74.1 124.0Q73.4 124.0 73.0 123.5Q72.5 123.1 72.5 122.4Q72.5 121.8 73.0 121.3Q73.4 120.9 74.1 120.9L74.1 120.9L88.7 120.9Q89.4 120.9 89.9 121.3Q90.3 121.8 90.3 122.4Q90.3 123.1 89.9 123.5Q89.4 124.0 88.7 124.0L88.7 124.0L83.2 124.0L83.2 141.9Q83.2 142.8 82.7 143.2ZM95.5 143.3Q95.1 143.8 94.3 143.8Q93.6 143.8 93.1 143.3Q92.6 142.8 92.6 142.0L92.6 142.0L92.6 122.4Q92.6 121.6 93.1 121.1Q93.5 120.6 94.3 120.6L94.3 120.6Q95.1 120.6 95.5 121.1Q96.0 121.6 96.0 122.4L96.0 122.4L96.0 129.8L96.0 129.8Q96.7 128.3 98.1 127.5Q99.4 126.8 101.3 126.8L101.3 126.8Q103.9 126.8 105.5 128.4Q107.0 130.1 107.0 132.9L107.0 132.9L107.0 142.0Q107.0 142.8 106.5 143.3Q106.1 143.8 105.3 143.8L105.3 143.8Q104.6 143.8 104.1 143.3Q103.6 142.8 103.6 142.0L103.6 142.0L103.6 133.5Q103.6 131.7 102.7 130.7Q101.8 129.7 100.0 129.7L100.0 129.7Q98.2 129.7 97.1 130.8Q96 132.0 96 134.0L96 134.0L96 142.0Q96 142.8 95.5 143.3ZM116.0 143.8L116.0 143.8Q113.3 143.8 111.7 142.1Q110.2 140.5 110.2 137.7L110.2 137.7L110.2 128.5Q110.2 127.7 110.6 127.2Q111.1 126.7 111.9 126.7L111.9 126.7Q112.6 126.7 113.1 127.2Q113.6 127.7 113.6 128.5L113.6 128.5L113.6 137.0Q113.6 138.9 114.5 139.9Q115.3 140.9 117.1 140.9L117.1 140.9Q118.9 140.9 119.9 139.7Q121.0 138.5 121.0 136.6L121.0 136.6L121.0 128.5Q121.0 127.7 121.5 127.2Q121.9 126.7 122.7 126.7L122.7 126.7Q123.4 126.7 123.9 127.2Q124.4 127.7 124.4 128.5L124.4 128.5L124.4 142.0Q124.4 142.8 123.9 143.3Q123.5 143.8 122.8 143.8Q122.0 143.8 121.6 143.3Q121.1 142.8 121.1 142.1L121.1 142.1L121.1 140.7L121.0 140.7Q119.6 143.8 116.0 143.8ZM129.4 143.8L129.4 143.8Q128.6 143.8 128.1 143.3Q127.7 142.8 127.7 142.0L127.7 142.0L127.7 128.4Q127.7 127.7 128.1 127.2Q128.6 126.7 129.3 126.7L129.3 126.7Q130 126.7 130.4 127.2Q130.9 127.7 130.9 128.4L130.9 128.4L130.9 129.8L131.0 129.8Q131.3 128.5 132.3 127.6Q133.3 126.8 134.6 126.8L134.6 126.8Q135.5 126.8 135.9 127.2L135.9 127.2Q136.4 127.5 136.4 128.4L136.4 128.4Q136.4 129.1 135.9 129.5L135.9 129.5Q135.4 130.0 134.3 130.0L134.3 130.0Q132.7 130 131.9 131.0Q131.1 132.0 131.1 133.6L131.1 133.6L131.1 142.0Q131.1 142.8 130.6 143.3Q130.1 143.8 129.4 143.8ZM144.3 143.8L144.3 143.8Q141.9 143.8 140.2 142.9Q138.5 142.0 137.9 140.4L137.9 140.4Q137.7 140.1 137.7 139.7L137.7 139.7Q137.7 139.1 138.1 138.8Q138.5 138.4 139.2 138.4L139.2 138.4Q140.0 138.4 140.6 139.3L140.6 139.3Q141.3 140.3 142.1 140.8Q143.0 141.2 144.4 141.2L144.4 141.2Q145.9 141.2 146.8 140.6Q147.6 140.0 147.6 139.0L147.6 139.0Q147.6 138.2 147.1 137.7Q146.5 137.3 145.2 136.9L145.2 136.9L142.6 136.3Q137.9 135.2 137.9 131.7L137.9 131.7Q137.9 129.4 139.7 128.1Q141.5 126.7 144.4 126.7L144.4 126.7Q146.6 126.7 148.2 127.7Q149.9 128.7 150.3 130.2L150.3 130.2Q150.3 130.6 150.3 130.7L150.3 130.7Q150.3 131.3 150.0 131.6Q149.6 131.9 149 131.9L149 131.9Q148.1 131.9 147.6 131.2L147.6 131.2Q147.1 130.3 146.3 129.8Q145.5 129.3 144.3 129.3L144.3 129.3Q142.9 129.3 142.0 129.9Q141.2 130.5 141.2 131.5L141.2 131.5Q141.2 133.0 143.7 133.6L143.7 133.6L146.3 134.2Q148.9 134.8 150.0 135.9Q151.0 136.9 151.0 138.7L151.0 138.7Q151.0 141.0 149.2 142.4Q147.3 143.8 144.3 143.8ZM159.8 143.8L159.8 143.8Q156.7 143.8 154.8 141.4Q152.9 139.1 152.9 135.3Q152.9 131.4 154.8 129.1Q156.7 126.8 159.8 126.8L159.8 126.8Q161.5 126.8 162.9 127.6Q164.3 128.4 165.0 129.8L165.0 129.8L165.0 129.8L165.0 122.4Q165.0 121.6 165.5 121.1Q166.0 120.6 166.7 120.6L166.7 120.6Q167.5 120.6 167.9 121.1Q168.4 121.6 168.4 122.4L168.4 122.4L168.4 142.1Q168.4 142.9 167.9 143.3Q167.5 143.8 166.7 143.8L166.7 143.8Q166 143.8 165.5 143.3Q165.0 142.9 165.0 142.1L165.0 142.1L165.0 140.5L165.0 140.5Q164.3 142.0 163 142.9Q161.7 143.8 159.8 143.8ZM160.7 140.9L160.7 140.9Q162.7 140.9 163.9 139.4Q165.0 137.8 165.0 135.3L165.0 135.3Q165.0 132.7 163.9 131.2Q162.7 129.6 160.7 129.6L160.7 129.6Q158.7 129.6 157.5 131.1Q156.4 132.7 156.4 135.3L156.4 135.3Q156.4 137.9 157.5 139.4Q158.7 140.9 160.7 140.9ZM176.7 143.8L176.7 143.8Q174.3 143.8 172.7 142.4Q171.2 141 171.2 138.8L171.2 138.8Q171.2 136.6 172.8 135.4Q174.4 134.1 177.3 133.9L177.3 133.9L181.8 133.7L181.8 132.4Q181.8 131.0 180.9 130.3Q180.1 129.5 178.5 129.5L178.5 129.5Q177.3 129.5 176.4 130.0Q175.6 130.5 174.9 131.6L174.9 131.6Q174.4 132.3 173.5 132.3L173.5 132.3Q172.9 132.3 172.5 131.9Q172.0 131.5 172.0 130.9L172.0 130.9Q172.0 130.3 172.3 129.8L172.3 129.8Q173.0 128.4 174.7 127.6Q176.4 126.7 178.6 126.7L178.6 126.7Q181.6 126.7 183.4 128.2Q185.2 129.7 185.2 132.1L185.2 132.1L185.2 142.1Q185.2 142.8 184.7 143.3Q184.3 143.8 183.5 143.8L183.5 143.8Q182.8 143.8 182.4 143.3Q182.0 142.9 181.9 142.2L181.9 142.2L181.9 140.8L181.9 140.8Q181.2 142.1 179.7 142.9Q178.3 143.8 176.7 143.8ZM177.6 141.1L177.6 141.1Q179.4 141.1 180.6 140.0Q181.8 138.9 181.8 137.3L181.8 137.3L181.8 136.0L177.8 136.3Q176.2 136.4 175.4 137.0Q174.6 137.6 174.6 138.7L174.6 138.7Q174.6 139.8 175.4 140.4Q176.3 141.1 177.6 141.1ZM190.5 149.6L190.5 149.6Q189.3 149.6 188.7 149.2Q188.0 148.8 188.0 148.0L188.0 148.0Q188.0 147.4 188.4 147.1Q188.8 146.8 189.4 146.8L189.4 146.8Q189.5 146.8 189.8 146.8Q190.0 146.8 190.2 146.8L190.2 146.8Q191.9 146.8 192.7 144.6L192.7 144.6L193.0 143.6L187.5 129.3Q187.4 128.7 187.4 128.3L187.4 128.3Q187.4 127.6 187.8 127.2Q188.3 126.7 189.1 126.7L189.1 126.7Q189.7 126.7 190.1 127.0Q190.5 127.3 190.7 128.0L190.7 128.0L194.9 140.4L194.9 140.4L199.1 128.0Q199.3 127.3 199.7 127.0Q200.1 126.7 200.8 126.7L200.8 126.7Q201.5 126.7 201.9 127.2Q202.4 127.6 202.4 128.3L202.4 128.3Q202.4 128.7 202.2 129.2L202.2 129.2L196.5 144.3Q195.4 147.3 194.1 148.4Q192.8 149.6 190.5 149.6ZM207.2 139.7L207.2 139.7Q207.9 139.7 208.3 140.0Q208.7 140.4 208.7 141.1L208.7 141.1Q208.7 141.5 208.6 142.0L208.6 142.0L207.3 147.3Q207.0 148.5 205.8 148.5L205.8 148.5Q205.2 148.5 204.9 148.1Q204.5 147.8 204.5 147.3L204.5 147.3Q204.5 147.1 204.5 146.9L204.5 146.9L205.5 141.1Q205.8 139.7 207.2 139.7Z M228.1 143.9L228.1 143.9Q225.5 143.9 223.5 142.6Q221.5 141.3 220.4 138.9L220.4 138.9Q219.2 136.3 219.2 132.5L219.2 132.5Q219.2 126.8 221.6 123.7Q224.0 120.5 228.2 120.5L228.2 120.5Q230.6 120.5 232.4 121.5Q234.3 122.4 235.2 124.1L235.2 124.1Q235.6 124.8 235.6 125.4L235.6 125.4Q235.6 126.0 235.1 126.4Q234.7 126.8 234.0 126.8L234.0 126.8Q233.5 126.8 233.1 126.6Q232.8 126.3 232.3 125.7L232.3 125.7Q230.8 123.4 228.2 123.4L228.2 123.4Q225.5 123.4 224.1 125.7Q222.7 128.0 222.6 132.1L222.6 132.1L222.6 132.3L222.7 132.3Q223.4 130.7 225.0 129.7Q226.7 128.7 228.9 128.7L228.9 128.7Q232.1 128.7 234.2 130.8Q236.3 132.9 236.3 136.1L236.3 136.1Q236.3 139.5 234 141.7Q231.7 143.9 228.1 143.9ZM228.0 141.0L228.0 141.0Q230.1 141.0 231.5 139.6Q232.8 138.2 232.8 136.2L232.8 136.2Q232.8 134.2 231.5 132.8Q230.2 131.5 228.1 131.5Q226.0 131.5 224.6 132.8Q223.3 134.1 223.3 136.1L223.3 136.1Q223.3 138.2 224.7 139.6Q226.0 141.0 228.0 141.0Z M249.0 143.2Q248.6 143.7 247.8 143.7Q247 143.7 246.5 143.2Q246.1 142.8 246.1 141.9L246.1 141.9L246.1 122.6Q246.1 121.7 246.6 121.2Q247.1 120.7 248.0 120.7L248.0 120.7Q248.6 120.7 249.0 120.9Q249.4 121.2 249.9 121.8L249.9 121.8L261.0 137.5L261.1 137.5L261.1 122.5Q261.1 121.6 261.5 121.1Q262 120.7 262.8 120.7L262.8 120.7Q263.6 120.7 264.0 121.1Q264.5 121.6 264.5 122.5L264.5 122.5L264.5 141.9Q264.5 142.8 264 143.2Q263.5 143.7 262.6 143.7L262.6 143.7Q262 143.7 261.6 143.5Q261.2 143.3 260.8 142.6L260.8 142.6L249.6 126.9L249.5 126.9L249.5 141.9Q249.5 142.8 249.0 143.2ZM281.0 141.5Q278.8 143.8 275.3 143.8Q271.8 143.8 269.6 141.5Q267.5 139.2 267.5 135.3L267.5 135.3Q267.5 131.3 269.6 129.0Q271.8 126.7 275.3 126.7Q278.8 126.7 281.0 129.0Q283.1 131.3 283.1 135.3L283.1 135.3Q283.1 139.2 281.0 141.5ZM275.3 141L275.3 141Q277.3 141 278.5 139.5Q279.7 138.0 279.7 135.3L279.7 135.3Q279.7 132.5 278.5 131.0Q277.3 129.5 275.3 129.5Q273.3 129.5 272.1 131.0Q270.9 132.5 270.9 135.3L270.9 135.3Q270.9 138.0 272.1 139.5Q273.3 141 275.3 141ZM292.0 143.8L292.0 143.8Q291.1 143.8 290.6 143.4Q290.1 143.0 289.7 142.0L289.7 142.0L284.8 129.2Q284.6 128.7 284.6 128.3L284.6 128.3Q284.6 127.6 285.1 127.2Q285.6 126.7 286.3 126.7L286.3 126.7Q287.5 126.7 287.9 128.1L287.9 128.1L292.0 140.2L292.1 140.2L296.2 128.0Q296.6 126.7 297.7 126.7L297.7 126.7Q298.5 126.7 298.9 127.2Q299.4 127.6 299.4 128.3L299.4 128.3Q299.4 128.7 299.2 129.2L299.2 129.2L294.3 142.0Q294.0 142.9 293.5 143.4Q292.9 143.8 292.0 143.8ZM308.8 143.8L308.8 143.8Q305.1 143.8 303.0 141.5Q300.9 139.3 300.9 135.3L300.9 135.3Q300.9 131.4 303.0 129.1Q305.1 126.7 308.6 126.7L308.6 126.7Q311.8 126.7 313.9 128.9Q316.0 131 316.0 134.4L316.0 134.4Q316.0 135.2 315.5 135.6Q315.1 136.1 314.3 136.1L314.3 136.1L304.3 136.1L304.3 136.2Q304.3 138.4 305.5 139.7Q306.7 141.0 308.7 141.0L308.7 141.0Q310.1 141.0 311.1 140.5Q312.0 140.0 313.0 138.7L313.0 138.7Q313.5 138.1 314.2 138.1L314.2 138.1Q314.8 138.1 315.2 138.5Q315.6 138.9 315.6 139.5L315.6 139.5Q315.6 139.8 315.3 140.4L315.3 140.4Q314.5 142 312.8 142.9Q311.1 143.8 308.8 143.8ZM304.4 133.7L304.4 133.7L312.6 133.7Q312.5 131.8 311.4 130.6Q310.3 129.5 308.5 129.5L308.5 129.5Q306.8 129.5 305.6 130.6Q304.5 131.8 304.4 133.7ZM321.5 143.3Q321.0 143.8 320.3 143.8Q319.5 143.8 319.0 143.3Q318.6 142.8 318.6 142.0L318.6 142.0L318.6 128.5Q318.6 127.7 319.0 127.2Q319.5 126.7 320.2 126.7Q320.9 126.7 321.3 127.2Q321.8 127.7 321.8 128.5L321.8 128.5L321.8 129.8L321.9 129.8Q322.4 128.4 323.7 127.6Q324.9 126.8 326.5 126.8L326.5 126.8Q328.2 126.8 329.4 127.6Q330.6 128.4 331.1 130.0L331.1 130.0L331.2 130.0Q331.8 128.5 333.2 127.6Q334.6 126.8 336.3 126.8L336.3 126.8Q338.8 126.8 340.2 128.2Q341.7 129.7 341.7 132.2L341.7 132.2L341.7 142.0Q341.7 142.8 341.2 143.3Q340.8 143.8 340 143.8Q339.2 143.8 338.8 143.3Q338.3 142.8 338.3 142.0L338.3 142.0L338.3 133.0Q338.3 131.4 337.5 130.5Q336.7 129.6 335.2 129.6Q333.7 129.6 332.7 130.6Q331.8 131.6 331.8 133.2L331.8 133.2L331.8 142.0Q331.8 142.8 331.3 143.3Q330.9 143.8 330.1 143.8Q329.4 143.8 328.9 143.3Q328.5 142.8 328.5 142.0L328.5 142.0L328.5 132.7Q328.5 131.3 327.6 130.5Q326.8 129.6 325.4 129.6L325.4 129.6Q323.9 129.6 322.9 130.7Q321.9 131.7 321.9 133.3L321.9 133.3L321.9 142.0Q321.9 142.8 321.5 143.3ZM346.7 143.8L346.7 143.8Q346.0 143.8 345.5 143.3Q345.1 142.9 345.1 142.1L345.1 142.1L345.1 122.4Q345.1 121.6 345.5 121.1Q346.0 120.6 346.8 120.6Q347.5 120.6 348.0 121.1Q348.5 121.6 348.5 122.4L348.5 122.4L348.5 129.8L348.5 129.8Q349.3 128.4 350.6 127.6Q352 126.8 353.7 126.8L353.7 126.8Q356.8 126.8 358.7 129.1Q360.6 131.4 360.6 135.3L360.6 135.3Q360.6 139.2 358.7 141.5Q356.8 143.8 353.7 143.8L353.7 143.8Q351.9 143.8 350.6 142.9Q349.2 142.1 348.4 140.7L348.4 140.7L348.4 140.7L348.4 142.1Q348.4 142.9 347.9 143.3Q347.4 143.8 346.7 143.8ZM352.8 140.9L352.8 140.9Q354.8 140.9 356.0 139.4Q357.1 137.9 357.1 135.3L357.1 135.3Q357.1 132.7 355.9 131.1Q354.8 129.6 352.8 129.6L352.8 129.6Q350.9 129.6 349.7 131.2Q348.4 132.7 348.4 135.3L348.4 135.3Q348.4 137.8 349.7 139.3Q350.9 140.9 352.8 140.9ZM370.3 143.8L370.3 143.8Q366.6 143.8 364.5 141.5Q362.5 139.3 362.5 135.3L362.5 135.3Q362.5 131.4 364.5 129.1Q366.6 126.7 370.1 126.7L370.1 126.7Q373.4 126.7 375.4 128.9Q377.5 131 377.5 134.4L377.5 134.4Q377.5 135.2 377.0 135.6Q376.6 136.1 375.8 136.1L375.8 136.1L365.9 136.1L365.9 136.2Q365.9 138.4 367.0 139.7Q368.2 141.0 370.2 141.0L370.2 141.0Q371.6 141.0 372.6 140.5Q373.5 140.0 374.5 138.7L374.5 138.7Q375.0 138.1 375.7 138.1L375.7 138.1Q376.3 138.1 376.7 138.5Q377.1 138.9 377.1 139.5L377.1 139.5Q377.1 139.8 376.8 140.4L376.8 140.4Q376.0 142 374.3 142.9Q372.6 143.8 370.3 143.8ZM365.9 133.7L365.9 133.7L374.1 133.7Q374.0 131.8 372.9 130.6Q371.8 129.5 370.1 129.5L370.1 129.5Q368.3 129.5 367.2 130.6Q366 131.8 365.9 133.7ZM381.8 143.8L381.8 143.8Q381 143.8 380.5 143.3Q380.1 142.8 380.1 142.0L380.1 142.0L380.1 128.4Q380.1 127.7 380.5 127.2Q381.0 126.7 381.7 126.7L381.7 126.7Q382.4 126.7 382.8 127.2Q383.3 127.7 383.3 128.4L383.3 128.4L383.3 129.8L383.4 129.8Q383.7 128.5 384.7 127.6Q385.7 126.8 387.0 126.8L387.0 126.8Q387.9 126.8 388.3 127.2L388.3 127.2Q388.8 127.5 388.8 128.4L388.8 128.4Q388.8 129.1 388.3 129.5L388.3 129.5Q387.8 130.0 386.7 130.0L386.7 130.0Q385.0 130 384.3 131.0Q383.5 132.0 383.5 133.6L383.5 133.6L383.5 142.0Q383.5 142.8 383.0 143.3Q382.5 143.8 381.8 143.8Z M411.2 143.5L398.7 143.5Q398.0 143.5 397.5 143.1Q397.1 142.7 397.1 142L397.1 142Q397.1 141.5 397.3 141.1Q397.5 140.8 398.0 140.2L398.0 140.2L405.1 133.0Q407.3 130.8 408.0 129.6Q408.8 128.4 408.8 127.1L408.8 127.1Q408.8 125.5 407.6 124.4Q406.5 123.4 404.8 123.4L404.8 123.4Q401.5 123.4 400.3 126.7L400.3 126.7Q400.0 127.3 399.7 127.6Q399.3 127.9 398.7 127.9L398.7 127.9Q398 127.9 397.6 127.5Q397.2 127.0 397.2 126.4L397.2 126.4Q397.2 126 397.3 125.6L397.3 125.6Q397.5 124.7 398.0 123.8Q398.6 122.9 399.5 122.2Q400.5 121.4 401.9 121.0Q403.2 120.5 404.8 120.5L404.8 120.5Q408.1 120.5 410.1 122.3Q412.2 124.1 412.2 126.9L412.2 126.9Q412.2 128.8 411.2 130.5Q410.1 132.1 407.2 135.0L407.2 135.0L401.8 140.4L401.8 140.5L411.2 140.5Q411.9 140.5 412.3 140.9Q412.7 141.3 412.7 142L412.7 142Q412.7 142.7 412.3 143.1Q411.9 143.5 411.2 143.5L411.2 143.5ZM430.3 140.7Q428.0 143.9 423.9 143.9Q419.9 143.9 417.6 140.7Q415.3 137.6 415.3 132.2L415.3 132.2Q415.3 126.8 417.6 123.6Q419.9 120.5 423.9 120.5L423.9 120.5Q427.9 120.5 430.2 123.6Q432.5 126.8 432.5 132.2L432.5 132.2Q432.5 137.6 430.3 140.7ZM423.9 141.0L423.9 141.0Q426.3 141.0 427.7 138.6Q429 136.3 429 132.2L429 132.2Q429 128.1 427.7 125.8Q426.3 123.4 423.9 123.4Q421.5 123.4 420.2 125.8Q418.8 128.1 418.8 132.2L418.8 132.2Q418.8 136.3 420.2 138.6Q421.5 141.0 423.9 141.0ZM449.7 143.5L437.2 143.5Q436.5 143.5 436.0 143.1Q435.6 142.7 435.6 142L435.6 142Q435.6 141.5 435.8 141.1Q436.0 140.8 436.5 140.2L436.5 140.2L443.6 133.0Q445.8 130.8 446.5 129.6Q447.3 128.4 447.3 127.1L447.3 127.1Q447.3 125.5 446.1 124.4Q445.0 123.4 443.3 123.4L443.3 123.4Q440.0 123.4 438.8 126.7L438.8 126.7Q438.5 127.3 438.2 127.6Q437.8 127.9 437.2 127.9L437.2 127.9Q436.5 127.9 436.1 127.5Q435.7 127.0 435.7 126.4L435.7 126.4Q435.7 126 435.8 125.6L435.8 125.6Q436.0 124.7 436.5 123.8Q437.1 122.9 438.0 122.2Q439.0 121.4 440.4 121.0Q441.7 120.5 443.3 120.5L443.3 120.5Q446.6 120.5 448.6 122.3Q450.7 124.1 450.7 126.9L450.7 126.9Q450.7 128.8 449.7 130.5Q448.6 132.1 445.7 135.0L445.7 135.0L440.3 140.4L440.3 140.5L449.7 140.5Q450.4 140.5 450.8 140.9Q451.2 141.3 451.2 142L451.2 142Q451.2 142.7 450.8 143.1Q450.4 143.5 449.7 143.5L449.7 143.5ZM462.2 143.9L462.2 143.9Q459.7 143.9 457.7 142.8Q455.7 141.6 454.9 139.8L454.9 139.8Q454.5 139.0 454.5 138.2L454.5 138.2Q454.5 137.5 454.9 137.1Q455.3 136.7 456.1 136.7L456.1 136.7Q456.6 136.7 457.0 137.0Q457.4 137.2 457.6 137.8L457.6 137.8Q458.2 139.3 459.4 140.1Q460.6 141.0 462.3 141.0L462.3 141.0Q464.4 141.0 465.8 139.6Q467.1 138.3 467.1 136.1L467.1 136.1Q467.1 134.0 465.7 132.7Q464.4 131.4 462.3 131.4L462.3 131.4Q460.0 131.4 458.6 132.9L458.6 132.9Q457.9 133.6 457.5 133.9Q457.1 134.1 456.5 134.1L456.5 134.1Q455.7 134.1 455.2 133.6Q454.8 133.0 454.8 132.3L454.8 132.3L454.8 132.0L455.6 123.3Q455.7 122.0 456.3 121.5Q457.0 120.9 458.3 120.9L458.3 120.9L467.8 120.9Q468.5 120.9 469.0 121.3Q469.4 121.7 469.4 122.4Q469.4 123.1 469.0 123.5Q468.5 123.9 467.8 123.9L467.8 123.9L458.6 123.9L458.0 130.9L458.0 130.9Q458.8 129.8 460.1 129.2Q461.4 128.6 463.1 128.6L463.1 128.6Q466.4 128.6 468.4 130.7Q470.5 132.8 470.5 136.0L470.5 136.0Q470.5 139.5 468.2 141.7Q465.9 143.9 462.2 143.9Z " clip-path="url(#satori_cp-id-0)" mask="url(#satori_om-id-0)"/><mask id="satori_om-id-0-0-0-1"><rect x="72" y="175" width="1056" height="221" fill="#fff" mask="url(#satori_om-id-0)"/></mask><path fill="#0f172a" d="M101.2 234.6L80.5 234.6Q78.3 234.6 77 233.3Q75.8 232.0 75.8 229.6L75.8 229.6L75.8 193.8Q75.8 191.4 77 190.1Q78.3 188.8 80.5 188.8Q82.7 188.8 83.9 190.1Q85.2 191.4 85.2 193.8L85.2 193.8L85.2 226.7L101.2 226.7Q103.1 226.7 104.3 227.8Q105.5 228.8 105.5 230.6Q105.5 232.5 104.3 233.5Q103.2 234.6 101.2 234.6L101.2 234.6ZM125.1 235.3L125.1 235.3Q117.3 235.3 112.9 230.7Q108.5 226.1 108.5 218.0L108.5 218.0Q108.5 209.9 112.9 205.1Q117.3 200.3 124.7 200.3L124.7 200.3Q131.8 200.3 136.2 204.7Q140.6 209.1 140.6 215.9L140.6 215.9Q140.6 217.8 139.5 218.9Q138.5 219.9 136.6 219.9L136.6 219.9L117.5 219.9L117.5 220.3Q117.5 224.0 119.5 226.3Q121.6 228.5 125.1 228.5L125.1 228.5Q127.6 228.5 129.4 227.6Q131.3 226.7 133.1 224.5L133.1 224.5Q134.4 223.1 136.1 223.1L136.1 223.1Q137.6 223.1 138.6 224.1Q139.6 225.0 139.6 226.5L139.6 226.5Q139.6 227.6 139 228.7L139 228.7Q137.3 231.8 133.7 233.5Q130.0 235.3 125.1 235.3ZM117.6 214.3L117.6 214.3L131.8 214.3Q131.7 211.0 129.7 209.1Q127.8 207.1 124.8 207.1Q121.8 207.1 119.8 209.1Q117.8 211.1 117.6 214.3ZM155.2 235.1L155.2 235.1Q150.3 235.1 147.1 232.2Q143.9 229.4 143.9 224.9L143.9 224.9Q143.9 220.4 147.3 217.8Q150.7 215.2 157 214.8L157 214.8L165.4 214.3L165.4 212.1Q165.4 209.8 163.9 208.5Q162.4 207.1 159.8 207.1L159.8 207.1Q157.7 207.1 156.3 207.9Q154.8 208.7 153.3 210.7L153.3 210.7Q151.8 212.4 149.7 212.4L149.7 212.4Q148.0 212.4 147.0 211.4Q145.9 210.4 145.9 208.9L145.9 208.9Q145.9 207.8 146.3 206.8L146.3 206.8Q147.5 203.8 151.3 202.1Q155 200.3 160.2 200.3L160.2 200.3Q166.7 200.3 170.5 203.4Q174.4 206.5 174.4 211.5L174.4 211.5L174.4 230.6Q174.4 232.8 173.2 234.0Q172.0 235.2 170.0 235.2L170.0 235.2Q168.1 235.2 166.9 234.2Q165.7 233.1 165.6 231.1L165.6 231.1L165.6 229.4L165.4 229.4Q164.0 232.1 161.2 233.6Q158.4 235.1 155.2 235.1ZM158.2 228.5L158.2 228.5Q161.2 228.5 163.3 226.7Q165.4 225.0 165.4 222.3L165.4 222.3L165.4 219.8L158.4 220.3Q155.8 220.5 154.4 221.6Q153.0 222.6 153.0 224.4L153.0 224.4Q153.0 226.3 154.4 227.4Q155.8 228.5 158.2 228.5ZM184.8 235.2L184.8 235.2Q182.8 235.2 181.5 234.0Q180.3 232.7 180.3 230.5L180.3 230.5L180.3 205.0Q180.3 202.8 181.5 201.6Q182.7 200.4 184.7 200.4L184.7 200.4Q186.6 200.4 187.8 201.6Q189 202.8 189 205.0L189 205.0L189 207.1L189.2 207.1Q189.8 204.1 191.7 202.3Q193.6 200.5 196.2 200.5L196.2 200.5Q198 200.5 199 201.4L199 201.4Q200.3 202.4 200.3 204.7L200.3 204.7Q200.3 206.9 199 208.0L199 208.0Q197.7 209.2 195.0 209.2L195.0 209.2Q192.0 209.2 190.7 210.8Q189.4 212.5 189.4 215.6L189.4 215.6L189.4 230.5Q189.4 232.7 188.2 234.0Q187.0 235.2 184.8 235.2ZM211.4 234.0Q210.2 235.2 208.1 235.2Q206.1 235.2 204.8 234.0Q203.6 232.7 203.6 230.5L203.6 230.5L203.6 205.0Q203.6 202.8 204.7 201.6Q205.9 200.4 208.0 200.4Q210.0 200.4 211.3 201.6Q212.5 202.9 212.5 205.0L212.5 205.0L212.5 206.9L212.7 206.9Q215.5 200.4 223.0 200.4L223.0 200.4Q228.6 200.4 231.6 203.7Q234.7 207.1 234.7 213.0L234.7 213.0L234.7 230.5Q234.7 232.7 233.4 234.0Q232.2 235.2 230.1 235.2Q228.0 235.2 226.8 234.0Q225.5 232.7 225.5 230.5L225.5 230.5L225.5 214.9Q225.5 211.6 224.0 209.8Q222.4 208.0 219.4 208.0Q216.3 208.0 214.5 210.0Q212.7 212.1 212.7 215.3L212.7 215.3L212.7 230.5Q212.7 232.7 211.4 234.0ZM248.6 195.5Q247.2 196.9 245.2 196.9Q243.1 196.9 241.7 195.5Q240.3 194.1 240.3 192.2L240.3 192.2Q240.3 190.2 241.7 188.8Q243.1 187.5 245.2 187.5Q247.2 187.5 248.6 188.8Q250.0 190.2 250.0 192.2L250.0 192.2Q250.0 194.1 248.6 195.5ZM248.5 233.9Q247.3 235.2 245.2 235.2Q243.0 235.2 241.8 233.9Q240.6 232.7 240.6 230.5L240.6 230.5L240.6 205.1Q240.6 202.9 241.8 201.6Q243.0 200.4 245.2 200.4Q247.3 200.4 248.5 201.6Q249.7 202.9 249.7 205.1L249.7 205.1L249.7 230.5Q249.7 232.7 248.5 233.9ZM263.7 234.0Q262.4 235.2 260.3 235.2Q258.3 235.2 257.0 234.0Q255.8 232.7 255.8 230.5L255.8 230.5L255.8 205.0Q255.8 202.8 257.0 201.6Q258.1 200.4 260.2 200.4Q262.3 200.4 263.5 201.6Q264.8 202.9 264.8 205.0L264.8 205.0L264.8 206.9L264.9 206.9Q267.7 200.4 275.3 200.4L275.3 200.4Q280.8 200.4 283.8 203.7Q286.9 207.1 286.9 213.0L286.9 213.0L286.9 230.5Q286.9 232.7 285.6 234.0Q284.4 235.2 282.3 235.2Q280.3 235.2 279 234.0Q277.8 232.7 277.8 230.5L277.8 230.5L277.8 214.9Q277.8 211.6 276.2 209.8Q274.6 208.0 271.6 208.0Q268.6 208.0 266.7 210.0Q264.9 212.1 264.9 215.3L264.9 215.3L264.9 230.5Q264.9 232.7 263.7 234.0ZM307.6 247.1L307.6 247.1Q302.7 247.1 298.9 245.4Q295.2 243.7 293.5 241.0L293.5 241.0Q292.8 239.8 292.8 238.5L292.8 238.5Q292.8 237.0 293.9 236.1Q294.9 235.1 296.6 235.1L296.6 235.1Q298.3 235.1 299.7 236.4L299.7 236.4Q303.5 240.1 307.6 240.1L307.6 240.1Q311.3 240.1 313.4 238.2Q315.5 236.4 315.5 233.2L315.5 233.2L315.5 227.8L315.3 227.8Q314.2 230.6 311.4 232.2Q308.6 233.8 305.0 233.8L305.0 233.8Q298.8 233.8 295.1 229.4Q291.4 224.9 291.4 217.2L291.4 217.2Q291.4 209.4 295.1 204.9Q298.7 200.5 305.2 200.5L305.2 200.5Q308.7 200.5 311.4 202.2Q314.1 203.9 315.4 206.8L315.4 206.8L315.6 206.8L315.6 205.0Q315.6 202.7 316.9 201.6Q318.1 200.4 320.2 200.4L320.2 200.4Q322.2 200.4 323.5 201.6Q324.7 202.7 324.7 205.0L324.7 205.0L324.7 233.2Q324.7 239.8 320.2 243.5Q315.7 247.2 307.6 247.1ZM308.1 227.1L308.1 227.1Q311.6 227.1 313.6 224.5Q315.6 221.9 315.6 217.4Q315.6 212.8 313.6 210.1Q311.6 207.5 308.1 207.5L308.1 207.5Q304.8 207.5 302.8 210.1Q300.8 212.8 300.8 217.3L300.8 217.3Q300.8 221.9 302.8 224.5Q304.7 227.1 308.1 227.1Z M351.4 234.0Q350.3 235.1 348.3 235.1Q346.3 235.1 345.2 234.0Q344.1 232.8 344.1 230.7L344.1 230.7L344.1 194.9Q344.1 192.1 345.7 190.4Q347.3 188.8 350.2 188.8L350.2 188.8Q352.6 188.8 354.1 190.0Q355.6 191.1 356.6 193.7L356.6 193.7L367.8 221.4L368.1 221.4L379.2 193.7Q380.3 191.1 381.8 190.0Q383.3 188.8 385.8 188.8L385.8 188.8Q388.6 188.8 390.2 190.4Q391.8 192.1 391.8 194.9L391.8 194.9L391.8 230.7Q391.8 232.8 390.7 234.0Q389.6 235.1 387.6 235.1Q385.6 235.1 384.5 234.0Q383.4 232.8 383.4 230.7L383.4 230.7L383.4 204.1L383.2 204.1L372 231.4Q370.8 234.3 368.0 234.3L368.0 234.3Q365.0 234.3 363.9 231.4L363.9 231.4L352.7 204.1L352.5 204.1L352.5 230.7Q352.5 232.8 351.4 234.0ZM410.4 235.2L410.4 235.2Q404.9 235.2 401.7 231.8Q398.4 228.5 398.4 222.6L398.4 222.6L398.4 205.1Q398.4 202.9 399.6 201.6Q400.9 200.4 402.9 200.4Q405 200.4 406.3 201.6Q407.5 202.9 407.5 205.1L407.5 205.1L407.5 220.7Q407.5 224.1 409.1 225.8Q410.7 227.6 413.8 227.6Q416.8 227.6 418.6 225.6Q420.3 223.6 420.3 220.2L420.3 220.2L420.3 205.1Q420.3 202.9 421.6 201.6Q422.8 200.4 424.9 200.4Q427.0 200.4 428.2 201.6Q429.5 202.9 429.5 205.1L429.5 205.1L429.5 230.6Q429.5 232.8 428.3 234.0Q427.1 235.2 425.1 235.2Q423.0 235.2 421.8 234.0Q420.7 232.8 420.7 230.6L420.7 230.6L420.7 228.5L420.5 228.5Q417.8 235.2 410.4 235.2ZM443.5 234.0Q442.3 235.2 440.2 235.2Q438.1 235.2 436.9 234.0Q435.6 232.7 435.6 230.5L435.6 230.5L435.6 193.6Q435.6 191.3 436.9 190.0Q438.1 188.8 440.2 188.8Q442.3 188.8 443.5 190.0Q444.8 191.3 444.8 193.6L444.8 193.6L444.8 230.5Q444.8 232.7 443.5 234.0ZM453.3 226.0L453.3 226.0L453.3 207.9L451.6 207.9Q450.0 207.9 449.0 207.0Q448.1 206.1 448.1 204.5Q448.1 202.9 449.0 202.0Q450.0 201.1 451.6 201.1L451.6 201.1L453.3 201.1L453.3 197.3Q453.3 195.1 454.6 193.8Q455.8 192.6 457.9 192.6Q460.0 192.6 461.3 193.8Q462.5 195.1 462.5 197.3L462.5 197.3L462.5 201.1L465.7 201.1Q467.3 201.1 468.3 202.0Q469.2 202.9 469.2 204.5Q469.2 206.1 468.3 207.0Q467.3 207.9 465.7 207.9L465.7 207.9L462.5 207.9L462.5 224.0Q462.5 225.7 463.1 226.6Q463.8 227.4 465.3 227.5L465.3 227.5L465.8 227.6Q467.6 227.7 468.5 228.5Q469.3 229.3 469.3 230.9L469.3 230.9Q469.3 232.8 467.6 233.9Q465.8 234.9 462.8 234.9L462.8 234.9L462.5 234.9Q453.3 234.9 453.3 226.0ZM481.8 195.5Q480.4 196.9 478.4 196.9Q476.3 196.9 474.9 195.5Q473.5 194.1 473.5 192.2L473.5 192.2Q473.5 190.2 474.9 188.8Q476.3 187.5 478.4 187.5Q480.4 187.5 481.8 188.8Q483.3 190.2 483.3 192.2L483.3 192.2Q483.3 194.1 481.8 195.5ZM481.7 233.9Q480.5 235.2 478.4 235.2Q476.3 235.2 475.0 233.9Q473.8 232.7 473.8 230.5L473.8 230.5L473.8 205.1Q473.8 202.9 475.0 201.6Q476.3 200.4 478.4 200.4Q480.5 200.4 481.7 201.6Q482.9 202.9 482.9 205.1L482.9 205.1L482.9 230.5Q482.9 232.7 481.7 233.9ZM506.7 220.2L493.7 220.2Q491.8 220.2 490.5 219.1Q489.3 218.1 489.3 216.2Q489.3 214.4 490.5 213.3Q491.8 212.2 493.7 212.2L493.7 212.2L506.7 212.2Q508.6 212.2 509.8 213.3Q511 214.4 511 216.2Q511 218.1 509.8 219.1Q508.6 220.2 506.7 220.2L506.7 220.2ZM525.4 234.0Q524.3 235.1 522.3 235.1Q520.3 235.1 519.2 234.0Q518.1 232.8 518.1 230.7L518.1 230.7L518.1 194.9Q518.1 192.1 519.7 190.4Q521.3 188.8 524.2 188.8L524.2 188.8Q526.6 188.8 528.1 190.0Q529.6 191.1 530.6 193.7L530.6 193.7L541.8 221.4L542.1 221.4L553.2 193.7Q554.3 191.1 555.8 190.0Q557.3 188.8 559.8 188.8L559.8 188.8Q562.6 188.8 564.2 190.4Q565.8 192.1 565.8 194.9L565.8 194.9L565.8 230.7Q565.8 232.8 564.7 234.0Q563.6 235.1 561.6 235.1Q559.6 235.1 558.5 234.0Q557.4 232.8 557.4 230.7L557.4 230.7L557.4 204.1L557.2 204.1L546 231.4Q544.8 234.3 542.0 234.3L542.0 234.3Q539.0 234.3 537.9 231.4L537.9 231.4L526.7 204.1L526.5 204.1L526.5 230.7Q526.5 232.8 525.4 234.0ZM600.0 230.6Q595.6 235.3 587.9 235.3Q580.3 235.3 575.8 230.6Q571.3 226.0 571.3 217.8L571.3 217.8Q571.3 209.7 575.8 205.0Q580.3 200.3 587.9 200.3L587.9 200.3Q595.5 200.3 600 205.0Q604.5 209.7 604.5 217.8L604.5 217.8Q604.5 226.0 600.0 230.6ZM587.9 228.3L587.9 228.3Q591.3 228.3 593.3 225.6Q595.2 222.8 595.2 217.8L595.2 217.8Q595.2 212.9 593.3 210.1Q591.3 207.3 587.9 207.3Q584.5 207.3 582.5 210.1Q580.6 212.9 580.6 217.8L580.6 217.8Q580.6 222.8 582.5 225.6Q584.5 228.3 587.9 228.3ZM621.6 235.1L621.6 235.1Q615.3 235.1 611.7 230.4Q608.0 225.8 608.0 217.7L608.0 217.7Q608.0 209.8 611.7 205.1Q615.4 200.5 621.7 200.5L621.7 200.5Q625.3 200.5 628.0 202.2Q630.7 204.0 631.9 206.8L631.9 206.8L632.1 206.8L632.1 193.6Q632.1 191.3 633.3 190.0Q634.6 188.8 636.7 188.8Q638.7 188.8 640.0 190.0Q641.2 191.3 641.2 193.6L641.2 193.6L641.2 230.6Q641.2 232.8 640.0 234.0Q638.8 235.2 636.7 235.2L636.7 235.2Q634.7 235.2 633.4 234.0Q632.1 232.8 632.1 230.6L632.1 230.6L632.1 228.6L631.9 228.6Q630.8 231.6 628.1 233.3Q625.4 235.1 621.6 235.1ZM624.7 227.7L624.7 227.7Q628.1 227.7 630.1 225.1Q632.2 222.4 632.2 217.8L632.2 217.8Q632.2 213.2 630.1 210.5Q628.1 207.8 624.7 207.8L624.7 207.8Q621.3 207.8 619.3 210.5Q617.3 213.2 617.3 217.8L617.3 217.8Q617.3 222.4 619.3 225.1Q621.3 227.7 624.7 227.7ZM657.2 235.1L657.2 235.1Q652.4 235.1 649.2 232.2Q646 229.4 646 224.9L646 224.9Q646 220.4 649.4 217.8Q652.8 215.2 659.1 214.8L659.1 214.8L667.5 214.3L667.5 212.1Q667.5 209.8 666.0 208.5Q664.5 207.1 661.9 207.1L661.9 207.1Q659.8 207.1 658.3 207.9Q656.9 208.7 655.4 210.7L655.4 210.7Q653.9 212.4 651.8 212.4L651.8 212.4Q650.1 212.4 649.0 211.4Q647.9 210.4 647.9 208.9L647.9 208.9Q647.9 207.8 648.4 206.8L648.4 206.8Q649.6 203.8 653.3 202.1Q657.1 200.3 662.3 200.3L662.3 200.3Q668.7 200.3 672.6 203.4Q676.5 206.5 676.5 211.5L676.5 211.5L676.5 230.6Q676.5 232.8 675.3 234.0Q674.0 235.2 672.0 235.2L672.0 235.2Q670.1 235.2 669.0 234.2Q667.8 233.1 667.7 231.1L667.7 231.1L667.7 229.4L667.5 229.4Q666.1 232.1 663.3 233.6Q660.4 235.1 657.2 235.1ZM660.2 228.5L660.2 228.5Q663.3 228.5 665.4 226.7Q667.5 225.0 667.5 222.3L667.5 222.3L667.5 219.8L660.4 220.3Q657.9 220.5 656.5 221.6Q655.1 222.6 655.1 224.4L655.1 224.4Q655.1 226.3 656.5 227.4Q657.9 228.5 660.2 228.5ZM690.4 234.0Q689.2 235.2 687.1 235.2Q685.1 235.2 683.8 234.0Q682.6 232.7 682.6 230.5L682.6 230.5L682.6 193.6Q682.6 191.3 683.8 190.0Q685.1 188.8 687.1 188.8Q689.2 188.8 690.4 190.0Q691.7 191.3 691.7 193.6L691.7 193.6L691.7 230.5Q691.7 232.7 690.4 234.0Z M728.8 234.0Q727.5 235.1 725.3 235.1Q723.0 235.1 721.7 234.0Q720.4 232.9 719.7 230.3L719.7 230.3L710.3 196.2Q709.8 194.4 709.8 193.1L709.8 193.1Q709.8 191.1 711.1 190.0Q712.3 188.8 714.5 188.8L714.5 188.8Q718.2 188.8 719 192.9L719 192.9L725.8 222.1L726 222.1L733.6 193.1Q734.1 190.9 735.3 189.8Q736.5 188.8 738.4 188.8L738.4 188.8Q742.2 188.8 743.3 193.0L743.3 193.0L750.8 222.1L751.1 222.1L757.8 192.9Q758.7 188.8 762.4 188.8L762.4 188.8Q764.6 188.8 765.8 190.0Q767.1 191.1 767.1 193.1L767.1 193.1Q767.1 194.3 766.6 196.2L766.6 196.2L757.1 230.4Q756.4 232.9 755.1 234.0Q753.8 235.1 751.7 235.1L751.7 235.1Q749.4 235.1 748.1 234.0Q746.8 232.9 746.1 230.4L746.1 230.4L738.6 203.7L738.3 203.7L730.8 230.4Q730.1 232.9 728.8 234.0ZM780.4 234.0Q779.1 235.2 777.1 235.2Q775 235.2 773.8 234.0Q772.5 232.7 772.5 230.5L772.5 230.5L772.5 193.5Q772.5 191.3 773.7 190.0Q774.9 188.8 777 188.8L777 188.8Q779.1 188.8 780.3 190.0Q781.5 191.2 781.5 193.5L781.5 193.5L781.5 207.0L781.7 207.0Q783 203.8 785.7 202.1Q788.4 200.4 792.2 200.4L792.2 200.4Q797.7 200.4 800.8 203.8Q803.9 207.1 803.9 213.0L803.9 213.0L803.9 230.5Q803.9 232.7 802.6 234.0Q801.4 235.2 799.3 235.2Q797.3 235.2 796 234.0Q794.8 232.7 794.8 230.5L794.8 230.5L794.8 214.9Q794.8 211.6 793.1 209.8Q791.5 208.0 788.5 208.0L788.5 208.0Q785.3 208.0 783.5 210.0Q781.6 212.1 781.6 215.4L781.6 215.4L781.6 230.5Q781.6 232.7 780.4 234.0ZM837.2 230.6Q832.7 235.3 825.1 235.3Q817.4 235.3 812.9 230.6Q808.5 226.0 808.5 217.8L808.5 217.8Q808.5 209.7 813.0 205.0Q817.5 200.3 825.1 200.3L825.1 200.3Q832.7 200.3 837.2 205.0Q841.7 209.7 841.7 217.8L841.7 217.8Q841.7 226.0 837.2 230.6ZM825.1 228.3L825.1 228.3Q828.4 228.3 830.4 225.6Q832.4 222.8 832.4 217.8L832.4 217.8Q832.4 212.9 830.4 210.1Q828.4 207.3 825.1 207.3Q821.7 207.3 819.7 210.1Q817.7 212.9 817.7 217.8L817.7 217.8Q817.7 222.8 819.7 225.6Q821.7 228.3 825.1 228.3ZM854.4 234.0Q853.2 235.2 851.1 235.2Q849.1 235.2 847.8 234.0Q846.6 232.7 846.6 230.5L846.6 230.5L846.6 193.6Q846.6 191.3 847.8 190.0Q849.1 188.8 851.1 188.8Q853.2 188.8 854.4 190.0Q855.7 191.3 855.7 193.6L855.7 193.6L855.7 230.5Q855.7 232.7 854.4 234.0ZM877.3 235.3L877.3 235.3Q869.4 235.3 865.0 230.7Q860.6 226.1 860.6 218.0L860.6 218.0Q860.6 209.9 865 205.1Q869.4 200.3 876.8 200.3L876.8 200.3Q883.9 200.3 888.3 204.7Q892.7 209.1 892.7 215.9L892.7 215.9Q892.7 217.8 891.7 218.9Q890.6 219.9 888.7 219.9L888.7 219.9L869.6 219.9L869.6 220.3Q869.6 224.0 871.7 226.3Q873.8 228.5 877.2 228.5L877.2 228.5Q879.7 228.5 881.5 227.6Q883.4 226.7 885.2 224.5L885.2 224.5Q886.5 223.1 888.2 223.1L888.2 223.1Q889.7 223.1 890.7 224.1Q891.8 225.0 891.8 226.5L891.8 226.5Q891.8 227.6 891.1 228.7L891.1 228.7Q889.5 231.8 885.8 233.5Q882.1 235.3 877.3 235.3ZM869.7 214.3L869.7 214.3L883.9 214.3Q883.8 211.0 881.8 209.1Q879.9 207.1 876.9 207.1Q873.9 207.1 871.9 209.1Q869.9 211.1 869.7 214.3ZM915.1 220.2L902.0 220.2Q900.1 220.2 898.9 219.1Q897.7 218.1 897.7 216.2Q897.7 214.4 898.9 213.3Q900.1 212.2 902.0 212.2L902.0 212.2L915.1 212.2Q917.0 212.2 918.2 213.3Q919.4 214.4 919.4 216.2Q919.4 218.1 918.2 219.1Q917.0 220.2 915.1 220.2L915.1 220.2ZM946.4 234.6L931.2 234.6Q928.9 234.6 927.7 233.3Q926.4 232.0 926.4 229.6L926.4 229.6L926.4 194.4Q926.4 192.1 927.7 190.8Q928.9 189.5 931.2 189.5L931.2 189.5L946.1 189.5Q952.4 189.5 956.1 192.5Q959.8 195.5 959.8 200.7L959.8 200.7Q959.8 204.4 957.4 207.2Q955 210.0 951.4 210.5L951.4 210.5L951.4 210.7Q956 211.1 959 214.1Q962 217.2 962 221.6L962 221.6Q962 227.6 957.8 231.1Q953.6 234.6 946.4 234.6L946.4 234.6ZM935.9 196.5L935.9 208.2L942.7 208.2Q946.4 208.2 948.5 206.6Q950.6 205.1 950.6 202.2L950.6 202.2Q950.6 199.5 948.8 198.0Q946.9 196.5 943.6 196.5L943.6 196.5L935.9 196.5ZM935.9 214.4L935.9 227.5L944 227.5Q948.1 227.5 950.2 225.8Q952.4 224.1 952.4 220.9L952.4 220.9Q952.4 217.7 950.2 216.1Q948.0 214.4 943.8 214.4L943.8 214.4L935.9 214.4ZM994.1 230.6Q989.6 235.3 982.0 235.3Q974.3 235.3 969.8 230.6Q965.4 226.0 965.4 217.8L965.4 217.8Q965.4 209.7 969.9 205.0Q974.4 200.3 982.0 200.3L982.0 200.3Q989.6 200.3 994.1 205.0Q998.6 209.7 998.6 217.8L998.6 217.8Q998.6 226.0 994.1 230.6ZM982.0 228.3L982.0 228.3Q985.3 228.3 987.3 225.6Q989.3 222.8 989.3 217.8L989.3 217.8Q989.3 212.9 987.3 210.1Q985.3 207.3 982.0 207.3Q978.6 207.3 976.6 210.1Q974.6 212.9 974.6 217.8L974.6 217.8Q974.6 222.8 976.6 225.6Q978.6 228.3 982.0 228.3ZM1015.7 235.1L1015.7 235.1Q1009.4 235.1 1005.7 230.4Q1002.0 225.8 1002.0 217.7L1002.0 217.7Q1002.0 209.8 1005.7 205.1Q1009.4 200.5 1015.8 200.5L1015.8 200.5Q1019.3 200.5 1022.0 202.2Q1024.7 204.0 1026.0 206.8L1026.0 206.8L1026.2 206.8L1026.2 193.6Q1026.2 191.3 1027.4 190.0Q1028.7 188.8 1030.7 188.8Q1032.8 188.8 1034.0 190.0Q1035.3 191.3 1035.3 193.6L1035.3 193.6L1035.3 230.6Q1035.3 232.8 1034.0 234.0Q1032.8 235.2 1030.8 235.2L1030.8 235.2Q1028.7 235.2 1027.4 234.0Q1026.2 232.8 1026.2 230.6L1026.2 230.6L1026.2 228.6L1026 228.6Q1024.9 231.6 1022.2 233.3Q1019.4 235.1 1015.7 235.1ZM1018.8 227.7L1018.8 227.7Q1022.2 227.7 1024.2 225.1Q1026.2 222.4 1026.2 217.8L1026.2 217.8Q1026.2 213.2 1024.2 210.5Q1022.2 207.8 1018.8 207.8L1018.8 207.8Q1015.3 207.8 1013.4 210.5Q1011.4 213.2 1011.4 217.8L1011.4 217.8Q1011.4 222.4 1013.4 225.1Q1015.3 227.7 1018.8 227.7ZM1047.1 247.0L1047.1 247.0Q1044.1 247.0 1042.5 245.8Q1040.9 244.7 1040.9 242.7L1040.9 242.7Q1040.9 241.3 1041.8 240.5Q1042.7 239.7 1044.3 239.7L1044.3 239.7Q1044.6 239.7 1045.0 239.7Q1045.5 239.7 1045.8 239.7L1045.8 239.7Q1048.8 239.7 1050.3 236.7L1050.3 236.7L1050.7 235.5L1040.0 207.3Q1039.5 205.9 1039.5 204.6L1039.5 204.6Q1039.5 202.8 1040.8 201.6Q1042.2 200.4 1044.2 200.4L1044.2 200.4Q1046.0 200.4 1047.0 201.2Q1048.1 202.1 1048.6 204.1L1048.6 204.1L1055.9 227.2L1056.1 227.2L1063.3 204.0Q1063.9 202.1 1065.0 201.2Q1066 200.4 1067.8 200.4L1067.8 200.4Q1069.7 200.4 1071.0 201.5Q1072.2 202.7 1072.2 204.5L1072.2 204.5Q1072.2 205.8 1071.7 207.2L1071.7 207.2L1061.4 235.1Q1059.1 241.6 1055.8 244.3Q1052.6 247.0 1047.1 247.0Z M95.8 308.9L95.8 308.9Q85.8 308.9 80.1 302.7Q74.3 296.5 74.3 285.6L74.3 285.6Q74.3 274.7 80.1 268.5Q85.8 262.3 95.6 262.3L95.6 262.3Q101.9 262.3 106.6 265.0Q111.3 267.6 113.7 272.5L113.7 272.5Q114.6 274.3 114.6 276.1L114.6 276.1Q114.6 277.9 113.5 279.0Q112.3 280.1 110.4 280.1L110.4 280.1Q108.8 280.1 107.8 279.4Q106.7 278.6 105.9 277.0L105.9 277.0Q104.4 273.6 101.8 271.8Q99.1 270.1 95.7 270.1L95.7 270.1Q90.3 270.1 87.2 274.3Q84.0 278.5 84.0 285.6L84.0 285.6Q84.0 292.8 87.1 296.9Q90.3 301.1 95.7 301.1L95.7 301.1Q103.1 301.1 106.1 294.4L106.1 294.4Q106.8 292.8 107.8 292.1Q108.7 291.5 110.2 291.5L110.2 291.5Q112.2 291.5 113.4 292.6Q114.6 293.8 114.6 295.6L114.6 295.6Q114.6 297.1 113.9 298.8L113.9 298.8Q111.8 303.5 107 306.2Q102.2 308.9 95.8 308.9ZM148.1 304.2Q143.6 308.9 135.9 308.9Q128.3 308.9 123.8 304.2Q119.3 299.6 119.3 291.4L119.3 291.4Q119.3 283.3 123.9 278.6Q128.4 273.9 135.9 273.9L135.9 273.9Q143.5 273.9 148.0 278.6Q152.5 283.3 152.5 291.4L152.5 291.4Q152.5 299.6 148.1 304.2ZM135.9 301.9L135.9 301.9Q139.3 301.9 141.3 299.1Q143.3 296.4 143.3 291.4L143.3 291.4Q143.3 286.5 141.3 283.7Q139.3 280.9 135.9 280.9Q132.6 280.9 130.6 283.7Q128.6 286.5 128.6 291.4L128.6 291.4Q128.6 296.4 130.6 299.1Q132.5 301.9 135.9 301.9ZM165.1 307.6Q163.8 308.8 161.8 308.8Q159.7 308.8 158.5 307.6Q157.2 306.3 157.2 304.1L157.2 304.1L157.2 278.6Q157.2 276.4 158.4 275.2Q159.6 274.0 161.6 274.0Q163.7 274.0 164.9 275.2Q166.2 276.5 166.2 278.6L166.2 278.6L166.2 280.5L166.4 280.5Q169.1 274.0 176.7 274.0L176.7 274.0Q182.3 274.0 185.3 277.3Q188.3 280.6 188.3 286.6L188.3 286.6L188.3 304.1Q188.3 306.3 187.1 307.6Q185.8 308.8 183.8 308.8Q181.7 308.8 180.4 307.6Q179.2 306.3 179.2 304.1L179.2 304.1L179.2 288.5Q179.2 285.1 177.6 283.4Q176.1 281.6 173.0 281.6Q170 281.6 168.2 283.6Q166.3 285.6 166.3 288.9L166.3 288.9L166.3 304.1Q166.3 306.3 165.1 307.6ZM196.5 299.6L196.5 299.6L196.5 281.5L194.8 281.5Q193.2 281.5 192.2 280.6Q191.3 279.7 191.3 278.1Q191.3 276.5 192.2 275.6Q193.2 274.6 194.8 274.6L194.8 274.6L196.5 274.6L196.5 270.9Q196.5 268.7 197.8 267.4Q199.0 266.2 201.1 266.2Q203.2 266.2 204.4 267.4Q205.7 268.7 205.7 270.9L205.7 270.9L205.7 274.6L208.9 274.6Q210.5 274.6 211.4 275.6Q212.4 276.5 212.4 278.1Q212.4 279.6 211.4 280.6Q210.5 281.5 208.9 281.5L208.9 281.5L205.7 281.5L205.7 297.6Q205.7 299.3 206.3 300.1Q207.0 301.0 208.4 301.1L208.4 301.1L209.0 301.1Q210.8 301.3 211.6 302.1Q212.5 302.9 212.5 304.5L212.5 304.5Q212.5 306.4 210.8 307.5Q209 308.5 206.0 308.5L206.0 308.5L205.7 308.5Q196.5 308.5 196.5 299.6ZM221.4 308.8L221.4 308.8Q219.3 308.8 218.1 307.6Q216.8 306.3 216.8 304.1L216.8 304.1L216.8 278.6Q216.8 276.4 218.0 275.2Q219.3 274.0 221.3 274.0L221.3 274.0Q223.2 274.0 224.4 275.2Q225.6 276.4 225.6 278.6L225.6 278.6L225.6 280.7L225.8 280.7Q226.4 277.6 228.3 275.9Q230.2 274.1 232.7 274.1L232.7 274.1Q234.6 274.1 235.6 275.0L235.6 275.0Q236.9 276.0 236.9 278.3L236.9 278.3Q236.9 280.5 235.6 281.6L235.6 281.6Q234.2 282.8 231.6 282.8L231.6 282.8Q228.6 282.8 227.3 284.4Q226.0 286.1 226.0 289.2L226.0 289.2L226.0 304.1Q226.0 306.3 224.8 307.6Q223.5 308.8 221.4 308.8ZM267.6 304.2Q263.2 308.9 255.5 308.9Q247.8 308.9 243.4 304.2Q238.9 299.6 238.9 291.4L238.9 291.4Q238.9 283.3 243.4 278.6Q247.9 273.9 255.5 273.9L255.5 273.9Q263.1 273.9 267.6 278.6Q272.1 283.3 272.1 291.4L272.1 291.4Q272.1 299.6 267.6 304.2ZM255.5 301.9L255.5 301.9Q258.9 301.9 260.8 299.1Q262.8 296.4 262.8 291.4L262.8 291.4Q262.8 286.5 260.8 283.7Q258.9 280.9 255.5 280.9Q252.1 280.9 250.1 283.7Q248.2 286.5 248.2 291.4L248.2 291.4Q248.2 296.4 250.1 299.1Q252.1 301.9 255.5 301.9ZM284.9 307.6Q283.6 308.8 281.6 308.8Q279.5 308.8 278.3 307.6Q277 306.3 277 304.1L277 304.1L277 267.1Q277 264.9 278.3 263.6Q279.5 262.4 281.6 262.4Q283.6 262.4 284.9 263.6Q286.1 264.9 286.1 267.1L286.1 267.1L286.1 304.1Q286.1 306.3 284.9 307.6Z M315.3 307.6Q314.0 308.8 311.9 308.8Q309.8 308.8 308.6 307.6Q307.4 306.4 307.4 304.1L307.4 304.1L307.4 281.5L305.6 281.5Q304.2 281.5 303.2 280.6Q302.3 279.7 302.3 278.1Q302.3 276.6 303.2 275.7Q304.2 274.8 305.6 274.8L305.6 274.8L307.4 274.8L307.4 272.3Q307.4 267.4 309.8 265.0Q312.1 262.7 316.9 262.6L316.9 262.6Q320.4 262.6 322.1 263.6Q323.8 264.6 323.8 266.3L323.8 266.3Q323.8 268.2 322.0 268.7L322.0 268.7Q321.1 269.0 320.2 269.0L320.2 269.0Q318.1 269.1 317.2 269.9Q316.3 270.8 316.3 272.7L316.3 272.7L316.3 274.8L320.1 274.8Q321.6 274.8 322.5 275.7Q323.5 276.6 323.5 278.1Q323.5 279.7 322.5 280.6Q321.6 281.5 320.1 281.5L320.1 281.5L316.5 281.5L316.5 304.1Q316.5 306.4 315.3 307.6ZM355.2 304.2Q350.8 308.9 343.1 308.9Q335.4 308.9 331.0 304.2Q326.5 299.6 326.5 291.4L326.5 291.4Q326.5 283.3 331.0 278.6Q335.5 273.9 343.1 273.9L343.1 273.9Q350.7 273.9 355.2 278.6Q359.7 283.3 359.7 291.4L359.7 291.4Q359.7 299.6 355.2 304.2ZM343.1 301.9L343.1 301.9Q346.5 301.9 348.4 299.1Q350.4 296.4 350.4 291.4L350.4 291.4Q350.4 286.5 348.4 283.7Q346.5 280.9 343.1 280.9Q339.7 280.9 337.7 283.7Q335.8 286.5 335.8 291.4L335.8 291.4Q335.8 296.4 337.7 299.1Q339.7 301.9 343.1 301.9ZM368.9 308.8L368.9 308.8Q366.8 308.8 365.6 307.6Q364.4 306.3 364.4 304.1L364.4 304.1L364.4 278.6Q364.4 276.4 365.6 275.2Q366.8 274.0 368.8 274.0L368.8 274.0Q370.7 274.0 371.9 275.2Q373.1 276.4 373.1 278.6L373.1 278.6L373.1 280.7L373.3 280.7Q373.9 277.6 375.8 275.9Q377.7 274.1 380.3 274.1L380.3 274.1Q382.1 274.1 383.1 275.0L383.1 275.0Q384.4 276.0 384.4 278.3L384.4 278.3Q384.4 280.5 383.1 281.6L383.1 281.6Q381.8 282.8 379.1 282.8L379.1 282.8Q376.1 282.8 374.8 284.4Q373.5 286.1 373.5 289.2L373.5 289.2L373.5 304.1Q373.5 306.3 372.3 307.6Q371.1 308.8 368.9 308.8Z M409.3 307.5Q408.0 308.8 405.8 308.8Q403.6 308.8 402.3 307.5Q401.1 306.2 401.1 303.9L401.1 303.9L401.1 268.0Q401.1 265.6 402.3 264.4Q403.6 263.1 405.8 263.1L405.8 263.1L419.6 263.1Q427.3 263.1 431.6 266.9Q435.9 270.7 435.9 277.4L435.9 277.4Q435.9 281.7 433.8 285.1Q431.8 288.4 428.1 290.0L428.1 290.0L434.6 301.2Q435.6 303.0 435.6 304.5L435.6 304.5Q435.6 306.4 434.3 307.6Q432.9 308.8 430.9 308.8L430.9 308.8Q429.2 308.8 428.2 308.1Q427.2 307.3 426.1 305.2L426.1 305.2L418.6 291.6L410.5 291.6L410.5 303.9Q410.5 306.2 409.3 307.5ZM410.5 270.4L410.5 284.8L418.7 284.8Q422.2 284.8 424.2 282.9Q426.2 281.0 426.2 277.6L426.2 277.6Q426.2 274.3 424.1 272.4Q422.1 270.4 418.6 270.4L418.6 270.4L410.5 270.4ZM456.7 308.9L456.7 308.9Q448.8 308.9 444.5 304.3Q440.1 299.7 440.1 291.6L440.1 291.6Q440.1 283.5 444.4 278.7Q448.8 273.9 456.3 273.9L456.3 273.9Q463.3 273.9 467.7 278.3Q472.1 282.6 472.1 289.5L472.1 289.5Q472.1 291.4 471.1 292.5Q470.1 293.5 468.2 293.5L468.2 293.5L449.0 293.5L449.0 293.9Q449.0 297.6 451.1 299.9Q453.2 302.1 456.7 302.1L456.7 302.1Q459.2 302.1 461.0 301.2Q462.8 300.3 464.7 298.1L464.7 298.1Q466.0 296.7 467.6 296.7L467.6 296.7Q469.2 296.7 470.2 297.6Q471.2 298.6 471.2 300.1L471.2 300.1Q471.2 301.1 470.6 302.3L470.6 302.3Q468.9 305.4 465.2 307.1Q461.5 308.9 456.7 308.9ZM449.1 287.9L449.1 287.9L463.3 287.9Q463.2 284.6 461.3 282.6Q459.3 280.7 456.3 280.7Q453.3 280.7 451.4 282.7Q449.4 284.7 449.1 287.9ZM486.7 308.7L486.7 308.7Q481.9 308.7 478.7 305.8Q475.5 303.0 475.5 298.5L475.5 298.5Q475.5 294.0 478.9 291.4Q482.3 288.8 488.6 288.4L488.6 288.4L497 287.9L497 285.7Q497 283.4 495.5 282.1Q494.0 280.7 491.4 280.7L491.4 280.7Q489.3 280.7 487.8 281.5Q486.4 282.3 484.9 284.3L484.9 284.3Q483.4 286.0 481.3 286.0L481.3 286.0Q479.6 286.0 478.5 285.0Q477.4 284.0 477.4 282.5L477.4 282.5Q477.4 281.4 477.9 280.4L477.9 280.4Q479.1 277.4 482.8 275.7Q486.6 273.9 491.8 273.9L491.8 273.9Q498.2 273.9 502.1 277.0Q506.0 280.1 506.0 285.1L506.0 285.1L506.0 304.2Q506.0 306.4 504.8 307.6Q503.5 308.8 501.5 308.8L501.5 308.8Q499.6 308.8 498.5 307.8Q497.3 306.7 497.2 304.7L497.2 304.7L497.2 303.0L497.0 303.0Q495.6 305.6 492.8 307.2Q489.9 308.7 486.7 308.7ZM489.7 302.1L489.7 302.1Q492.8 302.1 494.9 300.3Q497 298.6 497 295.9L497 295.9L497 293.4L489.9 293.9Q487.4 294.1 486.0 295.1Q484.6 296.2 484.6 298.0L484.6 298.0Q484.6 299.9 486 301.0Q487.4 302.1 489.7 302.1ZM519.9 307.6Q518.7 308.8 516.6 308.8Q514.6 308.8 513.3 307.6Q512.1 306.3 512.1 304.1L512.1 304.1L512.1 267.1Q512.1 264.9 513.3 263.6Q514.6 262.4 516.6 262.4Q518.7 262.4 519.9 263.6Q521.2 264.9 521.2 267.1L521.2 267.1L521.2 304.1Q521.2 306.3 519.9 307.6ZM545.0 293.8L532 293.8Q530.1 293.8 528.9 292.7Q527.7 291.6 527.7 289.8Q527.7 288.0 528.9 286.9Q530.1 285.8 532 285.8L532 285.8L545.0 285.8Q546.9 285.8 548.1 286.9Q549.3 288.0 549.3 289.8Q549.3 291.6 548.1 292.7Q546.9 293.8 545.0 293.8L545.0 293.8ZM573.9 307.6Q572.6 308.7 570.4 308.7Q568.2 308.7 566.9 307.6Q565.6 306.5 564.8 303.9L564.8 303.9L555.4 269.8Q554.9 268.0 554.9 266.7L554.9 266.7Q554.9 264.7 556.2 263.6Q557.4 262.4 559.6 262.4L559.6 262.4Q563.3 262.4 564.1 266.5L564.1 266.5L570.9 295.7L571.1 295.7L578.7 266.6Q579.3 264.5 580.4 263.4Q581.6 262.4 583.6 262.4L583.6 262.4Q587.3 262.4 588.4 266.6L588.4 266.6L596.0 295.7L596.2 295.7L603.0 266.5Q603.8 262.4 607.5 262.4L607.5 262.4Q609.7 262.4 610.9 263.6Q612.2 264.7 612.2 266.7L612.2 266.7Q612.2 267.9 611.7 269.8L611.7 269.8L602.3 304.0Q601.5 306.5 600.3 307.6Q599.0 308.7 596.8 308.7L596.8 308.7Q594.5 308.7 593.2 307.6Q591.9 306.5 591.2 304.0L591.2 304.0L583.7 277.3L583.4 277.3L575.9 304.0Q575.3 306.5 573.9 307.6ZM644.9 304.2Q640.4 308.9 632.8 308.9Q625.1 308.9 620.7 304.2Q616.2 299.6 616.2 291.4L616.2 291.4Q616.2 283.3 620.7 278.6Q625.2 273.9 632.8 273.9L632.8 273.9Q640.4 273.9 644.9 278.6Q649.4 283.3 649.4 291.4L649.4 291.4Q649.4 299.6 644.9 304.2ZM632.8 301.9L632.8 301.9Q636.2 301.9 638.1 299.1Q640.1 296.4 640.1 291.4L640.1 291.4Q640.1 286.5 638.1 283.7Q636.2 280.9 632.8 280.9Q629.4 280.9 627.4 283.7Q625.4 286.5 625.4 291.4L625.4 291.4Q625.4 296.4 627.4 299.1Q629.4 301.9 632.8 301.9ZM658.6 308.8L658.6 308.8Q656.5 308.8 655.3 307.6Q654.1 306.3 654.1 304.1L654.1 304.1L654.1 278.6Q654.1 276.4 655.3 275.2Q656.5 274.0 658.5 274.0L658.5 274.0Q660.4 274.0 661.6 275.2Q662.8 276.4 662.8 278.6L662.8 278.6L662.8 280.7L663.0 280.7Q663.6 277.6 665.5 275.9Q667.4 274.1 669.9 274.1L669.9 274.1Q671.8 274.1 672.8 275.0L672.8 275.0Q674.1 276.0 674.1 278.3L674.1 278.3Q674.1 280.5 672.8 281.6L672.8 281.6Q671.4 282.8 668.8 282.8L668.8 282.8Q665.8 282.8 664.5 284.4Q663.2 286.1 663.2 289.2L663.2 289.2L663.2 304.1Q663.2 306.3 662.0 307.6Q660.8 308.8 658.6 308.8ZM685.4 307.6Q684.2 308.8 682.1 308.8Q680.1 308.8 678.8 307.6Q677.6 306.3 677.6 304.1L677.6 304.1L677.6 267.1Q677.6 264.9 678.8 263.6Q680.1 262.4 682.1 262.4Q684.2 262.4 685.4 263.6Q686.7 264.9 686.7 267.1L686.7 267.1L686.7 304.1Q686.7 306.3 685.4 307.6ZM705.3 308.7L705.3 308.7Q699 308.7 695.3 304.0Q691.6 299.4 691.6 291.3L691.6 291.3Q691.6 283.4 695.3 278.7Q699.0 274.1 705.3 274.1L705.3 274.1Q708.9 274.1 711.6 275.8Q714.3 277.6 715.6 280.4L715.6 280.4L715.8 280.4L715.8 267.1Q715.8 264.9 717 263.6Q718.3 262.4 720.3 262.4Q722.4 262.4 723.6 263.6Q724.9 264.9 724.9 267.1L724.9 267.1L724.9 304.2Q724.9 306.4 723.6 307.6Q722.4 308.8 720.3 308.8L720.3 308.8Q718.3 308.8 717.0 307.6Q715.8 306.4 715.8 304.2L715.8 304.2L715.8 302.2L715.6 302.2Q714.5 305.1 711.8 306.9Q709.0 308.7 705.3 308.7ZM708.4 301.3L708.4 301.3Q711.8 301.3 713.8 298.7Q715.8 296.0 715.8 291.4L715.8 291.4Q715.8 286.8 713.8 284.1Q711.8 281.4 708.4 281.4L708.4 281.4Q704.9 281.4 703.0 284.1Q701.0 286.8 701.0 291.4L701.0 291.4Q701.0 296.0 703.0 298.7Q704.9 301.3 708.4 301.3Z M752.6 307.4Q751.3 308.7 749.1 308.7Q746.9 308.7 745.7 307.4Q744.4 306.1 744.4 303.8L744.4 303.8L744.4 267.4Q744.4 265.0 745.7 263.7Q746.9 262.4 749.1 262.4Q751.3 262.4 752.6 263.7Q753.8 265.0 753.8 267.4L753.8 267.4L753.8 281.4L774.2 281.4L774.2 267.4Q774.2 265.0 775.4 263.7Q776.7 262.4 778.9 262.4Q781.1 262.4 782.3 263.7Q783.6 265.0 783.6 267.4L783.6 267.4L783.6 303.8Q783.6 306.1 782.3 307.4Q781.1 308.7 778.9 308.7Q776.7 308.7 775.4 307.4Q774.2 306.1 774.2 303.8L774.2 303.8L774.2 289.1L753.8 289.1L753.8 303.8Q753.8 306.1 752.6 307.4ZM802.2 308.8L802.2 308.8Q796.7 308.8 793.4 305.4Q790.2 302.1 790.2 296.2L790.2 296.2L790.2 278.7Q790.2 276.5 791.4 275.2Q792.7 274.0 794.7 274.0Q796.8 274.0 798.0 275.2Q799.3 276.5 799.3 278.7L799.3 278.7L799.3 294.3Q799.3 297.7 800.9 299.4Q802.5 301.2 805.5 301.2Q808.6 301.2 810.3 299.2Q812.1 297.2 812.1 293.8L812.1 293.8L812.1 278.7Q812.1 276.5 813.4 275.2Q814.6 274.0 816.7 274.0Q818.8 274.0 820 275.2Q821.3 276.5 821.3 278.7L821.3 278.7L821.3 304.2Q821.3 306.4 820.1 307.6Q818.9 308.8 816.8 308.8Q814.8 308.8 813.6 307.6Q812.4 306.4 812.4 304.2L812.4 304.2L812.4 302.1L812.3 302.1Q809.6 308.8 802.2 308.8ZM831.8 308.8L831.8 308.8Q829.7 308.8 828.4 307.6Q827.2 306.3 827.2 304.1L827.2 304.1L827.2 278.6Q827.2 276.4 828.4 275.2Q829.6 274.0 831.6 274.0Q833.6 274.0 834.8 275.2Q836 276.4 836 278.6L836 278.6L836 280.7L836.2 280.7Q837.3 277.6 839.8 275.8Q842.4 274.0 845.8 274.0L845.8 274.0Q849.4 274.0 851.8 275.8Q854.3 277.6 855.1 280.9L855.1 280.9L855.3 280.9Q856.4 277.7 859.2 275.9Q862 274.0 865.7 274.0L865.7 274.0Q870.6 274.0 873.6 277.1Q876.7 280.2 876.7 285.3L876.7 285.3L876.7 304.1Q876.7 306.3 875.4 307.6Q874.2 308.8 872.1 308.8L872.1 308.8Q870 308.8 868.8 307.6Q867.5 306.3 867.5 304.1L867.5 304.1L867.5 287.6Q867.5 284.6 866.1 283.1Q864.7 281.6 862.1 281.6L862.1 281.6Q859.5 281.6 857.9 283.3Q856.3 285.0 856.3 287.8L856.3 287.8L856.3 304.1Q856.3 306.3 855.1 307.6Q854.0 308.8 851.9 308.8L851.9 308.8Q849.9 308.8 848.7 307.6Q847.5 306.3 847.5 304.1L847.5 304.1L847.5 287.3Q847.5 284.6 846.1 283.1Q844.7 281.6 842.1 281.6L842.1 281.6Q839.5 281.6 837.9 283.3Q836.3 285.1 836.3 287.9L836.3 287.9L836.3 304.1Q836.3 306.3 835.1 307.6Q833.8 308.8 831.8 308.8ZM892.3 308.7L892.3 308.7Q887.5 308.7 884.3 305.8Q881.1 303.0 881.1 298.5L881.1 298.5Q881.1 294.0 884.5 291.4Q887.9 288.8 894.2 288.4L894.2 288.4L902.6 287.9L902.6 285.7Q902.6 283.4 901.1 282.1Q899.6 280.7 897 280.7L897 280.7Q894.9 280.7 893.5 281.5Q892.0 282.3 890.5 284.3L890.5 284.3Q889 286.0 886.9 286.0L886.9 286.0Q885.2 286.0 884.1 285.0Q883.1 284.0 883.1 282.5L883.1 282.5Q883.1 281.4 883.5 280.4L883.5 280.4Q884.7 277.4 888.4 275.7Q892.2 273.9 897.4 273.9L897.4 273.9Q903.8 273.9 907.7 277.0Q911.6 280.1 911.6 285.1L911.6 285.1L911.6 304.2Q911.6 306.4 910.4 307.6Q909.2 308.8 907.2 308.8L907.2 308.8Q905.3 308.8 904.1 307.8Q902.9 306.7 902.8 304.7L902.8 304.7L902.8 303.0L902.6 303.0Q901.2 305.6 898.4 307.2Q895.6 308.7 892.3 308.7ZM895.3 302.1L895.3 302.1Q898.4 302.1 900.5 300.3Q902.6 298.6 902.6 295.9L902.6 295.9L902.6 293.4L895.6 293.9Q893 294.1 891.6 295.1Q890.2 296.2 890.2 298.0L890.2 298.0Q890.2 299.9 891.6 301.0Q893.0 302.1 895.3 302.1ZM925.3 307.6Q924.1 308.8 922.0 308.8Q920.0 308.8 918.7 307.6Q917.5 306.3 917.5 304.1L917.5 304.1L917.5 278.6Q917.5 276.4 918.6 275.2Q919.8 274.0 921.9 274.0Q923.9 274.0 925.2 275.2Q926.4 276.5 926.4 278.6L926.4 278.6L926.4 280.5L926.6 280.5Q929.4 274.0 936.9 274.0L936.9 274.0Q942.5 274.0 945.5 277.3Q948.6 280.6 948.6 286.6L948.6 286.6L948.6 304.1Q948.6 306.3 947.3 307.6Q946.1 308.8 944 308.8Q941.9 308.8 940.7 307.6Q939.4 306.3 939.4 304.1L939.4 304.1L939.4 288.5Q939.4 285.1 937.9 283.4Q936.3 281.6 933.3 281.6Q930.3 281.6 928.4 283.6Q926.6 285.6 926.6 288.9L926.6 288.9L926.6 304.1Q926.6 306.3 925.3 307.6ZM981.8 304.2Q977.4 308.9 969.7 308.9Q962.1 308.9 957.6 304.2Q953.1 299.6 953.1 291.4L953.1 291.4Q953.1 283.3 957.6 278.6Q962.2 273.9 969.7 273.9L969.7 273.9Q977.3 273.9 981.8 278.6Q986.3 283.3 986.3 291.4L986.3 291.4Q986.3 299.6 981.8 304.2ZM969.7 301.9L969.7 301.9Q973.1 301.9 975.1 299.1Q977.0 296.4 977.0 291.4L977.0 291.4Q977.0 286.5 975.1 283.7Q973.1 280.9 969.7 280.9Q966.3 280.9 964.4 283.7Q962.4 286.5 962.4 291.4L962.4 291.4Q962.4 296.4 964.3 299.1Q966.3 301.9 969.7 301.9ZM999.2 269.1Q997.8 270.5 995.7 270.5Q993.7 270.5 992.3 269.1Q990.8 267.7 990.8 265.8L990.8 265.8Q990.8 263.8 992.3 262.4Q993.7 261.1 995.7 261.1Q997.8 261.1 999.2 262.4Q1000.6 263.8 1000.6 265.8L1000.6 265.8Q1000.6 267.7 999.2 269.1ZM999.1 307.5Q997.8 308.8 995.7 308.8Q993.6 308.8 992.4 307.5Q991.2 306.3 991.2 304.1L991.2 304.1L991.2 278.7Q991.2 276.5 992.4 275.2Q993.6 274.0 995.7 274.0Q997.8 274.0 999.1 275.2Q1000.3 276.5 1000.3 278.7L1000.3 278.7L1000.3 304.1Q1000.3 306.3 999.1 307.5ZM1018.8 308.7L1018.8 308.7Q1012.5 308.7 1008.8 304.0Q1005.1 299.4 1005.1 291.3L1005.1 291.3Q1005.1 283.4 1008.8 278.7Q1012.5 274.1 1018.8 274.1L1018.8 274.1Q1022.4 274.1 1025.1 275.8Q1027.8 277.6 1029.1 280.4L1029.1 280.4L1029.3 280.4L1029.3 267.1Q1029.3 264.9 1030.5 263.6Q1031.8 262.4 1033.8 262.4Q1035.9 262.4 1037.1 263.6Q1038.4 264.9 1038.4 267.1L1038.4 267.1L1038.4 304.2Q1038.4 306.4 1037.1 307.6Q1035.9 308.8 1033.8 308.8L1033.8 308.8Q1031.8 308.8 1030.5 307.6Q1029.3 306.4 1029.3 304.2L1029.3 304.2L1029.3 302.2L1029.1 302.2Q1028.0 305.1 1025.3 306.9Q1022.5 308.7 1018.8 308.7ZM1021.9 301.3L1021.9 301.3Q1025.3 301.3 1027.3 298.7Q1029.3 296.0 1029.3 291.4L1029.3 291.4Q1029.3 286.8 1027.3 284.1Q1025.3 281.4 1021.9 281.4L1021.9 281.4Q1018.4 281.4 1016.5 284.1Q1014.5 286.8 1014.5 291.4L1014.5 291.4Q1014.5 296.0 1016.5 298.7Q1018.4 301.3 1021.9 301.3Z M83.9 381.1Q82.7 382.4 80.5 382.4Q78.3 382.4 77 381.1Q75.8 379.8 75.8 377.5L75.8 377.5L75.8 341.6Q75.8 339.3 77 338.0Q78.3 336.7 80.5 336.7L80.5 336.7L94.2 336.7Q101.9 336.7 106.2 340.5Q110.5 344.3 110.5 351.0L110.5 351.0Q110.5 355.3 108.5 358.7Q106.5 362.0 102.8 363.6L102.8 363.6L109.3 374.8Q110.3 376.6 110.3 378.1L110.3 378.1Q110.3 380.0 108.9 381.2Q107.6 382.4 105.5 382.4L105.5 382.4Q103.8 382.4 102.9 381.7Q101.9 380.9 100.7 378.8L100.7 378.8L93.2 365.3L85.2 365.3L85.2 377.5Q85.2 379.8 83.9 381.1ZM85.2 344.0L85.2 358.4L93.3 358.4Q96.9 358.4 98.9 356.5Q100.8 354.6 100.8 351.2L100.8 351.2Q100.8 347.9 98.8 346.0Q96.7 344.0 93.2 344.0L93.2 344.0L85.2 344.0ZM143.4 377.8Q139.0 382.5 131.3 382.5Q123.7 382.5 119.2 377.8Q114.7 373.2 114.7 365.0L114.7 365.0Q114.7 356.9 119.2 352.2Q123.8 347.5 131.3 347.5L131.3 347.5Q138.9 347.5 143.4 352.2Q147.9 356.9 147.9 365.0L147.9 365.0Q147.9 373.2 143.4 377.8ZM131.3 375.5L131.3 375.5Q134.7 375.5 136.7 372.8Q138.6 370 138.6 365L138.6 365Q138.6 360.1 136.7 357.3Q134.7 354.5 131.3 354.5Q127.9 354.5 126.0 357.3Q124.0 360.1 124.0 365L124.0 365Q124.0 370 125.9 372.8Q127.9 375.5 131.3 375.5ZM157.3 382.4L157.3 382.4Q155.3 382.4 154.0 381.2Q152.8 380.0 152.8 377.8L152.8 377.8L152.8 340.8Q152.8 338.5 154.1 337.2Q155.3 336.0 157.4 336.0Q159.4 336.0 160.7 337.2Q161.9 338.5 161.9 340.8L161.9 340.8L161.9 354.1L162.1 354.1Q163.5 351.1 166.2 349.4Q168.9 347.7 172.5 347.7L172.5 347.7Q178.8 347.7 182.5 352.3Q186.1 356.9 186.1 365Q186.1 373.1 182.5 377.7Q178.8 382.3 172.5 382.3L172.5 382.3Q168.9 382.3 166.2 380.6Q163.4 379.0 162 376L162 376L161.8 376L161.8 377.8Q161.8 380 160.6 381.2Q159.3 382.4 157.3 382.4ZM169.4 374.9L169.4 374.9Q172.8 374.9 174.8 372.3Q176.8 369.6 176.8 365L176.8 365Q176.8 360.4 174.8 357.7Q172.8 355.0 169.4 355.0L169.4 355.0Q166.0 355.0 164.0 357.8Q161.9 360.5 161.9 365L161.9 365Q161.9 369.5 164.0 372.2Q166.0 374.9 169.4 374.9ZM218.3 377.8Q213.8 382.5 206.2 382.5Q198.5 382.5 194.1 377.8Q189.6 373.2 189.6 365.0L189.6 365.0Q189.6 356.9 194.1 352.2Q198.6 347.5 206.2 347.5L206.2 347.5Q213.8 347.5 218.3 352.2Q222.8 356.9 222.8 365.0L222.8 365.0Q222.8 373.2 218.3 377.8ZM206.2 375.5L206.2 375.5Q209.6 375.5 211.5 372.8Q213.5 370 213.5 365L213.5 365Q213.5 360.1 211.5 357.3Q209.6 354.5 206.2 354.5Q202.8 354.5 200.8 357.3Q198.8 360.1 198.8 365L198.8 365Q198.8 370 200.8 372.8Q202.8 375.5 206.2 375.5ZM229.9 373.2L229.9 373.2L229.9 355.1L228.2 355.1Q226.5 355.1 225.6 354.2Q224.6 353.3 224.6 351.7Q224.6 350.1 225.6 349.2Q226.5 348.3 228.2 348.3L228.2 348.3L229.9 348.3L229.9 344.5Q229.9 342.3 231.1 341.0Q232.3 339.8 234.5 339.8Q236.6 339.8 237.8 341.0Q239.0 342.3 239.0 344.5L239.0 344.5L239.0 348.3L242.3 348.3Q243.9 348.3 244.8 349.2Q245.8 350.1 245.8 351.7Q245.8 353.3 244.8 354.2Q243.9 355.1 242.3 355.1L242.3 355.1L239.0 355.1L239.0 371.2Q239.0 372.9 239.7 373.8Q240.3 374.6 241.8 374.7L241.8 374.7L242.4 374.8Q244.2 374.9 245.0 375.7Q245.9 376.5 245.9 378.1L245.9 378.1Q245.9 380.0 244.1 381.1Q242.4 382.1 239.4 382.1L239.4 382.1L239.1 382.1Q229.9 382.1 229.9 373.2ZM263.9 382.5L263.9 382.5Q258.3 382.5 254.5 380.6Q250.7 378.8 249.5 375.8L249.5 375.8Q249.1 374.8 249.1 374.1L249.1 374.1Q249.1 372.5 250.2 371.6Q251.2 370.6 252.8 370.6L252.8 370.6Q254.9 370.6 256.8 372.7L256.8 372.7Q258.2 374.4 259.8 375.3Q261.5 376.1 264.1 376.1L264.1 376.1Q266.6 376.1 268.1 375.1Q269.6 374.1 269.6 372.5L269.6 372.5Q269.6 371.1 268.6 370.3Q267.6 369.5 265.1 369.0L265.1 369.0L259.5 367.8Q254.6 366.7 252.1 364.3Q249.6 361.8 249.6 358.1L249.6 358.1Q249.6 353.3 253.5 350.4Q257.3 347.5 263.8 347.5L263.8 347.5Q268.9 347.5 272.5 349.5Q276.1 351.5 277.0 354.5L277.0 354.5Q277.2 355.3 277.2 355.8L277.2 355.8Q277.2 357.3 276.3 358.1Q275.4 358.9 273.7 358.9L273.7 358.9Q271.6 358.9 270.4 357.5L270.4 357.5Q269 355.8 267.5 354.9Q266.0 353.9 263.7 353.9L263.7 353.9Q261.4 353.9 259.9 354.9Q258.4 355.9 258.4 357.6L258.4 357.6Q258.4 358.9 259.5 359.8Q260.6 360.7 263.1 361.2L263.1 361.2L268.6 362.4Q274.0 363.5 276.3 365.6Q278.7 367.8 278.7 371.5L278.7 371.5Q278.7 376.5 274.6 379.5Q270.5 382.5 263.9 382.5Z " clip-path="url(#satori_cp-id-0)" mask="url(#satori_om-id-0)"/><defs><clipPath id="satori_bc-id-0-1" clip-path="url(#satori_cp-id-0)"><rect x="0" y="509" width="1200" height="121"/></clipPath></defs><mask id="satori_om-id-0-1"><rect x="0" y="510" width="1200" height="120" fill="#fff" mask="url(#satori_om-id-0)"/><path width="1200" height="121" fill="none" stroke="#000" stroke-width="2" d="M0,509 A0,0 0 0 1 0,509 h1200 A0,0 0 0 1 1200,509"/></mask><path width="1200" height="121" clip-path="url(#satori_bc-id-0-1)" fill="none" stroke="rgba(0,0,0,0.08)" stroke-width="2" d="M0,509 A0,0 0 0 1 0,509 h1200 A0,0 0 0 1 1200,509"/><mask id="satori_om-id-0-1-0"><rect x="48" y="538" width="228" height="64" fill="#fff" mask="url(#satori_om-id-0)"/></mask><mask id="satori_om-id-0-1-0-0"><rect x="48" y="538" width="72" height="64" fill="#fff" mask="url(#satori_om-id-0)"/></mask><clipPath id="satori_cp-id-0-1-0-0-0" clip-path="url(#satori_cp-id-0)"><rect x="48" y="538" width="72" height="64"/></clipPath><mask id="satori_om-id-0-1-0-0-0"><rect x="48" y="538" width="72" height="64" fill="#fff" mask="url(#satori_om-id-0)"/></mask><image x="48" y="538" width="72" height="64" href="data:image/svg+xml;utf8,%3Csvg  xmlns=%22http://www.w3.org/2000/svg%22 width=%2273.60461760461762%22 height=%2264%22 viewBox=%220 0 797 693%22%3E%3Cg transform=%22matrix(1,0,0,1,-345,-96.5)%22%3E%3Cpath d=%22M756.942,197.15L756.942,474C701.751,474 656.942,518.808 656.942,574C656.942,629.192 701.751,674 756.942,674L756.942,777L495.122,777C443.175,777 401,734.825 401,682.878L401,614L364.755,614C353.852,614 345,605.148 345,594.245L345,436.814C345,425.878 353.878,417 364.814,417L401,417L401,365.122C401,313.175 443.175,271 495.122,271L715.058,271L715.058,197.15C696.492,189.056 683.5,170.533 683.5,149C683.5,120.024 707.024,96.5 736,96.5C764.976,96.5 788.5,120.024 788.5,149C788.5,170.533 775.508,189.056 756.942,197.15ZM559,388C520.918,388 490,418.918 490,457C490,495.082 520.918,526 559,526C597.082,526 628,495.082 628,457C628,418.918 597.082,388 559,388Z%22 fill=%22%23ad47ff%22%3E%3C/path%3E%3Cg transform=%22matrix(-1,1.22465e-16,-1.22465e-16,-1,1486.06,1043)%22%3E%3Cpath d=%22M401,417L401,348.122C401,296.175 443.175,254 495.122,254L705.058,254L705.058,357C760.249,357 805.058,401.808 805.058,457C805.058,512.192 760.249,557 705.058,557L705.058,760L495.122,760C443.175,760 401,717.825 401,665.878L401,614L364.755,614C353.852,614 345,605.148 345,594.245L345,436.814C345,425.878 353.878,417 364.814,417L401,417ZM552,643C590.082,643 621,612.082 621,574C621,535.918 590.082,505 552,505C513.918,505 483,535.918 483,574C483,612.082 513.918,643 552,643Z%22 fill=%22%2300d5bd%22%3E%3C/path%3E%3C/g%3E%3C/g%3E%3C/svg%3E" preserveAspectRatio="none" clip-path="url(#satori_cp-id-0-1-0-0-0)" mask="url(#satori_om-id-0-1-0-0-0)"/><mask id="satori_om-id-0-1-0-0-0-0"><rect x="48" y="538" width="0" height="64" fill="#fff" mask="url(#satori_om-id-0)"/></mask><mask id="satori_om-id-0-1-0-0-0-0-0"><rect x="48" y="538" width="0" height="64" fill="#fff" mask="url(#satori_om-id-0)"/></mask><mask id="satori_om-id-0-1-0-0-0-0-1"><rect x="48" y="538" width="0" height="64" fill="#fff" mask="url(#satori_om-id-0)"/></mask><mask id="satori_om-id-0-1-0-0-0-0-1-0"><rect x="48" y="538" width="0" height="64" fill="#fff" mask="url(#satori_om-id-0)"/></mask><mask id="satori_om-id-0-1-0-1"><rect x="138" y="540" width="138" height="60" fill="#fff" mask="url(#satori_om-id-0)"/></mask><mask id="satori_om-id-0-1-0-1-0"><rect x="138" y="540" width="138" height="36" fill="#fff" mask="url(#satori_om-id-0)"/></mask><path fill="#0f172a" d="M150.7 571.2L150.7 571.2Q145.9 571.2 143.0 568.6Q140.1 566.1 140.1 561.8L140.1 561.8L140.1 547.9Q140.1 546.5 140.8 545.8Q141.5 545.1 142.8 545.1Q144.0 545.1 144.7 545.8Q145.4 546.5 145.4 547.9L145.4 547.9L145.4 561.3Q145.4 563.8 146.8 565.2Q148.2 566.7 150.7 566.7L150.7 566.7Q153.3 566.7 154.7 565.2Q156.1 563.8 156.1 561.3L156.1 561.3L156.1 547.9Q156.1 546.5 156.8 545.8Q157.5 545.1 158.7 545.1Q160.0 545.1 160.7 545.8Q161.4 546.5 161.4 547.9L161.4 547.9L161.4 561.8Q161.4 566.1 158.5 568.6Q155.6 571.2 150.7 571.2ZM170.2 570.4Q169.5 571.2 168.2 571.2Q167.0 571.2 166.3 570.4Q165.6 569.7 165.6 568.4L165.6 568.4L165.6 548.2Q165.6 546.9 166.3 546.2Q167.0 545.4 168.2 545.4L168.2 545.4L176.0 545.4Q180.3 545.4 182.7 547.6Q185.1 549.7 185.1 553.5L185.1 553.5Q185.1 555.9 184.0 557.8Q182.9 559.7 180.8 560.6L180.8 560.6L184.4 566.9Q185.0 567.9 185.0 568.7L185.0 568.7Q185.0 569.8 184.2 570.5Q183.5 571.2 182.3 571.2L182.3 571.2Q181.4 571.2 180.8 570.8Q180.3 570.3 179.6 569.2L179.6 569.2L175.4 561.5L170.9 561.5L170.9 568.4Q170.9 569.7 170.2 570.4ZM170.9 549.6L170.9 557.7L175.5 557.7Q177.5 557.7 178.6 556.6Q179.7 555.5 179.7 553.6L179.7 553.6Q179.7 551.8 178.5 550.7Q177.4 549.6 175.4 549.6L175.4 549.6L170.9 549.6ZM198.1 562.7L190.8 562.7Q189.7 562.7 189.1 562.1Q188.4 561.5 188.4 560.5Q188.4 559.4 189.1 558.8Q189.7 558.2 190.8 558.2L190.8 558.2L198.1 558.2Q199.2 558.2 199.9 558.8Q200.6 559.4 200.6 560.5Q200.6 561.5 199.9 562.1Q199.2 562.7 198.1 562.7L198.1 562.7ZM209.1 570.4Q208.4 571.2 207.2 571.2Q205.9 571.2 205.2 570.4Q204.5 569.7 204.5 568.4L204.5 568.4L204.5 548.2Q204.5 546.9 205.2 546.2Q205.9 545.4 207.2 545.4L207.2 545.4L214.9 545.4Q219.3 545.4 221.7 547.6Q224.1 549.7 224.1 553.5L224.1 553.5Q224.1 555.9 223.0 557.8Q221.8 559.7 219.7 560.6L219.7 560.6L223.4 566.9Q224.0 567.9 224.0 568.7L224.0 568.7Q224.0 569.8 223.2 570.5Q222.4 571.2 221.3 571.2L221.3 571.2Q220.3 571.2 219.8 570.8Q219.2 570.3 218.6 569.2L218.6 569.2L214.4 561.5L209.8 561.5L209.8 568.4Q209.8 569.7 209.1 570.4ZM209.8 549.6L209.8 557.7L214.4 557.7Q216.4 557.7 217.5 556.6Q218.6 555.5 218.6 553.6L218.6 553.6Q218.6 551.8 217.5 550.7Q216.3 549.6 214.4 549.6L214.4 549.6L209.8 549.6ZM229.3 571.1L229.3 571.1Q228.0 571.1 227.3 570.5Q226.6 569.8 226.6 568.6L226.6 568.6Q226.6 567.9 226.9 566.9L226.9 566.9L233.9 548.1Q234.4 546.5 235.4 545.8Q236.3 545.1 237.8 545.1L237.8 545.1Q239.4 545.1 240.4 545.8Q241.3 546.5 241.9 548.1L241.9 548.1L248.9 566.9Q249.2 567.9 249.2 568.6L249.2 568.6Q249.2 569.7 248.5 570.4Q247.7 571.1 246.5 571.1L246.5 571.1Q245.4 571.1 244.8 570.6Q244.1 570.0 243.8 568.8L243.8 568.8L242.4 564.8L233.3 564.8L232.0 568.7Q231.6 570.0 231.0 570.6Q230.3 571.1 229.3 571.1ZM237.7 550.3L234.5 560.7L241.2 560.7L237.9 550.3L237.7 550.3ZM262.1 570.8L255.1 570.8Q253.8 570.8 253.1 570.1Q252.4 569.3 252.4 568.0L252.4 568.0L252.4 548.2Q252.4 546.9 253.1 546.2Q253.8 545.4 255.1 545.4L255.1 545.4L262.1 545.4Q267.8 545.4 271.0 548.7Q274.2 552.0 274.2 558.0L274.2 558.0Q274.2 564.0 271.0 567.4Q267.8 570.8 262.1 570.8L262.1 570.8ZM257.7 549.8L257.7 566.4L261.5 566.4Q265.0 566.4 266.9 564.3Q268.8 562.1 268.8 558.0L268.8 558.0Q268.8 554.1 266.9 551.9Q265.0 549.8 261.5 549.8L261.5 549.8L257.7 549.8Z " clip-path="url(#satori_cp-id-0)" mask="url(#satori_om-id-0)"/><mask id="satori_om-id-0-1-0-1-1"><rect x="138" y="576" width="138" height="24" fill="#fff" mask="url(#satori_om-id-0)"/></mask><path fill="#334155" d="M145.0 595.3L145.0 595.3Q142.4 595.3 140.8 593.8Q139.2 592.4 139.2 590.1L139.2 590.1L139.2 582.1Q139.2 581.5 139.6 581.1Q139.9 580.8 140.5 580.8L140.5 580.8Q141.1 580.8 141.4 581.1Q141.8 581.5 141.8 582.1L141.8 582.1L141.8 589.8Q141.8 591.3 142.6 592.2Q143.5 593.1 145.0 593.1Q146.6 593.1 147.4 592.2Q148.3 591.3 148.3 589.8L148.3 589.8L148.3 582.1Q148.3 581.5 148.6 581.1Q149.0 580.8 149.6 580.8L149.6 580.8Q150.2 580.8 150.5 581.1Q150.8 581.5 150.8 582.1L150.8 582.1L150.8 590.1Q150.8 592.4 149.3 593.8Q147.7 595.3 145.0 595.3ZM155.5 594.9Q155.2 595.2 154.6 595.2Q154.0 595.2 153.6 594.9Q153.3 594.5 153.3 593.9L153.3 593.9L153.3 582.3Q153.3 581.6 153.6 581.3Q154.0 581.0 154.6 581.0L154.6 581.0L158.9 581.0Q161.2 581.0 162.5 582.1Q163.8 583.3 163.8 585.3L163.8 585.3Q163.8 586.7 163.1 587.8Q162.4 588.8 161.2 589.3L161.2 589.3L163.4 593.2Q163.7 593.7 163.7 594.1L163.7 594.1Q163.7 594.6 163.4 594.9Q163.0 595.2 162.4 595.2L162.4 595.2Q162.0 595.2 161.7 595.0Q161.5 594.8 161.2 594.3L161.2 594.3L158.7 589.7L155.8 589.7L155.8 593.9Q155.8 594.5 155.5 594.9ZM155.8 583.0L155.8 587.8L158.7 587.8Q159.9 587.8 160.5 587.2Q161.2 586.5 161.2 585.4L161.2 585.4Q161.2 584.3 160.5 583.6Q159.8 583.0 158.6 583.0L158.6 583.0L155.8 583.0ZM171.1 590.4L166.7 590.4Q166.2 590.4 165.9 590.1Q165.6 589.8 165.6 589.3Q165.6 588.8 165.9 588.5Q166.2 588.2 166.7 588.2L166.7 588.2L171.1 588.2Q171.7 588.2 172.0 588.5Q172.3 588.8 172.3 589.3Q172.3 589.8 172.0 590.1Q171.7 590.4 171.1 590.4L171.1 590.4ZM176.7 594.9Q176.4 595.2 175.8 595.2Q175.2 595.2 174.9 594.9Q174.6 594.5 174.6 593.9L174.6 593.9L174.6 582.3Q174.6 581.6 174.9 581.3Q175.2 581.0 175.8 581.0L175.8 581.0L180.1 581.0Q182.4 581.0 183.7 582.1Q185.0 583.3 185.0 585.3L185.0 585.3Q185.0 586.7 184.3 587.8Q183.7 588.8 182.5 589.3L182.5 589.3L184.7 593.2Q185.0 593.7 185.0 594.1L185.0 594.1Q185.0 594.6 184.6 594.9Q184.2 595.2 183.7 595.2L183.7 595.2Q183.2 595.2 183.0 595.0Q182.7 594.8 182.4 594.3L182.4 594.3L179.9 589.7L177.1 589.7L177.1 593.9Q177.1 594.5 176.7 594.9ZM177.1 583.0L177.1 587.8L179.9 587.8Q181.1 587.8 181.8 587.2Q182.4 586.5 182.4 585.4L182.4 585.4Q182.4 584.3 181.8 583.6Q181.1 583.0 179.9 583.0L179.9 583.0L177.1 583.0ZM187.7 595.2L187.7 595.2Q187.1 595.2 186.7 594.9Q186.4 594.6 186.4 594.0L186.4 594.0Q186.4 593.7 186.6 593.3L186.6 593.3L190.7 582.2Q190.9 581.4 191.4 581.1Q191.8 580.8 192.5 580.8L192.5 580.8Q193.2 580.8 193.6 581.1Q194.1 581.4 194.3 582.1L194.3 582.1L198.4 593.3Q198.6 593.7 198.6 594.0L198.6 594.0Q198.6 594.6 198.2 594.9Q197.9 595.2 197.3 595.2L197.3 595.2Q196.8 595.2 196.5 595.0Q196.2 594.7 196.0 594.1L196.0 594.1L195.1 591.4L189.9 591.4L188.9 594.1Q188.8 594.7 188.5 595.0Q188.2 595.2 187.7 595.2ZM192.4 583.4L190.5 589.5L194.5 589.5L192.5 583.4L192.4 583.4ZM205.6 595.0L201.7 595.0Q201.1 595.0 200.8 594.7Q200.4 594.3 200.4 593.7L200.4 593.7L200.4 582.3Q200.4 581.6 200.8 581.3Q201.1 581.0 201.7 581.0L201.7 581.0L205.6 581.0Q208.7 581.0 210.5 582.8Q212.3 584.6 212.3 588.0L212.3 588.0Q212.3 591.3 210.5 593.2Q208.7 595.0 205.6 595.0L205.6 595.0ZM202.9 583.1L202.9 592.9L205.3 592.9Q207.4 592.9 208.6 591.6Q209.7 590.4 209.7 588.0L209.7 588.0Q209.7 585.6 208.6 584.3Q207.4 583.1 205.3 583.1L205.3 583.1L202.9 583.1Z M227.0 595.0L219.2 595.0Q218.7 595.0 218.3 594.8Q218.0 594.5 218.0 594.0L218.0 594.0Q218.0 593.6 218.2 593.3Q218.3 593.1 218.7 592.7L218.7 592.7L223.0 588.4Q224.4 587.1 224.8 586.4Q225.3 585.7 225.3 584.9L225.3 584.9Q225.3 583.9 224.6 583.3Q224.0 582.7 223.0 582.7L223.0 582.7Q221.1 582.7 220.3 584.6L220.3 584.6Q220.1 585.0 219.9 585.2Q219.6 585.4 219.2 585.4L219.2 585.4Q218.7 585.4 218.4 585.1Q218.1 584.8 218.1 584.3L218.1 584.3Q218.1 584.1 218.2 583.8L218.2 583.8Q218.3 583.2 218.7 582.7Q219.1 582.1 219.7 581.7Q220.3 581.2 221.1 580.9Q222.0 580.7 223.0 580.7L223.0 580.7Q225.1 580.7 226.4 581.8Q227.8 582.9 227.8 584.7L227.8 584.7Q227.8 585.9 227.1 586.9Q226.4 588.0 224.6 589.8L224.6 589.8L221.4 592.9L221.4 593.0L227.0 593.0Q227.5 593.0 227.8 593.3Q228.1 593.5 228.1 594.0Q228.1 594.5 227.8 594.8Q227.5 595.0 227.0 595.0L227.0 595.0ZM235.2 595.3L235.2 595.3Q232.6 595.3 231.1 593.4Q229.7 591.4 229.7 588.0L229.7 588.0Q229.7 584.6 231.1 582.6Q232.6 580.7 235.2 580.7L235.2 580.7Q237.8 580.7 239.3 582.6Q240.7 584.6 240.7 588.0L240.7 588.0Q240.7 591.4 239.3 593.3Q237.8 595.3 235.2 595.3ZM235.2 593.3L235.2 593.3Q236.6 593.3 237.4 591.9Q238.2 590.5 238.2 588.0L238.2 588.0Q238.2 585.5 237.4 584.1Q236.6 582.7 235.2 582.7Q233.8 582.7 233.0 584.1Q232.2 585.5 232.2 588.0L232.2 588.0Q232.2 590.5 233.0 591.9Q233.8 593.3 235.2 593.3ZM251.6 595.0L243.8 595.0Q243.2 595.0 242.9 594.8Q242.6 594.5 242.6 594.0L242.6 594.0Q242.6 593.6 242.7 593.3Q242.9 593.1 243.3 592.7L243.3 592.7L247.6 588.4Q248.9 587.1 249.4 586.4Q249.8 585.7 249.8 584.9L249.8 584.9Q249.8 583.9 249.2 583.3Q248.5 582.7 247.5 582.7L247.5 582.7Q245.6 582.7 244.9 584.6L244.9 584.6Q244.7 585.0 244.4 585.2Q244.2 585.4 243.7 585.4L243.7 585.4Q243.2 585.4 242.9 585.1Q242.6 584.8 242.6 584.3L242.6 584.3Q242.6 584.1 242.7 583.8L242.7 583.8Q242.9 583.2 243.2 582.7Q243.6 582.1 244.2 581.7Q244.8 581.2 245.7 580.9Q246.5 580.7 247.5 580.7L247.5 580.7Q249.6 580.7 251.0 581.8Q252.3 582.9 252.3 584.7L252.3 584.7Q252.3 585.9 251.6 586.9Q251.0 588.0 249.2 589.8L249.2 589.8L245.9 592.9L245.9 593.0L251.6 593.0Q252.1 593.0 252.4 593.3Q252.6 593.5 252.6 594.0Q252.6 594.5 252.4 594.8Q252.1 595.0 251.6 595.0L251.6 595.0ZM259.6 595.3L259.6 595.3Q258.0 595.3 256.7 594.6Q255.4 593.9 254.9 592.8L254.9 592.8Q254.6 592.3 254.6 591.8L254.6 591.8Q254.6 591.3 254.9 591.0Q255.2 590.7 255.7 590.7L255.7 590.7Q256.1 590.7 256.4 590.9Q256.6 591.1 256.8 591.5L256.8 591.5Q257.2 592.3 257.9 592.8Q258.6 593.3 259.6 593.3L259.6 593.3Q260.9 593.3 261.7 592.5Q262.5 591.7 262.5 590.4L262.5 590.4Q262.5 589.2 261.7 588.4Q260.9 587.7 259.6 587.7L259.6 587.7Q258.3 587.7 257.4 588.5L257.4 588.5Q257.0 589.0 256.7 589.1Q256.4 589.3 256.0 589.3L256.0 589.3Q255.4 589.3 255.1 588.9Q254.8 588.5 254.8 588.0L254.8 588.0Q254.8 587.9 254.8 587.8L254.8 587.8L255.3 582.5Q255.4 581.7 255.8 581.3Q256.2 581.0 257.0 581.0L257.0 581.0L263.1 581.0Q263.6 581.0 263.9 581.2Q264.2 581.5 264.2 582.0L264.2 582.0Q264.2 582.4 263.9 582.7Q263.6 583.0 263.1 583.0L263.1 583.0L257.4 583.0L257.1 587.2L257.1 587.2Q257.6 586.5 258.4 586.1Q259.2 585.8 260.3 585.8L260.3 585.8Q262.3 585.8 263.6 587.0Q264.9 588.3 264.9 590.4L264.9 590.4Q264.9 592.6 263.4 593.9Q261.9 595.3 259.6 595.3Z " clip-path="url(#satori_cp-id-0)" mask="url(#satori_om-id-0)"/><mask id="satori_om-id-0-1-1"><rect x="983" y="557" width="169" height="26" fill="#fff" mask="url(#satori_om-id-0)"/></mask><path fill="#334155" d="M986.4 577.8Q986.1 578.2 985.5 578.2Q984.9 578.2 984.5 577.8Q984.2 577.5 984.2 576.8L984.2 576.8L984.2 563.6Q984.2 563.0 984.5 562.6Q984.9 562.2 985.5 562.2Q986.1 562.2 986.5 562.6Q986.8 563.0 986.8 563.6L986.8 563.6L986.8 568.5L986.9 568.5Q987.4 567.5 988.3 566.9Q989.3 566.4 990.5 566.4L990.5 566.4Q992.6 566.4 993.9 568.0Q995.2 569.5 995.2 572.3L995.2 572.3Q995.2 575.0 993.9 576.6Q992.6 578.1 990.5 578.1L990.5 578.1Q989.2 578.1 988.3 577.6Q987.4 577.0 986.8 576.0L986.8 576.0L986.8 576.0L986.8 576.8Q986.8 577.5 986.4 577.8ZM989.6 575.9L989.6 575.9Q990.9 575.9 991.7 574.9Q992.4 574.0 992.4 572.3Q992.4 570.6 991.7 569.6Q990.9 568.6 989.6 568.6L989.6 568.6Q988.4 568.6 987.6 569.6Q986.8 570.6 986.8 572.3L986.8 572.3Q986.8 573.9 987.6 574.9Q988.4 575.9 989.6 575.9ZM998.5 582.2L998.5 582.2Q997.6 582.2 997.1 581.9Q996.7 581.5 996.7 580.9L996.7 580.9Q996.7 580.5 996.9 580.3Q997.2 580.0 997.7 580.0L997.7 580.0Q997.8 580.0 998.0 580.0Q998.1 580.0 998.3 580.0L998.3 580.0Q999.3 580.0 999.9 578.7L999.9 578.7L1000.1 578.2L996.3 568.3Q996.2 567.9 996.2 567.6L996.2 567.6Q996.2 567.0 996.6 566.7Q997.0 566.3 997.6 566.3L997.6 566.3Q998.1 566.3 998.4 566.6Q998.7 566.8 998.8 567.4L998.8 567.4L1001.6 575.7L1001.6 575.7L1004.3 567.4Q1004.5 566.8 1004.8 566.6Q1005.1 566.3 1005.6 566.3L1005.6 566.3Q1006.2 566.3 1006.5 566.7Q1006.9 567.0 1006.9 567.5L1006.9 567.5Q1006.9 567.9 1006.8 568.3L1006.8 568.3L1003.0 578.4Q1002.2 580.5 1001.2 581.3Q1000.2 582.2 998.5 582.2Z M1018.7 577.9L1014.4 577.9Q1013.8 577.9 1013.4 577.6Q1013.0 577.2 1013.0 576.5L1013.0 576.5L1013.0 563.9Q1013.0 563.2 1013.4 562.8Q1013.8 562.4 1014.4 562.4L1014.4 562.4L1018.7 562.4Q1022.2 562.4 1024.1 564.5Q1026.1 566.5 1026.1 570.2L1026.1 570.2Q1026.1 573.8 1024.1 575.9Q1022.2 577.9 1018.7 577.9L1018.7 577.9ZM1015.8 564.8L1015.8 575.6L1018.4 575.6Q1020.8 575.6 1022.0 574.2Q1023.3 572.8 1023.3 570.2L1023.3 570.2Q1023.3 567.6 1022.0 566.2Q1020.7 564.8 1018.4 564.8L1018.4 564.8L1015.8 564.8ZM1032.0 578.2L1032.0 578.2Q1030.1 578.2 1029.0 577.0Q1027.9 575.9 1027.9 573.9L1027.9 573.9L1027.9 567.7Q1027.9 567.1 1028.3 566.7Q1028.7 566.3 1029.3 566.3Q1029.9 566.3 1030.2 566.7Q1030.6 567.1 1030.6 567.8L1030.6 567.8L1030.6 573.4Q1030.6 574.6 1031.2 575.3Q1031.8 575.9 1032.9 575.9L1032.9 575.9Q1034.1 575.9 1034.7 575.1Q1035.4 574.4 1035.4 573.1L1035.4 573.1L1035.4 567.7Q1035.4 567.1 1035.8 566.7Q1036.2 566.3 1036.8 566.3L1036.8 566.3Q1037.4 566.3 1037.7 566.7Q1038.1 567.1 1038.1 567.8L1038.1 567.8L1038.1 576.8Q1038.1 577.4 1037.7 577.8Q1037.4 578.2 1036.8 578.2L1036.8 578.2Q1036.2 578.2 1035.9 577.8Q1035.5 577.4 1035.5 576.8L1035.5 576.8L1035.5 576.0L1035.5 576.0Q1034.5 578.2 1032.0 578.2ZM1045.2 582.2L1045.2 582.2Q1043.6 582.2 1042.4 581.7Q1041.2 581.1 1040.6 580.2L1040.6 580.2Q1040.3 579.8 1040.3 579.4L1040.3 579.4Q1040.3 578.9 1040.6 578.6Q1041.0 578.3 1041.5 578.3L1041.5 578.3Q1042.0 578.3 1042.4 578.8L1042.4 578.8Q1043.1 579.5 1043.8 579.8Q1044.4 580.1 1045.2 580.1L1045.2 580.1Q1046.6 580.1 1047.3 579.4Q1048.1 578.7 1048.1 577.6L1048.1 577.6L1048.1 575.8L1048.1 575.8Q1047.6 576.7 1046.6 577.3Q1045.7 577.8 1044.5 577.8L1044.5 577.8Q1042.3 577.8 1041.1 576.3Q1039.8 574.7 1039.8 572.1L1039.8 572.1Q1039.8 569.4 1041.1 567.9Q1042.3 566.4 1044.5 566.4L1044.5 566.4Q1045.7 566.4 1046.7 566.9Q1047.6 567.5 1048.1 568.5L1048.1 568.5L1048.1 568.5L1048.1 567.7Q1048.1 567.1 1048.5 566.7Q1048.9 566.3 1049.5 566.3Q1050.1 566.3 1050.4 566.7Q1050.8 567.1 1050.8 567.7L1050.8 567.7L1050.8 577.6Q1050.8 579.7 1049.3 581.0Q1047.8 582.2 1045.2 582.2ZM1045.3 575.7L1045.3 575.7Q1046.6 575.7 1047.4 574.8Q1048.1 573.8 1048.1 572.1L1048.1 572.1Q1048.1 570.5 1047.4 569.5Q1046.6 568.5 1045.3 568.5L1045.3 568.5Q1044.0 568.5 1043.3 569.5Q1042.5 570.5 1042.5 572.1L1042.5 572.1Q1042.5 573.8 1043.3 574.8Q1044.0 575.7 1045.3 575.7ZM1056.3 578.1L1056.3 578.1Q1054.7 578.1 1053.6 577.2Q1052.5 576.2 1052.5 574.7L1052.5 574.7Q1052.5 573.2 1053.6 572.3Q1054.8 571.4 1056.8 571.3L1056.8 571.3L1059.9 571.1L1059.9 570.3Q1059.9 569.4 1059.3 568.9Q1058.7 568.4 1057.7 568.4L1057.7 568.4Q1056.9 568.4 1056.4 568.7Q1055.8 569.0 1055.3 569.8L1055.3 569.8Q1054.9 570.3 1054.3 570.3L1054.3 570.3Q1053.8 570.3 1053.5 570.0Q1053.1 569.7 1053.1 569.2L1053.1 569.2Q1053.1 568.9 1053.3 568.5L1053.3 568.5Q1053.7 567.5 1055.0 566.9Q1056.2 566.3 1057.8 566.3L1057.8 566.3Q1060.0 566.3 1061.2 567.4Q1062.5 568.4 1062.5 570.1L1062.5 570.1L1062.5 576.8Q1062.5 577.5 1062.1 577.8Q1061.8 578.2 1061.2 578.2L1061.2 578.2Q1060.6 578.2 1060.3 577.8Q1060.0 577.5 1059.9 576.9L1059.9 576.9L1059.9 576.1L1059.9 576.1Q1059.4 577.0 1058.4 577.6Q1057.4 578.1 1056.3 578.1ZM1057.1 576.1L1057.1 576.1Q1058.3 576.1 1059.1 575.4Q1059.9 574.7 1059.9 573.7L1059.9 573.7L1059.9 572.9L1057.2 573.0Q1056.3 573.1 1055.7 573.5Q1055.2 573.9 1055.2 574.6L1055.2 574.6Q1055.2 575.3 1055.7 575.7Q1056.3 576.1 1057.1 576.1ZM1067.0 577.8Q1066.6 578.2 1066.0 578.2Q1065.4 578.2 1065.0 577.8Q1064.7 577.4 1064.7 576.8L1064.7 576.8L1064.7 567.7Q1064.7 567.1 1065.0 566.7Q1065.3 566.3 1065.9 566.3L1065.9 566.3Q1066.5 566.3 1066.8 566.7Q1067.2 567.1 1067.2 567.7L1067.2 567.7L1067.2 568.6L1067.3 568.6Q1067.5 567.6 1068.2 567.0Q1068.8 566.4 1069.7 566.4L1069.7 566.4Q1070.3 566.4 1070.6 566.7L1070.6 566.7Q1071.0 567.0 1071.0 567.6L1071.0 567.6Q1071.0 568.2 1070.6 568.6L1070.6 568.6Q1070.2 568.9 1069.4 568.9L1069.4 568.9Q1067.3 568.9 1067.3 571.3L1067.3 571.3L1067.3 576.8Q1067.3 577.4 1067.0 577.8ZM1074.1 575.2L1074.1 575.2Q1074.6 575.2 1075.0 575.5Q1075.3 575.8 1075.3 576.3L1075.3 576.3Q1075.3 576.6 1075.2 576.9L1075.2 576.9L1074.3 580.6Q1074.2 581.1 1073.9 581.3Q1073.7 581.5 1073.2 581.5Q1072.7 581.5 1072.4 581.2Q1072.2 581.0 1072.2 580.5L1072.2 580.5Q1072.2 580.4 1072.2 580.3L1072.2 580.3L1072.8 576.3Q1073.0 575.2 1074.1 575.2Z M1084.2 578.1L1084.2 578.1Q1083.5 578.1 1083.2 577.7Q1082.8 577.4 1082.8 576.7L1082.8 576.7L1082.8 563.9Q1082.8 563.2 1083.2 562.8Q1083.5 562.4 1084.2 562.4L1084.2 562.4L1088.8 562.4Q1091.2 562.4 1092.6 563.9Q1094.1 565.3 1094.1 567.6L1094.1 567.6Q1094.1 569.9 1092.6 571.4Q1091.1 572.8 1088.7 572.8L1088.7 572.8L1085.6 572.8L1085.6 576.7Q1085.6 577.4 1085.2 577.8Q1084.8 578.1 1084.2 578.1ZM1085.6 564.7L1085.6 570.6L1088.1 570.6Q1089.6 570.6 1090.4 569.8Q1091.2 569.0 1091.2 567.6L1091.2 567.6Q1091.2 566.2 1090.4 565.5Q1089.6 564.7 1088.1 564.7L1088.1 564.7L1085.6 564.7ZM1097.7 578.1L1097.7 578.1Q1097.0 578.1 1096.6 577.6Q1096.1 577.2 1096.1 576.5L1096.1 576.5Q1096.1 575.9 1096.6 575.4Q1097.0 575.0 1097.7 575.0L1097.7 575.0Q1098.3 575.0 1098.8 575.4Q1099.2 575.9 1099.2 576.5L1099.2 576.5Q1099.2 577.2 1098.8 577.6Q1098.3 578.1 1097.7 578.1Z M1111.2 578.2L1111.2 578.2Q1108.6 578.2 1107.1 576.6Q1105.7 575.1 1105.7 572.3L1105.7 572.3Q1105.7 569.6 1107.1 567.9Q1108.6 566.3 1111.0 566.3L1111.0 566.3Q1113.4 566.3 1114.8 567.8Q1116.3 569.3 1116.3 571.6L1116.3 571.6Q1116.3 572.2 1116.0 572.6Q1115.6 572.9 1115.0 572.9L1115.0 572.9L1108.3 572.9L1108.3 573.0Q1108.3 574.4 1109.1 575.3Q1109.9 576.1 1111.2 576.1L1111.2 576.1Q1112.1 576.1 1112.7 575.8Q1113.4 575.4 1114.0 574.6L1114.0 574.6Q1114.4 574.2 1114.9 574.2L1114.9 574.2Q1115.4 574.2 1115.7 574.4Q1116.0 574.7 1116.0 575.2L1116.0 575.2Q1116.0 575.5 1115.8 575.9L1115.8 575.9Q1115.2 577.0 1114.0 577.6Q1112.8 578.2 1111.2 578.2ZM1108.3 571.1L1108.3 571.1L1113.7 571.1Q1113.6 569.9 1112.9 569.1Q1112.2 568.4 1111.0 568.4Q1109.9 568.4 1109.2 569.2Q1108.4 569.9 1108.3 571.1ZM1118.7 575.1L1118.7 575.1L1118.7 568.6L1118.0 568.6Q1117.5 568.6 1117.2 568.3Q1116.9 568.1 1116.9 567.6L1116.9 567.6Q1116.9 567.1 1117.2 566.8Q1117.5 566.6 1118.0 566.6L1118.0 566.6L1118.7 566.6L1118.7 565.0Q1118.7 564.4 1119.1 564.0Q1119.5 563.6 1120.1 563.6L1120.1 563.6Q1120.7 563.6 1121.1 564.0Q1121.4 564.4 1121.4 565.0L1121.4 565.0L1121.4 566.6L1122.6 566.6Q1123.2 566.6 1123.4 566.8Q1123.7 567.1 1123.7 567.6L1123.7 567.6Q1123.7 568.1 1123.4 568.3Q1123.1 568.6 1122.6 568.6L1122.6 568.6L1121.4 568.6L1121.4 574.6Q1121.4 575.2 1121.7 575.5Q1121.9 575.8 1122.5 575.9L1122.5 575.9L1122.7 575.9Q1123.8 576.0 1123.8 576.9L1123.8 576.9Q1123.8 577.5 1123.3 577.8Q1122.8 578.1 1121.8 578.1L1121.8 578.1L1121.7 578.1Q1118.7 578.1 1118.7 575.1Z M1133.1 578.1L1133.1 578.1Q1131.5 578.1 1130.4 577.2Q1129.3 576.2 1129.3 574.7L1129.3 574.7Q1129.3 573.2 1130.4 572.3Q1131.6 571.4 1133.6 571.3L1133.6 571.3L1136.7 571.1L1136.7 570.3Q1136.7 569.4 1136.1 568.9Q1135.5 568.4 1134.5 568.4L1134.5 568.4Q1133.7 568.4 1133.2 568.7Q1132.6 569.0 1132.2 569.8L1132.2 569.8Q1131.7 570.3 1131.1 570.3L1131.1 570.3Q1130.6 570.3 1130.3 570.0Q1129.9 569.7 1129.9 569.2L1129.9 569.2Q1129.9 568.9 1130.1 568.5L1130.1 568.5Q1130.6 567.5 1131.8 566.9Q1133.0 566.3 1134.6 566.3L1134.6 566.3Q1136.8 566.3 1138.0 567.4Q1139.3 568.4 1139.3 570.1L1139.3 570.1L1139.3 576.8Q1139.3 577.5 1138.9 577.8Q1138.6 578.2 1138.0 578.2L1138.0 578.2Q1137.5 578.2 1137.1 577.8Q1136.8 577.5 1136.7 576.9L1136.7 576.9L1136.7 576.1L1136.7 576.1Q1136.2 577.0 1135.2 577.6Q1134.2 578.1 1133.1 578.1ZM1133.9 576.1L1133.9 576.1Q1135.1 576.1 1135.9 575.4Q1136.7 574.7 1136.7 573.7L1136.7 573.7L1136.7 572.9L1134.0 573.0Q1133.1 573.1 1132.5 573.5Q1132.0 573.9 1132.0 574.6L1132.0 574.6Q1132.0 575.3 1132.5 575.7Q1133.1 576.1 1133.9 576.1ZM1143.8 577.8Q1143.5 578.2 1142.9 578.2Q1142.3 578.2 1141.9 577.8Q1141.5 577.4 1141.5 576.8L1141.5 576.8L1141.5 563.6Q1141.5 563.0 1141.9 562.6Q1142.3 562.2 1142.9 562.2Q1143.5 562.2 1143.8 562.6Q1144.2 563.0 1144.2 563.6L1144.2 563.6L1144.2 576.8Q1144.2 577.4 1143.8 577.8ZM1148.4 578.1L1148.4 578.1Q1147.7 578.1 1147.3 577.6Q1146.8 577.2 1146.8 576.5L1146.8 576.5Q1146.8 575.9 1147.3 575.4Q1147.7 575.0 1148.4 575.0L1148.4 575.0Q1149.0 575.0 1149.4 575.4Q1149.9 575.9 1149.9 576.5L1149.9 576.5Q1149.9 577.2 1149.4 577.6Q1149.0 578.1 1148.4 578.1Z " clip-path="url(#satori_cp-id-0)" mask="url(#satori_om-id-0)"/></svg>