<svg width="1200" height="630" viewBox="0 0 1200 630" xmlns="http://www.w3.org/2000/svg"><mask id="satori_om-id"><rect x="0" y="0" width="1200" height="630" fill="#fff"/></mask><defs><pattern id="satori_pattern_id-0_0" x="0" y="0" width="1" height="1" patternUnits="objectBoundingBox"><linearGradient id="satori_biid-0_0" x1="-0.09774620284174435" y1="0.18618324350808482" x2="1.0977462028417444" y2="0.8138167564919152" spreadMethod="pad"><stop offset="0%" stop-color="#f8fafc"/><stop offset="50%" stop-color="#eef2ff"/><stop offset="100%" stop-color="#ffffff"/></linearGradient><rect x="0" y="0" width="1200" height="630" fill="url(#satori_biid-0_0)"/></pattern></defs><clipPath id="satori_cp-id-0"><rect x="0" y="0" width="1200" height="630"/></clipPath><mask id="satori_om-id-0"><rect x="0" y="0" width="1200" height="630" fill="#fff"/></mask><rect x="0" y="0" width="1200" height="630" fill="url(#satori_pattern_id-0_0)"/><mask id="satori_om-id-0-0"><rect x="0" y="0" width="1200" height="509" fill="#fff" mask="url(#satori_om-id-0)"/></mask><mask id="satori_om-id-0-0-0"><rect x="72" y="72" width="1056" height="365" fill="#fff" mask="url(#satori_om-id-0)"/></mask><mask id="satori_om-id-0-0-0-0"><rect x="72" y="113" width="1056" height="38" fill="#fff" mask="url(#satori_om-id-0)"/></mask><path fill="#64748b" d="M82.7 143.2Q82.2 143.7 81.4 143.7Q80.6 143.7 80.1 143.2Q79.7 142.8 79.7 141.9L79.7 141.9L79.7 124.0L74.1 124.0Q73.4 124.0 73.0 123.5Q72.5 123.1 72.5 122.4Q72.5 121.8 73.0 121.3Q73.4 120.9 74.1 120.9L74.1 120.9L88.7 120.9Q89.4 120.9 89.9 121.3Q90.3 121.8 90.3 122.4Q90.3 123.1 89.9 123.5Q89.4 124.0 88.7 124.0L88.7 124.0L83.2 124.0L83.2 141.9Q83.2 142.8 82.7 143.2ZM95.5 143.3Q95.1 143.8 94.3 143.8Q93.6 143.8 93.1 143.3Q92.6 142.8 92.6 142.0L92.6 142.0L92.6 122.4Q92.6 121.6 93.1 121.1Q93.5 120.6 94.3 120.6L94.3 120.6Q95.1 120.6 95.5 121.1Q96.0 121.6 96.0 122.4L96.0 122.4L96.0 129.8L96.0 129.8Q96.7 128.3 98.1 127.5Q99.4 126.8 101.3 126.8L101.3 126.8Q103.9 126.8 105.5 128.4Q107.0 130.1 107.0 132.9L107.0 132.9L107.0 142.0Q107.0 142.8 106.5 143.3Q106.1 143.8 105.3 143.8L105.3 143.8Q104.6 143.8 104.1 143.3Q103.6 142.8 103.6 142.0L103.6 142.0L103.6 133.5Q103.6 131.7 102.7 130.7Q101.8 129.7 100.0 129.7L100.0 129.7Q98.2 129.7 97.1 130.8Q96 132.0 96 134.0L96 134.0L96 142.0Q96 142.8 95.5 143.3ZM116.0 143.8L116.0 143.8Q113.3 143.8 111.7 142.1Q110.2 140.5 110.2 137.7L110.2 137.7L110.2 128.5Q110.2 127.7 110.6 127.2Q111.1 126.7 111.9 126.7L111.9 126.7Q112.6 126.7 113.1 127.2Q113.6 127.7 113.6 128.5L113.6 128.5L113.6 137.0Q113.6 138.9 114.5 139.9Q115.3 140.9 117.1 140.9L117.1 140.9Q118.9 140.9 119.9 139.7Q121.0 138.5 121.0 136.6L121.0 136.6L121.0 128.5Q121.0 127.7 121.5 127.2Q121.9 126.7 122.7 126.7L122.7 126.7Q123.4 126.7 123.9 127.2Q124.4 127.7 124.4 128.5L124.4 128.5L124.4 142.0Q124.4 142.8 123.9 143.3Q123.5 143.8 122.8 143.8Q122.0 143.8 121.6 143.3Q121.1 142.8 121.1 142.1L121.1 142.1L121.1 140.7L121.0 140.7Q119.6 143.8 116.0 143.8ZM129.4 143.8L129.4 143.8Q128.6 143.8 128.1 143.3Q127.7 142.8 127.7 142.0L127.7 142.0L127.7 128.4Q127.7 127.7 128.1 127.2Q128.6 126.7 129.3 126.7L129.3 126.7Q130 126.7 130.4 127.2Q130.9 127.7 130.9 128.4L130.9 128.4L130.9 129.8L131.0 129.8Q131.3 128.5 132.3 127.6Q133.3 126.8 134.6 126.8L134.6 126.8Q135.5 126.8 135.9 127.2L135.9 127.2Q136.4 127.5 136.4 128.4L136.4 128.4Q136.4 129.1 135.9 129.5L135.9 129.5Q135.4 130.0 134.3 130.0L134.3 130.0Q132.7 130 131.9 131.0Q131.1 132.0 131.1 133.6L131.1 133.6L131.1 142.0Q131.1 142.8 130.6 143.3Q130.1 143.8 129.4 143.8ZM144.3 143.8L144.3 143.8Q141.9 143.8 140.2 142.9Q138.5 142.0 137.9 140.4L137.9 140.4Q137.7 140.1 137.7 139.7L137.7 139.7Q137.7 139.1 138.1 138.8Q138.5 138.4 139.2 138.4L139.2 138.4Q140.0 138.4 140.6 139.3L140.6 139.3Q141.3 140.3 142.1 140.8Q143.0 141.2 144.4 141.2L144.4 141.2Q145.9 141.2 146.8 140.6Q147.6 140.0 147.6 139.0L147.6 139.0Q147.6 138.2 147.1 137.7Q146.5 137.3 145.2 136.9L145.2 136.9L142.6 136.3Q137.9 135.2 137.9 131.7L137.9 131.7Q137.9 129.4 139.7 128.1Q141.5 126.7 144.4 126.7L144.4 126.7Q146.6 126.7 148.2 127.7Q149.9 128.7 150.3 130.2L150.3 130.2Q150.3 130.6 150.3 130.7L150.3 130.7Q150.3 131.3 150.0 131.6Q149.6 131.9 149 131.9L149 131.9Q148.1 131.9 147.6 131.2L147.6 131.2Q147.1 130.3 146.3 129.8Q145.5 129.3 144.3 129.3L144.3 129.3Q142.9 129.3 142.0 129.9Q141.2 130.5 141.2 131.5L141.2 131.5Q141.2 133.0 143.7 133.6L143.7 133.6L146.3 134.2Q148.9 134.8 150.0 135.9Q151.0 136.9 151.0 138.7L151.0 138.7Q151.0 141.0 149.2 142.4Q147.3 143.8 144.3 143.8ZM159.8 143.8L159.8 143.8Q156.7 143.8 154.8 141.4Q152.9 139.1 152.9 135.3Q152.9 131.4 154.8 129.1Q156.7 126.8 159.8 126.8L159.8 126.8Q161.5 126.8 162.9 127.6Q164.3 128.4 165.0 129.8L165.0 129.8L165.0 129.8L165.0 122.4Q165.0 121.6 165.5 121.1Q166.0 120.6 166.7 120.6L166.7 120.6Q167.5 120.6 167.9 121.1Q168.4 121.6 168.4 122.4L168.4 122.4L168.4 142.1Q168.4 142.9 167.9 143.3Q167.5 143.8 166.7 143.8L166.7 143.8Q166 143.8 165.5 143.3Q165.0 142.9 165.0 142.1L165.0 142.1L165.0 140.5L165.0 140.5Q164.3 142.0 163 142.9Q161.7 143.8 159.8 143.8ZM160.7 140.9L160.7 140.9Q162.7 140.9 163.9 139.4Q165.0 137.8 165.0 135.3L165.0 135.3Q165.0 132.7 163.9 131.2Q162.7 129.6 160.7 129.6L160.7 129.6Q158.7 129.6 157.5 131.1Q156.4 132.7 156.4 135.3L156.4 135.3Q156.4 137.9 157.5 139.4Q158.7 140.9 160.7 140.9ZM176.7 143.8L176.7 143.8Q174.3 143.8 172.7 142.4Q171.2 141 171.2 138.8L171.2 138.8Q171.2 136.6 172.8 135.4Q174.4 134.1 177.3 133.9L177.3 133.9L181.8 133.7L181.8 132.4Q181.8 131.0 180.9 130.3Q180.1 129.5 178.5 129.5L178.5 129.5Q177.3 129.5 176.4 130.0Q175.6 130.5 174.9 131.6L174.9 131.6Q174.4 132.3 173.5 132.3L173.5 132.3Q172.9 132.3 172.5 131.9Q172.0 131.5 172.0 130.9L172.0 130.9Q172.0 130.3 172.3 129.8L172.3 129.8Q173.0 128.4 174.7 127.6Q176.4 126.7 178.6 126.7L178.6 126.7Q181.6 126.7 183.4 128.2Q185.2 129.7 185.2 132.1L185.2 132.1L185.2 142.1Q185.2 142.8 184.7 143.3Q184.3 143.8 183.5 143.8L183.5 143.8Q182.8 143.8 182.4 143.3Q182.0 142.9 181.9 142.2L181.9 142.2L181.9 140.8L181.9 140.8Q181.2 142.1 179.7 142.9Q178.3 143.8 176.7 143.8ZM177.6 141.1L177.6 141.1Q179.4 141.1 180.6 140.0Q181.8 138.9 181.8 137.3L181.8 137.3L181.8 136.0L177.8 136.3Q176.2 136.4 175.4 137.0Q174.6 137.6 174.6 138.7L174.6 138.7Q174.6 139.8 175.4 140.4Q176.3 141.1 177.6 141.1ZM190.5 149.6L190.5 149.6Q189.3 149.6 188.7 149.2Q188.0 148.8 188.0 148.0L188.0 148.0Q188.0 147.4 188.4 147.1Q188.8 146.8 189.4 146.8L189.4 146.8Q189.5 146.8 189.8 146.8Q190.0 146.8 190.2 146.8L190.2 146.8Q191.9 146.8 192.7 144.6L192.7 144.6L193.0 143.6L187.5 129.3Q187.4 128.7 187.4 128.3L187.4 128.3Q187.4 127.6 187.8 127.2Q188.3 126.7 189.1 126.7L189.1 126.7Q189.7 126.7 190.1 127.0Q190.5 127.3 190.7 128.0L190.7 128.0L194.9 140.4L194.9 140.4L199.1 128.0Q199.3 127.3 199.7 127.0Q200.1 126.7 200.8 126.7L200.8 126.7Q201.5 126.7 201.9 127.2Q202.4 127.6 202.4 128.3L202.4 128.3Q202.4 128.7 202.2 129.2L202.2 129.2L196.5 144.3Q195.4 147.3 194.1 148.4Q192.8 149.6 190.5 149.6ZM207.2 139.7L207.2 139.7Q207.9 139.7 208.3 140.0Q208.7 140.4 208.7 141.1L208.7 141.1Q208.7 141.5 208.6 142.0L208.6 142.0L207.3 147.3Q207.0 148.5 205.8 148.5L205.8 148.5Q205.2 148.5 204.9 148.1Q204.5 147.8 204.5 147.3L204.5 147.3Q204.5 147.1 204.5 146.9L204.5 146.9L205.5 141.1Q205.8 139.7 207.2 139.7Z M233.7 143.5L221.2 143.5Q220.4 143.5 220.0 143.1Q219.5 142.7 219.5 142L219.5 142Q219.5 141.5 219.7 141.1Q219.9 140.8 220.5 140.2L220.5 140.2L227.6 133.0Q229.8 130.8 230.5 129.6Q231.2 128.4 231.2 127.1L231.2 127.1Q231.2 125.5 230.1 124.4Q229 123.4 227.3 123.4L227.3 123.4Q224.0 123.4 222.8 126.7L222.8 126.7Q222.5 127.3 222.2 127.6Q221.8 127.9 221.2 127.9L221.2 127.9Q220.5 127.9 220.1 127.5Q219.6 127.0 219.6 126.4L219.6 126.4Q219.6 126 219.7 125.6L219.7 125.6Q219.9 124.7 220.5 123.8Q221.1 122.9 222.0 122.2Q222.9 121.4 224.3 121.0Q225.7 120.5 227.3 120.5L227.3 120.5Q230.5 120.5 232.6 122.3Q234.7 124.1 234.7 126.9L234.7 126.9Q234.7 128.8 233.6 130.5Q232.6 132.1 229.7 135.0L229.7 135.0L224.3 140.4L224.3 140.5L233.7 140.5Q234.4 140.5 234.8 140.9Q235.2 141.3 235.2 142L235.2 142Q235.2 142.7 234.8 143.1Q234.4 143.5 233.7 143.5L233.7 143.5ZM246.6 143.9L246.6 143.9Q244.0 143.9 242.0 142.6Q240.1 141.3 239.0 138.9L239.0 138.9Q237.8 136.3 237.8 132.5L237.8 132.5Q237.8 126.8 240.1 123.7Q242.5 120.5 246.8 120.5L246.8 120.5Q249.1 120.5 251.0 121.5Q252.8 122.4 253.7 124.1L253.7 124.1Q254.1 124.8 254.1 125.4L254.1 125.4Q254.1 126.0 253.7 126.4Q253.3 126.8 252.6 126.8L252.6 126.8Q252.0 126.8 251.7 126.6Q251.3 126.3 250.8 125.7L250.8 125.7Q249.3 123.4 246.7 123.4L246.7 123.4Q244.1 123.4 242.6 125.7Q241.2 128.0 241.1 132.1L241.1 132.1L241.1 132.3L241.2 132.3Q241.9 130.7 243.6 129.7Q245.2 128.7 247.4 128.7L247.4 128.7Q250.7 128.7 252.8 130.8Q254.9 132.9 254.9 136.1L254.9 136.1Q254.9 139.5 252.5 141.7Q250.2 143.9 246.6 143.9ZM246.6 141.0L246.6 141.0Q248.6 141.0 250.0 139.6Q251.4 138.2 251.4 136.2L251.4 136.2Q251.4 134.2 250.0 132.8Q248.7 131.5 246.6 131.5Q244.5 131.5 243.2 132.8Q241.8 134.1 241.8 136.1L241.8 136.1Q241.8 138.2 243.2 139.6Q244.6 141.0 246.6 141.0Z M282.1 140.7Q279.3 143.8 274.4 143.8Q269.5 143.8 266.7 140.7Q263.8 137.6 263.8 132.2Q263.8 126.8 266.7 123.7Q269.5 120.5 274.4 120.5L274.4 120.5Q279.2 120.5 282.1 123.7Q284.9 126.8 284.9 132.2Q284.9 137.6 282.1 140.7ZM274.4 140.8L274.4 140.8Q277.6 140.8 279.5 138.5Q281.3 136.1 281.3 132.2L281.3 132.2Q281.3 128.3 279.5 125.9Q277.6 123.6 274.4 123.6L274.4 123.6Q271.2 123.6 269.3 125.9Q267.4 128.3 267.4 132.2L267.4 132.2Q267.4 136.1 269.3 138.5Q271.2 140.8 274.4 140.8ZM294.9 143.8L294.9 143.8Q291.3 143.8 289.2 141.5Q287.1 139.2 287.1 135.3L287.1 135.3Q287.1 131.4 289.2 129.1Q291.3 126.7 294.9 126.7L294.9 126.7Q297.2 126.7 299.1 127.9Q300.9 129.0 301.5 130.7L301.5 130.7Q301.6 131.2 301.6 131.5L301.6 131.5Q301.6 132.1 301.2 132.5Q300.8 132.9 300.2 132.9L300.2 132.9Q299.7 132.9 299.3 132.7Q299.0 132.4 298.7 131.9L298.7 131.9Q298.0 130.7 297.1 130.1Q296.2 129.5 294.9 129.5L294.9 129.5Q292.9 129.5 291.8 131.1Q290.6 132.6 290.6 135.3L290.6 135.3Q290.6 137.9 291.8 139.4Q292.9 141.0 294.9 141.0L294.9 141.0Q297.4 141.0 298.7 138.7L298.7 138.7Q299.0 138.1 299.3 137.9Q299.7 137.6 300.2 137.6L300.2 137.6Q300.8 137.6 301.3 138.0Q301.7 138.4 301.7 139.0L301.7 139.0Q301.7 139.4 301.5 139.9L301.5 139.9Q300.8 141.6 299 142.7Q297.2 143.8 294.9 143.8ZM305.4 139.5L305.4 139.5L305.4 129.7L304.2 129.7Q303.5 129.7 303.2 129.4Q302.8 129 302.8 128.4Q302.8 127.8 303.2 127.4Q303.5 127.0 304.2 127.0L304.2 127.0L305.4 127.0L305.4 124.6Q305.4 123.8 305.8 123.3Q306.3 122.8 307.1 122.8Q307.8 122.8 308.3 123.3Q308.8 123.8 308.8 124.6L308.8 124.6L308.8 127.0L310.7 127.0Q311.3 127.0 311.7 127.4Q312.1 127.8 312.1 128.4Q312.1 129 311.7 129.4Q311.3 129.7 310.7 129.7L310.7 129.7L308.8 129.7L308.8 138.8Q308.8 139.8 309.1 140.3Q309.5 140.7 310.4 140.8L310.4 140.8L310.7 140.8Q312.2 140.9 312.2 142.1L312.2 142.1Q312.2 143.6 309.7 143.6L309.7 143.6L309.5 143.6Q305.4 143.6 305.4 139.5ZM327.4 141.5Q325.3 143.8 321.7 143.8Q318.2 143.8 316.0 141.5Q313.9 139.2 313.9 135.3L313.9 135.3Q313.9 131.3 316.0 129.0Q318.2 126.7 321.7 126.7Q325.3 126.7 327.4 129.0Q329.5 131.3 329.5 135.3L329.5 135.3Q329.5 139.2 327.4 141.5ZM321.7 141L321.7 141Q323.7 141 324.9 139.5Q326.1 138.0 326.1 135.3L326.1 135.3Q326.1 132.5 324.9 131.0Q323.7 129.5 321.7 129.5Q319.7 129.5 318.5 131.0Q317.4 132.5 317.4 135.3L317.4 135.3Q317.4 138.0 318.5 139.5Q319.7 141 321.7 141ZM333.9 143.8L333.9 143.8Q333.1 143.8 332.7 143.3Q332.3 142.9 332.3 142.1L332.3 142.1L332.3 122.4Q332.3 121.6 332.7 121.1Q333.2 120.6 333.9 120.6Q334.7 120.6 335.2 121.1Q335.6 121.6 335.6 122.4L335.6 122.4L335.6 129.8L335.7 129.8Q336.5 128.4 337.8 127.6Q339.2 126.8 340.9 126.8L340.9 126.8Q344.0 126.8 345.9 129.1Q347.8 131.4 347.8 135.3L347.8 135.3Q347.8 139.2 345.9 141.5Q344.0 143.8 340.9 143.8L340.9 143.8Q339.1 143.8 337.7 142.9Q336.4 142.1 335.6 140.7L335.6 140.7L335.5 140.7L335.5 142.1Q335.5 142.9 335.1 143.3Q334.6 143.8 333.9 143.8ZM340.0 140.9L340.0 140.9Q342.0 140.9 343.1 139.4Q344.3 137.9 344.3 135.3L344.3 135.3Q344.3 132.7 343.1 131.1Q342.0 129.6 340.0 129.6L340.0 129.6Q338.0 129.6 336.8 131.2Q335.6 132.7 335.6 135.3L335.6 135.3Q335.6 137.8 336.8 139.3Q338.0 140.9 340.0 140.9ZM357.5 143.8L357.5 143.8Q353.8 143.8 351.7 141.5Q349.6 139.3 349.6 135.3L349.6 135.3Q349.6 131.4 351.7 129.1Q353.8 126.7 357.3 126.7L357.3 126.7Q360.5 126.7 362.6 128.9Q364.6 131 364.6 134.4L364.6 134.4Q364.6 135.2 364.2 135.6Q363.8 136.1 363.0 136.1L363.0 136.1L353.0 136.1L353.0 136.2Q353.0 138.4 354.2 139.7Q355.4 141.0 357.4 141.0L357.4 141.0Q358.8 141.0 359.8 140.5Q360.7 140.0 361.7 138.7L361.7 138.7Q362.2 138.1 362.8 138.1L362.8 138.1Q363.5 138.1 363.9 138.5Q364.3 138.9 364.3 139.5L364.3 139.5Q364.3 139.8 364.0 140.4L364.0 140.4Q363.2 142 361.5 142.9Q359.8 143.8 357.5 143.8ZM353.0 133.7L353.0 133.7L361.3 133.7Q361.2 131.8 360.1 130.6Q359 129.5 357.2 129.5L357.2 129.5Q355.5 129.5 354.3 130.6Q353.2 131.8 353.0 133.7ZM368.9 143.8L368.9 143.8Q368.2 143.8 367.7 143.3Q367.3 142.8 367.3 142.0L367.3 142.0L367.3 128.4Q367.3 127.7 367.7 127.2Q368.1 126.7 368.9 126.7L368.9 126.7Q369.6 126.7 370.0 127.2Q370.5 127.7 370.5 128.4L370.5 128.4L370.5 129.8L370.5 129.8Q370.9 128.5 371.9 127.6Q372.9 126.8 374.1 126.8L374.1 126.8Q375.0 126.8 375.5 127.2L375.5 127.2Q375.9 127.5 375.9 128.4L375.9 128.4Q375.9 129.1 375.4 129.5L375.4 129.5Q374.9 130.0 373.9 130.0L373.9 130.0Q372.2 130 371.4 131.0Q370.6 132.0 370.6 133.6L370.6 133.6L370.6 142.0Q370.6 142.8 370.2 143.3Q369.7 143.8 368.9 143.8Z M398.4 143.5L385.9 143.5Q385.1 143.5 384.7 143.1Q384.3 142.7 384.3 142L384.3 142Q384.3 141.5 384.4 141.1Q384.6 140.8 385.2 140.2L385.2 140.2L392.3 133.0Q394.5 130.8 395.2 129.6Q395.9 128.4 395.9 127.1L395.9 127.1Q395.9 125.5 394.8 124.4Q393.7 123.4 392 123.4L392 123.4Q388.7 123.4 387.5 126.7L387.5 126.7Q387.2 127.3 386.9 127.6Q386.5 127.9 385.9 127.9L385.9 127.9Q385.2 127.9 384.8 127.5Q384.3 127.0 384.3 126.4L384.3 126.4Q384.3 126 384.4 125.6L384.4 125.6Q384.6 124.7 385.2 123.8Q385.8 122.9 386.7 122.2Q387.6 121.4 389.0 121.0Q390.4 120.5 392.0 120.5L392.0 120.5Q395.3 120.5 397.3 122.3Q399.4 124.1 399.4 126.9L399.4 126.9Q399.4 128.8 398.3 130.5Q397.3 132.1 394.4 135.0L394.4 135.0L389 140.4L389 140.5L398.4 140.5Q399.1 140.5 399.5 140.9Q399.9 141.3 399.9 142L399.9 142Q399.9 142.7 399.5 143.1Q399.1 143.5 398.4 143.5L398.4 143.5ZM417.4 140.7Q415.1 143.9 411.1 143.9Q407.0 143.9 404.8 140.7Q402.5 137.6 402.5 132.2L402.5 132.2Q402.5 126.8 404.8 123.6Q407.1 120.5 411.1 120.5L411.1 120.5Q415.1 120.5 417.4 123.6Q419.7 126.8 419.7 132.2L419.7 132.2Q419.7 137.6 417.4 140.7ZM411.1 141.0L411.1 141.0Q413.5 141.0 414.8 138.6Q416.2 136.3 416.2 132.2L416.2 132.2Q416.2 128.1 414.8 125.8Q413.5 123.4 411.1 123.4Q408.7 123.4 407.3 125.8Q406 128.1 406 132.2L406 132.2Q406 136.3 407.3 138.6Q408.7 141.0 411.1 141.0ZM436.9 143.5L424.4 143.5Q423.6 143.5 423.2 143.1Q422.8 142.7 422.8 142L422.8 142Q422.8 141.5 422.9 141.1Q423.1 140.8 423.7 140.2L423.7 140.2L430.8 133.0Q433.0 130.8 433.7 129.6Q434.4 128.4 434.4 127.1L434.4 127.1Q434.4 125.5 433.3 124.4Q432.2 123.4 430.5 123.4L430.5 123.4Q427.2 123.4 426.0 126.7L426.0 126.7Q425.7 127.3 425.4 127.6Q425 127.9 424.4 127.9L424.4 127.9Q423.7 127.9 423.3 127.5Q422.8 127.0 422.8 126.4L422.8 126.4Q422.8 126 422.9 125.6L422.9 125.6Q423.1 124.7 423.7 123.8Q424.3 122.9 425.2 122.2Q426.1 121.4 427.5 121.0Q428.9 120.5 430.5 120.5L430.5 120.5Q433.8 120.5 435.8 122.3Q437.9 124.1 437.9 126.9L437.9 126.9Q437.9 128.8 436.8 130.5Q435.8 132.1 432.9 135.0L432.9 135.0L427.5 140.4L427.5 140.5L436.9 140.5Q437.6 140.5 438.0 140.9Q438.4 141.3 438.4 142L438.4 142Q438.4 142.7 438.0 143.1Q437.6 143.5 436.9 143.5L436.9 143.5ZM449.2 143.9L449.2 143.9Q446.5 143.9 444.6 142.9Q442.7 141.9 441.8 140.2L441.8 140.2Q441.3 139.3 441.3 138.5L441.3 138.5Q441.3 137.8 441.7 137.4Q442.1 136.9 442.9 136.9L442.9 136.9Q443.4 136.9 443.8 137.2Q444.2 137.5 444.4 138.1L444.4 138.1Q445.6 141.0 449.2 141.0L449.2 141.0Q451.3 141.0 452.5 139.9Q453.8 138.9 453.8 137.2L453.8 137.2Q453.8 135.3 452.5 134.3Q451.3 133.2 449.0 133.2L449.0 133.2L447.5 133.2Q446.8 133.2 446.4 132.8Q446.0 132.5 446.0 131.8Q446.0 131.2 446.4 130.9Q446.8 130.5 447.5 130.5L447.5 130.5L448.9 130.5Q450.8 130.5 452 129.5Q453.2 128.4 453.2 126.9L453.2 126.9Q453.2 125.3 452.2 124.3Q451.1 123.4 449.2 123.4L449.2 123.4Q447.5 123.4 446.5 124.1Q445.4 124.8 444.8 126.2L444.8 126.2Q444.6 126.9 444.2 127.2Q443.9 127.4 443.3 127.4L443.3 127.4Q442.5 127.4 442.1 127.0Q441.8 126.6 441.8 125.9L441.8 125.9Q441.8 125.1 442.2 124.2L442.2 124.2Q443.0 122.5 444.9 121.5Q446.7 120.5 449.2 120.5L449.2 120.5Q452.6 120.5 454.6 122.2Q456.6 123.8 456.6 126.4L456.6 126.4Q456.6 128.4 455.3 129.8Q454 131.2 451.9 131.7L451.9 131.7L451.9 131.8Q454.4 132.0 455.9 133.4Q457.4 134.9 457.4 137.2L457.4 137.2Q457.4 140.2 455.1 142.0Q452.8 143.9 449.2 143.9Z " clip-path="url(#satori_cp-id-0)" mask="url(#satori_om-id-0)"/><mask id="satori_om-id-0-0-0-1"><rect x="72" y="175" width="1056" height="221" fill="#fff" mask="url(#satori_om-id-0)"/></mask><path fill="#0f172a" d="M83.9 233.8Q82.7 235.1 80.5 235.1Q78.3 235.1 77 233.8Q75.8 232.6 75.8 230.2L75.8 230.2L75.8 194.4Q75.8 192.1 77 190.8Q78.3 189.5 80.5 189.5L80.5 189.5L94.1 189.5Q101.1 189.5 105.4 193.7Q109.7 198.0 109.7 204.9L109.7 204.9Q109.7 211.8 105.3 216.1Q100.8 220.3 93.6 220.3L93.6 220.3L85.2 220.3L85.2 230.2Q85.2 232.6 83.9 233.8ZM85.2 196.9L85.2 213.0L91.6 213.0Q95.6 213.0 97.9 210.9Q100.1 208.8 100.1 204.9Q100.1 201.1 97.9 199.0Q95.7 196.9 91.6 196.9L91.6 196.9L85.2 196.9ZM129.9 235.3L129.9 235.3Q122.1 235.3 117.7 230.7Q113.3 226.1 113.3 218.0L113.3 218.0Q113.3 209.9 117.7 205.1Q122.0 200.3 129.5 200.3L129.5 200.3Q136.6 200.3 141.0 204.7Q145.3 209.1 145.3 215.9L145.3 215.9Q145.3 217.8 144.3 218.9Q143.3 219.9 141.4 219.9L141.4 219.9L122.3 219.9L122.3 220.3Q122.3 224.0 124.3 226.3Q126.4 228.5 129.9 228.5L129.9 228.5Q132.4 228.5 134.2 227.6Q136.0 226.7 137.9 224.5L137.9 224.5Q139.2 223.1 140.8 223.1L140.8 223.1Q142.4 223.1 143.4 224.1Q144.4 225.0 144.4 226.5L144.4 226.5Q144.4 227.6 143.8 228.7L143.8 228.7Q142.1 231.8 138.4 233.5Q134.8 235.3 129.9 235.3ZM122.3 214.3L122.3 214.3L136.6 214.3Q136.4 211.0 134.5 209.1Q132.6 207.1 129.6 207.1Q126.6 207.1 124.6 209.1Q122.6 211.1 122.3 214.3ZM152.5 226.0L152.5 226.0L152.5 207.9L150.7 207.9Q149.1 207.9 148.1 207.0Q147.2 206.1 147.2 204.5Q147.2 202.9 148.1 202.0Q149.1 201.1 150.7 201.1L150.7 201.1L152.5 201.1L152.5 197.3Q152.5 195.1 153.7 193.8Q154.9 192.6 157.0 192.6Q159.2 192.6 160.4 193.8Q161.6 195.1 161.6 197.3L161.6 197.3L161.6 201.1L164.8 201.1Q166.4 201.1 167.4 202.0Q168.3 202.9 168.3 204.5Q168.3 206.1 167.4 207.0Q166.4 207.9 164.8 207.9L164.8 207.9L161.6 207.9L161.6 224.0Q161.6 225.7 162.3 226.6Q162.9 227.4 164.4 227.5L164.4 227.5L165.0 227.6Q166.7 227.7 167.6 228.5Q168.4 229.3 168.4 230.9L168.4 230.9Q168.4 232.8 166.7 233.9Q164.9 234.9 162.0 234.9L162.0 234.9L161.7 234.9Q152.5 234.9 152.5 226.0ZM177.3 235.2L177.3 235.2Q175.3 235.2 174.0 234.0Q172.8 232.7 172.8 230.5L172.8 230.5L172.8 205.0Q172.8 202.8 174.0 201.6Q175.2 200.4 177.2 200.4L177.2 200.4Q179.1 200.4 180.3 201.6Q181.5 202.8 181.5 205.0L181.5 205.0L181.5 207.1L181.7 207.1Q182.3 204.1 184.2 202.3Q186.1 200.5 188.7 200.5L188.7 200.5Q190.5 200.5 191.5 201.4L191.5 201.4Q192.8 202.4 192.8 204.7L192.8 204.7Q192.8 206.9 191.5 208.0L191.5 208.0Q190.2 209.2 187.5 209.2L187.5 209.2Q184.5 209.2 183.2 210.8Q181.9 212.5 181.9 215.6L181.9 215.6L181.9 230.5Q181.9 232.7 180.7 234.0Q179.5 235.2 177.3 235.2ZM204.3 195.5Q202.8 196.9 200.8 196.9Q198.7 196.9 197.3 195.5Q195.9 194.1 195.9 192.2L195.9 192.2Q195.9 190.2 197.3 188.8Q198.7 187.5 200.8 187.5Q202.8 187.5 204.3 188.8Q205.7 190.2 205.7 192.2L205.7 192.2Q205.7 194.1 204.3 195.5ZM204.1 233.9Q202.9 235.2 200.8 235.2Q198.7 235.2 197.4 233.9Q196.2 232.7 196.2 230.5L196.2 230.5L196.2 205.1Q196.2 202.9 197.4 201.6Q198.7 200.4 200.8 200.4Q202.9 200.4 204.1 201.6Q205.3 202.9 205.3 205.1L205.3 205.1L205.3 230.5Q205.3 232.7 204.1 233.9Z M232.7 233.9Q231.5 235.1 229.4 235.1Q227.3 235.1 226.0 233.9Q224.8 232.7 224.8 230.4L224.8 230.4L224.8 193.6Q224.8 191.3 226.1 190.1Q227.3 188.8 229.6 188.8L229.6 188.8Q231.0 188.8 232.1 189.5Q233.2 190.1 234.3 191.6L234.3 191.6L253.8 218.8L254.0 218.8L254.0 193.6Q254.0 191.3 255.2 190.1Q256.4 188.8 258.6 188.8L258.6 188.8Q260.7 188.8 261.9 190.1Q263.1 191.3 263.1 193.6L263.1 193.6L263.1 230.6Q263.1 232.8 261.9 234.0Q260.7 235.1 258.4 235.1L258.4 235.1Q256.9 235.1 255.8 234.5Q254.8 233.9 253.7 232.4L253.7 232.4L234.2 205.0L233.9 205.0L233.9 230.4Q233.9 232.7 232.7 233.9ZM285.2 235.3L285.2 235.3Q277.3 235.3 273.0 230.7Q268.6 226.1 268.6 218.0L268.6 218.0Q268.6 209.9 272.9 205.1Q277.3 200.3 284.8 200.3L284.8 200.3Q291.8 200.3 296.2 204.7Q300.6 209.1 300.6 215.9L300.6 215.9Q300.6 217.8 299.6 218.9Q298.6 219.9 296.7 219.9L296.7 219.9L277.5 219.9L277.5 220.3Q277.5 224.0 279.6 226.3Q281.7 228.5 285.2 228.5L285.2 228.5Q287.7 228.5 289.5 227.6Q291.3 226.7 293.2 224.5L293.2 224.5Q294.5 223.1 296.1 223.1L296.1 223.1Q297.7 223.1 298.7 224.1Q299.7 225.0 299.7 226.5L299.7 226.5Q299.7 227.6 299.1 228.7L299.1 228.7Q297.4 231.8 293.7 233.5Q290.0 235.3 285.2 235.3ZM277.6 214.3L277.6 214.3L291.8 214.3Q291.7 211.0 289.8 209.1Q287.8 207.1 284.8 207.1Q281.8 207.1 279.9 209.1Q277.9 211.1 277.6 214.3ZM307.8 226.0L307.8 226.0L307.8 207.9L306 207.9Q304.4 207.9 303.4 207.0Q302.5 206.1 302.5 204.5Q302.5 202.9 303.4 202.0Q304.4 201.1 306 201.1L306 201.1L307.8 201.1L307.8 197.3Q307.8 195.1 309.0 193.8Q310.2 192.6 312.3 192.6Q314.4 192.6 315.7 193.8Q316.9 195.1 316.9 197.3L316.9 197.3L316.9 201.1L320.1 201.1Q321.7 201.1 322.7 202.0Q323.6 202.9 323.6 204.5Q323.6 206.1 322.7 207.0Q321.7 207.9 320.1 207.9L320.1 207.9L316.9 207.9L316.9 224.0Q316.9 225.7 317.5 226.6Q318.2 227.4 319.7 227.5L319.7 227.5L320.3 227.6Q322 227.7 322.9 228.5Q323.7 229.3 323.7 230.9L323.7 230.9Q323.7 232.8 322.0 233.9Q320.2 234.9 317.3 234.9L317.3 234.9L316.9 234.9Q307.8 234.9 307.8 226.0ZM341.7 235.3L341.7 235.3Q336.1 235.3 332.3 233.4Q328.5 231.6 327.3 228.6L327.3 228.6Q327.0 227.6 327.0 226.9L327.0 226.9Q327.0 225.3 328.0 224.4Q329.1 223.4 330.7 223.4L330.7 223.4Q332.8 223.4 334.6 225.5L334.6 225.5Q336 227.2 337.7 228.1Q339.4 228.9 341.9 228.9L341.9 228.9Q344.4 228.9 345.9 227.9Q347.4 226.9 347.4 225.3L347.4 225.3Q347.4 223.9 346.4 223.1Q345.4 222.3 343.0 221.8L343.0 221.8L337.3 220.6Q332.4 219.5 330.0 217.1Q327.5 214.6 327.5 210.9L327.5 210.9Q327.5 206.1 331.3 203.2Q335.2 200.3 341.7 200.3L341.7 200.3Q346.8 200.3 350.4 202.3Q354.0 204.3 354.8 207.3L354.8 207.3Q355.0 208.1 355.0 208.6L355.0 208.6Q355.0 210.1 354.1 210.9Q353.3 211.7 351.5 211.7L351.5 211.7Q349.4 211.7 348.2 210.3L348.2 210.3Q346.8 208.6 345.3 207.7Q343.8 206.7 341.5 206.7L341.5 206.7Q339.2 206.7 337.8 207.7Q336.3 208.7 336.3 210.4L336.3 210.4Q336.3 211.7 337.4 212.6Q338.5 213.5 340.9 214.0L340.9 214.0L346.5 215.2Q351.8 216.3 354.2 218.4Q356.5 220.6 356.5 224.3L356.5 224.3Q356.5 229.3 352.5 232.3Q348.4 235.3 341.7 235.3Z M384.0 234.0Q382.8 235.2 380.7 235.2Q378.6 235.2 377.4 234.0Q376.1 232.8 376.1 230.5L376.1 230.5L376.1 207.9L374.4 207.9Q372.9 207.9 372.0 207.0Q371.0 206.1 371.0 204.6Q371.0 203.0 372.0 202.1Q372.9 201.2 374.4 201.2L374.4 201.2L376.1 201.2L376.1 198.7Q376.1 193.8 378.5 191.4Q380.9 189.1 385.7 189.1L385.7 189.1Q389.2 189.1 390.9 190.1Q392.6 191.1 392.6 192.7L392.6 192.7Q392.6 194.6 390.7 195.1L390.7 195.1Q389.9 195.4 389.0 195.4L389.0 195.4Q386.9 195.5 386.0 196.3Q385.0 197.2 385.0 199.1L385.0 199.1L385.0 201.2L388.9 201.2Q390.3 201.2 391.3 202.1Q392.2 203.0 392.2 204.6Q392.2 206.1 391.3 207.0Q390.3 207.9 388.9 207.9L388.9 207.9L385.3 207.9L385.3 230.5Q385.3 232.8 384.0 234.0ZM424.0 230.6Q419.5 235.3 411.8 235.3Q404.2 235.3 399.7 230.6Q395.3 226.0 395.3 217.8L395.3 217.8Q395.3 209.7 399.8 205.0Q404.3 200.3 411.8 200.3L411.8 200.3Q419.4 200.3 423.9 205.0Q428.4 209.7 428.4 217.8L428.4 217.8Q428.4 226.0 424.0 230.6ZM411.8 228.3L411.8 228.3Q415.2 228.3 417.2 225.6Q419.2 222.8 419.2 217.8L419.2 217.8Q419.2 212.9 417.2 210.1Q415.2 207.3 411.8 207.3Q408.5 207.3 406.5 210.1Q404.5 212.9 404.5 217.8L404.5 217.8Q404.5 222.8 406.5 225.6Q408.4 228.3 411.8 228.3ZM437.7 235.2L437.7 235.2Q435.6 235.2 434.4 234.0Q433.1 232.7 433.1 230.5L433.1 230.5L433.1 205.0Q433.1 202.8 434.3 201.6Q435.5 200.4 437.5 200.4L437.5 200.4Q439.5 200.4 440.7 201.6Q441.8 202.8 441.8 205.0L441.8 205.0L441.8 207.1L442.0 207.1Q442.7 204.1 444.6 202.3Q446.5 200.5 449 200.5L449 200.5Q450.8 200.5 451.8 201.4L451.8 201.4Q453.2 202.4 453.2 204.7L453.2 204.7Q453.2 206.9 451.8 208.0L451.8 208.0Q450.5 209.2 447.9 209.2L447.9 209.2Q444.9 209.2 443.6 210.8Q442.3 212.5 442.3 215.6L442.3 215.6L442.3 230.5Q442.3 232.7 441.0 234.0Q439.8 235.2 437.7 235.2Z M471.5 226.0L471.5 226.0L471.5 207.9L469.8 207.9Q468.1 207.9 467.2 207.0Q466.2 206.1 466.2 204.5Q466.2 202.9 467.2 202.0Q468.1 201.1 469.8 201.1L469.8 201.1L471.5 201.1L471.5 197.3Q471.5 195.1 472.7 193.8Q473.9 192.6 476.1 192.6Q478.2 192.6 479.4 193.8Q480.6 195.1 480.6 197.3L480.6 197.3L480.6 201.1L483.8 201.1Q485.5 201.1 486.4 202.0Q487.3 202.9 487.3 204.5Q487.3 206.1 486.4 207.0Q485.5 207.9 483.8 207.9L483.8 207.9L480.6 207.9L480.6 224.0Q480.6 225.7 481.3 226.6Q481.9 227.4 483.4 227.5L483.4 227.5L484 227.6Q485.8 227.7 486.6 228.5Q487.5 229.3 487.5 230.9L487.5 230.9Q487.5 232.8 485.7 233.9Q484.0 234.9 481 234.9L481 234.9L480.7 234.9Q471.5 234.9 471.5 226.0ZM499.9 234.0Q498.7 235.2 496.6 235.2Q494.5 235.2 493.3 234.0Q492.0 232.7 492.0 230.5L492.0 230.5L492.0 193.5Q492.0 191.3 493.2 190.0Q494.4 188.8 496.5 188.8L496.5 188.8Q498.6 188.8 499.8 190.0Q501 191.2 501 193.5L501 193.5L501 207.0L501.2 207.0Q502.5 203.8 505.2 202.1Q507.9 200.4 511.7 200.4L511.7 200.4Q517.3 200.4 520.3 203.8Q523.4 207.1 523.4 213.0L523.4 213.0L523.4 230.5Q523.4 232.7 522.2 234.0Q520.9 235.2 518.8 235.2Q516.8 235.2 515.5 234.0Q514.3 232.7 514.3 230.5L514.3 230.5L514.3 214.9Q514.3 211.6 512.7 209.8Q511.1 208.0 508 208.0L508 208.0Q504.8 208.0 503.0 210.0Q501.2 212.1 501.2 215.4L501.2 215.4L501.2 230.5Q501.2 232.7 499.9 234.0ZM544.6 235.3L544.6 235.3Q536.8 235.3 532.4 230.7Q528 226.1 528 218.0L528 218.0Q528 209.9 532.4 205.1Q536.8 200.3 544.2 200.3L544.2 200.3Q551.3 200.3 555.7 204.7Q560.1 209.1 560.1 215.9L560.1 215.9Q560.1 217.8 559.0 218.9Q558 219.9 556.1 219.9L556.1 219.9L537.0 219.9L537.0 220.3Q537.0 224.0 539.0 226.3Q541.1 228.5 544.6 228.5L544.6 228.5Q547.1 228.5 548.9 227.6Q550.8 226.7 552.6 224.5L552.6 224.5Q553.9 223.1 555.6 223.1L555.6 223.1Q557.1 223.1 558.1 224.1Q559.1 225.0 559.1 226.5L559.1 226.5Q559.1 227.6 558.5 228.7L558.5 228.7Q556.8 231.8 553.2 233.5Q549.5 235.3 544.6 235.3ZM537.1 214.3L537.1 214.3L551.3 214.3Q551.2 211.0 549.2 209.1Q547.3 207.1 544.3 207.1Q541.3 207.1 539.3 209.1Q537.3 211.1 537.1 214.3Z M586.4 233.8Q585.1 235.1 582.9 235.1Q580.7 235.1 579.4 233.8Q578.2 232.6 578.2 230.2L578.2 230.2L578.2 193.8Q578.2 191.4 579.4 190.1Q580.7 188.8 582.9 188.8Q585.1 188.8 586.4 190.1Q587.6 191.4 587.6 193.8L587.6 193.8L587.6 230.2Q587.6 232.6 586.4 233.8ZM596.8 226.0L596.8 226.0L596.8 207.9L595.0 207.9Q593.4 207.9 592.5 207.0Q591.5 206.1 591.5 204.5Q591.5 202.9 592.5 202.0Q593.4 201.1 595.0 201.1L595.0 201.1L596.8 201.1L596.8 197.3Q596.8 195.1 598 193.8Q599.2 192.6 601.3 192.6Q603.5 192.6 604.7 193.8Q605.9 195.1 605.9 197.3L605.9 197.3L605.9 201.1L609.1 201.1Q610.8 201.1 611.7 202.0Q612.6 202.9 612.6 204.5Q612.6 206.1 611.7 207.0Q610.8 207.9 609.1 207.9L609.1 207.9L605.9 207.9L605.9 224.0Q605.9 225.7 606.6 226.6Q607.2 227.4 608.7 227.5L608.7 227.5L609.3 227.6Q611.0 227.7 611.9 228.5Q612.8 229.3 612.8 230.9L612.8 230.9Q612.8 232.8 611 233.9Q609.3 234.9 606.3 234.9L606.3 234.9L606.0 234.9Q596.8 234.9 596.8 226.0ZM632.5 235.3L632.5 235.3Q624.7 235.3 620.3 230.7Q615.9 226.1 615.9 218.0L615.9 218.0Q615.9 209.9 620.3 205.1Q624.6 200.3 632.1 200.3L632.1 200.3Q639.2 200.3 643.5 204.7Q647.9 209.1 647.9 215.9L647.9 215.9Q647.9 217.8 646.9 218.9Q645.9 219.9 644.0 219.9L644.0 219.9L624.8 219.9L624.8 220.3Q624.8 224.0 626.9 226.3Q629 228.5 632.5 228.5L632.5 228.5Q635.0 228.5 636.8 227.6Q638.6 226.7 640.5 224.5L640.5 224.5Q641.8 223.1 643.4 223.1L643.4 223.1Q645.0 223.1 646.0 224.1Q647 225.0 647 226.5L647 226.5Q647 227.6 646.4 228.7L646.4 228.7Q644.7 231.8 641.0 233.5Q637.3 235.3 632.5 235.3ZM624.9 214.3L624.9 214.3L639.2 214.3Q639.0 211.0 637.1 209.1Q635.2 207.1 632.2 207.1Q629.2 207.1 627.2 209.1Q625.2 211.1 624.9 214.3ZM657.2 235.2L657.2 235.2Q655.1 235.2 653.9 234.0Q652.6 232.7 652.6 230.5L652.6 230.5L652.6 205.0Q652.6 202.8 653.8 201.6Q655.0 200.4 657.0 200.4L657.0 200.4Q659.0 200.4 660.2 201.6Q661.3 202.8 661.3 205.0L661.3 205.0L661.3 207.1L661.5 207.1Q662.2 204.1 664.1 202.3Q666.0 200.5 668.5 200.5L668.5 200.5Q670.3 200.5 671.3 201.4L671.3 201.4Q672.7 202.4 672.7 204.7L672.7 204.7Q672.7 206.9 671.3 208.0L671.3 208.0Q670 209.2 667.4 209.2L667.4 209.2Q664.4 209.2 663.1 210.8Q661.8 212.5 661.8 215.6L661.8 215.6L661.8 230.5Q661.8 232.7 660.5 234.0Q659.3 235.2 657.2 235.2ZM685.8 235.1L685.8 235.1Q681.0 235.1 677.8 232.2Q674.6 229.4 674.6 224.9L674.6 224.9Q674.6 220.4 678.0 217.8Q681.3 215.2 687.7 214.8L687.7 214.8L696.1 214.3L696.1 212.1Q696.1 209.8 694.6 208.5Q693.1 207.1 690.5 207.1L690.5 207.1Q688.4 207.1 686.9 207.9Q685.5 208.7 684.0 210.7L684.0 210.7Q682.5 212.4 680.3 212.4L680.3 212.4Q678.7 212.4 677.6 211.4Q676.5 210.4 676.5 208.9L676.5 208.9Q676.5 207.8 677 206.8L677 206.8Q678.2 203.8 681.9 202.1Q685.7 200.3 690.9 200.3L690.9 200.3Q697.3 200.3 701.2 203.4Q705.1 206.5 705.1 211.5L705.1 211.5L705.1 230.6Q705.1 232.8 703.8 234.0Q702.6 235.2 700.6 235.2L700.6 235.2Q698.7 235.2 697.5 234.2Q696.4 233.1 696.3 231.1L696.3 231.1L696.3 229.4L696.1 229.4Q694.7 232.1 691.9 233.6Q689.0 235.1 685.8 235.1ZM688.8 228.5L688.8 228.5Q691.8 228.5 694.0 226.7Q696.1 225.0 696.1 222.3L696.1 222.3L696.1 219.8L689.0 220.3Q686.5 220.5 685.1 221.6Q683.7 222.6 683.7 224.4L683.7 224.4Q683.7 226.3 685.1 227.4Q686.5 228.5 688.8 228.5ZM713.4 226.0L713.4 226.0L713.4 207.9L711.6 207.9Q710 207.9 709.0 207.0Q708.1 206.1 708.1 204.5Q708.1 202.9 709.0 202.0Q710 201.1 711.6 201.1L711.6 201.1L713.4 201.1L713.4 197.3Q713.4 195.1 714.6 193.8Q715.8 192.6 717.9 192.6Q720.1 192.6 721.3 193.8Q722.5 195.1 722.5 197.3L722.5 197.3L722.5 201.1L725.7 201.1Q727.3 201.1 728.3 202.0Q729.2 202.9 729.2 204.5Q729.2 206.1 728.3 207.0Q727.3 207.9 725.7 207.9L725.7 207.9L722.5 207.9L722.5 224.0Q722.5 225.7 723.2 226.6Q723.8 227.4 725.3 227.5L725.3 227.5L725.9 227.6Q727.6 227.7 728.5 228.5Q729.3 229.3 729.3 230.9L729.3 230.9Q729.3 232.8 727.6 233.9Q725.8 234.9 722.9 234.9L722.9 234.9L722.6 234.9Q713.4 234.9 713.4 226.0ZM741.9 195.5Q740.5 196.9 738.4 196.9Q736.3 196.9 734.9 195.5Q733.5 194.1 733.5 192.2L733.5 192.2Q733.5 190.2 734.9 188.8Q736.3 187.5 738.4 187.5Q740.5 187.5 741.9 188.8Q743.3 190.2 743.3 192.2L743.3 192.2Q743.3 194.1 741.9 195.5ZM741.8 233.9Q740.5 235.2 738.4 235.2Q736.3 235.2 735.1 233.9Q733.8 232.7 733.8 230.5L733.8 230.5L733.8 205.1Q733.8 202.9 735.1 201.6Q736.3 200.4 738.4 200.4Q740.5 200.4 741.8 201.6Q743.0 202.9 743.0 205.1L743.0 205.1L743.0 230.5Q743.0 232.7 741.8 233.9ZM763.1 235.2L763.1 235.2Q760.5 235.2 759.0 234.1Q757.4 233.0 756.5 230.6L756.5 230.6L747.8 207.2Q747.3 205.7 747.3 204.5L747.3 204.5Q747.3 202.6 748.6 201.5Q749.9 200.4 751.8 200.4L751.8 200.4Q755.2 200.4 756.2 204.0L756.2 204.0L763 226.5L763.2 226.5L770.0 203.9Q770.9 200.4 774.3 200.4L774.3 200.4Q776.2 200.4 777.4 201.5Q778.7 202.7 778.7 204.4L778.7 204.4Q778.7 205.6 778.2 207.0L778.2 207.0L769.5 230.6Q768.6 233.0 767.1 234.1Q765.6 235.2 763.1 235.2ZM798.2 235.3L798.2 235.3Q790.4 235.3 786.0 230.7Q781.6 226.1 781.6 218.0L781.6 218.0Q781.6 209.9 786.0 205.1Q790.3 200.3 797.8 200.3L797.8 200.3Q804.9 200.3 809.3 204.7Q813.7 209.1 813.7 215.9L813.7 215.9Q813.7 217.8 812.6 218.9Q811.6 219.9 809.7 219.9L809.7 219.9L790.6 219.9L790.6 220.3Q790.6 224.0 792.6 226.3Q794.7 228.5 798.2 228.5L798.2 228.5Q800.7 228.5 802.5 227.6Q804.3 226.7 806.2 224.5L806.2 224.5Q807.5 223.1 809.2 223.1L809.2 223.1Q810.7 223.1 811.7 224.1Q812.7 225.0 812.7 226.5L812.7 226.5Q812.7 227.6 812.1 228.7L812.1 228.7Q810.4 231.8 806.8 233.5Q803.1 235.3 798.2 235.3ZM790.7 214.3L790.7 214.3L804.9 214.3Q804.8 211.0 802.8 209.1Q800.9 207.1 797.9 207.1Q794.9 207.1 792.9 209.1Q790.9 211.1 790.7 214.3Z M93.0 308.1L80.5 308.1Q78.3 308.1 77 306.9Q75.8 305.6 75.8 303.2L75.8 303.2L75.8 268.0Q75.8 265.6 77 264.4Q78.3 263.1 80.5 263.1L80.5 263.1L93.0 263.1Q103.2 263.1 108.8 268.9Q114.5 274.7 114.5 285.4L114.5 285.4Q114.5 296.1 108.8 302.1Q103.1 308.1 93.0 308.1L93.0 308.1ZM85.2 270.8L85.2 300.3L91.8 300.3Q98.2 300.3 101.5 296.5Q104.8 292.7 104.8 285.5L104.8 285.5Q104.8 278.4 101.5 274.6Q98.1 270.8 91.8 270.8L91.8 270.8L85.2 270.8ZM135.2 308.9L135.2 308.9Q127.3 308.9 122.9 304.3Q118.5 299.7 118.5 291.6L118.5 291.6Q118.5 283.5 122.9 278.7Q127.3 273.9 134.7 273.9L134.7 273.9Q141.8 273.9 146.2 278.3Q150.6 282.6 150.6 289.5L150.6 289.5Q150.6 291.4 149.6 292.5Q148.5 293.5 146.6 293.5L146.6 293.5L127.5 293.5L127.5 293.9Q127.5 297.6 129.6 299.9Q131.7 302.1 135.1 302.1L135.1 302.1Q137.6 302.1 139.5 301.2Q141.3 300.3 143.1 298.1L143.1 298.1Q144.4 296.7 146.1 296.7L146.1 296.7Q147.6 296.7 148.6 297.6Q149.7 298.6 149.7 300.1L149.7 300.1Q149.7 301.1 149.0 302.3L149.0 302.3Q147.4 305.4 143.7 307.1Q140 308.9 135.2 308.9ZM127.6 287.9L127.6 287.9L141.8 287.9Q141.7 284.6 139.8 282.6Q137.8 280.7 134.8 280.7Q131.8 280.7 129.8 282.7Q127.8 284.7 127.6 287.9ZM169.3 308.8L169.3 308.8Q166.8 308.8 165.2 307.7Q163.7 306.6 162.8 304.1L162.8 304.1L154.0 280.8Q153.5 279.3 153.5 278.1L153.5 278.1Q153.5 276.2 154.8 275.1Q156.1 274.0 158.1 274.0L158.1 274.0Q161.4 274.0 162.5 277.6L162.5 277.6L169.3 300.1L169.4 300.1L176.2 277.5Q177.2 274.0 180.5 274.0L180.5 274.0Q182.4 274.0 183.7 275.1Q184.9 276.3 184.9 278.0L184.9 278.0Q184.9 279.2 184.4 280.6L184.4 280.6L175.7 304.1Q174.8 306.6 173.3 307.7Q171.8 308.8 169.3 308.8ZM204.5 308.9L204.5 308.9Q196.6 308.9 192.2 304.3Q187.8 299.7 187.8 291.6L187.8 291.6Q187.8 283.5 192.2 278.7Q196.6 273.9 204.0 273.9L204.0 273.9Q211.1 273.9 215.5 278.3Q219.9 282.6 219.9 289.5L219.9 289.5Q219.9 291.4 218.9 292.5Q217.8 293.5 215.9 293.5L215.9 293.5L196.8 293.5L196.8 293.9Q196.8 297.6 198.9 299.9Q201.0 302.1 204.4 302.1L204.4 302.1Q206.9 302.1 208.8 301.2Q210.6 300.3 212.4 298.1L212.4 298.1Q213.8 296.7 215.4 296.7L215.4 296.7Q216.9 296.7 218.0 297.6Q219.0 298.6 219.0 300.1L219.0 300.1Q219.0 301.1 218.3 302.3L218.3 302.3Q216.7 305.4 213 307.1Q209.3 308.9 204.5 308.9ZM196.9 287.9L196.9 287.9L211.1 287.9Q211 284.6 209.1 282.6Q207.1 280.7 204.1 280.7Q201.1 280.7 199.1 282.7Q197.2 284.7 196.9 287.9ZM232.7 307.6Q231.4 308.8 229.4 308.8Q227.3 308.8 226.1 307.6Q224.8 306.3 224.8 304.1L224.8 304.1L224.8 267.1Q224.8 264.9 226.1 263.6Q227.3 262.4 229.4 262.4Q231.4 262.4 232.7 263.6Q233.9 264.9 233.9 267.1L233.9 267.1L233.9 304.1Q233.9 306.3 232.7 307.6ZM267.6 304.2Q263.1 308.9 255.5 308.9Q247.8 308.9 243.3 304.2Q238.9 299.6 238.9 291.4L238.9 291.4Q238.9 283.3 243.4 278.6Q247.9 273.9 255.5 273.9L255.5 273.9Q263.1 273.9 267.6 278.6Q272.1 283.3 272.1 291.4L272.1 291.4Q272.1 299.6 267.6 304.2ZM255.5 301.9L255.5 301.9Q258.8 301.9 260.8 299.1Q262.8 296.4 262.8 291.4L262.8 291.4Q262.8 286.5 260.8 283.7Q258.8 280.9 255.5 280.9Q252.1 280.9 250.1 283.7Q248.1 286.5 248.1 291.4L248.1 291.4Q248.1 296.4 250.1 299.1Q252.1 301.9 255.5 301.9ZM284.6 318.9Q283.4 320.1 281.3 320.1Q279.3 320.1 278 318.9Q276.8 317.6 276.8 315.3L276.8 315.3L276.8 278.6Q276.8 276.4 278.0 275.2Q279.2 274.0 281.3 274.0Q283.3 274.0 284.5 275.2Q285.8 276.4 285.8 278.7L285.8 278.7L285.8 280.5L285.9 280.5Q287.3 277.5 290.0 275.8Q292.7 274.1 296.3 274.1L296.3 274.1Q302.7 274.1 306.4 278.7Q310.0 283.3 310.0 291.4L310.0 291.4Q310.0 299.5 306.4 304.1Q302.8 308.7 296.5 308.7L296.5 308.7Q292.9 308.7 290.1 307.0Q287.4 305.4 286.1 302.5L286.1 302.5L285.9 302.5L285.9 315.3Q285.9 317.6 284.6 318.9ZM293.3 301.3L293.3 301.3Q296.7 301.3 298.7 298.6Q300.7 296.0 300.7 291.4Q300.7 286.8 298.7 284.1Q296.7 281.4 293.3 281.4L293.3 281.4Q289.9 281.4 287.9 284.2Q285.8 286.9 285.8 291.4L285.8 291.4Q285.8 295.9 287.9 298.6Q289.9 301.3 293.3 301.3ZM319.3 308.8L319.3 308.8Q317.2 308.8 316.0 307.6Q314.7 306.3 314.7 304.1L314.7 304.1L314.7 278.6Q314.7 276.4 315.9 275.2Q317.1 274.0 319.1 274.0Q321.1 274.0 322.3 275.2Q323.5 276.4 323.5 278.6L323.5 278.6L323.5 280.7L323.7 280.7Q324.8 277.6 327.3 275.8Q329.9 274.0 333.3 274.0L333.3 274.0Q336.9 274.0 339.3 275.8Q341.8 277.6 342.6 280.9L342.6 280.9L342.8 280.9Q343.9 277.7 346.7 275.9Q349.5 274.0 353.2 274.0L353.2 274.0Q358.2 274.0 361.2 277.1Q364.2 280.2 364.2 285.3L364.2 285.3L364.2 304.1Q364.2 306.3 362.9 307.6Q361.7 308.8 359.6 308.8L359.6 308.8Q357.5 308.8 356.3 307.6Q355.1 306.3 355.1 304.1L355.1 304.1L355.1 287.6Q355.1 284.6 353.7 283.1Q352.3 281.6 349.6 281.6L349.6 281.6Q347 281.6 345.4 283.3Q343.8 285.0 343.8 287.8L343.8 287.8L343.8 304.1Q343.8 306.3 342.7 307.6Q341.5 308.8 339.4 308.8L339.4 308.8Q337.4 308.8 336.2 307.6Q335.1 306.3 335.1 304.1L335.1 304.1L335.1 287.3Q335.1 284.6 333.6 283.1Q332.2 281.6 329.7 281.6L329.7 281.6Q327.1 281.6 325.5 283.3Q323.8 285.1 323.8 287.9L323.8 287.9L323.8 304.1Q323.8 306.3 322.6 307.6Q321.3 308.8 319.3 308.8ZM385.4 308.9L385.4 308.9Q377.5 308.9 373.1 304.3Q368.8 299.7 368.8 291.6L368.8 291.6Q368.8 283.5 373.1 278.7Q377.5 273.9 384.9 273.9L384.9 273.9Q392.0 273.9 396.4 278.3Q400.8 282.6 400.8 289.5L400.8 289.5Q400.8 291.4 399.8 292.5Q398.8 293.5 396.8 293.5L396.8 293.5L377.7 293.5L377.7 293.9Q377.7 297.6 379.8 299.9Q381.9 302.1 385.3 302.1L385.3 302.1Q387.8 302.1 389.7 301.2Q391.5 300.3 393.3 298.1L393.3 298.1Q394.7 296.7 396.3 296.7L396.3 296.7Q397.8 296.7 398.9 297.6Q399.9 298.6 399.9 300.1L399.9 300.1Q399.9 301.1 399.3 302.3L399.3 302.3Q397.6 305.4 393.9 307.1Q390.2 308.9 385.4 308.9ZM377.8 287.9L377.8 287.9L392.0 287.9Q391.9 284.6 390.0 282.6Q388.0 280.7 385.0 280.7Q382.0 280.7 380.0 282.7Q378.1 284.7 377.8 287.9ZM413.4 307.6Q412.1 308.8 410.1 308.8Q408 308.8 406.8 307.6Q405.5 306.3 405.5 304.1L405.5 304.1L405.5 278.6Q405.5 276.4 406.7 275.2Q407.8 274.0 409.9 274.0Q412.0 274.0 413.2 275.2Q414.5 276.5 414.5 278.6L414.5 278.6L414.5 280.5L414.7 280.5Q417.4 274.0 425.0 274.0L425.0 274.0Q430.5 274.0 433.6 277.3Q436.6 280.6 436.6 286.6L436.6 286.6L436.6 304.1Q436.6 306.3 435.3 307.6Q434.1 308.8 432.0 308.8Q430.0 308.8 428.7 307.6Q427.5 306.3 427.5 304.1L427.5 304.1L427.5 288.5Q427.5 285.1 425.9 283.4Q424.3 281.6 421.3 281.6Q418.3 281.6 416.5 283.6Q414.6 285.6 414.6 288.9L414.6 288.9L414.6 304.1Q414.6 306.3 413.4 307.6ZM444.8 299.6L444.8 299.6L444.8 281.5L443.1 281.5Q441.4 281.5 440.5 280.6Q439.5 279.7 439.5 278.1Q439.5 276.5 440.5 275.6Q441.4 274.6 443.1 274.6L443.1 274.6L444.8 274.6L444.8 270.9Q444.8 268.7 446.0 267.4Q447.3 266.2 449.4 266.2Q451.5 266.2 452.7 267.4Q453.9 268.7 453.9 270.9L453.9 270.9L453.9 274.6L457.2 274.6Q458.8 274.6 459.7 275.6Q460.7 276.5 460.7 278.1Q460.7 279.6 459.7 280.6Q458.8 281.5 457.2 281.5L457.2 281.5L453.9 281.5L453.9 297.6Q453.9 299.3 454.6 300.1Q455.3 301.0 456.7 301.1L456.7 301.1L457.3 301.1Q459.1 301.3 459.9 302.1Q460.8 302.9 460.8 304.5L460.8 304.5Q460.8 306.4 459.0 307.5Q457.3 308.5 454.3 308.5L454.3 308.5L454 308.5Q444.8 308.5 444.8 299.6Z M505.3 304.2Q500.8 308.9 493.2 308.9Q485.5 308.9 481.0 304.2Q476.6 299.6 476.6 291.4L476.6 291.4Q476.6 283.3 481.1 278.6Q485.6 273.9 493.2 273.9L493.2 273.9Q500.8 273.9 505.3 278.6Q509.8 283.3 509.8 291.4L509.8 291.4Q509.8 299.6 505.3 304.2ZM493.2 301.9L493.2 301.9Q496.5 301.9 498.5 299.1Q500.5 296.4 500.5 291.4L500.5 291.4Q500.5 286.5 498.5 283.7Q496.5 280.9 493.2 280.9Q489.8 280.9 487.8 283.7Q485.8 286.5 485.8 291.4L485.8 291.4Q485.8 296.4 487.8 299.1Q489.8 301.9 493.2 301.9ZM524.8 307.6Q523.5 308.8 521.4 308.8Q519.3 308.8 518.1 307.6Q516.9 306.4 516.9 304.1L516.9 304.1L516.9 281.5L515.1 281.5Q513.7 281.5 512.7 280.6Q511.8 279.7 511.8 278.1Q511.8 276.6 512.7 275.7Q513.7 274.8 515.1 274.8L515.1 274.8L516.9 274.8L516.9 272.3Q516.9 267.4 519.3 265.0Q521.6 262.7 526.4 262.6L526.4 262.6Q529.9 262.6 531.6 263.6Q533.3 264.6 533.3 266.3L533.3 266.3Q533.3 268.2 531.5 268.7L531.5 268.7Q530.6 269.0 529.7 269.0L529.7 269.0Q527.6 269.1 526.7 269.9Q525.8 270.8 525.8 272.7L525.8 272.7L525.8 274.8L529.6 274.8Q531.1 274.8 532.0 275.7Q533.0 276.6 533.0 278.1Q533.0 279.7 532.0 280.6Q531.1 281.5 529.6 281.5L529.6 281.5L526 281.5L526 304.1Q526 306.4 524.8 307.6Z M558.8 307.4Q557.6 308.7 555.4 308.7Q553.2 308.7 551.9 307.4Q550.7 306.1 550.7 303.8L550.7 303.8L550.7 267.4Q550.7 265.0 551.9 263.7Q553.2 262.4 555.4 262.4Q557.6 262.4 558.8 263.7Q560.1 265.0 560.1 267.4L560.1 267.4L560.1 303.8Q560.1 306.1 558.8 307.4ZM574.7 307.6Q573.4 308.8 571.4 308.8Q569.3 308.8 568.1 307.6Q566.8 306.3 566.8 304.1L566.8 304.1L566.8 278.6Q566.8 276.4 568.0 275.2Q569.2 274.0 571.2 274.0Q573.3 274.0 574.5 275.2Q575.8 276.5 575.8 278.6L575.8 278.6L575.8 280.5L576.0 280.5Q578.7 274.0 586.3 274.0L586.3 274.0Q591.8 274.0 594.9 277.3Q597.9 280.6 597.9 286.6L597.9 286.6L597.9 304.1Q597.9 306.3 596.7 307.6Q595.4 308.8 593.3 308.8Q591.3 308.8 590.0 307.6Q588.8 306.3 588.8 304.1L588.8 304.1L588.8 288.5Q588.8 285.1 587.2 283.4Q585.7 281.6 582.6 281.6Q579.6 281.6 577.8 283.6Q575.9 285.6 575.9 288.9L575.9 288.9L575.9 304.1Q575.9 306.3 574.7 307.6ZM606.1 299.6L606.1 299.6L606.1 281.5L604.4 281.5Q602.8 281.5 601.8 280.6Q600.8 279.7 600.8 278.1Q600.8 276.5 601.8 275.6Q602.8 274.6 604.4 274.6L604.4 274.6L606.1 274.6L606.1 270.9Q606.1 268.7 607.3 267.4Q608.6 266.2 610.7 266.2Q612.8 266.2 614.0 267.4Q615.3 268.7 615.3 270.9L615.3 270.9L615.3 274.6L618.5 274.6Q620.1 274.6 621.0 275.6Q622.0 276.5 622.0 278.1Q622.0 279.6 621.0 280.6Q620.1 281.5 618.5 281.5L618.5 281.5L615.3 281.5L615.3 297.6Q615.3 299.3 615.9 300.1Q616.6 301.0 618.0 301.1L618.0 301.1L618.6 301.1Q620.4 301.3 621.2 302.1Q622.1 302.9 622.1 304.5L622.1 304.5Q622.1 306.4 620.3 307.5Q618.6 308.5 615.6 308.5L615.6 308.5L615.3 308.5Q606.1 308.5 606.1 299.6ZM641.8 308.9L641.8 308.9Q634 308.9 629.6 304.3Q625.2 299.7 625.2 291.6L625.2 291.6Q625.2 283.5 629.6 278.7Q634.0 273.9 641.4 273.9L641.4 273.9Q648.5 273.9 652.9 278.3Q657.3 282.6 657.3 289.5L657.3 289.5Q657.3 291.4 656.3 292.5Q655.2 293.5 653.3 293.5L653.3 293.5L634.2 293.5L634.2 293.9Q634.2 297.6 636.3 299.9Q638.3 302.1 641.8 302.1L641.8 302.1Q644.3 302.1 646.1 301.2Q648.0 300.3 649.8 298.1L649.8 298.1Q651.1 296.7 652.8 296.7L652.8 296.7Q654.3 296.7 655.3 297.6Q656.3 298.6 656.3 300.1L656.3 300.1Q656.3 301.1 655.7 302.3L655.7 302.3Q654.1 305.4 650.4 307.1Q646.7 308.9 641.8 308.9ZM634.3 287.9L634.3 287.9L648.5 287.9Q648.4 284.6 646.4 282.6Q644.5 280.7 641.5 280.7Q638.5 280.7 636.5 282.7Q634.5 284.7 634.3 287.9ZM666.5 308.8L666.5 308.8Q664.4 308.8 663.2 307.6Q662.0 306.3 662.0 304.1L662.0 304.1L662.0 278.6Q662.0 276.4 663.2 275.2Q664.4 274.0 666.4 274.0L666.4 274.0Q668.3 274.0 669.5 275.2Q670.7 276.4 670.7 278.6L670.7 278.6L670.7 280.7L670.9 280.7Q671.5 277.6 673.4 275.9Q675.3 274.1 677.8 274.1L677.8 274.1Q679.7 274.1 680.7 275.0L680.7 275.0Q682 276.0 682 278.3L682 278.3Q682 280.5 680.7 281.6L680.7 281.6Q679.3 282.8 676.7 282.8L676.7 282.8Q673.7 282.8 672.4 284.4Q671.1 286.1 671.1 289.2L671.1 289.2L671.1 304.1Q671.1 306.3 669.9 307.6Q668.7 308.8 666.5 308.8ZM695.2 308.7L695.2 308.7Q690.3 308.7 687.1 305.8Q683.9 303.0 683.9 298.5L683.9 298.5Q683.9 294.0 687.3 291.4Q690.7 288.8 697 288.4L697 288.4L705.4 287.9L705.4 285.7Q705.4 283.4 703.9 282.1Q702.4 280.7 699.8 280.7L699.8 280.7Q697.7 280.7 696.3 281.5Q694.8 282.3 693.3 284.3L693.3 284.3Q691.8 286.0 689.7 286.0L689.7 286.0Q688.0 286.0 687.0 285.0Q685.9 284.0 685.9 282.5L685.9 282.5Q685.9 281.4 686.3 280.4L686.3 280.4Q687.5 277.4 691.3 275.7Q695 273.9 700.2 273.9L700.2 273.9Q706.7 273.9 710.5 277.0Q714.4 280.1 714.4 285.1L714.4 285.1L714.4 304.2Q714.4 306.4 713.2 307.6Q712.0 308.8 710.0 308.8L710.0 308.8Q708.1 308.8 706.9 307.8Q705.7 306.7 705.6 304.7L705.6 304.7L705.6 303.0L705.4 303.0Q704.0 305.6 701.2 307.2Q698.4 308.7 695.2 308.7ZM698.2 302.1L698.2 302.1Q701.2 302.1 703.3 300.3Q705.4 298.6 705.4 295.9L705.4 295.9L705.4 293.4L698.4 293.9Q695.8 294.1 694.4 295.1Q693.0 296.2 693.0 298.0L693.0 298.0Q693.0 299.9 694.4 301.0Q695.8 302.1 698.2 302.1ZM735.6 308.9L735.6 308.9Q728.0 308.9 723.5 304.2Q719.1 299.5 719.1 291.4L719.1 291.4Q719.1 283.4 723.5 278.6Q727.9 273.9 735.5 273.9L735.5 273.9Q740.5 273.9 744.4 276.1Q748.3 278.3 749.6 281.9L749.6 281.9Q750.1 283.2 750.1 284.2L750.1 284.2Q750.1 285.8 749.0 286.8Q747.9 287.7 746.2 287.7L746.2 287.7Q744.9 287.7 744.0 287.2Q743.1 286.6 742.4 285.4L742.4 285.4Q740.0 281.1 735.8 281.1L735.8 281.1Q732.3 281.1 730.3 283.8Q728.3 286.5 728.3 291.4L728.3 291.4Q728.3 296.3 730.3 299.0Q732.3 301.7 735.7 301.7L735.7 301.7Q739.9 301.7 742.3 297.8L742.3 297.8Q743.2 296.3 744.1 295.7Q745.0 295.1 746.4 295.1L746.4 295.1Q748.1 295.1 749.2 296.1Q750.3 297.1 750.3 298.7L750.3 298.7Q750.3 299.8 749.7 301.1L749.7 301.1Q748.2 304.6 744.3 306.7Q740.3 308.9 735.6 308.9ZM757.6 299.6L757.6 299.6L757.6 281.5L755.8 281.5Q754.2 281.5 753.3 280.6Q752.3 279.7 752.3 278.1Q752.3 276.5 753.3 275.6Q754.2 274.6 755.8 274.6L755.8 274.6L757.6 274.6L757.6 270.9Q757.6 268.7 758.8 267.4Q760.0 266.2 762.2 266.2Q764.3 266.2 765.5 267.4Q766.7 268.7 766.7 270.9L766.7 270.9L766.7 274.6L769.9 274.6Q771.6 274.6 772.5 275.6Q773.4 276.5 773.4 278.1Q773.4 279.6 772.5 280.6Q771.6 281.5 769.9 281.5L769.9 281.5L766.7 281.5L766.7 297.6Q766.7 299.3 767.4 300.1Q768.0 301.0 769.5 301.1L769.5 301.1L770.1 301.1Q771.8 301.3 772.7 302.1Q773.6 302.9 773.6 304.5L773.6 304.5Q773.6 306.4 771.8 307.5Q770.1 308.5 767.1 308.5L767.1 308.5L766.8 308.5Q757.6 308.5 757.6 299.6ZM786.1 269.1Q784.7 270.5 782.6 270.5Q780.6 270.5 779.2 269.1Q777.8 267.7 777.8 265.8L777.8 265.8Q777.8 263.8 779.2 262.4Q780.6 261.1 782.6 261.1Q784.7 261.1 786.1 262.4Q787.5 263.8 787.5 265.8L787.5 265.8Q787.5 267.7 786.1 269.1ZM786.0 307.5Q784.8 308.8 782.6 308.8Q780.5 308.8 779.3 307.5Q778.1 306.3 778.1 304.1L778.1 304.1L778.1 278.7Q778.1 276.5 779.3 275.2Q780.5 274.0 782.6 274.0Q784.8 274.0 786.0 275.2Q787.2 276.5 787.2 278.7L787.2 278.7L787.2 304.1Q787.2 306.3 786.0 307.5ZM807.3 308.8L807.3 308.8Q804.7 308.8 803.2 307.7Q801.7 306.6 800.7 304.1L800.7 304.1L792 280.8Q791.5 279.3 791.5 278.1L791.5 278.1Q791.5 276.2 792.8 275.1Q794.1 274.0 796.1 274.0L796.1 274.0Q799.4 274.0 800.4 277.6L800.4 277.6L807.2 300.1L807.4 300.1L814.2 277.5Q815.1 274.0 818.5 274.0L818.5 274.0Q820.4 274.0 821.6 275.1Q822.9 276.3 822.9 278.0L822.9 278.0Q822.9 279.2 822.4 280.6L822.4 280.6L813.7 304.1Q812.8 306.6 811.3 307.7Q809.8 308.8 807.3 308.8ZM842.4 308.9L842.4 308.9Q834.6 308.9 830.2 304.3Q825.8 299.7 825.8 291.6L825.8 291.6Q825.8 283.5 830.2 278.7Q834.6 273.9 842 273.9L842 273.9Q849.1 273.9 853.5 278.3Q857.9 282.6 857.9 289.5L857.9 289.5Q857.9 291.4 856.8 292.5Q855.8 293.5 853.9 293.5L853.9 293.5L834.8 293.5L834.8 293.9Q834.8 297.6 836.9 299.9Q838.9 302.1 842.4 302.1L842.4 302.1Q844.9 302.1 846.7 301.2Q848.6 300.3 850.4 298.1L850.4 298.1Q851.7 296.7 853.4 296.7L853.4 296.7Q854.9 296.7 855.9 297.6Q856.9 298.6 856.9 300.1L856.9 300.1Q856.9 301.1 856.3 302.3L856.3 302.3Q854.7 305.4 851.0 307.1Q847.3 308.9 842.4 308.9ZM834.9 287.9L834.9 287.9L849.1 287.9Q849.0 284.6 847.0 282.6Q845.1 280.7 842.1 280.7Q839.1 280.7 837.1 282.7Q835.1 284.7 834.9 287.9Z M884.2 307.5Q882.9 308.8 880.7 308.8Q878.5 308.8 877.3 307.5Q876 306.2 876 303.9L876 303.9L876 268.0Q876 265.6 877.3 264.4Q878.5 263.1 880.7 263.1L880.7 263.1L894.5 263.1Q902.2 263.1 906.5 266.9Q910.8 270.7 910.8 277.4L910.8 277.4Q910.8 281.7 908.8 285.1Q906.7 288.4 903.0 290.0L903.0 290.0L909.5 301.2Q910.5 303.0 910.5 304.5L910.5 304.5Q910.5 306.4 909.2 307.6Q907.8 308.8 905.8 308.8L905.8 308.8Q904.1 308.8 903.1 308.1Q902.1 307.3 901.0 305.2L901.0 305.2L893.5 291.6L885.4 291.6L885.4 303.9Q885.4 306.2 884.2 307.5ZM885.4 270.4L885.4 284.8L893.6 284.8Q897.1 284.8 899.1 282.9Q901.1 281.0 901.1 277.6L901.1 277.6Q901.1 274.3 899.0 272.4Q897.0 270.4 893.5 270.4L893.5 270.4L885.4 270.4ZM943.7 304.2Q939.2 308.9 931.6 308.9Q923.9 308.9 919.4 304.2Q915.0 299.6 915.0 291.4L915.0 291.4Q915.0 283.3 919.5 278.6Q924 273.9 931.6 273.9L931.6 273.9Q939.2 273.9 943.7 278.6Q948.2 283.3 948.2 291.4L948.2 291.4Q948.2 299.6 943.7 304.2ZM931.6 301.9L931.6 301.9Q934.9 301.9 936.9 299.1Q938.9 296.4 938.9 291.4L938.9 291.4Q938.9 286.5 936.9 283.7Q934.9 280.9 931.6 280.9Q928.2 280.9 926.2 283.7Q924.2 286.5 924.2 291.4L924.2 291.4Q924.2 296.4 926.2 299.1Q928.2 301.9 931.6 301.9ZM957.5 308.8L957.5 308.8Q955.5 308.8 954.3 307.6Q953.1 306.4 953.1 304.2L953.1 304.2L953.1 267.1Q953.1 264.9 954.3 263.6Q955.6 262.4 957.6 262.4Q959.7 262.4 960.9 263.6Q962.2 264.9 962.2 267.1L962.2 267.1L962.2 280.5L962.4 280.5Q963.8 277.5 966.5 275.8Q969.2 274.1 972.7 274.1L972.7 274.1Q979.1 274.1 982.7 278.7Q986.3 283.3 986.3 291.4Q986.3 299.5 982.7 304.1Q979.1 308.7 972.8 308.7L972.8 308.7Q969.1 308.7 966.4 307.0Q963.7 305.4 962.3 302.4L962.3 302.4L962.1 302.4L962.1 304.2Q962.1 306.4 960.8 307.6Q959.6 308.8 957.5 308.8ZM969.6 301.3L969.6 301.3Q973.0 301.3 975.0 298.7Q977 296.0 977 291.4L977 291.4Q977 286.8 975.0 284.1Q973.0 281.4 969.6 281.4L969.6 281.4Q966.3 281.4 964.2 284.2Q962.2 286.9 962.2 291.4L962.2 291.4Q962.2 295.9 964.2 298.6Q966.3 301.3 969.6 301.3ZM1018.6 304.2Q1014.1 308.9 1006.4 308.9Q998.8 308.9 994.3 304.2Q989.8 299.6 989.8 291.4L989.8 291.4Q989.8 283.3 994.4 278.6Q998.9 273.9 1006.4 273.9L1006.4 273.9Q1014.0 273.9 1018.5 278.6Q1023.0 283.3 1023.0 291.4L1023.0 291.4Q1023.0 299.6 1018.6 304.2ZM1006.4 301.9L1006.4 301.9Q1009.8 301.9 1011.8 299.1Q1013.8 296.4 1013.8 291.4L1013.8 291.4Q1013.8 286.5 1011.8 283.7Q1009.8 280.9 1006.4 280.9Q1003.1 280.9 1001.1 283.7Q999.1 286.5 999.1 291.4L999.1 291.4Q999.1 296.4 1001.1 299.1Q1003.0 301.9 1006.4 301.9ZM1030.2 299.6L1030.2 299.6L1030.2 281.5L1028.4 281.5Q1026.8 281.5 1025.8 280.6Q1024.9 279.7 1024.9 278.1Q1024.9 276.5 1025.8 275.6Q1026.8 274.6 1028.4 274.6L1028.4 274.6L1030.2 274.6L1030.2 270.9Q1030.2 268.7 1031.4 267.4Q1032.6 266.2 1034.7 266.2Q1036.8 266.2 1038.1 267.4Q1039.3 268.7 1039.3 270.9L1039.3 270.9L1039.3 274.6L1042.5 274.6Q1044.1 274.6 1045.1 275.6Q1046 276.5 1046 278.1Q1046 279.6 1045.1 280.6Q1044.1 281.5 1042.5 281.5L1042.5 281.5L1039.3 281.5L1039.3 297.6Q1039.3 299.3 1039.9 300.1Q1040.6 301.0 1042.1 301.1L1042.1 301.1L1042.7 301.1Q1044.4 301.3 1045.3 302.1Q1046.1 302.9 1046.1 304.5L1046.1 304.5Q1046.1 306.4 1044.4 307.5Q1042.6 308.5 1039.7 308.5L1039.7 308.5L1039.3 308.5Q1030.2 308.5 1030.2 299.6ZM1058.7 269.1Q1057.3 270.5 1055.2 270.5Q1053.1 270.5 1051.7 269.1Q1050.3 267.7 1050.3 265.8L1050.3 265.8Q1050.3 263.8 1051.7 262.4Q1053.1 261.1 1055.2 261.1Q1057.3 261.1 1058.7 262.4Q1060.1 263.8 1060.1 265.8L1060.1 265.8Q1060.1 267.7 1058.7 269.1ZM1058.5 307.5Q1057.3 308.8 1055.2 308.8Q1053.1 308.8 1051.8 307.5Q1050.6 306.3 1050.6 304.1L1050.6 304.1L1050.6 278.7Q1050.6 276.5 1051.8 275.2Q1053.1 274.0 1055.2 274.0Q1057.3 274.0 1058.5 275.2Q1059.8 276.5 1059.8 278.7L1059.8 278.7L1059.8 304.1Q1059.8 306.3 1058.5 307.5ZM1081.1 308.9L1081.1 308.9Q1073.5 308.9 1069.0 304.2Q1064.6 299.5 1064.6 291.4L1064.6 291.4Q1064.6 283.4 1069.0 278.6Q1073.5 273.9 1081.0 273.9L1081.0 273.9Q1086.0 273.9 1089.9 276.1Q1093.8 278.3 1095.2 281.9L1095.2 281.9Q1095.7 283.2 1095.7 284.2L1095.7 284.2Q1095.7 285.8 1094.5 286.8Q1093.4 287.7 1091.8 287.7L1091.8 287.7Q1090.4 287.7 1089.5 287.2Q1088.6 286.6 1087.9 285.4L1087.9 285.4Q1085.5 281.1 1081.3 281.1L1081.3 281.1Q1077.8 281.1 1075.8 283.8Q1073.8 286.5 1073.8 291.4L1073.8 291.4Q1073.8 296.3 1075.8 299.0Q1077.8 301.7 1081.3 301.7L1081.3 301.7Q1085.5 301.7 1087.8 297.8L1087.8 297.8Q1088.8 296.3 1089.7 295.7Q1090.6 295.1 1092.0 295.1L1092.0 295.1Q1093.6 295.1 1094.7 296.1Q1095.8 297.1 1095.8 298.7L1095.8 298.7Q1095.8 299.8 1095.2 301.1L1095.2 301.1Q1093.7 304.6 1089.8 306.7Q1085.9 308.9 1081.1 308.9Z M92.3 382.5L92.3 382.5Q85.5 382.5 81.0 380.1Q76.6 377.7 75.2 373.8L75.2 373.8Q74.7 372.5 74.7 371.3L74.7 371.3Q74.7 369.4 75.8 368.3Q77.0 367.2 78.8 367.2L78.8 367.2Q80.3 367.2 81.3 367.8Q82.3 368.4 83.2 369.9L83.2 369.9Q84.2 372.4 86.7 373.7Q89.1 374.9 92.5 374.9L92.5 374.9Q96.3 374.9 98.6 373.3Q101.0 371.7 101.0 369.2L101.0 369.2Q101.0 366.9 99.2 365.6Q97.4 364.2 93.2 363.3L93.2 363.3L88.4 362.4Q75 359.8 75 349.6L75 349.6Q75 345.5 77.2 342.4Q79.4 339.3 83.3 337.6Q87.3 335.9 92.2 335.9L92.2 335.9Q98.4 335.9 102.8 338.3Q107.2 340.8 108.7 345.2L108.7 345.2Q109.0 346.2 109.0 347.3L109.0 347.3Q109.0 349 107.9 350.0Q106.8 351.1 105 351.1L105 351.1Q103.4 351.1 102.4 350.4Q101.3 349.8 100.5 348.3L100.5 348.3Q98.4 343.5 92.2 343.5L92.2 343.5Q88.7 343.5 86.6 345.0Q84.5 346.5 84.5 349L84.5 349Q84.5 351.1 86.2 352.4Q88 353.8 92.0 354.6L92.0 354.6L96.7 355.5Q103.9 357.0 107.1 360.0Q110.4 363.0 110.4 368.1L110.4 368.1Q110.4 374.8 105.5 378.6Q100.7 382.5 92.3 382.5ZM121.1 394.2L121.1 394.2Q118.1 394.2 116.5 393.0Q114.9 391.9 114.9 389.9L114.9 389.9Q114.9 388.5 115.8 387.7Q116.7 386.9 118.3 386.9L118.3 386.9Q118.6 386.9 119.0 386.9Q119.5 386.9 119.8 386.9L119.8 386.9Q122.8 386.9 124.3 383.9L124.3 383.9L124.7 382.7L114.0 354.5Q113.5 353.1 113.5 351.8L113.5 351.8Q113.5 350.0 114.8 348.8Q116.2 347.6 118.2 347.6L118.2 347.6Q120.0 347.6 121.0 348.4Q122.1 349.3 122.6 351.3L122.6 351.3L129.9 374.4L130.1 374.4L137.3 351.2Q137.9 349.3 139.0 348.4Q140 347.6 141.8 347.6L141.8 347.6Q143.7 347.6 145.0 348.7Q146.2 349.9 146.2 351.7L146.2 351.7Q146.2 353.0 145.7 354.4L145.7 354.4L135.4 382.3Q133.1 388.8 129.8 391.5Q126.6 394.2 121.1 394.2ZM163.8 382.5L163.8 382.5Q158.2 382.5 154.4 380.6Q150.6 378.8 149.4 375.8L149.4 375.8Q149.0 374.8 149.0 374.1L149.0 374.1Q149.0 372.5 150.1 371.6Q151.1 370.6 152.7 370.6L152.7 370.6Q154.8 370.6 156.7 372.7L156.7 372.7Q158.1 374.4 159.8 375.3Q161.4 376.1 164 376.1L164 376.1Q166.5 376.1 168.0 375.1Q169.5 374.1 169.5 372.5L169.5 372.5Q169.5 371.1 168.5 370.3Q167.5 369.5 165.0 369.0L165.0 369.0L159.4 367.8Q154.5 366.7 152.0 364.3Q149.5 361.8 149.5 358.1L149.5 358.1Q149.5 353.3 153.4 350.4Q157.3 347.5 163.8 347.5L163.8 347.5Q168.8 347.5 172.4 349.5Q176.0 351.5 176.9 354.5L176.9 354.5Q177.1 355.3 177.1 355.8L177.1 355.8Q177.1 357.3 176.2 358.1Q175.3 358.9 173.6 358.9L173.6 358.9Q171.5 358.9 170.3 357.5L170.3 357.5Q168.9 355.8 167.4 354.9Q165.9 353.9 163.6 353.9L163.6 353.9Q161.3 353.9 159.8 354.9Q158.3 355.9 158.3 357.6L158.3 357.6Q158.3 358.9 159.4 359.8Q160.5 360.7 163 361.2L163 361.2L168.5 362.4Q173.9 363.5 176.2 365.6Q178.6 367.8 178.6 371.5L178.6 371.5Q178.6 376.5 174.5 379.5Q170.4 382.5 163.8 382.5ZM185.5 373.2L185.5 373.2L185.5 355.1L183.8 355.1Q182.2 355.1 181.2 354.2Q180.3 353.3 180.3 351.7Q180.3 350.1 181.2 349.2Q182.2 348.3 183.8 348.3L183.8 348.3L185.5 348.3L185.5 344.5Q185.5 342.3 186.8 341.0Q188.0 339.8 190.1 339.8Q192.2 339.8 193.4 341.0Q194.7 342.3 194.7 344.5L194.7 344.5L194.7 348.3L197.9 348.3Q199.5 348.3 200.4 349.2Q201.4 350.1 201.4 351.7Q201.4 353.3 200.4 354.2Q199.5 355.1 197.9 355.1L197.9 355.1L194.7 355.1L194.7 371.2Q194.7 372.9 195.3 373.8Q196.0 374.6 197.4 374.7L197.4 374.7L198.0 374.8Q199.8 374.9 200.6 375.7Q201.5 376.5 201.5 378.1L201.5 378.1Q201.5 380.0 199.8 381.1Q198 382.1 195.0 382.1L195.0 382.1L194.7 382.1Q185.5 382.1 185.5 373.2ZM221.3 382.5L221.3 382.5Q213.4 382.5 209.0 377.9Q204.6 373.3 204.6 365.2L204.6 365.2Q204.6 357.1 209 352.3Q213.4 347.5 220.8 347.5L220.8 347.5Q227.9 347.5 232.3 351.9Q236.7 356.3 236.7 363.1L236.7 363.1Q236.7 365.0 235.7 366.1Q234.6 367.1 232.7 367.1L232.7 367.1L213.6 367.1L213.6 367.5Q213.6 371.2 215.7 373.5Q217.8 375.7 221.2 375.7L221.2 375.7Q223.7 375.7 225.5 374.8Q227.4 373.9 229.2 371.7L229.2 371.7Q230.5 370.3 232.2 370.3L232.2 370.3Q233.7 370.3 234.7 371.3Q235.8 372.2 235.8 373.7L235.8 373.7Q235.8 374.8 235.1 375.9L235.1 375.9Q233.5 379 229.8 380.7Q226.1 382.5 221.3 382.5ZM213.7 361.5L213.7 361.5L227.9 361.5Q227.8 358.2 225.8 356.3Q223.9 354.3 220.9 354.3Q217.9 354.3 215.9 356.3Q213.9 358.3 213.7 361.5ZM245.9 382.4L245.9 382.4Q243.8 382.4 242.6 381.2Q241.4 379.9 241.4 377.7L241.4 377.7L241.4 352.2Q241.4 350.0 242.6 348.8Q243.8 347.6 245.8 347.6Q247.8 347.6 249.0 348.8Q250.2 350.0 250.2 352.2L250.2 352.2L250.2 354.3L250.4 354.3Q251.4 351.3 254 349.4Q256.6 347.6 259.9 347.6L259.9 347.6Q263.6 347.6 266 349.4Q268.4 351.2 269.3 354.5L269.3 354.5L269.5 354.5Q270.6 351.3 273.4 349.5Q276.2 347.6 279.9 347.6L279.9 347.6Q284.8 347.6 287.8 350.7Q290.8 353.8 290.8 358.9L290.8 358.9L290.8 377.7Q290.8 379.9 289.6 381.2Q288.3 382.4 286.3 382.4L286.3 382.4Q284.2 382.4 283.0 381.2Q281.7 379.9 281.7 377.7L281.7 377.7L281.7 361.2Q281.7 358.3 280.3 356.7Q278.9 355.2 276.3 355.2L276.3 355.2Q273.7 355.2 272.1 356.9Q270.5 358.6 270.5 361.4L270.5 361.4L270.5 377.7Q270.5 379.9 269.3 381.2Q268.2 382.4 266.1 382.4L266.1 382.4Q264.1 382.4 262.9 381.2Q261.7 379.9 261.7 377.7L261.7 377.7L261.7 360.9Q261.7 358.2 260.3 356.7Q258.8 355.2 256.3 355.2L256.3 355.2Q253.7 355.2 252.1 356.9Q250.5 358.7 250.5 361.5L250.5 361.5L250.5 377.7Q250.5 379.9 249.3 381.2Q248 382.4 245.9 382.4ZM310.3 382.5L310.3 382.5Q304.7 382.5 300.9 380.6Q297.1 378.8 295.9 375.8L295.9 375.8Q295.5 374.8 295.5 374.1L295.5 374.1Q295.5 372.5 296.6 371.6Q297.6 370.6 299.2 370.6L299.2 370.6Q301.3 370.6 303.2 372.7L303.2 372.7Q304.6 374.4 306.3 375.3Q307.9 376.1 310.5 376.1L310.5 376.1Q313 376.1 314.5 375.1Q316.0 374.1 316.0 372.5L316.0 372.5Q316.0 371.1 315.0 370.3Q314.0 369.5 311.5 369.0L311.5 369.0L305.9 367.8Q301 366.7 298.5 364.3Q296.0 361.8 296.0 358.1L296.0 358.1Q296.0 353.3 299.9 350.4Q303.8 347.5 310.3 347.5L310.3 347.5Q315.3 347.5 318.9 349.5Q322.5 351.5 323.4 354.5L323.4 354.5Q323.6 355.3 323.6 355.8L323.6 355.8Q323.6 357.3 322.7 358.1Q321.8 358.9 320.1 358.9L320.1 358.9Q318.0 358.9 316.8 357.5L316.8 357.5Q315.4 355.8 313.9 354.9Q312.4 353.9 310.1 353.9L310.1 353.9Q307.8 353.9 306.3 354.9Q304.8 355.9 304.8 357.6L304.8 357.6Q304.8 358.9 305.9 359.8Q307.0 360.7 309.5 361.2L309.5 361.2L315.0 362.4Q320.4 363.5 322.7 365.6Q325.1 367.8 325.1 371.5L325.1 371.5Q325.1 376.5 321.0 379.5Q316.9 382.5 310.3 382.5Z " clip-path="url(#satori_cp-id-0)" mask="url(#satori_om-id-0)"/><defs><clipPath id="satori_bc-id-0-1" clip-path="url(#satori_cp-id-0)"><rect x="0" y="509" width="1200" height="121"/></clipPath></defs><mask id="satori_om-id-0-1"><rect x="0" y="510" width="1200" height="120" fill="#fff" mask="url(#satori_om-id-0)"/><path width="1200" height="121" fill="none" stroke="#000" stroke-width="2" d="M0,509 A0,0 0 0 1 0,509 h1200 A0,0 0 0 1 1200,509"/></mask><path width="1200" height="121" clip-path="url(#satori_bc-id-0-1)" fill="none" stroke="rgba(0,0,0,0.08)" stroke-width="2" d="M0,509 A0,0 0 0 1 0,509 h1200 A0,0 0 0 1 1200,509"/><mask id="satori_om-id-0-1-0"><rect x="48" y="538" width="228" height="64" fill="#fff" mask="url(#satori_om-id-0)"/></mask><mask id="satori_om-id-0-1-0-0"><rect x="48" y="538" width="72" height="64" fill="#fff" mask="url(#satori_om-id-0)"/></mask><clipPath id="satori_cp-id-0-1-0-0-0" clip-path="url(#satori_cp-id-0)"><rect x="48" y="538" width="72" height="64"/></clipPath><mask id="satori_om-id-0-1-0-0-0"><rect x="48" y="538" width="72" height="64" fill="#fff" mask="url(#satori_om-id-0)"/></mask><image x="48" y="538" width="72" height="64" href="data:image/svg+xml;utf8,%3Csvg  xmlns=%22http://www.w3.org/2000/svg%22 width=%2273.60461760461762%22 height=%2264%22 viewBox=%220 0 797 693%22%3E%3Cg transform=%22matrix(1,0,0,1,-345,-96.5)%22%3E%3Cpath d=%22M756.942,197.15L756.942,474C701.751,474 656.942,518.808 656.942,574C656.942,629.192 701.751,674 756.942,674L756.942,777L495.122,777C443.175,777 401,734.825 401,682.878L401,614L364.755,614C353.852,614 345,605.148 345,594.245L345,436.814C345,425.878 353.878,417 364.814,417L401,417L401,365.122C401,313.175 443.175,271 495.122,271L715.058,271L715.058,197.15C696.492,189.056 683.5,170.533 683.5,149C683.5,120.024 707.024,96.5 736,96.5C764.976,96.5 788.5,120.024 788.5,149C788.5,170.533 775.508,189.056 756.942,197.15ZM559,388C520.918,388 490,418.918 490,457C490,495.082 520.918,526 559,526C597.082,526 628,495.082 628,457C628,418.918 597.082,388 559,388Z%22 fill=%22%23ad47ff%22%3E%3C/path%3E%3Cg transform=%22matrix(-1,1.22465e-16,-1.22465e-16,-1,1486.06,1043)%22%3E%3Cpath d=%22M401,417L401,348.122C401,296.175 443.175,254 495.122,254L705.058,254L705.058,357C760.249,357 805.058,401.808 805.058,457C805.058,512.192 760.249,557 705.058,557L705.058,760L495.122,760C443.175,760 401,717.825 401,665.878L401,614L364.755,614C353.852,614 345,605.148 345,594.245L345,436.814C345,425.878 353.878,417 364.814,417L401,417ZM552,643C590.082,643 621,612.082 621,574C621,535.918 590.082,505 552,505C513.918,505 483,535.918 483,574C483,612.082 513.918,643 552,643Z%22 fill=%22%2300d5bd%22%3E%3C/path%3E%3C/g%3E%3C/g%3E%3C/svg%3E" preserveAspectRatio="none" clip-path="url(#satori_cp-id-0-1-0-0-0)" mask="url(#satori_om-id-0-1-0-0-0)"/><mask id="satori_om-id-0-1-0-0-0-0"><rect x="48" y="538" width="0" height="64" fill="#fff" mask="url(#satori_om-id-0)"/></mask><mask id="satori_om-id-0-1-0-0-0-0-0"><rect x="48" y="538" width="0" height="64" fill="#fff" mask="url(#satori_om-id-0)"/></mask><mask id="satori_om-id-0-1-0-0-0-0-1"><rect x="48" y="538" width="0" height="64" fill="#fff" mask="url(#satori_om-id-0)"/></mask><mask id="satori_om-id-0-1-0-0-0-0-1-0"><rect x="48" y="538" width="0" height="64" fill="#fff" mask="url(#satori_om-id-0)"/></mask><mask id="satori_om-id-0-1-0-1"><rect x="138" y="540" width="138" height="60" fill="#fff" mask="url(#satori_om-id-0)"/></mask><mask id="satori_om-id-0-1-0-1-0"><rect x="138" y="540" width="138" height="36" fill="#fff" mask="url(#satori_om-id-0)"/></mask><path fill="#0f172a" d="M150.7 571.2L150.7 571.2Q145.9 571.2 143.0 568.6Q140.1 566.1 140.1 561.8L140.1 561.8L140.1 547.9Q140.1 546.5 140.8 545.8Q141.5 545.1 142.8 545.1Q144.0 545.1 144.7 545.8Q145.4 546.5 145.4 547.9L145.4 547.9L145.4 561.3Q145.4 563.8 146.8 565.2Q148.2 566.7 150.7 566.7L150.7 566.7Q153.3 566.7 154.7 565.2Q156.1 563.8 156.1 561.3L156.1 561.3L156.1 547.9Q156.1 546.5 156.8 545.8Q157.5 545.1 158.7 545.1Q160.0 545.1 160.7 545.8Q161.4 546.5 161.4 547.9L161.4 547.9L161.4 561.8Q161.4 566.1 158.5 568.6Q155.6 571.2 150.7 571.2ZM170.2 570.4Q169.5 571.2 168.2 571.2Q167.0 571.2 166.3 570.4Q165.6 569.7 165.6 568.4L165.6 568.4L165.6 548.2Q165.6 546.9 166.3 546.2Q167.0 545.4 168.2 545.4L168.2 545.4L176.0 545.4Q180.3 545.4 182.7 547.6Q185.1 549.7 185.1 553.5L185.1 553.5Q185.1 555.9 184.0 557.8Q182.9 559.7 180.8 560.6L180.8 560.6L184.4 566.9Q185.0 567.9 185.0 568.7L185.0 568.7Q185.0 569.8 184.2 570.5Q183.5 571.2 182.3 571.2L182.3 571.2Q181.4 571.2 180.8 570.8Q180.3 570.3 179.6 569.2L179.6 569.2L175.4 561.5L170.9 561.5L170.9 568.4Q170.9 569.7 170.2 570.4ZM170.9 549.6L170.9 557.7L175.5 557.7Q177.5 557.7 178.6 556.6Q179.7 555.5 179.7 553.6L179.7 553.6Q179.7 551.8 178.5 550.7Q177.4 549.6 175.4 549.6L175.4 549.6L170.9 549.6ZM198.1 562.7L190.8 562.7Q189.7 562.7 189.1 562.1Q188.4 561.5 188.4 560.5Q188.4 559.4 189.1 558.8Q189.7 558.2 190.8 558.2L190.8 558.2L198.1 558.2Q199.2 558.2 199.9 558.8Q200.6 559.4 200.6 560.5Q200.6 561.5 199.9 562.1Q199.2 562.7 198.1 562.7L198.1 562.7ZM209.1 570.4Q208.4 571.2 207.2 571.2Q205.9 571.2 205.2 570.4Q204.5 569.7 204.5 568.4L204.5 568.4L204.5 548.2Q204.5 546.9 205.2 546.2Q205.9 545.4 207.2 545.4L207.2 545.4L214.9 545.4Q219.3 545.4 221.7 547.6Q224.1 549.7 224.1 553.5L224.1 553.5Q224.1 555.9 223.0 557.8Q221.8 559.7 219.7 560.6L219.7 560.6L223.4 566.9Q224.0 567.9 224.0 568.7L224.0 568.7Q224.0 569.8 223.2 570.5Q222.4 571.2 221.3 571.2L221.3 571.2Q220.3 571.2 219.8 570.8Q219.2 570.3 218.6 569.2L218.6 569.2L214.4 561.5L209.8 561.5L209.8 568.4Q209.8 569.7 209.1 570.4ZM209.8 549.6L209.8 557.7L214.4 557.7Q216.4 557.7 217.5 556.6Q218.6 555.5 218.6 553.6L218.6 553.6Q218.6 551.8 217.5 550.7Q216.3 549.6 214.4 549.6L214.4 549.6L209.8 549.6ZM229.3 571.1L229.3 571.1Q228.0 571.1 227.3 570.5Q226.6 569.8 226.6 568.6L226.6 568.6Q226.6 567.9 226.9 566.9L226.9 566.9L233.9 548.1Q234.4 546.5 235.4 545.8Q236.3 545.1 237.8 545.1L237.8 545.1Q239.4 545.1 240.4 545.8Q241.3 546.5 241.9 548.1L241.9 548.1L248.9 566.9Q249.2 567.9 249.2 568.6L249.2 568.6Q249.2 569.7 248.5 570.4Q247.7 571.1 246.5 571.1L246.5 571.1Q245.4 571.1 244.8 570.6Q244.1 570.0 243.8 568.8L243.8 568.8L242.4 564.8L233.3 564.8L232.0 568.7Q231.6 570.0 231.0 570.6Q230.3 571.1 229.3 571.1ZM237.7 550.3L234.5 560.7L241.2 560.7L237.9 550.3L237.7 550.3ZM262.1 570.8L255.1 570.8Q253.8 570.8 253.1 570.1Q252.4 569.3 252.4 568.0L252.4 568.0L252.4 548.2Q252.4 546.9 253.1 546.2Q253.8 545.4 255.1 545.4L255.1 545.4L262.1 545.4Q267.8 545.4 271.0 548.7Q274.2 552.0 274.2 558.0L274.2 558.0Q274.2 564.0 271.0 567.4Q267.8 570.8 262.1 570.8L262.1 570.8ZM257.7 549.8L257.7 566.4L261.5 566.4Q265.0 566.4 266.9 564.3Q268.8 562.1 268.8 558.0L268.8 558.0Q268.8 554.1 266.9 551.9Q265.0 549.8 261.5 549.8L261.5 549.8L257.7 549.8Z " clip-path="url(#satori_cp-id-0)" mask="url(#satori_om-id-0)"/><mask id="satori_om-id-0-1-0-1-1"><rect x="138" y="576" width="138" height="24" fill="#fff" mask="url(#satori_om-id-0)"/></mask><path fill="#334155" d="M145.0 595.3L145.0 595.3Q142.4 595.3 140.8 593.8Q139.2 592.4 139.2 590.1L139.2 590.1L139.2 582.1Q139.2 581.5 139.6 581.1Q139.9 580.8 140.5 580.8L140.5 580.8Q141.1 580.8 141.4 581.1Q141.8 581.5 141.8 582.1L141.8 582.1L141.8 589.8Q141.8 591.3 142.6 592.2Q143.5 593.1 145.0 593.1Q146.6 593.1 147.4 592.2Q148.3 591.3 148.3 589.8L148.3 589.8L148.3 582.1Q148.3 581.5 148.6 581.1Q149.0 580.8 149.6 580.8L149.6 580.8Q150.2 580.8 150.5 581.1Q150.8 581.5 150.8 582.1L150.8 582.1L150.8 590.1Q150.8 592.4 149.3 593.8Q147.7 595.3 145.0 595.3ZM155.5 594.9Q155.2 595.2 154.6 595.2Q154.0 595.2 153.6 594.9Q153.3 594.5 153.3 593.9L153.3 593.9L153.3 582.3Q153.3 581.6 153.6 581.3Q154.0 581.0 154.6 581.0L154.6 581.0L158.9 581.0Q161.2 581.0 162.5 582.1Q163.8 583.3 163.8 585.3L163.8 585.3Q163.8 586.7 163.1 587.8Q162.4 588.8 161.2 589.3L161.2 589.3L163.4 593.2Q163.7 593.7 163.7 594.1L163.7 594.1Q163.7 594.6 163.4 594.9Q163.0 595.2 162.4 595.2L162.4 595.2Q162.0 595.2 161.7 595.0Q161.5 594.8 161.2 594.3L161.2 594.3L158.7 589.7L155.8 589.7L155.8 593.9Q155.8 594.5 155.5 594.9ZM155.8 583.0L155.8 587.8L158.7 587.8Q159.9 587.8 160.5 587.2Q161.2 586.5 161.2 585.4L161.2 585.4Q161.2 584.3 160.5 583.6Q159.8 583.0 158.6 583.0L158.6 583.0L155.8 583.0ZM171.1 590.4L166.7 590.4Q166.2 590.4 165.9 590.1Q165.6 589.8 165.6 589.3Q165.6 588.8 165.9 588.5Q166.2 588.2 166.7 588.2L166.7 588.2L171.1 588.2Q171.7 588.2 172.0 588.5Q172.3 588.8 172.3 589.3Q172.3 589.8 172.0 590.1Q171.7 590.4 171.1 590.4L171.1 590.4ZM176.7 594.9Q176.4 595.2 175.8 595.2Q175.2 595.2 174.9 594.9Q174.6 594.5 174.6 593.9L174.6 593.9L174.6 582.3Q174.6 581.6 174.9 581.3Q175.2 581.0 175.8 581.0L175.8 581.0L180.1 581.0Q182.4 581.0 183.7 582.1Q185.0 583.3 185.0 585.3L185.0 585.3Q185.0 586.7 184.3 587.8Q183.7 588.8 182.5 589.3L182.5 589.3L184.7 593.2Q185.0 593.7 185.0 594.1L185.0 594.1Q185.0 594.6 184.6 594.9Q184.2 595.2 183.7 595.2L183.7 595.2Q183.2 595.2 183.0 595.0Q182.7 594.8 182.4 594.3L182.4 594.3L179.9 589.7L177.1 589.7L177.1 593.9Q177.1 594.5 176.7 594.9ZM177.1 583.0L177.1 587.8L179.9 587.8Q181.1 587.8 181.8 587.2Q182.4 586.5 182.4 585.4L182.4 585.4Q182.4 584.3 181.8 583.6Q181.1 583.0 179.9 583.0L179.9 583.0L177.1 583.0ZM187.7 595.2L187.7 595.2Q187.1 595.2 186.7 594.9Q186.4 594.6 186.4 594.0L186.4 594.0Q186.4 593.7 186.6 593.3L186.6 593.3L190.7 582.2Q190.9 581.4 191.4 581.1Q191.8 580.8 192.5 580.8L192.5 580.8Q193.2 580.8 193.6 581.1Q194.1 581.4 194.3 582.1L194.3 582.1L198.4 593.3Q198.6 593.7 198.6 594.0L198.6 594.0Q198.6 594.6 198.2 594.9Q197.9 595.2 197.3 595.2L197.3 595.2Q196.8 595.2 196.5 595.0Q196.2 594.7 196.0 594.1L196.0 594.1L195.1 591.4L189.9 591.4L188.9 594.1Q188.8 594.7 188.5 595.0Q188.2 595.2 187.7 595.2ZM192.4 583.4L190.5 589.5L194.5 589.5L192.5 583.4L192.4 583.4ZM205.6 595.0L201.7 595.0Q201.1 595.0 200.8 594.7Q200.4 594.3 200.4 593.7L200.4 593.7L200.4 582.3Q200.4 581.6 200.8 581.3Q201.1 581.0 201.7 581.0L201.7 581.0L205.6 581.0Q208.7 581.0 210.5 582.8Q212.3 584.6 212.3 588.0L212.3 588.0Q212.3 591.3 210.5 593.2Q208.7 595.0 205.6 595.0L205.6 595.0ZM202.9 583.1L202.9 592.9L205.3 592.9Q207.4 592.9 208.6 591.6Q209.7 590.4 209.7 588.0L209.7 588.0Q209.7 585.6 208.6 584.3Q207.4 583.1 205.3 583.1L205.3 583.1L202.9 583.1Z M227.0 595.0L219.2 595.0Q218.7 595.0 218.3 594.8Q218.0 594.5 218.0 594.0L218.0 594.0Q218.0 593.6 218.2 593.3Q218.3 593.1 218.7 592.7L218.7 592.7L223.0 588.4Q224.4 587.1 224.8 586.4Q225.3 585.7 225.3 584.9L225.3 584.9Q225.3 583.9 224.6 583.3Q224.0 582.7 223.0 582.7L223.0 582.7Q221.1 582.7 220.3 584.6L220.3 584.6Q220.1 585.0 219.9 585.2Q219.6 585.4 219.2 585.4L219.2 585.4Q218.7 585.4 218.4 585.1Q218.1 584.8 218.1 584.3L218.1 584.3Q218.1 584.1 218.2 583.8L218.2 583.8Q218.3 583.2 218.7 582.7Q219.1 582.1 219.7 581.7Q220.3 581.2 221.1 580.9Q222.0 580.7 223.0 580.7L223.0 580.7Q225.1 580.7 226.4 581.8Q227.8 582.9 227.8 584.7L227.8 584.7Q227.8 585.9 227.1 586.9Q226.4 588.0 224.6 589.8L224.6 589.8L221.4 592.9L221.4 593.0L227.0 593.0Q227.5 593.0 227.8 593.3Q228.1 593.5 228.1 594.0Q228.1 594.5 227.8 594.8Q227.5 595.0 227.0 595.0L227.0 595.0ZM235.2 595.3L235.2 595.3Q232.6 595.3 231.1 593.4Q229.7 591.4 229.7 588.0L229.7 588.0Q229.7 584.6 231.1 582.6Q232.6 580.7 235.2 580.7L235.2 580.7Q237.8 580.7 239.3 582.6Q240.7 584.6 240.7 588.0L240.7 588.0Q240.7 591.4 239.3 593.3Q237.8 595.3 235.2 595.3ZM235.2 593.3L235.2 593.3Q236.6 593.3 237.4 591.9Q238.2 590.5 238.2 588.0L238.2 588.0Q238.2 585.5 237.4 584.1Q236.6 582.7 235.2 582.7Q233.8 582.7 233.0 584.1Q232.2 585.5 232.2 588.0L232.2 588.0Q232.2 590.5 233.0 591.9Q233.8 593.3 235.2 593.3ZM251.6 595.0L243.8 595.0Q243.2 595.0 242.9 594.8Q242.6 594.5 242.6 594.0L242.6 594.0Q242.6 593.6 242.7 593.3Q242.9 593.1 243.3 592.7L243.3 592.7L247.6 588.4Q248.9 587.1 249.4 586.4Q249.8 585.7 249.8 584.9L249.8 584.9Q249.8 583.9 249.2 583.3Q248.5 582.7 247.5 582.7L247.5 582.7Q245.6 582.7 244.9 584.6L244.9 584.6Q244.7 585.0 244.4 585.2Q244.2 585.4 243.7 585.4L243.7 585.4Q243.2 585.4 242.9 585.1Q242.6 584.8 242.6 584.3L242.6 584.3Q242.6 584.1 242.7 583.8L242.7 583.8Q242.9 583.2 243.2 582.7Q243.6 582.1 244.2 581.7Q244.8 581.2 245.7 580.9Q246.5 580.7 247.5 580.7L247.5 580.7Q249.6 580.7 251.0 581.8Q252.3 582.9 252.3 584.7L252.3 584.7Q252.3 585.9 251.6 586.9Q251.0 588.0 249.2 589.8L249.2 589.8L245.9 592.9L245.9 593.0L251.6 593.0Q252.1 593.0 252.4 593.3Q252.6 593.5 252.6 594.0Q252.6 594.5 252.4 594.8Q252.1 595.0 251.6 595.0L251.6 595.0ZM259.6 595.3L259.6 595.3Q258.0 595.3 256.7 594.6Q255.4 593.9 254.9 592.8L254.9 592.8Q254.6 592.3 254.6 591.8L254.6 591.8Q254.6 591.3 254.9 591.0Q255.2 590.7 255.7 590.7L255.7 590.7Q256.1 590.7 256.4 590.9Q256.6 591.1 256.8 591.5L256.8 591.5Q257.2 592.3 257.9 592.8Q258.6 593.3 259.6 593.3L259.6 593.3Q260.9 593.3 261.7 592.5Q262.5 591.7 262.5 590.4L262.5 590.4Q262.5 589.2 261.7 588.4Q260.9 587.7 259.6 587.7L259.6 587.7Q258.3 587.7 257.4 588.5L257.4 588.5Q257.0 589.0 256.7 589.1Q256.4 589.3 256.0 589.3L256.0 589.3Q255.4 589.3 255.1 588.9Q254.8 588.5 254.8 588.0L254.8 588.0Q254.8 587.9 254.8 587.8L254.8 587.8L255.3 582.5Q255.4 581.7 255.8 581.3Q256.2 581.0 257.0 581.0L257.0 581.0L263.1 581.0Q263.6 581.0 263.9 581.2Q264.2 581.5 264.2 582.0L264.2 582.0Q264.2 582.4 263.9 582.7Q263.6 583.0 263.1 583.0L263.1 583.0L257.4 583.0L257.1 587.2L257.1 587.2Q257.6 586.5 258.4 586.1Q259.2 585.8 260.3 585.8L260.3 585.8Q262.3 585.8 263.6 587.0Q264.9 588.3 264.9 590.4L264.9 590.4Q264.9 592.6 263.4 593.9Q261.9 595.3 259.6 595.3Z " clip-path="url(#satori_cp-id-0)" mask="url(#satori_om-id-0)"/><mask id="satori_om-id-0-1-1"><rect x="951" y="557" width="201" height="26" fill="#fff" mask="url(#satori_om-id-0)"/></mask><path fill="#334155" d="M954.4 577.8Q954.1 578.2 953.5 578.2Q952.9 578.2 952.5 577.8Q952.2 577.5 952.2 576.8L952.2 576.8L952.2 563.6Q952.2 563.0 952.5 562.6Q952.9 562.2 953.5 562.2Q954.1 562.2 954.5 562.6Q954.8 563.0 954.8 563.6L954.8 563.6L954.8 568.5L954.9 568.5Q955.4 567.5 956.3 566.9Q957.3 566.4 958.5 566.4L958.5 566.4Q960.6 566.4 961.9 568.0Q963.2 569.5 963.2 572.3L963.2 572.3Q963.2 575.0 961.9 576.6Q960.6 578.1 958.5 578.1L958.5 578.1Q957.2 578.1 956.3 577.6Q955.4 577.0 954.8 576.0L954.8 576.0L954.8 576.0L954.8 576.8Q954.8 577.5 954.4 577.8ZM957.6 575.9L957.6 575.9Q958.9 575.9 959.7 574.9Q960.4 574.0 960.4 572.3Q960.4 570.6 959.7 569.6Q958.9 568.6 957.6 568.6L957.6 568.6Q956.4 568.6 955.6 569.6Q954.8 570.6 954.8 572.3L954.8 572.3Q954.8 573.9 955.6 574.9Q956.4 575.9 957.6 575.9ZM966.5 582.2L966.5 582.2Q965.6 582.2 965.1 581.9Q964.7 581.5 964.7 580.9L964.7 580.9Q964.7 580.5 964.9 580.3Q965.2 580.0 965.7 580.0L965.7 580.0Q965.8 580.0 966.0 580.0Q966.1 580.0 966.3 580.0L966.3 580.0Q967.3 580.0 967.9 578.7L967.9 578.7L968.1 578.2L964.3 568.3Q964.2 567.9 964.2 567.6L964.2 567.6Q964.2 567.0 964.6 566.7Q965.0 566.3 965.6 566.3L965.6 566.3Q966.1 566.3 966.4 566.6Q966.7 566.8 966.8 567.4L966.8 567.4L969.6 575.7L969.6 575.7L972.3 567.4Q972.5 566.8 972.8 566.6Q973.1 566.3 973.6 566.3L973.6 566.3Q974.2 566.3 974.5 566.7Q974.9 567.0 974.9 567.5L974.9 567.5Q974.9 567.9 974.8 568.3L974.8 568.3L971.0 578.4Q970.2 580.5 969.2 581.3Q968.2 582.2 966.5 582.2Z M982.4 578.1L982.4 578.1Q981.8 578.1 981.4 577.7Q981.0 577.4 981.0 576.7L981.0 576.7L981.0 563.9Q981.0 563.2 981.4 562.8Q981.8 562.4 982.4 562.4L982.4 562.4L987.1 562.4Q989.4 562.4 990.8 563.9Q992.3 565.3 992.3 567.6L992.3 567.6Q992.3 569.9 990.8 571.4Q989.3 572.8 987.0 572.8L987.0 572.8L983.8 572.8L983.8 576.7Q983.8 577.4 983.5 577.8Q983.1 578.1 982.4 578.1ZM983.8 564.7L983.8 570.6L986.3 570.6Q987.8 570.6 988.7 569.8Q989.5 569.0 989.5 567.6L989.5 567.6Q989.5 566.2 988.7 565.5Q987.8 564.7 986.3 564.7L986.3 564.7L983.8 564.7ZM996.4 577.8Q996.0 578.2 995.4 578.2Q994.8 578.2 994.4 577.8Q994.0 577.4 994.0 576.8L994.0 576.8L994.0 567.7Q994.0 567.1 994.4 566.7Q994.7 566.3 995.3 566.3L995.3 566.3Q995.9 566.3 996.2 566.7Q996.6 567.1 996.6 567.7L996.6 567.7L996.6 568.6L996.6 568.6Q996.9 567.6 997.6 567.0Q998.2 566.4 999.1 566.4L999.1 566.4Q999.7 566.4 1000.0 566.7L1000.0 566.7Q1000.4 567.0 1000.4 567.6L1000.4 567.6Q1000.4 568.2 1000.0 568.6L1000.0 568.6Q999.6 568.9 998.8 568.9L998.8 568.9Q996.7 568.9 996.7 571.3L996.7 571.3L996.7 576.8Q996.7 577.4 996.4 577.8ZM1004.9 578.1L1004.9 578.1Q1003.3 578.1 1002.2 577.2Q1001.1 576.2 1001.1 574.7L1001.1 574.7Q1001.1 573.2 1002.3 572.3Q1003.4 571.4 1005.5 571.3L1005.5 571.3L1008.5 571.1L1008.5 570.3Q1008.5 569.4 1007.9 568.9Q1007.4 568.4 1006.4 568.4L1006.4 568.4Q1005.6 568.4 1005.0 568.7Q1004.5 569.0 1004.0 569.8L1004.0 569.8Q1003.6 570.3 1002.9 570.3L1002.9 570.3Q1002.4 570.3 1002.1 570.0Q1001.8 569.7 1001.8 569.2L1001.8 569.2Q1001.8 568.9 1002.0 568.5L1002.0 568.5Q1002.4 567.5 1003.6 566.9Q1004.8 566.3 1006.5 566.3L1006.5 566.3Q1008.6 566.3 1009.9 567.4Q1011.1 568.4 1011.1 570.1L1011.1 570.1L1011.1 576.8Q1011.1 577.5 1010.8 577.8Q1010.4 578.2 1009.8 578.2L1009.8 578.2Q1009.3 578.2 1008.9 577.8Q1008.6 577.5 1008.6 576.9L1008.6 576.9L1008.6 576.1L1008.5 576.1Q1008.0 577.0 1007.0 577.6Q1006.1 578.1 1004.9 578.1ZM1005.8 576.1L1005.8 576.1Q1006.9 576.1 1007.7 575.4Q1008.5 574.7 1008.5 573.7L1008.5 573.7L1008.5 572.9L1005.8 573.0Q1004.9 573.1 1004.4 573.5Q1003.8 573.9 1003.8 574.6L1003.8 574.6Q1003.8 575.3 1004.4 575.7Q1004.9 576.1 1005.8 576.1ZM1017.8 578.2L1017.8 578.2Q1017.1 578.2 1016.7 577.8Q1016.2 577.5 1016.0 576.8L1016.0 576.8L1012.8 568.3Q1012.6 567.9 1012.6 567.5L1012.6 567.5Q1012.6 567.0 1013.0 566.7Q1013.4 566.3 1013.9 566.3L1013.9 566.3Q1014.9 566.3 1015.2 567.4L1015.2 567.4L1017.8 575.5L1017.9 575.5L1020.5 567.4Q1020.8 566.3 1021.7 566.3L1021.7 566.3Q1022.3 566.3 1022.7 566.7Q1023.0 567.0 1023.0 567.5L1023.0 567.5Q1023.0 567.9 1022.9 568.3L1022.9 568.3L1019.7 576.8Q1019.4 577.5 1019.0 577.8Q1018.5 578.2 1017.8 578.2ZM1029.6 578.2L1029.6 578.2Q1027.0 578.2 1025.5 576.6Q1024.1 575.1 1024.1 572.3L1024.1 572.3Q1024.1 569.6 1025.5 567.9Q1027.0 566.3 1029.4 566.3L1029.4 566.3Q1031.8 566.3 1033.2 567.8Q1034.7 569.3 1034.7 571.6L1034.7 571.6Q1034.7 572.2 1034.4 572.6Q1034.0 572.9 1033.4 572.9L1033.4 572.9L1026.7 572.9L1026.7 573.0Q1026.7 574.4 1027.5 575.3Q1028.3 576.1 1029.6 576.1L1029.6 576.1Q1030.5 576.1 1031.1 575.8Q1031.8 575.4 1032.4 574.6L1032.4 574.6Q1032.8 574.2 1033.3 574.2L1033.3 574.2Q1033.8 574.2 1034.1 574.4Q1034.4 574.7 1034.4 575.2L1034.4 575.2Q1034.4 575.5 1034.2 575.9L1034.2 575.9Q1033.6 577.0 1032.4 577.6Q1031.2 578.2 1029.6 578.2ZM1026.7 571.1L1026.7 571.1L1032.1 571.1Q1032.0 569.9 1031.3 569.1Q1030.6 568.4 1029.5 568.4Q1028.3 568.4 1027.6 569.2Q1026.8 569.9 1026.7 571.1ZM1041.5 578.2L1041.5 578.2Q1038.8 578.2 1037.4 576.6Q1035.9 575.1 1035.9 572.3L1035.9 572.3Q1035.9 569.6 1037.4 567.9Q1038.8 566.3 1041.3 566.3L1041.3 566.3Q1043.6 566.3 1045.1 567.8Q1046.6 569.3 1046.6 571.6L1046.6 571.6Q1046.6 572.2 1046.2 572.6Q1045.9 572.9 1045.3 572.9L1045.3 572.9L1038.6 572.9L1038.6 573.0Q1038.6 574.4 1039.4 575.3Q1040.1 576.1 1041.4 576.1L1041.4 576.1Q1042.3 576.1 1043.0 575.8Q1043.6 575.4 1044.3 574.6L1044.3 574.6Q1044.7 574.2 1045.2 574.2L1045.2 574.2Q1045.6 574.2 1046.0 574.4Q1046.3 574.7 1046.3 575.2L1046.3 575.2Q1046.3 575.5 1046.1 575.9L1046.1 575.9Q1045.5 577.0 1044.3 577.6Q1043.1 578.2 1041.5 578.2ZM1038.6 571.1L1038.6 571.1L1043.9 571.1Q1043.9 569.9 1043.2 569.1Q1042.4 568.4 1041.3 568.4Q1040.2 568.4 1039.4 569.2Q1038.7 569.9 1038.6 571.1ZM1050.6 577.8Q1050.2 578.2 1049.6 578.2Q1049.0 578.2 1048.6 577.8Q1048.3 577.4 1048.3 576.8L1048.3 576.8L1048.3 567.7Q1048.3 567.1 1048.6 566.7Q1049.0 566.3 1049.5 566.3Q1050.1 566.3 1050.5 566.7Q1050.9 567.1 1050.9 567.7L1050.9 567.7L1050.9 568.5L1050.9 568.5Q1051.9 566.3 1054.5 566.3L1054.5 566.3Q1056.3 566.3 1057.4 567.5Q1058.4 568.6 1058.4 570.6L1058.4 570.6L1058.4 576.8Q1058.4 577.4 1058.0 577.8Q1057.7 578.2 1057.1 578.2Q1056.5 578.2 1056.1 577.8Q1055.7 577.4 1055.7 576.8L1055.7 576.8L1055.7 571.1Q1055.7 569.9 1055.2 569.3Q1054.6 568.6 1053.5 568.6L1053.5 568.6Q1052.3 568.6 1051.6 569.4Q1050.9 570.1 1050.9 571.4L1050.9 571.4L1050.9 576.8Q1050.9 577.4 1050.6 577.8ZM1063.9 578.1L1063.9 578.1Q1062.2 578.1 1061.2 577.2Q1060.1 576.2 1060.1 574.7L1060.1 574.7Q1060.1 573.2 1061.2 572.3Q1062.3 571.4 1064.4 571.3L1064.4 571.3L1067.4 571.1L1067.4 570.3Q1067.4 569.4 1066.9 568.9Q1066.3 568.4 1065.3 568.4L1065.3 568.4Q1064.5 568.4 1064.0 568.7Q1063.4 569.0 1062.9 569.8L1062.9 569.8Q1062.5 570.3 1061.8 570.3L1061.8 570.3Q1061.3 570.3 1061.0 570.0Q1060.7 569.7 1060.7 569.2L1060.7 569.2Q1060.7 568.9 1060.9 568.5L1060.9 568.5Q1061.3 567.5 1062.6 566.9Q1063.8 566.3 1065.4 566.3L1065.4 566.3Q1067.5 566.3 1068.8 567.4Q1070.1 568.4 1070.1 570.1L1070.1 570.1L1070.1 576.8Q1070.1 577.5 1069.7 577.8Q1069.4 578.2 1068.8 578.2L1068.8 578.2Q1068.2 578.2 1067.9 577.8Q1067.5 577.5 1067.5 576.9L1067.5 576.9L1067.5 576.1L1067.4 576.1Q1067.0 577.0 1066.0 577.6Q1065.0 578.1 1063.9 578.1ZM1064.7 576.1L1064.7 576.1Q1065.8 576.1 1066.6 575.4Q1067.4 574.7 1067.4 573.7L1067.4 573.7L1067.4 572.9L1064.8 573.0Q1063.8 573.1 1063.3 573.5Q1062.8 573.9 1062.8 574.6L1062.8 574.6Q1062.8 575.3 1063.3 575.7Q1063.8 576.1 1064.7 576.1ZM1074.1 575.2L1074.1 575.2Q1074.7 575.2 1075.0 575.5Q1075.3 575.8 1075.3 576.3L1075.3 576.3Q1075.3 576.6 1075.2 576.9L1075.2 576.9L1074.3 580.6Q1074.2 581.1 1073.9 581.3Q1073.7 581.5 1073.2 581.5Q1072.7 581.5 1072.5 581.2Q1072.2 581.0 1072.2 580.5L1072.2 580.5Q1072.2 580.4 1072.2 580.3L1072.2 580.3L1072.8 576.3Q1073.0 575.2 1074.1 575.2Z M1084.2 578.1L1084.2 578.1Q1083.6 578.1 1083.2 577.7Q1082.8 577.4 1082.8 576.7L1082.8 576.7L1082.8 563.9Q1082.8 563.2 1083.2 562.8Q1083.6 562.4 1084.2 562.4L1084.2 562.4L1088.8 562.4Q1091.2 562.4 1092.6 563.9Q1094.1 565.3 1094.1 567.6L1094.1 567.6Q1094.1 569.9 1092.6 571.4Q1091.1 572.8 1088.7 572.8L1088.7 572.8L1085.6 572.8L1085.6 576.7Q1085.6 577.4 1085.2 577.8Q1084.9 578.1 1084.2 578.1ZM1085.6 564.7L1085.6 570.6L1088.1 570.6Q1089.6 570.6 1090.4 569.8Q1091.3 569.0 1091.3 567.6L1091.3 567.6Q1091.3 566.2 1090.4 565.5Q1089.6 564.7 1088.1 564.7L1088.1 564.7L1085.6 564.7ZM1097.7 578.1L1097.7 578.1Q1097.0 578.1 1096.6 577.6Q1096.1 577.2 1096.1 576.5L1096.1 576.5Q1096.1 575.9 1096.6 575.4Q1097.0 575.0 1097.7 575.0L1097.7 575.0Q1098.3 575.0 1098.8 575.4Q1099.2 575.9 1099.2 576.5L1099.2 576.5Q1099.2 577.2 1098.8 577.6Q1098.3 578.1 1097.7 578.1Z M1111.2 578.2L1111.2 578.2Q1108.6 578.2 1107.1 576.6Q1105.7 575.1 1105.7 572.3L1105.7 572.3Q1105.7 569.6 1107.1 567.9Q1108.6 566.3 1111.0 566.3L1111.0 566.3Q1113.4 566.3 1114.8 567.8Q1116.3 569.3 1116.3 571.6L1116.3 571.6Q1116.3 572.2 1116.0 572.6Q1115.6 572.9 1115.0 572.9L1115.0 572.9L1108.3 572.9L1108.3 573.0Q1108.3 574.4 1109.1 575.3Q1109.9 576.1 1111.2 576.1L1111.2 576.1Q1112.1 576.1 1112.7 575.8Q1113.4 575.4 1114.0 574.6L1114.0 574.6Q1114.4 574.2 1114.9 574.2L1114.9 574.2Q1115.4 574.2 1115.7 574.4Q1116 574.7 1116 575.2L1116 575.2Q1116 575.5 1115.8 575.9L1115.8 575.9Q1115.2 577.0 1114.0 577.6Q1112.8 578.2 1111.2 578.2ZM1108.4 571.1L1108.4 571.1L1113.7 571.1Q1113.6 569.9 1112.9 569.1Q1112.2 568.4 1111.1 568.4Q1109.9 568.4 1109.2 569.2Q1108.4 569.9 1108.4 571.1ZM1118.8 575.1L1118.8 575.1L1118.8 568.6L1118.0 568.6Q1117.5 568.6 1117.2 568.3Q1117.0 568.1 1117.0 567.6L1117.0 567.6Q1117.0 567.1 1117.2 566.8Q1117.5 566.6 1118.0 566.6L1118.0 566.6L1118.8 566.6L1118.8 565.0Q1118.8 564.4 1119.1 564.0Q1119.5 563.6 1120.1 563.6L1120.1 563.6Q1120.7 563.6 1121.1 564.0Q1121.4 564.4 1121.4 565.0L1121.4 565.0L1121.4 566.6L1122.7 566.6Q1123.2 566.6 1123.4 566.8Q1123.7 567.1 1123.7 567.6L1123.7 567.6Q1123.7 568.1 1123.4 568.3Q1123.2 568.6 1122.7 568.6L1122.7 568.6L1121.4 568.6L1121.4 574.6Q1121.4 575.2 1121.7 575.5Q1121.9 575.8 1122.5 575.9L1122.5 575.9L1122.7 575.9Q1123.8 576.0 1123.8 576.9L1123.8 576.9Q1123.8 577.5 1123.3 577.8Q1122.8 578.1 1121.9 578.1L1121.9 578.1L1121.7 578.1Q1118.8 578.1 1118.8 575.1Z M1133.1 578.1L1133.1 578.1Q1131.5 578.1 1130.4 577.2Q1129.3 576.2 1129.3 574.7L1129.3 574.7Q1129.3 573.2 1130.5 572.3Q1131.6 571.4 1133.7 571.3L1133.7 571.3L1136.7 571.1L1136.7 570.3Q1136.7 569.4 1136.1 568.9Q1135.6 568.4 1134.6 568.4L1134.6 568.4Q1133.8 568.4 1133.2 568.7Q1132.7 569.0 1132.2 569.8L1132.2 569.8Q1131.8 570.3 1131.1 570.3L1131.1 570.3Q1130.6 570.3 1130.3 570.0Q1130.0 569.7 1130.0 569.2L1130.0 569.2Q1130.0 568.9 1130.1 568.5L1130.1 568.5Q1130.6 567.5 1131.8 566.9Q1133.0 566.3 1134.7 566.3L1134.7 566.3Q1136.8 566.3 1138.0 567.4Q1139.3 568.4 1139.3 570.1L1139.3 570.1L1139.3 576.8Q1139.3 577.5 1139.0 577.8Q1138.6 578.2 1138.0 578.2L1138.0 578.2Q1137.5 578.2 1137.1 577.8Q1136.8 577.5 1136.7 576.9L1136.7 576.9L1136.7 576.1L1136.7 576.1Q1136.2 577.0 1135.2 577.6Q1134.3 578.1 1133.1 578.1ZM1134.0 576.1L1134.0 576.1Q1135.1 576.1 1135.9 575.4Q1136.7 574.7 1136.7 573.7L1136.7 573.7L1136.7 572.9L1134.0 573.0Q1133.1 573.1 1132.5 573.5Q1132.0 573.9 1132.0 574.6L1132.0 574.6Q1132.0 575.3 1132.5 575.7Q1133.1 576.1 1134.0 576.1ZM1143.9 577.8Q1143.5 578.2 1142.9 578.2Q1142.3 578.2 1141.9 577.8Q1141.5 577.4 1141.5 576.8L1141.5 576.8L1141.5 563.6Q1141.5 563.0 1141.9 562.6Q1142.3 562.2 1142.9 562.2Q1143.5 562.2 1143.9 562.6Q1144.2 563.0 1144.2 563.6L1144.2 563.6L1144.2 576.8Q1144.2 577.4 1143.9 577.8ZM1148.4 578.1L1148.4 578.1Q1147.7 578.1 1147.3 577.6Q1146.8 577.2 1146.8 576.5L1146.8 576.5Q1146.8 575.9 1147.3 575.4Q1147.7 575.0 1148.4 575.0L1148.4 575.0Q1149.0 575.0 1149.5 575.4Q1149.9 575.9 1149.9 576.5L1149.9 576.5Q1149.9 577.2 1149.5 577.6Q1149.0 578.1 1148.4 578.1Z " clip-path="url(#satori_cp-id-0)" mask="url(#satori_om-id-0)"/></svg>