<svg width="1200" height="630" viewBox="0 0 1200 630" xmlns="http://www.w3.org/2000/svg"><mask id="satori_om-id"><rect x="0" y="0" width="1200" height="630" fill="#fff"/></mask><defs><pattern id="satori_pattern_id-0_0" x="0" y="0" width="1" height="1" patternUnits="objectBoundingBox"><linearGradient id="satori_biid-0_0" x1="-0.09774620284174435" y1="0.18618324350808482" x2="1.0977462028417444" y2="0.8138167564919152" spreadMethod="pad"><stop offset="0%" stop-color="#f8fafc"/><stop offset="50%" stop-color="#eef2ff"/><stop offset="100%" stop-color="#ffffff"/></linearGradient><rect x="0" y="0" width="1200" height="630" fill="url(#satori_biid-0_0)"/></pattern></defs><clipPath id="satori_cp-id-0"><rect x="0" y="0" width="1200" height="630"/></clipPath><mask id="satori_om-id-0"><rect x="0" y="0" width="1200" height="630" fill="#fff"/></mask><rect x="0" y="0" width="1200" height="630" fill="url(#satori_pattern_id-0_0)"/><mask id="satori_om-id-0-0"><rect x="0" y="0" width="1200" height="509" fill="#fff" mask="url(#satori_om-id-0)"/></mask><mask id="satori_om-id-0-0-0"><rect x="72" y="72" width="1056" height="365" fill="#fff" mask="url(#satori_om-id-0)"/></mask><mask id="satori_om-id-0-0-0-0"><rect x="72" y="113" width="1056" height="38" fill="#fff" mask="url(#satori_om-id-0)"/></mask><path fill="#64748b" d="M82.7 143.2Q82.2 143.7 81.4 143.7Q80.6 143.7 80.1 143.2Q79.7 142.8 79.7 141.9L79.7 141.9L79.7 124.0L74.1 124.0Q73.4 124.0 73.0 123.5Q72.5 123.1 72.5 122.4Q72.5 121.8 73.0 121.3Q73.4 120.9 74.1 120.9L74.1 120.9L88.7 120.9Q89.4 120.9 89.9 121.3Q90.3 121.8 90.3 122.4Q90.3 123.1 89.9 123.5Q89.4 124.0 88.7 124.0L88.7 124.0L83.2 124.0L83.2 141.9Q83.2 142.8 82.7 143.2ZM95.5 143.3Q95.1 143.8 94.3 143.8Q93.6 143.8 93.1 143.3Q92.6 142.8 92.6 142.0L92.6 142.0L92.6 122.4Q92.6 121.6 93.1 121.1Q93.5 120.6 94.3 120.6L94.3 120.6Q95.1 120.6 95.5 121.1Q96.0 121.6 96.0 122.4L96.0 122.4L96.0 129.8L96.0 129.8Q96.7 128.3 98.1 127.5Q99.4 126.8 101.3 126.8L101.3 126.8Q103.9 126.8 105.5 128.4Q107.0 130.1 107.0 132.9L107.0 132.9L107.0 142.0Q107.0 142.8 106.5 143.3Q106.1 143.8 105.3 143.8L105.3 143.8Q104.6 143.8 104.1 143.3Q103.6 142.8 103.6 142.0L103.6 142.0L103.6 133.5Q103.6 131.7 102.7 130.7Q101.8 129.7 100.0 129.7L100.0 129.7Q98.2 129.7 97.1 130.8Q96 132.0 96 134.0L96 134.0L96 142.0Q96 142.8 95.5 143.3ZM116.0 143.8L116.0 143.8Q113.3 143.8 111.7 142.1Q110.2 140.5 110.2 137.7L110.2 137.7L110.2 128.5Q110.2 127.7 110.6 127.2Q111.1 126.7 111.9 126.7L111.9 126.7Q112.6 126.7 113.1 127.2Q113.6 127.7 113.6 128.5L113.6 128.5L113.6 137.0Q113.6 138.9 114.5 139.9Q115.3 140.9 117.1 140.9L117.1 140.9Q118.9 140.9 119.9 139.7Q121.0 138.5 121.0 136.6L121.0 136.6L121.0 128.5Q121.0 127.7 121.5 127.2Q121.9 126.7 122.7 126.7L122.7 126.7Q123.4 126.7 123.9 127.2Q124.4 127.7 124.4 128.5L124.4 128.5L124.4 142.0Q124.4 142.8 123.9 143.3Q123.5 143.8 122.8 143.8Q122.0 143.8 121.6 143.3Q121.1 142.8 121.1 142.1L121.1 142.1L121.1 140.7L121.0 140.7Q119.6 143.8 116.0 143.8ZM129.4 143.8L129.4 143.8Q128.6 143.8 128.1 143.3Q127.7 142.8 127.7 142.0L127.7 142.0L127.7 128.4Q127.7 127.7 128.1 127.2Q128.6 126.7 129.3 126.7L129.3 126.7Q130 126.7 130.4 127.2Q130.9 127.7 130.9 128.4L130.9 128.4L130.9 129.8L131.0 129.8Q131.3 128.5 132.3 127.6Q133.3 126.8 134.6 126.8L134.6 126.8Q135.5 126.8 135.9 127.2L135.9 127.2Q136.4 127.5 136.4 128.4L136.4 128.4Q136.4 129.1 135.9 129.5L135.9 129.5Q135.4 130.0 134.3 130.0L134.3 130.0Q132.7 130 131.9 131.0Q131.1 132.0 131.1 133.6L131.1 133.6L131.1 142.0Q131.1 142.8 130.6 143.3Q130.1 143.8 129.4 143.8ZM144.3 143.8L144.3 143.8Q141.9 143.8 140.2 142.9Q138.5 142.0 137.9 140.4L137.9 140.4Q137.7 140.1 137.7 139.7L137.7 139.7Q137.7 139.1 138.1 138.8Q138.5 138.4 139.2 138.4L139.2 138.4Q140.0 138.4 140.6 139.3L140.6 139.3Q141.3 140.3 142.1 140.8Q143.0 141.2 144.4 141.2L144.4 141.2Q145.9 141.2 146.8 140.6Q147.6 140.0 147.6 139.0L147.6 139.0Q147.6 138.2 147.1 137.7Q146.5 137.3 145.2 136.9L145.2 136.9L142.6 136.3Q137.9 135.2 137.9 131.7L137.9 131.7Q137.9 129.4 139.7 128.1Q141.5 126.7 144.4 126.7L144.4 126.7Q146.6 126.7 148.2 127.7Q149.9 128.7 150.3 130.2L150.3 130.2Q150.3 130.6 150.3 130.7L150.3 130.7Q150.3 131.3 150.0 131.6Q149.6 131.9 149 131.9L149 131.9Q148.1 131.9 147.6 131.2L147.6 131.2Q147.1 130.3 146.3 129.8Q145.5 129.3 144.3 129.3L144.3 129.3Q142.9 129.3 142.0 129.9Q141.2 130.5 141.2 131.5L141.2 131.5Q141.2 133.0 143.7 133.6L143.7 133.6L146.3 134.2Q148.9 134.8 150.0 135.9Q151.0 136.9 151.0 138.7L151.0 138.7Q151.0 141.0 149.2 142.4Q147.3 143.8 144.3 143.8ZM159.8 143.8L159.8 143.8Q156.7 143.8 154.8 141.4Q152.9 139.1 152.9 135.3Q152.9 131.4 154.8 129.1Q156.7 126.8 159.8 126.8L159.8 126.8Q161.5 126.8 162.9 127.6Q164.3 128.4 165.0 129.8L165.0 129.8L165.0 129.8L165.0 122.4Q165.0 121.6 165.5 121.1Q166.0 120.6 166.7 120.6L166.7 120.6Q167.5 120.6 167.9 121.1Q168.4 121.6 168.4 122.4L168.4 122.4L168.4 142.1Q168.4 142.9 167.9 143.3Q167.5 143.8 166.7 143.8L166.7 143.8Q166 143.8 165.5 143.3Q165.0 142.9 165.0 142.1L165.0 142.1L165.0 140.5L165.0 140.5Q164.3 142.0 163 142.9Q161.7 143.8 159.8 143.8ZM160.7 140.9L160.7 140.9Q162.7 140.9 163.9 139.4Q165.0 137.8 165.0 135.3L165.0 135.3Q165.0 132.7 163.9 131.2Q162.7 129.6 160.7 129.6L160.7 129.6Q158.7 129.6 157.5 131.1Q156.4 132.7 156.4 135.3L156.4 135.3Q156.4 137.9 157.5 139.4Q158.7 140.9 160.7 140.9ZM176.7 143.8L176.7 143.8Q174.3 143.8 172.7 142.4Q171.2 141 171.2 138.8L171.2 138.8Q171.2 136.6 172.8 135.4Q174.4 134.1 177.3 133.9L177.3 133.9L181.8 133.7L181.8 132.4Q181.8 131.0 180.9 130.3Q180.1 129.5 178.5 129.5L178.5 129.5Q177.3 129.5 176.4 130.0Q175.6 130.5 174.9 131.6L174.9 131.6Q174.4 132.3 173.5 132.3L173.5 132.3Q172.9 132.3 172.5 131.9Q172.0 131.5 172.0 130.9L172.0 130.9Q172.0 130.3 172.3 129.8L172.3 129.8Q173.0 128.4 174.7 127.6Q176.4 126.7 178.6 126.7L178.6 126.7Q181.6 126.7 183.4 128.2Q185.2 129.7 185.2 132.1L185.2 132.1L185.2 142.1Q185.2 142.8 184.7 143.3Q184.3 143.8 183.5 143.8L183.5 143.8Q182.8 143.8 182.4 143.3Q182.0 142.9 181.9 142.2L181.9 142.2L181.9 140.8L181.9 140.8Q181.2 142.1 179.7 142.9Q178.3 143.8 176.7 143.8ZM177.6 141.1L177.6 141.1Q179.4 141.1 180.6 140.0Q181.8 138.9 181.8 137.3L181.8 137.3L181.8 136.0L177.8 136.3Q176.2 136.4 175.4 137.0Q174.6 137.6 174.6 138.7L174.6 138.7Q174.6 139.8 175.4 140.4Q176.3 141.1 177.6 141.1ZM190.5 149.6L190.5 149.6Q189.3 149.6 188.7 149.2Q188.0 148.8 188.0 148.0L188.0 148.0Q188.0 147.4 188.4 147.1Q188.8 146.8 189.4 146.8L189.4 146.8Q189.5 146.8 189.8 146.8Q190.0 146.8 190.2 146.8L190.2 146.8Q191.9 146.8 192.7 144.6L192.7 144.6L193.0 143.6L187.5 129.3Q187.4 128.7 187.4 128.3L187.4 128.3Q187.4 127.6 187.8 127.2Q188.3 126.7 189.1 126.7L189.1 126.7Q189.7 126.7 190.1 127.0Q190.5 127.3 190.7 128.0L190.7 128.0L194.9 140.4L194.9 140.4L199.1 128.0Q199.3 127.3 199.7 127.0Q200.1 126.7 200.8 126.7L200.8 126.7Q201.5 126.7 201.9 127.2Q202.4 127.6 202.4 128.3L202.4 128.3Q202.4 128.7 202.2 129.2L202.2 129.2L196.5 144.3Q195.4 147.3 194.1 148.4Q192.8 149.6 190.5 149.6ZM207.2 139.7L207.2 139.7Q207.9 139.7 208.3 140.0Q208.7 140.4 208.7 141.1L208.7 141.1Q208.7 141.5 208.6 142.0L208.6 142.0L207.3 147.3Q207.0 148.5 205.8 148.5L205.8 148.5Q205.2 148.5 204.9 148.1Q204.5 147.8 204.5 147.3L204.5 147.3Q204.5 147.1 204.5 146.9L204.5 146.9L205.5 141.1Q205.8 139.7 207.2 139.7Z M233.7 143.5L221.2 143.5Q220.4 143.5 220.0 143.1Q219.5 142.7 219.5 142L219.5 142Q219.5 141.5 219.7 141.1Q219.9 140.8 220.5 140.2L220.5 140.2L227.6 133.0Q229.8 130.8 230.5 129.6Q231.2 128.4 231.2 127.1L231.2 127.1Q231.2 125.5 230.1 124.4Q229 123.4 227.3 123.4L227.3 123.4Q224.0 123.4 222.8 126.7L222.8 126.7Q222.5 127.3 222.2 127.6Q221.8 127.9 221.2 127.9L221.2 127.9Q220.5 127.9 220.1 127.5Q219.6 127.0 219.6 126.4L219.6 126.4Q219.6 126 219.7 125.6L219.7 125.6Q219.9 124.7 220.5 123.8Q221.1 122.9 222.0 122.2Q222.9 121.4 224.3 121.0Q225.7 120.5 227.3 120.5L227.3 120.5Q230.5 120.5 232.6 122.3Q234.7 124.1 234.7 126.9L234.7 126.9Q234.7 128.8 233.6 130.5Q232.6 132.1 229.7 135.0L229.7 135.0L224.3 140.4L224.3 140.5L233.7 140.5Q234.4 140.5 234.8 140.9Q235.2 141.3 235.2 142L235.2 142Q235.2 142.7 234.8 143.1Q234.4 143.5 233.7 143.5L233.7 143.5ZM246.6 143.9L246.6 143.9Q244.0 143.9 242.0 142.6Q240.1 141.3 239.0 138.9L239.0 138.9Q237.8 136.3 237.8 132.5L237.8 132.5Q237.8 126.8 240.1 123.7Q242.5 120.5 246.8 120.5L246.8 120.5Q249.1 120.5 251.0 121.5Q252.8 122.4 253.7 124.1L253.7 124.1Q254.1 124.8 254.1 125.4L254.1 125.4Q254.1 126.0 253.7 126.4Q253.3 126.8 252.6 126.8L252.6 126.8Q252.0 126.8 251.7 126.6Q251.3 126.3 250.8 125.7L250.8 125.7Q249.3 123.4 246.7 123.4L246.7 123.4Q244.1 123.4 242.6 125.7Q241.2 128.0 241.1 132.1L241.1 132.1L241.1 132.3L241.2 132.3Q241.9 130.7 243.6 129.7Q245.2 128.7 247.4 128.7L247.4 128.7Q250.7 128.7 252.8 130.8Q254.9 132.9 254.9 136.1L254.9 136.1Q254.9 139.5 252.5 141.7Q250.2 143.9 246.6 143.9ZM246.6 141.0L246.6 141.0Q248.6 141.0 250.0 139.6Q251.4 138.2 251.4 136.2L251.4 136.2Q251.4 134.2 250.0 132.8Q248.7 131.5 246.6 131.5Q244.5 131.5 243.2 132.8Q241.8 134.1 241.8 136.1L241.8 136.1Q241.8 138.2 243.2 139.6Q244.6 141.0 246.6 141.0Z M282.1 140.7Q279.3 143.8 274.4 143.8Q269.5 143.8 266.7 140.7Q263.8 137.6 263.8 132.2Q263.8 126.8 266.7 123.7Q269.5 120.5 274.4 120.5L274.4 120.5Q279.2 120.5 282.1 123.7Q284.9 126.8 284.9 132.2Q284.9 137.6 282.1 140.7ZM274.4 140.8L274.4 140.8Q277.6 140.8 279.5 138.5Q281.3 136.1 281.3 132.2L281.3 132.2Q281.3 128.3 279.5 125.9Q277.6 123.6 274.4 123.6L274.4 123.6Q271.2 123.6 269.3 125.9Q267.4 128.3 267.4 132.2L267.4 132.2Q267.4 136.1 269.3 138.5Q271.2 140.8 274.4 140.8ZM294.9 143.8L294.9 143.8Q291.3 143.8 289.2 141.5Q287.1 139.2 287.1 135.3L287.1 135.3Q287.1 131.4 289.2 129.1Q291.3 126.7 294.9 126.7L294.9 126.7Q297.2 126.7 299.1 127.9Q300.9 129.0 301.5 130.7L301.5 130.7Q301.6 131.2 301.6 131.5L301.6 131.5Q301.6 132.1 301.2 132.5Q300.8 132.9 300.2 132.9L300.2 132.9Q299.7 132.9 299.3 132.7Q299.0 132.4 298.7 131.9L298.7 131.9Q298.0 130.7 297.1 130.1Q296.2 129.5 294.9 129.5L294.9 129.5Q292.9 129.5 291.8 131.1Q290.6 132.6 290.6 135.3L290.6 135.3Q290.6 137.9 291.8 139.4Q292.9 141.0 294.9 141.0L294.9 141.0Q297.4 141.0 298.7 138.7L298.7 138.7Q299.0 138.1 299.3 137.9Q299.7 137.6 300.2 137.6L300.2 137.6Q300.8 137.6 301.3 138.0Q301.7 138.4 301.7 139.0L301.7 139.0Q301.7 139.4 301.5 139.9L301.5 139.9Q300.8 141.6 299 142.7Q297.2 143.8 294.9 143.8ZM305.4 139.5L305.4 139.5L305.4 129.7L304.2 129.7Q303.5 129.7 303.2 129.4Q302.8 129 302.8 128.4Q302.8 127.8 303.2 127.4Q303.5 127.0 304.2 127.0L304.2 127.0L305.4 127.0L305.4 124.6Q305.4 123.8 305.8 123.3Q306.3 122.8 307.1 122.8Q307.8 122.8 308.3 123.3Q308.8 123.8 308.8 124.6L308.8 124.6L308.8 127.0L310.7 127.0Q311.3 127.0 311.7 127.4Q312.1 127.8 312.1 128.4Q312.1 129 311.7 129.4Q311.3 129.7 310.7 129.7L310.7 129.7L308.8 129.7L308.8 138.8Q308.8 139.8 309.1 140.3Q309.5 140.7 310.4 140.8L310.4 140.8L310.7 140.8Q312.2 140.9 312.2 142.1L312.2 142.1Q312.2 143.6 309.7 143.6L309.7 143.6L309.5 143.6Q305.4 143.6 305.4 139.5ZM327.4 141.5Q325.3 143.8 321.7 143.8Q318.2 143.8 316.0 141.5Q313.9 139.2 313.9 135.3L313.9 135.3Q313.9 131.3 316.0 129.0Q318.2 126.7 321.7 126.7Q325.3 126.7 327.4 129.0Q329.5 131.3 329.5 135.3L329.5 135.3Q329.5 139.2 327.4 141.5ZM321.7 141L321.7 141Q323.7 141 324.9 139.5Q326.1 138.0 326.1 135.3L326.1 135.3Q326.1 132.5 324.9 131.0Q323.7 129.5 321.7 129.5Q319.7 129.5 318.5 131.0Q317.4 132.5 317.4 135.3L317.4 135.3Q317.4 138.0 318.5 139.5Q319.7 141 321.7 141ZM333.9 143.8L333.9 143.8Q333.1 143.8 332.7 143.3Q332.3 142.9 332.3 142.1L332.3 142.1L332.3 122.4Q332.3 121.6 332.7 121.1Q333.2 120.6 333.9 120.6Q334.7 120.6 335.2 121.1Q335.6 121.6 335.6 122.4L335.6 122.4L335.6 129.8L335.7 129.8Q336.5 128.4 337.8 127.6Q339.2 126.8 340.9 126.8L340.9 126.8Q344.0 126.8 345.9 129.1Q347.8 131.4 347.8 135.3L347.8 135.3Q347.8 139.2 345.9 141.5Q344.0 143.8 340.9 143.8L340.9 143.8Q339.1 143.8 337.7 142.9Q336.4 142.1 335.6 140.7L335.6 140.7L335.5 140.7L335.5 142.1Q335.5 142.9 335.1 143.3Q334.6 143.8 333.9 143.8ZM340.0 140.9L340.0 140.9Q342.0 140.9 343.1 139.4Q344.3 137.9 344.3 135.3L344.3 135.3Q344.3 132.7 343.1 131.1Q342.0 129.6 340.0 129.6L340.0 129.6Q338.0 129.6 336.8 131.2Q335.6 132.7 335.6 135.3L335.6 135.3Q335.6 137.8 336.8 139.3Q338.0 140.9 340.0 140.9ZM357.5 143.8L357.5 143.8Q353.8 143.8 351.7 141.5Q349.6 139.3 349.6 135.3L349.6 135.3Q349.6 131.4 351.7 129.1Q353.8 126.7 357.3 126.7L357.3 126.7Q360.5 126.7 362.6 128.9Q364.6 131 364.6 134.4L364.6 134.4Q364.6 135.2 364.2 135.6Q363.8 136.1 363.0 136.1L363.0 136.1L353.0 136.1L353.0 136.2Q353.0 138.4 354.2 139.7Q355.4 141.0 357.4 141.0L357.4 141.0Q358.8 141.0 359.8 140.5Q360.7 140.0 361.7 138.7L361.7 138.7Q362.2 138.1 362.8 138.1L362.8 138.1Q363.5 138.1 363.9 138.5Q364.3 138.9 364.3 139.5L364.3 139.5Q364.3 139.8 364.0 140.4L364.0 140.4Q363.2 142 361.5 142.9Q359.8 143.8 357.5 143.8ZM353.0 133.7L353.0 133.7L361.3 133.7Q361.2 131.8 360.1 130.6Q359 129.5 357.2 129.5L357.2 129.5Q355.5 129.5 354.3 130.6Q353.2 131.8 353.0 133.7ZM368.9 143.8L368.9 143.8Q368.2 143.8 367.7 143.3Q367.3 142.8 367.3 142.0L367.3 142.0L367.3 128.4Q367.3 127.7 367.7 127.2Q368.1 126.7 368.9 126.7L368.9 126.7Q369.6 126.7 370.0 127.2Q370.5 127.7 370.5 128.4L370.5 128.4L370.5 129.8L370.5 129.8Q370.9 128.5 371.9 127.6Q372.9 126.8 374.1 126.8L374.1 126.8Q375.0 126.8 375.5 127.2L375.5 127.2Q375.9 127.5 375.9 128.4L375.9 128.4Q375.9 129.1 375.4 129.5L375.4 129.5Q374.9 130.0 373.9 130.0L373.9 130.0Q372.2 130 371.4 131.0Q370.6 132.0 370.6 133.6L370.6 133.6L370.6 142.0Q370.6 142.8 370.2 143.3Q369.7 143.8 368.9 143.8Z M398.4 143.5L385.9 143.5Q385.1 143.5 384.7 143.1Q384.3 142.7 384.3 142L384.3 142Q384.3 141.5 384.4 141.1Q384.6 140.8 385.2 140.2L385.2 140.2L392.3 133.0Q394.5 130.8 395.2 129.6Q395.9 128.4 395.9 127.1L395.9 127.1Q395.9 125.5 394.8 124.4Q393.7 123.4 392 123.4L392 123.4Q388.7 123.4 387.5 126.7L387.5 126.7Q387.2 127.3 386.9 127.6Q386.5 127.9 385.9 127.9L385.9 127.9Q385.2 127.9 384.8 127.5Q384.3 127.0 384.3 126.4L384.3 126.4Q384.3 126 384.4 125.6L384.4 125.6Q384.6 124.7 385.2 123.8Q385.8 122.9 386.7 122.2Q387.6 121.4 389.0 121.0Q390.4 120.5 392.0 120.5L392.0 120.5Q395.3 120.5 397.3 122.3Q399.4 124.1 399.4 126.9L399.4 126.9Q399.4 128.8 398.3 130.5Q397.3 132.1 394.4 135.0L394.4 135.0L389 140.4L389 140.5L398.4 140.5Q399.1 140.5 399.5 140.9Q399.9 141.3 399.9 142L399.9 142Q399.9 142.7 399.5 143.1Q399.1 143.5 398.4 143.5L398.4 143.5ZM417.4 140.7Q415.1 143.9 411.1 143.9Q407.0 143.9 404.8 140.7Q402.5 137.6 402.5 132.2L402.5 132.2Q402.5 126.8 404.8 123.6Q407.1 120.5 411.1 120.5L411.1 120.5Q415.1 120.5 417.4 123.6Q419.7 126.8 419.7 132.2L419.7 132.2Q419.7 137.6 417.4 140.7ZM411.1 141.0L411.1 141.0Q413.5 141.0 414.8 138.6Q416.2 136.3 416.2 132.2L416.2 132.2Q416.2 128.1 414.8 125.8Q413.5 123.4 411.1 123.4Q408.7 123.4 407.3 125.8Q406 128.1 406 132.2L406 132.2Q406 136.3 407.3 138.6Q408.7 141.0 411.1 141.0ZM436.9 143.5L424.4 143.5Q423.6 143.5 423.2 143.1Q422.8 142.7 422.8 142L422.8 142Q422.8 141.5 422.9 141.1Q423.1 140.8 423.7 140.2L423.7 140.2L430.8 133.0Q433.0 130.8 433.7 129.6Q434.4 128.4 434.4 127.1L434.4 127.1Q434.4 125.5 433.3 124.4Q432.2 123.4 430.5 123.4L430.5 123.4Q427.2 123.4 426.0 126.7L426.0 126.7Q425.7 127.3 425.4 127.6Q425 127.9 424.4 127.9L424.4 127.9Q423.7 127.9 423.3 127.5Q422.8 127.0 422.8 126.4L422.8 126.4Q422.8 126 422.9 125.6L422.9 125.6Q423.1 124.7 423.7 123.8Q424.3 122.9 425.2 122.2Q426.1 121.4 427.5 121.0Q428.9 120.5 430.5 120.5L430.5 120.5Q433.8 120.5 435.8 122.3Q437.9 124.1 437.9 126.9L437.9 126.9Q437.9 128.8 436.8 130.5Q435.8 132.1 432.9 135.0L432.9 135.0L427.5 140.4L427.5 140.5L436.9 140.5Q437.6 140.5 438.0 140.9Q438.4 141.3 438.4 142L438.4 142Q438.4 142.7 438.0 143.1Q437.6 143.5 436.9 143.5L436.9 143.5ZM449.2 143.9L449.2 143.9Q446.5 143.9 444.6 142.9Q442.7 141.9 441.8 140.2L441.8 140.2Q441.3 139.3 441.3 138.5L441.3 138.5Q441.3 137.8 441.7 137.4Q442.1 136.9 442.9 136.9L442.9 136.9Q443.4 136.9 443.8 137.2Q444.2 137.5 444.4 138.1L444.4 138.1Q445.6 141.0 449.2 141.0L449.2 141.0Q451.3 141.0 452.5 139.9Q453.8 138.9 453.8 137.2L453.8 137.2Q453.8 135.3 452.5 134.3Q451.3 133.2 449.0 133.2L449.0 133.2L447.5 133.2Q446.8 133.2 446.4 132.8Q446.0 132.5 446.0 131.8Q446.0 131.2 446.4 130.9Q446.8 130.5 447.5 130.5L447.5 130.5L448.9 130.5Q450.8 130.5 452 129.5Q453.2 128.4 453.2 126.9L453.2 126.9Q453.2 125.3 452.2 124.3Q451.1 123.4 449.2 123.4L449.2 123.4Q447.5 123.4 446.5 124.1Q445.4 124.8 444.8 126.2L444.8 126.2Q444.6 126.9 444.2 127.2Q443.9 127.4 443.3 127.4L443.3 127.4Q442.5 127.4 442.1 127.0Q441.8 126.6 441.8 125.9L441.8 125.9Q441.8 125.1 442.2 124.2L442.2 124.2Q443.0 122.5 444.9 121.5Q446.7 120.5 449.2 120.5L449.2 120.5Q452.6 120.5 454.6 122.2Q456.6 123.8 456.6 126.4L456.6 126.4Q456.6 128.4 455.3 129.8Q454 131.2 451.9 131.7L451.9 131.7L451.9 131.8Q454.4 132.0 455.9 133.4Q457.4 134.9 457.4 137.2L457.4 137.2Q457.4 140.2 455.1 142.0Q452.8 143.9 449.2 143.9Z " clip-path="url(#satori_cp-id-0)" mask="url(#satori_om-id-0)"/><mask id="satori_om-id-0-0-0-1"><rect x="72" y="175" width="1056" height="221" fill="#fff" mask="url(#satori_om-id-0)"/></mask><path fill="#0f172a" d="M92.3 235.3L92.3 235.3Q85.5 235.3 81.0 232.9Q76.6 230.5 75.2 226.6L75.2 226.6Q74.7 225.3 74.7 224.1L74.7 224.1Q74.7 222.2 75.8 221.1Q77.0 220.0 78.8 220.0L78.8 220.0Q80.3 220.0 81.3 220.6Q82.3 221.2 83.2 222.7L83.2 222.7Q84.2 225.2 86.7 226.5Q89.1 227.7 92.5 227.7L92.5 227.7Q96.3 227.7 98.6 226.1Q101.0 224.5 101.0 222.0L101.0 222.0Q101.0 219.7 99.2 218.4Q97.4 217.0 93.2 216.1L93.2 216.1L88.4 215.2Q75 212.6 75 202.4L75 202.4Q75 198.3 77.2 195.2Q79.4 192.1 83.3 190.4Q87.3 188.7 92.2 188.7L92.2 188.7Q98.4 188.7 102.8 191.1Q107.2 193.6 108.7 198.0L108.7 198.0Q109.0 199.0 109.0 200.1L109.0 200.1Q109.0 201.8 107.9 202.8Q106.8 203.9 105 203.9L105 203.9Q103.4 203.9 102.4 203.2Q101.3 202.6 100.5 201.1L100.5 201.1Q98.4 196.3 92.2 196.3L92.2 196.3Q88.7 196.3 86.6 197.8Q84.5 199.3 84.5 201.8L84.5 201.8Q84.5 203.9 86.2 205.2Q88 206.6 92.0 207.4L92.0 207.4L96.7 208.3Q103.9 209.8 107.1 212.8Q110.4 215.8 110.4 220.9L110.4 220.9Q110.4 227.6 105.5 231.4Q100.7 235.3 92.3 235.3ZM127.3 235.2L127.3 235.2Q121.8 235.2 118.5 231.8Q115.2 228.5 115.2 222.6L115.2 222.6L115.2 205.1Q115.2 202.9 116.5 201.6Q117.7 200.4 119.8 200.4Q121.8 200.4 123.1 201.6Q124.3 202.9 124.3 205.1L124.3 205.1L124.3 220.7Q124.3 224.1 126.0 225.8Q127.6 227.6 130.6 227.6Q133.6 227.6 135.4 225.6Q137.2 223.6 137.2 220.2L137.2 220.2L137.2 205.1Q137.2 202.9 138.4 201.6Q139.7 200.4 141.8 200.4Q143.8 200.4 145.1 201.6Q146.3 202.9 146.3 205.1L146.3 205.1L146.3 230.6Q146.3 232.8 145.1 234.0Q143.9 235.2 141.9 235.2Q139.9 235.2 138.7 234.0Q137.5 232.8 137.5 230.6L137.5 230.6L137.5 228.5L137.3 228.5Q134.7 235.2 127.3 235.2ZM160.1 245.3Q158.9 246.5 156.8 246.5Q154.8 246.5 153.5 245.3Q152.3 244.0 152.3 241.7L152.3 241.7L152.3 205.1Q152.3 202.8 153.5 201.6Q154.7 200.4 156.8 200.4Q158.8 200.4 160.0 201.6Q161.3 202.8 161.3 205.1L161.3 205.1L161.3 206.9L161.4 206.9Q162.8 203.9 165.5 202.2Q168.2 200.5 171.8 200.5L171.8 200.5Q178.2 200.5 181.9 205.1Q185.5 209.7 185.5 217.8L185.5 217.8Q185.5 225.9 181.9 230.5Q178.3 235.1 172.0 235.1L172.0 235.1Q168.4 235.1 165.6 233.4Q162.9 231.8 161.6 228.9L161.6 228.9L161.4 228.9L161.4 241.7Q161.4 244.0 160.1 245.3ZM168.8 227.7L168.8 227.7Q172.2 227.7 174.2 225.1Q176.2 222.4 176.2 217.8Q176.2 213.2 174.2 210.5Q172.2 207.8 168.8 207.8L168.8 207.8Q165.4 207.8 163.4 210.6Q161.3 213.3 161.3 217.8L161.3 217.8Q161.3 222.3 163.4 225.0Q165.4 227.7 168.8 227.7ZM198.1 245.3Q196.8 246.5 194.8 246.5Q192.7 246.5 191.5 245.3Q190.2 244.0 190.2 241.7L190.2 241.7L190.2 205.1Q190.2 202.8 191.5 201.6Q192.7 200.4 194.7 200.4Q196.8 200.4 198.0 201.6Q199.2 202.8 199.2 205.1L199.2 205.1L199.2 206.9L199.4 206.9Q200.8 203.9 203.5 202.2Q206.2 200.5 209.8 200.5L209.8 200.5Q216.2 200.5 219.8 205.1Q223.5 209.7 223.5 217.8L223.5 217.8Q223.5 225.9 219.9 230.5Q216.3 235.1 209.9 235.1L209.9 235.1Q206.3 235.1 203.6 233.4Q200.9 231.8 199.5 228.9L199.5 228.9L199.3 228.9L199.3 241.7Q199.3 244.0 198.1 245.3ZM206.7 227.7L206.7 227.7Q210.1 227.7 212.1 225.1Q214.2 222.4 214.2 217.8Q214.2 213.2 212.1 210.5Q210.1 207.8 206.7 207.8L206.7 207.8Q203.4 207.8 201.3 210.6Q199.3 213.3 199.3 217.8L199.3 217.8Q199.3 222.3 201.3 225.0Q203.3 227.7 206.7 227.7ZM255.7 230.6Q251.2 235.3 243.6 235.3Q235.9 235.3 231.4 230.6Q227.0 226.0 227.0 217.8L227.0 217.8Q227.0 209.7 231.5 205.0Q236 200.3 243.6 200.3L243.6 200.3Q251.2 200.3 255.7 205.0Q260.2 209.7 260.2 217.8L260.2 217.8Q260.2 226.0 255.7 230.6ZM243.6 228.3L243.6 228.3Q246.9 228.3 248.9 225.6Q250.9 222.8 250.9 217.8L250.9 217.8Q250.9 212.9 248.9 210.1Q246.9 207.3 243.6 207.3Q240.2 207.3 238.2 210.1Q236.2 212.9 236.2 217.8L236.2 217.8Q236.2 222.8 238.2 225.6Q240.2 228.3 243.6 228.3ZM269.4 235.2L269.4 235.2Q267.3 235.2 266.1 234.0Q264.8 232.7 264.8 230.5L264.8 230.5L264.8 205.0Q264.8 202.8 266.0 201.6Q267.3 200.4 269.3 200.4L269.3 200.4Q271.2 200.4 272.4 201.6Q273.6 202.8 273.6 205.0L273.6 205.0L273.6 207.1L273.8 207.1Q274.4 204.1 276.3 202.3Q278.2 200.5 280.7 200.5L280.7 200.5Q282.6 200.5 283.6 201.4L283.6 201.4Q284.9 202.4 284.9 204.7L284.9 204.7Q284.9 206.9 283.6 208.0L283.6 208.0Q282.2 209.2 279.6 209.2L279.6 209.2Q276.6 209.2 275.3 210.8Q274.0 212.5 274.0 215.6L274.0 215.6L274.0 230.5Q274.0 232.7 272.8 234.0Q271.5 235.2 269.4 235.2ZM290.6 226.0L290.6 226.0L290.6 207.9L288.8 207.9Q287.2 207.9 286.2 207.0Q285.3 206.1 285.3 204.5Q285.3 202.9 286.2 202.0Q287.2 201.1 288.8 201.1L288.8 201.1L290.6 201.1L290.6 197.3Q290.6 195.1 291.8 193.8Q293 192.6 295.1 192.6Q297.3 192.6 298.5 193.8Q299.7 195.1 299.7 197.3L299.7 197.3L299.7 201.1L302.9 201.1Q304.5 201.1 305.5 202.0Q306.4 202.9 306.4 204.5Q306.4 206.1 305.5 207.0Q304.5 207.9 302.9 207.9L302.9 207.9L299.7 207.9L299.7 224.0Q299.7 225.7 300.3 226.6Q301 227.4 302.5 227.5L302.5 227.5L303.1 227.6Q304.8 227.7 305.7 228.5Q306.5 229.3 306.5 230.9L306.5 230.9Q306.5 232.8 304.8 233.9Q303.0 234.9 300.1 234.9L300.1 234.9L299.8 234.9Q290.6 234.9 290.6 226.0ZM319.1 195.5Q317.7 196.9 315.6 196.9Q313.5 196.9 312.1 195.5Q310.7 194.1 310.7 192.2L310.7 192.2Q310.7 190.2 312.1 188.8Q313.5 187.5 315.6 187.5Q317.7 187.5 319.1 188.8Q320.5 190.2 320.5 192.2L320.5 192.2Q320.5 194.1 319.1 195.5ZM318.9 233.9Q317.7 235.2 315.6 235.2Q313.5 235.2 312.3 233.9Q311.0 232.7 311.0 230.5L311.0 230.5L311.0 205.1Q311.0 202.9 312.3 201.6Q313.5 200.4 315.6 200.4Q317.7 200.4 318.9 201.6Q320.2 202.9 320.2 205.1L320.2 205.1L320.2 230.5Q320.2 232.7 318.9 233.9ZM334.1 234.0Q332.8 235.2 330.8 235.2Q328.7 235.2 327.5 234.0Q326.2 232.7 326.2 230.5L326.2 230.5L326.2 205.0Q326.2 202.8 327.4 201.6Q328.6 200.4 330.6 200.4Q332.7 200.4 333.9 201.6Q335.2 202.9 335.2 205.0L335.2 205.0L335.2 206.9L335.4 206.9Q338.1 200.4 345.7 200.4L345.7 200.4Q351.3 200.4 354.3 203.7Q357.3 207.1 357.3 213.0L357.3 213.0L357.3 230.5Q357.3 232.7 356.1 234.0Q354.8 235.2 352.8 235.2Q350.7 235.2 349.4 234.0Q348.2 232.7 348.2 230.5L348.2 230.5L348.2 214.9Q348.2 211.6 346.6 209.8Q345.1 208.0 342.0 208.0Q339 208.0 337.2 210.0Q335.3 212.1 335.3 215.3L335.3 215.3L335.3 230.5Q335.3 232.7 334.1 234.0ZM378.1 247.1L378.1 247.1Q373.1 247.1 369.4 245.4Q365.7 243.7 364.0 241.0L364.0 241.0Q363.3 239.8 363.3 238.5L363.3 238.5Q363.3 237.0 364.3 236.1Q365.3 235.1 367 235.1L367 235.1Q368.7 235.1 370.2 236.4L370.2 236.4Q374.0 240.1 378.0 240.1L378.0 240.1Q381.8 240.1 383.9 238.2Q386.0 236.4 386.0 233.2L386.0 233.2L386.0 227.8L385.8 227.8Q384.6 230.6 381.8 232.2Q379.1 233.8 375.5 233.8L375.5 233.8Q369.2 233.8 365.5 229.4Q361.9 224.9 361.9 217.2L361.9 217.2Q361.9 209.4 365.5 204.9Q369.2 200.5 375.6 200.5L375.6 200.5Q379.2 200.5 381.8 202.2Q384.5 203.9 385.8 206.8L385.8 206.8L386.0 206.8L386.0 205.0Q386.0 202.7 387.3 201.6Q388.6 200.4 390.6 200.4L390.6 200.4Q392.7 200.4 393.9 201.6Q395.2 202.7 395.2 205.0L395.2 205.0L395.2 233.2Q395.2 239.8 390.6 243.5Q386.1 247.2 378.1 247.1ZM378.6 227.1L378.6 227.1Q382 227.1 384.0 224.5Q386.1 221.9 386.1 217.4Q386.1 212.8 384.0 210.1Q382 207.5 378.6 207.5L378.6 207.5Q375.2 207.5 373.2 210.1Q371.2 212.8 371.2 217.3L371.2 217.3Q371.2 221.9 373.2 224.5Q375.2 227.1 378.6 227.1Z M417.5 235.1L417.5 235.1Q415.3 235.1 414.0 233.9Q412.7 232.7 412.7 230.7L412.7 230.7Q412.7 229.5 413.3 227.7L413.3 227.7L425.7 194.2Q426.7 191.4 428.4 190.1Q430.1 188.8 432.8 188.8L432.8 188.8Q435.5 188.8 437.2 190.1Q439.0 191.4 440.0 194.1L440.0 194.1L452.3 227.7Q452.9 229.4 452.9 230.7L452.9 230.7Q452.9 232.6 451.6 233.9Q450.3 235.1 448.2 235.1L448.2 235.1Q446.2 235.1 445.1 234.2Q443.9 233.2 443.3 231.0L443.3 231.0L440.9 223.9L424.7 223.9L422.3 230.9Q421.6 233.1 420.5 234.1Q419.4 235.1 417.5 235.1ZM432.6 198.1L426.7 216.6L438.8 216.6L432.8 198.1L432.6 198.1ZM466.8 233.8Q465.6 235.1 463.4 235.1Q461.2 235.1 459.9 233.8Q458.7 232.6 458.7 230.2L458.7 230.2L458.7 193.8Q458.7 191.4 459.9 190.1Q461.2 188.8 463.4 188.8Q465.6 188.8 466.8 190.1Q468.1 191.4 468.1 193.8L468.1 193.8L468.1 230.2Q468.1 232.6 466.8 233.8Z M496.4 233.8Q495.2 235.1 493.0 235.1Q490.8 235.1 489.5 233.8Q488.3 232.6 488.3 230.2L488.3 230.2L488.3 194.4Q488.3 192.1 489.5 190.8Q490.8 189.5 493.0 189.5L493.0 189.5L506.6 189.5Q513.6 189.5 517.9 193.7Q522.2 198.0 522.2 204.9L522.2 204.9Q522.2 211.8 517.8 216.1Q513.3 220.3 506.1 220.3L506.1 220.3L497.7 220.3L497.7 230.2Q497.7 232.6 496.4 233.8ZM497.7 196.9L497.7 213.0L504.1 213.0Q508.1 213.0 510.4 210.9Q512.6 208.8 512.6 204.9Q512.6 201.1 510.4 199.0Q508.2 196.9 504.1 196.9L504.1 196.9L497.7 196.9ZM535.1 234.0Q533.8 235.2 531.8 235.2Q529.7 235.2 528.5 234.0Q527.2 232.7 527.2 230.5L527.2 230.5L527.2 193.6Q527.2 191.3 528.5 190.0Q529.7 188.8 531.8 188.8Q533.8 188.8 535.1 190.0Q536.3 191.3 536.3 193.6L536.3 193.6L536.3 230.5Q536.3 232.7 535.1 234.0ZM552.4 235.1L552.4 235.1Q547.6 235.1 544.4 232.2Q541.2 229.4 541.2 224.9L541.2 224.9Q541.2 220.4 544.6 217.8Q547.9 215.2 554.3 214.8L554.3 214.8L562.7 214.3L562.7 212.1Q562.7 209.8 561.2 208.5Q559.7 207.1 557.1 207.1L557.1 207.1Q555.0 207.1 553.5 207.9Q552.1 208.7 550.6 210.7L550.6 210.7Q549.1 212.4 546.9 212.4L546.9 212.4Q545.3 212.4 544.2 211.4Q543.1 210.4 543.1 208.9L543.1 208.9Q543.1 207.8 543.6 206.8L543.6 206.8Q544.8 203.8 548.5 202.1Q552.3 200.3 557.5 200.3L557.5 200.3Q563.9 200.3 567.8 203.4Q571.7 206.5 571.7 211.5L571.7 211.5L571.7 230.6Q571.7 232.8 570.4 234.0Q569.2 235.2 567.2 235.2L567.2 235.2Q565.3 235.2 564.1 234.2Q563.0 233.1 562.8 231.1L562.8 231.1L562.8 229.4L562.7 229.4Q561.3 232.1 558.5 233.6Q555.6 235.1 552.4 235.1ZM555.4 228.5L555.4 228.5Q558.4 228.5 560.6 226.7Q562.7 225.0 562.7 222.3L562.7 222.3L562.7 219.8L555.6 220.3Q553.1 220.5 551.7 221.6Q550.3 222.6 550.3 224.4L550.3 224.4Q550.3 226.3 551.7 227.4Q553.1 228.5 555.4 228.5ZM585.4 234.0Q584.2 235.2 582.1 235.2Q580.0 235.2 578.8 234.0Q577.5 232.7 577.5 230.5L577.5 230.5L577.5 205.0Q577.5 202.8 578.7 201.6Q579.9 200.4 581.9 200.4Q584 200.4 585.3 201.6Q586.5 202.9 586.5 205.0L586.5 205.0L586.5 206.9L586.7 206.9Q589.4 200.4 597 200.4L597 200.4Q602.6 200.4 605.6 203.7Q608.6 207.1 608.6 213.0L608.6 213.0L608.6 230.5Q608.6 232.7 607.4 234.0Q606.1 235.2 604.1 235.2Q602 235.2 600.8 234.0Q599.5 232.7 599.5 230.5L599.5 230.5L599.5 214.9Q599.5 211.6 597.9 209.8Q596.4 208.0 593.3 208.0Q590.3 208.0 588.5 210.0Q586.7 212.1 586.7 215.3L586.7 215.3L586.7 230.5Q586.7 232.7 585.4 234.0ZM622.3 234.0Q621.0 235.2 619.0 235.2Q616.9 235.2 615.7 234.0Q614.4 232.7 614.4 230.5L614.4 230.5L614.4 205.0Q614.4 202.8 615.6 201.6Q616.8 200.4 618.8 200.4Q620.9 200.4 622.1 201.6Q623.4 202.9 623.4 205.0L623.4 205.0L623.4 206.9L623.6 206.9Q626.3 200.4 633.9 200.4L633.9 200.4Q639.4 200.4 642.5 203.7Q645.5 207.1 645.5 213.0L645.5 213.0L645.5 230.5Q645.5 232.7 644.3 234.0Q643 235.2 640.9 235.2Q638.9 235.2 637.6 234.0Q636.4 232.7 636.4 230.5L636.4 230.5L636.4 214.9Q636.4 211.6 634.8 209.8Q633.3 208.0 630.2 208.0Q627.2 208.0 625.4 210.0Q623.5 212.1 623.5 215.3L623.5 215.3L623.5 230.5Q623.5 232.7 622.3 234.0ZM659.5 195.5Q658.1 196.9 656 196.9Q653.9 196.9 652.5 195.5Q651.1 194.1 651.1 192.2L651.1 192.2Q651.1 190.2 652.5 188.8Q653.9 187.5 656 187.5Q658.1 187.5 659.5 188.8Q660.9 190.2 660.9 192.2L660.9 192.2Q660.9 194.1 659.5 195.5ZM659.3 233.9Q658.1 235.2 656 235.2Q653.9 235.2 652.7 233.9Q651.4 232.7 651.4 230.5L651.4 230.5L651.4 205.1Q651.4 202.9 652.7 201.6Q653.9 200.4 656 200.4Q658.1 200.4 659.3 201.6Q660.6 202.9 660.6 205.1L660.6 205.1L660.6 230.5Q660.6 232.7 659.3 233.9ZM674.5 234.0Q673.3 235.2 671.2 235.2Q669.1 235.2 667.9 234.0Q666.6 232.7 666.6 230.5L666.6 230.5L666.6 205.0Q666.6 202.8 667.8 201.6Q669.0 200.4 671.0 200.4Q673.1 200.4 674.3 201.6Q675.6 202.9 675.6 205.0L675.6 205.0L675.6 206.9L675.8 206.9Q678.5 200.4 686.1 200.4L686.1 200.4Q691.7 200.4 694.7 203.7Q697.7 207.1 697.7 213.0L697.7 213.0L697.7 230.5Q697.7 232.7 696.5 234.0Q695.2 235.2 693.2 235.2Q691.1 235.2 689.8 234.0Q688.6 232.7 688.6 230.5L688.6 230.5L688.6 214.9Q688.6 211.6 687.0 209.8Q685.5 208.0 682.4 208.0Q679.4 208.0 677.6 210.0Q675.8 212.1 675.8 215.3L675.8 215.3L675.8 230.5Q675.8 232.7 674.5 234.0ZM718.5 247.1L718.5 247.1Q713.5 247.1 709.8 245.4Q706.1 243.7 704.4 241.0L704.4 241.0Q703.7 239.8 703.7 238.5L703.7 238.5Q703.7 237.0 704.7 236.1Q705.7 235.1 707.4 235.1L707.4 235.1Q709.1 235.1 710.6 236.4L710.6 236.4Q714.4 240.1 718.4 240.1L718.4 240.1Q722.2 240.1 724.3 238.2Q726.4 236.4 726.4 233.2L726.4 233.2L726.4 227.8L726.2 227.8Q725 230.6 722.2 232.2Q719.5 233.8 715.9 233.8L715.9 233.8Q709.6 233.8 706.0 229.4Q702.3 224.9 702.3 217.2L702.3 217.2Q702.3 209.4 705.9 204.9Q709.6 200.5 716.0 200.5L716.0 200.5Q719.6 200.5 722.2 202.2Q724.9 203.9 726.3 206.8L726.3 206.8L726.4 206.8L726.4 205.0Q726.4 202.7 727.7 201.6Q729.0 200.4 731.0 200.4L731.0 200.4Q733.1 200.4 734.3 201.6Q735.6 202.7 735.6 205.0L735.6 205.0L735.6 233.2Q735.6 239.8 731.0 243.5Q726.5 247.2 718.5 247.1ZM719.0 227.1L719.0 227.1Q722.4 227.1 724.4 224.5Q726.5 221.9 726.5 217.4Q726.5 212.8 724.4 210.1Q722.4 207.5 719.0 207.5L719.0 207.5Q715.6 207.5 713.6 210.1Q711.6 212.8 711.6 217.3L711.6 217.3Q711.6 221.9 713.6 224.5Q715.6 227.1 719.0 227.1Z M764.0 235.1L764.0 235.1Q759.2 235.1 756 232.2Q752.8 229.4 752.8 224.9L752.8 224.9Q752.8 220.4 756.2 217.8Q759.6 215.2 765.9 214.8L765.9 214.8L774.3 214.3L774.3 212.1Q774.3 209.8 772.8 208.5Q771.3 207.1 768.7 207.1L768.7 207.1Q766.6 207.1 765.2 207.9Q763.7 208.7 762.2 210.7L762.2 210.7Q760.7 212.4 758.6 212.4L758.6 212.4Q756.9 212.4 755.8 211.4Q754.8 210.4 754.8 208.9L754.8 208.9Q754.8 207.8 755.2 206.8L755.2 206.8Q756.4 203.8 760.1 202.1Q763.9 200.3 769.1 200.3L769.1 200.3Q775.5 200.3 779.4 203.4Q783.3 206.5 783.3 211.5L783.3 211.5L783.3 230.6Q783.3 232.8 782.1 234.0Q780.8 235.2 778.8 235.2L778.8 235.2Q776.9 235.2 775.8 234.2Q774.6 233.1 774.5 231.1L774.5 231.1L774.5 229.4L774.3 229.4Q772.9 232.1 770.1 233.6Q767.3 235.1 764.0 235.1ZM767.0 228.5L767.0 228.5Q770.1 228.5 772.2 226.7Q774.3 225.0 774.3 222.3L774.3 222.3L774.3 219.8L767.3 220.3Q764.7 220.5 763.3 221.6Q761.9 222.6 761.9 224.4L761.9 224.4Q761.9 226.3 763.3 227.4Q764.7 228.5 767.0 228.5ZM797.0 234.0Q795.8 235.2 793.7 235.2Q791.7 235.2 790.4 234.0Q789.2 232.7 789.2 230.5L789.2 230.5L789.2 205.0Q789.2 202.8 790.3 201.6Q791.5 200.4 793.6 200.4Q795.6 200.4 796.9 201.6Q798.1 202.9 798.1 205.0L798.1 205.0L798.1 206.9L798.3 206.9Q801.1 200.4 808.6 200.4L808.6 200.4Q814.2 200.4 817.2 203.7Q820.3 207.1 820.3 213.0L820.3 213.0L820.3 230.5Q820.3 232.7 819 234.0Q817.8 235.2 815.7 235.2Q813.6 235.2 812.4 234.0Q811.1 232.7 811.1 230.5L811.1 230.5L811.1 214.9Q811.1 211.6 809.6 209.8Q808 208.0 805.0 208.0Q801.9 208.0 800.1 210.0Q798.3 212.1 798.3 215.3L798.3 215.3L798.3 230.5Q798.3 232.7 797.0 234.0ZM838.5 235.1L838.5 235.1Q832.2 235.1 828.5 230.4Q824.8 225.8 824.8 217.7L824.8 217.7Q824.8 209.8 828.5 205.1Q832.2 200.5 838.5 200.5L838.5 200.5Q842.1 200.5 844.8 202.2Q847.5 204.0 848.8 206.8L848.8 206.8L848.9 206.8L848.9 193.6Q848.9 191.3 850.2 190.0Q851.4 188.8 853.5 188.8Q855.6 188.8 856.8 190.0Q858.1 191.3 858.1 193.6L858.1 193.6L858.1 230.6Q858.1 232.8 856.8 234.0Q855.6 235.2 853.5 235.2L853.5 235.2Q851.5 235.2 850.2 234.0Q848.9 232.8 848.9 230.6L848.9 230.6L848.9 228.6L848.8 228.6Q847.7 231.6 844.9 233.3Q842.2 235.1 838.5 235.1ZM841.6 227.7L841.6 227.7Q845.0 227.7 847.0 225.1Q849 222.4 849 217.8L849 217.8Q849 213.2 847.0 210.5Q845.0 207.8 841.6 207.8L841.6 207.8Q838.1 207.8 836.1 210.5Q834.2 213.2 834.2 217.8L834.2 217.8Q834.2 222.4 836.1 225.1Q838.1 227.7 841.6 227.7Z M95.8 308.9L95.8 308.9Q85.8 308.9 80.1 302.7Q74.3 296.5 74.3 285.6L74.3 285.6Q74.3 274.7 80.1 268.5Q85.8 262.3 95.6 262.3L95.6 262.3Q101.9 262.3 106.6 265.0Q111.3 267.6 113.7 272.5L113.7 272.5Q114.6 274.3 114.6 276.1L114.6 276.1Q114.6 277.9 113.5 279.0Q112.3 280.1 110.4 280.1L110.4 280.1Q108.8 280.1 107.8 279.4Q106.7 278.6 105.9 277.0L105.9 277.0Q104.4 273.6 101.8 271.8Q99.1 270.1 95.7 270.1L95.7 270.1Q90.3 270.1 87.2 274.3Q84.0 278.5 84.0 285.6L84.0 285.6Q84.0 292.8 87.1 296.9Q90.3 301.1 95.7 301.1L95.7 301.1Q103.1 301.1 106.1 294.4L106.1 294.4Q106.8 292.8 107.8 292.1Q108.7 291.5 110.2 291.5L110.2 291.5Q112.2 291.5 113.4 292.6Q114.6 293.8 114.6 295.6L114.6 295.6Q114.6 297.1 113.9 298.8L113.9 298.8Q111.8 303.5 107 306.2Q102.2 308.9 95.8 308.9ZM148.1 304.2Q143.6 308.9 135.9 308.9Q128.3 308.9 123.8 304.2Q119.3 299.6 119.3 291.4L119.3 291.4Q119.3 283.3 123.9 278.6Q128.4 273.9 135.9 273.9L135.9 273.9Q143.5 273.9 148.0 278.6Q152.5 283.3 152.5 291.4L152.5 291.4Q152.5 299.6 148.1 304.2ZM135.9 301.9L135.9 301.9Q139.3 301.9 141.3 299.1Q143.3 296.4 143.3 291.4L143.3 291.4Q143.3 286.5 141.3 283.7Q139.3 280.9 135.9 280.9Q132.6 280.9 130.6 283.7Q128.6 286.5 128.6 291.4L128.6 291.4Q128.6 296.4 130.6 299.1Q132.5 301.9 135.9 301.9ZM165.3 307.6Q164.1 308.8 162 308.8Q159.9 308.8 158.7 307.6Q157.4 306.3 157.4 304.1L157.4 304.1L157.4 267.1Q157.4 264.9 158.7 263.6Q159.9 262.4 162 262.4Q164.1 262.4 165.3 263.6Q166.6 264.9 166.6 267.1L166.6 267.1L166.6 304.1Q166.6 306.3 165.3 307.6ZM180.8 307.6Q179.6 308.8 177.5 308.8Q175.4 308.8 174.2 307.6Q172.9 306.3 172.9 304.1L172.9 304.1L172.9 267.1Q172.9 264.9 174.2 263.6Q175.4 262.4 177.5 262.4Q179.6 262.4 180.8 263.6Q182.1 264.9 182.1 267.1L182.1 267.1L182.1 304.1Q182.1 306.3 180.8 307.6ZM198.1 308.7L198.1 308.7Q193.3 308.7 190.1 305.8Q186.9 303.0 186.9 298.5L186.9 298.5Q186.9 294.0 190.3 291.4Q193.7 288.8 200.0 288.4L200.0 288.4L208.4 287.9L208.4 285.7Q208.4 283.4 206.9 282.1Q205.4 280.7 202.8 280.7L202.8 280.7Q200.7 280.7 199.3 281.5Q197.8 282.3 196.3 284.3L196.3 284.3Q194.8 286.0 192.7 286.0L192.7 286.0Q191 286.0 189.9 285.0Q188.8 284.0 188.8 282.5L188.8 282.5Q188.8 281.4 189.3 280.4L189.3 280.4Q190.5 277.4 194.2 275.7Q198.0 273.9 203.2 273.9L203.2 273.9Q209.6 273.9 213.5 277.0Q217.4 280.1 217.4 285.1L217.4 285.1L217.4 304.2Q217.4 306.4 216.2 307.6Q214.9 308.8 212.9 308.8L212.9 308.8Q211.0 308.8 209.9 307.8Q208.7 306.7 208.6 304.7L208.6 304.7L208.6 303.0L208.4 303.0Q207 305.6 204.2 307.2Q201.3 308.7 198.1 308.7ZM201.1 302.1L201.1 302.1Q204.2 302.1 206.3 300.3Q208.4 298.6 208.4 295.9L208.4 295.9L208.4 293.4L201.3 293.9Q198.8 294.1 197.4 295.1Q196 296.2 196 298.0L196 298.0Q196 299.9 197.4 301.0Q198.8 302.1 201.1 302.1ZM227.9 308.8L227.9 308.8Q225.9 308.8 224.7 307.6Q223.5 306.4 223.5 304.2L223.5 304.2L223.5 267.1Q223.5 264.9 224.7 263.6Q226.0 262.4 228.0 262.4Q230.1 262.4 231.3 263.6Q232.6 264.9 232.6 267.1L232.6 267.1L232.6 280.5L232.8 280.5Q234.2 277.5 236.9 275.8Q239.6 274.1 243.1 274.1L243.1 274.1Q249.5 274.1 253.1 278.7Q256.8 283.3 256.8 291.4Q256.8 299.5 253.1 304.1Q249.5 308.7 243.2 308.7L243.2 308.7Q239.5 308.7 236.8 307.0Q234.1 305.4 232.7 302.4L232.7 302.4L232.5 302.4L232.5 304.2Q232.5 306.4 231.2 307.6Q230 308.8 227.9 308.8ZM240.0 301.3L240.0 301.3Q243.4 301.3 245.4 298.7Q247.4 296.0 247.4 291.4L247.4 291.4Q247.4 286.8 245.4 284.1Q243.4 281.4 240.0 281.4L240.0 281.4Q236.7 281.4 234.6 284.2Q232.6 286.9 232.6 291.4L232.6 291.4Q232.6 295.9 234.6 298.6Q236.7 301.3 240.0 301.3ZM289.0 304.2Q284.5 308.9 276.8 308.9Q269.2 308.9 264.7 304.2Q260.3 299.6 260.3 291.4L260.3 291.4Q260.3 283.3 264.8 278.6Q269.3 273.9 276.8 273.9L276.8 273.9Q284.4 273.9 288.9 278.6Q293.4 283.3 293.4 291.4L293.4 291.4Q293.4 299.6 289.0 304.2ZM276.8 301.9L276.8 301.9Q280.2 301.9 282.2 299.1Q284.2 296.4 284.2 291.4L284.2 291.4Q284.2 286.5 282.2 283.7Q280.2 280.9 276.8 280.9Q273.5 280.9 271.5 283.7Q269.5 286.5 269.5 291.4L269.5 291.4Q269.5 296.4 271.5 299.1Q273.4 301.9 276.8 301.9ZM302.7 308.8L302.7 308.8Q300.6 308.8 299.4 307.6Q298.1 306.3 298.1 304.1L298.1 304.1L298.1 278.6Q298.1 276.4 299.3 275.2Q300.5 274.0 302.5 274.0L302.5 274.0Q304.5 274.0 305.7 275.2Q306.8 276.4 306.8 278.6L306.8 278.6L306.8 280.7L307.0 280.7Q307.7 277.6 309.6 275.9Q311.5 274.1 314 274.1L314 274.1Q315.8 274.1 316.8 275.0L316.8 275.0Q318.2 276.0 318.2 278.3L318.2 278.3Q318.2 280.5 316.8 281.6L316.8 281.6Q315.5 282.8 312.9 282.8L312.9 282.8Q309.9 282.8 308.6 284.4Q307.3 286.1 307.3 289.2L307.3 289.2L307.3 304.1Q307.3 306.3 306.0 307.6Q304.8 308.8 302.7 308.8ZM331.3 308.7L331.3 308.7Q326.5 308.7 323.3 305.8Q320.1 303.0 320.1 298.5L320.1 298.5Q320.1 294.0 323.5 291.4Q326.8 288.8 333.2 288.4L333.2 288.4L341.6 287.9L341.6 285.7Q341.6 283.4 340.1 282.1Q338.6 280.7 336.0 280.7L336.0 280.7Q333.9 280.7 332.4 281.5Q331 282.3 329.5 284.3L329.5 284.3Q328.0 286.0 325.8 286.0L325.8 286.0Q324.2 286.0 323.1 285.0Q322.0 284.0 322.0 282.5L322.0 282.5Q322.0 281.4 322.5 280.4L322.5 280.4Q323.7 277.4 327.4 275.7Q331.2 273.9 336.4 273.9L336.4 273.9Q342.8 273.9 346.7 277.0Q350.6 280.1 350.6 285.1L350.6 285.1L350.6 304.2Q350.6 306.4 349.3 307.6Q348.1 308.8 346.1 308.8L346.1 308.8Q344.2 308.8 343.0 307.8Q341.9 306.7 341.8 304.7L341.8 304.7L341.8 303.0L341.6 303.0Q340.2 305.6 337.4 307.2Q334.5 308.7 331.3 308.7ZM334.3 302.1L334.3 302.1Q337.3 302.1 339.5 300.3Q341.6 298.6 341.6 295.9L341.6 295.9L341.6 293.4L334.5 293.9Q332.0 294.1 330.6 295.1Q329.2 296.2 329.2 298.0L329.2 298.0Q329.2 299.9 330.6 301.0Q332 302.1 334.3 302.1ZM358.9 299.6L358.9 299.6L358.9 281.5L357.1 281.5Q355.5 281.5 354.5 280.6Q353.6 279.7 353.6 278.1Q353.6 276.5 354.5 275.6Q355.5 274.6 357.1 274.6L357.1 274.6L358.9 274.6L358.9 270.9Q358.9 268.7 360.1 267.4Q361.3 266.2 363.4 266.2Q365.6 266.2 366.8 267.4Q368 268.7 368 270.9L368 270.9L368 274.6L371.2 274.6Q372.8 274.6 373.8 275.6Q374.7 276.5 374.7 278.1Q374.7 279.6 373.8 280.6Q372.8 281.5 371.2 281.5L371.2 281.5L368 281.5L368 297.6Q368 299.3 368.7 300.1Q369.3 301.0 370.8 301.1L370.8 301.1L371.4 301.1Q373.1 301.3 374.0 302.1Q374.8 302.9 374.8 304.5L374.8 304.5Q374.8 306.4 373.1 307.5Q371.3 308.5 368.4 308.5L368.4 308.5L368.1 308.5Q358.9 308.5 358.9 299.6ZM387.4 269.1Q386.0 270.5 383.9 270.5Q381.8 270.5 380.4 269.1Q379.0 267.7 379.0 265.8L379.0 265.8Q379.0 263.8 380.4 262.4Q381.8 261.1 383.9 261.1Q386.0 261.1 387.4 262.4Q388.8 263.8 388.8 265.8L388.8 265.8Q388.8 267.7 387.4 269.1ZM387.3 307.5Q386.0 308.8 383.9 308.8Q381.8 308.8 380.6 307.5Q379.3 306.3 379.3 304.1L379.3 304.1L379.3 278.7Q379.3 276.5 380.6 275.2Q381.8 274.0 383.9 274.0Q386.0 274.0 387.3 275.2Q388.5 276.5 388.5 278.7L388.5 278.7L388.5 304.1Q388.5 306.3 387.3 307.5ZM422.0 304.2Q417.6 308.9 409.9 308.9Q402.3 308.9 397.8 304.2Q393.3 299.6 393.3 291.4L393.3 291.4Q393.3 283.3 397.8 278.6Q402.3 273.9 409.9 273.9L409.9 273.9Q417.5 273.9 422 278.6Q426.5 283.3 426.5 291.4L426.5 291.4Q426.5 299.6 422.0 304.2ZM409.9 301.9L409.9 301.9Q413.3 301.9 415.3 299.1Q417.2 296.4 417.2 291.4L417.2 291.4Q417.2 286.5 415.3 283.7Q413.3 280.9 409.9 280.9Q406.5 280.9 404.5 283.7Q402.6 286.5 402.6 291.4L402.6 291.4Q402.6 296.4 404.5 299.1Q406.5 301.9 409.9 301.9ZM439.1 307.6Q437.8 308.8 435.8 308.8Q433.7 308.8 432.4 307.6Q431.2 306.3 431.2 304.1L431.2 304.1L431.2 278.6Q431.2 276.4 432.4 275.2Q433.5 274.0 435.6 274.0Q437.7 274.0 438.9 275.2Q440.2 276.5 440.2 278.6L440.2 278.6L440.2 280.5L440.3 280.5Q443.1 274.0 450.7 274.0L450.7 274.0Q456.2 274.0 459.3 277.3Q462.3 280.6 462.3 286.6L462.3 286.6L462.3 304.1Q462.3 306.3 461.0 307.6Q459.8 308.8 457.7 308.8Q455.7 308.8 454.4 307.6Q453.2 306.3 453.2 304.1L453.2 304.1L453.2 288.5Q453.2 285.1 451.6 283.4Q450.0 281.6 447 281.6Q444.0 281.6 442.1 283.6Q440.3 285.6 440.3 288.9L440.3 288.9L440.3 304.1Q440.3 306.3 439.1 307.6Z M491.0 307.6Q489.8 308.8 487.7 308.8Q485.6 308.8 484.4 307.6Q483.2 306.4 483.2 304.1L483.2 304.1L483.2 281.5L481.4 281.5Q479.9 281.5 479 280.6Q478.1 279.7 478.1 278.1Q478.1 276.6 479 275.7Q479.9 274.8 481.4 274.8L481.4 274.8L483.2 274.8L483.2 272.3Q483.2 267.4 485.5 265.0Q487.9 262.7 492.7 262.6L492.7 262.6Q496.2 262.6 497.9 263.6Q499.6 264.6 499.6 266.3L499.6 266.3Q499.6 268.2 497.8 268.7L497.8 268.7Q496.9 269.0 496 269.0L496 269.0Q493.9 269.1 493.0 269.9Q492.1 270.8 492.1 272.7L492.1 272.7L492.1 274.8L495.9 274.8Q497.4 274.8 498.3 275.7Q499.3 276.6 499.3 278.1Q499.3 279.7 498.3 280.6Q497.4 281.5 495.9 281.5L495.9 281.5L492.3 281.5L492.3 304.1Q492.3 306.4 491.0 307.6ZM531 304.2Q526.5 308.9 518.9 308.9Q511.2 308.9 506.8 304.2Q502.3 299.6 502.3 291.4L502.3 291.4Q502.3 283.3 506.8 278.6Q511.3 273.9 518.9 273.9L518.9 273.9Q526.5 273.9 531.0 278.6Q535.5 283.3 535.5 291.4L535.5 291.4Q535.5 299.6 531 304.2ZM518.9 301.9L518.9 301.9Q522.3 301.9 524.2 299.1Q526.2 296.4 526.2 291.4L526.2 291.4Q526.2 286.5 524.2 283.7Q522.3 280.9 518.9 280.9Q515.5 280.9 513.5 283.7Q511.5 286.5 511.5 291.4L511.5 291.4Q511.5 296.4 513.5 299.1Q515.5 301.9 518.9 301.9ZM544.7 308.8L544.7 308.8Q542.6 308.8 541.4 307.6Q540.2 306.3 540.2 304.1L540.2 304.1L540.2 278.6Q540.2 276.4 541.4 275.2Q542.6 274.0 544.6 274.0L544.6 274.0Q546.5 274.0 547.7 275.2Q548.9 276.4 548.9 278.6L548.9 278.6L548.9 280.7L549.1 280.7Q549.7 277.6 551.6 275.9Q553.5 274.1 556.0 274.1L556.0 274.1Q557.9 274.1 558.9 275.0L558.9 275.0Q560.2 276.0 560.2 278.3L560.2 278.3Q560.2 280.5 558.9 281.6L558.9 281.6Q557.5 282.8 554.9 282.8L554.9 282.8Q551.9 282.8 550.6 284.4Q549.3 286.1 549.3 289.2L549.3 289.2L549.3 304.1Q549.3 306.3 548.1 307.6Q546.8 308.8 544.7 308.8Z M585.1 307.5Q583.8 308.8 581.6 308.8Q579.4 308.8 578.1 307.5Q576.9 306.2 576.9 303.9L576.9 303.9L576.9 268.0Q576.9 265.6 578.1 264.4Q579.4 263.1 581.6 263.1L581.6 263.1L595.3 263.1Q603.1 263.1 607.4 266.9Q611.7 270.7 611.7 277.4L611.7 277.4Q611.7 281.7 609.6 285.1Q607.6 288.4 603.9 290.0L603.9 290.0L610.4 301.2Q611.4 303.0 611.4 304.5L611.4 304.5Q611.4 306.4 610.1 307.6Q608.7 308.8 606.7 308.8L606.7 308.8Q605.0 308.8 604.0 308.1Q603 307.3 601.8 305.2L601.8 305.2L594.3 291.6L586.3 291.6L586.3 303.9Q586.3 306.2 585.1 307.5ZM586.3 270.4L586.3 284.8L594.4 284.8Q598 284.8 600.0 282.9Q602.0 281.0 602.0 277.6L602.0 277.6Q602.0 274.3 599.9 272.4Q597.8 270.4 594.3 270.4L594.3 270.4L586.3 270.4ZM644.6 304.2Q640.1 308.9 632.4 308.9Q624.8 308.9 620.3 304.2Q615.8 299.6 615.8 291.4L615.8 291.4Q615.8 283.3 620.4 278.6Q624.9 273.9 632.4 273.9L632.4 273.9Q640.0 273.9 644.5 278.6Q649.0 283.3 649.0 291.4L649.0 291.4Q649.0 299.6 644.6 304.2ZM632.4 301.9L632.4 301.9Q635.8 301.9 637.8 299.1Q639.8 296.4 639.8 291.4L639.8 291.4Q639.8 286.5 637.8 283.7Q635.8 280.9 632.4 280.9Q629.1 280.9 627.1 283.7Q625.1 286.5 625.1 291.4L625.1 291.4Q625.1 296.4 627.1 299.1Q629.0 301.9 632.4 301.9ZM658.4 308.8L658.4 308.8Q656.4 308.8 655.2 307.6Q653.9 306.4 653.9 304.2L653.9 304.2L653.9 267.1Q653.9 264.9 655.2 263.6Q656.4 262.4 658.5 262.4Q660.6 262.4 661.8 263.6Q663.1 264.9 663.1 267.1L663.1 267.1L663.1 280.5L663.3 280.5Q664.7 277.5 667.4 275.8Q670.1 274.1 673.6 274.1L673.6 274.1Q680.0 274.1 683.6 278.7Q687.2 283.3 687.2 291.4Q687.2 299.5 683.6 304.1Q680.0 308.7 673.6 308.7L673.6 308.7Q670 308.7 667.3 307.0Q664.6 305.4 663.1 302.4L663.1 302.4L662.9 302.4L662.9 304.2Q662.9 306.4 661.7 307.6Q660.5 308.8 658.4 308.8ZM670.5 301.3L670.5 301.3Q673.9 301.3 675.9 298.7Q677.9 296.0 677.9 291.4L677.9 291.4Q677.9 286.8 675.9 284.1Q673.9 281.4 670.5 281.4L670.5 281.4Q667.2 281.4 665.1 284.2Q663.0 286.9 663.0 291.4L663.0 291.4Q663.0 295.9 665.1 298.6Q667.2 301.3 670.5 301.3ZM719.4 304.2Q715.0 308.9 707.3 308.9Q699.7 308.9 695.2 304.2Q690.7 299.6 690.7 291.4L690.7 291.4Q690.7 283.3 695.2 278.6Q699.8 273.9 707.3 273.9L707.3 273.9Q714.9 273.9 719.4 278.6Q723.9 283.3 723.9 291.4L723.9 291.4Q723.9 299.6 719.4 304.2ZM707.3 301.9L707.3 301.9Q710.7 301.9 712.7 299.1Q714.6 296.4 714.6 291.4L714.6 291.4Q714.6 286.5 712.7 283.7Q710.7 280.9 707.3 280.9Q703.9 280.9 702.0 283.7Q700.0 286.5 700.0 291.4L700.0 291.4Q700.0 296.4 701.9 299.1Q703.9 301.9 707.3 301.9ZM731.0 299.6L731.0 299.6L731.0 281.5L729.3 281.5Q727.7 281.5 726.7 280.6Q725.8 279.7 725.8 278.1Q725.8 276.5 726.7 275.6Q727.7 274.6 729.3 274.6L729.3 274.6L731.0 274.6L731.0 270.9Q731.0 268.7 732.3 267.4Q733.5 266.2 735.6 266.2Q737.7 266.2 738.9 267.4Q740.2 268.7 740.2 270.9L740.2 270.9L740.2 274.6L743.4 274.6Q745 274.6 745.9 275.6Q746.9 276.5 746.9 278.1Q746.9 279.6 745.9 280.6Q745 281.5 743.4 281.5L743.4 281.5L740.2 281.5L740.2 297.6Q740.2 299.3 740.8 300.1Q741.5 301.0 742.9 301.1L742.9 301.1L743.5 301.1Q745.3 301.3 746.1 302.1Q747 302.9 747 304.5L747 304.5Q747 306.4 745.3 307.5Q743.5 308.5 740.5 308.5L740.5 308.5L740.2 308.5Q731.0 308.5 731.0 299.6ZM759.5 269.1Q758.1 270.5 756.1 270.5Q754 270.5 752.6 269.1Q751.2 267.7 751.2 265.8L751.2 265.8Q751.2 263.8 752.6 262.4Q754 261.1 756.1 261.1Q758.1 261.1 759.5 262.4Q760.9 263.8 760.9 265.8L760.9 265.8Q760.9 267.7 759.5 269.1ZM759.4 307.5Q758.2 308.8 756.1 308.8Q753.9 308.8 752.7 307.5Q751.5 306.3 751.5 304.1L751.5 304.1L751.5 278.7Q751.5 276.5 752.7 275.2Q753.9 274.0 756.1 274.0Q758.2 274.0 759.4 275.2Q760.6 276.5 760.6 278.7L760.6 278.7L760.6 304.1Q760.6 306.3 759.4 307.5ZM782.0 308.9L782.0 308.9Q774.4 308.9 769.9 304.2Q765.5 299.5 765.5 291.4L765.5 291.4Q765.5 283.4 769.9 278.6Q774.3 273.9 781.9 273.9L781.9 273.9Q786.9 273.9 790.8 276.1Q794.7 278.3 796.0 281.9L796.0 281.9Q796.5 283.2 796.5 284.2L796.5 284.2Q796.5 285.8 795.4 286.8Q794.3 287.7 792.6 287.7L792.6 287.7Q791.3 287.7 790.4 287.2Q789.5 286.6 788.8 285.4L788.8 285.4Q786.4 281.1 782.2 281.1L782.2 281.1Q778.7 281.1 776.7 283.8Q774.7 286.5 774.7 291.4L774.7 291.4Q774.7 296.3 776.7 299.0Q778.7 301.7 782.1 301.7L782.1 301.7Q786.3 301.7 788.7 297.8L788.7 297.8Q789.6 296.3 790.5 295.7Q791.4 295.1 792.8 295.1L792.8 295.1Q794.5 295.1 795.6 296.1Q796.7 297.1 796.7 298.7L796.7 298.7Q796.7 299.8 796.1 301.1L796.1 301.1Q794.6 304.6 790.7 306.7Q786.8 308.9 782.0 308.9Z M78.8 382.3L78.8 382.3Q76.6 382.3 75.3 381.1Q74.0 379.9 74.0 377.9L74.0 377.9Q74.0 376.7 74.6 374.9L74.6 374.9L86.9 341.4Q87.9 338.6 89.6 337.3Q91.3 336.0 94 336.0L94 336.0Q96.8 336.0 98.5 337.3Q100.2 338.6 101.2 341.3L101.2 341.3L113.6 374.9Q114.2 376.6 114.2 377.9L114.2 377.9Q114.2 379.8 112.9 381.1Q111.5 382.3 109.5 382.3L109.5 382.3Q107.5 382.3 106.3 381.4Q105.2 380.4 104.6 378.2L104.6 378.2L102.2 371.1L85.9 371.1L83.5 378.1Q82.9 380.3 81.8 381.3Q80.6 382.3 78.8 382.3ZM93.8 345.3L88.0 363.8L100 363.8L94.0 345.3L93.8 345.3ZM127 392.5Q125.8 393.7 123.7 393.7Q121.6 393.7 120.4 392.5Q119.1 391.2 119.1 388.9L119.1 388.9L119.1 352.3Q119.1 350 120.4 348.8Q121.6 347.6 123.6 347.6Q125.7 347.6 126.9 348.8Q128.1 350.0 128.1 352.3L128.1 352.3L128.1 354.1L128.3 354.1Q129.7 351.1 132.4 349.4Q135.1 347.7 138.7 347.7L138.7 347.7Q145.1 347.7 148.7 352.3Q152.4 356.9 152.4 365L152.4 365Q152.4 373.1 148.8 377.7Q145.2 382.3 138.8 382.3L138.8 382.3Q135.3 382.3 132.5 380.6Q129.8 379 128.4 376.1L128.4 376.1L128.3 376.1L128.3 388.9Q128.3 391.2 127 392.5ZM135.6 374.9L135.6 374.9Q139.0 374.9 141.0 372.3Q143.1 369.6 143.1 365Q143.1 360.4 141.0 357.7Q139.0 355.0 135.6 355.0L135.6 355.0Q132.3 355.0 130.3 357.8Q128.2 360.5 128.2 365L128.2 365Q128.2 369.5 130.2 372.2Q132.3 374.9 135.6 374.9ZM165.0 392.5Q163.7 393.7 161.7 393.7Q159.6 393.7 158.3 392.5Q157.1 391.2 157.1 388.9L157.1 388.9L157.1 352.3Q157.1 350 158.3 348.8Q159.6 347.6 161.6 347.6Q163.6 347.6 164.9 348.8Q166.1 350.0 166.1 352.3L166.1 352.3L166.1 354.1L166.3 354.1Q167.7 351.1 170.4 349.4Q173.1 347.7 176.7 347.7L176.7 347.7Q183.0 347.7 186.7 352.3Q190.4 356.9 190.4 365L190.4 365Q190.4 373.1 186.8 377.7Q183.1 382.3 176.8 382.3L176.8 382.3Q173.2 382.3 170.5 380.6Q167.8 379 166.4 376.1L166.4 376.1L166.2 376.1L166.2 388.9Q166.2 391.2 165.0 392.5ZM173.6 374.9L173.6 374.9Q177 374.9 179.0 372.3Q181.0 369.6 181.0 365Q181.0 360.4 179.0 357.7Q177 355.0 173.6 355.0L173.6 355.0Q170.3 355.0 168.2 357.8Q166.2 360.5 166.2 365L166.2 365Q166.2 369.5 168.2 372.2Q170.2 374.9 173.6 374.9ZM203.2 381.2Q201.9 382.4 199.8 382.4Q197.8 382.4 196.5 381.2Q195.3 379.9 195.3 377.7L195.3 377.7L195.3 340.8Q195.3 338.5 196.5 337.2Q197.8 336.0 199.8 336.0Q201.9 336.0 203.2 337.2Q204.4 338.5 204.4 340.8L204.4 340.8L204.4 377.7Q204.4 379.9 203.2 381.2ZM218.8 342.7Q217.3 344.1 215.3 344.1Q213.2 344.1 211.8 342.7Q210.4 341.3 210.4 339.4L210.4 339.4Q210.4 337.4 211.8 336.0Q213.2 334.7 215.3 334.7Q217.3 334.7 218.8 336.0Q220.2 337.4 220.2 339.4L220.2 339.4Q220.2 341.3 218.8 342.7ZM218.6 381.1Q217.4 382.4 215.3 382.4Q213.2 382.4 211.9 381.1Q210.7 379.9 210.7 377.7L210.7 377.7L210.7 352.3Q210.7 350.1 211.9 348.8Q213.2 347.6 215.3 347.6Q217.4 347.6 218.6 348.8Q219.8 350.1 219.8 352.3L219.8 352.3L219.8 377.7Q219.8 379.9 218.6 381.1ZM241.2 382.5L241.2 382.5Q233.6 382.5 229.1 377.8Q224.7 373.1 224.7 365L224.7 365Q224.7 357.0 229.1 352.3Q233.6 347.5 241.1 347.5L241.1 347.5Q246.1 347.5 250 349.7Q253.9 351.9 255.3 355.5L255.3 355.5Q255.8 356.8 255.8 357.8L255.8 357.8Q255.8 359.4 254.6 360.4Q253.5 361.3 251.8 361.3L251.8 361.3Q250.5 361.3 249.6 360.8Q248.7 360.2 248 359.0L248 359.0Q245.6 354.7 241.4 354.7L241.4 354.7Q237.9 354.7 235.9 357.4Q233.9 360.1 233.9 365.0L233.9 365.0Q233.9 369.9 235.9 372.6Q237.9 375.3 241.3 375.3L241.3 375.3Q245.6 375.3 247.9 371.4L247.9 371.4Q248.8 369.9 249.8 369.3Q250.7 368.7 252.1 368.7L252.1 368.7Q253.7 368.7 254.8 369.7Q255.9 370.7 255.9 372.3L255.9 372.3Q255.9 373.4 255.3 374.7L255.3 374.7Q253.8 378.2 249.9 380.3Q246.0 382.5 241.2 382.5ZM270.7 382.3L270.7 382.3Q265.8 382.3 262.7 379.4Q259.5 376.6 259.5 372.1L259.5 372.1Q259.5 367.6 262.8 365.0Q266.2 362.4 272.5 362L272.5 362L281.0 361.5L281.0 359.3Q281.0 357.0 279.5 355.7Q277.9 354.3 275.3 354.3L275.3 354.3Q273.3 354.3 271.8 355.1Q270.4 355.9 268.8 357.9L268.8 357.9Q267.3 359.6 265.2 359.6L265.2 359.6Q263.6 359.6 262.5 358.6Q261.4 357.6 261.4 356.1L261.4 356.1Q261.4 355.0 261.9 354L261.9 354Q263.0 351 266.8 349.3Q270.5 347.5 275.8 347.5L275.8 347.5Q282.2 347.5 286.1 350.6Q289.9 353.7 289.9 358.7L289.9 358.7L289.9 377.8Q289.9 380.0 288.7 381.2Q287.5 382.4 285.5 382.4L285.5 382.4Q283.6 382.4 282.4 381.4Q281.3 380.3 281.1 378.3L281.1 378.3L281.1 376.6L280.9 376.6Q279.6 379.3 276.7 380.8Q273.9 382.3 270.7 382.3ZM273.7 375.7L273.7 375.7Q276.7 375.7 278.8 373.9Q281.0 372.2 281.0 369.5L281.0 369.5L281.0 367.0L273.9 367.5Q271.3 367.7 270.0 368.8Q268.6 369.8 268.6 371.6L268.6 371.6Q268.6 373.5 270.0 374.6Q271.4 375.7 273.7 375.7ZM298.3 373.2L298.3 373.2L298.3 355.1L296.5 355.1Q294.9 355.1 293.9 354.2Q293.0 353.3 293.0 351.7Q293.0 350.1 293.9 349.2Q294.9 348.3 296.5 348.3L296.5 348.3L298.3 348.3L298.3 344.5Q298.3 342.3 299.5 341.0Q300.7 339.8 302.8 339.8Q304.9 339.8 306.2 341.0Q307.4 342.3 307.4 344.5L307.4 344.5L307.4 348.3L310.6 348.3Q312.2 348.3 313.2 349.2Q314.1 350.1 314.1 351.7Q314.1 353.3 313.2 354.2Q312.2 355.1 310.6 355.1L310.6 355.1L307.4 355.1L307.4 371.2Q307.4 372.9 308.0 373.8Q308.7 374.6 310.2 374.7L310.2 374.7L310.8 374.8Q312.5 374.9 313.4 375.7Q314.2 376.5 314.2 378.1L314.2 378.1Q314.2 380.0 312.5 381.1Q310.7 382.1 307.8 382.1L307.8 382.1L307.4 382.1Q298.3 382.1 298.3 373.2ZM326.8 342.7Q325.3 344.1 323.3 344.1Q321.2 344.1 319.8 342.7Q318.4 341.3 318.4 339.4L318.4 339.4Q318.4 337.4 319.8 336.0Q321.2 334.7 323.3 334.7Q325.3 334.7 326.8 336.0Q328.2 337.4 328.2 339.4L328.2 339.4Q328.2 341.3 326.8 342.7ZM326.6 381.1Q325.4 382.4 323.3 382.4Q321.2 382.4 319.9 381.1Q318.7 379.9 318.7 377.7L318.7 377.7L318.7 352.3Q318.7 350.1 319.9 348.8Q321.2 347.6 323.3 347.6Q325.4 347.6 326.6 348.8Q327.8 350.1 327.8 352.3L327.8 352.3L327.8 377.7Q327.8 379.9 326.6 381.1ZM361.4 377.8Q356.9 382.5 349.3 382.5Q341.6 382.5 337.2 377.8Q332.7 373.2 332.7 365.0L332.7 365.0Q332.7 356.9 337.2 352.2Q341.7 347.5 349.3 347.5L349.3 347.5Q356.9 347.5 361.4 352.2Q365.9 356.9 365.9 365.0L365.9 365.0Q365.9 373.2 361.4 377.8ZM349.3 375.5L349.3 375.5Q352.7 375.5 354.6 372.8Q356.6 370 356.6 365L356.6 365Q356.6 360.1 354.6 357.3Q352.7 354.5 349.3 354.5Q345.9 354.5 343.9 357.3Q341.9 360.1 341.9 365L341.9 365Q341.9 370 343.9 372.8Q345.9 375.5 349.3 375.5ZM378.4 381.2Q377.2 382.4 375.1 382.4Q373.1 382.4 371.8 381.2Q370.6 379.9 370.6 377.7L370.6 377.7L370.6 352.2Q370.6 350.0 371.7 348.8Q372.9 347.6 375.0 347.6Q377.0 347.6 378.3 348.8Q379.5 350.1 379.5 352.2L379.5 352.2L379.5 354.1L379.7 354.1Q382.5 347.6 390.0 347.6L390.0 347.6Q395.6 347.6 398.6 350.9Q401.7 354.3 401.7 360.2L401.7 360.2L401.7 377.7Q401.7 379.9 400.4 381.2Q399.2 382.4 397.1 382.4Q395.0 382.4 393.8 381.2Q392.5 379.9 392.5 377.7L392.5 377.7L392.5 362.1Q392.5 358.8 391.0 357.0Q389.4 355.2 386.4 355.2Q383.3 355.2 381.5 357.2Q379.7 359.3 379.7 362.5L379.7 362.5L379.7 377.7Q379.7 379.9 378.4 381.2ZM421.1 382.5L421.1 382.5Q415.5 382.5 411.7 380.6Q407.9 378.8 406.7 375.8L406.7 375.8Q406.3 374.8 406.3 374.1L406.3 374.1Q406.3 372.5 407.4 371.6Q408.4 370.6 410.0 370.6L410.0 370.6Q412.2 370.6 414 372.7L414 372.7Q415.4 374.4 417.1 375.3Q418.8 376.1 421.3 376.1L421.3 376.1Q423.8 376.1 425.3 375.1Q426.8 374.1 426.8 372.5L426.8 372.5Q426.8 371.1 425.8 370.3Q424.8 369.5 422.3 369.0L422.3 369.0L416.7 367.8Q411.8 366.7 409.3 364.3Q406.8 361.8 406.8 358.1L406.8 358.1Q406.8 353.3 410.7 350.4Q414.6 347.5 421.1 347.5L421.1 347.5Q426.1 347.5 429.7 349.5Q433.3 351.5 434.2 354.5L434.2 354.5Q434.4 355.3 434.4 355.8L434.4 355.8Q434.4 357.3 433.5 358.1Q432.6 358.9 430.9 358.9L430.9 358.9Q428.8 358.9 427.6 357.5L427.6 357.5Q426.2 355.8 424.7 354.9Q423.2 353.9 420.9 353.9L420.9 353.9Q418.6 353.9 417.1 354.9Q415.7 355.9 415.7 357.6L415.7 357.6Q415.7 358.9 416.8 359.8Q417.8 360.7 420.3 361.2L420.3 361.2L425.8 362.4Q431.2 363.5 433.5 365.6Q435.9 367.8 435.9 371.5L435.9 371.5Q435.9 376.5 431.8 379.5Q427.8 382.5 421.1 382.5Z M472.8 382.5L472.8 382.5Q464.1 382.5 459.0 377.9Q453.8 373.3 453.8 365.8L453.8 365.8L453.8 341.0Q453.8 338.6 455.1 337.3Q456.3 336.0 458.6 336.0Q460.8 336.0 462.0 337.3Q463.3 338.6 463.3 341.0L463.3 341.0L463.3 364.9Q463.3 369.3 465.8 371.9Q468.3 374.4 472.8 374.4L472.8 374.4Q477.2 374.4 479.7 371.9Q482.2 369.3 482.2 364.9L482.2 364.9L482.2 341.0Q482.2 338.6 483.4 337.3Q484.7 336.0 486.9 336.0Q489.1 336.0 490.4 337.3Q491.6 338.6 491.6 341.0L491.6 341.0L491.6 365.8Q491.6 373.3 486.5 377.9Q481.3 382.5 472.8 382.5ZM512 382.5L512 382.5Q506.4 382.5 502.6 380.6Q498.8 378.8 497.6 375.8L497.6 375.8Q497.3 374.8 497.3 374.1L497.3 374.1Q497.3 372.5 498.3 371.6Q499.3 370.6 500.9 370.6L500.9 370.6Q503.1 370.6 504.9 372.7L504.9 372.7Q506.3 374.4 508.0 375.3Q509.7 376.1 512.2 376.1L512.2 376.1Q514.7 376.1 516.2 375.1Q517.7 374.1 517.7 372.5L517.7 372.5Q517.7 371.1 516.7 370.3Q515.7 369.5 513.3 369.0L513.3 369.0L507.6 367.8Q502.7 366.7 500.2 364.3Q497.8 361.8 497.8 358.1L497.8 358.1Q497.8 353.3 501.6 350.4Q505.5 347.5 512.0 347.5L512.0 347.5Q517.0 347.5 520.6 349.5Q524.3 351.5 525.1 354.5L525.1 354.5Q525.3 355.3 525.3 355.8L525.3 355.8Q525.3 357.3 524.4 358.1Q523.5 358.9 521.8 358.9L521.8 358.9Q519.7 358.9 518.5 357.5L518.5 357.5Q517.1 355.8 515.6 354.9Q514.1 353.9 511.8 353.9L511.8 353.9Q509.5 353.9 508.0 354.9Q506.6 355.9 506.6 357.6L506.6 357.6Q506.6 358.9 507.7 359.8Q508.8 360.7 511.2 361.2L511.2 361.2L516.8 362.4Q522.1 363.5 524.5 365.6Q526.8 367.8 526.8 371.5L526.8 371.5Q526.8 376.5 522.7 379.5Q518.7 382.5 512 382.5ZM539.5 342.7Q538.1 344.1 536.0 344.1Q534.0 344.1 532.6 342.7Q531.2 341.3 531.2 339.4L531.2 339.4Q531.2 337.4 532.6 336.0Q534.0 334.7 536.0 334.7Q538.1 334.7 539.5 336.0Q540.9 337.4 540.9 339.4L540.9 339.4Q540.9 341.3 539.5 342.7ZM539.4 381.1Q538.2 382.4 536.0 382.4Q533.9 382.4 532.7 381.1Q531.5 379.9 531.5 377.7L531.5 377.7L531.5 352.3Q531.5 350.1 532.7 348.8Q533.9 347.6 536.0 347.6Q538.2 347.6 539.4 348.8Q540.6 350.1 540.6 352.3L540.6 352.3L540.6 377.7Q540.6 379.9 539.4 381.1ZM554.5 381.2Q553.3 382.4 551.2 382.4Q549.2 382.4 547.9 381.2Q546.7 379.9 546.7 377.7L546.7 377.7L546.7 352.2Q546.7 350.0 547.8 348.8Q549 347.6 551.1 347.6Q553.1 347.6 554.4 348.8Q555.6 350.1 555.6 352.2L555.6 352.2L555.6 354.1L555.8 354.1Q558.6 347.6 566.1 347.6L566.1 347.6Q571.7 347.6 574.7 350.9Q577.8 354.3 577.8 360.2L577.8 360.2L577.8 377.7Q577.8 379.9 576.5 381.2Q575.3 382.4 573.2 382.4Q571.1 382.4 569.9 381.2Q568.6 379.9 568.6 377.7L568.6 377.7L568.6 362.1Q568.6 358.8 567.1 357.0Q565.5 355.2 562.5 355.2Q559.4 355.2 557.6 357.2Q555.8 359.3 555.8 362.5L555.8 362.5L555.8 377.7Q555.8 379.9 554.5 381.2ZM598.5 394.3L598.5 394.3Q593.5 394.3 589.8 392.6Q586.1 390.9 584.4 388.2L584.4 388.2Q583.7 387.0 583.7 385.7L583.7 385.7Q583.7 384.2 584.7 383.3Q585.8 382.3 587.4 382.3L587.4 382.3Q589.2 382.3 590.6 383.6L590.6 383.6Q594.4 387.3 598.5 387.3L598.5 387.3Q602.2 387.3 604.3 385.4Q606.4 383.6 606.4 380.4L606.4 380.4L606.4 375.0L606.2 375.0Q605.0 377.8 602.3 379.4Q599.5 381.0 595.9 381.0L595.9 381.0Q589.7 381.0 586.0 376.6Q582.3 372.1 582.3 364.4L582.3 364.4Q582.3 356.6 586.0 352.1Q589.6 347.7 596.1 347.7L596.1 347.7Q599.6 347.7 602.3 349.4Q604.9 351.1 606.3 354.0L606.3 354.0L606.5 354.0L606.5 352.2Q606.5 349.9 607.7 348.8Q609 347.6 611.1 347.6L611.1 347.6Q613.1 347.6 614.3 348.8Q615.6 349.9 615.6 352.2L615.6 352.2L615.6 380.4Q615.6 387 611.1 390.7Q606.6 394.4 598.5 394.3ZM599 374.3L599 374.3Q602.4 374.3 604.5 371.7Q606.5 369.1 606.5 364.6Q606.5 360.0 604.5 357.3Q602.4 354.7 599 354.7L599 354.7Q595.6 354.7 593.6 357.3Q591.7 360 591.7 364.5L591.7 364.5Q591.7 369.1 593.6 371.7Q595.6 374.3 599 374.3Z M653.9 381.0Q652.7 382.3 650.4 382.3Q648.2 382.3 647.0 381.0Q645.7 379.8 645.7 377.4L645.7 377.4L645.7 344.5L636.4 344.5Q634.5 344.5 633.3 343.4Q632.1 342.4 632.1 340.6Q632.1 338.8 633.3 337.7Q634.4 336.7 636.4 336.7L636.4 336.7L664.5 336.7Q666.4 336.7 667.6 337.7Q668.8 338.8 668.8 340.6Q668.8 342.4 667.6 343.4Q666.4 344.5 664.5 344.5L664.5 344.5L655.2 344.5L655.2 377.4Q655.2 379.8 653.9 381.0ZM676.4 382.3L676.4 382.3Q674.3 382.3 673.0 381.1Q671.7 379.9 671.7 377.9L671.7 377.9Q671.7 376.7 672.3 374.9L672.3 374.9L684.6 341.4Q685.6 338.6 687.3 337.3Q689.0 336.0 691.7 336.0L691.7 336.0Q694.4 336.0 696.2 337.3Q697.9 338.6 698.9 341.3L698.9 341.3L711.3 374.9Q711.9 376.6 711.9 377.9L711.9 377.9Q711.9 379.8 710.5 381.1Q709.2 382.3 707.2 382.3L707.2 382.3Q705.2 382.3 704.0 381.4Q702.9 380.4 702.3 378.2L702.3 378.2L699.9 371.1L683.6 371.1L681.2 378.1Q680.6 380.3 679.4 381.3Q678.3 382.3 676.4 382.3ZM691.5 345.3L685.7 363.8L697.7 363.8L691.7 345.3L691.5 345.3ZM743.8 381.8L722.3 381.8Q720.1 381.8 718.8 380.5Q717.6 379.2 717.6 376.8L717.6 376.8L717.6 341.6Q717.6 339.3 718.8 338.0Q720.1 336.7 722.3 336.7L722.3 336.7L743.8 336.7Q745.7 336.7 746.9 337.7Q748.0 338.8 748.0 340.6Q748.0 342.4 746.9 343.4Q745.7 344.5 743.8 344.5L743.8 344.5L727.0 344.5L727.0 355.3L742.9 355.3Q744.7 355.3 745.8 356.3Q746.9 357.3 746.9 358.9L746.9 358.9Q746.9 360.6 745.8 361.6Q744.7 362.6 742.9 362.6L742.9 362.6L727.0 362.6L727.0 373.9L743.8 373.9Q745.7 373.9 746.9 375.0Q748.0 376.0 748.0 377.8Q748.0 379.7 746.9 380.7Q745.7 381.8 743.8 381.8L743.8 381.8ZM761.6 381.2Q760.5 382.3 758.5 382.3Q756.5 382.3 755.4 381.2Q754.3 380.0 754.3 377.9L754.3 377.9L754.3 342.1Q754.3 339.3 755.9 337.6Q757.5 336.0 760.4 336.0L760.4 336.0Q762.8 336.0 764.3 337.2Q765.8 338.3 766.8 340.9L766.8 340.9L778.0 368.6L778.3 368.6L789.4 340.9Q790.5 338.3 792.0 337.2Q793.5 336.0 796.0 336.0L796.0 336.0Q798.8 336.0 800.4 337.6Q802.0 339.3 802.0 342.1L802.0 342.1L802.0 377.9Q802.0 380.0 800.9 381.2Q799.8 382.3 797.8 382.3Q795.8 382.3 794.7 381.2Q793.6 380.0 793.6 377.9L793.6 377.9L793.6 351.3L793.4 351.3L782.2 378.6Q781.1 381.5 778.2 381.5L778.2 381.5Q775.3 381.5 774.1 378.6L774.1 378.6L762.9 351.3L762.7 351.3L762.7 377.9Q762.7 380.0 761.6 381.2ZM826.0 382.5L826.0 382.5Q819.3 382.5 814.8 380.1Q810.3 377.7 808.9 373.8L808.9 373.8Q808.4 372.5 808.4 371.3L808.4 371.3Q808.4 369.4 809.6 368.3Q810.8 367.2 812.6 367.2L812.6 367.2Q814.1 367.2 815.1 367.8Q816.1 368.4 816.9 369.9L816.9 369.9Q818 372.4 820.5 373.7Q822.9 374.9 826.3 374.9L826.3 374.9Q830.0 374.9 832.4 373.3Q834.8 371.7 834.8 369.2L834.8 369.2Q834.8 366.9 833.0 365.6Q831.2 364.2 827.0 363.3L827.0 363.3L822.2 362.4Q808.8 359.8 808.8 349.6L808.8 349.6Q808.8 345.5 811.0 342.4Q813.2 339.3 817.1 337.6Q821.0 335.9 826 335.9L826 335.9Q832.2 335.9 836.6 338.3Q841.0 340.8 842.5 345.2L842.5 345.2Q842.8 346.2 842.8 347.3L842.8 347.3Q842.8 349 841.7 350.0Q840.6 351.1 838.8 351.1L838.8 351.1Q837.2 351.1 836.1 350.4Q835.1 349.8 834.3 348.3L834.3 348.3Q832.2 343.5 826 343.5L826 343.5Q822.5 343.5 820.4 345.0Q818.3 346.5 818.3 349L818.3 349Q818.3 351.1 820.0 352.4Q821.8 353.8 825.8 354.6L825.8 354.6L830.5 355.5Q837.7 357.0 840.9 360.0Q844.2 363.0 844.2 368.1L844.2 368.1Q844.2 374.8 839.3 378.6Q834.4 382.5 826.0 382.5Z " clip-path="url(#satori_cp-id-0)" mask="url(#satori_om-id-0)"/><defs><clipPath id="satori_bc-id-0-1" clip-path="url(#satori_cp-id-0)"><rect x="0" y="509" width="1200" height="121"/></clipPath></defs><mask id="satori_om-id-0-1"><rect x="0" y="510" width="1200" height="120" fill="#fff" mask="url(#satori_om-id-0)"/><path width="1200" height="121" fill="none" stroke="#000" stroke-width="2" d="M0,509 A0,0 0 0 1 0,509 h1200 A0,0 0 0 1 1200,509"/></mask><path width="1200" height="121" clip-path="url(#satori_bc-id-0-1)" fill="none" stroke="rgba(0,0,0,0.08)" stroke-width="2" d="M0,509 A0,0 0 0 1 0,509 h1200 A0,0 0 0 1 1200,509"/><mask id="satori_om-id-0-1-0"><rect x="48" y="538" width="228" height="64" fill="#fff" mask="url(#satori_om-id-0)"/></mask><mask id="satori_om-id-0-1-0-0"><rect x="48" y="538" width="72" height="64" fill="#fff" mask="url(#satori_om-id-0)"/></mask><clipPath id="satori_cp-id-0-1-0-0-0" clip-path="url(#satori_cp-id-0)"><rect x="48" y="538" width="72" height="64"/></clipPath><mask id="satori_om-id-0-1-0-0-0"><rect x="48" y="538" width="72" height="64" fill="#fff" mask="url(#satori_om-id-0)"/></mask><image x="48" y="538" width="72" height="64" href="data:image/svg+xml;utf8,%3Csvg  xmlns=%22http://www.w3.org/2000/svg%22 width=%2273.60461760461762%22 height=%2264%22 viewBox=%220 0 797 693%22%3E%3Cg transform=%22matrix(1,0,0,1,-345,-96.5)%22%3E%3Cpath d=%22M756.942,197.15L756.942,474C701.751,474 656.942,518.808 656.942,574C656.942,629.192 701.751,674 756.942,674L756.942,777L495.122,777C443.175,777 401,734.825 401,682.878L401,614L364.755,614C353.852,614 345,605.148 345,594.245L345,436.814C345,425.878 353.878,417 364.814,417L401,417L401,365.122C401,313.175 443.175,271 495.122,271L715.058,271L715.058,197.15C696.492,189.056 683.5,170.533 683.5,149C683.5,120.024 707.024,96.5 736,96.5C764.976,96.5 788.5,120.024 788.5,149C788.5,170.533 775.508,189.056 756.942,197.15ZM559,388C520.918,388 490,418.918 490,457C490,495.082 520.918,526 559,526C597.082,526 628,495.082 628,457C628,418.918 597.082,388 559,388Z%22 fill=%22%23ad47ff%22%3E%3C/path%3E%3Cg transform=%22matrix(-1,1.22465e-16,-1.22465e-16,-1,1486.06,1043)%22%3E%3Cpath d=%22M401,417L401,348.122C401,296.175 443.175,254 495.122,254L705.058,254L705.058,357C760.249,357 805.058,401.808 805.058,457C805.058,512.192 760.249,557 705.058,557L705.058,760L495.122,760C443.175,760 401,717.825 401,665.878L401,614L364.755,614C353.852,614 345,605.148 345,594.245L345,436.814C345,425.878 353.878,417 364.814,417L401,417ZM552,643C590.082,643 621,612.082 621,574C621,535.918 590.082,505 552,505C513.918,505 483,535.918 483,574C483,612.082 513.918,643 552,643Z%22 fill=%22%2300d5bd%22%3E%3C/path%3E%3C/g%3E%3C/g%3E%3C/svg%3E" preserveAspectRatio="none" clip-path="url(#satori_cp-id-0-1-0-0-0)" mask="url(#satori_om-id-0-1-0-0-0)"/><mask id="satori_om-id-0-1-0-0-0-0"><rect x="48" y="538" width="0" height="64" fill="#fff" mask="url(#satori_om-id-0)"/></mask><mask id="satori_om-id-0-1-0-0-0-0-0"><rect x="48" y="538" width="0" height="64" fill="#fff" mask="url(#satori_om-id-0)"/></mask><mask id="satori_om-id-0-1-0-0-0-0-1"><rect x="48" y="538" width="0" height="64" fill="#fff" mask="url(#satori_om-id-0)"/></mask><mask id="satori_om-id-0-1-0-0-0-0-1-0"><rect x="48" y="538" width="0" height="64" fill="#fff" mask="url(#satori_om-id-0)"/></mask><mask id="satori_om-id-0-1-0-1"><rect x="138" y="540" width="138" height="60" fill="#fff" mask="url(#satori_om-id-0)"/></mask><mask id="satori_om-id-0-1-0-1-0"><rect x="138" y="540" width="138" height="36" fill="#fff" mask="url(#satori_om-id-0)"/></mask><path fill="#0f172a" d="M150.7 571.2L150.7 571.2Q145.9 571.2 143.0 568.6Q140.1 566.1 140.1 561.8L140.1 561.8L140.1 547.9Q140.1 546.5 140.8 545.8Q141.5 545.1 142.8 545.1Q144.0 545.1 144.7 545.8Q145.4 546.5 145.4 547.9L145.4 547.9L145.4 561.3Q145.4 563.8 146.8 565.2Q148.2 566.7 150.7 566.7L150.7 566.7Q153.3 566.7 154.7 565.2Q156.1 563.8 156.1 561.3L156.1 561.3L156.1 547.9Q156.1 546.5 156.8 545.8Q157.5 545.1 158.7 545.1Q160.0 545.1 160.7 545.8Q161.4 546.5 161.4 547.9L161.4 547.9L161.4 561.8Q161.4 566.1 158.5 568.6Q155.6 571.2 150.7 571.2ZM170.2 570.4Q169.5 571.2 168.2 571.2Q167.0 571.2 166.3 570.4Q165.6 569.7 165.6 568.4L165.6 568.4L165.6 548.2Q165.6 546.9 166.3 546.2Q167.0 545.4 168.2 545.4L168.2 545.4L176.0 545.4Q180.3 545.4 182.7 547.6Q185.1 549.7 185.1 553.5L185.1 553.5Q185.1 555.9 184.0 557.8Q182.9 559.7 180.8 560.6L180.8 560.6L184.4 566.9Q185.0 567.9 185.0 568.7L185.0 568.7Q185.0 569.8 184.2 570.5Q183.5 571.2 182.3 571.2L182.3 571.2Q181.4 571.2 180.8 570.8Q180.3 570.3 179.6 569.2L179.6 569.2L175.4 561.5L170.9 561.5L170.9 568.4Q170.9 569.7 170.2 570.4ZM170.9 549.6L170.9 557.7L175.5 557.7Q177.5 557.7 178.6 556.6Q179.7 555.5 179.7 553.6L179.7 553.6Q179.7 551.8 178.5 550.7Q177.4 549.6 175.4 549.6L175.4 549.6L170.9 549.6ZM198.1 562.7L190.8 562.7Q189.7 562.7 189.1 562.1Q188.4 561.5 188.4 560.5Q188.4 559.4 189.1 558.8Q189.7 558.2 190.8 558.2L190.8 558.2L198.1 558.2Q199.2 558.2 199.9 558.8Q200.6 559.4 200.6 560.5Q200.6 561.5 199.9 562.1Q199.2 562.7 198.1 562.7L198.1 562.7ZM209.1 570.4Q208.4 571.2 207.2 571.2Q205.9 571.2 205.2 570.4Q204.5 569.7 204.5 568.4L204.5 568.4L204.5 548.2Q204.5 546.9 205.2 546.2Q205.9 545.4 207.2 545.4L207.2 545.4L214.9 545.4Q219.3 545.4 221.7 547.6Q224.1 549.7 224.1 553.5L224.1 553.5Q224.1 555.9 223.0 557.8Q221.8 559.7 219.7 560.6L219.7 560.6L223.4 566.9Q224.0 567.9 224.0 568.7L224.0 568.7Q224.0 569.8 223.2 570.5Q222.4 571.2 221.3 571.2L221.3 571.2Q220.3 571.2 219.8 570.8Q219.2 570.3 218.6 569.2L218.6 569.2L214.4 561.5L209.8 561.5L209.8 568.4Q209.8 569.7 209.1 570.4ZM209.8 549.6L209.8 557.7L214.4 557.7Q216.4 557.7 217.5 556.6Q218.6 555.5 218.6 553.6L218.6 553.6Q218.6 551.8 217.5 550.7Q216.3 549.6 214.4 549.6L214.4 549.6L209.8 549.6ZM229.3 571.1L229.3 571.1Q228.0 571.1 227.3 570.5Q226.6 569.8 226.6 568.6L226.6 568.6Q226.6 567.9 226.9 566.9L226.9 566.9L233.9 548.1Q234.4 546.5 235.4 545.8Q236.3 545.1 237.8 545.1L237.8 545.1Q239.4 545.1 240.4 545.8Q241.3 546.5 241.9 548.1L241.9 548.1L248.9 566.9Q249.2 567.9 249.2 568.6L249.2 568.6Q249.2 569.7 248.5 570.4Q247.7 571.1 246.5 571.1L246.5 571.1Q245.4 571.1 244.8 570.6Q244.1 570.0 243.8 568.8L243.8 568.8L242.4 564.8L233.3 564.8L232.0 568.7Q231.6 570.0 231.0 570.6Q230.3 571.1 229.3 571.1ZM237.7 550.3L234.5 560.7L241.2 560.7L237.9 550.3L237.7 550.3ZM262.1 570.8L255.1 570.8Q253.8 570.8 253.1 570.1Q252.4 569.3 252.4 568.0L252.4 568.0L252.4 548.2Q252.4 546.9 253.1 546.2Q253.8 545.4 255.1 545.4L255.1 545.4L262.1 545.4Q267.8 545.4 271.0 548.7Q274.2 552.0 274.2 558.0L274.2 558.0Q274.2 564.0 271.0 567.4Q267.8 570.8 262.1 570.8L262.1 570.8ZM257.7 549.8L257.7 566.4L261.5 566.4Q265.0 566.4 266.9 564.3Q268.8 562.1 268.8 558.0L268.8 558.0Q268.8 554.1 266.9 551.9Q265.0 549.8 261.5 549.8L261.5 549.8L257.7 549.8Z " clip-path="url(#satori_cp-id-0)" mask="url(#satori_om-id-0)"/><mask id="satori_om-id-0-1-0-1-1"><rect x="138" y="576" width="138" height="24" fill="#fff" mask="url(#satori_om-id-0)"/></mask><path fill="#334155" d="M145.0 595.3L145.0 595.3Q142.4 595.3 140.8 593.8Q139.2 592.4 139.2 590.1L139.2 590.1L139.2 582.1Q139.2 581.5 139.6 581.1Q139.9 580.8 140.5 580.8L140.5 580.8Q141.1 580.8 141.4 581.1Q141.8 581.5 141.8 582.1L141.8 582.1L141.8 589.8Q141.8 591.3 142.6 592.2Q143.5 593.1 145.0 593.1Q146.6 593.1 147.4 592.2Q148.3 591.3 148.3 589.8L148.3 589.8L148.3 582.1Q148.3 581.5 148.6 581.1Q149.0 580.8 149.6 580.8L149.6 580.8Q150.2 580.8 150.5 581.1Q150.8 581.5 150.8 582.1L150.8 582.1L150.8 590.1Q150.8 592.4 149.3 593.8Q147.7 595.3 145.0 595.3ZM155.5 594.9Q155.2 595.2 154.6 595.2Q154.0 595.2 153.6 594.9Q153.3 594.5 153.3 593.9L153.3 593.9L153.3 582.3Q153.3 581.6 153.6 581.3Q154.0 581.0 154.6 581.0L154.6 581.0L158.9 581.0Q161.2 581.0 162.5 582.1Q163.8 583.3 163.8 585.3L163.8 585.3Q163.8 586.7 163.1 587.8Q162.4 588.8 161.2 589.3L161.2 589.3L163.4 593.2Q163.7 593.7 163.7 594.1L163.7 594.1Q163.7 594.6 163.4 594.9Q163.0 595.2 162.4 595.2L162.4 595.2Q162.0 595.2 161.7 595.0Q161.5 594.8 161.2 594.3L161.2 594.3L158.7 589.7L155.8 589.7L155.8 593.9Q155.8 594.5 155.5 594.9ZM155.8 583.0L155.8 587.8L158.7 587.8Q159.9 587.8 160.5 587.2Q161.2 586.5 161.2 585.4L161.2 585.4Q161.2 584.3 160.5 583.6Q159.8 583.0 158.6 583.0L158.6 583.0L155.8 583.0ZM171.1 590.4L166.7 590.4Q166.2 590.4 165.9 590.1Q165.6 589.8 165.6 589.3Q165.6 588.8 165.9 588.5Q166.2 588.2 166.7 588.2L166.7 588.2L171.1 588.2Q171.7 588.2 172.0 588.5Q172.3 588.8 172.3 589.3Q172.3 589.8 172.0 590.1Q171.7 590.4 171.1 590.4L171.1 590.4ZM176.7 594.9Q176.4 595.2 175.8 595.2Q175.2 595.2 174.9 594.9Q174.6 594.5 174.6 593.9L174.6 593.9L174.6 582.3Q174.6 581.6 174.9 581.3Q175.2 581.0 175.8 581.0L175.8 581.0L180.1 581.0Q182.4 581.0 183.7 582.1Q185.0 583.3 185.0 585.3L185.0 585.3Q185.0 586.7 184.3 587.8Q183.7 588.8 182.5 589.3L182.5 589.3L184.7 593.2Q185.0 593.7 185.0 594.1L185.0 594.1Q185.0 594.6 184.6 594.9Q184.2 595.2 183.7 595.2L183.7 595.2Q183.2 595.2 183.0 595.0Q182.7 594.8 182.4 594.3L182.4 594.3L179.9 589.7L177.1 589.7L177.1 593.9Q177.1 594.5 176.7 594.9ZM177.1 583.0L177.1 587.8L179.9 587.8Q181.1 587.8 181.8 587.2Q182.4 586.5 182.4 585.4L182.4 585.4Q182.4 584.3 181.8 583.6Q181.1 583.0 179.9 583.0L179.9 583.0L177.1 583.0ZM187.7 595.2L187.7 595.2Q187.1 595.2 186.7 594.9Q186.4 594.6 186.4 594.0L186.4 594.0Q186.4 593.7 186.6 593.3L186.6 593.3L190.7 582.2Q190.9 581.4 191.4 581.1Q191.8 580.8 192.5 580.8L192.5 580.8Q193.2 580.8 193.6 581.1Q194.1 581.4 194.3 582.1L194.3 582.1L198.4 593.3Q198.6 593.7 198.6 594.0L198.6 594.0Q198.6 594.6 198.2 594.9Q197.9 595.2 197.3 595.2L197.3 595.2Q196.8 595.2 196.5 595.0Q196.2 594.7 196.0 594.1L196.0 594.1L195.1 591.4L189.9 591.4L188.9 594.1Q188.8 594.7 188.5 595.0Q188.2 595.2 187.7 595.2ZM192.4 583.4L190.5 589.5L194.5 589.5L192.5 583.4L192.4 583.4ZM205.6 595.0L201.7 595.0Q201.1 595.0 200.8 594.7Q200.4 594.3 200.4 593.7L200.4 593.7L200.4 582.3Q200.4 581.6 200.8 581.3Q201.1 581.0 201.7 581.0L201.7 581.0L205.6 581.0Q208.7 581.0 210.5 582.8Q212.3 584.6 212.3 588.0L212.3 588.0Q212.3 591.3 210.5 593.2Q208.7 595.0 205.6 595.0L205.6 595.0ZM202.9 583.1L202.9 592.9L205.3 592.9Q207.4 592.9 208.6 591.6Q209.7 590.4 209.7 588.0L209.7 588.0Q209.7 585.6 208.6 584.3Q207.4 583.1 205.3 583.1L205.3 583.1L202.9 583.1Z M227.0 595.0L219.2 595.0Q218.7 595.0 218.3 594.8Q218.0 594.5 218.0 594.0L218.0 594.0Q218.0 593.6 218.2 593.3Q218.3 593.1 218.7 592.7L218.7 592.7L223.0 588.4Q224.4 587.1 224.8 586.4Q225.3 585.7 225.3 584.9L225.3 584.9Q225.3 583.9 224.6 583.3Q224.0 582.7 223.0 582.7L223.0 582.7Q221.1 582.7 220.3 584.6L220.3 584.6Q220.1 585.0 219.9 585.2Q219.6 585.4 219.2 585.4L219.2 585.4Q218.7 585.4 218.4 585.1Q218.1 584.8 218.1 584.3L218.1 584.3Q218.1 584.1 218.2 583.8L218.2 583.8Q218.3 583.2 218.7 582.7Q219.1 582.1 219.7 581.7Q220.3 581.2 221.1 580.9Q222.0 580.7 223.0 580.7L223.0 580.7Q225.1 580.7 226.4 581.8Q227.8 582.9 227.8 584.7L227.8 584.7Q227.8 585.9 227.1 586.9Q226.4 588.0 224.6 589.8L224.6 589.8L221.4 592.9L221.4 593.0L227.0 593.0Q227.5 593.0 227.8 593.3Q228.1 593.5 228.1 594.0Q228.1 594.5 227.8 594.8Q227.5 595.0 227.0 595.0L227.0 595.0ZM235.2 595.3L235.2 595.3Q232.6 595.3 231.1 593.4Q229.7 591.4 229.7 588.0L229.7 588.0Q229.7 584.6 231.1 582.6Q232.6 580.7 235.2 580.7L235.2 580.7Q237.8 580.7 239.3 582.6Q240.7 584.6 240.7 588.0L240.7 588.0Q240.7 591.4 239.3 593.3Q237.8 595.3 235.2 595.3ZM235.2 593.3L235.2 593.3Q236.6 593.3 237.4 591.9Q238.2 590.5 238.2 588.0L238.2 588.0Q238.2 585.5 237.4 584.1Q236.6 582.7 235.2 582.7Q233.8 582.7 233.0 584.1Q232.2 585.5 232.2 588.0L232.2 588.0Q232.2 590.5 233.0 591.9Q233.8 593.3 235.2 593.3ZM251.6 595.0L243.8 595.0Q243.2 595.0 242.9 594.8Q242.6 594.5 242.6 594.0L242.6 594.0Q242.6 593.6 242.7 593.3Q242.9 593.1 243.3 592.7L243.3 592.7L247.6 588.4Q248.9 587.1 249.4 586.4Q249.8 585.7 249.8 584.9L249.8 584.9Q249.8 583.9 249.2 583.3Q248.5 582.7 247.5 582.7L247.5 582.7Q245.6 582.7 244.9 584.6L244.9 584.6Q244.7 585.0 244.4 585.2Q244.2 585.4 243.7 585.4L243.7 585.4Q243.2 585.4 242.9 585.1Q242.6 584.8 242.6 584.3L242.6 584.3Q242.6 584.1 242.7 583.8L242.7 583.8Q242.9 583.2 243.2 582.7Q243.6 582.1 244.2 581.7Q244.8 581.2 245.7 580.9Q246.5 580.7 247.5 580.7L247.5 580.7Q249.6 580.7 251.0 581.8Q252.3 582.9 252.3 584.7L252.3 584.7Q252.3 585.9 251.6 586.9Q251.0 588.0 249.2 589.8L249.2 589.8L245.9 592.9L245.9 593.0L251.6 593.0Q252.1 593.0 252.4 593.3Q252.6 593.5 252.6 594.0Q252.6 594.5 252.4 594.8Q252.1 595.0 251.6 595.0L251.6 595.0ZM259.6 595.3L259.6 595.3Q258.0 595.3 256.7 594.6Q255.4 593.9 254.9 592.8L254.9 592.8Q254.6 592.3 254.6 591.8L254.6 591.8Q254.6 591.3 254.9 591.0Q255.2 590.7 255.7 590.7L255.7 590.7Q256.1 590.7 256.4 590.9Q256.6 591.1 256.8 591.5L256.8 591.5Q257.2 592.3 257.9 592.8Q258.6 593.3 259.6 593.3L259.6 593.3Q260.9 593.3 261.7 592.5Q262.5 591.7 262.5 590.4L262.5 590.4Q262.5 589.2 261.7 588.4Q260.9 587.7 259.6 587.7L259.6 587.7Q258.3 587.7 257.4 588.5L257.4 588.5Q257.0 589.0 256.7 589.1Q256.4 589.3 256.0 589.3L256.0 589.3Q255.4 589.3 255.1 588.9Q254.8 588.5 254.8 588.0L254.8 588.0Q254.8 587.9 254.8 587.8L254.8 587.8L255.3 582.5Q255.4 581.7 255.8 581.3Q256.2 581.0 257.0 581.0L257.0 581.0L263.1 581.0Q263.6 581.0 263.9 581.2Q264.2 581.5 264.2 582.0L264.2 582.0Q264.2 582.4 263.9 582.7Q263.6 583.0 263.1 583.0L263.1 583.0L257.4 583.0L257.1 587.2L257.1 587.2Q257.6 586.5 258.4 586.1Q259.2 585.8 260.3 585.8L260.3 585.8Q262.3 585.8 263.6 587.0Q264.9 588.3 264.9 590.4L264.9 590.4Q264.9 592.6 263.4 593.9Q261.9 595.3 259.6 595.3Z " clip-path="url(#satori_cp-id-0)" mask="url(#satori_om-id-0)"/><mask id="satori_om-id-0-1-1"><rect x="979" y="557" width="173" height="26" fill="#fff" mask="url(#satori_om-id-0)"/></mask><path fill="#334155" d="M982.4 577.8Q982.1 578.2 981.5 578.2Q980.9 578.2 980.5 577.8Q980.2 577.5 980.2 576.8L980.2 576.8L980.2 563.6Q980.2 563.0 980.5 562.6Q980.9 562.2 981.5 562.2Q982.1 562.2 982.5 562.6Q982.8 563.0 982.8 563.6L982.8 563.6L982.8 568.5L982.9 568.5Q983.4 567.5 984.3 566.9Q985.3 566.4 986.5 566.4L986.5 566.4Q988.6 566.4 989.9 568.0Q991.2 569.5 991.2 572.3L991.2 572.3Q991.2 575.0 989.9 576.6Q988.6 578.1 986.5 578.1L986.5 578.1Q985.2 578.1 984.3 577.6Q983.4 577.0 982.8 576.0L982.8 576.0L982.8 576.0L982.8 576.8Q982.8 577.5 982.4 577.8ZM985.6 575.9L985.6 575.9Q986.9 575.9 987.7 574.9Q988.4 574.0 988.4 572.3Q988.4 570.6 987.7 569.6Q986.9 568.6 985.6 568.6L985.6 568.6Q984.4 568.6 983.6 569.6Q982.8 570.6 982.8 572.3L982.8 572.3Q982.8 573.9 983.6 574.9Q984.4 575.9 985.6 575.9ZM994.5 582.2L994.5 582.2Q993.6 582.2 993.1 581.9Q992.7 581.5 992.7 580.9L992.7 580.9Q992.7 580.5 992.9 580.3Q993.2 580.0 993.7 580.0L993.7 580.0Q993.8 580.0 994.0 580.0Q994.1 580.0 994.3 580.0L994.3 580.0Q995.3 580.0 995.9 578.7L995.9 578.7L996.1 578.2L992.3 568.3Q992.2 567.9 992.2 567.6L992.2 567.6Q992.2 567.0 992.6 566.7Q993.0 566.3 993.6 566.3L993.6 566.3Q994.1 566.3 994.4 566.6Q994.7 566.8 994.8 567.4L994.8 567.4L997.6 575.7L997.6 575.7L1000.3 567.4Q1000.5 566.8 1000.8 566.6Q1001.1 566.3 1001.6 566.3L1001.6 566.3Q1002.2 566.3 1002.5 566.7Q1002.9 567.0 1002.9 567.5L1002.9 567.5Q1002.9 567.9 1002.8 568.3L1002.8 568.3L999.0 578.4Q998.2 580.5 997.2 581.3Q996.2 582.2 994.5 582.2Z M1019.4 577.9L1010.1 577.9Q1009.5 577.9 1009.1 577.6Q1008.7 577.2 1008.7 576.6L1008.7 576.6Q1008.7 576.1 1009.1 575.5L1009.1 575.5L1016.9 564.9L1016.9 564.8L1010.0 564.8Q1009.4 564.8 1009.1 564.5Q1008.7 564.2 1008.7 563.6Q1008.7 563.1 1009.1 562.8Q1009.4 562.4 1010.0 562.4L1010.0 562.4L1018.8 562.4Q1019.5 562.4 1019.9 562.8Q1020.3 563.2 1020.3 563.8L1020.3 563.8Q1020.3 564.3 1019.8 564.9L1019.8 564.9L1012.1 575.5L1012.1 575.6L1019.4 575.6Q1019.9 575.6 1020.3 575.9Q1020.6 576.2 1020.6 576.8Q1020.6 577.3 1020.3 577.6Q1019.9 577.9 1019.4 577.9L1019.4 577.9ZM1024.9 577.8Q1024.6 578.2 1024.0 578.2Q1023.4 578.2 1023.0 577.8Q1022.6 577.4 1022.6 576.8L1022.6 576.8L1022.6 563.6Q1022.6 563.0 1023.0 562.6Q1023.3 562.2 1023.9 562.2L1023.9 562.2Q1024.6 562.2 1024.9 562.6Q1025.3 563.0 1025.3 563.6L1025.3 563.6L1025.3 568.5L1025.3 568.5Q1025.8 567.5 1026.7 566.9Q1027.6 566.3 1028.9 566.3L1028.9 566.3Q1030.8 566.3 1031.8 567.5Q1032.9 568.6 1032.9 570.6L1032.9 570.6L1032.9 576.8Q1032.9 577.4 1032.5 577.8Q1032.2 578.2 1031.6 578.2Q1030.9 578.2 1030.6 577.8Q1030.2 577.4 1030.2 576.8L1030.2 576.8L1030.2 571.2Q1030.2 569.9 1029.6 569.3Q1029.0 568.6 1027.9 568.6L1027.9 568.6Q1026.7 568.6 1026.0 569.4Q1025.3 570.1 1025.3 571.4L1025.3 571.4L1025.3 576.8Q1025.3 577.4 1024.9 577.8ZM1038.4 578.1L1038.4 578.1Q1036.7 578.1 1035.6 577.2Q1034.6 576.2 1034.6 574.7L1034.6 574.7Q1034.6 573.2 1035.7 572.3Q1036.8 571.4 1038.9 571.3L1038.9 571.3L1041.9 571.1L1041.9 570.3Q1041.9 569.4 1041.4 568.9Q1040.8 568.4 1039.8 568.4L1039.8 568.4Q1039.0 568.4 1038.4 568.7Q1037.9 569.0 1037.4 569.8L1037.4 569.8Q1037.0 570.3 1036.3 570.3L1036.3 570.3Q1035.8 570.3 1035.5 570.0Q1035.2 569.7 1035.2 569.2L1035.2 569.2Q1035.2 568.9 1035.4 568.5L1035.4 568.5Q1035.8 567.5 1037.0 566.9Q1038.3 566.3 1039.9 566.3L1039.9 566.3Q1042.0 566.3 1043.3 567.4Q1044.6 568.4 1044.6 570.1L1044.6 570.1L1044.6 576.8Q1044.6 577.5 1044.2 577.8Q1043.8 578.2 1043.3 578.2L1043.3 578.2Q1042.7 578.2 1042.4 577.8Q1042.0 577.5 1042.0 576.9L1042.0 576.9L1042.0 576.1L1041.9 576.1Q1041.4 577.0 1040.5 577.6Q1039.5 578.1 1038.4 578.1ZM1039.2 576.1L1039.2 576.1Q1040.3 576.1 1041.1 575.4Q1041.9 574.7 1041.9 573.7L1041.9 573.7L1041.9 572.9L1039.3 573.0Q1038.3 573.1 1037.8 573.5Q1037.2 573.9 1037.2 574.6L1037.2 574.6Q1037.2 575.3 1037.8 575.7Q1038.3 576.1 1039.2 576.1ZM1049.0 577.8Q1048.6 578.2 1048.0 578.2Q1047.4 578.2 1047.1 577.8Q1046.7 577.4 1046.7 576.8L1046.7 576.8L1046.7 567.7Q1046.7 567.1 1047.1 566.7Q1047.4 566.3 1048.0 566.3Q1048.6 566.3 1048.9 566.7Q1049.3 567.1 1049.3 567.7L1049.3 567.7L1049.3 568.5L1049.4 568.5Q1050.3 566.3 1052.9 566.3L1052.9 566.3Q1054.8 566.3 1055.8 567.5Q1056.8 568.6 1056.8 570.6L1056.8 570.6L1056.8 576.8Q1056.8 577.4 1056.5 577.8Q1056.1 578.2 1055.5 578.2Q1054.9 578.2 1054.5 577.8Q1054.2 577.4 1054.2 576.8L1054.2 576.8L1054.2 571.1Q1054.2 569.9 1053.6 569.3Q1053.0 568.6 1051.9 568.6L1051.9 568.6Q1050.7 568.6 1050.1 569.4Q1049.4 570.1 1049.4 571.4L1049.4 571.4L1049.4 576.8Q1049.4 577.4 1049.0 577.8ZM1063.9 582.2L1063.9 582.2Q1062.3 582.2 1061.1 581.7Q1059.9 581.1 1059.3 580.2L1059.3 580.2Q1059.1 579.8 1059.1 579.4L1059.1 579.4Q1059.1 578.9 1059.4 578.6Q1059.7 578.3 1060.2 578.3L1060.2 578.3Q1060.7 578.3 1061.1 578.8L1061.1 578.8Q1061.8 579.5 1062.5 579.8Q1063.1 580.1 1063.9 580.1L1063.9 580.1Q1065.3 580.1 1066.0 579.4Q1066.8 578.7 1066.8 577.6L1066.8 577.6L1066.8 575.8L1066.8 575.8Q1066.3 576.7 1065.4 577.3Q1064.4 577.8 1063.2 577.8L1063.2 577.8Q1061.0 577.8 1059.8 576.3Q1058.5 574.7 1058.5 572.1L1058.5 572.1Q1058.5 569.4 1059.8 567.9Q1061.0 566.4 1063.3 566.4L1063.3 566.4Q1064.4 566.4 1065.4 566.9Q1066.3 567.5 1066.8 568.5L1066.8 568.5L1066.8 568.5L1066.8 567.7Q1066.8 567.1 1067.2 566.7Q1067.6 566.3 1068.2 566.3Q1068.8 566.3 1069.1 566.7Q1069.5 567.1 1069.5 567.7L1069.5 567.7L1069.5 577.6Q1069.5 579.7 1068.0 581.0Q1066.5 582.2 1063.9 582.2ZM1064.0 575.7L1064.0 575.7Q1065.3 575.7 1066.1 574.8Q1066.8 573.8 1066.8 572.1L1066.8 572.1Q1066.8 570.5 1066.1 569.5Q1065.3 568.5 1064.0 568.5L1064.0 568.5Q1062.7 568.5 1062.0 569.5Q1061.3 570.5 1061.3 572.1L1061.3 572.1Q1061.3 573.8 1062.0 574.8Q1062.7 575.7 1064.0 575.7ZM1073.6 575.2L1073.6 575.2Q1074.1 575.2 1074.4 575.5Q1074.8 575.8 1074.8 576.3L1074.8 576.3Q1074.8 576.6 1074.7 576.9L1074.7 576.9L1073.8 580.6Q1073.6 581.1 1073.4 581.3Q1073.1 581.5 1072.7 581.5Q1072.2 581.5 1071.9 581.2Q1071.6 581.0 1071.7 580.5L1071.7 580.5Q1071.7 580.4 1071.7 580.3L1071.7 580.3L1072.3 576.3Q1072.5 575.2 1073.6 575.2Z M1087.7 578.2L1087.7 578.2Q1085.5 578.2 1084.0 577.4Q1082.4 576.5 1082.0 575.2L1082.0 575.2Q1081.8 574.8 1081.8 574.4L1081.8 574.4Q1081.8 573.8 1082.2 573.4Q1082.5 573.1 1083.0 573.1L1083.0 573.1Q1083.5 573.1 1083.8 573.3Q1084.1 573.5 1084.3 574.0L1084.3 574.0Q1084.7 574.9 1085.6 575.4Q1086.5 575.9 1087.8 575.9L1087.8 575.9Q1089.2 575.9 1090.1 575.3Q1091.0 574.7 1091.0 573.7L1091.0 573.7Q1091.0 572.8 1090.3 572.3Q1089.7 571.8 1088.2 571.5L1088.2 571.5L1086.5 571.1Q1082.0 570.2 1082.0 566.8L1082.0 566.8Q1082.0 564.7 1083.6 563.5Q1085.2 562.2 1087.7 562.2L1087.7 562.2Q1089.8 562.2 1091.3 563.1Q1092.8 563.9 1093.2 565.5L1093.2 565.5Q1093.3 565.7 1093.3 566.1L1093.3 566.1Q1093.3 566.6 1093.0 566.9Q1092.7 567.2 1092.1 567.2L1092.1 567.2Q1091.2 567.2 1090.8 566.4L1090.8 566.4Q1090.1 564.5 1087.7 564.5L1087.7 564.5Q1086.4 564.5 1085.6 565.1Q1084.8 565.6 1084.8 566.6L1084.8 566.6Q1084.8 567.4 1085.4 567.9Q1086.1 568.4 1087.5 568.7L1087.5 568.7L1089.2 569.1Q1091.6 569.6 1092.7 570.6Q1093.8 571.6 1093.8 573.4L1093.8 573.4Q1093.8 575.6 1092.2 576.9Q1090.5 578.2 1087.7 578.2ZM1097.5 578.1L1097.5 578.1Q1096.8 578.1 1096.4 577.6Q1095.9 577.2 1095.9 576.5L1095.9 576.5Q1095.9 575.9 1096.4 575.4Q1096.8 575.0 1097.5 575.0L1097.5 575.0Q1098.1 575.0 1098.6 575.4Q1099.0 575.9 1099.0 576.5L1099.0 576.5Q1099.0 577.2 1098.6 577.6Q1098.1 578.1 1097.5 578.1Z M1111.0 578.2L1111.0 578.2Q1108.4 578.2 1106.9 576.6Q1105.4 575.1 1105.4 572.3L1105.4 572.3Q1105.4 569.6 1106.9 567.9Q1108.4 566.3 1110.8 566.3L1110.8 566.3Q1113.2 566.3 1114.6 567.8Q1116.1 569.3 1116.1 571.6L1116.1 571.6Q1116.1 572.2 1115.7 572.6Q1115.4 572.9 1114.8 572.9L1114.8 572.9L1108.1 572.9L1108.1 573.0Q1108.1 574.4 1108.9 575.3Q1109.7 576.1 1111.0 576.1L1111.0 576.1Q1111.9 576.1 1112.5 575.8Q1113.2 575.4 1113.8 574.6L1113.8 574.6Q1114.2 574.2 1114.7 574.2L1114.7 574.2Q1115.2 574.2 1115.5 574.4Q1115.8 574.7 1115.8 575.2L1115.8 575.2Q1115.8 575.5 1115.6 575.9L1115.6 575.9Q1115.0 577.0 1113.8 577.6Q1112.6 578.2 1111.0 578.2ZM1108.1 571.1L1108.1 571.1L1113.4 571.1Q1113.4 569.9 1112.7 569.1Q1112.0 568.4 1110.8 568.4Q1109.7 568.4 1109.0 569.2Q1108.2 569.9 1108.1 571.1ZM1118.5 575.1L1118.5 575.1L1118.5 568.6L1117.8 568.6Q1117.3 568.6 1117.0 568.3Q1116.7 568.1 1116.7 567.6L1116.7 567.6Q1116.7 567.1 1117.0 566.8Q1117.3 566.6 1117.8 566.6L1117.8 566.6L1118.5 566.6L1118.5 565.0Q1118.5 564.4 1118.9 564.0Q1119.3 563.6 1119.9 563.6L1119.9 563.6Q1120.5 563.6 1120.8 564.0Q1121.2 564.4 1121.2 565.0L1121.2 565.0L1121.2 566.6L1122.4 566.6Q1122.9 566.6 1123.2 566.8Q1123.5 567.1 1123.5 567.6L1123.5 567.6Q1123.5 568.1 1123.2 568.3Q1122.9 568.6 1122.4 568.6L1122.4 568.6L1121.2 568.6L1121.2 574.6Q1121.2 575.2 1121.5 575.5Q1121.7 575.8 1122.3 575.9L1122.3 575.9L1122.5 575.9Q1123.5 576.0 1123.5 576.9L1123.5 576.9Q1123.5 577.5 1123.1 577.8Q1122.6 578.1 1121.6 578.1L1121.6 578.1L1121.5 578.1Q1118.5 578.1 1118.5 575.1Z M1132.9 578.1L1132.9 578.1Q1131.2 578.1 1130.2 577.2Q1129.1 576.2 1129.1 574.7L1129.1 574.7Q1129.1 573.2 1130.2 572.3Q1131.4 571.4 1133.4 571.3L1133.4 571.3L1136.5 571.1L1136.5 570.3Q1136.5 569.4 1135.9 568.9Q1135.3 568.4 1134.3 568.4L1134.3 568.4Q1133.5 568.4 1133.0 568.7Q1132.4 569.0 1131.9 569.8L1131.9 569.8Q1131.5 570.3 1130.9 570.3L1130.9 570.3Q1130.4 570.3 1130.1 570.0Q1129.7 569.7 1129.7 569.2L1129.7 569.2Q1129.7 568.9 1129.9 568.5L1129.9 568.5Q1130.3 567.5 1131.6 566.9Q1132.8 566.3 1134.4 566.3L1134.4 566.3Q1136.6 566.3 1137.8 567.4Q1139.1 568.4 1139.1 570.1L1139.1 570.1L1139.1 576.8Q1139.1 577.5 1138.7 577.8Q1138.4 578.2 1137.8 578.2L1137.8 578.2Q1137.2 578.2 1136.9 577.8Q1136.6 577.5 1136.5 576.9L1136.5 576.9L1136.5 576.1L1136.5 576.1Q1136.0 577.0 1135.0 577.6Q1134.0 578.1 1132.9 578.1ZM1133.7 576.1L1133.7 576.1Q1134.9 576.1 1135.7 575.4Q1136.5 574.7 1136.5 573.7L1136.5 573.7L1136.5 572.9L1133.8 573.0Q1132.8 573.1 1132.3 573.5Q1131.8 573.9 1131.8 574.6L1131.8 574.6Q1131.8 575.3 1132.3 575.7Q1132.8 576.1 1133.7 576.1ZM1143.6 577.8Q1143.3 578.2 1142.7 578.2Q1142.1 578.2 1141.7 577.8Q1141.3 577.4 1141.3 576.8L1141.3 576.8L1141.3 563.6Q1141.3 563.0 1141.7 562.6Q1142.1 562.2 1142.7 562.2Q1143.3 562.2 1143.6 562.6Q1144 563.0 1144 563.6L1144 563.6L1144 576.8Q1144 577.4 1143.6 577.8ZM1148.1 578.1L1148.1 578.1Q1147.5 578.1 1147.0 577.6Q1146.6 577.2 1146.6 576.5L1146.6 576.5Q1146.6 575.9 1147.0 575.4Q1147.5 575.0 1148.1 575.0L1148.1 575.0Q1148.8 575.0 1149.2 575.4Q1149.7 575.9 1149.7 576.5L1149.7 576.5Q1149.7 577.2 1149.2 577.6Q1148.8 578.1 1148.1 578.1Z " clip-path="url(#satori_cp-id-0)" mask="url(#satori_om-id-0)"/></svg>