<svg width="1200" height="630" viewBox="0 0 1200 630" xmlns="http://www.w3.org/2000/svg"><mask id="satori_om-id"><rect x="0" y="0" width="1200" height="630" fill="#fff"/></mask><defs><pattern id="satori_pattern_id-0_0" x="0" y="0" width="1" height="1" patternUnits="objectBoundingBox"><linearGradient id="satori_biid-0_0" x1="-0.09774620284174435" y1="0.18618324350808482" x2="1.0977462028417444" y2="0.8138167564919152" spreadMethod="pad"><stop offset="0%" stop-color="#f8fafc"/><stop offset="50%" stop-color="#eef2ff"/><stop offset="100%" stop-color="#ffffff"/></linearGradient><rect x="0" y="0" width="1200" height="630" fill="url(#satori_biid-0_0)"/></pattern></defs><clipPath id="satori_cp-id-0"><rect x="0" y="0" width="1200" height="630"/></clipPath><mask id="satori_om-id-0"><rect x="0" y="0" width="1200" height="630" fill="#fff"/></mask><rect x="0" y="0" width="1200" height="630" fill="url(#satori_pattern_id-0_0)"/><mask id="satori_om-id-0-0"><rect x="0" y="0" width="1200" height="509" fill="#fff" mask="url(#satori_om-id-0)"/></mask><mask id="satori_om-id-0-0-0"><rect x="72" y="72" width="1056" height="365" fill="#fff" mask="url(#satori_om-id-0)"/></mask><mask id="satori_om-id-0-0-0-0"><rect x="72" y="150" width="1056" height="38" fill="#fff" mask="url(#satori_om-id-0)"/></mask><path fill="#64748b" d="M82.7 180.2Q82.2 180.7 81.4 180.7Q80.6 180.7 80.1 180.2Q79.7 179.8 79.7 178.9L79.7 178.9L79.7 161.0L74.1 161.0Q73.4 161.0 73.0 160.5Q72.5 160.1 72.5 159.4Q72.5 158.8 73.0 158.3Q73.4 157.9 74.1 157.9L74.1 157.9L88.7 157.9Q89.4 157.9 89.9 158.3Q90.3 158.8 90.3 159.4Q90.3 160.1 89.9 160.5Q89.4 161.0 88.7 161.0L88.7 161.0L83.2 161.0L83.2 178.9Q83.2 179.8 82.7 180.2ZM95.5 180.3Q95.1 180.8 94.3 180.8Q93.6 180.8 93.1 180.3Q92.6 179.8 92.6 179.0L92.6 179.0L92.6 159.4Q92.6 158.6 93.1 158.1Q93.5 157.6 94.3 157.6L94.3 157.6Q95.1 157.6 95.5 158.1Q96.0 158.6 96.0 159.4L96.0 159.4L96.0 166.8L96.0 166.8Q96.7 165.3 98.1 164.5Q99.4 163.8 101.3 163.8L101.3 163.8Q103.9 163.8 105.5 165.4Q107.0 167.1 107.0 169.9L107.0 169.9L107.0 179.0Q107.0 179.8 106.5 180.3Q106.1 180.8 105.3 180.8L105.3 180.8Q104.6 180.8 104.1 180.3Q103.6 179.8 103.6 179.0L103.6 179.0L103.6 170.5Q103.6 168.7 102.7 167.7Q101.8 166.7 100.0 166.7L100.0 166.7Q98.2 166.7 97.1 167.8Q96 169.0 96 171.0L96 171.0L96 179.0Q96 179.8 95.5 180.3ZM116.0 180.8L116.0 180.8Q113.3 180.8 111.7 179.1Q110.2 177.5 110.2 174.7L110.2 174.7L110.2 165.5Q110.2 164.7 110.6 164.2Q111.1 163.7 111.9 163.7L111.9 163.7Q112.6 163.7 113.1 164.2Q113.6 164.7 113.6 165.5L113.6 165.5L113.6 174.0Q113.6 175.9 114.5 176.9Q115.3 177.9 117.1 177.9L117.1 177.9Q118.9 177.9 119.9 176.7Q121.0 175.5 121.0 173.6L121.0 173.6L121.0 165.5Q121.0 164.7 121.5 164.2Q121.9 163.7 122.7 163.7L122.7 163.7Q123.4 163.7 123.9 164.2Q124.4 164.7 124.4 165.5L124.4 165.5L124.4 179.0Q124.4 179.8 123.9 180.3Q123.5 180.8 122.8 180.8Q122.0 180.8 121.6 180.3Q121.1 179.8 121.1 179.1L121.1 179.1L121.1 177.7L121.0 177.7Q119.6 180.8 116.0 180.8ZM129.4 180.8L129.4 180.8Q128.6 180.8 128.1 180.3Q127.7 179.8 127.7 179.0L127.7 179.0L127.7 165.4Q127.7 164.7 128.1 164.2Q128.6 163.7 129.3 163.7L129.3 163.7Q130 163.7 130.4 164.2Q130.9 164.7 130.9 165.4L130.9 165.4L130.9 166.8L131.0 166.8Q131.3 165.5 132.3 164.6Q133.3 163.8 134.6 163.8L134.6 163.8Q135.5 163.8 135.9 164.2L135.9 164.2Q136.4 164.5 136.4 165.4L136.4 165.4Q136.4 166.1 135.9 166.5L135.9 166.5Q135.4 167.0 134.3 167.0L134.3 167.0Q132.7 167 131.9 168.0Q131.1 169.0 131.1 170.6L131.1 170.6L131.1 179.0Q131.1 179.8 130.6 180.3Q130.1 180.8 129.4 180.8ZM144.3 180.8L144.3 180.8Q141.9 180.8 140.2 179.9Q138.5 179.0 137.9 177.4L137.9 177.4Q137.7 177.1 137.7 176.7L137.7 176.7Q137.7 176.1 138.1 175.8Q138.5 175.4 139.2 175.4L139.2 175.4Q140.0 175.4 140.6 176.3L140.6 176.3Q141.3 177.3 142.1 177.8Q143.0 178.2 144.4 178.2L144.4 178.2Q145.9 178.2 146.8 177.6Q147.6 177.0 147.6 176.0L147.6 176.0Q147.6 175.2 147.1 174.7Q146.5 174.3 145.2 173.9L145.2 173.9L142.6 173.3Q137.9 172.2 137.9 168.7L137.9 168.7Q137.9 166.4 139.7 165.1Q141.5 163.7 144.4 163.7L144.4 163.7Q146.6 163.7 148.2 164.7Q149.9 165.7 150.3 167.2L150.3 167.2Q150.3 167.6 150.3 167.7L150.3 167.7Q150.3 168.3 150.0 168.6Q149.6 168.9 149 168.9L149 168.9Q148.1 168.9 147.6 168.2L147.6 168.2Q147.1 167.3 146.3 166.8Q145.5 166.3 144.3 166.3L144.3 166.3Q142.9 166.3 142.0 166.9Q141.2 167.5 141.2 168.5L141.2 168.5Q141.2 170.0 143.7 170.6L143.7 170.6L146.3 171.2Q148.9 171.8 150.0 172.9Q151.0 173.9 151.0 175.7L151.0 175.7Q151.0 178.0 149.2 179.4Q147.3 180.8 144.3 180.8ZM159.8 180.8L159.8 180.8Q156.7 180.8 154.8 178.4Q152.9 176.1 152.9 172.3Q152.9 168.4 154.8 166.1Q156.7 163.8 159.8 163.8L159.8 163.8Q161.5 163.8 162.9 164.6Q164.3 165.4 165.0 166.8L165.0 166.8L165.0 166.8L165.0 159.4Q165.0 158.6 165.5 158.1Q166.0 157.6 166.7 157.6L166.7 157.6Q167.5 157.6 167.9 158.1Q168.4 158.6 168.4 159.4L168.4 159.4L168.4 179.1Q168.4 179.9 167.9 180.3Q167.5 180.8 166.7 180.8L166.7 180.8Q166 180.8 165.5 180.3Q165.0 179.9 165.0 179.1L165.0 179.1L165.0 177.5L165.0 177.5Q164.3 179.0 163 179.9Q161.7 180.8 159.8 180.8ZM160.7 177.9L160.7 177.9Q162.7 177.9 163.9 176.4Q165.0 174.8 165.0 172.3L165.0 172.3Q165.0 169.7 163.9 168.2Q162.7 166.6 160.7 166.6L160.7 166.6Q158.7 166.6 157.5 168.1Q156.4 169.7 156.4 172.3L156.4 172.3Q156.4 174.9 157.5 176.4Q158.7 177.9 160.7 177.9ZM176.7 180.8L176.7 180.8Q174.3 180.8 172.7 179.4Q171.2 178 171.2 175.8L171.2 175.8Q171.2 173.6 172.8 172.4Q174.4 171.1 177.3 170.9L177.3 170.9L181.8 170.7L181.8 169.4Q181.8 168.0 180.9 167.3Q180.1 166.5 178.5 166.5L178.5 166.5Q177.3 166.5 176.4 167.0Q175.6 167.5 174.9 168.6L174.9 168.6Q174.4 169.3 173.5 169.3L173.5 169.3Q172.9 169.3 172.5 168.9Q172.0 168.5 172.0 167.9L172.0 167.9Q172.0 167.3 172.3 166.8L172.3 166.8Q173.0 165.4 174.7 164.6Q176.4 163.7 178.6 163.7L178.6 163.7Q181.6 163.7 183.4 165.2Q185.2 166.7 185.2 169.1L185.2 169.1L185.2 179.1Q185.2 179.8 184.7 180.3Q184.3 180.8 183.5 180.8L183.5 180.8Q182.8 180.8 182.4 180.3Q182.0 179.9 181.9 179.2L181.9 179.2L181.9 177.8L181.9 177.8Q181.2 179.1 179.7 179.9Q178.3 180.8 176.7 180.8ZM177.6 178.1L177.6 178.1Q179.4 178.1 180.6 177.0Q181.8 175.9 181.8 174.3L181.8 174.3L181.8 173.0L177.8 173.3Q176.2 173.4 175.4 174.0Q174.6 174.6 174.6 175.7L174.6 175.7Q174.6 176.8 175.4 177.4Q176.3 178.1 177.6 178.1ZM190.5 186.6L190.5 186.6Q189.3 186.6 188.7 186.2Q188.0 185.8 188.0 185.0L188.0 185.0Q188.0 184.4 188.4 184.1Q188.8 183.8 189.4 183.8L189.4 183.8Q189.5 183.8 189.8 183.8Q190.0 183.8 190.2 183.8L190.2 183.8Q191.9 183.8 192.7 181.6L192.7 181.6L193.0 180.6L187.5 166.3Q187.4 165.7 187.4 165.3L187.4 165.3Q187.4 164.6 187.8 164.2Q188.3 163.7 189.1 163.7L189.1 163.7Q189.7 163.7 190.1 164.0Q190.5 164.3 190.7 165.0L190.7 165.0L194.9 177.4L194.9 177.4L199.1 165.0Q199.3 164.3 199.7 164.0Q200.1 163.7 200.8 163.7L200.8 163.7Q201.5 163.7 201.9 164.2Q202.4 164.6 202.4 165.3L202.4 165.3Q202.4 165.7 202.2 166.2L202.2 166.2L196.5 181.3Q195.4 184.3 194.1 185.4Q192.8 186.6 190.5 186.6ZM207.2 176.7L207.2 176.7Q207.9 176.7 208.3 177.0Q208.7 177.4 208.7 178.1L208.7 178.1Q208.7 178.5 208.6 179.0L208.6 179.0L207.3 184.3Q207.0 185.5 205.8 185.5L205.8 185.5Q205.2 185.5 204.9 185.1Q204.5 184.8 204.5 184.3L204.5 184.3Q204.5 184.1 204.5 183.9L204.5 183.9L205.5 178.1Q205.8 176.7 207.2 176.7Z M228.1 180.9L228.1 180.9Q225.5 180.9 223.5 179.6Q221.5 178.3 220.4 175.9L220.4 175.9Q219.2 173.3 219.2 169.5L219.2 169.5Q219.2 163.8 221.6 160.7Q224.0 157.5 228.2 157.5L228.2 157.5Q230.6 157.5 232.4 158.5Q234.3 159.4 235.2 161.1L235.2 161.1Q235.6 161.8 235.6 162.4L235.6 162.4Q235.6 163.0 235.1 163.4Q234.7 163.8 234.0 163.8L234.0 163.8Q233.5 163.8 233.1 163.6Q232.8 163.3 232.3 162.7L232.3 162.7Q230.8 160.4 228.2 160.4L228.2 160.4Q225.5 160.4 224.1 162.7Q222.7 165.0 222.6 169.1L222.6 169.1L222.6 169.3L222.7 169.3Q223.4 167.7 225.0 166.7Q226.7 165.7 228.9 165.7L228.9 165.7Q232.1 165.7 234.2 167.8Q236.3 169.9 236.3 173.1L236.3 173.1Q236.3 176.5 234 178.7Q231.7 180.9 228.1 180.9ZM228.0 178.0L228.0 178.0Q230.1 178.0 231.5 176.6Q232.8 175.2 232.8 173.2L232.8 173.2Q232.8 171.2 231.5 169.8Q230.2 168.5 228.1 168.5Q226.0 168.5 224.6 169.8Q223.3 171.1 223.3 173.1L223.3 173.1Q223.3 175.2 224.7 176.6Q226.0 178.0 228.0 178.0Z M249.0 180.2Q248.6 180.7 247.8 180.7Q247 180.7 246.5 180.2Q246.1 179.8 246.1 178.9L246.1 178.9L246.1 159.6Q246.1 158.7 246.6 158.2Q247.1 157.7 248.0 157.7L248.0 157.7Q248.6 157.7 249.0 157.9Q249.4 158.2 249.9 158.8L249.9 158.8L261.0 174.5L261.1 174.5L261.1 159.5Q261.1 158.6 261.5 158.1Q262 157.7 262.8 157.7L262.8 157.7Q263.6 157.7 264.0 158.1Q264.5 158.6 264.5 159.5L264.5 159.5L264.5 178.9Q264.5 179.8 264 180.2Q263.5 180.7 262.6 180.7L262.6 180.7Q262 180.7 261.6 180.5Q261.2 180.3 260.8 179.6L260.8 179.6L249.6 163.9L249.5 163.9L249.5 178.9Q249.5 179.8 249.0 180.2ZM281.0 178.5Q278.8 180.8 275.3 180.8Q271.8 180.8 269.6 178.5Q267.5 176.2 267.5 172.3L267.5 172.3Q267.5 168.3 269.6 166.0Q271.8 163.7 275.3 163.7Q278.8 163.7 281.0 166.0Q283.1 168.3 283.1 172.3L283.1 172.3Q283.1 176.2 281.0 178.5ZM275.3 178L275.3 178Q277.3 178 278.5 176.5Q279.7 175.0 279.7 172.3L279.7 172.3Q279.7 169.5 278.5 168.0Q277.3 166.5 275.3 166.5Q273.3 166.5 272.1 168.0Q270.9 169.5 270.9 172.3L270.9 172.3Q270.9 175.0 272.1 176.5Q273.3 178 275.3 178ZM292.0 180.8L292.0 180.8Q291.1 180.8 290.6 180.4Q290.1 180.0 289.7 179.0L289.7 179.0L284.8 166.2Q284.6 165.7 284.6 165.3L284.6 165.3Q284.6 164.6 285.1 164.2Q285.6 163.7 286.3 163.7L286.3 163.7Q287.5 163.7 287.9 165.1L287.9 165.1L292.0 177.2L292.1 177.2L296.2 165.0Q296.6 163.7 297.7 163.7L297.7 163.7Q298.5 163.7 298.9 164.2Q299.4 164.6 299.4 165.3L299.4 165.3Q299.4 165.7 299.2 166.2L299.2 166.2L294.3 179.0Q294.0 179.9 293.5 180.4Q292.9 180.8 292.0 180.8ZM308.8 180.8L308.8 180.8Q305.1 180.8 303.0 178.5Q300.9 176.3 300.9 172.3L300.9 172.3Q300.9 168.4 303.0 166.1Q305.1 163.7 308.6 163.7L308.6 163.7Q311.8 163.7 313.9 165.9Q316.0 168 316.0 171.4L316.0 171.4Q316.0 172.2 315.5 172.6Q315.1 173.1 314.3 173.1L314.3 173.1L304.3 173.1L304.3 173.2Q304.3 175.4 305.5 176.7Q306.7 178.0 308.7 178.0L308.7 178.0Q310.1 178.0 311.1 177.5Q312.0 177.0 313.0 175.7L313.0 175.7Q313.5 175.1 314.2 175.1L314.2 175.1Q314.8 175.1 315.2 175.5Q315.6 175.9 315.6 176.5L315.6 176.5Q315.6 176.8 315.3 177.4L315.3 177.4Q314.5 179 312.8 179.9Q311.1 180.8 308.8 180.8ZM304.4 170.7L304.4 170.7L312.6 170.7Q312.5 168.8 311.4 167.6Q310.3 166.5 308.5 166.5L308.5 166.5Q306.8 166.5 305.6 167.6Q304.5 168.8 304.4 170.7ZM321.5 180.3Q321.0 180.8 320.3 180.8Q319.5 180.8 319.0 180.3Q318.6 179.8 318.6 179.0L318.6 179.0L318.6 165.5Q318.6 164.7 319.0 164.2Q319.5 163.7 320.2 163.7Q320.9 163.7 321.3 164.2Q321.8 164.7 321.8 165.5L321.8 165.5L321.8 166.8L321.9 166.8Q322.4 165.4 323.7 164.6Q324.9 163.8 326.5 163.8L326.5 163.8Q328.2 163.8 329.4 164.6Q330.6 165.4 331.1 167.0L331.1 167.0L331.2 167.0Q331.8 165.5 333.2 164.6Q334.6 163.8 336.3 163.8L336.3 163.8Q338.8 163.8 340.2 165.2Q341.7 166.7 341.7 169.2L341.7 169.2L341.7 179.0Q341.7 179.8 341.2 180.3Q340.8 180.8 340 180.8Q339.2 180.8 338.8 180.3Q338.3 179.8 338.3 179.0L338.3 179.0L338.3 170.0Q338.3 168.4 337.5 167.5Q336.7 166.6 335.2 166.6Q333.7 166.6 332.7 167.6Q331.8 168.6 331.8 170.2L331.8 170.2L331.8 179.0Q331.8 179.8 331.3 180.3Q330.9 180.8 330.1 180.8Q329.4 180.8 328.9 180.3Q328.5 179.8 328.5 179.0L328.5 179.0L328.5 169.7Q328.5 168.3 327.6 167.5Q326.8 166.6 325.4 166.6L325.4 166.6Q323.9 166.6 322.9 167.7Q321.9 168.7 321.9 170.3L321.9 170.3L321.9 179.0Q321.9 179.8 321.5 180.3ZM346.7 180.8L346.7 180.8Q346.0 180.8 345.5 180.3Q345.1 179.9 345.1 179.1L345.1 179.1L345.1 159.4Q345.1 158.6 345.5 158.1Q346.0 157.6 346.8 157.6Q347.5 157.6 348.0 158.1Q348.5 158.6 348.5 159.4L348.5 159.4L348.5 166.8L348.5 166.8Q349.3 165.4 350.6 164.6Q352 163.8 353.7 163.8L353.7 163.8Q356.8 163.8 358.7 166.1Q360.6 168.4 360.6 172.3L360.6 172.3Q360.6 176.2 358.7 178.5Q356.8 180.8 353.7 180.8L353.7 180.8Q351.9 180.8 350.6 179.9Q349.2 179.1 348.4 177.7L348.4 177.7L348.4 177.7L348.4 179.1Q348.4 179.9 347.9 180.3Q347.4 180.8 346.7 180.8ZM352.8 177.9L352.8 177.9Q354.8 177.9 356.0 176.4Q357.1 174.9 357.1 172.3L357.1 172.3Q357.1 169.7 355.9 168.1Q354.8 166.6 352.8 166.6L352.8 166.6Q350.9 166.6 349.7 168.2Q348.4 169.7 348.4 172.3L348.4 172.3Q348.4 174.8 349.7 176.3Q350.9 177.9 352.8 177.9ZM370.3 180.8L370.3 180.8Q366.6 180.8 364.5 178.5Q362.5 176.3 362.5 172.3L362.5 172.3Q362.5 168.4 364.5 166.1Q366.6 163.7 370.1 163.7L370.1 163.7Q373.4 163.7 375.4 165.9Q377.5 168 377.5 171.4L377.5 171.4Q377.5 172.2 377.0 172.6Q376.6 173.1 375.8 173.1L375.8 173.1L365.9 173.1L365.9 173.2Q365.9 175.4 367.0 176.7Q368.2 178.0 370.2 178.0L370.2 178.0Q371.6 178.0 372.6 177.5Q373.5 177.0 374.5 175.7L374.5 175.7Q375.0 175.1 375.7 175.1L375.7 175.1Q376.3 175.1 376.7 175.5Q377.1 175.9 377.1 176.5L377.1 176.5Q377.1 176.8 376.8 177.4L376.8 177.4Q376.0 179 374.3 179.9Q372.6 180.8 370.3 180.8ZM365.9 170.7L365.9 170.7L374.1 170.7Q374.0 168.8 372.9 167.6Q371.8 166.5 370.1 166.5L370.1 166.5Q368.3 166.5 367.2 167.6Q366 168.8 365.9 170.7ZM381.8 180.8L381.8 180.8Q381 180.8 380.5 180.3Q380.1 179.8 380.1 179.0L380.1 179.0L380.1 165.4Q380.1 164.7 380.5 164.2Q381.0 163.7 381.7 163.7L381.7 163.7Q382.4 163.7 382.8 164.2Q383.3 164.7 383.3 165.4L383.3 165.4L383.3 166.8L383.4 166.8Q383.7 165.5 384.7 164.6Q385.7 163.8 387.0 163.8L387.0 163.8Q387.9 163.8 388.3 164.2L388.3 164.2Q388.8 164.5 388.8 165.4L388.8 165.4Q388.8 166.1 388.3 166.5L388.3 166.5Q387.8 167.0 386.7 167.0L386.7 167.0Q385.0 167 384.3 168.0Q383.5 169.0 383.5 170.6L383.5 170.6L383.5 179.0Q383.5 179.8 383.0 180.3Q382.5 180.8 381.8 180.8Z M411.2 180.5L398.7 180.5Q398.0 180.5 397.5 180.1Q397.1 179.7 397.1 179L397.1 179Q397.1 178.5 397.3 178.1Q397.5 177.8 398.0 177.2L398.0 177.2L405.1 170.0Q407.3 167.8 408.0 166.6Q408.8 165.4 408.8 164.1L408.8 164.1Q408.8 162.5 407.6 161.4Q406.5 160.4 404.8 160.4L404.8 160.4Q401.5 160.4 400.3 163.7L400.3 163.7Q400.0 164.3 399.7 164.6Q399.3 164.9 398.7 164.9L398.7 164.9Q398 164.9 397.6 164.5Q397.2 164.0 397.2 163.4L397.2 163.4Q397.2 163 397.3 162.6L397.3 162.6Q397.5 161.7 398.0 160.8Q398.6 159.9 399.5 159.2Q400.5 158.4 401.9 158.0Q403.2 157.5 404.8 157.5L404.8 157.5Q408.1 157.5 410.1 159.3Q412.2 161.1 412.2 163.9L412.2 163.9Q412.2 165.8 411.2 167.5Q410.1 169.1 407.2 172.0L407.2 172.0L401.8 177.4L401.8 177.5L411.2 177.5Q411.9 177.5 412.3 177.9Q412.7 178.3 412.7 179L412.7 179Q412.7 179.7 412.3 180.1Q411.9 180.5 411.2 180.5L411.2 180.5ZM430.3 177.7Q428.0 180.9 423.9 180.9Q419.9 180.9 417.6 177.7Q415.3 174.6 415.3 169.2L415.3 169.2Q415.3 163.8 417.6 160.6Q419.9 157.5 423.9 157.5L423.9 157.5Q427.9 157.5 430.2 160.6Q432.5 163.8 432.5 169.2L432.5 169.2Q432.5 174.6 430.3 177.7ZM423.9 178.0L423.9 178.0Q426.3 178.0 427.7 175.6Q429 173.3 429 169.2L429 169.2Q429 165.1 427.7 162.8Q426.3 160.4 423.9 160.4Q421.5 160.4 420.2 162.8Q418.8 165.1 418.8 169.2L418.8 169.2Q418.8 173.3 420.2 175.6Q421.5 178.0 423.9 178.0ZM449.7 180.5L437.2 180.5Q436.5 180.5 436.0 180.1Q435.6 179.7 435.6 179L435.6 179Q435.6 178.5 435.8 178.1Q436.0 177.8 436.5 177.2L436.5 177.2L443.6 170.0Q445.8 167.8 446.5 166.6Q447.3 165.4 447.3 164.1L447.3 164.1Q447.3 162.5 446.1 161.4Q445.0 160.4 443.3 160.4L443.3 160.4Q440.0 160.4 438.8 163.7L438.8 163.7Q438.5 164.3 438.2 164.6Q437.8 164.9 437.2 164.9L437.2 164.9Q436.5 164.9 436.1 164.5Q435.7 164.0 435.7 163.4L435.7 163.4Q435.7 163 435.8 162.6L435.8 162.6Q436.0 161.7 436.5 160.8Q437.1 159.9 438.0 159.2Q439.0 158.4 440.4 158.0Q441.7 157.5 443.3 157.5L443.3 157.5Q446.6 157.5 448.6 159.3Q450.7 161.1 450.7 163.9L450.7 163.9Q450.7 165.8 449.7 167.5Q448.6 169.1 445.7 172.0L445.7 172.0L440.3 177.4L440.3 177.5L449.7 177.5Q450.4 177.5 450.8 177.9Q451.2 178.3 451.2 179L451.2 179Q451.2 179.7 450.8 180.1Q450.4 180.5 449.7 180.5L449.7 180.5ZM462.2 180.9L462.2 180.9Q459.7 180.9 457.7 179.8Q455.7 178.6 454.9 176.8L454.9 176.8Q454.5 176.0 454.5 175.2L454.5 175.2Q454.5 174.5 454.9 174.1Q455.3 173.7 456.1 173.7L456.1 173.7Q456.6 173.7 457.0 174.0Q457.4 174.2 457.6 174.8L457.6 174.8Q458.2 176.3 459.4 177.1Q460.6 178.0 462.3 178.0L462.3 178.0Q464.4 178.0 465.8 176.6Q467.1 175.3 467.1 173.1L467.1 173.1Q467.1 171.0 465.7 169.7Q464.4 168.4 462.3 168.4L462.3 168.4Q460.0 168.4 458.6 169.9L458.6 169.9Q457.9 170.6 457.5 170.9Q457.1 171.1 456.5 171.1L456.5 171.1Q455.7 171.1 455.2 170.6Q454.8 170.0 454.8 169.3L454.8 169.3L454.8 169.0L455.6 160.3Q455.7 159.0 456.3 158.5Q457.0 157.9 458.3 157.9L458.3 157.9L467.8 157.9Q468.5 157.9 469.0 158.3Q469.4 158.7 469.4 159.4Q469.4 160.1 469.0 160.5Q468.5 160.9 467.8 160.9L467.8 160.9L458.6 160.9L458.0 167.9L458.0 167.9Q458.8 166.8 460.1 166.2Q461.4 165.6 463.1 165.6L463.1 165.6Q466.4 165.6 468.4 167.7Q470.5 169.8 470.5 173.0L470.5 173.0Q470.5 176.5 468.2 178.7Q465.9 180.9 462.2 180.9Z " clip-path="url(#satori_cp-id-0)" mask="url(#satori_om-id-0)"/><mask id="satori_om-id-0-0-0-1"><rect x="72" y="212" width="1056" height="147" fill="#fff" mask="url(#satori_om-id-0)"/></mask><path fill="#0f172a" d="M94.7 270.8Q93.5 272.1 91.3 272.1Q89.0 272.1 87.8 270.8Q86.5 269.6 86.5 267.2L86.5 267.2L86.5 234.3L77.2 234.3Q75.3 234.3 74.1 233.2Q72.9 232.2 72.9 230.4Q72.9 228.6 74.1 227.5Q75.3 226.5 77.2 226.5L77.2 226.5L105.3 226.5Q107.3 226.5 108.4 227.5Q109.6 228.6 109.6 230.4Q109.6 232.2 108.4 233.2Q107.2 234.3 105.3 234.3L105.3 234.3L96.0 234.3L96.0 267.2Q96.0 269.6 94.7 270.8ZM121.6 271.0Q120.3 272.2 118.3 272.2Q116.2 272.2 114.9 271.0Q113.7 269.7 113.7 267.5L113.7 267.5L113.7 230.5Q113.7 228.3 114.9 227.0Q116.1 225.8 118.2 225.8L118.2 225.8Q120.3 225.8 121.5 227.0Q122.7 228.2 122.7 230.5L122.7 230.5L122.7 244.0L122.8 244.0Q124.2 240.8 126.9 239.1Q129.6 237.4 133.4 237.4L133.4 237.4Q138.9 237.4 142.0 240.8Q145.1 244.1 145.1 250.0L145.1 250.0L145.1 267.5Q145.1 269.7 143.8 271.0Q142.6 272.2 140.5 272.2Q138.4 272.2 137.2 271.0Q135.9 269.7 135.9 267.5L135.9 267.5L135.9 251.9Q135.9 248.6 134.3 246.8Q132.7 245.0 129.7 245.0L129.7 245.0Q126.5 245.0 124.6 247.0Q122.8 249.1 122.8 252.4L122.8 252.4L122.8 267.5Q122.8 269.7 121.6 271.0ZM166.3 272.3L166.3 272.3Q158.4 272.3 154.0 267.7Q149.7 263.1 149.7 255.0L149.7 255.0Q149.7 246.9 154.0 242.1Q158.4 237.3 165.8 237.3L165.8 237.3Q172.9 237.3 177.3 241.7Q181.7 246.1 181.7 252.9L181.7 252.9Q181.7 254.8 180.7 255.9Q179.7 256.9 177.8 256.9L177.8 256.9L158.6 256.9L158.6 257.3Q158.6 261.0 160.7 263.3Q162.8 265.5 166.3 265.5L166.3 265.5Q168.8 265.5 170.6 264.6Q172.4 263.7 174.3 261.5L174.3 261.5Q175.6 260.1 177.2 260.1L177.2 260.1Q178.8 260.1 179.8 261.1Q180.8 262.0 180.8 263.5L180.8 263.5Q180.8 264.6 180.2 265.7L180.2 265.7Q178.5 268.8 174.8 270.5Q171.1 272.3 166.3 272.3ZM158.7 251.3L158.7 251.3L172.9 251.3Q172.8 248.0 170.9 246.1Q168.9 244.1 165.9 244.1Q162.9 244.1 161.0 246.1Q159.0 248.1 158.7 251.3Z M218.8 270.8Q217.6 272.1 215.3 272.1Q213.1 272.1 211.9 270.8Q210.6 269.6 210.6 267.2L210.6 267.2L210.6 234.3L201.3 234.3Q199.4 234.3 198.2 233.2Q197.0 232.2 197.0 230.4Q197.0 228.6 198.2 227.5Q199.3 226.5 201.3 226.5L201.3 226.5L229.4 226.5Q231.3 226.5 232.5 227.5Q233.7 228.6 233.7 230.4Q233.7 232.2 232.5 233.2Q231.3 234.3 229.4 234.3L229.4 234.3L220.1 234.3L220.1 267.2Q220.1 269.6 218.8 270.8ZM246.5 270.9Q245.3 272.2 243.1 272.2Q240.8 272.2 239.6 270.9Q238.3 269.6 238.3 267.3L238.3 267.3L238.3 231.4Q238.3 229.1 239.6 227.8Q240.8 226.5 243.1 226.5L243.1 226.5L256.8 226.5Q264.5 226.5 268.8 230.3Q273.1 234.1 273.1 240.8L273.1 240.8Q273.1 245.1 271.1 248.5Q269.1 251.8 265.4 253.4L265.4 253.4L271.9 264.6Q272.9 266.4 272.9 267.9L272.9 267.9Q272.9 269.8 271.5 271.0Q270.2 272.2 268.1 272.2L268.1 272.2Q266.4 272.2 265.5 271.5Q264.5 270.7 263.3 268.6L263.3 268.6L255.8 255.1L247.8 255.1L247.8 267.3Q247.8 269.6 246.5 270.9ZM247.8 233.8L247.8 248.2L255.9 248.2Q259.5 248.2 261.5 246.3Q263.4 244.4 263.4 241.0L263.4 241.0Q263.4 237.7 261.4 235.8Q259.3 233.8 255.8 233.8L255.8 233.8L247.8 233.8ZM282.3 272.1L282.3 272.1Q280.1 272.1 278.8 270.9Q277.5 269.7 277.5 267.7L277.5 267.7Q277.5 266.5 278.2 264.7L278.2 264.7L290.5 231.2Q291.5 228.4 293.2 227.1Q294.9 225.8 297.6 225.8L297.6 225.8Q300.3 225.8 302.0 227.1Q303.8 228.4 304.8 231.1L304.8 231.1L317.2 264.7Q317.8 266.4 317.8 267.7L317.8 267.7Q317.8 269.6 316.4 270.9Q315.1 272.1 313.0 272.1L313.0 272.1Q311.0 272.1 309.9 271.2Q308.8 270.2 308.1 268.0L308.1 268.0L305.8 260.9L289.5 260.9L287.1 267.9Q286.4 270.1 285.3 271.1Q284.2 272.1 282.3 272.1ZM297.4 235.1L291.5 253.6L303.6 253.6L297.6 235.1L297.4 235.1ZM340.7 271.6L328.2 271.6Q326.0 271.6 324.7 270.3Q323.5 269.0 323.5 266.6L323.5 266.6L323.5 231.4Q323.5 229.1 324.7 227.8Q326.0 226.5 328.2 226.5L328.2 226.5L340.7 226.5Q350.9 226.5 356.5 232.3Q362.2 238.1 362.2 248.8L362.2 248.8Q362.2 259.6 356.5 265.6Q350.8 271.6 340.7 271.6L340.7 271.6ZM332.9 234.2L332.9 263.7L339.6 263.7Q345.9 263.7 349.2 259.9Q352.6 256.1 352.6 248.9L352.6 248.9Q352.6 241.8 349.2 238.0Q345.8 234.2 339.6 234.2L339.6 234.2L332.9 234.2ZM394.4 271.6L373.0 271.6Q370.8 271.6 369.5 270.3Q368.3 269.0 368.3 266.6L368.3 266.6L368.3 231.4Q368.3 229.1 369.5 227.8Q370.8 226.5 373.0 226.5L373.0 226.5L394.4 226.5Q396.4 226.5 397.5 227.5Q398.7 228.6 398.7 230.4Q398.7 232.2 397.5 233.2Q396.3 234.3 394.4 234.3L394.4 234.3L377.7 234.3L377.7 245.1L393.6 245.1Q395.4 245.1 396.5 246.1Q397.5 247.1 397.5 248.7L397.5 248.7Q397.5 250.4 396.5 251.4Q395.4 252.4 393.6 252.4L393.6 252.4L377.7 252.4L377.7 263.7L394.4 263.7Q396.3 263.7 397.5 264.8Q398.7 265.8 398.7 267.6Q398.7 269.5 397.5 270.5Q396.4 271.6 394.4 271.6L394.4 271.6Z M424.9 271.0Q423.8 272.1 421.8 272.1Q419.8 272.1 418.7 271.0Q417.6 269.8 417.6 267.7L417.6 267.7L417.6 231.9Q417.6 229.1 419.2 227.4Q420.8 225.8 423.7 225.8L423.7 225.8Q426.2 225.8 427.6 227.0Q429.1 228.1 430.2 230.7L430.2 230.7L441.3 258.4L441.6 258.4L452.8 230.7Q453.8 228.1 455.3 227.0Q456.8 225.8 459.3 225.8L459.3 225.8Q462.2 225.8 463.8 227.4Q465.3 229.1 465.3 231.9L465.3 231.9L465.3 267.7Q465.3 269.8 464.2 271.0Q463.1 272.1 461.1 272.1Q459.1 272.1 458.0 271.0Q456.9 269.8 456.9 267.7L456.9 267.7L456.9 241.1L456.7 241.1L445.5 268.4Q444.4 271.3 441.5 271.3L441.5 271.3Q438.6 271.3 437.4 268.4L437.4 268.4L426.3 241.1L426 241.1L426 267.7Q426 269.8 424.9 271.0ZM480.3 232.5Q478.8 233.9 476.8 233.9Q474.7 233.9 473.3 232.5Q471.9 231.1 471.9 229.2L471.9 229.2Q471.9 227.2 473.3 225.8Q474.7 224.5 476.8 224.5Q478.8 224.5 480.3 225.8Q481.7 227.2 481.7 229.2L481.7 229.2Q481.7 231.1 480.3 232.5ZM480.1 270.9Q478.9 272.2 476.8 272.2Q474.7 272.2 473.4 270.9Q472.2 269.7 472.2 267.5L472.2 267.5L472.2 242.1Q472.2 239.9 473.4 238.6Q474.7 237.4 476.8 237.4Q478.9 237.4 480.1 238.6Q481.3 239.9 481.3 242.1L481.3 242.1L481.3 267.5Q481.3 269.7 480.1 270.9ZM499.8 272.1L499.8 272.1Q493.6 272.1 489.9 267.4Q486.2 262.8 486.2 254.7L486.2 254.7Q486.2 246.8 489.9 242.1Q493.6 237.5 499.9 237.5L499.9 237.5Q503.5 237.5 506.2 239.2Q508.9 241.0 510.1 243.8L510.1 243.8L510.3 243.8L510.3 230.6Q510.3 228.3 511.6 227.0Q512.8 225.8 514.9 225.8Q516.9 225.8 518.2 227.0Q519.4 228.3 519.4 230.6L519.4 230.6L519.4 267.6Q519.4 269.8 518.2 271.0Q517.0 272.2 514.9 272.2L514.9 272.2Q512.9 272.2 511.6 271.0Q510.3 269.8 510.3 267.6L510.3 267.6L510.3 265.6L510.2 265.6Q509.0 268.6 506.3 270.3Q503.6 272.1 499.8 272.1ZM502.9 264.7L502.9 264.7Q506.3 264.7 508.4 262.1Q510.4 259.4 510.4 254.8L510.4 254.8Q510.4 250.2 508.4 247.5Q506.3 244.8 502.9 244.8L502.9 244.8Q499.5 244.8 497.5 247.5Q495.5 250.2 495.5 254.8L495.5 254.8Q495.5 259.4 497.5 262.1Q499.5 264.7 502.9 264.7ZM538.0 272.1L538.0 272.1Q531.7 272.1 528 267.4Q524.3 262.8 524.3 254.7L524.3 254.7Q524.3 246.8 528.0 242.1Q531.7 237.5 538.0 237.5L538.0 237.5Q541.6 237.5 544.3 239.2Q547 241.0 548.3 243.8L548.3 243.8L548.4 243.8L548.4 230.6Q548.4 228.3 549.7 227.0Q550.9 225.8 553 225.8Q555.1 225.8 556.3 227.0Q557.6 228.3 557.6 230.6L557.6 230.6L557.6 267.6Q557.6 269.8 556.3 271.0Q555.1 272.2 553.0 272.2L553.0 272.2Q551 272.2 549.7 271.0Q548.4 269.8 548.4 267.6L548.4 267.6L548.4 265.6L548.3 265.6Q547.2 268.6 544.4 270.3Q541.7 272.1 538.0 272.1ZM541.1 264.7L541.1 264.7Q544.5 264.7 546.5 262.1Q548.5 259.4 548.5 254.8L548.5 254.8Q548.5 250.2 546.5 247.5Q544.5 244.8 541.1 244.8L541.1 244.8Q537.6 244.8 535.6 247.5Q533.7 250.2 533.7 254.8L533.7 254.8Q533.7 259.4 535.6 262.1Q537.6 264.7 541.1 264.7ZM571.8 271.0Q570.5 272.2 568.4 272.2Q566.4 272.2 565.1 271.0Q563.9 269.7 563.9 267.5L563.9 267.5L563.9 230.6Q563.9 228.3 565.1 227.0Q566.4 225.8 568.4 225.8Q570.5 225.8 571.8 227.0Q573 228.3 573 230.6L573 230.6L573 267.5Q573 269.7 571.8 271.0ZM594.6 272.3L594.6 272.3Q586.7 272.3 582.3 267.7Q577.9 263.1 577.9 255.0L577.9 255.0Q577.9 246.9 582.3 242.1Q586.7 237.3 594.1 237.3L594.1 237.3Q601.2 237.3 605.6 241.7Q610 246.1 610 252.9L610 252.9Q610 254.8 609.0 255.9Q607.9 256.9 606.0 256.9L606.0 256.9L586.9 256.9L586.9 257.3Q586.9 261.0 589.0 263.3Q591.1 265.5 594.5 265.5L594.5 265.5Q597.0 265.5 598.9 264.6Q600.7 263.7 602.5 261.5L602.5 261.5Q603.8 260.1 605.5 260.1L605.5 260.1Q607.0 260.1 608.0 261.1Q609.1 262.0 609.1 263.5L609.1 263.5Q609.1 264.6 608.4 265.7L608.4 265.7Q606.8 268.8 603.1 270.5Q599.4 272.3 594.6 272.3ZM587 251.3L587 251.3L601.2 251.3Q601.1 248.0 599.2 246.1Q597.2 244.1 594.2 244.1Q591.2 244.1 589.2 246.1Q587.3 248.1 587 251.3ZM625.9 272.2L625.9 272.2Q623.6 272.2 622.2 271.1Q620.9 269.9 620.2 267.4L620.2 267.4L613.4 244.1Q612.9 242.4 612.9 241.3L612.9 241.3Q612.9 239.6 614.1 238.5Q615.4 237.4 617.3 237.4L617.3 237.4Q620.8 237.4 621.6 241.2L621.6 241.2L626.6 262.9L626.8 262.9L631.9 241.6Q632.8 237.4 637.1 237.4L637.1 237.4Q639.1 237.4 640.4 238.4Q641.8 239.5 642.2 241.6L642.2 241.6L647.4 262.9L647.6 262.9L652.6 241.2Q653.0 239.3 654.0 238.3Q655.1 237.4 656.8 237.4L656.8 237.4Q658.7 237.4 659.9 238.4Q661.1 239.5 661.1 241.2L661.1 241.2Q661.1 242.3 660.6 244.0L660.6 244.0L653.9 267.4Q653.2 269.9 651.8 271.1Q650.4 272.2 648.0 272.2L648.0 272.2Q645.5 272.2 644.1 271.1Q642.7 269.9 642.1 267.4L642.1 267.4L637.0 247.9L636.8 247.9L631.8 267.4Q631.2 269.9 629.8 271.1Q628.4 272.2 625.9 272.2ZM675.2 272.1L675.2 272.1Q670.3 272.1 667.1 269.2Q663.9 266.4 663.9 261.9L663.9 261.9Q663.9 257.4 667.3 254.8Q670.7 252.2 677 251.8L677 251.8L685.4 251.3L685.4 249.1Q685.4 246.8 683.9 245.5Q682.4 244.1 679.8 244.1L679.8 244.1Q677.7 244.1 676.3 244.9Q674.8 245.7 673.3 247.7L673.3 247.7Q671.8 249.4 669.7 249.4L669.7 249.4Q668.0 249.4 667.0 248.4Q665.9 247.4 665.9 245.9L665.9 245.9Q665.9 244.8 666.3 243.8L666.3 243.8Q667.5 240.8 671.3 239.1Q675 237.3 680.2 237.3L680.2 237.3Q686.7 237.3 690.5 240.4Q694.4 243.5 694.4 248.5L694.4 248.5L694.4 267.6Q694.4 269.8 693.2 271.0Q692.0 272.2 690.0 272.2L690.0 272.2Q688.1 272.2 686.9 271.2Q685.7 270.1 685.6 268.1L685.6 268.1L685.6 266.4L685.4 266.4Q684.0 269.1 681.2 270.6Q678.4 272.1 675.2 272.1ZM678.2 265.5L678.2 265.5Q681.2 265.5 683.3 263.7Q685.4 262.0 685.4 259.3L685.4 259.3L685.4 256.8L678.4 257.3Q675.8 257.5 674.4 258.6Q673.0 259.6 673.0 261.4L673.0 261.4Q673.0 263.3 674.4 264.4Q675.8 265.5 678.2 265.5ZM704.8 272.2L704.8 272.2Q702.8 272.2 701.5 271.0Q700.3 269.7 700.3 267.5L700.3 267.5L700.3 242.0Q700.3 239.8 701.5 238.6Q702.7 237.4 704.7 237.4L704.7 237.4Q706.6 237.4 707.8 238.6Q709 239.8 709 242.0L709 242.0L709 244.1L709.2 244.1Q709.8 241.1 711.7 239.3Q713.6 237.5 716.2 237.5L716.2 237.5Q718 237.5 719 238.4L719 238.4Q720.3 239.4 720.3 241.7L720.3 241.7Q720.3 243.9 719 245.0L719 245.0Q717.7 246.2 715.0 246.2L715.0 246.2Q712.0 246.2 710.7 247.8Q709.4 249.5 709.4 252.6L709.4 252.6L709.4 267.5Q709.4 269.7 708.2 271.0Q707.0 272.2 704.8 272.2ZM739.0 272.3L739.0 272.3Q731.1 272.3 726.7 267.7Q722.3 263.1 722.3 255.0L722.3 255.0Q722.3 246.9 726.7 242.1Q731.1 237.3 738.5 237.3L738.5 237.3Q745.6 237.3 750.0 241.7Q754.4 246.1 754.4 252.9L754.4 252.9Q754.4 254.8 753.4 255.9Q752.3 256.9 750.4 256.9L750.4 256.9L731.3 256.9L731.3 257.3Q731.3 261.0 733.4 263.3Q735.5 265.5 738.9 265.5L738.9 265.5Q741.4 265.5 743.3 264.6Q745.1 263.7 746.9 261.5L746.9 261.5Q748.3 260.1 749.9 260.1L749.9 260.1Q751.4 260.1 752.5 261.1Q753.5 262.0 753.5 263.5L753.5 263.5Q753.5 264.6 752.8 265.7L752.8 265.7Q751.2 268.8 747.5 270.5Q743.8 272.3 739.0 272.3ZM731.4 251.3L731.4 251.3L745.6 251.3Q745.5 248.0 743.6 246.1Q741.6 244.1 738.6 244.1Q735.6 244.1 733.6 246.1Q731.7 248.1 731.4 251.3Z M782.1 271.0Q780.8 272.2 778.8 272.2Q776.7 272.2 775.4 271.0Q774.2 269.8 774.2 267.5L774.2 267.5L774.2 244.9L772.4 244.9Q771.0 244.9 770.0 244.0Q769.1 243.1 769.1 241.6Q769.1 240.0 770.0 239.1Q771.0 238.2 772.4 238.2L772.4 238.2L774.2 238.2L774.2 235.7Q774.2 230.8 776.6 228.4Q778.9 226.1 783.8 226.1L783.8 226.1Q787.3 226.1 788.9 227.1Q790.6 228.1 790.6 229.7L790.6 229.7Q790.6 231.6 788.8 232.1L788.8 232.1Q787.9 232.4 787.0 232.4L787.0 232.4Q784.9 232.5 784.0 233.3Q783.1 234.2 783.1 236.1L783.1 236.1L783.1 238.2L786.9 238.2Q788.4 238.2 789.3 239.1Q790.3 240.0 790.3 241.6Q790.3 243.1 789.3 244.0Q788.4 244.9 786.9 244.9L786.9 244.9L783.3 244.9L783.3 267.5Q783.3 269.8 782.1 271.0ZM822.0 267.6Q817.6 272.3 809.9 272.3Q802.3 272.3 797.8 267.6Q793.3 263.0 793.3 254.8L793.3 254.8Q793.3 246.7 797.8 242.0Q802.3 237.3 809.9 237.3L809.9 237.3Q817.5 237.3 822 242.0Q826.5 246.7 826.5 254.8L826.5 254.8Q826.5 263.0 822.0 267.6ZM809.9 265.3L809.9 265.3Q813.3 265.3 815.3 262.6Q817.2 259.8 817.2 254.8L817.2 254.8Q817.2 249.9 815.3 247.1Q813.3 244.3 809.9 244.3Q806.5 244.3 804.5 247.1Q802.6 249.9 802.6 254.8L802.6 254.8Q802.6 259.8 804.5 262.6Q806.5 265.3 809.9 265.3ZM835.8 272.2L835.8 272.2Q833.7 272.2 832.4 271.0Q831.2 269.7 831.2 267.5L831.2 267.5L831.2 242.0Q831.2 239.8 832.4 238.6Q833.6 237.4 835.6 237.4L835.6 237.4Q837.5 237.4 838.7 238.6Q839.9 239.8 839.9 242.0L839.9 242.0L839.9 244.1L840.1 244.1Q840.8 241.1 842.6 239.3Q844.5 237.5 847.1 237.5L847.1 237.5Q848.9 237.5 849.9 238.4L849.9 238.4Q851.2 239.4 851.2 241.7L851.2 241.7Q851.2 243.9 849.9 245.0L849.9 245.0Q848.6 246.2 845.9 246.2L845.9 246.2Q842.9 246.2 841.6 247.8Q840.3 249.5 840.3 252.6L840.3 252.6L840.3 267.5Q840.3 269.7 839.1 271.0Q837.9 272.2 835.8 272.2Z M78.8 345.7L78.8 345.7Q76.6 345.7 75.3 344.5Q74.0 343.3 74.0 341.3L74.0 341.3Q74.0 340.1 74.6 338.3L74.6 338.3L86.9 304.8Q87.9 302.0 89.6 300.7Q91.3 299.4 94 299.4L94 299.4Q96.8 299.4 98.5 300.7Q100.2 302.0 101.2 304.7L101.2 304.7L113.6 338.3Q114.2 340.0 114.2 341.3L114.2 341.3Q114.2 343.2 112.9 344.5Q111.5 345.7 109.5 345.7L109.5 345.7Q107.5 345.7 106.3 344.8Q105.2 343.8 104.6 341.6L104.6 341.6L102.2 334.5L85.9 334.5L83.5 341.5Q82.9 343.7 81.8 344.7Q80.6 345.7 78.8 345.7ZM93.8 308.7L88.0 327.2L100 327.2L94.0 308.7L93.8 308.7ZM131.6 345.7L131.6 345.7Q125.3 345.7 121.6 341.0Q117.9 336.4 117.9 328.3L117.9 328.3Q117.9 320.4 121.6 315.7Q125.3 311.1 131.6 311.1L131.6 311.1Q135.2 311.1 137.9 312.8Q140.6 314.6 141.8 317.4L141.8 317.4L142.0 317.4L142.0 304.2Q142.0 301.9 143.3 300.6Q144.5 299.4 146.6 299.4Q148.7 299.4 149.9 300.6Q151.2 301.9 151.2 304.2L151.2 304.2L151.2 341.2Q151.2 343.4 149.9 344.6Q148.7 345.8 146.6 345.8L146.6 345.8Q144.6 345.8 143.3 344.6Q142.0 343.4 142.0 341.2L142.0 341.2L142.0 339.2L141.9 339.2Q140.8 342.2 138.0 343.9Q135.3 345.7 131.6 345.7ZM134.7 338.3L134.7 338.3Q138.1 338.3 140.1 335.7Q142.1 333.0 142.1 328.4L142.1 328.4Q142.1 323.8 140.1 321.1Q138.1 318.4 134.7 318.4L134.7 318.4Q131.2 318.4 129.2 321.1Q127.3 323.8 127.3 328.4L127.3 328.4Q127.3 333.0 129.2 335.7Q131.2 338.3 134.7 338.3ZM171.3 345.8L171.3 345.8Q168.7 345.8 167.2 344.7Q165.7 343.6 164.7 341.2L164.7 341.2L156 317.8Q155.5 316.3 155.5 315.1L155.5 315.1Q155.5 313.2 156.8 312.1Q158.1 311.0 160.1 311.0L160.1 311.0Q163.4 311.0 164.4 314.6L164.4 314.6L171.2 337.1L171.4 337.1L178.2 314.5Q179.1 311.0 182.5 311.0L182.5 311.0Q184.4 311.0 185.6 312.1Q186.9 313.3 186.9 315.0L186.9 315.0Q186.9 316.2 186.4 317.6L186.4 317.6L177.7 341.2Q176.8 343.6 175.3 344.7Q173.8 345.8 171.3 345.8ZM200.9 345.7L200.9 345.7Q196.1 345.7 192.9 342.8Q189.7 340.0 189.7 335.5L189.7 335.5Q189.7 331.0 193.1 328.4Q196.5 325.8 202.8 325.4L202.8 325.4L211.2 324.9L211.2 322.7Q211.2 320.4 209.7 319.1Q208.2 317.7 205.6 317.7L205.6 317.7Q203.5 317.7 202.1 318.5Q200.6 319.3 199.1 321.3L199.1 321.3Q197.6 323.0 195.5 323.0L195.5 323.0Q193.8 323.0 192.7 322.0Q191.7 321.0 191.7 319.5L191.7 319.5Q191.7 318.4 192.1 317.4L192.1 317.4Q193.3 314.4 197.0 312.7Q200.8 310.9 206 310.9L206 310.9Q212.4 310.9 216.3 314.0Q220.2 317.1 220.2 322.1L220.2 322.1L220.2 341.2Q220.2 343.4 219.0 344.6Q217.8 345.8 215.8 345.8L215.8 345.8Q213.8 345.8 212.7 344.8Q211.5 343.7 211.4 341.7L211.4 341.7L211.4 340.0L211.2 340.0Q209.8 342.7 207.0 344.2Q204.2 345.7 200.9 345.7ZM203.9 339.1L203.9 339.1Q207.0 339.1 209.1 337.3Q211.2 335.6 211.2 332.9L211.2 332.9L211.2 330.4L204.2 330.9Q201.6 331.1 200.2 332.2Q198.8 333.2 198.8 335.0L198.8 335.0Q198.8 336.9 200.2 338.0Q201.6 339.1 203.9 339.1ZM233.9 344.6Q232.7 345.8 230.6 345.8Q228.6 345.8 227.3 344.6Q226.1 343.3 226.1 341.1L226.1 341.1L226.1 315.6Q226.1 313.4 227.2 312.2Q228.4 311.0 230.5 311.0Q232.5 311.0 233.8 312.2Q235.0 313.5 235.0 315.6L235.0 315.6L235.0 317.5L235.2 317.5Q238.0 311.0 245.5 311.0L245.5 311.0Q251.1 311.0 254.1 314.3Q257.2 317.7 257.2 323.6L257.2 323.6L257.2 341.1Q257.2 343.3 255.9 344.6Q254.7 345.8 252.6 345.8Q250.5 345.8 249.3 344.6Q248.0 343.3 248.0 341.1L248.0 341.1L248.0 325.5Q248.0 322.2 246.5 320.4Q244.9 318.6 241.9 318.6Q238.8 318.6 237.0 320.6Q235.2 322.7 235.2 325.9L235.2 325.9L235.2 341.1Q235.2 343.3 233.9 344.6ZM278.2 345.9L278.2 345.9Q270.6 345.9 266.2 341.2Q261.7 336.5 261.7 328.4L261.7 328.4Q261.7 320.4 266.2 315.7Q270.6 310.9 278.2 310.9L278.2 310.9Q283.2 310.9 287.0 313.1Q290.9 315.3 292.3 318.9L292.3 318.9Q292.8 320.2 292.8 321.2L292.8 321.2Q292.8 322.8 291.7 323.8Q290.6 324.7 288.9 324.7L288.9 324.7Q287.5 324.7 286.6 324.2Q285.8 323.6 285.0 322.4L285.0 322.4Q282.6 318.1 278.4 318.1L278.4 318.1Q275.0 318.1 273.0 320.8Q271.0 323.5 271.0 328.4L271.0 328.4Q271.0 333.3 273.0 336.0Q274.9 338.7 278.4 338.7L278.4 338.7Q282.6 338.7 284.9 334.8L284.9 334.8Q285.9 333.3 286.8 332.7Q287.7 332.1 289.1 332.1L289.1 332.1Q290.7 332.1 291.8 333.1Q292.9 334.1 292.9 335.7L292.9 335.7Q292.9 336.8 292.3 338.1L292.3 338.1Q290.8 341.6 286.9 343.7Q283 345.9 278.2 345.9ZM313.2 345.9L313.2 345.9Q305.4 345.9 301.0 341.3Q296.6 336.7 296.6 328.6L296.6 328.6Q296.6 320.5 301.0 315.7Q305.3 310.9 312.8 310.9L312.8 310.9Q319.9 310.9 324.3 315.3Q328.7 319.7 328.7 326.5L328.7 326.5Q328.7 328.4 327.6 329.5Q326.6 330.5 324.7 330.5L324.7 330.5L305.6 330.5L305.6 330.9Q305.6 334.6 307.6 336.9Q309.7 339.1 313.2 339.1L313.2 339.1Q315.7 339.1 317.5 338.2Q319.3 337.3 321.2 335.1L321.2 335.1Q322.5 333.7 324.2 333.7L324.2 333.7Q325.7 333.7 326.7 334.7Q327.7 335.6 327.7 337.1L327.7 337.1Q327.7 338.2 327.1 339.3L327.1 339.3Q325.4 342.4 321.8 344.1Q318.1 345.9 313.2 345.9ZM305.7 324.9L305.7 324.9L319.9 324.9Q319.8 321.6 317.8 319.7Q315.9 317.7 312.9 317.7Q309.9 317.7 307.9 319.7Q305.9 321.7 305.7 324.9ZM345.8 345.7L345.8 345.7Q339.5 345.7 335.8 341.0Q332.1 336.4 332.1 328.3L332.1 328.3Q332.1 320.4 335.8 315.7Q339.5 311.1 345.8 311.1L345.8 311.1Q349.4 311.1 352.1 312.8Q354.8 314.6 356.1 317.4L356.1 317.4L356.3 317.4L356.3 304.2Q356.3 301.9 357.5 300.6Q358.8 299.4 360.8 299.4Q362.9 299.4 364.1 300.6Q365.4 301.9 365.4 304.2L365.4 304.2L365.4 341.2Q365.4 343.4 364.1 344.6Q362.9 345.8 360.8 345.8L360.8 345.8Q358.8 345.8 357.5 344.6Q356.3 343.4 356.3 341.2L356.3 341.2L356.3 339.2L356.1 339.2Q355.0 342.2 352.3 343.9Q349.5 345.7 345.8 345.7ZM348.9 338.3L348.9 338.3Q352.3 338.3 354.3 335.7Q356.3 333.0 356.3 328.4L356.3 328.4Q356.3 323.8 354.3 321.1Q352.3 318.4 348.9 318.4L348.9 318.4Q345.4 318.4 343.5 321.1Q341.5 323.8 341.5 328.4L341.5 328.4Q341.5 333.0 343.5 335.7Q345.4 338.3 348.9 338.3Z M393.1 344.5Q391.8 345.8 389.6 345.8Q387.4 345.8 386.2 344.5Q384.9 343.2 384.9 340.9L384.9 340.9L384.9 305.0Q384.9 302.7 386.2 301.4Q387.4 300.1 389.6 300.1L389.6 300.1L403.4 300.1Q411.1 300.1 415.4 303.9Q419.7 307.7 419.7 314.4L419.7 314.4Q419.7 318.7 417.7 322.1Q415.6 325.4 411.9 327.0L411.9 327.0L418.4 338.2Q419.4 340.0 419.4 341.5L419.4 341.5Q419.4 343.4 418.1 344.6Q416.8 345.8 414.7 345.8L414.7 345.8Q413 345.8 412.0 345.1Q411.0 344.3 409.9 342.2L409.9 342.2L402.4 328.7L394.3 328.7L394.3 340.9Q394.3 343.2 393.1 344.5ZM394.3 307.4L394.3 321.8L402.5 321.8Q406.0 321.8 408.0 319.9Q410 318.0 410 314.6L410 314.6Q410 311.3 407.9 309.4Q405.9 307.4 402.4 307.4L402.4 307.4L394.3 307.4ZM452.6 341.2Q448.1 345.9 440.5 345.9Q432.8 345.9 428.3 341.2Q423.9 336.6 423.9 328.4L423.9 328.4Q423.9 320.3 428.4 315.6Q432.9 310.9 440.5 310.9L440.5 310.9Q448.1 310.9 452.6 315.6Q457.1 320.3 457.1 328.4L457.1 328.4Q457.1 336.6 452.6 341.2ZM440.5 338.9L440.5 338.9Q443.8 338.9 445.8 336.2Q447.8 333.4 447.8 328.4L447.8 328.4Q447.8 323.5 445.8 320.7Q443.8 317.9 440.5 317.9Q437.1 317.9 435.1 320.7Q433.1 323.5 433.1 328.4L433.1 328.4Q433.1 333.4 435.1 336.2Q437.1 338.9 440.5 338.9ZM466.4 345.8L466.4 345.8Q464.4 345.8 463.2 344.6Q462.0 343.4 462.0 341.2L462.0 341.2L462.0 304.2Q462.0 301.9 463.2 300.6Q464.5 299.4 466.5 299.4Q468.6 299.4 469.8 300.6Q471.1 301.9 471.1 304.2L471.1 304.2L471.1 317.5L471.3 317.5Q472.7 314.5 475.4 312.8Q478.1 311.1 481.6 311.1L481.6 311.1Q488 311.1 491.6 315.7Q495.3 320.3 495.3 328.4Q495.3 336.5 491.6 341.1Q488 345.7 481.7 345.7L481.7 345.7Q478.0 345.7 475.3 344.0Q472.6 342.4 471.2 339.4L471.2 339.4L471.0 339.4L471.0 341.2Q471.0 343.4 469.7 344.6Q468.5 345.8 466.4 345.8ZM478.5 338.3L478.5 338.3Q481.9 338.3 483.9 335.7Q485.9 333.0 485.9 328.4L485.9 328.4Q485.9 323.8 483.9 321.1Q481.9 318.4 478.5 318.4L478.5 318.4Q475.2 318.4 473.1 321.2Q471.1 323.9 471.1 328.4L471.1 328.4Q471.1 332.9 473.1 335.6Q475.2 338.3 478.5 338.3ZM527.5 341.2Q523 345.9 515.3 345.9Q507.7 345.9 503.2 341.2Q498.8 336.6 498.8 328.4L498.8 328.4Q498.8 320.3 503.3 315.6Q507.8 310.9 515.3 310.9L515.3 310.9Q522.9 310.9 527.4 315.6Q531.9 320.3 531.9 328.4L531.9 328.4Q531.9 336.6 527.5 341.2ZM515.3 338.9L515.3 338.9Q518.7 338.9 520.7 336.2Q522.7 333.4 522.7 328.4L522.7 328.4Q522.7 323.5 520.7 320.7Q518.7 317.9 515.3 317.9Q512.0 317.9 510.0 320.7Q508 323.5 508 328.4L508 328.4Q508 333.4 510.0 336.2Q511.9 338.9 515.3 338.9ZM539.1 336.6L539.1 336.6L539.1 318.5L537.3 318.5Q535.7 318.5 534.7 317.6Q533.8 316.7 533.8 315.1Q533.8 313.5 534.7 312.6Q535.7 311.7 537.3 311.7L537.3 311.7L539.1 311.7L539.1 307.9Q539.1 305.7 540.3 304.4Q541.5 303.2 543.6 303.2Q545.8 303.2 547.0 304.4Q548.2 305.7 548.2 307.9L548.2 307.9L548.2 311.7L551.4 311.7Q553.0 311.7 554.0 312.6Q554.9 313.5 554.9 315.1Q554.9 316.7 554.0 317.6Q553.0 318.5 551.4 318.5L551.4 318.5L548.2 318.5L548.2 334.6Q548.2 336.3 548.8 337.2Q549.5 338.0 551.0 338.1L551.0 338.1L551.6 338.2Q553.3 338.3 554.2 339.1Q555.0 339.9 555.0 341.5L555.0 341.5Q555.0 343.4 553.3 344.5Q551.5 345.5 548.6 345.5L548.6 345.5L548.3 345.5Q539.1 345.5 539.1 336.6ZM567.6 306.1Q566.2 307.5 564.1 307.5Q562.0 307.5 560.6 306.1Q559.2 304.7 559.2 302.8L559.2 302.8Q559.2 300.8 560.6 299.4Q562.0 298.1 564.1 298.1Q566.2 298.1 567.6 299.4Q569.0 300.8 569.0 302.8L569.0 302.8Q569.0 304.7 567.6 306.1ZM567.4 344.5Q566.2 345.8 564.1 345.8Q562.0 345.8 560.8 344.5Q559.5 343.3 559.5 341.1L559.5 341.1L559.5 315.7Q559.5 313.5 560.8 312.2Q562.0 311.0 564.1 311.0Q566.2 311.0 567.4 312.2Q568.7 313.5 568.7 315.7L568.7 315.7L568.7 341.1Q568.7 343.3 567.4 344.5ZM590 345.9L590 345.9Q582.4 345.9 578.0 341.2Q573.5 336.5 573.5 328.4L573.5 328.4Q573.5 320.4 577.9 315.7Q582.4 310.9 589.9 310.9L589.9 310.9Q594.9 310.9 598.8 313.1Q602.7 315.3 604.1 318.9L604.1 318.9Q604.6 320.2 604.6 321.2L604.6 321.2Q604.6 322.8 603.5 323.8Q602.3 324.7 600.7 324.7L600.7 324.7Q599.3 324.7 598.4 324.2Q597.5 323.6 596.8 322.4L596.8 322.4Q594.4 318.1 590.2 318.1L590.2 318.1Q586.8 318.1 584.8 320.8Q582.8 323.5 582.8 328.4L582.8 328.4Q582.8 333.3 584.7 336.0Q586.7 338.7 590.2 338.7L590.2 338.7Q594.4 338.7 596.7 334.8L596.7 334.8Q597.7 333.3 598.6 332.7Q599.5 332.1 600.9 332.1L600.9 332.1Q602.5 332.1 603.6 333.1Q604.7 334.1 604.7 335.7L604.7 335.7Q604.7 336.8 604.1 338.1L604.1 338.1Q602.6 341.6 598.7 343.7Q594.8 345.9 590 345.9Z M626.0 345.7L626.0 345.7Q623.8 345.7 622.5 344.5Q621.3 343.3 621.3 341.3L621.3 341.3Q621.3 340.1 621.9 338.3L621.9 338.3L634.2 304.8Q635.2 302.0 636.9 300.7Q638.6 299.4 641.3 299.4L641.3 299.4Q644.0 299.4 645.8 300.7Q647.5 302.0 648.5 304.7L648.5 304.7L660.9 338.3Q661.5 340.0 661.5 341.3L661.5 341.3Q661.5 343.2 660.1 344.5Q658.8 345.7 656.8 345.7L656.8 345.7Q654.8 345.7 653.6 344.8Q652.5 343.8 651.8 341.6L651.8 341.6L649.5 334.5L633.2 334.5L630.8 341.5Q630.2 343.7 629.0 344.7Q627.9 345.7 626.0 345.7ZM641.1 308.7L635.3 327.2L647.3 327.2L641.3 308.7L641.1 308.7ZM671.0 345.8L671.0 345.8Q668.9 345.8 667.6 344.6Q666.4 343.3 666.4 341.1L666.4 341.1L666.4 315.6Q666.4 313.4 667.6 312.2Q668.8 311.0 670.8 311.0L670.8 311.0Q672.8 311.0 673.9 312.2Q675.1 313.4 675.1 315.6L675.1 315.6L675.1 317.7L675.3 317.7Q676.0 314.7 677.9 312.9Q679.8 311.1 682.3 311.1L682.3 311.1Q684.1 311.1 685.1 312.0L685.1 312.0Q686.4 313.0 686.4 315.3L686.4 315.3Q686.4 317.5 685.1 318.6L685.1 318.6Q683.8 319.8 681.2 319.8L681.2 319.8Q678.2 319.8 676.8 321.4Q675.5 323.1 675.5 326.2L675.5 326.2L675.5 341.1Q675.5 343.3 674.3 344.6Q673.1 345.8 671.0 345.8ZM705.0 345.9L705.0 345.9Q697.4 345.9 692.9 341.2Q688.5 336.5 688.5 328.4L688.5 328.4Q688.5 320.4 692.9 315.7Q697.3 310.9 704.9 310.9L704.9 310.9Q709.9 310.9 713.8 313.1Q717.7 315.3 719.0 318.9L719.0 318.9Q719.5 320.2 719.5 321.2L719.5 321.2Q719.5 322.8 718.4 323.8Q717.3 324.7 715.6 324.7L715.6 324.7Q714.3 324.7 713.4 324.2Q712.5 323.6 711.8 322.4L711.8 322.4Q709.4 318.1 705.2 318.1L705.2 318.1Q701.7 318.1 699.7 320.8Q697.7 323.5 697.7 328.4L697.7 328.4Q697.7 333.3 699.7 336.0Q701.7 338.7 705.1 338.7L705.1 338.7Q709.3 338.7 711.7 334.8L711.7 334.8Q712.6 333.3 713.5 332.7Q714.4 332.1 715.8 332.1L715.8 332.1Q717.5 332.1 718.6 333.1Q719.7 334.1 719.7 335.7L719.7 335.7Q719.7 336.8 719.1 338.1L719.1 338.1Q717.6 341.6 713.7 343.7Q709.8 345.9 705.0 345.9ZM732.7 344.6Q731.4 345.8 729.3 345.8Q727.3 345.8 726.0 344.6Q724.8 343.3 724.8 341.1L724.8 341.1L724.8 304.1Q724.8 301.9 726.0 300.6Q727.2 299.4 729.3 299.4L729.3 299.4Q731.4 299.4 732.6 300.6Q733.8 301.8 733.8 304.1L733.8 304.1L733.8 317.6L733.9 317.6Q735.3 314.4 738.0 312.7Q740.7 311.0 744.5 311.0L744.5 311.0Q750 311.0 753.1 314.4Q756.2 317.7 756.2 323.6L756.2 323.6L756.2 341.1Q756.2 343.3 754.9 344.6Q753.7 345.8 751.6 345.8Q749.5 345.8 748.3 344.6Q747.0 343.3 747.0 341.1L747.0 341.1L747.0 325.5Q747.0 322.2 745.4 320.4Q743.8 318.6 740.8 318.6L740.8 318.6Q737.6 318.6 735.7 320.6Q733.9 322.7 733.9 326.0L733.9 326.0L733.9 341.1Q733.9 343.3 732.7 344.6ZM770.2 306.1Q768.8 307.5 766.7 307.5Q764.6 307.5 763.2 306.1Q761.8 304.7 761.8 302.8L761.8 302.8Q761.8 300.8 763.2 299.4Q764.6 298.1 766.7 298.1Q768.8 298.1 770.2 299.4Q771.6 300.8 771.6 302.8L771.6 302.8Q771.6 304.7 770.2 306.1ZM770.0 344.5Q768.8 345.8 766.7 345.8Q764.6 345.8 763.3 344.5Q762.1 343.3 762.1 341.1L762.1 341.1L762.1 315.7Q762.1 313.5 763.3 312.2Q764.6 311.0 766.7 311.0Q768.8 311.0 770.0 312.2Q771.3 313.5 771.3 315.7L771.3 315.7L771.3 341.1Q771.3 343.3 770.0 344.5ZM779.8 336.6L779.8 336.6L779.8 318.5L778 318.5Q776.4 318.5 775.4 317.6Q774.5 316.7 774.5 315.1Q774.5 313.5 775.4 312.6Q776.4 311.7 778 311.7L778 311.7L779.8 311.7L779.8 307.9Q779.8 305.7 781.0 304.4Q782.2 303.2 784.3 303.2Q786.4 303.2 787.7 304.4Q788.9 305.7 788.9 307.9L788.9 307.9L788.9 311.7L792.1 311.7Q793.7 311.7 794.7 312.6Q795.6 313.5 795.6 315.1Q795.6 316.7 794.7 317.6Q793.7 318.5 792.1 318.5L792.1 318.5L788.9 318.5L788.9 334.6Q788.9 336.3 789.5 337.2Q790.2 338.0 791.7 338.1L791.7 338.1L792.3 338.2Q794 338.3 794.9 339.1Q795.7 339.9 795.7 341.5L795.7 341.5Q795.7 343.4 794.0 344.5Q792.2 345.5 789.3 345.5L789.3 345.5L788.9 345.5Q779.8 345.5 779.8 336.6ZM815.5 345.9L815.5 345.9Q807.6 345.9 803.2 341.3Q798.8 336.7 798.8 328.6L798.8 328.6Q798.8 320.5 803.2 315.7Q807.6 310.9 815.0 310.9L815.0 310.9Q822.1 310.9 826.5 315.3Q830.9 319.7 830.9 326.5L830.9 326.5Q830.9 328.4 829.9 329.5Q828.8 330.5 826.9 330.5L826.9 330.5L807.8 330.5L807.8 330.9Q807.8 334.6 809.9 336.9Q812.0 339.1 815.4 339.1L815.4 339.1Q817.9 339.1 819.8 338.2Q821.6 337.3 823.4 335.1L823.4 335.1Q824.8 333.7 826.4 333.7L826.4 333.7Q827.9 333.7 829.0 334.7Q830.0 335.6 830.0 337.1L830.0 337.1Q830.0 338.2 829.3 339.3L829.3 339.3Q827.7 342.4 824 344.1Q820.3 345.9 815.5 345.9ZM807.9 324.9L807.9 324.9L822.1 324.9Q822 321.6 820.1 319.7Q818.1 317.7 815.1 317.7Q812.1 317.7 810.1 319.7Q808.2 321.7 807.9 324.9ZM850.9 345.9L850.9 345.9Q843.3 345.9 838.8 341.2Q834.4 336.5 834.4 328.4L834.4 328.4Q834.4 320.4 838.8 315.7Q843.3 310.9 850.8 310.9L850.8 310.9Q855.8 310.9 859.7 313.1Q863.6 315.3 864.9 318.9L864.9 318.9Q865.4 320.2 865.4 321.2L865.4 321.2Q865.4 322.8 864.3 323.8Q863.2 324.7 861.5 324.7L861.5 324.7Q860.2 324.7 859.3 324.2Q858.4 323.6 857.7 322.4L857.7 322.4Q855.3 318.1 851.1 318.1L851.1 318.1Q847.6 318.1 845.6 320.8Q843.6 323.5 843.6 328.4L843.6 328.4Q843.6 333.3 845.6 336.0Q847.6 338.7 851.0 338.7L851.0 338.7Q855.3 338.7 857.6 334.8L857.6 334.8Q858.5 333.3 859.4 332.7Q860.3 332.1 861.8 332.1L861.8 332.1Q863.4 332.1 864.5 333.1Q865.6 334.1 865.6 335.7L865.6 335.7Q865.6 336.8 865 338.1L865 338.1Q863.5 341.6 859.6 343.7Q855.7 345.9 850.9 345.9ZM872.9 336.6L872.9 336.6L872.9 318.5L871.2 318.5Q869.5 318.5 868.6 317.6Q867.6 316.7 867.6 315.1Q867.6 313.5 868.6 312.6Q869.5 311.7 871.2 311.7L871.2 311.7L872.9 311.7L872.9 307.9Q872.9 305.7 874.1 304.4Q875.3 303.2 877.5 303.2Q879.6 303.2 880.8 304.4Q882.0 305.7 882.0 307.9L882.0 307.9L882.0 311.7L885.3 311.7Q886.9 311.7 887.8 312.6Q888.8 313.5 888.8 315.1Q888.8 316.7 887.8 317.6Q886.9 318.5 885.3 318.5L885.3 318.5L882.0 318.5L882.0 334.6Q882.0 336.3 882.7 337.2Q883.3 338.0 884.8 338.1L884.8 338.1L885.4 338.2Q887.2 338.3 888.0 339.1Q888.9 339.9 888.9 341.5L888.9 341.5Q888.9 343.4 887.1 344.5Q885.4 345.5 882.4 345.5L882.4 345.5L882.1 345.5Q872.9 345.5 872.9 336.6ZM905.1 345.8L905.1 345.8Q899.6 345.8 896.3 342.4Q893.1 339.1 893.1 333.2L893.1 333.2L893.1 315.7Q893.1 313.5 894.3 312.2Q895.6 311.0 897.6 311.0Q899.7 311.0 900.9 312.2Q902.2 313.5 902.2 315.7L902.2 315.7L902.2 331.3Q902.2 334.7 903.8 336.4Q905.4 338.2 908.4 338.2Q911.5 338.2 913.3 336.2Q915.0 334.2 915.0 330.8L915.0 330.8L915.0 315.7Q915.0 313.5 916.3 312.2Q917.5 311.0 919.6 311.0Q921.7 311.0 922.9 312.2Q924.2 313.5 924.2 315.7L924.2 315.7L924.2 341.2Q924.2 343.4 923.0 344.6Q921.8 345.8 919.8 345.8Q917.7 345.8 916.5 344.6Q915.3 343.4 915.3 341.2L915.3 341.2L915.3 339.1L915.2 339.1Q912.5 345.8 905.1 345.8ZM934.7 345.8L934.7 345.8Q932.6 345.8 931.3 344.6Q930.1 343.3 930.1 341.1L930.1 341.1L930.1 315.6Q930.1 313.4 931.3 312.2Q932.5 311.0 934.5 311.0L934.5 311.0Q936.4 311.0 937.6 312.2Q938.8 313.4 938.8 315.6L938.8 315.6L938.8 317.7L939 317.7Q939.7 314.7 941.5 312.9Q943.4 311.1 946.0 311.1L946.0 311.1Q947.8 311.1 948.8 312.0L948.8 312.0Q950.1 313.0 950.1 315.3L950.1 315.3Q950.1 317.5 948.8 318.6L948.8 318.6Q947.5 319.8 944.8 319.8L944.8 319.8Q941.8 319.8 940.5 321.4Q939.2 323.1 939.2 326.2L939.2 326.2L939.2 341.1Q939.2 343.3 938 344.6Q936.8 345.8 934.7 345.8ZM968.8 345.9L968.8 345.9Q960.9 345.9 956.5 341.3Q952.2 336.7 952.2 328.6L952.2 328.6Q952.2 320.5 956.5 315.7Q960.9 310.9 968.3 310.9L968.3 310.9Q975.4 310.9 979.8 315.3Q984.2 319.7 984.2 326.5L984.2 326.5Q984.2 328.4 983.2 329.5Q982.2 330.5 980.3 330.5L980.3 330.5L961.1 330.5L961.1 330.9Q961.1 334.6 963.2 336.9Q965.3 339.1 968.8 339.1L968.8 339.1Q971.3 339.1 973.1 338.2Q974.9 337.3 976.8 335.1L976.8 335.1Q978.1 333.7 979.7 333.7L979.7 333.7Q981.3 333.7 982.3 334.7Q983.3 335.6 983.3 337.1L983.3 337.1Q983.3 338.2 982.7 339.3L982.7 339.3Q981 342.4 977.3 344.1Q973.6 345.9 968.8 345.9ZM961.2 324.9L961.2 324.9L975.4 324.9Q975.3 321.6 973.4 319.7Q971.4 317.7 968.4 317.7Q965.4 317.7 963.5 319.7Q961.5 321.7 961.2 324.9ZM1002.6 345.9L1002.6 345.9Q996.9 345.9 993.2 344.0Q989.4 342.2 988.2 339.2L988.2 339.2Q987.8 338.2 987.8 337.5L987.8 337.5Q987.8 335.9 988.9 335.0Q989.9 334.0 991.5 334.0L991.5 334.0Q993.6 334.0 995.5 336.1L995.5 336.1Q996.8 337.8 998.5 338.7Q1000.2 339.5 1002.8 339.5L1002.8 339.5Q1005.3 339.5 1006.8 338.5Q1008.3 337.5 1008.3 335.9L1008.3 335.9Q1008.3 334.5 1007.3 333.7Q1006.3 332.9 1003.8 332.4L1003.8 332.4L998.2 331.2Q993.3 330.1 990.8 327.7Q988.3 325.2 988.3 321.5L988.3 321.5Q988.3 316.7 992.2 313.8Q996.0 310.9 1002.5 310.9L1002.5 310.9Q1007.6 310.9 1011.2 312.9Q1014.8 314.9 1015.7 317.9L1015.7 317.9Q1015.9 318.7 1015.9 319.2L1015.9 319.2Q1015.9 320.7 1015.0 321.5Q1014.1 322.3 1012.4 322.3L1012.4 322.3Q1010.3 322.3 1009.1 320.9L1009.1 320.9Q1007.7 319.2 1006.2 318.3Q1004.7 317.3 1002.4 317.3L1002.4 317.3Q1000.1 317.3 998.6 318.3Q997.1 319.3 997.1 321.0L997.1 321.0Q997.1 322.3 998.2 323.2Q999.3 324.1 1001.8 324.6L1001.8 324.6L1007.3 325.8Q1012.7 326.9 1015.0 329.0Q1017.4 331.2 1017.4 334.9L1017.4 334.9Q1017.4 339.9 1013.3 342.9Q1009.2 345.9 1002.6 345.9Z " clip-path="url(#satori_cp-id-0)" mask="url(#satori_om-id-0)"/><defs><clipPath id="satori_bc-id-0-1" clip-path="url(#satori_cp-id-0)"><rect x="0" y="509" width="1200" height="121"/></clipPath></defs><mask id="satori_om-id-0-1"><rect x="0" y="510" width="1200" height="120" fill="#fff" mask="url(#satori_om-id-0)"/><path width="1200" height="121" fill="none" stroke="#000" stroke-width="2" d="M0,509 A0,0 0 0 1 0,509 h1200 A0,0 0 0 1 1200,509"/></mask><path width="1200" height="121" clip-path="url(#satori_bc-id-0-1)" fill="none" stroke="rgba(0,0,0,0.08)" stroke-width="2" d="M0,509 A0,0 0 0 1 0,509 h1200 A0,0 0 0 1 1200,509"/><mask id="satori_om-id-0-1-0"><rect x="48" y="538" width="228" height="64" fill="#fff" mask="url(#satori_om-id-0)"/></mask><mask id="satori_om-id-0-1-0-0"><rect x="48" y="538" width="72" height="64" fill="#fff" mask="url(#satori_om-id-0)"/></mask><clipPath id="satori_cp-id-0-1-0-0-0" clip-path="url(#satori_cp-id-0)"><rect x="48" y="538" width="72" height="64"/></clipPath><mask id="satori_om-id-0-1-0-0-0"><rect x="48" y="538" width="72" height="64" fill="#fff" mask="url(#satori_om-id-0)"/></mask><image x="48" y="538" width="72" height="64" href="data:image/svg+xml;utf8,%3Csvg  xmlns=%22http://www.w3.org/2000/svg%22 width=%2273.60461760461762%22 height=%2264%22 viewBox=%220 0 797 693%22%3E%3Cg transform=%22matrix(1,0,0,1,-345,-96.5)%22%3E%3Cpath d=%22M756.942,197.15L756.942,474C701.751,474 656.942,518.808 656.942,574C656.942,629.192 701.751,674 756.942,674L756.942,777L495.122,777C443.175,777 401,734.825 401,682.878L401,614L364.755,614C353.852,614 345,605.148 345,594.245L345,436.814C345,425.878 353.878,417 364.814,417L401,417L401,365.122C401,313.175 443.175,271 495.122,271L715.058,271L715.058,197.15C696.492,189.056 683.5,170.533 683.5,149C683.5,120.024 707.024,96.5 736,96.5C764.976,96.5 788.5,120.024 788.5,149C788.5,170.533 775.508,189.056 756.942,197.15ZM559,388C520.918,388 490,418.918 490,457C490,495.082 520.918,526 559,526C597.082,526 628,495.082 628,457C628,418.918 597.082,388 559,388Z%22 fill=%22%23ad47ff%22%3E%3C/path%3E%3Cg transform=%22matrix(-1,1.22465e-16,-1.22465e-16,-1,1486.06,1043)%22%3E%3Cpath d=%22M401,417L401,348.122C401,296.175 443.175,254 495.122,254L705.058,254L705.058,357C760.249,357 805.058,401.808 805.058,457C805.058,512.192 760.249,557 705.058,557L705.058,760L495.122,760C443.175,760 401,717.825 401,665.878L401,614L364.755,614C353.852,614 345,605.148 345,594.245L345,436.814C345,425.878 353.878,417 364.814,417L401,417ZM552,643C590.082,643 621,612.082 621,574C621,535.918 590.082,505 552,505C513.918,505 483,535.918 483,574C483,612.082 513.918,643 552,643Z%22 fill=%22%2300d5bd%22%3E%3C/path%3E%3C/g%3E%3C/g%3E%3C/svg%3E" preserveAspectRatio="none" clip-path="url(#satori_cp-id-0-1-0-0-0)" mask="url(#satori_om-id-0-1-0-0-0)"/><mask id="satori_om-id-0-1-0-0-0-0"><rect x="48" y="538" width="0" height="64" fill="#fff" mask="url(#satori_om-id-0)"/></mask><mask id="satori_om-id-0-1-0-0-0-0-0"><rect x="48" y="538" width="0" height="64" fill="#fff" mask="url(#satori_om-id-0)"/></mask><mask id="satori_om-id-0-1-0-0-0-0-1"><rect x="48" y="538" width="0" height="64" fill="#fff" mask="url(#satori_om-id-0)"/></mask><mask id="satori_om-id-0-1-0-0-0-0-1-0"><rect x="48" y="538" width="0" height="64" fill="#fff" mask="url(#satori_om-id-0)"/></mask><mask id="satori_om-id-0-1-0-1"><rect x="138" y="540" width="138" height="60" fill="#fff" mask="url(#satori_om-id-0)"/></mask><mask id="satori_om-id-0-1-0-1-0"><rect x="138" y="540" width="138" height="36" fill="#fff" mask="url(#satori_om-id-0)"/></mask><path fill="#0f172a" d="M150.7 571.2L150.7 571.2Q145.9 571.2 143.0 568.6Q140.1 566.1 140.1 561.8L140.1 561.8L140.1 547.9Q140.1 546.5 140.8 545.8Q141.5 545.1 142.8 545.1Q144.0 545.1 144.7 545.8Q145.4 546.5 145.4 547.9L145.4 547.9L145.4 561.3Q145.4 563.8 146.8 565.2Q148.2 566.7 150.7 566.7L150.7 566.7Q153.3 566.7 154.7 565.2Q156.1 563.8 156.1 561.3L156.1 561.3L156.1 547.9Q156.1 546.5 156.8 545.8Q157.5 545.1 158.7 545.1Q160.0 545.1 160.7 545.8Q161.4 546.5 161.4 547.9L161.4 547.9L161.4 561.8Q161.4 566.1 158.5 568.6Q155.6 571.2 150.7 571.2ZM170.2 570.4Q169.5 571.2 168.2 571.2Q167.0 571.2 166.3 570.4Q165.6 569.7 165.6 568.4L165.6 568.4L165.6 548.2Q165.6 546.9 166.3 546.2Q167.0 545.4 168.2 545.4L168.2 545.4L176.0 545.4Q180.3 545.4 182.7 547.6Q185.1 549.7 185.1 553.5L185.1 553.5Q185.1 555.9 184.0 557.8Q182.9 559.7 180.8 560.6L180.8 560.6L184.4 566.9Q185.0 567.9 185.0 568.7L185.0 568.7Q185.0 569.8 184.2 570.5Q183.5 571.2 182.3 571.2L182.3 571.2Q181.4 571.2 180.8 570.8Q180.3 570.3 179.6 569.2L179.6 569.2L175.4 561.5L170.9 561.5L170.9 568.4Q170.9 569.7 170.2 570.4ZM170.9 549.6L170.9 557.7L175.5 557.7Q177.5 557.7 178.6 556.6Q179.7 555.5 179.7 553.6L179.7 553.6Q179.7 551.8 178.5 550.7Q177.4 549.6 175.4 549.6L175.4 549.6L170.9 549.6ZM198.1 562.7L190.8 562.7Q189.7 562.7 189.1 562.1Q188.4 561.5 188.4 560.5Q188.4 559.4 189.1 558.8Q189.7 558.2 190.8 558.2L190.8 558.2L198.1 558.2Q199.2 558.2 199.9 558.8Q200.6 559.4 200.6 560.5Q200.6 561.5 199.9 562.1Q199.2 562.7 198.1 562.7L198.1 562.7ZM209.1 570.4Q208.4 571.2 207.2 571.2Q205.9 571.2 205.2 570.4Q204.5 569.7 204.5 568.4L204.5 568.4L204.5 548.2Q204.5 546.9 205.2 546.2Q205.9 545.4 207.2 545.4L207.2 545.4L214.9 545.4Q219.3 545.4 221.7 547.6Q224.1 549.7 224.1 553.5L224.1 553.5Q224.1 555.9 223.0 557.8Q221.8 559.7 219.7 560.6L219.7 560.6L223.4 566.9Q224.0 567.9 224.0 568.7L224.0 568.7Q224.0 569.8 223.2 570.5Q222.4 571.2 221.3 571.2L221.3 571.2Q220.3 571.2 219.8 570.8Q219.2 570.3 218.6 569.2L218.6 569.2L214.4 561.5L209.8 561.5L209.8 568.4Q209.8 569.7 209.1 570.4ZM209.8 549.6L209.8 557.7L214.4 557.7Q216.4 557.7 217.5 556.6Q218.6 555.5 218.6 553.6L218.6 553.6Q218.6 551.8 217.5 550.7Q216.3 549.6 214.4 549.6L214.4 549.6L209.8 549.6ZM229.3 571.1L229.3 571.1Q228.0 571.1 227.3 570.5Q226.6 569.8 226.6 568.6L226.6 568.6Q226.6 567.9 226.9 566.9L226.9 566.9L233.9 548.1Q234.4 546.5 235.4 545.8Q236.3 545.1 237.8 545.1L237.8 545.1Q239.4 545.1 240.4 545.8Q241.3 546.5 241.9 548.1L241.9 548.1L248.9 566.9Q249.2 567.9 249.2 568.6L249.2 568.6Q249.2 569.7 248.5 570.4Q247.7 571.1 246.5 571.1L246.5 571.1Q245.4 571.1 244.8 570.6Q244.1 570.0 243.8 568.8L243.8 568.8L242.4 564.8L233.3 564.8L232.0 568.7Q231.6 570.0 231.0 570.6Q230.3 571.1 229.3 571.1ZM237.7 550.3L234.5 560.7L241.2 560.7L237.9 550.3L237.7 550.3ZM262.1 570.8L255.1 570.8Q253.8 570.8 253.1 570.1Q252.4 569.3 252.4 568.0L252.4 568.0L252.4 548.2Q252.4 546.9 253.1 546.2Q253.8 545.4 255.1 545.4L255.1 545.4L262.1 545.4Q267.8 545.4 271.0 548.7Q274.2 552.0 274.2 558.0L274.2 558.0Q274.2 564.0 271.0 567.4Q267.8 570.8 262.1 570.8L262.1 570.8ZM257.7 549.8L257.7 566.4L261.5 566.4Q265.0 566.4 266.9 564.3Q268.8 562.1 268.8 558.0L268.8 558.0Q268.8 554.1 266.9 551.9Q265.0 549.8 261.5 549.8L261.5 549.8L257.7 549.8Z " clip-path="url(#satori_cp-id-0)" mask="url(#satori_om-id-0)"/><mask id="satori_om-id-0-1-0-1-1"><rect x="138" y="576" width="138" height="24" fill="#fff" mask="url(#satori_om-id-0)"/></mask><path fill="#334155" d="M145.0 595.3L145.0 595.3Q142.4 595.3 140.8 593.8Q139.2 592.4 139.2 590.1L139.2 590.1L139.2 582.1Q139.2 581.5 139.6 581.1Q139.9 580.8 140.5 580.8L140.5 580.8Q141.1 580.8 141.4 581.1Q141.8 581.5 141.8 582.1L141.8 582.1L141.8 589.8Q141.8 591.3 142.6 592.2Q143.5 593.1 145.0 593.1Q146.6 593.1 147.4 592.2Q148.3 591.3 148.3 589.8L148.3 589.8L148.3 582.1Q148.3 581.5 148.6 581.1Q149.0 580.8 149.6 580.8L149.6 580.8Q150.2 580.8 150.5 581.1Q150.8 581.5 150.8 582.1L150.8 582.1L150.8 590.1Q150.8 592.4 149.3 593.8Q147.7 595.3 145.0 595.3ZM155.5 594.9Q155.2 595.2 154.6 595.2Q154.0 595.2 153.6 594.9Q153.3 594.5 153.3 593.9L153.3 593.9L153.3 582.3Q153.3 581.6 153.6 581.3Q154.0 581.0 154.6 581.0L154.6 581.0L158.9 581.0Q161.2 581.0 162.5 582.1Q163.8 583.3 163.8 585.3L163.8 585.3Q163.8 586.7 163.1 587.8Q162.4 588.8 161.2 589.3L161.2 589.3L163.4 593.2Q163.7 593.7 163.7 594.1L163.7 594.1Q163.7 594.6 163.4 594.9Q163.0 595.2 162.4 595.2L162.4 595.2Q162.0 595.2 161.7 595.0Q161.5 594.8 161.2 594.3L161.2 594.3L158.7 589.7L155.8 589.7L155.8 593.9Q155.8 594.5 155.5 594.9ZM155.8 583.0L155.8 587.8L158.7 587.8Q159.9 587.8 160.5 587.2Q161.2 586.5 161.2 585.4L161.2 585.4Q161.2 584.3 160.5 583.6Q159.8 583.0 158.6 583.0L158.6 583.0L155.8 583.0ZM171.1 590.4L166.7 590.4Q166.2 590.4 165.9 590.1Q165.6 589.8 165.6 589.3Q165.6 588.8 165.9 588.5Q166.2 588.2 166.7 588.2L166.7 588.2L171.1 588.2Q171.7 588.2 172.0 588.5Q172.3 588.8 172.3 589.3Q172.3 589.8 172.0 590.1Q171.7 590.4 171.1 590.4L171.1 590.4ZM176.7 594.9Q176.4 595.2 175.8 595.2Q175.2 595.2 174.9 594.9Q174.6 594.5 174.6 593.9L174.6 593.9L174.6 582.3Q174.6 581.6 174.9 581.3Q175.2 581.0 175.8 581.0L175.8 581.0L180.1 581.0Q182.4 581.0 183.7 582.1Q185.0 583.3 185.0 585.3L185.0 585.3Q185.0 586.7 184.3 587.8Q183.7 588.8 182.5 589.3L182.5 589.3L184.7 593.2Q185.0 593.7 185.0 594.1L185.0 594.1Q185.0 594.6 184.6 594.9Q184.2 595.2 183.7 595.2L183.7 595.2Q183.2 595.2 183.0 595.0Q182.7 594.8 182.4 594.3L182.4 594.3L179.9 589.7L177.1 589.7L177.1 593.9Q177.1 594.5 176.7 594.9ZM177.1 583.0L177.1 587.8L179.9 587.8Q181.1 587.8 181.8 587.2Q182.4 586.5 182.4 585.4L182.4 585.4Q182.4 584.3 181.8 583.6Q181.1 583.0 179.9 583.0L179.9 583.0L177.1 583.0ZM187.7 595.2L187.7 595.2Q187.1 595.2 186.7 594.9Q186.4 594.6 186.4 594.0L186.4 594.0Q186.4 593.7 186.6 593.3L186.6 593.3L190.7 582.2Q190.9 581.4 191.4 581.1Q191.8 580.8 192.5 580.8L192.5 580.8Q193.2 580.8 193.6 581.1Q194.1 581.4 194.3 582.1L194.3 582.1L198.4 593.3Q198.6 593.7 198.6 594.0L198.6 594.0Q198.6 594.6 198.2 594.9Q197.9 595.2 197.3 595.2L197.3 595.2Q196.8 595.2 196.5 595.0Q196.2 594.7 196.0 594.1L196.0 594.1L195.1 591.4L189.9 591.4L188.9 594.1Q188.8 594.7 188.5 595.0Q188.2 595.2 187.7 595.2ZM192.4 583.4L190.5 589.5L194.5 589.5L192.5 583.4L192.4 583.4ZM205.6 595.0L201.7 595.0Q201.1 595.0 200.8 594.7Q200.4 594.3 200.4 593.7L200.4 593.7L200.4 582.3Q200.4 581.6 200.8 581.3Q201.1 581.0 201.7 581.0L201.7 581.0L205.6 581.0Q208.7 581.0 210.5 582.8Q212.3 584.6 212.3 588.0L212.3 588.0Q212.3 591.3 210.5 593.2Q208.7 595.0 205.6 595.0L205.6 595.0ZM202.9 583.1L202.9 592.9L205.3 592.9Q207.4 592.9 208.6 591.6Q209.7 590.4 209.7 588.0L209.7 588.0Q209.7 585.6 208.6 584.3Q207.4 583.1 205.3 583.1L205.3 583.1L202.9 583.1Z M227.0 595.0L219.2 595.0Q218.7 595.0 218.3 594.8Q218.0 594.5 218.0 594.0L218.0 594.0Q218.0 593.6 218.2 593.3Q218.3 593.1 218.7 592.7L218.7 592.7L223.0 588.4Q224.4 587.1 224.8 586.4Q225.3 585.7 225.3 584.9L225.3 584.9Q225.3 583.9 224.6 583.3Q224.0 582.7 223.0 582.7L223.0 582.7Q221.1 582.7 220.3 584.6L220.3 584.6Q220.1 585.0 219.9 585.2Q219.6 585.4 219.2 585.4L219.2 585.4Q218.7 585.4 218.4 585.1Q218.1 584.8 218.1 584.3L218.1 584.3Q218.1 584.1 218.2 583.8L218.2 583.8Q218.3 583.2 218.7 582.7Q219.1 582.1 219.7 581.7Q220.3 581.2 221.1 580.9Q222.0 580.7 223.0 580.7L223.0 580.7Q225.1 580.7 226.4 581.8Q227.8 582.9 227.8 584.7L227.8 584.7Q227.8 585.9 227.1 586.9Q226.4 588.0 224.6 589.8L224.6 589.8L221.4 592.9L221.4 593.0L227.0 593.0Q227.5 593.0 227.8 593.3Q228.1 593.5 228.1 594.0Q228.1 594.5 227.8 594.8Q227.5 595.0 227.0 595.0L227.0 595.0ZM235.2 595.3L235.2 595.3Q232.6 595.3 231.1 593.4Q229.7 591.4 229.7 588.0L229.7 588.0Q229.7 584.6 231.1 582.6Q232.6 580.7 235.2 580.7L235.2 580.7Q237.8 580.7 239.3 582.6Q240.7 584.6 240.7 588.0L240.7 588.0Q240.7 591.4 239.3 593.3Q237.8 595.3 235.2 595.3ZM235.2 593.3L235.2 593.3Q236.6 593.3 237.4 591.9Q238.2 590.5 238.2 588.0L238.2 588.0Q238.2 585.5 237.4 584.1Q236.6 582.7 235.2 582.7Q233.8 582.7 233.0 584.1Q232.2 585.5 232.2 588.0L232.2 588.0Q232.2 590.5 233.0 591.9Q233.8 593.3 235.2 593.3ZM251.6 595.0L243.8 595.0Q243.2 595.0 242.9 594.8Q242.6 594.5 242.6 594.0L242.6 594.0Q242.6 593.6 242.7 593.3Q242.9 593.1 243.3 592.7L243.3 592.7L247.6 588.4Q248.9 587.1 249.4 586.4Q249.8 585.7 249.8 584.9L249.8 584.9Q249.8 583.9 249.2 583.3Q248.5 582.7 247.5 582.7L247.5 582.7Q245.6 582.7 244.9 584.6L244.9 584.6Q244.7 585.0 244.4 585.2Q244.2 585.4 243.7 585.4L243.7 585.4Q243.2 585.4 242.9 585.1Q242.6 584.8 242.6 584.3L242.6 584.3Q242.6 584.1 242.7 583.8L242.7 583.8Q242.9 583.2 243.2 582.7Q243.6 582.1 244.2 581.7Q244.8 581.2 245.7 580.9Q246.5 580.7 247.5 580.7L247.5 580.7Q249.6 580.7 251.0 581.8Q252.3 582.9 252.3 584.7L252.3 584.7Q252.3 585.9 251.6 586.9Q251.0 588.0 249.2 589.8L249.2 589.8L245.9 592.9L245.9 593.0L251.6 593.0Q252.1 593.0 252.4 593.3Q252.6 593.5 252.6 594.0Q252.6 594.5 252.4 594.8Q252.1 595.0 251.6 595.0L251.6 595.0ZM259.6 595.3L259.6 595.3Q258.0 595.3 256.7 594.6Q255.4 593.9 254.9 592.8L254.9 592.8Q254.6 592.3 254.6 591.8L254.6 591.8Q254.6 591.3 254.9 591.0Q255.2 590.7 255.7 590.7L255.7 590.7Q256.1 590.7 256.4 590.9Q256.6 591.1 256.8 591.5L256.8 591.5Q257.2 592.3 257.9 592.8Q258.6 593.3 259.6 593.3L259.6 593.3Q260.9 593.3 261.7 592.5Q262.5 591.7 262.5 590.4L262.5 590.4Q262.5 589.2 261.7 588.4Q260.9 587.7 259.6 587.7L259.6 587.7Q258.3 587.7 257.4 588.5L257.4 588.5Q257.0 589.0 256.7 589.1Q256.4 589.3 256.0 589.3L256.0 589.3Q255.4 589.3 255.1 588.9Q254.8 588.5 254.8 588.0L254.8 588.0Q254.8 587.9 254.8 587.8L254.8 587.8L255.3 582.5Q255.4 581.7 255.8 581.3Q256.2 581.0 257.0 581.0L257.0 581.0L263.1 581.0Q263.6 581.0 263.9 581.2Q264.2 581.5 264.2 582.0L264.2 582.0Q264.2 582.4 263.9 582.7Q263.6 583.0 263.1 583.0L263.1 583.0L257.4 583.0L257.1 587.2L257.1 587.2Q257.6 586.5 258.4 586.1Q259.2 585.8 260.3 585.8L260.3 585.8Q262.3 585.8 263.6 587.0Q264.9 588.3 264.9 590.4L264.9 590.4Q264.9 592.6 263.4 593.9Q261.9 595.3 259.6 595.3Z " clip-path="url(#satori_cp-id-0)" mask="url(#satori_om-id-0)"/><mask id="satori_om-id-0-1-1"><rect x="1008" y="557" width="144" height="26" fill="#fff" mask="url(#satori_om-id-0)"/></mask><path fill="#334155" d="M1011.4 577.8Q1011.1 578.2 1010.5 578.2Q1009.9 578.2 1009.5 577.8Q1009.2 577.5 1009.2 576.8L1009.2 576.8L1009.2 563.6Q1009.2 563.0 1009.5 562.6Q1009.9 562.2 1010.5 562.2Q1011.1 562.2 1011.5 562.6Q1011.8 563.0 1011.8 563.6L1011.8 563.6L1011.8 568.5L1011.9 568.5Q1012.4 567.5 1013.3 566.9Q1014.3 566.4 1015.5 566.4L1015.5 566.4Q1017.6 566.4 1018.9 568.0Q1020.2 569.5 1020.2 572.3L1020.2 572.3Q1020.2 575.0 1018.9 576.6Q1017.6 578.1 1015.5 578.1L1015.5 578.1Q1014.2 578.1 1013.3 577.6Q1012.4 577.0 1011.8 576.0L1011.8 576.0L1011.8 576.0L1011.8 576.8Q1011.8 577.5 1011.4 577.8ZM1014.6 575.9L1014.6 575.9Q1015.9 575.9 1016.7 574.9Q1017.4 574.0 1017.4 572.3Q1017.4 570.6 1016.7 569.6Q1015.9 568.6 1014.6 568.6L1014.6 568.6Q1013.4 568.6 1012.6 569.6Q1011.8 570.6 1011.8 572.3L1011.8 572.3Q1011.8 573.9 1012.6 574.9Q1013.4 575.9 1014.6 575.9ZM1023.5 582.2L1023.5 582.2Q1022.6 582.2 1022.1 581.9Q1021.7 581.5 1021.7 580.9L1021.7 580.9Q1021.7 580.5 1021.9 580.3Q1022.2 580.0 1022.7 580.0L1022.7 580.0Q1022.8 580.0 1023.0 580.0Q1023.1 580.0 1023.3 580.0L1023.3 580.0Q1024.3 580.0 1024.9 578.7L1024.9 578.7L1025.1 578.2L1021.3 568.3Q1021.2 567.9 1021.2 567.6L1021.2 567.6Q1021.2 567.0 1021.6 566.7Q1022.0 566.3 1022.6 566.3L1022.6 566.3Q1023.1 566.3 1023.4 566.6Q1023.7 566.8 1023.8 567.4L1023.8 567.4L1026.6 575.7L1026.6 575.7L1029.3 567.4Q1029.5 566.8 1029.8 566.6Q1030.1 566.3 1030.6 566.3L1030.6 566.3Q1031.2 566.3 1031.5 566.7Q1031.9 567.0 1031.9 567.5L1031.9 567.5Q1031.9 567.9 1031.8 568.3L1031.8 568.3L1028.0 578.4Q1027.2 580.5 1026.2 581.3Q1025.2 582.2 1023.5 582.2Z M1043.5 578.2L1043.5 578.2Q1041.2 578.2 1039.7 577.4Q1038.2 576.5 1037.7 575.2L1037.7 575.2Q1037.6 574.8 1037.6 574.4L1037.6 574.4Q1037.6 573.8 1037.9 573.4Q1038.3 573.1 1038.8 573.1L1038.8 573.1Q1039.3 573.1 1039.6 573.3Q1039.9 573.5 1040.1 574.0L1040.1 574.0Q1040.5 574.9 1041.4 575.4Q1042.3 575.9 1043.6 575.9L1043.6 575.9Q1045.0 575.9 1045.9 575.3Q1046.8 574.7 1046.8 573.7L1046.8 573.7Q1046.8 572.8 1046.1 572.3Q1045.5 571.8 1044.0 571.5L1044.0 571.5L1042.3 571.1Q1037.8 570.2 1037.8 566.8L1037.8 566.8Q1037.8 564.7 1039.4 563.5Q1041.0 562.2 1043.5 562.2L1043.5 562.2Q1045.6 562.2 1047.1 563.1Q1048.5 563.9 1049.0 565.5L1049.0 565.5Q1049.1 565.7 1049.1 566.1L1049.1 566.1Q1049.1 566.6 1048.8 566.9Q1048.4 567.2 1047.9 567.2L1047.9 567.2Q1047.0 567.2 1046.6 566.4L1046.6 566.4Q1045.8 564.5 1043.5 564.5L1043.5 564.5Q1042.2 564.5 1041.4 565.1Q1040.5 565.6 1040.5 566.6L1040.5 566.6Q1040.5 567.4 1041.2 567.9Q1041.8 568.4 1043.3 568.7L1043.3 568.7L1044.9 569.1Q1047.4 569.6 1048.5 570.6Q1049.6 571.6 1049.6 573.4L1049.6 573.4Q1049.6 575.6 1047.9 576.9Q1046.3 578.2 1043.5 578.2ZM1056.4 578.2L1056.4 578.2Q1053.9 578.2 1052.4 576.6Q1050.9 575.0 1050.9 572.3L1050.9 572.3Q1050.9 569.5 1052.4 567.9Q1053.9 566.3 1056.4 566.3L1056.4 566.3Q1058.0 566.3 1059.3 567.1Q1060.6 567.9 1061.0 569.1L1061.0 569.1Q1061.2 569.4 1061.2 569.7L1061.2 569.7Q1061.2 570.2 1060.8 570.5Q1060.5 570.8 1060.0 570.8L1060.0 570.8Q1059.6 570.8 1059.4 570.6Q1059.1 570.4 1058.9 570.0L1058.9 570.0Q1058.0 568.5 1056.4 568.5L1056.4 568.5Q1055.1 568.5 1054.4 569.5Q1053.6 570.5 1053.6 572.3L1053.6 572.3Q1053.6 574.0 1054.4 575.0Q1055.1 576.0 1056.4 576.0L1056.4 576.0Q1058.0 576.0 1058.8 574.6L1058.8 574.6Q1059.1 574.1 1059.4 573.9Q1059.6 573.7 1060.1 573.7L1060.1 573.7Q1060.6 573.7 1060.9 574.0Q1061.2 574.3 1061.2 574.8L1061.2 574.8Q1061.2 575.1 1061.0 575.5L1061.0 575.5Q1060.6 576.7 1059.3 577.4Q1058.0 578.2 1056.4 578.2ZM1065.4 577.8Q1065.0 578.2 1064.4 578.2Q1063.8 578.2 1063.4 577.8Q1063.1 577.4 1063.1 576.8L1063.1 576.8L1063.1 563.6Q1063.1 563.0 1063.4 562.6Q1063.8 562.2 1064.4 562.2L1064.4 562.2Q1065.0 562.2 1065.4 562.6Q1065.7 563.0 1065.7 563.6L1065.7 563.6L1065.7 568.5L1065.8 568.5Q1066.2 567.5 1067.2 566.9Q1068.1 566.3 1069.4 566.3L1069.4 566.3Q1071.2 566.3 1072.3 567.5Q1073.4 568.6 1073.4 570.6L1073.4 570.6L1073.4 576.8Q1073.4 577.4 1073.0 577.8Q1072.6 578.2 1072.0 578.2Q1071.4 578.2 1071.0 577.8Q1070.7 577.4 1070.7 576.8L1070.7 576.8L1070.7 571.2Q1070.7 569.9 1070.1 569.3Q1069.5 568.6 1068.3 568.6L1068.3 568.6Q1067.1 568.6 1066.4 569.4Q1065.8 570.1 1065.8 571.4L1065.8 571.4L1065.8 576.8Q1065.8 577.4 1065.4 577.8ZM1080.6 578.2L1080.6 578.2Q1077.9 578.2 1076.5 576.6Q1075.0 575.1 1075.0 572.3L1075.0 572.3Q1075.0 569.6 1076.5 567.9Q1077.9 566.3 1080.4 566.3L1080.4 566.3Q1082.7 566.3 1084.2 567.8Q1085.6 569.3 1085.6 571.6L1085.6 571.6Q1085.6 572.2 1085.3 572.6Q1085.0 572.9 1084.4 572.9L1084.4 572.9L1077.7 572.9L1077.7 573.0Q1077.7 574.4 1078.5 575.3Q1079.2 576.1 1080.5 576.1L1080.5 576.1Q1081.4 576.1 1082.1 575.8Q1082.7 575.4 1083.4 574.6L1083.4 574.6Q1083.8 574.2 1084.3 574.2L1084.3 574.2Q1084.7 574.2 1085.0 574.4Q1085.4 574.7 1085.4 575.2L1085.4 575.2Q1085.4 575.5 1085.2 575.9L1085.2 575.9Q1084.6 577.0 1083.4 577.6Q1082.2 578.2 1080.6 578.2ZM1077.7 571.1L1077.7 571.1L1083.0 571.1Q1083.0 569.9 1082.3 569.1Q1081.5 568.4 1080.4 568.4Q1079.3 568.4 1078.5 569.2Q1077.8 569.9 1077.7 571.1ZM1091.3 578.2L1091.3 578.2Q1089.5 578.2 1088.4 577.0Q1087.3 575.9 1087.3 573.9L1087.3 573.9L1087.3 567.7Q1087.3 567.1 1087.7 566.7Q1088.0 566.3 1088.6 566.3Q1089.2 566.3 1089.6 566.7Q1090.0 567.1 1090.0 567.8L1090.0 567.8L1090.0 573.4Q1090.0 574.6 1090.6 575.3Q1091.2 575.9 1092.3 575.9L1092.3 575.9Q1093.4 575.9 1094.1 575.1Q1094.8 574.4 1094.8 573.1L1094.8 573.1L1094.8 567.7Q1094.8 567.1 1095.2 566.7Q1095.5 566.3 1096.1 566.3L1096.1 566.3Q1096.7 566.3 1097.1 566.7Q1097.5 567.1 1097.5 567.8L1097.5 567.8L1097.5 576.8Q1097.5 577.4 1097.1 577.8Q1096.8 578.2 1096.2 578.2L1096.2 578.2Q1095.6 578.2 1095.2 577.8Q1094.9 577.4 1094.9 576.8L1094.9 576.8L1094.9 576.0L1094.8 576.0Q1093.9 578.2 1091.3 578.2ZM1100.4 575.1L1100.4 575.1L1100.4 568.6L1099.7 568.6Q1099.2 568.6 1098.9 568.3Q1098.6 568.1 1098.6 567.6L1098.6 567.6Q1098.6 567.1 1098.9 566.8Q1099.2 566.6 1099.7 566.6L1099.7 566.6L1100.4 566.6L1100.4 565.0Q1100.4 564.4 1100.7 564.0Q1101.1 563.6 1101.7 563.6L1101.7 563.6Q1102.3 563.6 1102.7 564.0Q1103.1 564.4 1103.1 565.0L1103.1 565.0L1103.1 566.6L1104.3 566.6Q1104.8 566.6 1105.1 566.8Q1105.4 567.1 1105.4 567.6L1105.4 567.6Q1105.4 568.1 1105.1 568.3Q1104.8 568.6 1104.3 568.6L1104.3 568.6L1103.1 568.6L1103.1 574.6Q1103.1 575.2 1103.3 575.5Q1103.6 575.8 1104.1 575.9L1104.1 575.9L1104.3 575.9Q1105.4 576.0 1105.4 576.9L1105.4 576.9Q1105.4 577.5 1104.9 577.8Q1104.4 578.1 1103.5 578.1L1103.5 578.1L1103.4 578.1Q1100.4 578.1 1100.4 575.1ZM1114.9 577.9L1108.0 577.9Q1107.4 577.9 1107.1 577.6Q1106.8 577.3 1106.8 576.8Q1106.8 576.3 1107.2 575.8L1107.2 575.8L1112.7 568.7L1112.7 568.6L1107.8 568.6Q1107.3 568.6 1107 568.4Q1106.7 568.1 1106.7 567.6Q1106.7 567.1 1107 566.8Q1107.3 566.6 1107.8 566.6L1107.8 566.6L1114.4 566.6Q1115.1 566.6 1115.4 566.9Q1115.8 567.2 1115.8 567.8L1115.8 567.8Q1115.8 568.3 1115.3 568.9L1115.3 568.9L1110.1 575.8L1110.1 575.9L1114.9 575.9Q1115.4 575.9 1115.7 576.1Q1116.0 576.4 1116.0 576.9Q1116.0 577.4 1115.7 577.7Q1115.4 577.9 1114.9 577.9L1114.9 577.9ZM1119.7 575.2L1119.7 575.2Q1120.3 575.2 1120.6 575.5Q1120.9 575.8 1120.9 576.3L1120.9 576.3Q1120.9 576.6 1120.8 576.9L1120.8 576.9L1119.9 580.6Q1119.8 581.1 1119.5 581.3Q1119.3 581.5 1118.8 581.5Q1118.3 581.5 1118.1 581.2Q1117.8 581.0 1117.8 580.5L1117.8 580.5Q1117.8 580.4 1117.8 580.3L1117.8 580.3L1118.5 576.3Q1118.6 575.2 1119.7 575.2Z M1130.6 577.8Q1130.3 578.1 1129.7 578.1Q1129.1 578.1 1128.8 577.8Q1128.4 577.4 1128.4 576.8L1128.4 576.8L1128.4 564.0Q1128.4 563.2 1128.9 562.7Q1129.4 562.3 1130.2 562.3L1130.2 562.3Q1130.9 562.3 1131.4 562.6Q1131.8 562.9 1132.1 563.7L1132.1 563.7L1136.4 574.1L1136.5 574.1L1140.7 563.7Q1141.0 562.9 1141.5 562.6Q1141.9 562.3 1142.7 562.3L1142.7 562.3Q1143.5 562.3 1144.0 562.7Q1144.4 563.2 1144.4 564.0L1144.4 564.0L1144.4 576.8Q1144.4 577.4 1144.1 577.8Q1143.8 578.1 1143.2 578.1Q1142.6 578.1 1142.3 577.8Q1141.9 577.4 1141.9 576.8L1141.9 576.8L1141.9 566.9L1141.9 566.9L1137.7 576.9Q1137.4 577.9 1136.4 577.9L1136.4 577.9Q1135.5 577.9 1135.1 576.9L1135.1 576.9L1131.0 566.9L1130.9 566.9L1130.9 576.8Q1130.9 577.4 1130.6 577.8ZM1148.8 578.1L1148.8 578.1Q1148.1 578.1 1147.7 577.6Q1147.2 577.2 1147.2 576.5L1147.2 576.5Q1147.2 575.9 1147.7 575.4Q1148.1 575.0 1148.8 575.0L1148.8 575.0Q1149.4 575.0 1149.9 575.4Q1150.3 575.9 1150.3 576.5L1150.3 576.5Q1150.3 577.2 1149.9 577.6Q1149.4 578.1 1148.8 578.1Z " clip-path="url(#satori_cp-id-0)" mask="url(#satori_om-id-0)"/></svg>