<svg width="1200" height="630" viewBox="0 0 1200 630" xmlns="http://www.w3.org/2000/svg"><mask id="satori_om-id"><rect x="0" y="0" width="1200" height="630" fill="#fff"/></mask><mask id="satori_om-id-0"><rect x="0" y="0" width="1200" height="630" fill="#fff"/></mask><rect x="0" y="0" width="1200" height="630" fill="#f2f2f2"/><mask id="satori_om-id-0-0"><rect x="0" y="0" width="1200" height="441" fill="#fff"/></mask><mask id="satori_om-id-0-0-0"><rect x="40" y="95" width="1120" height="36" fill="#fff"/></mask><path fill="#8e8e8e" d="M50.0 123.4Q49.6 123.9 48.8 123.9Q48.1 123.9 47.6 123.4Q47.2 123.0 47.2 122.2L47.2 122.2L47.2 105.4L42.0 105.4Q41.3 105.4 40.9 105.0Q40.5 104.6 40.5 103.9Q40.5 103.3 40.9 102.9Q41.3 102.5 42.0 102.5L42.0 102.5L55.6 102.5Q56.3 102.5 56.8 102.9Q57.2 103.3 57.2 103.9Q57.2 104.6 56.8 105.0Q56.3 105.4 55.6 105.4L55.6 105.4L50.5 105.4L50.5 122.2Q50.5 123.0 50.0 123.4ZM62.1 123.5Q61.6 123.9 60.9 123.9Q60.2 123.9 59.8 123.5Q59.3 123.0 59.3 122.3L59.3 122.3L59.3 103.9Q59.3 103.1 59.8 102.7Q60.2 102.2 60.9 102.2L60.9 102.2Q61.6 102.2 62.1 102.7Q62.5 103.1 62.5 103.9L62.5 103.9L62.5 110.8L62.5 110.8Q63.2 109.5 64.4 108.7Q65.7 108.0 67.4 108.0L67.4 108.0Q69.9 108.0 71.4 109.5Q72.8 111.1 72.8 113.7L72.8 113.7L72.8 122.3Q72.8 123.0 72.4 123.5Q71.9 123.9 71.2 123.9L71.2 123.9Q70.5 123.9 70.1 123.5Q69.6 123.0 69.6 122.3L69.6 122.3L69.6 114.3Q69.6 112.6 68.8 111.7Q67.9 110.7 66.3 110.7L66.3 110.7Q64.5 110.7 63.5 111.8Q62.5 112.9 62.5 114.8L62.5 114.8L62.5 122.3Q62.5 123.0 62.1 123.5ZM81.2 123.9L81.2 123.9Q78.7 123.9 77.2 122.4Q75.8 120.9 75.8 118.2L75.8 118.2L75.8 109.7Q75.8 108.9 76.2 108.4Q76.7 108.0 77.4 108.0L77.4 108.0Q78.1 108.0 78.5 108.4Q79.0 108.9 79.0 109.7L79.0 109.7L79.0 117.6Q79.0 119.4 79.8 120.3Q80.6 121.2 82.3 121.2L82.3 121.2Q84.0 121.2 84.9 120.1Q85.9 119.0 85.9 117.2L85.9 117.2L85.9 109.7Q85.9 108.9 86.4 108.4Q86.8 108.0 87.5 108.0L87.5 108.0Q88.2 108.0 88.7 108.4Q89.1 108.9 89.1 109.7L89.1 109.7L89.1 122.3Q89.1 123.1 88.7 123.5Q88.3 123.9 87.6 123.9Q86.9 123.9 86.5 123.5Q86.1 123.1 86.1 122.3L86.1 122.3L86.1 121.1L86.0 121.1Q84.6 123.9 81.2 123.9ZM93.8 123.9L93.8 123.9Q93.1 123.9 92.6 123.5Q92.2 123.0 92.2 122.3L92.2 122.3L92.2 109.6Q92.2 108.9 92.6 108.4Q93.0 108.0 93.7 108.0L93.7 108.0Q94.4 108.0 94.8 108.4Q95.2 108.9 95.2 109.6L95.2 109.6L95.2 110.9L95.3 110.9Q95.6 109.6 96.6 108.8Q97.5 108.0 98.7 108.0L98.7 108.0Q99.5 108.0 99.9 108.4L99.9 108.4Q100.3 108.7 100.3 109.5L100.3 109.5Q100.3 110.2 99.9 110.6L99.9 110.6Q99.4 111.0 98.4 111.0L98.4 111.0Q96.9 111.0 96.1 112.0Q95.4 112.9 95.4 114.4L95.4 114.4L95.4 122.3Q95.4 123.0 94.9 123.5Q94.5 123.9 93.8 123.9ZM107.7 124.0L107.7 124.0Q105.5 124.0 103.9 123.1Q102.3 122.3 101.7 120.8L101.7 120.8Q101.6 120.5 101.6 120.2L101.6 120.2Q101.6 119.6 102.0 119.2Q102.4 118.9 103.0 118.9L103.0 118.9Q103.8 118.9 104.4 119.7L104.4 119.7Q105.0 120.7 105.8 121.1Q106.5 121.5 107.9 121.5L107.9 121.5Q109.3 121.5 110.1 121.0Q110.9 120.4 110.9 119.5L110.9 119.5Q110.9 118.7 110.4 118.3Q109.9 117.8 108.7 117.5L108.7 117.5L106.2 117.0Q101.8 115.9 101.8 112.6L101.8 112.6Q101.8 110.5 103.4 109.2Q105.1 108.0 107.9 108.0L107.9 108.0Q109.9 108.0 111.5 108.9Q113.0 109.8 113.4 111.2L113.4 111.2Q113.4 111.6 113.4 111.7L113.4 111.7Q113.4 112.2 113.1 112.5Q112.8 112.9 112.2 112.9L112.2 112.9Q111.3 112.9 110.9 112.2L110.9 112.2Q110.4 111.3 109.6 110.8Q108.9 110.4 107.7 110.4L107.7 110.4Q106.5 110.4 105.7 111.0Q104.9 111.5 104.9 112.4L104.9 112.4Q104.9 113.9 107.2 114.5L107.2 114.5L109.6 115.0Q112.1 115.6 113.1 116.5Q114.1 117.5 114.1 119.2L114.1 119.2Q114.1 121.3 112.3 122.6Q110.6 124.0 107.7 124.0ZM122.3 123.9L122.3 123.9Q119.4 123.9 117.6 121.8Q115.9 119.6 115.9 116.0Q115.9 112.3 117.6 110.2Q119.4 108.0 122.3 108.0L122.3 108.0Q123.9 108.0 125.2 108.8Q126.5 109.5 127.1 110.8L127.1 110.8L127.2 110.8L127.2 103.9Q127.2 103.1 127.6 102.7Q128.1 102.2 128.8 102.2L128.8 102.2Q129.5 102.2 129.9 102.7Q130.4 103.2 130.4 103.9L130.4 103.9L130.4 122.4Q130.4 123.1 129.9 123.5Q129.5 123.9 128.8 123.9L128.8 123.9Q128.1 123.9 127.7 123.5Q127.2 123.1 127.2 122.4L127.2 122.4L127.2 120.9L127.2 120.9Q126.5 122.3 125.3 123.1Q124.1 123.9 122.3 123.9ZM123.2 121.2L123.2 121.2Q125.0 121.2 126.1 119.8Q127.2 118.4 127.2 116.0L127.2 116.0Q127.2 113.6 126.1 112.1Q125.0 110.7 123.2 110.7L123.2 110.7Q121.3 110.7 120.2 112.1Q119.1 113.5 119.1 116.0L119.1 116.0Q119.1 118.4 120.2 119.8Q121.3 121.2 123.2 121.2ZM138.1 123.9L138.1 123.9Q135.9 123.9 134.4 122.6Q133.0 121.3 133.0 119.3L133.0 119.3Q133.0 117.3 134.5 116.1Q136.0 114.9 138.7 114.7L138.7 114.7L142.9 114.5L142.9 113.3Q142.9 112.0 142.1 111.3Q141.3 110.6 139.9 110.6L139.9 110.6Q138.7 110.6 137.9 111.0Q137.1 111.5 136.4 112.5L136.4 112.5Q136.0 113.2 135.2 113.2L135.2 113.2Q134.6 113.2 134.2 112.8Q133.8 112.4 133.8 111.9L133.8 111.9Q133.8 111.3 134.1 110.8L134.1 110.8Q134.7 109.5 136.3 108.8Q137.9 108.0 140.0 108.0L140.0 108.0Q142.8 108.0 144.4 109.4Q146.1 110.7 146.1 113.0L146.1 113.0L146.1 122.3Q146.1 123.1 145.7 123.5Q145.2 123.9 144.6 123.9L144.6 123.9Q143.9 123.9 143.5 123.5Q143.1 123.1 143.1 122.4L143.1 122.4L143.1 121.1L143.0 121.1Q142.3 122.4 141.0 123.2Q139.7 123.9 138.1 123.9ZM139.0 121.4L139.0 121.4Q140.7 121.4 141.8 120.4Q142.9 119.4 142.9 117.9L142.9 117.9L142.9 116.7L139.1 116.9Q137.7 117.0 137.0 117.6Q136.2 118.2 136.2 119.2L136.2 119.2Q136.2 120.2 137.0 120.8Q137.7 121.4 139.0 121.4ZM151.1 129.4L151.1 129.4Q150.0 129.4 149.4 129.0Q148.8 128.6 148.8 127.9L148.8 127.9Q148.8 127.4 149.1 127.1Q149.5 126.8 150.0 126.8L150.0 126.8Q150.2 126.8 150.4 126.8Q150.7 126.8 150.8 126.8L150.8 126.8Q152.4 126.8 153.2 124.7L153.2 124.7L153.5 123.8L148.3 110.3Q148.1 109.9 148.1 109.4L148.1 109.4Q148.1 108.8 148.6 108.4Q149.1 108.0 149.8 108.0L149.8 108.0Q150.4 108.0 150.7 108.3Q151.1 108.5 151.3 109.2L151.3 109.2L155.2 120.8L155.3 120.8L159.2 109.2Q159.4 108.5 159.7 108.3Q160.1 108.0 160.7 108.0L160.7 108.0Q161.4 108.0 161.8 108.4Q162.2 108.8 162.2 109.4L162.2 109.4Q162.2 109.8 162.1 110.3L162.1 110.3L156.7 124.4Q155.7 127.2 154.5 128.3Q153.2 129.4 151.1 129.4ZM166.7 120.1L166.7 120.1Q167.4 120.1 167.8 120.5Q168.2 120.8 168.2 121.4L168.2 121.4Q168.2 121.8 168.1 122.3L168.1 122.3L166.8 127.3Q166.5 128.4 165.4 128.4L165.4 128.4Q164.9 128.4 164.5 128.1Q164.2 127.7 164.2 127.2L164.2 127.2Q164.2 127.1 164.3 126.8L164.3 126.8L165.2 121.4Q165.4 120.1 166.7 120.1Z M181.7 123.9L181.7 123.9Q181.0 123.9 180.6 123.6Q180.2 123.2 180.2 122.6L180.2 122.6Q180.2 122.1 180.5 121.6L180.5 121.6L189.0 105.4L189.0 105.3L179.1 105.3Q178.5 105.3 178.1 104.9Q177.7 104.5 177.7 103.9L177.7 103.9Q177.7 103.3 178.1 102.9Q178.5 102.5 179.1 102.5L179.1 102.5L190.3 102.5Q191.2 102.5 191.8 103.0Q192.3 103.5 192.3 104.4L192.3 104.4Q192.3 105.1 191.7 106.4L191.7 106.4L183.2 123.0Q182.9 123.5 182.6 123.7Q182.2 123.9 181.7 123.9Z M204.2 123.5Q203.8 123.9 203.1 123.9Q202.3 123.9 201.9 123.5Q201.5 123.0 201.5 122.2L201.5 122.2L201.5 104.1Q201.5 103.2 201.9 102.8Q202.4 102.3 203.2 102.3L203.2 102.3Q203.8 102.3 204.2 102.5Q204.6 102.7 205.0 103.3L205.0 103.3L215.4 118.1L215.5 118.1L215.5 104.0Q215.5 103.2 215.9 102.7Q216.4 102.3 217.1 102.3L217.1 102.3Q217.8 102.3 218.3 102.7Q218.7 103.2 218.7 104.0L218.7 104.0L218.7 122.2Q218.7 123.0 218.2 123.5Q217.8 123.9 217.0 123.9L217.0 123.9Q216.4 123.9 216.0 123.7Q215.6 123.5 215.2 122.9L215.2 122.9L204.8 108.1L204.6 108.1L204.6 122.2Q204.6 123.0 204.2 123.5ZM234.2 121.8Q232.2 124.0 228.8 124.0Q225.5 124.0 223.5 121.8Q221.5 119.7 221.5 116.0L221.5 116.0Q221.5 112.3 223.5 110.1Q225.5 108.0 228.8 108.0Q232.2 108.0 234.2 110.1Q236.1 112.3 236.1 116.0L236.1 116.0Q236.1 119.7 234.2 121.8ZM228.8 121.3L228.8 121.3Q230.7 121.3 231.8 119.9Q232.9 118.5 232.9 116.0L232.9 116.0Q232.9 113.4 231.8 112.0Q230.7 110.6 228.8 110.6Q227.0 110.6 225.9 112.0Q224.7 113.4 224.7 116.0L224.7 116.0Q224.7 118.5 225.9 119.9Q227.0 121.3 228.8 121.3ZM244.5 123.9L244.5 123.9Q243.7 123.9 243.2 123.6Q242.7 123.2 242.3 122.3L242.3 122.3L237.8 110.3Q237.6 109.8 237.6 109.4L237.6 109.4Q237.6 108.8 238.0 108.4Q238.5 108.0 239.2 108.0L239.2 108.0Q240.3 108.0 240.7 109.2L240.7 109.2L244.5 120.6L244.6 120.6L248.4 109.2Q248.8 108.0 249.9 108.0L249.9 108.0Q250.5 108.0 251.0 108.4Q251.4 108.8 251.4 109.4L251.4 109.4Q251.4 109.9 251.3 110.3L251.3 110.3L246.7 122.3Q246.4 123.2 245.9 123.6Q245.3 123.9 244.5 123.9ZM260.2 124.0L260.2 124.0Q256.8 124.0 254.8 121.9Q252.9 119.8 252.9 116.0L252.9 116.0Q252.9 112.4 254.8 110.2Q256.8 108.0 260.0 108.0L260.0 108.0Q263.1 108.0 265.0 110.0Q266.9 112.0 266.9 115.1L266.9 115.1Q266.9 115.9 266.5 116.3Q266.1 116.8 265.4 116.8L265.4 116.8L256.1 116.8L256.1 116.8Q256.1 118.9 257.2 120.2Q258.3 121.4 260.2 121.4L260.2 121.4Q261.5 121.4 262.4 120.9Q263.3 120.4 264.2 119.2L264.2 119.2Q264.6 118.6 265.3 118.6L265.3 118.6Q265.8 118.6 266.2 119.0Q266.6 119.3 266.6 119.9L266.6 119.9Q266.6 120.3 266.4 120.8L266.4 120.8Q265.6 122.3 264.0 123.1Q262.4 124.0 260.2 124.0ZM256.1 114.5L256.1 114.5L263.8 114.5Q263.7 112.7 262.7 111.6Q261.7 110.5 260.0 110.5L260.0 110.5Q258.4 110.5 257.3 111.6Q256.2 112.7 256.1 114.5ZM272.1 123.5Q271.7 123.9 271.0 123.9Q270.3 123.9 269.8 123.5Q269.4 123.0 269.4 122.3L269.4 122.3L269.4 109.6Q269.4 108.9 269.8 108.4Q270.2 108.0 270.9 108.0Q271.6 108.0 272.0 108.4Q272.4 108.8 272.4 109.6L272.4 109.6L272.4 110.8L272.5 110.8Q273.0 109.5 274.2 108.8Q275.3 108.0 276.9 108.0L276.9 108.0Q278.5 108.0 279.6 108.8Q280.7 109.6 281.2 111.0L281.2 111.0L281.2 111.0Q281.8 109.6 283.1 108.8Q284.4 108.0 286.0 108.0L286.0 108.0Q288.3 108.0 289.7 109.4Q291.1 110.8 291.1 113.1L291.1 113.1L291.1 122.3Q291.1 123.0 290.6 123.5Q290.2 123.9 289.5 123.9Q288.8 123.9 288.3 123.5Q287.9 123.0 287.9 122.3L287.9 122.3L287.9 113.8Q287.9 112.3 287.1 111.5Q286.4 110.7 285.0 110.7Q283.6 110.7 282.7 111.6Q281.8 112.6 281.8 114.0L281.8 114.0L281.8 122.3Q281.8 123.0 281.4 123.5Q281.0 123.9 280.2 123.9Q279.5 123.9 279.1 123.5Q278.7 123.0 278.7 122.3L278.7 122.3L278.7 113.6Q278.7 112.3 277.9 111.5Q277.1 110.7 275.8 110.7L275.8 110.7Q274.4 110.7 273.5 111.7Q272.6 112.6 272.6 114.1L272.6 114.1L272.6 122.3Q272.6 123.0 272.1 123.5ZM295.8 123.9L295.8 123.9Q295.1 123.9 294.7 123.5Q294.3 123.1 294.3 122.4L294.3 122.4L294.3 103.9Q294.3 103.2 294.7 102.7Q295.1 102.2 295.8 102.2Q296.5 102.2 297.0 102.7Q297.4 103.2 297.4 103.9L297.4 103.9L297.4 110.9L297.5 110.9Q298.2 109.5 299.5 108.8Q300.7 108.0 302.4 108.0L302.4 108.0Q305.3 108.0 307.0 110.2Q308.8 112.3 308.8 116.0L308.8 116.0Q308.8 119.6 307.0 121.8Q305.3 123.9 302.3 123.9L302.3 123.9Q300.7 123.9 299.4 123.2Q298.1 122.4 297.4 121.0L297.4 121.0L297.3 121.0L297.3 122.4Q297.3 123.1 296.9 123.5Q296.5 123.9 295.8 123.9ZM301.5 121.2L301.5 121.2Q303.4 121.2 304.4 119.8Q305.5 118.4 305.5 116.0L305.5 116.0Q305.5 113.5 304.4 112.1Q303.3 110.7 301.5 110.7L301.5 110.7Q299.7 110.7 298.5 112.1Q297.4 113.6 297.4 116.0L297.4 116.0Q297.4 118.3 298.5 119.8Q299.7 121.2 301.5 121.2ZM317.9 124.0L317.9 124.0Q314.4 124.0 312.5 121.9Q310.5 119.8 310.5 116.0L310.5 116.0Q310.5 112.4 312.5 110.2Q314.4 108.0 317.7 108.0L317.7 108.0Q320.8 108.0 322.7 110.0Q324.6 112.0 324.6 115.1L324.6 115.1Q324.6 115.9 324.2 116.3Q323.8 116.8 323.1 116.8L323.1 116.8L313.7 116.8L313.7 116.8Q313.7 118.9 314.8 120.2Q315.9 121.4 317.8 121.4L317.8 121.4Q319.1 121.4 320.0 120.9Q320.9 120.4 321.8 119.2L321.8 119.2Q322.3 118.6 322.9 118.6L322.9 118.6Q323.5 118.6 323.9 119.0Q324.3 119.3 324.3 119.9L324.3 119.9Q324.3 120.3 324.0 120.8L324.0 120.8Q323.3 122.3 321.7 123.1Q320.1 124.0 317.9 124.0ZM313.8 114.5L313.8 114.5L321.5 114.5Q321.4 112.7 320.4 111.6Q319.3 110.5 317.7 110.5L317.7 110.5Q316.0 110.5 315.0 111.6Q313.9 112.7 313.8 114.5ZM328.6 123.9L328.6 123.9Q327.9 123.9 327.5 123.5Q327.1 123.0 327.1 122.3L327.1 122.3L327.1 109.6Q327.1 108.9 327.5 108.4Q327.9 108.0 328.6 108.0L328.6 108.0Q329.2 108.0 329.7 108.4Q330.1 108.9 330.1 109.6L330.1 109.6L330.1 110.9L330.1 110.9Q330.5 109.6 331.4 108.8Q332.4 108.0 333.5 108.0L333.5 108.0Q334.4 108.0 334.8 108.4L334.8 108.4Q335.2 108.7 335.2 109.5L335.2 109.5Q335.2 110.2 334.7 110.6L334.7 110.6Q334.3 111.0 333.3 111.0L333.3 111.0Q331.7 111.0 331.0 112.0Q330.2 112.9 330.2 114.4L330.2 114.4L330.2 122.3Q330.2 123.0 329.8 123.5Q329.4 123.9 328.6 123.9Z M356.2 123.7L344.6 123.7Q343.8 123.7 343.4 123.3Q343.0 122.9 343.0 122.3L343.0 122.3Q343.0 121.8 343.2 121.5Q343.4 121.1 343.9 120.6L343.9 120.6L350.5 113.9Q352.6 111.8 353.3 110.7Q353.9 109.6 353.9 108.3L353.9 108.3Q353.9 106.8 352.9 105.8Q351.9 104.8 350.3 104.8L350.3 104.8Q347.1 104.8 346.0 108.0L346.0 108.0Q345.8 108.5 345.4 108.8Q345.1 109.0 344.5 109.0L344.5 109.0Q343.9 109.0 343.5 108.6Q343.1 108.3 343.1 107.6L343.1 107.6Q343.1 107.3 343.2 107.0L343.2 107.0Q343.4 106.1 343.9 105.3Q344.5 104.4 345.3 103.7Q346.2 103.0 347.5 102.6Q348.8 102.1 350.3 102.1L350.3 102.1Q353.3 102.1 355.2 103.8Q357.2 105.5 357.2 108.1L357.2 108.1Q357.2 109.9 356.2 111.5Q355.2 113.0 352.5 115.8L352.5 115.8L347.5 120.8L347.5 120.9L356.2 120.9Q356.9 120.9 357.3 121.3Q357.7 121.7 357.7 122.3L357.7 122.3Q357.7 122.9 357.3 123.3Q356.9 123.7 356.2 123.7L356.2 123.7ZM374.1 121.1Q372.0 124.1 368.2 124.1Q364.4 124.1 362.2 121.1Q360.1 118.2 360.1 113.1L360.1 113.1Q360.1 108.0 362.2 105.1Q364.4 102.1 368.2 102.1L368.2 102.1Q371.9 102.1 374.1 105.1Q376.2 108.0 376.2 113.1L376.2 113.1Q376.2 118.1 374.1 121.1ZM368.2 121.3L368.2 121.3Q370.4 121.3 371.7 119.1Q372.9 116.9 372.9 113.1L372.9 113.1Q372.9 109.3 371.7 107.1Q370.4 104.9 368.2 104.9Q365.9 104.9 364.7 107.1Q363.4 109.3 363.4 113.1L363.4 113.1Q363.4 116.9 364.6 119.1Q365.9 121.3 368.2 121.3ZM392.3 123.7L380.6 123.7Q379.9 123.7 379.5 123.3Q379.1 122.9 379.1 122.3L379.1 122.3Q379.1 121.8 379.3 121.5Q379.5 121.1 380.0 120.6L380.0 120.6L386.6 113.9Q388.7 111.8 389.4 110.7Q390.0 109.6 390.0 108.3L390.0 108.3Q390.0 106.8 389.0 105.8Q388.0 104.8 386.4 104.8L386.4 104.8Q383.2 104.8 382.1 108.0L382.1 108.0Q381.9 108.5 381.5 108.8Q381.2 109.0 380.6 109.0L380.6 109.0Q380.0 109.0 379.6 108.6Q379.2 108.3 379.2 107.6L379.2 107.6Q379.2 107.3 379.3 107.0L379.3 107.0Q379.4 106.1 380.0 105.3Q380.5 104.4 381.4 103.7Q382.3 103.0 383.6 102.6Q384.9 102.1 386.4 102.1L386.4 102.1Q389.4 102.1 391.3 103.8Q393.3 105.5 393.3 108.1L393.3 108.1Q393.3 109.9 392.3 111.5Q391.3 113.0 388.6 115.8L388.6 115.8L383.5 120.8L383.5 120.9L392.3 120.9Q393.0 120.9 393.4 121.3Q393.8 121.7 393.8 122.3L393.8 122.3Q393.8 122.9 393.4 123.3Q393.0 123.7 392.3 123.7L392.3 123.7ZM408.1 123.9L408.1 123.9Q407.5 123.9 407.0 123.5Q406.6 123.0 406.6 122.3L406.6 122.3L406.6 119.5L397.9 119.5Q397.0 119.5 396.5 119.0Q396.0 118.4 396.0 117.6L396.0 117.6Q396.0 116.6 396.7 115.3L396.7 115.3Q398.5 112.0 403.5 104.7L403.5 104.7Q404.5 103.3 405.2 102.8Q406.0 102.2 407.0 102.2L407.0 102.2Q408.3 102.2 409.0 102.9Q409.7 103.5 409.7 104.7L409.7 104.7L409.7 116.7L411.4 116.7Q412.0 116.7 412.4 117.1Q412.8 117.5 412.8 118.1Q412.8 118.7 412.4 119.1Q412.0 119.5 411.4 119.5L411.4 119.5L409.7 119.5L409.7 122.3Q409.7 123.0 409.3 123.5Q408.8 123.9 408.1 123.9ZM399.0 116.8L406.6 116.8L406.6 105.1L406.5 105.1Q401.1 112.9 399.0 116.7L399.0 116.7L399.0 116.8Z "/><mask id="satori_om-id-0-0-1"><rect x="40" y="176" width="1120" height="165" fill="#fff"/></mask><path fill="#224d67" d="M69.5 238.2Q68.5 239.2 66.9 239.2Q65.3 239.2 64.3 238.2Q63.3 237.2 63.3 235.4L63.3 235.4L63.3 230.5L46.6 230.5Q44.6 230.5 43.3 229.3Q42.1 228.1 42.1 226.2L42.1 226.2Q42.1 224.0 43.7 221.1L43.7 221.1Q47.2 214.8 56.6 201.1L56.6 201.1Q58.6 198.0 60.3 196.9Q61.9 195.7 64.3 195.7L64.3 195.7Q67.2 195.7 68.8 197.2Q70.5 198.6 70.5 201.3L70.5 201.3L70.5 224.3L73.4 224.3Q74.9 224.3 75.8 225.1Q76.6 226.0 76.6 227.4L76.6 227.4Q76.6 228.8 75.8 229.6Q74.9 230.5 73.4 230.5L73.4 230.5L70.5 230.5L70.5 235.4Q70.5 237.2 69.5 238.2ZM48.9 224.4L63.4 224.4L63.4 202.0L63.3 202.0Q58.0 209.7 54.7 214.7Q51.4 219.7 48.9 224.2L48.9 224.2L48.9 224.4ZM97.1 238.6L85.4 238.6Q83.7 238.6 82.6 237.5Q81.6 236.5 81.6 234.7L81.6 234.7L81.6 200.2Q81.6 198.4 82.6 197.3Q83.7 196.3 85.4 196.3L85.4 196.3L97.1 196.3Q106.6 196.3 111.9 201.8Q117.2 207.3 117.2 217.3L117.2 217.3Q117.2 227.4 111.9 233.0Q106.6 238.6 97.1 238.6L97.1 238.6ZM89.2 202.7L89.2 232.2L96.3 232.2Q102.7 232.2 106.1 228.4Q109.5 224.6 109.5 217.4L109.5 217.4Q109.5 210.3 106.0 206.5Q102.6 202.7 96.3 202.7L96.3 202.7L89.2 202.7ZM139.1 224.7L125.9 224.7Q124.4 224.7 123.4 223.8Q122.4 222.9 122.4 221.4Q122.4 219.9 123.4 219.0Q124.4 218.2 125.9 218.2L125.9 218.2L139.1 218.2Q140.7 218.2 141.7 219.0Q142.6 219.9 142.6 221.4Q142.6 222.9 141.7 223.8Q140.7 224.7 139.1 224.7L139.1 224.7ZM155.0 238.2Q154.0 239.2 152.4 239.2Q150.8 239.2 149.8 238.2Q148.8 237.3 148.8 235.5L148.8 235.5L148.8 199.6Q148.8 197.7 149.8 196.7Q150.9 195.7 152.5 195.7Q154.1 195.7 155.1 196.7Q156.1 197.7 156.1 199.6L156.1 199.6L156.1 212.9L156.3 212.9Q157.7 210.1 160.2 208.5Q162.8 207.0 166.0 207.0L166.0 207.0Q171.9 207.0 175.4 211.3Q178.8 215.6 178.8 223.1L178.8 223.1Q178.8 230.5 175.4 234.8Q171.9 239.1 166.0 239.1L166.0 239.1Q162.6 239.1 160.1 237.6Q157.5 236.0 156.1 233.3L156.1 233.3L156.0 233.3L156.0 235.5Q156.0 237.2 155.0 238.2ZM163.8 233.1L163.8 233.1Q167.3 233.1 169.3 230.4Q171.4 227.7 171.4 223.1Q171.4 218.4 169.3 215.7Q167.3 213.0 163.8 213.0L163.8 213.0Q160.4 213.0 158.2 215.8Q156.1 218.5 156.1 223.1L156.1 223.1Q156.1 227.6 158.2 230.3Q160.4 233.1 163.8 233.1ZM192.6 239.1L192.6 239.1Q188.1 239.1 185.2 236.5Q182.3 233.9 182.3 229.7L182.3 229.7Q182.3 225.6 185.3 223.2Q188.4 220.8 194.1 220.4L194.1 220.4L202.3 219.9L202.3 217.7Q202.3 215.3 200.8 213.9Q199.2 212.6 196.5 212.6L196.5 212.6Q194.3 212.6 192.8 213.4Q191.3 214.2 190 216.2L190 216.2Q188.9 217.7 187.0 217.7L187.0 217.7Q185.7 217.7 184.8 216.9Q184.0 216.1 184.0 214.8L184.0 214.8Q184.0 213.8 184.5 212.8L184.5 212.8Q185.6 210.1 189.0 208.5Q192.3 206.9 196.8 206.9L196.8 206.9Q202.6 206.9 206.0 209.7Q209.5 212.5 209.5 217.2L209.5 217.2L209.5 235.5Q209.5 237.2 208.5 238.2Q207.5 239.2 206.0 239.2L206.0 239.2Q204.4 239.2 203.5 238.3Q202.6 237.4 202.5 235.8L202.5 235.8L202.5 233.6L202.3 233.6Q201.0 236.1 198.3 237.6Q195.7 239.1 192.6 239.1ZM194.9 233.6L194.9 233.6Q198.0 233.6 200.1 231.7Q202.3 229.8 202.3 227.1L202.3 227.1L202.3 224.7L195.1 225.1Q192.5 225.3 191.0 226.4Q189.6 227.6 189.6 229.4L189.6 229.4Q189.6 231.3 191.0 232.4Q192.5 233.6 194.9 233.6ZM227.4 239.2L227.4 239.2Q222.5 239.2 219.2 237.5Q215.8 235.8 214.7 233.0L214.7 233.0Q214.4 232.2 214.4 231.5L214.4 231.5Q214.4 230.2 215.3 229.4Q216.1 228.6 217.5 228.6L217.5 228.6Q219.3 228.6 220.6 230.4L220.6 230.4Q221.9 232.3 223.5 233.1Q225.1 233.9 227.6 233.9L227.6 233.9Q230.2 233.9 231.7 232.9Q233.3 231.8 233.3 230.1L233.3 230.1Q233.3 228.7 232.3 227.8Q231.3 227.0 228.9 226.4L228.9 226.4L223.9 225.3Q214.8 223.3 214.8 216.4L214.8 216.4Q214.8 212.1 218.3 209.5Q221.7 206.9 227.5 206.9L227.5 206.9Q231.9 206.9 235.1 208.8Q238.3 210.6 239.0 213.4L239.0 213.4Q239.2 214.0 239.2 214.5L239.2 214.5Q239.2 215.6 238.5 216.4Q237.7 217.1 236.4 217.1L236.4 217.1Q234.5 217.1 233.6 215.7L233.6 215.7Q232.5 214.0 231.0 213.1Q229.5 212.2 227.3 212.2L227.3 212.2Q224.9 212.2 223.4 213.3Q221.9 214.3 221.9 216.0L221.9 216.0Q221.9 218.8 226.5 219.8L226.5 219.8L231.4 220.9Q236.3 222.0 238.5 223.9Q240.6 225.9 240.6 229.3L240.6 229.3Q240.6 233.8 236.9 236.5Q233.3 239.2 227.4 239.2ZM259.0 239.2L259.0 239.2Q251.9 239.2 247.9 235.0Q243.9 230.7 243.9 223.2L243.9 223.2Q243.9 215.7 247.9 211.3Q251.9 206.9 258.6 206.9L258.6 206.9Q264.9 206.9 268.9 210.9Q272.9 215.0 272.9 221.4L272.9 221.4Q272.9 223.0 272.0 223.9Q271.1 224.8 269.5 224.8L269.5 224.8L251.2 224.8L251.2 225.0Q251.2 228.9 253.3 231.3Q255.4 233.6 258.9 233.6L258.9 233.6Q261.4 233.6 263.2 232.6Q264.9 231.7 266.7 229.4L266.7 229.4Q267.8 228.3 269.2 228.3L269.2 228.3Q270.4 228.3 271.3 229.0Q272.1 229.8 272.1 231.1L272.1 231.1Q272.1 231.9 271.6 232.9L271.6 232.9Q270.0 235.9 266.7 237.5Q263.4 239.2 259.0 239.2ZM251.2 220.0L251.2 220.0L265.7 220.0Q265.6 216.6 263.7 214.6Q261.7 212.5 258.6 212.5Q255.5 212.5 253.5 214.6Q251.4 216.7 251.2 220.0ZM289.2 239.1L289.2 239.1Q283.3 239.1 279.8 234.7Q276.3 230.4 276.3 223.0L276.3 223.0Q276.3 215.7 279.8 211.3Q283.3 207.0 289.2 207.0L289.2 207.0Q292.5 207.0 295.0 208.5Q297.5 210.1 298.8 212.7L298.8 212.7L299.0 212.7L299.0 199.6Q299.0 197.7 300.0 196.7Q300.9 195.7 302.6 195.7Q304.2 195.7 305.2 196.7Q306.3 197.7 306.3 199.6L306.3 199.6L306.3 235.5Q306.3 237.2 305.3 238.2Q304.3 239.2 302.6 239.2L302.6 239.2Q301.0 239.2 300.0 238.2Q299.0 237.2 299.0 235.5L299.0 235.5L299.0 233.1L298.8 233.1Q297.6 235.9 295.2 237.5Q292.7 239.1 289.2 239.1ZM291.4 233.1L291.4 233.1Q294.8 233.1 296.9 230.4Q299.0 227.7 299.0 223.1L299.0 223.1Q299.0 218.5 296.9 215.7Q294.8 213.0 291.4 213.0L291.4 213.0Q287.9 213.0 285.8 215.7Q283.8 218.4 283.8 223.1L283.8 223.1Q283.8 227.7 285.8 230.4Q287.8 233.1 291.4 233.1Z M331.7 238.1Q330.7 239.2 328.9 239.2Q327.1 239.2 326.1 238.1Q325.1 237.1 325.1 235.2L325.1 235.2L325.1 200.2Q325.1 198.4 326.1 197.3Q327.1 196.3 328.9 196.3L328.9 196.3L341.9 196.3Q348.7 196.3 352.6 199.8Q356.5 203.4 356.5 209.5L356.5 209.5Q356.5 213.6 354.5 216.8Q352.5 220.0 348.8 221.4L348.8 221.4L355.5 233.1Q356.3 234.5 356.3 235.7L356.3 235.7Q356.3 237.2 355.2 238.2Q354.2 239.2 352.5 239.2L352.5 239.2Q351.2 239.2 350.4 238.6Q349.6 238.0 348.7 236.4L348.7 236.4L341.1 222.7L332.7 222.7L332.7 235.2Q332.7 237.1 331.7 238.1ZM332.7 202.4L332.7 216.9L341.2 216.9Q344.8 216.9 346.8 215.0Q348.8 213.1 348.8 209.6L348.8 209.6Q348.8 206.3 346.7 204.4Q344.6 202.4 341.1 202.4L341.1 202.4L332.7 202.4ZM386.6 234.9Q382.5 239.2 375.6 239.2Q368.7 239.2 364.7 234.9Q360.6 230.6 360.6 223.1L360.6 223.1Q360.6 215.6 364.7 211.2Q368.8 206.9 375.6 206.9L375.6 206.9Q382.5 206.9 386.6 211.2Q390.7 215.6 390.7 223.1L390.7 223.1Q390.7 230.6 386.6 234.9ZM370.1 230.7Q372.1 233.4 375.6 233.4Q379.1 233.4 381.2 230.7Q383.2 228.0 383.2 223.1L383.2 223.1Q383.2 218.2 381.2 215.4Q379.1 212.7 375.6 212.7L375.6 212.7Q372.1 212.7 370.1 215.4Q368.0 218.2 368.0 223.1L368.0 223.1Q368.0 228.0 370.1 230.7ZM401.7 238.2Q400.7 239.2 399.1 239.2Q397.5 239.2 396.5 238.2Q395.5 237.3 395.5 235.5L395.5 235.5L395.5 199.6Q395.5 197.7 396.6 196.7Q397.6 195.7 399.2 195.7Q400.8 195.7 401.8 196.7Q402.8 197.7 402.8 199.6L402.8 199.6L402.8 212.9L403.0 212.9Q404.4 210.1 406.9 208.5Q409.5 207.0 412.7 207.0L412.7 207.0Q418.6 207.0 422.1 211.3Q425.5 215.6 425.5 223.1L425.5 223.1Q425.5 230.5 422.1 234.8Q418.6 239.1 412.7 239.1L412.7 239.1Q409.3 239.1 406.8 237.6Q404.2 236.0 402.8 233.3L402.8 233.3L402.7 233.3L402.7 235.5Q402.7 237.2 401.7 238.2ZM410.5 233.1L410.5 233.1Q414.0 233.1 416.0 230.4Q418.1 227.7 418.1 223.1Q418.1 218.4 416.0 215.7Q414.0 213.0 410.5 213.0L410.5 213.0Q407.1 213.0 405.0 215.8Q402.8 218.5 402.8 223.1L402.8 223.1Q402.8 227.6 405.0 230.3Q407.1 233.1 410.5 233.1ZM454.9 234.9Q450.9 239.2 444.0 239.2Q437.1 239.2 433.0 234.9Q428.9 230.6 428.9 223.1L428.9 223.1Q428.9 215.6 433.0 211.2Q437.1 206.9 444.0 206.9L444.0 206.9Q450.8 206.9 454.9 211.2Q459.0 215.6 459.0 223.1L459.0 223.1Q459.0 230.6 454.9 234.9ZM438.4 230.7Q440.5 233.4 444.0 233.4Q447.5 233.4 449.5 230.7Q451.6 228.0 451.6 223.1L451.6 223.1Q451.6 218.2 449.5 215.4Q447.5 212.7 444.0 212.7L444.0 212.7Q440.5 212.7 438.4 215.4Q436.4 218.2 436.4 223.1L436.4 223.1Q436.4 228.0 438.4 230.7ZM465.7 230.9L465.7 230.9L465.7 213.1L463.8 213.1Q462.4 213.1 461.6 212.4Q460.8 211.6 460.8 210.3L460.8 210.3Q460.8 209.0 461.6 208.3Q462.4 207.5 463.8 207.5L463.8 207.5L465.7 207.5L465.7 203.4Q465.7 201.6 466.7 200.6Q467.7 199.6 469.4 199.6L469.4 199.6Q471.0 199.6 472.0 200.6Q473.0 201.6 473.0 203.4L473.0 203.4L473.0 207.5L476.4 207.5Q477.8 207.5 478.5 208.3Q479.3 209.0 479.3 210.3L479.3 210.3Q479.3 211.6 478.5 212.4Q477.7 213.1 476.4 213.1L476.4 213.1L473.0 213.1L473.0 229.3Q473.0 231.1 473.7 231.9Q474.4 232.7 475.9 232.9L475.9 232.9L476.5 232.9Q479.4 233.2 479.4 235.6L479.4 235.6Q479.4 237.2 478.0 238.1Q476.7 238.9 474.2 238.9L474.2 238.9L473.9 238.9Q465.7 238.9 465.7 230.9Z M500.2 239.1L500.2 239.1Q498.5 239.1 497.5 238.1Q496.6 237.1 496.6 235.3L496.6 235.3L496.6 199.7Q496.6 197.9 497.6 196.8Q498.7 195.8 500.5 195.8L500.5 195.8Q501.7 195.8 502.6 196.3Q503.5 196.8 504.4 198.1L504.4 198.1L524.1 225.9L524.4 225.9L524.4 199.6Q524.4 197.8 525.3 196.8Q526.3 195.8 528.0 195.8L528.0 195.8Q529.7 195.8 530.7 196.8Q531.6 197.8 531.6 199.6L531.6 199.6L531.6 235.3Q531.6 237.1 530.6 238.1Q529.6 239.1 527.8 239.1L527.8 239.1Q526.5 239.1 525.6 238.6Q524.8 238.1 523.9 236.8L523.9 236.8L504.1 208.9L503.9 208.9L503.9 235.3Q503.9 237.1 502.9 238.1Q501.9 239.1 500.2 239.1ZM547.5 239.1L547.5 239.1Q542.9 239.1 540.0 236.5Q537.1 233.9 537.1 229.7L537.1 229.7Q537.1 225.6 540.2 223.2Q543.2 220.8 548.9 220.4L548.9 220.4L557.1 219.9L557.1 217.7Q557.1 215.3 555.6 213.9Q554.1 212.6 551.3 212.6L551.3 212.6Q549.2 212.6 547.7 213.4Q546.2 214.2 544.8 216.2L544.8 216.2Q543.7 217.7 541.9 217.7L541.9 217.7Q540.5 217.7 539.7 216.9Q538.8 216.1 538.8 214.8L538.8 214.8Q538.8 213.8 539.3 212.8L539.3 212.8Q540.5 210.1 543.8 208.5Q547.2 206.9 551.6 206.9L551.6 206.9Q557.4 206.9 560.9 209.7Q564.4 212.5 564.4 217.2L564.4 217.2L564.4 235.5Q564.4 237.2 563.4 238.2Q562.4 239.2 560.8 239.2L560.8 239.2Q559.3 239.2 558.3 238.3Q557.4 237.4 557.3 235.8L557.3 235.8L557.3 233.6L557.2 233.6Q555.9 236.1 553.2 237.6Q550.5 239.1 547.5 239.1ZM549.7 233.6L549.7 233.6Q552.8 233.6 555.0 231.7Q557.1 229.8 557.1 227.1L557.1 227.1L557.1 224.7L549.9 225.1Q547.3 225.3 545.9 226.4Q544.4 227.6 544.4 229.4L544.4 229.4Q544.4 231.3 545.9 232.4Q547.3 233.6 549.7 233.6ZM582.6 239.2L582.6 239.2Q580.6 239.2 579.4 238.3Q578.2 237.4 577.5 235.4L577.5 235.4L568.8 212.3Q568.4 211.2 568.4 210.2L568.4 210.2Q568.4 208.8 569.4 207.8Q570.4 206.9 572.0 206.9L572.0 206.9Q574.7 206.9 575.5 209.8L575.5 209.8L582.6 231.8L582.7 231.8L589.8 209.8Q590.6 206.9 593.2 206.9L593.2 206.9Q594.8 206.9 595.8 207.8Q596.8 208.8 596.8 210.2L596.8 210.2Q596.8 211.2 596.4 212.2L596.4 212.2L587.7 235.4Q587.0 237.3 585.8 238.3Q584.6 239.2 582.6 239.2ZM607.6 202.0Q606.4 203.2 604.7 203.2Q603.0 203.2 601.8 202.0Q600.7 200.8 600.7 199.2L600.7 199.2Q600.7 197.5 601.8 196.4Q603.0 195.2 604.7 195.2L604.7 195.2Q606.4 195.2 607.6 196.4Q608.8 197.5 608.8 199.2L608.8 199.2Q608.8 200.8 607.6 202.0ZM607.4 238.1Q606.4 239.2 604.7 239.2Q603.0 239.2 602.0 238.1Q601.1 237.1 601.1 235.3L601.1 235.3L601.1 210.7Q601.1 209.0 602.0 207.9Q603.0 206.9 604.7 206.9Q606.4 206.9 607.4 207.9Q608.4 209.0 608.4 210.8L608.4 210.8L608.4 235.3Q608.4 237.1 607.4 238.1ZM627.9 250.3L627.9 250.3Q623.5 250.2 620.2 248.7Q616.9 247.2 615.3 244.6L615.3 244.6Q614.7 243.6 614.7 242.4L614.7 242.4Q614.7 241.2 615.5 240.4Q616.3 239.6 617.7 239.6L617.7 239.6Q619.1 239.6 620.4 240.8L620.4 240.8Q622.2 242.7 624.0 243.6Q625.8 244.4 627.9 244.5L627.9 244.5Q631.6 244.5 633.7 242.6Q635.8 240.7 635.8 237.6L635.8 237.6L635.8 232.7L635.7 232.7Q634.5 235.2 631.9 236.7Q629.2 238.3 626.0 238.3L626.0 238.3Q620.1 238.3 616.7 234.0Q613.2 229.8 613.2 222.7L613.2 222.7Q613.2 215.4 616.7 211.2Q620.1 207.0 626.1 207.0L626.1 207.0Q629.4 207.0 631.9 208.5Q634.4 210.1 635.8 212.8L635.8 212.8L635.9 212.8L635.9 210.6Q635.9 208.9 636.9 207.9Q637.9 206.9 639.5 206.9Q641.1 206.9 642.2 207.9Q643.2 208.9 643.2 210.6L643.2 210.6L643.2 237.6Q643.2 243.5 639.1 246.9Q635.0 250.3 627.9 250.3ZM628.2 232.6L628.2 232.6Q631.7 232.6 633.8 229.9Q635.9 227.3 635.9 222.7L635.9 222.7Q635.9 218.2 633.8 215.5Q631.7 212.8 628.2 212.8L628.2 212.8Q624.7 212.8 622.7 215.5Q620.7 218.2 620.7 222.7L620.7 222.7Q620.7 227.3 622.7 230.0Q624.7 232.6 628.2 232.6ZM658.2 239.1L658.2 239.1Q653.7 239.1 650.8 236.5Q647.9 233.9 647.9 229.7L647.9 229.7Q647.9 225.6 650.9 223.2Q654.0 220.8 659.7 220.4L659.7 220.4L667.9 219.9L667.9 217.7Q667.9 215.3 666.4 213.9Q664.8 212.6 662.1 212.6L662.1 212.6Q659.9 212.6 658.4 213.4Q656.9 214.2 655.6 216.2L655.6 216.2Q654.5 217.7 652.6 217.7L652.6 217.7Q651.3 217.7 650.4 216.9Q649.6 216.1 649.6 214.8L649.6 214.8Q649.6 213.8 650.0 212.8L650.0 212.8Q651.2 210.1 654.6 208.5Q657.9 206.9 662.4 206.9L662.4 206.9Q668.2 206.9 671.6 209.7Q675.1 212.5 675.1 217.2L675.1 217.2L675.1 235.5Q675.1 237.2 674.1 238.2Q673.1 239.2 671.6 239.2L671.6 239.2Q670.0 239.2 669.1 238.3Q668.2 237.4 668.1 235.8L668.1 235.8L668.1 233.6L667.9 233.6Q666.6 236.1 663.9 237.6Q661.3 239.1 658.2 239.1ZM660.4 233.6L660.4 233.6Q663.6 233.6 665.7 231.7Q667.9 229.8 667.9 227.1L667.9 227.1L667.9 224.7L660.7 225.1Q658.0 225.3 656.6 226.4Q655.1 227.6 655.1 229.4L655.1 229.4Q655.1 231.3 656.6 232.4Q658.0 233.6 660.4 233.6ZM683.0 230.9L683.0 230.9L683.0 213.1L681.0 213.1Q679.7 213.1 678.9 212.4Q678.1 211.6 678.1 210.3L678.1 210.3Q678.1 209.0 678.9 208.3Q679.6 207.5 681.0 207.5L681.0 207.5L683.0 207.5L683.0 203.4Q683.0 201.6 684.0 200.6Q684.9 199.6 686.6 199.6L686.6 199.6Q688.3 199.6 689.3 200.6Q690.3 201.6 690.3 203.4L690.3 203.4L690.3 207.5L693.6 207.5Q695.0 207.5 695.8 208.3Q696.6 209.0 696.6 210.3L696.6 210.3Q696.6 211.6 695.8 212.4Q695.0 213.1 693.6 213.1L693.6 213.1L690.3 213.1L690.3 229.3Q690.3 231.1 690.9 231.9Q691.6 232.7 693.2 232.9L693.2 232.9L693.7 232.9Q696.7 233.2 696.7 235.6L696.7 235.6Q696.7 237.2 695.3 238.1Q694.0 238.9 691.4 238.9L691.4 238.9L691.2 238.9Q683.0 238.9 683.0 230.9ZM707.8 202.0Q706.6 203.2 704.9 203.2Q703.2 203.2 702.0 202.0Q700.8 200.8 700.8 199.2L700.8 199.2Q700.8 197.5 702.0 196.4Q703.2 195.2 704.9 195.2L704.9 195.2Q706.6 195.2 707.8 196.4Q709.0 197.5 709.0 199.2L709.0 199.2Q709.0 200.8 707.8 202.0ZM707.6 238.1Q706.6 239.2 704.9 239.2Q703.2 239.2 702.2 238.1Q701.3 237.1 701.3 235.3L701.3 235.3L701.3 210.7Q701.3 209.0 702.2 207.9Q703.2 206.9 704.9 206.9Q706.6 206.9 707.6 207.9Q708.6 209.0 708.6 210.8L708.6 210.8L708.6 235.3Q708.6 237.1 707.6 238.1ZM739.4 234.9Q735.3 239.2 728.4 239.2Q721.5 239.2 717.5 234.9Q713.4 230.6 713.4 223.1L713.4 223.1Q713.4 215.6 717.5 211.2Q721.6 206.9 728.4 206.9L728.4 206.9Q735.3 206.9 739.4 211.2Q743.4 215.6 743.4 223.1L743.4 223.1Q743.4 230.6 739.4 234.9ZM722.9 230.7Q724.9 233.4 728.4 233.4Q731.9 233.4 734.0 230.7Q736.0 228.0 736.0 223.1L736.0 223.1Q736.0 218.2 734.0 215.4Q731.9 212.7 728.4 212.7L728.4 212.7Q724.9 212.7 722.9 215.4Q720.8 218.2 720.8 223.1L720.8 223.1Q720.8 228.0 722.9 230.7ZM754.4 238.2Q753.4 239.2 751.8 239.2Q750.1 239.2 749.1 238.2Q748.1 237.1 748.1 235.3L748.1 235.3L748.1 210.6Q748.1 208.9 749.1 207.9Q750.0 206.9 751.6 206.9Q753.2 206.9 754.2 207.9Q755.2 208.9 755.2 210.6L755.2 210.6L755.2 212.8L755.4 212.8Q758.0 206.9 765.0 206.9L765.0 206.9Q770.1 206.9 773.0 210.0Q775.8 213.1 775.8 218.5L775.8 218.5L775.8 235.3Q775.8 237.1 774.8 238.2Q773.8 239.2 772.2 239.2Q770.5 239.2 769.5 238.2Q768.5 237.1 768.5 235.3L768.5 235.3L768.5 220.0Q768.5 216.6 766.9 214.9Q765.4 213.1 762.3 213.1L762.3 213.1Q759.2 213.1 757.3 215.2Q755.4 217.2 755.4 220.6L755.4 220.6L755.4 235.3Q755.4 237.1 754.4 238.2Z M804.5 239.1L804.5 239.1Q799.4 239.1 796.5 236.0Q793.5 233.0 793.5 227.6L793.5 227.6L793.5 210.7Q793.5 209.0 794.5 207.9Q795.5 206.9 797.1 206.9Q798.8 206.9 799.8 207.9Q800.8 209.0 800.8 210.8L800.8 210.8L800.8 226.1Q800.8 229.5 802.4 231.2Q804.0 233.0 807.1 233.0L807.1 233.0Q810.2 233.0 812.0 230.9Q813.9 228.9 813.9 225.5L813.9 225.5L813.9 210.7Q813.9 209.0 814.9 207.9Q815.9 206.9 817.5 206.9L817.5 206.9Q819.2 206.9 820.2 207.9Q821.2 209.0 821.2 210.8L821.2 210.8L821.2 235.5Q821.2 237.2 820.2 238.2Q819.3 239.2 817.7 239.2L817.7 239.2Q816.1 239.2 815.1 238.2Q814.1 237.2 814.1 235.5L814.1 235.5L814.1 233.2L814.0 233.2Q811.4 239.1 804.5 239.1ZM839.1 239.2L839.1 239.2Q834.3 239.2 830.9 237.5Q827.6 235.8 826.4 233.0L826.4 233.0Q826.2 232.2 826.2 231.5L826.2 231.5Q826.2 230.2 827.0 229.4Q827.9 228.6 829.2 228.6L829.2 228.6Q831.0 228.6 832.4 230.4L832.4 230.4Q833.6 232.3 835.2 233.1Q836.8 233.9 839.4 233.9L839.4 233.9Q841.9 233.9 843.5 232.9Q845.0 231.8 845.0 230.1L845.0 230.1Q845.0 228.7 844.0 227.8Q843.0 227.0 840.7 226.4L840.7 226.4L835.6 225.3Q826.6 223.3 826.6 216.4L826.6 216.4Q826.6 212.1 830.0 209.5Q833.5 206.9 839.2 206.9L839.2 206.9Q843.6 206.9 846.8 208.8Q850.1 210.6 850.8 213.4L850.8 213.4Q850.9 214.0 850.9 214.5L850.9 214.5Q850.9 215.6 850.2 216.4Q849.5 217.1 848.1 217.1L848.1 217.1Q846.3 217.1 845.3 215.7L845.3 215.7Q844.2 214.0 842.7 213.1Q841.2 212.2 839.0 212.2L839.0 212.2Q836.6 212.2 835.1 213.3Q833.7 214.3 833.7 216.0L833.7 216.0Q833.7 218.8 838.2 219.8L838.2 219.8L843.2 220.9Q848.1 222.0 850.2 223.9Q852.3 225.9 852.3 229.3L852.3 229.3Q852.3 233.8 848.7 236.5Q845.0 239.2 839.1 239.2ZM863.6 202.0Q862.5 203.2 860.8 203.2Q859.1 203.2 857.9 202.0Q856.7 200.8 856.7 199.2L856.7 199.2Q856.7 197.5 857.9 196.4Q859.1 195.2 860.8 195.2L860.8 195.2Q862.5 195.2 863.7 196.4Q864.8 197.5 864.8 199.2L864.8 199.2Q864.8 200.8 863.6 202.0ZM863.4 238.1Q862.4 239.2 860.8 239.2Q859.1 239.2 858.1 238.1Q857.1 237.1 857.1 235.3L857.1 235.3L857.1 210.7Q857.1 209.0 858.1 207.9Q859.1 206.9 860.8 206.9Q862.4 206.9 863.4 207.9Q864.4 209.0 864.4 210.8L864.4 210.8L864.4 235.3Q864.4 237.1 863.4 238.1ZM876.8 238.2Q875.8 239.2 874.2 239.2Q872.5 239.2 871.5 238.2Q870.5 237.1 870.5 235.3L870.5 235.3L870.5 210.6Q870.5 208.9 871.5 207.9Q872.4 206.9 874.0 206.9Q875.6 206.9 876.6 207.9Q877.6 208.9 877.6 210.6L877.6 210.6L877.6 212.8L877.8 212.8Q880.4 206.9 887.4 206.9L887.4 206.9Q892.5 206.9 895.4 210.0Q898.2 213.1 898.2 218.5L898.2 218.5L898.2 235.3Q898.2 237.1 897.2 238.2Q896.2 239.2 894.6 239.2Q892.9 239.2 891.9 238.2Q890.9 237.1 890.9 235.3L890.9 235.3L890.9 220.0Q890.9 216.6 889.3 214.9Q887.8 213.1 884.7 213.1L884.7 213.1Q881.6 213.1 879.7 215.2Q877.8 217.2 877.8 220.6L877.8 220.6L877.8 235.3Q877.8 237.1 876.8 238.2ZM917.4 250.3L917.4 250.3Q913.0 250.2 909.7 248.7Q906.4 247.2 904.8 244.6L904.8 244.6Q904.2 243.6 904.2 242.4L904.2 242.4Q904.2 241.2 905.0 240.4Q905.9 239.6 907.2 239.6L907.2 239.6Q908.7 239.6 909.9 240.8L909.9 240.8Q911.8 242.7 913.5 243.6Q915.3 244.4 917.5 244.5L917.5 244.5Q921.1 244.5 923.3 242.6Q925.4 240.7 925.4 237.6L925.4 237.6L925.4 232.7L925.2 232.7Q924.0 235.2 921.4 236.7Q918.8 238.3 915.5 238.3L915.5 238.3Q909.6 238.3 906.2 234.0Q902.7 229.8 902.7 222.7L902.7 222.7Q902.7 215.4 906.2 211.2Q909.6 207.0 915.7 207.0L915.7 207.0Q918.9 207.0 921.4 208.5Q923.9 210.1 925.3 212.8L925.3 212.8L925.4 212.8L925.4 210.6Q925.4 208.9 926.4 207.9Q927.5 206.9 929.1 206.9Q930.7 206.9 931.7 207.9Q932.7 208.9 932.7 210.6L932.7 210.6L932.7 237.6Q932.7 243.5 928.6 246.9Q924.6 250.3 917.4 250.3ZM917.7 232.6L917.7 232.6Q921.3 232.6 923.3 229.9Q925.4 227.3 925.4 222.7L925.4 222.7Q925.4 218.2 923.3 215.5Q921.2 212.8 917.7 212.8L917.7 212.8Q914.3 212.8 912.2 215.5Q910.2 218.2 910.2 222.7L910.2 222.7Q910.2 227.3 912.2 230.0Q914.3 232.6 917.7 232.6Z M50.3 320.6Q49.3 321.7 47.5 321.7Q45.7 321.7 44.7 320.6Q43.7 319.6 43.7 317.7L43.7 317.7L43.7 282.7Q43.7 280.9 44.7 279.8Q45.7 278.8 47.5 278.8L47.5 278.8L60.5 278.8Q67.3 278.8 71.2 282.3Q75.1 285.9 75.1 292.0L75.1 292.0Q75.1 296.1 73.1 299.3Q71.1 302.5 67.4 303.9L67.4 303.9L74.1 315.6Q74.9 317.0 74.9 318.2L74.9 318.2Q74.9 319.7 73.8 320.7Q72.8 321.7 71.1 321.7L71.1 321.7Q69.8 321.7 69.0 321.1Q68.2 320.5 67.3 318.9L67.3 318.9L59.7 305.2L51.3 305.2L51.3 317.7Q51.3 319.6 50.3 320.6ZM51.3 284.9L51.3 299.4L59.8 299.4Q63.4 299.4 65.4 297.5Q67.4 295.6 67.4 292.1L67.4 292.1Q67.4 288.8 65.3 286.9Q63.2 284.9 59.7 284.9L59.7 284.9L51.3 284.9ZM94.3 321.7L94.3 321.7Q87.2 321.7 83.2 317.5Q79.2 313.2 79.2 305.7L79.2 305.7Q79.2 298.2 83.2 293.8Q87.2 289.4 93.9 289.4L93.9 289.4Q100.2 289.4 104.2 293.4Q108.2 297.5 108.2 303.9L108.2 303.9Q108.2 305.5 107.3 306.4Q106.4 307.3 104.8 307.3L104.8 307.3L86.5 307.3L86.5 307.5Q86.5 311.4 88.6 313.8Q90.7 316.1 94.2 316.1L94.2 316.1Q96.7 316.1 98.5 315.1Q100.2 314.2 102.0 311.9L102.0 311.9Q103.0 310.8 104.5 310.8L104.5 310.8Q105.7 310.8 106.5 311.5Q107.4 312.3 107.4 313.6L107.4 313.6Q107.4 314.4 106.9 315.4L106.9 315.4Q105.3 318.4 102.0 320.0Q98.7 321.7 94.3 321.7ZM86.5 302.5L86.5 302.5L101.0 302.5Q100.9 299.1 98.9 297.1Q97.0 295.0 93.9 295.0Q90.8 295.0 88.8 297.1Q86.7 299.2 86.5 302.5ZM119.4 320.7Q118.4 321.7 116.7 321.7Q115.1 321.7 114.1 320.7Q113.1 319.6 113.1 317.8L113.1 317.8L113.1 282.1Q113.1 280.2 114.1 279.2Q115.1 278.2 116.7 278.2Q118.4 278.2 119.4 279.2Q120.4 280.2 120.4 282.1L120.4 282.1L120.4 317.8Q120.4 319.6 119.4 320.7ZM135.7 321.6L135.7 321.6Q131.1 321.6 128.2 319.0Q125.3 316.4 125.3 312.2L125.3 312.2Q125.3 308.1 128.4 305.7Q131.4 303.3 137.1 302.9L137.1 302.9L145.4 302.4L145.4 300.2Q145.4 297.8 143.8 296.4Q142.3 295.1 139.6 295.1L139.6 295.1Q137.4 295.1 135.9 295.9Q134.4 296.7 133.0 298.7L133.0 298.7Q131.9 300.2 130.1 300.2L130.1 300.2Q128.7 300.2 127.9 299.4Q127.0 298.6 127.0 297.3L127.0 297.3Q127.0 296.3 127.5 295.3L127.5 295.3Q128.7 292.6 132.0 291.0Q135.4 289.4 139.8 289.4L139.8 289.4Q145.6 289.4 149.1 292.2Q152.6 295.0 152.6 299.7L152.6 299.7L152.6 318.0Q152.6 319.7 151.6 320.7Q150.6 321.7 149.0 321.7L149.0 321.7Q147.5 321.7 146.6 320.8Q145.6 319.9 145.5 318.3L145.5 318.3L145.5 316.1L145.4 316.1Q144.1 318.6 141.4 320.1Q138.7 321.6 135.7 321.6ZM137.9 316.1L137.9 316.1Q141.0 316.1 143.2 314.2Q145.4 312.3 145.4 309.6L145.4 309.6L145.4 307.2L138.1 307.6Q135.5 307.8 134.1 308.9Q132.6 310.1 132.6 311.9L132.6 311.9Q132.6 313.8 134.1 314.9Q135.5 316.1 137.9 316.1ZM160.4 313.4L160.4 313.4L160.4 295.6L158.5 295.6Q157.1 295.6 156.3 294.9Q155.5 294.1 155.5 292.8L155.5 292.8Q155.5 291.5 156.3 290.8Q157.1 290.0 158.5 290.0L158.5 290.0L160.4 290.0L160.4 285.9Q160.4 284.1 161.4 283.1Q162.4 282.1 164.1 282.1L164.1 282.1Q165.8 282.1 166.8 283.1Q167.7 284.1 167.7 285.9L167.7 285.9L167.7 290.0L171.1 290.0Q172.5 290.0 173.3 290.8Q174.0 291.5 174.0 292.8L174.0 292.8Q174.0 294.1 173.2 294.9Q172.5 295.6 171.1 295.6L171.1 295.6L167.7 295.6L167.7 311.8Q167.7 313.6 168.4 314.4Q169.1 315.2 170.7 315.4L170.7 315.4L171.2 315.4Q174.1 315.7 174.1 318.1L174.1 318.1Q174.1 319.7 172.8 320.6Q171.4 321.4 168.9 321.4L168.9 321.4L168.6 321.4Q160.4 321.4 160.4 313.4ZM185.2 284.5Q184.1 285.7 182.4 285.7Q180.7 285.7 179.5 284.5Q178.3 283.3 178.3 281.7L178.3 281.7Q178.3 280.0 179.5 278.9Q180.7 277.7 182.4 277.7L182.4 277.7Q184.1 277.7 185.3 278.9Q186.4 280.0 186.4 281.7L186.4 281.7Q186.4 283.3 185.2 284.5ZM185.0 320.6Q184.0 321.7 182.4 321.7Q180.7 321.7 179.7 320.6Q178.7 319.6 178.7 317.8L178.7 317.8L178.7 293.2Q178.7 291.5 179.7 290.4Q180.7 289.4 182.4 289.4Q184.0 289.4 185.0 290.4Q186.0 291.5 186.0 293.3L186.0 293.3L186.0 317.8Q186.0 319.6 185.0 320.6ZM204.6 321.7L204.6 321.7Q202.5 321.7 201.4 320.8Q200.2 319.9 199.4 317.9L199.4 317.9L190.7 294.8Q190.3 293.7 190.3 292.7L190.3 292.7Q190.3 291.3 191.3 290.3Q192.3 289.4 194.0 289.4L194.0 289.4Q196.6 289.4 197.4 292.3L197.4 292.3L204.5 314.3L204.6 314.3L211.7 292.3Q212.6 289.4 215.2 289.4L215.2 289.4Q216.7 289.4 217.7 290.3Q218.7 291.3 218.7 292.7L218.7 292.7Q218.7 293.7 218.3 294.7L218.3 294.7L209.6 317.9Q208.9 319.8 207.7 320.8Q206.5 321.7 204.6 321.7ZM229.5 284.5Q228.3 285.7 226.6 285.7Q224.9 285.7 223.8 284.5Q222.6 283.3 222.6 281.7L222.6 281.7Q222.6 280.0 223.8 278.9Q224.9 277.7 226.6 277.7L226.6 277.7Q228.3 277.7 229.5 278.9Q230.7 280.0 230.7 281.7L230.7 281.7Q230.7 283.3 229.5 284.5ZM229.3 320.6Q228.3 321.7 226.6 321.7Q225.0 321.7 224.0 320.6Q223.0 319.6 223.0 317.8L223.0 317.8L223.0 293.2Q223.0 291.5 224.0 290.4Q225.0 289.4 226.6 289.4Q228.3 289.4 229.3 290.4Q230.3 291.5 230.3 293.3L230.3 293.3L230.3 317.8Q230.3 319.6 229.3 320.6ZM248.4 321.7L248.4 321.7Q243.6 321.7 240.2 320.0Q236.9 318.3 235.7 315.5L235.7 315.5Q235.4 314.7 235.4 314.0L235.4 314.0Q235.4 312.7 236.3 311.9Q237.1 311.1 238.5 311.1L238.5 311.1Q240.3 311.1 241.7 312.9L241.7 312.9Q242.9 314.8 244.5 315.6Q246.1 316.4 248.7 316.4L248.7 316.4Q251.2 316.4 252.8 315.4Q254.3 314.3 254.3 312.6L254.3 312.6Q254.3 311.2 253.3 310.3Q252.3 309.5 249.9 308.9L249.9 308.9L244.9 307.8Q235.8 305.8 235.8 298.9L235.8 298.9Q235.8 294.6 239.3 292.0Q242.8 289.4 248.5 289.4L248.5 289.4Q252.9 289.4 256.1 291.3Q259.3 293.1 260.1 295.9L260.1 295.9Q260.2 296.5 260.2 297.0L260.2 297.0Q260.2 298.1 259.5 298.9Q258.8 299.6 257.4 299.6L257.4 299.6Q255.6 299.6 254.6 298.2L254.6 298.2Q253.5 296.5 252.0 295.6Q250.5 294.7 248.3 294.7L248.3 294.7Q245.9 294.7 244.4 295.8Q242.9 296.8 242.9 298.5L242.9 298.5Q242.9 301.3 247.5 302.3L247.5 302.3L252.5 303.4Q257.4 304.5 259.5 306.4Q261.6 308.4 261.6 311.8L261.6 311.8Q261.6 316.3 258.0 319.0Q254.3 321.7 248.4 321.7ZM268.3 313.4L268.3 313.4L268.3 295.6L266.3 295.6Q264.9 295.6 264.2 294.9Q263.4 294.1 263.4 292.8L263.4 292.8Q263.4 291.5 264.1 290.8Q264.9 290.0 266.3 290.0L266.3 290.0L268.3 290.0L268.3 285.9Q268.3 284.1 269.2 283.1Q270.2 282.1 271.9 282.1L271.9 282.1Q273.6 282.1 274.6 283.1Q275.5 284.1 275.5 285.9L275.5 285.9L275.5 290.0L278.9 290.0Q280.3 290.0 281.1 290.8Q281.8 291.5 281.8 292.8L281.8 292.8Q281.8 294.1 281.1 294.9Q280.3 295.6 278.9 295.6L278.9 295.6L275.5 295.6L275.5 311.8Q275.5 313.6 276.2 314.4Q276.9 315.2 278.5 315.4L278.5 315.4L279.0 315.4Q281.9 315.7 281.9 318.1L281.9 318.1Q281.9 319.7 280.6 320.6Q279.2 321.4 276.7 321.4L276.7 321.4L276.4 321.4Q268.3 321.4 268.3 313.4ZM293.1 284.5Q291.9 285.7 290.2 285.7Q288.5 285.7 287.3 284.5Q286.1 283.3 286.1 281.7L286.1 281.7Q286.1 280.0 287.3 278.9Q288.5 277.7 290.2 277.7L290.2 277.7Q291.9 277.7 293.1 278.9Q294.2 280.0 294.2 281.7L294.2 281.7Q294.2 283.3 293.1 284.5ZM292.8 320.6Q291.8 321.7 290.2 321.7Q288.5 321.7 287.5 320.6Q286.5 319.6 286.5 317.8L286.5 317.8L286.5 293.2Q286.5 291.5 287.5 290.4Q288.5 289.4 290.2 289.4Q291.8 289.4 292.8 290.4Q293.8 291.5 293.8 293.3L293.8 293.3L293.8 317.8Q293.8 319.6 292.8 320.6ZM313.6 321.7L313.6 321.7Q306.8 321.7 302.7 317.4Q298.7 313.0 298.7 305.6L298.7 305.6Q298.7 298.2 302.7 293.8Q306.7 289.4 313.5 289.4L313.5 289.4Q318.1 289.4 321.6 291.5Q325.2 293.6 326.3 296.9L326.3 296.9Q326.7 297.9 326.7 298.6L326.7 298.6Q326.7 300.0 325.8 300.8Q324.9 301.6 323.6 301.6L323.6 301.6Q322.5 301.6 321.7 301.1Q321.0 300.6 320.4 299.5L320.4 299.5Q318.1 295.3 313.8 295.3L313.8 295.3Q310.2 295.3 308.2 298.1Q306.1 300.8 306.1 305.6L306.1 305.6Q306.1 310.4 308.1 313.1Q310.2 315.8 313.7 315.8L313.7 315.8Q318.1 315.8 320.3 311.8L320.3 311.8Q321.1 310.6 321.8 310.1Q322.5 309.6 323.7 309.6L323.7 309.6Q325.0 309.6 325.9 310.4Q326.8 311.2 326.8 312.6L326.8 312.6Q326.8 313.4 326.3 314.4L326.3 314.4Q325.0 317.6 321.5 319.7Q318.0 321.7 313.6 321.7Z M348.2 321.6L348.2 321.6Q346.4 321.6 345.4 320.5Q344.4 319.5 344.4 317.7L344.4 317.7L344.4 282.2Q344.4 280.4 345.4 279.3Q346.4 278.3 348.2 278.3L348.2 278.3Q350.0 278.3 351.0 279.3Q352.0 280.4 352.0 282.2L352.0 282.2L352.0 317.7Q352.0 319.5 351.0 320.6Q350.0 321.6 348.2 321.6ZM362.3 321.7L362.3 321.7Q360.7 321.7 359.7 320.7Q358.7 319.6 358.7 317.8L358.7 317.8L358.7 293.1Q358.7 291.4 359.6 290.4Q360.6 289.4 362.2 289.4Q363.8 289.4 364.7 290.4Q365.7 291.4 365.7 293.1L365.7 293.1L365.7 295.4L365.8 295.4Q366.9 292.7 369.2 291.0Q371.6 289.4 374.7 289.4L374.7 289.4Q378.0 289.4 380.2 291.1Q382.5 292.7 383.4 295.7L383.4 295.7L383.5 295.7Q384.6 292.8 387.2 291.1Q389.8 289.4 393.2 289.4L393.2 289.4Q397.8 289.4 400.6 292.3Q403.3 295.1 403.3 299.8L403.3 299.8L403.3 317.8Q403.3 319.6 402.3 320.6Q401.3 321.7 399.7 321.7L399.7 321.7Q398.0 321.7 397.0 320.6Q396.0 319.6 396.0 317.8L396.0 317.8L396.0 301.6Q396.0 298.7 394.6 297.1Q393.1 295.6 390.5 295.6L390.5 295.6Q387.8 295.6 386.2 297.3Q384.6 299.1 384.6 301.9L384.6 301.9L384.6 317.8Q384.6 319.6 383.6 320.7Q382.7 321.7 381.0 321.7L381.0 321.7Q379.3 321.7 378.4 320.7Q377.5 319.6 377.5 317.8L377.5 317.8L377.5 301.2Q377.5 298.6 376.0 297.1Q374.5 295.6 372.0 295.6L372.0 295.6Q369.3 295.6 367.7 297.4Q366.0 299.3 366.0 302.1L366.0 302.1L366.0 317.8Q366.0 319.6 365.0 320.6Q364.0 321.7 362.3 321.7ZM418.3 321.6L418.3 321.6Q413.7 321.6 410.8 319.0Q407.9 316.4 407.9 312.2L407.9 312.2Q407.9 308.1 411.0 305.7Q414.0 303.3 419.7 302.9L419.7 302.9L427.9 302.4L427.9 300.2Q427.9 297.8 426.4 296.4Q424.9 295.1 422.1 295.1L422.1 295.1Q420.0 295.1 418.5 295.9Q417.0 296.7 415.6 298.7L415.6 298.7Q414.5 300.2 412.7 300.2L412.7 300.2Q411.3 300.2 410.5 299.4Q409.6 298.6 409.6 297.3L409.6 297.3Q409.6 296.3 410.1 295.3L410.1 295.3Q411.3 292.6 414.6 291.0Q418.0 289.4 422.4 289.4L422.4 289.4Q428.2 289.4 431.7 292.2Q435.2 295.0 435.2 299.7L435.2 299.7L435.2 318.0Q435.2 319.7 434.2 320.7Q433.2 321.7 431.6 321.7L431.6 321.7Q430.1 321.7 429.2 320.8Q428.2 319.9 428.1 318.3L428.1 318.3L428.1 316.1L428.0 316.1Q426.7 318.6 424.0 320.1Q421.3 321.6 418.3 321.6ZM420.5 316.1L420.5 316.1Q423.6 316.1 425.8 314.2Q427.9 312.3 427.9 309.6L427.9 309.6L427.9 307.2L420.7 307.6Q418.1 307.8 416.7 308.9Q415.2 310.1 415.2 311.9L415.2 311.9Q415.2 313.8 416.7 314.9Q418.1 316.1 420.5 316.1ZM454.4 332.8L454.4 332.8Q450.0 332.7 446.7 331.2Q443.4 329.7 441.8 327.1L441.8 327.1Q441.2 326.1 441.2 324.9L441.2 324.9Q441.2 323.7 442.0 322.9Q442.9 322.1 444.2 322.1L444.2 322.1Q445.6 322.1 446.9 323.3L446.9 323.3Q448.8 325.2 450.5 326.1Q452.3 326.9 454.5 327.0L454.5 327.0Q458.1 327.0 460.2 325.1Q462.4 323.2 462.4 320.1L462.4 320.1L462.4 315.2L462.2 315.2Q461.0 317.7 458.4 319.2Q455.8 320.8 452.5 320.8L452.5 320.8Q446.6 320.8 443.2 316.5Q439.7 312.3 439.7 305.2L439.7 305.2Q439.7 297.9 443.2 293.7Q446.6 289.5 452.6 289.5L452.6 289.5Q455.9 289.5 458.4 291.0Q460.9 292.6 462.3 295.3L462.3 295.3L462.4 295.3L462.4 293.1Q462.4 291.4 463.4 290.4Q464.5 289.4 466.1 289.4Q467.7 289.4 468.7 290.4Q469.7 291.4 469.7 293.1L469.7 293.1L469.7 320.1Q469.7 326.0 465.6 329.4Q461.6 332.8 454.4 332.8ZM454.7 315.1L454.7 315.1Q458.2 315.1 460.3 312.4Q462.4 309.8 462.4 305.2L462.4 305.2Q462.4 300.7 460.3 298.0Q458.2 295.3 454.7 295.3L454.7 295.3Q451.3 295.3 449.2 298.0Q447.2 300.7 447.2 305.2L447.2 305.2Q447.2 309.8 449.2 312.5Q451.3 315.1 454.7 315.1ZM489.4 321.7L489.4 321.7Q482.3 321.7 478.3 317.5Q474.4 313.2 474.4 305.7L474.4 305.7Q474.4 298.2 478.3 293.8Q482.3 289.4 489.0 289.4L489.0 289.4Q495.4 289.4 499.4 293.4Q503.3 297.5 503.3 303.9L503.3 303.9Q503.3 305.5 502.4 306.4Q501.5 307.3 499.9 307.3L499.9 307.3L481.6 307.3L481.6 307.5Q481.6 311.4 483.7 313.8Q485.8 316.1 489.4 316.1L489.4 316.1Q491.8 316.1 493.6 315.1Q495.4 314.2 497.1 311.9L497.1 311.9Q498.2 310.8 499.6 310.8L499.6 310.8Q500.9 310.8 501.7 311.5Q502.5 312.3 502.5 313.6L502.5 313.6Q502.5 314.4 502.0 315.4L502.0 315.4Q500.5 318.4 497.2 320.0Q493.9 321.7 489.4 321.7ZM481.7 302.5L481.7 302.5L496.2 302.5Q496.1 299.1 494.1 297.1Q492.1 295.0 489.1 295.0Q486.0 295.0 483.9 297.1Q481.9 299.2 481.7 302.5Z M524.5 321.6L524.5 321.6Q522.8 321.6 521.8 320.5Q520.8 319.5 520.8 317.7L520.8 317.7L520.8 282.7Q520.8 280.9 521.8 279.8Q522.8 278.8 524.5 278.8L524.5 278.8L537.2 278.8Q543.5 278.8 547.5 282.7Q551.4 286.6 551.4 293.0L551.4 293.0Q551.4 299.3 547.4 303.2Q543.3 307.1 536.9 307.1L536.9 307.1L528.3 307.1L528.3 317.7Q528.3 319.5 527.3 320.6Q526.3 321.6 524.5 321.6ZM528.3 285.0L528.3 301.0L535.2 301.0Q539.2 301.0 541.5 298.9Q543.8 296.8 543.8 293.0L543.8 293.0Q543.8 289.1 541.5 287.1Q539.3 285.0 535.2 285.0L535.2 285.0L528.3 285.0ZM562.5 320.6Q561.5 321.7 559.8 321.7Q558.2 321.7 557.2 320.6Q556.2 319.6 556.2 317.8L556.2 317.8L556.2 293.1Q556.2 291.4 557.2 290.4Q558.1 289.4 559.7 289.4L559.7 289.4Q561.2 289.4 562.2 290.4Q563.2 291.4 563.2 293.1L563.2 293.1L563.2 295.5L563.3 295.5Q563.9 292.8 565.8 291.1Q567.6 289.5 570.0 289.5L570.0 289.5Q571.7 289.5 572.5 290.3L572.5 290.3Q573.6 291.1 573.6 292.9L573.6 292.9Q573.6 294.6 572.5 295.5L572.5 295.5Q571.4 296.4 569.2 296.5L569.2 296.5Q563.5 296.5 563.5 302.9L563.5 302.9L563.5 317.8Q563.5 319.6 562.5 320.6ZM601.5 317.4Q597.5 321.7 590.6 321.7Q583.7 321.7 579.6 317.4Q575.5 313.1 575.5 305.6L575.5 305.6Q575.5 298.1 579.6 293.7Q583.8 289.4 590.6 289.4L590.6 289.4Q597.4 289.4 601.5 293.7Q605.6 298.1 605.6 305.6L605.6 305.6Q605.6 313.1 601.5 317.4ZM585.0 313.2Q587.1 315.9 590.6 315.9Q594.1 315.9 596.1 313.2Q598.2 310.5 598.2 305.6L598.2 305.6Q598.2 300.7 596.1 297.9Q594.1 295.2 590.6 295.2L590.6 295.2Q587.1 295.2 585.0 297.9Q583.0 300.7 583.0 305.6L583.0 305.6Q583.0 310.5 585.0 313.2ZM623.9 321.7L623.9 321.7Q617.1 321.7 613.1 317.4Q609.0 313.0 609.0 305.6L609.0 305.6Q609.0 298.2 613.0 293.8Q617.1 289.4 623.9 289.4L623.9 289.4Q628.4 289.4 632.0 291.5Q635.5 293.6 636.7 296.9L636.7 296.9Q637.0 297.9 637.0 298.6L637.0 298.6Q637.0 300.0 636.1 300.8Q635.3 301.6 633.9 301.6L633.9 301.6Q632.8 301.6 632.1 301.1Q631.4 300.6 630.7 299.5L630.7 299.5Q628.4 295.3 624.1 295.3L624.1 295.3Q620.6 295.3 618.5 298.1Q616.4 300.8 616.4 305.6L616.4 305.6Q616.4 310.4 618.5 313.1Q620.5 315.8 624.1 315.8L624.1 315.8Q628.4 315.8 630.7 311.8L630.7 311.8Q631.4 310.6 632.2 310.1Q632.9 309.6 634.1 309.6L634.1 309.6Q635.4 309.6 636.3 310.4Q637.1 311.2 637.1 312.6L637.1 312.6Q637.1 313.4 636.7 314.4L636.7 314.4Q635.4 317.6 631.8 319.7Q628.3 321.7 623.9 321.7ZM655.8 321.7L655.8 321.7Q648.7 321.7 644.7 317.5Q640.7 313.2 640.7 305.7L640.7 305.7Q640.7 298.2 644.7 293.8Q648.7 289.4 655.4 289.4L655.4 289.4Q661.8 289.4 665.7 293.4Q669.7 297.5 669.7 303.9L669.7 303.9Q669.7 305.5 668.8 306.4Q667.9 307.3 666.3 307.3L666.3 307.3L648.0 307.3L648.0 307.5Q648.0 311.4 650.1 313.8Q652.2 316.1 655.8 316.1L655.8 316.1Q658.2 316.1 660.0 315.1Q661.8 314.2 663.5 311.9L663.5 311.9Q664.6 310.8 666.0 310.8L666.0 310.8Q667.2 310.8 668.1 311.5Q668.9 312.3 668.9 313.6L668.9 313.6Q668.9 314.4 668.4 315.4L668.4 315.4Q666.9 318.4 663.6 320.0Q660.2 321.7 655.8 321.7ZM648.1 302.5L648.1 302.5L662.6 302.5Q662.4 299.1 660.5 297.1Q658.5 295.0 655.4 295.0Q652.4 295.0 650.3 297.1Q648.3 299.2 648.1 302.5ZM686.4 321.7L686.4 321.7Q681.5 321.7 678.2 320.0Q674.9 318.3 673.7 315.5L673.7 315.5Q673.4 314.7 673.4 314.0L673.4 314.0Q673.4 312.7 674.3 311.9Q675.1 311.1 676.5 311.1L676.5 311.1Q678.3 311.1 679.6 312.9L679.6 312.9Q680.9 314.8 682.5 315.6Q684.1 316.4 686.6 316.4L686.6 316.4Q689.2 316.4 690.8 315.4Q692.3 314.3 692.3 312.6L692.3 312.6Q692.3 311.2 691.3 310.3Q690.3 309.5 687.9 308.9L687.9 308.9L682.9 307.8Q673.8 305.8 673.8 298.9L673.8 298.9Q673.8 294.6 677.3 292.0Q680.8 289.4 686.5 289.4L686.5 289.4Q690.9 289.4 694.1 291.3Q697.3 293.1 698.1 295.9L698.1 295.9Q698.2 296.5 698.2 297.0L698.2 297.0Q698.2 298.1 697.5 298.9Q696.7 299.6 695.4 299.6L695.4 299.6Q693.6 299.6 692.6 298.2L692.6 298.2Q691.5 296.5 690.0 295.6Q688.5 294.7 686.3 294.7L686.3 294.7Q683.9 294.7 682.4 295.8Q680.9 296.8 680.9 298.5L680.9 298.5Q680.9 301.3 685.5 302.3L685.5 302.3L690.4 303.4Q695.4 304.5 697.5 306.4Q699.6 308.4 699.6 311.8L699.6 311.8Q699.6 316.3 696.0 319.0Q692.3 321.7 686.4 321.7ZM716.2 321.7L716.2 321.7Q711.4 321.7 708.0 320.0Q704.7 318.3 703.5 315.5L703.5 315.5Q703.3 314.7 703.3 314.0L703.3 314.0Q703.3 312.7 704.1 311.9Q705.0 311.1 706.3 311.1L706.3 311.1Q708.1 311.1 709.5 312.9L709.5 312.9Q710.7 314.8 712.3 315.6Q713.9 316.4 716.5 316.4L716.5 316.4Q719.0 316.4 720.6 315.4Q722.1 314.3 722.1 312.6L722.1 312.6Q722.1 311.2 721.1 310.3Q720.1 309.5 717.8 308.9L717.8 308.9L712.7 307.8Q703.7 305.8 703.7 298.9L703.7 298.9Q703.7 294.6 707.1 292.0Q710.6 289.4 716.3 289.4L716.3 289.4Q720.7 289.4 723.9 291.3Q727.2 293.1 727.9 295.9L727.9 295.9Q728.0 296.5 728.0 297.0L728.0 297.0Q728.0 298.1 727.3 298.9Q726.6 299.6 725.2 299.6L725.2 299.6Q723.4 299.6 722.4 298.2L722.4 298.2Q721.3 296.5 719.8 295.6Q718.3 294.7 716.1 294.7L716.1 294.7Q713.7 294.7 712.2 295.8Q710.8 296.8 710.8 298.5L710.8 298.5Q710.8 301.3 715.3 302.3L715.3 302.3L720.3 303.4Q725.2 304.5 727.3 306.4Q729.4 308.4 729.4 311.8L729.4 311.8Q729.4 316.3 725.8 319.0Q722.1 321.7 716.2 321.7ZM740.7 284.5Q739.6 285.7 737.9 285.7Q736.2 285.7 735.0 284.5Q733.8 283.3 733.8 281.7L733.8 281.7Q733.8 280.0 735.0 278.9Q736.2 277.7 737.9 277.7L737.9 277.7Q739.6 277.7 740.8 278.9Q741.9 280.0 741.9 281.7L741.9 281.7Q741.9 283.3 740.7 284.5ZM740.5 320.6Q739.5 321.7 737.9 321.7Q736.2 321.7 735.2 320.6Q734.2 319.6 734.2 317.8L734.2 317.8L734.2 293.2Q734.2 291.5 735.2 290.4Q736.2 289.4 737.9 289.4Q739.5 289.4 740.5 290.4Q741.5 291.5 741.5 293.3L741.5 293.3L741.5 317.8Q741.5 319.6 740.5 320.6ZM753.9 320.7Q752.9 321.7 751.3 321.7Q749.6 321.7 748.6 320.7Q747.6 319.6 747.6 317.8L747.6 317.8L747.6 293.1Q747.6 291.4 748.6 290.4Q749.5 289.4 751.1 289.4Q752.7 289.4 753.7 290.4Q754.7 291.4 754.7 293.1L754.7 293.1L754.7 295.3L754.9 295.3Q757.5 289.4 764.5 289.4L764.5 289.4Q769.6 289.4 772.5 292.5Q775.3 295.6 775.3 301.0L775.3 301.0L775.3 317.8Q775.3 319.6 774.3 320.7Q773.3 321.7 771.7 321.7Q770.0 321.7 769.0 320.7Q768.0 319.6 768.0 317.8L768.0 317.8L768.0 302.5Q768.0 299.1 766.4 297.4Q764.9 295.6 761.8 295.6L761.8 295.6Q758.7 295.6 756.8 297.7Q754.9 299.7 754.9 303.1L754.9 303.1L754.9 317.8Q754.9 319.6 753.9 320.7ZM794.5 332.8L794.5 332.8Q790.1 332.7 786.8 331.2Q783.5 329.7 781.9 327.1L781.9 327.1Q781.3 326.1 781.3 324.9L781.3 324.9Q781.3 323.7 782.1 322.9Q783.0 322.1 784.3 322.1L784.3 322.1Q785.8 322.1 787.0 323.3L787.0 323.3Q788.9 325.2 790.6 326.1Q792.4 326.9 794.6 327.0L794.6 327.0Q798.2 327.0 800.4 325.1Q802.5 323.2 802.5 320.1L802.5 320.1L802.5 315.2L802.3 315.2Q801.1 317.7 798.5 319.2Q795.9 320.8 792.6 320.8L792.6 320.8Q786.7 320.8 783.3 316.5Q779.8 312.3 779.8 305.2L779.8 305.2Q779.8 297.9 783.3 293.7Q786.7 289.5 792.8 289.5L792.8 289.5Q796.0 289.5 798.5 291.0Q801.0 292.6 802.4 295.3L802.4 295.3L802.5 295.3L802.5 293.1Q802.5 291.4 803.5 290.4Q804.6 289.4 806.2 289.4Q807.8 289.4 808.8 290.4Q809.8 291.4 809.8 293.1L809.8 293.1L809.8 320.1Q809.8 326.0 805.7 329.4Q801.7 332.8 794.5 332.8ZM794.8 315.1L794.8 315.1Q798.3 315.1 800.4 312.4Q802.5 309.8 802.5 305.2L802.5 305.2Q802.5 300.7 800.4 298.0Q798.3 295.3 794.8 295.3L794.8 295.3Q791.4 295.3 789.3 298.0Q787.3 300.7 787.3 305.2L787.3 305.2Q787.3 309.8 789.3 312.5Q791.4 315.1 794.8 315.1Z "/><defs><clipPath id="satori_bc-id-0-1"><rect x="0" y="441" width="1200" height="189"/></clipPath></defs><mask id="satori_om-id-0-1"><rect x="0" y="442" width="1200" height="188" fill="#fff"/><path width="1200" height="189" fill="none" stroke="#000" stroke-width="2" d="M0,441 A0,0 0 0 1 0,441 h1200 A0,0 0 0 1 1200,441"/></mask><path width="1200" height="189" clip-path="url(#satori_bc-id-0-1)" fill="none" stroke="#dbdbdb" stroke-width="2" d="M0,441 A0,0 0 0 1 0,441 h1200 A0,0 0 0 1 1200,441"/><mask id="satori_om-id-0-1-0"><rect x="40" y="482" width="389" height="108" fill="#fff"/></mask><clipPath id="satori_cp-id-0-1-0-0"><rect x="40" y="504" width="64" height="64"/></clipPath><mask id="satori_om-id-0-1-0-0"><rect x="40" y="504" width="64" height="64" fill="#fff"/></mask><image x="40" y="504" width="64" height="64" href="data:image/svg+xml;utf8,%3Csvg  xmlns=%22http://www.w3.org/2000/svg%22 width=%2264%22 height=%2264%22 viewBox=%220 0 128 128%22%3E%3Cpath fill=%22%23224d67%22 d=%22M22.5 14.8c2.9 1.3 99 44 99 44c2.7 1.2 2.9 3.1 2 12.4c-1 10.5-1.9 37.8-40.2 42.9c-24.6 3.2-55.9-4.3-70.9-27.2C-6 58.8 11 23.4 14.8 17.7c2.4-3.5 4.8-4.2 7.7-2.9%22%3E%3C/path%3E%3Cpath fill=%22%23f0f4c3%22 d=%22M121.5 58.8c-.3-.2-92-40.8-98.9-43.9C9.6 31.5-3.8 76 27.9 96.2c33.6 21.5 78.7-10.2 93.6-37.4%22%3E%3C/path%3E%3Cpath fill=%22%23f0f4c3%22 d=%22M117.7 57c-.3-.2-86.7-38.4-93.2-41.3c-12.2 15.5-23.9 59.1 5.7 78c31.4 20.2 73.6-11.2 87.5-36.7%22%3E%3C/path%3E%3Cpath fill=%22%23cb2a42%22 d=%22M56.2 37.6L19.5 48.2c-2.5.8-4.4 2.8-5 5.3c-1.9 8.5.8 23.3 8.9 29.8c3.5 2.7 8.6 1.8 10.8-2.1L58.5 41c1.3-1.7.5-4.2-2.3-3.4m14.3 2.9s14.6 30.1 16 33s6.3 4.7 9.9 2.8c10.7-5.6 15.5-12.4 19.2-20.2c-8.9-3.9-42.4-18.8-42.4-18.8c-2.4-1.1-4 .6-2.7 3.2m-8.6 1.9C60.3 45.1 39.5 81 37.6 84.1c-1.9 3.2-.7 7.5 2.7 9.2c12.3 6.5 30.9.4 39.6-7c2.2-1.9 4.5-5.1 3.2-8.2S68.9 44.6 67.8 42.3c-1.2-2.7-4.1-2.8-5.9.1%22%3E%3C/path%3E%3Cpath fill=%22%23f0f4c3%22 d=%22M52.2 42.2c-1.4.4-10.1 3-11.1 3.4c-1.4.5-2.2 1.7-1.9 2.5c.3.9 1.7 1.1 3.1.6c.8-.3 7.1-3.9 9.5-5.2c-3.1 2.4-10.2 9.4-11.1 10.3c-1.4 1.5-1.7 3.4-.8 4.3c1 .9 2.9.5 4.3-1c1.2-1.3 8.5-12.8 9.1-13.9s.4-1.4-1.1-1m10.1 16.4c0-2.2 1.4-10.3 1.8-12.3c.4-1.6 1.5-1.8 1.8.5s1.7 9.7 1.7 11.8s-1.2 3.3-2.7 3.3c-1.4 0-2.6-1.1-2.6-3.3M79.9 49c-1.2-1.8-3.3-4.9-4.1-6.1c-.7-1.2.1-2.1 1.8-.9s4 2.9 5.4 4c1.6 1.3 1.9 3 .8 4s-2.7.8-3.9-1%22%3E%3C/path%3E%3Cellipse cx=%2287.3%22 cy=%22103.12%22 fill=%22%23cb2a42%22 rx=%223.4%22 ry=%222.3%22 transform=%22rotate(-27.098 87.298 103.126)%22%3E%3C/ellipse%3E%3Cellipse cx=%2298.89%22 cy=%22103.82%22 fill=%22%23cb2a42%22 rx=%223.4%22 ry=%222.3%22 transform=%22rotate(-30.642 98.887 103.818)%22%3E%3C/ellipse%3E%3Cellipse cx=%22102.02%22 cy=%2293.8%22 fill=%22%23cb2a42%22 rx=%223.4%22 ry=%222.3%22 transform=%22rotate(-37.16 102.017 93.797)%22%3E%3C/ellipse%3E%3Cpath fill=%22%23cb2a42%22 d=%22M57.6 30.3c-8.3-3.7-24.4-10.7-29.6-13c-3.6 2.2-9.7 11.4-11.2 21.2c-.6 3.6 1.7 5.9 5.3 4.9c0 0 33.7-9.3 35.3-9.7c1.6-.5 2-2.6.2-3.4%22%3E%3C/path%3E%3C/svg%3E" preserveAspectRatio="none" clip-path="url(#satori_cp-id-0-1-0-0)" mask="url(#satori_om-id-0-1-0-0)"/><mask id="satori_om-id-0-1-0-0-0"><rect x="40" y="504" width="0" height="64" fill="#fff"/></mask><mask id="satori_om-id-0-1-0-0-1"><rect x="40" y="504" width="0" height="64" fill="#fff"/></mask><mask id="satori_om-id-0-1-0-0-2"><rect x="40" y="504" width="0" height="64" fill="#fff"/></mask><mask id="satori_om-id-0-1-0-0-3"><rect x="40" y="504" width="0" height="64" fill="#fff"/></mask><mask id="satori_om-id-0-1-0-0-4"><rect x="40" y="504" width="0" height="64" fill="#fff"/></mask><mask id="satori_om-id-0-1-0-0-5"><rect x="40" y="504" width="0" height="64" fill="#fff"/></mask><mask id="satori_om-id-0-1-0-0-6"><rect x="40" y="504" width="0" height="64" fill="#fff"/></mask><mask id="satori_om-id-0-1-0-0-7"><rect x="40" y="504" width="0" height="64" fill="#fff"/></mask><mask id="satori_om-id-0-1-0-0-8"><rect x="40" y="504" width="0" height="64" fill="#fff"/></mask><mask id="satori_om-id-0-1-0-1"><rect x="116" y="512" width="313" height="48" fill="#fff"/></mask><path fill="#545454" d="M133.0 553.6L133.0 553.6Q126.5 553.6 122.7 550.2Q118.8 546.7 118.8 541.1L118.8 541.1L118.8 522.5Q118.8 520.7 119.8 519.7Q120.7 518.8 122.4 518.8Q124.0 518.8 125.0 519.7Q125.9 520.7 125.9 522.5L125.9 522.5L125.9 540.4Q125.9 543.7 127.8 545.6Q129.6 547.6 133.0 547.6L133.0 547.6Q136.3 547.6 138.2 545.6Q140.1 543.7 140.1 540.4L140.1 540.4L140.1 522.5Q140.1 520.7 141.0 519.7Q141.9 518.8 143.6 518.8Q145.3 518.8 146.2 519.7Q147.1 520.7 147.1 522.5L147.1 522.5L147.1 541.1Q147.1 546.7 143.3 550.2Q139.4 553.6 133.0 553.6ZM158.9 552.6Q158.0 553.6 156.3 553.6Q154.6 553.6 153.7 552.6Q152.8 551.6 152.8 549.9L152.8 549.9L152.8 522.9Q152.8 521.2 153.7 520.2Q154.6 519.2 156.3 519.2L156.3 519.2L166.6 519.2Q172.4 519.2 175.6 522.1Q178.9 525.0 178.9 530.0L178.9 530.0Q178.9 533.2 177.3 535.8Q175.8 538.3 173.0 539.4L173.0 539.4L177.9 547.9Q178.7 549.2 178.7 550.3L178.7 550.3Q178.7 551.7 177.7 552.6Q176.7 553.6 175.1 553.6L175.1 553.6Q173.8 553.6 173.1 553.0Q172.4 552.5 171.5 550.9L171.5 550.9L165.9 540.7L159.9 540.7L159.9 549.9Q159.9 551.6 158.9 552.6ZM159.9 524.8L159.9 535.6L165.9 535.6Q168.6 535.6 170.1 534.1Q171.6 532.7 171.6 530.2L171.6 530.2Q171.6 527.7 170.0 526.2Q168.5 524.8 165.9 524.8L165.9 524.8L159.9 524.8ZM196.2 542.3L186.4 542.3Q185.0 542.3 184.1 541.5Q183.2 540.7 183.2 539.3Q183.2 537.9 184.1 537.1Q185.0 536.3 186.4 536.3L186.4 536.3L196.2 536.3Q197.6 536.3 198.5 537.1Q199.4 537.9 199.4 539.3Q199.4 540.7 198.5 541.5Q197.6 542.3 196.2 542.3L196.2 542.3ZM210.9 552.6Q209.9 553.6 208.3 553.6Q206.6 553.6 205.6 552.6Q204.7 551.6 204.7 549.9L204.7 549.9L204.7 522.9Q204.7 521.2 205.6 520.2Q206.6 519.2 208.3 519.2L208.3 519.2L218.6 519.2Q224.4 519.2 227.6 522.1Q230.8 525.0 230.8 530.0L230.8 530.0Q230.8 533.2 229.3 535.8Q227.8 538.3 225.0 539.4L225.0 539.4L229.9 547.9Q230.6 549.2 230.6 550.3L230.6 550.3Q230.6 551.7 229.6 552.6Q228.6 553.6 227.0 553.6L227.0 553.6Q225.8 553.6 225.0 553.0Q224.3 552.5 223.4 550.9L223.4 550.9L217.8 540.7L211.8 540.7L211.8 549.9Q211.8 551.6 210.9 552.6ZM211.8 524.8L211.8 535.6L217.9 535.6Q220.6 535.6 222.0 534.1Q223.5 532.7 223.5 530.2L223.5 530.2Q223.5 527.7 222.0 526.2Q220.4 524.8 217.8 524.8L217.8 524.8L211.8 524.8ZM237.7 553.5L237.7 553.5Q236.0 553.5 235.1 552.6Q234.1 551.7 234.1 550.2L234.1 550.2Q234.1 549.3 234.6 547.9L234.6 547.9L243.8 522.8Q244.6 520.7 245.8 519.7Q247.1 518.8 249.1 518.8L249.1 518.8Q251.2 518.8 252.5 519.7Q253.8 520.7 254.5 522.8L254.5 522.8L263.8 547.9Q264.3 549.2 264.3 550.2L264.3 550.2Q264.3 551.6 263.3 552.6Q262.3 553.5 260.7 553.5L260.7 553.5Q259.2 553.5 258.4 552.8Q257.5 552.1 257.0 550.4L257.0 550.4L255.3 545.0L243.1 545.0L241.3 550.3Q240.8 552.0 239.9 552.8Q239.1 553.5 237.7 553.5ZM249.0 525.7L244.6 539.6L253.6 539.6L249.1 525.7L249.0 525.7ZM281.5 553.1L272.1 553.1Q270.4 553.1 269.5 552.1Q268.6 551.1 268.6 549.4L268.6 549.4L268.6 522.9Q268.6 521.2 269.5 520.2Q270.4 519.2 272.1 519.2L272.1 519.2L281.5 519.2Q289.1 519.2 293.4 523.6Q297.6 528.0 297.6 536.0L297.6 536.0Q297.6 544.1 293.3 548.6Q289.1 553.1 281.5 553.1L281.5 553.1ZM275.6 525.1L275.6 547.2L280.6 547.2Q285.4 547.2 287.9 544.4Q290.4 541.5 290.4 536.0L290.4 536.0Q290.4 530.8 287.8 527.9Q285.3 525.1 280.6 525.1L280.6 525.1L275.6 525.1Z M333.2 553.1L314.5 553.1Q312.9 553.1 312.0 552.2Q311.2 551.4 311.2 550.0L311.2 550.0Q311.2 549.1 311.6 548.3Q312.0 547.5 313.1 546.5L313.1 546.5L323.2 536.9Q326.3 533.8 327.4 532.2Q328.4 530.6 328.4 528.8L328.4 528.8Q328.4 526.7 327.0 525.3Q325.5 524 323.3 524L323.3 524Q319.3 524 317.4 528.1L317.4 528.1Q316.8 529.2 316.1 529.7Q315.4 530.1 314.3 530.1L314.3 530.1Q312.9 530.1 312.1 529.4Q311.3 528.6 311.3 527.3L311.3 527.3Q311.3 526.5 311.5 525.7L311.5 525.7Q312.5 522.7 315.6 520.6Q318.8 518.5 323.3 518.5L323.3 518.5Q328.7 518.5 332.0 521.2Q335.3 524.0 335.3 528.3L335.3 528.3Q335.3 529.9 335.0 531.2Q334.6 532.5 333.6 533.9Q332.6 535.3 331.3 536.8Q330.0 538.2 327.8 540.3L327.8 540.3L320.5 547.3L320.5 547.4L333.2 547.4Q334.6 547.4 335.4 548.2Q336.1 549.0 336.1 550.3L336.1 550.3Q336.1 551.5 335.4 552.3Q334.6 553.1 333.2 553.1L333.2 553.1ZM363.6 549.0Q359.9 553.8 353.5 553.8Q347.1 553.8 343.4 549.1Q339.7 544.3 339.7 536.1L339.7 536.1Q339.7 527.9 343.4 523.2Q347.1 518.5 353.5 518.5Q359.9 518.5 363.6 523.2Q367.3 527.9 367.3 536.1L367.3 536.1Q367.3 544.3 363.6 549.0ZM348.6 545.0Q350.4 548.1 353.5 548.1Q356.7 548.1 358.4 545.0Q360.1 541.9 360.1 536.1L360.1 536.1Q360.1 530.4 358.4 527.2Q356.7 524.1 353.5 524.1L353.5 524.1Q350.4 524.1 348.7 527.3Q346.9 530.4 346.9 536.1L346.9 536.1Q346.9 541.9 348.6 545.0ZM393.6 553.1L374.9 553.1Q373.3 553.1 372.4 552.2Q371.6 551.4 371.6 550.0L371.6 550.0Q371.6 549.1 372.0 548.3Q372.5 547.5 373.5 546.5L373.5 546.5L383.6 536.9Q386.8 533.8 387.8 532.2Q388.9 530.6 388.9 528.8L388.9 528.8Q388.9 526.7 387.4 525.3Q386.0 524 383.7 524L383.7 524Q379.7 524 377.9 528.1L377.9 528.1Q377.3 529.2 376.5 529.7Q375.8 530.1 374.7 530.1L374.7 530.1Q373.3 530.1 372.5 529.4Q371.7 528.6 371.7 527.3L371.7 527.3Q371.7 526.5 372.0 525.7L372.0 525.7Q372.9 522.7 376.0 520.6Q379.2 518.5 383.8 518.5L383.8 518.5Q389.1 518.5 392.4 521.2Q395.8 524.0 395.8 528.3L395.8 528.3Q395.8 529.9 395.4 531.2Q395 532.5 394.0 533.9Q393.1 535.3 391.7 536.8Q390.4 538.2 388.2 540.3L388.2 540.3L380.9 547.3L380.9 547.4L393.6 547.4Q395 547.4 395.8 548.2Q396.6 549.0 396.6 550.3L396.6 550.3Q396.6 551.5 395.8 552.3Q395 553.1 393.6 553.1L393.6 553.1ZM413.6 553.8L413.6 553.8Q409.6 553.8 406.3 552.1Q403.1 550.4 401.8 547.7L401.8 547.7Q401.3 546.5 401.3 545.4L401.3 545.4Q401.3 544.0 402.0 543.3Q402.8 542.5 404.2 542.5L404.2 542.5Q405.3 542.5 406.0 542.9Q406.7 543.3 407.3 544.3L407.3 544.3Q409.3 548.2 413.6 548.2L413.6 548.2Q416.3 548.2 418.1 546.4Q419.9 544.6 419.9 541.9L419.9 541.9Q419.9 539.2 418.1 537.5Q416.4 535.8 413.6 535.8L413.6 535.8Q410.8 535.8 408.7 537.8L408.7 537.8Q407.6 538.8 406.9 539.1Q406.2 539.4 405.0 539.4L405.0 539.4Q403.4 539.4 402.5 538.4Q401.6 537.4 401.7 535.9L401.7 535.9Q401.7 535.8 401.7 535.6L401.7 535.6L402.7 523.3Q402.9 521.1 404.0 520.2Q405.1 519.2 407.2 519.2L407.2 519.2L422 519.2Q423.3 519.2 424.1 520.0Q424.9 520.8 424.9 522.1Q424.9 523.3 424.1 524.1Q423.3 524.9 422 524.9L422 524.9L408.6 524.9L407.8 534.3L408.0 534.3Q409.0 532.6 411.0 531.7Q413.0 530.7 415.6 530.7L415.6 530.7Q420.4 530.7 423.5 533.8Q426.6 536.9 426.6 541.7L426.6 541.7Q426.6 547.1 423.0 550.5Q419.4 553.8 413.6 553.8Z "/><mask id="satori_om-id-0-1-1"><rect x="1013" y="524" width="147" height="36" fill="#fff"/></mask><path fill="#8e8e8e" d="M1016.9 552.6Q1016.5 552.9 1016.0 552.9Q1015.4 552.9 1015.1 552.6Q1014.8 552.2 1014.8 551.7L1014.8 551.7L1014.8 532.6Q1014.8 532.0 1015.1 531.6Q1015.5 531.3 1016.1 531.3Q1016.6 531.3 1017.0 531.6Q1017.3 532.0 1017.3 532.6L1017.3 532.6L1017.3 540.0L1017.4 540.0Q1018.1 538.7 1019.4 537.9Q1020.7 537.2 1022.3 537.2L1022.3 537.2Q1025.2 537.2 1026.9 539.3Q1028.7 541.5 1028.7 545.0L1028.7 545.0Q1028.7 548.6 1026.9 550.8Q1025.2 552.9 1022.2 552.9L1022.2 552.9Q1020.6 552.9 1019.3 552.2Q1018.0 551.4 1017.3 550.1L1017.3 550.1L1017.2 550.1L1017.2 551.7Q1017.2 552.2 1016.9 552.6ZM1021.7 550.7L1021.7 550.7Q1023.8 550.7 1024.9 549.2Q1026.1 547.7 1026.1 545.0L1026.1 545.0Q1026.1 542.5 1024.9 540.9Q1023.8 539.4 1021.7 539.4L1021.7 539.4Q1019.8 539.4 1018.6 541.0Q1017.3 542.5 1017.3 545.0L1017.3 545.0Q1017.3 547.6 1018.6 549.1Q1019.8 550.7 1021.7 550.7ZM1032.8 558.4L1032.8 558.4Q1031.9 558.4 1031.4 558.0Q1030.9 557.7 1030.9 557.1L1030.9 557.1Q1030.9 556.7 1031.1 556.4Q1031.4 556.2 1031.9 556.2L1031.9 556.2Q1032.1 556.2 1032.3 556.2Q1032.5 556.2 1032.7 556.2L1032.7 556.2Q1034.4 556.2 1035.2 553.7L1035.2 553.7L1035.6 552.7L1030.3 539.0Q1030.2 538.6 1030.2 538.3L1030.2 538.3Q1030.2 537.8 1030.6 537.5Q1030.9 537.2 1031.5 537.2L1031.5 537.2Q1032.4 537.2 1032.7 538.1L1032.7 538.1L1036.9 550.1L1037.0 550.1L1041.2 538.1Q1041.3 537.6 1041.6 537.4Q1041.9 537.2 1042.4 537.2L1042.4 537.2Q1042.9 537.2 1043.3 537.5Q1043.6 537.8 1043.6 538.3L1043.6 538.3Q1043.6 538.6 1043.5 539.0L1043.5 539.0L1037.9 553.7Q1036.9 556.4 1035.8 557.4Q1034.7 558.4 1032.8 558.4Z M1066.9 550.9Q1064.7 553.0 1060.8 553.0Q1056.9 553.0 1054.7 550.9Q1052.4 548.7 1052.4 545.3L1052.4 545.3L1052.4 532.7Q1052.4 532.1 1052.8 531.7Q1053.1 531.3 1053.7 531.3Q1054.3 531.3 1054.7 531.7Q1055.0 532.1 1055.0 532.7L1055.0 532.7L1055.0 545.1Q1055.0 547.5 1056.6 549.1Q1058.1 550.6 1060.8 550.6Q1063.5 550.6 1065.0 549.1Q1066.6 547.5 1066.6 545.1L1066.6 545.1L1066.6 532.7Q1066.6 532.1 1066.9 531.7Q1067.3 531.3 1067.9 531.3Q1068.5 531.3 1068.8 531.7Q1069.2 532.1 1069.2 532.7L1069.2 532.7L1069.2 545.3Q1069.2 548.7 1066.9 550.9ZM1075.6 552.6Q1075.2 552.9 1074.6 552.9Q1074.0 552.9 1073.7 552.6Q1073.3 552.2 1073.3 551.6L1073.3 551.6L1073.3 532.9Q1073.3 532.3 1073.7 531.9Q1074.0 531.5 1074.6 531.5L1074.6 531.5L1081.2 531.5Q1084.3 531.5 1086.1 533.2Q1088.0 535.0 1088.0 537.8L1088.0 537.8Q1088.0 540.0 1086.8 541.6Q1085.7 543.3 1083.7 543.9L1083.7 543.9L1087.6 550.8Q1087.9 551.3 1087.9 551.7L1087.9 551.7Q1087.9 552.2 1087.5 552.6Q1087.1 552.9 1086.5 552.9L1086.5 552.9Q1086.1 552.9 1085.8 552.7Q1085.5 552.5 1085.2 552.1L1085.2 552.1L1081.0 544.3L1075.9 544.3L1075.9 551.6Q1075.9 552.2 1075.6 552.6ZM1075.9 533.9L1075.9 542.0L1081.0 542.0Q1083.0 542.0 1084.1 540.9Q1085.2 539.9 1085.2 537.9L1085.2 537.9Q1085.2 536.0 1084.1 534.9Q1082.9 533.9 1080.9 533.9L1080.9 533.9L1075.9 533.9ZM1099.4 545.3L1091.9 545.3Q1091.3 545.3 1091.0 545.0Q1090.6 544.6 1090.6 544.1Q1090.6 543.6 1091.0 543.2Q1091.3 542.9 1091.9 542.9L1091.9 542.9L1099.4 542.9Q1100.0 542.9 1100.3 543.2Q1100.7 543.6 1100.7 544.1Q1100.7 544.6 1100.3 545.0Q1100.0 545.3 1099.4 545.3L1099.4 545.3ZM1106.4 552.6Q1106.0 552.9 1105.4 552.9Q1104.8 552.9 1104.5 552.6Q1104.1 552.2 1104.1 551.6L1104.1 551.6L1104.1 532.9Q1104.1 532.3 1104.5 531.9Q1104.8 531.5 1105.4 531.5L1105.4 531.5L1112.1 531.5Q1115.1 531.5 1117.0 533.2Q1118.8 535.0 1118.8 537.8L1118.8 537.8Q1118.8 540.0 1117.7 541.6Q1116.5 543.3 1114.5 543.9L1114.5 543.9L1118.4 550.8Q1118.7 551.3 1118.7 551.7L1118.7 551.7Q1118.7 552.2 1118.3 552.6Q1117.9 552.9 1117.3 552.9L1117.3 552.9Q1116.9 552.9 1116.6 552.7Q1116.3 552.5 1116.1 552.1L1116.1 552.1L1111.8 544.3L1106.8 544.3L1106.8 551.6Q1106.8 552.2 1106.4 552.6ZM1106.8 533.9L1106.8 542.0L1111.8 542.0Q1113.9 542.0 1115.0 540.9Q1116.1 539.9 1116.1 537.9L1116.1 537.9Q1116.1 536.0 1114.9 534.9Q1113.8 533.9 1111.7 533.9L1111.7 533.9L1106.8 533.9ZM1122.2 552.9L1122.2 552.9Q1121.6 552.9 1121.2 552.5Q1120.9 552.2 1120.9 551.7L1120.9 551.7Q1120.9 551.4 1121.0 551.0L1121.0 551.0L1127.8 532.6Q1128.3 531.3 1129.5 531.3L1129.5 531.3Q1130.7 531.3 1131.2 532.6L1131.2 532.6L1138.0 551.0Q1138.2 551.4 1138.2 551.7L1138.2 551.7Q1138.2 552.2 1137.8 552.5Q1137.4 552.9 1136.9 552.9L1136.9 552.9Q1135.9 552.9 1135.6 551.9L1135.6 551.9L1133.7 546.6L1125.3 546.6L1123.5 551.9Q1123.1 552.9 1122.2 552.9ZM1129.5 534.7L1126.1 544.4L1132.9 544.4L1129.6 534.7L1129.5 534.7ZM1148.1 552.7L1142.3 552.7Q1141.7 552.7 1141.4 552.3Q1141.0 551.9 1141.0 551.3L1141.0 551.3L1141.0 532.9Q1141.0 532.3 1141.4 531.9Q1141.7 531.5 1142.3 531.5L1142.3 531.5L1148.1 531.5Q1152.8 531.5 1155.5 534.3Q1158.1 537.1 1158.1 542.1L1158.1 542.1Q1158.1 547.1 1155.5 549.9Q1152.8 552.7 1148.1 552.7L1148.1 552.7ZM1143.7 533.9L1143.7 550.3L1148.0 550.3Q1151.5 550.3 1153.5 548.2Q1155.4 546.1 1155.4 542.1L1155.4 542.1Q1155.4 538.1 1153.5 536.0Q1151.6 533.9 1148.0 533.9L1148.0 533.9L1143.7 533.9Z "/></svg>