<svg width="1200" height="630" viewBox="0 0 1200 630" xmlns="http://www.w3.org/2000/svg"><mask id="satori_om-id"><rect x="0" y="0" width="1200" height="630" fill="#fff"/></mask><mask id="satori_om-id-0"><rect x="0" y="0" width="1200" height="630" fill="#fff"/></mask><rect x="0" y="0" width="1200" height="630" fill="#f2f2f2"/><mask id="satori_om-id-0-0"><rect x="0" y="0" width="1200" height="441" fill="#fff"/></mask><mask id="satori_om-id-0-0-0"><rect x="40" y="95" width="1120" height="36" fill="#fff"/></mask><path fill="#8e8e8e" d="M50.0 123.4Q49.6 123.9 48.8 123.9Q48.1 123.9 47.6 123.4Q47.2 123.0 47.2 122.2L47.2 122.2L47.2 105.4L42.0 105.4Q41.3 105.4 40.9 105.0Q40.5 104.6 40.5 103.9Q40.5 103.3 40.9 102.9Q41.3 102.5 42.0 102.5L42.0 102.5L55.6 102.5Q56.3 102.5 56.8 102.9Q57.2 103.3 57.2 103.9Q57.2 104.6 56.8 105.0Q56.3 105.4 55.6 105.4L55.6 105.4L50.5 105.4L50.5 122.2Q50.5 123.0 50.0 123.4ZM62.1 123.5Q61.6 123.9 60.9 123.9Q60.2 123.9 59.8 123.5Q59.3 123.0 59.3 122.3L59.3 122.3L59.3 103.9Q59.3 103.1 59.8 102.7Q60.2 102.2 60.9 102.2L60.9 102.2Q61.6 102.2 62.1 102.7Q62.5 103.1 62.5 103.9L62.5 103.9L62.5 110.8L62.5 110.8Q63.2 109.5 64.4 108.7Q65.7 108.0 67.4 108.0L67.4 108.0Q69.9 108.0 71.4 109.5Q72.8 111.1 72.8 113.7L72.8 113.7L72.8 122.3Q72.8 123.0 72.4 123.5Q71.9 123.9 71.2 123.9L71.2 123.9Q70.5 123.9 70.1 123.5Q69.6 123.0 69.6 122.3L69.6 122.3L69.6 114.3Q69.6 112.6 68.8 111.7Q67.9 110.7 66.3 110.7L66.3 110.7Q64.5 110.7 63.5 111.8Q62.5 112.9 62.5 114.8L62.5 114.8L62.5 122.3Q62.5 123.0 62.1 123.5ZM81.2 123.9L81.2 123.9Q78.7 123.9 77.2 122.4Q75.8 120.9 75.8 118.2L75.8 118.2L75.8 109.7Q75.8 108.9 76.2 108.4Q76.7 108.0 77.4 108.0L77.4 108.0Q78.1 108.0 78.5 108.4Q79.0 108.9 79.0 109.7L79.0 109.7L79.0 117.6Q79.0 119.4 79.8 120.3Q80.6 121.2 82.3 121.2L82.3 121.2Q84.0 121.2 84.9 120.1Q85.9 119.0 85.9 117.2L85.9 117.2L85.9 109.7Q85.9 108.9 86.4 108.4Q86.8 108.0 87.5 108.0L87.5 108.0Q88.2 108.0 88.7 108.4Q89.1 108.9 89.1 109.7L89.1 109.7L89.1 122.3Q89.1 123.1 88.7 123.5Q88.3 123.9 87.6 123.9Q86.9 123.9 86.5 123.5Q86.1 123.1 86.1 122.3L86.1 122.3L86.1 121.1L86.0 121.1Q84.6 123.9 81.2 123.9ZM93.8 123.9L93.8 123.9Q93.1 123.9 92.6 123.5Q92.2 123.0 92.2 122.3L92.2 122.3L92.2 109.6Q92.2 108.9 92.6 108.4Q93.0 108.0 93.7 108.0L93.7 108.0Q94.4 108.0 94.8 108.4Q95.2 108.9 95.2 109.6L95.2 109.6L95.2 110.9L95.3 110.9Q95.6 109.6 96.6 108.8Q97.5 108.0 98.7 108.0L98.7 108.0Q99.5 108.0 99.9 108.4L99.9 108.4Q100.3 108.7 100.3 109.5L100.3 109.5Q100.3 110.2 99.9 110.6L99.9 110.6Q99.4 111.0 98.4 111.0L98.4 111.0Q96.9 111.0 96.1 112.0Q95.4 112.9 95.4 114.4L95.4 114.4L95.4 122.3Q95.4 123.0 94.9 123.5Q94.5 123.9 93.8 123.9ZM107.7 124.0L107.7 124.0Q105.5 124.0 103.9 123.1Q102.3 122.3 101.7 120.8L101.7 120.8Q101.6 120.5 101.6 120.2L101.6 120.2Q101.6 119.6 102.0 119.2Q102.4 118.9 103.0 118.9L103.0 118.9Q103.8 118.9 104.4 119.7L104.4 119.7Q105.0 120.7 105.8 121.1Q106.5 121.5 107.9 121.5L107.9 121.5Q109.3 121.5 110.1 121.0Q110.9 120.4 110.9 119.5L110.9 119.5Q110.9 118.7 110.4 118.3Q109.9 117.8 108.7 117.5L108.7 117.5L106.2 117.0Q101.8 115.9 101.8 112.6L101.8 112.6Q101.8 110.5 103.4 109.2Q105.1 108.0 107.9 108.0L107.9 108.0Q109.9 108.0 111.5 108.9Q113.0 109.8 113.4 111.2L113.4 111.2Q113.4 111.6 113.4 111.7L113.4 111.7Q113.4 112.2 113.1 112.5Q112.8 112.9 112.2 112.9L112.2 112.9Q111.3 112.9 110.9 112.2L110.9 112.2Q110.4 111.3 109.6 110.8Q108.9 110.4 107.7 110.4L107.7 110.4Q106.5 110.4 105.7 111.0Q104.9 111.5 104.9 112.4L104.9 112.4Q104.9 113.9 107.2 114.5L107.2 114.5L109.6 115.0Q112.1 115.6 113.1 116.5Q114.1 117.5 114.1 119.2L114.1 119.2Q114.1 121.3 112.3 122.6Q110.6 124.0 107.7 124.0ZM122.3 123.9L122.3 123.9Q119.4 123.9 117.6 121.8Q115.9 119.6 115.9 116.0Q115.9 112.3 117.6 110.2Q119.4 108.0 122.3 108.0L122.3 108.0Q123.9 108.0 125.2 108.8Q126.5 109.5 127.1 110.8L127.1 110.8L127.2 110.8L127.2 103.9Q127.2 103.1 127.6 102.7Q128.1 102.2 128.8 102.2L128.8 102.2Q129.5 102.2 129.9 102.7Q130.4 103.2 130.4 103.9L130.4 103.9L130.4 122.4Q130.4 123.1 129.9 123.5Q129.5 123.9 128.8 123.9L128.8 123.9Q128.1 123.9 127.7 123.5Q127.2 123.1 127.2 122.4L127.2 122.4L127.2 120.9L127.2 120.9Q126.5 122.3 125.3 123.1Q124.1 123.9 122.3 123.9ZM123.2 121.2L123.2 121.2Q125.0 121.2 126.1 119.8Q127.2 118.4 127.2 116.0L127.2 116.0Q127.2 113.6 126.1 112.1Q125.0 110.7 123.2 110.7L123.2 110.7Q121.3 110.7 120.2 112.1Q119.1 113.5 119.1 116.0L119.1 116.0Q119.1 118.4 120.2 119.8Q121.3 121.2 123.2 121.2ZM138.1 123.9L138.1 123.9Q135.9 123.9 134.4 122.6Q133.0 121.3 133.0 119.3L133.0 119.3Q133.0 117.3 134.5 116.1Q136.0 114.9 138.7 114.7L138.7 114.7L142.9 114.5L142.9 113.3Q142.9 112.0 142.1 111.3Q141.3 110.6 139.9 110.6L139.9 110.6Q138.7 110.6 137.9 111.0Q137.1 111.5 136.4 112.5L136.4 112.5Q136.0 113.2 135.2 113.2L135.2 113.2Q134.6 113.2 134.2 112.8Q133.8 112.4 133.8 111.9L133.8 111.9Q133.8 111.3 134.1 110.8L134.1 110.8Q134.7 109.5 136.3 108.8Q137.9 108.0 140.0 108.0L140.0 108.0Q142.8 108.0 144.4 109.4Q146.1 110.7 146.1 113.0L146.1 113.0L146.1 122.3Q146.1 123.1 145.7 123.5Q145.2 123.9 144.6 123.9L144.6 123.9Q143.9 123.9 143.5 123.5Q143.1 123.1 143.1 122.4L143.1 122.4L143.1 121.1L143.0 121.1Q142.3 122.4 141.0 123.2Q139.7 123.9 138.1 123.9ZM139.0 121.4L139.0 121.4Q140.7 121.4 141.8 120.4Q142.9 119.4 142.9 117.9L142.9 117.9L142.9 116.7L139.1 116.9Q137.7 117.0 137.0 117.6Q136.2 118.2 136.2 119.2L136.2 119.2Q136.2 120.2 137.0 120.8Q137.7 121.4 139.0 121.4ZM151.1 129.4L151.1 129.4Q150.0 129.4 149.4 129.0Q148.8 128.6 148.8 127.9L148.8 127.9Q148.8 127.4 149.1 127.1Q149.5 126.8 150.0 126.8L150.0 126.8Q150.2 126.8 150.4 126.8Q150.7 126.8 150.8 126.8L150.8 126.8Q152.4 126.8 153.2 124.7L153.2 124.7L153.5 123.8L148.3 110.3Q148.1 109.9 148.1 109.4L148.1 109.4Q148.1 108.8 148.6 108.4Q149.1 108.0 149.8 108.0L149.8 108.0Q150.4 108.0 150.7 108.3Q151.1 108.5 151.3 109.2L151.3 109.2L155.2 120.8L155.3 120.8L159.2 109.2Q159.4 108.5 159.7 108.3Q160.1 108.0 160.7 108.0L160.7 108.0Q161.4 108.0 161.8 108.4Q162.2 108.8 162.2 109.4L162.2 109.4Q162.2 109.8 162.1 110.3L162.1 110.3L156.7 124.4Q155.7 127.2 154.5 128.3Q153.2 129.4 151.1 129.4ZM166.7 120.1L166.7 120.1Q167.4 120.1 167.8 120.5Q168.2 120.8 168.2 121.4L168.2 121.4Q168.2 121.8 168.1 122.3L168.1 122.3L166.8 127.3Q166.5 128.4 165.4 128.4L165.4 128.4Q164.9 128.4 164.5 128.1Q164.2 127.7 164.2 127.2L164.2 127.2Q164.2 127.1 164.3 126.8L164.3 126.8L165.2 121.4Q165.4 120.1 166.7 120.1Z M181.7 123.9L181.7 123.9Q181.0 123.9 180.6 123.6Q180.2 123.2 180.2 122.6L180.2 122.6Q180.2 122.1 180.5 121.6L180.5 121.6L189.0 105.4L189.0 105.3L179.1 105.3Q178.5 105.3 178.1 104.9Q177.7 104.5 177.7 103.9L177.7 103.9Q177.7 103.3 178.1 102.9Q178.5 102.5 179.1 102.5L179.1 102.5L190.3 102.5Q191.2 102.5 191.8 103.0Q192.3 103.5 192.3 104.4L192.3 104.4Q192.3 105.1 191.7 106.4L191.7 106.4L183.2 123.0Q182.9 123.5 182.6 123.7Q182.2 123.9 181.7 123.9Z M204.2 123.5Q203.8 123.9 203.1 123.9Q202.3 123.9 201.9 123.5Q201.5 123.0 201.5 122.2L201.5 122.2L201.5 104.1Q201.5 103.2 201.9 102.8Q202.4 102.3 203.2 102.3L203.2 102.3Q203.8 102.3 204.2 102.5Q204.6 102.7 205.0 103.3L205.0 103.3L215.4 118.1L215.5 118.1L215.5 104.0Q215.5 103.2 215.9 102.7Q216.4 102.3 217.1 102.3L217.1 102.3Q217.8 102.3 218.3 102.7Q218.7 103.2 218.7 104.0L218.7 104.0L218.7 122.2Q218.7 123.0 218.2 123.5Q217.8 123.9 217.0 123.9L217.0 123.9Q216.4 123.9 216.0 123.7Q215.6 123.5 215.2 122.9L215.2 122.9L204.8 108.1L204.6 108.1L204.6 122.2Q204.6 123.0 204.2 123.5ZM234.2 121.8Q232.2 124.0 228.8 124.0Q225.5 124.0 223.5 121.8Q221.5 119.7 221.5 116.0L221.5 116.0Q221.5 112.3 223.5 110.1Q225.5 108.0 228.8 108.0Q232.2 108.0 234.2 110.1Q236.1 112.3 236.1 116.0L236.1 116.0Q236.1 119.7 234.2 121.8ZM228.8 121.3L228.8 121.3Q230.7 121.3 231.8 119.9Q232.9 118.5 232.9 116.0L232.9 116.0Q232.9 113.4 231.8 112.0Q230.7 110.6 228.8 110.6Q227.0 110.6 225.9 112.0Q224.7 113.4 224.7 116.0L224.7 116.0Q224.7 118.5 225.9 119.9Q227.0 121.3 228.8 121.3ZM244.5 123.9L244.5 123.9Q243.7 123.9 243.2 123.6Q242.7 123.2 242.3 122.3L242.3 122.3L237.8 110.3Q237.6 109.8 237.6 109.4L237.6 109.4Q237.6 108.8 238.0 108.4Q238.5 108.0 239.2 108.0L239.2 108.0Q240.3 108.0 240.7 109.2L240.7 109.2L244.5 120.6L244.6 120.6L248.4 109.2Q248.8 108.0 249.9 108.0L249.9 108.0Q250.5 108.0 251.0 108.4Q251.4 108.8 251.4 109.4L251.4 109.4Q251.4 109.9 251.3 110.3L251.3 110.3L246.7 122.3Q246.4 123.2 245.9 123.6Q245.3 123.9 244.5 123.9ZM260.2 124.0L260.2 124.0Q256.8 124.0 254.8 121.9Q252.9 119.8 252.9 116.0L252.9 116.0Q252.9 112.4 254.8 110.2Q256.8 108.0 260.0 108.0L260.0 108.0Q263.1 108.0 265.0 110.0Q266.9 112.0 266.9 115.1L266.9 115.1Q266.9 115.9 266.5 116.3Q266.1 116.8 265.4 116.8L265.4 116.8L256.1 116.8L256.1 116.8Q256.1 118.9 257.2 120.2Q258.3 121.4 260.2 121.4L260.2 121.4Q261.5 121.4 262.4 120.9Q263.3 120.4 264.2 119.2L264.2 119.2Q264.6 118.6 265.3 118.6L265.3 118.6Q265.8 118.6 266.2 119.0Q266.6 119.3 266.6 119.9L266.6 119.9Q266.6 120.3 266.4 120.8L266.4 120.8Q265.6 122.3 264.0 123.1Q262.4 124.0 260.2 124.0ZM256.1 114.5L256.1 114.5L263.8 114.5Q263.7 112.7 262.7 111.6Q261.7 110.5 260.0 110.5L260.0 110.5Q258.4 110.5 257.3 111.6Q256.2 112.7 256.1 114.5ZM272.1 123.5Q271.7 123.9 271.0 123.9Q270.3 123.9 269.8 123.5Q269.4 123.0 269.4 122.3L269.4 122.3L269.4 109.6Q269.4 108.9 269.8 108.4Q270.2 108.0 270.9 108.0Q271.6 108.0 272.0 108.4Q272.4 108.8 272.4 109.6L272.4 109.6L272.4 110.8L272.5 110.8Q273.0 109.5 274.2 108.8Q275.3 108.0 276.9 108.0L276.9 108.0Q278.5 108.0 279.6 108.8Q280.7 109.6 281.2 111.0L281.2 111.0L281.2 111.0Q281.8 109.6 283.1 108.8Q284.4 108.0 286.0 108.0L286.0 108.0Q288.3 108.0 289.7 109.4Q291.1 110.8 291.1 113.1L291.1 113.1L291.1 122.3Q291.1 123.0 290.6 123.5Q290.2 123.9 289.5 123.9Q288.8 123.9 288.3 123.5Q287.9 123.0 287.9 122.3L287.9 122.3L287.9 113.8Q287.9 112.3 287.1 111.5Q286.4 110.7 285.0 110.7Q283.6 110.7 282.7 111.6Q281.8 112.6 281.8 114.0L281.8 114.0L281.8 122.3Q281.8 123.0 281.4 123.5Q281.0 123.9 280.2 123.9Q279.5 123.9 279.1 123.5Q278.7 123.0 278.7 122.3L278.7 122.3L278.7 113.6Q278.7 112.3 277.9 111.5Q277.1 110.7 275.8 110.7L275.8 110.7Q274.4 110.7 273.5 111.7Q272.6 112.6 272.6 114.1L272.6 114.1L272.6 122.3Q272.6 123.0 272.1 123.5ZM295.8 123.9L295.8 123.9Q295.1 123.9 294.7 123.5Q294.3 123.1 294.3 122.4L294.3 122.4L294.3 103.9Q294.3 103.2 294.7 102.7Q295.1 102.2 295.8 102.2Q296.5 102.2 297.0 102.7Q297.4 103.2 297.4 103.9L297.4 103.9L297.4 110.9L297.5 110.9Q298.2 109.5 299.5 108.8Q300.7 108.0 302.4 108.0L302.4 108.0Q305.3 108.0 307.0 110.2Q308.8 112.3 308.8 116.0L308.8 116.0Q308.8 119.6 307.0 121.8Q305.3 123.9 302.3 123.9L302.3 123.9Q300.7 123.9 299.4 123.2Q298.1 122.4 297.4 121.0L297.4 121.0L297.3 121.0L297.3 122.4Q297.3 123.1 296.9 123.5Q296.5 123.9 295.8 123.9ZM301.5 121.2L301.5 121.2Q303.4 121.2 304.4 119.8Q305.5 118.4 305.5 116.0L305.5 116.0Q305.5 113.5 304.4 112.1Q303.3 110.7 301.5 110.7L301.5 110.7Q299.7 110.7 298.5 112.1Q297.4 113.6 297.4 116.0L297.4 116.0Q297.4 118.3 298.5 119.8Q299.7 121.2 301.5 121.2ZM317.9 124.0L317.9 124.0Q314.4 124.0 312.5 121.9Q310.5 119.8 310.5 116.0L310.5 116.0Q310.5 112.4 312.5 110.2Q314.4 108.0 317.7 108.0L317.7 108.0Q320.8 108.0 322.7 110.0Q324.6 112.0 324.6 115.1L324.6 115.1Q324.6 115.9 324.2 116.3Q323.8 116.8 323.1 116.8L323.1 116.8L313.7 116.8L313.7 116.8Q313.7 118.9 314.8 120.2Q315.9 121.4 317.8 121.4L317.8 121.4Q319.1 121.4 320.0 120.9Q320.9 120.4 321.8 119.2L321.8 119.2Q322.3 118.6 322.9 118.6L322.9 118.6Q323.5 118.6 323.9 119.0Q324.3 119.3 324.3 119.9L324.3 119.9Q324.3 120.3 324.0 120.8L324.0 120.8Q323.3 122.3 321.7 123.1Q320.1 124.0 317.9 124.0ZM313.8 114.5L313.8 114.5L321.5 114.5Q321.4 112.7 320.4 111.6Q319.3 110.5 317.7 110.5L317.7 110.5Q316.0 110.5 315.0 111.6Q313.9 112.7 313.8 114.5ZM328.6 123.9L328.6 123.9Q327.9 123.9 327.5 123.5Q327.1 123.0 327.1 122.3L327.1 122.3L327.1 109.6Q327.1 108.9 327.5 108.4Q327.9 108.0 328.6 108.0L328.6 108.0Q329.2 108.0 329.7 108.4Q330.1 108.9 330.1 109.6L330.1 109.6L330.1 110.9L330.1 110.9Q330.5 109.6 331.4 108.8Q332.4 108.0 333.5 108.0L333.5 108.0Q334.4 108.0 334.8 108.4L334.8 108.4Q335.2 108.7 335.2 109.5L335.2 109.5Q335.2 110.2 334.7 110.6L334.7 110.6Q334.3 111.0 333.3 111.0L333.3 111.0Q331.7 111.0 331.0 112.0Q330.2 112.9 330.2 114.4L330.2 114.4L330.2 122.3Q330.2 123.0 329.8 123.5Q329.4 123.9 328.6 123.9Z M356.2 123.7L344.6 123.7Q343.8 123.7 343.4 123.3Q343.0 122.9 343.0 122.3L343.0 122.3Q343.0 121.8 343.2 121.5Q343.4 121.1 343.9 120.6L343.9 120.6L350.5 113.9Q352.6 111.8 353.3 110.7Q353.9 109.6 353.9 108.3L353.9 108.3Q353.9 106.8 352.9 105.8Q351.9 104.8 350.3 104.8L350.3 104.8Q347.1 104.8 346.0 108.0L346.0 108.0Q345.8 108.5 345.4 108.8Q345.1 109.0 344.5 109.0L344.5 109.0Q343.9 109.0 343.5 108.6Q343.1 108.3 343.1 107.6L343.1 107.6Q343.1 107.3 343.2 107.0L343.2 107.0Q343.4 106.1 343.9 105.3Q344.5 104.4 345.3 103.7Q346.2 103.0 347.5 102.6Q348.8 102.1 350.3 102.1L350.3 102.1Q353.3 102.1 355.2 103.8Q357.2 105.5 357.2 108.1L357.2 108.1Q357.2 109.9 356.2 111.5Q355.2 113.0 352.5 115.8L352.5 115.8L347.5 120.8L347.5 120.9L356.2 120.9Q356.9 120.9 357.3 121.3Q357.7 121.7 357.7 122.3L357.7 122.3Q357.7 122.9 357.3 123.3Q356.9 123.7 356.2 123.7L356.2 123.7ZM374.1 121.1Q372.0 124.1 368.2 124.1Q364.4 124.1 362.2 121.1Q360.1 118.2 360.1 113.1L360.1 113.1Q360.1 108.0 362.2 105.1Q364.4 102.1 368.2 102.1L368.2 102.1Q371.9 102.1 374.1 105.1Q376.2 108.0 376.2 113.1L376.2 113.1Q376.2 118.1 374.1 121.1ZM368.2 121.3L368.2 121.3Q370.4 121.3 371.7 119.1Q372.9 116.9 372.9 113.1L372.9 113.1Q372.9 109.3 371.7 107.1Q370.4 104.9 368.2 104.9Q365.9 104.9 364.7 107.1Q363.4 109.3 363.4 113.1L363.4 113.1Q363.4 116.9 364.6 119.1Q365.9 121.3 368.2 121.3ZM392.3 123.7L380.6 123.7Q379.9 123.7 379.5 123.3Q379.1 122.9 379.1 122.3L379.1 122.3Q379.1 121.8 379.3 121.5Q379.5 121.1 380.0 120.6L380.0 120.6L386.6 113.9Q388.7 111.8 389.4 110.7Q390.0 109.6 390.0 108.3L390.0 108.3Q390.0 106.8 389.0 105.8Q388.0 104.8 386.4 104.8L386.4 104.8Q383.2 104.8 382.1 108.0L382.1 108.0Q381.9 108.5 381.5 108.8Q381.2 109.0 380.6 109.0L380.6 109.0Q380.0 109.0 379.6 108.6Q379.2 108.3 379.2 107.6L379.2 107.6Q379.2 107.3 379.3 107.0L379.3 107.0Q379.4 106.1 380.0 105.3Q380.5 104.4 381.4 103.7Q382.3 103.0 383.6 102.6Q384.9 102.1 386.4 102.1L386.4 102.1Q389.4 102.1 391.3 103.8Q393.3 105.5 393.3 108.1L393.3 108.1Q393.3 109.9 392.3 111.5Q391.3 113.0 388.6 115.8L388.6 115.8L383.5 120.8L383.5 120.9L392.3 120.9Q393.0 120.9 393.4 121.3Q393.8 121.7 393.8 122.3L393.8 122.3Q393.8 122.9 393.4 123.3Q393.0 123.7 392.3 123.7L392.3 123.7ZM408.1 123.9L408.1 123.9Q407.5 123.9 407.0 123.5Q406.6 123.0 406.6 122.3L406.6 122.3L406.6 119.5L397.9 119.5Q397.0 119.5 396.5 119.0Q396.0 118.4 396.0 117.6L396.0 117.6Q396.0 116.6 396.7 115.3L396.7 115.3Q398.5 112.0 403.5 104.7L403.5 104.7Q404.5 103.3 405.2 102.8Q406.0 102.2 407.0 102.2L407.0 102.2Q408.3 102.2 409.0 102.9Q409.7 103.5 409.7 104.7L409.7 104.7L409.7 116.7L411.4 116.7Q412.0 116.7 412.4 117.1Q412.8 117.5 412.8 118.1Q412.8 118.7 412.4 119.1Q412.0 119.5 411.4 119.5L411.4 119.5L409.7 119.5L409.7 122.3Q409.7 123.0 409.3 123.5Q408.8 123.9 408.1 123.9ZM399.0 116.8L406.6 116.8L406.6 105.1L406.5 105.1Q401.1 112.9 399.0 116.7L399.0 116.7L399.0 116.8Z "/><mask id="satori_om-id-0-0-1"><rect x="40" y="176" width="1120" height="165" fill="#fff"/></mask><path fill="#224d67" d="M45.6 239.1L45.6 239.1Q43.8 239.1 42.8 238.1Q41.8 237.2 41.8 235.6L41.8 235.6Q41.8 234.6 42.3 233.3L42.3 233.3L54.5 199.9Q55.3 197.8 56.6 196.8Q58.0 195.8 60.0 195.8L60.0 195.8Q62.1 195.8 63.4 196.8Q64.8 197.7 65.5 199.9L65.5 199.9L77.9 233.3Q78.3 234.7 78.3 235.6L78.3 235.6Q78.3 237.1 77.3 238.1Q76.2 239.1 74.6 239.1L74.6 239.1Q73.0 239.1 72.1 238.3Q71.2 237.6 70.7 235.9L70.7 235.9L67.9 227.8L52.1 227.8L49.3 235.8Q48.8 237.6 47.9 238.3Q47.0 239.1 45.6 239.1ZM59.9 203.8L53.9 221.8L66.1 221.8L60.1 203.8L59.9 203.8Z M111.3 238.6L99.6 238.6Q97.9 238.6 96.9 237.5Q95.8 236.5 95.8 234.7L95.8 234.7L95.8 200.2Q95.8 198.4 96.9 197.3Q97.9 196.3 99.6 196.3L99.6 196.3L111.3 196.3Q120.8 196.3 126.1 201.8Q131.4 207.3 131.4 217.3L131.4 217.3Q131.4 227.4 126.1 233.0Q120.8 238.6 111.3 238.6L111.3 238.6ZM103.4 202.7L103.4 232.2L110.5 232.2Q116.9 232.2 120.3 228.4Q123.7 224.6 123.7 217.4L123.7 217.4Q123.7 210.3 120.2 206.5Q116.8 202.7 110.5 202.7L110.5 202.7L103.4 202.7ZM143.3 202.0Q142.1 203.2 140.4 203.2Q138.7 203.2 137.6 202.0Q136.4 200.8 136.4 199.2L136.4 199.2Q136.4 197.5 137.6 196.4Q138.7 195.2 140.4 195.2L140.4 195.2Q142.2 195.2 143.3 196.4Q144.5 197.5 144.5 199.2L144.5 199.2Q144.5 200.8 143.3 202.0ZM143.1 238.1Q142.1 239.2 140.4 239.2Q138.8 239.2 137.8 238.1Q136.8 237.1 136.8 235.3L136.8 235.3L136.8 210.7Q136.8 209.0 137.8 207.9Q138.8 206.9 140.4 206.9Q142.1 206.9 143.1 207.9Q144.1 209.0 144.1 210.8L144.1 210.8L144.1 235.3Q144.1 237.1 143.1 238.1ZM162.2 239.2L162.2 239.2Q157.4 239.2 154.0 237.5Q150.7 235.8 149.5 233.0L149.5 233.0Q149.2 232.2 149.2 231.5L149.2 231.5Q149.2 230.2 150.1 229.4Q150.9 228.6 152.3 228.6L152.3 228.6Q154.1 228.6 155.5 230.4L155.5 230.4Q156.7 232.3 158.3 233.1Q159.9 233.9 162.5 233.9L162.5 233.9Q165.0 233.9 166.6 232.9Q168.1 231.8 168.1 230.1L168.1 230.1Q168.1 228.7 167.1 227.8Q166.1 227.0 163.8 226.4L163.8 226.4L158.7 225.3Q149.7 223.3 149.7 216.4L149.7 216.4Q149.7 212.1 153.1 209.5Q156.6 206.9 162.3 206.9L162.3 206.9Q166.7 206.9 169.9 208.8Q173.2 210.6 173.9 213.4L173.9 213.4Q174.0 214.0 174.0 214.5L174.0 214.5Q174.0 215.6 173.3 216.4Q172.6 217.1 171.2 217.1L171.2 217.1Q169.4 217.1 168.4 215.7L168.4 215.7Q167.3 214.0 165.8 213.1Q164.3 212.2 162.1 212.2L162.1 212.2Q159.7 212.2 158.2 213.3Q156.7 214.3 156.7 216.0L156.7 216.0Q156.7 218.8 161.3 219.8L161.3 219.8L166.3 220.9Q171.2 222.0 173.3 223.9Q175.4 225.9 175.4 229.3L175.4 229.3Q175.4 233.8 171.8 236.5Q168.1 239.2 162.2 239.2ZM193.7 239.2L193.7 239.2Q186.9 239.2 182.8 234.9Q178.8 230.5 178.8 223.1L178.8 223.1Q178.8 215.7 182.8 211.3Q186.8 206.9 193.6 206.9L193.6 206.9Q198.2 206.9 201.7 209.0Q205.3 211.1 206.4 214.4L206.4 214.4Q206.8 215.4 206.8 216.1L206.8 216.1Q206.8 217.5 205.9 218.3Q205 219.1 203.7 219.1L203.7 219.1Q202.6 219.1 201.8 218.6Q201.1 218.1 200.5 217.0L200.5 217.0Q198.2 212.8 193.8 212.8L193.8 212.8Q190.3 212.8 188.2 215.6Q186.2 218.3 186.2 223.1L186.2 223.1Q186.2 227.9 188.2 230.6Q190.3 233.3 193.8 233.3L193.8 233.3Q198.2 233.3 200.4 229.3L200.4 229.3Q201.2 228.1 201.9 227.6Q202.6 227.1 203.8 227.1L203.8 227.1Q205.1 227.1 206.0 227.9Q206.9 228.7 206.9 230.1L206.9 230.1Q206.9 230.9 206.4 231.9L206.4 231.9Q205.1 235.1 201.6 237.2Q198.1 239.2 193.7 239.2ZM222.6 239.1L222.6 239.1Q217.6 239.1 214.6 236.0Q211.6 233.0 211.6 227.6L211.6 227.6L211.6 210.7Q211.6 209.0 212.6 207.9Q213.6 206.9 215.3 206.9Q216.9 206.9 217.9 207.9Q218.9 209.0 218.9 210.8L218.9 210.8L218.9 226.1Q218.9 229.5 220.5 231.2Q222.1 233.0 225.2 233.0L225.2 233.0Q228.3 233.0 230.2 230.9Q232.0 228.9 232.0 225.5L232.0 225.5L232.0 210.7Q232.0 209.0 233.0 207.9Q234.0 206.9 235.7 206.9L235.7 206.9Q237.3 206.9 238.3 207.9Q239.3 209.0 239.3 210.8L239.3 210.8L239.3 235.5Q239.3 237.2 238.4 238.2Q237.4 239.2 235.8 239.2L235.8 239.2Q234.2 239.2 233.2 238.2Q232.3 237.2 232.3 235.5L232.3 235.5L232.3 233.2L232.1 233.2Q229.6 239.1 222.6 239.1ZM257.2 239.2L257.2 239.2Q252.4 239.2 249.1 237.5Q245.7 235.8 244.6 233.0L244.6 233.0Q244.3 232.2 244.3 231.5L244.3 231.5Q244.3 230.2 245.1 229.4Q246.0 228.6 247.3 228.6L247.3 228.6Q249.2 228.6 250.5 230.4L250.5 230.4Q251.8 232.3 253.4 233.1Q255.0 233.9 257.5 233.9L257.5 233.9Q260.1 233.9 261.6 232.9Q263.2 231.8 263.2 230.1L263.2 230.1Q263.2 228.7 262.2 227.8Q261.2 227.0 258.8 226.4L258.8 226.4L253.8 225.3Q244.7 223.3 244.7 216.4L244.7 216.4Q244.7 212.1 248.2 209.5Q251.6 206.9 257.4 206.9L257.4 206.9Q261.7 206.9 265.0 208.8Q268.2 210.6 268.9 213.4L268.9 213.4Q269.1 214.0 269.1 214.5L269.1 214.5Q269.1 215.6 268.3 216.4Q267.6 217.1 266.3 217.1L266.3 217.1Q264.4 217.1 263.5 215.7L263.5 215.7Q262.3 214.0 260.9 213.1Q259.4 212.2 257.2 212.2L257.2 212.2Q254.8 212.2 253.3 213.3Q251.8 214.3 251.8 216.0L251.8 216.0Q251.8 218.8 256.4 219.8L256.4 219.8L261.3 220.9Q266.2 222.0 268.4 223.9Q270.5 225.9 270.5 229.3L270.5 229.3Q270.5 233.8 266.8 236.5Q263.2 239.2 257.2 239.2ZM287.1 239.2L287.1 239.2Q282.2 239.2 278.9 237.5Q275.5 235.8 274.4 233.0L274.4 233.0Q274.1 232.2 274.1 231.5L274.1 231.5Q274.1 230.2 275.0 229.4Q275.8 228.6 277.2 228.6L277.2 228.6Q279.0 228.6 280.3 230.4L280.3 230.4Q281.6 232.3 283.2 233.1Q284.8 233.9 287.3 233.9L287.3 233.9Q289.9 233.9 291.4 232.9Q293.0 231.8 293.0 230.1L293.0 230.1Q293.0 228.7 292.0 227.8Q291.0 227.0 288.6 226.4L288.6 226.4L283.6 225.3Q274.5 223.3 274.5 216.4L274.5 216.4Q274.5 212.1 278.0 209.5Q281.4 206.9 287.2 206.9L287.2 206.9Q291.6 206.9 294.8 208.8Q298.0 210.6 298.8 213.4L298.8 213.4Q298.9 214.0 298.9 214.5L298.9 214.5Q298.9 215.6 298.2 216.4Q297.4 217.1 296.1 217.1L296.1 217.1Q294.2 217.1 293.3 215.7L293.3 215.7Q292.2 214.0 290.7 213.1Q289.2 212.2 287.0 212.2L287.0 212.2Q284.6 212.2 283.1 213.3Q281.6 214.3 281.6 216.0L281.6 216.0Q281.6 218.8 286.2 219.8L286.2 219.8L291.1 220.9Q296.1 222.0 298.2 223.9Q300.3 225.9 300.3 229.3L300.3 229.3Q300.3 233.8 296.7 236.5Q293.0 239.2 287.1 239.2ZM311.6 202.0Q310.4 203.2 308.7 203.2Q307.0 203.2 305.8 202.0Q304.7 200.8 304.7 199.2L304.7 199.2Q304.7 197.5 305.8 196.4Q307.0 195.2 308.7 195.2L308.7 195.2Q310.4 195.2 311.6 196.4Q312.8 197.5 312.8 199.2L312.8 199.2Q312.8 200.8 311.6 202.0ZM311.4 238.1Q310.4 239.2 308.7 239.2Q307.0 239.2 306.1 238.1Q305.1 237.1 305.1 235.3L305.1 235.3L305.1 210.7Q305.1 209.0 306.1 207.9Q307.0 206.9 308.7 206.9Q310.4 206.9 311.4 207.9Q312.4 209.0 312.4 210.8L312.4 210.8L312.4 235.3Q312.4 237.1 311.4 238.1ZM343.2 234.9Q339.1 239.2 332.2 239.2Q325.4 239.2 321.3 234.9Q317.2 230.6 317.2 223.1L317.2 223.1Q317.2 215.6 321.3 211.2Q325.4 206.9 332.2 206.9L332.2 206.9Q339.1 206.9 343.2 211.2Q347.3 215.6 347.3 223.1L347.3 223.1Q347.3 230.6 343.2 234.9ZM326.7 230.7Q328.7 233.4 332.2 233.4Q335.8 233.4 337.8 230.7Q339.9 228.0 339.9 223.1L339.9 223.1Q339.9 218.2 337.8 215.4Q335.8 212.7 332.2 212.7L332.2 212.7Q328.8 212.7 326.7 215.4Q324.6 218.2 324.6 223.1L324.6 223.1Q324.6 228.0 326.7 230.7ZM358.2 238.2Q357.2 239.2 355.6 239.2Q353.9 239.2 352.9 238.2Q352.0 237.1 352.0 235.3L352.0 235.3L352.0 210.6Q352.0 208.9 352.9 207.9Q353.8 206.9 355.4 206.9Q357.1 206.9 358.0 207.9Q359.0 208.9 359.0 210.6L359.0 210.6L359.0 212.8L359.2 212.8Q361.8 206.9 368.9 206.9L368.9 206.9Q374.0 206.9 376.8 210.0Q379.6 213.1 379.6 218.5L379.6 218.5L379.6 235.3Q379.6 237.1 378.6 238.2Q377.6 239.2 376.0 239.2Q374.3 239.2 373.3 238.2Q372.3 237.1 372.3 235.3L372.3 235.3L372.3 220.0Q372.3 216.6 370.7 214.9Q369.2 213.1 366.1 213.1L366.1 213.1Q363.0 213.1 361.1 215.2Q359.2 217.2 359.2 220.6L359.2 220.6L359.2 235.3Q359.2 237.1 358.2 238.2Z M422.1 234.9Q418.1 239.2 411.2 239.2Q404.3 239.2 400.2 234.9Q396.2 230.6 396.2 223.1L396.2 223.1Q396.2 215.6 400.3 211.2Q404.4 206.9 411.2 206.9L411.2 206.9Q418.0 206.9 422.1 211.2Q426.2 215.6 426.2 223.1L426.2 223.1Q426.2 230.6 422.1 234.9ZM405.6 230.7Q407.7 233.4 411.2 233.4Q414.7 233.4 416.8 230.7Q418.8 228.0 418.8 223.1L418.8 223.1Q418.8 218.2 416.8 215.4Q414.7 212.7 411.2 212.7L411.2 212.7Q407.7 212.7 405.6 215.4Q403.6 218.2 403.6 223.1L403.6 223.1Q403.6 228.0 405.6 230.7ZM437.2 238.2Q436.2 239.2 434.5 239.2Q432.9 239.2 431.9 238.2Q430.9 237.1 430.9 235.3L430.9 235.3L430.9 210.6Q430.9 208.9 431.8 207.9Q432.8 206.9 434.4 206.9Q436.0 206.9 437.0 207.9Q438.0 208.9 438.0 210.6L438.0 210.6L438.0 212.8L438.1 212.8Q440.8 206.9 447.8 206.9L447.8 206.9Q452.9 206.9 455.7 210.0Q458.6 213.1 458.6 218.5L458.6 218.5L458.6 235.3Q458.6 237.1 457.6 238.2Q456.6 239.2 454.9 239.2Q453.3 239.2 452.3 238.2Q451.3 237.1 451.3 235.3L451.3 235.3L451.3 220.0Q451.3 216.6 449.7 214.9Q448.1 213.1 445.1 213.1L445.1 213.1Q441.9 213.1 440.1 215.2Q438.2 217.2 438.2 220.6L438.2 220.6L438.2 235.3Q438.2 237.1 437.2 238.2Z M478.4 230.9L478.4 230.9L478.4 213.1L476.5 213.1Q475.1 213.1 474.3 212.4Q473.5 211.6 473.5 210.3L473.5 210.3Q473.5 209.0 474.3 208.3Q475.1 207.5 476.5 207.5L476.5 207.5L478.4 207.5L478.4 203.4Q478.4 201.6 479.4 200.6Q480.4 199.6 482.1 199.6L482.1 199.6Q483.8 199.6 484.7 200.6Q485.7 201.6 485.7 203.4L485.7 203.4L485.7 207.5L489.1 207.5Q490.5 207.5 491.2 208.3Q492.0 209.0 492.0 210.3L492.0 210.3Q492.0 211.6 491.2 212.4Q490.4 213.1 489.1 213.1L489.1 213.1L485.7 213.1L485.7 229.3Q485.7 231.1 486.4 231.9Q487.1 232.7 488.7 232.9L488.7 232.9L489.2 232.9Q492.1 233.2 492.1 235.6L492.1 235.6Q492.1 237.2 490.8 238.1Q489.4 238.9 486.9 238.9L486.9 238.9L486.6 238.9Q478.4 238.9 478.4 230.9ZM503.0 238.2Q502.0 239.2 500.4 239.2Q498.8 239.2 497.7 238.2Q496.7 237.1 496.7 235.3L496.7 235.3L496.7 199.5Q496.7 197.7 497.7 196.7Q498.7 195.7 500.3 195.7L500.3 195.7Q502.0 195.7 503.0 196.7Q503.9 197.7 503.9 199.5L503.9 199.5L503.9 212.9L504.1 212.9Q505.4 210.0 507.9 208.5Q510.4 206.9 513.9 206.9L513.9 206.9Q519.0 206.9 521.9 210.1Q524.8 213.2 524.8 218.6L524.8 218.6L524.8 235.3Q524.8 237.1 523.8 238.2Q522.8 239.2 521.1 239.2Q519.5 239.2 518.5 238.2Q517.5 237.1 517.5 235.3L517.5 235.3L517.5 220.1Q517.5 216.8 515.9 214.9Q514.2 213.1 511.1 213.1L511.1 213.1Q507.8 213.1 505.9 215.2Q504.0 217.3 504.0 220.7L504.0 220.7L504.0 235.3Q504.0 237.1 503.0 238.2ZM544.4 239.2L544.4 239.2Q537.3 239.2 533.3 235.0Q529.3 230.7 529.3 223.2L529.3 223.2Q529.3 215.7 533.3 211.3Q537.3 206.9 544.0 206.9L544.0 206.9Q550.4 206.9 554.3 210.9Q558.3 215.0 558.3 221.4L558.3 221.4Q558.3 223.0 557.4 223.9Q556.5 224.8 554.9 224.8L554.9 224.8L536.6 224.8L536.6 225.0Q536.6 228.9 538.7 231.3Q540.8 233.6 544.3 233.6L544.3 233.6Q546.8 233.6 548.6 232.6Q550.4 231.7 552.1 229.4L552.1 229.4Q553.2 228.3 554.6 228.3L554.6 228.3Q555.8 228.3 556.7 229.0Q557.5 229.8 557.5 231.1L557.5 231.1Q557.5 231.9 557.0 232.9L557.0 232.9Q555.4 235.9 552.1 237.5Q548.8 239.2 544.4 239.2ZM536.6 220.0L536.6 220.0L551.1 220.0Q551.0 216.6 549.1 214.6Q547.1 212.5 544.0 212.5Q540.9 212.5 538.9 214.6Q536.8 216.7 536.6 220.0Z M594.0 239.3L594.0 239.3Q584.9 239.3 579.6 233.4Q574.3 227.6 574.3 217.4L574.3 217.4Q574.3 207.3 579.6 201.5Q584.9 195.6 593.9 195.6L593.9 195.6Q599.7 195.6 604.2 198.2Q608.6 200.8 610.7 205.4L610.7 205.4Q611.4 206.9 611.4 208.3L611.4 208.3Q611.4 209.8 610.5 210.7Q609.6 211.6 608.0 211.6L608.0 211.6Q605.5 211.6 604.3 208.9L604.3 208.9Q602.9 205.6 600.2 203.8Q597.4 202.0 593.9 202.0L593.9 202.0Q588.5 202.0 585.3 206.2Q582.0 210.4 582.0 217.4L582.0 217.4Q582.0 224.5 585.2 228.7Q588.5 232.9 594.0 232.9L594.0 232.9Q601.6 232.9 604.5 226.3L604.5 226.3Q605.0 225.0 605.8 224.4Q606.6 223.9 607.8 223.9L607.8 223.9Q609.4 223.9 610.4 224.8Q611.3 225.7 611.3 227.2L611.3 227.2Q611.3 228.6 610.6 230.1L610.6 230.1Q608.6 234.4 604.3 236.8Q599.9 239.3 594.0 239.3ZM641.8 234.9Q637.8 239.2 630.9 239.2Q624.0 239.2 619.9 234.9Q615.9 230.6 615.9 223.1L615.9 223.1Q615.9 215.6 620.0 211.2Q624.1 206.9 630.9 206.9L630.9 206.9Q637.7 206.9 641.8 211.2Q645.9 215.6 645.9 223.1L645.9 223.1Q645.9 230.6 641.8 234.9ZM625.3 230.7Q627.4 233.4 630.9 233.4Q634.4 233.4 636.5 230.7Q638.5 228.0 638.5 223.1L638.5 223.1Q638.5 218.2 636.5 215.4Q634.4 212.7 630.9 212.7L630.9 212.7Q627.4 212.7 625.3 215.4Q623.3 218.2 623.3 223.1L623.3 223.1Q623.3 228.0 625.3 230.7ZM657.1 238.2Q656.1 239.2 654.5 239.2Q652.8 239.2 651.8 238.2Q650.8 237.1 650.8 235.3L650.8 235.3L650.8 199.6Q650.8 197.7 651.8 196.7Q652.8 195.7 654.5 195.7Q656.1 195.7 657.1 196.7Q658.1 197.7 658.1 199.6L658.1 199.6L658.1 235.3Q658.1 237.1 657.1 238.2ZM670.8 238.2Q669.8 239.2 668.2 239.2Q666.5 239.2 665.5 238.2Q664.5 237.1 664.5 235.3L664.5 235.3L664.5 199.6Q664.5 197.7 665.5 196.7Q666.5 195.7 668.2 195.7Q669.8 195.7 670.8 196.7Q671.8 197.7 671.8 199.6L671.8 199.6L671.8 235.3Q671.8 237.1 670.8 238.2ZM684.7 202.0Q683.5 203.2 681.8 203.2Q680.1 203.2 679.0 202.0Q677.8 200.8 677.8 199.2L677.8 199.2Q677.8 197.5 679.0 196.4Q680.1 195.2 681.8 195.2L681.8 195.2Q683.6 195.2 684.7 196.4Q685.9 197.5 685.9 199.2L685.9 199.2Q685.9 200.8 684.7 202.0ZM684.5 238.1Q683.5 239.2 681.8 239.2Q680.2 239.2 679.2 238.1Q678.2 237.1 678.2 235.3L678.2 235.3L678.2 210.7Q678.2 209.0 679.2 207.9Q680.2 206.9 681.8 206.9Q683.5 206.9 684.5 207.9Q685.5 209.0 685.5 210.8L685.5 210.8L685.5 235.3Q685.5 237.1 684.5 238.1ZM703.6 239.2L703.6 239.2Q698.8 239.2 695.4 237.5Q692.1 235.8 690.9 233.0L690.9 233.0Q690.7 232.2 690.7 231.5L690.7 231.5Q690.7 230.2 691.5 229.4Q692.4 228.6 693.7 228.6L693.7 228.6Q695.5 228.6 696.9 230.4L696.9 230.4Q698.1 232.3 699.7 233.1Q701.3 233.9 703.9 233.9L703.9 233.9Q706.4 233.9 708.0 232.9Q709.5 231.8 709.5 230.1L709.5 230.1Q709.5 228.7 708.5 227.8Q707.5 227.0 705.2 226.4L705.2 226.4L700.1 225.3Q691.1 223.3 691.1 216.4L691.1 216.4Q691.1 212.1 694.5 209.5Q698.0 206.9 703.7 206.9L703.7 206.9Q708.1 206.9 711.3 208.8Q714.6 210.6 715.3 213.4L715.3 213.4Q715.4 214.0 715.4 214.5L715.4 214.5Q715.4 215.6 714.7 216.4Q714.0 217.1 712.6 217.1L712.6 217.1Q710.8 217.1 709.8 215.7L709.8 215.7Q708.7 214.0 707.2 213.1Q705.7 212.2 703.5 212.2L703.5 212.2Q701.1 212.2 699.6 213.3Q698.2 214.3 698.2 216.0L698.2 216.0Q698.2 218.8 702.7 219.8L702.7 219.8L707.7 220.9Q712.6 222.0 714.7 223.9Q716.8 225.9 716.8 229.3L716.8 229.3Q716.8 233.8 713.2 236.5Q709.6 239.2 703.6 239.2ZM728.1 202.0Q727.0 203.2 725.3 203.2Q723.6 203.2 722.4 202.0Q721.2 200.8 721.2 199.2L721.2 199.2Q721.2 197.5 722.4 196.4Q723.6 195.2 725.3 195.2L725.3 195.2Q727.0 195.2 728.2 196.4Q729.3 197.5 729.3 199.2L729.3 199.2Q729.3 200.8 728.1 202.0ZM727.9 238.1Q726.9 239.2 725.3 239.2Q723.6 239.2 722.6 238.1Q721.6 237.1 721.6 235.3L721.6 235.3L721.6 210.7Q721.6 209.0 722.6 207.9Q723.6 206.9 725.3 206.9Q726.9 206.9 727.9 207.9Q728.9 209.0 728.9 210.8L728.9 210.8L728.9 235.3Q728.9 237.1 727.9 238.1ZM759.7 234.9Q755.7 239.2 748.8 239.2Q741.9 239.2 737.8 234.9Q733.8 230.6 733.8 223.1L733.8 223.1Q733.8 215.6 737.9 211.2Q742.0 206.9 748.8 206.9L748.8 206.9Q755.6 206.9 759.7 211.2Q763.8 215.6 763.8 223.1L763.8 223.1Q763.8 230.6 759.7 234.9ZM743.2 230.7Q745.3 233.4 748.8 233.4Q752.3 233.4 754.3 230.7Q756.4 228.0 756.4 223.1L756.4 223.1Q756.4 218.2 754.3 215.4Q752.3 212.7 748.8 212.7L748.8 212.7Q745.3 212.7 743.2 215.4Q741.2 218.2 741.2 223.1L741.2 223.1Q741.2 228.0 743.2 230.7ZM774.8 238.2Q773.8 239.2 772.1 239.2Q770.5 239.2 769.5 238.2Q768.5 237.1 768.5 235.3L768.5 235.3L768.5 210.6Q768.5 208.9 769.4 207.9Q770.4 206.9 772.0 206.9Q773.6 206.9 774.6 207.9Q775.6 208.9 775.6 210.6L775.6 210.6L775.6 212.8L775.7 212.8Q778.4 206.9 785.4 206.9L785.4 206.9Q790.5 206.9 793.3 210.0Q796.2 213.1 796.2 218.5L796.2 218.5L796.2 235.3Q796.2 237.1 795.2 238.2Q794.2 239.2 792.5 239.2Q790.9 239.2 789.9 238.2Q788.9 237.1 788.9 235.3L788.9 235.3L788.9 220.0Q788.9 216.6 787.3 214.9Q785.7 213.1 782.6 213.1L782.6 213.1Q779.5 213.1 777.7 215.2Q775.8 217.2 775.8 220.6L775.8 220.6L775.8 235.3Q775.8 237.1 774.8 238.2Z M833.0 239.3L833.0 239.3Q823.9 239.3 818.6 233.4Q813.3 227.6 813.3 217.4L813.3 217.4Q813.3 207.3 818.6 201.5Q823.9 195.6 832.9 195.6L832.9 195.6Q838.8 195.6 843.2 198.2Q847.6 200.8 849.7 205.4L849.7 205.4Q850.4 206.9 850.4 208.3L850.4 208.3Q850.4 209.8 849.5 210.7Q848.6 211.6 847.0 211.6L847.0 211.6Q844.5 211.6 843.3 208.9L843.3 208.9Q841.9 205.6 839.2 203.8Q836.4 202.0 832.9 202.0L832.9 202.0Q827.5 202.0 824.3 206.2Q821.0 210.4 821.0 217.4L821.0 217.4Q821.0 224.5 824.2 228.7Q827.5 232.9 833.0 232.9L833.0 232.9Q840.6 232.9 843.5 226.3L843.5 226.3Q844.1 225.0 844.8 224.4Q845.6 223.9 846.8 223.9L846.8 223.9Q848.4 223.9 849.4 224.8Q850.4 225.7 850.4 227.2L850.4 227.2Q850.4 228.6 849.6 230.1L849.6 230.1Q847.6 234.4 843.3 236.8Q838.9 239.3 833.0 239.3ZM880.8 234.9Q876.8 239.2 869.9 239.2Q863.0 239.2 858.9 234.9Q854.9 230.6 854.9 223.1L854.9 223.1Q854.9 215.6 859.0 211.2Q863.1 206.9 869.9 206.9L869.9 206.9Q876.7 206.9 880.8 211.2Q884.9 215.6 884.9 223.1L884.9 223.1Q884.9 230.6 880.8 234.9ZM864.3 230.7Q866.4 233.4 869.9 233.4Q873.4 233.4 875.5 230.7Q877.5 228.0 877.5 223.1L877.5 223.1Q877.5 218.2 875.5 215.4Q873.4 212.7 869.9 212.7L869.9 212.7Q866.4 212.7 864.3 215.4Q862.3 218.2 862.3 223.1L862.3 223.1Q862.3 228.0 864.3 230.7ZM895.9 238.2Q894.9 239.2 893.2 239.2Q891.6 239.2 890.6 238.2Q889.6 237.1 889.6 235.3L889.6 235.3L889.6 210.6Q889.6 208.9 890.5 207.9Q891.5 206.9 893.1 206.9Q894.7 206.9 895.7 207.9Q896.7 208.9 896.7 210.6L896.7 210.6L896.7 212.8L896.8 212.8Q899.5 206.9 906.5 206.9L906.5 206.9Q911.6 206.9 914.4 210.0Q917.3 213.1 917.3 218.5L917.3 218.5L917.3 235.3Q917.3 237.1 916.3 238.2Q915.3 239.2 913.6 239.2Q912.0 239.2 911.0 238.2Q910.0 237.1 910.0 235.3L910.0 235.3L910.0 220.0Q910.0 216.6 908.4 214.9Q906.8 213.1 903.8 213.1L903.8 213.1Q900.6 213.1 898.8 215.2Q896.9 217.2 896.9 220.6L896.9 220.6L896.9 235.3Q896.9 237.1 895.9 238.2ZM925.1 230.9L925.1 230.9L925.1 213.1L923.2 213.1Q921.8 213.1 921.0 212.4Q920.2 211.6 920.2 210.3L920.2 210.3Q920.2 209.0 921.0 208.3Q921.8 207.5 923.2 207.5L923.2 207.5L925.1 207.5L925.1 203.4Q925.1 201.6 926.1 200.6Q927.1 199.6 928.8 199.6L928.8 199.6Q930.4 199.6 931.4 200.6Q932.4 201.6 932.4 203.4L932.4 203.4L932.4 207.5L935.8 207.5Q937.2 207.5 937.9 208.3Q938.7 209.0 938.7 210.3L938.7 210.3Q938.7 211.6 937.9 212.4Q937.1 213.1 935.8 213.1L935.8 213.1L932.4 213.1L932.4 229.3Q932.4 231.1 933.1 231.9Q933.8 232.7 935.3 232.9L935.3 232.9L935.9 232.9Q938.8 233.2 938.8 235.6L938.8 235.6Q938.8 237.2 937.5 238.1Q936.1 238.9 933.6 238.9L933.6 238.9L933.3 238.9Q925.1 238.9 925.1 230.9ZM949.5 238.1Q948.5 239.2 946.9 239.2Q945.2 239.2 944.2 238.1Q943.2 237.1 943.2 235.3L943.2 235.3L943.2 210.6Q943.2 208.9 944.2 207.9Q945.1 206.9 946.7 206.9L946.7 206.9Q948.2 206.9 949.2 207.9Q950.2 208.9 950.2 210.6L950.2 210.6L950.2 213.0L950.3 213.0Q951.0 210.3 952.8 208.6Q954.6 207.0 957.0 207.0L957.0 207.0Q958.7 207.0 959.5 207.8L959.5 207.8Q960.6 208.6 960.6 210.4L960.6 210.4Q960.6 212.1 959.5 213.0L959.5 213.0Q958.4 213.9 956.3 214.0L956.3 214.0Q950.5 214.0 950.5 220.4L950.5 220.4L950.5 235.3Q950.5 237.1 949.5 238.1ZM988.5 234.9Q984.5 239.2 977.6 239.2Q970.7 239.2 966.6 234.9Q962.6 230.6 962.6 223.1L962.6 223.1Q962.6 215.6 966.7 211.2Q970.8 206.9 977.6 206.9L977.6 206.9Q984.4 206.9 988.5 211.2Q992.6 215.6 992.6 223.1L992.6 223.1Q992.6 230.6 988.5 234.9ZM972.0 230.7Q974.1 233.4 977.6 233.4Q981.1 233.4 983.2 230.7Q985.2 228.0 985.2 223.1L985.2 223.1Q985.2 218.2 983.2 215.4Q981.1 212.7 977.6 212.7L977.6 212.7Q974.1 212.7 972.0 215.4Q970.0 218.2 970.0 223.1L970.0 223.1Q970.0 228.0 972.0 230.7ZM1003.8 238.2Q1002.8 239.2 1001.2 239.2Q999.5 239.2 998.5 238.2Q997.5 237.1 997.5 235.3L997.5 235.3L997.5 199.6Q997.5 197.7 998.5 196.7Q999.5 195.7 1001.2 195.7Q1002.8 195.7 1003.8 196.7Q1004.8 197.7 1004.8 199.6L1004.8 199.6L1004.8 235.3Q1004.8 237.1 1003.8 238.2Z M1047.7 234.9Q1043.7 239.2 1036.8 239.2Q1029.9 239.2 1025.8 234.9Q1021.7 230.6 1021.7 223.1L1021.7 223.1Q1021.7 215.6 1025.8 211.2Q1029.9 206.9 1036.8 206.9L1036.8 206.9Q1043.6 206.9 1047.7 211.2Q1051.8 215.6 1051.8 223.1L1051.8 223.1Q1051.8 230.6 1047.7 234.9ZM1031.2 230.7Q1033.3 233.4 1036.8 233.4Q1040.3 233.4 1042.3 230.7Q1044.4 228.0 1044.4 223.1L1044.4 223.1Q1044.4 218.2 1042.3 215.4Q1040.3 212.7 1036.8 212.7L1036.8 212.7Q1033.3 212.7 1031.2 215.4Q1029.2 218.2 1029.2 223.1L1029.2 223.1Q1029.2 228.0 1031.2 230.7ZM1064.8 238.2Q1063.8 239.2 1062.2 239.2Q1060.5 239.2 1059.5 238.2Q1058.5 237.2 1058.5 235.4L1058.5 235.4L1058.5 213.1L1056.6 213.1Q1055.3 213.1 1054.5 212.4Q1053.8 211.7 1053.8 210.4L1053.8 210.4Q1053.8 209.1 1054.5 208.4Q1055.3 207.6 1056.6 207.6L1056.6 207.6L1058.5 207.6L1058.5 204.9Q1058.5 196.0 1067.1 196.0L1067.1 196.0Q1069.9 196.0 1071.3 196.8Q1072.7 197.6 1072.7 199.0L1072.7 199.0Q1072.7 200.7 1071.0 201.1L1071.0 201.1Q1070.4 201.3 1069.4 201.3L1069.4 201.3Q1067.4 201.4 1066.6 202.3Q1065.7 203.2 1065.7 205.2L1065.7 205.2L1065.7 207.6L1069.6 207.6Q1070.8 207.6 1071.6 208.4Q1072.4 209.1 1072.4 210.4L1072.4 210.4Q1072.4 211.7 1071.6 212.4Q1070.8 213.1 1069.6 213.1L1069.6 213.1L1065.8 213.1L1065.8 235.4Q1065.8 237.2 1064.8 238.2Z M49.6 320.6Q48.7 321.6 47.1 321.6Q45.5 321.6 44.6 320.6Q43.7 319.7 43.7 318.0L43.7 318.0L43.7 283.1Q43.7 280.9 45.0 279.6Q46.3 278.3 48.6 278.3L48.6 278.3Q50.5 278.3 51.8 279.2Q53.0 280.1 53.8 282.2L53.8 282.2L65.4 310.7L65.7 310.7L77.3 282.2Q78.1 280.2 79.3 279.2Q80.6 278.3 82.5 278.3L82.5 278.3Q84.8 278.3 86.1 279.6Q87.3 280.9 87.3 283.1L87.3 283.1L87.3 318.0Q87.3 319.7 86.5 320.6Q85.6 321.6 83.9 321.6Q82.3 321.6 81.4 320.6Q80.5 319.7 80.5 318.0L80.5 318.0L80.5 291.1L80.3 291.1L69.1 318.3Q68.1 320.8 65.5 320.8L65.5 320.8Q63.0 320.8 62.0 318.3L62.0 318.3L50.8 291.1L50.5 291.1L50.5 318.0Q50.5 319.7 49.6 320.6ZM105.0 321.6L105.0 321.6Q99.9 321.6 96.9 318.5Q93.9 315.5 93.9 310.1L93.9 310.1L93.9 293.2Q93.9 291.5 94.9 290.4Q95.9 289.4 97.6 289.4Q99.2 289.4 100.2 290.4Q101.2 291.5 101.2 293.3L101.2 293.3L101.2 308.6Q101.2 312.0 102.8 313.7Q104.4 315.5 107.5 315.5L107.5 315.5Q110.6 315.5 112.5 313.4Q114.3 311.4 114.3 308.0L114.3 308.0L114.3 293.2Q114.3 291.5 115.3 290.4Q116.3 289.4 118.0 289.4L118.0 289.4Q119.6 289.4 120.6 290.4Q121.6 291.5 121.6 293.3L121.6 293.3L121.6 318.0Q121.6 319.7 120.7 320.7Q119.7 321.7 118.1 321.7L118.1 321.7Q116.5 321.7 115.6 320.7Q114.6 319.7 114.6 318.0L114.6 318.0L114.6 315.7L114.4 315.7Q111.9 321.6 105.0 321.6ZM134.1 320.7Q133.1 321.7 131.4 321.7Q129.8 321.7 128.8 320.7Q127.8 319.6 127.8 317.8L127.8 317.8L127.8 282.1Q127.8 280.2 128.8 279.2Q129.8 278.2 131.4 278.2Q133.1 278.2 134.1 279.2Q135.1 280.2 135.1 282.1L135.1 282.1L135.1 317.8Q135.1 319.6 134.1 320.7ZM143.3 313.4L143.3 313.4L143.3 295.6L141.3 295.6Q140.0 295.6 139.2 294.9Q138.4 294.1 138.4 292.8L138.4 292.8Q138.4 291.5 139.2 290.8Q140.0 290.0 141.3 290.0L141.3 290.0L143.3 290.0L143.3 285.9Q143.3 284.1 144.3 283.1Q145.3 282.1 147.0 282.1L147.0 282.1Q148.6 282.1 149.6 283.1Q150.6 284.1 150.6 285.9L150.6 285.9L150.6 290.0L154.0 290.0Q155.3 290.0 156.1 290.8Q156.9 291.5 156.9 292.8L156.9 292.8Q156.9 294.1 156.1 294.9Q155.3 295.6 154.0 295.6L154.0 295.6L150.6 295.6L150.6 311.8Q150.6 313.6 151.3 314.4Q151.9 315.2 153.5 315.4L153.5 315.4L154.1 315.4Q157.0 315.7 157.0 318.1L157.0 318.1Q157.0 319.7 155.6 320.6Q154.3 321.4 151.8 321.4L151.8 321.4L151.5 321.4Q143.3 321.4 143.3 313.4ZM168.1 284.5Q166.9 285.7 165.2 285.7Q163.5 285.7 162.3 284.5Q161.2 283.3 161.2 281.7L161.2 281.7Q161.2 280.0 162.3 278.9Q163.5 277.7 165.2 277.7L165.2 277.7Q166.9 277.7 168.1 278.9Q169.3 280.0 169.3 281.7L169.3 281.7Q169.3 283.3 168.1 284.5ZM167.9 320.6Q166.9 321.7 165.2 321.7Q163.5 321.7 162.6 320.6Q161.6 319.6 161.6 317.8L161.6 317.8L161.6 293.2Q161.6 291.5 162.6 290.4Q163.5 289.4 165.2 289.4Q166.9 289.4 167.9 290.4Q168.9 291.5 168.9 293.3L168.9 293.3L168.9 317.8Q168.9 319.6 167.9 320.6ZM181.3 331.1Q180.3 332.1 178.6 332.1Q177.0 332.1 176.0 331.1Q175 330.1 175 328.3L175 328.3L175 293.2Q175 291.4 176.0 290.4Q177.0 289.4 178.5 289.4L178.5 289.4Q180.2 289.4 181.1 290.4Q182.1 291.4 182.1 293.2L182.1 293.2L182.1 295.4L182.3 295.4Q183.6 292.6 186.2 291.1Q188.7 289.5 192.1 289.5L192.1 289.5Q198.0 289.5 201.5 293.8Q204.9 298.1 204.9 305.6L204.9 305.6Q204.9 313.0 201.5 317.3Q198.0 321.6 192.2 321.6L192.2 321.6Q188.8 321.6 186.3 320.1Q183.7 318.6 182.4 315.9L182.4 315.9L182.3 315.9L182.3 328.3Q182.3 330.1 181.3 331.1ZM189.8 315.6L189.8 315.6Q193.4 315.6 195.4 312.9Q197.5 310.2 197.5 305.6L197.5 305.6Q197.5 301.0 195.4 298.2Q193.3 295.5 189.8 295.5L189.8 295.5Q186.4 295.5 184.3 298.3Q182.3 301.0 182.2 305.6L182.2 305.6Q182.3 310.1 184.3 312.9Q186.4 315.6 189.8 315.6ZM216.1 320.7Q215.1 321.7 213.5 321.7Q211.9 321.7 210.8 320.7Q209.8 319.6 209.8 317.8L209.8 317.8L209.8 282.1Q209.8 280.2 210.8 279.2Q211.9 278.2 213.5 278.2Q215.1 278.2 216.1 279.2Q217.1 280.2 217.1 282.1L217.1 282.1L217.1 317.8Q217.1 319.6 216.1 320.7ZM237.1 321.7L237.1 321.7Q230.0 321.7 226.0 317.5Q222.1 313.2 222.1 305.7L222.1 305.7Q222.1 298.2 226.0 293.8Q230.0 289.4 236.7 289.4L236.7 289.4Q243.1 289.4 247.1 293.4Q251.0 297.5 251.0 303.9L251.0 303.9Q251.0 305.5 250.1 306.4Q249.2 307.3 247.6 307.3L247.6 307.3L229.3 307.3L229.3 307.5Q229.3 311.4 231.4 313.8Q233.5 316.1 237.1 316.1L237.1 316.1Q239.5 316.1 241.3 315.1Q243.1 314.2 244.8 311.9L244.8 311.9Q245.9 310.8 247.3 310.8L247.3 310.8Q248.6 310.8 249.4 311.5Q250.2 312.3 250.2 313.6L250.2 313.6Q250.2 314.4 249.7 315.4L249.7 315.4Q248.2 318.4 244.9 320.0Q241.6 321.7 237.1 321.7ZM229.4 302.5L229.4 302.5L243.9 302.5Q243.8 299.1 241.8 297.1Q239.8 295.0 236.8 295.0Q233.7 295.0 231.6 297.1Q229.6 299.2 229.4 302.5Z M270.3 321.6L270.3 321.6Q268.6 321.6 267.5 320.6Q266.5 319.7 266.5 318.1L266.5 318.1Q266.5 317.1 267.0 315.8L267.0 315.8L279.3 282.4Q280.0 280.3 281.4 279.3Q282.7 278.3 284.7 278.3L284.7 278.3Q286.8 278.3 288.2 279.3Q289.5 280.2 290.3 282.4L290.3 282.4L302.6 315.8Q303.1 317.2 303.1 318.1L303.1 318.1Q303.1 319.6 302.0 320.6Q300.9 321.6 299.3 321.6L299.3 321.6Q297.8 321.6 296.8 320.8Q295.9 320.1 295.4 318.4L295.4 318.4L292.7 310.3L276.9 310.3L274.1 318.3Q273.6 320.1 272.7 320.8Q271.8 321.6 270.3 321.6ZM284.6 286.3L278.7 304.3L290.8 304.3L284.8 286.3L284.6 286.3ZM318.7 321.6L318.7 321.6Q313.6 321.6 310.7 318.5Q307.7 315.5 307.7 310.1L307.7 310.1L307.7 293.2Q307.7 291.5 308.7 290.4Q309.7 289.4 311.3 289.4Q313.0 289.4 314.0 290.4Q315.0 291.5 315.0 293.3L315.0 293.3L315.0 308.6Q315.0 312.0 316.6 313.7Q318.2 315.5 321.3 315.5L321.3 315.5Q324.4 315.5 326.2 313.4Q328.1 311.4 328.1 308.0L328.1 308.0L328.1 293.2Q328.1 291.5 329.1 290.4Q330.1 289.4 331.7 289.4L331.7 289.4Q333.3 289.4 334.4 290.4Q335.4 291.5 335.4 293.3L335.4 293.3L335.4 318.0Q335.4 319.7 334.4 320.7Q333.5 321.7 331.9 321.7L331.9 321.7Q330.3 321.7 329.3 320.7Q328.3 319.7 328.3 318.0L328.3 318.0L328.3 315.7L328.2 315.7Q325.6 321.6 318.7 321.6ZM343.3 313.4L343.3 313.4L343.3 295.6L341.4 295.6Q340.0 295.6 339.2 294.9Q338.4 294.1 338.4 292.8L338.4 292.8Q338.4 291.5 339.2 290.8Q340 290.0 341.4 290.0L341.4 290.0L343.3 290.0L343.3 285.9Q343.3 284.1 344.3 283.1Q345.3 282.1 347.0 282.1L347.0 282.1Q348.7 282.1 349.7 283.1Q350.6 284.1 350.6 285.9L350.6 285.9L350.6 290.0L354.0 290.0Q355.4 290.0 356.2 290.8Q356.9 291.5 356.9 292.8L356.9 292.8Q356.9 294.1 356.1 294.9Q355.4 295.6 354.0 295.6L354.0 295.6L350.6 295.6L350.6 311.8Q350.6 313.6 351.3 314.4Q352.0 315.2 353.6 315.4L353.6 315.4L354.1 315.4Q357.0 315.7 357.0 318.1L357.0 318.1Q357.0 319.7 355.7 320.6Q354.3 321.4 351.8 321.4L351.8 321.4L351.5 321.4Q343.3 321.4 343.3 313.4ZM386.1 317.4Q382.1 321.7 375.2 321.7Q368.3 321.7 364.2 317.4Q360.2 313.1 360.2 305.6L360.2 305.6Q360.2 298.1 364.3 293.7Q368.4 289.4 375.2 289.4L375.2 289.4Q382.0 289.4 386.1 293.7Q390.2 298.1 390.2 305.6L390.2 305.6Q390.2 313.1 386.1 317.4ZM369.6 313.2Q371.7 315.9 375.2 315.9Q378.7 315.9 380.8 313.2Q382.8 310.5 382.8 305.6L382.8 305.6Q382.8 300.7 380.8 297.9Q378.7 295.2 375.2 295.2L375.2 295.2Q371.7 295.2 369.6 297.9Q367.6 300.7 367.6 305.6L367.6 305.6Q367.6 310.5 369.6 313.2ZM401.2 320.7Q400.2 321.7 398.5 321.7Q396.9 321.7 395.9 320.7Q394.9 319.6 394.9 317.8L394.9 317.8L394.9 293.1Q394.9 291.4 395.8 290.4Q396.8 289.4 398.4 289.4Q400 289.4 401.0 290.4Q402.0 291.4 402.0 293.1L402.0 293.1L402.0 295.3L402.1 295.3Q404.8 289.4 411.8 289.4L411.8 289.4Q416.9 289.4 419.7 292.5Q422.6 295.6 422.6 301.0L422.6 301.0L422.6 317.8Q422.6 319.6 421.6 320.7Q420.6 321.7 418.9 321.7Q417.3 321.7 416.3 320.7Q415.3 319.6 415.3 317.8L415.3 317.8L415.3 302.5Q415.3 299.1 413.7 297.4Q412.1 295.6 409.1 295.6L409.1 295.6Q405.9 295.6 404.1 297.7Q402.2 299.7 402.2 303.1L402.2 303.1L402.2 317.8Q402.2 319.6 401.2 320.7ZM453.1 317.4Q449.0 321.7 442.1 321.7Q435.2 321.7 431.2 317.4Q427.1 313.1 427.1 305.6L427.1 305.6Q427.1 298.1 431.2 293.7Q435.3 289.4 442.1 289.4L442.1 289.4Q449.0 289.4 453.1 293.7Q457.2 298.1 457.2 305.6L457.2 305.6Q457.2 313.1 453.1 317.4ZM436.6 313.2Q438.6 315.9 442.1 315.9Q445.6 315.9 447.7 313.2Q449.7 310.5 449.7 305.6L449.7 305.6Q449.7 300.7 447.7 297.9Q445.6 295.2 442.1 295.2L442.1 295.2Q438.6 295.2 436.6 297.9Q434.5 300.7 434.5 305.6L434.5 305.6Q434.5 310.5 436.6 313.2ZM465.5 321.7L465.5 321.7Q463.8 321.7 462.8 320.7Q461.8 319.6 461.8 317.8L461.8 317.8L461.8 293.1Q461.8 291.4 462.8 290.4Q463.8 289.4 465.3 289.4Q466.9 289.4 467.9 290.4Q468.8 291.4 468.8 293.1L468.8 293.1L468.8 295.4L469.0 295.4Q470.0 292.7 472.4 291.0Q474.7 289.4 477.8 289.4L477.8 289.4Q481.1 289.4 483.4 291.1Q485.7 292.7 486.5 295.7L486.5 295.7L486.7 295.7Q487.8 292.8 490.4 291.1Q493.0 289.4 496.4 289.4L496.4 289.4Q501.0 289.4 503.7 292.3Q506.5 295.1 506.5 299.8L506.5 299.8L506.5 317.8Q506.5 319.6 505.5 320.6Q504.5 321.7 502.9 321.7L502.9 321.7Q501.2 321.7 500.2 320.6Q499.2 319.6 499.2 317.8L499.2 317.8L499.2 301.6Q499.2 298.7 497.7 297.1Q496.3 295.6 493.6 295.6L493.6 295.6Q491.0 295.6 489.4 297.3Q487.7 299.1 487.7 301.9L487.7 301.9L487.7 317.8Q487.7 319.6 486.8 320.7Q485.8 321.7 484.2 321.7L484.2 321.7Q482.5 321.7 481.6 320.7Q480.6 319.6 480.6 317.8L480.6 317.8L480.6 301.2Q480.6 298.6 479.1 297.1Q477.7 295.6 475.1 295.6L475.1 295.6Q472.5 295.6 470.8 297.4Q469.1 299.3 469.1 302.1L469.1 302.1L469.1 317.8Q469.1 319.6 468.1 320.6Q467.1 321.7 465.5 321.7ZM537.0 317.4Q532.9 321.7 526.1 321.7Q519.2 321.7 515.1 317.4Q511.0 313.1 511.0 305.6L511.0 305.6Q511.0 298.1 515.1 293.7Q519.2 289.4 526.1 289.4L526.1 289.4Q532.9 289.4 537.0 293.7Q541.1 298.1 541.1 305.6L541.1 305.6Q541.1 313.1 537.0 317.4ZM520.5 313.2Q522.5 315.9 526.1 315.9Q529.6 315.9 531.6 313.2Q533.7 310.5 533.7 305.6L533.7 305.6Q533.7 300.7 531.6 297.9Q529.6 295.2 526.1 295.2L526.1 295.2Q522.6 295.2 520.5 297.9Q518.4 300.7 518.4 305.6L518.4 305.6Q518.4 310.5 520.5 313.2ZM556.7 321.6L556.7 321.6Q551.6 321.6 548.6 318.5Q545.6 315.5 545.6 310.1L545.6 310.1L545.6 293.2Q545.6 291.5 546.6 290.4Q547.6 289.4 549.3 289.4Q550.9 289.4 551.9 290.4Q552.9 291.5 552.9 293.3L552.9 293.3L552.9 308.6Q552.9 312.0 554.5 313.7Q556.1 315.5 559.2 315.5L559.2 315.5Q562.3 315.5 564.2 313.4Q566.0 311.4 566.0 308.0L566.0 308.0L566.0 293.2Q566.0 291.5 567.0 290.4Q568.0 289.4 569.7 289.4L569.7 289.4Q571.3 289.4 572.3 290.4Q573.3 291.5 573.3 293.3L573.3 293.3L573.3 318.0Q573.3 319.7 572.4 320.7Q571.4 321.7 569.8 321.7L569.8 321.7Q568.2 321.7 567.3 320.7Q566.3 319.7 566.3 318.0L566.3 318.0L566.3 315.7L566.1 315.7Q563.6 321.6 556.7 321.6ZM591.3 321.7L591.3 321.7Q586.4 321.7 583.1 320.0Q579.7 318.3 578.6 315.5L578.6 315.5Q578.3 314.7 578.3 314.0L578.3 314.0Q578.3 312.7 579.2 311.9Q580 311.1 581.3 311.1L581.3 311.1Q583.2 311.1 584.5 312.9L584.5 312.9Q585.8 314.8 587.4 315.6Q589.0 316.4 591.5 316.4L591.5 316.4Q594.1 316.4 595.6 315.4Q597.2 314.3 597.2 312.6L597.2 312.6Q597.2 311.2 596.2 310.3Q595.2 309.5 592.8 308.9L592.8 308.9L587.8 307.8Q578.7 305.8 578.7 298.9L578.7 298.9Q578.7 294.6 582.2 292.0Q585.6 289.4 591.4 289.4L591.4 289.4Q595.8 289.4 599.0 291.3Q602.2 293.1 602.9 295.9L602.9 295.9Q603.1 296.5 603.1 297.0L603.1 297.0Q603.1 298.1 602.4 298.9Q601.6 299.6 600.3 299.6L600.3 299.6Q598.4 299.6 597.5 298.2L597.5 298.2Q596.3 296.5 594.9 295.6Q593.4 294.7 591.2 294.7L591.2 294.7Q588.8 294.7 587.3 295.8Q585.8 296.8 585.8 298.5L585.8 298.5Q585.8 301.3 590.4 302.3L590.4 302.3L595.3 303.4Q600.2 304.5 602.4 306.4Q604.5 308.4 604.5 311.8L604.5 311.8Q604.5 316.3 600.8 319.0Q597.2 321.7 591.3 321.7Z M628.4 320.6Q627.4 321.7 625.6 321.7Q623.9 321.7 622.8 320.6Q621.8 319.6 621.8 317.7L621.8 317.7L621.8 282.7Q621.8 280.9 622.8 279.8Q623.9 278.8 625.6 278.8L625.6 278.8L638.6 278.8Q645.4 278.8 649.3 282.3Q653.2 285.9 653.2 292.0L653.2 292.0Q653.2 296.1 651.2 299.3Q649.2 302.5 645.5 303.9L645.5 303.9L652.2 315.6Q653.0 317.0 653.0 318.2L653.0 318.2Q653.0 319.7 652.0 320.7Q650.9 321.7 649.2 321.7L649.2 321.7Q647.9 321.7 647.1 321.1Q646.3 320.5 645.4 318.9L645.4 318.9L637.9 305.2L629.4 305.2L629.4 317.7Q629.4 319.6 628.4 320.6ZM629.4 284.9L629.4 299.4L637.9 299.4Q641.5 299.4 643.5 297.5Q645.5 295.6 645.5 292.1L645.5 292.1Q645.5 288.8 643.4 286.9Q641.3 284.9 637.8 284.9L637.8 284.9L629.4 284.9ZM683.3 317.4Q679.2 321.7 672.3 321.7Q665.5 321.7 661.4 317.4Q657.3 313.1 657.3 305.6L657.3 305.6Q657.3 298.1 661.4 293.7Q665.5 289.4 672.3 289.4L672.3 289.4Q679.2 289.4 683.3 293.7Q687.4 298.1 687.4 305.6L687.4 305.6Q687.4 313.1 683.3 317.4ZM666.8 313.2Q668.8 315.9 672.3 315.9Q675.9 315.9 677.9 313.2Q680.0 310.5 680.0 305.6L680.0 305.6Q680.0 300.7 677.9 297.9Q675.9 295.2 672.3 295.2L672.3 295.2Q668.9 295.2 666.8 297.9Q664.7 300.7 664.7 305.6L664.7 305.6Q664.7 310.5 666.8 313.2ZM698.4 320.7Q697.4 321.7 695.8 321.7Q694.2 321.7 693.2 320.7Q692.3 319.8 692.3 318.0L692.3 318.0L692.3 282.1Q692.3 280.2 693.3 279.2Q694.3 278.2 695.9 278.2Q697.6 278.2 698.6 279.2Q699.6 280.2 699.6 282.1L699.6 282.1L699.6 295.4L699.7 295.4Q701.1 292.6 703.6 291.0Q706.2 289.5 709.5 289.5L709.5 289.5Q715.4 289.5 718.8 293.8Q722.3 298.1 722.3 305.6L722.3 305.6Q722.3 313.0 718.8 317.3Q715.4 321.6 709.4 321.6L709.4 321.6Q706.1 321.6 703.5 320.1Q701.0 318.5 699.6 315.8L699.6 315.8L699.4 315.8L699.4 318.0Q699.4 319.7 698.4 320.7ZM707.2 315.6L707.2 315.6Q710.7 315.6 712.7 312.9Q714.8 310.2 714.8 305.6Q714.8 300.9 712.7 298.2Q710.7 295.5 707.2 295.5L707.2 295.5Q703.8 295.5 701.7 298.3Q699.5 301.0 699.5 305.6L699.5 305.6Q699.5 310.1 701.7 312.8Q703.8 315.6 707.2 315.6ZM751.7 317.4Q747.6 321.7 740.7 321.7Q733.8 321.7 729.7 317.4Q725.7 313.1 725.7 305.6L725.7 305.6Q725.7 298.1 729.8 293.7Q733.9 289.4 740.7 289.4L740.7 289.4Q747.5 289.4 751.6 293.7Q755.7 298.1 755.7 305.6L755.7 305.6Q755.7 313.1 751.7 317.4ZM735.1 313.2Q737.2 315.9 740.7 315.9Q744.2 315.9 746.3 313.2Q748.3 310.5 748.3 305.6L748.3 305.6Q748.3 300.7 746.3 297.9Q744.2 295.2 740.7 295.2L740.7 295.2Q737.2 295.2 735.1 297.9Q733.1 300.7 733.1 305.6L733.1 305.6Q733.1 310.5 735.1 313.2ZM762.4 313.4L762.4 313.4L762.4 295.6L760.5 295.6Q759.1 295.6 758.3 294.9Q757.5 294.1 757.5 292.8L757.5 292.8Q757.5 291.5 758.3 290.8Q759.1 290.0 760.5 290.0L760.5 290.0L762.4 290.0L762.4 285.9Q762.4 284.1 763.4 283.1Q764.4 282.1 766.1 282.1L766.1 282.1Q767.8 282.1 768.7 283.1Q769.7 284.1 769.7 285.9L769.7 285.9L769.7 290.0L773.1 290.0Q774.5 290.0 775.2 290.8Q776.0 291.5 776.0 292.8L776.0 292.8Q776.0 294.1 775.2 294.9Q774.4 295.6 773.1 295.6L773.1 295.6L769.7 295.6L769.7 311.8Q769.7 313.6 770.4 314.4Q771.1 315.2 772.7 315.4L772.7 315.4L773.2 315.4Q776.1 315.7 776.1 318.1L776.1 318.1Q776.1 319.7 774.8 320.6Q773.4 321.4 770.9 321.4L770.9 321.4L770.6 321.4Q762.4 321.4 762.4 313.4ZM792.5 321.7L792.5 321.7Q787.7 321.7 784.3 320.0Q781.0 318.3 779.9 315.5L779.9 315.5Q779.6 314.7 779.6 314.0L779.6 314.0Q779.6 312.7 780.4 311.9Q781.3 311.1 782.6 311.1L782.6 311.1Q784.4 311.1 785.8 312.9L785.8 312.9Q787.0 314.8 788.6 315.6Q790.2 316.4 792.8 316.4L792.8 316.4Q795.4 316.4 796.9 315.4Q798.4 314.3 798.4 312.6L798.4 312.6Q798.4 311.2 797.4 310.3Q796.4 309.5 794.1 308.9L794.1 308.9L789.0 307.8Q780.0 305.8 780.0 298.9L780.0 298.9Q780.0 294.6 783.4 292.0Q786.9 289.4 792.6 289.4L792.6 289.4Q797.0 289.4 800.3 291.3Q803.5 293.1 804.2 295.9L804.2 295.9Q804.4 296.5 804.4 297.0L804.4 297.0Q804.4 298.1 803.6 298.9Q802.9 299.6 801.5 299.6L801.5 299.6Q799.7 299.6 798.8 298.2L798.8 298.2Q797.6 296.5 796.1 295.6Q794.7 294.7 792.5 294.7L792.5 294.7Q790.1 294.7 788.6 295.8Q787.1 296.8 787.1 298.5L787.1 298.5Q787.1 301.3 791.6 302.3L791.6 302.3L796.6 303.4Q801.5 304.5 803.6 306.4Q805.8 308.4 805.8 311.8L805.8 311.8Q805.8 316.3 802.1 319.0Q798.5 321.7 792.5 321.7Z "/><defs><clipPath id="satori_bc-id-0-1"><rect x="0" y="441" width="1200" height="189"/></clipPath></defs><mask id="satori_om-id-0-1"><rect x="0" y="442" width="1200" height="188" fill="#fff"/><path width="1200" height="189" fill="none" stroke="#000" stroke-width="2" d="M0,441 A0,0 0 0 1 0,441 h1200 A0,0 0 0 1 1200,441"/></mask><path width="1200" height="189" clip-path="url(#satori_bc-id-0-1)" fill="none" stroke="#dbdbdb" stroke-width="2" d="M0,441 A0,0 0 0 1 0,441 h1200 A0,0 0 0 1 1200,441"/><mask id="satori_om-id-0-1-0"><rect x="40" y="482" width="389" height="108" fill="#fff"/></mask><clipPath id="satori_cp-id-0-1-0-0"><rect x="40" y="504" width="64" height="64"/></clipPath><mask id="satori_om-id-0-1-0-0"><rect x="40" y="504" width="64" height="64" fill="#fff"/></mask><image x="40" y="504" width="64" height="64" href="data:image/svg+xml;utf8,%3Csvg  xmlns=%22http://www.w3.org/2000/svg%22 width=%2264%22 height=%2264%22 viewBox=%220 0 128 128%22%3E%3Cpath fill=%22%23224d67%22 d=%22M22.5 14.8c2.9 1.3 99 44 99 44c2.7 1.2 2.9 3.1 2 12.4c-1 10.5-1.9 37.8-40.2 42.9c-24.6 3.2-55.9-4.3-70.9-27.2C-6 58.8 11 23.4 14.8 17.7c2.4-3.5 4.8-4.2 7.7-2.9%22%3E%3C/path%3E%3Cpath fill=%22%23f0f4c3%22 d=%22M121.5 58.8c-.3-.2-92-40.8-98.9-43.9C9.6 31.5-3.8 76 27.9 96.2c33.6 21.5 78.7-10.2 93.6-37.4%22%3E%3C/path%3E%3Cpath fill=%22%23f0f4c3%22 d=%22M117.7 57c-.3-.2-86.7-38.4-93.2-41.3c-12.2 15.5-23.9 59.1 5.7 78c31.4 20.2 73.6-11.2 87.5-36.7%22%3E%3C/path%3E%3Cpath fill=%22%23cb2a42%22 d=%22M56.2 37.6L19.5 48.2c-2.5.8-4.4 2.8-5 5.3c-1.9 8.5.8 23.3 8.9 29.8c3.5 2.7 8.6 1.8 10.8-2.1L58.5 41c1.3-1.7.5-4.2-2.3-3.4m14.3 2.9s14.6 30.1 16 33s6.3 4.7 9.9 2.8c10.7-5.6 15.5-12.4 19.2-20.2c-8.9-3.9-42.4-18.8-42.4-18.8c-2.4-1.1-4 .6-2.7 3.2m-8.6 1.9C60.3 45.1 39.5 81 37.6 84.1c-1.9 3.2-.7 7.5 2.7 9.2c12.3 6.5 30.9.4 39.6-7c2.2-1.9 4.5-5.1 3.2-8.2S68.9 44.6 67.8 42.3c-1.2-2.7-4.1-2.8-5.9.1%22%3E%3C/path%3E%3Cpath fill=%22%23f0f4c3%22 d=%22M52.2 42.2c-1.4.4-10.1 3-11.1 3.4c-1.4.5-2.2 1.7-1.9 2.5c.3.9 1.7 1.1 3.1.6c.8-.3 7.1-3.9 9.5-5.2c-3.1 2.4-10.2 9.4-11.1 10.3c-1.4 1.5-1.7 3.4-.8 4.3c1 .9 2.9.5 4.3-1c1.2-1.3 8.5-12.8 9.1-13.9s.4-1.4-1.1-1m10.1 16.4c0-2.2 1.4-10.3 1.8-12.3c.4-1.6 1.5-1.8 1.8.5s1.7 9.7 1.7 11.8s-1.2 3.3-2.7 3.3c-1.4 0-2.6-1.1-2.6-3.3M79.9 49c-1.2-1.8-3.3-4.9-4.1-6.1c-.7-1.2.1-2.1 1.8-.9s4 2.9 5.4 4c1.6 1.3 1.9 3 .8 4s-2.7.8-3.9-1%22%3E%3C/path%3E%3Cellipse cx=%2287.3%22 cy=%22103.12%22 fill=%22%23cb2a42%22 rx=%223.4%22 ry=%222.3%22 transform=%22rotate(-27.098 87.298 103.126)%22%3E%3C/ellipse%3E%3Cellipse cx=%2298.89%22 cy=%22103.82%22 fill=%22%23cb2a42%22 rx=%223.4%22 ry=%222.3%22 transform=%22rotate(-30.642 98.887 103.818)%22%3E%3C/ellipse%3E%3Cellipse cx=%22102.02%22 cy=%2293.8%22 fill=%22%23cb2a42%22 rx=%223.4%22 ry=%222.3%22 transform=%22rotate(-37.16 102.017 93.797)%22%3E%3C/ellipse%3E%3Cpath fill=%22%23cb2a42%22 d=%22M57.6 30.3c-8.3-3.7-24.4-10.7-29.6-13c-3.6 2.2-9.7 11.4-11.2 21.2c-.6 3.6 1.7 5.9 5.3 4.9c0 0 33.7-9.3 35.3-9.7c1.6-.5 2-2.6.2-3.4%22%3E%3C/path%3E%3C/svg%3E" preserveAspectRatio="none" clip-path="url(#satori_cp-id-0-1-0-0)" mask="url(#satori_om-id-0-1-0-0)"/><mask id="satori_om-id-0-1-0-0-0"><rect x="40" y="504" width="0" height="64" fill="#fff"/></mask><mask id="satori_om-id-0-1-0-0-1"><rect x="40" y="504" width="0" height="64" fill="#fff"/></mask><mask id="satori_om-id-0-1-0-0-2"><rect x="40" y="504" width="0" height="64" fill="#fff"/></mask><mask id="satori_om-id-0-1-0-0-3"><rect x="40" y="504" width="0" height="64" fill="#fff"/></mask><mask id="satori_om-id-0-1-0-0-4"><rect x="40" y="504" width="0" height="64" fill="#fff"/></mask><mask id="satori_om-id-0-1-0-0-5"><rect x="40" y="504" width="0" height="64" fill="#fff"/></mask><mask id="satori_om-id-0-1-0-0-6"><rect x="40" y="504" width="0" height="64" fill="#fff"/></mask><mask id="satori_om-id-0-1-0-0-7"><rect x="40" y="504" width="0" height="64" fill="#fff"/></mask><mask id="satori_om-id-0-1-0-0-8"><rect x="40" y="504" width="0" height="64" fill="#fff"/></mask><mask id="satori_om-id-0-1-0-1"><rect x="116" y="512" width="313" height="48" fill="#fff"/></mask><path fill="#545454" d="M133.0 553.6L133.0 553.6Q126.5 553.6 122.7 550.2Q118.8 546.7 118.8 541.1L118.8 541.1L118.8 522.5Q118.8 520.7 119.8 519.7Q120.7 518.8 122.4 518.8Q124.0 518.8 125.0 519.7Q125.9 520.7 125.9 522.5L125.9 522.5L125.9 540.4Q125.9 543.7 127.8 545.6Q129.6 547.6 133.0 547.6L133.0 547.6Q136.3 547.6 138.2 545.6Q140.1 543.7 140.1 540.4L140.1 540.4L140.1 522.5Q140.1 520.7 141.0 519.7Q141.9 518.8 143.6 518.8Q145.3 518.8 146.2 519.7Q147.1 520.7 147.1 522.5L147.1 522.5L147.1 541.1Q147.1 546.7 143.3 550.2Q139.4 553.6 133.0 553.6ZM158.9 552.6Q158.0 553.6 156.3 553.6Q154.6 553.6 153.7 552.6Q152.8 551.6 152.8 549.9L152.8 549.9L152.8 522.9Q152.8 521.2 153.7 520.2Q154.6 519.2 156.3 519.2L156.3 519.2L166.6 519.2Q172.4 519.2 175.6 522.1Q178.9 525.0 178.9 530.0L178.9 530.0Q178.9 533.2 177.3 535.8Q175.8 538.3 173.0 539.4L173.0 539.4L177.9 547.9Q178.7 549.2 178.7 550.3L178.7 550.3Q178.7 551.7 177.7 552.6Q176.7 553.6 175.1 553.6L175.1 553.6Q173.8 553.6 173.1 553.0Q172.4 552.5 171.5 550.9L171.5 550.9L165.9 540.7L159.9 540.7L159.9 549.9Q159.9 551.6 158.9 552.6ZM159.9 524.8L159.9 535.6L165.9 535.6Q168.6 535.6 170.1 534.1Q171.6 532.7 171.6 530.2L171.6 530.2Q171.6 527.7 170.0 526.2Q168.5 524.8 165.9 524.8L165.9 524.8L159.9 524.8ZM196.2 542.3L186.4 542.3Q185.0 542.3 184.1 541.5Q183.2 540.7 183.2 539.3Q183.2 537.9 184.1 537.1Q185.0 536.3 186.4 536.3L186.4 536.3L196.2 536.3Q197.6 536.3 198.5 537.1Q199.4 537.9 199.4 539.3Q199.4 540.7 198.5 541.5Q197.6 542.3 196.2 542.3L196.2 542.3ZM210.9 552.6Q209.9 553.6 208.3 553.6Q206.6 553.6 205.6 552.6Q204.7 551.6 204.7 549.9L204.7 549.9L204.7 522.9Q204.7 521.2 205.6 520.2Q206.6 519.2 208.3 519.2L208.3 519.2L218.6 519.2Q224.4 519.2 227.6 522.1Q230.8 525.0 230.8 530.0L230.8 530.0Q230.8 533.2 229.3 535.8Q227.8 538.3 225.0 539.4L225.0 539.4L229.9 547.9Q230.6 549.2 230.6 550.3L230.6 550.3Q230.6 551.7 229.6 552.6Q228.6 553.6 227.0 553.6L227.0 553.6Q225.8 553.6 225.0 553.0Q224.3 552.5 223.4 550.9L223.4 550.9L217.8 540.7L211.8 540.7L211.8 549.9Q211.8 551.6 210.9 552.6ZM211.8 524.8L211.8 535.6L217.9 535.6Q220.6 535.6 222.0 534.1Q223.5 532.7 223.5 530.2L223.5 530.2Q223.5 527.7 222.0 526.2Q220.4 524.8 217.8 524.8L217.8 524.8L211.8 524.8ZM237.7 553.5L237.7 553.5Q236.0 553.5 235.1 552.6Q234.1 551.7 234.1 550.2L234.1 550.2Q234.1 549.3 234.6 547.9L234.6 547.9L243.8 522.8Q244.6 520.7 245.8 519.7Q247.1 518.8 249.1 518.8L249.1 518.8Q251.2 518.8 252.5 519.7Q253.8 520.7 254.5 522.8L254.5 522.8L263.8 547.9Q264.3 549.2 264.3 550.2L264.3 550.2Q264.3 551.6 263.3 552.6Q262.3 553.5 260.7 553.5L260.7 553.5Q259.2 553.5 258.4 552.8Q257.5 552.1 257.0 550.4L257.0 550.4L255.3 545.0L243.1 545.0L241.3 550.3Q240.8 552.0 239.9 552.8Q239.1 553.5 237.7 553.5ZM249.0 525.7L244.6 539.6L253.6 539.6L249.1 525.7L249.0 525.7ZM281.5 553.1L272.1 553.1Q270.4 553.1 269.5 552.1Q268.6 551.1 268.6 549.4L268.6 549.4L268.6 522.9Q268.6 521.2 269.5 520.2Q270.4 519.2 272.1 519.2L272.1 519.2L281.5 519.2Q289.1 519.2 293.4 523.6Q297.6 528.0 297.6 536.0L297.6 536.0Q297.6 544.1 293.3 548.6Q289.1 553.1 281.5 553.1L281.5 553.1ZM275.6 525.1L275.6 547.2L280.6 547.2Q285.4 547.2 287.9 544.4Q290.4 541.5 290.4 536.0L290.4 536.0Q290.4 530.8 287.8 527.9Q285.3 525.1 280.6 525.1L280.6 525.1L275.6 525.1Z M333.2 553.1L314.5 553.1Q312.9 553.1 312.0 552.2Q311.2 551.4 311.2 550.0L311.2 550.0Q311.2 549.1 311.6 548.3Q312.0 547.5 313.1 546.5L313.1 546.5L323.2 536.9Q326.3 533.8 327.4 532.2Q328.4 530.6 328.4 528.8L328.4 528.8Q328.4 526.7 327.0 525.3Q325.5 524 323.3 524L323.3 524Q319.3 524 317.4 528.1L317.4 528.1Q316.8 529.2 316.1 529.7Q315.4 530.1 314.3 530.1L314.3 530.1Q312.9 530.1 312.1 529.4Q311.3 528.6 311.3 527.3L311.3 527.3Q311.3 526.5 311.5 525.7L311.5 525.7Q312.5 522.7 315.6 520.6Q318.8 518.5 323.3 518.5L323.3 518.5Q328.7 518.5 332.0 521.2Q335.3 524.0 335.3 528.3L335.3 528.3Q335.3 529.9 335.0 531.2Q334.6 532.5 333.6 533.9Q332.6 535.3 331.3 536.8Q330.0 538.2 327.8 540.3L327.8 540.3L320.5 547.3L320.5 547.4L333.2 547.4Q334.6 547.4 335.4 548.2Q336.1 549.0 336.1 550.3L336.1 550.3Q336.1 551.5 335.4 552.3Q334.6 553.1 333.2 553.1L333.2 553.1ZM363.6 549.0Q359.9 553.8 353.5 553.8Q347.1 553.8 343.4 549.1Q339.7 544.3 339.7 536.1L339.7 536.1Q339.7 527.9 343.4 523.2Q347.1 518.5 353.5 518.5Q359.9 518.5 363.6 523.2Q367.3 527.9 367.3 536.1L367.3 536.1Q367.3 544.3 363.6 549.0ZM348.6 545.0Q350.4 548.1 353.5 548.1Q356.7 548.1 358.4 545.0Q360.1 541.9 360.1 536.1L360.1 536.1Q360.1 530.4 358.4 527.2Q356.7 524.1 353.5 524.1L353.5 524.1Q350.4 524.1 348.7 527.3Q346.9 530.4 346.9 536.1L346.9 536.1Q346.9 541.9 348.6 545.0ZM393.6 553.1L374.9 553.1Q373.3 553.1 372.4 552.2Q371.6 551.4 371.6 550.0L371.6 550.0Q371.6 549.1 372.0 548.3Q372.5 547.5 373.5 546.5L373.5 546.5L383.6 536.9Q386.8 533.8 387.8 532.2Q388.9 530.6 388.9 528.8L388.9 528.8Q388.9 526.7 387.4 525.3Q386.0 524 383.7 524L383.7 524Q379.7 524 377.9 528.1L377.9 528.1Q377.3 529.2 376.5 529.7Q375.8 530.1 374.7 530.1L374.7 530.1Q373.3 530.1 372.5 529.4Q371.7 528.6 371.7 527.3L371.7 527.3Q371.7 526.5 372.0 525.7L372.0 525.7Q372.9 522.7 376.0 520.6Q379.2 518.5 383.8 518.5L383.8 518.5Q389.1 518.5 392.4 521.2Q395.8 524.0 395.8 528.3L395.8 528.3Q395.8 529.9 395.4 531.2Q395 532.5 394.0 533.9Q393.1 535.3 391.7 536.8Q390.4 538.2 388.2 540.3L388.2 540.3L380.9 547.3L380.9 547.4L393.6 547.4Q395 547.4 395.8 548.2Q396.6 549.0 396.6 550.3L396.6 550.3Q396.6 551.5 395.8 552.3Q395 553.1 393.6 553.1L393.6 553.1ZM413.6 553.8L413.6 553.8Q409.6 553.8 406.3 552.1Q403.1 550.4 401.8 547.7L401.8 547.7Q401.3 546.5 401.3 545.4L401.3 545.4Q401.3 544.0 402.0 543.3Q402.8 542.5 404.2 542.5L404.2 542.5Q405.3 542.5 406.0 542.9Q406.7 543.3 407.3 544.3L407.3 544.3Q409.3 548.2 413.6 548.2L413.6 548.2Q416.3 548.2 418.1 546.4Q419.9 544.6 419.9 541.9L419.9 541.9Q419.9 539.2 418.1 537.5Q416.4 535.8 413.6 535.8L413.6 535.8Q410.8 535.8 408.7 537.8L408.7 537.8Q407.6 538.8 406.9 539.1Q406.2 539.4 405.0 539.4L405.0 539.4Q403.4 539.4 402.5 538.4Q401.6 537.4 401.7 535.9L401.7 535.9Q401.7 535.8 401.7 535.6L401.7 535.6L402.7 523.3Q402.9 521.1 404.0 520.2Q405.1 519.2 407.2 519.2L407.2 519.2L422 519.2Q423.3 519.2 424.1 520.0Q424.9 520.8 424.9 522.1Q424.9 523.3 424.1 524.1Q423.3 524.9 422 524.9L422 524.9L408.6 524.9L407.8 534.3L408.0 534.3Q409.0 532.6 411.0 531.7Q413.0 530.7 415.6 530.7L415.6 530.7Q420.4 530.7 423.5 533.8Q426.6 536.9 426.6 541.7L426.6 541.7Q426.6 547.1 423.0 550.5Q419.4 553.8 413.6 553.8Z "/><mask id="satori_om-id-0-1-1"><rect x="1013" y="524" width="147" height="36" fill="#fff"/></mask><path fill="#8e8e8e" d="M1016.9 552.6Q1016.5 552.9 1016.0 552.9Q1015.4 552.9 1015.1 552.6Q1014.8 552.2 1014.8 551.7L1014.8 551.7L1014.8 532.6Q1014.8 532.0 1015.1 531.6Q1015.5 531.3 1016.1 531.3Q1016.6 531.3 1017.0 531.6Q1017.3 532.0 1017.3 532.6L1017.3 532.6L1017.3 540.0L1017.4 540.0Q1018.1 538.7 1019.4 537.9Q1020.7 537.2 1022.3 537.2L1022.3 537.2Q1025.2 537.2 1026.9 539.3Q1028.7 541.5 1028.7 545.0L1028.7 545.0Q1028.7 548.6 1026.9 550.8Q1025.2 552.9 1022.2 552.9L1022.2 552.9Q1020.6 552.9 1019.3 552.2Q1018.0 551.4 1017.3 550.1L1017.3 550.1L1017.2 550.1L1017.2 551.7Q1017.2 552.2 1016.9 552.6ZM1021.7 550.7L1021.7 550.7Q1023.8 550.7 1024.9 549.2Q1026.1 547.7 1026.1 545.0L1026.1 545.0Q1026.1 542.5 1024.9 540.9Q1023.8 539.4 1021.7 539.4L1021.7 539.4Q1019.8 539.4 1018.6 541.0Q1017.3 542.5 1017.3 545.0L1017.3 545.0Q1017.3 547.6 1018.6 549.1Q1019.8 550.7 1021.7 550.7ZM1032.8 558.4L1032.8 558.4Q1031.9 558.4 1031.4 558.0Q1030.9 557.7 1030.9 557.1L1030.9 557.1Q1030.9 556.7 1031.1 556.4Q1031.4 556.2 1031.9 556.2L1031.9 556.2Q1032.1 556.2 1032.3 556.2Q1032.5 556.2 1032.7 556.2L1032.7 556.2Q1034.4 556.2 1035.2 553.7L1035.2 553.7L1035.6 552.7L1030.3 539.0Q1030.2 538.6 1030.2 538.3L1030.2 538.3Q1030.2 537.8 1030.6 537.5Q1030.9 537.2 1031.5 537.2L1031.5 537.2Q1032.4 537.2 1032.7 538.1L1032.7 538.1L1036.9 550.1L1037.0 550.1L1041.2 538.1Q1041.3 537.6 1041.6 537.4Q1041.9 537.2 1042.4 537.2L1042.4 537.2Q1042.9 537.2 1043.3 537.5Q1043.6 537.8 1043.6 538.3L1043.6 538.3Q1043.6 538.6 1043.5 539.0L1043.5 539.0L1037.9 553.7Q1036.9 556.4 1035.8 557.4Q1034.7 558.4 1032.8 558.4Z M1066.9 550.9Q1064.7 553.0 1060.8 553.0Q1056.9 553.0 1054.7 550.9Q1052.4 548.7 1052.4 545.3L1052.4 545.3L1052.4 532.7Q1052.4 532.1 1052.8 531.7Q1053.1 531.3 1053.7 531.3Q1054.3 531.3 1054.7 531.7Q1055.0 532.1 1055.0 532.7L1055.0 532.7L1055.0 545.1Q1055.0 547.5 1056.6 549.1Q1058.1 550.6 1060.8 550.6Q1063.5 550.6 1065.0 549.1Q1066.6 547.5 1066.6 545.1L1066.6 545.1L1066.6 532.7Q1066.6 532.1 1066.9 531.7Q1067.3 531.3 1067.9 531.3Q1068.5 531.3 1068.8 531.7Q1069.2 532.1 1069.2 532.7L1069.2 532.7L1069.2 545.3Q1069.2 548.7 1066.9 550.9ZM1075.6 552.6Q1075.2 552.9 1074.6 552.9Q1074.0 552.9 1073.7 552.6Q1073.3 552.2 1073.3 551.6L1073.3 551.6L1073.3 532.9Q1073.3 532.3 1073.7 531.9Q1074.0 531.5 1074.6 531.5L1074.6 531.5L1081.2 531.5Q1084.3 531.5 1086.1 533.2Q1088.0 535.0 1088.0 537.8L1088.0 537.8Q1088.0 540.0 1086.8 541.6Q1085.7 543.3 1083.7 543.9L1083.7 543.9L1087.6 550.8Q1087.9 551.3 1087.9 551.7L1087.9 551.7Q1087.9 552.2 1087.5 552.6Q1087.1 552.9 1086.5 552.9L1086.5 552.9Q1086.1 552.9 1085.8 552.7Q1085.5 552.5 1085.2 552.1L1085.2 552.1L1081.0 544.3L1075.9 544.3L1075.9 551.6Q1075.9 552.2 1075.6 552.6ZM1075.9 533.9L1075.9 542.0L1081.0 542.0Q1083.0 542.0 1084.1 540.9Q1085.2 539.9 1085.2 537.9L1085.2 537.9Q1085.2 536.0 1084.1 534.9Q1082.9 533.9 1080.9 533.9L1080.9 533.9L1075.9 533.9ZM1099.4 545.3L1091.9 545.3Q1091.3 545.3 1091.0 545.0Q1090.6 544.6 1090.6 544.1Q1090.6 543.6 1091.0 543.2Q1091.3 542.9 1091.9 542.9L1091.9 542.9L1099.4 542.9Q1100.0 542.9 1100.3 543.2Q1100.7 543.6 1100.7 544.1Q1100.7 544.6 1100.3 545.0Q1100.0 545.3 1099.4 545.3L1099.4 545.3ZM1106.4 552.6Q1106.0 552.9 1105.4 552.9Q1104.8 552.9 1104.5 552.6Q1104.1 552.2 1104.1 551.6L1104.1 551.6L1104.1 532.9Q1104.1 532.3 1104.5 531.9Q1104.8 531.5 1105.4 531.5L1105.4 531.5L1112.1 531.5Q1115.1 531.5 1117.0 533.2Q1118.8 535.0 1118.8 537.8L1118.8 537.8Q1118.8 540.0 1117.7 541.6Q1116.5 543.3 1114.5 543.9L1114.5 543.9L1118.4 550.8Q1118.7 551.3 1118.7 551.7L1118.7 551.7Q1118.7 552.2 1118.3 552.6Q1117.9 552.9 1117.3 552.9L1117.3 552.9Q1116.9 552.9 1116.6 552.7Q1116.3 552.5 1116.1 552.1L1116.1 552.1L1111.8 544.3L1106.8 544.3L1106.8 551.6Q1106.8 552.2 1106.4 552.6ZM1106.8 533.9L1106.8 542.0L1111.8 542.0Q1113.9 542.0 1115.0 540.9Q1116.1 539.9 1116.1 537.9L1116.1 537.9Q1116.1 536.0 1114.9 534.9Q1113.8 533.9 1111.7 533.9L1111.7 533.9L1106.8 533.9ZM1122.2 552.9L1122.2 552.9Q1121.6 552.9 1121.2 552.5Q1120.9 552.2 1120.9 551.7L1120.9 551.7Q1120.9 551.4 1121.0 551.0L1121.0 551.0L1127.8 532.6Q1128.3 531.3 1129.5 531.3L1129.5 531.3Q1130.7 531.3 1131.2 532.6L1131.2 532.6L1138.0 551.0Q1138.2 551.4 1138.2 551.7L1138.2 551.7Q1138.2 552.2 1137.8 552.5Q1137.4 552.9 1136.9 552.9L1136.9 552.9Q1135.9 552.9 1135.6 551.9L1135.6 551.9L1133.7 546.6L1125.3 546.6L1123.5 551.9Q1123.1 552.9 1122.2 552.9ZM1129.5 534.7L1126.1 544.4L1132.9 544.4L1129.6 534.7L1129.5 534.7ZM1148.1 552.7L1142.3 552.7Q1141.7 552.7 1141.4 552.3Q1141.0 551.9 1141.0 551.3L1141.0 551.3L1141.0 532.9Q1141.0 532.3 1141.4 531.9Q1141.7 531.5 1142.3 531.5L1142.3 531.5L1148.1 531.5Q1152.8 531.5 1155.5 534.3Q1158.1 537.1 1158.1 542.1L1158.1 542.1Q1158.1 547.1 1155.5 549.9Q1152.8 552.7 1148.1 552.7L1148.1 552.7ZM1143.7 533.9L1143.7 550.3L1148.0 550.3Q1151.5 550.3 1153.5 548.2Q1155.4 546.1 1155.4 542.1L1155.4 542.1Q1155.4 538.1 1153.5 536.0Q1151.6 533.9 1148.0 533.9L1148.0 533.9L1143.7 533.9Z "/></svg>