<svg width="1200" height="630" viewBox="0 0 1200 630" xmlns="http://www.w3.org/2000/svg"><mask id="satori_om-id"><rect x="0" y="0" width="1200" height="630" fill="#fff"/></mask><mask id="satori_om-id-0"><rect x="0" y="0" width="1200" height="630" fill="#fff"/></mask><rect x="0" y="0" width="1200" height="630" fill="#f2f2f2"/><mask id="satori_om-id-0-0"><rect x="0" y="0" width="1200" height="441" fill="#fff"/></mask><mask id="satori_om-id-0-0-0"><rect x="40" y="95" width="1120" height="36" fill="#fff"/></mask><path fill="#8e8e8e" d="M49.1 123.5Q48.6 123.9 47.9 123.9Q47.1 123.9 46.7 123.5Q46.2 123.1 46.0 122.3L46.0 122.3L41.1 104.8Q41.0 104.2 41.0 103.8L41.0 103.8Q41.0 103.1 41.4 102.7Q41.8 102.3 42.6 102.3L42.6 102.3Q43.9 102.3 44.2 103.7L44.2 103.7L48.0 119.1L48.1 119.1L52.2 103.9Q52.5 103.1 52.9 102.7Q53.3 102.3 54.1 102.3L54.1 102.3Q54.8 102.3 55.3 102.7Q55.7 103.1 55.9 103.9L55.9 103.9L60.1 119.1L60.2 119.1L64.0 103.7Q64.3 102.3 65.6 102.3L65.6 102.3Q66.3 102.3 66.8 102.7Q67.2 103.1 67.2 103.8L67.2 103.8Q67.2 104.2 67.1 104.8L67.1 104.8L62.2 122.3Q61.9 123.1 61.5 123.5Q61.0 123.9 60.3 123.9L60.3 123.9Q59.5 123.9 59.1 123.5Q58.6 123.2 58.4 122.3L58.4 122.3L54.2 107.7L54.0 107.7L49.8 122.3Q49.6 123.1 49.1 123.5ZM76.4 124.0L76.4 124.0Q72.9 124.0 71.0 121.9Q69.0 119.8 69.0 116.0L69.0 116.0Q69.0 112.4 71.0 110.2Q72.9 108.0 76.2 108.0L76.2 108.0Q79.3 108.0 81.2 110.0Q83.1 112.0 83.1 115.1L83.1 115.1Q83.1 115.9 82.7 116.3Q82.3 116.8 81.6 116.8L81.6 116.8L72.2 116.8L72.2 116.8Q72.2 118.9 73.3 120.2Q74.5 121.4 76.3 121.4L76.3 121.4Q77.6 121.4 78.5 120.9Q79.4 120.4 80.3 119.2L80.3 119.2Q80.8 118.6 81.4 118.6L81.4 118.6Q82.0 118.6 82.4 119.0Q82.8 119.3 82.8 119.9L82.8 119.9Q82.8 120.3 82.5 120.8L82.5 120.8Q81.8 122.3 80.2 123.1Q78.6 124.0 76.4 124.0ZM72.3 114.5L72.3 114.5L80.0 114.5Q79.9 112.7 78.9 111.6Q77.8 110.5 76.2 110.5L76.2 110.5Q74.5 110.5 73.5 111.6Q72.4 112.7 72.3 114.5ZM91.4 123.9L91.4 123.9Q88.4 123.9 86.7 121.8Q84.9 119.6 84.9 116.0Q84.9 112.3 86.6 110.2Q88.4 108.0 91.3 108.0L91.3 108.0Q93.0 108.0 94.2 108.8Q95.5 109.5 96.2 110.8L96.2 110.8L96.2 110.8L96.2 103.9Q96.2 103.1 96.7 102.7Q97.1 102.2 97.8 102.2L97.8 102.2Q98.5 102.2 99.0 102.7Q99.4 103.2 99.4 103.9L99.4 103.9L99.4 122.4Q99.4 123.1 99.0 123.5Q98.5 123.9 97.8 123.9L97.8 123.9Q97.1 123.9 96.7 123.5Q96.2 123.1 96.2 122.4L96.2 122.4L96.2 120.9L96.2 120.9Q95.6 122.3 94.3 123.1Q93.1 123.9 91.4 123.9ZM92.2 121.2L92.2 121.2Q94.0 121.2 95.1 119.8Q96.3 118.4 96.3 116.0L96.3 116.0Q96.3 113.6 95.1 112.1Q94.0 110.7 92.2 110.7L92.2 110.7Q90.3 110.7 89.2 112.1Q88.1 113.5 88.1 116.0L88.1 116.0Q88.1 118.4 89.2 119.8Q90.3 121.2 92.2 121.2ZM104.2 123.9L104.2 123.9Q103.5 123.9 103.1 123.5Q102.6 123.0 102.6 122.3L102.6 122.3L102.6 109.6Q102.6 108.8 103.0 108.4Q103.5 108.0 104.1 108.0Q104.8 108.0 105.3 108.4Q105.7 108.9 105.7 109.6L105.7 109.6L105.7 110.8L105.8 110.8Q107.1 108.0 110.6 108.0L110.6 108.0Q113.1 108.0 114.5 109.5Q115.9 111.0 115.9 113.7L115.9 113.7L115.9 122.3Q115.9 123.0 115.5 123.5Q115.0 123.9 114.3 123.9L114.3 123.9Q113.6 123.9 113.2 123.5Q112.7 123.0 112.7 122.3L112.7 122.3L112.7 114.3Q112.7 112.5 111.9 111.6Q111.1 110.7 109.5 110.7L109.5 110.7Q107.8 110.7 106.8 111.8Q105.8 112.9 105.8 114.7L105.8 114.7L105.8 122.3Q105.8 123.0 105.4 123.5Q104.9 123.9 104.2 123.9ZM125.6 124.0L125.6 124.0Q122.2 124.0 120.2 121.9Q118.3 119.8 118.3 116.0L118.3 116.0Q118.3 112.4 120.2 110.2Q122.2 108.0 125.4 108.0L125.4 108.0Q128.5 108.0 130.4 110.0Q132.4 112.0 132.4 115.1L132.4 115.1Q132.4 115.9 131.9 116.3Q131.5 116.8 130.8 116.8L130.8 116.8L121.5 116.8L121.5 116.8Q121.5 118.9 122.6 120.2Q123.7 121.4 125.6 121.4L125.6 121.4Q126.9 121.4 127.8 120.9Q128.7 120.4 129.6 119.2L129.6 119.2Q130.0 118.6 130.7 118.6L130.7 118.6Q131.3 118.6 131.6 119.0Q132.0 119.3 132.0 119.9L132.0 119.9Q132.0 120.3 131.8 120.8L131.8 120.8Q131.0 122.3 129.4 123.1Q127.8 124.0 125.6 124.0ZM121.5 114.5L121.5 114.5L129.2 114.5Q129.1 112.7 128.1 111.6Q127.1 110.5 125.4 110.5L125.4 110.5Q123.8 110.5 122.7 111.6Q121.6 112.7 121.5 114.5ZM140.5 124.0L140.5 124.0Q138.2 124.0 136.7 123.1Q135.1 122.3 134.5 120.8L134.5 120.8Q134.4 120.5 134.4 120.2L134.4 120.2Q134.4 119.6 134.7 119.2Q135.1 118.9 135.7 118.9L135.7 118.9Q136.5 118.9 137.1 119.7L137.1 119.7Q137.7 120.7 138.5 121.1Q139.3 121.5 140.6 121.5L140.6 121.5Q142.0 121.5 142.8 121.0Q143.7 120.4 143.7 119.5L143.7 119.5Q143.7 118.7 143.2 118.3Q142.6 117.8 141.4 117.5L141.4 117.5L139.0 117.0Q134.5 115.9 134.5 112.6L134.5 112.6Q134.5 110.5 136.2 109.2Q137.9 108.0 140.6 108.0L140.6 108.0Q142.7 108.0 144.2 108.9Q145.8 109.8 146.1 111.2L146.1 111.2Q146.2 111.6 146.2 111.7L146.2 111.7Q146.2 112.2 145.8 112.5Q145.5 112.9 144.9 112.9L144.9 112.9Q144.1 112.9 143.7 112.2L143.7 112.2Q143.1 111.3 142.4 110.8Q141.6 110.4 140.5 110.4L140.5 110.4Q139.2 110.4 138.4 111.0Q137.6 111.5 137.6 112.4L137.6 112.4Q137.6 113.9 140.0 114.5L140.0 114.5L142.4 115.0Q144.8 115.6 145.8 116.5Q146.9 117.5 146.9 119.2L146.9 119.2Q146.9 121.3 145.1 122.6Q143.3 124.0 140.5 124.0ZM155.1 123.9L155.1 123.9Q152.2 123.9 150.4 121.8Q148.6 119.6 148.6 116.0Q148.6 112.3 150.4 110.2Q152.1 108.0 155.1 108.0L155.1 108.0Q156.7 108.0 158.0 108.8Q159.2 109.5 159.9 110.8L159.9 110.8L160.0 110.8L160.0 103.9Q160.0 103.1 160.4 102.7Q160.8 102.2 161.6 102.2L161.6 102.2Q162.3 102.2 162.7 102.7Q163.1 103.2 163.1 103.9L163.1 103.9L163.1 122.4Q163.1 123.1 162.7 123.5Q162.3 123.9 161.6 123.9L161.6 123.9Q160.9 123.9 160.4 123.5Q160.0 123.1 160.0 122.4L160.0 122.4L160.0 120.9L159.9 120.9Q159.3 122.3 158.1 123.1Q156.8 123.9 155.1 123.9ZM155.9 121.2L155.9 121.2Q157.8 121.2 158.9 119.8Q160.0 118.4 160.0 116.0L160.0 116.0Q160.0 113.6 158.9 112.1Q157.8 110.7 155.9 110.7L155.9 110.7Q154.1 110.7 153.0 112.1Q151.9 113.5 151.9 116.0L151.9 116.0Q151.9 118.4 153.0 119.8Q154.1 121.2 155.9 121.2ZM170.9 123.9L170.9 123.9Q168.6 123.9 167.2 122.6Q165.7 121.3 165.7 119.3L165.7 119.3Q165.7 117.3 167.2 116.1Q168.7 114.9 171.5 114.7L171.5 114.7L175.7 114.5L175.7 113.3Q175.7 112.0 174.9 111.3Q174.1 110.6 172.6 110.6L172.6 110.6Q171.5 110.6 170.7 111.0Q169.9 111.5 169.2 112.5L169.2 112.5Q168.7 113.2 167.9 113.2L167.9 113.2Q167.3 113.2 166.9 112.8Q166.5 112.4 166.5 111.9L166.5 111.9Q166.5 111.3 166.8 110.8L166.8 110.8Q167.4 109.5 169.0 108.8Q170.6 108.0 172.7 108.0L172.7 108.0Q175.5 108.0 177.2 109.4Q178.9 110.7 178.9 113.0L178.9 113.0L178.9 122.3Q178.9 123.1 178.4 123.5Q178.0 123.9 177.3 123.9L177.3 123.9Q176.7 123.9 176.3 123.5Q175.8 123.1 175.8 122.4L175.8 122.4L175.8 121.1L175.7 121.1Q175.1 122.4 173.7 123.2Q172.4 123.9 170.9 123.9ZM171.7 121.4L171.7 121.4Q173.4 121.4 174.6 120.4Q175.7 119.4 175.7 117.9L175.7 117.9L175.7 116.7L171.9 116.9Q170.5 117.0 169.7 117.6Q168.9 118.2 168.9 119.2L168.9 119.2Q168.9 120.2 169.7 120.8Q170.5 121.4 171.7 121.4ZM183.8 129.4L183.8 129.4Q182.7 129.4 182.1 129.0Q181.5 128.6 181.5 127.9L181.5 127.9Q181.5 127.4 181.9 127.1Q182.2 126.8 182.8 126.8L182.8 126.8Q182.9 126.8 183.2 126.8Q183.4 126.8 183.6 126.8L183.6 126.8Q185.2 126.8 185.9 124.7L185.9 124.7L186.2 123.8L181.1 110.3Q180.9 109.9 180.9 109.4L180.9 109.4Q180.9 108.8 181.4 108.4Q181.8 108.0 182.5 108.0L182.5 108.0Q183.1 108.0 183.5 108.3Q183.8 108.5 184.0 109.2L184.0 109.2L188.0 120.8L188.0 120.8L191.9 109.2Q192.1 108.5 192.5 108.3Q192.9 108.0 193.5 108.0L193.5 108.0Q194.1 108.0 194.6 108.4Q195.0 108.8 195.0 109.4L195.0 109.4Q195.0 109.8 194.8 110.3L194.8 110.3L189.5 124.4Q188.5 127.2 187.2 128.3Q186.0 129.4 183.8 129.4ZM199.5 120.1L199.5 120.1Q200.1 120.1 200.5 120.5Q200.9 120.8 200.9 121.4L200.9 121.4Q200.9 121.8 200.8 122.3L200.8 122.3L199.6 127.3Q199.3 128.4 198.2 128.4L198.2 128.4Q197.6 128.4 197.3 128.1Q197.0 127.7 197.0 127.2L197.0 127.2Q197.0 127.1 197.0 126.8L197.0 126.8L198.0 121.4Q198.2 120.1 199.5 120.1Z M224.3 123.7L212.6 123.7Q211.9 123.7 211.5 123.3Q211.1 122.9 211.1 122.3L211.1 122.3Q211.1 121.8 211.3 121.5Q211.4 121.1 212.0 120.6L212.0 120.6L218.6 113.9Q220.7 111.8 221.3 110.7Q222.0 109.6 222.0 108.3L222.0 108.3Q222.0 106.8 221.0 105.8Q219.9 104.8 218.3 104.8L218.3 104.8Q215.2 104.8 214.1 108.0L214.1 108.0Q213.9 108.5 213.5 108.8Q213.2 109.0 212.6 109.0L212.6 109.0Q211.9 109.0 211.6 108.6Q211.2 108.3 211.2 107.6L211.2 107.6Q211.2 107.3 211.3 107.0L211.3 107.0Q211.4 106.1 212.0 105.3Q212.5 104.4 213.4 103.7Q214.3 103.0 215.6 102.6Q216.9 102.1 218.4 102.1L218.4 102.1Q221.4 102.1 223.3 103.8Q225.3 105.5 225.3 108.1L225.3 108.1Q225.3 109.9 224.3 111.5Q223.3 113.0 220.6 115.8L220.6 115.8L215.5 120.8L215.5 120.9L224.3 120.9Q225.0 120.9 225.4 121.3Q225.8 121.7 225.8 122.3L225.8 122.3Q225.8 122.9 225.4 123.3Q225.0 123.7 224.3 123.7L224.3 123.7ZM236.1 124.1L236.1 124.1Q233.7 124.1 231.8 123.0Q229.9 121.9 229.2 120.2L229.2 120.2Q228.8 119.5 228.8 118.8L228.8 118.8Q228.8 118.1 229.2 117.7Q229.6 117.3 230.3 117.3L230.3 117.3Q230.8 117.3 231.2 117.6Q231.5 117.8 231.8 118.4L231.8 118.4Q232.3 119.8 233.4 120.5Q234.5 121.3 236.1 121.3L236.1 121.3Q238.1 121.3 239.4 120.0Q240.6 118.8 240.6 116.8L240.6 116.8Q240.6 114.8 239.4 113.6Q238.1 112.4 236.1 112.4L236.1 112.4Q234.0 112.4 232.7 113.7L232.7 113.7Q232.0 114.5 231.6 114.6Q231.3 114.8 230.7 114.8L230.7 114.8Q229.9 114.8 229.5 114.4Q229.1 113.9 229.1 113.2L229.1 113.2L229.1 112.9L229.8 104.8Q229.9 103.6 230.5 103.0Q231.1 102.5 232.3 102.5L232.3 102.5L241.3 102.5Q242.0 102.5 242.4 102.9Q242.8 103.3 242.8 103.9Q242.8 104.5 242.4 104.9Q242.0 105.3 241.3 105.3L241.3 105.3L232.7 105.3L232.1 111.9L232.1 111.9Q232.8 110.9 234.1 110.3Q235.3 109.8 236.9 109.8L236.9 109.8Q239.9 109.8 241.9 111.7Q243.8 113.6 243.8 116.7L243.8 116.7Q243.8 120.0 241.7 122.0Q239.5 124.1 236.1 124.1Z M269.3 121.1Q266.6 124.0 262.0 124.0Q257.5 124.0 254.8 121.1Q252.1 118.1 252.1 113.1Q252.1 108.1 254.8 105.1Q257.5 102.2 262.0 102.2L262.0 102.2Q266.6 102.2 269.3 105.1Q271.9 108.1 271.9 113.1Q271.9 118.1 269.3 121.1ZM262.0 121.1L262.0 121.1Q265.0 121.1 266.8 119.0Q268.6 116.8 268.6 113.1L268.6 113.1Q268.6 109.4 266.8 107.2Q265.0 105.1 262.0 105.1L262.0 105.1Q259.0 105.1 257.2 107.2Q255.5 109.4 255.5 113.1L255.5 113.1Q255.5 116.8 257.2 119.0Q259.0 121.1 262.0 121.1ZM281.3 124.0L281.3 124.0Q277.9 124.0 276.0 121.8Q274.0 119.7 274.0 116.0L274.0 116.0Q274.0 112.3 276.0 110.2Q277.9 108.0 281.2 108.0L281.2 108.0Q283.4 108.0 285.2 109.0Q286.9 110.1 287.4 111.7L287.4 111.7Q287.6 112.1 287.6 112.4L287.6 112.4Q287.6 113.0 287.2 113.4Q286.8 113.7 286.2 113.7L286.2 113.7Q285.7 113.7 285.4 113.5Q285.1 113.3 284.8 112.8L284.8 112.8Q284.2 111.7 283.3 111.1Q282.5 110.6 281.3 110.6L281.3 110.6Q279.4 110.6 278.3 112.1Q277.2 113.5 277.2 116.0L277.2 116.0Q277.2 118.4 278.3 119.9Q279.4 121.3 281.3 121.3L281.3 121.3Q283.6 121.3 284.8 119.2L284.8 119.2Q285.1 118.6 285.4 118.4Q285.7 118.2 286.3 118.2L286.3 118.2Q286.8 118.2 287.2 118.6Q287.6 118.9 287.6 119.5L287.6 119.5Q287.6 119.9 287.4 120.3L287.4 120.3Q286.8 121.9 285.1 122.9Q283.4 124.0 281.3 124.0ZM291.1 120.0L291.1 120.0L291.1 110.8L290.0 110.8Q289.4 110.8 289.0 110.4Q288.7 110.1 288.7 109.5Q288.7 108.9 289.0 108.6Q289.4 108.3 290.0 108.3L290.0 108.3L291.1 108.3L291.1 106.0Q291.1 105.2 291.5 104.7Q292.0 104.3 292.7 104.3Q293.4 104.3 293.8 104.7Q294.3 105.2 294.3 106.0L294.3 106.0L294.3 108.3L296.1 108.3Q296.7 108.3 297.0 108.6Q297.4 108.9 297.4 109.5Q297.4 110.1 297.0 110.4Q296.7 110.8 296.1 110.8L296.1 110.8L294.3 110.8L294.3 119.3Q294.3 120.2 294.6 120.6Q295.0 121.1 295.8 121.1L295.8 121.1L296.1 121.2Q297.4 121.3 297.4 122.4L297.4 122.4Q297.4 123.8 295.2 123.8L295.2 123.8L295 123.8Q291.1 123.8 291.1 120.0ZM311.7 121.8Q309.7 124.0 306.4 124.0Q303.1 124.0 301.1 121.8Q299.1 119.7 299.1 116.0L299.1 116.0Q299.1 112.3 301.1 110.1Q303.1 108.0 306.4 108.0Q309.7 108.0 311.7 110.1Q313.7 112.3 313.7 116.0L313.7 116.0Q313.7 119.7 311.7 121.8ZM306.4 121.3L306.4 121.3Q308.3 121.3 309.4 119.9Q310.5 118.5 310.5 116.0L310.5 116.0Q310.5 113.4 309.4 112.0Q308.3 110.6 306.4 110.6Q304.5 110.6 303.4 112.0Q302.3 113.4 302.3 116.0L302.3 116.0Q302.3 118.5 303.4 119.9Q304.5 121.3 306.4 121.3ZM317.8 123.9L317.8 123.9Q317.1 123.9 316.7 123.5Q316.3 123.1 316.3 122.4L316.3 122.4L316.3 103.9Q316.3 103.2 316.7 102.7Q317.2 102.2 317.9 102.2Q318.6 102.2 319.0 102.7Q319.4 103.2 319.4 103.9L319.4 103.9L319.4 110.9L319.5 110.9Q320.2 109.5 321.5 108.8Q322.8 108.0 324.4 108.0L324.4 108.0Q327.3 108.0 329.1 110.2Q330.8 112.3 330.8 116.0L330.8 116.0Q330.8 119.6 329.1 121.8Q327.3 123.9 324.4 123.9L324.4 123.9Q322.7 123.9 321.4 123.2Q320.1 122.4 319.4 121.0L319.4 121.0L319.4 121.0L319.4 122.4Q319.4 123.1 318.9 123.5Q318.5 123.9 317.8 123.9ZM323.5 121.2L323.5 121.2Q325.4 121.2 326.5 119.8Q327.6 118.4 327.6 116.0L327.6 116.0Q327.6 113.5 326.5 112.1Q325.4 110.7 323.5 110.7L323.5 110.7Q321.7 110.7 320.6 112.1Q319.4 113.6 319.4 116.0L319.4 116.0Q319.4 118.3 320.6 119.8Q321.7 121.2 323.5 121.2ZM339.9 124.0L339.9 124.0Q336.5 124.0 334.5 121.9Q332.6 119.8 332.6 116.0L332.6 116.0Q332.6 112.4 334.5 110.2Q336.5 108.0 339.7 108.0L339.7 108.0Q342.8 108.0 344.7 110.0Q346.7 112.0 346.7 115.1L346.7 115.1Q346.7 115.9 346.2 116.3Q345.8 116.8 345.1 116.8L345.1 116.8L335.8 116.8L335.8 116.8Q335.8 118.9 336.9 120.2Q338.0 121.4 339.9 121.4L339.9 121.4Q341.2 121.4 342.1 120.9Q343.0 120.4 343.9 119.2L343.9 119.2Q344.3 118.6 345.0 118.6L345.0 118.6Q345.6 118.6 345.9 119.0Q346.3 119.3 346.3 119.9L346.3 119.9Q346.3 120.3 346.1 120.8L346.1 120.8Q345.3 122.3 343.7 123.1Q342.1 124.0 339.9 124.0ZM335.8 114.5L335.8 114.5L343.5 114.5Q343.4 112.7 342.4 111.6Q341.4 110.5 339.7 110.5L339.7 110.5Q338.1 110.5 337.0 111.6Q335.9 112.7 335.8 114.5ZM350.7 123.9L350.7 123.9Q350.0 123.9 349.5 123.5Q349.1 123.0 349.1 122.3L349.1 122.3L349.1 109.6Q349.1 108.9 349.5 108.4Q349.9 108.0 350.6 108.0L350.6 108.0Q351.3 108.0 351.7 108.4Q352.1 108.9 352.1 109.6L352.1 109.6L352.1 110.9L352.2 110.9Q352.5 109.6 353.4 108.8Q354.4 108.0 355.6 108.0L355.6 108.0Q356.4 108.0 356.8 108.4L356.8 108.4Q357.2 108.7 357.2 109.5L357.2 109.5Q357.2 110.2 356.8 110.6L356.8 110.6Q356.3 111.0 355.3 111.0L355.3 111.0Q353.8 111.0 353.0 112.0Q352.3 112.9 352.3 114.4L352.3 114.4L352.3 122.3Q352.3 123.0 351.8 123.5Q351.4 123.9 350.7 123.9Z M378.3 123.7L366.6 123.7Q365.9 123.7 365.4 123.3Q365.0 122.9 365.0 122.3L365.0 122.3Q365.0 121.8 365.2 121.5Q365.4 121.1 365.9 120.6L365.9 120.6L372.5 113.9Q374.6 111.8 375.3 110.7Q376.0 109.6 376.0 108.3L376.0 108.3Q376.0 106.8 374.9 105.8Q373.9 104.8 372.3 104.8L372.3 104.8Q369.2 104.8 368.1 108.0L368.1 108.0Q367.8 108.5 367.5 108.8Q367.1 109.0 366.6 109.0L366.6 109.0Q365.9 109.0 365.5 108.6Q365.1 108.3 365.1 107.6L365.1 107.6Q365.1 107.3 365.2 107.0L365.2 107.0Q365.4 106.1 365.9 105.3Q366.5 104.4 367.3 103.7Q368.2 103.0 369.5 102.6Q370.8 102.1 372.3 102.1L372.3 102.1Q375.3 102.1 377.3 103.8Q379.2 105.5 379.2 108.1L379.2 108.1Q379.2 109.9 378.2 111.5Q377.3 113.0 374.5 115.8L374.5 115.8L369.5 120.8L369.5 120.9L378.3 120.9Q378.9 120.9 379.3 121.3Q379.7 121.7 379.7 122.3L379.7 122.3Q379.7 122.9 379.3 123.3Q378.9 123.7 378.3 123.7L378.3 123.7ZM396.1 121.1Q394.0 124.1 390.2 124.1Q386.4 124.1 384.3 121.1Q382.1 118.2 382.1 113.1L382.1 113.1Q382.1 108.0 384.3 105.1Q386.4 102.1 390.2 102.1L390.2 102.1Q394.0 102.1 396.1 105.1Q398.3 108.0 398.3 113.1L398.3 113.1Q398.3 118.1 396.1 121.1ZM390.2 121.3L390.2 121.3Q392.5 121.3 393.7 119.1Q395.0 116.9 395.0 113.1L395.0 113.1Q395.0 109.3 393.7 107.1Q392.5 104.9 390.2 104.9Q387.9 104.9 386.7 107.1Q385.4 109.3 385.4 113.1L385.4 113.1Q385.4 116.9 386.7 119.1Q387.9 121.3 390.2 121.3ZM414.4 123.7L402.7 123.7Q401.9 123.7 401.5 123.3Q401.1 122.9 401.1 122.3L401.1 122.3Q401.1 121.8 401.3 121.5Q401.5 121.1 402.0 120.6L402.0 120.6L408.6 113.9Q410.7 111.8 411.4 110.7Q412.1 109.6 412.1 108.3L412.1 108.3Q412.1 106.8 411.0 105.8Q410.0 104.8 408.4 104.8L408.4 104.8Q405.3 104.8 404.1 108.0L404.1 108.0Q403.9 108.5 403.6 108.8Q403.2 109.0 402.7 109.0L402.7 109.0Q402.0 109.0 401.6 108.6Q401.2 108.3 401.2 107.6L401.2 107.6Q401.2 107.3 401.3 107.0L401.3 107.0Q401.5 106.1 402.0 105.3Q402.6 104.4 403.4 103.7Q404.3 103.0 405.6 102.6Q406.9 102.1 408.4 102.1L408.4 102.1Q411.4 102.1 413.4 103.8Q415.3 105.5 415.3 108.1L415.3 108.1Q415.3 109.9 414.3 111.5Q413.3 113.0 410.6 115.8L410.6 115.8L405.6 120.8L405.6 120.9L414.4 120.9Q415.0 120.9 415.4 121.3Q415.8 121.7 415.8 122.3L415.8 122.3Q415.8 122.9 415.4 123.3Q415.0 123.7 414.4 123.7L414.4 123.7ZM425.9 124.1L425.9 124.1Q423.4 124.1 421.6 123.1Q419.8 122.2 418.9 120.6L418.9 120.6Q418.5 119.8 418.5 119.0L418.5 119.0Q418.5 118.3 418.9 117.9Q419.3 117.5 420.0 117.5L420.0 117.5Q420.5 117.5 420.9 117.8Q421.2 118.1 421.4 118.6L421.4 118.6Q422.6 121.3 426.0 121.3L426.0 121.3Q427.9 121.3 429.1 120.3Q430.2 119.4 430.3 117.8L430.3 117.8Q430.3 116.0 429.1 115.0Q427.8 114.0 425.7 114.0L425.7 114.0L424.3 114.0Q423.7 114.0 423.3 113.7Q422.9 113.3 422.9 112.8Q422.9 112.2 423.3 111.8Q423.7 111.5 424.3 111.5L424.3 111.5L425.6 111.5Q427.4 111.5 428.5 110.5Q429.7 109.6 429.7 108.1L429.7 108.1Q429.7 106.6 428.7 105.7Q427.7 104.8 425.9 104.8L425.9 104.8Q424.3 104.8 423.4 105.5Q422.4 106.1 421.8 107.5L421.8 107.5Q421.6 108.1 421.3 108.4Q420.9 108.6 420.4 108.6L420.4 108.6Q419.7 108.6 419.3 108.3Q418.9 107.9 418.9 107.2L418.9 107.2Q418.9 106.4 419.3 105.6L419.3 105.6Q420.2 104.0 421.9 103.1Q423.6 102.1 425.9 102.1L425.9 102.1Q429.1 102.1 431.0 103.7Q432.9 105.2 432.9 107.6L432.9 107.6Q432.9 109.6 431.6 110.9Q430.4 112.2 428.4 112.6L428.4 112.6L428.4 112.7Q430.8 112.9 432.2 114.3Q433.6 115.6 433.6 117.8L433.6 117.8Q433.6 120.6 431.4 122.3Q429.3 124.1 425.9 124.1Z "/><mask id="satori_om-id-0-0-1"><rect x="40" y="176" width="1120" height="165" fill="#fff"/></mask><path fill="#224d67" d="M62.0 239.3L62.0 239.3Q52.9 239.3 47.6 233.4Q42.3 227.6 42.3 217.4L42.3 217.4Q42.3 207.3 47.6 201.5Q52.9 195.6 61.9 195.6L61.9 195.6Q67.7 195.6 72.2 198.2Q76.6 200.8 78.7 205.4L78.7 205.4Q79.4 206.9 79.4 208.3L79.4 208.3Q79.4 209.8 78.5 210.7Q77.6 211.6 76.0 211.6L76.0 211.6Q73.5 211.6 72.3 208.9L72.3 208.9Q70.9 205.6 68.2 203.8Q65.4 202.0 61.9 202.0L61.9 202.0Q56.5 202.0 53.3 206.2Q50.0 210.4 50.0 217.4L50.0 217.4Q50.0 224.5 53.2 228.7Q56.5 232.9 62.0 232.9L62.0 232.9Q69.6 232.9 72.5 226.3L72.5 226.3Q73.0 225.0 73.8 224.4Q74.6 223.9 75.8 223.9L75.8 223.9Q77.4 223.9 78.4 224.8Q79.3 225.7 79.3 227.2L79.3 227.2Q79.3 228.6 78.6 230.1L78.6 230.1Q76.6 234.4 72.3 236.8Q67.9 239.3 62.0 239.3ZM109.8 234.9Q105.8 239.2 98.9 239.2Q92.0 239.2 87.9 234.9Q83.9 230.6 83.9 223.1L83.9 223.1Q83.9 215.6 88.0 211.2Q92.1 206.9 98.9 206.9L98.9 206.9Q105.7 206.9 109.8 211.2Q113.9 215.6 113.9 223.1L113.9 223.1Q113.9 230.6 109.8 234.9ZM93.3 230.7Q95.4 233.4 98.9 233.4Q102.4 233.4 104.5 230.7Q106.5 228.0 106.5 223.1L106.5 223.1Q106.5 218.2 104.5 215.4Q102.4 212.7 98.9 212.7L98.9 212.7Q95.4 212.7 93.3 215.4Q91.3 218.2 91.3 223.1L91.3 223.1Q91.3 228.0 93.3 230.7ZM124.9 238.2Q123.9 239.2 122.2 239.2Q120.6 239.2 119.6 238.2Q118.6 237.1 118.6 235.3L118.6 235.3L118.6 210.6Q118.6 208.9 119.5 207.9Q120.5 206.9 122.1 206.9Q123.7 206.9 124.7 207.9Q125.7 208.9 125.7 210.6L125.7 210.6L125.7 212.8L125.8 212.8Q128.5 206.9 135.5 206.9L135.5 206.9Q140.6 206.9 143.4 210.0Q146.3 213.1 146.3 218.5L146.3 218.5L146.3 235.3Q146.3 237.1 145.3 238.2Q144.3 239.2 142.6 239.2Q141.0 239.2 140.0 238.2Q139.0 237.1 139.0 235.3L139.0 235.3L139.0 220.0Q139.0 216.6 137.4 214.9Q135.8 213.1 132.8 213.1L132.8 213.1Q129.6 213.1 127.8 215.2Q125.9 217.2 125.9 220.6L125.9 220.6L125.9 235.3Q125.9 237.1 124.9 238.2ZM164.1 239.2L164.1 239.2Q159.2 239.2 155.9 237.5Q152.6 235.8 151.4 233.0L151.4 233.0Q151.1 232.2 151.1 231.5L151.1 231.5Q151.1 230.2 152.0 229.4Q152.8 228.6 154.2 228.6L154.2 228.6Q156.0 228.6 157.3 230.4L157.3 230.4Q158.6 232.3 160.2 233.1Q161.8 233.9 164.3 233.9L164.3 233.9Q166.9 233.9 168.5 232.9Q170.0 231.8 170.0 230.1L170.0 230.1Q170.0 228.7 169.0 227.8Q168.0 227.0 165.6 226.4L165.6 226.4L160.6 225.3Q151.5 223.3 151.5 216.4L151.5 216.4Q151.5 212.1 155.0 209.5Q158.4 206.9 164.2 206.9L164.2 206.9Q168.6 206.9 171.8 208.8Q175.0 210.6 175.8 213.4L175.8 213.4Q175.9 214.0 175.9 214.5L175.9 214.5Q175.9 215.6 175.2 216.4Q174.4 217.1 173.1 217.1L173.1 217.1Q171.3 217.1 170.3 215.7L170.3 215.7Q169.2 214.0 167.7 213.1Q166.2 212.2 164.0 212.2L164.0 212.2Q161.6 212.2 160.1 213.3Q158.6 214.3 158.6 216.0L158.6 216.0Q158.6 218.8 163.2 219.8L163.2 219.8L168.1 220.9Q173.1 222.0 175.2 223.9Q177.3 225.9 177.3 229.3L177.3 229.3Q177.3 233.8 173.7 236.5Q170.0 239.2 164.1 239.2ZM188.6 202.0Q187.4 203.2 185.7 203.2Q184.0 203.2 182.9 202.0Q181.7 200.8 181.7 199.2L181.7 199.2Q181.7 197.5 182.9 196.4Q184.0 195.2 185.7 195.2L185.7 195.2Q187.5 195.2 188.6 196.4Q189.8 197.5 189.8 199.2L189.8 199.2Q189.8 200.8 188.6 202.0ZM188.4 238.1Q187.4 239.2 185.7 239.2Q184.1 239.2 183.1 238.1Q182.1 237.1 182.1 235.3L182.1 235.3L182.1 210.7Q182.1 209.0 183.1 207.9Q184.1 206.9 185.7 206.9Q187.4 206.9 188.4 207.9Q189.4 209.0 189.4 210.8L189.4 210.8L189.4 235.3Q189.4 237.1 188.4 238.1ZM207.1 239.1L207.1 239.1Q201.2 239.1 197.7 234.7Q194.2 230.4 194.2 223.0L194.2 223.0Q194.2 215.7 197.7 211.3Q201.2 207.0 207.1 207.0L207.1 207.0Q210.4 207.0 212.9 208.5Q215.5 210.1 216.7 212.7L216.7 212.7L216.9 212.7L216.9 199.6Q216.9 197.7 217.9 196.7Q218.9 195.7 220.5 195.7Q222.2 195.7 223.2 196.7Q224.2 197.7 224.2 199.6L224.2 199.6L224.2 235.5Q224.2 237.2 223.2 238.2Q222.2 239.2 220.6 239.2L220.6 239.2Q218.9 239.2 217.9 238.2Q216.9 237.2 216.9 235.5L216.9 235.5L216.9 233.1L216.7 233.1Q215.6 235.9 213.1 237.5Q210.6 239.1 207.1 239.1ZM209.3 233.1L209.3 233.1Q212.8 233.1 214.8 230.4Q216.9 227.7 216.9 223.1L216.9 223.1Q216.9 218.5 214.8 215.7Q212.8 213.0 209.3 213.0L209.3 213.0Q205.8 213.0 203.7 215.7Q201.7 218.4 201.7 223.1L201.7 223.1Q201.7 227.7 203.7 230.4Q205.8 233.1 209.3 233.1ZM244.1 239.2L244.1 239.2Q237.0 239.2 233.0 235.0Q229.0 230.7 229.0 223.2L229.0 223.2Q229.0 215.7 233.0 211.3Q237.0 206.9 243.7 206.9L243.7 206.9Q250.1 206.9 254.0 210.9Q258.0 215.0 258.0 221.4L258.0 221.4Q258.0 223.0 257.1 223.9Q256.2 224.8 254.6 224.8L254.6 224.8L236.3 224.8L236.3 225.0Q236.3 228.9 238.4 231.3Q240.5 233.6 244.1 233.6L244.1 233.6Q246.5 233.6 248.3 232.6Q250.1 231.7 251.8 229.4L251.8 229.4Q252.9 228.3 254.3 228.3L254.3 228.3Q255.5 228.3 256.4 229.0Q257.2 229.8 257.2 231.1L257.2 231.1Q257.2 231.9 256.7 232.9L256.7 232.9Q255.2 235.9 251.8 237.5Q248.5 239.2 244.1 239.2ZM236.3 220.0L236.3 220.0L250.8 220.0Q250.7 216.6 248.8 214.6Q246.8 212.5 243.7 212.5Q240.7 212.5 238.6 214.6Q236.6 216.7 236.3 220.0ZM269.0 238.1Q268.0 239.2 266.3 239.2Q264.6 239.2 263.7 238.1Q262.7 237.1 262.7 235.3L262.7 235.3L262.7 210.6Q262.7 208.9 263.6 207.9Q264.6 206.9 266.2 206.9L266.2 206.9Q267.7 206.9 268.7 207.9Q269.6 208.9 269.6 210.6L269.6 210.6L269.6 213.0L269.8 213.0Q270.4 210.3 272.3 208.6Q274.1 207.0 276.4 207.0L276.4 207.0Q278.1 207.0 279.0 207.8L279.0 207.8Q280.0 208.6 280.0 210.4L280.0 210.4Q280.0 212.1 278.9 213.0L278.9 213.0Q277.9 213.9 275.7 214.0L275.7 214.0Q270.0 214.0 270.0 220.4L270.0 220.4L270.0 235.3Q270.0 237.1 269.0 238.1ZM292.4 239.1L292.4 239.1Q287.9 239.1 285.0 236.5Q282.1 233.9 282.1 229.7L282.1 229.7Q282.1 225.6 285.1 223.2Q288.2 220.8 293.9 220.4L293.9 220.4L302.1 219.9L302.1 217.7Q302.1 215.3 300.6 213.9Q299.0 212.6 296.3 212.6L296.3 212.6Q294.1 212.6 292.6 213.4Q291.1 214.2 289.8 216.2L289.8 216.2Q288.7 217.7 286.8 217.7L286.8 217.7Q285.5 217.7 284.6 216.9Q283.8 216.1 283.8 214.8L283.8 214.8Q283.8 213.8 284.2 212.8L284.2 212.8Q285.4 210.1 288.8 208.5Q292.1 206.9 296.6 206.9L296.6 206.9Q302.4 206.9 305.8 209.7Q309.3 212.5 309.3 217.2L309.3 217.2L309.3 235.5Q309.3 237.2 308.3 238.2Q307.3 239.2 305.8 239.2L305.8 239.2Q304.2 239.2 303.3 238.3Q302.4 237.4 302.3 235.8L302.3 235.8L302.3 233.6L302.1 233.6Q300.8 236.1 298.1 237.6Q295.5 239.1 292.4 239.1ZM294.6 233.6L294.6 233.6Q297.8 233.6 299.9 231.7Q302.1 229.8 302.1 227.1L302.1 227.1L302.1 224.7L294.9 225.1Q292.2 225.3 290.8 226.4Q289.3 227.6 289.3 229.4L289.3 229.4Q289.3 231.3 290.8 232.4Q292.2 233.6 294.6 233.6ZM317.2 230.9L317.2 230.9L317.2 213.1L315.2 213.1Q313.9 213.1 313.1 212.4Q312.3 211.6 312.3 210.3L312.3 210.3Q312.3 209.0 313.1 208.3Q313.8 207.5 315.2 207.5L315.2 207.5L317.2 207.5L317.2 203.4Q317.2 201.6 318.2 200.6Q319.1 199.6 320.8 199.6L320.8 199.6Q322.5 199.6 323.5 200.6Q324.5 201.6 324.5 203.4L324.5 203.4L324.5 207.5L327.8 207.5Q329.2 207.5 330.0 208.3Q330.8 209.0 330.8 210.3L330.8 210.3Q330.8 211.6 330.0 212.4Q329.2 213.1 327.8 213.1L327.8 213.1L324.5 213.1L324.5 229.3Q324.5 231.1 325.1 231.9Q325.8 232.7 327.4 232.9L327.4 232.9L327.9 232.9Q330.9 233.2 330.9 235.6L330.9 235.6Q330.9 237.2 329.5 238.1Q328.2 238.9 325.6 238.9L325.6 238.9L325.4 238.9Q317.2 238.9 317.2 230.9ZM342.0 202.0Q340.8 203.2 339.1 203.2Q337.4 203.2 336.2 202.0Q335.0 200.8 335.0 199.2L335.0 199.2Q335.0 197.5 336.2 196.4Q337.4 195.2 339.1 195.2L339.1 195.2Q340.8 195.2 342.0 196.4Q343.2 197.5 343.2 199.2L343.2 199.2Q343.2 200.8 342.0 202.0ZM341.8 238.1Q340.8 239.2 339.1 239.2Q337.4 239.2 336.4 238.1Q335.5 237.1 335.5 235.3L335.5 235.3L335.5 210.7Q335.5 209.0 336.4 207.9Q337.4 206.9 339.1 206.9Q340.8 206.9 341.8 207.9Q342.8 209.0 342.8 210.8L342.8 210.8L342.8 235.3Q342.8 237.1 341.8 238.1ZM373.6 234.9Q369.5 239.2 362.6 239.2Q355.7 239.2 351.7 234.9Q347.6 230.6 347.6 223.1L347.6 223.1Q347.6 215.6 351.7 211.2Q355.8 206.9 362.6 206.9L362.6 206.9Q369.5 206.9 373.6 211.2Q377.6 215.6 377.6 223.1L377.6 223.1Q377.6 230.6 373.6 234.9ZM357.1 230.7Q359.1 233.4 362.6 233.4Q366.1 233.4 368.2 230.7Q370.2 228.0 370.2 223.1L370.2 223.1Q370.2 218.2 368.2 215.4Q366.1 212.7 362.6 212.7L362.6 212.7Q359.1 212.7 357.1 215.4Q355 218.2 355 223.1L355 223.1Q355 228.0 357.1 230.7ZM388.6 238.2Q387.6 239.2 386.0 239.2Q384.3 239.2 383.3 238.2Q382.3 237.1 382.3 235.3L382.3 235.3L382.3 210.6Q382.3 208.9 383.3 207.9Q384.2 206.9 385.8 206.9Q387.4 206.9 388.4 207.9Q389.4 208.9 389.4 210.6L389.4 210.6L389.4 212.8L389.6 212.8Q392.2 206.9 399.2 206.9L399.2 206.9Q404.3 206.9 407.2 210.0Q410.0 213.1 410.0 218.5L410.0 218.5L410.0 235.3Q410.0 237.1 409.0 238.2Q408.0 239.2 406.4 239.2Q404.7 239.2 403.7 238.2Q402.7 237.1 402.7 235.3L402.7 235.3L402.7 220.0Q402.7 216.6 401.1 214.9Q399.6 213.1 396.5 213.1L396.5 213.1Q393.3 213.1 391.5 215.2Q389.6 217.2 389.6 220.6L389.6 220.6L389.6 235.3Q389.6 237.1 388.6 238.2ZM427.8 239.2L427.8 239.2Q423.0 239.2 419.6 237.5Q416.3 235.8 415.1 233.0L415.1 233.0Q414.9 232.2 414.9 231.5L414.9 231.5Q414.9 230.2 415.7 229.4Q416.6 228.6 417.9 228.6L417.9 228.6Q419.7 228.6 421.1 230.4L421.1 230.4Q422.3 232.3 423.9 233.1Q425.5 233.9 428.1 233.9L428.1 233.9Q430.6 233.9 432.2 232.9Q433.7 231.8 433.7 230.1L433.7 230.1Q433.7 228.7 432.7 227.8Q431.7 227.0 429.4 226.4L429.4 226.4L424.3 225.3Q415.3 223.3 415.3 216.4L415.3 216.4Q415.3 212.1 418.7 209.5Q422.2 206.9 427.9 206.9L427.9 206.9Q432.3 206.9 435.5 208.8Q438.8 210.6 439.5 213.4L439.5 213.4Q439.6 214.0 439.6 214.5L439.6 214.5Q439.6 215.6 438.9 216.4Q438.2 217.1 436.8 217.1L436.8 217.1Q435.0 217.1 434.0 215.7L434.0 215.7Q432.9 214.0 431.4 213.1Q429.9 212.2 427.7 212.2L427.7 212.2Q425.3 212.2 423.8 213.3Q422.4 214.3 422.4 216.0L422.4 216.0Q422.4 218.8 426.9 219.8L426.9 219.8L431.9 220.9Q436.8 222.0 438.9 223.9Q441.0 225.9 441.0 229.3L441.0 229.3Q441.0 233.8 437.4 236.5Q433.8 239.2 427.8 239.2Z M466.0 238.2Q465.0 239.2 463.3 239.2Q461.7 239.2 460.7 238.2Q459.7 237.2 459.7 235.4L459.7 235.4L459.7 213.1L457.7 213.1Q456.5 213.1 455.7 212.4Q454.9 211.7 454.9 210.4L454.9 210.4Q454.9 209.1 455.7 208.4Q456.5 207.6 457.7 207.6L457.7 207.6L459.7 207.6L459.7 204.9Q459.7 196.0 468.2 196.0L468.2 196.0Q471.0 196.0 472.4 196.8Q473.8 197.6 473.8 199.0L473.8 199.0Q473.8 200.7 472.2 201.1L472.2 201.1Q471.6 201.3 470.6 201.3L470.6 201.3Q468.6 201.4 467.7 202.3Q466.9 203.2 466.9 205.2L466.9 205.2L466.9 207.6L470.8 207.6Q472.0 207.6 472.8 208.4Q473.6 209.1 473.6 210.4L473.6 210.4Q473.6 211.7 472.8 212.4Q472.0 213.1 470.8 213.1L470.8 213.1L467.0 213.1L467.0 235.4Q467.0 237.2 466.0 238.2ZM502.6 234.9Q498.5 239.2 491.6 239.2Q484.7 239.2 480.7 234.9Q476.6 230.6 476.6 223.1L476.6 223.1Q476.6 215.6 480.7 211.2Q484.8 206.9 491.6 206.9L491.6 206.9Q498.5 206.9 502.6 211.2Q506.6 215.6 506.6 223.1L506.6 223.1Q506.6 230.6 502.6 234.9ZM486.0 230.7Q488.1 233.4 491.6 233.4Q495.1 233.4 497.2 230.7Q499.2 228.0 499.2 223.1L499.2 223.1Q499.2 218.2 497.2 215.4Q495.1 212.7 491.6 212.7L491.6 212.7Q488.1 212.7 486.1 215.4Q484.0 218.2 484.0 223.1L484.0 223.1Q484.0 228.0 486.0 230.7ZM517.6 238.1Q516.6 239.2 515.0 239.2Q513.3 239.2 512.3 238.1Q511.3 237.1 511.3 235.3L511.3 235.3L511.3 210.6Q511.3 208.9 512.3 207.9Q513.2 206.9 514.8 206.9L514.8 206.9Q516.3 206.9 517.3 207.9Q518.3 208.9 518.3 210.6L518.3 210.6L518.3 213.0L518.4 213.0Q519.1 210.3 520.9 208.6Q522.7 207.0 525.1 207.0L525.1 207.0Q526.8 207.0 527.6 207.8L527.6 207.8Q528.7 208.6 528.7 210.4L528.7 210.4Q528.7 212.1 527.6 213.0L527.6 213.0Q526.5 213.9 524.4 214.0L524.4 214.0Q518.6 214.0 518.6 220.4L518.6 220.4L518.6 235.3Q518.6 237.1 517.6 238.1Z M569.1 238.6L548.5 238.6Q546.7 238.6 545.7 237.5Q544.7 236.5 544.7 234.7L544.7 234.7L544.7 200.2Q544.7 198.4 545.7 197.3Q546.7 196.3 548.5 196.3L548.5 196.3L569.1 196.3Q570.7 196.3 571.6 197.2Q572.5 198.0 572.5 199.5Q572.5 201.0 571.6 201.8Q570.7 202.7 569.1 202.7L569.1 202.7L552.3 202.7L552.3 214.1L568.2 214.1Q569.7 214.1 570.6 214.9Q571.4 215.7 571.4 217.1Q571.4 218.5 570.6 219.3Q569.7 220.1 568.2 220.1L568.2 220.1L552.3 220.1L552.3 232.2L569.1 232.2Q570.7 232.2 571.6 233.1Q572.5 233.9 572.5 235.4Q572.5 236.8 571.6 237.7Q570.7 238.6 569.1 238.6L569.1 238.6ZM584.2 238.2Q583.2 239.2 581.5 239.2Q579.9 239.2 578.9 238.2Q577.9 237.1 577.9 235.3L577.9 235.3L577.9 210.6Q577.9 208.9 578.8 207.9Q579.8 206.9 581.4 206.9Q583.0 206.9 584.0 207.9Q585.0 208.9 585.0 210.6L585.0 210.6L585.0 212.8L585.1 212.8Q587.8 206.9 594.8 206.9L594.8 206.9Q599.9 206.9 602.7 210.0Q605.5 213.1 605.5 218.5L605.5 218.5L605.5 235.3Q605.5 237.1 604.6 238.2Q603.6 239.2 601.9 239.2Q600.3 239.2 599.3 238.2Q598.3 237.1 598.3 235.3L598.3 235.3L598.3 220.0Q598.3 216.6 596.7 214.9Q595.1 213.1 592.0 213.1L592.0 213.1Q588.9 213.1 587.0 215.2Q585.2 217.2 585.2 220.6L585.2 220.6L585.2 235.3Q585.2 237.1 584.2 238.2ZM623.0 239.1L623.0 239.1Q617.1 239.1 613.6 234.7Q610.1 230.4 610.1 223.0L610.1 223.0Q610.1 215.7 613.6 211.3Q617.1 207.0 623.0 207.0L623.0 207.0Q626.3 207.0 628.8 208.5Q631.3 210.1 632.6 212.7L632.6 212.7L632.8 212.7L632.8 199.6Q632.8 197.7 633.8 196.7Q634.8 195.7 636.4 195.7Q638.0 195.7 639.0 196.7Q640.1 197.7 640.1 199.6L640.1 199.6L640.1 235.5Q640.1 237.2 639.1 238.2Q638.1 239.2 636.5 239.2L636.5 239.2Q634.8 239.2 633.8 238.2Q632.8 237.2 632.8 235.5L632.8 235.5L632.8 233.1L632.6 233.1Q631.4 235.9 629.0 237.5Q626.5 239.1 623.0 239.1ZM625.2 233.1L625.2 233.1Q628.6 233.1 630.7 230.4Q632.8 227.7 632.8 223.1L632.8 223.1Q632.8 218.5 630.7 215.7Q628.6 213.0 625.2 213.0L625.2 213.0Q621.7 213.0 619.6 215.7Q617.6 218.4 617.6 223.1L617.6 223.1Q617.6 227.7 619.6 230.4Q621.6 233.1 625.2 233.1ZM662.9 224.7L649.7 224.7Q648.1 224.7 647.2 223.8Q646.2 222.9 646.2 221.4Q646.2 219.9 647.2 219.0Q648.1 218.2 649.7 218.2L649.7 218.2L662.9 218.2Q664.5 218.2 665.4 219.0Q666.4 219.9 666.4 221.4Q666.4 222.9 665.4 223.8Q664.5 224.7 662.9 224.7L662.9 224.7ZM690.5 239.3L690.5 239.3Q682.6 239.3 677.9 235.0Q673.1 230.7 673.1 223.7L673.1 223.7L673.1 199.7Q673.1 197.9 674.1 196.8Q675.2 195.8 676.9 195.8L676.9 195.8Q678.7 195.8 679.7 196.8Q680.7 197.9 680.7 199.7L680.7 199.7L680.7 223.0Q680.7 227.4 683.3 230.0Q685.9 232.7 690.5 232.7Q695.1 232.7 697.7 230.0Q700.4 227.4 700.4 223.0L700.4 223.0L700.4 199.7Q700.4 197.9 701.3 196.8Q702.3 195.8 704.1 195.8L704.1 195.8Q705.9 195.8 706.9 196.8Q707.9 197.9 707.9 199.7L707.9 199.7L707.9 223.7Q707.9 230.7 703.2 235.0Q698.5 239.3 690.5 239.3ZM726.6 239.2L726.6 239.2Q721.8 239.2 718.4 237.5Q715.1 235.8 713.9 233.0L713.9 233.0Q713.7 232.2 713.7 231.5L713.7 231.5Q713.7 230.2 714.5 229.4Q715.4 228.6 716.7 228.6L716.7 228.6Q718.5 228.6 719.9 230.4L719.9 230.4Q721.1 232.3 722.7 233.1Q724.3 233.9 726.9 233.9L726.9 233.9Q729.4 233.9 731.0 232.9Q732.5 231.8 732.5 230.1L732.5 230.1Q732.5 228.7 731.5 227.8Q730.5 227.0 728.2 226.4L728.2 226.4L723.1 225.3Q714.1 223.3 714.1 216.4L714.1 216.4Q714.1 212.1 717.5 209.5Q721.0 206.9 726.7 206.9L726.7 206.9Q731.1 206.9 734.3 208.8Q737.6 210.6 738.3 213.4L738.3 213.4Q738.4 214.0 738.4 214.5L738.4 214.5Q738.4 215.6 737.7 216.4Q737.0 217.1 735.6 217.1L735.6 217.1Q733.8 217.1 732.8 215.7L732.8 215.7Q731.7 214.0 730.2 213.1Q728.7 212.2 726.5 212.2L726.5 212.2Q724.1 212.2 722.6 213.3Q721.2 214.3 721.2 216.0L721.2 216.0Q721.2 218.8 725.7 219.8L725.7 219.8L730.7 220.9Q735.6 222.0 737.7 223.9Q739.8 225.9 739.8 229.3L739.8 229.3Q739.8 233.8 736.2 236.5Q732.5 239.2 726.6 239.2ZM758.2 239.2L758.2 239.2Q751.1 239.2 747.1 235.0Q743.2 230.7 743.2 223.2L743.2 223.2Q743.2 215.7 747.1 211.3Q751.1 206.9 757.8 206.9L757.8 206.9Q764.2 206.9 768.2 210.9Q772.1 215.0 772.1 221.4L772.1 221.4Q772.1 223.0 771.2 223.9Q770.3 224.8 768.7 224.8L768.7 224.8L750.4 224.8L750.4 225.0Q750.4 228.9 752.5 231.3Q754.6 233.6 758.2 233.6L758.2 233.6Q760.6 233.6 762.4 232.6Q764.2 231.7 765.9 229.4L765.9 229.4Q767.0 228.3 768.4 228.3L768.4 228.3Q769.7 228.3 770.5 229.0Q771.3 229.8 771.3 231.1L771.3 231.1Q771.3 231.9 770.8 232.9L770.8 232.9Q769.3 235.9 766.0 237.5Q762.7 239.2 758.2 239.2ZM750.5 220.0L750.5 220.0L765.0 220.0Q764.9 216.6 762.9 214.6Q760.9 212.5 757.9 212.5Q754.8 212.5 752.7 214.6Q750.7 216.7 750.5 220.0ZM783.1 238.1Q782.1 239.2 780.4 239.2Q778.8 239.2 777.8 238.1Q776.8 237.1 776.8 235.3L776.8 235.3L776.8 210.6Q776.8 208.9 777.8 207.9Q778.7 206.9 780.3 206.9L780.3 206.9Q781.8 206.9 782.8 207.9Q783.8 208.9 783.8 210.6L783.8 210.6L783.8 213.0L783.9 213.0Q784.6 210.3 786.4 208.6Q788.2 207.0 790.6 207.0L790.6 207.0Q792.3 207.0 793.1 207.8L793.1 207.8Q794.2 208.6 794.2 210.4L794.2 210.4Q794.2 212.1 793.1 213.0L793.1 213.0Q792.0 213.9 789.9 214.0L789.9 214.0Q784.1 214.0 784.1 220.4L784.1 220.4L784.1 235.3Q784.1 237.1 783.1 238.1Z M59.2 321.1L47.5 321.1Q45.7 321.1 44.7 320.0Q43.7 319.0 43.7 317.2L43.7 317.2L43.7 282.7Q43.7 280.9 44.7 279.8Q45.7 278.8 47.5 278.8L47.5 278.8L59.2 278.8Q68.7 278.8 74.0 284.3Q79.3 289.8 79.3 299.8L79.3 299.8Q79.3 309.9 74.0 315.5Q68.7 321.1 59.2 321.1L59.2 321.1ZM51.3 285.2L51.3 314.7L58.4 314.7Q64.8 314.7 68.2 310.9Q71.6 307.1 71.6 299.9L71.6 299.9Q71.6 292.8 68.1 289.0Q64.7 285.2 58.4 285.2L58.4 285.2L51.3 285.2ZM98.3 321.7L98.3 321.7Q91.2 321.7 87.2 317.5Q83.2 313.2 83.2 305.7L83.2 305.7Q83.2 298.2 87.2 293.8Q91.2 289.4 97.9 289.4L97.9 289.4Q104.2 289.4 108.2 293.4Q112.2 297.5 112.2 303.9L112.2 303.9Q112.2 305.5 111.3 306.4Q110.4 307.3 108.8 307.3L108.8 307.3L90.5 307.3L90.5 307.5Q90.5 311.4 92.6 313.8Q94.7 316.1 98.2 316.1L98.2 316.1Q100.7 316.1 102.5 315.1Q104.2 314.2 106.0 311.9L106.0 311.9Q107.1 310.8 108.5 310.8L108.5 310.8Q109.7 310.8 110.6 311.5Q111.4 312.3 111.4 313.6L111.4 313.6Q111.4 314.4 110.9 315.4L110.9 315.4Q109.3 318.4 106.0 320.0Q102.7 321.7 98.3 321.7ZM90.5 302.5L90.5 302.5L105.0 302.5Q104.9 299.1 103.0 297.1Q101.0 295.0 97.9 295.0Q94.8 295.0 92.8 297.1Q90.7 299.2 90.5 302.5ZM129.3 321.7L129.3 321.7Q127.3 321.7 126.1 320.8Q124.9 319.9 124.2 317.9L124.2 317.9L115.4 294.8Q115.0 293.7 115.0 292.7L115.0 292.7Q115.0 291.3 116.1 290.3Q117.1 289.4 118.7 289.4L118.7 289.4Q121.3 289.4 122.1 292.3L122.1 292.3L129.2 314.3L129.4 314.3L136.5 292.3Q137.3 289.4 139.9 289.4L139.9 289.4Q141.4 289.4 142.4 290.3Q143.4 291.3 143.4 292.7L143.4 292.7Q143.4 293.7 143.1 294.7L143.1 294.7L134.3 317.9Q133.7 319.8 132.4 320.8Q131.2 321.7 129.3 321.7ZM161.3 321.7L161.3 321.7Q154.2 321.7 150.2 317.5Q146.3 313.2 146.3 305.7L146.3 305.7Q146.3 298.2 150.2 293.8Q154.2 289.4 160.9 289.4L160.9 289.4Q167.3 289.4 171.3 293.4Q175.2 297.5 175.2 303.9L175.2 303.9Q175.2 305.5 174.3 306.4Q173.4 307.3 171.8 307.3L171.8 307.3L153.5 307.3L153.5 307.5Q153.5 311.4 155.6 313.8Q157.7 316.1 161.3 316.1L161.3 316.1Q163.8 316.1 165.5 315.1Q167.3 314.2 169.1 311.9L169.1 311.9Q170.1 310.8 171.5 310.8L171.5 310.8Q172.8 310.8 173.6 311.5Q174.4 312.3 174.4 313.6L174.4 313.6Q174.4 314.4 173.9 315.4L173.9 315.4Q172.4 318.4 169.1 320.0Q165.8 321.7 161.3 321.7ZM153.6 302.5L153.6 302.5L168.1 302.5Q168.0 299.1 166.0 297.1Q164.0 295.0 161.0 295.0Q157.9 295.0 155.8 297.1Q153.8 299.2 153.6 302.5ZM186.4 320.7Q185.4 321.7 183.8 321.7Q182.1 321.7 181.1 320.7Q180.1 319.6 180.1 317.8L180.1 317.8L180.1 282.1Q180.1 280.2 181.1 279.2Q182.1 278.2 183.8 278.2Q185.4 278.2 186.4 279.2Q187.4 280.2 187.4 282.1L187.4 282.1L187.4 317.8Q187.4 319.6 186.4 320.7ZM218.3 317.4Q214.3 321.7 207.4 321.7Q200.5 321.7 196.4 317.4Q192.3 313.1 192.3 305.6L192.3 305.6Q192.3 298.1 196.4 293.7Q200.5 289.4 207.4 289.4L207.4 289.4Q214.2 289.4 218.3 293.7Q222.4 298.1 222.4 305.6L222.4 305.6Q222.4 313.1 218.3 317.4ZM201.8 313.2Q203.9 315.9 207.4 315.9Q210.9 315.9 212.9 313.2Q215.0 310.5 215.0 305.6L215.0 305.6Q215.0 300.7 212.9 297.9Q210.9 295.2 207.4 295.2L207.4 295.2Q203.9 295.2 201.8 297.9Q199.8 300.7 199.8 305.6L199.8 305.6Q199.8 310.5 201.8 313.2ZM233.4 331.1Q232.4 332.1 230.7 332.1Q229.1 332.1 228.1 331.1Q227.1 330.1 227.1 328.3L227.1 328.3L227.1 293.2Q227.1 291.4 228.1 290.4Q229.1 289.4 230.6 289.4L230.6 289.4Q232.2 289.4 233.2 290.4Q234.2 291.4 234.2 293.2L234.2 293.2L234.2 295.4L234.4 295.4Q235.7 292.6 238.3 291.1Q240.8 289.5 244.1 289.5L244.1 289.5Q250.1 289.5 253.5 293.8Q257.0 298.1 257.0 305.6L257.0 305.6Q257.0 313.0 253.6 317.3Q250.1 321.6 244.3 321.6L244.3 321.6Q240.9 321.6 238.4 320.1Q235.8 318.6 234.5 315.9L234.5 315.9L234.4 315.9L234.4 328.3Q234.4 330.1 233.4 331.1ZM241.9 315.6L241.9 315.6Q245.5 315.6 247.5 312.9Q249.6 310.2 249.6 305.6L249.6 305.6Q249.6 301.0 247.5 298.2Q245.4 295.5 241.9 295.5L241.9 295.5Q238.5 295.5 236.4 298.3Q234.4 301.0 234.3 305.6L234.3 305.6Q234.4 310.1 236.4 312.9Q238.5 315.6 241.9 315.6ZM265.4 321.7L265.4 321.7Q263.7 321.7 262.7 320.7Q261.7 319.6 261.7 317.8L261.7 317.8L261.7 293.1Q261.7 291.4 262.7 290.4Q263.6 289.4 265.2 289.4Q266.8 289.4 267.8 290.4Q268.7 291.4 268.7 293.1L268.7 293.1L268.7 295.4L268.9 295.4Q269.9 292.7 272.2 291.0Q274.6 289.4 277.7 289.4L277.7 289.4Q281.0 289.4 283.3 291.1Q285.5 292.7 286.4 295.7L286.4 295.7L286.6 295.7Q287.7 292.8 290.3 291.1Q292.9 289.4 296.2 289.4L296.2 289.4Q300.8 289.4 303.6 292.3Q306.4 295.1 306.4 299.8L306.4 299.8L306.4 317.8Q306.4 319.6 305.4 320.6Q304.4 321.7 302.7 321.7L302.7 321.7Q301.1 321.7 300.1 320.6Q299.1 319.6 299.1 317.8L299.1 317.8L299.1 301.6Q299.1 298.7 297.6 297.1Q296.2 295.6 293.5 295.6L293.5 295.6Q290.9 295.6 289.2 297.3Q287.6 299.1 287.6 301.9L287.6 301.9L287.6 317.8Q287.6 319.6 286.6 320.7Q285.7 321.7 284.0 321.7L284.0 321.7Q282.4 321.7 281.4 320.7Q280.5 319.6 280.5 317.8L280.5 317.8L280.5 301.2Q280.5 298.6 279.0 297.1Q277.5 295.6 275.0 295.6L275.0 295.6Q272.4 295.6 270.7 297.4Q269.0 299.3 269.0 302.1L269.0 302.1L269.0 317.8Q269.0 319.6 268.0 320.6Q267.0 321.7 265.4 321.7ZM326.0 321.7L326.0 321.7Q318.9 321.7 314.9 317.5Q310.9 313.2 310.9 305.7L310.9 305.7Q310.9 298.2 314.9 293.8Q318.9 289.4 325.6 289.4L325.6 289.4Q331.9 289.4 335.9 293.4Q339.9 297.5 339.9 303.9L339.9 303.9Q339.9 305.5 339.0 306.4Q338.1 307.3 336.5 307.3L336.5 307.3L318.2 307.3L318.2 307.5Q318.2 311.4 320.3 313.8Q322.4 316.1 325.9 316.1L325.9 316.1Q328.4 316.1 330.2 315.1Q331.9 314.2 333.7 311.9L333.7 311.9Q334.8 310.8 336.2 310.8L336.2 310.8Q337.4 310.8 338.3 311.5Q339.1 312.3 339.1 313.6L339.1 313.6Q339.1 314.4 338.6 315.4L338.6 315.4Q337.0 318.4 333.7 320.0Q330.4 321.7 326.0 321.7ZM318.2 302.5L318.2 302.5L332.7 302.5Q332.6 299.1 330.7 297.1Q328.7 295.0 325.6 295.0Q322.5 295.0 320.5 297.1Q318.4 299.2 318.2 302.5ZM350.9 320.7Q349.8 321.7 348.2 321.7Q346.6 321.7 345.6 320.7Q344.6 319.6 344.6 317.8L344.6 317.8L344.6 293.1Q344.6 291.4 345.5 290.4Q346.4 289.4 348.1 289.4Q349.7 289.4 350.7 290.4Q351.7 291.4 351.7 293.1L351.7 293.1L351.7 295.3L351.8 295.3Q354.4 289.4 361.5 289.4L361.5 289.4Q366.6 289.4 369.4 292.5Q372.2 295.6 372.2 301.0L372.2 301.0L372.2 317.8Q372.2 319.6 371.2 320.7Q370.2 321.7 368.6 321.7Q367.0 321.7 365.9 320.7Q364.9 319.6 364.9 317.8L364.9 317.8L364.9 302.5Q364.9 299.1 363.4 297.4Q361.8 295.6 358.7 295.6L358.7 295.6Q355.6 295.6 353.7 297.7Q351.9 299.7 351.9 303.1L351.9 303.1L351.9 317.8Q351.9 319.6 350.9 320.7ZM380.1 313.4L380.1 313.4L380.1 295.6L378.1 295.6Q376.8 295.6 376.0 294.9Q375.2 294.1 375.2 292.8L375.2 292.8Q375.2 291.5 376.0 290.8Q376.7 290.0 378.1 290.0L378.1 290.0L380.1 290.0L380.1 285.9Q380.1 284.1 381.1 283.1Q382.0 282.1 383.7 282.1L383.7 282.1Q385.4 282.1 386.4 283.1Q387.4 284.1 387.4 285.9L387.4 285.9L387.4 290.0L390.7 290.0Q392.1 290.0 392.9 290.8Q393.7 291.5 393.7 292.8L393.7 292.8Q393.7 294.1 392.9 294.9Q392.1 295.6 390.7 295.6L390.7 295.6L387.4 295.6L387.4 311.8Q387.4 313.6 388.0 314.4Q388.7 315.2 390.3 315.4L390.3 315.4L390.8 315.4Q393.8 315.7 393.8 318.1L393.8 318.1Q393.8 319.7 392.4 320.6Q391.1 321.4 388.5 321.4L388.5 321.4L388.3 321.4Q380.1 321.4 380.1 313.4Z M416.9 284.5Q415.7 285.7 414.0 285.7Q412.3 285.7 411.1 284.5Q410.0 283.3 410.0 281.7L410.0 281.7Q410.0 280.0 411.1 278.9Q412.3 277.7 414.0 277.7L414.0 277.7Q415.7 277.7 416.9 278.9Q418.1 280.0 418.1 281.7L418.1 281.7Q418.1 283.3 416.9 284.5ZM416.7 320.6Q415.7 321.7 414.0 321.7Q412.3 321.7 411.4 320.6Q410.4 319.6 410.4 317.8L410.4 317.8L410.4 293.2Q410.4 291.5 411.4 290.4Q412.3 289.4 414.0 289.4Q415.7 289.4 416.7 290.4Q417.7 291.5 417.7 293.3L417.7 293.3L417.7 317.8Q417.7 319.6 416.7 320.6ZM430.1 320.7Q429.1 321.7 427.4 321.7Q425.8 321.7 424.8 320.7Q423.8 319.6 423.8 317.8L423.8 317.8L423.8 293.1Q423.8 291.4 424.7 290.4Q425.7 289.4 427.3 289.4Q428.9 289.4 429.9 290.4Q430.9 291.4 430.9 293.1L430.9 293.1L430.9 295.3L431.0 295.3Q433.7 289.4 440.7 289.4L440.7 289.4Q445.8 289.4 448.6 292.5Q451.4 295.6 451.4 301.0L451.4 301.0L451.4 317.8Q451.4 319.6 450.4 320.7Q449.5 321.7 447.8 321.7Q446.2 321.7 445.2 320.7Q444.2 319.6 444.2 317.8L444.2 317.8L444.2 302.5Q444.2 299.1 442.6 297.4Q441.0 295.6 437.9 295.6L437.9 295.6Q434.8 295.6 432.9 297.7Q431.1 299.7 431.1 303.1L431.1 303.1L431.1 317.8Q431.1 319.6 430.1 320.7Z M471.3 313.4L471.3 313.4L471.3 295.6L469.3 295.6Q468.0 295.6 467.2 294.9Q466.4 294.1 466.4 292.8L466.4 292.8Q466.4 291.5 467.2 290.8Q468.0 290.0 469.3 290.0L469.3 290.0L471.3 290.0L471.3 285.9Q471.3 284.1 472.3 283.1Q473.3 282.1 475.0 282.1L475.0 282.1Q476.6 282.1 477.6 283.1Q478.6 284.1 478.6 285.9L478.6 285.9L478.6 290.0L482.0 290.0Q483.3 290.0 484.1 290.8Q484.9 291.5 484.9 292.8L484.9 292.8Q484.9 294.1 484.1 294.9Q483.3 295.6 482.0 295.6L482.0 295.6L478.6 295.6L478.6 311.8Q478.6 313.6 479.3 314.4Q480.0 315.2 481.5 315.4L481.5 315.4L482.1 315.4Q485.0 315.7 485.0 318.1L485.0 318.1Q485.0 319.7 483.6 320.6Q482.3 321.4 479.8 321.4L479.8 321.4L479.5 321.4Q471.3 321.4 471.3 313.4ZM495.9 320.7Q494.9 321.7 493.3 321.7Q491.6 321.7 490.6 320.7Q489.6 319.6 489.6 317.8L489.6 317.8L489.6 282.0Q489.6 280.2 490.6 279.2Q491.6 278.2 493.2 278.2L493.2 278.2Q494.9 278.2 495.9 279.2Q496.8 280.2 496.8 282.0L496.8 282.0L496.8 295.4L497.0 295.4Q498.2 292.5 500.8 291.0Q503.3 289.4 506.8 289.4L506.8 289.4Q511.9 289.4 514.8 292.6Q517.7 295.7 517.7 301.1L517.7 301.1L517.7 317.8Q517.7 319.6 516.6 320.7Q515.6 321.7 514.0 321.7Q512.4 321.7 511.4 320.7Q510.4 319.6 510.4 317.8L510.4 317.8L510.4 302.6Q510.4 299.3 508.7 297.4Q507.1 295.6 504.0 295.6L504.0 295.6Q500.7 295.6 498.8 297.7Q496.9 299.8 496.9 303.2L496.9 303.2L496.9 317.8Q496.9 319.6 495.9 320.7ZM537.3 321.7L537.3 321.7Q530.2 321.7 526.2 317.5Q522.2 313.2 522.2 305.7L522.2 305.7Q522.2 298.2 526.2 293.8Q530.2 289.4 536.9 289.4L536.9 289.4Q543.2 289.4 547.2 293.4Q551.2 297.5 551.2 303.9L551.2 303.9Q551.2 305.5 550.3 306.4Q549.4 307.3 547.8 307.3L547.8 307.3L529.5 307.3L529.5 307.5Q529.5 311.4 531.6 313.8Q533.7 316.1 537.2 316.1L537.2 316.1Q539.7 316.1 541.5 315.1Q543.2 314.2 545.0 311.9L545.0 311.9Q546.0 310.8 547.5 310.8L547.5 310.8Q548.7 310.8 549.5 311.5Q550.4 312.3 550.4 313.6L550.4 313.6Q550.4 314.4 549.9 315.4L549.9 315.4Q548.3 318.4 545.0 320.0Q541.7 321.7 537.3 321.7ZM529.5 302.5L529.5 302.5L544.0 302.5Q543.9 299.1 541.9 297.1Q540.0 295.0 536.9 295.0Q533.8 295.0 531.8 297.1Q529.7 299.2 529.5 302.5Z M586.9 321.8L586.9 321.8Q577.7 321.8 572.5 315.9Q567.2 310.1 567.2 299.9L567.2 299.9Q567.2 289.8 572.5 284.0Q577.8 278.1 586.8 278.1L586.8 278.1Q592.6 278.1 597.1 280.7Q601.5 283.3 603.6 287.9L603.6 287.9Q604.3 289.4 604.3 290.8L604.3 290.8Q604.3 292.3 603.3 293.2Q602.4 294.1 600.9 294.1L600.9 294.1Q598.4 294.1 597.2 291.4L597.2 291.4Q595.8 288.1 593.0 286.3Q590.3 284.5 586.8 284.5L586.8 284.5Q581.4 284.5 578.1 288.7Q574.9 292.9 574.9 299.9L574.9 299.9Q574.9 307.0 578.1 311.2Q581.3 315.4 586.9 315.4L586.9 315.4Q594.5 315.4 597.3 308.8L597.3 308.8Q597.9 307.5 598.7 306.9Q599.5 306.4 600.7 306.4L600.7 306.4Q602.3 306.4 603.2 307.3Q604.2 308.2 604.2 309.7L604.2 309.7Q604.2 311.1 603.5 312.6L603.5 312.6Q601.5 316.9 597.1 319.3Q592.8 321.8 586.9 321.8ZM619.1 321.6L619.1 321.6Q614.6 321.6 611.7 319.0Q608.8 316.4 608.8 312.2L608.8 312.2Q608.8 308.1 611.8 305.7Q614.9 303.3 620.6 302.9L620.6 302.9L628.8 302.4L628.8 300.2Q628.8 297.8 627.3 296.4Q625.7 295.1 623.0 295.1L623.0 295.1Q620.8 295.1 619.3 295.9Q617.9 296.7 616.5 298.7L616.5 298.7Q615.4 300.2 613.5 300.2L613.5 300.2Q612.2 300.2 611.3 299.4Q610.5 298.6 610.5 297.3L610.5 297.3Q610.5 296.3 611.0 295.3L611.0 295.3Q612.1 292.6 615.5 291.0Q618.8 289.4 623.3 289.4L623.3 289.4Q629.1 289.4 632.5 292.2Q636.0 295.0 636.0 299.7L636.0 299.7L636.0 318.0Q636.0 319.7 635.0 320.7Q634.1 321.7 632.5 321.7L632.5 321.7Q630.9 321.7 630.0 320.8Q629.1 319.9 629.0 318.3L629.0 318.3L629.0 316.1L628.8 316.1Q627.5 318.6 624.9 320.1Q622.2 321.6 619.1 321.6ZM621.4 316.1L621.4 316.1Q624.5 316.1 626.6 314.2Q628.8 312.3 628.8 309.6L628.8 309.6L628.8 307.2L621.6 307.6Q619.0 307.8 617.5 308.9Q616.1 310.1 616.1 311.9L616.1 311.9Q616.1 313.8 617.5 314.9Q619.0 316.1 621.4 316.1ZM648.2 320.6Q647.2 321.7 645.5 321.7Q643.8 321.7 642.9 320.6Q641.9 319.6 641.9 317.8L641.9 317.8L641.9 293.1Q641.9 291.4 642.8 290.4Q643.8 289.4 645.4 289.4L645.4 289.4Q646.9 289.4 647.9 290.4Q648.8 291.4 648.8 293.1L648.8 293.1L648.8 295.5L649.0 295.5Q649.6 292.8 651.4 291.1Q653.3 289.5 655.6 289.5L655.6 289.5Q657.3 289.5 658.2 290.3L658.2 290.3Q659.2 291.1 659.2 292.9L659.2 292.9Q659.2 294.6 658.1 295.5L658.1 295.5Q657.1 296.4 654.9 296.5L654.9 296.5Q649.2 296.5 649.2 302.9L649.2 302.9L649.2 317.8Q649.2 319.6 648.2 320.6ZM676.3 321.7L676.3 321.7Q669.2 321.7 665.2 317.5Q661.2 313.2 661.2 305.7L661.2 305.7Q661.2 298.2 665.2 293.8Q669.2 289.4 675.9 289.4L675.9 289.4Q682.2 289.4 686.2 293.4Q690.2 297.5 690.2 303.9L690.2 303.9Q690.2 305.5 689.3 306.4Q688.4 307.3 686.8 307.3L686.8 307.3L668.5 307.3L668.5 307.5Q668.5 311.4 670.6 313.8Q672.7 316.1 676.2 316.1L676.2 316.1Q678.7 316.1 680.5 315.1Q682.2 314.2 684.0 311.9L684.0 311.9Q685.1 310.8 686.5 310.8L686.5 310.8Q687.7 310.8 688.6 311.5Q689.4 312.3 689.4 313.6L689.4 313.6Q689.4 314.4 688.9 315.4L688.9 315.4Q687.3 318.4 684.0 320.0Q680.7 321.7 676.3 321.7ZM668.5 302.5L668.5 302.5L683.0 302.5Q682.9 299.1 681.0 297.1Q679.0 295.0 675.9 295.0Q672.8 295.0 670.8 297.1Q668.7 299.2 668.5 302.5ZM708.3 332.8L708.3 332.8Q703.9 332.7 700.6 331.2Q697.3 329.7 695.7 327.1L695.7 327.1Q695.0 326.1 695.0 324.9L695.0 324.9Q695.0 323.7 695.9 322.9Q696.7 322.1 698.1 322.1L698.1 322.1Q699.5 322.1 700.8 323.3L700.8 323.3Q702.6 325.2 704.4 326.1Q706.2 326.9 708.3 327.0L708.3 327.0Q712.0 327.0 714.1 325.1Q716.2 323.2 716.2 320.1L716.2 320.1L716.2 315.2L716.1 315.2Q714.9 317.7 712.2 319.2Q709.6 320.8 706.4 320.8L706.4 320.8Q700.5 320.8 697.0 316.5Q693.6 312.3 693.6 305.2L693.6 305.2Q693.6 297.9 697.0 293.7Q700.5 289.5 706.5 289.5L706.5 289.5Q709.8 289.5 712.3 291.0Q714.8 292.6 716.1 295.3L716.1 295.3L716.3 295.3L716.3 293.1Q716.3 291.4 717.3 290.4Q718.3 289.4 719.9 289.4Q721.5 289.4 722.5 290.4Q723.6 291.4 723.6 293.1L723.6 293.1L723.6 320.1Q723.6 326.0 719.5 329.4Q715.4 332.8 708.3 332.8ZM708.6 315.1L708.6 315.1Q712.1 315.1 714.2 312.4Q716.3 309.8 716.3 305.2L716.3 305.2Q716.3 300.7 714.2 298.0Q712.1 295.3 708.6 295.3L708.6 295.3Q705.1 295.3 703.1 298.0Q701.1 300.7 701.1 305.2L701.1 305.2Q701.1 309.8 703.1 312.5Q705.1 315.1 708.6 315.1ZM736.2 284.5Q735.0 285.7 733.3 285.7Q731.6 285.7 730.4 284.5Q729.3 283.3 729.3 281.7L729.3 281.7Q729.3 280.0 730.4 278.9Q731.6 277.7 733.3 277.7L733.3 277.7Q735.0 277.7 736.2 278.9Q737.4 280.0 737.4 281.7L737.4 281.7Q737.4 283.3 736.2 284.5ZM736.0 320.6Q735.0 321.7 733.3 321.7Q731.6 321.7 730.7 320.6Q729.7 319.6 729.7 317.8L729.7 317.8L729.7 293.2Q729.7 291.5 730.7 290.4Q731.6 289.4 733.3 289.4Q735.0 289.4 736.0 290.4Q737.0 291.5 737.0 293.3L737.0 293.3L737.0 317.8Q737.0 319.6 736.0 320.6ZM755.5 321.7L755.5 321.7Q753.5 321.7 752.3 320.8Q751.1 319.9 750.4 317.9L750.4 317.9L741.7 294.8Q741.3 293.7 741.3 292.7L741.3 292.7Q741.3 291.3 742.3 290.3Q743.3 289.4 744.9 289.4L744.9 289.4Q747.5 289.4 748.4 292.3L748.4 292.3L755.5 314.3L755.6 314.3L762.7 292.3Q763.5 289.4 766.1 289.4L766.1 289.4Q767.6 289.4 768.7 290.3Q769.7 291.3 769.7 292.7L769.7 292.7Q769.7 293.7 769.3 294.7L769.3 294.7L760.6 317.9Q759.9 319.8 758.7 320.8Q757.5 321.7 755.5 321.7ZM780.5 284.5Q779.3 285.7 777.6 285.7Q775.9 285.7 774.7 284.5Q773.5 283.3 773.5 281.7L773.5 281.7Q773.5 280.0 774.7 278.9Q775.9 277.7 777.6 277.7L777.6 277.7Q779.3 277.7 780.5 278.9Q781.7 280.0 781.7 281.7L781.7 281.7Q781.7 283.3 780.5 284.5ZM780.2 320.6Q779.2 321.7 777.6 321.7Q775.9 321.7 774.9 320.6Q773.9 319.6 773.9 317.8L773.9 317.8L773.9 293.2Q773.9 291.5 774.9 290.4Q775.9 289.4 777.6 289.4Q779.2 289.4 780.2 290.4Q781.2 291.5 781.2 293.3L781.2 293.3L781.2 317.8Q781.2 319.6 780.2 320.6ZM793.6 320.7Q792.6 321.7 791.0 321.7Q789.4 321.7 788.4 320.7Q787.4 319.6 787.4 317.8L787.4 317.8L787.4 293.1Q787.4 291.4 788.3 290.4Q789.2 289.4 790.8 289.4Q792.5 289.4 793.5 290.4Q794.5 291.4 794.5 293.1L794.5 293.1L794.5 295.3L794.6 295.3Q797.2 289.4 804.3 289.4L804.3 289.4Q809.4 289.4 812.2 292.5Q815.0 295.6 815.0 301.0L815.0 301.0L815.0 317.8Q815.0 319.6 814.0 320.7Q813.0 321.7 811.4 321.7Q809.7 321.7 808.7 320.7Q807.7 319.6 807.7 317.8L807.7 317.8L807.7 302.5Q807.7 299.1 806.2 297.4Q804.6 295.6 801.5 295.6L801.5 295.6Q798.4 295.6 796.5 297.7Q794.7 299.7 794.7 303.1L794.7 303.1L794.7 317.8Q794.7 319.6 793.6 320.7ZM834.2 332.8L834.2 332.8Q829.9 332.7 826.6 331.2Q823.3 329.7 821.6 327.1L821.6 327.1Q821.0 326.1 821.0 324.9L821.0 324.9Q821.0 323.7 821.9 322.9Q822.7 322.1 824.1 322.1L824.1 322.1Q825.5 322.1 826.7 323.3L826.7 323.3Q828.6 325.2 830.4 326.1Q832.1 326.9 834.3 327.0L834.3 327.0Q838.0 327.0 840.1 325.1Q842.2 323.2 842.2 320.1L842.2 320.1L842.2 315.2L842.1 315.2Q840.8 317.7 838.2 319.2Q835.6 320.8 832.3 320.8L832.3 320.8Q826.5 320.8 823.0 316.5Q819.6 312.3 819.6 305.2L819.6 305.2Q819.6 297.9 823.0 293.7Q826.5 289.5 832.5 289.5L832.5 289.5Q835.7 289.5 838.2 291.0Q840.7 292.6 842.1 295.3L842.1 295.3L842.2 295.3L842.2 293.1Q842.2 291.4 843.3 290.4Q844.3 289.4 845.9 289.4Q847.5 289.4 848.5 290.4Q849.5 291.4 849.5 293.1L849.5 293.1L849.5 320.1Q849.5 326.0 845.5 329.4Q841.4 332.8 834.2 332.8ZM834.6 315.1L834.6 315.1Q838.1 315.1 840.2 312.4Q842.3 309.8 842.3 305.2L842.3 305.2Q842.3 300.7 840.2 298.0Q838.0 295.3 834.6 295.3L834.6 295.3Q831.1 295.3 829.1 298.0Q827.0 300.7 827.0 305.2L827.0 305.2Q827.0 309.8 829.1 312.5Q831.1 315.1 834.6 315.1Z M883.7 321.1L872.0 321.1Q870.2 321.1 869.2 320.0Q868.2 319.0 868.2 317.2L868.2 317.2L868.2 282.7Q868.2 280.9 869.2 279.8Q870.2 278.8 872.0 278.8L872.0 278.8L883.7 278.8Q893.2 278.8 898.5 284.3Q903.8 289.8 903.8 299.8L903.8 299.8Q903.8 309.9 898.5 315.5Q893.2 321.1 883.7 321.1L883.7 321.1ZM875.8 285.2L875.8 314.7L882.9 314.7Q889.3 314.7 892.7 310.9Q896.1 307.1 896.1 299.9L896.1 299.9Q896.1 292.8 892.6 289.0Q889.2 285.2 882.9 285.2L882.9 285.2L875.8 285.2ZM933.7 317.4Q929.6 321.7 922.7 321.7Q915.9 321.7 911.8 317.4Q907.7 313.1 907.7 305.6L907.7 305.6Q907.7 298.1 911.8 293.7Q915.9 289.4 922.7 289.4L922.7 289.4Q929.6 289.4 933.7 293.7Q937.8 298.1 937.8 305.6L937.8 305.6Q937.8 313.1 933.7 317.4ZM917.2 313.2Q919.2 315.9 922.7 315.9Q926.3 315.9 928.3 313.2Q930.4 310.5 930.4 305.6L930.4 305.6Q930.4 300.7 928.3 297.9Q926.3 295.2 922.7 295.2L922.7 295.2Q919.3 295.2 917.2 297.9Q915.1 300.7 915.1 305.6L915.1 305.6Q915.1 310.5 917.2 313.2ZM946.1 321.7L946.1 321.7Q944.4 321.7 943.4 320.7Q942.5 319.6 942.5 317.8L942.5 317.8L942.5 293.1Q942.5 291.4 943.4 290.4Q944.4 289.4 945.9 289.4Q947.5 289.4 948.5 290.4Q949.5 291.4 949.5 293.1L949.5 293.1L949.5 295.4L949.6 295.4Q950.6 292.7 953.0 291.0Q955.3 289.4 958.5 289.4L958.5 289.4Q961.7 289.4 964.0 291.1Q966.3 292.7 967.1 295.7L967.1 295.7L967.3 295.7Q968.4 292.8 971.0 291.1Q973.6 289.4 977.0 289.4L977.0 289.4Q981.6 289.4 984.3 292.3Q987.1 295.1 987.1 299.8L987.1 299.8L987.1 317.8Q987.1 319.6 986.1 320.6Q985.1 321.7 983.5 321.7L983.5 321.7Q981.8 321.7 980.8 320.6Q979.8 319.6 979.8 317.8L979.8 317.8L979.8 301.6Q979.8 298.7 978.4 297.1Q976.9 295.6 974.2 295.6L974.2 295.6Q971.6 295.6 970.0 297.3Q968.3 299.1 968.3 301.9L968.3 301.9L968.3 317.8Q968.3 319.6 967.4 320.7Q966.4 321.7 964.8 321.7L964.8 321.7Q963.1 321.7 962.2 320.7Q961.2 319.6 961.2 317.8L961.2 317.8L961.2 301.2Q961.2 298.6 959.8 297.1Q958.3 295.6 955.7 295.6L955.7 295.6Q953.1 295.6 951.4 297.4Q949.8 299.3 949.8 302.1L949.8 302.1L949.8 317.8Q949.8 319.6 948.7 320.6Q947.7 321.7 946.1 321.7ZM1002.1 321.6L1002.1 321.6Q997.5 321.6 994.6 319.0Q991.7 316.4 991.7 312.2L991.7 312.2Q991.7 308.1 994.7 305.7Q997.8 303.3 1003.5 302.9L1003.5 302.9L1011.7 302.4L1011.7 300.2Q1011.7 297.8 1010.2 296.4Q1008.6 295.1 1005.9 295.1L1005.9 295.1Q1003.8 295.1 1002.3 295.9Q1000.8 296.7 999.4 298.7L999.4 298.7Q998.3 300.2 996.5 300.2L996.5 300.2Q995.1 300.2 994.2 299.4Q993.4 298.6 993.4 297.3L993.4 297.3Q993.4 296.3 993.9 295.3L993.9 295.3Q995.0 292.6 998.4 291.0Q1001.8 289.4 1006.2 289.4L1006.2 289.4Q1012.0 289.4 1015.5 292.2Q1018.9 295.0 1018.9 299.7L1018.9 299.7L1018.9 318.0Q1018.9 319.7 1017.9 320.7Q1017.0 321.7 1015.4 321.7L1015.4 321.7Q1013.9 321.7 1012.9 320.8Q1012.0 319.9 1011.9 318.3L1011.9 318.3L1011.9 316.1L1011.7 316.1Q1010.4 318.6 1007.8 320.1Q1005.1 321.6 1002.1 321.6ZM1004.3 316.1L1004.3 316.1Q1007.4 316.1 1009.6 314.2Q1011.7 312.3 1011.7 309.6L1011.7 309.6L1011.7 307.2L1004.5 307.6Q1001.9 307.8 1000.4 308.9Q999.0 310.1 999.0 311.9L999.0 311.9Q999.0 313.8 1000.4 314.9Q1001.9 316.1 1004.3 316.1ZM1031.5 284.5Q1030.3 285.7 1028.6 285.7Q1026.9 285.7 1025.7 284.5Q1024.6 283.3 1024.6 281.7L1024.6 281.7Q1024.6 280.0 1025.7 278.9Q1026.9 277.7 1028.6 277.7L1028.6 277.7Q1030.3 277.7 1031.5 278.9Q1032.7 280.0 1032.7 281.7L1032.7 281.7Q1032.7 283.3 1031.5 284.5ZM1031.3 320.6Q1030.3 321.7 1028.6 321.7Q1026.9 321.7 1025.9 320.6Q1025.0 319.6 1025.0 317.8L1025.0 317.8L1025.0 293.2Q1025.0 291.5 1025.9 290.4Q1026.9 289.4 1028.6 289.4Q1030.3 289.4 1031.3 290.4Q1032.3 291.5 1032.3 293.3L1032.3 293.3L1032.3 317.8Q1032.3 319.6 1031.3 320.6ZM1044.7 320.7Q1043.7 321.7 1042.0 321.7Q1040.4 321.7 1039.4 320.7Q1038.4 319.6 1038.4 317.8L1038.4 317.8L1038.4 293.1Q1038.4 291.4 1039.3 290.4Q1040.3 289.4 1041.9 289.4Q1043.5 289.4 1044.5 290.4Q1045.5 291.4 1045.5 293.1L1045.5 293.1L1045.5 295.3L1045.6 295.3Q1048.3 289.4 1055.3 289.4L1055.3 289.4Q1060.4 289.4 1063.2 292.5Q1066.0 295.6 1066.0 301.0L1066.0 301.0L1066.0 317.8Q1066.0 319.6 1065.0 320.7Q1064.0 321.7 1062.4 321.7Q1060.8 321.7 1059.8 320.7Q1058.7 319.6 1058.7 317.8L1058.7 317.8L1058.7 302.5Q1058.7 299.1 1057.2 297.4Q1055.6 295.6 1052.5 295.6L1052.5 295.6Q1049.4 295.6 1047.5 297.7Q1045.7 299.7 1045.7 303.1L1045.7 303.1L1045.7 317.8Q1045.7 319.6 1044.7 320.7Z "/><defs><clipPath id="satori_bc-id-0-1"><rect x="0" y="441" width="1200" height="189"/></clipPath></defs><mask id="satori_om-id-0-1"><rect x="0" y="442" width="1200" height="188" fill="#fff"/><path width="1200" height="189" fill="none" stroke="#000" stroke-width="2" d="M0,441 A0,0 0 0 1 0,441 h1200 A0,0 0 0 1 1200,441"/></mask><path width="1200" height="189" clip-path="url(#satori_bc-id-0-1)" fill="none" stroke="#dbdbdb" stroke-width="2" d="M0,441 A0,0 0 0 1 0,441 h1200 A0,0 0 0 1 1200,441"/><mask id="satori_om-id-0-1-0"><rect x="40" y="482" width="389" height="108" fill="#fff"/></mask><clipPath id="satori_cp-id-0-1-0-0"><rect x="40" y="504" width="64" height="64"/></clipPath><mask id="satori_om-id-0-1-0-0"><rect x="40" y="504" width="64" height="64" fill="#fff"/></mask><image x="40" y="504" width="64" height="64" href="data:image/svg+xml;utf8,%3Csvg  xmlns=%22http://www.w3.org/2000/svg%22 width=%2264%22 height=%2264%22 viewBox=%220 0 128 128%22%3E%3Cpath fill=%22%23224d67%22 d=%22M22.5 14.8c2.9 1.3 99 44 99 44c2.7 1.2 2.9 3.1 2 12.4c-1 10.5-1.9 37.8-40.2 42.9c-24.6 3.2-55.9-4.3-70.9-27.2C-6 58.8 11 23.4 14.8 17.7c2.4-3.5 4.8-4.2 7.7-2.9%22%3E%3C/path%3E%3Cpath fill=%22%23f0f4c3%22 d=%22M121.5 58.8c-.3-.2-92-40.8-98.9-43.9C9.6 31.5-3.8 76 27.9 96.2c33.6 21.5 78.7-10.2 93.6-37.4%22%3E%3C/path%3E%3Cpath fill=%22%23f0f4c3%22 d=%22M117.7 57c-.3-.2-86.7-38.4-93.2-41.3c-12.2 15.5-23.9 59.1 5.7 78c31.4 20.2 73.6-11.2 87.5-36.7%22%3E%3C/path%3E%3Cpath fill=%22%23cb2a42%22 d=%22M56.2 37.6L19.5 48.2c-2.5.8-4.4 2.8-5 5.3c-1.9 8.5.8 23.3 8.9 29.8c3.5 2.7 8.6 1.8 10.8-2.1L58.5 41c1.3-1.7.5-4.2-2.3-3.4m14.3 2.9s14.6 30.1 16 33s6.3 4.7 9.9 2.8c10.7-5.6 15.5-12.4 19.2-20.2c-8.9-3.9-42.4-18.8-42.4-18.8c-2.4-1.1-4 .6-2.7 3.2m-8.6 1.9C60.3 45.1 39.5 81 37.6 84.1c-1.9 3.2-.7 7.5 2.7 9.2c12.3 6.5 30.9.4 39.6-7c2.2-1.9 4.5-5.1 3.2-8.2S68.9 44.6 67.8 42.3c-1.2-2.7-4.1-2.8-5.9.1%22%3E%3C/path%3E%3Cpath fill=%22%23f0f4c3%22 d=%22M52.2 42.2c-1.4.4-10.1 3-11.1 3.4c-1.4.5-2.2 1.7-1.9 2.5c.3.9 1.7 1.1 3.1.6c.8-.3 7.1-3.9 9.5-5.2c-3.1 2.4-10.2 9.4-11.1 10.3c-1.4 1.5-1.7 3.4-.8 4.3c1 .9 2.9.5 4.3-1c1.2-1.3 8.5-12.8 9.1-13.9s.4-1.4-1.1-1m10.1 16.4c0-2.2 1.4-10.3 1.8-12.3c.4-1.6 1.5-1.8 1.8.5s1.7 9.7 1.7 11.8s-1.2 3.3-2.7 3.3c-1.4 0-2.6-1.1-2.6-3.3M79.9 49c-1.2-1.8-3.3-4.9-4.1-6.1c-.7-1.2.1-2.1 1.8-.9s4 2.9 5.4 4c1.6 1.3 1.9 3 .8 4s-2.7.8-3.9-1%22%3E%3C/path%3E%3Cellipse cx=%2287.3%22 cy=%22103.12%22 fill=%22%23cb2a42%22 rx=%223.4%22 ry=%222.3%22 transform=%22rotate(-27.098 87.298 103.126)%22%3E%3C/ellipse%3E%3Cellipse cx=%2298.89%22 cy=%22103.82%22 fill=%22%23cb2a42%22 rx=%223.4%22 ry=%222.3%22 transform=%22rotate(-30.642 98.887 103.818)%22%3E%3C/ellipse%3E%3Cellipse cx=%22102.02%22 cy=%2293.8%22 fill=%22%23cb2a42%22 rx=%223.4%22 ry=%222.3%22 transform=%22rotate(-37.16 102.017 93.797)%22%3E%3C/ellipse%3E%3Cpath fill=%22%23cb2a42%22 d=%22M57.6 30.3c-8.3-3.7-24.4-10.7-29.6-13c-3.6 2.2-9.7 11.4-11.2 21.2c-.6 3.6 1.7 5.9 5.3 4.9c0 0 33.7-9.3 35.3-9.7c1.6-.5 2-2.6.2-3.4%22%3E%3C/path%3E%3C/svg%3E" preserveAspectRatio="none" clip-path="url(#satori_cp-id-0-1-0-0)" mask="url(#satori_om-id-0-1-0-0)"/><mask id="satori_om-id-0-1-0-0-0"><rect x="40" y="504" width="0" height="64" fill="#fff"/></mask><mask id="satori_om-id-0-1-0-0-1"><rect x="40" y="504" width="0" height="64" fill="#fff"/></mask><mask id="satori_om-id-0-1-0-0-2"><rect x="40" y="504" width="0" height="64" fill="#fff"/></mask><mask id="satori_om-id-0-1-0-0-3"><rect x="40" y="504" width="0" height="64" fill="#fff"/></mask><mask id="satori_om-id-0-1-0-0-4"><rect x="40" y="504" width="0" height="64" fill="#fff"/></mask><mask id="satori_om-id-0-1-0-0-5"><rect x="40" y="504" width="0" height="64" fill="#fff"/></mask><mask id="satori_om-id-0-1-0-0-6"><rect x="40" y="504" width="0" height="64" fill="#fff"/></mask><mask id="satori_om-id-0-1-0-0-7"><rect x="40" y="504" width="0" height="64" fill="#fff"/></mask><mask id="satori_om-id-0-1-0-0-8"><rect x="40" y="504" width="0" height="64" fill="#fff"/></mask><mask id="satori_om-id-0-1-0-1"><rect x="116" y="512" width="313" height="48" fill="#fff"/></mask><path fill="#545454" d="M133.0 553.6L133.0 553.6Q126.5 553.6 122.7 550.2Q118.8 546.7 118.8 541.1L118.8 541.1L118.8 522.5Q118.8 520.7 119.8 519.7Q120.7 518.8 122.4 518.8Q124.0 518.8 125.0 519.7Q125.9 520.7 125.9 522.5L125.9 522.5L125.9 540.4Q125.9 543.7 127.8 545.6Q129.6 547.6 133.0 547.6L133.0 547.6Q136.3 547.6 138.2 545.6Q140.1 543.7 140.1 540.4L140.1 540.4L140.1 522.5Q140.1 520.7 141.0 519.7Q141.9 518.8 143.6 518.8Q145.3 518.8 146.2 519.7Q147.1 520.7 147.1 522.5L147.1 522.5L147.1 541.1Q147.1 546.7 143.3 550.2Q139.4 553.6 133.0 553.6ZM158.9 552.6Q158.0 553.6 156.3 553.6Q154.6 553.6 153.7 552.6Q152.8 551.6 152.8 549.9L152.8 549.9L152.8 522.9Q152.8 521.2 153.7 520.2Q154.6 519.2 156.3 519.2L156.3 519.2L166.6 519.2Q172.4 519.2 175.6 522.1Q178.9 525.0 178.9 530.0L178.9 530.0Q178.9 533.2 177.3 535.8Q175.8 538.3 173.0 539.4L173.0 539.4L177.9 547.9Q178.7 549.2 178.7 550.3L178.7 550.3Q178.7 551.7 177.7 552.6Q176.7 553.6 175.1 553.6L175.1 553.6Q173.8 553.6 173.1 553.0Q172.4 552.5 171.5 550.9L171.5 550.9L165.9 540.7L159.9 540.7L159.9 549.9Q159.9 551.6 158.9 552.6ZM159.9 524.8L159.9 535.6L165.9 535.6Q168.6 535.6 170.1 534.1Q171.6 532.7 171.6 530.2L171.6 530.2Q171.6 527.7 170.0 526.2Q168.5 524.8 165.9 524.8L165.9 524.8L159.9 524.8ZM196.2 542.3L186.4 542.3Q185.0 542.3 184.1 541.5Q183.2 540.7 183.2 539.3Q183.2 537.9 184.1 537.1Q185.0 536.3 186.4 536.3L186.4 536.3L196.2 536.3Q197.6 536.3 198.5 537.1Q199.4 537.9 199.4 539.3Q199.4 540.7 198.5 541.5Q197.6 542.3 196.2 542.3L196.2 542.3ZM210.9 552.6Q209.9 553.6 208.3 553.6Q206.6 553.6 205.6 552.6Q204.7 551.6 204.7 549.9L204.7 549.9L204.7 522.9Q204.7 521.2 205.6 520.2Q206.6 519.2 208.3 519.2L208.3 519.2L218.6 519.2Q224.4 519.2 227.6 522.1Q230.8 525.0 230.8 530.0L230.8 530.0Q230.8 533.2 229.3 535.8Q227.8 538.3 225.0 539.4L225.0 539.4L229.9 547.9Q230.6 549.2 230.6 550.3L230.6 550.3Q230.6 551.7 229.6 552.6Q228.6 553.6 227.0 553.6L227.0 553.6Q225.8 553.6 225.0 553.0Q224.3 552.5 223.4 550.9L223.4 550.9L217.8 540.7L211.8 540.7L211.8 549.9Q211.8 551.6 210.9 552.6ZM211.8 524.8L211.8 535.6L217.9 535.6Q220.6 535.6 222.0 534.1Q223.5 532.7 223.5 530.2L223.5 530.2Q223.5 527.7 222.0 526.2Q220.4 524.8 217.8 524.8L217.8 524.8L211.8 524.8ZM237.7 553.5L237.7 553.5Q236.0 553.5 235.1 552.6Q234.1 551.7 234.1 550.2L234.1 550.2Q234.1 549.3 234.6 547.9L234.6 547.9L243.8 522.8Q244.6 520.7 245.8 519.7Q247.1 518.8 249.1 518.8L249.1 518.8Q251.2 518.8 252.5 519.7Q253.8 520.7 254.5 522.8L254.5 522.8L263.8 547.9Q264.3 549.2 264.3 550.2L264.3 550.2Q264.3 551.6 263.3 552.6Q262.3 553.5 260.7 553.5L260.7 553.5Q259.2 553.5 258.4 552.8Q257.5 552.1 257.0 550.4L257.0 550.4L255.3 545.0L243.1 545.0L241.3 550.3Q240.8 552.0 239.9 552.8Q239.1 553.5 237.7 553.5ZM249.0 525.7L244.6 539.6L253.6 539.6L249.1 525.7L249.0 525.7ZM281.5 553.1L272.1 553.1Q270.4 553.1 269.5 552.1Q268.6 551.1 268.6 549.4L268.6 549.4L268.6 522.9Q268.6 521.2 269.5 520.2Q270.4 519.2 272.1 519.2L272.1 519.2L281.5 519.2Q289.1 519.2 293.4 523.6Q297.6 528.0 297.6 536.0L297.6 536.0Q297.6 544.1 293.3 548.6Q289.1 553.1 281.5 553.1L281.5 553.1ZM275.6 525.1L275.6 547.2L280.6 547.2Q285.4 547.2 287.9 544.4Q290.4 541.5 290.4 536.0L290.4 536.0Q290.4 530.8 287.8 527.9Q285.3 525.1 280.6 525.1L280.6 525.1L275.6 525.1Z M333.2 553.1L314.5 553.1Q312.9 553.1 312.0 552.2Q311.2 551.4 311.2 550.0L311.2 550.0Q311.2 549.1 311.6 548.3Q312.0 547.5 313.1 546.5L313.1 546.5L323.2 536.9Q326.3 533.8 327.4 532.2Q328.4 530.6 328.4 528.8L328.4 528.8Q328.4 526.7 327.0 525.3Q325.5 524 323.3 524L323.3 524Q319.3 524 317.4 528.1L317.4 528.1Q316.8 529.2 316.1 529.7Q315.4 530.1 314.3 530.1L314.3 530.1Q312.9 530.1 312.1 529.4Q311.3 528.6 311.3 527.3L311.3 527.3Q311.3 526.5 311.5 525.7L311.5 525.7Q312.5 522.7 315.6 520.6Q318.8 518.5 323.3 518.5L323.3 518.5Q328.7 518.5 332.0 521.2Q335.3 524.0 335.3 528.3L335.3 528.3Q335.3 529.9 335.0 531.2Q334.6 532.5 333.6 533.9Q332.6 535.3 331.3 536.8Q330.0 538.2 327.8 540.3L327.8 540.3L320.5 547.3L320.5 547.4L333.2 547.4Q334.6 547.4 335.4 548.2Q336.1 549.0 336.1 550.3L336.1 550.3Q336.1 551.5 335.4 552.3Q334.6 553.1 333.2 553.1L333.2 553.1ZM363.6 549.0Q359.9 553.8 353.5 553.8Q347.1 553.8 343.4 549.1Q339.7 544.3 339.7 536.1L339.7 536.1Q339.7 527.9 343.4 523.2Q347.1 518.5 353.5 518.5Q359.9 518.5 363.6 523.2Q367.3 527.9 367.3 536.1L367.3 536.1Q367.3 544.3 363.6 549.0ZM348.6 545.0Q350.4 548.1 353.5 548.1Q356.7 548.1 358.4 545.0Q360.1 541.9 360.1 536.1L360.1 536.1Q360.1 530.4 358.4 527.2Q356.7 524.1 353.5 524.1L353.5 524.1Q350.4 524.1 348.7 527.3Q346.9 530.4 346.9 536.1L346.9 536.1Q346.9 541.9 348.6 545.0ZM393.6 553.1L374.9 553.1Q373.3 553.1 372.4 552.2Q371.6 551.4 371.6 550.0L371.6 550.0Q371.6 549.1 372.0 548.3Q372.5 547.5 373.5 546.5L373.5 546.5L383.6 536.9Q386.8 533.8 387.8 532.2Q388.9 530.6 388.9 528.8L388.9 528.8Q388.9 526.7 387.4 525.3Q386.0 524 383.7 524L383.7 524Q379.7 524 377.9 528.1L377.9 528.1Q377.3 529.2 376.5 529.7Q375.8 530.1 374.7 530.1L374.7 530.1Q373.3 530.1 372.5 529.4Q371.7 528.6 371.7 527.3L371.7 527.3Q371.7 526.5 372.0 525.7L372.0 525.7Q372.9 522.7 376.0 520.6Q379.2 518.5 383.8 518.5L383.8 518.5Q389.1 518.5 392.4 521.2Q395.8 524.0 395.8 528.3L395.8 528.3Q395.8 529.9 395.4 531.2Q395 532.5 394.0 533.9Q393.1 535.3 391.7 536.8Q390.4 538.2 388.2 540.3L388.2 540.3L380.9 547.3L380.9 547.4L393.6 547.4Q395 547.4 395.8 548.2Q396.6 549.0 396.6 550.3L396.6 550.3Q396.6 551.5 395.8 552.3Q395 553.1 393.6 553.1L393.6 553.1ZM413.6 553.8L413.6 553.8Q409.6 553.8 406.3 552.1Q403.1 550.4 401.8 547.7L401.8 547.7Q401.3 546.5 401.3 545.4L401.3 545.4Q401.3 544.0 402.0 543.3Q402.8 542.5 404.2 542.5L404.2 542.5Q405.3 542.5 406.0 542.9Q406.7 543.3 407.3 544.3L407.3 544.3Q409.3 548.2 413.6 548.2L413.6 548.2Q416.3 548.2 418.1 546.4Q419.9 544.6 419.9 541.9L419.9 541.9Q419.9 539.2 418.1 537.5Q416.4 535.8 413.6 535.8L413.6 535.8Q410.8 535.8 408.7 537.8L408.7 537.8Q407.6 538.8 406.9 539.1Q406.2 539.4 405.0 539.4L405.0 539.4Q403.4 539.4 402.5 538.4Q401.6 537.4 401.7 535.9L401.7 535.9Q401.7 535.8 401.7 535.6L401.7 535.6L402.7 523.3Q402.9 521.1 404.0 520.2Q405.1 519.2 407.2 519.2L407.2 519.2L422 519.2Q423.3 519.2 424.1 520.0Q424.9 520.8 424.9 522.1Q424.9 523.3 424.1 524.1Q423.3 524.9 422 524.9L422 524.9L408.6 524.9L407.8 534.3L408.0 534.3Q409.0 532.6 411.0 531.7Q413.0 530.7 415.6 530.7L415.6 530.7Q420.4 530.7 423.5 533.8Q426.6 536.9 426.6 541.7L426.6 541.7Q426.6 547.1 423.0 550.5Q419.4 553.8 413.6 553.8Z "/><mask id="satori_om-id-0-1-1"><rect x="1013" y="524" width="147" height="36" fill="#fff"/></mask><path fill="#8e8e8e" d="M1016.9 552.6Q1016.5 552.9 1016.0 552.9Q1015.4 552.9 1015.1 552.6Q1014.8 552.2 1014.8 551.7L1014.8 551.7L1014.8 532.6Q1014.8 532.0 1015.1 531.6Q1015.5 531.3 1016.1 531.3Q1016.6 531.3 1017.0 531.6Q1017.3 532.0 1017.3 532.6L1017.3 532.6L1017.3 540.0L1017.4 540.0Q1018.1 538.7 1019.4 537.9Q1020.7 537.2 1022.3 537.2L1022.3 537.2Q1025.2 537.2 1026.9 539.3Q1028.7 541.5 1028.7 545.0L1028.7 545.0Q1028.7 548.6 1026.9 550.8Q1025.2 552.9 1022.2 552.9L1022.2 552.9Q1020.6 552.9 1019.3 552.2Q1018.0 551.4 1017.3 550.1L1017.3 550.1L1017.2 550.1L1017.2 551.7Q1017.2 552.2 1016.9 552.6ZM1021.7 550.7L1021.7 550.7Q1023.8 550.7 1024.9 549.2Q1026.1 547.7 1026.1 545.0L1026.1 545.0Q1026.1 542.5 1024.9 540.9Q1023.8 539.4 1021.7 539.4L1021.7 539.4Q1019.8 539.4 1018.6 541.0Q1017.3 542.5 1017.3 545.0L1017.3 545.0Q1017.3 547.6 1018.6 549.1Q1019.8 550.7 1021.7 550.7ZM1032.8 558.4L1032.8 558.4Q1031.9 558.4 1031.4 558.0Q1030.9 557.7 1030.9 557.1L1030.9 557.1Q1030.9 556.7 1031.1 556.4Q1031.4 556.2 1031.9 556.2L1031.9 556.2Q1032.1 556.2 1032.3 556.2Q1032.5 556.2 1032.7 556.2L1032.7 556.2Q1034.4 556.2 1035.2 553.7L1035.2 553.7L1035.6 552.7L1030.3 539.0Q1030.2 538.6 1030.2 538.3L1030.2 538.3Q1030.2 537.8 1030.6 537.5Q1030.9 537.2 1031.5 537.2L1031.5 537.2Q1032.4 537.2 1032.7 538.1L1032.7 538.1L1036.9 550.1L1037.0 550.1L1041.2 538.1Q1041.3 537.6 1041.6 537.4Q1041.9 537.2 1042.4 537.2L1042.4 537.2Q1042.9 537.2 1043.3 537.5Q1043.6 537.8 1043.6 538.3L1043.6 538.3Q1043.6 538.6 1043.5 539.0L1043.5 539.0L1037.9 553.7Q1036.9 556.4 1035.8 557.4Q1034.7 558.4 1032.8 558.4Z M1066.9 550.9Q1064.7 553.0 1060.8 553.0Q1056.9 553.0 1054.7 550.9Q1052.4 548.7 1052.4 545.3L1052.4 545.3L1052.4 532.7Q1052.4 532.1 1052.8 531.7Q1053.1 531.3 1053.7 531.3Q1054.3 531.3 1054.7 531.7Q1055.0 532.1 1055.0 532.7L1055.0 532.7L1055.0 545.1Q1055.0 547.5 1056.6 549.1Q1058.1 550.6 1060.8 550.6Q1063.5 550.6 1065.0 549.1Q1066.6 547.5 1066.6 545.1L1066.6 545.1L1066.6 532.7Q1066.6 532.1 1066.9 531.7Q1067.3 531.3 1067.9 531.3Q1068.5 531.3 1068.8 531.7Q1069.2 532.1 1069.2 532.7L1069.2 532.7L1069.2 545.3Q1069.2 548.7 1066.9 550.9ZM1075.6 552.6Q1075.2 552.9 1074.6 552.9Q1074.0 552.9 1073.7 552.6Q1073.3 552.2 1073.3 551.6L1073.3 551.6L1073.3 532.9Q1073.3 532.3 1073.7 531.9Q1074.0 531.5 1074.6 531.5L1074.6 531.5L1081.2 531.5Q1084.3 531.5 1086.1 533.2Q1088.0 535.0 1088.0 537.8L1088.0 537.8Q1088.0 540.0 1086.8 541.6Q1085.7 543.3 1083.7 543.9L1083.7 543.9L1087.6 550.8Q1087.9 551.3 1087.9 551.7L1087.9 551.7Q1087.9 552.2 1087.5 552.6Q1087.1 552.9 1086.5 552.9L1086.5 552.9Q1086.1 552.9 1085.8 552.7Q1085.5 552.5 1085.2 552.1L1085.2 552.1L1081.0 544.3L1075.9 544.3L1075.9 551.6Q1075.9 552.2 1075.6 552.6ZM1075.9 533.9L1075.9 542.0L1081.0 542.0Q1083.0 542.0 1084.1 540.9Q1085.2 539.9 1085.2 537.9L1085.2 537.9Q1085.2 536.0 1084.1 534.9Q1082.9 533.9 1080.9 533.9L1080.9 533.9L1075.9 533.9ZM1099.4 545.3L1091.9 545.3Q1091.3 545.3 1091.0 545.0Q1090.6 544.6 1090.6 544.1Q1090.6 543.6 1091.0 543.2Q1091.3 542.9 1091.9 542.9L1091.9 542.9L1099.4 542.9Q1100.0 542.9 1100.3 543.2Q1100.7 543.6 1100.7 544.1Q1100.7 544.6 1100.3 545.0Q1100.0 545.3 1099.4 545.3L1099.4 545.3ZM1106.4 552.6Q1106.0 552.9 1105.4 552.9Q1104.8 552.9 1104.5 552.6Q1104.1 552.2 1104.1 551.6L1104.1 551.6L1104.1 532.9Q1104.1 532.3 1104.5 531.9Q1104.8 531.5 1105.4 531.5L1105.4 531.5L1112.1 531.5Q1115.1 531.5 1117.0 533.2Q1118.8 535.0 1118.8 537.8L1118.8 537.8Q1118.8 540.0 1117.7 541.6Q1116.5 543.3 1114.5 543.9L1114.5 543.9L1118.4 550.8Q1118.7 551.3 1118.7 551.7L1118.7 551.7Q1118.7 552.2 1118.3 552.6Q1117.9 552.9 1117.3 552.9L1117.3 552.9Q1116.9 552.9 1116.6 552.7Q1116.3 552.5 1116.1 552.1L1116.1 552.1L1111.8 544.3L1106.8 544.3L1106.8 551.6Q1106.8 552.2 1106.4 552.6ZM1106.8 533.9L1106.8 542.0L1111.8 542.0Q1113.9 542.0 1115.0 540.9Q1116.1 539.9 1116.1 537.9L1116.1 537.9Q1116.1 536.0 1114.9 534.9Q1113.8 533.9 1111.7 533.9L1111.7 533.9L1106.8 533.9ZM1122.2 552.9L1122.2 552.9Q1121.6 552.9 1121.2 552.5Q1120.9 552.2 1120.9 551.7L1120.9 551.7Q1120.9 551.4 1121.0 551.0L1121.0 551.0L1127.8 532.6Q1128.3 531.3 1129.5 531.3L1129.5 531.3Q1130.7 531.3 1131.2 532.6L1131.2 532.6L1138.0 551.0Q1138.2 551.4 1138.2 551.7L1138.2 551.7Q1138.2 552.2 1137.8 552.5Q1137.4 552.9 1136.9 552.9L1136.9 552.9Q1135.9 552.9 1135.6 551.9L1135.6 551.9L1133.7 546.6L1125.3 546.6L1123.5 551.9Q1123.1 552.9 1122.2 552.9ZM1129.5 534.7L1126.1 544.4L1132.9 544.4L1129.6 534.7L1129.5 534.7ZM1148.1 552.7L1142.3 552.7Q1141.7 552.7 1141.4 552.3Q1141.0 551.9 1141.0 551.3L1141.0 551.3L1141.0 532.9Q1141.0 532.3 1141.4 531.9Q1141.7 531.5 1142.3 531.5L1142.3 531.5L1148.1 531.5Q1152.8 531.5 1155.5 534.3Q1158.1 537.1 1158.1 542.1L1158.1 542.1Q1158.1 547.1 1155.5 549.9Q1152.8 552.7 1148.1 552.7L1148.1 552.7ZM1143.7 533.9L1143.7 550.3L1148.0 550.3Q1151.5 550.3 1153.5 548.2Q1155.4 546.1 1155.4 542.1L1155.4 542.1Q1155.4 538.1 1153.5 536.0Q1151.6 533.9 1148.0 533.9L1148.0 533.9L1143.7 533.9Z "/></svg>