<svg width="1200" height="630" viewBox="0 0 1200 630" xmlns="http://www.w3.org/2000/svg"><mask id="satori_om-id"><rect x="0" y="0" width="1200" height="630" fill="#fff"/></mask><mask id="satori_om-id-0"><rect x="0" y="0" width="1200" height="630" fill="#fff"/></mask><rect x="0" y="0" width="1200" height="630" fill="#f2f2f2"/><mask id="satori_om-id-0-0"><rect x="0" y="0" width="1200" height="441" fill="#fff"/></mask><mask id="satori_om-id-0-0-0"><rect x="40" y="56" width="1120" height="35" fill="#fff"/></mask><path fill="#8e8e8e" d="M50.0 84.4Q49.6 84.9 48.8 84.9Q48.1 84.9 47.6 84.4Q47.2 84.0 47.2 83.2L47.2 83.2L47.2 66.4L42.0 66.4Q41.3 66.4 40.9 66.0Q40.5 65.6 40.5 64.9Q40.5 64.3 40.9 63.9Q41.3 63.5 42.0 63.5L42.0 63.5L55.6 63.5Q56.3 63.5 56.8 63.9Q57.2 64.3 57.2 64.9Q57.2 65.6 56.8 66.0Q56.3 66.4 55.6 66.4L55.6 66.4L50.5 66.4L50.5 83.2Q50.5 84.0 50.0 84.4ZM62.1 84.5Q61.6 84.9 60.9 84.9Q60.2 84.9 59.8 84.5Q59.3 84.0 59.3 83.3L59.3 83.3L59.3 64.9Q59.3 64.1 59.8 63.7Q60.2 63.2 60.9 63.2L60.9 63.2Q61.6 63.2 62.1 63.7Q62.5 64.1 62.5 64.9L62.5 64.9L62.5 71.8L62.5 71.8Q63.2 70.5 64.4 69.7Q65.7 69.0 67.4 69.0L67.4 69.0Q69.9 69.0 71.4 70.5Q72.8 72.1 72.8 74.7L72.8 74.7L72.8 83.3Q72.8 84.0 72.4 84.5Q71.9 84.9 71.2 84.9L71.2 84.9Q70.5 84.9 70.1 84.5Q69.6 84.0 69.6 83.3L69.6 83.3L69.6 75.3Q69.6 73.6 68.8 72.7Q67.9 71.7 66.3 71.7L66.3 71.7Q64.5 71.7 63.5 72.8Q62.5 73.9 62.5 75.8L62.5 75.8L62.5 83.3Q62.5 84.0 62.1 84.5ZM81.2 84.9L81.2 84.9Q78.7 84.9 77.2 83.4Q75.8 81.9 75.8 79.2L75.8 79.2L75.8 70.7Q75.8 69.9 76.2 69.4Q76.7 69.0 77.4 69.0L77.4 69.0Q78.1 69.0 78.5 69.4Q79.0 69.9 79.0 70.7L79.0 70.7L79.0 78.6Q79.0 80.4 79.8 81.3Q80.6 82.2 82.3 82.2L82.3 82.2Q84.0 82.2 84.9 81.1Q85.9 80.0 85.9 78.2L85.9 78.2L85.9 70.7Q85.9 69.9 86.4 69.4Q86.8 69.0 87.5 69.0L87.5 69.0Q88.2 69.0 88.7 69.4Q89.1 69.9 89.1 70.7L89.1 70.7L89.1 83.3Q89.1 84.1 88.7 84.5Q88.3 84.9 87.6 84.9Q86.9 84.9 86.5 84.5Q86.1 84.1 86.1 83.3L86.1 83.3L86.1 82.1L86.0 82.1Q84.6 84.9 81.2 84.9ZM93.8 84.9L93.8 84.9Q93.1 84.9 92.6 84.5Q92.2 84.0 92.2 83.3L92.2 83.3L92.2 70.6Q92.2 69.9 92.6 69.4Q93.0 69.0 93.7 69.0L93.7 69.0Q94.4 69.0 94.8 69.4Q95.2 69.9 95.2 70.6L95.2 70.6L95.2 71.9L95.3 71.9Q95.6 70.6 96.6 69.8Q97.5 69.0 98.7 69.0L98.7 69.0Q99.5 69.0 99.9 69.4L99.9 69.4Q100.3 69.7 100.3 70.5L100.3 70.5Q100.3 71.2 99.9 71.6L99.9 71.6Q99.4 72.0 98.4 72.0L98.4 72.0Q96.9 72.0 96.1 73.0Q95.4 73.9 95.4 75.4L95.4 75.4L95.4 83.3Q95.4 84.0 94.9 84.5Q94.5 84.9 93.8 84.9ZM107.7 85.0L107.7 85.0Q105.5 85.0 103.9 84.1Q102.3 83.3 101.7 81.8L101.7 81.8Q101.6 81.5 101.6 81.2L101.6 81.2Q101.6 80.6 102.0 80.2Q102.4 79.9 103.0 79.9L103.0 79.9Q103.8 79.9 104.4 80.7L104.4 80.7Q105.0 81.7 105.8 82.1Q106.5 82.5 107.9 82.5L107.9 82.5Q109.3 82.5 110.1 82.0Q110.9 81.4 110.9 80.5L110.9 80.5Q110.9 79.7 110.4 79.3Q109.9 78.8 108.7 78.5L108.7 78.5L106.2 78.0Q101.8 76.9 101.8 73.6L101.8 73.6Q101.8 71.5 103.4 70.2Q105.1 69.0 107.9 69.0L107.9 69.0Q109.9 69.0 111.5 69.9Q113.0 70.8 113.4 72.2L113.4 72.2Q113.4 72.6 113.4 72.7L113.4 72.7Q113.4 73.2 113.1 73.5Q112.8 73.9 112.2 73.9L112.2 73.9Q111.3 73.9 110.9 73.2L110.9 73.2Q110.4 72.3 109.6 71.8Q108.9 71.4 107.7 71.4L107.7 71.4Q106.5 71.4 105.7 72.0Q104.9 72.5 104.9 73.4L104.9 73.4Q104.9 74.9 107.2 75.5L107.2 75.5L109.6 76.0Q112.1 76.6 113.1 77.5Q114.1 78.5 114.1 80.2L114.1 80.2Q114.1 82.3 112.3 83.6Q110.6 85.0 107.7 85.0ZM122.3 84.9L122.3 84.9Q119.4 84.9 117.6 82.8Q115.9 80.6 115.9 77.0Q115.9 73.3 117.6 71.2Q119.4 69.0 122.3 69.0L122.3 69.0Q123.9 69.0 125.2 69.8Q126.5 70.5 127.1 71.8L127.1 71.8L127.2 71.8L127.2 64.9Q127.2 64.1 127.6 63.7Q128.1 63.2 128.8 63.2L128.8 63.2Q129.5 63.2 129.9 63.7Q130.4 64.2 130.4 64.9L130.4 64.9L130.4 83.4Q130.4 84.1 129.9 84.5Q129.5 84.9 128.8 84.9L128.8 84.9Q128.1 84.9 127.7 84.5Q127.2 84.1 127.2 83.4L127.2 83.4L127.2 81.9L127.2 81.9Q126.5 83.3 125.3 84.1Q124.1 84.9 122.3 84.9ZM123.2 82.2L123.2 82.2Q125.0 82.2 126.1 80.8Q127.2 79.4 127.2 77.0L127.2 77.0Q127.2 74.6 126.1 73.1Q125.0 71.7 123.2 71.7L123.2 71.7Q121.3 71.7 120.2 73.1Q119.1 74.5 119.1 77.0L119.1 77.0Q119.1 79.4 120.2 80.8Q121.3 82.2 123.2 82.2ZM138.1 84.9L138.1 84.9Q135.9 84.9 134.4 83.6Q133.0 82.3 133.0 80.3L133.0 80.3Q133.0 78.3 134.5 77.1Q136.0 75.9 138.7 75.7L138.7 75.7L142.9 75.5L142.9 74.3Q142.9 73.0 142.1 72.3Q141.3 71.6 139.9 71.6L139.9 71.6Q138.7 71.6 137.9 72.0Q137.1 72.5 136.4 73.5L136.4 73.5Q136.0 74.2 135.2 74.2L135.2 74.2Q134.6 74.2 134.2 73.8Q133.8 73.4 133.8 72.9L133.8 72.9Q133.8 72.3 134.1 71.8L134.1 71.8Q134.7 70.5 136.3 69.8Q137.9 69.0 140.0 69.0L140.0 69.0Q142.8 69.0 144.4 70.4Q146.1 71.7 146.1 74.0L146.1 74.0L146.1 83.3Q146.1 84.1 145.7 84.5Q145.2 84.9 144.6 84.9L144.6 84.9Q143.9 84.9 143.5 84.5Q143.1 84.1 143.1 83.4L143.1 83.4L143.1 82.1L143.0 82.1Q142.3 83.4 141.0 84.2Q139.7 84.9 138.1 84.9ZM139.0 82.4L139.0 82.4Q140.7 82.4 141.8 81.4Q142.9 80.4 142.9 78.9L142.9 78.9L142.9 77.7L139.1 77.9Q137.7 78.0 137.0 78.6Q136.2 79.2 136.2 80.2L136.2 80.2Q136.2 81.2 137.0 81.8Q137.7 82.4 139.0 82.4ZM151.1 90.4L151.1 90.4Q150.0 90.4 149.4 90.0Q148.8 89.6 148.8 88.9L148.8 88.9Q148.8 88.4 149.1 88.1Q149.5 87.8 150.0 87.8L150.0 87.8Q150.2 87.8 150.4 87.8Q150.7 87.8 150.8 87.8L150.8 87.8Q152.4 87.8 153.2 85.7L153.2 85.7L153.5 84.8L148.3 71.3Q148.1 70.9 148.1 70.4L148.1 70.4Q148.1 69.8 148.6 69.4Q149.1 69.0 149.8 69.0L149.8 69.0Q150.4 69.0 150.7 69.3Q151.1 69.5 151.3 70.2L151.3 70.2L155.2 81.8L155.3 81.8L159.2 70.2Q159.4 69.5 159.7 69.3Q160.1 69.0 160.7 69.0L160.7 69.0Q161.4 69.0 161.8 69.4Q162.2 69.8 162.2 70.4L162.2 70.4Q162.2 70.8 162.1 71.3L162.1 71.3L156.7 85.4Q155.7 88.2 154.5 89.3Q153.2 90.4 151.1 90.4ZM166.7 81.1L166.7 81.1Q167.4 81.1 167.8 81.5Q168.2 81.8 168.2 82.4L168.2 82.4Q168.2 82.8 168.1 83.3L168.1 83.3L166.8 88.3Q166.5 89.4 165.4 89.4L165.4 89.4Q164.9 89.4 164.5 89.1Q164.2 88.7 164.2 88.2L164.2 88.2Q164.2 88.1 164.3 87.8L164.3 87.8L165.2 82.4Q165.4 81.1 166.7 81.1Z M191.6 84.7L179.9 84.7Q179.1 84.7 178.7 84.3Q178.3 83.9 178.3 83.3L178.3 83.3Q178.3 82.8 178.5 82.5Q178.7 82.1 179.2 81.6L179.2 81.6L185.8 74.9Q187.9 72.8 188.6 71.7Q189.3 70.6 189.3 69.3L189.3 69.3Q189.3 67.8 188.2 66.8Q187.2 65.8 185.6 65.8L185.6 65.8Q182.5 65.8 181.3 69.0L181.3 69.0Q181.1 69.5 180.8 69.8Q180.4 70.0 179.9 70.0L179.9 70.0Q179.2 70.0 178.8 69.6Q178.4 69.3 178.4 68.6L178.4 68.6Q178.4 68.3 178.5 68.0L178.5 68.0Q178.7 67.1 179.2 66.3Q179.8 65.4 180.6 64.7Q181.5 64.0 182.8 63.6Q184.1 63.1 185.6 63.1L185.6 63.1Q188.6 63.1 190.6 64.8Q192.5 66.5 192.5 69.1L192.5 69.1Q192.5 70.9 191.5 72.5Q190.5 74.0 187.8 76.8L187.8 76.8L182.8 81.8L182.8 81.9L191.6 81.9Q192.2 81.9 192.6 82.3Q193.0 82.7 193.0 83.3L193.0 83.3Q193.0 83.9 192.6 84.3Q192.2 84.7 191.6 84.7L191.6 84.7ZM203.7 85.1L203.7 85.1Q201.3 85.1 199.4 83.9Q197.6 82.6 196.5 80.3L196.5 80.3Q195.4 77.9 195.4 74.4L195.4 74.4Q195.4 69.1 197.6 66.1Q199.9 63.1 203.8 63.1L203.8 63.1Q206.0 63.1 207.8 64.0Q209.5 64.9 210.4 66.5L210.4 66.5Q210.7 67.1 210.7 67.7L210.7 67.7Q210.7 68.3 210.3 68.7Q209.9 69.1 209.3 69.1L209.3 69.1Q208.8 69.1 208.4 68.8Q208.1 68.6 207.7 68.0L207.7 68.0Q206.2 65.9 203.8 65.9L203.8 65.9Q201.3 65.9 200.0 68.0Q198.6 70.1 198.6 74.0L198.6 74.0L198.6 74.2L198.6 74.2Q199.3 72.7 200.8 71.7Q202.4 70.8 204.5 70.8L204.5 70.8Q207.5 70.8 209.5 72.8Q211.4 74.7 211.4 77.8L211.4 77.8Q211.4 80.9 209.2 83.0Q207.1 85.1 203.7 85.1ZM203.7 82.3L203.7 82.3Q205.6 82.3 206.9 81.0Q208.2 79.7 208.2 77.9L208.2 77.9Q208.2 75.9 206.9 74.7Q205.7 73.5 203.7 73.5Q201.8 73.5 200.5 74.7Q199.2 75.9 199.2 77.8L199.2 77.8Q199.2 79.7 200.5 81.0Q201.8 82.3 203.7 82.3Z M237.0 82.1Q234.3 85.0 229.7 85.0Q225.2 85.0 222.5 82.1Q219.8 79.1 219.8 74.1Q219.8 69.1 222.5 66.1Q225.2 63.2 229.7 63.2L229.7 63.2Q234.3 63.2 237.0 66.1Q239.6 69.1 239.6 74.1Q239.6 79.1 237.0 82.1ZM229.7 82.1L229.7 82.1Q232.7 82.1 234.5 80.0Q236.3 77.8 236.3 74.1L236.3 74.1Q236.3 70.4 234.5 68.2Q232.7 66.1 229.7 66.1L229.7 66.1Q226.7 66.1 224.9 68.2Q223.2 70.4 223.2 74.1L223.2 74.1Q223.2 77.8 224.9 80.0Q226.7 82.1 229.7 82.1ZM249.0 85.0L249.0 85.0Q245.6 85.0 243.7 82.8Q241.7 80.7 241.7 77.0L241.7 77.0Q241.7 73.3 243.7 71.2Q245.6 69.0 248.9 69.0L248.9 69.0Q251.1 69.0 252.9 70.0Q254.6 71.1 255.1 72.7L255.1 72.7Q255.3 73.1 255.3 73.4L255.3 73.4Q255.3 74.0 254.9 74.4Q254.5 74.7 253.9 74.7L253.9 74.7Q253.4 74.7 253.1 74.5Q252.8 74.3 252.5 73.8L252.5 73.8Q251.9 72.7 251.0 72.1Q250.2 71.6 249.0 71.6L249.0 71.6Q247.1 71.6 246.0 73.1Q244.9 74.5 244.9 77.0L244.9 77.0Q244.9 79.4 246.0 80.9Q247.1 82.3 249.0 82.3L249.0 82.3Q251.3 82.3 252.5 80.2L252.5 80.2Q252.8 79.6 253.1 79.4Q253.4 79.2 254.0 79.2L254.0 79.2Q254.5 79.2 254.9 79.6Q255.3 79.9 255.3 80.5L255.3 80.5Q255.3 80.9 255.1 81.3L255.1 81.3Q254.5 82.9 252.8 83.9Q251.1 85.0 249.0 85.0ZM258.8 81.0L258.8 81.0L258.8 71.8L257.7 71.8Q257.1 71.8 256.7 71.4Q256.4 71.1 256.4 70.5Q256.4 69.9 256.7 69.6Q257.1 69.3 257.7 69.3L257.7 69.3L258.8 69.3L258.8 67.0Q258.8 66.2 259.2 65.7Q259.7 65.3 260.4 65.3Q261.1 65.3 261.5 65.7Q262.0 66.2 262.0 67.0L262.0 67.0L262.0 69.3L263.8 69.3Q264.4 69.3 264.7 69.6Q265.1 69.9 265.1 70.5Q265.1 71.1 264.7 71.4Q264.4 71.8 263.8 71.8L263.8 71.8L262.0 71.8L262.0 80.3Q262.0 81.2 262.3 81.6Q262.7 82.1 263.5 82.1L263.5 82.1L263.8 82.2Q265.1 82.3 265.1 83.4L265.1 83.4Q265.1 84.8 262.9 84.8L262.9 84.8L262.7 84.8Q258.8 84.8 258.8 81.0ZM279.4 82.8Q277.4 85.0 274.1 85.0Q270.8 85.0 268.8 82.8Q266.8 80.7 266.8 77.0L266.8 77.0Q266.8 73.3 268.8 71.1Q270.8 69.0 274.1 69.0Q277.4 69.0 279.4 71.1Q281.4 73.3 281.4 77.0L281.4 77.0Q281.4 80.7 279.4 82.8ZM274.1 82.3L274.1 82.3Q276.0 82.3 277.1 80.9Q278.2 79.5 278.2 77.0L278.2 77.0Q278.2 74.4 277.1 73.0Q276.0 71.6 274.1 71.6Q272.2 71.6 271.1 73.0Q270.0 74.4 270.0 77.0L270.0 77.0Q270.0 79.5 271.1 80.9Q272.2 82.3 274.1 82.3ZM285.5 84.9L285.5 84.9Q284.8 84.9 284.4 84.5Q284.0 84.1 284.0 83.4L284.0 83.4L284.0 64.9Q284.0 64.2 284.4 63.7Q284.9 63.2 285.6 63.2Q286.3 63.2 286.7 63.7Q287.1 64.2 287.1 64.9L287.1 64.9L287.1 71.9L287.2 71.9Q287.9 70.5 289.2 69.8Q290.5 69.0 292.1 69.0L292.1 69.0Q295.0 69.0 296.8 71.2Q298.5 73.3 298.5 77.0L298.5 77.0Q298.5 80.6 296.8 82.8Q295.0 84.9 292.1 84.9L292.1 84.9Q290.4 84.9 289.1 84.2Q287.8 83.4 287.1 82.0L287.1 82.0L287.1 82.0L287.1 83.4Q287.1 84.1 286.6 84.5Q286.2 84.9 285.5 84.9ZM291.2 82.2L291.2 82.2Q293.1 82.2 294.2 80.8Q295.3 79.4 295.3 77.0L295.3 77.0Q295.3 74.5 294.2 73.1Q293.1 71.7 291.2 71.7L291.2 71.7Q289.4 71.7 288.3 73.1Q287.1 74.6 287.1 77.0L287.1 77.0Q287.1 79.3 288.3 80.8Q289.4 82.2 291.2 82.2ZM307.6 85.0L307.6 85.0Q304.2 85.0 302.2 82.9Q300.3 80.8 300.3 77.0L300.3 77.0Q300.3 73.4 302.2 71.2Q304.2 69.0 307.4 69.0L307.4 69.0Q310.5 69.0 312.4 71.0Q314.4 73.0 314.4 76.1L314.4 76.1Q314.4 76.9 313.9 77.3Q313.5 77.8 312.8 77.8L312.8 77.8L303.5 77.8L303.5 77.8Q303.5 79.9 304.6 81.2Q305.7 82.4 307.6 82.4L307.6 82.4Q308.9 82.4 309.8 81.9Q310.7 81.4 311.6 80.2L311.6 80.2Q312.0 79.6 312.7 79.6L312.7 79.6Q313.3 79.6 313.6 80.0Q314.0 80.3 314.0 80.9L314.0 80.9Q314.0 81.3 313.8 81.8L313.8 81.8Q313.0 83.3 311.4 84.1Q309.8 85.0 307.6 85.0ZM303.5 75.5L303.5 75.5L311.2 75.5Q311.1 73.7 310.1 72.6Q309.1 71.5 307.4 71.5L307.4 71.5Q305.8 71.5 304.7 72.6Q303.6 73.7 303.5 75.5ZM318.4 84.9L318.4 84.9Q317.7 84.9 317.2 84.5Q316.8 84.0 316.8 83.3L316.8 83.3L316.8 70.6Q316.8 69.9 317.2 69.4Q317.6 69.0 318.3 69.0L318.3 69.0Q319.0 69.0 319.4 69.4Q319.8 69.9 319.8 70.6L319.8 70.6L319.8 71.9L319.9 71.9Q320.2 70.6 321.1 69.8Q322.1 69.0 323.3 69.0L323.3 69.0Q324.1 69.0 324.5 69.4L324.5 69.4Q324.9 69.7 324.9 70.5L324.9 70.5Q324.9 71.2 324.5 71.6L324.5 71.6Q324.0 72.0 323.0 72.0L323.0 72.0Q321.5 72.0 320.7 73.0Q320.0 73.9 320.0 75.4L320.0 75.4L320.0 83.3Q320.0 84.0 319.5 84.5Q319.1 84.9 318.4 84.9Z M346.0 84.7L334.3 84.7Q333.6 84.7 333.1 84.3Q332.7 83.9 332.7 83.3L332.7 83.3Q332.7 82.8 332.9 82.5Q333.1 82.1 333.6 81.6L333.6 81.6L340.2 74.9Q342.3 72.8 343.0 71.7Q343.7 70.6 343.7 69.3L343.7 69.3Q343.7 67.8 342.6 66.8Q341.6 65.8 340 65.8L340 65.8Q336.9 65.8 335.8 69.0L335.8 69.0Q335.5 69.5 335.2 69.8Q334.8 70.0 334.3 70.0L334.3 70.0Q333.6 70.0 333.2 69.6Q332.8 69.3 332.8 68.6L332.8 68.6Q332.8 68.3 332.9 68.0L332.9 68.0Q333.1 67.1 333.6 66.3Q334.2 65.4 335.0 64.7Q335.9 64.0 337.2 63.6Q338.5 63.1 340.0 63.1L340.0 63.1Q343.0 63.1 345.0 64.8Q346.9 66.5 346.9 69.1L346.9 69.1Q346.9 70.9 345.9 72.5Q345.0 74.0 342.2 76.8L342.2 76.8L337.2 81.8L337.2 81.9L346.0 81.9Q346.6 81.9 347.0 82.3Q347.4 82.7 347.4 83.3L347.4 83.3Q347.4 83.9 347.0 84.3Q346.6 84.7 346.0 84.7L346.0 84.7ZM363.8 82.1Q361.7 85.1 357.9 85.1Q354.1 85.1 352.0 82.1Q349.8 79.2 349.8 74.1L349.8 74.1Q349.8 69.0 352.0 66.1Q354.1 63.1 357.9 63.1L357.9 63.1Q361.7 63.1 363.8 66.1Q366.0 69.0 366.0 74.1L366.0 74.1Q366.0 79.1 363.8 82.1ZM357.9 82.3L357.9 82.3Q360.2 82.3 361.4 80.1Q362.7 77.9 362.7 74.1L362.7 74.1Q362.7 70.3 361.4 68.1Q360.2 65.9 357.9 65.9Q355.6 65.9 354.4 68.1Q353.1 70.3 353.1 74.1L353.1 74.1Q353.1 77.9 354.4 80.1Q355.6 82.3 357.9 82.3ZM382.1 84.7L370.4 84.7Q369.6 84.7 369.2 84.3Q368.8 83.9 368.8 83.3L368.8 83.3Q368.8 82.8 369.0 82.5Q369.2 82.1 369.7 81.6L369.7 81.6L376.3 74.9Q378.4 72.8 379.1 71.7Q379.8 70.6 379.8 69.3L379.8 69.3Q379.8 67.8 378.7 66.8Q377.7 65.8 376.1 65.8L376.1 65.8Q373.0 65.8 371.8 69.0L371.8 69.0Q371.6 69.5 371.3 69.8Q370.9 70.0 370.4 70.0L370.4 70.0Q369.7 70.0 369.3 69.6Q368.9 69.3 368.9 68.6L368.9 68.6Q368.9 68.3 369.0 68.0L369.0 68.0Q369.2 67.1 369.7 66.3Q370.3 65.4 371.1 64.7Q372.0 64.0 373.3 63.6Q374.6 63.1 376.1 63.1L376.1 63.1Q379.1 63.1 381.1 64.8Q383.0 66.5 383.0 69.1L383.0 69.1Q383.0 70.9 382.0 72.5Q381.0 74.0 378.3 76.8L378.3 76.8L373.3 81.8L373.3 81.9L382.1 81.9Q382.7 81.9 383.1 82.3Q383.5 82.7 383.5 83.3L383.5 83.3Q383.5 83.9 383.1 84.3Q382.7 84.7 382.1 84.7L382.1 84.7ZM393.6 85.1L393.6 85.1Q391.1 85.1 389.3 84.1Q387.5 83.2 386.6 81.6L386.6 81.6Q386.2 80.8 386.2 80.0L386.2 80.0Q386.2 79.3 386.6 78.9Q387.0 78.5 387.7 78.5L387.7 78.5Q388.2 78.5 388.6 78.8Q388.9 79.1 389.1 79.6L389.1 79.6Q390.3 82.3 393.7 82.3L393.7 82.3Q395.6 82.3 396.8 81.3Q397.9 80.4 398.0 78.8L398.0 78.8Q398.0 77.0 396.8 76.0Q395.5 75.0 393.4 75.0L393.4 75.0L392.0 75.0Q391.4 75.0 391.0 74.7Q390.6 74.3 390.6 73.8Q390.6 73.2 391.0 72.8Q391.4 72.5 392.0 72.5L392.0 72.5L393.3 72.5Q395.1 72.5 396.3 71.5Q397.4 70.6 397.4 69.1L397.4 69.1Q397.4 67.6 396.4 66.7Q395.4 65.8 393.6 65.8L393.6 65.8Q392.0 65.8 391.1 66.5Q390.1 67.1 389.5 68.5L389.5 68.5Q389.3 69.1 389.0 69.4Q388.6 69.6 388.1 69.6L388.1 69.6Q387.4 69.6 387.0 69.3Q386.6 68.9 386.6 68.2L386.6 68.2Q386.6 67.4 387.0 66.6L387.0 66.6Q387.9 65.0 389.6 64.1Q391.3 63.1 393.6 63.1L393.6 63.1Q396.8 63.1 398.7 64.7Q400.6 66.2 400.6 68.6L400.6 68.6Q400.6 70.6 399.3 71.9Q398.1 73.2 396.1 73.6L396.1 73.6L396.1 73.7Q398.5 73.9 399.9 75.3Q401.3 76.6 401.3 78.8L401.3 78.8Q401.3 81.6 399.1 83.3Q397.0 85.1 393.6 85.1Z "/><mask id="satori_om-id-0-0-1"><rect x="40" y="137" width="1120" height="243" fill="#fff"/></mask><path fill="#224d67" d="M47.5 200.1L47.5 200.1Q45.7 200.1 44.7 199.0Q43.7 198.0 43.7 196.2L43.7 196.2L43.7 161.2Q43.7 159.4 44.7 158.3Q45.7 157.3 47.5 157.3L47.5 157.3L67.7 157.3Q69.3 157.3 70.2 158.2Q71.2 159.0 71.2 160.5Q71.2 162.0 70.2 162.8Q69.3 163.7 67.7 163.7L67.7 163.7L51.3 163.7L51.3 176.2L66.2 176.2Q67.7 176.2 68.6 177.0Q69.5 177.8 69.5 179.2Q69.5 180.7 68.6 181.5Q67.7 182.3 66.2 182.3L66.2 182.3L51.3 182.3L51.3 196.2Q51.3 198.0 50.3 199.1Q49.3 200.1 47.5 200.1ZM100.1 195.9Q96.0 200.2 89.2 200.2Q82.3 200.2 78.2 195.9Q74.1 191.6 74.1 184.1L74.1 184.1Q74.1 176.6 78.2 172.2Q82.3 167.9 89.2 167.9L89.2 167.9Q96.0 167.9 100.1 172.2Q104.2 176.6 104.2 184.1L104.2 184.1Q104.2 191.6 100.1 195.9ZM83.6 191.7Q85.6 194.4 89.2 194.4Q92.7 194.4 94.7 191.7Q96.8 189.0 96.8 184.1L96.8 184.1Q96.8 179.2 94.7 176.4Q92.7 173.7 89.2 173.7L89.2 173.7Q85.7 173.7 83.6 176.4Q81.5 179.2 81.5 184.1L81.5 184.1Q81.5 189.0 83.6 191.7ZM115.2 199.1Q114.2 200.2 112.5 200.2Q110.8 200.2 109.9 199.1Q108.9 198.1 108.9 196.3L108.9 196.3L108.9 171.6Q108.9 169.9 109.8 168.9Q110.8 167.9 112.4 167.9L112.4 167.9Q113.9 167.9 114.9 168.9Q115.8 169.9 115.8 171.6L115.8 171.6L115.8 174.0L116.0 174.0Q116.6 171.3 118.4 169.6Q120.3 168.0 122.6 168.0L122.6 168.0Q124.3 168.0 125.2 168.8L125.2 168.8Q126.2 169.6 126.2 171.4L126.2 171.4Q126.2 173.1 125.1 174.0L125.1 174.0Q124.1 174.9 121.9 175.0L121.9 175.0Q116.2 175.0 116.2 181.4L116.2 181.4L116.2 196.3Q116.2 198.1 115.2 199.1ZM142.9 211.3L142.9 211.3Q138.5 211.2 135.2 209.7Q131.9 208.2 130.3 205.6L130.3 205.6Q129.7 204.6 129.7 203.4L129.7 203.4Q129.7 202.2 130.5 201.4Q131.3 200.6 132.7 200.6L132.7 200.6Q134.1 200.6 135.4 201.8L135.4 201.8Q137.3 203.7 139.0 204.6Q140.8 205.4 142.9 205.5L142.9 205.5Q146.6 205.5 148.7 203.6Q150.9 201.7 150.9 198.6L150.9 198.6L150.9 193.7L150.7 193.7Q149.5 196.2 146.9 197.7Q144.3 199.3 141.0 199.3L141.0 199.3Q135.1 199.3 131.7 195.0Q128.2 190.8 128.2 183.7L128.2 183.7Q128.2 176.4 131.7 172.2Q135.1 168.0 141.1 168.0L141.1 168.0Q144.4 168.0 146.9 169.5Q149.4 171.1 150.8 173.8L150.8 173.8L150.9 173.8L150.9 171.6Q150.9 169.9 151.9 168.9Q152.9 167.9 154.6 167.9Q156.2 167.9 157.2 168.9Q158.2 169.9 158.2 171.6L158.2 171.6L158.2 198.6Q158.2 204.5 154.1 207.9Q150.0 211.3 142.9 211.3ZM143.2 193.6L143.2 193.6Q146.7 193.6 148.8 190.9Q150.9 188.3 150.9 183.7L150.9 183.7Q150.9 179.2 148.8 176.5Q146.7 173.8 143.2 173.8L143.2 173.8Q139.8 173.8 137.7 176.5Q135.7 179.2 135.7 183.7L135.7 183.7Q135.7 188.3 137.7 191.0Q139.8 193.6 143.2 193.6ZM177.9 200.2L177.9 200.2Q170.8 200.2 166.8 196.0Q162.8 191.7 162.8 184.2L162.8 184.2Q162.8 176.7 166.8 172.3Q170.8 167.9 177.5 167.9L177.5 167.9Q183.9 167.9 187.8 171.9Q191.8 176.0 191.8 182.4L191.8 182.4Q191.8 184.0 190.9 184.9Q190.0 185.8 188.4 185.8L188.4 185.8L170.1 185.8L170.1 186.0Q170.1 189.9 172.2 192.3Q174.3 194.6 177.9 194.6L177.9 194.6Q180.3 194.6 182.1 193.6Q183.9 192.7 185.6 190.4L185.6 190.4Q186.7 189.3 188.1 189.3L188.1 189.3Q189.4 189.3 190.2 190.0Q191.0 190.8 191.0 192.1L191.0 192.1Q191.0 192.9 190.5 193.9L190.5 193.9Q189.0 196.9 185.7 198.5Q182.4 200.2 177.9 200.2ZM170.2 181.0L170.2 181.0L184.7 181.0Q184.6 177.6 182.6 175.6Q180.6 173.5 177.5 173.5Q174.5 173.5 172.4 175.6Q170.4 177.7 170.2 181.0ZM198.5 191.9L198.5 191.9L198.5 174.1L196.6 174.1Q195.2 174.1 194.4 173.4Q193.6 172.6 193.6 171.3L193.6 171.3Q193.6 170.0 194.4 169.3Q195.2 168.5 196.6 168.5L196.6 168.5L198.5 168.5L198.5 164.4Q198.5 162.6 199.5 161.6Q200.5 160.6 202.2 160.6L202.2 160.6Q203.9 160.6 204.8 161.6Q205.8 162.6 205.8 164.4L205.8 164.4L205.8 168.5L209.2 168.5Q210.6 168.5 211.3 169.3Q212.1 170.0 212.1 171.3L212.1 171.3Q212.1 172.6 211.3 173.4Q210.5 174.1 209.2 174.1L209.2 174.1L205.8 174.1L205.8 190.3Q205.8 192.1 206.5 192.9Q207.2 193.7 208.8 193.9L208.8 193.9L209.3 193.9Q212.2 194.2 212.2 196.6L212.2 196.6Q212.2 198.2 210.9 199.1Q209.5 199.9 207.0 199.9L207.0 199.9L206.7 199.9Q198.5 199.9 198.5 191.9ZM225.0 199.2Q224.0 200.2 222.3 200.2Q220.6 200.2 219.6 199.2Q218.7 198.2 218.7 196.4L218.7 196.4L218.7 174.1L216.7 174.1Q215.5 174.1 214.7 173.4Q213.9 172.7 213.9 171.4L213.9 171.4Q213.9 170.1 214.7 169.4Q215.5 168.6 216.7 168.6L216.7 168.6L218.7 168.6L218.7 165.9Q218.7 157.0 227.2 157.0L227.2 157.0Q230.0 157.0 231.4 157.8Q232.8 158.6 232.8 160.0L232.8 160.0Q232.8 161.7 231.2 162.1L231.2 162.1Q230.5 162.3 229.6 162.3L229.6 162.3Q227.6 162.4 226.7 163.3Q225.8 164.2 225.8 166.2L225.8 166.2L225.8 168.6L229.8 168.6Q231.0 168.6 231.8 169.4Q232.5 170.1 232.5 171.4L232.5 171.4Q232.5 172.7 231.8 173.4Q231.0 174.1 229.8 174.1L229.8 174.1L225.9 174.1L225.9 196.4Q225.9 198.2 225.0 199.2ZM247.7 200.1L247.7 200.1Q242.6 200.1 239.7 197.0Q236.7 194.0 236.7 188.6L236.7 188.6L236.7 171.7Q236.7 170.0 237.7 168.9Q238.7 167.9 240.3 167.9Q242.0 167.9 243.0 168.9Q244.0 170.0 244.0 171.8L244.0 171.8L244.0 187.1Q244.0 190.5 245.6 192.2Q247.2 194.0 250.3 194.0L250.3 194.0Q253.4 194.0 255.2 191.9Q257.1 189.9 257.1 186.5L257.1 186.5L257.1 171.7Q257.1 170.0 258.1 168.9Q259.1 167.9 260.8 167.9L260.8 167.9Q262.4 167.9 263.4 168.9Q264.4 170.0 264.4 171.8L264.4 171.8L264.4 196.5Q264.4 198.2 263.4 199.2Q262.5 200.2 260.9 200.2L260.9 200.2Q259.3 200.2 258.3 199.2Q257.4 198.2 257.4 196.5L257.4 196.5L257.4 194.2L257.2 194.2Q254.6 200.1 247.7 200.1ZM276.8 199.2Q275.8 200.2 274.2 200.2Q272.6 200.2 271.5 199.2Q270.5 198.1 270.5 196.3L270.5 196.3L270.5 160.6Q270.5 158.7 271.5 157.7Q272.6 156.7 274.2 156.7Q275.8 156.7 276.8 157.7Q277.8 158.7 277.8 160.6L277.8 160.6L277.8 196.3Q277.8 198.1 276.8 199.2Z M320.5 199.6L300.6 199.6Q298.8 199.6 297.8 198.5Q296.8 197.5 296.8 195.7L296.8 195.7L296.8 160.7Q296.8 158.9 297.8 157.8Q298.8 156.8 300.6 156.8L300.6 156.8Q302.4 156.8 303.3 157.8Q304.3 158.9 304.3 160.7L304.3 160.7L304.3 193.2L320.5 193.2Q322.1 193.2 323.1 194.1Q324.0 194.9 324.0 196.4Q324.0 197.8 323.1 198.7Q322.1 199.6 320.5 199.6L320.5 199.6ZM337.3 200.1L337.3 200.1Q332.8 200.1 329.9 197.5Q327.0 194.9 327.0 190.7L327.0 190.7Q327.0 186.6 330.0 184.2Q333.1 181.8 338.8 181.4L338.8 181.4L347.0 180.9L347.0 178.7Q347.0 176.3 345.5 174.9Q343.9 173.6 341.2 173.6L341.2 173.6Q339.0 173.6 337.5 174.4Q336.0 175.2 334.7 177.2L334.7 177.2Q333.6 178.7 331.7 178.7L331.7 178.7Q330.4 178.7 329.5 177.9Q328.7 177.1 328.7 175.8L328.7 175.8Q328.7 174.8 329.2 173.8L329.2 173.8Q330.3 171.1 333.7 169.5Q337.0 167.9 341.5 167.9L341.5 167.9Q347.3 167.9 350.7 170.7Q354.2 173.5 354.2 178.2L354.2 178.2L354.2 196.5Q354.2 198.2 353.2 199.2Q352.2 200.2 350.7 200.2L350.7 200.2Q349.1 200.2 348.2 199.3Q347.3 198.4 347.2 196.8L347.2 196.8L347.2 194.6L347.0 194.6Q345.7 197.1 343.0 198.6Q340.4 200.1 337.3 200.1ZM339.6 194.6L339.6 194.6Q342.7 194.6 344.8 192.7Q347.0 190.8 347.0 188.1L347.0 188.1L347.0 185.7L339.8 186.1Q337.2 186.3 335.7 187.4Q334.3 188.6 334.3 190.4L334.3 190.4Q334.3 192.3 335.7 193.4Q337.2 194.6 339.6 194.6ZM366.4 199.1Q365.4 200.2 363.7 200.2Q362.0 200.2 361.0 199.1Q360.1 198.1 360.1 196.3L360.1 196.3L360.1 171.6Q360.1 169.9 361.0 168.9Q362.0 167.9 363.6 167.9L363.6 167.9Q365.1 167.9 366.0 168.9Q367.0 169.9 367.0 171.6L367.0 171.6L367.0 174.0L367.2 174.0Q367.8 171.3 369.6 169.6Q371.5 168.0 373.8 168.0L373.8 168.0Q375.5 168.0 376.4 168.8L376.4 168.8Q377.4 169.6 377.4 171.4L377.4 171.4Q377.4 173.1 376.3 174.0L376.3 174.0Q375.3 174.9 373.1 175.0L373.1 175.0Q367.4 175.0 367.4 181.4L367.4 181.4L367.4 196.3Q367.4 198.1 366.4 199.1ZM394.1 211.3L394.1 211.3Q389.7 211.2 386.4 209.7Q383.1 208.2 381.5 205.6L381.5 205.6Q380.9 204.6 380.9 203.4L380.9 203.4Q380.9 202.2 381.7 201.4Q382.5 200.6 383.9 200.6L383.9 200.6Q385.3 200.6 386.6 201.8L386.6 201.8Q388.5 203.7 390.2 204.6Q392.0 205.4 394.1 205.5L394.1 205.5Q397.8 205.5 399.9 203.6Q402.1 201.7 402.1 198.6L402.1 198.6L402.1 193.7L401.9 193.7Q400.7 196.2 398.1 197.7Q395.5 199.3 392.2 199.3L392.2 199.3Q386.3 199.3 382.9 195.0Q379.4 190.8 379.4 183.7L379.4 183.7Q379.4 176.4 382.9 172.2Q386.3 168.0 392.3 168.0L392.3 168.0Q395.6 168.0 398.1 169.5Q400.6 171.1 402.0 173.8L402.0 173.8L402.1 173.8L402.1 171.6Q402.1 169.9 403.1 168.9Q404.1 167.9 405.7 167.9Q407.4 167.9 408.4 168.9Q409.4 169.9 409.4 171.6L409.4 171.6L409.4 198.6Q409.4 204.5 405.3 207.9Q401.2 211.3 394.1 211.3ZM394.4 193.6L394.4 193.6Q397.9 193.6 400.0 190.9Q402.1 188.3 402.1 183.7L402.1 183.7Q402.1 179.2 400 176.5Q397.9 173.8 394.4 173.8L394.4 173.8Q390.9 173.8 388.9 176.5Q386.9 179.2 386.9 183.7L386.9 183.7Q386.9 188.3 388.9 191.0Q390.9 193.6 394.4 193.6ZM429.1 200.2L429.1 200.2Q422.0 200.2 418.0 196.0Q414.0 191.7 414.0 184.2L414.0 184.2Q414.0 176.7 418.0 172.3Q422.0 167.9 428.7 167.9L428.7 167.9Q435.1 167.9 439.0 171.9Q443.0 176.0 443.0 182.4L443.0 182.4Q443.0 184.0 442.1 184.9Q441.2 185.8 439.6 185.8L439.6 185.8L421.3 185.8L421.3 186.0Q421.3 189.9 423.4 192.3Q425.5 194.6 429.1 194.6L429.1 194.6Q431.5 194.6 433.3 193.6Q435.1 192.7 436.8 190.4L436.8 190.4Q437.9 189.3 439.3 189.3L439.3 189.3Q440.5 189.3 441.4 190.0Q442.2 190.8 442.2 192.1L442.2 192.1Q442.2 192.9 441.7 193.9L441.7 193.9Q440.2 196.9 436.9 198.5Q433.5 200.2 429.1 200.2ZM421.4 181.0L421.4 181.0L435.9 181.0Q435.7 177.6 433.8 175.6Q431.8 173.5 428.7 173.5Q425.7 173.5 423.6 175.6Q421.6 177.7 421.4 181.0Z M484.2 199.6L464.2 199.6Q462.5 199.6 461.5 198.5Q460.4 197.5 460.4 195.7L460.4 195.7L460.4 160.7Q460.4 158.9 461.5 157.8Q462.5 156.8 464.2 156.8L464.2 156.8Q466.0 156.8 467.0 157.8Q468.0 158.9 468.0 160.7L468.0 160.7L468.0 193.2L484.2 193.2Q485.8 193.2 486.7 194.1Q487.7 194.9 487.7 196.4Q487.7 197.8 486.7 198.7Q485.8 199.6 484.2 199.6L484.2 199.6ZM501.0 200.1L501.0 200.1Q496.4 200.1 493.5 197.5Q490.6 194.9 490.6 190.7L490.6 190.7Q490.6 186.6 493.7 184.2Q496.7 181.8 502.4 181.4L502.4 181.4L510.7 180.9L510.7 178.7Q510.7 176.3 509.1 174.9Q507.6 173.6 504.9 173.6L504.9 173.6Q502.7 173.6 501.2 174.4Q499.7 175.2 498.3 177.2L498.3 177.2Q497.2 178.7 495.4 178.7L495.4 178.7Q494.0 178.7 493.2 177.9Q492.3 177.1 492.3 175.8L492.3 175.8Q492.3 174.8 492.8 173.8L492.8 173.8Q494.0 171.1 497.3 169.5Q500.7 167.9 505.1 167.9L505.1 167.9Q510.9 167.9 514.4 170.7Q517.9 173.5 517.9 178.2L517.9 178.2L517.9 196.5Q517.9 198.2 516.9 199.2Q515.9 200.2 514.3 200.2L514.3 200.2Q512.8 200.2 511.9 199.3Q510.9 198.4 510.8 196.8L510.8 196.8L510.8 194.6L510.7 194.6Q509.4 197.1 506.7 198.6Q504.0 200.1 501.0 200.1ZM503.2 194.6L503.2 194.6Q506.3 194.6 508.5 192.7Q510.7 190.8 510.7 188.1L510.7 188.1L510.7 185.7L503.4 186.1Q500.8 186.3 499.4 187.4Q497.9 188.6 497.9 190.4L497.9 190.4Q497.9 192.3 499.4 193.4Q500.8 194.6 503.2 194.6ZM530.0 199.2Q529.0 200.2 527.4 200.2Q525.7 200.2 524.7 199.2Q523.7 198.1 523.7 196.3L523.7 196.3L523.7 171.6Q523.7 169.9 524.7 168.9Q525.6 167.9 527.2 167.9Q528.8 167.9 529.8 168.9Q530.8 169.9 530.8 171.6L530.8 171.6L530.8 173.8L531.0 173.8Q533.6 167.9 540.6 167.9L540.6 167.9Q545.7 167.9 548.5 171.0Q551.4 174.1 551.4 179.5L551.4 179.5L551.4 196.3Q551.4 198.1 550.4 199.2Q549.4 200.2 547.7 200.2Q546.1 200.2 545.1 199.2Q544.1 198.1 544.1 196.3L544.1 196.3L544.1 181.0Q544.1 177.6 542.5 175.9Q540.9 174.1 537.9 174.1L537.9 174.1Q534.7 174.1 532.9 176.2Q531.0 178.2 531.0 181.6L531.0 181.6L531.0 196.3Q531.0 198.1 530.0 199.2ZM570.6 211.3L570.6 211.3Q566.2 211.2 562.9 209.7Q559.6 208.2 558.0 205.6L558.0 205.6Q557.4 204.6 557.4 203.4L557.4 203.4Q557.4 202.2 558.2 201.4Q559.1 200.6 560.4 200.6L560.4 200.6Q561.8 200.6 563.1 201.8L563.1 201.8Q565.0 203.7 566.7 204.6Q568.5 205.4 570.7 205.5L570.7 205.5Q574.3 205.5 576.4 203.6Q578.6 201.7 578.6 198.6L578.6 198.6L578.6 193.7L578.4 193.7Q577.2 196.2 574.6 197.7Q572.0 199.3 568.7 199.3L568.7 199.3Q562.8 199.3 559.4 195.0Q555.9 190.8 555.9 183.7L555.9 183.7Q555.9 176.4 559.4 172.2Q562.8 168.0 568.8 168.0L568.8 168.0Q572.1 168.0 574.6 169.5Q577.1 171.1 578.5 173.8L578.5 173.8L578.6 173.8L578.6 171.6Q578.6 169.9 579.6 168.9Q580.6 167.9 582.3 167.9Q583.9 167.9 584.9 168.9Q585.9 169.9 585.9 171.6L585.9 171.6L585.9 198.6Q585.9 204.5 581.8 207.9Q577.7 211.3 570.6 211.3ZM570.9 193.6L570.9 193.6Q574.4 193.6 576.5 190.9Q578.6 188.3 578.6 183.7L578.6 183.7Q578.6 179.2 576.5 176.5Q574.4 173.8 570.9 173.8L570.9 173.8Q567.5 173.8 565.4 176.5Q563.4 179.2 563.4 183.7L563.4 183.7Q563.4 188.3 565.4 191.0Q567.5 193.6 570.9 193.6ZM602.7 200.1L602.7 200.1Q597.6 200.1 594.7 197.0Q591.7 194.0 591.7 188.6L591.7 188.6L591.7 171.7Q591.7 170.0 592.7 168.9Q593.7 167.9 595.3 167.9Q597.0 167.9 598.0 168.9Q599.0 170.0 599.0 171.8L599.0 171.8L599.0 187.1Q599.0 190.5 600.6 192.2Q602.2 194.0 605.3 194.0L605.3 194.0Q608.4 194.0 610.2 191.9Q612.1 189.9 612.1 186.5L612.1 186.5L612.1 171.7Q612.1 170.0 613.1 168.9Q614.1 167.9 615.7 167.9L615.7 167.9Q617.4 167.9 618.4 168.9Q619.4 170.0 619.4 171.8L619.4 171.8L619.4 196.5Q619.4 198.2 618.4 199.2Q617.5 200.2 615.9 200.2L615.9 200.2Q614.3 200.2 613.3 199.2Q612.3 198.2 612.3 196.5L612.3 196.5L612.3 194.2L612.2 194.2Q609.6 200.1 602.7 200.1ZM634.4 200.1L634.4 200.1Q629.9 200.1 627.0 197.5Q624.1 194.9 624.1 190.7L624.1 190.7Q624.1 186.6 627.1 184.2Q630.2 181.8 635.9 181.4L635.9 181.4L644.1 180.9L644.1 178.7Q644.1 176.3 642.6 174.9Q641.0 173.6 638.3 173.6L638.3 173.6Q636.1 173.6 634.6 174.4Q633.1 175.2 631.8 177.2L631.8 177.2Q630.7 178.7 628.8 178.7L628.8 178.7Q627.5 178.7 626.6 177.9Q625.8 177.1 625.8 175.8L625.8 175.8Q625.8 174.8 626.3 173.8L626.3 173.8Q627.4 171.1 630.8 169.5Q634.1 167.9 638.6 167.9L638.6 167.9Q644.4 167.9 647.8 170.7Q651.3 173.5 651.3 178.2L651.3 178.2L651.3 196.5Q651.3 198.2 650.3 199.2Q649.3 200.2 647.8 200.2L647.8 200.2Q646.2 200.2 645.3 199.3Q644.4 198.4 644.3 196.8L644.3 196.8L644.3 194.6L644.1 194.6Q642.8 197.1 640.1 198.6Q637.5 200.1 634.4 200.1ZM636.7 194.6L636.7 194.6Q639.8 194.6 641.9 192.7Q644.1 190.8 644.1 188.1L644.1 188.1L644.1 185.7L636.9 186.1Q634.3 186.3 632.8 187.4Q631.4 188.6 631.4 190.4L631.4 190.4Q631.4 192.3 632.8 193.4Q634.3 194.6 636.7 194.6ZM670.6 211.3L670.6 211.3Q666.2 211.2 662.9 209.7Q659.6 208.2 658.0 205.6L658.0 205.6Q657.3 204.6 657.3 203.4L657.3 203.4Q657.3 202.2 658.2 201.4Q659.0 200.6 660.4 200.6L660.4 200.6Q661.8 200.6 663.1 201.8L663.1 201.8Q664.9 203.7 666.7 204.6Q668.4 205.4 670.6 205.5L670.6 205.5Q674.3 205.5 676.4 203.6Q678.5 201.7 678.5 198.6L678.5 198.6L678.5 193.7L678.4 193.7Q677.1 196.2 674.5 197.7Q671.9 199.3 668.7 199.3L668.7 199.3Q662.8 199.3 659.3 195.0Q655.9 190.8 655.9 183.7L655.9 183.7Q655.9 176.4 659.3 172.2Q662.8 168.0 668.8 168.0L668.8 168.0Q672.1 168.0 674.6 169.5Q677.1 171.1 678.4 173.8L678.4 173.8L678.6 173.8L678.6 171.6Q678.6 169.9 679.6 168.9Q680.6 167.9 682.2 167.9Q683.8 167.9 684.8 168.9Q685.8 169.9 685.8 171.6L685.8 171.6L685.8 198.6Q685.8 204.5 681.8 207.9Q677.7 211.3 670.6 211.3ZM670.9 193.6L670.9 193.6Q674.4 193.6 676.5 190.9Q678.6 188.3 678.6 183.7L678.6 183.7Q678.6 179.2 676.5 176.5Q674.4 173.8 670.9 173.8L670.9 173.8Q667.4 173.8 665.4 176.5Q663.3 179.2 663.3 183.7L663.3 183.7Q663.3 188.3 665.4 191.0Q667.4 193.6 670.9 193.6ZM705.6 200.2L705.6 200.2Q698.5 200.2 694.5 196.0Q690.5 191.7 690.5 184.2L690.5 184.2Q690.5 176.7 694.5 172.3Q698.5 167.9 705.2 167.9L705.2 167.9Q711.5 167.9 715.5 171.9Q719.5 176.0 719.5 182.4L719.5 182.4Q719.5 184.0 718.6 184.9Q717.7 185.8 716.1 185.8L716.1 185.8L697.8 185.8L697.8 186.0Q697.8 189.9 699.9 192.3Q702.0 194.6 705.5 194.6L705.5 194.6Q708.0 194.6 709.8 193.6Q711.5 192.7 713.3 190.4L713.3 190.4Q714.4 189.3 715.8 189.3L715.8 189.3Q717.0 189.3 717.9 190.0Q718.7 190.8 718.7 192.1L718.7 192.1Q718.7 192.9 718.2 193.9L718.2 193.9Q716.6 196.9 713.3 198.5Q710.0 200.2 705.6 200.2ZM697.8 181.0L697.8 181.0L712.3 181.0Q712.2 177.6 710.3 175.6Q708.3 173.5 705.2 173.5Q702.1 173.5 700.1 175.6Q698.0 177.7 697.8 181.0Z M742.8 199.1Q741.9 200.1 740.3 200.1Q738.7 200.1 737.8 199.1Q736.9 198.2 736.9 196.5L736.9 196.5L736.9 161.6Q736.9 159.4 738.2 158.1Q739.5 156.8 741.8 156.8L741.8 156.8Q743.7 156.8 745.0 157.7Q746.2 158.6 747.0 160.7L747.0 160.7L758.6 189.2L758.9 189.2L770.5 160.7Q771.3 158.7 772.5 157.7Q773.8 156.8 775.7 156.8L775.7 156.8Q778.0 156.8 779.3 158.1Q780.5 159.4 780.5 161.6L780.5 161.6L780.5 196.5Q780.5 198.2 779.6 199.1Q778.8 200.1 777.1 200.1Q775.5 200.1 774.6 199.1Q773.7 198.2 773.7 196.5L773.7 196.5L773.7 169.6L773.5 169.6L762.3 196.8Q761.3 199.3 758.7 199.3L758.7 199.3Q756.2 199.3 755.2 196.8L755.2 196.8L743.9 169.6L743.7 169.6L743.7 196.5Q743.7 198.2 742.8 199.1ZM812.0 195.9Q807.9 200.2 801.0 200.2Q794.1 200.2 790.1 195.9Q786.0 191.6 786.0 184.1L786.0 184.1Q786.0 176.6 790.1 172.2Q794.2 167.9 801.0 167.9L801.0 167.9Q807.9 167.9 812.0 172.2Q816.0 176.6 816.0 184.1L816.0 184.1Q816.0 191.6 812.0 195.9ZM795.4 191.7Q797.5 194.4 801.0 194.4Q804.5 194.4 806.6 191.7Q808.6 189.0 808.6 184.1L808.6 184.1Q808.6 179.2 806.6 176.4Q804.5 173.7 801.0 173.7L801.0 173.7Q797.5 173.7 795.5 176.4Q793.4 179.2 793.4 184.1L793.4 184.1Q793.4 189.0 795.4 191.7ZM832.3 200.1L832.3 200.1Q826.4 200.1 822.9 195.7Q819.4 191.4 819.4 184.0L819.4 184.0Q819.4 176.7 822.9 172.3Q826.4 168.0 832.3 168.0L832.3 168.0Q835.6 168.0 838.1 169.5Q840.7 171.1 841.9 173.7L841.9 173.7L842.1 173.7L842.1 160.6Q842.1 158.7 843.1 157.7Q844.1 156.7 845.8 156.7Q847.4 156.7 848.4 157.7Q849.4 158.7 849.4 160.6L849.4 160.6L849.4 196.5Q849.4 198.2 848.4 199.2Q847.4 200.2 845.8 200.2L845.8 200.2Q844.2 200.2 843.1 199.2Q842.1 198.2 842.1 196.5L842.1 196.5L842.1 194.1L842.0 194.1Q840.8 196.9 838.3 198.5Q835.8 200.1 832.3 200.1ZM834.5 194.1L834.5 194.1Q838.0 194.1 840.1 191.4Q842.1 188.7 842.1 184.1L842.1 184.1Q842.1 179.5 840.1 176.7Q838.0 174.0 834.5 174.0L834.5 174.0Q831.0 174.0 829.0 176.7Q826.9 179.4 826.9 184.1L826.9 184.1Q826.9 188.7 829.0 191.4Q831.0 194.1 834.5 194.1ZM869.3 200.2L869.3 200.2Q862.2 200.2 858.2 196.0Q854.2 191.7 854.2 184.2L854.2 184.2Q854.2 176.7 858.2 172.3Q862.2 167.9 868.9 167.9L868.9 167.9Q875.3 167.9 879.3 171.9Q883.2 176.0 883.2 182.4L883.2 182.4Q883.2 184.0 882.3 184.9Q881.4 185.8 879.8 185.8L879.8 185.8L861.5 185.8L861.5 186.0Q861.5 189.9 863.6 192.3Q865.7 194.6 869.3 194.6L869.3 194.6Q871.7 194.6 873.5 193.6Q875.3 192.7 877.0 190.4L877.0 190.4Q878.1 189.3 879.5 189.3L879.5 189.3Q880.8 189.3 881.6 190.0Q882.4 190.8 882.4 192.1L882.4 192.1Q882.4 192.9 881.9 193.9L881.9 193.9Q880.4 196.9 877.1 198.5Q873.8 200.2 869.3 200.2ZM861.6 181.0L861.6 181.0L876.1 181.0Q876.0 177.6 874.0 175.6Q872.0 173.5 869.0 173.5Q865.9 173.5 863.8 175.6Q861.8 177.7 861.6 181.0ZM894.4 199.2Q893.4 200.2 891.8 200.2Q890.1 200.2 889.1 199.2Q888.1 198.1 888.1 196.3L888.1 196.3L888.1 160.6Q888.1 158.7 889.1 157.7Q890.1 156.7 891.8 156.7Q893.4 156.7 894.4 157.7Q895.4 158.7 895.4 160.6L895.4 160.6L895.4 196.3Q895.4 198.1 894.4 199.2ZM913.6 200.2L913.6 200.2Q908.8 200.2 905.4 198.5Q902.1 196.8 900.9 194.0L900.9 194.0Q900.7 193.2 900.7 192.5L900.7 192.5Q900.7 191.2 901.5 190.4Q902.4 189.6 903.7 189.6L903.7 189.6Q905.5 189.6 906.9 191.4L906.9 191.4Q908.1 193.3 909.7 194.1Q911.3 194.9 913.9 194.9L913.9 194.9Q916.4 194.9 918.0 193.9Q919.5 192.8 919.5 191.1L919.5 191.1Q919.5 189.7 918.5 188.8Q917.5 188.0 915.2 187.4L915.2 187.4L910.1 186.3Q901.1 184.3 901.1 177.4L901.1 177.4Q901.1 173.1 904.5 170.5Q908.0 167.9 913.7 167.9L913.7 167.9Q918.1 167.9 921.3 169.8Q924.6 171.6 925.3 174.4L925.3 174.4Q925.4 175.0 925.4 175.5L925.4 175.5Q925.4 176.6 924.7 177.4Q924.0 178.1 922.6 178.1L922.6 178.1Q920.8 178.1 919.8 176.7L919.8 176.7Q918.7 175.0 917.2 174.1Q915.7 173.2 913.5 173.2L913.5 173.2Q911.1 173.2 909.6 174.3Q908.2 175.3 908.2 177.0L908.2 177.0Q908.2 179.8 912.7 180.8L912.7 180.8L917.7 181.9Q922.6 183.0 924.7 184.9Q926.8 186.9 926.8 190.3L926.8 190.3Q926.8 194.8 923.2 197.5Q919.6 200.2 913.6 200.2ZM936.5 178.7L936.5 178.7Q934.8 178.7 933.5 177.5Q932.3 176.3 932.3 174.5Q932.3 172.8 933.5 171.5Q934.8 170.3 936.5 170.3L936.5 170.3Q938.3 170.3 939.5 171.5Q940.7 172.8 940.7 174.5Q940.7 176.3 939.5 177.5Q938.3 178.7 936.5 178.7ZM936.5 199.9L936.5 199.9Q934.8 199.9 933.5 198.7Q932.3 197.5 932.3 195.7L932.3 195.7Q932.3 193.9 933.5 192.7Q934.8 191.5 936.5 191.5L936.5 191.5Q938.3 191.5 939.5 192.7Q940.7 193.9 940.7 195.7L940.7 195.7Q940.7 197.5 939.5 198.7Q938.3 199.9 936.5 199.9Z M67.5 282.1L47.5 282.1Q45.7 282.1 44.7 281.0Q43.7 280.0 43.7 278.2L43.7 278.2L43.7 243.2Q43.7 241.4 44.7 240.3Q45.7 239.3 47.5 239.3L47.5 239.3Q49.3 239.3 50.3 240.3Q51.3 241.4 51.3 243.2L51.3 243.2L51.3 275.7L67.5 275.7Q69.0 275.7 70.0 276.6Q70.9 277.4 70.9 278.9Q70.9 280.3 70 281.2Q69.1 282.1 67.5 282.1L67.5 282.1ZM89.0 282.7L89.0 282.7Q81.8 282.7 77.9 278.5Q73.9 274.2 73.9 266.7L73.9 266.7Q73.9 259.2 77.9 254.8Q81.8 250.4 88.5 250.4L88.5 250.4Q94.9 250.4 98.9 254.4Q102.8 258.5 102.8 264.9L102.8 264.9Q102.8 266.5 101.9 267.4Q101.1 268.3 99.4 268.3L99.4 268.3L81.1 268.3L81.1 268.5Q81.1 272.4 83.2 274.8Q85.4 277.1 88.9 277.1L88.9 277.1Q91.4 277.1 93.1 276.1Q94.9 275.2 96.7 272.9L96.7 272.9Q97.7 271.8 99.1 271.8L99.1 271.8Q100.4 271.8 101.2 272.5Q102.1 273.3 102.1 274.6L102.1 274.6Q102.1 275.4 101.6 276.4L101.6 276.4Q100 279.4 96.7 281.0Q93.4 282.7 89.0 282.7ZM81.2 263.5L81.2 263.5L95.7 263.5Q95.6 260.1 93.6 258.1Q91.7 256.0 88.6 256.0Q85.5 256.0 83.4 258.1Q81.4 260.2 81.2 263.5ZM119.5 282.7L119.5 282.7Q114.7 282.7 111.3 281.0Q108.0 279.3 106.9 276.5L106.9 276.5Q106.6 275.7 106.6 275.0L106.6 275.0Q106.6 273.7 107.4 272.9Q108.3 272.1 109.6 272.1L109.6 272.1Q111.4 272.1 112.8 273.9L112.8 273.9Q114.0 275.8 115.6 276.6Q117.2 277.4 119.8 277.4L119.8 277.4Q122.4 277.4 123.9 276.4Q125.4 275.3 125.4 273.6L125.4 273.6Q125.4 272.2 124.4 271.3Q123.4 270.5 121.1 269.9L121.1 269.9L116.0 268.8Q107.0 266.8 107.0 259.9L107.0 259.9Q107.0 255.6 110.4 253.0Q113.9 250.4 119.6 250.4L119.6 250.4Q124.0 250.4 127.2 252.3Q130.5 254.1 131.2 256.9L131.2 256.9Q131.3 257.5 131.3 258.0L131.3 258.0Q131.3 259.1 130.6 259.9Q129.9 260.6 128.5 260.6L128.5 260.6Q126.7 260.6 125.8 259.2L125.8 259.2Q124.6 257.5 123.1 256.6Q121.7 255.7 119.5 255.7L119.5 255.7Q117.1 255.7 115.6 256.8Q114.1 257.8 114.1 259.5L114.1 259.5Q114.1 262.3 118.6 263.3L118.6 263.3L123.6 264.4Q128.5 265.5 130.6 267.4Q132.8 269.4 132.8 272.8L132.8 272.8Q132.8 277.3 129.1 280.0Q125.5 282.7 119.5 282.7ZM149.3 282.7L149.3 282.7Q144.5 282.7 141.2 281.0Q137.8 279.3 136.7 276.5L136.7 276.5Q136.4 275.7 136.4 275.0L136.4 275.0Q136.4 273.7 137.2 272.9Q138.1 272.1 139.4 272.1L139.4 272.1Q141.3 272.1 142.6 273.9L142.6 273.9Q143.9 275.8 145.5 276.6Q147.1 277.4 149.6 277.4L149.6 277.4Q152.2 277.4 153.7 276.4Q155.3 275.3 155.3 273.6L155.3 273.6Q155.3 272.2 154.3 271.3Q153.3 270.5 150.9 269.9L150.9 269.9L145.8 268.8Q136.8 266.8 136.8 259.9L136.8 259.9Q136.8 255.6 140.3 253.0Q143.7 250.4 149.5 250.4L149.5 250.4Q153.8 250.4 157.1 252.3Q160.3 254.1 161.0 256.9L161.0 256.9Q161.2 257.5 161.2 258.0L161.2 258.0Q161.2 259.1 160.4 259.9Q159.7 260.6 158.4 260.6L158.4 260.6Q156.5 260.6 155.6 259.2L155.6 259.2Q154.4 257.5 153.0 256.6Q151.5 255.7 149.3 255.7L149.3 255.7Q146.9 255.7 145.4 256.8Q143.9 257.8 143.9 259.5L143.9 259.5Q143.9 262.3 148.5 263.3L148.5 263.3L153.4 264.4Q158.3 265.5 160.5 267.4Q162.6 269.4 162.6 272.8L162.6 272.8Q162.6 277.3 158.9 280.0Q155.3 282.7 149.3 282.7ZM191.9 278.4Q187.8 282.7 180.9 282.7Q174.0 282.7 170.0 278.4Q165.9 274.1 165.9 266.6L165.9 266.6Q165.9 259.1 170.0 254.7Q174.1 250.4 180.9 250.4L180.9 250.4Q187.8 250.4 191.9 254.7Q195.9 259.1 195.9 266.6L195.9 266.6Q195.9 274.1 191.9 278.4ZM175.4 274.2Q177.4 276.9 180.9 276.9Q184.4 276.9 186.5 274.2Q188.5 271.5 188.5 266.6L188.5 266.6Q188.5 261.7 186.5 258.9Q184.4 256.2 180.9 256.2L180.9 256.2Q177.4 256.2 175.4 258.9Q173.3 261.7 173.3 266.6L173.3 266.6Q173.3 271.5 175.4 274.2ZM206.9 281.7Q205.9 282.7 204.3 282.7Q202.6 282.7 201.6 281.7Q200.6 280.6 200.6 278.8L200.6 278.8L200.6 254.1Q200.6 252.4 201.6 251.4Q202.5 250.4 204.1 250.4Q205.7 250.4 206.7 251.4Q207.7 252.4 207.7 254.1L207.7 254.1L207.7 256.3L207.9 256.3Q210.5 250.4 217.5 250.4L217.5 250.4Q222.6 250.4 225.5 253.5Q228.3 256.6 228.3 262.0L228.3 262.0L228.3 278.8Q228.3 280.6 227.3 281.7Q226.3 282.7 224.7 282.7Q223.0 282.7 222.0 281.7Q221.0 280.6 221.0 278.8L221.0 278.8L221.0 263.5Q221.0 260.1 219.4 258.4Q217.9 256.6 214.8 256.6L214.8 256.6Q211.7 256.6 209.8 258.7Q207.9 260.7 207.9 264.1L207.9 264.1L207.9 278.8Q207.9 280.6 206.9 281.7ZM246.1 282.7L246.1 282.7Q241.3 282.7 237.9 281.0Q234.6 279.3 233.4 276.5L233.4 276.5Q233.2 275.7 233.2 275.0L233.2 275.0Q233.2 273.7 234.0 272.9Q234.9 272.1 236.2 272.1L236.2 272.1Q238.0 272.1 239.4 273.9L239.4 273.9Q240.6 275.8 242.2 276.6Q243.8 277.4 246.4 277.4L246.4 277.4Q248.9 277.4 250.5 276.4Q252.0 275.3 252.0 273.6L252.0 273.6Q252.0 272.2 251.0 271.3Q250.0 270.5 247.7 269.9L247.7 269.9L242.6 268.8Q233.6 266.8 233.6 259.9L233.6 259.9Q233.6 255.6 237.0 253.0Q240.5 250.4 246.2 250.4L246.2 250.4Q250.6 250.4 253.8 252.3Q257.1 254.1 257.8 256.9L257.8 256.9Q257.9 257.5 257.9 258.0L257.9 258.0Q257.9 259.1 257.2 259.9Q256.5 260.6 255.1 260.6L255.1 260.6Q253.3 260.6 252.3 259.2L252.3 259.2Q251.2 257.5 249.7 256.6Q248.2 255.7 246.0 255.7L246.0 255.7Q243.6 255.7 242.1 256.8Q240.7 257.8 240.7 259.5L240.7 259.5Q240.7 262.3 245.2 263.3L245.2 263.3L250.2 264.4Q255.1 265.5 257.2 267.4Q259.3 269.4 259.3 272.8L259.3 272.8Q259.3 277.3 255.7 280.0Q252.1 282.7 246.1 282.7Z M300.4 282.1L280.5 282.1Q278.7 282.1 277.7 281.0Q276.7 280.0 276.7 278.2L276.7 278.2L276.7 243.2Q276.7 241.4 277.7 240.3Q278.7 239.3 280.5 239.3L280.5 239.3Q282.3 239.3 283.3 240.3Q284.2 241.4 284.2 243.2L284.2 243.2L284.2 275.7L300.4 275.7Q302.0 275.7 303.0 276.6Q303.9 277.4 303.9 278.9Q303.9 280.3 303.0 281.2Q302.0 282.1 300.4 282.1L300.4 282.1ZM321.9 282.7L321.9 282.7Q314.8 282.7 310.8 278.5Q306.8 274.2 306.8 266.7L306.8 266.7Q306.8 259.2 310.8 254.8Q314.8 250.4 321.5 250.4L321.5 250.4Q327.9 250.4 331.8 254.4Q335.8 258.5 335.8 264.9L335.8 264.9Q335.8 266.5 334.9 267.4Q334.0 268.3 332.4 268.3L332.4 268.3L314.1 268.3L314.1 268.5Q314.1 272.4 316.2 274.8Q318.3 277.1 321.9 277.1L321.9 277.1Q324.3 277.1 326.1 276.1Q327.9 275.2 329.6 272.9L329.6 272.9Q330.7 271.8 332.1 271.8L332.1 271.8Q333.3 271.8 334.2 272.5Q335.0 273.3 335.0 274.6L335.0 274.6Q335.0 275.4 334.5 276.4L334.5 276.4Q333.0 279.4 329.7 281.0Q326.3 282.7 321.9 282.7ZM314.2 263.5L314.2 263.5L328.7 263.5Q328.5 260.1 326.6 258.1Q324.6 256.0 321.5 256.0Q318.5 256.0 316.4 258.1Q314.4 260.2 314.2 263.5ZM349.6 282.6L349.6 282.6Q345.1 282.6 342.2 280.0Q339.2 277.4 339.2 273.2L339.2 273.2Q339.2 269.1 342.3 266.7Q345.4 264.3 351.0 263.9L351.0 263.9L359.3 263.4L359.3 261.2Q359.3 258.8 357.7 257.4Q356.2 256.1 353.5 256.1L353.5 256.1Q351.3 256.1 349.8 256.9Q348.3 257.7 347.0 259.7L347.0 259.7Q345.9 261.2 344.0 261.2L344.0 261.2Q342.7 261.2 341.8 260.4Q340.9 259.6 340.9 258.3L340.9 258.3Q340.9 257.3 341.4 256.3L341.4 256.3Q342.6 253.6 346.0 252.0Q349.3 250.4 353.8 250.4L353.8 250.4Q359.5 250.4 363.0 253.2Q366.5 256.0 366.5 260.7L366.5 260.7L366.5 279.0Q366.5 280.7 365.5 281.7Q364.5 282.7 362.9 282.7L362.9 282.7Q361.4 282.7 360.5 281.8Q359.5 280.9 359.5 279.3L359.5 279.3L359.5 277.1L359.3 277.1Q358.0 279.6 355.3 281.1Q352.7 282.6 349.6 282.6ZM351.8 277.1L351.8 277.1Q354.9 277.1 357.1 275.2Q359.3 273.3 359.3 270.6L359.3 270.6L359.3 268.2L352.1 268.6Q349.4 268.8 348.0 269.9Q346.5 271.1 346.5 272.9L346.5 272.9Q346.5 274.8 348.0 275.9Q349.4 277.1 351.8 277.1ZM378.6 281.6Q377.6 282.7 376.0 282.7Q374.3 282.7 373.3 281.6Q372.3 280.6 372.3 278.8L372.3 278.8L372.3 254.1Q372.3 252.4 373.3 251.4Q374.2 250.4 375.8 250.4L375.8 250.4Q377.4 250.4 378.3 251.4Q379.3 252.4 379.3 254.1L379.3 254.1L379.3 256.5L379.4 256.5Q380.1 253.8 381.9 252.1Q383.7 250.5 386.1 250.5L386.1 250.5Q387.8 250.5 388.7 251.3L388.7 251.3Q389.7 252.1 389.7 253.9L389.7 253.9Q389.7 255.6 388.6 256.5L388.6 256.5Q387.5 257.4 385.4 257.5L385.4 257.5Q379.6 257.5 379.6 263.9L379.6 263.9L379.6 278.8Q379.6 280.6 378.6 281.6ZM399.3 281.7Q398.2 282.7 396.6 282.7Q395.0 282.7 394.0 281.7Q393.0 280.6 393.0 278.8L393.0 278.8L393.0 254.1Q393.0 252.4 393.9 251.4Q394.8 250.4 396.5 250.4Q398.1 250.4 399.1 251.4Q400.1 252.4 400.1 254.1L400.1 254.1L400.1 256.3L400.2 256.3Q402.8 250.4 409.9 250.4L409.9 250.4Q415.0 250.4 417.8 253.5Q420.6 256.6 420.6 262.0L420.6 262.0L420.6 278.8Q420.6 280.6 419.6 281.7Q418.6 282.7 417.0 282.7Q415.4 282.7 414.3 281.7Q413.3 280.6 413.3 278.8L413.3 278.8L413.3 263.5Q413.3 260.1 411.8 258.4Q410.2 256.6 407.1 256.6L407.1 256.6Q404.0 256.6 402.1 258.7Q400.3 260.7 400.3 264.1L400.3 264.1L400.3 278.8Q400.3 280.6 399.3 281.7ZM440.3 282.7L440.3 282.7Q433.1 282.7 429.2 278.5Q425.2 274.2 425.2 266.7L425.2 266.7Q425.2 259.2 429.2 254.8Q433.1 250.4 439.8 250.4L439.8 250.4Q446.2 250.4 450.2 254.4Q454.1 258.5 454.1 264.9L454.1 264.9Q454.1 266.5 453.2 267.4Q452.4 268.3 450.7 268.3L450.7 268.3L432.4 268.3L432.4 268.5Q432.4 272.4 434.5 274.8Q436.7 277.1 440.2 277.1L440.2 277.1Q442.7 277.1 444.4 276.1Q446.2 275.2 448.0 272.9L448.0 272.9Q449.0 271.8 450.4 271.8L450.4 271.8Q451.7 271.8 452.5 272.5Q453.3 273.3 453.3 274.6L453.3 274.6Q453.3 275.4 452.9 276.4L452.9 276.4Q451.3 279.4 448.0 281.0Q444.7 282.7 440.3 282.7ZM432.5 263.5L432.5 263.5L447.0 263.5Q446.9 260.1 444.9 258.1Q442.9 256.0 439.9 256.0Q436.8 256.0 434.7 258.1Q432.7 260.2 432.5 263.5ZM470.4 282.6L470.4 282.6Q464.5 282.6 461.0 278.2Q457.5 273.9 457.5 266.5L457.5 266.5Q457.5 259.2 461.0 254.8Q464.5 250.5 470.4 250.5L470.4 250.5Q473.7 250.5 476.2 252.0Q478.8 253.6 480.0 256.2L480.0 256.2L480.2 256.2L480.2 243.1Q480.2 241.2 481.2 240.2Q482.2 239.2 483.8 239.2Q485.5 239.2 486.5 240.2Q487.5 241.2 487.5 243.1L487.5 243.1L487.5 279.0Q487.5 280.7 486.5 281.7Q485.5 282.7 483.9 282.7L483.9 282.7Q482.3 282.7 481.2 281.7Q480.2 280.7 480.2 279.0L480.2 279.0L480.2 276.6L480.1 276.6Q478.9 279.4 476.4 281.0Q473.9 282.6 470.4 282.6ZM472.6 276.6L472.6 276.6Q476.1 276.6 478.2 273.9Q480.2 271.2 480.2 266.6L480.2 266.6Q480.2 262.0 478.2 259.2Q476.1 256.5 472.6 256.5L472.6 256.5Q469.1 256.5 467.1 259.2Q465.0 261.9 465.0 266.6L465.0 266.6Q465.0 271.2 467.0 273.9Q469.1 276.6 472.6 276.6Z M514.0 281.7Q513.0 282.7 511.3 282.7Q509.7 282.7 508.7 281.7Q507.7 280.7 507.7 278.9L507.7 278.9L507.7 256.6L505.7 256.6Q504.5 256.6 503.7 255.9Q502.9 255.2 502.9 253.9L502.9 253.9Q502.9 252.6 503.7 251.9Q504.5 251.1 505.7 251.1L505.7 251.1L507.7 251.1L507.7 248.4Q507.7 239.5 516.2 239.5L516.2 239.5Q519.0 239.5 520.4 240.3Q521.8 241.1 521.8 242.5L521.8 242.5Q521.8 244.2 520.2 244.6L520.2 244.6Q519.6 244.8 518.6 244.8L518.6 244.8Q516.6 244.9 515.7 245.8Q514.8 246.7 514.8 248.7L514.8 248.7L514.8 251.1L518.8 251.1Q520 251.1 520.8 251.9Q521.6 252.6 521.6 253.9L521.6 253.9Q521.6 255.2 520.8 255.9Q520 256.6 518.8 256.6L518.8 256.6L515.0 256.6L515.0 278.9Q515.0 280.7 514.0 281.7ZM532.2 281.6Q531.2 282.7 529.5 282.7Q527.8 282.7 526.8 281.6Q525.9 280.6 525.9 278.8L525.9 278.8L525.9 254.1Q525.9 252.4 526.8 251.4Q527.8 250.4 529.3 250.4L529.3 250.4Q530.9 250.4 531.8 251.4Q532.8 252.4 532.8 254.1L532.8 254.1L532.8 256.5L532.9 256.5Q533.6 253.8 535.4 252.1Q537.3 250.5 539.6 250.5L539.6 250.5Q541.3 250.5 542.2 251.3L542.2 251.3Q543.2 252.1 543.2 253.9L543.2 253.9Q543.2 255.6 542.1 256.5L542.1 256.5Q541.1 257.4 538.9 257.5L538.9 257.5Q533.2 257.5 533.2 263.9L533.2 263.9L533.2 278.8Q533.2 280.6 532.2 281.6ZM571.2 278.4Q567.1 282.7 560.2 282.7Q553.3 282.7 549.3 278.4Q545.2 274.1 545.2 266.6L545.2 266.6Q545.2 259.1 549.3 254.7Q553.4 250.4 560.2 250.4L560.2 250.4Q567.1 250.4 571.2 254.7Q575.3 259.1 575.3 266.6L575.3 266.6Q575.3 274.1 571.2 278.4ZM554.7 274.2Q556.7 276.9 560.2 276.9Q563.7 276.9 565.8 274.2Q567.8 271.5 567.8 266.6L567.8 266.6Q567.8 261.7 565.8 258.9Q563.7 256.2 560.2 256.2L560.2 256.2Q556.7 256.2 554.7 258.9Q552.6 261.7 552.6 266.6L552.6 266.6Q552.6 271.5 554.7 274.2ZM583.6 282.7L583.6 282.7Q581.9 282.7 580.9 281.7Q579.9 280.6 579.9 278.8L579.9 278.8L579.9 254.1Q579.9 252.4 580.9 251.4Q581.8 250.4 583.4 250.4Q585.0 250.4 586.0 251.4Q586.9 252.4 586.9 254.1L586.9 254.1L586.9 256.4L587.1 256.4Q588.1 253.7 590.5 252.0Q592.8 250.4 595.9 250.4L595.9 250.4Q599.2 250.4 601.5 252.1Q603.8 253.7 604.6 256.7L604.6 256.7L604.8 256.7Q605.9 253.8 608.5 252.1Q611.1 250.4 614.5 250.4L614.5 250.4Q619.1 250.4 621.8 253.3Q624.6 256.1 624.6 260.8L624.6 260.8L624.6 278.8Q624.6 280.6 623.6 281.6Q622.6 282.7 621.0 282.7L621.0 282.7Q619.3 282.7 618.3 281.6Q617.3 280.6 617.3 278.8L617.3 278.8L617.3 262.6Q617.3 259.7 615.8 258.1Q614.4 256.6 611.7 256.6L611.7 256.6Q609.1 256.6 607.5 258.3Q605.8 260.1 605.8 262.9L605.8 262.9L605.8 278.8Q605.8 280.6 604.9 281.7Q603.9 282.7 602.3 282.7L602.3 282.7Q600.6 282.7 599.7 281.7Q598.7 280.6 598.7 278.8L598.7 278.8L598.7 262.2Q598.7 259.6 597.2 258.1Q595.8 256.6 593.2 256.6L593.2 256.6Q590.6 256.6 588.9 258.4Q587.2 260.3 587.2 263.1L587.2 263.1L587.2 278.8Q587.2 280.6 586.2 281.6Q585.2 282.7 583.6 282.7Z M660.5 282.8L660.5 282.8Q652.6 282.8 647.9 278.5Q643.2 274.2 643.2 267.2L643.2 267.2L643.2 243.2Q643.2 241.4 644.2 240.3Q645.2 239.3 646.9 239.3L646.9 239.3Q648.7 239.3 649.7 240.3Q650.7 241.4 650.7 243.2L650.7 243.2L650.7 266.5Q650.7 270.9 653.3 273.5Q655.9 276.2 660.5 276.2Q665.2 276.2 667.8 273.5Q670.4 270.9 670.4 266.5L670.4 266.5L670.4 243.2Q670.4 241.4 671.4 240.3Q672.4 239.3 674.2 239.3L674.2 239.3Q675.9 239.3 676.9 240.3Q677.9 241.4 677.9 243.2L677.9 243.2L677.9 267.2Q677.9 274.2 673.2 278.5Q668.5 282.8 660.5 282.8ZM696.6 282.7L696.6 282.7Q691.8 282.7 688.5 281.0Q685.1 279.3 684.0 276.5L684.0 276.5Q683.7 275.7 683.7 275.0L683.7 275.0Q683.7 273.7 684.5 272.9Q685.4 272.1 686.7 272.1L686.7 272.1Q688.5 272.1 689.9 273.9L689.9 273.9Q691.2 275.8 692.7 276.6Q694.3 277.4 696.9 277.4L696.9 277.4Q699.5 277.4 701.0 276.4Q702.5 275.3 702.5 273.6L702.5 273.6Q702.5 272.2 701.6 271.3Q700.6 270.5 698.2 269.9L698.2 269.9L693.1 268.8Q684.1 266.8 684.1 259.9L684.1 259.9Q684.1 255.6 687.5 253.0Q691.0 250.4 696.7 250.4L696.7 250.4Q701.1 250.4 704.4 252.3Q707.6 254.1 708.3 256.9L708.3 256.9Q708.5 257.5 708.5 258.0L708.5 258.0Q708.5 259.1 707.7 259.9Q707.0 260.6 705.7 260.6L705.7 260.6Q703.8 260.6 702.9 259.2L702.9 259.2Q701.7 257.5 700.2 256.6Q698.8 255.7 696.6 255.7L696.6 255.7Q694.2 255.7 692.7 256.8Q691.2 257.8 691.2 259.5L691.2 259.5Q691.2 262.3 695.8 263.3L695.8 263.3L700.7 264.4Q705.6 265.5 707.7 267.4Q709.9 269.4 709.9 272.8L709.9 272.8Q709.9 277.3 706.2 280.0Q702.6 282.7 696.6 282.7ZM721.2 245.5Q720.0 246.7 718.3 246.7Q716.6 246.7 715.4 245.5Q714.2 244.3 714.2 242.7L714.2 242.7Q714.2 241.0 715.4 239.9Q716.6 238.7 718.3 238.7L718.3 238.7Q720.0 238.7 721.2 239.9Q722.4 241.0 722.4 242.7L722.4 242.7Q722.4 244.3 721.2 245.5ZM720.9 281.6Q720.0 282.7 718.3 282.7Q716.6 282.7 715.6 281.6Q714.6 280.6 714.6 278.8L714.6 278.8L714.6 254.2Q714.6 252.5 715.6 251.4Q716.6 250.4 718.3 250.4Q720.0 250.4 720.9 251.4Q721.9 252.5 721.9 254.3L721.9 254.3L721.9 278.8Q721.9 280.6 720.9 281.6ZM734.4 281.7Q733.3 282.7 731.7 282.7Q730.1 282.7 729.1 281.7Q728.1 280.6 728.1 278.8L728.1 278.8L728.1 254.1Q728.1 252.4 729.0 251.4Q729.9 250.4 731.6 250.4Q733.2 250.4 734.2 251.4Q735.2 252.4 735.2 254.1L735.2 254.1L735.2 256.3L735.3 256.3Q737.9 250.4 745.0 250.4L745.0 250.4Q750.1 250.4 752.9 253.5Q755.7 256.6 755.7 262.0L755.7 262.0L755.7 278.8Q755.7 280.6 754.7 281.7Q753.7 282.7 752.1 282.7Q750.4 282.7 749.4 281.7Q748.4 280.6 748.4 278.8L748.4 278.8L748.4 263.5Q748.4 260.1 746.9 258.4Q745.3 256.6 742.2 256.6L742.2 256.6Q739.1 256.6 737.2 258.7Q735.4 260.7 735.4 264.1L735.4 264.1L735.4 278.8Q735.4 280.6 734.4 281.7ZM774.9 293.8L774.9 293.8Q770.6 293.7 767.3 292.2Q764.0 290.7 762.3 288.1L762.3 288.1Q761.7 287.1 761.7 285.9L761.7 285.9Q761.7 284.7 762.6 283.9Q763.4 283.1 764.8 283.1L764.8 283.1Q766.2 283.1 767.4 284.3L767.4 284.3Q769.3 286.2 771.1 287.1Q772.8 287.9 775 288.0L775 288.0Q778.7 288.0 780.8 286.1Q782.9 284.2 782.9 281.1L782.9 281.1L782.9 276.2L782.8 276.2Q781.5 278.7 778.9 280.2Q776.3 281.8 773.0 281.8L773.0 281.8Q767.2 281.8 763.7 277.5Q760.3 273.3 760.3 266.2L760.3 266.2Q760.3 258.9 763.7 254.7Q767.2 250.5 773.2 250.5L773.2 250.5Q776.4 250.5 778.9 252.0Q781.4 253.6 782.8 256.3L782.8 256.3L782.9 256.3L782.9 254.1Q782.9 252.4 784.0 251.4Q785.0 250.4 786.6 250.4Q788.2 250.4 789.2 251.4Q790.2 252.4 790.2 254.1L790.2 254.1L790.2 281.1Q790.2 287.0 786.2 290.4Q782.1 293.8 774.9 293.8ZM775.3 276.1L775.3 276.1Q778.8 276.1 780.9 273.4Q783.0 270.8 783.0 266.2L783.0 266.2Q783.0 261.7 780.9 259.0Q778.8 256.3 775.3 256.3L775.3 256.3Q771.8 256.3 769.8 259.0Q767.7 261.7 767.7 266.2L767.7 266.2Q767.7 270.8 769.8 273.5Q771.8 276.1 775.3 276.1Z M832.7 282.1L812.7 282.1Q810.9 282.1 809.9 281.0Q808.9 280.0 808.9 278.2L808.9 278.2L808.9 243.2Q808.9 241.4 809.9 240.3Q810.9 239.3 812.7 239.3L812.7 239.3Q814.5 239.3 815.5 240.3Q816.5 241.4 816.5 243.2L816.5 243.2L816.5 275.7L832.7 275.7Q834.2 275.7 835.2 276.6Q836.1 277.4 836.1 278.9Q836.1 280.3 835.2 281.2Q834.3 282.1 832.7 282.1L832.7 282.1ZM864.9 282.1L844.9 282.1Q843.1 282.1 842.1 281.0Q841.1 280.0 841.1 278.2L841.1 278.2L841.1 243.2Q841.1 241.4 842.1 240.3Q843.1 239.3 844.9 239.3L844.9 239.3Q846.7 239.3 847.7 240.3Q848.7 241.4 848.7 243.2L848.7 243.2L848.7 275.7L864.9 275.7Q866.4 275.7 867.4 276.6Q868.3 277.4 868.3 278.9Q868.3 280.3 867.4 281.2Q866.4 282.1 864.9 282.1L864.9 282.1ZM879.2 281.6Q878.3 282.6 876.7 282.6Q875.0 282.6 874.2 281.6Q873.3 280.7 873.3 279.0L873.3 279.0L873.3 244.1Q873.3 241.9 874.6 240.6Q875.9 239.3 878.1 239.3L878.1 239.3Q880.1 239.3 881.3 240.2Q882.5 241.1 883.3 243.2L883.3 243.2L895.0 271.7L895.2 271.7L906.8 243.2Q907.7 241.2 908.9 240.2Q910.1 239.3 912.1 239.3L912.1 239.3Q914.3 239.3 915.6 240.6Q916.9 241.9 916.9 244.1L916.9 244.1L916.9 279.0Q916.9 280.7 916.0 281.6Q915.1 282.6 913.5 282.6Q911.9 282.6 911.0 281.6Q910.1 280.7 910.1 279.0L910.1 279.0L910.1 252.1L909.9 252.1L898.7 279.3Q897.6 281.8 895.1 281.8L895.1 281.8Q892.5 281.8 891.5 279.3L891.5 279.3L880.3 252.1L880.1 252.1L880.1 279.0Q880.1 280.7 879.2 281.6ZM935.6 282.7L935.6 282.7Q930.8 282.7 927.4 281.0Q924.1 279.3 922.9 276.5L922.9 276.5Q922.7 275.7 922.7 275.0L922.7 275.0Q922.7 273.7 923.5 272.9Q924.4 272.1 925.7 272.1L925.7 272.1Q927.5 272.1 928.9 273.9L928.9 273.9Q930.1 275.8 931.7 276.6Q933.3 277.4 935.9 277.4L935.9 277.4Q938.4 277.4 940.0 276.4Q941.5 275.3 941.5 273.6L941.5 273.6Q941.5 272.2 940.5 271.3Q939.5 270.5 937.2 269.9L937.2 269.9L932.1 268.8Q923.1 266.8 923.1 259.9L923.1 259.9Q923.1 255.6 926.5 253.0Q930.0 250.4 935.7 250.4L935.7 250.4Q940.1 250.4 943.3 252.3Q946.6 254.1 947.3 256.9L947.3 256.9Q947.4 257.5 947.4 258.0L947.4 258.0Q947.4 259.1 946.7 259.9Q946.0 260.6 944.6 260.6L944.6 260.6Q942.8 260.6 941.8 259.2L941.8 259.2Q940.7 257.5 939.2 256.6Q937.7 255.7 935.5 255.7L935.5 255.7Q933.1 255.7 931.7 256.8Q930.2 257.8 930.2 259.5L930.2 259.5Q930.2 262.3 934.7 263.3L934.7 263.3L939.7 264.4Q944.6 265.5 946.7 267.4Q948.8 269.4 948.8 272.8L948.8 272.8Q948.8 277.3 945.2 280.0Q941.6 282.7 935.6 282.7Z M972.2 245.5Q971.0 246.7 969.3 246.7Q967.6 246.7 966.4 245.5Q965.2 244.3 965.2 242.7L965.2 242.7Q965.2 241.0 966.4 239.9Q967.6 238.7 969.3 238.7L969.3 238.7Q971.0 238.7 972.2 239.9Q973.3 241.0 973.3 242.7L973.3 242.7Q973.3 244.3 972.2 245.5ZM971.9 281.6Q970.9 282.7 969.3 282.7Q967.6 282.7 966.6 281.6Q965.6 280.6 965.6 278.8L965.6 278.8L965.6 254.2Q965.6 252.5 966.6 251.4Q967.6 250.4 969.3 250.4Q970.9 250.4 971.9 251.4Q972.9 252.5 972.9 254.3L972.9 254.3L972.9 278.8Q972.9 280.6 971.9 281.6ZM985.3 281.7Q984.3 282.7 982.7 282.7Q981.0 282.7 980.0 281.7Q979.1 280.6 979.1 278.8L979.1 278.8L979.1 254.1Q979.1 252.4 980.0 251.4Q980.9 250.4 982.5 250.4Q984.2 250.4 985.1 251.4Q986.1 252.4 986.1 254.1L986.1 254.1L986.1 256.3L986.3 256.3Q988.9 250.4 996.0 250.4L996.0 250.4Q1001.1 250.4 1003.9 253.5Q1006.7 256.6 1006.7 262.0L1006.7 262.0L1006.7 278.8Q1006.7 280.6 1005.7 281.7Q1004.7 282.7 1003.1 282.7Q1001.4 282.7 1000.4 281.7Q999.4 280.6 999.4 278.8L999.4 278.8L999.4 263.5Q999.4 260.1 997.8 258.4Q996.3 256.6 993.2 256.6L993.2 256.6Q990.1 256.6 988.2 258.7Q986.3 260.7 986.3 264.1L986.3 264.1L986.3 278.8Q986.3 280.6 985.3 281.7Z M50.3 364.1Q49.3 365.2 47.5 365.2Q45.7 365.2 44.7 364.1Q43.7 363.1 43.7 361.2L43.7 361.2L43.7 326.2Q43.7 324.4 44.7 323.3Q45.7 322.3 47.5 322.3L47.5 322.3L60.5 322.3Q67.3 322.3 71.2 325.8Q75.1 329.4 75.1 335.5L75.1 335.5Q75.1 339.6 73.1 342.8Q71.1 346.0 67.4 347.4L67.4 347.4L74.1 359.1Q74.9 360.5 74.9 361.7L74.9 361.7Q74.9 363.2 73.8 364.2Q72.8 365.2 71.1 365.2L71.1 365.2Q69.8 365.2 69.0 364.6Q68.2 364.0 67.3 362.4L67.3 362.4L59.7 348.7L51.3 348.7L51.3 361.2Q51.3 363.1 50.3 364.1ZM51.3 328.4L51.3 342.9L59.8 342.9Q63.4 342.9 65.4 341.0Q67.4 339.1 67.4 335.6L67.4 335.6Q67.4 332.3 65.3 330.4Q63.2 328.4 59.7 328.4L59.7 328.4L51.3 328.4ZM105.2 360.9Q101.1 365.2 94.2 365.2Q87.3 365.2 83.3 360.9Q79.2 356.6 79.2 349.1L79.2 349.1Q79.2 341.6 83.3 337.2Q87.4 332.9 94.2 332.9L94.2 332.9Q101.1 332.9 105.2 337.2Q109.3 341.6 109.3 349.1L109.3 349.1Q109.3 356.6 105.2 360.9ZM88.7 356.7Q90.7 359.4 94.2 359.4Q97.7 359.4 99.8 356.7Q101.8 354.0 101.8 349.1L101.8 349.1Q101.8 344.2 99.8 341.4Q97.7 338.7 94.2 338.7L94.2 338.7Q90.7 338.7 88.7 341.4Q86.6 344.2 86.6 349.1L86.6 349.1Q86.6 354.0 88.7 356.7ZM120.3 364.2Q119.3 365.2 117.7 365.2Q116.1 365.2 115.1 364.2Q114.2 363.3 114.2 361.5L114.2 361.5L114.2 325.6Q114.2 323.7 115.2 322.7Q116.2 321.7 117.8 321.7Q119.5 321.7 120.4 322.7Q121.4 323.7 121.4 325.6L121.4 325.6L121.4 338.9L121.6 338.9Q123.0 336.1 125.5 334.5Q128.1 333.0 131.3 333.0L131.3 333.0Q137.2 333.0 140.7 337.3Q144.2 341.6 144.2 349.1L144.2 349.1Q144.2 356.5 140.7 360.8Q137.2 365.1 131.3 365.1L131.3 365.1Q127.9 365.1 125.4 363.6Q122.9 362.0 121.4 359.3L121.4 359.3L121.3 359.3L121.3 361.5Q121.3 363.2 120.3 364.2ZM129.1 359.1L129.1 359.1Q132.6 359.1 134.6 356.4Q136.7 353.7 136.7 349.1Q136.7 344.4 134.6 341.7Q132.6 339.0 129.1 339.0L129.1 339.0Q125.7 339.0 123.6 341.8Q121.4 344.5 121.4 349.1L121.4 349.1Q121.4 353.6 123.6 356.3Q125.7 359.1 129.1 359.1ZM173.5 360.9Q169.5 365.2 162.6 365.2Q155.7 365.2 151.6 360.9Q147.5 356.6 147.5 349.1L147.5 349.1Q147.5 341.6 151.7 337.2Q155.8 332.9 162.6 332.9L162.6 332.9Q169.4 332.9 173.5 337.2Q177.6 341.6 177.6 349.1L177.6 349.1Q177.6 356.6 173.5 360.9ZM157.0 356.7Q159.1 359.4 162.6 359.4Q166.1 359.4 168.1 356.7Q170.2 354.0 170.2 349.1L170.2 349.1Q170.2 344.2 168.1 341.4Q166.1 338.7 162.6 338.7L162.6 338.7Q159.1 338.7 157.0 341.4Q155.0 344.2 155.0 349.1L155.0 349.1Q155.0 354.0 157.0 356.7ZM184.3 356.9L184.3 356.9L184.3 339.1L182.4 339.1Q181.0 339.1 180.2 338.4Q179.4 337.6 179.4 336.3L179.4 336.3Q179.4 335.0 180.2 334.3Q181.0 333.5 182.4 333.5L182.4 333.5L184.3 333.5L184.3 329.4Q184.3 327.6 185.3 326.6Q186.3 325.6 188.0 325.6L188.0 325.6Q189.6 325.6 190.6 326.6Q191.6 327.6 191.6 329.4L191.6 329.4L191.6 333.5L195.0 333.5Q196.4 333.5 197.1 334.3Q197.9 335.0 197.9 336.3L197.9 336.3Q197.9 337.6 197.1 338.4Q196.3 339.1 195.0 339.1L195.0 339.1L191.6 339.1L191.6 355.3Q191.6 357.1 192.3 357.9Q193.0 358.7 194.5 358.9L194.5 358.9L195.1 358.9Q198.0 359.2 198.0 361.6L198.0 361.6Q198.0 363.2 196.7 364.1Q195.3 364.9 192.8 364.9L192.8 364.9L192.5 364.9Q184.3 364.9 184.3 356.9Z M218.9 365.1L218.9 365.1Q217.2 365.1 216.2 364.0Q215.2 363.0 215.2 361.2L215.2 361.2L215.2 326.2Q215.2 324.4 216.2 323.3Q217.2 322.3 218.9 322.3L218.9 322.3L231.6 322.3Q237.9 322.3 241.9 326.2Q245.8 330.1 245.8 336.5L245.8 336.5Q245.8 342.8 241.8 346.7Q237.7 350.6 231.3 350.6L231.3 350.6L222.7 350.6L222.7 361.2Q222.7 363.0 221.7 364.1Q220.7 365.1 218.9 365.1ZM222.7 328.5L222.7 344.5L229.6 344.5Q233.7 344.5 235.9 342.4Q238.2 340.3 238.2 336.5L238.2 336.5Q238.2 332.6 235.9 330.6Q233.7 328.5 229.6 328.5L229.6 328.5L222.7 328.5ZM256.9 364.1Q255.9 365.2 254.2 365.2Q252.6 365.2 251.6 364.1Q250.6 363.1 250.6 361.3L250.6 361.3L250.6 336.6Q250.6 334.9 251.6 333.9Q252.5 332.9 254.1 332.9L254.1 332.9Q255.6 332.9 256.6 333.9Q257.6 334.9 257.6 336.6L257.6 336.6L257.6 339.0L257.7 339.0Q258.3 336.3 260.2 334.6Q262.0 333.0 264.4 333.0L264.4 333.0Q266.1 333.0 266.9 333.8L266.9 333.8Q268.0 334.6 268.0 336.4L268.0 336.4Q268.0 338.1 266.9 339.0L266.9 339.0Q265.8 339.9 263.7 340.0L263.7 340.0Q257.9 340.0 257.9 346.4L257.9 346.4L257.9 361.3Q257.9 363.1 256.9 364.1ZM295.9 360.9Q291.9 365.2 285.0 365.2Q278.1 365.2 274.0 360.9Q270.0 356.6 270.0 349.1L270.0 349.1Q270.0 341.6 274.1 337.2Q278.2 332.9 285.0 332.9L285.0 332.9Q291.8 332.9 295.9 337.2Q300.0 341.6 300.0 349.1L300.0 349.1Q300.0 356.6 295.9 360.9ZM279.4 356.7Q281.5 359.4 285.0 359.4Q288.5 359.4 290.5 356.7Q292.6 354.0 292.6 349.1L292.6 349.1Q292.6 344.2 290.5 341.4Q288.5 338.7 285.0 338.7L285.0 338.7Q281.5 338.7 279.4 341.4Q277.4 344.2 277.4 349.1L277.4 349.1Q277.4 354.0 279.4 356.7ZM318.1 376.3L318.1 376.3Q313.7 376.2 310.4 374.7Q307.1 373.2 305.5 370.6L305.5 370.6Q304.9 369.6 304.9 368.4L304.9 368.4Q304.9 367.2 305.7 366.4Q306.5 365.6 307.9 365.6L307.9 365.6Q309.3 365.6 310.6 366.8L310.6 366.8Q312.5 368.7 314.2 369.6Q316.0 370.4 318.1 370.5L318.1 370.5Q321.8 370.5 323.9 368.6Q326.1 366.7 326.1 363.6L326.1 363.6L326.1 358.7L325.9 358.7Q324.7 361.2 322.1 362.7Q319.5 364.3 316.2 364.3L316.2 364.3Q310.3 364.3 306.9 360.0Q303.4 355.8 303.4 348.7L303.4 348.7Q303.4 341.4 306.9 337.2Q310.3 333.0 316.3 333.0L316.3 333.0Q319.6 333.0 322.1 334.5Q324.6 336.1 326.0 338.8L326.0 338.8L326.1 338.8L326.1 336.6Q326.1 334.9 327.1 333.9Q328.1 332.9 329.7 332.9Q331.4 332.9 332.4 333.9Q333.4 334.9 333.4 336.6L333.4 336.6L333.4 363.6Q333.4 369.5 329.3 372.9Q325.2 376.3 318.1 376.3ZM318.4 358.6L318.4 358.6Q321.9 358.6 324.0 355.9Q326.1 353.3 326.1 348.7L326.1 348.7Q326.1 344.2 324.0 341.5Q321.9 338.8 318.4 338.8L318.4 338.8Q315.0 338.8 312.9 341.5Q310.9 344.2 310.9 348.7L310.9 348.7Q310.9 353.3 312.9 356.0Q315.0 358.6 318.4 358.6ZM345.6 364.1Q344.6 365.2 343.0 365.2Q341.3 365.2 340.3 364.1Q339.3 363.1 339.3 361.3L339.3 361.3L339.3 336.6Q339.3 334.9 340.3 333.9Q341.2 332.9 342.8 332.9L342.8 332.9Q344.3 332.9 345.3 333.9Q346.3 334.9 346.3 336.6L346.3 336.6L346.3 339.0L346.4 339.0Q347.1 336.3 348.9 334.6Q350.7 333.0 353.1 333.0L353.1 333.0Q354.8 333.0 355.6 333.8L355.6 333.8Q356.7 334.6 356.7 336.4L356.7 336.4Q356.7 338.1 355.6 339.0L355.6 339.0Q354.5 339.9 352.4 340.0L352.4 340.0Q346.6 340.0 346.6 346.4L346.6 346.4L346.6 361.3Q346.6 363.1 345.6 364.1ZM369.1 365.1L369.1 365.1Q364.5 365.1 361.6 362.5Q358.7 359.9 358.7 355.7L358.7 355.7Q358.7 351.6 361.8 349.2Q364.8 346.8 370.5 346.4L370.5 346.4L378.7 345.9L378.7 343.7Q378.7 341.3 377.2 339.9Q375.7 338.6 372.9 338.6L372.9 338.6Q370.8 338.6 369.3 339.4Q367.8 340.2 366.4 342.2L366.4 342.2Q365.3 343.7 363.5 343.7L363.5 343.7Q362.1 343.7 361.3 342.9Q360.4 342.1 360.4 340.8L360.4 340.8Q360.4 339.8 360.9 338.8L360.9 338.8Q362.1 336.1 365.4 334.5Q368.8 332.9 373.2 332.9L373.2 332.9Q379.0 332.9 382.5 335.7Q385.9 338.5 385.9 343.2L385.9 343.2L385.9 361.5Q385.9 363.2 385.0 364.2Q384.0 365.2 382.4 365.2L382.4 365.2Q380.9 365.2 379.9 364.3Q379.0 363.4 378.9 361.8L378.9 361.8L378.9 359.6L378.8 359.6Q377.4 362.1 374.8 363.6Q372.1 365.1 369.1 365.1ZM371.3 359.6L371.3 359.6Q374.4 359.6 376.6 357.7Q378.7 355.8 378.7 353.1L378.7 353.1L378.7 350.7L371.5 351.1Q368.9 351.3 367.4 352.4Q366.0 353.6 366.0 355.4L366.0 355.4Q366.0 357.3 367.4 358.4Q368.9 359.6 371.3 359.6ZM395.4 365.2L395.4 365.2Q393.8 365.2 392.8 364.2Q391.8 363.1 391.8 361.3L391.8 361.3L391.8 336.6Q391.8 334.9 392.7 333.9Q393.7 332.9 395.3 332.9Q396.9 332.9 397.8 333.9Q398.8 334.9 398.8 336.6L398.8 336.6L398.8 338.9L398.9 338.9Q400.0 336.2 402.3 334.5Q404.7 332.9 407.8 332.9L407.8 332.9Q411.1 332.9 413.3 334.6Q415.6 336.2 416.5 339.2L416.5 339.2L416.6 339.2Q417.8 336.3 420.3 334.6Q422.9 332.9 426.3 332.9L426.3 332.9Q430.9 332.9 433.7 335.8Q436.4 338.6 436.4 343.3L436.4 343.3L436.4 361.3Q436.4 363.1 435.4 364.1Q434.5 365.2 432.8 365.2L432.8 365.2Q431.1 365.2 430.1 364.1Q429.2 363.1 429.2 361.3L429.2 361.3L429.2 345.1Q429.2 342.2 427.7 340.6Q426.3 339.1 423.6 339.1L423.6 339.1Q420.9 339.1 419.3 340.8Q417.7 342.6 417.7 345.4L417.7 345.4L417.7 361.3Q417.7 363.1 416.7 364.2Q415.8 365.2 414.1 365.2L414.1 365.2Q412.5 365.2 411.5 364.2Q410.6 363.1 410.6 361.3L410.6 361.3L410.6 344.7Q410.6 342.1 409.1 340.6Q407.6 339.1 405.1 339.1L405.1 339.1Q402.4 339.1 400.8 340.9Q399.1 342.8 399.1 345.6L399.1 345.6L399.1 361.3Q399.1 363.1 398.1 364.1Q397.1 365.2 395.4 365.2ZM445.9 365.2L445.9 365.2Q444.2 365.2 443.3 364.2Q442.3 363.1 442.3 361.3L442.3 361.3L442.3 336.6Q442.3 334.9 443.2 333.9Q444.2 332.9 445.8 332.9Q447.3 332.9 448.3 333.9Q449.3 334.9 449.3 336.6L449.3 336.6L449.3 338.9L449.4 338.9Q450.4 336.2 452.8 334.5Q455.1 332.9 458.3 332.9L458.3 332.9Q461.6 332.9 463.8 334.6Q466.1 336.2 466.9 339.2L466.9 339.2L467.1 339.2Q468.2 336.3 470.8 334.6Q473.4 332.9 476.8 332.9L476.8 332.9Q481.4 332.9 484.2 335.8Q486.9 338.6 486.9 343.3L486.9 343.3L486.9 361.3Q486.9 363.1 485.9 364.1Q484.9 365.2 483.3 365.2L483.3 365.2Q481.6 365.2 480.6 364.1Q479.6 363.1 479.6 361.3L479.6 361.3L479.6 345.1Q479.6 342.2 478.2 340.6Q476.7 339.1 474.1 339.1L474.1 339.1Q471.4 339.1 469.8 340.8Q468.1 342.6 468.1 345.4L468.1 345.4L468.1 361.3Q468.1 363.1 467.2 364.2Q466.2 365.2 464.6 365.2L464.6 365.2Q462.9 365.2 462.0 364.2Q461.1 363.1 461.1 361.3L461.1 361.3L461.1 344.7Q461.1 342.1 459.6 340.6Q458.1 339.1 455.5 339.1L455.5 339.1Q452.9 339.1 451.2 340.9Q449.6 342.8 449.6 345.6L449.6 345.6L449.6 361.3Q449.6 363.1 448.6 364.1Q447.5 365.2 445.9 365.2ZM499.4 328.0Q498.3 329.2 496.6 329.2Q494.9 329.2 493.7 328.0Q492.5 326.8 492.5 325.2L492.5 325.2Q492.5 323.5 493.7 322.4Q494.9 321.2 496.6 321.2L496.6 321.2Q498.3 321.2 499.5 322.4Q500.6 323.5 500.6 325.2L500.6 325.2Q500.6 326.8 499.4 328.0ZM499.2 364.1Q498.2 365.2 496.6 365.2Q494.9 365.2 493.9 364.1Q492.9 363.1 492.9 361.3L492.9 361.3L492.9 336.7Q492.9 335.0 493.9 333.9Q494.9 332.9 496.6 332.9Q498.2 332.9 499.2 333.9Q500.2 335.0 500.2 336.8L500.2 336.8L500.2 361.3Q500.2 363.1 499.2 364.1ZM512.6 364.2Q511.6 365.2 510.0 365.2Q508.3 365.2 507.3 364.2Q506.3 363.1 506.3 361.3L506.3 361.3L506.3 336.6Q506.3 334.9 507.3 333.9Q508.2 332.9 509.8 332.9Q511.4 332.9 512.4 333.9Q513.4 334.9 513.4 336.6L513.4 336.6L513.4 338.8L513.6 338.8Q516.2 332.9 523.3 332.9L523.3 332.9Q528.3 332.9 531.2 336.0Q534.0 339.1 534.0 344.5L534.0 344.5L534.0 361.3Q534.0 363.1 533.0 364.2Q532.0 365.2 530.4 365.2Q528.7 365.2 527.7 364.2Q526.7 363.1 526.7 361.3L526.7 361.3L526.7 346.0Q526.7 342.6 525.1 340.9Q523.6 339.1 520.5 339.1L520.5 339.1Q517.4 339.1 515.5 341.2Q513.6 343.2 513.6 346.6L513.6 346.6L513.6 361.3Q513.6 363.1 512.6 364.2ZM553.2 376.3L553.2 376.3Q548.9 376.2 545.5 374.7Q542.2 373.2 540.6 370.6L540.6 370.6Q540.0 369.6 540.0 368.4L540.0 368.4Q540.0 367.2 540.8 366.4Q541.7 365.6 543.1 365.6L543.1 365.6Q544.5 365.6 545.7 366.8L545.7 366.8Q547.6 368.7 549.4 369.6Q551.1 370.4 553.3 370.5L553.3 370.5Q556.9 370.5 559.1 368.6Q561.2 366.7 561.2 363.6L561.2 363.6L561.2 358.7L561.0 358.7Q559.8 361.2 557.2 362.7Q554.6 364.3 551.3 364.3L551.3 364.3Q545.5 364.3 542.0 360.0Q538.5 355.8 538.5 348.7L538.5 348.7Q538.5 341.4 542.0 337.2Q545.5 333.0 551.5 333.0L551.5 333.0Q554.7 333.0 557.2 334.5Q559.7 336.1 561.1 338.8L561.1 338.8L561.2 338.8L561.2 336.6Q561.2 334.9 562.2 333.9Q563.3 332.9 564.9 332.9Q566.5 332.9 567.5 333.9Q568.5 334.9 568.5 336.6L568.5 336.6L568.5 363.6Q568.5 369.5 564.4 372.9Q560.4 376.3 553.2 376.3ZM553.5 358.6L553.5 358.6Q557.1 358.6 559.2 355.9Q561.3 353.3 561.3 348.7L561.3 348.7Q561.3 344.2 559.1 341.5Q557.0 338.8 553.5 338.8L553.5 338.8Q550.1 338.8 548.1 341.5Q546.0 344.2 546.0 348.7L546.0 348.7Q546.0 353.3 548.1 356.0Q550.1 358.6 553.5 358.6Z "/><defs><clipPath id="satori_bc-id-0-1"><rect x="0" y="441" width="1200" height="189"/></clipPath></defs><mask id="satori_om-id-0-1"><rect x="0" y="442" width="1200" height="188" fill="#fff"/><path width="1200" height="189" fill="none" stroke="#000" stroke-width="2" d="M0,441 A0,0 0 0 1 0,441 h1200 A0,0 0 0 1 1200,441"/></mask><path width="1200" height="189" clip-path="url(#satori_bc-id-0-1)" fill="none" stroke="#dbdbdb" stroke-width="2" d="M0,441 A0,0 0 0 1 0,441 h1200 A0,0 0 0 1 1200,441"/><mask id="satori_om-id-0-1-0"><rect x="40" y="482" width="389" height="108" fill="#fff"/></mask><clipPath id="satori_cp-id-0-1-0-0"><rect x="40" y="504" width="64" height="64"/></clipPath><mask id="satori_om-id-0-1-0-0"><rect x="40" y="504" width="64" height="64" fill="#fff"/></mask><image x="40" y="504" width="64" height="64" href="data:image/svg+xml;utf8,%3Csvg  xmlns=%22http://www.w3.org/2000/svg%22 width=%2264%22 height=%2264%22 viewBox=%220 0 128 128%22%3E%3Cpath fill=%22%23224d67%22 d=%22M22.5 14.8c2.9 1.3 99 44 99 44c2.7 1.2 2.9 3.1 2 12.4c-1 10.5-1.9 37.8-40.2 42.9c-24.6 3.2-55.9-4.3-70.9-27.2C-6 58.8 11 23.4 14.8 17.7c2.4-3.5 4.8-4.2 7.7-2.9%22%3E%3C/path%3E%3Cpath fill=%22%23f0f4c3%22 d=%22M121.5 58.8c-.3-.2-92-40.8-98.9-43.9C9.6 31.5-3.8 76 27.9 96.2c33.6 21.5 78.7-10.2 93.6-37.4%22%3E%3C/path%3E%3Cpath fill=%22%23f0f4c3%22 d=%22M117.7 57c-.3-.2-86.7-38.4-93.2-41.3c-12.2 15.5-23.9 59.1 5.7 78c31.4 20.2 73.6-11.2 87.5-36.7%22%3E%3C/path%3E%3Cpath fill=%22%23cb2a42%22 d=%22M56.2 37.6L19.5 48.2c-2.5.8-4.4 2.8-5 5.3c-1.9 8.5.8 23.3 8.9 29.8c3.5 2.7 8.6 1.8 10.8-2.1L58.5 41c1.3-1.7.5-4.2-2.3-3.4m14.3 2.9s14.6 30.1 16 33s6.3 4.7 9.9 2.8c10.7-5.6 15.5-12.4 19.2-20.2c-8.9-3.9-42.4-18.8-42.4-18.8c-2.4-1.1-4 .6-2.7 3.2m-8.6 1.9C60.3 45.1 39.5 81 37.6 84.1c-1.9 3.2-.7 7.5 2.7 9.2c12.3 6.5 30.9.4 39.6-7c2.2-1.9 4.5-5.1 3.2-8.2S68.9 44.6 67.8 42.3c-1.2-2.7-4.1-2.8-5.9.1%22%3E%3C/path%3E%3Cpath fill=%22%23f0f4c3%22 d=%22M52.2 42.2c-1.4.4-10.1 3-11.1 3.4c-1.4.5-2.2 1.7-1.9 2.5c.3.9 1.7 1.1 3.1.6c.8-.3 7.1-3.9 9.5-5.2c-3.1 2.4-10.2 9.4-11.1 10.3c-1.4 1.5-1.7 3.4-.8 4.3c1 .9 2.9.5 4.3-1c1.2-1.3 8.5-12.8 9.1-13.9s.4-1.4-1.1-1m10.1 16.4c0-2.2 1.4-10.3 1.8-12.3c.4-1.6 1.5-1.8 1.8.5s1.7 9.7 1.7 11.8s-1.2 3.3-2.7 3.3c-1.4 0-2.6-1.1-2.6-3.3M79.9 49c-1.2-1.8-3.3-4.9-4.1-6.1c-.7-1.2.1-2.1 1.8-.9s4 2.9 5.4 4c1.6 1.3 1.9 3 .8 4s-2.7.8-3.9-1%22%3E%3C/path%3E%3Cellipse cx=%2287.3%22 cy=%22103.12%22 fill=%22%23cb2a42%22 rx=%223.4%22 ry=%222.3%22 transform=%22rotate(-27.098 87.298 103.126)%22%3E%3C/ellipse%3E%3Cellipse cx=%2298.89%22 cy=%22103.82%22 fill=%22%23cb2a42%22 rx=%223.4%22 ry=%222.3%22 transform=%22rotate(-30.642 98.887 103.818)%22%3E%3C/ellipse%3E%3Cellipse cx=%22102.02%22 cy=%2293.8%22 fill=%22%23cb2a42%22 rx=%223.4%22 ry=%222.3%22 transform=%22rotate(-37.16 102.017 93.797)%22%3E%3C/ellipse%3E%3Cpath fill=%22%23cb2a42%22 d=%22M57.6 30.3c-8.3-3.7-24.4-10.7-29.6-13c-3.6 2.2-9.7 11.4-11.2 21.2c-.6 3.6 1.7 5.9 5.3 4.9c0 0 33.7-9.3 35.3-9.7c1.6-.5 2-2.6.2-3.4%22%3E%3C/path%3E%3C/svg%3E" preserveAspectRatio="none" clip-path="url(#satori_cp-id-0-1-0-0)" mask="url(#satori_om-id-0-1-0-0)"/><mask id="satori_om-id-0-1-0-0-0"><rect x="40" y="504" width="0" height="64" fill="#fff"/></mask><mask id="satori_om-id-0-1-0-0-1"><rect x="40" y="504" width="0" height="64" fill="#fff"/></mask><mask id="satori_om-id-0-1-0-0-2"><rect x="40" y="504" width="0" height="64" fill="#fff"/></mask><mask id="satori_om-id-0-1-0-0-3"><rect x="40" y="504" width="0" height="64" fill="#fff"/></mask><mask id="satori_om-id-0-1-0-0-4"><rect x="40" y="504" width="0" height="64" fill="#fff"/></mask><mask id="satori_om-id-0-1-0-0-5"><rect x="40" y="504" width="0" height="64" fill="#fff"/></mask><mask id="satori_om-id-0-1-0-0-6"><rect x="40" y="504" width="0" height="64" fill="#fff"/></mask><mask id="satori_om-id-0-1-0-0-7"><rect x="40" y="504" width="0" height="64" fill="#fff"/></mask><mask id="satori_om-id-0-1-0-0-8"><rect x="40" y="504" width="0" height="64" fill="#fff"/></mask><mask id="satori_om-id-0-1-0-1"><rect x="116" y="512" width="313" height="48" fill="#fff"/></mask><path fill="#545454" d="M133.0 553.6L133.0 553.6Q126.5 553.6 122.7 550.2Q118.8 546.7 118.8 541.1L118.8 541.1L118.8 522.5Q118.8 520.7 119.8 519.7Q120.7 518.8 122.4 518.8Q124.0 518.8 125.0 519.7Q125.9 520.7 125.9 522.5L125.9 522.5L125.9 540.4Q125.9 543.7 127.8 545.6Q129.6 547.6 133.0 547.6L133.0 547.6Q136.3 547.6 138.2 545.6Q140.1 543.7 140.1 540.4L140.1 540.4L140.1 522.5Q140.1 520.7 141.0 519.7Q141.9 518.8 143.6 518.8Q145.3 518.8 146.2 519.7Q147.1 520.7 147.1 522.5L147.1 522.5L147.1 541.1Q147.1 546.7 143.3 550.2Q139.4 553.6 133.0 553.6ZM158.9 552.6Q158.0 553.6 156.3 553.6Q154.6 553.6 153.7 552.6Q152.8 551.6 152.8 549.9L152.8 549.9L152.8 522.9Q152.8 521.2 153.7 520.2Q154.6 519.2 156.3 519.2L156.3 519.2L166.6 519.2Q172.4 519.2 175.6 522.1Q178.9 525.0 178.9 530.0L178.9 530.0Q178.9 533.2 177.3 535.8Q175.8 538.3 173.0 539.4L173.0 539.4L177.9 547.9Q178.7 549.2 178.7 550.3L178.7 550.3Q178.7 551.7 177.7 552.6Q176.7 553.6 175.1 553.6L175.1 553.6Q173.8 553.6 173.1 553.0Q172.4 552.5 171.5 550.9L171.5 550.9L165.9 540.7L159.9 540.7L159.9 549.9Q159.9 551.6 158.9 552.6ZM159.9 524.8L159.9 535.6L165.9 535.6Q168.6 535.6 170.1 534.1Q171.6 532.7 171.6 530.2L171.6 530.2Q171.6 527.7 170.0 526.2Q168.5 524.8 165.9 524.8L165.9 524.8L159.9 524.8ZM196.2 542.3L186.4 542.3Q185.0 542.3 184.1 541.5Q183.2 540.7 183.2 539.3Q183.2 537.9 184.1 537.1Q185.0 536.3 186.4 536.3L186.4 536.3L196.2 536.3Q197.6 536.3 198.5 537.1Q199.4 537.9 199.4 539.3Q199.4 540.7 198.5 541.5Q197.6 542.3 196.2 542.3L196.2 542.3ZM210.9 552.6Q209.9 553.6 208.3 553.6Q206.6 553.6 205.6 552.6Q204.7 551.6 204.7 549.9L204.7 549.9L204.7 522.9Q204.7 521.2 205.6 520.2Q206.6 519.2 208.3 519.2L208.3 519.2L218.6 519.2Q224.4 519.2 227.6 522.1Q230.8 525.0 230.8 530.0L230.8 530.0Q230.8 533.2 229.3 535.8Q227.8 538.3 225.0 539.4L225.0 539.4L229.9 547.9Q230.6 549.2 230.6 550.3L230.6 550.3Q230.6 551.7 229.6 552.6Q228.6 553.6 227.0 553.6L227.0 553.6Q225.8 553.6 225.0 553.0Q224.3 552.5 223.4 550.9L223.4 550.9L217.8 540.7L211.8 540.7L211.8 549.9Q211.8 551.6 210.9 552.6ZM211.8 524.8L211.8 535.6L217.9 535.6Q220.6 535.6 222.0 534.1Q223.5 532.7 223.5 530.2L223.5 530.2Q223.5 527.7 222.0 526.2Q220.4 524.8 217.8 524.8L217.8 524.8L211.8 524.8ZM237.7 553.5L237.7 553.5Q236.0 553.5 235.1 552.6Q234.1 551.7 234.1 550.2L234.1 550.2Q234.1 549.3 234.6 547.9L234.6 547.9L243.8 522.8Q244.6 520.7 245.8 519.7Q247.1 518.8 249.1 518.8L249.1 518.8Q251.2 518.8 252.5 519.7Q253.8 520.7 254.5 522.8L254.5 522.8L263.8 547.9Q264.3 549.2 264.3 550.2L264.3 550.2Q264.3 551.6 263.3 552.6Q262.3 553.5 260.7 553.5L260.7 553.5Q259.2 553.5 258.4 552.8Q257.5 552.1 257.0 550.4L257.0 550.4L255.3 545.0L243.1 545.0L241.3 550.3Q240.8 552.0 239.9 552.8Q239.1 553.5 237.7 553.5ZM249.0 525.7L244.6 539.6L253.6 539.6L249.1 525.7L249.0 525.7ZM281.5 553.1L272.1 553.1Q270.4 553.1 269.5 552.1Q268.6 551.1 268.6 549.4L268.6 549.4L268.6 522.9Q268.6 521.2 269.5 520.2Q270.4 519.2 272.1 519.2L272.1 519.2L281.5 519.2Q289.1 519.2 293.4 523.6Q297.6 528.0 297.6 536.0L297.6 536.0Q297.6 544.1 293.3 548.6Q289.1 553.1 281.5 553.1L281.5 553.1ZM275.6 525.1L275.6 547.2L280.6 547.2Q285.4 547.2 287.9 544.4Q290.4 541.5 290.4 536.0L290.4 536.0Q290.4 530.8 287.8 527.9Q285.3 525.1 280.6 525.1L280.6 525.1L275.6 525.1Z M333.2 553.1L314.5 553.1Q312.9 553.1 312.0 552.2Q311.2 551.4 311.2 550.0L311.2 550.0Q311.2 549.1 311.6 548.3Q312.0 547.5 313.1 546.5L313.1 546.5L323.2 536.9Q326.3 533.8 327.4 532.2Q328.4 530.6 328.4 528.8L328.4 528.8Q328.4 526.7 327.0 525.3Q325.5 524 323.3 524L323.3 524Q319.3 524 317.4 528.1L317.4 528.1Q316.8 529.2 316.1 529.7Q315.4 530.1 314.3 530.1L314.3 530.1Q312.9 530.1 312.1 529.4Q311.3 528.6 311.3 527.3L311.3 527.3Q311.3 526.5 311.5 525.7L311.5 525.7Q312.5 522.7 315.6 520.6Q318.8 518.5 323.3 518.5L323.3 518.5Q328.7 518.5 332.0 521.2Q335.3 524.0 335.3 528.3L335.3 528.3Q335.3 529.9 335.0 531.2Q334.6 532.5 333.6 533.9Q332.6 535.3 331.3 536.8Q330.0 538.2 327.8 540.3L327.8 540.3L320.5 547.3L320.5 547.4L333.2 547.4Q334.6 547.4 335.4 548.2Q336.1 549.0 336.1 550.3L336.1 550.3Q336.1 551.5 335.4 552.3Q334.6 553.1 333.2 553.1L333.2 553.1ZM363.6 549.0Q359.9 553.8 353.5 553.8Q347.1 553.8 343.4 549.1Q339.7 544.3 339.7 536.1L339.7 536.1Q339.7 527.9 343.4 523.2Q347.1 518.5 353.5 518.5Q359.9 518.5 363.6 523.2Q367.3 527.9 367.3 536.1L367.3 536.1Q367.3 544.3 363.6 549.0ZM348.6 545.0Q350.4 548.1 353.5 548.1Q356.7 548.1 358.4 545.0Q360.1 541.9 360.1 536.1L360.1 536.1Q360.1 530.4 358.4 527.2Q356.7 524.1 353.5 524.1L353.5 524.1Q350.4 524.1 348.7 527.3Q346.9 530.4 346.9 536.1L346.9 536.1Q346.9 541.9 348.6 545.0ZM393.6 553.1L374.9 553.1Q373.3 553.1 372.4 552.2Q371.6 551.4 371.6 550.0L371.6 550.0Q371.6 549.1 372.0 548.3Q372.5 547.5 373.5 546.5L373.5 546.5L383.6 536.9Q386.8 533.8 387.8 532.2Q388.9 530.6 388.9 528.8L388.9 528.8Q388.9 526.7 387.4 525.3Q386.0 524 383.7 524L383.7 524Q379.7 524 377.9 528.1L377.9 528.1Q377.3 529.2 376.5 529.7Q375.8 530.1 374.7 530.1L374.7 530.1Q373.3 530.1 372.5 529.4Q371.7 528.6 371.7 527.3L371.7 527.3Q371.7 526.5 372.0 525.7L372.0 525.7Q372.9 522.7 376.0 520.6Q379.2 518.5 383.8 518.5L383.8 518.5Q389.1 518.5 392.4 521.2Q395.8 524.0 395.8 528.3L395.8 528.3Q395.8 529.9 395.4 531.2Q395 532.5 394.0 533.9Q393.1 535.3 391.7 536.8Q390.4 538.2 388.2 540.3L388.2 540.3L380.9 547.3L380.9 547.4L393.6 547.4Q395 547.4 395.8 548.2Q396.6 549.0 396.6 550.3L396.6 550.3Q396.6 551.5 395.8 552.3Q395 553.1 393.6 553.1L393.6 553.1ZM413.6 553.8L413.6 553.8Q409.6 553.8 406.3 552.1Q403.1 550.4 401.8 547.7L401.8 547.7Q401.3 546.5 401.3 545.4L401.3 545.4Q401.3 544.0 402.0 543.3Q402.8 542.5 404.2 542.5L404.2 542.5Q405.3 542.5 406.0 542.9Q406.7 543.3 407.3 544.3L407.3 544.3Q409.3 548.2 413.6 548.2L413.6 548.2Q416.3 548.2 418.1 546.4Q419.9 544.6 419.9 541.9L419.9 541.9Q419.9 539.2 418.1 537.5Q416.4 535.8 413.6 535.8L413.6 535.8Q410.8 535.8 408.7 537.8L408.7 537.8Q407.6 538.8 406.9 539.1Q406.2 539.4 405.0 539.4L405.0 539.4Q403.4 539.4 402.5 538.4Q401.6 537.4 401.7 535.9L401.7 535.9Q401.7 535.8 401.7 535.6L401.7 535.6L402.7 523.3Q402.9 521.1 404.0 520.2Q405.1 519.2 407.2 519.2L407.2 519.2L422 519.2Q423.3 519.2 424.1 520.0Q424.9 520.8 424.9 522.1Q424.9 523.3 424.1 524.1Q423.3 524.9 422 524.9L422 524.9L408.6 524.9L407.8 534.3L408.0 534.3Q409.0 532.6 411.0 531.7Q413.0 530.7 415.6 530.7L415.6 530.7Q420.4 530.7 423.5 533.8Q426.6 536.9 426.6 541.7L426.6 541.7Q426.6 547.1 423.0 550.5Q419.4 553.8 413.6 553.8Z "/><mask id="satori_om-id-0-1-1"><rect x="1013" y="524" width="147" height="36" fill="#fff"/></mask><path fill="#8e8e8e" d="M1016.9 552.6Q1016.5 552.9 1016.0 552.9Q1015.4 552.9 1015.1 552.6Q1014.8 552.2 1014.8 551.7L1014.8 551.7L1014.8 532.6Q1014.8 532.0 1015.1 531.6Q1015.5 531.3 1016.1 531.3Q1016.6 531.3 1017.0 531.6Q1017.3 532.0 1017.3 532.6L1017.3 532.6L1017.3 540.0L1017.4 540.0Q1018.1 538.7 1019.4 537.9Q1020.7 537.2 1022.3 537.2L1022.3 537.2Q1025.2 537.2 1026.9 539.3Q1028.7 541.5 1028.7 545.0L1028.7 545.0Q1028.7 548.6 1026.9 550.8Q1025.2 552.9 1022.2 552.9L1022.2 552.9Q1020.6 552.9 1019.3 552.2Q1018.0 551.4 1017.3 550.1L1017.3 550.1L1017.2 550.1L1017.2 551.7Q1017.2 552.2 1016.9 552.6ZM1021.7 550.7L1021.7 550.7Q1023.8 550.7 1024.9 549.2Q1026.1 547.7 1026.1 545.0L1026.1 545.0Q1026.1 542.5 1024.9 540.9Q1023.8 539.4 1021.7 539.4L1021.7 539.4Q1019.8 539.4 1018.6 541.0Q1017.3 542.5 1017.3 545.0L1017.3 545.0Q1017.3 547.6 1018.6 549.1Q1019.8 550.7 1021.7 550.7ZM1032.8 558.4L1032.8 558.4Q1031.9 558.4 1031.4 558.0Q1030.9 557.7 1030.9 557.1L1030.9 557.1Q1030.9 556.7 1031.1 556.4Q1031.4 556.2 1031.9 556.2L1031.9 556.2Q1032.1 556.2 1032.3 556.2Q1032.5 556.2 1032.7 556.2L1032.7 556.2Q1034.4 556.2 1035.2 553.7L1035.2 553.7L1035.6 552.7L1030.3 539.0Q1030.2 538.6 1030.2 538.3L1030.2 538.3Q1030.2 537.8 1030.6 537.5Q1030.9 537.2 1031.5 537.2L1031.5 537.2Q1032.4 537.2 1032.7 538.1L1032.7 538.1L1036.9 550.1L1037.0 550.1L1041.2 538.1Q1041.3 537.6 1041.6 537.4Q1041.9 537.2 1042.4 537.2L1042.4 537.2Q1042.9 537.2 1043.3 537.5Q1043.6 537.8 1043.6 538.3L1043.6 538.3Q1043.6 538.6 1043.5 539.0L1043.5 539.0L1037.9 553.7Q1036.9 556.4 1035.8 557.4Q1034.7 558.4 1032.8 558.4Z M1066.9 550.9Q1064.7 553.0 1060.8 553.0Q1056.9 553.0 1054.7 550.9Q1052.4 548.7 1052.4 545.3L1052.4 545.3L1052.4 532.7Q1052.4 532.1 1052.8 531.7Q1053.1 531.3 1053.7 531.3Q1054.3 531.3 1054.7 531.7Q1055.0 532.1 1055.0 532.7L1055.0 532.7L1055.0 545.1Q1055.0 547.5 1056.6 549.1Q1058.1 550.6 1060.8 550.6Q1063.5 550.6 1065.0 549.1Q1066.6 547.5 1066.6 545.1L1066.6 545.1L1066.6 532.7Q1066.6 532.1 1066.9 531.7Q1067.3 531.3 1067.9 531.3Q1068.5 531.3 1068.8 531.7Q1069.2 532.1 1069.2 532.7L1069.2 532.7L1069.2 545.3Q1069.2 548.7 1066.9 550.9ZM1075.6 552.6Q1075.2 552.9 1074.6 552.9Q1074.0 552.9 1073.7 552.6Q1073.3 552.2 1073.3 551.6L1073.3 551.6L1073.3 532.9Q1073.3 532.3 1073.7 531.9Q1074.0 531.5 1074.6 531.5L1074.6 531.5L1081.2 531.5Q1084.3 531.5 1086.1 533.2Q1088.0 535.0 1088.0 537.8L1088.0 537.8Q1088.0 540.0 1086.8 541.6Q1085.7 543.3 1083.7 543.9L1083.7 543.9L1087.6 550.8Q1087.9 551.3 1087.9 551.7L1087.9 551.7Q1087.9 552.2 1087.5 552.6Q1087.1 552.9 1086.5 552.9L1086.5 552.9Q1086.1 552.9 1085.8 552.7Q1085.5 552.5 1085.2 552.1L1085.2 552.1L1081.0 544.3L1075.9 544.3L1075.9 551.6Q1075.9 552.2 1075.6 552.6ZM1075.9 533.9L1075.9 542.0L1081.0 542.0Q1083.0 542.0 1084.1 540.9Q1085.2 539.9 1085.2 537.9L1085.2 537.9Q1085.2 536.0 1084.1 534.9Q1082.9 533.9 1080.9 533.9L1080.9 533.9L1075.9 533.9ZM1099.4 545.3L1091.9 545.3Q1091.3 545.3 1091.0 545.0Q1090.6 544.6 1090.6 544.1Q1090.6 543.6 1091.0 543.2Q1091.3 542.9 1091.9 542.9L1091.9 542.9L1099.4 542.9Q1100.0 542.9 1100.3 543.2Q1100.7 543.6 1100.7 544.1Q1100.7 544.6 1100.3 545.0Q1100.0 545.3 1099.4 545.3L1099.4 545.3ZM1106.4 552.6Q1106.0 552.9 1105.4 552.9Q1104.8 552.9 1104.5 552.6Q1104.1 552.2 1104.1 551.6L1104.1 551.6L1104.1 532.9Q1104.1 532.3 1104.5 531.9Q1104.8 531.5 1105.4 531.5L1105.4 531.5L1112.1 531.5Q1115.1 531.5 1117.0 533.2Q1118.8 535.0 1118.8 537.8L1118.8 537.8Q1118.8 540.0 1117.7 541.6Q1116.5 543.3 1114.5 543.9L1114.5 543.9L1118.4 550.8Q1118.7 551.3 1118.7 551.7L1118.7 551.7Q1118.7 552.2 1118.3 552.6Q1117.9 552.9 1117.3 552.9L1117.3 552.9Q1116.9 552.9 1116.6 552.7Q1116.3 552.5 1116.1 552.1L1116.1 552.1L1111.8 544.3L1106.8 544.3L1106.8 551.6Q1106.8 552.2 1106.4 552.6ZM1106.8 533.9L1106.8 542.0L1111.8 542.0Q1113.9 542.0 1115.0 540.9Q1116.1 539.9 1116.1 537.9L1116.1 537.9Q1116.1 536.0 1114.9 534.9Q1113.8 533.9 1111.7 533.9L1111.7 533.9L1106.8 533.9ZM1122.2 552.9L1122.2 552.9Q1121.6 552.9 1121.2 552.5Q1120.9 552.2 1120.9 551.7L1120.9 551.7Q1120.9 551.4 1121.0 551.0L1121.0 551.0L1127.8 532.6Q1128.3 531.3 1129.5 531.3L1129.5 531.3Q1130.7 531.3 1131.2 532.6L1131.2 532.6L1138.0 551.0Q1138.2 551.4 1138.2 551.7L1138.2 551.7Q1138.2 552.2 1137.8 552.5Q1137.4 552.9 1136.9 552.9L1136.9 552.9Q1135.9 552.9 1135.6 551.9L1135.6 551.9L1133.7 546.6L1125.3 546.6L1123.5 551.9Q1123.1 552.9 1122.2 552.9ZM1129.5 534.7L1126.1 544.4L1132.9 544.4L1129.6 534.7L1129.5 534.7ZM1148.1 552.7L1142.3 552.7Q1141.7 552.7 1141.4 552.3Q1141.0 551.9 1141.0 551.3L1141.0 551.3L1141.0 532.9Q1141.0 532.3 1141.4 531.9Q1141.7 531.5 1142.3 531.5L1142.3 531.5L1148.1 531.5Q1152.8 531.5 1155.5 534.3Q1158.1 537.1 1158.1 542.1L1158.1 542.1Q1158.1 547.1 1155.5 549.9Q1152.8 552.7 1148.1 552.7L1148.1 552.7ZM1143.7 533.9L1143.7 550.3L1148.0 550.3Q1151.5 550.3 1153.5 548.2Q1155.4 546.1 1155.4 542.1L1155.4 542.1Q1155.4 538.1 1153.5 536.0Q1151.6 533.9 1148.0 533.9L1148.0 533.9L1143.7 533.9Z "/></svg>