<svg width="1200" height="630" viewBox="0 0 1200 630" xmlns="http://www.w3.org/2000/svg"><mask id="satori_om-id"><rect x="0" y="0" width="1200" height="630" fill="#fff"/></mask><mask id="satori_om-id-0"><rect x="0" y="0" width="1200" height="630" fill="#fff"/></mask><rect x="0" y="0" width="1200" height="630" fill="#f2f2f2"/><mask id="satori_om-id-0-0"><rect x="0" y="0" width="1200" height="441" fill="#fff"/></mask><mask id="satori_om-id-0-0-0"><rect x="40" y="95" width="1120" height="36" fill="#fff"/></mask><path fill="#8e8e8e" d="M44.8 123.4Q44.4 123.9 43.6 123.9Q42.8 123.9 42.4 123.4Q41.9 123.0 41.9 122.2L41.9 122.2L41.9 104.2Q41.9 103.4 42.4 103.0Q42.8 102.5 43.6 102.5L43.6 102.5L53.8 102.5Q54.5 102.5 55.0 102.9Q55.4 103.3 55.4 103.9Q55.4 104.6 55.0 105.0Q54.5 105.4 53.8 105.4L53.8 105.4L45.2 105.4L45.2 112.0L53.1 112.0Q53.7 112.0 54.1 112.4Q54.5 112.8 54.5 113.4Q54.5 114.1 54.1 114.4Q53.7 114.8 53.1 114.8L53.1 114.8L45.2 114.8L45.2 122.2Q45.2 123.0 44.8 123.4ZM59.2 123.9L59.2 123.9Q58.5 123.9 58.1 123.5Q57.6 123.0 57.6 122.3L57.6 122.3L57.6 109.6Q57.6 108.9 58.0 108.4Q58.5 108.0 59.1 108.0L59.1 108.0Q59.8 108.0 60.2 108.4Q60.6 108.9 60.6 109.6L60.6 109.6L60.6 110.9L60.7 110.9Q61.0 109.6 62.0 108.8Q62.9 108.0 64.1 108.0L64.1 108.0Q64.9 108.0 65.3 108.4L65.3 108.4Q65.8 108.7 65.8 109.5L65.8 109.5Q65.8 110.2 65.3 110.6L65.3 110.6Q64.8 111.0 63.8 111.0L63.8 111.0Q62.3 111.0 61.5 112.0Q60.8 112.9 60.8 114.4L60.8 114.4L60.8 122.3Q60.8 123.0 60.3 123.5Q59.9 123.9 59.2 123.9ZM70.5 105.4Q69.9 105.9 69.2 105.9Q68.4 105.9 67.9 105.4Q67.3 104.9 67.3 104.1L67.3 104.1Q67.3 103.3 67.9 102.8Q68.4 102.3 69.2 102.3L69.2 102.3Q69.9 102.3 70.5 102.8Q71.0 103.3 71.0 104.1L71.0 104.1Q71.0 104.9 70.5 105.4ZM70.3 123.5Q69.9 123.9 69.2 123.9Q68.4 123.9 68.0 123.5Q67.6 123.0 67.6 122.3L67.6 122.3L67.6 109.7Q67.6 108.9 68.0 108.4Q68.4 108.0 69.2 108.0Q69.9 108.0 70.3 108.4Q70.7 108.9 70.7 109.7L70.7 109.7L70.7 122.3Q70.7 123.0 70.3 123.5ZM79.8 123.9L79.8 123.9Q76.8 123.9 75.1 121.8Q73.3 119.6 73.3 116.0Q73.3 112.3 75.0 110.2Q76.8 108.0 79.7 108.0L79.7 108.0Q81.4 108.0 82.6 108.8Q83.9 109.5 84.6 110.8L84.6 110.8L84.6 110.8L84.6 103.9Q84.6 103.1 85.1 102.7Q85.5 102.2 86.2 102.2L86.2 102.2Q86.9 102.2 87.4 102.7Q87.8 103.2 87.8 103.9L87.8 103.9L87.8 122.4Q87.8 123.1 87.4 123.5Q86.9 123.9 86.2 123.9L86.2 123.9Q85.5 123.9 85.1 123.5Q84.6 123.1 84.6 122.4L84.6 122.4L84.6 120.9L84.6 120.9Q84.0 122.3 82.7 123.1Q81.5 123.9 79.8 123.9ZM80.6 121.2L80.6 121.2Q82.4 121.2 83.5 119.8Q84.6 118.4 84.6 116.0L84.6 116.0Q84.6 113.6 83.5 112.1Q82.4 110.7 80.6 110.7L80.6 110.7Q78.7 110.7 77.6 112.1Q76.5 113.5 76.5 116.0L76.5 116.0Q76.5 118.4 77.6 119.8Q78.7 121.2 80.6 121.2ZM95.5 123.9L95.5 123.9Q93.3 123.9 91.8 122.6Q90.4 121.3 90.4 119.3L90.4 119.3Q90.4 117.3 91.9 116.1Q93.4 114.9 96.1 114.7L96.1 114.7L100.4 114.5L100.4 113.3Q100.4 112.0 99.5 111.3Q98.7 110.6 97.3 110.6L97.3 110.6Q96.1 110.6 95.3 111.0Q94.5 111.5 93.9 112.5L93.9 112.5Q93.4 113.2 92.6 113.2L92.6 113.2Q92.0 113.2 91.6 112.8Q91.2 112.4 91.2 111.9L91.2 111.9Q91.2 111.3 91.5 110.8L91.5 110.8Q92.1 109.5 93.7 108.8Q95.3 108.0 97.4 108.0L97.4 108.0Q100.2 108.0 101.9 109.4Q103.5 110.7 103.5 113.0L103.5 113.0L103.5 122.3Q103.5 123.1 103.1 123.5Q102.7 123.9 102.0 123.9L102.0 123.9Q101.3 123.9 100.9 123.5Q100.5 123.1 100.5 122.4L100.5 122.4L100.5 121.1L100.4 121.1Q99.8 122.4 98.4 123.2Q97.1 123.9 95.5 123.9ZM96.4 121.4L96.4 121.4Q98.1 121.4 99.2 120.4Q100.4 119.4 100.4 117.9L100.4 117.9L100.4 116.7L96.6 116.9Q95.1 117.0 94.4 117.6Q93.6 118.2 93.6 119.2L93.6 119.2Q93.6 120.2 94.4 120.8Q95.2 121.4 96.4 121.4ZM108.5 129.4L108.5 129.4Q107.4 129.4 106.8 129.0Q106.2 128.6 106.2 127.9L106.2 127.9Q106.2 127.4 106.5 127.1Q106.9 126.8 107.4 126.8L107.4 126.8Q107.6 126.8 107.8 126.8Q108.1 126.8 108.3 126.8L108.3 126.8Q109.9 126.8 110.6 124.7L110.6 124.7L110.9 123.8L105.7 110.3Q105.6 109.9 105.6 109.4L105.6 109.4Q105.6 108.8 106.0 108.4Q106.5 108.0 107.2 108.0L107.2 108.0Q107.8 108.0 108.1 108.3Q108.5 108.5 108.7 109.2L108.7 109.2L112.6 120.8L112.7 120.8L116.6 109.2Q116.8 108.5 117.2 108.3Q117.5 108.0 118.1 108.0L118.1 108.0Q118.8 108.0 119.2 108.4Q119.7 108.8 119.7 109.4L119.7 109.4Q119.7 109.8 119.5 110.3L119.5 110.3L114.2 124.4Q113.1 127.2 111.9 128.3Q110.6 129.4 108.5 129.4ZM124.1 120.1L124.1 120.1Q124.8 120.1 125.2 120.5Q125.6 120.8 125.6 121.4L125.6 121.4Q125.6 121.8 125.5 122.3L125.5 122.3L124.2 127.3Q123.9 128.4 122.9 128.4L122.9 128.4Q122.3 128.4 122.0 128.1Q121.6 127.7 121.6 127.2L121.6 127.2Q121.6 127.1 121.7 126.8L121.7 126.8L122.6 121.4Q122.8 120.1 124.1 120.1Z M143.4 124.1L143.4 124.1Q139.9 124.1 137.7 122.3Q135.4 120.6 135.4 118.0L135.4 118.0Q135.4 115.9 136.7 114.5Q138.0 113.0 140.1 112.5L140.1 112.5L140.1 112.5Q138.3 111.9 137.3 110.7Q136.2 109.4 136.2 107.7L136.2 107.7Q136.2 105.3 138.2 103.7Q140.3 102.1 143.4 102.1L143.4 102.1Q146.6 102.1 148.6 103.7Q150.6 105.3 150.6 107.8L150.6 107.8Q150.6 109.4 149.6 110.7Q148.5 111.9 146.7 112.5L146.7 112.5L146.7 112.5Q148.9 113 150.1 114.5Q151.4 116.0 151.4 118.0L151.4 118.0Q151.4 119.7 150.4 121.1Q149.4 122.5 147.6 123.3Q145.7 124.1 143.4 124.1ZM143.4 111.4L143.4 111.4Q145.2 111.4 146.3 110.4Q147.4 109.5 147.4 108.0L147.4 108.0Q147.4 106.6 146.3 105.7Q145.2 104.7 143.4 104.7L143.4 104.7Q141.7 104.7 140.6 105.7Q139.5 106.6 139.5 108.0L139.5 108.0Q139.5 109.5 140.6 110.4Q141.7 111.4 143.4 111.4ZM140.1 120.4Q141.4 121.4 143.4 121.4Q145.5 121.4 146.7 120.4Q148.0 119.3 148.0 117.7L148.0 117.7Q148.0 116.1 146.7 115.0Q145.5 114.0 143.4 114.0Q141.4 114.0 140.1 115.0Q138.8 116.1 138.8 117.7L138.8 117.7Q138.8 119.3 140.1 120.4Z M163.5 123.5Q163.1 123.9 162.3 123.9Q161.6 123.9 161.2 123.5Q160.7 123.0 160.7 122.2L160.7 122.2L160.7 104.1Q160.7 103.2 161.2 102.8Q161.7 102.3 162.5 102.3L162.5 102.3Q163.1 102.3 163.5 102.5Q163.9 102.7 164.3 103.3L164.3 103.3L174.7 118.1L174.8 118.1L174.8 104.0Q174.8 103.2 175.2 102.7Q175.6 102.3 176.4 102.3L176.4 102.3Q177.1 102.3 177.5 102.7Q178.0 103.2 178.0 104.0L178.0 104.0L178.0 122.2Q178.0 123.0 177.5 123.5Q177.1 123.9 176.2 123.9L176.2 123.9Q175.6 123.9 175.3 123.7Q174.9 123.5 174.5 122.9L174.5 122.9L164.1 108.1L163.9 108.1L163.9 122.2Q163.9 123.0 163.5 123.5ZM193.4 121.8Q191.4 124.0 188.1 124.0Q184.8 124.0 182.8 121.8Q180.8 119.7 180.8 116.0L180.8 116.0Q180.8 112.3 182.8 110.1Q184.8 108.0 188.1 108.0Q191.4 108.0 193.4 110.1Q195.4 112.3 195.4 116.0L195.4 116.0Q195.4 119.7 193.4 121.8ZM188.1 121.3L188.1 121.3Q190 121.3 191.1 119.9Q192.2 118.5 192.2 116.0L192.2 116.0Q192.2 113.4 191.1 112.0Q190.0 110.6 188.1 110.6Q186.2 110.6 185.1 112.0Q184.0 113.4 184.0 116.0L184.0 116.0Q184.0 118.5 185.1 119.9Q186.2 121.3 188.1 121.3ZM203.8 123.9L203.8 123.9Q203.0 123.9 202.5 123.6Q202.0 123.2 201.6 122.3L201.6 122.3L197.0 110.3Q196.9 109.8 196.9 109.4L196.9 109.4Q196.9 108.8 197.3 108.4Q197.8 108.0 198.5 108.0L198.5 108.0Q199.6 108.0 200.0 109.2L200.0 109.2L203.8 120.6L203.8 120.6L207.7 109.2Q208.1 108.0 209.1 108.0L209.1 108.0Q209.8 108.0 210.3 108.4Q210.7 108.8 210.7 109.4L210.7 109.4Q210.7 109.9 210.5 110.3L210.5 110.3L206.0 122.3Q205.7 123.2 205.1 123.6Q204.6 123.9 203.8 123.9ZM219.5 124.0L219.5 124.0Q216.0 124.0 214.1 121.9Q212.1 119.8 212.1 116.0L212.1 116.0Q212.1 112.4 214.1 110.2Q216.0 108.0 219.3 108.0L219.3 108.0Q222.4 108.0 224.3 110.0Q226.2 112.0 226.2 115.1L226.2 115.1Q226.2 115.9 225.8 116.3Q225.4 116.8 224.7 116.8L224.7 116.8L215.3 116.8L215.3 116.8Q215.3 118.9 216.4 120.2Q217.6 121.4 219.4 121.4L219.4 121.4Q220.7 121.4 221.6 120.9Q222.5 120.4 223.4 119.2L223.4 119.2Q223.9 118.6 224.5 118.6L224.5 118.6Q225.1 118.6 225.5 119.0Q225.9 119.3 225.9 119.9L225.9 119.9Q225.9 120.3 225.6 120.8L225.6 120.8Q224.9 122.3 223.3 123.1Q221.7 124.0 219.5 124.0ZM215.4 114.5L215.4 114.5L223.1 114.5Q223.0 112.7 222.0 111.6Q220.9 110.5 219.3 110.5L219.3 110.5Q217.6 110.5 216.6 111.6Q215.5 112.7 215.4 114.5ZM231.4 123.5Q231.0 123.9 230.3 123.9Q229.5 123.9 229.1 123.5Q228.7 123.0 228.7 122.3L228.7 122.3L228.7 109.6Q228.7 108.9 229.1 108.4Q229.5 108.0 230.2 108.0Q230.9 108.0 231.3 108.4Q231.7 108.8 231.7 109.6L231.7 109.6L231.7 110.8L231.8 110.8Q232.3 109.5 233.4 108.8Q234.6 108.0 236.1 108.0L236.1 108.0Q237.7 108.0 238.9 108.8Q240.0 109.6 240.4 111.0L240.4 111.0L240.5 111.0Q241.1 109.6 242.4 108.8Q243.7 108.0 245.3 108.0L245.3 108.0Q247.6 108.0 249.0 109.4Q250.4 110.8 250.4 113.1L250.4 113.1L250.4 122.3Q250.4 123.0 249.9 123.5Q249.5 123.9 248.8 123.9Q248.1 123.9 247.6 123.5Q247.2 123.0 247.2 122.3L247.2 122.3L247.2 113.8Q247.2 112.3 246.4 111.5Q245.6 110.7 244.2 110.7Q242.8 110.7 242.0 111.6Q241.1 112.6 241.1 114.0L241.1 114.0L241.1 122.3Q241.1 123.0 240.6 123.5Q240.2 123.9 239.5 123.9Q238.8 123.9 238.4 123.5Q238.0 123.0 238.0 122.3L238.0 122.3L238.0 113.6Q238.0 112.3 237.2 111.5Q236.4 110.7 235.0 110.7L235.0 110.7Q233.6 110.7 232.7 111.7Q231.8 112.6 231.8 114.1L231.8 114.1L231.8 122.3Q231.8 123.0 231.4 123.5ZM255.0 123.9L255.0 123.9Q254.4 123.9 253.9 123.5Q253.5 123.1 253.5 122.4L253.5 122.4L253.5 103.9Q253.5 103.2 254.0 102.7Q254.4 102.2 255.1 102.2Q255.8 102.2 256.3 102.7Q256.7 103.2 256.7 103.9L256.7 103.9L256.7 110.9L256.8 110.9Q257.5 109.5 258.7 108.8Q260.0 108.0 261.6 108.0L261.6 108.0Q264.6 108.0 266.3 110.2Q268.1 112.3 268.1 116.0L268.1 116.0Q268.1 119.6 266.3 121.8Q264.6 123.9 261.6 123.9L261.6 123.9Q260.0 123.9 258.7 123.2Q257.4 122.4 256.7 121.0L256.7 121.0L256.6 121.0L256.6 122.4Q256.6 123.1 256.2 123.5Q255.7 123.9 255.0 123.9ZM260.8 121.2L260.8 121.2Q262.6 121.2 263.7 119.8Q264.8 118.4 264.8 116.0L264.8 116.0Q264.8 113.5 263.7 112.1Q262.6 110.7 260.8 110.7L260.8 110.7Q259.0 110.7 257.8 112.1Q256.7 113.6 256.7 116.0L256.7 116.0Q256.7 118.3 257.8 119.8Q259.0 121.2 260.8 121.2ZM277.2 124.0L277.2 124.0Q273.7 124.0 271.8 121.9Q269.8 119.8 269.8 116.0L269.8 116.0Q269.8 112.4 271.8 110.2Q273.7 108.0 277.0 108.0L277.0 108.0Q280.0 108.0 282.0 110.0Q283.9 112.0 283.9 115.1L283.9 115.1Q283.9 115.9 283.5 116.3Q283.1 116.8 282.3 116.8L282.3 116.8L273.0 116.8L273.0 116.8Q273.0 118.9 274.1 120.2Q275.2 121.4 277.1 121.4L277.1 121.4Q278.4 121.4 279.3 120.9Q280.2 120.4 281.1 119.2L281.1 119.2Q281.6 118.6 282.2 118.6L282.2 118.6Q282.8 118.6 283.2 119.0Q283.5 119.3 283.5 119.9L283.5 119.9Q283.5 120.3 283.3 120.8L283.3 120.8Q282.5 122.3 280.9 123.1Q279.3 124.0 277.2 124.0ZM273.0 114.5L273.0 114.5L280.7 114.5Q280.7 112.7 279.6 111.6Q278.6 110.5 277.0 110.5L277.0 110.5Q275.3 110.5 274.2 111.6Q273.1 112.7 273.0 114.5ZM287.9 123.9L287.9 123.9Q287.2 123.9 286.8 123.5Q286.3 123.0 286.3 122.3L286.3 122.3L286.3 109.6Q286.3 108.9 286.8 108.4Q287.2 108.0 287.9 108.0L287.9 108.0Q288.5 108.0 288.9 108.4Q289.3 108.9 289.3 109.6L289.3 109.6L289.3 110.9L289.4 110.9Q289.7 109.6 290.7 108.8Q291.6 108.0 292.8 108.0L292.8 108.0Q293.6 108.0 294.0 108.4L294.0 108.4Q294.5 108.7 294.5 109.5L294.5 109.5Q294.5 110.2 294.0 110.6L294.0 110.6Q293.5 111.0 292.6 111.0L292.6 111.0Q291.0 111.0 290.3 112.0Q289.5 112.9 289.5 114.4L289.5 114.4L289.5 122.3Q289.5 123.0 289.1 123.5Q288.6 123.9 287.9 123.9Z M315.5 123.7L303.8 123.7Q303.1 123.7 302.7 123.3Q302.3 122.9 302.3 122.3L302.3 122.3Q302.3 121.8 302.5 121.5Q302.6 121.1 303.2 120.6L303.2 120.6L309.8 113.9Q311.9 111.8 312.5 110.7Q313.2 109.6 313.2 108.3L313.2 108.3Q313.2 106.8 312.2 105.8Q311.1 104.8 309.5 104.8L309.5 104.8Q306.4 104.8 305.3 108.0L305.3 108.0Q305.1 108.5 304.7 108.8Q304.4 109.0 303.8 109.0L303.8 109.0Q303.1 109.0 302.8 108.6Q302.4 108.3 302.4 107.6L302.4 107.6Q302.4 107.3 302.5 107.0L302.5 107.0Q302.6 106.1 303.2 105.3Q303.7 104.4 304.6 103.7Q305.5 103.0 306.8 102.6Q308.1 102.1 309.6 102.1L309.6 102.1Q312.6 102.1 314.5 103.8Q316.5 105.5 316.5 108.1L316.5 108.1Q316.5 109.9 315.5 111.5Q314.5 113.0 311.8 115.8L311.8 115.8L306.7 120.8L306.7 120.9L315.5 120.9Q316.2 120.9 316.6 121.3Q317.0 121.7 317.0 122.3L317.0 122.3Q317.0 122.9 316.6 123.3Q316.2 123.7 315.5 123.7L315.5 123.7ZM333.4 121.1Q331.2 124.1 327.4 124.1Q323.7 124.1 321.5 121.1Q319.3 118.2 319.3 113.1L319.3 113.1Q319.3 108.0 321.5 105.1Q323.7 102.1 327.4 102.1L327.4 102.1Q331.2 102.1 333.4 105.1Q335.5 108.0 335.5 113.1L335.5 113.1Q335.5 118.1 333.4 121.1ZM327.4 121.3L327.4 121.3Q329.7 121.3 331.0 119.1Q332.2 116.9 332.2 113.1L332.2 113.1Q332.2 109.3 331.0 107.1Q329.7 104.9 327.4 104.9Q325.2 104.9 323.9 107.1Q322.7 109.3 322.7 113.1L322.7 113.1Q322.7 116.9 323.9 119.1Q325.2 121.3 327.4 121.3ZM351.6 123.7L339.9 123.7Q339.2 123.7 338.8 123.3Q338.4 122.9 338.4 122.3L338.4 122.3Q338.4 121.8 338.6 121.5Q338.7 121.1 339.3 120.6L339.3 120.6L345.9 113.9Q348.0 111.8 348.6 110.7Q349.3 109.6 349.3 108.3L349.3 108.3Q349.3 106.8 348.3 105.8Q347.2 104.8 345.6 104.8L345.6 104.8Q342.5 104.8 341.4 108.0L341.4 108.0Q341.2 108.5 340.8 108.8Q340.5 109.0 339.9 109.0L339.9 109.0Q339.2 109.0 338.9 108.6Q338.5 108.3 338.5 107.6L338.5 107.6Q338.5 107.3 338.5 107.0L338.5 107.0Q338.7 106.1 339.3 105.3Q339.8 104.4 340.7 103.7Q341.6 103.0 342.8 102.6Q344.1 102.1 345.7 102.1L345.7 102.1Q348.7 102.1 350.6 103.8Q352.6 105.5 352.6 108.1L352.6 108.1Q352.6 109.9 351.6 111.5Q350.6 113.0 347.9 115.8L347.9 115.8L342.8 120.8L342.8 120.9L351.6 120.9Q352.3 120.9 352.7 121.3Q353.1 121.7 353.1 122.3L353.1 122.3Q353.1 122.9 352.7 123.3Q352.3 123.7 351.6 123.7L351.6 123.7ZM367.4 123.9L367.4 123.9Q366.7 123.9 366.3 123.5Q365.9 123.0 365.9 122.3L365.9 122.3L365.9 119.5L357.2 119.5Q356.3 119.5 355.8 119.0Q355.2 118.4 355.2 117.6L355.2 117.6Q355.2 116.6 356.0 115.3L356.0 115.3Q357.8 112.0 362.8 104.7L362.8 104.7Q363.8 103.3 364.5 102.8Q365.3 102.2 366.3 102.2L366.3 102.2Q367.6 102.2 368.3 102.9Q369.0 103.5 369.0 104.7L369.0 104.7L369.0 116.7L370.7 116.7Q371.3 116.7 371.7 117.1Q372.1 117.5 372.1 118.1Q372.1 118.7 371.7 119.1Q371.3 119.5 370.7 119.5L370.7 119.5L369.0 119.5L369.0 122.3Q369.0 123.0 368.6 123.5Q368.1 123.9 367.4 123.9ZM358.3 116.8L365.9 116.8L365.9 105.1L365.8 105.1Q360.4 112.9 358.3 116.7L358.3 116.7L358.3 116.8Z "/><mask id="satori_om-id-0-0-1"><rect x="40" y="176" width="1120" height="165" fill="#fff"/></mask><path fill="#224d67" d="M62.3 239.3L62.3 239.3Q53.0 239.3 47.7 233.4Q42.3 227.5 42.3 217.3L42.3 217.3Q42.3 207.2 47.6 201.4Q53.0 195.6 62.1 195.6L62.1 195.6Q68.0 195.6 72.5 198.2Q77.0 200.8 78.8 204.9L78.8 204.9Q79.4 206.2 79.4 207.4L79.4 207.4Q79.4 208.9 78.5 209.8Q77.6 210.7 76.0 210.7L76.0 210.7Q73.7 210.7 72.3 208.3L72.3 208.3Q69.2 202.0 62.2 202.0L62.2 202.0Q56.5 202.0 53.2 206.0Q50.0 210.0 50.0 217.2L50.0 217.2Q50.0 224.5 53.3 228.7Q56.7 232.9 62.4 232.9L62.4 232.9Q67.2 232.9 70.2 230.1Q73.2 227.4 73.3 222.9L73.3 222.9L73.3 222.2L65.8 222.2Q64.4 222.2 63.6 221.4Q62.7 220.6 62.7 219.3Q62.7 218.0 63.5 217.2Q64.4 216.4 65.8 216.4L65.8 216.4L77.0 216.4Q78.7 216.4 79.7 217.5Q80.7 218.5 80.7 220.4L80.7 220.4L80.7 221.2Q80.7 229.6 75.8 234.4Q71.0 239.3 62.3 239.3ZM110.8 234.9Q106.8 239.2 99.9 239.2Q93.0 239.2 88.9 234.9Q84.9 230.6 84.9 223.1L84.9 223.1Q84.9 215.6 89.0 211.2Q93.1 206.9 99.9 206.9L99.9 206.9Q106.7 206.9 110.8 211.2Q114.9 215.6 114.9 223.1L114.9 223.1Q114.9 230.6 110.8 234.9ZM94.3 230.7Q96.4 233.4 99.9 233.4Q103.4 233.4 105.4 230.7Q107.5 228.0 107.5 223.1L107.5 223.1Q107.5 218.2 105.4 215.4Q103.4 212.7 99.9 212.7L99.9 212.7Q96.4 212.7 94.3 215.4Q92.3 218.2 92.3 223.1L92.3 223.1Q92.3 228.0 94.3 230.7ZM128.7 239.1L128.7 239.1Q124.2 239.1 121.3 236.5Q118.3 233.9 118.3 229.7L118.3 229.7Q118.3 225.6 121.4 223.2Q124.5 220.8 130.1 220.4L130.1 220.4L138.4 219.9L138.4 217.7Q138.4 215.3 136.8 213.9Q135.3 212.6 132.6 212.6L132.6 212.6Q130.4 212.6 128.9 213.4Q127.4 214.2 126.1 216.2L126.1 216.2Q125.0 217.7 123.1 217.7L123.1 217.7Q121.8 217.7 120.9 216.9Q120.0 216.1 120.0 214.8L120.0 214.8Q120.0 213.8 120.5 212.8L120.5 212.8Q121.7 210.1 125.1 208.5Q128.4 206.9 132.9 206.9L132.9 206.9Q138.6 206.9 142.1 209.7Q145.6 212.5 145.6 217.2L145.6 217.2L145.6 235.5Q145.6 237.2 144.6 238.2Q143.6 239.2 142.0 239.2L142.0 239.2Q140.5 239.2 139.6 238.3Q138.6 237.4 138.6 235.8L138.6 235.8L138.6 233.6L138.4 233.6Q137.1 236.1 134.4 237.6Q131.8 239.1 128.7 239.1ZM130.9 233.6L130.9 233.6Q134.0 233.6 136.2 231.7Q138.4 229.8 138.4 227.1L138.4 227.1L138.4 224.7L131.2 225.1Q128.5 225.3 127.1 226.4Q125.6 227.6 125.6 229.4L125.6 229.4Q125.6 231.3 127.1 232.4Q128.5 233.6 130.9 233.6ZM157.9 238.2Q157.0 239.2 155.3 239.2Q153.7 239.2 152.7 238.2Q151.7 237.1 151.7 235.3L151.7 235.3L151.7 199.6Q151.7 197.7 152.7 196.7Q153.7 195.7 155.3 195.7Q157.0 195.7 157.9 196.7Q158.9 197.7 158.9 199.6L158.9 199.6L158.9 235.3Q158.9 237.1 157.9 238.2ZM177.1 239.2L177.1 239.2Q172.3 239.2 169.0 237.5Q165.6 235.8 164.5 233.0L164.5 233.0Q164.2 232.2 164.2 231.5L164.2 231.5Q164.2 230.2 165.0 229.4Q165.9 228.6 167.2 228.6L167.2 228.6Q169.1 228.6 170.4 230.4L170.4 230.4Q171.7 232.3 173.3 233.1Q174.9 233.9 177.4 233.9L177.4 233.9Q180.0 233.9 181.5 232.9Q183.1 231.8 183.1 230.1L183.1 230.1Q183.1 228.7 182.1 227.8Q181.1 227.0 178.7 226.4L178.7 226.4L173.7 225.3Q164.6 223.3 164.6 216.4L164.6 216.4Q164.6 212.1 168.1 209.5Q171.5 206.9 177.3 206.9L177.3 206.9Q181.7 206.9 184.9 208.8Q188.1 210.6 188.8 213.4L188.8 213.4Q189.0 214.0 189.0 214.5L189.0 214.5Q189.0 215.6 188.2 216.4Q187.5 217.1 186.2 217.1L186.2 217.1Q184.3 217.1 183.4 215.7L183.4 215.7Q182.2 214.0 180.8 213.1Q179.3 212.2 177.1 212.2L177.1 212.2Q174.7 212.2 173.2 213.3Q171.7 214.3 171.7 216.0L171.7 216.0Q171.7 218.8 176.3 219.8L176.3 219.8L181.2 220.9Q186.1 222.0 188.3 223.9Q190.4 225.9 190.4 229.3L190.4 229.3Q190.4 233.8 186.7 236.5Q183.1 239.2 177.1 239.2Z M219.4 239.2L219.4 239.2Q217.4 239.2 216.2 238.3Q215.0 237.4 214.3 235.4L214.3 235.4L205.6 212.3Q205.1 211.2 205.1 210.2L205.1 210.2Q205.1 208.8 206.2 207.8Q207.2 206.9 208.8 206.9L208.8 206.9Q211.4 206.9 212.3 209.8L212.3 209.8L219.4 231.8L219.5 231.8L226.6 209.8Q227.4 206.9 230.0 206.9L230.0 206.9Q231.5 206.9 232.6 207.8Q233.6 208.8 233.6 210.2L233.6 210.2Q233.6 211.2 233.2 212.2L233.2 212.2L224.5 235.4Q223.8 237.3 222.6 238.3Q221.3 239.2 219.4 239.2ZM249.6 239.2L249.6 239.2Q244.8 239.2 241.5 237.5Q238.1 235.8 237.0 233.0L237.0 233.0Q236.7 232.2 236.7 231.5L236.7 231.5Q236.7 230.2 237.5 229.4Q238.4 228.6 239.7 228.6L239.7 228.6Q241.6 228.6 242.9 230.4L242.9 230.4Q244.2 232.3 245.8 233.1Q247.4 233.9 249.9 233.9L249.9 233.9Q252.5 233.9 254.0 232.9Q255.6 231.8 255.6 230.1L255.6 230.1Q255.6 228.7 254.6 227.8Q253.6 227.0 251.2 226.4L251.2 226.4L246.2 225.3Q237.1 223.3 237.1 216.4L237.1 216.4Q237.1 212.1 240.6 209.5Q244.0 206.9 249.8 206.9L249.8 206.9Q254.2 206.9 257.4 208.8Q260.6 210.6 261.3 213.4L261.3 213.4Q261.5 214.0 261.5 214.5L261.5 214.5Q261.5 215.6 260.8 216.4Q260.0 217.1 258.7 217.1L258.7 217.1Q256.8 217.1 255.9 215.7L255.9 215.7Q254.7 214.0 253.3 213.1Q251.8 212.2 249.6 212.2L249.6 212.2Q247.2 212.2 245.7 213.3Q244.2 214.3 244.2 216.0L244.2 216.0Q244.2 218.8 248.8 219.8L248.8 219.8L253.7 220.9Q258.6 222.0 260.8 223.9Q262.9 225.9 262.9 229.3L262.9 229.3Q262.9 233.8 259.2 236.5Q255.6 239.2 249.6 239.2ZM272.6 238.9L272.6 238.9Q270.8 238.9 269.6 237.7Q268.4 236.5 268.4 234.7L268.4 234.7Q268.4 232.9 269.6 231.7Q270.8 230.5 272.6 230.5L272.6 230.5Q274.3 230.5 275.6 231.7Q276.8 232.9 276.8 234.7L276.8 234.7Q276.8 236.5 275.6 237.7Q274.3 238.9 272.6 238.9Z M298.2 239.1L298.2 239.1Q296.5 239.1 295.5 238.1Q294.4 237.2 294.4 235.6L294.4 235.6Q294.4 234.6 294.9 233.3L294.9 233.3L307.2 199.9Q307.9 197.8 309.3 196.8Q310.6 195.8 312.7 195.8L312.7 195.8Q314.7 195.8 316.1 196.8Q317.4 197.7 318.2 199.9L318.2 199.9L330.5 233.3Q331.0 234.7 331.0 235.6L331.0 235.6Q331.0 237.1 329.9 238.1Q328.9 239.1 327.2 239.1L327.2 239.1Q325.7 239.1 324.8 238.3Q323.9 237.6 323.4 235.9L323.4 235.9L320.6 227.8L304.8 227.8L302.0 235.8Q301.5 237.6 300.6 238.3Q299.7 239.1 298.2 239.1ZM312.5 203.8L306.6 221.8L318.7 221.8L312.7 203.8L312.5 203.8ZM349.4 239.2L349.4 239.2Q342.6 239.2 338.5 234.9Q334.5 230.5 334.5 223.1L334.5 223.1Q334.5 215.7 338.5 211.3Q342.5 206.9 349.3 206.9L349.3 206.9Q353.9 206.9 357.4 209.0Q361.0 211.1 362.1 214.4L362.1 214.4Q362.5 215.4 362.5 216.1L362.5 216.1Q362.5 217.5 361.6 218.3Q360.7 219.1 359.4 219.1L359.4 219.1Q358.3 219.1 357.5 218.6Q356.8 218.1 356.2 217.0L356.2 217.0Q353.9 212.8 349.6 212.8L349.6 212.8Q346.0 212.8 344.0 215.6Q341.9 218.3 341.9 223.1L341.9 223.1Q341.9 227.9 343.9 230.6Q346.0 233.3 349.5 233.3L349.5 233.3Q353.9 233.3 356.1 229.3L356.1 229.3Q356.9 228.1 357.6 227.6Q358.3 227.1 359.5 227.1L359.5 227.1Q360.8 227.1 361.7 227.9Q362.6 228.7 362.6 230.1L362.6 230.1Q362.6 230.9 362.1 231.9L362.1 231.9Q360.8 235.1 357.3 237.2Q353.8 239.2 349.4 239.2ZM369.5 230.9L369.5 230.9L369.5 213.1L367.5 213.1Q366.2 213.1 365.4 212.4Q364.6 211.6 364.6 210.3L364.6 210.3Q364.6 209.0 365.4 208.3Q366.2 207.5 367.5 207.5L367.5 207.5L369.5 207.5L369.5 203.4Q369.5 201.6 370.5 200.6Q371.5 199.6 373.2 199.6L373.2 199.6Q374.8 199.6 375.8 200.6Q376.8 201.6 376.8 203.4L376.8 203.4L376.8 207.5L380.2 207.5Q381.5 207.5 382.3 208.3Q383.1 209.0 383.1 210.3L383.1 210.3Q383.1 211.6 382.3 212.4Q381.5 213.1 380.2 213.1L380.2 213.1L376.8 213.1L376.8 229.3Q376.8 231.1 377.5 231.9Q378.1 232.7 379.7 232.9L379.7 232.9L380.3 232.9Q383.2 233.2 383.2 235.6L383.2 235.6Q383.2 237.2 381.8 238.1Q380.5 238.9 378.0 238.9L378.0 238.9L377.7 238.9Q369.5 238.9 369.5 230.9ZM394.3 202.0Q393.1 203.2 391.4 203.2Q389.7 203.2 388.5 202.0Q387.4 200.8 387.4 199.2L387.4 199.2Q387.4 197.5 388.5 196.4Q389.7 195.2 391.4 195.2L391.4 195.2Q393.1 195.2 394.3 196.4Q395.5 197.5 395.5 199.2L395.5 199.2Q395.5 200.8 394.3 202.0ZM394.1 238.1Q393.1 239.2 391.4 239.2Q389.7 239.2 388.8 238.1Q387.8 237.1 387.8 235.3L387.8 235.3L387.8 210.7Q387.8 209.0 388.8 207.9Q389.7 206.9 391.4 206.9Q393.1 206.9 394.1 207.9Q395.1 209.0 395.1 210.8L395.1 210.8L395.1 235.3Q395.1 237.1 394.1 238.1ZM425.9 234.9Q421.8 239.2 414.9 239.2Q408.1 239.2 404.0 234.9Q399.9 230.6 399.9 223.1L399.9 223.1Q399.9 215.6 404.0 211.2Q408.1 206.9 414.9 206.9L414.9 206.9Q421.8 206.9 425.9 211.2Q430.0 215.6 430.0 223.1L430.0 223.1Q430.0 230.6 425.9 234.9ZM409.4 230.7Q411.4 233.4 414.9 233.4Q418.5 233.4 420.5 230.7Q422.6 228.0 422.6 223.1L422.6 223.1Q422.6 218.2 420.5 215.4Q418.5 212.7 414.9 212.7L414.9 212.7Q411.5 212.7 409.4 215.4Q407.3 218.2 407.3 223.1L407.3 223.1Q407.3 228.0 409.4 230.7ZM440.9 238.2Q439.9 239.2 438.3 239.2Q436.7 239.2 435.7 238.2Q434.7 237.1 434.7 235.3L434.7 235.3L434.7 210.6Q434.7 208.9 435.6 207.9Q436.5 206.9 438.1 206.9Q439.8 206.9 440.8 207.9Q441.7 208.9 441.7 210.6L441.7 210.6L441.7 212.8L441.9 212.8Q444.5 206.9 451.6 206.9L451.6 206.9Q456.7 206.9 459.5 210.0Q462.3 213.1 462.3 218.5L462.3 218.5L462.3 235.3Q462.3 237.1 461.3 238.2Q460.3 239.2 458.7 239.2Q457.0 239.2 456.0 238.2Q455.0 237.1 455.0 235.3L455.0 235.3L455.0 220.0Q455.0 216.6 453.5 214.9Q451.9 213.1 448.8 213.1L448.8 213.1Q445.7 213.1 443.8 215.2Q442.0 217.2 442.0 220.6L442.0 220.6L442.0 235.3Q442.0 237.1 440.9 238.2ZM480.1 239.2L480.1 239.2Q475.3 239.2 472.0 237.5Q468.6 235.8 467.5 233.0L467.5 233.0Q467.2 232.2 467.2 231.5L467.2 231.5Q467.2 230.2 468.0 229.4Q468.9 228.6 470.2 228.6L470.2 228.6Q472.0 228.6 473.4 230.4L473.4 230.4Q474.6 232.3 476.2 233.1Q477.8 233.9 480.4 233.9L480.4 233.9Q483.0 233.9 484.5 232.9Q486.0 231.8 486.0 230.1L486.0 230.1Q486.0 228.7 485.0 227.8Q484.1 227.0 481.7 226.4L481.7 226.4L476.6 225.3Q467.6 223.3 467.6 216.4L467.6 216.4Q467.6 212.1 471.0 209.5Q474.5 206.9 480.2 206.9L480.2 206.9Q484.6 206.9 487.9 208.8Q491.1 210.6 491.8 213.4L491.8 213.4Q492.0 214.0 492.0 214.5L492.0 214.5Q492.0 215.6 491.2 216.4Q490.5 217.1 489.2 217.1L489.2 217.1Q487.3 217.1 486.4 215.7L486.4 215.7Q485.2 214.0 483.7 213.1Q482.3 212.2 480.1 212.2L480.1 212.2Q477.7 212.2 476.2 213.3Q474.7 214.3 474.7 216.0L474.7 216.0Q474.7 218.8 479.2 219.8L479.2 219.8L484.2 220.9Q489.1 222.0 491.2 223.9Q493.4 225.9 493.4 229.3L493.4 229.3Q493.4 233.8 489.7 236.5Q486.1 239.2 480.1 239.2Z M519.1 239.1L519.1 239.1Q514.6 239.1 511.6 236.5Q508.7 233.9 508.7 229.7L508.7 229.7Q508.7 225.6 511.8 223.2Q514.8 220.8 520.5 220.4L520.5 220.4L528.8 219.9L528.8 217.7Q528.8 215.3 527.2 213.9Q525.7 212.6 523.0 212.6L523.0 212.6Q520.8 212.6 519.3 213.4Q517.8 214.2 516.5 216.2L516.5 216.2Q515.3 217.7 513.5 217.7L513.5 217.7Q512.1 217.7 511.3 216.9Q510.4 216.1 510.4 214.8L510.4 214.8Q510.4 213.8 510.9 212.8L510.9 212.8Q512.1 210.1 515.4 208.5Q518.8 206.9 523.3 206.9L523.3 206.9Q529.0 206.9 532.5 209.7Q536.0 212.5 536.0 217.2L536.0 217.2L536.0 235.5Q536.0 237.2 535.0 238.2Q534.0 239.2 532.4 239.2L532.4 239.2Q530.9 239.2 530.0 238.3Q529.0 237.4 528.9 235.8L528.9 235.8L528.9 233.6L528.8 233.6Q527.5 236.1 524.8 237.6Q522.1 239.1 519.1 239.1ZM521.3 233.6L521.3 233.6Q524.4 233.6 526.6 231.7Q528.8 229.8 528.8 227.1L528.8 227.1L528.8 224.7L521.6 225.1Q518.9 225.3 517.5 226.4Q516.0 227.6 516.0 229.4L516.0 229.4Q516.0 231.3 517.5 232.4Q518.9 233.6 521.3 233.6ZM553.8 239.2L553.8 239.2Q549.0 239.2 545.6 237.5Q542.3 235.8 541.2 233.0L541.2 233.0Q540.9 232.2 540.9 231.5L540.9 231.5Q540.9 230.2 541.7 229.4Q542.6 228.6 543.9 228.6L543.9 228.6Q545.7 228.6 547.1 230.4L547.1 230.4Q548.3 232.3 549.9 233.1Q551.5 233.9 554.1 233.9L554.1 233.9Q556.7 233.9 558.2 232.9Q559.7 231.8 559.7 230.1L559.7 230.1Q559.7 228.7 558.7 227.8Q557.7 227.0 555.4 226.4L555.4 226.4L550.3 225.3Q541.3 223.3 541.3 216.4L541.3 216.4Q541.3 212.1 544.7 209.5Q548.2 206.9 553.9 206.9L553.9 206.9Q558.3 206.9 561.5 208.8Q564.8 210.6 565.5 213.4L565.5 213.4Q565.6 214.0 565.6 214.5L565.6 214.5Q565.6 215.6 564.9 216.4Q564.2 217.1 562.8 217.1L562.8 217.1Q561.0 217.1 560.0 215.7L560.0 215.7Q558.9 214.0 557.4 213.1Q555.9 212.2 553.8 212.2L553.8 212.2Q551.3 212.2 549.9 213.3Q548.4 214.3 548.4 216.0L548.4 216.0Q548.4 218.8 552.9 219.8L552.9 219.8L557.9 220.9Q562.8 222.0 564.9 223.9Q567.1 225.9 567.1 229.3L567.1 229.3Q567.1 233.8 563.4 236.5Q559.8 239.2 553.8 239.2Z M601.8 239.3L601.8 239.3Q593.8 239.3 589.1 235.0Q584.4 230.7 584.4 223.7L584.4 223.7L584.4 199.7Q584.4 197.9 585.4 196.8Q586.4 195.8 588.2 195.8L588.2 195.8Q590.0 195.8 591.0 196.8Q592.0 197.9 592.0 199.7L592.0 199.7L592.0 223.0Q592.0 227.4 594.5 230.0Q597.1 232.7 601.8 232.7Q606.4 232.7 609.0 230.0Q611.6 227.4 611.6 223.0L611.6 223.0L611.6 199.7Q611.6 197.9 612.6 196.8Q613.6 195.8 615.4 195.8L615.4 195.8Q617.1 195.8 618.1 196.8Q619.1 197.9 619.1 199.7L619.1 199.7L619.1 223.7Q619.1 230.7 614.4 235.0Q609.7 239.3 601.8 239.3ZM637.9 239.2L637.9 239.2Q633.0 239.2 629.7 237.5Q626.3 235.8 625.2 233.0L625.2 233.0Q624.9 232.2 624.9 231.5L624.9 231.5Q624.9 230.2 625.8 229.4Q626.6 228.6 628.0 228.6L628.0 228.6Q629.8 228.6 631.1 230.4L631.1 230.4Q632.4 232.3 634.0 233.1Q635.6 233.9 638.1 233.9L638.1 233.9Q640.7 233.9 642.2 232.9Q643.8 231.8 643.8 230.1L643.8 230.1Q643.8 228.7 642.8 227.8Q641.8 227.0 639.4 226.4L639.4 226.4L634.4 225.3Q625.3 223.3 625.3 216.4L625.3 216.4Q625.3 212.1 628.8 209.5Q632.2 206.9 638.0 206.9L638.0 206.9Q642.4 206.9 645.6 208.8Q648.8 210.6 649.6 213.4L649.6 213.4Q649.7 214.0 649.7 214.5L649.7 214.5Q649.7 215.6 649.0 216.4Q648.2 217.1 646.9 217.1L646.9 217.1Q645.0 217.1 644.1 215.7L644.1 215.7Q643.0 214.0 641.5 213.1Q640 212.2 637.8 212.2L637.8 212.2Q635.4 212.2 633.9 213.3Q632.4 214.3 632.4 216.0L632.4 216.0Q632.4 218.8 637.0 219.8L637.0 219.8L641.9 220.9Q646.9 222.0 649.0 223.9Q651.1 225.9 651.1 229.3L651.1 229.3Q651.1 233.8 647.5 236.5Q643.8 239.2 637.9 239.2ZM669.5 239.2L669.5 239.2Q662.4 239.2 658.4 235.0Q654.4 230.7 654.4 223.2L654.4 223.2Q654.4 215.7 658.4 211.3Q662.4 206.9 669.1 206.9L669.1 206.9Q675.4 206.9 679.4 210.9Q683.4 215.0 683.4 221.4L683.4 221.4Q683.4 223.0 682.5 223.9Q681.6 224.8 680.0 224.8L680.0 224.8L661.7 224.8L661.7 225.0Q661.7 228.9 663.8 231.3Q665.9 233.6 669.4 233.6L669.4 233.6Q671.9 233.6 673.7 232.6Q675.4 231.7 677.2 229.4L677.2 229.4Q678.3 228.3 679.7 228.3L679.7 228.3Q680.9 228.3 681.8 229.0Q682.6 229.8 682.6 231.1L682.6 231.1Q682.6 231.9 682.1 232.9L682.1 232.9Q680.5 235.9 677.2 237.5Q673.9 239.2 669.5 239.2ZM661.7 220.0L661.7 220.0L676.2 220.0Q676.1 216.6 674.2 214.6Q672.2 212.5 669.1 212.5Q666.0 212.5 664.0 214.6Q661.9 216.7 661.7 220.0ZM694.4 238.1Q693.4 239.2 691.7 239.2Q690.0 239.2 689.1 238.1Q688.1 237.1 688.1 235.3L688.1 235.3L688.1 210.6Q688.1 208.9 689.0 207.9Q690.0 206.9 691.6 206.9L691.6 206.9Q693.1 206.9 694.1 207.9Q695.0 208.9 695.0 210.6L695.0 210.6L695.0 213.0L695.2 213.0Q695.8 210.3 697.6 208.6Q699.5 207.0 701.8 207.0L701.8 207.0Q703.5 207.0 704.4 207.8L704.4 207.8Q705.4 208.6 705.4 210.4L705.4 210.4Q705.4 212.1 704.3 213.0L704.3 213.0Q703.3 213.9 701.1 214.0L701.1 214.0Q695.4 214.0 695.4 220.4L695.4 220.4L695.4 235.3Q695.4 237.1 694.4 238.1ZM725.4 224.7L712.2 224.7Q710.7 224.7 709.7 223.8Q708.7 222.9 708.7 221.4Q708.7 219.9 709.7 219.0Q710.7 218.2 712.2 218.2L712.2 218.2L725.4 218.2Q727.0 218.2 727.9 219.0Q728.9 219.9 728.9 221.4Q728.9 222.9 727.9 223.8Q727.0 224.7 725.4 224.7L725.4 224.7ZM739.4 239.1L739.4 239.1Q737.7 239.1 736.7 238.0Q735.7 237.0 735.7 235.2L735.7 235.2L735.7 200.2Q735.7 198.4 736.7 197.3Q737.7 196.3 739.4 196.3L739.4 196.3L759.6 196.3Q761.2 196.3 762.2 197.2Q763.1 198.0 763.1 199.5Q763.1 201.0 762.2 201.8Q761.2 202.7 759.6 202.7L759.6 202.7L743.2 202.7L743.2 215.2L758.1 215.2Q759.6 215.2 760.5 216.0Q761.4 216.8 761.4 218.2Q761.4 219.7 760.5 220.5Q759.6 221.3 758.1 221.3L758.1 221.3L743.2 221.3L743.2 235.2Q743.2 237.0 742.2 238.1Q741.2 239.1 739.4 239.1ZM776.5 239.1L776.5 239.1Q771.9 239.1 769.0 236.5Q766.1 233.9 766.1 229.7L766.1 229.7Q766.1 225.6 769.2 223.2Q772.2 220.8 777.9 220.4L777.9 220.4L786.1 219.9L786.1 217.7Q786.1 215.3 784.6 213.9Q783.1 212.6 780.3 212.6L780.3 212.6Q778.2 212.6 776.7 213.4Q775.2 214.2 773.8 216.2L773.8 216.2Q772.7 217.7 770.9 217.7L770.9 217.7Q769.5 217.7 768.7 216.9Q767.8 216.1 767.8 214.8L767.8 214.8Q767.8 213.8 768.3 212.8L768.3 212.8Q769.5 210.1 772.8 208.5Q776.2 206.9 780.6 206.9L780.6 206.9Q786.4 206.9 789.9 209.7Q793.3 212.5 793.3 217.2L793.3 217.2L793.3 235.5Q793.3 237.2 792.4 238.2Q791.4 239.2 789.8 239.2L789.8 239.2Q788.3 239.2 787.3 238.3Q786.4 237.4 786.3 235.8L786.3 235.8L786.3 233.6L786.2 233.6Q784.8 236.1 782.2 237.6Q779.5 239.1 776.5 239.1ZM778.7 233.6L778.7 233.6Q781.8 233.6 784.0 231.7Q786.1 229.8 786.1 227.1L786.1 227.1L786.1 224.7L778.9 225.1Q776.3 225.3 774.8 226.4Q773.4 227.6 773.4 229.4L773.4 229.4Q773.4 231.3 774.8 232.4Q776.3 233.6 778.7 233.6ZM812.9 239.2L812.9 239.2Q806.0 239.2 802.0 234.9Q797.9 230.5 797.9 223.1L797.9 223.1Q797.9 215.7 802.0 211.3Q806.0 206.9 812.8 206.9L812.8 206.9Q817.3 206.9 820.9 209.0Q824.5 211.1 825.6 214.4L825.6 214.4Q825.9 215.4 825.9 216.1L825.9 216.1Q825.9 217.5 825.1 218.3Q824.2 219.1 822.8 219.1L822.8 219.1Q821.7 219.1 821.0 218.6Q820.3 218.1 819.6 217.0L819.6 217.0Q817.3 212.8 813.0 212.8L813.0 212.8Q809.5 212.8 807.4 215.6Q805.3 218.3 805.3 223.1L805.3 223.1Q805.3 227.9 807.4 230.6Q809.5 233.3 813.0 233.3L813.0 233.3Q817.3 233.3 819.6 229.3L819.6 229.3Q820.4 228.1 821.1 227.6Q821.8 227.1 823.0 227.1L823.0 227.1Q824.3 227.1 825.2 227.9Q826.0 228.7 826.0 230.1L826.0 230.1Q826.0 230.9 825.6 231.9L825.6 231.9Q824.3 235.1 820.7 237.2Q817.2 239.2 812.9 239.2ZM837.6 202.0Q836.4 203.2 834.7 203.2Q833.0 203.2 831.9 202.0Q830.7 200.8 830.7 199.2L830.7 199.2Q830.7 197.5 831.9 196.4Q833.0 195.2 834.7 195.2L834.7 195.2Q836.5 195.2 837.6 196.4Q838.8 197.5 838.8 199.2L838.8 199.2Q838.8 200.8 837.6 202.0ZM837.4 238.1Q836.4 239.2 834.7 239.2Q833.1 239.2 832.1 238.1Q831.1 237.1 831.1 235.3L831.1 235.3L831.1 210.7Q831.1 209.0 832.1 207.9Q833.1 206.9 834.7 206.9Q836.4 206.9 837.4 207.9Q838.4 209.0 838.4 210.8L838.4 210.8L838.4 235.3Q838.4 237.1 837.4 238.1ZM850.8 238.2Q849.8 239.2 848.2 239.2Q846.5 239.2 845.5 238.2Q844.5 237.1 844.5 235.3L844.5 235.3L844.5 210.6Q844.5 208.9 845.5 207.9Q846.4 206.9 848.0 206.9Q849.6 206.9 850.6 207.9Q851.6 208.9 851.6 210.6L851.6 210.6L851.6 212.8L851.8 212.8Q854.4 206.9 861.4 206.9L861.4 206.9Q866.5 206.9 869.4 210.0Q872.2 213.1 872.2 218.5L872.2 218.5L872.2 235.3Q872.2 237.1 871.2 238.2Q870.2 239.2 868.5 239.2Q866.9 239.2 865.9 238.2Q864.9 237.1 864.9 235.3L864.9 235.3L864.9 220.0Q864.9 216.6 863.3 214.9Q861.7 213.1 858.7 213.1L858.7 213.1Q855.5 213.1 853.7 215.2Q851.8 217.2 851.8 220.6L851.8 220.6L851.8 235.3Q851.8 237.1 850.8 238.2ZM891.4 250.3L891.4 250.3Q887.0 250.2 883.7 248.7Q880.4 247.2 878.8 244.6L878.8 244.6Q878.2 243.6 878.2 242.4L878.2 242.4Q878.2 241.2 879.0 240.4Q879.9 239.6 881.2 239.6L881.2 239.6Q882.6 239.6 883.9 240.8L883.9 240.8Q885.8 242.7 887.5 243.6Q889.3 244.4 891.5 244.5L891.5 244.5Q895.1 244.5 897.2 242.6Q899.4 240.7 899.4 237.6L899.4 237.6L899.4 232.7L899.2 232.7Q898.0 235.2 895.4 236.7Q892.8 238.3 889.5 238.3L889.5 238.3Q883.6 238.3 880.2 234.0Q876.7 229.8 876.7 222.7L876.7 222.7Q876.7 215.4 880.2 211.2Q883.6 207.0 889.6 207.0L889.6 207.0Q892.9 207.0 895.4 208.5Q897.9 210.1 899.3 212.8L899.3 212.8L899.4 212.8L899.4 210.6Q899.4 208.9 900.4 207.9Q901.4 206.9 903.1 206.9Q904.7 206.9 905.7 207.9Q906.7 208.9 906.7 210.6L906.7 210.6L906.7 237.6Q906.7 243.5 902.6 246.9Q898.5 250.3 891.4 250.3ZM891.7 232.6L891.7 232.6Q895.2 232.6 897.3 229.9Q899.4 227.3 899.4 222.7L899.4 222.7Q899.4 218.2 897.3 215.5Q895.2 212.8 891.7 212.8L891.7 212.8Q888.3 212.8 886.2 215.5Q884.2 218.2 884.2 222.7L884.2 222.7Q884.2 227.3 886.2 230.0Q888.3 232.6 891.7 232.6Z M50.3 320.6Q49.3 321.7 47.5 321.7Q45.7 321.7 44.7 320.6Q43.7 319.6 43.7 317.7L43.7 317.7L43.7 282.7Q43.7 280.9 44.7 279.8Q45.7 278.8 47.5 278.8L47.5 278.8L60.5 278.8Q67.3 278.8 71.2 282.3Q75.1 285.9 75.1 292.0L75.1 292.0Q75.1 296.1 73.1 299.3Q71.1 302.5 67.4 303.9L67.4 303.9L74.1 315.6Q74.9 317.0 74.9 318.2L74.9 318.2Q74.9 319.7 73.8 320.7Q72.8 321.7 71.1 321.7L71.1 321.7Q69.8 321.7 69.0 321.1Q68.2 320.5 67.3 318.9L67.3 318.9L59.7 305.2L51.3 305.2L51.3 317.7Q51.3 319.6 50.3 320.6ZM51.3 284.9L51.3 299.4L59.8 299.4Q63.4 299.4 65.4 297.5Q67.4 295.6 67.4 292.1L67.4 292.1Q67.4 288.8 65.3 286.9Q63.2 284.9 59.7 284.9L59.7 284.9L51.3 284.9ZM94.3 321.7L94.3 321.7Q87.2 321.7 83.2 317.5Q79.2 313.2 79.2 305.7L79.2 305.7Q79.2 298.2 83.2 293.8Q87.2 289.4 93.9 289.4L93.9 289.4Q100.2 289.4 104.2 293.4Q108.2 297.5 108.2 303.9L108.2 303.9Q108.2 305.5 107.3 306.4Q106.4 307.3 104.8 307.3L104.8 307.3L86.5 307.3L86.5 307.5Q86.5 311.4 88.6 313.8Q90.7 316.1 94.2 316.1L94.2 316.1Q96.7 316.1 98.5 315.1Q100.2 314.2 102.0 311.9L102.0 311.9Q103.0 310.8 104.5 310.8L104.5 310.8Q105.7 310.8 106.5 311.5Q107.4 312.3 107.4 313.6L107.4 313.6Q107.4 314.4 106.9 315.4L106.9 315.4Q105.3 318.4 102.0 320.0Q98.7 321.7 94.3 321.7ZM86.5 302.5L86.5 302.5L101.0 302.5Q100.9 299.1 98.9 297.1Q97.0 295.0 93.9 295.0Q90.8 295.0 88.8 297.1Q86.7 299.2 86.5 302.5ZM119.1 331.1Q118.1 332.1 116.5 332.1Q114.9 332.1 113.9 331.1Q112.9 330.1 112.9 328.3L112.9 328.3L112.9 293.2Q112.9 291.4 113.8 290.4Q114.8 289.4 116.4 289.4L116.4 289.4Q118.0 289.4 119.0 290.4Q120.0 291.4 120.0 293.2L120.0 293.2L120.0 295.4L120.1 295.4Q121.5 292.6 124.0 291.1Q126.6 289.5 129.9 289.5L129.9 289.5Q135.8 289.5 139.3 293.8Q142.8 298.1 142.8 305.6L142.8 305.6Q142.8 313.0 139.3 317.3Q135.9 321.6 130.0 321.6L130.0 321.6Q126.7 321.6 124.1 320.1Q121.6 318.6 120.3 315.9L120.3 315.9L120.2 315.9L120.2 328.3Q120.2 330.1 119.1 331.1ZM127.7 315.6L127.7 315.6Q131.2 315.6 133.3 312.9Q135.3 310.2 135.3 305.6L135.3 305.6Q135.3 301.0 133.3 298.2Q131.2 295.5 127.7 295.5L127.7 295.5Q124.3 295.5 122.2 298.3Q120.1 301.0 120.1 305.6L120.1 305.6Q120.1 310.1 122.2 312.9Q124.3 315.6 127.7 315.6ZM153.8 320.6Q152.8 321.7 151.1 321.7Q149.5 321.7 148.5 320.6Q147.5 319.6 147.5 317.8L147.5 317.8L147.5 293.1Q147.5 291.4 148.4 290.4Q149.4 289.4 151.0 289.4L151.0 289.4Q152.5 289.4 153.5 290.4Q154.4 291.4 154.4 293.1L154.4 293.1L154.4 295.5L154.6 295.5Q155.2 292.8 157.1 291.1Q158.9 289.5 161.2 289.5L161.2 289.5Q162.9 289.5 163.8 290.3L163.8 290.3Q164.8 291.1 164.8 292.9L164.8 292.9Q164.8 294.6 163.8 295.5L163.8 295.5Q162.7 296.4 160.5 296.5L160.5 296.5Q154.8 296.5 154.8 302.9L154.8 302.9L154.8 317.8Q154.8 319.6 153.8 320.6ZM181.9 321.7L181.9 321.7Q174.8 321.7 170.8 317.5Q166.8 313.2 166.8 305.7L166.8 305.7Q166.8 298.2 170.8 293.8Q174.8 289.4 181.5 289.4L181.5 289.4Q187.9 289.4 191.8 293.4Q195.8 297.5 195.8 303.9L195.8 303.9Q195.8 305.5 194.9 306.4Q194.0 307.3 192.4 307.3L192.4 307.3L174.1 307.3L174.1 307.5Q174.1 311.4 176.2 313.8Q178.3 316.1 181.9 316.1L181.9 316.1Q184.3 316.1 186.1 315.1Q187.9 314.2 189.6 311.9L189.6 311.9Q190.7 310.8 192.1 310.8L192.1 310.8Q193.3 310.8 194.2 311.5Q195.0 312.3 195.0 313.6L195.0 313.6Q195.0 314.4 194.5 315.4L194.5 315.4Q193.0 318.4 189.6 320.0Q186.3 321.7 181.9 321.7ZM174.2 302.5L174.2 302.5L188.7 302.5Q188.5 299.1 186.6 297.1Q184.6 295.0 181.5 295.0Q178.5 295.0 176.4 297.1Q174.4 299.2 174.2 302.5ZM212.5 321.7L212.5 321.7Q207.6 321.7 204.3 320.0Q201.0 318.3 199.8 315.5L199.8 315.5Q199.5 314.7 199.5 314.0L199.5 314.0Q199.5 312.7 200.4 311.9Q201.2 311.1 202.6 311.1L202.6 311.1Q204.4 311.1 205.7 312.9L205.7 312.9Q207.0 314.8 208.6 315.6Q210.2 316.4 212.7 316.4L212.7 316.4Q215.3 316.4 216.9 315.4Q218.4 314.3 218.4 312.6L218.4 312.6Q218.4 311.2 217.4 310.3Q216.4 309.5 214.0 308.9L214.0 308.9L209.0 307.8Q199.9 305.8 199.9 298.9L199.9 298.9Q199.9 294.6 203.4 292.0Q206.8 289.4 212.6 289.4L212.6 289.4Q217.0 289.4 220.2 291.3Q223.4 293.1 224.2 295.9L224.2 295.9Q224.3 296.5 224.3 297.0L224.3 297.0Q224.3 298.1 223.6 298.9Q222.8 299.6 221.5 299.6L221.5 299.6Q219.6 299.6 218.7 298.2L218.7 298.2Q217.6 296.5 216.1 295.6Q214.6 294.7 212.4 294.7L212.4 294.7Q210.0 294.7 208.5 295.8Q207.0 296.8 207.0 298.5L207.0 298.5Q207.0 301.3 211.6 302.3L211.6 302.3L216.5 303.4Q221.5 304.5 223.6 306.4Q225.7 308.4 225.7 311.8L225.7 311.8Q225.7 316.3 222.1 319.0Q218.4 321.7 212.5 321.7ZM244.1 321.7L244.1 321.7Q237.0 321.7 233.0 317.5Q229.0 313.2 229.0 305.7L229.0 305.7Q229.0 298.2 233.0 293.8Q237.0 289.4 243.7 289.4L243.7 289.4Q250.1 289.4 254.0 293.4Q258.0 297.5 258.0 303.9L258.0 303.9Q258.0 305.5 257.1 306.4Q256.2 307.3 254.6 307.3L254.6 307.3L236.3 307.3L236.3 307.5Q236.3 311.4 238.4 313.8Q240.5 316.1 244.1 316.1L244.1 316.1Q246.5 316.1 248.3 315.1Q250.1 314.2 251.8 311.9L251.8 311.9Q252.9 310.8 254.3 310.8L254.3 310.8Q255.5 310.8 256.4 311.5Q257.2 312.3 257.2 313.6L257.2 313.6Q257.2 314.4 256.7 315.4L256.7 315.4Q255.2 318.4 251.8 320.0Q248.5 321.7 244.1 321.7ZM236.3 302.5L236.3 302.5L250.8 302.5Q250.7 299.1 248.8 297.1Q246.8 295.0 243.7 295.0Q240.7 295.0 238.6 297.1Q236.6 299.2 236.3 302.5ZM269.0 320.7Q268.0 321.7 266.3 321.7Q264.7 321.7 263.7 320.7Q262.7 319.6 262.7 317.8L262.7 317.8L262.7 293.1Q262.7 291.4 263.6 290.4Q264.6 289.4 266.2 289.4Q267.8 289.4 268.8 290.4Q269.8 291.4 269.8 293.1L269.8 293.1L269.8 295.3L269.9 295.3Q272.6 289.4 279.6 289.4L279.6 289.4Q284.7 289.4 287.5 292.5Q290.3 295.6 290.3 301.0L290.3 301.0L290.3 317.8Q290.3 319.6 289.3 320.7Q288.3 321.7 286.7 321.7Q285.1 321.7 284.1 320.7Q283.0 319.6 283.0 317.8L283.0 317.8L283.0 302.5Q283.0 299.1 281.5 297.4Q279.9 295.6 276.8 295.6L276.8 295.6Q273.7 295.6 271.8 297.7Q270.0 299.7 270.0 303.1L270.0 303.1L270.0 317.8Q270.0 319.6 269.0 320.7ZM298.2 313.4L298.2 313.4L298.2 295.6L296.2 295.6Q294.9 295.6 294.1 294.9Q293.3 294.1 293.3 292.8L293.3 292.8Q293.3 291.5 294.1 290.8Q294.9 290.0 296.2 290.0L296.2 290.0L298.2 290.0L298.2 285.9Q298.2 284.1 299.2 283.1Q300.2 282.1 301.9 282.1L301.9 282.1Q303.5 282.1 304.5 283.1Q305.5 284.1 305.5 285.9L305.5 285.9L305.5 290.0L308.9 290.0Q310.2 290.0 311.0 290.8Q311.8 291.5 311.8 292.8L311.8 292.8Q311.8 294.1 311.0 294.9Q310.2 295.6 308.9 295.6L308.9 295.6L305.5 295.6L305.5 311.8Q305.5 313.6 306.2 314.4Q306.8 315.2 308.4 315.4L308.4 315.4L308.9 315.4Q311.9 315.7 311.9 318.1L311.9 318.1Q311.9 319.7 310.5 320.6Q309.2 321.4 306.7 321.4L306.7 321.4L306.4 321.4Q298.2 321.4 298.2 313.4ZM325.4 321.6L325.4 321.6Q320.9 321.6 318.0 319.0Q315.0 316.4 315.0 312.2L315.0 312.2Q315.0 308.1 318.1 305.7Q321.2 303.3 326.8 302.9L326.8 302.9L335.1 302.4L335.1 300.2Q335.1 297.8 333.5 296.4Q332.0 295.1 329.3 295.1L329.3 295.1Q327.1 295.1 325.6 295.9Q324.1 296.7 322.8 298.7L322.8 298.7Q321.7 300.2 319.8 300.2L319.8 300.2Q318.5 300.2 317.6 299.4Q316.7 298.6 316.7 297.3L316.7 297.3Q316.7 296.3 317.2 295.3L317.2 295.3Q318.4 292.6 321.8 291.0Q325.1 289.4 329.6 289.4L329.6 289.4Q335.3 289.4 338.8 292.2Q342.3 295.0 342.3 299.7L342.3 299.7L342.3 318.0Q342.3 319.7 341.3 320.7Q340.3 321.7 338.7 321.7L338.7 321.7Q337.2 321.7 336.3 320.8Q335.3 319.9 335.3 318.3L335.3 318.3L335.3 316.1L335.1 316.1Q333.8 318.6 331.1 320.1Q328.5 321.6 325.4 321.6ZM327.6 316.1L327.6 316.1Q330.7 316.1 332.9 314.2Q335.1 312.3 335.1 309.6L335.1 309.6L335.1 307.2L327.9 307.6Q325.2 307.8 323.8 308.9Q322.3 310.1 322.3 311.9L322.3 311.9Q322.3 313.8 323.8 314.9Q325.2 316.1 327.6 316.1ZM350.2 313.4L350.2 313.4L350.2 295.6L348.2 295.6Q346.9 295.6 346.1 294.9Q345.3 294.1 345.3 292.8L345.3 292.8Q345.3 291.5 346.0 290.8Q346.8 290.0 348.2 290.0L348.2 290.0L350.2 290.0L350.2 285.9Q350.2 284.1 351.1 283.1Q352.1 282.1 353.8 282.1L353.8 282.1Q355.5 282.1 356.5 283.1Q357.5 284.1 357.5 285.9L357.5 285.9L357.5 290.0L360.8 290.0Q362.2 290.0 363.0 290.8Q363.8 291.5 363.8 292.8L363.8 292.8Q363.8 294.1 363.0 294.9Q362.2 295.6 360.8 295.6L360.8 295.6L357.5 295.6L357.5 311.8Q357.5 313.6 358.1 314.4Q358.8 315.2 360.4 315.4L360.4 315.4L360.9 315.4Q363.8 315.7 363.8 318.1L363.8 318.1Q363.8 319.7 362.5 320.6Q361.2 321.4 358.6 321.4L358.6 321.4L358.3 321.4Q350.2 321.4 350.2 313.4ZM375.0 284.5Q373.8 285.7 372.1 285.7Q370.4 285.7 369.2 284.5Q368.0 283.3 368.0 281.7L368.0 281.7Q368.0 280.0 369.2 278.9Q370.4 277.7 372.1 277.7L372.1 277.7Q373.8 277.7 375.0 278.9Q376.2 280.0 376.2 281.7L376.2 281.7Q376.2 283.3 375.0 284.5ZM374.7 320.6Q373.8 321.7 372.1 321.7Q370.4 321.7 369.4 320.6Q368.4 319.6 368.4 317.8L368.4 317.8L368.4 293.2Q368.4 291.5 369.4 290.4Q370.4 289.4 372.1 289.4Q373.8 289.4 374.7 290.4Q375.7 291.5 375.7 293.3L375.7 293.3L375.7 317.8Q375.7 319.6 374.7 320.6ZM406.6 317.4Q402.5 321.7 395.6 321.7Q388.7 321.7 384.6 317.4Q380.6 313.1 380.6 305.6L380.6 305.6Q380.6 298.1 384.7 293.7Q388.8 289.4 395.6 289.4L395.6 289.4Q402.5 289.4 406.5 293.7Q410.6 298.1 410.6 305.6L410.6 305.6Q410.6 313.1 406.6 317.4ZM390.0 313.2Q392.1 315.9 395.6 315.9Q399.1 315.9 401.2 313.2Q403.2 310.5 403.2 305.6L403.2 305.6Q403.2 300.7 401.2 297.9Q399.1 295.2 395.6 295.2L395.6 295.2Q392.1 295.2 390.1 297.9Q388.0 300.7 388.0 305.6L388.0 305.6Q388.0 310.5 390.0 313.2ZM421.6 320.7Q420.6 321.7 419.0 321.7Q417.3 321.7 416.3 320.7Q415.3 319.6 415.3 317.8L415.3 317.8L415.3 293.1Q415.3 291.4 416.3 290.4Q417.2 289.4 418.8 289.4Q420.4 289.4 421.4 290.4Q422.4 291.4 422.4 293.1L422.4 293.1L422.4 295.3L422.6 295.3Q425.2 289.4 432.2 289.4L432.2 289.4Q437.3 289.4 440.2 292.5Q443.0 295.6 443.0 301.0L443.0 301.0L443.0 317.8Q443.0 319.6 442.0 320.7Q441.0 321.7 439.3 321.7Q437.7 321.7 436.7 320.7Q435.7 319.6 435.7 317.8L435.7 317.8L435.7 302.5Q435.7 299.1 434.1 297.4Q432.5 295.6 429.5 295.6L429.5 295.6Q426.3 295.6 424.5 297.7Q422.6 299.7 422.6 303.1L422.6 303.1L422.6 317.8Q422.6 319.6 421.6 320.7ZM460.8 321.7L460.8 321.7Q456.0 321.7 452.6 320.0Q449.3 318.3 448.1 315.5L448.1 315.5Q447.8 314.7 447.8 314.0L447.8 314.0Q447.8 312.7 448.7 311.9Q449.5 311.1 450.9 311.1L450.9 311.1Q452.7 311.1 454.1 312.9L454.1 312.9Q455.3 314.8 456.9 315.6Q458.5 316.4 461.1 316.4L461.1 316.4Q463.6 316.4 465.2 315.4Q466.7 314.3 466.7 312.6L466.7 312.6Q466.7 311.2 465.7 310.3Q464.7 309.5 462.3 308.9L462.3 308.9L457.3 307.8Q448.3 305.8 448.3 298.9L448.3 298.9Q448.3 294.6 451.7 292.0Q455.2 289.4 460.9 289.4L460.9 289.4Q465.3 289.4 468.5 291.3Q471.7 293.1 472.5 295.9L472.5 295.9Q472.6 296.5 472.6 297.0L472.6 297.0Q472.6 298.1 471.9 298.9Q471.2 299.6 469.8 299.6L469.8 299.6Q468.0 299.6 467.0 298.2L467.0 298.2Q465.9 296.5 464.4 295.6Q462.9 294.7 460.7 294.7L460.7 294.7Q458.3 294.7 456.8 295.8Q455.3 296.8 455.3 298.5L455.3 298.5Q455.3 301.3 459.9 302.3L459.9 302.3L464.9 303.4Q469.8 304.5 471.9 306.4Q474.0 308.4 474.0 311.8L474.0 311.8Q474.0 316.3 470.4 319.0Q466.7 321.7 460.8 321.7Z M499.0 320.7Q498.0 321.7 496.3 321.7Q494.7 321.7 493.7 320.7Q492.7 319.7 492.7 317.9L492.7 317.9L492.7 295.6L490.7 295.6Q489.5 295.6 488.7 294.9Q487.9 294.2 487.9 292.9L487.9 292.9Q487.9 291.6 488.7 290.9Q489.5 290.1 490.7 290.1L490.7 290.1L492.7 290.1L492.7 287.4Q492.7 278.5 501.2 278.5L501.2 278.5Q504.0 278.5 505.4 279.3Q506.8 280.1 506.8 281.5L506.8 281.5Q506.8 283.2 505.2 283.6L505.2 283.6Q504.6 283.8 503.6 283.8L503.6 283.8Q501.6 283.9 500.7 284.8Q499.8 285.7 499.8 287.7L499.8 287.7L499.8 290.1L503.8 290.1Q505 290.1 505.8 290.9Q506.6 291.6 506.6 292.9L506.6 292.9Q506.6 294.2 505.8 294.9Q505 295.6 503.8 295.6L503.8 295.6L500.0 295.6L500.0 317.9Q500.0 319.7 499.0 320.7ZM535.6 317.4Q531.5 321.7 524.6 321.7Q517.7 321.7 513.6 317.4Q509.6 313.1 509.6 305.6L509.6 305.6Q509.6 298.1 513.7 293.7Q517.8 289.4 524.6 289.4L524.6 289.4Q531.5 289.4 535.5 293.7Q539.6 298.1 539.6 305.6L539.6 305.6Q539.6 313.1 535.6 317.4ZM519.0 313.2Q521.1 315.9 524.6 315.9Q528.1 315.9 530.2 313.2Q532.2 310.5 532.2 305.6L532.2 305.6Q532.2 300.7 530.2 297.9Q528.1 295.2 524.6 295.2L524.6 295.2Q521.1 295.2 519.0 297.9Q517.0 300.7 517.0 305.6L517.0 305.6Q517.0 310.5 519.0 313.2ZM550.6 320.6Q549.6 321.7 547.9 321.7Q546.3 321.7 545.3 320.6Q544.3 319.6 544.3 317.8L544.3 317.8L544.3 293.1Q544.3 291.4 545.3 290.4Q546.2 289.4 547.8 289.4L547.8 289.4Q549.3 289.4 550.3 290.4Q551.3 291.4 551.3 293.1L551.3 293.1L551.3 295.5L551.4 295.5Q552.1 292.8 553.9 291.1Q555.7 289.5 558.1 289.5L558.1 289.5Q559.8 289.5 560.6 290.3L560.6 290.3Q561.7 291.1 561.7 292.9L561.7 292.9Q561.7 294.6 560.6 295.5L560.6 295.5Q559.5 296.4 557.4 296.5L557.4 296.5Q551.6 296.5 551.6 302.9L551.6 302.9L551.6 317.8Q551.6 319.6 550.6 320.6Z M584.2 320.6Q583.2 321.7 581.5 321.7Q579.7 321.7 578.7 320.6Q577.7 319.6 577.7 317.7L577.7 317.7L577.7 282.7Q577.7 280.9 578.7 279.8Q579.7 278.8 581.5 278.8L581.5 278.8L594.5 278.8Q601.3 278.8 605.2 282.3Q609.1 285.9 609.1 292.0L609.1 292.0Q609.1 296.1 607.1 299.3Q605.0 302.5 601.4 303.9L601.4 303.9L608.1 315.6Q608.9 317.0 608.9 318.2L608.9 318.2Q608.9 319.7 607.8 320.7Q606.7 321.7 605.1 321.7L605.1 321.7Q603.7 321.7 602.9 321.1Q602.1 320.5 601.2 318.9L601.2 318.9L593.7 305.2L585.2 305.2L585.2 317.7Q585.2 319.6 584.2 320.6ZM585.2 284.9L585.2 299.4L593.8 299.4Q597.4 299.4 599.4 297.5Q601.4 295.6 601.4 292.1L601.4 292.1Q601.4 288.8 599.3 286.9Q597.2 284.9 593.6 284.9L593.6 284.9L585.2 284.9ZM639.2 317.4Q635.1 321.7 628.2 321.7Q621.3 321.7 617.2 317.4Q613.2 313.1 613.2 305.6L613.2 305.6Q613.2 298.1 617.3 293.7Q621.4 289.4 628.2 289.4L628.2 289.4Q635.0 289.4 639.1 293.7Q643.2 298.1 643.2 305.6L643.2 305.6Q643.2 313.1 639.2 317.4ZM622.6 313.2Q624.7 315.9 628.2 315.9Q631.7 315.9 633.8 313.2Q635.8 310.5 635.8 305.6L635.8 305.6Q635.8 300.7 633.8 297.9Q631.7 295.2 628.2 295.2L628.2 295.2Q624.7 295.2 622.6 297.9Q620.6 300.7 620.6 305.6L620.6 305.6Q620.6 310.5 622.6 313.2ZM654.3 320.7Q653.3 321.7 651.7 321.7Q650.0 321.7 649.1 320.7Q648.1 319.8 648.1 318.0L648.1 318.0L648.1 282.1Q648.1 280.2 649.1 279.2Q650.1 278.2 651.8 278.2Q653.4 278.2 654.4 279.2Q655.4 280.2 655.4 282.1L655.4 282.1L655.4 295.4L655.6 295.4Q656.9 292.6 659.5 291.0Q662.0 289.5 665.3 289.5L665.3 289.5Q671.2 289.5 674.7 293.8Q678.1 298.1 678.1 305.6L678.1 305.6Q678.1 313.0 674.7 317.3Q671.2 321.6 665.3 321.6L665.3 321.6Q661.9 321.6 659.4 320.1Q656.8 318.5 655.4 315.8L655.4 315.8L655.3 315.8L655.3 318.0Q655.3 319.7 654.3 320.7ZM663.1 315.6L663.1 315.6Q666.5 315.6 668.6 312.9Q670.6 310.2 670.6 305.6Q670.6 300.9 668.6 298.2Q666.5 295.5 663.1 295.5L663.1 295.5Q659.7 295.5 657.5 298.3Q655.4 301.0 655.4 305.6L655.4 305.6Q655.4 310.1 657.5 312.8Q659.7 315.6 663.1 315.6ZM707.5 317.4Q703.4 321.7 696.5 321.7Q689.7 321.7 685.6 317.4Q681.5 313.1 681.5 305.6L681.5 305.6Q681.5 298.1 685.6 293.7Q689.7 289.4 696.5 289.4L696.5 289.4Q703.4 289.4 707.5 293.7Q711.6 298.1 711.6 305.6L711.6 305.6Q711.6 313.1 707.5 317.4ZM691.0 313.2Q693.0 315.9 696.5 315.9Q700.1 315.9 702.1 313.2Q704.2 310.5 704.2 305.6L704.2 305.6Q704.2 300.7 702.1 297.9Q700.1 295.2 696.5 295.2L696.5 295.2Q693.1 295.2 691.0 297.9Q688.9 300.7 688.9 305.6L688.9 305.6Q688.9 310.5 691.0 313.2ZM718.3 313.4L718.3 313.4L718.3 295.6L716.3 295.6Q715.0 295.6 714.2 294.9Q713.4 294.1 713.4 292.8L713.4 292.8Q713.4 291.5 714.2 290.8Q714.9 290.0 716.3 290.0L716.3 290.0L718.3 290.0L718.3 285.9Q718.3 284.1 719.3 283.1Q720.2 282.1 721.9 282.1L721.9 282.1Q723.6 282.1 724.6 283.1Q725.6 284.1 725.6 285.9L725.6 285.9L725.6 290.0L728.9 290.0Q730.3 290.0 731.1 290.8Q731.9 291.5 731.9 292.8L731.9 292.8Q731.9 294.1 731.1 294.9Q730.3 295.6 728.9 295.6L728.9 295.6L725.6 295.6L725.6 311.8Q725.6 313.6 726.3 314.4Q726.9 315.2 728.5 315.4L728.5 315.4L729.0 315.4Q732.0 315.7 732.0 318.1L732.0 318.1Q732.0 319.7 730.6 320.6Q729.3 321.4 726.7 321.4L726.7 321.4L726.5 321.4Q718.3 321.4 718.3 313.4Z M752.9 321.6L752.9 321.6Q751.2 321.6 750.1 320.5Q749.1 319.5 749.1 317.7L749.1 317.7L749.1 282.7Q749.1 280.9 750.1 279.8Q751.2 278.8 752.9 278.8L752.9 278.8L765.6 278.8Q771.9 278.8 775.8 282.7Q779.8 286.6 779.8 293.0L779.8 293.0Q779.8 299.3 775.7 303.2Q771.7 307.1 765.2 307.1L765.2 307.1L756.7 307.1L756.7 317.7Q756.7 319.5 755.7 320.6Q754.7 321.6 752.9 321.6ZM756.7 285.0L756.7 301.0L763.5 301.0Q767.6 301.0 769.9 298.9Q772.1 296.8 772.1 293.0L772.1 293.0Q772.1 289.1 769.9 287.1Q767.6 285.0 763.6 285.0L763.6 285.0L756.7 285.0ZM790.9 320.6Q789.9 321.7 788.2 321.7Q786.5 321.7 785.6 320.6Q784.6 319.6 784.6 317.8L784.6 317.8L784.6 293.1Q784.6 291.4 785.5 290.4Q786.5 289.4 788.1 289.4L788.1 289.4Q789.6 289.4 790.6 290.4Q791.5 291.4 791.5 293.1L791.5 293.1L791.5 295.5L791.7 295.5Q792.3 292.8 794.1 291.1Q796.0 289.5 798.3 289.5L798.3 289.5Q800.0 289.5 800.9 290.3L800.9 290.3Q801.9 291.1 801.9 292.9L801.9 292.9Q801.9 294.6 800.8 295.5L800.8 295.5Q799.8 296.4 797.6 296.5L797.6 296.5Q791.9 296.5 791.9 302.9L791.9 302.9L791.9 317.8Q791.9 319.6 790.9 320.6ZM829.9 317.4Q825.8 321.7 818.9 321.7Q812.1 321.7 808.0 317.4Q803.9 313.1 803.9 305.6L803.9 305.6Q803.9 298.1 808.0 293.7Q812.1 289.4 818.9 289.4L818.9 289.4Q825.8 289.4 829.9 293.7Q834.0 298.1 834.0 305.6L834.0 305.6Q834.0 313.1 829.9 317.4ZM813.4 313.2Q815.4 315.9 818.9 315.9Q822.5 315.9 824.5 313.2Q826.6 310.5 826.6 305.6L826.6 305.6Q826.6 300.7 824.5 297.9Q822.5 295.2 818.9 295.2L818.9 295.2Q815.5 295.2 813.4 297.9Q811.3 300.7 811.3 305.6L811.3 305.6Q811.3 310.5 813.4 313.2ZM852.1 332.8L852.1 332.8Q847.7 332.7 844.4 331.2Q841.1 329.7 839.5 327.1L839.5 327.1Q838.8 326.1 838.8 324.9L838.8 324.9Q838.8 323.7 839.7 322.9Q840.5 322.1 841.9 322.1L841.9 322.1Q843.3 322.1 844.6 323.3L844.6 323.3Q846.4 325.2 848.2 326.1Q849.9 326.9 852.1 327.0L852.1 327.0Q855.8 327.0 857.9 325.1Q860.0 323.2 860.0 320.1L860.0 320.1L860.0 315.2L859.9 315.2Q858.6 317.7 856.0 319.2Q853.4 320.8 850.1 320.8L850.1 320.8Q844.3 320.8 840.8 316.5Q837.4 312.3 837.4 305.2L837.4 305.2Q837.4 297.9 840.8 293.7Q844.3 289.5 850.3 289.5L850.3 289.5Q853.5 289.5 856.0 291.0Q858.6 292.6 859.9 295.3L859.9 295.3L860.0 295.3L860.0 293.1Q860.0 291.4 861.1 290.4Q862.1 289.4 863.7 289.4Q865.3 289.4 866.3 290.4Q867.3 291.4 867.3 293.1L867.3 293.1L867.3 320.1Q867.3 326.0 863.3 329.4Q859.2 332.8 852.1 332.8ZM852.4 315.1L852.4 315.1Q855.9 315.1 858.0 312.4Q860.1 309.8 860.1 305.2L860.1 305.2Q860.1 300.7 858.0 298.0Q855.9 295.3 852.4 295.3L852.4 295.3Q848.9 295.3 846.9 298.0Q844.8 300.7 844.8 305.2L844.8 305.2Q844.8 309.8 846.9 312.5Q848.9 315.1 852.4 315.1ZM879.6 320.6Q878.6 321.7 876.9 321.7Q875.3 321.7 874.3 320.6Q873.3 319.6 873.3 317.8L873.3 317.8L873.3 293.1Q873.3 291.4 874.2 290.4Q875.2 289.4 876.8 289.4L876.8 289.4Q878.3 289.4 879.3 290.4Q880.2 291.4 880.2 293.1L880.2 293.1L880.2 295.5L880.4 295.5Q881.0 292.8 882.9 291.1Q884.7 289.5 887.0 289.5L887.0 289.5Q888.7 289.5 889.6 290.3L889.6 290.3Q890.6 291.1 890.6 292.9L890.6 292.9Q890.6 294.6 889.6 295.5L889.6 295.5Q888.5 296.4 886.3 296.5L886.3 296.5Q880.6 296.5 880.6 302.9L880.6 302.9L880.6 317.8Q880.6 319.6 879.6 320.6ZM903.0 321.6L903.0 321.6Q898.5 321.6 895.6 319.0Q892.7 316.4 892.7 312.2L892.7 312.2Q892.7 308.1 895.7 305.7Q898.8 303.3 904.5 302.9L904.5 302.9L912.7 302.4L912.7 300.2Q912.7 297.8 911.2 296.4Q909.6 295.1 906.9 295.1L906.9 295.1Q904.7 295.1 903.2 295.9Q901.7 296.7 900.4 298.7L900.4 298.7Q899.3 300.2 897.4 300.2L897.4 300.2Q896.1 300.2 895.2 299.4Q894.4 298.6 894.4 297.3L894.4 297.3Q894.4 296.3 894.9 295.3L894.9 295.3Q896.0 292.6 899.4 291.0Q902.7 289.4 907.2 289.4L907.2 289.4Q913.0 289.4 916.4 292.2Q919.9 295.0 919.9 299.7L919.9 299.7L919.9 318.0Q919.9 319.7 918.9 320.7Q917.9 321.7 916.4 321.7L916.4 321.7Q914.8 321.7 913.9 320.8Q913.0 319.9 912.9 318.3L912.9 318.3L912.9 316.1L912.7 316.1Q911.4 318.6 908.7 320.1Q906.1 321.6 903.0 321.6ZM905.3 316.1L905.3 316.1Q908.4 316.1 910.5 314.2Q912.7 312.3 912.7 309.6L912.7 309.6L912.7 307.2L905.5 307.6Q902.9 307.8 901.4 308.9Q900.0 310.1 900.0 311.9L900.0 311.9Q900.0 313.8 901.4 314.9Q902.9 316.1 905.3 316.1ZM929.4 321.7L929.4 321.7Q927.7 321.7 926.7 320.7Q925.8 319.6 925.8 317.8L925.8 317.8L925.8 293.1Q925.8 291.4 926.7 290.4Q927.7 289.4 929.2 289.4Q930.8 289.4 931.8 290.4Q932.8 291.4 932.8 293.1L932.8 293.1L932.8 295.4L932.9 295.4Q933.9 292.7 936.3 291.0Q938.6 289.4 941.8 289.4L941.8 289.4Q945.0 289.4 947.3 291.1Q949.6 292.7 950.4 295.7L950.4 295.7L950.6 295.7Q951.7 292.8 954.3 291.1Q956.9 289.4 960.3 289.4L960.3 289.4Q964.9 289.4 967.6 292.3Q970.4 295.1 970.4 299.8L970.4 299.8L970.4 317.8Q970.4 319.6 969.4 320.6Q968.4 321.7 966.8 321.7L966.8 321.7Q965.1 321.7 964.1 320.6Q963.1 319.6 963.1 317.8L963.1 317.8L963.1 301.6Q963.1 298.7 961.7 297.1Q960.2 295.6 957.5 295.6L957.5 295.6Q954.9 295.6 953.3 297.3Q951.6 299.1 951.6 301.9L951.6 301.9L951.6 317.8Q951.6 319.6 950.7 320.7Q949.7 321.7 948.1 321.7L948.1 321.7Q946.4 321.7 945.5 320.7Q944.5 319.6 944.5 317.8L944.5 317.8L944.5 301.2Q944.5 298.6 943.1 297.1Q941.6 295.6 939.0 295.6L939.0 295.6Q936.4 295.6 934.7 297.4Q933.1 299.3 933.1 302.1L933.1 302.1L933.1 317.8Q933.1 319.6 932.0 320.6Q931.0 321.7 929.4 321.7ZM979.9 321.7L979.9 321.7Q978.2 321.7 977.2 320.7Q976.2 319.6 976.2 317.8L976.2 317.8L976.2 293.1Q976.2 291.4 977.2 290.4Q978.1 289.4 979.7 289.4Q981.3 289.4 982.3 290.4Q983.2 291.4 983.2 293.1L983.2 293.1L983.2 295.4L983.4 295.4Q984.4 292.7 986.8 291.0Q989.1 289.4 992.2 289.4L992.2 289.4Q995.5 289.4 997.8 291.1Q1000.1 292.7 1000.9 295.7L1000.9 295.7L1001.1 295.7Q1002.2 292.8 1004.8 291.1Q1007.4 289.4 1010.8 289.4L1010.8 289.4Q1015.4 289.4 1018.1 292.3Q1020.9 295.1 1020.9 299.8L1020.9 299.8L1020.9 317.8Q1020.9 319.6 1019.9 320.6Q1018.9 321.7 1017.3 321.7L1017.3 321.7Q1015.6 321.7 1014.6 320.6Q1013.6 319.6 1013.6 317.8L1013.6 317.8L1013.6 301.6Q1013.6 298.7 1012.1 297.1Q1010.7 295.6 1008.0 295.6L1008.0 295.6Q1005.4 295.6 1003.8 297.3Q1002.1 299.1 1002.1 301.9L1002.1 301.9L1002.1 317.8Q1002.1 319.6 1001.2 320.7Q1000.2 321.7 998.6 321.7L998.6 321.7Q996.9 321.7 996.0 320.7Q995.0 319.6 995.0 317.8L995.0 317.8L995.0 301.2Q995.0 298.6 993.5 297.1Q992.1 295.6 989.5 295.6L989.5 295.6Q986.9 295.6 985.2 297.4Q983.5 299.3 983.5 302.1L983.5 302.1L983.5 317.8Q983.5 319.6 982.5 320.6Q981.5 321.7 979.9 321.7ZM1033.4 284.5Q1032.2 285.7 1030.5 285.7Q1028.8 285.7 1027.7 284.5Q1026.5 283.3 1026.5 281.7L1026.5 281.7Q1026.5 280.0 1027.7 278.9Q1028.8 277.7 1030.5 277.7L1030.5 277.7Q1032.3 277.7 1033.4 278.9Q1034.6 280.0 1034.6 281.7L1034.6 281.7Q1034.6 283.3 1033.4 284.5ZM1033.2 320.6Q1032.2 321.7 1030.5 321.7Q1028.9 321.7 1027.9 320.6Q1026.9 319.6 1026.9 317.8L1026.9 317.8L1026.9 293.2Q1026.9 291.5 1027.9 290.4Q1028.9 289.4 1030.5 289.4Q1032.2 289.4 1033.2 290.4Q1034.2 291.5 1034.2 293.3L1034.2 293.3L1034.2 317.8Q1034.2 319.6 1033.2 320.6ZM1046.6 320.7Q1045.6 321.7 1043.9 321.7Q1042.3 321.7 1041.3 320.7Q1040.3 319.6 1040.3 317.8L1040.3 317.8L1040.3 293.1Q1040.3 291.4 1041.3 290.4Q1042.2 289.4 1043.8 289.4Q1045.4 289.4 1046.4 290.4Q1047.4 291.4 1047.4 293.1L1047.4 293.1L1047.4 295.3L1047.5 295.3Q1050.2 289.4 1057.2 289.4L1057.2 289.4Q1062.3 289.4 1065.1 292.5Q1068.0 295.6 1068.0 301.0L1068.0 301.0L1068.0 317.8Q1068.0 319.6 1067.0 320.7Q1066.0 321.7 1064.3 321.7Q1062.7 321.7 1061.7 320.7Q1060.7 319.6 1060.7 317.8L1060.7 317.8L1060.7 302.5Q1060.7 299.1 1059.1 297.4Q1057.5 295.6 1054.5 295.6L1054.5 295.6Q1051.3 295.6 1049.5 297.7Q1047.6 299.7 1047.6 303.1L1047.6 303.1L1047.6 317.8Q1047.6 319.6 1046.6 320.7ZM1087.2 332.8L1087.2 332.8Q1082.8 332.7 1079.5 331.2Q1076.2 329.7 1074.6 327.1L1074.6 327.1Q1074.0 326.1 1074.0 324.9L1074.0 324.9Q1074.0 323.7 1074.8 322.9Q1075.6 322.1 1077.0 322.1L1077.0 322.1Q1078.4 322.1 1079.7 323.3L1079.7 323.3Q1081.6 325.2 1083.3 326.1Q1085.1 326.9 1087.2 327.0L1087.2 327.0Q1090.9 327.0 1093.0 325.1Q1095.2 323.2 1095.2 320.1L1095.2 320.1L1095.2 315.2L1095.0 315.2Q1093.8 317.7 1091.2 319.2Q1088.6 320.8 1085.3 320.8L1085.3 320.8Q1079.4 320.8 1076.0 316.5Q1072.5 312.3 1072.5 305.2L1072.5 305.2Q1072.5 297.9 1076.0 293.7Q1079.4 289.5 1085.4 289.5L1085.4 289.5Q1088.7 289.5 1091.2 291.0Q1093.7 292.6 1095.1 295.3L1095.1 295.3L1095.2 295.3L1095.2 293.1Q1095.2 291.4 1096.2 290.4Q1097.2 289.4 1098.8 289.4Q1100.5 289.4 1101.5 290.4Q1102.5 291.4 1102.5 293.1L1102.5 293.1L1102.5 320.1Q1102.5 326.0 1098.4 329.4Q1094.3 332.8 1087.2 332.8ZM1087.5 315.1L1087.5 315.1Q1091.0 315.1 1093.1 312.4Q1095.2 309.8 1095.2 305.2L1095.2 305.2Q1095.2 300.7 1093.1 298.0Q1091.0 295.3 1087.5 295.3L1087.5 295.3Q1084.1 295.3 1082.0 298.0Q1080.0 300.7 1080.0 305.2L1080.0 305.2Q1080.0 309.8 1082.0 312.5Q1084.1 315.1 1087.5 315.1Z "/><defs><clipPath id="satori_bc-id-0-1"><rect x="0" y="441" width="1200" height="189"/></clipPath></defs><mask id="satori_om-id-0-1"><rect x="0" y="442" width="1200" height="188" fill="#fff"/><path width="1200" height="189" fill="none" stroke="#000" stroke-width="2" d="M0,441 A0,0 0 0 1 0,441 h1200 A0,0 0 0 1 1200,441"/></mask><path width="1200" height="189" clip-path="url(#satori_bc-id-0-1)" fill="none" stroke="#dbdbdb" stroke-width="2" d="M0,441 A0,0 0 0 1 0,441 h1200 A0,0 0 0 1 1200,441"/><mask id="satori_om-id-0-1-0"><rect x="40" y="482" width="389" height="108" fill="#fff"/></mask><clipPath id="satori_cp-id-0-1-0-0"><rect x="40" y="504" width="64" height="64"/></clipPath><mask id="satori_om-id-0-1-0-0"><rect x="40" y="504" width="64" height="64" fill="#fff"/></mask><image x="40" y="504" width="64" height="64" href="data:image/svg+xml;utf8,%3Csvg  xmlns=%22http://www.w3.org/2000/svg%22 width=%2264%22 height=%2264%22 viewBox=%220 0 128 128%22%3E%3Cpath fill=%22%23224d67%22 d=%22M22.5 14.8c2.9 1.3 99 44 99 44c2.7 1.2 2.9 3.1 2 12.4c-1 10.5-1.9 37.8-40.2 42.9c-24.6 3.2-55.9-4.3-70.9-27.2C-6 58.8 11 23.4 14.8 17.7c2.4-3.5 4.8-4.2 7.7-2.9%22%3E%3C/path%3E%3Cpath fill=%22%23f0f4c3%22 d=%22M121.5 58.8c-.3-.2-92-40.8-98.9-43.9C9.6 31.5-3.8 76 27.9 96.2c33.6 21.5 78.7-10.2 93.6-37.4%22%3E%3C/path%3E%3Cpath fill=%22%23f0f4c3%22 d=%22M117.7 57c-.3-.2-86.7-38.4-93.2-41.3c-12.2 15.5-23.9 59.1 5.7 78c31.4 20.2 73.6-11.2 87.5-36.7%22%3E%3C/path%3E%3Cpath fill=%22%23cb2a42%22 d=%22M56.2 37.6L19.5 48.2c-2.5.8-4.4 2.8-5 5.3c-1.9 8.5.8 23.3 8.9 29.8c3.5 2.7 8.6 1.8 10.8-2.1L58.5 41c1.3-1.7.5-4.2-2.3-3.4m14.3 2.9s14.6 30.1 16 33s6.3 4.7 9.9 2.8c10.7-5.6 15.5-12.4 19.2-20.2c-8.9-3.9-42.4-18.8-42.4-18.8c-2.4-1.1-4 .6-2.7 3.2m-8.6 1.9C60.3 45.1 39.5 81 37.6 84.1c-1.9 3.2-.7 7.5 2.7 9.2c12.3 6.5 30.9.4 39.6-7c2.2-1.9 4.5-5.1 3.2-8.2S68.9 44.6 67.8 42.3c-1.2-2.7-4.1-2.8-5.9.1%22%3E%3C/path%3E%3Cpath fill=%22%23f0f4c3%22 d=%22M52.2 42.2c-1.4.4-10.1 3-11.1 3.4c-1.4.5-2.2 1.7-1.9 2.5c.3.9 1.7 1.1 3.1.6c.8-.3 7.1-3.9 9.5-5.2c-3.1 2.4-10.2 9.4-11.1 10.3c-1.4 1.5-1.7 3.4-.8 4.3c1 .9 2.9.5 4.3-1c1.2-1.3 8.5-12.8 9.1-13.9s.4-1.4-1.1-1m10.1 16.4c0-2.2 1.4-10.3 1.8-12.3c.4-1.6 1.5-1.8 1.8.5s1.7 9.7 1.7 11.8s-1.2 3.3-2.7 3.3c-1.4 0-2.6-1.1-2.6-3.3M79.9 49c-1.2-1.8-3.3-4.9-4.1-6.1c-.7-1.2.1-2.1 1.8-.9s4 2.9 5.4 4c1.6 1.3 1.9 3 .8 4s-2.7.8-3.9-1%22%3E%3C/path%3E%3Cellipse cx=%2287.3%22 cy=%22103.12%22 fill=%22%23cb2a42%22 rx=%223.4%22 ry=%222.3%22 transform=%22rotate(-27.098 87.298 103.126)%22%3E%3C/ellipse%3E%3Cellipse cx=%2298.89%22 cy=%22103.82%22 fill=%22%23cb2a42%22 rx=%223.4%22 ry=%222.3%22 transform=%22rotate(-30.642 98.887 103.818)%22%3E%3C/ellipse%3E%3Cellipse cx=%22102.02%22 cy=%2293.8%22 fill=%22%23cb2a42%22 rx=%223.4%22 ry=%222.3%22 transform=%22rotate(-37.16 102.017 93.797)%22%3E%3C/ellipse%3E%3Cpath fill=%22%23cb2a42%22 d=%22M57.6 30.3c-8.3-3.7-24.4-10.7-29.6-13c-3.6 2.2-9.7 11.4-11.2 21.2c-.6 3.6 1.7 5.9 5.3 4.9c0 0 33.7-9.3 35.3-9.7c1.6-.5 2-2.6.2-3.4%22%3E%3C/path%3E%3C/svg%3E" preserveAspectRatio="none" clip-path="url(#satori_cp-id-0-1-0-0)" mask="url(#satori_om-id-0-1-0-0)"/><mask id="satori_om-id-0-1-0-0-0"><rect x="40" y="504" width="0" height="64" fill="#fff"/></mask><mask id="satori_om-id-0-1-0-0-1"><rect x="40" y="504" width="0" height="64" fill="#fff"/></mask><mask id="satori_om-id-0-1-0-0-2"><rect x="40" y="504" width="0" height="64" fill="#fff"/></mask><mask id="satori_om-id-0-1-0-0-3"><rect x="40" y="504" width="0" height="64" fill="#fff"/></mask><mask id="satori_om-id-0-1-0-0-4"><rect x="40" y="504" width="0" height="64" fill="#fff"/></mask><mask id="satori_om-id-0-1-0-0-5"><rect x="40" y="504" width="0" height="64" fill="#fff"/></mask><mask id="satori_om-id-0-1-0-0-6"><rect x="40" y="504" width="0" height="64" fill="#fff"/></mask><mask id="satori_om-id-0-1-0-0-7"><rect x="40" y="504" width="0" height="64" fill="#fff"/></mask><mask id="satori_om-id-0-1-0-0-8"><rect x="40" y="504" width="0" height="64" fill="#fff"/></mask><mask id="satori_om-id-0-1-0-1"><rect x="116" y="512" width="313" height="48" fill="#fff"/></mask><path fill="#545454" d="M133.0 553.6L133.0 553.6Q126.5 553.6 122.7 550.2Q118.8 546.7 118.8 541.1L118.8 541.1L118.8 522.5Q118.8 520.7 119.8 519.7Q120.7 518.8 122.4 518.8Q124.0 518.8 125.0 519.7Q125.9 520.7 125.9 522.5L125.9 522.5L125.9 540.4Q125.9 543.7 127.8 545.6Q129.6 547.6 133.0 547.6L133.0 547.6Q136.3 547.6 138.2 545.6Q140.1 543.7 140.1 540.4L140.1 540.4L140.1 522.5Q140.1 520.7 141.0 519.7Q141.9 518.8 143.6 518.8Q145.3 518.8 146.2 519.7Q147.1 520.7 147.1 522.5L147.1 522.5L147.1 541.1Q147.1 546.7 143.3 550.2Q139.4 553.6 133.0 553.6ZM158.9 552.6Q158.0 553.6 156.3 553.6Q154.6 553.6 153.7 552.6Q152.8 551.6 152.8 549.9L152.8 549.9L152.8 522.9Q152.8 521.2 153.7 520.2Q154.6 519.2 156.3 519.2L156.3 519.2L166.6 519.2Q172.4 519.2 175.6 522.1Q178.9 525.0 178.9 530.0L178.9 530.0Q178.9 533.2 177.3 535.8Q175.8 538.3 173.0 539.4L173.0 539.4L177.9 547.9Q178.7 549.2 178.7 550.3L178.7 550.3Q178.7 551.7 177.7 552.6Q176.7 553.6 175.1 553.6L175.1 553.6Q173.8 553.6 173.1 553.0Q172.4 552.5 171.5 550.9L171.5 550.9L165.9 540.7L159.9 540.7L159.9 549.9Q159.9 551.6 158.9 552.6ZM159.9 524.8L159.9 535.6L165.9 535.6Q168.6 535.6 170.1 534.1Q171.6 532.7 171.6 530.2L171.6 530.2Q171.6 527.7 170.0 526.2Q168.5 524.8 165.9 524.8L165.9 524.8L159.9 524.8ZM196.2 542.3L186.4 542.3Q185.0 542.3 184.1 541.5Q183.2 540.7 183.2 539.3Q183.2 537.9 184.1 537.1Q185.0 536.3 186.4 536.3L186.4 536.3L196.2 536.3Q197.6 536.3 198.5 537.1Q199.4 537.9 199.4 539.3Q199.4 540.7 198.5 541.5Q197.6 542.3 196.2 542.3L196.2 542.3ZM210.9 552.6Q209.9 553.6 208.3 553.6Q206.6 553.6 205.6 552.6Q204.7 551.6 204.7 549.9L204.7 549.9L204.7 522.9Q204.7 521.2 205.6 520.2Q206.6 519.2 208.3 519.2L208.3 519.2L218.6 519.2Q224.4 519.2 227.6 522.1Q230.8 525.0 230.8 530.0L230.8 530.0Q230.8 533.2 229.3 535.8Q227.8 538.3 225.0 539.4L225.0 539.4L229.9 547.9Q230.6 549.2 230.6 550.3L230.6 550.3Q230.6 551.7 229.6 552.6Q228.6 553.6 227.0 553.6L227.0 553.6Q225.8 553.6 225.0 553.0Q224.3 552.5 223.4 550.9L223.4 550.9L217.8 540.7L211.8 540.7L211.8 549.9Q211.8 551.6 210.9 552.6ZM211.8 524.8L211.8 535.6L217.9 535.6Q220.6 535.6 222.0 534.1Q223.5 532.7 223.5 530.2L223.5 530.2Q223.5 527.7 222.0 526.2Q220.4 524.8 217.8 524.8L217.8 524.8L211.8 524.8ZM237.7 553.5L237.7 553.5Q236.0 553.5 235.1 552.6Q234.1 551.7 234.1 550.2L234.1 550.2Q234.1 549.3 234.6 547.9L234.6 547.9L243.8 522.8Q244.6 520.7 245.8 519.7Q247.1 518.8 249.1 518.8L249.1 518.8Q251.2 518.8 252.5 519.7Q253.8 520.7 254.5 522.8L254.5 522.8L263.8 547.9Q264.3 549.2 264.3 550.2L264.3 550.2Q264.3 551.6 263.3 552.6Q262.3 553.5 260.7 553.5L260.7 553.5Q259.2 553.5 258.4 552.8Q257.5 552.1 257.0 550.4L257.0 550.4L255.3 545.0L243.1 545.0L241.3 550.3Q240.8 552.0 239.9 552.8Q239.1 553.5 237.7 553.5ZM249.0 525.7L244.6 539.6L253.6 539.6L249.1 525.7L249.0 525.7ZM281.5 553.1L272.1 553.1Q270.4 553.1 269.5 552.1Q268.6 551.1 268.6 549.4L268.6 549.4L268.6 522.9Q268.6 521.2 269.5 520.2Q270.4 519.2 272.1 519.2L272.1 519.2L281.5 519.2Q289.1 519.2 293.4 523.6Q297.6 528.0 297.6 536.0L297.6 536.0Q297.6 544.1 293.3 548.6Q289.1 553.1 281.5 553.1L281.5 553.1ZM275.6 525.1L275.6 547.2L280.6 547.2Q285.4 547.2 287.9 544.4Q290.4 541.5 290.4 536.0L290.4 536.0Q290.4 530.8 287.8 527.9Q285.3 525.1 280.6 525.1L280.6 525.1L275.6 525.1Z M333.2 553.1L314.5 553.1Q312.9 553.1 312.0 552.2Q311.2 551.4 311.2 550.0L311.2 550.0Q311.2 549.1 311.6 548.3Q312.0 547.5 313.1 546.5L313.1 546.5L323.2 536.9Q326.3 533.8 327.4 532.2Q328.4 530.6 328.4 528.8L328.4 528.8Q328.4 526.7 327.0 525.3Q325.5 524 323.3 524L323.3 524Q319.3 524 317.4 528.1L317.4 528.1Q316.8 529.2 316.1 529.7Q315.4 530.1 314.3 530.1L314.3 530.1Q312.9 530.1 312.1 529.4Q311.3 528.6 311.3 527.3L311.3 527.3Q311.3 526.5 311.5 525.7L311.5 525.7Q312.5 522.7 315.6 520.6Q318.8 518.5 323.3 518.5L323.3 518.5Q328.7 518.5 332.0 521.2Q335.3 524.0 335.3 528.3L335.3 528.3Q335.3 529.9 335.0 531.2Q334.6 532.5 333.6 533.9Q332.6 535.3 331.3 536.8Q330.0 538.2 327.8 540.3L327.8 540.3L320.5 547.3L320.5 547.4L333.2 547.4Q334.6 547.4 335.4 548.2Q336.1 549.0 336.1 550.3L336.1 550.3Q336.1 551.5 335.4 552.3Q334.6 553.1 333.2 553.1L333.2 553.1ZM363.6 549.0Q359.9 553.8 353.5 553.8Q347.1 553.8 343.4 549.1Q339.7 544.3 339.7 536.1L339.7 536.1Q339.7 527.9 343.4 523.2Q347.1 518.5 353.5 518.5Q359.9 518.5 363.6 523.2Q367.3 527.9 367.3 536.1L367.3 536.1Q367.3 544.3 363.6 549.0ZM348.6 545.0Q350.4 548.1 353.5 548.1Q356.7 548.1 358.4 545.0Q360.1 541.9 360.1 536.1L360.1 536.1Q360.1 530.4 358.4 527.2Q356.7 524.1 353.5 524.1L353.5 524.1Q350.4 524.1 348.7 527.3Q346.9 530.4 346.9 536.1L346.9 536.1Q346.9 541.9 348.6 545.0ZM393.6 553.1L374.9 553.1Q373.3 553.1 372.4 552.2Q371.6 551.4 371.6 550.0L371.6 550.0Q371.6 549.1 372.0 548.3Q372.5 547.5 373.5 546.5L373.5 546.5L383.6 536.9Q386.8 533.8 387.8 532.2Q388.9 530.6 388.9 528.8L388.9 528.8Q388.9 526.7 387.4 525.3Q386.0 524 383.7 524L383.7 524Q379.7 524 377.9 528.1L377.9 528.1Q377.3 529.2 376.5 529.7Q375.8 530.1 374.7 530.1L374.7 530.1Q373.3 530.1 372.5 529.4Q371.7 528.6 371.7 527.3L371.7 527.3Q371.7 526.5 372.0 525.7L372.0 525.7Q372.9 522.7 376.0 520.6Q379.2 518.5 383.8 518.5L383.8 518.5Q389.1 518.5 392.4 521.2Q395.8 524.0 395.8 528.3L395.8 528.3Q395.8 529.9 395.4 531.2Q395 532.5 394.0 533.9Q393.1 535.3 391.7 536.8Q390.4 538.2 388.2 540.3L388.2 540.3L380.9 547.3L380.9 547.4L393.6 547.4Q395 547.4 395.8 548.2Q396.6 549.0 396.6 550.3L396.6 550.3Q396.6 551.5 395.8 552.3Q395 553.1 393.6 553.1L393.6 553.1ZM413.6 553.8L413.6 553.8Q409.6 553.8 406.3 552.1Q403.1 550.4 401.8 547.7L401.8 547.7Q401.3 546.5 401.3 545.4L401.3 545.4Q401.3 544.0 402.0 543.3Q402.8 542.5 404.2 542.5L404.2 542.5Q405.3 542.5 406.0 542.9Q406.7 543.3 407.3 544.3L407.3 544.3Q409.3 548.2 413.6 548.2L413.6 548.2Q416.3 548.2 418.1 546.4Q419.9 544.6 419.9 541.9L419.9 541.9Q419.9 539.2 418.1 537.5Q416.4 535.8 413.6 535.8L413.6 535.8Q410.8 535.8 408.7 537.8L408.7 537.8Q407.6 538.8 406.9 539.1Q406.2 539.4 405.0 539.4L405.0 539.4Q403.4 539.4 402.5 538.4Q401.6 537.4 401.7 535.9L401.7 535.9Q401.7 535.8 401.7 535.6L401.7 535.6L402.7 523.3Q402.9 521.1 404.0 520.2Q405.1 519.2 407.2 519.2L407.2 519.2L422 519.2Q423.3 519.2 424.1 520.0Q424.9 520.8 424.9 522.1Q424.9 523.3 424.1 524.1Q423.3 524.9 422 524.9L422 524.9L408.6 524.9L407.8 534.3L408.0 534.3Q409.0 532.6 411.0 531.7Q413.0 530.7 415.6 530.7L415.6 530.7Q420.4 530.7 423.5 533.8Q426.6 536.9 426.6 541.7L426.6 541.7Q426.6 547.1 423.0 550.5Q419.4 553.8 413.6 553.8Z "/><mask id="satori_om-id-0-1-1"><rect x="1013" y="524" width="147" height="36" fill="#fff"/></mask><path fill="#8e8e8e" d="M1016.9 552.6Q1016.5 552.9 1016.0 552.9Q1015.4 552.9 1015.1 552.6Q1014.8 552.2 1014.8 551.7L1014.8 551.7L1014.8 532.6Q1014.8 532.0 1015.1 531.6Q1015.5 531.3 1016.1 531.3Q1016.6 531.3 1017.0 531.6Q1017.3 532.0 1017.3 532.6L1017.3 532.6L1017.3 540.0L1017.4 540.0Q1018.1 538.7 1019.4 537.9Q1020.7 537.2 1022.3 537.2L1022.3 537.2Q1025.2 537.2 1026.9 539.3Q1028.7 541.5 1028.7 545.0L1028.7 545.0Q1028.7 548.6 1026.9 550.8Q1025.2 552.9 1022.2 552.9L1022.2 552.9Q1020.6 552.9 1019.3 552.2Q1018.0 551.4 1017.3 550.1L1017.3 550.1L1017.2 550.1L1017.2 551.7Q1017.2 552.2 1016.9 552.6ZM1021.7 550.7L1021.7 550.7Q1023.8 550.7 1024.9 549.2Q1026.1 547.7 1026.1 545.0L1026.1 545.0Q1026.1 542.5 1024.9 540.9Q1023.8 539.4 1021.7 539.4L1021.7 539.4Q1019.8 539.4 1018.6 541.0Q1017.3 542.5 1017.3 545.0L1017.3 545.0Q1017.3 547.6 1018.6 549.1Q1019.8 550.7 1021.7 550.7ZM1032.8 558.4L1032.8 558.4Q1031.9 558.4 1031.4 558.0Q1030.9 557.7 1030.9 557.1L1030.9 557.1Q1030.9 556.7 1031.1 556.4Q1031.4 556.2 1031.9 556.2L1031.9 556.2Q1032.1 556.2 1032.3 556.2Q1032.5 556.2 1032.7 556.2L1032.7 556.2Q1034.4 556.2 1035.2 553.7L1035.2 553.7L1035.6 552.7L1030.3 539.0Q1030.2 538.6 1030.2 538.3L1030.2 538.3Q1030.2 537.8 1030.6 537.5Q1030.9 537.2 1031.5 537.2L1031.5 537.2Q1032.4 537.2 1032.7 538.1L1032.7 538.1L1036.9 550.1L1037.0 550.1L1041.2 538.1Q1041.3 537.6 1041.6 537.4Q1041.9 537.2 1042.4 537.2L1042.4 537.2Q1042.9 537.2 1043.3 537.5Q1043.6 537.8 1043.6 538.3L1043.6 538.3Q1043.6 538.6 1043.5 539.0L1043.5 539.0L1037.9 553.7Q1036.9 556.4 1035.8 557.4Q1034.7 558.4 1032.8 558.4Z M1066.9 550.9Q1064.7 553.0 1060.8 553.0Q1056.9 553.0 1054.7 550.9Q1052.4 548.7 1052.4 545.3L1052.4 545.3L1052.4 532.7Q1052.4 532.1 1052.8 531.7Q1053.1 531.3 1053.7 531.3Q1054.3 531.3 1054.7 531.7Q1055.0 532.1 1055.0 532.7L1055.0 532.7L1055.0 545.1Q1055.0 547.5 1056.6 549.1Q1058.1 550.6 1060.8 550.6Q1063.5 550.6 1065.0 549.1Q1066.6 547.5 1066.6 545.1L1066.6 545.1L1066.6 532.7Q1066.6 532.1 1066.9 531.7Q1067.3 531.3 1067.9 531.3Q1068.5 531.3 1068.8 531.7Q1069.2 532.1 1069.2 532.7L1069.2 532.7L1069.2 545.3Q1069.2 548.7 1066.9 550.9ZM1075.6 552.6Q1075.2 552.9 1074.6 552.9Q1074.0 552.9 1073.7 552.6Q1073.3 552.2 1073.3 551.6L1073.3 551.6L1073.3 532.9Q1073.3 532.3 1073.7 531.9Q1074.0 531.5 1074.6 531.5L1074.6 531.5L1081.2 531.5Q1084.3 531.5 1086.1 533.2Q1088.0 535.0 1088.0 537.8L1088.0 537.8Q1088.0 540.0 1086.8 541.6Q1085.7 543.3 1083.7 543.9L1083.7 543.9L1087.6 550.8Q1087.9 551.3 1087.9 551.7L1087.9 551.7Q1087.9 552.2 1087.5 552.6Q1087.1 552.9 1086.5 552.9L1086.5 552.9Q1086.1 552.9 1085.8 552.7Q1085.5 552.5 1085.2 552.1L1085.2 552.1L1081.0 544.3L1075.9 544.3L1075.9 551.6Q1075.9 552.2 1075.6 552.6ZM1075.9 533.9L1075.9 542.0L1081.0 542.0Q1083.0 542.0 1084.1 540.9Q1085.2 539.9 1085.2 537.9L1085.2 537.9Q1085.2 536.0 1084.1 534.9Q1082.9 533.9 1080.9 533.9L1080.9 533.9L1075.9 533.9ZM1099.4 545.3L1091.9 545.3Q1091.3 545.3 1091.0 545.0Q1090.6 544.6 1090.6 544.1Q1090.6 543.6 1091.0 543.2Q1091.3 542.9 1091.9 542.9L1091.9 542.9L1099.4 542.9Q1100.0 542.9 1100.3 543.2Q1100.7 543.6 1100.7 544.1Q1100.7 544.6 1100.3 545.0Q1100.0 545.3 1099.4 545.3L1099.4 545.3ZM1106.4 552.6Q1106.0 552.9 1105.4 552.9Q1104.8 552.9 1104.5 552.6Q1104.1 552.2 1104.1 551.6L1104.1 551.6L1104.1 532.9Q1104.1 532.3 1104.5 531.9Q1104.8 531.5 1105.4 531.5L1105.4 531.5L1112.1 531.5Q1115.1 531.5 1117.0 533.2Q1118.8 535.0 1118.8 537.8L1118.8 537.8Q1118.8 540.0 1117.7 541.6Q1116.5 543.3 1114.5 543.9L1114.5 543.9L1118.4 550.8Q1118.7 551.3 1118.7 551.7L1118.7 551.7Q1118.7 552.2 1118.3 552.6Q1117.9 552.9 1117.3 552.9L1117.3 552.9Q1116.9 552.9 1116.6 552.7Q1116.3 552.5 1116.1 552.1L1116.1 552.1L1111.8 544.3L1106.8 544.3L1106.8 551.6Q1106.8 552.2 1106.4 552.6ZM1106.8 533.9L1106.8 542.0L1111.8 542.0Q1113.9 542.0 1115.0 540.9Q1116.1 539.9 1116.1 537.9L1116.1 537.9Q1116.1 536.0 1114.9 534.9Q1113.8 533.9 1111.7 533.9L1111.7 533.9L1106.8 533.9ZM1122.2 552.9L1122.2 552.9Q1121.6 552.9 1121.2 552.5Q1120.9 552.2 1120.9 551.7L1120.9 551.7Q1120.9 551.4 1121.0 551.0L1121.0 551.0L1127.8 532.6Q1128.3 531.3 1129.5 531.3L1129.5 531.3Q1130.7 531.3 1131.2 532.6L1131.2 532.6L1138.0 551.0Q1138.2 551.4 1138.2 551.7L1138.2 551.7Q1138.2 552.2 1137.8 552.5Q1137.4 552.9 1136.9 552.9L1136.9 552.9Q1135.9 552.9 1135.6 551.9L1135.6 551.9L1133.7 546.6L1125.3 546.6L1123.5 551.9Q1123.1 552.9 1122.2 552.9ZM1129.5 534.7L1126.1 544.4L1132.9 544.4L1129.6 534.7L1129.5 534.7ZM1148.1 552.7L1142.3 552.7Q1141.7 552.7 1141.4 552.3Q1141.0 551.9 1141.0 551.3L1141.0 551.3L1141.0 532.9Q1141.0 532.3 1141.4 531.9Q1141.7 531.5 1142.3 531.5L1142.3 531.5L1148.1 531.5Q1152.8 531.5 1155.5 534.3Q1158.1 537.1 1158.1 542.1L1158.1 542.1Q1158.1 547.1 1155.5 549.9Q1152.8 552.7 1148.1 552.7L1148.1 552.7ZM1143.7 533.9L1143.7 550.3L1148.0 550.3Q1151.5 550.3 1153.5 548.2Q1155.4 546.1 1155.4 542.1L1155.4 542.1Q1155.4 538.1 1153.5 536.0Q1151.6 533.9 1148.0 533.9L1148.0 533.9L1143.7 533.9Z "/></svg>