<svg width="1200" height="630" viewBox="0 0 1200 630" xmlns="http://www.w3.org/2000/svg"><mask id="satori_om-id"><rect x="0" y="0" width="1200" height="630" fill="#fff"/></mask><mask id="satori_om-id-0"><rect x="0" y="0" width="1200" height="630" fill="#fff"/></mask><rect x="0" y="0" width="1200" height="630" fill="#f2f2f2"/><mask id="satori_om-id-0-0"><rect x="0" y="0" width="1200" height="441" fill="#fff"/></mask><mask id="satori_om-id-0-0-0"><rect x="40" y="56" width="1120" height="35" fill="#fff"/></mask><path fill="#8e8e8e" d="M49.1 84.5Q48.6 84.9 47.9 84.9Q47.1 84.9 46.7 84.5Q46.2 84.1 46.0 83.3L46.0 83.3L41.1 65.8Q41.0 65.2 41.0 64.8L41.0 64.8Q41.0 64.1 41.4 63.7Q41.8 63.3 42.6 63.3L42.6 63.3Q43.9 63.3 44.2 64.7L44.2 64.7L48.0 80.1L48.1 80.1L52.2 64.9Q52.5 64.1 52.9 63.7Q53.3 63.3 54.1 63.3L54.1 63.3Q54.8 63.3 55.3 63.7Q55.7 64.1 55.9 64.9L55.9 64.9L60.1 80.1L60.2 80.1L64.0 64.7Q64.3 63.3 65.6 63.3L65.6 63.3Q66.3 63.3 66.8 63.7Q67.2 64.1 67.2 64.8L67.2 64.8Q67.2 65.2 67.1 65.8L67.1 65.8L62.2 83.3Q61.9 84.1 61.5 84.5Q61.0 84.9 60.3 84.9L60.3 84.9Q59.5 84.9 59.1 84.5Q58.6 84.2 58.4 83.3L58.4 83.3L54.2 68.7L54.0 68.7L49.8 83.3Q49.6 84.1 49.1 84.5ZM76.4 85.0L76.4 85.0Q72.9 85.0 71.0 82.9Q69.0 80.8 69.0 77.0L69.0 77.0Q69.0 73.4 71.0 71.2Q72.9 69.0 76.2 69.0L76.2 69.0Q79.3 69.0 81.2 71.0Q83.1 73.0 83.1 76.1L83.1 76.1Q83.1 76.9 82.7 77.3Q82.3 77.8 81.6 77.8L81.6 77.8L72.2 77.8L72.2 77.8Q72.2 79.9 73.3 81.2Q74.5 82.4 76.3 82.4L76.3 82.4Q77.6 82.4 78.5 81.9Q79.4 81.4 80.3 80.2L80.3 80.2Q80.8 79.6 81.4 79.6L81.4 79.6Q82.0 79.6 82.4 80.0Q82.8 80.3 82.8 80.9L82.8 80.9Q82.8 81.3 82.5 81.8L82.5 81.8Q81.8 83.3 80.2 84.1Q78.6 85.0 76.4 85.0ZM72.3 75.5L72.3 75.5L80.0 75.5Q79.9 73.7 78.9 72.6Q77.8 71.5 76.2 71.5L76.2 71.5Q74.5 71.5 73.5 72.6Q72.4 73.7 72.3 75.5ZM91.4 84.9L91.4 84.9Q88.4 84.9 86.7 82.8Q84.9 80.6 84.9 77.0Q84.9 73.3 86.6 71.2Q88.4 69.0 91.3 69.0L91.3 69.0Q93.0 69.0 94.2 69.8Q95.5 70.5 96.2 71.8L96.2 71.8L96.2 71.8L96.2 64.9Q96.2 64.1 96.7 63.7Q97.1 63.2 97.8 63.2L97.8 63.2Q98.5 63.2 99.0 63.7Q99.4 64.2 99.4 64.9L99.4 64.9L99.4 83.4Q99.4 84.1 99.0 84.5Q98.5 84.9 97.8 84.9L97.8 84.9Q97.1 84.9 96.7 84.5Q96.2 84.1 96.2 83.4L96.2 83.4L96.2 81.9L96.2 81.9Q95.6 83.3 94.3 84.1Q93.1 84.9 91.4 84.9ZM92.2 82.2L92.2 82.2Q94.0 82.2 95.1 80.8Q96.3 79.4 96.3 77.0L96.3 77.0Q96.3 74.6 95.1 73.1Q94.0 71.7 92.2 71.7L92.2 71.7Q90.3 71.7 89.2 73.1Q88.1 74.5 88.1 77.0L88.1 77.0Q88.1 79.4 89.2 80.8Q90.3 82.2 92.2 82.2ZM104.2 84.9L104.2 84.9Q103.5 84.9 103.1 84.5Q102.6 84.0 102.6 83.3L102.6 83.3L102.6 70.6Q102.6 69.8 103.0 69.4Q103.5 69.0 104.1 69.0Q104.8 69.0 105.3 69.4Q105.7 69.9 105.7 70.6L105.7 70.6L105.7 71.8L105.8 71.8Q107.1 69.0 110.6 69.0L110.6 69.0Q113.1 69.0 114.5 70.5Q115.9 72.0 115.9 74.7L115.9 74.7L115.9 83.3Q115.9 84.0 115.5 84.5Q115.0 84.9 114.3 84.9L114.3 84.9Q113.6 84.9 113.2 84.5Q112.7 84.0 112.7 83.3L112.7 83.3L112.7 75.3Q112.7 73.5 111.9 72.6Q111.1 71.7 109.5 71.7L109.5 71.7Q107.8 71.7 106.8 72.8Q105.8 73.9 105.8 75.7L105.8 75.7L105.8 83.3Q105.8 84.0 105.4 84.5Q104.9 84.9 104.2 84.9ZM125.6 85.0L125.6 85.0Q122.2 85.0 120.2 82.9Q118.3 80.8 118.3 77.0L118.3 77.0Q118.3 73.4 120.2 71.2Q122.2 69.0 125.4 69.0L125.4 69.0Q128.5 69.0 130.4 71.0Q132.4 73.0 132.4 76.1L132.4 76.1Q132.4 76.9 131.9 77.3Q131.5 77.8 130.8 77.8L130.8 77.8L121.5 77.8L121.5 77.8Q121.5 79.9 122.6 81.2Q123.7 82.4 125.6 82.4L125.6 82.4Q126.9 82.4 127.8 81.9Q128.7 81.4 129.6 80.2L129.6 80.2Q130.0 79.6 130.7 79.6L130.7 79.6Q131.3 79.6 131.6 80.0Q132.0 80.3 132.0 80.9L132.0 80.9Q132.0 81.3 131.8 81.8L131.8 81.8Q131.0 83.3 129.4 84.1Q127.8 85.0 125.6 85.0ZM121.5 75.5L121.5 75.5L129.2 75.5Q129.1 73.7 128.1 72.6Q127.1 71.5 125.4 71.5L125.4 71.5Q123.8 71.5 122.7 72.6Q121.6 73.7 121.5 75.5ZM140.5 85.0L140.5 85.0Q138.2 85.0 136.7 84.1Q135.1 83.3 134.5 81.8L134.5 81.8Q134.4 81.5 134.4 81.2L134.4 81.2Q134.4 80.6 134.7 80.2Q135.1 79.9 135.7 79.9L135.7 79.9Q136.5 79.9 137.1 80.7L137.1 80.7Q137.7 81.7 138.5 82.1Q139.3 82.5 140.6 82.5L140.6 82.5Q142.0 82.5 142.8 82.0Q143.7 81.4 143.7 80.5L143.7 80.5Q143.7 79.7 143.2 79.3Q142.6 78.8 141.4 78.5L141.4 78.5L139.0 78.0Q134.5 76.9 134.5 73.6L134.5 73.6Q134.5 71.5 136.2 70.2Q137.9 69.0 140.6 69.0L140.6 69.0Q142.7 69.0 144.2 69.9Q145.8 70.8 146.1 72.2L146.1 72.2Q146.2 72.6 146.2 72.7L146.2 72.7Q146.2 73.2 145.8 73.5Q145.5 73.9 144.9 73.9L144.9 73.9Q144.1 73.9 143.7 73.2L143.7 73.2Q143.1 72.3 142.4 71.8Q141.6 71.4 140.5 71.4L140.5 71.4Q139.2 71.4 138.4 72.0Q137.6 72.5 137.6 73.4L137.6 73.4Q137.6 74.9 140.0 75.5L140.0 75.5L142.4 76.0Q144.8 76.6 145.8 77.5Q146.9 78.5 146.9 80.2L146.9 80.2Q146.9 82.3 145.1 83.6Q143.3 85.0 140.5 85.0ZM155.1 84.9L155.1 84.9Q152.2 84.9 150.4 82.8Q148.6 80.6 148.6 77.0Q148.6 73.3 150.4 71.2Q152.1 69.0 155.1 69.0L155.1 69.0Q156.7 69.0 158.0 69.8Q159.2 70.5 159.9 71.8L159.9 71.8L160.0 71.8L160.0 64.9Q160.0 64.1 160.4 63.7Q160.8 63.2 161.6 63.2L161.6 63.2Q162.3 63.2 162.7 63.7Q163.1 64.2 163.1 64.9L163.1 64.9L163.1 83.4Q163.1 84.1 162.7 84.5Q162.3 84.9 161.6 84.9L161.6 84.9Q160.9 84.9 160.4 84.5Q160.0 84.1 160.0 83.4L160.0 83.4L160.0 81.9L159.9 81.9Q159.3 83.3 158.1 84.1Q156.8 84.9 155.1 84.9ZM155.9 82.2L155.9 82.2Q157.8 82.2 158.9 80.8Q160.0 79.4 160.0 77.0L160.0 77.0Q160.0 74.6 158.9 73.1Q157.8 71.7 155.9 71.7L155.9 71.7Q154.1 71.7 153.0 73.1Q151.9 74.5 151.9 77.0L151.9 77.0Q151.9 79.4 153.0 80.8Q154.1 82.2 155.9 82.2ZM170.9 84.9L170.9 84.9Q168.6 84.9 167.2 83.6Q165.7 82.3 165.7 80.3L165.7 80.3Q165.7 78.3 167.2 77.1Q168.7 75.9 171.5 75.7L171.5 75.7L175.7 75.5L175.7 74.3Q175.7 73.0 174.9 72.3Q174.1 71.6 172.6 71.6L172.6 71.6Q171.5 71.6 170.7 72.0Q169.9 72.5 169.2 73.5L169.2 73.5Q168.7 74.2 167.9 74.2L167.9 74.2Q167.3 74.2 166.9 73.8Q166.5 73.4 166.5 72.9L166.5 72.9Q166.5 72.3 166.8 71.8L166.8 71.8Q167.4 70.5 169.0 69.8Q170.6 69.0 172.7 69.0L172.7 69.0Q175.5 69.0 177.2 70.4Q178.9 71.7 178.9 74.0L178.9 74.0L178.9 83.3Q178.9 84.1 178.4 84.5Q178.0 84.9 177.3 84.9L177.3 84.9Q176.7 84.9 176.3 84.5Q175.8 84.1 175.8 83.4L175.8 83.4L175.8 82.1L175.7 82.1Q175.1 83.4 173.7 84.2Q172.4 84.9 170.9 84.9ZM171.7 82.4L171.7 82.4Q173.4 82.4 174.6 81.4Q175.7 80.4 175.7 78.9L175.7 78.9L175.7 77.7L171.9 77.9Q170.5 78.0 169.7 78.6Q168.9 79.2 168.9 80.2L168.9 80.2Q168.9 81.2 169.7 81.8Q170.5 82.4 171.7 82.4ZM183.8 90.4L183.8 90.4Q182.7 90.4 182.1 90.0Q181.5 89.6 181.5 88.9L181.5 88.9Q181.5 88.4 181.9 88.1Q182.2 87.8 182.8 87.8L182.8 87.8Q182.9 87.8 183.2 87.8Q183.4 87.8 183.6 87.8L183.6 87.8Q185.2 87.8 185.9 85.7L185.9 85.7L186.2 84.8L181.1 71.3Q180.9 70.9 180.9 70.4L180.9 70.4Q180.9 69.8 181.4 69.4Q181.8 69.0 182.5 69.0L182.5 69.0Q183.1 69.0 183.5 69.3Q183.8 69.5 184.0 70.2L184.0 70.2L188.0 81.8L188.0 81.8L191.9 70.2Q192.1 69.5 192.5 69.3Q192.9 69.0 193.5 69.0L193.5 69.0Q194.1 69.0 194.6 69.4Q195.0 69.8 195.0 70.4L195.0 70.4Q195.0 70.8 194.8 71.3L194.8 71.3L189.5 85.4Q188.5 88.2 187.2 89.3Q186.0 90.4 183.8 90.4ZM199.5 81.1L199.5 81.1Q200.1 81.1 200.5 81.5Q200.9 81.8 200.9 82.4L200.9 82.4Q200.9 82.8 200.8 83.3L200.8 83.3L199.6 88.3Q199.3 89.4 198.2 89.4L198.2 89.4Q197.6 89.4 197.3 89.1Q197.0 88.7 197.0 88.2L197.0 88.2Q197.0 88.1 197.0 87.8L197.0 87.8L198.0 82.4Q198.2 81.1 199.5 81.1Z M224.3 84.7L212.6 84.7Q211.9 84.7 211.5 84.3Q211.1 83.9 211.1 83.3L211.1 83.3Q211.1 82.8 211.3 82.5Q211.4 82.1 212.0 81.6L212.0 81.6L218.6 74.9Q220.7 72.8 221.3 71.7Q222.0 70.6 222.0 69.3L222.0 69.3Q222.0 67.8 221.0 66.8Q219.9 65.8 218.3 65.8L218.3 65.8Q215.2 65.8 214.1 69.0L214.1 69.0Q213.9 69.5 213.5 69.8Q213.2 70.0 212.6 70.0L212.6 70.0Q211.9 70.0 211.6 69.6Q211.2 69.3 211.2 68.6L211.2 68.6Q211.2 68.3 211.3 68.0L211.3 68.0Q211.4 67.1 212.0 66.3Q212.5 65.4 213.4 64.7Q214.3 64.0 215.6 63.6Q216.9 63.1 218.4 63.1L218.4 63.1Q221.4 63.1 223.3 64.8Q225.3 66.5 225.3 69.1L225.3 69.1Q225.3 70.9 224.3 72.5Q223.3 74.0 220.6 76.8L220.6 76.8L215.5 81.8L215.5 81.9L224.3 81.9Q225.0 81.9 225.4 82.3Q225.8 82.7 225.8 83.3L225.8 83.3Q225.8 83.9 225.4 84.3Q225.0 84.7 224.3 84.7L224.3 84.7ZM236.1 85.1L236.1 85.1Q233.7 85.1 231.8 84.0Q229.9 82.9 229.2 81.2L229.2 81.2Q228.8 80.5 228.8 79.8L228.8 79.8Q228.8 79.1 229.2 78.7Q229.6 78.3 230.3 78.3L230.3 78.3Q230.8 78.3 231.2 78.6Q231.5 78.8 231.8 79.4L231.8 79.4Q232.3 80.8 233.4 81.5Q234.5 82.3 236.1 82.3L236.1 82.3Q238.1 82.3 239.4 81.0Q240.6 79.8 240.6 77.8L240.6 77.8Q240.6 75.8 239.4 74.6Q238.1 73.4 236.1 73.4L236.1 73.4Q234.0 73.4 232.7 74.7L232.7 74.7Q232.0 75.5 231.6 75.6Q231.3 75.8 230.7 75.8L230.7 75.8Q229.9 75.8 229.5 75.4Q229.1 74.9 229.1 74.2L229.1 74.2L229.1 73.9L229.8 65.8Q229.9 64.6 230.5 64.0Q231.1 63.5 232.3 63.5L232.3 63.5L241.3 63.5Q242.0 63.5 242.4 63.9Q242.8 64.3 242.8 64.9Q242.8 65.5 242.4 65.9Q242.0 66.3 241.3 66.3L241.3 66.3L232.7 66.3L232.1 72.9L232.1 72.9Q232.8 71.9 234.1 71.3Q235.3 70.8 236.9 70.8L236.9 70.8Q239.9 70.8 241.9 72.7Q243.8 74.6 243.8 77.7L243.8 77.7Q243.8 81.0 241.7 83.0Q239.5 85.1 236.1 85.1Z M269.3 82.1Q266.6 85.0 262.0 85.0Q257.5 85.0 254.8 82.1Q252.1 79.1 252.1 74.1Q252.1 69.1 254.8 66.1Q257.5 63.2 262.0 63.2L262.0 63.2Q266.6 63.2 269.3 66.1Q271.9 69.1 271.9 74.1Q271.9 79.1 269.3 82.1ZM262.0 82.1L262.0 82.1Q265.0 82.1 266.8 80.0Q268.6 77.8 268.6 74.1L268.6 74.1Q268.6 70.4 266.8 68.2Q265.0 66.1 262.0 66.1L262.0 66.1Q259.0 66.1 257.2 68.2Q255.5 70.4 255.5 74.1L255.5 74.1Q255.5 77.8 257.2 80.0Q259.0 82.1 262.0 82.1ZM281.3 85.0L281.3 85.0Q277.9 85.0 276.0 82.8Q274.0 80.7 274.0 77.0L274.0 77.0Q274.0 73.3 276.0 71.2Q277.9 69.0 281.2 69.0L281.2 69.0Q283.4 69.0 285.2 70.0Q286.9 71.1 287.4 72.7L287.4 72.7Q287.6 73.1 287.6 73.4L287.6 73.4Q287.6 74.0 287.2 74.4Q286.8 74.7 286.2 74.7L286.2 74.7Q285.7 74.7 285.4 74.5Q285.1 74.3 284.8 73.8L284.8 73.8Q284.2 72.7 283.3 72.1Q282.5 71.6 281.3 71.6L281.3 71.6Q279.4 71.6 278.3 73.1Q277.2 74.5 277.2 77.0L277.2 77.0Q277.2 79.4 278.3 80.9Q279.4 82.3 281.3 82.3L281.3 82.3Q283.6 82.3 284.8 80.2L284.8 80.2Q285.1 79.6 285.4 79.4Q285.7 79.2 286.3 79.2L286.3 79.2Q286.8 79.2 287.2 79.6Q287.6 79.9 287.6 80.5L287.6 80.5Q287.6 80.9 287.4 81.3L287.4 81.3Q286.8 82.9 285.1 83.9Q283.4 85.0 281.3 85.0ZM291.1 81.0L291.1 81.0L291.1 71.8L290.0 71.8Q289.4 71.8 289.0 71.4Q288.7 71.1 288.7 70.5Q288.7 69.9 289.0 69.6Q289.4 69.3 290.0 69.3L290.0 69.3L291.1 69.3L291.1 67.0Q291.1 66.2 291.5 65.7Q292.0 65.3 292.7 65.3Q293.4 65.3 293.8 65.7Q294.3 66.2 294.3 67.0L294.3 67.0L294.3 69.3L296.1 69.3Q296.7 69.3 297.0 69.6Q297.4 69.9 297.4 70.5Q297.4 71.1 297.0 71.4Q296.7 71.8 296.1 71.8L296.1 71.8L294.3 71.8L294.3 80.3Q294.3 81.2 294.6 81.6Q295.0 82.1 295.8 82.1L295.8 82.1L296.1 82.2Q297.4 82.3 297.4 83.4L297.4 83.4Q297.4 84.8 295.2 84.8L295.2 84.8L295 84.8Q291.1 84.8 291.1 81.0ZM311.7 82.8Q309.7 85.0 306.4 85.0Q303.1 85.0 301.1 82.8Q299.1 80.7 299.1 77.0L299.1 77.0Q299.1 73.3 301.1 71.1Q303.1 69.0 306.4 69.0Q309.7 69.0 311.7 71.1Q313.7 73.3 313.7 77.0L313.7 77.0Q313.7 80.7 311.7 82.8ZM306.4 82.3L306.4 82.3Q308.3 82.3 309.4 80.9Q310.5 79.5 310.5 77.0L310.5 77.0Q310.5 74.4 309.4 73.0Q308.3 71.6 306.4 71.6Q304.5 71.6 303.4 73.0Q302.3 74.4 302.3 77.0L302.3 77.0Q302.3 79.5 303.4 80.9Q304.5 82.3 306.4 82.3ZM317.8 84.9L317.8 84.9Q317.1 84.9 316.7 84.5Q316.3 84.1 316.3 83.4L316.3 83.4L316.3 64.9Q316.3 64.2 316.7 63.7Q317.2 63.2 317.9 63.2Q318.6 63.2 319.0 63.7Q319.4 64.2 319.4 64.9L319.4 64.9L319.4 71.9L319.5 71.9Q320.2 70.5 321.5 69.8Q322.8 69.0 324.4 69.0L324.4 69.0Q327.3 69.0 329.1 71.2Q330.8 73.3 330.8 77.0L330.8 77.0Q330.8 80.6 329.1 82.8Q327.3 84.9 324.4 84.9L324.4 84.9Q322.7 84.9 321.4 84.2Q320.1 83.4 319.4 82.0L319.4 82.0L319.4 82.0L319.4 83.4Q319.4 84.1 318.9 84.5Q318.5 84.9 317.8 84.9ZM323.5 82.2L323.5 82.2Q325.4 82.2 326.5 80.8Q327.6 79.4 327.6 77.0L327.6 77.0Q327.6 74.5 326.5 73.1Q325.4 71.7 323.5 71.7L323.5 71.7Q321.7 71.7 320.6 73.1Q319.4 74.6 319.4 77.0L319.4 77.0Q319.4 79.3 320.6 80.8Q321.7 82.2 323.5 82.2ZM339.9 85.0L339.9 85.0Q336.5 85.0 334.5 82.9Q332.6 80.8 332.6 77.0L332.6 77.0Q332.6 73.4 334.5 71.2Q336.5 69.0 339.7 69.0L339.7 69.0Q342.8 69.0 344.7 71.0Q346.7 73.0 346.7 76.1L346.7 76.1Q346.7 76.9 346.2 77.3Q345.8 77.8 345.1 77.8L345.1 77.8L335.8 77.8L335.8 77.8Q335.8 79.9 336.9 81.2Q338.0 82.4 339.9 82.4L339.9 82.4Q341.2 82.4 342.1 81.9Q343.0 81.4 343.9 80.2L343.9 80.2Q344.3 79.6 345.0 79.6L345.0 79.6Q345.6 79.6 345.9 80.0Q346.3 80.3 346.3 80.9L346.3 80.9Q346.3 81.3 346.1 81.8L346.1 81.8Q345.3 83.3 343.7 84.1Q342.1 85.0 339.9 85.0ZM335.8 75.5L335.8 75.5L343.5 75.5Q343.4 73.7 342.4 72.6Q341.4 71.5 339.7 71.5L339.7 71.5Q338.1 71.5 337.0 72.6Q335.9 73.7 335.8 75.5ZM350.7 84.9L350.7 84.9Q350.0 84.9 349.5 84.5Q349.1 84.0 349.1 83.3L349.1 83.3L349.1 70.6Q349.1 69.9 349.5 69.4Q349.9 69.0 350.6 69.0L350.6 69.0Q351.3 69.0 351.7 69.4Q352.1 69.9 352.1 70.6L352.1 70.6L352.1 71.9L352.2 71.9Q352.5 70.6 353.4 69.8Q354.4 69.0 355.6 69.0L355.6 69.0Q356.4 69.0 356.8 69.4L356.8 69.4Q357.2 69.7 357.2 70.5L357.2 70.5Q357.2 71.2 356.8 71.6L356.8 71.6Q356.3 72.0 355.3 72.0L355.3 72.0Q353.8 72.0 353.0 73.0Q352.3 73.9 352.3 75.4L352.3 75.4L352.3 83.3Q352.3 84.0 351.8 84.5Q351.4 84.9 350.7 84.9Z M378.3 84.7L366.6 84.7Q365.9 84.7 365.4 84.3Q365.0 83.9 365.0 83.3L365.0 83.3Q365.0 82.8 365.2 82.5Q365.4 82.1 365.9 81.6L365.9 81.6L372.5 74.9Q374.6 72.8 375.3 71.7Q376.0 70.6 376.0 69.3L376.0 69.3Q376.0 67.8 374.9 66.8Q373.9 65.8 372.3 65.8L372.3 65.8Q369.2 65.8 368.1 69.0L368.1 69.0Q367.8 69.5 367.5 69.8Q367.1 70.0 366.6 70.0L366.6 70.0Q365.9 70.0 365.5 69.6Q365.1 69.3 365.1 68.6L365.1 68.6Q365.1 68.3 365.2 68.0L365.2 68.0Q365.4 67.1 365.9 66.3Q366.5 65.4 367.3 64.7Q368.2 64.0 369.5 63.6Q370.8 63.1 372.3 63.1L372.3 63.1Q375.3 63.1 377.3 64.8Q379.2 66.5 379.2 69.1L379.2 69.1Q379.2 70.9 378.2 72.5Q377.3 74.0 374.5 76.8L374.5 76.8L369.5 81.8L369.5 81.9L378.3 81.9Q378.9 81.9 379.3 82.3Q379.7 82.7 379.7 83.3L379.7 83.3Q379.7 83.9 379.3 84.3Q378.9 84.7 378.3 84.7L378.3 84.7ZM396.1 82.1Q394.0 85.1 390.2 85.1Q386.4 85.1 384.3 82.1Q382.1 79.2 382.1 74.1L382.1 74.1Q382.1 69.0 384.3 66.1Q386.4 63.1 390.2 63.1L390.2 63.1Q394.0 63.1 396.1 66.1Q398.3 69.0 398.3 74.1L398.3 74.1Q398.3 79.1 396.1 82.1ZM390.2 82.3L390.2 82.3Q392.5 82.3 393.7 80.1Q395.0 77.9 395.0 74.1L395.0 74.1Q395.0 70.3 393.7 68.1Q392.5 65.9 390.2 65.9Q387.9 65.9 386.7 68.1Q385.4 70.3 385.4 74.1L385.4 74.1Q385.4 77.9 386.7 80.1Q387.9 82.3 390.2 82.3ZM414.4 84.7L402.7 84.7Q401.9 84.7 401.5 84.3Q401.1 83.9 401.1 83.3L401.1 83.3Q401.1 82.8 401.3 82.5Q401.5 82.1 402.0 81.6L402.0 81.6L408.6 74.9Q410.7 72.8 411.4 71.7Q412.1 70.6 412.1 69.3L412.1 69.3Q412.1 67.8 411.0 66.8Q410.0 65.8 408.4 65.8L408.4 65.8Q405.3 65.8 404.1 69.0L404.1 69.0Q403.9 69.5 403.6 69.8Q403.2 70.0 402.7 70.0L402.7 70.0Q402.0 70.0 401.6 69.6Q401.2 69.3 401.2 68.6L401.2 68.6Q401.2 68.3 401.3 68.0L401.3 68.0Q401.5 67.1 402.0 66.3Q402.6 65.4 403.4 64.7Q404.3 64.0 405.6 63.6Q406.9 63.1 408.4 63.1L408.4 63.1Q411.4 63.1 413.4 64.8Q415.3 66.5 415.3 69.1L415.3 69.1Q415.3 70.9 414.3 72.5Q413.3 74.0 410.6 76.8L410.6 76.8L405.6 81.8L405.6 81.9L414.4 81.9Q415.0 81.9 415.4 82.3Q415.8 82.7 415.8 83.3L415.8 83.3Q415.8 83.9 415.4 84.3Q415.0 84.7 414.4 84.7L414.4 84.7ZM425.9 85.1L425.9 85.1Q423.4 85.1 421.6 84.1Q419.8 83.2 418.9 81.6L418.9 81.6Q418.5 80.8 418.5 80.0L418.5 80.0Q418.5 79.3 418.9 78.9Q419.3 78.5 420.0 78.5L420.0 78.5Q420.5 78.5 420.9 78.8Q421.2 79.1 421.4 79.6L421.4 79.6Q422.6 82.3 426.0 82.3L426.0 82.3Q427.9 82.3 429.1 81.3Q430.2 80.4 430.3 78.8L430.3 78.8Q430.3 77.0 429.1 76.0Q427.8 75.0 425.7 75.0L425.7 75.0L424.3 75.0Q423.7 75.0 423.3 74.7Q422.9 74.3 422.9 73.8Q422.9 73.2 423.3 72.8Q423.7 72.5 424.3 72.5L424.3 72.5L425.6 72.5Q427.4 72.5 428.5 71.5Q429.7 70.6 429.7 69.1L429.7 69.1Q429.7 67.6 428.7 66.7Q427.7 65.8 425.9 65.8L425.9 65.8Q424.3 65.8 423.4 66.5Q422.4 67.1 421.8 68.5L421.8 68.5Q421.6 69.1 421.3 69.4Q420.9 69.6 420.4 69.6L420.4 69.6Q419.7 69.6 419.3 69.3Q418.9 68.9 418.9 68.2L418.9 68.2Q418.9 67.4 419.3 66.6L419.3 66.6Q420.2 65.0 421.9 64.1Q423.6 63.1 425.9 63.1L425.9 63.1Q429.1 63.1 431.0 64.7Q432.9 66.2 432.9 68.6L432.9 68.6Q432.9 70.6 431.6 71.9Q430.4 73.2 428.4 73.6L428.4 73.6L428.4 73.7Q430.8 73.9 432.2 75.3Q433.6 76.6 433.6 78.8L433.6 78.8Q433.6 81.6 431.4 83.3Q429.3 85.1 425.9 85.1Z "/><mask id="satori_om-id-0-0-1"><rect x="40" y="137" width="1120" height="243" fill="#fff"/></mask><path fill="#224d67" d="M62.3 200.3L62.3 200.3Q53.0 200.3 47.7 194.4Q42.3 188.5 42.3 178.3L42.3 178.3Q42.3 168.2 47.6 162.4Q53.0 156.6 62.1 156.6L62.1 156.6Q68.0 156.6 72.5 159.2Q77.0 161.8 78.8 165.9L78.8 165.9Q79.4 167.2 79.4 168.4L79.4 168.4Q79.4 169.9 78.5 170.8Q77.6 171.7 76.0 171.7L76.0 171.7Q73.7 171.7 72.3 169.3L72.3 169.3Q69.2 163.0 62.2 163.0L62.2 163.0Q56.5 163.0 53.2 167.0Q50.0 171.0 50.0 178.2L50.0 178.2Q50.0 185.5 53.3 189.7Q56.7 193.9 62.4 193.9L62.4 193.9Q67.2 193.9 70.2 191.1Q73.2 188.4 73.3 183.9L73.3 183.9L73.3 183.2L65.8 183.2Q64.4 183.2 63.6 182.4Q62.7 181.6 62.7 180.3Q62.7 179.0 63.5 178.2Q64.4 177.4 65.8 177.4L65.8 177.4L77.0 177.4Q78.7 177.4 79.7 178.5Q80.7 179.5 80.7 181.4L80.7 181.4L80.7 182.2Q80.7 190.6 75.8 195.4Q71.0 200.3 62.3 200.3ZM92.4 199.1Q91.4 200.2 89.8 200.2Q88.1 200.2 87.1 199.1Q86.1 198.1 86.1 196.3L86.1 196.3L86.1 171.6Q86.1 169.9 87.1 168.9Q88.0 167.9 89.6 167.9L89.6 167.9Q91.2 167.9 92.1 168.9Q93.1 169.9 93.1 171.6L93.1 171.6L93.1 174.0L93.2 174.0Q93.9 171.3 95.7 169.6Q97.5 168.0 99.9 168.0L99.9 168.0Q101.6 168.0 102.5 168.8L102.5 168.8Q103.5 169.6 103.5 171.4L103.5 171.4Q103.5 173.1 102.4 174.0L102.4 174.0Q101.3 174.9 99.2 175.0L99.2 175.0Q93.4 175.0 93.4 181.4L93.4 181.4L93.4 196.3Q93.4 198.1 92.4 199.1ZM131.5 195.9Q127.4 200.2 120.5 200.2Q113.6 200.2 109.6 195.9Q105.5 191.6 105.5 184.1L105.5 184.1Q105.5 176.6 109.6 172.2Q113.7 167.9 120.5 167.9L120.5 167.9Q127.4 167.9 131.5 172.2Q135.5 176.6 135.5 184.1L135.5 184.1Q135.5 191.6 131.5 195.9ZM114.9 191.7Q117.0 194.4 120.5 194.4Q124.0 194.4 126.1 191.7Q128.1 189.0 128.1 184.1L128.1 184.1Q128.1 179.2 126.1 176.4Q124.0 173.7 120.5 173.7L120.5 173.7Q117.0 173.7 115.0 176.4Q112.9 179.2 112.9 184.1L112.9 184.1Q112.9 189.0 114.9 191.7ZM151.1 200.1L151.1 200.1Q146.0 200.1 143.1 197.0Q140.1 194.0 140.1 188.6L140.1 188.6L140.1 171.7Q140.1 170.0 141.1 168.9Q142.1 167.9 143.7 167.9Q145.4 167.9 146.4 168.9Q147.4 170.0 147.4 171.8L147.4 171.8L147.4 187.1Q147.4 190.5 149.0 192.2Q150.6 194.0 153.6 194.0L153.6 194.0Q156.8 194.0 158.6 191.9Q160.5 189.9 160.5 186.5L160.5 186.5L160.5 171.7Q160.5 170.0 161.5 168.9Q162.5 167.9 164.1 167.9L164.1 167.9Q165.7 167.9 166.8 168.9Q167.8 170.0 167.8 171.8L167.8 171.8L167.8 196.5Q167.8 198.2 166.8 199.2Q165.9 200.2 164.3 200.2L164.3 200.2Q162.7 200.2 161.7 199.2Q160.7 198.2 160.7 196.5L160.7 196.5L160.7 194.2L160.6 194.2Q158.0 200.1 151.1 200.1ZM180.0 199.2Q179.0 200.2 177.3 200.2Q175.7 200.2 174.7 199.2Q173.7 198.1 173.7 196.3L173.7 196.3L173.7 171.6Q173.7 169.9 174.6 168.9Q175.6 167.9 177.2 167.9Q178.8 167.9 179.8 168.9Q180.8 169.9 180.8 171.6L180.8 171.6L180.8 173.8L180.9 173.8Q183.6 167.9 190.6 167.9L190.6 167.9Q195.7 167.9 198.5 171.0Q201.4 174.1 201.4 179.5L201.4 179.5L201.4 196.3Q201.4 198.1 200.4 199.2Q199.4 200.2 197.7 200.2Q196.1 200.2 195.1 199.2Q194.1 198.1 194.1 196.3L194.1 196.3L194.1 181.0Q194.1 177.6 192.5 175.9Q190.9 174.1 187.9 174.1L187.9 174.1Q184.7 174.1 182.9 176.2Q181.0 178.2 181.0 181.6L181.0 181.6L181.0 196.3Q181.0 198.1 180.0 199.2ZM218.8 200.1L218.8 200.1Q212.9 200.1 209.4 195.7Q205.9 191.4 205.9 184.0L205.9 184.0Q205.9 176.7 209.4 172.3Q212.9 168.0 218.8 168.0L218.8 168.0Q222.1 168.0 224.6 169.5Q227.1 171.1 228.4 173.7L228.4 173.7L228.6 173.7L228.6 160.6Q228.6 158.7 229.6 157.7Q230.6 156.7 232.2 156.7Q233.9 156.7 234.9 157.7Q235.9 158.7 235.9 160.6L235.9 160.6L235.9 196.5Q235.9 198.2 234.9 199.2Q233.9 200.2 232.3 200.2L232.3 200.2Q230.6 200.2 229.6 199.2Q228.6 198.2 228.6 196.5L228.6 196.5L228.6 194.1L228.4 194.1Q227.3 196.9 224.8 198.5Q222.3 200.1 218.8 200.1ZM221.0 194.1L221.0 194.1Q224.5 194.1 226.5 191.4Q228.6 188.7 228.6 184.1L228.6 184.1Q228.6 179.5 226.5 176.7Q224.5 174.0 221.0 174.0L221.0 174.0Q217.5 174.0 215.4 176.7Q213.4 179.4 213.4 184.1L213.4 184.1Q213.4 188.7 215.4 191.4Q217.5 194.1 221.0 194.1ZM248.7 163.0Q247.5 164.2 245.8 164.2Q244.1 164.2 242.9 163.0Q241.8 161.8 241.8 160.2L241.8 160.2Q241.8 158.5 242.9 157.4Q244.1 156.2 245.8 156.2L245.8 156.2Q247.5 156.2 248.7 157.4Q249.9 158.5 249.9 160.2L249.9 160.2Q249.9 161.8 248.7 163.0ZM248.5 199.1Q247.5 200.2 245.8 200.2Q244.1 200.2 243.2 199.1Q242.2 198.1 242.2 196.3L242.2 196.3L242.2 171.7Q242.2 170.0 243.2 168.9Q244.1 167.9 245.8 167.9Q247.5 167.9 248.5 168.9Q249.5 170.0 249.5 171.8L249.5 171.8L249.5 196.3Q249.5 198.1 248.5 199.1ZM261.9 199.2Q260.9 200.2 259.2 200.2Q257.6 200.2 256.6 199.2Q255.6 198.1 255.6 196.3L255.6 196.3L255.6 171.6Q255.6 169.9 256.5 168.9Q257.5 167.9 259.1 167.9Q260.7 167.9 261.7 168.9Q262.7 169.9 262.7 171.6L262.7 171.6L262.7 173.8L262.8 173.8Q265.5 167.9 272.5 167.9L272.5 167.9Q277.6 167.9 280.4 171.0Q283.3 174.1 283.3 179.5L283.3 179.5L283.3 196.3Q283.3 198.1 282.3 199.2Q281.3 200.2 279.6 200.2Q278.0 200.2 277.0 199.2Q276.0 198.1 276.0 196.3L276.0 196.3L276.0 181.0Q276.0 177.6 274.4 175.9Q272.8 174.1 269.7 174.1L269.7 174.1Q266.6 174.1 264.8 176.2Q262.9 178.2 262.9 181.6L262.9 181.6L262.9 196.3Q262.9 198.1 261.9 199.2ZM302.5 211.3L302.5 211.3Q298.1 211.2 294.8 209.7Q291.5 208.2 289.9 205.6L289.9 205.6Q289.3 204.6 289.3 203.4L289.3 203.4Q289.3 202.2 290.1 201.4Q290.9 200.6 292.3 200.6L292.3 200.6Q293.7 200.6 295.0 201.8L295.0 201.8Q296.8 203.7 298.6 204.6Q300.4 205.4 302.5 205.5L302.5 205.5Q306.2 205.5 308.3 203.6Q310.4 201.7 310.4 198.6L310.4 198.6L310.4 193.7L310.3 193.7Q309.1 196.2 306.5 197.7Q303.8 199.3 300.6 199.3L300.6 199.3Q294.7 199.3 291.3 195.0Q287.8 190.8 287.8 183.7L287.8 183.7Q287.8 176.4 291.3 172.2Q294.7 168.0 300.7 168.0L300.7 168.0Q304.0 168.0 306.5 169.5Q309.0 171.1 310.4 173.8L310.4 173.8L310.5 173.8L310.5 171.6Q310.5 169.9 311.5 168.9Q312.5 167.9 314.1 167.9Q315.7 167.9 316.8 168.9Q317.8 169.9 317.8 171.6L317.8 171.6L317.8 198.6Q317.8 204.5 313.7 207.9Q309.6 211.3 302.5 211.3ZM302.8 193.6L302.8 193.6Q306.3 193.6 308.4 190.9Q310.5 188.3 310.5 183.7L310.5 183.7Q310.5 179.2 308.4 176.5Q306.3 173.8 302.8 173.8L302.8 173.8Q299.3 173.8 297.3 176.5Q295.3 179.2 295.3 183.7L295.3 183.7Q295.3 188.3 297.3 191.0Q299.3 193.6 302.8 193.6Z M354.8 200.3L354.8 200.3Q345.6 200.3 340.3 194.4Q335.0 188.6 335.0 178.4L335.0 178.4Q335.0 168.3 340.3 162.5Q345.6 156.6 354.6 156.6L354.6 156.6Q360.5 156.6 364.9 159.2Q369.3 161.8 371.4 166.4L371.4 166.4Q372.1 167.9 372.1 169.3L372.1 169.3Q372.1 170.8 371.2 171.7Q370.3 172.6 368.8 172.6L368.8 172.6Q366.3 172.6 365.1 169.9L365.1 169.9Q363.6 166.6 360.9 164.8Q358.2 163.0 354.7 163.0L354.7 163.0Q349.2 163.0 346.0 167.2Q342.8 171.4 342.8 178.4L342.8 178.4Q342.8 185.5 346.0 189.7Q349.2 193.9 354.7 193.9L354.7 193.9Q362.4 193.9 365.2 187.3L365.2 187.3Q365.8 186.0 366.6 185.4Q367.3 184.9 368.6 184.9L368.6 184.9Q370.1 184.9 371.1 185.8Q372.1 186.7 372.1 188.2L372.1 188.2Q372.1 189.6 371.4 191.1L371.4 191.1Q369.3 195.4 365.0 197.8Q360.7 200.3 354.8 200.3ZM402.6 195.9Q398.5 200.2 391.6 200.2Q384.7 200.2 380.7 195.9Q376.6 191.6 376.6 184.1L376.6 184.1Q376.6 176.6 380.7 172.2Q384.8 167.9 391.6 167.9L391.6 167.9Q398.5 167.9 402.6 172.2Q406.7 176.6 406.7 184.1L406.7 184.1Q406.7 191.6 402.6 195.9ZM386.1 191.7Q388.1 194.4 391.6 194.4Q395.1 194.4 397.2 191.7Q399.2 189.0 399.2 184.1L399.2 184.1Q399.2 179.2 397.2 176.4Q395.1 173.7 391.6 173.7L391.6 173.7Q388.1 173.7 386.1 176.4Q384.0 179.2 384.0 184.1L384.0 184.1Q384.0 189.0 386.1 191.7ZM415.0 200.2L415.0 200.2Q413.3 200.2 412.3 199.2Q411.3 198.1 411.3 196.3L411.3 196.3L411.3 171.6Q411.3 169.9 412.3 168.9Q413.2 167.9 414.8 167.9Q416.4 167.9 417.4 168.9Q418.3 169.9 418.3 171.6L418.3 171.6L418.3 173.9L418.5 173.9Q419.5 171.2 421.9 169.5Q424.2 167.9 427.3 167.9L427.3 167.9Q430.6 167.9 432.9 169.6Q435.2 171.2 436.0 174.2L436.0 174.2L436.2 174.2Q437.3 171.3 439.9 169.6Q442.5 167.9 445.8 167.9L445.8 167.9Q450.4 167.9 453.2 170.8Q456.0 173.6 456.0 178.3L456.0 178.3L456.0 196.3Q456.0 198.1 455.0 199.1Q454.0 200.2 452.4 200.2L452.4 200.2Q450.7 200.2 449.7 199.1Q448.7 198.1 448.7 196.3L448.7 196.3L448.7 180.1Q448.7 177.2 447.2 175.6Q445.8 174.1 443.1 174.1L443.1 174.1Q440.5 174.1 438.8 175.8Q437.2 177.6 437.2 180.4L437.2 180.4L437.2 196.3Q437.2 198.1 436.3 199.2Q435.3 200.2 433.7 200.2L433.7 200.2Q432.0 200.2 431.1 199.2Q430.1 198.1 430.1 196.3L430.1 196.3L430.1 179.7Q430.1 177.1 428.6 175.6Q427.2 174.1 424.6 174.1L424.6 174.1Q422.0 174.1 420.3 175.9Q418.6 177.8 418.6 180.6L418.6 180.6L418.6 196.3Q418.6 198.1 417.6 199.1Q416.6 200.2 415.0 200.2ZM468.1 209.6Q467.1 210.6 465.4 210.6Q463.8 210.6 462.8 209.6Q461.8 208.6 461.8 206.8L461.8 206.8L461.8 171.7Q461.8 169.9 462.8 168.9Q463.8 167.9 465.4 167.9L465.4 167.9Q467.0 167.9 468.0 168.9Q468.9 169.9 468.9 171.7L468.9 171.7L468.9 173.9L469.1 173.9Q470.4 171.1 473.0 169.6Q475.5 168.0 478.9 168.0L478.9 168.0Q484.8 168.0 488.3 172.3Q491.8 176.6 491.8 184.1L491.8 184.1Q491.8 191.5 488.3 195.8Q484.8 200.1 479.0 200.1L479.0 200.1Q475.6 200.1 473.1 198.6Q470.5 197.1 469.3 194.4L469.3 194.4L469.1 194.4L469.1 206.8Q469.1 208.6 468.1 209.6ZM476.6 194.1L476.6 194.1Q480.2 194.1 482.2 191.4Q484.3 188.7 484.3 184.1L484.3 184.1Q484.3 179.5 482.2 176.7Q480.2 174.0 476.6 174.0L476.6 174.0Q473.2 174.0 471.2 176.8Q469.1 179.5 469.1 184.1L469.1 184.1Q469.1 188.6 471.2 191.4Q473.2 194.1 476.6 194.1ZM502.9 199.2Q502.0 200.2 500.3 200.2Q498.7 200.2 497.7 199.2Q496.7 198.1 496.7 196.3L496.7 196.3L496.7 160.6Q496.7 158.7 497.7 157.7Q498.7 156.7 500.3 156.7Q502.0 156.7 502.9 157.7Q503.9 158.7 503.9 160.6L503.9 160.6L503.9 196.3Q503.9 198.1 502.9 199.2ZM524.0 200.2L524.0 200.2Q516.8 200.2 512.9 196.0Q508.9 191.7 508.9 184.2L508.9 184.2Q508.9 176.7 512.9 172.3Q516.8 167.9 523.5 167.9L523.5 167.9Q529.9 167.9 533.9 171.9Q537.8 176.0 537.8 182.4L537.8 182.4Q537.8 184.0 536.9 184.9Q536.1 185.8 534.4 185.8L534.4 185.8L516.1 185.8L516.1 186.0Q516.1 189.9 518.2 192.3Q520.4 194.6 523.9 194.6L523.9 194.6Q526.4 194.6 528.1 193.6Q529.9 192.7 531.7 190.4L531.7 190.4Q532.7 189.3 534.1 189.3L534.1 189.3Q535.4 189.3 536.2 190.0Q537.1 190.8 537.1 192.1L537.1 192.1Q537.1 192.9 536.6 193.9L536.6 193.9Q535 196.9 531.7 198.5Q528.4 200.2 524.0 200.2ZM516.2 181.0L516.2 181.0L530.7 181.0Q530.6 177.6 528.6 175.6Q526.7 173.5 523.6 173.5Q520.5 173.5 518.4 175.6Q516.4 177.7 516.2 181.0ZM544.9 200.2L544.9 200.2Q543.4 200.2 542.5 199.3Q541.5 198.5 541.5 197.1L541.5 197.1Q541.5 196.0 542.4 194.7L542.4 194.7L550.3 184.1L542.6 173.4Q541.8 172.3 541.8 171.1L541.8 171.1Q541.8 169.7 542.8 168.8Q543.8 167.9 545.3 167.9L545.3 167.9Q546.3 167.9 547.0 168.3Q547.7 168.8 548.4 169.9L548.4 169.9L554.9 179.4L555.0 179.4L561.3 169.9Q562.0 168.8 562.7 168.4Q563.4 167.9 564.4 167.9L564.4 167.9Q565.9 167.9 566.9 168.8Q567.8 169.6 567.8 171.0L567.8 171.0Q567.8 172.2 566.9 173.4L566.9 173.4L559.2 183.9L567.0 194.7Q567.8 195.9 567.8 196.9L567.8 196.9Q567.8 198.4 566.8 199.3Q565.8 200.2 564.3 200.2L564.3 200.2Q562.5 200.2 561.4 198.4L561.4 198.4L554.7 188.4L554.5 188.4L547.8 198.3Q547.2 199.3 546.5 199.8Q545.8 200.2 544.9 200.2Z M589.3 200.1L589.3 200.1Q587.6 200.1 586.6 199.1Q585.7 198.1 585.7 196.3L585.7 196.3L585.7 160.7Q585.7 158.9 586.7 157.8Q587.8 156.8 589.6 156.8L589.6 156.8Q590.8 156.8 591.7 157.3Q592.6 157.8 593.5 159.1L593.5 159.1L613.2 186.9L613.5 186.9L613.5 160.6Q613.5 158.8 614.4 157.8Q615.4 156.8 617.1 156.8L617.1 156.8Q618.8 156.8 619.8 157.8Q620.7 158.8 620.7 160.6L620.7 160.6L620.7 196.3Q620.7 198.1 619.7 199.1Q618.7 200.1 616.9 200.1L616.9 200.1Q615.6 200.1 614.7 199.6Q613.9 199.1 613.0 197.8L613.0 197.8L593.2 169.9L592.9 169.9L592.9 196.3Q592.9 198.1 592.0 199.1Q591.0 200.1 589.3 200.1ZM636.6 200.1L636.6 200.1Q632.0 200.1 629.1 197.5Q626.2 194.9 626.2 190.7L626.2 190.7Q626.2 186.6 629.3 184.2Q632.3 181.8 638.0 181.4L638.0 181.4L646.2 180.9L646.2 178.7Q646.2 176.3 644.7 174.9Q643.2 173.6 640.4 173.6L640.4 173.6Q638.3 173.6 636.8 174.4Q635.3 175.2 633.9 177.2L633.9 177.2Q632.8 178.7 631.0 178.7L631.0 178.7Q629.6 178.7 628.8 177.9Q627.9 177.1 627.9 175.8L627.9 175.8Q627.9 174.8 628.4 173.8L628.4 173.8Q629.6 171.1 632.9 169.5Q636.3 167.9 640.7 167.9L640.7 167.9Q646.5 167.9 650.0 170.7Q653.4 173.5 653.4 178.2L653.4 178.2L653.4 196.5Q653.4 198.2 652.5 199.2Q651.5 200.2 649.9 200.2L649.9 200.2Q648.4 200.2 647.4 199.3Q646.5 198.4 646.4 196.8L646.4 196.8L646.4 194.6L646.3 194.6Q645.0 197.1 642.3 198.6Q639.6 200.1 636.6 200.1ZM638.8 194.6L638.8 194.6Q641.9 194.6 644.1 192.7Q646.2 190.8 646.2 188.1L646.2 188.1L646.2 185.7L639.0 186.1Q636.4 186.3 634.9 187.4Q633.5 188.6 633.5 190.4L633.5 190.4Q633.5 192.3 634.9 193.4Q636.4 194.6 638.8 194.6ZM661.3 191.9L661.3 191.9L661.3 174.1L659.4 174.1Q658.0 174.1 657.2 173.4Q656.4 172.6 656.4 171.3L656.4 171.3Q656.4 170.0 657.2 169.3Q658.0 168.5 659.4 168.5L659.4 168.5L661.3 168.5L661.3 164.4Q661.3 162.6 662.3 161.6Q663.3 160.6 665.0 160.6L665.0 160.6Q666.7 160.6 667.6 161.6Q668.6 162.6 668.6 164.4L668.6 164.4L668.6 168.5L672.0 168.5Q673.4 168.5 674.1 169.3Q674.9 170.0 674.9 171.3L674.9 171.3Q674.9 172.6 674.1 173.4Q673.3 174.1 672.0 174.1L672.0 174.1L668.6 174.1L668.6 190.3Q668.6 192.1 669.3 192.9Q670.0 193.7 671.6 193.9L671.6 193.9L672.1 193.9Q675.0 194.2 675.0 196.6L675.0 196.6Q675.0 198.2 673.7 199.1Q672.3 199.9 669.8 199.9L669.8 199.9L669.5 199.9Q661.3 199.9 661.3 191.9ZM690.3 200.1L690.3 200.1Q685.2 200.1 682.3 197.0Q679.3 194.0 679.3 188.6L679.3 188.6L679.3 171.7Q679.3 170.0 680.3 168.9Q681.3 167.9 682.9 167.9Q684.6 167.9 685.6 168.9Q686.6 170.0 686.6 171.8L686.6 171.8L686.6 187.1Q686.6 190.5 688.2 192.2Q689.8 194.0 692.9 194.0L692.9 194.0Q696.0 194.0 697.8 191.9Q699.7 189.9 699.7 186.5L699.7 186.5L699.7 171.7Q699.7 170.0 700.7 168.9Q701.7 167.9 703.3 167.9L703.3 167.9Q705.0 167.9 706.0 168.9Q707.0 170.0 707.0 171.8L707.0 171.8L707.0 196.5Q707.0 198.2 706.0 199.2Q705.1 200.2 703.5 200.2L703.5 200.2Q701.9 200.2 700.9 199.2Q699.9 198.2 699.9 196.5L699.9 196.5L699.9 194.2L699.8 194.2Q697.2 200.1 690.3 200.1ZM719.2 199.1Q718.2 200.2 716.6 200.2Q714.9 200.2 713.9 199.1Q712.9 198.1 712.9 196.3L712.9 196.3L712.9 171.6Q712.9 169.9 713.9 168.9Q714.8 167.9 716.4 167.9L716.4 167.9Q717.9 167.9 718.9 168.9Q719.9 169.9 719.9 171.6L719.9 171.6L719.9 174.0L720.0 174.0Q720.7 171.3 722.5 169.6Q724.3 168.0 726.7 168.0L726.7 168.0Q728.4 168.0 729.2 168.8L729.2 168.8Q730.3 169.6 730.3 171.4L730.3 171.4Q730.3 173.1 729.2 174.0L729.2 174.0Q728.1 174.9 726.0 175.0L726.0 175.0Q720.2 175.0 720.2 181.4L720.2 181.4L720.2 196.3Q720.2 198.1 719.2 199.1ZM742.7 200.1L742.7 200.1Q738.1 200.1 735.2 197.5Q732.3 194.9 732.3 190.7L732.3 190.7Q732.3 186.6 735.3 184.2Q738.4 181.8 744.1 181.4L744.1 181.4L752.3 180.9L752.3 178.7Q752.3 176.3 750.8 174.9Q749.2 173.6 746.5 173.6L746.5 173.6Q744.4 173.6 742.9 174.4Q741.4 175.2 740.0 177.2L740.0 177.2Q738.9 178.7 737.1 178.7L737.1 178.7Q735.7 178.7 734.8 177.9Q734.0 177.1 734.0 175.8L734.0 175.8Q734.0 174.8 734.5 173.8L734.5 173.8Q735.7 171.1 739.0 169.5Q742.4 167.9 746.8 167.9L746.8 167.9Q752.6 167.9 756.1 170.7Q759.5 173.5 759.5 178.2L759.5 178.2L759.5 196.5Q759.5 198.2 758.5 199.2Q757.6 200.2 756.0 200.2L756.0 200.2Q754.5 200.2 753.5 199.3Q752.6 198.4 752.5 196.8L752.5 196.8L752.5 194.6L752.4 194.6Q751.0 197.1 748.4 198.6Q745.7 200.1 742.7 200.1ZM744.9 194.6L744.9 194.6Q748.0 194.6 750.2 192.7Q752.3 190.8 752.3 188.1L752.3 188.1L752.3 185.7L745.1 186.1Q742.5 186.3 741.0 187.4Q739.6 188.6 739.6 190.4L739.6 190.4Q739.6 192.3 741.0 193.4Q742.5 194.6 744.9 194.6ZM771.9 199.2Q770.9 200.2 769.3 200.2Q767.6 200.2 766.6 199.2Q765.6 198.1 765.6 196.3L765.6 196.3L765.6 160.6Q765.6 158.7 766.6 157.7Q767.6 156.7 769.3 156.7Q770.9 156.7 771.9 157.7Q772.9 158.7 772.9 160.6L772.9 160.6L772.9 196.3Q772.9 198.1 771.9 199.2Z M815.6 199.6L795.6 199.6Q793.9 199.6 792.9 198.5Q791.8 197.5 791.8 195.7L791.8 195.7L791.8 160.7Q791.8 158.9 792.9 157.8Q793.9 156.8 795.6 156.8L795.6 156.8Q797.4 156.8 798.4 157.8Q799.4 158.9 799.4 160.7L799.4 160.7L799.4 193.2L815.6 193.2Q817.2 193.2 818.1 194.1Q819.1 194.9 819.1 196.4Q819.1 197.8 818.1 198.7Q817.2 199.6 815.6 199.6L815.6 199.6ZM832.4 200.1L832.4 200.1Q827.9 200.1 824.9 197.5Q822.0 194.9 822.0 190.7L822.0 190.7Q822.0 186.6 825.1 184.2Q828.1 181.8 833.8 181.4L833.8 181.4L842.1 180.9L842.1 178.7Q842.1 176.3 840.5 174.9Q839.0 173.6 836.3 173.6L836.3 173.6Q834.1 173.6 832.6 174.4Q831.1 175.2 829.8 177.2L829.8 177.2Q828.6 178.7 826.8 178.7L826.8 178.7Q825.4 178.7 824.6 177.9Q823.7 177.1 823.7 175.8L823.7 175.8Q823.7 174.8 824.2 173.8L824.2 173.8Q825.4 171.1 828.7 169.5Q832.1 167.9 836.6 167.9L836.6 167.9Q842.3 167.9 845.8 170.7Q849.3 173.5 849.3 178.2L849.3 178.2L849.3 196.5Q849.3 198.2 848.3 199.2Q847.3 200.2 845.7 200.2L845.7 200.2Q844.2 200.2 843.3 199.3Q842.3 198.4 842.2 196.8L842.2 196.8L842.2 194.6L842.1 194.6Q840.8 197.1 838.1 198.6Q835.4 200.1 832.4 200.1ZM834.6 194.6L834.6 194.6Q837.7 194.6 839.9 192.7Q842.1 190.8 842.1 188.1L842.1 188.1L842.1 185.7L834.9 186.1Q832.2 186.3 830.8 187.4Q829.3 188.6 829.3 190.4L829.3 190.4Q829.3 192.3 830.8 193.4Q832.2 194.6 834.6 194.6ZM861.4 199.2Q860.4 200.2 858.8 200.2Q857.1 200.2 856.1 199.2Q855.1 198.1 855.1 196.3L855.1 196.3L855.1 171.6Q855.1 169.9 856.1 168.9Q857.0 167.9 858.6 167.9Q860.2 167.9 861.2 168.9Q862.2 169.9 862.2 171.6L862.2 171.6L862.2 173.8L862.4 173.8Q865 167.9 872.0 167.9L872.0 167.9Q877.1 167.9 880.0 171.0Q882.8 174.1 882.8 179.5L882.8 179.5L882.8 196.3Q882.8 198.1 881.8 199.2Q880.8 200.2 879.2 200.2Q877.5 200.2 876.5 199.2Q875.5 198.1 875.5 196.3L875.5 196.3L875.5 181.0Q875.5 177.6 873.9 175.9Q872.4 174.1 869.3 174.1L869.3 174.1Q866.1 174.1 864.3 176.2Q862.4 178.2 862.4 181.6L862.4 181.6L862.4 196.3Q862.4 198.1 861.4 199.2ZM902.0 211.3L902.0 211.3Q897.6 211.2 894.3 209.7Q891.0 208.2 889.4 205.6L889.4 205.6Q888.8 204.6 888.8 203.4L888.8 203.4Q888.8 202.2 889.6 201.4Q890.5 200.6 891.8 200.6L891.8 200.6Q893.2 200.6 894.5 201.8L894.5 201.8Q896.4 203.7 898.1 204.6Q899.9 205.4 902.1 205.5L902.1 205.5Q905.7 205.5 907.8 203.6Q910.0 201.7 910.0 198.6L910.0 198.6L910.0 193.7L909.8 193.7Q908.6 196.2 906.0 197.7Q903.4 199.3 900.1 199.3L900.1 199.3Q894.2 199.3 890.8 195.0Q887.3 190.8 887.3 183.7L887.3 183.7Q887.3 176.4 890.8 172.2Q894.2 168.0 900.2 168.0L900.2 168.0Q903.5 168.0 906.0 169.5Q908.5 171.1 909.9 173.8L909.9 173.8L910 173.8L910 171.6Q910 169.9 911.0 168.9Q912.1 167.9 913.7 167.9Q915.3 167.9 916.3 168.9Q917.3 169.9 917.3 171.6L917.3 171.6L917.3 198.6Q917.3 204.5 913.2 207.9Q909.2 211.3 902.0 211.3ZM902.3 193.6L902.3 193.6Q905.8 193.6 907.9 190.9Q910.0 188.3 910.0 183.7L910.0 183.7Q910.0 179.2 907.9 176.5Q905.8 173.8 902.3 173.8L902.3 173.8Q898.9 173.8 896.8 176.5Q894.8 179.2 894.8 183.7L894.8 183.7Q894.8 188.3 896.8 191.0Q898.9 193.6 902.3 193.6ZM934.1 200.1L934.1 200.1Q929.0 200.1 926.1 197.0Q923.1 194.0 923.1 188.6L923.1 188.6L923.1 171.7Q923.1 170.0 924.1 168.9Q925.1 167.9 926.7 167.9Q928.4 167.9 929.4 168.9Q930.4 170.0 930.4 171.8L930.4 171.8L930.4 187.1Q930.4 190.5 932.0 192.2Q933.6 194.0 936.7 194.0L936.7 194.0Q939.8 194.0 941.6 191.9Q943.5 189.9 943.5 186.5L943.5 186.5L943.5 171.7Q943.5 170.0 944.5 168.9Q945.5 167.9 947.1 167.9L947.1 167.9Q948.8 167.9 949.8 168.9Q950.8 170.0 950.8 171.8L950.8 171.8L950.8 196.5Q950.8 198.2 949.8 199.2Q948.9 200.2 947.3 200.2L947.3 200.2Q945.7 200.2 944.7 199.2Q943.8 198.2 943.8 196.5L943.8 196.5L943.8 194.2L943.6 194.2Q941.0 200.1 934.1 200.1ZM965.8 200.1L965.8 200.1Q961.3 200.1 958.4 197.5Q955.5 194.9 955.5 190.7L955.5 190.7Q955.5 186.6 958.5 184.2Q961.6 181.8 967.3 181.4L967.3 181.4L975.5 180.9L975.5 178.7Q975.5 176.3 974.0 174.9Q972.4 173.6 969.7 173.6L969.7 173.6Q967.5 173.6 966.0 174.4Q964.6 175.2 963.2 177.2L963.2 177.2Q962.1 178.7 960.2 178.7L960.2 178.7Q958.9 178.7 958.0 177.9Q957.2 177.1 957.2 175.8L957.2 175.8Q957.2 174.8 957.7 173.8L957.7 173.8Q958.8 171.1 962.2 169.5Q965.5 167.9 970 167.9L970 167.9Q975.8 167.9 979.2 170.7Q982.7 173.5 982.7 178.2L982.7 178.2L982.7 196.5Q982.7 198.2 981.7 199.2Q980.8 200.2 979.2 200.2L979.2 200.2Q977.6 200.2 976.7 199.3Q975.8 198.4 975.7 196.8L975.7 196.8L975.7 194.6L975.5 194.6Q974.2 197.1 971.6 198.6Q968.9 200.1 965.8 200.1ZM968.1 194.6L968.1 194.6Q971.2 194.6 973.3 192.7Q975.5 190.8 975.5 188.1L975.5 188.1L975.5 185.7L968.3 186.1Q965.7 186.3 964.2 187.4Q962.8 188.6 962.8 190.4L962.8 190.4Q962.8 192.3 964.2 193.4Q965.7 194.6 968.1 194.6ZM1002.0 211.3L1002.0 211.3Q997.6 211.2 994.3 209.7Q991.0 208.2 989.4 205.6L989.4 205.6Q988.8 204.6 988.8 203.4L988.8 203.4Q988.8 202.2 989.6 201.4Q990.4 200.6 991.8 200.6L991.8 200.6Q993.2 200.6 994.5 201.8L994.5 201.8Q996.3 203.7 998.1 204.6Q999.9 205.4 1002.0 205.5L1002.0 205.5Q1005.7 205.5 1007.8 203.6Q1009.9 201.7 1009.9 198.6L1009.9 198.6L1009.9 193.7L1009.8 193.7Q1008.6 196.2 1005.9 197.7Q1003.3 199.3 1000.1 199.3L1000.1 199.3Q994.2 199.3 990.7 195.0Q987.3 190.8 987.3 183.7L987.3 183.7Q987.3 176.4 990.7 172.2Q994.2 168.0 1000.2 168.0L1000.2 168.0Q1003.5 168.0 1006.0 169.5Q1008.5 171.1 1009.8 173.8L1009.8 173.8L1010.0 173.8L1010.0 171.6Q1010.0 169.9 1011.0 168.9Q1012.0 167.9 1013.6 167.9Q1015.2 167.9 1016.2 168.9Q1017.3 169.9 1017.3 171.6L1017.3 171.6L1017.3 198.6Q1017.3 204.5 1013.2 207.9Q1009.1 211.3 1002.0 211.3ZM1002.3 193.6L1002.3 193.6Q1005.8 193.6 1007.9 190.9Q1010.0 188.3 1010.0 183.7L1010.0 183.7Q1010.0 179.2 1007.9 176.5Q1005.8 173.8 1002.3 173.8L1002.3 173.8Q998.8 173.8 996.8 176.5Q994.8 179.2 994.8 183.7L994.8 183.7Q994.8 188.3 996.8 191.0Q998.8 193.6 1002.3 193.6ZM1037.0 200.2L1037.0 200.2Q1029.9 200.2 1025.9 196.0Q1021.9 191.7 1021.9 184.2L1021.9 184.2Q1021.9 176.7 1025.9 172.3Q1029.9 167.9 1036.6 167.9L1036.6 167.9Q1042.9 167.9 1046.9 171.9Q1050.9 176.0 1050.9 182.4L1050.9 182.4Q1050.9 184.0 1050.0 184.9Q1049.1 185.8 1047.5 185.8L1047.5 185.8L1029.2 185.8L1029.2 186.0Q1029.2 189.9 1031.3 192.3Q1033.4 194.6 1036.9 194.6L1036.9 194.6Q1039.4 194.6 1041.2 193.6Q1042.9 192.7 1044.7 190.4L1044.7 190.4Q1045.8 189.3 1047.2 189.3L1047.2 189.3Q1048.4 189.3 1049.3 190.0Q1050.1 190.8 1050.1 192.1L1050.1 192.1Q1050.1 192.9 1049.6 193.9L1049.6 193.9Q1048.0 196.9 1044.7 198.5Q1041.4 200.2 1037.0 200.2ZM1029.2 181.0L1029.2 181.0L1043.7 181.0Q1043.6 177.6 1041.7 175.6Q1039.7 173.5 1036.6 173.5Q1033.5 173.5 1031.5 175.6Q1029.4 177.7 1029.2 181.0Z M62.0 282.8L62.0 282.8Q52.9 282.8 47.6 276.9Q42.3 271.1 42.3 260.9L42.3 260.9Q42.3 250.8 47.6 245.0Q52.9 239.1 61.9 239.1L61.9 239.1Q67.7 239.1 72.2 241.7Q76.6 244.3 78.7 248.9L78.7 248.9Q79.4 250.4 79.4 251.8L79.4 251.8Q79.4 253.3 78.5 254.2Q77.6 255.1 76.0 255.1L76.0 255.1Q73.5 255.1 72.3 252.4L72.3 252.4Q70.9 249.1 68.2 247.3Q65.4 245.5 61.9 245.5L61.9 245.5Q56.5 245.5 53.3 249.7Q50.0 253.9 50.0 260.9L50.0 260.9Q50.0 268.0 53.2 272.2Q56.5 276.4 62.0 276.4L62.0 276.4Q69.6 276.4 72.5 269.8L72.5 269.8Q73.0 268.5 73.8 267.9Q74.6 267.4 75.8 267.4L75.8 267.4Q77.4 267.4 78.4 268.3Q79.3 269.2 79.3 270.7L79.3 270.7Q79.3 272.1 78.6 273.6L78.6 273.6Q76.6 277.9 72.3 280.3Q67.9 282.8 62.0 282.8ZM109.8 278.4Q105.8 282.7 98.9 282.7Q92.0 282.7 87.9 278.4Q83.9 274.1 83.9 266.6L83.9 266.6Q83.9 259.1 88.0 254.7Q92.1 250.4 98.9 250.4L98.9 250.4Q105.7 250.4 109.8 254.7Q113.9 259.1 113.9 266.6L113.9 266.6Q113.9 274.1 109.8 278.4ZM93.3 274.2Q95.4 276.9 98.9 276.9Q102.4 276.9 104.5 274.2Q106.5 271.5 106.5 266.6L106.5 266.6Q106.5 261.7 104.5 258.9Q102.4 256.2 98.9 256.2L98.9 256.2Q95.4 256.2 93.3 258.9Q91.3 261.7 91.3 266.6L91.3 266.6Q91.3 271.5 93.3 274.2ZM122.2 282.7L122.2 282.7Q120.6 282.7 119.6 281.7Q118.6 280.6 118.6 278.8L118.6 278.8L118.6 254.1Q118.6 252.4 119.6 251.4Q120.5 250.4 122.1 250.4Q123.7 250.4 124.6 251.4Q125.6 252.4 125.6 254.1L125.6 254.1L125.6 256.4L125.8 256.4Q126.8 253.7 129.1 252.0Q131.5 250.4 134.6 250.4L134.6 250.4Q137.9 250.4 140.2 252.1Q142.4 253.7 143.3 256.7L143.3 256.7L143.4 256.7Q144.6 253.8 147.2 252.1Q149.7 250.4 153.1 250.4L153.1 250.4Q157.7 250.4 160.5 253.3Q163.3 256.1 163.3 260.8L163.3 260.8L163.3 278.8Q163.3 280.6 162.3 281.6Q161.3 282.7 159.6 282.7L159.6 282.7Q157.9 282.7 157.0 281.6Q156.0 280.6 156.0 278.8L156.0 278.8L156.0 262.6Q156.0 259.7 154.5 258.1Q153.1 256.6 150.4 256.6L150.4 256.6Q147.8 256.6 146.1 258.3Q144.5 260.1 144.5 262.9L144.5 262.9L144.5 278.8Q144.5 280.6 143.5 281.7Q142.6 282.7 140.9 282.7L140.9 282.7Q139.3 282.7 138.3 281.7Q137.4 280.6 137.4 278.8L137.4 278.8L137.4 262.2Q137.4 259.6 135.9 258.1Q134.4 256.6 131.9 256.6L131.9 256.6Q129.2 256.6 127.6 258.4Q125.9 260.3 125.9 263.1L125.9 263.1L125.9 278.8Q125.9 280.6 124.9 281.6Q123.9 282.7 122.2 282.7ZM172.7 282.7L172.7 282.7Q171.0 282.7 170.1 281.7Q169.1 280.6 169.1 278.8L169.1 278.8L169.1 254.1Q169.1 252.4 170.0 251.4Q171.0 250.4 172.6 250.4Q174.2 250.4 175.1 251.4Q176.1 252.4 176.1 254.1L176.1 254.1L176.1 256.4L176.2 256.4Q177.3 253.7 179.6 252.0Q181.9 250.4 185.1 250.4L185.1 250.4Q188.4 250.4 190.6 252.1Q192.9 253.7 193.8 256.7L193.8 256.7L193.9 256.7Q195.0 253.8 197.6 252.1Q200.2 250.4 203.6 250.4L203.6 250.4Q208.2 250.4 211.0 253.3Q213.7 256.1 213.7 260.8L213.7 260.8L213.7 278.8Q213.7 280.6 212.7 281.6Q211.7 282.7 210.1 282.7L210.1 282.7Q208.4 282.7 207.4 281.6Q206.4 280.6 206.4 278.8L206.4 278.8L206.4 262.6Q206.4 259.7 205.0 258.1Q203.5 256.6 200.9 256.6L200.9 256.6Q198.2 256.6 196.6 258.3Q195.0 260.1 195.0 262.9L195.0 262.9L195.0 278.8Q195.0 280.6 194.0 281.7Q193.0 282.7 191.4 282.7L191.4 282.7Q189.7 282.7 188.8 281.7Q187.9 280.6 187.9 278.8L187.9 278.8L187.9 262.2Q187.9 259.6 186.4 258.1Q184.9 256.6 182.4 256.6L182.4 256.6Q179.7 256.6 178.0 258.4Q176.4 260.3 176.4 263.1L176.4 263.1L176.4 278.8Q176.4 280.6 175.4 281.6Q174.4 282.7 172.7 282.7ZM228.7 282.6L228.7 282.6Q224.1 282.6 221.2 280.0Q218.3 277.4 218.3 273.2L218.3 273.2Q218.3 269.1 221.4 266.7Q224.4 264.3 230.1 263.9L230.1 263.9L238.3 263.4L238.3 261.2Q238.3 258.8 236.8 257.4Q235.3 256.1 232.5 256.1L232.5 256.1Q230.4 256.1 228.9 256.9Q227.4 257.7 226.0 259.7L226.0 259.7Q224.9 261.2 223.1 261.2L223.1 261.2Q221.7 261.2 220.9 260.4Q220 259.6 220 258.3L220 258.3Q220 257.3 220.5 256.3L220.5 256.3Q221.7 253.6 225.0 252.0Q228.4 250.4 232.8 250.4L232.8 250.4Q238.6 250.4 242.1 253.2Q245.5 256.0 245.5 260.7L245.5 260.7L245.5 279.0Q245.5 280.7 244.6 281.7Q243.6 282.7 242.0 282.7L242.0 282.7Q240.5 282.7 239.5 281.8Q238.6 280.9 238.5 279.3L238.5 279.3L238.5 277.1L238.4 277.1Q237.1 279.6 234.4 281.1Q231.7 282.6 228.7 282.6ZM230.9 277.1L230.9 277.1Q234.0 277.1 236.2 275.2Q238.3 273.3 238.3 270.6L238.3 270.6L238.3 268.2L231.1 268.6Q228.5 268.8 227.0 269.9Q225.6 271.1 225.6 272.9L225.6 272.9Q225.6 274.8 227.0 275.9Q228.5 277.1 230.9 277.1ZM257.7 281.7Q256.7 282.7 255.0 282.7Q253.4 282.7 252.4 281.7Q251.4 280.6 251.4 278.8L251.4 278.8L251.4 254.1Q251.4 252.4 252.3 251.4Q253.3 250.4 254.9 250.4Q256.5 250.4 257.5 251.4Q258.5 252.4 258.5 254.1L258.5 254.1L258.5 256.3L258.6 256.3Q261.3 250.4 268.3 250.4L268.3 250.4Q273.4 250.4 276.2 253.5Q279.1 256.6 279.1 262.0L279.1 262.0L279.1 278.8Q279.1 280.6 278.1 281.7Q277.1 282.7 275.4 282.7Q273.8 282.7 272.8 281.7Q271.8 280.6 271.8 278.8L271.8 278.8L271.8 263.5Q271.8 260.1 270.2 258.4Q268.6 256.6 265.6 256.6L265.6 256.6Q262.4 256.6 260.6 258.7Q258.7 260.7 258.7 264.1L258.7 264.1L258.7 278.8Q258.7 280.6 257.7 281.7ZM296.5 282.6L296.5 282.6Q290.6 282.6 287.1 278.2Q283.6 273.9 283.6 266.5L283.6 266.5Q283.6 259.2 287.1 254.8Q290.6 250.5 296.5 250.5L296.5 250.5Q299.8 250.5 302.3 252.0Q304.8 253.6 306.1 256.2L306.1 256.2L306.3 256.2L306.3 243.1Q306.3 241.2 307.3 240.2Q308.3 239.2 309.9 239.2Q311.6 239.2 312.6 240.2Q313.6 241.2 313.6 243.1L313.6 243.1L313.6 279.0Q313.6 280.7 312.6 281.7Q311.6 282.7 310.0 282.7L310.0 282.7Q308.3 282.7 307.3 281.7Q306.3 280.7 306.3 279.0L306.3 279.0L306.3 276.6L306.1 276.6Q305.0 279.4 302.5 281.0Q300.0 282.6 296.5 282.6ZM298.7 276.6L298.7 276.6Q302.1 276.6 304.2 273.9Q306.3 271.2 306.3 266.6L306.3 266.6Q306.3 262.0 304.2 259.2Q302.1 256.5 298.7 256.5L298.7 256.5Q295.2 256.5 293.1 259.2Q291.1 261.9 291.1 266.6L291.1 266.6Q291.1 271.2 293.1 273.9Q295.1 276.6 298.7 276.6ZM331.7 282.7L331.7 282.7Q326.8 282.7 323.5 281.0Q320.2 279.3 319.0 276.5L319.0 276.5Q318.7 275.7 318.7 275.0L318.7 275.0Q318.7 273.7 319.6 272.9Q320.4 272.1 321.8 272.1L321.8 272.1Q323.6 272.1 324.9 273.9L324.9 273.9Q326.2 275.8 327.8 276.6Q329.4 277.4 331.9 277.4L331.9 277.4Q334.5 277.4 336.1 276.4Q337.6 275.3 337.6 273.6L337.6 273.6Q337.6 272.2 336.6 271.3Q335.6 270.5 333.2 269.9L333.2 269.9L328.2 268.8Q319.1 266.8 319.1 259.9L319.1 259.9Q319.1 255.6 322.6 253.0Q326.1 250.4 331.8 250.4L331.8 250.4Q336.2 250.4 339.4 252.3Q342.6 254.1 343.4 256.9L343.4 256.9Q343.5 257.5 343.5 258.0L343.5 258.0Q343.5 259.1 342.8 259.9Q342.1 260.6 340.7 260.6L340.7 260.6Q338.9 260.6 337.9 259.2L337.9 259.2Q336.8 257.5 335.3 256.6Q333.8 255.7 331.6 255.7L331.6 255.7Q329.2 255.7 327.7 256.8Q326.2 257.8 326.2 259.5L326.2 259.5Q326.2 262.3 330.8 263.3L330.8 263.3L335.8 264.4Q340.7 265.5 342.8 267.4Q344.9 269.4 344.9 272.8L344.9 272.8Q344.9 277.3 341.3 280.0Q337.6 282.7 331.7 282.7Z M369.9 281.7Q368.9 282.7 367.2 282.7Q365.5 282.7 364.6 281.7Q363.6 280.7 363.6 278.9L363.6 278.9L363.6 256.6L361.6 256.6Q360.4 256.6 359.6 255.9Q358.8 255.2 358.8 253.9L358.8 253.9Q358.8 252.6 359.6 251.9Q360.4 251.1 361.6 251.1L361.6 251.1L363.6 251.1L363.6 248.4Q363.6 239.5 372.1 239.5L372.1 239.5Q374.9 239.5 376.3 240.3Q377.7 241.1 377.7 242.5L377.7 242.5Q377.7 244.2 376.1 244.6L376.1 244.6Q375.4 244.8 374.5 244.8L374.5 244.8Q372.5 244.9 371.6 245.8Q370.7 246.7 370.7 248.7L370.7 248.7L370.7 251.1L374.7 251.1Q375.9 251.1 376.7 251.9Q377.4 252.6 377.4 253.9L377.4 253.9Q377.4 255.2 376.7 255.9Q375.9 256.6 374.7 256.6L374.7 256.6L370.8 256.6L370.8 278.9Q370.8 280.7 369.9 281.7ZM406.4 278.4Q402.4 282.7 395.5 282.7Q388.6 282.7 384.5 278.4Q380.5 274.1 380.5 266.6L380.5 266.6Q380.5 259.1 384.6 254.7Q388.7 250.4 395.5 250.4L395.5 250.4Q402.3 250.4 406.4 254.7Q410.5 259.1 410.5 266.6L410.5 266.6Q410.5 274.1 406.4 278.4ZM389.9 274.2Q392.0 276.9 395.5 276.9Q399.0 276.9 401.1 274.2Q403.1 271.5 403.1 266.6L403.1 266.6Q403.1 261.7 401.1 258.9Q399.0 256.2 395.5 256.2L395.5 256.2Q392.0 256.2 389.9 258.9Q387.9 261.7 387.9 266.6L387.9 266.6Q387.9 271.5 389.9 274.2ZM421.5 281.6Q420.5 282.7 418.8 282.7Q417.2 282.7 416.2 281.6Q415.2 280.6 415.2 278.8L415.2 278.8L415.2 254.1Q415.2 252.4 416.2 251.4Q417.1 250.4 418.7 250.4L418.7 250.4Q420.2 250.4 421.2 251.4Q422.1 252.4 422.1 254.1L422.1 254.1L422.1 256.5L422.3 256.5Q422.9 253.8 424.8 252.1Q426.6 250.5 428.9 250.5L428.9 250.5Q430.6 250.5 431.5 251.3L431.5 251.3Q432.5 252.1 432.5 253.9L432.5 253.9Q432.5 255.6 431.5 256.5L431.5 256.5Q430.4 257.4 428.2 257.5L428.2 257.5Q422.5 257.5 422.5 263.9L422.5 263.9L422.5 278.8Q422.5 280.6 421.5 281.6Z M462.7 282.6L462.7 282.6Q460.9 282.6 459.9 281.6Q458.9 280.5 458.9 278.7L458.9 278.7L458.9 246.2L449.2 246.2Q447.7 246.2 446.7 245.3Q445.8 244.5 445.8 243.0Q445.8 241.5 446.7 240.7Q447.7 239.8 449.2 239.8L449.2 239.8L476.1 239.8Q477.7 239.8 478.6 240.7Q479.6 241.5 479.6 243.0Q479.6 244.5 478.6 245.3Q477.7 246.2 476.1 246.2L476.1 246.2L466.4 246.2L466.4 278.7Q466.4 280.5 465.4 281.6Q464.5 282.6 462.7 282.6ZM497.3 282.7L497.3 282.7Q490.2 282.7 486.2 278.5Q482.2 274.2 482.2 266.7L482.2 266.7Q482.2 259.2 486.2 254.8Q490.2 250.4 496.9 250.4L496.9 250.4Q503.2 250.4 507.2 254.4Q511.2 258.5 511.2 264.9L511.2 264.9Q511.2 266.5 510.3 267.4Q509.4 268.3 507.8 268.3L507.8 268.3L489.5 268.3L489.5 268.5Q489.5 272.4 491.6 274.8Q493.7 277.1 497.2 277.1L497.2 277.1Q499.7 277.1 501.5 276.1Q503.2 275.2 505 272.9L505 272.9Q506.1 271.8 507.5 271.8L507.5 271.8Q508.7 271.8 509.6 272.5Q510.4 273.3 510.4 274.6L510.4 274.6Q510.4 275.4 509.9 276.4L509.9 276.4Q508.3 279.4 505.0 281.0Q501.7 282.7 497.3 282.7ZM489.5 263.5L489.5 263.5L504.0 263.5Q503.9 260.1 502.0 258.1Q500.0 256.0 496.9 256.0Q493.8 256.0 491.8 258.1Q489.7 260.2 489.5 263.5ZM519.5 282.7L519.5 282.7Q517.8 282.7 516.9 281.7Q515.9 280.6 515.9 278.8L515.9 278.8L515.9 254.1Q515.9 252.4 516.8 251.4Q517.8 250.4 519.4 250.4Q520.9 250.4 521.9 251.4Q522.9 252.4 522.9 254.1L522.9 254.1L522.9 256.4L523.0 256.4Q524.0 253.7 526.4 252.0Q528.7 250.4 531.9 250.4L531.9 250.4Q535.1 250.4 537.4 252.1Q539.7 253.7 540.5 256.7L540.5 256.7L540.7 256.7Q541.8 253.8 544.4 252.1Q547.0 250.4 550.4 250.4L550.4 250.4Q555.0 250.4 557.7 253.3Q560.5 256.1 560.5 260.8L560.5 260.8L560.5 278.8Q560.5 280.6 559.5 281.6Q558.5 282.7 556.9 282.7L556.9 282.7Q555.2 282.7 554.2 281.6Q553.2 280.6 553.2 278.8L553.2 278.8L553.2 262.6Q553.2 259.7 551.8 258.1Q550.3 256.6 547.7 256.6L547.7 256.6Q545.0 256.6 543.4 258.3Q541.7 260.1 541.7 262.9L541.7 262.9L541.7 278.8Q541.7 280.6 540.8 281.7Q539.8 282.7 538.2 282.7L538.2 282.7Q536.5 282.7 535.6 281.7Q534.6 280.6 534.6 278.8L534.6 278.8L534.6 262.2Q534.6 259.6 533.2 258.1Q531.7 256.6 529.1 256.6L529.1 256.6Q526.5 256.6 524.8 258.4Q523.2 260.3 523.2 263.1L523.2 263.1L523.2 278.8Q523.2 280.6 522.2 281.6Q521.1 282.7 519.5 282.7ZM572.6 292.1Q571.6 293.1 570.0 293.1Q568.3 293.1 567.3 292.1Q566.3 291.1 566.3 289.3L566.3 289.3L566.3 254.2Q566.3 252.4 567.3 251.4Q568.3 250.4 569.9 250.4L569.9 250.4Q571.5 250.4 572.5 251.4Q573.5 252.4 573.5 254.2L573.5 254.2L573.5 256.4L573.6 256.4Q575.0 253.6 577.5 252.1Q580.1 250.5 583.4 250.5L583.4 250.5Q589.3 250.5 592.8 254.8Q596.3 259.1 596.3 266.6L596.3 266.6Q596.3 274.0 592.8 278.3Q589.4 282.6 583.5 282.6L583.5 282.6Q580.2 282.6 577.6 281.1Q575.1 279.6 573.8 276.9L573.8 276.9L573.6 276.9L573.6 289.3Q573.6 291.1 572.6 292.1ZM581.2 276.6L581.2 276.6Q584.7 276.6 586.8 273.9Q588.8 271.2 588.8 266.6L588.8 266.6Q588.8 262.0 586.8 259.2Q584.7 256.5 581.2 256.5L581.2 256.5Q577.8 256.5 575.7 259.3Q573.6 262.0 573.6 266.6L573.6 266.6Q573.6 271.1 575.7 273.9Q577.8 276.6 581.2 276.6ZM625.7 278.4Q621.6 282.7 614.7 282.7Q607.8 282.7 603.8 278.4Q599.7 274.1 599.7 266.6L599.7 266.6Q599.7 259.1 603.8 254.7Q607.9 250.4 614.7 250.4L614.7 250.4Q621.6 250.4 625.7 254.7Q629.7 259.1 629.7 266.6L629.7 266.6Q629.7 274.1 625.7 278.4ZM609.2 274.2Q611.2 276.9 614.7 276.9Q618.2 276.9 620.3 274.2Q622.3 271.5 622.3 266.6L622.3 266.6Q622.3 261.7 620.3 258.9Q618.2 256.2 614.7 256.2L614.7 256.2Q611.2 256.2 609.2 258.9Q607.1 261.7 607.1 266.6L607.1 266.6Q607.1 271.5 609.2 274.2ZM640.7 281.6Q639.7 282.7 638.1 282.7Q636.4 282.7 635.4 281.6Q634.4 280.6 634.4 278.8L634.4 278.8L634.4 254.1Q634.4 252.4 635.4 251.4Q636.3 250.4 637.9 250.4L637.9 250.4Q639.4 250.4 640.4 251.4Q641.4 252.4 641.4 254.1L641.4 254.1L641.4 256.5L641.5 256.5Q642.2 253.8 644.0 252.1Q645.8 250.5 648.2 250.5L648.2 250.5Q649.9 250.5 650.8 251.3L650.8 251.3Q651.8 252.1 651.8 253.9L651.8 253.9Q651.8 255.6 650.7 256.5L650.7 256.5Q649.6 257.4 647.5 257.5L647.5 257.5Q641.7 257.5 641.7 263.9L641.7 263.9L641.7 278.8Q641.7 280.6 640.7 281.6ZM664.2 282.6L664.2 282.6Q659.6 282.6 656.7 280.0Q653.8 277.4 653.8 273.2L653.8 273.2Q653.8 269.1 656.9 266.7Q659.9 264.3 665.6 263.9L665.6 263.9L673.8 263.4L673.8 261.2Q673.8 258.8 672.3 257.4Q670.8 256.1 668.0 256.1L668.0 256.1Q665.9 256.1 664.4 256.9Q662.9 257.7 661.5 259.7L661.5 259.7Q660.4 261.2 658.6 261.2L658.6 261.2Q657.2 261.2 656.4 260.4Q655.5 259.6 655.5 258.3L655.5 258.3Q655.5 257.3 656.0 256.3L656.0 256.3Q657.2 253.6 660.5 252.0Q663.9 250.4 668.3 250.4L668.3 250.4Q674.1 250.4 677.6 253.2Q681.0 256.0 681.0 260.7L681.0 260.7L681.0 279.0Q681.0 280.7 680.1 281.7Q679.1 282.7 677.5 282.7L677.5 282.7Q676.0 282.7 675.0 281.8Q674.1 280.9 674.0 279.3L674.0 279.3L674.0 277.1L673.9 277.1Q672.5 279.6 669.9 281.1Q667.2 282.6 664.2 282.6ZM666.4 277.1L666.4 277.1Q669.5 277.1 671.7 275.2Q673.8 273.3 673.8 270.6L673.8 270.6L673.8 268.2L666.6 268.6Q664.0 268.8 662.5 269.9Q661.1 271.1 661.1 272.9L661.1 272.9Q661.1 274.8 662.5 275.9Q664.0 277.1 666.4 277.1ZM693.4 281.7Q692.4 282.7 690.8 282.7Q689.1 282.7 688.1 281.7Q687.1 280.6 687.1 278.8L687.1 278.8L687.1 243.1Q687.1 241.2 688.1 240.2Q689.1 239.2 690.8 239.2Q692.4 239.2 693.4 240.2Q694.4 241.2 694.4 243.1L694.4 243.1L694.4 278.8Q694.4 280.6 693.4 281.7Z M727.5 282.6L727.5 282.6Q725.7 282.6 724.7 281.6Q723.7 280.5 723.7 278.7L723.7 278.7L723.7 246.2L714.0 246.2Q712.5 246.2 711.5 245.3Q710.6 244.5 710.6 243.0Q710.6 241.5 711.5 240.7Q712.5 239.8 714.0 239.8L714.0 239.8L740.9 239.8Q742.5 239.8 743.4 240.7Q744.4 241.5 744.4 243.0Q744.4 244.5 743.4 245.3Q742.5 246.2 740.9 246.2L740.9 246.2L731.2 246.2L731.2 278.7Q731.2 280.5 730.2 281.6Q729.2 282.6 727.5 282.6ZM757.4 282.6L757.4 282.6Q752.9 282.6 749.9 280.0Q747.0 277.4 747.0 273.2L747.0 273.2Q747.0 269.1 750.1 266.7Q753.1 264.3 758.8 263.9L758.8 263.9L767.1 263.4L767.1 261.2Q767.1 258.8 765.5 257.4Q764.0 256.1 761.3 256.1L761.3 256.1Q759.1 256.1 757.6 256.9Q756.1 257.7 754.8 259.7L754.8 259.7Q753.6 261.2 751.8 261.2L751.8 261.2Q750.4 261.2 749.6 260.4Q748.7 259.6 748.7 258.3L748.7 258.3Q748.7 257.3 749.2 256.3L749.2 256.3Q750.4 253.6 753.7 252.0Q757.1 250.4 761.6 250.4L761.6 250.4Q767.3 250.4 770.8 253.2Q774.3 256.0 774.3 260.7L774.3 260.7L774.3 279.0Q774.3 280.7 773.3 281.7Q772.3 282.7 770.7 282.7L770.7 282.7Q769.2 282.7 768.3 281.8Q767.3 280.9 767.2 279.3L767.2 279.3L767.2 277.1L767.1 277.1Q765.8 279.6 763.1 281.1Q760.4 282.6 757.4 282.6ZM759.6 277.1L759.6 277.1Q762.7 277.1 764.9 275.2Q767.1 273.3 767.1 270.6L767.1 270.6L767.1 268.2L759.9 268.6Q757.2 268.8 755.8 269.9Q754.3 271.1 754.3 272.9L754.3 272.9Q754.3 274.8 755.8 275.9Q757.2 277.1 759.6 277.1ZM792.1 282.7L792.1 282.7Q787.3 282.7 783.9 281.0Q780.6 279.3 779.5 276.5L779.5 276.5Q779.2 275.7 779.2 275.0L779.2 275.0Q779.2 273.7 780.0 272.9Q780.9 272.1 782.2 272.1L782.2 272.1Q784.0 272.1 785.4 273.9L785.4 273.9Q786.6 275.8 788.2 276.6Q789.8 277.4 792.4 277.4L792.4 277.4Q795.0 277.4 796.5 276.4Q798.0 275.3 798.0 273.6L798.0 273.6Q798.0 272.2 797.0 271.3Q796.0 270.5 793.7 269.9L793.7 269.9L788.6 268.8Q779.6 266.8 779.6 259.9L779.6 259.9Q779.6 255.6 783.0 253.0Q786.5 250.4 792.2 250.4L792.2 250.4Q796.6 250.4 799.8 252.3Q803.1 254.1 803.8 256.9L803.8 256.9Q803.9 257.5 803.9 258.0L803.9 258.0Q803.9 259.1 803.2 259.9Q802.5 260.6 801.1 260.6L801.1 260.6Q799.3 260.6 798.3 259.2L798.3 259.2Q797.2 257.5 795.7 256.6Q794.2 255.7 792.1 255.7L792.1 255.7Q789.6 255.7 788.2 256.8Q786.7 257.8 786.7 259.5L786.7 259.5Q786.7 262.3 791.2 263.3L791.2 263.3L796.2 264.4Q801.1 265.5 803.2 267.4Q805.4 269.4 805.4 272.8L805.4 272.8Q805.4 277.3 801.7 280.0Q798.1 282.7 792.1 282.7ZM816.5 281.7Q815.5 282.7 813.8 282.7Q812.2 282.7 811.2 281.7Q810.2 280.6 810.2 278.8L810.2 278.8L810.2 243.1Q810.2 241.2 811.2 240.2Q812.2 239.2 813.8 239.2Q815.5 239.2 816.5 240.2Q817.5 241.2 817.5 243.1L817.5 243.1L817.5 263.9L817.5 263.9L829.7 251.8Q831.0 250.4 832.6 250.4L832.6 250.4Q833.9 250.4 834.8 251.3Q835.8 252.2 835.8 253.5L835.8 253.5Q835.8 255.0 834.4 256.2L834.4 256.2L825.6 264.6L835.3 276.8Q836.3 278.2 836.3 279.4L836.3 279.4Q836.3 280.8 835.4 281.8Q834.4 282.7 832.9 282.7L832.9 282.7Q831.8 282.7 831.0 282.2Q830.3 281.8 829.5 280.6L829.5 280.6L820.2 268.8L817.5 271.4L817.5 278.8Q817.5 280.6 816.5 281.7ZM853.0 282.7L853.0 282.7Q848.2 282.7 844.9 281.0Q841.5 279.3 840.4 276.5L840.4 276.5Q840.1 275.7 840.1 275.0L840.1 275.0Q840.1 273.7 840.9 272.9Q841.8 272.1 843.1 272.1L843.1 272.1Q845.0 272.1 846.3 273.9L846.3 273.9Q847.6 275.8 849.2 276.6Q850.8 277.4 853.3 277.4L853.3 277.4Q855.9 277.4 857.4 276.4Q859.0 275.3 859.0 273.6L859.0 273.6Q859.0 272.2 858.0 271.3Q857.0 270.5 854.6 269.9L854.6 269.9L849.6 268.8Q840.5 266.8 840.5 259.9L840.5 259.9Q840.5 255.6 844.0 253.0Q847.4 250.4 853.2 250.4L853.2 250.4Q857.6 250.4 860.8 252.3Q864.0 254.1 864.7 256.9L864.7 256.9Q864.9 257.5 864.9 258.0L864.9 258.0Q864.9 259.1 864.2 259.9Q863.4 260.6 862.1 260.6L862.1 260.6Q860.2 260.6 859.3 259.2L859.3 259.2Q858.1 257.5 856.7 256.6Q855.2 255.7 853.0 255.7L853.0 255.7Q850.6 255.7 849.1 256.8Q847.6 257.8 847.6 259.5L847.6 259.5Q847.6 262.3 852.2 263.3L852.2 263.3L857.1 264.4Q862.0 265.5 864.2 267.4Q866.3 269.4 866.3 272.8L866.3 272.8Q866.3 277.3 862.6 280.0Q859.0 282.7 853.0 282.7Z M889.6 245.5Q888.4 246.7 886.7 246.7Q885.0 246.7 883.8 245.5Q882.7 244.3 882.7 242.7L882.7 242.7Q882.7 241.0 883.8 239.9Q885.0 238.7 886.7 238.7L886.7 238.7Q888.4 238.7 889.6 239.9Q890.8 241.0 890.8 242.7L890.8 242.7Q890.8 244.3 889.6 245.5ZM889.4 281.6Q888.4 282.7 886.7 282.7Q885.0 282.7 884.1 281.6Q883.1 280.6 883.1 278.8L883.1 278.8L883.1 254.2Q883.1 252.5 884.1 251.4Q885.0 250.4 886.7 250.4Q888.4 250.4 889.4 251.4Q890.4 252.5 890.4 254.3L890.4 254.3L890.4 278.8Q890.4 280.6 889.4 281.6ZM902.8 281.7Q901.8 282.7 900.1 282.7Q898.5 282.7 897.5 281.7Q896.5 280.6 896.5 278.8L896.5 278.8L896.5 254.1Q896.5 252.4 897.4 251.4Q898.4 250.4 900.0 250.4Q901.6 250.4 902.6 251.4Q903.6 252.4 903.6 254.1L903.6 254.1L903.6 256.3L903.7 256.3Q906.4 250.4 913.4 250.4L913.4 250.4Q918.5 250.4 921.3 253.5Q924.2 256.6 924.2 262.0L924.2 262.0L924.2 278.8Q924.2 280.6 923.2 281.7Q922.2 282.7 920.5 282.7Q918.9 282.7 917.9 281.7Q916.9 280.6 916.9 278.8L916.9 278.8L916.9 263.5Q916.9 260.1 915.3 258.4Q913.7 256.6 910.6 256.6L910.6 256.6Q907.5 256.6 905.6 258.7Q903.8 260.7 903.8 264.1L903.8 264.1L903.8 278.8Q903.8 280.6 902.8 281.7Z M960.1 282.8L960.1 282.8Q952.2 282.8 947.4 278.5Q942.7 274.2 942.7 267.2L942.7 267.2L942.7 243.2Q942.7 241.4 943.7 240.3Q944.7 239.3 946.5 239.3L946.5 239.3Q948.3 239.3 949.3 240.3Q950.3 241.4 950.3 243.2L950.3 243.2L950.3 266.5Q950.3 270.9 952.9 273.5Q955.5 276.2 960.1 276.2Q964.7 276.2 967.3 273.5Q969.9 270.9 969.9 266.5L969.9 266.5L969.9 243.2Q969.9 241.4 970.9 240.3Q971.9 239.3 973.7 239.3L973.7 239.3Q975.5 239.3 976.5 240.3Q977.5 241.4 977.5 243.2L977.5 243.2L977.5 267.2Q977.5 274.2 972.8 278.5Q968.1 282.8 960.1 282.8ZM990.5 281.7Q989.5 282.7 987.8 282.7Q986.2 282.7 985.2 281.7Q984.2 280.6 984.2 278.8L984.2 278.8L984.2 254.1Q984.2 252.4 985.1 251.4Q986.1 250.4 987.7 250.4Q989.3 250.4 990.3 251.4Q991.3 252.4 991.3 254.1L991.3 254.1L991.3 256.3L991.4 256.3Q994.1 250.4 1001.1 250.4L1001.1 250.4Q1006.2 250.4 1009.0 253.5Q1011.9 256.6 1011.9 262.0L1011.9 262.0L1011.9 278.8Q1011.9 280.6 1010.9 281.7Q1009.9 282.7 1008.2 282.7Q1006.6 282.7 1005.6 281.7Q1004.6 280.6 1004.6 278.8L1004.6 278.8L1004.6 263.5Q1004.6 260.1 1003.0 258.4Q1001.4 256.6 998.4 256.6L998.4 256.6Q995.2 256.6 993.4 258.7Q991.5 260.7 991.5 264.1L991.5 264.1L991.5 278.8Q991.5 280.6 990.5 281.7ZM1029.7 282.7L1029.7 282.7Q1024.8 282.7 1021.5 281.0Q1018.2 279.3 1017.0 276.5L1017.0 276.5Q1016.7 275.7 1016.7 275.0L1016.7 275.0Q1016.7 273.7 1017.6 272.9Q1018.4 272.1 1019.8 272.1L1019.8 272.1Q1021.6 272.1 1022.9 273.9L1022.9 273.9Q1024.2 275.8 1025.8 276.6Q1027.4 277.4 1029.9 277.4L1029.9 277.4Q1032.5 277.4 1034.1 276.4Q1035.6 275.3 1035.6 273.6L1035.6 273.6Q1035.6 272.2 1034.6 271.3Q1033.6 270.5 1031.2 269.9L1031.2 269.9L1026.2 268.8Q1017.1 266.8 1017.1 259.9L1017.1 259.9Q1017.1 255.6 1020.6 253.0Q1024.1 250.4 1029.8 250.4L1029.8 250.4Q1034.2 250.4 1037.4 252.3Q1040.6 254.1 1041.4 256.9L1041.4 256.9Q1041.5 257.5 1041.5 258.0L1041.5 258.0Q1041.5 259.1 1040.8 259.9Q1040.0 260.6 1038.7 260.6L1038.7 260.6Q1036.9 260.6 1035.9 259.2L1035.9 259.2Q1034.8 257.5 1033.3 256.6Q1031.8 255.7 1029.6 255.7L1029.6 255.7Q1027.2 255.7 1025.7 256.8Q1024.2 257.8 1024.2 259.5L1024.2 259.5Q1024.2 262.3 1028.8 263.3L1028.8 263.3L1033.8 264.4Q1038.7 265.5 1040.8 267.4Q1042.9 269.4 1042.9 272.8L1042.9 272.8Q1042.9 277.3 1039.3 280.0Q1035.6 282.7 1029.7 282.7ZM1061.3 282.7L1061.3 282.7Q1054.2 282.7 1050.2 278.5Q1046.2 274.2 1046.2 266.7L1046.2 266.7Q1046.2 259.2 1050.2 254.8Q1054.2 250.4 1060.9 250.4L1060.9 250.4Q1067.3 250.4 1071.2 254.4Q1075.2 258.5 1075.2 264.9L1075.2 264.9Q1075.2 266.5 1074.3 267.4Q1073.4 268.3 1071.8 268.3L1071.8 268.3L1053.5 268.3L1053.5 268.5Q1053.5 272.4 1055.6 274.8Q1057.7 277.1 1061.3 277.1L1061.3 277.1Q1063.7 277.1 1065.5 276.1Q1067.3 275.2 1069.0 272.9L1069.0 272.9Q1070.1 271.8 1071.5 271.8L1071.5 271.8Q1072.7 271.8 1073.6 272.5Q1074.4 273.3 1074.4 274.6L1074.4 274.6Q1074.4 275.4 1073.9 276.4L1073.9 276.4Q1072.4 279.4 1069.1 281.0Q1065.7 282.7 1061.3 282.7ZM1053.6 263.5L1053.6 263.5L1068.1 263.5Q1067.9 260.1 1066.0 258.1Q1064.0 256.0 1060.9 256.0Q1057.9 256.0 1055.8 258.1Q1053.8 260.2 1053.6 263.5ZM1093.7 282.7L1093.7 282.7Q1086.6 282.7 1082.6 278.5Q1078.6 274.2 1078.6 266.7L1078.6 266.7Q1078.6 259.2 1082.6 254.8Q1086.6 250.4 1093.3 250.4L1093.3 250.4Q1099.6 250.4 1103.6 254.4Q1107.6 258.5 1107.6 264.9L1107.6 264.9Q1107.6 266.5 1106.7 267.4Q1105.8 268.3 1104.2 268.3L1104.2 268.3L1085.9 268.3L1085.9 268.5Q1085.9 272.4 1088.0 274.8Q1090.1 277.1 1093.6 277.1L1093.6 277.1Q1096.1 277.1 1097.9 276.1Q1099.6 275.2 1101.4 272.9L1101.4 272.9Q1102.5 271.8 1103.9 271.8L1103.9 271.8Q1105.1 271.8 1106.0 272.5Q1106.8 273.3 1106.8 274.6L1106.8 274.6Q1106.8 275.4 1106.3 276.4L1106.3 276.4Q1104.7 279.4 1101.4 281.0Q1098.1 282.7 1093.7 282.7ZM1085.9 263.5L1085.9 263.5L1100.4 263.5Q1100.3 260.1 1098.3 258.1Q1096.4 256.0 1093.3 256.0Q1090.2 256.0 1088.2 258.1Q1086.1 260.2 1085.9 263.5ZM1118.5 281.7Q1117.5 282.7 1115.9 282.7Q1114.3 282.7 1113.3 281.7Q1112.3 280.6 1112.3 278.8L1112.3 278.8L1112.3 254.1Q1112.3 252.4 1113.2 251.4Q1114.1 250.4 1115.8 250.4Q1117.4 250.4 1118.4 251.4Q1119.4 252.4 1119.4 254.1L1119.4 254.1L1119.4 256.3L1119.5 256.3Q1122.1 250.4 1129.2 250.4L1129.2 250.4Q1134.3 250.4 1137.1 253.5Q1139.9 256.6 1139.9 262.0L1139.9 262.0L1139.9 278.8Q1139.9 280.6 1138.9 281.7Q1137.9 282.7 1136.3 282.7Q1134.6 282.7 1133.6 281.7Q1132.6 280.6 1132.6 278.8L1132.6 278.8L1132.6 263.5Q1132.6 260.1 1131.1 258.4Q1129.5 256.6 1126.4 256.6L1126.4 256.6Q1123.3 256.6 1121.4 258.7Q1119.6 260.7 1119.6 264.1L1119.6 264.1L1119.6 278.8Q1119.6 280.6 1118.5 281.7Z M68.1 364.6L47.5 364.6Q45.7 364.6 44.7 363.5Q43.7 362.5 43.7 360.7L43.7 360.7L43.7 326.2Q43.7 324.4 44.7 323.3Q45.7 322.3 47.5 322.3L47.5 322.3L68.1 322.3Q69.7 322.3 70.6 323.2Q71.6 324.0 71.6 325.5Q71.6 327.0 70.6 327.8Q69.7 328.7 68.1 328.7L68.1 328.7L51.3 328.7L51.3 340.1L67.2 340.1Q68.7 340.1 69.6 340.9Q70.5 341.7 70.5 343.1Q70.5 344.5 69.6 345.3Q68.7 346.1 67.2 346.1L67.2 346.1L51.3 346.1L51.3 358.2L68.1 358.2Q69.7 358.2 70.6 359.1Q71.6 359.9 71.6 361.4Q71.6 362.8 70.6 363.7Q69.7 364.6 68.1 364.6L68.1 364.6ZM83.2 364.2Q82.2 365.2 80.5 365.2Q78.9 365.2 77.9 364.2Q76.9 363.1 76.9 361.3L76.9 361.3L76.9 336.6Q76.9 334.9 77.9 333.9Q78.8 332.9 80.4 332.9Q82.0 332.9 83.0 333.9Q84.0 334.9 84.0 336.6L84.0 336.6L84.0 338.8L84.2 338.8Q86.8 332.9 93.8 332.9L93.8 332.9Q98.9 332.9 101.7 336.0Q104.6 339.1 104.6 344.5L104.6 344.5L104.6 361.3Q104.6 363.1 103.6 364.2Q102.6 365.2 100.9 365.2Q99.3 365.2 98.3 364.2Q97.3 363.1 97.3 361.3L97.3 361.3L97.3 346.0Q97.3 342.6 95.7 340.9Q94.1 339.1 91.1 339.1L91.1 339.1Q87.9 339.1 86.1 341.2Q84.2 343.2 84.2 346.6L84.2 346.6L84.2 361.3Q84.2 363.1 83.2 364.2ZM122.8 365.2L122.8 365.2Q120.8 365.2 119.6 364.3Q118.4 363.4 117.7 361.4L117.7 361.4L109.0 338.3Q108.6 337.2 108.6 336.2L108.6 336.2Q108.6 334.8 109.6 333.8Q110.6 332.9 112.2 332.9L112.2 332.9Q114.9 332.9 115.7 335.8L115.7 335.8L122.8 357.8L122.9 357.8L130 335.8Q130.8 332.9 133.4 332.9L133.4 332.9Q135.0 332.9 136.0 333.8Q137.0 334.8 137.0 336.2L137.0 336.2Q137.0 337.2 136.6 338.2L136.6 338.2L127.9 361.4Q127.2 363.3 126.0 364.3Q124.8 365.2 122.8 365.2ZM147.8 328.0Q146.6 329.2 144.9 329.2Q143.2 329.2 142.0 328.0Q140.8 326.8 140.8 325.2L140.8 325.2Q140.8 323.5 142.0 322.4Q143.2 321.2 144.9 321.2L144.9 321.2Q146.6 321.2 147.8 322.4Q149.0 323.5 149.0 325.2L149.0 325.2Q149.0 326.8 147.8 328.0ZM147.5 364.1Q146.6 365.2 144.9 365.2Q143.2 365.2 142.2 364.1Q141.3 363.1 141.3 361.3L141.3 361.3L141.3 336.7Q141.3 335.0 142.2 333.9Q143.2 332.9 144.9 332.9Q146.6 332.9 147.5 333.9Q148.5 335.0 148.5 336.8L148.5 336.8L148.5 361.3Q148.5 363.1 147.5 364.1ZM161.0 364.1Q160.0 365.2 158.3 365.2Q156.6 365.2 155.6 364.1Q154.7 363.1 154.7 361.3L154.7 361.3L154.7 336.6Q154.7 334.9 155.6 333.9Q156.6 332.9 158.2 332.9L158.2 332.9Q159.7 332.9 160.6 333.9Q161.6 334.9 161.6 336.6L161.6 336.6L161.6 339.0L161.8 339.0Q162.4 336.3 164.2 334.6Q166.1 333.0 168.4 333.0L168.4 333.0Q170.1 333.0 171.0 333.8L171.0 333.8Q172.0 334.6 172.0 336.4L172.0 336.4Q172.0 338.1 170.9 339.0L170.9 339.0Q169.9 339.9 167.7 340.0L167.7 340.0Q162.0 340.0 162.0 346.4L162.0 346.4L162.0 361.3Q162.0 363.1 161.0 364.1ZM200.0 360.9Q195.9 365.2 189.0 365.2Q182.1 365.2 178.1 360.9Q174.0 356.6 174.0 349.1L174.0 349.1Q174.0 341.6 178.1 337.2Q182.2 332.9 189.0 332.9L189.0 332.9Q195.9 332.9 200.0 337.2Q204.1 341.6 204.1 349.1L204.1 349.1Q204.1 356.6 200.0 360.9ZM183.5 356.7Q185.5 359.4 189.0 359.4Q192.5 359.4 194.6 356.7Q196.7 354.0 196.7 349.1L196.7 349.1Q196.7 344.2 194.6 341.4Q192.5 338.7 189.0 338.7L189.0 338.7Q185.5 338.7 183.5 341.4Q181.4 344.2 181.4 349.1L181.4 349.1Q181.4 354.0 183.5 356.7ZM215.0 364.2Q214.0 365.2 212.4 365.2Q210.7 365.2 209.7 364.2Q208.8 363.1 208.8 361.3L208.8 361.3L208.8 336.6Q208.8 334.9 209.7 333.9Q210.6 332.9 212.2 332.9Q213.8 332.9 214.8 333.9Q215.8 334.9 215.8 336.6L215.8 336.6L215.8 338.8L216.0 338.8Q218.6 332.9 225.7 332.9L225.7 332.9Q230.8 332.9 233.6 336.0Q236.4 339.1 236.4 344.5L236.4 344.5L236.4 361.3Q236.4 363.1 235.4 364.2Q234.4 365.2 232.8 365.2Q231.1 365.2 230.1 364.2Q229.1 363.1 229.1 361.3L229.1 361.3L229.1 346.0Q229.1 342.6 227.5 340.9Q226.0 339.1 222.9 339.1L222.9 339.1Q219.8 339.1 217.9 341.2Q216.0 343.2 216.0 346.6L216.0 346.6L216.0 361.3Q216.0 363.1 215.0 364.2ZM245.9 365.2L245.9 365.2Q244.2 365.2 243.2 364.2Q242.2 363.1 242.2 361.3L242.2 361.3L242.2 336.6Q242.2 334.9 243.2 333.9Q244.1 332.9 245.7 332.9Q247.3 332.9 248.3 333.9Q249.2 334.9 249.2 336.6L249.2 336.6L249.2 338.9L249.4 338.9Q250.4 336.2 252.8 334.5Q255.1 332.9 258.2 332.9L258.2 332.9Q261.5 332.9 263.8 334.6Q266.1 336.2 266.9 339.2L266.9 339.2L267.1 339.2Q268.2 336.3 270.8 334.6Q273.4 332.9 276.7 332.9L276.7 332.9Q281.3 332.9 284.1 335.8Q286.9 338.6 286.9 343.3L286.9 343.3L286.9 361.3Q286.9 363.1 285.9 364.1Q284.9 365.2 283.3 365.2L283.3 365.2Q281.6 365.2 280.6 364.1Q279.6 363.1 279.6 361.3L279.6 361.3L279.6 345.1Q279.6 342.2 278.1 340.6Q276.7 339.1 274.0 339.1L274.0 339.1Q271.4 339.1 269.7 340.8Q268.1 342.6 268.1 345.4L268.1 345.4L268.1 361.3Q268.1 363.1 267.2 364.2Q266.2 365.2 264.6 365.2L264.6 365.2Q262.9 365.2 262.0 364.2Q261.0 363.1 261.0 361.3L261.0 361.3L261.0 344.7Q261.0 342.1 259.5 340.6Q258.1 339.1 255.5 339.1L255.5 339.1Q252.9 339.1 251.2 340.9Q249.5 342.8 249.5 345.6L249.5 345.6L249.5 361.3Q249.5 363.1 248.5 364.1Q247.5 365.2 245.9 365.2ZM306.5 365.2L306.5 365.2Q299.4 365.2 295.4 361.0Q291.4 356.7 291.4 349.2L291.4 349.2Q291.4 341.7 295.4 337.3Q299.4 332.9 306.1 332.9L306.1 332.9Q312.5 332.9 316.4 336.9Q320.4 341.0 320.4 347.4L320.4 347.4Q320.4 349.0 319.5 349.9Q318.6 350.8 317.0 350.8L317.0 350.8L298.7 350.8L298.7 351.0Q298.7 354.9 300.8 357.3Q302.9 359.6 306.5 359.6L306.5 359.6Q308.9 359.6 310.7 358.6Q312.5 357.7 314.2 355.4L314.2 355.4Q315.3 354.3 316.7 354.3L316.7 354.3Q317.9 354.3 318.8 355.0Q319.6 355.8 319.6 357.1L319.6 357.1Q319.6 357.9 319.1 358.9L319.1 358.9Q317.6 361.9 314.2 363.5Q310.9 365.2 306.5 365.2ZM298.8 346.0L298.8 346.0L313.3 346.0Q313.1 342.6 311.2 340.6Q309.2 338.5 306.1 338.5Q303.1 338.5 301.0 340.6Q299.0 342.7 298.8 346.0ZM331.4 364.2Q330.4 365.2 328.7 365.2Q327.1 365.2 326.1 364.2Q325.1 363.1 325.1 361.3L325.1 361.3L325.1 336.6Q325.1 334.9 326.0 333.9Q327.0 332.9 328.6 332.9Q330.2 332.9 331.2 333.9Q332.2 334.9 332.2 336.6L332.2 336.6L332.2 338.8L332.3 338.8Q335.0 332.9 342.0 332.9L342.0 332.9Q347.1 332.9 349.9 336.0Q352.7 339.1 352.7 344.5L352.7 344.5L352.7 361.3Q352.7 363.1 351.7 364.2Q350.8 365.2 349.1 365.2Q347.5 365.2 346.5 364.2Q345.4 363.1 345.4 361.3L345.4 361.3L345.4 346.0Q345.4 342.6 343.9 340.9Q342.3 339.1 339.2 339.1L339.2 339.1Q336.1 339.1 334.2 341.2Q332.4 343.2 332.4 346.6L332.4 346.6L332.4 361.3Q332.4 363.1 331.4 364.2ZM360.6 356.9L360.6 356.9L360.6 339.1L358.6 339.1Q357.3 339.1 356.5 338.4Q355.7 337.6 355.7 336.3L355.7 336.3Q355.7 335.0 356.5 334.3Q357.3 333.5 358.6 333.5L358.6 333.5L360.6 333.5L360.6 329.4Q360.6 327.6 361.6 326.6Q362.6 325.6 364.3 325.6L364.3 325.6Q365.9 325.6 366.9 326.6Q367.9 327.6 367.9 329.4L367.9 329.4L367.9 333.5L371.3 333.5Q372.6 333.5 373.4 334.3Q374.2 335.0 374.2 336.3L374.2 336.3Q374.2 337.6 373.4 338.4Q372.6 339.1 371.3 339.1L371.3 339.1L367.9 339.1L367.9 355.3Q367.9 357.1 368.6 357.9Q369.2 358.7 370.8 358.9L370.8 358.9L371.3 358.9Q374.3 359.2 374.3 361.6L374.3 361.6Q374.3 363.2 372.9 364.1Q371.6 364.9 369.1 364.9L369.1 364.9L368.8 364.9Q360.6 364.9 360.6 356.9ZM390.7 365.2L390.7 365.2Q385.8 365.2 382.5 363.5Q379.2 361.8 378.0 359.0L378.0 359.0Q377.7 358.2 377.7 357.5L377.7 357.5Q377.7 356.2 378.6 355.4Q379.4 354.6 380.8 354.6L380.8 354.6Q382.6 354.6 383.9 356.4L383.9 356.4Q385.2 358.3 386.8 359.1Q388.4 359.9 390.9 359.9L390.9 359.9Q393.5 359.9 395.1 358.9Q396.6 357.8 396.6 356.1L396.6 356.1Q396.6 354.7 395.6 353.8Q394.6 353.0 392.2 352.4L392.2 352.4L387.2 351.3Q378.1 349.3 378.1 342.4L378.1 342.4Q378.1 338.1 381.6 335.5Q385.1 332.9 390.8 332.9L390.8 332.9Q395.2 332.9 398.4 334.8Q401.6 336.6 402.4 339.4L402.4 339.4Q402.5 340.0 402.5 340.5L402.5 340.5Q402.5 341.6 401.8 342.4Q401.1 343.1 399.7 343.1L399.7 343.1Q397.9 343.1 396.9 341.7L396.9 341.7Q395.8 340.0 394.3 339.1Q392.8 338.2 390.6 338.2L390.6 338.2Q388.2 338.2 386.7 339.3Q385.2 340.3 385.2 342.0L385.2 342.0Q385.2 344.8 389.8 345.8L389.8 345.8L394.8 346.9Q399.7 348.0 401.8 349.9Q403.9 351.9 403.9 355.3L403.9 355.3Q403.9 359.8 400.3 362.5Q396.6 365.2 390.7 365.2Z "/><defs><clipPath id="satori_bc-id-0-1"><rect x="0" y="441" width="1200" height="189"/></clipPath></defs><mask id="satori_om-id-0-1"><rect x="0" y="442" width="1200" height="188" fill="#fff"/><path width="1200" height="189" fill="none" stroke="#000" stroke-width="2" d="M0,441 A0,0 0 0 1 0,441 h1200 A0,0 0 0 1 1200,441"/></mask><path width="1200" height="189" clip-path="url(#satori_bc-id-0-1)" fill="none" stroke="#dbdbdb" stroke-width="2" d="M0,441 A0,0 0 0 1 0,441 h1200 A0,0 0 0 1 1200,441"/><mask id="satori_om-id-0-1-0"><rect x="40" y="482" width="389" height="108" fill="#fff"/></mask><clipPath id="satori_cp-id-0-1-0-0"><rect x="40" y="504" width="64" height="64"/></clipPath><mask id="satori_om-id-0-1-0-0"><rect x="40" y="504" width="64" height="64" fill="#fff"/></mask><image x="40" y="504" width="64" height="64" href="data:image/svg+xml;utf8,%3Csvg  xmlns=%22http://www.w3.org/2000/svg%22 width=%2264%22 height=%2264%22 viewBox=%220 0 128 128%22%3E%3Cpath fill=%22%23224d67%22 d=%22M22.5 14.8c2.9 1.3 99 44 99 44c2.7 1.2 2.9 3.1 2 12.4c-1 10.5-1.9 37.8-40.2 42.9c-24.6 3.2-55.9-4.3-70.9-27.2C-6 58.8 11 23.4 14.8 17.7c2.4-3.5 4.8-4.2 7.7-2.9%22%3E%3C/path%3E%3Cpath fill=%22%23f0f4c3%22 d=%22M121.5 58.8c-.3-.2-92-40.8-98.9-43.9C9.6 31.5-3.8 76 27.9 96.2c33.6 21.5 78.7-10.2 93.6-37.4%22%3E%3C/path%3E%3Cpath fill=%22%23f0f4c3%22 d=%22M117.7 57c-.3-.2-86.7-38.4-93.2-41.3c-12.2 15.5-23.9 59.1 5.7 78c31.4 20.2 73.6-11.2 87.5-36.7%22%3E%3C/path%3E%3Cpath fill=%22%23cb2a42%22 d=%22M56.2 37.6L19.5 48.2c-2.5.8-4.4 2.8-5 5.3c-1.9 8.5.8 23.3 8.9 29.8c3.5 2.7 8.6 1.8 10.8-2.1L58.5 41c1.3-1.7.5-4.2-2.3-3.4m14.3 2.9s14.6 30.1 16 33s6.3 4.7 9.9 2.8c10.7-5.6 15.5-12.4 19.2-20.2c-8.9-3.9-42.4-18.8-42.4-18.8c-2.4-1.1-4 .6-2.7 3.2m-8.6 1.9C60.3 45.1 39.5 81 37.6 84.1c-1.9 3.2-.7 7.5 2.7 9.2c12.3 6.5 30.9.4 39.6-7c2.2-1.9 4.5-5.1 3.2-8.2S68.9 44.6 67.8 42.3c-1.2-2.7-4.1-2.8-5.9.1%22%3E%3C/path%3E%3Cpath fill=%22%23f0f4c3%22 d=%22M52.2 42.2c-1.4.4-10.1 3-11.1 3.4c-1.4.5-2.2 1.7-1.9 2.5c.3.9 1.7 1.1 3.1.6c.8-.3 7.1-3.9 9.5-5.2c-3.1 2.4-10.2 9.4-11.1 10.3c-1.4 1.5-1.7 3.4-.8 4.3c1 .9 2.9.5 4.3-1c1.2-1.3 8.5-12.8 9.1-13.9s.4-1.4-1.1-1m10.1 16.4c0-2.2 1.4-10.3 1.8-12.3c.4-1.6 1.5-1.8 1.8.5s1.7 9.7 1.7 11.8s-1.2 3.3-2.7 3.3c-1.4 0-2.6-1.1-2.6-3.3M79.9 49c-1.2-1.8-3.3-4.9-4.1-6.1c-.7-1.2.1-2.1 1.8-.9s4 2.9 5.4 4c1.6 1.3 1.9 3 .8 4s-2.7.8-3.9-1%22%3E%3C/path%3E%3Cellipse cx=%2287.3%22 cy=%22103.12%22 fill=%22%23cb2a42%22 rx=%223.4%22 ry=%222.3%22 transform=%22rotate(-27.098 87.298 103.126)%22%3E%3C/ellipse%3E%3Cellipse cx=%2298.89%22 cy=%22103.82%22 fill=%22%23cb2a42%22 rx=%223.4%22 ry=%222.3%22 transform=%22rotate(-30.642 98.887 103.818)%22%3E%3C/ellipse%3E%3Cellipse cx=%22102.02%22 cy=%2293.8%22 fill=%22%23cb2a42%22 rx=%223.4%22 ry=%222.3%22 transform=%22rotate(-37.16 102.017 93.797)%22%3E%3C/ellipse%3E%3Cpath fill=%22%23cb2a42%22 d=%22M57.6 30.3c-8.3-3.7-24.4-10.7-29.6-13c-3.6 2.2-9.7 11.4-11.2 21.2c-.6 3.6 1.7 5.9 5.3 4.9c0 0 33.7-9.3 35.3-9.7c1.6-.5 2-2.6.2-3.4%22%3E%3C/path%3E%3C/svg%3E" preserveAspectRatio="none" clip-path="url(#satori_cp-id-0-1-0-0)" mask="url(#satori_om-id-0-1-0-0)"/><mask id="satori_om-id-0-1-0-0-0"><rect x="40" y="504" width="0" height="64" fill="#fff"/></mask><mask id="satori_om-id-0-1-0-0-1"><rect x="40" y="504" width="0" height="64" fill="#fff"/></mask><mask id="satori_om-id-0-1-0-0-2"><rect x="40" y="504" width="0" height="64" fill="#fff"/></mask><mask id="satori_om-id-0-1-0-0-3"><rect x="40" y="504" width="0" height="64" fill="#fff"/></mask><mask id="satori_om-id-0-1-0-0-4"><rect x="40" y="504" width="0" height="64" fill="#fff"/></mask><mask id="satori_om-id-0-1-0-0-5"><rect x="40" y="504" width="0" height="64" fill="#fff"/></mask><mask id="satori_om-id-0-1-0-0-6"><rect x="40" y="504" width="0" height="64" fill="#fff"/></mask><mask id="satori_om-id-0-1-0-0-7"><rect x="40" y="504" width="0" height="64" fill="#fff"/></mask><mask id="satori_om-id-0-1-0-0-8"><rect x="40" y="504" width="0" height="64" fill="#fff"/></mask><mask id="satori_om-id-0-1-0-1"><rect x="116" y="512" width="313" height="48" fill="#fff"/></mask><path fill="#545454" d="M133.0 553.6L133.0 553.6Q126.5 553.6 122.7 550.2Q118.8 546.7 118.8 541.1L118.8 541.1L118.8 522.5Q118.8 520.7 119.8 519.7Q120.7 518.8 122.4 518.8Q124.0 518.8 125.0 519.7Q125.9 520.7 125.9 522.5L125.9 522.5L125.9 540.4Q125.9 543.7 127.8 545.6Q129.6 547.6 133.0 547.6L133.0 547.6Q136.3 547.6 138.2 545.6Q140.1 543.7 140.1 540.4L140.1 540.4L140.1 522.5Q140.1 520.7 141.0 519.7Q141.9 518.8 143.6 518.8Q145.3 518.8 146.2 519.7Q147.1 520.7 147.1 522.5L147.1 522.5L147.1 541.1Q147.1 546.7 143.3 550.2Q139.4 553.6 133.0 553.6ZM158.9 552.6Q158.0 553.6 156.3 553.6Q154.6 553.6 153.7 552.6Q152.8 551.6 152.8 549.9L152.8 549.9L152.8 522.9Q152.8 521.2 153.7 520.2Q154.6 519.2 156.3 519.2L156.3 519.2L166.6 519.2Q172.4 519.2 175.6 522.1Q178.9 525.0 178.9 530.0L178.9 530.0Q178.9 533.2 177.3 535.8Q175.8 538.3 173.0 539.4L173.0 539.4L177.9 547.9Q178.7 549.2 178.7 550.3L178.7 550.3Q178.7 551.7 177.7 552.6Q176.7 553.6 175.1 553.6L175.1 553.6Q173.8 553.6 173.1 553.0Q172.4 552.5 171.5 550.9L171.5 550.9L165.9 540.7L159.9 540.7L159.9 549.9Q159.9 551.6 158.9 552.6ZM159.9 524.8L159.9 535.6L165.9 535.6Q168.6 535.6 170.1 534.1Q171.6 532.7 171.6 530.2L171.6 530.2Q171.6 527.7 170.0 526.2Q168.5 524.8 165.9 524.8L165.9 524.8L159.9 524.8ZM196.2 542.3L186.4 542.3Q185.0 542.3 184.1 541.5Q183.2 540.7 183.2 539.3Q183.2 537.9 184.1 537.1Q185.0 536.3 186.4 536.3L186.4 536.3L196.2 536.3Q197.6 536.3 198.5 537.1Q199.4 537.9 199.4 539.3Q199.4 540.7 198.5 541.5Q197.6 542.3 196.2 542.3L196.2 542.3ZM210.9 552.6Q209.9 553.6 208.3 553.6Q206.6 553.6 205.6 552.6Q204.7 551.6 204.7 549.9L204.7 549.9L204.7 522.9Q204.7 521.2 205.6 520.2Q206.6 519.2 208.3 519.2L208.3 519.2L218.6 519.2Q224.4 519.2 227.6 522.1Q230.8 525.0 230.8 530.0L230.8 530.0Q230.8 533.2 229.3 535.8Q227.8 538.3 225.0 539.4L225.0 539.4L229.9 547.9Q230.6 549.2 230.6 550.3L230.6 550.3Q230.6 551.7 229.6 552.6Q228.6 553.6 227.0 553.6L227.0 553.6Q225.8 553.6 225.0 553.0Q224.3 552.5 223.4 550.9L223.4 550.9L217.8 540.7L211.8 540.7L211.8 549.9Q211.8 551.6 210.9 552.6ZM211.8 524.8L211.8 535.6L217.9 535.6Q220.6 535.6 222.0 534.1Q223.5 532.7 223.5 530.2L223.5 530.2Q223.5 527.7 222.0 526.2Q220.4 524.8 217.8 524.8L217.8 524.8L211.8 524.8ZM237.7 553.5L237.7 553.5Q236.0 553.5 235.1 552.6Q234.1 551.7 234.1 550.2L234.1 550.2Q234.1 549.3 234.6 547.9L234.6 547.9L243.8 522.8Q244.6 520.7 245.8 519.7Q247.1 518.8 249.1 518.8L249.1 518.8Q251.2 518.8 252.5 519.7Q253.8 520.7 254.5 522.8L254.5 522.8L263.8 547.9Q264.3 549.2 264.3 550.2L264.3 550.2Q264.3 551.6 263.3 552.6Q262.3 553.5 260.7 553.5L260.7 553.5Q259.2 553.5 258.4 552.8Q257.5 552.1 257.0 550.4L257.0 550.4L255.3 545.0L243.1 545.0L241.3 550.3Q240.8 552.0 239.9 552.8Q239.1 553.5 237.7 553.5ZM249.0 525.7L244.6 539.6L253.6 539.6L249.1 525.7L249.0 525.7ZM281.5 553.1L272.1 553.1Q270.4 553.1 269.5 552.1Q268.6 551.1 268.6 549.4L268.6 549.4L268.6 522.9Q268.6 521.2 269.5 520.2Q270.4 519.2 272.1 519.2L272.1 519.2L281.5 519.2Q289.1 519.2 293.4 523.6Q297.6 528.0 297.6 536.0L297.6 536.0Q297.6 544.1 293.3 548.6Q289.1 553.1 281.5 553.1L281.5 553.1ZM275.6 525.1L275.6 547.2L280.6 547.2Q285.4 547.2 287.9 544.4Q290.4 541.5 290.4 536.0L290.4 536.0Q290.4 530.8 287.8 527.9Q285.3 525.1 280.6 525.1L280.6 525.1L275.6 525.1Z M333.2 553.1L314.5 553.1Q312.9 553.1 312.0 552.2Q311.2 551.4 311.2 550.0L311.2 550.0Q311.2 549.1 311.6 548.3Q312.0 547.5 313.1 546.5L313.1 546.5L323.2 536.9Q326.3 533.8 327.4 532.2Q328.4 530.6 328.4 528.8L328.4 528.8Q328.4 526.7 327.0 525.3Q325.5 524 323.3 524L323.3 524Q319.3 524 317.4 528.1L317.4 528.1Q316.8 529.2 316.1 529.7Q315.4 530.1 314.3 530.1L314.3 530.1Q312.9 530.1 312.1 529.4Q311.3 528.6 311.3 527.3L311.3 527.3Q311.3 526.5 311.5 525.7L311.5 525.7Q312.5 522.7 315.6 520.6Q318.8 518.5 323.3 518.5L323.3 518.5Q328.7 518.5 332.0 521.2Q335.3 524.0 335.3 528.3L335.3 528.3Q335.3 529.9 335.0 531.2Q334.6 532.5 333.6 533.9Q332.6 535.3 331.3 536.8Q330.0 538.2 327.8 540.3L327.8 540.3L320.5 547.3L320.5 547.4L333.2 547.4Q334.6 547.4 335.4 548.2Q336.1 549.0 336.1 550.3L336.1 550.3Q336.1 551.5 335.4 552.3Q334.6 553.1 333.2 553.1L333.2 553.1ZM363.6 549.0Q359.9 553.8 353.5 553.8Q347.1 553.8 343.4 549.1Q339.7 544.3 339.7 536.1L339.7 536.1Q339.7 527.9 343.4 523.2Q347.1 518.5 353.5 518.5Q359.9 518.5 363.6 523.2Q367.3 527.9 367.3 536.1L367.3 536.1Q367.3 544.3 363.6 549.0ZM348.6 545.0Q350.4 548.1 353.5 548.1Q356.7 548.1 358.4 545.0Q360.1 541.9 360.1 536.1L360.1 536.1Q360.1 530.4 358.4 527.2Q356.7 524.1 353.5 524.1L353.5 524.1Q350.4 524.1 348.7 527.3Q346.9 530.4 346.9 536.1L346.9 536.1Q346.9 541.9 348.6 545.0ZM393.6 553.1L374.9 553.1Q373.3 553.1 372.4 552.2Q371.6 551.4 371.6 550.0L371.6 550.0Q371.6 549.1 372.0 548.3Q372.5 547.5 373.5 546.5L373.5 546.5L383.6 536.9Q386.8 533.8 387.8 532.2Q388.9 530.6 388.9 528.8L388.9 528.8Q388.9 526.7 387.4 525.3Q386.0 524 383.7 524L383.7 524Q379.7 524 377.9 528.1L377.9 528.1Q377.3 529.2 376.5 529.7Q375.8 530.1 374.7 530.1L374.7 530.1Q373.3 530.1 372.5 529.4Q371.7 528.6 371.7 527.3L371.7 527.3Q371.7 526.5 372.0 525.7L372.0 525.7Q372.9 522.7 376.0 520.6Q379.2 518.5 383.8 518.5L383.8 518.5Q389.1 518.5 392.4 521.2Q395.8 524.0 395.8 528.3L395.8 528.3Q395.8 529.9 395.4 531.2Q395 532.5 394.0 533.9Q393.1 535.3 391.7 536.8Q390.4 538.2 388.2 540.3L388.2 540.3L380.9 547.3L380.9 547.4L393.6 547.4Q395 547.4 395.8 548.2Q396.6 549.0 396.6 550.3L396.6 550.3Q396.6 551.5 395.8 552.3Q395 553.1 393.6 553.1L393.6 553.1ZM413.6 553.8L413.6 553.8Q409.6 553.8 406.3 552.1Q403.1 550.4 401.8 547.7L401.8 547.7Q401.3 546.5 401.3 545.4L401.3 545.4Q401.3 544.0 402.0 543.3Q402.8 542.5 404.2 542.5L404.2 542.5Q405.3 542.5 406.0 542.9Q406.7 543.3 407.3 544.3L407.3 544.3Q409.3 548.2 413.6 548.2L413.6 548.2Q416.3 548.2 418.1 546.4Q419.9 544.6 419.9 541.9L419.9 541.9Q419.9 539.2 418.1 537.5Q416.4 535.8 413.6 535.8L413.6 535.8Q410.8 535.8 408.7 537.8L408.7 537.8Q407.6 538.8 406.9 539.1Q406.2 539.4 405.0 539.4L405.0 539.4Q403.4 539.4 402.5 538.4Q401.6 537.4 401.7 535.9L401.7 535.9Q401.7 535.8 401.7 535.6L401.7 535.6L402.7 523.3Q402.9 521.1 404.0 520.2Q405.1 519.2 407.2 519.2L407.2 519.2L422 519.2Q423.3 519.2 424.1 520.0Q424.9 520.8 424.9 522.1Q424.9 523.3 424.1 524.1Q423.3 524.9 422 524.9L422 524.9L408.6 524.9L407.8 534.3L408.0 534.3Q409.0 532.6 411.0 531.7Q413.0 530.7 415.6 530.7L415.6 530.7Q420.4 530.7 423.5 533.8Q426.6 536.9 426.6 541.7L426.6 541.7Q426.6 547.1 423.0 550.5Q419.4 553.8 413.6 553.8Z "/><mask id="satori_om-id-0-1-1"><rect x="1013" y="524" width="147" height="36" fill="#fff"/></mask><path fill="#8e8e8e" d="M1016.9 552.6Q1016.5 552.9 1016.0 552.9Q1015.4 552.9 1015.1 552.6Q1014.8 552.2 1014.8 551.7L1014.8 551.7L1014.8 532.6Q1014.8 532.0 1015.1 531.6Q1015.5 531.3 1016.1 531.3Q1016.6 531.3 1017.0 531.6Q1017.3 532.0 1017.3 532.6L1017.3 532.6L1017.3 540.0L1017.4 540.0Q1018.1 538.7 1019.4 537.9Q1020.7 537.2 1022.3 537.2L1022.3 537.2Q1025.2 537.2 1026.9 539.3Q1028.7 541.5 1028.7 545.0L1028.7 545.0Q1028.7 548.6 1026.9 550.8Q1025.2 552.9 1022.2 552.9L1022.2 552.9Q1020.6 552.9 1019.3 552.2Q1018.0 551.4 1017.3 550.1L1017.3 550.1L1017.2 550.1L1017.2 551.7Q1017.2 552.2 1016.9 552.6ZM1021.7 550.7L1021.7 550.7Q1023.8 550.7 1024.9 549.2Q1026.1 547.7 1026.1 545.0L1026.1 545.0Q1026.1 542.5 1024.9 540.9Q1023.8 539.4 1021.7 539.4L1021.7 539.4Q1019.8 539.4 1018.6 541.0Q1017.3 542.5 1017.3 545.0L1017.3 545.0Q1017.3 547.6 1018.6 549.1Q1019.8 550.7 1021.7 550.7ZM1032.8 558.4L1032.8 558.4Q1031.9 558.4 1031.4 558.0Q1030.9 557.7 1030.9 557.1L1030.9 557.1Q1030.9 556.7 1031.1 556.4Q1031.4 556.2 1031.9 556.2L1031.9 556.2Q1032.1 556.2 1032.3 556.2Q1032.5 556.2 1032.7 556.2L1032.7 556.2Q1034.4 556.2 1035.2 553.7L1035.2 553.7L1035.6 552.7L1030.3 539.0Q1030.2 538.6 1030.2 538.3L1030.2 538.3Q1030.2 537.8 1030.6 537.5Q1030.9 537.2 1031.5 537.2L1031.5 537.2Q1032.4 537.2 1032.7 538.1L1032.7 538.1L1036.9 550.1L1037.0 550.1L1041.2 538.1Q1041.3 537.6 1041.6 537.4Q1041.9 537.2 1042.4 537.2L1042.4 537.2Q1042.9 537.2 1043.3 537.5Q1043.6 537.8 1043.6 538.3L1043.6 538.3Q1043.6 538.6 1043.5 539.0L1043.5 539.0L1037.9 553.7Q1036.9 556.4 1035.8 557.4Q1034.7 558.4 1032.8 558.4Z M1066.9 550.9Q1064.7 553.0 1060.8 553.0Q1056.9 553.0 1054.7 550.9Q1052.4 548.7 1052.4 545.3L1052.4 545.3L1052.4 532.7Q1052.4 532.1 1052.8 531.7Q1053.1 531.3 1053.7 531.3Q1054.3 531.3 1054.7 531.7Q1055.0 532.1 1055.0 532.7L1055.0 532.7L1055.0 545.1Q1055.0 547.5 1056.6 549.1Q1058.1 550.6 1060.8 550.6Q1063.5 550.6 1065.0 549.1Q1066.6 547.5 1066.6 545.1L1066.6 545.1L1066.6 532.7Q1066.6 532.1 1066.9 531.7Q1067.3 531.3 1067.9 531.3Q1068.5 531.3 1068.8 531.7Q1069.2 532.1 1069.2 532.7L1069.2 532.7L1069.2 545.3Q1069.2 548.7 1066.9 550.9ZM1075.6 552.6Q1075.2 552.9 1074.6 552.9Q1074.0 552.9 1073.7 552.6Q1073.3 552.2 1073.3 551.6L1073.3 551.6L1073.3 532.9Q1073.3 532.3 1073.7 531.9Q1074.0 531.5 1074.6 531.5L1074.6 531.5L1081.2 531.5Q1084.3 531.5 1086.1 533.2Q1088.0 535.0 1088.0 537.8L1088.0 537.8Q1088.0 540.0 1086.8 541.6Q1085.7 543.3 1083.7 543.9L1083.7 543.9L1087.6 550.8Q1087.9 551.3 1087.9 551.7L1087.9 551.7Q1087.9 552.2 1087.5 552.6Q1087.1 552.9 1086.5 552.9L1086.5 552.9Q1086.1 552.9 1085.8 552.7Q1085.5 552.5 1085.2 552.1L1085.2 552.1L1081.0 544.3L1075.9 544.3L1075.9 551.6Q1075.9 552.2 1075.6 552.6ZM1075.9 533.9L1075.9 542.0L1081.0 542.0Q1083.0 542.0 1084.1 540.9Q1085.2 539.9 1085.2 537.9L1085.2 537.9Q1085.2 536.0 1084.1 534.9Q1082.9 533.9 1080.9 533.9L1080.9 533.9L1075.9 533.9ZM1099.4 545.3L1091.9 545.3Q1091.3 545.3 1091.0 545.0Q1090.6 544.6 1090.6 544.1Q1090.6 543.6 1091.0 543.2Q1091.3 542.9 1091.9 542.9L1091.9 542.9L1099.4 542.9Q1100.0 542.9 1100.3 543.2Q1100.7 543.6 1100.7 544.1Q1100.7 544.6 1100.3 545.0Q1100.0 545.3 1099.4 545.3L1099.4 545.3ZM1106.4 552.6Q1106.0 552.9 1105.4 552.9Q1104.8 552.9 1104.5 552.6Q1104.1 552.2 1104.1 551.6L1104.1 551.6L1104.1 532.9Q1104.1 532.3 1104.5 531.9Q1104.8 531.5 1105.4 531.5L1105.4 531.5L1112.1 531.5Q1115.1 531.5 1117.0 533.2Q1118.8 535.0 1118.8 537.8L1118.8 537.8Q1118.8 540.0 1117.7 541.6Q1116.5 543.3 1114.5 543.9L1114.5 543.9L1118.4 550.8Q1118.7 551.3 1118.7 551.7L1118.7 551.7Q1118.7 552.2 1118.3 552.6Q1117.9 552.9 1117.3 552.9L1117.3 552.9Q1116.9 552.9 1116.6 552.7Q1116.3 552.5 1116.1 552.1L1116.1 552.1L1111.8 544.3L1106.8 544.3L1106.8 551.6Q1106.8 552.2 1106.4 552.6ZM1106.8 533.9L1106.8 542.0L1111.8 542.0Q1113.9 542.0 1115.0 540.9Q1116.1 539.9 1116.1 537.9L1116.1 537.9Q1116.1 536.0 1114.9 534.9Q1113.8 533.9 1111.7 533.9L1111.7 533.9L1106.8 533.9ZM1122.2 552.9L1122.2 552.9Q1121.6 552.9 1121.2 552.5Q1120.9 552.2 1120.9 551.7L1120.9 551.7Q1120.9 551.4 1121.0 551.0L1121.0 551.0L1127.8 532.6Q1128.3 531.3 1129.5 531.3L1129.5 531.3Q1130.7 531.3 1131.2 532.6L1131.2 532.6L1138.0 551.0Q1138.2 551.4 1138.2 551.7L1138.2 551.7Q1138.2 552.2 1137.8 552.5Q1137.4 552.9 1136.9 552.9L1136.9 552.9Q1135.9 552.9 1135.6 551.9L1135.6 551.9L1133.7 546.6L1125.3 546.6L1123.5 551.9Q1123.1 552.9 1122.2 552.9ZM1129.5 534.7L1126.1 544.4L1132.9 544.4L1129.6 534.7L1129.5 534.7ZM1148.1 552.7L1142.3 552.7Q1141.7 552.7 1141.4 552.3Q1141.0 551.9 1141.0 551.3L1141.0 551.3L1141.0 532.9Q1141.0 532.3 1141.4 531.9Q1141.7 531.5 1142.3 531.5L1142.3 531.5L1148.1 531.5Q1152.8 531.5 1155.5 534.3Q1158.1 537.1 1158.1 542.1L1158.1 542.1Q1158.1 547.1 1155.5 549.9Q1152.8 552.7 1148.1 552.7L1148.1 552.7ZM1143.7 533.9L1143.7 550.3L1148.0 550.3Q1151.5 550.3 1153.5 548.2Q1155.4 546.1 1155.4 542.1L1155.4 542.1Q1155.4 538.1 1153.5 536.0Q1151.6 533.9 1148.0 533.9L1148.0 533.9L1143.7 533.9Z "/></svg>