<svg width="1200" height="630" viewBox="0 0 1200 630" xmlns="http://www.w3.org/2000/svg"><mask id="satori_om-id"><rect x="0" y="0" width="1200" height="630" fill="#fff"/></mask><mask id="satori_om-id-0"><rect x="0" y="0" width="1200" height="630" fill="#fff"/></mask><rect x="0" y="0" width="1200" height="630" fill="#f2f2f2"/><mask id="satori_om-id-0-0"><rect x="0" y="0" width="1200" height="441" fill="#fff"/></mask><mask id="satori_om-id-0-0-0"><rect x="40" y="95" width="1120" height="36" fill="#fff"/></mask><path fill="#8e8e8e" d="M49.1 123.5Q48.6 123.9 47.9 123.9Q47.1 123.9 46.7 123.5Q46.2 123.1 46.0 122.3L46.0 122.3L41.1 104.8Q41.0 104.2 41.0 103.8L41.0 103.8Q41.0 103.1 41.4 102.7Q41.8 102.3 42.6 102.3L42.6 102.3Q43.9 102.3 44.2 103.7L44.2 103.7L48.0 119.1L48.1 119.1L52.2 103.9Q52.5 103.1 52.9 102.7Q53.3 102.3 54.1 102.3L54.1 102.3Q54.8 102.3 55.3 102.7Q55.7 103.1 55.9 103.9L55.9 103.9L60.1 119.1L60.2 119.1L64.0 103.7Q64.3 102.3 65.6 102.3L65.6 102.3Q66.3 102.3 66.8 102.7Q67.2 103.1 67.2 103.8L67.2 103.8Q67.2 104.2 67.1 104.8L67.1 104.8L62.2 122.3Q61.9 123.1 61.5 123.5Q61.0 123.9 60.3 123.9L60.3 123.9Q59.5 123.9 59.1 123.5Q58.6 123.2 58.4 122.3L58.4 122.3L54.2 107.7L54.0 107.7L49.8 122.3Q49.6 123.1 49.1 123.5ZM76.4 124.0L76.4 124.0Q72.9 124.0 71.0 121.9Q69.0 119.8 69.0 116.0L69.0 116.0Q69.0 112.4 71.0 110.2Q72.9 108.0 76.2 108.0L76.2 108.0Q79.3 108.0 81.2 110.0Q83.1 112.0 83.1 115.1L83.1 115.1Q83.1 115.9 82.7 116.3Q82.3 116.8 81.6 116.8L81.6 116.8L72.2 116.8L72.2 116.8Q72.2 118.9 73.3 120.2Q74.5 121.4 76.3 121.4L76.3 121.4Q77.6 121.4 78.5 120.9Q79.4 120.4 80.3 119.2L80.3 119.2Q80.8 118.6 81.4 118.6L81.4 118.6Q82.0 118.6 82.4 119.0Q82.8 119.3 82.8 119.9L82.8 119.9Q82.8 120.3 82.5 120.8L82.5 120.8Q81.8 122.3 80.2 123.1Q78.6 124.0 76.4 124.0ZM72.3 114.5L72.3 114.5L80.0 114.5Q79.9 112.7 78.9 111.6Q77.8 110.5 76.2 110.5L76.2 110.5Q74.5 110.5 73.5 111.6Q72.4 112.7 72.3 114.5ZM91.4 123.9L91.4 123.9Q88.4 123.9 86.7 121.8Q84.9 119.6 84.9 116.0Q84.9 112.3 86.6 110.2Q88.4 108.0 91.3 108.0L91.3 108.0Q93.0 108.0 94.2 108.8Q95.5 109.5 96.2 110.8L96.2 110.8L96.2 110.8L96.2 103.9Q96.2 103.1 96.7 102.7Q97.1 102.2 97.8 102.2L97.8 102.2Q98.5 102.2 99.0 102.7Q99.4 103.2 99.4 103.9L99.4 103.9L99.4 122.4Q99.4 123.1 99.0 123.5Q98.5 123.9 97.8 123.9L97.8 123.9Q97.1 123.9 96.7 123.5Q96.2 123.1 96.2 122.4L96.2 122.4L96.2 120.9L96.2 120.9Q95.6 122.3 94.3 123.1Q93.1 123.9 91.4 123.9ZM92.2 121.2L92.2 121.2Q94.0 121.2 95.1 119.8Q96.3 118.4 96.3 116.0L96.3 116.0Q96.3 113.6 95.1 112.1Q94.0 110.7 92.2 110.7L92.2 110.7Q90.3 110.7 89.2 112.1Q88.1 113.5 88.1 116.0L88.1 116.0Q88.1 118.4 89.2 119.8Q90.3 121.2 92.2 121.2ZM104.2 123.9L104.2 123.9Q103.5 123.9 103.1 123.5Q102.6 123.0 102.6 122.3L102.6 122.3L102.6 109.6Q102.6 108.8 103.0 108.4Q103.5 108.0 104.1 108.0Q104.8 108.0 105.3 108.4Q105.7 108.9 105.7 109.6L105.7 109.6L105.7 110.8L105.8 110.8Q107.1 108.0 110.6 108.0L110.6 108.0Q113.1 108.0 114.5 109.5Q115.9 111.0 115.9 113.7L115.9 113.7L115.9 122.3Q115.9 123.0 115.5 123.5Q115.0 123.9 114.3 123.9L114.3 123.9Q113.6 123.9 113.2 123.5Q112.7 123.0 112.7 122.3L112.7 122.3L112.7 114.3Q112.7 112.5 111.9 111.6Q111.1 110.7 109.5 110.7L109.5 110.7Q107.8 110.7 106.8 111.8Q105.8 112.9 105.8 114.7L105.8 114.7L105.8 122.3Q105.8 123.0 105.4 123.5Q104.9 123.9 104.2 123.9ZM125.6 124.0L125.6 124.0Q122.2 124.0 120.2 121.9Q118.3 119.8 118.3 116.0L118.3 116.0Q118.3 112.4 120.2 110.2Q122.2 108.0 125.4 108.0L125.4 108.0Q128.5 108.0 130.4 110.0Q132.4 112.0 132.4 115.1L132.4 115.1Q132.4 115.9 131.9 116.3Q131.5 116.8 130.8 116.8L130.8 116.8L121.5 116.8L121.5 116.8Q121.5 118.9 122.6 120.2Q123.7 121.4 125.6 121.4L125.6 121.4Q126.9 121.4 127.8 120.9Q128.7 120.4 129.6 119.2L129.6 119.2Q130.0 118.6 130.7 118.6L130.7 118.6Q131.3 118.6 131.6 119.0Q132.0 119.3 132.0 119.9L132.0 119.9Q132.0 120.3 131.8 120.8L131.8 120.8Q131.0 122.3 129.4 123.1Q127.8 124.0 125.6 124.0ZM121.5 114.5L121.5 114.5L129.2 114.5Q129.1 112.7 128.1 111.6Q127.1 110.5 125.4 110.5L125.4 110.5Q123.8 110.5 122.7 111.6Q121.6 112.7 121.5 114.5ZM140.5 124.0L140.5 124.0Q138.2 124.0 136.7 123.1Q135.1 122.3 134.5 120.8L134.5 120.8Q134.4 120.5 134.4 120.2L134.4 120.2Q134.4 119.6 134.7 119.2Q135.1 118.9 135.7 118.9L135.7 118.9Q136.5 118.9 137.1 119.7L137.1 119.7Q137.7 120.7 138.5 121.1Q139.3 121.5 140.6 121.5L140.6 121.5Q142.0 121.5 142.8 121.0Q143.7 120.4 143.7 119.5L143.7 119.5Q143.7 118.7 143.2 118.3Q142.6 117.8 141.4 117.5L141.4 117.5L139.0 117.0Q134.5 115.9 134.5 112.6L134.5 112.6Q134.5 110.5 136.2 109.2Q137.9 108.0 140.6 108.0L140.6 108.0Q142.7 108.0 144.2 108.9Q145.8 109.8 146.1 111.2L146.1 111.2Q146.2 111.6 146.2 111.7L146.2 111.7Q146.2 112.2 145.8 112.5Q145.5 112.9 144.9 112.9L144.9 112.9Q144.1 112.9 143.7 112.2L143.7 112.2Q143.1 111.3 142.4 110.8Q141.6 110.4 140.5 110.4L140.5 110.4Q139.2 110.4 138.4 111.0Q137.6 111.5 137.6 112.4L137.6 112.4Q137.6 113.9 140.0 114.5L140.0 114.5L142.4 115.0Q144.8 115.6 145.8 116.5Q146.9 117.5 146.9 119.2L146.9 119.2Q146.9 121.3 145.1 122.6Q143.3 124.0 140.5 124.0ZM155.1 123.9L155.1 123.9Q152.2 123.9 150.4 121.8Q148.6 119.6 148.6 116.0Q148.6 112.3 150.4 110.2Q152.1 108.0 155.1 108.0L155.1 108.0Q156.7 108.0 158.0 108.8Q159.2 109.5 159.9 110.8L159.9 110.8L160.0 110.8L160.0 103.9Q160.0 103.1 160.4 102.7Q160.8 102.2 161.6 102.2L161.6 102.2Q162.3 102.2 162.7 102.7Q163.1 103.2 163.1 103.9L163.1 103.9L163.1 122.4Q163.1 123.1 162.7 123.5Q162.3 123.9 161.6 123.9L161.6 123.9Q160.9 123.9 160.4 123.5Q160.0 123.1 160.0 122.4L160.0 122.4L160.0 120.9L159.9 120.9Q159.3 122.3 158.1 123.1Q156.8 123.9 155.1 123.9ZM155.9 121.2L155.9 121.2Q157.8 121.2 158.9 119.8Q160.0 118.4 160.0 116.0L160.0 116.0Q160.0 113.6 158.9 112.1Q157.8 110.7 155.9 110.7L155.9 110.7Q154.1 110.7 153.0 112.1Q151.9 113.5 151.9 116.0L151.9 116.0Q151.9 118.4 153.0 119.8Q154.1 121.2 155.9 121.2ZM170.9 123.9L170.9 123.9Q168.6 123.9 167.2 122.6Q165.7 121.3 165.7 119.3L165.7 119.3Q165.7 117.3 167.2 116.1Q168.7 114.9 171.5 114.7L171.5 114.7L175.7 114.5L175.7 113.3Q175.7 112.0 174.9 111.3Q174.1 110.6 172.6 110.6L172.6 110.6Q171.5 110.6 170.7 111.0Q169.9 111.5 169.2 112.5L169.2 112.5Q168.7 113.2 167.9 113.2L167.9 113.2Q167.3 113.2 166.9 112.8Q166.5 112.4 166.5 111.9L166.5 111.9Q166.5 111.3 166.8 110.8L166.8 110.8Q167.4 109.5 169.0 108.8Q170.6 108.0 172.7 108.0L172.7 108.0Q175.5 108.0 177.2 109.4Q178.9 110.7 178.9 113.0L178.9 113.0L178.9 122.3Q178.9 123.1 178.4 123.5Q178.0 123.9 177.3 123.9L177.3 123.9Q176.7 123.9 176.3 123.5Q175.8 123.1 175.8 122.4L175.8 122.4L175.8 121.1L175.7 121.1Q175.1 122.4 173.7 123.2Q172.4 123.9 170.9 123.9ZM171.7 121.4L171.7 121.4Q173.4 121.4 174.6 120.4Q175.7 119.4 175.7 117.9L175.7 117.9L175.7 116.7L171.9 116.9Q170.5 117.0 169.7 117.6Q168.9 118.2 168.9 119.2L168.9 119.2Q168.9 120.2 169.7 120.8Q170.5 121.4 171.7 121.4ZM183.8 129.4L183.8 129.4Q182.7 129.4 182.1 129.0Q181.5 128.6 181.5 127.9L181.5 127.9Q181.5 127.4 181.9 127.1Q182.2 126.8 182.8 126.8L182.8 126.8Q182.9 126.8 183.2 126.8Q183.4 126.8 183.6 126.8L183.6 126.8Q185.2 126.8 185.9 124.7L185.9 124.7L186.2 123.8L181.1 110.3Q180.9 109.9 180.9 109.4L180.9 109.4Q180.9 108.8 181.4 108.4Q181.8 108.0 182.5 108.0L182.5 108.0Q183.1 108.0 183.5 108.3Q183.8 108.5 184.0 109.2L184.0 109.2L188.0 120.8L188.0 120.8L191.9 109.2Q192.1 108.5 192.5 108.3Q192.9 108.0 193.5 108.0L193.5 108.0Q194.1 108.0 194.6 108.4Q195.0 108.8 195.0 109.4L195.0 109.4Q195.0 109.8 194.8 110.3L194.8 110.3L189.5 124.4Q188.5 127.2 187.2 128.3Q186.0 129.4 183.8 129.4ZM199.5 120.1L199.5 120.1Q200.1 120.1 200.5 120.5Q200.9 120.8 200.9 121.4L200.9 121.4Q200.9 121.8 200.8 122.3L200.8 122.3L199.6 127.3Q199.3 128.4 198.2 128.4L198.2 128.4Q197.6 128.4 197.3 128.1Q197.0 127.7 197.0 127.2L197.0 127.2Q197.0 127.1 197.0 126.8L197.0 126.8L198.0 121.4Q198.2 120.1 199.5 120.1Z M224.3 123.7L212.6 123.7Q211.9 123.7 211.5 123.3Q211.1 122.9 211.1 122.3L211.1 122.3Q211.1 121.8 211.3 121.5Q211.4 121.1 212.0 120.6L212.0 120.6L218.6 113.9Q220.7 111.8 221.3 110.7Q222.0 109.6 222.0 108.3L222.0 108.3Q222.0 106.8 221.0 105.8Q219.9 104.8 218.3 104.8L218.3 104.8Q215.2 104.8 214.1 108.0L214.1 108.0Q213.9 108.5 213.5 108.8Q213.2 109.0 212.6 109.0L212.6 109.0Q211.9 109.0 211.6 108.6Q211.2 108.3 211.2 107.6L211.2 107.6Q211.2 107.3 211.3 107.0L211.3 107.0Q211.4 106.1 212.0 105.3Q212.5 104.4 213.4 103.7Q214.3 103.0 215.6 102.6Q216.9 102.1 218.4 102.1L218.4 102.1Q221.4 102.1 223.3 103.8Q225.3 105.5 225.3 108.1L225.3 108.1Q225.3 109.9 224.3 111.5Q223.3 113.0 220.6 115.8L220.6 115.8L215.5 120.8L215.5 120.9L224.3 120.9Q225.0 120.9 225.4 121.3Q225.8 121.7 225.8 122.3L225.8 122.3Q225.8 122.9 225.4 123.3Q225.0 123.7 224.3 123.7L224.3 123.7ZM236.1 124.1L236.1 124.1Q233.7 124.1 231.8 123.0Q229.9 121.9 229.2 120.2L229.2 120.2Q228.8 119.5 228.8 118.8L228.8 118.8Q228.8 118.1 229.2 117.7Q229.6 117.3 230.3 117.3L230.3 117.3Q230.8 117.3 231.2 117.6Q231.5 117.8 231.8 118.4L231.8 118.4Q232.3 119.8 233.4 120.5Q234.5 121.3 236.1 121.3L236.1 121.3Q238.1 121.3 239.4 120.0Q240.6 118.8 240.6 116.8L240.6 116.8Q240.6 114.8 239.4 113.6Q238.1 112.4 236.1 112.4L236.1 112.4Q234.0 112.4 232.7 113.7L232.7 113.7Q232.0 114.5 231.6 114.6Q231.3 114.8 230.7 114.8L230.7 114.8Q229.9 114.8 229.5 114.4Q229.1 113.9 229.1 113.2L229.1 113.2L229.1 112.9L229.8 104.8Q229.9 103.6 230.5 103.0Q231.1 102.5 232.3 102.5L232.3 102.5L241.3 102.5Q242.0 102.5 242.4 102.9Q242.8 103.3 242.8 103.9Q242.8 104.5 242.4 104.9Q242.0 105.3 241.3 105.3L241.3 105.3L232.7 105.3L232.1 111.9L232.1 111.9Q232.8 110.9 234.1 110.3Q235.3 109.8 236.9 109.8L236.9 109.8Q239.9 109.8 241.9 111.7Q243.8 113.6 243.8 116.7L243.8 116.7Q243.8 120.0 241.7 122.0Q239.5 124.1 236.1 124.1Z M269.3 121.1Q266.6 124.0 262.0 124.0Q257.5 124.0 254.8 121.1Q252.1 118.1 252.1 113.1Q252.1 108.1 254.8 105.1Q257.5 102.2 262.0 102.2L262.0 102.2Q266.6 102.2 269.3 105.1Q271.9 108.1 271.9 113.1Q271.9 118.1 269.3 121.1ZM262.0 121.1L262.0 121.1Q265.0 121.1 266.8 119.0Q268.6 116.8 268.6 113.1L268.6 113.1Q268.6 109.4 266.8 107.2Q265.0 105.1 262.0 105.1L262.0 105.1Q259.0 105.1 257.2 107.2Q255.5 109.4 255.5 113.1L255.5 113.1Q255.5 116.8 257.2 119.0Q259.0 121.1 262.0 121.1ZM281.3 124.0L281.3 124.0Q277.9 124.0 276.0 121.8Q274.0 119.7 274.0 116.0L274.0 116.0Q274.0 112.3 276.0 110.2Q277.9 108.0 281.2 108.0L281.2 108.0Q283.4 108.0 285.2 109.0Q286.9 110.1 287.4 111.7L287.4 111.7Q287.6 112.1 287.6 112.4L287.6 112.4Q287.6 113.0 287.2 113.4Q286.8 113.7 286.2 113.7L286.2 113.7Q285.7 113.7 285.4 113.5Q285.1 113.3 284.8 112.8L284.8 112.8Q284.2 111.7 283.3 111.1Q282.5 110.6 281.3 110.6L281.3 110.6Q279.4 110.6 278.3 112.1Q277.2 113.5 277.2 116.0L277.2 116.0Q277.2 118.4 278.3 119.9Q279.4 121.3 281.3 121.3L281.3 121.3Q283.6 121.3 284.8 119.2L284.8 119.2Q285.1 118.6 285.4 118.4Q285.7 118.2 286.3 118.2L286.3 118.2Q286.8 118.2 287.2 118.6Q287.6 118.9 287.6 119.5L287.6 119.5Q287.6 119.9 287.4 120.3L287.4 120.3Q286.8 121.9 285.1 122.9Q283.4 124.0 281.3 124.0ZM291.1 120.0L291.1 120.0L291.1 110.8L290.0 110.8Q289.4 110.8 289.0 110.4Q288.7 110.1 288.7 109.5Q288.7 108.9 289.0 108.6Q289.4 108.3 290.0 108.3L290.0 108.3L291.1 108.3L291.1 106.0Q291.1 105.2 291.5 104.7Q292.0 104.3 292.7 104.3Q293.4 104.3 293.8 104.7Q294.3 105.2 294.3 106.0L294.3 106.0L294.3 108.3L296.1 108.3Q296.7 108.3 297.0 108.6Q297.4 108.9 297.4 109.5Q297.4 110.1 297.0 110.4Q296.7 110.8 296.1 110.8L296.1 110.8L294.3 110.8L294.3 119.3Q294.3 120.2 294.6 120.6Q295.0 121.1 295.8 121.1L295.8 121.1L296.1 121.2Q297.4 121.3 297.4 122.4L297.4 122.4Q297.4 123.8 295.2 123.8L295.2 123.8L295 123.8Q291.1 123.8 291.1 120.0ZM311.7 121.8Q309.7 124.0 306.4 124.0Q303.1 124.0 301.1 121.8Q299.1 119.7 299.1 116.0L299.1 116.0Q299.1 112.3 301.1 110.1Q303.1 108.0 306.4 108.0Q309.7 108.0 311.7 110.1Q313.7 112.3 313.7 116.0L313.7 116.0Q313.7 119.7 311.7 121.8ZM306.4 121.3L306.4 121.3Q308.3 121.3 309.4 119.9Q310.5 118.5 310.5 116.0L310.5 116.0Q310.5 113.4 309.4 112.0Q308.3 110.6 306.4 110.6Q304.5 110.6 303.4 112.0Q302.3 113.4 302.3 116.0L302.3 116.0Q302.3 118.5 303.4 119.9Q304.5 121.3 306.4 121.3ZM317.8 123.9L317.8 123.9Q317.1 123.9 316.7 123.5Q316.3 123.1 316.3 122.4L316.3 122.4L316.3 103.9Q316.3 103.2 316.7 102.7Q317.2 102.2 317.9 102.2Q318.6 102.2 319.0 102.7Q319.4 103.2 319.4 103.9L319.4 103.9L319.4 110.9L319.5 110.9Q320.2 109.5 321.5 108.8Q322.8 108.0 324.4 108.0L324.4 108.0Q327.3 108.0 329.1 110.2Q330.8 112.3 330.8 116.0L330.8 116.0Q330.8 119.6 329.1 121.8Q327.3 123.9 324.4 123.9L324.4 123.9Q322.7 123.9 321.4 123.2Q320.1 122.4 319.4 121.0L319.4 121.0L319.4 121.0L319.4 122.4Q319.4 123.1 318.9 123.5Q318.5 123.9 317.8 123.9ZM323.5 121.2L323.5 121.2Q325.4 121.2 326.5 119.8Q327.6 118.4 327.6 116.0L327.6 116.0Q327.6 113.5 326.5 112.1Q325.4 110.7 323.5 110.7L323.5 110.7Q321.7 110.7 320.6 112.1Q319.4 113.6 319.4 116.0L319.4 116.0Q319.4 118.3 320.6 119.8Q321.7 121.2 323.5 121.2ZM339.9 124.0L339.9 124.0Q336.5 124.0 334.5 121.9Q332.6 119.8 332.6 116.0L332.6 116.0Q332.6 112.4 334.5 110.2Q336.5 108.0 339.7 108.0L339.7 108.0Q342.8 108.0 344.7 110.0Q346.7 112.0 346.7 115.1L346.7 115.1Q346.7 115.9 346.2 116.3Q345.8 116.8 345.1 116.8L345.1 116.8L335.8 116.8L335.8 116.8Q335.8 118.9 336.9 120.2Q338.0 121.4 339.9 121.4L339.9 121.4Q341.2 121.4 342.1 120.9Q343.0 120.4 343.9 119.2L343.9 119.2Q344.3 118.6 345.0 118.6L345.0 118.6Q345.6 118.6 345.9 119.0Q346.3 119.3 346.3 119.9L346.3 119.9Q346.3 120.3 346.1 120.8L346.1 120.8Q345.3 122.3 343.7 123.1Q342.1 124.0 339.9 124.0ZM335.8 114.5L335.8 114.5L343.5 114.5Q343.4 112.7 342.4 111.6Q341.4 110.5 339.7 110.5L339.7 110.5Q338.1 110.5 337.0 111.6Q335.9 112.7 335.8 114.5ZM350.7 123.9L350.7 123.9Q350.0 123.9 349.5 123.5Q349.1 123.0 349.1 122.3L349.1 122.3L349.1 109.6Q349.1 108.9 349.5 108.4Q349.9 108.0 350.6 108.0L350.6 108.0Q351.3 108.0 351.7 108.4Q352.1 108.9 352.1 109.6L352.1 109.6L352.1 110.9L352.2 110.9Q352.5 109.6 353.4 108.8Q354.4 108.0 355.6 108.0L355.6 108.0Q356.4 108.0 356.8 108.4L356.8 108.4Q357.2 108.7 357.2 109.5L357.2 109.5Q357.2 110.2 356.8 110.6L356.8 110.6Q356.3 111.0 355.3 111.0L355.3 111.0Q353.8 111.0 353.0 112.0Q352.3 112.9 352.3 114.4L352.3 114.4L352.3 122.3Q352.3 123.0 351.8 123.5Q351.4 123.9 350.7 123.9Z M378.3 123.7L366.6 123.7Q365.9 123.7 365.4 123.3Q365.0 122.9 365.0 122.3L365.0 122.3Q365.0 121.8 365.2 121.5Q365.4 121.1 365.9 120.6L365.9 120.6L372.5 113.9Q374.6 111.8 375.3 110.7Q376.0 109.6 376.0 108.3L376.0 108.3Q376.0 106.8 374.9 105.8Q373.9 104.8 372.3 104.8L372.3 104.8Q369.2 104.8 368.1 108.0L368.1 108.0Q367.8 108.5 367.5 108.8Q367.1 109.0 366.6 109.0L366.6 109.0Q365.9 109.0 365.5 108.6Q365.1 108.3 365.1 107.6L365.1 107.6Q365.1 107.3 365.2 107.0L365.2 107.0Q365.4 106.1 365.9 105.3Q366.5 104.4 367.3 103.7Q368.2 103.0 369.5 102.6Q370.8 102.1 372.3 102.1L372.3 102.1Q375.3 102.1 377.3 103.8Q379.2 105.5 379.2 108.1L379.2 108.1Q379.2 109.9 378.2 111.5Q377.3 113.0 374.5 115.8L374.5 115.8L369.5 120.8L369.5 120.9L378.3 120.9Q378.9 120.9 379.3 121.3Q379.7 121.7 379.7 122.3L379.7 122.3Q379.7 122.9 379.3 123.3Q378.9 123.7 378.3 123.7L378.3 123.7ZM396.1 121.1Q394.0 124.1 390.2 124.1Q386.4 124.1 384.3 121.1Q382.1 118.2 382.1 113.1L382.1 113.1Q382.1 108.0 384.3 105.1Q386.4 102.1 390.2 102.1L390.2 102.1Q394.0 102.1 396.1 105.1Q398.3 108.0 398.3 113.1L398.3 113.1Q398.3 118.1 396.1 121.1ZM390.2 121.3L390.2 121.3Q392.5 121.3 393.7 119.1Q395.0 116.9 395.0 113.1L395.0 113.1Q395.0 109.3 393.7 107.1Q392.5 104.9 390.2 104.9Q387.9 104.9 386.7 107.1Q385.4 109.3 385.4 113.1L385.4 113.1Q385.4 116.9 386.7 119.1Q387.9 121.3 390.2 121.3ZM414.4 123.7L402.7 123.7Q401.9 123.7 401.5 123.3Q401.1 122.9 401.1 122.3L401.1 122.3Q401.1 121.8 401.3 121.5Q401.5 121.1 402.0 120.6L402.0 120.6L408.6 113.9Q410.7 111.8 411.4 110.7Q412.1 109.6 412.1 108.3L412.1 108.3Q412.1 106.8 411.0 105.8Q410.0 104.8 408.4 104.8L408.4 104.8Q405.3 104.8 404.1 108.0L404.1 108.0Q403.9 108.5 403.6 108.8Q403.2 109.0 402.7 109.0L402.7 109.0Q402.0 109.0 401.6 108.6Q401.2 108.3 401.2 107.6L401.2 107.6Q401.2 107.3 401.3 107.0L401.3 107.0Q401.5 106.1 402.0 105.3Q402.6 104.4 403.4 103.7Q404.3 103.0 405.6 102.6Q406.9 102.1 408.4 102.1L408.4 102.1Q411.4 102.1 413.4 103.8Q415.3 105.5 415.3 108.1L415.3 108.1Q415.3 109.9 414.3 111.5Q413.3 113.0 410.6 115.8L410.6 115.8L405.6 120.8L405.6 120.9L414.4 120.9Q415.0 120.9 415.4 121.3Q415.8 121.7 415.8 122.3L415.8 122.3Q415.8 122.9 415.4 123.3Q415.0 123.7 414.4 123.7L414.4 123.7ZM425.9 124.1L425.9 124.1Q423.4 124.1 421.6 123.1Q419.8 122.2 418.9 120.6L418.9 120.6Q418.5 119.8 418.5 119.0L418.5 119.0Q418.5 118.3 418.9 117.9Q419.3 117.5 420.0 117.5L420.0 117.5Q420.5 117.5 420.9 117.8Q421.2 118.1 421.4 118.6L421.4 118.6Q422.6 121.3 426.0 121.3L426.0 121.3Q427.9 121.3 429.1 120.3Q430.2 119.4 430.3 117.8L430.3 117.8Q430.3 116.0 429.1 115.0Q427.8 114.0 425.7 114.0L425.7 114.0L424.3 114.0Q423.7 114.0 423.3 113.7Q422.9 113.3 422.9 112.8Q422.9 112.2 423.3 111.8Q423.7 111.5 424.3 111.5L424.3 111.5L425.6 111.5Q427.4 111.5 428.5 110.5Q429.7 109.6 429.7 108.1L429.7 108.1Q429.7 106.6 428.7 105.7Q427.7 104.8 425.9 104.8L425.9 104.8Q424.3 104.8 423.4 105.5Q422.4 106.1 421.8 107.5L421.8 107.5Q421.6 108.1 421.3 108.4Q420.9 108.6 420.4 108.6L420.4 108.6Q419.7 108.6 419.3 108.3Q418.9 107.9 418.9 107.2L418.9 107.2Q418.9 106.4 419.3 105.6L419.3 105.6Q420.2 104.0 421.9 103.1Q423.6 102.1 425.9 102.1L425.9 102.1Q429.1 102.1 431.0 103.7Q432.9 105.2 432.9 107.6L432.9 107.6Q432.9 109.6 431.6 110.9Q430.4 112.2 428.4 112.6L428.4 112.6L428.4 112.7Q430.8 112.9 432.2 114.3Q433.6 115.6 433.6 117.8L433.6 117.8Q433.6 120.6 431.4 122.3Q429.3 124.1 425.9 124.1Z "/><mask id="satori_om-id-0-0-1"><rect x="40" y="176" width="1120" height="165" fill="#fff"/></mask><path fill="#224d67" d="M47.5 239.1L47.5 239.1Q45.7 239.1 44.7 238.0Q43.7 237.0 43.7 235.2L43.7 235.2L43.7 199.7Q43.7 197.9 44.7 196.8Q45.7 195.8 47.5 195.8L47.5 195.8Q49.3 195.8 50.3 196.8Q51.3 197.9 51.3 199.7L51.3 199.7L51.3 235.2Q51.3 237.0 50.3 238.1Q49.3 239.1 47.5 239.1ZM64.3 238.2Q63.3 239.2 61.6 239.2Q60.0 239.2 59.0 238.2Q58.0 237.1 58.0 235.3L58.0 235.3L58.0 210.6Q58.0 208.9 58.9 207.9Q59.9 206.9 61.5 206.9Q63.1 206.9 64.1 207.9Q65.1 208.9 65.1 210.6L65.1 210.6L65.1 212.8L65.2 212.8Q67.9 206.9 74.9 206.9L74.9 206.9Q80.0 206.9 82.8 210.0Q85.6 213.1 85.6 218.5L85.6 218.5L85.6 235.3Q85.6 237.1 84.6 238.2Q83.7 239.2 82.0 239.2Q80.4 239.2 79.4 238.2Q78.3 237.1 78.3 235.3L78.3 235.3L78.3 220.0Q78.3 216.6 76.8 214.9Q75.2 213.1 72.1 213.1L72.1 213.1Q69.0 213.1 67.1 215.2Q65.3 217.2 65.3 220.6L65.3 220.6L65.3 235.3Q65.3 237.1 64.3 238.2ZM93.5 230.9L93.5 230.9L93.5 213.1L91.5 213.1Q90.2 213.1 89.4 212.4Q88.6 211.6 88.6 210.3L88.6 210.3Q88.6 209.0 89.4 208.3Q90.2 207.5 91.5 207.5L91.5 207.5L93.5 207.5L93.5 203.4Q93.5 201.6 94.5 200.6Q95.5 199.6 97.2 199.6L97.2 199.6Q98.8 199.6 99.8 200.6Q100.8 201.6 100.8 203.4L100.8 203.4L100.8 207.5L104.2 207.5Q105.5 207.5 106.3 208.3Q107.1 209.0 107.1 210.3L107.1 210.3Q107.1 211.6 106.3 212.4Q105.5 213.1 104.2 213.1L104.2 213.1L100.8 213.1L100.8 229.3Q100.8 231.1 101.5 231.9Q102.1 232.7 103.7 232.9L103.7 232.9L104.2 232.9Q107.2 233.2 107.2 235.6L107.2 235.6Q107.2 237.2 105.8 238.1Q104.5 238.9 102.0 238.9L102.0 238.9L101.7 238.9Q93.5 238.9 93.5 230.9ZM125.4 239.2L125.4 239.2Q118.3 239.2 114.3 235.0Q110.3 230.7 110.3 223.2L110.3 223.2Q110.3 215.7 114.3 211.3Q118.3 206.9 125.0 206.9L125.0 206.9Q131.3 206.9 135.3 210.9Q139.3 215.0 139.3 221.4L139.3 221.4Q139.3 223.0 138.4 223.9Q137.5 224.8 135.9 224.8L135.9 224.8L117.6 224.8L117.6 225.0Q117.6 228.9 119.7 231.3Q121.8 233.6 125.3 233.6L125.3 233.6Q127.8 233.6 129.6 232.6Q131.3 231.7 133.1 229.4L133.1 229.4Q134.2 228.3 135.6 228.3L135.6 228.3Q136.8 228.3 137.7 229.0Q138.5 229.8 138.5 231.1L138.5 231.1Q138.5 231.9 138.0 232.9L138.0 232.9Q136.4 235.9 133.1 237.5Q129.8 239.2 125.4 239.2ZM117.6 220.0L117.6 220.0L132.1 220.0Q132.0 216.6 130.1 214.6Q128.1 212.5 125.0 212.5Q121.9 212.5 119.9 214.6Q117.8 216.7 117.6 220.0ZM150.3 238.1Q149.3 239.2 147.6 239.2Q145.9 239.2 145.0 238.1Q144.0 237.1 144.0 235.3L144.0 235.3L144.0 210.6Q144.0 208.9 144.9 207.9Q145.9 206.9 147.5 206.9L147.5 206.9Q149.0 206.9 150.0 207.9Q150.9 208.9 150.9 210.6L150.9 210.6L150.9 213.0L151.1 213.0Q151.7 210.3 153.5 208.6Q155.4 207.0 157.7 207.0L157.7 207.0Q159.4 207.0 160.3 207.8L160.3 207.8Q161.3 208.6 161.3 210.4L161.3 210.4Q161.3 212.1 160.2 213.0L160.2 213.0Q159.2 213.9 157.0 214.0L157.0 214.0Q151.3 214.0 151.3 220.4L151.3 220.4L151.3 235.3Q151.3 237.1 150.3 238.1ZM172.9 238.2Q172.0 239.2 170.3 239.2Q168.6 239.2 167.6 238.2Q166.6 237.2 166.6 235.4L166.6 235.4L166.6 213.1L164.7 213.1Q163.4 213.1 162.7 212.4Q161.9 211.7 161.9 210.4L161.9 210.4Q161.9 209.1 162.7 208.4Q163.4 207.6 164.7 207.6L164.7 207.6L166.6 207.6L166.6 204.9Q166.6 196.0 175.2 196.0L175.2 196.0Q178.0 196.0 179.4 196.8Q180.8 197.6 180.8 199.0L180.8 199.0Q180.8 200.7 179.2 201.1L179.2 201.1Q178.5 201.3 177.5 201.3L177.5 201.3Q175.6 201.4 174.7 202.3Q173.8 203.2 173.8 205.2L173.8 205.2L173.8 207.6L177.7 207.6Q179.0 207.6 179.7 208.4Q180.5 209.1 180.5 210.4L180.5 210.4Q180.5 211.7 179.7 212.4Q179.0 213.1 177.7 213.1L177.7 213.1L173.9 213.1L173.9 235.4Q173.9 237.2 172.9 238.2ZM193.9 239.1L193.9 239.1Q189.4 239.1 186.5 236.5Q183.6 233.9 183.6 229.7L183.6 229.7Q183.6 225.6 186.6 223.2Q189.7 220.8 195.4 220.4L195.4 220.4L203.6 219.9L203.6 217.7Q203.6 215.3 202.1 213.9Q200.5 212.6 197.8 212.6L197.8 212.6Q195.6 212.6 194.1 213.4Q192.6 214.2 191.3 216.2L191.3 216.2Q190.2 217.7 188.3 217.7L188.3 217.7Q187.0 217.7 186.1 216.9Q185.3 216.1 185.3 214.8L185.3 214.8Q185.3 213.8 185.8 212.8L185.8 212.8Q186.9 210.1 190.3 208.5Q193.6 206.9 198.1 206.9L198.1 206.9Q203.9 206.9 207.3 209.7Q210.8 212.5 210.8 217.2L210.8 217.2L210.8 235.5Q210.8 237.2 209.8 238.2Q208.8 239.2 207.3 239.2L207.3 239.2Q205.7 239.2 204.8 238.3Q203.9 237.4 203.8 235.8L203.8 235.8L203.8 233.6L203.6 233.6Q202.3 236.1 199.6 237.6Q197.0 239.1 193.9 239.1ZM196.2 233.6L196.2 233.6Q199.3 233.6 201.4 231.7Q203.6 229.8 203.6 227.1L203.6 227.1L203.6 224.7L196.4 225.1Q193.8 225.3 192.3 226.4Q190.8 227.6 190.8 229.4L190.8 229.4Q190.8 231.3 192.3 232.4Q193.8 233.6 196.2 233.6ZM230.3 239.2L230.3 239.2Q223.5 239.2 219.4 234.9Q215.4 230.5 215.4 223.1L215.4 223.1Q215.4 215.7 219.4 211.3Q223.5 206.9 230.3 206.9L230.3 206.9Q234.8 206.9 238.4 209.0Q241.9 211.1 243.0 214.4L243.0 214.4Q243.4 215.4 243.4 216.1L243.4 216.1Q243.4 217.5 242.5 218.3Q241.6 219.1 240.3 219.1L240.3 219.1Q239.2 219.1 238.5 218.6Q237.7 218.1 237.1 217.0L237.1 217.0Q234.8 212.8 230.5 212.8L230.5 212.8Q226.9 212.8 224.9 215.6Q222.8 218.3 222.8 223.1L222.8 223.1Q222.8 227.9 224.8 230.6Q226.9 233.3 230.4 233.3L230.4 233.3Q234.8 233.3 237.1 229.3L237.1 229.3Q237.8 228.1 238.5 227.6Q239.2 227.1 240.4 227.1L240.4 227.1Q241.7 227.1 242.6 227.9Q243.5 228.7 243.5 230.1L243.5 230.1Q243.5 230.9 243.1 231.9L243.1 231.9Q241.7 235.1 238.2 237.2Q234.7 239.2 230.3 239.2ZM262.2 239.2L262.2 239.2Q255.1 239.2 251.1 235.0Q247.1 230.7 247.1 223.2L247.1 223.2Q247.1 215.7 251.1 211.3Q255.1 206.9 261.8 206.9L261.8 206.9Q268.1 206.9 272.1 210.9Q276.1 215.0 276.1 221.4L276.1 221.4Q276.1 223.0 275.2 223.9Q274.3 224.8 272.7 224.8L272.7 224.8L254.4 224.8L254.4 225.0Q254.4 228.9 256.5 231.3Q258.6 233.6 262.1 233.6L262.1 233.6Q264.6 233.6 266.4 232.6Q268.1 231.7 269.9 229.4L269.9 229.4Q270.9 228.3 272.4 228.3L272.4 228.3Q273.6 228.3 274.4 229.0Q275.3 229.8 275.3 231.1L275.3 231.1Q275.3 231.9 274.8 232.9L274.8 232.9Q273.2 235.9 269.9 237.5Q266.6 239.2 262.2 239.2ZM254.4 220.0L254.4 220.0L268.9 220.0Q268.8 216.6 266.8 214.6Q264.9 212.5 261.8 212.5Q258.7 212.5 256.7 214.6Q254.6 216.7 254.4 220.0Z M308.9 238.6L297.3 238.6Q295.5 238.6 294.5 237.5Q293.5 236.5 293.5 234.7L293.5 234.7L293.5 200.2Q293.5 198.4 294.5 197.3Q295.5 196.3 297.3 196.3L297.3 196.3L308.9 196.3Q318.4 196.3 323.7 201.8Q329.0 207.3 329.0 217.3L329.0 217.3Q329.0 227.4 323.7 233.0Q318.4 238.6 308.9 238.6L308.9 238.6ZM301.1 202.7L301.1 232.2L308.2 232.2Q314.5 232.2 317.9 228.4Q321.3 224.6 321.3 217.4L321.3 217.4Q321.3 210.3 317.9 206.5Q314.5 202.7 308.2 202.7L308.2 202.7L301.1 202.7ZM348.1 239.2L348.1 239.2Q341.0 239.2 337.0 235.0Q333.0 230.7 333.0 223.2L333.0 223.2Q333.0 215.7 337.0 211.3Q341.0 206.9 347.7 206.9L347.7 206.9Q354.0 206.9 358.0 210.9Q362.0 215.0 362.0 221.4L362.0 221.4Q362.0 223.0 361.1 223.9Q360.2 224.8 358.6 224.8L358.6 224.8L340.3 224.8L340.3 225.0Q340.3 228.9 342.4 231.3Q344.5 233.6 348.0 233.6L348.0 233.6Q350.5 233.6 352.3 232.6Q354.0 231.7 355.8 229.4L355.8 229.4Q356.8 228.3 358.3 228.3L358.3 228.3Q359.5 228.3 360.3 229.0Q361.2 229.8 361.2 231.1L361.2 231.1Q361.2 231.9 360.7 232.9L360.7 232.9Q359.1 235.9 355.8 237.5Q352.5 239.2 348.1 239.2ZM340.3 220.0L340.3 220.0L354.8 220.0Q354.7 216.6 352.7 214.6Q350.8 212.5 347.7 212.5Q344.6 212.5 342.6 214.6Q340.5 216.7 340.3 220.0ZM378.6 239.2L378.6 239.2Q373.8 239.2 370.5 237.5Q367.1 235.8 366.0 233.0L366.0 233.0Q365.7 232.2 365.7 231.5L365.7 231.5Q365.7 230.2 366.5 229.4Q367.4 228.6 368.7 228.6L368.7 228.6Q370.6 228.6 371.9 230.4L371.9 230.4Q373.2 232.3 374.8 233.1Q376.4 233.9 378.9 233.9L378.9 233.9Q381.5 233.9 383.0 232.9Q384.6 231.8 384.6 230.1L384.6 230.1Q384.6 228.7 383.6 227.8Q382.6 227.0 380.2 226.4L380.2 226.4L375.2 225.3Q366.1 223.3 366.1 216.4L366.1 216.4Q366.1 212.1 369.6 209.5Q373.0 206.9 378.8 206.9L378.8 206.9Q383.2 206.9 386.4 208.8Q389.6 210.6 390.3 213.4L390.3 213.4Q390.5 214.0 390.5 214.5L390.5 214.5Q390.5 215.6 389.7 216.4Q389.0 217.1 387.7 217.1L387.7 217.1Q385.8 217.1 384.9 215.7L384.9 215.7Q383.7 214.0 382.3 213.1Q380.8 212.2 378.6 212.2L378.6 212.2Q376.2 212.2 374.7 213.3Q373.2 214.3 373.2 216.0L373.2 216.0Q373.2 218.8 377.8 219.8L377.8 219.8L382.7 220.9Q387.6 222.0 389.8 223.9Q391.9 225.9 391.9 229.3L391.9 229.3Q391.9 233.8 388.2 236.5Q384.6 239.2 378.6 239.2ZM403.2 202.0Q402.0 203.2 400.3 203.2Q398.6 203.2 397.4 202.0Q396.3 200.8 396.3 199.2L396.3 199.2Q396.3 197.5 397.4 196.4Q398.6 195.2 400.3 195.2L400.3 195.2Q402.0 195.2 403.2 196.4Q404.4 197.5 404.4 199.2L404.4 199.2Q404.4 200.8 403.2 202.0ZM403.0 238.1Q402.0 239.2 400.3 239.2Q398.6 239.2 397.6 238.1Q396.7 237.1 396.7 235.3L396.7 235.3L396.7 210.7Q396.7 209.0 397.6 207.9Q398.6 206.9 400.3 206.9Q402.0 206.9 403.0 207.9Q404.0 209.0 404.0 210.8L404.0 210.8L404.0 235.3Q404.0 237.1 403.0 238.1ZM423.5 250.3L423.5 250.3Q419.1 250.2 415.8 248.7Q412.5 247.2 410.9 244.6L410.9 244.6Q410.3 243.6 410.3 242.4L410.3 242.4Q410.3 241.2 411.1 240.4Q411.9 239.6 413.3 239.6L413.3 239.6Q414.7 239.6 416.0 240.8L416.0 240.8Q417.8 242.7 419.6 243.6Q421.4 244.4 423.5 244.5L423.5 244.5Q427.2 244.5 429.3 242.6Q431.4 240.7 431.4 237.6L431.4 237.6L431.4 232.7L431.3 232.7Q430.1 235.2 427.5 236.7Q424.8 238.3 421.6 238.3L421.6 238.3Q415.7 238.3 412.2 234.0Q408.8 229.8 408.8 222.7L408.8 222.7Q408.8 215.4 412.2 211.2Q415.7 207.0 421.7 207.0L421.7 207.0Q425.0 207.0 427.5 208.5Q430.0 210.1 431.3 212.8L431.3 212.8L431.5 212.8L431.5 210.6Q431.5 208.9 432.5 207.9Q433.5 206.9 435.1 206.9Q436.7 206.9 437.7 207.9Q438.8 208.9 438.8 210.6L438.8 210.6L438.8 237.6Q438.8 243.5 434.7 246.9Q430.6 250.3 423.5 250.3ZM423.8 232.6L423.8 232.6Q427.3 232.6 429.4 229.9Q431.5 227.3 431.5 222.7L431.5 222.7Q431.5 218.2 429.4 215.5Q427.3 212.8 423.8 212.8L423.8 212.8Q420.3 212.8 418.3 215.5Q416.3 218.2 416.3 222.7L416.3 222.7Q416.3 227.3 418.3 230.0Q420.3 232.6 423.8 232.6ZM451.0 238.2Q450.0 239.2 448.3 239.2Q446.7 239.2 445.7 238.2Q444.7 237.1 444.7 235.3L444.7 235.3L444.7 210.6Q444.7 208.9 445.6 207.9Q446.6 206.9 448.2 206.9Q449.8 206.9 450.8 207.9Q451.8 208.9 451.8 210.6L451.8 210.6L451.8 212.8L451.9 212.8Q454.6 206.9 461.6 206.9L461.6 206.9Q466.7 206.9 469.5 210.0Q472.4 213.1 472.4 218.5L472.4 218.5L472.4 235.3Q472.4 237.1 471.4 238.2Q470.4 239.2 468.7 239.2Q467.1 239.2 466.1 238.2Q465.1 237.1 465.1 235.3L465.1 235.3L465.1 220.0Q465.1 216.6 463.5 214.9Q461.9 213.1 458.9 213.1L458.9 213.1Q455.7 213.1 453.9 215.2Q452.0 217.2 452.0 220.6L452.0 220.6L452.0 235.3Q452.0 237.1 451.0 238.2Z M498.5 238.2Q497.6 239.2 495.9 239.2Q494.2 239.2 493.2 238.2Q492.2 237.2 492.2 235.4L492.2 235.4L492.2 213.1L490.3 213.1Q489.0 213.1 488.3 212.4Q487.5 211.7 487.5 210.4L487.5 210.4Q487.5 209.1 488.3 208.4Q489.0 207.6 490.3 207.6L490.3 207.6L492.2 207.6L492.2 204.9Q492.2 196.0 500.8 196.0L500.8 196.0Q503.6 196.0 505.0 196.8Q506.4 197.6 506.4 199.0L506.4 199.0Q506.4 200.7 504.8 201.1L504.8 201.1Q504.1 201.3 503.2 201.3L503.2 201.3Q501.2 201.4 500.3 202.3Q499.4 203.2 499.4 205.2L499.4 205.2L499.4 207.6L503.3 207.6Q504.6 207.6 505.3 208.4Q506.1 209.1 506.1 210.4L506.1 210.4Q506.1 211.7 505.3 212.4Q504.6 213.1 503.3 213.1L503.3 213.1L499.5 213.1L499.5 235.4Q499.5 237.2 498.5 238.2ZM535.1 234.9Q531.0 239.2 524.2 239.2Q517.3 239.2 513.2 234.9Q509.1 230.6 509.1 223.1L509.1 223.1Q509.1 215.6 513.2 211.2Q517.3 206.9 524.2 206.9L524.2 206.9Q531.0 206.9 535.1 211.2Q539.2 215.6 539.2 223.1L539.2 223.1Q539.2 230.6 535.1 234.9ZM518.6 230.7Q520.6 233.4 524.2 233.4Q527.7 233.4 529.7 230.7Q531.8 228.0 531.8 223.1L531.8 223.1Q531.8 218.2 529.7 215.4Q527.7 212.7 524.2 212.7L524.2 212.7Q520.7 212.7 518.6 215.4Q516.5 218.2 516.5 223.1L516.5 223.1Q516.5 228.0 518.6 230.7ZM550.2 238.1Q549.2 239.2 547.5 239.2Q545.8 239.2 544.9 238.1Q543.9 237.1 543.9 235.3L543.9 235.3L543.9 210.6Q543.9 208.9 544.8 207.9Q545.8 206.9 547.4 206.9L547.4 206.9Q548.9 206.9 549.9 207.9Q550.8 208.9 550.8 210.6L550.8 210.6L550.8 213.0L551.0 213.0Q551.6 210.3 553.4 208.6Q555.3 207.0 557.6 207.0L557.6 207.0Q559.3 207.0 560.2 207.8L560.2 207.8Q561.2 208.6 561.2 210.4L561.2 210.4Q561.2 212.1 560.1 213.0L560.1 213.0Q559.1 213.9 556.9 214.0L556.9 214.0Q551.2 214.0 551.2 220.4L551.2 220.4L551.2 235.3Q551.2 237.1 550.2 238.1Z M601.0 238.6L581.0 238.6Q579.3 238.6 578.3 237.5Q577.2 236.5 577.2 234.7L577.2 234.7L577.2 199.7Q577.2 197.9 578.3 196.8Q579.3 195.8 581.0 195.8L581.0 195.8Q582.8 195.8 583.8 196.8Q584.8 197.9 584.8 199.7L584.8 199.7L584.8 232.2L601.0 232.2Q602.6 232.2 603.5 233.1Q604.5 233.9 604.5 235.4Q604.5 236.8 603.5 237.7Q602.6 238.6 601.0 238.6L601.0 238.6ZM622.5 239.2L622.5 239.2Q615.4 239.2 611.4 235.0Q607.4 230.7 607.4 223.2L607.4 223.2Q607.4 215.7 611.4 211.3Q615.4 206.9 622.1 206.9L622.1 206.9Q628.4 206.9 632.4 210.9Q636.4 215.0 636.4 221.4L636.4 221.4Q636.4 223.0 635.5 223.9Q634.6 224.8 633.0 224.8L633.0 224.8L614.7 224.8L614.7 225.0Q614.7 228.9 616.8 231.3Q618.9 233.6 622.4 233.6L622.4 233.6Q624.9 233.6 626.7 232.6Q628.4 231.7 630.2 229.4L630.2 229.4Q631.2 228.3 632.6 228.3L632.6 228.3Q633.9 228.3 634.7 229.0Q635.6 229.8 635.6 231.1L635.6 231.1Q635.6 231.9 635.1 232.9L635.1 232.9Q633.5 235.9 630.2 237.5Q626.9 239.2 622.5 239.2ZM614.7 220.0L614.7 220.0L629.2 220.0Q629.1 216.6 627.1 214.6Q625.2 212.5 622.1 212.5Q619.0 212.5 617.0 214.6Q614.9 216.7 614.7 220.0ZM650.2 239.1L650.2 239.1Q645.6 239.1 642.7 236.5Q639.8 233.9 639.8 229.7L639.8 229.7Q639.8 225.6 642.9 223.2Q645.9 220.8 651.6 220.4L651.6 220.4L659.8 219.9L659.8 217.7Q659.8 215.3 658.3 213.9Q656.8 212.6 654.0 212.6L654.0 212.6Q651.9 212.6 650.4 213.4Q648.9 214.2 647.5 216.2L647.5 216.2Q646.4 217.7 644.6 217.7L644.6 217.7Q643.2 217.7 642.4 216.9Q641.5 216.1 641.5 214.8L641.5 214.8Q641.5 213.8 642.0 212.8L642.0 212.8Q643.2 210.1 646.5 208.5Q649.9 206.9 654.3 206.9L654.3 206.9Q660.1 206.9 663.6 209.7Q667.0 212.5 667.0 217.2L667.0 217.2L667.0 235.5Q667.0 237.2 666.1 238.2Q665.1 239.2 663.5 239.2L663.5 239.2Q662.0 239.2 661.0 238.3Q660.1 237.4 660.0 235.8L660.0 235.8L660.0 233.6L659.9 233.6Q658.5 236.1 655.9 237.6Q653.2 239.1 650.2 239.1ZM652.4 233.6L652.4 233.6Q655.5 233.6 657.7 231.7Q659.8 229.8 659.8 227.1L659.8 227.1L659.8 224.7L652.6 225.1Q650.0 225.3 648.5 226.4Q647.1 227.6 647.1 229.4L647.1 229.4Q647.1 231.3 648.5 232.4Q650.0 233.6 652.4 233.6ZM679.2 238.1Q678.2 239.2 676.5 239.2Q674.9 239.2 673.9 238.1Q672.9 237.1 672.9 235.3L672.9 235.3L672.9 210.6Q672.9 208.9 673.9 207.9Q674.8 206.9 676.4 206.9L676.4 206.9Q677.9 206.9 678.9 207.9Q679.8 208.9 679.8 210.6L679.8 210.6L679.8 213.0L680.0 213.0Q680.6 210.3 682.5 208.6Q684.3 207.0 686.6 207.0L686.6 207.0Q688.3 207.0 689.2 207.8L689.2 207.8Q690.2 208.6 690.2 210.4L690.2 210.4Q690.2 212.1 689.2 213.0L689.2 213.0Q688.1 213.9 685.9 214.0L685.9 214.0Q680.2 214.0 680.2 220.4L680.2 220.4L680.2 235.3Q680.2 237.1 679.2 238.1ZM699.8 238.2Q698.8 239.2 697.2 239.2Q695.5 239.2 694.5 238.2Q693.5 237.1 693.5 235.3L693.5 235.3L693.5 210.6Q693.5 208.9 694.5 207.9Q695.4 206.9 697.0 206.9Q698.6 206.9 699.6 207.9Q700.6 208.9 700.6 210.6L700.6 210.6L700.6 212.8L700.8 212.8Q703.4 206.9 710.4 206.9L710.4 206.9Q715.5 206.9 718.4 210.0Q721.2 213.1 721.2 218.5L721.2 218.5L721.2 235.3Q721.2 237.1 720.2 238.2Q719.2 239.2 717.5 239.2Q715.9 239.2 714.9 238.2Q713.9 237.1 713.9 235.3L713.9 235.3L713.9 220.0Q713.9 216.6 712.3 214.9Q710.8 213.1 707.7 213.1L707.7 213.1Q704.5 213.1 702.7 215.2Q700.8 217.2 700.8 220.6L700.8 220.6L700.8 235.3Q700.8 237.1 699.8 238.2ZM733.7 202.0Q732.5 203.2 730.8 203.2Q729.1 203.2 727.9 202.0Q726.8 200.8 726.8 199.2L726.8 199.2Q726.8 197.5 727.9 196.4Q729.1 195.2 730.8 195.2L730.8 195.2Q732.5 195.2 733.7 196.4Q734.9 197.5 734.9 199.2L734.9 199.2Q734.9 200.8 733.7 202.0ZM733.5 238.1Q732.5 239.2 730.8 239.2Q729.2 239.2 728.2 238.1Q727.2 237.1 727.2 235.3L727.2 235.3L727.2 210.7Q727.2 209.0 728.2 207.9Q729.2 206.9 730.8 206.9Q732.5 206.9 733.5 207.9Q734.5 209.0 734.5 210.8L734.5 210.8L734.5 235.3Q734.5 237.1 733.5 238.1ZM746.9 238.2Q745.9 239.2 744.2 239.2Q742.6 239.2 741.6 238.2Q740.6 237.1 740.6 235.3L740.6 235.3L740.6 210.6Q740.6 208.9 741.5 207.9Q742.5 206.9 744.1 206.9Q745.7 206.9 746.7 207.9Q747.7 208.9 747.7 210.6L747.7 210.6L747.7 212.8L747.8 212.8Q750.5 206.9 757.5 206.9L757.5 206.9Q762.6 206.9 765.4 210.0Q768.3 213.1 768.3 218.5L768.3 218.5L768.3 235.3Q768.3 237.1 767.3 238.2Q766.3 239.2 764.6 239.2Q763.0 239.2 762.0 238.2Q761.0 237.1 761.0 235.3L761.0 235.3L761.0 220.0Q761.0 216.6 759.4 214.9Q757.8 213.1 754.8 213.1L754.8 213.1Q751.6 213.1 749.8 215.2Q747.9 217.2 747.9 220.6L747.9 220.6L747.9 235.3Q747.9 237.1 746.9 238.2ZM787.5 250.3L787.5 250.3Q783.1 250.2 779.8 248.7Q776.5 247.2 774.9 244.6L774.9 244.6Q774.3 243.6 774.3 242.4L774.3 242.4Q774.3 241.2 775.1 240.4Q775.9 239.6 777.3 239.6L777.3 239.6Q778.7 239.6 780.0 240.8L780.0 240.8Q781.9 242.7 783.6 243.6Q785.4 244.4 787.5 244.5L787.5 244.5Q791.2 244.5 793.3 242.6Q795.4 240.7 795.4 237.6L795.4 237.6L795.4 232.7L795.3 232.7Q794.1 235.2 791.5 236.7Q788.9 238.3 785.6 238.3L785.6 238.3Q779.7 238.3 776.3 234.0Q772.8 229.8 772.8 222.7L772.8 222.7Q772.8 215.4 776.3 211.2Q779.7 207.0 785.7 207.0L785.7 207.0Q789.0 207.0 791.5 208.5Q794.0 210.1 795.4 212.8L795.4 212.8L795.5 212.8L795.5 210.6Q795.5 208.9 796.5 207.9Q797.5 206.9 799.1 206.9Q800.8 206.9 801.8 207.9Q802.8 208.9 802.8 210.6L802.8 210.6L802.8 237.6Q802.8 243.5 798.7 246.9Q794.6 250.3 787.5 250.3ZM787.8 232.6L787.8 232.6Q791.3 232.6 793.4 229.9Q795.5 227.3 795.5 222.7L795.5 222.7Q795.5 218.2 793.4 215.5Q791.3 212.8 787.8 212.8L787.8 212.8Q784.3 212.8 782.3 215.5Q780.3 218.2 780.3 222.7L780.3 222.7Q780.3 227.3 782.3 230.0Q784.3 232.6 787.8 232.6Z M829.1 238.2Q828.1 239.2 826.4 239.2Q824.7 239.2 823.8 238.2Q822.8 237.2 822.8 235.4L822.8 235.4L822.8 213.1L820.8 213.1Q819.6 213.1 818.8 212.4Q818.0 211.7 818.0 210.4L818.0 210.4Q818.0 209.1 818.8 208.4Q819.6 207.6 820.8 207.6L820.8 207.6L822.8 207.6L822.8 204.9Q822.8 196.0 831.3 196.0L831.3 196.0Q834.1 196.0 835.5 196.8Q836.9 197.6 836.9 199.0L836.9 199.0Q836.9 200.7 835.3 201.1L835.3 201.1Q834.6 201.3 833.7 201.3L833.7 201.3Q831.7 201.4 830.8 202.3Q829.9 203.2 829.9 205.2L829.9 205.2L829.9 207.6L833.9 207.6Q835.1 207.6 835.9 208.4Q836.6 209.1 836.6 210.4L836.6 210.4Q836.6 211.7 835.9 212.4Q835.1 213.1 833.9 213.1L833.9 213.1L830.0 213.1L830.0 235.4Q830.0 237.2 829.1 238.2ZM847.2 238.1Q846.3 239.2 844.6 239.2Q842.9 239.2 841.9 238.1Q840.9 237.1 840.9 235.3L840.9 235.3L840.9 210.6Q840.9 208.9 841.9 207.9Q842.9 206.9 844.4 206.9L844.4 206.9Q846.0 206.9 846.9 207.9Q847.9 208.9 847.9 210.6L847.9 210.6L847.9 213.0L848.0 213.0Q848.7 210.3 850.5 208.6Q852.3 207.0 854.7 207.0L854.7 207.0Q856.4 207.0 857.3 207.8L857.3 207.8Q858.3 208.6 858.3 210.4L858.3 210.4Q858.3 212.1 857.2 213.0L857.2 213.0Q856.2 213.9 854.0 214.0L854.0 214.0Q848.2 214.0 848.2 220.4L848.2 220.4L848.2 235.3Q848.2 237.1 847.2 238.1ZM886.3 234.9Q882.2 239.2 875.3 239.2Q868.4 239.2 864.4 234.9Q860.3 230.6 860.3 223.1L860.3 223.1Q860.3 215.6 864.4 211.2Q868.5 206.9 875.3 206.9L875.3 206.9Q882.2 206.9 886.3 211.2Q890.3 215.6 890.3 223.1L890.3 223.1Q890.3 230.6 886.3 234.9ZM869.7 230.7Q871.8 233.4 875.3 233.4Q878.8 233.4 880.9 230.7Q882.9 228.0 882.9 223.1L882.9 223.1Q882.9 218.2 880.9 215.4Q878.8 212.7 875.3 212.7L875.3 212.7Q871.8 212.7 869.8 215.4Q867.7 218.2 867.7 223.1L867.7 223.1Q867.7 228.0 869.7 230.7ZM898.7 239.2L898.7 239.2Q897.0 239.2 896.0 238.2Q895.0 237.1 895.0 235.3L895.0 235.3L895.0 210.6Q895.0 208.9 896.0 207.9Q896.9 206.9 898.5 206.9Q900.1 206.9 901.1 207.9Q902.0 208.9 902.0 210.6L902.0 210.6L902.0 212.9L902.2 212.9Q903.2 210.2 905.5 208.5Q907.9 206.9 911.0 206.9L911.0 206.9Q914.3 206.9 916.6 208.6Q918.8 210.2 919.7 213.2L919.7 213.2L919.9 213.2Q921.0 210.3 923.6 208.6Q926.2 206.9 929.5 206.9L929.5 206.9Q934.1 206.9 936.9 209.8Q939.7 212.6 939.7 217.3L939.7 217.3L939.7 235.3Q939.7 237.1 938.7 238.1Q937.7 239.2 936.0 239.2L936.0 239.2Q934.4 239.2 933.4 238.1Q932.4 237.1 932.4 235.3L932.4 235.3L932.4 219.1Q932.4 216.2 930.9 214.6Q929.5 213.1 926.8 213.1L926.8 213.1Q924.2 213.1 922.5 214.8Q920.9 216.6 920.9 219.4L920.9 219.4L920.9 235.3Q920.9 237.1 919.9 238.2Q919.0 239.2 917.4 239.2L917.4 239.2Q915.7 239.2 914.7 238.2Q913.8 237.1 913.8 235.3L913.8 235.3L913.8 218.7Q913.8 216.1 912.3 214.6Q910.8 213.1 908.3 213.1L908.3 213.1Q905.7 213.1 904.0 214.9Q902.3 216.8 902.3 219.6L902.3 219.6L902.3 235.3Q902.3 237.1 901.3 238.1Q900.3 239.2 898.7 239.2Z M59.2 321.1L47.5 321.1Q45.7 321.1 44.7 320.0Q43.7 319.0 43.7 317.2L43.7 317.2L43.7 282.7Q43.7 280.9 44.7 279.8Q45.7 278.8 47.5 278.8L47.5 278.8L59.2 278.8Q68.7 278.8 74.0 284.3Q79.3 289.8 79.3 299.8L79.3 299.8Q79.3 309.9 74.0 315.5Q68.7 321.1 59.2 321.1L59.2 321.1ZM51.3 285.2L51.3 314.7L58.4 314.7Q64.8 314.7 68.2 310.9Q71.6 307.1 71.6 299.9L71.6 299.9Q71.6 292.8 68.1 289.0Q64.7 285.2 58.4 285.2L58.4 285.2L51.3 285.2ZM98.3 321.7L98.3 321.7Q91.2 321.7 87.2 317.5Q83.2 313.2 83.2 305.7L83.2 305.7Q83.2 298.2 87.2 293.8Q91.2 289.4 97.9 289.4L97.9 289.4Q104.2 289.4 108.2 293.4Q112.2 297.5 112.2 303.9L112.2 303.9Q112.2 305.5 111.3 306.4Q110.4 307.3 108.8 307.3L108.8 307.3L90.5 307.3L90.5 307.5Q90.5 311.4 92.6 313.8Q94.7 316.1 98.2 316.1L98.2 316.1Q100.7 316.1 102.5 315.1Q104.2 314.2 106.0 311.9L106.0 311.9Q107.1 310.8 108.5 310.8L108.5 310.8Q109.7 310.8 110.6 311.5Q111.4 312.3 111.4 313.6L111.4 313.6Q111.4 314.4 110.9 315.4L110.9 315.4Q109.3 318.4 106.0 320.0Q102.7 321.7 98.3 321.7ZM90.5 302.5L90.5 302.5L105.0 302.5Q104.9 299.1 103.0 297.1Q101.0 295.0 97.9 295.0Q94.8 295.0 92.8 297.1Q90.7 299.2 90.5 302.5ZM120.5 321.7L120.5 321.7Q118.8 321.7 117.9 320.7Q116.9 319.6 116.9 317.8L116.9 317.8L116.9 293.1Q116.9 291.4 117.8 290.4Q118.8 289.4 120.4 289.4Q121.9 289.4 122.9 290.4Q123.9 291.4 123.9 293.1L123.9 293.1L123.9 295.4L124.0 295.4Q125.0 292.7 127.4 291.0Q129.7 289.4 132.9 289.4L132.9 289.4Q136.2 289.4 138.4 291.1Q140.7 292.7 141.5 295.7L141.5 295.7L141.7 295.7Q142.8 292.8 145.4 291.1Q148.0 289.4 151.4 289.4L151.4 289.4Q156.0 289.4 158.8 292.3Q161.5 295.1 161.5 299.8L161.5 299.8L161.5 317.8Q161.5 319.6 160.5 320.6Q159.5 321.7 157.9 321.7L157.9 321.7Q156.2 321.7 155.2 320.6Q154.2 319.6 154.2 317.8L154.2 317.8L154.2 301.6Q154.2 298.7 152.8 297.1Q151.3 295.6 148.7 295.6L148.7 295.6Q146.0 295.6 144.4 297.3Q142.7 299.1 142.7 301.9L142.7 301.9L142.7 317.8Q142.7 319.6 141.8 320.7Q140.8 321.7 139.2 321.7L139.2 321.7Q137.5 321.7 136.6 320.7Q135.7 319.6 135.7 317.8L135.7 317.8L135.7 301.2Q135.7 298.6 134.2 297.1Q132.7 295.6 130.1 295.6L130.1 295.6Q127.5 295.6 125.8 297.4Q124.2 299.3 124.2 302.1L124.2 302.1L124.2 317.8Q124.2 319.6 123.2 320.6Q122.1 321.7 120.5 321.7ZM192.1 317.4Q188.0 321.7 181.1 321.7Q174.2 321.7 170.1 317.4Q166.1 313.1 166.1 305.6L166.1 305.6Q166.1 298.1 170.2 293.7Q174.3 289.4 181.1 289.4L181.1 289.4Q187.9 289.4 192.0 293.7Q196.1 298.1 196.1 305.6L196.1 305.6Q196.1 313.1 192.1 317.4ZM175.5 313.2Q177.6 315.9 181.1 315.9Q184.6 315.9 186.7 313.2Q188.7 310.5 188.7 305.6L188.7 305.6Q188.7 300.7 186.7 297.9Q184.6 295.2 181.1 295.2L181.1 295.2Q177.6 295.2 175.5 297.9Q173.5 300.7 173.5 305.6L173.5 305.6Q173.5 310.5 175.5 313.2ZM207.1 320.7Q206.1 321.7 204.4 321.7Q202.8 321.7 201.8 320.7Q200.8 319.6 200.8 317.8L200.8 317.8L200.8 293.1Q200.8 291.4 201.7 290.4Q202.7 289.4 204.3 289.4Q205.9 289.4 206.9 290.4Q207.9 291.4 207.9 293.1L207.9 293.1L207.9 295.3L208.0 295.3Q210.7 289.4 217.7 289.4L217.7 289.4Q222.8 289.4 225.6 292.5Q228.5 295.6 228.5 301.0L228.5 301.0L228.5 317.8Q228.5 319.6 227.5 320.7Q226.5 321.7 224.8 321.7Q223.2 321.7 222.2 320.7Q221.2 319.6 221.2 317.8L221.2 317.8L221.2 302.5Q221.2 299.1 219.6 297.4Q218.0 295.6 215.0 295.6L215.0 295.6Q211.8 295.6 210.0 297.7Q208.1 299.7 208.1 303.1L208.1 303.1L208.1 317.8Q208.1 319.6 207.1 320.7ZM246.3 321.7L246.3 321.7Q241.4 321.7 238.1 320.0Q234.8 318.3 233.6 315.5L233.6 315.5Q233.3 314.7 233.3 314.0L233.3 314.0Q233.3 312.7 234.2 311.9Q235.0 311.1 236.4 311.1L236.4 311.1Q238.2 311.1 239.5 312.9L239.5 312.9Q240.8 314.8 242.4 315.6Q244.0 316.4 246.5 316.4L246.5 316.4Q249.1 316.4 250.7 315.4Q252.2 314.3 252.2 312.6L252.2 312.6Q252.2 311.2 251.2 310.3Q250.2 309.5 247.8 308.9L247.8 308.9L242.8 307.8Q233.7 305.8 233.7 298.9L233.7 298.9Q233.7 294.6 237.2 292.0Q240.7 289.4 246.4 289.4L246.4 289.4Q250.8 289.4 254.0 291.3Q257.2 293.1 258.0 295.9L258.0 295.9Q258.1 296.5 258.1 297.0L258.1 297.0Q258.1 298.1 257.4 298.9Q256.7 299.6 255.3 299.6L255.3 299.6Q253.5 299.6 252.5 298.2L252.5 298.2Q251.4 296.5 249.9 295.6Q248.4 294.7 246.2 294.7L246.2 294.7Q243.8 294.7 242.3 295.8Q240.8 296.8 240.8 298.5L240.8 298.5Q240.8 301.3 245.4 302.3L245.4 302.3L250.4 303.4Q255.3 304.5 257.4 306.4Q259.5 308.4 259.5 311.8L259.5 311.8Q259.5 316.3 255.9 319.0Q252.2 321.7 246.3 321.7ZM266.1 313.4L266.1 313.4L266.1 295.6L264.2 295.6Q262.8 295.6 262.0 294.9Q261.3 294.1 261.3 292.8L261.3 292.8Q261.3 291.5 262.0 290.8Q262.8 290.0 264.2 290.0L264.2 290.0L266.1 290.0L266.1 285.9Q266.1 284.1 267.1 283.1Q268.1 282.1 269.8 282.1L269.8 282.1Q271.5 282.1 272.5 283.1Q273.4 284.1 273.4 285.9L273.4 285.9L273.4 290.0L276.8 290.0Q278.2 290.0 279.0 290.8Q279.7 291.5 279.7 292.8L279.7 292.8Q279.7 294.1 278.9 294.9Q278.2 295.6 276.8 295.6L276.8 295.6L273.4 295.6L273.4 311.8Q273.4 313.6 274.1 314.4Q274.8 315.2 276.4 315.4L276.4 315.4L276.9 315.4Q279.8 315.7 279.8 318.1L279.8 318.1Q279.8 319.7 278.5 320.6Q277.1 321.4 274.6 321.4L274.6 321.4L274.3 321.4Q266.1 321.4 266.1 313.4ZM290.5 320.6Q289.6 321.7 287.9 321.7Q286.2 321.7 285.2 320.6Q284.2 319.6 284.2 317.8L284.2 317.8L284.2 293.1Q284.2 291.4 285.2 290.4Q286.2 289.4 287.7 289.4L287.7 289.4Q289.3 289.4 290.2 290.4Q291.2 291.4 291.2 293.1L291.2 293.1L291.2 295.5L291.3 295.5Q292.0 292.8 293.8 291.1Q295.6 289.5 298.0 289.5L298.0 289.5Q299.7 289.5 300.6 290.3L300.6 290.3Q301.6 291.1 301.6 292.9L301.6 292.9Q301.6 294.6 300.5 295.5L300.5 295.5Q299.5 296.4 297.3 296.5L297.3 296.5Q291.5 296.5 291.5 302.9L291.5 302.9L291.5 317.8Q291.5 319.6 290.5 320.6ZM314.0 321.6L314.0 321.6Q309.4 321.6 306.5 319.0Q303.6 316.4 303.6 312.2L303.6 312.2Q303.6 308.1 306.7 305.7Q309.7 303.3 315.4 302.9L315.4 302.9L323.7 302.4L323.7 300.2Q323.7 297.8 322.1 296.4Q320.6 295.1 317.9 295.1L317.9 295.1Q315.7 295.1 314.2 295.9Q312.7 296.7 311.3 298.7L311.3 298.7Q310.2 300.2 308.4 300.2L308.4 300.2Q307.0 300.2 306.2 299.4Q305.3 298.6 305.3 297.3L305.3 297.3Q305.3 296.3 305.8 295.3L305.8 295.3Q307.0 292.6 310.3 291.0Q313.7 289.4 318.1 289.4L318.1 289.4Q323.9 289.4 327.4 292.2Q330.9 295.0 330.9 299.7L330.9 299.7L330.9 318.0Q330.9 319.7 329.9 320.7Q328.9 321.7 327.3 321.7L327.3 321.7Q325.8 321.7 324.9 320.8Q323.9 319.9 323.8 318.3L323.8 318.3L323.8 316.1L323.7 316.1Q322.4 318.6 319.7 320.1Q317.0 321.6 314.0 321.6ZM316.2 316.1L316.2 316.1Q319.3 316.1 321.5 314.2Q323.7 312.3 323.7 309.6L323.7 309.6L323.7 307.2L316.4 307.6Q313.8 307.8 312.4 308.9Q310.9 310.1 310.9 311.9L310.9 311.9Q310.9 313.8 312.4 314.9Q313.8 316.1 316.2 316.1ZM338.7 313.4L338.7 313.4L338.7 295.6L336.8 295.6Q335.4 295.6 334.6 294.9Q333.8 294.1 333.8 292.8L333.8 292.8Q333.8 291.5 334.6 290.8Q335.4 290.0 336.8 290.0L336.8 290.0L338.7 290.0L338.7 285.9Q338.7 284.1 339.7 283.1Q340.7 282.1 342.4 282.1L342.4 282.1Q344.1 282.1 345.1 283.1Q346.0 284.1 346.0 285.9L346.0 285.9L346.0 290.0L349.4 290.0Q350.8 290.0 351.6 290.8Q352.3 291.5 352.3 292.8L352.3 292.8Q352.3 294.1 351.5 294.9Q350.8 295.6 349.4 295.6L349.4 295.6L346.0 295.6L346.0 311.8Q346.0 313.6 346.7 314.4Q347.4 315.2 349.0 315.4L349.0 315.4L349.5 315.4Q352.4 315.7 352.4 318.1L352.4 318.1Q352.4 319.7 351.1 320.6Q349.7 321.4 347.2 321.4L347.2 321.4L346.9 321.4Q338.7 321.4 338.7 313.4ZM363.5 284.5Q362.4 285.7 360.7 285.7Q359.0 285.7 357.8 284.5Q356.6 283.3 356.6 281.7L356.6 281.7Q356.6 280.0 357.8 278.9Q359.0 277.7 360.7 277.7L360.7 277.7Q362.4 277.7 363.6 278.9Q364.7 280.0 364.7 281.7L364.7 281.7Q364.7 283.3 363.5 284.5ZM363.3 320.6Q362.3 321.7 360.7 321.7Q359.0 321.7 358.0 320.6Q357.0 319.6 357.0 317.8L357.0 317.8L357.0 293.2Q357.0 291.5 358.0 290.4Q359.0 289.4 360.7 289.4Q362.3 289.4 363.3 290.4Q364.3 291.5 364.3 293.3L364.3 293.3L364.3 317.8Q364.3 319.6 363.3 320.6ZM395.1 317.4Q391.1 321.7 384.2 321.7Q377.3 321.7 373.2 317.4Q369.2 313.1 369.2 305.6L369.2 305.6Q369.2 298.1 373.3 293.7Q377.4 289.4 384.2 289.4L384.2 289.4Q391.0 289.4 395.1 293.7Q399.2 298.1 399.2 305.6L399.2 305.6Q399.2 313.1 395.1 317.4ZM378.6 313.2Q380.7 315.9 384.2 315.9Q387.7 315.9 389.7 313.2Q391.8 310.5 391.8 305.6L391.8 305.6Q391.8 300.7 389.7 297.9Q387.7 295.2 384.2 295.2L384.2 295.2Q380.7 295.2 378.6 297.9Q376.6 300.7 376.6 305.6L376.6 305.6Q376.6 310.5 378.6 313.2ZM410.2 320.7Q409.2 321.7 407.5 321.7Q405.9 321.7 404.9 320.7Q403.9 319.6 403.9 317.8L403.9 317.8L403.9 293.1Q403.9 291.4 404.8 290.4Q405.8 289.4 407.4 289.4Q409.0 289.4 410.0 290.4Q411.0 291.4 411.0 293.1L411.0 293.1L411.0 295.3L411.1 295.3Q413.8 289.4 420.8 289.4L420.8 289.4Q425.9 289.4 428.7 292.5Q431.6 295.6 431.6 301.0L431.6 301.0L431.6 317.8Q431.6 319.6 430.6 320.7Q429.6 321.7 427.9 321.7Q426.3 321.7 425.3 320.7Q424.3 319.6 424.3 317.8L424.3 317.8L424.3 302.5Q424.3 299.1 422.7 297.4Q421.1 295.6 418.0 295.6L418.0 295.6Q414.9 295.6 413.1 297.7Q411.2 299.7 411.2 303.1L411.2 303.1L411.2 317.8Q411.2 319.6 410.2 320.7Z M459.2 321.7L459.2 321.7Q457.4 321.7 456.3 320.8Q455.2 319.9 454.6 317.9L454.6 317.9L447.9 294.7Q447.5 293.4 447.5 292.5L447.5 292.5Q447.5 291.2 448.5 290.3Q449.5 289.4 451.1 289.4L451.1 289.4Q453.8 289.4 454.5 292.5L454.5 292.5L459.6 313.9L459.8 313.9L465.2 292.7Q465.9 289.4 469.3 289.4L469.3 289.4Q472.7 289.4 473.4 292.7L473.4 292.7L478.9 313.9L479.1 313.9L484.2 292.5Q484.9 289.4 487.6 289.4L487.6 289.4Q489.1 289.4 490.1 290.3Q491.1 291.1 491.1 292.5L491.1 292.5Q491.1 293.4 490.7 294.7L490.7 294.7L484.0 317.9Q483.4 319.8 482.3 320.8Q481.2 321.7 479.3 321.7L479.3 321.7Q477.4 321.7 476.3 320.8Q475.1 319.9 474.6 317.9L474.6 317.9L469.3 298.4L469.2 298.4L463.8 317.9Q462.9 321.7 459.2 321.7ZM501.9 284.5Q500.7 285.7 499.0 285.7Q497.3 285.7 496.1 284.5Q494.9 283.3 494.9 281.7L494.9 281.7Q494.9 280.0 496.1 278.9Q497.3 277.7 499.0 277.7L499.0 277.7Q500.7 277.7 501.9 278.9Q503.0 280.0 503.0 281.7L503.0 281.7Q503.0 283.3 501.9 284.5ZM501.6 320.6Q500.6 321.7 499.0 321.7Q497.3 321.7 496.3 320.6Q495.3 319.6 495.3 317.8L495.3 317.8L495.3 293.2Q495.3 291.5 496.3 290.4Q497.3 289.4 499.0 289.4Q500.6 289.4 501.6 290.4Q502.6 291.5 502.6 293.3L502.6 293.3L502.6 317.8Q502.6 319.6 501.6 320.6ZM510.8 313.4L510.8 313.4L510.8 295.6L508.8 295.6Q507.5 295.6 506.7 294.9Q505.9 294.1 505.9 292.8L505.9 292.8Q505.9 291.5 506.7 290.8Q507.4 290.0 508.8 290.0L508.8 290.0L510.8 290.0L510.8 285.9Q510.8 284.1 511.8 283.1Q512.7 282.1 514.4 282.1L514.4 282.1Q516.1 282.1 517.1 283.1Q518.1 284.1 518.1 285.9L518.1 285.9L518.1 290.0L521.4 290.0Q522.8 290.0 523.6 290.8Q524.4 291.5 524.4 292.8L524.4 292.8Q524.4 294.1 523.6 294.9Q522.8 295.6 521.4 295.6L521.4 295.6L518.1 295.6L518.1 311.8Q518.1 313.6 518.7 314.4Q519.4 315.2 521.0 315.4L521.0 315.4L521.5 315.4Q524.5 315.7 524.5 318.1L524.5 318.1Q524.5 319.7 523.1 320.6Q521.8 321.4 519.2 321.4L519.2 321.4L518.9 321.4Q510.8 321.4 510.8 313.4ZM535.4 320.7Q534.4 321.7 532.7 321.7Q531.1 321.7 530.1 320.7Q529.1 319.6 529.1 317.8L529.1 317.8L529.1 282.0Q529.1 280.2 530.0 279.2Q531.0 278.2 532.7 278.2L532.7 278.2Q534.4 278.2 535.3 279.2Q536.3 280.2 536.3 282.0L536.3 282.0L536.3 295.4L536.4 295.4Q537.7 292.5 540.2 291.0Q542.7 289.4 546.3 289.4L546.3 289.4Q551.3 289.4 554.2 292.6Q557.1 295.7 557.1 301.1L557.1 301.1L557.1 317.8Q557.1 319.6 556.1 320.7Q555.1 321.7 553.5 321.7Q551.8 321.7 550.8 320.7Q549.8 319.6 549.8 317.8L549.8 317.8L549.8 302.6Q549.8 299.3 548.2 297.4Q546.6 295.6 543.4 295.6L543.4 295.6Q540.2 295.6 538.3 297.7Q536.4 299.8 536.4 303.2L536.4 303.2L536.4 317.8Q536.4 319.6 535.4 320.7Z M594.3 321.8L594.3 321.8Q585.1 321.8 579.7 315.9Q574.3 310.0 574.3 300.0Q574.3 289.9 579.7 284.0Q585.1 278.1 594.3 278.1L594.3 278.1Q603.6 278.1 609.0 284.0Q614.4 289.9 614.4 300.0Q614.4 310.0 609.0 315.9Q603.6 321.8 594.3 321.8ZM585.3 311.2Q588.7 315.3 594.3 315.3Q600.0 315.3 603.3 311.2Q606.7 307.0 606.7 300.0Q606.7 292.9 603.3 288.7Q600.0 284.5 594.3 284.5Q588.7 284.5 585.3 288.7Q582.0 292.9 582.0 300.0L582.0 300.0Q582.0 307.0 585.3 311.2ZM626.1 320.7Q625.1 321.7 623.5 321.7Q621.9 321.7 620.9 320.7Q619.8 319.6 619.8 317.8L619.8 317.8L619.8 282.1Q619.8 280.2 620.9 279.2Q621.9 278.2 623.5 278.2Q625.1 278.2 626.1 279.2Q627.1 280.2 627.1 282.1L627.1 282.1L627.1 317.8Q627.1 319.6 626.1 320.7ZM645.0 321.6L645.0 321.6Q639.1 321.6 635.6 317.2Q632.1 312.9 632.1 305.5L632.1 305.5Q632.1 298.2 635.6 293.8Q639.1 289.5 645.0 289.5L645.0 289.5Q648.2 289.5 650.8 291.0Q653.3 292.6 654.6 295.2L654.6 295.2L654.7 295.2L654.7 282.1Q654.7 280.2 655.7 279.2Q656.7 278.2 658.4 278.2Q660.0 278.2 661.0 279.2Q662.0 280.2 662.0 282.1L662.0 282.1L662.0 318.0Q662.0 319.7 661.0 320.7Q660.0 321.7 658.4 321.7L658.4 321.7Q656.8 321.7 655.8 320.7Q654.7 319.7 654.7 318.0L654.7 318.0L654.7 315.6L654.6 315.6Q653.4 318.4 650.9 320.0Q648.5 321.6 645.0 321.6ZM647.1 315.6L647.1 315.6Q650.6 315.6 652.7 312.9Q654.8 310.2 654.8 305.6L654.8 305.6Q654.8 301.0 652.7 298.2Q650.6 295.5 647.1 295.5L647.1 295.5Q643.6 295.5 641.6 298.2Q639.5 300.9 639.5 305.6L639.5 305.6Q639.5 310.2 641.6 312.9Q643.6 315.6 647.1 315.6ZM682.0 321.7L682.0 321.7Q674.8 321.7 670.8 317.5Q666.9 313.2 666.9 305.7L666.9 305.7Q666.9 298.2 670.8 293.8Q674.8 289.4 681.5 289.4L681.5 289.4Q687.9 289.4 691.9 293.4Q695.8 297.5 695.8 303.9L695.8 303.9Q695.8 305.5 694.9 306.4Q694.1 307.3 692.4 307.3L692.4 307.3L674.1 307.3L674.1 307.5Q674.1 311.4 676.2 313.8Q678.3 316.1 681.9 316.1L681.9 316.1Q684.4 316.1 686.1 315.1Q687.9 314.2 689.7 311.9L689.7 311.9Q690.7 310.8 692.1 310.8L692.1 310.8Q693.4 310.8 694.2 311.5Q695.0 312.3 695.0 313.6L695.0 313.6Q695.0 314.4 694.6 315.4L694.6 315.4Q693.0 318.4 689.7 320.0Q686.4 321.7 682.0 321.7ZM674.2 302.5L674.2 302.5L688.7 302.5Q688.6 299.1 686.6 297.1Q684.6 295.0 681.6 295.0Q678.5 295.0 676.4 297.1Q674.4 299.2 674.2 302.5ZM706.8 320.6Q705.8 321.7 704.2 321.7Q702.5 321.7 701.5 320.6Q700.5 319.6 700.5 317.8L700.5 317.8L700.5 293.1Q700.5 291.4 701.5 290.4Q702.4 289.4 704.0 289.4L704.0 289.4Q705.5 289.4 706.5 290.4Q707.5 291.4 707.5 293.1L707.5 293.1L707.5 295.5L707.6 295.5Q708.3 292.8 710.1 291.1Q711.9 289.5 714.3 289.5L714.3 289.5Q716.0 289.5 716.8 290.3L716.8 290.3Q717.9 291.1 717.9 292.9L717.9 292.9Q717.9 294.6 716.8 295.5L716.8 295.5Q715.7 296.4 713.6 296.5L713.6 296.5Q707.8 296.5 707.8 302.9L707.8 302.9L707.8 317.8Q707.8 319.6 706.8 320.6Z M735.7 321.6L735.7 321.6Q734.0 321.6 733.0 320.6Q731.9 319.7 731.9 318.1L731.9 318.1Q731.9 317.1 732.4 315.8L732.4 315.8L744.7 282.4Q745.5 280.3 746.8 279.3Q748.1 278.3 750.2 278.3L750.2 278.3Q752.3 278.3 753.6 279.3Q754.9 280.2 755.7 282.4L755.7 282.4L768.0 315.8Q768.5 317.2 768.5 318.1L768.5 318.1Q768.5 319.6 767.5 320.6Q766.4 321.6 764.7 321.6L764.7 321.6Q763.2 321.6 762.3 320.8Q761.4 320.1 760.9 318.4L760.9 318.4L758.1 310.3L742.3 310.3L739.5 318.3Q739.0 320.1 738.1 320.8Q737.2 321.6 735.7 321.6ZM750.0 286.3L744.1 304.3L756.3 304.3L750.2 286.3L750.0 286.3ZM784.9 321.6L784.9 321.6Q779.0 321.6 775.5 317.2Q772.0 312.9 772.0 305.5L772.0 305.5Q772.0 298.2 775.5 293.8Q779.0 289.5 784.9 289.5L784.9 289.5Q788.2 289.5 790.7 291.0Q793.2 292.6 794.5 295.2L794.5 295.2L794.7 295.2L794.7 282.1Q794.7 280.2 795.7 279.2Q796.7 278.2 798.3 278.2Q799.9 278.2 800.9 279.2Q802.0 280.2 802.0 282.1L802.0 282.1L802.0 318.0Q802.0 319.7 801.0 320.7Q800.0 321.7 798.3 321.7L798.3 321.7Q796.7 321.7 795.7 320.7Q794.7 319.7 794.7 318.0L794.7 318.0L794.7 315.6L794.5 315.6Q793.3 318.4 790.9 320.0Q788.4 321.6 784.9 321.6ZM787.1 315.6L787.1 315.6Q790.5 315.6 792.6 312.9Q794.7 310.2 794.7 305.6L794.7 305.6Q794.7 301.0 792.6 298.2Q790.5 295.5 787.1 295.5L787.1 295.5Q783.6 295.5 781.5 298.2Q779.5 300.9 779.5 305.6L779.5 305.6Q779.5 310.2 781.5 312.9Q783.5 315.6 787.1 315.6ZM818.9 321.6L818.9 321.6Q813.9 321.6 810.9 318.5Q807.9 315.5 807.9 310.1L807.9 310.1L807.9 293.2Q807.9 291.5 808.9 290.4Q809.9 289.4 811.6 289.4Q813.2 289.4 814.2 290.4Q815.2 291.5 815.2 293.3L815.2 293.3L815.2 308.6Q815.2 312.0 816.8 313.7Q818.4 315.5 821.5 315.5L821.5 315.5Q824.6 315.5 826.5 313.4Q828.3 311.4 828.3 308.0L828.3 308.0L828.3 293.2Q828.3 291.5 829.3 290.4Q830.3 289.4 832.0 289.4L832.0 289.4Q833.6 289.4 834.6 290.4Q835.6 291.5 835.6 293.3L835.6 293.3L835.6 318.0Q835.6 319.7 834.7 320.7Q833.7 321.7 832.1 321.7L832.1 321.7Q830.5 321.7 829.6 320.7Q828.6 319.7 828.6 318.0L828.6 318.0L828.6 315.7L828.4 315.7Q825.9 321.6 818.9 321.6ZM848.1 320.7Q847.1 321.7 845.4 321.7Q843.8 321.7 842.8 320.7Q841.8 319.6 841.8 317.8L841.8 317.8L841.8 282.1Q841.8 280.2 842.8 279.2Q843.8 278.2 845.4 278.2Q847.1 278.2 848.1 279.2Q849.1 280.2 849.1 282.1L849.1 282.1L849.1 317.8Q849.1 319.6 848.1 320.7ZM857.3 313.4L857.3 313.4L857.3 295.6L855.3 295.6Q854.0 295.6 853.2 294.9Q852.4 294.1 852.4 292.8L852.4 292.8Q852.4 291.5 853.2 290.8Q854.0 290.0 855.3 290.0L855.3 290.0L857.3 290.0L857.3 285.9Q857.3 284.1 858.3 283.1Q859.3 282.1 861.0 282.1L861.0 282.1Q862.6 282.1 863.6 283.1Q864.6 284.1 864.6 285.9L864.6 285.9L864.6 290.0L868.0 290.0Q869.3 290.0 870.1 290.8Q870.9 291.5 870.9 292.8L870.9 292.8Q870.9 294.1 870.1 294.9Q869.3 295.6 868.0 295.6L868.0 295.6L864.6 295.6L864.6 311.8Q864.6 313.6 865.3 314.4Q865.9 315.2 867.5 315.4L867.5 315.4L868.0 315.4Q871.0 315.7 871.0 318.1L871.0 318.1Q871.0 319.7 869.6 320.6Q868.3 321.4 865.8 321.4L865.8 321.4L865.5 321.4Q857.3 321.4 857.3 313.4ZM887.4 321.7L887.4 321.7Q882.5 321.7 879.2 320.0Q875.9 318.3 874.7 315.5L874.7 315.5Q874.4 314.7 874.4 314.0L874.4 314.0Q874.4 312.7 875.3 311.9Q876.1 311.1 877.5 311.1L877.5 311.1Q879.3 311.1 880.6 312.9L880.6 312.9Q881.9 314.8 883.5 315.6Q885.1 316.4 887.6 316.4L887.6 316.4Q890.2 316.4 891.8 315.4Q893.3 314.3 893.3 312.6L893.3 312.6Q893.3 311.2 892.3 310.3Q891.3 309.5 888.9 308.9L888.9 308.9L883.9 307.8Q874.8 305.8 874.8 298.9L874.8 298.9Q874.8 294.6 878.3 292.0Q881.8 289.4 887.5 289.4L887.5 289.4Q891.9 289.4 895.1 291.3Q898.3 293.1 899.1 295.9L899.1 295.9Q899.2 296.5 899.2 297.0L899.2 297.0Q899.2 298.1 898.5 298.9Q897.8 299.6 896.4 299.6L896.4 299.6Q894.6 299.6 893.6 298.2L893.6 298.2Q892.5 296.5 891.0 295.6Q889.5 294.7 887.3 294.7L887.3 294.7Q884.9 294.7 883.4 295.8Q881.9 296.8 881.9 298.5L881.9 298.5Q881.9 301.3 886.5 302.3L886.5 302.3L891.5 303.4Q896.4 304.5 898.5 306.4Q900.6 308.4 900.6 311.8L900.6 311.8Q900.6 316.3 897.0 319.0Q893.3 321.7 887.4 321.7Z "/><defs><clipPath id="satori_bc-id-0-1"><rect x="0" y="441" width="1200" height="189"/></clipPath></defs><mask id="satori_om-id-0-1"><rect x="0" y="442" width="1200" height="188" fill="#fff"/><path width="1200" height="189" fill="none" stroke="#000" stroke-width="2" d="M0,441 A0,0 0 0 1 0,441 h1200 A0,0 0 0 1 1200,441"/></mask><path width="1200" height="189" clip-path="url(#satori_bc-id-0-1)" fill="none" stroke="#dbdbdb" stroke-width="2" d="M0,441 A0,0 0 0 1 0,441 h1200 A0,0 0 0 1 1200,441"/><mask id="satori_om-id-0-1-0"><rect x="40" y="482" width="389" height="108" fill="#fff"/></mask><clipPath id="satori_cp-id-0-1-0-0"><rect x="40" y="504" width="64" height="64"/></clipPath><mask id="satori_om-id-0-1-0-0"><rect x="40" y="504" width="64" height="64" fill="#fff"/></mask><image x="40" y="504" width="64" height="64" href="data:image/svg+xml;utf8,%3Csvg  xmlns=%22http://www.w3.org/2000/svg%22 width=%2264%22 height=%2264%22 viewBox=%220 0 128 128%22%3E%3Cpath fill=%22%23224d67%22 d=%22M22.5 14.8c2.9 1.3 99 44 99 44c2.7 1.2 2.9 3.1 2 12.4c-1 10.5-1.9 37.8-40.2 42.9c-24.6 3.2-55.9-4.3-70.9-27.2C-6 58.8 11 23.4 14.8 17.7c2.4-3.5 4.8-4.2 7.7-2.9%22%3E%3C/path%3E%3Cpath fill=%22%23f0f4c3%22 d=%22M121.5 58.8c-.3-.2-92-40.8-98.9-43.9C9.6 31.5-3.8 76 27.9 96.2c33.6 21.5 78.7-10.2 93.6-37.4%22%3E%3C/path%3E%3Cpath fill=%22%23f0f4c3%22 d=%22M117.7 57c-.3-.2-86.7-38.4-93.2-41.3c-12.2 15.5-23.9 59.1 5.7 78c31.4 20.2 73.6-11.2 87.5-36.7%22%3E%3C/path%3E%3Cpath fill=%22%23cb2a42%22 d=%22M56.2 37.6L19.5 48.2c-2.5.8-4.4 2.8-5 5.3c-1.9 8.5.8 23.3 8.9 29.8c3.5 2.7 8.6 1.8 10.8-2.1L58.5 41c1.3-1.7.5-4.2-2.3-3.4m14.3 2.9s14.6 30.1 16 33s6.3 4.7 9.9 2.8c10.7-5.6 15.5-12.4 19.2-20.2c-8.9-3.9-42.4-18.8-42.4-18.8c-2.4-1.1-4 .6-2.7 3.2m-8.6 1.9C60.3 45.1 39.5 81 37.6 84.1c-1.9 3.2-.7 7.5 2.7 9.2c12.3 6.5 30.9.4 39.6-7c2.2-1.9 4.5-5.1 3.2-8.2S68.9 44.6 67.8 42.3c-1.2-2.7-4.1-2.8-5.9.1%22%3E%3C/path%3E%3Cpath fill=%22%23f0f4c3%22 d=%22M52.2 42.2c-1.4.4-10.1 3-11.1 3.4c-1.4.5-2.2 1.7-1.9 2.5c.3.9 1.7 1.1 3.1.6c.8-.3 7.1-3.9 9.5-5.2c-3.1 2.4-10.2 9.4-11.1 10.3c-1.4 1.5-1.7 3.4-.8 4.3c1 .9 2.9.5 4.3-1c1.2-1.3 8.5-12.8 9.1-13.9s.4-1.4-1.1-1m10.1 16.4c0-2.2 1.4-10.3 1.8-12.3c.4-1.6 1.5-1.8 1.8.5s1.7 9.7 1.7 11.8s-1.2 3.3-2.7 3.3c-1.4 0-2.6-1.1-2.6-3.3M79.9 49c-1.2-1.8-3.3-4.9-4.1-6.1c-.7-1.2.1-2.1 1.8-.9s4 2.9 5.4 4c1.6 1.3 1.9 3 .8 4s-2.7.8-3.9-1%22%3E%3C/path%3E%3Cellipse cx=%2287.3%22 cy=%22103.12%22 fill=%22%23cb2a42%22 rx=%223.4%22 ry=%222.3%22 transform=%22rotate(-27.098 87.298 103.126)%22%3E%3C/ellipse%3E%3Cellipse cx=%2298.89%22 cy=%22103.82%22 fill=%22%23cb2a42%22 rx=%223.4%22 ry=%222.3%22 transform=%22rotate(-30.642 98.887 103.818)%22%3E%3C/ellipse%3E%3Cellipse cx=%22102.02%22 cy=%2293.8%22 fill=%22%23cb2a42%22 rx=%223.4%22 ry=%222.3%22 transform=%22rotate(-37.16 102.017 93.797)%22%3E%3C/ellipse%3E%3Cpath fill=%22%23cb2a42%22 d=%22M57.6 30.3c-8.3-3.7-24.4-10.7-29.6-13c-3.6 2.2-9.7 11.4-11.2 21.2c-.6 3.6 1.7 5.9 5.3 4.9c0 0 33.7-9.3 35.3-9.7c1.6-.5 2-2.6.2-3.4%22%3E%3C/path%3E%3C/svg%3E" preserveAspectRatio="none" clip-path="url(#satori_cp-id-0-1-0-0)" mask="url(#satori_om-id-0-1-0-0)"/><mask id="satori_om-id-0-1-0-0-0"><rect x="40" y="504" width="0" height="64" fill="#fff"/></mask><mask id="satori_om-id-0-1-0-0-1"><rect x="40" y="504" width="0" height="64" fill="#fff"/></mask><mask id="satori_om-id-0-1-0-0-2"><rect x="40" y="504" width="0" height="64" fill="#fff"/></mask><mask id="satori_om-id-0-1-0-0-3"><rect x="40" y="504" width="0" height="64" fill="#fff"/></mask><mask id="satori_om-id-0-1-0-0-4"><rect x="40" y="504" width="0" height="64" fill="#fff"/></mask><mask id="satori_om-id-0-1-0-0-5"><rect x="40" y="504" width="0" height="64" fill="#fff"/></mask><mask id="satori_om-id-0-1-0-0-6"><rect x="40" y="504" width="0" height="64" fill="#fff"/></mask><mask id="satori_om-id-0-1-0-0-7"><rect x="40" y="504" width="0" height="64" fill="#fff"/></mask><mask id="satori_om-id-0-1-0-0-8"><rect x="40" y="504" width="0" height="64" fill="#fff"/></mask><mask id="satori_om-id-0-1-0-1"><rect x="116" y="512" width="313" height="48" fill="#fff"/></mask><path fill="#545454" d="M133.0 553.6L133.0 553.6Q126.5 553.6 122.7 550.2Q118.8 546.7 118.8 541.1L118.8 541.1L118.8 522.5Q118.8 520.7 119.8 519.7Q120.7 518.8 122.4 518.8Q124.0 518.8 125.0 519.7Q125.9 520.7 125.9 522.5L125.9 522.5L125.9 540.4Q125.9 543.7 127.8 545.6Q129.6 547.6 133.0 547.6L133.0 547.6Q136.3 547.6 138.2 545.6Q140.1 543.7 140.1 540.4L140.1 540.4L140.1 522.5Q140.1 520.7 141.0 519.7Q141.9 518.8 143.6 518.8Q145.3 518.8 146.2 519.7Q147.1 520.7 147.1 522.5L147.1 522.5L147.1 541.1Q147.1 546.7 143.3 550.2Q139.4 553.6 133.0 553.6ZM158.9 552.6Q158.0 553.6 156.3 553.6Q154.6 553.6 153.7 552.6Q152.8 551.6 152.8 549.9L152.8 549.9L152.8 522.9Q152.8 521.2 153.7 520.2Q154.6 519.2 156.3 519.2L156.3 519.2L166.6 519.2Q172.4 519.2 175.6 522.1Q178.9 525.0 178.9 530.0L178.9 530.0Q178.9 533.2 177.3 535.8Q175.8 538.3 173.0 539.4L173.0 539.4L177.9 547.9Q178.7 549.2 178.7 550.3L178.7 550.3Q178.7 551.7 177.7 552.6Q176.7 553.6 175.1 553.6L175.1 553.6Q173.8 553.6 173.1 553.0Q172.4 552.5 171.5 550.9L171.5 550.9L165.9 540.7L159.9 540.7L159.9 549.9Q159.9 551.6 158.9 552.6ZM159.9 524.8L159.9 535.6L165.9 535.6Q168.6 535.6 170.1 534.1Q171.6 532.7 171.6 530.2L171.6 530.2Q171.6 527.7 170.0 526.2Q168.5 524.8 165.9 524.8L165.9 524.8L159.9 524.8ZM196.2 542.3L186.4 542.3Q185.0 542.3 184.1 541.5Q183.2 540.7 183.2 539.3Q183.2 537.9 184.1 537.1Q185.0 536.3 186.4 536.3L186.4 536.3L196.2 536.3Q197.6 536.3 198.5 537.1Q199.4 537.9 199.4 539.3Q199.4 540.7 198.5 541.5Q197.6 542.3 196.2 542.3L196.2 542.3ZM210.9 552.6Q209.9 553.6 208.3 553.6Q206.6 553.6 205.6 552.6Q204.7 551.6 204.7 549.9L204.7 549.9L204.7 522.9Q204.7 521.2 205.6 520.2Q206.6 519.2 208.3 519.2L208.3 519.2L218.6 519.2Q224.4 519.2 227.6 522.1Q230.8 525.0 230.8 530.0L230.8 530.0Q230.8 533.2 229.3 535.8Q227.8 538.3 225.0 539.4L225.0 539.4L229.9 547.9Q230.6 549.2 230.6 550.3L230.6 550.3Q230.6 551.7 229.6 552.6Q228.6 553.6 227.0 553.6L227.0 553.6Q225.8 553.6 225.0 553.0Q224.3 552.5 223.4 550.9L223.4 550.9L217.8 540.7L211.8 540.7L211.8 549.9Q211.8 551.6 210.9 552.6ZM211.8 524.8L211.8 535.6L217.9 535.6Q220.6 535.6 222.0 534.1Q223.5 532.7 223.5 530.2L223.5 530.2Q223.5 527.7 222.0 526.2Q220.4 524.8 217.8 524.8L217.8 524.8L211.8 524.8ZM237.7 553.5L237.7 553.5Q236.0 553.5 235.1 552.6Q234.1 551.7 234.1 550.2L234.1 550.2Q234.1 549.3 234.6 547.9L234.6 547.9L243.8 522.8Q244.6 520.7 245.8 519.7Q247.1 518.8 249.1 518.8L249.1 518.8Q251.2 518.8 252.5 519.7Q253.8 520.7 254.5 522.8L254.5 522.8L263.8 547.9Q264.3 549.2 264.3 550.2L264.3 550.2Q264.3 551.6 263.3 552.6Q262.3 553.5 260.7 553.5L260.7 553.5Q259.2 553.5 258.4 552.8Q257.5 552.1 257.0 550.4L257.0 550.4L255.3 545.0L243.1 545.0L241.3 550.3Q240.8 552.0 239.9 552.8Q239.1 553.5 237.7 553.5ZM249.0 525.7L244.6 539.6L253.6 539.6L249.1 525.7L249.0 525.7ZM281.5 553.1L272.1 553.1Q270.4 553.1 269.5 552.1Q268.6 551.1 268.6 549.4L268.6 549.4L268.6 522.9Q268.6 521.2 269.5 520.2Q270.4 519.2 272.1 519.2L272.1 519.2L281.5 519.2Q289.1 519.2 293.4 523.6Q297.6 528.0 297.6 536.0L297.6 536.0Q297.6 544.1 293.3 548.6Q289.1 553.1 281.5 553.1L281.5 553.1ZM275.6 525.1L275.6 547.2L280.6 547.2Q285.4 547.2 287.9 544.4Q290.4 541.5 290.4 536.0L290.4 536.0Q290.4 530.8 287.8 527.9Q285.3 525.1 280.6 525.1L280.6 525.1L275.6 525.1Z M333.2 553.1L314.5 553.1Q312.9 553.1 312.0 552.2Q311.2 551.4 311.2 550.0L311.2 550.0Q311.2 549.1 311.6 548.3Q312.0 547.5 313.1 546.5L313.1 546.5L323.2 536.9Q326.3 533.8 327.4 532.2Q328.4 530.6 328.4 528.8L328.4 528.8Q328.4 526.7 327.0 525.3Q325.5 524 323.3 524L323.3 524Q319.3 524 317.4 528.1L317.4 528.1Q316.8 529.2 316.1 529.7Q315.4 530.1 314.3 530.1L314.3 530.1Q312.9 530.1 312.1 529.4Q311.3 528.6 311.3 527.3L311.3 527.3Q311.3 526.5 311.5 525.7L311.5 525.7Q312.5 522.7 315.6 520.6Q318.8 518.5 323.3 518.5L323.3 518.5Q328.7 518.5 332.0 521.2Q335.3 524.0 335.3 528.3L335.3 528.3Q335.3 529.9 335.0 531.2Q334.6 532.5 333.6 533.9Q332.6 535.3 331.3 536.8Q330.0 538.2 327.8 540.3L327.8 540.3L320.5 547.3L320.5 547.4L333.2 547.4Q334.6 547.4 335.4 548.2Q336.1 549.0 336.1 550.3L336.1 550.3Q336.1 551.5 335.4 552.3Q334.6 553.1 333.2 553.1L333.2 553.1ZM363.6 549.0Q359.9 553.8 353.5 553.8Q347.1 553.8 343.4 549.1Q339.7 544.3 339.7 536.1L339.7 536.1Q339.7 527.9 343.4 523.2Q347.1 518.5 353.5 518.5Q359.9 518.5 363.6 523.2Q367.3 527.9 367.3 536.1L367.3 536.1Q367.3 544.3 363.6 549.0ZM348.6 545.0Q350.4 548.1 353.5 548.1Q356.7 548.1 358.4 545.0Q360.1 541.9 360.1 536.1L360.1 536.1Q360.1 530.4 358.4 527.2Q356.7 524.1 353.5 524.1L353.5 524.1Q350.4 524.1 348.7 527.3Q346.9 530.4 346.9 536.1L346.9 536.1Q346.9 541.9 348.6 545.0ZM393.6 553.1L374.9 553.1Q373.3 553.1 372.4 552.2Q371.6 551.4 371.6 550.0L371.6 550.0Q371.6 549.1 372.0 548.3Q372.5 547.5 373.5 546.5L373.5 546.5L383.6 536.9Q386.8 533.8 387.8 532.2Q388.9 530.6 388.9 528.8L388.9 528.8Q388.9 526.7 387.4 525.3Q386.0 524 383.7 524L383.7 524Q379.7 524 377.9 528.1L377.9 528.1Q377.3 529.2 376.5 529.7Q375.8 530.1 374.7 530.1L374.7 530.1Q373.3 530.1 372.5 529.4Q371.7 528.6 371.7 527.3L371.7 527.3Q371.7 526.5 372.0 525.7L372.0 525.7Q372.9 522.7 376.0 520.6Q379.2 518.5 383.8 518.5L383.8 518.5Q389.1 518.5 392.4 521.2Q395.8 524.0 395.8 528.3L395.8 528.3Q395.8 529.9 395.4 531.2Q395 532.5 394.0 533.9Q393.1 535.3 391.7 536.8Q390.4 538.2 388.2 540.3L388.2 540.3L380.9 547.3L380.9 547.4L393.6 547.4Q395 547.4 395.8 548.2Q396.6 549.0 396.6 550.3L396.6 550.3Q396.6 551.5 395.8 552.3Q395 553.1 393.6 553.1L393.6 553.1ZM413.6 553.8L413.6 553.8Q409.6 553.8 406.3 552.1Q403.1 550.4 401.8 547.7L401.8 547.7Q401.3 546.5 401.3 545.4L401.3 545.4Q401.3 544.0 402.0 543.3Q402.8 542.5 404.2 542.5L404.2 542.5Q405.3 542.5 406.0 542.9Q406.7 543.3 407.3 544.3L407.3 544.3Q409.3 548.2 413.6 548.2L413.6 548.2Q416.3 548.2 418.1 546.4Q419.9 544.6 419.9 541.9L419.9 541.9Q419.9 539.2 418.1 537.5Q416.4 535.8 413.6 535.8L413.6 535.8Q410.8 535.8 408.7 537.8L408.7 537.8Q407.6 538.8 406.9 539.1Q406.2 539.4 405.0 539.4L405.0 539.4Q403.4 539.4 402.5 538.4Q401.6 537.4 401.7 535.9L401.7 535.9Q401.7 535.8 401.7 535.6L401.7 535.6L402.7 523.3Q402.9 521.1 404.0 520.2Q405.1 519.2 407.2 519.2L407.2 519.2L422 519.2Q423.3 519.2 424.1 520.0Q424.9 520.8 424.9 522.1Q424.9 523.3 424.1 524.1Q423.3 524.9 422 524.9L422 524.9L408.6 524.9L407.8 534.3L408.0 534.3Q409.0 532.6 411.0 531.7Q413.0 530.7 415.6 530.7L415.6 530.7Q420.4 530.7 423.5 533.8Q426.6 536.9 426.6 541.7L426.6 541.7Q426.6 547.1 423.0 550.5Q419.4 553.8 413.6 553.8Z "/><mask id="satori_om-id-0-1-1"><rect x="1013" y="524" width="147" height="36" fill="#fff"/></mask><path fill="#8e8e8e" d="M1016.9 552.6Q1016.5 552.9 1016.0 552.9Q1015.4 552.9 1015.1 552.6Q1014.8 552.2 1014.8 551.7L1014.8 551.7L1014.8 532.6Q1014.8 532.0 1015.1 531.6Q1015.5 531.3 1016.1 531.3Q1016.6 531.3 1017.0 531.6Q1017.3 532.0 1017.3 532.6L1017.3 532.6L1017.3 540.0L1017.4 540.0Q1018.1 538.7 1019.4 537.9Q1020.7 537.2 1022.3 537.2L1022.3 537.2Q1025.2 537.2 1026.9 539.3Q1028.7 541.5 1028.7 545.0L1028.7 545.0Q1028.7 548.6 1026.9 550.8Q1025.2 552.9 1022.2 552.9L1022.2 552.9Q1020.6 552.9 1019.3 552.2Q1018.0 551.4 1017.3 550.1L1017.3 550.1L1017.2 550.1L1017.2 551.7Q1017.2 552.2 1016.9 552.6ZM1021.7 550.7L1021.7 550.7Q1023.8 550.7 1024.9 549.2Q1026.1 547.7 1026.1 545.0L1026.1 545.0Q1026.1 542.5 1024.9 540.9Q1023.8 539.4 1021.7 539.4L1021.7 539.4Q1019.8 539.4 1018.6 541.0Q1017.3 542.5 1017.3 545.0L1017.3 545.0Q1017.3 547.6 1018.6 549.1Q1019.8 550.7 1021.7 550.7ZM1032.8 558.4L1032.8 558.4Q1031.9 558.4 1031.4 558.0Q1030.9 557.7 1030.9 557.1L1030.9 557.1Q1030.9 556.7 1031.1 556.4Q1031.4 556.2 1031.9 556.2L1031.9 556.2Q1032.1 556.2 1032.3 556.2Q1032.5 556.2 1032.7 556.2L1032.7 556.2Q1034.4 556.2 1035.2 553.7L1035.2 553.7L1035.6 552.7L1030.3 539.0Q1030.2 538.6 1030.2 538.3L1030.2 538.3Q1030.2 537.8 1030.6 537.5Q1030.9 537.2 1031.5 537.2L1031.5 537.2Q1032.4 537.2 1032.7 538.1L1032.7 538.1L1036.9 550.1L1037.0 550.1L1041.2 538.1Q1041.3 537.6 1041.6 537.4Q1041.9 537.2 1042.4 537.2L1042.4 537.2Q1042.9 537.2 1043.3 537.5Q1043.6 537.8 1043.6 538.3L1043.6 538.3Q1043.6 538.6 1043.5 539.0L1043.5 539.0L1037.9 553.7Q1036.9 556.4 1035.8 557.4Q1034.7 558.4 1032.8 558.4Z M1066.9 550.9Q1064.7 553.0 1060.8 553.0Q1056.9 553.0 1054.7 550.9Q1052.4 548.7 1052.4 545.3L1052.4 545.3L1052.4 532.7Q1052.4 532.1 1052.8 531.7Q1053.1 531.3 1053.7 531.3Q1054.3 531.3 1054.7 531.7Q1055.0 532.1 1055.0 532.7L1055.0 532.7L1055.0 545.1Q1055.0 547.5 1056.6 549.1Q1058.1 550.6 1060.8 550.6Q1063.5 550.6 1065.0 549.1Q1066.6 547.5 1066.6 545.1L1066.6 545.1L1066.6 532.7Q1066.6 532.1 1066.9 531.7Q1067.3 531.3 1067.9 531.3Q1068.5 531.3 1068.8 531.7Q1069.2 532.1 1069.2 532.7L1069.2 532.7L1069.2 545.3Q1069.2 548.7 1066.9 550.9ZM1075.6 552.6Q1075.2 552.9 1074.6 552.9Q1074.0 552.9 1073.7 552.6Q1073.3 552.2 1073.3 551.6L1073.3 551.6L1073.3 532.9Q1073.3 532.3 1073.7 531.9Q1074.0 531.5 1074.6 531.5L1074.6 531.5L1081.2 531.5Q1084.3 531.5 1086.1 533.2Q1088.0 535.0 1088.0 537.8L1088.0 537.8Q1088.0 540.0 1086.8 541.6Q1085.7 543.3 1083.7 543.9L1083.7 543.9L1087.6 550.8Q1087.9 551.3 1087.9 551.7L1087.9 551.7Q1087.9 552.2 1087.5 552.6Q1087.1 552.9 1086.5 552.9L1086.5 552.9Q1086.1 552.9 1085.8 552.7Q1085.5 552.5 1085.2 552.1L1085.2 552.1L1081.0 544.3L1075.9 544.3L1075.9 551.6Q1075.9 552.2 1075.6 552.6ZM1075.9 533.9L1075.9 542.0L1081.0 542.0Q1083.0 542.0 1084.1 540.9Q1085.2 539.9 1085.2 537.9L1085.2 537.9Q1085.2 536.0 1084.1 534.9Q1082.9 533.9 1080.9 533.9L1080.9 533.9L1075.9 533.9ZM1099.4 545.3L1091.9 545.3Q1091.3 545.3 1091.0 545.0Q1090.6 544.6 1090.6 544.1Q1090.6 543.6 1091.0 543.2Q1091.3 542.9 1091.9 542.9L1091.9 542.9L1099.4 542.9Q1100.0 542.9 1100.3 543.2Q1100.7 543.6 1100.7 544.1Q1100.7 544.6 1100.3 545.0Q1100.0 545.3 1099.4 545.3L1099.4 545.3ZM1106.4 552.6Q1106.0 552.9 1105.4 552.9Q1104.8 552.9 1104.5 552.6Q1104.1 552.2 1104.1 551.6L1104.1 551.6L1104.1 532.9Q1104.1 532.3 1104.5 531.9Q1104.8 531.5 1105.4 531.5L1105.4 531.5L1112.1 531.5Q1115.1 531.5 1117.0 533.2Q1118.8 535.0 1118.8 537.8L1118.8 537.8Q1118.8 540.0 1117.7 541.6Q1116.5 543.3 1114.5 543.9L1114.5 543.9L1118.4 550.8Q1118.7 551.3 1118.7 551.7L1118.7 551.7Q1118.7 552.2 1118.3 552.6Q1117.9 552.9 1117.3 552.9L1117.3 552.9Q1116.9 552.9 1116.6 552.7Q1116.3 552.5 1116.1 552.1L1116.1 552.1L1111.8 544.3L1106.8 544.3L1106.8 551.6Q1106.8 552.2 1106.4 552.6ZM1106.8 533.9L1106.8 542.0L1111.8 542.0Q1113.9 542.0 1115.0 540.9Q1116.1 539.9 1116.1 537.9L1116.1 537.9Q1116.1 536.0 1114.9 534.9Q1113.8 533.9 1111.7 533.9L1111.7 533.9L1106.8 533.9ZM1122.2 552.9L1122.2 552.9Q1121.6 552.9 1121.2 552.5Q1120.9 552.2 1120.9 551.7L1120.9 551.7Q1120.9 551.4 1121.0 551.0L1121.0 551.0L1127.8 532.6Q1128.3 531.3 1129.5 531.3L1129.5 531.3Q1130.7 531.3 1131.2 532.6L1131.2 532.6L1138.0 551.0Q1138.2 551.4 1138.2 551.7L1138.2 551.7Q1138.2 552.2 1137.8 552.5Q1137.4 552.9 1136.9 552.9L1136.9 552.9Q1135.9 552.9 1135.6 551.9L1135.6 551.9L1133.7 546.6L1125.3 546.6L1123.5 551.9Q1123.1 552.9 1122.2 552.9ZM1129.5 534.7L1126.1 544.4L1132.9 544.4L1129.6 534.7L1129.5 534.7ZM1148.1 552.7L1142.3 552.7Q1141.7 552.7 1141.4 552.3Q1141.0 551.9 1141.0 551.3L1141.0 551.3L1141.0 532.9Q1141.0 532.3 1141.4 531.9Q1141.7 531.5 1142.3 531.5L1142.3 531.5L1148.1 531.5Q1152.8 531.5 1155.5 534.3Q1158.1 537.1 1158.1 542.1L1158.1 542.1Q1158.1 547.1 1155.5 549.9Q1152.8 552.7 1148.1 552.7L1148.1 552.7ZM1143.7 533.9L1143.7 550.3L1148.0 550.3Q1151.5 550.3 1153.5 548.2Q1155.4 546.1 1155.4 542.1L1155.4 542.1Q1155.4 538.1 1153.5 536.0Q1151.6 533.9 1148.0 533.9L1148.0 533.9L1143.7 533.9Z "/></svg>