<svg width="1200" height="630" viewBox="0 0 1200 630" xmlns="http://www.w3.org/2000/svg"><mask id="satori_om-id"><rect x="0" y="0" width="1200" height="630" fill="#fff"/></mask><mask id="satori_om-id-0"><rect x="0" y="0" width="1200" height="630" fill="#fff"/></mask><rect x="0" y="0" width="1200" height="630" fill="#f2f2f2"/><mask id="satori_om-id-0-0"><rect x="0" y="0" width="1200" height="441" fill="#fff"/></mask><mask id="satori_om-id-0-0-0"><rect x="40" y="56" width="1120" height="27" fill="#fff"/></mask><path fill="#8e8e8e" d="M49.1 84.5Q48.6 84.9 47.9 84.9Q47.1 84.9 46.7 84.5Q46.2 84.1 46.0 83.3L46.0 83.3L41.1 65.8Q41.0 65.2 41.0 64.8L41.0 64.8Q41.0 64.1 41.4 63.7Q41.8 63.3 42.6 63.3L42.6 63.3Q43.9 63.3 44.2 64.7L44.2 64.7L48.0 80.1L48.1 80.1L52.2 64.9Q52.5 64.1 52.9 63.7Q53.3 63.3 54.1 63.3L54.1 63.3Q54.8 63.3 55.3 63.7Q55.7 64.1 55.9 64.9L55.9 64.9L60.1 80.1L60.2 80.1L64.0 64.7Q64.3 63.3 65.6 63.3L65.6 63.3Q66.3 63.3 66.8 63.7Q67.2 64.1 67.2 64.8L67.2 64.8Q67.2 65.2 67.1 65.8L67.1 65.8L62.2 83.3Q61.9 84.1 61.5 84.5Q61.0 84.9 60.3 84.9L60.3 84.9Q59.5 84.9 59.1 84.5Q58.6 84.2 58.4 83.3L58.4 83.3L54.2 68.7L54.0 68.7L49.8 83.3Q49.6 84.1 49.1 84.5ZM76.4 85.0L76.4 85.0Q72.9 85.0 71.0 82.9Q69.0 80.8 69.0 77.0L69.0 77.0Q69.0 73.4 71.0 71.2Q72.9 69.0 76.2 69.0L76.2 69.0Q79.3 69.0 81.2 71.0Q83.1 73.0 83.1 76.1L83.1 76.1Q83.1 76.9 82.7 77.3Q82.3 77.8 81.6 77.8L81.6 77.8L72.2 77.8L72.2 77.8Q72.2 79.9 73.3 81.2Q74.5 82.4 76.3 82.4L76.3 82.4Q77.6 82.4 78.5 81.9Q79.4 81.4 80.3 80.2L80.3 80.2Q80.8 79.6 81.4 79.6L81.4 79.6Q82.0 79.6 82.4 80.0Q82.8 80.3 82.8 80.9L82.8 80.9Q82.8 81.3 82.5 81.8L82.5 81.8Q81.8 83.3 80.2 84.1Q78.6 85.0 76.4 85.0ZM72.3 75.5L72.3 75.5L80.0 75.5Q79.9 73.7 78.9 72.6Q77.8 71.5 76.2 71.5L76.2 71.5Q74.5 71.5 73.5 72.6Q72.4 73.7 72.3 75.5ZM91.4 84.9L91.4 84.9Q88.4 84.9 86.7 82.8Q84.9 80.6 84.9 77.0Q84.9 73.3 86.6 71.2Q88.4 69.0 91.3 69.0L91.3 69.0Q93.0 69.0 94.2 69.8Q95.5 70.5 96.2 71.8L96.2 71.8L96.2 71.8L96.2 64.9Q96.2 64.1 96.7 63.7Q97.1 63.2 97.8 63.2L97.8 63.2Q98.5 63.2 99.0 63.7Q99.4 64.2 99.4 64.9L99.4 64.9L99.4 83.4Q99.4 84.1 99.0 84.5Q98.5 84.9 97.8 84.9L97.8 84.9Q97.1 84.9 96.7 84.5Q96.2 84.1 96.2 83.4L96.2 83.4L96.2 81.9L96.2 81.9Q95.6 83.3 94.3 84.1Q93.1 84.9 91.4 84.9ZM92.2 82.2L92.2 82.2Q94.0 82.2 95.1 80.8Q96.3 79.4 96.3 77.0L96.3 77.0Q96.3 74.6 95.1 73.1Q94.0 71.7 92.2 71.7L92.2 71.7Q90.3 71.7 89.2 73.1Q88.1 74.5 88.1 77.0L88.1 77.0Q88.1 79.4 89.2 80.8Q90.3 82.2 92.2 82.2ZM104.2 84.9L104.2 84.9Q103.5 84.9 103.1 84.5Q102.6 84.0 102.6 83.3L102.6 83.3L102.6 70.6Q102.6 69.8 103.0 69.4Q103.5 69.0 104.1 69.0Q104.8 69.0 105.3 69.4Q105.7 69.9 105.7 70.6L105.7 70.6L105.7 71.8L105.8 71.8Q107.1 69.0 110.6 69.0L110.6 69.0Q113.1 69.0 114.5 70.5Q115.9 72.0 115.9 74.7L115.9 74.7L115.9 83.3Q115.9 84.0 115.5 84.5Q115.0 84.9 114.3 84.9L114.3 84.9Q113.6 84.9 113.2 84.5Q112.7 84.0 112.7 83.3L112.7 83.3L112.7 75.3Q112.7 73.5 111.9 72.6Q111.1 71.7 109.5 71.7L109.5 71.7Q107.8 71.7 106.8 72.8Q105.8 73.9 105.8 75.7L105.8 75.7L105.8 83.3Q105.8 84.0 105.4 84.5Q104.9 84.9 104.2 84.9ZM125.6 85.0L125.6 85.0Q122.2 85.0 120.2 82.9Q118.3 80.8 118.3 77.0L118.3 77.0Q118.3 73.4 120.2 71.2Q122.2 69.0 125.4 69.0L125.4 69.0Q128.5 69.0 130.4 71.0Q132.4 73.0 132.4 76.1L132.4 76.1Q132.4 76.9 131.9 77.3Q131.5 77.8 130.8 77.8L130.8 77.8L121.5 77.8L121.5 77.8Q121.5 79.9 122.6 81.2Q123.7 82.4 125.6 82.4L125.6 82.4Q126.9 82.4 127.8 81.9Q128.7 81.4 129.6 80.2L129.6 80.2Q130.0 79.6 130.7 79.6L130.7 79.6Q131.3 79.6 131.6 80.0Q132.0 80.3 132.0 80.9L132.0 80.9Q132.0 81.3 131.8 81.8L131.8 81.8Q131.0 83.3 129.4 84.1Q127.8 85.0 125.6 85.0ZM121.5 75.5L121.5 75.5L129.2 75.5Q129.1 73.7 128.1 72.6Q127.1 71.5 125.4 71.5L125.4 71.5Q123.8 71.5 122.7 72.6Q121.6 73.7 121.5 75.5ZM140.5 85.0L140.5 85.0Q138.2 85.0 136.7 84.1Q135.1 83.3 134.5 81.8L134.5 81.8Q134.4 81.5 134.4 81.2L134.4 81.2Q134.4 80.6 134.7 80.2Q135.1 79.9 135.7 79.9L135.7 79.9Q136.5 79.9 137.1 80.7L137.1 80.7Q137.7 81.7 138.5 82.1Q139.3 82.5 140.6 82.5L140.6 82.5Q142.0 82.5 142.8 82.0Q143.7 81.4 143.7 80.5L143.7 80.5Q143.7 79.7 143.2 79.3Q142.6 78.8 141.4 78.5L141.4 78.5L139.0 78.0Q134.5 76.9 134.5 73.6L134.5 73.6Q134.5 71.5 136.2 70.2Q137.9 69.0 140.6 69.0L140.6 69.0Q142.7 69.0 144.2 69.9Q145.8 70.8 146.1 72.2L146.1 72.2Q146.2 72.6 146.2 72.7L146.2 72.7Q146.2 73.2 145.8 73.5Q145.5 73.9 144.9 73.9L144.9 73.9Q144.1 73.9 143.7 73.2L143.7 73.2Q143.1 72.3 142.4 71.8Q141.6 71.4 140.5 71.4L140.5 71.4Q139.2 71.4 138.4 72.0Q137.6 72.5 137.6 73.4L137.6 73.4Q137.6 74.9 140.0 75.5L140.0 75.5L142.4 76.0Q144.8 76.6 145.8 77.5Q146.9 78.5 146.9 80.2L146.9 80.2Q146.9 82.3 145.1 83.6Q143.3 85.0 140.5 85.0ZM155.1 84.9L155.1 84.9Q152.2 84.9 150.4 82.8Q148.6 80.6 148.6 77.0Q148.6 73.3 150.4 71.2Q152.1 69.0 155.1 69.0L155.1 69.0Q156.7 69.0 158.0 69.8Q159.2 70.5 159.9 71.8L159.9 71.8L160.0 71.8L160.0 64.9Q160.0 64.1 160.4 63.7Q160.8 63.2 161.6 63.2L161.6 63.2Q162.3 63.2 162.7 63.7Q163.1 64.2 163.1 64.9L163.1 64.9L163.1 83.4Q163.1 84.1 162.7 84.5Q162.3 84.9 161.6 84.9L161.6 84.9Q160.9 84.9 160.4 84.5Q160.0 84.1 160.0 83.4L160.0 83.4L160.0 81.9L159.9 81.9Q159.3 83.3 158.1 84.1Q156.8 84.9 155.1 84.9ZM155.9 82.2L155.9 82.2Q157.8 82.2 158.9 80.8Q160.0 79.4 160.0 77.0L160.0 77.0Q160.0 74.6 158.9 73.1Q157.8 71.7 155.9 71.7L155.9 71.7Q154.1 71.7 153.0 73.1Q151.9 74.5 151.9 77.0L151.9 77.0Q151.9 79.4 153.0 80.8Q154.1 82.2 155.9 82.2ZM170.9 84.9L170.9 84.9Q168.6 84.9 167.2 83.6Q165.7 82.3 165.7 80.3L165.7 80.3Q165.7 78.3 167.2 77.1Q168.7 75.9 171.5 75.7L171.5 75.7L175.7 75.5L175.7 74.3Q175.7 73.0 174.9 72.3Q174.1 71.6 172.6 71.6L172.6 71.6Q171.5 71.6 170.7 72.0Q169.9 72.5 169.2 73.5L169.2 73.5Q168.7 74.2 167.9 74.2L167.9 74.2Q167.3 74.2 166.9 73.8Q166.5 73.4 166.5 72.9L166.5 72.9Q166.5 72.3 166.8 71.8L166.8 71.8Q167.4 70.5 169.0 69.8Q170.6 69.0 172.7 69.0L172.7 69.0Q175.5 69.0 177.2 70.4Q178.9 71.7 178.9 74.0L178.9 74.0L178.9 83.3Q178.9 84.1 178.4 84.5Q178.0 84.9 177.3 84.9L177.3 84.9Q176.7 84.9 176.3 84.5Q175.8 84.1 175.8 83.4L175.8 83.4L175.8 82.1L175.7 82.1Q175.1 83.4 173.7 84.2Q172.4 84.9 170.9 84.9ZM171.7 82.4L171.7 82.4Q173.4 82.4 174.6 81.4Q175.7 80.4 175.7 78.9L175.7 78.9L175.7 77.7L171.9 77.9Q170.5 78.0 169.7 78.6Q168.9 79.2 168.9 80.2L168.9 80.2Q168.9 81.2 169.7 81.8Q170.5 82.4 171.7 82.4ZM183.8 90.4L183.8 90.4Q182.7 90.4 182.1 90.0Q181.5 89.6 181.5 88.9L181.5 88.9Q181.5 88.4 181.9 88.1Q182.2 87.8 182.8 87.8L182.8 87.8Q182.9 87.8 183.2 87.8Q183.4 87.8 183.6 87.8L183.6 87.8Q185.2 87.8 185.9 85.7L185.9 85.7L186.2 84.8L181.1 71.3Q180.9 70.9 180.9 70.4L180.9 70.4Q180.9 69.8 181.4 69.4Q181.8 69.0 182.5 69.0L182.5 69.0Q183.1 69.0 183.5 69.3Q183.8 69.5 184.0 70.2L184.0 70.2L188.0 81.8L188.0 81.8L191.9 70.2Q192.1 69.5 192.5 69.3Q192.9 69.0 193.5 69.0L193.5 69.0Q194.1 69.0 194.6 69.4Q195.0 69.8 195.0 70.4L195.0 70.4Q195.0 70.8 194.8 71.3L194.8 71.3L189.5 85.4Q188.5 88.2 187.2 89.3Q186.0 90.4 183.8 90.4ZM199.5 81.1L199.5 81.1Q200.1 81.1 200.5 81.5Q200.9 81.8 200.9 82.4L200.9 82.4Q200.9 82.8 200.8 83.3L200.8 83.3L199.6 88.3Q199.3 89.4 198.2 89.4L198.2 89.4Q197.6 89.4 197.3 89.1Q197.0 88.7 197.0 88.2L197.0 88.2Q197.0 88.1 197.0 87.8L197.0 87.8L198.0 82.4Q198.2 81.1 199.5 81.1Z M224.3 84.7L212.6 84.7Q211.9 84.7 211.5 84.3Q211.1 83.9 211.1 83.3L211.1 83.3Q211.1 82.8 211.3 82.5Q211.4 82.1 212.0 81.6L212.0 81.6L218.6 74.9Q220.7 72.8 221.3 71.7Q222.0 70.6 222.0 69.3L222.0 69.3Q222.0 67.8 221.0 66.8Q219.9 65.8 218.3 65.8L218.3 65.8Q215.2 65.8 214.1 69.0L214.1 69.0Q213.9 69.5 213.5 69.8Q213.2 70.0 212.6 70.0L212.6 70.0Q211.9 70.0 211.6 69.6Q211.2 69.3 211.2 68.6L211.2 68.6Q211.2 68.3 211.3 68.0L211.3 68.0Q211.4 67.1 212.0 66.3Q212.5 65.4 213.4 64.7Q214.3 64.0 215.6 63.6Q216.9 63.1 218.4 63.1L218.4 63.1Q221.4 63.1 223.3 64.8Q225.3 66.5 225.3 69.1L225.3 69.1Q225.3 70.9 224.3 72.5Q223.3 74.0 220.6 76.8L220.6 76.8L215.5 81.8L215.5 81.9L224.3 81.9Q225.0 81.9 225.4 82.3Q225.8 82.7 225.8 83.3L225.8 83.3Q225.8 83.9 225.4 84.3Q225.0 84.7 224.3 84.7L224.3 84.7ZM236.1 85.1L236.1 85.1Q233.7 85.1 231.8 84.0Q229.9 82.9 229.2 81.2L229.2 81.2Q228.8 80.5 228.8 79.8L228.8 79.8Q228.8 79.1 229.2 78.7Q229.6 78.3 230.3 78.3L230.3 78.3Q230.8 78.3 231.2 78.6Q231.5 78.8 231.8 79.4L231.8 79.4Q232.3 80.8 233.4 81.5Q234.5 82.3 236.1 82.3L236.1 82.3Q238.1 82.3 239.4 81.0Q240.6 79.8 240.6 77.8L240.6 77.8Q240.6 75.8 239.4 74.6Q238.1 73.4 236.1 73.4L236.1 73.4Q234.0 73.4 232.7 74.7L232.7 74.7Q232.0 75.5 231.6 75.6Q231.3 75.8 230.7 75.8L230.7 75.8Q229.9 75.8 229.5 75.4Q229.1 74.9 229.1 74.2L229.1 74.2L229.1 73.9L229.8 65.8Q229.9 64.6 230.5 64.0Q231.1 63.5 232.3 63.5L232.3 63.5L241.3 63.5Q242.0 63.5 242.4 63.9Q242.8 64.3 242.8 64.9Q242.8 65.5 242.4 65.9Q242.0 66.3 241.3 66.3L241.3 66.3L232.7 66.3L232.1 72.9L232.1 72.9Q232.8 71.9 234.1 71.3Q235.3 70.8 236.9 70.8L236.9 70.8Q239.9 70.8 241.9 72.7Q243.8 74.6 243.8 77.7L243.8 77.7Q243.8 81.0 241.7 83.0Q239.5 85.1 236.1 85.1Z M269.3 82.1Q266.6 85.0 262.0 85.0Q257.5 85.0 254.8 82.1Q252.1 79.1 252.1 74.1Q252.1 69.1 254.8 66.1Q257.5 63.2 262.0 63.2L262.0 63.2Q266.6 63.2 269.3 66.1Q271.9 69.1 271.9 74.1Q271.9 79.1 269.3 82.1ZM262.0 82.1L262.0 82.1Q265.0 82.1 266.8 80.0Q268.6 77.8 268.6 74.1L268.6 74.1Q268.6 70.4 266.8 68.2Q265.0 66.1 262.0 66.1L262.0 66.1Q259.0 66.1 257.2 68.2Q255.5 70.4 255.5 74.1L255.5 74.1Q255.5 77.8 257.2 80.0Q259.0 82.1 262.0 82.1ZM281.3 85.0L281.3 85.0Q277.9 85.0 276.0 82.8Q274.0 80.7 274.0 77.0L274.0 77.0Q274.0 73.3 276.0 71.2Q277.9 69.0 281.2 69.0L281.2 69.0Q283.4 69.0 285.2 70.0Q286.9 71.1 287.4 72.7L287.4 72.7Q287.6 73.1 287.6 73.4L287.6 73.4Q287.6 74.0 287.2 74.4Q286.8 74.7 286.2 74.7L286.2 74.7Q285.7 74.7 285.4 74.5Q285.1 74.3 284.8 73.8L284.8 73.8Q284.2 72.7 283.3 72.1Q282.5 71.6 281.3 71.6L281.3 71.6Q279.4 71.6 278.3 73.1Q277.2 74.5 277.2 77.0L277.2 77.0Q277.2 79.4 278.3 80.9Q279.4 82.3 281.3 82.3L281.3 82.3Q283.6 82.3 284.8 80.2L284.8 80.2Q285.1 79.6 285.4 79.4Q285.7 79.2 286.3 79.2L286.3 79.2Q286.8 79.2 287.2 79.6Q287.6 79.9 287.6 80.5L287.6 80.5Q287.6 80.9 287.4 81.3L287.4 81.3Q286.8 82.9 285.1 83.9Q283.4 85.0 281.3 85.0ZM291.1 81.0L291.1 81.0L291.1 71.8L290.0 71.8Q289.4 71.8 289.0 71.4Q288.7 71.1 288.7 70.5Q288.7 69.9 289.0 69.6Q289.4 69.3 290.0 69.3L290.0 69.3L291.1 69.3L291.1 67.0Q291.1 66.2 291.5 65.7Q292.0 65.3 292.7 65.3Q293.4 65.3 293.8 65.7Q294.3 66.2 294.3 67.0L294.3 67.0L294.3 69.3L296.1 69.3Q296.7 69.3 297.0 69.6Q297.4 69.9 297.4 70.5Q297.4 71.1 297.0 71.4Q296.7 71.8 296.1 71.8L296.1 71.8L294.3 71.8L294.3 80.3Q294.3 81.2 294.6 81.6Q295.0 82.1 295.8 82.1L295.8 82.1L296.1 82.2Q297.4 82.3 297.4 83.4L297.4 83.4Q297.4 84.8 295.2 84.8L295.2 84.8L295 84.8Q291.1 84.8 291.1 81.0ZM311.7 82.8Q309.7 85.0 306.4 85.0Q303.1 85.0 301.1 82.8Q299.1 80.7 299.1 77.0L299.1 77.0Q299.1 73.3 301.1 71.1Q303.1 69.0 306.4 69.0Q309.7 69.0 311.7 71.1Q313.7 73.3 313.7 77.0L313.7 77.0Q313.7 80.7 311.7 82.8ZM306.4 82.3L306.4 82.3Q308.3 82.3 309.4 80.9Q310.5 79.5 310.5 77.0L310.5 77.0Q310.5 74.4 309.4 73.0Q308.3 71.6 306.4 71.6Q304.5 71.6 303.4 73.0Q302.3 74.4 302.3 77.0L302.3 77.0Q302.3 79.5 303.4 80.9Q304.5 82.3 306.4 82.3ZM317.8 84.9L317.8 84.9Q317.1 84.9 316.7 84.5Q316.3 84.1 316.3 83.4L316.3 83.4L316.3 64.9Q316.3 64.2 316.7 63.7Q317.2 63.2 317.9 63.2Q318.6 63.2 319.0 63.7Q319.4 64.2 319.4 64.9L319.4 64.9L319.4 71.9L319.5 71.9Q320.2 70.5 321.5 69.8Q322.8 69.0 324.4 69.0L324.4 69.0Q327.3 69.0 329.1 71.2Q330.8 73.3 330.8 77.0L330.8 77.0Q330.8 80.6 329.1 82.8Q327.3 84.9 324.4 84.9L324.4 84.9Q322.7 84.9 321.4 84.2Q320.1 83.4 319.4 82.0L319.4 82.0L319.4 82.0L319.4 83.4Q319.4 84.1 318.9 84.5Q318.5 84.9 317.8 84.9ZM323.5 82.2L323.5 82.2Q325.4 82.2 326.5 80.8Q327.6 79.4 327.6 77.0L327.6 77.0Q327.6 74.5 326.5 73.1Q325.4 71.7 323.5 71.7L323.5 71.7Q321.7 71.7 320.6 73.1Q319.4 74.6 319.4 77.0L319.4 77.0Q319.4 79.3 320.6 80.8Q321.7 82.2 323.5 82.2ZM339.9 85.0L339.9 85.0Q336.5 85.0 334.5 82.9Q332.6 80.8 332.6 77.0L332.6 77.0Q332.6 73.4 334.5 71.2Q336.5 69.0 339.7 69.0L339.7 69.0Q342.8 69.0 344.7 71.0Q346.7 73.0 346.7 76.1L346.7 76.1Q346.7 76.9 346.2 77.3Q345.8 77.8 345.1 77.8L345.1 77.8L335.8 77.8L335.8 77.8Q335.8 79.9 336.9 81.2Q338.0 82.4 339.9 82.4L339.9 82.4Q341.2 82.4 342.1 81.9Q343.0 81.4 343.9 80.2L343.9 80.2Q344.3 79.6 345.0 79.6L345.0 79.6Q345.6 79.6 345.9 80.0Q346.3 80.3 346.3 80.9L346.3 80.9Q346.3 81.3 346.1 81.8L346.1 81.8Q345.3 83.3 343.7 84.1Q342.1 85.0 339.9 85.0ZM335.8 75.5L335.8 75.5L343.5 75.5Q343.4 73.7 342.4 72.6Q341.4 71.5 339.7 71.5L339.7 71.5Q338.1 71.5 337.0 72.6Q335.9 73.7 335.8 75.5ZM350.7 84.9L350.7 84.9Q350.0 84.9 349.5 84.5Q349.1 84.0 349.1 83.3L349.1 83.3L349.1 70.6Q349.1 69.9 349.5 69.4Q349.9 69.0 350.6 69.0L350.6 69.0Q351.3 69.0 351.7 69.4Q352.1 69.9 352.1 70.6L352.1 70.6L352.1 71.9L352.2 71.9Q352.5 70.6 353.4 69.8Q354.4 69.0 355.6 69.0L355.6 69.0Q356.4 69.0 356.8 69.4L356.8 69.4Q357.2 69.7 357.2 70.5L357.2 70.5Q357.2 71.2 356.8 71.6L356.8 71.6Q356.3 72.0 355.3 72.0L355.3 72.0Q353.8 72.0 353.0 73.0Q352.3 73.9 352.3 75.4L352.3 75.4L352.3 83.3Q352.3 84.0 351.8 84.5Q351.4 84.9 350.7 84.9Z M378.3 84.7L366.6 84.7Q365.9 84.7 365.4 84.3Q365.0 83.9 365.0 83.3L365.0 83.3Q365.0 82.8 365.2 82.5Q365.4 82.1 365.9 81.6L365.9 81.6L372.5 74.9Q374.6 72.8 375.3 71.7Q376.0 70.6 376.0 69.3L376.0 69.3Q376.0 67.8 374.9 66.8Q373.9 65.8 372.3 65.8L372.3 65.8Q369.2 65.8 368.1 69.0L368.1 69.0Q367.8 69.5 367.5 69.8Q367.1 70.0 366.6 70.0L366.6 70.0Q365.9 70.0 365.5 69.6Q365.1 69.3 365.1 68.6L365.1 68.6Q365.1 68.3 365.2 68.0L365.2 68.0Q365.4 67.1 365.9 66.3Q366.5 65.4 367.3 64.7Q368.2 64.0 369.5 63.6Q370.8 63.1 372.3 63.1L372.3 63.1Q375.3 63.1 377.3 64.8Q379.2 66.5 379.2 69.1L379.2 69.1Q379.2 70.9 378.2 72.5Q377.3 74.0 374.5 76.8L374.5 76.8L369.5 81.8L369.5 81.9L378.3 81.9Q378.9 81.9 379.3 82.3Q379.7 82.7 379.7 83.3L379.7 83.3Q379.7 83.9 379.3 84.3Q378.9 84.7 378.3 84.7L378.3 84.7ZM396.1 82.1Q394.0 85.1 390.2 85.1Q386.4 85.1 384.3 82.1Q382.1 79.2 382.1 74.1L382.1 74.1Q382.1 69.0 384.3 66.1Q386.4 63.1 390.2 63.1L390.2 63.1Q394.0 63.1 396.1 66.1Q398.3 69.0 398.3 74.1L398.3 74.1Q398.3 79.1 396.1 82.1ZM390.2 82.3L390.2 82.3Q392.5 82.3 393.7 80.1Q395.0 77.9 395.0 74.1L395.0 74.1Q395.0 70.3 393.7 68.1Q392.5 65.9 390.2 65.9Q387.9 65.9 386.7 68.1Q385.4 70.3 385.4 74.1L385.4 74.1Q385.4 77.9 386.7 80.1Q387.9 82.3 390.2 82.3ZM414.4 84.7L402.7 84.7Q401.9 84.7 401.5 84.3Q401.1 83.9 401.1 83.3L401.1 83.3Q401.1 82.8 401.3 82.5Q401.5 82.1 402.0 81.6L402.0 81.6L408.6 74.9Q410.7 72.8 411.4 71.7Q412.1 70.6 412.1 69.3L412.1 69.3Q412.1 67.8 411.0 66.8Q410.0 65.8 408.4 65.8L408.4 65.8Q405.3 65.8 404.1 69.0L404.1 69.0Q403.9 69.5 403.6 69.8Q403.2 70.0 402.7 70.0L402.7 70.0Q402.0 70.0 401.6 69.6Q401.2 69.3 401.2 68.6L401.2 68.6Q401.2 68.3 401.3 68.0L401.3 68.0Q401.5 67.1 402.0 66.3Q402.6 65.4 403.4 64.7Q404.3 64.0 405.6 63.6Q406.9 63.1 408.4 63.1L408.4 63.1Q411.4 63.1 413.4 64.8Q415.3 66.5 415.3 69.1L415.3 69.1Q415.3 70.9 414.3 72.5Q413.3 74.0 410.6 76.8L410.6 76.8L405.6 81.8L405.6 81.9L414.4 81.9Q415.0 81.9 415.4 82.3Q415.8 82.7 415.8 83.3L415.8 83.3Q415.8 83.9 415.4 84.3Q415.0 84.7 414.4 84.7L414.4 84.7ZM425.9 85.1L425.9 85.1Q423.4 85.1 421.6 84.1Q419.8 83.2 418.9 81.6L418.9 81.6Q418.5 80.8 418.5 80.0L418.5 80.0Q418.5 79.3 418.9 78.9Q419.3 78.5 420.0 78.5L420.0 78.5Q420.5 78.5 420.9 78.8Q421.2 79.1 421.4 79.6L421.4 79.6Q422.6 82.3 426.0 82.3L426.0 82.3Q427.9 82.3 429.1 81.3Q430.2 80.4 430.3 78.8L430.3 78.8Q430.3 77.0 429.1 76.0Q427.8 75.0 425.7 75.0L425.7 75.0L424.3 75.0Q423.7 75.0 423.3 74.7Q422.9 74.3 422.9 73.8Q422.9 73.2 423.3 72.8Q423.7 72.5 424.3 72.5L424.3 72.5L425.6 72.5Q427.4 72.5 428.5 71.5Q429.7 70.6 429.7 69.1L429.7 69.1Q429.7 67.6 428.7 66.7Q427.7 65.8 425.9 65.8L425.9 65.8Q424.3 65.8 423.4 66.5Q422.4 67.1 421.8 68.5L421.8 68.5Q421.6 69.1 421.3 69.4Q420.9 69.6 420.4 69.6L420.4 69.6Q419.7 69.6 419.3 69.3Q418.9 68.9 418.9 68.2L418.9 68.2Q418.9 67.4 419.3 66.6L419.3 66.6Q420.2 65.0 421.9 64.1Q423.6 63.1 425.9 63.1L425.9 63.1Q429.1 63.1 431.0 64.7Q432.9 66.2 432.9 68.6L432.9 68.6Q432.9 70.6 431.6 71.9Q430.4 73.2 428.4 73.6L428.4 73.6L428.4 73.7Q430.8 73.9 432.2 75.3Q433.6 76.6 433.6 78.8L433.6 78.8Q433.6 81.6 431.4 83.3Q429.3 85.1 425.9 85.1Z "/><mask id="satori_om-id-0-0-1"><rect x="40" y="129" width="1120" height="251" fill="#fff"/></mask><path fill="#224d67" d="M47.5 192.1L47.5 192.1Q45.7 192.1 44.7 191.0Q43.7 190.0 43.7 188.2L43.7 188.2L43.7 152.7Q43.7 150.9 44.7 149.8Q45.7 148.8 47.5 148.8L47.5 148.8Q49.3 148.8 50.3 149.8Q51.3 150.9 51.3 152.7L51.3 152.7L51.3 188.2Q51.3 190.0 50.3 191.1Q49.3 192.1 47.5 192.1ZM64.3 191.2Q63.3 192.2 61.6 192.2Q60.0 192.2 59.0 191.2Q58.0 190.1 58.0 188.3L58.0 188.3L58.0 163.6Q58.0 161.9 58.9 160.9Q59.9 159.9 61.5 159.9Q63.1 159.9 64.1 160.9Q65.1 161.9 65.1 163.6L65.1 163.6L65.1 165.8L65.2 165.8Q67.9 159.9 74.9 159.9L74.9 159.9Q80.0 159.9 82.8 163.0Q85.6 166.1 85.6 171.5L85.6 171.5L85.6 188.3Q85.6 190.1 84.6 191.2Q83.7 192.2 82.0 192.2Q80.4 192.2 79.4 191.2Q78.3 190.1 78.3 188.3L78.3 188.3L78.3 173.0Q78.3 169.6 76.8 167.9Q75.2 166.1 72.1 166.1L72.1 166.1Q69.0 166.1 67.1 168.2Q65.3 170.2 65.3 173.6L65.3 173.6L65.3 188.3Q65.3 190.1 64.3 191.2ZM103.9 192.2L103.9 192.2Q101.9 192.2 100.7 191.3Q99.5 190.4 98.8 188.4L98.8 188.4L90.0 165.3Q89.6 164.2 89.6 163.2L89.6 163.2Q89.6 161.8 90.7 160.8Q91.7 159.9 93.3 159.9L93.3 159.9Q95.9 159.9 96.7 162.8L96.7 162.8L103.8 184.8L104.0 184.8L111.1 162.8Q111.9 159.9 114.5 159.9L114.5 159.9Q116.0 159.9 117.0 160.8Q118.0 161.8 118.0 163.2L118.0 163.2Q118.0 164.2 117.7 165.2L117.7 165.2L108.9 188.4Q108.3 190.3 107.0 191.3Q105.8 192.2 103.9 192.2ZM135.9 192.2L135.9 192.2Q128.8 192.2 124.8 188.0Q120.9 183.7 120.9 176.2L120.9 176.2Q120.9 168.7 124.8 164.3Q128.8 159.9 135.5 159.9L135.5 159.9Q141.9 159.9 145.9 163.9Q149.8 168.0 149.8 174.4L149.8 174.4Q149.8 176.0 148.9 176.9Q148.0 177.8 146.4 177.8L146.4 177.8L128.1 177.8L128.1 178.0Q128.1 181.9 130.2 184.3Q132.3 186.6 135.9 186.6L135.9 186.6Q138.3 186.6 140.1 185.6Q141.9 184.7 143.7 182.4L143.7 182.4Q144.7 181.3 146.1 181.3L146.1 181.3Q147.4 181.3 148.2 182.0Q149.0 182.8 149.0 184.1L149.0 184.1Q149.0 184.9 148.5 185.9L148.5 185.9Q147.0 188.9 143.7 190.5Q140.4 192.2 135.9 192.2ZM128.2 173.0L128.2 173.0L142.7 173.0Q142.6 169.6 140.6 167.6Q138.6 165.5 135.6 165.5Q132.5 165.5 130.4 167.6Q128.4 169.7 128.2 173.0ZM166.5 192.2L166.5 192.2Q161.7 192.2 158.3 190.5Q155.0 188.8 153.8 186.0L153.8 186.0Q153.6 185.2 153.6 184.5L153.6 184.5Q153.6 183.2 154.4 182.4Q155.3 181.6 156.6 181.6L156.6 181.6Q158.4 181.6 159.8 183.4L159.8 183.4Q161.0 185.3 162.6 186.1Q164.2 186.9 166.8 186.9L166.8 186.9Q169.3 186.9 170.9 185.9Q172.4 184.8 172.4 183.1L172.4 183.1Q172.4 181.7 171.4 180.8Q170.4 180.0 168.1 179.4L168.1 179.4L163.0 178.3Q154.0 176.3 154.0 169.4L154.0 169.4Q154.0 165.1 157.4 162.5Q160.9 159.9 166.6 159.9L166.6 159.9Q171.0 159.9 174.2 161.8Q177.5 163.6 178.2 166.4L178.2 166.4Q178.3 167.0 178.3 167.5L178.3 167.5Q178.3 168.6 177.6 169.4Q176.9 170.1 175.5 170.1L175.5 170.1Q173.7 170.1 172.7 168.7L172.7 168.7Q171.6 167.0 170.1 166.1Q168.6 165.2 166.4 165.2L166.4 165.2Q164.0 165.2 162.5 166.3Q161.1 167.3 161.1 169.0L161.1 169.0Q161.1 171.8 165.6 172.8L165.6 172.8L170.6 173.9Q175.5 175.0 177.6 176.9Q179.7 178.9 179.7 182.3L179.7 182.3Q179.7 186.8 176.1 189.5Q172.5 192.2 166.5 192.2ZM186.4 183.9L186.4 183.9L186.4 166.1L184.4 166.1Q183.1 166.1 182.3 165.4Q181.5 164.6 181.5 163.3L181.5 163.3Q181.5 162.0 182.3 161.3Q183.0 160.5 184.4 160.5L184.4 160.5L186.4 160.5L186.4 156.4Q186.4 154.6 187.3 153.6Q188.3 152.6 190.0 152.6L190.0 152.6Q191.7 152.6 192.7 153.6Q193.7 154.6 193.7 156.4L193.7 156.4L193.7 160.5L197.0 160.5Q198.4 160.5 199.2 161.3Q200.0 162.0 200.0 163.3L200.0 163.3Q200.0 164.6 199.2 165.4Q198.4 166.1 197.0 166.1L197.0 166.1L193.7 166.1L193.7 182.3Q193.7 184.1 194.3 184.9Q195.0 185.7 196.6 185.9L196.6 185.9L197.1 185.9Q200.0 186.2 200.0 188.6L200.0 188.6Q200.0 190.2 198.7 191.1Q197.4 191.9 194.8 191.9L194.8 191.9L194.5 191.9Q186.4 191.9 186.4 183.9ZM211.2 155.0Q210.0 156.2 208.3 156.2Q206.6 156.2 205.4 155.0Q204.2 153.8 204.2 152.2L204.2 152.2Q204.2 150.5 205.4 149.4Q206.6 148.2 208.3 148.2L208.3 148.2Q210.0 148.2 211.2 149.4Q212.4 150.5 212.4 152.2L212.4 152.2Q212.4 153.8 211.2 155.0ZM210.9 191.1Q210.0 192.2 208.3 192.2Q206.6 192.2 205.6 191.1Q204.6 190.1 204.6 188.3L204.6 188.3L204.6 163.7Q204.6 162.0 205.6 160.9Q206.6 159.9 208.3 159.9Q210.0 159.9 210.9 160.9Q211.9 162.0 211.9 163.8L211.9 163.8L211.9 188.3Q211.9 190.1 210.9 191.1ZM231.5 203.3L231.5 203.3Q227.1 203.2 223.8 201.7Q220.5 200.2 218.9 197.6L218.9 197.6Q218.2 196.6 218.2 195.4L218.2 195.4Q218.2 194.2 219.1 193.4Q219.9 192.6 221.3 192.6L221.3 192.6Q222.7 192.6 224.0 193.8L224.0 193.8Q225.8 195.7 227.6 196.6Q229.3 197.4 231.5 197.5L231.5 197.5Q235.2 197.5 237.3 195.6Q239.4 193.7 239.4 190.6L239.4 190.6L239.4 185.7L239.3 185.7Q238.0 188.2 235.4 189.7Q232.8 191.3 229.6 191.3L229.6 191.3Q223.7 191.3 220.2 187.0Q216.8 182.8 216.8 175.7L216.8 175.7Q216.8 168.4 220.2 164.2Q223.7 160.0 229.7 160.0L229.7 160.0Q232.9 160.0 235.5 161.5Q238.0 163.1 239.3 165.8L239.3 165.8L239.5 165.8L239.5 163.6Q239.5 161.9 240.5 160.9Q241.5 159.9 243.1 159.9Q244.7 159.9 245.7 160.9Q246.7 161.9 246.7 163.6L246.7 163.6L246.7 190.6Q246.7 196.5 242.7 199.9Q238.6 203.3 231.5 203.3ZM231.8 185.6L231.8 185.6Q235.3 185.6 237.4 182.9Q239.5 180.3 239.5 175.7L239.5 175.7Q239.5 171.2 237.4 168.5Q235.3 165.8 231.8 165.8L231.8 165.8Q228.3 165.8 226.3 168.5Q224.2 171.2 224.2 175.7L224.2 175.7Q224.2 180.3 226.3 183.0Q228.3 185.6 231.8 185.6ZM261.8 192.1L261.8 192.1Q257.3 192.1 254.4 189.5Q251.4 186.9 251.4 182.7L251.4 182.7Q251.4 178.6 254.5 176.2Q257.6 173.8 263.2 173.4L263.2 173.4L271.5 172.9L271.5 170.7Q271.5 168.3 269.9 166.9Q268.4 165.6 265.7 165.6L265.7 165.6Q263.5 165.6 262.0 166.4Q260.5 167.2 259.2 169.2L259.2 169.2Q258.1 170.7 256.2 170.7L256.2 170.7Q254.9 170.7 254.0 169.9Q253.1 169.1 253.1 167.8L253.1 167.8Q253.1 166.8 253.6 165.8L253.6 165.8Q254.8 163.1 258.2 161.5Q261.5 159.9 266.0 159.9L266.0 159.9Q271.7 159.9 275.2 162.7Q278.7 165.5 278.7 170.2L278.7 170.2L278.7 188.5Q278.7 190.2 277.7 191.2Q276.7 192.2 275.1 192.2L275.1 192.2Q273.6 192.2 272.7 191.3Q271.7 190.4 271.7 188.8L271.7 188.8L271.7 186.6L271.5 186.6Q270.2 189.1 267.5 190.6Q264.9 192.1 261.8 192.1ZM264.0 186.6L264.0 186.6Q267.1 186.6 269.3 184.7Q271.5 182.8 271.5 180.1L271.5 180.1L271.5 177.7L264.3 178.1Q261.6 178.3 260.2 179.4Q258.7 180.6 258.7 182.4L258.7 182.4Q258.7 184.3 260.2 185.4Q261.6 186.6 264.0 186.6ZM286.6 183.9L286.6 183.9L286.6 166.1L284.6 166.1Q283.3 166.1 282.5 165.4Q281.7 164.6 281.7 163.3L281.7 163.3Q281.7 162.0 282.4 161.3Q283.2 160.5 284.6 160.5L284.6 160.5L286.6 160.5L286.6 156.4Q286.6 154.6 287.5 153.6Q288.5 152.6 290.2 152.6L290.2 152.6Q291.9 152.6 292.9 153.6Q293.9 154.6 293.9 156.4L293.9 156.4L293.9 160.5L297.2 160.5Q298.6 160.5 299.4 161.3Q300.2 162.0 300.2 163.3L300.2 163.3Q300.2 164.6 299.4 165.4Q298.6 166.1 297.2 166.1L297.2 166.1L293.9 166.1L293.9 182.3Q293.9 184.1 294.5 184.9Q295.2 185.7 296.8 185.9L296.8 185.9L297.3 185.9Q300.2 186.2 300.2 188.6L300.2 188.6Q300.2 190.2 298.9 191.1Q297.5 191.9 295.0 191.9L295.0 191.9L294.7 191.9Q286.6 191.9 286.6 183.9ZM311.4 155.0Q310.2 156.2 308.5 156.2Q306.8 156.2 305.6 155.0Q304.4 153.8 304.4 152.2L304.4 152.2Q304.4 150.5 305.6 149.4Q306.8 148.2 308.5 148.2L308.5 148.2Q310.2 148.2 311.4 149.4Q312.5 150.5 312.5 152.2L312.5 152.2Q312.5 153.8 311.4 155.0ZM311.1 191.1Q310.1 192.2 308.5 192.2Q306.8 192.2 305.8 191.1Q304.8 190.1 304.8 188.3L304.8 188.3L304.8 163.7Q304.8 162.0 305.8 160.9Q306.8 159.9 308.5 159.9Q310.1 159.9 311.1 160.9Q312.1 162.0 312.1 163.8L312.1 163.8L312.1 188.3Q312.1 190.1 311.1 191.1ZM324.5 191.2Q323.5 192.2 321.9 192.2Q320.3 192.2 319.3 191.2Q318.3 190.1 318.3 188.3L318.3 188.3L318.3 163.6Q318.3 161.9 319.2 160.9Q320.1 159.9 321.7 159.9Q323.4 159.9 324.4 160.9Q325.4 161.9 325.4 163.6L325.4 163.6L325.4 165.8L325.5 165.8Q328.1 159.9 335.2 159.9L335.2 159.9Q340.3 159.9 343.1 163.0Q345.9 166.1 345.9 171.5L345.9 171.5L345.9 188.3Q345.9 190.1 344.9 191.2Q343.9 192.2 342.3 192.2Q340.6 192.2 339.6 191.2Q338.6 190.1 338.6 188.3L338.6 188.3L338.6 173.0Q338.6 169.6 337.1 167.9Q335.5 166.1 332.4 166.1L332.4 166.1Q329.3 166.1 327.4 168.2Q325.6 170.2 325.6 173.6L325.6 173.6L325.6 188.3Q325.6 190.1 324.5 191.2ZM365.1 203.3L365.1 203.3Q360.8 203.2 357.5 201.7Q354.2 200.2 352.5 197.6L352.5 197.6Q351.9 196.6 351.9 195.4L351.9 195.4Q351.9 194.2 352.8 193.4Q353.6 192.6 355.0 192.6L355.0 192.6Q356.4 192.6 357.6 193.8L357.6 193.8Q359.5 195.7 361.3 196.6Q363.0 197.4 365.2 197.5L365.2 197.5Q368.9 197.5 371.0 195.6Q373.1 193.7 373.1 190.6L373.1 190.6L373.1 185.7L373.0 185.7Q371.7 188.2 369.1 189.7Q366.5 191.3 363.2 191.3L363.2 191.3Q357.4 191.3 353.9 187.0Q350.5 182.8 350.5 175.7L350.5 175.7Q350.5 168.4 353.9 164.2Q357.4 160.0 363.4 160.0L363.4 160.0Q366.6 160.0 369.1 161.5Q371.6 163.1 373.0 165.8L373.0 165.8L373.1 165.8L373.1 163.6Q373.1 161.9 374.2 160.9Q375.2 159.9 376.8 159.9Q378.4 159.9 379.4 160.9Q380.4 161.9 380.4 163.6L380.4 163.6L380.4 190.6Q380.4 196.5 376.4 199.9Q372.3 203.3 365.1 203.3ZM365.5 185.6L365.5 185.6Q369.0 185.6 371.1 182.9Q373.2 180.3 373.2 175.7L373.2 175.7Q373.2 171.2 371.1 168.5Q368.9 165.8 365.5 165.8L365.5 165.8Q362.0 165.8 360.0 168.5Q357.9 171.2 357.9 175.7L357.9 175.7Q357.9 180.3 360.0 183.0Q362.0 185.6 365.5 185.6Z M414.6 191.6L402.9 191.6Q401.1 191.6 400.1 190.5Q399.1 189.5 399.1 187.7L399.1 187.7L399.1 153.2Q399.1 151.4 400.1 150.3Q401.1 149.3 402.9 149.3L402.9 149.3L414.6 149.3Q424.1 149.3 429.4 154.8Q434.7 160.3 434.7 170.3L434.7 170.3Q434.7 180.4 429.4 186.0Q424.1 191.6 414.6 191.6L414.6 191.6ZM406.7 155.7L406.7 185.2L413.8 185.2Q420.2 185.2 423.6 181.4Q427.0 177.6 427.0 170.4L427.0 170.4Q427.0 163.3 423.5 159.5Q420.1 155.7 413.8 155.7L413.8 155.7L406.7 155.7ZM446.6 155.0Q445.4 156.2 443.7 156.2Q442.0 156.2 440.8 155.0Q439.7 153.8 439.7 152.2L439.7 152.2Q439.7 150.5 440.8 149.4Q442.0 148.2 443.7 148.2L443.7 148.2Q445.4 148.2 446.6 149.4Q447.8 150.5 447.8 152.2L447.8 152.2Q447.8 153.8 446.6 155.0ZM446.4 191.1Q445.4 192.2 443.7 192.2Q442.0 192.2 441.1 191.1Q440.1 190.1 440.1 188.3L440.1 188.3L440.1 163.7Q440.1 162.0 441.1 160.9Q442.0 159.9 443.7 159.9Q445.4 159.9 446.4 160.9Q447.4 162.0 447.4 163.8L447.4 163.8L447.4 188.3Q447.4 190.1 446.4 191.1ZM465.5 192.2L465.5 192.2Q460.6 192.2 457.3 190.5Q454.0 188.8 452.8 186.0L452.8 186.0Q452.5 185.2 452.5 184.5L452.5 184.5Q452.5 183.2 453.4 182.4Q454.2 181.6 455.6 181.6L455.6 181.6Q457.4 181.6 458.7 183.4L458.7 183.4Q460 185.3 461.6 186.1Q463.2 186.9 465.7 186.9L465.7 186.9Q468.3 186.9 469.9 185.9Q471.4 184.8 471.4 183.1L471.4 183.1Q471.4 181.7 470.4 180.8Q469.4 180.0 467.0 179.4L467.0 179.4L462.0 178.3Q452.9 176.3 452.9 169.4L452.9 169.4Q452.9 165.1 456.4 162.5Q459.9 159.9 465.6 159.9L465.6 159.9Q470.0 159.9 473.2 161.8Q476.4 163.6 477.2 166.4L477.2 166.4Q477.3 167.0 477.3 167.5L477.3 167.5Q477.3 168.6 476.6 169.4Q475.8 170.1 474.5 170.1L474.5 170.1Q472.7 170.1 471.7 168.7L471.7 168.7Q470.6 167.0 469.1 166.1Q467.6 165.2 465.4 165.2L465.4 165.2Q463.0 165.2 461.5 166.3Q460.0 167.3 460.0 169.0L460.0 169.0Q460.0 171.8 464.6 172.8L464.6 172.8L469.6 173.9Q474.5 175.0 476.6 176.9Q478.7 178.9 478.7 182.3L478.7 182.3Q478.7 186.8 475.1 189.5Q471.4 192.2 465.5 192.2ZM497.0 192.2L497.0 192.2Q490.1 192.2 486.1 187.9Q482.0 183.5 482.0 176.1L482.0 176.1Q482.0 168.7 486.1 164.3Q490.1 159.9 496.9 159.9L496.9 159.9Q501.5 159.9 505.0 162.0Q508.6 164.1 509.7 167.4L509.7 167.4Q510.1 168.4 510.1 169.1L510.1 169.1Q510.1 170.5 509.2 171.3Q508.3 172.1 506.9 172.1L506.9 172.1Q505.8 172.1 505.1 171.6Q504.4 171.1 503.7 170.0L503.7 170.0Q501.5 165.8 497.1 165.8L497.1 165.8Q493.6 165.8 491.5 168.6Q489.4 171.3 489.4 176.1L489.4 176.1Q489.4 180.9 491.5 183.6Q493.6 186.3 497.1 186.3L497.1 186.3Q501.5 186.3 503.7 182.3L503.7 182.3Q504.5 181.1 505.2 180.6Q505.9 180.1 507.1 180.1L507.1 180.1Q508.4 180.1 509.3 180.9Q510.2 181.7 510.2 183.1L510.2 183.1Q510.2 183.9 509.7 184.9L509.7 184.9Q508.4 188.1 504.9 190.2Q501.3 192.2 497.0 192.2ZM521.6 191.2Q520.6 192.2 518.9 192.2Q517.3 192.2 516.3 191.2Q515.3 190.1 515.3 188.3L515.3 188.3L515.3 152.6Q515.3 150.7 516.3 149.7Q517.3 148.7 518.9 148.7Q520.6 148.7 521.6 149.7Q522.5 150.7 522.5 152.6L522.5 152.6L522.5 188.3Q522.5 190.1 521.6 191.2ZM553.5 187.9Q549.4 192.2 542.5 192.2Q535.6 192.2 531.5 187.9Q527.5 183.6 527.5 176.1L527.5 176.1Q527.5 168.6 531.6 164.2Q535.7 159.9 542.5 159.9L542.5 159.9Q549.4 159.9 553.4 164.2Q557.5 168.6 557.5 176.1L557.5 176.1Q557.5 183.6 553.5 187.9ZM536.9 183.7Q539.0 186.4 542.5 186.4Q546.0 186.4 548.1 183.7Q550.1 181.0 550.1 176.1L550.1 176.1Q550.1 171.2 548.1 168.4Q546.0 165.7 542.5 165.7L542.5 165.7Q539.0 165.7 536.9 168.4Q534.9 171.2 534.9 176.1L534.9 176.1Q534.9 181.0 536.9 183.7ZM574.2 192.2L574.2 192.2Q569.4 192.2 566.0 190.5Q562.7 188.8 561.5 186.0L561.5 186.0Q561.3 185.2 561.3 184.5L561.3 184.5Q561.3 183.2 562.1 182.4Q562.9 181.6 564.3 181.6L564.3 181.6Q566.1 181.6 567.5 183.4L567.5 183.4Q568.7 185.3 570.3 186.1Q571.9 186.9 574.5 186.9L574.5 186.9Q577.0 186.9 578.6 185.9Q580.1 184.8 580.1 183.1L580.1 183.1Q580.1 181.7 579.1 180.8Q578.1 180.0 575.8 179.4L575.8 179.4L570.7 178.3Q561.7 176.3 561.7 169.4L561.7 169.4Q561.7 165.1 565.1 162.5Q568.6 159.9 574.3 159.9L574.3 159.9Q578.7 159.9 581.9 161.8Q585.2 163.6 585.9 166.4L585.9 166.4Q586.0 167.0 586.0 167.5L586.0 167.5Q586.0 168.6 585.3 169.4Q584.6 170.1 583.2 170.1L583.2 170.1Q581.4 170.1 580.4 168.7L580.4 168.7Q579.3 167.0 577.8 166.1Q576.3 165.2 574.1 165.2L574.1 165.2Q571.7 165.2 570.2 166.3Q568.8 167.3 568.8 169.0L568.8 169.0Q568.8 171.8 573.3 172.8L573.3 172.8L578.3 173.9Q583.2 175.0 585.3 176.9Q587.4 178.9 587.4 182.3L587.4 182.3Q587.4 186.8 583.8 189.5Q580.1 192.2 574.2 192.2ZM602.9 192.1L602.9 192.1Q597.8 192.1 594.9 189.0Q591.9 186.0 591.9 180.6L591.9 180.6L591.9 163.7Q591.9 162.0 592.9 160.9Q593.9 159.9 595.5 159.9Q597.2 159.9 598.2 160.9Q599.2 162.0 599.2 163.8L599.2 163.8L599.2 179.1Q599.2 182.5 600.8 184.2Q602.4 186.0 605.5 186.0L605.5 186.0Q608.6 186.0 610.4 183.9Q612.3 181.9 612.3 178.5L612.3 178.5L612.3 163.7Q612.3 162.0 613.3 160.9Q614.3 159.9 615.9 159.9L615.9 159.9Q617.6 159.9 618.6 160.9Q619.6 162.0 619.6 163.8L619.6 163.8L619.6 188.5Q619.6 190.2 618.6 191.2Q617.7 192.2 616.1 192.2L616.1 192.2Q614.5 192.2 613.5 191.2Q612.5 190.2 612.5 188.5L612.5 188.5L612.5 186.2L612.4 186.2Q609.8 192.1 602.9 192.1ZM631.8 191.1Q630.8 192.2 629.2 192.2Q627.5 192.2 626.5 191.1Q625.5 190.1 625.5 188.3L625.5 188.3L625.5 163.6Q625.5 161.9 626.5 160.9Q627.4 159.9 629.0 159.9L629.0 159.9Q630.5 159.9 631.5 160.9Q632.5 161.9 632.5 163.6L632.5 163.6L632.5 166.0L632.6 166.0Q633.3 163.3 635.1 161.6Q636.9 160.0 639.3 160.0L639.3 160.0Q641.0 160.0 641.8 160.8L641.8 160.8Q642.9 161.6 642.9 163.4L642.9 163.4Q642.9 165.1 641.8 166.0L641.8 166.0Q640.7 166.9 638.6 167.0L638.6 167.0Q632.8 167.0 632.8 173.4L632.8 173.4L632.8 188.3Q632.8 190.1 631.8 191.1ZM660.0 192.2L660.0 192.2Q652.8 192.2 648.8 188.0Q644.9 183.7 644.9 176.2L644.9 176.2Q644.9 168.7 648.8 164.3Q652.8 159.9 659.5 159.9L659.5 159.9Q665.9 159.9 669.9 163.9Q673.8 168.0 673.8 174.4L673.8 174.4Q673.8 176.0 672.9 176.9Q672.1 177.8 670.4 177.8L670.4 177.8L652.1 177.8L652.1 178.0Q652.1 181.9 654.2 184.3Q656.3 186.6 659.9 186.6L659.9 186.6Q662.4 186.6 664.1 185.6Q665.9 184.7 667.7 182.4L667.7 182.4Q668.7 181.3 670.1 181.3L670.1 181.3Q671.4 181.3 672.2 182.0Q673.0 182.8 673.0 184.1L673.0 184.1Q673.0 184.9 672.5 185.9L672.5 185.9Q671.0 188.9 667.7 190.5Q664.4 192.2 660.0 192.2ZM652.2 173.0L652.2 173.0L666.7 173.0Q666.6 169.6 664.6 167.6Q662.6 165.5 659.6 165.5Q656.5 165.5 654.4 167.6Q652.4 169.7 652.2 173.0Z M715.2 187.9Q711.2 192.2 704.3 192.2Q697.4 192.2 693.3 187.9Q689.2 183.6 689.2 176.1L689.2 176.1Q689.2 168.6 693.3 164.2Q697.5 159.9 704.3 159.9L704.3 159.9Q711.1 159.9 715.2 164.2Q719.3 168.6 719.3 176.1L719.3 176.1Q719.3 183.6 715.2 187.9ZM698.7 183.7Q700.8 186.4 704.3 186.4Q707.8 186.4 709.8 183.7Q711.9 181.0 711.9 176.1L711.9 176.1Q711.9 171.2 709.8 168.4Q707.8 165.7 704.3 165.7L704.3 165.7Q700.8 165.7 698.7 168.4Q696.7 171.2 696.7 176.1L696.7 176.1Q696.7 181.0 698.7 183.7ZM732.3 191.2Q731.3 192.2 729.7 192.2Q728.0 192.2 727.0 191.2Q726.0 190.2 726.0 188.4L726.0 188.4L726.0 166.1L724.1 166.1Q722.8 166.1 722.0 165.4Q721.3 164.7 721.3 163.4L721.3 163.4Q721.3 162.1 722.0 161.4Q722.8 160.6 724.1 160.6L724.1 160.6L726.0 160.6L726.0 157.9Q726.0 149.0 734.6 149.0L734.6 149.0Q737.4 149.0 738.8 149.8Q740.2 150.6 740.2 152.0L740.2 152.0Q740.2 153.7 738.6 154.1L738.6 154.1Q737.9 154.3 736.9 154.3L736.9 154.3Q735.0 154.4 734.1 155.3Q733.2 156.2 733.2 158.2L733.2 158.2L733.2 160.6L737.1 160.6Q738.3 160.6 739.1 161.4Q739.9 162.1 739.9 163.4L739.9 163.4Q739.9 164.7 739.1 165.4Q738.3 166.1 737.1 166.1L737.1 166.1L733.3 166.1L733.3 188.4Q733.3 190.2 732.3 191.2Z M760.7 192.1L760.7 192.1Q759.0 192.1 758.0 191.0Q757.0 190.0 757.0 188.2L757.0 188.2L757.0 153.2Q757.0 151.4 758.0 150.3Q759.0 149.3 760.7 149.3L760.7 149.3L773.4 149.3Q779.7 149.3 783.7 153.2Q787.6 157.1 787.6 163.5L787.6 163.5Q787.6 169.8 783.6 173.7Q779.5 177.6 773.1 177.6L773.1 177.6L764.5 177.6L764.5 188.2Q764.5 190.0 763.5 191.1Q762.5 192.1 760.7 192.1ZM764.5 155.5L764.5 171.5L771.4 171.5Q775.4 171.5 777.7 169.4Q780.0 167.3 780.0 163.5L780.0 163.5Q780.0 159.6 777.7 157.6Q775.5 155.5 771.4 155.5L771.4 155.5L764.5 155.5ZM806.2 192.2L806.2 192.2Q799.1 192.2 795.1 188.0Q791.1 183.7 791.1 176.2L791.1 176.2Q791.1 168.7 795.1 164.3Q799.1 159.9 805.8 159.9L805.8 159.9Q812.1 159.9 816.1 163.9Q820.1 168.0 820.1 174.4L820.1 174.4Q820.1 176.0 819.2 176.9Q818.3 177.8 816.7 177.8L816.7 177.8L798.4 177.8L798.4 178.0Q798.4 181.9 800.5 184.3Q802.6 186.6 806.1 186.6L806.1 186.6Q808.6 186.6 810.4 185.6Q812.1 184.7 813.9 182.4L813.9 182.4Q815.0 181.3 816.4 181.3L816.4 181.3Q817.6 181.3 818.5 182.0Q819.3 182.8 819.3 184.1L819.3 184.1Q819.3 184.9 818.8 185.9L818.8 185.9Q817.2 188.9 813.9 190.5Q810.6 192.2 806.2 192.2ZM798.4 173.0L798.4 173.0L812.9 173.0Q812.8 169.6 810.9 167.6Q808.9 165.5 805.8 165.5Q802.7 165.5 800.7 167.6Q798.6 169.7 798.4 173.0ZM831.1 191.1Q830.1 192.2 828.4 192.2Q826.7 192.2 825.8 191.1Q824.8 190.1 824.8 188.3L824.8 188.3L824.8 163.6Q824.8 161.9 825.7 160.9Q826.7 159.9 828.3 159.9L828.3 159.9Q829.8 159.9 830.8 160.9Q831.7 161.9 831.7 163.6L831.7 163.6L831.7 166.0L831.9 166.0Q832.5 163.3 834.3 161.6Q836.2 160.0 838.5 160.0L838.5 160.0Q840.2 160.0 841.1 160.8L841.1 160.8Q842.1 161.6 842.1 163.4L842.1 163.4Q842.1 165.1 841.0 166.0L841.0 166.0Q840.0 166.9 837.8 167.0L837.8 167.0Q832.1 167.0 832.1 173.4L832.1 173.4L832.1 188.3Q832.1 190.1 831.1 191.1ZM857.4 192.2L857.4 192.2Q852.5 192.2 849.2 190.5Q845.9 188.8 844.7 186.0L844.7 186.0Q844.4 185.2 844.4 184.5L844.4 184.5Q844.4 183.2 845.3 182.4Q846.1 181.6 847.5 181.6L847.5 181.6Q849.3 181.6 850.6 183.4L850.6 183.4Q851.9 185.3 853.5 186.1Q855.1 186.9 857.6 186.9L857.6 186.9Q860.2 186.9 861.8 185.9Q863.3 184.8 863.3 183.1L863.3 183.1Q863.3 181.7 862.3 180.8Q861.3 180.0 858.9 179.4L858.9 179.4L853.9 178.3Q844.8 176.3 844.8 169.4L844.8 169.4Q844.8 165.1 848.3 162.5Q851.8 159.9 857.5 159.9L857.5 159.9Q861.9 159.9 865.1 161.8Q868.3 163.6 869.1 166.4L869.1 166.4Q869.2 167.0 869.2 167.5L869.2 167.5Q869.2 168.6 868.5 169.4Q867.8 170.1 866.4 170.1L866.4 170.1Q864.6 170.1 863.6 168.7L863.6 168.7Q862.5 167.0 861.0 166.1Q859.5 165.2 857.3 165.2L857.3 165.2Q854.9 165.2 853.4 166.3Q851.9 167.3 851.9 169.0L851.9 169.0Q851.9 171.8 856.5 172.8L856.5 172.8L861.5 173.9Q866.4 175.0 868.5 176.9Q870.6 178.9 870.6 182.3L870.6 182.3Q870.6 186.8 867.0 189.5Q863.3 192.2 857.4 192.2ZM899.9 187.9Q895.8 192.2 889.0 192.2Q882.1 192.2 878.0 187.9Q873.9 183.6 873.9 176.1L873.9 176.1Q873.9 168.6 878.0 164.2Q882.1 159.9 889.0 159.9L889.0 159.9Q895.8 159.9 899.9 164.2Q904.0 168.6 904.0 176.1L904.0 176.1Q904.0 183.6 899.9 187.9ZM883.4 183.7Q885.4 186.4 889.0 186.4Q892.5 186.4 894.5 183.7Q896.6 181.0 896.6 176.1L896.6 176.1Q896.6 171.2 894.5 168.4Q892.5 165.7 889.0 165.7L889.0 165.7Q885.5 165.7 883.4 168.4Q881.3 171.2 881.3 176.1L881.3 176.1Q881.3 181.0 883.4 183.7ZM915.0 191.2Q914.0 192.2 912.3 192.2Q910.7 192.2 909.7 191.2Q908.7 190.1 908.7 188.3L908.7 188.3L908.7 163.6Q908.7 161.9 909.6 160.9Q910.6 159.9 912.2 159.9Q913.8 159.9 914.8 160.9Q915.8 161.9 915.8 163.6L915.8 163.6L915.8 165.8L915.9 165.8Q918.6 159.9 925.6 159.9L925.6 159.9Q930.7 159.9 933.5 163.0Q936.3 166.1 936.3 171.5L936.3 171.5L936.3 188.3Q936.3 190.1 935.3 191.2Q934.3 192.2 932.7 192.2Q931.1 192.2 930.1 191.2Q929.0 190.1 929.0 188.3L929.0 188.3L929.0 173.0Q929.0 169.6 927.5 167.9Q925.9 166.1 922.8 166.1L922.8 166.1Q919.7 166.1 917.8 168.2Q916.0 170.2 916.0 173.6L916.0 173.6L916.0 188.3Q916.0 190.1 915.0 191.2ZM951.3 192.1L951.3 192.1Q946.7 192.1 943.8 189.5Q940.9 186.9 940.9 182.7L940.9 182.7Q940.9 178.6 944.0 176.2Q947.0 173.8 952.7 173.4L952.7 173.4L960.9 172.9L960.9 170.7Q960.9 168.3 959.4 166.9Q957.9 165.6 955.1 165.6L955.1 165.6Q953.0 165.6 951.5 166.4Q950.0 167.2 948.6 169.2L948.6 169.2Q947.5 170.7 945.7 170.7L945.7 170.7Q944.3 170.7 943.5 169.9Q942.6 169.1 942.6 167.8L942.6 167.8Q942.6 166.8 943.1 165.8L943.1 165.8Q944.3 163.1 947.6 161.5Q951.0 159.9 955.4 159.9L955.4 159.9Q961.2 159.9 964.7 162.7Q968.2 165.5 968.2 170.2L968.2 170.2L968.2 188.5Q968.2 190.2 967.2 191.2Q966.2 192.2 964.6 192.2L964.6 192.2Q963.1 192.2 962.1 191.3Q961.2 190.4 961.1 188.8L961.1 188.8L961.1 186.6L961.0 186.6Q959.7 189.1 957.0 190.6Q954.3 192.1 951.3 192.1ZM953.5 186.6L953.5 186.6Q956.6 186.6 958.8 184.7Q960.9 182.8 960.9 180.1L960.9 180.1L960.9 177.7L953.7 178.1Q951.1 178.3 949.7 179.4Q948.2 180.6 948.2 182.4L948.2 182.4Q948.2 184.3 949.7 185.4Q951.1 186.6 953.5 186.6ZM980.5 191.2Q979.5 192.2 977.9 192.2Q976.2 192.2 975.2 191.2Q974.2 190.1 974.2 188.3L974.2 188.3L974.2 152.6Q974.2 150.7 975.2 149.7Q976.2 148.7 977.9 148.7Q979.5 148.7 980.5 149.7Q981.5 150.7 981.5 152.6L981.5 152.6L981.5 188.3Q981.5 190.1 980.5 191.2Z M47.5 274.6L47.5 274.6Q45.7 274.6 44.7 273.5Q43.7 272.5 43.7 270.7L43.7 270.7L43.7 235.2Q43.7 233.4 44.7 232.3Q45.7 231.3 47.5 231.3L47.5 231.3Q49.3 231.3 50.3 232.3Q51.3 233.4 51.3 235.2L51.3 235.2L51.3 270.7Q51.3 272.5 50.3 273.6Q49.3 274.6 47.5 274.6ZM64.3 273.7Q63.3 274.7 61.6 274.7Q60.0 274.7 59.0 273.7Q58.0 272.6 58.0 270.8L58.0 270.8L58.0 246.1Q58.0 244.4 58.9 243.4Q59.9 242.4 61.5 242.4Q63.1 242.4 64.1 243.4Q65.1 244.4 65.1 246.1L65.1 246.1L65.1 248.3L65.2 248.3Q67.9 242.4 74.9 242.4L74.9 242.4Q80.0 242.4 82.8 245.5Q85.6 248.6 85.6 254.0L85.6 254.0L85.6 270.8Q85.6 272.6 84.6 273.7Q83.7 274.7 82.0 274.7Q80.4 274.7 79.4 273.7Q78.3 272.6 78.3 270.8L78.3 270.8L78.3 255.5Q78.3 252.1 76.8 250.4Q75.2 248.6 72.1 248.6L72.1 248.6Q69.0 248.6 67.1 250.7Q65.3 252.7 65.3 256.1L65.3 256.1L65.3 270.8Q65.3 272.6 64.3 273.7ZM99.8 273.7Q98.8 274.7 97.2 274.7Q95.5 274.7 94.5 273.7Q93.5 272.7 93.5 270.9L93.5 270.9L93.5 248.6L91.6 248.6Q90.3 248.6 89.5 247.9Q88.8 247.2 88.8 245.9L88.8 245.9Q88.8 244.6 89.5 243.9Q90.3 243.1 91.6 243.1L91.6 243.1L93.5 243.1L93.5 240.4Q93.5 231.5 102.1 231.5L102.1 231.5Q104.9 231.5 106.3 232.3Q107.6 233.1 107.6 234.5L107.6 234.5Q107.6 236.2 106.0 236.6L106.0 236.6Q105.4 236.8 104.4 236.8L104.4 236.8Q102.4 236.9 101.6 237.8Q100.7 238.7 100.7 240.7L100.7 240.7L100.7 243.1L104.6 243.1Q105.8 243.1 106.6 243.9Q107.4 244.6 107.4 245.9L107.4 245.9Q107.4 247.2 106.6 247.9Q105.8 248.6 104.6 248.6L104.6 248.6L100.8 248.6L100.8 270.9Q100.8 272.7 99.8 273.7ZM136.4 270.4Q132.3 274.7 125.4 274.7Q118.5 274.7 114.5 270.4Q110.4 266.1 110.4 258.6L110.4 258.6Q110.4 251.1 114.5 246.7Q118.6 242.4 125.4 242.4L125.4 242.4Q132.3 242.4 136.4 246.7Q140.5 251.1 140.5 258.6L140.5 258.6Q140.5 266.1 136.4 270.4ZM119.9 266.2Q121.9 268.9 125.4 268.9Q128.9 268.9 131.0 266.2Q133.0 263.5 133.0 258.6L133.0 258.6Q133.0 253.7 131.0 250.9Q128.9 248.2 125.4 248.2L125.4 248.2Q121.9 248.2 119.9 250.9Q117.8 253.7 117.8 258.6L117.8 258.6Q117.8 263.5 119.9 266.2ZM151.4 273.6Q150.4 274.7 148.8 274.7Q147.1 274.7 146.1 273.6Q145.1 272.6 145.1 270.8L145.1 270.8L145.1 246.1Q145.1 244.4 146.1 243.4Q147.1 242.4 148.6 242.4L148.6 242.4Q150.2 242.4 151.1 243.4Q152.1 244.4 152.1 246.1L152.1 246.1L152.1 248.5L152.2 248.5Q152.9 245.8 154.7 244.1Q156.5 242.5 158.9 242.5L158.9 242.5Q160.6 242.5 161.5 243.3L161.5 243.3Q162.5 244.1 162.5 245.9L162.5 245.9Q162.5 247.6 161.4 248.5L161.4 248.5Q160.4 249.4 158.2 249.5L158.2 249.5Q152.4 249.5 152.4 255.9L152.4 255.9L152.4 270.8Q152.4 272.6 151.4 273.6ZM169.4 274.7L169.4 274.7Q167.7 274.7 166.8 273.7Q165.8 272.6 165.8 270.8L165.8 270.8L165.8 246.1Q165.8 244.4 166.7 243.4Q167.7 242.4 169.3 242.4Q170.8 242.4 171.8 243.4Q172.8 244.4 172.8 246.1L172.8 246.1L172.8 248.4L172.9 248.4Q173.9 245.7 176.3 244.0Q178.6 242.4 181.8 242.4L181.8 242.4Q185.0 242.4 187.3 244.1Q189.6 245.7 190.4 248.7L190.4 248.7L190.6 248.7Q191.7 245.8 194.3 244.1Q196.9 242.4 200.3 242.4L200.3 242.4Q204.9 242.4 207.7 245.3Q210.4 248.1 210.4 252.8L210.4 252.8L210.4 270.8Q210.4 272.6 209.4 273.6Q208.4 274.7 206.8 274.7L206.8 274.7Q205.1 274.7 204.1 273.6Q203.1 272.6 203.1 270.8L203.1 270.8L203.1 254.6Q203.1 251.7 201.7 250.1Q200.2 248.6 197.6 248.6L197.6 248.6Q194.9 248.6 193.3 250.3Q191.6 252.1 191.6 254.9L191.6 254.9L191.6 270.8Q191.6 272.6 190.7 273.7Q189.7 274.7 188.1 274.7L188.1 274.7Q186.4 274.7 185.5 273.7Q184.6 272.6 184.6 270.8L184.6 270.8L184.6 254.2Q184.6 251.6 183.1 250.1Q181.6 248.6 179.0 248.6L179.0 248.6Q176.4 248.6 174.7 250.4Q173.1 252.3 173.1 255.1L173.1 255.1L173.1 270.8Q173.1 272.6 172.1 273.6Q171.0 274.7 169.4 274.7ZM225.4 274.6L225.4 274.6Q220.8 274.6 217.9 272.0Q215.0 269.4 215.0 265.2L215.0 265.2Q215.0 261.1 218.1 258.7Q221.1 256.3 226.8 255.9L226.8 255.9L235.0 255.4L235.0 253.2Q235.0 250.8 233.5 249.4Q232.0 248.1 229.2 248.1L229.2 248.1Q227.1 248.1 225.6 248.9Q224.1 249.7 222.7 251.7L222.7 251.7Q221.6 253.2 219.8 253.2L219.8 253.2Q218.4 253.2 217.6 252.4Q216.7 251.6 216.7 250.3L216.7 250.3Q216.7 249.3 217.2 248.3L217.2 248.3Q218.4 245.6 221.7 244.0Q225.1 242.4 229.5 242.4L229.5 242.4Q235.3 242.4 238.8 245.2Q242.2 248.0 242.2 252.7L242.2 252.7L242.2 271.0Q242.2 272.7 241.3 273.7Q240.3 274.7 238.7 274.7L238.7 274.7Q237.2 274.7 236.2 273.8Q235.3 272.9 235.2 271.3L235.2 271.3L235.2 269.1L235.1 269.1Q233.7 271.6 231.1 273.1Q228.4 274.6 225.4 274.6ZM227.6 269.1L227.6 269.1Q230.7 269.1 232.9 267.2Q235.0 265.3 235.0 262.6L235.0 262.6L235.0 260.2L227.8 260.6Q225.2 260.8 223.7 261.9Q222.3 263.1 222.3 264.9L222.3 264.9Q222.3 266.8 223.7 267.9Q225.2 269.1 227.6 269.1ZM250.1 266.4L250.1 266.4L250.1 248.6L248.2 248.6Q246.8 248.6 246.0 247.9Q245.2 247.1 245.2 245.8L245.2 245.8Q245.2 244.5 246.0 243.8Q246.8 243.0 248.2 243.0L248.2 243.0L250.1 243.0L250.1 238.9Q250.1 237.1 251.1 236.1Q252.1 235.1 253.8 235.1L253.8 235.1Q255.4 235.1 256.4 236.1Q257.4 237.1 257.4 238.9L257.4 238.9L257.4 243.0L260.8 243.0Q262.2 243.0 262.9 243.8Q263.7 244.5 263.7 245.8L263.7 245.8Q263.7 247.1 262.9 247.9Q262.1 248.6 260.8 248.6L260.8 248.6L257.4 248.6L257.4 264.8Q257.4 266.6 258.1 267.4Q258.8 268.2 260.3 268.4L260.3 268.4L260.9 268.4Q263.8 268.7 263.8 271.1L263.8 271.1Q263.8 272.7 262.5 273.6Q261.1 274.4 258.6 274.4L258.6 274.4L258.3 274.4Q250.1 274.4 250.1 266.4ZM274.9 237.5Q273.7 238.7 272.0 238.7Q270.3 238.7 269.2 237.5Q268.0 236.3 268.0 234.7L268.0 234.7Q268.0 233.0 269.2 231.9Q270.3 230.7 272.0 230.7L272.0 230.7Q273.8 230.7 274.9 231.9Q276.1 233.0 276.1 234.7L276.1 234.7Q276.1 236.3 274.9 237.5ZM274.7 273.6Q273.7 274.7 272.0 274.7Q270.4 274.7 269.4 273.6Q268.4 272.6 268.4 270.8L268.4 270.8L268.4 246.2Q268.4 244.5 269.4 243.4Q270.4 242.4 272.0 242.4Q273.7 242.4 274.7 243.4Q275.7 244.5 275.7 246.3L275.7 246.3L275.7 270.8Q275.7 272.6 274.7 273.6ZM306.5 270.4Q302.4 274.7 295.6 274.7Q288.7 274.7 284.6 270.4Q280.5 266.1 280.5 258.6L280.5 258.6Q280.5 251.1 284.6 246.7Q288.7 242.4 295.6 242.4L295.6 242.4Q302.4 242.4 306.5 246.7Q310.6 251.1 310.6 258.6L310.6 258.6Q310.6 266.1 306.5 270.4ZM290.0 266.2Q292.0 268.9 295.6 268.9Q299.1 268.9 301.1 266.2Q303.2 263.5 303.2 258.6L303.2 258.6Q303.2 253.7 301.1 250.9Q299.1 248.2 295.6 248.2L295.6 248.2Q292.1 248.2 290.0 250.9Q287.9 253.7 287.9 258.6L287.9 258.6Q287.9 263.5 290.0 266.2ZM321.6 273.7Q320.5 274.7 318.9 274.7Q317.3 274.7 316.3 273.7Q315.3 272.6 315.3 270.8L315.3 270.8L315.3 246.1Q315.3 244.4 316.2 243.4Q317.1 242.4 318.8 242.4Q320.4 242.4 321.4 243.4Q322.4 244.4 322.4 246.1L322.4 246.1L322.4 248.3L322.5 248.3Q325.1 242.4 332.2 242.4L332.2 242.4Q337.3 242.4 340.1 245.5Q342.9 248.6 342.9 254.0L342.9 254.0L342.9 270.8Q342.9 272.6 341.9 273.7Q340.9 274.7 339.3 274.7Q337.7 274.7 336.6 273.7Q335.6 272.6 335.6 270.8L335.6 270.8L335.6 255.5Q335.6 252.1 334.1 250.4Q332.5 248.6 329.4 248.6L329.4 248.6Q326.3 248.6 324.4 250.7Q322.6 252.7 322.6 256.1L322.6 256.1L322.6 270.8Q322.6 272.6 321.6 273.7Z M362.8 266.4L362.8 266.4L362.8 248.6L360.8 248.6Q359.5 248.6 358.7 247.9Q357.9 247.1 357.9 245.8L357.9 245.8Q357.9 244.5 358.7 243.8Q359.5 243.0 360.8 243.0L360.8 243.0L362.8 243.0L362.8 238.9Q362.8 237.1 363.8 236.1Q364.8 235.1 366.5 235.1L366.5 235.1Q368.1 235.1 369.1 236.1Q370.1 237.1 370.1 238.9L370.1 238.9L370.1 243.0L373.5 243.0Q374.8 243.0 375.6 243.8Q376.4 244.5 376.4 245.8L376.4 245.8Q376.4 247.1 375.6 247.9Q374.8 248.6 373.5 248.6L373.5 248.6L370.1 248.6L370.1 264.8Q370.1 266.6 370.8 267.4Q371.4 268.2 373.0 268.4L373.0 268.4L373.5 268.4Q376.5 268.7 376.5 271.1L376.5 271.1Q376.5 272.7 375.1 273.6Q373.8 274.4 371.3 274.4L371.3 274.4L371.0 274.4Q362.8 274.4 362.8 266.4ZM405.6 270.4Q401.5 274.7 394.6 274.7Q387.8 274.7 383.7 270.4Q379.6 266.1 379.6 258.6L379.6 258.6Q379.6 251.1 383.7 246.7Q387.8 242.4 394.6 242.4L394.6 242.4Q401.5 242.4 405.6 246.7Q409.7 251.1 409.7 258.6L409.7 258.6Q409.7 266.1 405.6 270.4ZM389.1 266.2Q391.1 268.9 394.6 268.9Q398.2 268.9 400.2 266.2Q402.3 263.5 402.3 258.6L402.3 258.6Q402.3 253.7 400.2 250.9Q398.2 248.2 394.6 248.2L394.6 248.2Q391.2 248.2 389.1 250.9Q387.0 253.7 387.0 258.6L387.0 258.6Q387.0 263.5 389.1 266.2Z M433.6 273.6Q432.6 274.7 430.9 274.7Q429.1 274.7 428.1 273.6Q427.1 272.6 427.1 270.7L427.1 270.7L427.1 235.7Q427.1 233.9 428.1 232.8Q429.1 231.8 430.9 231.8L430.9 231.8L443.9 231.8Q450.7 231.8 454.6 235.3Q458.5 238.9 458.5 245.0L458.5 245.0Q458.5 249.1 456.5 252.3Q454.4 255.5 450.8 256.9L450.8 256.9L457.5 268.6Q458.3 270.0 458.3 271.2L458.3 271.2Q458.3 272.7 457.2 273.7Q456.1 274.7 454.5 274.7L454.5 274.7Q453.1 274.7 452.3 274.1Q451.5 273.5 450.7 271.9L450.7 271.9L443.1 258.2L434.7 258.2L434.7 270.7Q434.7 272.6 433.6 273.6ZM434.7 237.9L434.7 252.4L443.2 252.4Q446.8 252.4 448.8 250.5Q450.8 248.6 450.8 245.1L450.8 245.1Q450.8 241.8 448.7 239.9Q446.6 237.9 443.0 237.9L443.0 237.9L434.7 237.9ZM488.6 270.4Q484.5 274.7 477.6 274.7Q470.7 274.7 466.7 270.4Q462.6 266.1 462.6 258.6L462.6 258.6Q462.6 251.1 466.7 246.7Q470.8 242.4 477.6 242.4L477.6 242.4Q484.5 242.4 488.5 246.7Q492.6 251.1 492.6 258.6L492.6 258.6Q492.6 266.1 488.6 270.4ZM472.0 266.2Q474.1 268.9 477.6 268.9Q481.1 268.9 483.2 266.2Q485.2 263.5 485.2 258.6L485.2 258.6Q485.2 253.7 483.2 250.9Q481.1 248.2 477.6 248.2L477.6 248.2Q474.1 248.2 472.1 250.9Q470.0 253.7 470.0 258.6L470.0 258.6Q470.0 263.5 472.0 266.2ZM503.7 273.7Q502.7 274.7 501.1 274.7Q499.5 274.7 498.5 273.7Q497.5 272.8 497.5 271.0L497.5 271.0L497.5 235.1Q497.5 233.2 498.5 232.2Q499.6 231.2 501.2 231.2Q502.8 231.2 503.8 232.2Q504.8 233.2 504.8 235.1L504.8 235.1L504.8 248.4L505 248.4Q506.3 245.6 508.9 244.0Q511.4 242.5 514.7 242.5L514.7 242.5Q520.6 242.5 524.1 246.8Q527.5 251.1 527.5 258.6L527.5 258.6Q527.5 266.0 524.1 270.3Q520.6 274.6 514.7 274.6L514.7 274.6Q511.3 274.6 508.8 273.1Q506.2 271.5 504.8 268.8L504.8 268.8L504.7 268.8L504.7 271.0Q504.7 272.7 503.7 273.7ZM512.5 268.6L512.5 268.6Q516.0 268.6 518.0 265.9Q520.1 263.2 520.1 258.6Q520.1 253.9 518.0 251.2Q516.0 248.5 512.5 248.5L512.5 248.5Q509.1 248.5 506.9 251.3Q504.8 254.0 504.8 258.6L504.8 258.6Q504.8 263.1 506.9 265.8Q509.1 268.6 512.5 268.6ZM556.9 270.4Q552.8 274.7 546.0 274.7Q539.1 274.7 535 270.4Q530.9 266.1 530.9 258.6L530.9 258.6Q530.9 251.1 535.0 246.7Q539.1 242.4 546.0 242.4L546.0 242.4Q552.8 242.4 556.9 246.7Q561.0 251.1 561.0 258.6L561.0 258.6Q561.0 266.1 556.9 270.4ZM540.4 266.2Q542.4 268.9 546.0 268.9Q549.5 268.9 551.5 266.2Q553.6 263.5 553.6 258.6L553.6 258.6Q553.6 253.7 551.5 250.9Q549.5 248.2 546.0 248.2L546.0 248.2Q542.5 248.2 540.4 250.9Q538.3 253.7 538.3 258.6L538.3 258.6Q538.3 263.5 540.4 266.2ZM567.7 266.4L567.7 266.4L567.7 248.6L565.7 248.6Q564.4 248.6 563.6 247.9Q562.8 247.1 562.8 245.8L562.8 245.8Q562.8 244.5 563.6 243.8Q564.4 243.0 565.7 243.0L565.7 243.0L567.7 243.0L567.7 238.9Q567.7 237.1 568.7 236.1Q569.7 235.1 571.4 235.1L571.4 235.1Q573.0 235.1 574.0 236.1Q575.0 237.1 575.0 238.9L575.0 238.9L575.0 243.0L578.4 243.0Q579.7 243.0 580.5 243.8Q581.3 244.5 581.3 245.8L581.3 245.8Q581.3 247.1 580.5 247.9Q579.7 248.6 578.4 248.6L578.4 248.6L575.0 248.6L575.0 264.8Q575.0 266.6 575.7 267.4Q576.3 268.2 577.9 268.4L577.9 268.4L578.4 268.4Q581.4 268.7 581.4 271.1L581.4 271.1Q581.4 272.7 580.0 273.6Q578.7 274.4 576.2 274.4L576.2 274.4L575.9 274.4Q567.7 274.4 567.7 266.4ZM597.8 274.7L597.8 274.7Q592.9 274.7 589.6 273.0Q586.3 271.3 585.1 268.5L585.1 268.5Q584.8 267.7 584.8 267.0L584.8 267.0Q584.8 265.7 585.7 264.9Q586.5 264.1 587.9 264.1L587.9 264.1Q589.7 264.1 591.0 265.9L591.0 265.9Q592.3 267.8 593.9 268.6Q595.5 269.4 598.0 269.4L598.0 269.4Q600.6 269.4 602.2 268.4Q603.7 267.3 603.7 265.6L603.7 265.6Q603.7 264.2 602.7 263.3Q601.7 262.5 599.3 261.9L599.3 261.9L594.3 260.8Q585.2 258.8 585.2 251.9L585.2 251.9Q585.2 247.6 588.7 245.0Q592.2 242.4 597.9 242.4L597.9 242.4Q602.3 242.4 605.5 244.3Q608.7 246.1 609.5 248.9L609.5 248.9Q609.6 249.5 609.6 250.0L609.6 250.0Q609.6 251.1 608.9 251.9Q608.2 252.6 606.8 252.6L606.8 252.6Q605.0 252.6 604.0 251.2L604.0 251.2Q602.9 249.5 601.4 248.6Q599.9 247.7 597.7 247.7L597.7 247.7Q595.3 247.7 593.8 248.8Q592.3 249.8 592.3 251.5L592.3 251.5Q592.3 254.3 596.9 255.3L596.9 255.3L601.9 256.4Q606.8 257.5 608.9 259.4Q611.0 261.4 611.0 264.8L611.0 264.8Q611.0 269.3 607.4 272.0Q603.7 274.7 597.8 274.7Z M636.7 274.6L636.7 274.6Q632.2 274.6 629.3 272.0Q626.4 269.4 626.4 265.2L626.4 265.2Q626.4 261.1 629.4 258.7Q632.5 256.3 638.2 255.9L638.2 255.9L646.4 255.4L646.4 253.2Q646.4 250.8 644.9 249.4Q643.3 248.1 640.6 248.1L640.6 248.1Q638.4 248.1 637.0 248.9Q635.5 249.7 634.1 251.7L634.1 251.7Q633.0 253.2 631.2 253.2L631.2 253.2Q629.8 253.2 628.9 252.4Q628.1 251.6 628.1 250.3L628.1 250.3Q628.1 249.3 628.6 248.3L628.6 248.3Q629.7 245.6 633.1 244.0Q636.5 242.4 640.9 242.4L640.9 242.4Q646.7 242.4 650.2 245.2Q653.6 248.0 653.6 252.7L653.6 252.7L653.6 271.0Q653.6 272.7 652.6 273.7Q651.7 274.7 650.1 274.7L650.1 274.7Q648.6 274.7 647.6 273.8Q646.7 272.9 646.6 271.3L646.6 271.3L646.6 269.1L646.4 269.1Q645.1 271.6 642.5 273.1Q639.8 274.6 636.7 274.6ZM639.0 269.1L639.0 269.1Q642.1 269.1 644.2 267.2Q646.4 265.3 646.4 262.6L646.4 262.6L646.4 260.2L639.2 260.6Q636.6 260.8 635.1 261.9Q633.7 263.1 633.7 264.9L633.7 264.9Q633.7 266.8 635.1 267.9Q636.6 269.1 639.0 269.1ZM671.5 274.7L671.5 274.7Q666.6 274.7 663.3 273.0Q660.0 271.3 658.8 268.5L658.8 268.5Q658.5 267.7 658.5 267.0L658.5 267.0Q658.5 265.7 659.4 264.9Q660.2 264.1 661.6 264.1L661.6 264.1Q663.4 264.1 664.7 265.9L664.7 265.9Q666.0 267.8 667.6 268.6Q669.2 269.4 671.7 269.4L671.7 269.4Q674.3 269.4 675.8 268.4Q677.4 267.3 677.4 265.6L677.4 265.6Q677.4 264.2 676.4 263.3Q675.4 262.5 673.0 261.9L673.0 261.9L668.0 260.8Q658.9 258.8 658.9 251.9L658.9 251.9Q658.9 247.6 662.4 245.0Q665.8 242.4 671.6 242.4L671.6 242.4Q676.0 242.4 679.2 244.3Q682.4 246.1 683.2 248.9L683.2 248.9Q683.3 249.5 683.3 250.0L683.3 250.0Q683.3 251.1 682.6 251.9Q681.8 252.6 680.5 252.6L680.5 252.6Q678.6 252.6 677.7 251.2L677.7 251.2Q676.6 249.5 675.1 248.6Q673.6 247.7 671.4 247.7L671.4 247.7Q669.0 247.7 667.5 248.8Q666.0 249.8 666.0 251.5L666.0 251.5Q666.0 254.3 670.6 255.3L670.6 255.3L675.5 256.4Q680.5 257.5 682.6 259.4Q684.7 261.4 684.7 264.8L684.7 264.8Q684.7 269.3 681.1 272.0Q677.4 274.7 671.5 274.7Z M710.4 274.6L710.4 274.6Q705.9 274.6 703.0 272.0Q700.1 269.4 700.1 265.2L700.1 265.2Q700.1 261.1 703.1 258.7Q706.2 256.3 711.9 255.9L711.9 255.9L720.1 255.4L720.1 253.2Q720.1 250.8 718.6 249.4Q717.0 248.1 714.3 248.1L714.3 248.1Q712.1 248.1 710.6 248.9Q709.1 249.7 707.8 251.7L707.8 251.7Q706.7 253.2 704.8 253.2L704.8 253.2Q703.5 253.2 702.6 252.4Q701.8 251.6 701.8 250.3L701.8 250.3Q701.8 249.3 702.3 248.3L702.3 248.3Q703.4 245.6 706.8 244.0Q710.1 242.4 714.6 242.4L714.6 242.4Q720.4 242.4 723.8 245.2Q727.3 248.0 727.3 252.7L727.3 252.7L727.3 271.0Q727.3 272.7 726.3 273.7Q725.3 274.7 723.8 274.7L723.8 274.7Q722.2 274.7 721.3 273.8Q720.4 272.9 720.3 271.3L720.3 271.3L720.3 269.1L720.1 269.1Q718.8 271.6 716.1 273.1Q713.5 274.6 710.4 274.6ZM712.7 269.1L712.7 269.1Q715.8 269.1 717.9 267.2Q720.1 265.3 720.1 262.6L720.1 262.6L720.1 260.2L712.9 260.6Q710.3 260.8 708.8 261.9Q707.4 263.1 707.4 264.9L707.4 264.9Q707.4 266.8 708.8 267.9Q710.3 269.1 712.7 269.1Z M749.7 274.6L749.7 274.6Q747.9 274.6 746.9 273.5Q745.9 272.5 745.9 270.7L745.9 270.7L745.9 235.7Q745.9 233.9 746.9 232.8Q747.9 231.8 749.7 231.8L749.7 231.8L769.9 231.8Q771.5 231.8 772.4 232.7Q773.4 233.5 773.4 235.0Q773.4 236.5 772.4 237.3Q771.5 238.2 769.9 238.2L769.9 238.2L753.5 238.2L753.5 250.7L768.4 250.7Q769.9 250.7 770.8 251.5Q771.7 252.3 771.7 253.7Q771.7 255.2 770.8 256.0Q769.9 256.8 768.4 256.8L768.4 256.8L753.5 256.8L753.5 270.7Q753.5 272.5 752.5 273.6Q751.5 274.6 749.7 274.6ZM788.5 274.6L788.5 274.6Q783.4 274.6 780.4 271.5Q777.5 268.5 777.5 263.1L777.5 263.1L777.5 246.2Q777.5 244.5 778.5 243.4Q779.5 242.4 781.1 242.4Q782.7 242.4 783.7 243.4Q784.8 244.5 784.8 246.3L784.8 246.3L784.8 261.6Q784.8 265.0 786.4 266.7Q787.9 268.5 791.0 268.5L791.0 268.5Q794.2 268.5 796.0 266.4Q797.9 264.4 797.9 261.0L797.9 261.0L797.9 246.2Q797.9 244.5 798.9 243.4Q799.9 242.4 801.5 242.4L801.5 242.4Q803.1 242.4 804.1 243.4Q805.1 244.5 805.1 246.3L805.1 246.3L805.1 271.0Q805.1 272.7 804.2 273.7Q803.2 274.7 801.7 274.7L801.7 274.7Q800.0 274.7 799.1 273.7Q798.1 272.7 798.1 271.0L798.1 271.0L798.1 268.7L798.0 268.7Q795.4 274.6 788.5 274.6ZM817.4 273.7Q816.4 274.7 814.7 274.7Q813.1 274.7 812.1 273.7Q811.1 272.6 811.1 270.8L811.1 270.8L811.1 246.1Q811.1 244.4 812.0 243.4Q813.0 242.4 814.6 242.4Q816.2 242.4 817.2 243.4Q818.2 244.4 818.2 246.1L818.2 246.1L818.2 248.3L818.3 248.3Q821.0 242.4 828.0 242.4L828.0 242.4Q833.1 242.4 835.9 245.5Q838.8 248.6 838.8 254.0L838.8 254.0L838.8 270.8Q838.8 272.6 837.8 273.7Q836.8 274.7 835.1 274.7Q833.5 274.7 832.5 273.7Q831.5 272.6 831.5 270.8L831.5 270.8L831.5 255.5Q831.5 252.1 829.9 250.4Q828.3 248.6 825.2 248.6L825.2 248.6Q822.1 248.6 820.2 250.7Q818.4 252.7 818.4 256.1L818.4 256.1L818.4 270.8Q818.4 272.6 817.4 273.7ZM858.2 274.7L858.2 274.7Q851.4 274.7 847.3 270.4Q843.3 266.0 843.3 258.6L843.3 258.6Q843.3 251.2 847.3 246.8Q851.4 242.4 858.2 242.4L858.2 242.4Q862.7 242.4 866.3 244.5Q869.8 246.6 870.9 249.9L870.9 249.9Q871.3 250.9 871.3 251.6L871.3 251.6Q871.3 253.0 870.4 253.8Q869.5 254.6 868.2 254.6L868.2 254.6Q867.1 254.6 866.4 254.1Q865.6 253.6 865 252.5L865 252.5Q862.7 248.3 858.4 248.3L858.4 248.3Q854.9 248.3 852.8 251.1Q850.7 253.8 850.7 258.6L850.7 258.6Q850.7 263.4 852.8 266.1Q854.8 268.8 858.3 268.8L858.3 268.8Q862.7 268.8 865.0 264.8L865.0 264.8Q865.7 263.6 866.5 263.1Q867.2 262.6 868.3 262.6L868.3 262.6Q869.7 262.6 870.5 263.4Q871.4 264.2 871.4 265.6L871.4 265.6Q871.4 266.4 871.0 267.4L871.0 267.4Q869.7 270.6 866.1 272.7Q862.6 274.7 858.2 274.7ZM878.3 266.4L878.3 266.4L878.3 248.6L876.4 248.6Q875.0 248.6 874.2 247.9Q873.4 247.1 873.4 245.8L873.4 245.8Q873.4 244.5 874.2 243.8Q875.0 243.0 876.4 243.0L876.4 243.0L878.3 243.0L878.3 238.9Q878.3 237.1 879.3 236.1Q880.3 235.1 882.0 235.1L882.0 235.1Q883.7 235.1 884.6 236.1Q885.6 237.1 885.6 238.9L885.6 238.9L885.6 243.0L889.0 243.0Q890.4 243.0 891.1 243.8Q891.9 244.5 891.9 245.8L891.9 245.8Q891.9 247.1 891.1 247.9Q890.3 248.6 889.0 248.6L889.0 248.6L885.6 248.6L885.6 264.8Q885.6 266.6 886.3 267.4Q887.0 268.2 888.6 268.4L888.6 268.4L889.1 268.4Q892.0 268.7 892.0 271.1L892.0 271.1Q892.0 272.7 890.7 273.6Q889.3 274.4 886.8 274.4L886.8 274.4L886.5 274.4Q878.3 274.4 878.3 266.4ZM903.1 237.5Q901.9 238.7 900.2 238.7Q898.5 238.7 897.4 237.5Q896.2 236.3 896.2 234.7L896.2 234.7Q896.2 233.0 897.4 231.9Q898.5 230.7 900.2 230.7L900.2 230.7Q902.0 230.7 903.1 231.9Q904.3 233.0 904.3 234.7L904.3 234.7Q904.3 236.3 903.1 237.5ZM902.9 273.6Q901.9 274.7 900.2 274.7Q898.6 274.7 897.6 273.6Q896.6 272.6 896.6 270.8L896.6 270.8L896.6 246.2Q896.6 244.5 897.6 243.4Q898.6 242.4 900.2 242.4Q901.9 242.4 902.9 243.4Q903.9 244.5 903.9 246.3L903.9 246.3L903.9 270.8Q903.9 272.6 902.9 273.6ZM934.7 270.4Q930.7 274.7 923.8 274.7Q916.9 274.7 912.8 270.4Q908.7 266.1 908.7 258.6L908.7 258.6Q908.7 251.1 912.8 246.7Q916.9 242.4 923.8 242.4L923.8 242.4Q930.6 242.4 934.7 246.7Q938.8 251.1 938.8 258.6L938.8 258.6Q938.8 266.1 934.7 270.4ZM918.2 266.2Q920.3 268.9 923.8 268.9Q927.3 268.9 929.3 266.2Q931.4 263.5 931.4 258.6L931.4 258.6Q931.4 253.7 929.3 250.9Q927.3 248.2 923.8 248.2L923.8 248.2Q920.3 248.2 918.2 250.9Q916.2 253.7 916.2 258.6L916.2 258.6Q916.2 263.5 918.2 266.2ZM949.8 273.7Q948.8 274.7 947.1 274.7Q945.5 274.7 944.5 273.7Q943.5 272.6 943.5 270.8L943.5 270.8L943.5 246.1Q943.5 244.4 944.4 243.4Q945.4 242.4 947.0 242.4Q948.6 242.4 949.6 243.4Q950.6 244.4 950.6 246.1L950.6 246.1L950.6 248.3L950.7 248.3Q953.4 242.4 960.4 242.4L960.4 242.4Q965.5 242.4 968.3 245.5Q971.1 248.6 971.1 254.0L971.1 254.0L971.1 270.8Q971.1 272.6 970.1 273.7Q969.2 274.7 967.5 274.7Q965.9 274.7 964.9 273.7Q963.8 272.6 963.8 270.8L963.8 270.8L963.8 255.5Q963.8 252.1 962.3 250.4Q960.7 248.6 957.6 248.6L957.6 248.6Q954.5 248.6 952.6 250.7Q950.8 252.7 950.8 256.1L950.8 256.1L950.8 270.8Q950.8 272.6 949.8 273.7Z M1013.7 270.4Q1009.6 274.7 1002.7 274.7Q995.8 274.7 991.8 270.4Q987.7 266.1 987.7 258.6L987.7 258.6Q987.7 251.1 991.8 246.7Q995.9 242.4 1002.7 242.4L1002.7 242.4Q1009.6 242.4 1013.7 246.7Q1017.8 251.1 1017.8 258.6L1017.8 258.6Q1017.8 266.1 1013.7 270.4ZM997.2 266.2Q999.2 268.9 1002.7 268.9Q1006.2 268.9 1008.3 266.2Q1010.3 263.5 1010.3 258.6L1010.3 258.6Q1010.3 253.7 1008.3 250.9Q1006.2 248.2 1002.7 248.2L1002.7 248.2Q999.2 248.2 997.2 250.9Q995.1 253.7 995.1 258.6L995.1 258.6Q995.1 263.5 997.2 266.2ZM1030.8 273.7Q1029.8 274.7 1028.1 274.7Q1026.5 274.7 1025.5 273.7Q1024.5 272.7 1024.5 270.9L1024.5 270.9L1024.5 248.6L1022.5 248.6Q1021.3 248.6 1020.5 247.9Q1019.7 247.2 1019.7 245.9L1019.7 245.9Q1019.7 244.6 1020.5 243.9Q1021.3 243.1 1022.5 243.1L1022.5 243.1L1024.5 243.1L1024.5 240.4Q1024.5 231.5 1033.0 231.5L1033.0 231.5Q1035.8 231.5 1037.2 232.3Q1038.6 233.1 1038.6 234.5L1038.6 234.5Q1038.6 236.2 1037.0 236.6L1037.0 236.6Q1036.4 236.8 1035.4 236.8L1035.4 236.8Q1033.4 236.9 1032.5 237.8Q1031.6 238.7 1031.6 240.7L1031.6 240.7L1031.6 243.1L1035.6 243.1Q1036.8 243.1 1037.6 243.9Q1038.3 244.6 1038.3 245.9L1038.3 245.9Q1038.3 247.2 1037.6 247.9Q1036.8 248.6 1035.6 248.6L1035.6 248.6L1031.8 248.6L1031.8 270.9Q1031.8 272.7 1030.8 273.7Z M50.3 356.1Q49.3 357.2 47.5 357.2Q45.7 357.2 44.7 356.1Q43.7 355.1 43.7 353.2L43.7 353.2L43.7 318.2Q43.7 316.4 44.7 315.3Q45.7 314.3 47.5 314.3L47.5 314.3L60.5 314.3Q67.3 314.3 71.2 317.8Q75.1 321.4 75.1 327.5L75.1 327.5Q75.1 331.6 73.1 334.8Q71.1 338.0 67.4 339.4L67.4 339.4L74.1 351.1Q74.9 352.5 74.9 353.7L74.9 353.7Q74.9 355.2 73.8 356.2Q72.8 357.2 71.1 357.2L71.1 357.2Q69.8 357.2 69.0 356.6Q68.2 356.0 67.3 354.4L67.3 354.4L59.7 340.7L51.3 340.7L51.3 353.2Q51.3 355.1 50.3 356.1ZM51.3 320.4L51.3 334.9L59.8 334.9Q63.4 334.9 65.4 333.0Q67.4 331.1 67.4 327.6L67.4 327.6Q67.4 324.3 65.3 322.4Q63.2 320.4 59.7 320.4L59.7 320.4L51.3 320.4ZM105.2 352.9Q101.1 357.2 94.2 357.2Q87.3 357.2 83.3 352.9Q79.2 348.6 79.2 341.1L79.2 341.1Q79.2 333.6 83.3 329.2Q87.4 324.9 94.2 324.9L94.2 324.9Q101.1 324.9 105.2 329.2Q109.3 333.6 109.3 341.1L109.3 341.1Q109.3 348.6 105.2 352.9ZM88.7 348.7Q90.7 351.4 94.2 351.4Q97.7 351.4 99.8 348.7Q101.8 346.0 101.8 341.1L101.8 341.1Q101.8 336.2 99.8 333.4Q97.7 330.7 94.2 330.7L94.2 330.7Q90.7 330.7 88.7 333.4Q86.6 336.2 86.6 341.1L86.6 341.1Q86.6 346.0 88.7 348.7ZM120.3 356.2Q119.3 357.2 117.7 357.2Q116.1 357.2 115.1 356.2Q114.2 355.3 114.2 353.5L114.2 353.5L114.2 317.6Q114.2 315.7 115.2 314.7Q116.2 313.7 117.8 313.7Q119.5 313.7 120.4 314.7Q121.4 315.7 121.4 317.6L121.4 317.6L121.4 330.9L121.6 330.9Q123.0 328.1 125.5 326.5Q128.1 325.0 131.3 325.0L131.3 325.0Q137.2 325.0 140.7 329.3Q144.2 333.6 144.2 341.1L144.2 341.1Q144.2 348.5 140.7 352.8Q137.2 357.1 131.3 357.1L131.3 357.1Q127.9 357.1 125.4 355.6Q122.9 354.0 121.4 351.3L121.4 351.3L121.3 351.3L121.3 353.5Q121.3 355.2 120.3 356.2ZM129.1 351.1L129.1 351.1Q132.6 351.1 134.6 348.4Q136.7 345.7 136.7 341.1Q136.7 336.4 134.6 333.7Q132.6 331.0 129.1 331.0L129.1 331.0Q125.7 331.0 123.6 333.8Q121.4 336.5 121.4 341.1L121.4 341.1Q121.4 345.6 123.6 348.3Q125.7 351.1 129.1 351.1ZM173.5 352.9Q169.5 357.2 162.6 357.2Q155.7 357.2 151.6 352.9Q147.5 348.6 147.5 341.1L147.5 341.1Q147.5 333.6 151.7 329.2Q155.8 324.9 162.6 324.9L162.6 324.9Q169.4 324.9 173.5 329.2Q177.6 333.6 177.6 341.1L177.6 341.1Q177.6 348.6 173.5 352.9ZM157.0 348.7Q159.1 351.4 162.6 351.4Q166.1 351.4 168.1 348.7Q170.2 346.0 170.2 341.1L170.2 341.1Q170.2 336.2 168.1 333.4Q166.1 330.7 162.6 330.7L162.6 330.7Q159.1 330.7 157.0 333.4Q155.0 336.2 155.0 341.1L155.0 341.1Q155.0 346.0 157.0 348.7ZM184.3 348.9L184.3 348.9L184.3 331.1L182.4 331.1Q181.0 331.1 180.2 330.4Q179.4 329.6 179.4 328.3L179.4 328.3Q179.4 327.0 180.2 326.3Q181.0 325.5 182.4 325.5L182.4 325.5L184.3 325.5L184.3 321.4Q184.3 319.6 185.3 318.6Q186.3 317.6 188.0 317.6L188.0 317.6Q189.6 317.6 190.6 318.6Q191.6 319.6 191.6 321.4L191.6 321.4L191.6 325.5L195.0 325.5Q196.4 325.5 197.1 326.3Q197.9 327.0 197.9 328.3L197.9 328.3Q197.9 329.6 197.1 330.4Q196.3 331.1 195.0 331.1L195.0 331.1L191.6 331.1L191.6 347.3Q191.6 349.1 192.3 349.9Q193.0 350.7 194.5 350.9L194.5 350.9L195.1 350.9Q198.0 351.2 198.0 353.6L198.0 353.6Q198.0 355.2 196.7 356.1Q195.3 356.9 192.8 356.9L192.8 356.9L192.5 356.9Q184.3 356.9 184.3 348.9Z M217.0 357.1L217.0 357.1Q215.3 357.1 214.2 356.1Q213.2 355.2 213.2 353.6L213.2 353.6Q213.2 352.6 213.7 351.3L213.7 351.3L226.0 317.9Q226.7 315.8 228.1 314.8Q229.4 313.8 231.5 313.8L231.5 313.8Q233.5 313.8 234.9 314.8Q236.2 315.7 237.0 317.9L237.0 317.9L249.3 351.3Q249.8 352.7 249.8 353.6L249.8 353.6Q249.8 355.1 248.7 356.1Q247.7 357.1 246.0 357.1L246.0 357.1Q244.5 357.1 243.6 356.3Q242.6 355.6 242.1 353.9L242.1 353.9L239.4 345.8L223.6 345.8L220.8 353.8Q220.3 355.6 219.4 356.3Q218.5 357.1 217.0 357.1ZM231.3 321.8L225.4 339.8L237.5 339.8L231.5 321.8L231.3 321.8ZM260.8 366.6Q259.8 367.6 258.2 367.6Q256.5 367.6 255.5 366.6Q254.5 365.6 254.5 363.8L254.5 363.8L254.5 328.7Q254.5 326.9 255.5 325.9Q256.5 324.9 258.1 324.9L258.1 324.9Q259.7 324.9 260.7 325.9Q261.7 326.9 261.7 328.7L261.7 328.7L261.7 330.9L261.8 330.9Q263.2 328.1 265.7 326.6Q268.3 325.0 271.6 325.0L271.6 325.0Q277.5 325.0 281.0 329.3Q284.5 333.6 284.5 341.1L284.5 341.1Q284.5 348.5 281.0 352.8Q277.6 357.1 271.7 357.1L271.7 357.1Q268.4 357.1 265.8 355.6Q263.3 354.1 262.0 351.4L262.0 351.4L261.8 351.4L261.8 363.8Q261.8 365.6 260.8 366.6ZM269.4 351.1L269.4 351.1Q272.9 351.1 275.0 348.4Q277.0 345.7 277.0 341.1L277.0 341.1Q277.0 336.5 274.9 333.7Q272.9 331.0 269.4 331.0L269.4 331.0Q266.0 331.0 263.9 333.8Q261.8 336.5 261.8 341.1L261.8 341.1Q261.8 345.6 263.9 348.4Q266.0 351.1 269.4 351.1ZM295.5 366.6Q294.4 367.6 292.8 367.6Q291.2 367.6 290.2 366.6Q289.2 365.6 289.2 363.8L289.2 363.8L289.2 328.7Q289.2 326.9 290.2 325.9Q291.1 324.9 292.7 324.9L292.7 324.9Q294.3 324.9 295.3 325.9Q296.3 326.9 296.3 328.7L296.3 328.7L296.3 330.9L296.4 330.9Q297.8 328.1 300.3 326.6Q302.9 325.0 306.2 325.0L306.2 325.0Q312.1 325.0 315.6 329.3Q319.1 333.6 319.1 341.1L319.1 341.1Q319.1 348.5 315.7 352.8Q312.2 357.1 306.3 357.1L306.3 357.1Q303.0 357.1 300.4 355.6Q297.9 354.1 296.6 351.4L296.6 351.4L296.5 351.4L296.5 363.8Q296.5 365.6 295.5 366.6ZM304.0 351.1L304.0 351.1Q307.5 351.1 309.6 348.4Q311.6 345.7 311.6 341.1L311.6 341.1Q311.6 336.5 309.6 333.7Q307.5 331.0 304.0 331.0L304.0 331.0Q300.6 331.0 298.5 333.8Q296.4 336.5 296.4 341.1L296.4 341.1Q296.4 345.6 298.5 348.4Q300.6 351.1 304.0 351.1ZM337.6 357.2L337.6 357.2Q330.5 357.2 326.5 353.0Q322.5 348.7 322.5 341.2L322.5 341.2Q322.5 333.7 326.5 329.3Q330.5 324.9 337.2 324.9L337.2 324.9Q343.5 324.9 347.5 328.9Q351.5 333.0 351.5 339.4L351.5 339.4Q351.5 341.0 350.6 341.9Q349.7 342.8 348.1 342.8L348.1 342.8L329.8 342.8L329.8 343.0Q329.8 346.9 331.9 349.3Q334.0 351.6 337.5 351.6L337.5 351.6Q340 351.6 341.8 350.6Q343.5 349.7 345.3 347.4L345.3 347.4Q346.4 346.3 347.8 346.3L347.8 346.3Q349.0 346.3 349.9 347.0Q350.7 347.8 350.7 349.1L350.7 349.1Q350.7 349.9 350.2 350.9L350.2 350.9Q348.6 353.9 345.3 355.5Q342.0 357.2 337.6 357.2ZM329.8 338.0L329.8 338.0L344.3 338.0Q344.2 334.6 342.3 332.6Q340.3 330.5 337.2 330.5Q334.1 330.5 332.1 332.6Q330.0 334.7 329.8 338.0ZM365.3 357.1L365.3 357.1Q360.7 357.1 357.8 354.5Q354.9 351.9 354.9 347.7L354.9 347.7Q354.9 343.6 358.0 341.2Q361.0 338.8 366.7 338.4L366.7 338.4L375.0 337.9L375.0 335.7Q375.0 333.3 373.4 331.9Q371.9 330.6 369.2 330.6L369.2 330.6Q367.0 330.6 365.5 331.4Q364.0 332.2 362.6 334.2L362.6 334.2Q361.5 335.7 359.7 335.7L359.7 335.7Q358.3 335.7 357.5 334.9Q356.6 334.1 356.6 332.8L356.6 332.8Q356.6 331.8 357.1 330.8L357.1 330.8Q358.3 328.1 361.6 326.5Q365.0 324.9 369.4 324.9L369.4 324.9Q375.2 324.9 378.7 327.7Q382.2 330.5 382.2 335.2L382.2 335.2L382.2 353.5Q382.2 355.2 381.2 356.2Q380.2 357.2 378.6 357.2L378.6 357.2Q377.1 357.2 376.2 356.3Q375.2 355.4 375.1 353.8L375.1 353.8L375.1 351.6L375.0 351.6Q373.7 354.1 371.0 355.6Q368.3 357.1 365.3 357.1ZM367.5 351.6L367.5 351.6Q370.6 351.6 372.8 349.7Q375.0 347.8 375.0 345.1L375.0 345.1L375.0 342.7L367.7 343.1Q365.1 343.3 363.7 344.4Q362.2 345.6 362.2 347.4L362.2 347.4Q362.2 349.3 363.7 350.4Q365.1 351.6 367.5 351.6ZM394.3 356.1Q393.3 357.2 391.7 357.2Q390.0 357.2 389.0 356.1Q388.0 355.1 388.0 353.3L388.0 353.3L388.0 328.6Q388.0 326.9 389.0 325.9Q389.9 324.9 391.5 324.9L391.5 324.9Q393.0 324.9 394.0 325.9Q395.0 326.9 395.0 328.6L395.0 328.6L395.0 331.0L395.1 331.0Q395.8 328.3 397.6 326.6Q399.4 325.0 401.8 325.0L401.8 325.0Q403.5 325.0 404.3 325.8L404.3 325.8Q405.4 326.6 405.4 328.4L405.4 328.4Q405.4 330.1 404.3 331.0L404.3 331.0Q403.2 331.9 401.1 332.0L401.1 332.0Q395.3 332.0 395.3 338.4L395.3 338.4L395.3 353.3Q395.3 355.1 394.3 356.1ZM417.8 357.1L417.8 357.1Q413.2 357.1 410.3 354.5Q407.4 351.9 407.4 347.7L407.4 347.7Q407.4 343.6 410.4 341.2Q413.5 338.8 419.2 338.4L419.2 338.4L427.4 337.9L427.4 335.7Q427.4 333.3 425.9 331.9Q424.3 330.6 421.6 330.6L421.6 330.6Q419.5 330.6 418.0 331.4Q416.5 332.2 415.1 334.2L415.1 334.2Q414.0 335.7 412.2 335.7L412.2 335.7Q410.8 335.7 409.9 334.9Q409.1 334.1 409.1 332.8L409.1 332.8Q409.1 331.8 409.6 330.8L409.6 330.8Q410.8 328.1 414.1 326.5Q417.5 324.9 421.9 324.9L421.9 324.9Q427.7 324.9 431.2 327.7Q434.6 330.5 434.6 335.2L434.6 335.2L434.6 353.5Q434.6 355.2 433.6 356.2Q432.7 357.2 431.1 357.2L431.1 357.2Q429.6 357.2 428.6 356.3Q427.7 355.4 427.6 353.8L427.6 353.8L427.6 351.6L427.5 351.6Q426.1 354.1 423.5 355.6Q420.8 357.1 417.8 357.1ZM420.0 351.6L420.0 351.6Q423.1 351.6 425.3 349.7Q427.4 347.8 427.4 345.1L427.4 345.1L427.4 342.7L420.2 343.1Q417.6 343.3 416.1 344.4Q414.7 345.6 414.7 347.4L414.7 347.4Q414.7 349.3 416.1 350.4Q417.6 351.6 420.0 351.6ZM446.8 356.2Q445.8 357.2 444.1 357.2Q442.5 357.2 441.5 356.2Q440.5 355.1 440.5 353.3L440.5 353.3L440.5 328.6Q440.5 326.9 441.4 325.9Q442.4 324.9 444.0 324.9Q445.6 324.9 446.6 325.9Q447.6 326.9 447.6 328.6L447.6 328.6L447.6 330.8L447.7 330.8Q450.4 324.9 457.4 324.9L457.4 324.9Q462.5 324.9 465.3 328.0Q468.1 331.1 468.1 336.5L468.1 336.5L468.1 353.3Q468.1 355.1 467.1 356.2Q466.2 357.2 464.5 357.2Q462.9 357.2 461.9 356.2Q460.8 355.1 460.8 353.3L460.8 353.3L460.8 338.0Q460.8 334.6 459.3 332.9Q457.7 331.1 454.6 331.1L454.6 331.1Q451.5 331.1 449.6 333.2Q447.8 335.2 447.8 338.6L447.8 338.6L447.8 353.3Q447.8 355.1 446.8 356.2ZM487.6 357.2L487.6 357.2Q480.8 357.2 476.7 352.9Q472.7 348.5 472.7 341.1L472.7 341.1Q472.7 333.7 476.7 329.3Q480.8 324.9 487.6 324.9L487.6 324.9Q492.1 324.9 495.7 327.0Q499.2 329.1 500.3 332.4L500.3 332.4Q500.7 333.4 500.7 334.1L500.7 334.1Q500.7 335.5 499.8 336.3Q498.9 337.1 497.6 337.1L497.6 337.1Q496.5 337.1 495.8 336.6Q495.0 336.1 494.4 335.0L494.4 335.0Q492.1 330.8 487.8 330.8L487.8 330.8Q484.3 330.8 482.2 333.6Q480.1 336.3 480.1 341.1L480.1 341.1Q480.1 345.9 482.2 348.6Q484.2 351.3 487.7 351.3L487.7 351.3Q492.1 351.3 494.4 347.3L494.4 347.3Q495.1 346.1 495.8 345.6Q496.6 345.1 497.7 345.1L497.7 345.1Q499.1 345.1 499.9 345.9Q500.8 346.7 500.8 348.1L500.8 348.1Q500.8 348.9 500.4 349.9L500.4 349.9Q499.1 353.1 495.5 355.2Q492.0 357.2 487.6 357.2ZM519.5 357.2L519.5 357.2Q512.4 357.2 508.4 353.0Q504.4 348.7 504.4 341.2L504.4 341.2Q504.4 333.7 508.4 329.3Q512.4 324.9 519.1 324.9L519.1 324.9Q525.4 324.9 529.4 328.9Q533.4 333.0 533.4 339.4L533.4 339.4Q533.4 341.0 532.5 341.9Q531.6 342.8 530.0 342.8L530.0 342.8L511.7 342.8L511.7 343.0Q511.7 346.9 513.8 349.3Q515.9 351.6 519.4 351.6L519.4 351.6Q521.9 351.6 523.7 350.6Q525.4 349.7 527.2 347.4L527.2 347.4Q528.3 346.3 529.7 346.3L529.7 346.3Q530.9 346.3 531.8 347.0Q532.6 347.8 532.6 349.1L532.6 349.1Q532.6 349.9 532.1 350.9L532.1 350.9Q530.5 353.9 527.2 355.5Q523.9 357.2 519.5 357.2ZM511.7 338.0L511.7 338.0L526.2 338.0Q526.1 334.6 524.2 332.6Q522.2 330.5 519.1 330.5Q516.0 330.5 514.0 332.6Q511.9 334.7 511.7 338.0Z M559.2 357.1L559.2 357.1Q554.7 357.1 551.7 354.5Q548.8 351.9 548.8 347.7L548.8 347.7Q548.8 343.6 551.9 341.2Q555.0 338.8 560.6 338.4L560.6 338.4L568.9 337.9L568.9 335.7Q568.9 333.3 567.3 331.9Q565.8 330.6 563.1 330.6L563.1 330.6Q560.9 330.6 559.4 331.4Q557.9 332.2 556.6 334.2L556.6 334.2Q555.4 335.7 553.6 335.7L553.6 335.7Q552.3 335.7 551.4 334.9Q550.5 334.1 550.5 332.8L550.5 332.8Q550.5 331.8 551.0 330.8L551.0 330.8Q552.2 328.1 555.6 326.5Q558.9 324.9 563.4 324.9L563.4 324.9Q569.1 324.9 572.6 327.7Q576.1 330.5 576.1 335.2L576.1 335.2L576.1 353.5Q576.1 355.2 575.1 356.2Q574.1 357.2 572.5 357.2L572.5 357.2Q571.0 357.2 570.1 356.3Q569.1 355.4 569.0 353.8L569.0 353.8L569.0 351.6L568.9 351.6Q567.6 354.1 564.9 355.6Q562.2 357.1 559.2 357.1ZM561.4 351.6L561.4 351.6Q564.5 351.6 566.7 349.7Q568.9 347.8 568.9 345.1L568.9 345.1L568.9 342.7L561.7 343.1Q559.0 343.3 557.6 344.4Q556.1 345.6 556.1 347.4L556.1 347.4Q556.1 349.3 557.6 350.4Q559.0 351.6 561.4 351.6ZM588.2 356.2Q587.2 357.2 585.6 357.2Q583.9 357.2 582.9 356.2Q581.9 355.1 581.9 353.3L581.9 353.3L581.9 328.6Q581.9 326.9 582.9 325.9Q583.8 324.9 585.4 324.9Q587.0 324.9 588.0 325.9Q589.0 326.9 589.0 328.6L589.0 328.6L589.0 330.8L589.2 330.8Q591.8 324.9 598.8 324.9L598.8 324.9Q603.9 324.9 606.8 328.0Q609.6 331.1 609.6 336.5L609.6 336.5L609.6 353.3Q609.6 355.1 608.6 356.2Q607.6 357.2 606.0 357.2Q604.3 357.2 603.3 356.2Q602.3 355.1 602.3 353.3L602.3 353.3L602.3 338.0Q602.3 334.6 600.7 332.9Q599.2 331.1 596.1 331.1L596.1 331.1Q592.9 331.1 591.1 333.2Q589.2 335.2 589.2 338.6L589.2 338.6L589.2 353.3Q589.2 355.1 588.2 356.2ZM627.0 357.1L627.0 357.1Q621.1 357.1 617.6 352.7Q614.1 348.4 614.1 341.0L614.1 341.0Q614.1 333.7 617.6 329.3Q621.1 325.0 627.0 325.0L627.0 325.0Q630.3 325.0 632.8 326.5Q635.4 328.1 636.6 330.7L636.6 330.7L636.8 330.7L636.8 317.6Q636.8 315.7 637.8 314.7Q638.8 313.7 640.4 313.7Q642.1 313.7 643.1 314.7Q644.1 315.7 644.1 317.6L644.1 317.6L644.1 353.5Q644.1 355.2 643.1 356.2Q642.1 357.2 640.5 357.2L640.5 357.2Q638.9 357.2 637.8 356.2Q636.8 355.2 636.8 353.5L636.8 353.5L636.8 351.1L636.7 351.1Q635.5 353.9 633.0 355.5Q630.5 357.1 627.0 357.1ZM629.2 351.1L629.2 351.1Q632.7 351.1 634.8 348.4Q636.8 345.7 636.8 341.1L636.8 341.1Q636.8 336.5 634.8 333.7Q632.7 331.0 629.2 331.0L629.2 331.0Q625.7 331.0 623.7 333.7Q621.6 336.4 621.6 341.1L621.6 341.1Q621.6 345.7 623.6 348.4Q625.7 351.1 629.2 351.1Z M686.7 356.6L666.7 356.6Q665.0 356.6 664.0 355.5Q663.0 354.5 663.0 352.7L663.0 352.7L663.0 317.7Q663.0 315.9 664.0 314.8Q665.0 313.8 666.7 313.8L666.7 313.8Q668.5 313.8 669.5 314.8Q670.5 315.9 670.5 317.7L670.5 317.7L670.5 350.2L686.7 350.2Q688.3 350.2 689.2 351.1Q690.2 351.9 690.2 353.4Q690.2 354.8 689.2 355.7Q688.3 356.6 686.7 356.6L686.7 356.6ZM708.2 357.2L708.2 357.2Q701.1 357.2 697.1 353.0Q693.1 348.7 693.1 341.2L693.1 341.2Q693.1 333.7 697.1 329.3Q701.1 324.9 707.8 324.9L707.8 324.9Q714.2 324.9 718.1 328.9Q722.1 333.0 722.1 339.4L722.1 339.4Q722.1 341.0 721.2 341.9Q720.3 342.8 718.7 342.8L718.7 342.8L700.4 342.8L700.4 343.0Q700.4 346.9 702.5 349.3Q704.6 351.6 708.1 351.6L708.1 351.6Q710.6 351.6 712.4 350.6Q714.2 349.7 715.9 347.4L715.9 347.4Q717.0 346.3 718.4 346.3L718.4 346.3Q719.6 346.3 720.5 347.0Q721.3 347.8 721.3 349.1L721.3 349.1Q721.3 349.9 720.8 350.9L720.8 350.9Q719.2 353.9 715.9 355.5Q712.6 357.2 708.2 357.2ZM700.4 338.0L700.4 338.0L714.9 338.0Q714.8 334.6 712.9 332.6Q710.9 330.5 707.8 330.5Q704.7 330.5 702.7 332.6Q700.6 334.7 700.4 338.0ZM739.2 357.2L739.2 357.2Q737.2 357.2 736.0 356.3Q734.8 355.4 734.1 353.4L734.1 353.4L725.3 330.3Q724.9 329.2 724.9 328.2L724.9 328.2Q724.9 326.8 726.0 325.8Q727.0 324.9 728.6 324.9L728.6 324.9Q731.2 324.9 732.1 327.8L732.1 327.8L739.1 349.8L739.3 349.8L746.4 327.8Q747.2 324.9 749.8 324.9L749.8 324.9Q751.3 324.9 752.3 325.8Q753.3 326.8 753.3 328.2L753.3 328.2Q753.3 329.2 753.0 330.2L753.0 330.2L744.2 353.4Q743.6 355.3 742.3 356.3Q741.1 357.2 739.2 357.2ZM771.3 357.2L771.3 357.2Q764.1 357.2 760.1 353.0Q756.2 348.7 756.2 341.2L756.2 341.2Q756.2 333.7 760.1 329.3Q764.1 324.9 770.8 324.9L770.8 324.9Q777.2 324.9 781.2 328.9Q785.1 333.0 785.1 339.4L785.1 339.4Q785.1 341.0 784.2 341.9Q783.3 342.8 781.7 342.8L781.7 342.8L763.4 342.8L763.4 343.0Q763.4 346.9 765.5 349.3Q767.6 351.6 771.2 351.6L771.2 351.6Q773.7 351.6 775.4 350.6Q777.2 349.7 779.0 347.4L779.0 347.4Q780.0 346.3 781.4 346.3L781.4 346.3Q782.7 346.3 783.5 347.0Q784.3 347.8 784.3 349.1L784.3 349.1Q784.3 349.9 783.8 350.9L783.8 350.9Q782.3 353.9 779.0 355.5Q775.7 357.2 771.3 357.2ZM763.5 338.0L763.5 338.0L778.0 338.0Q777.9 334.6 775.9 332.6Q773.9 330.5 770.9 330.5Q767.8 330.5 765.7 332.6Q763.7 334.7 763.5 338.0ZM796.3 356.2Q795.3 357.2 793.7 357.2Q792.1 357.2 791.0 356.2Q790.0 355.1 790.0 353.3L790.0 353.3L790.0 317.6Q790.0 315.7 791.0 314.7Q792.1 313.7 793.7 313.7Q795.3 313.7 796.3 314.7Q797.3 315.7 797.3 317.6L797.3 317.6L797.3 353.3Q797.3 355.1 796.3 356.2Z M840.2 352.9Q836.2 357.2 829.3 357.2Q822.4 357.2 818.3 352.9Q814.3 348.6 814.3 341.1L814.3 341.1Q814.3 333.6 818.4 329.2Q822.5 324.9 829.3 324.9L829.3 324.9Q836.1 324.9 840.2 329.2Q844.3 333.6 844.3 341.1L844.3 341.1Q844.3 348.6 840.2 352.9ZM823.7 348.7Q825.8 351.4 829.3 351.4Q832.8 351.4 834.9 348.7Q836.9 346.0 836.9 341.1L836.9 341.1Q836.9 336.2 834.9 333.4Q832.8 330.7 829.3 330.7L829.3 330.7Q825.8 330.7 823.7 333.4Q821.7 336.2 821.7 341.1L821.7 341.1Q821.7 346.0 823.7 348.7ZM857.3 356.2Q856.4 357.2 854.7 357.2Q853.0 357.2 852.0 356.2Q851.0 355.2 851.0 353.4L851.0 353.4L851.0 331.1L849.1 331.1Q847.8 331.1 847.1 330.4Q846.3 329.7 846.3 328.4L846.3 328.4Q846.3 327.1 847.1 326.4Q847.8 325.6 849.1 325.6L849.1 325.6L851.0 325.6L851.0 322.9Q851.0 314.0 859.6 314.0L859.6 314.0Q862.4 314.0 863.8 314.8Q865.2 315.6 865.2 317.0L865.2 317.0Q865.2 318.7 863.6 319.1L863.6 319.1Q862.9 319.3 862.0 319.3L862.0 319.3Q860.0 319.4 859.1 320.3Q858.2 321.2 858.2 323.2L858.2 323.2L858.2 325.6L862.1 325.6Q863.4 325.6 864.1 326.4Q864.9 327.1 864.9 328.4L864.9 328.4Q864.9 329.7 864.1 330.4Q863.4 331.1 862.1 331.1L862.1 331.1L858.3 331.1L858.3 353.4Q858.3 355.2 857.3 356.2Z M896.8 357.3L896.8 357.3Q890.7 357.3 886.5 355.0Q882.4 352.7 881.1 349.0L881.1 349.0Q880.7 347.9 880.7 346.8L880.7 346.8Q880.7 345.2 881.7 344.3Q882.6 343.3 884.1 343.3L884.1 343.3Q885.3 343.3 886.2 343.9Q887.0 344.4 887.6 345.7L887.6 345.7Q888.6 348.4 891.1 349.7Q893.6 351.0 897.1 351.0L897.1 351.0Q900.9 351.0 903.3 349.3Q905.8 347.6 905.8 345.0L905.8 345.0Q905.8 342.7 904.0 341.2Q902.2 339.8 898.1 338.9L898.1 338.9L893.6 338.0Q881.2 335.4 881.2 326.1L881.2 326.1Q881.2 320.5 885.6 317.1Q890.0 313.6 896.9 313.6L896.9 313.6Q902.5 313.6 906.5 316.0Q910.6 318.4 911.9 322.5L911.9 322.5Q912.1 323.2 912.1 324.3L912.1 324.3Q912.1 325.6 911.2 326.5Q910.3 327.4 908.9 327.4L908.9 327.4Q906.4 327.4 905.2 325.0L905.2 325.0Q903.2 319.9 896.8 319.9L896.8 319.9Q893.3 319.9 891.0 321.4Q888.8 323.0 888.8 325.6L888.8 325.6Q888.8 327.8 890.5 329.2Q892.3 330.7 896.2 331.5L896.2 331.5L900.7 332.4Q907.4 333.8 910.4 336.6Q913.4 339.4 913.4 344.1L913.4 344.1Q913.4 350.2 908.9 353.7Q904.5 357.3 896.8 357.3ZM932.1 357.2L932.1 357.2Q925.0 357.2 921.0 353.0Q917.0 348.7 917.0 341.2L917.0 341.2Q917.0 333.7 921.0 329.3Q925.0 324.9 931.7 324.9L931.7 324.9Q938.0 324.9 942.0 328.9Q946.0 333.0 946.0 339.4L946.0 339.4Q946.0 341.0 945.1 341.9Q944.2 342.8 942.6 342.8L942.6 342.8L924.3 342.8L924.3 343.0Q924.3 346.9 926.4 349.3Q928.5 351.6 932.0 351.6L932.0 351.6Q934.5 351.6 936.3 350.6Q938.0 349.7 939.8 347.4L939.8 347.4Q940.8 346.3 942.3 346.3L942.3 346.3Q943.5 346.3 944.4 347.0Q945.2 347.8 945.2 349.1L945.2 349.1Q945.2 349.9 944.7 350.9L944.7 350.9Q943.1 353.9 939.8 355.5Q936.5 357.2 932.1 357.2ZM924.3 338.0L924.3 338.0L938.8 338.0Q938.7 334.6 936.7 332.6Q934.8 330.5 931.7 330.5Q928.6 330.5 926.6 332.6Q924.5 334.7 924.3 338.0ZM957.2 356.2Q956.2 357.2 954.5 357.2Q952.9 357.2 951.9 356.2Q950.9 355.1 950.9 353.3L950.9 353.3L950.9 317.6Q950.9 315.7 951.9 314.7Q952.9 313.7 954.5 313.7Q956.2 313.7 957.2 314.7Q958.2 315.7 958.2 317.6L958.2 317.6L958.2 353.3Q958.2 355.1 957.2 356.2ZM972.7 356.2Q971.7 357.2 970.1 357.2Q968.4 357.2 967.4 356.2Q966.4 355.2 966.4 353.4L966.4 353.4L966.4 331.1L964.5 331.1Q963.2 331.1 962.4 330.4Q961.7 329.7 961.7 328.4L961.7 328.4Q961.7 327.1 962.4 326.4Q963.2 325.6 964.5 325.6L964.5 325.6L966.4 325.6L966.4 322.9Q966.4 314.0 975.0 314.0L975.0 314.0Q977.8 314.0 979.2 314.8Q980.5 315.6 980.5 317.0L980.5 317.0Q980.5 318.7 978.9 319.1L978.9 319.1Q978.3 319.3 977.3 319.3L977.3 319.3Q975.3 319.4 974.5 320.3Q973.6 321.2 973.6 323.2L973.6 323.2L973.6 325.6L977.5 325.6Q978.7 325.6 979.5 326.4Q980.3 327.1 980.3 328.4L980.3 328.4Q980.3 329.7 979.5 330.4Q978.7 331.1 977.5 331.1L977.5 331.1L973.7 331.1L973.7 353.4Q973.7 355.2 972.7 356.2ZM1001.3 342.7L988.1 342.7Q986.6 342.7 985.6 341.8Q984.6 340.9 984.6 339.4Q984.6 337.9 985.6 337.0Q986.6 336.2 988.1 336.2L988.1 336.2L1001.3 336.2Q1002.9 336.2 1003.8 337.0Q1004.8 337.9 1004.8 339.4Q1004.8 340.9 1003.8 341.8Q1002.9 342.7 1001.3 342.7L1001.3 342.7Z M59.2 439.1L47.5 439.1Q45.7 439.1 44.7 438.0Q43.7 437.0 43.7 435.2L43.7 435.2L43.7 400.7Q43.7 398.9 44.7 397.8Q45.7 396.8 47.5 396.8L47.5 396.8L59.2 396.8Q68.7 396.8 74.0 402.3Q79.3 407.8 79.3 417.8L79.3 417.8Q79.3 427.9 74.0 433.5Q68.7 439.1 59.2 439.1L59.2 439.1ZM51.3 403.2L51.3 432.7L58.4 432.7Q64.8 432.7 68.2 428.9Q71.6 425.1 71.6 417.9L71.6 417.9Q71.6 410.8 68.1 407.0Q64.7 403.2 58.4 403.2L58.4 403.2L51.3 403.2ZM91.2 402.5Q90.0 403.7 88.3 403.7Q86.6 403.7 85.4 402.5Q84.3 401.3 84.3 399.7L84.3 399.7Q84.3 398.0 85.4 396.9Q86.6 395.7 88.3 395.7L88.3 395.7Q90.0 395.7 91.2 396.9Q92.4 398.0 92.4 399.7L92.4 399.7Q92.4 401.3 91.2 402.5ZM91.0 438.6Q90.0 439.7 88.3 439.7Q86.6 439.7 85.7 438.6Q84.7 437.6 84.7 435.8L84.7 435.8L84.7 411.2Q84.7 409.5 85.7 408.4Q86.6 407.4 88.3 407.4Q90.0 407.4 91.0 408.4Q92.0 409.5 92.0 411.3L92.0 411.3L92.0 435.8Q92.0 437.6 91.0 438.6ZM110.1 439.7L110.1 439.7Q105.2 439.7 101.9 438.0Q98.6 436.3 97.4 433.5L97.4 433.5Q97.1 432.7 97.1 432.0L97.1 432.0Q97.1 430.7 98.0 429.9Q98.8 429.1 100.2 429.1L100.2 429.1Q102.0 429.1 103.3 430.9L103.3 430.9Q104.6 432.8 106.2 433.6Q107.8 434.4 110.3 434.4L110.3 434.4Q112.9 434.4 114.5 433.4Q116.0 432.3 116.0 430.6L116.0 430.6Q116.0 429.2 115 428.3Q114.0 427.5 111.6 426.9L111.6 426.9L106.6 425.8Q97.5 423.8 97.5 416.9L97.5 416.9Q97.5 412.6 101.0 410.0Q104.5 407.4 110.2 407.4L110.2 407.4Q114.6 407.4 117.8 409.3Q121.0 411.1 121.8 413.9L121.8 413.9Q121.9 414.5 121.9 415.0L121.9 415.0Q121.9 416.1 121.2 416.9Q120.4 417.6 119.1 417.6L119.1 417.6Q117.3 417.6 116.3 416.2L116.3 416.2Q115.2 414.5 113.7 413.6Q112.2 412.7 110.0 412.7L110.0 412.7Q107.6 412.7 106.1 413.8Q104.6 414.8 104.6 416.5L104.6 416.5Q104.6 419.3 109.2 420.3L109.2 420.3L114.2 421.4Q119.1 422.5 121.2 424.4Q123.3 426.4 123.3 429.8L123.3 429.8Q123.3 434.3 119.7 437.0Q116.0 439.7 110.1 439.7ZM141.6 439.7L141.6 439.7Q134.7 439.7 130.7 435.4Q126.6 431.0 126.6 423.6L126.6 423.6Q126.6 416.2 130.7 411.8Q134.7 407.4 141.5 407.4L141.5 407.4Q146.1 407.4 149.6 409.5Q153.2 411.6 154.3 414.9L154.3 414.9Q154.7 415.9 154.7 416.6L154.7 416.6Q154.7 418.0 153.8 418.8Q152.9 419.6 151.5 419.6L151.5 419.6Q150.4 419.6 149.7 419.1Q149.0 418.6 148.3 417.5L148.3 417.5Q146.1 413.3 141.7 413.3L141.7 413.3Q138.2 413.3 136.1 416.1Q134.0 418.8 134.0 423.6L134.0 423.6Q134.0 428.4 136.1 431.1Q138.2 433.8 141.7 433.8L141.7 433.8Q146.1 433.8 148.3 429.8L148.3 429.8Q149.1 428.6 149.8 428.1Q150.5 427.6 151.7 427.6L151.7 427.6Q153.0 427.6 153.9 428.4Q154.8 429.2 154.8 430.6L154.8 430.6Q154.8 431.4 154.3 432.4L154.3 432.4Q153.0 435.6 149.5 437.7Q145.9 439.7 141.6 439.7ZM166.2 438.7Q165.2 439.7 163.5 439.7Q161.9 439.7 160.9 438.7Q159.9 437.6 159.9 435.8L159.9 435.8L159.9 400.1Q159.9 398.2 160.9 397.2Q161.9 396.2 163.5 396.2Q165.2 396.2 166.2 397.2Q167.1 398.2 167.1 400.1L167.1 400.1L167.1 435.8Q167.1 437.6 166.2 438.7ZM198.1 435.4Q194.0 439.7 187.1 439.7Q180.2 439.7 176.1 435.4Q172.1 431.1 172.1 423.6L172.1 423.6Q172.1 416.1 176.2 411.7Q180.3 407.4 187.1 407.4L187.1 407.4Q194.0 407.4 198.0 411.7Q202.1 416.1 202.1 423.6L202.1 423.6Q202.1 431.1 198.1 435.4ZM181.5 431.2Q183.6 433.9 187.1 433.9Q190.6 433.9 192.7 431.2Q194.7 428.5 194.7 423.6L194.7 423.6Q194.7 418.7 192.7 415.9Q190.6 413.2 187.1 413.2L187.1 413.2Q183.6 413.2 181.5 415.9Q179.5 418.7 179.5 423.6L179.5 423.6Q179.5 428.5 181.5 431.2ZM218.8 439.7L218.8 439.7Q214.0 439.7 210.6 438.0Q207.3 436.3 206.1 433.5L206.1 433.5Q205.8 432.7 205.8 432.0L205.8 432.0Q205.8 430.7 206.7 429.9Q207.5 429.1 208.9 429.1L208.9 429.1Q210.7 429.1 212.1 430.9L212.1 430.9Q213.3 432.8 214.9 433.6Q216.5 434.4 219.1 434.4L219.1 434.4Q221.6 434.4 223.2 433.4Q224.7 432.3 224.7 430.6L224.7 430.6Q224.7 429.2 223.7 428.3Q222.7 427.5 220.4 426.9L220.4 426.9L215.3 425.8Q206.3 423.8 206.3 416.9L206.3 416.9Q206.3 412.6 209.7 410.0Q213.2 407.4 218.9 407.4L218.9 407.4Q223.3 407.4 226.5 409.3Q229.8 411.1 230.5 413.9L230.5 413.9Q230.6 414.5 230.6 415.0L230.6 415.0Q230.6 416.1 229.9 416.9Q229.2 417.6 227.8 417.6L227.8 417.6Q226.0 417.6 225.0 416.2L225.0 416.2Q223.9 414.5 222.4 413.6Q220.9 412.7 218.7 412.7L218.7 412.7Q216.3 412.7 214.8 413.8Q213.3 414.8 213.3 416.5L213.3 416.5Q213.3 419.3 217.9 420.3L217.9 420.3L222.9 421.4Q227.8 422.5 229.9 424.4Q232.0 426.4 232.0 429.8L232.0 429.8Q232.0 434.3 228.4 437.0Q224.7 439.7 218.8 439.7ZM247.5 439.6L247.5 439.6Q242.4 439.6 239.5 436.5Q236.5 433.5 236.5 428.1L236.5 428.1L236.5 411.2Q236.5 409.5 237.5 408.4Q238.5 407.4 240.1 407.4Q241.8 407.4 242.8 408.4Q243.8 409.5 243.8 411.3L243.8 411.3L243.8 426.6Q243.8 430.0 245.4 431.7Q247.0 433.5 250.1 433.5L250.1 433.5Q253.2 433.5 255.0 431.4Q256.9 429.4 256.9 426.0L256.9 426.0L256.9 411.2Q256.9 409.5 257.9 408.4Q258.9 407.4 260.5 407.4L260.5 407.4Q262.2 407.4 263.2 408.4Q264.2 409.5 264.2 411.3L264.2 411.3L264.2 436.0Q264.2 437.7 263.2 438.7Q262.3 439.7 260.7 439.7L260.7 439.7Q259.1 439.7 258.1 438.7Q257.1 437.7 257.1 436.0L257.1 436.0L257.1 433.7L257.0 433.7Q254.4 439.6 247.5 439.6ZM276.4 438.6Q275.4 439.7 273.8 439.7Q272.1 439.7 271.1 438.6Q270.1 437.6 270.1 435.8L270.1 435.8L270.1 411.1Q270.1 409.4 271.1 408.4Q272.0 407.4 273.6 407.4L273.6 407.4Q275.1 407.4 276.1 408.4Q277.1 409.4 277.1 411.1L277.1 411.1L277.1 413.5L277.2 413.5Q277.9 410.8 279.7 409.1Q281.5 407.5 283.9 407.5L283.9 407.5Q285.6 407.5 286.4 408.3L286.4 408.3Q287.5 409.1 287.5 410.9L287.5 410.9Q287.5 412.6 286.4 413.5L286.4 413.5Q285.3 414.4 283.2 414.5L283.2 414.5Q277.4 414.5 277.4 420.9L277.4 420.9L277.4 435.8Q277.4 437.6 276.4 438.6ZM304.6 439.7L304.6 439.7Q297.4 439.7 293.4 435.5Q289.5 431.2 289.5 423.7L289.5 423.7Q289.5 416.2 293.4 411.8Q297.4 407.4 304.1 407.4L304.1 407.4Q310.5 407.4 314.5 411.4Q318.4 415.5 318.4 421.9L318.4 421.9Q318.4 423.5 317.5 424.4Q316.7 425.3 315.0 425.3L315.0 425.3L296.7 425.3L296.7 425.5Q296.7 429.4 298.8 431.8Q300.9 434.1 304.5 434.1L304.5 434.1Q307.0 434.1 308.7 433.1Q310.5 432.2 312.3 429.9L312.3 429.9Q313.3 428.8 314.7 428.8L314.7 428.8Q316.0 428.8 316.8 429.5Q317.6 430.3 317.6 431.6L317.6 431.6Q317.6 432.4 317.1 433.4L317.1 433.4Q315.6 436.4 312.3 438.0Q309.0 439.7 304.6 439.7ZM296.8 420.5L296.8 420.5L311.3 420.5Q311.2 417.1 309.2 415.1Q307.2 413.0 304.2 413.0Q301.1 413.0 299.0 415.1Q297.0 417.2 296.8 420.5Z "/><defs><clipPath id="satori_bc-id-0-1"><rect x="0" y="441" width="1200" height="189"/></clipPath></defs><mask id="satori_om-id-0-1"><rect x="0" y="442" width="1200" height="188" fill="#fff"/><path width="1200" height="189" fill="none" stroke="#000" stroke-width="2" d="M0,441 A0,0 0 0 1 0,441 h1200 A0,0 0 0 1 1200,441"/></mask><path width="1200" height="189" clip-path="url(#satori_bc-id-0-1)" fill="none" stroke="#dbdbdb" stroke-width="2" d="M0,441 A0,0 0 0 1 0,441 h1200 A0,0 0 0 1 1200,441"/><mask id="satori_om-id-0-1-0"><rect x="40" y="482" width="389" height="108" fill="#fff"/></mask><clipPath id="satori_cp-id-0-1-0-0"><rect x="40" y="504" width="64" height="64"/></clipPath><mask id="satori_om-id-0-1-0-0"><rect x="40" y="504" width="64" height="64" fill="#fff"/></mask><image x="40" y="504" width="64" height="64" href="data:image/svg+xml;utf8,%3Csvg  xmlns=%22http://www.w3.org/2000/svg%22 width=%2264%22 height=%2264%22 viewBox=%220 0 128 128%22%3E%3Cpath fill=%22%23224d67%22 d=%22M22.5 14.8c2.9 1.3 99 44 99 44c2.7 1.2 2.9 3.1 2 12.4c-1 10.5-1.9 37.8-40.2 42.9c-24.6 3.2-55.9-4.3-70.9-27.2C-6 58.8 11 23.4 14.8 17.7c2.4-3.5 4.8-4.2 7.7-2.9%22%3E%3C/path%3E%3Cpath fill=%22%23f0f4c3%22 d=%22M121.5 58.8c-.3-.2-92-40.8-98.9-43.9C9.6 31.5-3.8 76 27.9 96.2c33.6 21.5 78.7-10.2 93.6-37.4%22%3E%3C/path%3E%3Cpath fill=%22%23f0f4c3%22 d=%22M117.7 57c-.3-.2-86.7-38.4-93.2-41.3c-12.2 15.5-23.9 59.1 5.7 78c31.4 20.2 73.6-11.2 87.5-36.7%22%3E%3C/path%3E%3Cpath fill=%22%23cb2a42%22 d=%22M56.2 37.6L19.5 48.2c-2.5.8-4.4 2.8-5 5.3c-1.9 8.5.8 23.3 8.9 29.8c3.5 2.7 8.6 1.8 10.8-2.1L58.5 41c1.3-1.7.5-4.2-2.3-3.4m14.3 2.9s14.6 30.1 16 33s6.3 4.7 9.9 2.8c10.7-5.6 15.5-12.4 19.2-20.2c-8.9-3.9-42.4-18.8-42.4-18.8c-2.4-1.1-4 .6-2.7 3.2m-8.6 1.9C60.3 45.1 39.5 81 37.6 84.1c-1.9 3.2-.7 7.5 2.7 9.2c12.3 6.5 30.9.4 39.6-7c2.2-1.9 4.5-5.1 3.2-8.2S68.9 44.6 67.8 42.3c-1.2-2.7-4.1-2.8-5.9.1%22%3E%3C/path%3E%3Cpath fill=%22%23f0f4c3%22 d=%22M52.2 42.2c-1.4.4-10.1 3-11.1 3.4c-1.4.5-2.2 1.7-1.9 2.5c.3.9 1.7 1.1 3.1.6c.8-.3 7.1-3.9 9.5-5.2c-3.1 2.4-10.2 9.4-11.1 10.3c-1.4 1.5-1.7 3.4-.8 4.3c1 .9 2.9.5 4.3-1c1.2-1.3 8.5-12.8 9.1-13.9s.4-1.4-1.1-1m10.1 16.4c0-2.2 1.4-10.3 1.8-12.3c.4-1.6 1.5-1.8 1.8.5s1.7 9.7 1.7 11.8s-1.2 3.3-2.7 3.3c-1.4 0-2.6-1.1-2.6-3.3M79.9 49c-1.2-1.8-3.3-4.9-4.1-6.1c-.7-1.2.1-2.1 1.8-.9s4 2.9 5.4 4c1.6 1.3 1.9 3 .8 4s-2.7.8-3.9-1%22%3E%3C/path%3E%3Cellipse cx=%2287.3%22 cy=%22103.12%22 fill=%22%23cb2a42%22 rx=%223.4%22 ry=%222.3%22 transform=%22rotate(-27.098 87.298 103.126)%22%3E%3C/ellipse%3E%3Cellipse cx=%2298.89%22 cy=%22103.82%22 fill=%22%23cb2a42%22 rx=%223.4%22 ry=%222.3%22 transform=%22rotate(-30.642 98.887 103.818)%22%3E%3C/ellipse%3E%3Cellipse cx=%22102.02%22 cy=%2293.8%22 fill=%22%23cb2a42%22 rx=%223.4%22 ry=%222.3%22 transform=%22rotate(-37.16 102.017 93.797)%22%3E%3C/ellipse%3E%3Cpath fill=%22%23cb2a42%22 d=%22M57.6 30.3c-8.3-3.7-24.4-10.7-29.6-13c-3.6 2.2-9.7 11.4-11.2 21.2c-.6 3.6 1.7 5.9 5.3 4.9c0 0 33.7-9.3 35.3-9.7c1.6-.5 2-2.6.2-3.4%22%3E%3C/path%3E%3C/svg%3E" preserveAspectRatio="none" clip-path="url(#satori_cp-id-0-1-0-0)" mask="url(#satori_om-id-0-1-0-0)"/><mask id="satori_om-id-0-1-0-0-0"><rect x="40" y="504" width="0" height="64" fill="#fff"/></mask><mask id="satori_om-id-0-1-0-0-1"><rect x="40" y="504" width="0" height="64" fill="#fff"/></mask><mask id="satori_om-id-0-1-0-0-2"><rect x="40" y="504" width="0" height="64" fill="#fff"/></mask><mask id="satori_om-id-0-1-0-0-3"><rect x="40" y="504" width="0" height="64" fill="#fff"/></mask><mask id="satori_om-id-0-1-0-0-4"><rect x="40" y="504" width="0" height="64" fill="#fff"/></mask><mask id="satori_om-id-0-1-0-0-5"><rect x="40" y="504" width="0" height="64" fill="#fff"/></mask><mask id="satori_om-id-0-1-0-0-6"><rect x="40" y="504" width="0" height="64" fill="#fff"/></mask><mask id="satori_om-id-0-1-0-0-7"><rect x="40" y="504" width="0" height="64" fill="#fff"/></mask><mask id="satori_om-id-0-1-0-0-8"><rect x="40" y="504" width="0" height="64" fill="#fff"/></mask><mask id="satori_om-id-0-1-0-1"><rect x="116" y="512" width="313" height="48" fill="#fff"/></mask><path fill="#545454" d="M133.0 553.6L133.0 553.6Q126.5 553.6 122.7 550.2Q118.8 546.7 118.8 541.1L118.8 541.1L118.8 522.5Q118.8 520.7 119.8 519.7Q120.7 518.8 122.4 518.8Q124.0 518.8 125.0 519.7Q125.9 520.7 125.9 522.5L125.9 522.5L125.9 540.4Q125.9 543.7 127.8 545.6Q129.6 547.6 133.0 547.6L133.0 547.6Q136.3 547.6 138.2 545.6Q140.1 543.7 140.1 540.4L140.1 540.4L140.1 522.5Q140.1 520.7 141.0 519.7Q141.9 518.8 143.6 518.8Q145.3 518.8 146.2 519.7Q147.1 520.7 147.1 522.5L147.1 522.5L147.1 541.1Q147.1 546.7 143.3 550.2Q139.4 553.6 133.0 553.6ZM158.9 552.6Q158.0 553.6 156.3 553.6Q154.6 553.6 153.7 552.6Q152.8 551.6 152.8 549.9L152.8 549.9L152.8 522.9Q152.8 521.2 153.7 520.2Q154.6 519.2 156.3 519.2L156.3 519.2L166.6 519.2Q172.4 519.2 175.6 522.1Q178.9 525.0 178.9 530.0L178.9 530.0Q178.9 533.2 177.3 535.8Q175.8 538.3 173.0 539.4L173.0 539.4L177.9 547.9Q178.7 549.2 178.7 550.3L178.7 550.3Q178.7 551.7 177.7 552.6Q176.7 553.6 175.1 553.6L175.1 553.6Q173.8 553.6 173.1 553.0Q172.4 552.5 171.5 550.9L171.5 550.9L165.9 540.7L159.9 540.7L159.9 549.9Q159.9 551.6 158.9 552.6ZM159.9 524.8L159.9 535.6L165.9 535.6Q168.6 535.6 170.1 534.1Q171.6 532.7 171.6 530.2L171.6 530.2Q171.6 527.7 170.0 526.2Q168.5 524.8 165.9 524.8L165.9 524.8L159.9 524.8ZM196.2 542.3L186.4 542.3Q185.0 542.3 184.1 541.5Q183.2 540.7 183.2 539.3Q183.2 537.9 184.1 537.1Q185.0 536.3 186.4 536.3L186.4 536.3L196.2 536.3Q197.6 536.3 198.5 537.1Q199.4 537.9 199.4 539.3Q199.4 540.7 198.5 541.5Q197.6 542.3 196.2 542.3L196.2 542.3ZM210.9 552.6Q209.9 553.6 208.3 553.6Q206.6 553.6 205.6 552.6Q204.7 551.6 204.7 549.9L204.7 549.9L204.7 522.9Q204.7 521.2 205.6 520.2Q206.6 519.2 208.3 519.2L208.3 519.2L218.6 519.2Q224.4 519.2 227.6 522.1Q230.8 525.0 230.8 530.0L230.8 530.0Q230.8 533.2 229.3 535.8Q227.8 538.3 225.0 539.4L225.0 539.4L229.9 547.9Q230.6 549.2 230.6 550.3L230.6 550.3Q230.6 551.7 229.6 552.6Q228.6 553.6 227.0 553.6L227.0 553.6Q225.8 553.6 225.0 553.0Q224.3 552.5 223.4 550.9L223.4 550.9L217.8 540.7L211.8 540.7L211.8 549.9Q211.8 551.6 210.9 552.6ZM211.8 524.8L211.8 535.6L217.9 535.6Q220.6 535.6 222.0 534.1Q223.5 532.7 223.5 530.2L223.5 530.2Q223.5 527.7 222.0 526.2Q220.4 524.8 217.8 524.8L217.8 524.8L211.8 524.8ZM237.7 553.5L237.7 553.5Q236.0 553.5 235.1 552.6Q234.1 551.7 234.1 550.2L234.1 550.2Q234.1 549.3 234.6 547.9L234.6 547.9L243.8 522.8Q244.6 520.7 245.8 519.7Q247.1 518.8 249.1 518.8L249.1 518.8Q251.2 518.8 252.5 519.7Q253.8 520.7 254.5 522.8L254.5 522.8L263.8 547.9Q264.3 549.2 264.3 550.2L264.3 550.2Q264.3 551.6 263.3 552.6Q262.3 553.5 260.7 553.5L260.7 553.5Q259.2 553.5 258.4 552.8Q257.5 552.1 257.0 550.4L257.0 550.4L255.3 545.0L243.1 545.0L241.3 550.3Q240.8 552.0 239.9 552.8Q239.1 553.5 237.7 553.5ZM249.0 525.7L244.6 539.6L253.6 539.6L249.1 525.7L249.0 525.7ZM281.5 553.1L272.1 553.1Q270.4 553.1 269.5 552.1Q268.6 551.1 268.6 549.4L268.6 549.4L268.6 522.9Q268.6 521.2 269.5 520.2Q270.4 519.2 272.1 519.2L272.1 519.2L281.5 519.2Q289.1 519.2 293.4 523.6Q297.6 528.0 297.6 536.0L297.6 536.0Q297.6 544.1 293.3 548.6Q289.1 553.1 281.5 553.1L281.5 553.1ZM275.6 525.1L275.6 547.2L280.6 547.2Q285.4 547.2 287.9 544.4Q290.4 541.5 290.4 536.0L290.4 536.0Q290.4 530.8 287.8 527.9Q285.3 525.1 280.6 525.1L280.6 525.1L275.6 525.1Z M333.2 553.1L314.5 553.1Q312.9 553.1 312.0 552.2Q311.2 551.4 311.2 550.0L311.2 550.0Q311.2 549.1 311.6 548.3Q312.0 547.5 313.1 546.5L313.1 546.5L323.2 536.9Q326.3 533.8 327.4 532.2Q328.4 530.6 328.4 528.8L328.4 528.8Q328.4 526.7 327.0 525.3Q325.5 524 323.3 524L323.3 524Q319.3 524 317.4 528.1L317.4 528.1Q316.8 529.2 316.1 529.7Q315.4 530.1 314.3 530.1L314.3 530.1Q312.9 530.1 312.1 529.4Q311.3 528.6 311.3 527.3L311.3 527.3Q311.3 526.5 311.5 525.7L311.5 525.7Q312.5 522.7 315.6 520.6Q318.8 518.5 323.3 518.5L323.3 518.5Q328.7 518.5 332.0 521.2Q335.3 524.0 335.3 528.3L335.3 528.3Q335.3 529.9 335.0 531.2Q334.6 532.5 333.6 533.9Q332.6 535.3 331.3 536.8Q330.0 538.2 327.8 540.3L327.8 540.3L320.5 547.3L320.5 547.4L333.2 547.4Q334.6 547.4 335.4 548.2Q336.1 549.0 336.1 550.3L336.1 550.3Q336.1 551.5 335.4 552.3Q334.6 553.1 333.2 553.1L333.2 553.1ZM363.6 549.0Q359.9 553.8 353.5 553.8Q347.1 553.8 343.4 549.1Q339.7 544.3 339.7 536.1L339.7 536.1Q339.7 527.9 343.4 523.2Q347.1 518.5 353.5 518.5Q359.9 518.5 363.6 523.2Q367.3 527.9 367.3 536.1L367.3 536.1Q367.3 544.3 363.6 549.0ZM348.6 545.0Q350.4 548.1 353.5 548.1Q356.7 548.1 358.4 545.0Q360.1 541.9 360.1 536.1L360.1 536.1Q360.1 530.4 358.4 527.2Q356.7 524.1 353.5 524.1L353.5 524.1Q350.4 524.1 348.7 527.3Q346.9 530.4 346.9 536.1L346.9 536.1Q346.9 541.9 348.6 545.0ZM393.6 553.1L374.9 553.1Q373.3 553.1 372.4 552.2Q371.6 551.4 371.6 550.0L371.6 550.0Q371.6 549.1 372.0 548.3Q372.5 547.5 373.5 546.5L373.5 546.5L383.6 536.9Q386.8 533.8 387.8 532.2Q388.9 530.6 388.9 528.8L388.9 528.8Q388.9 526.7 387.4 525.3Q386.0 524 383.7 524L383.7 524Q379.7 524 377.9 528.1L377.9 528.1Q377.3 529.2 376.5 529.7Q375.8 530.1 374.7 530.1L374.7 530.1Q373.3 530.1 372.5 529.4Q371.7 528.6 371.7 527.3L371.7 527.3Q371.7 526.5 372.0 525.7L372.0 525.7Q372.9 522.7 376.0 520.6Q379.2 518.5 383.8 518.5L383.8 518.5Q389.1 518.5 392.4 521.2Q395.8 524.0 395.8 528.3L395.8 528.3Q395.8 529.9 395.4 531.2Q395 532.5 394.0 533.9Q393.1 535.3 391.7 536.8Q390.4 538.2 388.2 540.3L388.2 540.3L380.9 547.3L380.9 547.4L393.6 547.4Q395 547.4 395.8 548.2Q396.6 549.0 396.6 550.3L396.6 550.3Q396.6 551.5 395.8 552.3Q395 553.1 393.6 553.1L393.6 553.1ZM413.6 553.8L413.6 553.8Q409.6 553.8 406.3 552.1Q403.1 550.4 401.8 547.7L401.8 547.7Q401.3 546.5 401.3 545.4L401.3 545.4Q401.3 544.0 402.0 543.3Q402.8 542.5 404.2 542.5L404.2 542.5Q405.3 542.5 406.0 542.9Q406.7 543.3 407.3 544.3L407.3 544.3Q409.3 548.2 413.6 548.2L413.6 548.2Q416.3 548.2 418.1 546.4Q419.9 544.6 419.9 541.9L419.9 541.9Q419.9 539.2 418.1 537.5Q416.4 535.8 413.6 535.8L413.6 535.8Q410.8 535.8 408.7 537.8L408.7 537.8Q407.6 538.8 406.9 539.1Q406.2 539.4 405.0 539.4L405.0 539.4Q403.4 539.4 402.5 538.4Q401.6 537.4 401.7 535.9L401.7 535.9Q401.7 535.8 401.7 535.6L401.7 535.6L402.7 523.3Q402.9 521.1 404.0 520.2Q405.1 519.2 407.2 519.2L407.2 519.2L422 519.2Q423.3 519.2 424.1 520.0Q424.9 520.8 424.9 522.1Q424.9 523.3 424.1 524.1Q423.3 524.9 422 524.9L422 524.9L408.6 524.9L407.8 534.3L408.0 534.3Q409.0 532.6 411.0 531.7Q413.0 530.7 415.6 530.7L415.6 530.7Q420.4 530.7 423.5 533.8Q426.6 536.9 426.6 541.7L426.6 541.7Q426.6 547.1 423.0 550.5Q419.4 553.8 413.6 553.8Z "/><mask id="satori_om-id-0-1-1"><rect x="1013" y="524" width="147" height="36" fill="#fff"/></mask><path fill="#8e8e8e" d="M1016.9 552.6Q1016.5 552.9 1016.0 552.9Q1015.4 552.9 1015.1 552.6Q1014.8 552.2 1014.8 551.7L1014.8 551.7L1014.8 532.6Q1014.8 532.0 1015.1 531.6Q1015.5 531.3 1016.1 531.3Q1016.6 531.3 1017.0 531.6Q1017.3 532.0 1017.3 532.6L1017.3 532.6L1017.3 540.0L1017.4 540.0Q1018.1 538.7 1019.4 537.9Q1020.7 537.2 1022.3 537.2L1022.3 537.2Q1025.2 537.2 1026.9 539.3Q1028.7 541.5 1028.7 545.0L1028.7 545.0Q1028.7 548.6 1026.9 550.8Q1025.2 552.9 1022.2 552.9L1022.2 552.9Q1020.6 552.9 1019.3 552.2Q1018.0 551.4 1017.3 550.1L1017.3 550.1L1017.2 550.1L1017.2 551.7Q1017.2 552.2 1016.9 552.6ZM1021.7 550.7L1021.7 550.7Q1023.8 550.7 1024.9 549.2Q1026.1 547.7 1026.1 545.0L1026.1 545.0Q1026.1 542.5 1024.9 540.9Q1023.8 539.4 1021.7 539.4L1021.7 539.4Q1019.8 539.4 1018.6 541.0Q1017.3 542.5 1017.3 545.0L1017.3 545.0Q1017.3 547.6 1018.6 549.1Q1019.8 550.7 1021.7 550.7ZM1032.8 558.4L1032.8 558.4Q1031.9 558.4 1031.4 558.0Q1030.9 557.7 1030.9 557.1L1030.9 557.1Q1030.9 556.7 1031.1 556.4Q1031.4 556.2 1031.9 556.2L1031.9 556.2Q1032.1 556.2 1032.3 556.2Q1032.5 556.2 1032.7 556.2L1032.7 556.2Q1034.4 556.2 1035.2 553.7L1035.2 553.7L1035.6 552.7L1030.3 539.0Q1030.2 538.6 1030.2 538.3L1030.2 538.3Q1030.2 537.8 1030.6 537.5Q1030.9 537.2 1031.5 537.2L1031.5 537.2Q1032.4 537.2 1032.7 538.1L1032.7 538.1L1036.9 550.1L1037.0 550.1L1041.2 538.1Q1041.3 537.6 1041.6 537.4Q1041.9 537.2 1042.4 537.2L1042.4 537.2Q1042.9 537.2 1043.3 537.5Q1043.6 537.8 1043.6 538.3L1043.6 538.3Q1043.6 538.6 1043.5 539.0L1043.5 539.0L1037.9 553.7Q1036.9 556.4 1035.8 557.4Q1034.7 558.4 1032.8 558.4Z M1066.9 550.9Q1064.7 553.0 1060.8 553.0Q1056.9 553.0 1054.7 550.9Q1052.4 548.7 1052.4 545.3L1052.4 545.3L1052.4 532.7Q1052.4 532.1 1052.8 531.7Q1053.1 531.3 1053.7 531.3Q1054.3 531.3 1054.7 531.7Q1055.0 532.1 1055.0 532.7L1055.0 532.7L1055.0 545.1Q1055.0 547.5 1056.6 549.1Q1058.1 550.6 1060.8 550.6Q1063.5 550.6 1065.0 549.1Q1066.6 547.5 1066.6 545.1L1066.6 545.1L1066.6 532.7Q1066.6 532.1 1066.9 531.7Q1067.3 531.3 1067.9 531.3Q1068.5 531.3 1068.8 531.7Q1069.2 532.1 1069.2 532.7L1069.2 532.7L1069.2 545.3Q1069.2 548.7 1066.9 550.9ZM1075.6 552.6Q1075.2 552.9 1074.6 552.9Q1074.0 552.9 1073.7 552.6Q1073.3 552.2 1073.3 551.6L1073.3 551.6L1073.3 532.9Q1073.3 532.3 1073.7 531.9Q1074.0 531.5 1074.6 531.5L1074.6 531.5L1081.2 531.5Q1084.3 531.5 1086.1 533.2Q1088.0 535.0 1088.0 537.8L1088.0 537.8Q1088.0 540.0 1086.8 541.6Q1085.7 543.3 1083.7 543.9L1083.7 543.9L1087.6 550.8Q1087.9 551.3 1087.9 551.7L1087.9 551.7Q1087.9 552.2 1087.5 552.6Q1087.1 552.9 1086.5 552.9L1086.5 552.9Q1086.1 552.9 1085.8 552.7Q1085.5 552.5 1085.2 552.1L1085.2 552.1L1081.0 544.3L1075.9 544.3L1075.9 551.6Q1075.9 552.2 1075.6 552.6ZM1075.9 533.9L1075.9 542.0L1081.0 542.0Q1083.0 542.0 1084.1 540.9Q1085.2 539.9 1085.2 537.9L1085.2 537.9Q1085.2 536.0 1084.1 534.9Q1082.9 533.9 1080.9 533.9L1080.9 533.9L1075.9 533.9ZM1099.4 545.3L1091.9 545.3Q1091.3 545.3 1091.0 545.0Q1090.6 544.6 1090.6 544.1Q1090.6 543.6 1091.0 543.2Q1091.3 542.9 1091.9 542.9L1091.9 542.9L1099.4 542.9Q1100.0 542.9 1100.3 543.2Q1100.7 543.6 1100.7 544.1Q1100.7 544.6 1100.3 545.0Q1100.0 545.3 1099.4 545.3L1099.4 545.3ZM1106.4 552.6Q1106.0 552.9 1105.4 552.9Q1104.8 552.9 1104.5 552.6Q1104.1 552.2 1104.1 551.6L1104.1 551.6L1104.1 532.9Q1104.1 532.3 1104.5 531.9Q1104.8 531.5 1105.4 531.5L1105.4 531.5L1112.1 531.5Q1115.1 531.5 1117.0 533.2Q1118.8 535.0 1118.8 537.8L1118.8 537.8Q1118.8 540.0 1117.7 541.6Q1116.5 543.3 1114.5 543.9L1114.5 543.9L1118.4 550.8Q1118.7 551.3 1118.7 551.7L1118.7 551.7Q1118.7 552.2 1118.3 552.6Q1117.9 552.9 1117.3 552.9L1117.3 552.9Q1116.9 552.9 1116.6 552.7Q1116.3 552.5 1116.1 552.1L1116.1 552.1L1111.8 544.3L1106.8 544.3L1106.8 551.6Q1106.8 552.2 1106.4 552.6ZM1106.8 533.9L1106.8 542.0L1111.8 542.0Q1113.9 542.0 1115.0 540.9Q1116.1 539.9 1116.1 537.9L1116.1 537.9Q1116.1 536.0 1114.9 534.9Q1113.8 533.9 1111.7 533.9L1111.7 533.9L1106.8 533.9ZM1122.2 552.9L1122.2 552.9Q1121.6 552.9 1121.2 552.5Q1120.9 552.2 1120.9 551.7L1120.9 551.7Q1120.9 551.4 1121.0 551.0L1121.0 551.0L1127.8 532.6Q1128.3 531.3 1129.5 531.3L1129.5 531.3Q1130.7 531.3 1131.2 532.6L1131.2 532.6L1138.0 551.0Q1138.2 551.4 1138.2 551.7L1138.2 551.7Q1138.2 552.2 1137.8 552.5Q1137.4 552.9 1136.9 552.9L1136.9 552.9Q1135.9 552.9 1135.6 551.9L1135.6 551.9L1133.7 546.6L1125.3 546.6L1123.5 551.9Q1123.1 552.9 1122.2 552.9ZM1129.5 534.7L1126.1 544.4L1132.9 544.4L1129.6 534.7L1129.5 534.7ZM1148.1 552.7L1142.3 552.7Q1141.7 552.7 1141.4 552.3Q1141.0 551.9 1141.0 551.3L1141.0 551.3L1141.0 532.9Q1141.0 532.3 1141.4 531.9Q1141.7 531.5 1142.3 531.5L1142.3 531.5L1148.1 531.5Q1152.8 531.5 1155.5 534.3Q1158.1 537.1 1158.1 542.1L1158.1 542.1Q1158.1 547.1 1155.5 549.9Q1152.8 552.7 1148.1 552.7L1148.1 552.7ZM1143.7 533.9L1143.7 550.3L1148.0 550.3Q1151.5 550.3 1153.5 548.2Q1155.4 546.1 1155.4 542.1L1155.4 542.1Q1155.4 538.1 1153.5 536.0Q1151.6 533.9 1148.0 533.9L1148.0 533.9L1143.7 533.9Z "/></svg>