<svg width="1200" height="630" viewBox="0 0 1200 630" xmlns="http://www.w3.org/2000/svg"><mask id="satori_om-id"><rect x="0" y="0" width="1200" height="630" fill="#fff"/></mask><mask id="satori_om-id-0"><rect x="0" y="0" width="1200" height="630" fill="#fff"/></mask><rect x="0" y="0" width="1200" height="630" fill="#f2f2f2"/><mask id="satori_om-id-0-0"><rect x="0" y="0" width="1200" height="441" fill="#fff"/></mask><mask id="satori_om-id-0-0-0"><rect x="40" y="56" width="1120" height="35" fill="#fff"/></mask><path fill="#8e8e8e" d="M44.8 84.4Q44.4 84.9 43.6 84.9Q42.8 84.9 42.4 84.4Q41.9 84.0 41.9 83.2L41.9 83.2L41.9 65.2Q41.9 64.4 42.4 64.0Q42.8 63.5 43.6 63.5L43.6 63.5L53.8 63.5Q54.5 63.5 55.0 63.9Q55.4 64.3 55.4 64.9Q55.4 65.6 55.0 66.0Q54.5 66.4 53.8 66.4L53.8 66.4L45.2 66.4L45.2 73.0L53.1 73.0Q53.7 73.0 54.1 73.4Q54.5 73.8 54.5 74.4Q54.5 75.1 54.1 75.4Q53.7 75.8 53.1 75.8L53.1 75.8L45.2 75.8L45.2 83.2Q45.2 84.0 44.8 84.4ZM59.2 84.9L59.2 84.9Q58.5 84.9 58.1 84.5Q57.6 84.0 57.6 83.3L57.6 83.3L57.6 70.6Q57.6 69.9 58.0 69.4Q58.5 69.0 59.1 69.0L59.1 69.0Q59.8 69.0 60.2 69.4Q60.6 69.9 60.6 70.6L60.6 70.6L60.6 71.9L60.7 71.9Q61.0 70.6 62.0 69.8Q62.9 69.0 64.1 69.0L64.1 69.0Q64.9 69.0 65.3 69.4L65.3 69.4Q65.8 69.7 65.8 70.5L65.8 70.5Q65.8 71.2 65.3 71.6L65.3 71.6Q64.8 72.0 63.8 72.0L63.8 72.0Q62.3 72.0 61.5 73.0Q60.8 73.9 60.8 75.4L60.8 75.4L60.8 83.3Q60.8 84.0 60.3 84.5Q59.9 84.9 59.2 84.9ZM70.5 66.4Q69.9 66.9 69.2 66.9Q68.4 66.9 67.9 66.4Q67.3 65.9 67.3 65.1L67.3 65.1Q67.3 64.3 67.9 63.8Q68.4 63.3 69.2 63.3L69.2 63.3Q69.9 63.3 70.5 63.8Q71.0 64.3 71.0 65.1L71.0 65.1Q71.0 65.9 70.5 66.4ZM70.3 84.5Q69.9 84.9 69.2 84.9Q68.4 84.9 68.0 84.5Q67.6 84.0 67.6 83.3L67.6 83.3L67.6 70.7Q67.6 69.9 68.0 69.4Q68.4 69.0 69.2 69.0Q69.9 69.0 70.3 69.4Q70.7 69.9 70.7 70.7L70.7 70.7L70.7 83.3Q70.7 84.0 70.3 84.5ZM79.8 84.9L79.8 84.9Q76.8 84.9 75.1 82.8Q73.3 80.6 73.3 77.0Q73.3 73.3 75.0 71.2Q76.8 69.0 79.7 69.0L79.7 69.0Q81.4 69.0 82.6 69.8Q83.9 70.5 84.6 71.8L84.6 71.8L84.6 71.8L84.6 64.9Q84.6 64.1 85.1 63.7Q85.5 63.2 86.2 63.2L86.2 63.2Q86.9 63.2 87.4 63.7Q87.8 64.2 87.8 64.9L87.8 64.9L87.8 83.4Q87.8 84.1 87.4 84.5Q86.9 84.9 86.2 84.9L86.2 84.9Q85.5 84.9 85.1 84.5Q84.6 84.1 84.6 83.4L84.6 83.4L84.6 81.9L84.6 81.9Q84.0 83.3 82.7 84.1Q81.5 84.9 79.8 84.9ZM80.6 82.2L80.6 82.2Q82.4 82.2 83.5 80.8Q84.6 79.4 84.6 77.0L84.6 77.0Q84.6 74.6 83.5 73.1Q82.4 71.7 80.6 71.7L80.6 71.7Q78.7 71.7 77.6 73.1Q76.5 74.5 76.5 77.0L76.5 77.0Q76.5 79.4 77.6 80.8Q78.7 82.2 80.6 82.2ZM95.5 84.9L95.5 84.9Q93.3 84.9 91.8 83.6Q90.4 82.3 90.4 80.3L90.4 80.3Q90.4 78.3 91.9 77.1Q93.4 75.9 96.1 75.7L96.1 75.7L100.4 75.5L100.4 74.3Q100.4 73.0 99.5 72.3Q98.7 71.6 97.3 71.6L97.3 71.6Q96.1 71.6 95.3 72.0Q94.5 72.5 93.9 73.5L93.9 73.5Q93.4 74.2 92.6 74.2L92.6 74.2Q92.0 74.2 91.6 73.8Q91.2 73.4 91.2 72.9L91.2 72.9Q91.2 72.3 91.5 71.8L91.5 71.8Q92.1 70.5 93.7 69.8Q95.3 69.0 97.4 69.0L97.4 69.0Q100.2 69.0 101.9 70.4Q103.5 71.7 103.5 74.0L103.5 74.0L103.5 83.3Q103.5 84.1 103.1 84.5Q102.7 84.9 102.0 84.9L102.0 84.9Q101.3 84.9 100.9 84.5Q100.5 84.1 100.5 83.4L100.5 83.4L100.5 82.1L100.4 82.1Q99.8 83.4 98.4 84.2Q97.1 84.9 95.5 84.9ZM96.4 82.4L96.4 82.4Q98.1 82.4 99.2 81.4Q100.4 80.4 100.4 78.9L100.4 78.9L100.4 77.7L96.6 77.9Q95.1 78.0 94.4 78.6Q93.6 79.2 93.6 80.2L93.6 80.2Q93.6 81.2 94.4 81.8Q95.2 82.4 96.4 82.4ZM108.5 90.4L108.5 90.4Q107.4 90.4 106.8 90.0Q106.2 89.6 106.2 88.9L106.2 88.9Q106.2 88.4 106.5 88.1Q106.9 87.8 107.4 87.8L107.4 87.8Q107.6 87.8 107.8 87.8Q108.1 87.8 108.3 87.8L108.3 87.8Q109.9 87.8 110.6 85.7L110.6 85.7L110.9 84.8L105.7 71.3Q105.6 70.9 105.6 70.4L105.6 70.4Q105.6 69.8 106.0 69.4Q106.5 69.0 107.2 69.0L107.2 69.0Q107.8 69.0 108.1 69.3Q108.5 69.5 108.7 70.2L108.7 70.2L112.6 81.8L112.7 81.8L116.6 70.2Q116.8 69.5 117.2 69.3Q117.5 69.0 118.1 69.0L118.1 69.0Q118.8 69.0 119.2 69.4Q119.7 69.8 119.7 70.4L119.7 70.4Q119.7 70.8 119.5 71.3L119.5 71.3L114.2 85.4Q113.1 88.2 111.9 89.3Q110.6 90.4 108.5 90.4ZM124.1 81.1L124.1 81.1Q124.8 81.1 125.2 81.5Q125.6 81.8 125.6 82.4L125.6 82.4Q125.6 82.8 125.5 83.3L125.5 83.3L124.2 88.3Q123.9 89.4 122.9 89.4L122.9 89.4Q122.3 89.4 122.0 89.1Q121.6 88.7 121.6 88.2L121.6 88.2Q121.6 88.1 121.7 87.8L121.7 87.8L122.6 82.4Q122.8 81.1 124.1 81.1Z M143.4 85.1L143.4 85.1Q139.9 85.1 137.7 83.3Q135.4 81.6 135.4 79.0L135.4 79.0Q135.4 76.9 136.7 75.5Q138.0 74.0 140.1 73.5L140.1 73.5L140.1 73.5Q138.3 72.9 137.3 71.7Q136.2 70.4 136.2 68.7L136.2 68.7Q136.2 66.3 138.2 64.7Q140.3 63.1 143.4 63.1L143.4 63.1Q146.6 63.1 148.6 64.7Q150.6 66.3 150.6 68.8L150.6 68.8Q150.6 70.4 149.6 71.7Q148.5 72.9 146.7 73.5L146.7 73.5L146.7 73.5Q148.9 74 150.1 75.5Q151.4 77.0 151.4 79.0L151.4 79.0Q151.4 80.7 150.4 82.1Q149.4 83.5 147.6 84.3Q145.7 85.1 143.4 85.1ZM143.4 72.4L143.4 72.4Q145.2 72.4 146.3 71.4Q147.4 70.5 147.4 69.0L147.4 69.0Q147.4 67.6 146.3 66.7Q145.2 65.7 143.4 65.7L143.4 65.7Q141.7 65.7 140.6 66.7Q139.5 67.6 139.5 69.0L139.5 69.0Q139.5 70.5 140.6 71.4Q141.7 72.4 143.4 72.4ZM140.1 81.4Q141.4 82.4 143.4 82.4Q145.5 82.4 146.7 81.4Q148.0 80.3 148.0 78.7L148.0 78.7Q148.0 77.1 146.7 76.0Q145.5 75.0 143.4 75.0Q141.4 75.0 140.1 76.0Q138.8 77.1 138.8 78.7L138.8 78.7Q138.8 80.3 140.1 81.4Z M163.5 84.5Q163.1 84.9 162.3 84.9Q161.6 84.9 161.2 84.5Q160.7 84.0 160.7 83.2L160.7 83.2L160.7 65.1Q160.7 64.2 161.2 63.8Q161.7 63.3 162.5 63.3L162.5 63.3Q163.1 63.3 163.5 63.5Q163.9 63.7 164.3 64.3L164.3 64.3L174.7 79.1L174.8 79.1L174.8 65.0Q174.8 64.2 175.2 63.7Q175.6 63.3 176.4 63.3L176.4 63.3Q177.1 63.3 177.5 63.7Q178.0 64.2 178.0 65.0L178.0 65.0L178.0 83.2Q178.0 84.0 177.5 84.5Q177.1 84.9 176.2 84.9L176.2 84.9Q175.6 84.9 175.3 84.7Q174.9 84.5 174.5 83.9L174.5 83.9L164.1 69.1L163.9 69.1L163.9 83.2Q163.9 84.0 163.5 84.5ZM193.4 82.8Q191.4 85.0 188.1 85.0Q184.8 85.0 182.8 82.8Q180.8 80.7 180.8 77.0L180.8 77.0Q180.8 73.3 182.8 71.1Q184.8 69.0 188.1 69.0Q191.4 69.0 193.4 71.1Q195.4 73.3 195.4 77.0L195.4 77.0Q195.4 80.7 193.4 82.8ZM188.1 82.3L188.1 82.3Q190 82.3 191.1 80.9Q192.2 79.5 192.2 77.0L192.2 77.0Q192.2 74.4 191.1 73.0Q190.0 71.6 188.1 71.6Q186.2 71.6 185.1 73.0Q184.0 74.4 184.0 77.0L184.0 77.0Q184.0 79.5 185.1 80.9Q186.2 82.3 188.1 82.3ZM203.8 84.9L203.8 84.9Q203.0 84.9 202.5 84.6Q202.0 84.2 201.6 83.3L201.6 83.3L197.0 71.3Q196.9 70.8 196.9 70.4L196.9 70.4Q196.9 69.8 197.3 69.4Q197.8 69.0 198.5 69.0L198.5 69.0Q199.6 69.0 200.0 70.2L200.0 70.2L203.8 81.6L203.8 81.6L207.7 70.2Q208.1 69.0 209.1 69.0L209.1 69.0Q209.8 69.0 210.3 69.4Q210.7 69.8 210.7 70.4L210.7 70.4Q210.7 70.9 210.5 71.3L210.5 71.3L206.0 83.3Q205.7 84.2 205.1 84.6Q204.6 84.9 203.8 84.9ZM219.5 85.0L219.5 85.0Q216.0 85.0 214.1 82.9Q212.1 80.8 212.1 77.0L212.1 77.0Q212.1 73.4 214.1 71.2Q216.0 69.0 219.3 69.0L219.3 69.0Q222.4 69.0 224.3 71.0Q226.2 73.0 226.2 76.1L226.2 76.1Q226.2 76.9 225.8 77.3Q225.4 77.8 224.7 77.8L224.7 77.8L215.3 77.8L215.3 77.8Q215.3 79.9 216.4 81.2Q217.6 82.4 219.4 82.4L219.4 82.4Q220.7 82.4 221.6 81.9Q222.5 81.4 223.4 80.2L223.4 80.2Q223.9 79.6 224.5 79.6L224.5 79.6Q225.1 79.6 225.5 80.0Q225.9 80.3 225.9 80.9L225.9 80.9Q225.9 81.3 225.6 81.8L225.6 81.8Q224.9 83.3 223.3 84.1Q221.7 85.0 219.5 85.0ZM215.4 75.5L215.4 75.5L223.1 75.5Q223.0 73.7 222.0 72.6Q220.9 71.5 219.3 71.5L219.3 71.5Q217.6 71.5 216.6 72.6Q215.5 73.7 215.4 75.5ZM231.4 84.5Q231.0 84.9 230.3 84.9Q229.5 84.9 229.1 84.5Q228.7 84.0 228.7 83.3L228.7 83.3L228.7 70.6Q228.7 69.9 229.1 69.4Q229.5 69.0 230.2 69.0Q230.9 69.0 231.3 69.4Q231.7 69.8 231.7 70.6L231.7 70.6L231.7 71.8L231.8 71.8Q232.3 70.5 233.4 69.8Q234.6 69.0 236.1 69.0L236.1 69.0Q237.7 69.0 238.9 69.8Q240.0 70.6 240.4 72.0L240.4 72.0L240.5 72.0Q241.1 70.6 242.4 69.8Q243.7 69.0 245.3 69.0L245.3 69.0Q247.6 69.0 249.0 70.4Q250.4 71.8 250.4 74.1L250.4 74.1L250.4 83.3Q250.4 84.0 249.9 84.5Q249.5 84.9 248.8 84.9Q248.1 84.9 247.6 84.5Q247.2 84.0 247.2 83.3L247.2 83.3L247.2 74.8Q247.2 73.3 246.4 72.5Q245.6 71.7 244.2 71.7Q242.8 71.7 242.0 72.6Q241.1 73.6 241.1 75.0L241.1 75.0L241.1 83.3Q241.1 84.0 240.6 84.5Q240.2 84.9 239.5 84.9Q238.8 84.9 238.4 84.5Q238.0 84.0 238.0 83.3L238.0 83.3L238.0 74.6Q238.0 73.3 237.2 72.5Q236.4 71.7 235.0 71.7L235.0 71.7Q233.6 71.7 232.7 72.7Q231.8 73.6 231.8 75.1L231.8 75.1L231.8 83.3Q231.8 84.0 231.4 84.5ZM255.0 84.9L255.0 84.9Q254.4 84.9 253.9 84.5Q253.5 84.1 253.5 83.4L253.5 83.4L253.5 64.9Q253.5 64.2 254.0 63.7Q254.4 63.2 255.1 63.2Q255.8 63.2 256.3 63.7Q256.7 64.2 256.7 64.9L256.7 64.9L256.7 71.9L256.8 71.9Q257.5 70.5 258.7 69.8Q260.0 69.0 261.6 69.0L261.6 69.0Q264.6 69.0 266.3 71.2Q268.1 73.3 268.1 77.0L268.1 77.0Q268.1 80.6 266.3 82.8Q264.6 84.9 261.6 84.9L261.6 84.9Q260.0 84.9 258.7 84.2Q257.4 83.4 256.7 82.0L256.7 82.0L256.6 82.0L256.6 83.4Q256.6 84.1 256.2 84.5Q255.7 84.9 255.0 84.9ZM260.8 82.2L260.8 82.2Q262.6 82.2 263.7 80.8Q264.8 79.4 264.8 77.0L264.8 77.0Q264.8 74.5 263.7 73.1Q262.6 71.7 260.8 71.7L260.8 71.7Q259.0 71.7 257.8 73.1Q256.7 74.6 256.7 77.0L256.7 77.0Q256.7 79.3 257.8 80.8Q259.0 82.2 260.8 82.2ZM277.2 85.0L277.2 85.0Q273.7 85.0 271.8 82.9Q269.8 80.8 269.8 77.0L269.8 77.0Q269.8 73.4 271.8 71.2Q273.7 69.0 277.0 69.0L277.0 69.0Q280.0 69.0 282.0 71.0Q283.9 73.0 283.9 76.1L283.9 76.1Q283.9 76.9 283.5 77.3Q283.1 77.8 282.3 77.8L282.3 77.8L273.0 77.8L273.0 77.8Q273.0 79.9 274.1 81.2Q275.2 82.4 277.1 82.4L277.1 82.4Q278.4 82.4 279.3 81.9Q280.2 81.4 281.1 80.2L281.1 80.2Q281.6 79.6 282.2 79.6L282.2 79.6Q282.8 79.6 283.2 80.0Q283.5 80.3 283.5 80.9L283.5 80.9Q283.5 81.3 283.3 81.8L283.3 81.8Q282.5 83.3 280.9 84.1Q279.3 85.0 277.2 85.0ZM273.0 75.5L273.0 75.5L280.7 75.5Q280.7 73.7 279.6 72.6Q278.6 71.5 277.0 71.5L277.0 71.5Q275.3 71.5 274.2 72.6Q273.1 73.7 273.0 75.5ZM287.9 84.9L287.9 84.9Q287.2 84.9 286.8 84.5Q286.3 84.0 286.3 83.3L286.3 83.3L286.3 70.6Q286.3 69.9 286.8 69.4Q287.2 69.0 287.9 69.0L287.9 69.0Q288.5 69.0 288.9 69.4Q289.3 69.9 289.3 70.6L289.3 70.6L289.3 71.9L289.4 71.9Q289.7 70.6 290.7 69.8Q291.6 69.0 292.8 69.0L292.8 69.0Q293.6 69.0 294.0 69.4L294.0 69.4Q294.5 69.7 294.5 70.5L294.5 70.5Q294.5 71.2 294.0 71.6L294.0 71.6Q293.5 72.0 292.6 72.0L292.6 72.0Q291.0 72.0 290.3 73.0Q289.5 73.9 289.5 75.4L289.5 75.4L289.5 83.3Q289.5 84.0 289.1 84.5Q288.6 84.9 287.9 84.9Z M315.5 84.7L303.8 84.7Q303.1 84.7 302.7 84.3Q302.3 83.9 302.3 83.3L302.3 83.3Q302.3 82.8 302.5 82.5Q302.6 82.1 303.2 81.6L303.2 81.6L309.8 74.9Q311.9 72.8 312.5 71.7Q313.2 70.6 313.2 69.3L313.2 69.3Q313.2 67.8 312.2 66.8Q311.1 65.8 309.5 65.8L309.5 65.8Q306.4 65.8 305.3 69.0L305.3 69.0Q305.1 69.5 304.7 69.8Q304.4 70.0 303.8 70.0L303.8 70.0Q303.1 70.0 302.8 69.6Q302.4 69.3 302.4 68.6L302.4 68.6Q302.4 68.3 302.5 68.0L302.5 68.0Q302.6 67.1 303.2 66.3Q303.7 65.4 304.6 64.7Q305.5 64.0 306.8 63.6Q308.1 63.1 309.6 63.1L309.6 63.1Q312.6 63.1 314.5 64.8Q316.5 66.5 316.5 69.1L316.5 69.1Q316.5 70.9 315.5 72.5Q314.5 74.0 311.8 76.8L311.8 76.8L306.7 81.8L306.7 81.9L315.5 81.9Q316.2 81.9 316.6 82.3Q317.0 82.7 317.0 83.3L317.0 83.3Q317.0 83.9 316.6 84.3Q316.2 84.7 315.5 84.7L315.5 84.7ZM333.4 82.1Q331.2 85.1 327.4 85.1Q323.7 85.1 321.5 82.1Q319.3 79.2 319.3 74.1L319.3 74.1Q319.3 69.0 321.5 66.1Q323.7 63.1 327.4 63.1L327.4 63.1Q331.2 63.1 333.4 66.1Q335.5 69.0 335.5 74.1L335.5 74.1Q335.5 79.1 333.4 82.1ZM327.4 82.3L327.4 82.3Q329.7 82.3 331.0 80.1Q332.2 77.9 332.2 74.1L332.2 74.1Q332.2 70.3 331.0 68.1Q329.7 65.9 327.4 65.9Q325.2 65.9 323.9 68.1Q322.7 70.3 322.7 74.1L322.7 74.1Q322.7 77.9 323.9 80.1Q325.2 82.3 327.4 82.3ZM351.6 84.7L339.9 84.7Q339.2 84.7 338.8 84.3Q338.4 83.9 338.4 83.3L338.4 83.3Q338.4 82.8 338.6 82.5Q338.7 82.1 339.3 81.6L339.3 81.6L345.9 74.9Q348.0 72.8 348.6 71.7Q349.3 70.6 349.3 69.3L349.3 69.3Q349.3 67.8 348.3 66.8Q347.2 65.8 345.6 65.8L345.6 65.8Q342.5 65.8 341.4 69.0L341.4 69.0Q341.2 69.5 340.8 69.8Q340.5 70.0 339.9 70.0L339.9 70.0Q339.2 70.0 338.9 69.6Q338.5 69.3 338.5 68.6L338.5 68.6Q338.5 68.3 338.5 68.0L338.5 68.0Q338.7 67.1 339.3 66.3Q339.8 65.4 340.7 64.7Q341.6 64.0 342.8 63.6Q344.1 63.1 345.7 63.1L345.7 63.1Q348.7 63.1 350.6 64.8Q352.6 66.5 352.6 69.1L352.6 69.1Q352.6 70.9 351.6 72.5Q350.6 74.0 347.9 76.8L347.9 76.8L342.8 81.8L342.8 81.9L351.6 81.9Q352.3 81.9 352.7 82.3Q353.1 82.7 353.1 83.3L353.1 83.3Q353.1 83.9 352.7 84.3Q352.3 84.7 351.6 84.7L351.6 84.7ZM367.4 84.9L367.4 84.9Q366.7 84.9 366.3 84.5Q365.9 84.0 365.9 83.3L365.9 83.3L365.9 80.5L357.2 80.5Q356.3 80.5 355.8 80.0Q355.2 79.4 355.2 78.6L355.2 78.6Q355.2 77.6 356.0 76.3L356.0 76.3Q357.8 73.0 362.8 65.7L362.8 65.7Q363.8 64.3 364.5 63.8Q365.3 63.2 366.3 63.2L366.3 63.2Q367.6 63.2 368.3 63.9Q369.0 64.5 369.0 65.7L369.0 65.7L369.0 77.7L370.7 77.7Q371.3 77.7 371.7 78.1Q372.1 78.5 372.1 79.1Q372.1 79.7 371.7 80.1Q371.3 80.5 370.7 80.5L370.7 80.5L369.0 80.5L369.0 83.3Q369.0 84.0 368.6 84.5Q368.1 84.9 367.4 84.9ZM358.3 77.8L365.9 77.8L365.9 66.1L365.8 66.1Q360.4 73.9 358.3 77.7L358.3 77.7L358.3 77.8Z "/><mask id="satori_om-id-0-0-1"><rect x="40" y="137" width="1120" height="243" fill="#fff"/></mask><path fill="#224d67" d="M67.5 199.6L47.5 199.6Q45.7 199.6 44.7 198.5Q43.7 197.5 43.7 195.7L43.7 195.7L43.7 160.7Q43.7 158.9 44.7 157.8Q45.7 156.8 47.5 156.8L47.5 156.8Q49.3 156.8 50.3 157.8Q51.3 158.9 51.3 160.7L51.3 160.7L51.3 193.2L67.5 193.2Q69.0 193.2 70.0 194.1Q70.9 194.9 70.9 196.4Q70.9 197.8 70 198.7Q69.1 199.6 67.5 199.6L67.5 199.6ZM84.3 200.1L84.3 200.1Q79.7 200.1 76.8 197.5Q73.9 194.9 73.9 190.7L73.9 190.7Q73.9 186.6 77.0 184.2Q80.0 181.8 85.7 181.4L85.7 181.4L93.9 180.9L93.9 178.7Q93.9 176.3 92.4 174.9Q90.9 173.6 88.1 173.6L88.1 173.6Q86.0 173.6 84.5 174.4Q83.0 175.2 81.6 177.2L81.6 177.2Q80.5 178.7 78.7 178.7L78.7 178.7Q77.3 178.7 76.5 177.9Q75.6 177.1 75.6 175.8L75.6 175.8Q75.6 174.8 76.1 173.8L76.1 173.8Q77.3 171.1 80.6 169.5Q84.0 167.9 88.4 167.9L88.4 167.9Q94.2 167.9 97.7 170.7Q101.1 173.5 101.1 178.2L101.1 178.2L101.1 196.5Q101.1 198.2 100.2 199.2Q99.2 200.2 97.6 200.2L97.6 200.2Q96.1 200.2 95.1 199.3Q94.2 198.4 94.1 196.8L94.1 196.8L94.1 194.6L94.0 194.6Q92.6 197.1 90.0 198.6Q87.3 200.1 84.3 200.1ZM86.5 194.6L86.5 194.6Q89.6 194.6 91.8 192.7Q93.9 190.8 93.9 188.1L93.9 188.1L93.9 185.7L86.7 186.1Q84.1 186.3 82.6 187.4Q81.2 188.6 81.2 190.4L81.2 190.4Q81.2 192.3 82.6 193.4Q84.1 194.6 86.5 194.6ZM113.3 199.2Q112.3 200.2 110.6 200.2Q109.0 200.2 108.0 199.2Q107.0 198.1 107.0 196.3L107.0 196.3L107.0 171.6Q107.0 169.9 107.9 168.9Q108.9 167.9 110.5 167.9Q112.1 167.9 113.1 168.9Q114.1 169.9 114.1 171.6L114.1 171.6L114.1 173.8L114.2 173.8Q116.9 167.9 123.9 167.9L123.9 167.9Q129.0 167.9 131.8 171.0Q134.7 174.1 134.7 179.5L134.7 179.5L134.7 196.3Q134.7 198.1 133.7 199.2Q132.7 200.2 131.0 200.2Q129.4 200.2 128.4 199.2Q127.4 198.1 127.4 196.3L127.4 196.3L127.4 181.0Q127.4 177.6 125.8 175.9Q124.2 174.1 121.2 174.1L121.2 174.1Q118.0 174.1 116.2 176.2Q114.3 178.2 114.3 181.6L114.3 181.6L114.3 196.3Q114.3 198.1 113.3 199.2ZM153.9 211.3L153.9 211.3Q149.5 211.2 146.2 209.7Q142.9 208.2 141.3 205.6L141.3 205.6Q140.7 204.6 140.7 203.4L140.7 203.4Q140.7 202.2 141.5 201.4Q142.3 200.6 143.7 200.6L143.7 200.6Q145.1 200.6 146.4 201.8L146.4 201.8Q148.3 203.7 150.0 204.6Q151.8 205.4 153.9 205.5L153.9 205.5Q157.6 205.5 159.7 203.6Q161.8 201.7 161.8 198.6L161.8 198.6L161.8 193.7L161.7 193.7Q160.5 196.2 157.9 197.7Q155.3 199.3 152.0 199.3L152.0 199.3Q146.1 199.3 142.7 195.0Q139.2 190.8 139.2 183.7L139.2 183.7Q139.2 176.4 142.7 172.2Q146.1 168.0 152.1 168.0L152.1 168.0Q155.4 168.0 157.9 169.5Q160.4 171.1 161.8 173.8L161.8 173.8L161.9 173.8L161.9 171.6Q161.9 169.9 162.9 168.9Q163.9 167.9 165.5 167.9Q167.1 167.9 168.2 168.9Q169.2 169.9 169.2 171.6L169.2 171.6L169.2 198.6Q169.2 204.5 165.1 207.9Q161.0 211.3 153.9 211.3ZM154.2 193.6L154.2 193.6Q157.7 193.6 159.8 190.9Q161.9 188.3 161.9 183.7L161.9 183.7Q161.9 179.2 159.8 176.5Q157.7 173.8 154.2 173.8L154.2 173.8Q150.7 173.8 148.7 176.5Q146.7 179.2 146.7 183.7L146.7 183.7Q146.7 188.3 148.7 191.0Q150.7 193.6 154.2 193.6ZM202.1 199.6L178.8 199.6Q177.0 199.6 176.1 198.7Q175.2 197.8 175.2 196.4L175.2 196.4Q175.2 195.3 175.6 194.5Q176.1 193.7 177.3 192.5L177.3 192.5L190.2 179.7Q194.2 175.7 195.6 173.6Q196.9 171.5 196.9 169.0L196.9 169.0Q196.9 166.2 195.0 164.3Q193.0 162.5 190.0 162.5L190.0 162.5Q184.3 162.5 182.0 168.3L182.0 168.3Q181.4 169.5 180.7 170.0Q179.9 170.6 178.6 170.6L178.6 170.6Q177.1 170.6 176.2 169.7Q175.4 168.9 175.4 167.4L175.4 167.4Q175.4 166.6 175.6 165.9L175.6 165.9Q176.0 164.1 177.2 162.5Q178.3 160.8 180.1 159.5Q181.9 158.1 184.5 157.3Q187.1 156.5 190.0 156.5L190.0 156.5Q196.4 156.5 200.3 159.8Q204.3 163.2 204.3 168.6L204.3 168.6Q204.3 172.2 202.3 175.3Q200.4 178.4 195.0 183.7L195.0 183.7L185.3 193.3L185.3 193.4L202.1 193.4Q203.6 193.4 204.5 194.2Q205.4 195.1 205.4 196.5Q205.4 197.9 204.5 198.7Q203.6 199.6 202.1 199.6L202.1 199.6ZM235.0 199.6L215.0 199.6Q213.2 199.6 212.2 198.5Q211.2 197.5 211.2 195.7L211.2 195.7L211.2 160.7Q211.2 158.9 212.2 157.8Q213.2 156.8 215.0 156.8L215.0 156.8Q216.8 156.8 217.8 157.8Q218.8 158.9 218.8 160.7L218.8 160.7L218.8 193.2L235.0 193.2Q236.5 193.2 237.5 194.1Q238.4 194.9 238.4 196.4Q238.4 197.8 237.5 198.7Q236.6 199.6 235.0 199.6L235.0 199.6ZM257.5 200.1L257.5 200.1Q255.7 200.1 254.7 199.1Q253.7 198.0 253.7 196.2L253.7 196.2L253.7 163.7L244.1 163.7Q242.5 163.7 241.5 162.8Q240.6 162.0 240.6 160.5Q240.6 159.0 241.5 158.2Q242.5 157.3 244.1 157.3L244.1 157.3L270.9 157.3Q272.5 157.3 273.4 158.2Q274.4 159.0 274.4 160.5Q274.4 162.0 273.4 162.8Q272.5 163.7 270.9 163.7L270.9 163.7L261.3 163.7L261.3 196.2Q261.3 198.0 260.3 199.1Q259.3 200.1 257.5 200.1ZM302.8 199.6L282.8 199.6Q281.1 199.6 280.0 198.5Q279.0 197.5 279.0 195.7L279.0 195.7L279.0 160.7Q279.0 158.9 280.0 157.8Q281.1 156.8 282.8 156.8L282.8 156.8Q284.6 156.8 285.6 157.8Q286.6 158.9 286.6 160.7L286.6 160.7L286.6 193.2L302.8 193.2Q304.3 193.2 305.3 194.1Q306.3 194.9 306.3 196.4Q306.3 197.8 305.3 198.7Q304.4 199.6 302.8 199.6L302.8 199.6ZM327.2 185.7L314.0 185.7Q312.4 185.7 311.5 184.8Q310.5 183.9 310.5 182.4Q310.5 180.9 311.5 180.0Q312.4 179.2 314.0 179.2L314.0 179.2L327.2 179.2Q328.8 179.2 329.7 180.0Q330.7 180.9 330.7 182.4Q330.7 183.9 329.7 184.8Q328.8 185.7 327.2 185.7L327.2 185.7ZM363.7 199.6L340.3 199.6Q338.6 199.6 337.7 198.7Q336.7 197.8 336.7 196.4L336.7 196.4Q336.7 195.3 337.2 194.5Q337.6 193.7 338.9 192.5L338.9 192.5L351.8 179.7Q355.8 175.7 357.2 173.6Q358.5 171.5 358.5 169.0L358.5 169.0Q358.5 166.2 356.6 164.3Q354.6 162.5 351.5 162.5L351.5 162.5Q345.8 162.5 343.6 168.3L343.6 168.3Q343.0 169.5 342.2 170.0Q341.5 170.6 340.2 170.6L340.2 170.6Q338.7 170.6 337.8 169.7Q336.9 168.9 336.9 167.4L336.9 167.4Q336.9 166.6 337.2 165.9L337.2 165.9Q337.6 164.1 338.8 162.5Q339.9 160.8 341.7 159.5Q343.5 158.1 346.1 157.3Q348.6 156.5 351.6 156.5L351.6 156.5Q357.9 156.5 361.9 159.8Q365.9 163.2 365.9 168.6L365.9 168.6Q365.9 172.2 363.9 175.3Q361.9 178.4 356.5 183.7L356.5 183.7L346.8 193.3L346.8 193.4L363.7 193.4Q365.2 193.4 366.1 194.2Q366.9 195.1 366.9 196.5Q366.9 197.9 366.1 198.7Q365.2 199.6 363.7 199.6L363.7 199.6ZM377.1 178.7L377.1 178.7Q375.4 178.7 374.1 177.5Q372.9 176.3 372.9 174.5Q372.9 172.8 374.1 171.5Q375.4 170.3 377.1 170.3L377.1 170.3Q378.9 170.3 380.1 171.5Q381.3 172.8 381.3 174.5Q381.3 176.3 380.1 177.5Q378.9 178.7 377.1 178.7ZM377.1 199.9L377.1 199.9Q375.4 199.9 374.1 198.7Q372.9 197.5 372.9 195.7L372.9 195.7Q372.9 193.9 374.1 192.7Q375.4 191.5 377.1 191.5L377.1 191.5Q378.9 191.5 380.1 192.7Q381.3 193.9 381.3 195.7L381.3 195.7Q381.3 197.5 380.1 198.7Q378.9 199.9 377.1 199.9Z M419.5 200.3L419.5 200.3Q410.3 200.3 404.9 194.4Q399.5 188.5 399.5 178.3L399.5 178.3Q399.5 168.2 404.8 162.4Q410.2 156.6 419.4 156.6L419.4 156.6Q425.3 156.6 429.8 159.2Q434.2 161.8 436.0 165.9L436.0 165.9Q436.6 167.2 436.6 168.4L436.6 168.4Q436.6 169.9 435.7 170.8Q434.8 171.7 433.3 171.7L433.3 171.7Q430.9 171.7 429.5 169.3L429.5 169.3Q426.4 163.0 419.4 163.0L419.4 163.0Q413.7 163.0 410.5 167.0Q407.2 171.0 407.2 178.2L407.2 178.2Q407.2 185.5 410.6 189.7Q413.9 193.9 419.6 193.9L419.6 193.9Q424.4 193.9 427.4 191.1Q430.4 188.4 430.5 183.9L430.5 183.9L430.6 183.2L423.1 183.2Q421.7 183.2 420.8 182.4Q419.9 181.6 419.9 180.3Q419.9 179.0 420.8 178.2Q421.6 177.4 423.1 177.4L423.1 177.4L434.2 177.4Q435.9 177.4 436.9 178.5Q437.9 179.5 437.9 181.4L437.9 181.4L437.9 182.2Q437.9 190.6 433.1 195.4Q428.2 200.3 419.5 200.3ZM449.7 199.1Q448.7 200.2 447.0 200.2Q445.3 200.2 444.3 199.1Q443.4 198.1 443.4 196.3L443.4 196.3L443.4 171.6Q443.4 169.9 444.3 168.9Q445.3 167.9 446.8 167.9L446.8 167.9Q448.4 167.9 449.3 168.9Q450.3 169.9 450.3 171.6L450.3 171.6L450.3 174.0L450.4 174.0Q451.1 171.3 452.9 169.6Q454.8 168.0 457.1 168.0L457.1 168.0Q458.8 168.0 459.7 168.8L459.7 168.8Q460.7 169.6 460.7 171.4L460.7 171.4Q460.7 173.1 459.6 174.0L459.6 174.0Q458.6 174.9 456.4 175.0L456.4 175.0Q450.7 175.0 450.7 181.4L450.7 181.4L450.7 196.3Q450.7 198.1 449.7 199.1ZM488.7 195.9Q484.6 200.2 477.7 200.2Q470.8 200.2 466.8 195.9Q462.7 191.6 462.7 184.1L462.7 184.1Q462.7 176.6 466.8 172.2Q470.9 167.9 477.7 167.9L477.7 167.9Q484.6 167.9 488.7 172.2Q492.8 176.6 492.8 184.1L492.8 184.1Q492.8 191.6 488.7 195.9ZM472.2 191.7Q474.2 194.4 477.7 194.4Q481.2 194.4 483.3 191.7Q485.3 189.0 485.3 184.1L485.3 184.1Q485.3 179.2 483.3 176.4Q481.2 173.7 477.7 173.7L477.7 173.7Q474.2 173.7 472.2 176.4Q470.1 179.2 470.1 184.1L470.1 184.1Q470.1 189.0 472.2 191.7ZM508.3 200.1L508.3 200.1Q503.2 200.1 500.3 197.0Q497.3 194.0 497.3 188.6L497.3 188.6L497.3 171.7Q497.3 170.0 498.3 168.9Q499.3 167.9 500.9 167.9Q502.6 167.9 503.6 168.9Q504.6 170.0 504.6 171.8L504.6 171.8L504.6 187.1Q504.6 190.5 506.2 192.2Q507.8 194.0 510.9 194.0L510.9 194.0Q514.0 194.0 515.8 191.9Q517.7 189.9 517.7 186.5L517.7 186.5L517.7 171.7Q517.7 170.0 518.7 168.9Q519.7 167.9 521.3 167.9L521.3 167.9Q523.0 167.9 524.0 168.9Q525.0 170.0 525.0 171.8L525.0 171.8L525.0 196.5Q525.0 198.2 524.0 199.2Q523.1 200.2 521.5 200.2L521.5 200.2Q519.9 200.2 518.9 199.2Q517.9 198.2 517.9 196.5L517.9 196.5L517.9 194.2L517.8 194.2Q515.2 200.1 508.3 200.1ZM537.2 199.2Q536.2 200.2 534.6 200.2Q532.9 200.2 531.9 199.2Q530.9 198.1 530.9 196.3L530.9 196.3L530.9 171.6Q530.9 169.9 531.9 168.9Q532.8 167.9 534.4 167.9Q536.0 167.9 537.0 168.9Q538.0 169.9 538.0 171.6L538.0 171.6L538.0 173.8L538.2 173.8Q540.8 167.9 547.8 167.9L547.8 167.9Q552.9 167.9 555.8 171.0Q558.6 174.1 558.6 179.5L558.6 179.5L558.6 196.3Q558.6 198.1 557.6 199.2Q556.6 200.2 555.0 200.2Q553.3 200.2 552.3 199.2Q551.3 198.1 551.3 196.3L551.3 196.3L551.3 181.0Q551.3 177.6 549.7 175.9Q548.2 174.1 545.1 174.1L545.1 174.1Q541.9 174.1 540.1 176.2Q538.2 178.2 538.2 181.6L538.2 181.6L538.2 196.3Q538.2 198.1 537.2 199.2ZM576.0 200.1L576.0 200.1Q570.1 200.1 566.6 195.7Q563.1 191.4 563.1 184.0L563.1 184.0Q563.1 176.7 566.6 172.3Q570.1 168.0 576.0 168.0L576.0 168.0Q579.3 168.0 581.8 169.5Q584.4 171.1 585.6 173.7L585.6 173.7L585.8 173.7L585.8 160.6Q585.8 158.7 586.8 157.7Q587.8 156.7 589.4 156.7Q591.1 156.7 592.1 157.7Q593.1 158.7 593.1 160.6L593.1 160.6L593.1 196.5Q593.1 198.2 592.1 199.2Q591.1 200.2 589.5 200.2L589.5 200.2Q587.9 200.2 586.8 199.2Q585.8 198.2 585.8 196.5L585.8 196.5L585.8 194.1L585.7 194.1Q584.5 196.9 582.0 198.5Q579.5 200.1 576.0 200.1ZM578.2 194.1L578.2 194.1Q581.7 194.1 583.8 191.4Q585.8 188.7 585.8 184.1L585.8 184.1Q585.8 179.5 583.8 176.7Q581.7 174.0 578.2 174.0L578.2 174.0Q574.7 174.0 572.6 176.7Q570.6 179.4 570.6 184.1L570.6 184.1Q570.6 188.7 572.6 191.4Q574.7 194.1 578.2 194.1ZM605.9 163.0Q604.7 164.2 603.0 164.2Q601.3 164.2 600.2 163.0Q599.0 161.8 599.0 160.2L599.0 160.2Q599.0 158.5 600.2 157.4Q601.3 156.2 603.0 156.2L603.0 156.2Q604.8 156.2 605.9 157.4Q607.1 158.5 607.1 160.2L607.1 160.2Q607.1 161.8 605.9 163.0ZM605.7 199.1Q604.7 200.2 603.0 200.2Q601.4 200.2 600.4 199.1Q599.4 198.1 599.4 196.3L599.4 196.3L599.4 171.7Q599.4 170.0 600.4 168.9Q601.4 167.9 603.0 167.9Q604.7 167.9 605.7 168.9Q606.7 170.0 606.7 171.8L606.7 171.8L606.7 196.3Q606.7 198.1 605.7 199.1ZM619.1 199.2Q618.1 200.2 616.4 200.2Q614.8 200.2 613.8 199.2Q612.8 198.1 612.8 196.3L612.8 196.3L612.8 171.6Q612.8 169.9 613.8 168.9Q614.7 167.9 616.3 167.9Q617.9 167.9 618.9 168.9Q619.9 169.9 619.9 171.6L619.9 171.6L619.9 173.8L620.0 173.8Q622.7 167.9 629.7 167.9L629.7 167.9Q634.8 167.9 637.6 171.0Q640.5 174.1 640.5 179.5L640.5 179.5L640.5 196.3Q640.5 198.1 639.5 199.2Q638.5 200.2 636.8 200.2Q635.2 200.2 634.2 199.2Q633.2 198.1 633.2 196.3L633.2 196.3L633.2 181.0Q633.2 177.6 631.6 175.9Q630.0 174.1 627.0 174.1L627.0 174.1Q623.8 174.1 622.0 176.2Q620.1 178.2 620.1 181.6L620.1 181.6L620.1 196.3Q620.1 198.1 619.1 199.2ZM659.7 211.3L659.7 211.3Q655.3 211.2 652.0 209.7Q648.7 208.2 647.1 205.6L647.1 205.6Q646.5 204.6 646.5 203.4L646.5 203.4Q646.5 202.2 647.3 201.4Q648.1 200.6 649.5 200.6L649.5 200.6Q650.9 200.6 652.2 201.8L652.2 201.8Q654.1 203.7 655.8 204.6Q657.6 205.4 659.7 205.5L659.7 205.5Q663.4 205.5 665.5 203.6Q667.7 201.7 667.7 198.6L667.7 198.6L667.7 193.7L667.5 193.7Q666.3 196.2 663.7 197.7Q661.1 199.3 657.8 199.3L657.8 199.3Q651.9 199.3 648.5 195.0Q645.0 190.8 645.0 183.7L645.0 183.7Q645.0 176.4 648.5 172.2Q651.9 168.0 657.9 168.0L657.9 168.0Q661.2 168.0 663.7 169.5Q666.2 171.1 667.6 173.8L667.6 173.8L667.7 173.8L667.7 171.6Q667.7 169.9 668.7 168.9Q669.7 167.9 671.3 167.9Q673.0 167.9 674.0 168.9Q675.0 169.9 675.0 171.6L675.0 171.6L675.0 198.6Q675.0 204.5 670.9 207.9Q666.8 211.3 659.7 211.3ZM660.0 193.6L660.0 193.6Q663.5 193.6 665.6 190.9Q667.7 188.3 667.7 183.7L667.7 183.7Q667.7 179.2 665.6 176.5Q663.5 173.8 660.0 173.8L660.0 173.8Q656.6 173.8 654.5 176.5Q652.5 179.2 652.5 183.7L652.5 183.7Q652.5 188.3 654.5 191.0Q656.6 193.6 660.0 193.6Z M708.6 200.3L708.6 200.3Q702.4 200.3 698.3 198.0Q694.1 195.7 692.9 192.0L692.9 192.0Q692.4 190.9 692.4 189.8L692.4 189.8Q692.4 188.2 693.4 187.3Q694.3 186.3 695.8 186.3L695.8 186.3Q697.0 186.3 697.9 186.9Q698.7 187.4 699.3 188.7L699.3 188.7Q700.3 191.4 702.8 192.7Q705.3 194.0 708.8 194.0L708.8 194.0Q712.6 194.0 715.0 192.3Q717.5 190.6 717.5 188.0L717.5 188.0Q717.5 185.7 715.7 184.2Q713.9 182.8 709.8 181.9L709.8 181.9L705.3 181.0Q692.9 178.4 692.9 169.1L692.9 169.1Q692.9 163.5 697.3 160.1Q701.7 156.6 708.6 156.6L708.6 156.6Q714.2 156.6 718.3 159.0Q722.3 161.4 723.6 165.5L723.6 165.5Q723.8 166.2 723.8 167.3L723.8 167.3Q723.8 168.6 722.9 169.5Q722.0 170.4 720.6 170.4L720.6 170.4Q718.1 170.4 716.9 168.0L716.9 168.0Q714.9 162.9 708.5 162.9L708.5 162.9Q705.0 162.9 702.7 164.4Q700.5 166.0 700.5 168.6L700.5 168.6Q700.5 170.8 702.2 172.2Q704.0 173.7 707.9 174.5L707.9 174.5L712.4 175.4Q719.1 176.8 722.1 179.6Q725.1 182.4 725.1 187.1L725.1 187.1Q725.1 193.2 720.6 196.7Q716.2 200.3 708.6 200.3ZM736.3 209.6Q735.3 210.6 733.6 210.6Q732.0 210.6 731.0 209.6Q730 208.6 730 206.8L730 206.8L730 171.7Q730 169.9 731.0 168.9Q732.0 167.9 733.5 167.9L733.5 167.9Q735.2 167.9 736.1 168.9Q737.1 169.9 737.1 171.7L737.1 171.7L737.1 173.9L737.3 173.9Q738.6 171.1 741.2 169.6Q743.7 168.0 747.1 168.0L747.1 168.0Q753.0 168.0 756.5 172.3Q759.9 176.6 759.9 184.1L759.9 184.1Q759.9 191.5 756.5 195.8Q753.0 200.1 747.2 200.1L747.2 200.1Q743.8 200.1 741.3 198.6Q738.7 197.1 737.4 194.4L737.4 194.4L737.3 194.4L737.3 206.8Q737.3 208.6 736.3 209.6ZM744.8 194.1L744.8 194.1Q748.4 194.1 750.4 191.4Q752.5 188.7 752.5 184.1L752.5 184.1Q752.5 179.5 750.4 176.7Q748.3 174.0 744.8 174.0L744.8 174.0Q741.4 174.0 739.3 176.8Q737.3 179.5 737.2 184.1L737.2 184.1Q737.3 188.6 739.3 191.4Q741.4 194.1 744.8 194.1ZM773.7 200.1L773.7 200.1Q769.2 200.1 766.3 197.5Q763.4 194.9 763.4 190.7L763.4 190.7Q763.4 186.6 766.4 184.2Q769.5 181.8 775.2 181.4L775.2 181.4L783.4 180.9L783.4 178.7Q783.4 176.3 781.9 174.9Q780.3 173.6 777.6 173.6L777.6 173.6Q775.4 173.6 773.9 174.4Q772.5 175.2 771.1 177.2L771.1 177.2Q770.0 178.7 768.1 178.7L768.1 178.7Q766.8 178.7 765.9 177.9Q765.1 177.1 765.1 175.8L765.1 175.8Q765.1 174.8 765.6 173.8L765.6 173.8Q766.7 171.1 770.1 169.5Q773.4 167.9 777.9 167.9L777.9 167.9Q783.7 167.9 787.1 170.7Q790.6 173.5 790.6 178.2L790.6 178.2L790.6 196.5Q790.6 198.2 789.6 199.2Q788.7 200.2 787.1 200.2L787.1 200.2Q785.5 200.2 784.6 199.3Q783.7 198.4 783.6 196.8L783.6 196.8L783.6 194.6L783.4 194.6Q782.1 197.1 779.5 198.6Q776.8 200.1 773.7 200.1ZM776.0 194.6L776.0 194.6Q779.1 194.6 781.2 192.7Q783.4 190.8 783.4 188.1L783.4 188.1L783.4 185.7L776.2 186.1Q773.6 186.3 772.1 187.4Q770.7 188.6 770.7 190.4L770.7 190.4Q770.7 192.3 772.1 193.4Q773.6 194.6 776.0 194.6ZM798.5 191.9L798.5 191.9L798.5 174.1L796.5 174.1Q795.2 174.1 794.4 173.4Q793.6 172.6 793.6 171.3L793.6 171.3Q793.6 170.0 794.4 169.3Q795.2 168.5 796.5 168.5L796.5 168.5L798.5 168.5L798.5 164.4Q798.5 162.6 799.5 161.6Q800.5 160.6 802.2 160.6L802.2 160.6Q803.8 160.6 804.8 161.6Q805.8 162.6 805.8 164.4L805.8 164.4L805.8 168.5L809.2 168.5Q810.5 168.5 811.3 169.3Q812.1 170.0 812.1 171.3L812.1 171.3Q812.1 172.6 811.3 173.4Q810.5 174.1 809.2 174.1L809.2 174.1L805.8 174.1L805.8 190.3Q805.8 192.1 806.5 192.9Q807.1 193.7 808.7 193.9L808.7 193.9L809.2 193.9Q812.2 194.2 812.2 196.6L812.2 196.6Q812.2 198.2 810.8 199.1Q809.5 199.9 807.0 199.9L807.0 199.9L806.7 199.9Q798.5 199.9 798.5 191.9ZM823.3 163.0Q822.1 164.2 820.4 164.2Q818.7 164.2 817.5 163.0Q816.4 161.8 816.4 160.2L816.4 160.2Q816.4 158.5 817.5 157.4Q818.7 156.2 820.4 156.2L820.4 156.2Q822.1 156.2 823.3 157.4Q824.5 158.5 824.5 160.2L824.5 160.2Q824.5 161.8 823.3 163.0ZM823.1 199.1Q822.1 200.2 820.4 200.2Q818.7 200.2 817.8 199.1Q816.8 198.1 816.8 196.3L816.8 196.3L816.8 171.7Q816.8 170.0 817.8 168.9Q818.7 167.9 820.4 167.9Q822.1 167.9 823.1 168.9Q824.1 170.0 824.1 171.8L824.1 171.8L824.1 196.3Q824.1 198.1 823.1 199.1ZM854.9 195.9Q850.8 200.2 843.9 200.2Q837.1 200.2 833.0 195.9Q828.9 191.6 828.9 184.1L828.9 184.1Q828.9 176.6 833.0 172.2Q837.1 167.9 843.9 167.9L843.9 167.9Q850.8 167.9 854.9 172.2Q859.0 176.6 859.0 184.1L859.0 184.1Q859.0 191.6 854.9 195.9ZM838.4 191.7Q840.4 194.4 843.9 194.4Q847.5 194.4 849.5 191.7Q851.6 189.0 851.6 184.1L851.6 184.1Q851.6 179.2 849.5 176.4Q847.5 173.7 843.9 173.7L843.9 173.7Q840.4 173.7 838.4 176.4Q836.3 179.2 836.3 184.1L836.3 184.1Q836.3 189.0 838.4 191.7ZM865.7 191.9L865.7 191.9L865.7 174.1L863.7 174.1Q862.4 174.1 861.6 173.4Q860.8 172.6 860.8 171.3L860.8 171.3Q860.8 170.0 861.6 169.3Q862.3 168.5 863.7 168.5L863.7 168.5L865.7 168.5L865.7 164.4Q865.7 162.6 866.7 161.6Q867.6 160.6 869.3 160.6L869.3 160.6Q871.0 160.6 872.0 161.6Q873.0 162.6 873.0 164.4L873.0 164.4L873.0 168.5L876.3 168.5Q877.7 168.5 878.5 169.3Q879.3 170.0 879.3 171.3L879.3 171.3Q879.3 172.6 878.5 173.4Q877.7 174.1 876.3 174.1L876.3 174.1L873.0 174.1L873.0 190.3Q873.0 192.1 873.6 192.9Q874.3 193.7 875.9 193.9L875.9 193.9L876.4 193.9Q879.4 194.2 879.4 196.6L879.4 196.6Q879.4 198.2 878.0 199.1Q876.7 199.9 874.1 199.9L874.1 199.9L873.8 199.9Q865.7 199.9 865.7 191.9ZM897.6 200.2L897.6 200.2Q890.5 200.2 886.5 196.0Q882.5 191.7 882.5 184.2L882.5 184.2Q882.5 176.7 886.5 172.3Q890.5 167.9 897.2 167.9L897.2 167.9Q903.5 167.9 907.5 171.9Q911.5 176.0 911.5 182.4L911.5 182.4Q911.5 184.0 910.6 184.9Q909.7 185.8 908.1 185.8L908.1 185.8L889.8 185.8L889.8 186.0Q889.8 189.9 891.9 192.3Q894.0 194.6 897.5 194.6L897.5 194.6Q900.0 194.6 901.8 193.6Q903.5 192.7 905.3 190.4L905.3 190.4Q906.3 189.3 907.7 189.3L907.7 189.3Q909.0 189.3 909.8 190.0Q910.7 190.8 910.7 192.1L910.7 192.1Q910.7 192.9 910.2 193.9L910.2 193.9Q908.6 196.9 905.3 198.5Q902.0 200.2 897.6 200.2ZM889.8 181.0L889.8 181.0L904.3 181.0Q904.2 177.6 902.2 175.6Q900.3 173.5 897.2 173.5Q894.1 173.5 892.1 175.6Q890.0 177.7 889.8 181.0ZM919.8 200.2L919.8 200.2Q918.1 200.2 917.1 199.2Q916.2 198.1 916.2 196.3L916.2 196.3L916.2 171.6Q916.2 169.9 917.1 168.9Q918.1 167.9 919.6 167.9Q921.2 167.9 922.2 168.9Q923.2 169.9 923.2 171.6L923.2 171.6L923.2 173.9L923.3 173.9Q924.3 171.2 926.7 169.5Q929.0 167.9 932.1 167.9L932.1 167.9Q935.4 167.9 937.7 169.6Q940.0 171.2 940.8 174.2L940.8 174.2L941.0 174.2Q942.1 171.3 944.7 169.6Q947.3 167.9 950.7 167.9L950.7 167.9Q955.3 167.9 958.0 170.8Q960.8 173.6 960.8 178.3L960.8 178.3L960.8 196.3Q960.8 198.1 959.8 199.1Q958.8 200.2 957.2 200.2L957.2 200.2Q955.5 200.2 954.5 199.1Q953.5 198.1 953.5 196.3L953.5 196.3L953.5 180.1Q953.5 177.2 952.1 175.6Q950.6 174.1 947.9 174.1L947.9 174.1Q945.3 174.1 943.7 175.8Q942.0 177.6 942.0 180.4L942.0 180.4L942.0 196.3Q942.0 198.1 941.1 199.2Q940.1 200.2 938.5 200.2L938.5 200.2Q936.8 200.2 935.9 199.2Q934.9 198.1 934.9 196.3L934.9 196.3L934.9 179.7Q934.9 177.1 933.5 175.6Q932.0 174.1 929.4 174.1L929.4 174.1Q926.8 174.1 925.1 175.9Q923.4 177.8 923.4 180.6L923.4 180.6L923.4 196.3Q923.4 198.1 922.4 199.1Q921.4 200.2 919.8 200.2ZM972.9 209.6Q971.9 210.6 970.3 210.6Q968.6 210.6 967.6 209.6Q966.6 208.6 966.6 206.8L966.6 206.8L966.6 171.7Q966.6 169.9 967.6 168.9Q968.6 167.9 970.2 167.9L970.2 167.9Q971.8 167.9 972.8 168.9Q973.8 169.9 973.8 171.7L973.8 171.7L973.8 173.9L973.9 173.9Q975.2 171.1 977.8 169.6Q980.3 168.0 983.7 168.0L983.7 168.0Q989.6 168.0 993.1 172.3Q996.6 176.6 996.6 184.1L996.6 184.1Q996.6 191.5 993.1 195.8Q989.7 200.1 983.8 200.1L983.8 200.1Q980.5 200.1 977.9 198.6Q975.4 197.1 974.1 194.4L974.1 194.4L973.9 194.4L973.9 206.8Q973.9 208.6 972.9 209.6ZM981.5 194.1L981.5 194.1Q985 194.1 987.1 191.4Q989.1 188.7 989.1 184.1L989.1 184.1Q989.1 179.5 987.0 176.7Q985.0 174.0 981.5 174.0L981.5 174.0Q978.1 174.0 976.0 176.8Q973.9 179.5 973.9 184.1L973.9 184.1Q973.9 188.6 976.0 191.4Q978.1 194.1 981.5 194.1ZM1026.0 195.9Q1021.9 200.2 1015 200.2Q1008.1 200.2 1004.0 195.9Q1000.0 191.6 1000.0 184.1L1000.0 184.1Q1000.0 176.6 1004.1 172.2Q1008.2 167.9 1015 167.9L1015 167.9Q1021.9 167.9 1025.9 172.2Q1030.0 176.6 1030.0 184.1L1030.0 184.1Q1030.0 191.6 1026.0 195.9ZM1009.4 191.7Q1011.5 194.4 1015 194.4Q1018.5 194.4 1020.6 191.7Q1022.6 189.0 1022.6 184.1L1022.6 184.1Q1022.6 179.2 1020.6 176.4Q1018.5 173.7 1015 173.7L1015 173.7Q1011.5 173.7 1009.4 176.4Q1007.4 179.2 1007.4 184.1L1007.4 184.1Q1007.4 189.0 1009.4 191.7ZM1041.0 199.1Q1040.0 200.2 1038.3 200.2Q1036.7 200.2 1035.7 199.1Q1034.7 198.1 1034.7 196.3L1034.7 196.3L1034.7 171.6Q1034.7 169.9 1035.7 168.9Q1036.6 167.9 1038.2 167.9L1038.2 167.9Q1039.7 167.9 1040.7 168.9Q1041.7 169.9 1041.7 171.6L1041.7 171.6L1041.7 174.0L1041.8 174.0Q1042.5 171.3 1044.3 169.6Q1046.1 168.0 1048.5 168.0L1048.5 168.0Q1050.2 168.0 1051.0 168.8L1051.0 168.8Q1052.1 169.6 1052.1 171.4L1052.1 171.4Q1052.1 173.1 1051.0 174.0L1051.0 174.0Q1049.9 174.9 1047.8 175.0L1047.8 175.0Q1042.0 175.0 1042.0 181.4L1042.0 181.4L1042.0 196.3Q1042.0 198.1 1041.0 199.1ZM1064.5 200.1L1064.5 200.1Q1059.9 200.1 1057.0 197.5Q1054.1 194.9 1054.1 190.7L1054.1 190.7Q1054.1 186.6 1057.1 184.2Q1060.2 181.8 1065.9 181.4L1065.9 181.4L1074.1 180.9L1074.1 178.7Q1074.1 176.3 1072.6 174.9Q1071.0 173.6 1068.3 173.6L1068.3 173.6Q1066.2 173.6 1064.7 174.4Q1063.2 175.2 1061.8 177.2L1061.8 177.2Q1060.7 178.7 1058.9 178.7L1058.9 178.7Q1057.5 178.7 1056.6 177.9Q1055.8 177.1 1055.8 175.8L1055.8 175.8Q1055.8 174.8 1056.3 173.8L1056.3 173.8Q1057.5 171.1 1060.8 169.5Q1064.2 167.9 1068.6 167.9L1068.6 167.9Q1074.4 167.9 1077.9 170.7Q1081.3 173.5 1081.3 178.2L1081.3 178.2L1081.3 196.5Q1081.3 198.2 1080.3 199.2Q1079.4 200.2 1077.8 200.2L1077.8 200.2Q1076.3 200.2 1075.3 199.3Q1074.4 198.4 1074.3 196.8L1074.3 196.8L1074.3 194.6L1074.2 194.6Q1072.8 197.1 1070.2 198.6Q1067.5 200.1 1064.5 200.1ZM1066.7 194.6L1066.7 194.6Q1069.8 194.6 1072.0 192.7Q1074.1 190.8 1074.1 188.1L1074.1 188.1L1074.1 185.7L1066.9 186.1Q1064.3 186.3 1062.8 187.4Q1061.4 188.6 1061.4 190.4L1061.4 190.4Q1061.4 192.3 1062.8 193.4Q1064.3 194.6 1066.7 194.6ZM1093.7 199.2Q1092.7 200.2 1091.1 200.2Q1089.4 200.2 1088.4 199.2Q1087.4 198.1 1087.4 196.3L1087.4 196.3L1087.4 160.6Q1087.4 158.7 1088.4 157.7Q1089.4 156.7 1091.1 156.7Q1092.7 156.7 1093.7 157.7Q1094.7 158.7 1094.7 160.6L1094.7 160.6L1094.7 196.3Q1094.7 198.1 1093.7 199.2Z M47.4 282.6L47.4 282.6Q45.7 282.6 44.7 281.6Q43.7 280.6 43.7 278.8L43.7 278.8L43.7 243.2Q43.7 241.4 44.8 240.3Q45.8 239.3 47.6 239.3L47.6 239.3Q48.9 239.3 49.8 239.8Q50.7 240.3 51.6 241.6L51.6 241.6L71.3 269.4L71.5 269.4L71.5 243.1Q71.5 241.3 72.5 240.3Q73.5 239.3 75.2 239.3L75.2 239.3Q76.9 239.3 77.8 240.3Q78.8 241.3 78.8 243.1L78.8 243.1L78.8 278.8Q78.8 280.6 77.8 281.6Q76.8 282.6 75.0 282.6L75.0 282.6Q73.7 282.6 72.8 282.1Q71.9 281.6 71.0 280.3L71.0 280.3L51.3 252.4L51.0 252.4L51.0 278.8Q51.0 280.6 50.0 281.6Q49.1 282.6 47.4 282.6ZM94.6 282.6L94.6 282.6Q90.1 282.6 87.2 280.0Q84.3 277.4 84.3 273.2L84.3 273.2Q84.3 269.1 87.3 266.7Q90.4 264.3 96.1 263.9L96.1 263.9L104.3 263.4L104.3 261.2Q104.3 258.8 102.8 257.4Q101.2 256.1 98.5 256.1L98.5 256.1Q96.3 256.1 94.8 256.9Q93.3 257.7 92.0 259.7L92.0 259.7Q90.9 261.2 89.0 261.2L89.0 261.2Q87.7 261.2 86.8 260.4Q86.0 259.6 86.0 258.3L86.0 258.3Q86.0 257.3 86.5 256.3L86.5 256.3Q87.6 253.6 91.0 252.0Q94.3 250.4 98.8 250.4L98.8 250.4Q104.6 250.4 108.0 253.2Q111.5 256.0 111.5 260.7L111.5 260.7L111.5 279.0Q111.5 280.7 110.5 281.7Q109.6 282.7 108.0 282.7L108.0 282.7Q106.4 282.7 105.5 281.8Q104.6 280.9 104.5 279.3L104.5 279.3L104.5 277.1L104.3 277.1Q103.0 279.6 100.4 281.1Q97.7 282.6 94.6 282.6ZM96.9 277.1L96.9 277.1Q100.0 277.1 102.1 275.2Q104.3 273.3 104.3 270.6L104.3 270.6L104.3 268.2L97.1 268.6Q94.5 268.8 93.0 269.9Q91.6 271.1 91.6 272.9L91.6 272.9Q91.6 274.8 93.0 275.9Q94.5 277.1 96.9 277.1ZM129.8 282.7L129.8 282.7Q127.8 282.7 126.6 281.8Q125.4 280.9 124.7 278.9L124.7 278.9L115.9 255.8Q115.5 254.7 115.5 253.7L115.5 253.7Q115.5 252.3 116.6 251.3Q117.6 250.4 119.2 250.4L119.2 250.4Q121.8 250.4 122.6 253.3L122.6 253.3L129.7 275.3L129.9 275.3L137.0 253.3Q137.8 250.4 140.4 250.4L140.4 250.4Q141.9 250.4 142.9 251.3Q143.9 252.3 143.9 253.7L143.9 253.7Q143.9 254.7 143.6 255.7L143.6 255.7L134.8 278.9Q134.2 280.8 132.9 281.8Q131.7 282.7 129.8 282.7ZM154.7 245.5Q153.6 246.7 151.9 246.7Q150.2 246.7 149.0 245.5Q147.8 244.3 147.8 242.7L147.8 242.7Q147.8 241.0 149.0 239.9Q150.2 238.7 151.9 238.7L151.9 238.7Q153.6 238.7 154.8 239.9Q155.9 241.0 155.9 242.7L155.9 242.7Q155.9 244.3 154.7 245.5ZM154.5 281.6Q153.5 282.7 151.9 282.7Q150.2 282.7 149.2 281.6Q148.2 280.6 148.2 278.8L148.2 278.8L148.2 254.2Q148.2 252.5 149.2 251.4Q150.2 250.4 151.9 250.4Q153.5 250.4 154.5 251.4Q155.5 252.5 155.5 254.3L155.5 254.3L155.5 278.8Q155.5 280.6 154.5 281.6ZM175.0 293.8L175.0 293.8Q170.7 293.7 167.4 292.2Q164.0 290.7 162.4 288.1L162.4 288.1Q161.8 287.1 161.8 285.9L161.8 285.9Q161.8 284.7 162.7 283.9Q163.5 283.1 164.9 283.1L164.9 283.1Q166.3 283.1 167.5 284.3L167.5 284.3Q169.4 286.2 171.2 287.1Q172.9 287.9 175.1 288.0L175.1 288.0Q178.8 288.0 180.9 286.1Q183.0 284.2 183.0 281.1L183.0 281.1L183.0 276.2L182.9 276.2Q181.6 278.7 179.0 280.2Q176.4 281.8 173.1 281.8L173.1 281.8Q167.3 281.8 163.8 277.5Q160.4 273.3 160.4 266.2L160.4 266.2Q160.4 258.9 163.8 254.7Q167.3 250.5 173.3 250.5L173.3 250.5Q176.5 250.5 179.0 252.0Q181.5 253.6 182.9 256.3L182.9 256.3L183.0 256.3L183.0 254.1Q183.0 252.4 184.1 251.4Q185.1 250.4 186.7 250.4Q188.3 250.4 189.3 251.4Q190.3 252.4 190.3 254.1L190.3 254.1L190.3 281.1Q190.3 287.0 186.3 290.4Q182.2 293.8 175.0 293.8ZM175.4 276.1L175.4 276.1Q178.9 276.1 181.0 273.4Q183.1 270.8 183.1 266.2L183.1 266.2Q183.1 261.7 180.9 259.0Q178.8 256.3 175.4 256.3L175.4 256.3Q171.9 256.3 169.9 259.0Q167.8 261.7 167.8 266.2L167.8 266.2Q167.8 270.8 169.9 273.5Q171.9 276.1 175.4 276.1ZM205.4 282.6L205.4 282.6Q200.8 282.6 197.9 280.0Q195.0 277.4 195.0 273.2L195.0 273.2Q195.0 269.1 198.1 266.7Q201.1 264.3 206.8 263.9L206.8 263.9L215.0 263.4L215.0 261.2Q215.0 258.8 213.5 257.4Q212.0 256.1 209.2 256.1L209.2 256.1Q207.1 256.1 205.6 256.9Q204.1 257.7 202.7 259.7L202.7 259.7Q201.6 261.2 199.8 261.2L199.8 261.2Q198.4 261.2 197.6 260.4Q196.7 259.6 196.7 258.3L196.7 258.3Q196.7 257.3 197.2 256.3L197.2 256.3Q198.4 253.6 201.7 252.0Q205.1 250.4 209.5 250.4L209.5 250.4Q215.3 250.4 218.8 253.2Q222.3 256.0 222.3 260.7L222.3 260.7L222.3 279.0Q222.3 280.7 221.3 281.7Q220.3 282.7 218.7 282.7L218.7 282.7Q217.2 282.7 216.3 281.8Q215.3 280.9 215.2 279.3L215.2 279.3L215.2 277.1L215.1 277.1Q213.8 279.6 211.1 281.1Q208.4 282.6 205.4 282.6ZM207.6 277.1L207.6 277.1Q210.7 277.1 212.9 275.2Q215.0 273.3 215.0 270.6L215.0 270.6L215.0 268.2L207.8 268.6Q205.2 268.8 203.8 269.9Q202.3 271.1 202.3 272.9L202.3 272.9Q202.3 274.8 203.8 275.9Q205.2 277.1 207.6 277.1ZM230.1 274.4L230.1 274.4L230.1 256.6L228.2 256.6Q226.8 256.6 226.0 255.9Q225.2 255.1 225.2 253.8L225.2 253.8Q225.2 252.5 226.0 251.8Q226.8 251.0 228.2 251.0L228.2 251.0L230.1 251.0L230.1 246.9Q230.1 245.1 231.1 244.1Q232.1 243.1 233.8 243.1L233.8 243.1Q235.5 243.1 236.5 244.1Q237.4 245.1 237.4 246.9L237.4 246.9L237.4 251.0L240.8 251.0Q242.2 251.0 243.0 251.8Q243.7 252.5 243.7 253.8L243.7 253.8Q243.7 255.1 242.9 255.9Q242.1 256.6 240.8 256.6L240.8 256.6L237.4 256.6L237.4 272.8Q237.4 274.6 238.1 275.4Q238.8 276.2 240.4 276.4L240.4 276.4L240.9 276.4Q243.8 276.7 243.8 279.1L243.8 279.1Q243.8 280.7 242.5 281.6Q241.1 282.4 238.6 282.4L238.6 282.4L238.3 282.4Q230.1 282.4 230.1 274.4ZM254.9 245.5Q253.8 246.7 252.1 246.7Q250.4 246.7 249.2 245.5Q248.0 244.3 248.0 242.7L248.0 242.7Q248.0 241.0 249.2 239.9Q250.4 238.7 252.1 238.7L252.1 238.7Q253.8 238.7 255.0 239.9Q256.1 241.0 256.1 242.7L256.1 242.7Q256.1 244.3 254.9 245.5ZM254.7 281.6Q253.7 282.7 252.1 282.7Q250.4 282.7 249.4 281.6Q248.4 280.6 248.4 278.8L248.4 278.8L248.4 254.2Q248.4 252.5 249.4 251.4Q250.4 250.4 252.1 250.4Q253.7 250.4 254.7 251.4Q255.7 252.5 255.7 254.3L255.7 254.3L255.7 278.8Q255.7 280.6 254.7 281.6ZM286.5 278.4Q282.5 282.7 275.6 282.7Q268.7 282.7 264.6 278.4Q260.5 274.1 260.5 266.6L260.5 266.6Q260.5 259.1 264.6 254.7Q268.8 250.4 275.6 250.4L275.6 250.4Q282.4 250.4 286.5 254.7Q290.6 259.1 290.6 266.6L290.6 266.6Q290.6 274.1 286.5 278.4ZM270.0 274.2Q272.1 276.9 275.6 276.9Q279.1 276.9 281.1 274.2Q283.2 271.5 283.2 266.6L283.2 266.6Q283.2 261.7 281.1 258.9Q279.1 256.2 275.6 256.2L275.6 256.2Q272.1 256.2 270.0 258.9Q268.0 261.7 268.0 266.6L268.0 266.6Q268.0 271.5 270.0 274.2ZM301.6 281.7Q300.6 282.7 298.9 282.7Q297.3 282.7 296.3 281.7Q295.3 280.6 295.3 278.8L295.3 278.8L295.3 254.1Q295.3 252.4 296.2 251.4Q297.2 250.4 298.8 250.4Q300.4 250.4 301.4 251.4Q302.4 252.4 302.4 254.1L302.4 254.1L302.4 256.3L302.5 256.3Q305.2 250.4 312.2 250.4L312.2 250.4Q317.3 250.4 320.1 253.5Q322.9 256.6 322.9 262.0L322.9 262.0L322.9 278.8Q322.9 280.6 322.0 281.7Q321.0 282.7 319.3 282.7Q317.7 282.7 316.7 281.7Q315.7 280.6 315.7 278.8L315.7 278.8L315.7 263.5Q315.7 260.1 314.1 258.4Q312.5 256.6 309.4 256.6L309.4 256.6Q306.3 256.6 304.4 258.7Q302.6 260.7 302.6 264.1L302.6 264.1L302.6 278.8Q302.6 280.6 301.6 281.7Z M359.8 282.8L359.8 282.8Q350.7 282.8 345.4 276.9Q340.1 271.1 340.1 260.9L340.1 260.9Q340.1 250.8 345.4 245.0Q350.7 239.1 359.7 239.1L359.7 239.1Q365.5 239.1 370.0 241.7Q374.4 244.3 376.5 248.9L376.5 248.9Q377.2 250.4 377.2 251.8L377.2 251.8Q377.2 253.3 376.3 254.2Q375.4 255.1 373.8 255.1L373.8 255.1Q371.3 255.1 370.1 252.4L370.1 252.4Q368.7 249.1 366.0 247.3Q363.2 245.5 359.7 245.5L359.7 245.5Q354.3 245.5 351.1 249.7Q347.8 253.9 347.8 260.9L347.8 260.9Q347.8 268.0 351.0 272.2Q354.3 276.4 359.8 276.4L359.8 276.4Q367.4 276.4 370.3 269.8L370.3 269.8Q370.8 268.5 371.6 267.9Q372.4 267.4 373.6 267.4L373.6 267.4Q375.2 267.4 376.2 268.3Q377.1 269.2 377.1 270.7L377.1 270.7Q377.1 272.1 376.4 273.6L376.4 273.6Q374.4 277.9 370.1 280.3Q365.7 282.8 359.8 282.8ZM407.6 278.4Q403.6 282.7 396.7 282.7Q389.8 282.7 385.7 278.4Q381.7 274.1 381.7 266.6L381.7 266.6Q381.7 259.1 385.8 254.7Q389.9 250.4 396.7 250.4L396.7 250.4Q403.5 250.4 407.6 254.7Q411.7 259.1 411.7 266.6L411.7 266.6Q411.7 274.1 407.6 278.4ZM391.1 274.2Q393.2 276.9 396.7 276.9Q400.2 276.9 402.3 274.2Q404.3 271.5 404.3 266.6L404.3 266.6Q404.3 261.7 402.3 258.9Q400.2 256.2 396.7 256.2L396.7 256.2Q393.2 256.2 391.1 258.9Q389.1 261.7 389.1 266.6L389.1 266.6Q389.1 271.5 391.1 274.2ZM420.0 282.7L420.0 282.7Q418.4 282.7 417.4 281.7Q416.4 280.6 416.4 278.8L416.4 278.8L416.4 254.1Q416.4 252.4 417.4 251.4Q418.3 250.4 419.9 250.4Q421.5 250.4 422.4 251.4Q423.4 252.4 423.4 254.1L423.4 254.1L423.4 256.4L423.6 256.4Q424.6 253.7 426.9 252.0Q429.3 250.4 432.4 250.4L432.4 250.4Q435.7 250.4 438.0 252.1Q440.2 253.7 441.1 256.7L441.1 256.7L441.3 256.7Q442.4 253.8 445.0 252.1Q447.5 250.4 450.9 250.4L450.9 250.4Q455.5 250.4 458.3 253.3Q461.1 256.1 461.1 260.8L461.1 260.8L461.1 278.8Q461.1 280.6 460.1 281.6Q459.1 282.7 457.4 282.7L457.4 282.7Q455.8 282.7 454.8 281.6Q453.8 280.6 453.8 278.8L453.8 278.8L453.8 262.6Q453.8 259.7 452.3 258.1Q450.9 256.6 448.2 256.6L448.2 256.6Q445.6 256.6 443.9 258.3Q442.3 260.1 442.3 262.9L442.3 262.9L442.3 278.8Q442.3 280.6 441.3 281.7Q440.4 282.7 438.7 282.7L438.7 282.7Q437.1 282.7 436.1 281.7Q435.2 280.6 435.2 278.8L435.2 278.8L435.2 262.2Q435.2 259.6 433.7 258.1Q432.2 256.6 429.7 256.6L429.7 256.6Q427.0 256.6 425.4 258.4Q423.7 260.3 423.7 263.1L423.7 263.1L423.7 278.8Q423.7 280.6 422.7 281.6Q421.7 282.7 420.0 282.7ZM470.5 282.7L470.5 282.7Q468.8 282.7 467.9 281.7Q466.9 280.6 466.9 278.8L466.9 278.8L466.9 254.1Q466.9 252.4 467.8 251.4Q468.8 250.4 470.4 250.4Q472.0 250.4 472.9 251.4Q473.9 252.4 473.9 254.1L473.9 254.1L473.9 256.4L474.0 256.4Q475.1 253.7 477.4 252.0Q479.7 250.4 482.9 250.4L482.9 250.4Q486.2 250.4 488.4 252.1Q490.7 253.7 491.6 256.7L491.6 256.7L491.7 256.7Q492.8 253.8 495.4 252.1Q498.0 250.4 501.4 250.4L501.4 250.4Q506.0 250.4 508.8 253.3Q511.5 256.1 511.5 260.8L511.5 260.8L511.5 278.8Q511.5 280.6 510.5 281.6Q509.5 282.7 507.9 282.7L507.9 282.7Q506.2 282.7 505.2 281.6Q504.2 280.6 504.2 278.8L504.2 278.8L504.2 262.6Q504.2 259.7 502.8 258.1Q501.3 256.6 498.7 256.6L498.7 256.6Q496.0 256.6 494.4 258.3Q492.8 260.1 492.8 262.9L492.8 262.9L492.8 278.8Q492.8 280.6 491.8 281.7Q490.8 282.7 489.2 282.7L489.2 282.7Q487.5 282.7 486.6 281.7Q485.7 280.6 485.7 278.8L485.7 278.8L485.7 262.2Q485.7 259.6 484.2 258.1Q482.7 256.6 480.2 256.6L480.2 256.6Q477.5 256.6 475.8 258.4Q474.2 260.3 474.2 263.1L474.2 263.1L474.2 278.8Q474.2 280.6 473.2 281.6Q472.2 282.7 470.5 282.7ZM526.5 282.6L526.5 282.6Q521.9 282.6 519.0 280.0Q516.1 277.4 516.1 273.2L516.1 273.2Q516.1 269.1 519.2 266.7Q522.2 264.3 527.9 263.9L527.9 263.9L536.1 263.4L536.1 261.2Q536.1 258.8 534.6 257.4Q533.1 256.1 530.3 256.1L530.3 256.1Q528.2 256.1 526.7 256.9Q525.2 257.7 523.8 259.7L523.8 259.7Q522.7 261.2 520.9 261.2L520.9 261.2Q519.5 261.2 518.7 260.4Q517.8 259.6 517.8 258.3L517.8 258.3Q517.8 257.3 518.3 256.3L518.3 256.3Q519.5 253.6 522.8 252.0Q526.2 250.4 530.6 250.4L530.6 250.4Q536.4 250.4 539.9 253.2Q543.3 256.0 543.3 260.7L543.3 260.7L543.3 279.0Q543.3 280.7 542.4 281.7Q541.4 282.7 539.8 282.7L539.8 282.7Q538.3 282.7 537.3 281.8Q536.4 280.9 536.3 279.3L536.3 279.3L536.3 277.1L536.2 277.1Q534.9 279.6 532.2 281.1Q529.5 282.6 526.5 282.6ZM528.7 277.1L528.7 277.1Q531.8 277.1 534.0 275.2Q536.1 273.3 536.1 270.6L536.1 270.6L536.1 268.2L528.9 268.6Q526.3 268.8 524.8 269.9Q523.4 271.1 523.4 272.9L523.4 272.9Q523.4 274.8 524.8 275.9Q526.3 277.1 528.7 277.1ZM555.5 281.7Q554.5 282.7 552.8 282.7Q551.2 282.7 550.2 281.7Q549.2 280.6 549.2 278.8L549.2 278.8L549.2 254.1Q549.2 252.4 550.1 251.4Q551.1 250.4 552.7 250.4Q554.3 250.4 555.3 251.4Q556.3 252.4 556.3 254.1L556.3 254.1L556.3 256.3L556.4 256.3Q559.1 250.4 566.1 250.4L566.1 250.4Q571.2 250.4 574.0 253.5Q576.9 256.6 576.9 262.0L576.9 262.0L576.9 278.8Q576.9 280.6 575.9 281.7Q574.9 282.7 573.2 282.7Q571.6 282.7 570.6 281.7Q569.6 280.6 569.6 278.8L569.6 278.8L569.6 263.5Q569.6 260.1 568.0 258.4Q566.4 256.6 563.4 256.6L563.4 256.6Q560.2 256.6 558.4 258.7Q556.5 260.7 556.5 264.1L556.5 264.1L556.5 278.8Q556.5 280.6 555.5 281.7ZM594.3 282.6L594.3 282.6Q588.4 282.6 584.9 278.2Q581.4 273.9 581.4 266.5L581.4 266.5Q581.4 259.2 584.9 254.8Q588.4 250.5 594.3 250.5L594.3 250.5Q597.6 250.5 600.1 252.0Q602.6 253.6 603.9 256.2L603.9 256.2L604.1 256.2L604.1 243.1Q604.1 241.2 605.1 240.2Q606.1 239.2 607.7 239.2Q609.4 239.2 610.4 240.2Q611.4 241.2 611.4 243.1L611.4 243.1L611.4 279.0Q611.4 280.7 610.4 281.7Q609.4 282.7 607.8 282.7L607.8 282.7Q606.1 282.7 605.1 281.7Q604.1 280.7 604.1 279.0L604.1 279.0L604.1 276.6L603.9 276.6Q602.8 279.4 600.3 281.0Q597.8 282.6 594.3 282.6ZM596.5 276.6L596.5 276.6Q600.0 276.6 602.0 273.9Q604.1 271.2 604.1 266.6L604.1 266.6Q604.1 262.0 602.0 259.2Q600.0 256.5 596.5 256.5L596.5 256.5Q593.0 256.5 590.9 259.2Q588.9 261.9 588.9 266.6L588.9 266.6Q588.9 271.2 590.9 273.9Q592.9 276.6 596.5 276.6ZM629.5 282.7L629.5 282.7Q624.6 282.7 621.3 281.0Q618.0 279.3 616.8 276.5L616.8 276.5Q616.5 275.7 616.5 275.0L616.5 275.0Q616.5 273.7 617.4 272.9Q618.2 272.1 619.6 272.1L619.6 272.1Q621.4 272.1 622.7 273.9L622.7 273.9Q624.0 275.8 625.6 276.6Q627.2 277.4 629.7 277.4L629.7 277.4Q632.3 277.4 633.9 276.4Q635.4 275.3 635.4 273.6L635.4 273.6Q635.4 272.2 634.4 271.3Q633.4 270.5 631.0 269.9L631.0 269.9L626.0 268.8Q616.9 266.8 616.9 259.9L616.9 259.9Q616.9 255.6 620.4 253.0Q623.9 250.4 629.6 250.4L629.6 250.4Q634.0 250.4 637.2 252.3Q640.4 254.1 641.2 256.9L641.2 256.9Q641.3 257.5 641.3 258.0L641.3 258.0Q641.3 259.1 640.6 259.9Q639.9 260.6 638.5 260.6L638.5 260.6Q636.7 260.6 635.7 259.2L635.7 259.2Q634.6 257.5 633.1 256.6Q631.6 255.7 629.4 255.7L629.4 255.7Q627.0 255.7 625.5 256.8Q624.0 257.8 624.0 259.5L624.0 259.5Q624.0 262.3 628.6 263.3L628.6 263.3L633.6 264.4Q638.5 265.5 640.6 267.4Q642.7 269.4 642.7 272.8L642.7 272.8Q642.7 277.3 639.1 280.0Q635.4 282.7 629.5 282.7Z M677.4 282.8L677.4 282.8Q669.5 282.8 664.8 278.5Q660.1 274.2 660.1 267.2L660.1 267.2L660.1 243.2Q660.1 241.4 661.1 240.3Q662.1 239.3 663.8 239.3L663.8 239.3Q665.6 239.3 666.6 240.3Q667.6 241.4 667.6 243.2L667.6 243.2L667.6 266.5Q667.6 270.9 670.2 273.5Q672.8 276.2 677.4 276.2Q682.1 276.2 684.7 273.5Q687.3 270.9 687.3 266.5L687.3 266.5L687.3 243.2Q687.3 241.4 688.3 240.3Q689.3 239.3 691.1 239.3L691.1 239.3Q692.8 239.3 693.8 240.3Q694.8 241.4 694.8 243.2L694.8 243.2L694.8 267.2Q694.8 274.2 690.1 278.5Q685.4 282.8 677.4 282.8ZM713.5 282.7L713.5 282.7Q708.7 282.7 705.4 281.0Q702.0 279.3 700.9 276.5L700.9 276.5Q700.6 275.7 700.6 275.0L700.6 275.0Q700.6 273.7 701.4 272.9Q702.3 272.1 703.6 272.1L703.6 272.1Q705.4 272.1 706.8 273.9L706.8 273.9Q708.1 275.8 709.7 276.6Q711.3 277.4 713.8 277.4L713.8 277.4Q716.4 277.4 717.9 276.4Q719.5 275.3 719.5 273.6L719.5 273.6Q719.5 272.2 718.5 271.3Q717.5 270.5 715.1 269.9L715.1 269.9L710.0 268.8Q701.0 266.8 701.0 259.9L701.0 259.9Q701.0 255.6 704.5 253.0Q707.9 250.4 713.7 250.4L713.7 250.4Q718.0 250.4 721.3 252.3Q724.5 254.1 725.2 256.9L725.2 256.9Q725.4 257.5 725.4 258.0L725.4 258.0Q725.4 259.1 724.6 259.9Q723.9 260.6 722.6 260.6L722.6 260.6Q720.7 260.6 719.8 259.2L719.8 259.2Q718.6 257.5 717.2 256.6Q715.7 255.7 713.5 255.7L713.5 255.7Q711.1 255.7 709.6 256.8Q708.1 257.8 708.1 259.5L708.1 259.5Q708.1 262.3 712.7 263.3L712.7 263.3L717.6 264.4Q722.5 265.5 724.7 267.4Q726.8 269.4 726.8 272.8L726.8 272.8Q726.8 277.3 723.1 280.0Q719.5 282.7 713.5 282.7ZM738.1 245.5Q736.9 246.7 735.2 246.7Q733.5 246.7 732.3 245.5Q731.1 244.3 731.1 242.7L731.1 242.7Q731.1 241.0 732.3 239.9Q733.5 238.7 735.2 238.7L735.2 238.7Q736.9 238.7 738.1 239.9Q739.3 241.0 739.3 242.7L739.3 242.7Q739.3 244.3 738.1 245.5ZM737.9 281.6Q736.9 282.7 735.2 282.7Q733.5 282.7 732.5 281.6Q731.6 280.6 731.6 278.8L731.6 278.8L731.6 254.2Q731.6 252.5 732.5 251.4Q733.5 250.4 735.2 250.4Q736.9 250.4 737.9 251.4Q738.8 252.5 738.8 254.3L738.8 254.3L738.8 278.8Q738.8 280.6 737.9 281.6ZM751.3 281.7Q750.2 282.7 748.6 282.7Q747.0 282.7 746.0 281.7Q745.0 280.6 745.0 278.8L745.0 278.8L745.0 254.1Q745.0 252.4 745.9 251.4Q746.8 250.4 748.5 250.4Q750.1 250.4 751.1 251.4Q752.1 252.4 752.1 254.1L752.1 254.1L752.1 256.3L752.2 256.3Q754.8 250.4 761.9 250.4L761.9 250.4Q767.0 250.4 769.8 253.5Q772.6 256.6 772.6 262.0L772.6 262.0L772.6 278.8Q772.6 280.6 771.6 281.7Q770.6 282.7 769.0 282.7Q767.4 282.7 766.3 281.7Q765.3 280.6 765.3 278.8L765.3 278.8L765.3 263.5Q765.3 260.1 763.8 258.4Q762.2 256.6 759.1 256.6L759.1 256.6Q756.0 256.6 754.1 258.7Q752.3 260.7 752.3 264.1L752.3 264.1L752.3 278.8Q752.3 280.6 751.3 281.7ZM791.8 293.8L791.8 293.8Q787.5 293.7 784.2 292.2Q780.9 290.7 779.2 288.1L779.2 288.1Q778.6 287.1 778.6 285.9L778.6 285.9Q778.6 284.7 779.5 283.9Q780.3 283.1 781.7 283.1L781.7 283.1Q783.1 283.1 784.3 284.3L784.3 284.3Q786.2 286.2 788.0 287.1Q789.7 287.9 791.9 288.0L791.9 288.0Q795.6 288.0 797.7 286.1Q799.8 284.2 799.8 281.1L799.8 281.1L799.8 276.2L799.7 276.2Q798.4 278.7 795.8 280.2Q793.2 281.8 789.9 281.8L789.9 281.8Q784.1 281.8 780.6 277.5Q777.2 273.3 777.2 266.2L777.2 266.2Q777.2 258.9 780.6 254.7Q784.1 250.5 790.1 250.5L790.1 250.5Q793.3 250.5 795.8 252.0Q798.3 253.6 799.7 256.3L799.7 256.3L799.8 256.3L799.8 254.1Q799.8 252.4 800.9 251.4Q801.9 250.4 803.5 250.4Q805.1 250.4 806.1 251.4Q807.1 252.4 807.1 254.1L807.1 254.1L807.1 281.1Q807.1 287.0 803.1 290.4Q799.0 293.8 791.8 293.8ZM792.2 276.1L792.2 276.1Q795.7 276.1 797.8 273.4Q799.9 270.8 799.9 266.2L799.9 266.2Q799.9 261.7 797.8 259.0Q795.7 256.3 792.2 256.3L792.2 256.3Q788.7 256.3 786.7 259.0Q784.6 261.7 784.6 266.2L784.6 266.2Q784.6 270.8 786.7 273.5Q788.7 276.1 792.2 276.1Z M849.6 282.1L829.6 282.1Q827.9 282.1 826.8 281.0Q825.8 280.0 825.8 278.2L825.8 278.2L825.8 243.2Q825.8 241.4 826.8 240.3Q827.9 239.3 829.6 239.3L829.6 239.3Q831.4 239.3 832.4 240.3Q833.4 241.4 833.4 243.2L833.4 243.2L833.4 275.7L849.6 275.7Q851.1 275.7 852.1 276.6Q853.0 277.4 853.0 278.9Q853.0 280.3 852.1 281.2Q851.2 282.1 849.6 282.1L849.6 282.1ZM866.4 282.6L866.4 282.6Q861.8 282.6 858.9 280.0Q856.0 277.4 856.0 273.2L856.0 273.2Q856.0 269.1 859.1 266.7Q862.1 264.3 867.8 263.9L867.8 263.9L876.0 263.4L876.0 261.2Q876.0 258.8 874.5 257.4Q873.0 256.1 870.2 256.1L870.2 256.1Q868.1 256.1 866.6 256.9Q865.1 257.7 863.7 259.7L863.7 259.7Q862.6 261.2 860.8 261.2L860.8 261.2Q859.4 261.2 858.6 260.4Q857.7 259.6 857.7 258.3L857.7 258.3Q857.7 257.3 858.2 256.3L858.2 256.3Q859.4 253.6 862.7 252.0Q866.1 250.4 870.5 250.4L870.5 250.4Q876.3 250.4 879.8 253.2Q883.3 256.0 883.3 260.7L883.3 260.7L883.3 279.0Q883.3 280.7 882.3 281.7Q881.3 282.7 879.7 282.7L879.7 282.7Q878.2 282.7 877.2 281.8Q876.3 280.9 876.2 279.3L876.2 279.3L876.2 277.1L876.1 277.1Q874.8 279.6 872.1 281.1Q869.4 282.6 866.4 282.6ZM868.6 277.1L868.6 277.1Q871.7 277.1 873.9 275.2Q876.0 273.3 876.0 270.6L876.0 270.6L876.0 268.2L868.8 268.6Q866.2 268.8 864.8 269.9Q863.3 271.1 863.3 272.9L863.3 272.9Q863.3 274.8 864.8 275.9Q866.2 277.1 868.6 277.1ZM895.4 281.6Q894.4 282.7 892.7 282.7Q891.1 282.7 890.1 281.6Q889.1 280.6 889.1 278.8L889.1 278.8L889.1 254.1Q889.1 252.4 890.1 251.4Q891.0 250.4 892.6 250.4L892.6 250.4Q894.1 250.4 895.1 251.4Q896.1 252.4 896.1 254.1L896.1 254.1L896.1 256.5L896.2 256.5Q896.8 253.8 898.7 252.1Q900.5 250.5 902.9 250.5L902.9 250.5Q904.6 250.5 905.4 251.3L905.4 251.3Q906.5 252.1 906.5 253.9L906.5 253.9Q906.5 255.6 905.4 256.5L905.4 256.5Q904.3 257.4 902.1 257.5L902.1 257.5Q896.4 257.5 896.4 263.9L896.4 263.9L896.4 278.8Q896.4 280.6 895.4 281.6ZM923.1 293.8L923.1 293.8Q918.8 293.7 915.4 292.2Q912.1 290.7 910.5 288.1L910.5 288.1Q909.9 287.1 909.9 285.9L909.9 285.9Q909.9 284.7 910.7 283.9Q911.6 283.1 913.0 283.1L913.0 283.1Q914.4 283.1 915.6 284.3L915.6 284.3Q917.5 286.2 919.3 287.1Q921.0 287.9 923.2 288.0L923.2 288.0Q926.8 288.0 929.0 286.1Q931.1 284.2 931.1 281.1L931.1 281.1L931.1 276.2L930.9 276.2Q929.7 278.7 927.1 280.2Q924.5 281.8 921.2 281.8L921.2 281.8Q915.4 281.8 911.9 277.5Q908.4 273.3 908.4 266.2L908.4 266.2Q908.4 258.9 911.9 254.7Q915.4 250.5 921.4 250.5L921.4 250.5Q924.6 250.5 927.1 252.0Q929.6 253.6 931.0 256.3L931.0 256.3L931.1 256.3L931.1 254.1Q931.1 252.4 932.1 251.4Q933.2 250.4 934.8 250.4Q936.4 250.4 937.4 251.4Q938.4 252.4 938.4 254.1L938.4 254.1L938.4 281.1Q938.4 287.0 934.3 290.4Q930.3 293.8 923.1 293.8ZM923.4 276.1L923.4 276.1Q927.0 276.1 929.1 273.4Q931.2 270.8 931.2 266.2L931.2 266.2Q931.2 261.7 929.0 259.0Q926.9 256.3 923.4 256.3L923.4 256.3Q920.0 256.3 918.0 259.0Q915.9 261.7 915.9 266.2L915.9 266.2Q915.9 270.8 918.0 273.5Q920.0 276.1 923.4 276.1ZM958.2 282.7L958.2 282.7Q951.0 282.7 947.1 278.5Q943.1 274.2 943.1 266.7L943.1 266.7Q943.1 259.2 947.1 254.8Q951.0 250.4 957.8 250.4L957.8 250.4Q964.1 250.4 968.1 254.4Q972.1 258.5 972.1 264.9L972.1 264.9Q972.1 266.5 971.2 267.4Q970.3 268.3 968.7 268.3L968.7 268.3L950.3 268.3L950.3 268.5Q950.3 272.4 952.5 274.8Q954.6 277.1 958.1 277.1L958.1 277.1Q960.6 277.1 962.3 276.1Q964.1 275.2 965.9 272.9L965.9 272.9Q966.9 271.8 968.3 271.8L968.3 271.8Q969.6 271.8 970.4 272.5Q971.3 273.3 971.3 274.6L971.3 274.6Q971.3 275.4 970.8 276.4L970.8 276.4Q969.2 279.4 965.9 281.0Q962.6 282.7 958.2 282.7ZM950.4 263.5L950.4 263.5L964.9 263.5Q964.8 260.1 962.8 258.1Q960.9 256.0 957.8 256.0Q954.7 256.0 952.7 258.1Q950.6 260.2 950.4 263.5Z M67.5 364.6L47.5 364.6Q45.7 364.6 44.7 363.5Q43.7 362.5 43.7 360.7L43.7 360.7L43.7 325.7Q43.7 323.9 44.7 322.8Q45.7 321.8 47.5 321.8L47.5 321.8Q49.3 321.8 50.3 322.8Q51.3 323.9 51.3 325.7L51.3 325.7L51.3 358.2L67.5 358.2Q69.0 358.2 70.0 359.1Q70.9 359.9 70.9 361.4Q70.9 362.8 70 363.7Q69.1 364.6 67.5 364.6L67.5 364.6ZM84.3 365.1L84.3 365.1Q79.7 365.1 76.8 362.5Q73.9 359.9 73.9 355.7L73.9 355.7Q73.9 351.6 77.0 349.2Q80.0 346.8 85.7 346.4L85.7 346.4L93.9 345.9L93.9 343.7Q93.9 341.3 92.4 339.9Q90.9 338.6 88.1 338.6L88.1 338.6Q86.0 338.6 84.5 339.4Q83.0 340.2 81.6 342.2L81.6 342.2Q80.5 343.7 78.7 343.7L78.7 343.7Q77.3 343.7 76.5 342.9Q75.6 342.1 75.6 340.8L75.6 340.8Q75.6 339.8 76.1 338.8L76.1 338.8Q77.3 336.1 80.6 334.5Q84.0 332.9 88.4 332.9L88.4 332.9Q94.2 332.9 97.7 335.7Q101.1 338.5 101.1 343.2L101.1 343.2L101.1 361.5Q101.1 363.2 100.2 364.2Q99.2 365.2 97.6 365.2L97.6 365.2Q96.1 365.2 95.1 364.3Q94.2 363.4 94.1 361.8L94.1 361.8L94.1 359.6L94.0 359.6Q92.6 362.1 90.0 363.6Q87.3 365.1 84.3 365.1ZM86.5 359.6L86.5 359.6Q89.6 359.6 91.8 357.7Q93.9 355.8 93.9 353.1L93.9 353.1L93.9 350.7L86.7 351.1Q84.1 351.3 82.6 352.4Q81.2 353.6 81.2 355.4L81.2 355.4Q81.2 357.3 82.6 358.4Q84.1 359.6 86.5 359.6ZM113.3 364.2Q112.3 365.2 110.6 365.2Q109.0 365.2 108.0 364.2Q107.0 363.1 107.0 361.3L107.0 361.3L107.0 336.6Q107.0 334.9 107.9 333.9Q108.9 332.9 110.5 332.9Q112.1 332.9 113.1 333.9Q114.1 334.9 114.1 336.6L114.1 336.6L114.1 338.8L114.2 338.8Q116.9 332.9 123.9 332.9L123.9 332.9Q129.0 332.9 131.8 336.0Q134.7 339.1 134.7 344.5L134.7 344.5L134.7 361.3Q134.7 363.1 133.7 364.2Q132.7 365.2 131.0 365.2Q129.4 365.2 128.4 364.2Q127.4 363.1 127.4 361.3L127.4 361.3L127.4 346.0Q127.4 342.6 125.8 340.9Q124.2 339.1 121.2 339.1L121.2 339.1Q118.0 339.1 116.2 341.2Q114.3 343.2 114.3 346.6L114.3 346.6L114.3 361.3Q114.3 363.1 113.3 364.2ZM153.9 376.3L153.9 376.3Q149.5 376.2 146.2 374.7Q142.9 373.2 141.3 370.6L141.3 370.6Q140.7 369.6 140.7 368.4L140.7 368.4Q140.7 367.2 141.5 366.4Q142.3 365.6 143.7 365.6L143.7 365.6Q145.1 365.6 146.4 366.8L146.4 366.8Q148.3 368.7 150.0 369.6Q151.8 370.4 153.9 370.5L153.9 370.5Q157.6 370.5 159.7 368.6Q161.8 366.7 161.8 363.6L161.8 363.6L161.8 358.7L161.7 358.7Q160.5 361.2 157.9 362.7Q155.3 364.3 152.0 364.3L152.0 364.3Q146.1 364.3 142.7 360.0Q139.2 355.8 139.2 348.7L139.2 348.7Q139.2 341.4 142.7 337.2Q146.1 333.0 152.1 333.0L152.1 333.0Q155.4 333.0 157.9 334.5Q160.4 336.1 161.8 338.8L161.8 338.8L161.9 338.8L161.9 336.6Q161.9 334.9 162.9 333.9Q163.9 332.9 165.5 332.9Q167.1 332.9 168.2 333.9Q169.2 334.9 169.2 336.6L169.2 336.6L169.2 363.6Q169.2 369.5 165.1 372.9Q161.0 376.3 153.9 376.3ZM154.2 358.6L154.2 358.6Q157.7 358.6 159.8 355.9Q161.9 353.3 161.9 348.7L161.9 348.7Q161.9 344.2 159.8 341.5Q157.7 338.8 154.2 338.8L154.2 338.8Q150.7 338.8 148.7 341.5Q146.7 344.2 146.7 348.7L146.7 348.7Q146.7 353.3 148.7 356.0Q150.7 358.6 154.2 358.6ZM186.0 365.1L186.0 365.1Q180.9 365.1 177.9 362.0Q175.0 359.0 175.0 353.6L175.0 353.6L175.0 336.7Q175.0 335.0 176.0 333.9Q177.0 332.9 178.6 332.9Q180.2 332.9 181.3 333.9Q182.3 335.0 182.3 336.8L182.3 336.8L182.3 352.1Q182.3 355.5 183.9 357.2Q185.5 359.0 188.5 359.0L188.5 359.0Q191.7 359.0 193.5 356.9Q195.4 354.9 195.4 351.5L195.4 351.5L195.4 336.7Q195.4 335.0 196.4 333.9Q197.4 332.9 199.0 332.9L199.0 332.9Q200.6 332.9 201.6 333.9Q202.7 335.0 202.7 336.8L202.7 336.8L202.7 361.5Q202.7 363.2 201.7 364.2Q200.8 365.2 199.2 365.2L199.2 365.2Q197.6 365.2 196.6 364.2Q195.6 363.2 195.6 361.5L195.6 361.5L195.6 359.2L195.5 359.2Q192.9 365.1 186.0 365.1ZM217.7 365.1L217.7 365.1Q213.2 365.1 210.3 362.5Q207.3 359.9 207.3 355.7L207.3 355.7Q207.3 351.6 210.4 349.2Q213.5 346.8 219.2 346.4L219.2 346.4L227.4 345.9L227.4 343.7Q227.4 341.3 225.8 339.9Q224.3 338.6 221.6 338.6L221.6 338.6Q219.4 338.6 217.9 339.4Q216.4 340.2 215.1 342.2L215.1 342.2Q214.0 343.7 212.1 343.7L212.1 343.7Q210.8 343.7 209.9 342.9Q209.0 342.1 209.0 340.8L209.0 340.8Q209.0 339.8 209.5 338.8L209.5 338.8Q210.7 336.1 214.1 334.5Q217.4 332.9 221.9 332.9L221.9 332.9Q227.6 332.9 231.1 335.7Q234.6 338.5 234.6 343.2L234.6 343.2L234.6 361.5Q234.6 363.2 233.6 364.2Q232.6 365.2 231.0 365.2L231.0 365.2Q229.5 365.2 228.6 364.3Q227.6 363.4 227.6 361.8L227.6 361.8L227.6 359.6L227.4 359.6Q226.1 362.1 223.4 363.6Q220.8 365.1 217.7 365.1ZM219.9 359.6L219.9 359.6Q223.0 359.6 225.2 357.7Q227.4 355.8 227.4 353.1L227.4 353.1L227.4 350.7L220.2 351.1Q217.5 351.3 216.1 352.4Q214.6 353.6 214.6 355.4L214.6 355.4Q214.6 357.3 216.1 358.4Q217.5 359.6 219.9 359.6ZM253.8 376.3L253.8 376.3Q249.5 376.2 246.2 374.7Q242.9 373.2 241.2 370.6L241.2 370.6Q240.6 369.6 240.6 368.4L240.6 368.4Q240.6 367.2 241.5 366.4Q242.3 365.6 243.7 365.6L243.7 365.6Q245.1 365.6 246.3 366.8L246.3 366.8Q248.2 368.7 250.0 369.6Q251.7 370.4 253.9 370.5L253.9 370.5Q257.6 370.5 259.7 368.6Q261.8 366.7 261.8 363.6L261.8 363.6L261.8 358.7L261.7 358.7Q260.4 361.2 257.8 362.7Q255.2 364.3 251.9 364.3L251.9 364.3Q246.1 364.3 242.6 360.0Q239.2 355.8 239.2 348.7L239.2 348.7Q239.2 341.4 242.6 337.2Q246.1 333.0 252.1 333.0L252.1 333.0Q255.3 333.0 257.8 334.5Q260.3 336.1 261.7 338.8L261.7 338.8L261.8 338.8L261.8 336.6Q261.8 334.9 262.9 333.9Q263.9 332.9 265.5 332.9Q267.1 332.9 268.1 333.9Q269.1 334.9 269.1 336.6L269.1 336.6L269.1 363.6Q269.1 369.5 265.1 372.9Q261.0 376.3 253.8 376.3ZM254.2 358.6L254.2 358.6Q257.7 358.6 259.8 355.9Q261.9 353.3 261.9 348.7L261.9 348.7Q261.9 344.2 259.8 341.5Q257.6 338.8 254.2 338.8L254.2 338.8Q250.7 338.8 248.7 341.5Q246.6 344.2 246.6 348.7L246.6 348.7Q246.6 353.3 248.7 356.0Q250.7 358.6 254.2 358.6ZM288.9 365.2L288.9 365.2Q281.8 365.2 277.8 361.0Q273.8 356.7 273.8 349.2L273.8 349.2Q273.8 341.7 277.8 337.3Q281.8 332.9 288.5 332.9L288.5 332.9Q294.8 332.9 298.8 336.9Q302.8 341.0 302.8 347.4L302.8 347.4Q302.8 349.0 301.9 349.9Q301.0 350.8 299.4 350.8L299.4 350.8L281.1 350.8L281.1 351.0Q281.1 354.9 283.2 357.3Q285.3 359.6 288.8 359.6L288.8 359.6Q291.3 359.6 293.1 358.6Q294.8 357.7 296.6 355.4L296.6 355.4Q297.6 354.3 299.0 354.3L299.0 354.3Q300.3 354.3 301.1 355.0Q302.0 355.8 302.0 357.1L302.0 357.1Q302.0 357.9 301.5 358.9L301.5 358.9Q299.9 361.9 296.6 363.5Q293.3 365.2 288.9 365.2ZM281.1 346.0L281.1 346.0L295.6 346.0Q295.5 342.6 293.5 340.6Q291.6 338.5 288.5 338.5Q285.4 338.5 283.4 340.6Q281.3 342.7 281.1 346.0Z M328.6 365.1L328.6 365.1Q324.0 365.1 321.1 362.5Q318.2 359.9 318.2 355.7L318.2 355.7Q318.2 351.6 321.3 349.2Q324.3 346.8 330.0 346.4L330.0 346.4L338.2 345.9L338.2 343.7Q338.2 341.3 336.7 339.9Q335.2 338.6 332.4 338.6L332.4 338.6Q330.3 338.6 328.8 339.4Q327.3 340.2 325.9 342.2L325.9 342.2Q324.8 343.7 323.0 343.7L323.0 343.7Q321.6 343.7 320.8 342.9Q319.9 342.1 319.9 340.8L319.9 340.8Q319.9 339.8 320.4 338.8L320.4 338.8Q321.6 336.1 324.9 334.5Q328.3 332.9 332.7 332.9L332.7 332.9Q338.5 332.9 342.0 335.7Q345.4 338.5 345.4 343.2L345.4 343.2L345.4 361.5Q345.4 363.2 344.5 364.2Q343.5 365.2 341.9 365.2L341.9 365.2Q340.4 365.2 339.4 364.3Q338.5 363.4 338.4 361.8L338.4 361.8L338.4 359.6L338.3 359.6Q337.0 362.1 334.3 363.6Q331.6 365.1 328.6 365.1ZM330.8 359.6L330.8 359.6Q333.9 359.6 336.1 357.7Q338.2 355.8 338.2 353.1L338.2 353.1L338.2 350.7L331.0 351.1Q328.4 351.3 326.9 352.4Q325.5 353.6 325.5 355.4L325.5 355.4Q325.5 357.3 326.9 358.4Q328.4 359.6 330.8 359.6ZM357.6 364.2Q356.6 365.2 354.9 365.2Q353.3 365.2 352.3 364.2Q351.3 363.1 351.3 361.3L351.3 361.3L351.3 336.6Q351.3 334.9 352.2 333.9Q353.2 332.9 354.8 332.9Q356.4 332.9 357.4 333.9Q358.4 334.9 358.4 336.6L358.4 336.6L358.4 338.8L358.5 338.8Q361.2 332.9 368.2 332.9L368.2 332.9Q373.3 332.9 376.1 336.0Q379.0 339.1 379.0 344.5L379.0 344.5L379.0 361.3Q379.0 363.1 378.0 364.2Q377.0 365.2 375.3 365.2Q373.7 365.2 372.7 364.2Q371.7 363.1 371.7 361.3L371.7 361.3L371.7 346.0Q371.7 342.6 370.1 340.9Q368.5 339.1 365.5 339.1L365.5 339.1Q362.3 339.1 360.5 341.2Q358.6 343.2 358.6 346.6L358.6 346.6L358.6 361.3Q358.6 363.1 357.6 364.2ZM396.4 365.1L396.4 365.1Q390.5 365.1 387.0 360.7Q383.5 356.4 383.5 349.0L383.5 349.0Q383.5 341.7 387.0 337.3Q390.5 333.0 396.4 333.0L396.4 333.0Q399.7 333.0 402.2 334.5Q404.7 336.1 406.0 338.7L406.0 338.7L406.2 338.7L406.2 325.6Q406.2 323.7 407.2 322.7Q408.2 321.7 409.8 321.7Q411.5 321.7 412.5 322.7Q413.5 323.7 413.5 325.6L413.5 325.6L413.5 361.5Q413.5 363.2 412.5 364.2Q411.5 365.2 409.9 365.2L409.9 365.2Q408.2 365.2 407.2 364.2Q406.2 363.2 406.2 361.5L406.2 361.5L406.2 359.1L406.0 359.1Q404.9 361.9 402.4 363.5Q399.9 365.1 396.4 365.1ZM398.6 359.1L398.6 359.1Q402.1 359.1 404.1 356.4Q406.2 353.7 406.2 349.1L406.2 349.1Q406.2 344.5 404.1 341.7Q402.1 339.0 398.6 339.0L398.6 339.0Q395.1 339.0 393.0 341.7Q391.0 344.4 391.0 349.1L391.0 349.1Q391.0 353.7 393.0 356.4Q395.0 359.1 398.6 359.1Z M451.8 364.1Q450.5 365.1 448.4 365.1Q446.3 365.1 445.0 364.1Q443.7 363.1 442.9 360.9L442.9 360.9L430.3 327.4Q429.9 326.4 429.9 325.3L429.9 325.3Q429.9 323.7 431.0 322.8Q432.1 321.8 433.8 321.8L433.8 321.8Q436.7 321.8 437.6 324.7L437.6 324.7L448.5 356.5L448.6 356.5L459.5 324.6Q459.9 323.1 460.8 322.5Q461.7 321.8 463.2 321.8L463.2 321.8Q464.9 321.8 465.9 322.8Q467.0 323.7 467.0 325.2L467.0 325.2Q467.0 326.2 466.6 327.3L466.6 327.3L453.9 361.0Q453.1 363.1 451.8 364.1ZM478.0 328.0Q476.8 329.2 475.1 329.2Q473.4 329.2 472.2 328.0Q471.0 326.8 471.0 325.2L471.0 325.2Q471.0 323.5 472.2 322.4Q473.4 321.2 475.1 321.2L475.1 321.2Q476.8 321.2 478.0 322.4Q479.2 323.5 479.2 325.2L479.2 325.2Q479.2 326.8 478.0 328.0ZM477.8 364.1Q476.8 365.2 475.1 365.2Q473.4 365.2 472.4 364.1Q471.5 363.1 471.5 361.3L471.5 361.3L471.5 336.7Q471.5 335.0 472.4 333.9Q473.4 332.9 475.1 332.9Q476.8 332.9 477.8 333.9Q478.8 335.0 478.8 336.8L478.8 336.8L478.8 361.3Q478.8 363.1 477.8 364.1ZM496.9 365.2L496.9 365.2Q492.0 365.2 488.7 363.5Q485.3 361.8 484.2 359.0L484.2 359.0Q483.9 358.2 483.9 357.5L483.9 357.5Q483.9 356.2 484.8 355.4Q485.6 354.6 487.0 354.6L487.0 354.6Q488.8 354.6 490.1 356.4L490.1 356.4Q491.4 358.3 493.0 359.1Q494.6 359.9 497.1 359.9L497.1 359.9Q499.7 359.9 501.2 358.9Q502.8 357.8 502.8 356.1L502.8 356.1Q502.8 354.7 501.8 353.8Q500.8 353.0 498.4 352.4L498.4 352.4L493.4 351.3Q484.3 349.3 484.3 342.4L484.3 342.4Q484.3 338.1 487.8 335.5Q491.2 332.9 497.0 332.9L497.0 332.9Q501.4 332.9 504.6 334.8Q507.8 336.6 508.5 339.4L508.5 339.4Q508.7 340.0 508.7 340.5L508.7 340.5Q508.7 341.6 508.0 342.4Q507.2 343.1 505.9 343.1L505.9 343.1Q504.0 343.1 503.1 341.7L503.1 341.7Q502.0 340.0 500.5 339.1Q499.0 338.2 496.8 338.2L496.8 338.2Q494.4 338.2 492.9 339.3Q491.4 340.3 491.4 342.0L491.4 342.0Q491.4 344.8 496.0 345.8L496.0 345.8L500.9 346.9Q505.8 348.0 508.0 349.9Q510.1 351.9 510.1 355.3L510.1 355.3Q510.1 359.8 506.5 362.5Q502.8 365.2 496.9 365.2ZM521.4 328.0Q520.2 329.2 518.5 329.2Q516.8 329.2 515.6 328.0Q514.5 326.8 514.5 325.2L514.5 325.2Q514.5 323.5 515.6 322.4Q516.8 321.2 518.5 321.2L518.5 321.2Q520.2 321.2 521.4 322.4Q522.6 323.5 522.6 325.2L522.6 325.2Q522.6 326.8 521.4 328.0ZM521.2 364.1Q520.2 365.2 518.5 365.2Q516.8 365.2 515.9 364.1Q514.9 363.1 514.9 361.3L514.9 361.3L514.9 336.7Q514.9 335.0 515.9 333.9Q516.8 332.9 518.5 332.9Q520.2 332.9 521.2 333.9Q522.2 335.0 522.2 336.8L522.2 336.8L522.2 361.3Q522.2 363.1 521.2 364.1ZM553.0 360.9Q548.9 365.2 542.0 365.2Q535.1 365.2 531.1 360.9Q527.0 356.6 527.0 349.1L527.0 349.1Q527.0 341.6 531.1 337.2Q535.2 332.9 542.0 332.9L542.0 332.9Q548.9 332.9 553.0 337.2Q557.1 341.6 557.1 349.1L557.1 349.1Q557.1 356.6 553.0 360.9ZM536.5 356.7Q538.5 359.4 542.0 359.4Q545.5 359.4 547.6 356.7Q549.6 354.0 549.6 349.1L549.6 349.1Q549.6 344.2 547.6 341.4Q545.5 338.7 542.0 338.7L542.0 338.7Q538.5 338.7 536.5 341.4Q534.4 344.2 534.4 349.1L534.4 349.1Q534.4 354.0 536.5 356.7ZM568.0 364.2Q567.0 365.2 565.4 365.2Q563.7 365.2 562.7 364.2Q561.7 363.1 561.7 361.3L561.7 361.3L561.7 336.6Q561.7 334.9 562.7 333.9Q563.6 332.9 565.2 332.9Q566.8 332.9 567.8 333.9Q568.8 334.9 568.8 336.6L568.8 336.6L568.8 338.8L569.0 338.8Q571.6 332.9 578.7 332.9L578.7 332.9Q583.8 332.9 586.6 336.0Q589.4 339.1 589.4 344.5L589.4 344.5L589.4 361.3Q589.4 363.1 588.4 364.2Q587.4 365.2 585.8 365.2Q584.1 365.2 583.1 364.2Q582.1 363.1 582.1 361.3L582.1 361.3L582.1 346.0Q582.1 342.6 580.5 340.9Q579.0 339.1 575.9 339.1L575.9 339.1Q572.8 339.1 570.9 341.2Q569.0 343.2 569.0 346.6L569.0 346.6L569.0 361.3Q569.0 363.1 568.0 364.2ZM612.0 350.7L598.7 350.7Q597.2 350.7 596.2 349.8Q595.2 348.9 595.2 347.4Q595.2 345.9 596.2 345.0Q597.2 344.2 598.7 344.2L598.7 344.2L612.0 344.2Q613.5 344.2 614.5 345.0Q615.4 345.9 615.4 347.4Q615.4 348.9 614.5 349.8Q613.5 350.7 612.0 350.7L612.0 350.7ZM645.9 364.6L626.0 364.6Q624.2 364.6 623.2 363.5Q622.2 362.5 622.2 360.7L622.2 360.7L622.2 325.7Q622.2 323.9 623.2 322.8Q624.2 321.8 626.0 321.8L626.0 321.8Q627.8 321.8 628.8 322.8Q629.7 323.9 629.7 325.7L629.7 325.7L629.7 358.2L645.9 358.2Q647.5 358.2 648.5 359.1Q649.4 359.9 649.4 361.4Q649.4 362.8 648.5 363.7Q647.5 364.6 645.9 364.6L645.9 364.6ZM662.7 365.1L662.7 365.1Q658.2 365.1 655.3 362.5Q652.4 359.9 652.4 355.7L652.4 355.7Q652.4 351.6 655.4 349.2Q658.5 346.8 664.2 346.4L664.2 346.4L672.4 345.9L672.4 343.7Q672.4 341.3 670.9 339.9Q669.3 338.6 666.6 338.6L666.6 338.6Q664.4 338.6 662.9 339.4Q661.4 340.2 660.1 342.2L660.1 342.2Q659.0 343.7 657.1 343.7L657.1 343.7Q655.8 343.7 654.9 342.9Q654.1 342.1 654.1 340.8L654.1 340.8Q654.1 339.8 654.6 338.8L654.6 338.8Q655.7 336.1 659.1 334.5Q662.4 332.9 666.9 332.9L666.9 332.9Q672.7 332.9 676.1 335.7Q679.6 338.5 679.6 343.2L679.6 343.2L679.6 361.5Q679.6 363.2 678.6 364.2Q677.6 365.2 676.1 365.2L676.1 365.2Q674.5 365.2 673.6 364.3Q672.7 363.4 672.6 361.8L672.6 361.8L672.6 359.6L672.4 359.6Q671.1 362.1 668.4 363.6Q665.8 365.1 662.7 365.1ZM665.0 359.6L665.0 359.6Q668.1 359.6 670.2 357.7Q672.4 355.8 672.4 353.1L672.4 353.1L672.4 350.7L665.2 351.1Q662.6 351.3 661.1 352.4Q659.7 353.6 659.7 355.4L659.7 355.4Q659.7 357.3 661.1 358.4Q662.6 359.6 665.0 359.6ZM691.8 364.2Q690.7 365.2 689.1 365.2Q687.5 365.2 686.5 364.2Q685.5 363.1 685.5 361.3L685.5 361.3L685.5 336.6Q685.5 334.9 686.4 333.9Q687.3 332.9 689.0 332.9Q690.6 332.9 691.6 333.9Q692.6 334.9 692.6 336.6L692.6 336.6L692.6 338.8L692.7 338.8Q695.3 332.9 702.4 332.9L702.4 332.9Q707.5 332.9 710.3 336.0Q713.1 339.1 713.1 344.5L713.1 344.5L713.1 361.3Q713.1 363.1 712.1 364.2Q711.1 365.2 709.5 365.2Q707.9 365.2 706.8 364.2Q705.8 363.1 705.8 361.3L705.8 361.3L705.8 346.0Q705.8 342.6 704.3 340.9Q702.7 339.1 699.6 339.1L699.6 339.1Q696.5 339.1 694.6 341.2Q692.8 343.2 692.8 346.6L692.8 346.6L692.8 361.3Q692.8 363.1 691.8 364.2ZM732.3 376.3L732.3 376.3Q728.0 376.2 724.7 374.7Q721.4 373.2 719.7 370.6L719.7 370.6Q719.1 369.6 719.1 368.4L719.1 368.4Q719.1 367.2 720.0 366.4Q720.8 365.6 722.2 365.6L722.2 365.6Q723.6 365.6 724.8 366.8L724.8 366.8Q726.7 368.7 728.5 369.6Q730.2 370.4 732.4 370.5L732.4 370.5Q736.1 370.5 738.2 368.6Q740.3 366.7 740.3 363.6L740.3 363.6L740.3 358.7L740.2 358.7Q738.9 361.2 736.3 362.7Q733.7 364.3 730.4 364.3L730.4 364.3Q724.6 364.3 721.1 360.0Q717.7 355.8 717.7 348.7L717.7 348.7Q717.7 341.4 721.1 337.2Q724.6 333.0 730.6 333.0L730.6 333.0Q733.8 333.0 736.3 334.5Q738.8 336.1 740.2 338.8L740.2 338.8L740.3 338.8L740.3 336.6Q740.3 334.9 741.4 333.9Q742.4 332.9 744.0 332.9Q745.6 332.9 746.6 333.9Q747.6 334.9 747.6 336.6L747.6 336.6L747.6 363.6Q747.6 369.5 743.6 372.9Q739.5 376.3 732.3 376.3ZM732.7 358.6L732.7 358.6Q736.2 358.6 738.3 355.9Q740.4 353.3 740.4 348.7L740.4 348.7Q740.4 344.2 738.3 341.5Q736.2 338.8 732.7 338.8L732.7 338.8Q729.2 338.8 727.2 341.5Q725.1 344.2 725.1 348.7L725.1 348.7Q725.1 353.3 727.2 356.0Q729.2 358.6 732.7 358.6ZM764.5 365.1L764.5 365.1Q759.4 365.1 756.4 362.0Q753.4 359.0 753.4 353.6L753.4 353.6L753.4 336.7Q753.4 335.0 754.4 333.9Q755.4 332.9 757.1 332.9Q758.7 332.9 759.7 333.9Q760.7 335.0 760.7 336.8L760.7 336.8L760.7 352.1Q760.7 355.5 762.3 357.2Q763.9 359.0 767.0 359.0L767.0 359.0Q770.1 359.0 772.0 356.9Q773.8 354.9 773.8 351.5L773.8 351.5L773.8 336.7Q773.8 335.0 774.8 333.9Q775.8 332.9 777.5 332.9L777.5 332.9Q779.1 332.9 780.1 333.9Q781.1 335.0 781.1 336.8L781.1 336.8L781.1 361.5Q781.1 363.2 780.2 364.2Q779.2 365.2 777.6 365.2L777.6 365.2Q776.0 365.2 775.1 364.2Q774.1 363.2 774.1 361.5L774.1 361.5L774.1 359.2L773.9 359.2Q771.4 365.1 764.5 365.1ZM796.2 365.1L796.2 365.1Q791.6 365.1 788.7 362.5Q785.8 359.9 785.8 355.7L785.8 355.7Q785.8 351.6 788.9 349.2Q791.9 346.8 797.6 346.4L797.6 346.4L805.8 345.9L805.8 343.7Q805.8 341.3 804.3 339.9Q802.8 338.6 800.0 338.6L800.0 338.6Q797.9 338.6 796.4 339.4Q794.9 340.2 793.5 342.2L793.5 342.2Q792.4 343.7 790.6 343.7L790.6 343.7Q789.2 343.7 788.4 342.9Q787.5 342.1 787.5 340.8L787.5 340.8Q787.5 339.8 788.0 338.8L788.0 338.8Q789.2 336.1 792.5 334.5Q795.9 332.9 800.3 332.9L800.3 332.9Q806.1 332.9 809.6 335.7Q813.1 338.5 813.1 343.2L813.1 343.2L813.1 361.5Q813.1 363.2 812.1 364.2Q811.1 365.2 809.5 365.2L809.5 365.2Q808.0 365.2 807.1 364.3Q806.1 363.4 806.0 361.8L806.0 361.8L806.0 359.6L805.9 359.6Q804.6 362.1 801.9 363.6Q799.2 365.1 796.2 365.1ZM798.4 359.6L798.4 359.6Q801.5 359.6 803.7 357.7Q805.8 355.8 805.8 353.1L805.8 353.1L805.8 350.7L798.6 351.1Q796.0 351.3 794.6 352.4Q793.1 353.6 793.1 355.4L793.1 355.4Q793.1 357.3 794.6 358.4Q796.0 359.6 798.4 359.6ZM832.3 376.3L832.3 376.3Q827.9 376.2 824.6 374.7Q821.3 373.2 819.7 370.6L819.7 370.6Q819.1 369.6 819.1 368.4L819.1 368.4Q819.1 367.2 819.9 366.4Q820.8 365.6 822.1 365.6L822.1 365.6Q823.5 365.6 824.8 366.8L824.8 366.8Q826.7 368.7 828.4 369.6Q830.2 370.4 832.4 370.5L832.4 370.5Q836.0 370.5 838.1 368.6Q840.3 366.7 840.3 363.6L840.3 363.6L840.3 358.7L840.1 358.7Q838.9 361.2 836.3 362.7Q833.7 364.3 830.4 364.3L830.4 364.3Q824.5 364.3 821.1 360.0Q817.6 355.8 817.6 348.7L817.6 348.7Q817.6 341.4 821.1 337.2Q824.5 333.0 830.5 333.0L830.5 333.0Q833.8 333.0 836.3 334.5Q838.8 336.1 840.2 338.8L840.2 338.8L840.3 338.8L840.3 336.6Q840.3 334.9 841.3 333.9Q842.4 332.9 844.0 332.9Q845.6 332.9 846.6 333.9Q847.6 334.9 847.6 336.6L847.6 336.6L847.6 363.6Q847.6 369.5 843.5 372.9Q839.5 376.3 832.3 376.3ZM832.6 358.6L832.6 358.6Q836.1 358.6 838.2 355.9Q840.3 353.3 840.3 348.7L840.3 348.7Q840.3 344.2 838.2 341.5Q836.1 338.8 832.6 338.8L832.6 338.8Q829.2 338.8 827.1 341.5Q825.1 344.2 825.1 348.7L825.1 348.7Q825.1 353.3 827.1 356.0Q829.2 358.6 832.6 358.6ZM867.3 365.2L867.3 365.2Q860.2 365.2 856.2 361.0Q852.3 356.7 852.3 349.2L852.3 349.2Q852.3 341.7 856.2 337.3Q860.2 332.9 866.9 332.9L866.9 332.9Q873.3 332.9 877.3 336.9Q881.2 341.0 881.2 347.4L881.2 347.4Q881.2 349.0 880.3 349.9Q879.4 350.8 877.8 350.8L877.8 350.8L859.5 350.8L859.5 351.0Q859.5 354.9 861.6 357.3Q863.7 359.6 867.3 359.6L867.3 359.6Q869.7 359.6 871.5 358.6Q873.3 357.7 875.0 355.4L875.0 355.4Q876.1 354.3 877.5 354.3L877.5 354.3Q878.8 354.3 879.6 355.0Q880.4 355.8 880.4 357.1L880.4 357.1Q880.4 357.9 879.9 358.9L879.9 358.9Q878.4 361.9 875.1 363.5Q871.8 365.2 867.3 365.2ZM859.6 346.0L859.6 346.0L874.1 346.0Q874.0 342.6 872.0 340.6Q870.0 338.5 867.0 338.5Q863.9 338.5 861.8 340.6Q859.8 342.7 859.6 346.0Z M904.6 364.1Q903.7 365.1 902.1 365.1Q900.4 365.1 899.6 364.1Q898.7 363.2 898.7 361.5L898.7 361.5L898.7 326.6Q898.7 324.4 900.0 323.1Q901.3 321.8 903.5 321.8L903.5 321.8Q905.5 321.8 906.7 322.7Q907.9 323.6 908.7 325.7L908.7 325.7L920.4 354.2L920.6 354.2L932.2 325.7Q933.1 323.7 934.3 322.7Q935.5 321.8 937.5 321.8L937.5 321.8Q939.7 321.8 941.0 323.1Q942.3 324.4 942.3 326.6L942.3 326.6L942.3 361.5Q942.3 363.2 941.4 364.1Q940.5 365.1 938.9 365.1Q937.3 365.1 936.4 364.1Q935.5 363.2 935.5 361.5L935.5 361.5L935.5 334.6L935.3 334.6L924.1 361.8Q923.0 364.3 920.5 364.3L920.5 364.3Q917.9 364.3 916.9 361.8L916.9 361.8L905.7 334.6L905.5 334.6L905.5 361.5Q905.5 363.2 904.6 364.1ZM973.7 360.9Q969.6 365.2 962.8 365.2Q955.9 365.2 951.8 360.9Q947.7 356.6 947.7 349.1L947.7 349.1Q947.7 341.6 951.8 337.2Q955.9 332.9 962.8 332.9L962.8 332.9Q969.6 332.9 973.7 337.2Q977.8 341.6 977.8 349.1L977.8 349.1Q977.8 356.6 973.7 360.9ZM957.2 356.7Q959.2 359.4 962.8 359.4Q966.3 359.4 968.3 356.7Q970.4 354.0 970.4 349.1L970.4 349.1Q970.4 344.2 968.3 341.4Q966.3 338.7 962.8 338.7L962.8 338.7Q959.3 338.7 957.2 341.4Q955.1 344.2 955.1 349.1L955.1 349.1Q955.1 354.0 957.2 356.7ZM994.1 365.1L994.1 365.1Q988.2 365.1 984.7 360.7Q981.2 356.4 981.2 349.0L981.2 349.0Q981.2 341.7 984.7 337.3Q988.2 333.0 994.1 333.0L994.1 333.0Q997.4 333.0 999.9 334.5Q1002.4 336.1 1003.7 338.7L1003.7 338.7L1003.9 338.7L1003.9 325.6Q1003.9 323.7 1004.9 322.7Q1005.9 321.7 1007.5 321.7Q1009.1 321.7 1010.2 322.7Q1011.2 323.7 1011.2 325.6L1011.2 325.6L1011.2 361.5Q1011.2 363.2 1010.2 364.2Q1009.2 365.2 1007.6 365.2L1007.6 365.2Q1005.9 365.2 1004.9 364.2Q1003.9 363.2 1003.9 361.5L1003.9 361.5L1003.9 359.1L1003.7 359.1Q1002.5 361.9 1000.1 363.5Q997.6 365.1 994.1 365.1ZM996.3 359.1L996.3 359.1Q999.7 359.1 1001.8 356.4Q1003.9 353.7 1003.9 349.1L1003.9 349.1Q1003.9 344.5 1001.8 341.7Q999.7 339.0 996.3 339.0L996.3 339.0Q992.8 339.0 990.7 341.7Q988.7 344.4 988.7 349.1L988.7 349.1Q988.7 353.7 990.7 356.4Q992.7 359.1 996.3 359.1ZM1031.1 365.2L1031.1 365.2Q1024.0 365.2 1020.0 361.0Q1016.0 356.7 1016.0 349.2L1016.0 349.2Q1016.0 341.7 1020.0 337.3Q1024.0 332.9 1030.7 332.9L1030.7 332.9Q1037.0 332.9 1041.0 336.9Q1045.0 341.0 1045.0 347.4L1045.0 347.4Q1045.0 349.0 1044.1 349.9Q1043.2 350.8 1041.6 350.8L1041.6 350.8L1023.3 350.8L1023.3 351.0Q1023.3 354.9 1025.4 357.3Q1027.5 359.6 1031.0 359.6L1031.0 359.6Q1033.5 359.6 1035.3 358.6Q1037.0 357.7 1038.8 355.4L1038.8 355.4Q1039.8 354.3 1041.3 354.3L1041.3 354.3Q1042.5 354.3 1043.3 355.0Q1044.2 355.8 1044.2 357.1L1044.2 357.1Q1044.2 357.9 1043.7 358.9L1043.7 358.9Q1042.1 361.9 1038.8 363.5Q1035.5 365.2 1031.1 365.2ZM1023.3 346.0L1023.3 346.0L1037.8 346.0Q1037.7 342.6 1035.7 340.6Q1033.8 338.5 1030.7 338.5Q1027.6 338.5 1025.6 340.6Q1023.5 342.7 1023.3 346.0ZM1056.2 364.2Q1055.2 365.2 1053.5 365.2Q1051.9 365.2 1050.9 364.2Q1049.9 363.1 1049.9 361.3L1049.9 361.3L1049.9 325.6Q1049.9 323.7 1050.9 322.7Q1051.9 321.7 1053.5 321.7Q1055.2 321.7 1056.2 322.7Q1057.2 323.7 1057.2 325.6L1057.2 325.6L1057.2 361.3Q1057.2 363.1 1056.2 364.2ZM1075.4 365.2L1075.4 365.2Q1070.5 365.2 1067.2 363.5Q1063.8 361.8 1062.7 359.0L1062.7 359.0Q1062.4 358.2 1062.4 357.5L1062.4 357.5Q1062.4 356.2 1063.3 355.4Q1064.1 354.6 1065.4 354.6L1065.4 354.6Q1067.3 354.6 1068.6 356.4L1068.6 356.4Q1069.9 358.3 1071.5 359.1Q1073.1 359.9 1075.6 359.9L1075.6 359.9Q1078.2 359.9 1079.7 358.9Q1081.3 357.8 1081.3 356.1L1081.3 356.1Q1081.3 354.7 1080.3 353.8Q1079.3 353.0 1076.9 352.4L1076.9 352.4L1071.9 351.3Q1062.8 349.3 1062.8 342.4L1062.8 342.4Q1062.8 338.1 1066.3 335.5Q1069.7 332.9 1075.5 332.9L1075.5 332.9Q1079.9 332.9 1083.1 334.8Q1086.3 336.6 1087.0 339.4L1087.0 339.4Q1087.2 340.0 1087.2 340.5L1087.2 340.5Q1087.2 341.6 1086.5 342.4Q1085.7 343.1 1084.4 343.1L1084.4 343.1Q1082.5 343.1 1081.6 341.7L1081.6 341.7Q1080.4 340.0 1079.0 339.1Q1077.5 338.2 1075.3 338.2L1075.3 338.2Q1072.9 338.2 1071.4 339.3Q1069.9 340.3 1069.9 342.0L1069.9 342.0Q1069.9 344.8 1074.5 345.8L1074.5 345.8L1079.4 346.9Q1084.3 348.0 1086.5 349.9Q1088.6 351.9 1088.6 355.3L1088.6 355.3Q1088.6 359.8 1084.9 362.5Q1081.3 365.2 1075.4 365.2Z "/><defs><clipPath id="satori_bc-id-0-1"><rect x="0" y="441" width="1200" height="189"/></clipPath></defs><mask id="satori_om-id-0-1"><rect x="0" y="442" width="1200" height="188" fill="#fff"/><path width="1200" height="189" fill="none" stroke="#000" stroke-width="2" d="M0,441 A0,0 0 0 1 0,441 h1200 A0,0 0 0 1 1200,441"/></mask><path width="1200" height="189" clip-path="url(#satori_bc-id-0-1)" fill="none" stroke="#dbdbdb" stroke-width="2" d="M0,441 A0,0 0 0 1 0,441 h1200 A0,0 0 0 1 1200,441"/><mask id="satori_om-id-0-1-0"><rect x="40" y="482" width="389" height="108" fill="#fff"/></mask><clipPath id="satori_cp-id-0-1-0-0"><rect x="40" y="504" width="64" height="64"/></clipPath><mask id="satori_om-id-0-1-0-0"><rect x="40" y="504" width="64" height="64" fill="#fff"/></mask><image x="40" y="504" width="64" height="64" href="data:image/svg+xml;utf8,%3Csvg  xmlns=%22http://www.w3.org/2000/svg%22 width=%2264%22 height=%2264%22 viewBox=%220 0 128 128%22%3E%3Cpath fill=%22%23224d67%22 d=%22M22.5 14.8c2.9 1.3 99 44 99 44c2.7 1.2 2.9 3.1 2 12.4c-1 10.5-1.9 37.8-40.2 42.9c-24.6 3.2-55.9-4.3-70.9-27.2C-6 58.8 11 23.4 14.8 17.7c2.4-3.5 4.8-4.2 7.7-2.9%22%3E%3C/path%3E%3Cpath fill=%22%23f0f4c3%22 d=%22M121.5 58.8c-.3-.2-92-40.8-98.9-43.9C9.6 31.5-3.8 76 27.9 96.2c33.6 21.5 78.7-10.2 93.6-37.4%22%3E%3C/path%3E%3Cpath fill=%22%23f0f4c3%22 d=%22M117.7 57c-.3-.2-86.7-38.4-93.2-41.3c-12.2 15.5-23.9 59.1 5.7 78c31.4 20.2 73.6-11.2 87.5-36.7%22%3E%3C/path%3E%3Cpath fill=%22%23cb2a42%22 d=%22M56.2 37.6L19.5 48.2c-2.5.8-4.4 2.8-5 5.3c-1.9 8.5.8 23.3 8.9 29.8c3.5 2.7 8.6 1.8 10.8-2.1L58.5 41c1.3-1.7.5-4.2-2.3-3.4m14.3 2.9s14.6 30.1 16 33s6.3 4.7 9.9 2.8c10.7-5.6 15.5-12.4 19.2-20.2c-8.9-3.9-42.4-18.8-42.4-18.8c-2.4-1.1-4 .6-2.7 3.2m-8.6 1.9C60.3 45.1 39.5 81 37.6 84.1c-1.9 3.2-.7 7.5 2.7 9.2c12.3 6.5 30.9.4 39.6-7c2.2-1.9 4.5-5.1 3.2-8.2S68.9 44.6 67.8 42.3c-1.2-2.7-4.1-2.8-5.9.1%22%3E%3C/path%3E%3Cpath fill=%22%23f0f4c3%22 d=%22M52.2 42.2c-1.4.4-10.1 3-11.1 3.4c-1.4.5-2.2 1.7-1.9 2.5c.3.9 1.7 1.1 3.1.6c.8-.3 7.1-3.9 9.5-5.2c-3.1 2.4-10.2 9.4-11.1 10.3c-1.4 1.5-1.7 3.4-.8 4.3c1 .9 2.9.5 4.3-1c1.2-1.3 8.5-12.8 9.1-13.9s.4-1.4-1.1-1m10.1 16.4c0-2.2 1.4-10.3 1.8-12.3c.4-1.6 1.5-1.8 1.8.5s1.7 9.7 1.7 11.8s-1.2 3.3-2.7 3.3c-1.4 0-2.6-1.1-2.6-3.3M79.9 49c-1.2-1.8-3.3-4.9-4.1-6.1c-.7-1.2.1-2.1 1.8-.9s4 2.9 5.4 4c1.6 1.3 1.9 3 .8 4s-2.7.8-3.9-1%22%3E%3C/path%3E%3Cellipse cx=%2287.3%22 cy=%22103.12%22 fill=%22%23cb2a42%22 rx=%223.4%22 ry=%222.3%22 transform=%22rotate(-27.098 87.298 103.126)%22%3E%3C/ellipse%3E%3Cellipse cx=%2298.89%22 cy=%22103.82%22 fill=%22%23cb2a42%22 rx=%223.4%22 ry=%222.3%22 transform=%22rotate(-30.642 98.887 103.818)%22%3E%3C/ellipse%3E%3Cellipse cx=%22102.02%22 cy=%2293.8%22 fill=%22%23cb2a42%22 rx=%223.4%22 ry=%222.3%22 transform=%22rotate(-37.16 102.017 93.797)%22%3E%3C/ellipse%3E%3Cpath fill=%22%23cb2a42%22 d=%22M57.6 30.3c-8.3-3.7-24.4-10.7-29.6-13c-3.6 2.2-9.7 11.4-11.2 21.2c-.6 3.6 1.7 5.9 5.3 4.9c0 0 33.7-9.3 35.3-9.7c1.6-.5 2-2.6.2-3.4%22%3E%3C/path%3E%3C/svg%3E" preserveAspectRatio="none" clip-path="url(#satori_cp-id-0-1-0-0)" mask="url(#satori_om-id-0-1-0-0)"/><mask id="satori_om-id-0-1-0-0-0"><rect x="40" y="504" width="0" height="64" fill="#fff"/></mask><mask id="satori_om-id-0-1-0-0-1"><rect x="40" y="504" width="0" height="64" fill="#fff"/></mask><mask id="satori_om-id-0-1-0-0-2"><rect x="40" y="504" width="0" height="64" fill="#fff"/></mask><mask id="satori_om-id-0-1-0-0-3"><rect x="40" y="504" width="0" height="64" fill="#fff"/></mask><mask id="satori_om-id-0-1-0-0-4"><rect x="40" y="504" width="0" height="64" fill="#fff"/></mask><mask id="satori_om-id-0-1-0-0-5"><rect x="40" y="504" width="0" height="64" fill="#fff"/></mask><mask id="satori_om-id-0-1-0-0-6"><rect x="40" y="504" width="0" height="64" fill="#fff"/></mask><mask id="satori_om-id-0-1-0-0-7"><rect x="40" y="504" width="0" height="64" fill="#fff"/></mask><mask id="satori_om-id-0-1-0-0-8"><rect x="40" y="504" width="0" height="64" fill="#fff"/></mask><mask id="satori_om-id-0-1-0-1"><rect x="116" y="512" width="313" height="48" fill="#fff"/></mask><path fill="#545454" d="M133.0 553.6L133.0 553.6Q126.5 553.6 122.7 550.2Q118.8 546.7 118.8 541.1L118.8 541.1L118.8 522.5Q118.8 520.7 119.8 519.7Q120.7 518.8 122.4 518.8Q124.0 518.8 125.0 519.7Q125.9 520.7 125.9 522.5L125.9 522.5L125.9 540.4Q125.9 543.7 127.8 545.6Q129.6 547.6 133.0 547.6L133.0 547.6Q136.3 547.6 138.2 545.6Q140.1 543.7 140.1 540.4L140.1 540.4L140.1 522.5Q140.1 520.7 141.0 519.7Q141.9 518.8 143.6 518.8Q145.3 518.8 146.2 519.7Q147.1 520.7 147.1 522.5L147.1 522.5L147.1 541.1Q147.1 546.7 143.3 550.2Q139.4 553.6 133.0 553.6ZM158.9 552.6Q158.0 553.6 156.3 553.6Q154.6 553.6 153.7 552.6Q152.8 551.6 152.8 549.9L152.8 549.9L152.8 522.9Q152.8 521.2 153.7 520.2Q154.6 519.2 156.3 519.2L156.3 519.2L166.6 519.2Q172.4 519.2 175.6 522.1Q178.9 525.0 178.9 530.0L178.9 530.0Q178.9 533.2 177.3 535.8Q175.8 538.3 173.0 539.4L173.0 539.4L177.9 547.9Q178.7 549.2 178.7 550.3L178.7 550.3Q178.7 551.7 177.7 552.6Q176.7 553.6 175.1 553.6L175.1 553.6Q173.8 553.6 173.1 553.0Q172.4 552.5 171.5 550.9L171.5 550.9L165.9 540.7L159.9 540.7L159.9 549.9Q159.9 551.6 158.9 552.6ZM159.9 524.8L159.9 535.6L165.9 535.6Q168.6 535.6 170.1 534.1Q171.6 532.7 171.6 530.2L171.6 530.2Q171.6 527.7 170.0 526.2Q168.5 524.8 165.9 524.8L165.9 524.8L159.9 524.8ZM196.2 542.3L186.4 542.3Q185.0 542.3 184.1 541.5Q183.2 540.7 183.2 539.3Q183.2 537.9 184.1 537.1Q185.0 536.3 186.4 536.3L186.4 536.3L196.2 536.3Q197.6 536.3 198.5 537.1Q199.4 537.9 199.4 539.3Q199.4 540.7 198.5 541.5Q197.6 542.3 196.2 542.3L196.2 542.3ZM210.9 552.6Q209.9 553.6 208.3 553.6Q206.6 553.6 205.6 552.6Q204.7 551.6 204.7 549.9L204.7 549.9L204.7 522.9Q204.7 521.2 205.6 520.2Q206.6 519.2 208.3 519.2L208.3 519.2L218.6 519.2Q224.4 519.2 227.6 522.1Q230.8 525.0 230.8 530.0L230.8 530.0Q230.8 533.2 229.3 535.8Q227.8 538.3 225.0 539.4L225.0 539.4L229.9 547.9Q230.6 549.2 230.6 550.3L230.6 550.3Q230.6 551.7 229.6 552.6Q228.6 553.6 227.0 553.6L227.0 553.6Q225.8 553.6 225.0 553.0Q224.3 552.5 223.4 550.9L223.4 550.9L217.8 540.7L211.8 540.7L211.8 549.9Q211.8 551.6 210.9 552.6ZM211.8 524.8L211.8 535.6L217.9 535.6Q220.6 535.6 222.0 534.1Q223.5 532.7 223.5 530.2L223.5 530.2Q223.5 527.7 222.0 526.2Q220.4 524.8 217.8 524.8L217.8 524.8L211.8 524.8ZM237.7 553.5L237.7 553.5Q236.0 553.5 235.1 552.6Q234.1 551.7 234.1 550.2L234.1 550.2Q234.1 549.3 234.6 547.9L234.6 547.9L243.8 522.8Q244.6 520.7 245.8 519.7Q247.1 518.8 249.1 518.8L249.1 518.8Q251.2 518.8 252.5 519.7Q253.8 520.7 254.5 522.8L254.5 522.8L263.8 547.9Q264.3 549.2 264.3 550.2L264.3 550.2Q264.3 551.6 263.3 552.6Q262.3 553.5 260.7 553.5L260.7 553.5Q259.2 553.5 258.4 552.8Q257.5 552.1 257.0 550.4L257.0 550.4L255.3 545.0L243.1 545.0L241.3 550.3Q240.8 552.0 239.9 552.8Q239.1 553.5 237.7 553.5ZM249.0 525.7L244.6 539.6L253.6 539.6L249.1 525.7L249.0 525.7ZM281.5 553.1L272.1 553.1Q270.4 553.1 269.5 552.1Q268.6 551.1 268.6 549.4L268.6 549.4L268.6 522.9Q268.6 521.2 269.5 520.2Q270.4 519.2 272.1 519.2L272.1 519.2L281.5 519.2Q289.1 519.2 293.4 523.6Q297.6 528.0 297.6 536.0L297.6 536.0Q297.6 544.1 293.3 548.6Q289.1 553.1 281.5 553.1L281.5 553.1ZM275.6 525.1L275.6 547.2L280.6 547.2Q285.4 547.2 287.9 544.4Q290.4 541.5 290.4 536.0L290.4 536.0Q290.4 530.8 287.8 527.9Q285.3 525.1 280.6 525.1L280.6 525.1L275.6 525.1Z M333.2 553.1L314.5 553.1Q312.9 553.1 312.0 552.2Q311.2 551.4 311.2 550.0L311.2 550.0Q311.2 549.1 311.6 548.3Q312.0 547.5 313.1 546.5L313.1 546.5L323.2 536.9Q326.3 533.8 327.4 532.2Q328.4 530.6 328.4 528.8L328.4 528.8Q328.4 526.7 327.0 525.3Q325.5 524 323.3 524L323.3 524Q319.3 524 317.4 528.1L317.4 528.1Q316.8 529.2 316.1 529.7Q315.4 530.1 314.3 530.1L314.3 530.1Q312.9 530.1 312.1 529.4Q311.3 528.6 311.3 527.3L311.3 527.3Q311.3 526.5 311.5 525.7L311.5 525.7Q312.5 522.7 315.6 520.6Q318.8 518.5 323.3 518.5L323.3 518.5Q328.7 518.5 332.0 521.2Q335.3 524.0 335.3 528.3L335.3 528.3Q335.3 529.9 335.0 531.2Q334.6 532.5 333.6 533.9Q332.6 535.3 331.3 536.8Q330.0 538.2 327.8 540.3L327.8 540.3L320.5 547.3L320.5 547.4L333.2 547.4Q334.6 547.4 335.4 548.2Q336.1 549.0 336.1 550.3L336.1 550.3Q336.1 551.5 335.4 552.3Q334.6 553.1 333.2 553.1L333.2 553.1ZM363.6 549.0Q359.9 553.8 353.5 553.8Q347.1 553.8 343.4 549.1Q339.7 544.3 339.7 536.1L339.7 536.1Q339.7 527.9 343.4 523.2Q347.1 518.5 353.5 518.5Q359.9 518.5 363.6 523.2Q367.3 527.9 367.3 536.1L367.3 536.1Q367.3 544.3 363.6 549.0ZM348.6 545.0Q350.4 548.1 353.5 548.1Q356.7 548.1 358.4 545.0Q360.1 541.9 360.1 536.1L360.1 536.1Q360.1 530.4 358.4 527.2Q356.7 524.1 353.5 524.1L353.5 524.1Q350.4 524.1 348.7 527.3Q346.9 530.4 346.9 536.1L346.9 536.1Q346.9 541.9 348.6 545.0ZM393.6 553.1L374.9 553.1Q373.3 553.1 372.4 552.2Q371.6 551.4 371.6 550.0L371.6 550.0Q371.6 549.1 372.0 548.3Q372.5 547.5 373.5 546.5L373.5 546.5L383.6 536.9Q386.8 533.8 387.8 532.2Q388.9 530.6 388.9 528.8L388.9 528.8Q388.9 526.7 387.4 525.3Q386.0 524 383.7 524L383.7 524Q379.7 524 377.9 528.1L377.9 528.1Q377.3 529.2 376.5 529.7Q375.8 530.1 374.7 530.1L374.7 530.1Q373.3 530.1 372.5 529.4Q371.7 528.6 371.7 527.3L371.7 527.3Q371.7 526.5 372.0 525.7L372.0 525.7Q372.9 522.7 376.0 520.6Q379.2 518.5 383.8 518.5L383.8 518.5Q389.1 518.5 392.4 521.2Q395.8 524.0 395.8 528.3L395.8 528.3Q395.8 529.9 395.4 531.2Q395 532.5 394.0 533.9Q393.1 535.3 391.7 536.8Q390.4 538.2 388.2 540.3L388.2 540.3L380.9 547.3L380.9 547.4L393.6 547.4Q395 547.4 395.8 548.2Q396.6 549.0 396.6 550.3L396.6 550.3Q396.6 551.5 395.8 552.3Q395 553.1 393.6 553.1L393.6 553.1ZM413.6 553.8L413.6 553.8Q409.6 553.8 406.3 552.1Q403.1 550.4 401.8 547.7L401.8 547.7Q401.3 546.5 401.3 545.4L401.3 545.4Q401.3 544.0 402.0 543.3Q402.8 542.5 404.2 542.5L404.2 542.5Q405.3 542.5 406.0 542.9Q406.7 543.3 407.3 544.3L407.3 544.3Q409.3 548.2 413.6 548.2L413.6 548.2Q416.3 548.2 418.1 546.4Q419.9 544.6 419.9 541.9L419.9 541.9Q419.9 539.2 418.1 537.5Q416.4 535.8 413.6 535.8L413.6 535.8Q410.8 535.8 408.7 537.8L408.7 537.8Q407.6 538.8 406.9 539.1Q406.2 539.4 405.0 539.4L405.0 539.4Q403.4 539.4 402.5 538.4Q401.6 537.4 401.7 535.9L401.7 535.9Q401.7 535.8 401.7 535.6L401.7 535.6L402.7 523.3Q402.9 521.1 404.0 520.2Q405.1 519.2 407.2 519.2L407.2 519.2L422 519.2Q423.3 519.2 424.1 520.0Q424.9 520.8 424.9 522.1Q424.9 523.3 424.1 524.1Q423.3 524.9 422 524.9L422 524.9L408.6 524.9L407.8 534.3L408.0 534.3Q409.0 532.6 411.0 531.7Q413.0 530.7 415.6 530.7L415.6 530.7Q420.4 530.7 423.5 533.8Q426.6 536.9 426.6 541.7L426.6 541.7Q426.6 547.1 423.0 550.5Q419.4 553.8 413.6 553.8Z "/><mask id="satori_om-id-0-1-1"><rect x="1013" y="524" width="147" height="36" fill="#fff"/></mask><path fill="#8e8e8e" d="M1016.9 552.6Q1016.5 552.9 1016.0 552.9Q1015.4 552.9 1015.1 552.6Q1014.8 552.2 1014.8 551.7L1014.8 551.7L1014.8 532.6Q1014.8 532.0 1015.1 531.6Q1015.5 531.3 1016.1 531.3Q1016.6 531.3 1017.0 531.6Q1017.3 532.0 1017.3 532.6L1017.3 532.6L1017.3 540.0L1017.4 540.0Q1018.1 538.7 1019.4 537.9Q1020.7 537.2 1022.3 537.2L1022.3 537.2Q1025.2 537.2 1026.9 539.3Q1028.7 541.5 1028.7 545.0L1028.7 545.0Q1028.7 548.6 1026.9 550.8Q1025.2 552.9 1022.2 552.9L1022.2 552.9Q1020.6 552.9 1019.3 552.2Q1018.0 551.4 1017.3 550.1L1017.3 550.1L1017.2 550.1L1017.2 551.7Q1017.2 552.2 1016.9 552.6ZM1021.7 550.7L1021.7 550.7Q1023.8 550.7 1024.9 549.2Q1026.1 547.7 1026.1 545.0L1026.1 545.0Q1026.1 542.5 1024.9 540.9Q1023.8 539.4 1021.7 539.4L1021.7 539.4Q1019.8 539.4 1018.6 541.0Q1017.3 542.5 1017.3 545.0L1017.3 545.0Q1017.3 547.6 1018.6 549.1Q1019.8 550.7 1021.7 550.7ZM1032.8 558.4L1032.8 558.4Q1031.9 558.4 1031.4 558.0Q1030.9 557.7 1030.9 557.1L1030.9 557.1Q1030.9 556.7 1031.1 556.4Q1031.4 556.2 1031.9 556.2L1031.9 556.2Q1032.1 556.2 1032.3 556.2Q1032.5 556.2 1032.7 556.2L1032.7 556.2Q1034.4 556.2 1035.2 553.7L1035.2 553.7L1035.6 552.7L1030.3 539.0Q1030.2 538.6 1030.2 538.3L1030.2 538.3Q1030.2 537.8 1030.6 537.5Q1030.9 537.2 1031.5 537.2L1031.5 537.2Q1032.4 537.2 1032.7 538.1L1032.7 538.1L1036.9 550.1L1037.0 550.1L1041.2 538.1Q1041.3 537.6 1041.6 537.4Q1041.9 537.2 1042.4 537.2L1042.4 537.2Q1042.9 537.2 1043.3 537.5Q1043.6 537.8 1043.6 538.3L1043.6 538.3Q1043.6 538.6 1043.5 539.0L1043.5 539.0L1037.9 553.7Q1036.9 556.4 1035.8 557.4Q1034.7 558.4 1032.8 558.4Z M1066.9 550.9Q1064.7 553.0 1060.8 553.0Q1056.9 553.0 1054.7 550.9Q1052.4 548.7 1052.4 545.3L1052.4 545.3L1052.4 532.7Q1052.4 532.1 1052.8 531.7Q1053.1 531.3 1053.7 531.3Q1054.3 531.3 1054.7 531.7Q1055.0 532.1 1055.0 532.7L1055.0 532.7L1055.0 545.1Q1055.0 547.5 1056.6 549.1Q1058.1 550.6 1060.8 550.6Q1063.5 550.6 1065.0 549.1Q1066.6 547.5 1066.6 545.1L1066.6 545.1L1066.6 532.7Q1066.6 532.1 1066.9 531.7Q1067.3 531.3 1067.9 531.3Q1068.5 531.3 1068.8 531.7Q1069.2 532.1 1069.2 532.7L1069.2 532.7L1069.2 545.3Q1069.2 548.7 1066.9 550.9ZM1075.6 552.6Q1075.2 552.9 1074.6 552.9Q1074.0 552.9 1073.7 552.6Q1073.3 552.2 1073.3 551.6L1073.3 551.6L1073.3 532.9Q1073.3 532.3 1073.7 531.9Q1074.0 531.5 1074.6 531.5L1074.6 531.5L1081.2 531.5Q1084.3 531.5 1086.1 533.2Q1088.0 535.0 1088.0 537.8L1088.0 537.8Q1088.0 540.0 1086.8 541.6Q1085.7 543.3 1083.7 543.9L1083.7 543.9L1087.6 550.8Q1087.9 551.3 1087.9 551.7L1087.9 551.7Q1087.9 552.2 1087.5 552.6Q1087.1 552.9 1086.5 552.9L1086.5 552.9Q1086.1 552.9 1085.8 552.7Q1085.5 552.5 1085.2 552.1L1085.2 552.1L1081.0 544.3L1075.9 544.3L1075.9 551.6Q1075.9 552.2 1075.6 552.6ZM1075.9 533.9L1075.9 542.0L1081.0 542.0Q1083.0 542.0 1084.1 540.9Q1085.2 539.9 1085.2 537.9L1085.2 537.9Q1085.2 536.0 1084.1 534.9Q1082.9 533.9 1080.9 533.9L1080.9 533.9L1075.9 533.9ZM1099.4 545.3L1091.9 545.3Q1091.3 545.3 1091.0 545.0Q1090.6 544.6 1090.6 544.1Q1090.6 543.6 1091.0 543.2Q1091.3 542.9 1091.9 542.9L1091.9 542.9L1099.4 542.9Q1100.0 542.9 1100.3 543.2Q1100.7 543.6 1100.7 544.1Q1100.7 544.6 1100.3 545.0Q1100.0 545.3 1099.4 545.3L1099.4 545.3ZM1106.4 552.6Q1106.0 552.9 1105.4 552.9Q1104.8 552.9 1104.5 552.6Q1104.1 552.2 1104.1 551.6L1104.1 551.6L1104.1 532.9Q1104.1 532.3 1104.5 531.9Q1104.8 531.5 1105.4 531.5L1105.4 531.5L1112.1 531.5Q1115.1 531.5 1117.0 533.2Q1118.8 535.0 1118.8 537.8L1118.8 537.8Q1118.8 540.0 1117.7 541.6Q1116.5 543.3 1114.5 543.9L1114.5 543.9L1118.4 550.8Q1118.7 551.3 1118.7 551.7L1118.7 551.7Q1118.7 552.2 1118.3 552.6Q1117.9 552.9 1117.3 552.9L1117.3 552.9Q1116.9 552.9 1116.6 552.7Q1116.3 552.5 1116.1 552.1L1116.1 552.1L1111.8 544.3L1106.8 544.3L1106.8 551.6Q1106.8 552.2 1106.4 552.6ZM1106.8 533.9L1106.8 542.0L1111.8 542.0Q1113.9 542.0 1115.0 540.9Q1116.1 539.9 1116.1 537.9L1116.1 537.9Q1116.1 536.0 1114.9 534.9Q1113.8 533.9 1111.7 533.9L1111.7 533.9L1106.8 533.9ZM1122.2 552.9L1122.2 552.9Q1121.6 552.9 1121.2 552.5Q1120.9 552.2 1120.9 551.7L1120.9 551.7Q1120.9 551.4 1121.0 551.0L1121.0 551.0L1127.8 532.6Q1128.3 531.3 1129.5 531.3L1129.5 531.3Q1130.7 531.3 1131.2 532.6L1131.2 532.6L1138.0 551.0Q1138.2 551.4 1138.2 551.7L1138.2 551.7Q1138.2 552.2 1137.8 552.5Q1137.4 552.9 1136.9 552.9L1136.9 552.9Q1135.9 552.9 1135.6 551.9L1135.6 551.9L1133.7 546.6L1125.3 546.6L1123.5 551.9Q1123.1 552.9 1122.2 552.9ZM1129.5 534.7L1126.1 544.4L1132.9 544.4L1129.6 534.7L1129.5 534.7ZM1148.1 552.7L1142.3 552.7Q1141.7 552.7 1141.4 552.3Q1141.0 551.9 1141.0 551.3L1141.0 551.3L1141.0 532.9Q1141.0 532.3 1141.4 531.9Q1141.7 531.5 1142.3 531.5L1142.3 531.5L1148.1 531.5Q1152.8 531.5 1155.5 534.3Q1158.1 537.1 1158.1 542.1L1158.1 542.1Q1158.1 547.1 1155.5 549.9Q1152.8 552.7 1148.1 552.7L1148.1 552.7ZM1143.7 533.9L1143.7 550.3L1148.0 550.3Q1151.5 550.3 1153.5 548.2Q1155.4 546.1 1155.4 542.1L1155.4 542.1Q1155.4 538.1 1153.5 536.0Q1151.6 533.9 1148.0 533.9L1148.0 533.9L1143.7 533.9Z "/></svg>