<svg width="1200" height="630" viewBox="0 0 1200 630" xmlns="http://www.w3.org/2000/svg"><mask id="satori_om-id"><rect x="0" y="0" width="1200" height="630" fill="#fff"/></mask><mask id="satori_om-id-0"><rect x="0" y="0" width="1200" height="630" fill="#fff"/></mask><rect x="0" y="0" width="1200" height="630" fill="#f2f2f2"/><mask id="satori_om-id-0-0"><rect x="0" y="0" width="1200" height="441" fill="#fff"/></mask><mask id="satori_om-id-0-0-0"><rect x="40" y="95" width="1120" height="36" fill="#fff"/></mask><path fill="#8e8e8e" d="M50.0 123.4Q49.6 123.9 48.8 123.9Q48.1 123.9 47.6 123.4Q47.2 123.0 47.2 122.2L47.2 122.2L47.2 105.4L42.0 105.4Q41.3 105.4 40.9 105.0Q40.5 104.6 40.5 103.9Q40.5 103.3 40.9 102.9Q41.3 102.5 42.0 102.5L42.0 102.5L55.6 102.5Q56.3 102.5 56.8 102.9Q57.2 103.3 57.2 103.9Q57.2 104.6 56.8 105.0Q56.3 105.4 55.6 105.4L55.6 105.4L50.5 105.4L50.5 122.2Q50.5 123.0 50.0 123.4ZM62.1 123.5Q61.6 123.9 60.9 123.9Q60.2 123.9 59.8 123.5Q59.3 123.0 59.3 122.3L59.3 122.3L59.3 103.9Q59.3 103.1 59.8 102.7Q60.2 102.2 60.9 102.2L60.9 102.2Q61.6 102.2 62.1 102.7Q62.5 103.1 62.5 103.9L62.5 103.9L62.5 110.8L62.5 110.8Q63.2 109.5 64.4 108.7Q65.7 108.0 67.4 108.0L67.4 108.0Q69.9 108.0 71.4 109.5Q72.8 111.1 72.8 113.7L72.8 113.7L72.8 122.3Q72.8 123.0 72.4 123.5Q71.9 123.9 71.2 123.9L71.2 123.9Q70.5 123.9 70.1 123.5Q69.6 123.0 69.6 122.3L69.6 122.3L69.6 114.3Q69.6 112.6 68.8 111.7Q67.9 110.7 66.3 110.7L66.3 110.7Q64.5 110.7 63.5 111.8Q62.5 112.9 62.5 114.8L62.5 114.8L62.5 122.3Q62.5 123.0 62.1 123.5ZM81.2 123.9L81.2 123.9Q78.7 123.9 77.2 122.4Q75.8 120.9 75.8 118.2L75.8 118.2L75.8 109.7Q75.8 108.9 76.2 108.4Q76.7 108.0 77.4 108.0L77.4 108.0Q78.1 108.0 78.5 108.4Q79.0 108.9 79.0 109.7L79.0 109.7L79.0 117.6Q79.0 119.4 79.8 120.3Q80.6 121.2 82.3 121.2L82.3 121.2Q84.0 121.2 84.9 120.1Q85.9 119.0 85.9 117.2L85.9 117.2L85.9 109.7Q85.9 108.9 86.4 108.4Q86.8 108.0 87.5 108.0L87.5 108.0Q88.2 108.0 88.7 108.4Q89.1 108.9 89.1 109.7L89.1 109.7L89.1 122.3Q89.1 123.1 88.7 123.5Q88.3 123.9 87.6 123.9Q86.9 123.9 86.5 123.5Q86.1 123.1 86.1 122.3L86.1 122.3L86.1 121.1L86.0 121.1Q84.6 123.9 81.2 123.9ZM93.8 123.9L93.8 123.9Q93.1 123.9 92.6 123.5Q92.2 123.0 92.2 122.3L92.2 122.3L92.2 109.6Q92.2 108.9 92.6 108.4Q93.0 108.0 93.7 108.0L93.7 108.0Q94.4 108.0 94.8 108.4Q95.2 108.9 95.2 109.6L95.2 109.6L95.2 110.9L95.3 110.9Q95.6 109.6 96.6 108.8Q97.5 108.0 98.7 108.0L98.7 108.0Q99.5 108.0 99.9 108.4L99.9 108.4Q100.3 108.7 100.3 109.5L100.3 109.5Q100.3 110.2 99.9 110.6L99.9 110.6Q99.4 111.0 98.4 111.0L98.4 111.0Q96.9 111.0 96.1 112.0Q95.4 112.9 95.4 114.4L95.4 114.4L95.4 122.3Q95.4 123.0 94.9 123.5Q94.5 123.9 93.8 123.9ZM107.7 124.0L107.7 124.0Q105.5 124.0 103.9 123.1Q102.3 122.3 101.7 120.8L101.7 120.8Q101.6 120.5 101.6 120.2L101.6 120.2Q101.6 119.6 102.0 119.2Q102.4 118.9 103.0 118.9L103.0 118.9Q103.8 118.9 104.4 119.7L104.4 119.7Q105.0 120.7 105.8 121.1Q106.5 121.5 107.9 121.5L107.9 121.5Q109.3 121.5 110.1 121.0Q110.9 120.4 110.9 119.5L110.9 119.5Q110.9 118.7 110.4 118.3Q109.9 117.8 108.7 117.5L108.7 117.5L106.2 117.0Q101.8 115.9 101.8 112.6L101.8 112.6Q101.8 110.5 103.4 109.2Q105.1 108.0 107.9 108.0L107.9 108.0Q109.9 108.0 111.5 108.9Q113.0 109.8 113.4 111.2L113.4 111.2Q113.4 111.6 113.4 111.7L113.4 111.7Q113.4 112.2 113.1 112.5Q112.8 112.9 112.2 112.9L112.2 112.9Q111.3 112.9 110.9 112.2L110.9 112.2Q110.4 111.3 109.6 110.8Q108.9 110.4 107.7 110.4L107.7 110.4Q106.5 110.4 105.7 111.0Q104.9 111.5 104.9 112.4L104.9 112.4Q104.9 113.9 107.2 114.5L107.2 114.5L109.6 115.0Q112.1 115.6 113.1 116.5Q114.1 117.5 114.1 119.2L114.1 119.2Q114.1 121.3 112.3 122.6Q110.6 124.0 107.7 124.0ZM122.3 123.9L122.3 123.9Q119.4 123.9 117.6 121.8Q115.9 119.6 115.9 116.0Q115.9 112.3 117.6 110.2Q119.4 108.0 122.3 108.0L122.3 108.0Q123.9 108.0 125.2 108.8Q126.5 109.5 127.1 110.8L127.1 110.8L127.2 110.8L127.2 103.9Q127.2 103.1 127.6 102.7Q128.1 102.2 128.8 102.2L128.8 102.2Q129.5 102.2 129.9 102.7Q130.4 103.2 130.4 103.9L130.4 103.9L130.4 122.4Q130.4 123.1 129.9 123.5Q129.5 123.9 128.8 123.9L128.8 123.9Q128.1 123.9 127.7 123.5Q127.2 123.1 127.2 122.4L127.2 122.4L127.2 120.9L127.2 120.9Q126.5 122.3 125.3 123.1Q124.1 123.9 122.3 123.9ZM123.2 121.2L123.2 121.2Q125.0 121.2 126.1 119.8Q127.2 118.4 127.2 116.0L127.2 116.0Q127.2 113.6 126.1 112.1Q125.0 110.7 123.2 110.7L123.2 110.7Q121.3 110.7 120.2 112.1Q119.1 113.5 119.1 116.0L119.1 116.0Q119.1 118.4 120.2 119.8Q121.3 121.2 123.2 121.2ZM138.1 123.9L138.1 123.9Q135.9 123.9 134.4 122.6Q133.0 121.3 133.0 119.3L133.0 119.3Q133.0 117.3 134.5 116.1Q136.0 114.9 138.7 114.7L138.7 114.7L142.9 114.5L142.9 113.3Q142.9 112.0 142.1 111.3Q141.3 110.6 139.9 110.6L139.9 110.6Q138.7 110.6 137.9 111.0Q137.1 111.5 136.4 112.5L136.4 112.5Q136.0 113.2 135.2 113.2L135.2 113.2Q134.6 113.2 134.2 112.8Q133.8 112.4 133.8 111.9L133.8 111.9Q133.8 111.3 134.1 110.8L134.1 110.8Q134.7 109.5 136.3 108.8Q137.9 108.0 140.0 108.0L140.0 108.0Q142.8 108.0 144.4 109.4Q146.1 110.7 146.1 113.0L146.1 113.0L146.1 122.3Q146.1 123.1 145.7 123.5Q145.2 123.9 144.6 123.9L144.6 123.9Q143.9 123.9 143.5 123.5Q143.1 123.1 143.1 122.4L143.1 122.4L143.1 121.1L143.0 121.1Q142.3 122.4 141.0 123.2Q139.7 123.9 138.1 123.9ZM139.0 121.4L139.0 121.4Q140.7 121.4 141.8 120.4Q142.9 119.4 142.9 117.9L142.9 117.9L142.9 116.7L139.1 116.9Q137.7 117.0 137.0 117.6Q136.2 118.2 136.2 119.2L136.2 119.2Q136.2 120.2 137.0 120.8Q137.7 121.4 139.0 121.4ZM151.1 129.4L151.1 129.4Q150.0 129.4 149.4 129.0Q148.8 128.6 148.8 127.9L148.8 127.9Q148.8 127.4 149.1 127.1Q149.5 126.8 150.0 126.8L150.0 126.8Q150.2 126.8 150.4 126.8Q150.7 126.8 150.8 126.8L150.8 126.8Q152.4 126.8 153.2 124.7L153.2 124.7L153.5 123.8L148.3 110.3Q148.1 109.9 148.1 109.4L148.1 109.4Q148.1 108.8 148.6 108.4Q149.1 108.0 149.8 108.0L149.8 108.0Q150.4 108.0 150.7 108.3Q151.1 108.5 151.3 109.2L151.3 109.2L155.2 120.8L155.3 120.8L159.2 109.2Q159.4 108.5 159.7 108.3Q160.1 108.0 160.7 108.0L160.7 108.0Q161.4 108.0 161.8 108.4Q162.2 108.8 162.2 109.4L162.2 109.4Q162.2 109.8 162.1 110.3L162.1 110.3L156.7 124.4Q155.7 127.2 154.5 128.3Q153.2 129.4 151.1 129.4ZM166.7 120.1L166.7 120.1Q167.4 120.1 167.8 120.5Q168.2 120.8 168.2 121.4L168.2 121.4Q168.2 121.8 168.1 122.3L168.1 122.3L166.8 127.3Q166.5 128.4 165.4 128.4L165.4 128.4Q164.9 128.4 164.5 128.1Q164.2 127.7 164.2 127.2L164.2 127.2Q164.2 127.1 164.3 126.8L164.3 126.8L165.2 121.4Q165.4 120.1 166.7 120.1Z M181.7 123.9L181.7 123.9Q181.0 123.9 180.6 123.6Q180.2 123.2 180.2 122.6L180.2 122.6Q180.2 122.1 180.5 121.6L180.5 121.6L189.0 105.4L189.0 105.3L179.1 105.3Q178.5 105.3 178.1 104.9Q177.7 104.5 177.7 103.9L177.7 103.9Q177.7 103.3 178.1 102.9Q178.5 102.5 179.1 102.5L179.1 102.5L190.3 102.5Q191.2 102.5 191.8 103.0Q192.3 103.5 192.3 104.4L192.3 104.4Q192.3 105.1 191.7 106.4L191.7 106.4L183.2 123.0Q182.9 123.5 182.6 123.7Q182.2 123.9 181.7 123.9Z M204.2 123.5Q203.8 123.9 203.1 123.9Q202.3 123.9 201.9 123.5Q201.5 123.0 201.5 122.2L201.5 122.2L201.5 104.1Q201.5 103.2 201.9 102.8Q202.4 102.3 203.2 102.3L203.2 102.3Q203.8 102.3 204.2 102.5Q204.6 102.7 205.0 103.3L205.0 103.3L215.4 118.1L215.5 118.1L215.5 104.0Q215.5 103.2 215.9 102.7Q216.4 102.3 217.1 102.3L217.1 102.3Q217.8 102.3 218.3 102.7Q218.7 103.2 218.7 104.0L218.7 104.0L218.7 122.2Q218.7 123.0 218.2 123.5Q217.8 123.9 217.0 123.9L217.0 123.9Q216.4 123.9 216.0 123.7Q215.6 123.5 215.2 122.9L215.2 122.9L204.8 108.1L204.6 108.1L204.6 122.2Q204.6 123.0 204.2 123.5ZM234.2 121.8Q232.2 124.0 228.8 124.0Q225.5 124.0 223.5 121.8Q221.5 119.7 221.5 116.0L221.5 116.0Q221.5 112.3 223.5 110.1Q225.5 108.0 228.8 108.0Q232.2 108.0 234.2 110.1Q236.1 112.3 236.1 116.0L236.1 116.0Q236.1 119.7 234.2 121.8ZM228.8 121.3L228.8 121.3Q230.7 121.3 231.8 119.9Q232.9 118.5 232.9 116.0L232.9 116.0Q232.9 113.4 231.8 112.0Q230.7 110.6 228.8 110.6Q227.0 110.6 225.9 112.0Q224.7 113.4 224.7 116.0L224.7 116.0Q224.7 118.5 225.9 119.9Q227.0 121.3 228.8 121.3ZM244.5 123.9L244.5 123.9Q243.7 123.9 243.2 123.6Q242.7 123.2 242.3 122.3L242.3 122.3L237.8 110.3Q237.6 109.8 237.6 109.4L237.6 109.4Q237.6 108.8 238.0 108.4Q238.5 108.0 239.2 108.0L239.2 108.0Q240.3 108.0 240.7 109.2L240.7 109.2L244.5 120.6L244.6 120.6L248.4 109.2Q248.8 108.0 249.9 108.0L249.9 108.0Q250.5 108.0 251.0 108.4Q251.4 108.8 251.4 109.4L251.4 109.4Q251.4 109.9 251.3 110.3L251.3 110.3L246.7 122.3Q246.4 123.2 245.9 123.6Q245.3 123.9 244.5 123.9ZM260.2 124.0L260.2 124.0Q256.8 124.0 254.8 121.9Q252.9 119.8 252.9 116.0L252.9 116.0Q252.9 112.4 254.8 110.2Q256.8 108.0 260.0 108.0L260.0 108.0Q263.1 108.0 265.0 110.0Q266.9 112.0 266.9 115.1L266.9 115.1Q266.9 115.9 266.5 116.3Q266.1 116.8 265.4 116.8L265.4 116.8L256.1 116.8L256.1 116.8Q256.1 118.9 257.2 120.2Q258.3 121.4 260.2 121.4L260.2 121.4Q261.5 121.4 262.4 120.9Q263.3 120.4 264.2 119.2L264.2 119.2Q264.6 118.6 265.3 118.6L265.3 118.6Q265.8 118.6 266.2 119.0Q266.6 119.3 266.6 119.9L266.6 119.9Q266.6 120.3 266.4 120.8L266.4 120.8Q265.6 122.3 264.0 123.1Q262.4 124.0 260.2 124.0ZM256.1 114.5L256.1 114.5L263.8 114.5Q263.7 112.7 262.7 111.6Q261.7 110.5 260.0 110.5L260.0 110.5Q258.4 110.5 257.3 111.6Q256.2 112.7 256.1 114.5ZM272.1 123.5Q271.7 123.9 271.0 123.9Q270.3 123.9 269.8 123.5Q269.4 123.0 269.4 122.3L269.4 122.3L269.4 109.6Q269.4 108.9 269.8 108.4Q270.2 108.0 270.9 108.0Q271.6 108.0 272.0 108.4Q272.4 108.8 272.4 109.6L272.4 109.6L272.4 110.8L272.5 110.8Q273.0 109.5 274.2 108.8Q275.3 108.0 276.9 108.0L276.9 108.0Q278.5 108.0 279.6 108.8Q280.7 109.6 281.2 111.0L281.2 111.0L281.2 111.0Q281.8 109.6 283.1 108.8Q284.4 108.0 286.0 108.0L286.0 108.0Q288.3 108.0 289.7 109.4Q291.1 110.8 291.1 113.1L291.1 113.1L291.1 122.3Q291.1 123.0 290.6 123.5Q290.2 123.9 289.5 123.9Q288.8 123.9 288.3 123.5Q287.9 123.0 287.9 122.3L287.9 122.3L287.9 113.8Q287.9 112.3 287.1 111.5Q286.4 110.7 285.0 110.7Q283.6 110.7 282.7 111.6Q281.8 112.6 281.8 114.0L281.8 114.0L281.8 122.3Q281.8 123.0 281.4 123.5Q281.0 123.9 280.2 123.9Q279.5 123.9 279.1 123.5Q278.7 123.0 278.7 122.3L278.7 122.3L278.7 113.6Q278.7 112.3 277.9 111.5Q277.1 110.7 275.8 110.7L275.8 110.7Q274.4 110.7 273.5 111.7Q272.6 112.6 272.6 114.1L272.6 114.1L272.6 122.3Q272.6 123.0 272.1 123.5ZM295.8 123.9L295.8 123.9Q295.1 123.9 294.7 123.5Q294.3 123.1 294.3 122.4L294.3 122.4L294.3 103.9Q294.3 103.2 294.7 102.7Q295.1 102.2 295.8 102.2Q296.5 102.2 297.0 102.7Q297.4 103.2 297.4 103.9L297.4 103.9L297.4 110.9L297.5 110.9Q298.2 109.5 299.5 108.8Q300.7 108.0 302.4 108.0L302.4 108.0Q305.3 108.0 307.0 110.2Q308.8 112.3 308.8 116.0L308.8 116.0Q308.8 119.6 307.0 121.8Q305.3 123.9 302.3 123.9L302.3 123.9Q300.7 123.9 299.4 123.2Q298.1 122.4 297.4 121.0L297.4 121.0L297.3 121.0L297.3 122.4Q297.3 123.1 296.9 123.5Q296.5 123.9 295.8 123.9ZM301.5 121.2L301.5 121.2Q303.4 121.2 304.4 119.8Q305.5 118.4 305.5 116.0L305.5 116.0Q305.5 113.5 304.4 112.1Q303.3 110.7 301.5 110.7L301.5 110.7Q299.7 110.7 298.5 112.1Q297.4 113.6 297.4 116.0L297.4 116.0Q297.4 118.3 298.5 119.8Q299.7 121.2 301.5 121.2ZM317.9 124.0L317.9 124.0Q314.4 124.0 312.5 121.9Q310.5 119.8 310.5 116.0L310.5 116.0Q310.5 112.4 312.5 110.2Q314.4 108.0 317.7 108.0L317.7 108.0Q320.8 108.0 322.7 110.0Q324.6 112.0 324.6 115.1L324.6 115.1Q324.6 115.9 324.2 116.3Q323.8 116.8 323.1 116.8L323.1 116.8L313.7 116.8L313.7 116.8Q313.7 118.9 314.8 120.2Q315.9 121.4 317.8 121.4L317.8 121.4Q319.1 121.4 320.0 120.9Q320.9 120.4 321.8 119.2L321.8 119.2Q322.3 118.6 322.9 118.6L322.9 118.6Q323.5 118.6 323.9 119.0Q324.3 119.3 324.3 119.9L324.3 119.9Q324.3 120.3 324.0 120.8L324.0 120.8Q323.3 122.3 321.7 123.1Q320.1 124.0 317.9 124.0ZM313.8 114.5L313.8 114.5L321.5 114.5Q321.4 112.7 320.4 111.6Q319.3 110.5 317.7 110.5L317.7 110.5Q316.0 110.5 315.0 111.6Q313.9 112.7 313.8 114.5ZM328.6 123.9L328.6 123.9Q327.9 123.9 327.5 123.5Q327.1 123.0 327.1 122.3L327.1 122.3L327.1 109.6Q327.1 108.9 327.5 108.4Q327.9 108.0 328.6 108.0L328.6 108.0Q329.2 108.0 329.7 108.4Q330.1 108.9 330.1 109.6L330.1 109.6L330.1 110.9L330.1 110.9Q330.5 109.6 331.4 108.8Q332.4 108.0 333.5 108.0L333.5 108.0Q334.4 108.0 334.8 108.4L334.8 108.4Q335.2 108.7 335.2 109.5L335.2 109.5Q335.2 110.2 334.7 110.6L334.7 110.6Q334.3 111.0 333.3 111.0L333.3 111.0Q331.7 111.0 331.0 112.0Q330.2 112.9 330.2 114.4L330.2 114.4L330.2 122.3Q330.2 123.0 329.8 123.5Q329.4 123.9 328.6 123.9Z M356.2 123.7L344.6 123.7Q343.8 123.7 343.4 123.3Q343.0 122.9 343.0 122.3L343.0 122.3Q343.0 121.8 343.2 121.5Q343.4 121.1 343.9 120.6L343.9 120.6L350.5 113.9Q352.6 111.8 353.3 110.7Q353.9 109.6 353.9 108.3L353.9 108.3Q353.9 106.8 352.9 105.8Q351.9 104.8 350.3 104.8L350.3 104.8Q347.1 104.8 346.0 108.0L346.0 108.0Q345.8 108.5 345.4 108.8Q345.1 109.0 344.5 109.0L344.5 109.0Q343.9 109.0 343.5 108.6Q343.1 108.3 343.1 107.6L343.1 107.6Q343.1 107.3 343.2 107.0L343.2 107.0Q343.4 106.1 343.9 105.3Q344.5 104.4 345.3 103.7Q346.2 103.0 347.5 102.6Q348.8 102.1 350.3 102.1L350.3 102.1Q353.3 102.1 355.2 103.8Q357.2 105.5 357.2 108.1L357.2 108.1Q357.2 109.9 356.2 111.5Q355.2 113.0 352.5 115.8L352.5 115.8L347.5 120.8L347.5 120.9L356.2 120.9Q356.9 120.9 357.3 121.3Q357.7 121.7 357.7 122.3L357.7 122.3Q357.7 122.9 357.3 123.3Q356.9 123.7 356.2 123.7L356.2 123.7ZM374.1 121.1Q372.0 124.1 368.2 124.1Q364.4 124.1 362.2 121.1Q360.1 118.2 360.1 113.1L360.1 113.1Q360.1 108.0 362.2 105.1Q364.4 102.1 368.2 102.1L368.2 102.1Q371.9 102.1 374.1 105.1Q376.2 108.0 376.2 113.1L376.2 113.1Q376.2 118.1 374.1 121.1ZM368.2 121.3L368.2 121.3Q370.4 121.3 371.7 119.1Q372.9 116.9 372.9 113.1L372.9 113.1Q372.9 109.3 371.7 107.1Q370.4 104.9 368.2 104.9Q365.9 104.9 364.7 107.1Q363.4 109.3 363.4 113.1L363.4 113.1Q363.4 116.9 364.6 119.1Q365.9 121.3 368.2 121.3ZM392.3 123.7L380.6 123.7Q379.9 123.7 379.5 123.3Q379.1 122.9 379.1 122.3L379.1 122.3Q379.1 121.8 379.3 121.5Q379.5 121.1 380.0 120.6L380.0 120.6L386.6 113.9Q388.7 111.8 389.4 110.7Q390.0 109.6 390.0 108.3L390.0 108.3Q390.0 106.8 389.0 105.8Q388.0 104.8 386.4 104.8L386.4 104.8Q383.2 104.8 382.1 108.0L382.1 108.0Q381.9 108.5 381.5 108.8Q381.2 109.0 380.6 109.0L380.6 109.0Q380.0 109.0 379.6 108.6Q379.2 108.3 379.2 107.6L379.2 107.6Q379.2 107.3 379.3 107.0L379.3 107.0Q379.4 106.1 380.0 105.3Q380.5 104.4 381.4 103.7Q382.3 103.0 383.6 102.6Q384.9 102.1 386.4 102.1L386.4 102.1Q389.4 102.1 391.3 103.8Q393.3 105.5 393.3 108.1L393.3 108.1Q393.3 109.9 392.3 111.5Q391.3 113.0 388.6 115.8L388.6 115.8L383.5 120.8L383.5 120.9L392.3 120.9Q393.0 120.9 393.4 121.3Q393.8 121.7 393.8 122.3L393.8 122.3Q393.8 122.9 393.4 123.3Q393.0 123.7 392.3 123.7L392.3 123.7ZM408.1 123.9L408.1 123.9Q407.5 123.9 407.0 123.5Q406.6 123.0 406.6 122.3L406.6 122.3L406.6 119.5L397.9 119.5Q397.0 119.5 396.5 119.0Q396.0 118.4 396.0 117.6L396.0 117.6Q396.0 116.6 396.7 115.3L396.7 115.3Q398.5 112.0 403.5 104.7L403.5 104.7Q404.5 103.3 405.2 102.8Q406.0 102.2 407.0 102.2L407.0 102.2Q408.3 102.2 409.0 102.9Q409.7 103.5 409.7 104.7L409.7 104.7L409.7 116.7L411.4 116.7Q412.0 116.7 412.4 117.1Q412.8 117.5 412.8 118.1Q412.8 118.7 412.4 119.1Q412.0 119.5 411.4 119.5L411.4 119.5L409.7 119.5L409.7 122.3Q409.7 123.0 409.3 123.5Q408.8 123.9 408.1 123.9ZM399.0 116.8L406.6 116.8L406.6 105.1L406.5 105.1Q401.1 112.9 399.0 116.7L399.0 116.7L399.0 116.8Z "/><mask id="satori_om-id-0-0-1"><rect x="40" y="176" width="1120" height="165" fill="#fff"/></mask><path fill="#224d67" d="M67.5 238.6L47.5 238.6Q45.7 238.6 44.7 237.5Q43.7 236.5 43.7 234.7L43.7 234.7L43.7 199.7Q43.7 197.9 44.7 196.8Q45.7 195.8 47.5 195.8L47.5 195.8Q49.3 195.8 50.3 196.8Q51.3 197.9 51.3 199.7L51.3 199.7L51.3 232.2L67.5 232.2Q69.0 232.2 70.0 233.1Q70.9 233.9 70.9 235.4Q70.9 236.8 70 237.7Q69.1 238.6 67.5 238.6L67.5 238.6ZM84.3 239.1L84.3 239.1Q79.7 239.1 76.8 236.5Q73.9 233.9 73.9 229.7L73.9 229.7Q73.9 225.6 77.0 223.2Q80.0 220.8 85.7 220.4L85.7 220.4L93.9 219.9L93.9 217.7Q93.9 215.3 92.4 213.9Q90.9 212.6 88.1 212.6L88.1 212.6Q86.0 212.6 84.5 213.4Q83.0 214.2 81.6 216.2L81.6 216.2Q80.5 217.7 78.7 217.7L78.7 217.7Q77.3 217.7 76.5 216.9Q75.6 216.1 75.6 214.8L75.6 214.8Q75.6 213.8 76.1 212.8L76.1 212.8Q77.3 210.1 80.6 208.5Q84.0 206.9 88.4 206.9L88.4 206.9Q94.2 206.9 97.7 209.7Q101.1 212.5 101.1 217.2L101.1 217.2L101.1 235.5Q101.1 237.2 100.2 238.2Q99.2 239.2 97.6 239.2L97.6 239.2Q96.1 239.2 95.1 238.3Q94.2 237.4 94.1 235.8L94.1 235.8L94.1 233.6L94.0 233.6Q92.6 236.1 90.0 237.6Q87.3 239.1 84.3 239.1ZM86.5 233.6L86.5 233.6Q89.6 233.6 91.8 231.7Q93.9 229.8 93.9 227.1L93.9 227.1L93.9 224.7L86.7 225.1Q84.1 225.3 82.6 226.4Q81.2 227.6 81.2 229.4L81.2 229.4Q81.2 231.3 82.6 232.4Q84.1 233.6 86.5 233.6ZM113.3 238.1Q112.3 239.2 110.6 239.2Q109.0 239.2 108.0 238.1Q107.0 237.1 107.0 235.3L107.0 235.3L107.0 210.6Q107.0 208.9 108.0 207.9Q108.9 206.9 110.5 206.9L110.5 206.9Q112.0 206.9 113.0 207.9Q113.9 208.9 113.9 210.6L113.9 210.6L113.9 213.0L114.1 213.0Q114.7 210.3 116.6 208.6Q118.4 207.0 120.7 207.0L120.7 207.0Q122.4 207.0 123.3 207.8L123.3 207.8Q124.3 208.6 124.3 210.4L124.3 210.4Q124.3 212.1 123.3 213.0L123.3 213.0Q122.2 213.9 120.0 214.0L120.0 214.0Q114.3 214.0 114.3 220.4L114.3 220.4L114.3 235.3Q114.3 237.1 113.3 238.1ZM141.0 250.3L141.0 250.3Q136.7 250.2 133.3 248.7Q130.0 247.2 128.4 244.6L128.4 244.6Q127.8 243.6 127.8 242.4L127.8 242.4Q127.8 241.2 128.6 240.4Q129.5 239.6 130.8 239.6L130.8 239.6Q132.3 239.6 133.5 240.8L133.5 240.8Q135.4 242.7 137.1 243.6Q138.9 244.4 141.1 244.5L141.1 244.5Q144.7 244.5 146.9 242.6Q149.0 240.7 149.0 237.6L149.0 237.6L149.0 232.7L148.8 232.7Q147.6 235.2 145 236.7Q142.4 238.3 139.1 238.3L139.1 238.3Q133.3 238.3 129.8 234.0Q126.3 229.8 126.3 222.7L126.3 222.7Q126.3 215.4 129.8 211.2Q133.3 207.0 139.3 207.0L139.3 207.0Q142.5 207.0 145.0 208.5Q147.5 210.1 148.9 212.8L148.9 212.8L149.0 212.8L149.0 210.6Q149.0 208.9 150.0 207.9Q151.1 206.9 152.7 206.9Q154.3 206.9 155.3 207.9Q156.3 208.9 156.3 210.6L156.3 210.6L156.3 237.6Q156.3 243.5 152.2 246.9Q148.2 250.3 141.0 250.3ZM141.3 232.6L141.3 232.6Q144.9 232.6 146.9 229.9Q149.0 227.3 149.0 222.7L149.0 222.7Q149.0 218.2 146.9 215.5Q144.8 212.8 141.3 212.8L141.3 212.8Q137.9 212.8 135.8 215.5Q133.8 218.2 133.8 222.7L133.8 222.7Q133.8 227.3 135.8 230.0Q137.9 232.6 141.3 232.6ZM176.1 239.2L176.1 239.2Q168.9 239.2 165.0 235.0Q161.0 230.7 161.0 223.2L161.0 223.2Q161.0 215.7 165.0 211.3Q168.9 206.9 175.6 206.9L175.6 206.9Q182.0 206.9 186.0 210.9Q189.9 215.0 189.9 221.4L189.9 221.4Q189.9 223.0 189.0 223.9Q188.2 224.8 186.5 224.8L186.5 224.8L168.2 224.8L168.2 225.0Q168.2 228.9 170.3 231.3Q172.5 233.6 176.0 233.6L176.0 233.6Q178.5 233.6 180.2 232.6Q182.0 231.7 183.8 229.4L183.8 229.4Q184.8 228.3 186.2 228.3L186.2 228.3Q187.5 228.3 188.3 229.0Q189.2 229.8 189.2 231.1L189.2 231.1Q189.2 231.9 188.7 232.9L188.7 232.9Q187.1 235.9 183.8 237.5Q180.5 239.2 176.1 239.2ZM168.3 220.0L168.3 220.0L182.8 220.0Q182.7 216.6 180.7 214.6Q178.8 212.5 175.7 212.5Q172.6 212.5 170.5 214.6Q168.5 216.7 168.3 220.0Z M222.3 239.3L222.3 239.3Q216.1 239.3 212.0 237.0Q207.8 234.7 206.6 231.0L206.6 231.0Q206.1 229.9 206.1 228.8L206.1 228.8Q206.1 227.2 207.1 226.3Q208.0 225.3 209.5 225.3L209.5 225.3Q210.7 225.3 211.6 225.9Q212.4 226.4 213.0 227.7L213.0 227.7Q214.0 230.4 216.5 231.7Q219.0 233.0 222.5 233.0L222.5 233.0Q226.3 233.0 228.7 231.3Q231.2 229.6 231.2 227.0L231.2 227.0Q231.2 224.7 229.4 223.2Q227.6 221.8 223.5 220.9L223.5 220.9L219.0 220.0Q206.6 217.4 206.6 208.1L206.6 208.1Q206.6 202.5 211.0 199.1Q215.4 195.6 222.3 195.6L222.3 195.6Q227.9 195.6 232.0 198.0Q236.0 200.4 237.3 204.5L237.3 204.5Q237.5 205.2 237.5 206.3L237.5 206.3Q237.5 207.6 236.6 208.5Q235.7 209.4 234.3 209.4L234.3 209.4Q231.8 209.4 230.6 207.0L230.6 207.0Q228.6 201.9 222.2 201.9L222.2 201.9Q218.7 201.9 216.4 203.4Q214.2 205.0 214.2 207.6L214.2 207.6Q214.2 209.8 215.9 211.2Q217.7 212.7 221.6 213.5L221.6 213.5L226.1 214.4Q232.8 215.8 235.8 218.6Q238.8 221.4 238.8 226.1L238.8 226.1Q238.8 232.2 234.3 235.7Q229.9 239.3 222.3 239.3ZM257.4 239.2L257.4 239.2Q250.5 239.2 246.5 234.9Q242.4 230.5 242.4 223.1L242.4 223.1Q242.4 215.7 246.5 211.3Q250.5 206.9 257.3 206.9L257.3 206.9Q261.8 206.9 265.4 209.0Q269.0 211.1 270.1 214.4L270.1 214.4Q270.4 215.4 270.4 216.1L270.4 216.1Q270.4 217.5 269.6 218.3Q268.7 219.1 267.3 219.1L267.3 219.1Q266.2 219.1 265.5 218.6Q264.8 218.1 264.1 217.0L264.1 217.0Q261.8 212.8 257.5 212.8L257.5 212.8Q254.0 212.8 251.9 215.6Q249.8 218.3 249.8 223.1L249.8 223.1Q249.8 227.9 251.9 230.6Q254.0 233.3 257.5 233.3L257.5 233.3Q261.8 233.3 264.1 229.3L264.1 229.3Q264.9 228.1 265.6 227.6Q266.3 227.1 267.5 227.1L267.5 227.1Q268.8 227.1 269.7 227.9Q270.5 228.7 270.5 230.1L270.5 230.1Q270.5 230.9 270.1 231.9L270.1 231.9Q268.8 235.1 265.2 237.2Q261.7 239.2 257.4 239.2ZM284.5 239.1L284.5 239.1Q280 239.1 277.1 236.5Q274.2 233.9 274.2 229.7L274.2 229.7Q274.2 225.6 277.2 223.2Q280.3 220.8 286.0 220.4L286.0 220.4L294.2 219.9L294.2 217.7Q294.2 215.3 292.7 213.9Q291.1 212.6 288.4 212.6L288.4 212.6Q286.2 212.6 284.7 213.4Q283.3 214.2 281.9 216.2L281.9 216.2Q280.8 217.7 278.9 217.7L278.9 217.7Q277.6 217.7 276.7 216.9Q275.9 216.1 275.9 214.8L275.9 214.8Q275.9 213.8 276.4 212.8L276.4 212.8Q277.5 210.1 280.9 208.5Q284.2 206.9 288.7 206.9L288.7 206.9Q294.5 206.9 297.9 209.7Q301.4 212.5 301.4 217.2L301.4 217.2L301.4 235.5Q301.4 237.2 300.4 238.2Q299.5 239.2 297.9 239.2L297.9 239.2Q296.3 239.2 295.4 238.3Q294.5 237.4 294.4 235.8L294.4 235.8L294.4 233.6L294.2 233.6Q292.9 236.1 290.3 237.6Q287.6 239.1 284.5 239.1ZM286.8 233.6L286.8 233.6Q289.9 233.6 292.0 231.7Q294.2 229.8 294.2 227.1L294.2 227.1L294.2 224.7L287.0 225.1Q284.4 225.3 282.9 226.4Q281.5 227.6 281.5 229.4L281.5 229.4Q281.5 231.3 282.9 232.4Q284.4 233.6 286.8 233.6ZM313.8 238.2Q312.8 239.2 311.1 239.2Q309.5 239.2 308.5 238.2Q307.5 237.1 307.5 235.3L307.5 235.3L307.5 199.6Q307.5 197.7 308.5 196.7Q309.5 195.7 311.1 195.7Q312.8 195.7 313.8 196.7Q314.8 197.7 314.8 199.6L314.8 199.6L314.8 235.3Q314.8 237.1 313.8 238.2ZM334.8 239.2L334.8 239.2Q327.7 239.2 323.7 235.0Q319.7 230.7 319.7 223.2L319.7 223.2Q319.7 215.7 323.7 211.3Q327.7 206.9 334.4 206.9L334.4 206.9Q340.7 206.9 344.7 210.9Q348.7 215.0 348.7 221.4L348.7 221.4Q348.7 223.0 347.8 223.9Q346.9 224.8 345.3 224.8L345.3 224.8L327.0 224.8L327.0 225.0Q327.0 228.9 329.1 231.3Q331.2 233.6 334.7 233.6L334.7 233.6Q337.2 233.6 339.0 232.6Q340.7 231.7 342.5 229.4L342.5 229.4Q343.5 228.3 345.0 228.3L345.0 228.3Q346.2 228.3 347.0 229.0Q347.9 229.8 347.9 231.1L347.9 231.1Q347.9 231.9 347.4 232.9L347.4 232.9Q345.8 235.9 342.5 237.5Q339.2 239.2 334.8 239.2ZM327.0 220.0L327.0 220.0L341.5 220.0Q341.4 216.6 339.4 214.6Q337.5 212.5 334.4 212.5Q331.3 212.5 329.3 214.6Q327.2 216.7 327.0 220.0Z M369.9 239.1L369.9 239.1Q368.1 239.1 367.1 238.0Q366.1 237.0 366.1 235.2L366.1 235.2L366.1 199.7Q366.1 197.9 367.1 196.8Q368.1 195.8 369.9 195.8L369.9 195.8Q371.7 195.8 372.7 196.8Q373.7 197.9 373.7 199.7L373.7 199.7L373.7 215.7L373.9 215.7L390.9 197.4Q392.4 195.8 394.1 195.8L394.1 195.8Q395.6 195.8 396.6 196.8Q397.6 197.8 397.6 199.2L397.6 199.2Q397.6 200.7 396.4 202.0L396.4 202.0L383.7 215.3L397.6 232.2Q399.1 233.9 399.1 235.5Q399.1 237.0 398.1 238.1Q397.0 239.1 395.5 239.1L395.5 239.1Q394.3 239.1 393.5 238.6Q392.6 238.2 391.8 237.1L391.8 237.1L378.1 220.3L373.7 225.0L373.7 235.2Q373.7 237.0 372.7 238.1Q371.7 239.1 369.9 239.1ZM410.3 238.2Q409.3 239.2 407.6 239.2Q406.0 239.2 405.0 238.2Q404.0 237.1 404.0 235.3L404.0 235.3L404.0 210.6Q404.0 208.9 405.0 207.9Q405.9 206.9 407.5 206.9Q409.1 206.9 410.1 207.9Q411.1 208.9 411.1 210.6L411.1 210.6L411.1 212.8L411.3 212.8Q413.9 206.9 420.9 206.9L420.9 206.9Q426.0 206.9 428.8 210.0Q431.7 213.1 431.7 218.5L431.7 218.5L431.7 235.3Q431.7 237.1 430.7 238.2Q429.7 239.2 428.0 239.2Q426.4 239.2 425.4 238.2Q424.4 237.1 424.4 235.3L424.4 235.3L424.4 220.0Q424.4 216.6 422.8 214.9Q421.2 213.1 418.2 213.1L418.2 213.1Q415.0 213.1 413.2 215.2Q411.3 217.2 411.3 220.6L411.3 220.6L411.3 235.3Q411.3 237.1 410.3 238.2ZM462.2 234.9Q458.1 239.2 451.2 239.2Q444.4 239.2 440.3 234.9Q436.2 230.6 436.2 223.1L436.2 223.1Q436.2 215.6 440.3 211.2Q444.4 206.9 451.2 206.9L451.2 206.9Q458.1 206.9 462.2 211.2Q466.3 215.6 466.3 223.1L466.3 223.1Q466.3 230.6 462.2 234.9ZM445.7 230.7Q447.7 233.4 451.2 233.4Q454.8 233.4 456.8 230.7Q458.9 228.0 458.9 223.1L458.9 223.1Q458.9 218.2 456.8 215.4Q454.8 212.7 451.2 212.7L451.2 212.7Q447.8 212.7 445.7 215.4Q443.6 218.2 443.6 223.1L443.6 223.1Q443.6 228.0 445.7 230.7ZM480.8 239.2L480.8 239.2Q478.9 239.2 477.9 238.3Q476.8 237.4 476.2 235.4L476.2 235.4L469.5 212.2Q469.1 210.9 469.1 210.0L469.1 210.0Q469.1 208.7 470.1 207.8Q471.1 206.9 472.6 206.9L472.6 206.9Q475.4 206.9 476.0 210.0L476.0 210.0L481.2 231.4L481.3 231.4L486.7 210.2Q487.5 206.9 490.9 206.9L490.9 206.9Q494.2 206.9 495.0 210.2L495.0 210.2L500.5 231.4L500.6 231.4L505.8 210.0Q506.5 206.9 509.1 206.9L509.1 206.9Q510.7 206.9 511.7 207.8Q512.6 208.6 512.6 210.0L512.6 210.0Q512.6 210.9 512.2 212.2L512.2 212.2L505.5 235.4Q505.0 237.3 503.9 238.3Q502.7 239.2 500.9 239.2L500.9 239.2Q498.9 239.2 497.8 238.3Q496.7 237.4 496.2 235.4L496.2 235.4L490.9 215.9L490.7 215.9L485.4 235.4Q484.5 239.2 480.8 239.2ZM523.2 238.2Q522.2 239.2 520.6 239.2Q518.9 239.2 517.9 238.2Q516.9 237.1 516.9 235.3L516.9 235.3L516.9 199.6Q516.9 197.7 517.9 196.7Q518.9 195.7 520.6 195.7Q522.2 195.7 523.2 196.7Q524.2 197.7 524.2 199.6L524.2 199.6L524.2 235.3Q524.2 237.1 523.2 238.2ZM544.2 239.2L544.2 239.2Q537.1 239.2 533.1 235.0Q529.1 230.7 529.1 223.2L529.1 223.2Q529.1 215.7 533.1 211.3Q537.1 206.9 543.8 206.9L543.8 206.9Q550.2 206.9 554.1 210.9Q558.1 215.0 558.1 221.4L558.1 221.4Q558.1 223.0 557.2 223.9Q556.3 224.8 554.7 224.8L554.7 224.8L536.4 224.8L536.4 225.0Q536.4 228.9 538.5 231.3Q540.6 233.6 544.2 233.6L544.2 233.6Q546.6 233.6 548.4 232.6Q550.2 231.7 551.9 229.4L551.9 229.4Q553.0 228.3 554.4 228.3L554.4 228.3Q555.7 228.3 556.5 229.0Q557.3 229.8 557.3 231.1L557.3 231.1Q557.3 231.9 556.8 232.9L556.8 232.9Q555.3 235.9 552.0 237.5Q548.7 239.2 544.2 239.2ZM536.5 220.0L536.5 220.0L551.0 220.0Q550.8 216.6 548.9 214.6Q546.9 212.5 543.8 212.5Q540.8 212.5 538.7 214.6Q536.7 216.7 536.5 220.0ZM574.4 239.1L574.4 239.1Q568.5 239.1 565.0 234.7Q561.5 230.4 561.5 223.0L561.5 223.0Q561.5 215.7 565.0 211.3Q568.5 207.0 574.4 207.0L574.4 207.0Q577.7 207.0 580.2 208.5Q582.8 210.1 584.0 212.7L584.0 212.7L584.2 212.7L584.2 199.6Q584.2 197.7 585.2 196.7Q586.2 195.7 587.8 195.7Q589.5 195.7 590.5 196.7Q591.5 197.7 591.5 199.6L591.5 199.6L591.5 235.5Q591.5 237.2 590.5 238.2Q589.5 239.2 587.9 239.2L587.9 239.2Q586.2 239.2 585.2 238.2Q584.2 237.2 584.2 235.5L584.2 235.5L584.2 233.1L584.0 233.1Q582.9 235.9 580.4 237.5Q577.9 239.1 574.4 239.1ZM576.6 233.1L576.6 233.1Q580.1 233.1 582.1 230.4Q584.2 227.7 584.2 223.1L584.2 223.1Q584.2 218.5 582.1 215.7Q580.1 213.0 576.6 213.0L576.6 213.0Q573.1 213.0 571.0 215.7Q569.0 218.4 569.0 223.1L569.0 223.1Q569.0 227.7 571.0 230.4Q573.1 233.1 576.6 233.1ZM611.0 250.3L611.0 250.3Q606.6 250.2 603.3 248.7Q600.0 247.2 598.4 244.6L598.4 244.6Q597.8 243.6 597.8 242.4L597.8 242.4Q597.8 241.2 598.6 240.4Q599.5 239.6 600.8 239.6L600.8 239.6Q602.2 239.6 603.5 240.8L603.5 240.8Q605.4 242.7 607.1 243.6Q608.9 244.4 611.1 244.5L611.1 244.5Q614.7 244.5 616.8 242.6Q619.0 240.7 619.0 237.6L619.0 237.6L619.0 232.7L618.8 232.7Q617.6 235.2 615.0 236.7Q612.4 238.3 609.1 238.3L609.1 238.3Q603.2 238.3 599.8 234.0Q596.3 229.8 596.3 222.7L596.3 222.7Q596.3 215.4 599.8 211.2Q603.2 207.0 609.2 207.0L609.2 207.0Q612.5 207.0 615.0 208.5Q617.5 210.1 618.9 212.8L618.9 212.8L619.0 212.8L619.0 210.6Q619.0 208.9 620.0 207.9Q621.0 206.9 622.7 206.9Q624.3 206.9 625.3 207.9Q626.3 208.9 626.3 210.6L626.3 210.6L626.3 237.6Q626.3 243.5 622.2 246.9Q618.1 250.3 611.0 250.3ZM611.3 232.6L611.3 232.6Q614.8 232.6 616.9 229.9Q619.0 227.3 619.0 222.7L619.0 222.7Q619.0 218.2 616.9 215.5Q614.8 212.8 611.3 212.8L611.3 212.8Q607.9 212.8 605.8 215.5Q603.8 218.2 603.8 222.7L603.8 222.7Q603.8 227.3 605.8 230.0Q607.9 232.6 611.3 232.6ZM646.0 239.2L646.0 239.2Q638.9 239.2 634.9 235.0Q630.9 230.7 630.9 223.2L630.9 223.2Q630.9 215.7 634.9 211.3Q638.9 206.9 645.6 206.9L645.6 206.9Q652.0 206.9 656.0 210.9Q659.9 215.0 659.9 221.4L659.9 221.4Q659.9 223.0 659.0 223.9Q658.1 224.8 656.5 224.8L656.5 224.8L638.2 224.8L638.2 225.0Q638.2 228.9 640.3 231.3Q642.4 233.6 646.0 233.6L646.0 233.6Q648.4 233.6 650.2 232.6Q652.0 231.7 653.7 229.4L653.7 229.4Q654.8 228.3 656.2 228.3L656.2 228.3Q657.5 228.3 658.3 229.0Q659.1 229.8 659.1 231.1L659.1 231.1Q659.1 231.9 658.6 232.9L658.6 232.9Q657.1 235.9 653.8 237.5Q650.5 239.2 646.0 239.2ZM638.3 220.0L638.3 220.0L652.8 220.0Q652.7 216.6 650.7 214.6Q648.7 212.5 645.7 212.5Q642.6 212.5 640.5 214.6Q638.5 216.7 638.3 220.0Z M695.9 239.3L695.9 239.3Q686.7 239.3 681.3 233.4Q675.9 227.5 675.9 217.3L675.9 217.3Q675.9 207.2 681.3 201.4Q686.6 195.6 695.8 195.6L695.8 195.6Q701.7 195.6 706.2 198.2Q710.7 200.8 712.5 204.9L712.5 204.9Q713.0 206.2 713.0 207.4L713.0 207.4Q713.0 208.9 712.1 209.8Q711.2 210.7 709.7 210.7L709.7 210.7Q707.3 210.7 705.9 208.3L705.9 208.3Q702.8 202.0 695.8 202.0L695.8 202.0Q690.1 202.0 686.9 206.0Q683.7 210.0 683.7 217.2L683.7 217.2Q683.7 224.5 687.0 228.7Q690.3 232.9 696.0 232.9L696.0 232.9Q700.8 232.9 703.8 230.1Q706.9 227.4 706.9 222.9L706.9 222.9L707.0 222.2L699.5 222.2Q698.1 222.2 697.2 221.4Q696.3 220.6 696.3 219.3Q696.3 218.0 697.2 217.2Q698.0 216.4 699.5 216.4L699.5 216.4L710.6 216.4Q712.4 216.4 713.4 217.5Q714.4 218.5 714.4 220.4L714.4 220.4L714.4 221.2Q714.4 229.6 709.5 234.4Q704.6 239.3 695.9 239.3ZM726.1 238.1Q725.1 239.2 723.4 239.2Q721.7 239.2 720.8 238.1Q719.8 237.1 719.8 235.3L719.8 235.3L719.8 210.6Q719.8 208.9 720.7 207.9Q721.7 206.9 723.3 206.9L723.3 206.9Q724.8 206.9 725.8 207.9Q726.7 208.9 726.7 210.6L726.7 210.6L726.7 213.0L726.9 213.0Q727.5 210.3 729.3 208.6Q731.2 207.0 733.5 207.0L733.5 207.0Q735.2 207.0 736.1 207.8L736.1 207.8Q737.1 208.6 737.1 210.4L737.1 210.4Q737.1 212.1 736.0 213.0L736.0 213.0Q735.0 213.9 732.8 214.0L732.8 214.0Q727.1 214.0 727.1 220.4L727.1 220.4L727.1 235.3Q727.1 237.1 726.1 238.1ZM749.5 239.1L749.5 239.1Q745.0 239.1 742.1 236.5Q739.1 233.9 739.1 229.7L739.1 229.7Q739.1 225.6 742.2 223.2Q745.3 220.8 750.9 220.4L750.9 220.4L759.2 219.9L759.2 217.7Q759.2 215.3 757.6 213.9Q756.1 212.6 753.4 212.6L753.4 212.6Q751.2 212.6 749.7 213.4Q748.2 214.2 746.9 216.2L746.9 216.2Q745.8 217.7 743.9 217.7L743.9 217.7Q742.6 217.7 741.7 216.9Q740.8 216.1 740.8 214.8L740.8 214.8Q740.8 213.8 741.3 212.8L741.3 212.8Q742.5 210.1 745.9 208.5Q749.2 206.9 753.7 206.9L753.7 206.9Q759.4 206.9 762.9 209.7Q766.4 212.5 766.4 217.2L766.4 217.2L766.4 235.5Q766.4 237.2 765.4 238.2Q764.4 239.2 762.8 239.2L762.8 239.2Q761.3 239.2 760.4 238.3Q759.4 237.4 759.4 235.8L759.4 235.8L759.4 233.6L759.2 233.6Q757.9 236.1 755.2 237.6Q752.6 239.1 749.5 239.1ZM751.7 233.6L751.7 233.6Q754.8 233.6 757.0 231.7Q759.2 229.8 759.2 227.1L759.2 227.1L759.2 224.7L752.0 225.1Q749.3 225.3 747.9 226.4Q746.4 227.6 746.4 229.4L746.4 229.4Q746.4 231.3 747.9 232.4Q749.3 233.6 751.7 233.6ZM778.5 248.6Q777.5 249.6 775.9 249.6Q774.2 249.6 773.2 248.6Q772.2 247.6 772.2 245.8L772.2 245.8L772.2 210.7Q772.2 208.9 773.2 207.9Q774.2 206.9 775.8 206.9L775.8 206.9Q777.4 206.9 778.4 207.9Q779.4 208.9 779.4 210.7L779.4 210.7L779.4 212.9L779.5 212.9Q780.9 210.1 783.4 208.6Q786.0 207.0 789.3 207.0L789.3 207.0Q795.2 207.0 798.7 211.3Q802.2 215.6 802.2 223.1L802.2 223.1Q802.2 230.5 798.7 234.8Q795.3 239.1 789.4 239.1L789.4 239.1Q786.1 239.1 783.5 237.6Q781.0 236.1 779.7 233.4L779.7 233.4L779.5 233.4L779.5 245.8Q779.5 247.6 778.5 248.6ZM787.1 233.1L787.1 233.1Q790.6 233.1 792.7 230.4Q794.7 227.7 794.7 223.1L794.7 223.1Q794.7 218.5 792.7 215.7Q790.6 213.0 787.1 213.0L787.1 213.0Q783.7 213.0 781.6 215.8Q779.5 218.5 779.5 223.1L779.5 223.1Q779.5 227.6 781.6 230.4Q783.7 233.1 787.1 233.1ZM813.4 238.2Q812.4 239.2 810.7 239.2Q809.1 239.2 808.1 238.2Q807.1 237.1 807.1 235.3L807.1 235.3L807.1 199.5Q807.1 197.7 808.0 196.7Q809.0 195.7 810.7 195.7L810.7 195.7Q812.4 195.7 813.3 196.7Q814.3 197.7 814.3 199.5L814.3 199.5L814.3 212.9L814.4 212.9Q815.7 210.0 818.2 208.5Q820.7 206.9 824.2 206.9L824.2 206.9Q829.3 206.9 832.2 210.1Q835.1 213.2 835.1 218.6L835.1 218.6L835.1 235.3Q835.1 237.1 834.1 238.2Q833.1 239.2 831.5 239.2Q829.8 239.2 828.8 238.2Q827.8 237.1 827.8 235.3L827.8 235.3L827.8 220.1Q827.8 216.8 826.2 214.9Q824.6 213.1 821.4 213.1L821.4 213.1Q818.2 213.1 816.3 215.2Q814.4 217.3 814.4 220.7L814.4 220.7L814.4 235.3Q814.4 237.1 813.4 238.2ZM852.9 239.2L852.9 239.2Q848.1 239.2 844.8 237.5Q841.4 235.8 840.3 233.0L840.3 233.0Q840.0 232.2 840.0 231.5L840.0 231.5Q840.0 230.2 840.8 229.4Q841.7 228.6 843.0 228.6L843.0 228.6Q844.8 228.6 846.2 230.4L846.2 230.4Q847.5 232.3 849.0 233.1Q850.6 233.9 853.2 233.9L853.2 233.9Q855.8 233.9 857.3 232.9Q858.8 231.8 858.8 230.1L858.8 230.1Q858.8 228.7 857.9 227.8Q856.9 227.0 854.5 226.4L854.5 226.4L849.4 225.3Q840.4 223.3 840.4 216.4L840.4 216.4Q840.4 212.1 843.8 209.5Q847.3 206.9 853.0 206.9L853.0 206.9Q857.4 206.9 860.7 208.8Q863.9 210.6 864.6 213.4L864.6 213.4Q864.8 214.0 864.8 214.5L864.8 214.5Q864.8 215.6 864.0 216.4Q863.3 217.1 862.0 217.1L862.0 217.1Q860.1 217.1 859.2 215.7L859.2 215.7Q858.0 214.0 856.5 213.1Q855.1 212.2 852.9 212.2L852.9 212.2Q850.5 212.2 849.0 213.3Q847.5 214.3 847.5 216.0L847.5 216.0Q847.5 218.8 852.1 219.8L852.1 219.8L857.0 220.9Q861.9 222.0 864.0 223.9Q866.2 225.9 866.2 229.3L866.2 229.3Q866.2 233.8 862.5 236.5Q858.9 239.2 852.9 239.2Z M891.9 239.1L891.9 239.1Q887.4 239.1 884.4 236.5Q881.5 233.9 881.5 229.7L881.5 229.7Q881.5 225.6 884.6 223.2Q887.6 220.8 893.3 220.4L893.3 220.4L901.6 219.9L901.6 217.7Q901.6 215.3 900.0 213.9Q898.5 212.6 895.8 212.6L895.8 212.6Q893.6 212.6 892.1 213.4Q890.6 214.2 889.3 216.2L889.3 216.2Q888.1 217.7 886.3 217.7L886.3 217.7Q885.0 217.7 884.1 216.9Q883.2 216.1 883.2 214.8L883.2 214.8Q883.2 213.8 883.7 212.8L883.7 212.8Q884.9 210.1 888.2 208.5Q891.6 206.9 896.1 206.9L896.1 206.9Q901.8 206.9 905.3 209.7Q908.8 212.5 908.8 217.2L908.8 217.2L908.8 235.5Q908.8 237.2 907.8 238.2Q906.8 239.2 905.2 239.2L905.2 239.2Q903.7 239.2 902.8 238.3Q901.8 237.4 901.7 235.8L901.7 235.8L901.7 233.6L901.6 233.6Q900.3 236.1 897.6 237.6Q894.9 239.1 891.9 239.1ZM894.1 233.6L894.1 233.6Q897.2 233.6 899.4 231.7Q901.6 229.8 901.6 227.1L901.6 227.1L901.6 224.7L894.4 225.1Q891.7 225.3 890.3 226.4Q888.8 227.6 888.8 229.4L888.8 229.4Q888.8 231.3 890.3 232.4Q891.7 233.6 894.1 233.6ZM926.6 239.2L926.6 239.2Q921.8 239.2 918.4 237.5Q915.1 235.8 914.0 233.0L914.0 233.0Q913.7 232.2 913.7 231.5L913.7 231.5Q913.7 230.2 914.5 229.4Q915.4 228.6 916.7 228.6L916.7 228.6Q918.5 228.6 919.9 230.4L919.9 230.4Q921.1 232.3 922.7 233.1Q924.3 233.9 926.9 233.9L926.9 233.9Q929.5 233.9 931.0 232.9Q932.5 231.8 932.5 230.1L932.5 230.1Q932.5 228.7 931.5 227.8Q930.5 227.0 928.2 226.4L928.2 226.4L923.1 225.3Q914.1 223.3 914.1 216.4L914.1 216.4Q914.1 212.1 917.5 209.5Q921.0 206.9 926.7 206.9L926.7 206.9Q931.1 206.9 934.3 208.8Q937.6 210.6 938.3 213.4L938.3 213.4Q938.4 214.0 938.4 214.5L938.4 214.5Q938.4 215.6 937.7 216.4Q937.0 217.1 935.6 217.1L935.6 217.1Q933.8 217.1 932.9 215.7L932.9 215.7Q931.7 214.0 930.2 213.1Q928.8 212.2 926.6 212.2L926.6 212.2Q924.2 212.2 922.7 213.3Q921.2 214.3 921.2 216.0L921.2 216.0Q921.2 218.8 925.7 219.8L925.7 219.8L930.7 220.9Q935.6 222.0 937.7 223.9Q939.9 225.9 939.9 229.3L939.9 229.3Q939.9 233.8 936.2 236.5Q932.6 239.2 926.6 239.2Z M965.6 239.1L965.6 239.1Q961.0 239.1 958.1 236.5Q955.2 233.9 955.2 229.7L955.2 229.7Q955.2 225.6 958.3 223.2Q961.3 220.8 967.0 220.4L967.0 220.4L975.2 219.9L975.2 217.7Q975.2 215.3 973.7 213.9Q972.2 212.6 969.4 212.6L969.4 212.6Q967.3 212.6 965.8 213.4Q964.3 214.2 962.9 216.2L962.9 216.2Q961.8 217.7 960.0 217.7L960.0 217.7Q958.6 217.7 957.8 216.9Q956.9 216.1 956.9 214.8L956.9 214.8Q956.9 213.8 957.4 212.8L957.4 212.8Q958.6 210.1 961.9 208.5Q965.3 206.9 969.7 206.9L969.7 206.9Q975.5 206.9 979.0 209.7Q982.5 212.5 982.5 217.2L982.5 217.2L982.5 235.5Q982.5 237.2 981.5 238.2Q980.5 239.2 978.9 239.2L978.9 239.2Q977.4 239.2 976.4 238.3Q975.5 237.4 975.4 235.8L975.4 235.8L975.4 233.6L975.3 233.6Q974.0 236.1 971.3 237.6Q968.6 239.1 965.6 239.1ZM967.8 233.6L967.8 233.6Q970.9 233.6 973.1 231.7Q975.2 229.8 975.2 227.1L975.2 227.1L975.2 224.7L968.0 225.1Q965.4 225.3 964.0 226.4Q962.5 227.6 962.5 229.4L962.5 229.4Q962.5 231.3 964.0 232.4Q965.4 233.6 967.8 233.6Z M1015.1 239.1L1015.1 239.1Q1013.4 239.1 1012.4 238.1Q1011.4 237.0 1011.4 235.2L1011.4 235.2L1011.4 202.7L1001.7 202.7Q1000.2 202.7 999.2 201.8Q998.3 201.0 998.3 199.5Q998.3 198.0 999.2 197.2Q1000.1 196.3 1001.7 196.3L1001.7 196.3L1028.6 196.3Q1030.2 196.3 1031.1 197.2Q1032.1 198.0 1032.1 199.5Q1032.1 201.0 1031.1 201.8Q1030.1 202.7 1028.6 202.7L1028.6 202.7L1018.9 202.7L1018.9 235.2Q1018.9 237.0 1017.9 238.1Q1016.9 239.1 1015.1 239.1ZM1060.7 234.9Q1056.6 239.2 1049.7 239.2Q1042.8 239.2 1038.8 234.9Q1034.7 230.6 1034.7 223.1L1034.7 223.1Q1034.7 215.6 1038.8 211.2Q1042.9 206.9 1049.7 206.9L1049.7 206.9Q1056.6 206.9 1060.7 211.2Q1064.7 215.6 1064.7 223.1L1064.7 223.1Q1064.7 230.6 1060.7 234.9ZM1044.2 230.7Q1046.2 233.4 1049.7 233.4Q1053.2 233.4 1055.3 230.7Q1057.3 228.0 1057.3 223.1L1057.3 223.1Q1057.3 218.2 1055.3 215.4Q1053.2 212.7 1049.7 212.7L1049.7 212.7Q1046.2 212.7 1044.2 215.4Q1042.1 218.2 1042.1 223.1L1042.1 223.1Q1042.1 228.0 1044.2 230.7ZM1094.1 234.9Q1090.1 239.2 1083.2 239.2Q1076.3 239.2 1072.2 234.9Q1068.1 230.6 1068.1 223.1L1068.1 223.1Q1068.1 215.6 1072.2 211.2Q1076.3 206.9 1083.2 206.9L1083.2 206.9Q1090.0 206.9 1094.1 211.2Q1098.2 215.6 1098.2 223.1L1098.2 223.1Q1098.2 230.6 1094.1 234.9ZM1077.6 230.7Q1079.7 233.4 1083.2 233.4Q1086.7 233.4 1088.7 230.7Q1090.8 228.0 1090.8 223.1L1090.8 223.1Q1090.8 218.2 1088.7 215.4Q1086.7 212.7 1083.2 212.7L1083.2 212.7Q1079.7 212.7 1077.6 215.4Q1075.6 218.2 1075.6 223.1L1075.6 223.1Q1075.6 228.0 1077.6 230.7ZM1109.4 238.2Q1108.4 239.2 1106.8 239.2Q1105.1 239.2 1104.1 238.2Q1103.1 237.1 1103.1 235.3L1103.1 235.3L1103.1 199.6Q1103.1 197.7 1104.1 196.7Q1105.1 195.7 1106.8 195.7Q1108.4 195.7 1109.4 196.7Q1110.4 197.7 1110.4 199.6L1110.4 199.6L1110.4 235.3Q1110.4 237.1 1109.4 238.2Z M51.3 320.7Q50.3 321.7 48.7 321.7Q47.0 321.7 46.0 320.7Q45.0 319.7 45.0 317.9L45.0 317.9L45.0 295.6L43.1 295.6Q41.8 295.6 41.0 294.9Q40.3 294.2 40.3 292.9L40.3 292.9Q40.3 291.6 41.0 290.9Q41.8 290.1 43.1 290.1L43.1 290.1L45.0 290.1L45.0 287.4Q45.0 278.5 53.6 278.5L53.6 278.5Q56.4 278.5 57.8 279.3Q59.2 280.1 59.2 281.5L59.2 281.5Q59.2 283.2 57.5 283.6L57.5 283.6Q56.9 283.8 55.9 283.8L55.9 283.8Q53.9 283.9 53.1 284.8Q52.2 285.7 52.2 287.7L52.2 287.7L52.2 290.1L56.1 290.1Q57.3 290.1 58.1 290.9Q58.9 291.6 58.9 292.9L58.9 292.9Q58.9 294.2 58.1 294.9Q57.3 295.6 56.1 295.6L56.1 295.6L52.3 295.6L52.3 317.9Q52.3 319.7 51.3 320.7ZM87.9 317.4Q83.8 321.7 76.9 321.7Q70.1 321.7 66.0 317.4Q61.9 313.1 61.9 305.6L61.9 305.6Q61.9 298.1 66.0 293.7Q70.1 289.4 76.9 289.4L76.9 289.4Q83.8 289.4 87.9 293.7Q92.0 298.1 92.0 305.6L92.0 305.6Q92.0 313.1 87.9 317.4ZM71.4 313.2Q73.4 315.9 76.9 315.9Q80.5 315.9 82.5 313.2Q84.6 310.5 84.6 305.6L84.6 305.6Q84.6 300.7 82.5 297.9Q80.5 295.2 76.9 295.2L76.9 295.2Q73.5 295.2 71.4 297.9Q69.3 300.7 69.3 305.6L69.3 305.6Q69.3 310.5 71.4 313.2ZM103.0 320.6Q102.0 321.7 100.3 321.7Q98.6 321.7 97.6 320.6Q96.7 319.6 96.7 317.8L96.7 317.8L96.7 293.1Q96.7 291.4 97.6 290.4Q98.6 289.4 100.1 289.4L100.1 289.4Q101.7 289.4 102.6 290.4Q103.6 291.4 103.6 293.1L103.6 293.1L103.6 295.5L103.8 295.5Q104.4 292.8 106.2 291.1Q108.1 289.5 110.4 289.5L110.4 289.5Q112.1 289.5 113.0 290.3L113.0 290.3Q114.0 291.1 114.0 292.9L114.0 292.9Q114.0 294.6 112.9 295.5L112.9 295.5Q111.9 296.4 109.7 296.5L109.7 296.5Q104.0 296.5 104.0 302.9L104.0 302.9L104.0 317.8Q104.0 319.6 103.0 320.6Z M154.4 321.1L133.8 321.1Q132.1 321.1 131.0 320.0Q130.0 319.0 130.0 317.2L130.0 317.2L130.0 282.7Q130.0 280.9 131.0 279.8Q132.1 278.8 133.8 278.8L133.8 278.8L154.4 278.8Q156.0 278.8 156.9 279.7Q157.9 280.5 157.9 282.0Q157.9 283.5 156.9 284.3Q156.0 285.2 154.4 285.2L154.4 285.2L137.6 285.2L137.6 296.6L153.5 296.6Q155.0 296.6 155.9 297.4Q156.8 298.2 156.8 299.6Q156.8 301.0 155.9 301.8Q155.0 302.6 153.5 302.6L153.5 302.6L137.6 302.6L137.6 314.7L154.4 314.7Q156.0 314.7 156.9 315.6Q157.9 316.4 157.9 317.9Q157.9 319.3 156.9 320.2Q156.0 321.1 154.4 321.1L154.4 321.1ZM169.5 320.7Q168.5 321.7 166.9 321.7Q165.2 321.7 164.2 320.7Q163.2 319.6 163.2 317.8L163.2 317.8L163.2 293.1Q163.2 291.4 164.2 290.4Q165.1 289.4 166.7 289.4Q168.3 289.4 169.3 290.4Q170.3 291.4 170.3 293.1L170.3 293.1L170.3 295.3L170.5 295.3Q173.1 289.4 180.1 289.4L180.1 289.4Q185.2 289.4 188.1 292.5Q190.9 295.6 190.9 301.0L190.9 301.0L190.9 317.8Q190.9 319.6 189.9 320.7Q188.9 321.7 187.2 321.7Q185.6 321.7 184.6 320.7Q183.6 319.6 183.6 317.8L183.6 317.8L183.6 302.5Q183.6 299.1 182.0 297.4Q180.4 295.6 177.4 295.6L177.4 295.6Q174.2 295.6 172.4 297.7Q170.5 299.7 170.5 303.1L170.5 303.1L170.5 317.8Q170.5 319.6 169.5 320.7ZM203.2 320.7Q202.2 321.7 200.6 321.7Q198.9 321.7 197.9 320.7Q196.9 319.6 196.9 317.8L196.9 317.8L196.9 282.0Q196.9 280.2 197.9 279.2Q198.8 278.2 200.5 278.2L200.5 278.2Q202.2 278.2 203.2 279.2Q204.1 280.2 204.1 282.0L204.1 282.0L204.1 295.4L204.3 295.4Q205.5 292.5 208.0 291.0Q210.6 289.4 214.1 289.4L214.1 289.4Q219.2 289.4 222.1 292.6Q225.0 295.7 225.0 301.1L225.0 301.1L225.0 317.8Q225.0 319.6 223.9 320.7Q222.9 321.7 221.3 321.7Q219.6 321.7 218.7 320.7Q217.7 319.6 217.7 317.8L217.7 317.8L217.7 302.6Q217.7 299.3 216.0 297.4Q214.4 295.6 211.3 295.6L211.3 295.6Q208.0 295.6 206.1 297.7Q204.2 299.8 204.2 303.2L204.2 303.2L204.2 317.8Q204.2 319.6 203.2 320.7ZM239.9 321.6L239.9 321.6Q235.4 321.6 232.4 319.0Q229.5 316.4 229.5 312.2L229.5 312.2Q229.5 308.1 232.6 305.7Q235.6 303.3 241.3 302.9L241.3 302.9L249.6 302.4L249.6 300.2Q249.6 297.8 248.0 296.4Q246.5 295.1 243.8 295.1L243.8 295.1Q241.6 295.1 240.1 295.9Q238.6 296.7 237.3 298.7L237.3 298.7Q236.1 300.2 234.3 300.2L234.3 300.2Q232.9 300.2 232.1 299.4Q231.2 298.6 231.2 297.3L231.2 297.3Q231.2 296.3 231.7 295.3L231.7 295.3Q232.9 292.6 236.2 291.0Q239.6 289.4 244.1 289.4L244.1 289.4Q249.8 289.4 253.3 292.2Q256.8 295.0 256.8 299.7L256.8 299.7L256.8 318.0Q256.8 319.7 255.8 320.7Q254.8 321.7 253.2 321.7L253.2 321.7Q251.7 321.7 250.8 320.8Q249.8 319.9 249.7 318.3L249.7 318.3L249.7 316.1L249.6 316.1Q248.3 318.6 245.6 320.1Q242.9 321.6 239.9 321.6ZM242.1 316.1L242.1 316.1Q245.2 316.1 247.4 314.2Q249.6 312.3 249.6 309.6L249.6 309.6L249.6 307.2L242.4 307.6Q239.7 307.8 238.3 308.9Q236.8 310.1 236.8 311.9L236.8 311.9Q236.8 313.8 238.3 314.9Q239.7 316.1 242.1 316.1ZM268.9 320.7Q267.9 321.7 266.3 321.7Q264.6 321.7 263.6 320.7Q262.6 319.6 262.6 317.8L262.6 317.8L262.6 293.1Q262.6 291.4 263.6 290.4Q264.5 289.4 266.1 289.4Q267.7 289.4 268.7 290.4Q269.7 291.4 269.7 293.1L269.7 293.1L269.7 295.3L269.9 295.3Q272.5 289.4 279.5 289.4L279.5 289.4Q284.6 289.4 287.5 292.5Q290.3 295.6 290.3 301.0L290.3 301.0L290.3 317.8Q290.3 319.6 289.3 320.7Q288.3 321.7 286.7 321.7Q285.0 321.7 284.0 320.7Q283.0 319.6 283.0 317.8L283.0 317.8L283.0 302.5Q283.0 299.1 281.4 297.4Q279.9 295.6 276.8 295.6L276.8 295.6Q273.6 295.6 271.8 297.7Q269.9 299.7 269.9 303.1L269.9 303.1L269.9 317.8Q269.9 319.6 268.9 320.7ZM309.8 321.7L309.8 321.7Q302.9 321.7 298.9 317.4Q294.8 313.0 294.8 305.6L294.8 305.6Q294.8 298.2 298.9 293.8Q302.9 289.4 309.7 289.4L309.7 289.4Q314.2 289.4 317.8 291.5Q321.4 293.6 322.5 296.9L322.5 296.9Q322.9 297.9 322.9 298.6L322.9 298.6Q322.9 300.0 322.0 300.8Q321.1 301.6 319.7 301.6L319.7 301.6Q318.6 301.6 317.9 301.1Q317.2 300.6 316.5 299.5L316.5 299.5Q314.2 295.3 309.9 295.3L309.9 295.3Q306.4 295.3 304.3 298.1Q302.2 300.8 302.2 305.6L302.2 305.6Q302.2 310.4 304.3 313.1Q306.4 315.8 309.9 315.8L309.9 315.8Q314.2 315.8 316.5 311.8L316.5 311.8Q317.3 310.6 318.0 310.1Q318.7 309.6 319.9 309.6L319.9 309.6Q321.2 309.6 322.1 310.4Q322.9 311.2 322.9 312.6L322.9 312.6Q322.9 313.4 322.5 314.4L322.5 314.4Q321.2 317.6 317.7 319.7Q314.1 321.7 309.8 321.7ZM341.6 321.7L341.6 321.7Q334.5 321.7 330.5 317.5Q326.6 313.2 326.6 305.7L326.6 305.7Q326.6 298.2 330.5 293.8Q334.5 289.4 341.2 289.4L341.2 289.4Q347.6 289.4 351.6 293.4Q355.5 297.5 355.5 303.9L355.5 303.9Q355.5 305.5 354.6 306.4Q353.7 307.3 352.1 307.3L352.1 307.3L333.8 307.3L333.8 307.5Q333.8 311.4 335.9 313.8Q338.0 316.1 341.6 316.1L341.6 316.1Q344.0 316.1 345.8 315.1Q347.6 314.2 349.3 311.9L349.3 311.9Q350.4 310.8 351.8 310.8L351.8 310.8Q353.1 310.8 353.9 311.5Q354.7 312.3 354.7 313.6L354.7 313.6Q354.7 314.4 354.2 315.4L354.2 315.4Q352.7 318.4 349.4 320.0Q346.1 321.7 341.6 321.7ZM333.9 302.5L333.9 302.5L348.4 302.5Q348.3 299.1 346.3 297.1Q344.3 295.0 341.3 295.0Q338.2 295.0 336.1 297.1Q334.1 299.2 333.9 302.5ZM371.8 321.6L371.8 321.6Q365.9 321.6 362.4 317.2Q358.9 312.9 358.9 305.5L358.9 305.5Q358.9 298.2 362.4 293.8Q365.9 289.5 371.8 289.5L371.8 289.5Q375.1 289.5 377.6 291.0Q380.2 292.6 381.4 295.2L381.4 295.2L381.6 295.2L381.6 282.1Q381.6 280.2 382.6 279.2Q383.6 278.2 385.2 278.2Q386.9 278.2 387.9 279.2Q388.9 280.2 388.9 282.1L388.9 282.1L388.9 318.0Q388.9 319.7 387.9 320.7Q386.9 321.7 385.3 321.7L385.3 321.7Q383.7 321.7 382.6 320.7Q381.6 319.7 381.6 318.0L381.6 318.0L381.6 315.6L381.5 315.6Q380.3 318.4 377.8 320.0Q375.3 321.6 371.8 321.6ZM374.0 315.6L374.0 315.6Q377.5 315.6 379.6 312.9Q381.6 310.2 381.6 305.6L381.6 305.6Q381.6 301.0 379.6 298.2Q377.5 295.5 374.0 295.5L374.0 295.5Q370.5 295.5 368.4 298.2Q366.4 300.9 366.4 305.6L366.4 305.6Q366.4 310.2 368.4 312.9Q370.5 315.6 374.0 315.6Z M414.3 320.6Q413.3 321.7 411.5 321.7Q409.8 321.7 408.8 320.6Q407.8 319.6 407.8 317.7L407.8 317.7L407.8 282.7Q407.8 280.9 408.8 279.8Q409.8 278.8 411.5 278.8L411.5 278.8L424.6 278.8Q431.4 278.8 435.3 282.3Q439.2 285.9 439.2 292.0L439.2 292.0Q439.2 296.1 437.1 299.3Q435.1 302.5 431.5 303.9L431.5 303.9L438.1 315.6Q439.0 317.0 439.0 318.2L439.0 318.2Q439.0 319.7 437.9 320.7Q436.8 321.7 435.2 321.7L435.2 321.7Q433.8 321.7 433.0 321.1Q432.2 320.5 431.3 318.9L431.3 318.9L423.8 305.2L415.3 305.2L415.3 317.7Q415.3 319.6 414.3 320.6ZM415.3 284.9L415.3 299.4L423.8 299.4Q427.5 299.4 429.4 297.5Q431.4 295.6 431.4 292.1L431.4 292.1Q431.4 288.8 429.4 286.9Q427.3 284.9 423.7 284.9L423.7 284.9L415.3 284.9ZM469.2 317.4Q465.2 321.7 458.3 321.7Q451.4 321.7 447.3 317.4Q443.2 313.1 443.2 305.6L443.2 305.6Q443.2 298.1 447.3 293.7Q451.4 289.4 458.3 289.4L458.3 289.4Q465.1 289.4 469.2 293.7Q473.3 298.1 473.3 305.6L473.3 305.6Q473.3 313.1 469.2 317.4ZM452.7 313.2Q454.8 315.9 458.3 315.9Q461.8 315.9 463.8 313.2Q465.9 310.5 465.9 305.6L465.9 305.6Q465.9 300.7 463.8 297.9Q461.8 295.2 458.3 295.2L458.3 295.2Q454.8 295.2 452.7 297.9Q450.7 300.7 450.7 305.6L450.7 305.6Q450.7 310.5 452.7 313.2ZM484.3 320.7Q483.3 321.7 481.7 321.7Q480.1 321.7 479.2 320.7Q478.2 319.8 478.2 318.0L478.2 318.0L478.2 282.1Q478.2 280.2 479.2 279.2Q480.2 278.2 481.9 278.2Q483.5 278.2 484.5 279.2Q485.5 280.2 485.5 282.1L485.5 282.1L485.5 295.4L485.7 295.4Q487.0 292.6 489.6 291.0Q492.1 289.5 495.4 289.5L495.4 289.5Q501.3 289.5 504.7 293.8Q508.2 298.1 508.2 305.6L508.2 305.6Q508.2 313.0 504.7 317.3Q501.3 321.6 495.4 321.6L495.4 321.6Q492.0 321.6 489.4 320.1Q486.9 318.5 485.5 315.8L485.5 315.8L485.3 315.8L485.3 318.0Q485.3 319.7 484.3 320.7ZM493.1 315.6L493.1 315.6Q496.6 315.6 498.7 312.9Q500.7 310.2 500.7 305.6Q500.7 300.9 498.7 298.2Q496.6 295.5 493.1 295.5L493.1 295.5Q489.7 295.5 487.6 298.3Q485.5 301.0 485.5 305.6L485.5 305.6Q485.5 310.1 487.6 312.8Q489.7 315.6 493.1 315.6ZM537.6 317.4Q533.5 321.7 526.6 321.7Q519.7 321.7 515.7 317.4Q511.6 313.1 511.6 305.6L511.6 305.6Q511.6 298.1 515.7 293.7Q519.8 289.4 526.6 289.4L526.6 289.4Q533.5 289.4 537.6 293.7Q541.7 298.1 541.7 305.6L541.7 305.6Q541.7 313.1 537.6 317.4ZM521.1 313.2Q523.1 315.9 526.6 315.9Q530.1 315.9 532.2 313.2Q534.2 310.5 534.2 305.6L534.2 305.6Q534.2 300.7 532.2 297.9Q530.1 295.2 526.6 295.2L526.6 295.2Q523.1 295.2 521.1 297.9Q519.0 300.7 519.0 305.6L519.0 305.6Q519.0 310.5 521.1 313.2ZM548.4 313.4L548.4 313.4L548.4 295.6L546.4 295.6Q545.0 295.6 544.3 294.9Q543.5 294.1 543.5 292.8L543.5 292.8Q543.5 291.5 544.2 290.8Q545.0 290.0 546.4 290.0L546.4 290.0L548.4 290.0L548.4 285.9Q548.4 284.1 549.3 283.1Q550.3 282.1 552.0 282.1L552.0 282.1Q553.7 282.1 554.7 283.1Q555.7 284.1 555.7 285.9L555.7 285.9L555.7 290.0L559.0 290.0Q560.4 290.0 561.2 290.8Q562.0 291.5 562.0 292.8L562.0 292.8Q562.0 294.1 561.2 294.9Q560.4 295.6 559.0 295.6L559.0 295.6L555.7 295.6L555.7 311.8Q555.7 313.6 556.3 314.4Q557.0 315.2 558.6 315.4L558.6 315.4L559.1 315.4Q562.0 315.7 562.0 318.1L562.0 318.1Q562.0 319.7 560.7 320.6Q559.3 321.4 556.8 321.4L556.8 321.4L556.5 321.4Q548.4 321.4 548.4 313.4ZM573.2 284.5Q572.0 285.7 570.3 285.7Q568.6 285.7 567.4 284.5Q566.2 283.3 566.2 281.7L566.2 281.7Q566.2 280.0 567.4 278.9Q568.6 277.7 570.3 277.7L570.3 277.7Q572.0 277.7 573.2 278.9Q574.3 280.0 574.3 281.7L574.3 281.7Q574.3 283.3 573.2 284.5ZM572.9 320.6Q571.9 321.7 570.3 321.7Q568.6 321.7 567.6 320.6Q566.6 319.6 566.6 317.8L566.6 317.8L566.6 293.2Q566.6 291.5 567.6 290.4Q568.6 289.4 570.3 289.4Q571.9 289.4 572.9 290.4Q573.9 291.5 573.9 293.3L573.9 293.3L573.9 317.8Q573.9 319.6 572.9 320.6ZM593.7 321.7L593.7 321.7Q586.9 321.7 582.8 317.4Q578.8 313.0 578.8 305.6L578.8 305.6Q578.8 298.2 582.8 293.8Q586.9 289.4 593.7 289.4L593.7 289.4Q598.2 289.4 601.8 291.5Q605.3 293.6 606.4 296.9L606.4 296.9Q606.8 297.9 606.8 298.6L606.8 298.6Q606.8 300.0 605.9 300.8Q605.0 301.6 603.7 301.6L603.7 301.6Q602.6 301.6 601.9 301.1Q601.1 300.6 600.5 299.5L600.5 299.5Q598.2 295.3 593.9 295.3L593.9 295.3Q590.3 295.3 588.3 298.1Q586.2 300.8 586.2 305.6L586.2 305.6Q586.2 310.4 588.2 313.1Q590.3 315.8 593.8 315.8L593.8 315.8Q598.2 315.8 600.4 311.8L600.4 311.8Q601.2 310.6 601.9 310.1Q602.6 309.6 603.8 309.6L603.8 309.6Q605.1 309.6 606.0 310.4Q606.9 311.2 606.9 312.6L606.9 312.6Q606.9 313.4 606.5 314.4L606.5 314.4Q605.1 317.6 601.6 319.7Q598.1 321.7 593.7 321.7Z M628.3 321.6L628.3 321.6Q626.6 321.6 625.5 320.5Q624.5 319.5 624.5 317.7L624.5 317.7L624.5 282.7Q624.5 280.9 625.5 279.8Q626.6 278.8 628.3 278.8L628.3 278.8L641.0 278.8Q647.3 278.8 651.3 282.7Q655.2 286.6 655.2 293.0L655.2 293.0Q655.2 299.3 651.1 303.2Q647.1 307.1 640.6 307.1L640.6 307.1L632.1 307.1L632.1 317.7Q632.1 319.5 631.1 320.6Q630.1 321.6 628.3 321.6ZM632.1 285.0L632.1 301.0L638.9 301.0Q643.0 301.0 645.3 298.9Q647.5 296.8 647.5 293.0L647.5 293.0Q647.5 289.1 645.3 287.1Q643.0 285.0 639.0 285.0L639.0 285.0L632.1 285.0ZM673.8 321.7L673.8 321.7Q666.7 321.7 662.7 317.5Q658.7 313.2 658.7 305.7L658.7 305.7Q658.7 298.2 662.7 293.8Q666.7 289.4 673.4 289.4L673.4 289.4Q679.7 289.4 683.7 293.4Q687.7 297.5 687.7 303.9L687.7 303.9Q687.7 305.5 686.8 306.4Q685.9 307.3 684.3 307.3L684.3 307.3L666.0 307.3L666.0 307.5Q666.0 311.4 668.1 313.8Q670.2 316.1 673.7 316.1L673.7 316.1Q676.2 316.1 678.0 315.1Q679.7 314.2 681.5 311.9L681.5 311.9Q682.5 310.8 683.9 310.8L683.9 310.8Q685.2 310.8 686.0 311.5Q686.9 312.3 686.9 313.6L686.9 313.6Q686.9 314.4 686.4 315.4L686.4 315.4Q684.8 318.4 681.5 320.0Q678.2 321.7 673.8 321.7ZM666.0 302.5L666.0 302.5L680.5 302.5Q680.4 299.1 678.4 297.1Q676.5 295.0 673.4 295.0Q670.3 295.0 668.3 297.1Q666.2 299.2 666.0 302.5ZM698.7 320.6Q697.7 321.7 696.0 321.7Q694.3 321.7 693.3 320.6Q692.4 319.6 692.4 317.8L692.4 317.8L692.4 293.1Q692.4 291.4 693.3 290.4Q694.3 289.4 695.8 289.4L695.8 289.4Q697.4 289.4 698.3 290.4Q699.3 291.4 699.3 293.1L699.3 293.1L699.3 295.5L699.4 295.5Q700.1 292.8 701.9 291.1Q703.8 289.5 706.1 289.5L706.1 289.5Q707.8 289.5 708.7 290.3L708.7 290.3Q709.7 291.1 709.7 292.9L709.7 292.9Q709.7 294.6 708.6 295.5L708.6 295.5Q707.6 296.4 705.4 296.5L705.4 296.5Q699.6 296.5 699.6 302.9L699.6 302.9L699.6 317.8Q699.6 319.6 698.7 320.6ZM726.6 321.7L726.6 321.7Q719.8 321.7 715.7 317.4Q711.7 313.0 711.7 305.6L711.7 305.6Q711.7 298.2 715.7 293.8Q719.8 289.4 726.6 289.4L726.6 289.4Q731.1 289.4 734.7 291.5Q738.2 293.6 739.3 296.9L739.3 296.9Q739.7 297.9 739.7 298.6L739.7 298.6Q739.7 300.0 738.8 300.8Q737.9 301.6 736.6 301.6L736.6 301.6Q735.5 301.6 734.8 301.1Q734.0 300.6 733.4 299.5L733.4 299.5Q731.1 295.3 726.8 295.3L726.8 295.3Q723.3 295.3 721.2 298.1Q719.1 300.8 719.1 305.6L719.1 305.6Q719.1 310.4 721.2 313.1Q723.2 315.8 726.7 315.8L726.7 315.8Q731.1 315.8 733.4 311.8L733.4 311.8Q734.1 310.6 734.8 310.1Q735.6 309.6 736.7 309.6L736.7 309.6Q738.1 309.6 738.9 310.4Q739.8 311.2 739.8 312.6L739.8 312.6Q739.8 313.4 739.4 314.4L739.4 314.4Q738.1 317.6 734.5 319.7Q731.0 321.7 726.6 321.7ZM758.5 321.7L758.5 321.7Q751.4 321.7 747.4 317.5Q743.4 313.2 743.4 305.7L743.4 305.7Q743.4 298.2 747.4 293.8Q751.4 289.4 758.1 289.4L758.1 289.4Q764.5 289.4 768.4 293.4Q772.4 297.5 772.4 303.9L772.4 303.9Q772.4 305.5 771.5 306.4Q770.6 307.3 769.0 307.3L769.0 307.3L750.7 307.3L750.7 307.5Q750.7 311.4 752.8 313.8Q754.9 316.1 758.4 316.1L758.4 316.1Q760.9 316.1 762.7 315.1Q764.5 314.2 766.2 311.9L766.2 311.9Q767.3 310.8 768.7 310.8L768.7 310.8Q769.9 310.8 770.8 311.5Q771.6 312.3 771.6 313.6L771.6 313.6Q771.6 314.4 771.1 315.4L771.1 315.4Q769.6 318.4 766.2 320.0Q762.9 321.7 758.5 321.7ZM750.7 302.5L750.7 302.5L765.2 302.5Q765.1 299.1 763.2 297.1Q761.2 295.0 758.1 295.0Q755.0 295.0 753.0 297.1Q750.9 299.2 750.7 302.5ZM783.4 331.1Q782.4 332.1 780.7 332.1Q779.1 332.1 778.1 331.1Q777.1 330.1 777.1 328.3L777.1 328.3L777.1 293.2Q777.1 291.4 778.1 290.4Q779.0 289.4 780.6 289.4L780.6 289.4Q782.2 289.4 783.2 290.4Q784.2 291.4 784.2 293.2L784.2 293.2L784.2 295.4L784.3 295.4Q785.7 292.6 788.2 291.1Q790.8 289.5 794.1 289.5L794.1 289.5Q800.0 289.5 803.5 293.8Q807.0 298.1 807.0 305.6L807.0 305.6Q807.0 313.0 803.6 317.3Q800.1 321.6 794.2 321.6L794.2 321.6Q790.9 321.6 788.4 320.1Q785.8 318.6 784.5 315.9L784.5 315.9L784.4 315.9L784.4 328.3Q784.4 330.1 783.4 331.1ZM791.9 315.6L791.9 315.6Q795.4 315.6 797.5 312.9Q799.6 310.2 799.6 305.6L799.6 305.6Q799.6 301.0 797.5 298.2Q795.4 295.5 791.9 295.5L791.9 295.5Q788.5 295.5 786.4 298.3Q784.3 301.0 784.3 305.6L784.3 305.6Q784.3 310.1 786.4 312.9Q788.5 315.6 791.9 315.6ZM813.7 313.4L813.7 313.4L813.7 295.6L811.8 295.6Q810.4 295.6 809.6 294.9Q808.8 294.1 808.8 292.8L808.8 292.8Q808.8 291.5 809.6 290.8Q810.4 290.0 811.8 290.0L811.8 290.0L813.7 290.0L813.7 285.9Q813.7 284.1 814.7 283.1Q815.7 282.1 817.4 282.1L817.4 282.1Q819.1 282.1 820.0 283.1Q821.0 284.1 821.0 285.9L821.0 285.9L821.0 290.0L824.4 290.0Q825.8 290.0 826.5 290.8Q827.3 291.5 827.3 292.8L827.3 292.8Q827.3 294.1 826.5 294.9Q825.7 295.6 824.4 295.6L824.4 295.6L821.0 295.6L821.0 311.8Q821.0 313.6 821.7 314.4Q822.4 315.2 824.0 315.4L824.0 315.4L824.5 315.4Q827.4 315.7 827.4 318.1L827.4 318.1Q827.4 319.7 826.1 320.6Q824.7 321.4 822.2 321.4L822.2 321.4L821.9 321.4Q813.7 321.4 813.7 313.4ZM838.5 284.5Q837.3 285.7 835.6 285.7Q833.9 285.7 832.8 284.5Q831.6 283.3 831.6 281.7L831.6 281.7Q831.6 280.0 832.8 278.9Q833.9 277.7 835.6 277.7L835.6 277.7Q837.4 277.7 838.5 278.9Q839.7 280.0 839.7 281.7L839.7 281.7Q839.7 283.3 838.5 284.5ZM838.3 320.6Q837.3 321.7 835.6 321.7Q834.0 321.7 833.0 320.6Q832.0 319.6 832.0 317.8L832.0 317.8L832.0 293.2Q832.0 291.5 833.0 290.4Q834.0 289.4 835.6 289.4Q837.3 289.4 838.3 290.4Q839.3 291.5 839.3 293.3L839.3 293.3L839.3 317.8Q839.3 319.6 838.3 320.6ZM870.1 317.4Q866.1 321.7 859.2 321.7Q852.3 321.7 848.2 317.4Q844.1 313.1 844.1 305.6L844.1 305.6Q844.1 298.1 848.2 293.7Q852.3 289.4 859.2 289.4L859.2 289.4Q866.0 289.4 870.1 293.7Q874.2 298.1 874.2 305.6L874.2 305.6Q874.2 313.1 870.1 317.4ZM853.6 313.2Q855.7 315.9 859.2 315.9Q862.7 315.9 864.7 313.2Q866.8 310.5 866.8 305.6L866.8 305.6Q866.8 300.7 864.7 297.9Q862.7 295.2 859.2 295.2L859.2 295.2Q855.7 295.2 853.6 297.9Q851.6 300.7 851.6 305.6L851.6 305.6Q851.6 310.5 853.6 313.2ZM885.2 320.7Q884.2 321.7 882.5 321.7Q880.9 321.7 879.9 320.7Q878.9 319.6 878.9 317.8L878.9 317.8L878.9 293.1Q878.9 291.4 879.8 290.4Q880.8 289.4 882.4 289.4Q884.0 289.4 885.0 290.4Q886.0 291.4 886.0 293.1L886.0 293.1L886.0 295.3L886.1 295.3Q888.8 289.4 895.8 289.4L895.8 289.4Q900.9 289.4 903.7 292.5Q906.5 295.6 906.5 301.0L906.5 301.0L906.5 317.8Q906.5 319.6 905.5 320.7Q904.6 321.7 902.9 321.7Q901.3 321.7 900.3 320.7Q899.2 319.6 899.2 317.8L899.2 317.8L899.2 302.5Q899.2 299.1 897.7 297.4Q896.1 295.6 893.0 295.6L893.0 295.6Q889.9 295.6 888.0 297.7Q886.2 299.7 886.2 303.1L886.2 303.1L886.2 317.8Q886.2 319.6 885.2 320.7Z "/><defs><clipPath id="satori_bc-id-0-1"><rect x="0" y="441" width="1200" height="189"/></clipPath></defs><mask id="satori_om-id-0-1"><rect x="0" y="442" width="1200" height="188" fill="#fff"/><path width="1200" height="189" fill="none" stroke="#000" stroke-width="2" d="M0,441 A0,0 0 0 1 0,441 h1200 A0,0 0 0 1 1200,441"/></mask><path width="1200" height="189" clip-path="url(#satori_bc-id-0-1)" fill="none" stroke="#dbdbdb" stroke-width="2" d="M0,441 A0,0 0 0 1 0,441 h1200 A0,0 0 0 1 1200,441"/><mask id="satori_om-id-0-1-0"><rect x="40" y="482" width="389" height="108" fill="#fff"/></mask><clipPath id="satori_cp-id-0-1-0-0"><rect x="40" y="504" width="64" height="64"/></clipPath><mask id="satori_om-id-0-1-0-0"><rect x="40" y="504" width="64" height="64" fill="#fff"/></mask><image x="40" y="504" width="64" height="64" href="data:image/svg+xml;utf8,%3Csvg  xmlns=%22http://www.w3.org/2000/svg%22 width=%2264%22 height=%2264%22 viewBox=%220 0 128 128%22%3E%3Cpath fill=%22%23224d67%22 d=%22M22.5 14.8c2.9 1.3 99 44 99 44c2.7 1.2 2.9 3.1 2 12.4c-1 10.5-1.9 37.8-40.2 42.9c-24.6 3.2-55.9-4.3-70.9-27.2C-6 58.8 11 23.4 14.8 17.7c2.4-3.5 4.8-4.2 7.7-2.9%22%3E%3C/path%3E%3Cpath fill=%22%23f0f4c3%22 d=%22M121.5 58.8c-.3-.2-92-40.8-98.9-43.9C9.6 31.5-3.8 76 27.9 96.2c33.6 21.5 78.7-10.2 93.6-37.4%22%3E%3C/path%3E%3Cpath fill=%22%23f0f4c3%22 d=%22M117.7 57c-.3-.2-86.7-38.4-93.2-41.3c-12.2 15.5-23.9 59.1 5.7 78c31.4 20.2 73.6-11.2 87.5-36.7%22%3E%3C/path%3E%3Cpath fill=%22%23cb2a42%22 d=%22M56.2 37.6L19.5 48.2c-2.5.8-4.4 2.8-5 5.3c-1.9 8.5.8 23.3 8.9 29.8c3.5 2.7 8.6 1.8 10.8-2.1L58.5 41c1.3-1.7.5-4.2-2.3-3.4m14.3 2.9s14.6 30.1 16 33s6.3 4.7 9.9 2.8c10.7-5.6 15.5-12.4 19.2-20.2c-8.9-3.9-42.4-18.8-42.4-18.8c-2.4-1.1-4 .6-2.7 3.2m-8.6 1.9C60.3 45.1 39.5 81 37.6 84.1c-1.9 3.2-.7 7.5 2.7 9.2c12.3 6.5 30.9.4 39.6-7c2.2-1.9 4.5-5.1 3.2-8.2S68.9 44.6 67.8 42.3c-1.2-2.7-4.1-2.8-5.9.1%22%3E%3C/path%3E%3Cpath fill=%22%23f0f4c3%22 d=%22M52.2 42.2c-1.4.4-10.1 3-11.1 3.4c-1.4.5-2.2 1.7-1.9 2.5c.3.9 1.7 1.1 3.1.6c.8-.3 7.1-3.9 9.5-5.2c-3.1 2.4-10.2 9.4-11.1 10.3c-1.4 1.5-1.7 3.4-.8 4.3c1 .9 2.9.5 4.3-1c1.2-1.3 8.5-12.8 9.1-13.9s.4-1.4-1.1-1m10.1 16.4c0-2.2 1.4-10.3 1.8-12.3c.4-1.6 1.5-1.8 1.8.5s1.7 9.7 1.7 11.8s-1.2 3.3-2.7 3.3c-1.4 0-2.6-1.1-2.6-3.3M79.9 49c-1.2-1.8-3.3-4.9-4.1-6.1c-.7-1.2.1-2.1 1.8-.9s4 2.9 5.4 4c1.6 1.3 1.9 3 .8 4s-2.7.8-3.9-1%22%3E%3C/path%3E%3Cellipse cx=%2287.3%22 cy=%22103.12%22 fill=%22%23cb2a42%22 rx=%223.4%22 ry=%222.3%22 transform=%22rotate(-27.098 87.298 103.126)%22%3E%3C/ellipse%3E%3Cellipse cx=%2298.89%22 cy=%22103.82%22 fill=%22%23cb2a42%22 rx=%223.4%22 ry=%222.3%22 transform=%22rotate(-30.642 98.887 103.818)%22%3E%3C/ellipse%3E%3Cellipse cx=%22102.02%22 cy=%2293.8%22 fill=%22%23cb2a42%22 rx=%223.4%22 ry=%222.3%22 transform=%22rotate(-37.16 102.017 93.797)%22%3E%3C/ellipse%3E%3Cpath fill=%22%23cb2a42%22 d=%22M57.6 30.3c-8.3-3.7-24.4-10.7-29.6-13c-3.6 2.2-9.7 11.4-11.2 21.2c-.6 3.6 1.7 5.9 5.3 4.9c0 0 33.7-9.3 35.3-9.7c1.6-.5 2-2.6.2-3.4%22%3E%3C/path%3E%3C/svg%3E" preserveAspectRatio="none" clip-path="url(#satori_cp-id-0-1-0-0)" mask="url(#satori_om-id-0-1-0-0)"/><mask id="satori_om-id-0-1-0-0-0"><rect x="40" y="504" width="0" height="64" fill="#fff"/></mask><mask id="satori_om-id-0-1-0-0-1"><rect x="40" y="504" width="0" height="64" fill="#fff"/></mask><mask id="satori_om-id-0-1-0-0-2"><rect x="40" y="504" width="0" height="64" fill="#fff"/></mask><mask id="satori_om-id-0-1-0-0-3"><rect x="40" y="504" width="0" height="64" fill="#fff"/></mask><mask id="satori_om-id-0-1-0-0-4"><rect x="40" y="504" width="0" height="64" fill="#fff"/></mask><mask id="satori_om-id-0-1-0-0-5"><rect x="40" y="504" width="0" height="64" fill="#fff"/></mask><mask id="satori_om-id-0-1-0-0-6"><rect x="40" y="504" width="0" height="64" fill="#fff"/></mask><mask id="satori_om-id-0-1-0-0-7"><rect x="40" y="504" width="0" height="64" fill="#fff"/></mask><mask id="satori_om-id-0-1-0-0-8"><rect x="40" y="504" width="0" height="64" fill="#fff"/></mask><mask id="satori_om-id-0-1-0-1"><rect x="116" y="512" width="313" height="48" fill="#fff"/></mask><path fill="#545454" d="M133.0 553.6L133.0 553.6Q126.5 553.6 122.7 550.2Q118.8 546.7 118.8 541.1L118.8 541.1L118.8 522.5Q118.8 520.7 119.8 519.7Q120.7 518.8 122.4 518.8Q124.0 518.8 125.0 519.7Q125.9 520.7 125.9 522.5L125.9 522.5L125.9 540.4Q125.9 543.7 127.8 545.6Q129.6 547.6 133.0 547.6L133.0 547.6Q136.3 547.6 138.2 545.6Q140.1 543.7 140.1 540.4L140.1 540.4L140.1 522.5Q140.1 520.7 141.0 519.7Q141.9 518.8 143.6 518.8Q145.3 518.8 146.2 519.7Q147.1 520.7 147.1 522.5L147.1 522.5L147.1 541.1Q147.1 546.7 143.3 550.2Q139.4 553.6 133.0 553.6ZM158.9 552.6Q158.0 553.6 156.3 553.6Q154.6 553.6 153.7 552.6Q152.8 551.6 152.8 549.9L152.8 549.9L152.8 522.9Q152.8 521.2 153.7 520.2Q154.6 519.2 156.3 519.2L156.3 519.2L166.6 519.2Q172.4 519.2 175.6 522.1Q178.9 525.0 178.9 530.0L178.9 530.0Q178.9 533.2 177.3 535.8Q175.8 538.3 173.0 539.4L173.0 539.4L177.9 547.9Q178.7 549.2 178.7 550.3L178.7 550.3Q178.7 551.7 177.7 552.6Q176.7 553.6 175.1 553.6L175.1 553.6Q173.8 553.6 173.1 553.0Q172.4 552.5 171.5 550.9L171.5 550.9L165.9 540.7L159.9 540.7L159.9 549.9Q159.9 551.6 158.9 552.6ZM159.9 524.8L159.9 535.6L165.9 535.6Q168.6 535.6 170.1 534.1Q171.6 532.7 171.6 530.2L171.6 530.2Q171.6 527.7 170.0 526.2Q168.5 524.8 165.9 524.8L165.9 524.8L159.9 524.8ZM196.2 542.3L186.4 542.3Q185.0 542.3 184.1 541.5Q183.2 540.7 183.2 539.3Q183.2 537.9 184.1 537.1Q185.0 536.3 186.4 536.3L186.4 536.3L196.2 536.3Q197.6 536.3 198.5 537.1Q199.4 537.9 199.4 539.3Q199.4 540.7 198.5 541.5Q197.6 542.3 196.2 542.3L196.2 542.3ZM210.9 552.6Q209.9 553.6 208.3 553.6Q206.6 553.6 205.6 552.6Q204.7 551.6 204.7 549.9L204.7 549.9L204.7 522.9Q204.7 521.2 205.6 520.2Q206.6 519.2 208.3 519.2L208.3 519.2L218.6 519.2Q224.4 519.2 227.6 522.1Q230.8 525.0 230.8 530.0L230.8 530.0Q230.8 533.2 229.3 535.8Q227.8 538.3 225.0 539.4L225.0 539.4L229.9 547.9Q230.6 549.2 230.6 550.3L230.6 550.3Q230.6 551.7 229.6 552.6Q228.6 553.6 227.0 553.6L227.0 553.6Q225.8 553.6 225.0 553.0Q224.3 552.5 223.4 550.9L223.4 550.9L217.8 540.7L211.8 540.7L211.8 549.9Q211.8 551.6 210.9 552.6ZM211.8 524.8L211.8 535.6L217.9 535.6Q220.6 535.6 222.0 534.1Q223.5 532.7 223.5 530.2L223.5 530.2Q223.5 527.7 222.0 526.2Q220.4 524.8 217.8 524.8L217.8 524.8L211.8 524.8ZM237.7 553.5L237.7 553.5Q236.0 553.5 235.1 552.6Q234.1 551.7 234.1 550.2L234.1 550.2Q234.1 549.3 234.6 547.9L234.6 547.9L243.8 522.8Q244.6 520.7 245.8 519.7Q247.1 518.8 249.1 518.8L249.1 518.8Q251.2 518.8 252.5 519.7Q253.8 520.7 254.5 522.8L254.5 522.8L263.8 547.9Q264.3 549.2 264.3 550.2L264.3 550.2Q264.3 551.6 263.3 552.6Q262.3 553.5 260.7 553.5L260.7 553.5Q259.2 553.5 258.4 552.8Q257.5 552.1 257.0 550.4L257.0 550.4L255.3 545.0L243.1 545.0L241.3 550.3Q240.8 552.0 239.9 552.8Q239.1 553.5 237.7 553.5ZM249.0 525.7L244.6 539.6L253.6 539.6L249.1 525.7L249.0 525.7ZM281.5 553.1L272.1 553.1Q270.4 553.1 269.5 552.1Q268.6 551.1 268.6 549.4L268.6 549.4L268.6 522.9Q268.6 521.2 269.5 520.2Q270.4 519.2 272.1 519.2L272.1 519.2L281.5 519.2Q289.1 519.2 293.4 523.6Q297.6 528.0 297.6 536.0L297.6 536.0Q297.6 544.1 293.3 548.6Q289.1 553.1 281.5 553.1L281.5 553.1ZM275.6 525.1L275.6 547.2L280.6 547.2Q285.4 547.2 287.9 544.4Q290.4 541.5 290.4 536.0L290.4 536.0Q290.4 530.8 287.8 527.9Q285.3 525.1 280.6 525.1L280.6 525.1L275.6 525.1Z M333.2 553.1L314.5 553.1Q312.9 553.1 312.0 552.2Q311.2 551.4 311.2 550.0L311.2 550.0Q311.2 549.1 311.6 548.3Q312.0 547.5 313.1 546.5L313.1 546.5L323.2 536.9Q326.3 533.8 327.4 532.2Q328.4 530.6 328.4 528.8L328.4 528.8Q328.4 526.7 327.0 525.3Q325.5 524 323.3 524L323.3 524Q319.3 524 317.4 528.1L317.4 528.1Q316.8 529.2 316.1 529.7Q315.4 530.1 314.3 530.1L314.3 530.1Q312.9 530.1 312.1 529.4Q311.3 528.6 311.3 527.3L311.3 527.3Q311.3 526.5 311.5 525.7L311.5 525.7Q312.5 522.7 315.6 520.6Q318.8 518.5 323.3 518.5L323.3 518.5Q328.7 518.5 332.0 521.2Q335.3 524.0 335.3 528.3L335.3 528.3Q335.3 529.9 335.0 531.2Q334.6 532.5 333.6 533.9Q332.6 535.3 331.3 536.8Q330.0 538.2 327.8 540.3L327.8 540.3L320.5 547.3L320.5 547.4L333.2 547.4Q334.6 547.4 335.4 548.2Q336.1 549.0 336.1 550.3L336.1 550.3Q336.1 551.5 335.4 552.3Q334.6 553.1 333.2 553.1L333.2 553.1ZM363.6 549.0Q359.9 553.8 353.5 553.8Q347.1 553.8 343.4 549.1Q339.7 544.3 339.7 536.1L339.7 536.1Q339.7 527.9 343.4 523.2Q347.1 518.5 353.5 518.5Q359.9 518.5 363.6 523.2Q367.3 527.9 367.3 536.1L367.3 536.1Q367.3 544.3 363.6 549.0ZM348.6 545.0Q350.4 548.1 353.5 548.1Q356.7 548.1 358.4 545.0Q360.1 541.9 360.1 536.1L360.1 536.1Q360.1 530.4 358.4 527.2Q356.7 524.1 353.5 524.1L353.5 524.1Q350.4 524.1 348.7 527.3Q346.9 530.4 346.9 536.1L346.9 536.1Q346.9 541.9 348.6 545.0ZM393.6 553.1L374.9 553.1Q373.3 553.1 372.4 552.2Q371.6 551.4 371.6 550.0L371.6 550.0Q371.6 549.1 372.0 548.3Q372.5 547.5 373.5 546.5L373.5 546.5L383.6 536.9Q386.8 533.8 387.8 532.2Q388.9 530.6 388.9 528.8L388.9 528.8Q388.9 526.7 387.4 525.3Q386.0 524 383.7 524L383.7 524Q379.7 524 377.9 528.1L377.9 528.1Q377.3 529.2 376.5 529.7Q375.8 530.1 374.7 530.1L374.7 530.1Q373.3 530.1 372.5 529.4Q371.7 528.6 371.7 527.3L371.7 527.3Q371.7 526.5 372.0 525.7L372.0 525.7Q372.9 522.7 376.0 520.6Q379.2 518.5 383.8 518.5L383.8 518.5Q389.1 518.5 392.4 521.2Q395.8 524.0 395.8 528.3L395.8 528.3Q395.8 529.9 395.4 531.2Q395 532.5 394.0 533.9Q393.1 535.3 391.7 536.8Q390.4 538.2 388.2 540.3L388.2 540.3L380.9 547.3L380.9 547.4L393.6 547.4Q395 547.4 395.8 548.2Q396.6 549.0 396.6 550.3L396.6 550.3Q396.6 551.5 395.8 552.3Q395 553.1 393.6 553.1L393.6 553.1ZM413.6 553.8L413.6 553.8Q409.6 553.8 406.3 552.1Q403.1 550.4 401.8 547.7L401.8 547.7Q401.3 546.5 401.3 545.4L401.3 545.4Q401.3 544.0 402.0 543.3Q402.8 542.5 404.2 542.5L404.2 542.5Q405.3 542.5 406.0 542.9Q406.7 543.3 407.3 544.3L407.3 544.3Q409.3 548.2 413.6 548.2L413.6 548.2Q416.3 548.2 418.1 546.4Q419.9 544.6 419.9 541.9L419.9 541.9Q419.9 539.2 418.1 537.5Q416.4 535.8 413.6 535.8L413.6 535.8Q410.8 535.8 408.7 537.8L408.7 537.8Q407.6 538.8 406.9 539.1Q406.2 539.4 405.0 539.4L405.0 539.4Q403.4 539.4 402.5 538.4Q401.6 537.4 401.7 535.9L401.7 535.9Q401.7 535.8 401.7 535.6L401.7 535.6L402.7 523.3Q402.9 521.1 404.0 520.2Q405.1 519.2 407.2 519.2L407.2 519.2L422 519.2Q423.3 519.2 424.1 520.0Q424.9 520.8 424.9 522.1Q424.9 523.3 424.1 524.1Q423.3 524.9 422 524.9L422 524.9L408.6 524.9L407.8 534.3L408.0 534.3Q409.0 532.6 411.0 531.7Q413.0 530.7 415.6 530.7L415.6 530.7Q420.4 530.7 423.5 533.8Q426.6 536.9 426.6 541.7L426.6 541.7Q426.6 547.1 423.0 550.5Q419.4 553.8 413.6 553.8Z "/><mask id="satori_om-id-0-1-1"><rect x="1013" y="524" width="147" height="36" fill="#fff"/></mask><path fill="#8e8e8e" d="M1016.9 552.6Q1016.5 552.9 1016.0 552.9Q1015.4 552.9 1015.1 552.6Q1014.8 552.2 1014.8 551.7L1014.8 551.7L1014.8 532.6Q1014.8 532.0 1015.1 531.6Q1015.5 531.3 1016.1 531.3Q1016.6 531.3 1017.0 531.6Q1017.3 532.0 1017.3 532.6L1017.3 532.6L1017.3 540.0L1017.4 540.0Q1018.1 538.7 1019.4 537.9Q1020.7 537.2 1022.3 537.2L1022.3 537.2Q1025.2 537.2 1026.9 539.3Q1028.7 541.5 1028.7 545.0L1028.7 545.0Q1028.7 548.6 1026.9 550.8Q1025.2 552.9 1022.2 552.9L1022.2 552.9Q1020.6 552.9 1019.3 552.2Q1018.0 551.4 1017.3 550.1L1017.3 550.1L1017.2 550.1L1017.2 551.7Q1017.2 552.2 1016.9 552.6ZM1021.7 550.7L1021.7 550.7Q1023.8 550.7 1024.9 549.2Q1026.1 547.7 1026.1 545.0L1026.1 545.0Q1026.1 542.5 1024.9 540.9Q1023.8 539.4 1021.7 539.4L1021.7 539.4Q1019.8 539.4 1018.6 541.0Q1017.3 542.5 1017.3 545.0L1017.3 545.0Q1017.3 547.6 1018.6 549.1Q1019.8 550.7 1021.7 550.7ZM1032.8 558.4L1032.8 558.4Q1031.9 558.4 1031.4 558.0Q1030.9 557.7 1030.9 557.1L1030.9 557.1Q1030.9 556.7 1031.1 556.4Q1031.4 556.2 1031.9 556.2L1031.9 556.2Q1032.1 556.2 1032.3 556.2Q1032.5 556.2 1032.7 556.2L1032.7 556.2Q1034.4 556.2 1035.2 553.7L1035.2 553.7L1035.6 552.7L1030.3 539.0Q1030.2 538.6 1030.2 538.3L1030.2 538.3Q1030.2 537.8 1030.6 537.5Q1030.9 537.2 1031.5 537.2L1031.5 537.2Q1032.4 537.2 1032.7 538.1L1032.7 538.1L1036.9 550.1L1037.0 550.1L1041.2 538.1Q1041.3 537.6 1041.6 537.4Q1041.9 537.2 1042.4 537.2L1042.4 537.2Q1042.9 537.2 1043.3 537.5Q1043.6 537.8 1043.6 538.3L1043.6 538.3Q1043.6 538.6 1043.5 539.0L1043.5 539.0L1037.9 553.7Q1036.9 556.4 1035.8 557.4Q1034.7 558.4 1032.8 558.4Z M1066.9 550.9Q1064.7 553.0 1060.8 553.0Q1056.9 553.0 1054.7 550.9Q1052.4 548.7 1052.4 545.3L1052.4 545.3L1052.4 532.7Q1052.4 532.1 1052.8 531.7Q1053.1 531.3 1053.7 531.3Q1054.3 531.3 1054.7 531.7Q1055.0 532.1 1055.0 532.7L1055.0 532.7L1055.0 545.1Q1055.0 547.5 1056.6 549.1Q1058.1 550.6 1060.8 550.6Q1063.5 550.6 1065.0 549.1Q1066.6 547.5 1066.6 545.1L1066.6 545.1L1066.6 532.7Q1066.6 532.1 1066.9 531.7Q1067.3 531.3 1067.9 531.3Q1068.5 531.3 1068.8 531.7Q1069.2 532.1 1069.2 532.7L1069.2 532.7L1069.2 545.3Q1069.2 548.7 1066.9 550.9ZM1075.6 552.6Q1075.2 552.9 1074.6 552.9Q1074.0 552.9 1073.7 552.6Q1073.3 552.2 1073.3 551.6L1073.3 551.6L1073.3 532.9Q1073.3 532.3 1073.7 531.9Q1074.0 531.5 1074.6 531.5L1074.6 531.5L1081.2 531.5Q1084.3 531.5 1086.1 533.2Q1088.0 535.0 1088.0 537.8L1088.0 537.8Q1088.0 540.0 1086.8 541.6Q1085.7 543.3 1083.7 543.9L1083.7 543.9L1087.6 550.8Q1087.9 551.3 1087.9 551.7L1087.9 551.7Q1087.9 552.2 1087.5 552.6Q1087.1 552.9 1086.5 552.9L1086.5 552.9Q1086.1 552.9 1085.8 552.7Q1085.5 552.5 1085.2 552.1L1085.2 552.1L1081.0 544.3L1075.9 544.3L1075.9 551.6Q1075.9 552.2 1075.6 552.6ZM1075.9 533.9L1075.9 542.0L1081.0 542.0Q1083.0 542.0 1084.1 540.9Q1085.2 539.9 1085.2 537.9L1085.2 537.9Q1085.2 536.0 1084.1 534.9Q1082.9 533.9 1080.9 533.9L1080.9 533.9L1075.9 533.9ZM1099.4 545.3L1091.9 545.3Q1091.3 545.3 1091.0 545.0Q1090.6 544.6 1090.6 544.1Q1090.6 543.6 1091.0 543.2Q1091.3 542.9 1091.9 542.9L1091.9 542.9L1099.4 542.9Q1100.0 542.9 1100.3 543.2Q1100.7 543.6 1100.7 544.1Q1100.7 544.6 1100.3 545.0Q1100.0 545.3 1099.4 545.3L1099.4 545.3ZM1106.4 552.6Q1106.0 552.9 1105.4 552.9Q1104.8 552.9 1104.5 552.6Q1104.1 552.2 1104.1 551.6L1104.1 551.6L1104.1 532.9Q1104.1 532.3 1104.5 531.9Q1104.8 531.5 1105.4 531.5L1105.4 531.5L1112.1 531.5Q1115.1 531.5 1117.0 533.2Q1118.8 535.0 1118.8 537.8L1118.8 537.8Q1118.8 540.0 1117.7 541.6Q1116.5 543.3 1114.5 543.9L1114.5 543.9L1118.4 550.8Q1118.7 551.3 1118.7 551.7L1118.7 551.7Q1118.7 552.2 1118.3 552.6Q1117.9 552.9 1117.3 552.9L1117.3 552.9Q1116.9 552.9 1116.6 552.7Q1116.3 552.5 1116.1 552.1L1116.1 552.1L1111.8 544.3L1106.8 544.3L1106.8 551.6Q1106.8 552.2 1106.4 552.6ZM1106.8 533.9L1106.8 542.0L1111.8 542.0Q1113.9 542.0 1115.0 540.9Q1116.1 539.9 1116.1 537.9L1116.1 537.9Q1116.1 536.0 1114.9 534.9Q1113.8 533.9 1111.7 533.9L1111.7 533.9L1106.8 533.9ZM1122.2 552.9L1122.2 552.9Q1121.6 552.9 1121.2 552.5Q1120.9 552.2 1120.9 551.7L1120.9 551.7Q1120.9 551.4 1121.0 551.0L1121.0 551.0L1127.8 532.6Q1128.3 531.3 1129.5 531.3L1129.5 531.3Q1130.7 531.3 1131.2 532.6L1131.2 532.6L1138.0 551.0Q1138.2 551.4 1138.2 551.7L1138.2 551.7Q1138.2 552.2 1137.8 552.5Q1137.4 552.9 1136.9 552.9L1136.9 552.9Q1135.9 552.9 1135.6 551.9L1135.6 551.9L1133.7 546.6L1125.3 546.6L1123.5 551.9Q1123.1 552.9 1122.2 552.9ZM1129.5 534.7L1126.1 544.4L1132.9 544.4L1129.6 534.7L1129.5 534.7ZM1148.1 552.7L1142.3 552.7Q1141.7 552.7 1141.4 552.3Q1141.0 551.9 1141.0 551.3L1141.0 551.3L1141.0 532.9Q1141.0 532.3 1141.4 531.9Q1141.7 531.5 1142.3 531.5L1142.3 531.5L1148.1 531.5Q1152.8 531.5 1155.5 534.3Q1158.1 537.1 1158.1 542.1L1158.1 542.1Q1158.1 547.1 1155.5 549.9Q1152.8 552.7 1148.1 552.7L1148.1 552.7ZM1143.7 533.9L1143.7 550.3L1148.0 550.3Q1151.5 550.3 1153.5 548.2Q1155.4 546.1 1155.4 542.1L1155.4 542.1Q1155.4 538.1 1153.5 536.0Q1151.6 533.9 1148.0 533.9L1148.0 533.9L1143.7 533.9Z "/></svg>