<svg width="1200" height="630" viewBox="0 0 1200 630" xmlns="http://www.w3.org/2000/svg"><mask id="satori_om-id"><rect x="0" y="0" width="1200" height="630" fill="#fff"/></mask><mask id="satori_om-id-0"><rect x="0" y="0" width="1200" height="630" fill="#fff"/></mask><rect x="0" y="0" width="1200" height="630" fill="#f2f2f2"/><mask id="satori_om-id-0-0"><rect x="0" y="0" width="1200" height="441" fill="#fff"/></mask><mask id="satori_om-id-0-0-0"><rect x="40" y="95" width="1120" height="36" fill="#fff"/></mask><path fill="#8e8e8e" d="M50.0 123.4Q49.6 123.9 48.8 123.9Q48.1 123.9 47.6 123.4Q47.2 123.0 47.2 122.2L47.2 122.2L47.2 105.4L42.0 105.4Q41.3 105.4 40.9 105.0Q40.5 104.6 40.5 103.9Q40.5 103.3 40.9 102.9Q41.3 102.5 42.0 102.5L42.0 102.5L55.6 102.5Q56.3 102.5 56.8 102.9Q57.2 103.3 57.2 103.9Q57.2 104.6 56.8 105.0Q56.3 105.4 55.6 105.4L55.6 105.4L50.5 105.4L50.5 122.2Q50.5 123.0 50.0 123.4ZM62.1 123.5Q61.6 123.9 60.9 123.9Q60.2 123.9 59.8 123.5Q59.3 123.0 59.3 122.3L59.3 122.3L59.3 103.9Q59.3 103.1 59.8 102.7Q60.2 102.2 60.9 102.2L60.9 102.2Q61.6 102.2 62.1 102.7Q62.5 103.1 62.5 103.9L62.5 103.9L62.5 110.8L62.5 110.8Q63.2 109.5 64.4 108.7Q65.7 108.0 67.4 108.0L67.4 108.0Q69.9 108.0 71.4 109.5Q72.8 111.1 72.8 113.7L72.8 113.7L72.8 122.3Q72.8 123.0 72.4 123.5Q71.9 123.9 71.2 123.9L71.2 123.9Q70.5 123.9 70.1 123.5Q69.6 123.0 69.6 122.3L69.6 122.3L69.6 114.3Q69.6 112.6 68.8 111.7Q67.9 110.7 66.3 110.7L66.3 110.7Q64.5 110.7 63.5 111.8Q62.5 112.9 62.5 114.8L62.5 114.8L62.5 122.3Q62.5 123.0 62.1 123.5ZM81.2 123.9L81.2 123.9Q78.7 123.9 77.2 122.4Q75.8 120.9 75.8 118.2L75.8 118.2L75.8 109.7Q75.8 108.9 76.2 108.4Q76.7 108.0 77.4 108.0L77.4 108.0Q78.1 108.0 78.5 108.4Q79.0 108.9 79.0 109.7L79.0 109.7L79.0 117.6Q79.0 119.4 79.8 120.3Q80.6 121.2 82.3 121.2L82.3 121.2Q84.0 121.2 84.9 120.1Q85.9 119.0 85.9 117.2L85.9 117.2L85.9 109.7Q85.9 108.9 86.4 108.4Q86.8 108.0 87.5 108.0L87.5 108.0Q88.2 108.0 88.7 108.4Q89.1 108.9 89.1 109.7L89.1 109.7L89.1 122.3Q89.1 123.1 88.7 123.5Q88.3 123.9 87.6 123.9Q86.9 123.9 86.5 123.5Q86.1 123.1 86.1 122.3L86.1 122.3L86.1 121.1L86.0 121.1Q84.6 123.9 81.2 123.9ZM93.8 123.9L93.8 123.9Q93.1 123.9 92.6 123.5Q92.2 123.0 92.2 122.3L92.2 122.3L92.2 109.6Q92.2 108.9 92.6 108.4Q93.0 108.0 93.7 108.0L93.7 108.0Q94.4 108.0 94.8 108.4Q95.2 108.9 95.2 109.6L95.2 109.6L95.2 110.9L95.3 110.9Q95.6 109.6 96.6 108.8Q97.5 108.0 98.7 108.0L98.7 108.0Q99.5 108.0 99.9 108.4L99.9 108.4Q100.3 108.7 100.3 109.5L100.3 109.5Q100.3 110.2 99.9 110.6L99.9 110.6Q99.4 111.0 98.4 111.0L98.4 111.0Q96.9 111.0 96.1 112.0Q95.4 112.9 95.4 114.4L95.4 114.4L95.4 122.3Q95.4 123.0 94.9 123.5Q94.5 123.9 93.8 123.9ZM107.7 124.0L107.7 124.0Q105.5 124.0 103.9 123.1Q102.3 122.3 101.7 120.8L101.7 120.8Q101.6 120.5 101.6 120.2L101.6 120.2Q101.6 119.6 102.0 119.2Q102.4 118.9 103.0 118.9L103.0 118.9Q103.8 118.9 104.4 119.7L104.4 119.7Q105.0 120.7 105.8 121.1Q106.5 121.5 107.9 121.5L107.9 121.5Q109.3 121.5 110.1 121.0Q110.9 120.4 110.9 119.5L110.9 119.5Q110.9 118.7 110.4 118.3Q109.9 117.8 108.7 117.5L108.7 117.5L106.2 117.0Q101.8 115.9 101.8 112.6L101.8 112.6Q101.8 110.5 103.4 109.2Q105.1 108.0 107.9 108.0L107.9 108.0Q109.9 108.0 111.5 108.9Q113.0 109.8 113.4 111.2L113.4 111.2Q113.4 111.6 113.4 111.7L113.4 111.7Q113.4 112.2 113.1 112.5Q112.8 112.9 112.2 112.9L112.2 112.9Q111.3 112.9 110.9 112.2L110.9 112.2Q110.4 111.3 109.6 110.8Q108.9 110.4 107.7 110.4L107.7 110.4Q106.5 110.4 105.7 111.0Q104.9 111.5 104.9 112.4L104.9 112.4Q104.9 113.9 107.2 114.5L107.2 114.5L109.6 115.0Q112.1 115.6 113.1 116.5Q114.1 117.5 114.1 119.2L114.1 119.2Q114.1 121.3 112.3 122.6Q110.6 124.0 107.7 124.0ZM122.3 123.9L122.3 123.9Q119.4 123.9 117.6 121.8Q115.9 119.6 115.9 116.0Q115.9 112.3 117.6 110.2Q119.4 108.0 122.3 108.0L122.3 108.0Q123.9 108.0 125.2 108.8Q126.5 109.5 127.1 110.8L127.1 110.8L127.2 110.8L127.2 103.9Q127.2 103.1 127.6 102.7Q128.1 102.2 128.8 102.2L128.8 102.2Q129.5 102.2 129.9 102.7Q130.4 103.2 130.4 103.9L130.4 103.9L130.4 122.4Q130.4 123.1 129.9 123.5Q129.5 123.9 128.8 123.9L128.8 123.9Q128.1 123.9 127.7 123.5Q127.2 123.1 127.2 122.4L127.2 122.4L127.2 120.9L127.2 120.9Q126.5 122.3 125.3 123.1Q124.1 123.9 122.3 123.9ZM123.2 121.2L123.2 121.2Q125.0 121.2 126.1 119.8Q127.2 118.4 127.2 116.0L127.2 116.0Q127.2 113.6 126.1 112.1Q125.0 110.7 123.2 110.7L123.2 110.7Q121.3 110.7 120.2 112.1Q119.1 113.5 119.1 116.0L119.1 116.0Q119.1 118.4 120.2 119.8Q121.3 121.2 123.2 121.2ZM138.1 123.9L138.1 123.9Q135.9 123.9 134.4 122.6Q133.0 121.3 133.0 119.3L133.0 119.3Q133.0 117.3 134.5 116.1Q136.0 114.9 138.7 114.7L138.7 114.7L142.9 114.5L142.9 113.3Q142.9 112.0 142.1 111.3Q141.3 110.6 139.9 110.6L139.9 110.6Q138.7 110.6 137.9 111.0Q137.1 111.5 136.4 112.5L136.4 112.5Q136.0 113.2 135.2 113.2L135.2 113.2Q134.6 113.2 134.2 112.8Q133.8 112.4 133.8 111.9L133.8 111.9Q133.8 111.3 134.1 110.8L134.1 110.8Q134.7 109.5 136.3 108.8Q137.9 108.0 140.0 108.0L140.0 108.0Q142.8 108.0 144.4 109.4Q146.1 110.7 146.1 113.0L146.1 113.0L146.1 122.3Q146.1 123.1 145.7 123.5Q145.2 123.9 144.6 123.9L144.6 123.9Q143.9 123.9 143.5 123.5Q143.1 123.1 143.1 122.4L143.1 122.4L143.1 121.1L143.0 121.1Q142.3 122.4 141.0 123.2Q139.7 123.9 138.1 123.9ZM139.0 121.4L139.0 121.4Q140.7 121.4 141.8 120.4Q142.9 119.4 142.9 117.9L142.9 117.9L142.9 116.7L139.1 116.9Q137.7 117.0 137.0 117.6Q136.2 118.2 136.2 119.2L136.2 119.2Q136.2 120.2 137.0 120.8Q137.7 121.4 139.0 121.4ZM151.1 129.4L151.1 129.4Q150.0 129.4 149.4 129.0Q148.8 128.6 148.8 127.9L148.8 127.9Q148.8 127.4 149.1 127.1Q149.5 126.8 150.0 126.8L150.0 126.8Q150.2 126.8 150.4 126.8Q150.7 126.8 150.8 126.8L150.8 126.8Q152.4 126.8 153.2 124.7L153.2 124.7L153.5 123.8L148.3 110.3Q148.1 109.9 148.1 109.4L148.1 109.4Q148.1 108.8 148.6 108.4Q149.1 108.0 149.8 108.0L149.8 108.0Q150.4 108.0 150.7 108.3Q151.1 108.5 151.3 109.2L151.3 109.2L155.2 120.8L155.3 120.8L159.2 109.2Q159.4 108.5 159.7 108.3Q160.1 108.0 160.7 108.0L160.7 108.0Q161.4 108.0 161.8 108.4Q162.2 108.8 162.2 109.4L162.2 109.4Q162.2 109.8 162.1 110.3L162.1 110.3L156.7 124.4Q155.7 127.2 154.5 128.3Q153.2 129.4 151.1 129.4ZM166.7 120.1L166.7 120.1Q167.4 120.1 167.8 120.5Q168.2 120.8 168.2 121.4L168.2 121.4Q168.2 121.8 168.1 122.3L168.1 122.3L166.8 127.3Q166.5 128.4 165.4 128.4L165.4 128.4Q164.9 128.4 164.5 128.1Q164.2 127.7 164.2 127.2L164.2 127.2Q164.2 127.1 164.3 126.8L164.3 126.8L165.2 121.4Q165.4 120.1 166.7 120.1Z M191.6 123.7L179.9 123.7Q179.1 123.7 178.7 123.3Q178.3 122.9 178.3 122.3L178.3 122.3Q178.3 121.8 178.5 121.5Q178.7 121.1 179.2 120.6L179.2 120.6L185.8 113.9Q187.9 111.8 188.6 110.7Q189.3 109.6 189.3 108.3L189.3 108.3Q189.3 106.8 188.2 105.8Q187.2 104.8 185.6 104.8L185.6 104.8Q182.5 104.8 181.3 108.0L181.3 108.0Q181.1 108.5 180.8 108.8Q180.4 109.0 179.9 109.0L179.9 109.0Q179.2 109.0 178.8 108.6Q178.4 108.3 178.4 107.6L178.4 107.6Q178.4 107.3 178.5 107.0L178.5 107.0Q178.7 106.1 179.2 105.3Q179.8 104.4 180.6 103.7Q181.5 103.0 182.8 102.6Q184.1 102.1 185.6 102.1L185.6 102.1Q188.6 102.1 190.6 103.8Q192.5 105.5 192.5 108.1L192.5 108.1Q192.5 109.9 191.5 111.5Q190.5 113.0 187.8 115.8L187.8 115.8L182.8 120.8L182.8 120.9L191.6 120.9Q192.2 120.9 192.6 121.3Q193.0 121.7 193.0 122.3L193.0 122.3Q193.0 122.9 192.6 123.3Q192.2 123.7 191.6 123.7L191.6 123.7ZM203.7 124.1L203.7 124.1Q201.3 124.1 199.4 122.9Q197.6 121.6 196.5 119.3L196.5 119.3Q195.4 116.9 195.4 113.4L195.4 113.4Q195.4 108.1 197.6 105.1Q199.9 102.1 203.8 102.1L203.8 102.1Q206.0 102.1 207.8 103.0Q209.5 103.9 210.4 105.5L210.4 105.5Q210.7 106.1 210.7 106.7L210.7 106.7Q210.7 107.3 210.3 107.7Q209.9 108.1 209.3 108.1L209.3 108.1Q208.8 108.1 208.4 107.8Q208.1 107.6 207.7 107.0L207.7 107.0Q206.2 104.9 203.8 104.9L203.8 104.9Q201.3 104.9 200.0 107.0Q198.6 109.1 198.6 113.0L198.6 113.0L198.6 113.2L198.6 113.2Q199.3 111.7 200.8 110.7Q202.4 109.8 204.5 109.8L204.5 109.8Q207.5 109.8 209.5 111.8Q211.4 113.7 211.4 116.8L211.4 116.8Q211.4 119.9 209.2 122.0Q207.1 124.1 203.7 124.1ZM203.7 121.3L203.7 121.3Q205.6 121.3 206.9 120.0Q208.2 118.7 208.2 116.9L208.2 116.9Q208.2 114.9 206.9 113.7Q205.7 112.5 203.7 112.5Q201.8 112.5 200.5 113.7Q199.2 114.9 199.2 116.8L199.2 116.8Q199.2 118.7 200.5 120.0Q201.8 121.3 203.7 121.3Z M237.0 121.1Q234.3 124.0 229.7 124.0Q225.2 124.0 222.5 121.1Q219.8 118.1 219.8 113.1Q219.8 108.1 222.5 105.1Q225.2 102.2 229.7 102.2L229.7 102.2Q234.3 102.2 237.0 105.1Q239.6 108.1 239.6 113.1Q239.6 118.1 237.0 121.1ZM229.7 121.1L229.7 121.1Q232.7 121.1 234.5 119.0Q236.3 116.8 236.3 113.1L236.3 113.1Q236.3 109.4 234.5 107.2Q232.7 105.1 229.7 105.1L229.7 105.1Q226.7 105.1 224.9 107.2Q223.2 109.4 223.2 113.1L223.2 113.1Q223.2 116.8 224.9 119.0Q226.7 121.1 229.7 121.1ZM249.0 124.0L249.0 124.0Q245.6 124.0 243.7 121.8Q241.7 119.7 241.7 116.0L241.7 116.0Q241.7 112.3 243.7 110.2Q245.6 108.0 248.9 108.0L248.9 108.0Q251.1 108.0 252.9 109.0Q254.6 110.1 255.1 111.7L255.1 111.7Q255.3 112.1 255.3 112.4L255.3 112.4Q255.3 113.0 254.9 113.4Q254.5 113.7 253.9 113.7L253.9 113.7Q253.4 113.7 253.1 113.5Q252.8 113.3 252.5 112.8L252.5 112.8Q251.9 111.7 251.0 111.1Q250.2 110.6 249.0 110.6L249.0 110.6Q247.1 110.6 246.0 112.1Q244.9 113.5 244.9 116.0L244.9 116.0Q244.9 118.4 246.0 119.9Q247.1 121.3 249.0 121.3L249.0 121.3Q251.3 121.3 252.5 119.2L252.5 119.2Q252.8 118.6 253.1 118.4Q253.4 118.2 254.0 118.2L254.0 118.2Q254.5 118.2 254.9 118.6Q255.3 118.9 255.3 119.5L255.3 119.5Q255.3 119.9 255.1 120.3L255.1 120.3Q254.5 121.9 252.8 122.9Q251.1 124.0 249.0 124.0ZM258.8 120.0L258.8 120.0L258.8 110.8L257.7 110.8Q257.1 110.8 256.7 110.4Q256.4 110.1 256.4 109.5Q256.4 108.9 256.7 108.6Q257.1 108.3 257.7 108.3L257.7 108.3L258.8 108.3L258.8 106.0Q258.8 105.2 259.2 104.7Q259.7 104.3 260.4 104.3Q261.1 104.3 261.5 104.7Q262.0 105.2 262.0 106.0L262.0 106.0L262.0 108.3L263.8 108.3Q264.4 108.3 264.7 108.6Q265.1 108.9 265.1 109.5Q265.1 110.1 264.7 110.4Q264.4 110.8 263.8 110.8L263.8 110.8L262.0 110.8L262.0 119.3Q262.0 120.2 262.3 120.6Q262.7 121.1 263.5 121.1L263.5 121.1L263.8 121.2Q265.1 121.3 265.1 122.4L265.1 122.4Q265.1 123.8 262.9 123.8L262.9 123.8L262.7 123.8Q258.8 123.8 258.8 120.0ZM279.4 121.8Q277.4 124.0 274.1 124.0Q270.8 124.0 268.8 121.8Q266.8 119.7 266.8 116.0L266.8 116.0Q266.8 112.3 268.8 110.1Q270.8 108.0 274.1 108.0Q277.4 108.0 279.4 110.1Q281.4 112.3 281.4 116.0L281.4 116.0Q281.4 119.7 279.4 121.8ZM274.1 121.3L274.1 121.3Q276.0 121.3 277.1 119.9Q278.2 118.5 278.2 116.0L278.2 116.0Q278.2 113.4 277.1 112.0Q276.0 110.6 274.1 110.6Q272.2 110.6 271.1 112.0Q270.0 113.4 270.0 116.0L270.0 116.0Q270.0 118.5 271.1 119.9Q272.2 121.3 274.1 121.3ZM285.5 123.9L285.5 123.9Q284.8 123.9 284.4 123.5Q284.0 123.1 284.0 122.4L284.0 122.4L284.0 103.9Q284.0 103.2 284.4 102.7Q284.9 102.2 285.6 102.2Q286.3 102.2 286.7 102.7Q287.1 103.2 287.1 103.9L287.1 103.9L287.1 110.9L287.2 110.9Q287.9 109.5 289.2 108.8Q290.5 108.0 292.1 108.0L292.1 108.0Q295.0 108.0 296.8 110.2Q298.5 112.3 298.5 116.0L298.5 116.0Q298.5 119.6 296.8 121.8Q295.0 123.9 292.1 123.9L292.1 123.9Q290.4 123.9 289.1 123.2Q287.8 122.4 287.1 121.0L287.1 121.0L287.1 121.0L287.1 122.4Q287.1 123.1 286.6 123.5Q286.2 123.9 285.5 123.9ZM291.2 121.2L291.2 121.2Q293.1 121.2 294.2 119.8Q295.3 118.4 295.3 116.0L295.3 116.0Q295.3 113.5 294.2 112.1Q293.1 110.7 291.2 110.7L291.2 110.7Q289.4 110.7 288.3 112.1Q287.1 113.6 287.1 116.0L287.1 116.0Q287.1 118.3 288.3 119.8Q289.4 121.2 291.2 121.2ZM307.6 124.0L307.6 124.0Q304.2 124.0 302.2 121.9Q300.3 119.8 300.3 116.0L300.3 116.0Q300.3 112.4 302.2 110.2Q304.2 108.0 307.4 108.0L307.4 108.0Q310.5 108.0 312.4 110.0Q314.4 112.0 314.4 115.1L314.4 115.1Q314.4 115.9 313.9 116.3Q313.5 116.8 312.8 116.8L312.8 116.8L303.5 116.8L303.5 116.8Q303.5 118.9 304.6 120.2Q305.7 121.4 307.6 121.4L307.6 121.4Q308.9 121.4 309.8 120.9Q310.7 120.4 311.6 119.2L311.6 119.2Q312.0 118.6 312.7 118.6L312.7 118.6Q313.3 118.6 313.6 119.0Q314.0 119.3 314.0 119.9L314.0 119.9Q314.0 120.3 313.8 120.8L313.8 120.8Q313.0 122.3 311.4 123.1Q309.8 124.0 307.6 124.0ZM303.5 114.5L303.5 114.5L311.2 114.5Q311.1 112.7 310.1 111.6Q309.1 110.5 307.4 110.5L307.4 110.5Q305.8 110.5 304.7 111.6Q303.6 112.7 303.5 114.5ZM318.4 123.9L318.4 123.9Q317.7 123.9 317.2 123.5Q316.8 123.0 316.8 122.3L316.8 122.3L316.8 109.6Q316.8 108.9 317.2 108.4Q317.6 108.0 318.3 108.0L318.3 108.0Q319.0 108.0 319.4 108.4Q319.8 108.9 319.8 109.6L319.8 109.6L319.8 110.9L319.9 110.9Q320.2 109.6 321.1 108.8Q322.1 108.0 323.3 108.0L323.3 108.0Q324.1 108.0 324.5 108.4L324.5 108.4Q324.9 108.7 324.9 109.5L324.9 109.5Q324.9 110.2 324.5 110.6L324.5 110.6Q324.0 111.0 323.0 111.0L323.0 111.0Q321.5 111.0 320.7 112.0Q320.0 112.9 320.0 114.4L320.0 114.4L320.0 122.3Q320.0 123.0 319.5 123.5Q319.1 123.9 318.4 123.9Z M346.0 123.7L334.3 123.7Q333.6 123.7 333.1 123.3Q332.7 122.9 332.7 122.3L332.7 122.3Q332.7 121.8 332.9 121.5Q333.1 121.1 333.6 120.6L333.6 120.6L340.2 113.9Q342.3 111.8 343.0 110.7Q343.7 109.6 343.7 108.3L343.7 108.3Q343.7 106.8 342.6 105.8Q341.6 104.8 340 104.8L340 104.8Q336.9 104.8 335.8 108.0L335.8 108.0Q335.5 108.5 335.2 108.8Q334.8 109.0 334.3 109.0L334.3 109.0Q333.6 109.0 333.2 108.6Q332.8 108.3 332.8 107.6L332.8 107.6Q332.8 107.3 332.9 107.0L332.9 107.0Q333.1 106.1 333.6 105.3Q334.2 104.4 335.0 103.7Q335.9 103.0 337.2 102.6Q338.5 102.1 340.0 102.1L340.0 102.1Q343.0 102.1 345.0 103.8Q346.9 105.5 346.9 108.1L346.9 108.1Q346.9 109.9 345.9 111.5Q345.0 113.0 342.2 115.8L342.2 115.8L337.2 120.8L337.2 120.9L346.0 120.9Q346.6 120.9 347.0 121.3Q347.4 121.7 347.4 122.3L347.4 122.3Q347.4 122.9 347.0 123.3Q346.6 123.7 346.0 123.7L346.0 123.7ZM363.8 121.1Q361.7 124.1 357.9 124.1Q354.1 124.1 352.0 121.1Q349.8 118.2 349.8 113.1L349.8 113.1Q349.8 108.0 352.0 105.1Q354.1 102.1 357.9 102.1L357.9 102.1Q361.7 102.1 363.8 105.1Q366.0 108.0 366.0 113.1L366.0 113.1Q366.0 118.1 363.8 121.1ZM357.9 121.3L357.9 121.3Q360.2 121.3 361.4 119.1Q362.7 116.9 362.7 113.1L362.7 113.1Q362.7 109.3 361.4 107.1Q360.2 104.9 357.9 104.9Q355.6 104.9 354.4 107.1Q353.1 109.3 353.1 113.1L353.1 113.1Q353.1 116.9 354.4 119.1Q355.6 121.3 357.9 121.3ZM382.1 123.7L370.4 123.7Q369.6 123.7 369.2 123.3Q368.8 122.9 368.8 122.3L368.8 122.3Q368.8 121.8 369.0 121.5Q369.2 121.1 369.7 120.6L369.7 120.6L376.3 113.9Q378.4 111.8 379.1 110.7Q379.8 109.6 379.8 108.3L379.8 108.3Q379.8 106.8 378.7 105.8Q377.7 104.8 376.1 104.8L376.1 104.8Q373.0 104.8 371.8 108.0L371.8 108.0Q371.6 108.5 371.3 108.8Q370.9 109.0 370.4 109.0L370.4 109.0Q369.7 109.0 369.3 108.6Q368.9 108.3 368.9 107.6L368.9 107.6Q368.9 107.3 369.0 107.0L369.0 107.0Q369.2 106.1 369.7 105.3Q370.3 104.4 371.1 103.7Q372.0 103.0 373.3 102.6Q374.6 102.1 376.1 102.1L376.1 102.1Q379.1 102.1 381.1 103.8Q383.0 105.5 383.0 108.1L383.0 108.1Q383.0 109.9 382.0 111.5Q381.0 113.0 378.3 115.8L378.3 115.8L373.3 120.8L373.3 120.9L382.1 120.9Q382.7 120.9 383.1 121.3Q383.5 121.7 383.5 122.3L383.5 122.3Q383.5 122.9 383.1 123.3Q382.7 123.7 382.1 123.7L382.1 123.7ZM393.6 124.1L393.6 124.1Q391.1 124.1 389.3 123.1Q387.5 122.2 386.6 120.6L386.6 120.6Q386.2 119.8 386.2 119.0L386.2 119.0Q386.2 118.3 386.6 117.9Q387.0 117.5 387.7 117.5L387.7 117.5Q388.2 117.5 388.6 117.8Q388.9 118.1 389.1 118.6L389.1 118.6Q390.3 121.3 393.7 121.3L393.7 121.3Q395.6 121.3 396.8 120.3Q397.9 119.4 398.0 117.8L398.0 117.8Q398.0 116.0 396.8 115.0Q395.5 114.0 393.4 114.0L393.4 114.0L392.0 114.0Q391.4 114.0 391.0 113.7Q390.6 113.3 390.6 112.8Q390.6 112.2 391.0 111.8Q391.4 111.5 392.0 111.5L392.0 111.5L393.3 111.5Q395.1 111.5 396.3 110.5Q397.4 109.6 397.4 108.1L397.4 108.1Q397.4 106.6 396.4 105.7Q395.4 104.8 393.6 104.8L393.6 104.8Q392.0 104.8 391.1 105.5Q390.1 106.1 389.5 107.5L389.5 107.5Q389.3 108.1 389.0 108.4Q388.6 108.6 388.1 108.6L388.1 108.6Q387.4 108.6 387.0 108.3Q386.6 107.9 386.6 107.2L386.6 107.2Q386.6 106.4 387.0 105.6L387.0 105.6Q387.9 104.0 389.6 103.1Q391.3 102.1 393.6 102.1L393.6 102.1Q396.8 102.1 398.7 103.7Q400.6 105.2 400.6 107.6L400.6 107.6Q400.6 109.6 399.3 110.9Q398.1 112.2 396.1 112.6L396.1 112.6L396.1 112.7Q398.5 112.9 399.9 114.3Q401.3 115.6 401.3 117.8L401.3 117.8Q401.3 120.6 399.1 122.3Q397.0 124.1 393.6 124.1Z "/><mask id="satori_om-id-0-0-1"><rect x="40" y="176" width="1120" height="165" fill="#fff"/></mask><path fill="#224d67" d="M47.5 239.1L47.5 239.1Q45.7 239.1 44.7 238.0Q43.7 237.0 43.7 235.2L43.7 235.2L43.7 200.2Q43.7 198.4 44.7 197.3Q45.7 196.3 47.5 196.3L47.5 196.3L60.2 196.3Q66.5 196.3 70.4 200.2Q74.4 204.1 74.4 210.5L74.4 210.5Q74.4 216.8 70.3 220.7Q66.3 224.6 59.8 224.6L59.8 224.6L51.3 224.6L51.3 235.2Q51.3 237.0 50.3 238.1Q49.3 239.1 47.5 239.1ZM51.3 202.5L51.3 218.5L58.1 218.5Q62.2 218.5 64.5 216.4Q66.7 214.3 66.7 210.5L66.7 210.5Q66.7 206.6 64.5 204.6Q62.2 202.5 58.2 202.5L58.2 202.5L51.3 202.5ZM93.0 239.2L93.0 239.2Q85.8 239.2 81.9 235.0Q77.9 230.7 77.9 223.2L77.9 223.2Q77.9 215.7 81.9 211.3Q85.8 206.9 92.6 206.9L92.6 206.9Q98.9 206.9 102.9 210.9Q106.9 215.0 106.9 221.4L106.9 221.4Q106.9 223.0 106.0 223.9Q105.1 224.8 103.5 224.8L103.5 224.8L85.1 224.8L85.1 225.0Q85.1 228.9 87.3 231.3Q89.4 233.6 92.9 233.6L92.9 233.6Q95.4 233.6 97.1 232.6Q98.9 231.7 100.7 229.4L100.7 229.4Q101.7 228.3 103.1 228.3L103.1 228.3Q104.4 228.3 105.2 229.0Q106.1 229.8 106.1 231.1L106.1 231.1Q106.1 231.9 105.6 232.9L105.6 232.9Q104.0 235.9 100.7 237.5Q97.4 239.2 93.0 239.2ZM85.2 220.0L85.2 220.0L99.7 220.0Q99.6 216.6 97.6 214.6Q95.7 212.5 92.6 212.5Q89.5 212.5 87.5 214.6Q85.4 216.7 85.2 220.0ZM113.6 230.9L113.6 230.9L113.6 213.1L111.6 213.1Q110.3 213.1 109.5 212.4Q108.7 211.6 108.7 210.3L108.7 210.3Q108.7 209.0 109.4 208.3Q110.2 207.5 111.6 207.5L111.6 207.5L113.6 207.5L113.6 203.4Q113.6 201.6 114.5 200.6Q115.5 199.6 117.2 199.6L117.2 199.6Q118.9 199.6 119.9 200.6Q120.9 201.6 120.9 203.4L120.9 203.4L120.9 207.5L124.2 207.5Q125.6 207.5 126.4 208.3Q127.2 209.0 127.2 210.3L127.2 210.3Q127.2 211.6 126.4 212.4Q125.6 213.1 124.2 213.1L124.2 213.1L120.9 213.1L120.9 229.3Q120.9 231.1 121.5 231.9Q122.2 232.7 123.8 232.9L123.8 232.9L124.3 232.9Q127.2 233.2 127.2 235.6L127.2 235.6Q127.2 237.2 125.9 238.1Q124.6 238.9 122.0 238.9L122.0 238.9L121.7 238.9Q113.6 238.9 113.6 230.9ZM138.0 238.1Q137.0 239.2 135.3 239.2Q133.6 239.2 132.7 238.1Q131.7 237.1 131.7 235.3L131.7 235.3L131.7 210.6Q131.7 208.9 132.6 207.9Q133.6 206.9 135.2 206.9L135.2 206.9Q136.7 206.9 137.6 207.9Q138.6 208.9 138.6 210.6L138.6 210.6L138.6 213.0L138.8 213.0Q139.4 210.3 141.2 208.6Q143.1 207.0 145.4 207.0L145.4 207.0Q147.1 207.0 148.0 207.8L148.0 207.8Q149.0 208.6 149.0 210.4L149.0 210.4Q149.0 212.1 147.9 213.0L147.9 213.0Q146.9 213.9 144.7 214.0L144.7 214.0Q139.0 214.0 139.0 220.4L139.0 220.4L139.0 235.3Q139.0 237.1 138.0 238.1ZM159.0 202.0Q157.8 203.2 156.1 203.2Q154.4 203.2 153.2 202.0Q152.1 200.8 152.1 199.2L152.1 199.2Q152.1 197.5 153.2 196.4Q154.4 195.2 156.1 195.2L156.1 195.2Q157.8 195.2 159.0 196.4Q160.2 197.5 160.2 199.2L160.2 199.2Q160.2 200.8 159.0 202.0ZM158.8 238.1Q157.8 239.2 156.1 239.2Q154.4 239.2 153.5 238.1Q152.5 237.1 152.5 235.3L152.5 235.3L152.5 210.7Q152.5 209.0 153.5 207.9Q154.4 206.9 156.1 206.9Q157.8 206.9 158.8 207.9Q159.8 209.0 159.8 210.8L159.8 210.8L159.8 235.3Q159.8 237.1 158.8 238.1Z M182.3 239.1L182.3 239.1Q180.6 239.1 179.6 238.1Q178.6 237.1 178.6 235.3L178.6 235.3L178.6 199.7Q178.6 197.9 179.7 196.8Q180.7 195.8 182.6 195.8L182.6 195.8Q183.8 195.8 184.7 196.3Q185.6 196.8 186.5 198.1L186.5 198.1L206.2 225.9L206.4 225.9L206.4 199.6Q206.4 197.8 207.4 196.8Q208.4 195.8 210.1 195.8L210.1 195.8Q211.8 195.8 212.7 196.8Q213.7 197.8 213.7 199.6L213.7 199.6L213.7 235.3Q213.7 237.1 212.7 238.1Q211.7 239.1 209.9 239.1L209.9 239.1Q208.6 239.1 207.7 238.6Q206.8 238.1 205.9 236.8L205.9 236.8L186.2 208.9L185.9 208.9L185.9 235.3Q185.9 237.1 185.0 238.1Q184.0 239.1 182.3 239.1ZM234.2 239.2L234.2 239.2Q227.1 239.2 223.1 235.0Q219.2 230.7 219.2 223.2L219.2 223.2Q219.2 215.7 223.1 211.3Q227.1 206.9 233.8 206.9L233.8 206.9Q240.2 206.9 244.2 210.9Q248.1 215.0 248.1 221.4L248.1 221.4Q248.1 223.0 247.2 223.9Q246.3 224.8 244.7 224.8L244.7 224.8L226.4 224.8L226.4 225.0Q226.4 228.9 228.5 231.3Q230.6 233.6 234.2 233.6L234.2 233.6Q236.6 233.6 238.4 232.6Q240.2 231.7 241.9 229.4L241.9 229.4Q243.0 228.3 244.4 228.3L244.4 228.3Q245.7 228.3 246.5 229.0Q247.3 229.8 247.3 231.1L247.3 231.1Q247.3 231.9 246.8 232.9L246.8 232.9Q245.3 235.9 242.0 237.5Q238.7 239.2 234.2 239.2ZM226.5 220.0L226.5 220.0L241.0 220.0Q240.9 216.6 238.9 214.6Q236.9 212.5 233.9 212.5Q230.8 212.5 228.7 214.6Q226.7 216.7 226.5 220.0ZM254.8 230.9L254.8 230.9L254.8 213.1L252.9 213.1Q251.5 213.1 250.7 212.4Q249.9 211.6 249.9 210.3L249.9 210.3Q249.9 209.0 250.7 208.3Q251.5 207.5 252.9 207.5L252.9 207.5L254.8 207.5L254.8 203.4Q254.8 201.6 255.8 200.6Q256.8 199.6 258.5 199.6L258.5 199.6Q260.2 199.6 261.1 200.6Q262.1 201.6 262.1 203.4L262.1 203.4L262.1 207.5L265.5 207.5Q266.9 207.5 267.7 208.3Q268.4 209.0 268.4 210.3L268.4 210.3Q268.4 211.6 267.6 212.4Q266.8 213.1 265.5 213.1L265.5 213.1L262.1 213.1L262.1 229.3Q262.1 231.1 262.8 231.9Q263.5 232.7 265.1 232.9L265.1 232.9L265.6 232.9Q268.5 233.2 268.5 235.6L268.5 235.6Q268.5 237.2 267.2 238.1Q265.8 238.9 263.3 238.9L263.3 238.9L263.0 238.9Q254.8 238.9 254.8 230.9ZM284.9 239.2L284.9 239.2Q280.1 239.2 276.7 237.5Q273.4 235.8 272.3 233.0L272.3 233.0Q272.0 232.2 272.0 231.5L272.0 231.5Q272.0 230.2 272.8 229.4Q273.7 228.6 275.0 228.6L275.0 228.6Q276.8 228.6 278.2 230.4L278.2 230.4Q279.4 232.3 281.0 233.1Q282.6 233.9 285.2 233.9L285.2 233.9Q287.8 233.9 289.3 232.9Q290.8 231.8 290.8 230.1L290.8 230.1Q290.8 228.7 289.8 227.8Q288.8 227.0 286.5 226.4L286.5 226.4L281.4 225.3Q272.4 223.3 272.4 216.4L272.4 216.4Q272.4 212.1 275.8 209.5Q279.3 206.9 285.0 206.9L285.0 206.9Q289.4 206.9 292.7 208.8Q295.9 210.6 296.6 213.4L296.6 213.4Q296.8 214.0 296.8 214.5L296.8 214.5Q296.8 215.6 296.0 216.4Q295.3 217.1 293.9 217.1L293.9 217.1Q292.1 217.1 291.2 215.7L291.2 215.7Q290.0 214.0 288.5 213.1Q287.1 212.2 284.9 212.2L284.9 212.2Q282.5 212.2 281.0 213.3Q279.5 214.3 279.5 216.0L279.5 216.0Q279.5 218.8 284.0 219.8L284.0 219.8L289.0 220.9Q293.9 222.0 296.0 223.9Q298.2 225.9 298.2 229.3L298.2 229.3Q298.2 233.8 294.5 236.5Q290.9 239.2 284.9 239.2Z M323.1 238.2Q322.1 239.2 320.5 239.2Q318.8 239.2 317.8 238.2Q316.8 237.2 316.8 235.4L316.8 235.4L316.8 213.1L314.9 213.1Q313.6 213.1 312.8 212.4Q312.1 211.7 312.1 210.4L312.1 210.4Q312.1 209.1 312.8 208.4Q313.6 207.6 314.9 207.6L314.9 207.6L316.8 207.6L316.8 204.9Q316.8 196.0 325.4 196.0L325.4 196.0Q328.2 196.0 329.6 196.8Q330.9 197.6 330.9 199.0L330.9 199.0Q330.9 200.7 329.3 201.1L329.3 201.1Q328.7 201.3 327.7 201.3L327.7 201.3Q325.7 201.4 324.9 202.3Q324.0 203.2 324.0 205.2L324.0 205.2L324.0 207.6L327.9 207.6Q329.1 207.6 329.9 208.4Q330.7 209.1 330.7 210.4L330.7 210.4Q330.7 211.7 329.9 212.4Q329.1 213.1 327.9 213.1L327.9 213.1L324.1 213.1L324.1 235.4Q324.1 237.2 323.1 238.2ZM359.7 234.9Q355.6 239.2 348.7 239.2Q341.8 239.2 337.8 234.9Q333.7 230.6 333.7 223.1L333.7 223.1Q333.7 215.6 337.8 211.2Q341.9 206.9 348.7 206.9L348.7 206.9Q355.6 206.9 359.7 211.2Q363.8 215.6 363.8 223.1L363.8 223.1Q363.8 230.6 359.7 234.9ZM343.2 230.7Q345.2 233.4 348.7 233.4Q352.2 233.4 354.3 230.7Q356.3 228.0 356.3 223.1L356.3 223.1Q356.3 218.2 354.3 215.4Q352.2 212.7 348.7 212.7L348.7 212.7Q345.2 212.7 343.2 215.4Q341.1 218.2 341.1 223.1L341.1 223.1Q341.1 228.0 343.2 230.7ZM374.7 238.1Q373.8 239.2 372.1 239.2Q370.4 239.2 369.4 238.1Q368.4 237.1 368.4 235.3L368.4 235.3L368.4 210.6Q368.4 208.9 369.4 207.9Q370.4 206.9 371.9 206.9L371.9 206.9Q373.5 206.9 374.4 207.9Q375.4 208.9 375.4 210.6L375.4 210.6L375.4 213.0L375.5 213.0Q376.2 210.3 378.0 208.6Q379.8 207.0 382.2 207.0L382.2 207.0Q383.9 207.0 384.8 207.8L384.8 207.8Q385.8 208.6 385.8 210.4L385.8 210.4Q385.8 212.1 384.7 213.0L384.7 213.0Q383.7 213.9 381.5 214.0L381.5 214.0Q375.7 214.0 375.7 220.4L375.7 220.4L375.7 235.3Q375.7 237.1 374.7 238.1Z M403.1 230.9L403.1 230.9L403.1 213.1L401.1 213.1Q399.8 213.1 399.0 212.4Q398.2 211.6 398.2 210.3L398.2 210.3Q398.2 209.0 399.0 208.3Q399.8 207.5 401.1 207.5L401.1 207.5L403.1 207.5L403.1 203.4Q403.1 201.6 404.1 200.6Q405.1 199.6 406.8 199.6L406.8 199.6Q408.4 199.6 409.4 200.6Q410.4 201.6 410.4 203.4L410.4 203.4L410.4 207.5L413.8 207.5Q415.1 207.5 415.9 208.3Q416.7 209.0 416.7 210.3L416.7 210.3Q416.7 211.6 415.9 212.4Q415.1 213.1 413.8 213.1L413.8 213.1L410.4 213.1L410.4 229.3Q410.4 231.1 411.1 231.9Q411.7 232.7 413.3 232.9L413.3 232.9L413.9 232.9Q416.8 233.2 416.8 235.6L416.8 235.6Q416.8 237.2 415.4 238.1Q414.1 238.9 411.6 238.9L411.6 238.9L411.3 238.9Q403.1 238.9 403.1 230.9ZM427.7 238.2Q426.7 239.2 425.1 239.2Q423.4 239.2 422.4 238.2Q421.4 237.1 421.4 235.3L421.4 235.3L421.4 199.5Q421.4 197.7 422.4 196.7Q423.3 195.7 425.0 195.7L425.0 195.7Q426.7 195.7 427.7 196.7Q428.6 197.7 428.6 199.5L428.6 199.5L428.6 212.9L428.8 212.9Q430.0 210.0 432.5 208.5Q435.1 206.9 438.6 206.9L438.6 206.9Q443.7 206.9 446.6 210.1Q449.5 213.2 449.5 218.6L449.5 218.6L449.5 235.3Q449.5 237.1 448.4 238.2Q447.4 239.2 445.8 239.2Q444.2 239.2 443.2 238.2Q442.2 237.1 442.2 235.3L442.2 235.3L442.2 220.1Q442.2 216.8 440.5 214.9Q438.9 213.1 435.8 213.1L435.8 213.1Q432.5 213.1 430.6 215.2Q428.7 217.3 428.7 220.7L428.7 220.7L428.7 235.3Q428.7 237.1 427.7 238.2ZM469.1 239.2L469.1 239.2Q462.0 239.2 458.0 235.0Q454.0 230.7 454.0 223.2L454.0 223.2Q454.0 215.7 458.0 211.3Q462.0 206.9 468.7 206.9L468.7 206.9Q475.0 206.9 479.0 210.9Q483.0 215.0 483.0 221.4L483.0 221.4Q483.0 223.0 482.1 223.9Q481.2 224.8 479.6 224.8L479.6 224.8L461.3 224.8L461.3 225.0Q461.3 228.9 463.4 231.3Q465.5 233.6 469.0 233.6L469.0 233.6Q471.5 233.6 473.3 232.6Q475.0 231.7 476.8 229.4L476.8 229.4Q477.8 228.3 479.2 228.3L479.2 228.3Q480.5 228.3 481.3 229.0Q482.2 229.8 482.2 231.1L482.2 231.1Q482.2 231.9 481.7 232.9L481.7 232.9Q480.1 235.9 476.8 237.5Q473.5 239.2 469.1 239.2ZM461.3 220.0L461.3 220.0L475.8 220.0Q475.7 216.6 473.7 214.6Q471.8 212.5 468.7 212.5Q465.6 212.5 463.6 214.6Q461.5 216.7 461.3 220.0Z M504.2 239.1L504.2 239.1Q502.4 239.1 501.4 238.0Q500.4 237.0 500.4 235.2L500.4 235.2L500.4 199.7Q500.4 197.9 501.4 196.8Q502.4 195.8 504.2 195.8L504.2 195.8Q506.0 195.8 507.0 196.8Q508.0 197.9 508.0 199.7L508.0 199.7L508.0 235.2Q508.0 237.0 507.0 238.1Q506.0 239.1 504.2 239.1ZM516.7 230.9L516.7 230.9L516.7 213.1L514.7 213.1Q513.4 213.1 512.6 212.4Q511.8 211.6 511.8 210.3L511.8 210.3Q511.8 209.0 512.6 208.3Q513.3 207.5 514.7 207.5L514.7 207.5L516.7 207.5L516.7 203.4Q516.7 201.6 517.7 200.6Q518.7 199.6 520.4 199.6L520.4 199.6Q522.0 199.6 523.0 200.6Q524.0 201.6 524.0 203.4L524.0 203.4L524.0 207.5L527.4 207.5Q528.7 207.5 529.5 208.3Q530.3 209.0 530.3 210.3L530.3 210.3Q530.3 211.6 529.5 212.4Q528.7 213.1 527.4 213.1L527.4 213.1L524.0 213.1L524.0 229.3Q524.0 231.1 524.7 231.9Q525.3 232.7 526.9 232.9L526.9 232.9L527.4 232.9Q530.4 233.2 530.4 235.6L530.4 235.6Q530.4 237.2 529.0 238.1Q527.7 238.9 525.2 238.9L525.2 238.9L524.9 238.9Q516.7 238.9 516.7 230.9ZM548.6 239.2L548.6 239.2Q541.5 239.2 537.5 235.0Q533.5 230.7 533.5 223.2L533.5 223.2Q533.5 215.7 537.5 211.3Q541.5 206.9 548.2 206.9L548.2 206.9Q554.5 206.9 558.5 210.9Q562.5 215.0 562.5 221.4L562.5 221.4Q562.5 223.0 561.6 223.9Q560.7 224.8 559.1 224.8L559.1 224.8L540.8 224.8L540.8 225.0Q540.8 228.9 542.9 231.3Q545.0 233.6 548.5 233.6L548.5 233.6Q551.0 233.6 552.8 232.6Q554.5 231.7 556.3 229.4L556.3 229.4Q557.4 228.3 558.8 228.3L558.8 228.3Q560.0 228.3 560.9 229.0Q561.7 229.8 561.7 231.1L561.7 231.1Q561.7 231.9 561.2 232.9L561.2 232.9Q559.6 235.9 556.3 237.5Q553.0 239.2 548.6 239.2ZM540.8 220.0L540.8 220.0L555.3 220.0Q555.2 216.6 553.3 214.6Q551.3 212.5 548.2 212.5Q545.1 212.5 543.1 214.6Q541.0 216.7 540.8 220.0ZM573.5 238.1Q572.5 239.2 570.8 239.2Q569.1 239.2 568.1 238.1Q567.2 237.1 567.2 235.3L567.2 235.3L567.2 210.6Q567.2 208.9 568.1 207.9Q569.1 206.9 570.7 206.9L570.7 206.9Q572.2 206.9 573.1 207.9Q574.1 208.9 574.1 210.6L574.1 210.6L574.1 213.0L574.3 213.0Q574.9 210.3 576.7 208.6Q578.6 207.0 580.9 207.0L580.9 207.0Q582.6 207.0 583.5 207.8L583.5 207.8Q584.5 208.6 584.5 210.4L584.5 210.4Q584.5 212.1 583.4 213.0L583.4 213.0Q582.4 213.9 580.2 214.0L580.2 214.0Q574.5 214.0 574.5 220.4L574.5 220.4L574.5 235.3Q574.5 237.1 573.5 238.1ZM596.9 239.1L596.9 239.1Q592.4 239.1 589.4 236.5Q586.5 233.9 586.5 229.7L586.5 229.7Q586.5 225.6 589.6 223.2Q592.7 220.8 598.3 220.4L598.3 220.4L606.6 219.9L606.6 217.7Q606.6 215.3 605.0 213.9Q603.5 212.6 600.8 212.6L600.8 212.6Q598.6 212.6 597.1 213.4Q595.6 214.2 594.3 216.2L594.3 216.2Q593.2 217.7 591.3 217.7L591.3 217.7Q590.0 217.7 589.1 216.9Q588.2 216.1 588.2 214.8L588.2 214.8Q588.2 213.8 588.7 212.8L588.7 212.8Q589.9 210.1 593.3 208.5Q596.6 206.9 601.1 206.9L601.1 206.9Q606.8 206.9 610.3 209.7Q613.8 212.5 613.8 217.2L613.8 217.2L613.8 235.5Q613.8 237.2 612.8 238.2Q611.8 239.2 610.2 239.2L610.2 239.2Q608.7 239.2 607.8 238.3Q606.8 237.4 606.7 235.8L606.7 235.8L606.7 233.6L606.6 233.6Q605.3 236.1 602.6 237.6Q600.0 239.1 596.9 239.1ZM599.1 233.6L599.1 233.6Q602.2 233.6 604.4 231.7Q606.6 229.8 606.6 227.1L606.6 227.1L606.6 224.7L599.4 225.1Q596.7 225.3 595.3 226.4Q593.8 227.6 593.8 229.4L593.8 229.4Q593.8 231.3 595.3 232.4Q596.7 233.6 599.1 233.6ZM621.7 230.9L621.7 230.9L621.7 213.1L619.7 213.1Q618.3 213.1 617.6 212.4Q616.8 211.6 616.8 210.3L616.8 210.3Q616.8 209.0 617.5 208.3Q618.3 207.5 619.7 207.5L619.7 207.5L621.7 207.5L621.7 203.4Q621.7 201.6 622.6 200.6Q623.6 199.6 625.3 199.6L625.3 199.6Q627.0 199.6 628.0 200.6Q629.0 201.6 629.0 203.4L629.0 203.4L629.0 207.5L632.3 207.5Q633.7 207.5 634.5 208.3Q635.3 209.0 635.3 210.3L635.3 210.3Q635.3 211.6 634.5 212.4Q633.7 213.1 632.3 213.1L632.3 213.1L629.0 213.1L629.0 229.3Q629.0 231.1 629.6 231.9Q630.3 232.7 631.9 232.9L631.9 232.9L632.4 232.9Q635.3 233.2 635.3 235.6L635.3 235.6Q635.3 237.2 634.0 238.1Q632.6 238.9 630.1 238.9L630.1 238.9L629.8 238.9Q621.7 238.9 621.7 230.9ZM646.5 202.0Q645.3 203.2 643.6 203.2Q641.9 203.2 640.7 202.0Q639.5 200.8 639.5 199.2L639.5 199.2Q639.5 197.5 640.7 196.4Q641.9 195.2 643.6 195.2L643.6 195.2Q645.3 195.2 646.5 196.4Q647.6 197.5 647.6 199.2L647.6 199.2Q647.6 200.8 646.5 202.0ZM646.2 238.1Q645.2 239.2 643.6 239.2Q641.9 239.2 640.9 238.1Q639.9 237.1 639.9 235.3L639.9 235.3L639.9 210.7Q639.9 209.0 640.9 207.9Q641.9 206.9 643.6 206.9Q645.2 206.9 646.2 207.9Q647.2 209.0 647.2 210.8L647.2 210.8L647.2 235.3Q647.2 237.1 646.2 238.1ZM665.8 239.2L665.8 239.2Q663.8 239.2 662.6 238.3Q661.4 237.4 660.7 235.4L660.7 235.4L651.9 212.3Q651.5 211.2 651.5 210.2L651.5 210.2Q651.5 208.8 652.5 207.8Q653.6 206.9 655.2 206.9L655.2 206.9Q657.8 206.9 658.6 209.8L658.6 209.8L665.7 231.8L665.9 231.8L673.0 209.8Q673.8 206.9 676.4 206.9L676.4 206.9Q677.9 206.9 678.9 207.8Q679.9 208.8 679.9 210.2L679.9 210.2Q679.9 211.2 679.6 212.2L679.6 212.2L670.8 235.4Q670.1 237.3 668.9 238.3Q667.7 239.2 665.8 239.2ZM697.8 239.2L697.8 239.2Q690.7 239.2 686.7 235.0Q682.7 230.7 682.7 223.2L682.7 223.2Q682.7 215.7 686.7 211.3Q690.7 206.9 697.4 206.9L697.4 206.9Q703.8 206.9 707.7 210.9Q711.7 215.0 711.7 221.4L711.7 221.4Q711.7 223.0 710.8 223.9Q709.9 224.8 708.3 224.8L708.3 224.8L690.0 224.8L690.0 225.0Q690.0 228.9 692.1 231.3Q694.2 233.6 697.8 233.6L697.8 233.6Q700.2 233.6 702.0 232.6Q703.8 231.7 705.5 229.4L705.5 229.4Q706.6 228.3 708.0 228.3L708.0 228.3Q709.3 228.3 710.1 229.0Q710.9 229.8 710.9 231.1L710.9 231.1Q710.9 231.9 710.4 232.9L710.4 232.9Q708.9 235.9 705.6 237.5Q702.3 239.2 697.8 239.2ZM690.1 220.0L690.1 220.0L704.6 220.0Q704.5 216.6 702.5 214.6Q700.5 212.5 697.5 212.5Q694.4 212.5 692.3 214.6Q690.3 216.7 690.1 220.0Z M744.6 238.6L732.9 238.6Q731.2 238.6 730.2 237.5Q729.2 236.5 729.2 234.7L729.2 234.7L729.2 200.2Q729.2 198.4 730.2 197.3Q731.2 196.3 732.9 196.3L732.9 196.3L744.6 196.3Q754.1 196.3 759.4 201.8Q764.7 207.3 764.7 217.3L764.7 217.3Q764.7 227.4 759.4 233.0Q754.1 238.6 744.6 238.6L744.6 238.6ZM736.7 202.7L736.7 232.2L743.8 232.2Q750.2 232.2 753.6 228.4Q757.0 224.6 757.0 217.4L757.0 217.4Q757.0 210.3 753.6 206.5Q750.1 202.7 743.8 202.7L743.8 202.7L736.7 202.7ZM783.7 239.2L783.7 239.2Q776.6 239.2 772.6 235.0Q768.6 230.7 768.6 223.2L768.6 223.2Q768.6 215.7 772.6 211.3Q776.6 206.9 783.3 206.9L783.3 206.9Q789.7 206.9 793.6 210.9Q797.6 215.0 797.6 221.4L797.6 221.4Q797.6 223.0 796.7 223.9Q795.8 224.8 794.2 224.8L794.2 224.8L775.9 224.8L775.9 225.0Q775.9 228.9 778.0 231.3Q780.1 233.6 783.7 233.6L783.7 233.6Q786.1 233.6 787.9 232.6Q789.7 231.7 791.4 229.4L791.4 229.4Q792.5 228.3 793.9 228.3L793.9 228.3Q795.2 228.3 796.0 229.0Q796.8 229.8 796.8 231.1L796.8 231.1Q796.8 231.9 796.3 232.9L796.3 232.9Q794.8 235.9 791.5 237.5Q788.2 239.2 783.7 239.2ZM776.0 220.0L776.0 220.0L790.5 220.0Q790.4 216.6 788.4 214.6Q786.4 212.5 783.3 212.5Q780.3 212.5 778.2 214.6Q776.2 216.7 776.0 220.0ZM814.7 239.2L814.7 239.2Q812.7 239.2 811.5 238.3Q810.3 237.4 809.6 235.4L809.6 235.4L800.9 212.3Q800.5 211.2 800.5 210.2L800.5 210.2Q800.5 208.8 801.5 207.8Q802.5 206.9 804.1 206.9L804.1 206.9Q806.8 206.9 807.6 209.8L807.6 209.8L814.7 231.8L814.8 231.8L821.9 209.8Q822.7 206.9 825.3 206.9L825.3 206.9Q826.9 206.9 827.9 207.8Q828.9 208.8 828.9 210.2L828.9 210.2Q828.9 211.2 828.5 212.2L828.5 212.2L819.8 235.4Q819.1 237.3 817.9 238.3Q816.7 239.2 814.7 239.2ZM846.8 239.2L846.8 239.2Q839.7 239.2 835.7 235.0Q831.7 230.7 831.7 223.2L831.7 223.2Q831.7 215.7 835.7 211.3Q839.7 206.9 846.4 206.9L846.4 206.9Q852.7 206.9 856.7 210.9Q860.7 215.0 860.7 221.4L860.7 221.4Q860.7 223.0 859.8 223.9Q858.9 224.8 857.3 224.8L857.3 224.8L839.0 224.8L839.0 225.0Q839.0 228.9 841.1 231.3Q843.2 233.6 846.7 233.6L846.7 233.6Q849.2 233.6 851.0 232.6Q852.7 231.7 854.5 229.4L854.5 229.4Q855.5 228.3 856.9 228.3L856.9 228.3Q858.2 228.3 859.0 229.0Q859.9 229.8 859.9 231.1L859.9 231.1Q859.9 231.9 859.4 232.9L859.4 232.9Q857.8 235.9 854.5 237.5Q851.2 239.2 846.8 239.2ZM839.0 220.0L839.0 220.0L853.5 220.0Q853.4 216.6 851.4 214.6Q849.5 212.5 846.4 212.5Q843.3 212.5 841.3 214.6Q839.2 216.7 839.0 220.0ZM871.9 238.2Q870.9 239.2 869.2 239.2Q867.6 239.2 866.6 238.2Q865.6 237.1 865.6 235.3L865.6 235.3L865.6 199.6Q865.6 197.7 866.6 196.7Q867.6 195.7 869.2 195.7Q870.9 195.7 871.9 196.7Q872.9 197.7 872.9 199.6L872.9 199.6L872.9 235.3Q872.9 237.1 871.9 238.2ZM903.8 234.9Q899.7 239.2 892.8 239.2Q885.9 239.2 881.8 234.9Q877.8 230.6 877.8 223.1L877.8 223.1Q877.8 215.6 881.9 211.2Q886.0 206.9 892.8 206.9L892.8 206.9Q899.7 206.9 903.7 211.2Q907.8 215.6 907.8 223.1L907.8 223.1Q907.8 230.6 903.8 234.9ZM887.2 230.7Q889.3 233.4 892.8 233.4Q896.3 233.4 898.4 230.7Q900.4 228.0 900.4 223.1L900.4 223.1Q900.4 218.2 898.4 215.4Q896.3 212.7 892.8 212.7L892.8 212.7Q889.3 212.7 887.3 215.4Q885.2 218.2 885.2 223.1L885.2 223.1Q885.2 228.0 887.2 230.7ZM918.8 248.6Q917.8 249.6 916.2 249.6Q914.5 249.6 913.5 248.6Q912.5 247.6 912.5 245.8L912.5 245.8L912.5 210.7Q912.5 208.9 913.5 207.9Q914.5 206.9 916.1 206.9L916.1 206.9Q917.7 206.9 918.7 207.9Q919.6 208.9 919.6 210.7L919.6 210.7L919.6 212.9L919.8 212.9Q921.1 210.1 923.7 208.6Q926.2 207.0 929.6 207.0L929.6 207.0Q935.5 207.0 939.0 211.3Q942.5 215.6 942.5 223.1L942.5 223.1Q942.5 230.5 939.0 234.8Q935.5 239.1 929.7 239.1L929.7 239.1Q926.3 239.1 923.8 237.6Q921.3 236.1 920.0 233.4L920.0 233.4L919.8 233.4L919.8 245.8Q919.8 247.6 918.8 248.6ZM927.3 233.1L927.3 233.1Q930.9 233.1 932.9 230.4Q935.0 227.7 935.0 223.1L935.0 223.1Q935.0 218.5 932.9 215.7Q930.9 213.0 927.3 213.0L927.3 213.0Q923.9 213.0 921.9 215.8Q919.8 218.5 919.8 223.1L919.8 223.1Q919.8 227.6 921.9 230.4Q923.9 233.1 927.3 233.1ZM950.8 239.2L950.8 239.2Q949.1 239.2 948.1 238.2Q947.1 237.1 947.1 235.3L947.1 235.3L947.1 210.6Q947.1 208.9 948.1 207.9Q949.1 206.9 950.6 206.9Q952.2 206.9 953.2 207.9Q954.2 208.9 954.2 210.6L954.2 210.6L954.2 212.9L954.3 212.9Q955.3 210.2 957.7 208.5Q960.0 206.9 963.1 206.9L963.1 206.9Q966.4 206.9 968.7 208.6Q971.0 210.2 971.8 213.2L971.8 213.2L972.0 213.2Q973.1 210.3 975.7 208.6Q978.3 206.9 981.7 206.9L981.7 206.9Q986.3 206.9 989.0 209.8Q991.8 212.6 991.8 217.3L991.8 217.3L991.8 235.3Q991.8 237.1 990.8 238.1Q989.8 239.2 988.2 239.2L988.2 239.2Q986.5 239.2 985.5 238.1Q984.5 237.1 984.5 235.3L984.5 235.3L984.5 219.1Q984.5 216.2 983.1 214.6Q981.6 213.1 978.9 213.1L978.9 213.1Q976.3 213.1 974.7 214.8Q973.0 216.6 973.0 219.4L973.0 219.4L973.0 235.3Q973.0 237.1 972.1 238.2Q971.1 239.2 969.5 239.2L969.5 239.2Q967.8 239.2 966.9 238.2Q965.9 237.1 965.9 235.3L965.9 235.3L965.9 218.7Q965.9 216.1 964.4 214.6Q963.0 213.1 960.4 213.1L960.4 213.1Q957.8 213.1 956.1 214.9Q954.4 216.8 954.4 219.6L954.4 219.6L954.4 235.3Q954.4 237.1 953.4 238.1Q952.4 239.2 950.8 239.2ZM1011.4 239.2L1011.4 239.2Q1004.3 239.2 1000.3 235.0Q996.3 230.7 996.3 223.2L996.3 223.2Q996.3 215.7 1000.3 211.3Q1004.3 206.9 1011.0 206.9L1011.0 206.9Q1017.4 206.9 1021.3 210.9Q1025.3 215.0 1025.3 221.4L1025.3 221.4Q1025.3 223.0 1024.4 223.9Q1023.5 224.8 1021.9 224.8L1021.9 224.8L1003.6 224.8L1003.6 225.0Q1003.6 228.9 1005.7 231.3Q1007.8 233.6 1011.4 233.6L1011.4 233.6Q1013.8 233.6 1015.6 232.6Q1017.4 231.7 1019.1 229.4L1019.1 229.4Q1020.2 228.3 1021.6 228.3L1021.6 228.3Q1022.9 228.3 1023.7 229.0Q1024.5 229.8 1024.5 231.1L1024.5 231.1Q1024.5 231.9 1024.0 232.9L1024.0 232.9Q1022.5 235.9 1019.2 237.5Q1015.8 239.2 1011.4 239.2ZM1003.7 220.0L1003.7 220.0L1018.2 220.0Q1018.0 216.6 1016.1 214.6Q1014.1 212.5 1011.0 212.5Q1008.0 212.5 1005.9 214.6Q1003.9 216.7 1003.7 220.0ZM1036.3 238.2Q1035.3 239.2 1033.6 239.2Q1032.0 239.2 1031.0 238.2Q1030 237.1 1030 235.3L1030 235.3L1030 210.6Q1030 208.9 1030.9 207.9Q1031.9 206.9 1033.5 206.9Q1035.1 206.9 1036.1 207.9Q1037.1 208.9 1037.1 210.6L1037.1 210.6L1037.1 212.8L1037.2 212.8Q1039.9 206.9 1046.9 206.9L1046.9 206.9Q1052.0 206.9 1054.8 210.0Q1057.7 213.1 1057.7 218.5L1057.7 218.5L1057.7 235.3Q1057.7 237.1 1056.7 238.2Q1055.7 239.2 1054.0 239.2Q1052.4 239.2 1051.4 238.2Q1050.4 237.1 1050.4 235.3L1050.4 235.3L1050.4 220.0Q1050.4 216.6 1048.8 214.9Q1047.2 213.1 1044.2 213.1L1044.2 213.1Q1041.0 213.1 1039.2 215.2Q1037.3 217.2 1037.3 220.6L1037.3 220.6L1037.3 235.3Q1037.3 237.1 1036.3 238.2ZM1065.5 230.9L1065.5 230.9L1065.5 213.1L1063.5 213.1Q1062.2 213.1 1061.4 212.4Q1060.6 211.6 1060.6 210.3L1060.6 210.3Q1060.6 209.0 1061.4 208.3Q1062.2 207.5 1063.5 207.5L1063.5 207.5L1065.5 207.5L1065.5 203.4Q1065.5 201.6 1066.5 200.6Q1067.5 199.6 1069.2 199.6L1069.2 199.6Q1070.8 199.6 1071.8 200.6Q1072.8 201.6 1072.8 203.4L1072.8 203.4L1072.8 207.5L1076.2 207.5Q1077.5 207.5 1078.3 208.3Q1079.1 209.0 1079.1 210.3L1079.1 210.3Q1079.1 211.6 1078.3 212.4Q1077.5 213.1 1076.2 213.1L1076.2 213.1L1072.8 213.1L1072.8 229.3Q1072.8 231.1 1073.5 231.9Q1074.2 232.7 1075.7 232.9L1075.7 232.9L1076.3 232.9Q1079.2 233.2 1079.2 235.6L1079.2 235.6Q1079.2 237.2 1077.8 238.1Q1076.5 238.9 1074.0 238.9L1074.0 238.9L1073.7 238.9Q1065.5 238.9 1065.5 230.9Z M1120.3 234.9Q1116.3 239.2 1109.4 239.2Q1102.5 239.2 1098.4 234.9Q1094.3 230.6 1094.3 223.1L1094.3 223.1Q1094.3 215.6 1098.4 211.2Q1102.5 206.9 1109.4 206.9L1109.4 206.9Q1116.2 206.9 1120.3 211.2Q1124.4 215.6 1124.4 223.1L1124.4 223.1Q1124.4 230.6 1120.3 234.9ZM1103.8 230.7Q1105.8 233.4 1109.4 233.4Q1112.9 233.4 1114.9 230.7Q1117.0 228.0 1117.0 223.1L1117.0 223.1Q1117.0 218.2 1114.9 215.4Q1112.9 212.7 1109.4 212.7L1109.4 212.7Q1105.9 212.7 1103.8 215.4Q1101.7 218.2 1101.7 223.1L1101.7 223.1Q1101.7 228.0 1103.8 230.7ZM1137.4 238.2Q1136.4 239.2 1134.8 239.2Q1133.1 239.2 1132.1 238.2Q1131.1 237.2 1131.1 235.4L1131.1 235.4L1131.1 213.1L1129.2 213.1Q1127.9 213.1 1127.1 212.4Q1126.4 211.7 1126.4 210.4L1126.4 210.4Q1126.4 209.1 1127.1 208.4Q1127.9 207.6 1129.2 207.6L1129.2 207.6L1131.1 207.6L1131.1 204.9Q1131.1 196.0 1139.7 196.0L1139.7 196.0Q1142.5 196.0 1143.9 196.8Q1145.3 197.6 1145.3 199.0L1145.3 199.0Q1145.3 200.7 1143.6 201.1L1143.6 201.1Q1143.0 201.3 1142.0 201.3L1142.0 201.3Q1140.0 201.4 1139.2 202.3Q1138.3 203.2 1138.3 205.2L1138.3 205.2L1138.3 207.6L1142.2 207.6Q1143.4 207.6 1144.2 208.4Q1145.0 209.1 1145.0 210.4L1145.0 210.4Q1145.0 211.7 1144.2 212.4Q1143.4 213.1 1142.2 213.1L1142.2 213.1L1138.4 213.1L1138.4 235.4Q1138.4 237.2 1137.4 238.2Z M47.5 321.6L47.5 321.6Q45.7 321.6 44.7 320.5Q43.7 319.5 43.7 317.7L43.7 317.7L43.7 282.2Q43.7 280.4 44.7 279.3Q45.7 278.3 47.5 278.3L47.5 278.3Q49.3 278.3 50.3 279.3Q51.3 280.4 51.3 282.2L51.3 282.2L51.3 317.7Q51.3 319.5 50.3 320.6Q49.3 321.6 47.5 321.6ZM64.3 320.7Q63.3 321.7 61.6 321.7Q60.0 321.7 59.0 320.7Q58.0 319.6 58.0 317.8L58.0 317.8L58.0 293.1Q58.0 291.4 58.9 290.4Q59.9 289.4 61.5 289.4Q63.1 289.4 64.1 290.4Q65.1 291.4 65.1 293.1L65.1 293.1L65.1 295.3L65.2 295.3Q67.9 289.4 74.9 289.4L74.9 289.4Q80.0 289.4 82.8 292.5Q85.6 295.6 85.6 301.0L85.6 301.0L85.6 317.8Q85.6 319.6 84.6 320.7Q83.7 321.7 82.0 321.7Q80.4 321.7 79.4 320.7Q78.3 319.6 78.3 317.8L78.3 317.8L78.3 302.5Q78.3 299.1 76.8 297.4Q75.2 295.6 72.1 295.6L72.1 295.6Q69.0 295.6 67.1 297.7Q65.3 299.7 65.3 303.1L65.3 303.1L65.3 317.8Q65.3 319.6 64.3 320.7ZM93.5 313.4L93.5 313.4L93.5 295.6L91.5 295.6Q90.2 295.6 89.4 294.9Q88.6 294.1 88.6 292.8L88.6 292.8Q88.6 291.5 89.4 290.8Q90.2 290.0 91.5 290.0L91.5 290.0L93.5 290.0L93.5 285.9Q93.5 284.1 94.5 283.1Q95.5 282.1 97.2 282.1L97.2 282.1Q98.8 282.1 99.8 283.1Q100.8 284.1 100.8 285.9L100.8 285.9L100.8 290.0L104.2 290.0Q105.5 290.0 106.3 290.8Q107.1 291.5 107.1 292.8L107.1 292.8Q107.1 294.1 106.3 294.9Q105.5 295.6 104.2 295.6L104.2 295.6L100.8 295.6L100.8 311.8Q100.8 313.6 101.5 314.4Q102.1 315.2 103.7 315.4L103.7 315.4L104.2 315.4Q107.2 315.7 107.2 318.1L107.2 318.1Q107.2 319.7 105.8 320.6Q104.5 321.4 102.0 321.4L102.0 321.4L101.7 321.4Q93.5 321.4 93.5 313.4ZM125.4 321.7L125.4 321.7Q118.3 321.7 114.3 317.5Q110.3 313.2 110.3 305.7L110.3 305.7Q110.3 298.2 114.3 293.8Q118.3 289.4 125.0 289.4L125.0 289.4Q131.3 289.4 135.3 293.4Q139.3 297.5 139.3 303.9L139.3 303.9Q139.3 305.5 138.4 306.4Q137.5 307.3 135.9 307.3L135.9 307.3L117.6 307.3L117.6 307.5Q117.6 311.4 119.7 313.8Q121.8 316.1 125.3 316.1L125.3 316.1Q127.8 316.1 129.6 315.1Q131.3 314.2 133.1 311.9L133.1 311.9Q134.2 310.8 135.6 310.8L135.6 310.8Q136.8 310.8 137.7 311.5Q138.5 312.3 138.5 313.6L138.5 313.6Q138.5 314.4 138.0 315.4L138.0 315.4Q136.4 318.4 133.1 320.0Q129.8 321.7 125.4 321.7ZM117.6 302.5L117.6 302.5L132.1 302.5Q132.0 299.1 130.1 297.1Q128.1 295.0 125.0 295.0Q121.9 295.0 119.9 297.1Q117.8 299.2 117.6 302.5ZM150.3 320.6Q149.3 321.7 147.6 321.7Q145.9 321.7 145.0 320.6Q144.0 319.6 144.0 317.8L144.0 317.8L144.0 293.1Q144.0 291.4 144.9 290.4Q145.9 289.4 147.5 289.4L147.5 289.4Q149.0 289.4 150.0 290.4Q150.9 291.4 150.9 293.1L150.9 293.1L150.9 295.5L151.1 295.5Q151.7 292.8 153.5 291.1Q155.4 289.5 157.7 289.5L157.7 289.5Q159.4 289.5 160.3 290.3L160.3 290.3Q161.3 291.1 161.3 292.9L161.3 292.9Q161.3 294.6 160.2 295.5L160.2 295.5Q159.2 296.4 157.0 296.5L157.0 296.5Q151.3 296.5 151.3 302.9L151.3 302.9L151.3 317.8Q151.3 319.6 150.3 320.6ZM173.7 321.6L173.7 321.6Q169.2 321.6 166.3 319.0Q163.3 316.4 163.3 312.2L163.3 312.2Q163.3 308.1 166.4 305.7Q169.5 303.3 175.1 302.9L175.1 302.9L183.4 302.4L183.4 300.2Q183.4 297.8 181.8 296.4Q180.3 295.1 177.6 295.1L177.6 295.1Q175.4 295.1 173.9 295.9Q172.4 296.7 171.1 298.7L171.1 298.7Q170.0 300.2 168.1 300.2L168.1 300.2Q166.8 300.2 165.9 299.4Q165.0 298.6 165.0 297.3L165.0 297.3Q165.0 296.3 165.5 295.3L165.5 295.3Q166.7 292.6 170.1 291.0Q173.4 289.4 177.9 289.4L177.9 289.4Q183.6 289.4 187.1 292.2Q190.6 295.0 190.6 299.7L190.6 299.7L190.6 318.0Q190.6 319.7 189.6 320.7Q188.6 321.7 187.0 321.7L187.0 321.7Q185.5 321.7 184.6 320.8Q183.6 319.9 183.6 318.3L183.6 318.3L183.6 316.1L183.4 316.1Q182.1 318.6 179.4 320.1Q176.8 321.6 173.7 321.6ZM175.9 316.1L175.9 316.1Q179.0 316.1 181.2 314.2Q183.4 312.3 183.4 309.6L183.4 309.6L183.4 307.2L176.2 307.6Q173.5 307.8 172.1 308.9Q170.6 310.1 170.6 311.9L170.6 311.9Q170.6 313.8 172.1 314.9Q173.5 316.1 175.9 316.1ZM210.1 321.7L210.1 321.7Q203.3 321.7 199.2 317.4Q195.2 313.0 195.2 305.6L195.2 305.6Q195.2 298.2 199.2 293.8Q203.2 289.4 210.0 289.4L210.0 289.4Q214.6 289.4 218.1 291.5Q221.7 293.6 222.8 296.9L222.8 296.9Q223.2 297.9 223.2 298.6L223.2 298.6Q223.2 300.0 222.3 300.8Q221.4 301.6 220.1 301.6L220.1 301.6Q219.0 301.6 218.2 301.1Q217.5 300.6 216.9 299.5L216.9 299.5Q214.6 295.3 210.2 295.3L210.2 295.3Q206.7 295.3 204.6 298.1Q202.6 300.8 202.6 305.6L202.6 305.6Q202.6 310.4 204.6 313.1Q206.7 315.8 210.2 315.8L210.2 315.8Q214.6 315.8 216.8 311.8L216.8 311.8Q217.6 310.6 218.3 310.1Q219.0 309.6 220.2 309.6L220.2 309.6Q221.5 309.6 222.4 310.4Q223.3 311.2 223.3 312.6L223.3 312.6Q223.3 313.4 222.8 314.4L222.8 314.4Q221.5 317.6 218.0 319.7Q214.5 321.7 210.1 321.7ZM230.2 313.4L230.2 313.4L230.2 295.6L228.2 295.6Q226.9 295.6 226.1 294.9Q225.3 294.1 225.3 292.8L225.3 292.8Q225.3 291.5 226.1 290.8Q226.9 290.0 228.2 290.0L228.2 290.0L230.2 290.0L230.2 285.9Q230.2 284.1 231.2 283.1Q232.2 282.1 233.9 282.1L233.9 282.1Q235.5 282.1 236.5 283.1Q237.5 284.1 237.5 285.9L237.5 285.9L237.5 290.0L240.9 290.0Q242.2 290.0 243.0 290.8Q243.8 291.5 243.8 292.8L243.8 292.8Q243.8 294.1 243.0 294.9Q242.2 295.6 240.9 295.6L240.9 295.6L237.5 295.6L237.5 311.8Q237.5 313.6 238.2 314.4Q238.8 315.2 240.4 315.4L240.4 315.4L240.9 315.4Q243.9 315.7 243.9 318.1L243.9 318.1Q243.9 319.7 242.5 320.6Q241.2 321.4 238.7 321.4L238.7 321.4L238.4 321.4Q230.2 321.4 230.2 313.4ZM255.0 284.5Q253.8 285.7 252.1 285.7Q250.4 285.7 249.2 284.5Q248.1 283.3 248.1 281.7L248.1 281.7Q248.1 280.0 249.2 278.9Q250.4 277.7 252.1 277.7L252.1 277.7Q253.8 277.7 255.0 278.9Q256.2 280.0 256.2 281.7L256.2 281.7Q256.2 283.3 255.0 284.5ZM254.8 320.6Q253.8 321.7 252.1 321.7Q250.4 321.7 249.5 320.6Q248.5 319.6 248.5 317.8L248.5 317.8L248.5 293.2Q248.5 291.5 249.5 290.4Q250.4 289.4 252.1 289.4Q253.8 289.4 254.8 290.4Q255.8 291.5 255.8 293.3L255.8 293.3L255.8 317.8Q255.8 319.6 254.8 320.6ZM274.3 321.7L274.3 321.7Q272.3 321.7 271.1 320.8Q269.9 319.9 269.2 317.9L269.2 317.9L260.5 294.8Q260.0 293.7 260.0 292.7L260.0 292.7Q260.0 291.3 261.1 290.3Q262.1 289.4 263.7 289.4L263.7 289.4Q266.3 289.4 267.2 292.3L267.2 292.3L274.3 314.3L274.4 314.3L281.5 292.3Q282.3 289.4 284.9 289.4L284.9 289.4Q286.4 289.4 287.5 290.3Q288.5 291.3 288.5 292.7L288.5 292.7Q288.5 293.7 288.1 294.7L288.1 294.7L279.4 317.9Q278.7 319.8 277.5 320.8Q276.3 321.7 274.3 321.7ZM306.4 321.7L306.4 321.7Q299.2 321.7 295.3 317.5Q291.3 313.2 291.3 305.7L291.3 305.7Q291.3 298.2 295.3 293.8Q299.2 289.4 306.0 289.4L306.0 289.4Q312.3 289.4 316.3 293.4Q320.3 297.5 320.3 303.9L320.3 303.9Q320.3 305.5 319.4 306.4Q318.5 307.3 316.9 307.3L316.9 307.3L298.5 307.3L298.5 307.5Q298.5 311.4 300.7 313.8Q302.8 316.1 306.3 316.1L306.3 316.1Q308.8 316.1 310.5 315.1Q312.3 314.2 314.1 311.9L314.1 311.9Q315.1 310.8 316.5 310.8L316.5 310.8Q317.8 310.8 318.6 311.5Q319.5 312.3 319.5 313.6L319.5 313.6Q319.5 314.4 319.0 315.4L319.0 315.4Q317.4 318.4 314.1 320.0Q310.8 321.7 306.4 321.7ZM298.6 302.5L298.6 302.5L313.1 302.5Q313.0 299.1 311.0 297.1Q309.1 295.0 306.0 295.0Q302.9 295.0 300.9 297.1Q298.8 299.2 298.6 302.5Z M344.2 320.6Q343.2 321.7 341.5 321.7Q339.7 321.7 338.7 320.6Q337.7 319.6 337.7 317.7L337.7 317.7L337.7 282.7Q337.7 280.9 338.7 279.8Q339.7 278.8 341.5 278.8L341.5 278.8L354.5 278.8Q361.3 278.8 365.2 282.3Q369.1 285.9 369.1 292.0L369.1 292.0Q369.1 296.1 367.1 299.3Q365.0 302.5 361.4 303.9L361.4 303.9L368.1 315.6Q368.9 317.0 368.9 318.2L368.9 318.2Q368.9 319.7 367.8 320.7Q366.7 321.7 365.1 321.7L365.1 321.7Q363.7 321.7 362.9 321.1Q362.1 320.5 361.2 318.9L361.2 318.9L353.7 305.2L345.2 305.2L345.2 317.7Q345.2 319.6 344.2 320.6ZM345.2 284.9L345.2 299.4L353.8 299.4Q357.4 299.4 359.4 297.5Q361.4 295.6 361.4 292.1L361.4 292.1Q361.4 288.8 359.3 286.9Q357.2 284.9 353.6 284.9L353.6 284.9L345.2 284.9ZM399.2 317.4Q395.1 321.7 388.2 321.7Q381.3 321.7 377.2 317.4Q373.2 313.1 373.2 305.6L373.2 305.6Q373.2 298.1 377.3 293.7Q381.4 289.4 388.2 289.4L388.2 289.4Q395.0 289.4 399.1 293.7Q403.2 298.1 403.2 305.6L403.2 305.6Q403.2 313.1 399.2 317.4ZM382.6 313.2Q384.7 315.9 388.2 315.9Q391.7 315.9 393.8 313.2Q395.8 310.5 395.8 305.6L395.8 305.6Q395.8 300.7 393.8 297.9Q391.7 295.2 388.2 295.2L388.2 295.2Q384.7 295.2 382.6 297.9Q380.6 300.7 380.6 305.6L380.6 305.6Q380.6 310.5 382.6 313.2ZM414.3 320.7Q413.3 321.7 411.7 321.7Q410.0 321.7 409.1 320.7Q408.1 319.8 408.1 318.0L408.1 318.0L408.1 282.1Q408.1 280.2 409.1 279.2Q410.1 278.2 411.8 278.2Q413.4 278.2 414.4 279.2Q415.4 280.2 415.4 282.1L415.4 282.1L415.4 295.4L415.6 295.4Q416.9 292.6 419.5 291.0Q422.0 289.5 425.3 289.5L425.3 289.5Q431.2 289.5 434.7 293.8Q438.1 298.1 438.1 305.6L438.1 305.6Q438.1 313.0 434.7 317.3Q431.2 321.6 425.3 321.6L425.3 321.6Q421.9 321.6 419.4 320.1Q416.8 318.5 415.4 315.8L415.4 315.8L415.3 315.8L415.3 318.0Q415.3 319.7 414.3 320.7ZM423.1 315.6L423.1 315.6Q426.5 315.6 428.6 312.9Q430.6 310.2 430.6 305.6Q430.6 300.9 428.6 298.2Q426.5 295.5 423.1 295.5L423.1 295.5Q419.7 295.5 417.5 298.3Q415.4 301.0 415.4 305.6L415.4 305.6Q415.4 310.1 417.5 312.8Q419.7 315.6 423.1 315.6ZM467.5 317.4Q463.4 321.7 456.5 321.7Q449.7 321.7 445.6 317.4Q441.5 313.1 441.5 305.6L441.5 305.6Q441.5 298.1 445.6 293.7Q449.7 289.4 456.5 289.4L456.5 289.4Q463.4 289.4 467.5 293.7Q471.6 298.1 471.6 305.6L471.6 305.6Q471.6 313.1 467.5 317.4ZM451.0 313.2Q453.0 315.9 456.5 315.9Q460.1 315.9 462.1 313.2Q464.2 310.5 464.2 305.6L464.2 305.6Q464.2 300.7 462.1 297.9Q460.1 295.2 456.5 295.2L456.5 295.2Q453.1 295.2 451.0 297.9Q448.9 300.7 448.9 305.6L448.9 305.6Q448.9 310.5 451.0 313.2ZM478.3 313.4L478.3 313.4L478.3 295.6L476.3 295.6Q475.0 295.6 474.2 294.9Q473.4 294.1 473.4 292.8L473.4 292.8Q473.4 291.5 474.2 290.8Q474.9 290.0 476.3 290.0L476.3 290.0L478.3 290.0L478.3 285.9Q478.3 284.1 479.3 283.1Q480.2 282.1 481.9 282.1L481.9 282.1Q483.6 282.1 484.6 283.1Q485.6 284.1 485.6 285.9L485.6 285.9L485.6 290.0L488.9 290.0Q490.3 290.0 491.1 290.8Q491.9 291.5 491.9 292.8L491.9 292.8Q491.9 294.1 491.1 294.9Q490.3 295.6 488.9 295.6L488.9 295.6L485.6 295.6L485.6 311.8Q485.6 313.6 486.3 314.4Q486.9 315.2 488.5 315.4L488.5 315.4L489.0 315.4Q492.0 315.7 492.0 318.1L492.0 318.1Q492.0 319.7 490.6 320.6Q489.3 321.4 486.7 321.4L486.7 321.4L486.5 321.4Q478.3 321.4 478.3 313.4ZM503.1 284.5Q501.9 285.7 500.2 285.7Q498.5 285.7 497.3 284.5Q496.2 283.3 496.2 281.7L496.2 281.7Q496.2 280.0 497.3 278.9Q498.5 277.7 500.2 277.7L500.2 277.7Q501.9 277.7 503.1 278.9Q504.3 280.0 504.3 281.7L504.3 281.7Q504.3 283.3 503.1 284.5ZM502.9 320.6Q501.9 321.7 500.2 321.7Q498.5 321.7 497.5 320.6Q496.6 319.6 496.6 317.8L496.6 317.8L496.6 293.2Q496.6 291.5 497.5 290.4Q498.5 289.4 500.2 289.4Q501.9 289.4 502.9 290.4Q503.9 291.5 503.9 293.3L503.9 293.3L503.9 317.8Q503.9 319.6 502.9 320.6ZM523.6 321.7L523.6 321.7Q516.8 321.7 512.7 317.4Q508.7 313.0 508.7 305.6L508.7 305.6Q508.7 298.2 512.7 293.8Q516.8 289.4 523.6 289.4L523.6 289.4Q528.1 289.4 531.7 291.5Q535.2 293.6 536.3 296.9L536.3 296.9Q536.7 297.9 536.7 298.6L536.7 298.6Q536.7 300.0 535.8 300.8Q534.9 301.6 533.6 301.6L533.6 301.6Q532.5 301.6 531.8 301.1Q531.0 300.6 530.4 299.5L530.4 299.5Q528.1 295.3 523.8 295.3L523.8 295.3Q520.3 295.3 518.2 298.1Q516.1 300.8 516.1 305.6L516.1 305.6Q516.1 310.4 518.2 313.1Q520.2 315.8 523.8 315.8L523.8 315.8Q528.1 315.8 530.4 311.8L530.4 311.8Q531.1 310.6 531.9 310.1Q532.6 309.6 533.7 309.6L533.7 309.6Q535.1 309.6 535.9 310.4Q536.8 311.2 536.8 312.6L536.8 312.6Q536.8 313.4 536.4 314.4L536.4 314.4Q535.1 317.6 531.5 319.7Q528.0 321.7 523.6 321.7Z M569.3 321.8L569.3 321.8Q563.2 321.8 559.0 319.5Q554.9 317.2 553.6 313.5L553.6 313.5Q553.2 312.4 553.2 311.3L553.2 311.3Q553.2 309.7 554.1 308.8Q555.1 307.8 556.6 307.8L556.6 307.8Q557.8 307.8 558.7 308.4Q559.5 308.9 560.1 310.2L560.1 310.2Q561.1 312.9 563.6 314.2Q566.1 315.5 569.6 315.5L569.6 315.5Q573.4 315.5 575.8 313.8Q578.2 312.1 578.2 309.5L578.2 309.5Q578.2 307.2 576.5 305.7Q574.7 304.3 570.6 303.4L570.6 303.4L566.1 302.5Q553.7 299.9 553.7 290.6L553.7 290.6Q553.7 285.0 558.1 281.6Q562.5 278.1 569.4 278.1L569.4 278.1Q575.0 278.1 579.0 280.5Q583.1 282.9 584.4 287.0L584.4 287.0Q584.6 287.7 584.6 288.8L584.6 288.8Q584.6 290.1 583.7 291.0Q582.8 291.9 581.3 291.9L581.3 291.9Q578.9 291.9 577.7 289.5L577.7 289.5Q575.7 284.4 569.3 284.4L569.3 284.4Q565.8 284.4 563.5 285.9Q561.3 287.5 561.3 290.1L561.3 290.1Q561.3 292.3 563.0 293.7Q564.8 295.2 568.7 296.0L568.7 296.0L573.2 296.9Q579.9 298.3 582.9 301.1Q585.9 303.9 585.9 308.6L585.9 308.6Q585.9 314.7 581.4 318.2Q577.0 321.8 569.3 321.8ZM595.2 332.6L595.2 332.6Q592.8 332.6 591.5 331.7Q590.2 330.8 590.2 329.2L590.2 329.2Q590.2 328.1 590.9 327.4Q591.7 326.7 592.9 326.7L592.9 326.7Q593.2 326.7 593.7 326.7Q594.2 326.7 594.5 326.7L594.5 326.7Q597.5 326.7 598.9 323.2L598.9 323.2L599.5 321.6L589.3 294.9Q588.9 293.7 588.9 292.8L588.9 292.8Q588.9 291.3 589.9 290.4Q591.0 289.4 592.6 289.4L592.6 289.4Q594.0 289.4 594.8 290.1Q595.6 290.8 596.1 292.3L596.1 292.3L603.5 314.9L603.6 314.9L611.1 292.3Q611.5 290.8 612.4 290.1Q613.2 289.4 614.6 289.4L614.6 289.4Q616.1 289.4 617.1 290.3Q618.1 291.3 618.1 292.7L618.1 292.7Q618.1 293.7 617.7 294.8L617.7 294.8L607.5 322.2Q605.4 328.0 602.6 330.3Q599.9 332.6 595.2 332.6ZM634.1 321.7L634.1 321.7Q629.2 321.7 625.9 320.0Q622.6 318.3 621.4 315.5L621.4 315.5Q621.1 314.7 621.1 314.0L621.1 314.0Q621.1 312.7 622.0 311.9Q622.8 311.1 624.2 311.1L624.2 311.1Q626.0 311.1 627.3 312.9L627.3 312.9Q628.6 314.8 630.2 315.6Q631.8 316.4 634.3 316.4L634.3 316.4Q636.9 316.4 638.5 315.4Q640 314.3 640 312.6L640 312.6Q640 311.2 639.0 310.3Q638.0 309.5 635.6 308.9L635.6 308.9L630.6 307.8Q621.5 305.8 621.5 298.9L621.5 298.9Q621.5 294.6 625 292.0Q628.5 289.4 634.2 289.4L634.2 289.4Q638.6 289.4 641.8 291.3Q645.0 293.1 645.8 295.9L645.8 295.9Q645.9 296.5 645.9 297.0L645.9 297.0Q645.9 298.1 645.2 298.9Q644.5 299.6 643.1 299.6L643.1 299.6Q641.3 299.6 640.3 298.2L640.3 298.2Q639.2 296.5 637.7 295.6Q636.2 294.7 634.0 294.7L634.0 294.7Q631.6 294.7 630.1 295.8Q628.6 296.8 628.6 298.5L628.6 298.5Q628.6 301.3 633.2 302.3L633.2 302.3L638.2 303.4Q643.1 304.5 645.2 306.4Q647.3 308.4 647.3 311.8L647.3 311.8Q647.3 316.3 643.7 319.0Q640.0 321.7 634.1 321.7ZM653.9 313.4L653.9 313.4L653.9 295.6L652.0 295.6Q650.6 295.6 649.8 294.9Q649.1 294.1 649.1 292.8L649.1 292.8Q649.1 291.5 649.8 290.8Q650.6 290.0 652.0 290.0L652.0 290.0L653.9 290.0L653.9 285.9Q653.9 284.1 654.9 283.1Q655.9 282.1 657.6 282.1L657.6 282.1Q659.3 282.1 660.3 283.1Q661.2 284.1 661.2 285.9L661.2 285.9L661.2 290.0L664.6 290.0Q666.0 290.0 666.8 290.8Q667.5 291.5 667.5 292.8L667.5 292.8Q667.5 294.1 666.7 294.9Q666.0 295.6 664.6 295.6L664.6 295.6L661.2 295.6L661.2 311.8Q661.2 313.6 661.9 314.4Q662.6 315.2 664.2 315.4L664.2 315.4L664.7 315.4Q667.6 315.7 667.6 318.1L667.6 318.1Q667.6 319.7 666.3 320.6Q664.9 321.4 662.4 321.4L662.4 321.4L662.1 321.4Q653.9 321.4 653.9 313.4ZM685.8 321.7L685.8 321.7Q678.7 321.7 674.7 317.5Q670.8 313.2 670.8 305.7L670.8 305.7Q670.8 298.2 674.7 293.8Q678.7 289.4 685.4 289.4L685.4 289.4Q691.8 289.4 695.8 293.4Q699.7 297.5 699.7 303.9L699.7 303.9Q699.7 305.5 698.8 306.4Q697.9 307.3 696.3 307.3L696.3 307.3L678.0 307.3L678.0 307.5Q678.0 311.4 680.1 313.8Q682.2 316.1 685.8 316.1L685.8 316.1Q688.3 316.1 690.0 315.1Q691.8 314.2 693.6 311.9L693.6 311.9Q694.6 310.8 696.0 310.8L696.0 310.8Q697.3 310.8 698.1 311.5Q698.9 312.3 698.9 313.6L698.9 313.6Q698.9 314.4 698.4 315.4L698.4 315.4Q696.9 318.4 693.6 320.0Q690.3 321.7 685.8 321.7ZM678.1 302.5L678.1 302.5L692.6 302.5Q692.5 299.1 690.5 297.1Q688.5 295.0 685.5 295.0Q682.4 295.0 680.3 297.1Q678.3 299.2 678.1 302.5ZM708.1 321.7L708.1 321.7Q706.4 321.7 705.4 320.7Q704.4 319.6 704.4 317.8L704.4 317.8L704.4 293.1Q704.4 291.4 705.4 290.4Q706.3 289.4 707.9 289.4Q709.5 289.4 710.5 290.4Q711.4 291.4 711.4 293.1L711.4 293.1L711.4 295.4L711.6 295.4Q712.6 292.7 714.9 291.0Q717.3 289.4 720.4 289.4L720.4 289.4Q723.7 289.4 726.0 291.1Q728.2 292.7 729.1 295.7L729.1 295.7L729.3 295.7Q730.4 292.8 733.0 291.1Q735.6 289.4 738.9 289.4L738.9 289.4Q743.5 289.4 746.3 292.3Q749.1 295.1 749.1 299.8L749.1 299.8L749.1 317.8Q749.1 319.6 748.1 320.6Q747.1 321.7 745.4 321.7L745.4 321.7Q743.8 321.7 742.8 320.6Q741.8 319.6 741.8 317.8L741.8 317.8L741.8 301.6Q741.8 298.7 740.3 297.1Q738.9 295.6 736.2 295.6L736.2 295.6Q733.6 295.6 731.9 297.3Q730.3 299.1 730.3 301.9L730.3 301.9L730.3 317.8Q730.3 319.6 729.3 320.7Q728.4 321.7 726.7 321.7L726.7 321.7Q725.1 321.7 724.1 320.7Q723.2 319.6 723.2 317.8L723.2 317.8L723.2 301.2Q723.2 298.6 721.7 297.1Q720.2 295.6 717.7 295.6L717.7 295.6Q715.1 295.6 713.4 297.4Q711.7 299.3 711.7 302.1L711.7 302.1L711.7 317.8Q711.7 319.6 710.7 320.6Q709.7 321.7 708.1 321.7ZM766.9 321.7L766.9 321.7Q762.1 321.7 758.7 320.0Q755.4 318.3 754.2 315.5L754.2 315.5Q753.9 314.7 753.9 314.0L753.9 314.0Q753.9 312.7 754.8 311.9Q755.6 311.1 757.0 311.1L757.0 311.1Q758.8 311.1 760.1 312.9L760.1 312.9Q761.4 314.8 763.0 315.6Q764.6 316.4 767.1 316.4L767.1 316.4Q769.7 316.4 771.3 315.4Q772.8 314.3 772.8 312.6L772.8 312.6Q772.8 311.2 771.8 310.3Q770.8 309.5 768.4 308.9L768.4 308.9L763.4 307.8Q754.3 305.8 754.3 298.9L754.3 298.9Q754.3 294.6 757.8 292.0Q761.3 289.4 767.0 289.4L767.0 289.4Q771.4 289.4 774.6 291.3Q777.8 293.1 778.6 295.9L778.6 295.9Q778.7 296.5 778.7 297.0L778.7 297.0Q778.7 298.1 778.0 298.9Q777.3 299.6 775.9 299.6L775.9 299.6Q774.1 299.6 773.1 298.2L773.1 298.2Q772.0 296.5 770.5 295.6Q769.0 294.7 766.8 294.7L766.8 294.7Q764.4 294.7 762.9 295.8Q761.4 296.8 761.4 298.5L761.4 298.5Q761.4 301.3 766.0 302.3L766.0 302.3L771.0 303.4Q775.9 304.5 778.0 306.4Q780.1 308.4 780.1 311.8L780.1 311.8Q780.1 316.3 776.5 319.0Q772.8 321.7 766.9 321.7Z "/><defs><clipPath id="satori_bc-id-0-1"><rect x="0" y="441" width="1200" height="189"/></clipPath></defs><mask id="satori_om-id-0-1"><rect x="0" y="442" width="1200" height="188" fill="#fff"/><path width="1200" height="189" fill="none" stroke="#000" stroke-width="2" d="M0,441 A0,0 0 0 1 0,441 h1200 A0,0 0 0 1 1200,441"/></mask><path width="1200" height="189" clip-path="url(#satori_bc-id-0-1)" fill="none" stroke="#dbdbdb" stroke-width="2" d="M0,441 A0,0 0 0 1 0,441 h1200 A0,0 0 0 1 1200,441"/><mask id="satori_om-id-0-1-0"><rect x="40" y="482" width="389" height="108" fill="#fff"/></mask><clipPath id="satori_cp-id-0-1-0-0"><rect x="40" y="504" width="64" height="64"/></clipPath><mask id="satori_om-id-0-1-0-0"><rect x="40" y="504" width="64" height="64" fill="#fff"/></mask><image x="40" y="504" width="64" height="64" href="data:image/svg+xml;utf8,%3Csvg  xmlns=%22http://www.w3.org/2000/svg%22 width=%2264%22 height=%2264%22 viewBox=%220 0 128 128%22%3E%3Cpath fill=%22%23224d67%22 d=%22M22.5 14.8c2.9 1.3 99 44 99 44c2.7 1.2 2.9 3.1 2 12.4c-1 10.5-1.9 37.8-40.2 42.9c-24.6 3.2-55.9-4.3-70.9-27.2C-6 58.8 11 23.4 14.8 17.7c2.4-3.5 4.8-4.2 7.7-2.9%22%3E%3C/path%3E%3Cpath fill=%22%23f0f4c3%22 d=%22M121.5 58.8c-.3-.2-92-40.8-98.9-43.9C9.6 31.5-3.8 76 27.9 96.2c33.6 21.5 78.7-10.2 93.6-37.4%22%3E%3C/path%3E%3Cpath fill=%22%23f0f4c3%22 d=%22M117.7 57c-.3-.2-86.7-38.4-93.2-41.3c-12.2 15.5-23.9 59.1 5.7 78c31.4 20.2 73.6-11.2 87.5-36.7%22%3E%3C/path%3E%3Cpath fill=%22%23cb2a42%22 d=%22M56.2 37.6L19.5 48.2c-2.5.8-4.4 2.8-5 5.3c-1.9 8.5.8 23.3 8.9 29.8c3.5 2.7 8.6 1.8 10.8-2.1L58.5 41c1.3-1.7.5-4.2-2.3-3.4m14.3 2.9s14.6 30.1 16 33s6.3 4.7 9.9 2.8c10.7-5.6 15.5-12.4 19.2-20.2c-8.9-3.9-42.4-18.8-42.4-18.8c-2.4-1.1-4 .6-2.7 3.2m-8.6 1.9C60.3 45.1 39.5 81 37.6 84.1c-1.9 3.2-.7 7.5 2.7 9.2c12.3 6.5 30.9.4 39.6-7c2.2-1.9 4.5-5.1 3.2-8.2S68.9 44.6 67.8 42.3c-1.2-2.7-4.1-2.8-5.9.1%22%3E%3C/path%3E%3Cpath fill=%22%23f0f4c3%22 d=%22M52.2 42.2c-1.4.4-10.1 3-11.1 3.4c-1.4.5-2.2 1.7-1.9 2.5c.3.9 1.7 1.1 3.1.6c.8-.3 7.1-3.9 9.5-5.2c-3.1 2.4-10.2 9.4-11.1 10.3c-1.4 1.5-1.7 3.4-.8 4.3c1 .9 2.9.5 4.3-1c1.2-1.3 8.5-12.8 9.1-13.9s.4-1.4-1.1-1m10.1 16.4c0-2.2 1.4-10.3 1.8-12.3c.4-1.6 1.5-1.8 1.8.5s1.7 9.7 1.7 11.8s-1.2 3.3-2.7 3.3c-1.4 0-2.6-1.1-2.6-3.3M79.9 49c-1.2-1.8-3.3-4.9-4.1-6.1c-.7-1.2.1-2.1 1.8-.9s4 2.9 5.4 4c1.6 1.3 1.9 3 .8 4s-2.7.8-3.9-1%22%3E%3C/path%3E%3Cellipse cx=%2287.3%22 cy=%22103.12%22 fill=%22%23cb2a42%22 rx=%223.4%22 ry=%222.3%22 transform=%22rotate(-27.098 87.298 103.126)%22%3E%3C/ellipse%3E%3Cellipse cx=%2298.89%22 cy=%22103.82%22 fill=%22%23cb2a42%22 rx=%223.4%22 ry=%222.3%22 transform=%22rotate(-30.642 98.887 103.818)%22%3E%3C/ellipse%3E%3Cellipse cx=%22102.02%22 cy=%2293.8%22 fill=%22%23cb2a42%22 rx=%223.4%22 ry=%222.3%22 transform=%22rotate(-37.16 102.017 93.797)%22%3E%3C/ellipse%3E%3Cpath fill=%22%23cb2a42%22 d=%22M57.6 30.3c-8.3-3.7-24.4-10.7-29.6-13c-3.6 2.2-9.7 11.4-11.2 21.2c-.6 3.6 1.7 5.9 5.3 4.9c0 0 33.7-9.3 35.3-9.7c1.6-.5 2-2.6.2-3.4%22%3E%3C/path%3E%3C/svg%3E" preserveAspectRatio="none" clip-path="url(#satori_cp-id-0-1-0-0)" mask="url(#satori_om-id-0-1-0-0)"/><mask id="satori_om-id-0-1-0-0-0"><rect x="40" y="504" width="0" height="64" fill="#fff"/></mask><mask id="satori_om-id-0-1-0-0-1"><rect x="40" y="504" width="0" height="64" fill="#fff"/></mask><mask id="satori_om-id-0-1-0-0-2"><rect x="40" y="504" width="0" height="64" fill="#fff"/></mask><mask id="satori_om-id-0-1-0-0-3"><rect x="40" y="504" width="0" height="64" fill="#fff"/></mask><mask id="satori_om-id-0-1-0-0-4"><rect x="40" y="504" width="0" height="64" fill="#fff"/></mask><mask id="satori_om-id-0-1-0-0-5"><rect x="40" y="504" width="0" height="64" fill="#fff"/></mask><mask id="satori_om-id-0-1-0-0-6"><rect x="40" y="504" width="0" height="64" fill="#fff"/></mask><mask id="satori_om-id-0-1-0-0-7"><rect x="40" y="504" width="0" height="64" fill="#fff"/></mask><mask id="satori_om-id-0-1-0-0-8"><rect x="40" y="504" width="0" height="64" fill="#fff"/></mask><mask id="satori_om-id-0-1-0-1"><rect x="116" y="512" width="313" height="48" fill="#fff"/></mask><path fill="#545454" d="M133.0 553.6L133.0 553.6Q126.5 553.6 122.7 550.2Q118.8 546.7 118.8 541.1L118.8 541.1L118.8 522.5Q118.8 520.7 119.8 519.7Q120.7 518.8 122.4 518.8Q124.0 518.8 125.0 519.7Q125.9 520.7 125.9 522.5L125.9 522.5L125.9 540.4Q125.9 543.7 127.8 545.6Q129.6 547.6 133.0 547.6L133.0 547.6Q136.3 547.6 138.2 545.6Q140.1 543.7 140.1 540.4L140.1 540.4L140.1 522.5Q140.1 520.7 141.0 519.7Q141.9 518.8 143.6 518.8Q145.3 518.8 146.2 519.7Q147.1 520.7 147.1 522.5L147.1 522.5L147.1 541.1Q147.1 546.7 143.3 550.2Q139.4 553.6 133.0 553.6ZM158.9 552.6Q158.0 553.6 156.3 553.6Q154.6 553.6 153.7 552.6Q152.8 551.6 152.8 549.9L152.8 549.9L152.8 522.9Q152.8 521.2 153.7 520.2Q154.6 519.2 156.3 519.2L156.3 519.2L166.6 519.2Q172.4 519.2 175.6 522.1Q178.9 525.0 178.9 530.0L178.9 530.0Q178.9 533.2 177.3 535.8Q175.8 538.3 173.0 539.4L173.0 539.4L177.9 547.9Q178.7 549.2 178.7 550.3L178.7 550.3Q178.7 551.7 177.7 552.6Q176.7 553.6 175.1 553.6L175.1 553.6Q173.8 553.6 173.1 553.0Q172.4 552.5 171.5 550.9L171.5 550.9L165.9 540.7L159.9 540.7L159.9 549.9Q159.9 551.6 158.9 552.6ZM159.9 524.8L159.9 535.6L165.9 535.6Q168.6 535.6 170.1 534.1Q171.6 532.7 171.6 530.2L171.6 530.2Q171.6 527.7 170.0 526.2Q168.5 524.8 165.9 524.8L165.9 524.8L159.9 524.8ZM196.2 542.3L186.4 542.3Q185.0 542.3 184.1 541.5Q183.2 540.7 183.2 539.3Q183.2 537.9 184.1 537.1Q185.0 536.3 186.4 536.3L186.4 536.3L196.2 536.3Q197.6 536.3 198.5 537.1Q199.4 537.9 199.4 539.3Q199.4 540.7 198.5 541.5Q197.6 542.3 196.2 542.3L196.2 542.3ZM210.9 552.6Q209.9 553.6 208.3 553.6Q206.6 553.6 205.6 552.6Q204.7 551.6 204.7 549.9L204.7 549.9L204.7 522.9Q204.7 521.2 205.6 520.2Q206.6 519.2 208.3 519.2L208.3 519.2L218.6 519.2Q224.4 519.2 227.6 522.1Q230.8 525.0 230.8 530.0L230.8 530.0Q230.8 533.2 229.3 535.8Q227.8 538.3 225.0 539.4L225.0 539.4L229.9 547.9Q230.6 549.2 230.6 550.3L230.6 550.3Q230.6 551.7 229.6 552.6Q228.6 553.6 227.0 553.6L227.0 553.6Q225.8 553.6 225.0 553.0Q224.3 552.5 223.4 550.9L223.4 550.9L217.8 540.7L211.8 540.7L211.8 549.9Q211.8 551.6 210.9 552.6ZM211.8 524.8L211.8 535.6L217.9 535.6Q220.6 535.6 222.0 534.1Q223.5 532.7 223.5 530.2L223.5 530.2Q223.5 527.7 222.0 526.2Q220.4 524.8 217.8 524.8L217.8 524.8L211.8 524.8ZM237.7 553.5L237.7 553.5Q236.0 553.5 235.1 552.6Q234.1 551.7 234.1 550.2L234.1 550.2Q234.1 549.3 234.6 547.9L234.6 547.9L243.8 522.8Q244.6 520.7 245.8 519.7Q247.1 518.8 249.1 518.8L249.1 518.8Q251.2 518.8 252.5 519.7Q253.8 520.7 254.5 522.8L254.5 522.8L263.8 547.9Q264.3 549.2 264.3 550.2L264.3 550.2Q264.3 551.6 263.3 552.6Q262.3 553.5 260.7 553.5L260.7 553.5Q259.2 553.5 258.4 552.8Q257.5 552.1 257.0 550.4L257.0 550.4L255.3 545.0L243.1 545.0L241.3 550.3Q240.8 552.0 239.9 552.8Q239.1 553.5 237.7 553.5ZM249.0 525.7L244.6 539.6L253.6 539.6L249.1 525.7L249.0 525.7ZM281.5 553.1L272.1 553.1Q270.4 553.1 269.5 552.1Q268.6 551.1 268.6 549.4L268.6 549.4L268.6 522.9Q268.6 521.2 269.5 520.2Q270.4 519.2 272.1 519.2L272.1 519.2L281.5 519.2Q289.1 519.2 293.4 523.6Q297.6 528.0 297.6 536.0L297.6 536.0Q297.6 544.1 293.3 548.6Q289.1 553.1 281.5 553.1L281.5 553.1ZM275.6 525.1L275.6 547.2L280.6 547.2Q285.4 547.2 287.9 544.4Q290.4 541.5 290.4 536.0L290.4 536.0Q290.4 530.8 287.8 527.9Q285.3 525.1 280.6 525.1L280.6 525.1L275.6 525.1Z M333.2 553.1L314.5 553.1Q312.9 553.1 312.0 552.2Q311.2 551.4 311.2 550.0L311.2 550.0Q311.2 549.1 311.6 548.3Q312.0 547.5 313.1 546.5L313.1 546.5L323.2 536.9Q326.3 533.8 327.4 532.2Q328.4 530.6 328.4 528.8L328.4 528.8Q328.4 526.7 327.0 525.3Q325.5 524 323.3 524L323.3 524Q319.3 524 317.4 528.1L317.4 528.1Q316.8 529.2 316.1 529.7Q315.4 530.1 314.3 530.1L314.3 530.1Q312.9 530.1 312.1 529.4Q311.3 528.6 311.3 527.3L311.3 527.3Q311.3 526.5 311.5 525.7L311.5 525.7Q312.5 522.7 315.6 520.6Q318.8 518.5 323.3 518.5L323.3 518.5Q328.7 518.5 332.0 521.2Q335.3 524.0 335.3 528.3L335.3 528.3Q335.3 529.9 335.0 531.2Q334.6 532.5 333.6 533.9Q332.6 535.3 331.3 536.8Q330.0 538.2 327.8 540.3L327.8 540.3L320.5 547.3L320.5 547.4L333.2 547.4Q334.6 547.4 335.4 548.2Q336.1 549.0 336.1 550.3L336.1 550.3Q336.1 551.5 335.4 552.3Q334.6 553.1 333.2 553.1L333.2 553.1ZM363.6 549.0Q359.9 553.8 353.5 553.8Q347.1 553.8 343.4 549.1Q339.7 544.3 339.7 536.1L339.7 536.1Q339.7 527.9 343.4 523.2Q347.1 518.5 353.5 518.5Q359.9 518.5 363.6 523.2Q367.3 527.9 367.3 536.1L367.3 536.1Q367.3 544.3 363.6 549.0ZM348.6 545.0Q350.4 548.1 353.5 548.1Q356.7 548.1 358.4 545.0Q360.1 541.9 360.1 536.1L360.1 536.1Q360.1 530.4 358.4 527.2Q356.7 524.1 353.5 524.1L353.5 524.1Q350.4 524.1 348.7 527.3Q346.9 530.4 346.9 536.1L346.9 536.1Q346.9 541.9 348.6 545.0ZM393.6 553.1L374.9 553.1Q373.3 553.1 372.4 552.2Q371.6 551.4 371.6 550.0L371.6 550.0Q371.6 549.1 372.0 548.3Q372.5 547.5 373.5 546.5L373.5 546.5L383.6 536.9Q386.8 533.8 387.8 532.2Q388.9 530.6 388.9 528.8L388.9 528.8Q388.9 526.7 387.4 525.3Q386.0 524 383.7 524L383.7 524Q379.7 524 377.9 528.1L377.9 528.1Q377.3 529.2 376.5 529.7Q375.8 530.1 374.7 530.1L374.7 530.1Q373.3 530.1 372.5 529.4Q371.7 528.6 371.7 527.3L371.7 527.3Q371.7 526.5 372.0 525.7L372.0 525.7Q372.9 522.7 376.0 520.6Q379.2 518.5 383.8 518.5L383.8 518.5Q389.1 518.5 392.4 521.2Q395.8 524.0 395.8 528.3L395.8 528.3Q395.8 529.9 395.4 531.2Q395 532.5 394.0 533.9Q393.1 535.3 391.7 536.8Q390.4 538.2 388.2 540.3L388.2 540.3L380.9 547.3L380.9 547.4L393.6 547.4Q395 547.4 395.8 548.2Q396.6 549.0 396.6 550.3L396.6 550.3Q396.6 551.5 395.8 552.3Q395 553.1 393.6 553.1L393.6 553.1ZM413.6 553.8L413.6 553.8Q409.6 553.8 406.3 552.1Q403.1 550.4 401.8 547.7L401.8 547.7Q401.3 546.5 401.3 545.4L401.3 545.4Q401.3 544.0 402.0 543.3Q402.8 542.5 404.2 542.5L404.2 542.5Q405.3 542.5 406.0 542.9Q406.7 543.3 407.3 544.3L407.3 544.3Q409.3 548.2 413.6 548.2L413.6 548.2Q416.3 548.2 418.1 546.4Q419.9 544.6 419.9 541.9L419.9 541.9Q419.9 539.2 418.1 537.5Q416.4 535.8 413.6 535.8L413.6 535.8Q410.8 535.8 408.7 537.8L408.7 537.8Q407.6 538.8 406.9 539.1Q406.2 539.4 405.0 539.4L405.0 539.4Q403.4 539.4 402.5 538.4Q401.6 537.4 401.7 535.9L401.7 535.9Q401.7 535.8 401.7 535.6L401.7 535.6L402.7 523.3Q402.9 521.1 404.0 520.2Q405.1 519.2 407.2 519.2L407.2 519.2L422 519.2Q423.3 519.2 424.1 520.0Q424.9 520.8 424.9 522.1Q424.9 523.3 424.1 524.1Q423.3 524.9 422 524.9L422 524.9L408.6 524.9L407.8 534.3L408.0 534.3Q409.0 532.6 411.0 531.7Q413.0 530.7 415.6 530.7L415.6 530.7Q420.4 530.7 423.5 533.8Q426.6 536.9 426.6 541.7L426.6 541.7Q426.6 547.1 423.0 550.5Q419.4 553.8 413.6 553.8Z "/><mask id="satori_om-id-0-1-1"><rect x="1013" y="524" width="147" height="36" fill="#fff"/></mask><path fill="#8e8e8e" d="M1016.9 552.6Q1016.5 552.9 1016.0 552.9Q1015.4 552.9 1015.1 552.6Q1014.8 552.2 1014.8 551.7L1014.8 551.7L1014.8 532.6Q1014.8 532.0 1015.1 531.6Q1015.5 531.3 1016.1 531.3Q1016.6 531.3 1017.0 531.6Q1017.3 532.0 1017.3 532.6L1017.3 532.6L1017.3 540.0L1017.4 540.0Q1018.1 538.7 1019.4 537.9Q1020.7 537.2 1022.3 537.2L1022.3 537.2Q1025.2 537.2 1026.9 539.3Q1028.7 541.5 1028.7 545.0L1028.7 545.0Q1028.7 548.6 1026.9 550.8Q1025.2 552.9 1022.2 552.9L1022.2 552.9Q1020.6 552.9 1019.3 552.2Q1018.0 551.4 1017.3 550.1L1017.3 550.1L1017.2 550.1L1017.2 551.7Q1017.2 552.2 1016.9 552.6ZM1021.7 550.7L1021.7 550.7Q1023.8 550.7 1024.9 549.2Q1026.1 547.7 1026.1 545.0L1026.1 545.0Q1026.1 542.5 1024.9 540.9Q1023.8 539.4 1021.7 539.4L1021.7 539.4Q1019.8 539.4 1018.6 541.0Q1017.3 542.5 1017.3 545.0L1017.3 545.0Q1017.3 547.6 1018.6 549.1Q1019.8 550.7 1021.7 550.7ZM1032.8 558.4L1032.8 558.4Q1031.9 558.4 1031.4 558.0Q1030.9 557.7 1030.9 557.1L1030.9 557.1Q1030.9 556.7 1031.1 556.4Q1031.4 556.2 1031.9 556.2L1031.9 556.2Q1032.1 556.2 1032.3 556.2Q1032.5 556.2 1032.7 556.2L1032.7 556.2Q1034.4 556.2 1035.2 553.7L1035.2 553.7L1035.6 552.7L1030.3 539.0Q1030.2 538.6 1030.2 538.3L1030.2 538.3Q1030.2 537.8 1030.6 537.5Q1030.9 537.2 1031.5 537.2L1031.5 537.2Q1032.4 537.2 1032.7 538.1L1032.7 538.1L1036.9 550.1L1037.0 550.1L1041.2 538.1Q1041.3 537.6 1041.6 537.4Q1041.9 537.2 1042.4 537.2L1042.4 537.2Q1042.9 537.2 1043.3 537.5Q1043.6 537.8 1043.6 538.3L1043.6 538.3Q1043.6 538.6 1043.5 539.0L1043.5 539.0L1037.9 553.7Q1036.9 556.4 1035.8 557.4Q1034.7 558.4 1032.8 558.4Z M1066.9 550.9Q1064.7 553.0 1060.8 553.0Q1056.9 553.0 1054.7 550.9Q1052.4 548.7 1052.4 545.3L1052.4 545.3L1052.4 532.7Q1052.4 532.1 1052.8 531.7Q1053.1 531.3 1053.7 531.3Q1054.3 531.3 1054.7 531.7Q1055.0 532.1 1055.0 532.7L1055.0 532.7L1055.0 545.1Q1055.0 547.5 1056.6 549.1Q1058.1 550.6 1060.8 550.6Q1063.5 550.6 1065.0 549.1Q1066.6 547.5 1066.6 545.1L1066.6 545.1L1066.6 532.7Q1066.6 532.1 1066.9 531.7Q1067.3 531.3 1067.9 531.3Q1068.5 531.3 1068.8 531.7Q1069.2 532.1 1069.2 532.7L1069.2 532.7L1069.2 545.3Q1069.2 548.7 1066.9 550.9ZM1075.6 552.6Q1075.2 552.9 1074.6 552.9Q1074.0 552.9 1073.7 552.6Q1073.3 552.2 1073.3 551.6L1073.3 551.6L1073.3 532.9Q1073.3 532.3 1073.7 531.9Q1074.0 531.5 1074.6 531.5L1074.6 531.5L1081.2 531.5Q1084.3 531.5 1086.1 533.2Q1088.0 535.0 1088.0 537.8L1088.0 537.8Q1088.0 540.0 1086.8 541.6Q1085.7 543.3 1083.7 543.9L1083.7 543.9L1087.6 550.8Q1087.9 551.3 1087.9 551.7L1087.9 551.7Q1087.9 552.2 1087.5 552.6Q1087.1 552.9 1086.5 552.9L1086.5 552.9Q1086.1 552.9 1085.8 552.7Q1085.5 552.5 1085.2 552.1L1085.2 552.1L1081.0 544.3L1075.9 544.3L1075.9 551.6Q1075.9 552.2 1075.6 552.6ZM1075.9 533.9L1075.9 542.0L1081.0 542.0Q1083.0 542.0 1084.1 540.9Q1085.2 539.9 1085.2 537.9L1085.2 537.9Q1085.2 536.0 1084.1 534.9Q1082.9 533.9 1080.9 533.9L1080.9 533.9L1075.9 533.9ZM1099.4 545.3L1091.9 545.3Q1091.3 545.3 1091.0 545.0Q1090.6 544.6 1090.6 544.1Q1090.6 543.6 1091.0 543.2Q1091.3 542.9 1091.9 542.9L1091.9 542.9L1099.4 542.9Q1100.0 542.9 1100.3 543.2Q1100.7 543.6 1100.7 544.1Q1100.7 544.6 1100.3 545.0Q1100.0 545.3 1099.4 545.3L1099.4 545.3ZM1106.4 552.6Q1106.0 552.9 1105.4 552.9Q1104.8 552.9 1104.5 552.6Q1104.1 552.2 1104.1 551.6L1104.1 551.6L1104.1 532.9Q1104.1 532.3 1104.5 531.9Q1104.8 531.5 1105.4 531.5L1105.4 531.5L1112.1 531.5Q1115.1 531.5 1117.0 533.2Q1118.8 535.0 1118.8 537.8L1118.8 537.8Q1118.8 540.0 1117.7 541.6Q1116.5 543.3 1114.5 543.9L1114.5 543.9L1118.4 550.8Q1118.7 551.3 1118.7 551.7L1118.7 551.7Q1118.7 552.2 1118.3 552.6Q1117.9 552.9 1117.3 552.9L1117.3 552.9Q1116.9 552.9 1116.6 552.7Q1116.3 552.5 1116.1 552.1L1116.1 552.1L1111.8 544.3L1106.8 544.3L1106.8 551.6Q1106.8 552.2 1106.4 552.6ZM1106.8 533.9L1106.8 542.0L1111.8 542.0Q1113.9 542.0 1115.0 540.9Q1116.1 539.9 1116.1 537.9L1116.1 537.9Q1116.1 536.0 1114.9 534.9Q1113.8 533.9 1111.7 533.9L1111.7 533.9L1106.8 533.9ZM1122.2 552.9L1122.2 552.9Q1121.6 552.9 1121.2 552.5Q1120.9 552.2 1120.9 551.7L1120.9 551.7Q1120.9 551.4 1121.0 551.0L1121.0 551.0L1127.8 532.6Q1128.3 531.3 1129.5 531.3L1129.5 531.3Q1130.7 531.3 1131.2 532.6L1131.2 532.6L1138.0 551.0Q1138.2 551.4 1138.2 551.7L1138.2 551.7Q1138.2 552.2 1137.8 552.5Q1137.4 552.9 1136.9 552.9L1136.9 552.9Q1135.9 552.9 1135.6 551.9L1135.6 551.9L1133.7 546.6L1125.3 546.6L1123.5 551.9Q1123.1 552.9 1122.2 552.9ZM1129.5 534.7L1126.1 544.4L1132.9 544.4L1129.6 534.7L1129.5 534.7ZM1148.1 552.7L1142.3 552.7Q1141.7 552.7 1141.4 552.3Q1141.0 551.9 1141.0 551.3L1141.0 551.3L1141.0 532.9Q1141.0 532.3 1141.4 531.9Q1141.7 531.5 1142.3 531.5L1142.3 531.5L1148.1 531.5Q1152.8 531.5 1155.5 534.3Q1158.1 537.1 1158.1 542.1L1158.1 542.1Q1158.1 547.1 1155.5 549.9Q1152.8 552.7 1148.1 552.7L1148.1 552.7ZM1143.7 533.9L1143.7 550.3L1148.0 550.3Q1151.5 550.3 1153.5 548.2Q1155.4 546.1 1155.4 542.1L1155.4 542.1Q1155.4 538.1 1153.5 536.0Q1151.6 533.9 1148.0 533.9L1148.0 533.9L1143.7 533.9Z "/></svg>