<svg width="1200" height="630" viewBox="0 0 1200 630" xmlns="http://www.w3.org/2000/svg"><mask id="satori_om-id"><rect x="0" y="0" width="1200" height="630" fill="#fff"/></mask><mask id="satori_om-id-0"><rect x="0" y="0" width="1200" height="630" fill="#fff"/></mask><rect x="0" y="0" width="1200" height="630" fill="#f2f2f2"/><mask id="satori_om-id-0-0"><rect x="0" y="0" width="1200" height="441" fill="#fff"/></mask><mask id="satori_om-id-0-0-0"><rect x="40" y="95" width="1120" height="36" fill="#fff"/></mask><path fill="#8e8e8e" d="M50.0 123.4Q49.6 123.9 48.8 123.9Q48.1 123.9 47.6 123.4Q47.2 123.0 47.2 122.2L47.2 122.2L47.2 105.4L42.0 105.4Q41.3 105.4 40.9 105.0Q40.5 104.6 40.5 103.9Q40.5 103.3 40.9 102.9Q41.3 102.5 42.0 102.5L42.0 102.5L55.6 102.5Q56.3 102.5 56.8 102.9Q57.2 103.3 57.2 103.9Q57.2 104.6 56.8 105.0Q56.3 105.4 55.6 105.4L55.6 105.4L50.5 105.4L50.5 122.2Q50.5 123.0 50.0 123.4ZM62.1 123.5Q61.6 123.9 60.9 123.9Q60.2 123.9 59.8 123.5Q59.3 123.0 59.3 122.3L59.3 122.3L59.3 103.9Q59.3 103.1 59.8 102.7Q60.2 102.2 60.9 102.2L60.9 102.2Q61.6 102.2 62.1 102.7Q62.5 103.1 62.5 103.9L62.5 103.9L62.5 110.8L62.5 110.8Q63.2 109.5 64.4 108.7Q65.7 108.0 67.4 108.0L67.4 108.0Q69.9 108.0 71.4 109.5Q72.8 111.1 72.8 113.7L72.8 113.7L72.8 122.3Q72.8 123.0 72.4 123.5Q71.9 123.9 71.2 123.9L71.2 123.9Q70.5 123.9 70.1 123.5Q69.6 123.0 69.6 122.3L69.6 122.3L69.6 114.3Q69.6 112.6 68.8 111.7Q67.9 110.7 66.3 110.7L66.3 110.7Q64.5 110.7 63.5 111.8Q62.5 112.9 62.5 114.8L62.5 114.8L62.5 122.3Q62.5 123.0 62.1 123.5ZM81.2 123.9L81.2 123.9Q78.7 123.9 77.2 122.4Q75.8 120.9 75.8 118.2L75.8 118.2L75.8 109.7Q75.8 108.9 76.2 108.4Q76.7 108.0 77.4 108.0L77.4 108.0Q78.1 108.0 78.5 108.4Q79.0 108.9 79.0 109.7L79.0 109.7L79.0 117.6Q79.0 119.4 79.8 120.3Q80.6 121.2 82.3 121.2L82.3 121.2Q84.0 121.2 84.9 120.1Q85.9 119.0 85.9 117.2L85.9 117.2L85.9 109.7Q85.9 108.9 86.4 108.4Q86.8 108.0 87.5 108.0L87.5 108.0Q88.2 108.0 88.7 108.4Q89.1 108.9 89.1 109.7L89.1 109.7L89.1 122.3Q89.1 123.1 88.7 123.5Q88.3 123.9 87.6 123.9Q86.9 123.9 86.5 123.5Q86.1 123.1 86.1 122.3L86.1 122.3L86.1 121.1L86.0 121.1Q84.6 123.9 81.2 123.9ZM93.8 123.9L93.8 123.9Q93.1 123.9 92.6 123.5Q92.2 123.0 92.2 122.3L92.2 122.3L92.2 109.6Q92.2 108.9 92.6 108.4Q93.0 108.0 93.7 108.0L93.7 108.0Q94.4 108.0 94.8 108.4Q95.2 108.9 95.2 109.6L95.2 109.6L95.2 110.9L95.3 110.9Q95.6 109.6 96.6 108.8Q97.5 108.0 98.7 108.0L98.7 108.0Q99.5 108.0 99.9 108.4L99.9 108.4Q100.3 108.7 100.3 109.5L100.3 109.5Q100.3 110.2 99.9 110.6L99.9 110.6Q99.4 111.0 98.4 111.0L98.4 111.0Q96.9 111.0 96.1 112.0Q95.4 112.9 95.4 114.4L95.4 114.4L95.4 122.3Q95.4 123.0 94.9 123.5Q94.5 123.9 93.8 123.9ZM107.7 124.0L107.7 124.0Q105.5 124.0 103.9 123.1Q102.3 122.3 101.7 120.8L101.7 120.8Q101.6 120.5 101.6 120.2L101.6 120.2Q101.6 119.6 102.0 119.2Q102.4 118.9 103.0 118.9L103.0 118.9Q103.8 118.9 104.4 119.7L104.4 119.7Q105.0 120.7 105.8 121.1Q106.5 121.5 107.9 121.5L107.9 121.5Q109.3 121.5 110.1 121.0Q110.9 120.4 110.9 119.5L110.9 119.5Q110.9 118.7 110.4 118.3Q109.9 117.8 108.7 117.5L108.7 117.5L106.2 117.0Q101.8 115.9 101.8 112.6L101.8 112.6Q101.8 110.5 103.4 109.2Q105.1 108.0 107.9 108.0L107.9 108.0Q109.9 108.0 111.5 108.9Q113.0 109.8 113.4 111.2L113.4 111.2Q113.4 111.6 113.4 111.7L113.4 111.7Q113.4 112.2 113.1 112.5Q112.8 112.9 112.2 112.9L112.2 112.9Q111.3 112.9 110.9 112.2L110.9 112.2Q110.4 111.3 109.6 110.8Q108.9 110.4 107.7 110.4L107.7 110.4Q106.5 110.4 105.7 111.0Q104.9 111.5 104.9 112.4L104.9 112.4Q104.9 113.9 107.2 114.5L107.2 114.5L109.6 115.0Q112.1 115.6 113.1 116.5Q114.1 117.5 114.1 119.2L114.1 119.2Q114.1 121.3 112.3 122.6Q110.6 124.0 107.7 124.0ZM122.3 123.9L122.3 123.9Q119.4 123.9 117.6 121.8Q115.9 119.6 115.9 116.0Q115.9 112.3 117.6 110.2Q119.4 108.0 122.3 108.0L122.3 108.0Q123.9 108.0 125.2 108.8Q126.5 109.5 127.1 110.8L127.1 110.8L127.2 110.8L127.2 103.9Q127.2 103.1 127.6 102.7Q128.1 102.2 128.8 102.2L128.8 102.2Q129.5 102.2 129.9 102.7Q130.4 103.2 130.4 103.9L130.4 103.9L130.4 122.4Q130.4 123.1 129.9 123.5Q129.5 123.9 128.8 123.9L128.8 123.9Q128.1 123.9 127.7 123.5Q127.2 123.1 127.2 122.4L127.2 122.4L127.2 120.9L127.2 120.9Q126.5 122.3 125.3 123.1Q124.1 123.9 122.3 123.9ZM123.2 121.2L123.2 121.2Q125.0 121.2 126.1 119.8Q127.2 118.4 127.2 116.0L127.2 116.0Q127.2 113.6 126.1 112.1Q125.0 110.7 123.2 110.7L123.2 110.7Q121.3 110.7 120.2 112.1Q119.1 113.5 119.1 116.0L119.1 116.0Q119.1 118.4 120.2 119.8Q121.3 121.2 123.2 121.2ZM138.1 123.9L138.1 123.9Q135.9 123.9 134.4 122.6Q133.0 121.3 133.0 119.3L133.0 119.3Q133.0 117.3 134.5 116.1Q136.0 114.9 138.7 114.7L138.7 114.7L142.9 114.5L142.9 113.3Q142.9 112.0 142.1 111.3Q141.3 110.6 139.9 110.6L139.9 110.6Q138.7 110.6 137.9 111.0Q137.1 111.5 136.4 112.5L136.4 112.5Q136.0 113.2 135.2 113.2L135.2 113.2Q134.6 113.2 134.2 112.8Q133.8 112.4 133.8 111.9L133.8 111.9Q133.8 111.3 134.1 110.8L134.1 110.8Q134.7 109.5 136.3 108.8Q137.9 108.0 140.0 108.0L140.0 108.0Q142.8 108.0 144.4 109.4Q146.1 110.7 146.1 113.0L146.1 113.0L146.1 122.3Q146.1 123.1 145.7 123.5Q145.2 123.9 144.6 123.9L144.6 123.9Q143.9 123.9 143.5 123.5Q143.1 123.1 143.1 122.4L143.1 122.4L143.1 121.1L143.0 121.1Q142.3 122.4 141.0 123.2Q139.7 123.9 138.1 123.9ZM139.0 121.4L139.0 121.4Q140.7 121.4 141.8 120.4Q142.9 119.4 142.9 117.9L142.9 117.9L142.9 116.7L139.1 116.9Q137.7 117.0 137.0 117.6Q136.2 118.2 136.2 119.2L136.2 119.2Q136.2 120.2 137.0 120.8Q137.7 121.4 139.0 121.4ZM151.1 129.4L151.1 129.4Q150.0 129.4 149.4 129.0Q148.8 128.6 148.8 127.9L148.8 127.9Q148.8 127.4 149.1 127.1Q149.5 126.8 150.0 126.8L150.0 126.8Q150.2 126.8 150.4 126.8Q150.7 126.8 150.8 126.8L150.8 126.8Q152.4 126.8 153.2 124.7L153.2 124.7L153.5 123.8L148.3 110.3Q148.1 109.9 148.1 109.4L148.1 109.4Q148.1 108.8 148.6 108.4Q149.1 108.0 149.8 108.0L149.8 108.0Q150.4 108.0 150.7 108.3Q151.1 108.5 151.3 109.2L151.3 109.2L155.2 120.8L155.3 120.8L159.2 109.2Q159.4 108.5 159.7 108.3Q160.1 108.0 160.7 108.0L160.7 108.0Q161.4 108.0 161.8 108.4Q162.2 108.8 162.2 109.4L162.2 109.4Q162.2 109.8 162.1 110.3L162.1 110.3L156.7 124.4Q155.7 127.2 154.5 128.3Q153.2 129.4 151.1 129.4ZM166.7 120.1L166.7 120.1Q167.4 120.1 167.8 120.5Q168.2 120.8 168.2 121.4L168.2 121.4Q168.2 121.8 168.1 122.3L168.1 122.3L166.8 127.3Q166.5 128.4 165.4 128.4L165.4 128.4Q164.9 128.4 164.5 128.1Q164.2 127.7 164.2 127.2L164.2 127.2Q164.2 127.1 164.3 126.8L164.3 126.8L165.2 121.4Q165.4 120.1 166.7 120.1Z M181.7 123.9L181.7 123.9Q181.0 123.9 180.6 123.6Q180.2 123.2 180.2 122.6L180.2 122.6Q180.2 122.1 180.5 121.6L180.5 121.6L189.0 105.4L189.0 105.3L179.1 105.3Q178.5 105.3 178.1 104.9Q177.7 104.5 177.7 103.9L177.7 103.9Q177.7 103.3 178.1 102.9Q178.5 102.5 179.1 102.5L179.1 102.5L190.3 102.5Q191.2 102.5 191.8 103.0Q192.3 103.5 192.3 104.4L192.3 104.4Q192.3 105.1 191.7 106.4L191.7 106.4L183.2 123.0Q182.9 123.5 182.6 123.7Q182.2 123.9 181.7 123.9Z M204.2 123.5Q203.8 123.9 203.1 123.9Q202.3 123.9 201.9 123.5Q201.5 123.0 201.5 122.2L201.5 122.2L201.5 104.1Q201.5 103.2 201.9 102.8Q202.4 102.3 203.2 102.3L203.2 102.3Q203.8 102.3 204.2 102.5Q204.6 102.7 205.0 103.3L205.0 103.3L215.4 118.1L215.5 118.1L215.5 104.0Q215.5 103.2 215.9 102.7Q216.4 102.3 217.1 102.3L217.1 102.3Q217.8 102.3 218.3 102.7Q218.7 103.2 218.7 104.0L218.7 104.0L218.7 122.2Q218.7 123.0 218.2 123.5Q217.8 123.9 217.0 123.9L217.0 123.9Q216.4 123.9 216.0 123.7Q215.6 123.5 215.2 122.9L215.2 122.9L204.8 108.1L204.6 108.1L204.6 122.2Q204.6 123.0 204.2 123.5ZM234.2 121.8Q232.2 124.0 228.8 124.0Q225.5 124.0 223.5 121.8Q221.5 119.7 221.5 116.0L221.5 116.0Q221.5 112.3 223.5 110.1Q225.5 108.0 228.8 108.0Q232.2 108.0 234.2 110.1Q236.1 112.3 236.1 116.0L236.1 116.0Q236.1 119.7 234.2 121.8ZM228.8 121.3L228.8 121.3Q230.7 121.3 231.8 119.9Q232.9 118.5 232.9 116.0L232.9 116.0Q232.9 113.4 231.8 112.0Q230.7 110.6 228.8 110.6Q227.0 110.6 225.9 112.0Q224.7 113.4 224.7 116.0L224.7 116.0Q224.7 118.5 225.9 119.9Q227.0 121.3 228.8 121.3ZM244.5 123.9L244.5 123.9Q243.7 123.9 243.2 123.6Q242.7 123.2 242.3 122.3L242.3 122.3L237.8 110.3Q237.6 109.8 237.6 109.4L237.6 109.4Q237.6 108.8 238.0 108.4Q238.5 108.0 239.2 108.0L239.2 108.0Q240.3 108.0 240.7 109.2L240.7 109.2L244.5 120.6L244.6 120.6L248.4 109.2Q248.8 108.0 249.9 108.0L249.9 108.0Q250.5 108.0 251.0 108.4Q251.4 108.8 251.4 109.4L251.4 109.4Q251.4 109.9 251.3 110.3L251.3 110.3L246.7 122.3Q246.4 123.2 245.9 123.6Q245.3 123.9 244.5 123.9ZM260.2 124.0L260.2 124.0Q256.8 124.0 254.8 121.9Q252.9 119.8 252.9 116.0L252.9 116.0Q252.9 112.4 254.8 110.2Q256.8 108.0 260.0 108.0L260.0 108.0Q263.1 108.0 265.0 110.0Q266.9 112.0 266.9 115.1L266.9 115.1Q266.9 115.9 266.5 116.3Q266.1 116.8 265.4 116.8L265.4 116.8L256.1 116.8L256.1 116.8Q256.1 118.9 257.2 120.2Q258.3 121.4 260.2 121.4L260.2 121.4Q261.5 121.4 262.4 120.9Q263.3 120.4 264.2 119.2L264.2 119.2Q264.6 118.6 265.3 118.6L265.3 118.6Q265.8 118.6 266.2 119.0Q266.6 119.3 266.6 119.9L266.6 119.9Q266.6 120.3 266.4 120.8L266.4 120.8Q265.6 122.3 264.0 123.1Q262.4 124.0 260.2 124.0ZM256.1 114.5L256.1 114.5L263.8 114.5Q263.7 112.7 262.7 111.6Q261.7 110.5 260.0 110.5L260.0 110.5Q258.4 110.5 257.3 111.6Q256.2 112.7 256.1 114.5ZM272.1 123.5Q271.7 123.9 271.0 123.9Q270.3 123.9 269.8 123.5Q269.4 123.0 269.4 122.3L269.4 122.3L269.4 109.6Q269.4 108.9 269.8 108.4Q270.2 108.0 270.9 108.0Q271.6 108.0 272.0 108.4Q272.4 108.8 272.4 109.6L272.4 109.6L272.4 110.8L272.5 110.8Q273.0 109.5 274.2 108.8Q275.3 108.0 276.9 108.0L276.9 108.0Q278.5 108.0 279.6 108.8Q280.7 109.6 281.2 111.0L281.2 111.0L281.2 111.0Q281.8 109.6 283.1 108.8Q284.4 108.0 286.0 108.0L286.0 108.0Q288.3 108.0 289.7 109.4Q291.1 110.8 291.1 113.1L291.1 113.1L291.1 122.3Q291.1 123.0 290.6 123.5Q290.2 123.9 289.5 123.9Q288.8 123.9 288.3 123.5Q287.9 123.0 287.9 122.3L287.9 122.3L287.9 113.8Q287.9 112.3 287.1 111.5Q286.4 110.7 285.0 110.7Q283.6 110.7 282.7 111.6Q281.8 112.6 281.8 114.0L281.8 114.0L281.8 122.3Q281.8 123.0 281.4 123.5Q281.0 123.9 280.2 123.9Q279.5 123.9 279.1 123.5Q278.7 123.0 278.7 122.3L278.7 122.3L278.7 113.6Q278.7 112.3 277.9 111.5Q277.1 110.7 275.8 110.7L275.8 110.7Q274.4 110.7 273.5 111.7Q272.6 112.6 272.6 114.1L272.6 114.1L272.6 122.3Q272.6 123.0 272.1 123.5ZM295.8 123.9L295.8 123.9Q295.1 123.9 294.7 123.5Q294.3 123.1 294.3 122.4L294.3 122.4L294.3 103.9Q294.3 103.2 294.7 102.7Q295.1 102.2 295.8 102.2Q296.5 102.2 297.0 102.7Q297.4 103.2 297.4 103.9L297.4 103.9L297.4 110.9L297.5 110.9Q298.2 109.5 299.5 108.8Q300.7 108.0 302.4 108.0L302.4 108.0Q305.3 108.0 307.0 110.2Q308.8 112.3 308.8 116.0L308.8 116.0Q308.8 119.6 307.0 121.8Q305.3 123.9 302.3 123.9L302.3 123.9Q300.7 123.9 299.4 123.2Q298.1 122.4 297.4 121.0L297.4 121.0L297.3 121.0L297.3 122.4Q297.3 123.1 296.9 123.5Q296.5 123.9 295.8 123.9ZM301.5 121.2L301.5 121.2Q303.4 121.2 304.4 119.8Q305.5 118.4 305.5 116.0L305.5 116.0Q305.5 113.5 304.4 112.1Q303.3 110.7 301.5 110.7L301.5 110.7Q299.7 110.7 298.5 112.1Q297.4 113.6 297.4 116.0L297.4 116.0Q297.4 118.3 298.5 119.8Q299.7 121.2 301.5 121.2ZM317.9 124.0L317.9 124.0Q314.4 124.0 312.5 121.9Q310.5 119.8 310.5 116.0L310.5 116.0Q310.5 112.4 312.5 110.2Q314.4 108.0 317.7 108.0L317.7 108.0Q320.8 108.0 322.7 110.0Q324.6 112.0 324.6 115.1L324.6 115.1Q324.6 115.9 324.2 116.3Q323.8 116.8 323.1 116.8L323.1 116.8L313.7 116.8L313.7 116.8Q313.7 118.9 314.8 120.2Q315.9 121.4 317.8 121.4L317.8 121.4Q319.1 121.4 320.0 120.9Q320.9 120.4 321.8 119.2L321.8 119.2Q322.3 118.6 322.9 118.6L322.9 118.6Q323.5 118.6 323.9 119.0Q324.3 119.3 324.3 119.9L324.3 119.9Q324.3 120.3 324.0 120.8L324.0 120.8Q323.3 122.3 321.7 123.1Q320.1 124.0 317.9 124.0ZM313.8 114.5L313.8 114.5L321.5 114.5Q321.4 112.7 320.4 111.6Q319.3 110.5 317.7 110.5L317.7 110.5Q316.0 110.5 315.0 111.6Q313.9 112.7 313.8 114.5ZM328.6 123.9L328.6 123.9Q327.9 123.9 327.5 123.5Q327.1 123.0 327.1 122.3L327.1 122.3L327.1 109.6Q327.1 108.9 327.5 108.4Q327.9 108.0 328.6 108.0L328.6 108.0Q329.2 108.0 329.7 108.4Q330.1 108.9 330.1 109.6L330.1 109.6L330.1 110.9L330.1 110.9Q330.5 109.6 331.4 108.8Q332.4 108.0 333.5 108.0L333.5 108.0Q334.4 108.0 334.8 108.4L334.8 108.4Q335.2 108.7 335.2 109.5L335.2 109.5Q335.2 110.2 334.7 110.6L334.7 110.6Q334.3 111.0 333.3 111.0L333.3 111.0Q331.7 111.0 331.0 112.0Q330.2 112.9 330.2 114.4L330.2 114.4L330.2 122.3Q330.2 123.0 329.8 123.5Q329.4 123.9 328.6 123.9Z M356.2 123.7L344.6 123.7Q343.8 123.7 343.4 123.3Q343.0 122.9 343.0 122.3L343.0 122.3Q343.0 121.8 343.2 121.5Q343.4 121.1 343.9 120.6L343.9 120.6L350.5 113.9Q352.6 111.8 353.3 110.7Q353.9 109.6 353.9 108.3L353.9 108.3Q353.9 106.8 352.9 105.8Q351.9 104.8 350.3 104.8L350.3 104.8Q347.1 104.8 346.0 108.0L346.0 108.0Q345.8 108.5 345.4 108.8Q345.1 109.0 344.5 109.0L344.5 109.0Q343.9 109.0 343.5 108.6Q343.1 108.3 343.1 107.6L343.1 107.6Q343.1 107.3 343.2 107.0L343.2 107.0Q343.4 106.1 343.9 105.3Q344.5 104.4 345.3 103.7Q346.2 103.0 347.5 102.6Q348.8 102.1 350.3 102.1L350.3 102.1Q353.3 102.1 355.2 103.8Q357.2 105.5 357.2 108.1L357.2 108.1Q357.2 109.9 356.2 111.5Q355.2 113.0 352.5 115.8L352.5 115.8L347.5 120.8L347.5 120.9L356.2 120.9Q356.9 120.9 357.3 121.3Q357.7 121.7 357.7 122.3L357.7 122.3Q357.7 122.9 357.3 123.3Q356.9 123.7 356.2 123.7L356.2 123.7ZM374.1 121.1Q372.0 124.1 368.2 124.1Q364.4 124.1 362.2 121.1Q360.1 118.2 360.1 113.1L360.1 113.1Q360.1 108.0 362.2 105.1Q364.4 102.1 368.2 102.1L368.2 102.1Q371.9 102.1 374.1 105.1Q376.2 108.0 376.2 113.1L376.2 113.1Q376.2 118.1 374.1 121.1ZM368.2 121.3L368.2 121.3Q370.4 121.3 371.7 119.1Q372.9 116.9 372.9 113.1L372.9 113.1Q372.9 109.3 371.7 107.1Q370.4 104.9 368.2 104.9Q365.9 104.9 364.7 107.1Q363.4 109.3 363.4 113.1L363.4 113.1Q363.4 116.9 364.6 119.1Q365.9 121.3 368.2 121.3ZM392.3 123.7L380.6 123.7Q379.9 123.7 379.5 123.3Q379.1 122.9 379.1 122.3L379.1 122.3Q379.1 121.8 379.3 121.5Q379.5 121.1 380.0 120.6L380.0 120.6L386.6 113.9Q388.7 111.8 389.4 110.7Q390.0 109.6 390.0 108.3L390.0 108.3Q390.0 106.8 389.0 105.8Q388.0 104.8 386.4 104.8L386.4 104.8Q383.2 104.8 382.1 108.0L382.1 108.0Q381.9 108.5 381.5 108.8Q381.2 109.0 380.6 109.0L380.6 109.0Q380.0 109.0 379.6 108.6Q379.2 108.3 379.2 107.6L379.2 107.6Q379.2 107.3 379.3 107.0L379.3 107.0Q379.4 106.1 380.0 105.3Q380.5 104.4 381.4 103.7Q382.3 103.0 383.6 102.6Q384.9 102.1 386.4 102.1L386.4 102.1Q389.4 102.1 391.3 103.8Q393.3 105.5 393.3 108.1L393.3 108.1Q393.3 109.9 392.3 111.5Q391.3 113.0 388.6 115.8L388.6 115.8L383.5 120.8L383.5 120.9L392.3 120.9Q393.0 120.9 393.4 121.3Q393.8 121.7 393.8 122.3L393.8 122.3Q393.8 122.9 393.4 123.3Q393.0 123.7 392.3 123.7L392.3 123.7ZM408.1 123.9L408.1 123.9Q407.5 123.9 407.0 123.5Q406.6 123.0 406.6 122.3L406.6 122.3L406.6 119.5L397.9 119.5Q397.0 119.5 396.5 119.0Q396.0 118.4 396.0 117.6L396.0 117.6Q396.0 116.6 396.7 115.3L396.7 115.3Q398.5 112.0 403.5 104.7L403.5 104.7Q404.5 103.3 405.2 102.8Q406.0 102.2 407.0 102.2L407.0 102.2Q408.3 102.2 409.0 102.9Q409.7 103.5 409.7 104.7L409.7 104.7L409.7 116.7L411.4 116.7Q412.0 116.7 412.4 117.1Q412.8 117.5 412.8 118.1Q412.8 118.7 412.4 119.1Q412.0 119.5 411.4 119.5L411.4 119.5L409.7 119.5L409.7 122.3Q409.7 123.0 409.3 123.5Q408.8 123.9 408.1 123.9ZM399.0 116.8L406.6 116.8L406.6 105.1L406.5 105.1Q401.1 112.9 399.0 116.7L399.0 116.7L399.0 116.8Z "/><mask id="satori_om-id-0-0-1"><rect x="40" y="176" width="1120" height="165" fill="#fff"/></mask><path fill="#224d67" d="M61.1 239.3L61.1 239.3Q53.2 239.3 48.4 235.0Q43.7 230.7 43.7 223.7L43.7 223.7L43.7 199.7Q43.7 197.9 44.7 196.8Q45.7 195.8 47.5 195.8L47.5 195.8Q49.3 195.8 50.3 196.8Q51.3 197.9 51.3 199.7L51.3 199.7L51.3 223.0Q51.3 227.4 53.9 230.0Q56.5 232.7 61.1 232.7Q65.7 232.7 68.3 230.0Q70.9 227.4 70.9 223.0L70.9 223.0L70.9 199.7Q70.9 197.9 71.9 196.8Q72.9 195.8 74.7 195.8L74.7 195.8Q76.5 195.8 77.5 196.8Q78.5 197.9 78.5 199.7L78.5 199.7L78.5 223.7Q78.5 230.7 73.8 235.0Q69.1 239.3 61.1 239.3ZM97.2 239.2L97.2 239.2Q92.4 239.2 89.0 237.5Q85.7 235.8 84.5 233.0L84.5 233.0Q84.2 232.2 84.2 231.5L84.2 231.5Q84.2 230.2 85.1 229.4Q85.9 228.6 87.3 228.6L87.3 228.6Q89.1 228.6 90.4 230.4L90.4 230.4Q91.7 232.3 93.3 233.1Q94.9 233.9 97.5 233.9L97.5 233.9Q100.0 233.9 101.6 232.9Q103.1 231.8 103.1 230.1L103.1 230.1Q103.1 228.7 102.1 227.8Q101.1 227.0 98.7 226.4L98.7 226.4L93.7 225.3Q84.6 223.3 84.6 216.4L84.6 216.4Q84.6 212.1 88.1 209.5Q91.6 206.9 97.3 206.9L97.3 206.9Q101.7 206.9 104.9 208.8Q108.1 210.6 108.9 213.4L108.9 213.4Q109.0 214.0 109.0 214.5L109.0 214.5Q109.0 215.6 108.3 216.4Q107.6 217.1 106.2 217.1L106.2 217.1Q104.4 217.1 103.4 215.7L103.4 215.7Q102.3 214.0 100.8 213.1Q99.3 212.2 97.1 212.2L97.1 212.2Q94.7 212.2 93.2 213.3Q91.7 214.3 91.7 216.0L91.7 216.0Q91.7 218.8 96.3 219.8L96.3 219.8L101.3 220.9Q106.2 222.0 108.3 223.9Q110.4 225.9 110.4 229.3L110.4 229.3Q110.4 233.8 106.8 236.5Q103.1 239.2 97.2 239.2ZM121.7 202.0Q120.5 203.2 118.8 203.2Q117.1 203.2 116.0 202.0Q114.8 200.8 114.8 199.2L114.8 199.2Q114.8 197.5 116.0 196.4Q117.1 195.2 118.8 195.2L118.8 195.2Q120.6 195.2 121.7 196.4Q122.9 197.5 122.9 199.2L122.9 199.2Q122.9 200.8 121.7 202.0ZM121.5 238.1Q120.5 239.2 118.8 239.2Q117.2 239.2 116.2 238.1Q115.2 237.1 115.2 235.3L115.2 235.3L115.2 210.7Q115.2 209.0 116.2 207.9Q117.2 206.9 118.8 206.9Q120.5 206.9 121.5 207.9Q122.5 209.0 122.5 210.8L122.5 210.8L122.5 235.3Q122.5 237.1 121.5 238.1ZM134.9 238.2Q133.9 239.2 132.3 239.2Q130.6 239.2 129.6 238.2Q128.6 237.1 128.6 235.3L128.6 235.3L128.6 210.6Q128.6 208.9 129.6 207.9Q130.5 206.9 132.1 206.9Q133.7 206.9 134.7 207.9Q135.7 208.9 135.7 210.6L135.7 210.6L135.7 212.8L135.9 212.8Q138.5 206.9 145.5 206.9L145.5 206.9Q150.6 206.9 153.5 210.0Q156.3 213.1 156.3 218.5L156.3 218.5L156.3 235.3Q156.3 237.1 155.3 238.2Q154.3 239.2 152.6 239.2Q151.0 239.2 150.0 238.2Q149.0 237.1 149.0 235.3L149.0 235.3L149.0 220.0Q149.0 216.6 147.4 214.9Q145.8 213.1 142.8 213.1L142.8 213.1Q139.6 213.1 137.8 215.2Q135.9 217.2 135.9 220.6L135.9 220.6L135.9 235.3Q135.9 237.1 134.9 238.2ZM175.5 250.3L175.5 250.3Q171.1 250.2 167.8 248.7Q164.5 247.2 162.9 244.6L162.9 244.6Q162.3 243.6 162.3 242.4L162.3 242.4Q162.3 241.2 163.1 240.4Q164.0 239.6 165.3 239.6L165.3 239.6Q166.7 239.6 168.0 240.8L168.0 240.8Q169.9 242.7 171.6 243.6Q173.4 244.4 175.6 244.5L175.6 244.5Q179.2 244.5 181.3 242.6Q183.5 240.7 183.5 237.6L183.5 237.6L183.5 232.7L183.3 232.7Q182.1 235.2 179.5 236.7Q176.9 238.3 173.6 238.3L173.6 238.3Q167.7 238.3 164.3 234.0Q160.8 229.8 160.8 222.7L160.8 222.7Q160.8 215.4 164.3 211.2Q167.7 207.0 173.7 207.0L173.7 207.0Q177.0 207.0 179.5 208.5Q182.0 210.1 183.4 212.8L183.4 212.8L183.5 212.8L183.5 210.6Q183.5 208.9 184.5 207.9Q185.5 206.9 187.2 206.9Q188.8 206.9 189.8 207.9Q190.8 208.9 190.8 210.6L190.8 210.6L190.8 237.6Q190.8 243.5 186.7 246.9Q182.6 250.3 175.5 250.3ZM175.8 232.6L175.8 232.6Q179.3 232.6 181.4 229.9Q183.5 227.3 183.5 222.7L183.5 222.7Q183.5 218.2 181.4 215.5Q179.3 212.8 175.8 212.8L175.8 212.8Q172.4 212.8 170.3 215.5Q168.3 218.2 168.3 222.7L168.3 222.7Q168.3 227.3 170.3 230.0Q172.4 232.6 175.8 232.6Z M224.4 239.3L224.4 239.3Q218.2 239.3 214.1 237.0Q209.9 234.7 208.7 231.0L208.7 231.0Q208.3 229.9 208.3 228.8L208.3 228.8Q208.3 227.2 209.2 226.3Q210.1 225.3 211.6 225.3L211.6 225.3Q212.9 225.3 213.7 225.9Q214.5 226.4 215.1 227.7L215.1 227.7Q216.1 230.4 218.6 231.7Q221.1 233.0 224.6 233.0L224.6 233.0Q228.4 233.0 230.8 231.3Q233.3 229.6 233.3 227.0L233.3 227.0Q233.3 224.7 231.5 223.2Q229.7 221.8 225.7 220.9L225.7 220.9L221.1 220.0Q208.7 217.4 208.7 208.1L208.7 208.1Q208.7 202.5 213.1 199.1Q217.5 195.6 224.4 195.6L224.4 195.6Q230.0 195.6 234.1 198.0Q238.1 200.4 239.4 204.5L239.4 204.5Q239.7 205.2 239.7 206.3L239.7 206.3Q239.7 207.6 238.8 208.5Q237.8 209.4 236.4 209.4L236.4 209.4Q233.9 209.4 232.7 207.0L232.7 207.0Q230.7 201.9 224.3 201.9L224.3 201.9Q220.8 201.9 218.5 203.4Q216.3 205.0 216.3 207.6L216.3 207.6Q216.3 209.8 218.1 211.2Q219.8 212.7 223.7 213.5L223.7 213.5L228.2 214.4Q234.9 215.8 237.9 218.6Q240.9 221.4 240.9 226.1L240.9 226.1Q240.9 232.2 236.4 235.7Q232.0 239.3 224.4 239.3ZM270.5 234.9Q266.4 239.2 259.6 239.2Q252.7 239.2 248.6 234.9Q244.5 230.6 244.5 223.1L244.5 223.1Q244.5 215.6 248.6 211.2Q252.7 206.9 259.6 206.9L259.6 206.9Q266.4 206.9 270.5 211.2Q274.6 215.6 274.6 223.1L274.6 223.1Q274.6 230.6 270.5 234.9ZM254.0 230.7Q256.0 233.4 259.6 233.4Q263.1 233.4 265.1 230.7Q267.2 228.0 267.2 223.1L267.2 223.1Q267.2 218.2 265.1 215.4Q263.1 212.7 259.6 212.7L259.6 212.7Q256.1 212.7 254.0 215.4Q251.9 218.2 251.9 223.1L251.9 223.1Q251.9 228.0 254.0 230.7ZM292.9 239.2L292.9 239.2Q286.1 239.2 282.0 234.9Q278.0 230.5 278.0 223.1L278.0 223.1Q278.0 215.7 282.0 211.3Q286.1 206.9 292.9 206.9L292.9 206.9Q297.4 206.9 301.0 209.0Q304.5 211.1 305.6 214.4L305.6 214.4Q306.0 215.4 306.0 216.1L306.0 216.1Q306.0 217.5 305.1 218.3Q304.2 219.1 302.9 219.1L302.9 219.1Q301.8 219.1 301.1 218.6Q300.3 218.1 299.7 217.0L299.7 217.0Q297.4 212.8 293.1 212.8L293.1 212.8Q289.6 212.8 287.5 215.6Q285.4 218.3 285.4 223.1L285.4 223.1Q285.4 227.9 287.5 230.6Q289.5 233.3 293.0 233.3L293.0 233.3Q297.4 233.3 299.7 229.3L299.7 229.3Q300.4 228.1 301.1 227.6Q301.9 227.1 303.0 227.1L303.0 227.1Q304.3 227.1 305.2 227.9Q306.1 228.7 306.1 230.1L306.1 230.1Q306.1 230.9 305.7 231.9L305.7 231.9Q304.3 235.1 300.8 237.2Q297.3 239.2 292.9 239.2ZM317.7 202.0Q316.5 203.2 314.8 203.2Q313.1 203.2 311.9 202.0Q310.8 200.8 310.8 199.2L310.8 199.2Q310.8 197.5 311.9 196.4Q313.1 195.2 314.8 195.2L314.8 195.2Q316.5 195.2 317.7 196.4Q318.9 197.5 318.9 199.2L318.9 199.2Q318.9 200.8 317.7 202.0ZM317.5 238.1Q316.5 239.2 314.8 239.2Q313.1 239.2 312.2 238.1Q311.2 237.1 311.2 235.3L311.2 235.3L311.2 210.7Q311.2 209.0 312.2 207.9Q313.1 206.9 314.8 206.9Q316.5 206.9 317.5 207.9Q318.5 209.0 318.5 210.8L318.5 210.8L318.5 235.3Q318.5 237.1 317.5 238.1ZM333.7 239.1L333.7 239.1Q329.2 239.1 326.2 236.5Q323.3 233.9 323.3 229.7L323.3 229.7Q323.3 225.6 326.4 223.2Q329.5 220.8 335.1 220.4L335.1 220.4L343.4 219.9L343.4 217.7Q343.4 215.3 341.8 213.9Q340.3 212.6 337.6 212.6L337.6 212.6Q335.4 212.6 333.9 213.4Q332.4 214.2 331.1 216.2L331.1 216.2Q330.0 217.7 328.1 217.7L328.1 217.7Q326.8 217.7 325.9 216.9Q325.0 216.1 325.0 214.8L325.0 214.8Q325.0 213.8 325.5 212.8L325.5 212.8Q326.7 210.1 330.1 208.5Q333.4 206.9 337.9 206.9L337.9 206.9Q343.6 206.9 347.1 209.7Q350.6 212.5 350.6 217.2L350.6 217.2L350.6 235.5Q350.6 237.2 349.6 238.2Q348.6 239.2 347.0 239.2L347.0 239.2Q345.5 239.2 344.6 238.3Q343.6 237.4 343.5 235.8L343.5 235.8L343.5 233.6L343.4 233.6Q342.1 236.1 339.4 237.6Q336.7 239.1 333.7 239.1ZM335.9 233.6L335.9 233.6Q339.0 233.6 341.2 231.7Q343.4 229.8 343.4 227.1L343.4 227.1L343.4 224.7L336.2 225.1Q333.5 225.3 332.1 226.4Q330.6 227.6 330.6 229.4L330.6 229.4Q330.6 231.3 332.1 232.4Q333.5 233.6 335.9 233.6ZM362.9 238.2Q361.9 239.2 360.3 239.2Q358.7 239.2 357.7 238.2Q356.6 237.1 356.6 235.3L356.6 235.3L356.6 199.6Q356.6 197.7 357.7 196.7Q358.7 195.7 360.3 195.7Q361.9 195.7 362.9 196.7Q363.9 197.7 363.9 199.6L363.9 199.6L363.9 235.3Q363.9 237.1 362.9 238.2Z M389.4 238.1Q388.4 239.2 386.7 239.2Q384.9 239.2 383.9 238.1Q382.9 237.1 382.9 235.2L382.9 235.2L382.9 200.2Q382.9 198.4 383.9 197.3Q384.9 196.3 386.7 196.3L386.7 196.3L399.7 196.3Q406.5 196.3 410.4 199.8Q414.3 203.4 414.3 209.5L414.3 209.5Q414.3 213.6 412.3 216.8Q410.2 220.0 406.6 221.4L406.6 221.4L413.3 233.1Q414.1 234.5 414.1 235.7L414.1 235.7Q414.1 237.2 413.0 238.2Q411.9 239.2 410.3 239.2L410.3 239.2Q408.9 239.2 408.1 238.6Q407.3 238.0 406.4 236.4L406.4 236.4L398.9 222.7L390.4 222.7L390.4 235.2Q390.4 237.1 389.4 238.1ZM390.4 202.4L390.4 216.9L399.0 216.9Q402.6 216.9 404.6 215.0Q406.6 213.1 406.6 209.6L406.6 209.6Q406.6 206.3 404.5 204.4Q402.4 202.4 398.8 202.4L398.8 202.4L390.4 202.4ZM444.4 234.9Q440.3 239.2 433.4 239.2Q426.5 239.2 422.4 234.9Q418.4 230.6 418.4 223.1L418.4 223.1Q418.4 215.6 422.5 211.2Q426.6 206.9 433.4 206.9L433.4 206.9Q440.3 206.9 444.3 211.2Q448.4 215.6 448.4 223.1L448.4 223.1Q448.4 230.6 444.4 234.9ZM427.8 230.7Q429.9 233.4 433.4 233.4Q436.9 233.4 439.0 230.7Q441.0 228.0 441.0 223.1L441.0 223.1Q441.0 218.2 439.0 215.4Q436.9 212.7 433.4 212.7L433.4 212.7Q429.9 212.7 427.8 215.4Q425.8 218.2 425.8 223.1L425.8 223.1Q425.8 228.0 427.8 230.7ZM459.5 238.2Q458.5 239.2 456.9 239.2Q455.3 239.2 454.3 238.2Q453.3 237.3 453.3 235.5L453.3 235.5L453.3 199.6Q453.3 197.7 454.3 196.7Q455.3 195.7 457.0 195.7Q458.6 195.7 459.6 196.7Q460.6 197.7 460.6 199.6L460.6 199.6L460.6 212.9L460.8 212.9Q462.1 210.1 464.7 208.5Q467.2 207.0 470.5 207.0L470.5 207.0Q476.4 207.0 479.9 211.3Q483.3 215.6 483.3 223.1L483.3 223.1Q483.3 230.5 479.9 234.8Q476.4 239.1 470.5 239.1L470.5 239.1Q467.1 239.1 464.6 237.6Q462.0 236.0 460.6 233.3L460.6 233.3L460.5 233.3L460.5 235.5Q460.5 237.2 459.5 238.2ZM468.3 233.1L468.3 233.1Q471.7 233.1 473.8 230.4Q475.8 227.7 475.8 223.1Q475.8 218.4 473.8 215.7Q471.7 213.0 468.3 213.0L468.3 213.0Q464.9 213.0 462.7 215.8Q460.6 218.5 460.6 223.1L460.6 223.1Q460.6 227.6 462.7 230.3Q464.9 233.1 468.3 233.1ZM512.7 234.9Q508.6 239.2 501.7 239.2Q494.9 239.2 490.8 234.9Q486.7 230.6 486.7 223.1L486.7 223.1Q486.7 215.6 490.8 211.2Q494.9 206.9 501.7 206.9L501.7 206.9Q508.6 206.9 512.7 211.2Q516.8 215.6 516.8 223.1L516.8 223.1Q516.8 230.6 512.7 234.9ZM496.2 230.7Q498.2 233.4 501.7 233.4Q505.3 233.4 507.3 230.7Q509.4 228.0 509.4 223.1L509.4 223.1Q509.4 218.2 507.3 215.4Q505.3 212.7 501.7 212.7L501.7 212.7Q498.3 212.7 496.2 215.4Q494.1 218.2 494.1 223.1L494.1 223.1Q494.1 228.0 496.2 230.7ZM523.5 230.9L523.5 230.9L523.5 213.1L521.5 213.1Q520.2 213.1 519.4 212.4Q518.6 211.6 518.6 210.3L518.6 210.3Q518.6 209.0 519.4 208.3Q520.1 207.5 521.5 207.5L521.5 207.5L523.5 207.5L523.5 203.4Q523.5 201.6 524.5 200.6Q525.4 199.6 527.1 199.6L527.1 199.6Q528.8 199.6 529.8 200.6Q530.8 201.6 530.8 203.4L530.8 203.4L530.8 207.5L534.2 207.5Q535.5 207.5 536.3 208.3Q537.1 209.0 537.1 210.3L537.1 210.3Q537.1 211.6 536.3 212.4Q535.5 213.1 534.2 213.1L534.2 213.1L530.8 213.1L530.8 229.3Q530.8 231.1 531.5 231.9Q532.1 232.7 533.7 232.9L533.7 232.9L534.2 232.9Q537.2 233.2 537.2 235.6L537.2 235.6Q537.2 237.2 535.8 238.1Q534.5 238.9 532.0 238.9L532.0 238.9L531.7 238.9Q523.5 238.9 523.5 230.9ZM553.6 239.2L553.6 239.2Q548.7 239.2 545.4 237.5Q542.1 235.8 540.9 233.0L540.9 233.0Q540.6 232.2 540.6 231.5L540.6 231.5Q540.6 230.2 541.5 229.4Q542.3 228.6 543.7 228.6L543.7 228.6Q545.5 228.6 546.8 230.4L546.8 230.4Q548.1 232.3 549.7 233.1Q551.3 233.9 553.8 233.9L553.8 233.9Q556.4 233.9 558.0 232.9Q559.5 231.8 559.5 230.1L559.5 230.1Q559.5 228.7 558.5 227.8Q557.5 227.0 555.1 226.4L555.1 226.4L550.1 225.3Q541.0 223.3 541.0 216.4L541.0 216.4Q541.0 212.1 544.5 209.5Q547.9 206.9 553.7 206.9L553.7 206.9Q558.1 206.9 561.3 208.8Q564.5 210.6 565.3 213.4L565.3 213.4Q565.4 214.0 565.4 214.5L565.4 214.5Q565.4 215.6 564.7 216.4Q563.9 217.1 562.6 217.1L562.6 217.1Q560.8 217.1 559.8 215.7L559.8 215.7Q558.7 214.0 557.2 213.1Q555.7 212.2 553.5 212.2L553.5 212.2Q551.1 212.2 549.6 213.3Q548.1 214.3 548.1 216.0L548.1 216.0Q548.1 218.8 552.7 219.8L552.7 219.8L557.6 220.9Q562.6 222.0 564.7 223.9Q566.8 225.9 566.8 229.3L566.8 229.3Q566.8 233.8 563.2 236.5Q559.5 239.2 553.6 239.2Z M592.5 239.1L592.5 239.1Q588.0 239.1 585.1 236.5Q582.2 233.9 582.2 229.7L582.2 229.7Q582.2 225.6 585.2 223.2Q588.3 220.8 594.0 220.4L594.0 220.4L602.2 219.9L602.2 217.7Q602.2 215.3 600.7 213.9Q599.1 212.6 596.4 212.6L596.4 212.6Q594.2 212.6 592.7 213.4Q591.3 214.2 589.9 216.2L589.9 216.2Q588.8 217.7 586.9 217.7L586.9 217.7Q585.6 217.7 584.7 216.9Q583.9 216.1 583.9 214.8L583.9 214.8Q583.9 213.8 584.4 212.8L584.4 212.8Q585.5 210.1 588.9 208.5Q592.2 206.9 596.7 206.9L596.7 206.9Q602.5 206.9 605.9 209.7Q609.4 212.5 609.4 217.2L609.4 217.2L609.4 235.5Q609.4 237.2 608.4 238.2Q607.5 239.2 605.9 239.2L605.9 239.2Q604.3 239.2 603.4 238.3Q602.5 237.4 602.4 235.8L602.4 235.8L602.4 233.6L602.2 233.6Q600.9 236.1 598.3 237.6Q595.6 239.1 592.5 239.1ZM594.8 233.6L594.8 233.6Q597.9 233.6 600.0 231.7Q602.2 229.8 602.2 227.1L602.2 227.1L602.2 224.7L595 225.1Q592.4 225.3 590.9 226.4Q589.5 227.6 589.5 229.4L589.5 229.4Q589.5 231.3 590.9 232.4Q592.4 233.6 594.8 233.6ZM621.6 238.2Q620.5 239.2 618.9 239.2Q617.3 239.2 616.3 238.2Q615.3 237.1 615.3 235.3L615.3 235.3L615.3 210.6Q615.3 208.9 616.2 207.9Q617.1 206.9 618.8 206.9Q620.4 206.9 621.4 207.9Q622.4 208.9 622.4 210.6L622.4 210.6L622.4 212.8L622.5 212.8Q625.1 206.9 632.2 206.9L632.2 206.9Q637.3 206.9 640.1 210.0Q642.9 213.1 642.9 218.5L642.9 218.5L642.9 235.3Q642.9 237.1 641.9 238.2Q640.9 239.2 639.3 239.2Q637.7 239.2 636.6 238.2Q635.6 237.1 635.6 235.3L635.6 235.3L635.6 220.0Q635.6 216.6 634.1 214.9Q632.5 213.1 629.4 213.1L629.4 213.1Q626.3 213.1 624.4 215.2Q622.6 217.2 622.6 220.6L622.6 220.6L622.6 235.3Q622.6 237.1 621.6 238.2ZM660.4 239.1L660.4 239.1Q654.5 239.1 651.0 234.7Q647.5 230.4 647.5 223.0L647.5 223.0Q647.5 215.7 651.0 211.3Q654.5 207.0 660.4 207.0L660.4 207.0Q663.6 207.0 666.2 208.5Q668.7 210.1 670.0 212.7L670.0 212.7L670.1 212.7L670.1 199.6Q670.1 197.7 671.1 196.7Q672.1 195.7 673.8 195.7Q675.4 195.7 676.4 196.7Q677.4 197.7 677.4 199.6L677.4 199.6L677.4 235.5Q677.4 237.2 676.4 238.2Q675.4 239.2 673.8 239.2L673.8 239.2Q672.2 239.2 671.2 238.2Q670.1 237.2 670.1 235.5L670.1 235.5L670.1 233.1L670 233.1Q668.8 235.9 666.4 237.5Q663.9 239.1 660.4 239.1ZM662.6 233.1L662.6 233.1Q666.0 233.1 668.1 230.4Q670.2 227.7 670.2 223.1L670.2 223.1Q670.2 218.5 668.1 215.7Q666.0 213.0 662.6 213.0L662.6 213.0Q659.0 213.0 657.0 215.7Q654.9 218.4 654.9 223.1L654.9 223.1Q654.9 227.7 657.0 230.4Q659.0 233.1 662.6 233.1Z M698.2 239.1L698.2 239.1Q696.4 239.1 695.4 238.1Q694.3 237.2 694.3 235.6L694.3 235.6Q694.3 234.6 694.8 233.3L694.8 233.3L707.1 199.9Q707.9 197.8 709.2 196.8Q710.5 195.8 712.6 195.8L712.6 195.8Q714.7 195.8 716.0 196.8Q717.3 197.7 718.1 199.9L718.1 199.9L730.4 233.3Q730.9 234.7 730.9 235.6L730.9 235.6Q730.9 237.1 729.9 238.1Q728.8 239.1 727.2 239.1L727.2 239.1Q725.6 239.1 724.7 238.3Q723.8 237.6 723.3 235.9L723.3 235.9L720.5 227.8L704.7 227.8L701.9 235.8Q701.4 237.6 700.5 238.3Q699.6 239.1 698.2 239.1ZM712.5 203.8L706.5 221.8L718.7 221.8L712.7 203.8L712.5 203.8ZM740.2 239.1L740.2 239.1Q738.4 239.1 737.4 238.0Q736.4 237.0 736.4 235.2L736.4 235.2L736.4 199.7Q736.4 197.9 737.4 196.8Q738.4 195.8 740.2 195.8L740.2 195.8Q742.0 195.8 743.0 196.8Q744.0 197.9 744.0 199.7L744.0 199.7L744.0 235.2Q744.0 237.0 743.0 238.1Q742.0 239.1 740.2 239.1Z M764.7 230.9L764.7 230.9L764.7 213.1L762.8 213.1Q761.4 213.1 760.6 212.4Q759.8 211.6 759.8 210.3L759.8 210.3Q759.8 209.0 760.6 208.3Q761.4 207.5 762.8 207.5L762.8 207.5L764.7 207.5L764.7 203.4Q764.7 201.6 765.7 200.6Q766.7 199.6 768.4 199.6L768.4 199.6Q770.0 199.6 771.0 200.6Q772.0 201.6 772.0 203.4L772.0 203.4L772.0 207.5L775.4 207.5Q776.8 207.5 777.5 208.3Q778.3 209.0 778.3 210.3L778.3 210.3Q778.3 211.6 777.5 212.4Q776.7 213.1 775.4 213.1L775.4 213.1L772.0 213.1L772.0 229.3Q772.0 231.1 772.7 231.9Q773.4 232.7 774.9 232.9L774.9 232.9L775.5 232.9Q778.4 233.2 778.4 235.6L778.4 235.6Q778.4 237.2 777.1 238.1Q775.7 238.9 773.2 238.9L773.2 238.9L772.9 238.9Q764.7 238.9 764.7 230.9ZM807.5 234.9Q803.4 239.2 796.6 239.2Q789.7 239.2 785.6 234.9Q781.5 230.6 781.5 223.1L781.5 223.1Q781.5 215.6 785.6 211.2Q789.7 206.9 796.6 206.9L796.6 206.9Q803.4 206.9 807.5 211.2Q811.6 215.6 811.6 223.1L811.6 223.1Q811.6 230.6 807.5 234.9ZM791.0 230.7Q793.0 233.4 796.6 233.4Q800.1 233.4 802.1 230.7Q804.2 228.0 804.2 223.1L804.2 223.1Q804.2 218.2 802.1 215.4Q800.1 212.7 796.6 212.7L796.6 212.7Q793.1 212.7 791.0 215.4Q788.9 218.2 788.9 223.1L788.9 223.1Q788.9 228.0 791.0 230.7Z M832.8 239.1L832.8 239.1Q831.0 239.1 830.0 238.0Q829.0 237.0 829.0 235.2L829.0 235.2L829.0 200.2Q829.0 198.4 830.0 197.3Q831.0 196.3 832.8 196.3L832.8 196.3L845.5 196.3Q851.8 196.3 855.7 200.2Q859.7 204.1 859.7 210.5L859.7 210.5Q859.7 216.8 855.6 220.7Q851.6 224.6 845.1 224.6L845.1 224.6L836.6 224.6L836.6 235.2Q836.6 237.0 835.6 238.1Q834.6 239.1 832.8 239.1ZM836.6 202.5L836.6 218.5L843.4 218.5Q847.5 218.5 849.8 216.4Q852.0 214.3 852.0 210.5L852.0 210.5Q852.0 206.6 849.8 204.6Q847.5 202.5 843.5 202.5L843.5 202.5L836.6 202.5ZM878.3 239.2L878.3 239.2Q871.2 239.2 867.2 235.0Q863.2 230.7 863.2 223.2L863.2 223.2Q863.2 215.7 867.2 211.3Q871.2 206.9 877.9 206.9L877.9 206.9Q884.2 206.9 888.2 210.9Q892.2 215.0 892.2 221.4L892.2 221.4Q892.2 223.0 891.3 223.9Q890.4 224.8 888.8 224.8L888.8 224.8L870.4 224.8L870.4 225.0Q870.4 228.9 872.6 231.3Q874.7 233.6 878.2 233.6L878.2 233.6Q880.7 233.6 882.4 232.6Q884.2 231.7 886.0 229.4L886.0 229.4Q887.0 228.3 888.4 228.3L888.4 228.3Q889.7 228.3 890.5 229.0Q891.4 229.8 891.4 231.1L891.4 231.1Q891.4 231.9 890.9 232.9L890.9 232.9Q889.3 235.9 886.0 237.5Q882.7 239.2 878.3 239.2ZM870.5 220.0L870.5 220.0L885.0 220.0Q884.9 216.6 882.9 214.6Q881.0 212.5 877.9 212.5Q874.8 212.5 872.8 214.6Q870.7 216.7 870.5 220.0ZM903.1 238.1Q902.1 239.2 900.5 239.2Q898.8 239.2 897.8 238.1Q896.8 237.1 896.8 235.3L896.8 235.3L896.8 210.6Q896.8 208.9 897.8 207.9Q898.8 206.9 900.3 206.9L900.3 206.9Q901.9 206.9 902.8 207.9Q903.8 208.9 903.8 210.6L903.8 210.6L903.8 213.0L903.9 213.0Q904.6 210.3 906.4 208.6Q908.2 207.0 910.6 207.0L910.6 207.0Q912.3 207.0 913.2 207.8L913.2 207.8Q914.2 208.6 914.2 210.4L914.2 210.4Q914.2 212.1 913.1 213.0L913.1 213.0Q912.1 213.9 909.9 214.0L909.9 214.0Q904.1 214.0 904.1 220.4L904.1 220.4L904.1 235.3Q904.1 237.1 903.1 238.1ZM925.8 238.2Q924.8 239.2 923.2 239.2Q921.5 239.2 920.5 238.2Q919.5 237.2 919.5 235.4L919.5 235.4L919.5 213.1L917.6 213.1Q916.3 213.1 915.5 212.4Q914.7 211.7 914.7 210.4L914.7 210.4Q914.7 209.1 915.5 208.4Q916.3 207.6 917.6 207.6L917.6 207.6L919.5 207.6L919.5 204.9Q919.5 196.0 928.0 196.0L928.0 196.0Q930.9 196.0 932.3 196.8Q933.6 197.6 933.6 199.0L933.6 199.0Q933.6 200.7 932.0 201.1L932.0 201.1Q931.4 201.3 930.4 201.3L930.4 201.3Q928.4 201.4 927.5 202.3Q926.7 203.2 926.7 205.2L926.7 205.2L926.7 207.6L930.6 207.6Q931.8 207.6 932.6 208.4Q933.4 209.1 933.4 210.4L933.4 210.4Q933.4 211.7 932.6 212.4Q931.8 213.1 930.6 213.1L930.6 213.1L926.8 213.1L926.8 235.4Q926.8 237.2 925.8 238.2ZM962.4 234.9Q958.3 239.2 951.4 239.2Q944.5 239.2 940.5 234.9Q936.4 230.6 936.4 223.1L936.4 223.1Q936.4 215.6 940.5 211.2Q944.6 206.9 951.4 206.9L951.4 206.9Q958.3 206.9 962.4 211.2Q966.5 215.6 966.5 223.1L966.5 223.1Q966.5 230.6 962.4 234.9ZM945.9 230.7Q947.9 233.4 951.4 233.4Q954.9 233.4 957.0 230.7Q959.0 228.0 959.0 223.1L959.0 223.1Q959.0 218.2 957.0 215.4Q954.9 212.7 951.4 212.7L951.4 212.7Q947.9 212.7 945.9 215.4Q943.8 218.2 943.8 223.1L943.8 223.1Q943.8 228.0 945.9 230.7ZM977.4 238.1Q976.4 239.2 974.8 239.2Q973.1 239.2 972.1 238.1Q971.1 237.1 971.1 235.3L971.1 235.3L971.1 210.6Q971.1 208.9 972.1 207.9Q973.0 206.9 974.6 206.9L974.6 206.9Q976.2 206.9 977.1 207.9Q978.1 208.9 978.1 210.6L978.1 210.6L978.1 213.0L978.2 213.0Q978.9 210.3 980.7 208.6Q982.5 207.0 984.9 207.0L984.9 207.0Q986.6 207.0 987.5 207.8L987.5 207.8Q988.5 208.6 988.5 210.4L988.5 210.4Q988.5 212.1 987.4 213.0L987.4 213.0Q986.3 213.9 984.2 214.0L984.2 214.0Q978.4 214.0 978.4 220.4L978.4 220.4L978.4 235.3Q978.4 237.1 977.4 238.1ZM995.4 239.2L995.4 239.2Q993.7 239.2 992.7 238.2Q991.8 237.1 991.8 235.3L991.8 235.3L991.8 210.6Q991.8 208.9 992.7 207.9Q993.7 206.9 995.3 206.9Q996.8 206.9 997.8 207.9Q998.8 208.9 998.8 210.6L998.8 210.6L998.8 212.9L998.9 212.9Q999.9 210.2 1002.3 208.5Q1004.6 206.9 1007.8 206.9L1007.8 206.9Q1011.0 206.9 1013.3 208.6Q1015.6 210.2 1016.4 213.2L1016.4 213.2L1016.6 213.2Q1017.7 210.3 1020.3 208.6Q1022.9 206.9 1026.3 206.9L1026.3 206.9Q1030.9 206.9 1033.6 209.8Q1036.4 212.6 1036.4 217.3L1036.4 217.3L1036.4 235.3Q1036.4 237.1 1035.4 238.1Q1034.4 239.2 1032.8 239.2L1032.8 239.2Q1031.1 239.2 1030.1 238.1Q1029.1 237.1 1029.1 235.3L1029.1 235.3L1029.1 219.1Q1029.1 216.2 1027.7 214.6Q1026.2 213.1 1023.6 213.1L1023.6 213.1Q1020.9 213.1 1019.3 214.8Q1017.6 216.6 1017.6 219.4L1017.6 219.4L1017.6 235.3Q1017.6 237.1 1016.7 238.2Q1015.7 239.2 1014.1 239.2L1014.1 239.2Q1012.4 239.2 1011.5 238.2Q1010.5 237.1 1010.5 235.3L1010.5 235.3L1010.5 218.7Q1010.5 216.1 1009.1 214.6Q1007.6 213.1 1005.0 213.1L1005.0 213.1Q1002.4 213.1 1000.7 214.9Q999.1 216.8 999.1 219.6L999.1 219.6L999.1 235.3Q999.1 237.1 998.1 238.1Q997.0 239.2 995.4 239.2Z M62.3 321.8L62.3 321.8Q53.0 321.8 47.7 315.9Q42.3 310.0 42.3 299.8L42.3 299.8Q42.3 289.7 47.6 283.9Q53.0 278.1 62.1 278.1L62.1 278.1Q68.0 278.1 72.5 280.7Q77.0 283.3 78.8 287.4L78.8 287.4Q79.4 288.7 79.4 289.9L79.4 289.9Q79.4 291.4 78.5 292.3Q77.6 293.2 76.0 293.2L76.0 293.2Q73.7 293.2 72.3 290.8L72.3 290.8Q69.2 284.5 62.2 284.5L62.2 284.5Q56.5 284.5 53.2 288.5Q50.0 292.5 50.0 299.7L50.0 299.7Q50.0 307.0 53.3 311.2Q56.7 315.4 62.4 315.4L62.4 315.4Q67.2 315.4 70.2 312.6Q73.2 309.9 73.3 305.4L73.3 305.4L73.3 304.7L65.8 304.7Q64.4 304.7 63.6 303.9Q62.7 303.1 62.7 301.8Q62.7 300.5 63.5 299.7Q64.4 298.9 65.8 298.9L65.8 298.9L77.0 298.9Q78.7 298.9 79.7 300.0Q80.7 301.0 80.7 302.9L80.7 302.9L80.7 303.7Q80.7 312.1 75.8 316.9Q71.0 321.8 62.3 321.8ZM99.9 321.7L99.9 321.7Q92.8 321.7 88.8 317.5Q84.9 313.2 84.9 305.7L84.9 305.7Q84.9 298.2 88.8 293.8Q92.8 289.4 99.5 289.4L99.5 289.4Q105.9 289.4 109.9 293.4Q113.8 297.5 113.8 303.9L113.8 303.9Q113.8 305.5 112.9 306.4Q112.0 307.3 110.4 307.3L110.4 307.3L92.1 307.3L92.1 307.5Q92.1 311.4 94.2 313.8Q96.3 316.1 99.9 316.1L99.9 316.1Q102.3 316.1 104.1 315.1Q105.9 314.2 107.6 311.9L107.6 311.9Q108.7 310.8 110.1 310.8L110.1 310.8Q111.4 310.8 112.2 311.5Q113.0 312.3 113.0 313.6L113.0 313.6Q113.0 314.4 112.5 315.4L112.5 315.4Q111.0 318.4 107.7 320.0Q104.4 321.7 99.9 321.7ZM92.2 302.5L92.2 302.5L106.7 302.5Q106.6 299.1 104.6 297.1Q102.6 295.0 99.6 295.0Q96.5 295.0 94.4 297.1Q92.4 299.2 92.2 302.5ZM124.8 320.7Q123.8 321.7 122.1 321.7Q120.5 321.7 119.5 320.7Q118.5 319.6 118.5 317.8L118.5 317.8L118.5 293.1Q118.5 291.4 119.5 290.4Q120.4 289.4 122.0 289.4Q123.6 289.4 124.6 290.4Q125.6 291.4 125.6 293.1L125.6 293.1L125.6 295.3L125.8 295.3Q128.4 289.4 135.4 289.4L135.4 289.4Q140.5 289.4 143.3 292.5Q146.2 295.6 146.2 301.0L146.2 301.0L146.2 317.8Q146.2 319.6 145.2 320.7Q144.2 321.7 142.5 321.7Q140.9 321.7 139.9 320.7Q138.9 319.6 138.9 317.8L138.9 317.8L138.9 302.5Q138.9 299.1 137.3 297.4Q135.7 295.6 132.7 295.6L132.7 295.6Q129.5 295.6 127.7 297.7Q125.8 299.7 125.8 303.1L125.8 303.1L125.8 317.8Q125.8 319.6 124.8 320.7ZM165.8 321.7L165.8 321.7Q158.7 321.7 154.7 317.5Q150.7 313.2 150.7 305.7L150.7 305.7Q150.7 298.2 154.7 293.8Q158.7 289.4 165.4 289.4L165.4 289.4Q171.7 289.4 175.7 293.4Q179.7 297.5 179.7 303.9L179.7 303.9Q179.7 305.5 178.8 306.4Q177.9 307.3 176.3 307.3L176.3 307.3L158.0 307.3L158.0 307.5Q158.0 311.4 160.1 313.8Q162.2 316.1 165.7 316.1L165.7 316.1Q168.2 316.1 170.0 315.1Q171.7 314.2 173.5 311.9L173.5 311.9Q174.6 310.8 176.0 310.8L176.0 310.8Q177.2 310.8 178.1 311.5Q178.9 312.3 178.9 313.6L178.9 313.6Q178.9 314.4 178.4 315.4L178.4 315.4Q176.8 318.4 173.5 320.0Q170.2 321.7 165.8 321.7ZM158.0 302.5L158.0 302.5L172.5 302.5Q172.4 299.1 170.5 297.1Q168.5 295.0 165.4 295.0Q162.3 295.0 160.3 297.1Q158.2 299.2 158.0 302.5ZM186.4 313.4L186.4 313.4L186.4 295.6L184.4 295.6Q183.1 295.6 182.3 294.9Q181.5 294.1 181.5 292.8L181.5 292.8Q181.5 291.5 182.3 290.8Q183.1 290.0 184.4 290.0L184.4 290.0L186.4 290.0L186.4 285.9Q186.4 284.1 187.4 283.1Q188.4 282.1 190.1 282.1L190.1 282.1Q191.7 282.1 192.7 283.1Q193.7 284.1 193.7 285.9L193.7 285.9L193.7 290.0L197.1 290.0Q198.4 290.0 199.2 290.8Q200.0 291.5 200.0 292.8L200.0 292.8Q200.0 294.1 199.2 294.9Q198.4 295.6 197.1 295.6L197.1 295.6L193.7 295.6L193.7 311.8Q193.7 313.6 194.4 314.4Q195.0 315.2 196.6 315.4L196.6 315.4L197.1 315.4Q200.1 315.7 200.1 318.1L200.1 318.1Q200.1 319.7 198.7 320.6Q197.4 321.4 194.9 321.4L194.9 321.4L194.6 321.4Q186.4 321.4 186.4 313.4ZM211.2 284.5Q210.0 285.7 208.3 285.7Q206.6 285.7 205.4 284.5Q204.3 283.3 204.3 281.7L204.3 281.7Q204.3 280.0 205.4 278.9Q206.6 277.7 208.3 277.7L208.3 277.7Q210.0 277.7 211.2 278.9Q212.4 280.0 212.4 281.7L212.4 281.7Q212.4 283.3 211.2 284.5ZM211.0 320.6Q210.0 321.7 208.3 321.7Q206.6 321.7 205.7 320.6Q204.7 319.6 204.7 317.8L204.7 317.8L204.7 293.2Q204.7 291.5 205.7 290.4Q206.6 289.4 208.3 289.4Q210.0 289.4 211.0 290.4Q212.0 291.5 212.0 293.3L212.0 293.3L212.0 317.8Q212.0 319.6 211.0 320.6ZM231.7 321.7L231.7 321.7Q224.9 321.7 220.9 317.4Q216.8 313.0 216.8 305.6L216.8 305.6Q216.8 298.2 220.8 293.8Q224.9 289.4 231.7 289.4L231.7 289.4Q236.2 289.4 239.8 291.5Q243.3 293.6 244.5 296.9L244.5 296.9Q244.8 297.9 244.8 298.6L244.8 298.6Q244.8 300.0 244.0 300.8Q243.1 301.6 241.7 301.6L241.7 301.6Q240.6 301.6 239.9 301.1Q239.2 300.6 238.5 299.5L238.5 299.5Q236.2 295.3 231.9 295.3L231.9 295.3Q228.4 295.3 226.3 298.1Q224.2 300.8 224.2 305.6L224.2 305.6Q224.2 310.4 226.3 313.1Q228.3 315.8 231.9 315.8L231.9 315.8Q236.2 315.8 238.5 311.8L238.5 311.8Q239.2 310.6 240.0 310.1Q240.7 309.6 241.9 309.6L241.9 309.6Q243.2 309.6 244.1 310.4Q244.9 311.2 244.9 312.6L244.9 312.6Q244.9 313.4 244.5 314.4L244.5 314.4Q243.2 317.6 239.6 319.7Q236.1 321.7 231.7 321.7Z M269.1 320.6Q268.1 321.7 266.3 321.7Q264.6 321.7 263.6 320.6Q262.6 319.6 262.6 317.7L262.6 317.7L262.6 282.7Q262.6 280.9 263.6 279.8Q264.6 278.8 266.3 278.8L266.3 278.8L279.4 278.8Q286.2 278.8 290.1 282.3Q294.0 285.9 294.0 292.0L294.0 292.0Q294.0 296.1 291.9 299.3Q289.9 302.5 286.3 303.9L286.3 303.9L292.9 315.6Q293.8 317.0 293.8 318.2L293.8 318.2Q293.8 319.7 292.7 320.7Q291.6 321.7 290.0 321.7L290.0 321.7Q288.6 321.7 287.8 321.1Q287.0 320.5 286.1 318.9L286.1 318.9L278.6 305.2L270.1 305.2L270.1 317.7Q270.1 319.6 269.1 320.6ZM270.1 284.9L270.1 299.4L278.7 299.4Q282.3 299.4 284.2 297.5Q286.2 295.6 286.2 292.1L286.2 292.1Q286.2 288.8 284.2 286.9Q282.1 284.9 278.5 284.9L278.5 284.9L270.1 284.9ZM306.0 284.5Q304.8 285.7 303.1 285.7Q301.4 285.7 300.3 284.5Q299.1 283.3 299.1 281.7L299.1 281.7Q299.1 280.0 300.3 278.9Q301.4 277.7 303.1 277.7L303.1 277.7Q304.9 277.7 306.0 278.9Q307.2 280.0 307.2 281.7L307.2 281.7Q307.2 283.3 306.0 284.5ZM305.8 320.6Q304.8 321.7 303.1 321.7Q301.5 321.7 300.5 320.6Q299.5 319.6 299.5 317.8L299.5 317.8L299.5 293.2Q299.5 291.5 300.5 290.4Q301.5 289.4 303.1 289.4Q304.8 289.4 305.8 290.4Q306.8 291.5 306.8 293.3L306.8 293.3L306.8 317.8Q306.8 319.6 305.8 320.6ZM324.9 321.7L324.9 321.7Q320.1 321.7 316.7 320.0Q313.4 318.3 312.3 315.5L312.3 315.5Q312.0 314.7 312.0 314.0L312.0 314.0Q312.0 312.7 312.8 311.9Q313.7 311.1 315.0 311.1L315.0 311.1Q316.8 311.1 318.2 312.9L318.2 312.9Q319.4 314.8 321.0 315.6Q322.6 316.4 325.2 316.4L325.2 316.4Q327.8 316.4 329.3 315.4Q330.8 314.3 330.8 312.6L330.8 312.6Q330.8 311.2 329.8 310.3Q328.8 309.5 326.5 308.9L326.5 308.9L321.4 307.8Q312.4 305.8 312.4 298.9L312.4 298.9Q312.4 294.6 315.8 292.0Q319.3 289.4 325.0 289.4L325.0 289.4Q329.4 289.4 332.6 291.3Q335.9 293.1 336.6 295.9L336.6 295.9Q336.7 296.5 336.7 297.0L336.7 297.0Q336.7 298.1 336.0 298.9Q335.3 299.6 333.9 299.6L333.9 299.6Q332.1 299.6 331.2 298.2L331.2 298.2Q330.0 296.5 328.5 295.6Q327.1 294.7 324.9 294.7L324.9 294.7Q322.5 294.7 321.0 295.8Q319.5 296.8 319.5 298.5L319.5 298.5Q319.5 301.3 324.0 302.3L324.0 302.3L329.0 303.4Q333.9 304.5 336.0 306.4Q338.2 308.4 338.2 311.8L338.2 311.8Q338.2 316.3 334.5 319.0Q330.9 321.7 324.9 321.7ZM349.3 320.7Q348.3 321.7 346.6 321.7Q345.0 321.7 344.0 320.7Q343.0 319.6 343.0 317.8L343.0 317.8L343.0 282.1Q343.0 280.2 344.0 279.2Q345.0 278.2 346.6 278.2Q348.3 278.2 349.3 279.2Q350.3 280.2 350.3 282.1L350.3 282.1L350.3 302.9L350.3 302.9L362.5 290.8Q363.8 289.4 365.4 289.4L365.4 289.4Q366.7 289.4 367.6 290.3Q368.6 291.2 368.6 292.5L368.6 292.5Q368.6 294.0 367.2 295.2L367.2 295.2L358.4 303.6L368.1 315.8Q369.1 317.2 369.1 318.4L369.1 318.4Q369.1 319.8 368.2 320.8Q367.2 321.7 365.7 321.7L365.7 321.7Q364.6 321.7 363.8 321.2Q363.1 320.8 362.3 319.6L362.3 319.6L353.0 307.8L350.3 310.4L350.3 317.8Q350.3 319.6 349.3 320.7Z M388.5 321.6L388.5 321.6Q386.7 321.6 385.7 320.6Q384.6 319.7 384.6 318.1L384.6 318.1Q384.6 317.1 385.1 315.8L385.1 315.8L397.4 282.4Q398.2 280.3 399.5 279.3Q400.8 278.3 402.9 278.3L402.9 278.3Q405.0 278.3 406.3 279.3Q407.6 280.2 408.4 282.4L408.4 282.4L420.7 315.8Q421.2 317.2 421.2 318.1L421.2 318.1Q421.2 319.6 420.2 320.6Q419.1 321.6 417.5 321.6L417.5 321.6Q415.9 321.6 415 320.8Q414.1 320.1 413.6 318.4L413.6 318.4L410.8 310.3L395.0 310.3L392.2 318.3Q391.7 320.1 390.8 320.8Q389.9 321.6 388.5 321.6ZM402.8 286.3L396.8 304.3L409.0 304.3L403.0 286.3L402.8 286.3ZM438.0 321.7L438.0 321.7Q433.1 321.7 429.8 320.0Q426.5 318.3 425.3 315.5L425.3 315.5Q425.0 314.7 425.0 314.0L425.0 314.0Q425.0 312.7 425.9 311.9Q426.7 311.1 428.1 311.1L428.1 311.1Q429.9 311.1 431.2 312.9L431.2 312.9Q432.5 314.8 434.1 315.6Q435.7 316.4 438.2 316.4L438.2 316.4Q440.8 316.4 442.3 315.4Q443.9 314.3 443.9 312.6L443.9 312.6Q443.9 311.2 442.9 310.3Q441.9 309.5 439.5 308.9L439.5 308.9L434.5 307.8Q425.4 305.8 425.4 298.9L425.4 298.9Q425.4 294.6 428.9 292.0Q432.3 289.4 438.1 289.4L438.1 289.4Q442.5 289.4 445.7 291.3Q448.9 293.1 449.7 295.9L449.7 295.9Q449.8 296.5 449.8 297.0L449.8 297.0Q449.8 298.1 449.1 298.9Q448.3 299.6 447.0 299.6L447.0 299.6Q445.1 299.6 444.2 298.2L444.2 298.2Q443.1 296.5 441.6 295.6Q440.1 294.7 437.9 294.7L437.9 294.7Q435.5 294.7 434.0 295.8Q432.5 296.8 432.5 298.5L432.5 298.5Q432.5 301.3 437.1 302.3L437.1 302.3L442.0 303.4Q447.0 304.5 449.1 306.4Q451.2 308.4 451.2 311.8L451.2 311.8Q451.2 316.3 447.6 319.0Q443.9 321.7 438.0 321.7ZM467.8 321.7L467.8 321.7Q463.0 321.7 459.6 320.0Q456.3 318.3 455.1 315.5L455.1 315.5Q454.8 314.7 454.8 314.0L454.8 314.0Q454.8 312.7 455.7 311.9Q456.5 311.1 457.9 311.1L457.9 311.1Q459.7 311.1 461.1 312.9L461.1 312.9Q462.3 314.8 463.9 315.6Q465.5 316.4 468.1 316.4L468.1 316.4Q470.6 316.4 472.2 315.4Q473.7 314.3 473.7 312.6L473.7 312.6Q473.7 311.2 472.7 310.3Q471.7 309.5 469.3 308.9L469.3 308.9L464.3 307.8Q455.3 305.8 455.3 298.9L455.3 298.9Q455.3 294.6 458.7 292.0Q462.2 289.4 467.9 289.4L467.9 289.4Q472.3 289.4 475.5 291.3Q478.8 293.1 479.5 295.9L479.5 295.9Q479.6 296.5 479.6 297.0L479.6 297.0Q479.6 298.1 478.9 298.9Q478.2 299.6 476.8 299.6L476.8 299.6Q475.0 299.6 474.0 298.2L474.0 298.2Q472.9 296.5 471.4 295.6Q469.9 294.7 467.7 294.7L467.7 294.7Q465.3 294.7 463.8 295.8Q462.3 296.8 462.3 298.5L462.3 298.5Q462.3 301.3 466.9 302.3L466.9 302.3L471.9 303.4Q476.8 304.5 478.9 306.4Q481.0 308.4 481.0 311.8L481.0 311.8Q481.0 316.3 477.4 319.0Q473.7 321.7 467.8 321.7ZM499.4 321.7L499.4 321.7Q492.3 321.7 488.3 317.5Q484.3 313.2 484.3 305.7L484.3 305.7Q484.3 298.2 488.3 293.8Q492.3 289.4 499.0 289.4L499.0 289.4Q505.4 289.4 509.4 293.4Q513.3 297.5 513.3 303.9L513.3 303.9Q513.3 305.5 512.4 306.4Q511.5 307.3 509.9 307.3L509.9 307.3L491.6 307.3L491.6 307.5Q491.6 311.4 493.7 313.8Q495.8 316.1 499.4 316.1L499.4 316.1Q501.8 316.1 503.6 315.1Q505.4 314.2 507.1 311.9L507.1 311.9Q508.2 310.8 509.6 310.8L509.6 310.8Q510.9 310.8 511.7 311.5Q512.5 312.3 512.5 313.6L512.5 313.6Q512.5 314.4 512.0 315.4L512.0 315.4Q510.5 318.4 507.2 320.0Q503.9 321.7 499.4 321.7ZM491.7 302.5L491.7 302.5L506.2 302.5Q506.1 299.1 504.1 297.1Q502.1 295.0 499.1 295.0Q496.0 295.0 493.9 297.1Q491.9 299.2 491.7 302.5ZM530.0 321.7L530.0 321.7Q525.2 321.7 521.8 320.0Q518.5 318.3 517.3 315.5L517.3 315.5Q517.0 314.7 517.0 314.0L517.0 314.0Q517.0 312.7 517.9 311.9Q518.7 311.1 520.1 311.1L520.1 311.1Q521.9 311.1 523.3 312.9L523.3 312.9Q524.5 314.8 526.1 315.6Q527.7 316.4 530.3 316.4L530.3 316.4Q532.8 316.4 534.4 315.4Q535.9 314.3 535.9 312.6L535.9 312.6Q535.9 311.2 534.9 310.3Q533.9 309.5 531.5 308.9L531.5 308.9L526.5 307.8Q517.5 305.8 517.5 298.9L517.5 298.9Q517.5 294.6 520.9 292.0Q524.4 289.4 530.1 289.4L530.1 289.4Q534.5 289.4 537.7 291.3Q540.9 293.1 541.7 295.9L541.7 295.9Q541.8 296.5 541.8 297.0L541.8 297.0Q541.8 298.1 541.1 298.9Q540.4 299.6 539.0 299.6L539.0 299.6Q537.2 299.6 536.2 298.2L536.2 298.2Q535.1 296.5 533.6 295.6Q532.1 294.7 529.9 294.7L529.9 294.7Q527.5 294.7 526.0 295.8Q524.5 296.8 524.5 298.5L524.5 298.5Q524.5 301.3 529.1 302.3L529.1 302.3L534.1 303.4Q539.0 304.5 541.1 306.4Q543.2 308.4 543.2 311.8L543.2 311.8Q543.2 316.3 539.6 319.0Q535.9 321.7 530.0 321.7ZM559.8 321.7L559.8 321.7Q555.0 321.7 551.6 320.0Q548.3 318.3 547.2 315.5L547.2 315.5Q546.9 314.7 546.9 314.0L546.9 314.0Q546.9 312.7 547.7 311.9Q548.6 311.1 549.9 311.1L549.9 311.1Q551.7 311.1 553.1 312.9L553.1 312.9Q554.3 314.8 555.9 315.6Q557.5 316.4 560.1 316.4L560.1 316.4Q562.7 316.4 564.2 315.4Q565.7 314.3 565.7 312.6L565.7 312.6Q565.7 311.2 564.7 310.3Q563.7 309.5 561.4 308.9L561.4 308.9L556.3 307.8Q547.3 305.8 547.3 298.9L547.3 298.9Q547.3 294.6 550.7 292.0Q554.2 289.4 559.9 289.4L559.9 289.4Q564.3 289.4 567.5 291.3Q570.8 293.1 571.5 295.9L571.5 295.9Q571.7 296.5 571.7 297.0L571.7 297.0Q571.7 298.1 570.9 298.9Q570.2 299.6 568.8 299.6L568.8 299.6Q567.0 299.6 566.1 298.2L566.1 298.2Q564.9 296.5 563.4 295.6Q562.0 294.7 559.8 294.7L559.8 294.7Q557.4 294.7 555.9 295.8Q554.4 296.8 554.4 298.5L554.4 298.5Q554.4 301.3 558.9 302.3L558.9 302.3L563.9 303.4Q568.8 304.5 570.9 306.4Q573.1 308.4 573.1 311.8L573.1 311.8Q573.1 316.3 569.4 319.0Q565.8 321.7 559.8 321.7ZM581.3 321.7L581.3 321.7Q579.6 321.7 578.6 320.7Q577.7 319.6 577.7 317.8L577.7 317.8L577.7 293.1Q577.7 291.4 578.6 290.4Q579.6 289.4 581.1 289.4Q582.7 289.4 583.7 290.4Q584.7 291.4 584.7 293.1L584.7 293.1L584.7 295.4L584.8 295.4Q585.8 292.7 588.2 291.0Q590.5 289.4 593.7 289.4L593.7 289.4Q596.9 289.4 599.2 291.1Q601.5 292.7 602.3 295.7L602.3 295.7L602.5 295.7Q603.6 292.8 606.2 291.1Q608.8 289.4 612.2 289.4L612.2 289.4Q616.8 289.4 619.5 292.3Q622.3 295.1 622.3 299.8L622.3 299.8L622.3 317.8Q622.3 319.6 621.3 320.6Q620.3 321.7 618.7 321.7L618.7 321.7Q617.0 321.7 616.0 320.6Q615.0 319.6 615.0 317.8L615.0 317.8L615.0 301.6Q615.0 298.7 613.6 297.1Q612.1 295.6 609.4 295.6L609.4 295.6Q606.8 295.6 605.2 297.3Q603.5 299.1 603.5 301.9L603.5 301.9L603.5 317.8Q603.5 319.6 602.6 320.7Q601.6 321.7 600.0 321.7L600.0 321.7Q598.3 321.7 597.4 320.7Q596.4 319.6 596.4 317.8L596.4 317.8L596.4 301.2Q596.4 298.6 595.0 297.1Q593.5 295.6 590.9 295.6L590.9 295.6Q588.3 295.6 586.6 297.4Q585.0 299.3 585.0 302.1L585.0 302.1L585.0 317.8Q585.0 319.6 583.9 320.6Q582.9 321.7 581.3 321.7ZM641.9 321.7L641.9 321.7Q634.8 321.7 630.8 317.5Q626.8 313.2 626.8 305.7L626.8 305.7Q626.8 298.2 630.8 293.8Q634.8 289.4 641.5 289.4L641.5 289.4Q647.9 289.4 651.9 293.4Q655.8 297.5 655.8 303.9L655.8 303.9Q655.8 305.5 654.9 306.4Q654.0 307.3 652.4 307.3L652.4 307.3L634.1 307.3L634.1 307.5Q634.1 311.4 636.2 313.8Q638.3 316.1 641.9 316.1L641.9 316.1Q644.3 316.1 646.1 315.1Q647.9 314.2 649.6 311.9L649.6 311.9Q650.7 310.8 652.1 310.8L652.1 310.8Q653.4 310.8 654.2 311.5Q655.0 312.3 655.0 313.6L655.0 313.6Q655.0 314.4 654.5 315.4L654.5 315.4Q653.0 318.4 649.7 320.0Q646.4 321.7 641.9 321.7ZM634.2 302.5L634.2 302.5L648.7 302.5Q648.6 299.1 646.6 297.1Q644.6 295.0 641.6 295.0Q638.5 295.0 636.4 297.1Q634.4 299.2 634.2 302.5ZM666.8 320.7Q665.8 321.7 664.1 321.7Q662.5 321.7 661.5 320.7Q660.5 319.6 660.5 317.8L660.5 317.8L660.5 293.1Q660.5 291.4 661.4 290.4Q662.4 289.4 664.0 289.4Q665.6 289.4 666.6 290.4Q667.6 291.4 667.6 293.1L667.6 293.1L667.6 295.3L667.7 295.3Q670.4 289.4 677.4 289.4L677.4 289.4Q682.5 289.4 685.3 292.5Q688.2 295.6 688.2 301.0L688.2 301.0L688.2 317.8Q688.2 319.6 687.2 320.7Q686.2 321.7 684.5 321.7Q682.9 321.7 681.9 320.7Q680.9 319.6 680.9 317.8L680.9 317.8L680.9 302.5Q680.9 299.1 679.3 297.4Q677.7 295.6 674.7 295.6L674.7 295.6Q671.5 295.6 669.7 297.7Q667.8 299.7 667.8 303.1L667.8 303.1L667.8 317.8Q667.8 319.6 666.8 320.7ZM696.0 313.4L696.0 313.4L696.0 295.6L694.1 295.6Q692.7 295.6 691.9 294.9Q691.1 294.1 691.1 292.8L691.1 292.8Q691.1 291.5 691.9 290.8Q692.7 290.0 694.1 290.0L694.1 290.0L696.0 290.0L696.0 285.9Q696.0 284.1 697.0 283.1Q698.0 282.1 699.7 282.1L699.7 282.1Q701.3 282.1 702.3 283.1Q703.3 284.1 703.3 285.9L703.3 285.9L703.3 290.0L706.7 290.0Q708.1 290.0 708.8 290.8Q709.6 291.5 709.6 292.8L709.6 292.8Q709.6 294.1 708.8 294.9Q708.0 295.6 706.7 295.6L706.7 295.6L703.3 295.6L703.3 311.8Q703.3 313.6 704.0 314.4Q704.7 315.2 706.2 315.4L706.2 315.4L706.8 315.4Q709.7 315.7 709.7 318.1L709.7 318.1Q709.7 319.7 708.3 320.6Q707.0 321.4 704.5 321.4L704.5 321.4L704.2 321.4Q696.0 321.4 696.0 313.4Z M734.5 320.7Q733.5 321.7 731.8 321.7Q730.1 321.7 729.2 320.7Q728.2 319.7 728.2 317.9L728.2 317.9L728.2 295.6L726.2 295.6Q725.0 295.6 724.2 294.9Q723.4 294.2 723.4 292.9L723.4 292.9Q723.4 291.6 724.2 290.9Q725.0 290.1 726.2 290.1L726.2 290.1L728.2 290.1L728.2 287.4Q728.2 278.5 736.7 278.5L736.7 278.5Q739.5 278.5 740.9 279.3Q742.3 280.1 742.3 281.5L742.3 281.5Q742.3 283.2 740.7 283.6L740.7 283.6Q740.0 283.8 739.1 283.8L739.1 283.8Q737.1 283.9 736.2 284.8Q735.3 285.7 735.3 287.7L735.3 287.7L735.3 290.1L739.3 290.1Q740.5 290.1 741.3 290.9Q742.0 291.6 742.0 292.9L742.0 292.9Q742.0 294.2 741.3 294.9Q740.5 295.6 739.3 295.6L739.3 295.6L735.4 295.6L735.4 317.9Q735.4 319.7 734.5 320.7ZM771.0 317.4Q767.0 321.7 760.1 321.7Q753.2 321.7 749.1 317.4Q745.1 313.1 745.1 305.6L745.1 305.6Q745.1 298.1 749.2 293.7Q753.3 289.4 760.1 289.4L760.1 289.4Q766.9 289.4 771.0 293.7Q775.1 298.1 775.1 305.6L775.1 305.6Q775.1 313.1 771.0 317.4ZM754.5 313.2Q756.6 315.9 760.1 315.9Q763.6 315.9 765.7 313.2Q767.7 310.5 767.7 305.6L767.7 305.6Q767.7 300.7 765.7 297.9Q763.6 295.2 760.1 295.2L760.1 295.2Q756.6 295.2 754.5 297.9Q752.5 300.7 752.5 305.6L752.5 305.6Q752.5 310.5 754.5 313.2ZM786.1 320.6Q785.1 321.7 783.4 321.7Q781.8 321.7 780.8 320.6Q779.8 319.6 779.8 317.8L779.8 317.8L779.8 293.1Q779.8 291.4 780.8 290.4Q781.7 289.4 783.3 289.4L783.3 289.4Q784.8 289.4 785.8 290.4Q786.7 291.4 786.7 293.1L786.7 293.1L786.7 295.5L786.9 295.5Q787.5 292.8 789.4 291.1Q791.2 289.5 793.5 289.5L793.5 289.5Q795.2 289.5 796.1 290.3L796.1 290.3Q797.1 291.1 797.1 292.9L797.1 292.9Q797.1 294.6 796.1 295.5L796.1 295.5Q795.0 296.4 792.8 296.5L792.8 296.5Q787.1 296.5 787.1 302.9L787.1 302.9L787.1 317.8Q787.1 319.6 786.1 320.6Z M831.5 321.8L831.5 321.8Q822.3 321.8 817.0 315.9Q811.7 310.1 811.7 299.9L811.7 299.9Q811.7 289.8 817.0 284.0Q822.3 278.1 831.3 278.1L831.3 278.1Q837.2 278.1 841.6 280.7Q846.0 283.3 848.1 287.9L848.1 287.9Q848.8 289.4 848.8 290.8L848.8 290.8Q848.8 292.3 847.9 293.2Q847.0 294.1 845.5 294.1L845.5 294.1Q843.0 294.1 841.8 291.4L841.8 291.4Q840.3 288.1 837.6 286.3Q834.9 284.5 831.4 284.5L831.4 284.5Q825.9 284.5 822.7 288.7Q819.5 292.9 819.5 299.9L819.5 299.9Q819.5 307.0 822.7 311.2Q825.9 315.4 831.4 315.4L831.4 315.4Q839.1 315.4 841.9 308.8L841.9 308.8Q842.5 307.5 843.3 306.9Q844.1 306.4 845.3 306.4L845.3 306.4Q846.8 306.4 847.8 307.3Q848.8 308.2 848.8 309.7L848.8 309.7Q848.8 311.1 848.1 312.6L848.1 312.6Q846.0 316.9 841.7 319.3Q837.4 321.8 831.5 321.8ZM863.7 321.6L863.7 321.6Q859.2 321.6 856.3 319.0Q853.3 316.4 853.3 312.2L853.3 312.2Q853.3 308.1 856.4 305.7Q859.5 303.3 865.1 302.9L865.1 302.9L873.4 302.4L873.4 300.2Q873.4 297.8 871.8 296.4Q870.3 295.1 867.6 295.1L867.6 295.1Q865.4 295.1 863.9 295.9Q862.4 296.7 861.1 298.7L861.1 298.7Q860.0 300.2 858.1 300.2L858.1 300.2Q856.8 300.2 855.9 299.4Q855.0 298.6 855.0 297.3L855.0 297.3Q855.0 296.3 855.5 295.3L855.5 295.3Q856.7 292.6 860.1 291.0Q863.4 289.4 867.9 289.4L867.9 289.4Q873.6 289.4 877.1 292.2Q880.6 295.0 880.6 299.7L880.6 299.7L880.6 318.0Q880.6 319.7 879.6 320.7Q878.6 321.7 877.0 321.7L877.0 321.7Q875.5 321.7 874.6 320.8Q873.6 319.9 873.6 318.3L873.6 318.3L873.6 316.1L873.4 316.1Q872.1 318.6 869.4 320.1Q866.8 321.6 863.7 321.6ZM865.9 316.1L865.9 316.1Q869.0 316.1 871.2 314.2Q873.4 312.3 873.4 309.6L873.4 309.6L873.4 307.2L866.2 307.6Q863.5 307.8 862.1 308.9Q860.6 310.1 860.6 311.9L860.6 311.9Q860.6 313.8 862.1 314.9Q863.5 316.1 865.9 316.1ZM892.7 320.7Q891.7 321.7 890.1 321.7Q888.4 321.7 887.4 320.7Q886.4 319.6 886.4 317.8L886.4 317.8L886.4 293.1Q886.4 291.4 887.4 290.4Q888.3 289.4 889.9 289.4Q891.5 289.4 892.5 290.4Q893.5 291.4 893.5 293.1L893.5 293.1L893.5 295.3L893.7 295.3Q896.3 289.4 903.3 289.4L903.3 289.4Q908.4 289.4 911.3 292.5Q914.1 295.6 914.1 301.0L914.1 301.0L914.1 317.8Q914.1 319.6 913.1 320.7Q912.1 321.7 910.5 321.7Q908.8 321.7 907.8 320.7Q906.8 319.6 906.8 317.8L906.8 317.8L906.8 302.5Q906.8 299.1 905.2 297.4Q903.7 295.6 900.6 295.6L900.6 295.6Q897.5 295.6 895.6 297.7Q893.7 299.7 893.7 303.1L893.7 303.1L893.7 317.8Q893.7 319.6 892.7 320.7ZM933.6 321.7L933.6 321.7Q926.8 321.7 922.7 317.4Q918.6 313.0 918.6 305.6L918.6 305.6Q918.6 298.2 922.7 293.8Q926.7 289.4 933.5 289.4L933.5 289.4Q938.1 289.4 941.6 291.5Q945.2 293.6 946.3 296.9L946.3 296.9Q946.7 297.9 946.7 298.6L946.7 298.6Q946.7 300.0 945.8 300.8Q944.9 301.6 943.5 301.6L943.5 301.6Q942.5 301.6 941.7 301.1Q941.0 300.6 940.4 299.5L940.4 299.5Q938.1 295.3 933.7 295.3L933.7 295.3Q930.2 295.3 928.1 298.1Q926.1 300.8 926.1 305.6L926.1 305.6Q926.1 310.4 928.1 313.1Q930.2 315.8 933.7 315.8L933.7 315.8Q938.1 315.8 940.3 311.8L940.3 311.8Q941.1 310.6 941.8 310.1Q942.5 309.6 943.7 309.6L943.7 309.6Q945.0 309.6 945.9 310.4Q946.8 311.2 946.8 312.6L946.8 312.6Q946.8 313.4 946.3 314.4L946.3 314.4Q945.0 317.6 941.5 319.7Q937.9 321.7 933.6 321.7ZM965.5 321.7L965.5 321.7Q958.3 321.7 954.4 317.5Q950.4 313.2 950.4 305.7L950.4 305.7Q950.4 298.2 954.4 293.8Q958.3 289.4 965.0 289.4L965.0 289.4Q971.4 289.4 975.4 293.4Q979.3 297.5 979.3 303.9L979.3 303.9Q979.3 305.5 978.5 306.4Q977.6 307.3 975.9 307.3L975.9 307.3L957.6 307.3L957.6 307.5Q957.6 311.4 959.7 313.8Q961.9 316.1 965.4 316.1L965.4 316.1Q967.9 316.1 969.6 315.1Q971.4 314.2 973.2 311.9L973.2 311.9Q974.2 310.8 975.6 310.8L975.6 310.8Q976.9 310.8 977.7 311.5Q978.6 312.3 978.6 313.6L978.6 313.6Q978.6 314.4 978.1 315.4L978.1 315.4Q976.5 318.4 973.2 320.0Q969.9 321.7 965.5 321.7ZM957.7 302.5L957.7 302.5L972.2 302.5Q972.1 299.1 970.1 297.1Q968.2 295.0 965.1 295.0Q962.0 295.0 960.0 297.1Q957.9 299.2 957.7 302.5ZM990.3 320.6Q989.3 321.7 987.7 321.7Q986.0 321.7 985.0 320.6Q984.0 319.6 984.0 317.8L984.0 317.8L984.0 293.1Q984.0 291.4 985.0 290.4Q985.9 289.4 987.5 289.4L987.5 289.4Q989.0 289.4 990.0 290.4Q991.0 291.4 991.0 293.1L991.0 293.1L991.0 295.5L991.1 295.5Q991.8 292.8 993.6 291.1Q995.4 289.5 997.8 289.5L997.8 289.5Q999.5 289.5 1000.4 290.3L1000.4 290.3Q1001.4 291.1 1001.4 292.9L1001.4 292.9Q1001.4 294.6 1000.3 295.5L1000.3 295.5Q999.2 296.4 997.1 296.5L997.1 296.5Q991.3 296.5 991.3 302.9L991.3 302.9L991.3 317.8Q991.3 319.6 990.3 320.6Z "/><defs><clipPath id="satori_bc-id-0-1"><rect x="0" y="441" width="1200" height="189"/></clipPath></defs><mask id="satori_om-id-0-1"><rect x="0" y="442" width="1200" height="188" fill="#fff"/><path width="1200" height="189" fill="none" stroke="#000" stroke-width="2" d="M0,441 A0,0 0 0 1 0,441 h1200 A0,0 0 0 1 1200,441"/></mask><path width="1200" height="189" clip-path="url(#satori_bc-id-0-1)" fill="none" stroke="#dbdbdb" stroke-width="2" d="M0,441 A0,0 0 0 1 0,441 h1200 A0,0 0 0 1 1200,441"/><mask id="satori_om-id-0-1-0"><rect x="40" y="482" width="389" height="108" fill="#fff"/></mask><clipPath id="satori_cp-id-0-1-0-0"><rect x="40" y="504" width="64" height="64"/></clipPath><mask id="satori_om-id-0-1-0-0"><rect x="40" y="504" width="64" height="64" fill="#fff"/></mask><image x="40" y="504" width="64" height="64" href="data:image/svg+xml;utf8,%3Csvg  xmlns=%22http://www.w3.org/2000/svg%22 width=%2264%22 height=%2264%22 viewBox=%220 0 128 128%22%3E%3Cpath fill=%22%23224d67%22 d=%22M22.5 14.8c2.9 1.3 99 44 99 44c2.7 1.2 2.9 3.1 2 12.4c-1 10.5-1.9 37.8-40.2 42.9c-24.6 3.2-55.9-4.3-70.9-27.2C-6 58.8 11 23.4 14.8 17.7c2.4-3.5 4.8-4.2 7.7-2.9%22%3E%3C/path%3E%3Cpath fill=%22%23f0f4c3%22 d=%22M121.5 58.8c-.3-.2-92-40.8-98.9-43.9C9.6 31.5-3.8 76 27.9 96.2c33.6 21.5 78.7-10.2 93.6-37.4%22%3E%3C/path%3E%3Cpath fill=%22%23f0f4c3%22 d=%22M117.7 57c-.3-.2-86.7-38.4-93.2-41.3c-12.2 15.5-23.9 59.1 5.7 78c31.4 20.2 73.6-11.2 87.5-36.7%22%3E%3C/path%3E%3Cpath fill=%22%23cb2a42%22 d=%22M56.2 37.6L19.5 48.2c-2.5.8-4.4 2.8-5 5.3c-1.9 8.5.8 23.3 8.9 29.8c3.5 2.7 8.6 1.8 10.8-2.1L58.5 41c1.3-1.7.5-4.2-2.3-3.4m14.3 2.9s14.6 30.1 16 33s6.3 4.7 9.9 2.8c10.7-5.6 15.5-12.4 19.2-20.2c-8.9-3.9-42.4-18.8-42.4-18.8c-2.4-1.1-4 .6-2.7 3.2m-8.6 1.9C60.3 45.1 39.5 81 37.6 84.1c-1.9 3.2-.7 7.5 2.7 9.2c12.3 6.5 30.9.4 39.6-7c2.2-1.9 4.5-5.1 3.2-8.2S68.9 44.6 67.8 42.3c-1.2-2.7-4.1-2.8-5.9.1%22%3E%3C/path%3E%3Cpath fill=%22%23f0f4c3%22 d=%22M52.2 42.2c-1.4.4-10.1 3-11.1 3.4c-1.4.5-2.2 1.7-1.9 2.5c.3.9 1.7 1.1 3.1.6c.8-.3 7.1-3.9 9.5-5.2c-3.1 2.4-10.2 9.4-11.1 10.3c-1.4 1.5-1.7 3.4-.8 4.3c1 .9 2.9.5 4.3-1c1.2-1.3 8.5-12.8 9.1-13.9s.4-1.4-1.1-1m10.1 16.4c0-2.2 1.4-10.3 1.8-12.3c.4-1.6 1.5-1.8 1.8.5s1.7 9.7 1.7 11.8s-1.2 3.3-2.7 3.3c-1.4 0-2.6-1.1-2.6-3.3M79.9 49c-1.2-1.8-3.3-4.9-4.1-6.1c-.7-1.2.1-2.1 1.8-.9s4 2.9 5.4 4c1.6 1.3 1.9 3 .8 4s-2.7.8-3.9-1%22%3E%3C/path%3E%3Cellipse cx=%2287.3%22 cy=%22103.12%22 fill=%22%23cb2a42%22 rx=%223.4%22 ry=%222.3%22 transform=%22rotate(-27.098 87.298 103.126)%22%3E%3C/ellipse%3E%3Cellipse cx=%2298.89%22 cy=%22103.82%22 fill=%22%23cb2a42%22 rx=%223.4%22 ry=%222.3%22 transform=%22rotate(-30.642 98.887 103.818)%22%3E%3C/ellipse%3E%3Cellipse cx=%22102.02%22 cy=%2293.8%22 fill=%22%23cb2a42%22 rx=%223.4%22 ry=%222.3%22 transform=%22rotate(-37.16 102.017 93.797)%22%3E%3C/ellipse%3E%3Cpath fill=%22%23cb2a42%22 d=%22M57.6 30.3c-8.3-3.7-24.4-10.7-29.6-13c-3.6 2.2-9.7 11.4-11.2 21.2c-.6 3.6 1.7 5.9 5.3 4.9c0 0 33.7-9.3 35.3-9.7c1.6-.5 2-2.6.2-3.4%22%3E%3C/path%3E%3C/svg%3E" preserveAspectRatio="none" clip-path="url(#satori_cp-id-0-1-0-0)" mask="url(#satori_om-id-0-1-0-0)"/><mask id="satori_om-id-0-1-0-0-0"><rect x="40" y="504" width="0" height="64" fill="#fff"/></mask><mask id="satori_om-id-0-1-0-0-1"><rect x="40" y="504" width="0" height="64" fill="#fff"/></mask><mask id="satori_om-id-0-1-0-0-2"><rect x="40" y="504" width="0" height="64" fill="#fff"/></mask><mask id="satori_om-id-0-1-0-0-3"><rect x="40" y="504" width="0" height="64" fill="#fff"/></mask><mask id="satori_om-id-0-1-0-0-4"><rect x="40" y="504" width="0" height="64" fill="#fff"/></mask><mask id="satori_om-id-0-1-0-0-5"><rect x="40" y="504" width="0" height="64" fill="#fff"/></mask><mask id="satori_om-id-0-1-0-0-6"><rect x="40" y="504" width="0" height="64" fill="#fff"/></mask><mask id="satori_om-id-0-1-0-0-7"><rect x="40" y="504" width="0" height="64" fill="#fff"/></mask><mask id="satori_om-id-0-1-0-0-8"><rect x="40" y="504" width="0" height="64" fill="#fff"/></mask><mask id="satori_om-id-0-1-0-1"><rect x="116" y="512" width="313" height="48" fill="#fff"/></mask><path fill="#545454" d="M133.0 553.6L133.0 553.6Q126.5 553.6 122.7 550.2Q118.8 546.7 118.8 541.1L118.8 541.1L118.8 522.5Q118.8 520.7 119.8 519.7Q120.7 518.8 122.4 518.8Q124.0 518.8 125.0 519.7Q125.9 520.7 125.9 522.5L125.9 522.5L125.9 540.4Q125.9 543.7 127.8 545.6Q129.6 547.6 133.0 547.6L133.0 547.6Q136.3 547.6 138.2 545.6Q140.1 543.7 140.1 540.4L140.1 540.4L140.1 522.5Q140.1 520.7 141.0 519.7Q141.9 518.8 143.6 518.8Q145.3 518.8 146.2 519.7Q147.1 520.7 147.1 522.5L147.1 522.5L147.1 541.1Q147.1 546.7 143.3 550.2Q139.4 553.6 133.0 553.6ZM158.9 552.6Q158.0 553.6 156.3 553.6Q154.6 553.6 153.7 552.6Q152.8 551.6 152.8 549.9L152.8 549.9L152.8 522.9Q152.8 521.2 153.7 520.2Q154.6 519.2 156.3 519.2L156.3 519.2L166.6 519.2Q172.4 519.2 175.6 522.1Q178.9 525.0 178.9 530.0L178.9 530.0Q178.9 533.2 177.3 535.8Q175.8 538.3 173.0 539.4L173.0 539.4L177.9 547.9Q178.7 549.2 178.7 550.3L178.7 550.3Q178.7 551.7 177.7 552.6Q176.7 553.6 175.1 553.6L175.1 553.6Q173.8 553.6 173.1 553.0Q172.4 552.5 171.5 550.9L171.5 550.9L165.9 540.7L159.9 540.7L159.9 549.9Q159.9 551.6 158.9 552.6ZM159.9 524.8L159.9 535.6L165.9 535.6Q168.6 535.6 170.1 534.1Q171.6 532.7 171.6 530.2L171.6 530.2Q171.6 527.7 170.0 526.2Q168.5 524.8 165.9 524.8L165.9 524.8L159.9 524.8ZM196.2 542.3L186.4 542.3Q185.0 542.3 184.1 541.5Q183.2 540.7 183.2 539.3Q183.2 537.9 184.1 537.1Q185.0 536.3 186.4 536.3L186.4 536.3L196.2 536.3Q197.6 536.3 198.5 537.1Q199.4 537.9 199.4 539.3Q199.4 540.7 198.5 541.5Q197.6 542.3 196.2 542.3L196.2 542.3ZM210.9 552.6Q209.9 553.6 208.3 553.6Q206.6 553.6 205.6 552.6Q204.7 551.6 204.7 549.9L204.7 549.9L204.7 522.9Q204.7 521.2 205.6 520.2Q206.6 519.2 208.3 519.2L208.3 519.2L218.6 519.2Q224.4 519.2 227.6 522.1Q230.8 525.0 230.8 530.0L230.8 530.0Q230.8 533.2 229.3 535.8Q227.8 538.3 225.0 539.4L225.0 539.4L229.9 547.9Q230.6 549.2 230.6 550.3L230.6 550.3Q230.6 551.7 229.6 552.6Q228.6 553.6 227.0 553.6L227.0 553.6Q225.8 553.6 225.0 553.0Q224.3 552.5 223.4 550.9L223.4 550.9L217.8 540.7L211.8 540.7L211.8 549.9Q211.8 551.6 210.9 552.6ZM211.8 524.8L211.8 535.6L217.9 535.6Q220.6 535.6 222.0 534.1Q223.5 532.7 223.5 530.2L223.5 530.2Q223.5 527.7 222.0 526.2Q220.4 524.8 217.8 524.8L217.8 524.8L211.8 524.8ZM237.7 553.5L237.7 553.5Q236.0 553.5 235.1 552.6Q234.1 551.7 234.1 550.2L234.1 550.2Q234.1 549.3 234.6 547.9L234.6 547.9L243.8 522.8Q244.6 520.7 245.8 519.7Q247.1 518.8 249.1 518.8L249.1 518.8Q251.2 518.8 252.5 519.7Q253.8 520.7 254.5 522.8L254.5 522.8L263.8 547.9Q264.3 549.2 264.3 550.2L264.3 550.2Q264.3 551.6 263.3 552.6Q262.3 553.5 260.7 553.5L260.7 553.5Q259.2 553.5 258.4 552.8Q257.5 552.1 257.0 550.4L257.0 550.4L255.3 545.0L243.1 545.0L241.3 550.3Q240.8 552.0 239.9 552.8Q239.1 553.5 237.7 553.5ZM249.0 525.7L244.6 539.6L253.6 539.6L249.1 525.7L249.0 525.7ZM281.5 553.1L272.1 553.1Q270.4 553.1 269.5 552.1Q268.6 551.1 268.6 549.4L268.6 549.4L268.6 522.9Q268.6 521.2 269.5 520.2Q270.4 519.2 272.1 519.2L272.1 519.2L281.5 519.2Q289.1 519.2 293.4 523.6Q297.6 528.0 297.6 536.0L297.6 536.0Q297.6 544.1 293.3 548.6Q289.1 553.1 281.5 553.1L281.5 553.1ZM275.6 525.1L275.6 547.2L280.6 547.2Q285.4 547.2 287.9 544.4Q290.4 541.5 290.4 536.0L290.4 536.0Q290.4 530.8 287.8 527.9Q285.3 525.1 280.6 525.1L280.6 525.1L275.6 525.1Z M333.2 553.1L314.5 553.1Q312.9 553.1 312.0 552.2Q311.2 551.4 311.2 550.0L311.2 550.0Q311.2 549.1 311.6 548.3Q312.0 547.5 313.1 546.5L313.1 546.5L323.2 536.9Q326.3 533.8 327.4 532.2Q328.4 530.6 328.4 528.8L328.4 528.8Q328.4 526.7 327.0 525.3Q325.5 524 323.3 524L323.3 524Q319.3 524 317.4 528.1L317.4 528.1Q316.8 529.2 316.1 529.7Q315.4 530.1 314.3 530.1L314.3 530.1Q312.9 530.1 312.1 529.4Q311.3 528.6 311.3 527.3L311.3 527.3Q311.3 526.5 311.5 525.7L311.5 525.7Q312.5 522.7 315.6 520.6Q318.8 518.5 323.3 518.5L323.3 518.5Q328.7 518.5 332.0 521.2Q335.3 524.0 335.3 528.3L335.3 528.3Q335.3 529.9 335.0 531.2Q334.6 532.5 333.6 533.9Q332.6 535.3 331.3 536.8Q330.0 538.2 327.8 540.3L327.8 540.3L320.5 547.3L320.5 547.4L333.2 547.4Q334.6 547.4 335.4 548.2Q336.1 549.0 336.1 550.3L336.1 550.3Q336.1 551.5 335.4 552.3Q334.6 553.1 333.2 553.1L333.2 553.1ZM363.6 549.0Q359.9 553.8 353.5 553.8Q347.1 553.8 343.4 549.1Q339.7 544.3 339.7 536.1L339.7 536.1Q339.7 527.9 343.4 523.2Q347.1 518.5 353.5 518.5Q359.9 518.5 363.6 523.2Q367.3 527.9 367.3 536.1L367.3 536.1Q367.3 544.3 363.6 549.0ZM348.6 545.0Q350.4 548.1 353.5 548.1Q356.7 548.1 358.4 545.0Q360.1 541.9 360.1 536.1L360.1 536.1Q360.1 530.4 358.4 527.2Q356.7 524.1 353.5 524.1L353.5 524.1Q350.4 524.1 348.7 527.3Q346.9 530.4 346.9 536.1L346.9 536.1Q346.9 541.9 348.6 545.0ZM393.6 553.1L374.9 553.1Q373.3 553.1 372.4 552.2Q371.6 551.4 371.6 550.0L371.6 550.0Q371.6 549.1 372.0 548.3Q372.5 547.5 373.5 546.5L373.5 546.5L383.6 536.9Q386.8 533.8 387.8 532.2Q388.9 530.6 388.9 528.8L388.9 528.8Q388.9 526.7 387.4 525.3Q386.0 524 383.7 524L383.7 524Q379.7 524 377.9 528.1L377.9 528.1Q377.3 529.2 376.5 529.7Q375.8 530.1 374.7 530.1L374.7 530.1Q373.3 530.1 372.5 529.4Q371.7 528.6 371.7 527.3L371.7 527.3Q371.7 526.5 372.0 525.7L372.0 525.7Q372.9 522.7 376.0 520.6Q379.2 518.5 383.8 518.5L383.8 518.5Q389.1 518.5 392.4 521.2Q395.8 524.0 395.8 528.3L395.8 528.3Q395.8 529.9 395.4 531.2Q395 532.5 394.0 533.9Q393.1 535.3 391.7 536.8Q390.4 538.2 388.2 540.3L388.2 540.3L380.9 547.3L380.9 547.4L393.6 547.4Q395 547.4 395.8 548.2Q396.6 549.0 396.6 550.3L396.6 550.3Q396.6 551.5 395.8 552.3Q395 553.1 393.6 553.1L393.6 553.1ZM413.6 553.8L413.6 553.8Q409.6 553.8 406.3 552.1Q403.1 550.4 401.8 547.7L401.8 547.7Q401.3 546.5 401.3 545.4L401.3 545.4Q401.3 544.0 402.0 543.3Q402.8 542.5 404.2 542.5L404.2 542.5Q405.3 542.5 406.0 542.9Q406.7 543.3 407.3 544.3L407.3 544.3Q409.3 548.2 413.6 548.2L413.6 548.2Q416.3 548.2 418.1 546.4Q419.9 544.6 419.9 541.9L419.9 541.9Q419.9 539.2 418.1 537.5Q416.4 535.8 413.6 535.8L413.6 535.8Q410.8 535.8 408.7 537.8L408.7 537.8Q407.6 538.8 406.9 539.1Q406.2 539.4 405.0 539.4L405.0 539.4Q403.4 539.4 402.5 538.4Q401.6 537.4 401.7 535.9L401.7 535.9Q401.7 535.8 401.7 535.6L401.7 535.6L402.7 523.3Q402.9 521.1 404.0 520.2Q405.1 519.2 407.2 519.2L407.2 519.2L422 519.2Q423.3 519.2 424.1 520.0Q424.9 520.8 424.9 522.1Q424.9 523.3 424.1 524.1Q423.3 524.9 422 524.9L422 524.9L408.6 524.9L407.8 534.3L408.0 534.3Q409.0 532.6 411.0 531.7Q413.0 530.7 415.6 530.7L415.6 530.7Q420.4 530.7 423.5 533.8Q426.6 536.9 426.6 541.7L426.6 541.7Q426.6 547.1 423.0 550.5Q419.4 553.8 413.6 553.8Z "/><mask id="satori_om-id-0-1-1"><rect x="1013" y="524" width="147" height="36" fill="#fff"/></mask><path fill="#8e8e8e" d="M1016.9 552.6Q1016.5 552.9 1016.0 552.9Q1015.4 552.9 1015.1 552.6Q1014.8 552.2 1014.8 551.7L1014.8 551.7L1014.8 532.6Q1014.8 532.0 1015.1 531.6Q1015.5 531.3 1016.1 531.3Q1016.6 531.3 1017.0 531.6Q1017.3 532.0 1017.3 532.6L1017.3 532.6L1017.3 540.0L1017.4 540.0Q1018.1 538.7 1019.4 537.9Q1020.7 537.2 1022.3 537.2L1022.3 537.2Q1025.2 537.2 1026.9 539.3Q1028.7 541.5 1028.7 545.0L1028.7 545.0Q1028.7 548.6 1026.9 550.8Q1025.2 552.9 1022.2 552.9L1022.2 552.9Q1020.6 552.9 1019.3 552.2Q1018.0 551.4 1017.3 550.1L1017.3 550.1L1017.2 550.1L1017.2 551.7Q1017.2 552.2 1016.9 552.6ZM1021.7 550.7L1021.7 550.7Q1023.8 550.7 1024.9 549.2Q1026.1 547.7 1026.1 545.0L1026.1 545.0Q1026.1 542.5 1024.9 540.9Q1023.8 539.4 1021.7 539.4L1021.7 539.4Q1019.8 539.4 1018.6 541.0Q1017.3 542.5 1017.3 545.0L1017.3 545.0Q1017.3 547.6 1018.6 549.1Q1019.8 550.7 1021.7 550.7ZM1032.8 558.4L1032.8 558.4Q1031.9 558.4 1031.4 558.0Q1030.9 557.7 1030.9 557.1L1030.9 557.1Q1030.9 556.7 1031.1 556.4Q1031.4 556.2 1031.9 556.2L1031.9 556.2Q1032.1 556.2 1032.3 556.2Q1032.5 556.2 1032.7 556.2L1032.7 556.2Q1034.4 556.2 1035.2 553.7L1035.2 553.7L1035.6 552.7L1030.3 539.0Q1030.2 538.6 1030.2 538.3L1030.2 538.3Q1030.2 537.8 1030.6 537.5Q1030.9 537.2 1031.5 537.2L1031.5 537.2Q1032.4 537.2 1032.7 538.1L1032.7 538.1L1036.9 550.1L1037.0 550.1L1041.2 538.1Q1041.3 537.6 1041.6 537.4Q1041.9 537.2 1042.4 537.2L1042.4 537.2Q1042.9 537.2 1043.3 537.5Q1043.6 537.8 1043.6 538.3L1043.6 538.3Q1043.6 538.6 1043.5 539.0L1043.5 539.0L1037.9 553.7Q1036.9 556.4 1035.8 557.4Q1034.7 558.4 1032.8 558.4Z M1066.9 550.9Q1064.7 553.0 1060.8 553.0Q1056.9 553.0 1054.7 550.9Q1052.4 548.7 1052.4 545.3L1052.4 545.3L1052.4 532.7Q1052.4 532.1 1052.8 531.7Q1053.1 531.3 1053.7 531.3Q1054.3 531.3 1054.7 531.7Q1055.0 532.1 1055.0 532.7L1055.0 532.7L1055.0 545.1Q1055.0 547.5 1056.6 549.1Q1058.1 550.6 1060.8 550.6Q1063.5 550.6 1065.0 549.1Q1066.6 547.5 1066.6 545.1L1066.6 545.1L1066.6 532.7Q1066.6 532.1 1066.9 531.7Q1067.3 531.3 1067.9 531.3Q1068.5 531.3 1068.8 531.7Q1069.2 532.1 1069.2 532.7L1069.2 532.7L1069.2 545.3Q1069.2 548.7 1066.9 550.9ZM1075.6 552.6Q1075.2 552.9 1074.6 552.9Q1074.0 552.9 1073.7 552.6Q1073.3 552.2 1073.3 551.6L1073.3 551.6L1073.3 532.9Q1073.3 532.3 1073.7 531.9Q1074.0 531.5 1074.6 531.5L1074.6 531.5L1081.2 531.5Q1084.3 531.5 1086.1 533.2Q1088.0 535.0 1088.0 537.8L1088.0 537.8Q1088.0 540.0 1086.8 541.6Q1085.7 543.3 1083.7 543.9L1083.7 543.9L1087.6 550.8Q1087.9 551.3 1087.9 551.7L1087.9 551.7Q1087.9 552.2 1087.5 552.6Q1087.1 552.9 1086.5 552.9L1086.5 552.9Q1086.1 552.9 1085.8 552.7Q1085.5 552.5 1085.2 552.1L1085.2 552.1L1081.0 544.3L1075.9 544.3L1075.9 551.6Q1075.9 552.2 1075.6 552.6ZM1075.9 533.9L1075.9 542.0L1081.0 542.0Q1083.0 542.0 1084.1 540.9Q1085.2 539.9 1085.2 537.9L1085.2 537.9Q1085.2 536.0 1084.1 534.9Q1082.9 533.9 1080.9 533.9L1080.9 533.9L1075.9 533.9ZM1099.4 545.3L1091.9 545.3Q1091.3 545.3 1091.0 545.0Q1090.6 544.6 1090.6 544.1Q1090.6 543.6 1091.0 543.2Q1091.3 542.9 1091.9 542.9L1091.9 542.9L1099.4 542.9Q1100.0 542.9 1100.3 543.2Q1100.7 543.6 1100.7 544.1Q1100.7 544.6 1100.3 545.0Q1100.0 545.3 1099.4 545.3L1099.4 545.3ZM1106.4 552.6Q1106.0 552.9 1105.4 552.9Q1104.8 552.9 1104.5 552.6Q1104.1 552.2 1104.1 551.6L1104.1 551.6L1104.1 532.9Q1104.1 532.3 1104.5 531.9Q1104.8 531.5 1105.4 531.5L1105.4 531.5L1112.1 531.5Q1115.1 531.5 1117.0 533.2Q1118.8 535.0 1118.8 537.8L1118.8 537.8Q1118.8 540.0 1117.7 541.6Q1116.5 543.3 1114.5 543.9L1114.5 543.9L1118.4 550.8Q1118.7 551.3 1118.7 551.7L1118.7 551.7Q1118.7 552.2 1118.3 552.6Q1117.9 552.9 1117.3 552.9L1117.3 552.9Q1116.9 552.9 1116.6 552.7Q1116.3 552.5 1116.1 552.1L1116.1 552.1L1111.8 544.3L1106.8 544.3L1106.8 551.6Q1106.8 552.2 1106.4 552.6ZM1106.8 533.9L1106.8 542.0L1111.8 542.0Q1113.9 542.0 1115.0 540.9Q1116.1 539.9 1116.1 537.9L1116.1 537.9Q1116.1 536.0 1114.9 534.9Q1113.8 533.9 1111.7 533.9L1111.7 533.9L1106.8 533.9ZM1122.2 552.9L1122.2 552.9Q1121.6 552.9 1121.2 552.5Q1120.9 552.2 1120.9 551.7L1120.9 551.7Q1120.9 551.4 1121.0 551.0L1121.0 551.0L1127.8 532.6Q1128.3 531.3 1129.5 531.3L1129.5 531.3Q1130.7 531.3 1131.2 532.6L1131.2 532.6L1138.0 551.0Q1138.2 551.4 1138.2 551.7L1138.2 551.7Q1138.2 552.2 1137.8 552.5Q1137.4 552.9 1136.9 552.9L1136.9 552.9Q1135.9 552.9 1135.6 551.9L1135.6 551.9L1133.7 546.6L1125.3 546.6L1123.5 551.9Q1123.1 552.9 1122.2 552.9ZM1129.5 534.7L1126.1 544.4L1132.9 544.4L1129.6 534.7L1129.5 534.7ZM1148.1 552.7L1142.3 552.7Q1141.7 552.7 1141.4 552.3Q1141.0 551.9 1141.0 551.3L1141.0 551.3L1141.0 532.9Q1141.0 532.3 1141.4 531.9Q1141.7 531.5 1142.3 531.5L1142.3 531.5L1148.1 531.5Q1152.8 531.5 1155.5 534.3Q1158.1 537.1 1158.1 542.1L1158.1 542.1Q1158.1 547.1 1155.5 549.9Q1152.8 552.7 1148.1 552.7L1148.1 552.7ZM1143.7 533.9L1143.7 550.3L1148.0 550.3Q1151.5 550.3 1153.5 548.2Q1155.4 546.1 1155.4 542.1L1155.4 542.1Q1155.4 538.1 1153.5 536.0Q1151.6 533.9 1148.0 533.9L1148.0 533.9L1143.7 533.9Z "/></svg>