<svg width="1200" height="630" viewBox="0 0 1200 630" xmlns="http://www.w3.org/2000/svg"><mask id="satori_om-id"><rect x="0" y="0" width="1200" height="630" fill="#fff"/></mask><mask id="satori_om-id-0"><rect x="0" y="0" width="1200" height="630" fill="#fff"/></mask><rect x="0" y="0" width="1200" height="630" fill="#f2f2f2"/><mask id="satori_om-id-0-0"><rect x="0" y="0" width="1200" height="441" fill="#fff"/></mask><mask id="satori_om-id-0-0-0"><rect x="40" y="56" width="1120" height="35" fill="#fff"/></mask><path fill="#8e8e8e" d="M50.0 84.4Q49.6 84.9 48.8 84.9Q48.1 84.9 47.6 84.4Q47.2 84.0 47.2 83.2L47.2 83.2L47.2 66.4L42.0 66.4Q41.3 66.4 40.9 66.0Q40.5 65.6 40.5 64.9Q40.5 64.3 40.9 63.9Q41.3 63.5 42.0 63.5L42.0 63.5L55.6 63.5Q56.3 63.5 56.8 63.9Q57.2 64.3 57.2 64.9Q57.2 65.6 56.8 66.0Q56.3 66.4 55.6 66.4L55.6 66.4L50.5 66.4L50.5 83.2Q50.5 84.0 50.0 84.4ZM62.1 84.5Q61.6 84.9 60.9 84.9Q60.2 84.9 59.8 84.5Q59.3 84.0 59.3 83.3L59.3 83.3L59.3 64.9Q59.3 64.1 59.8 63.7Q60.2 63.2 60.9 63.2L60.9 63.2Q61.6 63.2 62.1 63.7Q62.5 64.1 62.5 64.9L62.5 64.9L62.5 71.8L62.5 71.8Q63.2 70.5 64.4 69.7Q65.7 69.0 67.4 69.0L67.4 69.0Q69.9 69.0 71.4 70.5Q72.8 72.1 72.8 74.7L72.8 74.7L72.8 83.3Q72.8 84.0 72.4 84.5Q71.9 84.9 71.2 84.9L71.2 84.9Q70.5 84.9 70.1 84.5Q69.6 84.0 69.6 83.3L69.6 83.3L69.6 75.3Q69.6 73.6 68.8 72.7Q67.9 71.7 66.3 71.7L66.3 71.7Q64.5 71.7 63.5 72.8Q62.5 73.9 62.5 75.8L62.5 75.8L62.5 83.3Q62.5 84.0 62.1 84.5ZM81.2 84.9L81.2 84.9Q78.7 84.9 77.2 83.4Q75.8 81.9 75.8 79.2L75.8 79.2L75.8 70.7Q75.8 69.9 76.2 69.4Q76.7 69.0 77.4 69.0L77.4 69.0Q78.1 69.0 78.5 69.4Q79.0 69.9 79.0 70.7L79.0 70.7L79.0 78.6Q79.0 80.4 79.8 81.3Q80.6 82.2 82.3 82.2L82.3 82.2Q84.0 82.2 84.9 81.1Q85.9 80.0 85.9 78.2L85.9 78.2L85.9 70.7Q85.9 69.9 86.4 69.4Q86.8 69.0 87.5 69.0L87.5 69.0Q88.2 69.0 88.7 69.4Q89.1 69.9 89.1 70.7L89.1 70.7L89.1 83.3Q89.1 84.1 88.7 84.5Q88.3 84.9 87.6 84.9Q86.9 84.9 86.5 84.5Q86.1 84.1 86.1 83.3L86.1 83.3L86.1 82.1L86.0 82.1Q84.6 84.9 81.2 84.9ZM93.8 84.9L93.8 84.9Q93.1 84.9 92.6 84.5Q92.2 84.0 92.2 83.3L92.2 83.3L92.2 70.6Q92.2 69.9 92.6 69.4Q93.0 69.0 93.7 69.0L93.7 69.0Q94.4 69.0 94.8 69.4Q95.2 69.9 95.2 70.6L95.2 70.6L95.2 71.9L95.3 71.9Q95.6 70.6 96.6 69.8Q97.5 69.0 98.7 69.0L98.7 69.0Q99.5 69.0 99.9 69.4L99.9 69.4Q100.3 69.7 100.3 70.5L100.3 70.5Q100.3 71.2 99.9 71.6L99.9 71.6Q99.4 72.0 98.4 72.0L98.4 72.0Q96.9 72.0 96.1 73.0Q95.4 73.9 95.4 75.4L95.4 75.4L95.4 83.3Q95.4 84.0 94.9 84.5Q94.5 84.9 93.8 84.9ZM107.7 85.0L107.7 85.0Q105.5 85.0 103.9 84.1Q102.3 83.3 101.7 81.8L101.7 81.8Q101.6 81.5 101.6 81.2L101.6 81.2Q101.6 80.6 102.0 80.2Q102.4 79.9 103.0 79.9L103.0 79.9Q103.8 79.9 104.4 80.7L104.4 80.7Q105.0 81.7 105.8 82.1Q106.5 82.5 107.9 82.5L107.9 82.5Q109.3 82.5 110.1 82.0Q110.9 81.4 110.9 80.5L110.9 80.5Q110.9 79.7 110.4 79.3Q109.9 78.8 108.7 78.5L108.7 78.5L106.2 78.0Q101.8 76.9 101.8 73.6L101.8 73.6Q101.8 71.5 103.4 70.2Q105.1 69.0 107.9 69.0L107.9 69.0Q109.9 69.0 111.5 69.9Q113.0 70.8 113.4 72.2L113.4 72.2Q113.4 72.6 113.4 72.7L113.4 72.7Q113.4 73.2 113.1 73.5Q112.8 73.9 112.2 73.9L112.2 73.9Q111.3 73.9 110.9 73.2L110.9 73.2Q110.4 72.3 109.6 71.8Q108.9 71.4 107.7 71.4L107.7 71.4Q106.5 71.4 105.7 72.0Q104.9 72.5 104.9 73.4L104.9 73.4Q104.9 74.9 107.2 75.5L107.2 75.5L109.6 76.0Q112.1 76.6 113.1 77.5Q114.1 78.5 114.1 80.2L114.1 80.2Q114.1 82.3 112.3 83.6Q110.6 85.0 107.7 85.0ZM122.3 84.9L122.3 84.9Q119.4 84.9 117.6 82.8Q115.9 80.6 115.9 77.0Q115.9 73.3 117.6 71.2Q119.4 69.0 122.3 69.0L122.3 69.0Q123.9 69.0 125.2 69.8Q126.5 70.5 127.1 71.8L127.1 71.8L127.2 71.8L127.2 64.9Q127.2 64.1 127.6 63.7Q128.1 63.2 128.8 63.2L128.8 63.2Q129.5 63.2 129.9 63.7Q130.4 64.2 130.4 64.9L130.4 64.9L130.4 83.4Q130.4 84.1 129.9 84.5Q129.5 84.9 128.8 84.9L128.8 84.9Q128.1 84.9 127.7 84.5Q127.2 84.1 127.2 83.4L127.2 83.4L127.2 81.9L127.2 81.9Q126.5 83.3 125.3 84.1Q124.1 84.9 122.3 84.9ZM123.2 82.2L123.2 82.2Q125.0 82.2 126.1 80.8Q127.2 79.4 127.2 77.0L127.2 77.0Q127.2 74.6 126.1 73.1Q125.0 71.7 123.2 71.7L123.2 71.7Q121.3 71.7 120.2 73.1Q119.1 74.5 119.1 77.0L119.1 77.0Q119.1 79.4 120.2 80.8Q121.3 82.2 123.2 82.2ZM138.1 84.9L138.1 84.9Q135.9 84.9 134.4 83.6Q133.0 82.3 133.0 80.3L133.0 80.3Q133.0 78.3 134.5 77.1Q136.0 75.9 138.7 75.7L138.7 75.7L142.9 75.5L142.9 74.3Q142.9 73.0 142.1 72.3Q141.3 71.6 139.9 71.6L139.9 71.6Q138.7 71.6 137.9 72.0Q137.1 72.5 136.4 73.5L136.4 73.5Q136.0 74.2 135.2 74.2L135.2 74.2Q134.6 74.2 134.2 73.8Q133.8 73.4 133.8 72.9L133.8 72.9Q133.8 72.3 134.1 71.8L134.1 71.8Q134.7 70.5 136.3 69.8Q137.9 69.0 140.0 69.0L140.0 69.0Q142.8 69.0 144.4 70.4Q146.1 71.7 146.1 74.0L146.1 74.0L146.1 83.3Q146.1 84.1 145.7 84.5Q145.2 84.9 144.6 84.9L144.6 84.9Q143.9 84.9 143.5 84.5Q143.1 84.1 143.1 83.4L143.1 83.4L143.1 82.1L143.0 82.1Q142.3 83.4 141.0 84.2Q139.7 84.9 138.1 84.9ZM139.0 82.4L139.0 82.4Q140.7 82.4 141.8 81.4Q142.9 80.4 142.9 78.9L142.9 78.9L142.9 77.7L139.1 77.9Q137.7 78.0 137.0 78.6Q136.2 79.2 136.2 80.2L136.2 80.2Q136.2 81.2 137.0 81.8Q137.7 82.4 139.0 82.4ZM151.1 90.4L151.1 90.4Q150.0 90.4 149.4 90.0Q148.8 89.6 148.8 88.9L148.8 88.9Q148.8 88.4 149.1 88.1Q149.5 87.8 150.0 87.8L150.0 87.8Q150.2 87.8 150.4 87.8Q150.7 87.8 150.8 87.8L150.8 87.8Q152.4 87.8 153.2 85.7L153.2 85.7L153.5 84.8L148.3 71.3Q148.1 70.9 148.1 70.4L148.1 70.4Q148.1 69.8 148.6 69.4Q149.1 69.0 149.8 69.0L149.8 69.0Q150.4 69.0 150.7 69.3Q151.1 69.5 151.3 70.2L151.3 70.2L155.2 81.8L155.3 81.8L159.2 70.2Q159.4 69.5 159.7 69.3Q160.1 69.0 160.7 69.0L160.7 69.0Q161.4 69.0 161.8 69.4Q162.2 69.8 162.2 70.4L162.2 70.4Q162.2 70.8 162.1 71.3L162.1 71.3L156.7 85.4Q155.7 88.2 154.5 89.3Q153.2 90.4 151.1 90.4ZM166.7 81.1L166.7 81.1Q167.4 81.1 167.8 81.5Q168.2 81.8 168.2 82.4L168.2 82.4Q168.2 82.8 168.1 83.3L168.1 83.3L166.8 88.3Q166.5 89.4 165.4 89.4L165.4 89.4Q164.9 89.4 164.5 89.1Q164.2 88.7 164.2 88.2L164.2 88.2Q164.2 88.1 164.3 87.8L164.3 87.8L165.2 82.4Q165.4 81.1 166.7 81.1Z M181.7 84.9L181.7 84.9Q181.0 84.9 180.6 84.6Q180.2 84.2 180.2 83.6L180.2 83.6Q180.2 83.1 180.5 82.6L180.5 82.6L189.0 66.4L189.0 66.3L179.1 66.3Q178.5 66.3 178.1 65.9Q177.7 65.5 177.7 64.9L177.7 64.9Q177.7 64.3 178.1 63.9Q178.5 63.5 179.1 63.5L179.1 63.5L190.3 63.5Q191.2 63.5 191.8 64.0Q192.3 64.5 192.3 65.4L192.3 65.4Q192.3 66.1 191.7 67.4L191.7 67.4L183.2 84.0Q182.9 84.5 182.6 84.7Q182.2 84.9 181.7 84.9Z M204.2 84.5Q203.8 84.9 203.1 84.9Q202.3 84.9 201.9 84.5Q201.5 84.0 201.5 83.2L201.5 83.2L201.5 65.1Q201.5 64.2 201.9 63.8Q202.4 63.3 203.2 63.3L203.2 63.3Q203.8 63.3 204.2 63.5Q204.6 63.7 205.0 64.3L205.0 64.3L215.4 79.1L215.5 79.1L215.5 65.0Q215.5 64.2 215.9 63.7Q216.4 63.3 217.1 63.3L217.1 63.3Q217.8 63.3 218.3 63.7Q218.7 64.2 218.7 65.0L218.7 65.0L218.7 83.2Q218.7 84.0 218.2 84.5Q217.8 84.9 217.0 84.9L217.0 84.9Q216.4 84.9 216.0 84.7Q215.6 84.5 215.2 83.9L215.2 83.9L204.8 69.1L204.6 69.1L204.6 83.2Q204.6 84.0 204.2 84.5ZM234.2 82.8Q232.2 85.0 228.8 85.0Q225.5 85.0 223.5 82.8Q221.5 80.7 221.5 77.0L221.5 77.0Q221.5 73.3 223.5 71.1Q225.5 69.0 228.8 69.0Q232.2 69.0 234.2 71.1Q236.1 73.3 236.1 77.0L236.1 77.0Q236.1 80.7 234.2 82.8ZM228.8 82.3L228.8 82.3Q230.7 82.3 231.8 80.9Q232.9 79.5 232.9 77.0L232.9 77.0Q232.9 74.4 231.8 73.0Q230.7 71.6 228.8 71.6Q227.0 71.6 225.9 73.0Q224.7 74.4 224.7 77.0L224.7 77.0Q224.7 79.5 225.9 80.9Q227.0 82.3 228.8 82.3ZM244.5 84.9L244.5 84.9Q243.7 84.9 243.2 84.6Q242.7 84.2 242.3 83.3L242.3 83.3L237.8 71.3Q237.6 70.8 237.6 70.4L237.6 70.4Q237.6 69.8 238.0 69.4Q238.5 69.0 239.2 69.0L239.2 69.0Q240.3 69.0 240.7 70.2L240.7 70.2L244.5 81.6L244.6 81.6L248.4 70.2Q248.8 69.0 249.9 69.0L249.9 69.0Q250.5 69.0 251.0 69.4Q251.4 69.8 251.4 70.4L251.4 70.4Q251.4 70.9 251.3 71.3L251.3 71.3L246.7 83.3Q246.4 84.2 245.9 84.6Q245.3 84.9 244.5 84.9ZM260.2 85.0L260.2 85.0Q256.8 85.0 254.8 82.9Q252.9 80.8 252.9 77.0L252.9 77.0Q252.9 73.4 254.8 71.2Q256.8 69.0 260.0 69.0L260.0 69.0Q263.1 69.0 265.0 71.0Q266.9 73.0 266.9 76.1L266.9 76.1Q266.9 76.9 266.5 77.3Q266.1 77.8 265.4 77.8L265.4 77.8L256.1 77.8L256.1 77.8Q256.1 79.9 257.2 81.2Q258.3 82.4 260.2 82.4L260.2 82.4Q261.5 82.4 262.4 81.9Q263.3 81.4 264.2 80.2L264.2 80.2Q264.6 79.6 265.3 79.6L265.3 79.6Q265.8 79.6 266.2 80.0Q266.6 80.3 266.6 80.9L266.6 80.9Q266.6 81.3 266.4 81.8L266.4 81.8Q265.6 83.3 264.0 84.1Q262.4 85.0 260.2 85.0ZM256.1 75.5L256.1 75.5L263.8 75.5Q263.7 73.7 262.7 72.6Q261.7 71.5 260.0 71.5L260.0 71.5Q258.4 71.5 257.3 72.6Q256.2 73.7 256.1 75.5ZM272.1 84.5Q271.7 84.9 271.0 84.9Q270.3 84.9 269.8 84.5Q269.4 84.0 269.4 83.3L269.4 83.3L269.4 70.6Q269.4 69.9 269.8 69.4Q270.2 69.0 270.9 69.0Q271.6 69.0 272.0 69.4Q272.4 69.8 272.4 70.6L272.4 70.6L272.4 71.8L272.5 71.8Q273.0 70.5 274.2 69.8Q275.3 69.0 276.9 69.0L276.9 69.0Q278.5 69.0 279.6 69.8Q280.7 70.6 281.2 72.0L281.2 72.0L281.2 72.0Q281.8 70.6 283.1 69.8Q284.4 69.0 286.0 69.0L286.0 69.0Q288.3 69.0 289.7 70.4Q291.1 71.8 291.1 74.1L291.1 74.1L291.1 83.3Q291.1 84.0 290.6 84.5Q290.2 84.9 289.5 84.9Q288.8 84.9 288.3 84.5Q287.9 84.0 287.9 83.3L287.9 83.3L287.9 74.8Q287.9 73.3 287.1 72.5Q286.4 71.7 285.0 71.7Q283.6 71.7 282.7 72.6Q281.8 73.6 281.8 75.0L281.8 75.0L281.8 83.3Q281.8 84.0 281.4 84.5Q281.0 84.9 280.2 84.9Q279.5 84.9 279.1 84.5Q278.7 84.0 278.7 83.3L278.7 83.3L278.7 74.6Q278.7 73.3 277.9 72.5Q277.1 71.7 275.8 71.7L275.8 71.7Q274.4 71.7 273.5 72.7Q272.6 73.6 272.6 75.1L272.6 75.1L272.6 83.3Q272.6 84.0 272.1 84.5ZM295.8 84.9L295.8 84.9Q295.1 84.9 294.7 84.5Q294.3 84.1 294.3 83.4L294.3 83.4L294.3 64.9Q294.3 64.2 294.7 63.7Q295.1 63.2 295.8 63.2Q296.5 63.2 297.0 63.7Q297.4 64.2 297.4 64.9L297.4 64.9L297.4 71.9L297.5 71.9Q298.2 70.5 299.5 69.8Q300.7 69.0 302.4 69.0L302.4 69.0Q305.3 69.0 307.0 71.2Q308.8 73.3 308.8 77.0L308.8 77.0Q308.8 80.6 307.0 82.8Q305.3 84.9 302.3 84.9L302.3 84.9Q300.7 84.9 299.4 84.2Q298.1 83.4 297.4 82.0L297.4 82.0L297.3 82.0L297.3 83.4Q297.3 84.1 296.9 84.5Q296.5 84.9 295.8 84.9ZM301.5 82.2L301.5 82.2Q303.4 82.2 304.4 80.8Q305.5 79.4 305.5 77.0L305.5 77.0Q305.5 74.5 304.4 73.1Q303.3 71.7 301.5 71.7L301.5 71.7Q299.7 71.7 298.5 73.1Q297.4 74.6 297.4 77.0L297.4 77.0Q297.4 79.3 298.5 80.8Q299.7 82.2 301.5 82.2ZM317.9 85.0L317.9 85.0Q314.4 85.0 312.5 82.9Q310.5 80.8 310.5 77.0L310.5 77.0Q310.5 73.4 312.5 71.2Q314.4 69.0 317.7 69.0L317.7 69.0Q320.8 69.0 322.7 71.0Q324.6 73.0 324.6 76.1L324.6 76.1Q324.6 76.9 324.2 77.3Q323.8 77.8 323.1 77.8L323.1 77.8L313.7 77.8L313.7 77.8Q313.7 79.9 314.8 81.2Q315.9 82.4 317.8 82.4L317.8 82.4Q319.1 82.4 320.0 81.9Q320.9 81.4 321.8 80.2L321.8 80.2Q322.3 79.6 322.9 79.6L322.9 79.6Q323.5 79.6 323.9 80.0Q324.3 80.3 324.3 80.9L324.3 80.9Q324.3 81.3 324.0 81.8L324.0 81.8Q323.3 83.3 321.7 84.1Q320.1 85.0 317.9 85.0ZM313.8 75.5L313.8 75.5L321.5 75.5Q321.4 73.7 320.4 72.6Q319.3 71.5 317.7 71.5L317.7 71.5Q316.0 71.5 315.0 72.6Q313.9 73.7 313.8 75.5ZM328.6 84.9L328.6 84.9Q327.9 84.9 327.5 84.5Q327.1 84.0 327.1 83.3L327.1 83.3L327.1 70.6Q327.1 69.9 327.5 69.4Q327.9 69.0 328.6 69.0L328.6 69.0Q329.2 69.0 329.7 69.4Q330.1 69.9 330.1 70.6L330.1 70.6L330.1 71.9L330.1 71.9Q330.5 70.6 331.4 69.8Q332.4 69.0 333.5 69.0L333.5 69.0Q334.4 69.0 334.8 69.4L334.8 69.4Q335.2 69.7 335.2 70.5L335.2 70.5Q335.2 71.2 334.7 71.6L334.7 71.6Q334.3 72.0 333.3 72.0L333.3 72.0Q331.7 72.0 331.0 73.0Q330.2 73.9 330.2 75.4L330.2 75.4L330.2 83.3Q330.2 84.0 329.8 84.5Q329.4 84.9 328.6 84.9Z M356.2 84.7L344.6 84.7Q343.8 84.7 343.4 84.3Q343.0 83.9 343.0 83.3L343.0 83.3Q343.0 82.8 343.2 82.5Q343.4 82.1 343.9 81.6L343.9 81.6L350.5 74.9Q352.6 72.8 353.3 71.7Q353.9 70.6 353.9 69.3L353.9 69.3Q353.9 67.8 352.9 66.8Q351.9 65.8 350.3 65.8L350.3 65.8Q347.1 65.8 346.0 69.0L346.0 69.0Q345.8 69.5 345.4 69.8Q345.1 70.0 344.5 70.0L344.5 70.0Q343.9 70.0 343.5 69.6Q343.1 69.3 343.1 68.6L343.1 68.6Q343.1 68.3 343.2 68.0L343.2 68.0Q343.4 67.1 343.9 66.3Q344.5 65.4 345.3 64.7Q346.2 64.0 347.5 63.6Q348.8 63.1 350.3 63.1L350.3 63.1Q353.3 63.1 355.2 64.8Q357.2 66.5 357.2 69.1L357.2 69.1Q357.2 70.9 356.2 72.5Q355.2 74.0 352.5 76.8L352.5 76.8L347.5 81.8L347.5 81.9L356.2 81.9Q356.9 81.9 357.3 82.3Q357.7 82.7 357.7 83.3L357.7 83.3Q357.7 83.9 357.3 84.3Q356.9 84.7 356.2 84.7L356.2 84.7ZM374.1 82.1Q372.0 85.1 368.2 85.1Q364.4 85.1 362.2 82.1Q360.1 79.2 360.1 74.1L360.1 74.1Q360.1 69.0 362.2 66.1Q364.4 63.1 368.2 63.1L368.2 63.1Q371.9 63.1 374.1 66.1Q376.2 69.0 376.2 74.1L376.2 74.1Q376.2 79.1 374.1 82.1ZM368.2 82.3L368.2 82.3Q370.4 82.3 371.7 80.1Q372.9 77.9 372.9 74.1L372.9 74.1Q372.9 70.3 371.7 68.1Q370.4 65.9 368.2 65.9Q365.9 65.9 364.7 68.1Q363.4 70.3 363.4 74.1L363.4 74.1Q363.4 77.9 364.6 80.1Q365.9 82.3 368.2 82.3ZM392.3 84.7L380.6 84.7Q379.9 84.7 379.5 84.3Q379.1 83.9 379.1 83.3L379.1 83.3Q379.1 82.8 379.3 82.5Q379.5 82.1 380.0 81.6L380.0 81.6L386.6 74.9Q388.7 72.8 389.4 71.7Q390.0 70.6 390.0 69.3L390.0 69.3Q390.0 67.8 389.0 66.8Q388.0 65.8 386.4 65.8L386.4 65.8Q383.2 65.8 382.1 69.0L382.1 69.0Q381.9 69.5 381.5 69.8Q381.2 70.0 380.6 70.0L380.6 70.0Q380.0 70.0 379.6 69.6Q379.2 69.3 379.2 68.6L379.2 68.6Q379.2 68.3 379.3 68.0L379.3 68.0Q379.4 67.1 380.0 66.3Q380.5 65.4 381.4 64.7Q382.3 64.0 383.6 63.6Q384.9 63.1 386.4 63.1L386.4 63.1Q389.4 63.1 391.3 64.8Q393.3 66.5 393.3 69.1L393.3 69.1Q393.3 70.9 392.3 72.5Q391.3 74.0 388.6 76.8L388.6 76.8L383.5 81.8L383.5 81.9L392.3 81.9Q393.0 81.9 393.4 82.3Q393.8 82.7 393.8 83.3L393.8 83.3Q393.8 83.9 393.4 84.3Q393.0 84.7 392.3 84.7L392.3 84.7ZM408.1 84.9L408.1 84.9Q407.5 84.9 407.0 84.5Q406.6 84.0 406.6 83.3L406.6 83.3L406.6 80.5L397.9 80.5Q397.0 80.5 396.5 80.0Q396.0 79.4 396.0 78.6L396.0 78.6Q396.0 77.6 396.7 76.3L396.7 76.3Q398.5 73.0 403.5 65.7L403.5 65.7Q404.5 64.3 405.2 63.8Q406.0 63.2 407.0 63.2L407.0 63.2Q408.3 63.2 409.0 63.9Q409.7 64.5 409.7 65.7L409.7 65.7L409.7 77.7L411.4 77.7Q412.0 77.7 412.4 78.1Q412.8 78.5 412.8 79.1Q412.8 79.7 412.4 80.1Q412.0 80.5 411.4 80.5L411.4 80.5L409.7 80.5L409.7 83.3Q409.7 84.0 409.3 84.5Q408.8 84.9 408.1 84.9ZM399.0 77.8L406.6 77.8L406.6 66.1L406.5 66.1Q401.1 73.9 399.0 77.7L399.0 77.7L399.0 77.8Z "/><mask id="satori_om-id-0-0-1"><rect x="40" y="137" width="1120" height="243" fill="#fff"/></mask><path fill="#224d67" d="M45.6 200.1L45.6 200.1Q43.8 200.1 42.8 199.1Q41.8 198.2 41.8 196.6L41.8 196.6Q41.8 195.6 42.3 194.3L42.3 194.3L54.5 160.9Q55.3 158.8 56.6 157.8Q58.0 156.8 60.0 156.8L60.0 156.8Q62.1 156.8 63.4 157.8Q64.8 158.7 65.5 160.9L65.5 160.9L77.9 194.3Q78.3 195.7 78.3 196.6L78.3 196.6Q78.3 198.1 77.3 199.1Q76.2 200.1 74.6 200.1L74.6 200.1Q73.0 200.1 72.1 199.3Q71.2 198.6 70.7 196.9L70.7 196.9L67.9 188.8L52.1 188.8L49.3 196.8Q48.8 198.6 47.9 199.3Q47.0 200.1 45.6 200.1ZM59.9 164.8L53.9 182.8L66.1 182.8L60.1 164.8L59.9 164.8Z M110.7 200.3L110.7 200.3Q104.6 200.3 100.4 198.0Q96.3 195.7 95.0 192.0L95.0 192.0Q94.6 190.9 94.6 189.8L94.6 189.8Q94.6 188.2 95.5 187.3Q96.5 186.3 97.9 186.3L97.9 186.3Q99.2 186.3 100.0 186.9Q100.9 187.4 101.5 188.7L101.5 188.7Q102.5 191.4 105.0 192.7Q107.4 194.0 111.0 194.0L111.0 194.0Q114.8 194.0 117.2 192.3Q119.6 190.6 119.6 188.0L119.6 188.0Q119.6 185.7 117.9 184.2Q116.1 182.8 112.0 181.9L112.0 181.9L107.5 181.0Q95.0 178.4 95.0 169.1L95.0 169.1Q95.0 163.5 99.4 160.1Q103.8 156.6 110.8 156.6L110.8 156.6Q116.4 156.6 120.4 159.0Q124.5 161.4 125.8 165.5L125.8 165.5Q126.0 166.2 126.0 167.3L126.0 167.3Q126.0 168.6 125.1 169.5Q124.2 170.4 122.7 170.4L122.7 170.4Q120.3 170.4 119.1 168.0L119.1 168.0Q117.1 162.9 110.7 162.9L110.7 162.9Q107.1 162.9 104.9 164.4Q102.7 166.0 102.7 168.6L102.7 168.6Q102.7 170.8 104.4 172.2Q106.2 173.7 110.0 174.5L110.0 174.5L114.6 175.4Q121.2 176.8 124.2 179.6Q127.2 182.4 127.2 187.1L127.2 187.1Q127.2 193.2 122.8 196.7Q118.3 200.3 110.7 200.3ZM143.0 200.1L143.0 200.1Q138.0 200.1 135.0 197.0Q132.0 194.0 132.0 188.6L132.0 188.6L132.0 171.7Q132.0 170.0 133.0 168.9Q134.0 167.9 135.7 167.9Q137.3 167.9 138.3 168.9Q139.3 170.0 139.3 171.8L139.3 171.8L139.3 187.1Q139.3 190.5 140.9 192.2Q142.5 194.0 145.6 194.0L145.6 194.0Q148.7 194.0 150.6 191.9Q152.4 189.9 152.4 186.5L152.4 186.5L152.4 171.7Q152.4 170.0 153.4 168.9Q154.4 167.9 156.1 167.9L156.1 167.9Q157.7 167.9 158.7 168.9Q159.7 170.0 159.7 171.8L159.7 171.8L159.7 196.5Q159.7 198.2 158.8 199.2Q157.8 200.2 156.2 200.2L156.2 200.2Q154.6 200.2 153.6 199.2Q152.7 198.2 152.7 196.5L152.7 196.5L152.7 194.2L152.5 194.2Q150.0 200.1 143.0 200.1ZM172.0 199.1Q171.0 200.2 169.3 200.2Q167.6 200.2 166.6 199.1Q165.7 198.1 165.7 196.3L165.7 196.3L165.7 171.6Q165.7 169.9 166.6 168.9Q167.6 167.9 169.1 167.9L169.1 167.9Q170.7 167.9 171.6 168.9Q172.6 169.9 172.6 171.6L172.6 171.6L172.6 174.0L172.7 174.0Q173.4 171.3 175.2 169.6Q177.1 168.0 179.4 168.0L179.4 168.0Q181.1 168.0 182.0 168.8L182.0 168.8Q183.0 169.6 183.0 171.4L183.0 171.4Q183.0 173.1 181.9 174.0L181.9 174.0Q180.9 174.9 178.7 175.0L178.7 175.0Q172.9 175.0 172.9 181.4L172.9 181.4L172.9 196.3Q172.9 198.1 172.0 199.1ZM198.7 200.2L198.7 200.2Q196.7 200.2 195.5 199.3Q194.3 198.4 193.6 196.4L193.6 196.4L184.8 173.3Q184.4 172.2 184.4 171.2L184.4 171.2Q184.4 169.8 185.5 168.8Q186.5 167.9 188.1 167.9L188.1 167.9Q190.7 167.9 191.6 170.8L191.6 170.8L198.6 192.8L198.8 192.8L205.9 170.8Q206.7 167.9 209.3 167.9L209.3 167.9Q210.8 167.9 211.8 168.8Q212.9 169.8 212.9 171.2L212.9 171.2Q212.9 172.2 212.5 173.2L212.5 173.2L203.7 196.4Q203.1 198.3 201.9 199.3Q200.6 200.2 198.7 200.2ZM230.8 200.2L230.8 200.2Q223.6 200.2 219.6 196.0Q215.7 191.7 215.7 184.2L215.7 184.2Q215.7 176.7 219.6 172.3Q223.6 167.9 230.3 167.9L230.3 167.9Q236.7 167.9 240.7 171.9Q244.6 176.0 244.6 182.4L244.6 182.4Q244.6 184.0 243.7 184.9Q242.9 185.8 241.2 185.8L241.2 185.8L222.9 185.8L222.9 186.0Q222.9 189.9 225.0 192.3Q227.1 194.6 230.7 194.6L230.7 194.6Q233.2 194.6 234.9 193.6Q236.7 192.7 238.5 190.4L238.5 190.4Q239.5 189.3 240.9 189.3L240.9 189.3Q242.2 189.3 243.0 190.0Q243.8 190.8 243.8 192.1L243.8 192.1Q243.8 192.9 243.3 193.9L243.3 193.9Q241.8 196.9 238.5 198.5Q235.2 200.2 230.8 200.2ZM223.0 181.0L223.0 181.0L237.5 181.0Q237.4 177.6 235.4 175.6Q233.4 173.5 230.4 173.5Q227.3 173.5 225.2 175.6Q223.2 177.7 223.0 181.0ZM253.8 211.1L253.8 211.1Q251.3 211.1 250.0 210.2Q248.7 209.3 248.7 207.7L248.7 207.7Q248.7 206.6 249.5 205.9Q250.2 205.2 251.5 205.2L251.5 205.2Q251.8 205.2 252.2 205.2Q252.7 205.2 253.0 205.2L253.0 205.2Q256.0 205.2 257.5 201.7L257.5 201.7L258.0 200.1L247.8 173.4Q247.4 172.2 247.4 171.3L247.4 171.3Q247.4 169.8 248.5 168.9Q249.6 167.9 251.2 167.9L251.2 167.9Q252.5 167.9 253.4 168.6Q254.2 169.3 254.7 170.8L254.7 170.8L262.1 193.4L262.2 193.4L269.6 170.8Q270.1 169.3 270.9 168.6Q271.7 167.9 273.1 167.9L273.1 167.9Q274.7 167.9 275.7 168.8Q276.7 169.8 276.7 171.2L276.7 171.2Q276.7 172.2 276.3 173.3L276.3 173.3L266.0 200.7Q263.9 206.5 261.2 208.8Q258.4 211.1 253.8 211.1Z M317.4 195.9Q313.3 200.2 306.4 200.2Q299.5 200.2 295.4 195.9Q291.4 191.6 291.4 184.1L291.4 184.1Q291.4 176.6 295.5 172.2Q299.6 167.9 306.4 167.9L306.4 167.9Q313.3 167.9 317.3 172.2Q321.4 176.6 321.4 184.1L321.4 184.1Q321.4 191.6 317.4 195.9ZM300.8 191.7Q302.9 194.4 306.4 194.4Q309.9 194.4 312.0 191.7Q314.0 189.0 314.0 184.1L314.0 184.1Q314.0 179.2 312.0 176.4Q309.9 173.7 306.4 173.7L306.4 173.7Q302.9 173.7 300.8 176.4Q298.8 179.2 298.8 184.1L298.8 184.1Q298.8 189.0 300.8 191.7ZM334.4 199.2Q333.5 200.2 331.8 200.2Q330.1 200.2 329.1 199.2Q328.1 198.2 328.1 196.4L328.1 196.4L328.1 174.1L326.2 174.1Q324.9 174.1 324.2 173.4Q323.4 172.7 323.4 171.4L323.4 171.4Q323.4 170.1 324.2 169.4Q324.9 168.6 326.2 168.6L326.2 168.6L328.1 168.6L328.1 165.9Q328.1 157.0 336.7 157.0L336.7 157.0Q339.5 157.0 340.9 157.8Q342.3 158.6 342.3 160.0L342.3 160.0Q342.3 161.7 340.7 162.1L340.7 162.1Q340.0 162.3 339.1 162.3L339.1 162.3Q337.1 162.4 336.2 163.3Q335.3 164.2 335.3 166.2L335.3 166.2L335.3 168.6L339.2 168.6Q340.5 168.6 341.2 169.4Q342.0 170.1 342.0 171.4L342.0 171.4Q342.0 172.7 341.2 173.4Q340.5 174.1 339.2 174.1L339.2 174.1L335.4 174.1L335.4 196.4Q335.4 198.2 334.4 199.2Z M365.6 199.1Q364.6 200.2 362.9 200.2Q361.1 200.2 360.1 199.1Q359.1 198.1 359.1 196.2L359.1 196.2L359.1 161.2Q359.1 159.4 360.1 158.3Q361.1 157.3 362.9 157.3L362.9 157.3L375.9 157.3Q382.7 157.3 386.6 160.8Q390.5 164.4 390.5 170.5L390.5 170.5Q390.5 174.6 388.4 177.8Q386.4 181.0 382.8 182.4L382.8 182.4L389.5 194.1Q390.3 195.5 390.3 196.7L390.3 196.7Q390.3 198.2 389.2 199.2Q388.1 200.2 386.5 200.2L386.5 200.2Q385.1 200.2 384.3 199.6Q383.5 199.0 382.6 197.4L382.6 197.4L375.1 183.7L366.6 183.7L366.6 196.2Q366.6 198.1 365.6 199.1ZM366.6 163.4L366.6 177.9L375.2 177.9Q378.8 177.9 380.8 176.0Q382.7 174.1 382.7 170.6L382.7 170.6Q382.7 167.3 380.7 165.4Q378.6 163.4 375.0 163.4L375.0 163.4L366.6 163.4ZM420.5 195.9Q416.5 200.2 409.6 200.2Q402.7 200.2 398.6 195.9Q394.6 191.6 394.6 184.1L394.6 184.1Q394.6 176.6 398.7 172.2Q402.8 167.9 409.6 167.9L409.6 167.9Q416.4 167.9 420.5 172.2Q424.6 176.6 424.6 184.1L424.6 184.1Q424.6 191.6 420.5 195.9ZM404.0 191.7Q406.1 194.4 409.6 194.4Q413.1 194.4 415.1 191.7Q417.2 189.0 417.2 184.1L417.2 184.1Q417.2 179.2 415.1 176.4Q413.1 173.7 409.6 173.7L409.6 173.7Q406.1 173.7 404.0 176.4Q402.0 179.2 402.0 184.1L402.0 184.1Q402.0 189.0 404.0 191.7ZM435.7 199.2Q434.7 200.2 433.0 200.2Q431.4 200.2 430.5 199.2Q429.5 198.3 429.5 196.5L429.5 196.5L429.5 160.6Q429.5 158.7 430.5 157.7Q431.5 156.7 433.2 156.7Q434.8 156.7 435.8 157.7Q436.8 158.7 436.8 160.6L436.8 160.6L436.8 173.9L437.0 173.9Q438.3 171.1 440.9 169.5Q443.4 168.0 446.7 168.0L446.7 168.0Q452.6 168.0 456.0 172.3Q459.5 176.6 459.5 184.1L459.5 184.1Q459.5 191.5 456.0 195.8Q452.6 200.1 446.7 200.1L446.7 200.1Q443.3 200.1 440.8 198.6Q438.2 197.0 436.8 194.3L436.8 194.3L436.7 194.3L436.7 196.5Q436.7 198.2 435.7 199.2ZM444.4 194.1L444.4 194.1Q447.9 194.1 450.0 191.4Q452.0 188.7 452.0 184.1Q452.0 179.4 450.0 176.7Q447.9 174.0 444.4 174.0L444.4 174.0Q441.0 174.0 438.9 176.8Q436.8 179.5 436.8 184.1L436.8 184.1Q436.8 188.6 438.9 191.3Q441.0 194.1 444.4 194.1ZM488.9 195.9Q484.8 200.2 477.9 200.2Q471.0 200.2 467.0 195.9Q462.9 191.6 462.9 184.1L462.9 184.1Q462.9 176.6 467.0 172.2Q471.1 167.9 477.9 167.9L477.9 167.9Q484.8 167.9 488.9 172.2Q493.0 176.6 493.0 184.1L493.0 184.1Q493.0 191.6 488.9 195.9ZM472.4 191.7Q474.4 194.4 477.9 194.4Q481.4 194.4 483.5 191.7Q485.5 189.0 485.5 184.1L485.5 184.1Q485.5 179.2 483.5 176.4Q481.4 173.7 477.9 173.7L477.9 173.7Q474.4 173.7 472.4 176.4Q470.3 179.2 470.3 184.1L470.3 184.1Q470.3 189.0 472.4 191.7ZM499.7 191.9L499.7 191.9L499.7 174.1L497.7 174.1Q496.4 174.1 495.6 173.4Q494.8 172.6 494.8 171.3L494.8 171.3Q494.8 170.0 495.6 169.3Q496.3 168.5 497.7 168.5L497.7 168.5L499.7 168.5L499.7 164.4Q499.7 162.6 500.6 161.6Q501.6 160.6 503.3 160.6L503.3 160.6Q505 160.6 506.0 161.6Q507.0 162.6 507.0 164.4L507.0 164.4L507.0 168.5L510.3 168.5Q511.7 168.5 512.5 169.3Q513.3 170.0 513.3 171.3L513.3 171.3Q513.3 172.6 512.5 173.4Q511.7 174.1 510.3 174.1L510.3 174.1L507.0 174.1L507.0 190.3Q507.0 192.1 507.6 192.9Q508.3 193.7 509.9 193.9L509.9 193.9L510.4 193.9Q513.3 194.2 513.3 196.6L513.3 196.6Q513.3 198.2 512.0 199.1Q510.7 199.9 508.1 199.9L508.1 199.9L507.8 199.9Q499.7 199.9 499.7 191.9ZM524.5 163.0Q523.3 164.2 521.6 164.2Q519.9 164.2 518.7 163.0Q517.5 161.8 517.5 160.2L517.5 160.2Q517.5 158.5 518.7 157.4Q519.9 156.2 521.6 156.2L521.6 156.2Q523.3 156.2 524.5 157.4Q525.7 158.5 525.7 160.2L525.7 160.2Q525.7 161.8 524.5 163.0ZM524.2 199.1Q523.3 200.2 521.6 200.2Q519.9 200.2 518.9 199.1Q517.9 198.1 517.9 196.3L517.9 196.3L517.9 171.7Q517.9 170.0 518.9 168.9Q519.9 167.9 521.6 167.9Q523.3 167.9 524.2 168.9Q525.2 170.0 525.2 171.8L525.2 171.8L525.2 196.3Q525.2 198.1 524.2 199.1ZM545.0 200.2L545.0 200.2Q538.2 200.2 534.1 195.9Q530.1 191.5 530.1 184.1L530.1 184.1Q530.1 176.7 534.1 172.3Q538.2 167.9 545.0 167.9L545.0 167.9Q549.5 167.9 553.1 170.0Q556.6 172.1 557.7 175.4L557.7 175.4Q558.1 176.4 558.1 177.1L558.1 177.1Q558.1 178.5 557.2 179.3Q556.3 180.1 555.0 180.1L555.0 180.1Q553.9 180.1 553.2 179.6Q552.4 179.1 551.8 178.0L551.8 178.0Q549.5 173.8 545.2 173.8L545.2 173.8Q541.7 173.8 539.6 176.6Q537.5 179.3 537.5 184.1L537.5 184.1Q537.5 188.9 539.6 191.6Q541.6 194.3 545.1 194.3L545.1 194.3Q549.5 194.3 551.8 190.3L551.8 190.3Q552.5 189.1 553.2 188.6Q554.0 188.1 555.1 188.1L555.1 188.1Q556.4 188.1 557.3 188.9Q558.2 189.7 558.2 191.1L558.2 191.1Q558.2 191.9 557.8 192.9L557.8 192.9Q556.4 196.1 552.9 198.2Q549.4 200.2 545.0 200.2Z M599.6 199.6L579.6 199.6Q577.9 199.6 576.9 198.5Q575.8 197.5 575.8 195.7L575.8 195.7L575.8 160.7Q575.8 158.9 576.9 157.8Q577.9 156.8 579.6 156.8L579.6 156.8Q581.4 156.8 582.4 157.8Q583.4 158.9 583.4 160.7L583.4 160.7L583.4 193.2L599.6 193.2Q601.2 193.2 602.1 194.1Q603.1 194.9 603.1 196.4Q603.1 197.8 602.1 198.7Q601.2 199.6 599.6 199.6L599.6 199.6ZM616.4 200.1L616.4 200.1Q611.8 200.1 608.9 197.5Q606.0 194.9 606.0 190.7L606.0 190.7Q606.0 186.6 609.1 184.2Q612.1 181.8 617.8 181.4L617.8 181.4L626.1 180.9L626.1 178.7Q626.1 176.3 624.5 174.9Q623.0 173.6 620.3 173.6L620.3 173.6Q618.1 173.6 616.6 174.4Q615.1 175.2 613.8 177.2L613.8 177.2Q612.6 178.7 610.8 178.7L610.8 178.7Q609.4 178.7 608.6 177.9Q607.7 177.1 607.7 175.8L607.7 175.8Q607.7 174.8 608.2 173.8L608.2 173.8Q609.4 171.1 612.7 169.5Q616.1 167.9 620.5 167.9L620.5 167.9Q626.3 167.9 629.8 170.7Q633.3 173.5 633.3 178.2L633.3 178.2L633.3 196.5Q633.3 198.2 632.3 199.2Q631.3 200.2 629.7 200.2L629.7 200.2Q628.2 200.2 627.3 199.3Q626.3 198.4 626.2 196.8L626.2 196.8L626.2 194.6L626.1 194.6Q624.8 197.1 622.1 198.6Q619.4 200.1 616.4 200.1ZM618.6 194.6L618.6 194.6Q621.7 194.6 623.9 192.7Q626.1 190.8 626.1 188.1L626.1 188.1L626.1 185.7L618.8 186.1Q616.2 186.3 614.8 187.4Q613.3 188.6 613.3 190.4L613.3 190.4Q613.3 192.3 614.8 193.4Q616.2 194.6 618.6 194.6ZM645.4 199.2Q644.4 200.2 642.8 200.2Q641.1 200.2 640.1 199.2Q639.1 198.1 639.1 196.3L639.1 196.3L639.1 171.6Q639.1 169.9 640.1 168.9Q641.0 167.9 642.6 167.9Q644.2 167.9 645.2 168.9Q646.2 169.9 646.2 171.6L646.2 171.6L646.2 173.8L646.4 173.8Q649.0 167.9 656.0 167.9L656.0 167.9Q661.1 167.9 664.0 171.0Q666.8 174.1 666.8 179.5L666.8 179.5L666.8 196.3Q666.8 198.1 665.8 199.2Q664.8 200.2 663.1 200.2Q661.5 200.2 660.5 199.2Q659.5 198.1 659.5 196.3L659.5 196.3L659.5 181.0Q659.5 177.6 657.9 175.9Q656.3 174.1 653.3 174.1L653.3 174.1Q650.1 174.1 648.3 176.2Q646.4 178.2 646.4 181.6L646.4 181.6L646.4 196.3Q646.4 198.1 645.4 199.2ZM686.0 211.3L686.0 211.3Q681.6 211.2 678.3 209.7Q675.0 208.2 673.4 205.6L673.4 205.6Q672.8 204.6 672.8 203.4L672.8 203.4Q672.8 202.2 673.6 201.4Q674.5 200.6 675.8 200.6L675.8 200.6Q677.2 200.6 678.5 201.8L678.5 201.8Q680.4 203.7 682.1 204.6Q683.9 205.4 686.1 205.5L686.1 205.5Q689.7 205.5 691.8 203.6Q694.0 201.7 694.0 198.6L694.0 198.6L694.0 193.7L693.8 193.7Q692.6 196.2 690.0 197.7Q687.4 199.3 684.1 199.3L684.1 199.3Q678.2 199.3 674.8 195.0Q671.3 190.8 671.3 183.7L671.3 183.7Q671.3 176.4 674.8 172.2Q678.2 168.0 684.2 168.0L684.2 168.0Q687.5 168.0 690.0 169.5Q692.5 171.1 693.9 173.8L693.9 173.8L694.0 173.8L694.0 171.6Q694.0 169.9 695.0 168.9Q696.0 167.9 697.7 167.9Q699.3 167.9 700.3 168.9Q701.3 169.9 701.3 171.6L701.3 171.6L701.3 198.6Q701.3 204.5 697.2 207.9Q693.1 211.3 686.0 211.3ZM686.3 193.6L686.3 193.6Q689.8 193.6 691.9 190.9Q694.0 188.3 694.0 183.7L694.0 183.7Q694.0 179.2 691.9 176.5Q689.8 173.8 686.3 173.8L686.3 173.8Q682.9 173.8 680.8 176.5Q678.8 179.2 678.8 183.7L678.8 183.7Q678.8 188.3 680.8 191.0Q682.9 193.6 686.3 193.6ZM718.1 200.1L718.1 200.1Q713.0 200.1 710.1 197.0Q707.1 194.0 707.1 188.6L707.1 188.6L707.1 171.7Q707.1 170.0 708.1 168.9Q709.1 167.9 710.7 167.9Q712.4 167.9 713.4 168.9Q714.4 170.0 714.4 171.8L714.4 171.8L714.4 187.1Q714.4 190.5 716.0 192.2Q717.6 194.0 720.7 194.0L720.7 194.0Q723.8 194.0 725.6 191.9Q727.5 189.9 727.5 186.5L727.5 186.5L727.5 171.7Q727.5 170.0 728.5 168.9Q729.5 167.9 731.1 167.9L731.1 167.9Q732.8 167.9 733.8 168.9Q734.8 170.0 734.8 171.8L734.8 171.8L734.8 196.5Q734.8 198.2 733.8 199.2Q732.9 200.2 731.3 200.2L731.3 200.2Q729.7 200.2 728.7 199.2Q727.7 198.2 727.7 196.5L727.7 196.5L727.7 194.2L727.6 194.2Q725.0 200.1 718.1 200.1ZM749.8 200.1L749.8 200.1Q745.3 200.1 742.4 197.5Q739.5 194.9 739.5 190.7L739.5 190.7Q739.5 186.6 742.5 184.2Q745.6 181.8 751.3 181.4L751.3 181.4L759.5 180.9L759.5 178.7Q759.5 176.3 758.0 174.9Q756.4 173.6 753.7 173.6L753.7 173.6Q751.5 173.6 750.0 174.4Q748.5 175.2 747.2 177.2L747.2 177.2Q746.1 178.7 744.2 178.7L744.2 178.7Q742.9 178.7 742.0 177.9Q741.2 177.1 741.2 175.8L741.2 175.8Q741.2 174.8 741.7 173.8L741.7 173.8Q742.8 171.1 746.2 169.5Q749.5 167.9 754.0 167.9L754.0 167.9Q759.8 167.9 763.2 170.7Q766.7 173.5 766.7 178.2L766.7 178.2L766.7 196.5Q766.7 198.2 765.7 199.2Q764.7 200.2 763.2 200.2L763.2 200.2Q761.6 200.2 760.7 199.3Q759.8 198.4 759.7 196.8L759.7 196.8L759.7 194.6L759.5 194.6Q758.2 197.1 755.5 198.6Q752.9 200.1 749.8 200.1ZM752.1 194.6L752.1 194.6Q755.2 194.6 757.3 192.7Q759.5 190.8 759.5 188.1L759.5 188.1L759.5 185.7L752.3 186.1Q749.7 186.3 748.2 187.4Q746.8 188.6 746.8 190.4L746.8 190.4Q746.8 192.3 748.2 193.4Q749.7 194.6 752.1 194.6ZM786.0 211.3L786.0 211.3Q781.6 211.2 778.3 209.7Q775.0 208.2 773.4 205.6L773.4 205.6Q772.7 204.6 772.7 203.4L772.7 203.4Q772.7 202.2 773.6 201.4Q774.4 200.6 775.8 200.6L775.8 200.6Q777.2 200.6 778.5 201.8L778.5 201.8Q780.3 203.7 782.1 204.6Q783.8 205.4 786.0 205.5L786.0 205.5Q789.7 205.5 791.8 203.6Q793.9 201.7 793.9 198.6L793.9 198.6L793.9 193.7L793.8 193.7Q792.5 196.2 789.9 197.7Q787.3 199.3 784.1 199.3L784.1 199.3Q778.2 199.3 774.7 195.0Q771.3 190.8 771.3 183.7L771.3 183.7Q771.3 176.4 774.7 172.2Q778.2 168.0 784.2 168.0L784.2 168.0Q787.5 168.0 790.0 169.5Q792.5 171.1 793.8 173.8L793.8 173.8L794.0 173.8L794.0 171.6Q794.0 169.9 795.0 168.9Q796.0 167.9 797.6 167.9Q799.2 167.9 800.2 168.9Q801.3 169.9 801.3 171.6L801.3 171.6L801.3 198.6Q801.3 204.5 797.2 207.9Q793.1 211.3 786.0 211.3ZM786.3 193.6L786.3 193.6Q789.8 193.6 791.9 190.9Q794.0 188.3 794.0 183.7L794.0 183.7Q794.0 179.2 791.9 176.5Q789.8 173.8 786.3 173.8L786.3 173.8Q782.8 173.8 780.8 176.5Q778.8 179.2 778.8 183.7L778.8 183.7Q778.8 188.3 780.8 191.0Q782.8 193.6 786.3 193.6ZM821.0 200.2L821.0 200.2Q813.9 200.2 809.9 196.0Q805.9 191.7 805.9 184.2L805.9 184.2Q805.9 176.7 809.9 172.3Q813.9 167.9 820.6 167.9L820.6 167.9Q826.9 167.9 830.9 171.9Q834.9 176.0 834.9 182.4L834.9 182.4Q834.9 184.0 834.0 184.9Q833.1 185.8 831.5 185.8L831.5 185.8L813.2 185.8L813.2 186.0Q813.2 189.9 815.3 192.3Q817.4 194.6 820.9 194.6L820.9 194.6Q823.4 194.6 825.2 193.6Q826.9 192.7 828.7 190.4L828.7 190.4Q829.8 189.3 831.2 189.3L831.2 189.3Q832.4 189.3 833.3 190.0Q834.1 190.8 834.1 192.1L834.1 192.1Q834.1 192.9 833.6 193.9L833.6 193.9Q832.0 196.9 828.7 198.5Q825.4 200.2 821.0 200.2ZM813.2 181.0L813.2 181.0L827.7 181.0Q827.6 177.6 825.7 175.6Q823.7 173.5 820.6 173.5Q817.5 173.5 815.5 175.6Q813.4 177.7 813.2 181.0Z M870.9 200.3L870.9 200.3Q861.6 200.3 856.3 194.4Q850.9 188.5 850.9 178.3L850.9 178.3Q850.9 168.2 856.2 162.4Q861.6 156.6 870.7 156.6L870.7 156.6Q876.6 156.6 881.1 159.2Q885.6 161.8 887.4 165.9L887.4 165.9Q888.0 167.2 888.0 168.4L888.0 168.4Q888.0 169.9 887.1 170.8Q886.2 171.7 884.6 171.7L884.6 171.7Q882.3 171.7 880.9 169.3L880.9 169.3Q877.7 163.0 870.8 163.0L870.8 163.0Q865.1 163.0 861.8 167.0Q858.6 171.0 858.6 178.2L858.6 178.2Q858.6 185.5 861.9 189.7Q865.3 193.9 871.0 193.9L871.0 193.9Q875.8 193.9 878.8 191.1Q881.8 188.4 881.9 183.9L881.9 183.9L881.9 183.2L874.4 183.2Q873.0 183.2 872.1 182.4Q871.3 181.6 871.3 180.3Q871.3 179.0 872.1 178.2Q873.0 177.4 874.4 177.4L874.4 177.4L885.6 177.4Q887.3 177.4 888.3 178.5Q889.3 179.5 889.3 181.4L889.3 181.4L889.3 182.2Q889.3 190.6 884.4 195.4Q879.6 200.3 870.9 200.3ZM901.0 199.1Q900.0 200.2 898.4 200.2Q896.7 200.2 895.7 199.1Q894.7 198.1 894.7 196.3L894.7 196.3L894.7 171.6Q894.7 169.9 895.7 168.9Q896.6 167.9 898.2 167.9L898.2 167.9Q899.7 167.9 900.7 168.9Q901.7 169.9 901.7 171.6L901.7 171.6L901.7 174.0L901.8 174.0Q902.5 171.3 904.3 169.6Q906.1 168.0 908.5 168.0L908.5 168.0Q910.2 168.0 911.1 168.8L911.1 168.8Q912.1 169.6 912.1 171.4L912.1 171.4Q912.1 173.1 911.0 174.0L911.0 174.0Q909.9 174.9 907.8 175.0L907.8 175.0Q902.0 175.0 902.0 181.4L902.0 181.4L902.0 196.3Q902.0 198.1 901.0 199.1ZM940.1 195.9Q936.0 200.2 929.1 200.2Q922.2 200.2 918.1 195.9Q914.1 191.6 914.1 184.1L914.1 184.1Q914.1 176.6 918.2 172.2Q922.3 167.9 929.1 167.9L929.1 167.9Q936.0 167.9 940.0 172.2Q944.1 176.6 944.1 184.1L944.1 184.1Q944.1 191.6 940.1 195.9ZM923.5 191.7Q925.6 194.4 929.1 194.4Q932.6 194.4 934.7 191.7Q936.7 189.0 936.7 184.1L936.7 184.1Q936.7 179.2 934.7 176.4Q932.6 173.7 929.1 173.7L929.1 173.7Q925.6 173.7 923.5 176.4Q921.5 179.2 921.5 184.1L921.5 184.1Q921.5 189.0 923.5 191.7ZM959.7 200.1L959.7 200.1Q954.6 200.1 951.6 197.0Q948.7 194.0 948.7 188.6L948.7 188.6L948.7 171.7Q948.7 170.0 949.7 168.9Q950.7 167.9 952.3 167.9Q953.9 167.9 955.0 168.9Q956.0 170.0 956.0 171.8L956.0 171.8L956.0 187.1Q956.0 190.5 957.6 192.2Q959.2 194.0 962.2 194.0L962.2 194.0Q965.4 194.0 967.2 191.9Q969.1 189.9 969.1 186.5L969.1 186.5L969.1 171.7Q969.1 170.0 970.1 168.9Q971.1 167.9 972.7 167.9L972.7 167.9Q974.3 167.9 975.3 168.9Q976.4 170.0 976.4 171.8L976.4 171.8L976.4 196.5Q976.4 198.2 975.4 199.2Q974.5 200.2 972.9 200.2L972.9 200.2Q971.3 200.2 970.3 199.2Q969.3 198.2 969.3 196.5L969.3 196.5L969.3 194.2L969.2 194.2Q966.6 200.1 959.7 200.1ZM988.6 199.2Q987.6 200.2 985.9 200.2Q984.3 200.2 983.3 199.2Q982.3 198.1 982.3 196.3L982.3 196.3L982.3 171.6Q982.3 169.9 983.2 168.9Q984.2 167.9 985.8 167.9Q987.4 167.9 988.4 168.9Q989.4 169.9 989.4 171.6L989.4 171.6L989.4 173.8L989.5 173.8Q992.2 167.9 999.2 167.9L999.2 167.9Q1004.3 167.9 1007.1 171.0Q1010.0 174.1 1010.0 179.5L1010.0 179.5L1010.0 196.3Q1010.0 198.1 1009.0 199.2Q1008.0 200.2 1006.3 200.2Q1004.7 200.2 1003.7 199.2Q1002.7 198.1 1002.7 196.3L1002.7 196.3L1002.7 181.0Q1002.7 177.6 1001.1 175.9Q999.5 174.1 996.5 174.1L996.5 174.1Q993.3 174.1 991.5 176.2Q989.6 178.2 989.6 181.6L989.6 181.6L989.6 196.3Q989.6 198.1 988.6 199.2ZM1027.4 200.1L1027.4 200.1Q1021.5 200.1 1018.0 195.7Q1014.5 191.4 1014.5 184.0L1014.5 184.0Q1014.5 176.7 1018.0 172.3Q1021.5 168.0 1027.4 168.0L1027.4 168.0Q1030.7 168.0 1033.2 169.5Q1035.7 171.1 1037.0 173.7L1037.0 173.7L1037.2 173.7L1037.2 160.6Q1037.2 158.7 1038.2 157.7Q1039.2 156.7 1040.8 156.7Q1042.5 156.7 1043.5 157.7Q1044.5 158.7 1044.5 160.6L1044.5 160.6L1044.5 196.5Q1044.5 198.2 1043.5 199.2Q1042.5 200.2 1040.9 200.2L1040.9 200.2Q1039.2 200.2 1038.2 199.2Q1037.2 198.2 1037.2 196.5L1037.2 196.5L1037.2 194.1L1037.0 194.1Q1035.9 196.9 1033.4 198.5Q1030.9 200.1 1027.4 200.1ZM1029.6 194.1L1029.6 194.1Q1033.0 194.1 1035.1 191.4Q1037.2 188.7 1037.2 184.1L1037.2 184.1Q1037.2 179.5 1035.1 176.7Q1033.0 174.0 1029.6 174.0L1029.6 174.0Q1026.1 174.0 1024.0 176.7Q1022.0 179.4 1022.0 184.1L1022.0 184.1Q1022.0 188.7 1024.0 191.4Q1026.0 194.1 1029.6 194.1ZM1057.3 163.0Q1056.1 164.2 1054.4 164.2Q1052.7 164.2 1051.5 163.0Q1050.4 161.8 1050.4 160.2L1050.4 160.2Q1050.4 158.5 1051.5 157.4Q1052.7 156.2 1054.4 156.2L1054.4 156.2Q1056.1 156.2 1057.3 157.4Q1058.5 158.5 1058.5 160.2L1058.5 160.2Q1058.5 161.8 1057.3 163.0ZM1057.1 199.1Q1056.1 200.2 1054.4 200.2Q1052.7 200.2 1051.8 199.1Q1050.8 198.1 1050.8 196.3L1050.8 196.3L1050.8 171.7Q1050.8 170.0 1051.8 168.9Q1052.7 167.9 1054.4 167.9Q1056.1 167.9 1057.1 168.9Q1058.1 170.0 1058.1 171.8L1058.1 171.8L1058.1 196.3Q1058.1 198.1 1057.1 199.1ZM1070.5 199.2Q1069.5 200.2 1067.8 200.2Q1066.2 200.2 1065.2 199.2Q1064.2 198.1 1064.2 196.3L1064.2 196.3L1064.2 171.6Q1064.2 169.9 1065.1 168.9Q1066.1 167.9 1067.7 167.9Q1069.3 167.9 1070.3 168.9Q1071.3 169.9 1071.3 171.6L1071.3 171.6L1071.3 173.8L1071.4 173.8Q1074.1 167.9 1081.1 167.9L1081.1 167.9Q1086.2 167.9 1089.0 171.0Q1091.8 174.1 1091.8 179.5L1091.8 179.5L1091.8 196.3Q1091.8 198.1 1090.8 199.2Q1089.9 200.2 1088.2 200.2Q1086.6 200.2 1085.6 199.2Q1084.6 198.1 1084.6 196.3L1084.6 196.3L1084.6 181.0Q1084.6 177.6 1083.0 175.9Q1081.4 174.1 1078.3 174.1L1078.3 174.1Q1075.2 174.1 1073.3 176.2Q1071.5 178.2 1071.5 181.6L1071.5 181.6L1071.5 196.3Q1071.5 198.1 1070.5 199.2ZM1111.1 211.3L1111.1 211.3Q1106.7 211.2 1103.4 209.7Q1100.1 208.2 1098.5 205.6L1098.5 205.6Q1097.9 204.6 1097.9 203.4L1097.9 203.4Q1097.9 202.2 1098.7 201.4Q1099.5 200.6 1100.9 200.6L1100.9 200.6Q1102.3 200.6 1103.6 201.8L1103.6 201.8Q1105.4 203.7 1107.2 204.6Q1109.0 205.4 1111.1 205.5L1111.1 205.5Q1114.8 205.5 1116.9 203.6Q1119.0 201.7 1119.0 198.6L1119.0 198.6L1119.0 193.7L1118.9 193.7Q1117.7 196.2 1115.0 197.7Q1112.4 199.3 1109.2 199.3L1109.2 199.3Q1103.3 199.3 1099.8 195.0Q1096.4 190.8 1096.4 183.7L1096.4 183.7Q1096.4 176.4 1099.8 172.2Q1103.3 168.0 1109.3 168.0L1109.3 168.0Q1112.6 168.0 1115.1 169.5Q1117.6 171.1 1118.9 173.8L1118.9 173.8L1119.1 173.8L1119.1 171.6Q1119.1 169.9 1120.1 168.9Q1121.1 167.9 1122.7 167.9Q1124.3 167.9 1125.3 168.9Q1126.4 169.9 1126.4 171.6L1126.4 171.6L1126.4 198.6Q1126.4 204.5 1122.3 207.9Q1118.2 211.3 1111.1 211.3ZM1111.4 193.6L1111.4 193.6Q1114.9 193.6 1117.0 190.9Q1119.1 188.3 1119.1 183.7L1119.1 183.7Q1119.1 179.2 1117.0 176.5Q1114.9 173.8 1111.4 173.8L1111.4 173.8Q1107.9 173.8 1105.9 176.5Q1103.9 179.2 1103.9 183.7L1103.9 183.7Q1103.9 188.3 1105.9 191.0Q1107.9 193.6 1111.4 193.6ZM1137.4 178.7L1137.4 178.7Q1135.6 178.7 1134.4 177.5Q1133.2 176.3 1133.2 174.5Q1133.2 172.8 1134.4 171.5Q1135.6 170.3 1137.4 170.3L1137.4 170.3Q1139.2 170.3 1140.4 171.5Q1141.6 172.8 1141.6 174.5Q1141.6 176.3 1140.4 177.5Q1139.2 178.7 1137.4 178.7ZM1137.4 199.9L1137.4 199.9Q1135.6 199.9 1134.4 198.7Q1133.2 197.5 1133.2 195.7L1133.2 195.7Q1133.2 193.9 1134.4 192.7Q1135.6 191.5 1137.4 191.5L1137.4 191.5Q1139.2 191.5 1140.4 192.7Q1141.6 193.9 1141.6 195.7L1141.6 195.7Q1141.6 197.5 1140.4 198.7Q1139.2 199.9 1137.4 199.9Z M57.8 282.6L57.8 282.6Q56.1 282.6 55.1 281.6Q54.1 280.5 54.1 278.7L54.1 278.7L54.1 246.2L44.4 246.2Q42.8 246.2 41.9 245.3Q40.9 244.5 40.9 243.0Q40.9 241.5 41.9 240.7Q42.8 239.8 44.4 239.8L44.4 239.8L71.3 239.8Q72.8 239.8 73.8 240.7Q74.7 241.5 74.7 243.0Q74.7 244.5 73.8 245.3Q72.8 246.2 71.3 246.2L71.3 246.2L61.6 246.2L61.6 278.7Q61.6 280.5 60.6 281.6Q59.6 282.6 57.8 282.6ZM84.9 281.6Q83.9 282.7 82.3 282.7Q80.6 282.7 79.6 281.6Q78.6 280.6 78.6 278.8L78.6 278.8L78.6 254.1Q78.6 252.4 79.6 251.4Q80.5 250.4 82.1 250.4L82.1 250.4Q83.7 250.4 84.6 251.4Q85.6 252.4 85.6 254.1L85.6 254.1L85.6 256.5L85.7 256.5Q86.4 253.8 88.2 252.1Q90.0 250.5 92.4 250.5L92.4 250.5Q94.1 250.5 95.0 251.3L95.0 251.3Q96.0 252.1 96.0 253.9L96.0 253.9Q96.0 255.6 94.9 256.5L94.9 256.5Q93.8 257.4 91.7 257.5L91.7 257.5Q85.9 257.5 85.9 263.9L85.9 263.9L85.9 278.8Q85.9 280.6 84.9 281.6ZM108.4 282.6L108.4 282.6Q103.8 282.6 100.9 280.0Q98.0 277.4 98.0 273.2L98.0 273.2Q98.0 269.1 101.1 266.7Q104.1 264.3 109.8 263.9L109.8 263.9L118.0 263.4L118.0 261.2Q118.0 258.8 116.5 257.4Q115.0 256.1 112.2 256.1L112.2 256.1Q110.1 256.1 108.6 256.9Q107.1 257.7 105.7 259.7L105.7 259.7Q104.6 261.2 102.8 261.2L102.8 261.2Q101.4 261.2 100.6 260.4Q99.7 259.6 99.7 258.3L99.7 258.3Q99.7 257.3 100.2 256.3L100.2 256.3Q101.4 253.6 104.7 252.0Q108.1 250.4 112.5 250.4L112.5 250.4Q118.3 250.4 121.8 253.2Q125.3 256.0 125.3 260.7L125.3 260.7L125.3 279.0Q125.3 280.7 124.3 281.7Q123.3 282.7 121.7 282.7L121.7 282.7Q120.2 282.7 119.2 281.8Q118.3 280.9 118.2 279.3L118.2 279.3L118.2 277.1L118.1 277.1Q116.8 279.6 114.1 281.1Q111.4 282.6 108.4 282.6ZM110.6 277.1L110.6 277.1Q113.7 277.1 115.9 275.2Q118.0 273.3 118.0 270.6L118.0 270.6L118.0 268.2L110.8 268.6Q108.2 268.8 106.8 269.9Q105.3 271.1 105.3 272.9L105.3 272.9Q105.3 274.8 106.8 275.9Q108.2 277.1 110.6 277.1ZM142.7 282.6L142.7 282.6Q136.8 282.6 133.3 278.2Q129.8 273.9 129.8 266.5L129.8 266.5Q129.8 259.2 133.3 254.8Q136.8 250.5 142.7 250.5L142.7 250.5Q146.0 250.5 148.5 252.0Q151.1 253.6 152.3 256.2L152.3 256.2L152.5 256.2L152.5 243.1Q152.5 241.2 153.5 240.2Q154.5 239.2 156.1 239.2Q157.8 239.2 158.8 240.2Q159.8 241.2 159.8 243.1L159.8 243.1L159.8 279.0Q159.8 280.7 158.8 281.7Q157.8 282.7 156.2 282.7L156.2 282.7Q154.6 282.7 153.5 281.7Q152.5 280.7 152.5 279.0L152.5 279.0L152.5 276.6L152.4 276.6Q151.2 279.4 148.7 281.0Q146.2 282.6 142.7 282.6ZM144.9 276.6L144.9 276.6Q148.4 276.6 150.4 273.9Q152.5 271.2 152.5 266.6L152.5 266.6Q152.5 262.0 150.4 259.2Q148.4 256.5 144.9 256.5L144.9 256.5Q141.4 256.5 139.3 259.2Q137.3 261.9 137.3 266.6L137.3 266.6Q137.3 271.2 139.3 273.9Q141.4 276.6 144.9 276.6ZM179.7 282.7L179.7 282.7Q172.6 282.7 168.6 278.5Q164.6 274.2 164.6 266.7L164.6 266.7Q164.6 259.2 168.6 254.8Q172.6 250.4 179.3 250.4L179.3 250.4Q185.7 250.4 189.6 254.4Q193.6 258.5 193.6 264.9L193.6 264.9Q193.6 266.5 192.7 267.4Q191.8 268.3 190.2 268.3L190.2 268.3L171.9 268.3L171.9 268.5Q171.9 272.4 174.0 274.8Q176.1 277.1 179.7 277.1L179.7 277.1Q182.1 277.1 183.9 276.1Q185.7 275.2 187.4 272.9L187.4 272.9Q188.5 271.8 189.9 271.8L189.9 271.8Q191.1 271.8 192.0 272.5Q192.8 273.3 192.8 274.6L192.8 274.6Q192.8 275.4 192.3 276.4L192.3 276.4Q190.8 279.4 187.5 281.0Q184.1 282.7 179.7 282.7ZM172.0 263.5L172.0 263.5L186.5 263.5Q186.3 260.1 184.4 258.1Q182.4 256.0 179.3 256.0Q176.3 256.0 174.2 258.1Q172.2 260.2 172.0 263.5ZM223.0 278.4Q218.9 282.7 212.0 282.7Q205.1 282.7 201.1 278.4Q197.0 274.1 197.0 266.6L197.0 266.6Q197.0 259.1 201.1 254.7Q205.2 250.4 212.0 250.4L212.0 250.4Q218.9 250.4 223.0 254.7Q227.1 259.1 227.1 266.6L227.1 266.6Q227.1 274.1 223.0 278.4ZM206.5 274.2Q208.5 276.9 212.0 276.9Q215.5 276.9 217.6 274.2Q219.6 271.5 219.6 266.6L219.6 266.6Q219.6 261.7 217.6 258.9Q215.5 256.2 212.0 256.2L212.0 256.2Q208.5 256.2 206.5 258.9Q204.4 261.7 204.4 266.6L204.4 266.6Q204.4 271.5 206.5 274.2ZM240.1 281.7Q239.1 282.7 237.4 282.7Q235.8 282.7 234.8 281.7Q233.8 280.7 233.8 278.9L233.8 278.9L233.8 256.6L231.8 256.6Q230.6 256.6 229.8 255.9Q229.0 255.2 229.0 253.9L229.0 253.9Q229.0 252.6 229.8 251.9Q230.6 251.1 231.8 251.1L231.8 251.1L233.8 251.1L233.8 248.4Q233.8 239.5 242.3 239.5L242.3 239.5Q245.1 239.5 246.5 240.3Q247.9 241.1 247.9 242.5L247.9 242.5Q247.9 244.2 246.3 244.6L246.3 244.6Q245.7 244.8 244.7 244.8L244.7 244.8Q242.7 244.9 241.8 245.8Q240.9 246.7 240.9 248.7L240.9 248.7L240.9 251.1L244.9 251.1Q246.1 251.1 246.9 251.9Q247.7 252.6 247.7 253.9L247.7 253.9Q247.7 255.2 246.9 255.9Q246.1 256.6 244.9 256.6L244.9 256.6L241.1 256.6L241.1 278.9Q241.1 280.7 240.1 281.7ZM260.3 281.7Q259.3 282.7 257.6 282.7Q256.0 282.7 255.0 281.7Q254.0 280.7 254.0 278.9L254.0 278.9L254.0 256.6L252.1 256.6Q250.8 256.6 250.0 255.9Q249.2 255.2 249.2 253.9L249.2 253.9Q249.2 252.6 250.0 251.9Q250.8 251.1 252.1 251.1L252.1 251.1L254.0 251.1L254.0 248.4Q254.0 239.5 262.5 239.5L262.5 239.5Q265.4 239.5 266.7 240.3Q268.1 241.1 268.1 242.5L268.1 242.5Q268.1 244.2 266.5 244.6L266.5 244.6Q265.9 244.8 264.9 244.8L264.9 244.8Q262.9 244.9 262.0 245.8Q261.2 246.7 261.2 248.7L261.2 248.7L261.2 251.1L265.1 251.1Q266.3 251.1 267.1 251.9Q267.9 252.6 267.9 253.9L267.9 253.9Q267.9 255.2 267.1 255.9Q266.3 256.6 265.1 256.6L265.1 256.6L261.3 256.6L261.3 278.9Q261.3 280.7 260.3 281.7ZM284.2 282.7L284.2 282.7Q279.3 282.7 276.0 281.0Q272.6 279.3 271.5 276.5L271.5 276.5Q271.2 275.7 271.2 275.0L271.2 275.0Q271.2 273.7 272.1 272.9Q272.9 272.1 274.3 272.1L274.3 272.1Q276.1 272.1 277.4 273.9L277.4 273.9Q278.7 275.8 280.3 276.6Q281.9 277.4 284.4 277.4L284.4 277.4Q287.0 277.4 288.5 276.4Q290.1 275.3 290.1 273.6L290.1 273.6Q290.1 272.2 289.1 271.3Q288.1 270.5 285.7 269.9L285.7 269.9L280.7 268.8Q271.6 266.8 271.6 259.9L271.6 259.9Q271.6 255.6 275.1 253.0Q278.5 250.4 284.3 250.4L284.3 250.4Q288.7 250.4 291.9 252.3Q295.1 254.1 295.8 256.9L295.8 256.9Q296.0 257.5 296.0 258.0L296.0 258.0Q296.0 259.1 295.3 259.9Q294.5 260.6 293.2 260.6L293.2 260.6Q291.3 260.6 290.4 259.2L290.4 259.2Q289.3 257.5 287.8 256.6Q286.3 255.7 284.1 255.7L284.1 255.7Q281.7 255.7 280.2 256.8Q278.7 257.8 278.7 259.5L278.7 259.5Q278.7 262.3 283.3 263.3L283.3 263.3L288.2 264.4Q293.2 265.5 295.3 267.4Q297.4 269.4 297.4 272.8L297.4 272.8Q297.4 277.3 293.8 280.0Q290.1 282.7 284.2 282.7Z M320.4 281.7Q319.4 282.7 317.8 282.7Q316.2 282.7 315.2 281.7Q314.2 280.8 314.2 279.0L314.2 279.0L314.2 243.1Q314.2 241.2 315.2 240.2Q316.2 239.2 317.9 239.2Q319.5 239.2 320.5 240.2Q321.5 241.2 321.5 243.1L321.5 243.1L321.5 256.4L321.7 256.4Q323.0 253.6 325.6 252.0Q328.1 250.5 331.4 250.5L331.4 250.5Q337.3 250.5 340.8 254.8Q344.2 259.1 344.2 266.6L344.2 266.6Q344.2 274.0 340.8 278.3Q337.3 282.6 331.4 282.6L331.4 282.6Q328.0 282.6 325.5 281.1Q322.9 279.5 321.5 276.8L321.5 276.8L321.4 276.8L321.4 279.0Q321.4 280.7 320.4 281.7ZM329.2 276.6L329.2 276.6Q332.6 276.6 334.7 273.9Q336.7 271.2 336.7 266.6Q336.7 261.9 334.7 259.2Q332.6 256.5 329.2 256.5L329.2 256.5Q325.8 256.5 323.6 259.3Q321.5 262.0 321.5 266.6L321.5 266.6Q321.5 271.1 323.6 273.8Q325.8 276.6 329.2 276.6ZM362.7 282.7L362.7 282.7Q355.6 282.7 351.6 278.5Q347.6 274.2 347.6 266.7L347.6 266.7Q347.6 259.2 351.6 254.8Q355.6 250.4 362.3 250.4L362.3 250.4Q368.7 250.4 372.6 254.4Q376.6 258.5 376.6 264.9L376.6 264.9Q376.6 266.5 375.7 267.4Q374.8 268.3 373.2 268.3L373.2 268.3L354.9 268.3L354.9 268.5Q354.9 272.4 357.0 274.8Q359.1 277.1 362.6 277.1L362.6 277.1Q365.1 277.1 366.9 276.1Q368.7 275.2 370.4 272.9L370.4 272.9Q371.5 271.8 372.9 271.8L372.9 271.8Q374.1 271.8 375.0 272.5Q375.8 273.3 375.8 274.6L375.8 274.6Q375.8 275.4 375.3 276.4L375.3 276.4Q373.8 279.4 370.4 281.0Q367.1 282.7 362.7 282.7ZM354.9 263.5L354.9 263.5L369.4 263.5Q369.3 260.1 367.4 258.1Q365.4 256.0 362.3 256.0Q359.2 256.0 357.2 258.1Q355.1 260.2 354.9 263.5ZM383.3 274.4L383.3 274.4L383.3 256.6L381.3 256.6Q380.0 256.6 379.2 255.9Q378.4 255.1 378.4 253.8L378.4 253.8Q378.4 252.5 379.2 251.8Q380.0 251.0 381.3 251.0L381.3 251.0L383.3 251.0L383.3 246.9Q383.3 245.1 384.3 244.1Q385.3 243.1 387.0 243.1L387.0 243.1Q388.6 243.1 389.6 244.1Q390.6 245.1 390.6 246.9L390.6 246.9L390.6 251.0L394.0 251.0Q395.3 251.0 396.1 251.8Q396.9 252.5 396.9 253.8L396.9 253.8Q396.9 255.1 396.1 255.9Q395.3 256.6 394.0 256.6L394.0 256.6L390.6 256.6L390.6 272.8Q390.6 274.6 391.3 275.4Q391.9 276.2 393.5 276.4L393.5 276.4L394.1 276.4Q397.0 276.7 397.0 279.1L397.0 279.1Q397.0 280.7 395.6 281.6Q394.3 282.4 391.8 282.4L391.8 282.4L391.5 282.4Q383.3 282.4 383.3 274.4ZM411.2 282.7L411.2 282.7Q409.4 282.7 408.3 281.8Q407.2 280.9 406.7 278.9L406.7 278.9L399.9 255.7Q399.6 254.4 399.6 253.5L399.6 253.5Q399.6 252.2 400.5 251.3Q401.5 250.4 403.1 250.4L403.1 250.4Q405.8 250.4 406.5 253.5L406.5 253.5L411.6 274.9L411.8 274.9L417.2 253.7Q418.0 250.4 421.4 250.4L421.4 250.4Q424.7 250.4 425.5 253.7L425.5 253.7L430.9 274.9L431.1 274.9L436.2 253.5Q436.9 250.4 439.6 250.4L439.6 250.4Q441.1 250.4 442.1 251.3Q443.1 252.1 443.1 253.5L443.1 253.5Q443.1 254.4 442.7 255.7L442.7 255.7L436.0 278.9Q435.4 280.8 434.3 281.8Q433.2 282.7 431.3 282.7L431.3 282.7Q429.4 282.7 428.3 281.8Q427.2 280.9 426.7 278.9L426.7 278.9L421.3 259.4L421.2 259.4L415.8 278.9Q414.9 282.7 411.2 282.7ZM461.0 282.7L461.0 282.7Q453.8 282.7 449.9 278.5Q445.9 274.2 445.9 266.7L445.9 266.7Q445.9 259.2 449.9 254.8Q453.8 250.4 460.6 250.4L460.6 250.4Q466.9 250.4 470.9 254.4Q474.9 258.5 474.9 264.9L474.9 264.9Q474.9 266.5 474.0 267.4Q473.1 268.3 471.5 268.3L471.5 268.3L453.1 268.3L453.1 268.5Q453.1 272.4 455.3 274.8Q457.4 277.1 460.9 277.1L460.9 277.1Q463.4 277.1 465.1 276.1Q466.9 275.2 468.7 272.9L468.7 272.9Q469.7 271.8 471.1 271.8L471.1 271.8Q472.4 271.8 473.2 272.5Q474.1 273.3 474.1 274.6L474.1 274.6Q474.1 275.4 473.6 276.4L473.6 276.4Q472.0 279.4 468.7 281.0Q465.4 282.7 461.0 282.7ZM453.2 263.5L453.2 263.5L467.7 263.5Q467.6 260.1 465.6 258.1Q463.7 256.0 460.6 256.0Q457.5 256.0 455.5 258.1Q453.4 260.2 453.2 263.5ZM493.3 282.7L493.3 282.7Q486.2 282.7 482.2 278.5Q478.3 274.2 478.3 266.7L478.3 266.7Q478.3 259.2 482.2 254.8Q486.2 250.4 492.9 250.4L492.9 250.4Q499.3 250.4 503.3 254.4Q507.2 258.5 507.2 264.9L507.2 264.9Q507.2 266.5 506.3 267.4Q505.4 268.3 503.8 268.3L503.8 268.3L485.5 268.3L485.5 268.5Q485.5 272.4 487.6 274.8Q489.7 277.1 493.3 277.1L493.3 277.1Q495.7 277.1 497.5 276.1Q499.3 275.2 501.0 272.9L501.0 272.9Q502.1 271.8 503.5 271.8L503.5 271.8Q504.8 271.8 505.6 272.5Q506.4 273.3 506.4 274.6L506.4 274.6Q506.4 275.4 505.9 276.4L505.9 276.4Q504.4 279.4 501.1 281.0Q497.8 282.7 493.3 282.7ZM485.6 263.5L485.6 263.5L500.1 263.5Q500.0 260.1 498.0 258.1Q496.0 256.0 493.0 256.0Q489.9 256.0 487.8 258.1Q485.8 260.2 485.6 263.5ZM518.2 281.7Q517.2 282.7 515.5 282.7Q513.9 282.7 512.9 281.7Q511.9 280.6 511.9 278.8L511.9 278.8L511.9 254.1Q511.9 252.4 512.9 251.4Q513.8 250.4 515.4 250.4Q517.0 250.4 518.0 251.4Q519.0 252.4 519.0 254.1L519.0 254.1L519.0 256.3L519.2 256.3Q521.8 250.4 528.8 250.4L528.8 250.4Q533.9 250.4 536.7 253.5Q539.6 256.6 539.6 262.0L539.6 262.0L539.6 278.8Q539.6 280.6 538.6 281.7Q537.6 282.7 535.9 282.7Q534.3 282.7 533.3 281.7Q532.3 280.6 532.3 278.8L532.3 278.8L532.3 263.5Q532.3 260.1 530.7 258.4Q529.1 256.6 526.1 256.6L526.1 256.6Q522.9 256.6 521.1 258.7Q519.2 260.7 519.2 264.1L519.2 264.1L519.2 278.8Q519.2 280.6 518.2 281.7Z M573.0 282.8L573.0 282.8Q566.9 282.8 562.7 280.5Q558.6 278.2 557.3 274.5L557.3 274.5Q556.9 273.4 556.9 272.3L556.9 272.3Q556.9 270.7 557.8 269.8Q558.8 268.8 560.3 268.8L560.3 268.8Q561.5 268.8 562.3 269.4Q563.2 269.9 563.8 271.2L563.8 271.2Q564.8 273.9 567.3 275.2Q569.7 276.5 573.3 276.5L573.3 276.5Q577.1 276.5 579.5 274.8Q581.9 273.1 581.9 270.5L581.9 270.5Q581.9 268.2 580.2 266.7Q578.4 265.3 574.3 264.4L574.3 264.4L569.8 263.5Q557.4 260.9 557.4 251.6L557.4 251.6Q557.4 246.0 561.7 242.6Q566.1 239.1 573.1 239.1L573.1 239.1Q578.7 239.1 582.7 241.5Q586.8 243.9 588.1 248.0L588.1 248.0Q588.3 248.7 588.3 249.8L588.3 249.8Q588.3 251.1 587.4 252.0Q586.5 252.9 585.0 252.9L585.0 252.9Q582.6 252.9 581.4 250.5L581.4 250.5Q579.4 245.4 573.0 245.4L573.0 245.4Q569.5 245.4 567.2 246.9Q565.0 248.5 565.0 251.1L565.0 251.1Q565.0 253.3 566.7 254.7Q568.5 256.2 572.4 257.0L572.4 257.0L576.9 257.9Q583.5 259.3 586.5 262.1Q589.6 264.9 589.6 269.6L589.6 269.6Q589.6 275.7 585.1 279.2Q580.6 282.8 573.0 282.8ZM598.9 293.6L598.9 293.6Q596.5 293.6 595.2 292.7Q593.9 291.8 593.9 290.2L593.9 290.2Q593.9 289.1 594.6 288.4Q595.4 287.7 596.6 287.7L596.6 287.7Q596.9 287.7 597.4 287.7Q597.8 287.7 598.2 287.7L598.2 287.7Q601.2 287.7 602.6 284.2L602.6 284.2L603.1 282.6L593.0 255.9Q592.6 254.7 592.6 253.8L592.6 253.8Q592.6 252.3 593.6 251.4Q594.7 250.4 596.3 250.4L596.3 250.4Q597.7 250.4 598.5 251.1Q599.3 251.8 599.8 253.3L599.8 253.3L607.2 275.9L607.3 275.9L614.7 253.3Q615.2 251.8 616.0 251.1Q616.9 250.4 618.3 250.4L618.3 250.4Q619.8 250.4 620.8 251.3Q621.8 252.3 621.8 253.7L621.8 253.7Q621.8 254.7 621.4 255.8L621.4 255.8L611.2 283.2Q609.1 289.0 606.3 291.3Q603.6 293.6 598.9 293.6ZM629.4 282.7L629.4 282.7Q627.8 282.7 626.8 281.7Q625.8 280.6 625.8 278.8L625.8 278.8L625.8 254.1Q625.8 252.4 626.7 251.4Q627.7 250.4 629.3 250.4Q630.9 250.4 631.8 251.4Q632.8 252.4 632.8 254.1L632.8 254.1L632.8 256.4L632.9 256.4Q634.0 253.7 636.3 252.0Q638.7 250.4 641.8 250.4L641.8 250.4Q645.1 250.4 647.3 252.1Q649.6 253.7 650.5 256.7L650.5 256.7L650.6 256.7Q651.7 253.8 654.3 252.1Q656.9 250.4 660.3 250.4L660.3 250.4Q664.9 250.4 667.7 253.3Q670.4 256.1 670.4 260.8L670.4 260.8L670.4 278.8Q670.4 280.6 669.4 281.6Q668.4 282.7 666.8 282.7L666.8 282.7Q665.1 282.7 664.1 281.6Q663.1 280.6 663.1 278.8L663.1 278.8L663.1 262.6Q663.1 259.7 661.7 258.1Q660.2 256.6 657.6 256.6L657.6 256.6Q654.9 256.6 653.3 258.3Q651.7 260.1 651.7 262.9L651.7 262.9L651.7 278.8Q651.7 280.6 650.7 281.7Q649.8 282.7 648.1 282.7L648.1 282.7Q646.4 282.7 645.5 281.7Q644.6 280.6 644.6 278.8L644.6 278.8L644.6 262.2Q644.6 259.6 643.1 258.1Q641.6 256.6 639.1 256.6L639.1 256.6Q636.4 256.6 634.8 258.4Q633.1 260.3 633.1 263.1L633.1 263.1L633.1 278.8Q633.1 280.6 632.1 281.6Q631.1 282.7 629.4 282.7ZM682.6 281.7Q681.6 282.7 680.0 282.7Q678.4 282.7 677.4 281.7Q676.5 280.8 676.5 279.0L676.5 279.0L676.5 243.1Q676.5 241.2 677.5 240.2Q678.5 239.2 680.1 239.2Q681.8 239.2 682.8 240.2Q683.8 241.2 683.8 243.1L683.8 243.1L683.8 256.4L683.9 256.4Q685.3 253.6 687.8 252.0Q690.4 250.5 693.7 250.5L693.7 250.5Q699.6 250.5 703.0 254.8Q706.5 259.1 706.5 266.6L706.5 266.6Q706.5 274.0 703.0 278.3Q699.6 282.6 693.6 282.6L693.6 282.6Q690.3 282.6 687.7 281.1Q685.2 279.5 683.8 276.8L683.8 276.8L683.6 276.8L683.6 279.0Q683.6 280.7 682.6 281.7ZM691.4 276.6L691.4 276.6Q694.9 276.6 697.0 273.9Q699.0 271.2 699.0 266.6Q699.0 261.9 697.0 259.2Q694.9 256.5 691.4 256.5L691.4 256.5Q688.0 256.5 685.9 259.3Q683.7 262.0 683.7 266.6L683.7 266.6Q683.7 271.1 685.9 273.8Q688.0 276.6 691.4 276.6ZM735.9 278.4Q731.8 282.7 724.9 282.7Q718.0 282.7 713.9 278.4Q709.9 274.1 709.9 266.6L709.9 266.6Q709.9 259.1 714.0 254.7Q718.1 250.4 724.9 250.4L724.9 250.4Q731.8 250.4 735.8 254.7Q739.9 259.1 739.9 266.6L739.9 266.6Q739.9 274.1 735.9 278.4ZM719.3 274.2Q721.4 276.9 724.9 276.9Q728.4 276.9 730.5 274.2Q732.5 271.5 732.5 266.6L732.5 266.6Q732.5 261.7 730.5 258.9Q728.4 256.2 724.9 256.2L724.9 256.2Q721.4 256.2 719.4 258.9Q717.3 261.7 717.3 266.6L717.3 266.6Q717.3 271.5 719.3 274.2ZM751.1 281.7Q750.1 282.7 748.5 282.7Q746.8 282.7 745.8 281.7Q744.8 280.6 744.8 278.8L744.8 278.8L744.8 243.1Q744.8 241.2 745.8 240.2Q746.8 239.2 748.5 239.2Q750.1 239.2 751.1 240.2Q752.1 241.2 752.1 243.1L752.1 243.1L752.1 278.8Q752.1 280.6 751.1 281.7ZM770.3 282.7L770.3 282.7Q765.5 282.7 762.1 281.0Q758.8 279.3 757.7 276.5L757.7 276.5Q757.4 275.7 757.4 275.0L757.4 275.0Q757.4 273.7 758.2 272.9Q759.1 272.1 760.4 272.1L760.4 272.1Q762.2 272.1 763.6 273.9L763.6 273.9Q764.8 275.8 766.4 276.6Q768.0 277.4 770.6 277.4L770.6 277.4Q773.2 277.4 774.7 276.4Q776.2 275.3 776.2 273.6L776.2 273.6Q776.2 272.2 775.2 271.3Q774.2 270.5 771.9 269.9L771.9 269.9L766.8 268.8Q757.8 266.8 757.8 259.9L757.8 259.9Q757.8 255.6 761.2 253.0Q764.7 250.4 770.4 250.4L770.4 250.4Q774.8 250.4 778.0 252.3Q781.3 254.1 782.0 256.9L782.0 256.9Q782.1 257.5 782.1 258.0L782.1 258.0Q782.1 259.1 781.4 259.9Q780.7 260.6 779.3 260.6L779.3 260.6Q777.5 260.6 776.6 259.2L776.6 259.2Q775.4 257.5 773.9 256.6Q772.5 255.7 770.3 255.7L770.3 255.7Q767.9 255.7 766.4 256.8Q764.9 257.8 764.9 259.5L764.9 259.5Q764.9 262.3 769.4 263.3L769.4 263.3L774.4 264.4Q779.3 265.5 781.4 267.4Q783.6 269.4 783.6 272.8L783.6 272.8Q783.6 277.3 779.9 280.0Q776.3 282.7 770.3 282.7Z M809.3 282.6L809.3 282.6Q804.7 282.6 801.8 280.0Q798.9 277.4 798.9 273.2L798.9 273.2Q798.9 269.1 802.0 266.7Q805.0 264.3 810.7 263.9L810.7 263.9L818.9 263.4L818.9 261.2Q818.9 258.8 817.4 257.4Q815.9 256.1 813.1 256.1L813.1 256.1Q811.0 256.1 809.5 256.9Q808.0 257.7 806.6 259.7L806.6 259.7Q805.5 261.2 803.7 261.2L803.7 261.2Q802.3 261.2 801.5 260.4Q800.6 259.6 800.6 258.3L800.6 258.3Q800.6 257.3 801.1 256.3L801.1 256.3Q802.3 253.6 805.6 252.0Q809.0 250.4 813.4 250.4L813.4 250.4Q819.2 250.4 822.7 253.2Q826.2 256.0 826.2 260.7L826.2 260.7L826.2 279.0Q826.2 280.7 825.2 281.7Q824.2 282.7 822.6 282.7L822.6 282.7Q821.1 282.7 820.1 281.8Q819.2 280.9 819.1 279.3L819.1 279.3L819.1 277.1L819.0 277.1Q817.7 279.6 815.0 281.1Q812.3 282.6 809.3 282.6ZM811.5 277.1L811.5 277.1Q814.6 277.1 816.8 275.2Q818.9 273.3 818.9 270.6L818.9 270.6L818.9 268.2L811.7 268.6Q809.1 268.8 807.7 269.9Q806.2 271.1 806.2 272.9L806.2 272.9Q806.2 274.8 807.7 275.9Q809.1 277.1 811.5 277.1ZM838.3 281.7Q837.3 282.7 835.6 282.7Q834.0 282.7 833.0 281.7Q832.0 280.6 832.0 278.8L832.0 278.8L832.0 254.1Q832.0 252.4 832.9 251.4Q833.9 250.4 835.5 250.4Q837.1 250.4 838.1 251.4Q839.1 252.4 839.1 254.1L839.1 254.1L839.1 256.3L839.2 256.3Q841.9 250.4 848.9 250.4L848.9 250.4Q854.0 250.4 856.8 253.5Q859.7 256.6 859.7 262.0L859.7 262.0L859.7 278.8Q859.7 280.6 858.7 281.7Q857.7 282.7 856.0 282.7Q854.4 282.7 853.4 281.7Q852.4 280.6 852.4 278.8L852.4 278.8L852.4 263.5Q852.4 260.1 850.8 258.4Q849.2 256.6 846.2 256.6L846.2 256.6Q843.0 256.6 841.2 258.7Q839.3 260.7 839.3 264.1L839.3 264.1L839.3 278.8Q839.3 280.6 838.3 281.7ZM877.1 282.6L877.1 282.6Q871.2 282.6 867.7 278.2Q864.2 273.9 864.2 266.5L864.2 266.5Q864.2 259.2 867.7 254.8Q871.2 250.5 877.1 250.5L877.1 250.5Q880.4 250.5 882.9 252.0Q885.4 253.6 886.7 256.2L886.7 256.2L886.9 256.2L886.9 243.1Q886.9 241.2 887.9 240.2Q888.9 239.2 890.5 239.2Q892.2 239.2 893.2 240.2Q894.2 241.2 894.2 243.1L894.2 243.1L894.2 279.0Q894.2 280.7 893.2 281.7Q892.2 282.7 890.6 282.7L890.6 282.7Q888.9 282.7 887.9 281.7Q886.9 280.7 886.9 279.0L886.9 279.0L886.9 276.6L886.7 276.6Q885.6 279.4 883.1 281.0Q880.6 282.6 877.1 282.6ZM879.3 276.6L879.3 276.6Q882.8 276.6 884.8 273.9Q886.9 271.2 886.9 266.6L886.9 266.6Q886.9 262.0 884.8 259.2Q882.8 256.5 879.3 256.5L879.3 256.5Q875.8 256.5 873.7 259.2Q871.7 261.9 871.7 266.6L871.7 266.6Q871.7 271.2 873.7 273.9Q875.8 276.6 879.3 276.6Z M68.1 364.6L47.5 364.6Q45.7 364.6 44.7 363.5Q43.7 362.5 43.7 360.7L43.7 360.7L43.7 326.2Q43.7 324.4 44.7 323.3Q45.7 322.3 47.5 322.3L47.5 322.3L68.1 322.3Q69.7 322.3 70.6 323.2Q71.6 324.0 71.6 325.5Q71.6 327.0 70.6 327.8Q69.7 328.7 68.1 328.7L68.1 328.7L51.3 328.7L51.3 340.1L67.2 340.1Q68.7 340.1 69.6 340.9Q70.5 341.7 70.5 343.1Q70.5 344.5 69.6 345.3Q68.7 346.1 67.2 346.1L67.2 346.1L51.3 346.1L51.3 358.2L68.1 358.2Q69.7 358.2 70.6 359.1Q71.6 359.9 71.6 361.4Q71.6 362.8 70.6 363.7Q69.7 364.6 68.1 364.6L68.1 364.6ZM80.5 365.2L80.5 365.2Q78.9 365.2 77.9 364.2Q76.9 363.1 76.9 361.3L76.9 361.3L76.9 336.6Q76.9 334.9 77.9 333.9Q78.8 332.9 80.4 332.9Q82.0 332.9 82.9 333.9Q83.9 334.9 83.9 336.6L83.9 336.6L83.9 338.9L84.1 338.9Q85.1 336.2 87.4 334.5Q89.8 332.9 92.9 332.9L92.9 332.9Q96.2 332.9 98.5 334.6Q100.7 336.2 101.6 339.2L101.6 339.2L101.8 339.2Q102.9 336.3 105.5 334.6Q108.1 332.9 111.4 332.9L111.4 332.9Q116.0 332.9 118.8 335.8Q121.6 338.6 121.6 343.3L121.6 343.3L121.6 361.3Q121.6 363.1 120.6 364.1Q119.6 365.2 117.9 365.2L117.9 365.2Q116.3 365.2 115.3 364.1Q114.3 363.1 114.3 361.3L114.3 361.3L114.3 345.1Q114.3 342.2 112.8 340.6Q111.4 339.1 108.7 339.1L108.7 339.1Q106.1 339.1 104.4 340.8Q102.8 342.6 102.8 345.4L102.8 345.4L102.8 361.3Q102.8 363.1 101.8 364.2Q100.9 365.2 99.2 365.2L99.2 365.2Q97.6 365.2 96.6 364.2Q95.7 363.1 95.7 361.3L95.7 361.3L95.7 344.7Q95.7 342.1 94.2 340.6Q92.7 339.1 90.2 339.1L90.2 339.1Q87.5 339.1 85.9 340.9Q84.2 342.8 84.2 345.6L84.2 345.6L84.2 361.3Q84.2 363.1 83.2 364.1Q82.2 365.2 80.5 365.2ZM133.8 364.2Q132.8 365.2 131.1 365.2Q129.5 365.2 128.6 364.2Q127.6 363.3 127.6 361.5L127.6 361.5L127.6 325.6Q127.6 323.7 128.6 322.7Q129.6 321.7 131.3 321.7Q132.9 321.7 133.9 322.7Q134.9 323.7 134.9 325.6L134.9 325.6L134.9 338.9L135.1 338.9Q136.4 336.1 139.0 334.5Q141.5 333.0 144.8 333.0L144.8 333.0Q150.7 333.0 154.1 337.3Q157.6 341.6 157.6 349.1L157.6 349.1Q157.6 356.5 154.1 360.8Q150.7 365.1 144.8 365.1L144.8 365.1Q141.4 365.1 138.8 363.6Q136.3 362.0 134.9 359.3L134.9 359.3L134.7 359.3L134.7 361.5Q134.7 363.2 133.8 364.2ZM142.5 359.1L142.5 359.1Q146.0 359.1 148.1 356.4Q150.1 353.7 150.1 349.1Q150.1 344.4 148.1 341.7Q146.0 339.0 142.5 339.0L142.5 339.0Q139.1 339.0 137.0 341.8Q134.9 344.5 134.9 349.1L134.9 349.1Q134.9 353.6 137.0 356.3Q139.1 359.1 142.5 359.1ZM176.1 365.2L176.1 365.2Q169.0 365.2 165.0 361.0Q161.0 356.7 161.0 349.2L161.0 349.2Q161.0 341.7 165.0 337.3Q169.0 332.9 175.7 332.9L175.7 332.9Q182.0 332.9 186.0 336.9Q190.0 341.0 190.0 347.4L190.0 347.4Q190.0 349.0 189.1 349.9Q188.2 350.8 186.6 350.8L186.6 350.8L168.3 350.8L168.3 351.0Q168.3 354.9 170.4 357.3Q172.5 359.6 176.0 359.6L176.0 359.6Q178.5 359.6 180.3 358.6Q182.0 357.7 183.8 355.4L183.8 355.4Q184.8 354.3 186.3 354.3L186.3 354.3Q187.5 354.3 188.3 355.0Q189.2 355.8 189.2 357.1L189.2 357.1Q189.2 357.9 188.7 358.9L188.7 358.9Q187.1 361.9 183.8 363.5Q180.5 365.2 176.1 365.2ZM168.3 346.0L168.3 346.0L182.8 346.0Q182.7 342.6 180.7 340.6Q178.8 338.5 175.7 338.5Q172.6 338.5 170.6 340.6Q168.5 342.7 168.3 346.0ZM206.3 365.1L206.3 365.1Q200.4 365.1 196.9 360.7Q193.4 356.4 193.4 349.0L193.4 349.0Q193.4 341.7 196.9 337.3Q200.4 333.0 206.3 333.0L206.3 333.0Q209.5 333.0 212.1 334.5Q214.6 336.1 215.9 338.7L215.9 338.7L216.0 338.7L216.0 325.6Q216.0 323.7 217.0 322.7Q218.0 321.7 219.7 321.7Q221.3 321.7 222.3 322.7Q223.3 323.7 223.3 325.6L223.3 325.6L223.3 361.5Q223.3 363.2 222.3 364.2Q221.3 365.2 219.7 365.2L219.7 365.2Q218.1 365.2 217.1 364.2Q216.0 363.2 216.0 361.5L216.0 361.5L216.0 359.1L215.9 359.1Q214.7 361.9 212.3 363.5Q209.8 365.1 206.3 365.1ZM208.5 359.1L208.5 359.1Q211.9 359.1 214.0 356.4Q216.1 353.7 216.1 349.1L216.1 349.1Q216.1 344.5 214.0 341.7Q211.9 339.0 208.5 339.0L208.5 339.0Q204.9 339.0 202.9 341.7Q200.8 344.4 200.8 349.1L200.8 349.1Q200.8 353.7 202.9 356.4Q204.9 359.1 208.5 359.1ZM241.1 365.1L241.1 365.1Q235.2 365.1 231.7 360.7Q228.2 356.4 228.2 349.0L228.2 349.0Q228.2 341.7 231.7 337.3Q235.2 333.0 241.1 333.0L241.1 333.0Q244.3 333.0 246.9 334.5Q249.4 336.1 250.7 338.7L250.7 338.7L250.8 338.7L250.8 325.6Q250.8 323.7 251.8 322.7Q252.8 321.7 254.5 321.7Q256.1 321.7 257.1 322.7Q258.1 323.7 258.1 325.6L258.1 325.6L258.1 361.5Q258.1 363.2 257.1 364.2Q256.2 365.2 254.5 365.2L254.5 365.2Q252.9 365.2 251.9 364.2Q250.8 363.2 250.8 361.5L250.8 361.5L250.8 359.1L250.7 359.1Q249.5 361.9 247.1 363.5Q244.6 365.1 241.1 365.1ZM243.3 359.1L243.3 359.1Q246.7 359.1 248.8 356.4Q250.9 353.7 250.9 349.1L250.9 349.1Q250.9 344.5 248.8 341.7Q246.7 339.0 243.3 339.0L243.3 339.0Q239.7 339.0 237.7 341.7Q235.6 344.4 235.6 349.1L235.6 349.1Q235.6 353.7 237.7 356.4Q239.7 359.1 243.3 359.1ZM271.0 328.0Q269.8 329.2 268.1 329.2Q266.4 329.2 265.2 328.0Q264.0 326.8 264.0 325.2L264.0 325.2Q264.0 323.5 265.2 322.4Q266.4 321.2 268.1 321.2L268.1 321.2Q269.8 321.2 271.0 322.4Q272.1 323.5 272.1 325.2L272.1 325.2Q272.1 326.8 271.0 328.0ZM270.7 364.1Q269.7 365.2 268.1 365.2Q266.4 365.2 265.4 364.1Q264.4 363.1 264.4 361.3L264.4 361.3L264.4 336.7Q264.4 335.0 265.4 333.9Q266.4 332.9 268.1 332.9Q269.7 332.9 270.7 333.9Q271.7 335.0 271.7 336.8L271.7 336.8L271.7 361.3Q271.7 363.1 270.7 364.1ZM284.1 364.2Q283.1 365.2 281.5 365.2Q279.9 365.2 278.9 364.2Q277.9 363.1 277.9 361.3L277.9 361.3L277.9 336.6Q277.9 334.9 278.8 333.9Q279.7 332.9 281.3 332.9Q283.0 332.9 284.0 333.9Q285.0 334.9 285.0 336.6L285.0 336.6L285.0 338.8L285.1 338.8Q287.7 332.9 294.8 332.9L294.8 332.9Q299.9 332.9 302.7 336.0Q305.5 339.1 305.5 344.5L305.5 344.5L305.5 361.3Q305.5 363.1 304.5 364.2Q303.5 365.2 301.9 365.2Q300.2 365.2 299.2 364.2Q298.2 363.1 298.2 361.3L298.2 361.3L298.2 346.0Q298.2 342.6 296.7 340.9Q295.1 339.1 292.0 339.1L292.0 339.1Q288.9 339.1 287.0 341.2Q285.2 343.2 285.2 346.6L285.2 346.6L285.2 361.3Q285.2 363.1 284.1 364.2ZM324.7 376.3L324.7 376.3Q320.4 376.2 317.1 374.7Q313.8 373.2 312.1 370.6L312.1 370.6Q311.5 369.6 311.5 368.4L311.5 368.4Q311.5 367.2 312.4 366.4Q313.2 365.6 314.6 365.6L314.6 365.6Q316.0 365.6 317.2 366.8L317.2 366.8Q319.1 368.7 320.9 369.6Q322.6 370.4 324.8 370.5L324.8 370.5Q328.5 370.5 330.6 368.6Q332.7 366.7 332.7 363.6L332.7 363.6L332.7 358.7L332.6 358.7Q331.3 361.2 328.7 362.7Q326.1 364.3 322.8 364.3L322.8 364.3Q317.0 364.3 313.5 360.0Q310.1 355.8 310.1 348.7L310.1 348.7Q310.1 341.4 313.5 337.2Q317.0 333.0 323.0 333.0L323.0 333.0Q326.2 333.0 328.7 334.5Q331.2 336.1 332.6 338.8L332.6 338.8L332.7 338.8L332.7 336.6Q332.7 334.9 333.8 333.9Q334.8 332.9 336.4 332.9Q338.0 332.9 339.0 333.9Q340.0 334.9 340.0 336.6L340.0 336.6L340.0 363.6Q340.0 369.5 336.0 372.9Q331.9 376.3 324.7 376.3ZM325.1 358.6L325.1 358.6Q328.6 358.6 330.7 355.9Q332.8 353.3 332.8 348.7L332.8 348.7Q332.8 344.2 330.7 341.5Q328.5 338.8 325.1 338.8L325.1 338.8Q321.6 338.8 319.6 341.5Q317.5 344.2 317.5 348.7L317.5 348.7Q317.5 353.3 319.6 356.0Q321.6 358.6 325.1 358.6ZM358.0 365.2L358.0 365.2Q353.1 365.2 349.8 363.5Q346.4 361.8 345.3 359.0L345.3 359.0Q345.0 358.2 345.0 357.5L345.0 357.5Q345.0 356.2 345.9 355.4Q346.7 354.6 348.1 354.6L348.1 354.6Q349.9 354.6 351.2 356.4L351.2 356.4Q352.5 358.3 354.1 359.1Q355.7 359.9 358.2 359.9L358.2 359.9Q360.8 359.9 362.3 358.9Q363.9 357.8 363.9 356.1L363.9 356.1Q363.9 354.7 362.9 353.8Q361.9 353.0 359.5 352.4L359.5 352.4L354.5 351.3Q345.4 349.3 345.4 342.4L345.4 342.4Q345.4 338.1 348.9 335.5Q352.3 332.9 358.1 332.9L358.1 332.9Q362.5 332.9 365.7 334.8Q368.9 336.6 369.6 339.4L369.6 339.4Q369.8 340.0 369.8 340.5L369.8 340.5Q369.8 341.6 369.1 342.4Q368.3 343.1 367.0 343.1L367.0 343.1Q365.1 343.1 364.2 341.7L364.2 341.7Q363.1 340.0 361.6 339.1Q360.1 338.2 357.9 338.2L357.9 338.2Q355.5 338.2 354.0 339.3Q352.5 340.3 352.5 342.0L352.5 342.0Q352.5 344.8 357.1 345.8L357.1 345.8L362.0 346.9Q367.0 348.0 369.1 349.9Q371.2 351.9 371.2 355.3L371.2 355.3Q371.2 359.8 367.6 362.5Q363.9 365.2 358.0 365.2Z "/><defs><clipPath id="satori_bc-id-0-1"><rect x="0" y="441" width="1200" height="189"/></clipPath></defs><mask id="satori_om-id-0-1"><rect x="0" y="442" width="1200" height="188" fill="#fff"/><path width="1200" height="189" fill="none" stroke="#000" stroke-width="2" d="M0,441 A0,0 0 0 1 0,441 h1200 A0,0 0 0 1 1200,441"/></mask><path width="1200" height="189" clip-path="url(#satori_bc-id-0-1)" fill="none" stroke="#dbdbdb" stroke-width="2" d="M0,441 A0,0 0 0 1 0,441 h1200 A0,0 0 0 1 1200,441"/><mask id="satori_om-id-0-1-0"><rect x="40" y="482" width="389" height="108" fill="#fff"/></mask><clipPath id="satori_cp-id-0-1-0-0"><rect x="40" y="504" width="64" height="64"/></clipPath><mask id="satori_om-id-0-1-0-0"><rect x="40" y="504" width="64" height="64" fill="#fff"/></mask><image x="40" y="504" width="64" height="64" href="data:image/svg+xml;utf8,%3Csvg  xmlns=%22http://www.w3.org/2000/svg%22 width=%2264%22 height=%2264%22 viewBox=%220 0 128 128%22%3E%3Cpath fill=%22%23224d67%22 d=%22M22.5 14.8c2.9 1.3 99 44 99 44c2.7 1.2 2.9 3.1 2 12.4c-1 10.5-1.9 37.8-40.2 42.9c-24.6 3.2-55.9-4.3-70.9-27.2C-6 58.8 11 23.4 14.8 17.7c2.4-3.5 4.8-4.2 7.7-2.9%22%3E%3C/path%3E%3Cpath fill=%22%23f0f4c3%22 d=%22M121.5 58.8c-.3-.2-92-40.8-98.9-43.9C9.6 31.5-3.8 76 27.9 96.2c33.6 21.5 78.7-10.2 93.6-37.4%22%3E%3C/path%3E%3Cpath fill=%22%23f0f4c3%22 d=%22M117.7 57c-.3-.2-86.7-38.4-93.2-41.3c-12.2 15.5-23.9 59.1 5.7 78c31.4 20.2 73.6-11.2 87.5-36.7%22%3E%3C/path%3E%3Cpath fill=%22%23cb2a42%22 d=%22M56.2 37.6L19.5 48.2c-2.5.8-4.4 2.8-5 5.3c-1.9 8.5.8 23.3 8.9 29.8c3.5 2.7 8.6 1.8 10.8-2.1L58.5 41c1.3-1.7.5-4.2-2.3-3.4m14.3 2.9s14.6 30.1 16 33s6.3 4.7 9.9 2.8c10.7-5.6 15.5-12.4 19.2-20.2c-8.9-3.9-42.4-18.8-42.4-18.8c-2.4-1.1-4 .6-2.7 3.2m-8.6 1.9C60.3 45.1 39.5 81 37.6 84.1c-1.9 3.2-.7 7.5 2.7 9.2c12.3 6.5 30.9.4 39.6-7c2.2-1.9 4.5-5.1 3.2-8.2S68.9 44.6 67.8 42.3c-1.2-2.7-4.1-2.8-5.9.1%22%3E%3C/path%3E%3Cpath fill=%22%23f0f4c3%22 d=%22M52.2 42.2c-1.4.4-10.1 3-11.1 3.4c-1.4.5-2.2 1.7-1.9 2.5c.3.9 1.7 1.1 3.1.6c.8-.3 7.1-3.9 9.5-5.2c-3.1 2.4-10.2 9.4-11.1 10.3c-1.4 1.5-1.7 3.4-.8 4.3c1 .9 2.9.5 4.3-1c1.2-1.3 8.5-12.8 9.1-13.9s.4-1.4-1.1-1m10.1 16.4c0-2.2 1.4-10.3 1.8-12.3c.4-1.6 1.5-1.8 1.8.5s1.7 9.7 1.7 11.8s-1.2 3.3-2.7 3.3c-1.4 0-2.6-1.1-2.6-3.3M79.9 49c-1.2-1.8-3.3-4.9-4.1-6.1c-.7-1.2.1-2.1 1.8-.9s4 2.9 5.4 4c1.6 1.3 1.9 3 .8 4s-2.7.8-3.9-1%22%3E%3C/path%3E%3Cellipse cx=%2287.3%22 cy=%22103.12%22 fill=%22%23cb2a42%22 rx=%223.4%22 ry=%222.3%22 transform=%22rotate(-27.098 87.298 103.126)%22%3E%3C/ellipse%3E%3Cellipse cx=%2298.89%22 cy=%22103.82%22 fill=%22%23cb2a42%22 rx=%223.4%22 ry=%222.3%22 transform=%22rotate(-30.642 98.887 103.818)%22%3E%3C/ellipse%3E%3Cellipse cx=%22102.02%22 cy=%2293.8%22 fill=%22%23cb2a42%22 rx=%223.4%22 ry=%222.3%22 transform=%22rotate(-37.16 102.017 93.797)%22%3E%3C/ellipse%3E%3Cpath fill=%22%23cb2a42%22 d=%22M57.6 30.3c-8.3-3.7-24.4-10.7-29.6-13c-3.6 2.2-9.7 11.4-11.2 21.2c-.6 3.6 1.7 5.9 5.3 4.9c0 0 33.7-9.3 35.3-9.7c1.6-.5 2-2.6.2-3.4%22%3E%3C/path%3E%3C/svg%3E" preserveAspectRatio="none" clip-path="url(#satori_cp-id-0-1-0-0)" mask="url(#satori_om-id-0-1-0-0)"/><mask id="satori_om-id-0-1-0-0-0"><rect x="40" y="504" width="0" height="64" fill="#fff"/></mask><mask id="satori_om-id-0-1-0-0-1"><rect x="40" y="504" width="0" height="64" fill="#fff"/></mask><mask id="satori_om-id-0-1-0-0-2"><rect x="40" y="504" width="0" height="64" fill="#fff"/></mask><mask id="satori_om-id-0-1-0-0-3"><rect x="40" y="504" width="0" height="64" fill="#fff"/></mask><mask id="satori_om-id-0-1-0-0-4"><rect x="40" y="504" width="0" height="64" fill="#fff"/></mask><mask id="satori_om-id-0-1-0-0-5"><rect x="40" y="504" width="0" height="64" fill="#fff"/></mask><mask id="satori_om-id-0-1-0-0-6"><rect x="40" y="504" width="0" height="64" fill="#fff"/></mask><mask id="satori_om-id-0-1-0-0-7"><rect x="40" y="504" width="0" height="64" fill="#fff"/></mask><mask id="satori_om-id-0-1-0-0-8"><rect x="40" y="504" width="0" height="64" fill="#fff"/></mask><mask id="satori_om-id-0-1-0-1"><rect x="116" y="512" width="313" height="48" fill="#fff"/></mask><path fill="#545454" d="M133.0 553.6L133.0 553.6Q126.5 553.6 122.7 550.2Q118.8 546.7 118.8 541.1L118.8 541.1L118.8 522.5Q118.8 520.7 119.8 519.7Q120.7 518.8 122.4 518.8Q124.0 518.8 125.0 519.7Q125.9 520.7 125.9 522.5L125.9 522.5L125.9 540.4Q125.9 543.7 127.8 545.6Q129.6 547.6 133.0 547.6L133.0 547.6Q136.3 547.6 138.2 545.6Q140.1 543.7 140.1 540.4L140.1 540.4L140.1 522.5Q140.1 520.7 141.0 519.7Q141.9 518.8 143.6 518.8Q145.3 518.8 146.2 519.7Q147.1 520.7 147.1 522.5L147.1 522.5L147.1 541.1Q147.1 546.7 143.3 550.2Q139.4 553.6 133.0 553.6ZM158.9 552.6Q158.0 553.6 156.3 553.6Q154.6 553.6 153.7 552.6Q152.8 551.6 152.8 549.9L152.8 549.9L152.8 522.9Q152.8 521.2 153.7 520.2Q154.6 519.2 156.3 519.2L156.3 519.2L166.6 519.2Q172.4 519.2 175.6 522.1Q178.9 525.0 178.9 530.0L178.9 530.0Q178.9 533.2 177.3 535.8Q175.8 538.3 173.0 539.4L173.0 539.4L177.9 547.9Q178.7 549.2 178.7 550.3L178.7 550.3Q178.7 551.7 177.7 552.6Q176.7 553.6 175.1 553.6L175.1 553.6Q173.8 553.6 173.1 553.0Q172.4 552.5 171.5 550.9L171.5 550.9L165.9 540.7L159.9 540.7L159.9 549.9Q159.9 551.6 158.9 552.6ZM159.9 524.8L159.9 535.6L165.9 535.6Q168.6 535.6 170.1 534.1Q171.6 532.7 171.6 530.2L171.6 530.2Q171.6 527.7 170.0 526.2Q168.5 524.8 165.9 524.8L165.9 524.8L159.9 524.8ZM196.2 542.3L186.4 542.3Q185.0 542.3 184.1 541.5Q183.2 540.7 183.2 539.3Q183.2 537.9 184.1 537.1Q185.0 536.3 186.4 536.3L186.4 536.3L196.2 536.3Q197.6 536.3 198.5 537.1Q199.4 537.9 199.4 539.3Q199.4 540.7 198.5 541.5Q197.6 542.3 196.2 542.3L196.2 542.3ZM210.9 552.6Q209.9 553.6 208.3 553.6Q206.6 553.6 205.6 552.6Q204.7 551.6 204.7 549.9L204.7 549.9L204.7 522.9Q204.7 521.2 205.6 520.2Q206.6 519.2 208.3 519.2L208.3 519.2L218.6 519.2Q224.4 519.2 227.6 522.1Q230.8 525.0 230.8 530.0L230.8 530.0Q230.8 533.2 229.3 535.8Q227.8 538.3 225.0 539.4L225.0 539.4L229.9 547.9Q230.6 549.2 230.6 550.3L230.6 550.3Q230.6 551.7 229.6 552.6Q228.6 553.6 227.0 553.6L227.0 553.6Q225.8 553.6 225.0 553.0Q224.3 552.5 223.4 550.9L223.4 550.9L217.8 540.7L211.8 540.7L211.8 549.9Q211.8 551.6 210.9 552.6ZM211.8 524.8L211.8 535.6L217.9 535.6Q220.6 535.6 222.0 534.1Q223.5 532.7 223.5 530.2L223.5 530.2Q223.5 527.7 222.0 526.2Q220.4 524.8 217.8 524.8L217.8 524.8L211.8 524.8ZM237.7 553.5L237.7 553.5Q236.0 553.5 235.1 552.6Q234.1 551.7 234.1 550.2L234.1 550.2Q234.1 549.3 234.6 547.9L234.6 547.9L243.8 522.8Q244.6 520.7 245.8 519.7Q247.1 518.8 249.1 518.8L249.1 518.8Q251.2 518.8 252.5 519.7Q253.8 520.7 254.5 522.8L254.5 522.8L263.8 547.9Q264.3 549.2 264.3 550.2L264.3 550.2Q264.3 551.6 263.3 552.6Q262.3 553.5 260.7 553.5L260.7 553.5Q259.2 553.5 258.4 552.8Q257.5 552.1 257.0 550.4L257.0 550.4L255.3 545.0L243.1 545.0L241.3 550.3Q240.8 552.0 239.9 552.8Q239.1 553.5 237.7 553.5ZM249.0 525.7L244.6 539.6L253.6 539.6L249.1 525.7L249.0 525.7ZM281.5 553.1L272.1 553.1Q270.4 553.1 269.5 552.1Q268.6 551.1 268.6 549.4L268.6 549.4L268.6 522.9Q268.6 521.2 269.5 520.2Q270.4 519.2 272.1 519.2L272.1 519.2L281.5 519.2Q289.1 519.2 293.4 523.6Q297.6 528.0 297.6 536.0L297.6 536.0Q297.6 544.1 293.3 548.6Q289.1 553.1 281.5 553.1L281.5 553.1ZM275.6 525.1L275.6 547.2L280.6 547.2Q285.4 547.2 287.9 544.4Q290.4 541.5 290.4 536.0L290.4 536.0Q290.4 530.8 287.8 527.9Q285.3 525.1 280.6 525.1L280.6 525.1L275.6 525.1Z M333.2 553.1L314.5 553.1Q312.9 553.1 312.0 552.2Q311.2 551.4 311.2 550.0L311.2 550.0Q311.2 549.1 311.6 548.3Q312.0 547.5 313.1 546.5L313.1 546.5L323.2 536.9Q326.3 533.8 327.4 532.2Q328.4 530.6 328.4 528.8L328.4 528.8Q328.4 526.7 327.0 525.3Q325.5 524 323.3 524L323.3 524Q319.3 524 317.4 528.1L317.4 528.1Q316.8 529.2 316.1 529.7Q315.4 530.1 314.3 530.1L314.3 530.1Q312.9 530.1 312.1 529.4Q311.3 528.6 311.3 527.3L311.3 527.3Q311.3 526.5 311.5 525.7L311.5 525.7Q312.5 522.7 315.6 520.6Q318.8 518.5 323.3 518.5L323.3 518.5Q328.7 518.5 332.0 521.2Q335.3 524.0 335.3 528.3L335.3 528.3Q335.3 529.9 335.0 531.2Q334.6 532.5 333.6 533.9Q332.6 535.3 331.3 536.8Q330.0 538.2 327.8 540.3L327.8 540.3L320.5 547.3L320.5 547.4L333.2 547.4Q334.6 547.4 335.4 548.2Q336.1 549.0 336.1 550.3L336.1 550.3Q336.1 551.5 335.4 552.3Q334.6 553.1 333.2 553.1L333.2 553.1ZM363.6 549.0Q359.9 553.8 353.5 553.8Q347.1 553.8 343.4 549.1Q339.7 544.3 339.7 536.1L339.7 536.1Q339.7 527.9 343.4 523.2Q347.1 518.5 353.5 518.5Q359.9 518.5 363.6 523.2Q367.3 527.9 367.3 536.1L367.3 536.1Q367.3 544.3 363.6 549.0ZM348.6 545.0Q350.4 548.1 353.5 548.1Q356.7 548.1 358.4 545.0Q360.1 541.9 360.1 536.1L360.1 536.1Q360.1 530.4 358.4 527.2Q356.7 524.1 353.5 524.1L353.5 524.1Q350.4 524.1 348.7 527.3Q346.9 530.4 346.9 536.1L346.9 536.1Q346.9 541.9 348.6 545.0ZM393.6 553.1L374.9 553.1Q373.3 553.1 372.4 552.2Q371.6 551.4 371.6 550.0L371.6 550.0Q371.6 549.1 372.0 548.3Q372.5 547.5 373.5 546.5L373.5 546.5L383.6 536.9Q386.8 533.8 387.8 532.2Q388.9 530.6 388.9 528.8L388.9 528.8Q388.9 526.7 387.4 525.3Q386.0 524 383.7 524L383.7 524Q379.7 524 377.9 528.1L377.9 528.1Q377.3 529.2 376.5 529.7Q375.8 530.1 374.7 530.1L374.7 530.1Q373.3 530.1 372.5 529.4Q371.7 528.6 371.7 527.3L371.7 527.3Q371.7 526.5 372.0 525.7L372.0 525.7Q372.9 522.7 376.0 520.6Q379.2 518.5 383.8 518.5L383.8 518.5Q389.1 518.5 392.4 521.2Q395.8 524.0 395.8 528.3L395.8 528.3Q395.8 529.9 395.4 531.2Q395 532.5 394.0 533.9Q393.1 535.3 391.7 536.8Q390.4 538.2 388.2 540.3L388.2 540.3L380.9 547.3L380.9 547.4L393.6 547.4Q395 547.4 395.8 548.2Q396.6 549.0 396.6 550.3L396.6 550.3Q396.6 551.5 395.8 552.3Q395 553.1 393.6 553.1L393.6 553.1ZM413.6 553.8L413.6 553.8Q409.6 553.8 406.3 552.1Q403.1 550.4 401.8 547.7L401.8 547.7Q401.3 546.5 401.3 545.4L401.3 545.4Q401.3 544.0 402.0 543.3Q402.8 542.5 404.2 542.5L404.2 542.5Q405.3 542.5 406.0 542.9Q406.7 543.3 407.3 544.3L407.3 544.3Q409.3 548.2 413.6 548.2L413.6 548.2Q416.3 548.2 418.1 546.4Q419.9 544.6 419.9 541.9L419.9 541.9Q419.9 539.2 418.1 537.5Q416.4 535.8 413.6 535.8L413.6 535.8Q410.8 535.8 408.7 537.8L408.7 537.8Q407.6 538.8 406.9 539.1Q406.2 539.4 405.0 539.4L405.0 539.4Q403.4 539.4 402.5 538.4Q401.6 537.4 401.7 535.9L401.7 535.9Q401.7 535.8 401.7 535.6L401.7 535.6L402.7 523.3Q402.9 521.1 404.0 520.2Q405.1 519.2 407.2 519.2L407.2 519.2L422 519.2Q423.3 519.2 424.1 520.0Q424.9 520.8 424.9 522.1Q424.9 523.3 424.1 524.1Q423.3 524.9 422 524.9L422 524.9L408.6 524.9L407.8 534.3L408.0 534.3Q409.0 532.6 411.0 531.7Q413.0 530.7 415.6 530.7L415.6 530.7Q420.4 530.7 423.5 533.8Q426.6 536.9 426.6 541.7L426.6 541.7Q426.6 547.1 423.0 550.5Q419.4 553.8 413.6 553.8Z "/><mask id="satori_om-id-0-1-1"><rect x="1013" y="524" width="147" height="36" fill="#fff"/></mask><path fill="#8e8e8e" d="M1016.9 552.6Q1016.5 552.9 1016.0 552.9Q1015.4 552.9 1015.1 552.6Q1014.8 552.2 1014.8 551.7L1014.8 551.7L1014.8 532.6Q1014.8 532.0 1015.1 531.6Q1015.5 531.3 1016.1 531.3Q1016.6 531.3 1017.0 531.6Q1017.3 532.0 1017.3 532.6L1017.3 532.6L1017.3 540.0L1017.4 540.0Q1018.1 538.7 1019.4 537.9Q1020.7 537.2 1022.3 537.2L1022.3 537.2Q1025.2 537.2 1026.9 539.3Q1028.7 541.5 1028.7 545.0L1028.7 545.0Q1028.7 548.6 1026.9 550.8Q1025.2 552.9 1022.2 552.9L1022.2 552.9Q1020.6 552.9 1019.3 552.2Q1018.0 551.4 1017.3 550.1L1017.3 550.1L1017.2 550.1L1017.2 551.7Q1017.2 552.2 1016.9 552.6ZM1021.7 550.7L1021.7 550.7Q1023.8 550.7 1024.9 549.2Q1026.1 547.7 1026.1 545.0L1026.1 545.0Q1026.1 542.5 1024.9 540.9Q1023.8 539.4 1021.7 539.4L1021.7 539.4Q1019.8 539.4 1018.6 541.0Q1017.3 542.5 1017.3 545.0L1017.3 545.0Q1017.3 547.6 1018.6 549.1Q1019.8 550.7 1021.7 550.7ZM1032.8 558.4L1032.8 558.4Q1031.9 558.4 1031.4 558.0Q1030.9 557.7 1030.9 557.1L1030.9 557.1Q1030.9 556.7 1031.1 556.4Q1031.4 556.2 1031.9 556.2L1031.9 556.2Q1032.1 556.2 1032.3 556.2Q1032.5 556.2 1032.7 556.2L1032.7 556.2Q1034.4 556.2 1035.2 553.7L1035.2 553.7L1035.6 552.7L1030.3 539.0Q1030.2 538.6 1030.2 538.3L1030.2 538.3Q1030.2 537.8 1030.6 537.5Q1030.9 537.2 1031.5 537.2L1031.5 537.2Q1032.4 537.2 1032.7 538.1L1032.7 538.1L1036.9 550.1L1037.0 550.1L1041.2 538.1Q1041.3 537.6 1041.6 537.4Q1041.9 537.2 1042.4 537.2L1042.4 537.2Q1042.9 537.2 1043.3 537.5Q1043.6 537.8 1043.6 538.3L1043.6 538.3Q1043.6 538.6 1043.5 539.0L1043.5 539.0L1037.9 553.7Q1036.9 556.4 1035.8 557.4Q1034.7 558.4 1032.8 558.4Z M1066.9 550.9Q1064.7 553.0 1060.8 553.0Q1056.9 553.0 1054.7 550.9Q1052.4 548.7 1052.4 545.3L1052.4 545.3L1052.4 532.7Q1052.4 532.1 1052.8 531.7Q1053.1 531.3 1053.7 531.3Q1054.3 531.3 1054.7 531.7Q1055.0 532.1 1055.0 532.7L1055.0 532.7L1055.0 545.1Q1055.0 547.5 1056.6 549.1Q1058.1 550.6 1060.8 550.6Q1063.5 550.6 1065.0 549.1Q1066.6 547.5 1066.6 545.1L1066.6 545.1L1066.6 532.7Q1066.6 532.1 1066.9 531.7Q1067.3 531.3 1067.9 531.3Q1068.5 531.3 1068.8 531.7Q1069.2 532.1 1069.2 532.7L1069.2 532.7L1069.2 545.3Q1069.2 548.7 1066.9 550.9ZM1075.6 552.6Q1075.2 552.9 1074.6 552.9Q1074.0 552.9 1073.7 552.6Q1073.3 552.2 1073.3 551.6L1073.3 551.6L1073.3 532.9Q1073.3 532.3 1073.7 531.9Q1074.0 531.5 1074.6 531.5L1074.6 531.5L1081.2 531.5Q1084.3 531.5 1086.1 533.2Q1088.0 535.0 1088.0 537.8L1088.0 537.8Q1088.0 540.0 1086.8 541.6Q1085.7 543.3 1083.7 543.9L1083.7 543.9L1087.6 550.8Q1087.9 551.3 1087.9 551.7L1087.9 551.7Q1087.9 552.2 1087.5 552.6Q1087.1 552.9 1086.5 552.9L1086.5 552.9Q1086.1 552.9 1085.8 552.7Q1085.5 552.5 1085.2 552.1L1085.2 552.1L1081.0 544.3L1075.9 544.3L1075.9 551.6Q1075.9 552.2 1075.6 552.6ZM1075.9 533.9L1075.9 542.0L1081.0 542.0Q1083.0 542.0 1084.1 540.9Q1085.2 539.9 1085.2 537.9L1085.2 537.9Q1085.2 536.0 1084.1 534.9Q1082.9 533.9 1080.9 533.9L1080.9 533.9L1075.9 533.9ZM1099.4 545.3L1091.9 545.3Q1091.3 545.3 1091.0 545.0Q1090.6 544.6 1090.6 544.1Q1090.6 543.6 1091.0 543.2Q1091.3 542.9 1091.9 542.9L1091.9 542.9L1099.4 542.9Q1100.0 542.9 1100.3 543.2Q1100.7 543.6 1100.7 544.1Q1100.7 544.6 1100.3 545.0Q1100.0 545.3 1099.4 545.3L1099.4 545.3ZM1106.4 552.6Q1106.0 552.9 1105.4 552.9Q1104.8 552.9 1104.5 552.6Q1104.1 552.2 1104.1 551.6L1104.1 551.6L1104.1 532.9Q1104.1 532.3 1104.5 531.9Q1104.8 531.5 1105.4 531.5L1105.4 531.5L1112.1 531.5Q1115.1 531.5 1117.0 533.2Q1118.8 535.0 1118.8 537.8L1118.8 537.8Q1118.8 540.0 1117.7 541.6Q1116.5 543.3 1114.5 543.9L1114.5 543.9L1118.4 550.8Q1118.7 551.3 1118.7 551.7L1118.7 551.7Q1118.7 552.2 1118.3 552.6Q1117.9 552.9 1117.3 552.9L1117.3 552.9Q1116.9 552.9 1116.6 552.7Q1116.3 552.5 1116.1 552.1L1116.1 552.1L1111.8 544.3L1106.8 544.3L1106.8 551.6Q1106.8 552.2 1106.4 552.6ZM1106.8 533.9L1106.8 542.0L1111.8 542.0Q1113.9 542.0 1115.0 540.9Q1116.1 539.9 1116.1 537.9L1116.1 537.9Q1116.1 536.0 1114.9 534.9Q1113.8 533.9 1111.7 533.9L1111.7 533.9L1106.8 533.9ZM1122.2 552.9L1122.2 552.9Q1121.6 552.9 1121.2 552.5Q1120.9 552.2 1120.9 551.7L1120.9 551.7Q1120.9 551.4 1121.0 551.0L1121.0 551.0L1127.8 532.6Q1128.3 531.3 1129.5 531.3L1129.5 531.3Q1130.7 531.3 1131.2 532.6L1131.2 532.6L1138.0 551.0Q1138.2 551.4 1138.2 551.7L1138.2 551.7Q1138.2 552.2 1137.8 552.5Q1137.4 552.9 1136.9 552.9L1136.9 552.9Q1135.9 552.9 1135.6 551.9L1135.6 551.9L1133.7 546.6L1125.3 546.6L1123.5 551.9Q1123.1 552.9 1122.2 552.9ZM1129.5 534.7L1126.1 544.4L1132.9 544.4L1129.6 534.7L1129.5 534.7ZM1148.1 552.7L1142.3 552.7Q1141.7 552.7 1141.4 552.3Q1141.0 551.9 1141.0 551.3L1141.0 551.3L1141.0 532.9Q1141.0 532.3 1141.4 531.9Q1141.7 531.5 1142.3 531.5L1142.3 531.5L1148.1 531.5Q1152.8 531.5 1155.5 534.3Q1158.1 537.1 1158.1 542.1L1158.1 542.1Q1158.1 547.1 1155.5 549.9Q1152.8 552.7 1148.1 552.7L1148.1 552.7ZM1143.7 533.9L1143.7 550.3L1148.0 550.3Q1151.5 550.3 1153.5 548.2Q1155.4 546.1 1155.4 542.1L1155.4 542.1Q1155.4 538.1 1153.5 536.0Q1151.6 533.9 1148.0 533.9L1148.0 533.9L1143.7 533.9Z "/></svg>