<svg width="1200" height="630" viewBox="0 0 1200 630" xmlns="http://www.w3.org/2000/svg"><mask id="satori_om-id"><rect x="0" y="0" width="1200" height="630" fill="#fff"/></mask><mask id="satori_om-id-0"><rect x="0" y="0" width="1200" height="630" fill="#fff"/></mask><rect x="0" y="0" width="1200" height="630" fill="#f2f2f2"/><mask id="satori_om-id-0-0"><rect x="0" y="0" width="1200" height="441" fill="#fff"/></mask><mask id="satori_om-id-0-0-0"><rect x="40" y="56" width="1120" height="35" fill="#fff"/></mask><path fill="#8e8e8e" d="M44.8 84.4Q44.4 84.9 43.6 84.9Q42.8 84.9 42.4 84.4Q41.9 84.0 41.9 83.2L41.9 83.2L41.9 65.2Q41.9 64.4 42.4 64.0Q42.8 63.5 43.6 63.5L43.6 63.5L53.8 63.5Q54.5 63.5 55.0 63.9Q55.4 64.3 55.4 64.9Q55.4 65.6 55.0 66.0Q54.5 66.4 53.8 66.4L53.8 66.4L45.2 66.4L45.2 73.0L53.1 73.0Q53.7 73.0 54.1 73.4Q54.5 73.8 54.5 74.4Q54.5 75.1 54.1 75.4Q53.7 75.8 53.1 75.8L53.1 75.8L45.2 75.8L45.2 83.2Q45.2 84.0 44.8 84.4ZM59.2 84.9L59.2 84.9Q58.5 84.9 58.1 84.5Q57.6 84.0 57.6 83.3L57.6 83.3L57.6 70.6Q57.6 69.9 58.0 69.4Q58.5 69.0 59.1 69.0L59.1 69.0Q59.8 69.0 60.2 69.4Q60.6 69.9 60.6 70.6L60.6 70.6L60.6 71.9L60.7 71.9Q61.0 70.6 62.0 69.8Q62.9 69.0 64.1 69.0L64.1 69.0Q64.9 69.0 65.3 69.4L65.3 69.4Q65.8 69.7 65.8 70.5L65.8 70.5Q65.8 71.2 65.3 71.6L65.3 71.6Q64.8 72.0 63.8 72.0L63.8 72.0Q62.3 72.0 61.5 73.0Q60.8 73.9 60.8 75.4L60.8 75.4L60.8 83.3Q60.8 84.0 60.3 84.5Q59.9 84.9 59.2 84.9ZM70.5 66.4Q69.9 66.9 69.2 66.9Q68.4 66.9 67.9 66.4Q67.3 65.9 67.3 65.1L67.3 65.1Q67.3 64.3 67.9 63.8Q68.4 63.3 69.2 63.3L69.2 63.3Q69.9 63.3 70.5 63.8Q71.0 64.3 71.0 65.1L71.0 65.1Q71.0 65.9 70.5 66.4ZM70.3 84.5Q69.9 84.9 69.2 84.9Q68.4 84.9 68.0 84.5Q67.6 84.0 67.6 83.3L67.6 83.3L67.6 70.7Q67.6 69.9 68.0 69.4Q68.4 69.0 69.2 69.0Q69.9 69.0 70.3 69.4Q70.7 69.9 70.7 70.7L70.7 70.7L70.7 83.3Q70.7 84.0 70.3 84.5ZM79.8 84.9L79.8 84.9Q76.8 84.9 75.1 82.8Q73.3 80.6 73.3 77.0Q73.3 73.3 75.0 71.2Q76.8 69.0 79.7 69.0L79.7 69.0Q81.4 69.0 82.6 69.8Q83.9 70.5 84.6 71.8L84.6 71.8L84.6 71.8L84.6 64.9Q84.6 64.1 85.1 63.7Q85.5 63.2 86.2 63.2L86.2 63.2Q86.9 63.2 87.4 63.7Q87.8 64.2 87.8 64.9L87.8 64.9L87.8 83.4Q87.8 84.1 87.4 84.5Q86.9 84.9 86.2 84.9L86.2 84.9Q85.5 84.9 85.1 84.5Q84.6 84.1 84.6 83.4L84.6 83.4L84.6 81.9L84.6 81.9Q84.0 83.3 82.7 84.1Q81.5 84.9 79.8 84.9ZM80.6 82.2L80.6 82.2Q82.4 82.2 83.5 80.8Q84.6 79.4 84.6 77.0L84.6 77.0Q84.6 74.6 83.5 73.1Q82.4 71.7 80.6 71.7L80.6 71.7Q78.7 71.7 77.6 73.1Q76.5 74.5 76.5 77.0L76.5 77.0Q76.5 79.4 77.6 80.8Q78.7 82.2 80.6 82.2ZM95.5 84.9L95.5 84.9Q93.3 84.9 91.8 83.6Q90.4 82.3 90.4 80.3L90.4 80.3Q90.4 78.3 91.9 77.1Q93.4 75.9 96.1 75.7L96.1 75.7L100.4 75.5L100.4 74.3Q100.4 73.0 99.5 72.3Q98.7 71.6 97.3 71.6L97.3 71.6Q96.1 71.6 95.3 72.0Q94.5 72.5 93.9 73.5L93.9 73.5Q93.4 74.2 92.6 74.2L92.6 74.2Q92.0 74.2 91.6 73.8Q91.2 73.4 91.2 72.9L91.2 72.9Q91.2 72.3 91.5 71.8L91.5 71.8Q92.1 70.5 93.7 69.8Q95.3 69.0 97.4 69.0L97.4 69.0Q100.2 69.0 101.9 70.4Q103.5 71.7 103.5 74.0L103.5 74.0L103.5 83.3Q103.5 84.1 103.1 84.5Q102.7 84.9 102.0 84.9L102.0 84.9Q101.3 84.9 100.9 84.5Q100.5 84.1 100.5 83.4L100.5 83.4L100.5 82.1L100.4 82.1Q99.8 83.4 98.4 84.2Q97.1 84.9 95.5 84.9ZM96.4 82.4L96.4 82.4Q98.1 82.4 99.2 81.4Q100.4 80.4 100.4 78.9L100.4 78.9L100.4 77.7L96.6 77.9Q95.1 78.0 94.4 78.6Q93.6 79.2 93.6 80.2L93.6 80.2Q93.6 81.2 94.4 81.8Q95.2 82.4 96.4 82.4ZM108.5 90.4L108.5 90.4Q107.4 90.4 106.8 90.0Q106.2 89.6 106.2 88.9L106.2 88.9Q106.2 88.4 106.5 88.1Q106.9 87.8 107.4 87.8L107.4 87.8Q107.6 87.8 107.8 87.8Q108.1 87.8 108.3 87.8L108.3 87.8Q109.9 87.8 110.6 85.7L110.6 85.7L110.9 84.8L105.7 71.3Q105.6 70.9 105.6 70.4L105.6 70.4Q105.6 69.8 106.0 69.4Q106.5 69.0 107.2 69.0L107.2 69.0Q107.8 69.0 108.1 69.3Q108.5 69.5 108.7 70.2L108.7 70.2L112.6 81.8L112.7 81.8L116.6 70.2Q116.8 69.5 117.2 69.3Q117.5 69.0 118.1 69.0L118.1 69.0Q118.8 69.0 119.2 69.4Q119.7 69.8 119.7 70.4L119.7 70.4Q119.7 70.8 119.5 71.3L119.5 71.3L114.2 85.4Q113.1 88.2 111.9 89.3Q110.6 90.4 108.5 90.4ZM124.1 81.1L124.1 81.1Q124.8 81.1 125.2 81.5Q125.6 81.8 125.6 82.4L125.6 82.4Q125.6 82.8 125.5 83.3L125.5 83.3L124.2 88.3Q123.9 89.4 122.9 89.4L122.9 89.4Q122.3 89.4 122.0 89.1Q121.6 88.7 121.6 88.2L121.6 88.2Q121.6 88.1 121.7 87.8L121.7 87.8L122.6 82.4Q122.8 81.1 124.1 81.1Z M143.4 85.1L143.4 85.1Q139.9 85.1 137.7 83.3Q135.4 81.6 135.4 79.0L135.4 79.0Q135.4 76.9 136.7 75.5Q138.0 74.0 140.1 73.5L140.1 73.5L140.1 73.5Q138.3 72.9 137.3 71.7Q136.2 70.4 136.2 68.7L136.2 68.7Q136.2 66.3 138.2 64.7Q140.3 63.1 143.4 63.1L143.4 63.1Q146.6 63.1 148.6 64.7Q150.6 66.3 150.6 68.8L150.6 68.8Q150.6 70.4 149.6 71.7Q148.5 72.9 146.7 73.5L146.7 73.5L146.7 73.5Q148.9 74 150.1 75.5Q151.4 77.0 151.4 79.0L151.4 79.0Q151.4 80.7 150.4 82.1Q149.4 83.5 147.6 84.3Q145.7 85.1 143.4 85.1ZM143.4 72.4L143.4 72.4Q145.2 72.4 146.3 71.4Q147.4 70.5 147.4 69.0L147.4 69.0Q147.4 67.6 146.3 66.7Q145.2 65.7 143.4 65.7L143.4 65.7Q141.7 65.7 140.6 66.7Q139.5 67.6 139.5 69.0L139.5 69.0Q139.5 70.5 140.6 71.4Q141.7 72.4 143.4 72.4ZM140.1 81.4Q141.4 82.4 143.4 82.4Q145.5 82.4 146.7 81.4Q148.0 80.3 148.0 78.7L148.0 78.7Q148.0 77.1 146.7 76.0Q145.5 75.0 143.4 75.0Q141.4 75.0 140.1 76.0Q138.8 77.1 138.8 78.7L138.8 78.7Q138.8 80.3 140.1 81.4Z M163.5 84.5Q163.1 84.9 162.3 84.9Q161.6 84.9 161.2 84.5Q160.7 84.0 160.7 83.2L160.7 83.2L160.7 65.1Q160.7 64.2 161.2 63.8Q161.7 63.3 162.5 63.3L162.5 63.3Q163.1 63.3 163.5 63.5Q163.9 63.7 164.3 64.3L164.3 64.3L174.7 79.1L174.8 79.1L174.8 65.0Q174.8 64.2 175.2 63.7Q175.6 63.3 176.4 63.3L176.4 63.3Q177.1 63.3 177.5 63.7Q178.0 64.2 178.0 65.0L178.0 65.0L178.0 83.2Q178.0 84.0 177.5 84.5Q177.1 84.9 176.2 84.9L176.2 84.9Q175.6 84.9 175.3 84.7Q174.9 84.5 174.5 83.9L174.5 83.9L164.1 69.1L163.9 69.1L163.9 83.2Q163.9 84.0 163.5 84.5ZM193.4 82.8Q191.4 85.0 188.1 85.0Q184.8 85.0 182.8 82.8Q180.8 80.7 180.8 77.0L180.8 77.0Q180.8 73.3 182.8 71.1Q184.8 69.0 188.1 69.0Q191.4 69.0 193.4 71.1Q195.4 73.3 195.4 77.0L195.4 77.0Q195.4 80.7 193.4 82.8ZM188.1 82.3L188.1 82.3Q190 82.3 191.1 80.9Q192.2 79.5 192.2 77.0L192.2 77.0Q192.2 74.4 191.1 73.0Q190.0 71.6 188.1 71.6Q186.2 71.6 185.1 73.0Q184.0 74.4 184.0 77.0L184.0 77.0Q184.0 79.5 185.1 80.9Q186.2 82.3 188.1 82.3ZM203.8 84.9L203.8 84.9Q203.0 84.9 202.5 84.6Q202.0 84.2 201.6 83.3L201.6 83.3L197.0 71.3Q196.9 70.8 196.9 70.4L196.9 70.4Q196.9 69.8 197.3 69.4Q197.8 69.0 198.5 69.0L198.5 69.0Q199.6 69.0 200.0 70.2L200.0 70.2L203.8 81.6L203.8 81.6L207.7 70.2Q208.1 69.0 209.1 69.0L209.1 69.0Q209.8 69.0 210.3 69.4Q210.7 69.8 210.7 70.4L210.7 70.4Q210.7 70.9 210.5 71.3L210.5 71.3L206.0 83.3Q205.7 84.2 205.1 84.6Q204.6 84.9 203.8 84.9ZM219.5 85.0L219.5 85.0Q216.0 85.0 214.1 82.9Q212.1 80.8 212.1 77.0L212.1 77.0Q212.1 73.4 214.1 71.2Q216.0 69.0 219.3 69.0L219.3 69.0Q222.4 69.0 224.3 71.0Q226.2 73.0 226.2 76.1L226.2 76.1Q226.2 76.9 225.8 77.3Q225.4 77.8 224.7 77.8L224.7 77.8L215.3 77.8L215.3 77.8Q215.3 79.9 216.4 81.2Q217.6 82.4 219.4 82.4L219.4 82.4Q220.7 82.4 221.6 81.9Q222.5 81.4 223.4 80.2L223.4 80.2Q223.9 79.6 224.5 79.6L224.5 79.6Q225.1 79.6 225.5 80.0Q225.9 80.3 225.9 80.9L225.9 80.9Q225.9 81.3 225.6 81.8L225.6 81.8Q224.9 83.3 223.3 84.1Q221.7 85.0 219.5 85.0ZM215.4 75.5L215.4 75.5L223.1 75.5Q223.0 73.7 222.0 72.6Q220.9 71.5 219.3 71.5L219.3 71.5Q217.6 71.5 216.6 72.6Q215.5 73.7 215.4 75.5ZM231.4 84.5Q231.0 84.9 230.3 84.9Q229.5 84.9 229.1 84.5Q228.7 84.0 228.7 83.3L228.7 83.3L228.7 70.6Q228.7 69.9 229.1 69.4Q229.5 69.0 230.2 69.0Q230.9 69.0 231.3 69.4Q231.7 69.8 231.7 70.6L231.7 70.6L231.7 71.8L231.8 71.8Q232.3 70.5 233.4 69.8Q234.6 69.0 236.1 69.0L236.1 69.0Q237.7 69.0 238.9 69.8Q240.0 70.6 240.4 72.0L240.4 72.0L240.5 72.0Q241.1 70.6 242.4 69.8Q243.7 69.0 245.3 69.0L245.3 69.0Q247.6 69.0 249.0 70.4Q250.4 71.8 250.4 74.1L250.4 74.1L250.4 83.3Q250.4 84.0 249.9 84.5Q249.5 84.9 248.8 84.9Q248.1 84.9 247.6 84.5Q247.2 84.0 247.2 83.3L247.2 83.3L247.2 74.8Q247.2 73.3 246.4 72.5Q245.6 71.7 244.2 71.7Q242.8 71.7 242.0 72.6Q241.1 73.6 241.1 75.0L241.1 75.0L241.1 83.3Q241.1 84.0 240.6 84.5Q240.2 84.9 239.5 84.9Q238.8 84.9 238.4 84.5Q238.0 84.0 238.0 83.3L238.0 83.3L238.0 74.6Q238.0 73.3 237.2 72.5Q236.4 71.7 235.0 71.7L235.0 71.7Q233.6 71.7 232.7 72.7Q231.8 73.6 231.8 75.1L231.8 75.1L231.8 83.3Q231.8 84.0 231.4 84.5ZM255.0 84.9L255.0 84.9Q254.4 84.9 253.9 84.5Q253.5 84.1 253.5 83.4L253.5 83.4L253.5 64.9Q253.5 64.2 254.0 63.7Q254.4 63.2 255.1 63.2Q255.8 63.2 256.3 63.7Q256.7 64.2 256.7 64.9L256.7 64.9L256.7 71.9L256.8 71.9Q257.5 70.5 258.7 69.8Q260.0 69.0 261.6 69.0L261.6 69.0Q264.6 69.0 266.3 71.2Q268.1 73.3 268.1 77.0L268.1 77.0Q268.1 80.6 266.3 82.8Q264.6 84.9 261.6 84.9L261.6 84.9Q260.0 84.9 258.7 84.2Q257.4 83.4 256.7 82.0L256.7 82.0L256.6 82.0L256.6 83.4Q256.6 84.1 256.2 84.5Q255.7 84.9 255.0 84.9ZM260.8 82.2L260.8 82.2Q262.6 82.2 263.7 80.8Q264.8 79.4 264.8 77.0L264.8 77.0Q264.8 74.5 263.7 73.1Q262.6 71.7 260.8 71.7L260.8 71.7Q259.0 71.7 257.8 73.1Q256.7 74.6 256.7 77.0L256.7 77.0Q256.7 79.3 257.8 80.8Q259.0 82.2 260.8 82.2ZM277.2 85.0L277.2 85.0Q273.7 85.0 271.8 82.9Q269.8 80.8 269.8 77.0L269.8 77.0Q269.8 73.4 271.8 71.2Q273.7 69.0 277.0 69.0L277.0 69.0Q280.0 69.0 282.0 71.0Q283.9 73.0 283.9 76.1L283.9 76.1Q283.9 76.9 283.5 77.3Q283.1 77.8 282.3 77.8L282.3 77.8L273.0 77.8L273.0 77.8Q273.0 79.9 274.1 81.2Q275.2 82.4 277.1 82.4L277.1 82.4Q278.4 82.4 279.3 81.9Q280.2 81.4 281.1 80.2L281.1 80.2Q281.6 79.6 282.2 79.6L282.2 79.6Q282.8 79.6 283.2 80.0Q283.5 80.3 283.5 80.9L283.5 80.9Q283.5 81.3 283.3 81.8L283.3 81.8Q282.5 83.3 280.9 84.1Q279.3 85.0 277.2 85.0ZM273.0 75.5L273.0 75.5L280.7 75.5Q280.7 73.7 279.6 72.6Q278.6 71.5 277.0 71.5L277.0 71.5Q275.3 71.5 274.2 72.6Q273.1 73.7 273.0 75.5ZM287.9 84.9L287.9 84.9Q287.2 84.9 286.8 84.5Q286.3 84.0 286.3 83.3L286.3 83.3L286.3 70.6Q286.3 69.9 286.8 69.4Q287.2 69.0 287.9 69.0L287.9 69.0Q288.5 69.0 288.9 69.4Q289.3 69.9 289.3 70.6L289.3 70.6L289.3 71.9L289.4 71.9Q289.7 70.6 290.7 69.8Q291.6 69.0 292.8 69.0L292.8 69.0Q293.6 69.0 294.0 69.4L294.0 69.4Q294.5 69.7 294.5 70.5L294.5 70.5Q294.5 71.2 294.0 71.6L294.0 71.6Q293.5 72.0 292.6 72.0L292.6 72.0Q291.0 72.0 290.3 73.0Q289.5 73.9 289.5 75.4L289.5 75.4L289.5 83.3Q289.5 84.0 289.1 84.5Q288.6 84.9 287.9 84.9Z M315.5 84.7L303.8 84.7Q303.1 84.7 302.7 84.3Q302.3 83.9 302.3 83.3L302.3 83.3Q302.3 82.8 302.5 82.5Q302.6 82.1 303.2 81.6L303.2 81.6L309.8 74.9Q311.9 72.8 312.5 71.7Q313.2 70.6 313.2 69.3L313.2 69.3Q313.2 67.8 312.2 66.8Q311.1 65.8 309.5 65.8L309.5 65.8Q306.4 65.8 305.3 69.0L305.3 69.0Q305.1 69.5 304.7 69.8Q304.4 70.0 303.8 70.0L303.8 70.0Q303.1 70.0 302.8 69.6Q302.4 69.3 302.4 68.6L302.4 68.6Q302.4 68.3 302.5 68.0L302.5 68.0Q302.6 67.1 303.2 66.3Q303.7 65.4 304.6 64.7Q305.5 64.0 306.8 63.6Q308.1 63.1 309.6 63.1L309.6 63.1Q312.6 63.1 314.5 64.8Q316.5 66.5 316.5 69.1L316.5 69.1Q316.5 70.9 315.5 72.5Q314.5 74.0 311.8 76.8L311.8 76.8L306.7 81.8L306.7 81.9L315.5 81.9Q316.2 81.9 316.6 82.3Q317.0 82.7 317.0 83.3L317.0 83.3Q317.0 83.9 316.6 84.3Q316.2 84.7 315.5 84.7L315.5 84.7ZM333.4 82.1Q331.2 85.1 327.4 85.1Q323.7 85.1 321.5 82.1Q319.3 79.2 319.3 74.1L319.3 74.1Q319.3 69.0 321.5 66.1Q323.7 63.1 327.4 63.1L327.4 63.1Q331.2 63.1 333.4 66.1Q335.5 69.0 335.5 74.1L335.5 74.1Q335.5 79.1 333.4 82.1ZM327.4 82.3L327.4 82.3Q329.7 82.3 331.0 80.1Q332.2 77.9 332.2 74.1L332.2 74.1Q332.2 70.3 331.0 68.1Q329.7 65.9 327.4 65.9Q325.2 65.9 323.9 68.1Q322.7 70.3 322.7 74.1L322.7 74.1Q322.7 77.9 323.9 80.1Q325.2 82.3 327.4 82.3ZM351.6 84.7L339.9 84.7Q339.2 84.7 338.8 84.3Q338.4 83.9 338.4 83.3L338.4 83.3Q338.4 82.8 338.6 82.5Q338.7 82.1 339.3 81.6L339.3 81.6L345.9 74.9Q348.0 72.8 348.6 71.7Q349.3 70.6 349.3 69.3L349.3 69.3Q349.3 67.8 348.3 66.8Q347.2 65.8 345.6 65.8L345.6 65.8Q342.5 65.8 341.4 69.0L341.4 69.0Q341.2 69.5 340.8 69.8Q340.5 70.0 339.9 70.0L339.9 70.0Q339.2 70.0 338.9 69.6Q338.5 69.3 338.5 68.6L338.5 68.6Q338.5 68.3 338.5 68.0L338.5 68.0Q338.7 67.1 339.3 66.3Q339.8 65.4 340.7 64.7Q341.6 64.0 342.8 63.6Q344.1 63.1 345.7 63.1L345.7 63.1Q348.7 63.1 350.6 64.8Q352.6 66.5 352.6 69.1L352.6 69.1Q352.6 70.9 351.6 72.5Q350.6 74.0 347.9 76.8L347.9 76.8L342.8 81.8L342.8 81.9L351.6 81.9Q352.3 81.9 352.7 82.3Q353.1 82.7 353.1 83.3L353.1 83.3Q353.1 83.9 352.7 84.3Q352.3 84.7 351.6 84.7L351.6 84.7ZM367.4 84.9L367.4 84.9Q366.7 84.9 366.3 84.5Q365.9 84.0 365.9 83.3L365.9 83.3L365.9 80.5L357.2 80.5Q356.3 80.5 355.8 80.0Q355.2 79.4 355.2 78.6L355.2 78.6Q355.2 77.6 356.0 76.3L356.0 76.3Q357.8 73.0 362.8 65.7L362.8 65.7Q363.8 64.3 364.5 63.8Q365.3 63.2 366.3 63.2L366.3 63.2Q367.6 63.2 368.3 63.9Q369.0 64.5 369.0 65.7L369.0 65.7L369.0 77.7L370.7 77.7Q371.3 77.7 371.7 78.1Q372.1 78.5 372.1 79.1Q372.1 79.7 371.7 80.1Q371.3 80.5 370.7 80.5L370.7 80.5L369.0 80.5L369.0 83.3Q369.0 84.0 368.6 84.5Q368.1 84.9 367.4 84.9ZM358.3 77.8L365.9 77.8L365.9 66.1L365.8 66.1Q360.4 73.9 358.3 77.7L358.3 77.7L358.3 77.8Z "/><mask id="satori_om-id-0-0-1"><rect x="40" y="137" width="1120" height="243" fill="#fff"/></mask><path fill="#224d67" d="M45.6 200.1L45.6 200.1Q43.8 200.1 42.8 199.1Q41.8 198.2 41.8 196.6L41.8 196.6Q41.8 195.6 42.3 194.3L42.3 194.3L54.5 160.9Q55.3 158.8 56.6 157.8Q58.0 156.8 60.0 156.8L60.0 156.8Q62.1 156.8 63.4 157.8Q64.8 158.7 65.5 160.9L65.5 160.9L77.9 194.3Q78.3 195.7 78.3 196.6L78.3 196.6Q78.3 198.1 77.3 199.1Q76.2 200.1 74.6 200.1L74.6 200.1Q73.0 200.1 72.1 199.3Q71.2 198.6 70.7 196.9L70.7 196.9L67.9 188.8L52.1 188.8L49.3 196.8Q48.8 198.6 47.9 199.3Q47.0 200.1 45.6 200.1ZM59.9 164.8L53.9 182.8L66.1 182.8L60.1 164.8L59.9 164.8ZM96.5 211.3L96.5 211.3Q92.1 211.2 88.8 209.7Q85.5 208.2 83.9 205.6L83.9 205.6Q83.3 204.6 83.3 203.4L83.3 203.4Q83.3 202.2 84.1 201.4Q84.9 200.6 86.3 200.6L86.3 200.6Q87.7 200.6 89.0 201.8L89.0 201.8Q90.9 203.7 92.6 204.6Q94.4 205.4 96.5 205.5L96.5 205.5Q100.2 205.5 102.3 203.6Q104.5 201.7 104.5 198.6L104.5 198.6L104.5 193.7L104.3 193.7Q103.1 196.2 100.5 197.7Q97.9 199.3 94.6 199.3L94.6 199.3Q88.7 199.3 85.3 195.0Q81.8 190.8 81.8 183.7L81.8 183.7Q81.8 176.4 85.3 172.2Q88.7 168.0 94.7 168.0L94.7 168.0Q98.0 168.0 100.5 169.5Q103.0 171.1 104.4 173.8L104.4 173.8L104.5 173.8L104.5 171.6Q104.5 169.9 105.5 168.9Q106.5 167.9 108.1 167.9Q109.8 167.9 110.8 168.9Q111.8 169.9 111.8 171.6L111.8 171.6L111.8 198.6Q111.8 204.5 107.7 207.9Q103.6 211.3 96.5 211.3ZM96.8 193.6L96.8 193.6Q100.3 193.6 102.4 190.9Q104.5 188.3 104.5 183.7L104.5 183.7Q104.5 179.2 102.4 176.5Q100.3 173.8 96.8 173.8L96.8 173.8Q93.3 173.8 91.3 176.5Q89.3 179.2 89.3 183.7L89.3 183.7Q89.3 188.3 91.3 191.0Q93.3 193.6 96.8 193.6ZM124.0 199.1Q123.0 200.2 121.4 200.2Q119.7 200.2 118.7 199.1Q117.7 198.1 117.7 196.3L117.7 196.3L117.7 171.6Q117.7 169.9 118.7 168.9Q119.6 167.9 121.2 167.9L121.2 167.9Q122.7 167.9 123.7 168.9Q124.7 169.9 124.7 171.6L124.7 171.6L124.7 174.0L124.8 174.0Q125.5 171.3 127.3 169.6Q129.1 168.0 131.5 168.0L131.5 168.0Q133.2 168.0 134.0 168.8L134.0 168.8Q135.1 169.6 135.1 171.4L135.1 171.4Q135.1 173.1 134.0 174.0L134.0 174.0Q132.9 174.9 130.8 175.0L130.8 175.0Q125.0 175.0 125.0 181.4L125.0 181.4L125.0 196.3Q125.0 198.1 124.0 199.1ZM152.1 200.2L152.1 200.2Q145.0 200.2 141.0 196.0Q137.1 191.7 137.1 184.2L137.1 184.2Q137.1 176.7 141.0 172.3Q145.0 167.9 151.7 167.9L151.7 167.9Q158.1 167.9 162.1 171.9Q166.0 176.0 166.0 182.4L166.0 182.4Q166.0 184.0 165.1 184.9Q164.2 185.8 162.6 185.8L162.6 185.8L144.3 185.8L144.3 186.0Q144.3 189.9 146.4 192.3Q148.5 194.6 152.1 194.6L152.1 194.6Q154.6 194.6 156.3 193.6Q158.1 192.7 159.9 190.4L159.9 190.4Q160.9 189.3 162.3 189.3L162.3 189.3Q163.6 189.3 164.4 190.0Q165.2 190.8 165.2 192.1L165.2 192.1Q165.2 192.9 164.7 193.9L164.7 193.9Q163.2 196.9 159.9 198.5Q156.6 200.2 152.1 200.2ZM144.4 181.0L144.4 181.0L158.9 181.0Q158.8 177.6 156.8 175.6Q154.8 173.5 151.8 173.5Q148.7 173.5 146.6 175.6Q144.6 177.7 144.4 181.0ZM184.5 200.2L184.5 200.2Q177.4 200.2 173.4 196.0Q169.4 191.7 169.4 184.2L169.4 184.2Q169.4 176.7 173.4 172.3Q177.4 167.9 184.1 167.9L184.1 167.9Q190.5 167.9 194.4 171.9Q198.4 176.0 198.4 182.4L198.4 182.4Q198.4 184.0 197.5 184.9Q196.6 185.8 195.0 185.8L195.0 185.8L176.7 185.8L176.7 186.0Q176.7 189.9 178.8 192.3Q180.9 194.6 184.5 194.6L184.5 194.6Q186.9 194.6 188.7 193.6Q190.5 192.7 192.2 190.4L192.2 190.4Q193.3 189.3 194.7 189.3L194.7 189.3Q195.9 189.3 196.8 190.0Q197.6 190.8 197.6 192.1L197.6 192.1Q197.6 192.9 197.1 193.9L197.1 193.9Q195.6 196.9 192.3 198.5Q188.9 200.2 184.5 200.2ZM176.8 181.0L176.8 181.0L191.3 181.0Q191.1 177.6 189.2 175.6Q187.2 173.5 184.1 173.5Q181.1 173.5 179.0 175.6Q177.0 177.7 176.8 181.0ZM209.8 163.0Q208.6 164.2 206.9 164.2Q205.2 164.2 204.0 163.0Q202.9 161.8 202.9 160.2L202.9 160.2Q202.9 158.5 204.0 157.4Q205.2 156.2 206.9 156.2L206.9 156.2Q208.6 156.2 209.8 157.4Q211.0 158.5 211.0 160.2L211.0 160.2Q211.0 161.8 209.8 163.0ZM209.6 199.1Q208.6 200.2 206.9 200.2Q205.2 200.2 204.3 199.1Q203.3 198.1 203.3 196.3L203.3 196.3L203.3 171.7Q203.3 170.0 204.3 168.9Q205.2 167.9 206.9 167.9Q208.6 167.9 209.6 168.9Q210.6 170.0 210.6 171.8L210.6 171.8L210.6 196.3Q210.6 198.1 209.6 199.1ZM223.0 199.2Q222.0 200.2 220.3 200.2Q218.7 200.2 217.7 199.2Q216.7 198.1 216.7 196.3L216.7 196.3L216.7 171.6Q216.7 169.9 217.6 168.9Q218.6 167.9 220.2 167.9Q221.8 167.9 222.8 168.9Q223.8 169.9 223.8 171.6L223.8 171.6L223.8 173.8L223.9 173.8Q226.6 167.9 233.6 167.9L233.6 167.9Q238.7 167.9 241.5 171.0Q244.3 174.1 244.3 179.5L244.3 179.5L244.3 196.3Q244.3 198.1 243.3 199.2Q242.4 200.2 240.7 200.2Q239.1 200.2 238.1 199.2Q237.1 198.1 237.1 196.3L237.1 196.3L237.1 181.0Q237.1 177.6 235.5 175.9Q233.9 174.1 230.8 174.1L230.8 174.1Q227.7 174.1 225.8 176.2Q224.0 178.2 224.0 181.6L224.0 181.6L224.0 196.3Q224.0 198.1 223.0 199.2ZM263.6 211.3L263.6 211.3Q259.2 211.2 255.9 209.7Q252.6 208.2 251.0 205.6L251.0 205.6Q250.4 204.6 250.4 203.4L250.4 203.4Q250.4 202.2 251.2 201.4Q252.0 200.6 253.4 200.6L253.4 200.6Q254.8 200.6 256.1 201.8L256.1 201.8Q257.9 203.7 259.7 204.6Q261.5 205.4 263.6 205.5L263.6 205.5Q267.3 205.5 269.4 203.6Q271.5 201.7 271.5 198.6L271.5 198.6L271.5 193.7L271.4 193.7Q270.2 196.2 267.5 197.7Q264.9 199.3 261.7 199.3L261.7 199.3Q255.8 199.3 252.3 195.0Q248.9 190.8 248.9 183.7L248.9 183.7Q248.9 176.4 252.3 172.2Q255.8 168.0 261.8 168.0L261.8 168.0Q265.1 168.0 267.6 169.5Q270.1 171.1 271.4 173.8L271.4 173.8L271.6 173.8L271.6 171.6Q271.6 169.9 272.6 168.9Q273.6 167.9 275.2 167.9Q276.8 167.9 277.8 168.9Q278.9 169.9 278.9 171.6L278.9 171.6L278.9 198.6Q278.9 204.5 274.8 207.9Q270.7 211.3 263.6 211.3ZM263.9 193.6L263.9 193.6Q267.4 193.6 269.5 190.9Q271.6 188.3 271.6 183.7L271.6 183.7Q271.6 179.2 269.5 176.5Q267.4 173.8 263.9 173.8L263.9 173.8Q260.4 173.8 258.4 176.5Q256.4 179.2 256.4 183.7L256.4 183.7Q256.4 188.3 258.4 191.0Q260.4 193.6 263.9 193.6Z M298.8 191.9L298.8 191.9L298.8 174.1L296.9 174.1Q295.5 174.1 294.7 173.4Q293.9 172.6 293.9 171.3L293.9 171.3Q293.9 170.0 294.7 169.3Q295.5 168.5 296.9 168.5L296.9 168.5L298.8 168.5L298.8 164.4Q298.8 162.6 299.8 161.6Q300.8 160.6 302.5 160.6L302.5 160.6Q304.2 160.6 305.2 161.6Q306.1 162.6 306.1 164.4L306.1 164.4L306.1 168.5L309.5 168.5Q310.9 168.5 311.7 169.3Q312.4 170.0 312.4 171.3L312.4 171.3Q312.4 172.6 311.6 173.4Q310.8 174.1 309.5 174.1L309.5 174.1L306.1 174.1L306.1 190.3Q306.1 192.1 306.8 192.9Q307.5 193.7 309.1 193.9L309.1 193.9L309.6 193.9Q312.5 194.2 312.5 196.6L312.5 196.6Q312.5 198.2 311.2 199.1Q309.8 199.9 307.3 199.9L307.3 199.9L307.0 199.9Q298.8 199.9 298.8 191.9ZM341.6 195.9Q337.6 200.2 330.7 200.2Q323.8 200.2 319.7 195.9Q315.7 191.6 315.7 184.1L315.7 184.1Q315.7 176.6 319.8 172.2Q323.9 167.9 330.7 167.9L330.7 167.9Q337.5 167.9 341.6 172.2Q345.7 176.6 345.7 184.1L345.7 184.1Q345.7 191.6 341.6 195.9ZM325.1 191.7Q327.2 194.4 330.7 194.4Q334.2 194.4 336.3 191.7Q338.3 189.0 338.3 184.1L338.3 184.1Q338.3 179.2 336.3 176.4Q334.2 173.7 330.7 173.7L330.7 173.7Q327.2 173.7 325.1 176.4Q323.1 179.2 323.1 184.1L323.1 184.1Q323.1 189.0 325.1 191.7Z M378.6 199.6L366.9 199.6Q365.2 199.6 364.2 198.5Q363.1 197.5 363.1 195.7L363.1 195.7L363.1 161.2Q363.1 159.4 364.2 158.3Q365.2 157.3 366.9 157.3L366.9 157.3L378.6 157.3Q388.1 157.3 393.4 162.8Q398.7 168.3 398.7 178.3L398.7 178.3Q398.7 188.4 393.4 194.0Q388.1 199.6 378.6 199.6L378.6 199.6ZM370.7 163.7L370.7 193.2L377.8 193.2Q384.2 193.2 387.6 189.4Q391.0 185.6 391.0 178.4L391.0 178.4Q391.0 171.3 387.5 167.5Q384.1 163.7 377.8 163.7L377.8 163.7L370.7 163.7ZM410.6 163.0Q409.4 164.2 407.7 164.2Q406.0 164.2 404.9 163.0Q403.7 161.8 403.7 160.2L403.7 160.2Q403.7 158.5 404.9 157.4Q406.0 156.2 407.7 156.2L407.7 156.2Q409.5 156.2 410.6 157.4Q411.8 158.5 411.8 160.2L411.8 160.2Q411.8 161.8 410.6 163.0ZM410.4 199.1Q409.4 200.2 407.7 200.2Q406.1 200.2 405.1 199.1Q404.1 198.1 404.1 196.3L404.1 196.3L404.1 171.7Q404.1 170.0 405.1 168.9Q406.1 167.9 407.7 167.9Q409.4 167.9 410.4 168.9Q411.4 170.0 411.4 171.8L411.4 171.8L411.4 196.3Q411.4 198.1 410.4 199.1ZM429.5 200.2L429.5 200.2Q424.7 200.2 421.3 198.5Q418.0 196.8 416.8 194.0L416.8 194.0Q416.6 193.2 416.6 192.5L416.6 192.5Q416.6 191.2 417.4 190.4Q418.3 189.6 419.6 189.6L419.6 189.6Q421.4 189.6 422.8 191.4L422.8 191.4Q424.0 193.3 425.6 194.1Q427.2 194.9 429.8 194.9L429.8 194.9Q432.3 194.9 433.9 193.9Q435.4 192.8 435.4 191.1L435.4 191.1Q435.4 189.7 434.4 188.8Q433.4 188.0 431.1 187.4L431.1 187.4L426.0 186.3Q417.0 184.3 417.0 177.4L417.0 177.4Q417.0 173.1 420.4 170.5Q423.9 167.9 429.6 167.9L429.6 167.9Q434.0 167.9 437.2 169.8Q440.5 171.6 441.2 174.4L441.2 174.4Q441.3 175.0 441.3 175.5L441.3 175.5Q441.3 176.6 440.6 177.4Q439.9 178.1 438.5 178.1L438.5 178.1Q436.7 178.1 435.7 176.7L435.7 176.7Q434.6 175.0 433.1 174.1Q431.6 173.2 429.4 173.2L429.4 173.2Q427.0 173.2 425.5 174.3Q424.1 175.3 424.1 177.0L424.1 177.0Q424.1 179.8 428.6 180.8L428.6 180.8L433.6 181.9Q438.5 183.0 440.6 184.9Q442.7 186.9 442.7 190.3L442.7 190.3Q442.7 194.8 439.1 197.5Q435.4 200.2 429.5 200.2ZM456.5 200.1L456.5 200.1Q451.9 200.1 449.0 197.5Q446.1 194.9 446.1 190.7L446.1 190.7Q446.1 186.6 449.1 184.2Q452.2 181.8 457.9 181.4L457.9 181.4L466.1 180.9L466.1 178.7Q466.1 176.3 464.6 174.9Q463.0 173.6 460.3 173.6L460.3 173.6Q458.2 173.6 456.7 174.4Q455.2 175.2 453.8 177.2L453.8 177.2Q452.7 178.7 450.9 178.7L450.9 178.7Q449.5 178.7 448.6 177.9Q447.8 177.1 447.8 175.8L447.8 175.8Q447.8 174.8 448.3 173.8L448.3 173.8Q449.5 171.1 452.8 169.5Q456.2 167.9 460.6 167.9L460.6 167.9Q466.4 167.9 469.9 170.7Q473.3 173.5 473.3 178.2L473.3 178.2L473.3 196.5Q473.3 198.2 472.3 199.2Q471.4 200.2 469.8 200.2L469.8 200.2Q468.3 200.2 467.3 199.3Q466.4 198.4 466.3 196.8L466.3 196.8L466.3 194.6L466.2 194.6Q464.8 197.1 462.2 198.6Q459.5 200.1 456.5 200.1ZM458.7 194.6L458.7 194.6Q461.8 194.6 464.0 192.7Q466.1 190.8 466.1 188.1L466.1 188.1L466.1 185.7L458.9 186.1Q456.3 186.3 454.8 187.4Q453.4 188.6 453.4 190.4L453.4 190.4Q453.4 192.3 454.8 193.4Q456.3 194.6 458.7 194.6ZM492.6 211.3L492.6 211.3Q488.2 211.2 484.9 209.7Q481.6 208.2 480.0 205.6L480.0 205.6Q479.4 204.6 479.4 203.4L479.4 203.4Q479.4 202.2 480.2 201.4Q481.0 200.6 482.4 200.6L482.4 200.6Q483.8 200.6 485.1 201.8L485.1 201.8Q487.0 203.7 488.7 204.6Q490.5 205.4 492.6 205.5L492.6 205.5Q496.3 205.5 498.4 203.6Q500.5 201.7 500.5 198.6L500.5 198.6L500.5 193.7L500.4 193.7Q499.2 196.2 496.6 197.7Q494.0 199.3 490.7 199.3L490.7 199.3Q484.8 199.3 481.4 195.0Q477.9 190.8 477.9 183.7L477.9 183.7Q477.9 176.4 481.4 172.2Q484.8 168.0 490.8 168.0L490.8 168.0Q494.1 168.0 496.6 169.5Q499.1 171.1 500.5 173.8L500.5 173.8L500.6 173.8L500.6 171.6Q500.6 169.9 501.6 168.9Q502.6 167.9 504.2 167.9Q505.8 167.9 506.9 168.9Q507.9 169.9 507.9 171.6L507.9 171.6L507.9 198.6Q507.9 204.5 503.8 207.9Q499.7 211.3 492.6 211.3ZM492.9 193.6L492.9 193.6Q496.4 193.6 498.5 190.9Q500.6 188.3 500.6 183.7L500.6 183.7Q500.6 179.2 498.5 176.5Q496.4 173.8 492.9 173.8L492.9 173.8Q489.4 173.8 487.4 176.5Q485.4 179.2 485.4 183.7L485.4 183.7Q485.4 188.3 487.4 191.0Q489.4 193.6 492.9 193.6ZM520.1 199.1Q519.1 200.2 517.5 200.2Q515.8 200.2 514.8 199.1Q513.8 198.1 513.8 196.3L513.8 196.3L513.8 171.6Q513.8 169.9 514.8 168.9Q515.7 167.9 517.3 167.9L517.3 167.9Q518.8 167.9 519.8 168.9Q520.8 169.9 520.8 171.6L520.8 171.6L520.8 174.0L520.9 174.0Q521.6 171.3 523.4 169.6Q525.2 168.0 527.6 168.0L527.6 168.0Q529.3 168.0 530.1 168.8L530.1 168.8Q531.2 169.6 531.2 171.4L531.2 171.4Q531.2 173.1 530.1 174.0L530.1 174.0Q529.0 174.9 526.9 175.0L526.9 175.0Q521.1 175.0 521.1 181.4L521.1 181.4L521.1 196.3Q521.1 198.1 520.1 199.1ZM548.2 200.2L548.2 200.2Q541.1 200.2 537.1 196.0Q533.2 191.7 533.2 184.2L533.2 184.2Q533.2 176.7 537.1 172.3Q541.1 167.9 547.8 167.9L547.8 167.9Q554.2 167.9 558.2 171.9Q562.1 176.0 562.1 182.4L562.1 182.4Q562.1 184.0 561.2 184.9Q560.3 185.8 558.7 185.8L558.7 185.8L540.4 185.8L540.4 186.0Q540.4 189.9 542.5 192.3Q544.6 194.6 548.2 194.6L548.2 194.6Q550.6 194.6 552.4 193.6Q554.2 192.7 555.9 190.4L555.9 190.4Q557.0 189.3 558.4 189.3L558.4 189.3Q559.7 189.3 560.5 190.0Q561.3 190.8 561.3 192.1L561.3 192.1Q561.3 192.9 560.8 193.9L560.8 193.9Q559.3 196.9 556.0 198.5Q552.7 200.2 548.2 200.2ZM540.5 181.0L540.5 181.0L555.0 181.0Q554.9 177.6 552.9 175.6Q550.9 173.5 547.9 173.5Q544.8 173.5 542.7 175.6Q540.7 177.7 540.5 181.0ZM580.6 200.2L580.6 200.2Q573.5 200.2 569.5 196.0Q565.5 191.7 565.5 184.2L565.5 184.2Q565.5 176.7 569.5 172.3Q573.5 167.9 580.2 167.9L580.2 167.9Q586.6 167.9 590.5 171.9Q594.5 176.0 594.5 182.4L594.5 182.4Q594.5 184.0 593.6 184.9Q592.7 185.8 591.1 185.8L591.1 185.8L572.8 185.8L572.8 186.0Q572.8 189.9 574.9 192.3Q577.0 194.6 580.6 194.6L580.6 194.6Q583.0 194.6 584.8 193.6Q586.6 192.7 588.3 190.4L588.3 190.4Q589.4 189.3 590.8 189.3L590.8 189.3Q592.0 189.3 592.9 190.0Q593.7 190.8 593.7 192.1L593.7 192.1Q593.7 192.9 593.2 193.9L593.2 193.9Q591.7 196.9 588.3 198.5Q585.0 200.2 580.6 200.2ZM572.9 181.0L572.9 181.0L587.4 181.0Q587.2 177.6 585.3 175.6Q583.3 173.5 580.2 173.5Q577.2 173.5 575.1 175.6Q573.1 177.7 572.9 181.0ZM604.3 178.7L604.3 178.7Q602.5 178.7 601.3 177.5Q600.1 176.3 600.1 174.5Q600.1 172.8 601.3 171.5Q602.5 170.3 604.3 170.3L604.3 170.3Q606.0 170.3 607.3 171.5Q608.5 172.8 608.5 174.5Q608.5 176.3 607.3 177.5Q606.0 178.7 604.3 178.7ZM604.3 199.9L604.3 199.9Q602.5 199.9 601.3 198.7Q600.1 197.5 600.1 195.7L600.1 195.7Q600.1 193.9 601.3 192.7Q602.5 191.5 604.3 191.5L604.3 191.5Q606.0 191.5 607.3 192.7Q608.5 193.9 608.5 195.7L608.5 195.7Q608.5 197.5 607.3 198.7Q606.0 199.9 604.3 199.9Z M642.2 200.1L642.2 200.1Q640.4 200.1 639.4 199.1Q638.4 198.0 638.4 196.2L638.4 196.2L638.4 163.7L628.8 163.7Q627.2 163.7 626.2 162.8Q625.3 162.0 625.3 160.5Q625.3 159.0 626.2 158.2Q627.2 157.3 628.8 157.3L628.8 157.3L655.6 157.3Q657.2 157.3 658.1 158.2Q659.1 159.0 659.1 160.5Q659.1 162.0 658.1 162.8Q657.2 163.7 655.6 163.7L655.6 163.7L645.9 163.7L645.9 196.2Q645.9 198.0 645.0 199.1Q644.0 200.1 642.2 200.1ZM669.3 199.1Q668.3 200.2 666.6 200.2Q665.0 200.2 664.0 199.1Q663.0 198.1 663.0 196.3L663.0 196.3L663.0 171.6Q663.0 169.9 664.0 168.9Q664.9 167.9 666.5 167.9L666.5 167.9Q668.0 167.9 669.0 168.9Q669.9 169.9 669.9 171.6L669.9 171.6L669.9 174.0L670.1 174.0Q670.7 171.3 672.6 169.6Q674.4 168.0 676.7 168.0L676.7 168.0Q678.4 168.0 679.3 168.8L679.3 168.8Q680.3 169.6 680.3 171.4L680.3 171.4Q680.3 173.1 679.3 174.0L679.3 174.0Q678.2 174.9 676.0 175.0L676.0 175.0Q670.3 175.0 670.3 181.4L670.3 181.4L670.3 196.3Q670.3 198.1 669.3 199.1ZM692.7 200.1L692.7 200.1Q688.2 200.1 685.3 197.5Q682.4 194.9 682.4 190.7L682.4 190.7Q682.4 186.6 685.4 184.2Q688.5 181.8 694.2 181.4L694.2 181.4L702.4 180.9L702.4 178.7Q702.4 176.3 700.9 174.9Q699.3 173.6 696.6 173.6L696.6 173.6Q694.4 173.6 692.9 174.4Q691.4 175.2 690.1 177.2L690.1 177.2Q689.0 178.7 687.1 178.7L687.1 178.7Q685.8 178.7 684.9 177.9Q684.1 177.1 684.1 175.8L684.1 175.8Q684.1 174.8 684.6 173.8L684.6 173.8Q685.7 171.1 689.1 169.5Q692.4 167.9 696.9 167.9L696.9 167.9Q702.7 167.9 706.1 170.7Q709.6 173.5 709.6 178.2L709.6 178.2L709.6 196.5Q709.6 198.2 708.6 199.2Q707.6 200.2 706.1 200.2L706.1 200.2Q704.5 200.2 703.6 199.3Q702.7 198.4 702.6 196.8L702.6 196.8L702.6 194.6L702.4 194.6Q701.1 197.1 698.4 198.6Q695.8 200.1 692.7 200.1ZM695.0 194.6L695.0 194.6Q698.1 194.6 700.2 192.7Q702.4 190.8 702.4 188.1L702.4 188.1L702.4 185.7L695.2 186.1Q692.6 186.3 691.1 187.4Q689.7 188.6 689.7 190.4L689.7 190.4Q689.7 192.3 691.1 193.4Q692.6 194.6 695.0 194.6ZM721.8 199.2Q720.7 200.2 719.1 200.2Q717.5 200.2 716.5 199.2Q715.5 198.1 715.5 196.3L715.5 196.3L715.5 171.6Q715.5 169.9 716.4 168.9Q717.3 167.9 719.0 167.9Q720.6 167.9 721.6 168.9Q722.6 169.9 722.6 171.6L722.6 171.6L722.6 173.8L722.7 173.8Q725.3 167.9 732.4 167.9L732.4 167.9Q737.5 167.9 740.3 171.0Q743.1 174.1 743.1 179.5L743.1 179.5L743.1 196.3Q743.1 198.1 742.1 199.2Q741.1 200.2 739.5 200.2Q737.9 200.2 736.8 199.2Q735.8 198.1 735.8 196.3L735.8 196.3L735.8 181.0Q735.8 177.6 734.3 175.9Q732.7 174.1 729.6 174.1L729.6 174.1Q726.5 174.1 724.6 176.2Q722.8 178.2 722.8 181.6L722.8 181.6L722.8 196.3Q722.8 198.1 721.8 199.2ZM760.9 200.2L760.9 200.2Q756.1 200.2 752.8 198.5Q749.4 196.8 748.3 194.0L748.3 194.0Q748.0 193.2 748.0 192.5L748.0 192.5Q748.0 191.2 748.8 190.4Q749.7 189.6 751.0 189.6L751.0 189.6Q752.9 189.6 754.2 191.4L754.2 191.4Q755.5 193.3 757.1 194.1Q758.7 194.9 761.2 194.9L761.2 194.9Q763.8 194.9 765.3 193.9Q766.9 192.8 766.9 191.1L766.9 191.1Q766.9 189.7 765.9 188.8Q764.9 188.0 762.5 187.4L762.5 187.4L757.5 186.3Q748.4 184.3 748.4 177.4L748.4 177.4Q748.4 173.1 751.9 170.5Q755.3 167.9 761.1 167.9L761.1 167.9Q765.4 167.9 768.7 169.8Q771.9 171.6 772.6 174.4L772.6 174.4Q772.8 175.0 772.8 175.5L772.8 175.5Q772.8 176.6 772.0 177.4Q771.3 178.1 770.0 178.1L770.0 178.1Q768.1 178.1 767.2 176.7L767.2 176.7Q766.0 175.0 764.6 174.1Q763.1 173.2 760.9 173.2L760.9 173.2Q758.5 173.2 757.0 174.3Q755.5 175.3 755.5 177.0L755.5 177.0Q755.5 179.8 760.1 180.8L760.1 180.8L765.0 181.9Q769.9 183.0 772.1 184.9Q774.2 186.9 774.2 190.3L774.2 190.3Q774.2 194.8 770.5 197.5Q766.9 200.2 760.9 200.2ZM785.3 199.2Q784.3 200.2 782.6 200.2Q781.0 200.2 780.0 199.2Q779.0 198.1 779.0 196.3L779.0 196.3L779.0 160.6Q779.0 158.7 780.0 157.7Q781.0 156.7 782.6 156.7Q784.3 156.7 785.3 157.7Q786.3 158.7 786.3 160.6L786.3 160.6L786.3 196.3Q786.3 198.1 785.3 199.2ZM801.6 200.1L801.6 200.1Q797.1 200.1 794.1 197.5Q791.2 194.9 791.2 190.7L791.2 190.7Q791.2 186.6 794.3 184.2Q797.4 181.8 803.0 181.4L803.0 181.4L811.3 180.9L811.3 178.7Q811.3 176.3 809.7 174.9Q808.2 173.6 805.5 173.6L805.5 173.6Q803.3 173.6 801.8 174.4Q800.3 175.2 799.0 177.2L799.0 177.2Q797.9 178.7 796.0 178.7L796.0 178.7Q794.7 178.7 793.8 177.9Q792.9 177.1 792.9 175.8L792.9 175.8Q792.9 174.8 793.4 173.8L793.4 173.8Q794.6 171.1 798.0 169.5Q801.3 167.9 805.8 167.9L805.8 167.9Q811.5 167.9 815.0 170.7Q818.5 173.5 818.5 178.2L818.5 178.2L818.5 196.5Q818.5 198.2 817.5 199.2Q816.5 200.2 814.9 200.2L814.9 200.2Q813.4 200.2 812.5 199.3Q811.5 198.4 811.4 196.8L811.4 196.8L811.4 194.6L811.3 194.6Q810.0 197.1 807.3 198.6Q804.6 200.1 801.6 200.1ZM803.8 194.6L803.8 194.6Q806.9 194.6 809.1 192.7Q811.3 190.8 811.3 188.1L811.3 188.1L811.3 185.7L804.1 186.1Q801.4 186.3 800.0 187.4Q798.5 188.6 798.5 190.4L798.5 190.4Q798.5 192.3 800.0 193.4Q801.4 194.6 803.8 194.6ZM826.4 191.9L826.4 191.9L826.4 174.1L824.4 174.1Q823.0 174.1 822.3 173.4Q821.5 172.6 821.5 171.3L821.5 171.3Q821.5 170.0 822.2 169.3Q823.0 168.5 824.4 168.5L824.4 168.5L826.4 168.5L826.4 164.4Q826.4 162.6 827.3 161.6Q828.3 160.6 830.0 160.6L830.0 160.6Q831.7 160.6 832.7 161.6Q833.7 162.6 833.7 164.4L833.7 164.4L833.7 168.5L837.0 168.5Q838.4 168.5 839.2 169.3Q840.0 170.0 840.0 171.3L840.0 171.3Q840.0 172.6 839.2 173.4Q838.4 174.1 837.0 174.1L837.0 174.1L833.7 174.1L833.7 190.3Q833.7 192.1 834.3 192.9Q835 193.7 836.6 193.9L836.6 193.9L837.1 193.9Q840.0 194.2 840.0 196.6L840.0 196.6Q840.0 198.2 838.7 199.1Q837.3 199.9 834.8 199.9L834.8 199.9L834.5 199.9Q826.4 199.9 826.4 191.9ZM851.2 163.0Q850.0 164.2 848.3 164.2Q846.6 164.2 845.4 163.0Q844.2 161.8 844.2 160.2L844.2 160.2Q844.2 158.5 845.4 157.4Q846.6 156.2 848.3 156.2L848.3 156.2Q850 156.2 851.2 157.4Q852.3 158.5 852.3 160.2L852.3 160.2Q852.3 161.8 851.2 163.0ZM850.9 199.1Q849.9 200.2 848.3 200.2Q846.6 200.2 845.6 199.1Q844.6 198.1 844.6 196.3L844.6 196.3L844.6 171.7Q844.6 170.0 845.6 168.9Q846.6 167.9 848.3 167.9Q849.9 167.9 850.9 168.9Q851.9 170.0 851.9 171.8L851.9 171.8L851.9 196.3Q851.9 198.1 850.9 199.1ZM864.3 199.2Q863.3 200.2 861.7 200.2Q860.0 200.2 859.1 199.2Q858.1 198.1 858.1 196.3L858.1 196.3L858.1 171.6Q858.1 169.9 859.0 168.9Q859.9 167.9 861.5 167.9Q863.2 167.9 864.2 168.9Q865.1 169.9 865.1 171.6L865.1 171.6L865.1 173.8L865.3 173.8Q867.9 167.9 875.0 167.9L875.0 167.9Q880.1 167.9 882.9 171.0Q885.7 174.1 885.7 179.5L885.7 179.5L885.7 196.3Q885.7 198.1 884.7 199.2Q883.7 200.2 882.1 200.2Q880.4 200.2 879.4 199.2Q878.4 198.1 878.4 196.3L878.4 196.3L878.4 181.0Q878.4 177.6 876.9 175.9Q875.3 174.1 872.2 174.1L872.2 174.1Q869.1 174.1 867.2 176.2Q865.4 178.2 865.4 181.6L865.4 181.6L865.4 196.3Q865.4 198.1 864.3 199.2ZM904.9 211.3L904.9 211.3Q900.6 211.2 897.3 209.7Q893.9 208.2 892.3 205.6L892.3 205.6Q891.7 204.6 891.7 203.4L891.7 203.4Q891.7 202.2 892.6 201.4Q893.4 200.6 894.8 200.6L894.8 200.6Q896.2 200.6 897.4 201.8L897.4 201.8Q899.3 203.7 901.1 204.6Q902.8 205.4 905.0 205.5L905.0 205.5Q908.7 205.5 910.8 203.6Q912.9 201.7 912.9 198.6L912.9 198.6L912.9 193.7L912.8 193.7Q911.5 196.2 908.9 197.7Q906.3 199.3 903.0 199.3L903.0 199.3Q897.2 199.3 893.7 195.0Q890.3 190.8 890.3 183.7L890.3 183.7Q890.3 176.4 893.7 172.2Q897.2 168.0 903.2 168.0L903.2 168.0Q906.4 168.0 908.9 169.5Q911.4 171.1 912.8 173.8L912.8 173.8L912.9 173.8L912.9 171.6Q912.9 169.9 914.0 168.9Q915.0 167.9 916.6 167.9Q918.2 167.9 919.2 168.9Q920.2 169.9 920.2 171.6L920.2 171.6L920.2 198.6Q920.2 204.5 916.2 207.9Q912.1 211.3 904.9 211.3ZM905.3 193.6L905.3 193.6Q908.8 193.6 910.9 190.9Q913.0 188.3 913.0 183.7L913.0 183.7Q913.0 179.2 910.8 176.5Q908.7 173.8 905.3 173.8L905.3 173.8Q901.8 173.8 899.8 176.5Q897.7 179.2 897.7 183.7L897.7 183.7Q897.7 188.3 899.8 191.0Q901.8 193.6 905.3 193.6Z M50.3 281.6Q49.3 282.7 47.5 282.7Q45.7 282.7 44.7 281.6Q43.7 280.6 43.7 278.7L43.7 278.7L43.7 243.7Q43.7 241.9 44.7 240.8Q45.7 239.8 47.5 239.8L47.5 239.8L60.5 239.8Q67.3 239.8 71.2 243.3Q75.1 246.9 75.1 253.0L75.1 253.0Q75.1 257.1 73.1 260.3Q71.1 263.5 67.4 264.9L67.4 264.9L74.1 276.6Q74.9 278.0 74.9 279.2L74.9 279.2Q74.9 280.7 73.8 281.7Q72.8 282.7 71.1 282.7L71.1 282.7Q69.8 282.7 69.0 282.1Q68.2 281.5 67.3 279.9L67.3 279.9L59.7 266.2L51.3 266.2L51.3 278.7Q51.3 280.6 50.3 281.6ZM51.3 245.9L51.3 260.4L59.8 260.4Q63.4 260.4 65.4 258.5Q67.4 256.6 67.4 253.1L67.4 253.1Q67.4 249.8 65.3 247.9Q63.2 245.9 59.7 245.9L59.7 245.9L51.3 245.9ZM94.3 282.7L94.3 282.7Q87.2 282.7 83.2 278.5Q79.2 274.2 79.2 266.7L79.2 266.7Q79.2 259.2 83.2 254.8Q87.2 250.4 93.9 250.4L93.9 250.4Q100.2 250.4 104.2 254.4Q108.2 258.5 108.2 264.9L108.2 264.9Q108.2 266.5 107.3 267.4Q106.4 268.3 104.8 268.3L104.8 268.3L86.5 268.3L86.5 268.5Q86.5 272.4 88.6 274.8Q90.7 277.1 94.2 277.1L94.2 277.1Q96.7 277.1 98.5 276.1Q100.2 275.2 102.0 272.9L102.0 272.9Q103.0 271.8 104.5 271.8L104.5 271.8Q105.7 271.8 106.5 272.5Q107.4 273.3 107.4 274.6L107.4 274.6Q107.4 275.4 106.9 276.4L106.9 276.4Q105.3 279.4 102.0 281.0Q98.7 282.7 94.3 282.7ZM86.5 263.5L86.5 263.5L101.0 263.5Q100.9 260.1 98.9 258.1Q97.0 256.0 93.9 256.0Q90.8 256.0 88.8 258.1Q86.7 260.2 86.5 263.5ZM119.1 292.1Q118.1 293.1 116.5 293.1Q114.9 293.1 113.9 292.1Q112.9 291.1 112.9 289.3L112.9 289.3L112.9 254.2Q112.9 252.4 113.8 251.4Q114.8 250.4 116.4 250.4L116.4 250.4Q118.0 250.4 119.0 251.4Q120.0 252.4 120.0 254.2L120.0 254.2L120.0 256.4L120.1 256.4Q121.5 253.6 124.0 252.1Q126.6 250.5 129.9 250.5L129.9 250.5Q135.8 250.5 139.3 254.8Q142.8 259.1 142.8 266.6L142.8 266.6Q142.8 274.0 139.3 278.3Q135.9 282.6 130.0 282.6L130.0 282.6Q126.7 282.6 124.1 281.1Q121.6 279.6 120.3 276.9L120.3 276.9L120.2 276.9L120.2 289.3Q120.2 291.1 119.1 292.1ZM127.7 276.6L127.7 276.6Q131.2 276.6 133.3 273.9Q135.3 271.2 135.3 266.6L135.3 266.6Q135.3 262.0 133.3 259.2Q131.2 256.5 127.7 256.5L127.7 256.5Q124.3 256.5 122.2 259.3Q120.1 262.0 120.1 266.6L120.1 266.6Q120.1 271.1 122.2 273.9Q124.3 276.6 127.7 276.6ZM153.8 281.6Q152.8 282.7 151.1 282.7Q149.5 282.7 148.5 281.6Q147.5 280.6 147.5 278.8L147.5 278.8L147.5 254.1Q147.5 252.4 148.4 251.4Q149.4 250.4 151.0 250.4L151.0 250.4Q152.5 250.4 153.5 251.4Q154.4 252.4 154.4 254.1L154.4 254.1L154.4 256.5L154.6 256.5Q155.2 253.8 157.1 252.1Q158.9 250.5 161.2 250.5L161.2 250.5Q162.9 250.5 163.8 251.3L163.8 251.3Q164.8 252.1 164.8 253.9L164.8 253.9Q164.8 255.6 163.8 256.5L163.8 256.5Q162.7 257.4 160.5 257.5L160.5 257.5Q154.8 257.5 154.8 263.9L154.8 263.9L154.8 278.8Q154.8 280.6 153.8 281.6ZM181.9 282.7L181.9 282.7Q174.8 282.7 170.8 278.5Q166.8 274.2 166.8 266.7L166.8 266.7Q166.8 259.2 170.8 254.8Q174.8 250.4 181.5 250.4L181.5 250.4Q187.9 250.4 191.8 254.4Q195.8 258.5 195.8 264.9L195.8 264.9Q195.8 266.5 194.9 267.4Q194.0 268.3 192.4 268.3L192.4 268.3L174.1 268.3L174.1 268.5Q174.1 272.4 176.2 274.8Q178.3 277.1 181.9 277.1L181.9 277.1Q184.3 277.1 186.1 276.1Q187.9 275.2 189.6 272.9L189.6 272.9Q190.7 271.8 192.1 271.8L192.1 271.8Q193.3 271.8 194.2 272.5Q195.0 273.3 195.0 274.6L195.0 274.6Q195.0 275.4 194.5 276.4L194.5 276.4Q193.0 279.4 189.6 281.0Q186.3 282.7 181.9 282.7ZM174.2 263.5L174.2 263.5L188.7 263.5Q188.5 260.1 186.6 258.1Q184.6 256.0 181.5 256.0Q178.5 256.0 176.4 258.1Q174.4 260.2 174.2 263.5ZM212.5 282.7L212.5 282.7Q207.6 282.7 204.3 281.0Q201.0 279.3 199.8 276.5L199.8 276.5Q199.5 275.7 199.5 275.0L199.5 275.0Q199.5 273.7 200.4 272.9Q201.2 272.1 202.6 272.1L202.6 272.1Q204.4 272.1 205.7 273.9L205.7 273.9Q207.0 275.8 208.6 276.6Q210.2 277.4 212.7 277.4L212.7 277.4Q215.3 277.4 216.9 276.4Q218.4 275.3 218.4 273.6L218.4 273.6Q218.4 272.2 217.4 271.3Q216.4 270.5 214.0 269.9L214.0 269.9L209.0 268.8Q199.9 266.8 199.9 259.9L199.9 259.9Q199.9 255.6 203.4 253.0Q206.8 250.4 212.6 250.4L212.6 250.4Q217.0 250.4 220.2 252.3Q223.4 254.1 224.2 256.9L224.2 256.9Q224.3 257.5 224.3 258.0L224.3 258.0Q224.3 259.1 223.6 259.9Q222.8 260.6 221.5 260.6L221.5 260.6Q219.6 260.6 218.7 259.2L218.7 259.2Q217.6 257.5 216.1 256.6Q214.6 255.7 212.4 255.7L212.4 255.7Q210.0 255.7 208.5 256.8Q207.0 257.8 207.0 259.5L207.0 259.5Q207.0 262.3 211.6 263.3L211.6 263.3L216.5 264.4Q221.5 265.5 223.6 267.4Q225.7 269.4 225.7 272.8L225.7 272.8Q225.7 277.3 222.1 280.0Q218.4 282.7 212.5 282.7ZM244.1 282.7L244.1 282.7Q237.0 282.7 233.0 278.5Q229.0 274.2 229.0 266.7L229.0 266.7Q229.0 259.2 233.0 254.8Q237.0 250.4 243.7 250.4L243.7 250.4Q250.1 250.4 254.0 254.4Q258.0 258.5 258.0 264.9L258.0 264.9Q258.0 266.5 257.1 267.4Q256.2 268.3 254.6 268.3L254.6 268.3L236.3 268.3L236.3 268.5Q236.3 272.4 238.4 274.8Q240.5 277.1 244.1 277.1L244.1 277.1Q246.5 277.1 248.3 276.1Q250.1 275.2 251.8 272.9L251.8 272.9Q252.9 271.8 254.3 271.8L254.3 271.8Q255.5 271.8 256.4 272.5Q257.2 273.3 257.2 274.6L257.2 274.6Q257.2 275.4 256.7 276.4L256.7 276.4Q255.2 279.4 251.8 281.0Q248.5 282.7 244.1 282.7ZM236.3 263.5L236.3 263.5L250.8 263.5Q250.7 260.1 248.8 258.1Q246.8 256.0 243.7 256.0Q240.7 256.0 238.6 258.1Q236.6 260.2 236.3 263.5ZM269.0 281.7Q268.0 282.7 266.3 282.7Q264.7 282.7 263.7 281.7Q262.7 280.6 262.7 278.8L262.7 278.8L262.7 254.1Q262.7 252.4 263.6 251.4Q264.6 250.4 266.2 250.4Q267.8 250.4 268.8 251.4Q269.8 252.4 269.8 254.1L269.8 254.1L269.8 256.3L269.9 256.3Q272.6 250.4 279.6 250.4L279.6 250.4Q284.7 250.4 287.5 253.5Q290.3 256.6 290.3 262.0L290.3 262.0L290.3 278.8Q290.3 280.6 289.3 281.7Q288.3 282.7 286.7 282.7Q285.1 282.7 284.1 281.7Q283.0 280.6 283.0 278.8L283.0 278.8L283.0 263.5Q283.0 260.1 281.5 258.4Q279.9 256.6 276.8 256.6L276.8 256.6Q273.7 256.6 271.8 258.7Q270.0 260.7 270.0 264.1L270.0 264.1L270.0 278.8Q270.0 280.6 269.0 281.7ZM298.2 274.4L298.2 274.4L298.2 256.6L296.2 256.6Q294.9 256.6 294.1 255.9Q293.3 255.1 293.3 253.8L293.3 253.8Q293.3 252.5 294.1 251.8Q294.9 251.0 296.2 251.0L296.2 251.0L298.2 251.0L298.2 246.9Q298.2 245.1 299.2 244.1Q300.2 243.1 301.9 243.1L301.9 243.1Q303.5 243.1 304.5 244.1Q305.5 245.1 305.5 246.9L305.5 246.9L305.5 251.0L308.9 251.0Q310.2 251.0 311.0 251.8Q311.8 252.5 311.8 253.8L311.8 253.8Q311.8 255.1 311.0 255.9Q310.2 256.6 308.9 256.6L308.9 256.6L305.5 256.6L305.5 272.8Q305.5 274.6 306.2 275.4Q306.8 276.2 308.4 276.4L308.4 276.4L308.9 276.4Q311.9 276.7 311.9 279.1L311.9 279.1Q311.9 280.7 310.5 281.6Q309.2 282.4 306.7 282.4L306.7 282.4L306.4 282.4Q298.2 282.4 298.2 274.4ZM325.4 282.6L325.4 282.6Q320.9 282.6 318.0 280.0Q315.0 277.4 315.0 273.2L315.0 273.2Q315.0 269.1 318.1 266.7Q321.2 264.3 326.8 263.9L326.8 263.9L335.1 263.4L335.1 261.2Q335.1 258.8 333.5 257.4Q332.0 256.1 329.3 256.1L329.3 256.1Q327.1 256.1 325.6 256.9Q324.1 257.7 322.8 259.7L322.8 259.7Q321.7 261.2 319.8 261.2L319.8 261.2Q318.5 261.2 317.6 260.4Q316.7 259.6 316.7 258.3L316.7 258.3Q316.7 257.3 317.2 256.3L317.2 256.3Q318.4 253.6 321.8 252.0Q325.1 250.4 329.6 250.4L329.6 250.4Q335.3 250.4 338.8 253.2Q342.3 256.0 342.3 260.7L342.3 260.7L342.3 279.0Q342.3 280.7 341.3 281.7Q340.3 282.7 338.7 282.7L338.7 282.7Q337.2 282.7 336.3 281.8Q335.3 280.9 335.3 279.3L335.3 279.3L335.3 277.1L335.1 277.1Q333.8 279.6 331.1 281.1Q328.5 282.6 325.4 282.6ZM327.6 277.1L327.6 277.1Q330.7 277.1 332.9 275.2Q335.1 273.3 335.1 270.6L335.1 270.6L335.1 268.2L327.9 268.6Q325.2 268.8 323.8 269.9Q322.3 271.1 322.3 272.9L322.3 272.9Q322.3 274.8 323.8 275.9Q325.2 277.1 327.6 277.1ZM350.2 274.4L350.2 274.4L350.2 256.6L348.2 256.6Q346.9 256.6 346.1 255.9Q345.3 255.1 345.3 253.8L345.3 253.8Q345.3 252.5 346.0 251.8Q346.8 251.0 348.2 251.0L348.2 251.0L350.2 251.0L350.2 246.9Q350.2 245.1 351.1 244.1Q352.1 243.1 353.8 243.1L353.8 243.1Q355.5 243.1 356.5 244.1Q357.5 245.1 357.5 246.9L357.5 246.9L357.5 251.0L360.8 251.0Q362.2 251.0 363.0 251.8Q363.8 252.5 363.8 253.8L363.8 253.8Q363.8 255.1 363.0 255.9Q362.2 256.6 360.8 256.6L360.8 256.6L357.5 256.6L357.5 272.8Q357.5 274.6 358.1 275.4Q358.8 276.2 360.4 276.4L360.4 276.4L360.9 276.4Q363.8 276.7 363.8 279.1L363.8 279.1Q363.8 280.7 362.5 281.6Q361.2 282.4 358.6 282.4L358.6 282.4L358.3 282.4Q350.2 282.4 350.2 274.4ZM375.0 245.5Q373.8 246.7 372.1 246.7Q370.4 246.7 369.2 245.5Q368.0 244.3 368.0 242.7L368.0 242.7Q368.0 241.0 369.2 239.9Q370.4 238.7 372.1 238.7L372.1 238.7Q373.8 238.7 375.0 239.9Q376.2 241.0 376.2 242.7L376.2 242.7Q376.2 244.3 375.0 245.5ZM374.7 281.6Q373.8 282.7 372.1 282.7Q370.4 282.7 369.4 281.6Q368.4 280.6 368.4 278.8L368.4 278.8L368.4 254.2Q368.4 252.5 369.4 251.4Q370.4 250.4 372.1 250.4Q373.8 250.4 374.7 251.4Q375.7 252.5 375.7 254.3L375.7 254.3L375.7 278.8Q375.7 280.6 374.7 281.6ZM406.6 278.4Q402.5 282.7 395.6 282.7Q388.7 282.7 384.6 278.4Q380.6 274.1 380.6 266.6L380.6 266.6Q380.6 259.1 384.7 254.7Q388.8 250.4 395.6 250.4L395.6 250.4Q402.5 250.4 406.5 254.7Q410.6 259.1 410.6 266.6L410.6 266.6Q410.6 274.1 406.6 278.4ZM390.0 274.2Q392.1 276.9 395.6 276.9Q399.1 276.9 401.2 274.2Q403.2 271.5 403.2 266.6L403.2 266.6Q403.2 261.7 401.2 258.9Q399.1 256.2 395.6 256.2L395.6 256.2Q392.1 256.2 390.1 258.9Q388.0 261.7 388.0 266.6L388.0 266.6Q388.0 271.5 390.0 274.2ZM421.6 281.7Q420.6 282.7 419.0 282.7Q417.3 282.7 416.3 281.7Q415.3 280.6 415.3 278.8L415.3 278.8L415.3 254.1Q415.3 252.4 416.3 251.4Q417.2 250.4 418.8 250.4Q420.4 250.4 421.4 251.4Q422.4 252.4 422.4 254.1L422.4 254.1L422.4 256.3L422.6 256.3Q425.2 250.4 432.2 250.4L432.2 250.4Q437.3 250.4 440.2 253.5Q443.0 256.6 443.0 262.0L443.0 262.0L443.0 278.8Q443.0 280.6 442.0 281.7Q441.0 282.7 439.3 282.7Q437.7 282.7 436.7 281.7Q435.7 280.6 435.7 278.8L435.7 278.8L435.7 263.5Q435.7 260.1 434.1 258.4Q432.5 256.6 429.5 256.6L429.5 256.6Q426.3 256.6 424.5 258.7Q422.6 260.7 422.6 264.1L422.6 264.1L422.6 278.8Q422.6 280.6 421.6 281.7ZM460.8 282.7L460.8 282.7Q456.0 282.7 452.6 281.0Q449.3 279.3 448.1 276.5L448.1 276.5Q447.8 275.7 447.8 275.0L447.8 275.0Q447.8 273.7 448.7 272.9Q449.5 272.1 450.9 272.1L450.9 272.1Q452.7 272.1 454.1 273.9L454.1 273.9Q455.3 275.8 456.9 276.6Q458.5 277.4 461.1 277.4L461.1 277.4Q463.6 277.4 465.2 276.4Q466.7 275.3 466.7 273.6L466.7 273.6Q466.7 272.2 465.7 271.3Q464.7 270.5 462.3 269.9L462.3 269.9L457.3 268.8Q448.3 266.8 448.3 259.9L448.3 259.9Q448.3 255.6 451.7 253.0Q455.2 250.4 460.9 250.4L460.9 250.4Q465.3 250.4 468.5 252.3Q471.7 254.1 472.5 256.9L472.5 256.9Q472.6 257.5 472.6 258.0L472.6 258.0Q472.6 259.1 471.9 259.9Q471.2 260.6 469.8 260.6L469.8 260.6Q468.0 260.6 467.0 259.2L467.0 259.2Q465.9 257.5 464.4 256.6Q462.9 255.7 460.7 255.7L460.7 255.7Q458.3 255.7 456.8 256.8Q455.3 257.8 455.3 259.5L455.3 259.5Q455.3 262.3 459.9 263.3L459.9 263.3L464.9 264.4Q469.8 265.5 471.9 267.4Q474.0 269.4 474.0 272.8L474.0 272.8Q474.0 277.3 470.4 280.0Q466.7 282.7 460.8 282.7Z M492.7 274.4L492.7 274.4L492.7 256.6L490.7 256.6Q489.4 256.6 488.6 255.9Q487.8 255.1 487.8 253.8L487.8 253.8Q487.8 252.5 488.5 251.8Q489.3 251.0 490.7 251.0L490.7 251.0L492.7 251.0L492.7 246.9Q492.7 245.1 493.6 244.1Q494.6 243.1 496.3 243.1L496.3 243.1Q498.0 243.1 499.0 244.1Q500.0 245.1 500.0 246.9L500.0 246.9L500.0 251.0L503.3 251.0Q504.7 251.0 505.5 251.8Q506.3 252.5 506.3 253.8L506.3 253.8Q506.3 255.1 505.5 255.9Q504.7 256.6 503.3 256.6L503.3 256.6L500.0 256.6L500.0 272.8Q500.0 274.6 500.6 275.4Q501.3 276.2 502.9 276.4L502.9 276.4L503.4 276.4Q506.3 276.7 506.3 279.1L506.3 279.1Q506.3 280.7 505 281.6Q503.7 282.4 501.1 282.4L501.1 282.4L500.8 282.4Q492.7 282.4 492.7 274.4ZM535.5 278.4Q531.4 282.7 524.5 282.7Q517.6 282.7 513.6 278.4Q509.5 274.1 509.5 266.6L509.5 266.6Q509.5 259.1 513.6 254.7Q517.7 250.4 524.5 250.4L524.5 250.4Q531.4 250.4 535.5 254.7Q539.5 259.1 539.5 266.6L539.5 266.6Q539.5 274.1 535.5 278.4ZM518.9 274.2Q521.0 276.9 524.5 276.9Q528.0 276.9 530.1 274.2Q532.1 271.5 532.1 266.6L532.1 266.6Q532.1 261.7 530.1 258.9Q528.0 256.2 524.5 256.2L524.5 256.2Q521.0 256.2 519.0 258.9Q516.9 261.7 516.9 266.6L516.9 266.6Q516.9 271.5 518.9 274.2Z M574.3 282.8L574.3 282.8Q566.4 282.8 561.7 278.5Q557.0 274.2 557.0 267.2L557.0 267.2L557.0 243.2Q557.0 241.4 558.0 240.3Q559.0 239.3 560.8 239.3L560.8 239.3Q562.5 239.3 563.5 240.3Q564.5 241.4 564.5 243.2L564.5 243.2L564.5 266.5Q564.5 270.9 567.1 273.5Q569.7 276.2 574.3 276.2Q579.0 276.2 581.6 273.5Q584.2 270.9 584.2 266.5L584.2 266.5L584.2 243.2Q584.2 241.4 585.2 240.3Q586.2 239.3 588.0 239.3L588.0 239.3Q589.7 239.3 590.7 240.3Q591.7 241.4 591.7 243.2L591.7 243.2L591.7 267.2Q591.7 274.2 587.0 278.5Q582.3 282.8 574.3 282.8ZM604.7 281.7Q603.7 282.7 602.1 282.7Q600.4 282.7 599.5 281.7Q598.5 280.6 598.5 278.8L598.5 278.8L598.5 254.1Q598.5 252.4 599.4 251.4Q600.3 250.4 601.9 250.4Q603.6 250.4 604.6 251.4Q605.5 252.4 605.5 254.1L605.5 254.1L605.5 256.3L605.7 256.3Q608.3 250.4 615.4 250.4L615.4 250.4Q620.5 250.4 623.3 253.5Q626.1 256.6 626.1 262.0L626.1 262.0L626.1 278.8Q626.1 280.6 625.1 281.7Q624.1 282.7 622.5 282.7Q620.8 282.7 619.8 281.7Q618.8 280.6 618.8 278.8L618.8 278.8L618.8 263.5Q618.8 260.1 617.3 258.4Q615.7 256.6 612.6 256.6L612.6 256.6Q609.5 256.6 607.6 258.7Q605.8 260.7 605.8 264.1L605.8 264.1L605.8 278.8Q605.8 280.6 604.7 281.7ZM645.6 282.7L645.6 282.7Q638.8 282.7 634.7 278.4Q630.7 274.0 630.7 266.6L630.7 266.6Q630.7 259.2 634.7 254.8Q638.7 250.4 645.5 250.4L645.5 250.4Q650.1 250.4 653.6 252.5Q657.2 254.6 658.3 257.9L658.3 257.9Q658.7 258.9 658.7 259.6L658.7 259.6Q658.7 261.0 657.8 261.8Q656.9 262.6 655.6 262.6L655.6 262.6Q654.5 262.6 653.7 262.1Q653.0 261.6 652.4 260.5L652.4 260.5Q650.1 256.3 645.7 256.3L645.7 256.3Q642.2 256.3 640.1 259.1Q638.1 261.8 638.1 266.6L638.1 266.6Q638.1 271.4 640.1 274.1Q642.2 276.8 645.7 276.8L645.7 276.8Q650.1 276.8 652.3 272.8L652.3 272.8Q653.1 271.6 653.8 271.1Q654.5 270.6 655.7 270.6L655.7 270.6Q657.0 270.6 657.9 271.4Q658.8 272.2 658.8 273.6L658.8 273.6Q658.8 274.4 658.3 275.4L658.3 275.4Q657.0 278.6 653.5 280.7Q650.0 282.7 645.6 282.7ZM688.4 278.4Q684.3 282.7 677.4 282.7Q670.5 282.7 666.5 278.4Q662.4 274.1 662.4 266.6L662.4 266.6Q662.4 259.1 666.5 254.7Q670.6 250.4 677.4 250.4L677.4 250.4Q684.3 250.4 688.4 254.7Q692.4 259.1 692.4 266.6L692.4 266.6Q692.4 274.1 688.4 278.4ZM671.8 274.2Q673.9 276.9 677.4 276.9Q680.9 276.9 683.0 274.2Q685.0 271.5 685.0 266.6L685.0 266.6Q685.0 261.7 683.0 258.9Q680.9 256.2 677.4 256.2L677.4 256.2Q673.9 256.2 671.9 258.9Q669.8 261.7 669.8 266.6L669.8 266.6Q669.8 271.5 671.8 274.2ZM709.6 282.7L709.6 282.7Q707.5 282.7 706.3 281.8Q705.2 280.9 704.4 278.9L704.4 278.9L695.7 255.8Q695.3 254.7 695.3 253.7L695.3 253.7Q695.3 252.3 696.3 251.3Q697.3 250.4 698.9 250.4L698.9 250.4Q701.6 250.4 702.4 253.3L702.4 253.3L709.5 275.3L709.6 275.3L716.7 253.3Q717.5 250.4 720.2 250.4L720.2 250.4Q721.7 250.4 722.7 251.3Q723.7 252.3 723.7 253.7L723.7 253.7Q723.7 254.7 723.3 255.7L723.3 255.7L714.6 278.9Q713.9 280.8 712.7 281.8Q711.5 282.7 709.6 282.7ZM741.6 282.7L741.6 282.7Q734.5 282.7 730.5 278.5Q726.5 274.2 726.5 266.7L726.5 266.7Q726.5 259.2 730.5 254.8Q734.5 250.4 741.2 250.4L741.2 250.4Q747.5 250.4 751.5 254.4Q755.5 258.5 755.5 264.9L755.5 264.9Q755.5 266.5 754.6 267.4Q753.7 268.3 752.1 268.3L752.1 268.3L733.8 268.3L733.8 268.5Q733.8 272.4 735.9 274.8Q738.0 277.1 741.5 277.1L741.5 277.1Q744.0 277.1 745.8 276.1Q747.5 275.2 749.3 272.9L749.3 272.9Q750.4 271.8 751.8 271.8L751.8 271.8Q753.0 271.8 753.9 272.5Q754.7 273.3 754.7 274.6L754.7 274.6Q754.7 275.4 754.2 276.4L754.2 276.4Q752.6 279.4 749.3 281.0Q746.0 282.7 741.6 282.7ZM733.8 263.5L733.8 263.5L748.3 263.5Q748.2 260.1 746.3 258.1Q744.3 256.0 741.2 256.0Q738.1 256.0 736.1 258.1Q734.0 260.2 733.8 263.5ZM766.5 281.6Q765.5 282.7 763.8 282.7Q762.1 282.7 761.2 281.6Q760.2 280.6 760.2 278.8L760.2 278.8L760.2 254.1Q760.2 252.4 761.1 251.4Q762.1 250.4 763.7 250.4L763.7 250.4Q765.2 250.4 766.2 251.4Q767.1 252.4 767.1 254.1L767.1 254.1L767.1 256.5L767.3 256.5Q767.9 253.8 769.7 252.1Q771.6 250.5 773.9 250.5L773.9 250.5Q775.6 250.5 776.5 251.3L776.5 251.3Q777.5 252.1 777.5 253.9L777.5 253.9Q777.5 255.6 776.4 256.5L776.4 256.5Q775.4 257.4 773.2 257.5L773.2 257.5Q767.5 257.5 767.5 263.9L767.5 263.9L767.5 278.8Q767.5 280.6 766.5 281.6Z M801.9 282.6L801.9 282.6Q797.4 282.6 794.5 280.0Q791.6 277.4 791.6 273.2L791.6 273.2Q791.6 269.1 794.6 266.7Q797.7 264.3 803.4 263.9L803.4 263.9L811.6 263.4L811.6 261.2Q811.6 258.8 810.1 257.4Q808.5 256.1 805.8 256.1L805.8 256.1Q803.6 256.1 802.1 256.9Q800.6 257.7 799.3 259.7L799.3 259.7Q798.2 261.2 796.3 261.2L796.3 261.2Q795.0 261.2 794.1 260.4Q793.3 259.6 793.3 258.3L793.3 258.3Q793.3 257.3 793.8 256.3L793.8 256.3Q794.9 253.6 798.3 252.0Q801.6 250.4 806.1 250.4L806.1 250.4Q811.9 250.4 815.3 253.2Q818.8 256.0 818.8 260.7L818.8 260.7L818.8 279.0Q818.8 280.7 817.8 281.7Q816.8 282.7 815.3 282.7L815.3 282.7Q813.7 282.7 812.8 281.8Q811.9 280.9 811.8 279.3L811.8 279.3L811.8 277.1L811.6 277.1Q810.3 279.6 807.6 281.1Q805.0 282.6 801.9 282.6ZM804.2 277.1L804.2 277.1Q807.3 277.1 809.4 275.2Q811.6 273.3 811.6 270.6L811.6 270.6L811.6 268.2L804.4 268.6Q801.7 268.8 800.3 269.9Q798.8 271.1 798.8 272.9L798.8 272.9Q798.8 274.8 800.3 275.9Q801.7 277.1 804.2 277.1Z M854.8 282.8L854.8 282.8Q846.8 282.8 842.1 278.5Q837.4 274.2 837.4 267.2L837.4 267.2L837.4 243.2Q837.4 241.4 838.4 240.3Q839.4 239.3 841.2 239.3L841.2 239.3Q843.0 239.3 844.0 240.3Q845.0 241.4 845.0 243.2L845.0 243.2L845.0 266.5Q845.0 270.9 847.6 273.5Q850.1 276.2 854.8 276.2Q859.4 276.2 862.0 273.5Q864.6 270.9 864.6 266.5L864.6 266.5L864.6 243.2Q864.6 241.4 865.6 240.3Q866.6 239.3 868.4 239.3L868.4 239.3Q870.2 239.3 871.2 240.3Q872.1 241.4 872.1 243.2L872.1 243.2L872.1 267.2Q872.1 274.2 867.4 278.5Q862.7 282.8 854.8 282.8ZM885.2 281.7Q884.2 282.7 882.5 282.7Q880.9 282.7 879.9 281.7Q878.9 280.6 878.9 278.8L878.9 278.8L878.9 254.1Q878.9 252.4 879.8 251.4Q880.8 250.4 882.4 250.4Q884.0 250.4 885.0 251.4Q886.0 252.4 886.0 254.1L886.0 254.1L886.0 256.3L886.1 256.3Q888.8 250.4 895.8 250.4L895.8 250.4Q900.9 250.4 903.7 253.5Q906.5 256.6 906.5 262.0L906.5 262.0L906.5 278.8Q906.5 280.6 905.5 281.7Q904.6 282.7 902.9 282.7Q901.3 282.7 900.3 281.7Q899.2 280.6 899.2 278.8L899.2 278.8L899.2 263.5Q899.2 260.1 897.7 258.4Q896.1 256.6 893.0 256.6L893.0 256.6Q889.9 256.6 888.0 258.7Q886.2 260.7 886.2 264.1L886.2 264.1L886.2 278.8Q886.2 280.6 885.2 281.7ZM919.1 245.5Q917.9 246.7 916.2 246.7Q914.5 246.7 913.3 245.5Q912.1 244.3 912.1 242.7L912.1 242.7Q912.1 241.0 913.3 239.9Q914.5 238.7 916.2 238.7L916.2 238.7Q917.9 238.7 919.1 239.9Q920.3 241.0 920.3 242.7L920.3 242.7Q920.3 244.3 919.1 245.5ZM918.8 281.6Q917.9 282.7 916.2 282.7Q914.5 282.7 913.5 281.6Q912.5 280.6 912.5 278.8L912.5 278.8L912.5 254.2Q912.5 252.5 913.5 251.4Q914.5 250.4 916.2 250.4Q917.9 250.4 918.8 251.4Q919.8 252.5 919.8 254.3L919.8 254.3L919.8 278.8Q919.8 280.6 918.8 281.6ZM934.3 281.7Q933.3 282.7 931.7 282.7Q930.0 282.7 929.0 281.7Q928.0 280.7 928.0 278.9L928.0 278.9L928.0 256.6L926.1 256.6Q924.8 256.6 924.0 255.9Q923.2 255.2 923.2 253.9L923.2 253.9Q923.2 252.6 924.0 251.9Q924.8 251.1 926.1 251.1L926.1 251.1L928.0 251.1L928.0 248.4Q928.0 239.5 936.5 239.5L936.5 239.5Q939.4 239.5 940.7 240.3Q942.1 241.1 942.1 242.5L942.1 242.5Q942.1 244.2 940.5 244.6L940.5 244.6Q939.9 244.8 938.9 244.8L938.9 244.8Q936.9 244.9 936.0 245.8Q935.2 246.7 935.2 248.7L935.2 248.7L935.2 251.1L939.1 251.1Q940.3 251.1 941.1 251.9Q941.9 252.6 941.9 253.9L941.9 253.9Q941.9 255.2 941.1 255.9Q940.3 256.6 939.1 256.6L939.1 256.6L935.3 256.6L935.3 278.9Q935.3 280.7 934.3 281.7ZM952.9 245.5Q951.7 246.7 950.0 246.7Q948.3 246.7 947.1 245.5Q945.9 244.3 945.9 242.7L945.9 242.7Q945.9 241.0 947.1 239.9Q948.3 238.7 950.0 238.7L950.0 238.7Q951.7 238.7 952.9 239.9Q954.1 241.0 954.1 242.7L954.1 242.7Q954.1 244.3 952.9 245.5ZM952.7 281.6Q951.7 282.7 950.0 282.7Q948.3 282.7 947.3 281.6Q946.4 280.6 946.4 278.8L946.4 278.8L946.4 254.2Q946.4 252.5 947.3 251.4Q948.3 250.4 950.0 250.4Q951.7 250.4 952.7 251.4Q953.7 252.5 953.7 254.3L953.7 254.3L953.7 278.8Q953.7 280.6 952.7 281.6ZM973.6 282.7L973.6 282.7Q966.5 282.7 962.5 278.5Q958.5 274.2 958.5 266.7L958.5 266.7Q958.5 259.2 962.5 254.8Q966.5 250.4 973.2 250.4L973.2 250.4Q979.5 250.4 983.5 254.4Q987.5 258.5 987.5 264.9L987.5 264.9Q987.5 266.5 986.6 267.4Q985.7 268.3 984.1 268.3L984.1 268.3L965.8 268.3L965.8 268.5Q965.8 272.4 967.9 274.8Q970.0 277.1 973.5 277.1L973.5 277.1Q976.0 277.1 977.7 276.1Q979.5 275.2 981.3 272.9L981.3 272.9Q982.3 271.8 983.7 271.8L983.7 271.8Q985 271.8 985.8 272.5Q986.7 273.3 986.7 274.6L986.7 274.6Q986.7 275.4 986.2 276.4L986.2 276.4Q984.6 279.4 981.3 281.0Q978.0 282.7 973.6 282.7ZM965.8 263.5L965.8 263.5L980.3 263.5Q980.2 260.1 978.2 258.1Q976.3 256.0 973.2 256.0Q970.1 256.0 968.1 258.1Q966.0 260.2 965.8 263.5ZM1003.8 282.6L1003.8 282.6Q997.9 282.6 994.4 278.2Q990.9 273.9 990.9 266.5L990.9 266.5Q990.9 259.2 994.4 254.8Q997.9 250.5 1003.8 250.5L1003.8 250.5Q1007.0 250.5 1009.6 252.0Q1012.1 253.6 1013.4 256.2L1013.4 256.2L1013.5 256.2L1013.5 243.1Q1013.5 241.2 1014.5 240.2Q1015.5 239.2 1017.2 239.2Q1018.8 239.2 1019.8 240.2Q1020.8 241.2 1020.8 243.1L1020.8 243.1L1020.8 279.0Q1020.8 280.7 1019.8 281.7Q1018.8 282.7 1017.2 282.7L1017.2 282.7Q1015.6 282.7 1014.6 281.7Q1013.5 280.7 1013.5 279.0L1013.5 279.0L1013.5 276.6L1013.4 276.6Q1012.2 279.4 1009.7 281.0Q1007.3 282.6 1003.8 282.6ZM1005.9 276.6L1005.9 276.6Q1009.4 276.6 1011.5 273.9Q1013.6 271.2 1013.6 266.6L1013.6 266.6Q1013.6 262.0 1011.5 259.2Q1009.4 256.5 1005.9 256.5L1005.9 256.5Q1002.4 256.5 1000.4 259.2Q998.3 261.9 998.3 266.6L998.3 266.6Q998.3 271.2 1000.4 273.9Q1002.4 276.6 1005.9 276.6Z M50.3 364.1Q49.3 365.2 47.5 365.2Q45.7 365.2 44.7 364.1Q43.7 363.1 43.7 361.2L43.7 361.2L43.7 326.2Q43.7 324.4 44.7 323.3Q45.7 322.3 47.5 322.3L47.5 322.3L60.5 322.3Q67.3 322.3 71.2 325.8Q75.1 329.4 75.1 335.5L75.1 335.5Q75.1 339.6 73.1 342.8Q71.1 346.0 67.4 347.4L67.4 347.4L74.1 359.1Q74.9 360.5 74.9 361.7L74.9 361.7Q74.9 363.2 73.8 364.2Q72.8 365.2 71.1 365.2L71.1 365.2Q69.8 365.2 69.0 364.6Q68.2 364.0 67.3 362.4L67.3 362.4L59.7 348.7L51.3 348.7L51.3 361.2Q51.3 363.1 50.3 364.1ZM51.3 328.4L51.3 342.9L59.8 342.9Q63.4 342.9 65.4 341.0Q67.4 339.1 67.4 335.6L67.4 335.6Q67.4 332.3 65.3 330.4Q63.2 328.4 59.7 328.4L59.7 328.4L51.3 328.4ZM94.3 365.2L94.3 365.2Q87.2 365.2 83.2 361.0Q79.2 356.7 79.2 349.2L79.2 349.2Q79.2 341.7 83.2 337.3Q87.2 332.9 93.9 332.9L93.9 332.9Q100.2 332.9 104.2 336.9Q108.2 341.0 108.2 347.4L108.2 347.4Q108.2 349.0 107.3 349.9Q106.4 350.8 104.8 350.8L104.8 350.8L86.5 350.8L86.5 351.0Q86.5 354.9 88.6 357.3Q90.7 359.6 94.2 359.6L94.2 359.6Q96.7 359.6 98.5 358.6Q100.2 357.7 102.0 355.4L102.0 355.4Q103.0 354.3 104.5 354.3L104.5 354.3Q105.7 354.3 106.5 355.0Q107.4 355.8 107.4 357.1L107.4 357.1Q107.4 357.9 106.9 358.9L106.9 358.9Q105.3 361.9 102.0 363.5Q98.7 365.2 94.3 365.2ZM86.5 346.0L86.5 346.0L101.0 346.0Q100.9 342.6 98.9 340.6Q97.0 338.5 93.9 338.5Q90.8 338.5 88.8 340.6Q86.7 342.7 86.5 346.0ZM119.1 374.6Q118.1 375.6 116.5 375.6Q114.9 375.6 113.9 374.6Q112.9 373.6 112.9 371.8L112.9 371.8L112.9 336.7Q112.9 334.9 113.8 333.9Q114.8 332.9 116.4 332.9L116.4 332.9Q118.0 332.9 119.0 333.9Q120.0 334.9 120.0 336.7L120.0 336.7L120.0 338.9L120.1 338.9Q121.5 336.1 124.0 334.6Q126.6 333.0 129.9 333.0L129.9 333.0Q135.8 333.0 139.3 337.3Q142.8 341.6 142.8 349.1L142.8 349.1Q142.8 356.5 139.3 360.8Q135.9 365.1 130.0 365.1L130.0 365.1Q126.7 365.1 124.1 363.6Q121.6 362.1 120.3 359.4L120.3 359.4L120.2 359.4L120.2 371.8Q120.2 373.6 119.1 374.6ZM127.7 359.1L127.7 359.1Q131.2 359.1 133.3 356.4Q135.3 353.7 135.3 349.1L135.3 349.1Q135.3 344.5 133.3 341.7Q131.2 339.0 127.7 339.0L127.7 339.0Q124.3 339.0 122.2 341.8Q120.1 344.5 120.1 349.1L120.1 349.1Q120.1 353.6 122.2 356.4Q124.3 359.1 127.7 359.1ZM153.8 364.1Q152.8 365.2 151.1 365.2Q149.5 365.2 148.5 364.1Q147.5 363.1 147.5 361.3L147.5 361.3L147.5 336.6Q147.5 334.9 148.4 333.9Q149.4 332.9 151.0 332.9L151.0 332.9Q152.5 332.9 153.5 333.9Q154.4 334.9 154.4 336.6L154.4 336.6L154.4 339.0L154.6 339.0Q155.2 336.3 157.1 334.6Q158.9 333.0 161.2 333.0L161.2 333.0Q162.9 333.0 163.8 333.8L163.8 333.8Q164.8 334.6 164.8 336.4L164.8 336.4Q164.8 338.1 163.8 339.0L163.8 339.0Q162.7 339.9 160.5 340.0L160.5 340.0Q154.8 340.0 154.8 346.4L154.8 346.4L154.8 361.3Q154.8 363.1 153.8 364.1ZM181.9 365.2L181.9 365.2Q174.8 365.2 170.8 361.0Q166.8 356.7 166.8 349.2L166.8 349.2Q166.8 341.7 170.8 337.3Q174.8 332.9 181.5 332.9L181.5 332.9Q187.9 332.9 191.8 336.9Q195.8 341.0 195.8 347.4L195.8 347.4Q195.8 349.0 194.9 349.9Q194.0 350.8 192.4 350.8L192.4 350.8L174.1 350.8L174.1 351.0Q174.1 354.9 176.2 357.3Q178.3 359.6 181.9 359.6L181.9 359.6Q184.3 359.6 186.1 358.6Q187.9 357.7 189.6 355.4L189.6 355.4Q190.7 354.3 192.1 354.3L192.1 354.3Q193.3 354.3 194.2 355.0Q195.0 355.8 195.0 357.1L195.0 357.1Q195.0 357.9 194.5 358.9L194.5 358.9Q193.0 361.9 189.6 363.5Q186.3 365.2 181.9 365.2ZM174.2 346.0L174.2 346.0L188.7 346.0Q188.5 342.6 186.6 340.6Q184.6 338.5 181.5 338.5Q178.5 338.5 176.4 340.6Q174.4 342.7 174.2 346.0ZM212.5 365.2L212.5 365.2Q207.6 365.2 204.3 363.5Q201.0 361.8 199.8 359.0L199.8 359.0Q199.5 358.2 199.5 357.5L199.5 357.5Q199.5 356.2 200.4 355.4Q201.2 354.6 202.6 354.6L202.6 354.6Q204.4 354.6 205.7 356.4L205.7 356.4Q207.0 358.3 208.6 359.1Q210.2 359.9 212.7 359.9L212.7 359.9Q215.3 359.9 216.9 358.9Q218.4 357.8 218.4 356.1L218.4 356.1Q218.4 354.7 217.4 353.8Q216.4 353.0 214.0 352.4L214.0 352.4L209.0 351.3Q199.9 349.3 199.9 342.4L199.9 342.4Q199.9 338.1 203.4 335.5Q206.8 332.9 212.6 332.9L212.6 332.9Q217.0 332.9 220.2 334.8Q223.4 336.6 224.2 339.4L224.2 339.4Q224.3 340.0 224.3 340.5L224.3 340.5Q224.3 341.6 223.6 342.4Q222.8 343.1 221.5 343.1L221.5 343.1Q219.6 343.1 218.7 341.7L218.7 341.7Q217.6 340.0 216.1 339.1Q214.6 338.2 212.4 338.2L212.4 338.2Q210.0 338.2 208.5 339.3Q207.0 340.3 207.0 342.0L207.0 342.0Q207.0 344.8 211.6 345.8L211.6 345.8L216.5 346.9Q221.5 348.0 223.6 349.9Q225.7 351.9 225.7 355.3L225.7 355.3Q225.7 359.8 222.1 362.5Q218.4 365.2 212.5 365.2ZM244.1 365.2L244.1 365.2Q237.0 365.2 233.0 361.0Q229.0 356.7 229.0 349.2L229.0 349.2Q229.0 341.7 233.0 337.3Q237.0 332.9 243.7 332.9L243.7 332.9Q250.1 332.9 254.0 336.9Q258.0 341.0 258.0 347.4L258.0 347.4Q258.0 349.0 257.1 349.9Q256.2 350.8 254.6 350.8L254.6 350.8L236.3 350.8L236.3 351.0Q236.3 354.9 238.4 357.3Q240.5 359.6 244.1 359.6L244.1 359.6Q246.5 359.6 248.3 358.6Q250.1 357.7 251.8 355.4L251.8 355.4Q252.9 354.3 254.3 354.3L254.3 354.3Q255.5 354.3 256.4 355.0Q257.2 355.8 257.2 357.1L257.2 357.1Q257.2 357.9 256.7 358.9L256.7 358.9Q255.2 361.9 251.8 363.5Q248.5 365.2 244.1 365.2ZM236.3 346.0L236.3 346.0L250.8 346.0Q250.7 342.6 248.8 340.6Q246.8 338.5 243.7 338.5Q240.7 338.5 238.6 340.6Q236.6 342.7 236.3 346.0ZM269.0 364.2Q268.0 365.2 266.3 365.2Q264.7 365.2 263.7 364.2Q262.7 363.1 262.7 361.3L262.7 361.3L262.7 336.6Q262.7 334.9 263.6 333.9Q264.6 332.9 266.2 332.9Q267.8 332.9 268.8 333.9Q269.8 334.9 269.8 336.6L269.8 336.6L269.8 338.8L269.9 338.8Q272.6 332.9 279.6 332.9L279.6 332.9Q284.7 332.9 287.5 336.0Q290.3 339.1 290.3 344.5L290.3 344.5L290.3 361.3Q290.3 363.1 289.3 364.2Q288.3 365.2 286.7 365.2Q285.1 365.2 284.1 364.2Q283.0 363.1 283.0 361.3L283.0 361.3L283.0 346.0Q283.0 342.6 281.5 340.9Q279.9 339.1 276.8 339.1L276.8 339.1Q273.7 339.1 271.8 341.2Q270.0 343.2 270.0 346.6L270.0 346.6L270.0 361.3Q270.0 363.1 269.0 364.2ZM298.2 356.9L298.2 356.9L298.2 339.1L296.2 339.1Q294.9 339.1 294.1 338.4Q293.3 337.6 293.3 336.3L293.3 336.3Q293.3 335.0 294.1 334.3Q294.9 333.5 296.2 333.5L296.2 333.5L298.2 333.5L298.2 329.4Q298.2 327.6 299.2 326.6Q300.2 325.6 301.9 325.6L301.9 325.6Q303.5 325.6 304.5 326.6Q305.5 327.6 305.5 329.4L305.5 329.4L305.5 333.5L308.9 333.5Q310.2 333.5 311.0 334.3Q311.8 335.0 311.8 336.3L311.8 336.3Q311.8 337.6 311.0 338.4Q310.2 339.1 308.9 339.1L308.9 339.1L305.5 339.1L305.5 355.3Q305.5 357.1 306.2 357.9Q306.8 358.7 308.4 358.9L308.4 358.9L308.9 358.9Q311.9 359.2 311.9 361.6L311.9 361.6Q311.9 363.2 310.5 364.1Q309.2 364.9 306.7 364.9L306.7 364.9L306.4 364.9Q298.2 364.9 298.2 356.9ZM325.4 365.1L325.4 365.1Q320.9 365.1 318.0 362.5Q315.0 359.9 315.0 355.7L315.0 355.7Q315.0 351.6 318.1 349.2Q321.2 346.8 326.8 346.4L326.8 346.4L335.1 345.9L335.1 343.7Q335.1 341.3 333.5 339.9Q332.0 338.6 329.3 338.6L329.3 338.6Q327.1 338.6 325.6 339.4Q324.1 340.2 322.8 342.2L322.8 342.2Q321.7 343.7 319.8 343.7L319.8 343.7Q318.5 343.7 317.6 342.9Q316.7 342.1 316.7 340.8L316.7 340.8Q316.7 339.8 317.2 338.8L317.2 338.8Q318.4 336.1 321.8 334.5Q325.1 332.9 329.6 332.9L329.6 332.9Q335.3 332.9 338.8 335.7Q342.3 338.5 342.3 343.2L342.3 343.2L342.3 361.5Q342.3 363.2 341.3 364.2Q340.3 365.2 338.7 365.2L338.7 365.2Q337.2 365.2 336.3 364.3Q335.3 363.4 335.3 361.8L335.3 361.8L335.3 359.6L335.1 359.6Q333.8 362.1 331.1 363.6Q328.5 365.1 325.4 365.1ZM327.6 359.6L327.6 359.6Q330.7 359.6 332.9 357.7Q335.1 355.8 335.1 353.1L335.1 353.1L335.1 350.7L327.9 351.1Q325.2 351.3 323.8 352.4Q322.3 353.6 322.3 355.4L322.3 355.4Q322.3 357.3 323.8 358.4Q325.2 359.6 327.6 359.6ZM350.2 356.9L350.2 356.9L350.2 339.1L348.2 339.1Q346.9 339.1 346.1 338.4Q345.3 337.6 345.3 336.3L345.3 336.3Q345.3 335.0 346.0 334.3Q346.8 333.5 348.2 333.5L348.2 333.5L350.2 333.5L350.2 329.4Q350.2 327.6 351.1 326.6Q352.1 325.6 353.8 325.6L353.8 325.6Q355.5 325.6 356.5 326.6Q357.5 327.6 357.5 329.4L357.5 329.4L357.5 333.5L360.8 333.5Q362.2 333.5 363.0 334.3Q363.8 335.0 363.8 336.3L363.8 336.3Q363.8 337.6 363.0 338.4Q362.2 339.1 360.8 339.1L360.8 339.1L357.5 339.1L357.5 355.3Q357.5 357.1 358.1 357.9Q358.8 358.7 360.4 358.9L360.4 358.9L360.9 358.9Q363.8 359.2 363.8 361.6L363.8 361.6Q363.8 363.2 362.5 364.1Q361.2 364.9 358.6 364.9L358.6 364.9L358.3 364.9Q350.2 364.9 350.2 356.9ZM375.0 328.0Q373.8 329.2 372.1 329.2Q370.4 329.2 369.2 328.0Q368.0 326.8 368.0 325.2L368.0 325.2Q368.0 323.5 369.2 322.4Q370.4 321.2 372.1 321.2L372.1 321.2Q373.8 321.2 375.0 322.4Q376.2 323.5 376.2 325.2L376.2 325.2Q376.2 326.8 375.0 328.0ZM374.7 364.1Q373.8 365.2 372.1 365.2Q370.4 365.2 369.4 364.1Q368.4 363.1 368.4 361.3L368.4 361.3L368.4 336.7Q368.4 335.0 369.4 333.9Q370.4 332.9 372.1 332.9Q373.8 332.9 374.7 333.9Q375.7 335.0 375.7 336.8L375.7 336.8L375.7 361.3Q375.7 363.1 374.7 364.1ZM406.6 360.9Q402.5 365.2 395.6 365.2Q388.7 365.2 384.6 360.9Q380.6 356.6 380.6 349.1L380.6 349.1Q380.6 341.6 384.7 337.2Q388.8 332.9 395.6 332.9L395.6 332.9Q402.5 332.9 406.5 337.2Q410.6 341.6 410.6 349.1L410.6 349.1Q410.6 356.6 406.6 360.9ZM390.0 356.7Q392.1 359.4 395.6 359.4Q399.1 359.4 401.2 356.7Q403.2 354.0 403.2 349.1L403.2 349.1Q403.2 344.2 401.2 341.4Q399.1 338.7 395.6 338.7L395.6 338.7Q392.1 338.7 390.1 341.4Q388.0 344.2 388.0 349.1L388.0 349.1Q388.0 354.0 390.0 356.7ZM421.6 364.2Q420.6 365.2 419.0 365.2Q417.3 365.2 416.3 364.2Q415.3 363.1 415.3 361.3L415.3 361.3L415.3 336.6Q415.3 334.9 416.3 333.9Q417.2 332.9 418.8 332.9Q420.4 332.9 421.4 333.9Q422.4 334.9 422.4 336.6L422.4 336.6L422.4 338.8L422.6 338.8Q425.2 332.9 432.2 332.9L432.2 332.9Q437.3 332.9 440.2 336.0Q443.0 339.1 443.0 344.5L443.0 344.5L443.0 361.3Q443.0 363.1 442.0 364.2Q441.0 365.2 439.3 365.2Q437.7 365.2 436.7 364.2Q435.7 363.1 435.7 361.3L435.7 361.3L435.7 346.0Q435.7 342.6 434.1 340.9Q432.5 339.1 429.5 339.1L429.5 339.1Q426.3 339.1 424.5 341.2Q422.6 343.2 422.6 346.6L422.6 346.6L422.6 361.3Q422.6 363.1 421.6 364.2Z M469.2 364.2Q468.2 365.2 466.5 365.2Q464.8 365.2 463.8 364.2Q462.8 363.2 462.8 361.4L462.8 361.4L462.8 339.1L460.9 339.1Q459.6 339.1 458.9 338.4Q458.1 337.7 458.1 336.4L458.1 336.4Q458.1 335.1 458.9 334.4Q459.6 333.6 460.9 333.6L460.9 333.6L462.8 333.6L462.8 330.9Q462.8 322.0 471.4 322.0L471.4 322.0Q474.2 322.0 475.6 322.8Q477.0 323.6 477.0 325.0L477.0 325.0Q477.0 326.7 475.4 327.1L475.4 327.1Q474.7 327.3 473.8 327.3L473.8 327.3Q471.8 327.4 470.9 328.3Q470.0 329.2 470.0 331.2L470.0 331.2L470.0 333.6L473.9 333.6Q475.2 333.6 476.0 334.4Q476.7 335.1 476.7 336.4L476.7 336.4Q476.7 337.7 476.0 338.4Q475.2 339.1 473.9 339.1L473.9 339.1L470.1 339.1L470.1 361.4Q470.1 363.2 469.2 364.2ZM505.7 360.9Q501.7 365.2 494.8 365.2Q487.9 365.2 483.8 360.9Q479.7 356.6 479.7 349.1L479.7 349.1Q479.7 341.6 483.8 337.2Q487.9 332.9 494.8 332.9L494.8 332.9Q501.6 332.9 505.7 337.2Q509.8 341.6 509.8 349.1L509.8 349.1Q509.8 356.6 505.7 360.9ZM489.2 356.7Q491.3 359.4 494.8 359.4Q498.3 359.4 500.3 356.7Q502.4 354.0 502.4 349.1L502.4 349.1Q502.4 344.2 500.3 341.4Q498.3 338.7 494.8 338.7L494.8 338.7Q491.3 338.7 489.2 341.4Q487.2 344.2 487.2 349.1L487.2 349.1Q487.2 354.0 489.2 356.7ZM520.8 364.1Q519.8 365.2 518.1 365.2Q516.5 365.2 515.5 364.1Q514.5 363.1 514.5 361.3L514.5 361.3L514.5 336.6Q514.5 334.9 515.4 333.9Q516.4 332.9 518.0 332.9L518.0 332.9Q519.5 332.9 520.5 333.9Q521.4 334.9 521.4 336.6L521.4 336.6L521.4 339.0L521.6 339.0Q522.2 336.3 524.1 334.6Q525.9 333.0 528.2 333.0L528.2 333.0Q529.9 333.0 530.8 333.8L530.8 333.8Q531.8 334.6 531.8 336.4L531.8 336.4Q531.8 338.1 530.8 339.0L530.8 339.0Q529.7 339.9 527.5 340.0L527.5 340.0Q521.8 340.0 521.8 346.4L521.8 346.4L521.8 361.3Q521.8 363.1 520.8 364.1Z M562.7 365.3L562.7 365.3Q556.6 365.3 552.4 363.0Q548.3 360.7 547.0 357.0L547.0 357.0Q546.6 355.9 546.6 354.8L546.6 354.8Q546.6 353.2 547.6 352.3Q548.5 351.3 550.0 351.3L550.0 351.3Q551.2 351.3 552.1 351.9Q552.9 352.4 553.5 353.7L553.5 353.7Q554.5 356.4 557.0 357.7Q559.5 359.0 563.0 359.0L563.0 359.0Q566.8 359.0 569.2 357.3Q571.7 355.6 571.7 353.0L571.7 353.0Q571.7 350.7 569.9 349.2Q568.1 347.8 564.0 346.9L564.0 346.9L559.5 346.0Q547.1 343.4 547.1 334.1L547.1 334.1Q547.1 328.5 551.5 325.1Q555.9 321.6 562.8 321.6L562.8 321.6Q568.4 321.6 572.4 324.0Q576.5 326.4 577.8 330.5L577.8 330.5Q578.0 331.2 578.0 332.3L578.0 332.3Q578.0 333.6 577.1 334.5Q576.2 335.4 574.8 335.4L574.8 335.4Q572.3 335.4 571.1 333.0L571.1 333.0Q569.1 327.9 562.7 327.9L562.7 327.9Q559.2 327.9 556.9 329.4Q554.7 331.0 554.7 333.6L554.7 333.6Q554.7 335.8 556.4 337.2Q558.2 338.7 562.1 339.5L562.1 339.5L566.6 340.4Q573.3 341.8 576.3 344.6Q579.3 347.4 579.3 352.1L579.3 352.1Q579.3 358.2 574.8 361.7Q570.4 365.3 562.7 365.3ZM608.9 360.9Q604.8 365.2 597.9 365.2Q591.0 365.2 587.0 360.9Q582.9 356.6 582.9 349.1L582.9 349.1Q582.9 341.6 587.0 337.2Q591.1 332.9 597.9 332.9L597.9 332.9Q604.8 332.9 608.9 337.2Q613.0 341.6 613.0 349.1L613.0 349.1Q613.0 356.6 608.9 360.9ZM592.4 356.7Q594.4 359.4 597.9 359.4Q601.4 359.4 603.5 356.7Q605.5 354.0 605.5 349.1L605.5 349.1Q605.5 344.2 603.5 341.4Q601.4 338.7 597.9 338.7L597.9 338.7Q594.4 338.7 592.4 341.4Q590.3 344.2 590.3 349.1L590.3 349.1Q590.3 354.0 592.4 356.7ZM631.3 365.2L631.3 365.2Q624.5 365.2 620.4 360.9Q616.4 356.5 616.4 349.1L616.4 349.1Q616.4 341.7 620.4 337.3Q624.4 332.9 631.2 332.9L631.2 332.9Q635.8 332.9 639.3 335.0Q642.9 337.1 644.0 340.4L644.0 340.4Q644.4 341.4 644.4 342.1L644.4 342.1Q644.4 343.5 643.5 344.3Q642.6 345.1 641.3 345.1L641.3 345.1Q640.2 345.1 639.4 344.6Q638.7 344.1 638.1 343.0L638.1 343.0Q635.8 338.8 631.4 338.8L631.4 338.8Q627.9 338.8 625.8 341.6Q623.8 344.3 623.8 349.1L623.8 349.1Q623.8 353.9 625.8 356.6Q627.9 359.3 631.4 359.3L631.4 359.3Q635.8 359.3 638.0 355.3L638.0 355.3Q638.8 354.1 639.5 353.6Q640.2 353.1 641.4 353.1L641.4 353.1Q642.7 353.1 643.6 353.9Q644.5 354.7 644.5 356.1L644.5 356.1Q644.5 356.9 644.0 357.9L644.0 357.9Q642.7 361.1 639.2 363.2Q635.7 365.2 631.3 365.2ZM656.1 328.0Q654.9 329.2 653.2 329.2Q651.5 329.2 650.3 328.0Q649.1 326.8 649.1 325.2L649.1 325.2Q649.1 323.5 650.3 322.4Q651.5 321.2 653.2 321.2L653.2 321.2Q654.9 321.2 656.1 322.4Q657.3 323.5 657.3 325.2L657.3 325.2Q657.3 326.8 656.1 328.0ZM655.8 364.1Q654.9 365.2 653.2 365.2Q651.5 365.2 650.5 364.1Q649.6 363.1 649.6 361.3L649.6 361.3L649.6 336.7Q649.6 335.0 650.5 333.9Q651.5 332.9 653.2 332.9Q654.9 332.9 655.8 333.9Q656.8 335.0 656.8 336.8L656.8 336.8L656.8 361.3Q656.8 363.1 655.8 364.1ZM672.1 365.1L672.1 365.1Q667.5 365.1 664.6 362.5Q661.7 359.9 661.7 355.7L661.7 355.7Q661.7 351.6 664.8 349.2Q667.8 346.8 673.5 346.4L673.5 346.4L681.7 345.9L681.7 343.7Q681.7 341.3 680.2 339.9Q678.7 338.6 675.9 338.6L675.9 338.6Q673.8 338.6 672.3 339.4Q670.8 340.2 669.4 342.2L669.4 342.2Q668.3 343.7 666.5 343.7L666.5 343.7Q665.1 343.7 664.3 342.9Q663.4 342.1 663.4 340.8L663.4 340.8Q663.4 339.8 663.9 338.8L663.9 338.8Q665.1 336.1 668.4 334.5Q671.8 332.9 676.2 332.9L676.2 332.9Q682.0 332.9 685.5 335.7Q689.0 338.5 689.0 343.2L689.0 343.2L689.0 361.5Q689.0 363.2 688.0 364.2Q687.0 365.2 685.4 365.2L685.4 365.2Q683.9 365.2 682.9 364.3Q682.0 363.4 681.9 361.8L681.9 361.8L681.9 359.6L681.8 359.6Q680.5 362.1 677.8 363.6Q675.1 365.1 672.1 365.1ZM674.3 359.6L674.3 359.6Q677.4 359.6 679.6 357.7Q681.7 355.8 681.7 353.1L681.7 353.1L681.7 350.7L674.5 351.1Q671.9 351.3 670.5 352.4Q669.0 353.6 669.0 355.4L669.0 355.4Q669.0 357.3 670.5 358.4Q671.9 359.6 674.3 359.6ZM701.3 364.2Q700.3 365.2 698.7 365.2Q697.0 365.2 696.0 364.2Q695.0 363.1 695.0 361.3L695.0 361.3L695.0 325.6Q695.0 323.7 696.0 322.7Q697.0 321.7 698.7 321.7Q700.3 321.7 701.3 322.7Q702.3 323.7 702.3 325.6L702.3 325.6L702.3 361.3Q702.3 363.1 701.3 364.2Z M727.8 364.1Q726.8 365.2 725.0 365.2Q723.3 365.2 722.3 364.1Q721.3 363.1 721.3 361.2L721.3 361.2L721.3 326.2Q721.3 324.4 722.3 323.3Q723.3 322.3 725.0 322.3L725.0 322.3L738.1 322.3Q744.9 322.3 748.8 325.8Q752.7 329.4 752.7 335.5L752.7 335.5Q752.7 339.6 750.6 342.8Q748.6 346.0 745.0 347.4L745.0 347.4L751.7 359.1Q752.5 360.5 752.5 361.7L752.5 361.7Q752.5 363.2 751.4 364.2Q750.3 365.2 748.7 365.2L748.7 365.2Q747.3 365.2 746.5 364.6Q745.7 364.0 744.8 362.4L744.8 362.4L737.3 348.7L728.8 348.7L728.8 361.2Q728.8 363.1 727.8 364.1ZM728.8 328.4L728.8 342.9L737.4 342.9Q741.0 342.9 742.9 341.0Q744.9 339.1 744.9 335.6L744.9 335.6Q744.9 332.3 742.9 330.4Q740.8 328.4 737.2 328.4L737.2 328.4L728.8 328.4ZM782.7 360.9Q778.7 365.2 771.8 365.2Q764.9 365.2 760.8 360.9Q756.7 356.6 756.7 349.1L756.7 349.1Q756.7 341.6 760.8 337.2Q765.0 332.9 771.8 332.9L771.8 332.9Q778.6 332.9 782.7 337.2Q786.8 341.6 786.8 349.1L786.8 349.1Q786.8 356.6 782.7 360.9ZM766.2 356.7Q768.3 359.4 771.8 359.4Q775.3 359.4 777.3 356.7Q779.4 354.0 779.4 349.1L779.4 349.1Q779.4 344.2 777.3 341.4Q775.3 338.7 771.8 338.7L771.8 338.7Q768.3 338.7 766.2 341.4Q764.2 344.2 764.2 349.1L764.2 349.1Q764.2 354.0 766.2 356.7ZM797.9 364.2Q796.9 365.2 795.2 365.2Q793.6 365.2 792.7 364.2Q791.7 363.3 791.7 361.5L791.7 361.5L791.7 325.6Q791.7 323.7 792.7 322.7Q793.7 321.7 795.4 321.7Q797.0 321.7 798.0 322.7Q799.0 323.7 799.0 325.6L799.0 325.6L799.0 338.9L799.2 338.9Q800.5 336.1 803.1 334.5Q805.6 333.0 808.9 333.0L808.9 333.0Q814.8 333.0 818.2 337.3Q821.7 341.6 821.7 349.1L821.7 349.1Q821.7 356.5 818.2 360.8Q814.8 365.1 808.9 365.1L808.9 365.1Q805.5 365.1 802.9 363.6Q800.4 362.0 799.0 359.3L799.0 359.3L798.8 359.3L798.8 361.5Q798.8 363.2 797.9 364.2ZM806.6 359.1L806.6 359.1Q810.1 359.1 812.2 356.4Q814.2 353.7 814.2 349.1Q814.2 344.4 812.2 341.7Q810.1 339.0 806.6 339.0L806.6 339.0Q803.2 339.0 801.1 341.8Q799.0 344.5 799.0 349.1L799.0 349.1Q799.0 353.6 801.1 356.3Q803.2 359.1 806.6 359.1ZM851.1 360.9Q847.0 365.2 840.1 365.2Q833.2 365.2 829.2 360.9Q825.1 356.6 825.1 349.1L825.1 349.1Q825.1 341.6 829.2 337.2Q833.3 332.9 840.1 332.9L840.1 332.9Q847.0 332.9 851.1 337.2Q855.2 341.6 855.2 349.1L855.2 349.1Q855.2 356.6 851.1 360.9ZM834.6 356.7Q836.6 359.4 840.1 359.4Q843.6 359.4 845.7 356.7Q847.7 354.0 847.7 349.1L847.7 349.1Q847.7 344.2 845.7 341.4Q843.6 338.7 840.1 338.7L840.1 338.7Q836.6 338.7 834.6 341.4Q832.5 344.2 832.5 349.1L832.5 349.1Q832.5 354.0 834.6 356.7ZM861.9 356.9L861.9 356.9L861.9 339.1L859.9 339.1Q858.6 339.1 857.8 338.4Q857.0 337.6 857.0 336.3L857.0 336.3Q857.0 335.0 857.7 334.3Q858.5 333.5 859.9 333.5L859.9 333.5L861.9 333.5L861.9 329.4Q861.9 327.6 862.8 326.6Q863.8 325.6 865.5 325.6L865.5 325.6Q867.2 325.6 868.2 326.6Q869.2 327.6 869.2 329.4L869.2 329.4L869.2 333.5L872.5 333.5Q873.9 333.5 874.7 334.3Q875.5 335.0 875.5 336.3L875.5 336.3Q875.5 337.6 874.7 338.4Q873.9 339.1 872.5 339.1L872.5 339.1L869.2 339.1L869.2 355.3Q869.2 357.1 869.8 357.9Q870.5 358.7 872.1 358.9L872.1 358.9L872.6 358.9Q875.5 359.2 875.5 361.6L875.5 361.6Q875.5 363.2 874.2 364.1Q872.9 364.9 870.3 364.9L870.3 364.9L870.0 364.9Q861.9 364.9 861.9 356.9Z M894.6 365.1L894.6 365.1Q892.8 365.1 891.8 364.1Q890.8 363.2 890.8 361.6L890.8 361.6Q890.8 360.6 891.3 359.3L891.3 359.3L903.5 325.9Q904.3 323.8 905.6 322.8Q907.0 321.8 909.0 321.8L909.0 321.8Q911.1 321.8 912.4 322.8Q913.8 323.7 914.5 325.9L914.5 325.9L926.8 359.3Q927.3 360.7 927.3 361.6L927.3 361.6Q927.3 363.1 926.3 364.1Q925.2 365.1 923.6 365.1L923.6 365.1Q922.0 365.1 921.1 364.3Q920.2 363.6 919.7 361.9L919.7 361.9L916.9 353.8L901.1 353.8L898.3 361.8Q897.8 363.6 896.9 364.3Q896.0 365.1 894.6 365.1ZM908.9 329.8L902.9 347.8L915.1 347.8L909.1 329.8L908.9 329.8ZM945.7 365.2L945.7 365.2Q938.9 365.2 934.9 360.9Q930.8 356.5 930.8 349.1L930.8 349.1Q930.8 341.7 934.8 337.3Q938.9 332.9 945.7 332.9L945.7 332.9Q950.2 332.9 953.8 335.0Q957.3 337.1 958.5 340.4L958.5 340.4Q958.8 341.4 958.8 342.1L958.8 342.1Q958.8 343.5 957.9 344.3Q957.1 345.1 955.7 345.1L955.7 345.1Q954.6 345.1 953.9 344.6Q953.2 344.1 952.5 343.0L952.5 343.0Q950.2 338.8 945.9 338.8L945.9 338.8Q942.4 338.8 940.3 341.6Q938.2 344.3 938.2 349.1L938.2 349.1Q938.2 353.9 940.3 356.6Q942.3 359.3 945.9 359.3L945.9 359.3Q950.2 359.3 952.5 355.3L952.5 355.3Q953.2 354.1 954.0 353.6Q954.7 353.1 955.8 353.1L955.8 353.1Q957.2 353.1 958.0 353.9Q958.9 354.7 958.9 356.1L958.9 356.1Q958.9 356.9 958.5 357.9L958.5 357.9Q957.2 361.1 953.6 363.2Q950.1 365.2 945.7 365.2ZM965.8 356.9L965.8 356.9L965.8 339.1L963.9 339.1Q962.5 339.1 961.7 338.4Q960.9 337.6 960.9 336.3L960.9 336.3Q960.9 335.0 961.7 334.3Q962.5 333.5 963.9 333.5L963.9 333.5L965.8 333.5L965.8 329.4Q965.8 327.6 966.8 326.6Q967.8 325.6 969.5 325.6L969.5 325.6Q971.2 325.6 972.2 326.6Q973.1 327.6 973.1 329.4L973.1 329.4L973.1 333.5L976.5 333.5Q977.9 333.5 978.7 334.3Q979.4 335.0 979.4 336.3L979.4 336.3Q979.4 337.6 978.6 338.4Q977.9 339.1 976.5 339.1L976.5 339.1L973.1 339.1L973.1 355.3Q973.1 357.1 973.8 357.9Q974.5 358.7 976.1 358.9L976.1 358.9L976.6 358.9Q979.5 359.2 979.5 361.6L979.5 361.6Q979.5 363.2 978.2 364.1Q976.8 364.9 974.3 364.9L974.3 364.9L974.0 364.9Q965.8 364.9 965.8 356.9ZM990.6 328.0Q989.5 329.2 987.8 329.2Q986.1 329.2 984.9 328.0Q983.7 326.8 983.7 325.2L983.7 325.2Q983.7 323.5 984.9 322.4Q986.1 321.2 987.8 321.2L987.8 321.2Q989.5 321.2 990.7 322.4Q991.8 323.5 991.8 325.2L991.8 325.2Q991.8 326.8 990.6 328.0ZM990.4 364.1Q989.4 365.2 987.8 365.2Q986.1 365.2 985.1 364.1Q984.1 363.1 984.1 361.3L984.1 361.3L984.1 336.7Q984.1 335.0 985.1 333.9Q986.1 332.9 987.8 332.9Q989.4 332.9 990.4 333.9Q991.4 335.0 991.4 336.8L991.4 336.8L991.4 361.3Q991.4 363.1 990.4 364.1ZM1022.2 360.9Q1018.2 365.2 1011.3 365.2Q1004.4 365.2 1000.3 360.9Q996.3 356.6 996.3 349.1L996.3 349.1Q996.3 341.6 1000.4 337.2Q1004.5 332.9 1011.3 332.9L1011.3 332.9Q1018.1 332.9 1022.2 337.2Q1026.3 341.6 1026.3 349.1L1026.3 349.1Q1026.3 356.6 1022.2 360.9ZM1005.7 356.7Q1007.8 359.4 1011.3 359.4Q1014.8 359.4 1016.8 356.7Q1018.9 354.0 1018.9 349.1L1018.9 349.1Q1018.9 344.2 1016.8 341.4Q1014.8 338.7 1011.3 338.7L1011.3 338.7Q1007.8 338.7 1005.7 341.4Q1003.7 344.2 1003.7 349.1L1003.7 349.1Q1003.7 354.0 1005.7 356.7ZM1037.3 364.2Q1036.3 365.2 1034.6 365.2Q1033.0 365.2 1032.0 364.2Q1031.0 363.1 1031.0 361.3L1031.0 361.3L1031.0 336.6Q1031.0 334.9 1031.9 333.9Q1032.9 332.9 1034.5 332.9Q1036.1 332.9 1037.1 333.9Q1038.1 334.9 1038.1 336.6L1038.1 336.6L1038.1 338.8L1038.2 338.8Q1040.9 332.9 1047.9 332.9L1047.9 332.9Q1053.0 332.9 1055.8 336.0Q1058.7 339.1 1058.7 344.5L1058.7 344.5L1058.7 361.3Q1058.7 363.1 1057.7 364.2Q1056.7 365.2 1055.0 365.2Q1053.4 365.2 1052.4 364.2Q1051.4 363.1 1051.4 361.3L1051.4 361.3L1051.4 346.0Q1051.4 342.6 1049.8 340.9Q1048.2 339.1 1045.1 339.1L1045.1 339.1Q1042.0 339.1 1040.2 341.2Q1038.3 343.2 1038.3 346.6L1038.3 346.6L1038.3 361.3Q1038.3 363.1 1037.3 364.2ZM1076.5 365.2L1076.5 365.2Q1071.6 365.2 1068.3 363.5Q1065.0 361.8 1063.8 359.0L1063.8 359.0Q1063.5 358.2 1063.5 357.5L1063.5 357.5Q1063.5 356.2 1064.4 355.4Q1065.2 354.6 1066.6 354.6L1066.6 354.6Q1068.4 354.6 1069.7 356.4L1069.7 356.4Q1071.0 358.3 1072.6 359.1Q1074.2 359.9 1076.7 359.9L1076.7 359.9Q1079.3 359.9 1080.8 358.9Q1082.4 357.8 1082.4 356.1L1082.4 356.1Q1082.4 354.7 1081.4 353.8Q1080.4 353.0 1078.0 352.4L1078.0 352.4L1073.0 351.3Q1063.9 349.3 1063.9 342.4L1063.9 342.4Q1063.9 338.1 1067.4 335.5Q1070.8 332.9 1076.6 332.9L1076.6 332.9Q1081.0 332.9 1084.2 334.8Q1087.4 336.6 1088.2 339.4L1088.2 339.4Q1088.3 340.0 1088.3 340.5L1088.3 340.5Q1088.3 341.6 1087.6 342.4Q1086.8 343.1 1085.5 343.1L1085.5 343.1Q1083.6 343.1 1082.7 341.7L1082.7 341.7Q1081.6 340.0 1080.1 339.1Q1078.6 338.2 1076.4 338.2L1076.4 338.2Q1074.0 338.2 1072.5 339.3Q1071.0 340.3 1071.0 342.0L1071.0 342.0Q1071.0 344.8 1075.6 345.8L1075.6 345.8L1080.5 346.9Q1085.5 348.0 1087.6 349.9Q1089.7 351.9 1089.7 355.3L1089.7 355.3Q1089.7 359.8 1086.1 362.5Q1082.4 365.2 1076.5 365.2Z "/><defs><clipPath id="satori_bc-id-0-1"><rect x="0" y="441" width="1200" height="189"/></clipPath></defs><mask id="satori_om-id-0-1"><rect x="0" y="442" width="1200" height="188" fill="#fff"/><path width="1200" height="189" fill="none" stroke="#000" stroke-width="2" d="M0,441 A0,0 0 0 1 0,441 h1200 A0,0 0 0 1 1200,441"/></mask><path width="1200" height="189" clip-path="url(#satori_bc-id-0-1)" fill="none" stroke="#dbdbdb" stroke-width="2" d="M0,441 A0,0 0 0 1 0,441 h1200 A0,0 0 0 1 1200,441"/><mask id="satori_om-id-0-1-0"><rect x="40" y="482" width="389" height="108" fill="#fff"/></mask><clipPath id="satori_cp-id-0-1-0-0"><rect x="40" y="504" width="64" height="64"/></clipPath><mask id="satori_om-id-0-1-0-0"><rect x="40" y="504" width="64" height="64" fill="#fff"/></mask><image x="40" y="504" width="64" height="64" href="data:image/svg+xml;utf8,%3Csvg  xmlns=%22http://www.w3.org/2000/svg%22 width=%2264%22 height=%2264%22 viewBox=%220 0 128 128%22%3E%3Cpath fill=%22%23224d67%22 d=%22M22.5 14.8c2.9 1.3 99 44 99 44c2.7 1.2 2.9 3.1 2 12.4c-1 10.5-1.9 37.8-40.2 42.9c-24.6 3.2-55.9-4.3-70.9-27.2C-6 58.8 11 23.4 14.8 17.7c2.4-3.5 4.8-4.2 7.7-2.9%22%3E%3C/path%3E%3Cpath fill=%22%23f0f4c3%22 d=%22M121.5 58.8c-.3-.2-92-40.8-98.9-43.9C9.6 31.5-3.8 76 27.9 96.2c33.6 21.5 78.7-10.2 93.6-37.4%22%3E%3C/path%3E%3Cpath fill=%22%23f0f4c3%22 d=%22M117.7 57c-.3-.2-86.7-38.4-93.2-41.3c-12.2 15.5-23.9 59.1 5.7 78c31.4 20.2 73.6-11.2 87.5-36.7%22%3E%3C/path%3E%3Cpath fill=%22%23cb2a42%22 d=%22M56.2 37.6L19.5 48.2c-2.5.8-4.4 2.8-5 5.3c-1.9 8.5.8 23.3 8.9 29.8c3.5 2.7 8.6 1.8 10.8-2.1L58.5 41c1.3-1.7.5-4.2-2.3-3.4m14.3 2.9s14.6 30.1 16 33s6.3 4.7 9.9 2.8c10.7-5.6 15.5-12.4 19.2-20.2c-8.9-3.9-42.4-18.8-42.4-18.8c-2.4-1.1-4 .6-2.7 3.2m-8.6 1.9C60.3 45.1 39.5 81 37.6 84.1c-1.9 3.2-.7 7.5 2.7 9.2c12.3 6.5 30.9.4 39.6-7c2.2-1.9 4.5-5.1 3.2-8.2S68.9 44.6 67.8 42.3c-1.2-2.7-4.1-2.8-5.9.1%22%3E%3C/path%3E%3Cpath fill=%22%23f0f4c3%22 d=%22M52.2 42.2c-1.4.4-10.1 3-11.1 3.4c-1.4.5-2.2 1.7-1.9 2.5c.3.9 1.7 1.1 3.1.6c.8-.3 7.1-3.9 9.5-5.2c-3.1 2.4-10.2 9.4-11.1 10.3c-1.4 1.5-1.7 3.4-.8 4.3c1 .9 2.9.5 4.3-1c1.2-1.3 8.5-12.8 9.1-13.9s.4-1.4-1.1-1m10.1 16.4c0-2.2 1.4-10.3 1.8-12.3c.4-1.6 1.5-1.8 1.8.5s1.7 9.7 1.7 11.8s-1.2 3.3-2.7 3.3c-1.4 0-2.6-1.1-2.6-3.3M79.9 49c-1.2-1.8-3.3-4.9-4.1-6.1c-.7-1.2.1-2.1 1.8-.9s4 2.9 5.4 4c1.6 1.3 1.9 3 .8 4s-2.7.8-3.9-1%22%3E%3C/path%3E%3Cellipse cx=%2287.3%22 cy=%22103.12%22 fill=%22%23cb2a42%22 rx=%223.4%22 ry=%222.3%22 transform=%22rotate(-27.098 87.298 103.126)%22%3E%3C/ellipse%3E%3Cellipse cx=%2298.89%22 cy=%22103.82%22 fill=%22%23cb2a42%22 rx=%223.4%22 ry=%222.3%22 transform=%22rotate(-30.642 98.887 103.818)%22%3E%3C/ellipse%3E%3Cellipse cx=%22102.02%22 cy=%2293.8%22 fill=%22%23cb2a42%22 rx=%223.4%22 ry=%222.3%22 transform=%22rotate(-37.16 102.017 93.797)%22%3E%3C/ellipse%3E%3Cpath fill=%22%23cb2a42%22 d=%22M57.6 30.3c-8.3-3.7-24.4-10.7-29.6-13c-3.6 2.2-9.7 11.4-11.2 21.2c-.6 3.6 1.7 5.9 5.3 4.9c0 0 33.7-9.3 35.3-9.7c1.6-.5 2-2.6.2-3.4%22%3E%3C/path%3E%3C/svg%3E" preserveAspectRatio="none" clip-path="url(#satori_cp-id-0-1-0-0)" mask="url(#satori_om-id-0-1-0-0)"/><mask id="satori_om-id-0-1-0-0-0"><rect x="40" y="504" width="0" height="64" fill="#fff"/></mask><mask id="satori_om-id-0-1-0-0-1"><rect x="40" y="504" width="0" height="64" fill="#fff"/></mask><mask id="satori_om-id-0-1-0-0-2"><rect x="40" y="504" width="0" height="64" fill="#fff"/></mask><mask id="satori_om-id-0-1-0-0-3"><rect x="40" y="504" width="0" height="64" fill="#fff"/></mask><mask id="satori_om-id-0-1-0-0-4"><rect x="40" y="504" width="0" height="64" fill="#fff"/></mask><mask id="satori_om-id-0-1-0-0-5"><rect x="40" y="504" width="0" height="64" fill="#fff"/></mask><mask id="satori_om-id-0-1-0-0-6"><rect x="40" y="504" width="0" height="64" fill="#fff"/></mask><mask id="satori_om-id-0-1-0-0-7"><rect x="40" y="504" width="0" height="64" fill="#fff"/></mask><mask id="satori_om-id-0-1-0-0-8"><rect x="40" y="504" width="0" height="64" fill="#fff"/></mask><mask id="satori_om-id-0-1-0-1"><rect x="116" y="512" width="313" height="48" fill="#fff"/></mask><path fill="#545454" d="M133.0 553.6L133.0 553.6Q126.5 553.6 122.7 550.2Q118.8 546.7 118.8 541.1L118.8 541.1L118.8 522.5Q118.8 520.7 119.8 519.7Q120.7 518.8 122.4 518.8Q124.0 518.8 125.0 519.7Q125.9 520.7 125.9 522.5L125.9 522.5L125.9 540.4Q125.9 543.7 127.8 545.6Q129.6 547.6 133.0 547.6L133.0 547.6Q136.3 547.6 138.2 545.6Q140.1 543.7 140.1 540.4L140.1 540.4L140.1 522.5Q140.1 520.7 141.0 519.7Q141.9 518.8 143.6 518.8Q145.3 518.8 146.2 519.7Q147.1 520.7 147.1 522.5L147.1 522.5L147.1 541.1Q147.1 546.7 143.3 550.2Q139.4 553.6 133.0 553.6ZM158.9 552.6Q158.0 553.6 156.3 553.6Q154.6 553.6 153.7 552.6Q152.8 551.6 152.8 549.9L152.8 549.9L152.8 522.9Q152.8 521.2 153.7 520.2Q154.6 519.2 156.3 519.2L156.3 519.2L166.6 519.2Q172.4 519.2 175.6 522.1Q178.9 525.0 178.9 530.0L178.9 530.0Q178.9 533.2 177.3 535.8Q175.8 538.3 173.0 539.4L173.0 539.4L177.9 547.9Q178.7 549.2 178.7 550.3L178.7 550.3Q178.7 551.7 177.7 552.6Q176.7 553.6 175.1 553.6L175.1 553.6Q173.8 553.6 173.1 553.0Q172.4 552.5 171.5 550.9L171.5 550.9L165.9 540.7L159.9 540.7L159.9 549.9Q159.9 551.6 158.9 552.6ZM159.9 524.8L159.9 535.6L165.9 535.6Q168.6 535.6 170.1 534.1Q171.6 532.7 171.6 530.2L171.6 530.2Q171.6 527.7 170.0 526.2Q168.5 524.8 165.9 524.8L165.9 524.8L159.9 524.8ZM196.2 542.3L186.4 542.3Q185.0 542.3 184.1 541.5Q183.2 540.7 183.2 539.3Q183.2 537.9 184.1 537.1Q185.0 536.3 186.4 536.3L186.4 536.3L196.2 536.3Q197.6 536.3 198.5 537.1Q199.4 537.9 199.4 539.3Q199.4 540.7 198.5 541.5Q197.6 542.3 196.2 542.3L196.2 542.3ZM210.9 552.6Q209.9 553.6 208.3 553.6Q206.6 553.6 205.6 552.6Q204.7 551.6 204.7 549.9L204.7 549.9L204.7 522.9Q204.7 521.2 205.6 520.2Q206.6 519.2 208.3 519.2L208.3 519.2L218.6 519.2Q224.4 519.2 227.6 522.1Q230.8 525.0 230.8 530.0L230.8 530.0Q230.8 533.2 229.3 535.8Q227.8 538.3 225.0 539.4L225.0 539.4L229.9 547.9Q230.6 549.2 230.6 550.3L230.6 550.3Q230.6 551.7 229.6 552.6Q228.6 553.6 227.0 553.6L227.0 553.6Q225.8 553.6 225.0 553.0Q224.3 552.5 223.4 550.9L223.4 550.9L217.8 540.7L211.8 540.7L211.8 549.9Q211.8 551.6 210.9 552.6ZM211.8 524.8L211.8 535.6L217.9 535.6Q220.6 535.6 222.0 534.1Q223.5 532.7 223.5 530.2L223.5 530.2Q223.5 527.7 222.0 526.2Q220.4 524.8 217.8 524.8L217.8 524.8L211.8 524.8ZM237.7 553.5L237.7 553.5Q236.0 553.5 235.1 552.6Q234.1 551.7 234.1 550.2L234.1 550.2Q234.1 549.3 234.6 547.9L234.6 547.9L243.8 522.8Q244.6 520.7 245.8 519.7Q247.1 518.8 249.1 518.8L249.1 518.8Q251.2 518.8 252.5 519.7Q253.8 520.7 254.5 522.8L254.5 522.8L263.8 547.9Q264.3 549.2 264.3 550.2L264.3 550.2Q264.3 551.6 263.3 552.6Q262.3 553.5 260.7 553.5L260.7 553.5Q259.2 553.5 258.4 552.8Q257.5 552.1 257.0 550.4L257.0 550.4L255.3 545.0L243.1 545.0L241.3 550.3Q240.8 552.0 239.9 552.8Q239.1 553.5 237.7 553.5ZM249.0 525.7L244.6 539.6L253.6 539.6L249.1 525.7L249.0 525.7ZM281.5 553.1L272.1 553.1Q270.4 553.1 269.5 552.1Q268.6 551.1 268.6 549.4L268.6 549.4L268.6 522.9Q268.6 521.2 269.5 520.2Q270.4 519.2 272.1 519.2L272.1 519.2L281.5 519.2Q289.1 519.2 293.4 523.6Q297.6 528.0 297.6 536.0L297.6 536.0Q297.6 544.1 293.3 548.6Q289.1 553.1 281.5 553.1L281.5 553.1ZM275.6 525.1L275.6 547.2L280.6 547.2Q285.4 547.2 287.9 544.4Q290.4 541.5 290.4 536.0L290.4 536.0Q290.4 530.8 287.8 527.9Q285.3 525.1 280.6 525.1L280.6 525.1L275.6 525.1Z M333.2 553.1L314.5 553.1Q312.9 553.1 312.0 552.2Q311.2 551.4 311.2 550.0L311.2 550.0Q311.2 549.1 311.6 548.3Q312.0 547.5 313.1 546.5L313.1 546.5L323.2 536.9Q326.3 533.8 327.4 532.2Q328.4 530.6 328.4 528.8L328.4 528.8Q328.4 526.7 327.0 525.3Q325.5 524 323.3 524L323.3 524Q319.3 524 317.4 528.1L317.4 528.1Q316.8 529.2 316.1 529.7Q315.4 530.1 314.3 530.1L314.3 530.1Q312.9 530.1 312.1 529.4Q311.3 528.6 311.3 527.3L311.3 527.3Q311.3 526.5 311.5 525.7L311.5 525.7Q312.5 522.7 315.6 520.6Q318.8 518.5 323.3 518.5L323.3 518.5Q328.7 518.5 332.0 521.2Q335.3 524.0 335.3 528.3L335.3 528.3Q335.3 529.9 335.0 531.2Q334.6 532.5 333.6 533.9Q332.6 535.3 331.3 536.8Q330.0 538.2 327.8 540.3L327.8 540.3L320.5 547.3L320.5 547.4L333.2 547.4Q334.6 547.4 335.4 548.2Q336.1 549.0 336.1 550.3L336.1 550.3Q336.1 551.5 335.4 552.3Q334.6 553.1 333.2 553.1L333.2 553.1ZM363.6 549.0Q359.9 553.8 353.5 553.8Q347.1 553.8 343.4 549.1Q339.7 544.3 339.7 536.1L339.7 536.1Q339.7 527.9 343.4 523.2Q347.1 518.5 353.5 518.5Q359.9 518.5 363.6 523.2Q367.3 527.9 367.3 536.1L367.3 536.1Q367.3 544.3 363.6 549.0ZM348.6 545.0Q350.4 548.1 353.5 548.1Q356.7 548.1 358.4 545.0Q360.1 541.9 360.1 536.1L360.1 536.1Q360.1 530.4 358.4 527.2Q356.7 524.1 353.5 524.1L353.5 524.1Q350.4 524.1 348.7 527.3Q346.9 530.4 346.9 536.1L346.9 536.1Q346.9 541.9 348.6 545.0ZM393.6 553.1L374.9 553.1Q373.3 553.1 372.4 552.2Q371.6 551.4 371.6 550.0L371.6 550.0Q371.6 549.1 372.0 548.3Q372.5 547.5 373.5 546.5L373.5 546.5L383.6 536.9Q386.8 533.8 387.8 532.2Q388.9 530.6 388.9 528.8L388.9 528.8Q388.9 526.7 387.4 525.3Q386.0 524 383.7 524L383.7 524Q379.7 524 377.9 528.1L377.9 528.1Q377.3 529.2 376.5 529.7Q375.8 530.1 374.7 530.1L374.7 530.1Q373.3 530.1 372.5 529.4Q371.7 528.6 371.7 527.3L371.7 527.3Q371.7 526.5 372.0 525.7L372.0 525.7Q372.9 522.7 376.0 520.6Q379.2 518.5 383.8 518.5L383.8 518.5Q389.1 518.5 392.4 521.2Q395.8 524.0 395.8 528.3L395.8 528.3Q395.8 529.9 395.4 531.2Q395 532.5 394.0 533.9Q393.1 535.3 391.7 536.8Q390.4 538.2 388.2 540.3L388.2 540.3L380.9 547.3L380.9 547.4L393.6 547.4Q395 547.4 395.8 548.2Q396.6 549.0 396.6 550.3L396.6 550.3Q396.6 551.5 395.8 552.3Q395 553.1 393.6 553.1L393.6 553.1ZM413.6 553.8L413.6 553.8Q409.6 553.8 406.3 552.1Q403.1 550.4 401.8 547.7L401.8 547.7Q401.3 546.5 401.3 545.4L401.3 545.4Q401.3 544.0 402.0 543.3Q402.8 542.5 404.2 542.5L404.2 542.5Q405.3 542.5 406.0 542.9Q406.7 543.3 407.3 544.3L407.3 544.3Q409.3 548.2 413.6 548.2L413.6 548.2Q416.3 548.2 418.1 546.4Q419.9 544.6 419.9 541.9L419.9 541.9Q419.9 539.2 418.1 537.5Q416.4 535.8 413.6 535.8L413.6 535.8Q410.8 535.8 408.7 537.8L408.7 537.8Q407.6 538.8 406.9 539.1Q406.2 539.4 405.0 539.4L405.0 539.4Q403.4 539.4 402.5 538.4Q401.6 537.4 401.7 535.9L401.7 535.9Q401.7 535.8 401.7 535.6L401.7 535.6L402.7 523.3Q402.9 521.1 404.0 520.2Q405.1 519.2 407.2 519.2L407.2 519.2L422 519.2Q423.3 519.2 424.1 520.0Q424.9 520.8 424.9 522.1Q424.9 523.3 424.1 524.1Q423.3 524.9 422 524.9L422 524.9L408.6 524.9L407.8 534.3L408.0 534.3Q409.0 532.6 411.0 531.7Q413.0 530.7 415.6 530.7L415.6 530.7Q420.4 530.7 423.5 533.8Q426.6 536.9 426.6 541.7L426.6 541.7Q426.6 547.1 423.0 550.5Q419.4 553.8 413.6 553.8Z "/><mask id="satori_om-id-0-1-1"><rect x="1013" y="524" width="147" height="36" fill="#fff"/></mask><path fill="#8e8e8e" d="M1016.9 552.6Q1016.5 552.9 1016.0 552.9Q1015.4 552.9 1015.1 552.6Q1014.8 552.2 1014.8 551.7L1014.8 551.7L1014.8 532.6Q1014.8 532.0 1015.1 531.6Q1015.5 531.3 1016.1 531.3Q1016.6 531.3 1017.0 531.6Q1017.3 532.0 1017.3 532.6L1017.3 532.6L1017.3 540.0L1017.4 540.0Q1018.1 538.7 1019.4 537.9Q1020.7 537.2 1022.3 537.2L1022.3 537.2Q1025.2 537.2 1026.9 539.3Q1028.7 541.5 1028.7 545.0L1028.7 545.0Q1028.7 548.6 1026.9 550.8Q1025.2 552.9 1022.2 552.9L1022.2 552.9Q1020.6 552.9 1019.3 552.2Q1018.0 551.4 1017.3 550.1L1017.3 550.1L1017.2 550.1L1017.2 551.7Q1017.2 552.2 1016.9 552.6ZM1021.7 550.7L1021.7 550.7Q1023.8 550.7 1024.9 549.2Q1026.1 547.7 1026.1 545.0L1026.1 545.0Q1026.1 542.5 1024.9 540.9Q1023.8 539.4 1021.7 539.4L1021.7 539.4Q1019.8 539.4 1018.6 541.0Q1017.3 542.5 1017.3 545.0L1017.3 545.0Q1017.3 547.6 1018.6 549.1Q1019.8 550.7 1021.7 550.7ZM1032.8 558.4L1032.8 558.4Q1031.9 558.4 1031.4 558.0Q1030.9 557.7 1030.9 557.1L1030.9 557.1Q1030.9 556.7 1031.1 556.4Q1031.4 556.2 1031.9 556.2L1031.9 556.2Q1032.1 556.2 1032.3 556.2Q1032.5 556.2 1032.7 556.2L1032.7 556.2Q1034.4 556.2 1035.2 553.7L1035.2 553.7L1035.6 552.7L1030.3 539.0Q1030.2 538.6 1030.2 538.3L1030.2 538.3Q1030.2 537.8 1030.6 537.5Q1030.9 537.2 1031.5 537.2L1031.5 537.2Q1032.4 537.2 1032.7 538.1L1032.7 538.1L1036.9 550.1L1037.0 550.1L1041.2 538.1Q1041.3 537.6 1041.6 537.4Q1041.9 537.2 1042.4 537.2L1042.4 537.2Q1042.9 537.2 1043.3 537.5Q1043.6 537.8 1043.6 538.3L1043.6 538.3Q1043.6 538.6 1043.5 539.0L1043.5 539.0L1037.9 553.7Q1036.9 556.4 1035.8 557.4Q1034.7 558.4 1032.8 558.4Z M1066.9 550.9Q1064.7 553.0 1060.8 553.0Q1056.9 553.0 1054.7 550.9Q1052.4 548.7 1052.4 545.3L1052.4 545.3L1052.4 532.7Q1052.4 532.1 1052.8 531.7Q1053.1 531.3 1053.7 531.3Q1054.3 531.3 1054.7 531.7Q1055.0 532.1 1055.0 532.7L1055.0 532.7L1055.0 545.1Q1055.0 547.5 1056.6 549.1Q1058.1 550.6 1060.8 550.6Q1063.5 550.6 1065.0 549.1Q1066.6 547.5 1066.6 545.1L1066.6 545.1L1066.6 532.7Q1066.6 532.1 1066.9 531.7Q1067.3 531.3 1067.9 531.3Q1068.5 531.3 1068.8 531.7Q1069.2 532.1 1069.2 532.7L1069.2 532.7L1069.2 545.3Q1069.2 548.7 1066.9 550.9ZM1075.6 552.6Q1075.2 552.9 1074.6 552.9Q1074.0 552.9 1073.7 552.6Q1073.3 552.2 1073.3 551.6L1073.3 551.6L1073.3 532.9Q1073.3 532.3 1073.7 531.9Q1074.0 531.5 1074.6 531.5L1074.6 531.5L1081.2 531.5Q1084.3 531.5 1086.1 533.2Q1088.0 535.0 1088.0 537.8L1088.0 537.8Q1088.0 540.0 1086.8 541.6Q1085.7 543.3 1083.7 543.9L1083.7 543.9L1087.6 550.8Q1087.9 551.3 1087.9 551.7L1087.9 551.7Q1087.9 552.2 1087.5 552.6Q1087.1 552.9 1086.5 552.9L1086.5 552.9Q1086.1 552.9 1085.8 552.7Q1085.5 552.5 1085.2 552.1L1085.2 552.1L1081.0 544.3L1075.9 544.3L1075.9 551.6Q1075.9 552.2 1075.6 552.6ZM1075.9 533.9L1075.9 542.0L1081.0 542.0Q1083.0 542.0 1084.1 540.9Q1085.2 539.9 1085.2 537.9L1085.2 537.9Q1085.2 536.0 1084.1 534.9Q1082.9 533.9 1080.9 533.9L1080.9 533.9L1075.9 533.9ZM1099.4 545.3L1091.9 545.3Q1091.3 545.3 1091.0 545.0Q1090.6 544.6 1090.6 544.1Q1090.6 543.6 1091.0 543.2Q1091.3 542.9 1091.9 542.9L1091.9 542.9L1099.4 542.9Q1100.0 542.9 1100.3 543.2Q1100.7 543.6 1100.7 544.1Q1100.7 544.6 1100.3 545.0Q1100.0 545.3 1099.4 545.3L1099.4 545.3ZM1106.4 552.6Q1106.0 552.9 1105.4 552.9Q1104.8 552.9 1104.5 552.6Q1104.1 552.2 1104.1 551.6L1104.1 551.6L1104.1 532.9Q1104.1 532.3 1104.5 531.9Q1104.8 531.5 1105.4 531.5L1105.4 531.5L1112.1 531.5Q1115.1 531.5 1117.0 533.2Q1118.8 535.0 1118.8 537.8L1118.8 537.8Q1118.8 540.0 1117.7 541.6Q1116.5 543.3 1114.5 543.9L1114.5 543.9L1118.4 550.8Q1118.7 551.3 1118.7 551.7L1118.7 551.7Q1118.7 552.2 1118.3 552.6Q1117.9 552.9 1117.3 552.9L1117.3 552.9Q1116.9 552.9 1116.6 552.7Q1116.3 552.5 1116.1 552.1L1116.1 552.1L1111.8 544.3L1106.8 544.3L1106.8 551.6Q1106.8 552.2 1106.4 552.6ZM1106.8 533.9L1106.8 542.0L1111.8 542.0Q1113.9 542.0 1115.0 540.9Q1116.1 539.9 1116.1 537.9L1116.1 537.9Q1116.1 536.0 1114.9 534.9Q1113.8 533.9 1111.7 533.9L1111.7 533.9L1106.8 533.9ZM1122.2 552.9L1122.2 552.9Q1121.6 552.9 1121.2 552.5Q1120.9 552.2 1120.9 551.7L1120.9 551.7Q1120.9 551.4 1121.0 551.0L1121.0 551.0L1127.8 532.6Q1128.3 531.3 1129.5 531.3L1129.5 531.3Q1130.7 531.3 1131.2 532.6L1131.2 532.6L1138.0 551.0Q1138.2 551.4 1138.2 551.7L1138.2 551.7Q1138.2 552.2 1137.8 552.5Q1137.4 552.9 1136.9 552.9L1136.9 552.9Q1135.9 552.9 1135.6 551.9L1135.6 551.9L1133.7 546.6L1125.3 546.6L1123.5 551.9Q1123.1 552.9 1122.2 552.9ZM1129.5 534.7L1126.1 544.4L1132.9 544.4L1129.6 534.7L1129.5 534.7ZM1148.1 552.7L1142.3 552.7Q1141.7 552.7 1141.4 552.3Q1141.0 551.9 1141.0 551.3L1141.0 551.3L1141.0 532.9Q1141.0 532.3 1141.4 531.9Q1141.7 531.5 1142.3 531.5L1142.3 531.5L1148.1 531.5Q1152.8 531.5 1155.5 534.3Q1158.1 537.1 1158.1 542.1L1158.1 542.1Q1158.1 547.1 1155.5 549.9Q1152.8 552.7 1148.1 552.7L1148.1 552.7ZM1143.7 533.9L1143.7 550.3L1148.0 550.3Q1151.5 550.3 1153.5 548.2Q1155.4 546.1 1155.4 542.1L1155.4 542.1Q1155.4 538.1 1153.5 536.0Q1151.6 533.9 1148.0 533.9L1148.0 533.9L1143.7 533.9Z "/></svg>