<svg width="1200" height="630" viewBox="0 0 1200 630" xmlns="http://www.w3.org/2000/svg"><mask id="satori_om-id"><rect x="0" y="0" width="1200" height="630" fill="#fff"/></mask><defs><pattern id="satori_pattern_id-0_0" x="0" y="0" width="1" height="1" patternUnits="objectBoundingBox"><linearGradient id="satori_biid-0_0" x1="-0.09774620284174435" y1="0.18618324350808482" x2="1.0977462028417444" y2="0.8138167564919152" spreadMethod="pad"><stop offset="0%" stop-color="#f8fafc"/><stop offset="50%" stop-color="#eef2ff"/><stop offset="100%" stop-color="#ffffff"/></linearGradient><rect x="0" y="0" width="1200" height="630" fill="url(#satori_biid-0_0)"/></pattern></defs><clipPath id="satori_cp-id-0"><rect x="0" y="0" width="1200" height="630"/></clipPath><mask id="satori_om-id-0"><rect x="0" y="0" width="1200" height="630" fill="#fff"/></mask><rect x="0" y="0" width="1200" height="630" fill="url(#satori_pattern_id-0_0)"/><mask id="satori_om-id-0-0"><rect x="0" y="0" width="1200" height="509" fill="#fff" mask="url(#satori_om-id-0)"/></mask><mask id="satori_om-id-0-0-0"><rect x="72" y="72" width="1056" height="365" fill="#fff" mask="url(#satori_om-id-0)"/></mask><mask id="satori_om-id-0-0-0-0"><rect x="72" y="150" width="1056" height="38" fill="#fff" mask="url(#satori_om-id-0)"/></mask><path fill="#64748b" d="M82.7 180.2Q82.2 180.7 81.4 180.7Q80.6 180.7 80.1 180.2Q79.7 179.8 79.7 178.9L79.7 178.9L79.7 161.0L74.1 161.0Q73.4 161.0 73.0 160.5Q72.5 160.1 72.5 159.4Q72.5 158.8 73.0 158.3Q73.4 157.9 74.1 157.9L74.1 157.9L88.7 157.9Q89.4 157.9 89.9 158.3Q90.3 158.8 90.3 159.4Q90.3 160.1 89.9 160.5Q89.4 161.0 88.7 161.0L88.7 161.0L83.2 161.0L83.2 178.9Q83.2 179.8 82.7 180.2ZM95.5 180.3Q95.1 180.8 94.3 180.8Q93.6 180.8 93.1 180.3Q92.6 179.8 92.6 179.0L92.6 179.0L92.6 159.4Q92.6 158.6 93.1 158.1Q93.5 157.6 94.3 157.6L94.3 157.6Q95.1 157.6 95.5 158.1Q96.0 158.6 96.0 159.4L96.0 159.4L96.0 166.8L96.0 166.8Q96.7 165.3 98.1 164.5Q99.4 163.8 101.3 163.8L101.3 163.8Q103.9 163.8 105.5 165.4Q107.0 167.1 107.0 169.9L107.0 169.9L107.0 179.0Q107.0 179.8 106.5 180.3Q106.1 180.8 105.3 180.8L105.3 180.8Q104.6 180.8 104.1 180.3Q103.6 179.8 103.6 179.0L103.6 179.0L103.6 170.5Q103.6 168.7 102.7 167.7Q101.8 166.7 100.0 166.7L100.0 166.7Q98.2 166.7 97.1 167.8Q96 169.0 96 171.0L96 171.0L96 179.0Q96 179.8 95.5 180.3ZM116.0 180.8L116.0 180.8Q113.3 180.8 111.7 179.1Q110.2 177.5 110.2 174.7L110.2 174.7L110.2 165.5Q110.2 164.7 110.6 164.2Q111.1 163.7 111.9 163.7L111.9 163.7Q112.6 163.7 113.1 164.2Q113.6 164.7 113.6 165.5L113.6 165.5L113.6 174.0Q113.6 175.9 114.5 176.9Q115.3 177.9 117.1 177.9L117.1 177.9Q118.9 177.9 119.9 176.7Q121.0 175.5 121.0 173.6L121.0 173.6L121.0 165.5Q121.0 164.7 121.5 164.2Q121.9 163.7 122.7 163.7L122.7 163.7Q123.4 163.7 123.9 164.2Q124.4 164.7 124.4 165.5L124.4 165.5L124.4 179.0Q124.4 179.8 123.9 180.3Q123.5 180.8 122.8 180.8Q122.0 180.8 121.6 180.3Q121.1 179.8 121.1 179.1L121.1 179.1L121.1 177.7L121.0 177.7Q119.6 180.8 116.0 180.8ZM129.4 180.8L129.4 180.8Q128.6 180.8 128.1 180.3Q127.7 179.8 127.7 179.0L127.7 179.0L127.7 165.4Q127.7 164.7 128.1 164.2Q128.6 163.7 129.3 163.7L129.3 163.7Q130 163.7 130.4 164.2Q130.9 164.7 130.9 165.4L130.9 165.4L130.9 166.8L131.0 166.8Q131.3 165.5 132.3 164.6Q133.3 163.8 134.6 163.8L134.6 163.8Q135.5 163.8 135.9 164.2L135.9 164.2Q136.4 164.5 136.4 165.4L136.4 165.4Q136.4 166.1 135.9 166.5L135.9 166.5Q135.4 167.0 134.3 167.0L134.3 167.0Q132.7 167 131.9 168.0Q131.1 169.0 131.1 170.6L131.1 170.6L131.1 179.0Q131.1 179.8 130.6 180.3Q130.1 180.8 129.4 180.8ZM144.3 180.8L144.3 180.8Q141.9 180.8 140.2 179.9Q138.5 179.0 137.9 177.4L137.9 177.4Q137.7 177.1 137.7 176.7L137.7 176.7Q137.7 176.1 138.1 175.8Q138.5 175.4 139.2 175.4L139.2 175.4Q140.0 175.4 140.6 176.3L140.6 176.3Q141.3 177.3 142.1 177.8Q143.0 178.2 144.4 178.2L144.4 178.2Q145.9 178.2 146.8 177.6Q147.6 177.0 147.6 176.0L147.6 176.0Q147.6 175.2 147.1 174.7Q146.5 174.3 145.2 173.9L145.2 173.9L142.6 173.3Q137.9 172.2 137.9 168.7L137.9 168.7Q137.9 166.4 139.7 165.1Q141.5 163.7 144.4 163.7L144.4 163.7Q146.6 163.7 148.2 164.7Q149.9 165.7 150.3 167.2L150.3 167.2Q150.3 167.6 150.3 167.7L150.3 167.7Q150.3 168.3 150.0 168.6Q149.6 168.9 149 168.9L149 168.9Q148.1 168.9 147.6 168.2L147.6 168.2Q147.1 167.3 146.3 166.8Q145.5 166.3 144.3 166.3L144.3 166.3Q142.9 166.3 142.0 166.9Q141.2 167.5 141.2 168.5L141.2 168.5Q141.2 170.0 143.7 170.6L143.7 170.6L146.3 171.2Q148.9 171.8 150.0 172.9Q151.0 173.9 151.0 175.7L151.0 175.7Q151.0 178.0 149.2 179.4Q147.3 180.8 144.3 180.8ZM159.8 180.8L159.8 180.8Q156.7 180.8 154.8 178.4Q152.9 176.1 152.9 172.3Q152.9 168.4 154.8 166.1Q156.7 163.8 159.8 163.8L159.8 163.8Q161.5 163.8 162.9 164.6Q164.3 165.4 165.0 166.8L165.0 166.8L165.0 166.8L165.0 159.4Q165.0 158.6 165.5 158.1Q166.0 157.6 166.7 157.6L166.7 157.6Q167.5 157.6 167.9 158.1Q168.4 158.6 168.4 159.4L168.4 159.4L168.4 179.1Q168.4 179.9 167.9 180.3Q167.5 180.8 166.7 180.8L166.7 180.8Q166 180.8 165.5 180.3Q165.0 179.9 165.0 179.1L165.0 179.1L165.0 177.5L165.0 177.5Q164.3 179.0 163 179.9Q161.7 180.8 159.8 180.8ZM160.7 177.9L160.7 177.9Q162.7 177.9 163.9 176.4Q165.0 174.8 165.0 172.3L165.0 172.3Q165.0 169.7 163.9 168.2Q162.7 166.6 160.7 166.6L160.7 166.6Q158.7 166.6 157.5 168.1Q156.4 169.7 156.4 172.3L156.4 172.3Q156.4 174.9 157.5 176.4Q158.7 177.9 160.7 177.9ZM176.7 180.8L176.7 180.8Q174.3 180.8 172.7 179.4Q171.2 178 171.2 175.8L171.2 175.8Q171.2 173.6 172.8 172.4Q174.4 171.1 177.3 170.9L177.3 170.9L181.8 170.7L181.8 169.4Q181.8 168.0 180.9 167.3Q180.1 166.5 178.5 166.5L178.5 166.5Q177.3 166.5 176.4 167.0Q175.6 167.5 174.9 168.6L174.9 168.6Q174.4 169.3 173.5 169.3L173.5 169.3Q172.9 169.3 172.5 168.9Q172.0 168.5 172.0 167.9L172.0 167.9Q172.0 167.3 172.3 166.8L172.3 166.8Q173.0 165.4 174.7 164.6Q176.4 163.7 178.6 163.7L178.6 163.7Q181.6 163.7 183.4 165.2Q185.2 166.7 185.2 169.1L185.2 169.1L185.2 179.1Q185.2 179.8 184.7 180.3Q184.3 180.8 183.5 180.8L183.5 180.8Q182.8 180.8 182.4 180.3Q182.0 179.9 181.9 179.2L181.9 179.2L181.9 177.8L181.9 177.8Q181.2 179.1 179.7 179.9Q178.3 180.8 176.7 180.8ZM177.6 178.1L177.6 178.1Q179.4 178.1 180.6 177.0Q181.8 175.9 181.8 174.3L181.8 174.3L181.8 173.0L177.8 173.3Q176.2 173.4 175.4 174.0Q174.6 174.6 174.6 175.7L174.6 175.7Q174.6 176.8 175.4 177.4Q176.3 178.1 177.6 178.1ZM190.5 186.6L190.5 186.6Q189.3 186.6 188.7 186.2Q188.0 185.8 188.0 185.0L188.0 185.0Q188.0 184.4 188.4 184.1Q188.8 183.8 189.4 183.8L189.4 183.8Q189.5 183.8 189.8 183.8Q190.0 183.8 190.2 183.8L190.2 183.8Q191.9 183.8 192.7 181.6L192.7 181.6L193.0 180.6L187.5 166.3Q187.4 165.7 187.4 165.3L187.4 165.3Q187.4 164.6 187.8 164.2Q188.3 163.7 189.1 163.7L189.1 163.7Q189.7 163.7 190.1 164.0Q190.5 164.3 190.7 165.0L190.7 165.0L194.9 177.4L194.9 177.4L199.1 165.0Q199.3 164.3 199.7 164.0Q200.1 163.7 200.8 163.7L200.8 163.7Q201.5 163.7 201.9 164.2Q202.4 164.6 202.4 165.3L202.4 165.3Q202.4 165.7 202.2 166.2L202.2 166.2L196.5 181.3Q195.4 184.3 194.1 185.4Q192.8 186.6 190.5 186.6ZM207.2 176.7L207.2 176.7Q207.9 176.7 208.3 177.0Q208.7 177.4 208.7 178.1L208.7 178.1Q208.7 178.5 208.6 179.0L208.6 179.0L207.3 184.3Q207.0 185.5 205.8 185.5L205.8 185.5Q205.2 185.5 204.9 185.1Q204.5 184.8 204.5 184.3L204.5 184.3Q204.5 184.1 204.5 183.9L204.5 183.9L205.5 178.1Q205.8 176.7 207.2 176.7Z M223.1 180.8L223.1 180.8Q222.4 180.8 222.0 180.4Q221.5 180.0 221.5 179.3L221.5 179.3Q221.5 178.8 221.8 178.2L221.8 178.2L230.9 161.0L230.9 160.9L220.4 160.9Q219.7 160.9 219.3 160.5Q218.8 160.1 218.8 159.4L218.8 159.4Q218.8 158.7 219.3 158.3Q219.7 157.9 220.4 157.9L220.4 157.9L232.3 157.9Q233.3 157.9 233.9 158.5Q234.5 159 234.5 159.9L234.5 159.9Q234.5 160.7 233.8 162.1L233.8 162.1L224.7 179.8Q224.4 180.3 224.1 180.5Q223.7 180.8 223.1 180.8Z M247.2 180.2Q246.7 180.7 245.9 180.7Q245.1 180.7 244.7 180.2Q244.2 179.8 244.2 178.9L244.2 178.9L244.2 159.6Q244.2 158.7 244.7 158.2Q245.2 157.7 246.1 157.7L246.1 157.7Q246.7 157.7 247.1 157.9Q247.5 158.2 248.0 158.8L248.0 158.8L259.1 174.5L259.2 174.5L259.2 159.5Q259.2 158.6 259.7 158.1Q260.1 157.7 260.9 157.7L260.9 157.7Q261.7 157.7 262.2 158.1Q262.6 158.6 262.6 159.5L262.6 159.5L262.6 178.9Q262.6 179.8 262.1 180.2Q261.6 180.7 260.8 180.7L260.8 180.7Q260.1 180.7 259.7 180.5Q259.3 180.3 258.9 179.6L258.9 179.6L247.8 163.9L247.6 163.9L247.6 178.9Q247.6 179.8 247.2 180.2ZM279.1 178.5Q277.0 180.8 273.4 180.8Q269.9 180.8 267.8 178.5Q265.6 176.2 265.6 172.3L265.6 172.3Q265.6 168.3 267.8 166.0Q269.9 163.7 273.4 163.7Q277.0 163.7 279.1 166.0Q281.2 168.3 281.2 172.3L281.2 172.3Q281.2 176.2 279.1 178.5ZM273.4 178L273.4 178Q275.4 178 276.6 176.5Q277.8 175.0 277.8 172.3L277.8 172.3Q277.8 169.5 276.6 168.0Q275.4 166.5 273.4 166.5Q271.4 166.5 270.2 168.0Q269.1 169.5 269.1 172.3L269.1 172.3Q269.1 175.0 270.2 176.5Q271.4 178 273.4 178ZM290.2 180.8L290.2 180.8Q289.3 180.8 288.7 180.4Q288.2 180.0 287.8 179.0L287.8 179.0L283.0 166.2Q282.8 165.7 282.8 165.3L282.8 165.3Q282.8 164.6 283.2 164.2Q283.7 163.7 284.5 163.7L284.5 163.7Q285.7 163.7 286.1 165.1L286.1 165.1L290.1 177.2L290.2 177.2L294.3 165.0Q294.7 163.7 295.9 163.7L295.9 163.7Q296.6 163.7 297.0 164.2Q297.5 164.6 297.5 165.3L297.5 165.3Q297.5 165.7 297.3 166.2L297.3 166.2L292.5 179.0Q292.1 179.9 291.6 180.4Q291.0 180.8 290.2 180.8ZM306.9 180.8L306.9 180.8Q303.2 180.8 301.1 178.5Q299.1 176.3 299.1 172.3L299.1 172.3Q299.1 168.4 301.1 166.1Q303.2 163.7 306.7 163.7L306.7 163.7Q310.0 163.7 312.0 165.9Q314.1 168 314.1 171.4L314.1 171.4Q314.1 172.2 313.6 172.6Q313.2 173.1 312.4 173.1L312.4 173.1L302.5 173.1L302.5 173.2Q302.5 175.4 303.6 176.7Q304.8 178.0 306.8 178.0L306.8 178.0Q308.2 178.0 309.2 177.5Q310.2 177.0 311.1 175.7L311.1 175.7Q311.6 175.1 312.3 175.1L312.3 175.1Q312.9 175.1 313.3 175.5Q313.7 175.9 313.7 176.5L313.7 176.5Q313.7 176.8 313.5 177.4L313.5 177.4Q312.6 179 310.9 179.9Q309.2 180.8 306.9 180.8ZM302.5 170.7L302.5 170.7L310.7 170.7Q310.6 168.8 309.5 167.6Q308.4 166.5 306.7 166.5L306.7 166.5Q304.9 166.5 303.8 167.6Q302.6 168.8 302.5 170.7ZM319.6 180.3Q319.1 180.8 318.4 180.8Q317.6 180.8 317.1 180.3Q316.7 179.8 316.7 179.0L316.7 179.0L316.7 165.5Q316.7 164.7 317.1 164.2Q317.6 163.7 318.3 163.7Q319.0 163.7 319.5 164.2Q319.9 164.7 319.9 165.5L319.9 165.5L319.9 166.8L320.0 166.8Q320.5 165.4 321.8 164.6Q323.0 163.8 324.7 163.8L324.7 163.8Q326.4 163.8 327.6 164.6Q328.8 165.4 329.3 167.0L329.3 167.0L329.3 167.0Q330.0 165.5 331.3 164.6Q332.7 163.8 334.5 163.8L334.5 163.8Q336.9 163.8 338.4 165.2Q339.8 166.7 339.8 169.2L339.8 169.2L339.8 179.0Q339.8 179.8 339.4 180.3Q338.9 180.8 338.1 180.8Q337.4 180.8 336.9 180.3Q336.4 179.8 336.4 179.0L336.4 179.0L336.4 170.0Q336.4 168.4 335.6 167.5Q334.8 166.6 333.3 166.6Q331.8 166.6 330.9 167.6Q329.9 168.6 329.9 170.2L329.9 170.2L329.9 179.0Q329.9 179.8 329.5 180.3Q329.0 180.8 328.3 180.8Q327.5 180.8 327.0 180.3Q326.6 179.8 326.6 179.0L326.6 179.0L326.6 169.7Q326.6 168.3 325.8 167.5Q324.9 166.6 323.5 166.6L323.5 166.6Q322.0 166.6 321.0 167.7Q320.1 168.7 320.1 170.3L320.1 170.3L320.1 179.0Q320.1 179.8 319.6 180.3ZM344.8 180.8L344.8 180.8Q344.1 180.8 343.6 180.3Q343.2 179.9 343.2 179.1L343.2 179.1L343.2 159.4Q343.2 158.6 343.7 158.1Q344.1 157.6 344.9 157.6Q345.6 157.6 346.1 158.1Q346.6 158.6 346.6 159.4L346.6 159.4L346.6 166.8L346.7 166.8Q347.4 165.4 348.8 164.6Q350.1 163.8 351.9 163.8L351.9 163.8Q355.0 163.8 356.8 166.1Q358.7 168.4 358.7 172.3L358.7 172.3Q358.7 176.2 356.8 178.5Q355.0 180.8 351.8 180.8L351.8 180.8Q350.1 180.8 348.7 179.9Q347.3 179.1 346.5 177.7L346.5 177.7L346.5 177.7L346.5 179.1Q346.5 179.9 346.0 180.3Q345.6 180.8 344.8 180.8ZM350.9 177.9L350.9 177.9Q352.9 177.9 354.1 176.4Q355.2 174.9 355.2 172.3L355.2 172.3Q355.2 169.7 354.1 168.1Q352.9 166.6 350.9 166.6L350.9 166.6Q349 166.6 347.8 168.2Q346.6 169.7 346.6 172.3L346.6 172.3Q346.6 174.8 347.8 176.3Q349 177.9 350.9 177.9ZM368.4 180.8L368.4 180.8Q364.7 180.8 362.6 178.5Q360.6 176.3 360.6 172.3L360.6 172.3Q360.6 168.4 362.6 166.1Q364.7 163.7 368.2 163.7L368.2 163.7Q371.5 163.7 373.5 165.9Q375.6 168 375.6 171.4L375.6 171.4Q375.6 172.2 375.1 172.6Q374.7 173.1 373.9 173.1L373.9 173.1L364.0 173.1L364.0 173.2Q364.0 175.4 365.2 176.7Q366.3 178.0 368.4 178.0L368.4 178.0Q369.7 178.0 370.7 177.5Q371.7 177.0 372.6 175.7L372.6 175.7Q373.1 175.1 373.8 175.1L373.8 175.1Q374.4 175.1 374.8 175.5Q375.2 175.9 375.2 176.5L375.2 176.5Q375.2 176.8 375.0 177.4L375.0 177.4Q374.2 179 372.4 179.9Q370.7 180.8 368.4 180.8ZM364 170.7L364 170.7L372.2 170.7Q372.2 168.8 371.1 167.6Q370.0 166.5 368.2 166.5L368.2 166.5Q366.4 166.5 365.3 167.6Q364.1 168.8 364 170.7ZM379.9 180.8L379.9 180.8Q379.1 180.8 378.7 180.3Q378.2 179.8 378.2 179.0L378.2 179.0L378.2 165.4Q378.2 164.7 378.6 164.2Q379.1 163.7 379.8 163.7L379.8 163.7Q380.5 163.7 381.0 164.2Q381.4 164.7 381.4 165.4L381.4 165.4L381.4 166.8L381.5 166.8Q381.8 165.5 382.8 164.6Q383.8 163.8 385.1 163.8L385.1 163.8Q386.0 163.8 386.4 164.2L386.4 164.2Q386.9 164.5 386.9 165.4L386.9 165.4Q386.9 166.1 386.4 166.5L386.4 166.5Q385.9 167.0 384.8 167.0L384.8 167.0Q383.2 167 382.4 168.0Q381.6 169.0 381.6 170.6L381.6 170.6L381.6 179.0Q381.6 179.8 381.1 180.3Q380.6 180.8 379.9 180.8Z M409.3 180.5L396.9 180.5Q396.1 180.5 395.6 180.1Q395.2 179.7 395.2 179L395.2 179Q395.2 178.5 395.4 178.1Q395.6 177.8 396.2 177.2L396.2 177.2L403.2 170.0Q405.4 167.8 406.1 166.6Q406.9 165.4 406.9 164.1L406.9 164.1Q406.9 162.5 405.8 161.4Q404.7 160.4 403.0 160.4L403.0 160.4Q399.6 160.4 398.4 163.7L398.4 163.7Q398.2 164.3 397.8 164.6Q397.5 164.9 396.8 164.9L396.8 164.9Q396.1 164.9 395.7 164.5Q395.3 164.0 395.3 163.4L395.3 163.4Q395.3 163 395.4 162.6L395.4 162.6Q395.6 161.7 396.2 160.8Q396.8 159.9 397.7 159.2Q398.6 158.4 400.0 158.0Q401.4 157.5 403.0 157.5L403.0 157.5Q406.2 157.5 408.3 159.3Q410.3 161.1 410.3 163.9L410.3 163.9Q410.3 165.8 409.3 167.5Q408.2 169.1 405.3 172.0L405.3 172.0L400.0 177.4L400.0 177.5L409.3 177.5Q410.0 177.5 410.4 177.9Q410.9 178.3 410.9 179L410.9 179Q410.9 179.7 410.4 180.1Q410.0 180.5 409.3 180.5L409.3 180.5ZM428.4 177.7Q426.1 180.9 422.0 180.9Q418 180.9 415.7 177.7Q413.4 174.6 413.4 169.2L413.4 169.2Q413.4 163.8 415.7 160.6Q418.0 157.5 422.0 157.5L422.0 157.5Q426.1 157.5 428.4 160.6Q430.7 163.8 430.7 169.2L430.7 169.2Q430.7 174.6 428.4 177.7ZM422.0 178.0L422.0 178.0Q424.5 178.0 425.8 175.6Q427.1 173.3 427.1 169.2L427.1 169.2Q427.1 165.1 425.8 162.8Q424.5 160.4 422.0 160.4Q419.6 160.4 418.3 162.8Q417.0 165.1 417.0 169.2L417.0 169.2Q417.0 173.3 418.3 175.6Q419.6 178.0 422.0 178.0ZM447.8 180.5L435.4 180.5Q434.6 180.5 434.1 180.1Q433.7 179.7 433.7 179L433.7 179Q433.7 178.5 433.9 178.1Q434.1 177.8 434.7 177.2L434.7 177.2L441.7 170.0Q443.9 167.8 444.6 166.6Q445.4 165.4 445.4 164.1L445.4 164.1Q445.4 162.5 444.3 161.4Q443.2 160.4 441.5 160.4L441.5 160.4Q438.1 160.4 436.9 163.7L436.9 163.7Q436.7 164.3 436.3 164.6Q436.0 164.9 435.3 164.9L435.3 164.9Q434.6 164.9 434.2 164.5Q433.8 164.0 433.8 163.4L433.8 163.4Q433.8 163 433.9 162.6L433.9 162.6Q434.1 161.7 434.7 160.8Q435.3 159.9 436.2 159.2Q437.1 158.4 438.5 158.0Q439.9 157.5 441.5 157.5L441.5 157.5Q444.7 157.5 446.8 159.3Q448.8 161.1 448.8 163.9L448.8 163.9Q448.8 165.8 447.8 167.5Q446.7 169.1 443.8 172.0L443.8 172.0L438.5 177.4L438.5 177.5L447.8 177.5Q448.5 177.5 448.9 177.9Q449.4 178.3 449.4 179L449.4 179Q449.4 179.7 448.9 180.1Q448.5 180.5 447.8 180.5L447.8 180.5ZM464.7 180.8L464.7 180.8Q464.0 180.8 463.5 180.3Q463.0 179.8 463.0 179.0L463.0 179.0L463.0 176.0L453.7 176.0Q452.8 176.0 452.2 175.4Q451.7 174.9 451.7 174L451.7 174Q451.7 172.9 452.5 171.5L452.5 171.5Q454.4 168.0 459.8 160.3L459.8 160.3Q460.8 158.8 461.6 158.2Q462.4 157.6 463.5 157.6L463.5 157.6Q464.9 157.6 465.6 158.3Q466.4 159 466.4 160.3L466.4 160.3L466.4 173.0L468.2 173.0Q468.8 173.0 469.3 173.5Q469.7 173.9 469.7 174.5Q469.7 175.2 469.3 175.6Q468.8 176.0 468.2 176.0L468.2 176.0L466.4 176.0L466.4 179.0Q466.4 179.8 465.9 180.3Q465.4 180.8 464.7 180.8ZM455.0 173.1L463.0 173.1L463.0 160.7L463.0 160.7Q457.2 169.0 455.0 173L455.0 173L455.0 173.1Z " clip-path="url(#satori_cp-id-0)" mask="url(#satori_om-id-0)"/><mask id="satori_om-id-0-0-0-1"><rect x="72" y="212" width="1056" height="147" fill="#fff" mask="url(#satori_om-id-0)"/></mask><path fill="#0f172a" d="M104.4 271.0Q103.2 272.2 101.2 272.2Q99.2 272.2 97.9 271.0Q96.7 269.8 96.7 267.6L96.7 267.6L96.7 263.3L79.9 263.3Q77.3 263.3 75.8 261.8Q74.2 260.4 74.2 258.0L74.2 258.0Q74.2 255.3 76.2 251.8L76.2 251.8Q79.9 245.1 88.7 232.1L88.7 232.1Q91 228.5 93 227.1Q95 225.8 97.9 225.8L97.9 225.8Q101.5 225.8 103.6 227.6Q105.7 229.4 105.7 232.6L105.7 232.6L105.7 255.7L108.2 255.7Q110.1 255.7 111.1 256.8Q112.1 257.8 112.1 259.5L112.1 259.5Q112.1 261.2 111.1 262.2Q110.0 263.3 108.2 263.3L108.2 263.3L105.7 263.3L105.7 267.6Q105.7 269.8 104.4 271.0ZM82.4 256.0L96.9 256.0L96.9 233.3L96.7 233.3Q86.9 247.4 82.4 255.7L82.4 255.7L82.4 256.0ZM134.4 271.6L121.9 271.6Q119.7 271.6 118.4 270.3Q117.2 269.0 117.2 266.6L117.2 266.6L117.2 231.4Q117.2 229.1 118.4 227.8Q119.7 226.5 121.9 226.5L121.9 226.5L134.4 226.5Q144.6 226.5 150.3 232.3Q155.9 238.1 155.9 248.8L155.9 248.8Q155.9 259.6 150.2 265.6Q144.6 271.6 134.4 271.6L134.4 271.6ZM126.6 234.2L126.6 263.7L133.3 263.7Q139.6 263.7 143.0 259.9Q146.3 256.1 146.3 248.9L146.3 248.9Q146.3 241.8 142.9 238.0Q139.5 234.2 133.3 234.2L133.3 234.2L126.6 234.2ZM178.9 257.2L165.8 257.2Q163.9 257.2 162.7 256.1Q161.5 255.1 161.5 253.2Q161.5 251.4 162.7 250.3Q163.9 249.2 165.8 249.2L165.8 249.2L178.9 249.2Q180.8 249.2 182.0 250.3Q183.2 251.4 183.2 253.2Q183.2 255.1 182.0 256.1Q180.8 257.2 178.9 257.2L178.9 257.2ZM194.2 272.2L194.2 272.2Q192.1 272.2 190.9 271.0Q189.7 269.8 189.7 267.6L189.7 267.6L189.7 230.6Q189.7 228.3 190.9 227.0Q192.2 225.8 194.3 225.8Q196.3 225.8 197.6 227.0Q198.8 228.3 198.8 230.6L198.8 230.6L198.8 243.9L199 243.9Q200.4 240.9 203.1 239.2Q205.8 237.5 209.3 237.5L209.3 237.5Q215.7 237.5 219.3 242.1Q223.0 246.7 223.0 254.8Q223.0 262.9 219.3 267.5Q215.7 272.1 209.4 272.1L209.4 272.1Q205.8 272.1 203.0 270.4Q200.3 268.8 198.9 265.8L198.9 265.8L198.7 265.8L198.7 267.6Q198.7 269.8 197.5 271.0Q196.2 272.2 194.2 272.2ZM206.3 264.7L206.3 264.7Q209.7 264.7 211.6 262.1Q213.6 259.4 213.6 254.8L213.6 254.8Q213.6 250.2 211.6 247.5Q209.7 244.8 206.3 244.8L206.3 244.8Q202.9 244.8 200.8 247.6Q198.8 250.3 198.8 254.8L198.8 254.8Q198.8 259.3 200.8 262.0Q202.9 264.7 206.3 264.7ZM237.6 272.1L237.6 272.1Q232.8 272.1 229.6 269.2Q226.4 266.4 226.4 261.9L226.4 261.9Q226.4 257.4 229.8 254.8Q233.1 252.2 239.4 251.8L239.4 251.8L247.9 251.3L247.9 249.1Q247.9 246.8 246.4 245.5Q244.8 244.1 242.3 244.1L242.3 244.1Q240.2 244.1 238.7 244.9Q237.3 245.7 235.8 247.7L235.8 247.7Q234.3 249.4 232.1 249.4L232.1 249.4Q230.5 249.4 229.4 248.4Q228.3 247.4 228.3 245.9L228.3 245.9Q228.3 244.8 228.8 243.8L228.8 243.8Q229.9 240.8 233.7 239.1Q237.4 237.3 242.7 237.3L242.7 237.3Q249.1 237.3 253.0 240.4Q256.8 243.5 256.8 248.5L256.8 248.5L256.8 267.6Q256.8 269.8 255.6 271.0Q254.4 272.2 252.4 272.2L252.4 272.2Q250.5 272.2 249.3 271.2Q248.2 270.1 248.0 268.1L248.0 268.1L248.0 266.4L247.8 266.4Q246.5 269.1 243.6 270.6Q240.8 272.1 237.6 272.1ZM240.6 265.5L240.6 265.5Q243.6 265.5 245.8 263.7Q247.9 262.0 247.9 259.3L247.9 259.3L247.9 256.8L240.8 257.3Q238.3 257.5 236.9 258.6Q235.5 259.6 235.5 261.4L235.5 261.4Q235.5 263.3 236.9 264.4Q238.3 265.5 240.6 265.5ZM276.4 272.3L276.4 272.3Q270.8 272.3 267.0 270.4Q263.2 268.6 262.0 265.6L262.0 265.6Q261.6 264.6 261.6 263.9L261.6 263.9Q261.6 262.3 262.7 261.4Q263.7 260.4 265.3 260.4L265.3 260.4Q267.4 260.4 269.3 262.5L269.3 262.5Q270.7 264.2 272.3 265.1Q274.0 265.9 276.6 265.9L276.6 265.9Q279.1 265.9 280.6 264.9Q282.1 263.9 282.1 262.3L282.1 262.3Q282.1 260.9 281.1 260.1Q280.1 259.3 277.6 258.8L277.6 258.8L272 257.6Q267.1 256.5 264.6 254.1Q262.1 251.6 262.1 247.9L262.1 247.9Q262.1 243.1 266.0 240.2Q269.8 237.3 276.3 237.3L276.3 237.3Q281.4 237.3 285.0 239.3Q288.6 241.3 289.5 244.3L289.5 244.3Q289.7 245.1 289.7 245.6L289.7 245.6Q289.7 247.1 288.8 247.9Q287.9 248.7 286.2 248.7L286.2 248.7Q284.1 248.7 282.9 247.3L282.9 247.3Q281.5 245.6 280.0 244.7Q278.5 243.7 276.2 243.7L276.2 243.7Q273.9 243.7 272.4 244.7Q270.9 245.7 270.9 247.4L270.9 247.4Q270.9 248.7 272.0 249.6Q273.1 250.5 275.6 251.0L275.6 251.0L281.1 252.2Q286.5 253.3 288.8 255.4Q291.2 257.6 291.2 261.3L291.2 261.3Q291.2 266.3 287.1 269.3Q283.0 272.3 276.4 272.3ZM311.1 272.3L311.1 272.3Q303.3 272.3 298.9 267.7Q294.5 263.1 294.5 255.0L294.5 255.0Q294.5 246.9 298.8 242.1Q303.2 237.3 310.7 237.3L310.7 237.3Q317.8 237.3 322.1 241.7Q326.5 246.1 326.5 252.9L326.5 252.9Q326.5 254.8 325.5 255.9Q324.5 256.9 322.6 256.9L322.6 256.9L303.4 256.9L303.4 257.3Q303.4 261.0 305.5 263.3Q307.6 265.5 311.1 265.5L311.1 265.5Q313.6 265.5 315.4 264.6Q317.2 263.7 319.1 261.5L319.1 261.5Q320.4 260.1 322.0 260.1L322.0 260.1Q323.6 260.1 324.6 261.1Q325.6 262.0 325.6 263.5L325.6 263.5Q325.6 264.6 325.0 265.7L325.0 265.7Q323.3 268.8 319.6 270.5Q315.9 272.3 311.1 272.3ZM303.5 251.3L303.5 251.3L317.8 251.3Q317.6 248.0 315.7 246.1Q313.8 244.1 310.8 244.1Q307.8 244.1 305.8 246.1Q303.8 248.1 303.5 251.3ZM343.7 272.1L343.7 272.1Q337.4 272.1 333.7 267.4Q330 262.8 330 254.7L330 254.7Q330 246.8 333.7 242.1Q337.4 237.5 343.7 237.5L343.7 237.5Q347.3 237.5 350.0 239.2Q352.7 241.0 353.9 243.8L353.9 243.8L354.1 243.8L354.1 230.6Q354.1 228.3 355.4 227.0Q356.6 225.8 358.7 225.8Q360.8 225.8 362 227.0Q363.3 228.3 363.3 230.6L363.3 230.6L363.3 267.6Q363.3 269.8 362.0 271.0Q360.8 272.2 358.7 272.2L358.7 272.2Q356.7 272.2 355.4 271.0Q354.1 269.8 354.1 267.6L354.1 267.6L354.1 265.6L354.0 265.6Q352.8 268.6 350.1 270.3Q347.4 272.1 343.7 272.1ZM346.8 264.7L346.8 264.7Q350.2 264.7 352.2 262.1Q354.2 259.4 354.2 254.8L354.2 254.8Q354.2 250.2 352.2 247.5Q350.2 244.8 346.8 244.8L346.8 244.8Q343.3 244.8 341.3 247.5Q339.3 250.2 339.3 254.8L339.3 254.8Q339.3 259.4 341.3 262.1Q343.3 264.7 346.8 264.7Z M391.0 270.9Q389.7 272.2 387.5 272.2Q385.3 272.2 384.0 270.9Q382.8 269.6 382.8 267.3L382.8 267.3L382.8 231.4Q382.8 229.1 384.0 227.8Q385.3 226.5 387.5 226.5L387.5 226.5L401.3 226.5Q409.0 226.5 413.3 230.3Q417.6 234.1 417.6 240.8L417.6 240.8Q417.6 245.1 415.5 248.5Q413.5 251.8 409.8 253.4L409.8 253.4L416.3 264.6Q417.3 266.4 417.3 267.9L417.3 267.9Q417.3 269.8 416.0 271.0Q414.6 272.2 412.6 272.2L412.6 272.2Q410.9 272.2 409.9 271.5Q408.9 270.7 407.8 268.6L407.8 268.6L400.3 255.1L392.2 255.1L392.2 267.3Q392.2 269.6 391.0 270.9ZM392.2 233.8L392.2 248.2L400.3 248.2Q403.9 248.2 405.9 246.3Q407.9 244.4 407.9 241.0L407.9 241.0Q407.9 237.7 405.8 235.8Q403.8 233.8 400.3 233.8L400.3 233.8L392.2 233.8ZM450.5 267.6Q446 272.3 438.3 272.3Q430.7 272.3 426.2 267.6Q421.8 263.0 421.8 254.8L421.8 254.8Q421.8 246.7 426.3 242.0Q430.8 237.3 438.3 237.3L438.3 237.3Q445.9 237.3 450.4 242.0Q454.9 246.7 454.9 254.8L454.9 254.8Q454.9 263.0 450.5 267.6ZM438.3 265.3L438.3 265.3Q441.7 265.3 443.7 262.6Q445.7 259.8 445.7 254.8L445.7 254.8Q445.7 249.9 443.7 247.1Q441.7 244.3 438.3 244.3Q435.0 244.3 433.0 247.1Q431 249.9 431 254.8L431 254.8Q431 259.8 433.0 262.6Q434.9 265.3 438.3 265.3ZM464.3 272.2L464.3 272.2Q462.3 272.2 461.1 271.0Q459.8 269.8 459.8 267.6L459.8 267.6L459.8 230.6Q459.8 228.3 461.1 227.0Q462.3 225.8 464.4 225.8Q466.5 225.8 467.7 227.0Q469.0 228.3 469.0 230.6L469.0 230.6L469.0 243.9L469.2 243.9Q470.6 240.9 473.3 239.2Q476.0 237.5 479.5 237.5L479.5 237.5Q485.9 237.5 489.5 242.1Q493.1 246.7 493.1 254.8Q493.1 262.9 489.5 267.5Q485.9 272.1 479.5 272.1L479.5 272.1Q475.9 272.1 473.2 270.4Q470.5 268.8 469.0 265.8L469.0 265.8L468.8 265.8L468.8 267.6Q468.8 269.8 467.6 271.0Q466.4 272.2 464.3 272.2ZM476.4 264.7L476.4 264.7Q479.8 264.7 481.8 262.1Q483.8 259.4 483.8 254.8L483.8 254.8Q483.8 250.2 481.8 247.5Q479.8 244.8 476.4 244.8L476.4 244.8Q473.1 244.8 471 247.6Q468.9 250.3 468.9 254.8L468.9 254.8Q468.9 259.3 471 262.0Q473.1 264.7 476.4 264.7ZM525.3 267.6Q520.9 272.3 513.2 272.3Q505.6 272.3 501.1 267.6Q496.6 263.0 496.6 254.8L496.6 254.8Q496.6 246.7 501.1 242.0Q505.7 237.3 513.2 237.3L513.2 237.3Q520.8 237.3 525.3 242.0Q529.8 246.7 529.8 254.8L529.8 254.8Q529.8 263.0 525.3 267.6ZM513.2 265.3L513.2 265.3Q516.6 265.3 518.6 262.6Q520.5 259.8 520.5 254.8L520.5 254.8Q520.5 249.9 518.6 247.1Q516.6 244.3 513.2 244.3Q509.8 244.3 507.9 247.1Q505.9 249.9 505.9 254.8L505.9 254.8Q505.9 259.8 507.8 262.6Q509.8 265.3 513.2 265.3ZM536.9 263.0L536.9 263.0L536.9 244.9L535.2 244.9Q533.6 244.9 532.6 244.0Q531.7 243.1 531.7 241.5Q531.7 239.9 532.6 239.0Q533.6 238.1 535.2 238.1L535.2 238.1L536.9 238.1L536.9 234.3Q536.9 232.1 538.2 230.8Q539.4 229.6 541.5 229.6Q543.6 229.6 544.8 230.8Q546.1 232.1 546.1 234.3L546.1 234.3L546.1 238.1L549.3 238.1Q550.9 238.1 551.8 239.0Q552.8 239.9 552.8 241.5Q552.8 243.1 551.8 244.0Q550.9 244.9 549.3 244.9L549.3 244.9L546.1 244.9L546.1 261.0Q546.1 262.7 546.7 263.6Q547.4 264.4 548.8 264.5L548.8 264.5L549.4 264.6Q551.2 264.7 552.0 265.5Q552.9 266.3 552.9 267.9L552.9 267.9Q552.9 269.8 551.2 270.9Q549.4 271.9 546.4 271.9L546.4 271.9L546.1 271.9Q536.9 271.9 536.9 263.0Z M578.5 270.9Q577.3 272.1 575.2 272.1Q573.1 272.1 571.9 270.9Q570.7 269.7 570.7 267.4L570.7 267.4L570.7 230.6Q570.7 228.3 571.9 227.1Q573.2 225.8 575.4 225.8L575.4 225.8Q576.9 225.8 578.0 226.5Q579.0 227.1 580.1 228.6L580.1 228.6L599.6 255.8L599.9 255.8L599.9 230.6Q599.9 228.3 601.1 227.1Q602.3 225.8 604.4 225.8L604.4 225.8Q606.5 225.8 607.7 227.1Q608.9 228.3 608.9 230.6L608.9 230.6L608.9 267.6Q608.9 269.8 607.7 271.0Q606.5 272.1 604.3 272.1L604.3 272.1Q602.8 272.1 601.7 271.5Q600.6 270.9 599.6 269.4L599.6 269.4L580 242.0L579.7 242.0L579.7 267.4Q579.7 269.7 578.5 270.9ZM625.5 272.1L625.5 272.1Q620.7 272.1 617.5 269.2Q614.3 266.4 614.3 261.9L614.3 261.9Q614.3 257.4 617.7 254.8Q621.1 252.2 627.4 251.8L627.4 251.8L635.8 251.3L635.8 249.1Q635.8 246.8 634.3 245.5Q632.8 244.1 630.2 244.1L630.2 244.1Q628.1 244.1 626.7 244.9Q625.2 245.7 623.7 247.7L623.7 247.7Q622.2 249.4 620.1 249.4L620.1 249.4Q618.4 249.4 617.3 248.4Q616.3 247.4 616.3 245.9L616.3 245.9Q616.3 244.8 616.7 243.8L616.7 243.8Q617.9 240.8 621.6 239.1Q625.4 237.3 630.6 237.3L630.6 237.3Q637.0 237.3 640.9 240.4Q644.8 243.5 644.8 248.5L644.8 248.5L644.8 267.6Q644.8 269.8 643.6 271.0Q642.3 272.2 640.3 272.2L640.3 272.2Q638.4 272.2 637.3 271.2Q636.1 270.1 636.0 268.1L636.0 268.1L636.0 266.4L635.8 266.4Q634.4 269.1 631.6 270.6Q628.8 272.1 625.5 272.1ZM628.5 265.5L628.5 265.5Q631.6 265.5 633.7 263.7Q635.8 262.0 635.8 259.3L635.8 259.3L635.8 256.8L628.8 257.3Q626.2 257.5 624.8 258.6Q623.4 259.6 623.4 261.4L623.4 261.4Q623.4 263.3 624.8 264.4Q626.2 265.5 628.5 265.5ZM664.7 272.2L664.7 272.2Q662.1 272.2 660.6 271.1Q659.1 270.0 658.1 267.6L658.1 267.6L649.4 244.2Q648.9 242.7 648.9 241.5L648.9 241.5Q648.9 239.6 650.2 238.5Q651.5 237.4 653.5 237.4L653.5 237.4Q656.8 237.4 657.8 241.0L657.8 241.0L664.6 263.5L664.8 263.5L671.6 240.9Q672.5 237.4 675.9 237.4L675.9 237.4Q677.8 237.4 679.0 238.5Q680.3 239.7 680.3 241.4L680.3 241.4Q680.3 242.6 679.8 244.0L679.8 244.0L671.1 267.6Q670.2 270.0 668.7 271.1Q667.2 272.2 664.7 272.2ZM692.6 232.5Q691.2 233.9 689.2 233.9Q687.1 233.9 685.7 232.5Q684.3 231.1 684.3 229.2L684.3 229.2Q684.3 227.2 685.7 225.8Q687.1 224.5 689.2 224.5Q691.2 224.5 692.6 225.8Q694.0 227.2 694.0 229.2L694.0 229.2Q694.0 231.1 692.6 232.5ZM692.5 270.9Q691.3 272.2 689.2 272.2Q687.0 272.2 685.8 270.9Q684.6 269.7 684.6 267.5L684.6 267.5L684.6 242.1Q684.6 239.9 685.8 238.6Q687.0 237.4 689.2 237.4Q691.3 237.4 692.5 238.6Q693.7 239.9 693.7 242.1L693.7 242.1L693.7 267.5Q693.7 269.7 692.5 270.9ZM714.8 284.1L714.8 284.1Q709.8 284.1 706.1 282.4Q702.3 280.7 700.7 278.0L700.7 278.0Q700.0 276.8 700.0 275.5L700.0 275.5Q700.0 274.0 701.0 273.1Q702 272.1 703.7 272.1L703.7 272.1Q705.4 272.1 706.8 273.4L706.8 273.4Q710.7 277.1 714.7 277.1L714.7 277.1Q718.4 277.1 720.5 275.2Q722.7 273.4 722.7 270.2L722.7 270.2L722.7 264.8L722.5 264.8Q721.3 267.6 718.5 269.2Q715.8 270.8 712.2 270.8L712.2 270.8Q705.9 270.8 702.2 266.4Q698.6 261.9 698.6 254.2L698.6 254.2Q698.6 246.4 702.2 241.9Q705.8 237.5 712.3 237.5L712.3 237.5Q715.8 237.5 718.5 239.2Q721.2 240.9 722.5 243.8L722.5 243.8L722.7 243.8L722.7 242.0Q722.7 239.7 724.0 238.6Q725.3 237.4 727.3 237.4L727.3 237.4Q729.3 237.4 730.6 238.6Q731.8 239.7 731.8 242.0L731.8 242.0L731.8 270.2Q731.8 276.8 727.3 280.5Q722.8 284.2 714.8 284.1ZM715.3 264.1L715.3 264.1Q718.7 264.1 720.7 261.5Q722.8 258.9 722.8 254.4Q722.8 249.8 720.7 247.1Q718.7 244.5 715.3 244.5L715.3 244.5Q711.9 244.5 709.9 247.1Q707.9 249.8 707.9 254.3L707.9 254.3Q707.9 258.9 709.9 261.5Q711.8 264.1 715.3 264.1ZM747.7 272.1L747.7 272.1Q742.8 272.1 739.6 269.2Q736.4 266.4 736.4 261.9L736.4 261.9Q736.4 257.4 739.8 254.8Q743.2 252.2 749.5 251.8L749.5 251.8L757.9 251.3L757.9 249.1Q757.9 246.8 756.4 245.5Q754.9 244.1 752.3 244.1L752.3 244.1Q750.2 244.1 748.8 244.9Q747.3 245.7 745.8 247.7L745.8 247.7Q744.3 249.4 742.2 249.4L742.2 249.4Q740.5 249.4 739.5 248.4Q738.4 247.4 738.4 245.9L738.4 245.9Q738.4 244.8 738.8 243.8L738.8 243.8Q740 240.8 743.8 239.1Q747.5 237.3 752.7 237.3L752.7 237.3Q759.2 237.3 763.0 240.4Q766.9 243.5 766.9 248.5L766.9 248.5L766.9 267.6Q766.9 269.8 765.7 271.0Q764.5 272.2 762.5 272.2L762.5 272.2Q760.6 272.2 759.4 271.2Q758.2 270.1 758.1 268.1L758.1 268.1L758.1 266.4L757.9 266.4Q756.5 269.1 753.7 270.6Q750.9 272.1 747.7 272.1ZM750.7 265.5L750.7 265.5Q753.7 265.5 755.8 263.7Q757.9 262.0 757.9 259.3L757.9 259.3L757.9 256.8L750.9 257.3Q748.3 257.5 746.9 258.6Q745.5 259.6 745.5 261.4L745.5 261.4Q745.5 263.3 746.9 264.4Q748.3 265.5 750.7 265.5ZM775.2 263.0L775.2 263.0L775.2 244.9L773.5 244.9Q771.8 244.9 770.9 244.0Q769.9 243.1 769.9 241.5Q769.9 239.9 770.9 239.0Q771.8 238.1 773.5 238.1L773.5 238.1L775.2 238.1L775.2 234.3Q775.2 232.1 776.4 230.8Q777.7 229.6 779.8 229.6Q781.9 229.6 783.1 230.8Q784.3 232.1 784.3 234.3L784.3 234.3L784.3 238.1L787.6 238.1Q789.2 238.1 790.1 239.0Q791.1 239.9 791.1 241.5Q791.1 243.1 790.1 244.0Q789.2 244.9 787.6 244.9L787.6 244.9L784.3 244.9L784.3 261.0Q784.3 262.7 785 263.6Q785.7 264.4 787.1 264.5L787.1 264.5L787.7 264.6Q789.5 264.7 790.3 265.5Q791.2 266.3 791.2 267.9L791.2 267.9Q791.2 269.8 789.4 270.9Q787.7 271.9 784.7 271.9L784.7 271.9L784.4 271.9Q775.2 271.9 775.2 263.0ZM803.7 232.5Q802.3 233.9 800.3 233.9Q798.2 233.9 796.8 232.5Q795.4 231.1 795.4 229.2L795.4 229.2Q795.4 227.2 796.8 225.8Q798.2 224.5 800.3 224.5Q802.3 224.5 803.7 225.8Q805.1 227.2 805.1 229.2L805.1 229.2Q805.1 231.1 803.7 232.5ZM803.6 270.9Q802.4 272.2 800.3 272.2Q798.1 272.2 796.9 270.9Q795.7 269.7 795.7 267.5L795.7 267.5L795.7 242.1Q795.7 239.9 796.9 238.6Q798.1 237.4 800.3 237.4Q802.4 237.4 803.6 238.6Q804.8 239.9 804.8 242.1L804.8 242.1L804.8 267.5Q804.8 269.7 803.6 270.9ZM838.4 267.6Q833.9 272.3 826.3 272.3Q818.6 272.3 814.1 267.6Q809.7 263.0 809.7 254.8L809.7 254.8Q809.7 246.7 814.2 242.0Q818.7 237.3 826.3 237.3L826.3 237.3Q833.8 237.3 838.3 242.0Q842.8 246.7 842.8 254.8L842.8 254.8Q842.8 263.0 838.4 267.6ZM826.3 265.3L826.3 265.3Q829.6 265.3 831.6 262.6Q833.6 259.8 833.6 254.8L833.6 254.8Q833.6 249.9 831.6 247.1Q829.6 244.3 826.3 244.3Q822.9 244.3 820.9 247.1Q818.9 249.9 818.9 254.8L818.9 254.8Q818.9 259.8 820.9 262.6Q822.8 265.3 826.3 265.3ZM855.4 271.0Q854.2 272.2 852.1 272.2Q850.0 272.2 848.8 271.0Q847.5 269.7 847.5 267.5L847.5 267.5L847.5 242.0Q847.5 239.8 848.7 238.6Q849.9 237.4 851.9 237.4Q854 237.4 855.3 238.6Q856.5 239.9 856.5 242.0L856.5 242.0L856.5 243.9L856.7 243.9Q859.4 237.4 867 237.4L867 237.4Q872.6 237.4 875.6 240.7Q878.6 244.1 878.6 250.0L878.6 250.0L878.6 267.5Q878.6 269.7 877.4 271.0Q876.1 272.2 874.1 272.2Q872 272.2 870.8 271.0Q869.5 269.7 869.5 267.5L869.5 267.5L869.5 251.9Q869.5 248.6 867.9 246.8Q866.4 245.0 863.3 245.0Q860.3 245.0 858.5 247.0Q856.7 249.1 856.7 252.3L856.7 252.3L856.7 267.5Q856.7 269.7 855.4 271.0Z M909.0 272.2L909.0 272.2Q903.5 272.2 900.2 268.8Q896.9 265.5 896.9 259.6L896.9 259.6L896.9 242.1Q896.9 239.9 898.2 238.6Q899.4 237.4 901.5 237.4Q903.5 237.4 904.8 238.6Q906.0 239.9 906.0 242.1L906.0 242.1L906.0 257.7Q906.0 261.1 907.6 262.8Q909.3 264.6 912.3 264.6Q915.3 264.6 917.1 262.6Q918.9 260.6 918.9 257.2L918.9 257.2L918.9 242.1Q918.9 239.9 920.1 238.6Q921.4 237.4 923.4 237.4Q925.5 237.4 926.8 238.6Q928 239.9 928 242.1L928 242.1L928 267.6Q928 269.8 926.8 271.0Q925.6 272.2 923.6 272.2Q921.6 272.2 920.4 271.0Q919.2 269.8 919.2 267.6L919.2 267.6L919.2 265.5L919 265.5Q916.4 272.2 909.0 272.2ZM947.6 272.3L947.6 272.3Q942.0 272.3 938.2 270.4Q934.4 268.6 933.2 265.6L933.2 265.6Q932.8 264.6 932.8 263.9L932.8 263.9Q932.8 262.3 933.9 261.4Q934.9 260.4 936.5 260.4L936.5 260.4Q938.7 260.4 940.5 262.5L940.5 262.5Q941.9 264.2 943.6 265.1Q945.3 265.9 947.8 265.9L947.8 265.9Q950.3 265.9 951.8 264.9Q953.3 263.9 953.3 262.3L953.3 262.3Q953.3 260.9 952.3 260.1Q951.3 259.3 948.8 258.8L948.8 258.8L943.2 257.6Q938.3 256.5 935.8 254.1Q933.3 251.6 933.3 247.9L933.3 247.9Q933.3 243.1 937.2 240.2Q941.1 237.3 947.6 237.3L947.6 237.3Q952.6 237.3 956.2 239.3Q959.8 241.3 960.7 244.3L960.7 244.3Q960.9 245.1 960.9 245.6L960.9 245.6Q960.9 247.1 960.0 247.9Q959.1 248.7 957.4 248.7L957.4 248.7Q955.3 248.7 954.1 247.3L954.1 247.3Q952.7 245.6 951.2 244.7Q949.7 243.7 947.4 243.7L947.4 243.7Q945.1 243.7 943.6 244.7Q942.2 245.7 942.2 247.4L942.2 247.4Q942.2 248.7 943.3 249.6Q944.3 250.5 946.8 251.0L946.8 251.0L952.3 252.2Q957.7 253.3 960.0 255.4Q962.4 257.6 962.4 261.3L962.4 261.3Q962.4 266.3 958.3 269.3Q954.3 272.3 947.6 272.3ZM975.1 232.5Q973.7 233.9 971.6 233.9Q969.6 233.9 968.2 232.5Q966.8 231.1 966.8 229.2L966.8 229.2Q966.8 227.2 968.2 225.8Q969.6 224.5 971.6 224.5Q973.7 224.5 975.1 225.8Q976.5 227.2 976.5 229.2L976.5 229.2Q976.5 231.1 975.1 232.5ZM975.0 270.9Q973.8 272.2 971.6 272.2Q969.5 272.2 968.3 270.9Q967.1 269.7 967.1 267.5L967.1 267.5L967.1 242.1Q967.1 239.9 968.3 238.6Q969.5 237.4 971.6 237.4Q973.8 237.4 975.0 238.6Q976.2 239.9 976.2 242.1L976.2 242.1L976.2 267.5Q976.2 269.7 975.0 270.9ZM990.1 271.0Q988.9 272.2 986.8 272.2Q984.8 272.2 983.5 271.0Q982.3 269.7 982.3 267.5L982.3 267.5L982.3 242.0Q982.3 239.8 983.4 238.6Q984.6 237.4 986.7 237.4Q988.7 237.4 990.0 238.6Q991.2 239.9 991.2 242.0L991.2 242.0L991.2 243.9L991.4 243.9Q994.2 237.4 1001.7 237.4L1001.7 237.4Q1007.3 237.4 1010.3 240.7Q1013.3 244.1 1013.3 250.0L1013.3 250.0L1013.3 267.5Q1013.3 269.7 1012.1 271.0Q1010.8 272.2 1008.8 272.2Q1006.7 272.2 1005.5 271.0Q1004.2 269.7 1004.2 267.5L1004.2 267.5L1004.2 251.9Q1004.2 248.6 1002.7 246.8Q1001.1 245.0 998.1 245.0Q995.0 245.0 993.2 247.0Q991.4 249.1 991.4 252.3L991.4 252.3L991.4 267.5Q991.4 269.7 990.1 271.0ZM1034.1 284.1L1034.1 284.1Q1029.1 284.1 1025.4 282.4Q1021.7 280.7 1020 278.0L1020 278.0Q1019.3 276.8 1019.3 275.5L1019.3 275.5Q1019.3 274.0 1020.3 273.1Q1021.3 272.1 1023.0 272.1L1023.0 272.1Q1024.8 272.1 1026.2 273.4L1026.2 273.4Q1030 277.1 1034.1 277.1L1034.1 277.1Q1037.8 277.1 1039.9 275.2Q1042 273.4 1042 270.2L1042 270.2L1042 264.8L1041.8 264.8Q1040.6 267.6 1037.9 269.2Q1035.1 270.8 1031.5 270.8L1031.5 270.8Q1025.3 270.8 1021.6 266.4Q1017.9 261.9 1017.9 254.2L1017.9 254.2Q1017.9 246.4 1021.5 241.9Q1025.2 237.5 1031.7 237.5L1031.7 237.5Q1035.2 237.5 1037.9 239.2Q1040.5 240.9 1041.9 243.8L1041.9 243.8L1042.1 243.8L1042.1 242.0Q1042.1 239.7 1043.3 238.6Q1044.6 237.4 1046.7 237.4L1046.7 237.4Q1048.7 237.4 1049.9 238.6Q1051.2 239.7 1051.2 242.0L1051.2 242.0L1051.2 270.2Q1051.2 276.8 1046.7 280.5Q1042.2 284.2 1034.1 284.1ZM1034.6 264.1L1034.6 264.1Q1038.0 264.1 1040.1 261.5Q1042.1 258.9 1042.1 254.4Q1042.1 249.8 1040.1 247.1Q1038.0 244.5 1034.6 244.5L1034.6 244.5Q1031.2 244.5 1029.2 247.1Q1027.3 249.8 1027.3 254.3L1027.3 254.3Q1027.3 258.9 1029.2 261.5Q1031.2 264.1 1034.6 264.1Z M83.9 344.5Q82.7 345.8 80.5 345.8Q78.3 345.8 77 344.5Q75.8 343.2 75.8 340.9L75.8 340.9L75.8 305.0Q75.8 302.7 77 301.4Q78.3 300.1 80.5 300.1L80.5 300.1L94.2 300.1Q101.9 300.1 106.2 303.9Q110.5 307.7 110.5 314.4L110.5 314.4Q110.5 318.7 108.5 322.1Q106.5 325.4 102.8 327.0L102.8 327.0L109.3 338.2Q110.3 340.0 110.3 341.5L110.3 341.5Q110.3 343.4 108.9 344.6Q107.6 345.8 105.5 345.8L105.5 345.8Q103.8 345.8 102.9 345.1Q101.9 344.3 100.7 342.2L100.7 342.2L93.2 328.7L85.2 328.7L85.2 340.9Q85.2 343.2 83.9 344.5ZM85.2 307.4L85.2 321.8L93.3 321.8Q96.9 321.8 98.9 319.9Q100.8 318.0 100.8 314.6L100.8 314.6Q100.8 311.3 98.8 309.4Q96.7 307.4 93.2 307.4L93.2 307.4L85.2 307.4ZM131.3 345.9L131.3 345.9Q123.5 345.9 119.1 341.3Q114.7 336.7 114.7 328.6L114.7 328.6Q114.7 320.5 119.1 315.7Q123.5 310.9 130.9 310.9L130.9 310.9Q138 310.9 142.4 315.3Q146.8 319.7 146.8 326.5L146.8 326.5Q146.8 328.4 145.8 329.5Q144.7 330.5 142.8 330.5L142.8 330.5L123.7 330.5L123.7 330.9Q123.7 334.6 125.8 336.9Q127.8 339.1 131.3 339.1L131.3 339.1Q133.8 339.1 135.6 338.2Q137.5 337.3 139.3 335.1L139.3 335.1Q140.6 333.7 142.3 333.7L142.3 333.7Q143.8 333.7 144.8 334.7Q145.8 335.6 145.8 337.1L145.8 337.1Q145.8 338.2 145.2 339.3L145.2 339.3Q143.6 342.4 139.9 344.1Q136.2 345.9 131.3 345.9ZM123.8 324.9L123.8 324.9L138 324.9Q137.9 321.6 135.9 319.7Q134 317.7 131 317.7Q128 317.7 126.0 319.7Q124.0 321.7 123.8 324.9ZM159.6 344.6Q158.3 345.8 156.3 345.8Q154.2 345.8 152.9 344.6Q151.7 343.3 151.7 341.1L151.7 341.1L151.7 304.2Q151.7 301.9 152.9 300.6Q154.2 299.4 156.3 299.4Q158.3 299.4 159.6 300.6Q160.8 301.9 160.8 304.2L160.8 304.2L160.8 341.1Q160.8 343.3 159.6 344.6ZM176.9 345.7L176.9 345.7Q172.0 345.7 168.8 342.8Q165.7 340.0 165.7 335.5L165.7 335.5Q165.7 331.0 169.0 328.4Q172.4 325.8 178.7 325.4L178.7 325.4L187.2 324.9L187.2 322.7Q187.2 320.4 185.6 319.1Q184.1 317.7 181.5 317.7L181.5 317.7Q179.4 317.7 178 318.5Q176.6 319.3 175.0 321.3L175.0 321.3Q173.5 323.0 171.4 323.0L171.4 323.0Q169.8 323.0 168.7 322.0Q167.6 321.0 167.6 319.5L167.6 319.5Q167.6 318.4 168.1 317.4L168.1 317.4Q169.2 314.4 173.0 312.7Q176.7 310.9 181.9 310.9L181.9 310.9Q188.4 310.9 192.3 314.0Q196.1 317.1 196.1 322.1L196.1 322.1L196.1 341.2Q196.1 343.4 194.9 344.6Q193.7 345.8 191.7 345.8L191.7 345.8Q189.8 345.8 188.6 344.8Q187.4 343.7 187.3 341.7L187.3 341.7L187.3 340.0L187.1 340.0Q185.8 342.7 182.9 344.2Q180.1 345.7 176.9 345.7ZM179.9 339.1L179.9 339.1Q182.9 339.1 185.0 337.3Q187.2 335.6 187.2 332.9L187.2 332.9L187.2 330.4L180.1 330.9Q177.5 331.1 176.1 332.2Q174.8 333.2 174.8 335.0L174.8 335.0Q174.8 336.9 176.2 338.0Q177.6 339.1 179.9 339.1ZM204.4 336.6L204.4 336.6L204.4 318.5L202.7 318.5Q201.1 318.5 200.1 317.6Q199.2 316.7 199.2 315.1Q199.2 313.5 200.1 312.6Q201.1 311.7 202.7 311.7L202.7 311.7L204.4 311.7L204.4 307.9Q204.4 305.7 205.7 304.4Q206.9 303.2 209 303.2Q211.1 303.2 212.3 304.4Q213.6 305.7 213.6 307.9L213.6 307.9L213.6 311.7L216.8 311.7Q218.4 311.7 219.3 312.6Q220.3 313.5 220.3 315.1Q220.3 316.7 219.3 317.6Q218.4 318.5 216.8 318.5L216.8 318.5L213.6 318.5L213.6 334.6Q213.6 336.3 214.2 337.2Q214.9 338.0 216.3 338.1L216.3 338.1L216.9 338.2Q218.7 338.3 219.5 339.1Q220.4 339.9 220.4 341.5L220.4 341.5Q220.4 343.4 218.7 344.5Q216.9 345.5 213.9 345.5L213.9 345.5L213.6 345.5Q204.4 345.5 204.4 336.6ZM232.9 306.1Q231.5 307.5 229.5 307.5Q227.4 307.5 226 306.1Q224.6 304.7 224.6 302.8L224.6 302.8Q224.6 300.8 226 299.4Q227.4 298.1 229.5 298.1Q231.5 298.1 232.9 299.4Q234.3 300.8 234.3 302.8L234.3 302.8Q234.3 304.7 232.9 306.1ZM232.8 344.5Q231.6 345.8 229.5 345.8Q227.3 345.8 226.1 344.5Q224.9 343.3 224.9 341.1L224.9 341.1L224.9 315.7Q224.9 313.5 226.1 312.2Q227.3 311.0 229.5 311.0Q231.6 311.0 232.8 312.2Q234.0 313.5 234.0 315.7L234.0 315.7L234.0 341.1Q234.0 343.3 232.8 344.5ZM254.2 345.8L254.2 345.8Q251.6 345.8 250.0 344.7Q248.5 343.6 247.6 341.2L247.6 341.2L238.8 317.8Q238.3 316.3 238.3 315.1L238.3 315.1Q238.3 313.2 239.6 312.1Q240.9 311.0 242.9 311.0L242.9 311.0Q246.3 311.0 247.3 314.6L247.3 314.6L254.1 337.1L254.3 337.1L261.0 314.5Q262.0 311.0 265.3 311.0L265.3 311.0Q267.2 311.0 268.5 312.1Q269.8 313.3 269.8 315.0L269.8 315.0Q269.8 316.2 269.3 317.6L269.3 317.6L260.5 341.2Q259.7 343.6 258.1 344.7Q256.6 345.8 254.2 345.8ZM282.1 306.1Q280.7 307.5 278.6 307.5Q276.5 307.5 275.1 306.1Q273.7 304.7 273.7 302.8L273.7 302.8Q273.7 300.8 275.1 299.4Q276.5 298.1 278.6 298.1Q280.7 298.1 282.1 299.4Q283.5 300.8 283.5 302.8L283.5 302.8Q283.5 304.7 282.1 306.1ZM281.9 344.5Q280.7 345.8 278.6 345.8Q276.5 345.8 275.3 344.5Q274.0 343.3 274.0 341.1L274.0 341.1L274.0 315.7Q274.0 313.5 275.3 312.2Q276.5 311.0 278.6 311.0Q280.7 311.0 281.9 312.2Q283.2 313.5 283.2 315.7L283.2 315.7L283.2 341.1Q283.2 343.3 281.9 344.5ZM302.9 345.9L302.9 345.9Q297.3 345.9 293.5 344.0Q289.7 342.2 288.5 339.2L288.5 339.2Q288.1 338.2 288.1 337.5L288.1 337.5Q288.1 335.9 289.2 335.0Q290.2 334.0 291.8 334.0L291.8 334.0Q293.9 334.0 295.8 336.1L295.8 336.1Q297.2 337.8 298.8 338.7Q300.5 339.5 303.1 339.5L303.1 339.5Q305.6 339.5 307.1 338.5Q308.6 337.5 308.6 335.9L308.6 335.9Q308.6 334.5 307.6 333.7Q306.6 332.9 304.1 332.4L304.1 332.4L298.5 331.2Q293.6 330.1 291.1 327.7Q288.6 325.2 288.6 321.5L288.6 321.5Q288.6 316.7 292.5 313.8Q296.3 310.9 302.8 310.9L302.8 310.9Q307.9 310.9 311.5 312.9Q315.1 314.9 316.0 317.9L316.0 317.9Q316.2 318.7 316.2 319.2L316.2 319.2Q316.2 320.7 315.3 321.5Q314.4 322.3 312.7 322.3L312.7 322.3Q310.6 322.3 309.4 320.9L309.4 320.9Q308 319.2 306.5 318.3Q305.0 317.3 302.7 317.3L302.7 317.3Q300.4 317.3 298.9 318.3Q297.4 319.3 297.4 321.0L297.4 321.0Q297.4 322.3 298.5 323.2Q299.6 324.1 302.1 324.6L302.1 324.6L307.6 325.8Q313.0 326.9 315.3 329.0Q317.7 331.2 317.7 334.9L317.7 334.9Q317.7 339.9 313.6 342.9Q309.5 345.9 302.9 345.9ZM324.6 336.6L324.6 336.6L324.6 318.5L322.9 318.5Q321.3 318.5 320.3 317.6Q319.3 316.7 319.3 315.1Q319.3 313.5 320.3 312.6Q321.3 311.7 322.9 311.7L322.9 311.7L324.6 311.7L324.6 307.9Q324.6 305.7 325.8 304.4Q327.1 303.2 329.2 303.2Q331.3 303.2 332.5 304.4Q333.8 305.7 333.8 307.9L333.8 307.9L333.8 311.7L337.0 311.7Q338.6 311.7 339.5 312.6Q340.5 313.5 340.5 315.1Q340.5 316.7 339.5 317.6Q338.6 318.5 337.0 318.5L337.0 318.5L333.8 318.5L333.8 334.6Q333.8 336.3 334.4 337.2Q335.1 338.0 336.5 338.1L336.5 338.1L337.1 338.2Q338.9 338.3 339.7 339.1Q340.6 339.9 340.6 341.5L340.6 341.5Q340.6 343.4 338.8 344.5Q337.1 345.5 334.1 345.5L334.1 345.5L333.8 345.5Q324.6 345.5 324.6 336.6ZM353.1 306.1Q351.7 307.5 349.7 307.5Q347.6 307.5 346.2 306.1Q344.8 304.7 344.8 302.8L344.8 302.8Q344.8 300.8 346.2 299.4Q347.6 298.1 349.7 298.1Q351.7 298.1 353.1 299.4Q354.5 300.8 354.5 302.8L354.5 302.8Q354.5 304.7 353.1 306.1ZM353 344.5Q351.8 345.8 349.7 345.8Q347.5 345.8 346.3 344.5Q345.1 343.3 345.1 341.1L345.1 341.1L345.1 315.7Q345.1 313.5 346.3 312.2Q347.5 311.0 349.7 311.0Q351.8 311.0 353 312.2Q354.2 313.5 354.2 315.7L354.2 315.7L354.2 341.1Q354.2 343.3 353 344.5ZM375.6 345.9L375.6 345.9Q368.0 345.9 363.5 341.2Q359.1 336.5 359.1 328.4L359.1 328.4Q359.1 320.4 363.5 315.7Q367.9 310.9 375.5 310.9L375.5 310.9Q380.5 310.9 384.4 313.1Q388.3 315.3 389.6 318.9L389.6 318.9Q390.1 320.2 390.1 321.2L390.1 321.2Q390.1 322.8 389.0 323.8Q387.9 324.7 386.2 324.7L386.2 324.7Q384.9 324.7 384.0 324.2Q383.1 323.6 382.4 322.4L382.4 322.4Q380.0 318.1 375.8 318.1L375.8 318.1Q372.3 318.1 370.3 320.8Q368.3 323.5 368.3 328.4L368.3 328.4Q368.3 333.3 370.3 336.0Q372.3 338.7 375.7 338.7L375.7 338.7Q379.9 338.7 382.3 334.8L382.3 334.8Q383.2 333.3 384.1 332.7Q385.0 332.1 386.4 332.1L386.4 332.1Q388.1 332.1 389.2 333.1Q390.3 334.1 390.3 335.7L390.3 335.7Q390.3 336.8 389.7 338.1L389.7 338.1Q388.2 341.6 384.3 343.7Q380.3 345.9 375.6 345.9Z M416.8 344.4Q415.5 345.7 413.3 345.7Q411.1 345.7 409.8 344.4Q408.6 343.2 408.6 340.8L408.6 340.8L408.6 304.4Q408.6 302.0 409.8 300.7Q411.1 299.4 413.3 299.4Q415.5 299.4 416.8 300.7Q418.0 302.0 418.0 304.4L418.0 304.4L418.0 340.8Q418.0 343.2 416.8 344.4ZM429.3 345.8L429.3 345.8Q427.2 345.8 426.0 344.6Q424.8 343.3 424.8 341.1L424.8 341.1L424.8 315.6Q424.8 313.4 426.0 312.2Q427.2 311.0 429.2 311.0Q431.2 311.0 432.4 312.2Q433.6 313.4 433.6 315.6L433.6 315.6L433.6 317.7L433.8 317.7Q434.8 314.7 437.4 312.8Q439.9 311.0 443.3 311.0L443.3 311.0Q446.9 311.0 449.4 312.8Q451.8 314.6 452.7 317.9L452.7 317.9L452.8 317.9Q454.0 314.7 456.8 312.9Q459.6 311.0 463.3 311.0L463.3 311.0Q468.2 311.0 471.2 314.1Q474.2 317.2 474.2 322.3L474.2 322.3L474.2 341.1Q474.2 343.3 473.0 344.6Q471.7 345.8 469.6 345.8L469.6 345.8Q467.6 345.8 466.3 344.6Q465.1 343.3 465.1 341.1L465.1 341.1L465.1 324.6Q465.1 321.7 463.7 320.1Q462.3 318.6 459.6 318.6L459.6 318.6Q457.0 318.6 455.5 320.3Q453.9 322.0 453.9 324.8L453.9 324.8L453.9 341.1Q453.9 343.3 452.7 344.6Q451.5 345.8 449.5 345.8L449.5 345.8Q447.4 345.8 446.3 344.6Q445.1 343.3 445.1 341.1L445.1 341.1L445.1 324.3Q445.1 321.6 443.7 320.1Q442.2 318.6 439.7 318.6L439.7 318.6Q437.1 318.6 435.5 320.3Q433.9 322.1 433.9 324.9L433.9 324.9L433.9 341.1Q433.9 343.3 432.6 344.6Q431.4 345.8 429.3 345.8ZM489.9 345.7L489.9 345.7Q485.1 345.7 481.9 342.8Q478.7 340.0 478.7 335.5L478.7 335.5Q478.7 331.0 482.1 328.4Q485.4 325.8 491.8 325.4L491.8 325.4L500.2 324.9L500.2 322.7Q500.2 320.4 498.7 319.1Q497.2 317.7 494.6 317.7L494.6 317.7Q492.5 317.7 491.0 318.5Q489.6 319.3 488.1 321.3L488.1 321.3Q486.6 323.0 484.4 323.0L484.4 323.0Q482.8 323.0 481.7 322.0Q480.6 321.0 480.6 319.5L480.6 319.5Q480.6 318.4 481.1 317.4L481.1 317.4Q482.3 314.4 486 312.7Q489.8 310.9 495.0 310.9L495.0 310.9Q501.4 310.9 505.3 314.0Q509.2 317.1 509.2 322.1L509.2 322.1L509.2 341.2Q509.2 343.4 507.9 344.6Q506.7 345.8 504.7 345.8L504.7 345.8Q502.8 345.8 501.6 344.8Q500.5 343.7 500.3 341.7L500.3 341.7L500.3 340.0L500.2 340.0Q498.8 342.7 496.0 344.2Q493.1 345.7 489.9 345.7ZM492.9 339.1L492.9 339.1Q495.9 339.1 498.1 337.3Q500.2 335.6 500.2 332.9L500.2 332.9L500.2 330.4L493.1 330.9Q490.6 331.1 489.2 332.2Q487.8 333.2 487.8 335.0L487.8 335.0Q487.8 336.9 489.2 338.0Q490.6 339.1 492.9 339.1ZM530 357.7L530 357.7Q525.0 357.7 521.3 356.0Q517.6 354.3 515.9 351.6L515.9 351.6Q515.2 350.4 515.2 349.1L515.2 349.1Q515.2 347.6 516.2 346.7Q517.3 345.7 518.9 345.7L518.9 345.7Q520.7 345.7 522.1 347.0L522.1 347.0Q525.9 350.7 530.0 350.7L530.0 350.7Q533.7 350.7 535.8 348.8Q537.9 347.0 537.9 343.8L537.9 343.8L537.9 338.4L537.7 338.4Q536.5 341.2 533.8 342.8Q531 344.4 527.4 344.4L527.4 344.4Q521.2 344.4 517.5 340.0Q513.8 335.5 513.8 327.8L513.8 327.8Q513.8 320.0 517.5 315.5Q521.1 311.1 527.6 311.1L527.6 311.1Q531.1 311.1 533.8 312.8Q536.4 314.5 537.8 317.4L537.8 317.4L538.0 317.4L538.0 315.6Q538.0 313.3 539.2 312.2Q540.5 311.0 542.6 311.0L542.6 311.0Q544.6 311.0 545.8 312.2Q547.1 313.3 547.1 315.6L547.1 315.6L547.1 343.8Q547.1 350.4 542.6 354.1Q538.1 357.8 530 357.7ZM530.5 337.7L530.5 337.7Q533.9 337.7 536.0 335.1Q538 332.5 538 328.0Q538 323.4 536.0 320.7Q533.9 318.1 530.5 318.1L530.5 318.1Q527.1 318.1 525.1 320.7Q523.2 323.4 523.2 327.9L523.2 327.9Q523.2 332.5 525.1 335.1Q527.1 337.7 530.5 337.7ZM568.4 345.9L568.4 345.9Q560.6 345.9 556.2 341.3Q551.8 336.7 551.8 328.6L551.8 328.6Q551.8 320.5 556.2 315.7Q560.5 310.9 568.0 310.9L568.0 310.9Q575.1 310.9 579.5 315.3Q583.8 319.7 583.8 326.5L583.8 326.5Q583.8 328.4 582.8 329.5Q581.8 330.5 579.9 330.5L579.9 330.5L560.8 330.5L560.8 330.9Q560.8 334.6 562.8 336.9Q564.9 339.1 568.4 339.1L568.4 339.1Q570.9 339.1 572.7 338.2Q574.5 337.3 576.4 335.1L576.4 335.1Q577.7 333.7 579.3 333.7L579.3 333.7Q580.9 333.7 581.9 334.7Q582.9 335.6 582.9 337.1L582.9 337.1Q582.9 338.2 582.3 339.3L582.3 339.3Q580.6 342.4 576.9 344.1Q573.3 345.9 568.4 345.9ZM560.8 324.9L560.8 324.9L575.1 324.9Q574.9 321.6 573 319.7Q571.1 317.7 568.1 317.7Q565.1 317.7 563.1 319.7Q561.1 321.7 560.8 324.9Z M610.2 344.4Q608.9 345.7 606.7 345.7Q604.5 345.7 603.2 344.4Q602.0 343.2 602.0 340.8L602.0 340.8L602.0 305.0Q602.0 302.7 603.2 301.4Q604.5 300.1 606.7 300.1L606.7 300.1L620.3 300.1Q627.3 300.1 631.6 304.3Q635.9 308.6 635.9 315.5L635.9 315.5Q635.9 322.4 631.5 326.7Q627 330.9 619.8 330.9L619.8 330.9L611.4 330.9L611.4 340.8Q611.4 343.2 610.2 344.4ZM611.4 307.5L611.4 323.6L617.8 323.6Q621.8 323.6 624.1 321.5Q626.3 319.4 626.3 315.5Q626.3 311.7 624.1 309.6Q621.9 307.5 617.8 307.5L617.8 307.5L611.4 307.5ZM645.3 345.8L645.3 345.8Q643.2 345.8 642.0 344.6Q640.7 343.3 640.7 341.1L640.7 341.1L640.7 315.6Q640.7 313.4 641.9 312.2Q643.1 311.0 645.1 311.0L645.1 311.0Q647.1 311.0 648.3 312.2Q649.4 313.4 649.4 315.6L649.4 315.6L649.4 317.7L649.6 317.7Q650.3 314.7 652.2 312.9Q654.1 311.1 656.6 311.1L656.6 311.1Q658.4 311.1 659.4 312.0L659.4 312.0Q660.8 313.0 660.8 315.3L660.8 315.3Q660.8 317.5 659.4 318.6L659.4 318.6Q658.1 319.8 655.5 319.8L655.5 319.8Q652.5 319.8 651.2 321.4Q649.8 323.1 649.8 326.2L649.8 326.2L649.8 341.1Q649.8 343.3 648.6 344.6Q647.4 345.8 645.3 345.8ZM691.5 341.2Q687.0 345.9 679.4 345.9Q671.7 345.9 667.3 341.2Q662.8 336.6 662.8 328.4L662.8 328.4Q662.8 320.3 667.3 315.6Q671.8 310.9 679.4 310.9L679.4 310.9Q687.0 310.9 691.5 315.6Q696.0 320.3 696.0 328.4L696.0 328.4Q696.0 336.6 691.5 341.2ZM679.4 338.9L679.4 338.9Q682.8 338.9 684.7 336.2Q686.7 333.4 686.7 328.4L686.7 328.4Q686.7 323.5 684.7 320.7Q682.8 317.9 679.4 317.9Q676 317.9 674.0 320.7Q672.0 323.5 672.0 328.4L672.0 328.4Q672.0 333.4 674 336.2Q676.0 338.9 679.4 338.9ZM715.9 345.9L715.9 345.9Q708.3 345.9 703.9 341.2Q699.4 336.5 699.4 328.4L699.4 328.4Q699.4 320.4 703.9 315.7Q708.3 310.9 715.9 310.9L715.9 310.9Q720.9 310.9 724.8 313.1Q728.6 315.3 730 318.9L730 318.9Q730.5 320.2 730.5 321.2L730.5 321.2Q730.5 322.8 729.4 323.8Q728.3 324.7 726.6 324.7L726.6 324.7Q725.3 324.7 724.4 324.2Q723.5 323.6 722.8 322.4L722.8 322.4Q720.3 318.1 716.2 318.1L716.2 318.1Q712.7 318.1 710.7 320.8Q708.7 323.5 708.7 328.4L708.7 328.4Q708.7 333.3 710.7 336.0Q712.7 338.7 716.1 338.7L716.1 338.7Q720.3 338.7 722.7 334.8L722.7 334.8Q723.6 333.3 724.5 332.7Q725.4 332.1 726.8 332.1L726.8 332.1Q728.4 332.1 729.5 333.1Q730.7 334.1 730.7 335.7L730.7 335.7Q730.7 336.8 730.1 338.1L730.1 338.1Q728.6 341.6 724.6 343.7Q720.7 345.9 715.9 345.9ZM750.9 345.9L750.9 345.9Q743.1 345.9 738.7 341.3Q734.3 336.7 734.3 328.6L734.3 328.6Q734.3 320.5 738.7 315.7Q743.1 310.9 750.5 310.9L750.5 310.9Q757.6 310.9 762.0 315.3Q766.4 319.7 766.4 326.5L766.4 326.5Q766.4 328.4 765.3 329.5Q764.3 330.5 762.4 330.5L762.4 330.5L743.3 330.5L743.3 330.9Q743.3 334.6 745.4 336.9Q747.4 339.1 750.9 339.1L750.9 339.1Q753.4 339.1 755.2 338.2Q757.1 337.3 758.9 335.1L758.9 335.1Q760.2 333.7 761.9 333.7L761.9 333.7Q763.4 333.7 764.4 334.7Q765.4 335.6 765.4 337.1L765.4 337.1Q765.4 338.2 764.8 339.3L764.8 339.3Q763.2 342.4 759.5 344.1Q755.8 345.9 750.9 345.9ZM743.4 324.9L743.4 324.9L757.6 324.9Q757.5 321.6 755.5 319.7Q753.6 317.7 750.6 317.7Q747.6 317.7 745.6 319.7Q743.6 321.7 743.4 324.9ZM784.7 345.9L784.7 345.9Q779.1 345.9 775.3 344.0Q771.5 342.2 770.3 339.2L770.3 339.2Q770.0 338.2 770.0 337.5L770.0 337.5Q770.0 335.9 771.0 335.0Q772.1 334.0 773.7 334.0L773.7 334.0Q775.8 334.0 777.6 336.1L777.6 336.1Q779 337.8 780.7 338.7Q782.4 339.5 784.9 339.5L784.9 339.5Q787.4 339.5 788.9 338.5Q790.4 337.5 790.4 335.9L790.4 335.9Q790.4 334.5 789.4 333.7Q788.4 332.9 786.0 332.4L786.0 332.4L780.3 331.2Q775.4 330.1 773.0 327.7Q770.5 325.2 770.5 321.5L770.5 321.5Q770.5 316.7 774.3 313.8Q778.2 310.9 784.7 310.9L784.7 310.9Q789.8 310.9 793.4 312.9Q797.0 314.9 797.8 317.9L797.8 317.9Q798.0 318.7 798.0 319.2L798.0 319.2Q798.0 320.7 797.1 321.5Q796.3 322.3 794.5 322.3L794.5 322.3Q792.4 322.3 791.2 320.9L791.2 320.9Q789.8 319.2 788.3 318.3Q786.8 317.3 784.5 317.3L784.5 317.3Q782.2 317.3 780.8 318.3Q779.3 319.3 779.3 321.0L779.3 321.0Q779.3 322.3 780.4 323.2Q781.5 324.1 783.9 324.6L783.9 324.6L789.5 325.8Q794.8 326.9 797.2 329.0Q799.5 331.2 799.5 334.9L799.5 334.9Q799.5 339.9 795.5 342.9Q791.4 345.9 784.7 345.9ZM817.7 345.9L817.7 345.9Q812.1 345.9 808.3 344.0Q804.5 342.2 803.3 339.2L803.3 339.2Q802.9 338.2 802.9 337.5L802.9 337.5Q802.9 335.9 804.0 335.0Q805.0 334.0 806.6 334.0L806.6 334.0Q808.8 334.0 810.6 336.1L810.6 336.1Q812.0 337.8 813.7 338.7Q815.3 339.5 817.9 339.5L817.9 339.5Q820.4 339.5 821.9 338.5Q823.4 337.5 823.4 335.9L823.4 335.9Q823.4 334.5 822.4 333.7Q821.4 332.9 818.9 332.4L818.9 332.4L813.3 331.2Q808.4 330.1 805.9 327.7Q803.4 325.2 803.4 321.5L803.4 321.5Q803.4 316.7 807.3 313.8Q811.2 310.9 817.7 310.9L817.7 310.9Q822.7 310.9 826.3 312.9Q829.9 314.9 830.8 317.9L830.8 317.9Q831 318.7 831 319.2L831 319.2Q831 320.7 830.1 321.5Q829.2 322.3 827.5 322.3L827.5 322.3Q825.4 322.3 824.2 320.9L824.2 320.9Q822.8 319.2 821.3 318.3Q819.8 317.3 817.5 317.3L817.5 317.3Q815.2 317.3 813.7 318.3Q812.3 319.3 812.3 321.0L812.3 321.0Q812.3 322.3 813.3 323.2Q814.4 324.1 816.9 324.6L816.9 324.6L822.4 325.8Q827.8 326.9 830.1 329.0Q832.5 331.2 832.5 334.9L832.5 334.9Q832.5 339.9 828.4 342.9Q824.3 345.9 817.7 345.9ZM845.2 306.1Q843.8 307.5 841.7 307.5Q839.7 307.5 838.3 306.1Q836.8 304.7 836.8 302.8L836.8 302.8Q836.8 300.8 838.3 299.4Q839.7 298.1 841.7 298.1Q843.8 298.1 845.2 299.4Q846.6 300.8 846.6 302.8L846.6 302.8Q846.6 304.7 845.2 306.1ZM845.1 344.5Q843.8 345.8 841.7 345.8Q839.6 345.8 838.4 344.5Q837.2 343.3 837.2 341.1L837.2 341.1L837.2 315.7Q837.2 313.5 838.4 312.2Q839.6 311.0 841.7 311.0Q843.8 311.0 845.1 312.2Q846.3 313.5 846.3 315.7L846.3 315.7L846.3 341.1Q846.3 343.3 845.1 344.5ZM860.2 344.6Q859.0 345.8 856.9 345.8Q854.8 345.8 853.6 344.6Q852.3 343.3 852.3 341.1L852.3 341.1L852.3 315.6Q852.3 313.4 853.5 312.2Q854.7 311.0 856.8 311.0Q858.8 311.0 860.1 312.2Q861.3 313.5 861.3 315.6L861.3 315.6L861.3 317.5L861.5 317.5Q864.3 311.0 871.8 311.0L871.8 311.0Q877.4 311.0 880.4 314.3Q883.4 317.7 883.4 323.6L883.4 323.6L883.4 341.1Q883.4 343.3 882.2 344.6Q880.9 345.8 878.9 345.8Q876.8 345.8 875.6 344.6Q874.3 343.3 874.3 341.1L874.3 341.1L874.3 325.5Q874.3 322.2 872.8 320.4Q871.2 318.6 868.2 318.6Q865.1 318.6 863.3 320.6Q861.5 322.7 861.5 325.9L861.5 325.9L861.5 341.1Q861.5 343.3 860.2 344.6ZM904.2 357.7L904.2 357.7Q899.2 357.7 895.5 356.0Q891.8 354.3 890.1 351.6L890.1 351.6Q889.4 350.4 889.4 349.1L889.4 349.1Q889.4 347.6 890.4 346.7Q891.4 345.7 893.1 345.7L893.1 345.7Q894.8 345.7 896.3 347.0L896.3 347.0Q900.1 350.7 904.2 350.7L904.2 350.7Q907.9 350.7 910.0 348.8Q912.1 347.0 912.1 343.8L912.1 343.8L912.1 338.4L911.9 338.4Q910.7 341.2 908.0 342.8Q905.2 344.4 901.6 344.4L901.6 344.4Q895.3 344.4 891.7 340.0Q888 335.5 888 327.8L888 327.8Q888 320.0 891.6 315.5Q895.3 311.1 901.8 311.1L901.8 311.1Q905.3 311.1 908.0 312.8Q910.6 314.5 912.0 317.4L912.0 317.4L912.2 317.4L912.2 315.6Q912.2 313.3 913.4 312.2Q914.7 311.0 916.8 311.0L916.8 311.0Q918.8 311.0 920.0 312.2Q921.3 313.3 921.3 315.6L921.3 315.6L921.3 343.8Q921.3 350.4 916.8 354.1Q912.3 357.8 904.2 357.7ZM904.7 337.7L904.7 337.7Q908.1 337.7 910.2 335.1Q912.2 332.5 912.2 328.0Q912.2 323.4 910.2 320.7Q908.1 318.1 904.7 318.1L904.7 318.1Q901.3 318.1 899.3 320.7Q897.3 323.4 897.3 327.9L897.3 327.9Q897.3 332.5 899.3 335.1Q901.3 337.7 904.7 337.7Z " clip-path="url(#satori_cp-id-0)" mask="url(#satori_om-id-0)"/><defs><clipPath id="satori_bc-id-0-1" clip-path="url(#satori_cp-id-0)"><rect x="0" y="509" width="1200" height="121"/></clipPath></defs><mask id="satori_om-id-0-1"><rect x="0" y="510" width="1200" height="120" fill="#fff" mask="url(#satori_om-id-0)"/><path width="1200" height="121" fill="none" stroke="#000" stroke-width="2" d="M0,509 A0,0 0 0 1 0,509 h1200 A0,0 0 0 1 1200,509"/></mask><path width="1200" height="121" clip-path="url(#satori_bc-id-0-1)" fill="none" stroke="rgba(0,0,0,0.08)" stroke-width="2" d="M0,509 A0,0 0 0 1 0,509 h1200 A0,0 0 0 1 1200,509"/><mask id="satori_om-id-0-1-0"><rect x="48" y="538" width="228" height="64" fill="#fff" mask="url(#satori_om-id-0)"/></mask><mask id="satori_om-id-0-1-0-0"><rect x="48" y="538" width="72" height="64" fill="#fff" mask="url(#satori_om-id-0)"/></mask><clipPath id="satori_cp-id-0-1-0-0-0" clip-path="url(#satori_cp-id-0)"><rect x="48" y="538" width="72" height="64"/></clipPath><mask id="satori_om-id-0-1-0-0-0"><rect x="48" y="538" width="72" height="64" fill="#fff" mask="url(#satori_om-id-0)"/></mask><image x="48" y="538" width="72" height="64" href="data:image/svg+xml;utf8,%3Csvg  xmlns=%22http://www.w3.org/2000/svg%22 width=%2273.60461760461762%22 height=%2264%22 viewBox=%220 0 797 693%22%3E%3Cg transform=%22matrix(1,0,0,1,-345,-96.5)%22%3E%3Cpath d=%22M756.942,197.15L756.942,474C701.751,474 656.942,518.808 656.942,574C656.942,629.192 701.751,674 756.942,674L756.942,777L495.122,777C443.175,777 401,734.825 401,682.878L401,614L364.755,614C353.852,614 345,605.148 345,594.245L345,436.814C345,425.878 353.878,417 364.814,417L401,417L401,365.122C401,313.175 443.175,271 495.122,271L715.058,271L715.058,197.15C696.492,189.056 683.5,170.533 683.5,149C683.5,120.024 707.024,96.5 736,96.5C764.976,96.5 788.5,120.024 788.5,149C788.5,170.533 775.508,189.056 756.942,197.15ZM559,388C520.918,388 490,418.918 490,457C490,495.082 520.918,526 559,526C597.082,526 628,495.082 628,457C628,418.918 597.082,388 559,388Z%22 fill=%22%23ad47ff%22%3E%3C/path%3E%3Cg transform=%22matrix(-1,1.22465e-16,-1.22465e-16,-1,1486.06,1043)%22%3E%3Cpath d=%22M401,417L401,348.122C401,296.175 443.175,254 495.122,254L705.058,254L705.058,357C760.249,357 805.058,401.808 805.058,457C805.058,512.192 760.249,557 705.058,557L705.058,760L495.122,760C443.175,760 401,717.825 401,665.878L401,614L364.755,614C353.852,614 345,605.148 345,594.245L345,436.814C345,425.878 353.878,417 364.814,417L401,417ZM552,643C590.082,643 621,612.082 621,574C621,535.918 590.082,505 552,505C513.918,505 483,535.918 483,574C483,612.082 513.918,643 552,643Z%22 fill=%22%2300d5bd%22%3E%3C/path%3E%3C/g%3E%3C/g%3E%3C/svg%3E" preserveAspectRatio="none" clip-path="url(#satori_cp-id-0-1-0-0-0)" mask="url(#satori_om-id-0-1-0-0-0)"/><mask id="satori_om-id-0-1-0-0-0-0"><rect x="48" y="538" width="0" height="64" fill="#fff" mask="url(#satori_om-id-0)"/></mask><mask id="satori_om-id-0-1-0-0-0-0-0"><rect x="48" y="538" width="0" height="64" fill="#fff" mask="url(#satori_om-id-0)"/></mask><mask id="satori_om-id-0-1-0-0-0-0-1"><rect x="48" y="538" width="0" height="64" fill="#fff" mask="url(#satori_om-id-0)"/></mask><mask id="satori_om-id-0-1-0-0-0-0-1-0"><rect x="48" y="538" width="0" height="64" fill="#fff" mask="url(#satori_om-id-0)"/></mask><mask id="satori_om-id-0-1-0-1"><rect x="138" y="540" width="138" height="60" fill="#fff" mask="url(#satori_om-id-0)"/></mask><mask id="satori_om-id-0-1-0-1-0"><rect x="138" y="540" width="138" height="36" fill="#fff" mask="url(#satori_om-id-0)"/></mask><path fill="#0f172a" d="M150.7 571.2L150.7 571.2Q145.9 571.2 143.0 568.6Q140.1 566.1 140.1 561.8L140.1 561.8L140.1 547.9Q140.1 546.5 140.8 545.8Q141.5 545.1 142.8 545.1Q144.0 545.1 144.7 545.8Q145.4 546.5 145.4 547.9L145.4 547.9L145.4 561.3Q145.4 563.8 146.8 565.2Q148.2 566.7 150.7 566.7L150.7 566.7Q153.3 566.7 154.7 565.2Q156.1 563.8 156.1 561.3L156.1 561.3L156.1 547.9Q156.1 546.5 156.8 545.8Q157.5 545.1 158.7 545.1Q160.0 545.1 160.7 545.8Q161.4 546.5 161.4 547.9L161.4 547.9L161.4 561.8Q161.4 566.1 158.5 568.6Q155.6 571.2 150.7 571.2ZM170.2 570.4Q169.5 571.2 168.2 571.2Q167.0 571.2 166.3 570.4Q165.6 569.7 165.6 568.4L165.6 568.4L165.6 548.2Q165.6 546.9 166.3 546.2Q167.0 545.4 168.2 545.4L168.2 545.4L176.0 545.4Q180.3 545.4 182.7 547.6Q185.1 549.7 185.1 553.5L185.1 553.5Q185.1 555.9 184.0 557.8Q182.9 559.7 180.8 560.6L180.8 560.6L184.4 566.9Q185.0 567.9 185.0 568.7L185.0 568.7Q185.0 569.8 184.2 570.5Q183.5 571.2 182.3 571.2L182.3 571.2Q181.4 571.2 180.8 570.8Q180.3 570.3 179.6 569.2L179.6 569.2L175.4 561.5L170.9 561.5L170.9 568.4Q170.9 569.7 170.2 570.4ZM170.9 549.6L170.9 557.7L175.5 557.7Q177.5 557.7 178.6 556.6Q179.7 555.5 179.7 553.6L179.7 553.6Q179.7 551.8 178.5 550.7Q177.4 549.6 175.4 549.6L175.4 549.6L170.9 549.6ZM198.1 562.7L190.8 562.7Q189.7 562.7 189.1 562.1Q188.4 561.5 188.4 560.5Q188.4 559.4 189.1 558.8Q189.7 558.2 190.8 558.2L190.8 558.2L198.1 558.2Q199.2 558.2 199.9 558.8Q200.6 559.4 200.6 560.5Q200.6 561.5 199.9 562.1Q199.2 562.7 198.1 562.7L198.1 562.7ZM209.1 570.4Q208.4 571.2 207.2 571.2Q205.9 571.2 205.2 570.4Q204.5 569.7 204.5 568.4L204.5 568.4L204.5 548.2Q204.5 546.9 205.2 546.2Q205.9 545.4 207.2 545.4L207.2 545.4L214.9 545.4Q219.3 545.4 221.7 547.6Q224.1 549.7 224.1 553.5L224.1 553.5Q224.1 555.9 223.0 557.8Q221.8 559.7 219.7 560.6L219.7 560.6L223.4 566.9Q224.0 567.9 224.0 568.7L224.0 568.7Q224.0 569.8 223.2 570.5Q222.4 571.2 221.3 571.2L221.3 571.2Q220.3 571.2 219.8 570.8Q219.2 570.3 218.6 569.2L218.6 569.2L214.4 561.5L209.8 561.5L209.8 568.4Q209.8 569.7 209.1 570.4ZM209.8 549.6L209.8 557.7L214.4 557.7Q216.4 557.7 217.5 556.6Q218.6 555.5 218.6 553.6L218.6 553.6Q218.6 551.8 217.5 550.7Q216.3 549.6 214.4 549.6L214.4 549.6L209.8 549.6ZM229.3 571.1L229.3 571.1Q228.0 571.1 227.3 570.5Q226.6 569.8 226.6 568.6L226.6 568.6Q226.6 567.9 226.9 566.9L226.9 566.9L233.9 548.1Q234.4 546.5 235.4 545.8Q236.3 545.1 237.8 545.1L237.8 545.1Q239.4 545.1 240.4 545.8Q241.3 546.5 241.9 548.1L241.9 548.1L248.9 566.9Q249.2 567.9 249.2 568.6L249.2 568.6Q249.2 569.7 248.5 570.4Q247.7 571.1 246.5 571.1L246.5 571.1Q245.4 571.1 244.8 570.6Q244.1 570.0 243.8 568.8L243.8 568.8L242.4 564.8L233.3 564.8L232.0 568.7Q231.6 570.0 231.0 570.6Q230.3 571.1 229.3 571.1ZM237.7 550.3L234.5 560.7L241.2 560.7L237.9 550.3L237.7 550.3ZM262.1 570.8L255.1 570.8Q253.8 570.8 253.1 570.1Q252.4 569.3 252.4 568.0L252.4 568.0L252.4 548.2Q252.4 546.9 253.1 546.2Q253.8 545.4 255.1 545.4L255.1 545.4L262.1 545.4Q267.8 545.4 271.0 548.7Q274.2 552.0 274.2 558.0L274.2 558.0Q274.2 564.0 271.0 567.4Q267.8 570.8 262.1 570.8L262.1 570.8ZM257.7 549.8L257.7 566.4L261.5 566.4Q265.0 566.4 266.9 564.3Q268.8 562.1 268.8 558.0L268.8 558.0Q268.8 554.1 266.9 551.9Q265.0 549.8 261.5 549.8L261.5 549.8L257.7 549.8Z " clip-path="url(#satori_cp-id-0)" mask="url(#satori_om-id-0)"/><mask id="satori_om-id-0-1-0-1-1"><rect x="138" y="576" width="138" height="24" fill="#fff" mask="url(#satori_om-id-0)"/></mask><path fill="#334155" d="M145.0 595.3L145.0 595.3Q142.4 595.3 140.8 593.8Q139.2 592.4 139.2 590.1L139.2 590.1L139.2 582.1Q139.2 581.5 139.6 581.1Q139.9 580.8 140.5 580.8L140.5 580.8Q141.1 580.8 141.4 581.1Q141.8 581.5 141.8 582.1L141.8 582.1L141.8 589.8Q141.8 591.3 142.6 592.2Q143.5 593.1 145.0 593.1Q146.6 593.1 147.4 592.2Q148.3 591.3 148.3 589.8L148.3 589.8L148.3 582.1Q148.3 581.5 148.6 581.1Q149.0 580.8 149.6 580.8L149.6 580.8Q150.2 580.8 150.5 581.1Q150.8 581.5 150.8 582.1L150.8 582.1L150.8 590.1Q150.8 592.4 149.3 593.8Q147.7 595.3 145.0 595.3ZM155.5 594.9Q155.2 595.2 154.6 595.2Q154.0 595.2 153.6 594.9Q153.3 594.5 153.3 593.9L153.3 593.9L153.3 582.3Q153.3 581.6 153.6 581.3Q154.0 581.0 154.6 581.0L154.6 581.0L158.9 581.0Q161.2 581.0 162.5 582.1Q163.8 583.3 163.8 585.3L163.8 585.3Q163.8 586.7 163.1 587.8Q162.4 588.8 161.2 589.3L161.2 589.3L163.4 593.2Q163.7 593.7 163.7 594.1L163.7 594.1Q163.7 594.6 163.4 594.9Q163.0 595.2 162.4 595.2L162.4 595.2Q162.0 595.2 161.7 595.0Q161.5 594.8 161.2 594.3L161.2 594.3L158.7 589.7L155.8 589.7L155.8 593.9Q155.8 594.5 155.5 594.9ZM155.8 583.0L155.8 587.8L158.7 587.8Q159.9 587.8 160.5 587.2Q161.2 586.5 161.2 585.4L161.2 585.4Q161.2 584.3 160.5 583.6Q159.8 583.0 158.6 583.0L158.6 583.0L155.8 583.0ZM171.1 590.4L166.7 590.4Q166.2 590.4 165.9 590.1Q165.6 589.8 165.6 589.3Q165.6 588.8 165.9 588.5Q166.2 588.2 166.7 588.2L166.7 588.2L171.1 588.2Q171.7 588.2 172.0 588.5Q172.3 588.8 172.3 589.3Q172.3 589.8 172.0 590.1Q171.7 590.4 171.1 590.4L171.1 590.4ZM176.7 594.9Q176.4 595.2 175.8 595.2Q175.2 595.2 174.9 594.9Q174.6 594.5 174.6 593.9L174.6 593.9L174.6 582.3Q174.6 581.6 174.9 581.3Q175.2 581.0 175.8 581.0L175.8 581.0L180.1 581.0Q182.4 581.0 183.7 582.1Q185.0 583.3 185.0 585.3L185.0 585.3Q185.0 586.7 184.3 587.8Q183.7 588.8 182.5 589.3L182.5 589.3L184.7 593.2Q185.0 593.7 185.0 594.1L185.0 594.1Q185.0 594.6 184.6 594.9Q184.2 595.2 183.7 595.2L183.7 595.2Q183.2 595.2 183.0 595.0Q182.7 594.8 182.4 594.3L182.4 594.3L179.9 589.7L177.1 589.7L177.1 593.9Q177.1 594.5 176.7 594.9ZM177.1 583.0L177.1 587.8L179.9 587.8Q181.1 587.8 181.8 587.2Q182.4 586.5 182.4 585.4L182.4 585.4Q182.4 584.3 181.8 583.6Q181.1 583.0 179.9 583.0L179.9 583.0L177.1 583.0ZM187.7 595.2L187.7 595.2Q187.1 595.2 186.7 594.9Q186.4 594.6 186.4 594.0L186.4 594.0Q186.4 593.7 186.6 593.3L186.6 593.3L190.7 582.2Q190.9 581.4 191.4 581.1Q191.8 580.8 192.5 580.8L192.5 580.8Q193.2 580.8 193.6 581.1Q194.1 581.4 194.3 582.1L194.3 582.1L198.4 593.3Q198.6 593.7 198.6 594.0L198.6 594.0Q198.6 594.6 198.2 594.9Q197.9 595.2 197.3 595.2L197.3 595.2Q196.8 595.2 196.5 595.0Q196.2 594.7 196.0 594.1L196.0 594.1L195.1 591.4L189.9 591.4L188.9 594.1Q188.8 594.7 188.5 595.0Q188.2 595.2 187.7 595.2ZM192.4 583.4L190.5 589.5L194.5 589.5L192.5 583.4L192.4 583.4ZM205.6 595.0L201.7 595.0Q201.1 595.0 200.8 594.7Q200.4 594.3 200.4 593.7L200.4 593.7L200.4 582.3Q200.4 581.6 200.8 581.3Q201.1 581.0 201.7 581.0L201.7 581.0L205.6 581.0Q208.7 581.0 210.5 582.8Q212.3 584.6 212.3 588.0L212.3 588.0Q212.3 591.3 210.5 593.2Q208.7 595.0 205.6 595.0L205.6 595.0ZM202.9 583.1L202.9 592.9L205.3 592.9Q207.4 592.9 208.6 591.6Q209.7 590.4 209.7 588.0L209.7 588.0Q209.7 585.6 208.6 584.3Q207.4 583.1 205.3 583.1L205.3 583.1L202.9 583.1Z M227.0 595.0L219.2 595.0Q218.7 595.0 218.3 594.8Q218.0 594.5 218.0 594.0L218.0 594.0Q218.0 593.6 218.2 593.3Q218.3 593.1 218.7 592.7L218.7 592.7L223.0 588.4Q224.4 587.1 224.8 586.4Q225.3 585.7 225.3 584.9L225.3 584.9Q225.3 583.9 224.6 583.3Q224.0 582.7 223.0 582.7L223.0 582.7Q221.1 582.7 220.3 584.6L220.3 584.6Q220.1 585.0 219.9 585.2Q219.6 585.4 219.2 585.4L219.2 585.4Q218.7 585.4 218.4 585.1Q218.1 584.8 218.1 584.3L218.1 584.3Q218.1 584.1 218.2 583.8L218.2 583.8Q218.3 583.2 218.7 582.7Q219.1 582.1 219.7 581.7Q220.3 581.2 221.1 580.9Q222.0 580.7 223.0 580.7L223.0 580.7Q225.1 580.7 226.4 581.8Q227.8 582.9 227.8 584.7L227.8 584.7Q227.8 585.9 227.1 586.9Q226.4 588.0 224.6 589.8L224.6 589.8L221.4 592.9L221.4 593.0L227.0 593.0Q227.5 593.0 227.8 593.3Q228.1 593.5 228.1 594.0Q228.1 594.5 227.8 594.8Q227.5 595.0 227.0 595.0L227.0 595.0ZM235.2 595.3L235.2 595.3Q232.6 595.3 231.1 593.4Q229.7 591.4 229.7 588.0L229.7 588.0Q229.7 584.6 231.1 582.6Q232.6 580.7 235.2 580.7L235.2 580.7Q237.8 580.7 239.3 582.6Q240.7 584.6 240.7 588.0L240.7 588.0Q240.7 591.4 239.3 593.3Q237.8 595.3 235.2 595.3ZM235.2 593.3L235.2 593.3Q236.6 593.3 237.4 591.9Q238.2 590.5 238.2 588.0L238.2 588.0Q238.2 585.5 237.4 584.1Q236.6 582.7 235.2 582.7Q233.8 582.7 233.0 584.1Q232.2 585.5 232.2 588.0L232.2 588.0Q232.2 590.5 233.0 591.9Q233.8 593.3 235.2 593.3ZM251.6 595.0L243.8 595.0Q243.2 595.0 242.9 594.8Q242.6 594.5 242.6 594.0L242.6 594.0Q242.6 593.6 242.7 593.3Q242.9 593.1 243.3 592.7L243.3 592.7L247.6 588.4Q248.9 587.1 249.4 586.4Q249.8 585.7 249.8 584.9L249.8 584.9Q249.8 583.9 249.2 583.3Q248.5 582.7 247.5 582.7L247.5 582.7Q245.6 582.7 244.9 584.6L244.9 584.6Q244.7 585.0 244.4 585.2Q244.2 585.4 243.7 585.4L243.7 585.4Q243.2 585.4 242.9 585.1Q242.6 584.8 242.6 584.3L242.6 584.3Q242.6 584.1 242.7 583.8L242.7 583.8Q242.9 583.2 243.2 582.7Q243.6 582.1 244.2 581.7Q244.8 581.2 245.7 580.9Q246.5 580.7 247.5 580.7L247.5 580.7Q249.6 580.7 251.0 581.8Q252.3 582.9 252.3 584.7L252.3 584.7Q252.3 585.9 251.6 586.9Q251.0 588.0 249.2 589.8L249.2 589.8L245.9 592.9L245.9 593.0L251.6 593.0Q252.1 593.0 252.4 593.3Q252.6 593.5 252.6 594.0Q252.6 594.5 252.4 594.8Q252.1 595.0 251.6 595.0L251.6 595.0ZM259.6 595.3L259.6 595.3Q258.0 595.3 256.7 594.6Q255.4 593.9 254.9 592.8L254.9 592.8Q254.6 592.3 254.6 591.8L254.6 591.8Q254.6 591.3 254.9 591.0Q255.2 590.7 255.7 590.7L255.7 590.7Q256.1 590.7 256.4 590.9Q256.6 591.1 256.8 591.5L256.8 591.5Q257.2 592.3 257.9 592.8Q258.6 593.3 259.6 593.3L259.6 593.3Q260.9 593.3 261.7 592.5Q262.5 591.7 262.5 590.4L262.5 590.4Q262.5 589.2 261.7 588.4Q260.9 587.7 259.6 587.7L259.6 587.7Q258.3 587.7 257.4 588.5L257.4 588.5Q257.0 589.0 256.7 589.1Q256.4 589.3 256.0 589.3L256.0 589.3Q255.4 589.3 255.1 588.9Q254.8 588.5 254.8 588.0L254.8 588.0Q254.8 587.9 254.8 587.8L254.8 587.8L255.3 582.5Q255.4 581.7 255.8 581.3Q256.2 581.0 257.0 581.0L257.0 581.0L263.1 581.0Q263.6 581.0 263.9 581.2Q264.2 581.5 264.2 582.0L264.2 582.0Q264.2 582.4 263.9 582.7Q263.6 583.0 263.1 583.0L263.1 583.0L257.4 583.0L257.1 587.2L257.1 587.2Q257.6 586.5 258.4 586.1Q259.2 585.8 260.3 585.8L260.3 585.8Q262.3 585.8 263.6 587.0Q264.9 588.3 264.9 590.4L264.9 590.4Q264.9 592.6 263.4 593.9Q261.9 595.3 259.6 595.3Z " clip-path="url(#satori_cp-id-0)" mask="url(#satori_om-id-0)"/><mask id="satori_om-id-0-1-1"><rect x="834" y="557" width="318" height="26" fill="#fff" mask="url(#satori_om-id-0)"/></mask><path fill="#334155" d="M837.4 577.8Q837.1 578.2 836.5 578.2Q835.9 578.2 835.5 577.8Q835.2 577.5 835.2 576.8L835.2 576.8L835.2 563.6Q835.2 563.0 835.5 562.6Q835.9 562.2 836.5 562.2Q837.1 562.2 837.5 562.6Q837.8 563.0 837.8 563.6L837.8 563.6L837.8 568.5L837.9 568.5Q838.4 567.5 839.3 566.9Q840.3 566.4 841.5 566.4L841.5 566.4Q843.6 566.4 844.9 568.0Q846.2 569.5 846.2 572.3L846.2 572.3Q846.2 575.0 844.9 576.6Q843.6 578.1 841.5 578.1L841.5 578.1Q840.2 578.1 839.3 577.6Q838.4 577.0 837.8 576.0L837.8 576.0L837.8 576.0L837.8 576.8Q837.8 577.5 837.4 577.8ZM840.6 575.9L840.6 575.9Q841.9 575.9 842.7 574.9Q843.4 574.0 843.4 572.3Q843.4 570.6 842.7 569.6Q841.9 568.6 840.6 568.6L840.6 568.6Q839.4 568.6 838.6 569.6Q837.8 570.6 837.8 572.3L837.8 572.3Q837.8 573.9 838.6 574.9Q839.4 575.9 840.6 575.9ZM849.5 582.2L849.5 582.2Q848.6 582.2 848.1 581.9Q847.7 581.5 847.7 580.9L847.7 580.9Q847.7 580.5 847.9 580.3Q848.2 580.0 848.7 580.0L848.7 580.0Q848.8 580.0 849.0 580.0Q849.1 580.0 849.3 580.0L849.3 580.0Q850.3 580.0 850.9 578.7L850.9 578.7L851.1 578.2L847.3 568.3Q847.2 567.9 847.2 567.6L847.2 567.6Q847.2 567.0 847.6 566.7Q848.0 566.3 848.6 566.3L848.6 566.3Q849.1 566.3 849.4 566.6Q849.7 566.8 849.8 567.4L849.8 567.4L852.6 575.7L852.6 575.7L855.3 567.4Q855.5 566.8 855.8 566.6Q856.1 566.3 856.6 566.3L856.6 566.3Q857.2 566.3 857.5 566.7Q857.9 567.0 857.9 567.5L857.9 567.5Q857.9 567.9 857.8 568.3L857.8 568.3L854.0 578.4Q853.2 580.5 852.2 581.3Q851.2 582.2 849.5 582.2Z M866.2 577.8Q865.9 578.1 865.3 578.1Q864.7 578.1 864.4 577.8Q864.0 577.4 864.0 576.8L864.0 576.8L864.0 564.0Q864.0 563.2 864.5 562.7Q865.0 562.3 865.8 562.3L865.8 562.3Q866.5 562.3 867.0 562.6Q867.4 562.9 867.7 563.7L867.7 563.7L872.0 574.1L872.1 574.1L876.3 563.7Q876.7 562.9 877.1 562.6Q877.6 562.3 878.3 562.3L878.3 562.3Q879.1 562.3 879.6 562.7Q880.0 563.2 880.0 564.0L880.0 564.0L880.0 576.8Q880.0 577.4 879.7 577.8Q879.4 578.1 878.8 578.1Q878.2 578.1 877.9 577.8Q877.5 577.4 877.5 576.8L877.5 576.8L877.5 566.9L877.5 566.9L873.4 576.9Q873.0 577.9 872.0 577.9L872.0 577.9Q871.1 577.9 870.7 576.9L870.7 576.9L866.6 566.9L866.5 566.9L866.5 576.8Q866.5 577.4 866.2 577.8ZM885.4 564.9L885.4 564.9Q884.9 564.9 884.5 564.5Q884.1 564.1 884.1 563.6Q884.1 563.0 884.5 562.7Q884.9 562.3 885.4 562.3L885.4 562.3Q886.0 562.3 886.4 562.7Q886.8 563.0 886.8 563.6Q886.8 564.1 886.4 564.5Q886.0 564.9 885.4 564.9ZM889.7 564.9L889.7 564.9Q889.1 564.9 888.7 564.5Q888.3 564.1 888.3 563.6Q888.3 563.0 888.7 562.7Q889.1 562.3 889.7 562.3L889.7 562.3Q890.2 562.3 890.6 562.7Q891.0 563.0 891.0 563.6Q891.0 564.1 890.6 564.5Q890.2 564.9 889.7 564.9ZM886.5 578.2L886.5 578.2Q884.6 578.2 883.5 577.0Q882.5 575.9 882.5 573.9L882.5 573.9L882.5 567.7Q882.5 567.1 882.8 566.7Q883.2 566.3 883.8 566.3Q884.4 566.3 884.8 566.7Q885.1 567.1 885.1 567.8L885.1 567.8L885.1 573.4Q885.1 574.6 885.7 575.3Q886.3 575.9 887.4 575.9L887.4 575.9Q888.6 575.9 889.3 575.1Q889.9 574.4 889.9 573.1L889.9 573.1L889.9 567.7Q889.9 567.1 890.3 566.7Q890.7 566.3 891.3 566.3L891.3 566.3Q891.9 566.3 892.2 566.7Q892.6 567.1 892.6 567.8L892.6 567.8L892.6 576.8Q892.6 577.4 892.3 577.8Q891.9 578.2 891.3 578.2L891.3 578.2Q890.7 578.2 890.4 577.8Q890.0 577.4 890.0 576.8L890.0 576.8L890.0 576.0L890.0 576.0Q889.0 578.2 886.5 578.2ZM897.2 577.8Q896.8 578.2 896.2 578.2Q895.6 578.2 895.2 577.8Q894.9 577.4 894.9 576.8L894.9 576.8L894.9 563.6Q894.9 563.0 895.2 562.6Q895.6 562.2 896.2 562.2Q896.8 562.2 897.2 562.6Q897.5 563.0 897.5 563.6L897.5 563.6L897.5 576.8Q897.5 577.4 897.2 577.8ZM902.2 577.8Q901.8 578.2 901.2 578.2Q900.6 578.2 900.3 577.8Q899.9 577.4 899.9 576.8L899.9 576.8L899.9 563.6Q899.9 563.0 900.3 562.6Q900.6 562.2 901.2 562.2Q901.8 562.2 902.2 562.6Q902.6 563.0 902.6 563.6L902.6 563.6L902.6 576.8Q902.6 577.4 902.2 577.8ZM909.9 578.2L909.9 578.2Q907.3 578.2 905.8 576.6Q904.4 575.1 904.4 572.3L904.4 572.3Q904.4 569.6 905.8 567.9Q907.3 566.3 909.8 566.3L909.8 566.3Q912.1 566.3 913.5 567.8Q915.0 569.3 915.0 571.6L915.0 571.6Q915.0 572.2 914.7 572.6Q914.3 572.9 913.8 572.9L913.8 572.9L907.0 572.9L907.0 573.0Q907.0 574.4 907.8 575.3Q908.6 576.1 909.9 576.1L909.9 576.1Q910.8 576.1 911.4 575.8Q912.1 575.4 912.7 574.6L912.7 574.6Q913.1 574.2 913.6 574.2L913.6 574.2Q914.1 574.2 914.4 574.4Q914.7 574.7 914.7 575.2L914.7 575.2Q914.7 575.5 914.5 575.9L914.5 575.9Q914.0 577.0 912.7 577.6Q911.5 578.2 909.9 578.2ZM907.1 571.1L907.1 571.1L912.4 571.1Q912.3 569.9 911.6 569.1Q910.9 568.4 909.8 568.4Q908.6 568.4 907.9 569.2Q907.1 569.9 907.1 571.1ZM919.0 577.8Q918.7 578.2 918.0 578.2Q917.4 578.2 917.1 577.8Q916.7 577.4 916.7 576.8L916.7 576.8L916.7 567.7Q916.7 567.1 917.1 566.7Q917.4 566.3 918.0 566.3L918.0 566.3Q918.6 566.3 918.9 566.7Q919.3 567.1 919.3 567.7L919.3 567.7L919.3 568.6L919.3 568.6Q919.6 567.6 920.2 567.0Q920.9 566.4 921.8 566.4L921.8 566.4Q922.4 566.4 922.7 566.7L922.7 566.7Q923.1 567.0 923.1 567.6L923.1 567.6Q923.1 568.2 922.7 568.6L922.7 568.6Q922.3 568.9 921.5 568.9L921.5 568.9Q919.4 568.9 919.4 571.3L919.4 571.3L919.4 576.8Q919.4 577.4 919.0 577.8ZM926.2 575.2L926.2 575.2Q926.7 575.2 927.0 575.5Q927.4 575.8 927.4 576.3L927.4 576.3Q927.4 576.6 927.3 576.9L927.3 576.9L926.4 580.6Q926.2 581.1 926.0 581.3Q925.7 581.5 925.3 581.5Q924.8 581.5 924.5 581.2Q924.2 581.0 924.3 580.5L924.3 580.5Q924.3 580.4 924.3 580.3L924.3 580.3L924.9 576.3Q925.1 575.2 926.2 575.2Z M940.3 578.2L940.3 578.2Q938.1 578.2 936.6 577.4Q935.0 576.5 934.6 575.2L934.6 575.2Q934.4 574.8 934.4 574.4L934.4 574.4Q934.4 573.8 934.8 573.4Q935.1 573.1 935.6 573.1L935.6 573.1Q936.1 573.1 936.4 573.3Q936.7 573.5 936.9 574.0L936.9 574.0Q937.3 574.9 938.2 575.4Q939.1 575.9 940.4 575.9L940.4 575.9Q941.8 575.9 942.7 575.3Q943.6 574.7 943.6 573.7L943.6 573.7Q943.6 572.8 942.9 572.3Q942.3 571.8 940.8 571.5L940.8 571.5L939.1 571.1Q934.6 570.2 934.6 566.8L934.6 566.8Q934.6 564.7 936.2 563.5Q937.8 562.2 940.3 562.2L940.3 562.2Q942.4 562.2 943.9 563.1Q945.4 563.9 945.8 565.5L945.8 565.5Q945.9 565.7 945.9 566.1L945.9 566.1Q945.9 566.6 945.6 566.9Q945.3 567.2 944.7 567.2L944.7 567.2Q943.8 567.2 943.4 566.4L943.4 566.4Q942.6 564.5 940.3 564.5L940.3 564.5Q939.0 564.5 938.2 565.1Q937.4 565.6 937.4 566.6L937.4 566.6Q937.4 567.4 938.0 567.9Q938.7 568.4 940.1 568.7L940.1 568.7L941.7 569.1Q944.2 569.6 945.3 570.6Q946.4 571.6 946.4 573.4L946.4 573.4Q946.4 575.6 944.8 576.9Q943.1 578.2 940.3 578.2ZM950.1 578.1L950.1 578.1Q949.4 578.1 949.0 577.6Q948.5 577.2 948.5 576.5L948.5 576.5Q948.5 575.9 949.0 575.4Q949.4 575.0 950.1 575.0L950.1 575.0Q950.7 575.0 951.1 575.4Q951.6 575.9 951.6 576.5L951.6 576.5Q951.6 577.2 951.1 577.6Q950.7 578.1 950.1 578.1Z M961.9 578.1L961.9 578.1Q960.2 578.1 959.1 577.2Q958.1 576.2 958.1 574.7L958.1 574.7Q958.1 573.2 959.2 572.3Q960.3 571.4 962.4 571.3L962.4 571.3L965.4 571.1L965.4 570.3Q965.4 569.4 964.8 568.9Q964.3 568.4 963.3 568.4L963.3 568.4Q962.5 568.4 961.9 568.7Q961.4 569.0 960.9 569.8L960.9 569.8Q960.5 570.3 959.8 570.3L959.8 570.3Q959.3 570.3 959.0 570.0Q958.7 569.7 958.7 569.2L958.7 569.2Q958.7 568.9 958.9 568.5L958.9 568.5Q959.3 567.5 960.5 566.9Q961.7 566.3 963.4 566.3L963.4 566.3Q965.5 566.3 966.8 567.4Q968.0 568.4 968.0 570.1L968.0 570.1L968.0 576.8Q968.0 577.5 967.7 577.8Q967.3 578.2 966.7 578.2L966.7 578.2Q966.2 578.2 965.8 577.8Q965.5 577.5 965.5 576.9L965.5 576.9L965.5 576.1L965.4 576.1Q964.9 577.0 963.9 577.6Q963.0 578.1 961.9 578.1ZM962.7 576.1L962.7 576.1Q963.8 576.1 964.6 575.4Q965.4 574.7 965.4 573.7L965.4 573.7L965.4 572.9L962.8 573.0Q961.8 573.1 961.3 573.5Q960.7 573.9 960.7 574.6L960.7 574.6Q960.7 575.3 961.3 575.7Q961.8 576.1 962.7 576.1ZM972.5 577.8Q972.1 578.2 971.5 578.2Q970.9 578.2 970.6 577.8Q970.2 577.4 970.2 576.8L970.2 576.8L970.2 567.7Q970.2 567.1 970.5 566.7Q970.9 566.3 971.5 566.3Q972.1 566.3 972.4 566.7Q972.8 567.1 972.8 567.7L972.8 567.7L972.8 568.5L972.8 568.5Q973.8 566.3 976.4 566.3L976.4 566.3Q978.3 566.3 979.3 567.5Q980.3 568.6 980.3 570.6L980.3 570.6L980.3 576.8Q980.3 577.4 980.0 577.8Q979.6 578.2 979.0 578.2Q978.4 578.2 978.0 577.8Q977.7 577.4 977.7 576.8L977.7 576.8L977.7 571.1Q977.7 569.9 977.1 569.3Q976.5 568.6 975.4 568.6L975.4 568.6Q974.2 568.6 973.5 569.4Q972.9 570.1 972.9 571.4L972.9 571.4L972.9 576.8Q972.9 577.4 972.5 577.8ZM986.7 578.1L986.7 578.1Q984.6 578.1 983.3 576.5Q982.0 575.0 982.0 572.2L982.0 572.2Q982.0 569.5 983.3 568.0Q984.6 566.4 986.7 566.4L986.7 566.4Q987.9 566.4 988.9 566.9Q989.8 567.5 990.2 568.5L990.2 568.5L990.3 568.5L990.3 563.6Q990.3 563.0 990.7 562.6Q991.0 562.2 991.6 562.2Q992.2 562.2 992.6 562.6Q993.0 563.0 993.0 563.6L993.0 563.6L993.0 576.8Q993.0 577.5 992.6 577.8Q992.3 578.2 991.7 578.2L991.7 578.2Q991.1 578.2 990.7 577.8Q990.3 577.5 990.3 576.8L990.3 576.8L990.3 575.9L990.3 575.9Q989.8 576.9 988.9 577.5Q988.0 578.1 986.7 578.1ZM987.5 575.9L987.5 575.9Q988.8 575.9 989.6 574.9Q990.3 573.9 990.3 572.3L990.3 572.3Q990.3 570.6 989.6 569.6Q988.8 568.6 987.5 568.6L987.5 568.6Q986.2 568.6 985.5 569.6Q984.7 570.6 984.7 572.3L984.7 572.3Q984.7 574.0 985.5 575.0Q986.2 575.9 987.5 575.9Z M1001.3 578.1L1001.3 578.1Q1000.6 578.1 1000.3 577.7Q999.9 577.4 999.9 576.7L999.9 576.7L999.9 563.7Q999.9 563.0 1000.3 562.6Q1000.6 562.3 1001.3 562.3L1001.3 562.3Q1001.9 562.3 1002.3 562.6Q1002.7 563.0 1002.7 563.7L1002.7 563.7L1002.7 569.6L1002.8 569.6L1009.0 562.8Q1009.5 562.3 1010.2 562.3L1010.2 562.3Q1010.7 562.3 1011.1 562.6Q1011.5 563.0 1011.5 563.5L1011.5 563.5Q1011.5 564.0 1011.0 564.5L1011.0 564.5L1006.3 569.4L1011.5 575.6Q1012.0 576.3 1012.0 576.8Q1012.0 577.4 1011.6 577.8Q1011.2 578.1 1010.7 578.1L1010.7 578.1Q1010.3 578.1 1009.9 578.0Q1009.6 577.8 1009.3 577.4L1009.3 577.4L1004.3 571.3L1002.7 573.0L1002.7 576.7Q1002.7 577.4 1002.3 577.8Q1001.9 578.1 1001.3 578.1ZM1016.1 577.8Q1015.7 578.2 1015.1 578.2Q1014.5 578.2 1014.2 577.8Q1013.8 577.4 1013.8 576.8L1013.8 576.8L1013.8 567.7Q1013.8 567.1 1014.2 566.7Q1014.5 566.3 1015.1 566.3L1015.1 566.3Q1015.6 566.3 1016.0 566.7Q1016.3 567.1 1016.3 567.7L1016.3 567.7L1016.3 568.6L1016.4 568.6Q1016.6 567.6 1017.3 567.0Q1018.0 566.4 1018.8 566.4L1018.8 566.4Q1019.5 566.4 1019.8 566.7L1019.8 566.7Q1020.2 567.0 1020.2 567.6L1020.2 567.6Q1020.2 568.2 1019.8 568.6L1019.8 568.6Q1019.4 568.9 1018.6 568.9L1018.6 568.9Q1016.5 568.9 1016.5 571.3L1016.5 571.3L1016.5 576.8Q1016.5 577.4 1016.1 577.8ZM1024.7 578.1L1024.7 578.1Q1023.0 578.1 1022.0 577.2Q1020.9 576.2 1020.9 574.7L1020.9 574.7Q1020.9 573.2 1022.0 572.3Q1023.1 571.4 1025.2 571.3L1025.2 571.3L1028.3 571.1L1028.3 570.3Q1028.3 569.4 1027.7 568.9Q1027.1 568.4 1026.1 568.4L1026.1 568.4Q1025.3 568.4 1024.8 568.7Q1024.2 569.0 1023.7 569.8L1023.7 569.8Q1023.3 570.3 1022.7 570.3L1022.7 570.3Q1022.2 570.3 1021.8 570.0Q1021.5 569.7 1021.5 569.2L1021.5 569.2Q1021.5 568.9 1021.7 568.5L1021.7 568.5Q1022.1 567.5 1023.4 566.9Q1024.6 566.3 1026.2 566.3L1026.2 566.3Q1028.3 566.3 1029.6 567.4Q1030.9 568.4 1030.9 570.1L1030.9 570.1L1030.9 576.8Q1030.9 577.5 1030.5 577.8Q1030.2 578.2 1029.6 578.2L1029.6 578.2Q1029.0 578.2 1028.7 577.8Q1028.3 577.5 1028.3 576.9L1028.3 576.9L1028.3 576.1L1028.3 576.1Q1027.8 577.0 1026.8 577.6Q1025.8 578.1 1024.7 578.1ZM1025.5 576.1L1025.5 576.1Q1026.7 576.1 1027.5 575.4Q1028.3 574.7 1028.3 573.7L1028.3 573.7L1028.3 572.9L1025.6 573.0Q1024.6 573.1 1024.1 573.5Q1023.6 573.9 1023.6 574.6L1023.6 574.6Q1023.6 575.3 1024.1 575.7Q1024.6 576.1 1025.5 576.1ZM1035.3 577.8Q1035.0 578.2 1034.4 578.2Q1033.8 578.2 1033.4 577.8Q1033.0 577.4 1033.0 576.8L1033.0 576.8L1033.0 567.7Q1033.0 567.1 1033.4 566.7Q1033.7 566.3 1034.3 566.3Q1034.9 566.3 1035.3 566.7Q1035.6 567.1 1035.6 567.7L1035.6 567.7L1035.6 568.5L1035.7 568.5Q1036.7 566.3 1039.2 566.3L1039.2 566.3Q1041.1 566.3 1042.1 567.5Q1043.2 568.6 1043.2 570.6L1043.2 570.6L1043.2 576.8Q1043.2 577.4 1042.8 577.8Q1042.5 578.2 1041.9 578.2Q1041.2 578.2 1040.9 577.8Q1040.5 577.4 1040.5 576.8L1040.5 576.8L1040.5 571.1Q1040.5 569.9 1039.9 569.3Q1039.4 568.6 1038.2 568.6L1038.2 568.6Q1037.1 568.6 1036.4 569.4Q1035.7 570.1 1035.7 571.4L1035.7 571.4L1035.7 576.8Q1035.7 577.4 1035.3 577.8ZM1053.2 577.9L1046.3 577.9Q1045.7 577.9 1045.4 577.6Q1045.1 577.3 1045.1 576.8Q1045.1 576.3 1045.5 575.8L1045.5 575.8L1051.0 568.7L1051.0 568.6L1046.1 568.6Q1045.6 568.6 1045.3 568.4Q1045.0 568.1 1045.0 567.6Q1045.0 567.1 1045.3 566.8Q1045.6 566.6 1046.1 566.6L1046.1 566.6L1052.7 566.6Q1053.4 566.6 1053.7 566.9Q1054.1 567.2 1054.1 567.8L1054.1 567.8Q1054.1 568.3 1053.6 568.9L1053.6 568.9L1048.4 575.8L1048.4 575.9L1053.2 575.9Q1053.7 575.9 1054.0 576.1Q1054.3 576.4 1054.3 576.9Q1054.3 577.4 1054.0 577.7Q1053.7 577.9 1053.2 577.9L1053.2 577.9ZM1058.5 577.8Q1058.2 578.2 1057.6 578.2Q1057.0 578.2 1056.6 577.8Q1056.2 577.4 1056.2 576.8L1056.2 576.8L1056.2 563.6Q1056.2 563.0 1056.6 562.6Q1057.0 562.2 1057.6 562.2Q1058.2 562.2 1058.5 562.6Q1058.9 563.0 1058.9 563.6L1058.9 563.6L1058.9 576.8Q1058.9 577.4 1058.5 577.8ZM1062.5 578.2L1062.5 578.2Q1061.9 578.2 1061.5 577.8Q1061.2 577.4 1061.2 576.8L1061.2 576.8L1061.2 567.7Q1061.2 567.1 1061.5 566.7Q1061.9 566.3 1062.4 566.3Q1063.0 566.3 1063.4 566.7Q1063.7 567.1 1063.7 567.7L1063.7 567.7L1063.7 568.5L1063.8 568.5Q1064.2 567.5 1065.0 566.9Q1065.9 566.3 1067.0 566.3L1067.0 566.3Q1068.2 566.3 1069.1 566.9Q1069.9 567.5 1070.2 568.6L1070.2 568.6L1070.3 568.6Q1070.7 567.6 1071.6 567.0Q1072.6 566.3 1073.8 566.3L1073.8 566.3Q1075.5 566.3 1076.5 567.4Q1077.5 568.4 1077.5 570.1L1077.5 570.1L1077.5 576.8Q1077.5 577.4 1077.2 577.8Q1076.8 578.2 1076.2 578.2L1076.2 578.2Q1075.6 578.2 1075.2 577.8Q1074.9 577.4 1074.9 576.8L1074.9 576.8L1074.9 570.8Q1074.9 569.7 1074.3 569.2Q1073.8 568.6 1072.8 568.6L1072.8 568.6Q1071.9 568.6 1071.3 569.2Q1070.7 569.9 1070.7 570.9L1070.7 570.9L1070.7 576.8Q1070.7 577.4 1070.3 577.8Q1070.0 578.2 1069.4 578.2L1069.4 578.2Q1068.7 578.2 1068.4 577.8Q1068.1 577.4 1068.1 576.8L1068.1 576.8L1068.1 570.7Q1068.1 569.7 1067.5 569.2Q1067.0 568.6 1066.0 568.6L1066.0 568.6Q1065.1 568.6 1064.5 569.3Q1063.8 569.9 1063.8 571.0L1063.8 571.0L1063.8 576.8Q1063.8 577.4 1063.5 577.8Q1063.1 578.2 1062.5 578.2ZM1082.6 564.9L1082.6 564.9Q1082.0 564.9 1081.6 564.5Q1081.2 564.1 1081.2 563.6Q1081.2 563.0 1081.6 562.7Q1082.0 562.3 1082.6 562.3L1082.6 562.3Q1083.1 562.3 1083.5 562.7Q1083.9 563.0 1083.9 563.6Q1083.9 564.1 1083.5 564.5Q1083.1 564.9 1082.6 564.9ZM1086.8 564.9L1086.8 564.9Q1086.3 564.9 1085.9 564.5Q1085.5 564.1 1085.5 563.6Q1085.5 563.0 1085.9 562.7Q1086.3 562.3 1086.8 562.3L1086.8 562.3Q1087.4 562.3 1087.8 562.7Q1088.2 563.0 1088.2 563.6Q1088.2 564.1 1087.8 564.5Q1087.4 564.9 1086.8 564.9ZM1083.7 578.2L1083.7 578.2Q1081.8 578.2 1080.7 577.0Q1079.6 575.9 1079.6 573.9L1079.6 573.9L1079.6 567.7Q1079.6 567.1 1080.0 566.7Q1080.4 566.3 1081.0 566.3Q1081.6 566.3 1081.9 566.7Q1082.3 567.1 1082.3 567.8L1082.3 567.8L1082.3 573.4Q1082.3 574.6 1082.9 575.3Q1083.5 575.9 1084.6 575.9L1084.6 575.9Q1085.7 575.9 1086.4 575.1Q1087.1 574.4 1087.1 573.1L1087.1 573.1L1087.1 567.7Q1087.1 567.1 1087.5 566.7Q1087.8 566.3 1088.4 566.3L1088.4 566.3Q1089.0 566.3 1089.4 566.7Q1089.8 567.1 1089.8 567.8L1089.8 567.8L1089.8 576.8Q1089.8 577.4 1089.4 577.8Q1089.1 578.2 1088.5 578.2L1088.5 578.2Q1087.9 578.2 1087.5 577.8Q1087.2 577.4 1087.2 576.8L1087.2 576.8L1087.2 576.0L1087.1 576.0Q1086.2 578.2 1083.7 578.2ZM1094.3 577.8Q1094.0 578.2 1093.4 578.2Q1092.8 578.2 1092.4 577.8Q1092.0 577.4 1092.0 576.8L1092.0 576.8L1092.0 563.6Q1092.0 563.0 1092.4 562.6Q1092.8 562.2 1093.4 562.2Q1094.0 562.2 1094.3 562.6Q1094.7 563.0 1094.7 563.6L1094.7 563.6L1094.7 576.8Q1094.7 577.4 1094.3 577.8ZM1099.4 577.8Q1099.0 578.2 1098.4 578.2Q1097.8 578.2 1097.4 577.8Q1097.1 577.4 1097.1 576.8L1097.1 576.8L1097.1 563.6Q1097.1 563.0 1097.4 562.6Q1097.8 562.2 1098.4 562.2Q1099.0 562.2 1099.4 562.6Q1099.7 563.0 1099.7 563.6L1099.7 563.6L1099.7 576.8Q1099.7 577.4 1099.4 577.8ZM1107.1 578.2L1107.1 578.2Q1104.5 578.2 1103.0 576.6Q1101.5 575.1 1101.5 572.3L1101.5 572.3Q1101.5 569.6 1103.0 567.9Q1104.5 566.3 1106.9 566.3L1106.9 566.3Q1109.2 566.3 1110.7 567.8Q1112.2 569.3 1112.2 571.6L1112.2 571.6Q1112.2 572.2 1111.8 572.6Q1111.5 572.9 1110.9 572.9L1110.9 572.9L1104.2 572.9L1104.2 573.0Q1104.2 574.4 1105.0 575.3Q1105.7 576.1 1107.0 576.1L1107.0 576.1Q1107.9 576.1 1108.6 575.8Q1109.2 575.4 1109.9 574.6L1109.9 574.6Q1110.3 574.2 1110.8 574.2L1110.8 574.2Q1111.3 574.2 1111.6 574.4Q1111.9 574.7 1111.9 575.2L1111.9 575.2Q1111.9 575.5 1111.7 575.9L1111.7 575.9Q1111.1 577.0 1109.9 577.6Q1108.7 578.2 1107.1 578.2ZM1104.2 571.1L1104.2 571.1L1109.5 571.1Q1109.5 569.9 1108.8 569.1Q1108.1 568.4 1106.9 568.4Q1105.8 568.4 1105.0 569.2Q1104.3 569.9 1104.2 571.1ZM1116.2 577.8Q1115.8 578.2 1115.2 578.2Q1114.6 578.2 1114.2 577.8Q1113.9 577.4 1113.9 576.8L1113.9 576.8L1113.9 567.7Q1113.9 567.1 1114.2 566.7Q1114.6 566.3 1115.2 566.3L1115.2 566.3Q1115.7 566.3 1116.1 566.7Q1116.4 567.1 1116.4 567.7L1116.4 567.7L1116.4 568.6L1116.5 568.6Q1116.7 567.6 1117.4 567.0Q1118.1 566.4 1118.9 566.4L1118.9 566.4Q1119.5 566.4 1119.9 566.7L1119.9 566.7Q1120.2 567.0 1120.2 567.6L1120.2 567.6Q1120.2 568.2 1119.8 568.6L1119.8 568.6Q1119.5 568.9 1118.7 568.9L1118.7 568.9Q1116.6 568.9 1116.6 571.3L1116.6 571.3L1116.6 576.8Q1116.6 577.4 1116.2 577.8ZM1123.3 575.2L1123.3 575.2Q1123.9 575.2 1124.2 575.5Q1124.5 575.8 1124.5 576.3L1124.5 576.3Q1124.5 576.6 1124.4 576.9L1124.4 576.9L1123.5 580.6Q1123.4 581.1 1123.1 581.3Q1122.9 581.5 1122.4 581.5Q1121.9 581.5 1121.7 581.2Q1121.4 581.0 1121.4 580.5L1121.4 580.5Q1121.4 580.4 1121.4 580.3L1121.4 580.3L1122.1 576.3Q1122.2 575.2 1123.3 575.2Z M1137.7 577.9L1133.4 577.9Q1132.8 577.9 1132.4 577.6Q1132.0 577.2 1132.0 576.5L1132.0 576.5L1132.0 563.9Q1132.0 563.2 1132.4 562.8Q1132.8 562.4 1133.4 562.4L1133.4 562.4L1137.7 562.4Q1141.2 562.4 1143.1 564.5Q1145.1 566.5 1145.1 570.2L1145.1 570.2Q1145.1 573.8 1143.1 575.9Q1141.2 577.9 1137.7 577.9L1137.7 577.9ZM1134.8 564.8L1134.8 575.6L1137.4 575.6Q1139.7 575.6 1141.0 574.2Q1142.2 572.8 1142.2 570.2L1142.2 570.2Q1142.2 567.6 1141.0 566.2Q1139.7 564.8 1137.4 564.8L1137.4 564.8L1134.8 564.8ZM1148.9 578.1L1148.9 578.1Q1148.2 578.1 1147.8 577.6Q1147.3 577.2 1147.3 576.5L1147.3 576.5Q1147.3 575.9 1147.8 575.4Q1148.2 575.0 1148.9 575.0L1148.9 575.0Q1149.5 575.0 1149.9 575.4Q1150.4 575.9 1150.4 576.5L1150.4 576.5Q1150.4 577.2 1149.9 577.6Q1149.5 578.1 1148.9 578.1Z " clip-path="url(#satori_cp-id-0)" mask="url(#satori_om-id-0)"/></svg>