<svg width="1200" height="630" viewBox="0 0 1200 630" xmlns="http://www.w3.org/2000/svg"><mask id="satori_om-id"><rect x="0" y="0" width="1200" height="630" fill="#fff"/></mask><defs><pattern id="satori_pattern_id-0_0" x="0" y="0" width="1" height="1" patternUnits="objectBoundingBox"><linearGradient id="satori_biid-0_0" x1="-0.09774620284174435" y1="0.18618324350808482" x2="1.0977462028417444" y2="0.8138167564919152" spreadMethod="pad"><stop offset="0%" stop-color="#f8fafc"/><stop offset="50%" stop-color="#eef2ff"/><stop offset="100%" stop-color="#ffffff"/></linearGradient><rect x="0" y="0" width="1200" height="630" fill="url(#satori_biid-0_0)"/></pattern></defs><clipPath id="satori_cp-id-0"><rect x="0" y="0" width="1200" height="630"/></clipPath><mask id="satori_om-id-0"><rect x="0" y="0" width="1200" height="630" fill="#fff"/></mask><rect x="0" y="0" width="1200" height="630" fill="url(#satori_pattern_id-0_0)"/><mask id="satori_om-id-0-0"><rect x="0" y="0" width="1200" height="509" fill="#fff" mask="url(#satori_om-id-0)"/></mask><mask id="satori_om-id-0-0-0"><rect x="72" y="72" width="1056" height="365" fill="#fff" mask="url(#satori_om-id-0)"/></mask><mask id="satori_om-id-0-0-0-0"><rect x="72" y="113" width="1056" height="38" fill="#fff" mask="url(#satori_om-id-0)"/></mask><path fill="#64748b" d="M82.7 143.2Q82.2 143.7 81.4 143.7Q80.6 143.7 80.1 143.2Q79.7 142.8 79.7 141.9L79.7 141.9L79.7 124.0L74.1 124.0Q73.4 124.0 73.0 123.5Q72.5 123.1 72.5 122.4Q72.5 121.8 73.0 121.3Q73.4 120.9 74.1 120.9L74.1 120.9L88.7 120.9Q89.4 120.9 89.9 121.3Q90.3 121.8 90.3 122.4Q90.3 123.1 89.9 123.5Q89.4 124.0 88.7 124.0L88.7 124.0L83.2 124.0L83.2 141.9Q83.2 142.8 82.7 143.2ZM95.5 143.3Q95.1 143.8 94.3 143.8Q93.6 143.8 93.1 143.3Q92.6 142.8 92.6 142.0L92.6 142.0L92.6 122.4Q92.6 121.6 93.1 121.1Q93.5 120.6 94.3 120.6L94.3 120.6Q95.1 120.6 95.5 121.1Q96.0 121.6 96.0 122.4L96.0 122.4L96.0 129.8L96.0 129.8Q96.7 128.3 98.1 127.5Q99.4 126.8 101.3 126.8L101.3 126.8Q103.9 126.8 105.5 128.4Q107.0 130.1 107.0 132.9L107.0 132.9L107.0 142.0Q107.0 142.8 106.5 143.3Q106.1 143.8 105.3 143.8L105.3 143.8Q104.6 143.8 104.1 143.3Q103.6 142.8 103.6 142.0L103.6 142.0L103.6 133.5Q103.6 131.7 102.7 130.7Q101.8 129.7 100.0 129.7L100.0 129.7Q98.2 129.7 97.1 130.8Q96 132.0 96 134.0L96 134.0L96 142.0Q96 142.8 95.5 143.3ZM116.0 143.8L116.0 143.8Q113.3 143.8 111.7 142.1Q110.2 140.5 110.2 137.7L110.2 137.7L110.2 128.5Q110.2 127.7 110.6 127.2Q111.1 126.7 111.9 126.7L111.9 126.7Q112.6 126.7 113.1 127.2Q113.6 127.7 113.6 128.5L113.6 128.5L113.6 137.0Q113.6 138.9 114.5 139.9Q115.3 140.9 117.1 140.9L117.1 140.9Q118.9 140.9 119.9 139.7Q121.0 138.5 121.0 136.6L121.0 136.6L121.0 128.5Q121.0 127.7 121.5 127.2Q121.9 126.7 122.7 126.7L122.7 126.7Q123.4 126.7 123.9 127.2Q124.4 127.7 124.4 128.5L124.4 128.5L124.4 142.0Q124.4 142.8 123.9 143.3Q123.5 143.8 122.8 143.8Q122.0 143.8 121.6 143.3Q121.1 142.8 121.1 142.1L121.1 142.1L121.1 140.7L121.0 140.7Q119.6 143.8 116.0 143.8ZM129.4 143.8L129.4 143.8Q128.6 143.8 128.1 143.3Q127.7 142.8 127.7 142.0L127.7 142.0L127.7 128.4Q127.7 127.7 128.1 127.2Q128.6 126.7 129.3 126.7L129.3 126.7Q130 126.7 130.4 127.2Q130.9 127.7 130.9 128.4L130.9 128.4L130.9 129.8L131.0 129.8Q131.3 128.5 132.3 127.6Q133.3 126.8 134.6 126.8L134.6 126.8Q135.5 126.8 135.9 127.2L135.9 127.2Q136.4 127.5 136.4 128.4L136.4 128.4Q136.4 129.1 135.9 129.5L135.9 129.5Q135.4 130.0 134.3 130.0L134.3 130.0Q132.7 130 131.9 131.0Q131.1 132.0 131.1 133.6L131.1 133.6L131.1 142.0Q131.1 142.8 130.6 143.3Q130.1 143.8 129.4 143.8ZM144.3 143.8L144.3 143.8Q141.9 143.8 140.2 142.9Q138.5 142.0 137.9 140.4L137.9 140.4Q137.7 140.1 137.7 139.7L137.7 139.7Q137.7 139.1 138.1 138.8Q138.5 138.4 139.2 138.4L139.2 138.4Q140.0 138.4 140.6 139.3L140.6 139.3Q141.3 140.3 142.1 140.8Q143.0 141.2 144.4 141.2L144.4 141.2Q145.9 141.2 146.8 140.6Q147.6 140.0 147.6 139.0L147.6 139.0Q147.6 138.2 147.1 137.7Q146.5 137.3 145.2 136.9L145.2 136.9L142.6 136.3Q137.9 135.2 137.9 131.7L137.9 131.7Q137.9 129.4 139.7 128.1Q141.5 126.7 144.4 126.7L144.4 126.7Q146.6 126.7 148.2 127.7Q149.9 128.7 150.3 130.2L150.3 130.2Q150.3 130.6 150.3 130.7L150.3 130.7Q150.3 131.3 150.0 131.6Q149.6 131.9 149 131.9L149 131.9Q148.1 131.9 147.6 131.2L147.6 131.2Q147.1 130.3 146.3 129.8Q145.5 129.3 144.3 129.3L144.3 129.3Q142.9 129.3 142.0 129.9Q141.2 130.5 141.2 131.5L141.2 131.5Q141.2 133.0 143.7 133.6L143.7 133.6L146.3 134.2Q148.9 134.8 150.0 135.9Q151.0 136.9 151.0 138.7L151.0 138.7Q151.0 141.0 149.2 142.4Q147.3 143.8 144.3 143.8ZM159.8 143.8L159.8 143.8Q156.7 143.8 154.8 141.4Q152.9 139.1 152.9 135.3Q152.9 131.4 154.8 129.1Q156.7 126.8 159.8 126.8L159.8 126.8Q161.5 126.8 162.9 127.6Q164.3 128.4 165.0 129.8L165.0 129.8L165.0 129.8L165.0 122.4Q165.0 121.6 165.5 121.1Q166.0 120.6 166.7 120.6L166.7 120.6Q167.5 120.6 167.9 121.1Q168.4 121.6 168.4 122.4L168.4 122.4L168.4 142.1Q168.4 142.9 167.9 143.3Q167.5 143.8 166.7 143.8L166.7 143.8Q166 143.8 165.5 143.3Q165.0 142.9 165.0 142.1L165.0 142.1L165.0 140.5L165.0 140.5Q164.3 142.0 163 142.9Q161.7 143.8 159.8 143.8ZM160.7 140.9L160.7 140.9Q162.7 140.9 163.9 139.4Q165.0 137.8 165.0 135.3L165.0 135.3Q165.0 132.7 163.9 131.2Q162.7 129.6 160.7 129.6L160.7 129.6Q158.7 129.6 157.5 131.1Q156.4 132.7 156.4 135.3L156.4 135.3Q156.4 137.9 157.5 139.4Q158.7 140.9 160.7 140.9ZM176.7 143.8L176.7 143.8Q174.3 143.8 172.7 142.4Q171.2 141 171.2 138.8L171.2 138.8Q171.2 136.6 172.8 135.4Q174.4 134.1 177.3 133.9L177.3 133.9L181.8 133.7L181.8 132.4Q181.8 131.0 180.9 130.3Q180.1 129.5 178.5 129.5L178.5 129.5Q177.3 129.5 176.4 130.0Q175.6 130.5 174.9 131.6L174.9 131.6Q174.4 132.3 173.5 132.3L173.5 132.3Q172.9 132.3 172.5 131.9Q172.0 131.5 172.0 130.9L172.0 130.9Q172.0 130.3 172.3 129.8L172.3 129.8Q173.0 128.4 174.7 127.6Q176.4 126.7 178.6 126.7L178.6 126.7Q181.6 126.7 183.4 128.2Q185.2 129.7 185.2 132.1L185.2 132.1L185.2 142.1Q185.2 142.8 184.7 143.3Q184.3 143.8 183.5 143.8L183.5 143.8Q182.8 143.8 182.4 143.3Q182.0 142.9 181.9 142.2L181.9 142.2L181.9 140.8L181.9 140.8Q181.2 142.1 179.7 142.9Q178.3 143.8 176.7 143.8ZM177.6 141.1L177.6 141.1Q179.4 141.1 180.6 140.0Q181.8 138.9 181.8 137.3L181.8 137.3L181.8 136.0L177.8 136.3Q176.2 136.4 175.4 137.0Q174.6 137.6 174.6 138.7L174.6 138.7Q174.6 139.8 175.4 140.4Q176.3 141.1 177.6 141.1ZM190.5 149.6L190.5 149.6Q189.3 149.6 188.7 149.2Q188.0 148.8 188.0 148.0L188.0 148.0Q188.0 147.4 188.4 147.1Q188.8 146.8 189.4 146.8L189.4 146.8Q189.5 146.8 189.8 146.8Q190.0 146.8 190.2 146.8L190.2 146.8Q191.9 146.8 192.7 144.6L192.7 144.6L193.0 143.6L187.5 129.3Q187.4 128.7 187.4 128.3L187.4 128.3Q187.4 127.6 187.8 127.2Q188.3 126.7 189.1 126.7L189.1 126.7Q189.7 126.7 190.1 127.0Q190.5 127.3 190.7 128.0L190.7 128.0L194.9 140.4L194.9 140.4L199.1 128.0Q199.3 127.3 199.7 127.0Q200.1 126.7 200.8 126.7L200.8 126.7Q201.5 126.7 201.9 127.2Q202.4 127.6 202.4 128.3L202.4 128.3Q202.4 128.7 202.2 129.2L202.2 129.2L196.5 144.3Q195.4 147.3 194.1 148.4Q192.8 149.6 190.5 149.6ZM207.2 139.7L207.2 139.7Q207.9 139.7 208.3 140.0Q208.7 140.4 208.7 141.1L208.7 141.1Q208.7 141.5 208.6 142.0L208.6 142.0L207.3 147.3Q207.0 148.5 205.8 148.5L205.8 148.5Q205.2 148.5 204.9 148.1Q204.5 147.8 204.5 147.3L204.5 147.3Q204.5 147.1 204.5 146.9L204.5 146.9L205.5 141.1Q205.8 139.7 207.2 139.7Z M228.1 143.9L228.1 143.9Q225.5 143.9 223.5 142.6Q221.5 141.3 220.4 138.9L220.4 138.9Q219.2 136.3 219.2 132.5L219.2 132.5Q219.2 126.8 221.6 123.7Q224.0 120.5 228.2 120.5L228.2 120.5Q230.6 120.5 232.4 121.5Q234.3 122.4 235.2 124.1L235.2 124.1Q235.6 124.8 235.6 125.4L235.6 125.4Q235.6 126.0 235.1 126.4Q234.7 126.8 234.0 126.8L234.0 126.8Q233.5 126.8 233.1 126.6Q232.8 126.3 232.3 125.7L232.3 125.7Q230.8 123.4 228.2 123.4L228.2 123.4Q225.5 123.4 224.1 125.7Q222.7 128.0 222.6 132.1L222.6 132.1L222.6 132.3L222.7 132.3Q223.4 130.7 225.0 129.7Q226.7 128.7 228.9 128.7L228.9 128.7Q232.1 128.7 234.2 130.8Q236.3 132.9 236.3 136.1L236.3 136.1Q236.3 139.5 234 141.7Q231.7 143.9 228.1 143.9ZM228.0 141.0L228.0 141.0Q230.1 141.0 231.5 139.6Q232.8 138.2 232.8 136.2L232.8 136.2Q232.8 134.2 231.5 132.8Q230.2 131.5 228.1 131.5Q226.0 131.5 224.6 132.8Q223.3 134.1 223.3 136.1L223.3 136.1Q223.3 138.2 224.7 139.6Q226.0 141.0 228.0 141.0Z M249.0 143.2Q248.6 143.7 247.8 143.7Q247 143.7 246.5 143.2Q246.1 142.8 246.1 141.9L246.1 141.9L246.1 122.6Q246.1 121.7 246.6 121.2Q247.1 120.7 248.0 120.7L248.0 120.7Q248.6 120.7 249.0 120.9Q249.4 121.2 249.9 121.8L249.9 121.8L261.0 137.5L261.1 137.5L261.1 122.5Q261.1 121.6 261.5 121.1Q262 120.7 262.8 120.7L262.8 120.7Q263.6 120.7 264.0 121.1Q264.5 121.6 264.5 122.5L264.5 122.5L264.5 141.9Q264.5 142.8 264 143.2Q263.5 143.7 262.6 143.7L262.6 143.7Q262 143.7 261.6 143.5Q261.2 143.3 260.8 142.6L260.8 142.6L249.6 126.9L249.5 126.9L249.5 141.9Q249.5 142.8 249.0 143.2ZM281.0 141.5Q278.8 143.8 275.3 143.8Q271.8 143.8 269.6 141.5Q267.5 139.2 267.5 135.3L267.5 135.3Q267.5 131.3 269.6 129.0Q271.8 126.7 275.3 126.7Q278.8 126.7 281.0 129.0Q283.1 131.3 283.1 135.3L283.1 135.3Q283.1 139.2 281.0 141.5ZM275.3 141L275.3 141Q277.3 141 278.5 139.5Q279.7 138.0 279.7 135.3L279.7 135.3Q279.7 132.5 278.5 131.0Q277.3 129.5 275.3 129.5Q273.3 129.5 272.1 131.0Q270.9 132.5 270.9 135.3L270.9 135.3Q270.9 138.0 272.1 139.5Q273.3 141 275.3 141ZM292.0 143.8L292.0 143.8Q291.1 143.8 290.6 143.4Q290.1 143.0 289.7 142.0L289.7 142.0L284.8 129.2Q284.6 128.7 284.6 128.3L284.6 128.3Q284.6 127.6 285.1 127.2Q285.6 126.7 286.3 126.7L286.3 126.7Q287.5 126.7 287.9 128.1L287.9 128.1L292.0 140.2L292.1 140.2L296.2 128.0Q296.6 126.7 297.7 126.7L297.7 126.7Q298.5 126.7 298.9 127.2Q299.4 127.6 299.4 128.3L299.4 128.3Q299.4 128.7 299.2 129.2L299.2 129.2L294.3 142.0Q294.0 142.9 293.5 143.4Q292.9 143.8 292.0 143.8ZM308.8 143.8L308.8 143.8Q305.1 143.8 303.0 141.5Q300.9 139.3 300.9 135.3L300.9 135.3Q300.9 131.4 303.0 129.1Q305.1 126.7 308.6 126.7L308.6 126.7Q311.8 126.7 313.9 128.9Q316.0 131 316.0 134.4L316.0 134.4Q316.0 135.2 315.5 135.6Q315.1 136.1 314.3 136.1L314.3 136.1L304.3 136.1L304.3 136.2Q304.3 138.4 305.5 139.7Q306.7 141.0 308.7 141.0L308.7 141.0Q310.1 141.0 311.1 140.5Q312.0 140.0 313.0 138.7L313.0 138.7Q313.5 138.1 314.2 138.1L314.2 138.1Q314.8 138.1 315.2 138.5Q315.6 138.9 315.6 139.5L315.6 139.5Q315.6 139.8 315.3 140.4L315.3 140.4Q314.5 142 312.8 142.9Q311.1 143.8 308.8 143.8ZM304.4 133.7L304.4 133.7L312.6 133.7Q312.5 131.8 311.4 130.6Q310.3 129.5 308.5 129.5L308.5 129.5Q306.8 129.5 305.6 130.6Q304.5 131.8 304.4 133.7ZM321.5 143.3Q321.0 143.8 320.3 143.8Q319.5 143.8 319.0 143.3Q318.6 142.8 318.6 142.0L318.6 142.0L318.6 128.5Q318.6 127.7 319.0 127.2Q319.5 126.7 320.2 126.7Q320.9 126.7 321.3 127.2Q321.8 127.7 321.8 128.5L321.8 128.5L321.8 129.8L321.9 129.8Q322.4 128.4 323.7 127.6Q324.9 126.8 326.5 126.8L326.5 126.8Q328.2 126.8 329.4 127.6Q330.6 128.4 331.1 130.0L331.1 130.0L331.2 130.0Q331.8 128.5 333.2 127.6Q334.6 126.8 336.3 126.8L336.3 126.8Q338.8 126.8 340.2 128.2Q341.7 129.7 341.7 132.2L341.7 132.2L341.7 142.0Q341.7 142.8 341.2 143.3Q340.8 143.8 340 143.8Q339.2 143.8 338.8 143.3Q338.3 142.8 338.3 142.0L338.3 142.0L338.3 133.0Q338.3 131.4 337.5 130.5Q336.7 129.6 335.2 129.6Q333.7 129.6 332.7 130.6Q331.8 131.6 331.8 133.2L331.8 133.2L331.8 142.0Q331.8 142.8 331.3 143.3Q330.9 143.8 330.1 143.8Q329.4 143.8 328.9 143.3Q328.5 142.8 328.5 142.0L328.5 142.0L328.5 132.7Q328.5 131.3 327.6 130.5Q326.8 129.6 325.4 129.6L325.4 129.6Q323.9 129.6 322.9 130.7Q321.9 131.7 321.9 133.3L321.9 133.3L321.9 142.0Q321.9 142.8 321.5 143.3ZM346.7 143.8L346.7 143.8Q346.0 143.8 345.5 143.3Q345.1 142.9 345.1 142.1L345.1 142.1L345.1 122.4Q345.1 121.6 345.5 121.1Q346.0 120.6 346.8 120.6Q347.5 120.6 348.0 121.1Q348.5 121.6 348.5 122.4L348.5 122.4L348.5 129.8L348.5 129.8Q349.3 128.4 350.6 127.6Q352 126.8 353.7 126.8L353.7 126.8Q356.8 126.8 358.7 129.1Q360.6 131.4 360.6 135.3L360.6 135.3Q360.6 139.2 358.7 141.5Q356.8 143.8 353.7 143.8L353.7 143.8Q351.9 143.8 350.6 142.9Q349.2 142.1 348.4 140.7L348.4 140.7L348.4 140.7L348.4 142.1Q348.4 142.9 347.9 143.3Q347.4 143.8 346.7 143.8ZM352.8 140.9L352.8 140.9Q354.8 140.9 356.0 139.4Q357.1 137.9 357.1 135.3L357.1 135.3Q357.1 132.7 355.9 131.1Q354.8 129.6 352.8 129.6L352.8 129.6Q350.9 129.6 349.7 131.2Q348.4 132.7 348.4 135.3L348.4 135.3Q348.4 137.8 349.7 139.3Q350.9 140.9 352.8 140.9ZM370.3 143.8L370.3 143.8Q366.6 143.8 364.5 141.5Q362.5 139.3 362.5 135.3L362.5 135.3Q362.5 131.4 364.5 129.1Q366.6 126.7 370.1 126.7L370.1 126.7Q373.4 126.7 375.4 128.9Q377.5 131 377.5 134.4L377.5 134.4Q377.5 135.2 377.0 135.6Q376.6 136.1 375.8 136.1L375.8 136.1L365.9 136.1L365.9 136.2Q365.9 138.4 367.0 139.7Q368.2 141.0 370.2 141.0L370.2 141.0Q371.6 141.0 372.6 140.5Q373.5 140.0 374.5 138.7L374.5 138.7Q375.0 138.1 375.7 138.1L375.7 138.1Q376.3 138.1 376.7 138.5Q377.1 138.9 377.1 139.5L377.1 139.5Q377.1 139.8 376.8 140.4L376.8 140.4Q376.0 142 374.3 142.9Q372.6 143.8 370.3 143.8ZM365.9 133.7L365.9 133.7L374.1 133.7Q374.0 131.8 372.9 130.6Q371.8 129.5 370.1 129.5L370.1 129.5Q368.3 129.5 367.2 130.6Q366 131.8 365.9 133.7ZM381.8 143.8L381.8 143.8Q381 143.8 380.5 143.3Q380.1 142.8 380.1 142.0L380.1 142.0L380.1 128.4Q380.1 127.7 380.5 127.2Q381.0 126.7 381.7 126.7L381.7 126.7Q382.4 126.7 382.8 127.2Q383.3 127.7 383.3 128.4L383.3 128.4L383.3 129.8L383.4 129.8Q383.7 128.5 384.7 127.6Q385.7 126.8 387.0 126.8L387.0 126.8Q387.9 126.8 388.3 127.2L388.3 127.2Q388.8 127.5 388.8 128.4L388.8 128.4Q388.8 129.1 388.3 129.5L388.3 129.5Q387.8 130.0 386.7 130.0L386.7 130.0Q385.0 130 384.3 131.0Q383.5 132.0 383.5 133.6L383.5 133.6L383.5 142.0Q383.5 142.8 383.0 143.3Q382.5 143.8 381.8 143.8Z M411.2 143.5L398.7 143.5Q398.0 143.5 397.5 143.1Q397.1 142.7 397.1 142L397.1 142Q397.1 141.5 397.3 141.1Q397.5 140.8 398.0 140.2L398.0 140.2L405.1 133.0Q407.3 130.8 408.0 129.6Q408.8 128.4 408.8 127.1L408.8 127.1Q408.8 125.5 407.6 124.4Q406.5 123.4 404.8 123.4L404.8 123.4Q401.5 123.4 400.3 126.7L400.3 126.7Q400.0 127.3 399.7 127.6Q399.3 127.9 398.7 127.9L398.7 127.9Q398 127.9 397.6 127.5Q397.2 127.0 397.2 126.4L397.2 126.4Q397.2 126 397.3 125.6L397.3 125.6Q397.5 124.7 398.0 123.8Q398.6 122.9 399.5 122.2Q400.5 121.4 401.9 121.0Q403.2 120.5 404.8 120.5L404.8 120.5Q408.1 120.5 410.1 122.3Q412.2 124.1 412.2 126.9L412.2 126.9Q412.2 128.8 411.2 130.5Q410.1 132.1 407.2 135.0L407.2 135.0L401.8 140.4L401.8 140.5L411.2 140.5Q411.9 140.5 412.3 140.9Q412.7 141.3 412.7 142L412.7 142Q412.7 142.7 412.3 143.1Q411.9 143.5 411.2 143.5L411.2 143.5ZM430.3 140.7Q428.0 143.9 423.9 143.9Q419.9 143.9 417.6 140.7Q415.3 137.6 415.3 132.2L415.3 132.2Q415.3 126.8 417.6 123.6Q419.9 120.5 423.9 120.5L423.9 120.5Q427.9 120.5 430.2 123.6Q432.5 126.8 432.5 132.2L432.5 132.2Q432.5 137.6 430.3 140.7ZM423.9 141.0L423.9 141.0Q426.3 141.0 427.7 138.6Q429 136.3 429 132.2L429 132.2Q429 128.1 427.7 125.8Q426.3 123.4 423.9 123.4Q421.5 123.4 420.2 125.8Q418.8 128.1 418.8 132.2L418.8 132.2Q418.8 136.3 420.2 138.6Q421.5 141.0 423.9 141.0ZM449.7 143.5L437.2 143.5Q436.5 143.5 436.0 143.1Q435.6 142.7 435.6 142L435.6 142Q435.6 141.5 435.8 141.1Q436.0 140.8 436.5 140.2L436.5 140.2L443.6 133.0Q445.8 130.8 446.5 129.6Q447.3 128.4 447.3 127.1L447.3 127.1Q447.3 125.5 446.1 124.4Q445.0 123.4 443.3 123.4L443.3 123.4Q440.0 123.4 438.8 126.7L438.8 126.7Q438.5 127.3 438.2 127.6Q437.8 127.9 437.2 127.9L437.2 127.9Q436.5 127.9 436.1 127.5Q435.7 127.0 435.7 126.4L435.7 126.4Q435.7 126 435.8 125.6L435.8 125.6Q436.0 124.7 436.5 123.8Q437.1 122.9 438.0 122.2Q439.0 121.4 440.4 121.0Q441.7 120.5 443.3 120.5L443.3 120.5Q446.6 120.5 448.6 122.3Q450.7 124.1 450.7 126.9L450.7 126.9Q450.7 128.8 449.7 130.5Q448.6 132.1 445.7 135.0L445.7 135.0L440.3 140.4L440.3 140.5L449.7 140.5Q450.4 140.5 450.8 140.9Q451.2 141.3 451.2 142L451.2 142Q451.2 142.7 450.8 143.1Q450.4 143.5 449.7 143.5L449.7 143.5ZM462.2 143.9L462.2 143.9Q459.7 143.9 457.7 142.8Q455.7 141.6 454.9 139.8L454.9 139.8Q454.5 139.0 454.5 138.2L454.5 138.2Q454.5 137.5 454.9 137.1Q455.3 136.7 456.1 136.7L456.1 136.7Q456.6 136.7 457.0 137.0Q457.4 137.2 457.6 137.8L457.6 137.8Q458.2 139.3 459.4 140.1Q460.6 141.0 462.3 141.0L462.3 141.0Q464.4 141.0 465.8 139.6Q467.1 138.3 467.1 136.1L467.1 136.1Q467.1 134.0 465.7 132.7Q464.4 131.4 462.3 131.4L462.3 131.4Q460.0 131.4 458.6 132.9L458.6 132.9Q457.9 133.6 457.5 133.9Q457.1 134.1 456.5 134.1L456.5 134.1Q455.7 134.1 455.2 133.6Q454.8 133.0 454.8 132.3L454.8 132.3L454.8 132.0L455.6 123.3Q455.7 122.0 456.3 121.5Q457.0 120.9 458.3 120.9L458.3 120.9L467.8 120.9Q468.5 120.9 469.0 121.3Q469.4 121.7 469.4 122.4Q469.4 123.1 469.0 123.5Q468.5 123.9 467.8 123.9L467.8 123.9L458.6 123.9L458.0 130.9L458.0 130.9Q458.8 129.8 460.1 129.2Q461.4 128.6 463.1 128.6L463.1 128.6Q466.4 128.6 468.4 130.7Q470.5 132.8 470.5 136.0L470.5 136.0Q470.5 139.5 468.2 141.7Q465.9 143.9 462.2 143.9Z " clip-path="url(#satori_cp-id-0)" mask="url(#satori_om-id-0)"/><mask id="satori_om-id-0-0-0-1"><rect x="72" y="175" width="1056" height="221" fill="#fff" mask="url(#satori_om-id-0)"/></mask><path fill="#0f172a" d="M78.8 235.1L78.8 235.1Q76.6 235.1 75.3 233.9Q74.0 232.7 74.0 230.7L74.0 230.7Q74.0 229.5 74.6 227.7L74.6 227.7L86.9 194.2Q87.9 191.4 89.6 190.1Q91.3 188.8 94 188.8L94 188.8Q96.8 188.8 98.5 190.1Q100.2 191.4 101.2 194.1L101.2 194.1L113.6 227.7Q114.2 229.4 114.2 230.7L114.2 230.7Q114.2 232.6 112.9 233.9Q111.5 235.1 109.5 235.1L109.5 235.1Q107.5 235.1 106.3 234.2Q105.2 233.2 104.6 231.0L104.6 231.0L102.2 223.9L85.9 223.9L83.5 230.9Q82.9 233.1 81.8 234.1Q80.6 235.1 78.8 235.1ZM93.8 198.1L88.0 216.6L100 216.6L94.0 198.1L93.8 198.1Z M152.7 235.3L152.7 235.3Q142.6 235.3 136.9 229.1Q131.2 222.9 131.2 212.0L131.2 212.0Q131.2 201.1 136.9 194.9Q142.6 188.7 152.4 188.7L152.4 188.7Q158.7 188.7 163.4 191.4Q168.2 194.1 170.5 198.9L170.5 198.9Q171.4 200.7 171.4 202.5L171.4 202.5Q171.4 204.3 170.3 205.4Q169.1 206.5 167.3 206.5L167.3 206.5Q165.7 206.5 164.6 205.8Q163.5 205.1 162.8 203.4L162.8 203.4Q161.2 200.0 158.6 198.2Q155.9 196.5 152.5 196.5L152.5 196.5Q147.2 196.5 144.0 200.7Q140.8 204.9 140.8 212.0L140.8 212.0Q140.8 219.2 143.9 223.3Q147.1 227.5 152.5 227.5L152.5 227.5Q159.9 227.5 162.9 220.8L162.9 220.8Q163.6 219.2 164.6 218.6Q165.5 217.9 167.0 217.9L167.0 217.9Q169.0 217.9 170.2 219.0Q171.4 220.2 171.4 222.1L171.4 222.1Q171.4 223.5 170.7 225.2L170.7 225.2Q168.6 229.9 163.8 232.6Q159.0 235.3 152.7 235.3ZM204.9 230.6Q200.4 235.3 192.8 235.3Q185.1 235.3 180.6 230.6Q176.2 226.0 176.2 217.8L176.2 217.8Q176.2 209.7 180.7 205.0Q185.2 200.3 192.8 200.3L192.8 200.3Q200.3 200.3 204.8 205.0Q209.3 209.7 209.3 217.8L209.3 217.8Q209.3 226.0 204.9 230.6ZM192.8 228.3L192.8 228.3Q196.1 228.3 198.1 225.6Q200.1 222.8 200.1 217.8L200.1 217.8Q200.1 212.9 198.1 210.1Q196.1 207.3 192.8 207.3Q189.4 207.3 187.4 210.1Q185.4 212.9 185.4 217.8L185.4 217.8Q185.4 222.8 187.4 225.6Q189.3 228.3 192.8 228.3ZM221.9 234.0Q220.7 235.2 218.6 235.2Q216.5 235.2 215.3 234.0Q214.0 232.7 214.0 230.5L214.0 230.5L214.0 205.0Q214.0 202.8 215.2 201.6Q216.4 200.4 218.4 200.4Q220.5 200.4 221.8 201.6Q223 202.9 223 205.0L223 205.0L223 206.9L223.2 206.9Q225.9 200.4 233.5 200.4L233.5 200.4Q239.1 200.4 242.1 203.7Q245.1 207.1 245.1 213.0L245.1 213.0L245.1 230.5Q245.1 232.7 243.9 234.0Q242.6 235.2 240.6 235.2Q238.5 235.2 237.3 234.0Q236 232.7 236 230.5L236 230.5L236 214.9Q236 211.6 234.4 209.8Q232.9 208.0 229.8 208.0Q226.8 208.0 225.0 210.0Q223.2 212.1 223.2 215.3L223.2 215.3L223.2 230.5Q223.2 232.7 221.9 234.0ZM266.2 235.3L266.2 235.3Q258.6 235.3 254.1 230.6Q249.7 225.9 249.7 217.8L249.7 217.8Q249.7 209.8 254.1 205.1Q258.6 200.3 266.1 200.3L266.1 200.3Q271.1 200.3 275 202.5Q278.9 204.7 280.3 208.3L280.3 208.3Q280.8 209.6 280.8 210.6L280.8 210.6Q280.8 212.2 279.6 213.2Q278.5 214.1 276.8 214.1L276.8 214.1Q275.5 214.1 274.6 213.6Q273.7 213.0 273 211.8L273 211.8Q270.6 207.5 266.4 207.5L266.4 207.5Q262.9 207.5 260.9 210.2Q258.9 212.9 258.9 217.8L258.9 217.8Q258.9 222.7 260.9 225.4Q262.9 228.1 266.3 228.1L266.3 228.1Q270.6 228.1 272.9 224.2L272.9 224.2Q273.8 222.7 274.8 222.1Q275.7 221.5 277.1 221.5L277.1 221.5Q278.7 221.5 279.8 222.5Q280.9 223.5 280.9 225.1L280.9 225.1Q280.9 226.2 280.3 227.5L280.3 227.5Q278.8 231.0 274.9 233.1Q271.0 235.3 266.2 235.3ZM301.2 235.3L301.2 235.3Q293.3 235.3 289.0 230.7Q284.6 226.1 284.6 218.0L284.6 218.0Q284.6 209.9 288.9 205.1Q293.3 200.3 300.8 200.3L300.8 200.3Q307.8 200.3 312.2 204.7Q316.6 209.1 316.6 215.9L316.6 215.9Q316.6 217.8 315.6 218.9Q314.6 219.9 312.7 219.9L312.7 219.9L293.5 219.9L293.5 220.3Q293.5 224.0 295.6 226.3Q297.7 228.5 301.2 228.5L301.2 228.5Q303.7 228.5 305.5 227.6Q307.3 226.7 309.2 224.5L309.2 224.5Q310.5 223.1 312.1 223.1L312.1 223.1Q313.7 223.1 314.7 224.1Q315.7 225.0 315.7 226.5L315.7 226.5Q315.7 227.6 315.1 228.7L315.1 228.7Q313.4 231.8 309.7 233.5Q306.0 235.3 301.2 235.3ZM293.6 214.3L293.6 214.3L307.8 214.3Q307.7 211.0 305.8 209.1Q303.8 207.1 300.8 207.1Q297.8 207.1 295.9 209.1Q293.9 211.1 293.6 214.3ZM329.2 245.3Q327.9 246.5 325.9 246.5Q323.8 246.5 322.6 245.3Q321.3 244.0 321.3 241.7L321.3 241.7L321.3 205.1Q321.3 202.8 322.5 201.6Q323.8 200.4 325.8 200.4Q327.8 200.4 329.1 201.6Q330.3 202.8 330.3 205.1L330.3 205.1L330.3 206.9L330.5 206.9Q331.9 203.9 334.6 202.2Q337.3 200.5 340.9 200.5L340.9 200.5Q347.3 200.5 350.9 205.1Q354.6 209.7 354.6 217.8L354.6 217.8Q354.6 225.9 351.0 230.5Q347.3 235.1 341.0 235.1L341.0 235.1Q337.4 235.1 334.7 233.4Q332.0 231.8 330.6 228.9L330.6 228.9L330.4 228.9L330.4 241.7Q330.4 244.0 329.2 245.3ZM337.8 227.7L337.8 227.7Q341.2 227.7 343.2 225.1Q345.3 222.4 345.3 217.8Q345.3 213.2 343.2 210.5Q341.2 207.8 337.8 207.8L337.8 207.8Q334.5 207.8 332.4 210.6Q330.4 213.3 330.4 217.8L330.4 217.8Q330.4 222.3 332.4 225.0Q334.4 227.7 337.8 227.7ZM361.7 226.0L361.7 226.0L361.7 207.9L360.0 207.9Q358.3 207.9 357.4 207.0Q356.4 206.1 356.4 204.5Q356.4 202.9 357.4 202.0Q358.3 201.1 360.0 201.1L360.0 201.1L361.7 201.1L361.7 197.3Q361.7 195.1 362.9 193.8Q364.2 192.6 366.3 192.6Q368.4 192.6 369.6 193.8Q370.8 195.1 370.8 197.3L370.8 197.3L370.8 201.1L374.1 201.1Q375.7 201.1 376.6 202.0Q377.6 202.9 377.6 204.5Q377.6 206.1 376.6 207.0Q375.7 207.9 374.1 207.9L374.1 207.9L370.8 207.9L370.8 224.0Q370.8 225.7 371.5 226.6Q372.2 227.4 373.6 227.5L373.6 227.5L374.2 227.6Q376.0 227.7 376.8 228.5Q377.7 229.3 377.7 230.9L377.7 230.9Q377.7 232.8 375.9 233.9Q374.2 234.9 371.2 234.9L371.2 234.9L370.9 234.9Q361.7 234.9 361.7 226.0ZM393.9 235.2L393.9 235.2Q388.4 235.2 385.2 231.8Q381.9 228.5 381.9 222.6L381.9 222.6L381.9 205.1Q381.9 202.9 383.1 201.6Q384.4 200.4 386.4 200.4Q388.5 200.4 389.8 201.6Q391 202.9 391 205.1L391 205.1L391 220.7Q391 224.1 392.6 225.8Q394.2 227.6 397.3 227.6Q400.3 227.6 402.1 225.6Q403.8 223.6 403.8 220.2L403.8 220.2L403.8 205.1Q403.8 202.9 405.1 201.6Q406.3 200.4 408.4 200.4Q410.5 200.4 411.7 201.6Q413.0 202.9 413.0 205.1L413.0 205.1L413.0 230.6Q413.0 232.8 411.8 234.0Q410.6 235.2 408.6 235.2Q406.5 235.2 405.3 234.0Q404.2 232.8 404.2 230.6L404.2 230.6L404.2 228.5L404.0 228.5Q401.3 235.2 393.9 235.2ZM428.8 235.1L428.8 235.1Q424.0 235.1 420.8 232.2Q417.6 229.4 417.6 224.9L417.6 224.9Q417.6 220.4 421.0 217.8Q424.3 215.2 430.7 214.8L430.7 214.8L439.1 214.3L439.1 212.1Q439.1 209.8 437.6 208.5Q436.1 207.1 433.5 207.1L433.5 207.1Q431.4 207.1 429.9 207.9Q428.5 208.7 427.0 210.7L427.0 210.7Q425.5 212.4 423.3 212.4L423.3 212.4Q421.7 212.4 420.6 211.4Q419.5 210.4 419.5 208.9L419.5 208.9Q419.5 207.8 420 206.8L420 206.8Q421.2 203.8 424.9 202.1Q428.7 200.3 433.9 200.3L433.9 200.3Q440.3 200.3 444.2 203.4Q448.1 206.5 448.1 211.5L448.1 211.5L448.1 230.6Q448.1 232.8 446.8 234.0Q445.6 235.2 443.6 235.2L443.6 235.2Q441.7 235.2 440.5 234.2Q439.4 233.1 439.3 231.1L439.3 231.1L439.3 229.4L439.1 229.4Q437.7 232.1 434.9 233.6Q432.0 235.1 428.8 235.1ZM431.8 228.5L431.8 228.5Q434.8 228.5 437.0 226.7Q439.1 225.0 439.1 222.3L439.1 222.3L439.1 219.8L432.0 220.3Q429.5 220.5 428.1 221.6Q426.7 222.6 426.7 224.4L426.7 224.4Q426.7 226.3 428.1 227.4Q429.5 228.5 431.8 228.5ZM462.0 234.0Q460.8 235.2 458.7 235.2Q456.7 235.2 455.4 234.0Q454.2 232.7 454.2 230.5L454.2 230.5L454.2 193.6Q454.2 191.3 455.4 190.0Q456.7 188.8 458.7 188.8Q460.8 188.8 462.0 190.0Q463.3 191.3 463.3 193.6L463.3 193.6L463.3 230.5Q463.3 232.7 462.0 234.0Z M491.1 233.8Q489.8 235.1 487.6 235.1Q485.4 235.1 484.1 233.8Q482.9 232.6 482.9 230.2L482.9 230.2L482.9 194.4Q482.9 192.1 484.1 190.8Q485.4 189.5 487.6 189.5L487.6 189.5L501.2 189.5Q508.2 189.5 512.5 193.7Q516.8 198.0 516.8 204.9L516.8 204.9Q516.8 211.8 512.4 216.1Q507.9 220.3 500.8 220.3L500.8 220.3L492.3 220.3L492.3 230.2Q492.3 232.6 491.1 233.8ZM492.3 196.9L492.3 213.0L498.7 213.0Q502.8 213.0 505 210.9Q507.3 208.8 507.3 204.9Q507.3 201.1 505.0 199.0Q502.8 196.9 498.7 196.9L498.7 196.9L492.3 196.9ZM526.2 235.2L526.2 235.2Q524.1 235.2 522.9 234.0Q521.6 232.7 521.6 230.5L521.6 230.5L521.6 205.0Q521.6 202.8 522.8 201.6Q524.0 200.4 526.0 200.4L526.0 200.4Q528.0 200.4 529.2 201.6Q530.3 202.8 530.3 205.0L530.3 205.0L530.3 207.1L530.5 207.1Q531.2 204.1 533.1 202.3Q535.0 200.5 537.5 200.5L537.5 200.5Q539.3 200.5 540.3 201.4L540.3 201.4Q541.7 202.4 541.7 204.7L541.7 204.7Q541.7 206.9 540.3 208.0L540.3 208.0Q539 209.2 536.4 209.2L536.4 209.2Q533.4 209.2 532.1 210.8Q530.8 212.5 530.8 215.6L530.8 215.6L530.8 230.5Q530.8 232.7 529.5 234.0Q528.3 235.2 526.2 235.2ZM553.1 195.5Q551.7 196.9 549.6 196.9Q547.6 196.9 546.2 195.5Q544.8 194.1 544.8 192.2L544.8 192.2Q544.8 190.2 546.2 188.8Q547.6 187.5 549.6 187.5Q551.7 187.5 553.1 188.8Q554.5 190.2 554.5 192.2L554.5 192.2Q554.5 194.1 553.1 195.5ZM553.0 233.9Q551.8 235.2 549.6 235.2Q547.5 235.2 546.3 233.9Q545.1 232.7 545.1 230.5L545.1 230.5L545.1 205.1Q545.1 202.9 546.3 201.6Q547.5 200.4 549.6 200.4Q551.8 200.4 553.0 201.6Q554.2 202.9 554.2 205.1L554.2 205.1L554.2 230.5Q554.2 232.7 553.0 233.9ZM564.8 235.2L564.8 235.2Q562.7 235.2 561.5 234.0Q560.3 232.7 560.3 230.5L560.3 230.5L560.3 205.0Q560.3 202.8 561.5 201.6Q562.7 200.4 564.7 200.4Q566.7 200.4 567.9 201.6Q569.1 202.8 569.1 205.0L569.1 205.0L569.1 207.1L569.3 207.1Q570.3 204.1 572.9 202.2Q575.4 200.4 578.8 200.4L578.8 200.4Q582.4 200.4 584.9 202.2Q587.3 204.0 588.2 207.3L588.2 207.3L588.3 207.3Q589.5 204.1 592.3 202.3Q595.1 200.4 598.8 200.4L598.8 200.4Q603.7 200.4 606.7 203.5Q609.7 206.6 609.7 211.7L609.7 211.7L609.7 230.5Q609.7 232.7 608.5 234.0Q607.2 235.2 605.1 235.2L605.1 235.2Q603.1 235.2 601.8 234.0Q600.6 232.7 600.6 230.5L600.6 230.5L600.6 214.0Q600.6 211.1 599.2 209.5Q597.8 208.0 595.1 208.0L595.1 208.0Q592.5 208.0 591.0 209.7Q589.4 211.4 589.4 214.2L589.4 214.2L589.4 230.5Q589.4 232.7 588.2 234.0Q587.0 235.2 585.0 235.2L585.0 235.2Q582.9 235.2 581.8 234.0Q580.6 232.7 580.6 230.5L580.6 230.5L580.6 213.7Q580.6 211.0 579.2 209.5Q577.7 208.0 575.2 208.0L575.2 208.0Q572.6 208.0 571.0 209.7Q569.4 211.5 569.4 214.3L569.4 214.3L569.4 230.5Q569.4 232.7 568.1 234.0Q566.9 235.2 564.8 235.2ZM623.7 195.5Q622.3 196.9 620.2 196.9Q618.2 196.9 616.8 195.5Q615.3 194.1 615.3 192.2L615.3 192.2Q615.3 190.2 616.8 188.8Q618.2 187.5 620.2 187.5Q622.3 187.5 623.7 188.8Q625.1 190.2 625.1 192.2L625.1 192.2Q625.1 194.1 623.7 195.5ZM623.6 233.9Q622.3 235.2 620.2 235.2Q618.1 235.2 616.9 233.9Q615.7 232.7 615.7 230.5L615.7 230.5L615.7 205.1Q615.7 202.9 616.9 201.6Q618.1 200.4 620.2 200.4Q622.3 200.4 623.6 201.6Q624.8 202.9 624.8 205.1L624.8 205.1L624.8 230.5Q624.8 232.7 623.6 233.9ZM633.3 226.0L633.3 226.0L633.3 207.9L631.5 207.9Q629.9 207.9 629.0 207.0Q628 206.1 628 204.5Q628 202.9 629.0 202.0Q629.9 201.1 631.5 201.1L631.5 201.1L633.3 201.1L633.3 197.3Q633.3 195.1 634.5 193.8Q635.7 192.6 637.8 192.6Q640.0 192.6 641.2 193.8Q642.4 195.1 642.4 197.3L642.4 197.3L642.4 201.1L645.6 201.1Q647.3 201.1 648.2 202.0Q649.1 202.9 649.1 204.5Q649.1 206.1 648.2 207.0Q647.3 207.9 645.6 207.9L645.6 207.9L642.4 207.9L642.4 224.0Q642.4 225.7 643.1 226.6Q643.7 227.4 645.2 227.5L645.2 227.5L645.8 227.6Q647.5 227.7 648.4 228.5Q649.3 229.3 649.3 230.9L649.3 230.9Q649.3 232.8 647.5 233.9Q645.8 234.9 642.8 234.9L642.8 234.9L642.5 234.9Q633.3 234.9 633.3 226.0ZM661.8 195.5Q660.4 196.9 658.3 196.9Q656.3 196.9 654.8 195.5Q653.4 194.1 653.4 192.2L653.4 192.2Q653.4 190.2 654.8 188.8Q656.3 187.5 658.3 187.5Q660.4 187.5 661.8 188.8Q663.2 190.2 663.2 192.2L663.2 192.2Q663.2 194.1 661.8 195.5ZM661.7 233.9Q660.4 235.2 658.3 235.2Q656.2 235.2 655.0 233.9Q653.8 232.7 653.8 230.5L653.8 230.5L653.8 205.1Q653.8 202.9 655.0 201.6Q656.2 200.4 658.3 200.4Q660.4 200.4 661.7 201.6Q662.9 202.9 662.9 205.1L662.9 205.1L662.9 230.5Q662.9 232.7 661.7 233.9ZM683 235.2L683 235.2Q680.4 235.2 678.9 234.1Q677.3 233.0 676.4 230.6L676.4 230.6L667.7 207.2Q667.2 205.7 667.2 204.5L667.2 204.5Q667.2 202.6 668.5 201.5Q669.8 200.4 671.8 200.4L671.8 200.4Q675.1 200.4 676.1 204.0L676.1 204.0L682.9 226.5L683.1 226.5L689.9 203.9Q690.8 200.4 694.2 200.4L694.2 200.4Q696.1 200.4 697.3 201.5Q698.6 202.7 698.6 204.4L698.6 204.4Q698.6 205.6 698.1 207.0L698.1 207.0L689.4 230.6Q688.5 233.0 687.0 234.1Q685.5 235.2 683 235.2ZM718.1 235.3L718.1 235.3Q710.3 235.3 705.9 230.7Q701.5 226.1 701.5 218.0L701.5 218.0Q701.5 209.9 705.9 205.1Q710.3 200.3 717.7 200.3L717.7 200.3Q724.8 200.3 729.2 204.7Q733.6 209.1 733.6 215.9L733.6 215.9Q733.6 217.8 732.5 218.9Q731.5 219.9 729.6 219.9L729.6 219.9L710.5 219.9L710.5 220.3Q710.5 224.0 712.5 226.3Q714.6 228.5 718.1 228.5L718.1 228.5Q720.6 228.5 722.4 227.6Q724.3 226.7 726.1 224.5L726.1 224.5Q727.4 223.1 729.1 223.1L729.1 223.1Q730.6 223.1 731.6 224.1Q732.6 225.0 732.6 226.5L732.6 226.5Q732.6 227.6 732 228.7L732 228.7Q730.3 231.8 726.7 233.5Q723.0 235.3 718.1 235.3ZM710.6 214.3L710.6 214.3L724.8 214.3Q724.7 211.0 722.7 209.1Q720.8 207.1 717.8 207.1Q714.8 207.1 712.8 209.1Q710.8 211.1 710.6 214.3Z M93.0 308.1L80.5 308.1Q78.3 308.1 77 306.9Q75.8 305.6 75.8 303.2L75.8 303.2L75.8 268.0Q75.8 265.6 77 264.4Q78.3 263.1 80.5 263.1L80.5 263.1L93.0 263.1Q103.2 263.1 108.8 268.9Q114.5 274.7 114.5 285.4L114.5 285.4Q114.5 296.1 108.8 302.1Q103.1 308.1 93.0 308.1L93.0 308.1ZM85.2 270.8L85.2 300.3L91.8 300.3Q98.2 300.3 101.5 296.5Q104.8 292.7 104.8 285.5L104.8 285.5Q104.8 278.4 101.5 274.6Q98.1 270.8 91.8 270.8L91.8 270.8L85.2 270.8ZM135.2 308.9L135.2 308.9Q127.3 308.9 122.9 304.3Q118.5 299.7 118.5 291.6L118.5 291.6Q118.5 283.5 122.9 278.7Q127.3 273.9 134.7 273.9L134.7 273.9Q141.8 273.9 146.2 278.3Q150.6 282.6 150.6 289.5L150.6 289.5Q150.6 291.4 149.6 292.5Q148.5 293.5 146.6 293.5L146.6 293.5L127.5 293.5L127.5 293.9Q127.5 297.6 129.6 299.9Q131.7 302.1 135.1 302.1L135.1 302.1Q137.6 302.1 139.5 301.2Q141.3 300.3 143.1 298.1L143.1 298.1Q144.4 296.7 146.1 296.7L146.1 296.7Q147.6 296.7 148.6 297.6Q149.7 298.6 149.7 300.1L149.7 300.1Q149.7 301.1 149.0 302.3L149.0 302.3Q147.4 305.4 143.7 307.1Q140 308.9 135.2 308.9ZM127.6 287.9L127.6 287.9L141.8 287.9Q141.7 284.6 139.8 282.6Q137.8 280.7 134.8 280.7Q131.8 280.7 129.8 282.7Q127.8 284.7 127.6 287.9ZM170.6 308.9L170.6 308.9Q163.0 308.9 158.5 304.2Q154.1 299.5 154.1 291.4L154.1 291.4Q154.1 283.4 158.5 278.6Q162.9 273.9 170.5 273.9L170.5 273.9Q175.5 273.9 179.4 276.1Q183.3 278.3 184.6 281.9L184.6 281.9Q185.1 283.2 185.1 284.2L185.1 284.2Q185.1 285.8 184.0 286.8Q182.9 287.7 181.2 287.7L181.2 287.7Q179.9 287.7 179.0 287.2Q178.1 286.6 177.4 285.4L177.4 285.4Q175.0 281.1 170.8 281.1L170.8 281.1Q167.3 281.1 165.3 283.8Q163.3 286.5 163.3 291.4L163.3 291.4Q163.3 296.3 165.3 299.0Q167.3 301.7 170.7 301.7L170.7 301.7Q174.9 301.7 177.3 297.8L177.3 297.8Q178.2 296.3 179.1 295.7Q180.0 295.1 181.4 295.1L181.4 295.1Q183.1 295.1 184.2 296.1Q185.3 297.1 185.3 298.7L185.3 298.7Q185.3 299.8 184.7 301.1L184.7 301.1Q183.2 304.6 179.3 306.7Q175.3 308.9 170.6 308.9ZM217.7 304.2Q213.2 308.9 205.5 308.9Q197.9 308.9 193.4 304.2Q188.9 299.6 188.9 291.4L188.9 291.4Q188.9 283.3 193.5 278.6Q198.0 273.9 205.5 273.9L205.5 273.9Q213.1 273.9 217.6 278.6Q222.1 283.3 222.1 291.4L222.1 291.4Q222.1 299.6 217.7 304.2ZM205.5 301.9L205.5 301.9Q208.9 301.9 210.9 299.1Q212.8 296.4 212.8 291.4L212.8 291.4Q212.8 286.5 210.9 283.7Q208.9 280.9 205.5 280.9Q202.2 280.9 200.2 283.7Q198.2 286.5 198.2 291.4L198.2 291.4Q198.2 296.4 200.2 299.1Q202.1 301.9 205.5 301.9ZM231.4 308.8L231.4 308.8Q229.3 308.8 228.0 307.6Q226.8 306.3 226.8 304.1L226.8 304.1L226.8 278.6Q226.8 276.4 228.0 275.2Q229.2 274.0 231.2 274.0Q233.2 274.0 234.4 275.2Q235.6 276.4 235.6 278.6L235.6 278.6L235.6 280.7L235.8 280.7Q236.9 277.6 239.4 275.8Q242 274.0 245.4 274.0L245.4 274.0Q249 274.0 251.4 275.8Q253.9 277.6 254.7 280.9L254.7 280.9L254.9 280.9Q256.0 277.7 258.8 275.9Q261.6 274.0 265.3 274.0L265.3 274.0Q270.3 274.0 273.3 277.1Q276.3 280.2 276.3 285.3L276.3 285.3L276.3 304.1Q276.3 306.3 275.0 307.6Q273.8 308.8 271.7 308.8L271.7 308.8Q269.6 308.8 268.4 307.6Q267.2 306.3 267.2 304.1L267.2 304.1L267.2 287.6Q267.2 284.6 265.8 283.1Q264.3 281.6 261.7 281.6L261.7 281.6Q259.1 281.6 257.5 283.3Q255.9 285.0 255.9 287.8L255.9 287.8L255.9 304.1Q255.9 306.3 254.8 307.6Q253.6 308.8 251.5 308.8L251.5 308.8Q249.5 308.8 248.3 307.6Q247.2 306.3 247.2 304.1L247.2 304.1L247.2 287.3Q247.2 284.6 245.7 283.1Q244.3 281.6 241.8 281.6L241.8 281.6Q239.2 281.6 237.5 283.3Q235.9 285.1 235.9 287.9L235.9 287.9L235.9 304.1Q235.9 306.3 234.7 307.6Q233.4 308.8 231.4 308.8ZM289.9 318.9Q288.7 320.1 286.6 320.1Q284.6 320.1 283.3 318.9Q282.1 317.6 282.1 315.3L282.1 315.3L282.1 278.6Q282.1 276.4 283.3 275.2Q284.5 274.0 286.6 274.0Q288.6 274.0 289.8 275.2Q291.1 276.4 291.1 278.7L291.1 278.7L291.1 280.5L291.3 280.5Q292.6 277.5 295.3 275.8Q298.0 274.1 301.6 274.1L301.6 274.1Q308 274.1 311.7 278.7Q315.3 283.3 315.3 291.4L315.3 291.4Q315.3 299.5 311.7 304.1Q308.1 308.7 301.8 308.7L301.8 308.7Q298.2 308.7 295.5 307.0Q292.7 305.4 291.4 302.5L291.4 302.5L291.2 302.5L291.2 315.3Q291.2 317.6 289.9 318.9ZM298.6 301.3L298.6 301.3Q302.0 301.3 304.0 298.6Q306 296.0 306 291.4Q306 286.8 304.0 284.1Q302.0 281.4 298.6 281.4L298.6 281.4Q295.2 281.4 293.2 284.2Q291.2 286.9 291.2 291.4L291.2 291.4Q291.2 295.9 293.2 298.6Q295.2 301.3 298.6 301.3ZM347.5 304.2Q343.1 308.9 335.4 308.9Q327.8 308.9 323.3 304.2Q318.8 299.6 318.8 291.4L318.8 291.4Q318.8 283.3 323.3 278.6Q327.8 273.9 335.4 273.9L335.4 273.9Q343 273.9 347.5 278.6Q352 283.3 352 291.4L352 291.4Q352 299.6 347.5 304.2ZM335.4 301.9L335.4 301.9Q338.8 301.9 340.8 299.1Q342.7 296.4 342.7 291.4L342.7 291.4Q342.7 286.5 340.8 283.7Q338.8 280.9 335.4 280.9Q332.0 280.9 330.0 283.7Q328.1 286.5 328.1 291.4L328.1 291.4Q328.1 296.4 330.0 299.1Q332 301.9 335.4 301.9ZM370.3 308.9L370.3 308.9Q364.7 308.9 360.9 307.0Q357.2 305.2 355.9 302.2L355.9 302.2Q355.6 301.2 355.6 300.5L355.6 300.5Q355.6 298.9 356.6 298.0Q357.7 297.0 359.3 297.0L359.3 297.0Q361.4 297.0 363.3 299.1L363.3 299.1Q364.6 300.8 366.3 301.6Q368 302.5 370.6 302.5L370.6 302.5Q373.1 302.5 374.5 301.5Q376.0 300.5 376.0 298.9L376.0 298.9Q376.0 297.5 375.0 296.7Q374.0 295.9 371.6 295.4L371.6 295.4L366.0 294.2Q361.1 293.1 358.6 290.7Q356.1 288.2 356.1 284.5L356.1 284.5Q356.1 279.6 360.0 276.8Q363.8 273.9 370.3 273.9L370.3 273.9Q375.4 273.9 379.0 275.9Q382.6 277.9 383.4 280.9L383.4 280.9Q383.7 281.7 383.7 282.2L383.7 282.2Q383.7 283.6 382.8 284.5Q381.9 285.3 380.2 285.3L380.2 285.3Q378.0 285.3 376.8 283.9L376.8 283.9Q375.5 282.2 374.0 281.3Q372.4 280.3 370.2 280.3L370.2 280.3Q367.8 280.3 366.4 281.3Q364.9 282.3 364.9 284.0L364.9 284.0Q364.9 285.3 366 286.2Q367.1 287.1 369.6 287.6L369.6 287.6L375.1 288.8Q380.4 289.9 382.8 292.0Q385.2 294.1 385.2 297.9L385.2 297.9Q385.2 302.9 381.1 305.9Q377 308.9 370.3 308.9ZM397.8 269.1Q396.4 270.5 394.4 270.5Q392.3 270.5 390.9 269.1Q389.5 267.7 389.5 265.8L389.5 265.8Q389.5 263.8 390.9 262.4Q392.3 261.1 394.4 261.1Q396.4 261.1 397.8 262.4Q399.3 263.8 399.3 265.8L399.3 265.8Q399.3 267.7 397.8 269.1ZM397.7 307.5Q396.5 308.8 394.4 308.8Q392.3 308.8 391.0 307.5Q389.8 306.3 389.8 304.1L389.8 304.1L389.8 278.7Q389.8 276.5 391.0 275.2Q392.3 274.0 394.4 274.0Q396.5 274.0 397.7 275.2Q398.9 276.5 398.9 278.7L398.9 278.7L398.9 304.1Q398.9 306.3 397.7 307.5ZM407.4 299.6L407.4 299.6L407.4 281.5L405.7 281.5Q404.1 281.5 403.1 280.6Q402.2 279.7 402.2 278.1Q402.2 276.5 403.1 275.6Q404.1 274.6 405.7 274.6L405.7 274.6L407.4 274.6L407.4 270.9Q407.4 268.7 408.7 267.4Q409.9 266.2 412 266.2Q414.1 266.2 415.3 267.4Q416.6 268.7 416.6 270.9L416.6 270.9L416.6 274.6L419.8 274.6Q421.4 274.6 422.3 275.6Q423.3 276.5 423.3 278.1Q423.3 279.6 422.3 280.6Q421.4 281.5 419.8 281.5L419.8 281.5L416.6 281.5L416.6 297.6Q416.6 299.3 417.2 300.1Q417.9 301.0 419.3 301.1L419.3 301.1L419.9 301.1Q421.7 301.3 422.5 302.1Q423.4 302.9 423.4 304.5L423.4 304.5Q423.4 306.4 421.7 307.5Q419.9 308.5 416.9 308.5L416.9 308.5L416.6 308.5Q407.4 308.5 407.4 299.6ZM435.9 269.1Q434.5 270.5 432.5 270.5Q430.4 270.5 429 269.1Q427.6 267.7 427.6 265.8L427.6 265.8Q427.6 263.8 429 262.4Q430.4 261.1 432.5 261.1Q434.5 261.1 435.9 262.4Q437.3 263.8 437.3 265.8L437.3 265.8Q437.3 267.7 435.9 269.1ZM435.8 307.5Q434.6 308.8 432.5 308.8Q430.3 308.8 429.1 307.5Q427.9 306.3 427.9 304.1L427.9 304.1L427.9 278.7Q427.9 276.5 429.1 275.2Q430.3 274.0 432.5 274.0Q434.6 274.0 435.8 275.2Q437.0 276.5 437.0 278.7L437.0 278.7L437.0 304.1Q437.0 306.3 435.8 307.5ZM470.6 304.2Q466.1 308.9 458.5 308.9Q450.8 308.9 446.3 304.2Q441.9 299.6 441.9 291.4L441.9 291.4Q441.9 283.3 446.4 278.6Q450.9 273.9 458.5 273.9L458.5 273.9Q466.1 273.9 470.6 278.6Q475.1 283.3 475.1 291.4L475.1 291.4Q475.1 299.6 470.6 304.2ZM458.5 301.9L458.5 301.9Q461.8 301.9 463.8 299.1Q465.8 296.4 465.8 291.4L465.8 291.4Q465.8 286.5 463.8 283.7Q461.8 280.9 458.5 280.9Q455.1 280.9 453.1 283.7Q451.1 286.5 451.1 291.4L451.1 291.4Q451.1 296.4 453.1 299.1Q455.1 301.9 458.5 301.9ZM487.6 307.6Q486.4 308.8 484.3 308.8Q482.3 308.8 481 307.6Q479.8 306.3 479.8 304.1L479.8 304.1L479.8 278.6Q479.8 276.4 480.9 275.2Q482.1 274.0 484.2 274.0Q486.2 274.0 487.5 275.2Q488.7 276.5 488.7 278.6L488.7 278.6L488.7 280.5L488.9 280.5Q491.7 274.0 499.2 274.0L499.2 274.0Q504.8 274.0 507.8 277.3Q510.8 280.6 510.8 286.6L510.8 286.6L510.8 304.1Q510.8 306.3 509.6 307.6Q508.3 308.8 506.3 308.8Q504.2 308.8 503.0 307.6Q501.7 306.3 501.7 304.1L501.7 304.1L501.7 288.5Q501.7 285.1 500.2 283.4Q498.6 281.6 495.6 281.6Q492.5 281.6 490.7 283.6Q488.9 285.6 488.9 288.9L488.9 288.9L488.9 304.1Q488.9 306.3 487.6 307.6Z M556.8 304.2Q552.3 308.9 544.7 308.9Q537 308.9 532.5 304.2Q528.1 299.6 528.1 291.4L528.1 291.4Q528.1 283.3 532.6 278.6Q537.1 273.9 544.7 273.9L544.7 273.9Q552.3 273.9 556.8 278.6Q561.3 283.3 561.3 291.4L561.3 291.4Q561.3 299.6 556.8 304.2ZM544.7 301.9L544.7 301.9Q548.0 301.9 550 299.1Q552.0 296.4 552.0 291.4L552.0 291.4Q552.0 286.5 550 283.7Q548.0 280.9 544.7 280.9Q541.3 280.9 539.3 283.7Q537.3 286.5 537.3 291.4L537.3 291.4Q537.3 296.4 539.3 299.1Q541.3 301.9 544.7 301.9ZM576.3 307.6Q575.0 308.8 572.9 308.8Q570.8 308.8 569.6 307.6Q568.4 306.4 568.4 304.1L568.4 304.1L568.4 281.5L566.6 281.5Q565.2 281.5 564.2 280.6Q563.3 279.7 563.3 278.1Q563.3 276.6 564.2 275.7Q565.2 274.8 566.6 274.8L566.6 274.8L568.4 274.8L568.4 272.3Q568.4 267.4 570.8 265.0Q573.1 262.7 577.9 262.6L577.9 262.6Q581.4 262.6 583.1 263.6Q584.8 264.6 584.8 266.3L584.8 266.3Q584.8 268.2 583.0 268.7L583.0 268.7Q582.1 269.0 581.2 269.0L581.2 269.0Q579.1 269.1 578.2 269.9Q577.3 270.8 577.3 272.7L577.3 272.7L577.3 274.8L581.1 274.8Q582.6 274.8 583.5 275.7Q584.5 276.6 584.5 278.1Q584.5 279.7 583.5 280.6Q582.6 281.5 581.1 281.5L581.1 281.5L577.5 281.5L577.5 304.1Q577.5 306.4 576.3 307.6Z M603.8 299.6L603.8 299.6L603.8 281.5L602.1 281.5Q600.4 281.5 599.5 280.6Q598.5 279.7 598.5 278.1Q598.5 276.5 599.5 275.6Q600.4 274.6 602.1 274.6L602.1 274.6L603.8 274.6L603.8 270.9Q603.8 268.7 605.0 267.4Q606.3 266.2 608.4 266.2Q610.5 266.2 611.7 267.4Q612.9 268.7 612.9 270.9L612.9 270.9L612.9 274.6L616.2 274.6Q617.8 274.6 618.7 275.6Q619.7 276.5 619.7 278.1Q619.7 279.6 618.7 280.6Q617.8 281.5 616.2 281.5L616.2 281.5L612.9 281.5L612.9 297.6Q612.9 299.3 613.6 300.1Q614.3 301.0 615.7 301.1L615.7 301.1L616.3 301.1Q618.1 301.3 618.9 302.1Q619.8 302.9 619.8 304.5L619.8 304.5Q619.8 306.4 618.0 307.5Q616.3 308.5 613.3 308.5L613.3 308.5L613 308.5Q603.8 308.5 603.8 299.6ZM632.2 307.6Q631.0 308.8 628.9 308.8Q626.8 308.8 625.6 307.6Q624.3 306.3 624.3 304.1L624.3 304.1L624.3 267.1Q624.3 264.9 625.5 263.6Q626.7 262.4 628.8 262.4L628.8 262.4Q630.9 262.4 632.1 263.6Q633.3 264.8 633.3 267.1L633.3 267.1L633.3 280.6L633.5 280.6Q634.8 277.4 637.5 275.7Q640.3 274.0 644.0 274.0L644.0 274.0Q649.6 274.0 652.6 277.4Q655.7 280.7 655.7 286.6L655.7 286.6L655.7 304.1Q655.7 306.3 654.5 307.6Q653.2 308.8 651.2 308.8Q649.1 308.8 647.8 307.6Q646.6 306.3 646.6 304.1L646.6 304.1L646.6 288.5Q646.6 285.2 645.0 283.4Q643.4 281.6 640.3 281.6L640.3 281.6Q637.1 281.6 635.3 283.6Q633.5 285.7 633.5 289.0L633.5 289.0L633.5 304.1Q633.5 306.3 632.2 307.6ZM676.9 308.9L676.9 308.9Q669.1 308.9 664.7 304.3Q660.3 299.7 660.3 291.6L660.3 291.6Q660.3 283.5 664.7 278.7Q669.1 273.9 676.5 273.9L676.5 273.9Q683.6 273.9 688.0 278.3Q692.4 282.6 692.4 289.5L692.4 289.5Q692.4 291.4 691.3 292.5Q690.3 293.5 688.4 293.5L688.4 293.5L669.3 293.5L669.3 293.9Q669.3 297.6 671.4 299.9Q673.4 302.1 676.9 302.1L676.9 302.1Q679.4 302.1 681.2 301.2Q683.1 300.3 684.9 298.1L684.9 298.1Q686.2 296.7 687.9 296.7L687.9 296.7Q689.4 296.7 690.4 297.6Q691.4 298.6 691.4 300.1L691.4 300.1Q691.4 301.1 690.8 302.3L690.8 302.3Q689.2 305.4 685.5 307.1Q681.8 308.9 676.9 308.9ZM669.4 287.9L669.4 287.9L683.6 287.9Q683.5 284.6 681.5 282.6Q679.6 280.7 676.6 280.7Q673.6 280.7 671.6 282.7Q669.6 284.7 669.4 287.9Z M727 308.9L727 308.9Q720.3 308.9 715.8 306.5Q711.3 304.1 709.9 300.2L709.9 300.2Q709.4 298.9 709.4 297.7L709.4 297.7Q709.4 295.8 710.6 294.7Q711.7 293.6 713.6 293.6L713.6 293.6Q715.0 293.6 716.0 294.2Q717.1 294.8 717.9 296.3L717.9 296.3Q719.0 298.8 721.4 300.1Q723.9 301.3 727.2 301.3L727.2 301.3Q731 301.3 733.4 299.7Q735.7 298.1 735.7 295.6L735.7 295.6Q735.7 293.3 733.9 292.0Q732.2 290.6 727.9 289.7L727.9 289.7L723.2 288.8Q709.8 286.1 709.8 276.0L709.8 276.0Q709.8 271.9 712.0 268.8Q714.2 265.6 718.1 264.0Q722 262.3 727.0 262.3L727.0 262.3Q733.2 262.3 737.6 264.7Q741.9 267.2 743.4 271.6L743.4 271.6Q743.8 272.6 743.8 273.7L743.8 273.7Q743.8 275.4 742.7 276.4Q741.6 277.5 739.8 277.5L739.8 277.5Q738.2 277.5 737.1 276.8Q736.1 276.2 735.3 274.7L735.3 274.7Q733.1 269.9 727.0 269.9L727.0 269.9Q723.5 269.9 721.3 271.4Q719.2 272.9 719.2 275.4L719.2 275.4Q719.2 277.5 721.0 278.8Q722.8 280.2 726.7 281.0L726.7 281.0L731.5 281.9Q738.6 283.4 741.9 286.4Q745.2 289.4 745.2 294.5L745.2 294.5Q745.2 301.1 740.3 305.0Q735.4 308.9 727 308.9ZM760.0 308.7L760.0 308.7Q755.2 308.7 752 305.8Q748.8 303.0 748.8 298.5L748.8 298.5Q748.8 294.0 752.2 291.4Q755.6 288.8 761.9 288.4L761.9 288.4L770.3 287.9L770.3 285.7Q770.3 283.4 768.8 282.1Q767.3 280.7 764.7 280.7L764.7 280.7Q762.6 280.7 761.2 281.5Q759.7 282.3 758.2 284.3L758.2 284.3Q756.7 286.0 754.6 286.0L754.6 286.0Q752.9 286.0 751.8 285.0Q750.8 284.0 750.8 282.5L750.8 282.5Q750.8 281.4 751.2 280.4L751.2 280.4Q752.4 277.4 756.1 275.7Q759.9 273.9 765.1 273.9L765.1 273.9Q771.5 273.9 775.4 277.0Q779.3 280.1 779.3 285.1L779.3 285.1L779.3 304.2Q779.3 306.4 778.1 307.6Q776.8 308.8 774.8 308.8L774.8 308.8Q772.9 308.8 771.8 307.8Q770.6 306.7 770.5 304.7L770.5 304.7L770.5 303.0L770.3 303.0Q768.9 305.6 766.1 307.2Q763.3 308.7 760.0 308.7ZM763.0 302.1L763.0 302.1Q766.1 302.1 768.2 300.3Q770.3 298.6 770.3 295.9L770.3 295.9L770.3 293.4L763.3 293.9Q760.7 294.1 759.3 295.1Q757.9 296.2 757.9 298.0L757.9 298.0Q757.9 299.9 759.3 301.0Q760.7 302.1 763.0 302.1ZM793.3 307.6Q792 308.8 789.9 308.8Q787.9 308.8 786.6 307.6Q785.4 306.3 785.4 304.1L785.4 304.1L785.4 267.1Q785.4 264.9 786.6 263.6Q787.9 262.4 789.9 262.4Q792 262.4 793.3 263.6Q794.5 264.9 794.5 267.1L794.5 267.1L794.5 304.1Q794.5 306.3 793.3 307.6ZM808.8 307.6Q807.5 308.8 805.4 308.8Q803.4 308.8 802.1 307.6Q800.9 306.3 800.9 304.1L800.9 304.1L800.9 267.1Q800.9 264.9 802.1 263.6Q803.4 262.4 805.4 262.4Q807.5 262.4 808.8 263.6Q810 264.9 810 267.1L810 267.1L810 304.1Q810 306.3 808.8 307.6ZM821.8 320.6L821.8 320.6Q818.8 320.6 817.3 319.4Q815.7 318.3 815.7 316.3L815.7 316.3Q815.7 314.9 816.6 314.1Q817.5 313.3 819.0 313.3L819.0 313.3Q819.3 313.3 819.8 313.3Q820.3 313.3 820.6 313.3L820.6 313.3Q823.6 313.3 825.0 310.3L825.0 310.3L825.5 309.1L814.8 280.9Q814.3 279.5 814.3 278.2L814.3 278.2Q814.3 276.4 815.6 275.2Q817.0 274.0 819 274.0L819 274.0Q820.8 274.0 821.8 274.8Q822.8 275.6 823.4 277.6L823.4 277.6L830.7 300.8L830.8 300.8L838.1 277.6Q838.7 275.7 839.7 274.8Q840.8 274.0 842.5 274.0L842.5 274.0Q844.5 274.0 845.7 275.1Q847.0 276.3 847.0 278.1L847.0 278.1Q847.0 279.4 846.5 280.8L846.5 280.8L836.2 308.7Q833.8 315.2 830.6 317.9Q827.3 320.6 821.8 320.6ZM868.6 293.8L855.6 293.8Q853.7 293.8 852.5 292.7Q851.3 291.6 851.3 289.8Q851.3 288.0 852.5 286.9Q853.7 285.8 855.6 285.8L855.6 285.8L868.6 285.8Q870.5 285.8 871.7 286.9Q872.9 288.0 872.9 289.8Q872.9 291.6 871.7 292.7Q870.5 293.8 868.6 293.8L868.6 293.8ZM883.0 308.7L883.0 308.7Q880.8 308.7 879.5 307.5Q878.2 306.3 878.2 304.3L878.2 304.3Q878.2 303.1 878.8 301.3L878.8 301.3L891.1 267.8Q892.1 265.0 893.8 263.7Q895.6 262.4 898.2 262.4L898.2 262.4Q901.0 262.4 902.7 263.7Q904.4 265.0 905.4 267.7L905.4 267.7L917.8 301.3Q918.4 303.0 918.4 304.3L918.4 304.3Q918.4 306.2 917.1 307.5Q915.8 308.7 913.7 308.7L913.7 308.7Q911.7 308.7 910.5 307.8Q909.4 306.8 908.8 304.6L908.8 304.6L906.4 297.5L890.1 297.5L887.8 304.5Q887.1 306.7 886.0 307.7Q884.8 308.7 883.0 308.7ZM898.0 271.7L892.2 290.1L904.2 290.1L898.3 271.7L898.0 271.7ZM931.2 307.6Q930.0 308.8 927.9 308.8Q925.8 308.8 924.6 307.6Q923.3 306.3 923.3 304.1L923.3 304.1L923.3 278.6Q923.3 276.4 924.5 275.2Q925.7 274.0 927.8 274.0Q929.8 274.0 931.1 275.2Q932.3 276.5 932.3 278.6L932.3 278.6L932.3 280.5L932.5 280.5Q935.3 274.0 942.8 274.0L942.8 274.0Q948.4 274.0 951.4 277.3Q954.4 280.6 954.4 286.6L954.4 286.6L954.4 304.1Q954.4 306.3 953.2 307.6Q951.9 308.8 949.9 308.8Q947.8 308.8 946.6 307.6Q945.3 306.3 945.3 304.1L945.3 304.1L945.3 288.5Q945.3 285.1 943.8 283.4Q942.2 281.6 939.2 281.6Q936.1 281.6 934.3 283.6Q932.5 285.6 932.5 288.9L932.5 288.9L932.5 304.1Q932.5 306.3 931.2 307.6ZM968.1 307.6Q966.8 308.8 964.8 308.8Q962.7 308.8 961.5 307.6Q960.2 306.3 960.2 304.1L960.2 304.1L960.2 278.6Q960.2 276.4 961.4 275.2Q962.6 274.0 964.6 274.0Q966.7 274.0 967.9 275.2Q969.2 276.5 969.2 278.6L969.2 278.6L969.2 280.5L969.4 280.5Q972.1 274.0 979.7 274.0L979.7 274.0Q985.3 274.0 988.3 277.3Q991.3 280.6 991.3 286.6L991.3 286.6L991.3 304.1Q991.3 306.3 990.1 307.6Q988.8 308.8 986.8 308.8Q984.7 308.8 983.4 307.6Q982.2 306.3 982.2 304.1L982.2 304.1L982.2 288.5Q982.2 285.1 980.6 283.4Q979.1 281.6 976.0 281.6Q973 281.6 971.2 283.6Q969.3 285.6 969.3 288.9L969.3 288.9L969.3 304.1Q969.3 306.3 968.1 307.6ZM1012.5 308.9L1012.5 308.9Q1004.7 308.9 1000.3 304.3Q995.9 299.7 995.9 291.6L995.9 291.6Q995.9 283.5 1000.3 278.7Q1004.6 273.9 1012.1 273.9L1012.1 273.9Q1019.2 273.9 1023.5 278.3Q1027.9 282.6 1027.9 289.5L1027.9 289.5Q1027.9 291.4 1026.9 292.5Q1025.9 293.5 1024.0 293.5L1024.0 293.5L1004.8 293.5L1004.8 293.9Q1004.8 297.6 1006.9 299.9Q1009 302.1 1012.5 302.1L1012.5 302.1Q1015.0 302.1 1016.8 301.2Q1018.6 300.3 1020.5 298.1L1020.5 298.1Q1021.8 296.7 1023.4 296.7L1023.4 296.7Q1025.0 296.7 1026.0 297.6Q1027 298.6 1027 300.1L1027 300.1Q1027 301.1 1026.4 302.3L1026.4 302.3Q1024.7 305.4 1021.0 307.1Q1017.3 308.9 1012.5 308.9ZM1004.9 287.9L1004.9 287.9L1019.2 287.9Q1019.0 284.6 1017.1 282.6Q1015.2 280.7 1012.2 280.7Q1009.2 280.7 1007.2 282.7Q1005.2 284.7 1004.9 287.9Z M94.7 381.0Q93.5 382.3 91.3 382.3Q89.0 382.3 87.8 381.0Q86.5 379.8 86.5 377.4L86.5 377.4L86.5 344.5L77.2 344.5Q75.3 344.5 74.1 343.4Q72.9 342.4 72.9 340.6Q72.9 338.8 74.1 337.7Q75.3 336.7 77.2 336.7L77.2 336.7L105.3 336.7Q107.3 336.7 108.4 337.7Q109.6 338.8 109.6 340.6Q109.6 342.4 108.4 343.4Q107.2 344.5 105.3 344.5L105.3 344.5L96.0 344.5L96.0 377.4Q96.0 379.8 94.7 381.0ZM128.9 382.5L128.9 382.5Q121.0 382.5 116.6 377.9Q112.3 373.3 112.3 365.2L112.3 365.2Q112.3 357.1 116.6 352.3Q121 347.5 128.4 347.5L128.4 347.5Q135.5 347.5 139.9 351.9Q144.3 356.3 144.3 363.1L144.3 363.1Q144.3 365.0 143.3 366.1Q142.3 367.1 140.3 367.1L140.3 367.1L121.2 367.1L121.2 367.5Q121.2 371.2 123.3 373.5Q125.4 375.7 128.8 375.7L128.8 375.7Q131.3 375.7 133.2 374.8Q135 373.9 136.8 371.7L136.8 371.7Q138.2 370.3 139.8 370.3L139.8 370.3Q141.3 370.3 142.4 371.3Q143.4 372.2 143.4 373.7L143.4 373.7Q143.4 374.8 142.8 375.9L142.8 375.9Q141.1 379 137.4 380.7Q133.7 382.5 128.9 382.5ZM121.3 361.5L121.3 361.5L135.5 361.5Q135.4 358.2 133.5 356.3Q131.5 354.3 128.5 354.3Q125.5 354.3 123.5 356.3Q121.6 358.3 121.3 361.5ZM162.7 382.5L162.7 382.5Q157.0 382.5 153.3 380.6Q149.5 378.8 148.3 375.8L148.3 375.8Q147.9 374.8 147.9 374.1L147.9 374.1Q147.9 372.5 149.0 371.6Q150 370.6 151.6 370.6L151.6 370.6Q153.7 370.6 155.6 372.7L155.6 372.7Q156.9 374.4 158.6 375.3Q160.3 376.1 162.9 376.1L162.9 376.1Q165.4 376.1 166.9 375.1Q168.3 374.1 168.3 372.5L168.3 372.5Q168.3 371.1 167.3 370.3Q166.3 369.5 163.9 369.0L163.9 369.0L158.3 367.8Q153.4 366.7 150.9 364.3Q148.4 361.8 148.4 358.1L148.4 358.1Q148.4 353.3 152.3 350.4Q156.1 347.5 162.6 347.5L162.6 347.5Q167.7 347.5 171.3 349.5Q174.9 351.5 175.8 354.5L175.8 354.5Q176.0 355.3 176.0 355.8L176.0 355.8Q176.0 357.3 175.1 358.1Q174.2 358.9 172.5 358.9L172.5 358.9Q170.3 358.9 169.2 357.5L169.2 357.5Q167.8 355.8 166.3 354.9Q164.8 353.9 162.5 353.9L162.5 353.9Q160.2 353.9 158.7 354.9Q157.2 355.9 157.2 357.6L157.2 357.6Q157.2 358.9 158.3 359.8Q159.4 360.7 161.9 361.2L161.9 361.2L167.4 362.4Q172.8 363.5 175.1 365.6Q177.5 367.8 177.5 371.5L177.5 371.5Q177.5 376.5 173.4 379.5Q169.3 382.5 162.7 382.5ZM184.4 373.2L184.4 373.2L184.4 355.1L182.7 355.1Q181.0 355.1 180.1 354.2Q179.1 353.3 179.1 351.7Q179.1 350.1 180.1 349.2Q181.0 348.3 182.7 348.3L182.7 348.3L184.4 348.3L184.4 344.5Q184.4 342.3 185.6 341.0Q186.8 339.8 189.0 339.8Q191.1 339.8 192.3 341.0Q193.5 342.3 193.5 344.5L193.5 344.5L193.5 348.3L196.8 348.3Q198.4 348.3 199.3 349.2Q200.3 350.1 200.3 351.7Q200.3 353.3 199.3 354.2Q198.4 355.1 196.8 355.1L196.8 355.1L193.5 355.1L193.5 371.2Q193.5 372.9 194.2 373.8Q194.8 374.6 196.3 374.7L196.3 374.7L196.9 374.8Q198.7 374.9 199.5 375.7Q200.4 376.5 200.4 378.1L200.4 378.1Q200.4 380.0 198.6 381.1Q196.9 382.1 193.9 382.1L193.9 382.1L193.6 382.1Q184.4 382.1 184.4 373.2Z " clip-path="url(#satori_cp-id-0)" mask="url(#satori_om-id-0)"/><defs><clipPath id="satori_bc-id-0-1" clip-path="url(#satori_cp-id-0)"><rect x="0" y="509" width="1200" height="121"/></clipPath></defs><mask id="satori_om-id-0-1"><rect x="0" y="510" width="1200" height="120" fill="#fff" mask="url(#satori_om-id-0)"/><path width="1200" height="121" fill="none" stroke="#000" stroke-width="2" d="M0,509 A0,0 0 0 1 0,509 h1200 A0,0 0 0 1 1200,509"/></mask><path width="1200" height="121" clip-path="url(#satori_bc-id-0-1)" fill="none" stroke="rgba(0,0,0,0.08)" stroke-width="2" d="M0,509 A0,0 0 0 1 0,509 h1200 A0,0 0 0 1 1200,509"/><mask id="satori_om-id-0-1-0"><rect x="48" y="538" width="228" height="64" fill="#fff" mask="url(#satori_om-id-0)"/></mask><mask id="satori_om-id-0-1-0-0"><rect x="48" y="538" width="72" height="64" fill="#fff" mask="url(#satori_om-id-0)"/></mask><clipPath id="satori_cp-id-0-1-0-0-0" clip-path="url(#satori_cp-id-0)"><rect x="48" y="538" width="72" height="64"/></clipPath><mask id="satori_om-id-0-1-0-0-0"><rect x="48" y="538" width="72" height="64" fill="#fff" mask="url(#satori_om-id-0)"/></mask><image x="48" y="538" width="72" height="64" href="data:image/svg+xml;utf8,%3Csvg  xmlns=%22http://www.w3.org/2000/svg%22 width=%2273.60461760461762%22 height=%2264%22 viewBox=%220 0 797 693%22%3E%3Cg transform=%22matrix(1,0,0,1,-345,-96.5)%22%3E%3Cpath d=%22M756.942,197.15L756.942,474C701.751,474 656.942,518.808 656.942,574C656.942,629.192 701.751,674 756.942,674L756.942,777L495.122,777C443.175,777 401,734.825 401,682.878L401,614L364.755,614C353.852,614 345,605.148 345,594.245L345,436.814C345,425.878 353.878,417 364.814,417L401,417L401,365.122C401,313.175 443.175,271 495.122,271L715.058,271L715.058,197.15C696.492,189.056 683.5,170.533 683.5,149C683.5,120.024 707.024,96.5 736,96.5C764.976,96.5 788.5,120.024 788.5,149C788.5,170.533 775.508,189.056 756.942,197.15ZM559,388C520.918,388 490,418.918 490,457C490,495.082 520.918,526 559,526C597.082,526 628,495.082 628,457C628,418.918 597.082,388 559,388Z%22 fill=%22%23ad47ff%22%3E%3C/path%3E%3Cg transform=%22matrix(-1,1.22465e-16,-1.22465e-16,-1,1486.06,1043)%22%3E%3Cpath d=%22M401,417L401,348.122C401,296.175 443.175,254 495.122,254L705.058,254L705.058,357C760.249,357 805.058,401.808 805.058,457C805.058,512.192 760.249,557 705.058,557L705.058,760L495.122,760C443.175,760 401,717.825 401,665.878L401,614L364.755,614C353.852,614 345,605.148 345,594.245L345,436.814C345,425.878 353.878,417 364.814,417L401,417ZM552,643C590.082,643 621,612.082 621,574C621,535.918 590.082,505 552,505C513.918,505 483,535.918 483,574C483,612.082 513.918,643 552,643Z%22 fill=%22%2300d5bd%22%3E%3C/path%3E%3C/g%3E%3C/g%3E%3C/svg%3E" preserveAspectRatio="none" clip-path="url(#satori_cp-id-0-1-0-0-0)" mask="url(#satori_om-id-0-1-0-0-0)"/><mask id="satori_om-id-0-1-0-0-0-0"><rect x="48" y="538" width="0" height="64" fill="#fff" mask="url(#satori_om-id-0)"/></mask><mask id="satori_om-id-0-1-0-0-0-0-0"><rect x="48" y="538" width="0" height="64" fill="#fff" mask="url(#satori_om-id-0)"/></mask><mask id="satori_om-id-0-1-0-0-0-0-1"><rect x="48" y="538" width="0" height="64" fill="#fff" mask="url(#satori_om-id-0)"/></mask><mask id="satori_om-id-0-1-0-0-0-0-1-0"><rect x="48" y="538" width="0" height="64" fill="#fff" mask="url(#satori_om-id-0)"/></mask><mask id="satori_om-id-0-1-0-1"><rect x="138" y="540" width="138" height="60" fill="#fff" mask="url(#satori_om-id-0)"/></mask><mask id="satori_om-id-0-1-0-1-0"><rect x="138" y="540" width="138" height="36" fill="#fff" mask="url(#satori_om-id-0)"/></mask><path fill="#0f172a" d="M150.7 571.2L150.7 571.2Q145.9 571.2 143.0 568.6Q140.1 566.1 140.1 561.8L140.1 561.8L140.1 547.9Q140.1 546.5 140.8 545.8Q141.5 545.1 142.8 545.1Q144.0 545.1 144.7 545.8Q145.4 546.5 145.4 547.9L145.4 547.9L145.4 561.3Q145.4 563.8 146.8 565.2Q148.2 566.7 150.7 566.7L150.7 566.7Q153.3 566.7 154.7 565.2Q156.1 563.8 156.1 561.3L156.1 561.3L156.1 547.9Q156.1 546.5 156.8 545.8Q157.5 545.1 158.7 545.1Q160.0 545.1 160.7 545.8Q161.4 546.5 161.4 547.9L161.4 547.9L161.4 561.8Q161.4 566.1 158.5 568.6Q155.6 571.2 150.7 571.2ZM170.2 570.4Q169.5 571.2 168.2 571.2Q167.0 571.2 166.3 570.4Q165.6 569.7 165.6 568.4L165.6 568.4L165.6 548.2Q165.6 546.9 166.3 546.2Q167.0 545.4 168.2 545.4L168.2 545.4L176.0 545.4Q180.3 545.4 182.7 547.6Q185.1 549.7 185.1 553.5L185.1 553.5Q185.1 555.9 184.0 557.8Q182.9 559.7 180.8 560.6L180.8 560.6L184.4 566.9Q185.0 567.9 185.0 568.7L185.0 568.7Q185.0 569.8 184.2 570.5Q183.5 571.2 182.3 571.2L182.3 571.2Q181.4 571.2 180.8 570.8Q180.3 570.3 179.6 569.2L179.6 569.2L175.4 561.5L170.9 561.5L170.9 568.4Q170.9 569.7 170.2 570.4ZM170.9 549.6L170.9 557.7L175.5 557.7Q177.5 557.7 178.6 556.6Q179.7 555.5 179.7 553.6L179.7 553.6Q179.7 551.8 178.5 550.7Q177.4 549.6 175.4 549.6L175.4 549.6L170.9 549.6ZM198.1 562.7L190.8 562.7Q189.7 562.7 189.1 562.1Q188.4 561.5 188.4 560.5Q188.4 559.4 189.1 558.8Q189.7 558.2 190.8 558.2L190.8 558.2L198.1 558.2Q199.2 558.2 199.9 558.8Q200.6 559.4 200.6 560.5Q200.6 561.5 199.9 562.1Q199.2 562.7 198.1 562.7L198.1 562.7ZM209.1 570.4Q208.4 571.2 207.2 571.2Q205.9 571.2 205.2 570.4Q204.5 569.7 204.5 568.4L204.5 568.4L204.5 548.2Q204.5 546.9 205.2 546.2Q205.9 545.4 207.2 545.4L207.2 545.4L214.9 545.4Q219.3 545.4 221.7 547.6Q224.1 549.7 224.1 553.5L224.1 553.5Q224.1 555.9 223.0 557.8Q221.8 559.7 219.7 560.6L219.7 560.6L223.4 566.9Q224.0 567.9 224.0 568.7L224.0 568.7Q224.0 569.8 223.2 570.5Q222.4 571.2 221.3 571.2L221.3 571.2Q220.3 571.2 219.8 570.8Q219.2 570.3 218.6 569.2L218.6 569.2L214.4 561.5L209.8 561.5L209.8 568.4Q209.8 569.7 209.1 570.4ZM209.8 549.6L209.8 557.7L214.4 557.7Q216.4 557.7 217.5 556.6Q218.6 555.5 218.6 553.6L218.6 553.6Q218.6 551.8 217.5 550.7Q216.3 549.6 214.4 549.6L214.4 549.6L209.8 549.6ZM229.3 571.1L229.3 571.1Q228.0 571.1 227.3 570.5Q226.6 569.8 226.6 568.6L226.6 568.6Q226.6 567.9 226.9 566.9L226.9 566.9L233.9 548.1Q234.4 546.5 235.4 545.8Q236.3 545.1 237.8 545.1L237.8 545.1Q239.4 545.1 240.4 545.8Q241.3 546.5 241.9 548.1L241.9 548.1L248.9 566.9Q249.2 567.9 249.2 568.6L249.2 568.6Q249.2 569.7 248.5 570.4Q247.7 571.1 246.5 571.1L246.5 571.1Q245.4 571.1 244.8 570.6Q244.1 570.0 243.8 568.8L243.8 568.8L242.4 564.8L233.3 564.8L232.0 568.7Q231.6 570.0 231.0 570.6Q230.3 571.1 229.3 571.1ZM237.7 550.3L234.5 560.7L241.2 560.7L237.9 550.3L237.7 550.3ZM262.1 570.8L255.1 570.8Q253.8 570.8 253.1 570.1Q252.4 569.3 252.4 568.0L252.4 568.0L252.4 548.2Q252.4 546.9 253.1 546.2Q253.8 545.4 255.1 545.4L255.1 545.4L262.1 545.4Q267.8 545.4 271.0 548.7Q274.2 552.0 274.2 558.0L274.2 558.0Q274.2 564.0 271.0 567.4Q267.8 570.8 262.1 570.8L262.1 570.8ZM257.7 549.8L257.7 566.4L261.5 566.4Q265.0 566.4 266.9 564.3Q268.8 562.1 268.8 558.0L268.8 558.0Q268.8 554.1 266.9 551.9Q265.0 549.8 261.5 549.8L261.5 549.8L257.7 549.8Z " clip-path="url(#satori_cp-id-0)" mask="url(#satori_om-id-0)"/><mask id="satori_om-id-0-1-0-1-1"><rect x="138" y="576" width="138" height="24" fill="#fff" mask="url(#satori_om-id-0)"/></mask><path fill="#334155" d="M145.0 595.3L145.0 595.3Q142.4 595.3 140.8 593.8Q139.2 592.4 139.2 590.1L139.2 590.1L139.2 582.1Q139.2 581.5 139.6 581.1Q139.9 580.8 140.5 580.8L140.5 580.8Q141.1 580.8 141.4 581.1Q141.8 581.5 141.8 582.1L141.8 582.1L141.8 589.8Q141.8 591.3 142.6 592.2Q143.5 593.1 145.0 593.1Q146.6 593.1 147.4 592.2Q148.3 591.3 148.3 589.8L148.3 589.8L148.3 582.1Q148.3 581.5 148.6 581.1Q149.0 580.8 149.6 580.8L149.6 580.8Q150.2 580.8 150.5 581.1Q150.8 581.5 150.8 582.1L150.8 582.1L150.8 590.1Q150.8 592.4 149.3 593.8Q147.7 595.3 145.0 595.3ZM155.5 594.9Q155.2 595.2 154.6 595.2Q154.0 595.2 153.6 594.9Q153.3 594.5 153.3 593.9L153.3 593.9L153.3 582.3Q153.3 581.6 153.6 581.3Q154.0 581.0 154.6 581.0L154.6 581.0L158.9 581.0Q161.2 581.0 162.5 582.1Q163.8 583.3 163.8 585.3L163.8 585.3Q163.8 586.7 163.1 587.8Q162.4 588.8 161.2 589.3L161.2 589.3L163.4 593.2Q163.7 593.7 163.7 594.1L163.7 594.1Q163.7 594.6 163.4 594.9Q163.0 595.2 162.4 595.2L162.4 595.2Q162.0 595.2 161.7 595.0Q161.5 594.8 161.2 594.3L161.2 594.3L158.7 589.7L155.8 589.7L155.8 593.9Q155.8 594.5 155.5 594.9ZM155.8 583.0L155.8 587.8L158.7 587.8Q159.9 587.8 160.5 587.2Q161.2 586.5 161.2 585.4L161.2 585.4Q161.2 584.3 160.5 583.6Q159.8 583.0 158.6 583.0L158.6 583.0L155.8 583.0ZM171.1 590.4L166.7 590.4Q166.2 590.4 165.9 590.1Q165.6 589.8 165.6 589.3Q165.6 588.8 165.9 588.5Q166.2 588.2 166.7 588.2L166.7 588.2L171.1 588.2Q171.7 588.2 172.0 588.5Q172.3 588.8 172.3 589.3Q172.3 589.8 172.0 590.1Q171.7 590.4 171.1 590.4L171.1 590.4ZM176.7 594.9Q176.4 595.2 175.8 595.2Q175.2 595.2 174.9 594.9Q174.6 594.5 174.6 593.9L174.6 593.9L174.6 582.3Q174.6 581.6 174.9 581.3Q175.2 581.0 175.8 581.0L175.8 581.0L180.1 581.0Q182.4 581.0 183.7 582.1Q185.0 583.3 185.0 585.3L185.0 585.3Q185.0 586.7 184.3 587.8Q183.7 588.8 182.5 589.3L182.5 589.3L184.7 593.2Q185.0 593.7 185.0 594.1L185.0 594.1Q185.0 594.6 184.6 594.9Q184.2 595.2 183.7 595.2L183.7 595.2Q183.2 595.2 183.0 595.0Q182.7 594.8 182.4 594.3L182.4 594.3L179.9 589.7L177.1 589.7L177.1 593.9Q177.1 594.5 176.7 594.9ZM177.1 583.0L177.1 587.8L179.9 587.8Q181.1 587.8 181.8 587.2Q182.4 586.5 182.4 585.4L182.4 585.4Q182.4 584.3 181.8 583.6Q181.1 583.0 179.9 583.0L179.9 583.0L177.1 583.0ZM187.7 595.2L187.7 595.2Q187.1 595.2 186.7 594.9Q186.4 594.6 186.4 594.0L186.4 594.0Q186.4 593.7 186.6 593.3L186.6 593.3L190.7 582.2Q190.9 581.4 191.4 581.1Q191.8 580.8 192.5 580.8L192.5 580.8Q193.2 580.8 193.6 581.1Q194.1 581.4 194.3 582.1L194.3 582.1L198.4 593.3Q198.6 593.7 198.6 594.0L198.6 594.0Q198.6 594.6 198.2 594.9Q197.9 595.2 197.3 595.2L197.3 595.2Q196.8 595.2 196.5 595.0Q196.2 594.7 196.0 594.1L196.0 594.1L195.1 591.4L189.9 591.4L188.9 594.1Q188.8 594.7 188.5 595.0Q188.2 595.2 187.7 595.2ZM192.4 583.4L190.5 589.5L194.5 589.5L192.5 583.4L192.4 583.4ZM205.6 595.0L201.7 595.0Q201.1 595.0 200.8 594.7Q200.4 594.3 200.4 593.7L200.4 593.7L200.4 582.3Q200.4 581.6 200.8 581.3Q201.1 581.0 201.7 581.0L201.7 581.0L205.6 581.0Q208.7 581.0 210.5 582.8Q212.3 584.6 212.3 588.0L212.3 588.0Q212.3 591.3 210.5 593.2Q208.7 595.0 205.6 595.0L205.6 595.0ZM202.9 583.1L202.9 592.9L205.3 592.9Q207.4 592.9 208.6 591.6Q209.7 590.4 209.7 588.0L209.7 588.0Q209.7 585.6 208.6 584.3Q207.4 583.1 205.3 583.1L205.3 583.1L202.9 583.1Z M227.0 595.0L219.2 595.0Q218.7 595.0 218.3 594.8Q218.0 594.5 218.0 594.0L218.0 594.0Q218.0 593.6 218.2 593.3Q218.3 593.1 218.7 592.7L218.7 592.7L223.0 588.4Q224.4 587.1 224.8 586.4Q225.3 585.7 225.3 584.9L225.3 584.9Q225.3 583.9 224.6 583.3Q224.0 582.7 223.0 582.7L223.0 582.7Q221.1 582.7 220.3 584.6L220.3 584.6Q220.1 585.0 219.9 585.2Q219.6 585.4 219.2 585.4L219.2 585.4Q218.7 585.4 218.4 585.1Q218.1 584.8 218.1 584.3L218.1 584.3Q218.1 584.1 218.2 583.8L218.2 583.8Q218.3 583.2 218.7 582.7Q219.1 582.1 219.7 581.7Q220.3 581.2 221.1 580.9Q222.0 580.7 223.0 580.7L223.0 580.7Q225.1 580.7 226.4 581.8Q227.8 582.9 227.8 584.7L227.8 584.7Q227.8 585.9 227.1 586.9Q226.4 588.0 224.6 589.8L224.6 589.8L221.4 592.9L221.4 593.0L227.0 593.0Q227.5 593.0 227.8 593.3Q228.1 593.5 228.1 594.0Q228.1 594.5 227.8 594.8Q227.5 595.0 227.0 595.0L227.0 595.0ZM235.2 595.3L235.2 595.3Q232.6 595.3 231.1 593.4Q229.7 591.4 229.7 588.0L229.7 588.0Q229.7 584.6 231.1 582.6Q232.6 580.7 235.2 580.7L235.2 580.7Q237.8 580.7 239.3 582.6Q240.7 584.6 240.7 588.0L240.7 588.0Q240.7 591.4 239.3 593.3Q237.8 595.3 235.2 595.3ZM235.2 593.3L235.2 593.3Q236.6 593.3 237.4 591.9Q238.2 590.5 238.2 588.0L238.2 588.0Q238.2 585.5 237.4 584.1Q236.6 582.7 235.2 582.7Q233.8 582.7 233.0 584.1Q232.2 585.5 232.2 588.0L232.2 588.0Q232.2 590.5 233.0 591.9Q233.8 593.3 235.2 593.3ZM251.6 595.0L243.8 595.0Q243.2 595.0 242.9 594.8Q242.6 594.5 242.6 594.0L242.6 594.0Q242.6 593.6 242.7 593.3Q242.9 593.1 243.3 592.7L243.3 592.7L247.6 588.4Q248.9 587.1 249.4 586.4Q249.8 585.7 249.8 584.9L249.8 584.9Q249.8 583.9 249.2 583.3Q248.5 582.7 247.5 582.7L247.5 582.7Q245.6 582.7 244.9 584.6L244.9 584.6Q244.7 585.0 244.4 585.2Q244.2 585.4 243.7 585.4L243.7 585.4Q243.2 585.4 242.9 585.1Q242.6 584.8 242.6 584.3L242.6 584.3Q242.6 584.1 242.7 583.8L242.7 583.8Q242.9 583.2 243.2 582.7Q243.6 582.1 244.2 581.7Q244.8 581.2 245.7 580.9Q246.5 580.7 247.5 580.7L247.5 580.7Q249.6 580.7 251.0 581.8Q252.3 582.9 252.3 584.7L252.3 584.7Q252.3 585.9 251.6 586.9Q251.0 588.0 249.2 589.8L249.2 589.8L245.9 592.9L245.9 593.0L251.6 593.0Q252.1 593.0 252.4 593.3Q252.6 593.5 252.6 594.0Q252.6 594.5 252.4 594.8Q252.1 595.0 251.6 595.0L251.6 595.0ZM259.6 595.3L259.6 595.3Q258.0 595.3 256.7 594.6Q255.4 593.9 254.9 592.8L254.9 592.8Q254.6 592.3 254.6 591.8L254.6 591.8Q254.6 591.3 254.9 591.0Q255.2 590.7 255.7 590.7L255.7 590.7Q256.1 590.7 256.4 590.9Q256.6 591.1 256.8 591.5L256.8 591.5Q257.2 592.3 257.9 592.8Q258.6 593.3 259.6 593.3L259.6 593.3Q260.9 593.3 261.7 592.5Q262.5 591.7 262.5 590.4L262.5 590.4Q262.5 589.2 261.7 588.4Q260.9 587.7 259.6 587.7L259.6 587.7Q258.3 587.7 257.4 588.5L257.4 588.5Q257.0 589.0 256.7 589.1Q256.4 589.3 256.0 589.3L256.0 589.3Q255.4 589.3 255.1 588.9Q254.8 588.5 254.8 588.0L254.8 588.0Q254.8 587.9 254.8 587.8L254.8 587.8L255.3 582.5Q255.4 581.7 255.8 581.3Q256.2 581.0 257.0 581.0L257.0 581.0L263.1 581.0Q263.6 581.0 263.9 581.2Q264.2 581.5 264.2 582.0L264.2 582.0Q264.2 582.4 263.9 582.7Q263.6 583.0 263.1 583.0L263.1 583.0L257.4 583.0L257.1 587.2L257.1 587.2Q257.6 586.5 258.4 586.1Q259.2 585.8 260.3 585.8L260.3 585.8Q262.3 585.8 263.6 587.0Q264.9 588.3 264.9 590.4L264.9 590.4Q264.9 592.6 263.4 593.9Q261.9 595.3 259.6 595.3Z " clip-path="url(#satori_cp-id-0)" mask="url(#satori_om-id-0)"/><mask id="satori_om-id-0-1-1"><rect x="749" y="557" width="403" height="26" fill="#fff" mask="url(#satori_om-id-0)"/></mask><path fill="#334155" d="M752.4 577.8Q752.1 578.2 751.5 578.2Q750.9 578.2 750.5 577.8Q750.2 577.5 750.2 576.8L750.2 576.8L750.2 563.6Q750.2 563.0 750.5 562.6Q750.9 562.2 751.5 562.2Q752.1 562.2 752.5 562.6Q752.8 563.0 752.8 563.6L752.8 563.6L752.8 568.5L752.9 568.5Q753.4 567.5 754.3 566.9Q755.3 566.4 756.5 566.4L756.5 566.4Q758.6 566.4 759.9 568.0Q761.2 569.5 761.2 572.3L761.2 572.3Q761.2 575.0 759.9 576.6Q758.6 578.1 756.5 578.1L756.5 578.1Q755.2 578.1 754.3 577.6Q753.4 577.0 752.8 576.0L752.8 576.0L752.8 576.0L752.8 576.8Q752.8 577.5 752.4 577.8ZM755.6 575.9L755.6 575.9Q756.9 575.9 757.7 574.9Q758.4 574.0 758.4 572.3Q758.4 570.6 757.7 569.6Q756.9 568.6 755.6 568.6L755.6 568.6Q754.4 568.6 753.6 569.6Q752.8 570.6 752.8 572.3L752.8 572.3Q752.8 573.9 753.6 574.9Q754.4 575.9 755.6 575.9ZM764.5 582.2L764.5 582.2Q763.6 582.2 763.1 581.9Q762.7 581.5 762.7 580.9L762.7 580.9Q762.7 580.5 762.9 580.3Q763.2 580.0 763.7 580.0L763.7 580.0Q763.8 580.0 764.0 580.0Q764.1 580.0 764.3 580.0L764.3 580.0Q765.3 580.0 765.9 578.7L765.9 578.7L766.1 578.2L762.3 568.3Q762.2 567.9 762.2 567.6L762.2 567.6Q762.2 567.0 762.6 566.7Q763.0 566.3 763.6 566.3L763.6 566.3Q764.1 566.3 764.4 566.6Q764.7 566.8 764.8 567.4L764.8 567.4L767.6 575.7L767.6 575.7L770.3 567.4Q770.5 566.8 770.8 566.6Q771.1 566.3 771.6 566.3L771.6 566.3Q772.2 566.3 772.5 566.7Q772.9 567.0 772.9 567.5L772.9 567.5Q772.9 567.9 772.8 568.3L772.8 568.3L769.0 578.4Q768.2 580.5 767.2 581.3Q766.2 582.2 764.5 582.2Z M781.2 577.8Q780.9 578.1 780.3 578.1Q779.7 578.1 779.4 577.8Q779.0 577.4 779.0 576.8L779.0 576.8L779.0 564.0Q779.0 563.2 779.5 562.7Q780.0 562.3 780.8 562.3L780.8 562.3Q781.5 562.3 782.0 562.6Q782.4 562.9 782.7 563.7L782.7 563.7L787.0 574.1L787.1 574.1L791.3 563.7Q791.7 562.9 792.1 562.6Q792.6 562.3 793.3 562.3L793.3 562.3Q794.1 562.3 794.6 562.7Q795.0 563.2 795.0 564.0L795.0 564.0L795.0 576.8Q795.0 577.4 794.7 577.8Q794.4 578.1 793.8 578.1Q793.2 578.1 792.9 577.8Q792.5 577.4 792.5 576.8L792.5 576.8L792.5 566.9L792.5 566.9L788.4 576.9Q788.0 577.9 787.0 577.9L787.0 577.9Q786.1 577.9 785.7 576.9L785.7 576.9L781.6 566.9L781.5 566.9L781.5 576.8Q781.5 577.4 781.2 577.8ZM800.9 578.1L800.9 578.1Q799.2 578.1 798.1 577.2Q797.0 576.2 797.0 574.7L797.0 574.7Q797.0 573.2 798.2 572.3Q799.3 571.4 801.4 571.3L801.4 571.3L804.4 571.1L804.4 570.3Q804.4 569.4 803.8 568.9Q803.3 568.4 802.3 568.4L802.3 568.4Q801.5 568.4 800.9 568.7Q800.4 569.0 799.9 569.8L799.9 569.8Q799.5 570.3 798.8 570.3L798.8 570.3Q798.3 570.3 798.0 570.0Q797.7 569.7 797.7 569.2L797.7 569.2Q797.7 568.9 797.9 568.5L797.9 568.5Q798.3 567.5 799.5 566.9Q800.7 566.3 802.4 566.3L802.4 566.3Q804.5 566.3 805.8 567.4Q807.0 568.4 807.0 570.1L807.0 570.1L807.0 576.8Q807.0 577.5 806.7 577.8Q806.3 578.2 805.7 578.2L805.7 578.2Q805.2 578.2 804.8 577.8Q804.5 577.5 804.5 576.9L804.5 576.9L804.5 576.1L804.4 576.1Q803.9 577.0 802.9 577.6Q802.0 578.1 800.9 578.1ZM801.7 576.1L801.7 576.1Q802.8 576.1 803.6 575.4Q804.4 574.7 804.4 573.7L804.4 573.7L804.4 572.9L801.8 573.0Q800.8 573.1 800.3 573.5Q799.7 573.9 799.7 574.6L799.7 574.6Q799.7 575.3 800.3 575.7Q800.8 576.1 801.7 576.1ZM814.2 578.2L814.2 578.2Q811.7 578.2 810.2 576.6Q808.7 575.0 808.7 572.3L808.7 572.3Q808.7 569.5 810.2 567.9Q811.7 566.3 814.2 566.3L814.2 566.3Q815.8 566.3 817.1 567.1Q818.4 567.9 818.9 569.1L818.9 569.1Q819.0 569.4 819.0 569.7L819.0 569.7Q819.0 570.2 818.7 570.5Q818.3 570.8 817.8 570.8L817.8 570.8Q817.4 570.8 817.2 570.6Q816.9 570.4 816.7 570.0L816.7 570.0Q815.8 568.5 814.2 568.5L814.2 568.5Q813.0 568.5 812.2 569.5Q811.4 570.5 811.4 572.3L811.4 572.3Q811.4 574.0 812.2 575.0Q812.9 576.0 814.2 576.0L814.2 576.0Q815.8 576.0 816.7 574.6L816.7 574.6Q816.9 574.1 817.2 573.9Q817.5 573.7 817.9 573.7L817.9 573.7Q818.4 573.7 818.7 574.0Q819.0 574.3 819.0 574.8L819.0 574.8Q819.0 575.1 818.9 575.5L818.9 575.5Q818.4 576.7 817.1 577.4Q815.8 578.2 814.2 578.2ZM823.2 577.8Q822.8 578.2 822.2 578.2Q821.6 578.2 821.3 577.8Q820.9 577.5 820.9 576.8L820.9 576.8L820.9 563.6Q820.9 563.0 821.3 562.6Q821.6 562.2 822.2 562.2Q822.8 562.2 823.2 562.6Q823.6 563.0 823.6 563.6L823.6 563.6L823.6 568.5L823.6 568.5Q824.1 567.5 825.1 566.9Q826 566.4 827.2 566.4L827.2 566.4Q829.4 566.4 830.6 568.0Q831.9 569.5 831.9 572.3L831.9 572.3Q831.9 575.0 830.6 576.6Q829.4 578.1 827.2 578.1L827.2 578.1Q826.0 578.1 825.0 577.6Q824.1 577.0 823.6 576.0L823.6 576.0L823.5 576.0L823.5 576.8Q823.5 577.5 823.2 577.8ZM826.4 575.9L826.4 575.9Q827.7 575.9 828.4 574.9Q829.2 574.0 829.2 572.3Q829.2 570.6 828.4 569.6Q827.7 568.6 826.4 568.6L826.4 568.6Q825.1 568.6 824.3 569.6Q823.6 570.6 823.6 572.3L823.6 572.3Q823.6 573.9 824.3 574.9Q825.1 575.9 826.4 575.9ZM838.7 578.2L838.7 578.2Q836.1 578.2 834.6 576.6Q833.1 575.1 833.1 572.3L833.1 572.3Q833.1 569.6 834.6 567.9Q836.1 566.3 838.5 566.3L838.5 566.3Q840.9 566.3 842.3 567.8Q843.8 569.3 843.8 571.6L843.8 571.6Q843.8 572.2 843.4 572.6Q843.1 572.9 842.5 572.9L842.5 572.9L835.8 572.9L835.8 573.0Q835.8 574.4 836.6 575.3Q837.4 576.1 838.7 576.1L838.7 576.1Q839.6 576.1 840.2 575.8Q840.9 575.4 841.5 574.6L841.5 574.6Q841.9 574.2 842.4 574.2L842.4 574.2Q842.9 574.2 843.2 574.4Q843.5 574.7 843.5 575.2L843.5 575.2Q843.5 575.5 843.3 575.9L843.3 575.9Q842.7 577.0 841.5 577.6Q840.3 578.2 838.7 578.2ZM835.8 571.1L835.8 571.1L841.1 571.1Q841.1 569.9 840.4 569.1Q839.7 568.4 838.5 568.4Q837.4 568.4 836.7 569.2Q835.9 569.9 835.8 571.1ZM846.2 575.1L846.2 575.1L846.2 568.6L845.5 568.6Q845.0 568.6 844.7 568.3Q844.4 568.1 844.4 567.6L844.4 567.6Q844.4 567.1 844.7 566.8Q845.0 566.6 845.5 566.6L845.5 566.6L846.2 566.6L846.2 565.0Q846.2 564.4 846.6 564.0Q846.9 563.6 847.6 563.6L847.6 563.6Q848.2 563.6 848.5 564.0Q848.9 564.4 848.9 565.0L848.9 565.0L848.9 566.6L850.1 566.6Q850.6 566.6 850.9 566.8Q851.2 567.1 851.2 567.6L851.2 567.6Q851.2 568.1 850.9 568.3Q850.6 568.6 850.1 568.6L850.1 568.6L848.9 568.6L848.9 574.6Q848.9 575.2 849.1 575.5Q849.4 575.8 850.0 575.9L850.0 575.9L850.2 575.9Q851.2 576.0 851.2 576.9L851.2 576.9Q851.2 577.5 850.8 577.8Q850.3 578.1 849.3 578.1L849.3 578.1L849.2 578.1Q846.2 578.1 846.2 575.1ZM855.3 577.8Q854.9 578.2 854.3 578.2Q853.7 578.2 853.3 577.8Q852.9 577.4 852.9 576.8L852.9 576.8L852.9 563.6Q852.9 563.0 853.3 562.6Q853.7 562.2 854.3 562.2L854.3 562.2Q854.9 562.2 855.2 562.6Q855.6 563.0 855.6 563.6L855.6 563.6L855.6 568.5L855.6 568.5Q856.1 567.5 857.0 566.9Q857.9 566.3 859.2 566.3L859.2 566.3Q861.1 566.3 862.2 567.5Q863.2 568.6 863.2 570.6L863.2 570.6L863.2 576.8Q863.2 577.4 862.9 577.8Q862.5 578.2 861.9 578.2Q861.3 578.2 860.9 577.8Q860.5 577.4 860.5 576.8L860.5 576.8L860.5 571.2Q860.5 569.9 860.0 569.3Q859.4 568.6 858.2 568.6L858.2 568.6Q857.0 568.6 856.3 569.4Q855.6 570.1 855.6 571.4L855.6 571.4L855.6 576.8Q855.6 577.4 855.3 577.8ZM867.2 575.2L867.2 575.2Q867.8 575.2 868.1 575.5Q868.4 575.8 868.4 576.3L868.4 576.3Q868.4 576.6 868.4 576.9L868.4 576.9L867.4 580.6Q867.3 581.1 867.1 581.3Q866.8 581.5 866.3 581.5Q865.9 581.5 865.6 581.2Q865.3 581.0 865.3 580.5L865.3 580.5Q865.3 580.4 865.4 580.3L865.4 580.3L866.0 576.3Q866.2 575.2 867.2 575.2Z M879.9 578.2L879.9 578.2Q878.2 578.2 877.0 577.5Q875.8 576.7 875.3 575.4L875.3 575.4Q875.0 574.8 875.0 574.2L875.0 574.2Q875.0 573.6 875.4 573.2Q875.7 572.9 876.3 572.9L876.3 572.9Q876.9 572.9 877.2 573.2Q877.5 573.4 877.7 574.0L877.7 574.0Q877.9 574.9 878.5 575.3Q879.0 575.8 879.9 575.8L879.9 575.8Q881.0 575.8 881.6 575.1Q882.1 574.5 882.1 573.2L882.1 573.2L882.1 563.7Q882.1 563.0 882.5 562.6Q882.9 562.3 883.5 562.3L883.5 562.3Q884.2 562.3 884.5 562.6Q884.9 563.0 884.9 563.7L884.9 563.7L884.9 573.2Q884.9 575.6 883.6 576.9Q882.3 578.2 879.9 578.2ZM889.3 578.1L889.3 578.1Q888.7 578.1 888.2 577.6Q887.8 577.2 887.8 576.5L887.8 576.5Q887.8 575.9 888.2 575.4Q888.7 575.0 889.3 575.0L889.3 575.0Q890.0 575.0 890.4 575.4Q890.9 575.9 890.9 576.5L890.9 576.5Q890.9 577.2 890.4 577.6Q890.0 578.1 889.3 578.1ZM895.3 575.2L895.3 575.2Q895.8 575.2 896.1 575.5Q896.5 575.8 896.5 576.3L896.5 576.3Q896.5 576.6 896.4 576.9L896.4 576.9L895.5 580.6Q895.3 581.1 895.1 581.3Q894.8 581.5 894.4 581.5Q893.9 581.5 893.6 581.2Q893.3 581.0 893.4 580.5L893.4 580.5Q893.4 580.4 893.4 580.3L893.4 580.3L894.0 576.3Q894.2 575.2 895.3 575.2Z M914.3 577.9L905.0 577.9Q904.4 577.9 904.0 577.6Q903.6 577.2 903.6 576.6L903.6 576.6Q903.6 576.1 904.0 575.5L904.0 575.5L911.8 564.9L911.8 564.8L904.9 564.8Q904.3 564.8 904.0 564.5Q903.6 564.2 903.6 563.6Q903.6 563.1 904.0 562.8Q904.3 562.4 904.9 562.4L904.9 562.4L913.7 562.4Q914.4 562.4 914.8 562.8Q915.2 563.2 915.2 563.8L915.2 563.8Q915.2 564.3 914.7 564.9L914.7 564.9L907.0 575.5L907.0 575.6L914.3 575.6Q914.9 575.6 915.2 575.9Q915.6 576.2 915.6 576.8Q915.6 577.3 915.2 577.6Q914.9 577.9 914.3 577.9L914.3 577.9ZM919.8 577.8Q919.5 578.2 918.9 578.2Q918.3 578.2 917.9 577.8Q917.5 577.4 917.5 576.8L917.5 576.8L917.5 563.6Q917.5 563.0 917.9 562.6Q918.2 562.2 918.9 562.2L918.9 562.2Q919.5 562.2 919.8 562.6Q920.2 563.0 920.2 563.6L920.2 563.6L920.2 568.5L920.2 568.5Q920.7 567.5 921.6 566.9Q922.5 566.3 923.8 566.3L923.8 566.3Q925.7 566.3 926.8 567.5Q927.8 568.6 927.8 570.6L927.8 570.6L927.8 576.8Q927.8 577.4 927.4 577.8Q927.1 578.2 926.5 578.2Q925.9 578.2 925.5 577.8Q925.1 577.4 925.1 576.8L925.1 576.8L925.1 571.2Q925.1 569.9 924.5 569.3Q923.9 568.6 922.8 568.6L922.8 568.6Q921.6 568.6 920.9 569.4Q920.2 570.1 920.2 571.4L920.2 571.4L920.2 576.8Q920.2 577.4 919.8 577.8ZM933.3 578.1L933.3 578.1Q931.6 578.1 930.6 577.2Q929.5 576.2 929.5 574.7L929.5 574.7Q929.5 573.2 930.6 572.3Q931.7 571.4 933.8 571.3L933.8 571.3L936.8 571.1L936.8 570.3Q936.8 569.4 936.3 568.9Q935.7 568.4 934.7 568.4L934.7 568.4Q933.9 568.4 933.4 568.7Q932.8 569.0 932.3 569.8L932.3 569.8Q931.9 570.3 931.2 570.3L931.2 570.3Q930.7 570.3 930.4 570.0Q930.1 569.7 930.1 569.2L930.1 569.2Q930.1 568.9 930.3 568.5L930.3 568.5Q930.7 567.5 932.0 566.9Q933.2 566.3 934.8 566.3L934.8 566.3Q936.9 566.3 938.2 567.4Q939.5 568.4 939.5 570.1L939.5 570.1L939.5 576.8Q939.5 577.5 939.1 577.8Q938.8 578.2 938.2 578.2L938.2 578.2Q937.6 578.2 937.3 577.8Q936.9 577.5 936.9 576.9L936.9 576.9L936.9 576.1L936.8 576.1Q936.4 577.0 935.4 577.6Q934.4 578.1 933.3 578.1ZM934.1 576.1L934.1 576.1Q935.2 576.1 936.0 575.4Q936.8 574.7 936.8 573.7L936.8 573.7L936.8 572.9L934.2 573.0Q933.2 573.1 932.7 573.5Q932.2 573.9 932.2 574.6L932.2 574.6Q932.2 575.3 932.7 575.7Q933.2 576.1 934.1 576.1ZM943.9 577.8Q943.6 578.2 943.0 578.2Q942.4 578.2 942.0 577.8Q941.6 577.4 941.6 576.8L941.6 576.8L941.6 567.7Q941.6 567.1 942.0 566.7Q942.3 566.3 942.9 566.3Q943.5 566.3 943.9 566.7Q944.2 567.1 944.2 567.7L944.2 567.7L944.2 568.5L944.3 568.5Q945.2 566.3 947.8 566.3L947.8 566.3Q949.7 566.3 950.7 567.5Q951.8 568.6 951.8 570.6L951.8 570.6L951.8 576.8Q951.8 577.4 951.4 577.8Q951.0 578.2 950.4 578.2Q949.8 578.2 949.5 577.8Q949.1 577.4 949.1 576.8L949.1 576.8L949.1 571.1Q949.1 569.9 948.5 569.3Q947.9 568.6 946.8 568.6L946.8 568.6Q945.7 568.6 945.0 569.4Q944.3 570.1 944.3 571.4L944.3 571.4L944.3 576.8Q944.3 577.4 943.9 577.8ZM958.8 582.2L958.8 582.2Q957.2 582.2 956.0 581.7Q954.8 581.1 954.2 580.2L954.2 580.2Q954.0 579.8 954.0 579.4L954.0 579.4Q954.0 578.9 954.3 578.6Q954.6 578.3 955.1 578.3L955.1 578.3Q955.6 578.3 956.1 578.8L956.1 578.8Q956.8 579.5 957.4 579.8Q958.0 580.1 958.8 580.1L958.8 580.1Q960.2 580.1 961.0 579.4Q961.7 578.7 961.7 577.6L961.7 577.6L961.7 575.8L961.7 575.8Q961.2 576.7 960.3 577.3Q959.3 577.8 958.1 577.8L958.1 577.8Q956.0 577.8 954.7 576.3Q953.4 574.7 953.4 572.1L953.4 572.1Q953.4 569.4 954.7 567.9Q956.0 566.4 958.2 566.4L958.2 566.4Q959.4 566.4 960.3 566.9Q961.2 567.5 961.7 568.5L961.7 568.5L961.7 568.5L961.7 567.7Q961.7 567.1 962.1 566.7Q962.5 566.3 963.1 566.3Q963.7 566.3 964.1 566.7Q964.4 567.1 964.4 567.7L964.4 567.7L964.4 577.6Q964.4 579.7 962.9 581.0Q961.4 582.2 958.8 582.2ZM958.9 575.7L958.9 575.7Q960.2 575.7 961.0 574.8Q961.8 573.8 961.8 572.1L961.8 572.1Q961.8 570.5 961.0 569.5Q960.2 568.5 958.9 568.5L958.9 568.5Q957.7 568.5 956.9 569.5Q956.2 570.5 956.2 572.1L956.2 572.1Q956.2 573.8 956.9 574.8Q957.7 575.7 958.9 575.7ZM968.5 575.2L968.5 575.2Q969.0 575.2 969.4 575.5Q969.7 575.8 969.7 576.3L969.7 576.3Q969.7 576.6 969.6 576.9L969.6 576.9L968.7 580.6Q968.6 581.1 968.3 581.3Q968.1 581.5 967.6 581.5Q967.1 581.5 966.8 581.2Q966.6 581.0 966.6 580.5L966.6 580.5Q966.6 580.4 966.6 580.3L966.6 580.3L967.2 576.3Q967.4 575.2 968.5 575.2Z M983.7 577.9L978.6 577.9Q977.9 577.9 977.6 577.6Q977.2 577.2 977.2 576.5L977.2 576.5L977.2 563.9Q977.2 563.2 977.6 562.8Q977.9 562.4 978.6 562.4L978.6 562.4L983.6 562.4Q985.7 562.4 987.0 563.5Q988.3 564.6 988.3 566.3L988.3 566.3Q988.3 567.6 987.4 568.5Q986.6 569.5 985.4 569.7L985.4 569.7L985.4 569.8Q987.0 569.9 988.0 571.0Q989.0 572.0 989.0 573.5L989.0 573.5Q989.0 575.6 987.6 576.8Q986.2 577.9 983.7 577.9L983.7 577.9ZM980.0 564.6L980.0 569.0L982.5 569.0Q984.0 569.0 984.7 568.4Q985.5 567.8 985.5 566.7L985.5 566.7Q985.5 565.7 984.9 565.2Q984.2 564.6 982.9 564.6L982.9 564.6L980.0 564.6ZM980.0 570.9L980.0 575.8L983.1 575.8Q984.6 575.8 985.4 575.2Q986.2 574.5 986.2 573.3L986.2 573.3Q986.2 572.2 985.4 571.6Q984.5 570.9 982.9 570.9L982.9 570.9L980.0 570.9ZM992.6 578.1L992.6 578.1Q991.9 578.1 991.5 577.6Q991.0 577.2 991.0 576.5L991.0 576.5Q991.0 575.9 991.5 575.4Q991.9 575.0 992.6 575.0L992.6 575.0Q993.2 575.0 993.7 575.4Q994.1 575.9 994.1 576.5L994.1 576.5Q994.1 577.2 993.7 577.6Q993.2 578.1 992.6 578.1ZM998.5 575.2L998.5 575.2Q999.1 575.2 999.4 575.5Q999.7 575.8 999.7 576.3L999.7 576.3Q999.7 576.6 999.6 576.9L999.6 576.9L998.7 580.6Q998.6 581.1 998.3 581.3Q998.1 581.5 997.6 581.5Q997.1 581.5 996.9 581.2Q996.6 581.0 996.6 580.5L996.6 580.5Q996.6 580.4 996.6 580.3L996.6 580.3L997.3 576.3Q997.4 575.2 998.5 575.2Z M1010.3 578.1L1010.3 578.1Q1008.6 578.1 1007.6 577.2Q1006.5 576.2 1006.5 574.7L1006.5 574.7Q1006.5 573.2 1007.6 572.3Q1008.7 571.4 1010.8 571.3L1010.8 571.3L1013.8 571.1L1013.8 570.3Q1013.8 569.4 1013.3 568.9Q1012.7 568.4 1011.7 568.4L1011.7 568.4Q1010.9 568.4 1010.4 568.7Q1009.8 569.0 1009.3 569.8L1009.3 569.8Q1008.9 570.3 1008.3 570.3L1008.3 570.3Q1007.8 570.3 1007.4 570.0Q1007.1 569.7 1007.1 569.2L1007.1 569.2Q1007.1 568.9 1007.3 568.5L1007.3 568.5Q1007.7 567.5 1009.0 566.9Q1010.2 566.3 1011.8 566.3L1011.8 566.3Q1013.9 566.3 1015.2 567.4Q1016.5 568.4 1016.5 570.1L1016.5 570.1L1016.5 576.8Q1016.5 577.5 1016.1 577.8Q1015.8 578.2 1015.2 578.2L1015.2 578.2Q1014.6 578.2 1014.3 577.8Q1013.9 577.5 1013.9 576.9L1013.9 576.9L1013.9 576.1L1013.9 576.1Q1013.4 577.0 1012.4 577.6Q1011.4 578.1 1010.3 578.1ZM1011.1 576.1L1011.1 576.1Q1012.3 576.1 1013.1 575.4Q1013.8 574.7 1013.8 573.7L1013.8 573.7L1013.8 572.9L1011.2 573.0Q1010.2 573.1 1009.7 573.5Q1009.2 573.9 1009.2 574.6L1009.2 574.6Q1009.2 575.3 1009.7 575.7Q1010.2 576.1 1011.1 576.1ZM1020.9 577.8Q1020.6 578.2 1020.0 578.2Q1019.4 578.2 1019.0 577.8Q1018.6 577.4 1018.6 576.8L1018.6 576.8L1018.6 567.7Q1018.6 567.1 1019.0 566.7Q1019.3 566.3 1019.9 566.3Q1020.5 566.3 1020.9 566.7Q1021.2 567.1 1021.2 567.7L1021.2 567.7L1021.2 568.5L1021.3 568.5Q1022.3 566.3 1024.8 566.3L1024.8 566.3Q1026.7 566.3 1027.7 567.5Q1028.8 568.6 1028.8 570.6L1028.8 570.6L1028.8 576.8Q1028.8 577.4 1028.4 577.8Q1028.0 578.2 1027.4 578.2Q1026.8 578.2 1026.5 577.8Q1026.1 577.4 1026.1 576.8L1026.1 576.8L1026.1 571.1Q1026.1 569.9 1025.5 569.3Q1025.0 568.6 1023.8 568.6L1023.8 568.6Q1022.7 568.6 1022.0 569.4Q1021.3 570.1 1021.3 571.4L1021.3 571.4L1021.3 576.8Q1021.3 577.4 1020.9 577.8ZM1035.2 578.1L1035.2 578.1Q1033.0 578.1 1031.7 576.5Q1030.4 575.0 1030.4 572.2L1030.4 572.2Q1030.4 569.5 1031.7 568.0Q1033.0 566.4 1035.2 566.4L1035.2 566.4Q1036.4 566.4 1037.3 566.9Q1038.2 567.5 1038.7 568.5L1038.7 568.5L1038.8 568.5L1038.8 563.6Q1038.8 563.0 1039.1 562.6Q1039.5 562.2 1040.1 562.2Q1040.7 562.2 1041.1 562.6Q1041.4 563.0 1041.4 563.6L1041.4 563.6L1041.4 576.8Q1041.4 577.5 1041.1 577.8Q1040.7 578.2 1040.1 578.2L1040.1 578.2Q1039.5 578.2 1039.1 577.8Q1038.8 577.5 1038.8 576.8L1038.8 576.8L1038.8 575.9L1038.7 575.9Q1038.3 576.9 1037.4 577.5Q1036.5 578.1 1035.2 578.1ZM1036.0 575.9L1036.0 575.9Q1037.2 575.9 1038.0 574.9Q1038.8 573.9 1038.8 572.3L1038.8 572.3Q1038.8 570.6 1038.0 569.6Q1037.2 568.6 1036.0 568.6L1036.0 568.6Q1034.7 568.6 1033.9 569.6Q1033.2 570.6 1033.2 572.3L1033.2 572.3Q1033.2 574.0 1033.9 575.0Q1034.7 575.9 1036.0 575.9Z M1054.9 577.9L1049.7 577.9Q1049.1 577.9 1048.7 577.6Q1048.4 577.2 1048.4 576.5L1048.4 576.5L1048.4 563.9Q1048.4 563.2 1048.7 562.8Q1049.1 562.4 1049.7 562.4L1049.7 562.4L1054.8 562.4Q1056.9 562.4 1058.2 563.5Q1059.4 564.6 1059.4 566.3L1059.4 566.3Q1059.4 567.6 1058.6 568.5Q1057.8 569.5 1056.6 569.7L1056.6 569.7L1056.6 569.8Q1058.2 569.9 1059.2 571.0Q1060.2 572.0 1060.2 573.5L1060.2 573.5Q1060.2 575.6 1058.8 576.8Q1057.3 577.9 1054.9 577.9L1054.9 577.9ZM1051.1 564.6L1051.1 569.0L1053.7 569.0Q1055.1 569.0 1055.9 568.4Q1056.7 567.8 1056.7 566.7L1056.7 566.7Q1056.7 565.7 1056.0 565.2Q1055.3 564.6 1054.1 564.6L1054.1 564.6L1051.1 564.6ZM1051.1 570.9L1051.1 575.8L1054.2 575.8Q1055.7 575.8 1056.5 575.2Q1057.3 574.5 1057.3 573.3L1057.3 573.3Q1057.3 572.2 1056.5 571.6Q1055.7 570.9 1054.1 570.9L1054.1 570.9L1051.1 570.9ZM1065.2 578.1L1065.2 578.1Q1063.6 578.1 1062.5 577.2Q1061.4 576.2 1061.4 574.7L1061.4 574.7Q1061.4 573.2 1062.5 572.3Q1063.7 571.4 1065.7 571.3L1065.7 571.3L1068.8 571.1L1068.8 570.3Q1068.8 569.4 1068.2 568.9Q1067.6 568.4 1066.6 568.4L1066.6 568.4Q1065.8 568.4 1065.3 568.7Q1064.7 569.0 1064.3 569.8L1064.3 569.8Q1063.8 570.3 1063.2 570.3L1063.2 570.3Q1062.7 570.3 1062.4 570.0Q1062.0 569.7 1062.0 569.2L1062.0 569.2Q1062.0 568.9 1062.2 568.5L1062.2 568.5Q1062.7 567.5 1063.9 566.9Q1065.1 566.3 1066.7 566.3L1066.7 566.3Q1068.9 566.3 1070.1 567.4Q1071.4 568.4 1071.4 570.1L1071.4 570.1L1071.4 576.8Q1071.4 577.5 1071.0 577.8Q1070.7 578.2 1070.1 578.2L1070.1 578.2Q1069.5 578.2 1069.2 577.8Q1068.9 577.5 1068.8 576.9L1068.8 576.9L1068.8 576.1L1068.8 576.1Q1068.3 577.0 1067.3 577.6Q1066.3 578.1 1065.2 578.1ZM1066.0 576.1L1066.0 576.1Q1067.2 576.1 1068.0 575.4Q1068.8 574.7 1068.8 573.7L1068.8 573.7L1068.8 572.9L1066.1 573.0Q1065.2 573.1 1064.6 573.5Q1064.1 573.9 1064.1 574.6L1064.1 574.6Q1064.1 575.3 1064.6 575.7Q1065.2 576.1 1066.0 576.1ZM1077.8 578.1L1077.8 578.1Q1075.6 578.1 1074.4 576.5Q1073.1 575.0 1073.1 572.2L1073.1 572.2Q1073.1 569.5 1074.4 568.0Q1075.6 566.4 1077.8 566.4L1077.8 566.4Q1079.0 566.4 1079.9 566.9Q1080.9 567.5 1081.3 568.5L1081.3 568.5L1081.4 568.5L1081.4 563.6Q1081.4 563.0 1081.8 562.6Q1082.1 562.2 1082.7 562.2Q1083.3 562.2 1083.7 562.6Q1084.1 563.0 1084.1 563.6L1084.1 563.6L1084.1 576.8Q1084.1 577.5 1083.7 577.8Q1083.3 578.2 1082.7 578.2L1082.7 578.2Q1082.1 578.2 1081.8 577.8Q1081.4 577.5 1081.4 576.8L1081.4 576.8L1081.4 575.9L1081.3 575.9Q1080.9 576.9 1080.0 577.5Q1079.1 578.1 1077.8 578.1ZM1078.6 575.9L1078.6 575.9Q1079.9 575.9 1080.6 574.9Q1081.4 573.9 1081.4 572.3L1081.4 572.3Q1081.4 570.6 1080.6 569.6Q1079.9 568.6 1078.6 568.6L1078.6 568.6Q1077.3 568.6 1076.6 569.6Q1075.8 570.6 1075.8 572.3L1075.8 572.3Q1075.8 574.0 1076.6 575.0Q1077.3 575.9 1078.6 575.9ZM1088.7 577.8Q1088.3 578.2 1087.7 578.2Q1087.1 578.2 1086.8 577.8Q1086.4 577.4 1086.4 576.8L1086.4 576.8L1086.4 563.6Q1086.4 563.0 1086.7 562.6Q1087.1 562.2 1087.7 562.2L1087.7 562.2Q1088.3 562.2 1088.7 562.6Q1089.0 563.0 1089.0 563.6L1089.0 563.6L1089.0 568.5L1089.1 568.5Q1089.5 567.5 1090.5 566.9Q1091.4 566.3 1092.7 566.3L1092.7 566.3Q1094.6 566.3 1095.6 567.5Q1096.7 568.6 1096.7 570.6L1096.7 570.6L1096.7 576.8Q1096.7 577.4 1096.3 577.8Q1095.9 578.2 1095.3 578.2Q1094.7 578.2 1094.4 577.8Q1094.0 577.4 1094.0 576.8L1094.0 576.8L1094.0 571.2Q1094.0 569.9 1093.4 569.3Q1092.8 568.6 1091.7 568.6L1091.7 568.6Q1090.5 568.6 1089.8 569.4Q1089.1 570.1 1089.1 571.4L1089.1 571.4L1089.1 576.8Q1089.1 577.4 1088.7 577.8ZM1102.1 578.1L1102.1 578.1Q1100.5 578.1 1099.4 577.2Q1098.3 576.2 1098.3 574.7L1098.3 574.7Q1098.3 573.2 1099.5 572.3Q1100.6 571.4 1102.7 571.3L1102.7 571.3L1105.7 571.1L1105.7 570.3Q1105.7 569.4 1105.1 568.9Q1104.6 568.4 1103.6 568.4L1103.6 568.4Q1102.8 568.4 1102.2 568.7Q1101.7 569.0 1101.2 569.8L1101.2 569.8Q1100.8 570.3 1100.1 570.3L1100.1 570.3Q1099.6 570.3 1099.3 570.0Q1099.0 569.7 1099.0 569.2L1099.0 569.2Q1099.0 568.9 1099.2 568.5L1099.2 568.5Q1099.6 567.5 1100.8 566.9Q1102.0 566.3 1103.7 566.3L1103.7 566.3Q1105.8 566.3 1107.1 567.4Q1108.3 568.4 1108.3 570.1L1108.3 570.1L1108.3 576.8Q1108.3 577.5 1108.0 577.8Q1107.6 578.2 1107.0 578.2L1107.0 578.2Q1106.5 578.2 1106.1 577.8Q1105.8 577.5 1105.8 576.9L1105.8 576.9L1105.8 576.1L1105.7 576.1Q1105.2 577.0 1104.2 577.6Q1103.3 578.1 1102.1 578.1ZM1103.0 576.1L1103.0 576.1Q1104.1 576.1 1104.9 575.4Q1105.7 574.7 1105.7 573.7L1105.7 573.7L1105.7 572.9L1103.1 573.0Q1102.1 573.1 1101.6 573.5Q1101.0 573.9 1101.0 574.6L1101.0 574.6Q1101.0 575.3 1101.6 575.7Q1102.1 576.1 1103.0 576.1ZM1112.8 577.8Q1112.4 578.2 1111.8 578.2Q1111.2 578.2 1110.9 577.8Q1110.5 577.4 1110.5 576.8L1110.5 576.8L1110.5 567.7Q1110.5 567.1 1110.8 566.7Q1111.2 566.3 1111.8 566.3Q1112.4 566.3 1112.7 566.7Q1113.1 567.1 1113.1 567.7L1113.1 567.7L1113.1 568.5L1113.1 568.5Q1114.1 566.3 1116.7 566.3L1116.7 566.3Q1118.6 566.3 1119.6 567.5Q1120.6 568.6 1120.6 570.6L1120.6 570.6L1120.6 576.8Q1120.6 577.4 1120.3 577.8Q1119.9 578.2 1119.3 578.2Q1118.7 578.2 1118.3 577.8Q1118.0 577.4 1118.0 576.8L1118.0 576.8L1118.0 571.1Q1118.0 569.9 1117.4 569.3Q1116.8 568.6 1115.7 568.6L1115.7 568.6Q1114.5 568.6 1113.8 569.4Q1113.2 570.1 1113.2 571.4L1113.2 571.4L1113.2 576.8Q1113.2 577.4 1112.8 577.8ZM1124.6 575.2L1124.6 575.2Q1125.2 575.2 1125.5 575.5Q1125.8 575.8 1125.8 576.3L1125.8 576.3Q1125.8 576.6 1125.8 576.9L1125.8 576.9L1124.8 580.6Q1124.7 581.1 1124.5 581.3Q1124.2 581.5 1123.7 581.5Q1123.3 581.5 1123.0 581.2Q1122.7 581.0 1122.7 580.5L1122.7 580.5Q1122.7 580.4 1122.8 580.3L1122.8 580.3L1123.4 576.3Q1123.6 575.2 1124.6 575.2Z M1138.8 578.2L1138.8 578.2Q1136.6 578.2 1135.0 577.4Q1133.5 576.5 1133.1 575.2L1133.1 575.2Q1132.9 574.8 1132.9 574.4L1132.9 574.4Q1132.9 573.8 1133.2 573.4Q1133.6 573.1 1134.1 573.1L1134.1 573.1Q1134.6 573.1 1134.9 573.3Q1135.2 573.5 1135.4 574.0L1135.4 574.0Q1135.8 574.9 1136.7 575.4Q1137.6 575.9 1138.9 575.9L1138.9 575.9Q1140.3 575.9 1141.2 575.3Q1142.1 574.7 1142.1 573.7L1142.1 573.7Q1142.1 572.8 1141.4 572.3Q1140.8 571.8 1139.3 571.5L1139.3 571.5L1137.6 571.1Q1133.1 570.2 1133.1 566.8L1133.1 566.8Q1133.1 564.7 1134.7 563.5Q1136.3 562.2 1138.8 562.2L1138.8 562.2Q1140.9 562.2 1142.4 563.1Q1143.9 563.9 1144.3 565.5L1144.3 565.5Q1144.4 565.7 1144.4 566.1L1144.4 566.1Q1144.4 566.6 1144.1 566.9Q1143.8 567.2 1143.2 567.2L1143.2 567.2Q1142.3 567.2 1141.9 566.4L1141.9 566.4Q1141.1 564.5 1138.8 564.5L1138.8 564.5Q1137.5 564.5 1136.7 565.1Q1135.9 565.6 1135.9 566.6L1135.9 566.6Q1135.9 567.4 1136.5 567.9Q1137.1 568.4 1138.6 568.7L1138.6 568.7L1140.2 569.1Q1142.7 569.6 1143.8 570.6Q1144.9 571.6 1144.9 573.4L1144.9 573.4Q1144.9 575.6 1143.2 576.9Q1141.6 578.2 1138.8 578.2ZM1148.5 578.1L1148.5 578.1Q1147.9 578.1 1147.4 577.6Q1147.0 577.2 1147.0 576.5L1147.0 576.5Q1147.0 575.9 1147.4 575.4Q1147.9 575.0 1148.5 575.0L1148.5 575.0Q1149.2 575.0 1149.6 575.4Q1150.1 575.9 1150.1 576.5L1150.1 576.5Q1150.1 577.2 1149.6 577.6Q1149.2 578.1 1148.5 578.1Z " clip-path="url(#satori_cp-id-0)" mask="url(#satori_om-id-0)"/></svg>