<svg width="1200" height="630" viewBox="0 0 1200 630" xmlns="http://www.w3.org/2000/svg"><mask id="satori_om-id"><rect x="0" y="0" width="1200" height="630" fill="#fff"/></mask><defs><pattern id="satori_pattern_id-0_0" x="0" y="0" width="1" height="1" patternUnits="objectBoundingBox"><linearGradient id="satori_biid-0_0" x1="-0.09774620284174435" y1="0.18618324350808482" x2="1.0977462028417444" y2="0.8138167564919152" spreadMethod="pad"><stop offset="0%" stop-color="#f8fafc"/><stop offset="50%" stop-color="#eef2ff"/><stop offset="100%" stop-color="#ffffff"/></linearGradient><rect x="0" y="0" width="1200" height="630" fill="url(#satori_biid-0_0)"/></pattern></defs><clipPath id="satori_cp-id-0"><rect x="0" y="0" width="1200" height="630"/></clipPath><mask id="satori_om-id-0"><rect x="0" y="0" width="1200" height="630" fill="#fff"/></mask><rect x="0" y="0" width="1200" height="630" fill="url(#satori_pattern_id-0_0)"/><mask id="satori_om-id-0-0"><rect x="0" y="0" width="1200" height="509" fill="#fff" mask="url(#satori_om-id-0)"/></mask><mask id="satori_om-id-0-0-0"><rect x="72" y="72" width="1056" height="365" fill="#fff" mask="url(#satori_om-id-0)"/></mask><mask id="satori_om-id-0-0-0-0"><rect x="72" y="113" width="1056" height="38" fill="#fff" mask="url(#satori_om-id-0)"/></mask><path fill="#64748b" d="M82.7 143.2Q82.2 143.7 81.4 143.7Q80.6 143.7 80.1 143.2Q79.7 142.8 79.7 141.9L79.7 141.9L79.7 124.0L74.1 124.0Q73.4 124.0 73.0 123.5Q72.5 123.1 72.5 122.4Q72.5 121.8 73.0 121.3Q73.4 120.9 74.1 120.9L74.1 120.9L88.7 120.9Q89.4 120.9 89.9 121.3Q90.3 121.8 90.3 122.4Q90.3 123.1 89.9 123.5Q89.4 124.0 88.7 124.0L88.7 124.0L83.2 124.0L83.2 141.9Q83.2 142.8 82.7 143.2ZM95.5 143.3Q95.1 143.8 94.3 143.8Q93.6 143.8 93.1 143.3Q92.6 142.8 92.6 142.0L92.6 142.0L92.6 122.4Q92.6 121.6 93.1 121.1Q93.5 120.6 94.3 120.6L94.3 120.6Q95.1 120.6 95.5 121.1Q96.0 121.6 96.0 122.4L96.0 122.4L96.0 129.8L96.0 129.8Q96.7 128.3 98.1 127.5Q99.4 126.8 101.3 126.8L101.3 126.8Q103.9 126.8 105.5 128.4Q107.0 130.1 107.0 132.9L107.0 132.9L107.0 142.0Q107.0 142.8 106.5 143.3Q106.1 143.8 105.3 143.8L105.3 143.8Q104.6 143.8 104.1 143.3Q103.6 142.8 103.6 142.0L103.6 142.0L103.6 133.5Q103.6 131.7 102.7 130.7Q101.8 129.7 100.0 129.7L100.0 129.7Q98.2 129.7 97.1 130.8Q96 132.0 96 134.0L96 134.0L96 142.0Q96 142.8 95.5 143.3ZM116.0 143.8L116.0 143.8Q113.3 143.8 111.7 142.1Q110.2 140.5 110.2 137.7L110.2 137.7L110.2 128.5Q110.2 127.7 110.6 127.2Q111.1 126.7 111.9 126.7L111.9 126.7Q112.6 126.7 113.1 127.2Q113.6 127.7 113.6 128.5L113.6 128.5L113.6 137.0Q113.6 138.9 114.5 139.9Q115.3 140.9 117.1 140.9L117.1 140.9Q118.9 140.9 119.9 139.7Q121.0 138.5 121.0 136.6L121.0 136.6L121.0 128.5Q121.0 127.7 121.5 127.2Q121.9 126.7 122.7 126.7L122.7 126.7Q123.4 126.7 123.9 127.2Q124.4 127.7 124.4 128.5L124.4 128.5L124.4 142.0Q124.4 142.8 123.9 143.3Q123.5 143.8 122.8 143.8Q122.0 143.8 121.6 143.3Q121.1 142.8 121.1 142.1L121.1 142.1L121.1 140.7L121.0 140.7Q119.6 143.8 116.0 143.8ZM129.4 143.8L129.4 143.8Q128.6 143.8 128.1 143.3Q127.7 142.8 127.7 142.0L127.7 142.0L127.7 128.4Q127.7 127.7 128.1 127.2Q128.6 126.7 129.3 126.7L129.3 126.7Q130 126.7 130.4 127.2Q130.9 127.7 130.9 128.4L130.9 128.4L130.9 129.8L131.0 129.8Q131.3 128.5 132.3 127.6Q133.3 126.8 134.6 126.8L134.6 126.8Q135.5 126.8 135.9 127.2L135.9 127.2Q136.4 127.5 136.4 128.4L136.4 128.4Q136.4 129.1 135.9 129.5L135.9 129.5Q135.4 130.0 134.3 130.0L134.3 130.0Q132.7 130 131.9 131.0Q131.1 132.0 131.1 133.6L131.1 133.6L131.1 142.0Q131.1 142.8 130.6 143.3Q130.1 143.8 129.4 143.8ZM144.3 143.8L144.3 143.8Q141.9 143.8 140.2 142.9Q138.5 142.0 137.9 140.4L137.9 140.4Q137.7 140.1 137.7 139.7L137.7 139.7Q137.7 139.1 138.1 138.8Q138.5 138.4 139.2 138.4L139.2 138.4Q140.0 138.4 140.6 139.3L140.6 139.3Q141.3 140.3 142.1 140.8Q143.0 141.2 144.4 141.2L144.4 141.2Q145.9 141.2 146.8 140.6Q147.6 140.0 147.6 139.0L147.6 139.0Q147.6 138.2 147.1 137.7Q146.5 137.3 145.2 136.9L145.2 136.9L142.6 136.3Q137.9 135.2 137.9 131.7L137.9 131.7Q137.9 129.4 139.7 128.1Q141.5 126.7 144.4 126.7L144.4 126.7Q146.6 126.7 148.2 127.7Q149.9 128.7 150.3 130.2L150.3 130.2Q150.3 130.6 150.3 130.7L150.3 130.7Q150.3 131.3 150.0 131.6Q149.6 131.9 149 131.9L149 131.9Q148.1 131.9 147.6 131.2L147.6 131.2Q147.1 130.3 146.3 129.8Q145.5 129.3 144.3 129.3L144.3 129.3Q142.9 129.3 142.0 129.9Q141.2 130.5 141.2 131.5L141.2 131.5Q141.2 133.0 143.7 133.6L143.7 133.6L146.3 134.2Q148.9 134.8 150.0 135.9Q151.0 136.9 151.0 138.7L151.0 138.7Q151.0 141.0 149.2 142.4Q147.3 143.8 144.3 143.8ZM159.8 143.8L159.8 143.8Q156.7 143.8 154.8 141.4Q152.9 139.1 152.9 135.3Q152.9 131.4 154.8 129.1Q156.7 126.8 159.8 126.8L159.8 126.8Q161.5 126.8 162.9 127.6Q164.3 128.4 165.0 129.8L165.0 129.8L165.0 129.8L165.0 122.4Q165.0 121.6 165.5 121.1Q166.0 120.6 166.7 120.6L166.7 120.6Q167.5 120.6 167.9 121.1Q168.4 121.6 168.4 122.4L168.4 122.4L168.4 142.1Q168.4 142.9 167.9 143.3Q167.5 143.8 166.7 143.8L166.7 143.8Q166 143.8 165.5 143.3Q165.0 142.9 165.0 142.1L165.0 142.1L165.0 140.5L165.0 140.5Q164.3 142.0 163 142.9Q161.7 143.8 159.8 143.8ZM160.7 140.9L160.7 140.9Q162.7 140.9 163.9 139.4Q165.0 137.8 165.0 135.3L165.0 135.3Q165.0 132.7 163.9 131.2Q162.7 129.6 160.7 129.6L160.7 129.6Q158.7 129.6 157.5 131.1Q156.4 132.7 156.4 135.3L156.4 135.3Q156.4 137.9 157.5 139.4Q158.7 140.9 160.7 140.9ZM176.7 143.8L176.7 143.8Q174.3 143.8 172.7 142.4Q171.2 141 171.2 138.8L171.2 138.8Q171.2 136.6 172.8 135.4Q174.4 134.1 177.3 133.9L177.3 133.9L181.8 133.7L181.8 132.4Q181.8 131.0 180.9 130.3Q180.1 129.5 178.5 129.5L178.5 129.5Q177.3 129.5 176.4 130.0Q175.6 130.5 174.9 131.6L174.9 131.6Q174.4 132.3 173.5 132.3L173.5 132.3Q172.9 132.3 172.5 131.9Q172.0 131.5 172.0 130.9L172.0 130.9Q172.0 130.3 172.3 129.8L172.3 129.8Q173.0 128.4 174.7 127.6Q176.4 126.7 178.6 126.7L178.6 126.7Q181.6 126.7 183.4 128.2Q185.2 129.7 185.2 132.1L185.2 132.1L185.2 142.1Q185.2 142.8 184.7 143.3Q184.3 143.8 183.5 143.8L183.5 143.8Q182.8 143.8 182.4 143.3Q182.0 142.9 181.9 142.2L181.9 142.2L181.9 140.8L181.9 140.8Q181.2 142.1 179.7 142.9Q178.3 143.8 176.7 143.8ZM177.6 141.1L177.6 141.1Q179.4 141.1 180.6 140.0Q181.8 138.9 181.8 137.3L181.8 137.3L181.8 136.0L177.8 136.3Q176.2 136.4 175.4 137.0Q174.6 137.6 174.6 138.7L174.6 138.7Q174.6 139.8 175.4 140.4Q176.3 141.1 177.6 141.1ZM190.5 149.6L190.5 149.6Q189.3 149.6 188.7 149.2Q188.0 148.8 188.0 148.0L188.0 148.0Q188.0 147.4 188.4 147.1Q188.8 146.8 189.4 146.8L189.4 146.8Q189.5 146.8 189.8 146.8Q190.0 146.8 190.2 146.8L190.2 146.8Q191.9 146.8 192.7 144.6L192.7 144.6L193.0 143.6L187.5 129.3Q187.4 128.7 187.4 128.3L187.4 128.3Q187.4 127.6 187.8 127.2Q188.3 126.7 189.1 126.7L189.1 126.7Q189.7 126.7 190.1 127.0Q190.5 127.3 190.7 128.0L190.7 128.0L194.9 140.4L194.9 140.4L199.1 128.0Q199.3 127.3 199.7 127.0Q200.1 126.7 200.8 126.7L200.8 126.7Q201.5 126.7 201.9 127.2Q202.4 127.6 202.4 128.3L202.4 128.3Q202.4 128.7 202.2 129.2L202.2 129.2L196.5 144.3Q195.4 147.3 194.1 148.4Q192.8 149.6 190.5 149.6ZM207.2 139.7L207.2 139.7Q207.9 139.7 208.3 140.0Q208.7 140.4 208.7 141.1L208.7 141.1Q208.7 141.5 208.6 142.0L208.6 142.0L207.3 147.3Q207.0 148.5 205.8 148.5L205.8 148.5Q205.2 148.5 204.9 148.1Q204.5 147.8 204.5 147.3L204.5 147.3Q204.5 147.1 204.5 146.9L204.5 146.9L205.5 141.1Q205.8 139.7 207.2 139.7Z M233.7 143.5L221.2 143.5Q220.4 143.5 220.0 143.1Q219.5 142.7 219.5 142L219.5 142Q219.5 141.5 219.7 141.1Q219.9 140.8 220.5 140.2L220.5 140.2L227.6 133.0Q229.8 130.8 230.5 129.6Q231.2 128.4 231.2 127.1L231.2 127.1Q231.2 125.5 230.1 124.4Q229 123.4 227.3 123.4L227.3 123.4Q224.0 123.4 222.8 126.7L222.8 126.7Q222.5 127.3 222.2 127.6Q221.8 127.9 221.2 127.9L221.2 127.9Q220.5 127.9 220.1 127.5Q219.6 127.0 219.6 126.4L219.6 126.4Q219.6 126 219.7 125.6L219.7 125.6Q219.9 124.7 220.5 123.8Q221.1 122.9 222.0 122.2Q222.9 121.4 224.3 121.0Q225.7 120.5 227.3 120.5L227.3 120.5Q230.5 120.5 232.6 122.3Q234.7 124.1 234.7 126.9L234.7 126.9Q234.7 128.8 233.6 130.5Q232.6 132.1 229.7 135.0L229.7 135.0L224.3 140.4L224.3 140.5L233.7 140.5Q234.4 140.5 234.8 140.9Q235.2 141.3 235.2 142L235.2 142Q235.2 142.7 234.8 143.1Q234.4 143.5 233.7 143.5L233.7 143.5ZM246.6 143.9L246.6 143.9Q244.0 143.9 242.0 142.6Q240.1 141.3 239.0 138.9L239.0 138.9Q237.8 136.3 237.8 132.5L237.8 132.5Q237.8 126.8 240.1 123.7Q242.5 120.5 246.8 120.5L246.8 120.5Q249.1 120.5 251.0 121.5Q252.8 122.4 253.7 124.1L253.7 124.1Q254.1 124.8 254.1 125.4L254.1 125.4Q254.1 126.0 253.7 126.4Q253.3 126.8 252.6 126.8L252.6 126.8Q252.0 126.8 251.7 126.6Q251.3 126.3 250.8 125.7L250.8 125.7Q249.3 123.4 246.7 123.4L246.7 123.4Q244.1 123.4 242.6 125.7Q241.2 128.0 241.1 132.1L241.1 132.1L241.1 132.3L241.2 132.3Q241.9 130.7 243.6 129.7Q245.2 128.7 247.4 128.7L247.4 128.7Q250.7 128.7 252.8 130.8Q254.9 132.9 254.9 136.1L254.9 136.1Q254.9 139.5 252.5 141.7Q250.2 143.9 246.6 143.9ZM246.6 141.0L246.6 141.0Q248.6 141.0 250.0 139.6Q251.4 138.2 251.4 136.2L251.4 136.2Q251.4 134.2 250.0 132.8Q248.7 131.5 246.6 131.5Q244.5 131.5 243.2 132.8Q241.8 134.1 241.8 136.1L241.8 136.1Q241.8 138.2 243.2 139.6Q244.6 141.0 246.6 141.0Z M282.1 140.7Q279.3 143.8 274.4 143.8Q269.5 143.8 266.7 140.7Q263.8 137.6 263.8 132.2Q263.8 126.8 266.7 123.7Q269.5 120.5 274.4 120.5L274.4 120.5Q279.2 120.5 282.1 123.7Q284.9 126.8 284.9 132.2Q284.9 137.6 282.1 140.7ZM274.4 140.8L274.4 140.8Q277.6 140.8 279.5 138.5Q281.3 136.1 281.3 132.2L281.3 132.2Q281.3 128.3 279.5 125.9Q277.6 123.6 274.4 123.6L274.4 123.6Q271.2 123.6 269.3 125.9Q267.4 128.3 267.4 132.2L267.4 132.2Q267.4 136.1 269.3 138.5Q271.2 140.8 274.4 140.8ZM294.9 143.8L294.9 143.8Q291.3 143.8 289.2 141.5Q287.1 139.2 287.1 135.3L287.1 135.3Q287.1 131.4 289.2 129.1Q291.3 126.7 294.9 126.7L294.9 126.7Q297.2 126.7 299.1 127.9Q300.9 129.0 301.5 130.7L301.5 130.7Q301.6 131.2 301.6 131.5L301.6 131.5Q301.6 132.1 301.2 132.5Q300.8 132.9 300.2 132.9L300.2 132.9Q299.7 132.9 299.3 132.7Q299.0 132.4 298.7 131.9L298.7 131.9Q298.0 130.7 297.1 130.1Q296.2 129.5 294.9 129.5L294.9 129.5Q292.9 129.5 291.8 131.1Q290.6 132.6 290.6 135.3L290.6 135.3Q290.6 137.9 291.8 139.4Q292.9 141.0 294.9 141.0L294.9 141.0Q297.4 141.0 298.7 138.7L298.7 138.7Q299.0 138.1 299.3 137.9Q299.7 137.6 300.2 137.6L300.2 137.6Q300.8 137.6 301.3 138.0Q301.7 138.4 301.7 139.0L301.7 139.0Q301.7 139.4 301.5 139.9L301.5 139.9Q300.8 141.6 299 142.7Q297.2 143.8 294.9 143.8ZM305.4 139.5L305.4 139.5L305.4 129.7L304.2 129.7Q303.5 129.7 303.2 129.4Q302.8 129 302.8 128.4Q302.8 127.8 303.2 127.4Q303.5 127.0 304.2 127.0L304.2 127.0L305.4 127.0L305.4 124.6Q305.4 123.8 305.8 123.3Q306.3 122.8 307.1 122.8Q307.8 122.8 308.3 123.3Q308.8 123.8 308.8 124.6L308.8 124.6L308.8 127.0L310.7 127.0Q311.3 127.0 311.7 127.4Q312.1 127.8 312.1 128.4Q312.1 129 311.7 129.4Q311.3 129.7 310.7 129.7L310.7 129.7L308.8 129.7L308.8 138.8Q308.8 139.8 309.1 140.3Q309.5 140.7 310.4 140.8L310.4 140.8L310.7 140.8Q312.2 140.9 312.2 142.1L312.2 142.1Q312.2 143.6 309.7 143.6L309.7 143.6L309.5 143.6Q305.4 143.6 305.4 139.5ZM327.4 141.5Q325.3 143.8 321.7 143.8Q318.2 143.8 316.0 141.5Q313.9 139.2 313.9 135.3L313.9 135.3Q313.9 131.3 316.0 129.0Q318.2 126.7 321.7 126.7Q325.3 126.7 327.4 129.0Q329.5 131.3 329.5 135.3L329.5 135.3Q329.5 139.2 327.4 141.5ZM321.7 141L321.7 141Q323.7 141 324.9 139.5Q326.1 138.0 326.1 135.3L326.1 135.3Q326.1 132.5 324.9 131.0Q323.7 129.5 321.7 129.5Q319.7 129.5 318.5 131.0Q317.4 132.5 317.4 135.3L317.4 135.3Q317.4 138.0 318.5 139.5Q319.7 141 321.7 141ZM333.9 143.8L333.9 143.8Q333.1 143.8 332.7 143.3Q332.3 142.9 332.3 142.1L332.3 142.1L332.3 122.4Q332.3 121.6 332.7 121.1Q333.2 120.6 333.9 120.6Q334.7 120.6 335.2 121.1Q335.6 121.6 335.6 122.4L335.6 122.4L335.6 129.8L335.7 129.8Q336.5 128.4 337.8 127.6Q339.2 126.8 340.9 126.8L340.9 126.8Q344.0 126.8 345.9 129.1Q347.8 131.4 347.8 135.3L347.8 135.3Q347.8 139.2 345.9 141.5Q344.0 143.8 340.9 143.8L340.9 143.8Q339.1 143.8 337.7 142.9Q336.4 142.1 335.6 140.7L335.6 140.7L335.5 140.7L335.5 142.1Q335.5 142.9 335.1 143.3Q334.6 143.8 333.9 143.8ZM340.0 140.9L340.0 140.9Q342.0 140.9 343.1 139.4Q344.3 137.9 344.3 135.3L344.3 135.3Q344.3 132.7 343.1 131.1Q342.0 129.6 340.0 129.6L340.0 129.6Q338.0 129.6 336.8 131.2Q335.6 132.7 335.6 135.3L335.6 135.3Q335.6 137.8 336.8 139.3Q338.0 140.9 340.0 140.9ZM357.5 143.8L357.5 143.8Q353.8 143.8 351.7 141.5Q349.6 139.3 349.6 135.3L349.6 135.3Q349.6 131.4 351.7 129.1Q353.8 126.7 357.3 126.7L357.3 126.7Q360.5 126.7 362.6 128.9Q364.6 131 364.6 134.4L364.6 134.4Q364.6 135.2 364.2 135.6Q363.8 136.1 363.0 136.1L363.0 136.1L353.0 136.1L353.0 136.2Q353.0 138.4 354.2 139.7Q355.4 141.0 357.4 141.0L357.4 141.0Q358.8 141.0 359.8 140.5Q360.7 140.0 361.7 138.7L361.7 138.7Q362.2 138.1 362.8 138.1L362.8 138.1Q363.5 138.1 363.9 138.5Q364.3 138.9 364.3 139.5L364.3 139.5Q364.3 139.8 364.0 140.4L364.0 140.4Q363.2 142 361.5 142.9Q359.8 143.8 357.5 143.8ZM353.0 133.7L353.0 133.7L361.3 133.7Q361.2 131.8 360.1 130.6Q359 129.5 357.2 129.5L357.2 129.5Q355.5 129.5 354.3 130.6Q353.2 131.8 353.0 133.7ZM368.9 143.8L368.9 143.8Q368.2 143.8 367.7 143.3Q367.3 142.8 367.3 142.0L367.3 142.0L367.3 128.4Q367.3 127.7 367.7 127.2Q368.1 126.7 368.9 126.7L368.9 126.7Q369.6 126.7 370.0 127.2Q370.5 127.7 370.5 128.4L370.5 128.4L370.5 129.8L370.5 129.8Q370.9 128.5 371.9 127.6Q372.9 126.8 374.1 126.8L374.1 126.8Q375.0 126.8 375.5 127.2L375.5 127.2Q375.9 127.5 375.9 128.4L375.9 128.4Q375.9 129.1 375.4 129.5L375.4 129.5Q374.9 130.0 373.9 130.0L373.9 130.0Q372.2 130 371.4 131.0Q370.6 132.0 370.6 133.6L370.6 133.6L370.6 142.0Q370.6 142.8 370.2 143.3Q369.7 143.8 368.9 143.8Z M398.4 143.5L385.9 143.5Q385.1 143.5 384.7 143.1Q384.3 142.7 384.3 142L384.3 142Q384.3 141.5 384.4 141.1Q384.6 140.8 385.2 140.2L385.2 140.2L392.3 133.0Q394.5 130.8 395.2 129.6Q395.9 128.4 395.9 127.1L395.9 127.1Q395.9 125.5 394.8 124.4Q393.7 123.4 392 123.4L392 123.4Q388.7 123.4 387.5 126.7L387.5 126.7Q387.2 127.3 386.9 127.6Q386.5 127.9 385.9 127.9L385.9 127.9Q385.2 127.9 384.8 127.5Q384.3 127.0 384.3 126.4L384.3 126.4Q384.3 126 384.4 125.6L384.4 125.6Q384.6 124.7 385.2 123.8Q385.8 122.9 386.7 122.2Q387.6 121.4 389.0 121.0Q390.4 120.5 392.0 120.5L392.0 120.5Q395.3 120.5 397.3 122.3Q399.4 124.1 399.4 126.9L399.4 126.9Q399.4 128.8 398.3 130.5Q397.3 132.1 394.4 135.0L394.4 135.0L389 140.4L389 140.5L398.4 140.5Q399.1 140.5 399.5 140.9Q399.9 141.3 399.9 142L399.9 142Q399.9 142.7 399.5 143.1Q399.1 143.5 398.4 143.5L398.4 143.5ZM417.4 140.7Q415.1 143.9 411.1 143.9Q407.0 143.9 404.8 140.7Q402.5 137.6 402.5 132.2L402.5 132.2Q402.5 126.8 404.8 123.6Q407.1 120.5 411.1 120.5L411.1 120.5Q415.1 120.5 417.4 123.6Q419.7 126.8 419.7 132.2L419.7 132.2Q419.7 137.6 417.4 140.7ZM411.1 141.0L411.1 141.0Q413.5 141.0 414.8 138.6Q416.2 136.3 416.2 132.2L416.2 132.2Q416.2 128.1 414.8 125.8Q413.5 123.4 411.1 123.4Q408.7 123.4 407.3 125.8Q406 128.1 406 132.2L406 132.2Q406 136.3 407.3 138.6Q408.7 141.0 411.1 141.0ZM436.9 143.5L424.4 143.5Q423.6 143.5 423.2 143.1Q422.8 142.7 422.8 142L422.8 142Q422.8 141.5 422.9 141.1Q423.1 140.8 423.7 140.2L423.7 140.2L430.8 133.0Q433.0 130.8 433.7 129.6Q434.4 128.4 434.4 127.1L434.4 127.1Q434.4 125.5 433.3 124.4Q432.2 123.4 430.5 123.4L430.5 123.4Q427.2 123.4 426.0 126.7L426.0 126.7Q425.7 127.3 425.4 127.6Q425 127.9 424.4 127.9L424.4 127.9Q423.7 127.9 423.3 127.5Q422.8 127.0 422.8 126.4L422.8 126.4Q422.8 126 422.9 125.6L422.9 125.6Q423.1 124.7 423.7 123.8Q424.3 122.9 425.2 122.2Q426.1 121.4 427.5 121.0Q428.9 120.5 430.5 120.5L430.5 120.5Q433.8 120.5 435.8 122.3Q437.9 124.1 437.9 126.9L437.9 126.9Q437.9 128.8 436.8 130.5Q435.8 132.1 432.9 135.0L432.9 135.0L427.5 140.4L427.5 140.5L436.9 140.5Q437.6 140.5 438.0 140.9Q438.4 141.3 438.4 142L438.4 142Q438.4 142.7 438.0 143.1Q437.6 143.5 436.9 143.5L436.9 143.5ZM449.2 143.9L449.2 143.9Q446.5 143.9 444.6 142.9Q442.7 141.9 441.8 140.2L441.8 140.2Q441.3 139.3 441.3 138.5L441.3 138.5Q441.3 137.8 441.7 137.4Q442.1 136.9 442.9 136.9L442.9 136.9Q443.4 136.9 443.8 137.2Q444.2 137.5 444.4 138.1L444.4 138.1Q445.6 141.0 449.2 141.0L449.2 141.0Q451.3 141.0 452.5 139.9Q453.8 138.9 453.8 137.2L453.8 137.2Q453.8 135.3 452.5 134.3Q451.3 133.2 449.0 133.2L449.0 133.2L447.5 133.2Q446.8 133.2 446.4 132.8Q446.0 132.5 446.0 131.8Q446.0 131.2 446.4 130.9Q446.8 130.5 447.5 130.5L447.5 130.5L448.9 130.5Q450.8 130.5 452 129.5Q453.2 128.4 453.2 126.9L453.2 126.9Q453.2 125.3 452.2 124.3Q451.1 123.4 449.2 123.4L449.2 123.4Q447.5 123.4 446.5 124.1Q445.4 124.8 444.8 126.2L444.8 126.2Q444.6 126.9 444.2 127.2Q443.9 127.4 443.3 127.4L443.3 127.4Q442.5 127.4 442.1 127.0Q441.8 126.6 441.8 125.9L441.8 125.9Q441.8 125.1 442.2 124.2L442.2 124.2Q443.0 122.5 444.9 121.5Q446.7 120.5 449.2 120.5L449.2 120.5Q452.6 120.5 454.6 122.2Q456.6 123.8 456.6 126.4L456.6 126.4Q456.6 128.4 455.3 129.8Q454 131.2 451.9 131.7L451.9 131.7L451.9 131.8Q454.4 132.0 455.9 133.4Q457.4 134.9 457.4 137.2L457.4 137.2Q457.4 140.2 455.1 142.0Q452.8 143.9 449.2 143.9Z " clip-path="url(#satori_cp-id-0)" mask="url(#satori_om-id-0)"/><mask id="satori_om-id-0-0-0-1"><rect x="72" y="175" width="1056" height="221" fill="#fff" mask="url(#satori_om-id-0)"/></mask><path fill="#0f172a" d="M83.9 233.8Q82.7 235.1 80.5 235.1Q78.3 235.1 77 233.8Q75.8 232.6 75.8 230.2L75.8 230.2L75.8 194.4Q75.8 192.1 77 190.8Q78.3 189.5 80.5 189.5L80.5 189.5L101.6 189.5Q103.5 189.5 104.7 190.5Q105.8 191.6 105.8 193.4Q105.8 195.2 104.7 196.2Q103.5 197.3 101.6 197.3L101.6 197.3L85.2 197.3L85.2 209.3L100.0 209.3Q101.9 209.3 103.0 210.3Q104.1 211.3 104.1 213.1L104.1 213.1Q104.1 214.8 103.0 215.8Q101.9 216.8 100.0 216.8L100.0 216.8L85.2 216.8L85.2 230.2Q85.2 232.6 83.9 233.8ZM137.6 230.6Q133.1 235.3 125.4 235.3Q117.8 235.3 113.3 230.6Q108.8 226.0 108.8 217.8L108.8 217.8Q108.8 209.7 113.4 205.0Q117.9 200.3 125.4 200.3L125.4 200.3Q133.0 200.3 137.5 205.0Q142.0 209.7 142.0 217.8L142.0 217.8Q142.0 226.0 137.6 230.6ZM125.4 228.3L125.4 228.3Q128.8 228.3 130.8 225.6Q132.8 222.8 132.8 217.8L132.8 217.8Q132.8 212.9 130.8 210.1Q128.8 207.3 125.4 207.3Q122.1 207.3 120.1 210.1Q118.1 212.9 118.1 217.8L118.1 217.8Q118.1 222.8 120.1 225.6Q122.0 228.3 125.4 228.3ZM151.3 235.2L151.3 235.2Q149.2 235.2 148.0 234.0Q146.7 232.7 146.7 230.5L146.7 230.5L146.7 205.0Q146.7 202.8 147.9 201.6Q149.1 200.4 151.1 200.4L151.1 200.4Q153.1 200.4 154.3 201.6Q155.4 202.8 155.4 205.0L155.4 205.0L155.4 207.1L155.6 207.1Q156.3 204.1 158.2 202.3Q160.1 200.5 162.6 200.5L162.6 200.5Q164.4 200.5 165.4 201.4L165.4 201.4Q166.8 202.4 166.8 204.7L166.8 204.7Q166.8 206.9 165.4 208.0L165.4 208.0Q164.1 209.2 161.5 209.2L161.5 209.2Q158.5 209.2 157.2 210.8Q155.8 212.5 155.8 215.6L155.8 215.6L155.8 230.5Q155.8 232.7 154.6 234.0Q153.4 235.2 151.3 235.2ZM185.0 247.1L185.0 247.1Q180 247.1 176.3 245.4Q172.6 243.7 170.9 241.0L170.9 241.0Q170.2 239.8 170.2 238.5L170.2 238.5Q170.2 237.0 171.2 236.1Q172.2 235.1 173.9 235.1L173.9 235.1Q175.6 235.1 177.1 236.4L177.1 236.4Q180.9 240.1 184.9 240.1L184.9 240.1Q188.7 240.1 190.8 238.2Q192.9 236.4 192.9 233.2L192.9 233.2L192.9 227.8L192.7 227.8Q191.5 230.6 188.7 232.2Q186.0 233.8 182.4 233.8L182.4 233.8Q176.1 233.8 172.5 229.4Q168.8 224.9 168.8 217.2L168.8 217.2Q168.8 209.4 172.4 204.9Q176.1 200.5 182.5 200.5L182.5 200.5Q186.1 200.5 188.7 202.2Q191.4 203.9 192.8 206.8L192.8 206.8L192.9 206.8L192.9 205.0Q192.9 202.7 194.2 201.6Q195.5 200.4 197.5 200.4L197.5 200.4Q199.6 200.4 200.8 201.6Q202.1 202.7 202.1 205.0L202.1 205.0L202.1 233.2Q202.1 239.8 197.5 243.5Q193.0 247.2 185.0 247.1ZM185.5 227.1L185.5 227.1Q188.9 227.1 190.9 224.5Q193.0 221.9 193.0 217.4Q193.0 212.8 190.9 210.1Q188.9 207.5 185.5 207.5L185.5 207.5Q182.1 207.5 180.1 210.1Q178.1 212.8 178.1 217.3L178.1 217.3Q178.1 221.9 180.1 224.5Q182.1 227.1 185.5 227.1ZM223.4 235.3L223.4 235.3Q215.5 235.3 211.1 230.7Q206.8 226.1 206.8 218.0L206.8 218.0Q206.8 209.9 211.1 205.1Q215.5 200.3 222.9 200.3L222.9 200.3Q230.0 200.3 234.4 204.7Q238.8 209.1 238.8 215.9L238.8 215.9Q238.8 217.8 237.8 218.9Q236.8 219.9 234.8 219.9L234.8 219.9L215.7 219.9L215.7 220.3Q215.7 224.0 217.8 226.3Q219.9 228.5 223.3 228.5L223.3 228.5Q225.8 228.5 227.7 227.6Q229.5 226.7 231.3 224.5L231.3 224.5Q232.7 223.1 234.3 223.1L234.3 223.1Q235.8 223.1 236.9 224.1Q237.9 225.0 237.9 226.5L237.9 226.5Q237.9 227.6 237.3 228.7L237.3 228.7Q235.6 231.8 231.9 233.5Q228.2 235.3 223.4 235.3ZM215.8 214.3L215.8 214.3L230.0 214.3Q229.9 211.0 228.0 209.1Q226.0 207.1 223.0 207.1Q220.0 207.1 218.0 209.1Q216.1 211.1 215.8 214.3ZM245.9 226.0L245.9 226.0L245.9 207.9L244.2 207.9Q242.6 207.9 241.6 207.0Q240.7 206.1 240.7 204.5Q240.7 202.9 241.6 202.0Q242.6 201.1 244.2 201.1L244.2 201.1L245.9 201.1L245.9 197.3Q245.9 195.1 247.2 193.8Q248.4 192.6 250.5 192.6Q252.6 192.6 253.8 193.8Q255.1 195.1 255.1 197.3L255.1 197.3L255.1 201.1L258.3 201.1Q259.9 201.1 260.8 202.0Q261.8 202.9 261.8 204.5Q261.8 206.1 260.8 207.0Q259.9 207.9 258.3 207.9L258.3 207.9L255.1 207.9L255.1 224.0Q255.1 225.7 255.7 226.6Q256.4 227.4 257.8 227.5L257.8 227.5L258.4 227.6Q260.2 227.7 261.0 228.5Q261.9 229.3 261.9 230.9L261.9 230.9Q261.9 232.8 260.2 233.9Q258.4 234.9 255.4 234.9L255.4 234.9L255.1 234.9Q245.9 234.9 245.9 226.0ZM276.6 234.0Q275.3 235.2 273.3 235.2Q271.2 235.2 269.9 234.0Q268.7 232.8 268.7 230.5L268.7 230.5L268.7 207.9L266.9 207.9Q265.5 207.9 264.5 207.0Q263.6 206.1 263.6 204.6Q263.6 203.0 264.5 202.1Q265.5 201.2 266.9 201.2L266.9 201.2L268.7 201.2L268.7 198.7Q268.7 193.8 271.1 191.4Q273.4 189.1 278.3 189.1L278.3 189.1Q281.8 189.1 283.4 190.1Q285.1 191.1 285.1 192.7L285.1 192.7Q285.1 194.6 283.3 195.1L283.3 195.1Q282.4 195.4 281.5 195.4L281.5 195.4Q279.4 195.5 278.5 196.3Q277.6 197.2 277.6 199.1L277.6 199.1L277.6 201.2L281.4 201.2Q282.9 201.2 283.8 202.1Q284.8 203.0 284.8 204.6Q284.8 206.1 283.8 207.0Q282.9 207.9 281.4 207.9L281.4 207.9L277.8 207.9L277.8 230.5Q277.8 232.8 276.6 234.0ZM300.9 235.2L300.9 235.2Q295.4 235.2 292.2 231.8Q288.9 228.5 288.9 222.6L288.9 222.6L288.9 205.1Q288.9 202.9 290.1 201.6Q291.4 200.4 293.4 200.4Q295.5 200.4 296.8 201.6Q298 202.9 298 205.1L298 205.1L298 220.7Q298 224.1 299.6 225.8Q301.2 227.6 304.3 227.6Q307.3 227.6 309.1 225.6Q310.8 223.6 310.8 220.2L310.8 220.2L310.8 205.1Q310.8 202.9 312.1 201.6Q313.3 200.4 315.4 200.4Q317.5 200.4 318.7 201.6Q320.0 202.9 320.0 205.1L320.0 205.1L320.0 230.6Q320.0 232.8 318.8 234.0Q317.6 235.2 315.6 235.2Q313.5 235.2 312.3 234.0Q311.2 232.8 311.2 230.6L311.2 230.6L311.2 228.5L311.0 228.5Q308.3 235.2 300.9 235.2ZM334 234.0Q332.8 235.2 330.7 235.2Q328.6 235.2 327.4 234.0Q326.1 232.7 326.1 230.5L326.1 230.5L326.1 193.6Q326.1 191.3 327.4 190.0Q328.6 188.8 330.7 188.8Q332.8 188.8 334 190.0Q335.3 191.3 335.3 193.6L335.3 193.6L335.3 230.5Q335.3 232.7 334 234.0Z M380.3 234.6L359.6 234.6Q357.3 234.6 356.1 233.3Q354.8 232.0 354.8 229.6L354.8 229.6L354.8 193.8Q354.8 191.4 356.1 190.1Q357.3 188.8 359.6 188.8Q361.8 188.8 363.0 190.1Q364.3 191.4 364.3 193.8L364.3 193.8L364.3 226.7L380.3 226.7Q382.2 226.7 383.4 227.8Q384.6 228.8 384.6 230.6Q384.6 232.5 383.4 233.5Q382.3 234.6 380.3 234.6L380.3 234.6ZM398.7 235.1L398.7 235.1Q393.9 235.1 390.7 232.2Q387.5 229.4 387.5 224.9L387.5 224.9Q387.5 220.4 390.9 217.8Q394.3 215.2 400.6 214.8L400.6 214.8L409 214.3L409 212.1Q409 209.8 407.5 208.5Q406.0 207.1 403.4 207.1L403.4 207.1Q401.3 207.1 399.8 207.9Q398.4 208.7 396.9 210.7L396.9 210.7Q395.4 212.4 393.3 212.4L393.3 212.4Q391.6 212.4 390.5 211.4Q389.4 210.4 389.4 208.9L389.4 208.9Q389.4 207.8 389.9 206.8L389.9 206.8Q391.1 203.8 394.8 202.1Q398.6 200.3 403.8 200.3L403.8 200.3Q410.2 200.3 414.1 203.4Q418.0 206.5 418.0 211.5L418.0 211.5L418.0 230.6Q418.0 232.8 416.8 234.0Q415.5 235.2 413.5 235.2L413.5 235.2Q411.6 235.2 410.5 234.2Q409.3 233.1 409.2 231.1L409.2 231.1L409.2 229.4L409.0 229.4Q407.6 232.1 404.8 233.6Q401.9 235.1 398.7 235.1ZM401.7 228.5L401.7 228.5Q404.8 228.5 406.9 226.7Q409 225.0 409 222.3L409 222.3L409 219.8L401.9 220.3Q399.4 220.5 398.0 221.6Q396.6 222.6 396.6 224.4L396.6 224.4Q396.6 226.3 398 227.4Q399.4 228.5 401.7 228.5ZM428.4 235.2L428.4 235.2Q426.3 235.2 425.1 234.0Q423.8 232.7 423.8 230.5L423.8 230.5L423.8 205.0Q423.8 202.8 425.0 201.6Q426.3 200.4 428.3 200.4L428.3 200.4Q430.2 200.4 431.4 201.6Q432.6 202.8 432.6 205.0L432.6 205.0L432.6 207.1L432.8 207.1Q433.4 204.1 435.3 202.3Q437.2 200.5 439.7 200.5L439.7 200.5Q441.6 200.5 442.6 201.4L442.6 201.4Q443.9 202.4 443.9 204.7L443.9 204.7Q443.9 206.9 442.6 208.0L442.6 208.0Q441.2 209.2 438.6 209.2L438.6 209.2Q435.6 209.2 434.3 210.8Q433.0 212.5 433.0 215.6L433.0 215.6L433.0 230.5Q433.0 232.7 431.8 234.0Q430.5 235.2 428.4 235.2ZM462.1 247.1L462.1 247.1Q457.1 247.1 453.4 245.4Q449.7 243.7 448 241.0L448 241.0Q447.3 239.8 447.3 238.5L447.3 238.5Q447.3 237.0 448.3 236.1Q449.3 235.1 451.0 235.1L451.0 235.1Q452.8 235.1 454.2 236.4L454.2 236.4Q458 240.1 462.1 240.1L462.1 240.1Q465.8 240.1 467.9 238.2Q470 236.4 470 233.2L470 233.2L470 227.8L469.8 227.8Q468.6 230.6 465.9 232.2Q463.1 233.8 459.5 233.8L459.5 233.8Q453.3 233.8 449.6 229.4Q445.9 224.9 445.9 217.2L445.9 217.2Q445.9 209.4 449.5 204.9Q453.2 200.5 459.7 200.5L459.7 200.5Q463.2 200.5 465.9 202.2Q468.5 203.9 469.9 206.8L469.9 206.8L470.1 206.8L470.1 205.0Q470.1 202.7 471.3 201.6Q472.6 200.4 474.7 200.4L474.7 200.4Q476.7 200.4 477.9 201.6Q479.2 202.7 479.2 205.0L479.2 205.0L479.2 233.2Q479.2 239.8 474.7 243.5Q470.2 247.2 462.1 247.1ZM462.6 227.1L462.6 227.1Q466.0 227.1 468.1 224.5Q470.1 221.9 470.1 217.4Q470.1 212.8 468.1 210.1Q466.0 207.5 462.6 207.5L462.6 207.5Q459.2 207.5 457.2 210.1Q455.3 212.8 455.3 217.3L455.3 217.3Q455.3 221.9 457.2 224.5Q459.2 227.1 462.6 227.1ZM500.5 235.3L500.5 235.3Q492.7 235.3 488.3 230.7Q483.9 226.1 483.9 218.0L483.9 218.0Q483.9 209.9 488.3 205.1Q492.6 200.3 500.1 200.3L500.1 200.3Q507.2 200.3 511.5 204.7Q515.9 209.1 515.9 215.9L515.9 215.9Q515.9 217.8 514.9 218.9Q513.9 219.9 512.0 219.9L512.0 219.9L492.8 219.9L492.8 220.3Q492.8 224.0 494.9 226.3Q497 228.5 500.5 228.5L500.5 228.5Q503.0 228.5 504.8 227.6Q506.6 226.7 508.5 224.5L508.5 224.5Q509.8 223.1 511.4 223.1L511.4 223.1Q513.0 223.1 514.0 224.1Q515 225.0 515 226.5L515 226.5Q515 227.6 514.4 228.7L514.4 228.7Q512.7 231.8 509.0 233.5Q505.3 235.3 500.5 235.3ZM492.9 214.3L492.9 214.3L507.2 214.3Q507.0 211.0 505.1 209.1Q503.2 207.1 500.2 207.1Q497.2 207.1 495.2 209.1Q493.2 211.1 492.9 214.3Z M559.5 234.6L538.8 234.6Q536.6 234.6 535.3 233.3Q534.1 232.0 534.1 229.6L534.1 229.6L534.1 193.8Q534.1 191.4 535.3 190.1Q536.6 188.8 538.8 188.8Q541 188.8 542.3 190.1Q543.5 191.4 543.5 193.8L543.5 193.8L543.5 226.7L559.5 226.7Q561.4 226.7 562.6 227.8Q563.8 228.8 563.8 230.6Q563.8 232.5 562.6 233.5Q561.5 234.6 559.5 234.6L559.5 234.6ZM577.9 235.1L577.9 235.1Q573.1 235.1 569.9 232.2Q566.7 229.4 566.7 224.9L566.7 224.9Q566.7 220.4 570.1 217.8Q573.5 215.2 579.8 214.8L579.8 214.8L588.2 214.3L588.2 212.1Q588.2 209.8 586.7 208.5Q585.2 207.1 582.6 207.1L582.6 207.1Q580.5 207.1 579.1 207.9Q577.6 208.7 576.1 210.7L576.1 210.7Q574.6 212.4 572.5 212.4L572.5 212.4Q570.8 212.4 569.7 211.4Q568.7 210.4 568.7 208.9L568.7 208.9Q568.7 207.8 569.1 206.8L569.1 206.8Q570.3 203.8 574.0 202.1Q577.8 200.3 583 200.3L583 200.3Q589.4 200.3 593.3 203.4Q597.2 206.5 597.2 211.5L597.2 211.5L597.2 230.6Q597.2 232.8 596.0 234.0Q594.8 235.2 592.8 235.2L592.8 235.2Q590.8 235.2 589.7 234.2Q588.5 233.1 588.4 231.1L588.4 231.1L588.4 229.4L588.2 229.4Q586.8 232.1 584.0 233.6Q581.2 235.1 577.9 235.1ZM580.9 228.5L580.9 228.5Q584.0 228.5 586.1 226.7Q588.2 225.0 588.2 222.3L588.2 222.3L588.2 219.8L581.2 220.3Q578.6 220.5 577.2 221.6Q575.8 222.6 575.8 224.4L575.8 224.4Q575.8 226.3 577.2 227.4Q578.6 228.5 580.9 228.5ZM610.9 234.0Q609.7 235.2 607.6 235.2Q605.6 235.2 604.3 234.0Q603.1 232.7 603.1 230.5L603.1 230.5L603.1 205.0Q603.1 202.8 604.2 201.6Q605.4 200.4 607.5 200.4Q609.5 200.4 610.8 201.6Q612.0 202.9 612.0 205.0L612.0 205.0L612.0 206.9L612.2 206.9Q615.0 200.4 622.5 200.4L622.5 200.4Q628.1 200.4 631.1 203.7Q634.2 207.1 634.2 213.0L634.2 213.0L634.2 230.5Q634.2 232.7 632.9 234.0Q631.7 235.2 629.6 235.2Q627.5 235.2 626.3 234.0Q625.0 232.7 625.0 230.5L625.0 230.5L625.0 214.9Q625.0 211.6 623.5 209.8Q621.9 208.0 618.9 208.0Q615.8 208.0 614.0 210.0Q612.2 212.1 612.2 215.3L612.2 215.3L612.2 230.5Q612.2 232.7 610.9 234.0ZM654.9 247.1L654.9 247.1Q649.9 247.1 646.2 245.4Q642.5 243.7 640.8 241.0L640.8 241.0Q640.1 239.8 640.1 238.5L640.1 238.5Q640.1 237.0 641.1 236.1Q642.2 235.1 643.8 235.1L643.8 235.1Q645.6 235.1 647 236.4L647 236.4Q650.8 240.1 654.9 240.1L654.9 240.1Q658.6 240.1 660.7 238.2Q662.8 236.4 662.8 233.2L662.8 233.2L662.8 227.8L662.6 227.8Q661.4 230.6 658.7 232.2Q655.9 233.8 652.3 233.8L652.3 233.8Q646.1 233.8 642.4 229.4Q638.7 224.9 638.7 217.2L638.7 217.2Q638.7 209.4 642.4 204.9Q646 200.5 652.5 200.5L652.5 200.5Q656 200.5 658.7 202.2Q661.3 203.9 662.7 206.8L662.7 206.8L662.9 206.8L662.9 205.0Q662.9 202.7 664.1 201.6Q665.4 200.4 667.5 200.4L667.5 200.4Q669.5 200.4 670.8 201.6Q672 202.7 672 205.0L672 205.0L672 233.2Q672 239.8 667.5 243.5Q663.0 247.2 654.9 247.1ZM655.4 227.1L655.4 227.1Q658.8 227.1 660.9 224.5Q662.9 221.9 662.9 217.4Q662.9 212.8 660.9 210.1Q658.8 207.5 655.4 207.5L655.4 207.5Q652.0 207.5 650.0 210.1Q648.1 212.8 648.1 217.3L648.1 217.3Q648.1 221.9 650.0 224.5Q652 227.1 655.4 227.1ZM689.8 235.2L689.8 235.2Q684.3 235.2 681.0 231.8Q677.8 228.5 677.8 222.6L677.8 222.6L677.8 205.1Q677.8 202.9 679 201.6Q680.3 200.4 682.3 200.4Q684.4 200.4 685.6 201.6Q686.9 202.9 686.9 205.1L686.9 205.1L686.9 220.7Q686.9 224.1 688.5 225.8Q690.1 227.6 693.1 227.6Q696.2 227.6 697.9 225.6Q699.7 223.6 699.7 220.2L699.7 220.2L699.7 205.1Q699.7 202.9 701.0 201.6Q702.2 200.4 704.3 200.4Q706.3 200.4 707.6 201.6Q708.8 202.9 708.8 205.1L708.8 205.1L708.8 230.6Q708.8 232.8 707.7 234.0Q706.5 235.2 704.4 235.2Q702.4 235.2 701.2 234.0Q700.0 232.8 700.0 230.6L700.0 230.6L700.0 228.5L699.8 228.5Q697.2 235.2 689.8 235.2ZM724.7 235.1L724.7 235.1Q719.8 235.1 716.7 232.2Q713.5 229.4 713.5 224.9L713.5 224.9Q713.5 220.4 716.8 217.8Q720.2 215.2 726.5 214.8L726.5 214.8L735.0 214.3L735.0 212.1Q735.0 209.8 733.5 208.5Q731.9 207.1 729.3 207.1L729.3 207.1Q727.3 207.1 725.8 207.9Q724.4 208.7 722.8 210.7L722.8 210.7Q721.3 212.4 719.2 212.4L719.2 212.4Q717.6 212.4 716.5 211.4Q715.4 210.4 715.4 208.9L715.4 208.9Q715.4 207.8 715.9 206.8L715.9 206.8Q717.0 203.8 720.8 202.1Q724.5 200.3 729.8 200.3L729.8 200.3Q736.2 200.3 740.1 203.4Q743.9 206.5 743.9 211.5L743.9 211.5L743.9 230.6Q743.9 232.8 742.7 234.0Q741.5 235.2 739.5 235.2L739.5 235.2Q737.6 235.2 736.4 234.2Q735.3 233.1 735.1 231.1L735.1 231.1L735.1 229.4L734.9 229.4Q733.6 232.1 730.7 233.6Q727.9 235.1 724.7 235.1ZM727.7 228.5L727.7 228.5Q730.7 228.5 732.8 226.7Q735.0 225.0 735.0 222.3L735.0 222.3L735.0 219.8L727.9 220.3Q725.3 220.5 724.0 221.6Q722.6 222.6 722.6 224.4L722.6 224.4Q722.6 226.3 724.0 227.4Q725.4 228.5 727.7 228.5ZM764.8 247.1L764.8 247.1Q759.8 247.1 756.1 245.4Q752.4 243.7 750.7 241.0L750.7 241.0Q750 239.8 750 238.5L750 238.5Q750 237.0 751.0 236.1Q752.0 235.1 753.7 235.1L753.7 235.1Q755.4 235.1 756.9 236.4L756.9 236.4Q760.7 240.1 764.8 240.1L764.8 240.1Q768.5 240.1 770.6 238.2Q772.7 236.4 772.7 233.2L772.7 233.2L772.7 227.8L772.5 227.8Q771.3 230.6 768.5 232.2Q765.8 233.8 762.2 233.8L762.2 233.8Q755.9 233.8 752.3 229.4Q748.6 224.9 748.6 217.2L748.6 217.2Q748.6 209.4 752.2 204.9Q755.9 200.5 762.3 200.5L762.3 200.5Q765.9 200.5 768.5 202.2Q771.2 203.9 772.6 206.8L772.6 206.8L772.8 206.8L772.8 205.0Q772.8 202.7 774.0 201.6Q775.3 200.4 777.3 200.4L777.3 200.4Q779.4 200.4 780.6 201.6Q781.9 202.7 781.9 205.0L781.9 205.0L781.9 233.2Q781.9 239.8 777.4 243.5Q772.8 247.2 764.8 247.1ZM765.3 227.1L765.3 227.1Q768.7 227.1 770.8 224.5Q772.8 221.9 772.8 217.4Q772.8 212.8 770.8 210.1Q768.7 207.5 765.3 207.5L765.3 207.5Q761.9 207.5 759.9 210.1Q757.9 212.8 757.9 217.3L757.9 217.3Q757.9 221.9 759.9 224.5Q761.9 227.1 765.3 227.1ZM803.2 235.3L803.2 235.3Q795.3 235.3 791.0 230.7Q786.6 226.1 786.6 218.0L786.6 218.0Q786.6 209.9 790.9 205.1Q795.3 200.3 802.8 200.3L802.8 200.3Q809.8 200.3 814.2 204.7Q818.6 209.1 818.6 215.9L818.6 215.9Q818.6 217.8 817.6 218.9Q816.6 219.9 814.7 219.9L814.7 219.9L795.5 219.9L795.5 220.3Q795.5 224.0 797.6 226.3Q799.7 228.5 803.2 228.5L803.2 228.5Q805.7 228.5 807.5 227.6Q809.3 226.7 811.2 224.5L811.2 224.5Q812.5 223.1 814.1 223.1L814.1 223.1Q815.7 223.1 816.7 224.1Q817.7 225.0 817.7 226.5L817.7 226.5Q817.7 227.6 817.1 228.7L817.1 228.7Q815.4 231.8 811.7 233.5Q808.0 235.3 803.2 235.3ZM795.6 214.3L795.6 214.3L809.8 214.3Q809.7 211.0 807.8 209.1Q805.8 207.1 802.8 207.1Q799.8 207.1 797.9 209.1Q795.9 211.1 795.6 214.3Z M844.1 234.0Q843.0 235.1 841.0 235.1Q839.0 235.1 837.9 234.0Q836.8 232.8 836.8 230.7L836.8 230.7L836.8 194.9Q836.8 192.1 838.4 190.4Q840.0 188.8 842.8 188.8L842.8 188.8Q845.3 188.8 846.8 190.0Q848.3 191.1 849.3 193.7L849.3 193.7L860.5 221.4L860.8 221.4L871.9 193.7Q872.9 191.1 874.5 190.0Q876.0 188.8 878.4 188.8L878.4 188.8Q881.3 188.8 882.9 190.4Q884.5 192.1 884.5 194.9L884.5 194.9L884.5 230.7Q884.5 232.8 883.4 234.0Q882.3 235.1 880.3 235.1Q878.3 235.1 877.2 234.0Q876.1 232.8 876.1 230.7L876.1 230.7L876.1 204.1L875.8 204.1L864.7 231.4Q863.5 234.3 860.7 234.3L860.7 234.3Q857.7 234.3 856.6 231.4L856.6 231.4L845.4 204.1L845.2 204.1L845.2 230.7Q845.2 232.8 844.1 234.0ZM918.7 230.6Q914.3 235.3 906.6 235.3Q898.9 235.3 894.5 230.6Q890 226.0 890 217.8L890 217.8Q890 209.7 894.5 205.0Q899.0 200.3 906.6 200.3L906.6 200.3Q914.2 200.3 918.7 205.0Q923.2 209.7 923.2 217.8L923.2 217.8Q923.2 226.0 918.7 230.6ZM906.6 228.3L906.6 228.3Q910.0 228.3 911.9 225.6Q913.9 222.8 913.9 217.8L913.9 217.8Q913.9 212.9 911.9 210.1Q910.0 207.3 906.6 207.3Q903.2 207.3 901.2 210.1Q899.3 212.9 899.3 217.8L899.3 217.8Q899.3 222.8 901.2 225.6Q903.2 228.3 906.6 228.3ZM940.3 235.1L940.3 235.1Q934.0 235.1 930.3 230.4Q926.7 225.8 926.7 217.7L926.7 217.7Q926.7 209.8 930.4 205.1Q934.1 200.5 940.4 200.5L940.4 200.5Q943.9 200.5 946.6 202.2Q949.3 204.0 950.6 206.8L950.6 206.8L950.8 206.8L950.8 193.6Q950.8 191.3 952.0 190.0Q953.3 188.8 955.3 188.8Q957.4 188.8 958.7 190.0Q959.9 191.3 959.9 193.6L959.9 193.6L959.9 230.6Q959.9 232.8 958.7 234.0Q957.4 235.2 955.4 235.2L955.4 235.2Q953.3 235.2 952.1 234.0Q950.8 232.8 950.8 230.6L950.8 230.6L950.8 228.6L950.6 228.6Q949.5 231.6 946.8 233.3Q944.1 235.1 940.3 235.1ZM943.4 227.7L943.4 227.7Q946.8 227.7 948.8 225.1Q950.8 222.4 950.8 217.8L950.8 217.8Q950.8 213.2 948.8 210.5Q946.8 207.8 943.4 207.8L943.4 207.8Q940.0 207.8 938.0 210.5Q936 213.2 936 217.8L936 217.8Q936 222.4 938.0 225.1Q940.0 227.7 943.4 227.7ZM981.4 235.3L981.4 235.3Q973.6 235.3 969.2 230.7Q964.8 226.1 964.8 218.0L964.8 218.0Q964.8 209.9 969.2 205.1Q973.5 200.3 981.0 200.3L981.0 200.3Q988.1 200.3 992.5 204.7Q996.8 209.1 996.8 215.9L996.8 215.9Q996.8 217.8 995.8 218.9Q994.8 219.9 992.9 219.9L992.9 219.9L973.8 219.9L973.8 220.3Q973.8 224.0 975.8 226.3Q977.9 228.5 981.4 228.5L981.4 228.5Q983.9 228.5 985.7 227.6Q987.5 226.7 989.4 224.5L989.4 224.5Q990.7 223.1 992.3 223.1L992.3 223.1Q993.9 223.1 994.9 224.1Q995.9 225.0 995.9 226.5L995.9 226.5Q995.9 227.6 995.3 228.7L995.3 228.7Q993.6 231.8 989.9 233.5Q986.3 235.3 981.4 235.3ZM973.8 214.3L973.8 214.3L988.1 214.3Q987.9 211.0 986 209.1Q984.1 207.1 981.1 207.1Q978.1 207.1 976.1 209.1Q974.1 211.1 973.8 214.3ZM1009.6 234.0Q1008.4 235.2 1006.3 235.2Q1004.3 235.2 1003 234.0Q1001.8 232.7 1001.8 230.5L1001.8 230.5L1001.8 193.6Q1001.8 191.3 1003 190.0Q1004.3 188.8 1006.3 188.8Q1008.4 188.8 1009.6 190.0Q1010.9 191.3 1010.9 193.6L1010.9 193.6L1010.9 230.5Q1010.9 232.7 1009.6 234.0ZM1030.7 235.3L1030.7 235.3Q1025.1 235.3 1021.3 233.4Q1017.5 231.6 1016.3 228.6L1016.3 228.6Q1015.9 227.6 1015.9 226.9L1015.9 226.9Q1015.9 225.3 1017.0 224.4Q1018.0 223.4 1019.6 223.4L1019.6 223.4Q1021.8 223.4 1023.6 225.5L1023.6 225.5Q1025.0 227.2 1026.7 228.1Q1028.3 228.9 1030.9 228.9L1030.9 228.9Q1033.4 228.9 1034.9 227.9Q1036.4 226.9 1036.4 225.3L1036.4 225.3Q1036.4 223.9 1035.4 223.1Q1034.4 222.3 1031.9 221.8L1031.9 221.8L1026.3 220.6Q1021.4 219.5 1018.9 217.1Q1016.4 214.6 1016.4 210.9L1016.4 210.9Q1016.4 206.1 1020.3 203.2Q1024.2 200.3 1030.7 200.3L1030.7 200.3Q1035.7 200.3 1039.3 202.3Q1042.9 204.3 1043.8 207.3L1043.8 207.3Q1044 208.1 1044 208.6L1044 208.6Q1044 210.1 1043.1 210.9Q1042.2 211.7 1040.5 211.7L1040.5 211.7Q1038.4 211.7 1037.2 210.3L1037.2 210.3Q1035.8 208.6 1034.3 207.7Q1032.8 206.7 1030.5 206.7L1030.5 206.7Q1028.2 206.7 1026.7 207.7Q1025.3 208.7 1025.3 210.4L1025.3 210.4Q1025.3 211.7 1026.3 212.6Q1027.4 213.5 1029.9 214.0L1029.9 214.0L1035.4 215.2Q1040.8 216.3 1043.1 218.4Q1045.5 220.6 1045.5 224.3L1045.5 224.3Q1045.5 229.3 1041.4 232.3Q1037.3 235.3 1030.7 235.3ZM1059.5 211.1Q1058.0 212.6 1055.9 212.6Q1053.8 212.6 1052.4 211.1Q1050.9 209.6 1050.9 207.6L1050.9 207.6Q1050.9 205.4 1052.4 204.0Q1053.8 202.5 1055.9 202.5Q1058.0 202.5 1059.5 204.0Q1061.0 205.5 1061.0 207.6Q1061.0 209.6 1059.5 211.1ZM1059.5 233.5Q1058.0 234.9 1055.9 234.9Q1053.8 234.9 1052.4 233.5Q1050.9 232.0 1050.9 229.9Q1050.9 227.8 1052.4 226.3Q1053.8 224.9 1055.9 224.9Q1058.0 224.9 1059.5 226.3Q1061.0 227.8 1061.0 229.9Q1061.0 232.0 1059.5 233.5Z M101.2 308.1L80.5 308.1Q78.3 308.1 77 306.9Q75.8 305.6 75.8 303.2L75.8 303.2L75.8 267.4Q75.8 265.0 77 263.7Q78.3 262.4 80.5 262.4Q82.7 262.4 83.9 263.7Q85.2 265.0 85.2 267.4L85.2 267.4L85.2 300.3L101.2 300.3Q103.1 300.3 104.3 301.4Q105.5 302.4 105.5 304.2Q105.5 306.1 104.3 307.1Q103.2 308.1 101.2 308.1L101.2 308.1ZM125.1 308.9L125.1 308.9Q117.3 308.9 112.9 304.3Q108.5 299.7 108.5 291.6L108.5 291.6Q108.5 283.5 112.9 278.7Q117.3 273.9 124.7 273.9L124.7 273.9Q131.8 273.9 136.2 278.3Q140.6 282.6 140.6 289.5L140.6 289.5Q140.6 291.4 139.5 292.5Q138.5 293.5 136.6 293.5L136.6 293.5L117.5 293.5L117.5 293.9Q117.5 297.6 119.5 299.9Q121.6 302.1 125.1 302.1L125.1 302.1Q127.6 302.1 129.4 301.2Q131.3 300.3 133.1 298.1L133.1 298.1Q134.4 296.7 136.1 296.7L136.1 296.7Q137.6 296.7 138.6 297.6Q139.6 298.6 139.6 300.1L139.6 300.1Q139.6 301.1 139 302.3L139 302.3Q137.3 305.4 133.7 307.1Q130.0 308.9 125.1 308.9ZM117.6 287.9L117.6 287.9L131.8 287.9Q131.7 284.6 129.7 282.6Q127.8 280.7 124.8 280.7Q121.8 280.7 119.8 282.7Q117.8 284.7 117.6 287.9ZM158.9 308.9L158.9 308.9Q153.3 308.9 149.5 307.0Q145.7 305.2 144.5 302.2L144.5 302.2Q144.2 301.2 144.2 300.5L144.2 300.5Q144.2 298.9 145.2 298.0Q146.3 297.0 147.8 297.0L147.8 297.0Q150.0 297.0 151.8 299.1L151.8 299.1Q153.2 300.8 154.9 301.6Q156.6 302.5 159.1 302.5L159.1 302.5Q161.6 302.5 163.1 301.5Q164.6 300.5 164.6 298.9L164.6 298.9Q164.6 297.5 163.6 296.7Q162.6 295.9 160.2 295.4L160.2 295.4L154.5 294.2Q149.6 293.1 147.1 290.7Q144.7 288.2 144.7 284.5L144.7 284.5Q144.7 279.6 148.5 276.8Q152.4 273.9 158.9 273.9L158.9 273.9Q163.9 273.9 167.5 275.9Q171.2 277.9 172 280.9L172 280.9Q172.2 281.7 172.2 282.2L172.2 282.2Q172.2 283.6 171.3 284.5Q170.4 285.3 168.7 285.3L168.7 285.3Q166.6 285.3 165.4 283.9L165.4 283.9Q164.0 282.2 162.5 281.3Q161 280.3 158.7 280.3L158.7 280.3Q156.4 280.3 154.9 281.3Q153.5 282.3 153.5 284.0L153.5 284.0Q153.5 285.3 154.6 286.2Q155.7 287.1 158.1 287.6L158.1 287.6L163.7 288.8Q169 289.9 171.4 292.0Q173.7 294.1 173.7 297.9L173.7 297.9Q173.7 302.9 169.6 305.9Q165.6 308.9 158.9 308.9ZM191.9 308.9L191.9 308.9Q186.3 308.9 182.5 307.0Q178.7 305.2 177.5 302.2L177.5 302.2Q177.1 301.2 177.1 300.5L177.1 300.5Q177.1 298.9 178.2 298.0Q179.2 297.0 180.8 297.0L180.8 297.0Q182.9 297.0 184.8 299.1L184.8 299.1Q186.2 300.8 187.8 301.6Q189.5 302.5 192.1 302.5L192.1 302.5Q194.6 302.5 196.1 301.5Q197.6 300.5 197.6 298.9L197.6 298.9Q197.6 297.5 196.6 296.7Q195.6 295.9 193.1 295.4L193.1 295.4L187.5 294.2Q182.6 293.1 180.1 290.7Q177.6 288.2 177.6 284.5L177.6 284.5Q177.6 279.6 181.5 276.8Q185.3 273.9 191.8 273.9L191.8 273.9Q196.9 273.9 200.5 275.9Q204.1 277.9 205.0 280.9L205.0 280.9Q205.2 281.7 205.2 282.2L205.2 282.2Q205.2 283.6 204.3 284.5Q203.4 285.3 201.7 285.3L201.7 285.3Q199.6 285.3 198.4 283.9L198.4 283.9Q197 282.2 195.5 281.3Q194.0 280.3 191.7 280.3L191.7 280.3Q189.4 280.3 187.9 281.3Q186.4 282.3 186.4 284.0L186.4 284.0Q186.4 285.3 187.5 286.2Q188.6 287.1 191.1 287.6L191.1 287.6L196.6 288.8Q202.0 289.9 204.3 292.0Q206.7 294.1 206.7 297.9L206.7 297.9Q206.7 302.9 202.6 305.9Q198.5 308.9 191.9 308.9ZM238.7 304.2Q234.2 308.9 226.6 308.9Q218.9 308.9 214.4 304.2Q210.0 299.6 210.0 291.4L210.0 291.4Q210.0 283.3 214.5 278.6Q219 273.9 226.6 273.9L226.6 273.9Q234.2 273.9 238.7 278.6Q243.2 283.3 243.2 291.4L243.2 291.4Q243.2 299.6 238.7 304.2ZM226.6 301.9L226.6 301.9Q229.9 301.9 231.9 299.1Q233.9 296.4 233.9 291.4L233.9 291.4Q233.9 286.5 231.9 283.7Q229.9 280.9 226.6 280.9Q223.2 280.9 221.2 283.7Q219.2 286.5 219.2 291.4L219.2 291.4Q219.2 296.4 221.2 299.1Q223.2 301.9 226.6 301.9ZM255.7 307.6Q254.5 308.8 252.4 308.8Q250.3 308.8 249.1 307.6Q247.8 306.3 247.8 304.1L247.8 304.1L247.8 278.6Q247.8 276.4 249.0 275.2Q250.2 274.0 252.3 274.0Q254.3 274.0 255.6 275.2Q256.8 276.5 256.8 278.6L256.8 278.6L256.8 280.5L257 280.5Q259.8 274.0 267.3 274.0L267.3 274.0Q272.9 274.0 275.9 277.3Q278.9 280.6 278.9 286.6L278.9 286.6L278.9 304.1Q278.9 306.3 277.7 307.6Q276.4 308.8 274.4 308.8Q272.3 308.8 271.1 307.6Q269.8 306.3 269.8 304.1L269.8 304.1L269.8 288.5Q269.8 285.1 268.3 283.4Q266.7 281.6 263.7 281.6Q260.6 281.6 258.8 283.6Q257.0 285.6 257.0 288.9L257.0 288.9L257.0 304.1Q257.0 306.3 255.7 307.6ZM298.4 308.9L298.4 308.9Q292.8 308.9 289.0 307.0Q285.2 305.2 284.0 302.2L284.0 302.2Q283.6 301.2 283.6 300.5L283.6 300.5Q283.6 298.9 284.7 298.0Q285.7 297.0 287.3 297.0L287.3 297.0Q289.4 297.0 291.3 299.1L291.3 299.1Q292.7 300.8 294.3 301.6Q296.0 302.5 298.6 302.5L298.6 302.5Q301.1 302.5 302.6 301.5Q304.1 300.5 304.1 298.9L304.1 298.9Q304.1 297.5 303.1 296.7Q302.1 295.9 299.6 295.4L299.6 295.4L294 294.2Q289.1 293.1 286.6 290.7Q284.1 288.2 284.1 284.5L284.1 284.5Q284.1 279.6 288.0 276.8Q291.8 273.9 298.3 273.9L298.3 273.9Q303.4 273.9 307.0 275.9Q310.6 277.9 311.5 280.9L311.5 280.9Q311.7 281.7 311.7 282.2L311.7 282.2Q311.7 283.6 310.8 284.5Q309.9 285.3 308.2 285.3L308.2 285.3Q306.1 285.3 304.9 283.9L304.9 283.9Q303.5 282.2 302.0 281.3Q300.5 280.3 298.2 280.3L298.2 280.3Q295.9 280.3 294.4 281.3Q292.9 282.3 292.9 284.0L292.9 284.0Q292.9 285.3 294.0 286.2Q295.1 287.1 297.6 287.6L297.6 287.6L303.1 288.8Q308.5 289.9 310.8 292.0Q313.2 294.1 313.2 297.9L313.2 297.9Q313.2 302.9 309.1 305.9Q305.0 308.9 298.4 308.9Z M356.6 308.1L335.8 308.1Q333.6 308.1 332.4 306.9Q331.1 305.6 331.1 303.2L331.1 303.2L331.1 267.4Q331.1 265.0 332.4 263.7Q333.6 262.4 335.8 262.4Q338.1 262.4 339.3 263.7Q340.6 265.0 340.6 267.4L340.6 267.4L340.6 300.3L356.6 300.3Q358.5 300.3 359.7 301.4Q360.8 302.4 360.8 304.2Q360.8 306.1 359.7 307.1Q358.5 308.1 356.6 308.1L356.6 308.1ZM380.5 308.9L380.5 308.9Q372.7 308.9 368.3 304.3Q363.9 299.7 363.9 291.6L363.9 291.6Q363.9 283.5 368.3 278.7Q372.6 273.9 380.1 273.9L380.1 273.9Q387.2 273.9 391.5 278.3Q395.9 282.6 395.9 289.5L395.9 289.5Q395.9 291.4 394.9 292.5Q393.9 293.5 392.0 293.5L392.0 293.5L372.8 293.5L372.8 293.9Q372.8 297.6 374.9 299.9Q377 302.1 380.5 302.1L380.5 302.1Q383.0 302.1 384.8 301.2Q386.6 300.3 388.5 298.1L388.5 298.1Q389.8 296.7 391.4 296.7L391.4 296.7Q393.0 296.7 394.0 297.6Q395 298.6 395 300.1L395 300.1Q395 301.1 394.4 302.3L394.4 302.3Q392.7 305.4 389.0 307.1Q385.3 308.9 380.5 308.9ZM372.9 287.9L372.9 287.9L387.2 287.9Q387.0 284.6 385.1 282.6Q383.2 280.7 380.2 280.7Q377.2 280.7 375.2 282.7Q373.2 284.7 372.9 287.9ZM410.5 308.7L410.5 308.7Q405.7 308.7 402.5 305.8Q399.3 303.0 399.3 298.5L399.3 298.5Q399.3 294.0 402.7 291.4Q406.1 288.8 412.4 288.4L412.4 288.4L420.8 287.9L420.8 285.7Q420.8 283.4 419.3 282.1Q417.8 280.7 415.2 280.7L415.2 280.7Q413.1 280.7 411.7 281.5Q410.2 282.3 408.7 284.3L408.7 284.3Q407.2 286.0 405.1 286.0L405.1 286.0Q403.4 286.0 402.3 285.0Q401.3 284.0 401.3 282.5L401.3 282.5Q401.3 281.4 401.7 280.4L401.7 280.4Q402.9 277.4 406.6 275.7Q410.4 273.9 415.6 273.9L415.6 273.9Q422.0 273.9 425.9 277.0Q429.8 280.1 429.8 285.1L429.8 285.1L429.8 304.2Q429.8 306.4 428.6 307.6Q427.3 308.8 425.3 308.8L425.3 308.8Q423.4 308.8 422.3 307.8Q421.1 306.7 421.0 304.7L421.0 304.7L421.0 303.0L420.8 303.0Q419.4 305.6 416.6 307.2Q413.8 308.7 410.5 308.7ZM413.5 302.1L413.5 302.1Q416.6 302.1 418.7 300.3Q420.8 298.6 420.8 295.9L420.8 295.9L420.8 293.4L413.8 293.9Q411.2 294.1 409.8 295.1Q408.4 296.2 408.4 298.0L408.4 298.0Q408.4 299.9 409.8 301.0Q411.2 302.1 413.5 302.1ZM440.2 308.8L440.2 308.8Q438.1 308.8 436.9 307.6Q435.7 306.3 435.7 304.1L435.7 304.1L435.7 278.6Q435.7 276.4 436.9 275.2Q438.1 274.0 440.1 274.0L440.1 274.0Q442 274.0 443.2 275.2Q444.4 276.4 444.4 278.6L444.4 278.6L444.4 280.7L444.6 280.7Q445.2 277.6 447.1 275.9Q449 274.1 451.5 274.1L451.5 274.1Q453.4 274.1 454.4 275.0L454.4 275.0Q455.7 276.0 455.7 278.3L455.7 278.3Q455.7 280.5 454.4 281.6L454.4 281.6Q453.0 282.8 450.4 282.8L450.4 282.8Q447.4 282.8 446.1 284.4Q444.8 286.1 444.8 289.2L444.8 289.2L444.8 304.1Q444.8 306.3 443.6 307.6Q442.3 308.8 440.2 308.8ZM466.8 307.6Q465.6 308.8 463.5 308.8Q461.4 308.8 460.2 307.6Q458.9 306.3 458.9 304.1L458.9 304.1L458.9 278.6Q458.9 276.4 460.1 275.2Q461.3 274.0 463.3 274.0Q465.4 274.0 466.7 275.2Q467.9 276.5 467.9 278.6L467.9 278.6L467.9 280.5L468.1 280.5Q470.8 274.0 478.4 274.0L478.4 274.0Q484.0 274.0 487 277.3Q490.0 280.6 490.0 286.6L490.0 286.6L490.0 304.1Q490.0 306.3 488.8 307.6Q487.5 308.8 485.5 308.8Q483.4 308.8 482.2 307.6Q480.9 306.3 480.9 304.1L480.9 304.1L480.9 288.5Q480.9 285.1 479.3 283.4Q477.8 281.6 474.8 281.6Q471.7 281.6 469.9 283.6Q468.1 285.6 468.1 288.9L468.1 288.9L468.1 304.1Q468.1 306.3 466.8 307.6ZM511.2 308.9L511.2 308.9Q503.4 308.9 499.0 304.3Q494.6 299.7 494.6 291.6L494.6 291.6Q494.6 283.5 499.0 278.7Q503.3 273.9 510.8 273.9L510.8 273.9Q517.9 273.9 522.3 278.3Q526.7 282.6 526.7 289.5L526.7 289.5Q526.7 291.4 525.6 292.5Q524.6 293.5 522.7 293.5L522.7 293.5L503.6 293.5L503.6 293.9Q503.6 297.6 505.6 299.9Q507.7 302.1 511.2 302.1L511.2 302.1Q513.7 302.1 515.5 301.2Q517.3 300.3 519.2 298.1L519.2 298.1Q520.5 296.7 522.2 296.7L522.2 296.7Q523.7 296.7 524.7 297.6Q525.7 298.6 525.7 300.1L525.7 300.1Q525.7 301.1 525.1 302.3L525.1 302.3Q523.4 305.4 519.8 307.1Q516.1 308.9 511.2 308.9ZM503.7 287.9L503.7 287.9L517.9 287.9Q517.8 284.6 515.8 282.6Q513.9 280.7 510.9 280.7Q507.9 280.7 505.9 282.7Q503.9 284.7 503.7 287.9ZM543.8 308.7L543.8 308.7Q537.5 308.7 533.8 304.0Q530.1 299.4 530.1 291.3L530.1 291.3Q530.1 283.4 533.8 278.7Q537.5 274.1 543.8 274.1L543.8 274.1Q547.4 274.1 550.1 275.8Q552.8 277.6 554.1 280.4L554.1 280.4L554.3 280.4L554.3 267.1Q554.3 264.9 555.5 263.6Q556.8 262.4 558.8 262.4Q560.9 262.4 562.1 263.6Q563.4 264.9 563.4 267.1L563.4 267.1L563.4 304.2Q563.4 306.4 562.1 307.6Q560.9 308.8 558.8 308.8L558.8 308.8Q556.8 308.8 555.5 307.6Q554.3 306.4 554.3 304.2L554.3 304.2L554.3 302.2L554.1 302.2Q553.0 305.1 550.3 306.9Q547.5 308.7 543.8 308.7ZM546.9 301.3L546.9 301.3Q550.3 301.3 552.3 298.7Q554.3 296.0 554.3 291.4L554.3 291.4Q554.3 286.8 552.3 284.1Q550.3 281.4 546.9 281.4L546.9 281.4Q543.4 281.4 541.5 284.1Q539.5 286.8 539.5 291.4L539.5 291.4Q539.5 296.0 541.5 298.7Q543.4 301.3 546.9 301.3Z M592.5 307.6Q591.2 308.8 589.1 308.8Q587.0 308.8 585.8 307.6Q584.6 306.4 584.6 304.1L584.6 304.1L584.6 281.5L582.8 281.5Q581.3 281.5 580.4 280.6Q579.5 279.7 579.5 278.1Q579.5 276.6 580.4 275.7Q581.3 274.8 582.8 274.8L582.8 274.8L584.6 274.8L584.6 272.3Q584.6 267.4 586.9 265.0Q589.3 262.7 594.1 262.6L594.1 262.6Q597.6 262.6 599.3 263.6Q601 264.6 601 266.3L601 266.3Q601 268.2 599.2 268.7L599.2 268.7Q598.3 269.0 597.4 269.0L597.4 269.0Q595.3 269.1 594.4 269.9Q593.5 270.8 593.5 272.7L593.5 272.7L593.5 274.8L597.3 274.8Q598.8 274.8 599.7 275.7Q600.7 276.6 600.7 278.1Q600.7 279.7 599.7 280.6Q598.8 281.5 597.3 281.5L597.3 281.5L593.7 281.5L593.7 304.1Q593.7 306.4 592.5 307.6ZM609.5 308.8L609.5 308.8Q607.4 308.8 606.1 307.6Q604.9 306.3 604.9 304.1L604.9 304.1L604.9 278.6Q604.9 276.4 606.1 275.2Q607.3 274.0 609.3 274.0L609.3 274.0Q611.3 274.0 612.4 275.2Q613.6 276.4 613.6 278.6L613.6 278.6L613.6 280.7L613.8 280.7Q614.5 277.6 616.4 275.9Q618.3 274.1 620.8 274.1L620.8 274.1Q622.6 274.1 623.6 275.0L623.6 275.0Q624.9 276.0 624.9 278.3L624.9 278.3Q624.9 280.5 623.6 281.6L623.6 281.6Q622.3 282.8 619.7 282.8L619.7 282.8Q616.7 282.8 615.3 284.4Q614.0 286.1 614.0 289.2L614.0 289.2L614.0 304.1Q614.0 306.3 612.8 307.6Q611.6 308.8 609.5 308.8ZM655.7 304.2Q651.2 308.9 643.6 308.9Q635.9 308.9 631.4 304.2Q627.0 299.6 627.0 291.4L627.0 291.4Q627.0 283.3 631.5 278.6Q636 273.9 643.6 273.9L643.6 273.9Q651.2 273.9 655.7 278.6Q660.2 283.3 660.2 291.4L660.2 291.4Q660.2 299.6 655.7 304.2ZM643.6 301.9L643.6 301.9Q646.9 301.9 648.9 299.1Q650.9 296.4 650.9 291.4L650.9 291.4Q650.9 286.5 648.9 283.7Q646.9 280.9 643.6 280.9Q640.2 280.9 638.2 283.7Q636.2 286.5 636.2 291.4L636.2 291.4Q636.2 296.4 638.2 299.1Q640.2 301.9 643.6 301.9ZM669.4 308.8L669.4 308.8Q667.3 308.8 666.1 307.6Q664.8 306.3 664.8 304.1L664.8 304.1L664.8 278.6Q664.8 276.4 666.0 275.2Q667.3 274.0 669.3 274.0Q671.3 274.0 672.5 275.2Q673.7 276.4 673.7 278.6L673.7 278.6L673.7 280.7L673.8 280.7Q674.9 277.6 677.5 275.8Q680.0 274.0 683.4 274.0L683.4 274.0Q687.0 274.0 689.5 275.8Q691.9 277.6 692.8 280.9L692.8 280.9L692.9 280.9Q694.1 277.7 696.9 275.9Q699.7 274.0 703.3 274.0L703.3 274.0Q708.3 274.0 711.3 277.1Q714.3 280.2 714.3 285.3L714.3 285.3L714.3 304.1Q714.3 306.3 713.1 307.6Q711.8 308.8 709.7 308.8L709.7 308.8Q707.7 308.8 706.4 307.6Q705.2 306.3 705.2 304.1L705.2 304.1L705.2 287.6Q705.2 284.6 703.8 283.1Q702.4 281.6 699.7 281.6L699.7 281.6Q697.1 281.6 695.5 283.3Q694.0 285.0 694.0 287.8L694.0 287.8L694.0 304.1Q694.0 306.3 692.8 307.6Q691.6 308.8 689.6 308.8L689.6 308.8Q687.5 308.8 686.4 307.6Q685.2 306.3 685.2 304.1L685.2 304.1L685.2 287.3Q685.2 284.6 683.8 283.1Q682.3 281.6 679.8 281.6L679.8 281.6Q677.2 281.6 675.6 283.3Q674.0 285.1 674.0 287.9L674.0 287.9L674.0 304.1Q674.0 306.3 672.7 307.6Q671.5 308.8 669.4 308.8Z M752.4 308.9L752.4 308.9Q743.8 308.9 738.7 304.3Q733.5 299.7 733.5 292.2L733.5 292.2L733.5 267.4Q733.5 265.0 734.8 263.7Q736.0 262.4 738.3 262.4Q740.5 262.4 741.7 263.7Q743.0 265.0 743.0 267.4L743.0 267.4L743.0 291.3Q743.0 295.7 745.5 298.3Q747.9 300.8 752.4 300.8L752.4 300.8Q756.9 300.8 759.4 298.3Q761.9 295.7 761.9 291.3L761.9 291.3L761.9 267.4Q761.9 265.0 763.1 263.7Q764.4 262.4 766.6 262.4Q768.8 262.4 770.1 263.7Q771.3 265.0 771.3 267.4L771.3 267.4L771.3 292.2Q771.3 299.7 766.2 304.3Q761.0 308.9 752.4 308.9ZM791.7 308.9L791.7 308.9Q786.1 308.9 782.3 307.0Q778.5 305.2 777.3 302.2L777.3 302.2Q776.9 301.2 776.9 300.5L776.9 300.5Q776.9 298.9 778.0 298.0Q779.0 297.0 780.6 297.0L780.6 297.0Q782.8 297.0 784.6 299.1L784.6 299.1Q786.0 300.8 787.7 301.6Q789.3 302.5 791.9 302.5L791.9 302.5Q794.4 302.5 795.9 301.5Q797.4 300.5 797.4 298.9L797.4 298.9Q797.4 297.5 796.4 296.7Q795.4 295.9 792.9 295.4L792.9 295.4L787.3 294.2Q782.4 293.1 779.9 290.7Q777.4 288.2 777.4 284.5L777.4 284.5Q777.4 279.6 781.3 276.8Q785.2 273.9 791.7 273.9L791.7 273.9Q796.7 273.9 800.3 275.9Q803.9 277.9 804.8 280.9L804.8 280.9Q805 281.7 805 282.2L805 282.2Q805 283.6 804.1 284.5Q803.2 285.3 801.5 285.3L801.5 285.3Q799.4 285.3 798.2 283.9L798.2 283.9Q796.8 282.2 795.3 281.3Q793.8 280.3 791.5 280.3L791.5 280.3Q789.2 280.3 787.7 281.3Q786.3 282.3 786.3 284.0L786.3 284.0Q786.3 285.3 787.3 286.2Q788.4 287.1 790.9 287.6L790.9 287.6L796.4 288.8Q801.8 289.9 804.1 292.0Q806.5 294.1 806.5 297.9L806.5 297.9Q806.5 302.9 802.4 305.9Q798.3 308.9 791.7 308.9ZM819.2 269.1Q817.8 270.5 815.7 270.5Q813.7 270.5 812.3 269.1Q810.8 267.7 810.8 265.8L810.8 265.8Q810.8 263.8 812.3 262.4Q813.7 261.1 815.7 261.1Q817.8 261.1 819.2 262.4Q820.6 263.8 820.6 265.8L820.6 265.8Q820.6 267.7 819.2 269.1ZM819.1 307.5Q817.8 308.8 815.7 308.8Q813.6 308.8 812.4 307.5Q811.2 306.3 811.2 304.1L811.2 304.1L811.2 278.7Q811.2 276.5 812.4 275.2Q813.6 274.0 815.7 274.0Q817.8 274.0 819.1 275.2Q820.3 276.5 820.3 278.7L820.3 278.7L820.3 304.1Q820.3 306.3 819.1 307.5ZM834.2 307.6Q833.0 308.8 830.9 308.8Q828.8 308.8 827.6 307.6Q826.3 306.3 826.3 304.1L826.3 304.1L826.3 278.6Q826.3 276.4 827.5 275.2Q828.7 274.0 830.8 274.0Q832.8 274.0 834.1 275.2Q835.3 276.5 835.3 278.6L835.3 278.6L835.3 280.5L835.5 280.5Q838.3 274.0 845.8 274.0L845.8 274.0Q851.4 274.0 854.4 277.3Q857.4 280.6 857.4 286.6L857.4 286.6L857.4 304.1Q857.4 306.3 856.2 307.6Q854.9 308.8 852.9 308.8Q850.8 308.8 849.6 307.6Q848.3 306.3 848.3 304.1L848.3 304.1L848.3 288.5Q848.3 285.1 846.8 283.4Q845.2 281.6 842.2 281.6Q839.1 281.6 837.3 283.6Q835.5 285.6 835.5 288.9L835.5 288.9L835.5 304.1Q835.5 306.3 834.2 307.6ZM878.2 320.7L878.2 320.7Q873.2 320.7 869.5 319.0Q865.8 317.3 864.1 314.6L864.1 314.6Q863.4 313.4 863.4 312.1L863.4 312.1Q863.4 310.6 864.4 309.6Q865.4 308.7 867.1 308.7L867.1 308.7Q868.8 308.7 870.3 310.0L870.3 310.0Q874.1 313.6 878.2 313.7L878.2 313.7Q881.9 313.7 884.0 311.8Q886.1 310.0 886.1 306.8L886.1 306.8L886.1 301.4L885.9 301.4Q884.7 304.1 882.0 305.8Q879.2 307.4 875.6 307.4L875.6 307.4Q869.3 307.4 865.7 303.0Q862 298.5 862 290.8L862 290.8Q862 283.0 865.6 278.5Q869.3 274.1 875.8 274.1L875.8 274.1Q879.3 274.1 882.0 275.8Q884.6 277.5 886.0 280.4L886.0 280.4L886.2 280.4L886.2 278.6Q886.2 276.3 887.4 275.1Q888.7 274.0 890.8 274.0L890.8 274.0Q892.8 274.0 894.0 275.1Q895.3 276.3 895.3 278.6L895.3 278.6L895.3 306.8Q895.3 313.4 890.8 317.1Q886.3 320.8 878.2 320.7ZM878.7 300.6L878.7 300.6Q882.1 300.6 884.2 298.1Q886.2 295.5 886.2 291.0Q886.2 286.4 884.2 283.7Q882.1 281.1 878.7 281.1L878.7 281.1Q875.3 281.1 873.3 283.7Q871.3 286.4 871.3 290.9L871.3 290.9Q871.3 295.5 873.3 298.1Q875.3 300.6 878.7 300.6Z M940.1 308.1L919.3 308.1Q917.1 308.1 915.9 306.9Q914.6 305.6 914.6 303.2L914.6 303.2L914.6 267.4Q914.6 265.0 915.9 263.7Q917.1 262.4 919.3 262.4Q921.6 262.4 922.8 263.7Q924.1 265.0 924.1 267.4L924.1 267.4L924.1 300.3L940.1 300.3Q942 300.3 943.2 301.4Q944.3 302.4 944.3 304.2Q944.3 306.1 943.2 307.1Q942.0 308.1 940.1 308.1L940.1 308.1ZM974.8 308.1L954.1 308.1Q951.9 308.1 950.6 306.9Q949.4 305.6 949.4 303.2L949.4 303.2L949.4 267.4Q949.4 265.0 950.6 263.7Q951.9 262.4 954.1 262.4Q956.3 262.4 957.6 263.7Q958.8 265.0 958.8 267.4L958.8 267.4L958.8 300.3L974.8 300.3Q976.8 300.3 977.9 301.4Q979.1 302.4 979.1 304.2Q979.1 306.1 977.9 307.1Q976.8 308.1 974.8 308.1L974.8 308.1ZM991.4 307.6Q990.3 308.7 988.3 308.7Q986.3 308.7 985.2 307.6Q984.1 306.4 984.1 304.3L984.1 304.3L984.1 268.5Q984.1 265.6 985.7 264.0Q987.3 262.4 990.2 262.4L990.2 262.4Q992.7 262.4 994.2 263.6Q995.7 264.7 996.7 267.3L996.7 267.3L1007.9 295.0L1008.1 295.0L1019.3 267.3Q1020.3 264.7 1021.8 263.6Q1023.3 262.4 1025.8 262.4L1025.8 262.4Q1028.7 262.4 1030.3 264.0Q1031.9 265.6 1031.9 268.5L1031.9 268.5L1031.9 304.3Q1031.9 306.4 1030.8 307.6Q1029.7 308.7 1027.7 308.7Q1025.7 308.7 1024.6 307.6Q1023.5 306.4 1023.5 304.3L1023.5 304.3L1023.5 277.7L1023.2 277.7L1012.1 305.0Q1010.9 307.9 1008.0 307.9L1008.0 307.9Q1005.1 307.9 1003.9 305.0L1003.9 305.0L992.8 277.7L992.5 277.7L992.5 304.3Q992.5 306.4 991.4 307.6ZM1052.3 308.9L1052.3 308.9Q1046.6 308.9 1042.8 307.0Q1039.1 305.2 1037.8 302.2L1037.8 302.2Q1037.5 301.2 1037.5 300.5L1037.5 300.5Q1037.5 298.9 1038.5 298.0Q1039.6 297.0 1041.2 297.0L1041.2 297.0Q1043.3 297.0 1045.2 299.1L1045.2 299.1Q1046.5 300.8 1048.2 301.6Q1049.9 302.5 1052.5 302.5L1052.5 302.5Q1055.0 302.5 1056.5 301.5Q1057.9 300.5 1057.9 298.9L1057.9 298.9Q1057.9 297.5 1056.9 296.7Q1055.9 295.9 1053.5 295.4L1053.5 295.4L1047.9 294.2Q1043.0 293.1 1040.5 290.7Q1038 288.2 1038 284.5L1038 284.5Q1038 279.6 1041.9 276.8Q1045.7 273.9 1052.2 273.9L1052.2 273.9Q1057.3 273.9 1060.9 275.9Q1064.5 277.9 1065.3 280.9L1065.3 280.9Q1065.6 281.7 1065.6 282.2L1065.6 282.2Q1065.6 283.6 1064.7 284.5Q1063.8 285.3 1062.1 285.3L1062.1 285.3Q1059.9 285.3 1058.8 283.9L1058.8 283.9Q1057.4 282.2 1055.9 281.3Q1054.3 280.3 1052.1 280.3L1052.1 280.3Q1049.8 280.3 1048.3 281.3Q1046.8 282.3 1046.8 284.0L1046.8 284.0Q1046.8 285.3 1047.9 286.2Q1049 287.1 1051.5 287.6L1051.5 287.6L1057 288.8Q1062.3 289.9 1064.7 292.0Q1067.1 294.1 1067.1 297.9L1067.1 297.9Q1067.1 302.9 1063.0 305.9Q1058.9 308.9 1052.3 308.9Z M83.2 342.7Q81.8 344.1 79.7 344.1Q77.6 344.1 76.2 342.7Q74.8 341.3 74.8 339.4L74.8 339.4Q74.8 337.4 76.2 336.0Q77.6 334.7 79.7 334.7Q81.8 334.7 83.2 336.0Q84.6 337.4 84.6 339.4L84.6 339.4Q84.6 341.3 83.2 342.7ZM83.0 381.1Q81.8 382.4 79.7 382.4Q77.6 382.4 76.3 381.1Q75.1 379.9 75.1 377.7L75.1 377.7L75.1 352.3Q75.1 350.1 76.3 348.8Q77.6 347.6 79.7 347.6Q81.8 347.6 83.0 348.8Q84.3 350.1 84.3 352.3L84.3 352.3L84.3 377.7Q84.3 379.9 83.0 381.1ZM98.2 381.2Q96.9 382.4 94.9 382.4Q92.8 382.4 91.6 381.2Q90.3 379.9 90.3 377.7L90.3 377.7L90.3 352.2Q90.3 350.0 91.5 348.8Q92.7 347.6 94.7 347.6Q96.8 347.6 98.0 348.8Q99.3 350.1 99.3 352.2L99.3 352.2L99.3 354.1L99.5 354.1Q102.2 347.6 109.8 347.6L109.8 347.6Q115.3 347.6 118.4 350.9Q121.4 354.3 121.4 360.2L121.4 360.2L121.4 377.7Q121.4 379.9 120.2 381.2Q118.9 382.4 116.8 382.4Q114.8 382.4 113.5 381.2Q112.3 379.9 112.3 377.7L112.3 377.7L112.3 362.1Q112.3 358.8 110.7 357.0Q109.2 355.2 106.1 355.2Q103.1 355.2 101.3 357.2Q99.4 359.3 99.4 362.5L99.4 362.5L99.4 377.7Q99.4 379.9 98.2 381.2Z M148.8 381.1Q147.6 382.4 145.3 382.4Q143.1 382.4 141.9 381.1Q140.6 379.8 140.6 377.5L140.6 377.5L140.6 341.6Q140.6 339.3 141.9 338.0Q143.1 336.7 145.3 336.7L145.3 336.7L159.1 336.7Q166.8 336.7 171.1 340.5Q175.4 344.3 175.4 351.0L175.4 351.0Q175.4 355.3 173.4 358.7Q171.3 362.0 167.7 363.6L167.7 363.6L174.2 374.8Q175.2 376.6 175.2 378.1L175.2 378.1Q175.2 380.0 173.8 381.2Q172.5 382.4 170.4 382.4L170.4 382.4Q168.7 382.4 167.7 381.7Q166.8 380.9 165.6 378.8L165.6 378.8L158.1 365.3L150.1 365.3L150.1 377.5Q150.1 379.8 148.8 381.1ZM150.1 344.0L150.1 358.4L158.2 358.4Q161.8 358.4 163.7 356.5Q165.7 354.6 165.7 351.2L165.7 351.2Q165.7 347.9 163.7 346.0Q161.6 344.0 158.1 344.0L158.1 344.0L150.1 344.0ZM208.3 377.8Q203.8 382.5 196.2 382.5Q188.5 382.5 184.1 377.8Q179.6 373.2 179.6 365.0L179.6 365.0Q179.6 356.9 184.1 352.2Q188.6 347.5 196.2 347.5L196.2 347.5Q203.8 347.5 208.3 352.2Q212.8 356.9 212.8 365.0L212.8 365.0Q212.8 373.2 208.3 377.8ZM196.2 375.5L196.2 375.5Q199.6 375.5 201.5 372.8Q203.5 370 203.5 365L203.5 365Q203.5 360.1 201.5 357.3Q199.6 354.5 196.2 354.5Q192.8 354.5 190.8 357.3Q188.8 360.1 188.8 365L188.8 365Q188.8 370 190.8 372.8Q192.8 375.5 196.2 375.5ZM222.2 382.4L222.2 382.4Q220.1 382.4 218.9 381.2Q217.7 380.0 217.7 377.8L217.7 377.8L217.7 340.8Q217.7 338.5 218.9 337.2Q220.2 336.0 222.3 336.0Q224.3 336.0 225.6 337.2Q226.8 338.5 226.8 340.8L226.8 340.8L226.8 354.1L227 354.1Q228.4 351.1 231.1 349.4Q233.8 347.7 237.3 347.7L237.3 347.7Q243.7 347.7 247.3 352.3Q251.0 356.9 251.0 365Q251.0 373.1 247.3 377.7Q243.7 382.3 237.4 382.3L237.4 382.3Q233.8 382.3 231.0 380.6Q228.3 379.0 226.9 376L226.9 376L226.7 376L226.7 377.8Q226.7 380 225.5 381.2Q224.2 382.4 222.2 382.4ZM234.3 374.9L234.3 374.9Q237.7 374.9 239.6 372.3Q241.6 369.6 241.6 365L241.6 365Q241.6 360.4 239.6 357.7Q237.7 355.0 234.3 355.0L234.3 355.0Q230.9 355.0 228.8 357.8Q226.8 360.5 226.8 365L226.8 365Q226.8 369.5 228.8 372.2Q230.9 374.9 234.3 374.9ZM283.2 377.8Q278.7 382.5 271.1 382.5Q263.4 382.5 258.9 377.8Q254.5 373.2 254.5 365.0L254.5 365.0Q254.5 356.9 259.0 352.2Q263.5 347.5 271.1 347.5L271.1 347.5Q278.7 347.5 283.2 352.2Q287.7 356.9 287.7 365.0L287.7 365.0Q287.7 373.2 283.2 377.8ZM271.1 375.5L271.1 375.5Q274.4 375.5 276.4 372.8Q278.4 370 278.4 365L278.4 365Q278.4 360.1 276.4 357.3Q274.4 354.5 271.1 354.5Q267.7 354.5 265.7 357.3Q263.7 360.1 263.7 365L263.7 365Q263.7 370 265.7 372.8Q267.7 375.5 271.1 375.5ZM294.8 373.2L294.8 373.2L294.8 355.1L293.0 355.1Q291.4 355.1 290.5 354.2Q289.5 353.3 289.5 351.7Q289.5 350.1 290.5 349.2Q291.4 348.3 293.0 348.3L293.0 348.3L294.8 348.3L294.8 344.5Q294.8 342.3 296 341.0Q297.2 339.8 299.3 339.8Q301.5 339.8 302.7 341.0Q303.9 342.3 303.9 344.5L303.9 344.5L303.9 348.3L307.1 348.3Q308.8 348.3 309.7 349.2Q310.6 350.1 310.6 351.7Q310.6 353.3 309.7 354.2Q308.8 355.1 307.1 355.1L307.1 355.1L303.9 355.1L303.9 371.2Q303.9 372.9 304.6 373.8Q305.2 374.6 306.7 374.7L306.7 374.7L307.3 374.8Q309.0 374.9 309.9 375.7Q310.8 376.5 310.8 378.1L310.8 378.1Q310.8 380.0 309 381.1Q307.3 382.1 304.3 382.1L304.3 382.1L304.0 382.1Q294.8 382.1 294.8 373.2Z M336.7 381.0Q335.5 382.3 333.3 382.3Q331.0 382.3 329.8 381.0Q328.5 379.8 328.5 377.4L328.5 377.4L328.5 341.6Q328.5 339.3 329.8 338.0Q331.0 336.7 333.3 336.7L333.3 336.7L346.9 336.7Q353.8 336.7 358.2 340.9Q362.5 345.2 362.5 352.1L362.5 352.1Q362.5 359 358.0 363.3Q353.6 367.5 346.4 367.5L346.4 367.5L338.0 367.5L338.0 377.4Q338.0 379.8 336.7 381.0ZM338.0 344.1L338.0 360.2L344.3 360.2Q348.4 360.2 350.7 358.1Q352.9 356.0 352.9 352.1Q352.9 348.3 350.7 346.2Q348.4 344.1 344.4 344.1L344.4 344.1L338.0 344.1ZM371.8 382.4L371.8 382.4Q369.8 382.4 368.5 381.2Q367.3 379.9 367.3 377.7L367.3 377.7L367.3 352.2Q367.3 350 368.5 348.8Q369.7 347.6 371.7 347.6L371.7 347.6Q373.6 347.6 374.8 348.8Q376 350 376 352.2L376 352.2L376 354.3L376.2 354.3Q376.8 351.3 378.7 349.5Q380.6 347.7 383.2 347.7L383.2 347.7Q385 347.7 386 348.6L386 348.6Q387.3 349.6 387.3 351.9L387.3 351.9Q387.3 354.1 386 355.2L386 355.2Q384.7 356.4 382.0 356.4L382.0 356.4Q379.0 356.4 377.7 358.0Q376.4 359.7 376.4 362.8L376.4 362.8L376.4 377.7Q376.4 379.9 375.2 381.2Q374.0 382.4 371.8 382.4ZM418.1 377.8Q413.6 382.5 405.9 382.5Q398.3 382.5 393.8 377.8Q389.3 373.2 389.3 365.0L389.3 365.0Q389.3 356.9 393.9 352.2Q398.4 347.5 405.9 347.5L405.9 347.5Q413.5 347.5 418.0 352.2Q422.5 356.9 422.5 365.0L422.5 365.0Q422.5 373.2 418.1 377.8ZM405.9 375.5L405.9 375.5Q409.3 375.5 411.3 372.8Q413.3 370 413.3 365L413.3 365Q413.3 360.1 411.3 357.3Q409.3 354.5 405.9 354.5Q402.6 354.5 400.6 357.3Q398.6 360.1 398.6 365L398.6 365Q398.6 370 400.6 372.8Q402.5 375.5 405.9 375.5ZM442.2 394.3L442.2 394.3Q437.2 394.3 433.5 392.6Q429.8 390.9 428.1 388.2L428.1 388.2Q427.4 387.0 427.4 385.7L427.4 385.7Q427.4 384.2 428.4 383.3Q429.4 382.3 431.1 382.3L431.1 382.3Q432.8 382.3 434.3 383.6L434.3 383.6Q438.1 387.3 442.2 387.3L442.2 387.3Q445.9 387.3 448.0 385.4Q450.1 383.6 450.1 380.4L450.1 380.4L450.1 375.0L449.9 375.0Q448.7 377.8 446.0 379.4Q443.2 381.0 439.6 381.0L439.6 381.0Q433.3 381.0 429.7 376.6Q426 372.1 426 364.4L426 364.4Q426 356.6 429.6 352.1Q433.3 347.7 439.8 347.7L439.8 347.7Q443.3 347.7 446.0 349.4Q448.6 351.1 450.0 354.0L450.0 354.0L450.2 354.0L450.2 352.2Q450.2 349.9 451.4 348.8Q452.7 347.6 454.8 347.6L454.8 347.6Q456.8 347.6 458.0 348.8Q459.3 349.9 459.3 352.2L459.3 352.2L459.3 380.4Q459.3 387 454.8 390.7Q450.3 394.4 442.2 394.3ZM442.7 374.3L442.7 374.3Q446.1 374.3 448.2 371.7Q450.2 369.1 450.2 364.6Q450.2 360.0 448.2 357.3Q446.1 354.7 442.7 354.7L442.7 354.7Q439.3 354.7 437.3 357.3Q435.3 360 435.3 364.5L435.3 364.5Q435.3 369.1 437.3 371.7Q439.3 374.3 442.7 374.3ZM469.8 382.4L469.8 382.4Q467.7 382.4 466.4 381.2Q465.2 379.9 465.2 377.7L465.2 377.7L465.2 352.2Q465.2 350 466.4 348.8Q467.6 347.6 469.6 347.6L469.6 347.6Q471.5 347.6 472.7 348.8Q473.9 350 473.9 352.2L473.9 352.2L473.9 354.3L474.1 354.3Q474.8 351.3 476.6 349.5Q478.5 347.7 481.1 347.7L481.1 347.7Q482.9 347.7 483.9 348.6L483.9 348.6Q485.2 349.6 485.2 351.9L485.2 351.9Q485.2 354.1 483.9 355.2L483.9 355.2Q482.6 356.4 479.9 356.4L479.9 356.4Q476.9 356.4 475.6 358.0Q474.3 359.7 474.3 362.8L474.3 362.8L474.3 377.7Q474.3 379.9 473.1 381.2Q471.9 382.4 469.8 382.4ZM498.4 382.3L498.4 382.3Q493.5 382.3 490.3 379.4Q487.2 376.6 487.2 372.1L487.2 372.1Q487.2 367.6 490.5 365.0Q493.9 362.4 500.2 362L500.2 362L508.7 361.5L508.7 359.3Q508.7 357.0 507.1 355.7Q505.6 354.3 503.0 354.3L503.0 354.3Q500.9 354.3 499.5 355.1Q498.1 355.9 496.5 357.9L496.5 357.9Q495.0 359.6 492.9 359.6L492.9 359.6Q491.3 359.6 490.2 358.6Q489.1 357.6 489.1 356.1L489.1 356.1Q489.1 355.0 489.6 354L489.6 354Q490.7 351 494.5 349.3Q498.2 347.5 503.4 347.5L503.4 347.5Q509.9 347.5 513.8 350.6Q517.6 353.7 517.6 358.7L517.6 358.7L517.6 377.8Q517.6 380.0 516.4 381.2Q515.2 382.4 513.2 382.4L513.2 382.4Q511.3 382.4 510.1 381.4Q508.9 380.3 508.8 378.3L508.8 378.3L508.8 376.6L508.6 376.6Q507.3 379.3 504.4 380.8Q501.6 382.3 498.4 382.3ZM501.4 375.7L501.4 375.7Q504.4 375.7 506.5 373.9Q508.7 372.2 508.7 369.5L508.7 369.5L508.7 367.0L501.6 367.5Q499.0 367.7 497.6 368.8Q496.3 369.8 496.3 371.6L496.3 371.6Q496.3 373.5 497.7 374.6Q499.1 375.7 501.4 375.7ZM528.1 382.4L528.1 382.4Q526.0 382.4 524.7 381.2Q523.5 379.9 523.5 377.7L523.5 377.7L523.5 352.2Q523.5 350.0 524.7 348.8Q525.9 347.6 527.9 347.6Q529.9 347.6 531.1 348.8Q532.3 350.0 532.3 352.2L532.3 352.2L532.3 354.3L532.5 354.3Q533.6 351.3 536.1 349.4Q538.7 347.6 542.1 347.6L542.1 347.6Q545.7 347.6 548.1 349.4Q550.6 351.2 551.4 354.5L551.4 354.5L551.6 354.5Q552.7 351.3 555.5 349.5Q558.3 347.6 562 347.6L562 347.6Q566.9 347.6 570.0 350.7Q573.0 353.8 573.0 358.9L573.0 358.9L573.0 377.7Q573.0 379.9 571.7 381.2Q570.5 382.4 568.4 382.4L568.4 382.4Q566.3 382.4 565.1 381.2Q563.8 379.9 563.8 377.7L563.8 377.7L563.8 361.2Q563.8 358.3 562.4 356.7Q561.0 355.2 558.4 355.2L558.4 355.2Q555.8 355.2 554.2 356.9Q552.6 358.6 552.6 361.4L552.6 361.4L552.6 377.7Q552.6 379.9 551.5 381.2Q550.3 382.4 548.2 382.4L548.2 382.4Q546.2 382.4 545.0 381.2Q543.8 379.9 543.8 377.7L543.8 377.7L543.8 360.9Q543.8 358.2 542.4 356.7Q541.0 355.2 538.4 355.2L538.4 355.2Q535.8 355.2 534.2 356.9Q532.6 358.7 532.6 361.5L532.6 361.5L532.6 377.7Q532.6 379.9 531.4 381.2Q530.1 382.4 528.1 382.4ZM583.3 382.4L583.3 382.4Q581.2 382.4 580.0 381.2Q578.8 379.9 578.8 377.7L578.8 377.7L578.8 352.2Q578.8 350.0 580.0 348.8Q581.2 347.6 583.2 347.6Q585.2 347.6 586.4 348.8Q587.6 350.0 587.6 352.2L587.6 352.2L587.6 354.3L587.8 354.3Q588.8 351.3 591.4 349.4Q593.9 347.6 597.3 347.6L597.3 347.6Q600.9 347.6 603.4 349.4Q605.8 351.2 606.7 354.5L606.7 354.5L606.8 354.5Q608.0 351.3 610.8 349.5Q613.6 347.6 617.3 347.6L617.3 347.6Q622.2 347.6 625.2 350.7Q628.2 353.8 628.2 358.9L628.2 358.9L628.2 377.7Q628.2 379.9 627.0 381.2Q625.7 382.4 623.6 382.4L623.6 382.4Q621.6 382.4 620.3 381.2Q619.1 379.9 619.1 377.7L619.1 377.7L619.1 361.2Q619.1 358.3 617.7 356.7Q616.3 355.2 613.6 355.2L613.6 355.2Q611.0 355.2 609.5 356.9Q607.9 358.6 607.9 361.4L607.9 361.4L607.9 377.7Q607.9 379.9 606.7 381.2Q605.5 382.4 603.5 382.4L603.5 382.4Q601.4 382.4 600.3 381.2Q599.1 379.9 599.1 377.7L599.1 377.7L599.1 360.9Q599.1 358.2 597.7 356.7Q596.2 355.2 593.7 355.2L593.7 355.2Q591.1 355.2 589.5 356.9Q587.9 358.7 587.9 361.5L587.9 361.5L587.9 377.7Q587.9 379.9 586.6 381.2Q585.4 382.4 583.3 382.4ZM642.2 342.7Q640.8 344.1 638.7 344.1Q636.7 344.1 635.3 342.7Q633.8 341.3 633.8 339.4L633.8 339.4Q633.8 337.4 635.3 336.0Q636.7 334.7 638.7 334.7Q640.8 334.7 642.2 336.0Q643.6 337.4 643.6 339.4L643.6 339.4Q643.6 341.3 642.2 342.7ZM642.1 381.1Q640.8 382.4 638.7 382.4Q636.6 382.4 635.4 381.1Q634.2 379.9 634.2 377.7L634.2 377.7L634.2 352.3Q634.2 350.1 635.4 348.8Q636.6 347.6 638.7 347.6Q640.8 347.6 642.1 348.8Q643.3 350.1 643.3 352.3L643.3 352.3L643.3 377.7Q643.3 379.9 642.1 381.1ZM657.2 381.2Q656.0 382.4 653.9 382.4Q651.8 382.4 650.6 381.2Q649.3 379.9 649.3 377.7L649.3 377.7L649.3 352.2Q649.3 350.0 650.5 348.8Q651.7 347.6 653.8 347.6Q655.8 347.6 657.1 348.8Q658.3 350.1 658.3 352.2L658.3 352.2L658.3 354.1L658.5 354.1Q661.3 347.6 668.8 347.6L668.8 347.6Q674.4 347.6 677.4 350.9Q680.4 354.3 680.4 360.2L680.4 360.2L680.4 377.7Q680.4 379.9 679.2 381.2Q677.9 382.4 675.9 382.4Q673.8 382.4 672.6 381.2Q671.3 379.9 671.3 377.7L671.3 377.7L671.3 362.1Q671.3 358.8 669.8 357.0Q668.2 355.2 665.2 355.2Q662.1 355.2 660.3 357.2Q658.5 359.3 658.5 362.5L658.5 362.5L658.5 377.7Q658.5 379.9 657.2 381.2ZM701.2 394.3L701.2 394.3Q696.2 394.3 692.5 392.6Q688.8 390.9 687.1 388.2L687.1 388.2Q686.4 387.0 686.4 385.7L686.4 385.7Q686.4 384.2 687.4 383.3Q688.4 382.3 690.1 382.3L690.1 382.3Q691.8 382.3 693.3 383.6L693.3 383.6Q697.1 387.3 701.2 387.3L701.2 387.3Q704.9 387.3 707.0 385.4Q709.1 383.6 709.1 380.4L709.1 380.4L709.1 375.0L708.9 375.0Q707.7 377.8 705.0 379.4Q702.2 381.0 698.6 381.0L698.6 381.0Q692.3 381.0 688.7 376.6Q685 372.1 685 364.4L685 364.4Q685 356.6 688.6 352.1Q692.3 347.7 698.8 347.7L698.8 347.7Q702.3 347.7 705.0 349.4Q707.6 351.1 709.0 354.0L709.0 354.0L709.2 354.0L709.2 352.2Q709.2 349.9 710.4 348.8Q711.7 347.6 713.8 347.6L713.8 347.6Q715.8 347.6 717.0 348.8Q718.3 349.9 718.3 352.2L718.3 352.2L718.3 380.4Q718.3 387 713.8 390.7Q709.3 394.4 701.2 394.3ZM701.7 374.3L701.7 374.3Q705.1 374.3 707.2 371.7Q709.2 369.1 709.2 364.6Q709.2 360.0 707.2 357.3Q705.1 354.7 701.7 354.7L701.7 354.7Q698.3 354.7 696.3 357.3Q694.3 360 694.3 364.5L694.3 364.5Q694.3 369.1 696.3 371.7Q698.3 374.3 701.7 374.3Z " clip-path="url(#satori_cp-id-0)" mask="url(#satori_om-id-0)"/><defs><clipPath id="satori_bc-id-0-1" clip-path="url(#satori_cp-id-0)"><rect x="0" y="509" width="1200" height="121"/></clipPath></defs><mask id="satori_om-id-0-1"><rect x="0" y="510" width="1200" height="120" fill="#fff" mask="url(#satori_om-id-0)"/><path width="1200" height="121" fill="none" stroke="#000" stroke-width="2" d="M0,509 A0,0 0 0 1 0,509 h1200 A0,0 0 0 1 1200,509"/></mask><path width="1200" height="121" clip-path="url(#satori_bc-id-0-1)" fill="none" stroke="rgba(0,0,0,0.08)" stroke-width="2" d="M0,509 A0,0 0 0 1 0,509 h1200 A0,0 0 0 1 1200,509"/><mask id="satori_om-id-0-1-0"><rect x="48" y="538" width="228" height="64" fill="#fff" mask="url(#satori_om-id-0)"/></mask><mask id="satori_om-id-0-1-0-0"><rect x="48" y="538" width="72" height="64" fill="#fff" mask="url(#satori_om-id-0)"/></mask><clipPath id="satori_cp-id-0-1-0-0-0" clip-path="url(#satori_cp-id-0)"><rect x="48" y="538" width="72" height="64"/></clipPath><mask id="satori_om-id-0-1-0-0-0"><rect x="48" y="538" width="72" height="64" fill="#fff" mask="url(#satori_om-id-0)"/></mask><image x="48" y="538" width="72" height="64" href="data:image/svg+xml;utf8,%3Csvg  xmlns=%22http://www.w3.org/2000/svg%22 width=%2273.60461760461762%22 height=%2264%22 viewBox=%220 0 797 693%22%3E%3Cg transform=%22matrix(1,0,0,1,-345,-96.5)%22%3E%3Cpath d=%22M756.942,197.15L756.942,474C701.751,474 656.942,518.808 656.942,574C656.942,629.192 701.751,674 756.942,674L756.942,777L495.122,777C443.175,777 401,734.825 401,682.878L401,614L364.755,614C353.852,614 345,605.148 345,594.245L345,436.814C345,425.878 353.878,417 364.814,417L401,417L401,365.122C401,313.175 443.175,271 495.122,271L715.058,271L715.058,197.15C696.492,189.056 683.5,170.533 683.5,149C683.5,120.024 707.024,96.5 736,96.5C764.976,96.5 788.5,120.024 788.5,149C788.5,170.533 775.508,189.056 756.942,197.15ZM559,388C520.918,388 490,418.918 490,457C490,495.082 520.918,526 559,526C597.082,526 628,495.082 628,457C628,418.918 597.082,388 559,388Z%22 fill=%22%23ad47ff%22%3E%3C/path%3E%3Cg transform=%22matrix(-1,1.22465e-16,-1.22465e-16,-1,1486.06,1043)%22%3E%3Cpath d=%22M401,417L401,348.122C401,296.175 443.175,254 495.122,254L705.058,254L705.058,357C760.249,357 805.058,401.808 805.058,457C805.058,512.192 760.249,557 705.058,557L705.058,760L495.122,760C443.175,760 401,717.825 401,665.878L401,614L364.755,614C353.852,614 345,605.148 345,594.245L345,436.814C345,425.878 353.878,417 364.814,417L401,417ZM552,643C590.082,643 621,612.082 621,574C621,535.918 590.082,505 552,505C513.918,505 483,535.918 483,574C483,612.082 513.918,643 552,643Z%22 fill=%22%2300d5bd%22%3E%3C/path%3E%3C/g%3E%3C/g%3E%3C/svg%3E" preserveAspectRatio="none" clip-path="url(#satori_cp-id-0-1-0-0-0)" mask="url(#satori_om-id-0-1-0-0-0)"/><mask id="satori_om-id-0-1-0-0-0-0"><rect x="48" y="538" width="0" height="64" fill="#fff" mask="url(#satori_om-id-0)"/></mask><mask id="satori_om-id-0-1-0-0-0-0-0"><rect x="48" y="538" width="0" height="64" fill="#fff" mask="url(#satori_om-id-0)"/></mask><mask id="satori_om-id-0-1-0-0-0-0-1"><rect x="48" y="538" width="0" height="64" fill="#fff" mask="url(#satori_om-id-0)"/></mask><mask id="satori_om-id-0-1-0-0-0-0-1-0"><rect x="48" y="538" width="0" height="64" fill="#fff" mask="url(#satori_om-id-0)"/></mask><mask id="satori_om-id-0-1-0-1"><rect x="138" y="540" width="138" height="60" fill="#fff" mask="url(#satori_om-id-0)"/></mask><mask id="satori_om-id-0-1-0-1-0"><rect x="138" y="540" width="138" height="36" fill="#fff" mask="url(#satori_om-id-0)"/></mask><path fill="#0f172a" d="M150.7 571.2L150.7 571.2Q145.9 571.2 143.0 568.6Q140.1 566.1 140.1 561.8L140.1 561.8L140.1 547.9Q140.1 546.5 140.8 545.8Q141.5 545.1 142.8 545.1Q144.0 545.1 144.7 545.8Q145.4 546.5 145.4 547.9L145.4 547.9L145.4 561.3Q145.4 563.8 146.8 565.2Q148.2 566.7 150.7 566.7L150.7 566.7Q153.3 566.7 154.7 565.2Q156.1 563.8 156.1 561.3L156.1 561.3L156.1 547.9Q156.1 546.5 156.8 545.8Q157.5 545.1 158.7 545.1Q160.0 545.1 160.7 545.8Q161.4 546.5 161.4 547.9L161.4 547.9L161.4 561.8Q161.4 566.1 158.5 568.6Q155.6 571.2 150.7 571.2ZM170.2 570.4Q169.5 571.2 168.2 571.2Q167.0 571.2 166.3 570.4Q165.6 569.7 165.6 568.4L165.6 568.4L165.6 548.2Q165.6 546.9 166.3 546.2Q167.0 545.4 168.2 545.4L168.2 545.4L176.0 545.4Q180.3 545.4 182.7 547.6Q185.1 549.7 185.1 553.5L185.1 553.5Q185.1 555.9 184.0 557.8Q182.9 559.7 180.8 560.6L180.8 560.6L184.4 566.9Q185.0 567.9 185.0 568.7L185.0 568.7Q185.0 569.8 184.2 570.5Q183.5 571.2 182.3 571.2L182.3 571.2Q181.4 571.2 180.8 570.8Q180.3 570.3 179.6 569.2L179.6 569.2L175.4 561.5L170.9 561.5L170.9 568.4Q170.9 569.7 170.2 570.4ZM170.9 549.6L170.9 557.7L175.5 557.7Q177.5 557.7 178.6 556.6Q179.7 555.5 179.7 553.6L179.7 553.6Q179.7 551.8 178.5 550.7Q177.4 549.6 175.4 549.6L175.4 549.6L170.9 549.6ZM198.1 562.7L190.8 562.7Q189.7 562.7 189.1 562.1Q188.4 561.5 188.4 560.5Q188.4 559.4 189.1 558.8Q189.7 558.2 190.8 558.2L190.8 558.2L198.1 558.2Q199.2 558.2 199.9 558.8Q200.6 559.4 200.6 560.5Q200.6 561.5 199.9 562.1Q199.2 562.7 198.1 562.7L198.1 562.7ZM209.1 570.4Q208.4 571.2 207.2 571.2Q205.9 571.2 205.2 570.4Q204.5 569.7 204.5 568.4L204.5 568.4L204.5 548.2Q204.5 546.9 205.2 546.2Q205.9 545.4 207.2 545.4L207.2 545.4L214.9 545.4Q219.3 545.4 221.7 547.6Q224.1 549.7 224.1 553.5L224.1 553.5Q224.1 555.9 223.0 557.8Q221.8 559.7 219.7 560.6L219.7 560.6L223.4 566.9Q224.0 567.9 224.0 568.7L224.0 568.7Q224.0 569.8 223.2 570.5Q222.4 571.2 221.3 571.2L221.3 571.2Q220.3 571.2 219.8 570.8Q219.2 570.3 218.6 569.2L218.6 569.2L214.4 561.5L209.8 561.5L209.8 568.4Q209.8 569.7 209.1 570.4ZM209.8 549.6L209.8 557.7L214.4 557.7Q216.4 557.7 217.5 556.6Q218.6 555.5 218.6 553.6L218.6 553.6Q218.6 551.8 217.5 550.7Q216.3 549.6 214.4 549.6L214.4 549.6L209.8 549.6ZM229.3 571.1L229.3 571.1Q228.0 571.1 227.3 570.5Q226.6 569.8 226.6 568.6L226.6 568.6Q226.6 567.9 226.9 566.9L226.9 566.9L233.9 548.1Q234.4 546.5 235.4 545.8Q236.3 545.1 237.8 545.1L237.8 545.1Q239.4 545.1 240.4 545.8Q241.3 546.5 241.9 548.1L241.9 548.1L248.9 566.9Q249.2 567.9 249.2 568.6L249.2 568.6Q249.2 569.7 248.5 570.4Q247.7 571.1 246.5 571.1L246.5 571.1Q245.4 571.1 244.8 570.6Q244.1 570.0 243.8 568.8L243.8 568.8L242.4 564.8L233.3 564.8L232.0 568.7Q231.6 570.0 231.0 570.6Q230.3 571.1 229.3 571.1ZM237.7 550.3L234.5 560.7L241.2 560.7L237.9 550.3L237.7 550.3ZM262.1 570.8L255.1 570.8Q253.8 570.8 253.1 570.1Q252.4 569.3 252.4 568.0L252.4 568.0L252.4 548.2Q252.4 546.9 253.1 546.2Q253.8 545.4 255.1 545.4L255.1 545.4L262.1 545.4Q267.8 545.4 271.0 548.7Q274.2 552.0 274.2 558.0L274.2 558.0Q274.2 564.0 271.0 567.4Q267.8 570.8 262.1 570.8L262.1 570.8ZM257.7 549.8L257.7 566.4L261.5 566.4Q265.0 566.4 266.9 564.3Q268.8 562.1 268.8 558.0L268.8 558.0Q268.8 554.1 266.9 551.9Q265.0 549.8 261.5 549.8L261.5 549.8L257.7 549.8Z " clip-path="url(#satori_cp-id-0)" mask="url(#satori_om-id-0)"/><mask id="satori_om-id-0-1-0-1-1"><rect x="138" y="576" width="138" height="24" fill="#fff" mask="url(#satori_om-id-0)"/></mask><path fill="#334155" d="M145.0 595.3L145.0 595.3Q142.4 595.3 140.8 593.8Q139.2 592.4 139.2 590.1L139.2 590.1L139.2 582.1Q139.2 581.5 139.6 581.1Q139.9 580.8 140.5 580.8L140.5 580.8Q141.1 580.8 141.4 581.1Q141.8 581.5 141.8 582.1L141.8 582.1L141.8 589.8Q141.8 591.3 142.6 592.2Q143.5 593.1 145.0 593.1Q146.6 593.1 147.4 592.2Q148.3 591.3 148.3 589.8L148.3 589.8L148.3 582.1Q148.3 581.5 148.6 581.1Q149.0 580.8 149.6 580.8L149.6 580.8Q150.2 580.8 150.5 581.1Q150.8 581.5 150.8 582.1L150.8 582.1L150.8 590.1Q150.8 592.4 149.3 593.8Q147.7 595.3 145.0 595.3ZM155.5 594.9Q155.2 595.2 154.6 595.2Q154.0 595.2 153.6 594.9Q153.3 594.5 153.3 593.9L153.3 593.9L153.3 582.3Q153.3 581.6 153.6 581.3Q154.0 581.0 154.6 581.0L154.6 581.0L158.9 581.0Q161.2 581.0 162.5 582.1Q163.8 583.3 163.8 585.3L163.8 585.3Q163.8 586.7 163.1 587.8Q162.4 588.8 161.2 589.3L161.2 589.3L163.4 593.2Q163.7 593.7 163.7 594.1L163.7 594.1Q163.7 594.6 163.4 594.9Q163.0 595.2 162.4 595.2L162.4 595.2Q162.0 595.2 161.7 595.0Q161.5 594.8 161.2 594.3L161.2 594.3L158.7 589.7L155.8 589.7L155.8 593.9Q155.8 594.5 155.5 594.9ZM155.8 583.0L155.8 587.8L158.7 587.8Q159.9 587.8 160.5 587.2Q161.2 586.5 161.2 585.4L161.2 585.4Q161.2 584.3 160.5 583.6Q159.8 583.0 158.6 583.0L158.6 583.0L155.8 583.0ZM171.1 590.4L166.7 590.4Q166.2 590.4 165.9 590.1Q165.6 589.8 165.6 589.3Q165.6 588.8 165.9 588.5Q166.2 588.2 166.7 588.2L166.7 588.2L171.1 588.2Q171.7 588.2 172.0 588.5Q172.3 588.8 172.3 589.3Q172.3 589.8 172.0 590.1Q171.7 590.4 171.1 590.4L171.1 590.4ZM176.7 594.9Q176.4 595.2 175.8 595.2Q175.2 595.2 174.9 594.9Q174.6 594.5 174.6 593.9L174.6 593.9L174.6 582.3Q174.6 581.6 174.9 581.3Q175.2 581.0 175.8 581.0L175.8 581.0L180.1 581.0Q182.4 581.0 183.7 582.1Q185.0 583.3 185.0 585.3L185.0 585.3Q185.0 586.7 184.3 587.8Q183.7 588.8 182.5 589.3L182.5 589.3L184.7 593.2Q185.0 593.7 185.0 594.1L185.0 594.1Q185.0 594.6 184.6 594.9Q184.2 595.2 183.7 595.2L183.7 595.2Q183.2 595.2 183.0 595.0Q182.7 594.8 182.4 594.3L182.4 594.3L179.9 589.7L177.1 589.7L177.1 593.9Q177.1 594.5 176.7 594.9ZM177.1 583.0L177.1 587.8L179.9 587.8Q181.1 587.8 181.8 587.2Q182.4 586.5 182.4 585.4L182.4 585.4Q182.4 584.3 181.8 583.6Q181.1 583.0 179.9 583.0L179.9 583.0L177.1 583.0ZM187.7 595.2L187.7 595.2Q187.1 595.2 186.7 594.9Q186.4 594.6 186.4 594.0L186.4 594.0Q186.4 593.7 186.6 593.3L186.6 593.3L190.7 582.2Q190.9 581.4 191.4 581.1Q191.8 580.8 192.5 580.8L192.5 580.8Q193.2 580.8 193.6 581.1Q194.1 581.4 194.3 582.1L194.3 582.1L198.4 593.3Q198.6 593.7 198.6 594.0L198.6 594.0Q198.6 594.6 198.2 594.9Q197.9 595.2 197.3 595.2L197.3 595.2Q196.8 595.2 196.5 595.0Q196.2 594.7 196.0 594.1L196.0 594.1L195.1 591.4L189.9 591.4L188.9 594.1Q188.8 594.7 188.5 595.0Q188.2 595.2 187.7 595.2ZM192.4 583.4L190.5 589.5L194.5 589.5L192.5 583.4L192.4 583.4ZM205.6 595.0L201.7 595.0Q201.1 595.0 200.8 594.7Q200.4 594.3 200.4 593.7L200.4 593.7L200.4 582.3Q200.4 581.6 200.8 581.3Q201.1 581.0 201.7 581.0L201.7 581.0L205.6 581.0Q208.7 581.0 210.5 582.8Q212.3 584.6 212.3 588.0L212.3 588.0Q212.3 591.3 210.5 593.2Q208.7 595.0 205.6 595.0L205.6 595.0ZM202.9 583.1L202.9 592.9L205.3 592.9Q207.4 592.9 208.6 591.6Q209.7 590.4 209.7 588.0L209.7 588.0Q209.7 585.6 208.6 584.3Q207.4 583.1 205.3 583.1L205.3 583.1L202.9 583.1Z M227.0 595.0L219.2 595.0Q218.7 595.0 218.3 594.8Q218.0 594.5 218.0 594.0L218.0 594.0Q218.0 593.6 218.2 593.3Q218.3 593.1 218.7 592.7L218.7 592.7L223.0 588.4Q224.4 587.1 224.8 586.4Q225.3 585.7 225.3 584.9L225.3 584.9Q225.3 583.9 224.6 583.3Q224.0 582.7 223.0 582.7L223.0 582.7Q221.1 582.7 220.3 584.6L220.3 584.6Q220.1 585.0 219.9 585.2Q219.6 585.4 219.2 585.4L219.2 585.4Q218.7 585.4 218.4 585.1Q218.1 584.8 218.1 584.3L218.1 584.3Q218.1 584.1 218.2 583.8L218.2 583.8Q218.3 583.2 218.7 582.7Q219.1 582.1 219.7 581.7Q220.3 581.2 221.1 580.9Q222.0 580.7 223.0 580.7L223.0 580.7Q225.1 580.7 226.4 581.8Q227.8 582.9 227.8 584.7L227.8 584.7Q227.8 585.9 227.1 586.9Q226.4 588.0 224.6 589.8L224.6 589.8L221.4 592.9L221.4 593.0L227.0 593.0Q227.5 593.0 227.8 593.3Q228.1 593.5 228.1 594.0Q228.1 594.5 227.8 594.8Q227.5 595.0 227.0 595.0L227.0 595.0ZM235.2 595.3L235.2 595.3Q232.6 595.3 231.1 593.4Q229.7 591.4 229.7 588.0L229.7 588.0Q229.7 584.6 231.1 582.6Q232.6 580.7 235.2 580.7L235.2 580.7Q237.8 580.7 239.3 582.6Q240.7 584.6 240.7 588.0L240.7 588.0Q240.7 591.4 239.3 593.3Q237.8 595.3 235.2 595.3ZM235.2 593.3L235.2 593.3Q236.6 593.3 237.4 591.9Q238.2 590.5 238.2 588.0L238.2 588.0Q238.2 585.5 237.4 584.1Q236.6 582.7 235.2 582.7Q233.8 582.7 233.0 584.1Q232.2 585.5 232.2 588.0L232.2 588.0Q232.2 590.5 233.0 591.9Q233.8 593.3 235.2 593.3ZM251.6 595.0L243.8 595.0Q243.2 595.0 242.9 594.8Q242.6 594.5 242.6 594.0L242.6 594.0Q242.6 593.6 242.7 593.3Q242.9 593.1 243.3 592.7L243.3 592.7L247.6 588.4Q248.9 587.1 249.4 586.4Q249.8 585.7 249.8 584.9L249.8 584.9Q249.8 583.9 249.2 583.3Q248.5 582.7 247.5 582.7L247.5 582.7Q245.6 582.7 244.9 584.6L244.9 584.6Q244.7 585.0 244.4 585.2Q244.2 585.4 243.7 585.4L243.7 585.4Q243.2 585.4 242.9 585.1Q242.6 584.8 242.6 584.3L242.6 584.3Q242.6 584.1 242.7 583.8L242.7 583.8Q242.9 583.2 243.2 582.7Q243.6 582.1 244.2 581.7Q244.8 581.2 245.7 580.9Q246.5 580.7 247.5 580.7L247.5 580.7Q249.6 580.7 251.0 581.8Q252.3 582.9 252.3 584.7L252.3 584.7Q252.3 585.9 251.6 586.9Q251.0 588.0 249.2 589.8L249.2 589.8L245.9 592.9L245.9 593.0L251.6 593.0Q252.1 593.0 252.4 593.3Q252.6 593.5 252.6 594.0Q252.6 594.5 252.4 594.8Q252.1 595.0 251.6 595.0L251.6 595.0ZM259.6 595.3L259.6 595.3Q258.0 595.3 256.7 594.6Q255.4 593.9 254.9 592.8L254.9 592.8Q254.6 592.3 254.6 591.8L254.6 591.8Q254.6 591.3 254.9 591.0Q255.2 590.7 255.7 590.7L255.7 590.7Q256.1 590.7 256.4 590.9Q256.6 591.1 256.8 591.5L256.8 591.5Q257.2 592.3 257.9 592.8Q258.6 593.3 259.6 593.3L259.6 593.3Q260.9 593.3 261.7 592.5Q262.5 591.7 262.5 590.4L262.5 590.4Q262.5 589.2 261.7 588.4Q260.9 587.7 259.6 587.7L259.6 587.7Q258.3 587.7 257.4 588.5L257.4 588.5Q257.0 589.0 256.7 589.1Q256.4 589.3 256.0 589.3L256.0 589.3Q255.4 589.3 255.1 588.9Q254.8 588.5 254.8 588.0L254.8 588.0Q254.8 587.9 254.8 587.8L254.8 587.8L255.3 582.5Q255.4 581.7 255.8 581.3Q256.2 581.0 257.0 581.0L257.0 581.0L263.1 581.0Q263.6 581.0 263.9 581.2Q264.2 581.5 264.2 582.0L264.2 582.0Q264.2 582.4 263.9 582.7Q263.6 583.0 263.1 583.0L263.1 583.0L257.4 583.0L257.1 587.2L257.1 587.2Q257.6 586.5 258.4 586.1Q259.2 585.8 260.3 585.8L260.3 585.8Q262.3 585.8 263.6 587.0Q264.9 588.3 264.9 590.4L264.9 590.4Q264.9 592.6 263.4 593.9Q261.9 595.3 259.6 595.3Z " clip-path="url(#satori_cp-id-0)" mask="url(#satori_om-id-0)"/><mask id="satori_om-id-0-1-1"><rect x="901" y="557" width="251" height="26" fill="#fff" mask="url(#satori_om-id-0)"/></mask><path fill="#334155" d="M904.4 577.8Q904.1 578.2 903.5 578.2Q902.9 578.2 902.5 577.8Q902.2 577.5 902.2 576.8L902.2 576.8L902.2 563.6Q902.2 563.0 902.5 562.6Q902.9 562.2 903.5 562.2Q904.1 562.2 904.5 562.6Q904.8 563.0 904.8 563.6L904.8 563.6L904.8 568.5L904.9 568.5Q905.4 567.5 906.3 566.9Q907.3 566.4 908.5 566.4L908.5 566.4Q910.6 566.4 911.9 568.0Q913.2 569.5 913.2 572.3L913.2 572.3Q913.2 575.0 911.9 576.6Q910.6 578.1 908.5 578.1L908.5 578.1Q907.2 578.1 906.3 577.6Q905.4 577.0 904.8 576.0L904.8 576.0L904.8 576.0L904.8 576.8Q904.8 577.5 904.4 577.8ZM907.6 575.9L907.6 575.9Q908.9 575.9 909.7 574.9Q910.4 574.0 910.4 572.3Q910.4 570.6 909.7 569.6Q908.9 568.6 907.6 568.6L907.6 568.6Q906.4 568.6 905.6 569.6Q904.8 570.6 904.8 572.3L904.8 572.3Q904.8 573.9 905.6 574.9Q906.4 575.9 907.6 575.9ZM916.5 582.2L916.5 582.2Q915.6 582.2 915.1 581.9Q914.7 581.5 914.7 580.9L914.7 580.9Q914.7 580.5 914.9 580.3Q915.2 580.0 915.7 580.0L915.7 580.0Q915.8 580.0 916.0 580.0Q916.1 580.0 916.3 580.0L916.3 580.0Q917.3 580.0 917.9 578.7L917.9 578.7L918.1 578.2L914.3 568.3Q914.2 567.9 914.2 567.6L914.2 567.6Q914.2 567.0 914.6 566.7Q915.0 566.3 915.6 566.3L915.6 566.3Q916.1 566.3 916.4 566.6Q916.7 566.8 916.8 567.4L916.8 567.4L919.6 575.7L919.6 575.7L922.3 567.4Q922.5 566.8 922.8 566.6Q923.1 566.3 923.6 566.3L923.6 566.3Q924.2 566.3 924.5 566.7Q924.9 567.0 924.9 567.5L924.9 567.5Q924.9 567.9 924.8 568.3L924.8 568.3L921.0 578.4Q920.2 580.5 919.2 581.3Q918.2 582.2 916.5 582.2Z M937.8 578.2L937.8 578.2Q934.4 578.2 932.5 576.1Q930.5 573.9 930.5 570.2L930.5 570.2Q930.5 566.5 932.5 564.3Q934.4 562.2 937.7 562.2L937.7 562.2Q939.9 562.2 941.5 563.1Q943.1 564.1 943.9 565.8L943.9 565.8Q944.1 566.3 944.1 566.8L944.1 566.8Q944.1 567.4 943.8 567.7Q943.5 568.1 942.9 568.1L942.9 568.1Q942.0 568.1 941.5 567.1L941.5 567.1Q941.0 565.8 940.0 565.2Q939.0 564.5 937.7 564.5L937.7 564.5Q935.7 564.5 934.5 566.1Q933.4 567.6 933.4 570.2L933.4 570.2Q933.4 572.8 934.5 574.3Q935.7 575.9 937.7 575.9L937.7 575.9Q940.5 575.9 941.6 573.4L941.6 573.4Q941.8 573.0 942.1 572.8Q942.4 572.6 942.8 572.6L942.8 572.6Q943.4 572.6 943.7 572.9Q944.1 573.2 944.1 573.8L944.1 573.8Q944.1 574.3 943.9 574.8L943.9 574.8Q943.1 576.4 941.5 577.3Q939.9 578.2 937.8 578.2ZM948.6 577.8Q948.3 578.2 947.7 578.2Q947.1 578.2 946.7 577.8Q946.3 577.4 946.3 576.8L946.3 576.8L946.3 563.6Q946.3 563.0 946.7 562.6Q947.0 562.2 947.6 562.2L947.6 562.2Q948.3 562.2 948.6 562.6Q949.0 563.0 949.0 563.6L949.0 563.6L949.0 568.5L949.0 568.5Q949.5 567.5 950.4 566.9Q951.3 566.3 952.6 566.3L952.6 566.3Q954.5 566.3 955.5 567.5Q956.6 568.6 956.6 570.6L956.6 570.6L956.6 576.8Q956.6 577.4 956.2 577.8Q955.8 578.2 955.2 578.2Q954.6 578.2 954.3 577.8Q953.9 577.4 953.9 576.8L953.9 576.8L953.9 571.2Q953.9 569.9 953.3 569.3Q952.7 568.6 951.6 568.6L951.6 568.6Q950.4 568.6 949.7 569.4Q949.0 570.1 949.0 571.4L949.0 571.4L949.0 576.8Q949.0 577.4 948.6 577.8ZM963.8 578.2L963.8 578.2Q961.2 578.2 959.7 576.6Q958.3 575.1 958.3 572.3L958.3 572.3Q958.3 569.6 959.7 567.9Q961.2 566.3 963.6 566.3L963.6 566.3Q966.0 566.3 967.4 567.8Q968.9 569.3 968.9 571.6L968.9 571.6Q968.9 572.2 968.6 572.6Q968.2 572.9 967.6 572.9L967.6 572.9L960.9 572.9L960.9 573.0Q960.9 574.4 961.7 575.3Q962.5 576.1 963.8 576.1L963.8 576.1Q964.7 576.1 965.3 575.8Q966.0 575.4 966.6 574.6L966.6 574.6Q967 574.2 967.5 574.2L967.5 574.2Q968.0 574.2 968.3 574.4Q968.6 574.7 968.6 575.2L968.6 575.2Q968.6 575.5 968.4 575.9L968.4 575.9Q967.8 577.0 966.6 577.6Q965.4 578.2 963.8 578.2ZM960.9 571.1L960.9 571.1L966.3 571.1Q966.2 569.9 965.5 569.1Q964.8 568.4 963.6 568.4Q962.5 568.4 961.8 569.2Q961.0 569.9 960.9 571.1ZM972.9 577.8Q972.5 578.2 971.9 578.2Q971.3 578.2 971.0 577.8Q970.6 577.4 970.6 576.8L970.6 576.8L970.6 567.7Q970.6 567.1 970.9 566.7Q971.3 566.3 971.9 566.3Q972.5 566.3 972.8 566.7Q973.2 567.1 973.2 567.7L973.2 567.7L973.2 568.5L973.3 568.5Q974.2 566.3 976.8 566.3L976.8 566.3Q978.7 566.3 979.7 567.5Q980.7 568.6 980.7 570.6L980.7 570.6L980.7 576.8Q980.7 577.4 980.4 577.8Q980.0 578.2 979.4 578.2Q978.8 578.2 978.4 577.8Q978.1 577.4 978.1 576.8L978.1 576.8L978.1 571.1Q978.1 569.9 977.5 569.3Q976.9 568.6 975.8 568.6L975.8 568.6Q974.6 568.6 974.0 569.4Q973.3 570.1 973.3 571.4L973.3 571.4L973.3 576.8Q973.3 577.4 972.9 577.8ZM984.8 575.2L984.8 575.2Q985.3 575.2 985.6 575.5Q986.0 575.8 986.0 576.3L986.0 576.3Q986.0 576.6 985.9 576.9L985.9 576.9L985.0 580.6Q984.8 581.1 984.6 581.3Q984.3 581.5 983.9 581.5Q983.4 581.5 983.1 581.2Q982.8 581.0 982.9 580.5L982.9 580.5Q982.9 580.4 982.9 580.3L982.9 580.3L983.5 576.3Q983.7 575.2 984.8 575.2Z M997.4 578.2L997.4 578.2Q995.8 578.2 994.5 577.5Q993.3 576.7 992.8 575.4L992.8 575.4Q992.6 574.8 992.6 574.2L992.6 574.2Q992.6 573.6 992.9 573.2Q993.3 572.9 993.8 572.9L993.8 572.9Q994.4 572.9 994.7 573.2Q995.0 573.4 995.2 574.0L995.2 574.0Q995.4 574.9 996.0 575.3Q996.6 575.8 997.4 575.8L997.4 575.8Q998.5 575.8 999.1 575.1Q999.7 574.5 999.7 573.2L999.7 573.2L999.7 563.7Q999.7 563.0 1000.0 562.6Q1000.4 562.3 1001.1 562.3L1001.1 562.3Q1001.7 562.3 1002.1 562.6Q1002.4 563.0 1002.4 563.7L1002.4 563.7L1002.4 573.2Q1002.4 575.6 1001.1 576.9Q999.8 578.2 997.4 578.2ZM1006.8 578.1L1006.8 578.1Q1006.2 578.1 1005.7 577.6Q1005.3 577.2 1005.3 576.5L1005.3 576.5Q1005.3 575.9 1005.7 575.4Q1006.2 575.0 1006.8 575.0L1006.8 575.0Q1007.5 575.0 1007.9 575.4Q1008.4 575.9 1008.4 576.5L1008.4 576.5Q1008.4 577.2 1007.9 577.6Q1007.5 578.1 1006.8 578.1Z M1018.6 578.1L1018.6 578.1Q1017.0 578.1 1015.9 577.2Q1014.8 576.2 1014.8 574.7L1014.8 574.7Q1014.8 573.2 1016.0 572.3Q1017.1 571.4 1019.2 571.3L1019.2 571.3L1022.2 571.1L1022.2 570.3Q1022.2 569.4 1021.6 568.9Q1021.1 568.4 1020.1 568.4L1020.1 568.4Q1019.3 568.4 1018.7 568.7Q1018.2 569.0 1017.7 569.8L1017.7 569.8Q1017.3 570.3 1016.6 570.3L1016.6 570.3Q1016.1 570.3 1015.8 570.0Q1015.5 569.7 1015.5 569.2L1015.5 569.2Q1015.5 568.9 1015.6 568.5L1015.6 568.5Q1016.1 567.5 1017.3 566.9Q1018.5 566.3 1020.2 566.3L1020.2 566.3Q1022.3 566.3 1023.6 567.4Q1024.8 568.4 1024.8 570.1L1024.8 570.1L1024.8 576.8Q1024.8 577.5 1024.5 577.8Q1024.1 578.2 1023.5 578.2L1023.5 578.2Q1023.0 578.2 1022.6 577.8Q1022.3 577.5 1022.2 576.9L1022.2 576.9L1022.2 576.1L1022.2 576.1Q1021.7 577.0 1020.7 577.6Q1019.8 578.1 1018.6 578.1ZM1019.5 576.1L1019.5 576.1Q1020.6 576.1 1021.4 575.4Q1022.2 574.7 1022.2 573.7L1022.2 573.7L1022.2 572.9L1019.5 573.0Q1018.6 573.1 1018.0 573.5Q1017.5 573.9 1017.5 574.6L1017.5 574.6Q1017.5 575.3 1018.0 575.7Q1018.6 576.1 1019.5 576.1ZM1029.3 577.8Q1028.9 578.2 1028.3 578.2Q1027.7 578.2 1027.3 577.8Q1027.0 577.4 1027.0 576.8L1027.0 576.8L1027.0 567.7Q1027.0 567.1 1027.3 566.7Q1027.7 566.3 1028.3 566.3Q1028.8 566.3 1029.2 566.7Q1029.6 567.1 1029.6 567.7L1029.6 567.7L1029.6 568.5L1029.6 568.5Q1030.6 566.3 1033.2 566.3L1033.2 566.3Q1035.0 566.3 1036.1 567.5Q1037.1 568.6 1037.1 570.6L1037.1 570.6L1037.1 576.8Q1037.1 577.4 1036.7 577.8Q1036.4 578.2 1035.8 578.2Q1035.2 578.2 1034.8 577.8Q1034.4 577.4 1034.4 576.8L1034.4 576.8L1034.4 571.1Q1034.4 569.9 1033.9 569.3Q1033.3 568.6 1032.2 568.6L1032.2 568.6Q1031.0 568.6 1030.3 569.4Q1029.6 570.1 1029.6 571.4L1029.6 571.4L1029.6 576.8Q1029.6 577.4 1029.3 577.8ZM1043.5 578.1L1043.5 578.1Q1041.3 578.1 1040.1 576.5Q1038.8 575.0 1038.8 572.2L1038.8 572.2Q1038.8 569.5 1040.1 568.0Q1041.3 566.4 1043.5 566.4L1043.5 566.4Q1044.7 566.4 1045.6 566.9Q1046.6 567.5 1047.0 568.5L1047.0 568.5L1047.1 568.5L1047.1 563.6Q1047.1 563.0 1047.5 562.6Q1047.8 562.2 1048.4 562.2Q1049.0 562.2 1049.4 562.6Q1049.8 563.0 1049.8 563.6L1049.8 563.6L1049.8 576.8Q1049.8 577.5 1049.4 577.8Q1049.0 578.2 1048.4 578.2L1048.4 578.2Q1047.8 578.2 1047.5 577.8Q1047.1 577.5 1047.1 576.8L1047.1 576.8L1047.1 575.9L1047.0 575.9Q1046.6 576.9 1045.7 577.5Q1044.8 578.1 1043.5 578.1ZM1044.3 575.9L1044.3 575.9Q1045.6 575.9 1046.3 574.9Q1047.1 573.9 1047.1 572.3L1047.1 572.3Q1047.1 570.6 1046.3 569.6Q1045.6 568.6 1044.3 568.6L1044.3 568.6Q1043.0 568.6 1042.3 569.6Q1041.5 570.6 1041.5 572.3L1041.5 572.3Q1041.5 574.0 1042.3 575.0Q1043.0 575.9 1044.3 575.9Z M1058.1 578.1L1058.1 578.1Q1057.4 578.1 1057.1 577.7Q1056.7 577.4 1056.7 576.7L1056.7 576.7L1056.7 563.7Q1056.7 563.0 1057.1 562.6Q1057.4 562.3 1058.1 562.3L1058.1 562.3Q1058.7 562.3 1059.1 562.6Q1059.5 563.0 1059.5 563.7L1059.5 563.7L1059.5 568.9L1067.0 568.9L1067.0 563.7Q1067.0 563.0 1067.4 562.6Q1067.7 562.3 1068.4 562.3L1068.4 562.3Q1069.0 562.3 1069.4 562.6Q1069.8 563.0 1069.8 563.7L1069.8 563.7L1069.8 576.7Q1069.8 577.4 1069.4 577.8Q1069.0 578.1 1068.4 578.1L1068.4 578.1Q1067.7 578.1 1067.4 577.8Q1067.0 577.4 1067.0 576.7L1067.0 576.7L1067.0 571.2L1059.5 571.2L1059.5 576.7Q1059.5 577.4 1059.1 577.8Q1058.7 578.1 1058.1 578.1ZM1076.2 578.2L1076.2 578.2Q1074.3 578.2 1073.3 577.0Q1072.2 575.9 1072.2 573.9L1072.2 573.9L1072.2 567.7Q1072.2 567.1 1072.5 566.7Q1072.9 566.3 1073.5 566.3Q1074.1 566.3 1074.5 566.7Q1074.8 567.1 1074.8 567.8L1074.8 567.8L1074.8 573.4Q1074.8 574.6 1075.4 575.3Q1076.0 575.9 1077.1 575.9L1077.1 575.9Q1078.3 575.9 1079.0 575.1Q1079.6 574.4 1079.6 573.1L1079.6 573.1L1079.6 567.7Q1079.6 567.1 1080.0 566.7Q1080.4 566.3 1081.0 566.3L1081.0 566.3Q1081.6 566.3 1081.9 566.7Q1082.3 567.1 1082.3 567.8L1082.3 567.8L1082.3 576.8Q1082.3 577.4 1082.0 577.8Q1081.6 578.2 1081.0 578.2L1081.0 578.2Q1080.4 578.2 1080.1 577.8Q1079.7 577.4 1079.7 576.8L1079.7 576.8L1079.7 576.0L1079.7 576.0Q1078.7 578.2 1076.2 578.2ZM1087.8 578.1L1087.8 578.1Q1086.2 578.1 1085.1 577.2Q1084.0 576.2 1084.0 574.7L1084.0 574.7Q1084.0 573.2 1085.2 572.3Q1086.3 571.4 1088.4 571.3L1088.4 571.3L1091.4 571.1L1091.4 570.3Q1091.4 569.4 1090.8 568.9Q1090.3 568.4 1089.3 568.4L1089.3 568.4Q1088.5 568.4 1087.9 568.7Q1087.4 569.0 1086.9 569.8L1086.9 569.8Q1086.5 570.3 1085.8 570.3L1085.8 570.3Q1085.3 570.3 1085.0 570.0Q1084.7 569.7 1084.7 569.2L1084.7 569.2Q1084.7 568.9 1084.8 568.5L1084.8 568.5Q1085.3 567.5 1086.5 566.9Q1087.7 566.3 1089.4 566.3L1089.4 566.3Q1091.5 566.3 1092.8 567.4Q1094.0 568.4 1094.0 570.1L1094.0 570.1L1094.0 576.8Q1094.0 577.5 1093.7 577.8Q1093.3 578.2 1092.7 578.2L1092.7 578.2Q1092.2 578.2 1091.8 577.8Q1091.5 577.5 1091.4 576.9L1091.4 576.9L1091.4 576.1L1091.4 576.1Q1090.9 577.0 1089.9 577.6Q1089.0 578.1 1087.8 578.1ZM1088.7 576.1L1088.7 576.1Q1089.8 576.1 1090.6 575.4Q1091.4 574.7 1091.4 573.7L1091.4 573.7L1091.4 572.9L1088.7 573.0Q1087.8 573.1 1087.2 573.5Q1086.7 573.9 1086.7 574.6L1086.7 574.6Q1086.7 575.3 1087.2 575.7Q1087.8 576.1 1088.7 576.1ZM1098.5 577.8Q1098.1 578.2 1097.5 578.2Q1096.9 578.2 1096.5 577.8Q1096.2 577.4 1096.2 576.8L1096.2 576.8L1096.2 567.7Q1096.2 567.1 1096.5 566.7Q1096.9 566.3 1097.5 566.3Q1098.0 566.3 1098.4 566.7Q1098.8 567.1 1098.8 567.7L1098.8 567.7L1098.8 568.5L1098.8 568.5Q1099.8 566.3 1102.4 566.3L1102.4 566.3Q1104.2 566.3 1105.3 567.5Q1106.3 568.6 1106.3 570.6L1106.3 570.6L1106.3 576.8Q1106.3 577.4 1106.0 577.8Q1105.6 578.2 1105.0 578.2Q1104.4 578.2 1104.0 577.8Q1103.6 577.4 1103.6 576.8L1103.6 576.8L1103.6 571.1Q1103.6 569.9 1103.1 569.3Q1102.5 568.6 1101.4 568.6L1101.4 568.6Q1100.2 568.6 1099.5 569.4Q1098.8 570.1 1098.8 571.4L1098.8 571.4L1098.8 576.8Q1098.8 577.4 1098.5 577.8ZM1113.4 582.2L1113.4 582.2Q1111.8 582.2 1110.5 581.7Q1109.3 581.1 1108.7 580.2L1108.7 580.2Q1108.5 579.8 1108.5 579.4L1108.5 579.4Q1108.5 578.9 1108.8 578.6Q1109.1 578.3 1109.6 578.3L1109.6 578.3Q1110.2 578.3 1110.6 578.8L1110.6 578.8Q1111.3 579.5 1111.9 579.8Q1112.6 580.1 1113.4 580.1L1113.4 580.1Q1114.7 580.1 1115.5 579.4Q1116.3 578.7 1116.3 577.6L1116.3 577.6L1116.3 575.8L1116.2 575.8Q1115.8 576.7 1114.8 577.3Q1113.9 577.8 1112.7 577.8L1112.7 577.8Q1110.5 577.8 1109.2 576.3Q1108.0 574.7 1108.0 572.1L1108.0 572.1Q1108.0 569.4 1109.2 567.9Q1110.5 566.4 1112.7 566.4L1112.7 566.4Q1113.9 566.4 1114.8 566.9Q1115.7 567.5 1116.3 568.5L1116.3 568.5L1116.3 568.5L1116.3 567.7Q1116.3 567.1 1116.7 566.7Q1117.0 566.3 1117.6 566.3Q1118.2 566.3 1118.6 566.7Q1119.0 567.1 1119.0 567.7L1119.0 567.7L1119.0 577.6Q1119.0 579.7 1117.5 581.0Q1116.0 582.2 1113.4 582.2ZM1113.5 575.7L1113.5 575.7Q1114.8 575.7 1115.5 574.8Q1116.3 573.8 1116.3 572.1L1116.3 572.1Q1116.3 570.5 1115.5 569.5Q1114.8 568.5 1113.5 568.5L1113.5 568.5Q1112.2 568.5 1111.5 569.5Q1110.7 570.5 1110.7 572.1L1110.7 572.1Q1110.7 573.8 1111.5 574.8Q1112.2 575.7 1113.5 575.7ZM1123.0 575.2L1123.0 575.2Q1123.6 575.2 1123.9 575.5Q1124.2 575.8 1124.2 576.3L1124.2 576.3Q1124.2 576.6 1124.1 576.9L1124.1 576.9L1123.2 580.6Q1123.1 581.1 1122.9 581.3Q1122.6 581.5 1122.1 581.5Q1121.7 581.5 1121.4 581.2Q1121.1 581.0 1121.1 580.5L1121.1 580.5Q1121.1 580.4 1121.2 580.3L1121.2 580.3L1121.8 576.3Q1121.9 575.2 1123.0 575.2Z M1138.5 578.2L1138.5 578.2Q1135.1 578.2 1133.2 576.1Q1131.2 573.9 1131.2 570.2L1131.2 570.2Q1131.2 566.5 1133.2 564.3Q1135.1 562.2 1138.4 562.2L1138.4 562.2Q1140.6 562.2 1142.2 563.1Q1143.8 564.1 1144.6 565.8L1144.6 565.8Q1144.8 566.3 1144.8 566.8L1144.8 566.8Q1144.8 567.4 1144.5 567.7Q1144.1 568.1 1143.6 568.1L1143.6 568.1Q1142.7 568.1 1142.2 567.1L1142.2 567.1Q1141.7 565.8 1140.7 565.2Q1139.7 564.5 1138.4 564.5L1138.4 564.5Q1136.4 564.5 1135.2 566.1Q1134.1 567.6 1134.1 570.2L1134.1 570.2Q1134.1 572.8 1135.2 574.3Q1136.4 575.9 1138.4 575.9L1138.4 575.9Q1141.2 575.9 1142.3 573.4L1142.3 573.4Q1142.5 573.0 1142.8 572.8Q1143.1 572.6 1143.5 572.6L1143.5 572.6Q1144.1 572.6 1144.4 572.9Q1144.8 573.2 1144.8 573.8L1144.8 573.8Q1144.8 574.3 1144.5 574.8L1144.5 574.8Q1143.8 576.4 1142.2 577.3Q1140.6 578.2 1138.5 578.2ZM1148.8 578.1L1148.8 578.1Q1148.1 578.1 1147.7 577.6Q1147.3 577.2 1147.3 576.5L1147.3 576.5Q1147.3 575.9 1147.7 575.4Q1148.1 575.0 1148.8 575.0L1148.8 575.0Q1149.4 575.0 1149.9 575.4Q1150.3 575.9 1150.3 576.5L1150.3 576.5Q1150.3 577.2 1149.9 577.6Q1149.4 578.1 1148.8 578.1Z " clip-path="url(#satori_cp-id-0)" mask="url(#satori_om-id-0)"/></svg>