<svg width="1200" height="630" viewBox="0 0 1200 630" xmlns="http://www.w3.org/2000/svg"><mask id="satori_om-id"><rect x="0" y="0" width="1200" height="630" fill="#fff"/></mask><defs><pattern id="satori_pattern_id-0_0" x="0" y="0" width="1" height="1" patternUnits="objectBoundingBox"><linearGradient id="satori_biid-0_0" x1="-0.09774620284174435" y1="0.18618324350808482" x2="1.0977462028417444" y2="0.8138167564919152" spreadMethod="pad"><stop offset="0%" stop-color="#f8fafc"/><stop offset="50%" stop-color="#eef2ff"/><stop offset="100%" stop-color="#ffffff"/></linearGradient><rect x="0" y="0" width="1200" height="630" fill="url(#satori_biid-0_0)"/></pattern></defs><clipPath id="satori_cp-id-0"><rect x="0" y="0" width="1200" height="630"/></clipPath><mask id="satori_om-id-0"><rect x="0" y="0" width="1200" height="630" fill="#fff"/></mask><rect x="0" y="0" width="1200" height="630" fill="url(#satori_pattern_id-0_0)"/><mask id="satori_om-id-0-0"><rect x="0" y="0" width="1200" height="509" fill="#fff" mask="url(#satori_om-id-0)"/></mask><mask id="satori_om-id-0-0-0"><rect x="72" y="72" width="1056" height="365" fill="#fff" mask="url(#satori_om-id-0)"/></mask><mask id="satori_om-id-0-0-0-0"><rect x="72" y="150" width="1056" height="38" fill="#fff" mask="url(#satori_om-id-0)"/></mask><path fill="#64748b" d="M81.7 180.3Q81.2 180.7 80.4 180.7Q79.6 180.7 79.1 180.3Q78.7 179.9 78.4 179.0L78.4 179.0L73.2 160.3Q73.0 159.7 73.0 159.3L73.0 159.3Q73.0 158.5 73.5 158.1Q74.0 157.7 74.7 157.7L74.7 157.7Q76.1 157.7 76.4 159.1L76.4 159.1L80.5 175.6L80.6 175.6L85.0 159.4Q85.3 158.5 85.8 158.1Q86.2 157.7 87.0 157.7L87.0 157.7Q87.8 157.7 88.3 158.1Q88.8 158.5 89 159.4L89 159.4L93.4 175.6L93.5 175.6L97.6 159.1Q97.9 157.7 99.3 157.7L99.3 157.7Q100.1 157.7 100.6 158.1Q101.0 158.5 101.0 159.3L101.0 159.3Q101.0 159.7 100.9 160.3L100.9 160.3L95.6 179Q95.4 179.9 94.9 180.3Q94.4 180.7 93.6 180.7L93.6 180.7Q92.8 180.7 92.3 180.3Q91.9 179.9 91.6 179L91.6 179L87.1 163.5L86.9 163.5L82.5 179Q82.2 179.9 81.7 180.3ZM110.8 180.8L110.8 180.8Q107.1 180.8 105.1 178.5Q103.0 176.3 103.0 172.3L103.0 172.3Q103.0 168.4 105.1 166.1Q107.1 163.7 110.6 163.7L110.6 163.7Q113.9 163.7 115.9 165.9Q118 168 118 171.4L118 171.4Q118 172.2 117.6 172.6Q117.1 173.1 116.3 173.1L116.3 173.1L106.4 173.1L106.4 173.2Q106.4 175.4 107.6 176.7Q108.8 178.0 110.8 178.0L110.8 178.0Q112.1 178.0 113.1 177.5Q114.1 177.0 115.0 175.7L115.0 175.7Q115.5 175.1 116.2 175.1L116.2 175.1Q116.8 175.1 117.2 175.5Q117.6 175.9 117.6 176.5L117.6 176.5Q117.6 176.8 117.4 177.4L117.4 177.4Q116.6 179 114.9 179.9Q113.1 180.8 110.8 180.8ZM106.4 170.7L106.4 170.7L114.6 170.7Q114.6 168.8 113.5 167.6Q112.4 166.5 110.6 166.5L110.6 166.5Q108.8 166.5 107.7 167.6Q106.5 168.8 106.4 170.7ZM126.8 180.8L126.8 180.8Q123.7 180.8 121.8 178.4Q119.9 176.1 119.9 172.3Q119.9 168.4 121.8 166.1Q123.6 163.8 126.8 163.8L126.8 163.8Q128.5 163.8 129.8 164.6Q131.2 165.4 131.9 166.8L131.9 166.8L132.0 166.8L132.0 159.4Q132.0 158.6 132.4 158.1Q132.9 157.6 133.7 157.6L133.7 157.6Q134.4 157.6 134.9 158.1Q135.4 158.6 135.4 159.4L135.4 159.4L135.4 179.1Q135.4 179.9 134.9 180.3Q134.4 180.8 133.7 180.8L133.7 180.8Q133.0 180.8 132.5 180.3Q132.0 179.9 132.0 179.1L132.0 179.1L132.0 177.5L131.9 177.5Q131.3 179.0 130.0 179.9Q128.6 180.8 126.8 180.8ZM127.7 177.9L127.7 177.9Q129.6 177.9 130.8 176.4Q132 174.8 132 172.3L132 172.3Q132 169.7 130.8 168.2Q129.6 166.6 127.7 166.6L127.7 166.6Q125.7 166.6 124.5 168.1Q123.3 169.7 123.3 172.3L123.3 172.3Q123.3 174.9 124.5 176.4Q125.7 177.9 127.7 177.9ZM140.5 180.8L140.5 180.8Q139.7 180.8 139.3 180.3Q138.8 179.8 138.8 179.0L138.8 179.0L138.8 165.4Q138.8 164.7 139.3 164.2Q139.7 163.7 140.4 163.7Q141.2 163.7 141.6 164.2Q142.1 164.7 142.1 165.5L142.1 165.5L142.1 166.8L142.1 166.8Q143.6 163.8 147.3 163.8L147.3 163.8Q150.0 163.8 151.5 165.4Q153.0 167.0 153.0 169.8L153.0 169.8L153.0 179.0Q153.0 179.8 152.5 180.3Q152.0 180.8 151.3 180.8L151.3 180.8Q150.5 180.8 150.1 180.3Q149.6 179.8 149.6 179.0L149.6 179.0L149.6 170.5Q149.6 168.6 148.7 167.6Q147.8 166.7 146.1 166.7L146.1 166.7Q144.3 166.7 143.3 167.8Q142.2 169.0 142.2 170.9L142.2 170.9L142.2 179.0Q142.2 179.8 141.7 180.3Q141.3 180.8 140.5 180.8ZM163.4 180.8L163.4 180.8Q159.6 180.8 157.6 178.5Q155.5 176.3 155.5 172.3L155.5 172.3Q155.5 168.4 157.6 166.1Q159.6 163.7 163.1 163.7L163.1 163.7Q166.4 163.7 168.5 165.9Q170.5 168 170.5 171.4L170.5 171.4Q170.5 172.2 170.1 172.6Q169.6 173.1 168.8 173.1L168.8 173.1L158.9 173.1L158.9 173.2Q158.9 175.4 160.1 176.7Q161.3 178.0 163.3 178.0L163.3 178.0Q164.7 178.0 165.6 177.5Q166.6 177.0 167.5 175.7L167.5 175.7Q168.0 175.1 168.7 175.1L168.7 175.1Q169.3 175.1 169.7 175.5Q170.1 175.9 170.1 176.5L170.1 176.5Q170.1 176.8 169.9 177.4L169.9 177.4Q169.1 179 167.4 179.9Q165.7 180.8 163.4 180.8ZM158.9 170.7L158.9 170.7L167.1 170.7Q167.1 168.8 166.0 167.6Q164.9 166.5 163.1 166.5L163.1 166.5Q161.4 166.5 160.2 167.6Q159.0 168.8 158.9 170.7ZM179.2 180.8L179.2 180.8Q176.8 180.8 175.1 179.9Q173.4 179.0 172.8 177.4L172.8 177.4Q172.7 177.1 172.7 176.7L172.7 176.7Q172.7 176.1 173.1 175.8Q173.5 175.4 174.1 175.4L174.1 175.4Q175.0 175.4 175.6 176.3L175.6 176.3Q176.2 177.3 177.1 177.8Q177.9 178.2 179.4 178.2L179.4 178.2Q180.8 178.2 181.7 177.6Q182.6 177.0 182.6 176.0L182.6 176.0Q182.6 175.2 182.0 174.7Q181.5 174.3 180.2 173.9L180.2 173.9L177.6 173.3Q172.8 172.2 172.8 168.7L172.8 168.7Q172.8 166.4 174.6 165.1Q176.4 163.7 179.3 163.7L179.3 163.7Q181.5 163.7 183.2 164.7Q184.8 165.7 185.2 167.2L185.2 167.2Q185.3 167.6 185.3 167.7L185.3 167.7Q185.3 168.3 184.9 168.6Q184.6 168.9 183.9 168.9L183.9 168.9Q183.0 168.9 182.6 168.2L182.6 168.2Q182.0 167.3 181.2 166.8Q180.4 166.3 179.2 166.3L179.2 166.3Q177.8 166.3 177.0 166.9Q176.1 167.5 176.1 168.5L176.1 168.5Q176.1 170.0 178.7 170.6L178.7 170.6L181.2 171.2Q183.8 171.8 184.9 172.9Q186.0 173.9 186.0 175.7L186.0 175.7Q186.0 178.0 184.1 179.4Q182.2 180.8 179.2 180.8ZM194.8 180.8L194.8 180.8Q191.6 180.8 189.8 178.4Q187.9 176.1 187.9 172.3Q187.9 168.4 189.7 166.1Q191.6 163.8 194.7 163.8L194.7 163.8Q196.5 163.8 197.8 164.6Q199.2 165.4 199.9 166.8L199.9 166.8L200.0 166.8L200.0 159.4Q200.0 158.6 200.4 158.1Q200.9 157.6 201.7 157.6L201.7 157.6Q202.4 157.6 202.9 158.1Q203.3 158.6 203.3 159.4L203.3 159.4L203.3 179.1Q203.3 179.9 202.9 180.3Q202.4 180.8 201.7 180.8L201.7 180.8Q200.9 180.8 200.4 180.3Q200.0 179.9 200.0 179.1L200.0 179.1L200.0 177.5L199.9 177.5Q199.3 179.0 197.9 179.9Q196.6 180.8 194.8 180.8ZM195.7 177.9L195.7 177.9Q197.6 177.9 198.8 176.4Q200.0 174.8 200.0 172.3L200.0 172.3Q200.0 169.7 198.8 168.2Q197.6 166.6 195.7 166.6L195.7 166.6Q193.7 166.6 192.5 168.1Q191.3 169.7 191.3 172.3L191.3 172.3Q191.3 174.9 192.5 176.4Q193.7 177.9 195.7 177.9ZM211.6 180.8L211.6 180.8Q209.2 180.8 207.7 179.4Q206.1 178 206.1 175.8L206.1 175.8Q206.1 173.6 207.7 172.4Q209.3 171.1 212.2 170.9L212.2 170.9L216.8 170.7L216.8 169.4Q216.8 168.0 215.9 167.3Q215 166.5 213.5 166.5L213.5 166.5Q212.2 166.5 211.4 167.0Q210.5 167.5 209.8 168.6L209.8 168.6Q209.3 169.3 208.4 169.3L208.4 169.3Q207.8 169.3 207.4 168.9Q207.0 168.5 207.0 167.9L207.0 167.9Q207.0 167.3 207.3 166.8L207.3 166.8Q207.9 165.4 209.6 164.6Q211.4 163.7 213.6 163.7L213.6 163.7Q216.6 163.7 218.3 165.2Q220.1 166.7 220.1 169.1L220.1 169.1L220.1 179.1Q220.1 179.8 219.7 180.3Q219.2 180.8 218.5 180.8L218.5 180.8Q217.8 180.8 217.3 180.3Q216.9 179.9 216.9 179.2L216.9 179.2L216.9 177.8L216.8 177.8Q216.1 179.1 214.7 179.9Q213.2 180.8 211.6 180.8ZM212.5 178.1L212.5 178.1Q214.3 178.1 215.5 177.0Q216.8 175.9 216.8 174.3L216.8 174.3L216.8 173.0L212.7 173.3Q211.2 173.4 210.4 174.0Q209.5 174.6 209.5 175.7L209.5 175.7Q209.5 176.8 210.4 177.4Q211.2 178.1 212.5 178.1ZM225.4 186.6L225.4 186.6Q224.2 186.6 223.6 186.2Q223.0 185.8 223.0 185.0L223.0 185.0Q223.0 184.4 223.3 184.1Q223.7 183.8 224.3 183.8L224.3 183.8Q224.5 183.8 224.7 183.8Q225.0 183.8 225.2 183.8L225.2 183.8Q226.9 183.8 227.7 181.6L227.7 181.6L228.0 180.6L222.5 166.3Q222.3 165.7 222.3 165.3L222.3 165.3Q222.3 164.6 222.8 164.2Q223.3 163.7 224.0 163.7L224.0 163.7Q224.7 163.7 225.0 164.0Q225.4 164.3 225.6 165.0L225.6 165.0L229.8 177.4L229.9 177.4L234.1 165.0Q234.3 164.3 234.7 164.0Q235.0 163.7 235.7 163.7L235.7 163.7Q236.4 163.7 236.9 164.2Q237.3 164.6 237.3 165.3L237.3 165.3Q237.3 165.7 237.2 166.2L237.2 166.2L231.5 181.3Q230.4 184.3 229.0 185.4Q227.7 186.6 225.4 186.6ZM242.1 176.7L242.1 176.7Q242.8 176.7 243.2 177.0Q243.7 177.4 243.7 178.1L243.7 178.1Q243.7 178.5 243.6 179.0L243.6 179.0L242.2 184.3Q241.9 185.5 240.8 185.5L240.8 185.5Q240.2 185.5 239.8 185.1Q239.4 184.8 239.4 184.3L239.4 184.3Q239.4 184.1 239.5 183.9L239.5 183.9L240.5 178.1Q240.7 176.7 242.1 176.7Z M268.6 180.5L256.1 180.5Q255.4 180.5 254.9 180.1Q254.5 179.7 254.5 179L254.5 179Q254.5 178.5 254.7 178.1Q254.9 177.8 255.5 177.2L255.5 177.2L262.5 170.0Q264.7 167.8 265.4 166.6Q266.2 165.4 266.2 164.1L266.2 164.1Q266.2 162.5 265.0 161.4Q263.9 160.4 262.2 160.4L262.2 160.4Q258.9 160.4 257.7 163.7L257.7 163.7Q257.5 164.3 257.1 164.6Q256.7 164.9 256.1 164.9L256.1 164.9Q255.4 164.9 255.0 164.5Q254.6 164.0 254.6 163.4L254.6 163.4Q254.6 163 254.7 162.6L254.7 162.6Q254.9 161.7 255.4 160.8Q256.0 159.9 257.0 159.2Q257.9 158.4 259.3 158.0Q260.6 157.5 262.3 157.5L262.3 157.5Q265.5 157.5 267.5 159.3Q269.6 161.1 269.6 163.9L269.6 163.9Q269.6 165.8 268.6 167.5Q267.5 169.1 264.6 172.0L264.6 172.0L259.2 177.4L259.2 177.5L268.6 177.5Q269.3 177.5 269.7 177.9Q270.1 178.3 270.1 179L270.1 179Q270.1 179.7 269.7 180.1Q269.3 180.5 268.6 180.5L268.6 180.5ZM281.1 180.9L281.1 180.9Q278.6 180.9 276.6 179.8Q274.6 178.6 273.8 176.8L273.8 176.8Q273.4 176.0 273.4 175.2L273.4 175.2Q273.4 174.5 273.8 174.1Q274.3 173.7 275.0 173.7L275.0 173.7Q275.5 173.7 275.9 174.0Q276.3 174.2 276.5 174.8L276.5 174.8Q277.1 176.3 278.3 177.1Q279.5 178.0 281.2 178.0L281.2 178.0Q283.3 178.0 284.7 176.6Q286 175.3 286 173.1L286 173.1Q286 171.0 284.6 169.7Q283.3 168.4 281.2 168.4L281.2 168.4Q278.9 168.4 277.5 169.9L277.5 169.9Q276.8 170.6 276.4 170.9Q276 171.1 275.4 171.1L275.4 171.1Q274.6 171.1 274.1 170.6Q273.7 170.0 273.7 169.3L273.7 169.3L273.7 169.0L274.5 160.3Q274.6 159.0 275.2 158.5Q275.9 157.9 277.2 157.9L277.2 157.9L286.8 157.9Q287.5 157.9 287.9 158.3Q288.3 158.7 288.3 159.4Q288.3 160.1 287.9 160.5Q287.5 160.9 286.8 160.9L286.8 160.9L277.5 160.9L276.9 167.9L276.9 167.9Q277.7 166.8 279.0 166.2Q280.3 165.6 282 165.6L282 165.6Q285.3 165.6 287.3 167.7Q289.4 169.8 289.4 173.0L289.4 173.0Q289.4 176.5 287.1 178.7Q284.8 180.9 281.1 180.9Z M316.5 177.7Q313.7 180.8 308.8 180.8Q304.0 180.8 301.1 177.7Q298.3 174.6 298.3 169.2Q298.3 163.8 301.1 160.7Q304.0 157.5 308.8 157.5L308.8 157.5Q313.7 157.5 316.5 160.7Q319.4 163.8 319.4 169.2Q319.4 174.6 316.5 177.7ZM308.8 177.8L308.8 177.8Q312.0 177.8 313.9 175.5Q315.8 173.1 315.8 169.2L315.8 169.2Q315.8 165.3 313.9 162.9Q312.0 160.6 308.8 160.6L308.8 160.6Q305.6 160.6 303.7 162.9Q301.8 165.3 301.8 169.2L301.8 169.2Q301.8 173.1 303.7 175.5Q305.6 177.8 308.8 177.8ZM329.3 180.8L329.3 180.8Q325.8 180.8 323.7 178.5Q321.6 176.2 321.6 172.3L321.6 172.3Q321.6 168.4 323.7 166.1Q325.8 163.7 329.3 163.7L329.3 163.7Q331.7 163.7 333.5 164.9Q335.4 166.0 335.9 167.7L335.9 167.7Q336.1 168.2 336.1 168.5L336.1 168.5Q336.1 169.1 335.7 169.5Q335.3 169.9 334.6 169.9L334.6 169.9Q334.1 169.9 333.8 169.7Q333.4 169.4 333.1 168.9L333.1 168.9Q332.5 167.7 331.6 167.1Q330.7 166.5 329.4 166.5L329.4 166.5Q327.4 166.5 326.2 168.1Q325.0 169.6 325.0 172.3L325.0 172.3Q325.0 174.9 326.2 176.4Q327.4 178.0 329.4 178.0L329.4 178.0Q331.9 178.0 333.1 175.7L333.1 175.7Q333.5 175.1 333.8 174.9Q334.1 174.6 334.7 174.6L334.7 174.6Q335.3 174.6 335.7 175.0Q336.1 175.4 336.1 176.0L336.1 176.0Q336.1 176.4 335.9 176.9L335.9 176.9Q335.3 178.6 333.5 179.7Q331.6 180.8 329.3 180.8ZM339.8 176.5L339.8 176.5L339.8 166.7L338.6 166.7Q338.0 166.7 337.6 166.4Q337.2 166 337.2 165.4Q337.2 164.8 337.6 164.4Q338.0 164.0 338.6 164.0L338.6 164.0L339.8 164.0L339.8 161.6Q339.8 160.8 340.3 160.3Q340.8 159.8 341.5 159.8Q342.3 159.8 342.8 160.3Q343.2 160.8 343.2 161.6L343.2 161.6L343.2 164.0L345.1 164.0Q345.8 164.0 346.2 164.4Q346.5 164.8 346.5 165.4Q346.5 166 346.2 166.4Q345.8 166.7 345.1 166.7L345.1 166.7L343.2 166.7L343.2 175.8Q343.2 176.8 343.6 177.3Q344.0 177.7 344.9 177.8L344.9 177.8L345.2 177.8Q346.6 177.9 346.6 179.1L346.6 179.1Q346.6 180.6 344.2 180.6L344.2 180.6L344 180.6Q339.8 180.6 339.8 176.5ZM361.8 178.5Q359.7 180.8 356.2 180.8Q352.6 180.8 350.5 178.5Q348.4 176.2 348.4 172.3L348.4 172.3Q348.4 168.3 350.5 166.0Q352.6 163.7 356.2 163.7Q359.7 163.7 361.8 166.0Q364.0 168.3 364.0 172.3L364.0 172.3Q364.0 176.2 361.8 178.5ZM356.2 178L356.2 178Q358.2 178 359.4 176.5Q360.5 175.0 360.5 172.3L360.5 172.3Q360.5 169.5 359.4 168.0Q358.2 166.5 356.2 166.5Q354.2 166.5 353.0 168.0Q351.8 169.5 351.8 172.3L351.8 172.3Q351.8 175.0 353.0 176.5Q354.2 178 356.2 178ZM368.3 180.8L368.3 180.8Q367.6 180.8 367.1 180.3Q366.7 179.9 366.7 179.1L366.7 179.1L366.7 159.4Q366.7 158.6 367.2 158.1Q367.6 157.6 368.4 157.6Q369.1 157.6 369.6 158.1Q370.1 158.6 370.1 159.4L370.1 159.4L370.1 166.8L370.2 166.8Q370.9 165.4 372.3 164.6Q373.6 163.8 375.4 163.8L375.4 163.8Q378.5 163.8 380.3 166.1Q382.2 168.4 382.2 172.3L382.2 172.3Q382.2 176.2 380.3 178.5Q378.5 180.8 375.3 180.8L375.3 180.8Q373.6 180.8 372.2 179.9Q370.8 179.1 370.0 177.7L370.0 177.7L370.0 177.7L370.0 179.1Q370.0 179.9 369.5 180.3Q369.1 180.8 368.3 180.8ZM374.4 177.9L374.4 177.9Q376.4 177.9 377.6 176.4Q378.7 174.9 378.7 172.3L378.7 172.3Q378.7 169.7 377.6 168.1Q376.4 166.6 374.4 166.6L374.4 166.6Q372.5 166.6 371.3 168.2Q370.1 169.7 370.1 172.3L370.1 172.3Q370.1 174.8 371.3 176.3Q372.5 177.9 374.4 177.9ZM391.9 180.8L391.9 180.8Q388.2 180.8 386.1 178.5Q384.1 176.3 384.1 172.3L384.1 172.3Q384.1 168.4 386.1 166.1Q388.2 163.7 391.7 163.7L391.7 163.7Q395.0 163.7 397.0 165.9Q399.1 168 399.1 171.4L399.1 171.4Q399.1 172.2 398.6 172.6Q398.2 173.1 397.4 173.1L397.4 173.1L387.5 173.1L387.5 173.2Q387.5 175.4 388.7 176.7Q389.8 178.0 391.9 178.0L391.9 178.0Q393.2 178.0 394.2 177.5Q395.2 177.0 396.1 175.7L396.1 175.7Q396.6 175.1 397.3 175.1L397.3 175.1Q397.9 175.1 398.3 175.5Q398.7 175.9 398.7 176.5L398.7 176.5Q398.7 176.8 398.5 177.4L398.5 177.4Q397.7 179 395.9 179.9Q394.2 180.8 391.9 180.8ZM387.5 170.7L387.5 170.7L395.7 170.7Q395.7 168.8 394.6 167.6Q393.5 166.5 391.7 166.5L391.7 166.5Q389.9 166.5 388.8 167.6Q387.6 168.8 387.5 170.7ZM403.4 180.8L403.4 180.8Q402.6 180.8 402.2 180.3Q401.7 179.8 401.7 179.0L401.7 179.0L401.7 165.4Q401.7 164.7 402.1 164.2Q402.6 163.7 403.3 163.7L403.3 163.7Q404.0 163.7 404.5 164.2Q404.9 164.7 404.9 165.4L404.9 165.4L404.9 166.8L405.0 166.8Q405.3 165.5 406.3 164.6Q407.3 163.8 408.6 163.8L408.6 163.8Q409.5 163.8 409.9 164.2L409.9 164.2Q410.4 164.5 410.4 165.4L410.4 165.4Q410.4 166.1 409.9 166.5L409.9 166.5Q409.4 167.0 408.3 167.0L408.3 167.0Q406.7 167 405.9 168.0Q405.1 169.0 405.1 170.6L405.1 170.6L405.1 179.0Q405.1 179.8 404.6 180.3Q404.1 180.8 403.4 180.8Z M432.8 180.5L420.4 180.5Q419.6 180.5 419.1 180.1Q418.7 179.7 418.7 179L418.7 179Q418.7 178.5 418.9 178.1Q419.1 177.8 419.7 177.2L419.7 177.2L426.7 170.0Q428.9 167.8 429.6 166.6Q430.4 165.4 430.4 164.1L430.4 164.1Q430.4 162.5 429.3 161.4Q428.2 160.4 426.5 160.4L426.5 160.4Q423.1 160.4 421.9 163.7L421.9 163.7Q421.7 164.3 421.3 164.6Q421.0 164.9 420.3 164.9L420.3 164.9Q419.6 164.9 419.2 164.5Q418.8 164.0 418.8 163.4L418.8 163.4Q418.8 163 418.9 162.6L418.9 162.6Q419.1 161.7 419.7 160.8Q420.3 159.9 421.2 159.2Q422.1 158.4 423.5 158.0Q424.9 157.5 426.5 157.5L426.5 157.5Q429.7 157.5 431.8 159.3Q433.8 161.1 433.8 163.9L433.8 163.9Q433.8 165.8 432.8 167.5Q431.7 169.1 428.8 172.0L428.8 172.0L423.5 177.4L423.5 177.5L432.8 177.5Q433.5 177.5 433.9 177.9Q434.4 178.3 434.4 179L434.4 179Q434.4 179.7 433.9 180.1Q433.5 180.5 432.8 180.5L432.8 180.5ZM451.9 177.7Q449.6 180.9 445.5 180.9Q441.5 180.9 439.2 177.7Q436.9 174.6 436.9 169.2L436.9 169.2Q436.9 163.8 439.2 160.6Q441.5 157.5 445.5 157.5L445.5 157.5Q449.6 157.5 451.9 160.6Q454.2 163.8 454.2 169.2L454.2 169.2Q454.2 174.6 451.9 177.7ZM445.5 178.0L445.5 178.0Q448.0 178.0 449.3 175.6Q450.6 173.3 450.6 169.2L450.6 169.2Q450.6 165.1 449.3 162.8Q448.0 160.4 445.5 160.4Q443.1 160.4 441.8 162.8Q440.5 165.1 440.5 169.2L440.5 169.2Q440.5 173.3 441.8 175.6Q443.1 178.0 445.5 178.0ZM471.3 180.5L458.9 180.5Q458.1 180.5 457.6 180.1Q457.2 179.7 457.2 179L457.2 179Q457.2 178.5 457.4 178.1Q457.6 177.8 458.2 177.2L458.2 177.2L465.2 170.0Q467.4 167.8 468.1 166.6Q468.9 165.4 468.9 164.1L468.9 164.1Q468.9 162.5 467.8 161.4Q466.7 160.4 465.0 160.4L465.0 160.4Q461.6 160.4 460.4 163.7L460.4 163.7Q460.2 164.3 459.8 164.6Q459.5 164.9 458.8 164.9L458.8 164.9Q458.1 164.9 457.7 164.5Q457.3 164.0 457.3 163.4L457.3 163.4Q457.3 163 457.4 162.6L457.4 162.6Q457.6 161.7 458.2 160.8Q458.8 159.9 459.7 159.2Q460.6 158.4 462.0 158.0Q463.4 157.5 465.0 157.5L465.0 157.5Q468.2 157.5 470.3 159.3Q472.3 161.1 472.3 163.9L472.3 163.9Q472.3 165.8 471.3 167.5Q470.2 169.1 467.3 172.0L467.3 172.0L462.0 177.4L462.0 177.5L471.3 177.5Q472.0 177.5 472.4 177.9Q472.9 178.3 472.9 179L472.9 179Q472.9 179.7 472.4 180.1Q472.0 180.5 471.3 180.5L471.3 180.5ZM483.7 180.9L483.7 180.9Q481.0 180.9 479.1 179.9Q477.2 178.9 476.2 177.2L476.2 177.2Q475.8 176.3 475.8 175.5L475.8 175.5Q475.8 174.8 476.2 174.4Q476.6 173.9 477.3 173.9L477.3 173.9Q477.9 173.9 478.3 174.2Q478.6 174.5 478.9 175.1L478.9 175.1Q480.1 178.0 483.7 178.0L483.7 178.0Q485.7 178.0 487.0 176.9Q488.3 175.9 488.3 174.2L488.3 174.2Q488.3 172.3 487 171.3Q485.7 170.2 483.4 170.2L483.4 170.2L481.9 170.2Q481.3 170.2 480.9 169.8Q480.5 169.5 480.5 168.8Q480.5 168.2 480.9 167.9Q481.3 167.5 481.9 167.5L481.9 167.5L483.3 167.5Q485.3 167.5 486.5 166.5Q487.7 165.4 487.7 163.9L487.7 163.9Q487.7 162.3 486.6 161.3Q485.6 160.4 483.6 160.4L483.6 160.4Q482.0 160.4 480.9 161.1Q479.9 161.8 479.3 163.2L479.3 163.2Q479.0 163.9 478.7 164.2Q478.3 164.4 477.7 164.4L477.7 164.4Q477.0 164.4 476.6 164.0Q476.2 163.6 476.2 162.9L476.2 162.9Q476.2 162.1 476.6 161.2L476.6 161.2Q477.5 159.5 479.3 158.5Q481.1 157.5 483.6 157.5L483.6 157.5Q487.0 157.5 489.0 159.2Q491.1 160.8 491.1 163.4L491.1 163.4Q491.1 165.4 489.8 166.8Q488.5 168.2 486.3 168.7L486.3 168.7L486.3 168.8Q488.8 169.0 490.3 170.4Q491.8 171.9 491.8 174.2L491.8 174.2Q491.8 177.2 489.5 179.0Q487.2 180.9 483.7 180.9Z " clip-path="url(#satori_cp-id-0)" mask="url(#satori_om-id-0)"/><mask id="satori_om-id-0-0-0-1"><rect x="72" y="212" width="1056" height="147" fill="#fff" mask="url(#satori_om-id-0)"/></mask><path fill="#0f172a" d="M83.9 270.8Q82.7 272.1 80.5 272.1Q78.3 272.1 77 270.8Q75.8 269.6 75.8 267.2L75.8 267.2L75.8 230.8Q75.8 228.4 77 227.1Q78.3 225.8 80.5 225.8Q82.7 225.8 83.9 227.1Q85.2 228.4 85.2 230.8L85.2 230.8L85.2 267.2Q85.2 269.6 83.9 270.8ZM99.8 271.0Q98.5 272.2 96.5 272.2Q94.4 272.2 93.2 271.0Q91.9 269.7 91.9 267.5L91.9 267.5L91.9 242.0Q91.9 239.8 93.1 238.6Q94.3 237.4 96.3 237.4Q98.4 237.4 99.6 238.6Q100.9 239.9 100.9 242.0L100.9 242.0L100.9 243.9L101.1 243.9Q103.8 237.4 111.4 237.4L111.4 237.4Q116.9 237.4 120.0 240.7Q123 244.1 123 250.0L123 250.0L123 267.5Q123 269.7 121.8 271.0Q120.5 272.2 118.4 272.2Q116.4 272.2 115.1 271.0Q113.9 269.7 113.9 267.5L113.9 267.5L113.9 251.9Q113.9 248.6 112.3 246.8Q110.8 245.0 107.7 245.0Q104.7 245.0 102.9 247.0Q101.0 249.1 101.0 252.3L101.0 252.3L101.0 267.5Q101.0 269.7 99.8 271.0ZM131.2 263.0L131.2 263.0L131.2 244.9L129.5 244.9Q127.8 244.9 126.9 244.0Q125.9 243.1 125.9 241.5Q125.9 239.9 126.9 239.0Q127.8 238.1 129.5 238.1L129.5 238.1L131.2 238.1L131.2 234.3Q131.2 232.1 132.4 230.8Q133.7 229.6 135.8 229.6Q137.9 229.6 139.1 230.8Q140.3 232.1 140.3 234.3L140.3 234.3L140.3 238.1L143.6 238.1Q145.2 238.1 146.1 239.0Q147.1 239.9 147.1 241.5Q147.1 243.1 146.1 244.0Q145.2 244.9 143.6 244.9L143.6 244.9L140.3 244.9L140.3 261.0Q140.3 262.7 141 263.6Q141.7 264.4 143.1 264.5L143.1 264.5L143.7 264.6Q145.5 264.7 146.3 265.5Q147.2 266.3 147.2 267.9L147.2 267.9Q147.2 269.8 145.4 270.9Q143.7 271.9 140.7 271.9L140.7 271.9L140.4 271.9Q131.2 271.9 131.2 263.0ZM166.9 272.3L166.9 272.3Q159.1 272.3 154.7 267.7Q150.3 263.1 150.3 255.0L150.3 255.0Q150.3 246.9 154.7 242.1Q159.1 237.3 166.5 237.3L166.5 237.3Q173.6 237.3 178.0 241.7Q182.4 246.1 182.4 252.9L182.4 252.9Q182.4 254.8 181.3 255.9Q180.3 256.9 178.4 256.9L178.4 256.9L159.3 256.9L159.3 257.3Q159.3 261.0 161.4 263.3Q163.4 265.5 166.9 265.5L166.9 265.5Q169.4 265.5 171.2 264.6Q173.1 263.7 174.9 261.5L174.9 261.5Q176.2 260.1 177.9 260.1L177.9 260.1Q179.4 260.1 180.4 261.1Q181.4 262.0 181.4 263.5L181.4 263.5Q181.4 264.6 180.8 265.7L180.8 265.7Q179.2 268.8 175.5 270.5Q171.8 272.3 166.9 272.3ZM159.4 251.3L159.4 251.3L173.6 251.3Q173.5 248.0 171.5 246.1Q169.6 244.1 166.6 244.1Q163.6 244.1 161.6 246.1Q159.6 248.1 159.4 251.3ZM191.6 272.2L191.6 272.2Q189.5 272.2 188.3 271.0Q187.1 269.7 187.1 267.5L187.1 267.5L187.1 242.0Q187.1 239.8 188.3 238.6Q189.5 237.4 191.5 237.4L191.5 237.4Q193.4 237.4 194.6 238.6Q195.8 239.8 195.8 242.0L195.8 242.0L195.8 244.1L196.0 244.1Q196.6 241.1 198.5 239.3Q200.4 237.5 202.9 237.5L202.9 237.5Q204.8 237.5 205.8 238.4L205.8 238.4Q207.1 239.4 207.1 241.7L207.1 241.7Q207.1 243.9 205.8 245.0L205.8 245.0Q204.4 246.2 201.8 246.2L201.8 246.2Q198.8 246.2 197.5 247.8Q196.2 249.5 196.2 252.6L196.2 252.6L196.2 267.5Q196.2 269.7 195.0 271.0Q193.8 272.2 191.6 272.2ZM220.7 271.0Q219.4 272.2 217.3 272.2Q215.3 272.2 214.0 271.0Q212.8 269.8 212.8 267.5L212.8 267.5L212.8 244.9L211.0 244.9Q209.6 244.9 208.6 244.0Q207.7 243.1 207.7 241.6Q207.7 240.0 208.6 239.1Q209.6 238.2 211.0 238.2L211.0 238.2L212.8 238.2L212.8 235.7Q212.8 230.8 215.2 228.4Q217.5 226.1 222.3 226.1L222.3 226.1Q225.8 226.1 227.5 227.1Q229.2 228.1 229.2 229.7L229.2 229.7Q229.2 231.6 227.4 232.1L227.4 232.1Q226.5 232.4 225.6 232.4L225.6 232.4Q223.5 232.5 222.6 233.3Q221.7 234.2 221.7 236.1L221.7 236.1L221.7 238.2L225.5 238.2Q227 238.2 227.9 239.1Q228.9 240.0 228.9 241.6Q228.9 243.1 227.9 244.0Q227 244.9 225.5 244.9L225.5 244.9L221.9 244.9L221.9 267.5Q221.9 269.8 220.7 271.0ZM243.0 272.1L243.0 272.1Q238.2 272.1 235 269.2Q231.8 266.4 231.8 261.9L231.8 261.9Q231.8 257.4 235.2 254.8Q238.6 252.2 244.9 251.8L244.9 251.8L253.3 251.3L253.3 249.1Q253.3 246.8 251.8 245.5Q250.3 244.1 247.7 244.1L247.7 244.1Q245.6 244.1 244.2 244.9Q242.7 245.7 241.2 247.7L241.2 247.7Q239.7 249.4 237.6 249.4L237.6 249.4Q235.9 249.4 234.8 248.4Q233.8 247.4 233.8 245.9L233.8 245.9Q233.8 244.8 234.2 243.8L234.2 243.8Q235.4 240.8 239.1 239.1Q242.9 237.3 248.1 237.3L248.1 237.3Q254.5 237.3 258.4 240.4Q262.3 243.5 262.3 248.5L262.3 248.5L262.3 267.6Q262.3 269.8 261.1 271.0Q259.8 272.2 257.8 272.2L257.8 272.2Q255.9 272.2 254.8 271.2Q253.6 270.1 253.5 268.1L253.5 268.1L253.5 266.4L253.3 266.4Q251.9 269.1 249.1 270.6Q246.3 272.1 243.0 272.1ZM246.0 265.5L246.0 265.5Q249.1 265.5 251.2 263.7Q253.3 262.0 253.3 259.3L253.3 259.3L253.3 256.8L246.3 257.3Q243.7 257.5 242.3 258.6Q240.9 259.6 240.9 261.4L240.9 261.4Q240.9 263.3 242.3 264.4Q243.7 265.5 246.0 265.5ZM283.4 272.3L283.4 272.3Q275.8 272.3 271.4 267.6Q266.9 262.9 266.9 254.8L266.9 254.8Q266.9 246.8 271.4 242.1Q275.8 237.3 283.4 237.3L283.4 237.3Q288.4 237.3 292.3 239.5Q296.1 241.7 297.5 245.3L297.5 245.3Q298 246.6 298 247.6L298 247.6Q298 249.2 296.9 250.2Q295.8 251.1 294.1 251.1L294.1 251.1Q292.8 251.1 291.9 250.6Q291.0 250.0 290.3 248.8L290.3 248.8Q287.8 244.5 283.7 244.5L283.7 244.5Q280.2 244.5 278.2 247.2Q276.2 249.9 276.2 254.8L276.2 254.8Q276.2 259.7 278.2 262.4Q280.2 265.1 283.6 265.1L283.6 265.1Q287.8 265.1 290.2 261.2L290.2 261.2Q291.1 259.7 292 259.1Q292.9 258.5 294.3 258.5L294.3 258.5Q295.9 258.5 297.0 259.5Q298.2 260.5 298.2 262.1L298.2 262.1Q298.2 263.2 297.6 264.5L297.6 264.5Q296.1 268.0 292.1 270.1Q288.2 272.3 283.4 272.3ZM318.4 272.3L318.4 272.3Q310.6 272.3 306.2 267.7Q301.8 263.1 301.8 255.0L301.8 255.0Q301.8 246.9 306.2 242.1Q310.6 237.3 318 237.3L318 237.3Q325.1 237.3 329.5 241.7Q333.9 246.1 333.9 252.9L333.9 252.9Q333.9 254.8 332.8 255.9Q331.8 256.9 329.9 256.9L329.9 256.9L310.8 256.9L310.8 257.3Q310.8 261.0 312.9 263.3Q314.9 265.5 318.4 265.5L318.4 265.5Q320.9 265.5 322.7 264.6Q324.6 263.7 326.4 261.5L326.4 261.5Q327.7 260.1 329.4 260.1L329.4 260.1Q330.9 260.1 331.9 261.1Q332.9 262.0 332.9 263.5L332.9 263.5Q332.9 264.6 332.3 265.7L332.3 265.7Q330.7 268.8 327.0 270.5Q323.3 272.3 318.4 272.3ZM310.9 251.3L310.9 251.3L325.1 251.3Q325.0 248.0 323.0 246.1Q321.1 244.1 318.1 244.1Q315.1 244.1 313.1 246.1Q311.1 248.1 310.9 251.3Z M369.2 271.6L356.7 271.6Q354.5 271.6 353.3 270.3Q352 269.0 352 266.6L352 266.6L352 231.4Q352 229.1 353.3 227.8Q354.5 226.5 356.7 226.5L356.7 226.5L369.2 226.5Q379.4 226.5 385.1 232.3Q390.7 238.1 390.7 248.8L390.7 248.8Q390.7 259.6 385.0 265.6Q379.4 271.6 369.2 271.6L369.2 271.6ZM361.4 234.2L361.4 263.7L368.1 263.7Q374.4 263.7 377.8 259.9Q381.1 256.1 381.1 248.9L381.1 248.9Q381.1 241.8 377.7 238.0Q374.3 234.2 368.1 234.2L368.1 234.2L361.4 234.2ZM411.4 272.3L411.4 272.3Q403.6 272.3 399.2 267.7Q394.8 263.1 394.8 255.0L394.8 255.0Q394.8 246.9 399.2 242.1Q403.5 237.3 411.0 237.3L411.0 237.3Q418.1 237.3 422.5 241.7Q426.8 246.1 426.8 252.9L426.8 252.9Q426.8 254.8 425.8 255.9Q424.8 256.9 422.9 256.9L422.9 256.9L403.8 256.9L403.8 257.3Q403.8 261.0 405.8 263.3Q407.9 265.5 411.4 265.5L411.4 265.5Q413.9 265.5 415.7 264.6Q417.5 263.7 419.4 261.5L419.4 261.5Q420.7 260.1 422.3 260.1L422.3 260.1Q423.9 260.1 424.9 261.1Q425.9 262.0 425.9 263.5L425.9 263.5Q425.9 264.6 425.3 265.7L425.3 265.7Q423.6 268.8 419.9 270.5Q416.3 272.3 411.4 272.3ZM403.8 251.3L403.8 251.3L418.1 251.3Q417.9 248.0 416 246.1Q414.1 244.1 411.1 244.1Q408.1 244.1 406.1 246.1Q404.1 248.1 403.8 251.3ZM445.2 272.3L445.2 272.3Q439.6 272.3 435.8 270.4Q432 268.6 430.8 265.6L430.8 265.6Q430.4 264.6 430.4 263.9L430.4 263.9Q430.4 262.3 431.5 261.4Q432.5 260.4 434.1 260.4L434.1 260.4Q436.3 260.4 438.1 262.5L438.1 262.5Q439.5 264.2 441.2 265.1Q442.8 265.9 445.4 265.9L445.4 265.9Q447.9 265.9 449.4 264.9Q450.9 263.9 450.9 262.3L450.9 262.3Q450.9 260.9 449.9 260.1Q448.9 259.3 446.4 258.8L446.4 258.8L440.8 257.6Q435.9 256.5 433.4 254.1Q430.9 251.6 430.9 247.9L430.9 247.9Q430.9 243.1 434.8 240.2Q438.7 237.3 445.2 237.3L445.2 237.3Q450.2 237.3 453.8 239.3Q457.4 241.3 458.3 244.3L458.3 244.3Q458.5 245.1 458.5 245.6L458.5 245.6Q458.5 247.1 457.6 247.9Q456.7 248.7 455 248.7L455 248.7Q452.9 248.7 451.7 247.3L451.7 247.3Q450.3 245.6 448.8 244.7Q447.3 243.7 445 243.7L445 243.7Q442.7 243.7 441.2 244.7Q439.8 245.7 439.8 247.4L439.8 247.4Q439.8 248.7 440.8 249.6Q441.9 250.5 444.4 251.0L444.4 251.0L449.9 252.2Q455.3 253.3 457.6 255.4Q460 257.6 460 261.3L460 261.3Q460 266.3 455.9 269.3Q451.8 272.3 445.2 272.3ZM472.7 232.5Q471.3 233.9 469.2 233.9Q467.2 233.9 465.8 232.5Q464.3 231.1 464.3 229.2L464.3 229.2Q464.3 227.2 465.8 225.8Q467.2 224.5 469.2 224.5Q471.3 224.5 472.7 225.8Q474.1 227.2 474.1 229.2L474.1 229.2Q474.1 231.1 472.7 232.5ZM472.6 270.9Q471.3 272.2 469.2 272.2Q467.1 272.2 465.9 270.9Q464.7 269.7 464.7 267.5L464.7 267.5L464.7 242.1Q464.7 239.9 465.9 238.6Q467.1 237.4 469.2 237.4Q471.3 237.4 472.6 238.6Q473.8 239.9 473.8 242.1L473.8 242.1L473.8 267.5Q473.8 269.7 472.6 270.9ZM494.8 284.1L494.8 284.1Q489.8 284.1 486.1 282.4Q482.4 280.7 480.7 278.0L480.7 278.0Q480.0 276.8 480.0 275.5L480.0 275.5Q480.0 274.0 481.0 273.1Q482.1 272.1 483.8 272.1L483.8 272.1Q485.5 272.1 486.9 273.4L486.9 273.4Q490.7 277.1 494.8 277.1L494.8 277.1Q498.5 277.1 500.6 275.2Q502.7 273.4 502.7 270.2L502.7 270.2L502.7 264.8L502.5 264.8Q501.3 267.6 498.6 269.2Q495.8 270.8 492.2 270.8L492.2 270.8Q486.0 270.8 482.3 266.4Q478.6 261.9 478.6 254.2L478.6 254.2Q478.6 246.4 482.3 241.9Q485.9 237.5 492.4 237.5L492.4 237.5Q495.9 237.5 498.6 239.2Q501.3 240.9 502.6 243.8L502.6 243.8L502.8 243.8L502.8 242.0Q502.8 239.7 504.0 238.6Q505.3 237.4 507.4 237.4L507.4 237.4Q509.4 237.4 510.7 238.6Q511.9 239.7 511.9 242.0L511.9 242.0L511.9 270.2Q511.9 276.8 507.4 280.5Q502.9 284.2 494.8 284.1ZM495.3 264.1L495.3 264.1Q498.8 264.1 500.8 261.5Q502.8 258.9 502.8 254.4Q502.8 249.8 500.8 247.1Q498.8 244.5 495.3 244.5L495.3 244.5Q491.9 244.5 490.0 247.1Q488.0 249.8 488.0 254.3L488.0 254.3Q488.0 258.9 489.9 261.5Q491.9 264.1 495.3 264.1ZM525.7 271.0Q524.4 272.2 522.4 272.2Q520.3 272.2 519.1 271.0Q517.8 269.7 517.8 267.5L517.8 267.5L517.8 242.0Q517.8 239.8 519.0 238.6Q520.2 237.4 522.2 237.4Q524.3 237.4 525.5 238.6Q526.8 239.9 526.8 242.0L526.8 242.0L526.8 243.9L527.0 243.9Q529.7 237.4 537.3 237.4L537.3 237.4Q542.8 237.4 545.9 240.7Q548.9 244.1 548.9 250.0L548.9 250.0L548.9 267.5Q548.9 269.7 547.7 271.0Q546.4 272.2 544.3 272.2Q542.3 272.2 541.0 271.0Q539.8 269.7 539.8 267.5L539.8 267.5L539.8 251.9Q539.8 248.6 538.2 246.8Q536.7 245.0 533.6 245.0Q530.6 245.0 528.8 247.0Q526.9 249.1 526.9 252.3L526.9 252.3L526.9 267.5Q526.9 269.7 525.7 271.0Z M577.7 271.0Q576.4 272.2 574.3 272.2Q572.3 272.2 571.0 271.0Q569.8 269.8 569.8 267.5L569.8 267.5L569.8 244.9L568.0 244.9Q566.6 244.9 565.6 244.0Q564.7 243.1 564.7 241.6Q564.7 240.0 565.6 239.1Q566.6 238.2 568.0 238.2L568.0 238.2L569.8 238.2L569.8 235.7Q569.8 230.8 572.2 228.4Q574.5 226.1 579.3 226.1L579.3 226.1Q582.8 226.1 584.5 227.1Q586.2 228.1 586.2 229.7L586.2 229.7Q586.2 231.6 584.4 232.1L584.4 232.1Q583.5 232.4 582.6 232.4L582.6 232.4Q580.5 232.5 579.6 233.3Q578.7 234.2 578.7 236.1L578.7 236.1L578.7 238.2L582.5 238.2Q584 238.2 584.9 239.1Q585.9 240.0 585.9 241.6Q585.9 243.1 584.9 244.0Q584 244.9 582.5 244.9L582.5 244.9L578.9 244.9L578.9 267.5Q578.9 269.8 577.7 271.0ZM617.6 267.6Q613.2 272.3 605.5 272.3Q597.8 272.3 593.4 267.6Q588.9 263.0 588.9 254.8L588.9 254.8Q588.9 246.7 593.4 242.0Q597.9 237.3 605.5 237.3L605.5 237.3Q613.1 237.3 617.6 242.0Q622.1 246.7 622.1 254.8L622.1 254.8Q622.1 263.0 617.6 267.6ZM605.5 265.3L605.5 265.3Q608.9 265.3 610.8 262.6Q612.8 259.8 612.8 254.8L612.8 254.8Q612.8 249.9 610.8 247.1Q608.9 244.3 605.5 244.3Q602.1 244.3 600.1 247.1Q598.2 249.9 598.2 254.8L598.2 254.8Q598.2 259.8 600.1 262.6Q602.1 265.3 605.5 265.3ZM631.3 272.2L631.3 272.2Q629.3 272.2 628.0 271.0Q626.8 269.7 626.8 267.5L626.8 267.5L626.8 242.0Q626.8 239.8 628.0 238.6Q629.2 237.4 631.2 237.4L631.2 237.4Q633.1 237.4 634.3 238.6Q635.5 239.8 635.5 242.0L635.5 242.0L635.5 244.1L635.7 244.1Q636.3 241.1 638.2 239.3Q640.1 237.5 642.7 237.5L642.7 237.5Q644.5 237.5 645.5 238.4L645.5 238.4Q646.8 239.4 646.8 241.7L646.8 241.7Q646.8 243.9 645.5 245.0L645.5 245.0Q644.2 246.2 641.5 246.2L641.5 246.2Q638.5 246.2 637.2 247.8Q635.9 249.5 635.9 252.6L635.9 252.6L635.9 267.5Q635.9 269.7 634.7 271.0Q633.5 272.2 631.3 272.2Z M688.9 271.6L668.2 271.6Q666 271.6 664.8 270.3Q663.5 269.0 663.5 266.6L663.5 266.6L663.5 230.8Q663.5 228.4 664.8 227.1Q666 225.8 668.2 225.8Q670.4 225.8 671.7 227.1Q672.9 228.4 672.9 230.8L672.9 230.8L672.9 263.7L688.9 263.7Q690.9 263.7 692.0 264.8Q693.2 265.8 693.2 267.6Q693.2 269.5 692.1 270.5Q690.9 271.6 688.9 271.6L688.9 271.6ZM712.9 272.3L712.9 272.3Q705.0 272.3 700.6 267.7Q696.3 263.1 696.3 255.0L696.3 255.0Q696.3 246.9 700.6 242.1Q705 237.3 712.4 237.3L712.4 237.3Q719.5 237.3 723.9 241.7Q728.3 246.1 728.3 252.9L728.3 252.9Q728.3 254.8 727.3 255.9Q726.3 256.9 724.3 256.9L724.3 256.9L705.2 256.9L705.2 257.3Q705.2 261.0 707.3 263.3Q709.4 265.5 712.8 265.5L712.8 265.5Q715.3 265.5 717.2 264.6Q719 263.7 720.8 261.5L720.8 261.5Q722.2 260.1 723.8 260.1L723.8 260.1Q725.3 260.1 726.4 261.1Q727.4 262.0 727.4 263.5L727.4 263.5Q727.4 264.6 726.8 265.7L726.8 265.7Q725.1 268.8 721.4 270.5Q717.7 272.3 712.9 272.3ZM705.3 251.3L705.3 251.3L719.5 251.3Q719.4 248.0 717.5 246.1Q715.5 244.1 712.5 244.1Q709.5 244.1 707.5 246.1Q705.6 248.1 705.3 251.3ZM742.9 272.1L742.9 272.1Q738.1 272.1 734.9 269.2Q731.7 266.4 731.7 261.9L731.7 261.9Q731.7 257.4 735.1 254.8Q738.4 252.2 744.8 251.8L744.8 251.8L753.2 251.3L753.2 249.1Q753.2 246.8 751.7 245.5Q750.2 244.1 747.6 244.1L747.6 244.1Q745.5 244.1 744.0 244.9Q742.6 245.7 741.1 247.7L741.1 247.7Q739.6 249.4 737.4 249.4L737.4 249.4Q735.8 249.4 734.7 248.4Q733.6 247.4 733.6 245.9L733.6 245.9Q733.6 244.8 734.1 243.8L734.1 243.8Q735.3 240.8 739 239.1Q742.8 237.3 748.0 237.3L748.0 237.3Q754.4 237.3 758.3 240.4Q762.2 243.5 762.2 248.5L762.2 248.5L762.2 267.6Q762.2 269.8 760.9 271.0Q759.7 272.2 757.7 272.2L757.7 272.2Q755.8 272.2 754.6 271.2Q753.5 270.1 753.3 268.1L753.3 268.1L753.3 266.4L753.2 266.4Q751.8 269.1 749.0 270.6Q746.1 272.1 742.9 272.1ZM745.9 265.5L745.9 265.5Q748.9 265.5 751.1 263.7Q753.2 262.0 753.2 259.3L753.2 259.3L753.2 256.8L746.1 257.3Q743.6 257.5 742.2 258.6Q740.8 259.6 740.8 261.4L740.8 261.4Q740.8 263.3 742.2 264.4Q743.6 265.5 745.9 265.5ZM772.6 272.2L772.6 272.2Q770.5 272.2 769.3 271.0Q768.0 269.7 768.0 267.5L768.0 267.5L768.0 242.0Q768.0 239.8 769.2 238.6Q770.4 237.4 772.4 237.4L772.4 237.4Q774.4 237.4 775.6 238.6Q776.8 239.8 776.8 242.0L776.8 242.0L776.8 244.1L776.9 244.1Q777.6 241.1 779.5 239.3Q781.4 237.5 783.9 237.5L783.9 237.5Q785.8 237.5 786.8 238.4L786.8 238.4Q788.1 239.4 788.1 241.7L788.1 241.7Q788.1 243.9 786.8 245.0L786.8 245.0Q785.4 246.2 782.8 246.2L782.8 246.2Q779.8 246.2 778.5 247.8Q777.2 249.5 777.2 252.6L777.2 252.6L777.2 267.5Q777.2 269.7 775.9 271.0Q774.7 272.2 772.6 272.2ZM799.2 271.0Q797.9 272.2 795.9 272.2Q793.8 272.2 792.6 271.0Q791.3 269.7 791.3 267.5L791.3 267.5L791.3 242.0Q791.3 239.8 792.5 238.6Q793.7 237.4 795.7 237.4Q797.8 237.4 799.0 238.6Q800.3 239.9 800.3 242.0L800.3 242.0L800.3 243.9L800.5 243.9Q803.2 237.4 810.8 237.4L810.8 237.4Q816.3 237.4 819.4 240.7Q822.4 244.1 822.4 250.0L822.4 250.0L822.4 267.5Q822.4 269.7 821.2 271.0Q819.9 272.2 817.8 272.2Q815.8 272.2 814.5 271.0Q813.3 269.7 813.3 267.5L813.3 267.5L813.3 251.9Q813.3 248.6 811.7 246.8Q810.2 245.0 807.1 245.0Q804.1 245.0 802.3 247.0Q800.4 249.1 800.4 252.3L800.4 252.3L800.4 267.5Q800.4 269.7 799.2 271.0ZM836.4 232.5Q835.0 233.9 832.9 233.9Q830.8 233.9 829.4 232.5Q828.0 231.1 828.0 229.2L828.0 229.2Q828.0 227.2 829.4 225.8Q830.8 224.5 832.9 224.5Q835.0 224.5 836.4 225.8Q837.8 227.2 837.8 229.2L837.8 229.2Q837.8 231.1 836.4 232.5ZM836.3 270.9Q835.0 272.2 832.9 272.2Q830.8 272.2 829.6 270.9Q828.3 269.7 828.3 267.5L828.3 267.5L828.3 242.1Q828.3 239.9 829.6 238.6Q830.8 237.4 832.9 237.4Q835.0 237.4 836.3 238.6Q837.5 239.9 837.5 242.1L837.5 242.1L837.5 267.5Q837.5 269.7 836.3 270.9ZM851.4 271.0Q850.2 272.2 848.1 272.2Q846.0 272.2 844.8 271.0Q843.5 269.7 843.5 267.5L843.5 267.5L843.5 242.0Q843.5 239.8 844.7 238.6Q845.9 237.4 847.9 237.4Q850 237.4 851.3 238.6Q852.5 239.9 852.5 242.0L852.5 242.0L852.5 243.9L852.7 243.9Q855.4 237.4 863 237.4L863 237.4Q868.6 237.4 871.6 240.7Q874.6 244.1 874.6 250.0L874.6 250.0L874.6 267.5Q874.6 269.7 873.4 271.0Q872.1 272.2 870.1 272.2Q868 272.2 866.8 271.0Q865.5 269.7 865.5 267.5L865.5 267.5L865.5 251.9Q865.5 248.6 863.9 246.8Q862.4 245.0 859.3 245.0Q856.3 245.0 854.5 247.0Q852.7 249.1 852.7 252.3L852.7 252.3L852.7 267.5Q852.7 269.7 851.4 271.0ZM895.4 284.1L895.4 284.1Q890.4 284.1 886.7 282.4Q883.0 280.7 881.3 278.0L881.3 278.0Q880.6 276.8 880.6 275.5L880.6 275.5Q880.6 274.0 881.6 273.1Q882.6 272.1 884.3 272.1L884.3 272.1Q886.0 272.1 887.5 273.4L887.5 273.4Q891.3 277.1 895.3 277.1L895.3 277.1Q899.1 277.1 901.2 275.2Q903.3 273.4 903.3 270.2L903.3 270.2L903.3 264.8L903.1 264.8Q901.9 267.6 899.1 269.2Q896.4 270.8 892.8 270.8L892.8 270.8Q886.5 270.8 882.9 266.4Q879.2 261.9 879.2 254.2L879.2 254.2Q879.2 246.4 882.8 241.9Q886.5 237.5 892.9 237.5L892.9 237.5Q896.5 237.5 899.1 239.2Q901.8 240.9 903.2 243.8L903.2 243.8L903.3 243.8L903.3 242.0Q903.3 239.7 904.6 238.6Q905.9 237.4 907.9 237.4L907.9 237.4Q910.0 237.4 911.2 238.6Q912.5 239.7 912.5 242.0L912.5 242.0L912.5 270.2Q912.5 276.8 908.0 280.5Q903.4 284.2 895.4 284.1ZM895.9 264.1L895.9 264.1Q899.3 264.1 901.3 261.5Q903.4 258.9 903.4 254.4Q903.4 249.8 901.3 247.1Q899.3 244.5 895.9 244.5L895.9 244.5Q892.5 244.5 890.5 247.1Q888.5 249.8 888.5 254.3L888.5 254.3Q888.5 258.9 890.5 261.5Q892.5 264.1 895.9 264.1Z M941.4 271.0Q940.1 272.2 938.0 272.2Q935.9 272.2 934.7 271.0Q933.5 269.8 933.5 267.5L933.5 267.5L933.5 244.9L931.7 244.9Q930.3 244.9 929.3 244.0Q928.4 243.1 928.4 241.6Q928.4 240.0 929.3 239.1Q930.3 238.2 931.7 238.2L931.7 238.2L933.5 238.2L933.5 235.7Q933.5 230.8 935.8 228.4Q938.2 226.1 943.0 226.1L943.0 226.1Q946.5 226.1 948.2 227.1Q949.9 228.1 949.9 229.7L949.9 229.7Q949.9 231.6 948.1 232.1L948.1 232.1Q947.2 232.4 946.3 232.4L946.3 232.4Q944.2 232.5 943.3 233.3Q942.4 234.2 942.4 236.1L942.4 236.1L942.4 238.2L946.2 238.2Q947.7 238.2 948.6 239.1Q949.6 240.0 949.6 241.6Q949.6 243.1 948.6 244.0Q947.7 244.9 946.2 244.9L946.2 244.9L942.6 244.9L942.6 267.5Q942.6 269.8 941.4 271.0ZM958.4 272.2L958.4 272.2Q956.3 272.2 955.0 271.0Q953.8 269.7 953.8 267.5L953.8 267.5L953.8 242.0Q953.8 239.8 955.0 238.6Q956.2 237.4 958.2 237.4L958.2 237.4Q960.2 237.4 961.3 238.6Q962.5 239.8 962.5 242.0L962.5 242.0L962.5 244.1L962.7 244.1Q963.4 241.1 965.3 239.3Q967.2 237.5 969.7 237.5L969.7 237.5Q971.5 237.5 972.5 238.4L972.5 238.4Q973.8 239.4 973.8 241.7L973.8 241.7Q973.8 243.9 972.5 245.0L972.5 245.0Q971.2 246.2 968.6 246.2L968.6 246.2Q965.6 246.2 964.3 247.8Q962.9 249.5 962.9 252.6L962.9 252.6L962.9 267.5Q962.9 269.7 961.7 271.0Q960.5 272.2 958.4 272.2ZM1004.6 267.6Q1000.1 272.3 992.5 272.3Q984.8 272.3 980.3 267.6Q975.9 263.0 975.9 254.8L975.9 254.8Q975.9 246.7 980.4 242.0Q984.9 237.3 992.5 237.3L992.5 237.3Q1000.1 237.3 1004.6 242.0Q1009.1 246.7 1009.1 254.8L1009.1 254.8Q1009.1 263.0 1004.6 267.6ZM992.5 265.3L992.5 265.3Q995.8 265.3 997.8 262.6Q999.8 259.8 999.8 254.8L999.8 254.8Q999.8 249.9 997.8 247.1Q995.8 244.3 992.5 244.3Q989.1 244.3 987.1 247.1Q985.1 249.9 985.1 254.8L985.1 254.8Q985.1 259.8 987.1 262.6Q989.1 265.3 992.5 265.3ZM1018.3 272.2L1018.3 272.2Q1016.2 272.2 1015.0 271.0Q1013.8 269.7 1013.8 267.5L1013.8 267.5L1013.8 242.0Q1013.8 239.8 1015.0 238.6Q1016.2 237.4 1018.2 237.4Q1020.2 237.4 1021.4 238.6Q1022.6 239.8 1022.6 242.0L1022.6 242.0L1022.6 244.1L1022.8 244.1Q1023.8 241.1 1026.4 239.2Q1028.9 237.4 1032.3 237.4L1032.3 237.4Q1035.9 237.4 1038.4 239.2Q1040.8 241.0 1041.7 244.3L1041.7 244.3L1041.8 244.3Q1043.0 241.1 1045.8 239.3Q1048.6 237.4 1052.3 237.4L1052.3 237.4Q1057.2 237.4 1060.2 240.5Q1063.2 243.6 1063.2 248.7L1063.2 248.7L1063.2 267.5Q1063.2 269.7 1062.0 271.0Q1060.7 272.2 1058.6 272.2L1058.6 272.2Q1056.6 272.2 1055.3 271.0Q1054.1 269.7 1054.1 267.5L1054.1 267.5L1054.1 251.0Q1054.1 248.1 1052.7 246.5Q1051.3 245.0 1048.6 245.0L1048.6 245.0Q1046.0 245.0 1044.5 246.7Q1042.9 248.4 1042.9 251.2L1042.9 251.2L1042.9 267.5Q1042.9 269.7 1041.7 271.0Q1040.5 272.2 1038.5 272.2L1038.5 272.2Q1036.4 272.2 1035.3 271.0Q1034.1 269.7 1034.1 267.5L1034.1 267.5L1034.1 250.7Q1034.1 248.0 1032.7 246.5Q1031.2 245.0 1028.7 245.0L1028.7 245.0Q1026.1 245.0 1024.5 246.7Q1022.9 248.5 1022.9 251.3L1022.9 251.3L1022.9 267.5Q1022.9 269.7 1021.6 271.0Q1020.4 272.2 1018.3 272.2Z M93.0 345.2L80.5 345.2Q78.3 345.2 77 343.9Q75.8 342.6 75.8 340.2L75.8 340.2L75.8 305.0Q75.8 302.7 77 301.4Q78.3 300.1 80.5 300.1L80.5 300.1L93.0 300.1Q103.2 300.1 108.8 305.9Q114.5 311.7 114.5 322.4L114.5 322.4Q114.5 333.2 108.8 339.2Q103.1 345.2 93.0 345.2L93.0 345.2ZM85.2 307.8L85.2 337.3L91.8 337.3Q98.2 337.3 101.5 333.5Q104.8 329.7 104.8 322.5L104.8 322.5Q104.8 315.4 101.5 311.6Q98.1 307.8 91.8 307.8L91.8 307.8L85.2 307.8ZM135.2 345.9L135.2 345.9Q127.3 345.9 122.9 341.3Q118.5 336.7 118.5 328.6L118.5 328.6Q118.5 320.5 122.9 315.7Q127.3 310.9 134.7 310.9L134.7 310.9Q141.8 310.9 146.2 315.3Q150.6 319.7 150.6 326.5L150.6 326.5Q150.6 328.4 149.6 329.5Q148.5 330.5 146.6 330.5L146.6 330.5L127.5 330.5L127.5 330.9Q127.5 334.6 129.6 336.9Q131.7 339.1 135.1 339.1L135.1 339.1Q137.6 339.1 139.5 338.2Q141.3 337.3 143.1 335.1L143.1 335.1Q144.4 333.7 146.1 333.7L146.1 333.7Q147.6 333.7 148.6 334.7Q149.7 335.6 149.7 337.1L149.7 337.1Q149.7 338.2 149.0 339.3L149.0 339.3Q147.4 342.4 143.7 344.1Q140 345.9 135.2 345.9ZM127.6 324.9L127.6 324.9L141.8 324.9Q141.7 321.6 139.8 319.7Q137.8 317.7 134.8 317.7Q131.8 317.7 129.8 319.7Q127.8 321.7 127.6 324.9ZM159.8 345.8L159.8 345.8Q157.8 345.8 156.5 344.6Q155.3 343.3 155.3 341.1L155.3 341.1L155.3 315.6Q155.3 313.4 156.5 312.2Q157.7 311.0 159.7 311.0Q161.7 311.0 162.9 312.2Q164.1 313.4 164.1 315.6L164.1 315.6L164.1 317.7L164.3 317.7Q165.3 314.7 167.9 312.8Q170.5 311.0 173.8 311.0L173.8 311.0Q177.5 311.0 179.9 312.8Q182.3 314.6 183.2 317.9L183.2 317.9L183.4 317.9Q184.5 314.7 187.3 312.9Q190.1 311.0 193.8 311.0L193.8 311.0Q198.7 311.0 201.7 314.1Q204.8 317.2 204.8 322.3L204.8 322.3L204.8 341.1Q204.8 343.3 203.5 344.6Q202.3 345.8 200.2 345.8L200.2 345.8Q198.1 345.8 196.9 344.6Q195.6 343.3 195.6 341.1L195.6 341.1L195.6 324.6Q195.6 321.7 194.2 320.1Q192.8 318.6 190.2 318.6L190.2 318.6Q187.6 318.6 186.0 320.3Q184.4 322.0 184.4 324.8L184.4 324.8L184.4 341.1Q184.4 343.3 183.2 344.6Q182.1 345.8 180 345.8L180 345.8Q178.0 345.8 176.8 344.6Q175.6 343.3 175.6 341.1L175.6 341.1L175.6 324.3Q175.6 321.6 174.2 320.1Q172.8 318.6 170.2 318.6L170.2 318.6Q167.6 318.6 166.0 320.3Q164.4 322.1 164.4 324.9L164.4 324.9L164.4 341.1Q164.4 343.3 163.2 344.6Q161.9 345.8 159.8 345.8ZM238.0 341.2Q233.6 345.9 225.9 345.9Q218.3 345.9 213.8 341.2Q209.3 336.6 209.3 328.4L209.3 328.4Q209.3 320.3 213.8 315.6Q218.3 310.9 225.9 310.9L225.9 310.9Q233.5 310.9 238 315.6Q242.5 320.3 242.5 328.4L242.5 328.4Q242.5 336.6 238.0 341.2ZM225.9 338.9L225.9 338.9Q229.3 338.9 231.3 336.2Q233.2 333.4 233.2 328.4L233.2 328.4Q233.2 323.5 231.3 320.7Q229.3 317.9 225.9 317.9Q222.5 317.9 220.5 320.7Q218.6 323.5 218.6 328.4L218.6 328.4Q218.6 333.4 220.5 336.2Q222.5 338.9 225.9 338.9ZM255.1 344.6Q253.8 345.8 251.8 345.8Q249.7 345.8 248.4 344.6Q247.2 343.3 247.2 341.1L247.2 341.1L247.2 315.6Q247.2 313.4 248.4 312.2Q249.5 311.0 251.6 311.0Q253.7 311.0 254.9 312.2Q256.2 313.5 256.2 315.6L256.2 315.6L256.2 317.5L256.3 317.5Q259.1 311.0 266.7 311.0L266.7 311.0Q272.2 311.0 275.3 314.3Q278.3 317.7 278.3 323.6L278.3 323.6L278.3 341.1Q278.3 343.3 277.0 344.6Q275.8 345.8 273.7 345.8Q271.7 345.8 270.4 344.6Q269.2 343.3 269.2 341.1L269.2 341.1L269.2 325.5Q269.2 322.2 267.6 320.4Q266.0 318.6 263 318.6Q260.0 318.6 258.1 320.6Q256.3 322.7 256.3 325.9L256.3 325.9L256.3 341.1Q256.3 343.3 255.1 344.6ZM297.7 345.9L297.7 345.9Q292.1 345.9 288.3 344.0Q284.5 342.2 283.3 339.2L283.3 339.2Q283.0 338.2 283.0 337.5L283.0 337.5Q283.0 335.9 284.0 335.0Q285.1 334.0 286.7 334.0L286.7 334.0Q288.8 334.0 290.6 336.1L290.6 336.1Q292 337.8 293.7 338.7Q295.4 339.5 297.9 339.5L297.9 339.5Q300.4 339.5 301.9 338.5Q303.4 337.5 303.4 335.9L303.4 335.9Q303.4 334.5 302.4 333.7Q301.4 332.9 299.0 332.4L299.0 332.4L293.3 331.2Q288.4 330.1 286.0 327.7Q283.5 325.2 283.5 321.5L283.5 321.5Q283.5 316.7 287.3 313.8Q291.2 310.9 297.7 310.9L297.7 310.9Q302.8 310.9 306.4 312.9Q310.0 314.9 310.8 317.9L310.8 317.9Q311.0 318.7 311.0 319.2L311.0 319.2Q311.0 320.7 310.1 321.5Q309.3 322.3 307.5 322.3L307.5 322.3Q305.4 322.3 304.2 320.9L304.2 320.9Q302.8 319.2 301.3 318.3Q299.8 317.3 297.5 317.3L297.5 317.3Q295.2 317.3 293.8 318.3Q292.3 319.3 292.3 321.0L292.3 321.0Q292.3 322.3 293.4 323.2Q294.5 324.1 296.9 324.6L296.9 324.6L302.5 325.8Q307.8 326.9 310.2 329.0Q312.5 331.2 312.5 334.9L312.5 334.9Q312.5 339.9 308.5 342.9Q304.4 345.9 297.7 345.9ZM319.5 336.6L319.5 336.6L319.5 318.5L317.7 318.5Q316.1 318.5 315.1 317.6Q314.2 316.7 314.2 315.1Q314.2 313.5 315.1 312.6Q316.1 311.7 317.7 311.7L317.7 311.7L319.5 311.7L319.5 307.9Q319.5 305.7 320.7 304.4Q321.9 303.2 324.0 303.2Q326.2 303.2 327.4 304.4Q328.6 305.7 328.6 307.9L328.6 307.9L328.6 311.7L331.8 311.7Q333.4 311.7 334.4 312.6Q335.3 313.5 335.3 315.1Q335.3 316.7 334.4 317.6Q333.4 318.5 331.8 318.5L331.8 318.5L328.6 318.5L328.6 334.6Q328.6 336.3 329.3 337.2Q329.9 338.0 331.4 338.1L331.4 338.1L332.0 338.2Q333.7 338.3 334.6 339.1Q335.4 339.9 335.4 341.5L335.4 341.5Q335.4 343.4 333.7 344.5Q331.9 345.5 329.0 345.5L329.0 345.5L328.7 345.5Q319.5 345.5 319.5 336.6ZM344.3 345.8L344.3 345.8Q342.3 345.8 341.0 344.6Q339.8 343.3 339.8 341.1L339.8 341.1L339.8 315.6Q339.8 313.4 341.0 312.2Q342.2 311.0 344.2 311.0L344.2 311.0Q346.1 311.0 347.3 312.2Q348.5 313.4 348.5 315.6L348.5 315.6L348.5 317.7L348.7 317.7Q349.3 314.7 351.2 312.9Q353.1 311.1 355.7 311.1L355.7 311.1Q357.5 311.1 358.5 312.0L358.5 312.0Q359.8 313.0 359.8 315.3L359.8 315.3Q359.8 317.5 358.5 318.6L358.5 318.6Q357.2 319.8 354.5 319.8L354.5 319.8Q351.5 319.8 350.2 321.4Q348.9 323.1 348.9 326.2L348.9 326.2L348.9 341.1Q348.9 343.3 347.7 344.6Q346.5 345.8 344.3 345.8ZM373.0 345.7L373.0 345.7Q368.1 345.7 364.9 342.8Q361.8 340.0 361.8 335.5L361.8 335.5Q361.8 331.0 365.1 328.4Q368.5 325.8 374.8 325.4L374.8 325.4L383.3 324.9L383.3 322.7Q383.3 320.4 381.7 319.1Q380.2 317.7 377.6 317.7L377.6 317.7Q375.5 317.7 374.1 318.5Q372.7 319.3 371.1 321.3L371.1 321.3Q369.6 323.0 367.5 323.0L367.5 323.0Q365.8 323.0 364.8 322.0Q363.7 321.0 363.7 319.5L363.7 319.5Q363.7 318.4 364.2 317.4L364.2 317.4Q365.3 314.4 369.1 312.7Q372.8 310.9 378.0 310.9L378.0 310.9Q384.5 310.9 388.3 314.0Q392.2 317.1 392.2 322.1L392.2 322.1L392.2 341.2Q392.2 343.4 391 344.6Q389.8 345.8 387.8 345.8L387.8 345.8Q385.9 345.8 384.7 344.8Q383.5 343.7 383.4 341.7L383.4 341.7L383.4 340.0L383.2 340.0Q381.8 342.7 379.0 344.2Q376.2 345.7 373.0 345.7ZM376.0 339.1L376.0 339.1Q379 339.1 381.1 337.3Q383.3 335.6 383.3 332.9L383.3 332.9L383.3 330.4L376.2 330.9Q373.6 331.1 372.2 332.2Q370.8 333.2 370.8 335.0L370.8 335.0Q370.8 336.9 372.3 338.0Q373.7 339.1 376.0 339.1ZM400.5 336.6L400.5 336.6L400.5 318.5L398.8 318.5Q397.2 318.5 396.2 317.6Q395.3 316.7 395.3 315.1Q395.3 313.5 396.2 312.6Q397.2 311.7 398.8 311.7L398.8 311.7L400.5 311.7L400.5 307.9Q400.5 305.7 401.8 304.4Q403.0 303.2 405.1 303.2Q407.2 303.2 408.4 304.4Q409.7 305.7 409.7 307.9L409.7 307.9L409.7 311.7L412.9 311.7Q414.5 311.7 415.4 312.6Q416.4 313.5 416.4 315.1Q416.4 316.7 415.4 317.6Q414.5 318.5 412.9 318.5L412.9 318.5L409.7 318.5L409.7 334.6Q409.7 336.3 410.3 337.2Q411.0 338.0 412.4 338.1L412.4 338.1L413.0 338.2Q414.8 338.3 415.6 339.1Q416.5 339.9 416.5 341.5L416.5 341.5Q416.5 343.4 414.8 344.5Q413 345.5 410.0 345.5L410.0 345.5L409.7 345.5Q400.5 345.5 400.5 336.6ZM429.0 306.1Q427.6 307.5 425.6 307.5Q423.5 307.5 422.1 306.1Q420.7 304.7 420.7 302.8L420.7 302.8Q420.7 300.8 422.1 299.4Q423.5 298.1 425.6 298.1Q427.6 298.1 429.0 299.4Q430.4 300.8 430.4 302.8L430.4 302.8Q430.4 304.7 429.0 306.1ZM428.9 344.5Q427.7 345.8 425.6 345.8Q423.4 345.8 422.2 344.5Q421 343.3 421 341.1L421 341.1L421 315.7Q421 313.5 422.2 312.2Q423.4 311.0 425.6 311.0Q427.7 311.0 428.9 312.2Q430.1 313.5 430.1 315.7L430.1 315.7L430.1 341.1Q430.1 343.3 428.9 344.5ZM463.7 341.2Q459.2 345.9 451.6 345.9Q443.9 345.9 439.4 341.2Q435.0 336.6 435.0 328.4L435.0 328.4Q435.0 320.3 439.5 315.6Q444 310.9 451.6 310.9L451.6 310.9Q459.2 310.9 463.7 315.6Q468.2 320.3 468.2 328.4L468.2 328.4Q468.2 336.6 463.7 341.2ZM451.6 338.9L451.6 338.9Q454.9 338.9 456.9 336.2Q458.9 333.4 458.9 328.4L458.9 328.4Q458.9 323.5 456.9 320.7Q454.9 317.9 451.6 317.9Q448.2 317.9 446.2 320.7Q444.2 323.5 444.2 328.4L444.2 328.4Q444.2 333.4 446.2 336.2Q448.2 338.9 451.6 338.9ZM480.7 344.6Q479.5 345.8 477.4 345.8Q475.3 345.8 474.1 344.6Q472.8 343.3 472.8 341.1L472.8 341.1L472.8 315.6Q472.8 313.4 474.0 312.2Q475.2 311.0 477.3 311.0Q479.3 311.0 480.6 312.2Q481.8 313.5 481.8 315.6L481.8 315.6L481.8 317.5L482 317.5Q484.8 311.0 492.3 311.0L492.3 311.0Q497.9 311.0 500.9 314.3Q503.9 317.7 503.9 323.6L503.9 323.6L503.9 341.1Q503.9 343.3 502.7 344.6Q501.4 345.8 499.4 345.8Q497.3 345.8 496.1 344.6Q494.8 343.3 494.8 341.1L494.8 341.1L494.8 325.5Q494.8 322.2 493.3 320.4Q491.7 318.6 488.7 318.6Q485.6 318.6 483.8 320.6Q482.0 322.7 482.0 325.9L482.0 325.9L482.0 341.1Q482.0 343.3 480.7 344.6Z M533.6 345.8L533.6 345.8Q531.3 345.8 529.9 344.7Q528.6 343.5 527.8 341.0L527.8 341.0L521.1 317.7Q520.6 316.0 520.6 314.9L520.6 314.9Q520.6 313.2 521.8 312.1Q523.1 311.0 525 311.0L525 311.0Q528.5 311.0 529.3 314.8L529.3 314.8L534.3 336.5L534.4 336.5L539.6 315.2Q540.5 311.0 544.8 311.0L544.8 311.0Q546.8 311.0 548.1 312.0Q549.4 313.1 549.9 315.2L549.9 315.2L555.1 336.5L555.3 336.5L560.3 314.8Q560.7 312.9 561.7 311.9Q562.8 311.0 564.5 311.0L564.5 311.0Q566.4 311.0 567.6 312.0Q568.8 313.1 568.8 314.8L568.8 314.8Q568.8 315.9 568.3 317.6L568.3 317.6L561.6 341.0Q560.8 343.5 559.5 344.7Q558.1 345.8 555.7 345.8L555.7 345.8Q553.2 345.8 551.8 344.7Q550.4 343.5 549.8 341.0L549.8 341.0L544.7 321.5L544.5 321.5L539.5 341.0Q538.9 343.5 537.5 344.7Q536.1 345.8 533.6 345.8ZM581.1 306.1Q579.7 307.5 577.7 307.5Q575.6 307.5 574.2 306.1Q572.8 304.7 572.8 302.8L572.8 302.8Q572.8 300.8 574.2 299.4Q575.6 298.1 577.7 298.1Q579.7 298.1 581.1 299.4Q582.5 300.8 582.5 302.8L582.5 302.8Q582.5 304.7 581.1 306.1ZM581 344.5Q579.8 345.8 577.7 345.8Q575.5 345.8 574.3 344.5Q573.1 343.3 573.1 341.1L573.1 341.1L573.1 315.7Q573.1 313.5 574.3 312.2Q575.5 311.0 577.7 311.0Q579.8 311.0 581 312.2Q582.2 313.5 582.2 315.7L582.2 315.7L582.2 341.1Q582.2 343.3 581 344.5ZM590.7 336.6L590.7 336.6L590.7 318.5L589.0 318.5Q587.3 318.5 586.4 317.6Q585.4 316.7 585.4 315.1Q585.4 313.5 586.4 312.6Q587.3 311.7 589.0 311.7L589.0 311.7L590.7 311.7L590.7 307.9Q590.7 305.7 591.9 304.4Q593.2 303.2 595.3 303.2Q597.4 303.2 598.6 304.4Q599.8 305.7 599.8 307.9L599.8 307.9L599.8 311.7L603.1 311.7Q604.7 311.7 605.6 312.6Q606.6 313.5 606.6 315.1Q606.6 316.7 605.6 317.6Q604.7 318.5 603.1 318.5L603.1 318.5L599.8 318.5L599.8 334.6Q599.8 336.3 600.5 337.2Q601.2 338.0 602.6 338.1L602.6 338.1L603.2 338.2Q605.0 338.3 605.8 339.1Q606.7 339.9 606.7 341.5L606.7 341.5Q606.7 343.4 604.9 344.5Q603.2 345.5 600.2 345.5L600.2 345.5L599.9 345.5Q590.7 345.5 590.7 336.6ZM619.1 344.6Q617.9 345.8 615.8 345.8Q613.8 345.8 612.5 344.6Q611.3 343.3 611.3 341.1L611.3 341.1L611.3 304.1Q611.3 301.9 612.4 300.6Q613.6 299.4 615.8 299.4L615.8 299.4Q617.8 299.4 619.0 300.6Q620.2 301.8 620.2 304.1L620.2 304.1L620.2 317.6L620.4 317.6Q621.8 314.4 624.5 312.7Q627.2 311.0 630.9 311.0L630.9 311.0Q636.5 311.0 639.5 314.4Q642.6 317.7 642.6 323.6L642.6 323.6L642.6 341.1Q642.6 343.3 641.4 344.6Q640.1 345.8 638.1 345.8Q636 345.8 634.8 344.6Q633.5 343.3 633.5 341.1L633.5 341.1L633.5 325.5Q633.5 322.2 631.9 320.4Q630.3 318.6 627.2 318.6L627.2 318.6Q624.0 318.6 622.2 320.6Q620.4 322.7 620.4 326.0L620.4 326.0L620.4 341.1Q620.4 343.3 619.1 344.6Z M698.1 339.6Q692.3 345.9 682.2 345.9Q672.2 345.9 666.3 339.6Q660.5 333.4 660.5 322.6L660.5 322.6Q660.5 311.8 666.3 305.6Q672.2 299.3 682.2 299.3Q692.3 299.3 698.1 305.6Q704.0 311.8 704.0 322.6L704.0 322.6Q704.0 333.4 698.1 339.6ZM682.2 338.0L682.2 338.0Q687.8 338.0 691.0 333.9Q694.3 329.7 694.3 322.6L694.3 322.6Q694.3 315.5 691.0 311.3Q687.8 307.2 682.2 307.2Q676.7 307.2 673.4 311.3Q670.1 315.5 670.1 322.6L670.1 322.6Q670.1 329.7 673.4 333.9Q676.7 338.0 682.2 338.0ZM717.3 344.6Q716.1 345.8 714.0 345.8Q712.0 345.8 710.7 344.6Q709.5 343.3 709.5 341.1L709.5 341.1L709.5 304.2Q709.5 301.9 710.7 300.6Q712.0 299.4 714.0 299.4Q716.1 299.4 717.3 300.6Q718.6 301.9 718.6 304.2L718.6 304.2L718.6 341.1Q718.6 343.3 717.3 344.6ZM737.2 345.7L737.2 345.7Q730.9 345.7 727.2 341.0Q723.5 336.4 723.5 328.3L723.5 328.3Q723.5 320.4 727.2 315.7Q730.9 311.1 737.3 311.1L737.3 311.1Q740.8 311.1 743.5 312.8Q746.2 314.6 747.5 317.4L747.5 317.4L747.7 317.4L747.7 304.2Q747.7 301.9 748.9 300.6Q750.2 299.4 752.2 299.4Q754.3 299.4 755.5 300.6Q756.8 301.9 756.8 304.2L756.8 304.2L756.8 341.2Q756.8 343.4 755.5 344.6Q754.3 345.8 752.3 345.8L752.3 345.8Q750.2 345.8 748.9 344.6Q747.7 343.4 747.7 341.2L747.7 341.2L747.7 339.2L747.5 339.2Q746.4 342.2 743.7 343.9Q740.9 345.7 737.2 345.7ZM740.3 338.3L740.3 338.3Q743.7 338.3 745.7 335.7Q747.7 333.0 747.7 328.4L747.7 328.4Q747.7 323.8 745.7 321.1Q743.7 318.4 740.3 318.4L740.3 318.4Q736.8 318.4 734.9 321.1Q732.9 323.8 732.9 328.4L732.9 328.4Q732.9 333.0 734.9 335.7Q736.8 338.3 740.3 338.3ZM778.3 345.9L778.3 345.9Q770.4 345.9 766.0 341.3Q761.7 336.7 761.7 328.6L761.7 328.6Q761.7 320.5 766.0 315.7Q770.4 310.9 777.8 310.9L777.8 310.9Q784.9 310.9 789.3 315.3Q793.7 319.7 793.7 326.5L793.7 326.5Q793.7 328.4 792.7 329.5Q791.7 330.5 789.8 330.5L789.8 330.5L770.6 330.5L770.6 330.9Q770.6 334.6 772.7 336.9Q774.8 339.1 778.3 339.1L778.3 339.1Q780.8 339.1 782.6 338.2Q784.4 337.3 786.3 335.1L786.3 335.1Q787.6 333.7 789.2 333.7L789.2 333.7Q790.8 333.7 791.8 334.7Q792.8 335.6 792.8 337.1L792.8 337.1Q792.8 338.2 792.2 339.3L792.2 339.3Q790.5 342.4 786.8 344.1Q783.1 345.9 778.3 345.9ZM770.7 324.9L770.7 324.9L784.9 324.9Q784.8 321.6 782.9 319.7Q780.9 317.7 777.9 317.7Q774.9 317.7 773.0 319.7Q771.0 321.7 770.7 324.9ZM803.0 345.8L803.0 345.8Q800.9 345.8 799.6 344.6Q798.4 343.3 798.4 341.1L798.4 341.1L798.4 315.6Q798.4 313.4 799.6 312.2Q800.8 311.0 802.8 311.0L802.8 311.0Q804.8 311.0 805.9 312.2Q807.1 313.4 807.1 315.6L807.1 315.6L807.1 317.7L807.3 317.7Q808.0 314.7 809.9 312.9Q811.8 311.1 814.3 311.1L814.3 311.1Q816.1 311.1 817.1 312.0L817.1 312.0Q818.4 313.0 818.4 315.3L818.4 315.3Q818.4 317.5 817.1 318.6L817.1 318.6Q815.8 319.8 813.2 319.8L813.2 319.8Q810.2 319.8 808.8 321.4Q807.5 323.1 807.5 326.2L807.5 326.2L807.5 341.1Q807.5 343.3 806.3 344.6Q805.1 345.8 803.0 345.8Z M838.1 345.7L838.1 345.7Q835.9 345.7 834.6 344.5Q833.3 343.3 833.3 341.3L833.3 341.3Q833.3 340.1 834.0 338.3L834.0 338.3L846.3 304.8Q847.3 302.0 849 300.7Q850.7 299.4 853.4 299.4L853.4 299.4Q856.1 299.4 857.9 300.7Q859.6 302.0 860.6 304.7L860.6 304.7L873.0 338.3Q873.6 340.0 873.6 341.3L873.6 341.3Q873.6 343.2 872.2 344.5Q870.9 345.7 868.8 345.7L868.8 345.7Q866.8 345.7 865.7 344.8Q864.6 343.8 863.9 341.6L863.9 341.6L861.6 334.5L845.3 334.5L842.9 341.5Q842.3 343.7 841.1 344.7Q840 345.7 838.1 345.7ZM853.2 308.7L847.3 327.2L859.4 327.2L853.4 308.7L853.2 308.7ZM890.9 345.7L890.9 345.7Q884.7 345.7 881.0 341.0Q877.3 336.4 877.3 328.3L877.3 328.3Q877.3 320.4 881.0 315.7Q884.7 311.1 891 311.1L891 311.1Q894.6 311.1 897.3 312.8Q900.0 314.6 901.2 317.4L901.2 317.4L901.4 317.4L901.4 304.2Q901.4 301.9 902.7 300.6Q903.9 299.4 906.0 299.4Q908.0 299.4 909.3 300.6Q910.5 301.9 910.5 304.2L910.5 304.2L910.5 341.2Q910.5 343.4 909.3 344.6Q908.1 345.8 906 345.8L906 345.8Q904.0 345.8 902.7 344.6Q901.4 343.4 901.4 341.2L901.4 341.2L901.4 339.2L901.3 339.2Q900.1 342.2 897.4 343.9Q894.7 345.7 890.9 345.7ZM894.0 338.3L894.0 338.3Q897.4 338.3 899.5 335.7Q901.5 333.0 901.5 328.4L901.5 328.4Q901.5 323.8 899.5 321.1Q897.4 318.4 894.0 318.4L894.0 318.4Q890.6 318.4 888.6 321.1Q886.6 323.8 886.6 328.4L886.6 328.4Q886.6 333.0 888.6 335.7Q890.6 338.3 894.0 338.3ZM928.5 345.8L928.5 345.8Q923.0 345.8 919.8 342.4Q916.5 339.1 916.5 333.2L916.5 333.2L916.5 315.7Q916.5 313.5 917.7 312.2Q919.0 311.0 921.0 311.0Q923.1 311.0 924.3 312.2Q925.6 313.5 925.6 315.7L925.6 315.7L925.6 331.3Q925.6 334.7 927.2 336.4Q928.8 338.2 931.8 338.2Q934.9 338.2 936.7 336.2Q938.4 334.2 938.4 330.8L938.4 330.8L938.4 315.7Q938.4 313.5 939.7 312.2Q940.9 311.0 943 311.0Q945.1 311.0 946.3 312.2Q947.6 313.5 947.6 315.7L947.6 315.7L947.6 341.2Q947.6 343.4 946.4 344.6Q945.2 345.8 943.2 345.8Q941.1 345.8 939.9 344.6Q938.8 343.4 938.8 341.2L938.8 341.2L938.8 339.1L938.6 339.1Q935.9 345.8 928.5 345.8ZM961.6 344.6Q960.3 345.8 958.3 345.8Q956.2 345.8 955.0 344.6Q953.7 343.3 953.7 341.1L953.7 341.1L953.7 304.2Q953.7 301.9 955.0 300.6Q956.2 299.4 958.3 299.4Q960.3 299.4 961.6 300.6Q962.8 301.9 962.8 304.2L962.8 304.2L962.8 341.1Q962.8 343.3 961.6 344.6ZM971.4 336.6L971.4 336.6L971.4 318.5L969.7 318.5Q968.1 318.5 967.1 317.6Q966.2 316.7 966.2 315.1Q966.2 313.5 967.1 312.6Q968.1 311.7 969.7 311.7L969.7 311.7L971.4 311.7L971.4 307.9Q971.4 305.7 972.7 304.4Q973.9 303.2 976 303.2Q978.1 303.2 979.3 304.4Q980.6 305.7 980.6 307.9L980.6 307.9L980.6 311.7L983.8 311.7Q985.4 311.7 986.3 312.6Q987.3 313.5 987.3 315.1Q987.3 316.7 986.3 317.6Q985.4 318.5 983.8 318.5L983.8 318.5L980.6 318.5L980.6 334.6Q980.6 336.3 981.2 337.2Q981.9 338.0 983.3 338.1L983.3 338.1L983.9 338.2Q985.7 338.3 986.5 339.1Q987.4 339.9 987.4 341.5L987.4 341.5Q987.4 343.4 985.7 344.5Q983.9 345.5 980.9 345.5L980.9 345.5L980.6 345.5Q971.4 345.5 971.4 336.6ZM1005.4 345.9L1005.4 345.9Q999.8 345.9 996 344.0Q992.2 342.2 991 339.2L991 339.2Q990.7 338.2 990.7 337.5L990.7 337.5Q990.7 335.9 991.7 335.0Q992.8 334.0 994.3 334.0L994.3 334.0Q996.5 334.0 998.3 336.1L998.3 336.1Q999.7 337.8 1001.4 338.7Q1003.1 339.5 1005.6 339.5L1005.6 339.5Q1008.1 339.5 1009.6 338.5Q1011.1 337.5 1011.1 335.9L1011.1 335.9Q1011.1 334.5 1010.1 333.7Q1009.1 332.9 1006.7 332.4L1006.7 332.4L1001.0 331.2Q996.1 330.1 993.6 327.7Q991.2 325.2 991.2 321.5L991.2 321.5Q991.2 316.7 995.0 313.8Q998.9 310.9 1005.4 310.9L1005.4 310.9Q1010.4 310.9 1014.0 312.9Q1017.7 314.9 1018.5 317.9L1018.5 317.9Q1018.7 318.7 1018.7 319.2L1018.7 319.2Q1018.7 320.7 1017.8 321.5Q1016.9 322.3 1015.2 322.3L1015.2 322.3Q1013.1 322.3 1011.9 320.9L1011.9 320.9Q1010.5 319.2 1009.0 318.3Q1007.5 317.3 1005.2 317.3L1005.2 317.3Q1002.9 317.3 1001.4 318.3Q1000.0 319.3 1000.0 321.0L1000.0 321.0Q1000.0 322.3 1001.1 323.2Q1002.2 324.1 1004.6 324.6L1004.6 324.6L1010.2 325.8Q1015.5 326.9 1017.9 329.0Q1020.2 331.2 1020.2 334.9L1020.2 334.9Q1020.2 339.9 1016.1 342.9Q1012.1 345.9 1005.4 345.9Z " clip-path="url(#satori_cp-id-0)" mask="url(#satori_om-id-0)"/><defs><clipPath id="satori_bc-id-0-1" clip-path="url(#satori_cp-id-0)"><rect x="0" y="509" width="1200" height="121"/></clipPath></defs><mask id="satori_om-id-0-1"><rect x="0" y="510" width="1200" height="120" fill="#fff" mask="url(#satori_om-id-0)"/><path width="1200" height="121" fill="none" stroke="#000" stroke-width="2" d="M0,509 A0,0 0 0 1 0,509 h1200 A0,0 0 0 1 1200,509"/></mask><path width="1200" height="121" clip-path="url(#satori_bc-id-0-1)" fill="none" stroke="rgba(0,0,0,0.08)" stroke-width="2" d="M0,509 A0,0 0 0 1 0,509 h1200 A0,0 0 0 1 1200,509"/><mask id="satori_om-id-0-1-0"><rect x="48" y="538" width="228" height="64" fill="#fff" mask="url(#satori_om-id-0)"/></mask><mask id="satori_om-id-0-1-0-0"><rect x="48" y="538" width="72" height="64" fill="#fff" mask="url(#satori_om-id-0)"/></mask><clipPath id="satori_cp-id-0-1-0-0-0" clip-path="url(#satori_cp-id-0)"><rect x="48" y="538" width="72" height="64"/></clipPath><mask id="satori_om-id-0-1-0-0-0"><rect x="48" y="538" width="72" height="64" fill="#fff" mask="url(#satori_om-id-0)"/></mask><image x="48" y="538" width="72" height="64" href="data:image/svg+xml;utf8,%3Csvg  xmlns=%22http://www.w3.org/2000/svg%22 width=%2273.60461760461762%22 height=%2264%22 viewBox=%220 0 797 693%22%3E%3Cg transform=%22matrix(1,0,0,1,-345,-96.5)%22%3E%3Cpath d=%22M756.942,197.15L756.942,474C701.751,474 656.942,518.808 656.942,574C656.942,629.192 701.751,674 756.942,674L756.942,777L495.122,777C443.175,777 401,734.825 401,682.878L401,614L364.755,614C353.852,614 345,605.148 345,594.245L345,436.814C345,425.878 353.878,417 364.814,417L401,417L401,365.122C401,313.175 443.175,271 495.122,271L715.058,271L715.058,197.15C696.492,189.056 683.5,170.533 683.5,149C683.5,120.024 707.024,96.5 736,96.5C764.976,96.5 788.5,120.024 788.5,149C788.5,170.533 775.508,189.056 756.942,197.15ZM559,388C520.918,388 490,418.918 490,457C490,495.082 520.918,526 559,526C597.082,526 628,495.082 628,457C628,418.918 597.082,388 559,388Z%22 fill=%22%23ad47ff%22%3E%3C/path%3E%3Cg transform=%22matrix(-1,1.22465e-16,-1.22465e-16,-1,1486.06,1043)%22%3E%3Cpath d=%22M401,417L401,348.122C401,296.175 443.175,254 495.122,254L705.058,254L705.058,357C760.249,357 805.058,401.808 805.058,457C805.058,512.192 760.249,557 705.058,557L705.058,760L495.122,760C443.175,760 401,717.825 401,665.878L401,614L364.755,614C353.852,614 345,605.148 345,594.245L345,436.814C345,425.878 353.878,417 364.814,417L401,417ZM552,643C590.082,643 621,612.082 621,574C621,535.918 590.082,505 552,505C513.918,505 483,535.918 483,574C483,612.082 513.918,643 552,643Z%22 fill=%22%2300d5bd%22%3E%3C/path%3E%3C/g%3E%3C/g%3E%3C/svg%3E" preserveAspectRatio="none" clip-path="url(#satori_cp-id-0-1-0-0-0)" mask="url(#satori_om-id-0-1-0-0-0)"/><mask id="satori_om-id-0-1-0-0-0-0"><rect x="48" y="538" width="0" height="64" fill="#fff" mask="url(#satori_om-id-0)"/></mask><mask id="satori_om-id-0-1-0-0-0-0-0"><rect x="48" y="538" width="0" height="64" fill="#fff" mask="url(#satori_om-id-0)"/></mask><mask id="satori_om-id-0-1-0-0-0-0-1"><rect x="48" y="538" width="0" height="64" fill="#fff" mask="url(#satori_om-id-0)"/></mask><mask id="satori_om-id-0-1-0-0-0-0-1-0"><rect x="48" y="538" width="0" height="64" fill="#fff" mask="url(#satori_om-id-0)"/></mask><mask id="satori_om-id-0-1-0-1"><rect x="138" y="540" width="138" height="60" fill="#fff" mask="url(#satori_om-id-0)"/></mask><mask id="satori_om-id-0-1-0-1-0"><rect x="138" y="540" width="138" height="36" fill="#fff" mask="url(#satori_om-id-0)"/></mask><path fill="#0f172a" d="M150.7 571.2L150.7 571.2Q145.9 571.2 143.0 568.6Q140.1 566.1 140.1 561.8L140.1 561.8L140.1 547.9Q140.1 546.5 140.8 545.8Q141.5 545.1 142.8 545.1Q144.0 545.1 144.7 545.8Q145.4 546.5 145.4 547.9L145.4 547.9L145.4 561.3Q145.4 563.8 146.8 565.2Q148.2 566.7 150.7 566.7L150.7 566.7Q153.3 566.7 154.7 565.2Q156.1 563.8 156.1 561.3L156.1 561.3L156.1 547.9Q156.1 546.5 156.8 545.8Q157.5 545.1 158.7 545.1Q160.0 545.1 160.7 545.8Q161.4 546.5 161.4 547.9L161.4 547.9L161.4 561.8Q161.4 566.1 158.5 568.6Q155.6 571.2 150.7 571.2ZM170.2 570.4Q169.5 571.2 168.2 571.2Q167.0 571.2 166.3 570.4Q165.6 569.7 165.6 568.4L165.6 568.4L165.6 548.2Q165.6 546.9 166.3 546.2Q167.0 545.4 168.2 545.4L168.2 545.4L176.0 545.4Q180.3 545.4 182.7 547.6Q185.1 549.7 185.1 553.5L185.1 553.5Q185.1 555.9 184.0 557.8Q182.9 559.7 180.8 560.6L180.8 560.6L184.4 566.9Q185.0 567.9 185.0 568.7L185.0 568.7Q185.0 569.8 184.2 570.5Q183.5 571.2 182.3 571.2L182.3 571.2Q181.4 571.2 180.8 570.8Q180.3 570.3 179.6 569.2L179.6 569.2L175.4 561.5L170.9 561.5L170.9 568.4Q170.9 569.7 170.2 570.4ZM170.9 549.6L170.9 557.7L175.5 557.7Q177.5 557.7 178.6 556.6Q179.7 555.5 179.7 553.6L179.7 553.6Q179.7 551.8 178.5 550.7Q177.4 549.6 175.4 549.6L175.4 549.6L170.9 549.6ZM198.1 562.7L190.8 562.7Q189.7 562.7 189.1 562.1Q188.4 561.5 188.4 560.5Q188.4 559.4 189.1 558.8Q189.7 558.2 190.8 558.2L190.8 558.2L198.1 558.2Q199.2 558.2 199.9 558.8Q200.6 559.4 200.6 560.5Q200.6 561.5 199.9 562.1Q199.2 562.7 198.1 562.7L198.1 562.7ZM209.1 570.4Q208.4 571.2 207.2 571.2Q205.9 571.2 205.2 570.4Q204.5 569.7 204.5 568.4L204.5 568.4L204.5 548.2Q204.5 546.9 205.2 546.2Q205.9 545.4 207.2 545.4L207.2 545.4L214.9 545.4Q219.3 545.4 221.7 547.6Q224.1 549.7 224.1 553.5L224.1 553.5Q224.1 555.9 223.0 557.8Q221.8 559.7 219.7 560.6L219.7 560.6L223.4 566.9Q224.0 567.9 224.0 568.7L224.0 568.7Q224.0 569.8 223.2 570.5Q222.4 571.2 221.3 571.2L221.3 571.2Q220.3 571.2 219.8 570.8Q219.2 570.3 218.6 569.2L218.6 569.2L214.4 561.5L209.8 561.5L209.8 568.4Q209.8 569.7 209.1 570.4ZM209.8 549.6L209.8 557.7L214.4 557.7Q216.4 557.7 217.5 556.6Q218.6 555.5 218.6 553.6L218.6 553.6Q218.6 551.8 217.5 550.7Q216.3 549.6 214.4 549.6L214.4 549.6L209.8 549.6ZM229.3 571.1L229.3 571.1Q228.0 571.1 227.3 570.5Q226.6 569.8 226.6 568.6L226.6 568.6Q226.6 567.9 226.9 566.9L226.9 566.9L233.9 548.1Q234.4 546.5 235.4 545.8Q236.3 545.1 237.8 545.1L237.8 545.1Q239.4 545.1 240.4 545.8Q241.3 546.5 241.9 548.1L241.9 548.1L248.9 566.9Q249.2 567.9 249.2 568.6L249.2 568.6Q249.2 569.7 248.5 570.4Q247.7 571.1 246.5 571.1L246.5 571.1Q245.4 571.1 244.8 570.6Q244.1 570.0 243.8 568.8L243.8 568.8L242.4 564.8L233.3 564.8L232.0 568.7Q231.6 570.0 231.0 570.6Q230.3 571.1 229.3 571.1ZM237.7 550.3L234.5 560.7L241.2 560.7L237.9 550.3L237.7 550.3ZM262.1 570.8L255.1 570.8Q253.8 570.8 253.1 570.1Q252.4 569.3 252.4 568.0L252.4 568.0L252.4 548.2Q252.4 546.9 253.1 546.2Q253.8 545.4 255.1 545.4L255.1 545.4L262.1 545.4Q267.8 545.4 271.0 548.7Q274.2 552.0 274.2 558.0L274.2 558.0Q274.2 564.0 271.0 567.4Q267.8 570.8 262.1 570.8L262.1 570.8ZM257.7 549.8L257.7 566.4L261.5 566.4Q265.0 566.4 266.9 564.3Q268.8 562.1 268.8 558.0L268.8 558.0Q268.8 554.1 266.9 551.9Q265.0 549.8 261.5 549.8L261.5 549.8L257.7 549.8Z " clip-path="url(#satori_cp-id-0)" mask="url(#satori_om-id-0)"/><mask id="satori_om-id-0-1-0-1-1"><rect x="138" y="576" width="138" height="24" fill="#fff" mask="url(#satori_om-id-0)"/></mask><path fill="#334155" d="M145.0 595.3L145.0 595.3Q142.4 595.3 140.8 593.8Q139.2 592.4 139.2 590.1L139.2 590.1L139.2 582.1Q139.2 581.5 139.6 581.1Q139.9 580.8 140.5 580.8L140.5 580.8Q141.1 580.8 141.4 581.1Q141.8 581.5 141.8 582.1L141.8 582.1L141.8 589.8Q141.8 591.3 142.6 592.2Q143.5 593.1 145.0 593.1Q146.6 593.1 147.4 592.2Q148.3 591.3 148.3 589.8L148.3 589.8L148.3 582.1Q148.3 581.5 148.6 581.1Q149.0 580.8 149.6 580.8L149.6 580.8Q150.2 580.8 150.5 581.1Q150.8 581.5 150.8 582.1L150.8 582.1L150.8 590.1Q150.8 592.4 149.3 593.8Q147.7 595.3 145.0 595.3ZM155.5 594.9Q155.2 595.2 154.6 595.2Q154.0 595.2 153.6 594.9Q153.3 594.5 153.3 593.9L153.3 593.9L153.3 582.3Q153.3 581.6 153.6 581.3Q154.0 581.0 154.6 581.0L154.6 581.0L158.9 581.0Q161.2 581.0 162.5 582.1Q163.8 583.3 163.8 585.3L163.8 585.3Q163.8 586.7 163.1 587.8Q162.4 588.8 161.2 589.3L161.2 589.3L163.4 593.2Q163.7 593.7 163.7 594.1L163.7 594.1Q163.7 594.6 163.4 594.9Q163.0 595.2 162.4 595.2L162.4 595.2Q162.0 595.2 161.7 595.0Q161.5 594.8 161.2 594.3L161.2 594.3L158.7 589.7L155.8 589.7L155.8 593.9Q155.8 594.5 155.5 594.9ZM155.8 583.0L155.8 587.8L158.7 587.8Q159.9 587.8 160.5 587.2Q161.2 586.5 161.2 585.4L161.2 585.4Q161.2 584.3 160.5 583.6Q159.8 583.0 158.6 583.0L158.6 583.0L155.8 583.0ZM171.1 590.4L166.7 590.4Q166.2 590.4 165.9 590.1Q165.6 589.8 165.6 589.3Q165.6 588.8 165.9 588.5Q166.2 588.2 166.7 588.2L166.7 588.2L171.1 588.2Q171.7 588.2 172.0 588.5Q172.3 588.8 172.3 589.3Q172.3 589.8 172.0 590.1Q171.7 590.4 171.1 590.4L171.1 590.4ZM176.7 594.9Q176.4 595.2 175.8 595.2Q175.2 595.2 174.9 594.9Q174.6 594.5 174.6 593.9L174.6 593.9L174.6 582.3Q174.6 581.6 174.9 581.3Q175.2 581.0 175.8 581.0L175.8 581.0L180.1 581.0Q182.4 581.0 183.7 582.1Q185.0 583.3 185.0 585.3L185.0 585.3Q185.0 586.7 184.3 587.8Q183.7 588.8 182.5 589.3L182.5 589.3L184.7 593.2Q185.0 593.7 185.0 594.1L185.0 594.1Q185.0 594.6 184.6 594.9Q184.2 595.2 183.7 595.2L183.7 595.2Q183.2 595.2 183.0 595.0Q182.7 594.8 182.4 594.3L182.4 594.3L179.9 589.7L177.1 589.7L177.1 593.9Q177.1 594.5 176.7 594.9ZM177.1 583.0L177.1 587.8L179.9 587.8Q181.1 587.8 181.8 587.2Q182.4 586.5 182.4 585.4L182.4 585.4Q182.4 584.3 181.8 583.6Q181.1 583.0 179.9 583.0L179.9 583.0L177.1 583.0ZM187.7 595.2L187.7 595.2Q187.1 595.2 186.7 594.9Q186.4 594.6 186.4 594.0L186.4 594.0Q186.4 593.7 186.6 593.3L186.6 593.3L190.7 582.2Q190.9 581.4 191.4 581.1Q191.8 580.8 192.5 580.8L192.5 580.8Q193.2 580.8 193.6 581.1Q194.1 581.4 194.3 582.1L194.3 582.1L198.4 593.3Q198.6 593.7 198.6 594.0L198.6 594.0Q198.6 594.6 198.2 594.9Q197.9 595.2 197.3 595.2L197.3 595.2Q196.8 595.2 196.5 595.0Q196.2 594.7 196.0 594.1L196.0 594.1L195.1 591.4L189.9 591.4L188.9 594.1Q188.8 594.7 188.5 595.0Q188.2 595.2 187.7 595.2ZM192.4 583.4L190.5 589.5L194.5 589.5L192.5 583.4L192.4 583.4ZM205.6 595.0L201.7 595.0Q201.1 595.0 200.8 594.7Q200.4 594.3 200.4 593.7L200.4 593.7L200.4 582.3Q200.4 581.6 200.8 581.3Q201.1 581.0 201.7 581.0L201.7 581.0L205.6 581.0Q208.7 581.0 210.5 582.8Q212.3 584.6 212.3 588.0L212.3 588.0Q212.3 591.3 210.5 593.2Q208.7 595.0 205.6 595.0L205.6 595.0ZM202.9 583.1L202.9 592.9L205.3 592.9Q207.4 592.9 208.6 591.6Q209.7 590.4 209.7 588.0L209.7 588.0Q209.7 585.6 208.6 584.3Q207.4 583.1 205.3 583.1L205.3 583.1L202.9 583.1Z M227.0 595.0L219.2 595.0Q218.7 595.0 218.3 594.8Q218.0 594.5 218.0 594.0L218.0 594.0Q218.0 593.6 218.2 593.3Q218.3 593.1 218.7 592.7L218.7 592.7L223.0 588.4Q224.4 587.1 224.8 586.4Q225.3 585.7 225.3 584.9L225.3 584.9Q225.3 583.9 224.6 583.3Q224.0 582.7 223.0 582.7L223.0 582.7Q221.1 582.7 220.3 584.6L220.3 584.6Q220.1 585.0 219.9 585.2Q219.6 585.4 219.2 585.4L219.2 585.4Q218.7 585.4 218.4 585.1Q218.1 584.8 218.1 584.3L218.1 584.3Q218.1 584.1 218.2 583.8L218.2 583.8Q218.3 583.2 218.7 582.7Q219.1 582.1 219.7 581.7Q220.3 581.2 221.1 580.9Q222.0 580.7 223.0 580.7L223.0 580.7Q225.1 580.7 226.4 581.8Q227.8 582.9 227.8 584.7L227.8 584.7Q227.8 585.9 227.1 586.9Q226.4 588.0 224.6 589.8L224.6 589.8L221.4 592.9L221.4 593.0L227.0 593.0Q227.5 593.0 227.8 593.3Q228.1 593.5 228.1 594.0Q228.1 594.5 227.8 594.8Q227.5 595.0 227.0 595.0L227.0 595.0ZM235.2 595.3L235.2 595.3Q232.6 595.3 231.1 593.4Q229.7 591.4 229.7 588.0L229.7 588.0Q229.7 584.6 231.1 582.6Q232.6 580.7 235.2 580.7L235.2 580.7Q237.8 580.7 239.3 582.6Q240.7 584.6 240.7 588.0L240.7 588.0Q240.7 591.4 239.3 593.3Q237.8 595.3 235.2 595.3ZM235.2 593.3L235.2 593.3Q236.6 593.3 237.4 591.9Q238.2 590.5 238.2 588.0L238.2 588.0Q238.2 585.5 237.4 584.1Q236.6 582.7 235.2 582.7Q233.8 582.7 233.0 584.1Q232.2 585.5 232.2 588.0L232.2 588.0Q232.2 590.5 233.0 591.9Q233.8 593.3 235.2 593.3ZM251.6 595.0L243.8 595.0Q243.2 595.0 242.9 594.8Q242.6 594.5 242.6 594.0L242.6 594.0Q242.6 593.6 242.7 593.3Q242.9 593.1 243.3 592.7L243.3 592.7L247.6 588.4Q248.9 587.1 249.4 586.4Q249.8 585.7 249.8 584.9L249.8 584.9Q249.8 583.9 249.2 583.3Q248.5 582.7 247.5 582.7L247.5 582.7Q245.6 582.7 244.9 584.6L244.9 584.6Q244.7 585.0 244.4 585.2Q244.2 585.4 243.7 585.4L243.7 585.4Q243.2 585.4 242.9 585.1Q242.6 584.8 242.6 584.3L242.6 584.3Q242.6 584.1 242.7 583.8L242.7 583.8Q242.9 583.2 243.2 582.7Q243.6 582.1 244.2 581.7Q244.8 581.2 245.7 580.9Q246.5 580.7 247.5 580.7L247.5 580.7Q249.6 580.7 251.0 581.8Q252.3 582.9 252.3 584.7L252.3 584.7Q252.3 585.9 251.6 586.9Q251.0 588.0 249.2 589.8L249.2 589.8L245.9 592.9L245.9 593.0L251.6 593.0Q252.1 593.0 252.4 593.3Q252.6 593.5 252.6 594.0Q252.6 594.5 252.4 594.8Q252.1 595.0 251.6 595.0L251.6 595.0ZM259.6 595.3L259.6 595.3Q258.0 595.3 256.7 594.6Q255.4 593.9 254.9 592.8L254.9 592.8Q254.6 592.3 254.6 591.8L254.6 591.8Q254.6 591.3 254.9 591.0Q255.2 590.7 255.7 590.7L255.7 590.7Q256.1 590.7 256.4 590.9Q256.6 591.1 256.8 591.5L256.8 591.5Q257.2 592.3 257.9 592.8Q258.6 593.3 259.6 593.3L259.6 593.3Q260.9 593.3 261.7 592.5Q262.5 591.7 262.5 590.4L262.5 590.4Q262.5 589.2 261.7 588.4Q260.9 587.7 259.6 587.7L259.6 587.7Q258.3 587.7 257.4 588.5L257.4 588.5Q257.0 589.0 256.7 589.1Q256.4 589.3 256.0 589.3L256.0 589.3Q255.4 589.3 255.1 588.9Q254.8 588.5 254.8 588.0L254.8 588.0Q254.8 587.9 254.8 587.8L254.8 587.8L255.3 582.5Q255.4 581.7 255.8 581.3Q256.2 581.0 257.0 581.0L257.0 581.0L263.1 581.0Q263.6 581.0 263.9 581.2Q264.2 581.5 264.2 582.0L264.2 582.0Q264.2 582.4 263.9 582.7Q263.6 583.0 263.1 583.0L263.1 583.0L257.4 583.0L257.1 587.2L257.1 587.2Q257.6 586.5 258.4 586.1Q259.2 585.8 260.3 585.8L260.3 585.8Q262.3 585.8 263.6 587.0Q264.9 588.3 264.9 590.4L264.9 590.4Q264.9 592.6 263.4 593.9Q261.9 595.3 259.6 595.3Z " clip-path="url(#satori_cp-id-0)" mask="url(#satori_om-id-0)"/><mask id="satori_om-id-0-1-1"><rect x="972" y="557" width="180" height="26" fill="#fff" mask="url(#satori_om-id-0)"/></mask><path fill="#334155" d="M975.4 577.8Q975.1 578.2 974.5 578.2Q973.9 578.2 973.5 577.8Q973.2 577.5 973.2 576.8L973.2 576.8L973.2 563.6Q973.2 563.0 973.5 562.6Q973.9 562.2 974.5 562.2Q975.1 562.2 975.5 562.6Q975.8 563.0 975.8 563.6L975.8 563.6L975.8 568.5L975.9 568.5Q976.4 567.5 977.3 566.9Q978.3 566.4 979.5 566.4L979.5 566.4Q981.6 566.4 982.9 568.0Q984.2 569.5 984.2 572.3L984.2 572.3Q984.2 575.0 982.9 576.6Q981.6 578.1 979.5 578.1L979.5 578.1Q978.2 578.1 977.3 577.6Q976.4 577.0 975.8 576.0L975.8 576.0L975.8 576.0L975.8 576.8Q975.8 577.5 975.4 577.8ZM978.6 575.9L978.6 575.9Q979.9 575.9 980.7 574.9Q981.4 574.0 981.4 572.3Q981.4 570.6 980.7 569.6Q979.9 568.6 978.6 568.6L978.6 568.6Q977.4 568.6 976.6 569.6Q975.8 570.6 975.8 572.3L975.8 572.3Q975.8 573.9 976.6 574.9Q977.4 575.9 978.6 575.9ZM987.5 582.2L987.5 582.2Q986.6 582.2 986.1 581.9Q985.7 581.5 985.7 580.9L985.7 580.9Q985.7 580.5 985.9 580.3Q986.2 580.0 986.7 580.0L986.7 580.0Q986.8 580.0 987.0 580.0Q987.1 580.0 987.3 580.0L987.3 580.0Q988.3 580.0 988.9 578.7L988.9 578.7L989.1 578.2L985.3 568.3Q985.2 567.9 985.2 567.6L985.2 567.6Q985.2 567.0 985.6 566.7Q986.0 566.3 986.6 566.3L986.6 566.3Q987.1 566.3 987.4 566.6Q987.7 566.8 987.8 567.4L987.8 567.4L990.6 575.7L990.6 575.7L993.3 567.4Q993.5 566.8 993.8 566.6Q994.1 566.3 994.6 566.3L994.6 566.3Q995.2 566.3 995.5 566.7Q995.9 567.0 995.9 567.5L995.9 567.5Q995.9 567.9 995.8 568.3L995.8 568.3L992.0 578.4Q991.2 580.5 990.2 581.3Q989.2 582.2 987.5 582.2Z M1007.5 578.2L1007.5 578.2Q1005.2 578.2 1003.7 577.4Q1002.2 576.5 1001.7 575.2L1001.7 575.2Q1001.6 574.8 1001.6 574.4L1001.6 574.4Q1001.6 573.8 1001.9 573.4Q1002.3 573.1 1002.8 573.1L1002.8 573.1Q1003.3 573.1 1003.6 573.3Q1003.9 573.5 1004.1 574.0L1004.1 574.0Q1004.5 574.9 1005.4 575.4Q1006.3 575.9 1007.6 575.9L1007.6 575.9Q1009.0 575.9 1009.9 575.3Q1010.8 574.7 1010.8 573.7L1010.8 573.7Q1010.8 572.8 1010.1 572.3Q1009.5 571.8 1008.0 571.5L1008.0 571.5L1006.3 571.1Q1001.8 570.2 1001.8 566.8L1001.8 566.8Q1001.8 564.7 1003.4 563.5Q1005.0 562.2 1007.5 562.2L1007.5 562.2Q1009.6 562.2 1011.1 563.1Q1012.5 563.9 1013.0 565.5L1013.0 565.5Q1013.1 565.7 1013.1 566.1L1013.1 566.1Q1013.1 566.6 1012.8 566.9Q1012.4 567.2 1011.9 567.2L1011.9 567.2Q1011.0 567.2 1010.6 566.4L1010.6 566.4Q1009.8 564.5 1007.5 564.5L1007.5 564.5Q1006.2 564.5 1005.4 565.1Q1004.5 565.6 1004.5 566.6L1004.5 566.6Q1004.5 567.4 1005.2 567.9Q1005.8 568.4 1007.3 568.7L1007.3 568.7L1008.9 569.1Q1011.4 569.6 1012.5 570.6Q1013.6 571.6 1013.6 573.4L1013.6 573.4Q1013.6 575.6 1011.9 576.9Q1010.3 578.2 1007.5 578.2ZM1020.4 578.2L1020.4 578.2Q1017.8 578.2 1016.4 576.6Q1014.9 575.1 1014.9 572.3L1014.9 572.3Q1014.9 569.6 1016.4 567.9Q1017.8 566.3 1020.3 566.3L1020.3 566.3Q1022.6 566.3 1024.1 567.8Q1025.5 569.3 1025.5 571.6L1025.5 571.6Q1025.5 572.2 1025.2 572.6Q1024.9 572.9 1024.3 572.9L1024.3 572.9L1017.6 572.9L1017.6 573.0Q1017.6 574.4 1018.3 575.3Q1019.1 576.1 1020.4 576.1L1020.4 576.1Q1021.3 576.1 1022.0 575.8Q1022.6 575.4 1023.3 574.6L1023.3 574.6Q1023.6 574.2 1024.2 574.2L1024.2 574.2Q1024.6 574.2 1024.9 574.4Q1025.2 574.7 1025.2 575.2L1025.2 575.2Q1025.2 575.5 1025.0 575.9L1025.0 575.9Q1024.5 577.0 1023.3 577.6Q1022.0 578.2 1020.4 578.2ZM1017.6 571.1L1017.6 571.1L1022.9 571.1Q1022.9 569.9 1022.1 569.1Q1021.4 568.4 1020.3 568.4Q1019.2 568.4 1018.4 569.2Q1017.7 569.9 1017.6 571.1ZM1032.3 578.2L1032.3 578.2Q1029.7 578.2 1028.2 576.6Q1026.8 575.1 1026.8 572.3L1026.8 572.3Q1026.8 569.6 1028.2 567.9Q1029.7 566.3 1032.1 566.3L1032.1 566.3Q1034.5 566.3 1035.9 567.8Q1037.4 569.3 1037.4 571.6L1037.4 571.6Q1037.4 572.2 1037.1 572.6Q1036.7 572.9 1036.1 572.9L1036.1 572.9L1029.4 572.9L1029.4 573.0Q1029.4 574.4 1030.2 575.3Q1031.0 576.1 1032.3 576.1L1032.3 576.1Q1033.2 576.1 1033.8 575.8Q1034.5 575.4 1035.1 574.6L1035.1 574.6Q1035.5 574.2 1036.0 574.2L1036.0 574.2Q1036.5 574.2 1036.8 574.4Q1037.1 574.7 1037.1 575.2L1037.1 575.2Q1037.1 575.5 1036.9 575.9L1036.9 575.9Q1036.3 577.0 1035.1 577.6Q1033.9 578.2 1032.3 578.2ZM1029.4 571.1L1029.4 571.1L1034.8 571.1Q1034.7 569.9 1034.0 569.1Q1033.3 568.4 1032.2 568.4Q1031.0 568.4 1030.3 569.2Q1029.5 569.9 1029.4 571.1ZM1041.5 577.8Q1041.1 578.2 1040.5 578.2Q1039.9 578.2 1039.6 577.8Q1039.2 577.4 1039.2 576.8L1039.2 576.8L1039.2 563.6Q1039.2 563.0 1039.6 562.6Q1039.9 562.2 1040.5 562.2Q1041.1 562.2 1041.5 562.6Q1041.9 563.0 1041.9 563.6L1041.9 563.6L1041.9 576.8Q1041.9 577.4 1041.5 577.8ZM1047.5 578.1L1047.5 578.1Q1045.8 578.1 1044.7 577.2Q1043.7 576.2 1043.7 574.7L1043.7 574.7Q1043.7 573.2 1044.8 572.3Q1045.9 571.4 1048.0 571.3L1048.0 571.3L1051.0 571.1L1051.0 570.3Q1051.0 569.4 1050.5 568.9Q1049.9 568.4 1048.9 568.4L1048.9 568.4Q1048.1 568.4 1047.5 568.7Q1047.0 569.0 1046.5 569.8L1046.5 569.8Q1046.1 570.3 1045.4 570.3L1045.4 570.3Q1044.9 570.3 1044.6 570.0Q1044.3 569.7 1044.3 569.2L1044.3 569.2Q1044.3 568.9 1044.5 568.5L1044.5 568.5Q1044.9 567.5 1046.1 566.9Q1047.4 566.3 1049 566.3L1049 566.3Q1051.1 566.3 1052.4 567.4Q1053.7 568.4 1053.7 570.1L1053.7 570.1L1053.7 576.8Q1053.7 577.5 1053.3 577.8Q1052.9 578.2 1052.4 578.2L1052.4 578.2Q1051.8 578.2 1051.5 577.8Q1051.1 577.5 1051.1 576.9L1051.1 576.9L1051.1 576.1L1051.0 576.1Q1050.5 577.0 1049.6 577.6Q1048.6 578.1 1047.5 578.1ZM1048.3 576.1L1048.3 576.1Q1049.4 576.1 1050.2 575.4Q1051.0 574.7 1051.0 573.7L1051.0 573.7L1051.0 572.9L1048.4 573.0Q1047.4 573.1 1046.9 573.5Q1046.3 573.9 1046.3 574.6L1046.3 574.6Q1046.3 575.3 1046.9 575.7Q1047.4 576.1 1048.3 576.1ZM1057.1 578.2L1057.1 578.2Q1056.5 578.2 1056.2 577.8Q1055.8 577.4 1055.8 576.8L1055.8 576.8L1055.8 567.7Q1055.8 567.1 1056.2 566.7Q1056.5 566.3 1057.1 566.3Q1057.7 566.3 1058.0 566.7Q1058.4 567.1 1058.4 567.7L1058.4 567.7L1058.4 568.5L1058.4 568.5Q1058.8 567.5 1059.7 566.9Q1060.5 566.3 1061.7 566.3L1061.7 566.3Q1062.9 566.3 1063.7 566.9Q1064.5 567.5 1064.9 568.6L1064.9 568.6L1064.9 568.6Q1065.3 567.6 1066.3 567.0Q1067.2 566.3 1068.5 566.3L1068.5 566.3Q1070.2 566.3 1071.2 567.4Q1072.2 568.4 1072.2 570.1L1072.2 570.1L1072.2 576.8Q1072.2 577.4 1071.8 577.8Q1071.5 578.2 1070.8 578.2L1070.8 578.2Q1070.2 578.2 1069.9 577.8Q1069.5 577.4 1069.5 576.8L1069.5 576.8L1069.5 570.8Q1069.5 569.7 1069.0 569.2Q1068.4 568.6 1067.5 568.6L1067.5 568.6Q1066.5 568.6 1065.9 569.2Q1065.3 569.9 1065.3 570.9L1065.3 570.9L1065.3 576.8Q1065.3 577.4 1064.9 577.8Q1064.6 578.2 1064.0 578.2L1064.0 578.2Q1063.4 578.2 1063.0 577.8Q1062.7 577.4 1062.7 576.8L1062.7 576.8L1062.7 570.7Q1062.7 569.7 1062.2 569.2Q1061.6 568.6 1060.7 568.6L1060.7 568.6Q1059.7 568.6 1059.1 569.3Q1058.5 569.9 1058.5 571.0L1058.5 571.0L1058.5 576.8Q1058.5 577.4 1058.1 577.8Q1057.7 578.2 1057.1 578.2ZM1076.2 575.2L1076.2 575.2Q1076.7 575.2 1077.1 575.5Q1077.4 575.8 1077.4 576.3L1077.4 576.3Q1077.4 576.6 1077.3 576.9L1077.3 576.9L1076.4 580.6Q1076.3 581.1 1076.0 581.3Q1075.8 581.5 1075.3 581.5Q1074.8 581.5 1074.6 581.2Q1074.3 581.0 1074.3 580.5L1074.3 580.5Q1074.3 580.4 1074.3 580.3L1074.3 580.3L1074.9 576.3Q1075.1 575.2 1076.2 575.2Z M1093.6 577.9L1086.3 577.9Q1085.7 577.9 1085.3 577.6Q1084.9 577.2 1084.9 576.5L1084.9 576.5L1084.9 563.7Q1084.9 563.0 1085.3 562.6Q1085.7 562.3 1086.3 562.3L1086.3 562.3Q1087.0 562.3 1087.3 562.6Q1087.7 563.0 1087.7 563.7L1087.7 563.7L1087.7 575.6L1093.6 575.6Q1094.2 575.6 1094.5 575.9Q1094.9 576.2 1094.9 576.8Q1094.9 577.3 1094.5 577.6Q1094.2 577.9 1093.6 577.9L1093.6 577.9ZM1098.3 578.1L1098.3 578.1Q1097.7 578.1 1097.2 577.6Q1096.8 577.2 1096.8 576.5L1096.8 576.5Q1096.8 575.9 1097.2 575.4Q1097.7 575.0 1098.3 575.0L1098.3 575.0Q1099.0 575.0 1099.4 575.4Q1099.8 575.9 1099.8 576.5L1099.8 576.5Q1099.8 577.2 1099.4 577.6Q1099.0 578.1 1098.3 578.1Z M1111.8 578.2L1111.8 578.2Q1109.2 578.2 1107.7 576.6Q1106.3 575.1 1106.3 572.3L1106.3 572.3Q1106.3 569.6 1107.7 567.9Q1109.2 566.3 1111.7 566.3L1111.7 566.3Q1114.0 566.3 1115.5 567.8Q1116.9 569.3 1116.9 571.6L1116.9 571.6Q1116.9 572.2 1116.6 572.6Q1116.3 572.9 1115.7 572.9L1115.7 572.9L1109.0 572.9L1109.0 573.0Q1109.0 574.4 1109.7 575.3Q1110.5 576.1 1111.8 576.1L1111.8 576.1Q1112.7 576.1 1113.4 575.8Q1114.0 575.4 1114.6 574.6L1114.6 574.6Q1115.0 574.2 1115.5 574.2L1115.5 574.2Q1116.0 574.2 1116.3 574.4Q1116.6 574.7 1116.6 575.2L1116.6 575.2Q1116.6 575.5 1116.4 575.9L1116.4 575.9Q1115.9 577.0 1114.7 577.6Q1113.4 578.2 1111.8 578.2ZM1109.0 571.1L1109.0 571.1L1114.3 571.1Q1114.2 569.9 1113.5 569.1Q1112.8 568.4 1111.7 568.4Q1110.6 568.4 1109.8 569.2Q1109.0 569.9 1109.0 571.1ZM1119.4 575.1L1119.4 575.1L1119.4 568.6L1118.7 568.6Q1118.2 568.6 1117.9 568.3Q1117.6 568.1 1117.6 567.6L1117.6 567.6Q1117.6 567.1 1117.9 566.8Q1118.1 566.6 1118.7 566.6L1118.7 566.6L1119.4 566.6L1119.4 565.0Q1119.4 564.4 1119.7 564.0Q1120.1 563.6 1120.7 563.6L1120.7 563.6Q1121.3 563.6 1121.7 564.0Q1122.0 564.4 1122.0 565.0L1122.0 565.0L1122.0 566.6L1123.3 566.6Q1123.8 566.6 1124.1 566.8Q1124.4 567.1 1124.4 567.6L1124.4 567.6Q1124.4 568.1 1124.1 568.3Q1123.8 568.6 1123.3 568.6L1123.3 568.6L1122.0 568.6L1122.0 574.6Q1122.0 575.2 1122.3 575.5Q1122.5 575.8 1123.1 575.9L1123.1 575.9L1123.3 575.9Q1124.4 576.0 1124.4 576.9L1124.4 576.9Q1124.4 577.5 1123.9 577.8Q1123.4 578.1 1122.5 578.1L1122.5 578.1L1122.4 578.1Q1119.4 578.1 1119.4 575.1Z M1133.8 578.1L1133.8 578.1Q1132.1 578.1 1131.0 577.2Q1130.0 576.2 1130.0 574.7L1130.0 574.7Q1130.0 573.2 1131.1 572.3Q1132.2 571.4 1134.3 571.3L1134.3 571.3L1137.3 571.1L1137.3 570.3Q1137.3 569.4 1136.7 568.9Q1136.2 568.4 1135.2 568.4L1135.2 568.4Q1134.4 568.4 1133.8 568.7Q1133.3 569.0 1132.8 569.8L1132.8 569.8Q1132.4 570.3 1131.7 570.3L1131.7 570.3Q1131.2 570.3 1130.9 570.0Q1130.6 569.7 1130.6 569.2L1130.6 569.2Q1130.6 568.9 1130.8 568.5L1130.8 568.5Q1131.2 567.5 1132.4 566.9Q1133.6 566.3 1135.3 566.3L1135.3 566.3Q1137.4 566.3 1138.7 567.4Q1139.9 568.4 1139.9 570.1L1139.9 570.1L1139.9 576.8Q1139.9 577.5 1139.6 577.8Q1139.2 578.2 1138.6 578.2L1138.6 578.2Q1138.1 578.2 1137.7 577.8Q1137.4 577.5 1137.4 576.9L1137.4 576.9L1137.4 576.1L1137.3 576.1Q1136.8 577.0 1135.9 577.6Q1134.9 578.1 1133.8 578.1ZM1134.6 576.1L1134.6 576.1Q1135.7 576.1 1136.5 575.4Q1137.3 574.7 1137.3 573.7L1137.3 573.7L1137.3 572.9L1134.7 573.0Q1133.7 573.1 1133.2 573.5Q1132.6 573.9 1132.6 574.6L1132.6 574.6Q1132.6 575.3 1133.2 575.7Q1133.7 576.1 1134.6 576.1ZM1144.5 577.8Q1144.1 578.2 1143.5 578.2Q1142.9 578.2 1142.5 577.8Q1142.2 577.4 1142.2 576.8L1142.2 576.8L1142.2 563.6Q1142.2 563.0 1142.5 562.6Q1142.9 562.2 1143.5 562.2Q1144.1 562.2 1144.5 562.6Q1144.8 563.0 1144.8 563.6L1144.8 563.6L1144.8 576.8Q1144.8 577.4 1144.5 577.8ZM1149.0 578.1L1149.0 578.1Q1148.3 578.1 1147.9 577.6Q1147.4 577.2 1147.4 576.5L1147.4 576.5Q1147.4 575.9 1147.9 575.4Q1148.3 575.0 1149.0 575.0L1149.0 575.0Q1149.6 575.0 1150.1 575.4Q1150.5 575.9 1150.5 576.5L1150.5 576.5Q1150.5 577.2 1150.1 577.6Q1149.6 578.1 1149.0 578.1Z " clip-path="url(#satori_cp-id-0)" mask="url(#satori_om-id-0)"/></svg>