<svg width="1200" height="630" viewBox="0 0 1200 630" xmlns="http://www.w3.org/2000/svg"><mask id="satori_om-id"><rect x="0" y="0" width="1200" height="630" fill="#fff"/></mask><defs><pattern id="satori_pattern_id-0_0" x="0" y="0" width="1" height="1" patternUnits="objectBoundingBox"><linearGradient id="satori_biid-0_0" x1="-0.09774620284174435" y1="0.18618324350808482" x2="1.0977462028417444" y2="0.8138167564919152" spreadMethod="pad"><stop offset="0%" stop-color="#f8fafc"/><stop offset="50%" stop-color="#eef2ff"/><stop offset="100%" stop-color="#ffffff"/></linearGradient><rect x="0" y="0" width="1200" height="630" fill="url(#satori_biid-0_0)"/></pattern></defs><clipPath id="satori_cp-id-0"><rect x="0" y="0" width="1200" height="630"/></clipPath><mask id="satori_om-id-0"><rect x="0" y="0" width="1200" height="630" fill="#fff"/></mask><rect x="0" y="0" width="1200" height="630" fill="url(#satori_pattern_id-0_0)"/><mask id="satori_om-id-0-0"><rect x="0" y="0" width="1200" height="509" fill="#fff" mask="url(#satori_om-id-0)"/></mask><mask id="satori_om-id-0-0-0"><rect x="72" y="72" width="1056" height="365" fill="#fff" mask="url(#satori_om-id-0)"/></mask><mask id="satori_om-id-0-0-0-0"><rect x="72" y="113" width="1056" height="38" fill="#fff" mask="url(#satori_om-id-0)"/></mask><path fill="#64748b" d="M77.1 143.2Q76.6 143.7 75.8 143.7Q75.0 143.7 74.5 143.2Q74.1 142.8 74.1 141.9L74.1 141.9L74.1 122.7Q74.1 121.9 74.5 121.4Q75.0 120.9 75.8 120.9L75.8 120.9L86.8 120.9Q87.5 120.9 88.0 121.3Q88.4 121.8 88.4 122.4Q88.4 123.1 88.0 123.5Q87.5 124.0 86.8 124.0L86.8 124.0L77.6 124.0L77.6 131.1L85.9 131.1Q86.6 131.1 87.1 131.5Q87.5 131.9 87.5 132.5Q87.5 133.2 87.1 133.6Q86.6 134.0 85.9 134.0L85.9 134.0L77.6 134.0L77.6 141.9Q77.6 142.8 77.1 143.2ZM92.5 143.8L92.5 143.8Q91.7 143.8 91.3 143.3Q90.8 142.8 90.8 142.0L90.8 142.0L90.8 128.4Q90.8 127.7 91.2 127.2Q91.7 126.7 92.4 126.7L92.4 126.7Q93.1 126.7 93.6 127.2Q94 127.7 94 128.4L94 128.4L94 129.8L94.1 129.8Q94.4 128.5 95.4 127.6Q96.4 126.8 97.7 126.8L97.7 126.8Q98.6 126.8 99.0 127.2L99.0 127.2Q99.5 127.5 99.5 128.4L99.5 128.4Q99.5 129.1 99.0 129.5L99.0 129.5Q98.5 130.0 97.4 130.0L97.4 130.0Q95.8 130 95.0 131.0Q94.2 132.0 94.2 133.6L94.2 133.6L94.2 142.0Q94.2 142.8 93.7 143.3Q93.2 143.8 92.5 143.8ZM104.5 124.0Q103.9 124.5 103.1 124.5Q102.3 124.5 101.7 124.0Q101.1 123.4 101.1 122.6L101.1 122.6Q101.1 121.8 101.7 121.2Q102.3 120.7 103.1 120.7L103.1 120.7Q103.9 120.7 104.5 121.2Q105.1 121.8 105.1 122.6L105.1 122.6Q105.1 123.4 104.5 124.0ZM104.3 143.3Q103.9 143.8 103.1 143.8Q102.3 143.8 101.9 143.3Q101.4 142.8 101.4 142.0L101.4 142.0L101.4 128.5Q101.4 127.7 101.9 127.2Q102.3 126.7 103.1 126.7Q103.9 126.7 104.3 127.2Q104.8 127.7 104.8 128.5L104.8 128.5L104.8 142.0Q104.8 142.8 104.3 143.3ZM114.4 143.8L114.4 143.8Q111.3 143.8 109.4 141.4Q107.5 139.1 107.5 135.3Q107.5 131.4 109.4 129.1Q111.3 126.8 114.4 126.8L114.4 126.8Q116.1 126.8 117.5 127.6Q118.8 128.4 119.5 129.8L119.5 129.8L119.6 129.8L119.6 122.4Q119.6 121.6 120.1 121.1Q120.5 120.6 121.3 120.6L121.3 120.6Q122.0 120.6 122.5 121.1Q123.0 121.6 123.0 122.4L123.0 122.4L123.0 142.1Q123.0 142.9 122.5 143.3Q122.1 143.8 121.3 143.8L121.3 143.8Q120.6 143.8 120.1 143.3Q119.6 142.9 119.6 142.1L119.6 142.1L119.6 140.5L119.5 140.5Q118.9 142.0 117.6 142.9Q116.3 143.8 114.4 143.8ZM115.3 140.9L115.3 140.9Q117.3 140.9 118.4 139.4Q119.6 137.8 119.6 135.3L119.6 135.3Q119.6 132.7 118.4 131.2Q117.3 129.6 115.3 129.6L115.3 129.6Q113.3 129.6 112.1 131.1Q111.0 132.7 111.0 135.3L111.0 135.3Q111.0 137.9 112.1 139.4Q113.3 140.9 115.3 140.9ZM131.3 143.8L131.3 143.8Q128.8 143.8 127.3 142.4Q125.8 141 125.8 138.8L125.8 138.8Q125.8 136.6 127.4 135.4Q129.0 134.1 131.9 133.9L131.9 133.9L136.4 133.7L136.4 132.4Q136.4 131.0 135.5 130.3Q134.6 129.5 133.1 129.5L133.1 129.5Q131.9 129.5 131.0 130.0Q130.2 130.5 129.5 131.6L129.5 131.6Q129.0 132.3 128.1 132.3L128.1 132.3Q127.4 132.3 127.0 131.9Q126.6 131.5 126.6 130.9L126.6 130.9Q126.6 130.3 126.9 129.8L126.9 129.8Q127.6 128.4 129.3 127.6Q131 126.7 133.2 126.7L133.2 126.7Q136.2 126.7 138.0 128.2Q139.8 129.7 139.8 132.1L139.8 132.1L139.8 142.1Q139.8 142.8 139.3 143.3Q138.8 143.8 138.1 143.8L138.1 143.8Q137.4 143.8 137.0 143.3Q136.5 142.9 136.5 142.2L136.5 142.2L136.5 140.8L136.4 140.8Q135.7 142.1 134.3 142.9Q132.9 143.8 131.3 143.8ZM132.2 141.1L132.2 141.1Q134.0 141.1 135.2 140.0Q136.4 138.9 136.4 137.3L136.4 137.3L136.4 136.0L132.3 136.3Q130.8 136.4 130.0 137.0Q129.2 137.6 129.2 138.7L129.2 138.7Q129.2 139.8 130 140.4Q130.8 141.1 132.2 141.1ZM145.0 149.6L145.0 149.6Q143.9 149.6 143.3 149.2Q142.6 148.8 142.6 148.0L142.6 148.0Q142.6 147.4 143.0 147.1Q143.3 146.8 143.9 146.8L143.9 146.8Q144.1 146.8 144.4 146.8Q144.6 146.8 144.8 146.8L144.8 146.8Q146.5 146.8 147.3 144.6L147.3 144.6L147.6 143.6L142.1 129.3Q141.9 128.7 141.9 128.3L141.9 128.3Q141.9 127.6 142.4 127.2Q142.9 126.7 143.7 126.7L143.7 126.7Q144.3 126.7 144.7 127.0Q145.1 127.3 145.3 128.0L145.3 128.0L149.5 140.4L149.5 140.4L153.7 128.0Q153.9 127.3 154.3 127.0Q154.7 126.7 155.3 126.7L155.3 126.7Q156.0 126.7 156.5 127.2Q157.0 127.6 157.0 128.3L157.0 128.3Q157.0 128.7 156.8 129.2L156.8 129.2L151.1 144.3Q150 147.3 148.7 148.4Q147.3 149.6 145.0 149.6ZM161.7 139.7L161.7 139.7Q162.5 139.7 162.9 140.0Q163.3 140.4 163.3 141.1L163.3 141.1Q163.3 141.5 163.2 142.0L163.2 142.0L161.8 147.3Q161.5 148.5 160.4 148.5L160.4 148.5Q159.8 148.5 159.4 148.1Q159.1 147.8 159.1 147.3L159.1 147.3Q159.1 147.1 159.1 146.9L159.1 146.9L160.1 141.1Q160.4 139.7 161.7 139.7Z M177.7 143.8L177.7 143.8Q177.0 143.8 176.5 143.4Q176.1 143.0 176.1 142.3L176.1 142.3Q176.1 141.8 176.4 141.2L176.4 141.2L185.5 124.0L185.5 123.9L175.0 123.9Q174.3 123.9 173.8 123.5Q173.4 123.1 173.4 122.4L173.4 122.4Q173.4 121.7 173.8 121.3Q174.3 120.9 175.0 120.9L175.0 120.9L186.9 120.9Q187.9 120.9 188.5 121.5Q189.1 122 189.1 122.9L189.1 122.9Q189.1 123.7 188.4 125.1L188.4 125.1L179.3 142.8Q179 143.3 178.6 143.5Q178.3 143.8 177.7 143.8Z M201.8 143.2Q201.3 143.7 200.5 143.7Q199.7 143.7 199.3 143.2Q198.8 142.8 198.8 141.9L198.8 141.9L198.8 122.6Q198.8 121.7 199.3 121.2Q199.8 120.7 200.7 120.7L200.7 120.7Q201.3 120.7 201.7 120.9Q202.1 121.2 202.6 121.8L202.6 121.8L213.7 137.5L213.8 137.5L213.8 122.5Q213.8 121.6 214.2 121.1Q214.7 120.7 215.5 120.7L215.5 120.7Q216.3 120.7 216.7 121.1Q217.2 121.6 217.2 122.5L217.2 122.5L217.2 141.9Q217.2 142.8 216.7 143.2Q216.2 143.7 215.3 143.7L215.3 143.7Q214.7 143.7 214.3 143.5Q213.9 143.3 213.5 142.6L213.5 142.6L202.3 126.9L202.2 126.9L202.2 141.9Q202.2 142.8 201.8 143.2ZM233.7 141.5Q231.5 143.8 228 143.8Q224.5 143.8 222.3 141.5Q220.2 139.2 220.2 135.3L220.2 135.3Q220.2 131.3 222.3 129.0Q224.5 126.7 228 126.7Q231.5 126.7 233.7 129.0Q235.8 131.3 235.8 135.3L235.8 135.3Q235.8 139.2 233.7 141.5ZM228 141L228 141Q230.0 141 231.2 139.5Q232.4 138.0 232.4 135.3L232.4 135.3Q232.4 132.5 231.2 131.0Q230 129.5 228 129.5Q226 129.5 224.8 131.0Q223.6 132.5 223.6 135.3L223.6 135.3Q223.6 138.0 224.8 139.5Q226 141 228 141ZM244.7 143.8L244.7 143.8Q243.8 143.8 243.3 143.4Q242.8 143.0 242.4 142.0L242.4 142.0L237.5 129.2Q237.3 128.7 237.3 128.3L237.3 128.3Q237.3 127.6 237.8 127.2Q238.3 126.7 239.0 126.7L239.0 126.7Q240.2 126.7 240.6 128.1L240.6 128.1L244.7 140.2L244.8 140.2L248.9 128.0Q249.3 126.7 250.4 126.7L250.4 126.7Q251.2 126.7 251.6 127.2Q252.1 127.6 252.1 128.3L252.1 128.3Q252.1 128.7 251.9 129.2L251.9 129.2L247.0 142.0Q246.7 142.9 246.2 143.4Q245.6 143.8 244.7 143.8ZM261.5 143.8L261.5 143.8Q257.8 143.8 255.7 141.5Q253.6 139.3 253.6 135.3L253.6 135.3Q253.6 131.4 255.7 129.1Q257.8 126.7 261.3 126.7L261.3 126.7Q264.5 126.7 266.6 128.9Q268.7 131 268.7 134.4L268.7 134.4Q268.7 135.2 268.2 135.6Q267.8 136.1 267.0 136.1L267.0 136.1L257.0 136.1L257.0 136.2Q257.0 138.4 258.2 139.7Q259.4 141.0 261.4 141.0L261.4 141.0Q262.8 141.0 263.8 140.5Q264.7 140.0 265.7 138.7L265.7 138.7Q266.2 138.1 266.9 138.1L266.9 138.1Q267.5 138.1 267.9 138.5Q268.3 138.9 268.3 139.5L268.3 139.5Q268.3 139.8 268.0 140.4L268.0 140.4Q267.2 142 265.5 142.9Q263.8 143.8 261.5 143.8ZM257.1 133.7L257.1 133.7L265.3 133.7Q265.2 131.8 264.1 130.6Q263.0 129.5 261.3 129.5L261.3 129.5Q259.5 129.5 258.3 130.6Q257.2 131.8 257.1 133.7ZM274.2 143.3Q273.7 143.8 273.0 143.8Q272.2 143.8 271.7 143.3Q271.3 142.8 271.3 142.0L271.3 142.0L271.3 128.5Q271.3 127.7 271.7 127.2Q272.2 126.7 272.9 126.7Q273.6 126.7 274.0 127.2Q274.5 127.7 274.5 128.5L274.5 128.5L274.5 129.8L274.6 129.8Q275.1 128.4 276.4 127.6Q277.6 126.8 279.2 126.8L279.2 126.8Q280.9 126.8 282.1 127.6Q283.3 128.4 283.8 130.0L283.8 130.0L283.9 130.0Q284.5 128.5 285.9 127.6Q287.3 126.8 289.0 126.8L289.0 126.8Q291.5 126.8 292.9 128.2Q294.4 129.7 294.4 132.2L294.4 132.2L294.4 142.0Q294.4 142.8 293.9 143.3Q293.5 143.8 292.7 143.8Q291.9 143.8 291.5 143.3Q291.0 142.8 291.0 142.0L291.0 142.0L291.0 133.0Q291.0 131.4 290.2 130.5Q289.4 129.6 287.9 129.6Q286.4 129.6 285.4 130.6Q284.5 131.6 284.5 133.2L284.5 133.2L284.5 142.0Q284.5 142.8 284.0 143.3Q283.6 143.8 282.8 143.8Q282.1 143.8 281.6 143.3Q281.2 142.8 281.2 142.0L281.2 142.0L281.2 132.7Q281.2 131.3 280.3 130.5Q279.5 129.6 278.1 129.6L278.1 129.6Q276.6 129.6 275.6 130.7Q274.6 131.7 274.6 133.3L274.6 133.3L274.6 142.0Q274.6 142.8 274.2 143.3ZM299.4 143.8L299.4 143.8Q298.7 143.8 298.2 143.3Q297.8 142.9 297.8 142.1L297.8 142.1L297.8 122.4Q297.8 121.6 298.3 121.1Q298.7 120.6 299.5 120.6Q300.2 120.6 300.7 121.1Q301.2 121.6 301.2 122.4L301.2 122.4L301.2 129.8L301.2 129.8Q302.0 128.4 303.3 127.6Q304.7 126.8 306.4 126.8L306.4 126.8Q309.5 126.8 311.4 129.1Q313.3 131.4 313.3 135.3L313.3 135.3Q313.3 139.2 311.4 141.5Q309.5 143.8 306.4 143.8L306.4 143.8Q304.6 143.8 303.3 142.9Q301.9 142.1 301.1 140.7L301.1 140.7L301.1 140.7L301.1 142.1Q301.1 142.9 300.6 143.3Q300.1 143.8 299.4 143.8ZM305.5 140.9L305.5 140.9Q307.5 140.9 308.7 139.4Q309.8 137.9 309.8 135.3L309.8 135.3Q309.8 132.7 308.6 131.1Q307.5 129.6 305.5 129.6L305.5 129.6Q303.6 129.6 302.4 131.2Q301.1 132.7 301.1 135.3L301.1 135.3Q301.1 137.8 302.4 139.3Q303.6 140.9 305.5 140.9ZM323.0 143.8L323.0 143.8Q319.3 143.8 317.2 141.5Q315.2 139.3 315.2 135.3L315.2 135.3Q315.2 131.4 317.2 129.1Q319.3 126.7 322.8 126.7L322.8 126.7Q326.1 126.7 328.1 128.9Q330.2 131 330.2 134.4L330.2 134.4Q330.2 135.2 329.7 135.6Q329.3 136.1 328.5 136.1L328.5 136.1L318.6 136.1L318.6 136.2Q318.6 138.4 319.7 139.7Q320.9 141.0 322.9 141.0L322.9 141.0Q324.3 141.0 325.3 140.5Q326.3 140.0 327.2 138.7L327.2 138.7Q327.7 138.1 328.4 138.1L328.4 138.1Q329 138.1 329.4 138.5Q329.8 138.9 329.8 139.5L329.8 139.5Q329.8 139.8 329.5 140.4L329.5 140.4Q328.7 142 327.0 142.9Q325.3 143.8 323.0 143.8ZM318.6 133.7L318.6 133.7L326.8 133.7Q326.7 131.8 325.6 130.6Q324.5 129.5 322.8 129.5L322.8 129.5Q321.0 129.5 319.9 130.6Q318.7 131.8 318.6 133.7ZM334.5 143.8L334.5 143.8Q333.7 143.8 333.2 143.3Q332.8 142.8 332.8 142.0L332.8 142.0L332.8 128.4Q332.8 127.7 333.2 127.2Q333.7 126.7 334.4 126.7L334.4 126.7Q335.1 126.7 335.5 127.2Q336.0 127.7 336.0 128.4L336.0 128.4L336.0 129.8L336.1 129.8Q336.4 128.5 337.4 127.6Q338.4 126.8 339.7 126.8L339.7 126.8Q340.6 126.8 341 127.2L341 127.2Q341.5 127.5 341.5 128.4L341.5 128.4Q341.5 129.1 341.0 129.5L341.0 129.5Q340.5 130.0 339.4 130.0L339.4 130.0Q337.8 130 337.0 131.0Q336.2 132.0 336.2 133.6L336.2 133.6L336.2 142.0Q336.2 142.8 335.7 143.3Q335.2 143.8 334.5 143.8Z M363.9 143.5L351.4 143.5Q350.7 143.5 350.2 143.1Q349.8 142.7 349.8 142L349.8 142Q349.8 141.5 350.0 141.1Q350.2 140.8 350.8 140.2L350.8 140.2L357.8 133.0Q360 130.8 360.7 129.6Q361.5 128.4 361.5 127.1L361.5 127.1Q361.5 125.5 360.3 124.4Q359.2 123.4 357.5 123.4L357.5 123.4Q354.2 123.4 353 126.7L353 126.7Q352.8 127.3 352.4 127.6Q352.0 127.9 351.4 127.9L351.4 127.9Q350.7 127.9 350.3 127.5Q349.9 127.0 349.9 126.4L349.9 126.4Q349.9 126 350.0 125.6L350.0 125.6Q350.2 124.7 350.7 123.8Q351.3 122.9 352.3 122.2Q353.2 121.4 354.6 121.0Q355.9 120.5 357.5 120.5L357.5 120.5Q360.8 120.5 362.8 122.3Q364.9 124.1 364.9 126.9L364.9 126.9Q364.9 128.8 363.9 130.5Q362.8 132.1 359.9 135.0L359.9 135.0L354.5 140.4L354.5 140.5L363.9 140.5Q364.6 140.5 365.0 140.9Q365.4 141.3 365.4 142L365.4 142Q365.4 142.7 365.0 143.1Q364.6 143.5 363.9 143.5L363.9 143.5ZM383.0 140.7Q380.7 143.9 376.6 143.9Q372.6 143.9 370.3 140.7Q368.0 137.6 368.0 132.2L368.0 132.2Q368.0 126.8 370.3 123.6Q372.6 120.5 376.6 120.5L376.6 120.5Q380.6 120.5 382.9 123.6Q385.2 126.8 385.2 132.2L385.2 132.2Q385.2 137.6 383.0 140.7ZM376.6 141.0L376.6 141.0Q379.0 141.0 380.4 138.6Q381.7 136.3 381.7 132.2L381.7 132.2Q381.7 128.1 380.4 125.8Q379.0 123.4 376.6 123.4Q374.2 123.4 372.9 125.8Q371.5 128.1 371.5 132.2L371.5 132.2Q371.5 136.3 372.9 138.6Q374.2 141.0 376.6 141.0ZM402.4 143.5L389.9 143.5Q389.2 143.5 388.7 143.1Q388.3 142.7 388.3 142L388.3 142Q388.3 141.5 388.5 141.1Q388.7 140.8 389.3 140.2L389.3 140.2L396.3 133.0Q398.5 130.8 399.2 129.6Q400.0 128.4 400.0 127.1L400.0 127.1Q400.0 125.5 398.8 124.4Q397.7 123.4 396.0 123.4L396.0 123.4Q392.7 123.4 391.5 126.7L391.5 126.7Q391.3 127.3 390.9 127.6Q390.5 127.9 389.9 127.9L389.9 127.9Q389.2 127.9 388.8 127.5Q388.4 127.0 388.4 126.4L388.4 126.4Q388.4 126 388.5 125.6L388.5 125.6Q388.7 124.7 389.2 123.8Q389.8 122.9 390.8 122.2Q391.7 121.4 393.1 121.0Q394.4 120.5 396.0 120.5L396.0 120.5Q399.3 120.5 401.3 122.3Q403.4 124.1 403.4 126.9L403.4 126.9Q403.4 128.8 402.4 130.5Q401.3 132.1 398.4 135.0L398.4 135.0L393.0 140.4L393.0 140.5L402.4 140.5Q403.1 140.5 403.5 140.9Q403.9 141.3 403.9 142L403.9 142Q403.9 142.7 403.5 143.1Q403.1 143.5 402.4 143.5L402.4 143.5ZM414.9 143.9L414.9 143.9Q412.4 143.9 410.4 142.8Q408.4 141.6 407.6 139.8L407.6 139.8Q407.2 139.0 407.2 138.2L407.2 138.2Q407.2 137.5 407.6 137.1Q408.0 136.7 408.8 136.7L408.8 136.7Q409.3 136.7 409.7 137.0Q410.1 137.2 410.3 137.8L410.3 137.8Q410.9 139.3 412.1 140.1Q413.3 141.0 415.0 141.0L415.0 141.0Q417.1 141.0 418.5 139.6Q419.8 138.3 419.8 136.1L419.8 136.1Q419.8 134.0 418.4 132.7Q417.1 131.4 415.0 131.4L415.0 131.4Q412.7 131.4 411.3 132.9L411.3 132.9Q410.6 133.6 410.2 133.9Q409.8 134.1 409.2 134.1L409.2 134.1Q408.4 134.1 407.9 133.6Q407.5 133.0 407.5 132.3L407.5 132.3L407.5 132.0L408.3 123.3Q408.4 122.0 409.0 121.5Q409.7 120.9 411.0 120.9L411.0 120.9L420.5 120.9Q421.3 120.9 421.7 121.3Q422.1 121.7 422.1 122.4Q422.1 123.1 421.7 123.5Q421.3 123.9 420.5 123.9L420.5 123.9L411.3 123.9L410.7 130.9L410.7 130.9Q411.5 129.8 412.8 129.2Q414.1 128.6 415.8 128.6L415.8 128.6Q419.1 128.6 421.1 130.7Q423.2 132.8 423.2 136.0L423.2 136.0Q423.2 139.5 420.9 141.7Q418.6 143.9 414.9 143.9Z " clip-path="url(#satori_cp-id-0)" mask="url(#satori_om-id-0)"/><mask id="satori_om-id-0-0-0-1"><rect x="72" y="175" width="1056" height="221" fill="#fff" mask="url(#satori_om-id-0)"/></mask><path fill="#0f172a" d="M101.2 234.6L80.5 234.6Q78.3 234.6 77 233.3Q75.8 232.0 75.8 229.6L75.8 229.6L75.8 193.8Q75.8 191.4 77 190.1Q78.3 188.8 80.5 188.8Q82.7 188.8 83.9 190.1Q85.2 191.4 85.2 193.8L85.2 193.8L85.2 226.7L101.2 226.7Q103.1 226.7 104.3 227.8Q105.5 228.8 105.5 230.6Q105.5 232.5 104.3 233.5Q103.2 234.6 101.2 234.6L101.2 234.6ZM119.6 235.1L119.6 235.1Q114.8 235.1 111.6 232.2Q108.4 229.4 108.4 224.9L108.4 224.9Q108.4 220.4 111.8 217.8Q115.2 215.2 121.5 214.8L121.5 214.8L129.9 214.3L129.9 212.1Q129.9 209.8 128.4 208.5Q126.9 207.1 124.3 207.1L124.3 207.1Q122.2 207.1 120.8 207.9Q119.3 208.7 117.8 210.7L117.8 210.7Q116.3 212.4 114.2 212.4L114.2 212.4Q112.5 212.4 111.4 211.4Q110.3 210.4 110.3 208.9L110.3 208.9Q110.3 207.8 110.8 206.8L110.8 206.8Q112.0 203.8 115.7 202.1Q119.5 200.3 124.7 200.3L124.7 200.3Q131.1 200.3 135 203.4Q138.9 206.5 138.9 211.5L138.9 211.5L138.9 230.6Q138.9 232.8 137.7 234.0Q136.4 235.2 134.4 235.2L134.4 235.2Q132.5 235.2 131.4 234.2Q130.2 233.1 130.1 231.1L130.1 231.1L130.1 229.4L129.9 229.4Q128.5 232.1 125.7 233.6Q122.8 235.1 119.6 235.1ZM122.6 228.5L122.6 228.5Q125.7 228.5 127.8 226.7Q129.9 225.0 129.9 222.3L129.9 222.3L129.9 219.8L122.8 220.3Q120.3 220.5 118.9 221.6Q117.5 222.6 117.5 224.4L117.5 224.4Q117.5 226.3 118.9 227.4Q120.3 228.5 122.6 228.5ZM152.6 234.0Q151.4 235.2 149.3 235.2Q147.3 235.2 146 234.0Q144.8 232.7 144.8 230.5L144.8 230.5L144.8 205.0Q144.8 202.8 145.9 201.6Q147.1 200.4 149.2 200.4Q151.2 200.4 152.5 201.6Q153.7 202.9 153.7 205.0L153.7 205.0L153.7 206.9L153.9 206.9Q156.7 200.4 164.2 200.4L164.2 200.4Q169.8 200.4 172.8 203.7Q175.8 207.1 175.8 213.0L175.8 213.0L175.8 230.5Q175.8 232.7 174.6 234.0Q173.3 235.2 171.3 235.2Q169.2 235.2 168.0 234.0Q166.7 232.7 166.7 230.5L166.7 230.5L166.7 214.9Q166.7 211.6 165.2 209.8Q163.6 208.0 160.6 208.0Q157.5 208.0 155.7 210.0Q153.9 212.1 153.9 215.3L153.9 215.3L153.9 230.5Q153.9 232.7 152.6 234.0ZM196.6 247.1L196.6 247.1Q191.6 247.1 187.9 245.4Q184.2 243.7 182.5 241.0L182.5 241.0Q181.8 239.8 181.8 238.5L181.8 238.5Q181.8 237.0 182.8 236.1Q183.8 235.1 185.5 235.1L185.5 235.1Q187.3 235.1 188.7 236.4L188.7 236.4Q192.5 240.1 196.6 240.1L196.6 240.1Q200.3 240.1 202.4 238.2Q204.5 236.4 204.5 233.2L204.5 233.2L204.5 227.8L204.3 227.8Q203.1 230.6 200.4 232.2Q197.6 233.8 194 233.8L194 233.8Q187.8 233.8 184.1 229.4Q180.4 224.9 180.4 217.2L180.4 217.2Q180.4 209.4 184.0 204.9Q187.7 200.5 194.2 200.5L194.2 200.5Q197.7 200.5 200.4 202.2Q203.0 203.9 204.4 206.8L204.4 206.8L204.6 206.8L204.6 205.0Q204.6 202.7 205.8 201.6Q207.1 200.4 209.2 200.4L209.2 200.4Q211.2 200.4 212.4 201.6Q213.7 202.7 213.7 205.0L213.7 205.0L213.7 233.2Q213.7 239.8 209.2 243.5Q204.7 247.2 196.6 247.1ZM197.1 227.1L197.1 227.1Q200.5 227.1 202.6 224.5Q204.6 221.9 204.6 217.4Q204.6 212.8 202.6 210.1Q200.5 207.5 197.1 207.5L197.1 207.5Q193.7 207.5 191.7 210.1Q189.8 212.8 189.8 217.3L189.8 217.3Q189.8 221.9 191.7 224.5Q193.7 227.1 197.1 227.1ZM231.5 235.2L231.5 235.2Q226 235.2 222.7 231.8Q219.4 228.5 219.4 222.6L219.4 222.6L219.4 205.1Q219.4 202.9 220.7 201.6Q221.9 200.4 224 200.4Q226.1 200.4 227.3 201.6Q228.6 202.9 228.6 205.1L228.6 205.1L228.6 220.7Q228.6 224.1 230.2 225.8Q231.8 227.6 234.8 227.6Q237.8 227.6 239.6 225.6Q241.4 223.6 241.4 220.2L241.4 220.2L241.4 205.1Q241.4 202.9 242.7 201.6Q243.9 200.4 246.0 200.4Q248.0 200.4 249.3 201.6Q250.5 202.9 250.5 205.1L250.5 205.1L250.5 230.6Q250.5 232.8 249.3 234.0Q248.2 235.2 246.1 235.2Q244.1 235.2 242.9 234.0Q241.7 232.8 241.7 230.6L241.7 230.6L241.7 228.5L241.5 228.5Q238.9 235.2 231.5 235.2ZM266.4 235.1L266.4 235.1Q261.5 235.1 258.3 232.2Q255.2 229.4 255.2 224.9L255.2 224.9Q255.2 220.4 258.5 217.8Q261.9 215.2 268.2 214.8L268.2 214.8L276.7 214.3L276.7 212.1Q276.7 209.8 275.1 208.5Q273.6 207.1 271.0 207.1L271.0 207.1Q268.9 207.1 267.5 207.9Q266.1 208.7 264.5 210.7L264.5 210.7Q263.0 212.4 260.9 212.4L260.9 212.4Q259.3 212.4 258.2 211.4Q257.1 210.4 257.1 208.9L257.1 208.9Q257.1 207.8 257.6 206.8L257.6 206.8Q258.7 203.8 262.5 202.1Q266.2 200.3 271.4 200.3L271.4 200.3Q277.9 200.3 281.8 203.4Q285.6 206.5 285.6 211.5L285.6 211.5L285.6 230.6Q285.6 232.8 284.4 234.0Q283.2 235.2 281.2 235.2L281.2 235.2Q279.3 235.2 278.1 234.2Q276.9 233.1 276.8 231.1L276.8 231.1L276.8 229.4L276.6 229.4Q275.3 232.1 272.4 233.6Q269.6 235.1 266.4 235.1ZM269.4 228.5L269.4 228.5Q272.4 228.5 274.5 226.7Q276.7 225.0 276.7 222.3L276.7 222.3L276.7 219.8L269.6 220.3Q267.0 220.5 265.6 221.6Q264.3 222.6 264.3 224.4L264.3 224.4Q264.3 226.3 265.7 227.4Q267.1 228.5 269.4 228.5ZM306.5 247.1L306.5 247.1Q301.5 247.1 297.8 245.4Q294.1 243.7 292.4 241.0L292.4 241.0Q291.7 239.8 291.7 238.5L291.7 238.5Q291.7 237.0 292.7 236.1Q293.7 235.1 295.4 235.1L295.4 235.1Q297.1 235.1 298.6 236.4L298.6 236.4Q302.4 240.1 306.4 240.1L306.4 240.1Q310.2 240.1 312.3 238.2Q314.4 236.4 314.4 233.2L314.4 233.2L314.4 227.8L314.2 227.8Q313 230.6 310.2 232.2Q307.5 233.8 303.9 233.8L303.9 233.8Q297.6 233.8 294.0 229.4Q290.3 224.9 290.3 217.2L290.3 217.2Q290.3 209.4 293.9 204.9Q297.6 200.5 304.0 200.5L304.0 200.5Q307.6 200.5 310.2 202.2Q312.9 203.9 314.3 206.8L314.3 206.8L314.4 206.8L314.4 205.0Q314.4 202.7 315.7 201.6Q317.0 200.4 319.0 200.4L319.0 200.4Q321.1 200.4 322.3 201.6Q323.6 202.7 323.6 205.0L323.6 205.0L323.6 233.2Q323.6 239.8 319.0 243.5Q314.5 247.2 306.5 247.1ZM307.0 227.1L307.0 227.1Q310.4 227.1 312.4 224.5Q314.5 221.9 314.5 217.4Q314.5 212.8 312.4 210.1Q310.4 207.5 307.0 207.5L307.0 207.5Q303.6 207.5 301.6 210.1Q299.6 212.8 299.6 217.3L299.6 217.3Q299.6 221.9 301.6 224.5Q303.6 227.1 307.0 227.1ZM344.9 235.3L344.9 235.3Q337.0 235.3 332.6 230.7Q328.3 226.1 328.3 218.0L328.3 218.0Q328.3 209.9 332.6 205.1Q337 200.3 344.4 200.3L344.4 200.3Q351.5 200.3 355.9 204.7Q360.3 209.1 360.3 215.9L360.3 215.9Q360.3 217.8 359.3 218.9Q358.3 219.9 356.3 219.9L356.3 219.9L337.2 219.9L337.2 220.3Q337.2 224.0 339.3 226.3Q341.4 228.5 344.8 228.5L344.8 228.5Q347.3 228.5 349.2 227.6Q351 226.7 352.8 224.5L352.8 224.5Q354.2 223.1 355.8 223.1L355.8 223.1Q357.3 223.1 358.4 224.1Q359.4 225.0 359.4 226.5L359.4 226.5Q359.4 227.6 358.8 228.7L358.8 228.7Q357.1 231.8 353.4 233.5Q349.7 235.3 344.9 235.3ZM337.3 214.3L337.3 214.3L351.5 214.3Q351.4 211.0 349.5 209.1Q347.5 207.1 344.5 207.1Q341.5 207.1 339.5 209.1Q337.6 211.1 337.3 214.3Z M387.6 235.1L387.6 235.1Q382.7 235.1 379.5 232.2Q376.3 229.4 376.3 224.9L376.3 224.9Q376.3 220.4 379.7 217.8Q383.1 215.2 389.4 214.8L389.4 214.8L397.8 214.3L397.8 212.1Q397.8 209.8 396.3 208.5Q394.8 207.1 392.2 207.1L392.2 207.1Q390.1 207.1 388.7 207.9Q387.3 208.7 385.7 210.7L385.7 210.7Q384.2 212.4 382.1 212.4L382.1 212.4Q380.4 212.4 379.4 211.4Q378.3 210.4 378.3 208.9L378.3 208.9Q378.3 207.8 378.8 206.8L378.8 206.8Q379.9 203.8 383.7 202.1Q387.4 200.3 392.6 200.3L392.6 200.3Q399.1 200.3 402.9 203.4Q406.8 206.5 406.8 211.5L406.8 211.5L406.8 230.6Q406.8 232.8 405.6 234.0Q404.4 235.2 402.4 235.2L402.4 235.2Q400.5 235.2 399.3 234.2Q398.1 233.1 398 231.1L398 231.1L398 229.4L397.8 229.4Q396.4 232.1 393.6 233.6Q390.8 235.1 387.6 235.1ZM390.6 228.5L390.6 228.5Q393.6 228.5 395.7 226.7Q397.8 225.0 397.8 222.3L397.8 222.3L397.8 219.8L390.8 220.3Q388.2 220.5 386.8 221.6Q385.4 222.6 385.4 224.4L385.4 224.4Q385.4 226.3 386.8 227.4Q388.3 228.5 390.6 228.5ZM420.6 234.0Q419.3 235.2 417.3 235.2Q415.2 235.2 413.9 234.0Q412.7 232.7 412.7 230.5L412.7 230.5L412.7 205.0Q412.7 202.8 413.9 201.6Q415.0 200.4 417.1 200.4Q419.2 200.4 420.4 201.6Q421.7 202.9 421.7 205.0L421.7 205.0L421.7 206.9L421.8 206.9Q424.6 200.4 432.2 200.4L432.2 200.4Q437.7 200.4 440.8 203.7Q443.8 207.1 443.8 213.0L443.8 213.0L443.8 230.5Q443.8 232.7 442.5 234.0Q441.3 235.2 439.2 235.2Q437.2 235.2 435.9 234.0Q434.7 232.7 434.7 230.5L434.7 230.5L434.7 214.9Q434.7 211.6 433.1 209.8Q431.5 208.0 428.5 208.0Q425.5 208.0 423.6 210.0Q421.8 212.1 421.8 215.3L421.8 215.3L421.8 230.5Q421.8 232.7 420.6 234.0ZM462 235.1L462 235.1Q455.7 235.1 452.0 230.4Q448.3 225.8 448.3 217.7L448.3 217.7Q448.3 209.8 452.0 205.1Q455.8 200.5 462.1 200.5L462.1 200.5Q465.6 200.5 468.3 202.2Q471.0 204.0 472.3 206.8L472.3 206.8L472.5 206.8L472.5 193.6Q472.5 191.3 473.7 190.0Q475.0 188.8 477.0 188.8Q479.1 188.8 480.3 190.0Q481.6 191.3 481.6 193.6L481.6 193.6L481.6 230.6Q481.6 232.8 480.4 234.0Q479.1 235.2 477.1 235.2L477.1 235.2Q475.0 235.2 473.8 234.0Q472.5 232.8 472.5 230.6L472.5 230.6L472.5 228.6L472.3 228.6Q471.2 231.6 468.5 233.3Q465.8 235.1 462 235.1ZM465.1 227.7L465.1 227.7Q468.5 227.7 470.5 225.1Q472.5 222.4 472.5 217.8L472.5 217.8Q472.5 213.2 470.5 210.5Q468.5 207.8 465.1 207.8L465.1 207.8Q461.7 207.8 459.7 210.5Q457.7 213.2 457.7 217.8L457.7 217.8Q457.7 222.4 459.7 225.1Q461.7 227.7 465.1 227.7Z M521.4 235.3L521.4 235.3Q511.3 235.3 505.5 229.1Q499.7 222.8 499.7 211.9L499.7 211.9Q499.7 201.1 505.5 194.9Q511.3 188.7 521.2 188.7L521.2 188.7Q527.6 188.7 532.4 191.3Q537.3 194.0 539.2 198.3L539.2 198.3Q539.9 199.7 539.9 201.2L539.9 201.2Q539.9 203.0 538.7 204.1Q537.6 205.2 535.8 205.2L535.8 205.2Q532.8 205.2 531.2 202.5L531.2 202.5Q527.9 196.5 521.3 196.5L521.3 196.5Q515.7 196.5 512.5 200.5Q509.3 204.6 509.3 211.7L509.3 211.7Q509.3 219.1 512.6 223.3Q515.9 227.5 521.6 227.5L521.6 227.5Q526.2 227.5 529.1 224.9Q532.1 222.3 532.2 218.1L532.2 218.1L532.3 217.4L525.7 217.4Q524.0 217.4 522.9 216.5Q521.9 215.6 521.9 214.0Q521.9 212.4 522.9 211.4Q524.0 210.5 525.7 210.5L525.7 210.5L536.7 210.5Q538.9 210.5 540.2 211.8Q541.4 213.1 541.4 215.4L541.4 215.4L541.4 216.1Q541.4 224.9 536.1 230.1Q530.8 235.3 521.4 235.3ZM562.3 235.3L562.3 235.3Q554.4 235.3 550.0 230.7Q545.7 226.1 545.7 218.0L545.7 218.0Q545.7 209.9 550.0 205.1Q554.4 200.3 561.8 200.3L561.8 200.3Q568.9 200.3 573.3 204.7Q577.7 209.1 577.7 215.9L577.7 215.9Q577.7 217.8 576.7 218.9Q575.7 219.9 573.8 219.9L573.8 219.9L554.6 219.9L554.6 220.3Q554.6 224.0 556.7 226.3Q558.8 228.5 562.3 228.5L562.3 228.5Q564.8 228.5 566.6 227.6Q568.4 226.7 570.3 224.5L570.3 224.5Q571.6 223.1 573.2 223.1L573.2 223.1Q574.8 223.1 575.8 224.1Q576.8 225.0 576.8 226.5L576.8 226.5Q576.8 227.6 576.2 228.7L576.2 228.7Q574.5 231.8 570.8 233.5Q567.1 235.3 562.3 235.3ZM554.7 214.3L554.7 214.3L568.9 214.3Q568.8 211.0 566.9 209.1Q564.9 207.1 561.9 207.1Q558.9 207.1 557.0 209.1Q555.0 211.1 554.7 214.3ZM596.1 235.3L596.1 235.3Q590.4 235.3 586.7 233.4Q582.9 231.6 581.7 228.6L581.7 228.6Q581.3 227.6 581.3 226.9L581.3 226.9Q581.3 225.3 582.4 224.4Q583.4 223.4 585 223.4L585 223.4Q587.1 223.4 589.0 225.5L589.0 225.5Q590.3 227.2 592.0 228.1Q593.7 228.9 596.3 228.9L596.3 228.9Q598.8 228.9 600.3 227.9Q601.8 226.9 601.8 225.3L601.8 225.3Q601.8 223.9 600.8 223.1Q599.8 222.3 597.3 221.8L597.3 221.8L591.7 220.6Q586.8 219.5 584.3 217.1Q581.8 214.6 581.8 210.9L581.8 210.9Q581.8 206.1 585.7 203.2Q589.5 200.3 596.0 200.3L596.0 200.3Q601.1 200.3 604.7 202.3Q608.3 204.3 609.2 207.3L609.2 207.3Q609.4 208.1 609.4 208.6L609.4 208.6Q609.4 210.1 608.5 210.9Q607.6 211.7 605.9 211.7L605.9 211.7Q603.8 211.7 602.6 210.3L602.6 210.3Q601.2 208.6 599.7 207.7Q598.2 206.7 595.9 206.7L595.9 206.7Q593.6 206.7 592.1 207.7Q590.6 208.7 590.6 210.4L590.6 210.4Q590.6 211.7 591.7 212.6Q592.8 213.5 595.3 214.0L595.3 214.0L600.8 215.2Q606.2 216.3 608.5 218.4Q610.9 220.6 610.9 224.3L610.9 224.3Q610.9 229.3 606.8 232.3Q602.7 235.3 596.1 235.3ZM617.8 226.0L617.8 226.0L617.8 207.9L616.1 207.9Q614.4 207.9 613.5 207.0Q612.5 206.1 612.5 204.5Q612.5 202.9 613.5 202.0Q614.4 201.1 616.1 201.1L616.1 201.1L617.8 201.1L617.8 197.3Q617.8 195.1 619.0 193.8Q620.3 192.6 622.4 192.6Q624.5 192.6 625.7 193.8Q626.9 195.1 626.9 197.3L626.9 197.3L626.9 201.1L630.2 201.1Q631.8 201.1 632.7 202.0Q633.7 202.9 633.7 204.5Q633.7 206.1 632.7 207.0Q631.8 207.9 630.2 207.9L630.2 207.9L626.9 207.9L626.9 224.0Q626.9 225.7 627.6 226.6Q628.3 227.4 629.7 227.5L629.7 227.5L630.3 227.6Q632.1 227.7 632.9 228.5Q633.8 229.3 633.8 230.9L633.8 230.9Q633.8 232.8 632.0 233.9Q630.3 234.9 627.3 234.9L627.3 234.9L627 234.9Q617.8 234.9 617.8 226.0ZM650.0 235.2L650.0 235.2Q644.5 235.2 641.3 231.8Q638.0 228.5 638.0 222.6L638.0 222.6L638.0 205.1Q638.0 202.9 639.2 201.6Q640.5 200.4 642.5 200.4Q644.6 200.4 645.8 201.6Q647.1 202.9 647.1 205.1L647.1 205.1L647.1 220.7Q647.1 224.1 648.7 225.8Q650.3 227.6 653.3 227.6Q656.4 227.6 658.2 225.6Q659.9 223.6 659.9 220.2L659.9 220.2L659.9 205.1Q659.9 202.9 661.2 201.6Q662.4 200.4 664.5 200.4Q666.6 200.4 667.8 201.6Q669.1 202.9 669.1 205.1L669.1 205.1L669.1 230.6Q669.1 232.8 667.9 234.0Q666.7 235.2 664.7 235.2Q662.6 235.2 661.4 234.0Q660.3 232.8 660.3 230.6L660.3 230.6L660.3 228.5L660.1 228.5Q657.4 235.2 650.0 235.2ZM679.6 235.2L679.6 235.2Q677.5 235.2 676.2 234.0Q675 232.7 675 230.5L675 230.5L675 205.0Q675 202.8 676.2 201.6Q677.4 200.4 679.4 200.4L679.4 200.4Q681.3 200.4 682.5 201.6Q683.7 202.8 683.7 205.0L683.7 205.0L683.7 207.1L683.9 207.1Q684.6 204.1 686.5 202.3Q688.3 200.5 690.9 200.5L690.9 200.5Q692.7 200.5 693.7 201.4L693.7 201.4Q695.0 202.4 695.0 204.7L695.0 204.7Q695.0 206.9 693.7 208.0L693.7 208.0Q692.4 209.2 689.8 209.2L689.8 209.2Q686.8 209.2 685.4 210.8Q684.1 212.5 684.1 215.6L684.1 215.6L684.1 230.5Q684.1 232.7 682.9 234.0Q681.7 235.2 679.6 235.2ZM713.7 235.3L713.7 235.3Q705.8 235.3 701.5 230.7Q697.1 226.1 697.1 218.0L697.1 218.0Q697.1 209.9 701.4 205.1Q705.8 200.3 713.3 200.3L713.3 200.3Q720.3 200.3 724.7 204.7Q729.1 209.1 729.1 215.9L729.1 215.9Q729.1 217.8 728.1 218.9Q727.1 219.9 725.2 219.9L725.2 219.9L706.0 219.9L706.0 220.3Q706.0 224.0 708.1 226.3Q710.2 228.5 713.7 228.5L713.7 228.5Q716.2 228.5 718.0 227.6Q719.8 226.7 721.7 224.5L721.7 224.5Q723.0 223.1 724.6 223.1L724.6 223.1Q726.2 223.1 727.2 224.1Q728.2 225.0 728.2 226.5L728.2 226.5Q728.2 227.6 727.6 228.7L727.6 228.7Q725.9 231.8 722.2 233.5Q718.5 235.3 713.7 235.3ZM706.1 214.3L706.1 214.3L720.3 214.3Q720.2 211.0 718.3 209.1Q716.3 207.1 713.3 207.1Q710.3 207.1 708.4 209.1Q706.4 211.1 706.1 214.3Z M754.7 195.5Q753.3 196.9 751.2 196.9Q749.1 196.9 747.7 195.5Q746.3 194.1 746.3 192.2L746.3 192.2Q746.3 190.2 747.7 188.8Q749.1 187.5 751.2 187.5Q753.3 187.5 754.7 188.8Q756.1 190.2 756.1 192.2L756.1 192.2Q756.1 194.1 754.7 195.5ZM754.5 233.9Q753.3 235.2 751.2 235.2Q749.1 235.2 747.8 233.9Q746.6 232.7 746.6 230.5L746.6 230.5L746.6 205.1Q746.6 202.9 747.8 201.6Q749.1 200.4 751.2 200.4Q753.3 200.4 754.5 201.6Q755.8 202.9 755.8 205.1L755.8 205.1L755.8 230.5Q755.8 232.7 754.5 233.9ZM769.7 234.0Q768.4 235.2 766.4 235.2Q764.3 235.2 763.1 234.0Q761.8 232.7 761.8 230.5L761.8 230.5L761.8 205.0Q761.8 202.8 763.0 201.6Q764.2 200.4 766.2 200.4Q768.3 200.4 769.5 201.6Q770.8 202.9 770.8 205.0L770.8 205.0L770.8 206.9L771.0 206.9Q773.7 200.4 781.3 200.4L781.3 200.4Q786.8 200.4 789.9 203.7Q792.9 207.1 792.9 213.0L792.9 213.0L792.9 230.5Q792.9 232.7 791.7 234.0Q790.4 235.2 788.3 235.2Q786.3 235.2 785.0 234.0Q783.8 232.7 783.8 230.5L783.8 230.5L783.8 214.9Q783.8 211.6 782.2 209.8Q780.7 208.0 777.6 208.0Q774.6 208.0 772.8 210.0Q770.9 212.1 770.9 215.3L770.9 215.3L770.9 230.5Q770.9 232.7 769.7 234.0Z M830.1 235.1L830.1 235.1Q827.3 235.1 825.6 233.8Q823.8 232.6 822.8 229.7L822.8 229.7L810.3 196.0Q809.8 194.6 809.8 193.3L809.8 193.3Q809.8 191.3 811.2 190.1Q812.5 188.8 814.8 188.8L814.8 188.8Q818.4 188.8 819.6 192.6L819.6 192.6L830.1 224.8L830.3 224.8L840.9 192.5Q841.5 190.6 842.6 189.7Q843.7 188.8 845.5 188.8L845.5 188.8Q847.7 188.8 849.0 190.0Q850.4 191.2 850.4 193.2L850.4 193.2Q850.4 194.4 849.9 195.7L849.9 195.7L837.3 229.7Q836.3 232.6 834.5 233.8Q832.8 235.1 830.1 235.1ZM862.9 195.5Q861.5 196.9 859.5 196.9Q857.4 196.9 856 195.5Q854.6 194.1 854.6 192.2L854.6 192.2Q854.6 190.2 856 188.8Q857.4 187.5 859.5 187.5Q861.5 187.5 862.9 188.8Q864.3 190.2 864.3 192.2L864.3 192.2Q864.3 194.1 862.9 195.5ZM862.8 233.9Q861.6 235.2 859.5 235.2Q857.3 235.2 856.1 233.9Q854.9 232.7 854.9 230.5L854.9 230.5L854.9 205.1Q854.9 202.9 856.1 201.6Q857.3 200.4 859.5 200.4Q861.6 200.4 862.8 201.6Q864.0 202.9 864.0 205.1L864.0 205.1L864.0 230.5Q864.0 232.7 862.8 233.9ZM874.7 235.2L874.7 235.2Q872.6 235.2 871.3 234.0Q870.1 232.7 870.1 230.5L870.1 230.5L870.1 205.0Q870.1 202.8 871.3 201.6Q872.5 200.4 874.5 200.4L874.5 200.4Q876.4 200.4 877.6 201.6Q878.8 202.8 878.8 205.0L878.8 205.0L878.8 207.1L879 207.1Q879.7 204.1 881.5 202.3Q883.4 200.5 886.0 200.5L886.0 200.5Q887.8 200.5 888.8 201.4L888.8 201.4Q890.1 202.4 890.1 204.7L890.1 204.7Q890.1 206.9 888.8 208.0L888.8 208.0Q887.5 209.2 884.8 209.2L884.8 209.2Q881.8 209.2 880.5 210.8Q879.2 212.5 879.2 215.6L879.2 215.6L879.2 230.5Q879.2 232.7 878 234.0Q876.8 235.2 874.7 235.2ZM895.8 226.0L895.8 226.0L895.8 207.9L894.1 207.9Q892.4 207.9 891.5 207.0Q890.5 206.1 890.5 204.5Q890.5 202.9 891.5 202.0Q892.4 201.1 894.1 201.1L894.1 201.1L895.8 201.1L895.8 197.3Q895.8 195.1 897.0 193.8Q898.3 192.6 900.4 192.6Q902.5 192.6 903.7 193.8Q904.9 195.1 904.9 197.3L904.9 197.3L904.9 201.1L908.2 201.1Q909.8 201.1 910.7 202.0Q911.7 202.9 911.7 204.5Q911.7 206.1 910.7 207.0Q909.8 207.9 908.2 207.9L908.2 207.9L904.9 207.9L904.9 224.0Q904.9 225.7 905.6 226.6Q906.3 227.4 907.7 227.5L907.7 227.5L908.3 227.6Q910.1 227.7 910.9 228.5Q911.8 229.3 911.8 230.9L911.8 230.9Q911.8 232.8 910.0 233.9Q908.3 234.9 905.3 234.9L905.3 234.9L905 234.9Q895.8 234.9 895.8 226.0ZM928.0 235.2L928.0 235.2Q922.5 235.2 919.3 231.8Q916.0 228.5 916.0 222.6L916.0 222.6L916.0 205.1Q916.0 202.9 917.2 201.6Q918.5 200.4 920.5 200.4Q922.6 200.4 923.8 201.6Q925.1 202.9 925.1 205.1L925.1 205.1L925.1 220.7Q925.1 224.1 926.7 225.8Q928.3 227.6 931.3 227.6Q934.4 227.6 936.2 225.6Q937.9 223.6 937.9 220.2L937.9 220.2L937.9 205.1Q937.9 202.9 939.2 201.6Q940.4 200.4 942.5 200.4Q944.6 200.4 945.8 201.6Q947.1 202.9 947.1 205.1L947.1 205.1L947.1 230.6Q947.1 232.8 945.9 234.0Q944.7 235.2 942.7 235.2Q940.6 235.2 939.4 234.0Q938.3 232.8 938.3 230.6L938.3 230.6L938.3 228.5L938.1 228.5Q935.4 235.2 928.0 235.2ZM962.9 235.1L962.9 235.1Q958.1 235.1 954.9 232.2Q951.7 229.4 951.7 224.9L951.7 224.9Q951.7 220.4 955.1 217.8Q958.4 215.2 964.8 214.8L964.8 214.8L973.2 214.3L973.2 212.1Q973.2 209.8 971.7 208.5Q970.2 207.1 967.6 207.1L967.6 207.1Q965.5 207.1 964.0 207.9Q962.6 208.7 961.1 210.7L961.1 210.7Q959.6 212.4 957.4 212.4L957.4 212.4Q955.8 212.4 954.7 211.4Q953.6 210.4 953.6 208.9L953.6 208.9Q953.6 207.8 954.1 206.8L954.1 206.8Q955.3 203.8 959 202.1Q962.8 200.3 968.0 200.3L968.0 200.3Q974.4 200.3 978.3 203.4Q982.2 206.5 982.2 211.5L982.2 211.5L982.2 230.6Q982.2 232.8 980.9 234.0Q979.7 235.2 977.7 235.2L977.7 235.2Q975.8 235.2 974.6 234.2Q973.5 233.1 973.3 231.1L973.3 231.1L973.3 229.4L973.2 229.4Q971.8 232.1 969.0 233.6Q966.1 235.1 962.9 235.1ZM965.9 228.5L965.9 228.5Q968.9 228.5 971.1 226.7Q973.2 225.0 973.2 222.3L973.2 222.3L973.2 219.8L966.1 220.3Q963.6 220.5 962.2 221.6Q960.8 222.6 960.8 224.4L960.8 224.4Q960.8 226.3 962.2 227.4Q963.6 228.5 965.9 228.5ZM996.1 234.0Q994.9 235.2 992.8 235.2Q990.8 235.2 989.5 234.0Q988.3 232.7 988.3 230.5L988.3 230.5L988.3 193.6Q988.3 191.3 989.5 190.0Q990.8 188.8 992.8 188.8Q994.9 188.8 996.1 190.0Q997.4 191.3 997.4 193.6L997.4 193.6L997.4 230.5Q997.4 232.7 996.1 234.0Z M83.9 307.5Q82.7 308.8 80.5 308.8Q78.3 308.8 77 307.5Q75.8 306.2 75.8 303.9L75.8 303.9L75.8 268.0Q75.8 265.6 77 264.4Q78.3 263.1 80.5 263.1L80.5 263.1L94.2 263.1Q101.9 263.1 106.2 266.9Q110.5 270.7 110.5 277.4L110.5 277.4Q110.5 281.7 108.5 285.1Q106.5 288.4 102.8 290.0L102.8 290.0L109.3 301.2Q110.3 303.0 110.3 304.5L110.3 304.5Q110.3 306.4 108.9 307.6Q107.6 308.8 105.5 308.8L105.5 308.8Q103.8 308.8 102.9 308.1Q101.9 307.3 100.7 305.2L100.7 305.2L93.2 291.6L85.2 291.6L85.2 303.9Q85.2 306.2 83.9 307.5ZM85.2 270.4L85.2 284.8L93.3 284.8Q96.9 284.8 98.9 282.9Q100.8 281.0 100.8 277.6L100.8 277.6Q100.8 274.3 98.8 272.4Q96.7 270.4 93.2 270.4L93.2 270.4L85.2 270.4ZM131.3 308.9L131.3 308.9Q123.5 308.9 119.1 304.3Q114.7 299.7 114.7 291.6L114.7 291.6Q114.7 283.5 119.1 278.7Q123.5 273.9 130.9 273.9L130.9 273.9Q138 273.9 142.4 278.3Q146.8 282.6 146.8 289.5L146.8 289.5Q146.8 291.4 145.8 292.5Q144.7 293.5 142.8 293.5L142.8 293.5L123.7 293.5L123.7 293.9Q123.7 297.6 125.8 299.9Q127.8 302.1 131.3 302.1L131.3 302.1Q133.8 302.1 135.6 301.2Q137.5 300.3 139.3 298.1L139.3 298.1Q140.6 296.7 142.3 296.7L142.3 296.7Q143.8 296.7 144.8 297.6Q145.8 298.6 145.8 300.1L145.8 300.1Q145.8 301.1 145.2 302.3L145.2 302.3Q143.6 305.4 139.9 307.1Q136.2 308.9 131.3 308.9ZM123.8 287.9L123.8 287.9L138 287.9Q137.9 284.6 135.9 282.6Q134 280.7 131 280.7Q128 280.7 126.0 282.7Q124.0 284.7 123.8 287.9ZM161.4 308.7L161.4 308.7Q156.5 308.7 153.3 305.8Q150.2 303.0 150.2 298.5L150.2 298.5Q150.2 294.0 153.5 291.4Q156.9 288.8 163.2 288.4L163.2 288.4L171.7 287.9L171.7 285.7Q171.7 283.4 170.1 282.1Q168.6 280.7 166.0 280.7L166.0 280.7Q163.9 280.7 162.5 281.5Q161.1 282.3 159.5 284.3L159.5 284.3Q158.0 286.0 155.9 286.0L155.9 286.0Q154.3 286.0 153.2 285.0Q152.1 284.0 152.1 282.5L152.1 282.5Q152.1 281.4 152.6 280.4L152.6 280.4Q153.7 277.4 157.5 275.7Q161.2 273.9 166.4 273.9L166.4 273.9Q172.9 273.9 176.8 277.0Q180.6 280.1 180.6 285.1L180.6 285.1L180.6 304.2Q180.6 306.4 179.4 307.6Q178.2 308.8 176.2 308.8L176.2 308.8Q174.3 308.8 173.1 307.8Q171.9 306.7 171.8 304.7L171.8 304.7L171.8 303.0L171.6 303.0Q170.3 305.6 167.4 307.2Q164.6 308.7 161.4 308.7ZM164.4 302.1L164.4 302.1Q167.4 302.1 169.5 300.3Q171.7 298.6 171.7 295.9L171.7 295.9L171.7 293.4L164.6 293.9Q162.0 294.1 160.6 295.1Q159.3 296.2 159.3 298.0L159.3 298.0Q159.3 299.9 160.7 301.0Q162.1 302.1 164.4 302.1ZM194.6 307.6Q193.3 308.8 191.3 308.8Q189.2 308.8 188.0 307.6Q186.7 306.3 186.7 304.1L186.7 304.1L186.7 267.1Q186.7 264.9 188.0 263.6Q189.2 262.4 191.3 262.4Q193.3 262.4 194.6 263.6Q195.8 264.9 195.8 267.1L195.8 267.1L195.8 304.1Q195.8 306.3 194.6 307.6ZM210.2 269.1Q208.8 270.5 206.7 270.5Q204.7 270.5 203.3 269.1Q201.8 267.7 201.8 265.8L201.8 265.8Q201.8 263.8 203.3 262.4Q204.7 261.1 206.7 261.1Q208.8 261.1 210.2 262.4Q211.6 263.8 211.6 265.8L211.6 265.8Q211.6 267.7 210.2 269.1ZM210.1 307.5Q208.8 308.8 206.7 308.8Q204.6 308.8 203.4 307.5Q202.2 306.3 202.2 304.1L202.2 304.1L202.2 278.7Q202.2 276.5 203.4 275.2Q204.6 274.0 206.7 274.0Q208.8 274.0 210.1 275.2Q211.3 276.5 211.3 278.7L211.3 278.7L211.3 304.1Q211.3 306.3 210.1 307.5ZM219.8 299.6L219.8 299.6L219.8 281.5L218.0 281.5Q216.4 281.5 215.5 280.6Q214.5 279.7 214.5 278.1Q214.5 276.5 215.5 275.6Q216.4 274.6 218.0 274.6L218.0 274.6L219.8 274.6L219.8 270.9Q219.8 268.7 221 267.4Q222.2 266.2 224.3 266.2Q226.5 266.2 227.7 267.4Q228.9 268.7 228.9 270.9L228.9 270.9L228.9 274.6L232.1 274.6Q233.8 274.6 234.7 275.6Q235.6 276.5 235.6 278.1Q235.6 279.6 234.7 280.6Q233.8 281.5 232.1 281.5L232.1 281.5L228.9 281.5L228.9 297.6Q228.9 299.3 229.6 300.1Q230.2 301.0 231.7 301.1L231.7 301.1L232.3 301.1Q234.0 301.3 234.9 302.1Q235.8 302.9 235.8 304.5L235.8 304.5Q235.8 306.4 234 307.5Q232.3 308.5 229.3 308.5L229.3 308.5L229.0 308.5Q219.8 308.5 219.8 299.6ZM245.8 320.6L245.8 320.6Q242.8 320.6 241.2 319.4Q239.6 318.3 239.6 316.3L239.6 316.3Q239.6 314.9 240.5 314.1Q241.4 313.3 243.0 313.3L243.0 313.3Q243.3 313.3 243.8 313.3Q244.3 313.3 244.6 313.3L244.6 313.3Q247.6 313.3 249.0 310.3L249.0 310.3L249.4 309.1L238.8 280.9Q238.2 279.5 238.2 278.2L238.2 278.2Q238.2 276.4 239.6 275.2Q240.9 274.0 242.9 274.0L242.9 274.0Q244.8 274.0 245.8 274.8Q246.8 275.6 247.3 277.6L247.3 277.6L254.6 300.8L254.8 300.8L262.1 277.6Q262.6 275.7 263.7 274.8Q264.7 274.0 266.5 274.0L266.5 274.0Q268.4 274.0 269.7 275.1Q270.9 276.3 270.9 278.1L270.9 278.1Q270.9 279.4 270.4 280.8L270.4 280.8L260.1 308.7Q257.8 315.2 254.5 317.9Q251.3 320.6 245.8 320.6ZM284.3 284.7Q282.9 286.2 280.8 286.2Q278.7 286.2 277.2 284.7Q275.8 283.2 275.8 281.1L275.8 281.1Q275.8 279.0 277.2 277.6Q278.7 276.1 280.8 276.1Q282.9 276.1 284.3 277.6Q285.8 279.1 285.8 281.1Q285.8 283.2 284.3 284.7ZM284.3 307.1Q282.9 308.5 280.8 308.5Q278.7 308.5 277.2 307.1Q275.8 305.6 275.8 303.5Q275.8 301.4 277.2 299.9Q278.7 298.5 280.8 298.5Q282.9 298.5 284.3 299.9Q285.8 301.4 285.8 303.5Q285.8 305.6 284.3 307.1Z M314.3 307.4Q313 308.7 310.8 308.7Q308.6 308.7 307.3 307.4Q306.1 306.1 306.1 303.8L306.1 303.8L306.1 267.4Q306.1 265.0 307.3 263.7Q308.6 262.4 310.8 262.4Q313 262.4 314.3 263.7Q315.5 265.0 315.5 267.4L315.5 267.4L315.5 303.8Q315.5 306.1 314.3 307.4ZM335.9 308.9L335.9 308.9Q330.3 308.9 326.5 307.0Q322.7 305.2 321.5 302.2L321.5 302.2Q321.1 301.2 321.1 300.5L321.1 300.5Q321.1 298.9 322.2 298.0Q323.2 297.0 324.8 297.0L324.8 297.0Q326.9 297.0 328.8 299.1L328.8 299.1Q330.2 300.8 331.8 301.6Q333.5 302.5 336.1 302.5L336.1 302.5Q338.6 302.5 340.1 301.5Q341.6 300.5 341.6 298.9L341.6 298.9Q341.6 297.5 340.6 296.7Q339.6 295.9 337.1 295.4L337.1 295.4L331.5 294.2Q326.6 293.1 324.1 290.7Q321.6 288.2 321.6 284.5L321.6 284.5Q321.6 279.6 325.5 276.8Q329.3 273.9 335.8 273.9L335.8 273.9Q340.9 273.9 344.5 275.9Q348.1 277.9 349.0 280.9L349.0 280.9Q349.2 281.7 349.2 282.2L349.2 282.2Q349.2 283.6 348.3 284.5Q347.4 285.3 345.7 285.3L345.7 285.3Q343.6 285.3 342.4 283.9L342.4 283.9Q341 282.2 339.5 281.3Q338.0 280.3 335.7 280.3L335.7 280.3Q333.4 280.3 331.9 281.3Q330.4 282.3 330.4 284.0L330.4 284.0Q330.4 285.3 331.5 286.2Q332.6 287.1 335.1 287.6L335.1 287.6L340.6 288.8Q346.0 289.9 348.3 292.0Q350.7 294.1 350.7 297.9L350.7 297.9Q350.7 302.9 346.6 305.9Q342.5 308.9 335.9 308.9Z M377.8 308.7L377.8 308.7Q372.9 308.7 369.7 305.8Q366.5 303.0 366.5 298.5L366.5 298.5Q366.5 294.0 369.9 291.4Q373.3 288.8 379.6 288.4L379.6 288.4L388.0 287.9L388.0 285.7Q388.0 283.4 386.5 282.1Q385 280.7 382.4 280.7L382.4 280.7Q380.3 280.7 378.9 281.5Q377.4 282.3 375.9 284.3L375.9 284.3Q374.4 286.0 372.3 286.0L372.3 286.0Q370.6 286.0 369.5 285.0Q368.5 284.0 368.5 282.5L368.5 282.5Q368.5 281.4 368.9 280.4L368.9 280.4Q370.1 277.4 373.8 275.7Q377.6 273.9 382.8 273.9L382.8 273.9Q389.3 273.9 393.1 277.0Q397 280.1 397 285.1L397 285.1L397 304.2Q397 306.4 395.8 307.6Q394.6 308.8 392.6 308.8L392.6 308.8Q390.7 308.8 389.5 307.8Q388.3 306.7 388.2 304.7L388.2 304.7L388.2 303.0L388 303.0Q386.6 305.6 383.8 307.2Q381.0 308.7 377.8 308.7ZM380.8 302.1L380.8 302.1Q383.8 302.1 385.9 300.3Q388.0 298.6 388.0 295.9L388.0 295.9L388.0 293.4L381.0 293.9Q378.4 294.1 377.0 295.1Q375.6 296.2 375.6 298.0L375.6 298.0Q375.6 299.9 377.0 301.0Q378.4 302.1 380.8 302.1Z M436.6 308.9L436.6 308.9Q426.5 308.9 420.7 302.7Q414.9 296.4 414.9 285.5L414.9 285.5Q414.9 274.6 420.7 268.5Q426.4 262.3 436.4 262.3L436.4 262.3Q442.8 262.3 447.6 264.9Q452.4 267.6 454.4 271.9L454.4 271.9Q455.1 273.3 455.1 274.8L455.1 274.8Q455.1 276.6 453.9 277.7Q452.8 278.8 450.9 278.8L450.9 278.8Q448.0 278.8 446.4 276.1L446.4 276.1Q443.1 270.1 436.4 270.1L436.4 270.1Q430.8 270.1 427.7 274.1Q424.5 278.1 424.5 285.3L424.5 285.3Q424.5 292.6 427.8 296.9Q431.1 301.1 436.8 301.1L436.8 301.1Q441.4 301.1 444.3 298.5Q447.3 295.9 447.4 291.7L447.4 291.7L447.4 291.0L440.9 291.0Q439.2 291.0 438.1 290.1Q437.1 289.1 437.1 287.6Q437.1 286.0 438.1 285.0Q439.2 284.1 440.9 284.1L440.9 284.1L451.9 284.1Q454.1 284.1 455.4 285.4Q456.6 286.7 456.6 289.0L456.6 289.0L456.6 289.7Q456.6 298.5 451.3 303.7Q446.0 308.9 436.6 308.9ZM477.5 308.9L477.5 308.9Q469.6 308.9 465.2 304.3Q460.8 299.7 460.8 291.6L460.8 291.6Q460.8 283.5 465.2 278.7Q469.6 273.9 477.0 273.9L477.0 273.9Q484.1 273.9 488.5 278.3Q492.9 282.6 492.9 289.5L492.9 289.5Q492.9 291.4 491.9 292.5Q490.8 293.5 488.9 293.5L488.9 293.5L469.8 293.5L469.8 293.9Q469.8 297.6 471.9 299.9Q474.0 302.1 477.4 302.1L477.4 302.1Q479.9 302.1 481.8 301.2Q483.6 300.3 485.4 298.1L485.4 298.1Q486.8 296.7 488.4 296.7L488.4 296.7Q489.9 296.7 491.0 297.6Q492.0 298.6 492.0 300.1L492.0 300.1Q492.0 301.1 491.3 302.3L491.3 302.3Q489.7 305.4 486 307.1Q482.3 308.9 477.5 308.9ZM469.9 287.9L469.9 287.9L484.1 287.9Q484 284.6 482.1 282.6Q480.1 280.7 477.1 280.7Q474.1 280.7 472.1 282.7Q470.2 284.7 469.9 287.9ZM511.3 308.9L511.3 308.9Q505.6 308.9 501.8 307.0Q498.1 305.2 496.8 302.2L496.8 302.2Q496.5 301.2 496.5 300.5L496.5 300.5Q496.5 298.9 497.5 298.0Q498.6 297.0 500.2 297.0L500.2 297.0Q502.3 297.0 504.2 299.1L504.2 299.1Q505.5 300.8 507.2 301.6Q508.9 302.5 511.5 302.5L511.5 302.5Q514.0 302.5 515.5 301.5Q516.9 300.5 516.9 298.9L516.9 298.9Q516.9 297.5 515.9 296.7Q514.9 295.9 512.5 295.4L512.5 295.4L506.9 294.2Q502.0 293.1 499.5 290.7Q497 288.2 497 284.5L497 284.5Q497 279.6 500.9 276.8Q504.7 273.9 511.2 273.9L511.2 273.9Q516.3 273.9 519.9 275.9Q523.5 277.9 524.3 280.9L524.3 280.9Q524.6 281.7 524.6 282.2L524.6 282.2Q524.6 283.6 523.7 284.5Q522.8 285.3 521.1 285.3L521.1 285.3Q518.9 285.3 517.8 283.9L517.8 283.9Q516.4 282.2 514.9 281.3Q513.3 280.3 511.1 280.3L511.1 280.3Q508.8 280.3 507.3 281.3Q505.8 282.3 505.8 284.0L505.8 284.0Q505.8 285.3 506.9 286.2Q508 287.1 510.5 287.6L510.5 287.6L516 288.8Q521.3 289.9 523.7 292.0Q526.1 294.1 526.1 297.9L526.1 297.9Q526.1 302.9 522.0 305.9Q517.9 308.9 511.3 308.9ZM533 299.6L533 299.6L533 281.5L531.3 281.5Q529.6 281.5 528.7 280.6Q527.7 279.7 527.7 278.1Q527.7 276.5 528.7 275.6Q529.6 274.6 531.3 274.6L531.3 274.6L533 274.6L533 270.9Q533 268.7 534.2 267.4Q535.4 266.2 537.6 266.2Q539.7 266.2 540.9 267.4Q542.1 268.7 542.1 270.9L542.1 270.9L542.1 274.6L545.3 274.6Q547.0 274.6 547.9 275.6Q548.8 276.5 548.8 278.1Q548.8 279.6 547.9 280.6Q547.0 281.5 545.3 281.5L545.3 281.5L542.1 281.5L542.1 297.6Q542.1 299.3 542.8 300.1Q543.4 301.0 544.9 301.1L544.9 301.1L545.5 301.1Q547.3 301.3 548.1 302.1Q549.0 302.9 549.0 304.5L549.0 304.5Q549.0 306.4 547.2 307.5Q545.5 308.5 542.5 308.5L542.5 308.5L542.2 308.5Q533 308.5 533 299.6ZM565.2 308.8L565.2 308.8Q559.7 308.8 556.4 305.4Q553.2 302.1 553.2 296.2L553.2 296.2L553.2 278.7Q553.2 276.5 554.4 275.2Q555.7 274.0 557.7 274.0Q559.8 274.0 561.0 275.2Q562.3 276.5 562.3 278.7L562.3 278.7L562.3 294.3Q562.3 297.7 563.9 299.4Q565.5 301.2 568.5 301.2Q571.6 301.2 573.3 299.2Q575.1 297.2 575.1 293.8L575.1 293.8L575.1 278.7Q575.1 276.5 576.4 275.2Q577.6 274.0 579.7 274.0Q581.8 274.0 583 275.2Q584.3 276.5 584.3 278.7L584.3 278.7L584.3 304.2Q584.3 306.4 583.1 307.6Q581.9 308.8 579.8 308.8Q577.8 308.8 576.6 307.6Q575.4 306.4 575.4 304.2L575.4 304.2L575.4 302.1L575.3 302.1Q572.6 308.8 565.2 308.8ZM594.8 308.8L594.8 308.8Q592.7 308.8 591.4 307.6Q590.2 306.3 590.2 304.1L590.2 304.1L590.2 278.6Q590.2 276.4 591.4 275.2Q592.6 274.0 594.6 274.0L594.6 274.0Q596.5 274.0 597.7 275.2Q598.9 276.4 598.9 278.6L598.9 278.6L598.9 280.7L599.1 280.7Q599.8 277.6 601.6 275.9Q603.5 274.1 606.1 274.1L606.1 274.1Q607.9 274.1 608.9 275.0L608.9 275.0Q610.2 276.0 610.2 278.3L610.2 278.3Q610.2 280.5 608.9 281.6L608.9 281.6Q607.6 282.8 604.9 282.8L604.9 282.8Q601.9 282.8 600.6 284.4Q599.3 286.1 599.3 289.2L599.3 289.2L599.3 304.1Q599.3 306.3 598.1 307.6Q596.9 308.8 594.8 308.8ZM628.9 308.9L628.9 308.9Q621.0 308.9 616.6 304.3Q612.3 299.7 612.3 291.6L612.3 291.6Q612.3 283.5 616.6 278.7Q621 273.9 628.4 273.9L628.4 273.9Q635.5 273.9 639.9 278.3Q644.3 282.6 644.3 289.5L644.3 289.5Q644.3 291.4 643.3 292.5Q642.3 293.5 640.3 293.5L640.3 293.5L621.2 293.5L621.2 293.9Q621.2 297.6 623.3 299.9Q625.4 302.1 628.8 302.1L628.8 302.1Q631.3 302.1 633.2 301.2Q635 300.3 636.8 298.1L636.8 298.1Q638.2 296.7 639.8 296.7L639.8 296.7Q641.3 296.7 642.4 297.6Q643.4 298.6 643.4 300.1L643.4 300.1Q643.4 301.1 642.8 302.3L642.8 302.3Q641.1 305.4 637.4 307.1Q633.7 308.9 628.9 308.9ZM621.3 287.9L621.3 287.9L635.5 287.9Q635.4 284.6 633.5 282.6Q631.5 280.7 628.5 280.7Q625.5 280.7 623.5 282.7Q621.6 284.7 621.3 287.9Z M680.0 307.6Q678.6 308.7 676.4 308.7Q674.2 308.7 672.9 307.6Q671.6 306.5 670.9 303.9L670.9 303.9L661.5 269.8Q661.0 268.0 661.0 266.7L661.0 266.7Q661.0 264.7 662.2 263.6Q663.5 262.4 665.6 262.4L665.6 262.4Q669.3 262.4 670.2 266.5L670.2 266.5L676.9 295.7L677.2 295.7L684.8 266.6Q685.3 264.5 686.5 263.4Q687.6 262.4 689.6 262.4L689.6 262.4Q693.4 262.4 694.4 266.6L694.4 266.6L702 295.7L702.3 295.7L709 266.5Q709.9 262.4 713.6 262.4L713.6 262.4Q715.7 262.4 717.0 263.6Q718.2 264.7 718.2 266.7L718.2 266.7Q718.2 267.9 717.7 269.8L717.7 269.8L708.3 304.0Q707.6 306.5 706.3 307.6Q705 308.7 702.8 308.7L702.8 308.7Q700.5 308.7 699.2 307.6Q697.9 306.5 697.2 304.0L697.2 304.0L689.7 277.3L689.4 277.3L682.0 304.0Q681.3 306.5 680.0 307.6ZM750.9 304.2Q746.5 308.9 738.8 308.9Q731.2 308.9 726.7 304.2Q722.2 299.6 722.2 291.4L722.2 291.4Q722.2 283.3 726.7 278.6Q731.3 273.9 738.8 273.9L738.8 273.9Q746.4 273.9 750.9 278.6Q755.4 283.3 755.4 291.4L755.4 291.4Q755.4 299.6 750.9 304.2ZM738.8 301.9L738.8 301.9Q742.2 301.9 744.2 299.1Q746.1 296.4 746.1 291.4L746.1 291.4Q746.1 286.5 744.2 283.7Q742.2 280.9 738.8 280.9Q735.4 280.9 733.5 283.7Q731.5 286.5 731.5 291.4L731.5 291.4Q731.5 296.4 733.4 299.1Q735.4 301.9 738.8 301.9ZM764.7 308.8L764.7 308.8Q762.6 308.8 761.3 307.6Q760.1 306.3 760.1 304.1L760.1 304.1L760.1 278.6Q760.1 276.4 761.3 275.2Q762.5 274.0 764.5 274.0L764.5 274.0Q766.4 274.0 767.6 275.2Q768.8 276.4 768.8 278.6L768.8 278.6L768.8 280.7L769 280.7Q769.7 277.6 771.5 275.9Q773.4 274.1 776.0 274.1L776.0 274.1Q777.8 274.1 778.8 275.0L778.8 275.0Q780.1 276.0 780.1 278.3L780.1 278.3Q780.1 280.5 778.8 281.6L778.8 281.6Q777.5 282.8 774.8 282.8L774.8 282.8Q771.8 282.8 770.5 284.4Q769.2 286.1 769.2 289.2L769.2 289.2L769.2 304.1Q769.2 306.3 768 307.6Q766.8 308.8 764.7 308.8ZM785.8 299.6L785.8 299.6L785.8 281.5L784.1 281.5Q782.4 281.5 781.5 280.6Q780.5 279.7 780.5 278.1Q780.5 276.5 781.5 275.6Q782.4 274.6 784.1 274.6L784.1 274.6L785.8 274.6L785.8 270.9Q785.8 268.7 787.0 267.4Q788.3 266.2 790.4 266.2Q792.5 266.2 793.7 267.4Q794.9 268.7 794.9 270.9L794.9 270.9L794.9 274.6L798.2 274.6Q799.8 274.6 800.7 275.6Q801.7 276.5 801.7 278.1Q801.7 279.6 800.7 280.6Q799.8 281.5 798.2 281.5L798.2 281.5L794.9 281.5L794.9 297.6Q794.9 299.3 795.6 300.1Q796.3 301.0 797.7 301.1L797.7 301.1L798.3 301.1Q800.1 301.3 800.9 302.1Q801.8 302.9 801.8 304.5L801.8 304.5Q801.8 306.4 800.0 307.5Q798.3 308.5 795.3 308.5L795.3 308.5L795 308.5Q785.8 308.5 785.8 299.6ZM814.2 307.6Q813.0 308.8 810.9 308.8Q808.8 308.8 807.6 307.6Q806.3 306.3 806.3 304.1L806.3 304.1L806.3 267.1Q806.3 264.9 807.5 263.6Q808.7 262.4 810.8 262.4L810.8 262.4Q812.9 262.4 814.1 263.6Q815.3 264.8 815.3 267.1L815.3 267.1L815.3 280.6L815.5 280.6Q816.8 277.4 819.5 275.7Q822.3 274.0 826.0 274.0L826.0 274.0Q831.6 274.0 834.6 277.4Q837.7 280.7 837.7 286.6L837.7 286.6L837.7 304.1Q837.7 306.3 836.5 307.6Q835.2 308.8 833.2 308.8Q831.1 308.8 829.8 307.6Q828.6 306.3 828.6 304.1L828.6 304.1L828.6 288.5Q828.6 285.2 827.0 283.4Q825.4 281.6 822.3 281.6L822.3 281.6Q819.1 281.6 817.3 283.6Q815.5 285.7 815.5 289.0L815.5 289.0L815.5 304.1Q815.5 306.3 814.2 307.6Z M875.7 307.5Q874.4 308.8 872.3 308.8Q870.3 308.8 869.0 307.5Q867.7 306.2 867.7 304.1L867.7 304.1L867.7 271.8L867.5 271.8L860.9 276.4Q859.7 277.2 858.4 277.2L858.4 277.2Q856.9 277.2 856 276.3Q855.1 275.4 855.1 273.9L855.1 273.9Q855.1 271.8 857.1 270.3L857.1 270.3L866.0 264.1Q867.6 263.1 868.8 262.7Q870.1 262.4 871.7 262.4L871.7 262.4Q874.2 262.4 875.6 263.8Q877 265.2 877 267.6L877 267.6L877 304.1Q877 306.2 875.7 307.5ZM918.4 302.8Q913.5 309.1 904.9 309.1Q896.4 309.1 891.5 302.8Q886.5 296.5 886.5 285.5L886.5 285.5Q886.5 274.6 891.5 268.3Q896.4 262.0 904.9 262.0Q913.5 262.0 918.4 268.3Q923.3 274.6 923.3 285.5L923.3 285.5Q923.3 296.4 918.4 302.8ZM898.4 297.4Q900.8 301.6 904.9 301.6Q909.1 301.6 911.4 297.4Q913.7 293.2 913.7 285.5L913.7 285.5Q913.7 277.9 911.4 273.7Q909.1 269.6 904.9 269.6L904.9 269.6Q900.8 269.6 898.5 273.7Q896.1 277.9 896.1 285.5L896.1 285.5Q896.1 293.2 898.4 297.4ZM960.4 302.8Q955.5 309.1 946.9 309.1Q938.3 309.1 933.4 302.8Q928.5 296.5 928.5 285.5L928.5 285.5Q928.5 274.6 933.4 268.3Q938.4 262.0 946.9 262.0Q955.4 262.0 960.4 268.3Q965.3 274.6 965.3 285.5L965.3 285.5Q965.3 296.4 960.4 302.8ZM940.4 297.4Q942.7 301.6 946.9 301.6Q951.1 301.6 953.4 297.4Q955.7 293.2 955.7 285.5L955.7 285.5Q955.7 277.9 953.4 273.7Q951.1 269.6 946.9 269.6L946.9 269.6Q942.8 269.6 940.4 273.7Q938.1 277.9 938.1 285.5L938.1 285.5Q938.1 293.2 940.4 297.4ZM1002.3 302.8Q997.4 309.1 988.9 309.1Q980.3 309.1 975.4 302.8Q970.5 296.5 970.5 285.5L970.5 285.5Q970.5 274.6 975.4 268.3Q980.3 262.0 988.9 262.0Q997.4 262.0 1002.3 268.3Q1007.3 274.6 1007.3 285.5L1007.3 285.5Q1007.3 296.4 1002.3 302.8ZM982.4 297.4Q984.7 301.6 988.9 301.6Q993.1 301.6 995.4 297.4Q997.7 293.2 997.7 285.5L997.7 285.5Q997.7 277.9 995.4 273.7Q993.1 269.6 988.9 269.6L988.9 269.6Q984.7 269.6 982.4 273.7Q980.1 277.9 980.1 285.5L980.1 285.5Q980.1 293.2 982.4 297.4Z M93.3 381.2Q91.9 382.3 89.7 382.3Q87.5 382.3 86.2 381.2Q84.9 380.1 84.2 377.5L84.2 377.5L74.8 343.4Q74.3 341.6 74.3 340.3L74.3 340.3Q74.3 338.3 75.5 337.2Q76.8 336.0 78.9 336.0L78.9 336.0Q82.6 336.0 83.5 340.1L83.5 340.1L90.2 369.3L90.5 369.3L98.1 340.3Q98.6 338.1 99.8 337.0Q100.9 336.0 102.9 336.0L102.9 336.0Q106.7 336.0 107.7 340.2L107.7 340.2L115.3 369.3L115.6 369.3L122.3 340.1Q123.2 336.0 126.9 336.0L126.9 336.0Q129.0 336.0 130.3 337.2Q131.5 338.3 131.5 340.3L131.5 340.3Q131.5 341.5 131.0 343.4L131.0 343.4L121.6 377.6Q120.9 380.1 119.6 381.2Q118.3 382.3 116.1 382.3L116.1 382.3Q113.8 382.3 112.5 381.2Q111.2 380.1 110.5 377.6L110.5 377.6L103.0 350.9L102.8 350.9L95.3 377.6Q94.6 380.1 93.3 381.2ZM164.3 377.8Q159.8 382.5 152.1 382.5Q144.5 382.5 140 377.8Q135.5 373.2 135.5 365.0L135.5 365.0Q135.5 356.9 140.0 352.2Q144.6 347.5 152.1 347.5L152.1 347.5Q159.7 347.5 164.2 352.2Q168.7 356.9 168.7 365.0L168.7 365.0Q168.7 373.2 164.3 377.8ZM152.1 375.5L152.1 375.5Q155.5 375.5 157.5 372.8Q159.4 370 159.4 365L159.4 365Q159.4 360.1 157.5 357.3Q155.5 354.5 152.1 354.5Q148.8 354.5 146.8 357.3Q144.8 360.1 144.8 365L144.8 365Q144.8 370 146.8 372.8Q148.7 375.5 152.1 375.5ZM178.0 382.4L178.0 382.4Q175.9 382.4 174.6 381.2Q173.4 379.9 173.4 377.7L173.4 377.7L173.4 352.2Q173.4 350 174.6 348.8Q175.8 347.6 177.8 347.6L177.8 347.6Q179.8 347.6 180.9 348.8Q182.1 350 182.1 352.2L182.1 352.2L182.1 354.3L182.3 354.3Q183.0 351.3 184.9 349.5Q186.8 347.7 189.3 347.7L189.3 347.7Q191.1 347.7 192.1 348.6L192.1 348.6Q193.4 349.6 193.4 351.9L193.4 351.9Q193.4 354.1 192.1 355.2L192.1 355.2Q190.8 356.4 188.2 356.4L188.2 356.4Q185.2 356.4 183.8 358.0Q182.5 359.7 182.5 362.8L182.5 362.8L182.5 377.7Q182.5 379.9 181.3 381.2Q180.1 382.4 178.0 382.4ZM209.1 382.3L209.1 382.3Q202.8 382.3 199.2 377.6Q195.5 373.0 195.5 364.9L195.5 364.9Q195.5 357.0 199.2 352.3Q202.9 347.7 209.2 347.7L209.2 347.7Q212.8 347.7 215.5 349.4Q218.2 351.2 219.4 354L219.4 354L219.6 354L219.6 340.8Q219.6 338.5 220.8 337.2Q222.1 336.0 224.2 336.0Q226.2 336.0 227.5 337.2Q228.7 338.5 228.7 340.8L228.7 340.8L228.7 377.8Q228.7 380 227.5 381.2Q226.3 382.4 224.2 382.4L224.2 382.4Q222.2 382.4 220.9 381.2Q219.6 380 219.6 377.8L219.6 377.8L219.6 375.8L219.4 375.8Q218.3 378.8 215.6 380.5Q212.9 382.3 209.1 382.3ZM212.2 374.9L212.2 374.9Q215.6 374.9 217.6 372.3Q219.7 369.6 219.7 365L219.7 365Q219.7 360.4 217.6 357.7Q215.6 355.0 212.2 355.0L212.2 355.0Q208.8 355.0 206.8 357.7Q204.8 360.4 204.8 365L204.8 365Q204.8 369.6 206.8 372.3Q208.8 374.9 212.2 374.9ZM248.5 382.5L248.5 382.5Q242.8 382.5 239.1 380.6Q235.3 378.8 234.1 375.8L234.1 375.8Q233.7 374.8 233.7 374.1L233.7 374.1Q233.7 372.5 234.8 371.6Q235.8 370.6 237.4 370.6L237.4 370.6Q239.5 370.6 241.4 372.7L241.4 372.7Q242.8 374.4 244.4 375.3Q246.1 376.1 248.7 376.1L248.7 376.1Q251.2 376.1 252.7 375.1Q254.2 374.1 254.2 372.5L254.2 372.5Q254.2 371.1 253.2 370.3Q252.2 369.5 249.7 369.0L249.7 369.0L244.1 367.8Q239.2 366.7 236.7 364.3Q234.2 361.8 234.2 358.1L234.2 358.1Q234.2 353.3 238.1 350.4Q241.9 347.5 248.4 347.5L248.4 347.5Q253.5 347.5 257.1 349.5Q260.7 351.5 261.6 354.5L261.6 354.5Q261.8 355.3 261.8 355.8L261.8 355.8Q261.8 357.3 260.9 358.1Q260 358.9 258.3 358.9L258.3 358.9Q256.2 358.9 255.0 357.5L255.0 357.5Q253.6 355.8 252.1 354.9Q250.6 353.9 248.3 353.9L248.3 353.9Q246.0 353.9 244.5 354.9Q243.0 355.9 243.0 357.6L243.0 357.6Q243.0 358.9 244.1 359.8Q245.2 360.7 247.7 361.2L247.7 361.2L253.2 362.4Q258.6 363.5 260.9 365.6Q263.3 367.8 263.3 371.5L263.3 371.5Q263.3 376.5 259.2 379.5Q255.1 382.5 248.5 382.5ZM280.4 368.6L280.4 368.6Q278.5 368.6 277.3 367.4Q276.2 366.2 276.2 364.3L276.2 364.3L276.2 363.8Q276.2 361.1 277.6 359.2Q279.0 357.2 281.8 355.5L281.8 355.5Q284.8 353.7 286.0 352.3Q287.1 350.8 287.1 348.7L287.1 348.7Q287.1 346.4 285.4 344.9Q283.8 343.5 281.3 343.5L281.3 343.5Q276.7 343.5 275.1 347.8L275.1 347.8Q274 350.7 271.0 350.7L271.0 350.7Q269.2 350.7 268.1 349.6Q267.0 348.5 267.0 346.8L267.0 346.8Q267.0 344.8 268.0 343.0L268.0 343.0Q269.5 339.9 273.1 338.1Q276.7 336.3 281.7 336.3L281.7 336.3Q288.3 336.3 292.4 339.6Q296.5 342.9 296.5 348.4L296.5 348.4Q296.5 351.9 294.9 354.4Q293.2 356.9 289.8 358.9L289.8 358.9Q286.8 360.7 285.7 362.0Q284.7 363.3 284.3 365.3L284.3 365.3Q283.6 368.6 280.4 368.6ZM284.1 381.1Q282.6 382.5 280.5 382.5Q278.4 382.5 276.9 381.1Q275.4 379.7 275.4 377.6Q275.4 375.6 276.9 374.1Q278.4 372.7 280.5 372.7Q282.6 372.7 284.1 374.1Q285.6 375.6 285.6 377.6Q285.6 379.7 284.1 381.1Z " clip-path="url(#satori_cp-id-0)" mask="url(#satori_om-id-0)"/><defs><clipPath id="satori_bc-id-0-1" clip-path="url(#satori_cp-id-0)"><rect x="0" y="509" width="1200" height="121"/></clipPath></defs><mask id="satori_om-id-0-1"><rect x="0" y="510" width="1200" height="120" fill="#fff" mask="url(#satori_om-id-0)"/><path width="1200" height="121" fill="none" stroke="#000" stroke-width="2" d="M0,509 A0,0 0 0 1 0,509 h1200 A0,0 0 0 1 1200,509"/></mask><path width="1200" height="121" clip-path="url(#satori_bc-id-0-1)" fill="none" stroke="rgba(0,0,0,0.08)" stroke-width="2" d="M0,509 A0,0 0 0 1 0,509 h1200 A0,0 0 0 1 1200,509"/><mask id="satori_om-id-0-1-0"><rect x="48" y="538" width="228" height="64" fill="#fff" mask="url(#satori_om-id-0)"/></mask><mask id="satori_om-id-0-1-0-0"><rect x="48" y="538" width="72" height="64" fill="#fff" mask="url(#satori_om-id-0)"/></mask><clipPath id="satori_cp-id-0-1-0-0-0" clip-path="url(#satori_cp-id-0)"><rect x="48" y="538" width="72" height="64"/></clipPath><mask id="satori_om-id-0-1-0-0-0"><rect x="48" y="538" width="72" height="64" fill="#fff" mask="url(#satori_om-id-0)"/></mask><image x="48" y="538" width="72" height="64" href="data:image/svg+xml;utf8,%3Csvg  xmlns=%22http://www.w3.org/2000/svg%22 width=%2273.60461760461762%22 height=%2264%22 viewBox=%220 0 797 693%22%3E%3Cg transform=%22matrix(1,0,0,1,-345,-96.5)%22%3E%3Cpath d=%22M756.942,197.15L756.942,474C701.751,474 656.942,518.808 656.942,574C656.942,629.192 701.751,674 756.942,674L756.942,777L495.122,777C443.175,777 401,734.825 401,682.878L401,614L364.755,614C353.852,614 345,605.148 345,594.245L345,436.814C345,425.878 353.878,417 364.814,417L401,417L401,365.122C401,313.175 443.175,271 495.122,271L715.058,271L715.058,197.15C696.492,189.056 683.5,170.533 683.5,149C683.5,120.024 707.024,96.5 736,96.5C764.976,96.5 788.5,120.024 788.5,149C788.5,170.533 775.508,189.056 756.942,197.15ZM559,388C520.918,388 490,418.918 490,457C490,495.082 520.918,526 559,526C597.082,526 628,495.082 628,457C628,418.918 597.082,388 559,388Z%22 fill=%22%23ad47ff%22%3E%3C/path%3E%3Cg transform=%22matrix(-1,1.22465e-16,-1.22465e-16,-1,1486.06,1043)%22%3E%3Cpath d=%22M401,417L401,348.122C401,296.175 443.175,254 495.122,254L705.058,254L705.058,357C760.249,357 805.058,401.808 805.058,457C805.058,512.192 760.249,557 705.058,557L705.058,760L495.122,760C443.175,760 401,717.825 401,665.878L401,614L364.755,614C353.852,614 345,605.148 345,594.245L345,436.814C345,425.878 353.878,417 364.814,417L401,417ZM552,643C590.082,643 621,612.082 621,574C621,535.918 590.082,505 552,505C513.918,505 483,535.918 483,574C483,612.082 513.918,643 552,643Z%22 fill=%22%2300d5bd%22%3E%3C/path%3E%3C/g%3E%3C/g%3E%3C/svg%3E" preserveAspectRatio="none" clip-path="url(#satori_cp-id-0-1-0-0-0)" mask="url(#satori_om-id-0-1-0-0-0)"/><mask id="satori_om-id-0-1-0-0-0-0"><rect x="48" y="538" width="0" height="64" fill="#fff" mask="url(#satori_om-id-0)"/></mask><mask id="satori_om-id-0-1-0-0-0-0-0"><rect x="48" y="538" width="0" height="64" fill="#fff" mask="url(#satori_om-id-0)"/></mask><mask id="satori_om-id-0-1-0-0-0-0-1"><rect x="48" y="538" width="0" height="64" fill="#fff" mask="url(#satori_om-id-0)"/></mask><mask id="satori_om-id-0-1-0-0-0-0-1-0"><rect x="48" y="538" width="0" height="64" fill="#fff" mask="url(#satori_om-id-0)"/></mask><mask id="satori_om-id-0-1-0-1"><rect x="138" y="540" width="138" height="60" fill="#fff" mask="url(#satori_om-id-0)"/></mask><mask id="satori_om-id-0-1-0-1-0"><rect x="138" y="540" width="138" height="36" fill="#fff" mask="url(#satori_om-id-0)"/></mask><path fill="#0f172a" d="M150.7 571.2L150.7 571.2Q145.9 571.2 143.0 568.6Q140.1 566.1 140.1 561.8L140.1 561.8L140.1 547.9Q140.1 546.5 140.8 545.8Q141.5 545.1 142.8 545.1Q144.0 545.1 144.7 545.8Q145.4 546.5 145.4 547.9L145.4 547.9L145.4 561.3Q145.4 563.8 146.8 565.2Q148.2 566.7 150.7 566.7L150.7 566.7Q153.3 566.7 154.7 565.2Q156.1 563.8 156.1 561.3L156.1 561.3L156.1 547.9Q156.1 546.5 156.8 545.8Q157.5 545.1 158.7 545.1Q160.0 545.1 160.7 545.8Q161.4 546.5 161.4 547.9L161.4 547.9L161.4 561.8Q161.4 566.1 158.5 568.6Q155.6 571.2 150.7 571.2ZM170.2 570.4Q169.5 571.2 168.2 571.2Q167.0 571.2 166.3 570.4Q165.6 569.7 165.6 568.4L165.6 568.4L165.6 548.2Q165.6 546.9 166.3 546.2Q167.0 545.4 168.2 545.4L168.2 545.4L176.0 545.4Q180.3 545.4 182.7 547.6Q185.1 549.7 185.1 553.5L185.1 553.5Q185.1 555.9 184.0 557.8Q182.9 559.7 180.8 560.6L180.8 560.6L184.4 566.9Q185.0 567.9 185.0 568.7L185.0 568.7Q185.0 569.8 184.2 570.5Q183.5 571.2 182.3 571.2L182.3 571.2Q181.4 571.2 180.8 570.8Q180.3 570.3 179.6 569.2L179.6 569.2L175.4 561.5L170.9 561.5L170.9 568.4Q170.9 569.7 170.2 570.4ZM170.9 549.6L170.9 557.7L175.5 557.7Q177.5 557.7 178.6 556.6Q179.7 555.5 179.7 553.6L179.7 553.6Q179.7 551.8 178.5 550.7Q177.4 549.6 175.4 549.6L175.4 549.6L170.9 549.6ZM198.1 562.7L190.8 562.7Q189.7 562.7 189.1 562.1Q188.4 561.5 188.4 560.5Q188.4 559.4 189.1 558.8Q189.7 558.2 190.8 558.2L190.8 558.2L198.1 558.2Q199.2 558.2 199.9 558.8Q200.6 559.4 200.6 560.5Q200.6 561.5 199.9 562.1Q199.2 562.7 198.1 562.7L198.1 562.7ZM209.1 570.4Q208.4 571.2 207.2 571.2Q205.9 571.2 205.2 570.4Q204.5 569.7 204.5 568.4L204.5 568.4L204.5 548.2Q204.5 546.9 205.2 546.2Q205.9 545.4 207.2 545.4L207.2 545.4L214.9 545.4Q219.3 545.4 221.7 547.6Q224.1 549.7 224.1 553.5L224.1 553.5Q224.1 555.9 223.0 557.8Q221.8 559.7 219.7 560.6L219.7 560.6L223.4 566.9Q224.0 567.9 224.0 568.7L224.0 568.7Q224.0 569.8 223.2 570.5Q222.4 571.2 221.3 571.2L221.3 571.2Q220.3 571.2 219.8 570.8Q219.2 570.3 218.6 569.2L218.6 569.2L214.4 561.5L209.8 561.5L209.8 568.4Q209.8 569.7 209.1 570.4ZM209.8 549.6L209.8 557.7L214.4 557.7Q216.4 557.7 217.5 556.6Q218.6 555.5 218.6 553.6L218.6 553.6Q218.6 551.8 217.5 550.7Q216.3 549.6 214.4 549.6L214.4 549.6L209.8 549.6ZM229.3 571.1L229.3 571.1Q228.0 571.1 227.3 570.5Q226.6 569.8 226.6 568.6L226.6 568.6Q226.6 567.9 226.9 566.9L226.9 566.9L233.9 548.1Q234.4 546.5 235.4 545.8Q236.3 545.1 237.8 545.1L237.8 545.1Q239.4 545.1 240.4 545.8Q241.3 546.5 241.9 548.1L241.9 548.1L248.9 566.9Q249.2 567.9 249.2 568.6L249.2 568.6Q249.2 569.7 248.5 570.4Q247.7 571.1 246.5 571.1L246.5 571.1Q245.4 571.1 244.8 570.6Q244.1 570.0 243.8 568.8L243.8 568.8L242.4 564.8L233.3 564.8L232.0 568.7Q231.6 570.0 231.0 570.6Q230.3 571.1 229.3 571.1ZM237.7 550.3L234.5 560.7L241.2 560.7L237.9 550.3L237.7 550.3ZM262.1 570.8L255.1 570.8Q253.8 570.8 253.1 570.1Q252.4 569.3 252.4 568.0L252.4 568.0L252.4 548.2Q252.4 546.9 253.1 546.2Q253.8 545.4 255.1 545.4L255.1 545.4L262.1 545.4Q267.8 545.4 271.0 548.7Q274.2 552.0 274.2 558.0L274.2 558.0Q274.2 564.0 271.0 567.4Q267.8 570.8 262.1 570.8L262.1 570.8ZM257.7 549.8L257.7 566.4L261.5 566.4Q265.0 566.4 266.9 564.3Q268.8 562.1 268.8 558.0L268.8 558.0Q268.8 554.1 266.9 551.9Q265.0 549.8 261.5 549.8L261.5 549.8L257.7 549.8Z " clip-path="url(#satori_cp-id-0)" mask="url(#satori_om-id-0)"/><mask id="satori_om-id-0-1-0-1-1"><rect x="138" y="576" width="138" height="24" fill="#fff" mask="url(#satori_om-id-0)"/></mask><path fill="#334155" d="M145.0 595.3L145.0 595.3Q142.4 595.3 140.8 593.8Q139.2 592.4 139.2 590.1L139.2 590.1L139.2 582.1Q139.2 581.5 139.6 581.1Q139.9 580.8 140.5 580.8L140.5 580.8Q141.1 580.8 141.4 581.1Q141.8 581.5 141.8 582.1L141.8 582.1L141.8 589.8Q141.8 591.3 142.6 592.2Q143.5 593.1 145.0 593.1Q146.6 593.1 147.4 592.2Q148.3 591.3 148.3 589.8L148.3 589.8L148.3 582.1Q148.3 581.5 148.6 581.1Q149.0 580.8 149.6 580.8L149.6 580.8Q150.2 580.8 150.5 581.1Q150.8 581.5 150.8 582.1L150.8 582.1L150.8 590.1Q150.8 592.4 149.3 593.8Q147.7 595.3 145.0 595.3ZM155.5 594.9Q155.2 595.2 154.6 595.2Q154.0 595.2 153.6 594.9Q153.3 594.5 153.3 593.9L153.3 593.9L153.3 582.3Q153.3 581.6 153.6 581.3Q154.0 581.0 154.6 581.0L154.6 581.0L158.9 581.0Q161.2 581.0 162.5 582.1Q163.8 583.3 163.8 585.3L163.8 585.3Q163.8 586.7 163.1 587.8Q162.4 588.8 161.2 589.3L161.2 589.3L163.4 593.2Q163.7 593.7 163.7 594.1L163.7 594.1Q163.7 594.6 163.4 594.9Q163.0 595.2 162.4 595.2L162.4 595.2Q162.0 595.2 161.7 595.0Q161.5 594.8 161.2 594.3L161.2 594.3L158.7 589.7L155.8 589.7L155.8 593.9Q155.8 594.5 155.5 594.9ZM155.8 583.0L155.8 587.8L158.7 587.8Q159.9 587.8 160.5 587.2Q161.2 586.5 161.2 585.4L161.2 585.4Q161.2 584.3 160.5 583.6Q159.8 583.0 158.6 583.0L158.6 583.0L155.8 583.0ZM171.1 590.4L166.7 590.4Q166.2 590.4 165.9 590.1Q165.6 589.8 165.6 589.3Q165.6 588.8 165.9 588.5Q166.2 588.2 166.7 588.2L166.7 588.2L171.1 588.2Q171.7 588.2 172.0 588.5Q172.3 588.8 172.3 589.3Q172.3 589.8 172.0 590.1Q171.7 590.4 171.1 590.4L171.1 590.4ZM176.7 594.9Q176.4 595.2 175.8 595.2Q175.2 595.2 174.9 594.9Q174.6 594.5 174.6 593.9L174.6 593.9L174.6 582.3Q174.6 581.6 174.9 581.3Q175.2 581.0 175.8 581.0L175.8 581.0L180.1 581.0Q182.4 581.0 183.7 582.1Q185.0 583.3 185.0 585.3L185.0 585.3Q185.0 586.7 184.3 587.8Q183.7 588.8 182.5 589.3L182.5 589.3L184.7 593.2Q185.0 593.7 185.0 594.1L185.0 594.1Q185.0 594.6 184.6 594.9Q184.2 595.2 183.7 595.2L183.7 595.2Q183.2 595.2 183.0 595.0Q182.7 594.8 182.4 594.3L182.4 594.3L179.9 589.7L177.1 589.7L177.1 593.9Q177.1 594.5 176.7 594.9ZM177.1 583.0L177.1 587.8L179.9 587.8Q181.1 587.8 181.8 587.2Q182.4 586.5 182.4 585.4L182.4 585.4Q182.4 584.3 181.8 583.6Q181.1 583.0 179.9 583.0L179.9 583.0L177.1 583.0ZM187.7 595.2L187.7 595.2Q187.1 595.2 186.7 594.9Q186.4 594.6 186.4 594.0L186.4 594.0Q186.4 593.7 186.6 593.3L186.6 593.3L190.7 582.2Q190.9 581.4 191.4 581.1Q191.8 580.8 192.5 580.8L192.5 580.8Q193.2 580.8 193.6 581.1Q194.1 581.4 194.3 582.1L194.3 582.1L198.4 593.3Q198.6 593.7 198.6 594.0L198.6 594.0Q198.6 594.6 198.2 594.9Q197.9 595.2 197.3 595.2L197.3 595.2Q196.8 595.2 196.5 595.0Q196.2 594.7 196.0 594.1L196.0 594.1L195.1 591.4L189.9 591.4L188.9 594.1Q188.8 594.7 188.5 595.0Q188.2 595.2 187.7 595.2ZM192.4 583.4L190.5 589.5L194.5 589.5L192.5 583.4L192.4 583.4ZM205.6 595.0L201.7 595.0Q201.1 595.0 200.8 594.7Q200.4 594.3 200.4 593.7L200.4 593.7L200.4 582.3Q200.4 581.6 200.8 581.3Q201.1 581.0 201.7 581.0L201.7 581.0L205.6 581.0Q208.7 581.0 210.5 582.8Q212.3 584.6 212.3 588.0L212.3 588.0Q212.3 591.3 210.5 593.2Q208.7 595.0 205.6 595.0L205.6 595.0ZM202.9 583.1L202.9 592.9L205.3 592.9Q207.4 592.9 208.6 591.6Q209.7 590.4 209.7 588.0L209.7 588.0Q209.7 585.6 208.6 584.3Q207.4 583.1 205.3 583.1L205.3 583.1L202.9 583.1Z M227.0 595.0L219.2 595.0Q218.7 595.0 218.3 594.8Q218.0 594.5 218.0 594.0L218.0 594.0Q218.0 593.6 218.2 593.3Q218.3 593.1 218.7 592.7L218.7 592.7L223.0 588.4Q224.4 587.1 224.8 586.4Q225.3 585.7 225.3 584.9L225.3 584.9Q225.3 583.9 224.6 583.3Q224.0 582.7 223.0 582.7L223.0 582.7Q221.1 582.7 220.3 584.6L220.3 584.6Q220.1 585.0 219.9 585.2Q219.6 585.4 219.2 585.4L219.2 585.4Q218.7 585.4 218.4 585.1Q218.1 584.8 218.1 584.3L218.1 584.3Q218.1 584.1 218.2 583.8L218.2 583.8Q218.3 583.2 218.7 582.7Q219.1 582.1 219.7 581.7Q220.3 581.2 221.1 580.9Q222.0 580.7 223.0 580.7L223.0 580.7Q225.1 580.7 226.4 581.8Q227.8 582.9 227.8 584.7L227.8 584.7Q227.8 585.9 227.1 586.9Q226.4 588.0 224.6 589.8L224.6 589.8L221.4 592.9L221.4 593.0L227.0 593.0Q227.5 593.0 227.8 593.3Q228.1 593.5 228.1 594.0Q228.1 594.5 227.8 594.8Q227.5 595.0 227.0 595.0L227.0 595.0ZM235.2 595.3L235.2 595.3Q232.6 595.3 231.1 593.4Q229.7 591.4 229.7 588.0L229.7 588.0Q229.7 584.6 231.1 582.6Q232.6 580.7 235.2 580.7L235.2 580.7Q237.8 580.7 239.3 582.6Q240.7 584.6 240.7 588.0L240.7 588.0Q240.7 591.4 239.3 593.3Q237.8 595.3 235.2 595.3ZM235.2 593.3L235.2 593.3Q236.6 593.3 237.4 591.9Q238.2 590.5 238.2 588.0L238.2 588.0Q238.2 585.5 237.4 584.1Q236.6 582.7 235.2 582.7Q233.8 582.7 233.0 584.1Q232.2 585.5 232.2 588.0L232.2 588.0Q232.2 590.5 233.0 591.9Q233.8 593.3 235.2 593.3ZM251.6 595.0L243.8 595.0Q243.2 595.0 242.9 594.8Q242.6 594.5 242.6 594.0L242.6 594.0Q242.6 593.6 242.7 593.3Q242.9 593.1 243.3 592.7L243.3 592.7L247.6 588.4Q248.9 587.1 249.4 586.4Q249.8 585.7 249.8 584.9L249.8 584.9Q249.8 583.9 249.2 583.3Q248.5 582.7 247.5 582.7L247.5 582.7Q245.6 582.7 244.9 584.6L244.9 584.6Q244.7 585.0 244.4 585.2Q244.2 585.4 243.7 585.4L243.7 585.4Q243.2 585.4 242.9 585.1Q242.6 584.8 242.6 584.3L242.6 584.3Q242.6 584.1 242.7 583.8L242.7 583.8Q242.9 583.2 243.2 582.7Q243.6 582.1 244.2 581.7Q244.8 581.2 245.7 580.9Q246.5 580.7 247.5 580.7L247.5 580.7Q249.6 580.7 251.0 581.8Q252.3 582.9 252.3 584.7L252.3 584.7Q252.3 585.9 251.6 586.9Q251.0 588.0 249.2 589.8L249.2 589.8L245.9 592.9L245.9 593.0L251.6 593.0Q252.1 593.0 252.4 593.3Q252.6 593.5 252.6 594.0Q252.6 594.5 252.4 594.8Q252.1 595.0 251.6 595.0L251.6 595.0ZM259.6 595.3L259.6 595.3Q258.0 595.3 256.7 594.6Q255.4 593.9 254.9 592.8L254.9 592.8Q254.6 592.3 254.6 591.8L254.6 591.8Q254.6 591.3 254.9 591.0Q255.2 590.7 255.7 590.7L255.7 590.7Q256.1 590.7 256.4 590.9Q256.6 591.1 256.8 591.5L256.8 591.5Q257.2 592.3 257.9 592.8Q258.6 593.3 259.6 593.3L259.6 593.3Q260.9 593.3 261.7 592.5Q262.5 591.7 262.5 590.4L262.5 590.4Q262.5 589.2 261.7 588.4Q260.9 587.7 259.6 587.7L259.6 587.7Q258.3 587.7 257.4 588.5L257.4 588.5Q257.0 589.0 256.7 589.1Q256.4 589.3 256.0 589.3L256.0 589.3Q255.4 589.3 255.1 588.9Q254.8 588.5 254.8 588.0L254.8 588.0Q254.8 587.9 254.8 587.8L254.8 587.8L255.3 582.5Q255.4 581.7 255.8 581.3Q256.2 581.0 257.0 581.0L257.0 581.0L263.1 581.0Q263.6 581.0 263.9 581.2Q264.2 581.5 264.2 582.0L264.2 582.0Q264.2 582.4 263.9 582.7Q263.6 583.0 263.1 583.0L263.1 583.0L257.4 583.0L257.1 587.2L257.1 587.2Q257.6 586.5 258.4 586.1Q259.2 585.8 260.3 585.8L260.3 585.8Q262.3 585.8 263.6 587.0Q264.9 588.3 264.9 590.4L264.9 590.4Q264.9 592.6 263.4 593.9Q261.9 595.3 259.6 595.3Z " clip-path="url(#satori_cp-id-0)" mask="url(#satori_om-id-0)"/><mask id="satori_om-id-0-1-1"><rect x="968" y="557" width="184" height="26" fill="#fff" mask="url(#satori_om-id-0)"/></mask><path fill="#334155" d="M971.4 577.8Q971.1 578.2 970.5 578.2Q969.9 578.2 969.5 577.8Q969.2 577.5 969.2 576.8L969.2 576.8L969.2 563.6Q969.2 563.0 969.5 562.6Q969.9 562.2 970.5 562.2Q971.1 562.2 971.5 562.6Q971.8 563.0 971.8 563.6L971.8 563.6L971.8 568.5L971.9 568.5Q972.4 567.5 973.3 566.9Q974.3 566.4 975.5 566.4L975.5 566.4Q977.6 566.4 978.9 568.0Q980.2 569.5 980.2 572.3L980.2 572.3Q980.2 575.0 978.9 576.6Q977.6 578.1 975.5 578.1L975.5 578.1Q974.2 578.1 973.3 577.6Q972.4 577.0 971.8 576.0L971.8 576.0L971.8 576.0L971.8 576.8Q971.8 577.5 971.4 577.8ZM974.6 575.9L974.6 575.9Q975.9 575.9 976.7 574.9Q977.4 574.0 977.4 572.3Q977.4 570.6 976.7 569.6Q975.9 568.6 974.6 568.6L974.6 568.6Q973.4 568.6 972.6 569.6Q971.8 570.6 971.8 572.3L971.8 572.3Q971.8 573.9 972.6 574.9Q973.4 575.9 974.6 575.9ZM983.5 582.2L983.5 582.2Q982.6 582.2 982.1 581.9Q981.7 581.5 981.7 580.9L981.7 580.9Q981.7 580.5 981.9 580.3Q982.2 580.0 982.7 580.0L982.7 580.0Q982.8 580.0 983.0 580.0Q983.1 580.0 983.3 580.0L983.3 580.0Q984.3 580.0 984.9 578.7L984.9 578.7L985.1 578.2L981.3 568.3Q981.2 567.9 981.2 567.6L981.2 567.6Q981.2 567.0 981.6 566.7Q982.0 566.3 982.6 566.3L982.6 566.3Q983.1 566.3 983.4 566.6Q983.7 566.8 983.8 567.4L983.8 567.4L986.6 575.7L986.6 575.7L989.3 567.4Q989.5 566.8 989.8 566.6Q990.1 566.3 990.6 566.3L990.6 566.3Q991.2 566.3 991.5 566.7Q991.9 567.0 991.9 567.5L991.9 567.5Q991.9 567.9 991.8 568.3L991.8 568.3L988.0 578.4Q987.2 580.5 986.2 581.3Q985.2 582.2 983.5 582.2Z M999.4 578.1L999.4 578.1Q998.8 578.1 998.4 577.7Q998.0 577.4 998.0 576.7L998.0 576.7L998.0 563.7Q998.0 563.0 998.4 562.6Q998.8 562.3 999.4 562.3L999.4 562.3Q1000.1 562.3 1000.5 562.6Q1000.8 563.0 1000.8 563.7L1000.8 563.7L1000.8 568.9L1008.4 568.9L1008.4 563.7Q1008.4 563.0 1008.7 562.6Q1009.1 562.3 1009.7 562.3L1009.7 562.3Q1010.4 562.3 1010.8 562.6Q1011.1 563.0 1011.1 563.7L1011.1 563.7L1011.1 576.7Q1011.1 577.4 1010.8 577.8Q1010.4 578.1 1009.7 578.1L1009.7 578.1Q1009.1 578.1 1008.7 577.8Q1008.4 577.4 1008.4 576.7L1008.4 576.7L1008.4 571.2L1000.8 571.2L1000.8 576.7Q1000.8 577.4 1000.5 577.8Q1000.1 578.1 999.4 578.1ZM1016.0 564.5Q1015.6 565.0 1015.0 565.0Q1014.4 565.0 1013.9 564.5Q1013.5 564.1 1013.5 563.5L1013.5 563.5Q1013.5 562.9 1013.9 562.5Q1014.4 562.1 1015.0 562.1L1015.0 562.1Q1015.6 562.1 1016.0 562.5Q1016.5 562.9 1016.5 563.5L1016.5 563.5Q1016.5 564.1 1016.0 564.5ZM1016.0 577.8Q1015.6 578.2 1015.0 578.2Q1014.4 578.2 1014.0 577.8Q1013.6 577.4 1013.6 576.8L1013.6 576.8L1013.6 567.7Q1013.6 567.1 1014.0 566.7Q1014.4 566.3 1015.0 566.3Q1015.6 566.3 1016.0 566.7Q1016.3 567.1 1016.3 567.8L1016.3 567.8L1016.3 576.8Q1016.3 577.4 1016.0 577.8ZM1023.5 582.2L1023.5 582.2Q1021.9 582.2 1020.7 581.7Q1019.4 581.1 1018.9 580.2L1018.9 580.2Q1018.6 579.8 1018.6 579.4L1018.6 579.4Q1018.6 578.9 1018.9 578.6Q1019.2 578.3 1019.7 578.3L1019.7 578.3Q1020.3 578.3 1020.7 578.8L1020.7 578.8Q1021.4 579.5 1022.1 579.8Q1022.7 580.1 1023.5 580.1L1023.5 580.1Q1024.8 580.1 1025.6 579.4Q1026.4 578.7 1026.4 577.6L1026.4 577.6L1026.4 575.8L1026.3 575.8Q1025.9 576.7 1024.9 577.3Q1024.0 577.8 1022.8 577.8L1022.8 577.8Q1020.6 577.8 1019.4 576.3Q1018.1 574.7 1018.1 572.1L1018.1 572.1Q1018.1 569.4 1019.4 567.9Q1020.6 566.4 1022.8 566.4L1022.8 566.4Q1024.0 566.4 1024.9 566.9Q1025.9 567.5 1026.4 568.5L1026.4 568.5L1026.4 568.5L1026.4 567.7Q1026.4 567.1 1026.8 566.7Q1027.2 566.3 1027.7 566.3Q1028.3 566.3 1028.7 566.7Q1029.1 567.1 1029.1 567.7L1029.1 567.7L1029.1 577.6Q1029.1 579.7 1027.6 581.0Q1026.1 582.2 1023.5 582.2ZM1023.6 575.7L1023.6 575.7Q1024.9 575.7 1025.6 574.8Q1026.4 573.8 1026.4 572.1L1026.4 572.1Q1026.4 570.5 1025.6 569.5Q1024.9 568.5 1023.6 568.5L1023.6 568.5Q1022.3 568.5 1021.6 569.5Q1020.8 570.5 1020.8 572.1L1020.8 572.1Q1020.8 573.8 1021.6 574.8Q1022.3 575.7 1023.6 575.7ZM1036.2 582.2L1036.2 582.2Q1034.6 582.2 1033.4 581.7Q1032.1 581.1 1031.6 580.2L1031.6 580.2Q1031.3 579.8 1031.3 579.4L1031.3 579.4Q1031.3 578.9 1031.6 578.6Q1031.9 578.3 1032.4 578.3L1032.4 578.3Q1033.0 578.3 1033.4 578.8L1033.4 578.8Q1034.1 579.5 1034.8 579.8Q1035.4 580.1 1036.2 580.1L1036.2 580.1Q1037.5 580.1 1038.3 579.4Q1039.1 578.7 1039.1 577.6L1039.1 577.6L1039.1 575.8L1039.0 575.8Q1038.6 576.7 1037.6 577.3Q1036.7 577.8 1035.5 577.8L1035.5 577.8Q1033.3 577.8 1032.1 576.3Q1030.8 574.7 1030.8 572.1L1030.8 572.1Q1030.8 569.4 1032.1 567.9Q1033.3 566.4 1035.5 566.4L1035.5 566.4Q1036.7 566.4 1037.6 566.9Q1038.6 567.5 1039.1 568.5L1039.1 568.5L1039.1 568.5L1039.1 567.7Q1039.1 567.1 1039.5 566.7Q1039.9 566.3 1040.4 566.3Q1041.0 566.3 1041.4 566.7Q1041.8 567.1 1041.8 567.7L1041.8 567.7L1041.8 577.6Q1041.8 579.7 1040.3 581.0Q1038.8 582.2 1036.2 582.2ZM1036.3 575.7L1036.3 575.7Q1037.6 575.7 1038.3 574.8Q1039.1 573.8 1039.1 572.1L1039.1 572.1Q1039.1 570.5 1038.3 569.5Q1037.6 568.5 1036.3 568.5L1036.3 568.5Q1035.0 568.5 1034.3 569.5Q1033.5 570.5 1033.5 572.1L1033.5 572.1Q1033.5 573.8 1034.3 574.8Q1035.0 575.7 1036.3 575.7ZM1046.4 564.5Q1046.0 565.0 1045.4 565.0Q1044.7 565.0 1044.3 564.5Q1043.9 564.1 1043.9 563.5L1043.9 563.5Q1043.9 562.9 1044.3 562.5Q1044.7 562.1 1045.4 562.1L1045.4 562.1Q1046.0 562.1 1046.4 562.5Q1046.8 562.9 1046.8 563.5L1046.8 563.5Q1046.8 564.1 1046.4 564.5ZM1046.3 577.8Q1046.0 578.2 1045.4 578.2Q1044.7 578.2 1044.4 577.8Q1044.0 577.4 1044.0 576.8L1044.0 576.8L1044.0 567.7Q1044.0 567.1 1044.4 566.7Q1044.7 566.3 1045.4 566.3Q1046.0 566.3 1046.3 566.7Q1046.7 567.1 1046.7 567.8L1046.7 567.8L1046.7 576.8Q1046.7 577.4 1046.3 577.8ZM1051.2 577.8Q1050.9 578.2 1050.3 578.2Q1049.7 578.2 1049.3 577.8Q1048.9 577.4 1048.9 576.8L1048.9 576.8L1048.9 567.7Q1048.9 567.1 1049.3 566.7Q1049.6 566.3 1050.2 566.3Q1050.8 566.3 1051.2 566.7Q1051.5 567.1 1051.5 567.7L1051.5 567.7L1051.5 568.5L1051.6 568.5Q1052.6 566.3 1055.1 566.3L1055.1 566.3Q1057.0 566.3 1058.0 567.5Q1059.1 568.6 1059.1 570.6L1059.1 570.6L1059.1 576.8Q1059.1 577.4 1058.7 577.8Q1058.4 578.2 1057.8 578.2Q1057.1 578.2 1056.8 577.8Q1056.4 577.4 1056.4 576.8L1056.4 576.8L1056.4 571.1Q1056.4 569.9 1055.8 569.3Q1055.3 568.6 1054.1 568.6L1054.1 568.6Q1053.0 568.6 1052.3 569.4Q1051.6 570.1 1051.6 571.4L1051.6 571.4L1051.6 576.8Q1051.6 577.4 1051.2 577.8ZM1065.6 578.2L1065.6 578.2Q1063.8 578.2 1062.6 577.5Q1061.4 576.9 1061.0 575.9L1061.0 575.9Q1060.9 575.6 1060.9 575.4L1060.9 575.4Q1060.9 574.9 1061.2 574.6Q1061.5 574.3 1062.0 574.3L1062.0 574.3Q1062.6 574.3 1063.1 575.0L1063.1 575.0Q1063.6 575.6 1064.2 575.9Q1064.8 576.2 1065.7 576.2L1065.7 576.2Q1066.7 576.2 1067.2 575.8Q1067.8 575.5 1067.8 574.8L1067.8 574.8Q1067.8 574.3 1067.4 574.0Q1067.1 573.7 1066.2 573.5L1066.2 573.5L1064.3 573.1Q1061.0 572.3 1061.0 569.8L1061.0 569.8Q1061.0 568.2 1062.3 567.3Q1063.6 566.3 1065.7 566.3L1065.7 566.3Q1067.3 566.3 1068.5 567.0Q1069.6 567.7 1069.9 568.7L1069.9 568.7Q1070.0 568.9 1070.0 569.1L1070.0 569.1Q1070.0 569.5 1069.7 569.8Q1069.4 570.1 1068.9 570.1L1068.9 570.1Q1068.2 570.1 1067.9 569.6L1067.9 569.6Q1067.5 568.9 1066.9 568.6Q1066.4 568.3 1065.6 568.3L1065.6 568.3Q1064.7 568.3 1064.2 568.7Q1063.6 569.1 1063.6 569.7L1063.6 569.7Q1063.6 570.7 1065.3 571.1L1065.3 571.1L1067.1 571.5Q1068.9 571.9 1069.7 572.6Q1070.5 573.3 1070.5 574.6L1070.5 574.6Q1070.5 576.2 1069.1 577.2Q1067.8 578.2 1065.6 578.2ZM1074.0 575.2L1074.0 575.2Q1074.6 575.2 1074.9 575.5Q1075.2 575.8 1075.2 576.3L1075.2 576.3Q1075.2 576.6 1075.2 576.9L1075.2 576.9L1074.2 580.6Q1074.1 581.1 1073.9 581.3Q1073.6 581.5 1073.1 581.5Q1072.7 581.5 1072.4 581.2Q1072.1 581.0 1072.1 580.5L1072.1 580.5Q1072.1 580.4 1072.2 580.3L1072.2 580.3L1072.8 576.3Q1073.0 575.2 1074.0 575.2Z M1084.1 578.1L1084.1 578.1Q1083.5 578.1 1083.1 577.7Q1082.7 577.4 1082.7 576.7L1082.7 576.7L1082.7 563.9Q1082.7 563.2 1083.1 562.8Q1083.5 562.4 1084.1 562.4L1084.1 562.4L1088.8 562.4Q1091.1 562.4 1092.5 563.9Q1094.0 565.3 1094.0 567.6L1094.0 567.6Q1094.0 569.9 1092.5 571.4Q1091.0 572.8 1088.7 572.8L1088.7 572.8L1085.5 572.8L1085.5 576.7Q1085.5 577.4 1085.2 577.8Q1084.8 578.1 1084.1 578.1ZM1085.5 564.7L1085.5 570.6L1088.0 570.6Q1089.5 570.6 1090.4 569.8Q1091.2 569.0 1091.2 567.6L1091.2 567.6Q1091.2 566.2 1090.4 565.5Q1089.5 564.7 1088.0 564.7L1088.0 564.7L1085.5 564.7ZM1097.6 578.1L1097.6 578.1Q1097.0 578.1 1096.5 577.6Q1096.1 577.2 1096.1 576.5L1096.1 576.5Q1096.1 575.9 1096.5 575.4Q1097.0 575.0 1097.6 575.0L1097.6 575.0Q1098.3 575.0 1098.7 575.4Q1099.2 575.9 1099.2 576.5L1099.2 576.5Q1099.2 577.2 1098.7 577.6Q1098.3 578.1 1097.6 578.1Z M1111.1 578.2L1111.1 578.2Q1108.5 578.2 1107.1 576.6Q1105.6 575.1 1105.6 572.3L1105.6 572.3Q1105.6 569.6 1107.1 567.9Q1108.5 566.3 1111.0 566.3L1111.0 566.3Q1113.3 566.3 1114.8 567.8Q1116.2 569.3 1116.2 571.6L1116.2 571.6Q1116.2 572.2 1115.9 572.6Q1115.6 572.9 1115.0 572.9L1115.0 572.9L1108.3 572.9L1108.3 573.0Q1108.3 574.4 1109.0 575.3Q1109.8 576.1 1111.1 576.1L1111.1 576.1Q1112.0 576.1 1112.7 575.8Q1113.3 575.4 1114.0 574.6L1114.0 574.6Q1114.3 574.2 1114.9 574.2L1114.9 574.2Q1115.3 574.2 1115.6 574.4Q1115.9 574.7 1115.9 575.2L1115.9 575.2Q1115.9 575.5 1115.7 575.9L1115.7 575.9Q1115.2 577.0 1114.0 577.6Q1112.8 578.2 1111.1 578.2ZM1108.3 571.1L1108.3 571.1L1113.6 571.1Q1113.6 569.9 1112.8 569.1Q1112.1 568.4 1111.0 568.4Q1109.9 568.4 1109.1 569.2Q1108.4 569.9 1108.3 571.1ZM1118.7 575.1L1118.7 575.1L1118.7 568.6L1118.0 568.6Q1117.5 568.6 1117.2 568.3Q1116.9 568.1 1116.9 567.6L1116.9 567.6Q1116.9 567.1 1117.2 566.8Q1117.5 566.6 1118.0 566.6L1118.0 566.6L1118.7 566.6L1118.7 565.0Q1118.7 564.4 1119.0 564.0Q1119.4 563.6 1120.0 563.6L1120.0 563.6Q1120.6 563.6 1121.0 564.0Q1121.4 564.4 1121.4 565.0L1121.4 565.0L1121.4 566.6L1122.6 566.6Q1123.1 566.6 1123.4 566.8Q1123.7 567.1 1123.7 567.6L1123.7 567.6Q1123.7 568.1 1123.4 568.3Q1123.1 568.6 1122.6 568.6L1122.6 568.6L1121.4 568.6L1121.4 574.6Q1121.4 575.2 1121.6 575.5Q1121.8 575.8 1122.4 575.9L1122.4 575.9L1122.6 575.9Q1123.7 576.0 1123.7 576.9L1123.7 576.9Q1123.7 577.5 1123.2 577.8Q1122.7 578.1 1121.8 578.1L1121.8 578.1L1121.7 578.1Q1118.7 578.1 1118.7 575.1Z M1133.1 578.1L1133.1 578.1Q1131.4 578.1 1130.3 577.2Q1129.3 576.2 1129.3 574.7L1129.3 574.7Q1129.3 573.2 1130.4 572.3Q1131.5 571.4 1133.6 571.3L1133.6 571.3L1136.6 571.1L1136.6 570.3Q1136.6 569.4 1136.0 568.9Q1135.5 568.4 1134.5 568.4L1134.5 568.4Q1133.7 568.4 1133.1 568.7Q1132.6 569.0 1132.1 569.8L1132.1 569.8Q1131.7 570.3 1131.0 570.3L1131.0 570.3Q1130.5 570.3 1130.2 570.0Q1129.9 569.7 1129.9 569.2L1129.9 569.2Q1129.9 568.9 1130.1 568.5L1130.1 568.5Q1130.5 567.5 1131.7 566.9Q1133.0 566.3 1134.6 566.3L1134.6 566.3Q1136.7 566.3 1138.0 567.4Q1139.3 568.4 1139.3 570.1L1139.3 570.1L1139.3 576.8Q1139.3 577.5 1138.9 577.8Q1138.5 578.2 1138.0 578.2L1138.0 578.2Q1137.4 578.2 1137.0 577.8Q1136.7 577.5 1136.7 576.9L1136.7 576.9L1136.7 576.1L1136.6 576.1Q1136.1 577.0 1135.2 577.6Q1134.2 578.1 1133.1 578.1ZM1133.9 576.1L1133.9 576.1Q1135.0 576.1 1135.8 575.4Q1136.6 574.7 1136.6 573.7L1136.6 573.7L1136.6 572.9L1134.0 573.0Q1133 573.1 1132.5 573.5Q1131.9 573.9 1131.9 574.6L1131.9 574.6Q1131.9 575.3 1132.5 575.7Q1133 576.1 1133.9 576.1ZM1143.8 577.8Q1143.4 578.2 1142.8 578.2Q1142.2 578.2 1141.8 577.8Q1141.5 577.4 1141.5 576.8L1141.5 576.8L1141.5 563.6Q1141.5 563.0 1141.8 562.6Q1142.2 562.2 1142.8 562.2Q1143.4 562.2 1143.8 562.6Q1144.2 563.0 1144.2 563.6L1144.2 563.6L1144.2 576.8Q1144.2 577.4 1143.8 577.8ZM1148.3 578.1L1148.3 578.1Q1147.6 578.1 1147.2 577.6Q1146.8 577.2 1146.8 576.5L1146.8 576.5Q1146.8 575.9 1147.2 575.4Q1147.6 575.0 1148.3 575.0L1148.3 575.0Q1148.9 575.0 1149.4 575.4Q1149.8 575.9 1149.8 576.5L1149.8 576.5Q1149.8 577.2 1149.4 577.6Q1148.9 578.1 1148.3 578.1Z " clip-path="url(#satori_cp-id-0)" mask="url(#satori_om-id-0)"/></svg>