<svg width="1200" height="630" viewBox="0 0 1200 630" xmlns="http://www.w3.org/2000/svg"><mask id="satori_om-id"><rect x="0" y="0" width="1200" height="630" fill="#fff"/></mask><defs><pattern id="satori_pattern_id-0_0" x="0" y="0" width="1" height="1" patternUnits="objectBoundingBox"><linearGradient id="satori_biid-0_0" x1="-0.09774620284174435" y1="0.18618324350808482" x2="1.0977462028417444" y2="0.8138167564919152" spreadMethod="pad"><stop offset="0%" stop-color="#f8fafc"/><stop offset="50%" stop-color="#eef2ff"/><stop offset="100%" stop-color="#ffffff"/></linearGradient><rect x="0" y="0" width="1200" height="630" fill="url(#satori_biid-0_0)"/></pattern></defs><clipPath id="satori_cp-id-0"><rect x="0" y="0" width="1200" height="630"/></clipPath><mask id="satori_om-id-0"><rect x="0" y="0" width="1200" height="630" fill="#fff"/></mask><rect x="0" y="0" width="1200" height="630" fill="url(#satori_pattern_id-0_0)"/><mask id="satori_om-id-0-0"><rect x="0" y="0" width="1200" height="509" fill="#fff" mask="url(#satori_om-id-0)"/></mask><mask id="satori_om-id-0-0-0"><rect x="72" y="72" width="1056" height="365" fill="#fff" mask="url(#satori_om-id-0)"/></mask><mask id="satori_om-id-0-0-0-0"><rect x="72" y="113" width="1056" height="38" fill="#fff" mask="url(#satori_om-id-0)"/></mask><path fill="#64748b" d="M82.7 143.2Q82.2 143.7 81.4 143.7Q80.6 143.7 80.1 143.2Q79.7 142.8 79.7 141.9L79.7 141.9L79.7 124.0L74.1 124.0Q73.4 124.0 73.0 123.5Q72.5 123.1 72.5 122.4Q72.5 121.8 73.0 121.3Q73.4 120.9 74.1 120.9L74.1 120.9L88.7 120.9Q89.4 120.9 89.9 121.3Q90.3 121.8 90.3 122.4Q90.3 123.1 89.9 123.5Q89.4 124.0 88.7 124.0L88.7 124.0L83.2 124.0L83.2 141.9Q83.2 142.8 82.7 143.2ZM95.5 143.3Q95.1 143.8 94.3 143.8Q93.6 143.8 93.1 143.3Q92.6 142.8 92.6 142.0L92.6 142.0L92.6 122.4Q92.6 121.6 93.1 121.1Q93.5 120.6 94.3 120.6L94.3 120.6Q95.1 120.6 95.5 121.1Q96.0 121.6 96.0 122.4L96.0 122.4L96.0 129.8L96.0 129.8Q96.7 128.3 98.1 127.5Q99.4 126.8 101.3 126.8L101.3 126.8Q103.9 126.8 105.5 128.4Q107.0 130.1 107.0 132.9L107.0 132.9L107.0 142.0Q107.0 142.8 106.5 143.3Q106.1 143.8 105.3 143.8L105.3 143.8Q104.6 143.8 104.1 143.3Q103.6 142.8 103.6 142.0L103.6 142.0L103.6 133.5Q103.6 131.7 102.7 130.7Q101.8 129.7 100.0 129.7L100.0 129.7Q98.2 129.7 97.1 130.8Q96 132.0 96 134.0L96 134.0L96 142.0Q96 142.8 95.5 143.3ZM116.0 143.8L116.0 143.8Q113.3 143.8 111.7 142.1Q110.2 140.5 110.2 137.7L110.2 137.7L110.2 128.5Q110.2 127.7 110.6 127.2Q111.1 126.7 111.9 126.7L111.9 126.7Q112.6 126.7 113.1 127.2Q113.6 127.7 113.6 128.5L113.6 128.5L113.6 137.0Q113.6 138.9 114.5 139.9Q115.3 140.9 117.1 140.9L117.1 140.9Q118.9 140.9 119.9 139.7Q121.0 138.5 121.0 136.6L121.0 136.6L121.0 128.5Q121.0 127.7 121.5 127.2Q121.9 126.7 122.7 126.7L122.7 126.7Q123.4 126.7 123.9 127.2Q124.4 127.7 124.4 128.5L124.4 128.5L124.4 142.0Q124.4 142.8 123.9 143.3Q123.5 143.8 122.8 143.8Q122.0 143.8 121.6 143.3Q121.1 142.8 121.1 142.1L121.1 142.1L121.1 140.7L121.0 140.7Q119.6 143.8 116.0 143.8ZM129.4 143.8L129.4 143.8Q128.6 143.8 128.1 143.3Q127.7 142.8 127.7 142.0L127.7 142.0L127.7 128.4Q127.7 127.7 128.1 127.2Q128.6 126.7 129.3 126.7L129.3 126.7Q130 126.7 130.4 127.2Q130.9 127.7 130.9 128.4L130.9 128.4L130.9 129.8L131.0 129.8Q131.3 128.5 132.3 127.6Q133.3 126.8 134.6 126.8L134.6 126.8Q135.5 126.8 135.9 127.2L135.9 127.2Q136.4 127.5 136.4 128.4L136.4 128.4Q136.4 129.1 135.9 129.5L135.9 129.5Q135.4 130.0 134.3 130.0L134.3 130.0Q132.7 130 131.9 131.0Q131.1 132.0 131.1 133.6L131.1 133.6L131.1 142.0Q131.1 142.8 130.6 143.3Q130.1 143.8 129.4 143.8ZM144.3 143.8L144.3 143.8Q141.9 143.8 140.2 142.9Q138.5 142.0 137.9 140.4L137.9 140.4Q137.7 140.1 137.7 139.7L137.7 139.7Q137.7 139.1 138.1 138.8Q138.5 138.4 139.2 138.4L139.2 138.4Q140.0 138.4 140.6 139.3L140.6 139.3Q141.3 140.3 142.1 140.8Q143.0 141.2 144.4 141.2L144.4 141.2Q145.9 141.2 146.8 140.6Q147.6 140.0 147.6 139.0L147.6 139.0Q147.6 138.2 147.1 137.7Q146.5 137.3 145.2 136.9L145.2 136.9L142.6 136.3Q137.9 135.2 137.9 131.7L137.9 131.7Q137.9 129.4 139.7 128.1Q141.5 126.7 144.4 126.7L144.4 126.7Q146.6 126.7 148.2 127.7Q149.9 128.7 150.3 130.2L150.3 130.2Q150.3 130.6 150.3 130.7L150.3 130.7Q150.3 131.3 150.0 131.6Q149.6 131.9 149 131.9L149 131.9Q148.1 131.9 147.6 131.2L147.6 131.2Q147.1 130.3 146.3 129.8Q145.5 129.3 144.3 129.3L144.3 129.3Q142.9 129.3 142.0 129.9Q141.2 130.5 141.2 131.5L141.2 131.5Q141.2 133.0 143.7 133.6L143.7 133.6L146.3 134.2Q148.9 134.8 150.0 135.9Q151.0 136.9 151.0 138.7L151.0 138.7Q151.0 141.0 149.2 142.4Q147.3 143.8 144.3 143.8ZM159.8 143.8L159.8 143.8Q156.7 143.8 154.8 141.4Q152.9 139.1 152.9 135.3Q152.9 131.4 154.8 129.1Q156.7 126.8 159.8 126.8L159.8 126.8Q161.5 126.8 162.9 127.6Q164.3 128.4 165.0 129.8L165.0 129.8L165.0 129.8L165.0 122.4Q165.0 121.6 165.5 121.1Q166.0 120.6 166.7 120.6L166.7 120.6Q167.5 120.6 167.9 121.1Q168.4 121.6 168.4 122.4L168.4 122.4L168.4 142.1Q168.4 142.9 167.9 143.3Q167.5 143.8 166.7 143.8L166.7 143.8Q166 143.8 165.5 143.3Q165.0 142.9 165.0 142.1L165.0 142.1L165.0 140.5L165.0 140.5Q164.3 142.0 163 142.9Q161.7 143.8 159.8 143.8ZM160.7 140.9L160.7 140.9Q162.7 140.9 163.9 139.4Q165.0 137.8 165.0 135.3L165.0 135.3Q165.0 132.7 163.9 131.2Q162.7 129.6 160.7 129.6L160.7 129.6Q158.7 129.6 157.5 131.1Q156.4 132.7 156.4 135.3L156.4 135.3Q156.4 137.9 157.5 139.4Q158.7 140.9 160.7 140.9ZM176.7 143.8L176.7 143.8Q174.3 143.8 172.7 142.4Q171.2 141 171.2 138.8L171.2 138.8Q171.2 136.6 172.8 135.4Q174.4 134.1 177.3 133.9L177.3 133.9L181.8 133.7L181.8 132.4Q181.8 131.0 180.9 130.3Q180.1 129.5 178.5 129.5L178.5 129.5Q177.3 129.5 176.4 130.0Q175.6 130.5 174.9 131.6L174.9 131.6Q174.4 132.3 173.5 132.3L173.5 132.3Q172.9 132.3 172.5 131.9Q172.0 131.5 172.0 130.9L172.0 130.9Q172.0 130.3 172.3 129.8L172.3 129.8Q173.0 128.4 174.7 127.6Q176.4 126.7 178.6 126.7L178.6 126.7Q181.6 126.7 183.4 128.2Q185.2 129.7 185.2 132.1L185.2 132.1L185.2 142.1Q185.2 142.8 184.7 143.3Q184.3 143.8 183.5 143.8L183.5 143.8Q182.8 143.8 182.4 143.3Q182.0 142.9 181.9 142.2L181.9 142.2L181.9 140.8L181.9 140.8Q181.2 142.1 179.7 142.9Q178.3 143.8 176.7 143.8ZM177.6 141.1L177.6 141.1Q179.4 141.1 180.6 140.0Q181.8 138.9 181.8 137.3L181.8 137.3L181.8 136.0L177.8 136.3Q176.2 136.4 175.4 137.0Q174.6 137.6 174.6 138.7L174.6 138.7Q174.6 139.8 175.4 140.4Q176.3 141.1 177.6 141.1ZM190.5 149.6L190.5 149.6Q189.3 149.6 188.7 149.2Q188.0 148.8 188.0 148.0L188.0 148.0Q188.0 147.4 188.4 147.1Q188.8 146.8 189.4 146.8L189.4 146.8Q189.5 146.8 189.8 146.8Q190.0 146.8 190.2 146.8L190.2 146.8Q191.9 146.8 192.7 144.6L192.7 144.6L193.0 143.6L187.5 129.3Q187.4 128.7 187.4 128.3L187.4 128.3Q187.4 127.6 187.8 127.2Q188.3 126.7 189.1 126.7L189.1 126.7Q189.7 126.7 190.1 127.0Q190.5 127.3 190.7 128.0L190.7 128.0L194.9 140.4L194.9 140.4L199.1 128.0Q199.3 127.3 199.7 127.0Q200.1 126.7 200.8 126.7L200.8 126.7Q201.5 126.7 201.9 127.2Q202.4 127.6 202.4 128.3L202.4 128.3Q202.4 128.7 202.2 129.2L202.2 129.2L196.5 144.3Q195.4 147.3 194.1 148.4Q192.8 149.6 190.5 149.6ZM207.2 139.7L207.2 139.7Q207.9 139.7 208.3 140.0Q208.7 140.4 208.7 141.1L208.7 141.1Q208.7 141.5 208.6 142.0L208.6 142.0L207.3 147.3Q207.0 148.5 205.8 148.5L205.8 148.5Q205.2 148.5 204.9 148.1Q204.5 147.8 204.5 147.3L204.5 147.3Q204.5 147.1 204.5 146.9L204.5 146.9L205.5 141.1Q205.8 139.7 207.2 139.7Z M223.1 143.8L223.1 143.8Q222.4 143.8 222.0 143.4Q221.5 143.0 221.5 142.3L221.5 142.3Q221.5 141.8 221.8 141.2L221.8 141.2L230.9 124.0L230.9 123.9L220.4 123.9Q219.7 123.9 219.3 123.5Q218.8 123.1 218.8 122.4L218.8 122.4Q218.8 121.7 219.3 121.3Q219.7 120.9 220.4 120.9L220.4 120.9L232.3 120.9Q233.3 120.9 233.9 121.5Q234.5 122 234.5 122.9L234.5 122.9Q234.5 123.7 233.8 125.1L233.8 125.1L224.7 142.8Q224.4 143.3 224.1 143.5Q223.7 143.8 223.1 143.8Z M247.2 143.2Q246.7 143.7 245.9 143.7Q245.1 143.7 244.7 143.2Q244.2 142.8 244.2 141.9L244.2 141.9L244.2 122.6Q244.2 121.7 244.7 121.2Q245.2 120.7 246.1 120.7L246.1 120.7Q246.7 120.7 247.1 120.9Q247.5 121.2 248.0 121.8L248.0 121.8L259.1 137.5L259.2 137.5L259.2 122.5Q259.2 121.6 259.7 121.1Q260.1 120.7 260.9 120.7L260.9 120.7Q261.7 120.7 262.2 121.1Q262.6 121.6 262.6 122.5L262.6 122.5L262.6 141.9Q262.6 142.8 262.1 143.2Q261.6 143.7 260.8 143.7L260.8 143.7Q260.1 143.7 259.7 143.5Q259.3 143.3 258.9 142.6L258.9 142.6L247.8 126.9L247.6 126.9L247.6 141.9Q247.6 142.8 247.2 143.2ZM279.1 141.5Q277.0 143.8 273.4 143.8Q269.9 143.8 267.8 141.5Q265.6 139.2 265.6 135.3L265.6 135.3Q265.6 131.3 267.8 129.0Q269.9 126.7 273.4 126.7Q277.0 126.7 279.1 129.0Q281.2 131.3 281.2 135.3L281.2 135.3Q281.2 139.2 279.1 141.5ZM273.4 141L273.4 141Q275.4 141 276.6 139.5Q277.8 138.0 277.8 135.3L277.8 135.3Q277.8 132.5 276.6 131.0Q275.4 129.5 273.4 129.5Q271.4 129.5 270.2 131.0Q269.1 132.5 269.1 135.3L269.1 135.3Q269.1 138.0 270.2 139.5Q271.4 141 273.4 141ZM290.2 143.8L290.2 143.8Q289.3 143.8 288.7 143.4Q288.2 143.0 287.8 142.0L287.8 142.0L283.0 129.2Q282.8 128.7 282.8 128.3L282.8 128.3Q282.8 127.6 283.2 127.2Q283.7 126.7 284.5 126.7L284.5 126.7Q285.7 126.7 286.1 128.1L286.1 128.1L290.1 140.2L290.2 140.2L294.3 128.0Q294.7 126.7 295.9 126.7L295.9 126.7Q296.6 126.7 297.0 127.2Q297.5 127.6 297.5 128.3L297.5 128.3Q297.5 128.7 297.3 129.2L297.3 129.2L292.5 142.0Q292.1 142.9 291.6 143.4Q291.0 143.8 290.2 143.8ZM306.9 143.8L306.9 143.8Q303.2 143.8 301.1 141.5Q299.1 139.3 299.1 135.3L299.1 135.3Q299.1 131.4 301.1 129.1Q303.2 126.7 306.7 126.7L306.7 126.7Q310.0 126.7 312.0 128.9Q314.1 131 314.1 134.4L314.1 134.4Q314.1 135.2 313.6 135.6Q313.2 136.1 312.4 136.1L312.4 136.1L302.5 136.1L302.5 136.2Q302.5 138.4 303.6 139.7Q304.8 141.0 306.8 141.0L306.8 141.0Q308.2 141.0 309.2 140.5Q310.2 140.0 311.1 138.7L311.1 138.7Q311.6 138.1 312.3 138.1L312.3 138.1Q312.9 138.1 313.3 138.5Q313.7 138.9 313.7 139.5L313.7 139.5Q313.7 139.8 313.5 140.4L313.5 140.4Q312.6 142 310.9 142.9Q309.2 143.8 306.9 143.8ZM302.5 133.7L302.5 133.7L310.7 133.7Q310.6 131.8 309.5 130.6Q308.4 129.5 306.7 129.5L306.7 129.5Q304.9 129.5 303.8 130.6Q302.6 131.8 302.5 133.7ZM319.6 143.3Q319.1 143.8 318.4 143.8Q317.6 143.8 317.1 143.3Q316.7 142.8 316.7 142.0L316.7 142.0L316.7 128.5Q316.7 127.7 317.1 127.2Q317.6 126.7 318.3 126.7Q319.0 126.7 319.5 127.2Q319.9 127.7 319.9 128.5L319.9 128.5L319.9 129.8L320.0 129.8Q320.5 128.4 321.8 127.6Q323.0 126.8 324.7 126.8L324.7 126.8Q326.4 126.8 327.6 127.6Q328.8 128.4 329.3 130.0L329.3 130.0L329.3 130.0Q330.0 128.5 331.3 127.6Q332.7 126.8 334.5 126.8L334.5 126.8Q336.9 126.8 338.4 128.2Q339.8 129.7 339.8 132.2L339.8 132.2L339.8 142.0Q339.8 142.8 339.4 143.3Q338.9 143.8 338.1 143.8Q337.4 143.8 336.9 143.3Q336.4 142.8 336.4 142.0L336.4 142.0L336.4 133.0Q336.4 131.4 335.6 130.5Q334.8 129.6 333.3 129.6Q331.8 129.6 330.9 130.6Q329.9 131.6 329.9 133.2L329.9 133.2L329.9 142.0Q329.9 142.8 329.5 143.3Q329.0 143.8 328.3 143.8Q327.5 143.8 327.0 143.3Q326.6 142.8 326.6 142.0L326.6 142.0L326.6 132.7Q326.6 131.3 325.8 130.5Q324.9 129.6 323.5 129.6L323.5 129.6Q322.0 129.6 321.0 130.7Q320.1 131.7 320.1 133.3L320.1 133.3L320.1 142.0Q320.1 142.8 319.6 143.3ZM344.8 143.8L344.8 143.8Q344.1 143.8 343.6 143.3Q343.2 142.9 343.2 142.1L343.2 142.1L343.2 122.4Q343.2 121.6 343.7 121.1Q344.1 120.6 344.9 120.6Q345.6 120.6 346.1 121.1Q346.6 121.6 346.6 122.4L346.6 122.4L346.6 129.8L346.7 129.8Q347.4 128.4 348.8 127.6Q350.1 126.8 351.9 126.8L351.9 126.8Q355.0 126.8 356.8 129.1Q358.7 131.4 358.7 135.3L358.7 135.3Q358.7 139.2 356.8 141.5Q355.0 143.8 351.8 143.8L351.8 143.8Q350.1 143.8 348.7 142.9Q347.3 142.1 346.5 140.7L346.5 140.7L346.5 140.7L346.5 142.1Q346.5 142.9 346.0 143.3Q345.6 143.8 344.8 143.8ZM350.9 140.9L350.9 140.9Q352.9 140.9 354.1 139.4Q355.2 137.9 355.2 135.3L355.2 135.3Q355.2 132.7 354.1 131.1Q352.9 129.6 350.9 129.6L350.9 129.6Q349 129.6 347.8 131.2Q346.6 132.7 346.6 135.3L346.6 135.3Q346.6 137.8 347.8 139.3Q349 140.9 350.9 140.9ZM368.4 143.8L368.4 143.8Q364.7 143.8 362.6 141.5Q360.6 139.3 360.6 135.3L360.6 135.3Q360.6 131.4 362.6 129.1Q364.7 126.7 368.2 126.7L368.2 126.7Q371.5 126.7 373.5 128.9Q375.6 131 375.6 134.4L375.6 134.4Q375.6 135.2 375.1 135.6Q374.7 136.1 373.9 136.1L373.9 136.1L364.0 136.1L364.0 136.2Q364.0 138.4 365.2 139.7Q366.3 141.0 368.4 141.0L368.4 141.0Q369.7 141.0 370.7 140.5Q371.7 140.0 372.6 138.7L372.6 138.7Q373.1 138.1 373.8 138.1L373.8 138.1Q374.4 138.1 374.8 138.5Q375.2 138.9 375.2 139.5L375.2 139.5Q375.2 139.8 375.0 140.4L375.0 140.4Q374.2 142 372.4 142.9Q370.7 143.8 368.4 143.8ZM364 133.7L364 133.7L372.2 133.7Q372.2 131.8 371.1 130.6Q370.0 129.5 368.2 129.5L368.2 129.5Q366.4 129.5 365.3 130.6Q364.1 131.8 364 133.7ZM379.9 143.8L379.9 143.8Q379.1 143.8 378.7 143.3Q378.2 142.8 378.2 142.0L378.2 142.0L378.2 128.4Q378.2 127.7 378.6 127.2Q379.1 126.7 379.8 126.7L379.8 126.7Q380.5 126.7 381.0 127.2Q381.4 127.7 381.4 128.4L381.4 128.4L381.4 129.8L381.5 129.8Q381.8 128.5 382.8 127.6Q383.8 126.8 385.1 126.8L385.1 126.8Q386.0 126.8 386.4 127.2L386.4 127.2Q386.9 127.5 386.9 128.4L386.9 128.4Q386.9 129.1 386.4 129.5L386.4 129.5Q385.9 130.0 384.8 130.0L384.8 130.0Q383.2 130 382.4 131.0Q381.6 132.0 381.6 133.6L381.6 133.6L381.6 142.0Q381.6 142.8 381.1 143.3Q380.6 143.8 379.9 143.8Z M409.3 143.5L396.9 143.5Q396.1 143.5 395.6 143.1Q395.2 142.7 395.2 142L395.2 142Q395.2 141.5 395.4 141.1Q395.6 140.8 396.2 140.2L396.2 140.2L403.2 133.0Q405.4 130.8 406.1 129.6Q406.9 128.4 406.9 127.1L406.9 127.1Q406.9 125.5 405.8 124.4Q404.7 123.4 403.0 123.4L403.0 123.4Q399.6 123.4 398.4 126.7L398.4 126.7Q398.2 127.3 397.8 127.6Q397.5 127.9 396.8 127.9L396.8 127.9Q396.1 127.9 395.7 127.5Q395.3 127.0 395.3 126.4L395.3 126.4Q395.3 126 395.4 125.6L395.4 125.6Q395.6 124.7 396.2 123.8Q396.8 122.9 397.7 122.2Q398.6 121.4 400.0 121.0Q401.4 120.5 403.0 120.5L403.0 120.5Q406.2 120.5 408.3 122.3Q410.3 124.1 410.3 126.9L410.3 126.9Q410.3 128.8 409.3 130.5Q408.2 132.1 405.3 135.0L405.3 135.0L400.0 140.4L400.0 140.5L409.3 140.5Q410.0 140.5 410.4 140.9Q410.9 141.3 410.9 142L410.9 142Q410.9 142.7 410.4 143.1Q410.0 143.5 409.3 143.5L409.3 143.5ZM428.4 140.7Q426.1 143.9 422.0 143.9Q418 143.9 415.7 140.7Q413.4 137.6 413.4 132.2L413.4 132.2Q413.4 126.8 415.7 123.6Q418.0 120.5 422.0 120.5L422.0 120.5Q426.1 120.5 428.4 123.6Q430.7 126.8 430.7 132.2L430.7 132.2Q430.7 137.6 428.4 140.7ZM422.0 141.0L422.0 141.0Q424.5 141.0 425.8 138.6Q427.1 136.3 427.1 132.2L427.1 132.2Q427.1 128.1 425.8 125.8Q424.5 123.4 422.0 123.4Q419.6 123.4 418.3 125.8Q417.0 128.1 417.0 132.2L417.0 132.2Q417.0 136.3 418.3 138.6Q419.6 141.0 422.0 141.0ZM447.8 143.5L435.4 143.5Q434.6 143.5 434.1 143.1Q433.7 142.7 433.7 142L433.7 142Q433.7 141.5 433.9 141.1Q434.1 140.8 434.7 140.2L434.7 140.2L441.7 133.0Q443.9 130.8 444.6 129.6Q445.4 128.4 445.4 127.1L445.4 127.1Q445.4 125.5 444.3 124.4Q443.2 123.4 441.5 123.4L441.5 123.4Q438.1 123.4 436.9 126.7L436.9 126.7Q436.7 127.3 436.3 127.6Q436.0 127.9 435.3 127.9L435.3 127.9Q434.6 127.9 434.2 127.5Q433.8 127.0 433.8 126.4L433.8 126.4Q433.8 126 433.9 125.6L433.9 125.6Q434.1 124.7 434.7 123.8Q435.3 122.9 436.2 122.2Q437.1 121.4 438.5 121.0Q439.9 120.5 441.5 120.5L441.5 120.5Q444.7 120.5 446.8 122.3Q448.8 124.1 448.8 126.9L448.8 126.9Q448.8 128.8 447.8 130.5Q446.7 132.1 443.8 135.0L443.8 135.0L438.5 140.4L438.5 140.5L447.8 140.5Q448.5 140.5 448.9 140.9Q449.4 141.3 449.4 142L449.4 142Q449.4 142.7 448.9 143.1Q448.5 143.5 447.8 143.5L447.8 143.5ZM464.7 143.8L464.7 143.8Q464.0 143.8 463.5 143.3Q463.0 142.8 463.0 142.0L463.0 142.0L463.0 139.0L453.7 139.0Q452.8 139.0 452.2 138.4Q451.7 137.9 451.7 137L451.7 137Q451.7 135.9 452.5 134.5L452.5 134.5Q454.4 131.0 459.8 123.3L459.8 123.3Q460.8 121.8 461.6 121.2Q462.4 120.6 463.5 120.6L463.5 120.6Q464.9 120.6 465.6 121.3Q466.4 122 466.4 123.3L466.4 123.3L466.4 136.0L468.2 136.0Q468.8 136.0 469.3 136.5Q469.7 136.9 469.7 137.5Q469.7 138.2 469.3 138.6Q468.8 139.0 468.2 139.0L468.2 139.0L466.4 139.0L466.4 142.0Q466.4 142.8 465.9 143.3Q465.4 143.8 464.7 143.8ZM455.0 136.1L463.0 136.1L463.0 123.7L463.0 123.7Q457.2 132.0 455.0 136L455.0 136L455.0 136.1Z " clip-path="url(#satori_cp-id-0)" mask="url(#satori_om-id-0)"/><mask id="satori_om-id-0-0-0-1"><rect x="72" y="175" width="1056" height="221" fill="#fff" mask="url(#satori_om-id-0)"/></mask><path fill="#0f172a" d="M101.2 234.6L80.5 234.6Q78.3 234.6 77 233.3Q75.8 232.0 75.8 229.6L75.8 229.6L75.8 193.8Q75.8 191.4 77 190.1Q78.3 188.8 80.5 188.8Q82.7 188.8 83.9 190.1Q85.2 191.4 85.2 193.8L85.2 193.8L85.2 226.7L101.2 226.7Q103.1 226.7 104.3 227.8Q105.5 228.8 105.5 230.6Q105.5 232.5 104.3 233.5Q103.2 234.6 101.2 234.6L101.2 234.6ZM119.6 235.1L119.6 235.1Q114.8 235.1 111.6 232.2Q108.4 229.4 108.4 224.9L108.4 224.9Q108.4 220.4 111.8 217.8Q115.2 215.2 121.5 214.8L121.5 214.8L129.9 214.3L129.9 212.1Q129.9 209.8 128.4 208.5Q126.9 207.1 124.3 207.1L124.3 207.1Q122.2 207.1 120.8 207.9Q119.3 208.7 117.8 210.7L117.8 210.7Q116.3 212.4 114.2 212.4L114.2 212.4Q112.5 212.4 111.4 211.4Q110.3 210.4 110.3 208.9L110.3 208.9Q110.3 207.8 110.8 206.8L110.8 206.8Q112.0 203.8 115.7 202.1Q119.5 200.3 124.7 200.3L124.7 200.3Q131.1 200.3 135 203.4Q138.9 206.5 138.9 211.5L138.9 211.5L138.9 230.6Q138.9 232.8 137.7 234.0Q136.4 235.2 134.4 235.2L134.4 235.2Q132.5 235.2 131.4 234.2Q130.2 233.1 130.1 231.1L130.1 231.1L130.1 229.4L129.9 229.4Q128.5 232.1 125.7 233.6Q122.8 235.1 119.6 235.1ZM122.6 228.5L122.6 228.5Q125.7 228.5 127.8 226.7Q129.9 225.0 129.9 222.3L129.9 222.3L129.9 219.8L122.8 220.3Q120.3 220.5 118.9 221.6Q117.5 222.6 117.5 224.4L117.5 224.4Q117.5 226.3 118.9 227.4Q120.3 228.5 122.6 228.5ZM149.3 235.2L149.3 235.2Q147.2 235.2 146.0 234.0Q144.8 232.7 144.8 230.5L144.8 230.5L144.8 205.0Q144.8 202.8 146.0 201.6Q147.2 200.4 149.2 200.4L149.2 200.4Q151.1 200.4 152.3 201.6Q153.5 202.8 153.5 205.0L153.5 205.0L153.5 207.1L153.7 207.1Q154.3 204.1 156.2 202.3Q158.1 200.5 160.6 200.5L160.6 200.5Q162.5 200.5 163.5 201.4L163.5 201.4Q164.8 202.4 164.8 204.7L164.8 204.7Q164.8 206.9 163.5 208.0L163.5 208.0Q162.1 209.2 159.5 209.2L159.5 209.2Q156.5 209.2 155.2 210.8Q153.9 212.5 153.9 215.6L153.9 215.6L153.9 230.5Q153.9 232.7 152.7 234.0Q151.4 235.2 149.3 235.2ZM183 247.1L183 247.1Q178.0 247.1 174.3 245.4Q170.6 243.7 168.9 241.0L168.9 241.0Q168.2 239.8 168.2 238.5L168.2 238.5Q168.2 237.0 169.2 236.1Q170.3 235.1 171.9 235.1L171.9 235.1Q173.7 235.1 175.1 236.4L175.1 236.4Q178.9 240.1 183.0 240.1L183.0 240.1Q186.7 240.1 188.8 238.2Q190.9 236.4 190.9 233.2L190.9 233.2L190.9 227.8L190.7 227.8Q189.5 230.6 186.8 232.2Q184 233.8 180.4 233.8L180.4 233.8Q174.2 233.8 170.5 229.4Q166.8 224.9 166.8 217.2L166.8 217.2Q166.8 209.4 170.5 204.9Q174.1 200.5 180.6 200.5L180.6 200.5Q184.1 200.5 186.8 202.2Q189.4 203.9 190.8 206.8L190.8 206.8L191.0 206.8L191.0 205.0Q191.0 202.7 192.2 201.6Q193.5 200.4 195.6 200.4L195.6 200.4Q197.6 200.4 198.8 201.6Q200.1 202.7 200.1 205.0L200.1 205.0L200.1 233.2Q200.1 239.8 195.6 243.5Q191.1 247.2 183 247.1ZM183.5 227.1L183.5 227.1Q186.9 227.1 189.0 224.5Q191 221.9 191 217.4Q191 212.8 189.0 210.1Q186.9 207.5 183.5 207.5L183.5 207.5Q180.1 207.5 178.1 210.1Q176.2 212.8 176.2 217.3L176.2 217.3Q176.2 221.9 178.1 224.5Q180.1 227.1 183.5 227.1ZM221.4 235.3L221.4 235.3Q213.6 235.3 209.2 230.7Q204.8 226.1 204.8 218.0L204.8 218.0Q204.8 209.9 209.2 205.1Q213.5 200.3 221.0 200.3L221.0 200.3Q228.1 200.3 232.5 204.7Q236.8 209.1 236.8 215.9L236.8 215.9Q236.8 217.8 235.8 218.9Q234.8 219.9 232.9 219.9L232.9 219.9L213.8 219.9L213.8 220.3Q213.8 224.0 215.8 226.3Q217.9 228.5 221.4 228.5L221.4 228.5Q223.9 228.5 225.7 227.6Q227.5 226.7 229.4 224.5L229.4 224.5Q230.7 223.1 232.3 223.1L232.3 223.1Q233.9 223.1 234.9 224.1Q235.9 225.0 235.9 226.5L235.9 226.5Q235.9 227.6 235.3 228.7L235.3 228.7Q233.6 231.8 229.9 233.5Q226.3 235.3 221.4 235.3ZM213.8 214.3L213.8 214.3L228.1 214.3Q227.9 211.0 226 209.1Q224.1 207.1 221.1 207.1Q218.1 207.1 216.1 209.1Q214.1 211.1 213.8 214.3Z M271.5 235.3L271.5 235.3Q264.7 235.3 260.3 232.9Q255.8 230.5 254.4 226.6L254.4 226.6Q253.9 225.3 253.9 224.1L253.9 224.1Q253.9 222.2 255.0 221.1Q256.2 220.0 258.0 220.0L258.0 220.0Q259.5 220.0 260.5 220.6Q261.5 221.2 262.4 222.7L262.4 222.7Q263.4 225.2 265.9 226.5Q268.3 227.7 271.7 227.7L271.7 227.7Q275.5 227.7 277.8 226.1Q280.2 224.5 280.2 222.0L280.2 222.0Q280.2 219.7 278.4 218.4Q276.6 217.0 272.4 216.1L272.4 216.1L267.6 215.2Q254.2 212.6 254.2 202.4L254.2 202.4Q254.2 198.3 256.4 195.2Q258.6 192.1 262.5 190.4Q266.5 188.7 271.4 188.7L271.4 188.7Q277.7 188.7 282.0 191.1Q286.4 193.6 287.9 198.0L287.9 198.0Q288.3 199.0 288.3 200.1L288.3 200.1Q288.3 201.8 287.1 202.8Q286.0 203.9 284.2 203.9L284.2 203.9Q282.6 203.9 281.6 203.2Q280.5 202.6 279.7 201.1L279.7 201.1Q277.6 196.3 271.4 196.3L271.4 196.3Q267.9 196.3 265.8 197.8Q263.7 199.3 263.7 201.8L263.7 201.8Q263.7 203.9 265.5 205.2Q267.2 206.6 271.2 207.4L271.2 207.4L275.9 208.3Q283.1 209.8 286.4 212.8Q289.6 215.8 289.6 220.9L289.6 220.9Q289.6 227.6 284.8 231.4Q279.9 235.3 271.5 235.3ZM309.9 235.3L309.9 235.3Q302.3 235.3 297.8 230.6Q293.4 225.9 293.4 217.8L293.4 217.8Q293.4 209.8 297.8 205.1Q302.3 200.3 309.8 200.3L309.8 200.3Q314.8 200.3 318.7 202.5Q322.6 204.7 323.9 208.3L323.9 208.3Q324.4 209.6 324.4 210.6L324.4 210.6Q324.4 212.2 323.3 213.2Q322.2 214.1 320.5 214.1L320.5 214.1Q319.2 214.1 318.3 213.6Q317.4 213.0 316.7 211.8L316.7 211.8Q314.3 207.5 310.1 207.5L310.1 207.5Q306.6 207.5 304.6 210.2Q302.6 212.9 302.6 217.8L302.6 217.8Q302.6 222.7 304.6 225.4Q306.6 228.1 310.0 228.1L310.0 228.1Q314.3 228.1 316.6 224.2L316.6 224.2Q317.5 222.7 318.4 222.1Q319.3 221.5 320.8 221.5L320.8 221.5Q322.4 221.5 323.5 222.5Q324.6 223.5 324.6 225.1L324.6 225.1Q324.6 226.2 324 227.5L324 227.5Q322.5 231.0 318.6 233.1Q314.7 235.3 309.9 235.3ZM339.4 235.1L339.4 235.1Q334.5 235.1 331.3 232.2Q328.2 229.4 328.2 224.9L328.2 224.9Q328.2 220.4 331.5 217.8Q334.9 215.2 341.2 214.8L341.2 214.8L349.7 214.3L349.7 212.1Q349.7 209.8 348.1 208.5Q346.6 207.1 344.0 207.1L344.0 207.1Q341.9 207.1 340.5 207.9Q339.1 208.7 337.5 210.7L337.5 210.7Q336.0 212.4 333.9 212.4L333.9 212.4Q332.3 212.4 331.2 211.4Q330.1 210.4 330.1 208.9L330.1 208.9Q330.1 207.8 330.6 206.8L330.6 206.8Q331.7 203.8 335.5 202.1Q339.2 200.3 344.4 200.3L344.4 200.3Q350.9 200.3 354.8 203.4Q358.6 206.5 358.6 211.5L358.6 211.5L358.6 230.6Q358.6 232.8 357.4 234.0Q356.2 235.2 354.2 235.2L354.2 235.2Q352.3 235.2 351.1 234.2Q349.9 233.1 349.8 231.1L349.8 231.1L349.8 229.4L349.6 229.4Q348.3 232.1 345.4 233.6Q342.6 235.1 339.4 235.1ZM342.4 228.5L342.4 228.5Q345.4 228.5 347.5 226.7Q349.7 225.0 349.7 222.3L349.7 222.3L349.7 219.8L342.6 220.3Q340.0 220.5 338.6 221.6Q337.3 222.6 337.3 224.4L337.3 224.4Q337.3 226.3 338.7 227.4Q340.1 228.5 342.4 228.5ZM372.6 234.0Q371.3 235.2 369.3 235.2Q367.2 235.2 366.0 234.0Q364.7 232.7 364.7 230.5L364.7 230.5L364.7 193.6Q364.7 191.3 366.0 190.0Q367.2 188.8 369.3 188.8Q371.3 188.8 372.6 190.0Q373.8 191.3 373.8 193.6L373.8 193.6L373.8 230.5Q373.8 232.7 372.6 234.0ZM395.4 235.3L395.4 235.3Q387.6 235.3 383.2 230.7Q378.8 226.1 378.8 218.0L378.8 218.0Q378.8 209.9 383.2 205.1Q387.5 200.3 395.0 200.3L395.0 200.3Q402.1 200.3 406.5 204.7Q410.8 209.1 410.8 215.9L410.8 215.9Q410.8 217.8 409.8 218.9Q408.8 219.9 406.9 219.9L406.9 219.9L387.8 219.9L387.8 220.3Q387.8 224.0 389.8 226.3Q391.9 228.5 395.4 228.5L395.4 228.5Q397.9 228.5 399.7 227.6Q401.5 226.7 403.4 224.5L403.4 224.5Q404.7 223.1 406.3 223.1L406.3 223.1Q407.9 223.1 408.9 224.1Q409.9 225.0 409.9 226.5L409.9 226.5Q409.9 227.6 409.3 228.7L409.3 228.7Q407.6 231.8 403.9 233.5Q400.3 235.3 395.4 235.3ZM387.8 214.3L387.8 214.3L402.1 214.3Q401.9 211.0 400 209.1Q398.1 207.1 395.1 207.1Q392.1 207.1 390.1 209.1Q388.1 211.1 387.8 214.3Z M437.2 233.8Q435.9 235.1 433.7 235.1Q431.5 235.1 430.2 233.8Q429.0 232.6 429.0 230.2L429.0 230.2L429.0 193.8Q429.0 191.4 430.2 190.1Q431.5 188.8 433.7 188.8Q435.9 188.8 437.2 190.1Q438.4 191.4 438.4 193.8L438.4 193.8L438.4 209.4L438.7 209.4L455.7 190.9Q457.5 188.8 459.7 188.8L459.7 188.8Q461.6 188.8 462.9 190.1Q464.2 191.3 464.2 193.2Q464.2 195.0 462.5 196.8L462.5 196.8L450.1 209.8L463.6 226.2Q465.6 228.8 465.6 230.6L465.6 230.6Q465.6 232.6 464.3 233.9Q463 235.2 461.1 235.2L461.1 235.2Q459.6 235.2 458.5 234.6Q457.4 234.0 456.3 232.6L456.3 232.6L442.9 216.1L438.4 220.8L438.4 230.2Q438.4 232.6 437.2 233.8ZM478.3 234.0Q477.1 235.2 475.0 235.2Q473.0 235.2 471.7 234.0Q470.5 232.7 470.5 230.5L470.5 230.5L470.5 205.0Q470.5 202.8 471.6 201.6Q472.8 200.4 474.9 200.4Q476.9 200.4 478.2 201.6Q479.4 202.9 479.4 205.0L479.4 205.0L479.4 206.9L479.6 206.9Q482.4 200.4 489.9 200.4L489.9 200.4Q495.5 200.4 498.5 203.7Q501.6 207.1 501.6 213.0L501.6 213.0L501.6 230.5Q501.6 232.7 500.3 234.0Q499.1 235.2 497 235.2Q494.9 235.2 493.7 234.0Q492.4 232.7 492.4 230.5L492.4 230.5L492.4 214.9Q492.4 211.6 490.9 209.8Q489.3 208.0 486.3 208.0Q483.3 208.0 481.4 210.0Q479.6 212.1 479.6 215.3L479.6 215.3L479.6 230.5Q479.6 232.7 478.3 234.0ZM534.8 230.6Q530.4 235.3 522.7 235.3Q515.1 235.3 510.6 230.6Q506.1 226.0 506.1 217.8L506.1 217.8Q506.1 209.7 510.6 205.0Q515.2 200.3 522.7 200.3L522.7 200.3Q530.3 200.3 534.8 205.0Q539.3 209.7 539.3 217.8L539.3 217.8Q539.3 226.0 534.8 230.6ZM522.7 228.3L522.7 228.3Q526.1 228.3 528.1 225.6Q530.0 222.8 530.0 217.8L530.0 217.8Q530.0 212.9 528.1 210.1Q526.1 207.3 522.7 207.3Q519.3 207.3 517.4 210.1Q515.4 212.9 515.4 217.8L515.4 217.8Q515.4 222.8 517.3 225.6Q519.3 228.3 522.7 228.3ZM555.3 235.2L555.3 235.2Q552.9 235.2 551.5 234.1Q550.2 232.9 549.5 230.4L549.5 230.4L542.7 207.1Q542.2 205.4 542.2 204.3L542.2 204.3Q542.2 202.6 543.5 201.5Q544.7 200.4 546.6 200.4L546.6 200.4Q550.1 200.4 550.9 204.2L550.9 204.2L555.9 225.9L556.1 225.9L561.3 204.6Q562.2 200.4 566.4 200.4L566.4 200.4Q568.4 200.4 569.8 201.4Q571.1 202.5 571.5 204.6L571.5 204.6L576.7 225.9L576.9 225.9L581.9 204.2Q582.3 202.3 583.4 201.3Q584.4 200.4 586.1 200.4L586.1 200.4Q588.0 200.4 589.2 201.4Q590.4 202.5 590.4 204.2L590.4 204.2Q590.4 205.3 589.9 207.0L589.9 207.0L583.2 230.4Q582.5 232.9 581.1 234.1Q579.7 235.2 577.3 235.2L577.3 235.2Q574.8 235.2 573.4 234.1Q572.0 232.9 571.4 230.4L571.4 230.4L566.3 210.9L566.2 210.9L561.1 230.4Q560.5 232.9 559.1 234.1Q557.7 235.2 555.3 235.2ZM602.7 234.0Q601.4 235.2 599.3 235.2Q597.3 235.2 596.0 234.0Q594.8 232.7 594.8 230.5L594.8 230.5L594.8 193.6Q594.8 191.3 596.0 190.0Q597.3 188.8 599.3 188.8Q601.4 188.8 602.7 190.0Q603.9 191.3 603.9 193.6L603.9 193.6L603.9 230.5Q603.9 232.7 602.7 234.0ZM625.5 235.3L625.5 235.3Q617.6 235.3 613.2 230.7Q608.8 226.1 608.8 218.0L608.8 218.0Q608.8 209.9 613.2 205.1Q617.6 200.3 625.0 200.3L625.0 200.3Q632.1 200.3 636.5 204.7Q640.9 209.1 640.9 215.9L640.9 215.9Q640.9 217.8 639.9 218.9Q638.8 219.9 636.9 219.9L636.9 219.9L617.8 219.9L617.8 220.3Q617.8 224.0 619.9 226.3Q622.0 228.5 625.4 228.5L625.4 228.5Q627.9 228.5 629.8 227.6Q631.6 226.7 633.4 224.5L633.4 224.5Q634.8 223.1 636.4 223.1L636.4 223.1Q637.9 223.1 639.0 224.1Q640.0 225.0 640.0 226.5L640.0 226.5Q640.0 227.6 639.3 228.7L639.3 228.7Q637.7 231.8 634 233.5Q630.3 235.3 625.5 235.3ZM617.9 214.3L617.9 214.3L632.1 214.3Q632 211.0 630.1 209.1Q628.1 207.1 625.1 207.1Q622.1 207.1 620.1 209.1Q618.2 211.1 617.9 214.3ZM658.0 235.1L658.0 235.1Q651.8 235.1 648.1 230.4Q644.4 225.8 644.4 217.7L644.4 217.7Q644.4 209.8 648.1 205.1Q651.8 200.5 658.1 200.5L658.1 200.5Q661.7 200.5 664.4 202.2Q667.1 204.0 668.3 206.8L668.3 206.8L668.5 206.8L668.5 193.6Q668.5 191.3 669.8 190.0Q671 188.8 673.1 188.8Q675.1 188.8 676.4 190.0Q677.6 191.3 677.6 193.6L677.6 193.6L677.6 230.6Q677.6 232.8 676.4 234.0Q675.2 235.2 673.1 235.2L673.1 235.2Q671.1 235.2 669.8 234.0Q668.5 232.8 668.5 230.6L668.5 230.6L668.5 228.6L668.3 228.6Q667.2 231.6 664.5 233.3Q661.8 235.1 658.0 235.1ZM661.1 227.7L661.1 227.7Q664.5 227.7 666.5 225.1Q668.6 222.4 668.6 217.8L668.6 217.8Q668.6 213.2 666.5 210.5Q664.5 207.8 661.1 207.8L661.1 207.8Q657.7 207.8 655.7 210.5Q653.7 213.2 653.7 217.8L653.7 217.8Q653.7 222.4 655.7 225.1Q657.7 227.7 661.1 227.7ZM698.7 247.1L698.7 247.1Q693.7 247.1 690 245.4Q686.3 243.7 684.6 241.0L684.6 241.0Q683.9 239.8 683.9 238.5L683.9 238.5Q683.9 237.0 684.9 236.1Q685.9 235.1 687.6 235.1L687.6 235.1Q689.3 235.1 690.8 236.4L690.8 236.4Q694.6 240.1 698.7 240.1L698.7 240.1Q702.4 240.1 704.5 238.2Q706.6 236.4 706.6 233.2L706.6 233.2L706.6 227.8L706.4 227.8Q705.2 230.6 702.5 232.2Q699.7 233.8 696.1 233.8L696.1 233.8Q689.8 233.8 686.2 229.4Q682.5 224.9 682.5 217.2L682.5 217.2Q682.5 209.4 686.1 204.9Q689.8 200.5 696.3 200.5L696.3 200.5Q699.8 200.5 702.5 202.2Q705.1 203.9 706.5 206.8L706.5 206.8L706.7 206.8L706.7 205.0Q706.7 202.7 707.9 201.6Q709.2 200.4 711.3 200.4L711.3 200.4Q713.3 200.4 714.5 201.6Q715.8 202.7 715.8 205.0L715.8 205.0L715.8 233.2Q715.8 239.8 711.3 243.5Q706.8 247.2 698.7 247.1ZM699.2 227.1L699.2 227.1Q702.6 227.1 704.7 224.5Q706.7 221.9 706.7 217.4Q706.7 212.8 704.7 210.1Q702.6 207.5 699.2 207.5L699.2 207.5Q695.8 207.5 693.8 210.1Q691.8 212.8 691.8 217.3L691.8 217.3Q691.8 221.9 693.8 224.5Q695.8 227.1 699.2 227.1ZM737.1 235.3L737.1 235.3Q729.3 235.3 724.9 230.7Q720.5 226.1 720.5 218.0L720.5 218.0Q720.5 209.9 724.8 205.1Q729.2 200.3 736.7 200.3L736.7 200.3Q743.8 200.3 748.1 204.7Q752.5 209.1 752.5 215.9L752.5 215.9Q752.5 217.8 751.5 218.9Q750.5 219.9 748.6 219.9L748.6 219.9L729.4 219.9L729.4 220.3Q729.4 224.0 731.5 226.3Q733.6 228.5 737.1 228.5L737.1 228.5Q739.6 228.5 741.4 227.6Q743.2 226.7 745.1 224.5L745.1 224.5Q746.4 223.1 748.0 223.1L748.0 223.1Q749.6 223.1 750.6 224.1Q751.6 225.0 751.6 226.5L751.6 226.5Q751.6 227.6 751.0 228.7L751.0 228.7Q749.3 231.8 745.6 233.5Q741.9 235.3 737.1 235.3ZM729.5 214.3L729.5 214.3L743.8 214.3Q743.6 211.0 741.7 209.1Q739.8 207.1 736.8 207.1Q733.8 207.1 731.8 209.1Q729.8 211.1 729.5 214.3Z M791.0 235.3L791.0 235.3Q780.8 235.3 775.0 229.1Q769.3 222.8 769.3 211.9L769.3 211.9Q769.3 201.1 775.0 194.9Q780.8 188.7 790.8 188.7L790.8 188.7Q797.1 188.7 801.9 191.3Q806.8 194.0 808.7 198.3L808.7 198.3Q809.4 199.7 809.4 201.2L809.4 201.2Q809.4 203.0 808.3 204.1Q807.1 205.2 805.3 205.2L805.3 205.2Q802.4 205.2 800.7 202.5L800.7 202.5Q797.4 196.5 790.8 196.5L790.8 196.5Q785.2 196.5 782.0 200.5Q778.9 204.6 778.9 211.7L778.9 211.7Q778.9 219.1 782.2 223.3Q785.5 227.5 791.1 227.5L791.1 227.5Q795.8 227.5 798.7 224.9Q801.6 222.3 801.8 218.1L801.8 218.1L801.8 217.4L795.2 217.4Q793.5 217.4 792.5 216.5Q791.4 215.6 791.4 214.0Q791.4 212.4 792.5 211.4Q793.5 210.5 795.2 210.5L795.2 210.5L806.3 210.5Q808.5 210.5 809.7 211.8Q811.0 213.1 811.0 215.4L811.0 215.4L811.0 216.1Q811.0 224.9 805.7 230.1Q800.4 235.3 791.0 235.3ZM821.0 235.2L821.0 235.2Q818.9 235.2 817.6 234.0Q816.4 232.7 816.4 230.5L816.4 230.5L816.4 205.0Q816.4 202.8 817.6 201.6Q818.8 200.4 820.8 200.4L820.8 200.4Q822.8 200.4 823.9 201.6Q825.1 202.8 825.1 205.0L825.1 205.0L825.1 207.1L825.3 207.1Q826.0 204.1 827.9 202.3Q829.8 200.5 832.3 200.5L832.3 200.5Q834.1 200.5 835.1 201.4L835.1 201.4Q836.4 202.4 836.4 204.7L836.4 204.7Q836.4 206.9 835.1 208.0L835.1 208.0Q833.8 209.2 831.2 209.2L831.2 209.2Q828.2 209.2 826.8 210.8Q825.5 212.5 825.5 215.6L825.5 215.6L825.5 230.5Q825.5 232.7 824.3 234.0Q823.1 235.2 821.0 235.2ZM849.6 235.1L849.6 235.1Q844.8 235.1 841.6 232.2Q838.4 229.4 838.4 224.9L838.4 224.9Q838.4 220.4 841.8 217.8Q845.1 215.2 851.4 214.8L851.4 214.8L859.9 214.3L859.9 212.1Q859.9 209.8 858.4 208.5Q856.8 207.1 854.3 207.1L854.3 207.1Q852.2 207.1 850.7 207.9Q849.3 208.7 847.8 210.7L847.8 210.7Q846.3 212.4 844.1 212.4L844.1 212.4Q842.5 212.4 841.4 211.4Q840.3 210.4 840.3 208.9L840.3 208.9Q840.3 207.8 840.8 206.8L840.8 206.8Q841.9 203.8 845.7 202.1Q849.4 200.3 854.7 200.3L854.7 200.3Q861.1 200.3 865.0 203.4Q868.8 206.5 868.8 211.5L868.8 211.5L868.8 230.6Q868.8 232.8 867.6 234.0Q866.4 235.2 864.4 235.2L864.4 235.2Q862.5 235.2 861.3 234.2Q860.2 233.1 860.0 231.1L860.0 231.1L860.0 229.4L859.8 229.4Q858.5 232.1 855.6 233.6Q852.8 235.1 849.6 235.1ZM852.6 228.5L852.6 228.5Q855.6 228.5 857.8 226.7Q859.9 225.0 859.9 222.3L859.9 222.3L859.9 219.8L852.8 220.3Q850.3 220.5 848.9 221.6Q847.5 222.6 847.5 224.4L847.5 224.4Q847.5 226.3 848.9 227.4Q850.3 228.5 852.6 228.5ZM882.6 245.3Q881.3 246.5 879.3 246.5Q877.2 246.5 876.0 245.3Q874.7 244.0 874.7 241.7L874.7 241.7L874.7 205.1Q874.7 202.8 876.0 201.6Q877.2 200.4 879.2 200.4Q881.3 200.4 882.5 201.6Q883.7 202.8 883.7 205.1L883.7 205.1L883.7 206.9L883.9 206.9Q885.3 203.9 888.0 202.2Q890.7 200.5 894.3 200.5L894.3 200.5Q900.7 200.5 904.3 205.1Q908 209.7 908 217.8L908 217.8Q908 225.9 904.4 230.5Q900.8 235.1 894.4 235.1L894.4 235.1Q890.8 235.1 888.1 233.4Q885.4 231.8 884.0 228.9L884.0 228.9L883.8 228.9L883.8 241.7Q883.8 244.0 882.6 245.3ZM891.2 227.7L891.2 227.7Q894.6 227.7 896.6 225.1Q898.7 222.4 898.7 217.8Q898.7 213.2 896.6 210.5Q894.6 207.8 891.2 207.8L891.2 207.8Q887.9 207.8 885.8 210.6Q883.8 213.3 883.8 217.8L883.8 217.8Q883.8 222.3 885.8 225.0Q887.8 227.7 891.2 227.7ZM920.8 234.0Q919.5 235.2 917.5 235.2Q915.4 235.2 914.2 234.0Q912.9 232.7 912.9 230.5L912.9 230.5L912.9 193.5Q912.9 191.3 914.1 190.0Q915.3 188.8 917.4 188.8L917.4 188.8Q919.5 188.8 920.7 190.0Q921.9 191.2 921.9 193.5L921.9 193.5L921.9 207.0L922.1 207.0Q923.4 203.8 926.1 202.1Q928.8 200.4 932.6 200.4L932.6 200.4Q938.1 200.4 941.2 203.8Q944.3 207.1 944.3 213.0L944.3 213.0L944.3 230.5Q944.3 232.7 943.0 234.0Q941.8 235.2 939.7 235.2Q937.7 235.2 936.4 234.0Q935.2 232.7 935.2 230.5L935.2 230.5L935.2 214.9Q935.2 211.6 933.5 209.8Q931.9 208.0 928.9 208.0L928.9 208.0Q925.7 208.0 923.9 210.0Q922.0 212.1 922.0 215.4L922.0 215.4L922.0 230.5Q922.0 232.7 920.8 234.0ZM963.8 235.3L963.8 235.3Q958.1 235.3 954.3 233.4Q950.6 231.6 949.3 228.6L949.3 228.6Q949 227.6 949 226.9L949 226.9Q949 225.3 950.0 224.4Q951.1 223.4 952.7 223.4L952.7 223.4Q954.8 223.4 956.7 225.5L956.7 225.5Q958.0 227.2 959.7 228.1Q961.4 228.9 964.0 228.9L964.0 228.9Q966.5 228.9 968.0 227.9Q969.4 226.9 969.4 225.3L969.4 225.3Q969.4 223.9 968.4 223.1Q967.4 222.3 965 221.8L965 221.8L959.4 220.6Q954.5 219.5 952.0 217.1Q949.5 214.6 949.5 210.9L949.5 210.9Q949.5 206.1 953.4 203.2Q957.2 200.3 963.7 200.3L963.7 200.3Q968.8 200.3 972.4 202.3Q976 204.3 976.8 207.3L976.8 207.3Q977.1 208.1 977.1 208.6L977.1 208.6Q977.1 210.1 976.2 210.9Q975.3 211.7 973.6 211.7L973.6 211.7Q971.4 211.7 970.3 210.3L970.3 210.3Q968.9 208.6 967.4 207.7Q965.8 206.7 963.6 206.7L963.6 206.7Q961.3 206.7 959.8 207.7Q958.3 208.7 958.3 210.4L958.3 210.4Q958.3 211.7 959.4 212.6Q960.5 213.5 963.0 214.0L963.0 214.0L968.5 215.2Q973.8 216.3 976.2 218.4Q978.6 220.6 978.6 224.3L978.6 224.3Q978.6 229.3 974.5 232.3Q970.4 235.3 963.8 235.3Z M1005.6 235.1L1005.6 235.1Q1000.8 235.1 997.6 232.2Q994.4 229.4 994.4 224.9L994.4 224.9Q994.4 220.4 997.8 217.8Q1001.2 215.2 1007.5 214.8L1007.5 214.8L1015.9 214.3L1015.9 212.1Q1015.9 209.8 1014.4 208.5Q1012.9 207.1 1010.3 207.1L1010.3 207.1Q1008.2 207.1 1006.8 207.9Q1005.3 208.7 1003.8 210.7L1003.8 210.7Q1002.3 212.4 1000.2 212.4L1000.2 212.4Q998.5 212.4 997.4 211.4Q996.3 210.4 996.3 208.9L996.3 208.9Q996.3 207.8 996.8 206.8L996.8 206.8Q998.0 203.8 1001.7 202.1Q1005.5 200.3 1010.7 200.3L1010.7 200.3Q1017.1 200.3 1021 203.4Q1024.9 206.5 1024.9 211.5L1024.9 211.5L1024.9 230.6Q1024.9 232.8 1023.7 234.0Q1022.4 235.2 1020.4 235.2L1020.4 235.2Q1018.5 235.2 1017.4 234.2Q1016.2 233.1 1016.1 231.1L1016.1 231.1L1016.1 229.4L1015.9 229.4Q1014.5 232.1 1011.7 233.6Q1008.8 235.1 1005.6 235.1ZM1008.6 228.5L1008.6 228.5Q1011.7 228.5 1013.8 226.7Q1015.9 225.0 1015.9 222.3L1015.9 222.3L1015.9 219.8L1008.8 220.3Q1006.3 220.5 1004.9 221.6Q1003.5 222.6 1003.5 224.4L1003.5 224.4Q1003.5 226.3 1004.9 227.4Q1006.3 228.5 1008.6 228.5ZM1044.4 235.3L1044.4 235.3Q1038.8 235.3 1035 233.4Q1031.2 231.6 1030 228.6L1030 228.6Q1029.7 227.6 1029.7 226.9L1029.7 226.9Q1029.7 225.3 1030.7 224.4Q1031.8 223.4 1033.3 223.4L1033.3 223.4Q1035.5 223.4 1037.3 225.5L1037.3 225.5Q1038.7 227.2 1040.4 228.1Q1042.1 228.9 1044.6 228.9L1044.6 228.9Q1047.1 228.9 1048.6 227.9Q1050.1 226.9 1050.1 225.3L1050.1 225.3Q1050.1 223.9 1049.1 223.1Q1048.1 222.3 1045.7 221.8L1045.7 221.8L1040.0 220.6Q1035.1 219.5 1032.6 217.1Q1030.2 214.6 1030.2 210.9L1030.2 210.9Q1030.2 206.1 1034.0 203.2Q1037.9 200.3 1044.4 200.3L1044.4 200.3Q1049.4 200.3 1053.0 202.3Q1056.7 204.3 1057.5 207.3L1057.5 207.3Q1057.7 208.1 1057.7 208.6L1057.7 208.6Q1057.7 210.1 1056.8 210.9Q1055.9 211.7 1054.2 211.7L1054.2 211.7Q1052.1 211.7 1050.9 210.3L1050.9 210.3Q1049.5 208.6 1048.0 207.7Q1046.5 206.7 1044.2 206.7L1044.2 206.7Q1041.9 206.7 1040.4 207.7Q1039.0 208.7 1039.0 210.4L1039.0 210.4Q1039.0 211.7 1040.1 212.6Q1041.2 213.5 1043.6 214.0L1043.6 214.0L1049.2 215.2Q1054.5 216.3 1056.9 218.4Q1059.2 220.6 1059.2 224.3L1059.2 224.3Q1059.2 229.3 1055.1 232.3Q1051.1 235.3 1044.4 235.3Z M1086.3 235.1L1086.3 235.1Q1081.4 235.1 1078.3 232.2Q1075.1 229.4 1075.1 224.9L1075.1 224.9Q1075.1 220.4 1078.4 217.8Q1081.8 215.2 1088.1 214.8L1088.1 214.8L1096.6 214.3L1096.6 212.1Q1096.6 209.8 1095.0 208.5Q1093.5 207.1 1090.9 207.1L1090.9 207.1Q1088.8 207.1 1087.4 207.9Q1086.0 208.7 1084.4 210.7L1084.4 210.7Q1082.9 212.4 1080.8 212.4L1080.8 212.4Q1079.2 212.4 1078.1 211.4Q1077 210.4 1077 208.9L1077 208.9Q1077 207.8 1077.5 206.8L1077.5 206.8Q1078.6 203.8 1082.4 202.1Q1086.1 200.3 1091.3 200.3L1091.3 200.3Q1097.8 200.3 1101.7 203.4Q1105.5 206.5 1105.5 211.5L1105.5 211.5L1105.5 230.6Q1105.5 232.8 1104.3 234.0Q1103.1 235.2 1101.1 235.2L1101.1 235.2Q1099.2 235.2 1098.0 234.2Q1096.8 233.1 1096.7 231.1L1096.7 231.1L1096.7 229.4L1096.5 229.4Q1095.2 232.1 1092.3 233.6Q1089.5 235.1 1086.3 235.1ZM1089.3 228.5L1089.3 228.5Q1092.3 228.5 1094.4 226.7Q1096.6 225.0 1096.6 222.3L1096.6 222.3L1096.6 219.8L1089.5 220.3Q1086.9 220.5 1085.5 221.6Q1084.2 222.6 1084.2 224.4L1084.2 224.4Q1084.2 226.3 1085.6 227.4Q1087.0 228.5 1089.3 228.5Z M94.7 307.4Q93.5 308.7 91.3 308.7Q89.0 308.7 87.8 307.4Q86.5 306.1 86.5 303.8L86.5 303.8L86.5 270.9L77.2 270.9Q75.3 270.9 74.1 269.8Q72.9 268.8 72.9 267.0Q72.9 265.1 74.1 264.1Q75.3 263.1 77.2 263.1L77.2 263.1L105.3 263.1Q107.3 263.1 108.4 264.1Q109.6 265.1 109.6 267.0Q109.6 268.8 108.4 269.8Q107.2 270.9 105.3 270.9L105.3 270.9L96.0 270.9L96.0 303.8Q96.0 306.1 94.7 307.4ZM141.0 304.2Q136.5 308.9 128.8 308.9Q121.2 308.9 116.7 304.2Q112.3 299.6 112.3 291.4L112.3 291.4Q112.3 283.3 116.8 278.6Q121.3 273.9 128.8 273.9L128.8 273.9Q136.4 273.9 140.9 278.6Q145.4 283.3 145.4 291.4L145.4 291.4Q145.4 299.6 141.0 304.2ZM128.8 301.9L128.8 301.9Q132.2 301.9 134.2 299.1Q136.2 296.4 136.2 291.4L136.2 291.4Q136.2 286.5 134.2 283.7Q132.2 280.9 128.8 280.9Q125.5 280.9 123.5 283.7Q121.5 286.5 121.5 291.4L121.5 291.4Q121.5 296.4 123.5 299.1Q125.4 301.9 128.8 301.9ZM177.6 304.2Q173.2 308.9 165.5 308.9Q157.8 308.9 153.4 304.2Q148.9 299.6 148.9 291.4L148.9 291.4Q148.9 283.3 153.4 278.6Q157.9 273.9 165.5 273.9L165.5 273.9Q173.1 273.9 177.6 278.6Q182.1 283.3 182.1 291.4L182.1 291.4Q182.1 299.6 177.6 304.2ZM165.5 301.9L165.5 301.9Q168.9 301.9 170.8 299.1Q172.8 296.4 172.8 291.4L172.8 291.4Q172.8 286.5 170.8 283.7Q168.9 280.9 165.5 280.9Q162.1 280.9 160.1 283.7Q158.2 286.5 158.2 291.4L158.2 291.4Q158.2 296.4 160.1 299.1Q162.1 301.9 165.5 301.9ZM194.9 307.6Q193.6 308.8 191.6 308.8Q189.5 308.8 188.3 307.6Q187 306.3 187 304.1L187 304.1L187 267.1Q187 264.9 188.3 263.6Q189.5 262.4 191.6 262.4Q193.6 262.4 194.9 263.6Q196.1 264.9 196.1 267.1L196.1 267.1L196.1 304.1Q196.1 306.3 194.9 307.6Z M225.3 307.6Q224.0 308.8 221.9 308.8Q219.8 308.8 218.6 307.6Q217.4 306.4 217.4 304.1L217.4 304.1L217.4 281.5L215.6 281.5Q214.2 281.5 213.2 280.6Q212.3 279.7 212.3 278.1Q212.3 276.6 213.2 275.7Q214.2 274.8 215.6 274.8L215.6 274.8L217.4 274.8L217.4 272.3Q217.4 267.4 219.8 265.0Q222.1 262.7 226.9 262.6L226.9 262.6Q230.4 262.6 232.1 263.6Q233.8 264.6 233.8 266.3L233.8 266.3Q233.8 268.2 232.0 268.7L232.0 268.7Q231.1 269.0 230.2 269.0L230.2 269.0Q228.1 269.1 227.2 269.9Q226.3 270.8 226.3 272.7L226.3 272.7L226.3 274.8L230.1 274.8Q231.6 274.8 232.5 275.7Q233.5 276.6 233.5 278.1Q233.5 279.7 232.5 280.6Q231.6 281.5 230.1 281.5L230.1 281.5L226.5 281.5L226.5 304.1Q226.5 306.4 225.3 307.6ZM265.2 304.2Q260.8 308.9 253.1 308.9Q245.4 308.9 241.0 304.2Q236.5 299.6 236.5 291.4L236.5 291.4Q236.5 283.3 241.0 278.6Q245.5 273.9 253.1 273.9L253.1 273.9Q260.7 273.9 265.2 278.6Q269.7 283.3 269.7 291.4L269.7 291.4Q269.7 299.6 265.2 304.2ZM253.1 301.9L253.1 301.9Q256.5 301.9 258.4 299.1Q260.4 296.4 260.4 291.4L260.4 291.4Q260.4 286.5 258.4 283.7Q256.5 280.9 253.1 280.9Q249.7 280.9 247.7 283.7Q245.8 286.5 245.8 291.4L245.8 291.4Q245.8 296.4 247.7 299.1Q249.7 301.9 253.1 301.9ZM278.9 308.8L278.9 308.8Q276.8 308.8 275.6 307.6Q274.4 306.3 274.4 304.1L274.4 304.1L274.4 278.6Q274.4 276.4 275.6 275.2Q276.8 274.0 278.8 274.0L278.8 274.0Q280.7 274.0 281.9 275.2Q283.1 276.4 283.1 278.6L283.1 278.6L283.1 280.7L283.3 280.7Q283.9 277.6 285.8 275.9Q287.7 274.1 290.3 274.1L290.3 274.1Q292.1 274.1 293.1 275.0L293.1 275.0Q294.4 276.0 294.4 278.3L294.4 278.3Q294.4 280.5 293.1 281.6L293.1 281.6Q291.8 282.8 289.1 282.8L289.1 282.8Q286.1 282.8 284.8 284.4Q283.5 286.1 283.5 289.2L283.5 289.2L283.5 304.1Q283.5 306.3 282.3 307.6Q281.1 308.8 278.9 308.8Z M337.3 308.1L315.8 308.1Q313.6 308.1 312.3 306.9Q311.1 305.6 311.1 303.2L311.1 303.2L311.1 268.0Q311.1 265.6 312.3 264.4Q313.6 263.1 315.8 263.1L315.8 263.1L337.3 263.1Q339.2 263.1 340.4 264.1Q341.5 265.1 341.5 267.0Q341.5 268.8 340.4 269.8Q339.2 270.9 337.3 270.9L337.3 270.9L320.5 270.9L320.5 281.7L336.4 281.7Q338.2 281.7 339.3 282.7Q340.4 283.7 340.4 285.3L340.4 285.3Q340.4 287.0 339.3 288.0Q338.2 289.0 336.4 289.0L336.4 289.0L320.5 289.0L320.5 300.3L337.3 300.3Q339.2 300.3 340.4 301.4Q341.5 302.4 341.5 304.2Q341.5 306.1 340.4 307.1Q339.2 308.1 337.3 308.1L337.3 308.1ZM354.9 307.6Q353.6 308.8 351.6 308.8Q349.5 308.8 348.3 307.6Q347 306.3 347 304.1L347 304.1L347 278.6Q347 276.4 348.2 275.2Q349.3 274.0 351.4 274.0Q353.5 274.0 354.7 275.2Q356.0 276.5 356.0 278.6L356.0 278.6L356.0 280.5L356.2 280.5Q358.9 274.0 366.5 274.0L366.5 274.0Q372.0 274.0 375.1 277.3Q378.1 280.6 378.1 286.6L378.1 286.6L378.1 304.1Q378.1 306.3 376.8 307.6Q375.6 308.8 373.5 308.8Q371.5 308.8 370.2 307.6Q369.0 306.3 369.0 304.1L369.0 304.1L369.0 288.5Q369.0 285.1 367.4 283.4Q365.8 281.6 362.8 281.6Q359.8 281.6 358.0 283.6Q356.1 285.6 356.1 288.9L356.1 288.9L356.1 304.1Q356.1 306.3 354.9 307.6ZM392.0 307.6Q390.7 308.8 388.7 308.8Q386.6 308.8 385.3 307.6Q384.1 306.3 384.1 304.1L384.1 304.1L384.1 267.1Q384.1 264.9 385.3 263.6Q386.5 262.4 388.6 262.4L388.6 262.4Q390.7 262.4 391.9 263.6Q393.1 264.8 393.1 267.1L393.1 267.1L393.1 280.6L393.3 280.6Q394.6 277.4 397.3 275.7Q400 274.0 403.8 274.0L403.8 274.0Q409.3 274.0 412.4 277.4Q415.5 280.7 415.5 286.6L415.5 286.6L415.5 304.1Q415.5 306.3 414.2 307.6Q413.0 308.8 410.9 308.8Q408.8 308.8 407.6 307.6Q406.3 306.3 406.3 304.1L406.3 304.1L406.3 288.5Q406.3 285.2 404.7 283.4Q403.1 281.6 400.1 281.6L400.1 281.6Q396.9 281.6 395.0 283.6Q393.2 285.7 393.2 289.0L393.2 289.0L393.2 304.1Q393.2 306.3 392.0 307.6ZM431.2 308.7L431.2 308.7Q426.3 308.7 423.2 305.8Q420.0 303.0 420.0 298.5L420.0 298.5Q420.0 294.0 423.3 291.4Q426.7 288.8 433.0 288.4L433.0 288.4L441.5 287.9L441.5 285.7Q441.5 283.4 440.0 282.1Q438.4 280.7 435.8 280.7L435.8 280.7Q433.8 280.7 432.3 281.5Q430.9 282.3 429.3 284.3L429.3 284.3Q427.8 286.0 425.7 286.0L425.7 286.0Q424.1 286.0 423.0 285.0Q421.9 284.0 421.9 282.5L421.9 282.5Q421.9 281.4 422.4 280.4L422.4 280.4Q423.5 277.4 427.3 275.7Q431.0 273.9 436.3 273.9L436.3 273.9Q442.7 273.9 446.6 277.0Q450.4 280.1 450.4 285.1L450.4 285.1L450.4 304.2Q450.4 306.4 449.2 307.6Q448 308.8 446 308.8L446 308.8Q444.1 308.8 442.9 307.8Q441.8 306.7 441.6 304.7L441.6 304.7L441.6 303.0L441.4 303.0Q440.1 305.6 437.2 307.2Q434.4 308.7 431.2 308.7ZM434.2 302.1L434.2 302.1Q437.2 302.1 439.3 300.3Q441.5 298.6 441.5 295.9L441.5 295.9L441.5 293.4L434.4 293.9Q431.8 294.1 430.5 295.1Q429.1 296.2 429.1 298.0L429.1 298.0Q429.1 299.9 430.5 301.0Q431.9 302.1 434.2 302.1ZM464.2 307.6Q462.9 308.8 460.9 308.8Q458.8 308.8 457.6 307.6Q456.3 306.3 456.3 304.1L456.3 304.1L456.3 278.6Q456.3 276.4 457.5 275.2Q458.7 274.0 460.7 274.0Q462.8 274.0 464.0 275.2Q465.3 276.5 465.3 278.6L465.3 278.6L465.3 280.5L465.5 280.5Q468.2 274.0 475.8 274.0L475.8 274.0Q481.3 274.0 484.4 277.3Q487.4 280.6 487.4 286.6L487.4 286.6L487.4 304.1Q487.4 306.3 486.2 307.6Q484.9 308.8 482.8 308.8Q480.8 308.8 479.5 307.6Q478.3 306.3 478.3 304.1L478.3 304.1L478.3 288.5Q478.3 285.1 476.7 283.4Q475.2 281.6 472.1 281.6Q469.1 281.6 467.3 283.6Q465.4 285.6 465.4 288.9L465.4 288.9L465.4 304.1Q465.4 306.3 464.2 307.6ZM508.5 308.9L508.5 308.9Q500.9 308.9 496.4 304.2Q492.0 299.5 492.0 291.4L492.0 291.4Q492.0 283.4 496.4 278.6Q500.8 273.9 508.4 273.9L508.4 273.9Q513.4 273.9 517.3 276.1Q521.2 278.3 522.5 281.9L522.5 281.9Q523.0 283.2 523.0 284.2L523.0 284.2Q523.0 285.8 521.9 286.8Q520.8 287.7 519.1 287.7L519.1 287.7Q517.8 287.7 516.9 287.2Q516 286.6 515.3 285.4L515.3 285.4Q512.9 281.1 508.7 281.1L508.7 281.1Q505.2 281.1 503.2 283.8Q501.2 286.5 501.2 291.4L501.2 291.4Q501.2 296.3 503.2 299.0Q505.2 301.7 508.6 301.7L508.6 301.7Q512.8 301.7 515.2 297.8L515.2 297.8Q516.1 296.3 517.0 295.7Q517.9 295.1 519.3 295.1L519.3 295.1Q521.0 295.1 522.1 296.1Q523.2 297.1 523.2 298.7L523.2 298.7Q523.2 299.8 522.6 301.1L522.6 301.1Q521.1 304.6 517.2 306.7Q513.3 308.9 508.5 308.9ZM543.5 308.9L543.5 308.9Q535.6 308.9 531.2 304.3Q526.8 299.7 526.8 291.6L526.8 291.6Q526.8 283.5 531.2 278.7Q535.6 273.9 543.0 273.9L543.0 273.9Q550.1 273.9 554.5 278.3Q558.9 282.6 558.9 289.5L558.9 289.5Q558.9 291.4 557.9 292.5Q556.8 293.5 554.9 293.5L554.9 293.5L535.8 293.5L535.8 293.9Q535.8 297.6 537.9 299.9Q540.0 302.1 543.4 302.1L543.4 302.1Q545.9 302.1 547.8 301.2Q549.6 300.3 551.4 298.1L551.4 298.1Q552.8 296.7 554.4 296.7L554.4 296.7Q555.9 296.7 557.0 297.6Q558.0 298.6 558.0 300.1L558.0 300.1Q558.0 301.1 557.3 302.3L557.3 302.3Q555.7 305.4 552 307.1Q548.3 308.9 543.5 308.9ZM535.9 287.9L535.9 287.9L550.1 287.9Q550 284.6 548.1 282.6Q546.1 280.7 543.1 280.7Q540.1 280.7 538.1 282.7Q536.2 284.7 535.9 287.9ZM576.0 308.7L576.0 308.7Q569.8 308.7 566.1 304.0Q562.4 299.4 562.4 291.3L562.4 291.3Q562.4 283.4 566.1 278.7Q569.8 274.1 576.1 274.1L576.1 274.1Q579.7 274.1 582.4 275.8Q585.1 277.6 586.3 280.4L586.3 280.4L586.5 280.4L586.5 267.1Q586.5 264.9 587.8 263.6Q589 262.4 591.1 262.4Q593.1 262.4 594.4 263.6Q595.6 264.9 595.6 267.1L595.6 267.1L595.6 304.2Q595.6 306.4 594.4 307.6Q593.2 308.8 591.1 308.8L591.1 308.8Q589.1 308.8 587.8 307.6Q586.5 306.4 586.5 304.2L586.5 304.2L586.5 302.2L586.3 302.2Q585.2 305.1 582.5 306.9Q579.8 308.7 576.0 308.7ZM579.1 301.3L579.1 301.3Q582.5 301.3 584.5 298.7Q586.6 296.0 586.6 291.4L586.6 291.4Q586.6 286.8 584.5 284.1Q582.5 281.4 579.1 281.4L579.1 281.4Q575.7 281.4 573.7 284.1Q571.7 286.8 571.7 291.4L571.7 291.4Q571.7 296.0 573.7 298.7Q575.7 301.3 579.1 301.3Z M623.3 307.5Q622.1 308.8 619.9 308.8Q617.7 308.8 616.4 307.5Q615.2 306.2 615.2 303.9L615.2 303.9L615.2 268.0Q615.2 265.6 616.4 264.4Q617.7 263.1 619.9 263.1L619.9 263.1L633.6 263.1Q641.3 263.1 645.6 266.9Q649.9 270.7 649.9 277.4L649.9 277.4Q649.9 281.7 647.9 285.1Q645.9 288.4 642.2 290.0L642.2 290.0L648.7 301.2Q649.7 303.0 649.7 304.5L649.7 304.5Q649.7 306.4 648.3 307.6Q647 308.8 644.9 308.8L644.9 308.8Q643.3 308.8 642.3 308.1Q641.3 307.3 640.1 305.2L640.1 305.2L632.6 291.6L624.6 291.6L624.6 303.9Q624.6 306.2 623.3 307.5ZM624.6 270.4L624.6 284.8L632.7 284.8Q636.3 284.8 638.3 282.9Q640.3 281.0 640.3 277.6L640.3 277.6Q640.3 274.3 638.2 272.4Q636.1 270.4 632.6 270.4L632.6 270.4L624.6 270.4ZM682.8 304.2Q678.4 308.9 670.7 308.9Q663.1 308.9 658.6 304.2Q654.1 299.6 654.1 291.4L654.1 291.4Q654.1 283.3 658.6 278.6Q663.2 273.9 670.7 273.9L670.7 273.9Q678.3 273.9 682.8 278.6Q687.3 283.3 687.3 291.4L687.3 291.4Q687.3 299.6 682.8 304.2ZM670.7 301.9L670.7 301.9Q674.1 301.9 676.1 299.1Q678.0 296.4 678.0 291.4L678.0 291.4Q678.0 286.5 676.1 283.7Q674.1 280.9 670.7 280.9Q667.3 280.9 665.4 283.7Q663.4 286.5 663.4 291.4L663.4 291.4Q663.4 296.4 665.3 299.1Q667.3 301.9 670.7 301.9ZM696.7 308.8L696.7 308.8Q694.7 308.8 693.4 307.6Q692.2 306.4 692.2 304.2L692.2 304.2L692.2 267.1Q692.2 264.9 693.5 263.6Q694.7 262.4 696.8 262.4Q698.8 262.4 700.1 263.6Q701.3 264.9 701.3 267.1L701.3 267.1L701.3 280.5L701.5 280.5Q702.9 277.5 705.6 275.8Q708.3 274.1 711.9 274.1L711.9 274.1Q718.3 274.1 721.9 278.7Q725.5 283.3 725.5 291.4Q725.5 299.5 721.9 304.1Q718.3 308.7 711.9 308.7L711.9 308.7Q708.3 308.7 705.6 307.0Q702.8 305.4 701.4 302.4L701.4 302.4L701.2 302.4L701.2 304.2Q701.2 306.4 700.0 307.6Q698.8 308.8 696.7 308.8ZM708.8 301.3L708.8 301.3Q712.2 301.3 714.2 298.7Q716.2 296.0 716.2 291.4L716.2 291.4Q716.2 286.8 714.2 284.1Q712.2 281.4 708.8 281.4L708.8 281.4Q705.4 281.4 703.4 284.2Q701.3 286.9 701.3 291.4L701.3 291.4Q701.3 295.9 703.4 298.6Q705.4 301.3 708.8 301.3ZM757.7 304.2Q753.3 308.9 745.6 308.9Q737.9 308.9 733.5 304.2Q729 299.6 729 291.4L729 291.4Q729 283.3 733.5 278.6Q738.0 273.9 745.6 273.9L745.6 273.9Q753.2 273.9 757.7 278.6Q762.2 283.3 762.2 291.4L762.2 291.4Q762.2 299.6 757.7 304.2ZM745.6 301.9L745.6 301.9Q749.0 301.9 750.9 299.1Q752.9 296.4 752.9 291.4L752.9 291.4Q752.9 286.5 750.9 283.7Q749.0 280.9 745.6 280.9Q742.2 280.9 740.2 283.7Q738.3 286.5 738.3 291.4L738.3 291.4Q738.3 296.4 740.2 299.1Q742.2 301.9 745.6 301.9ZM769.3 299.6L769.3 299.6L769.3 281.5L767.6 281.5Q765.9 281.5 765.0 280.6Q764.0 279.7 764.0 278.1Q764.0 276.5 765.0 275.6Q765.9 274.6 767.6 274.6L767.6 274.6L769.3 274.6L769.3 270.9Q769.3 268.7 770.5 267.4Q771.8 266.2 773.9 266.2Q776 266.2 777.2 267.4Q778.4 268.7 778.4 270.9L778.4 270.9L778.4 274.6L781.7 274.6Q783.3 274.6 784.2 275.6Q785.2 276.5 785.2 278.1Q785.2 279.6 784.2 280.6Q783.3 281.5 781.7 281.5L781.7 281.5L778.4 281.5L778.4 297.6Q778.4 299.3 779.1 300.1Q779.8 301.0 781.2 301.1L781.2 301.1L781.8 301.1Q783.6 301.3 784.4 302.1Q785.3 302.9 785.3 304.5L785.3 304.5Q785.3 306.4 783.5 307.5Q781.8 308.5 778.8 308.5L778.8 308.5L778.5 308.5Q769.3 308.5 769.3 299.6ZM797.8 269.1Q796.4 270.5 794.3 270.5Q792.3 270.5 790.9 269.1Q789.5 267.7 789.5 265.8L789.5 265.8Q789.5 263.8 790.9 262.4Q792.3 261.1 794.3 261.1Q796.4 261.1 797.8 262.4Q799.2 263.8 799.2 265.8L799.2 265.8Q799.2 267.7 797.8 269.1ZM797.7 307.5Q796.5 308.8 794.3 308.8Q792.2 308.8 791 307.5Q789.8 306.3 789.8 304.1L789.8 304.1L789.8 278.7Q789.8 276.5 791 275.2Q792.2 274.0 794.3 274.0Q796.5 274.0 797.7 275.2Q798.9 276.5 798.9 278.7L798.9 278.7L798.9 304.1Q798.9 306.3 797.7 307.5ZM820.3 308.9L820.3 308.9Q812.7 308.9 808.2 304.2Q803.8 299.5 803.8 291.4L803.8 291.4Q803.8 283.4 808.2 278.6Q812.6 273.9 820.2 273.9L820.2 273.9Q825.2 273.9 829.1 276.1Q832.9 278.3 834.3 281.9L834.3 281.9Q834.8 283.2 834.8 284.2L834.8 284.2Q834.8 285.8 833.7 286.8Q832.6 287.7 830.9 287.7L830.9 287.7Q829.6 287.7 828.7 287.2Q827.8 286.6 827.1 285.4L827.1 285.4Q824.7 281.1 820.5 281.1L820.5 281.1Q817 281.1 815 283.8Q813 286.5 813 291.4L813 291.4Q813 296.3 815.0 299.0Q817.0 301.7 820.4 301.7L820.4 301.7Q824.6 301.7 827.0 297.8L827.0 297.8Q827.9 296.3 828.8 295.7Q829.7 295.1 831.1 295.1L831.1 295.1Q832.8 295.1 833.9 296.1Q835.0 297.1 835.0 298.7L835.0 298.7Q835.0 299.8 834.4 301.1L834.4 301.1Q832.9 304.6 829.0 306.7Q825.0 308.9 820.3 308.9Z M83.9 381.0Q82.7 382.3 80.5 382.3Q78.3 382.3 77 381.0Q75.8 379.8 75.8 377.4L75.8 377.4L75.8 341.6Q75.8 339.3 77 338.0Q78.3 336.7 80.5 336.7L80.5 336.7L94.1 336.7Q101.1 336.7 105.4 340.9Q109.7 345.2 109.7 352.1L109.7 352.1Q109.7 359 105.3 363.3Q100.8 367.5 93.6 367.5L93.6 367.5L85.2 367.5L85.2 377.4Q85.2 379.8 83.9 381.0ZM85.2 344.1L85.2 360.2L91.6 360.2Q95.6 360.2 97.9 358.1Q100.1 356.0 100.1 352.1Q100.1 348.3 97.9 346.2Q95.7 344.1 91.6 344.1L91.6 344.1L85.2 344.1ZM129.9 382.5L129.9 382.5Q122.1 382.5 117.7 377.9Q113.3 373.3 113.3 365.2L113.3 365.2Q113.3 357.1 117.7 352.3Q122.0 347.5 129.5 347.5L129.5 347.5Q136.6 347.5 141.0 351.9Q145.3 356.3 145.3 363.1L145.3 363.1Q145.3 365.0 144.3 366.1Q143.3 367.1 141.4 367.1L141.4 367.1L122.3 367.1L122.3 367.5Q122.3 371.2 124.3 373.5Q126.4 375.7 129.9 375.7L129.9 375.7Q132.4 375.7 134.2 374.8Q136.0 373.9 137.9 371.7L137.9 371.7Q139.2 370.3 140.8 370.3L140.8 370.3Q142.4 370.3 143.4 371.3Q144.4 372.2 144.4 373.7L144.4 373.7Q144.4 374.8 143.8 375.9L143.8 375.9Q142.1 379 138.4 380.7Q134.8 382.5 129.9 382.5ZM122.3 361.5L122.3 361.5L136.6 361.5Q136.4 358.2 134.5 356.3Q132.6 354.3 129.6 354.3Q126.6 354.3 124.6 356.3Q122.6 358.3 122.3 361.5ZM154.6 382.4L154.6 382.4Q152.5 382.4 151.3 381.2Q150.0 379.9 150.0 377.7L150.0 377.7L150.0 352.2Q150.0 350 151.2 348.8Q152.4 347.6 154.4 347.6L154.4 347.6Q156.4 347.6 157.6 348.8Q158.8 350 158.8 352.2L158.8 352.2L158.8 354.3L158.9 354.3Q159.6 351.3 161.5 349.5Q163.4 347.7 165.9 347.7L165.9 347.7Q167.8 347.7 168.8 348.6L168.8 348.6Q170.1 349.6 170.1 351.9L170.1 351.9Q170.1 354.1 168.8 355.2L168.8 355.2Q167.4 356.4 164.8 356.4L164.8 356.4Q161.8 356.4 160.5 358.0Q159.2 359.7 159.2 362.8L159.2 362.8L159.2 377.7Q159.2 379.9 157.9 381.2Q156.7 382.4 154.6 382.4ZM188.6 382.5L188.6 382.5Q181 382.5 176.5 377.8Q172.1 373.1 172.1 365L172.1 365Q172.1 357.0 176.5 352.3Q181.0 347.5 188.5 347.5L188.5 347.5Q193.5 347.5 197.4 349.7Q201.3 351.9 202.7 355.5L202.7 355.5Q203.2 356.8 203.2 357.8L203.2 357.8Q203.2 359.4 202.0 360.4Q200.9 361.3 199.3 361.3L199.3 361.3Q197.9 361.3 197.0 360.8Q196.1 360.2 195.4 359.0L195.4 359.0Q193 354.7 188.8 354.7L188.8 354.7Q185.3 354.7 183.3 357.4Q181.3 360.1 181.3 365.0L181.3 365.0Q181.3 369.9 183.3 372.6Q185.3 375.3 188.8 375.3L188.8 375.3Q193.0 375.3 195.3 371.4L195.3 371.4Q196.3 369.9 197.2 369.3Q198.1 368.7 199.5 368.7L199.5 368.7Q201.1 368.7 202.2 369.7Q203.3 370.7 203.3 372.3L203.3 372.3Q203.3 373.4 202.7 374.7L202.7 374.7Q201.2 378.2 197.3 380.3Q193.4 382.5 188.6 382.5ZM223.6 382.5L223.6 382.5Q215.8 382.5 211.4 377.9Q207.0 373.3 207.0 365.2L207.0 365.2Q207.0 357.1 211.3 352.3Q215.7 347.5 223.2 347.5L223.2 347.5Q230.3 347.5 234.6 351.9Q239.0 356.3 239.0 363.1L239.0 363.1Q239.0 365.0 238 366.1Q237.0 367.1 235.1 367.1L235.1 367.1L215.9 367.1L215.9 367.5Q215.9 371.2 218.0 373.5Q220.1 375.7 223.6 375.7L223.6 375.7Q226.1 375.7 227.9 374.8Q229.7 373.9 231.6 371.7L231.6 371.7Q232.9 370.3 234.5 370.3L234.5 370.3Q236.1 370.3 237.1 371.3Q238.1 372.2 238.1 373.7L238.1 373.7Q238.1 374.8 237.5 375.9L237.5 375.9Q235.8 379 232.1 380.7Q228.4 382.5 223.6 382.5ZM216.0 361.5L216.0 361.5L230.3 361.5Q230.1 358.2 228.2 356.3Q226.3 354.3 223.3 354.3Q220.3 354.3 218.3 356.3Q216.3 358.3 216.0 361.5ZM251.6 392.5Q250.3 393.7 248.3 393.7Q246.2 393.7 245.0 392.5Q243.7 391.2 243.7 388.9L243.7 388.9L243.7 352.3Q243.7 350 245.0 348.8Q246.2 347.6 248.2 347.6Q250.3 347.6 251.5 348.8Q252.7 350.0 252.7 352.3L252.7 352.3L252.7 354.1L252.9 354.1Q254.3 351.1 257.0 349.4Q259.7 347.7 263.3 347.7L263.3 347.7Q269.7 347.7 273.3 352.3Q277 356.9 277 365L277 365Q277 373.1 273.4 377.7Q269.8 382.3 263.4 382.3L263.4 382.3Q259.8 382.3 257.1 380.6Q254.4 379 253.0 376.1L253.0 376.1L252.8 376.1L252.8 388.9Q252.8 391.2 251.6 392.5ZM260.2 374.9L260.2 374.9Q263.6 374.9 265.6 372.3Q267.7 369.6 267.7 365Q267.7 360.4 265.6 357.7Q263.6 355.0 260.2 355.0L260.2 355.0Q256.9 355.0 254.8 357.8Q252.8 360.5 252.8 365L252.8 365Q252.8 369.5 254.8 372.2Q256.8 374.9 260.2 374.9ZM284.1 373.2L284.1 373.2L284.1 355.1L282.4 355.1Q280.8 355.1 279.8 354.2Q278.8 353.3 278.8 351.7Q278.8 350.1 279.8 349.2Q280.8 348.3 282.4 348.3L282.4 348.3L284.1 348.3L284.1 344.5Q284.1 342.3 285.3 341.0Q286.6 339.8 288.7 339.8Q290.8 339.8 292.0 341.0Q293.3 342.3 293.3 344.5L293.3 344.5L293.3 348.3L296.5 348.3Q298.1 348.3 299.0 349.2Q300.0 350.1 300.0 351.7Q300.0 353.3 299.0 354.2Q298.1 355.1 296.5 355.1L296.5 355.1L293.3 355.1L293.3 371.2Q293.3 372.9 293.9 373.8Q294.6 374.6 296.0 374.7L296.0 374.7L296.6 374.8Q298.4 374.9 299.2 375.7Q300.1 376.5 300.1 378.1L300.1 378.1Q300.1 380.0 298.3 381.1Q296.6 382.1 293.6 382.1L293.6 382.1L293.3 382.1Q284.1 382.1 284.1 373.2ZM312.6 342.7Q311.2 344.1 309.2 344.1Q307.1 344.1 305.7 342.7Q304.3 341.3 304.3 339.4L304.3 339.4Q304.3 337.4 305.7 336.0Q307.1 334.7 309.2 334.7Q311.2 334.7 312.6 336.0Q314.0 337.4 314.0 339.4L314.0 339.4Q314.0 341.3 312.6 342.7ZM312.5 381.1Q311.3 382.4 309.2 382.4Q307.0 382.4 305.8 381.1Q304.6 379.9 304.6 377.7L304.6 377.7L304.6 352.3Q304.6 350.1 305.8 348.8Q307.0 347.6 309.2 347.6Q311.3 347.6 312.5 348.8Q313.7 350.1 313.7 352.3L313.7 352.3L313.7 377.7Q313.7 379.9 312.5 381.1ZM347.3 377.8Q342.8 382.5 335.2 382.5Q327.5 382.5 323.0 377.8Q318.6 373.2 318.6 365.0L318.6 365.0Q318.6 356.9 323.1 352.2Q327.6 347.5 335.2 347.5L335.2 347.5Q342.8 347.5 347.3 352.2Q351.8 356.9 351.8 365.0L351.8 365.0Q351.8 373.2 347.3 377.8ZM335.2 375.5L335.2 375.5Q338.5 375.5 340.5 372.8Q342.5 370 342.5 365L342.5 365Q342.5 360.1 340.5 357.3Q338.5 354.5 335.2 354.5Q331.8 354.5 329.8 357.3Q327.8 360.1 327.8 365L327.8 365Q327.8 370 329.8 372.8Q331.8 375.5 335.2 375.5ZM364.3 381.2Q363.1 382.4 361 382.4Q358.9 382.4 357.7 381.2Q356.4 379.9 356.4 377.7L356.4 377.7L356.4 352.2Q356.4 350.0 357.6 348.8Q358.8 347.6 360.8 347.6Q362.9 347.6 364.2 348.8Q365.4 350.1 365.4 352.2L365.4 352.2L365.4 354.1L365.6 354.1Q368.3 347.6 375.9 347.6L375.9 347.6Q381.5 347.6 384.5 350.9Q387.5 354.3 387.5 360.2L387.5 360.2L387.5 377.7Q387.5 379.9 386.3 381.2Q385.0 382.4 383.0 382.4Q380.9 382.4 379.7 381.2Q378.4 379.9 378.4 377.7L378.4 377.7L378.4 362.1Q378.4 358.8 376.8 357.0Q375.3 355.2 372.3 355.2Q369.2 355.2 367.4 357.2Q365.6 359.3 365.6 362.5L365.6 362.5L365.6 377.7Q365.6 379.9 364.3 381.2Z " clip-path="url(#satori_cp-id-0)" mask="url(#satori_om-id-0)"/><defs><clipPath id="satori_bc-id-0-1" clip-path="url(#satori_cp-id-0)"><rect x="0" y="509" width="1200" height="121"/></clipPath></defs><mask id="satori_om-id-0-1"><rect x="0" y="510" width="1200" height="120" fill="#fff" mask="url(#satori_om-id-0)"/><path width="1200" height="121" fill="none" stroke="#000" stroke-width="2" d="M0,509 A0,0 0 0 1 0,509 h1200 A0,0 0 0 1 1200,509"/></mask><path width="1200" height="121" clip-path="url(#satori_bc-id-0-1)" fill="none" stroke="rgba(0,0,0,0.08)" stroke-width="2" d="M0,509 A0,0 0 0 1 0,509 h1200 A0,0 0 0 1 1200,509"/><mask id="satori_om-id-0-1-0"><rect x="48" y="538" width="228" height="64" fill="#fff" mask="url(#satori_om-id-0)"/></mask><mask id="satori_om-id-0-1-0-0"><rect x="48" y="538" width="72" height="64" fill="#fff" mask="url(#satori_om-id-0)"/></mask><clipPath id="satori_cp-id-0-1-0-0-0" clip-path="url(#satori_cp-id-0)"><rect x="48" y="538" width="72" height="64"/></clipPath><mask id="satori_om-id-0-1-0-0-0"><rect x="48" y="538" width="72" height="64" fill="#fff" mask="url(#satori_om-id-0)"/></mask><image x="48" y="538" width="72" height="64" href="data:image/svg+xml;utf8,%3Csvg  xmlns=%22http://www.w3.org/2000/svg%22 width=%2273.60461760461762%22 height=%2264%22 viewBox=%220 0 797 693%22%3E%3Cg transform=%22matrix(1,0,0,1,-345,-96.5)%22%3E%3Cpath d=%22M756.942,197.15L756.942,474C701.751,474 656.942,518.808 656.942,574C656.942,629.192 701.751,674 756.942,674L756.942,777L495.122,777C443.175,777 401,734.825 401,682.878L401,614L364.755,614C353.852,614 345,605.148 345,594.245L345,436.814C345,425.878 353.878,417 364.814,417L401,417L401,365.122C401,313.175 443.175,271 495.122,271L715.058,271L715.058,197.15C696.492,189.056 683.5,170.533 683.5,149C683.5,120.024 707.024,96.5 736,96.5C764.976,96.5 788.5,120.024 788.5,149C788.5,170.533 775.508,189.056 756.942,197.15ZM559,388C520.918,388 490,418.918 490,457C490,495.082 520.918,526 559,526C597.082,526 628,495.082 628,457C628,418.918 597.082,388 559,388Z%22 fill=%22%23ad47ff%22%3E%3C/path%3E%3Cg transform=%22matrix(-1,1.22465e-16,-1.22465e-16,-1,1486.06,1043)%22%3E%3Cpath d=%22M401,417L401,348.122C401,296.175 443.175,254 495.122,254L705.058,254L705.058,357C760.249,357 805.058,401.808 805.058,457C805.058,512.192 760.249,557 705.058,557L705.058,760L495.122,760C443.175,760 401,717.825 401,665.878L401,614L364.755,614C353.852,614 345,605.148 345,594.245L345,436.814C345,425.878 353.878,417 364.814,417L401,417ZM552,643C590.082,643 621,612.082 621,574C621,535.918 590.082,505 552,505C513.918,505 483,535.918 483,574C483,612.082 513.918,643 552,643Z%22 fill=%22%2300d5bd%22%3E%3C/path%3E%3C/g%3E%3C/g%3E%3C/svg%3E" preserveAspectRatio="none" clip-path="url(#satori_cp-id-0-1-0-0-0)" mask="url(#satori_om-id-0-1-0-0-0)"/><mask id="satori_om-id-0-1-0-0-0-0"><rect x="48" y="538" width="0" height="64" fill="#fff" mask="url(#satori_om-id-0)"/></mask><mask id="satori_om-id-0-1-0-0-0-0-0"><rect x="48" y="538" width="0" height="64" fill="#fff" mask="url(#satori_om-id-0)"/></mask><mask id="satori_om-id-0-1-0-0-0-0-1"><rect x="48" y="538" width="0" height="64" fill="#fff" mask="url(#satori_om-id-0)"/></mask><mask id="satori_om-id-0-1-0-0-0-0-1-0"><rect x="48" y="538" width="0" height="64" fill="#fff" mask="url(#satori_om-id-0)"/></mask><mask id="satori_om-id-0-1-0-1"><rect x="138" y="540" width="138" height="60" fill="#fff" mask="url(#satori_om-id-0)"/></mask><mask id="satori_om-id-0-1-0-1-0"><rect x="138" y="540" width="138" height="36" fill="#fff" mask="url(#satori_om-id-0)"/></mask><path fill="#0f172a" d="M150.7 571.2L150.7 571.2Q145.9 571.2 143.0 568.6Q140.1 566.1 140.1 561.8L140.1 561.8L140.1 547.9Q140.1 546.5 140.8 545.8Q141.5 545.1 142.8 545.1Q144.0 545.1 144.7 545.8Q145.4 546.5 145.4 547.9L145.4 547.9L145.4 561.3Q145.4 563.8 146.8 565.2Q148.2 566.7 150.7 566.7L150.7 566.7Q153.3 566.7 154.7 565.2Q156.1 563.8 156.1 561.3L156.1 561.3L156.1 547.9Q156.1 546.5 156.8 545.8Q157.5 545.1 158.7 545.1Q160.0 545.1 160.7 545.8Q161.4 546.5 161.4 547.9L161.4 547.9L161.4 561.8Q161.4 566.1 158.5 568.6Q155.6 571.2 150.7 571.2ZM170.2 570.4Q169.5 571.2 168.2 571.2Q167.0 571.2 166.3 570.4Q165.6 569.7 165.6 568.4L165.6 568.4L165.6 548.2Q165.6 546.9 166.3 546.2Q167.0 545.4 168.2 545.4L168.2 545.4L176.0 545.4Q180.3 545.4 182.7 547.6Q185.1 549.7 185.1 553.5L185.1 553.5Q185.1 555.9 184.0 557.8Q182.9 559.7 180.8 560.6L180.8 560.6L184.4 566.9Q185.0 567.9 185.0 568.7L185.0 568.7Q185.0 569.8 184.2 570.5Q183.5 571.2 182.3 571.2L182.3 571.2Q181.4 571.2 180.8 570.8Q180.3 570.3 179.6 569.2L179.6 569.2L175.4 561.5L170.9 561.5L170.9 568.4Q170.9 569.7 170.2 570.4ZM170.9 549.6L170.9 557.7L175.5 557.7Q177.5 557.7 178.6 556.6Q179.7 555.5 179.7 553.6L179.7 553.6Q179.7 551.8 178.5 550.7Q177.4 549.6 175.4 549.6L175.4 549.6L170.9 549.6ZM198.1 562.7L190.8 562.7Q189.7 562.7 189.1 562.1Q188.4 561.5 188.4 560.5Q188.4 559.4 189.1 558.8Q189.7 558.2 190.8 558.2L190.8 558.2L198.1 558.2Q199.2 558.2 199.9 558.8Q200.6 559.4 200.6 560.5Q200.6 561.5 199.9 562.1Q199.2 562.7 198.1 562.7L198.1 562.7ZM209.1 570.4Q208.4 571.2 207.2 571.2Q205.9 571.2 205.2 570.4Q204.5 569.7 204.5 568.4L204.5 568.4L204.5 548.2Q204.5 546.9 205.2 546.2Q205.9 545.4 207.2 545.4L207.2 545.4L214.9 545.4Q219.3 545.4 221.7 547.6Q224.1 549.7 224.1 553.5L224.1 553.5Q224.1 555.9 223.0 557.8Q221.8 559.7 219.7 560.6L219.7 560.6L223.4 566.9Q224.0 567.9 224.0 568.7L224.0 568.7Q224.0 569.8 223.2 570.5Q222.4 571.2 221.3 571.2L221.3 571.2Q220.3 571.2 219.8 570.8Q219.2 570.3 218.6 569.2L218.6 569.2L214.4 561.5L209.8 561.5L209.8 568.4Q209.8 569.7 209.1 570.4ZM209.8 549.6L209.8 557.7L214.4 557.7Q216.4 557.7 217.5 556.6Q218.6 555.5 218.6 553.6L218.6 553.6Q218.6 551.8 217.5 550.7Q216.3 549.6 214.4 549.6L214.4 549.6L209.8 549.6ZM229.3 571.1L229.3 571.1Q228.0 571.1 227.3 570.5Q226.6 569.8 226.6 568.6L226.6 568.6Q226.6 567.9 226.9 566.9L226.9 566.9L233.9 548.1Q234.4 546.5 235.4 545.8Q236.3 545.1 237.8 545.1L237.8 545.1Q239.4 545.1 240.4 545.8Q241.3 546.5 241.9 548.1L241.9 548.1L248.9 566.9Q249.2 567.9 249.2 568.6L249.2 568.6Q249.2 569.7 248.5 570.4Q247.7 571.1 246.5 571.1L246.5 571.1Q245.4 571.1 244.8 570.6Q244.1 570.0 243.8 568.8L243.8 568.8L242.4 564.8L233.3 564.8L232.0 568.7Q231.6 570.0 231.0 570.6Q230.3 571.1 229.3 571.1ZM237.7 550.3L234.5 560.7L241.2 560.7L237.9 550.3L237.7 550.3ZM262.1 570.8L255.1 570.8Q253.8 570.8 253.1 570.1Q252.4 569.3 252.4 568.0L252.4 568.0L252.4 548.2Q252.4 546.9 253.1 546.2Q253.8 545.4 255.1 545.4L255.1 545.4L262.1 545.4Q267.8 545.4 271.0 548.7Q274.2 552.0 274.2 558.0L274.2 558.0Q274.2 564.0 271.0 567.4Q267.8 570.8 262.1 570.8L262.1 570.8ZM257.7 549.8L257.7 566.4L261.5 566.4Q265.0 566.4 266.9 564.3Q268.8 562.1 268.8 558.0L268.8 558.0Q268.8 554.1 266.9 551.9Q265.0 549.8 261.5 549.8L261.5 549.8L257.7 549.8Z " clip-path="url(#satori_cp-id-0)" mask="url(#satori_om-id-0)"/><mask id="satori_om-id-0-1-0-1-1"><rect x="138" y="576" width="138" height="24" fill="#fff" mask="url(#satori_om-id-0)"/></mask><path fill="#334155" d="M145.0 595.3L145.0 595.3Q142.4 595.3 140.8 593.8Q139.2 592.4 139.2 590.1L139.2 590.1L139.2 582.1Q139.2 581.5 139.6 581.1Q139.9 580.8 140.5 580.8L140.5 580.8Q141.1 580.8 141.4 581.1Q141.8 581.5 141.8 582.1L141.8 582.1L141.8 589.8Q141.8 591.3 142.6 592.2Q143.5 593.1 145.0 593.1Q146.6 593.1 147.4 592.2Q148.3 591.3 148.3 589.8L148.3 589.8L148.3 582.1Q148.3 581.5 148.6 581.1Q149.0 580.8 149.6 580.8L149.6 580.8Q150.2 580.8 150.5 581.1Q150.8 581.5 150.8 582.1L150.8 582.1L150.8 590.1Q150.8 592.4 149.3 593.8Q147.7 595.3 145.0 595.3ZM155.5 594.9Q155.2 595.2 154.6 595.2Q154.0 595.2 153.6 594.9Q153.3 594.5 153.3 593.9L153.3 593.9L153.3 582.3Q153.3 581.6 153.6 581.3Q154.0 581.0 154.6 581.0L154.6 581.0L158.9 581.0Q161.2 581.0 162.5 582.1Q163.8 583.3 163.8 585.3L163.8 585.3Q163.8 586.7 163.1 587.8Q162.4 588.8 161.2 589.3L161.2 589.3L163.4 593.2Q163.7 593.7 163.7 594.1L163.7 594.1Q163.7 594.6 163.4 594.9Q163.0 595.2 162.4 595.2L162.4 595.2Q162.0 595.2 161.7 595.0Q161.5 594.8 161.2 594.3L161.2 594.3L158.7 589.7L155.8 589.7L155.8 593.9Q155.8 594.5 155.5 594.9ZM155.8 583.0L155.8 587.8L158.7 587.8Q159.9 587.8 160.5 587.2Q161.2 586.5 161.2 585.4L161.2 585.4Q161.2 584.3 160.5 583.6Q159.8 583.0 158.6 583.0L158.6 583.0L155.8 583.0ZM171.1 590.4L166.7 590.4Q166.2 590.4 165.9 590.1Q165.6 589.8 165.6 589.3Q165.6 588.8 165.9 588.5Q166.2 588.2 166.7 588.2L166.7 588.2L171.1 588.2Q171.7 588.2 172.0 588.5Q172.3 588.8 172.3 589.3Q172.3 589.8 172.0 590.1Q171.7 590.4 171.1 590.4L171.1 590.4ZM176.7 594.9Q176.4 595.2 175.8 595.2Q175.2 595.2 174.9 594.9Q174.6 594.5 174.6 593.9L174.6 593.9L174.6 582.3Q174.6 581.6 174.9 581.3Q175.2 581.0 175.8 581.0L175.8 581.0L180.1 581.0Q182.4 581.0 183.7 582.1Q185.0 583.3 185.0 585.3L185.0 585.3Q185.0 586.7 184.3 587.8Q183.7 588.8 182.5 589.3L182.5 589.3L184.7 593.2Q185.0 593.7 185.0 594.1L185.0 594.1Q185.0 594.6 184.6 594.9Q184.2 595.2 183.7 595.2L183.7 595.2Q183.2 595.2 183.0 595.0Q182.7 594.8 182.4 594.3L182.4 594.3L179.9 589.7L177.1 589.7L177.1 593.9Q177.1 594.5 176.7 594.9ZM177.1 583.0L177.1 587.8L179.9 587.8Q181.1 587.8 181.8 587.2Q182.4 586.5 182.4 585.4L182.4 585.4Q182.4 584.3 181.8 583.6Q181.1 583.0 179.9 583.0L179.9 583.0L177.1 583.0ZM187.7 595.2L187.7 595.2Q187.1 595.2 186.7 594.9Q186.4 594.6 186.4 594.0L186.4 594.0Q186.4 593.7 186.6 593.3L186.6 593.3L190.7 582.2Q190.9 581.4 191.4 581.1Q191.8 580.8 192.5 580.8L192.5 580.8Q193.2 580.8 193.6 581.1Q194.1 581.4 194.3 582.1L194.3 582.1L198.4 593.3Q198.6 593.7 198.6 594.0L198.6 594.0Q198.6 594.6 198.2 594.9Q197.9 595.2 197.3 595.2L197.3 595.2Q196.8 595.2 196.5 595.0Q196.2 594.7 196.0 594.1L196.0 594.1L195.1 591.4L189.9 591.4L188.9 594.1Q188.8 594.7 188.5 595.0Q188.2 595.2 187.7 595.2ZM192.4 583.4L190.5 589.5L194.5 589.5L192.5 583.4L192.4 583.4ZM205.6 595.0L201.7 595.0Q201.1 595.0 200.8 594.7Q200.4 594.3 200.4 593.7L200.4 593.7L200.4 582.3Q200.4 581.6 200.8 581.3Q201.1 581.0 201.7 581.0L201.7 581.0L205.6 581.0Q208.7 581.0 210.5 582.8Q212.3 584.6 212.3 588.0L212.3 588.0Q212.3 591.3 210.5 593.2Q208.7 595.0 205.6 595.0L205.6 595.0ZM202.9 583.1L202.9 592.9L205.3 592.9Q207.4 592.9 208.6 591.6Q209.7 590.4 209.7 588.0L209.7 588.0Q209.7 585.6 208.6 584.3Q207.4 583.1 205.3 583.1L205.3 583.1L202.9 583.1Z M227.0 595.0L219.2 595.0Q218.7 595.0 218.3 594.8Q218.0 594.5 218.0 594.0L218.0 594.0Q218.0 593.6 218.2 593.3Q218.3 593.1 218.7 592.7L218.7 592.7L223.0 588.4Q224.4 587.1 224.8 586.4Q225.3 585.7 225.3 584.9L225.3 584.9Q225.3 583.9 224.6 583.3Q224.0 582.7 223.0 582.7L223.0 582.7Q221.1 582.7 220.3 584.6L220.3 584.6Q220.1 585.0 219.9 585.2Q219.6 585.4 219.2 585.4L219.2 585.4Q218.7 585.4 218.4 585.1Q218.1 584.8 218.1 584.3L218.1 584.3Q218.1 584.1 218.2 583.8L218.2 583.8Q218.3 583.2 218.7 582.7Q219.1 582.1 219.7 581.7Q220.3 581.2 221.1 580.9Q222.0 580.7 223.0 580.7L223.0 580.7Q225.1 580.7 226.4 581.8Q227.8 582.9 227.8 584.7L227.8 584.7Q227.8 585.9 227.1 586.9Q226.4 588.0 224.6 589.8L224.6 589.8L221.4 592.9L221.4 593.0L227.0 593.0Q227.5 593.0 227.8 593.3Q228.1 593.5 228.1 594.0Q228.1 594.5 227.8 594.8Q227.5 595.0 227.0 595.0L227.0 595.0ZM235.2 595.3L235.2 595.3Q232.6 595.3 231.1 593.4Q229.7 591.4 229.7 588.0L229.7 588.0Q229.7 584.6 231.1 582.6Q232.6 580.7 235.2 580.7L235.2 580.7Q237.8 580.7 239.3 582.6Q240.7 584.6 240.7 588.0L240.7 588.0Q240.7 591.4 239.3 593.3Q237.8 595.3 235.2 595.3ZM235.2 593.3L235.2 593.3Q236.6 593.3 237.4 591.9Q238.2 590.5 238.2 588.0L238.2 588.0Q238.2 585.5 237.4 584.1Q236.6 582.7 235.2 582.7Q233.8 582.7 233.0 584.1Q232.2 585.5 232.2 588.0L232.2 588.0Q232.2 590.5 233.0 591.9Q233.8 593.3 235.2 593.3ZM251.6 595.0L243.8 595.0Q243.2 595.0 242.9 594.8Q242.6 594.5 242.6 594.0L242.6 594.0Q242.6 593.6 242.7 593.3Q242.9 593.1 243.3 592.7L243.3 592.7L247.6 588.4Q248.9 587.1 249.4 586.4Q249.8 585.7 249.8 584.9L249.8 584.9Q249.8 583.9 249.2 583.3Q248.5 582.7 247.5 582.7L247.5 582.7Q245.6 582.7 244.9 584.6L244.9 584.6Q244.7 585.0 244.4 585.2Q244.2 585.4 243.7 585.4L243.7 585.4Q243.2 585.4 242.9 585.1Q242.6 584.8 242.6 584.3L242.6 584.3Q242.6 584.1 242.7 583.8L242.7 583.8Q242.9 583.2 243.2 582.7Q243.6 582.1 244.2 581.7Q244.8 581.2 245.7 580.9Q246.5 580.7 247.5 580.7L247.5 580.7Q249.6 580.7 251.0 581.8Q252.3 582.9 252.3 584.7L252.3 584.7Q252.3 585.9 251.6 586.9Q251.0 588.0 249.2 589.8L249.2 589.8L245.9 592.9L245.9 593.0L251.6 593.0Q252.1 593.0 252.4 593.3Q252.6 593.5 252.6 594.0Q252.6 594.5 252.4 594.8Q252.1 595.0 251.6 595.0L251.6 595.0ZM259.6 595.3L259.6 595.3Q258.0 595.3 256.7 594.6Q255.4 593.9 254.9 592.8L254.9 592.8Q254.6 592.3 254.6 591.8L254.6 591.8Q254.6 591.3 254.9 591.0Q255.2 590.7 255.7 590.7L255.7 590.7Q256.1 590.7 256.4 590.9Q256.6 591.1 256.8 591.5L256.8 591.5Q257.2 592.3 257.9 592.8Q258.6 593.3 259.6 593.3L259.6 593.3Q260.9 593.3 261.7 592.5Q262.5 591.7 262.5 590.4L262.5 590.4Q262.5 589.2 261.7 588.4Q260.9 587.7 259.6 587.7L259.6 587.7Q258.3 587.7 257.4 588.5L257.4 588.5Q257.0 589.0 256.7 589.1Q256.4 589.3 256.0 589.3L256.0 589.3Q255.4 589.3 255.1 588.9Q254.8 588.5 254.8 588.0L254.8 588.0Q254.8 587.9 254.8 587.8L254.8 587.8L255.3 582.5Q255.4 581.7 255.8 581.3Q256.2 581.0 257.0 581.0L257.0 581.0L263.1 581.0Q263.6 581.0 263.9 581.2Q264.2 581.5 264.2 582.0L264.2 582.0Q264.2 582.4 263.9 582.7Q263.6 583.0 263.1 583.0L263.1 583.0L257.4 583.0L257.1 587.2L257.1 587.2Q257.6 586.5 258.4 586.1Q259.2 585.8 260.3 585.8L260.3 585.8Q262.3 585.8 263.6 587.0Q264.9 588.3 264.9 590.4L264.9 590.4Q264.9 592.6 263.4 593.9Q261.9 595.3 259.6 595.3Z " clip-path="url(#satori_cp-id-0)" mask="url(#satori_om-id-0)"/><mask id="satori_om-id-0-1-1"><rect x="963" y="557" width="189" height="26" fill="#fff" mask="url(#satori_om-id-0)"/></mask><path fill="#334155" d="M966.4 577.8Q966.1 578.2 965.5 578.2Q964.9 578.2 964.5 577.8Q964.2 577.5 964.2 576.8L964.2 576.8L964.2 563.6Q964.2 563.0 964.5 562.6Q964.9 562.2 965.5 562.2Q966.1 562.2 966.5 562.6Q966.8 563.0 966.8 563.6L966.8 563.6L966.8 568.5L966.9 568.5Q967.4 567.5 968.3 566.9Q969.3 566.4 970.5 566.4L970.5 566.4Q972.6 566.4 973.9 568.0Q975.2 569.5 975.2 572.3L975.2 572.3Q975.2 575.0 973.9 576.6Q972.6 578.1 970.5 578.1L970.5 578.1Q969.2 578.1 968.3 577.6Q967.4 577.0 966.8 576.0L966.8 576.0L966.8 576.0L966.8 576.8Q966.8 577.5 966.4 577.8ZM969.6 575.9L969.6 575.9Q970.9 575.9 971.7 574.9Q972.4 574.0 972.4 572.3Q972.4 570.6 971.7 569.6Q970.9 568.6 969.6 568.6L969.6 568.6Q968.4 568.6 967.6 569.6Q966.8 570.6 966.8 572.3L966.8 572.3Q966.8 573.9 967.6 574.9Q968.4 575.9 969.6 575.9ZM978.5 582.2L978.5 582.2Q977.6 582.2 977.1 581.9Q976.7 581.5 976.7 580.9L976.7 580.9Q976.7 580.5 976.9 580.3Q977.2 580.0 977.7 580.0L977.7 580.0Q977.8 580.0 978.0 580.0Q978.1 580.0 978.3 580.0L978.3 580.0Q979.3 580.0 979.9 578.7L979.9 578.7L980.1 578.2L976.3 568.3Q976.2 567.9 976.2 567.6L976.2 567.6Q976.2 567.0 976.6 566.7Q977.0 566.3 977.6 566.3L977.6 566.3Q978.1 566.3 978.4 566.6Q978.7 566.8 978.8 567.4L978.8 567.4L981.6 575.7L981.6 575.7L984.3 567.4Q984.5 566.8 984.8 566.6Q985.1 566.3 985.6 566.3L985.6 566.3Q986.2 566.3 986.5 566.7Q986.9 567.0 986.9 567.5L986.9 567.5Q986.9 567.9 986.8 568.3L986.8 568.3L983.0 578.4Q982.2 580.5 981.2 581.3Q980.2 582.2 978.5 582.2Z M993.7 578.1L993.7 578.1Q993.1 578.1 992.7 577.8Q992.3 577.4 992.3 576.9L992.3 576.9Q992.3 576.5 992.5 576.0L992.5 576.0L997.0 563.8Q997.3 563.0 997.8 562.6Q998.3 562.3 999.0 562.3L999.0 562.3Q999.8 562.3 1000.3 562.6Q1000.8 563.0 1001.0 563.8L1001.0 563.8L1005.6 576.0Q1005.7 576.5 1005.7 576.9L1005.7 576.9Q1005.7 577.4 1005.4 577.8Q1005.0 578.1 1004.4 578.1L1004.4 578.1Q1003.8 578.1 1003.5 577.9Q1003.1 577.6 1002.9 577.0L1002.9 577.0L1001.9 574.0L996.1 574.0L995.1 576.9Q994.9 577.6 994.6 577.9Q994.3 578.1 993.7 578.1ZM999.0 565.2L996.8 571.8L1001.2 571.8L999.0 565.2L999.0 565.2ZM1011.7 578.1L1011.7 578.1Q1009.6 578.1 1008.3 576.5Q1007.0 575.0 1007.0 572.2L1007.0 572.2Q1007.0 569.5 1008.3 568.0Q1009.6 566.4 1011.7 566.4L1011.7 566.4Q1012.9 566.4 1013.9 566.9Q1014.8 567.5 1015.3 568.5L1015.3 568.5L1015.3 568.5L1015.3 563.6Q1015.3 563.0 1015.7 562.6Q1016.1 562.2 1016.7 562.2Q1017.3 562.2 1017.6 562.6Q1018 563.0 1018 563.6L1018 563.6L1018 576.8Q1018 577.5 1017.6 577.8Q1017.3 578.2 1016.7 578.2L1016.7 578.2Q1016.1 578.2 1015.7 577.8Q1015.3 577.5 1015.3 576.8L1015.3 576.8L1015.3 575.9L1015.3 575.9Q1014.8 576.9 1013.9 577.5Q1013.0 578.1 1011.7 578.1ZM1012.5 575.9L1012.5 575.9Q1013.8 575.9 1014.6 574.9Q1015.3 573.9 1015.3 572.3L1015.3 572.3Q1015.3 570.6 1014.6 569.6Q1013.8 568.6 1012.5 568.6L1012.5 568.6Q1011.3 568.6 1010.5 569.6Q1009.8 570.6 1009.8 572.3L1009.8 572.3Q1009.8 574.0 1010.5 575.0Q1011.2 575.9 1012.5 575.9ZM1023.6 578.1L1023.6 578.1Q1021.9 578.1 1020.9 577.2Q1019.8 576.2 1019.8 574.7L1019.8 574.7Q1019.8 573.2 1020.9 572.3Q1022.0 571.4 1024.1 571.3L1024.1 571.3L1027.1 571.1L1027.1 570.3Q1027.1 569.4 1026.6 568.9Q1026.0 568.4 1025.0 568.4L1025.0 568.4Q1024.2 568.4 1023.7 568.7Q1023.1 569.0 1022.6 569.8L1022.6 569.8Q1022.2 570.3 1021.5 570.3L1021.5 570.3Q1021.0 570.3 1020.7 570.0Q1020.4 569.7 1020.4 569.2L1020.4 569.2Q1020.4 568.9 1020.6 568.5L1020.6 568.5Q1021.0 567.5 1022.2 566.9Q1023.5 566.3 1025.1 566.3L1025.1 566.3Q1027.2 566.3 1028.5 567.4Q1029.8 568.4 1029.8 570.1L1029.8 570.1L1029.8 576.8Q1029.8 577.5 1029.4 577.8Q1029.1 578.2 1028.5 578.2L1028.5 578.2Q1027.9 578.2 1027.6 577.8Q1027.2 577.5 1027.2 576.9L1027.2 576.9L1027.2 576.1L1027.1 576.1Q1026.7 577.0 1025.7 577.6Q1024.7 578.1 1023.6 578.1ZM1024.4 576.1L1024.4 576.1Q1025.5 576.1 1026.3 575.4Q1027.1 574.7 1027.1 573.7L1027.1 573.7L1027.1 572.9L1024.5 573.0Q1023.5 573.1 1023.0 573.5Q1022.5 573.9 1022.5 574.6L1022.5 574.6Q1022.5 575.3 1023.0 575.7Q1023.5 576.1 1024.4 576.1ZM1033.3 578.2L1033.3 578.2Q1032.6 578.2 1032.3 577.8Q1031.9 577.4 1031.9 576.8L1031.9 576.8L1031.9 567.7Q1031.9 567.1 1032.3 566.7Q1032.6 566.3 1033.2 566.3Q1033.8 566.3 1034.1 566.7Q1034.5 567.1 1034.5 567.7L1034.5 567.7L1034.5 568.5L1034.5 568.5Q1034.9 567.5 1035.8 566.9Q1036.6 566.3 1037.8 566.3L1037.8 566.3Q1039.0 566.3 1039.8 566.9Q1040.7 567.5 1041.0 568.6L1041.0 568.6L1041.0 568.6Q1041.4 567.6 1042.4 567.0Q1043.3 566.3 1044.6 566.3L1044.6 566.3Q1046.3 566.3 1047.3 567.4Q1048.3 568.4 1048.3 570.1L1048.3 570.1L1048.3 576.8Q1048.3 577.4 1047.9 577.8Q1047.6 578.2 1047.0 578.2L1047.0 578.2Q1046.3 578.2 1046.0 577.8Q1045.6 577.4 1045.6 576.8L1045.6 576.8L1045.6 570.8Q1045.6 569.7 1045.1 569.2Q1044.6 568.6 1043.6 568.6L1043.6 568.6Q1042.6 568.6 1042.0 569.2Q1041.4 569.9 1041.4 570.9L1041.4 570.9L1041.4 576.8Q1041.4 577.4 1041.1 577.8Q1040.7 578.2 1040.1 578.2L1040.1 578.2Q1039.5 578.2 1039.2 577.8Q1038.8 577.4 1038.8 576.8L1038.8 576.8L1038.8 570.7Q1038.8 569.7 1038.3 569.2Q1037.7 568.6 1036.8 568.6L1036.8 568.6Q1035.8 568.6 1035.2 569.3Q1034.6 569.9 1034.6 571.0L1034.6 571.0L1034.6 576.8Q1034.6 577.4 1034.2 577.8Q1033.9 578.2 1033.3 578.2ZM1052.9 564.5Q1052.5 565.0 1051.8 565.0Q1051.2 565.0 1050.8 564.5Q1050.3 564.1 1050.3 563.5L1050.3 563.5Q1050.3 562.9 1050.8 562.5Q1051.2 562.1 1051.8 562.1L1051.8 562.1Q1052.5 562.1 1052.9 562.5Q1053.3 562.9 1053.3 563.5L1053.3 563.5Q1053.3 564.1 1052.9 564.5ZM1052.8 577.8Q1052.4 578.2 1051.8 578.2Q1051.2 578.2 1050.9 577.8Q1050.5 577.4 1050.5 576.8L1050.5 576.8L1050.5 567.7Q1050.5 567.1 1050.9 566.7Q1051.2 566.3 1051.8 566.3Q1052.4 566.3 1052.8 566.7Q1053.2 567.1 1053.2 567.8L1053.2 567.8L1053.2 576.8Q1053.2 577.4 1052.8 577.8ZM1057.8 577.8Q1057.4 578.2 1056.8 578.2Q1056.2 578.2 1055.9 577.8Q1055.5 577.4 1055.5 576.8L1055.5 576.8L1055.5 563.6Q1055.5 563.0 1055.9 562.6Q1056.2 562.2 1056.8 562.2Q1057.4 562.2 1057.8 562.6Q1058.2 563.0 1058.2 563.6L1058.2 563.6L1058.2 571.3L1058.2 571.3L1062.7 566.9Q1063.1 566.3 1063.7 566.3L1063.7 566.3Q1064.2 566.3 1064.5 566.7Q1064.9 567.0 1064.9 567.5L1064.9 567.5Q1064.9 568.0 1064.4 568.5L1064.4 568.5L1061.2 571.5L1064.7 576.0Q1065.1 576.5 1065.1 577.0L1065.1 577.0Q1065.1 577.5 1064.7 577.8Q1064.4 578.2 1063.8 578.2L1063.8 578.2Q1063.4 578.2 1063.1 578.0Q1062.9 577.8 1062.6 577.4L1062.6 577.4L1059.2 573.1L1058.2 574.0L1058.2 576.8Q1058.2 577.4 1057.8 577.8ZM1068.7 575.2L1068.7 575.2Q1069.3 575.2 1069.6 575.5Q1069.9 575.8 1069.9 576.3L1069.9 576.3Q1069.9 576.6 1069.8 576.9L1069.8 576.9L1068.9 580.6Q1068.8 581.1 1068.5 581.3Q1068.3 581.5 1067.8 581.5Q1067.3 581.5 1067.1 581.2Q1066.8 581.0 1066.8 580.5L1066.8 580.5Q1066.8 580.4 1066.8 580.3L1066.8 580.3L1067.4 576.3Q1067.6 575.2 1068.7 575.2Z M1079.6 577.8Q1079.3 578.1 1078.7 578.1Q1078.1 578.1 1077.7 577.8Q1077.4 577.4 1077.4 576.8L1077.4 576.8L1077.4 564.0Q1077.4 563.2 1077.9 562.7Q1078.4 562.3 1079.2 562.3L1079.2 562.3Q1079.9 562.3 1080.4 562.6Q1080.8 562.9 1081.1 563.7L1081.1 563.7L1085.4 574.1L1085.5 574.1L1089.7 563.7Q1090.0 562.9 1090.5 562.6Q1090.9 562.3 1091.6 562.3L1091.6 562.3Q1092.5 562.3 1092.9 562.7Q1093.4 563.2 1093.4 564.0L1093.4 564.0L1093.4 576.8Q1093.4 577.4 1093.1 577.8Q1092.8 578.1 1092.2 578.1Q1091.6 578.1 1091.2 577.8Q1090.9 577.4 1090.9 576.8L1090.9 576.8L1090.9 566.9L1090.8 566.9L1086.7 576.9Q1086.3 577.9 1085.4 577.9L1085.4 577.9Q1084.5 577.9 1084.1 576.9L1084.1 576.9L1080.0 566.9L1079.9 566.9L1079.9 576.8Q1079.9 577.4 1079.6 577.8ZM1097.8 578.1L1097.8 578.1Q1097.1 578.1 1096.6 577.6Q1096.2 577.2 1096.2 576.5L1096.2 576.5Q1096.2 575.9 1096.6 575.4Q1097.1 575.0 1097.8 575.0L1097.8 575.0Q1098.4 575.0 1098.8 575.4Q1099.3 575.9 1099.3 576.5L1099.3 576.5Q1099.3 577.2 1098.8 577.6Q1098.4 578.1 1097.8 578.1Z M1111.3 578.2L1111.3 578.2Q1108.7 578.2 1107.2 576.6Q1105.7 575.1 1105.7 572.3L1105.7 572.3Q1105.7 569.6 1107.2 567.9Q1108.7 566.3 1111.1 566.3L1111.1 566.3Q1113.4 566.3 1114.9 567.8Q1116.4 569.3 1116.4 571.6L1116.4 571.6Q1116.4 572.2 1116.0 572.6Q1115.7 572.9 1115.1 572.9L1115.1 572.9L1108.4 572.9L1108.4 573.0Q1108.4 574.4 1109.2 575.3Q1109.9 576.1 1111.2 576.1L1111.2 576.1Q1112.1 576.1 1112.8 575.8Q1113.4 575.4 1114.1 574.6L1114.1 574.6Q1114.5 574.2 1115.0 574.2L1115.0 574.2Q1115.5 574.2 1115.8 574.4Q1116.1 574.7 1116.1 575.2L1116.1 575.2Q1116.1 575.5 1115.9 575.9L1115.9 575.9Q1115.3 577.0 1114.1 577.6Q1112.9 578.2 1111.3 578.2ZM1108.4 571.1L1108.4 571.1L1113.7 571.1Q1113.7 569.9 1113.0 569.1Q1112.3 568.4 1111.1 568.4Q1110.0 568.4 1109.2 569.2Q1108.5 569.9 1108.4 571.1ZM1118.8 575.1L1118.8 575.1L1118.8 568.6L1118.1 568.6Q1117.6 568.6 1117.3 568.3Q1117.0 568.1 1117.0 567.6L1117.0 567.6Q1117.0 567.1 1117.3 566.8Q1117.6 566.6 1118.1 566.6L1118.1 566.6L1118.8 566.6L1118.8 565.0Q1118.8 564.4 1119.2 564.0Q1119.5 563.6 1120.2 563.6L1120.2 563.6Q1120.8 563.6 1121.1 564.0Q1121.5 564.4 1121.5 565.0L1121.5 565.0L1121.5 566.6L1122.7 566.6Q1123.2 566.6 1123.5 566.8Q1123.8 567.1 1123.8 567.6L1123.8 567.6Q1123.8 568.1 1123.5 568.3Q1123.2 568.6 1122.7 568.6L1122.7 568.6L1121.5 568.6L1121.5 574.6Q1121.5 575.2 1121.7 575.5Q1122.0 575.8 1122.6 575.9L1122.6 575.9L1122.8 575.9Q1123.8 576.0 1123.8 576.9L1123.8 576.9Q1123.8 577.5 1123.3 577.8Q1122.8 578.1 1121.9 578.1L1121.9 578.1L1121.8 578.1Q1118.8 578.1 1118.8 575.1Z M1133.2 578.1L1133.2 578.1Q1131.5 578.1 1130.5 577.2Q1129.4 576.2 1129.4 574.7L1129.4 574.7Q1129.4 573.2 1130.5 572.3Q1131.6 571.4 1133.7 571.3L1133.7 571.3L1136.7 571.1L1136.7 570.3Q1136.7 569.4 1136.2 568.9Q1135.6 568.4 1134.6 568.4L1134.6 568.4Q1133.8 568.4 1133.3 568.7Q1132.7 569.0 1132.2 569.8L1132.2 569.8Q1131.8 570.3 1131.1 570.3L1131.1 570.3Q1130.7 570.3 1130.3 570.0Q1130.0 569.7 1130.0 569.2L1130.0 569.2Q1130.0 568.9 1130.2 568.5L1130.2 568.5Q1130.6 567.5 1131.9 566.9Q1133.1 566.3 1134.7 566.3L1134.7 566.3Q1136.8 566.3 1138.1 567.4Q1139.4 568.4 1139.4 570.1L1139.4 570.1L1139.4 576.8Q1139.4 577.5 1139.0 577.8Q1138.7 578.2 1138.1 578.2L1138.1 578.2Q1137.5 578.2 1137.2 577.8Q1136.8 577.5 1136.8 576.9L1136.8 576.9L1136.8 576.1L1136.8 576.1Q1136.3 577.0 1135.3 577.6Q1134.3 578.1 1133.2 578.1ZM1134.0 576.1L1134.0 576.1Q1135.2 576.1 1135.9 575.4Q1136.7 574.7 1136.7 573.7L1136.7 573.7L1136.7 572.9L1134.1 573.0Q1133.1 573.1 1132.6 573.5Q1132.1 573.9 1132.1 574.6L1132.1 574.6Q1132.1 575.3 1132.6 575.7Q1133.1 576.1 1134.0 576.1ZM1143.9 577.8Q1143.6 578.2 1143.0 578.2Q1142.4 578.2 1142.0 577.8Q1141.6 577.4 1141.6 576.8L1141.6 576.8L1141.6 563.6Q1141.6 563.0 1142.0 562.6Q1142.4 562.2 1143.0 562.2Q1143.6 562.2 1143.9 562.6Q1144.3 563.0 1144.3 563.6L1144.3 563.6L1144.3 576.8Q1144.3 577.4 1143.9 577.8ZM1148.4 578.1L1148.4 578.1Q1147.8 578.1 1147.3 577.6Q1146.9 577.2 1146.9 576.5L1146.9 576.5Q1146.9 575.9 1147.3 575.4Q1147.8 575.0 1148.4 575.0L1148.4 575.0Q1149.1 575.0 1149.5 575.4Q1150.0 575.9 1150.0 576.5L1150.0 576.5Q1150.0 577.2 1149.5 577.6Q1149.1 578.1 1148.4 578.1Z " clip-path="url(#satori_cp-id-0)" mask="url(#satori_om-id-0)"/></svg>