<svg width="1200" height="630" viewBox="0 0 1200 630" xmlns="http://www.w3.org/2000/svg"><mask id="satori_om-id"><rect x="0" y="0" width="1200" height="630" fill="#fff"/></mask><defs><pattern id="satori_pattern_id-0_0" x="0" y="0" width="1" height="1" patternUnits="objectBoundingBox"><linearGradient id="satori_biid-0_0" x1="-0.09774620284174435" y1="0.18618324350808482" x2="1.0977462028417444" y2="0.8138167564919152" spreadMethod="pad"><stop offset="0%" stop-color="#f8fafc"/><stop offset="50%" stop-color="#eef2ff"/><stop offset="100%" stop-color="#ffffff"/></linearGradient><rect x="0" y="0" width="1200" height="630" fill="url(#satori_biid-0_0)"/></pattern></defs><clipPath id="satori_cp-id-0"><rect x="0" y="0" width="1200" height="630"/></clipPath><mask id="satori_om-id-0"><rect x="0" y="0" width="1200" height="630" fill="#fff"/></mask><rect x="0" y="0" width="1200" height="630" fill="url(#satori_pattern_id-0_0)"/><mask id="satori_om-id-0-0"><rect x="0" y="0" width="1200" height="509" fill="#fff" mask="url(#satori_om-id-0)"/></mask><mask id="satori_om-id-0-0-0"><rect x="72" y="72" width="1056" height="365" fill="#fff" mask="url(#satori_om-id-0)"/></mask><mask id="satori_om-id-0-0-0-0"><rect x="72" y="150" width="1056" height="38" fill="#fff" mask="url(#satori_om-id-0)"/></mask><path fill="#64748b" d="M82.7 180.2Q82.2 180.7 81.4 180.7Q80.6 180.7 80.1 180.2Q79.7 179.8 79.7 178.9L79.7 178.9L79.7 161.0L74.1 161.0Q73.4 161.0 73.0 160.5Q72.5 160.1 72.5 159.4Q72.5 158.8 73.0 158.3Q73.4 157.9 74.1 157.9L74.1 157.9L88.7 157.9Q89.4 157.9 89.9 158.3Q90.3 158.8 90.3 159.4Q90.3 160.1 89.9 160.5Q89.4 161.0 88.7 161.0L88.7 161.0L83.2 161.0L83.2 178.9Q83.2 179.8 82.7 180.2ZM95.5 180.3Q95.1 180.8 94.3 180.8Q93.6 180.8 93.1 180.3Q92.6 179.8 92.6 179.0L92.6 179.0L92.6 159.4Q92.6 158.6 93.1 158.1Q93.5 157.6 94.3 157.6L94.3 157.6Q95.1 157.6 95.5 158.1Q96.0 158.6 96.0 159.4L96.0 159.4L96.0 166.8L96.0 166.8Q96.7 165.3 98.1 164.5Q99.4 163.8 101.3 163.8L101.3 163.8Q103.9 163.8 105.5 165.4Q107.0 167.1 107.0 169.9L107.0 169.9L107.0 179.0Q107.0 179.8 106.5 180.3Q106.1 180.8 105.3 180.8L105.3 180.8Q104.6 180.8 104.1 180.3Q103.6 179.8 103.6 179.0L103.6 179.0L103.6 170.5Q103.6 168.7 102.7 167.7Q101.8 166.7 100.0 166.7L100.0 166.7Q98.2 166.7 97.1 167.8Q96 169.0 96 171.0L96 171.0L96 179.0Q96 179.8 95.5 180.3ZM116.0 180.8L116.0 180.8Q113.3 180.8 111.7 179.1Q110.2 177.5 110.2 174.7L110.2 174.7L110.2 165.5Q110.2 164.7 110.6 164.2Q111.1 163.7 111.9 163.7L111.9 163.7Q112.6 163.7 113.1 164.2Q113.6 164.7 113.6 165.5L113.6 165.5L113.6 174.0Q113.6 175.9 114.5 176.9Q115.3 177.9 117.1 177.9L117.1 177.9Q118.9 177.9 119.9 176.7Q121.0 175.5 121.0 173.6L121.0 173.6L121.0 165.5Q121.0 164.7 121.5 164.2Q121.9 163.7 122.7 163.7L122.7 163.7Q123.4 163.7 123.9 164.2Q124.4 164.7 124.4 165.5L124.4 165.5L124.4 179.0Q124.4 179.8 123.9 180.3Q123.5 180.8 122.8 180.8Q122.0 180.8 121.6 180.3Q121.1 179.8 121.1 179.1L121.1 179.1L121.1 177.7L121.0 177.7Q119.6 180.8 116.0 180.8ZM129.4 180.8L129.4 180.8Q128.6 180.8 128.1 180.3Q127.7 179.8 127.7 179.0L127.7 179.0L127.7 165.4Q127.7 164.7 128.1 164.2Q128.6 163.7 129.3 163.7L129.3 163.7Q130 163.7 130.4 164.2Q130.9 164.7 130.9 165.4L130.9 165.4L130.9 166.8L131.0 166.8Q131.3 165.5 132.3 164.6Q133.3 163.8 134.6 163.8L134.6 163.8Q135.5 163.8 135.9 164.2L135.9 164.2Q136.4 164.5 136.4 165.4L136.4 165.4Q136.4 166.1 135.9 166.5L135.9 166.5Q135.4 167.0 134.3 167.0L134.3 167.0Q132.7 167 131.9 168.0Q131.1 169.0 131.1 170.6L131.1 170.6L131.1 179.0Q131.1 179.8 130.6 180.3Q130.1 180.8 129.4 180.8ZM144.3 180.8L144.3 180.8Q141.9 180.8 140.2 179.9Q138.5 179.0 137.9 177.4L137.9 177.4Q137.7 177.1 137.7 176.7L137.7 176.7Q137.7 176.1 138.1 175.8Q138.5 175.4 139.2 175.4L139.2 175.4Q140.0 175.4 140.6 176.3L140.6 176.3Q141.3 177.3 142.1 177.8Q143.0 178.2 144.4 178.2L144.4 178.2Q145.9 178.2 146.8 177.6Q147.6 177.0 147.6 176.0L147.6 176.0Q147.6 175.2 147.1 174.7Q146.5 174.3 145.2 173.9L145.2 173.9L142.6 173.3Q137.9 172.2 137.9 168.7L137.9 168.7Q137.9 166.4 139.7 165.1Q141.5 163.7 144.4 163.7L144.4 163.7Q146.6 163.7 148.2 164.7Q149.9 165.7 150.3 167.2L150.3 167.2Q150.3 167.6 150.3 167.7L150.3 167.7Q150.3 168.3 150.0 168.6Q149.6 168.9 149 168.9L149 168.9Q148.1 168.9 147.6 168.2L147.6 168.2Q147.1 167.3 146.3 166.8Q145.5 166.3 144.3 166.3L144.3 166.3Q142.9 166.3 142.0 166.9Q141.2 167.5 141.2 168.5L141.2 168.5Q141.2 170.0 143.7 170.6L143.7 170.6L146.3 171.2Q148.9 171.8 150.0 172.9Q151.0 173.9 151.0 175.7L151.0 175.7Q151.0 178.0 149.2 179.4Q147.3 180.8 144.3 180.8ZM159.8 180.8L159.8 180.8Q156.7 180.8 154.8 178.4Q152.9 176.1 152.9 172.3Q152.9 168.4 154.8 166.1Q156.7 163.8 159.8 163.8L159.8 163.8Q161.5 163.8 162.9 164.6Q164.3 165.4 165.0 166.8L165.0 166.8L165.0 166.8L165.0 159.4Q165.0 158.6 165.5 158.1Q166.0 157.6 166.7 157.6L166.7 157.6Q167.5 157.6 167.9 158.1Q168.4 158.6 168.4 159.4L168.4 159.4L168.4 179.1Q168.4 179.9 167.9 180.3Q167.5 180.8 166.7 180.8L166.7 180.8Q166 180.8 165.5 180.3Q165.0 179.9 165.0 179.1L165.0 179.1L165.0 177.5L165.0 177.5Q164.3 179.0 163 179.9Q161.7 180.8 159.8 180.8ZM160.7 177.9L160.7 177.9Q162.7 177.9 163.9 176.4Q165.0 174.8 165.0 172.3L165.0 172.3Q165.0 169.7 163.9 168.2Q162.7 166.6 160.7 166.6L160.7 166.6Q158.7 166.6 157.5 168.1Q156.4 169.7 156.4 172.3L156.4 172.3Q156.4 174.9 157.5 176.4Q158.7 177.9 160.7 177.9ZM176.7 180.8L176.7 180.8Q174.3 180.8 172.7 179.4Q171.2 178 171.2 175.8L171.2 175.8Q171.2 173.6 172.8 172.4Q174.4 171.1 177.3 170.9L177.3 170.9L181.8 170.7L181.8 169.4Q181.8 168.0 180.9 167.3Q180.1 166.5 178.5 166.5L178.5 166.5Q177.3 166.5 176.4 167.0Q175.6 167.5 174.9 168.6L174.9 168.6Q174.4 169.3 173.5 169.3L173.5 169.3Q172.9 169.3 172.5 168.9Q172.0 168.5 172.0 167.9L172.0 167.9Q172.0 167.3 172.3 166.8L172.3 166.8Q173.0 165.4 174.7 164.6Q176.4 163.7 178.6 163.7L178.6 163.7Q181.6 163.7 183.4 165.2Q185.2 166.7 185.2 169.1L185.2 169.1L185.2 179.1Q185.2 179.8 184.7 180.3Q184.3 180.8 183.5 180.8L183.5 180.8Q182.8 180.8 182.4 180.3Q182.0 179.9 181.9 179.2L181.9 179.2L181.9 177.8L181.9 177.8Q181.2 179.1 179.7 179.9Q178.3 180.8 176.7 180.8ZM177.6 178.1L177.6 178.1Q179.4 178.1 180.6 177.0Q181.8 175.9 181.8 174.3L181.8 174.3L181.8 173.0L177.8 173.3Q176.2 173.4 175.4 174.0Q174.6 174.6 174.6 175.7L174.6 175.7Q174.6 176.8 175.4 177.4Q176.3 178.1 177.6 178.1ZM190.5 186.6L190.5 186.6Q189.3 186.6 188.7 186.2Q188.0 185.8 188.0 185.0L188.0 185.0Q188.0 184.4 188.4 184.1Q188.8 183.8 189.4 183.8L189.4 183.8Q189.5 183.8 189.8 183.8Q190.0 183.8 190.2 183.8L190.2 183.8Q191.9 183.8 192.7 181.6L192.7 181.6L193.0 180.6L187.5 166.3Q187.4 165.7 187.4 165.3L187.4 165.3Q187.4 164.6 187.8 164.2Q188.3 163.7 189.1 163.7L189.1 163.7Q189.7 163.7 190.1 164.0Q190.5 164.3 190.7 165.0L190.7 165.0L194.9 177.4L194.9 177.4L199.1 165.0Q199.3 164.3 199.7 164.0Q200.1 163.7 200.8 163.7L200.8 163.7Q201.5 163.7 201.9 164.2Q202.4 164.6 202.4 165.3L202.4 165.3Q202.4 165.7 202.2 166.2L202.2 166.2L196.5 181.3Q195.4 184.3 194.1 185.4Q192.8 186.6 190.5 186.6ZM207.2 176.7L207.2 176.7Q207.9 176.7 208.3 177.0Q208.7 177.4 208.7 178.1L208.7 178.1Q208.7 178.5 208.6 179.0L208.6 179.0L207.3 184.3Q207.0 185.5 205.8 185.5L205.8 185.5Q205.2 185.5 204.9 185.1Q204.5 184.8 204.5 184.3L204.5 184.3Q204.5 184.1 204.5 183.9L204.5 183.9L205.5 178.1Q205.8 176.7 207.2 176.7Z M228.1 180.9L228.1 180.9Q225.5 180.9 223.5 179.6Q221.5 178.3 220.4 175.9L220.4 175.9Q219.2 173.3 219.2 169.5L219.2 169.5Q219.2 163.8 221.6 160.7Q224.0 157.5 228.2 157.5L228.2 157.5Q230.6 157.5 232.4 158.5Q234.3 159.4 235.2 161.1L235.2 161.1Q235.6 161.8 235.6 162.4L235.6 162.4Q235.6 163.0 235.1 163.4Q234.7 163.8 234.0 163.8L234.0 163.8Q233.5 163.8 233.1 163.6Q232.8 163.3 232.3 162.7L232.3 162.7Q230.8 160.4 228.2 160.4L228.2 160.4Q225.5 160.4 224.1 162.7Q222.7 165.0 222.6 169.1L222.6 169.1L222.6 169.3L222.7 169.3Q223.4 167.7 225.0 166.7Q226.7 165.7 228.9 165.7L228.9 165.7Q232.1 165.7 234.2 167.8Q236.3 169.9 236.3 173.1L236.3 173.1Q236.3 176.5 234 178.7Q231.7 180.9 228.1 180.9ZM228.0 178.0L228.0 178.0Q230.1 178.0 231.5 176.6Q232.8 175.2 232.8 173.2L232.8 173.2Q232.8 171.2 231.5 169.8Q230.2 168.5 228.1 168.5Q226.0 168.5 224.6 169.8Q223.3 171.1 223.3 173.1L223.3 173.1Q223.3 175.2 224.7 176.6Q226.0 178.0 228.0 178.0Z M249.0 180.2Q248.6 180.7 247.8 180.7Q247 180.7 246.5 180.2Q246.1 179.8 246.1 178.9L246.1 178.9L246.1 159.6Q246.1 158.7 246.6 158.2Q247.1 157.7 248.0 157.7L248.0 157.7Q248.6 157.7 249.0 157.9Q249.4 158.2 249.9 158.8L249.9 158.8L261.0 174.5L261.1 174.5L261.1 159.5Q261.1 158.6 261.5 158.1Q262 157.7 262.8 157.7L262.8 157.7Q263.6 157.7 264.0 158.1Q264.5 158.6 264.5 159.5L264.5 159.5L264.5 178.9Q264.5 179.8 264 180.2Q263.5 180.7 262.6 180.7L262.6 180.7Q262 180.7 261.6 180.5Q261.2 180.3 260.8 179.6L260.8 179.6L249.6 163.9L249.5 163.9L249.5 178.9Q249.5 179.8 249.0 180.2ZM281.0 178.5Q278.8 180.8 275.3 180.8Q271.8 180.8 269.6 178.5Q267.5 176.2 267.5 172.3L267.5 172.3Q267.5 168.3 269.6 166.0Q271.8 163.7 275.3 163.7Q278.8 163.7 281.0 166.0Q283.1 168.3 283.1 172.3L283.1 172.3Q283.1 176.2 281.0 178.5ZM275.3 178L275.3 178Q277.3 178 278.5 176.5Q279.7 175.0 279.7 172.3L279.7 172.3Q279.7 169.5 278.5 168.0Q277.3 166.5 275.3 166.5Q273.3 166.5 272.1 168.0Q270.9 169.5 270.9 172.3L270.9 172.3Q270.9 175.0 272.1 176.5Q273.3 178 275.3 178ZM292.0 180.8L292.0 180.8Q291.1 180.8 290.6 180.4Q290.1 180.0 289.7 179.0L289.7 179.0L284.8 166.2Q284.6 165.7 284.6 165.3L284.6 165.3Q284.6 164.6 285.1 164.2Q285.6 163.7 286.3 163.7L286.3 163.7Q287.5 163.7 287.9 165.1L287.9 165.1L292.0 177.2L292.1 177.2L296.2 165.0Q296.6 163.7 297.7 163.7L297.7 163.7Q298.5 163.7 298.9 164.2Q299.4 164.6 299.4 165.3L299.4 165.3Q299.4 165.7 299.2 166.2L299.2 166.2L294.3 179.0Q294.0 179.9 293.5 180.4Q292.9 180.8 292.0 180.8ZM308.8 180.8L308.8 180.8Q305.1 180.8 303.0 178.5Q300.9 176.3 300.9 172.3L300.9 172.3Q300.9 168.4 303.0 166.1Q305.1 163.7 308.6 163.7L308.6 163.7Q311.8 163.7 313.9 165.9Q316.0 168 316.0 171.4L316.0 171.4Q316.0 172.2 315.5 172.6Q315.1 173.1 314.3 173.1L314.3 173.1L304.3 173.1L304.3 173.2Q304.3 175.4 305.5 176.7Q306.7 178.0 308.7 178.0L308.7 178.0Q310.1 178.0 311.1 177.5Q312.0 177.0 313.0 175.7L313.0 175.7Q313.5 175.1 314.2 175.1L314.2 175.1Q314.8 175.1 315.2 175.5Q315.6 175.9 315.6 176.5L315.6 176.5Q315.6 176.8 315.3 177.4L315.3 177.4Q314.5 179 312.8 179.9Q311.1 180.8 308.8 180.8ZM304.4 170.7L304.4 170.7L312.6 170.7Q312.5 168.8 311.4 167.6Q310.3 166.5 308.5 166.5L308.5 166.5Q306.8 166.5 305.6 167.6Q304.5 168.8 304.4 170.7ZM321.5 180.3Q321.0 180.8 320.3 180.8Q319.5 180.8 319.0 180.3Q318.6 179.8 318.6 179.0L318.6 179.0L318.6 165.5Q318.6 164.7 319.0 164.2Q319.5 163.7 320.2 163.7Q320.9 163.7 321.3 164.2Q321.8 164.7 321.8 165.5L321.8 165.5L321.8 166.8L321.9 166.8Q322.4 165.4 323.7 164.6Q324.9 163.8 326.5 163.8L326.5 163.8Q328.2 163.8 329.4 164.6Q330.6 165.4 331.1 167.0L331.1 167.0L331.2 167.0Q331.8 165.5 333.2 164.6Q334.6 163.8 336.3 163.8L336.3 163.8Q338.8 163.8 340.2 165.2Q341.7 166.7 341.7 169.2L341.7 169.2L341.7 179.0Q341.7 179.8 341.2 180.3Q340.8 180.8 340 180.8Q339.2 180.8 338.8 180.3Q338.3 179.8 338.3 179.0L338.3 179.0L338.3 170.0Q338.3 168.4 337.5 167.5Q336.7 166.6 335.2 166.6Q333.7 166.6 332.7 167.6Q331.8 168.6 331.8 170.2L331.8 170.2L331.8 179.0Q331.8 179.8 331.3 180.3Q330.9 180.8 330.1 180.8Q329.4 180.8 328.9 180.3Q328.5 179.8 328.5 179.0L328.5 179.0L328.5 169.7Q328.5 168.3 327.6 167.5Q326.8 166.6 325.4 166.6L325.4 166.6Q323.9 166.6 322.9 167.7Q321.9 168.7 321.9 170.3L321.9 170.3L321.9 179.0Q321.9 179.8 321.5 180.3ZM346.7 180.8L346.7 180.8Q346.0 180.8 345.5 180.3Q345.1 179.9 345.1 179.1L345.1 179.1L345.1 159.4Q345.1 158.6 345.5 158.1Q346.0 157.6 346.8 157.6Q347.5 157.6 348.0 158.1Q348.5 158.6 348.5 159.4L348.5 159.4L348.5 166.8L348.5 166.8Q349.3 165.4 350.6 164.6Q352 163.8 353.7 163.8L353.7 163.8Q356.8 163.8 358.7 166.1Q360.6 168.4 360.6 172.3L360.6 172.3Q360.6 176.2 358.7 178.5Q356.8 180.8 353.7 180.8L353.7 180.8Q351.9 180.8 350.6 179.9Q349.2 179.1 348.4 177.7L348.4 177.7L348.4 177.7L348.4 179.1Q348.4 179.9 347.9 180.3Q347.4 180.8 346.7 180.8ZM352.8 177.9L352.8 177.9Q354.8 177.9 356.0 176.4Q357.1 174.9 357.1 172.3L357.1 172.3Q357.1 169.7 355.9 168.1Q354.8 166.6 352.8 166.6L352.8 166.6Q350.9 166.6 349.7 168.2Q348.4 169.7 348.4 172.3L348.4 172.3Q348.4 174.8 349.7 176.3Q350.9 177.9 352.8 177.9ZM370.3 180.8L370.3 180.8Q366.6 180.8 364.5 178.5Q362.5 176.3 362.5 172.3L362.5 172.3Q362.5 168.4 364.5 166.1Q366.6 163.7 370.1 163.7L370.1 163.7Q373.4 163.7 375.4 165.9Q377.5 168 377.5 171.4L377.5 171.4Q377.5 172.2 377.0 172.6Q376.6 173.1 375.8 173.1L375.8 173.1L365.9 173.1L365.9 173.2Q365.9 175.4 367.0 176.7Q368.2 178.0 370.2 178.0L370.2 178.0Q371.6 178.0 372.6 177.5Q373.5 177.0 374.5 175.7L374.5 175.7Q375.0 175.1 375.7 175.1L375.7 175.1Q376.3 175.1 376.7 175.5Q377.1 175.9 377.1 176.5L377.1 176.5Q377.1 176.8 376.8 177.4L376.8 177.4Q376.0 179 374.3 179.9Q372.6 180.8 370.3 180.8ZM365.9 170.7L365.9 170.7L374.1 170.7Q374.0 168.8 372.9 167.6Q371.8 166.5 370.1 166.5L370.1 166.5Q368.3 166.5 367.2 167.6Q366 168.8 365.9 170.7ZM381.8 180.8L381.8 180.8Q381 180.8 380.5 180.3Q380.1 179.8 380.1 179.0L380.1 179.0L380.1 165.4Q380.1 164.7 380.5 164.2Q381.0 163.7 381.7 163.7L381.7 163.7Q382.4 163.7 382.8 164.2Q383.3 164.7 383.3 165.4L383.3 165.4L383.3 166.8L383.4 166.8Q383.7 165.5 384.7 164.6Q385.7 163.8 387.0 163.8L387.0 163.8Q387.9 163.8 388.3 164.2L388.3 164.2Q388.8 164.5 388.8 165.4L388.8 165.4Q388.8 166.1 388.3 166.5L388.3 166.5Q387.8 167.0 386.7 167.0L386.7 167.0Q385.0 167 384.3 168.0Q383.5 169.0 383.5 170.6L383.5 170.6L383.5 179.0Q383.5 179.8 383.0 180.3Q382.5 180.8 381.8 180.8Z M411.2 180.5L398.7 180.5Q398.0 180.5 397.5 180.1Q397.1 179.7 397.1 179L397.1 179Q397.1 178.5 397.3 178.1Q397.5 177.8 398.0 177.2L398.0 177.2L405.1 170.0Q407.3 167.8 408.0 166.6Q408.8 165.4 408.8 164.1L408.8 164.1Q408.8 162.5 407.6 161.4Q406.5 160.4 404.8 160.4L404.8 160.4Q401.5 160.4 400.3 163.7L400.3 163.7Q400.0 164.3 399.7 164.6Q399.3 164.9 398.7 164.9L398.7 164.9Q398 164.9 397.6 164.5Q397.2 164.0 397.2 163.4L397.2 163.4Q397.2 163 397.3 162.6L397.3 162.6Q397.5 161.7 398.0 160.8Q398.6 159.9 399.5 159.2Q400.5 158.4 401.9 158.0Q403.2 157.5 404.8 157.5L404.8 157.5Q408.1 157.5 410.1 159.3Q412.2 161.1 412.2 163.9L412.2 163.9Q412.2 165.8 411.2 167.5Q410.1 169.1 407.2 172.0L407.2 172.0L401.8 177.4L401.8 177.5L411.2 177.5Q411.9 177.5 412.3 177.9Q412.7 178.3 412.7 179L412.7 179Q412.7 179.7 412.3 180.1Q411.9 180.5 411.2 180.5L411.2 180.5ZM430.3 177.7Q428.0 180.9 423.9 180.9Q419.9 180.9 417.6 177.7Q415.3 174.6 415.3 169.2L415.3 169.2Q415.3 163.8 417.6 160.6Q419.9 157.5 423.9 157.5L423.9 157.5Q427.9 157.5 430.2 160.6Q432.5 163.8 432.5 169.2L432.5 169.2Q432.5 174.6 430.3 177.7ZM423.9 178.0L423.9 178.0Q426.3 178.0 427.7 175.6Q429 173.3 429 169.2L429 169.2Q429 165.1 427.7 162.8Q426.3 160.4 423.9 160.4Q421.5 160.4 420.2 162.8Q418.8 165.1 418.8 169.2L418.8 169.2Q418.8 173.3 420.2 175.6Q421.5 178.0 423.9 178.0ZM449.7 180.5L437.2 180.5Q436.5 180.5 436.0 180.1Q435.6 179.7 435.6 179L435.6 179Q435.6 178.5 435.8 178.1Q436.0 177.8 436.5 177.2L436.5 177.2L443.6 170.0Q445.8 167.8 446.5 166.6Q447.3 165.4 447.3 164.1L447.3 164.1Q447.3 162.5 446.1 161.4Q445.0 160.4 443.3 160.4L443.3 160.4Q440.0 160.4 438.8 163.7L438.8 163.7Q438.5 164.3 438.2 164.6Q437.8 164.9 437.2 164.9L437.2 164.9Q436.5 164.9 436.1 164.5Q435.7 164.0 435.7 163.4L435.7 163.4Q435.7 163 435.8 162.6L435.8 162.6Q436.0 161.7 436.5 160.8Q437.1 159.9 438.0 159.2Q439.0 158.4 440.4 158.0Q441.7 157.5 443.3 157.5L443.3 157.5Q446.6 157.5 448.6 159.3Q450.7 161.1 450.7 163.9L450.7 163.9Q450.7 165.8 449.7 167.5Q448.6 169.1 445.7 172.0L445.7 172.0L440.3 177.4L440.3 177.5L449.7 177.5Q450.4 177.5 450.8 177.9Q451.2 178.3 451.2 179L451.2 179Q451.2 179.7 450.8 180.1Q450.4 180.5 449.7 180.5L449.7 180.5ZM462.2 180.9L462.2 180.9Q459.7 180.9 457.7 179.8Q455.7 178.6 454.9 176.8L454.9 176.8Q454.5 176.0 454.5 175.2L454.5 175.2Q454.5 174.5 454.9 174.1Q455.3 173.7 456.1 173.7L456.1 173.7Q456.6 173.7 457.0 174.0Q457.4 174.2 457.6 174.8L457.6 174.8Q458.2 176.3 459.4 177.1Q460.6 178.0 462.3 178.0L462.3 178.0Q464.4 178.0 465.8 176.6Q467.1 175.3 467.1 173.1L467.1 173.1Q467.1 171.0 465.7 169.7Q464.4 168.4 462.3 168.4L462.3 168.4Q460.0 168.4 458.6 169.9L458.6 169.9Q457.9 170.6 457.5 170.9Q457.1 171.1 456.5 171.1L456.5 171.1Q455.7 171.1 455.2 170.6Q454.8 170.0 454.8 169.3L454.8 169.3L454.8 169.0L455.6 160.3Q455.7 159.0 456.3 158.5Q457.0 157.9 458.3 157.9L458.3 157.9L467.8 157.9Q468.5 157.9 469.0 158.3Q469.4 158.7 469.4 159.4Q469.4 160.1 469.0 160.5Q468.5 160.9 467.8 160.9L467.8 160.9L458.6 160.9L458.0 167.9L458.0 167.9Q458.8 166.8 460.1 166.2Q461.4 165.6 463.1 165.6L463.1 165.6Q466.4 165.6 468.4 167.7Q470.5 169.8 470.5 173.0L470.5 173.0Q470.5 176.5 468.2 178.7Q465.9 180.9 462.2 180.9Z " clip-path="url(#satori_cp-id-0)" mask="url(#satori_om-id-0)"/><mask id="satori_om-id-0-0-0-1"><rect x="72" y="212" width="1056" height="147" fill="#fff" mask="url(#satori_om-id-0)"/></mask><path fill="#0f172a" d="M101.2 271.6L80.5 271.6Q78.3 271.6 77 270.3Q75.8 269.0 75.8 266.6L75.8 266.6L75.8 230.8Q75.8 228.4 77 227.1Q78.3 225.8 80.5 225.8Q82.7 225.8 83.9 227.1Q85.2 228.4 85.2 230.8L85.2 230.8L85.2 263.7L101.2 263.7Q103.1 263.7 104.3 264.8Q105.5 265.8 105.5 267.6Q105.5 269.5 104.3 270.5Q103.2 271.6 101.2 271.6L101.2 271.6ZM119.6 272.1L119.6 272.1Q114.8 272.1 111.6 269.2Q108.4 266.4 108.4 261.9L108.4 261.9Q108.4 257.4 111.8 254.8Q115.2 252.2 121.5 251.8L121.5 251.8L129.9 251.3L129.9 249.1Q129.9 246.8 128.4 245.5Q126.9 244.1 124.3 244.1L124.3 244.1Q122.2 244.1 120.8 244.9Q119.3 245.7 117.8 247.7L117.8 247.7Q116.3 249.4 114.2 249.4L114.2 249.4Q112.5 249.4 111.4 248.4Q110.3 247.4 110.3 245.9L110.3 245.9Q110.3 244.8 110.8 243.8L110.8 243.8Q112.0 240.8 115.7 239.1Q119.5 237.3 124.7 237.3L124.7 237.3Q131.1 237.3 135 240.4Q138.9 243.5 138.9 248.5L138.9 248.5L138.9 267.6Q138.9 269.8 137.7 271.0Q136.4 272.2 134.4 272.2L134.4 272.2Q132.5 272.2 131.4 271.2Q130.2 270.1 130.1 268.1L130.1 268.1L130.1 266.4L129.9 266.4Q128.5 269.1 125.7 270.6Q122.8 272.1 119.6 272.1ZM122.6 265.5L122.6 265.5Q125.7 265.5 127.8 263.7Q129.9 262.0 129.9 259.3L129.9 259.3L129.9 256.8L122.8 257.3Q120.3 257.5 118.9 258.6Q117.5 259.6 117.5 261.4L117.5 261.4Q117.5 263.3 118.9 264.4Q120.3 265.5 122.6 265.5ZM147.2 263.0L147.2 263.0L147.2 244.9L145.4 244.9Q143.8 244.9 142.9 244.0Q141.9 243.1 141.9 241.5Q141.9 239.9 142.9 239.0Q143.8 238.1 145.4 238.1L145.4 238.1L147.2 238.1L147.2 234.3Q147.2 232.1 148.4 230.8Q149.6 229.6 151.8 229.6Q153.9 229.6 155.1 230.8Q156.3 232.1 156.3 234.3L156.3 234.3L156.3 238.1L159.5 238.1Q161.2 238.1 162.1 239.0Q163.0 239.9 163.0 241.5Q163.0 243.1 162.1 244.0Q161.2 244.9 159.5 244.9L159.5 244.9L156.3 244.9L156.3 261.0Q156.3 262.7 157.0 263.6Q157.6 264.4 159.1 264.5L159.1 264.5L159.7 264.6Q161.4 264.7 162.3 265.5Q163.2 266.3 163.2 267.9L163.2 267.9Q163.2 269.8 161.4 270.9Q159.7 271.9 156.7 271.9L156.7 271.9L156.4 271.9Q147.2 271.9 147.2 263.0ZM182.9 272.3L182.9 272.3Q175.1 272.3 170.7 267.7Q166.3 263.1 166.3 255.0L166.3 255.0Q166.3 246.9 170.7 242.1Q175.0 237.3 182.5 237.3L182.5 237.3Q189.6 237.3 194.0 241.7Q198.3 246.1 198.3 252.9L198.3 252.9Q198.3 254.8 197.3 255.9Q196.3 256.9 194.4 256.9L194.4 256.9L175.3 256.9L175.3 257.3Q175.3 261.0 177.3 263.3Q179.4 265.5 182.9 265.5L182.9 265.5Q185.4 265.5 187.2 264.6Q189.0 263.7 190.9 261.5L190.9 261.5Q192.2 260.1 193.8 260.1L193.8 260.1Q195.4 260.1 196.4 261.1Q197.4 262.0 197.4 263.5L197.4 263.5Q197.4 264.6 196.8 265.7L196.8 265.7Q195.1 268.8 191.4 270.5Q187.8 272.3 182.9 272.3ZM175.3 251.3L175.3 251.3L189.6 251.3Q189.4 248.0 187.5 246.1Q185.6 244.1 182.6 244.1Q179.6 244.1 177.6 246.1Q175.6 248.1 175.3 251.3ZM210.9 271.0Q209.7 272.2 207.6 272.2Q205.5 272.2 204.3 271.0Q203.0 269.7 203.0 267.5L203.0 267.5L203.0 242.0Q203.0 239.8 204.2 238.6Q205.4 237.4 207.4 237.4Q209.5 237.4 210.8 238.6Q212 239.9 212 242.0L212 242.0L212 243.9L212.2 243.9Q214.9 237.4 222.5 237.4L222.5 237.4Q228.1 237.4 231.1 240.7Q234.1 244.1 234.1 250.0L234.1 250.0L234.1 267.5Q234.1 269.7 232.9 271.0Q231.6 272.2 229.6 272.2Q227.5 272.2 226.3 271.0Q225 269.7 225 267.5L225 267.5L225 251.9Q225 248.6 223.4 246.8Q221.9 245.0 218.8 245.0Q215.8 245.0 214.0 247.0Q212.2 249.1 212.2 252.3L212.2 252.3L212.2 267.5Q212.2 269.7 210.9 271.0ZM242.3 263.0L242.3 263.0L242.3 244.9L240.6 244.9Q239.0 244.9 238.0 244.0Q237.1 243.1 237.1 241.5Q237.1 239.9 238.0 239.0Q239.0 238.1 240.6 238.1L240.6 238.1L242.3 238.1L242.3 234.3Q242.3 232.1 243.6 230.8Q244.8 229.6 246.9 229.6Q249.0 229.6 250.3 230.8Q251.5 232.1 251.5 234.3L251.5 234.3L251.5 238.1L254.7 238.1Q256.3 238.1 257.3 239.0Q258.2 239.9 258.2 241.5Q258.2 243.1 257.3 244.0Q256.3 244.9 254.7 244.9L254.7 244.9L251.5 244.9L251.5 261.0Q251.5 262.7 252.1 263.6Q252.8 264.4 254.3 264.5L254.3 264.5L254.8 264.6Q256.6 264.7 257.5 265.5Q258.3 266.3 258.3 267.9L258.3 267.9Q258.3 269.8 256.6 270.9Q254.8 271.9 251.8 271.9L251.8 271.9L251.5 271.9Q242.3 271.9 242.3 263.0Z M284.3 270.8Q283.0 272.1 280.8 272.1Q278.6 272.1 277.3 270.8Q276.1 269.6 276.1 267.2L276.1 267.2L276.1 230.8Q276.1 228.4 277.3 227.1Q278.6 225.8 280.8 225.8Q283.0 225.8 284.3 227.1Q285.5 228.4 285.5 230.8L285.5 230.8L285.5 244.8L305.8 244.8L305.8 230.8Q305.8 228.4 307.1 227.1Q308.3 225.8 310.6 225.8Q312.8 225.8 314.0 227.1Q315.3 228.4 315.3 230.8L315.3 230.8L315.3 267.2Q315.3 269.6 314.0 270.8Q312.8 272.1 310.6 272.1Q308.3 272.1 307.1 270.8Q305.8 269.6 305.8 267.2L305.8 267.2L305.8 252.6L285.5 252.6L285.5 267.2Q285.5 269.6 284.3 270.8ZM327.7 284.0L327.7 284.0Q324.7 284.0 323.1 282.8Q321.5 281.7 321.5 279.7L321.5 279.7Q321.5 278.3 322.4 277.5Q323.3 276.7 324.9 276.7L324.9 276.7Q325.2 276.7 325.7 276.7Q326.2 276.7 326.5 276.7L326.5 276.7Q329.5 276.7 330.9 273.7L330.9 273.7L331.3 272.5L320.7 244.3Q320.1 242.9 320.1 241.6L320.1 241.6Q320.1 239.8 321.5 238.6Q322.8 237.4 324.8 237.4L324.8 237.4Q326.7 237.4 327.7 238.2Q328.7 239.1 329.3 241.1L329.3 241.1L336.5 264.2L336.7 264.2L344.0 241.0Q344.5 239.1 345.6 238.2Q346.6 237.4 348.4 237.4L348.4 237.4Q350.3 237.4 351.6 238.5Q352.8 239.7 352.8 241.5L352.8 241.5Q352.8 242.8 352.3 244.2L352.3 244.2L342.0 272.1Q339.7 278.6 336.4 281.3Q333.2 284.0 327.7 284.0ZM364.6 282.3Q363.4 283.5 361.3 283.5Q359.3 283.5 358 282.3Q356.8 281.0 356.8 278.7L356.8 278.7L356.8 242.1Q356.8 239.8 358.0 238.6Q359.2 237.4 361.3 237.4Q363.3 237.4 364.5 238.6Q365.8 239.8 365.8 242.1L365.8 242.1L365.8 243.9L365.9 243.9Q367.3 240.9 370.0 239.2Q372.7 237.5 376.3 237.5L376.3 237.5Q382.7 237.5 386.4 242.1Q390.0 246.7 390.0 254.8L390.0 254.8Q390.0 262.9 386.4 267.5Q382.8 272.1 376.5 272.1L376.5 272.1Q372.9 272.1 370.1 270.4Q367.4 268.8 366.1 265.9L366.1 265.9L365.9 265.9L365.9 278.7Q365.9 281.0 364.6 282.3ZM373.3 264.7L373.3 264.7Q376.7 264.7 378.7 262.1Q380.7 259.4 380.7 254.8Q380.7 250.2 378.7 247.5Q376.7 244.8 373.3 244.8L373.3 244.8Q369.9 244.8 367.9 247.6Q365.8 250.3 365.8 254.8L365.8 254.8Q365.8 259.3 367.9 262.0Q369.9 264.7 373.3 264.7ZM422.2 267.6Q417.8 272.3 410.1 272.3Q402.4 272.3 398.0 267.6Q393.5 263.0 393.5 254.8L393.5 254.8Q393.5 246.7 398.0 242.0Q402.5 237.3 410.1 237.3L410.1 237.3Q417.7 237.3 422.2 242.0Q426.7 246.7 426.7 254.8L426.7 254.8Q426.7 263.0 422.2 267.6ZM410.1 265.3L410.1 265.3Q413.5 265.3 415.4 262.6Q417.4 259.8 417.4 254.8L417.4 254.8Q417.4 249.9 415.4 247.1Q413.5 244.3 410.1 244.3Q406.7 244.3 404.7 247.1Q402.8 249.9 402.8 254.8L402.8 254.8Q402.8 259.8 404.7 262.6Q406.7 265.3 410.1 265.3ZM433.8 263.0L433.8 263.0L433.8 244.9L432.1 244.9Q430.4 244.9 429.5 244.0Q428.5 243.1 428.5 241.5Q428.5 239.9 429.5 239.0Q430.4 238.1 432.1 238.1L432.1 238.1L433.8 238.1L433.8 234.3Q433.8 232.1 435.0 230.8Q436.3 229.6 438.4 229.6Q440.5 229.6 441.7 230.8Q442.9 232.1 442.9 234.3L442.9 234.3L442.9 238.1L446.2 238.1Q447.8 238.1 448.7 239.0Q449.7 239.9 449.7 241.5Q449.7 243.1 448.7 244.0Q447.8 244.9 446.2 244.9L446.2 244.9L442.9 244.9L442.9 261.0Q442.9 262.7 443.6 263.6Q444.3 264.4 445.7 264.5L445.7 264.5L446.3 264.6Q448.1 264.7 448.9 265.5Q449.8 266.3 449.8 267.9L449.8 267.9Q449.8 269.8 448.0 270.9Q446.3 271.9 443.3 271.9L443.3 271.9L443 271.9Q433.8 271.9 433.8 263.0ZM462.2 271.0Q461.0 272.2 458.9 272.2Q456.8 272.2 455.6 271.0Q454.3 269.7 454.3 267.5L454.3 267.5L454.3 230.5Q454.3 228.3 455.5 227.0Q456.7 225.8 458.8 225.8L458.8 225.8Q460.9 225.8 462.1 227.0Q463.3 228.2 463.3 230.5L463.3 230.5L463.3 244.0L463.5 244.0Q464.8 240.8 467.5 239.1Q470.3 237.4 474.0 237.4L474.0 237.4Q479.6 237.4 482.6 240.8Q485.7 244.1 485.7 250.0L485.7 250.0L485.7 267.5Q485.7 269.7 484.5 271.0Q483.2 272.2 481.2 272.2Q479.1 272.2 477.8 271.0Q476.6 269.7 476.6 267.5L476.6 267.5L476.6 251.9Q476.6 248.6 475.0 246.8Q473.4 245.0 470.3 245.0L470.3 245.0Q467.1 245.0 465.3 247.0Q463.5 249.1 463.5 252.4L463.5 252.4L463.5 267.5Q463.5 269.7 462.2 271.0ZM506.9 272.3L506.9 272.3Q499.1 272.3 494.7 267.7Q490.3 263.1 490.3 255.0L490.3 255.0Q490.3 246.9 494.7 242.1Q499.1 237.3 506.5 237.3L506.5 237.3Q513.6 237.3 518.0 241.7Q522.4 246.1 522.4 252.9L522.4 252.9Q522.4 254.8 521.3 255.9Q520.3 256.9 518.4 256.9L518.4 256.9L499.3 256.9L499.3 257.3Q499.3 261.0 501.4 263.3Q503.4 265.5 506.9 265.5L506.9 265.5Q509.4 265.5 511.2 264.6Q513.1 263.7 514.9 261.5L514.9 261.5Q516.2 260.1 517.9 260.1L517.9 260.1Q519.4 260.1 520.4 261.1Q521.4 262.0 521.4 263.5L521.4 263.5Q521.4 264.6 520.8 265.7L520.8 265.7Q519.2 268.8 515.5 270.5Q511.8 272.3 506.9 272.3ZM499.4 251.3L499.4 251.3L513.6 251.3Q513.5 248.0 511.5 246.1Q509.6 244.1 506.6 244.1Q503.6 244.1 501.6 246.1Q499.6 248.1 499.4 251.3ZM540.7 272.3L540.7 272.3Q535.1 272.3 531.3 270.4Q527.5 268.6 526.3 265.6L526.3 265.6Q526.0 264.6 526.0 263.9L526.0 263.9Q526.0 262.3 527.0 261.4Q528.1 260.4 529.7 260.4L529.7 260.4Q531.8 260.4 533.6 262.5L533.6 262.5Q535 264.2 536.7 265.1Q538.4 265.9 540.9 265.9L540.9 265.9Q543.4 265.9 544.9 264.9Q546.4 263.9 546.4 262.3L546.4 262.3Q546.4 260.9 545.4 260.1Q544.4 259.3 542.0 258.8L542.0 258.8L536.3 257.6Q531.4 256.5 529.0 254.1Q526.5 251.6 526.5 247.9L526.5 247.9Q526.5 243.1 530.3 240.2Q534.2 237.3 540.7 237.3L540.7 237.3Q545.8 237.3 549.4 239.3Q553.0 241.3 553.8 244.3L553.8 244.3Q554.0 245.1 554.0 245.6L554.0 245.6Q554.0 247.1 553.1 247.9Q552.3 248.7 550.5 248.7L550.5 248.7Q548.4 248.7 547.2 247.3L547.2 247.3Q545.8 245.6 544.3 244.7Q542.8 243.7 540.5 243.7L540.5 243.7Q538.2 243.7 536.8 244.7Q535.3 245.7 535.3 247.4L535.3 247.4Q535.3 248.7 536.4 249.6Q537.5 250.5 539.9 251.0L539.9 251.0L545.5 252.2Q550.8 253.3 553.2 255.4Q555.5 257.6 555.5 261.3L555.5 261.3Q555.5 266.3 551.5 269.3Q547.4 272.3 540.7 272.3ZM568.2 232.5Q566.8 233.9 564.8 233.9Q562.7 233.9 561.3 232.5Q559.9 231.1 559.9 229.2L559.9 229.2Q559.9 227.2 561.3 225.8Q562.7 224.5 564.8 224.5Q566.8 224.5 568.2 225.8Q569.6 227.2 569.6 229.2L569.6 229.2Q569.6 231.1 568.2 232.5ZM568.1 270.9Q566.9 272.2 564.8 272.2Q562.6 272.2 561.4 270.9Q560.2 269.7 560.2 267.5L560.2 267.5L560.2 242.1Q560.2 239.9 561.4 238.6Q562.6 237.4 564.8 237.4Q566.9 237.4 568.1 238.6Q569.3 239.9 569.3 242.1L569.3 242.1L569.3 267.5Q569.3 269.7 568.1 270.9ZM589.0 272.3L589.0 272.3Q583.4 272.3 579.6 270.4Q575.8 268.6 574.6 265.6L574.6 265.6Q574.3 264.6 574.3 263.9L574.3 263.9Q574.3 262.3 575.3 261.4Q576.4 260.4 578.0 260.4L578.0 260.4Q580.1 260.4 581.9 262.5L581.9 262.5Q583.3 264.2 585 265.1Q586.7 265.9 589.3 265.9L589.3 265.9Q591.8 265.9 593.2 264.9Q594.7 263.9 594.7 262.3L594.7 262.3Q594.7 260.9 593.7 260.1Q592.7 259.3 590.3 258.8L590.3 258.8L584.7 257.6Q579.8 256.5 577.3 254.1Q574.8 251.6 574.8 247.9L574.8 247.9Q574.8 243.1 578.6 240.2Q582.5 237.3 589 237.3L589 237.3Q594.1 237.3 597.7 239.3Q601.3 241.3 602.1 244.3L602.1 244.3Q602.3 245.1 602.3 245.6L602.3 245.6Q602.3 247.1 601.5 247.9Q600.6 248.7 598.8 248.7L598.8 248.7Q596.7 248.7 595.5 247.3L595.5 247.3Q594.2 245.6 592.6 244.7Q591.1 243.7 588.8 243.7L588.8 243.7Q586.5 243.7 585.1 244.7Q583.6 245.7 583.6 247.4L583.6 247.4Q583.6 248.7 584.7 249.6Q585.8 250.5 588.3 251.0L588.3 251.0L593.8 252.2Q599.1 253.3 601.5 255.4Q603.8 257.6 603.8 261.3L603.8 261.3Q603.8 266.3 599.8 269.3Q595.7 272.3 589.0 272.3ZM626.0 257.2L613 257.2Q611.1 257.2 609.9 256.1Q608.7 255.1 608.7 253.2Q608.7 251.4 609.9 250.3Q611.1 249.2 613 249.2L613 249.2L626.0 249.2Q627.9 249.2 629.1 250.3Q630.3 251.4 630.3 253.2Q630.3 255.1 629.1 256.1Q627.9 257.2 626.0 257.2L626.0 257.2ZM645.6 270.8Q644.3 272.1 642.1 272.1Q639.9 272.1 638.7 270.8Q637.4 269.6 637.4 267.2L637.4 267.2L637.4 231.4Q637.4 229.1 638.7 227.8Q639.9 226.5 642.1 226.5L642.1 226.5L655.8 226.5Q662.7 226.5 667.0 230.7Q671.4 235.0 671.4 241.9L671.4 241.9Q671.4 248.8 666.9 253.1Q662.4 257.3 655.3 257.3L655.3 257.3L646.8 257.3L646.8 267.2Q646.8 269.6 645.6 270.8ZM646.8 233.9L646.8 250.0L653.2 250.0Q657.3 250.0 659.5 247.9Q661.8 245.8 661.8 241.9Q661.8 238.1 659.5 236.0Q657.3 233.9 653.3 233.9L653.3 233.9L646.8 233.9ZM684.3 271.0Q683 272.2 680.9 272.2Q678.9 272.2 677.6 271.0Q676.4 269.7 676.4 267.5L676.4 267.5L676.4 230.6Q676.4 228.3 677.6 227.0Q678.9 225.8 680.9 225.8Q683 225.8 684.3 227.0Q685.5 228.3 685.5 230.6L685.5 230.6L685.5 267.5Q685.5 269.7 684.3 271.0ZM701.6 272.1L701.6 272.1Q696.7 272.1 693.5 269.2Q690.3 266.4 690.3 261.9L690.3 261.9Q690.3 257.4 693.7 254.8Q697.1 252.2 703.4 251.8L703.4 251.8L711.8 251.3L711.8 249.1Q711.8 246.8 710.3 245.5Q708.8 244.1 706.2 244.1L706.2 244.1Q704.1 244.1 702.7 244.9Q701.3 245.7 699.7 247.7L699.7 247.7Q698.2 249.4 696.1 249.4L696.1 249.4Q694.4 249.4 693.4 248.4Q692.3 247.4 692.3 245.9L692.3 245.9Q692.3 244.8 692.8 243.8L692.8 243.8Q693.9 240.8 697.7 239.1Q701.4 237.3 706.6 237.3L706.6 237.3Q713.1 237.3 716.9 240.4Q720.8 243.5 720.8 248.5L720.8 248.5L720.8 267.6Q720.8 269.8 719.6 271.0Q718.4 272.2 716.4 272.2L716.4 272.2Q714.5 272.2 713.3 271.2Q712.1 270.1 712 268.1L712 268.1L712 266.4L711.8 266.4Q710.4 269.1 707.6 270.6Q704.8 272.1 701.6 272.1ZM704.6 265.5L704.6 265.5Q707.6 265.5 709.7 263.7Q711.8 262.0 711.8 259.3L711.8 259.3L711.8 256.8L704.8 257.3Q702.2 257.5 700.8 258.6Q699.4 259.6 699.4 261.4L699.4 261.4Q699.4 263.3 700.8 264.4Q702.3 265.5 704.6 265.5ZM734.6 271.0Q733.3 272.2 731.3 272.2Q729.2 272.2 727.9 271.0Q726.7 269.7 726.7 267.5L726.7 267.5L726.7 242.0Q726.7 239.8 727.9 238.6Q729.0 237.4 731.1 237.4Q733.2 237.4 734.4 238.6Q735.7 239.9 735.7 242.0L735.7 242.0L735.7 243.9L735.8 243.9Q738.6 237.4 746.2 237.4L746.2 237.4Q751.7 237.4 754.8 240.7Q757.8 244.1 757.8 250.0L757.8 250.0L757.8 267.5Q757.8 269.7 756.5 271.0Q755.3 272.2 753.2 272.2Q751.2 272.2 749.9 271.0Q748.7 269.7 748.7 267.5L748.7 267.5L748.7 251.9Q748.7 248.6 747.1 246.8Q745.5 245.0 742.5 245.0Q739.5 245.0 737.6 247.0Q735.8 249.1 735.8 252.3L735.8 252.3L735.8 267.5Q735.8 269.7 734.6 271.0ZM771.4 271.0Q770.2 272.2 768.1 272.2Q766.1 272.2 764.8 271.0Q763.6 269.7 763.6 267.5L763.6 267.5L763.6 242.0Q763.6 239.8 764.7 238.6Q765.9 237.4 768.0 237.4Q770.0 237.4 771.3 238.6Q772.5 239.9 772.5 242.0L772.5 242.0L772.5 243.9L772.7 243.9Q775.5 237.4 783.0 237.4L783.0 237.4Q788.6 237.4 791.6 240.7Q794.7 244.1 794.7 250.0L794.7 250.0L794.7 267.5Q794.7 269.7 793.4 271.0Q792.2 272.2 790.1 272.2Q788.0 272.2 786.8 271.0Q785.5 269.7 785.5 267.5L785.5 267.5L785.5 251.9Q785.5 248.6 784.0 246.8Q782.4 245.0 779.4 245.0Q776.3 245.0 774.5 247.0Q772.7 249.1 772.7 252.3L772.7 252.3L772.7 267.5Q772.7 269.7 771.4 271.0ZM815.8 272.3L815.8 272.3Q808 272.3 803.6 267.7Q799.2 263.1 799.2 255.0L799.2 255.0Q799.2 246.9 803.6 242.1Q808.0 237.3 815.4 237.3L815.4 237.3Q822.5 237.3 826.9 241.7Q831.3 246.1 831.3 252.9L831.3 252.9Q831.3 254.8 830.3 255.9Q829.2 256.9 827.3 256.9L827.3 256.9L808.2 256.9L808.2 257.3Q808.2 261.0 810.3 263.3Q812.3 265.5 815.8 265.5L815.8 265.5Q818.3 265.5 820.1 264.6Q822.0 263.7 823.8 261.5L823.8 261.5Q825.1 260.1 826.8 260.1L826.8 260.1Q828.3 260.1 829.3 261.1Q830.3 262.0 830.3 263.5L830.3 263.5Q830.3 264.6 829.7 265.7L829.7 265.7Q828.1 268.8 824.4 270.5Q820.7 272.3 815.8 272.3ZM808.3 251.3L808.3 251.3L822.5 251.3Q822.4 248.0 820.4 246.1Q818.5 244.1 815.5 244.1Q812.5 244.1 810.5 246.1Q808.5 248.1 808.3 251.3ZM848.4 272.1L848.4 272.1Q842.1 272.1 838.4 267.4Q834.8 262.8 834.8 254.7L834.8 254.7Q834.8 246.8 838.5 242.1Q842.2 237.5 848.5 237.5L848.5 237.5Q852.0 237.5 854.7 239.2Q857.4 241.0 858.7 243.8L858.7 243.8L858.9 243.8L858.9 230.6Q858.9 228.3 860.1 227.0Q861.4 225.8 863.4 225.8Q865.5 225.8 866.8 227.0Q868 228.3 868 230.6L868 230.6L868 267.6Q868 269.8 866.8 271.0Q865.5 272.2 863.5 272.2L863.5 272.2Q861.4 272.2 860.2 271.0Q858.9 269.8 858.9 267.6L858.9 267.6L858.9 265.6L858.7 265.6Q857.6 268.6 854.9 270.3Q852.2 272.1 848.4 272.1ZM851.5 264.7L851.5 264.7Q854.9 264.7 856.9 262.1Q858.9 259.4 858.9 254.8L858.9 254.8Q858.9 250.2 856.9 247.5Q854.9 244.8 851.5 244.8L851.5 244.8Q848.1 244.8 846.1 247.5Q844.1 250.2 844.1 254.8L844.1 254.8Q844.1 259.4 846.1 262.1Q848.1 264.7 851.5 264.7Z M101.9 345.2L80.5 345.2Q78.3 345.2 77 343.9Q75.8 342.6 75.8 340.2L75.8 340.2L75.8 305.0Q75.8 302.7 77 301.4Q78.3 300.1 80.5 300.1L80.5 300.1L101.9 300.1Q103.9 300.1 105.0 301.1Q106.2 302.2 106.2 304.0Q106.2 305.8 105.0 306.8Q103.8 307.9 101.9 307.9L101.9 307.9L85.2 307.9L85.2 318.7L101.1 318.7Q102.9 318.7 104.0 319.7Q105.0 320.7 105.0 322.3L105.0 322.3Q105.0 324.0 104.0 325.0Q102.9 326.0 101.1 326.0L101.1 326.0L85.2 326.0L85.2 337.3L101.9 337.3Q103.8 337.3 105.0 338.4Q106.2 339.4 106.2 341.2Q106.2 343.1 105.0 344.1Q103.9 345.2 101.9 345.2L101.9 345.2ZM114.9 345.8L114.9 345.8Q113.1 345.8 112.0 344.8Q110.8 343.7 110.8 342.1L110.8 342.1Q110.8 340.6 112.0 339.0L112.0 339.0L119.9 328.5L112.1 317.8Q111.1 316.5 111.1 315.0L111.1 315.0Q111.1 313.2 112.3 312.1Q113.6 311.0 115.5 311.0L115.5 311.0Q116.8 311.0 117.7 311.5Q118.6 312.1 119.5 313.6L119.5 313.6L125.8 323.0L125.9 323.0L132.1 313.6Q133 312.2 133.8 311.6Q134.7 311.0 135.9 311.0L135.9 311.0Q137.8 311.0 139.0 312.0Q140.2 313.1 140.2 314.8L140.2 314.8Q140.2 316.4 139 318.0L139 318.0L131.3 328.2L139.1 339.0Q140.1 340.3 140.1 341.8L140.1 341.8Q140.1 343.6 138.9 344.7Q137.7 345.8 135.8 345.8L135.8 345.8Q134.5 345.8 133.7 345.3Q132.9 344.7 132.1 343.5L132.1 343.5L125.4 333.5L125.3 333.5L118.7 343.3Q117.8 344.8 117.0 345.3Q116.2 345.8 114.9 345.8ZM153.3 355.9Q152.1 357.1 150 357.1Q147.9 357.1 146.7 355.9Q145.4 354.6 145.4 352.3L145.4 352.3L145.4 315.7Q145.4 313.4 146.7 312.2Q147.9 311.0 149.9 311.0Q152.0 311.0 153.2 312.2Q154.4 313.4 154.4 315.7L154.4 315.7L154.4 317.5L154.6 317.5Q156 314.5 158.7 312.8Q161.4 311.1 165 311.1L165 311.1Q171.4 311.1 175.0 315.7Q178.7 320.3 178.7 328.4L178.7 328.4Q178.7 336.5 175.1 341.1Q171.5 345.7 165.2 345.7L165.2 345.7Q161.6 345.7 158.8 344.0Q156.1 342.4 154.8 339.5L154.8 339.5L154.6 339.5L154.6 352.3Q154.6 354.6 153.3 355.9ZM161.9 338.3L161.9 338.3Q165.3 338.3 167.4 335.7Q169.4 333.0 169.4 328.4Q169.4 323.8 167.4 321.1Q165.3 318.4 161.9 318.4L161.9 318.4Q158.6 318.4 156.6 321.2Q154.5 323.9 154.5 328.4L154.5 328.4Q154.5 332.9 156.5 335.6Q158.6 338.3 161.9 338.3ZM191.5 344.6Q190.3 345.8 188.2 345.8Q186.1 345.8 184.9 344.6Q183.6 343.3 183.6 341.1L183.6 341.1L183.6 304.2Q183.6 301.9 184.9 300.6Q186.1 299.4 188.2 299.4Q190.3 299.4 191.5 300.6Q192.8 301.9 192.8 304.2L192.8 304.2L192.8 341.1Q192.8 343.3 191.5 344.6ZM226.4 341.2Q221.9 345.9 214.3 345.9Q206.6 345.9 202.2 341.2Q197.7 336.6 197.7 328.4L197.7 328.4Q197.7 320.3 202.2 315.6Q206.7 310.9 214.3 310.9L214.3 310.9Q221.9 310.9 226.4 315.6Q230.9 320.3 230.9 328.4L230.9 328.4Q230.9 336.6 226.4 341.2ZM214.3 338.9L214.3 338.9Q217.7 338.9 219.6 336.2Q221.6 333.4 221.6 328.4L221.6 328.4Q221.6 323.5 219.6 320.7Q217.7 317.9 214.3 317.9Q210.9 317.9 208.9 320.7Q206.9 323.5 206.9 328.4L206.9 328.4Q206.9 333.4 208.9 336.2Q210.9 338.9 214.3 338.9ZM240.1 345.8L240.1 345.8Q238.0 345.8 236.8 344.6Q235.6 343.3 235.6 341.1L235.6 341.1L235.6 315.6Q235.6 313.4 236.8 312.2Q238.0 311.0 240.0 311.0L240.0 311.0Q241.9 311.0 243.1 312.2Q244.3 313.4 244.3 315.6L244.3 315.6L244.3 317.7L244.5 317.7Q245.1 314.7 247.0 312.9Q248.9 311.1 251.4 311.1L251.4 311.1Q253.3 311.1 254.3 312.0L254.3 312.0Q255.6 313.0 255.6 315.3L255.6 315.3Q255.6 317.5 254.3 318.6L254.3 318.6Q252.9 319.8 250.3 319.8L250.3 319.8Q247.3 319.8 246 321.4Q244.7 323.1 244.7 326.2L244.7 326.2L244.7 341.1Q244.7 343.3 243.5 344.6Q242.3 345.8 240.1 345.8ZM268.8 345.7L268.8 345.7Q263.9 345.7 260.7 342.8Q257.5 340.0 257.5 335.5L257.5 335.5Q257.5 331.0 260.9 328.4Q264.3 325.8 270.6 325.4L270.6 325.4L279.0 324.9L279.0 322.7Q279.0 320.4 277.5 319.1Q276 317.7 273.4 317.7L273.4 317.7Q271.3 317.7 269.9 318.5Q268.4 319.3 266.9 321.3L266.9 321.3Q265.4 323.0 263.3 323.0L263.3 323.0Q261.6 323.0 260.5 322.0Q259.5 321.0 259.5 319.5L259.5 319.5Q259.5 318.4 259.9 317.4L259.9 317.4Q261.1 314.4 264.8 312.7Q268.6 310.9 273.8 310.9L273.8 310.9Q280.3 310.9 284.1 314.0Q288 317.1 288 322.1L288 322.1L288 341.2Q288 343.4 286.8 344.6Q285.6 345.8 283.6 345.8L283.6 345.8Q281.7 345.8 280.5 344.8Q279.3 343.7 279.2 341.7L279.2 341.7L279.2 340.0L279 340.0Q277.6 342.7 274.8 344.2Q272.0 345.7 268.8 345.7ZM271.8 339.1L271.8 339.1Q274.8 339.1 276.9 337.3Q279.0 335.6 279.0 332.9L279.0 332.9L279.0 330.4L272.0 330.9Q269.4 331.1 268.0 332.2Q266.6 333.2 266.6 335.0L266.6 335.0Q266.6 336.9 268.0 338.0Q269.4 339.1 271.8 339.1ZM296.3 336.6L296.3 336.6L296.3 318.5L294.6 318.5Q292.9 318.5 292.0 317.6Q291.0 316.7 291.0 315.1Q291.0 313.5 292.0 312.6Q292.9 311.7 294.6 311.7L294.6 311.7L296.3 311.7L296.3 307.9Q296.3 305.7 297.5 304.4Q298.8 303.2 300.9 303.2Q303 303.2 304.2 304.4Q305.4 305.7 305.4 307.9L305.4 307.9L305.4 311.7L308.7 311.7Q310.3 311.7 311.2 312.6Q312.2 313.5 312.2 315.1Q312.2 316.7 311.2 317.6Q310.3 318.5 308.7 318.5L308.7 318.5L305.4 318.5L305.4 334.6Q305.4 336.3 306.1 337.2Q306.8 338.0 308.2 338.1L308.2 338.1L308.8 338.2Q310.6 338.3 311.4 339.1Q312.3 339.9 312.3 341.5L312.3 341.5Q312.3 343.4 310.5 344.5Q308.8 345.5 305.8 345.5L305.8 345.5L305.5 345.5Q296.3 345.5 296.3 336.6ZM324.8 306.1Q323.4 307.5 321.3 307.5Q319.3 307.5 317.9 306.1Q316.5 304.7 316.5 302.8L316.5 302.8Q316.5 300.8 317.9 299.4Q319.3 298.1 321.3 298.1Q323.4 298.1 324.8 299.4Q326.2 300.8 326.2 302.8L326.2 302.8Q326.2 304.7 324.8 306.1ZM324.7 344.5Q323.5 345.8 321.3 345.8Q319.2 345.8 318 344.5Q316.8 343.3 316.8 341.1L316.8 341.1L316.8 315.7Q316.8 313.5 318 312.2Q319.2 311.0 321.3 311.0Q323.5 311.0 324.7 312.2Q325.9 313.5 325.9 315.7L325.9 315.7L325.9 341.1Q325.9 343.3 324.7 344.5ZM359.5 341.2Q355 345.9 347.3 345.9Q339.7 345.9 335.2 341.2Q330.8 336.6 330.8 328.4L330.8 328.4Q330.8 320.3 335.3 315.6Q339.8 310.9 347.3 310.9L347.3 310.9Q354.9 310.9 359.4 315.6Q363.9 320.3 363.9 328.4L363.9 328.4Q363.9 336.6 359.5 341.2ZM347.3 338.9L347.3 338.9Q350.7 338.9 352.7 336.2Q354.7 333.4 354.7 328.4L354.7 328.4Q354.7 323.5 352.7 320.7Q350.7 317.9 347.3 317.9Q344.0 317.9 342.0 320.7Q340 323.5 340 328.4L340 328.4Q340 333.4 342.0 336.2Q343.9 338.9 347.3 338.9ZM376.5 344.6Q375.3 345.8 373.2 345.8Q371.1 345.8 369.9 344.6Q368.6 343.3 368.6 341.1L368.6 341.1L368.6 315.6Q368.6 313.4 369.8 312.2Q371.0 311.0 373.0 311.0Q375.1 311.0 376.3 312.2Q377.6 313.5 377.6 315.6L377.6 315.6L377.6 317.5L377.8 317.5Q380.5 311.0 388.1 311.0L388.1 311.0Q393.7 311.0 396.7 314.3Q399.7 317.7 399.7 323.6L399.7 323.6L399.7 341.1Q399.7 343.3 398.5 344.6Q397.2 345.8 395.2 345.8Q393.1 345.8 391.8 344.6Q390.6 343.3 390.6 341.1L390.6 341.1L390.6 325.5Q390.6 322.2 389.0 320.4Q387.5 318.6 384.4 318.6Q381.4 318.6 379.6 320.6Q377.8 322.7 377.8 325.9L377.8 325.9L377.8 341.1Q377.8 343.3 376.5 344.6Z " clip-path="url(#satori_cp-id-0)" mask="url(#satori_om-id-0)"/><defs><clipPath id="satori_bc-id-0-1" clip-path="url(#satori_cp-id-0)"><rect x="0" y="509" width="1200" height="121"/></clipPath></defs><mask id="satori_om-id-0-1"><rect x="0" y="510" width="1200" height="120" fill="#fff" mask="url(#satori_om-id-0)"/><path width="1200" height="121" fill="none" stroke="#000" stroke-width="2" d="M0,509 A0,0 0 0 1 0,509 h1200 A0,0 0 0 1 1200,509"/></mask><path width="1200" height="121" clip-path="url(#satori_bc-id-0-1)" fill="none" stroke="rgba(0,0,0,0.08)" stroke-width="2" d="M0,509 A0,0 0 0 1 0,509 h1200 A0,0 0 0 1 1200,509"/><mask id="satori_om-id-0-1-0"><rect x="48" y="538" width="228" height="64" fill="#fff" mask="url(#satori_om-id-0)"/></mask><mask id="satori_om-id-0-1-0-0"><rect x="48" y="538" width="72" height="64" fill="#fff" mask="url(#satori_om-id-0)"/></mask><clipPath id="satori_cp-id-0-1-0-0-0" clip-path="url(#satori_cp-id-0)"><rect x="48" y="538" width="72" height="64"/></clipPath><mask id="satori_om-id-0-1-0-0-0"><rect x="48" y="538" width="72" height="64" fill="#fff" mask="url(#satori_om-id-0)"/></mask><image x="48" y="538" width="72" height="64" href="data:image/svg+xml;utf8,%3Csvg  xmlns=%22http://www.w3.org/2000/svg%22 width=%2273.60461760461762%22 height=%2264%22 viewBox=%220 0 797 693%22%3E%3Cg transform=%22matrix(1,0,0,1,-345,-96.5)%22%3E%3Cpath d=%22M756.942,197.15L756.942,474C701.751,474 656.942,518.808 656.942,574C656.942,629.192 701.751,674 756.942,674L756.942,777L495.122,777C443.175,777 401,734.825 401,682.878L401,614L364.755,614C353.852,614 345,605.148 345,594.245L345,436.814C345,425.878 353.878,417 364.814,417L401,417L401,365.122C401,313.175 443.175,271 495.122,271L715.058,271L715.058,197.15C696.492,189.056 683.5,170.533 683.5,149C683.5,120.024 707.024,96.5 736,96.5C764.976,96.5 788.5,120.024 788.5,149C788.5,170.533 775.508,189.056 756.942,197.15ZM559,388C520.918,388 490,418.918 490,457C490,495.082 520.918,526 559,526C597.082,526 628,495.082 628,457C628,418.918 597.082,388 559,388Z%22 fill=%22%23ad47ff%22%3E%3C/path%3E%3Cg transform=%22matrix(-1,1.22465e-16,-1.22465e-16,-1,1486.06,1043)%22%3E%3Cpath d=%22M401,417L401,348.122C401,296.175 443.175,254 495.122,254L705.058,254L705.058,357C760.249,357 805.058,401.808 805.058,457C805.058,512.192 760.249,557 705.058,557L705.058,760L495.122,760C443.175,760 401,717.825 401,665.878L401,614L364.755,614C353.852,614 345,605.148 345,594.245L345,436.814C345,425.878 353.878,417 364.814,417L401,417ZM552,643C590.082,643 621,612.082 621,574C621,535.918 590.082,505 552,505C513.918,505 483,535.918 483,574C483,612.082 513.918,643 552,643Z%22 fill=%22%2300d5bd%22%3E%3C/path%3E%3C/g%3E%3C/g%3E%3C/svg%3E" preserveAspectRatio="none" clip-path="url(#satori_cp-id-0-1-0-0-0)" mask="url(#satori_om-id-0-1-0-0-0)"/><mask id="satori_om-id-0-1-0-0-0-0"><rect x="48" y="538" width="0" height="64" fill="#fff" mask="url(#satori_om-id-0)"/></mask><mask id="satori_om-id-0-1-0-0-0-0-0"><rect x="48" y="538" width="0" height="64" fill="#fff" mask="url(#satori_om-id-0)"/></mask><mask id="satori_om-id-0-1-0-0-0-0-1"><rect x="48" y="538" width="0" height="64" fill="#fff" mask="url(#satori_om-id-0)"/></mask><mask id="satori_om-id-0-1-0-0-0-0-1-0"><rect x="48" y="538" width="0" height="64" fill="#fff" mask="url(#satori_om-id-0)"/></mask><mask id="satori_om-id-0-1-0-1"><rect x="138" y="540" width="138" height="60" fill="#fff" mask="url(#satori_om-id-0)"/></mask><mask id="satori_om-id-0-1-0-1-0"><rect x="138" y="540" width="138" height="36" fill="#fff" mask="url(#satori_om-id-0)"/></mask><path fill="#0f172a" d="M150.7 571.2L150.7 571.2Q145.9 571.2 143.0 568.6Q140.1 566.1 140.1 561.8L140.1 561.8L140.1 547.9Q140.1 546.5 140.8 545.8Q141.5 545.1 142.8 545.1Q144.0 545.1 144.7 545.8Q145.4 546.5 145.4 547.9L145.4 547.9L145.4 561.3Q145.4 563.8 146.8 565.2Q148.2 566.7 150.7 566.7L150.7 566.7Q153.3 566.7 154.7 565.2Q156.1 563.8 156.1 561.3L156.1 561.3L156.1 547.9Q156.1 546.5 156.8 545.8Q157.5 545.1 158.7 545.1Q160.0 545.1 160.7 545.8Q161.4 546.5 161.4 547.9L161.4 547.9L161.4 561.8Q161.4 566.1 158.5 568.6Q155.6 571.2 150.7 571.2ZM170.2 570.4Q169.5 571.2 168.2 571.2Q167.0 571.2 166.3 570.4Q165.6 569.7 165.6 568.4L165.6 568.4L165.6 548.2Q165.6 546.9 166.3 546.2Q167.0 545.4 168.2 545.4L168.2 545.4L176.0 545.4Q180.3 545.4 182.7 547.6Q185.1 549.7 185.1 553.5L185.1 553.5Q185.1 555.9 184.0 557.8Q182.9 559.7 180.8 560.6L180.8 560.6L184.4 566.9Q185.0 567.9 185.0 568.7L185.0 568.7Q185.0 569.8 184.2 570.5Q183.5 571.2 182.3 571.2L182.3 571.2Q181.4 571.2 180.8 570.8Q180.3 570.3 179.6 569.2L179.6 569.2L175.4 561.5L170.9 561.5L170.9 568.4Q170.9 569.7 170.2 570.4ZM170.9 549.6L170.9 557.7L175.5 557.7Q177.5 557.7 178.6 556.6Q179.7 555.5 179.7 553.6L179.7 553.6Q179.7 551.8 178.5 550.7Q177.4 549.6 175.4 549.6L175.4 549.6L170.9 549.6ZM198.1 562.7L190.8 562.7Q189.7 562.7 189.1 562.1Q188.4 561.5 188.4 560.5Q188.4 559.4 189.1 558.8Q189.7 558.2 190.8 558.2L190.8 558.2L198.1 558.2Q199.2 558.2 199.9 558.8Q200.6 559.4 200.6 560.5Q200.6 561.5 199.9 562.1Q199.2 562.7 198.1 562.7L198.1 562.7ZM209.1 570.4Q208.4 571.2 207.2 571.2Q205.9 571.2 205.2 570.4Q204.5 569.7 204.5 568.4L204.5 568.4L204.5 548.2Q204.5 546.9 205.2 546.2Q205.9 545.4 207.2 545.4L207.2 545.4L214.9 545.4Q219.3 545.4 221.7 547.6Q224.1 549.7 224.1 553.5L224.1 553.5Q224.1 555.9 223.0 557.8Q221.8 559.7 219.7 560.6L219.7 560.6L223.4 566.9Q224.0 567.9 224.0 568.7L224.0 568.7Q224.0 569.8 223.2 570.5Q222.4 571.2 221.3 571.2L221.3 571.2Q220.3 571.2 219.8 570.8Q219.2 570.3 218.6 569.2L218.6 569.2L214.4 561.5L209.8 561.5L209.8 568.4Q209.8 569.7 209.1 570.4ZM209.8 549.6L209.8 557.7L214.4 557.7Q216.4 557.7 217.5 556.6Q218.6 555.5 218.6 553.6L218.6 553.6Q218.6 551.8 217.5 550.7Q216.3 549.6 214.4 549.6L214.4 549.6L209.8 549.6ZM229.3 571.1L229.3 571.1Q228.0 571.1 227.3 570.5Q226.6 569.8 226.6 568.6L226.6 568.6Q226.6 567.9 226.9 566.9L226.9 566.9L233.9 548.1Q234.4 546.5 235.4 545.8Q236.3 545.1 237.8 545.1L237.8 545.1Q239.4 545.1 240.4 545.8Q241.3 546.5 241.9 548.1L241.9 548.1L248.9 566.9Q249.2 567.9 249.2 568.6L249.2 568.6Q249.2 569.7 248.5 570.4Q247.7 571.1 246.5 571.1L246.5 571.1Q245.4 571.1 244.8 570.6Q244.1 570.0 243.8 568.8L243.8 568.8L242.4 564.8L233.3 564.8L232.0 568.7Q231.6 570.0 231.0 570.6Q230.3 571.1 229.3 571.1ZM237.7 550.3L234.5 560.7L241.2 560.7L237.9 550.3L237.7 550.3ZM262.1 570.8L255.1 570.8Q253.8 570.8 253.1 570.1Q252.4 569.3 252.4 568.0L252.4 568.0L252.4 548.2Q252.4 546.9 253.1 546.2Q253.8 545.4 255.1 545.4L255.1 545.4L262.1 545.4Q267.8 545.4 271.0 548.7Q274.2 552.0 274.2 558.0L274.2 558.0Q274.2 564.0 271.0 567.4Q267.8 570.8 262.1 570.8L262.1 570.8ZM257.7 549.8L257.7 566.4L261.5 566.4Q265.0 566.4 266.9 564.3Q268.8 562.1 268.8 558.0L268.8 558.0Q268.8 554.1 266.9 551.9Q265.0 549.8 261.5 549.8L261.5 549.8L257.7 549.8Z " clip-path="url(#satori_cp-id-0)" mask="url(#satori_om-id-0)"/><mask id="satori_om-id-0-1-0-1-1"><rect x="138" y="576" width="138" height="24" fill="#fff" mask="url(#satori_om-id-0)"/></mask><path fill="#334155" d="M145.0 595.3L145.0 595.3Q142.4 595.3 140.8 593.8Q139.2 592.4 139.2 590.1L139.2 590.1L139.2 582.1Q139.2 581.5 139.6 581.1Q139.9 580.8 140.5 580.8L140.5 580.8Q141.1 580.8 141.4 581.1Q141.8 581.5 141.8 582.1L141.8 582.1L141.8 589.8Q141.8 591.3 142.6 592.2Q143.5 593.1 145.0 593.1Q146.6 593.1 147.4 592.2Q148.3 591.3 148.3 589.8L148.3 589.8L148.3 582.1Q148.3 581.5 148.6 581.1Q149.0 580.8 149.6 580.8L149.6 580.8Q150.2 580.8 150.5 581.1Q150.8 581.5 150.8 582.1L150.8 582.1L150.8 590.1Q150.8 592.4 149.3 593.8Q147.7 595.3 145.0 595.3ZM155.5 594.9Q155.2 595.2 154.6 595.2Q154.0 595.2 153.6 594.9Q153.3 594.5 153.3 593.9L153.3 593.9L153.3 582.3Q153.3 581.6 153.6 581.3Q154.0 581.0 154.6 581.0L154.6 581.0L158.9 581.0Q161.2 581.0 162.5 582.1Q163.8 583.3 163.8 585.3L163.8 585.3Q163.8 586.7 163.1 587.8Q162.4 588.8 161.2 589.3L161.2 589.3L163.4 593.2Q163.7 593.7 163.7 594.1L163.7 594.1Q163.7 594.6 163.4 594.9Q163.0 595.2 162.4 595.2L162.4 595.2Q162.0 595.2 161.7 595.0Q161.5 594.8 161.2 594.3L161.2 594.3L158.7 589.7L155.8 589.7L155.8 593.9Q155.8 594.5 155.5 594.9ZM155.8 583.0L155.8 587.8L158.7 587.8Q159.9 587.8 160.5 587.2Q161.2 586.5 161.2 585.4L161.2 585.4Q161.2 584.3 160.5 583.6Q159.8 583.0 158.6 583.0L158.6 583.0L155.8 583.0ZM171.1 590.4L166.7 590.4Q166.2 590.4 165.9 590.1Q165.6 589.8 165.6 589.3Q165.6 588.8 165.9 588.5Q166.2 588.2 166.7 588.2L166.7 588.2L171.1 588.2Q171.7 588.2 172.0 588.5Q172.3 588.8 172.3 589.3Q172.3 589.8 172.0 590.1Q171.7 590.4 171.1 590.4L171.1 590.4ZM176.7 594.9Q176.4 595.2 175.8 595.2Q175.2 595.2 174.9 594.9Q174.6 594.5 174.6 593.9L174.6 593.9L174.6 582.3Q174.6 581.6 174.9 581.3Q175.2 581.0 175.8 581.0L175.8 581.0L180.1 581.0Q182.4 581.0 183.7 582.1Q185.0 583.3 185.0 585.3L185.0 585.3Q185.0 586.7 184.3 587.8Q183.7 588.8 182.5 589.3L182.5 589.3L184.7 593.2Q185.0 593.7 185.0 594.1L185.0 594.1Q185.0 594.6 184.6 594.9Q184.2 595.2 183.7 595.2L183.7 595.2Q183.2 595.2 183.0 595.0Q182.7 594.8 182.4 594.3L182.4 594.3L179.9 589.7L177.1 589.7L177.1 593.9Q177.1 594.5 176.7 594.9ZM177.1 583.0L177.1 587.8L179.9 587.8Q181.1 587.8 181.8 587.2Q182.4 586.5 182.4 585.4L182.4 585.4Q182.4 584.3 181.8 583.6Q181.1 583.0 179.9 583.0L179.9 583.0L177.1 583.0ZM187.7 595.2L187.7 595.2Q187.1 595.2 186.7 594.9Q186.4 594.6 186.4 594.0L186.4 594.0Q186.4 593.7 186.6 593.3L186.6 593.3L190.7 582.2Q190.9 581.4 191.4 581.1Q191.8 580.8 192.5 580.8L192.5 580.8Q193.2 580.8 193.6 581.1Q194.1 581.4 194.3 582.1L194.3 582.1L198.4 593.3Q198.6 593.7 198.6 594.0L198.6 594.0Q198.6 594.6 198.2 594.9Q197.9 595.2 197.3 595.2L197.3 595.2Q196.8 595.2 196.5 595.0Q196.2 594.7 196.0 594.1L196.0 594.1L195.1 591.4L189.9 591.4L188.9 594.1Q188.8 594.7 188.5 595.0Q188.2 595.2 187.7 595.2ZM192.4 583.4L190.5 589.5L194.5 589.5L192.5 583.4L192.4 583.4ZM205.6 595.0L201.7 595.0Q201.1 595.0 200.8 594.7Q200.4 594.3 200.4 593.7L200.4 593.7L200.4 582.3Q200.4 581.6 200.8 581.3Q201.1 581.0 201.7 581.0L201.7 581.0L205.6 581.0Q208.7 581.0 210.5 582.8Q212.3 584.6 212.3 588.0L212.3 588.0Q212.3 591.3 210.5 593.2Q208.7 595.0 205.6 595.0L205.6 595.0ZM202.9 583.1L202.9 592.9L205.3 592.9Q207.4 592.9 208.6 591.6Q209.7 590.4 209.7 588.0L209.7 588.0Q209.7 585.6 208.6 584.3Q207.4 583.1 205.3 583.1L205.3 583.1L202.9 583.1Z M227.0 595.0L219.2 595.0Q218.7 595.0 218.3 594.8Q218.0 594.5 218.0 594.0L218.0 594.0Q218.0 593.6 218.2 593.3Q218.3 593.1 218.7 592.7L218.7 592.7L223.0 588.4Q224.4 587.1 224.8 586.4Q225.3 585.7 225.3 584.9L225.3 584.9Q225.3 583.9 224.6 583.3Q224.0 582.7 223.0 582.7L223.0 582.7Q221.1 582.7 220.3 584.6L220.3 584.6Q220.1 585.0 219.9 585.2Q219.6 585.4 219.2 585.4L219.2 585.4Q218.7 585.4 218.4 585.1Q218.1 584.8 218.1 584.3L218.1 584.3Q218.1 584.1 218.2 583.8L218.2 583.8Q218.3 583.2 218.7 582.7Q219.1 582.1 219.7 581.7Q220.3 581.2 221.1 580.9Q222.0 580.7 223.0 580.7L223.0 580.7Q225.1 580.7 226.4 581.8Q227.8 582.9 227.8 584.7L227.8 584.7Q227.8 585.9 227.1 586.9Q226.4 588.0 224.6 589.8L224.6 589.8L221.4 592.9L221.4 593.0L227.0 593.0Q227.5 593.0 227.8 593.3Q228.1 593.5 228.1 594.0Q228.1 594.5 227.8 594.8Q227.5 595.0 227.0 595.0L227.0 595.0ZM235.2 595.3L235.2 595.3Q232.6 595.3 231.1 593.4Q229.7 591.4 229.7 588.0L229.7 588.0Q229.7 584.6 231.1 582.6Q232.6 580.7 235.2 580.7L235.2 580.7Q237.8 580.7 239.3 582.6Q240.7 584.6 240.7 588.0L240.7 588.0Q240.7 591.4 239.3 593.3Q237.8 595.3 235.2 595.3ZM235.2 593.3L235.2 593.3Q236.6 593.3 237.4 591.9Q238.2 590.5 238.2 588.0L238.2 588.0Q238.2 585.5 237.4 584.1Q236.6 582.7 235.2 582.7Q233.8 582.7 233.0 584.1Q232.2 585.5 232.2 588.0L232.2 588.0Q232.2 590.5 233.0 591.9Q233.8 593.3 235.2 593.3ZM251.6 595.0L243.8 595.0Q243.2 595.0 242.9 594.8Q242.6 594.5 242.6 594.0L242.6 594.0Q242.6 593.6 242.7 593.3Q242.9 593.1 243.3 592.7L243.3 592.7L247.6 588.4Q248.9 587.1 249.4 586.4Q249.8 585.7 249.8 584.9L249.8 584.9Q249.8 583.9 249.2 583.3Q248.5 582.7 247.5 582.7L247.5 582.7Q245.6 582.7 244.9 584.6L244.9 584.6Q244.7 585.0 244.4 585.2Q244.2 585.4 243.7 585.4L243.7 585.4Q243.2 585.4 242.9 585.1Q242.6 584.8 242.6 584.3L242.6 584.3Q242.6 584.1 242.7 583.8L242.7 583.8Q242.9 583.2 243.2 582.7Q243.6 582.1 244.2 581.7Q244.8 581.2 245.7 580.9Q246.5 580.7 247.5 580.7L247.5 580.7Q249.6 580.7 251.0 581.8Q252.3 582.9 252.3 584.7L252.3 584.7Q252.3 585.9 251.6 586.9Q251.0 588.0 249.2 589.8L249.2 589.8L245.9 592.9L245.9 593.0L251.6 593.0Q252.1 593.0 252.4 593.3Q252.6 593.5 252.6 594.0Q252.6 594.5 252.4 594.8Q252.1 595.0 251.6 595.0L251.6 595.0ZM259.6 595.3L259.6 595.3Q258.0 595.3 256.7 594.6Q255.4 593.9 254.9 592.8L254.9 592.8Q254.6 592.3 254.6 591.8L254.6 591.8Q254.6 591.3 254.9 591.0Q255.2 590.7 255.7 590.7L255.7 590.7Q256.1 590.7 256.4 590.9Q256.6 591.1 256.8 591.5L256.8 591.5Q257.2 592.3 257.9 592.8Q258.6 593.3 259.6 593.3L259.6 593.3Q260.9 593.3 261.7 592.5Q262.5 591.7 262.5 590.4L262.5 590.4Q262.5 589.2 261.7 588.4Q260.9 587.7 259.6 587.7L259.6 587.7Q258.3 587.7 257.4 588.5L257.4 588.5Q257.0 589.0 256.7 589.1Q256.4 589.3 256.0 589.3L256.0 589.3Q255.4 589.3 255.1 588.9Q254.8 588.5 254.8 588.0L254.8 588.0Q254.8 587.9 254.8 587.8L254.8 587.8L255.3 582.5Q255.4 581.7 255.8 581.3Q256.2 581.0 257.0 581.0L257.0 581.0L263.1 581.0Q263.6 581.0 263.9 581.2Q264.2 581.5 264.2 582.0L264.2 582.0Q264.2 582.4 263.9 582.7Q263.6 583.0 263.1 583.0L263.1 583.0L257.4 583.0L257.1 587.2L257.1 587.2Q257.6 586.5 258.4 586.1Q259.2 585.8 260.3 585.8L260.3 585.8Q262.3 585.8 263.6 587.0Q264.9 588.3 264.9 590.4L264.9 590.4Q264.9 592.6 263.4 593.9Q261.9 595.3 259.6 595.3Z " clip-path="url(#satori_cp-id-0)" mask="url(#satori_om-id-0)"/><mask id="satori_om-id-0-1-1"><rect x="877" y="557" width="275" height="26" fill="#fff" mask="url(#satori_om-id-0)"/></mask><path fill="#334155" d="M880.4 577.8Q880.1 578.2 879.5 578.2Q878.9 578.2 878.5 577.8Q878.2 577.5 878.2 576.8L878.2 576.8L878.2 563.6Q878.2 563.0 878.5 562.6Q878.9 562.2 879.5 562.2Q880.1 562.2 880.5 562.6Q880.8 563.0 880.8 563.6L880.8 563.6L880.8 568.5L880.9 568.5Q881.4 567.5 882.3 566.9Q883.3 566.4 884.5 566.4L884.5 566.4Q886.6 566.4 887.9 568.0Q889.2 569.5 889.2 572.3L889.2 572.3Q889.2 575.0 887.9 576.6Q886.6 578.1 884.5 578.1L884.5 578.1Q883.2 578.1 882.3 577.6Q881.4 577.0 880.8 576.0L880.8 576.0L880.8 576.0L880.8 576.8Q880.8 577.5 880.4 577.8ZM883.6 575.9L883.6 575.9Q884.9 575.9 885.7 574.9Q886.4 574.0 886.4 572.3Q886.4 570.6 885.7 569.6Q884.9 568.6 883.6 568.6L883.6 568.6Q882.4 568.6 881.6 569.6Q880.8 570.6 880.8 572.3L880.8 572.3Q880.8 573.9 881.6 574.9Q882.4 575.9 883.6 575.9ZM892.5 582.2L892.5 582.2Q891.6 582.2 891.1 581.9Q890.7 581.5 890.7 580.9L890.7 580.9Q890.7 580.5 890.9 580.3Q891.2 580.0 891.7 580.0L891.7 580.0Q891.8 580.0 892.0 580.0Q892.1 580.0 892.3 580.0L892.3 580.0Q893.3 580.0 893.9 578.7L893.9 578.7L894.1 578.2L890.3 568.3Q890.2 567.9 890.2 567.6L890.2 567.6Q890.2 567.0 890.6 566.7Q891.0 566.3 891.6 566.3L891.6 566.3Q892.1 566.3 892.4 566.6Q892.7 566.8 892.8 567.4L892.8 567.4L895.6 575.7L895.6 575.7L898.3 567.4Q898.5 566.8 898.8 566.6Q899.1 566.3 899.6 566.3L899.6 566.3Q900.2 566.3 900.5 566.7Q900.9 567.0 900.9 567.5L900.9 567.5Q900.9 567.9 900.8 568.3L900.8 568.3L897.0 578.4Q896.2 580.5 895.2 581.3Q894.2 582.2 892.5 582.2Z M911.0 578.2L911.0 578.2Q909.3 578.2 908.1 577.5Q906.9 576.7 906.4 575.4L906.4 575.4Q906.1 574.8 906.1 574.2L906.1 574.2Q906.1 573.6 906.5 573.2Q906.8 572.9 907.4 572.9L907.4 572.9Q907.9 572.9 908.3 573.2Q908.6 573.4 908.8 574.0L908.8 574.0Q909.0 574.9 909.6 575.3Q910.1 575.8 911.0 575.8L911.0 575.8Q912.1 575.8 912.7 575.1Q913.2 574.5 913.2 573.2L913.2 573.2L913.2 563.7Q913.2 563.0 913.6 562.6Q914.0 562.3 914.6 562.3L914.6 562.3Q915.3 562.3 915.6 562.6Q916.0 563.0 916.0 563.7L916.0 563.7L916.0 573.2Q916.0 575.6 914.7 576.9Q913.4 578.2 911.0 578.2ZM921.9 578.1L921.9 578.1Q920.2 578.1 919.2 577.2Q918.1 576.2 918.1 574.7L918.1 574.7Q918.1 573.2 919.2 572.3Q920.3 571.4 922.4 571.3L922.4 571.3L925.4 571.1L925.4 570.3Q925.4 569.4 924.9 568.9Q924.3 568.4 923.3 568.4L923.3 568.4Q922.5 568.4 922.0 568.7Q921.4 569.0 920.9 569.8L920.9 569.8Q920.5 570.3 919.8 570.3L919.8 570.3Q919.3 570.3 919.0 570.0Q918.7 569.7 918.7 569.2L918.7 569.2Q918.7 568.9 918.9 568.5L918.9 568.5Q919.3 567.5 920.6 566.9Q921.8 566.3 923.4 566.3L923.4 566.3Q925.5 566.3 926.8 567.4Q928.1 568.4 928.1 570.1L928.1 570.1L928.1 576.8Q928.1 577.5 927.7 577.8Q927.4 578.2 926.8 578.2L926.8 578.2Q926.2 578.2 925.9 577.8Q925.5 577.5 925.5 576.9L925.5 576.9L925.5 576.1L925.4 576.1Q925.0 577.0 924.0 577.6Q923.0 578.1 921.9 578.1ZM922.7 576.1L922.7 576.1Q923.8 576.1 924.6 575.4Q925.4 574.7 925.4 573.7L925.4 573.7L925.4 572.9L922.8 573.0Q921.8 573.1 921.3 573.5Q920.8 573.9 920.8 574.6L920.8 574.6Q920.8 575.3 921.3 575.7Q921.8 576.1 922.7 576.1ZM935.2 578.2L935.2 578.2Q932.7 578.2 931.2 576.6Q929.8 575.0 929.8 572.3L929.8 572.3Q929.8 569.5 931.2 567.9Q932.7 566.3 935.2 566.3L935.2 566.3Q936.9 566.3 938.2 567.1Q939.5 567.9 939.9 569.1L939.9 569.1Q940.0 569.4 940.0 569.7L940.0 569.7Q940.0 570.2 939.7 570.5Q939.4 570.8 938.9 570.8L938.9 570.8Q938.5 570.8 938.2 570.6Q938.0 570.4 937.7 570.0L937.7 570.0Q936.9 568.5 935.3 568.5L935.3 568.5Q934.0 568.5 933.2 569.5Q932.5 570.5 932.5 572.3L932.5 572.3Q932.5 574.0 933.2 575.0Q934.0 576.0 935.3 576.0L935.3 576.0Q936.9 576.0 937.7 574.6L937.7 574.6Q938.0 574.1 938.2 573.9Q938.5 573.7 938.9 573.7L938.9 573.7Q939.4 573.7 939.7 574.0Q940.1 574.3 940.1 574.8L940.1 574.8Q940.1 575.1 939.9 575.5L939.9 575.5Q939.4 576.7 938.1 577.4Q936.8 578.2 935.2 578.2ZM950.9 576.6Q949.4 578.2 946.9 578.2Q944.4 578.2 942.9 576.6Q941.4 575.0 941.4 572.3L941.4 572.3Q941.4 569.5 942.9 567.9Q944.4 566.3 946.9 566.3L946.9 566.3Q949.4 566.3 950.9 567.9Q952.4 569.5 952.4 572.3L952.4 572.3Q952.4 575.0 950.9 576.6ZM944.9 575.1Q945.6 576.1 946.9 576.1Q948.2 576.1 948.9 575.1Q949.7 574.1 949.7 572.3L949.7 572.3Q949.7 570.5 948.9 569.5Q948.2 568.5 946.9 568.5L946.9 568.5Q945.6 568.5 944.9 569.5Q944.1 570.5 944.1 572.3L944.1 572.3Q944.1 574.1 944.9 575.1ZM956.5 577.8Q956.1 578.2 955.5 578.2Q954.9 578.2 954.6 577.8Q954.2 577.5 954.2 576.8L954.2 576.8L954.2 563.6Q954.2 563.0 954.6 562.6Q954.9 562.2 955.5 562.2Q956.1 562.2 956.5 562.6Q956.9 563.0 956.9 563.6L956.9 563.6L956.9 568.5L956.9 568.5Q957.4 567.5 958.4 566.9Q959.3 566.4 960.5 566.4L960.5 566.4Q962.7 566.4 963.9 568.0Q965.2 569.5 965.2 572.3L965.2 572.3Q965.2 575.0 963.9 576.6Q962.7 578.1 960.5 578.1L960.5 578.1Q959.3 578.1 958.3 577.6Q957.4 577.0 956.9 576.0L956.9 576.0L956.8 576.0L956.8 576.8Q956.8 577.5 956.5 577.8ZM959.7 575.9L959.7 575.9Q961.0 575.9 961.7 574.9Q962.5 574.0 962.5 572.3Q962.5 570.6 961.7 569.6Q961.0 568.6 959.7 568.6L959.7 568.6Q958.4 568.6 957.7 569.6Q956.9 570.6 956.9 572.3L956.9 572.3Q956.9 573.9 957.7 574.9Q958.4 575.9 959.7 575.9ZM971.3 578.2L971.3 578.2Q969.5 578.2 968.3 577.5Q967.1 576.9 966.7 575.9L966.7 575.9Q966.6 575.6 966.6 575.4L966.6 575.4Q966.6 574.9 966.9 574.6Q967.2 574.3 967.7 574.3L967.7 574.3Q968.4 574.3 968.8 575.0L968.8 575.0Q969.3 575.6 969.9 575.9Q970.5 576.2 971.4 576.2L971.4 576.2Q972.4 576.2 972.9 575.8Q973.5 575.5 973.5 574.8L973.5 574.8Q973.5 574.3 973.1 574.0Q972.8 573.7 971.9 573.5L971.9 573.5L970.0 573.1Q966.7 572.3 966.7 569.8L966.7 569.8Q966.7 568.2 968.0 567.3Q969.3 566.3 971.4 566.3L971.4 566.3Q973.0 566.3 974.2 567.0Q975.3 567.7 975.6 568.7L975.6 568.7Q975.7 568.9 975.7 569.1L975.7 569.1Q975.7 569.5 975.4 569.8Q975.1 570.1 974.6 570.1L974.6 570.1Q973.9 570.1 973.6 569.6L973.6 569.6Q973.2 568.9 972.6 568.6Q972.1 568.3 971.3 568.3L971.3 568.3Q970.4 568.3 969.9 568.7Q969.3 569.1 969.3 569.7L969.3 569.7Q969.3 570.7 971.0 571.1L971.0 571.1L972.8 571.5Q974.6 571.9 975.4 572.6Q976.2 573.3 976.2 574.6L976.2 574.6Q976.2 576.2 974.8 577.2Q973.5 578.2 971.3 578.2ZM986.9 576.6Q985.4 578.2 982.9 578.2Q980.4 578.2 978.9 576.6Q977.4 575.0 977.4 572.3L977.4 572.3Q977.4 569.5 978.9 567.9Q980.4 566.3 982.9 566.3L982.9 566.3Q985.4 566.3 986.9 567.9Q988.4 569.5 988.4 572.3L988.4 572.3Q988.4 575.0 986.9 576.6ZM980.9 575.1Q981.6 576.1 982.9 576.1Q984.2 576.1 984.9 575.1Q985.7 574.1 985.7 572.3L985.7 572.3Q985.7 570.5 984.9 569.5Q984.2 568.5 982.9 568.5L982.9 568.5Q981.6 568.5 980.9 569.5Q980.1 570.5 980.1 572.3L980.1 572.3Q980.1 574.1 980.9 575.1ZM992.4 577.8Q992.1 578.2 991.5 578.2Q990.9 578.2 990.5 577.8Q990.1 577.4 990.1 576.8L990.1 576.8L990.1 567.7Q990.1 567.1 990.5 566.7Q990.8 566.3 991.4 566.3Q992.0 566.3 992.4 566.7Q992.7 567.1 992.7 567.7L992.7 567.7L992.7 568.5L992.8 568.5Q993.7 566.3 996.3 566.3L996.3 566.3Q998.2 566.3 999.2 567.5Q1000.3 568.6 1000.3 570.6L1000.3 570.6L1000.3 576.8Q1000.3 577.4 999.9 577.8Q999.5 578.2 998.9 578.2Q998.3 578.2 998.0 577.8Q997.6 577.4 997.6 576.8L997.6 576.8L997.6 571.1Q997.6 569.9 997.0 569.3Q996.4 568.6 995.3 568.6L995.3 568.6Q994.2 568.6 993.5 569.4Q992.8 570.1 992.8 571.4L992.8 571.4L992.8 576.8Q992.8 577.4 992.4 577.8ZM1004.3 575.2L1004.3 575.2Q1004.8 575.2 1005.2 575.5Q1005.5 575.8 1005.5 576.3L1005.5 576.3Q1005.5 576.6 1005.4 576.9L1005.4 576.9L1004.5 580.6Q1004.4 581.1 1004.1 581.3Q1003.9 581.5 1003.4 581.5Q1002.9 581.5 1002.6 581.2Q1002.4 581.0 1002.4 580.5L1002.4 580.5Q1002.4 580.4 1002.4 580.3L1002.4 580.3L1003.0 576.3Q1003.2 575.2 1004.3 575.2Z M1015.2 577.8Q1014.8 578.1 1014.2 578.1Q1013.7 578.1 1013.3 577.8Q1013.0 577.4 1013.0 576.8L1013.0 576.8L1013.0 564.0Q1013.0 563.2 1013.5 562.7Q1014.0 562.3 1014.8 562.3L1014.8 562.3Q1015.5 562.3 1015.9 562.6Q1016.4 562.9 1016.7 563.7L1016.7 563.7L1021.0 574.1L1021.0 574.1L1025.3 563.7Q1025.6 562.9 1026.1 562.6Q1026.5 562.3 1027.2 562.3L1027.2 562.3Q1028.1 562.3 1028.5 562.7Q1029.0 563.2 1029.0 564.0L1029.0 564.0L1029.0 576.8Q1029.0 577.4 1028.7 577.8Q1028.3 578.1 1027.7 578.1Q1027.2 578.1 1026.8 577.8Q1026.5 577.4 1026.5 576.8L1026.5 576.8L1026.5 566.9L1026.4 566.9L1022.3 576.9Q1021.9 577.9 1021.0 577.9L1021.0 577.9Q1020.1 577.9 1019.7 576.9L1019.7 576.9L1015.6 566.9L1015.5 566.9L1015.5 576.8Q1015.5 577.4 1015.2 577.8ZM1033.3 578.1L1033.3 578.1Q1032.7 578.1 1032.2 577.6Q1031.8 577.2 1031.8 576.5L1031.8 576.5Q1031.8 575.9 1032.2 575.4Q1032.7 575.0 1033.3 575.0L1033.3 575.0Q1034.0 575.0 1034.4 575.4Q1034.9 575.9 1034.9 576.5L1034.9 576.5Q1034.9 577.2 1034.4 577.6Q1034.0 578.1 1033.3 578.1Z M1045.1 578.1L1045.1 578.1Q1043.5 578.1 1042.4 577.2Q1041.3 576.2 1041.3 574.7L1041.3 574.7Q1041.3 573.2 1042.4 572.3Q1043.6 571.4 1045.7 571.3L1045.7 571.3L1048.7 571.1L1048.7 570.3Q1048.7 569.4 1048.1 568.9Q1047.5 568.4 1046.5 568.4L1046.5 568.4Q1045.7 568.4 1045.2 568.7Q1044.7 569.0 1044.2 569.8L1044.2 569.8Q1043.8 570.3 1043.1 570.3L1043.1 570.3Q1042.6 570.3 1042.3 570.0Q1041.9 569.7 1041.9 569.2L1041.9 569.2Q1041.9 568.9 1042.1 568.5L1042.1 568.5Q1042.6 567.5 1043.8 566.9Q1045.0 566.3 1046.7 566.3L1046.7 566.3Q1048.8 566.3 1050.0 567.4Q1051.3 568.4 1051.3 570.1L1051.3 570.1L1051.3 576.8Q1051.3 577.5 1051.0 577.8Q1050.6 578.2 1050.0 578.2L1050.0 578.2Q1049.5 578.2 1049.1 577.8Q1048.8 577.5 1048.7 576.9L1048.7 576.9L1048.7 576.1L1048.7 576.1Q1048.2 577.0 1047.2 577.6Q1046.2 578.1 1045.1 578.1ZM1045.9 576.1L1045.9 576.1Q1047.1 576.1 1047.9 575.4Q1048.7 574.7 1048.7 573.7L1048.7 573.7L1048.7 572.9L1046.0 573.0Q1045.1 573.1 1044.5 573.5Q1044.0 573.9 1044.0 574.6L1044.0 574.6Q1044.0 575.3 1044.5 575.7Q1045.1 576.1 1045.9 576.1ZM1055.8 577.8Q1055.4 578.2 1054.8 578.2Q1054.2 578.2 1053.8 577.8Q1053.5 577.4 1053.5 576.8L1053.5 576.8L1053.5 567.7Q1053.5 567.1 1053.8 566.7Q1054.1 566.3 1054.7 566.3Q1055.3 566.3 1055.7 566.7Q1056.1 567.1 1056.1 567.7L1056.1 567.7L1056.1 568.5L1056.1 568.5Q1057.1 566.3 1059.7 566.3L1059.7 566.3Q1061.5 566.3 1062.6 567.5Q1063.6 568.6 1063.6 570.6L1063.6 570.6L1063.6 576.8Q1063.6 577.4 1063.2 577.8Q1062.9 578.2 1062.3 578.2Q1061.7 578.2 1061.3 577.8Q1060.9 577.4 1060.9 576.8L1060.9 576.8L1060.9 571.1Q1060.9 569.9 1060.4 569.3Q1059.8 568.6 1058.7 568.6L1058.7 568.6Q1057.5 568.6 1056.8 569.4Q1056.1 570.1 1056.1 571.4L1056.1 571.4L1056.1 576.8Q1056.1 577.4 1055.8 577.8ZM1070.0 578.1L1070.0 578.1Q1067.8 578.1 1066.6 576.5Q1065.3 575.0 1065.3 572.2L1065.3 572.2Q1065.3 569.5 1066.6 568.0Q1067.8 566.4 1070.0 566.4L1070.0 566.4Q1071.2 566.4 1072.1 566.9Q1073.1 567.5 1073.5 568.5L1073.5 568.5L1073.6 568.5L1073.6 563.6Q1073.6 563.0 1073.9 562.6Q1074.3 562.2 1074.9 562.2Q1075.5 562.2 1075.9 562.6Q1076.3 563.0 1076.3 563.6L1076.3 563.6L1076.3 576.8Q1076.3 577.5 1075.9 577.8Q1075.5 578.2 1074.9 578.2L1074.9 578.2Q1074.3 578.2 1074.0 577.8Q1073.6 577.5 1073.6 576.8L1073.6 576.8L1073.6 575.9L1073.5 575.9Q1073.1 576.9 1072.2 577.5Q1071.3 578.1 1070.0 578.1ZM1070.8 575.9L1070.8 575.9Q1072.1 575.9 1072.8 574.9Q1073.6 573.9 1073.6 572.3L1073.6 572.3Q1073.6 570.6 1072.8 569.6Q1072.1 568.6 1070.8 568.6L1070.8 568.6Q1069.5 568.6 1068.8 569.6Q1068.0 570.6 1068.0 572.3L1068.0 572.3Q1068.0 574.0 1068.8 575.0Q1069.5 575.9 1070.8 575.9Z M1084.2 578.1L1084.2 578.1Q1083.6 578.1 1083.2 577.8Q1082.8 577.4 1082.8 576.9L1082.8 576.9Q1082.8 576.5 1083.2 576.0L1083.2 576.0L1087.3 570.2L1087.3 570.1L1083.3 564.6Q1082.9 564.1 1082.9 563.6L1082.9 563.6Q1082.9 563.0 1083.4 562.6Q1083.8 562.3 1084.4 562.3L1084.4 562.3Q1084.8 562.3 1085.0 562.4Q1085.3 562.6 1085.6 563.0L1085.6 563.0L1089.2 568.3L1089.3 568.3L1093.0 563.0Q1093.2 562.6 1093.5 562.4Q1093.7 562.3 1094.1 562.3L1094.1 562.3Q1094.6 562.3 1095.0 562.6Q1095.4 563.0 1095.4 563.4Q1095.4 563.9 1095.1 564.4L1095.1 564.4L1090.8 570.2L1090.8 570.2L1095.0 575.9Q1095.3 576.4 1095.3 576.9L1095.3 576.9Q1095.3 577.4 1094.9 577.8Q1094.5 578.1 1094.0 578.1L1094.0 578.1Q1093.6 578.1 1093.3 578.0Q1093.0 577.8 1092.8 577.4L1092.8 577.4L1089.1 572.3L1089.0 572.3L1085.3 577.4Q1085.1 577.8 1084.8 578.0Q1084.5 578.1 1084.2 578.1ZM1101.6 578.2L1101.6 578.2Q1099.7 578.2 1098.6 577.0Q1097.5 575.9 1097.5 573.9L1097.5 573.9L1097.5 567.7Q1097.5 567.1 1097.9 566.7Q1098.3 566.3 1098.9 566.3Q1099.5 566.3 1099.8 566.7Q1100.2 567.1 1100.2 567.8L1100.2 567.8L1100.2 573.4Q1100.2 574.6 1100.8 575.3Q1101.4 575.9 1102.5 575.9L1102.5 575.9Q1103.6 575.9 1104.3 575.1Q1105.0 574.4 1105.0 573.1L1105.0 573.1L1105.0 567.7Q1105.0 567.1 1105.4 566.7Q1105.7 566.3 1106.3 566.3L1106.3 566.3Q1106.9 566.3 1107.3 566.7Q1107.7 567.1 1107.7 567.8L1107.7 567.8L1107.7 576.8Q1107.7 577.4 1107.3 577.8Q1107.0 578.2 1106.4 578.2L1106.4 578.2Q1105.8 578.2 1105.5 577.8Q1105.1 577.4 1105.1 576.8L1105.1 576.8L1105.1 576.0L1105.0 576.0Q1104.1 578.2 1101.6 578.2ZM1114.9 578.2L1114.9 578.2Q1112.3 578.2 1110.8 576.6Q1109.4 575.1 1109.4 572.3L1109.4 572.3Q1109.4 569.6 1110.8 567.9Q1112.3 566.3 1114.8 566.3L1114.8 566.3Q1117.1 566.3 1118.6 567.8Q1120.0 569.3 1120.0 571.6L1120.0 571.6Q1120.0 572.2 1119.7 572.6Q1119.4 572.9 1118.8 572.9L1118.8 572.9L1112.0 572.9L1112.0 573.0Q1112.0 574.4 1112.8 575.3Q1113.6 576.1 1114.9 576.1L1114.9 576.1Q1115.8 576.1 1116.4 575.8Q1117.1 575.4 1117.7 574.6L1117.7 574.6Q1118.1 574.2 1118.6 574.2L1118.6 574.2Q1119.1 574.2 1119.4 574.4Q1119.7 574.7 1119.7 575.2L1119.7 575.2Q1119.7 575.5 1119.5 575.9L1119.5 575.9Q1119.0 577.0 1117.8 577.6Q1116.5 578.2 1114.9 578.2ZM1112.1 571.1L1112.1 571.1L1117.4 571.1Q1117.3 569.9 1116.6 569.1Q1115.9 568.4 1114.8 568.4Q1113.7 568.4 1112.9 569.2Q1112.1 569.9 1112.1 571.1ZM1123.6 575.2L1123.6 575.2Q1124.2 575.2 1124.5 575.5Q1124.8 575.8 1124.8 576.3L1124.8 576.3Q1124.8 576.6 1124.7 576.9L1124.7 576.9L1123.8 580.6Q1123.7 581.1 1123.4 581.3Q1123.2 581.5 1122.7 581.5Q1122.2 581.5 1122.0 581.2Q1121.7 581.0 1121.7 580.5L1121.7 580.5Q1121.7 580.4 1121.7 580.3L1121.7 580.3L1122.4 576.3Q1122.5 575.2 1123.6 575.2Z M1138.1 578.1L1138.1 578.1Q1137.4 578.1 1137.0 577.8Q1136.7 577.4 1136.7 576.7L1136.7 576.7L1136.7 571.8L1131.8 564.5Q1131.6 564.0 1131.6 563.5L1131.6 563.5Q1131.6 563.0 1131.9 562.6Q1132.3 562.3 1132.9 562.3L1132.9 562.3Q1133.4 562.3 1133.7 562.4Q1133.9 562.6 1134.2 563.1L1134.2 563.1L1138.0 569.2L1138.1 569.2L1142.0 563.1Q1142.2 562.6 1142.5 562.4Q1142.8 562.3 1143.2 562.3L1143.2 562.3Q1143.8 562.3 1144.2 562.6Q1144.6 563.0 1144.6 563.5L1144.6 563.5Q1144.6 564.0 1144.3 564.5L1144.3 564.5L1139.4 571.8L1139.4 576.7Q1139.4 577.4 1139.1 577.8Q1138.7 578.1 1138.1 578.1ZM1148.1 578.1L1148.1 578.1Q1147.5 578.1 1147.0 577.6Q1146.6 577.2 1146.6 576.5L1146.6 576.5Q1146.6 575.9 1147.0 575.4Q1147.5 575.0 1148.1 575.0L1148.1 575.0Q1148.8 575.0 1149.2 575.4Q1149.7 575.9 1149.7 576.5L1149.7 576.5Q1149.7 577.2 1149.2 577.6Q1148.8 578.1 1148.1 578.1Z " clip-path="url(#satori_cp-id-0)" mask="url(#satori_om-id-0)"/></svg>