<svg width="1200" height="630" viewBox="0 0 1200 630" xmlns="http://www.w3.org/2000/svg"><mask id="satori_om-id"><rect x="0" y="0" width="1200" height="630" fill="#fff"/></mask><defs><pattern id="satori_pattern_id-0_0" x="0" y="0" width="1" height="1" patternUnits="objectBoundingBox"><linearGradient id="satori_biid-0_0" x1="-0.09774620284174435" y1="0.18618324350808482" x2="1.0977462028417444" y2="0.8138167564919152" spreadMethod="pad"><stop offset="0%" stop-color="#f8fafc"/><stop offset="50%" stop-color="#eef2ff"/><stop offset="100%" stop-color="#ffffff"/></linearGradient><rect x="0" y="0" width="1200" height="630" fill="url(#satori_biid-0_0)"/></pattern></defs><clipPath id="satori_cp-id-0"><rect x="0" y="0" width="1200" height="630"/></clipPath><mask id="satori_om-id-0"><rect x="0" y="0" width="1200" height="630" fill="#fff"/></mask><rect x="0" y="0" width="1200" height="630" fill="url(#satori_pattern_id-0_0)"/><mask id="satori_om-id-0-0"><rect x="0" y="0" width="1200" height="509" fill="#fff" mask="url(#satori_om-id-0)"/></mask><mask id="satori_om-id-0-0-0"><rect x="72" y="72" width="1056" height="365" fill="#fff" mask="url(#satori_om-id-0)"/></mask><mask id="satori_om-id-0-0-0-0"><rect x="72" y="150" width="1056" height="38" fill="#fff" mask="url(#satori_om-id-0)"/></mask><path fill="#64748b" d="M77.1 180.2Q76.6 180.7 75.8 180.7Q75.0 180.7 74.5 180.2Q74.1 179.8 74.1 178.9L74.1 178.9L74.1 159.7Q74.1 158.9 74.5 158.4Q75.0 157.9 75.8 157.9L75.8 157.9L86.8 157.9Q87.5 157.9 88.0 158.3Q88.4 158.8 88.4 159.4Q88.4 160.1 88.0 160.5Q87.5 161.0 86.8 161.0L86.8 161.0L77.6 161.0L77.6 168.1L85.9 168.1Q86.6 168.1 87.1 168.5Q87.5 168.9 87.5 169.5Q87.5 170.2 87.1 170.6Q86.6 171.0 85.9 171.0L85.9 171.0L77.6 171.0L77.6 178.9Q77.6 179.8 77.1 180.2ZM92.5 180.8L92.5 180.8Q91.7 180.8 91.3 180.3Q90.8 179.8 90.8 179.0L90.8 179.0L90.8 165.4Q90.8 164.7 91.2 164.2Q91.7 163.7 92.4 163.7L92.4 163.7Q93.1 163.7 93.6 164.2Q94 164.7 94 165.4L94 165.4L94 166.8L94.1 166.8Q94.4 165.5 95.4 164.6Q96.4 163.8 97.7 163.8L97.7 163.8Q98.6 163.8 99.0 164.2L99.0 164.2Q99.5 164.5 99.5 165.4L99.5 165.4Q99.5 166.1 99.0 166.5L99.0 166.5Q98.5 167.0 97.4 167.0L97.4 167.0Q95.8 167 95.0 168.0Q94.2 169.0 94.2 170.6L94.2 170.6L94.2 179.0Q94.2 179.8 93.7 180.3Q93.2 180.8 92.5 180.8ZM104.5 161.0Q103.9 161.5 103.1 161.5Q102.3 161.5 101.7 161.0Q101.1 160.4 101.1 159.6L101.1 159.6Q101.1 158.8 101.7 158.2Q102.3 157.7 103.1 157.7L103.1 157.7Q103.9 157.7 104.5 158.2Q105.1 158.8 105.1 159.6L105.1 159.6Q105.1 160.4 104.5 161.0ZM104.3 180.3Q103.9 180.8 103.1 180.8Q102.3 180.8 101.9 180.3Q101.4 179.8 101.4 179.0L101.4 179.0L101.4 165.5Q101.4 164.7 101.9 164.2Q102.3 163.7 103.1 163.7Q103.9 163.7 104.3 164.2Q104.8 164.7 104.8 165.5L104.8 165.5L104.8 179.0Q104.8 179.8 104.3 180.3ZM114.4 180.8L114.4 180.8Q111.3 180.8 109.4 178.4Q107.5 176.1 107.5 172.3Q107.5 168.4 109.4 166.1Q111.3 163.8 114.4 163.8L114.4 163.8Q116.1 163.8 117.5 164.6Q118.8 165.4 119.5 166.8L119.5 166.8L119.6 166.8L119.6 159.4Q119.6 158.6 120.1 158.1Q120.5 157.6 121.3 157.6L121.3 157.6Q122.0 157.6 122.5 158.1Q123.0 158.6 123.0 159.4L123.0 159.4L123.0 179.1Q123.0 179.9 122.5 180.3Q122.1 180.8 121.3 180.8L121.3 180.8Q120.6 180.8 120.1 180.3Q119.6 179.9 119.6 179.1L119.6 179.1L119.6 177.5L119.5 177.5Q118.9 179.0 117.6 179.9Q116.3 180.8 114.4 180.8ZM115.3 177.9L115.3 177.9Q117.3 177.9 118.4 176.4Q119.6 174.8 119.6 172.3L119.6 172.3Q119.6 169.7 118.4 168.2Q117.3 166.6 115.3 166.6L115.3 166.6Q113.3 166.6 112.1 168.1Q111.0 169.7 111.0 172.3L111.0 172.3Q111.0 174.9 112.1 176.4Q113.3 177.9 115.3 177.9ZM131.3 180.8L131.3 180.8Q128.8 180.8 127.3 179.4Q125.8 178 125.8 175.8L125.8 175.8Q125.8 173.6 127.4 172.4Q129.0 171.1 131.9 170.9L131.9 170.9L136.4 170.7L136.4 169.4Q136.4 168.0 135.5 167.3Q134.6 166.5 133.1 166.5L133.1 166.5Q131.9 166.5 131.0 167.0Q130.2 167.5 129.5 168.6L129.5 168.6Q129.0 169.3 128.1 169.3L128.1 169.3Q127.4 169.3 127.0 168.9Q126.6 168.5 126.6 167.9L126.6 167.9Q126.6 167.3 126.9 166.8L126.9 166.8Q127.6 165.4 129.3 164.6Q131 163.7 133.2 163.7L133.2 163.7Q136.2 163.7 138.0 165.2Q139.8 166.7 139.8 169.1L139.8 169.1L139.8 179.1Q139.8 179.8 139.3 180.3Q138.8 180.8 138.1 180.8L138.1 180.8Q137.4 180.8 137.0 180.3Q136.5 179.9 136.5 179.2L136.5 179.2L136.5 177.8L136.4 177.8Q135.7 179.1 134.3 179.9Q132.9 180.8 131.3 180.8ZM132.2 178.1L132.2 178.1Q134.0 178.1 135.2 177.0Q136.4 175.9 136.4 174.3L136.4 174.3L136.4 173.0L132.3 173.3Q130.8 173.4 130.0 174.0Q129.2 174.6 129.2 175.7L129.2 175.7Q129.2 176.8 130 177.4Q130.8 178.1 132.2 178.1ZM145.0 186.6L145.0 186.6Q143.9 186.6 143.3 186.2Q142.6 185.8 142.6 185.0L142.6 185.0Q142.6 184.4 143.0 184.1Q143.3 183.8 143.9 183.8L143.9 183.8Q144.1 183.8 144.4 183.8Q144.6 183.8 144.8 183.8L144.8 183.8Q146.5 183.8 147.3 181.6L147.3 181.6L147.6 180.6L142.1 166.3Q141.9 165.7 141.9 165.3L141.9 165.3Q141.9 164.6 142.4 164.2Q142.9 163.7 143.7 163.7L143.7 163.7Q144.3 163.7 144.7 164.0Q145.1 164.3 145.3 165.0L145.3 165.0L149.5 177.4L149.5 177.4L153.7 165.0Q153.9 164.3 154.3 164.0Q154.7 163.7 155.3 163.7L155.3 163.7Q156.0 163.7 156.5 164.2Q157.0 164.6 157.0 165.3L157.0 165.3Q157.0 165.7 156.8 166.2L156.8 166.2L151.1 181.3Q150 184.3 148.7 185.4Q147.3 186.6 145.0 186.6ZM161.7 176.7L161.7 176.7Q162.5 176.7 162.9 177.0Q163.3 177.4 163.3 178.1L163.3 178.1Q163.3 178.5 163.2 179.0L163.2 179.0L161.8 184.3Q161.5 185.5 160.4 185.5L160.4 185.5Q159.8 185.5 159.4 185.1Q159.1 184.8 159.1 184.3L159.1 184.3Q159.1 184.1 159.1 183.9L159.1 183.9L160.1 178.1Q160.4 176.7 161.7 176.7Z M182.3 180.9L182.3 180.9Q178.6 180.9 176.2 179.1Q173.8 177.2 173.8 174.4L173.8 174.4Q173.8 172.2 175.2 170.7Q176.5 169.1 178.8 168.6L178.8 168.6L178.8 168.5Q176.9 168.0 175.7 166.6Q174.6 165.3 174.6 163.5L174.6 163.5Q174.6 160.9 176.8 159.2Q179.0 157.5 182.3 157.5L182.3 157.5Q185.7 157.5 187.9 159.2Q190.0 160.9 190.0 163.5L190.0 163.5Q190.0 165.3 188.9 166.6Q187.8 168.0 185.9 168.5L185.9 168.5L185.9 168.6Q188.1 169.1 189.5 170.7Q190.9 172.3 190.9 174.4L190.9 174.4Q190.9 176.3 189.8 177.8Q188.7 179.2 186.7 180.1Q184.8 180.9 182.3 180.9ZM182.3 167.3L182.3 167.3Q184.2 167.3 185.4 166.4Q186.6 165.4 186.6 163.8L186.6 163.8Q186.6 162.3 185.4 161.3Q184.2 160.3 182.3 160.3L182.3 160.3Q180.5 160.3 179.3 161.3Q178.1 162.3 178.1 163.8L178.1 163.8Q178.1 165.4 179.3 166.4Q180.5 167.3 182.3 167.3ZM178.8 177.0Q180.2 178.1 182.3 178.1Q184.5 178.1 185.9 177.0Q187.2 175.8 187.2 174.1L187.2 174.1Q187.2 172.4 185.9 171.3Q184.5 170.2 182.3 170.2Q180.2 170.2 178.8 171.3Q177.4 172.4 177.4 174.1L177.4 174.1Q177.4 175.8 178.8 177.0Z M203.7 180.2Q203.3 180.7 202.5 180.7Q201.7 180.7 201.2 180.2Q200.8 179.8 200.8 178.9L200.8 178.9L200.8 159.6Q200.8 158.7 201.3 158.2Q201.8 157.7 202.7 157.7L202.7 157.7Q203.3 157.7 203.7 157.9Q204.1 158.2 204.5 158.8L204.5 158.8L215.6 174.5L215.8 174.5L215.8 159.5Q215.8 158.6 216.2 158.1Q216.7 157.7 217.5 157.7L217.5 157.7Q218.3 157.7 218.7 158.1Q219.2 158.6 219.2 159.5L219.2 159.5L219.2 178.9Q219.2 179.8 218.7 180.2Q218.2 180.7 217.3 180.7L217.3 180.7Q216.7 180.7 216.3 180.5Q215.9 180.3 215.4 179.6L215.4 179.6L204.3 163.9L204.2 163.9L204.2 178.9Q204.2 179.8 203.7 180.2ZM235.7 178.5Q233.5 180.8 230.0 180.8Q226.4 180.8 224.3 178.5Q222.2 176.2 222.2 172.3L222.2 172.3Q222.2 168.3 224.3 166.0Q226.4 163.7 230.0 163.7Q233.5 163.7 235.7 166.0Q237.8 168.3 237.8 172.3L237.8 172.3Q237.8 176.2 235.7 178.5ZM230.0 178L230.0 178Q232 178 233.2 176.5Q234.3 175.0 234.3 172.3L234.3 172.3Q234.3 169.5 233.2 168.0Q232.0 166.5 230.0 166.5Q228.0 166.5 226.8 168.0Q225.6 169.5 225.6 172.3L225.6 172.3Q225.6 175.0 226.8 176.5Q228.0 178 230.0 178ZM246.7 180.8L246.7 180.8Q245.8 180.8 245.3 180.4Q244.8 180.0 244.4 179.0L244.4 179.0L239.5 166.2Q239.3 165.7 239.3 165.3L239.3 165.3Q239.3 164.6 239.8 164.2Q240.3 163.7 241.0 163.7L241.0 163.7Q242.2 163.7 242.6 165.1L242.6 165.1L246.7 177.2L246.8 177.2L250.8 165.0Q251.3 163.7 252.4 163.7L252.4 163.7Q253.1 163.7 253.6 164.2Q254.1 164.6 254.1 165.3L254.1 165.3Q254.1 165.7 253.9 166.2L253.9 166.2L249.0 179.0Q248.7 179.9 248.1 180.4Q247.6 180.8 246.7 180.8ZM263.5 180.8L263.5 180.8Q259.8 180.8 257.7 178.5Q255.6 176.3 255.6 172.3L255.6 172.3Q255.6 168.4 257.7 166.1Q259.8 163.7 263.3 163.7L263.3 163.7Q266.5 163.7 268.6 165.9Q270.6 168 270.6 171.4L270.6 171.4Q270.6 172.2 270.2 172.6Q269.8 173.1 269.0 173.1L269.0 173.1L259.0 173.1L259.0 173.2Q259.0 175.4 260.2 176.7Q261.4 178.0 263.4 178.0L263.4 178.0Q264.8 178.0 265.8 177.5Q266.7 177.0 267.7 175.7L267.7 175.7Q268.2 175.1 268.8 175.1L268.8 175.1Q269.5 175.1 269.9 175.5Q270.3 175.9 270.3 176.5L270.3 176.5Q270.3 176.8 270.0 177.4L270.0 177.4Q269.2 179 267.5 179.9Q265.8 180.8 263.5 180.8ZM259.0 170.7L259.0 170.7L267.3 170.7Q267.2 168.8 266.1 167.6Q265 166.5 263.2 166.5L263.2 166.5Q261.5 166.5 260.3 167.6Q259.2 168.8 259.0 170.7ZM276.2 180.3Q275.7 180.8 274.9 180.8Q274.2 180.8 273.7 180.3Q273.3 179.8 273.3 179.0L273.3 179.0L273.3 165.5Q273.3 164.7 273.7 164.2Q274.1 163.7 274.9 163.7Q275.6 163.7 276.0 164.2Q276.5 164.7 276.5 165.5L276.5 165.5L276.5 166.8L276.5 166.8Q277.1 165.4 278.3 164.6Q279.6 163.8 281.2 163.8L281.2 163.8Q282.9 163.8 284.1 164.6Q285.3 165.4 285.8 167.0L285.8 167.0L285.9 167.0Q286.5 165.5 287.9 164.6Q289.3 163.8 291.0 163.8L291.0 163.8Q293.5 163.8 294.9 165.2Q296.4 166.7 296.4 169.2L296.4 169.2L296.4 179.0Q296.4 179.8 295.9 180.3Q295.5 180.8 294.7 180.8Q293.9 180.8 293.5 180.3Q293 179.8 293 179.0L293 179.0L293 170.0Q293 168.4 292.2 167.5Q291.4 166.6 289.9 166.6Q288.4 166.6 287.4 167.6Q286.5 168.6 286.5 170.2L286.5 170.2L286.5 179.0Q286.5 179.8 286.0 180.3Q285.6 180.8 284.8 180.8Q284.0 180.8 283.6 180.3Q283.2 179.8 283.2 179.0L283.2 179.0L283.2 169.7Q283.2 168.3 282.3 167.5Q281.5 166.6 280.0 166.6L280.0 166.6Q278.5 166.6 277.6 167.7Q276.6 168.7 276.6 170.3L276.6 170.3L276.6 179.0Q276.6 179.8 276.2 180.3ZM301.4 180.8L301.4 180.8Q300.6 180.8 300.2 180.3Q299.8 179.9 299.8 179.1L299.8 179.1L299.8 159.4Q299.8 158.6 300.2 158.1Q300.7 157.6 301.5 157.6Q302.2 157.6 302.7 158.1Q303.1 158.6 303.1 159.4L303.1 159.4L303.1 166.8L303.2 166.8Q304.0 165.4 305.3 164.6Q306.7 163.8 308.4 163.8L308.4 163.8Q311.5 163.8 313.4 166.1Q315.3 168.4 315.3 172.3L315.3 172.3Q315.3 176.2 313.4 178.5Q311.5 180.8 308.4 180.8L308.4 180.8Q306.6 180.8 305.3 179.9Q303.9 179.1 303.1 177.7L303.1 177.7L303.0 177.7L303.0 179.1Q303.0 179.9 302.6 180.3Q302.1 180.8 301.4 180.8ZM307.5 177.9L307.5 177.9Q309.5 177.9 310.6 176.4Q311.8 174.9 311.8 172.3L311.8 172.3Q311.8 169.7 310.6 168.1Q309.5 166.6 307.5 166.6L307.5 166.6Q305.6 166.6 304.3 168.2Q303.1 169.7 303.1 172.3L303.1 172.3Q303.1 174.8 304.3 176.3Q305.6 177.9 307.5 177.9ZM325 180.8L325 180.8Q321.3 180.8 319.2 178.5Q317.1 176.3 317.1 172.3L317.1 172.3Q317.1 168.4 319.2 166.1Q321.3 163.7 324.8 163.7L324.8 163.7Q328.0 163.7 330.1 165.9Q332.2 168 332.2 171.4L332.2 171.4Q332.2 172.2 331.7 172.6Q331.3 173.1 330.5 173.1L330.5 173.1L320.5 173.1L320.5 173.2Q320.5 175.4 321.7 176.7Q322.9 178.0 324.9 178.0L324.9 178.0Q326.3 178.0 327.3 177.5Q328.2 177.0 329.2 175.7L329.2 175.7Q329.7 175.1 330.4 175.1L330.4 175.1Q331.0 175.1 331.4 175.5Q331.8 175.9 331.8 176.5L331.8 176.5Q331.8 176.8 331.5 177.4L331.5 177.4Q330.7 179 329.0 179.9Q327.3 180.8 325 180.8ZM320.6 170.7L320.6 170.7L328.8 170.7Q328.7 168.8 327.6 167.6Q326.5 166.5 324.8 166.5L324.8 166.5Q323 166.5 321.8 167.6Q320.7 168.8 320.6 170.7ZM336.5 180.8L336.5 180.8Q335.7 180.8 335.2 180.3Q334.8 179.8 334.8 179.0L334.8 179.0L334.8 165.4Q334.8 164.7 335.2 164.2Q335.7 163.7 336.4 163.7L336.4 163.7Q337.1 163.7 337.5 164.2Q338.0 164.7 338.0 165.4L338.0 165.4L338.0 166.8L338.0 166.8Q338.4 165.5 339.4 164.6Q340.4 163.8 341.7 163.8L341.7 163.8Q342.5 163.8 343.0 164.2L343.0 164.2Q343.4 164.5 343.4 165.4L343.4 165.4Q343.4 166.1 342.9 166.5L342.9 166.5Q342.4 167.0 341.4 167.0L341.4 167.0Q339.7 167 338.9 168.0Q338.1 169.0 338.1 170.6L338.1 170.6L338.1 179.0Q338.1 179.8 337.7 180.3Q337.2 180.8 336.5 180.8Z M365.9 180.5L353.4 180.5Q352.6 180.5 352.2 180.1Q351.8 179.7 351.8 179L351.8 179Q351.8 178.5 352.0 178.1Q352.2 177.8 352.7 177.2L352.7 177.2L359.8 170.0Q362.0 167.8 362.7 166.6Q363.4 165.4 363.4 164.1L363.4 164.1Q363.4 162.5 362.3 161.4Q361.2 160.4 359.5 160.4L359.5 160.4Q356.2 160.4 355.0 163.7L355.0 163.7Q354.7 164.3 354.4 164.6Q354.0 164.9 353.4 164.9L353.4 164.9Q352.7 164.9 352.3 164.5Q351.9 164.0 351.9 163.4L351.9 163.4Q351.9 163 352.0 162.6L352.0 162.6Q352.1 161.7 352.7 160.8Q353.3 159.9 354.2 159.2Q355.2 158.4 356.5 158.0Q357.9 157.5 359.5 157.5L359.5 157.5Q362.8 157.5 364.8 159.3Q366.9 161.1 366.9 163.9L366.9 163.9Q366.9 165.8 365.8 167.5Q364.8 169.1 361.9 172.0L361.9 172.0L356.5 177.4L356.5 177.5L365.9 177.5Q366.6 177.5 367 177.9Q367.4 178.3 367.4 179L367.4 179Q367.4 179.7 367 180.1Q366.6 180.5 365.9 180.5L365.9 180.5ZM384.9 177.7Q382.7 180.9 378.6 180.9Q374.6 180.9 372.3 177.7Q370.0 174.6 370.0 169.2L370.0 169.2Q370.0 163.8 372.3 160.6Q374.6 157.5 378.6 157.5L378.6 157.5Q382.6 157.5 384.9 160.6Q387.2 163.8 387.2 169.2L387.2 169.2Q387.2 174.6 384.9 177.7ZM378.6 178.0L378.6 178.0Q381.0 178.0 382.4 175.6Q383.7 173.3 383.7 169.2L383.7 169.2Q383.7 165.1 382.4 162.8Q381.0 160.4 378.6 160.4Q376.2 160.4 374.9 162.8Q373.5 165.1 373.5 169.2L373.5 169.2Q373.5 173.3 374.8 175.6Q376.2 178.0 378.6 178.0ZM404.4 180.5L391.9 180.5Q391.1 180.5 390.7 180.1Q390.3 179.7 390.3 179L390.3 179Q390.3 178.5 390.5 178.1Q390.7 177.8 391.2 177.2L391.2 177.2L398.3 170.0Q400.5 167.8 401.2 166.6Q401.9 165.4 401.9 164.1L401.9 164.1Q401.9 162.5 400.8 161.4Q399.7 160.4 398.0 160.4L398.0 160.4Q394.7 160.4 393.5 163.7L393.5 163.7Q393.2 164.3 392.9 164.6Q392.5 164.9 391.9 164.9L391.9 164.9Q391.2 164.9 390.8 164.5Q390.4 164.0 390.4 163.4L390.4 163.4Q390.4 163 390.5 162.6L390.5 162.6Q390.6 161.7 391.2 160.8Q391.8 159.9 392.7 159.2Q393.7 158.4 395.0 158.0Q396.4 157.5 398.0 157.5L398.0 157.5Q401.3 157.5 403.3 159.3Q405.4 161.1 405.4 163.9L405.4 163.9Q405.4 165.8 404.3 167.5Q403.3 169.1 400.4 172.0L400.4 172.0L395.0 177.4L395.0 177.5L404.4 177.5Q405.1 177.5 405.5 177.9Q405.9 178.3 405.9 179L405.9 179Q405.9 179.7 405.5 180.1Q405.1 180.5 404.4 180.5L404.4 180.5ZM421.3 180.8L421.3 180.8Q420.5 180.8 420.0 180.3Q419.6 179.8 419.6 179.0L419.6 179.0L419.6 176.0L410.3 176.0Q409.4 176.0 408.8 175.4Q408.3 174.9 408.3 174L408.3 174Q408.3 172.9 409.0 171.5L409.0 171.5Q411 168.0 416.3 160.3L416.3 160.3Q417.4 158.8 418.2 158.2Q419.0 157.6 420.1 157.6L420.1 157.6Q421.4 157.6 422.2 158.3Q422.9 159 422.9 160.3L422.9 160.3L422.9 173.0L424.7 173.0Q425.4 173.0 425.8 173.5Q426.3 173.9 426.3 174.5Q426.3 175.2 425.8 175.6Q425.4 176.0 424.7 176.0L424.7 176.0L422.9 176.0L422.9 179.0Q422.9 179.8 422.5 180.3Q422 180.8 421.3 180.8ZM411.5 173.1L419.6 173.1L419.6 160.7L419.5 160.7Q413.8 169.0 411.5 173L411.5 173L411.5 173.1Z " clip-path="url(#satori_cp-id-0)" mask="url(#satori_om-id-0)"/><mask id="satori_om-id-0-0-0-1"><rect x="72" y="212" width="1056" height="147" fill="#fff" mask="url(#satori_om-id-0)"/></mask><path fill="#0f172a" d="M101.2 271.6L80.5 271.6Q78.3 271.6 77 270.3Q75.8 269.0 75.8 266.6L75.8 266.6L75.8 230.8Q75.8 228.4 77 227.1Q78.3 225.8 80.5 225.8Q82.7 225.8 83.9 227.1Q85.2 228.4 85.2 230.8L85.2 230.8L85.2 263.7L101.2 263.7Q103.1 263.7 104.3 264.8Q105.5 265.8 105.5 267.6Q105.5 269.5 104.3 270.5Q103.2 271.6 101.2 271.6L101.2 271.6ZM117.9 232.5Q116.5 233.9 114.4 233.9Q112.4 233.9 111.0 232.5Q109.6 231.1 109.6 229.2L109.6 229.2Q109.6 227.2 111.0 225.8Q112.4 224.5 114.4 224.5Q116.5 224.5 117.9 225.8Q119.3 227.2 119.3 229.2L119.3 229.2Q119.3 231.1 117.9 232.5ZM117.8 270.9Q116.6 272.2 114.4 272.2Q112.3 272.2 111.1 270.9Q109.9 269.7 109.9 267.5L109.9 267.5L109.9 242.1Q109.9 239.9 111.1 238.6Q112.3 237.4 114.4 237.4Q116.6 237.4 117.8 238.6Q119 239.9 119 242.1L119 242.1L119 267.5Q119 269.7 117.8 270.9ZM140.0 284.1L140.0 284.1Q135.1 284.1 131.3 282.4Q127.6 280.7 125.9 278.0L125.9 278.0Q125.3 276.8 125.3 275.5L125.3 275.5Q125.3 274.0 126.3 273.1Q127.3 272.1 129.0 272.1L129.0 272.1Q130.7 272.1 132.1 273.4L132.1 273.4Q135.9 277.1 140 277.1L140 277.1Q143.7 277.1 145.8 275.2Q147.9 273.4 147.9 270.2L147.9 270.2L147.9 264.8L147.8 264.8Q146.6 267.6 143.8 269.2Q141.0 270.8 137.4 270.8L137.4 270.8Q131.2 270.8 127.5 266.4Q123.8 261.9 123.8 254.2L123.8 254.2Q123.8 246.4 127.5 241.9Q131.1 237.5 137.6 237.5L137.6 237.5Q141.1 237.5 143.8 239.2Q146.5 240.9 147.8 243.8L147.8 243.8L148 243.8L148 242.0Q148 239.7 149.3 238.6Q150.5 237.4 152.6 237.4L152.6 237.4Q154.6 237.4 155.9 238.6Q157.1 239.7 157.1 242.0L157.1 242.0L157.1 270.2Q157.1 276.8 152.6 280.5Q148.1 284.2 140.0 284.1ZM140.5 264.1L140.5 264.1Q144.0 264.1 146 261.5Q148.0 258.9 148.0 254.4Q148.0 249.8 146 247.1Q144.0 244.5 140.5 244.5L140.5 244.5Q137.2 244.5 135.2 247.1Q133.2 249.8 133.2 254.3L133.2 254.3Q133.2 258.9 135.2 261.5Q137.1 264.1 140.5 264.1ZM171.1 271.0Q169.9 272.2 167.8 272.2Q165.8 272.2 164.5 271.0Q163.3 269.7 163.3 267.5L163.3 267.5L163.3 230.5Q163.3 228.3 164.4 227.0Q165.6 225.8 167.8 225.8L167.8 225.8Q169.8 225.8 171.0 227.0Q172.2 228.2 172.2 230.5L172.2 230.5L172.2 244.0L172.4 244.0Q173.8 240.8 176.5 239.1Q179.2 237.4 182.9 237.4L182.9 237.4Q188.5 237.4 191.5 240.8Q194.6 244.1 194.6 250.0L194.6 250.0L194.6 267.5Q194.6 269.7 193.4 271.0Q192.1 272.2 190.1 272.2Q188 272.2 186.8 271.0Q185.5 269.7 185.5 267.5L185.5 267.5L185.5 251.9Q185.5 248.6 183.9 246.8Q182.3 245.0 179.2 245.0L179.2 245.0Q176.0 245.0 174.2 247.0Q172.4 249.1 172.4 252.4L172.4 252.4L172.4 267.5Q172.4 269.7 171.1 271.0ZM202.9 263.0L202.9 263.0L202.9 244.9L201.1 244.9Q199.5 244.9 198.5 244.0Q197.6 243.1 197.6 241.5Q197.6 239.9 198.5 239.0Q199.5 238.1 201.1 238.1L201.1 238.1L202.9 238.1L202.9 234.3Q202.9 232.1 204.1 230.8Q205.3 229.6 207.4 229.6Q209.6 229.6 210.8 230.8Q212 232.1 212 234.3L212 234.3L212 238.1L215.2 238.1Q216.8 238.1 217.8 239.0Q218.7 239.9 218.7 241.5Q218.7 243.1 217.8 244.0Q216.8 244.9 215.2 244.9L215.2 244.9L212 244.9L212 261.0Q212 262.7 212.7 263.6Q213.3 264.4 214.8 264.5L214.8 264.5L215.4 264.6Q217.1 264.7 218.0 265.5Q218.8 266.3 218.8 267.9L218.8 267.9Q218.8 269.8 217.1 270.9Q215.3 271.9 212.4 271.9L212.4 271.9L212.1 271.9Q202.9 271.9 202.9 263.0ZM234.4 272.2L234.4 272.2Q232.1 272.2 230.7 271.1Q229.4 269.9 228.7 267.4L228.7 267.4L221.9 244.1Q221.4 242.4 221.4 241.3L221.4 241.3Q221.4 239.6 222.6 238.5Q223.9 237.4 225.8 237.4L225.8 237.4Q229.3 237.4 230.1 241.2L230.1 241.2L235.1 262.9L235.3 262.9L240.4 241.6Q241.3 237.4 245.6 237.4L245.6 237.4Q247.6 237.4 248.9 238.4Q250.3 239.5 250.7 241.6L250.7 241.6L255.9 262.9L256.1 262.9L261.1 241.2Q261.5 239.3 262.5 238.3Q263.6 237.4 265.3 237.4L265.3 237.4Q267.2 237.4 268.4 238.4Q269.6 239.5 269.6 241.2L269.6 241.2Q269.6 242.3 269.1 244.0L269.1 244.0L262.4 267.4Q261.7 269.9 260.3 271.1Q258.9 272.2 256.5 272.2L256.5 272.2Q254.0 272.2 252.6 271.1Q251.2 269.9 250.6 267.4L250.6 267.4L245.5 247.9L245.3 247.9L240.3 267.4Q239.7 269.9 238.3 271.1Q236.9 272.2 234.4 272.2ZM289.2 272.3L289.2 272.3Q281.3 272.3 276.9 267.7Q272.5 263.1 272.5 255.0L272.5 255.0Q272.5 246.9 276.9 242.1Q281.3 237.3 288.7 237.3L288.7 237.3Q295.8 237.3 300.2 241.7Q304.6 246.1 304.6 252.9L304.6 252.9Q304.6 254.8 303.6 255.9Q302.5 256.9 300.6 256.9L300.6 256.9L281.5 256.9L281.5 257.3Q281.5 261.0 283.6 263.3Q285.7 265.5 289.1 265.5L289.1 265.5Q291.6 265.5 293.5 264.6Q295.3 263.7 297.1 261.5L297.1 261.5Q298.4 260.1 300.1 260.1L300.1 260.1Q301.6 260.1 302.6 261.1Q303.7 262.0 303.7 263.5L303.7 263.5Q303.7 264.6 303.0 265.7L303.0 265.7Q301.4 268.8 297.7 270.5Q294 272.3 289.2 272.3ZM281.6 251.3L281.6 251.3L295.8 251.3Q295.7 248.0 293.8 246.1Q291.8 244.1 288.8 244.1Q285.8 244.1 283.8 246.1Q281.8 248.1 281.6 251.3ZM317.5 232.5Q316.1 233.9 314 233.9Q311.9 233.9 310.5 232.5Q309.1 231.1 309.1 229.2L309.1 229.2Q309.1 227.2 310.5 225.8Q311.9 224.5 314 224.5Q316.1 224.5 317.5 225.8Q318.9 227.2 318.9 229.2L318.9 229.2Q318.9 231.1 317.5 232.5ZM317.3 270.9Q316.1 272.2 314 272.2Q311.9 272.2 310.7 270.9Q309.4 269.7 309.4 267.5L309.4 267.5L309.4 242.1Q309.4 239.9 310.7 238.6Q311.9 237.4 314 237.4Q316.1 237.4 317.3 238.6Q318.6 239.9 318.6 242.1L318.6 242.1L318.6 267.5Q318.6 269.7 317.3 270.9ZM339.6 284.1L339.6 284.1Q334.6 284.1 330.9 282.4Q327.2 280.7 325.5 278.0L325.5 278.0Q324.8 276.8 324.8 275.5L324.8 275.5Q324.8 274.0 325.8 273.1Q326.8 272.1 328.5 272.1L328.5 272.1Q330.3 272.1 331.7 273.4L331.7 273.4Q335.5 277.1 339.6 277.1L339.6 277.1Q343.3 277.1 345.4 275.2Q347.5 273.4 347.5 270.2L347.5 270.2L347.5 264.8L347.3 264.8Q346.1 267.6 343.4 269.2Q340.6 270.8 337 270.8L337 270.8Q330.8 270.8 327.1 266.4Q323.4 261.9 323.4 254.2L323.4 254.2Q323.4 246.4 327.0 241.9Q330.7 237.5 337.2 237.5L337.2 237.5Q340.7 237.5 343.4 239.2Q346.0 240.9 347.4 243.8L347.4 243.8L347.6 243.8L347.6 242.0Q347.6 239.7 348.8 238.6Q350.1 237.4 352.2 237.4L352.2 237.4Q354.2 237.4 355.4 238.6Q356.7 239.7 356.7 242.0L356.7 242.0L356.7 270.2Q356.7 276.8 352.2 280.5Q347.7 284.2 339.6 284.1ZM340.1 264.1L340.1 264.1Q343.5 264.1 345.6 261.5Q347.6 258.9 347.6 254.4Q347.6 249.8 345.6 247.1Q343.5 244.5 340.1 244.5L340.1 244.5Q336.7 244.5 334.7 247.1Q332.8 249.8 332.8 254.3L332.8 254.3Q332.8 258.9 334.7 261.5Q336.7 264.1 340.1 264.1ZM370.7 271.0Q369.4 272.2 367.4 272.2Q365.3 272.2 364.1 271.0Q362.8 269.7 362.8 267.5L362.8 267.5L362.8 230.5Q362.8 228.3 364 227.0Q365.2 225.8 367.3 225.8L367.3 225.8Q369.4 225.8 370.6 227.0Q371.8 228.2 371.8 230.5L371.8 230.5L371.8 244.0L372.0 244.0Q373.3 240.8 376.0 239.1Q378.7 237.4 382.5 237.4L382.5 237.4Q388.0 237.4 391.1 240.8Q394.2 244.1 394.2 250.0L394.2 250.0L394.2 267.5Q394.2 269.7 392.9 271.0Q391.7 272.2 389.6 272.2Q387.6 272.2 386.3 271.0Q385.1 269.7 385.1 267.5L385.1 267.5L385.1 251.9Q385.1 248.6 383.5 246.8Q381.8 245.0 378.8 245.0L378.8 245.0Q375.6 245.0 373.8 247.0Q371.9 249.1 371.9 252.4L371.9 252.4L371.9 267.5Q371.9 269.7 370.7 271.0ZM402.4 263.0L402.4 263.0L402.4 244.9L400.7 244.9Q399.1 244.9 398.1 244.0Q397.2 243.1 397.2 241.5Q397.2 239.9 398.1 239.0Q399.1 238.1 400.7 238.1L400.7 238.1L402.4 238.1L402.4 234.3Q402.4 232.1 403.7 230.8Q404.9 229.6 407 229.6Q409.1 229.6 410.3 230.8Q411.6 232.1 411.6 234.3L411.6 234.3L411.6 238.1L414.8 238.1Q416.4 238.1 417.3 239.0Q418.3 239.9 418.3 241.5Q418.3 243.1 417.3 244.0Q416.4 244.9 414.8 244.9L414.8 244.9L411.6 244.9L411.6 261.0Q411.6 262.7 412.2 263.6Q412.9 264.4 414.3 264.5L414.3 264.5L414.9 264.6Q416.7 264.7 417.5 265.5Q418.4 266.3 418.4 267.9L418.4 267.9Q418.4 269.8 416.7 270.9Q414.9 271.9 411.9 271.9L411.9 271.9L411.6 271.9Q402.4 271.9 402.4 263.0Z M444.4 270.8Q443.1 272.1 440.9 272.1Q438.7 272.1 437.4 270.8Q436.2 269.6 436.2 267.2L436.2 267.2L436.2 231.4Q436.2 229.1 437.4 227.8Q438.7 226.5 440.9 226.5L440.9 226.5L454.5 226.5Q461.5 226.5 465.8 230.7Q470.2 235.0 470.2 241.9L470.2 241.9Q470.2 248.8 465.7 253.1Q461.2 257.3 454.1 257.3L454.1 257.3L445.6 257.3L445.6 267.2Q445.6 269.6 444.4 270.8ZM445.6 233.9L445.6 250.0L452 250.0Q456.1 250.0 458.3 247.9Q460.6 245.8 460.6 241.9Q460.6 238.1 458.3 236.0Q456.1 233.9 452.0 233.9L452.0 233.9L445.6 233.9ZM479.5 272.2L479.5 272.2Q477.4 272.2 476.2 271.0Q474.9 269.7 474.9 267.5L474.9 267.5L474.9 242.0Q474.9 239.8 476.1 238.6Q477.3 237.4 479.3 237.4L479.3 237.4Q481.3 237.4 482.5 238.6Q483.7 239.8 483.7 242.0L483.7 242.0L483.7 244.1L483.8 244.1Q484.5 241.1 486.4 239.3Q488.3 237.5 490.8 237.5L490.8 237.5Q492.7 237.5 493.7 238.4L493.7 238.4Q495.0 239.4 495.0 241.7L495.0 241.7Q495.0 243.9 493.7 245.0L493.7 245.0Q492.3 246.2 489.7 246.2L489.7 246.2Q486.7 246.2 485.4 247.8Q484.1 249.5 484.1 252.6L484.1 252.6L484.1 267.5Q484.1 269.7 482.8 271.0Q481.6 272.2 479.5 272.2ZM525.7 267.6Q521.3 272.3 513.6 272.3Q505.9 272.3 501.5 267.6Q497 263.0 497 254.8L497 254.8Q497 246.7 501.5 242.0Q506.0 237.3 513.6 237.3L513.6 237.3Q521.2 237.3 525.7 242.0Q530.2 246.7 530.2 254.8L530.2 254.8Q530.2 263.0 525.7 267.6ZM513.6 265.3L513.6 265.3Q517.0 265.3 518.9 262.6Q520.9 259.8 520.9 254.8L520.9 254.8Q520.9 249.9 518.9 247.1Q517.0 244.3 513.6 244.3Q510.2 244.3 508.2 247.1Q506.3 249.9 506.3 254.8L506.3 254.8Q506.3 259.8 508.2 262.6Q510.2 265.3 513.6 265.3ZM539.6 272.2L539.6 272.2Q537.5 272.2 536.3 271.0Q535.1 269.8 535.1 267.6L535.1 267.6L535.1 230.6Q535.1 228.3 536.3 227.0Q537.6 225.8 539.7 225.8Q541.7 225.8 543.0 227.0Q544.2 228.3 544.2 230.6L544.2 230.6L544.2 243.9L544.4 243.9Q545.8 240.9 548.5 239.2Q551.2 237.5 554.8 237.5L554.8 237.5Q561.1 237.5 564.8 242.1Q568.4 246.7 568.4 254.8Q568.4 262.9 564.8 267.5Q561.1 272.1 554.8 272.1L554.8 272.1Q551.2 272.1 548.4 270.4Q545.7 268.8 544.3 265.8L544.3 265.8L544.1 265.8L544.1 267.6Q544.1 269.8 542.9 271.0Q541.6 272.2 539.6 272.2ZM551.7 264.7L551.7 264.7Q555.1 264.7 557.0 262.1Q559.0 259.4 559.0 254.8L559.0 254.8Q559.0 250.2 557.0 247.5Q555.1 244.8 551.7 244.8L551.7 244.8Q548.3 244.8 546.3 247.6Q544.2 250.3 544.2 254.8L544.2 254.8Q544.2 259.3 546.3 262.0Q548.3 264.7 551.7 264.7ZM583 272.1L583 272.1Q578.2 272.1 575.0 269.2Q571.8 266.4 571.8 261.9L571.8 261.9Q571.8 257.4 575.2 254.8Q578.5 252.2 584.8 251.8L584.8 251.8L593.3 251.3L593.3 249.1Q593.3 246.8 591.8 245.5Q590.3 244.1 587.7 244.1L587.7 244.1Q585.6 244.1 584.1 244.9Q582.7 245.7 581.2 247.7L581.2 247.7Q579.7 249.4 577.5 249.4L577.5 249.4Q575.9 249.4 574.8 248.4Q573.7 247.4 573.7 245.9L573.7 245.9Q573.7 244.8 574.2 243.8L574.2 243.8Q575.3 240.8 579.1 239.1Q582.8 237.3 588.1 237.3L588.1 237.3Q594.5 237.3 598.4 240.4Q602.3 243.5 602.3 248.5L602.3 248.5L602.3 267.6Q602.3 269.8 601.0 271.0Q599.8 272.2 597.8 272.2L597.8 272.2Q595.9 272.2 594.7 271.2Q593.6 270.1 593.4 268.1L593.4 268.1L593.4 266.4L593.3 266.4Q591.9 269.1 589.0 270.6Q586.2 272.1 583 272.1ZM586 265.5L586 265.5Q589.0 265.5 591.2 263.7Q593.3 262.0 593.3 259.3L593.3 259.3L593.3 256.8L586.2 257.3Q583.7 257.5 582.3 258.6Q580.9 259.6 580.9 261.4L580.9 261.4Q580.9 263.3 582.3 264.4Q583.7 265.5 586 265.5ZM612.8 272.2L612.8 272.2Q610.8 272.2 609.6 271.0Q608.3 269.8 608.3 267.6L608.3 267.6L608.3 230.6Q608.3 228.3 609.6 227.0Q610.8 225.8 612.9 225.8Q615.0 225.8 616.2 227.0Q617.5 228.3 617.5 230.6L617.5 230.6L617.5 243.9L617.7 243.9Q619.1 240.9 621.8 239.2Q624.5 237.5 628 237.5L628 237.5Q634.4 237.5 638 242.1Q641.6 246.7 641.6 254.8Q641.6 262.9 638 267.5Q634.4 272.1 628.0 272.1L628.0 272.1Q624.4 272.1 621.7 270.4Q619.0 268.8 617.5 265.8L617.5 265.8L617.3 265.8L617.3 267.6Q617.3 269.8 616.1 271.0Q614.9 272.2 612.8 272.2ZM624.9 264.7L624.9 264.7Q628.3 264.7 630.3 262.1Q632.3 259.4 632.3 254.8L632.3 254.8Q632.3 250.2 630.3 247.5Q628.3 244.8 624.9 244.8L624.9 244.8Q621.6 244.8 619.5 247.6Q617.4 250.3 617.4 254.8L617.4 254.8Q617.4 259.3 619.5 262.0Q621.6 264.7 624.9 264.7ZM654.5 232.5Q653.1 233.9 651.1 233.9Q649 233.9 647.6 232.5Q646.2 231.1 646.2 229.2L646.2 229.2Q646.2 227.2 647.6 225.8Q649 224.5 651.1 224.5Q653.1 224.5 654.5 225.8Q655.9 227.2 655.9 229.2L655.9 229.2Q655.9 231.1 654.5 232.5ZM654.4 270.9Q653.2 272.2 651.1 272.2Q648.9 272.2 647.7 270.9Q646.5 269.7 646.5 267.5L646.5 267.5L646.5 242.1Q646.5 239.9 647.7 238.6Q648.9 237.4 651.1 237.4Q653.2 237.4 654.4 238.6Q655.6 239.9 655.6 242.1L655.6 242.1L655.6 267.5Q655.6 269.7 654.4 270.9ZM669.8 271.0Q668.5 272.2 666.5 272.2Q664.4 272.2 663.2 271.0Q661.9 269.7 661.9 267.5L661.9 267.5L661.9 230.6Q661.9 228.3 663.2 227.0Q664.4 225.8 666.5 225.8Q668.5 225.8 669.8 227.0Q671.0 228.3 671.0 230.6L671.0 230.6L671.0 267.5Q671.0 269.7 669.8 271.0ZM685.4 232.5Q684.0 233.9 681.9 233.9Q679.8 233.9 678.4 232.5Q677.0 231.1 677.0 229.2L677.0 229.2Q677.0 227.2 678.4 225.8Q679.8 224.5 681.9 224.5Q684.0 224.5 685.4 225.8Q686.8 227.2 686.8 229.2L686.8 229.2Q686.8 231.1 685.4 232.5ZM685.3 270.9Q684.0 272.2 681.9 272.2Q679.8 272.2 678.6 270.9Q677.3 269.7 677.3 267.5L677.3 267.5L677.3 242.1Q677.3 239.9 678.6 238.6Q679.8 237.4 681.9 237.4Q684.0 237.4 685.3 238.6Q686.5 239.9 686.5 242.1L686.5 242.1L686.5 267.5Q686.5 269.7 685.3 270.9ZM706.2 272.3L706.2 272.3Q700.6 272.3 696.8 270.4Q693 268.6 691.8 265.6L691.8 265.6Q691.4 264.6 691.4 263.9L691.4 263.9Q691.4 262.3 692.5 261.4Q693.5 260.4 695.1 260.4L695.1 260.4Q697.3 260.4 699.1 262.5L699.1 262.5Q700.5 264.2 702.2 265.1Q703.8 265.9 706.4 265.9L706.4 265.9Q708.9 265.9 710.4 264.9Q711.9 263.9 711.9 262.3L711.9 262.3Q711.9 260.9 710.9 260.1Q709.9 259.3 707.4 258.8L707.4 258.8L701.8 257.6Q696.9 256.5 694.4 254.1Q691.9 251.6 691.9 247.9L691.9 247.9Q691.9 243.1 695.8 240.2Q699.7 237.3 706.2 237.3L706.2 237.3Q711.2 237.3 714.8 239.3Q718.4 241.3 719.3 244.3L719.3 244.3Q719.5 245.1 719.5 245.6L719.5 245.6Q719.5 247.1 718.6 247.9Q717.7 248.7 716 248.7L716 248.7Q713.9 248.7 712.7 247.3L712.7 247.3Q711.3 245.6 709.8 244.7Q708.3 243.7 706 243.7L706 243.7Q703.7 243.7 702.2 244.7Q700.8 245.7 700.8 247.4L700.8 247.4Q700.8 248.7 701.8 249.6Q702.9 250.5 705.4 251.0L705.4 251.0L710.9 252.2Q716.3 253.3 718.6 255.4Q721 257.6 721 261.3L721 261.3Q721 266.3 716.9 269.3Q712.8 272.3 706.2 272.3ZM727.9 263.0L727.9 263.0L727.9 244.9L726.2 244.9Q724.6 244.9 723.6 244.0Q722.7 243.1 722.7 241.5Q722.7 239.9 723.6 239.0Q724.6 238.1 726.2 238.1L726.2 238.1L727.9 238.1L727.9 234.3Q727.9 232.1 729.2 230.8Q730.4 229.6 732.5 229.6Q734.6 229.6 735.8 230.8Q737.1 232.1 737.1 234.3L737.1 234.3L737.1 238.1L740.3 238.1Q741.9 238.1 742.8 239.0Q743.8 239.9 743.8 241.5Q743.8 243.1 742.8 244.0Q741.9 244.9 740.3 244.9L740.3 244.9L737.1 244.9L737.1 261.0Q737.1 262.7 737.7 263.6Q738.4 264.4 739.8 264.5L739.8 264.5L740.4 264.6Q742.2 264.7 743.0 265.5Q743.9 266.3 743.9 267.9L743.9 267.9Q743.9 269.8 742.2 270.9Q740.4 271.9 737.4 271.9L737.4 271.9L737.1 271.9Q727.9 271.9 727.9 263.0ZM756.4 232.5Q755.0 233.9 753.0 233.9Q750.9 233.9 749.5 232.5Q748.1 231.1 748.1 229.2L748.1 229.2Q748.1 227.2 749.5 225.8Q750.9 224.5 753.0 224.5Q755.0 224.5 756.4 225.8Q757.8 227.2 757.8 229.2L757.8 229.2Q757.8 231.1 756.4 232.5ZM756.3 270.9Q755.1 272.2 753.0 272.2Q750.8 272.2 749.6 270.9Q748.4 269.7 748.4 267.5L748.4 267.5L748.4 242.1Q748.4 239.9 749.6 238.6Q750.8 237.4 753.0 237.4Q755.1 237.4 756.3 238.6Q757.5 239.9 757.5 242.1L757.5 242.1L757.5 267.5Q757.5 269.7 756.3 270.9ZM778.9 272.3L778.9 272.3Q771.3 272.3 766.8 267.6Q762.4 262.9 762.4 254.8L762.4 254.8Q762.4 246.8 766.8 242.1Q771.3 237.3 778.8 237.3L778.8 237.3Q783.8 237.3 787.7 239.5Q791.6 241.7 792.9 245.3L792.9 245.3Q793.4 246.6 793.4 247.6L793.4 247.6Q793.4 249.2 792.3 250.2Q791.2 251.1 789.5 251.1L789.5 251.1Q788.2 251.1 787.3 250.6Q786.4 250.0 785.7 248.8L785.7 248.8Q783.3 244.5 779.1 244.5L779.1 244.5Q775.6 244.5 773.6 247.2Q771.6 249.9 771.6 254.8L771.6 254.8Q771.6 259.7 773.6 262.4Q775.6 265.1 779.0 265.1L779.0 265.1Q783.3 265.1 785.6 261.2L785.6 261.2Q786.5 259.7 787.4 259.1Q788.3 258.5 789.8 258.5L789.8 258.5Q791.4 258.5 792.5 259.5Q793.6 260.5 793.6 262.1L793.6 262.1Q793.6 263.2 793 264.5L793 264.5Q791.5 268.0 787.6 270.1Q783.7 272.3 778.9 272.3Z M820.1 270.8Q818.8 272.1 816.6 272.1Q814.4 272.1 813.2 270.8Q811.9 269.6 811.9 267.2L811.9 267.2L811.9 231.4Q811.9 229.1 813.2 227.8Q814.4 226.5 816.6 226.5L816.6 226.5L830.3 226.5Q837.2 226.5 841.5 230.7Q845.9 235.0 845.9 241.9L845.9 241.9Q845.9 248.8 841.4 253.1Q836.9 257.3 829.8 257.3L829.8 257.3L821.3 257.3L821.3 267.2Q821.3 269.6 820.1 270.8ZM821.3 233.9L821.3 250.0L827.7 250.0Q831.8 250.0 834.0 247.9Q836.3 245.8 836.3 241.9Q836.3 238.1 834.0 236.0Q831.8 233.9 827.8 233.9L827.8 233.9L821.3 233.9ZM858.8 271.0Q857.5 272.2 855.4 272.2Q853.4 272.2 852.1 271.0Q850.9 269.7 850.9 267.5L850.9 267.5L850.9 230.6Q850.9 228.3 852.1 227.0Q853.4 225.8 855.4 225.8Q857.5 225.8 858.8 227.0Q860 228.3 860 230.6L860 230.6L860 267.5Q860 269.7 858.8 271.0ZM876.1 272.1L876.1 272.1Q871.2 272.1 868.0 269.2Q864.8 266.4 864.8 261.9L864.8 261.9Q864.8 257.4 868.2 254.8Q871.6 252.2 877.9 251.8L877.9 251.8L886.3 251.3L886.3 249.1Q886.3 246.8 884.8 245.5Q883.3 244.1 880.7 244.1L880.7 244.1Q878.6 244.1 877.2 244.9Q875.8 245.7 874.2 247.7L874.2 247.7Q872.7 249.4 870.6 249.4L870.6 249.4Q868.9 249.4 867.9 248.4Q866.8 247.4 866.8 245.9L866.8 245.9Q866.8 244.8 867.3 243.8L867.3 243.8Q868.4 240.8 872.2 239.1Q875.9 237.3 881.1 237.3L881.1 237.3Q887.6 237.3 891.4 240.4Q895.3 243.5 895.3 248.5L895.3 248.5L895.3 267.6Q895.3 269.8 894.1 271.0Q892.9 272.2 890.9 272.2L890.9 272.2Q889.0 272.2 887.8 271.2Q886.6 270.1 886.5 268.1L886.5 268.1L886.5 266.4L886.3 266.4Q884.9 269.1 882.1 270.6Q879.3 272.1 876.1 272.1ZM879.1 265.5L879.1 265.5Q882.1 265.5 884.2 263.7Q886.3 262.0 886.3 259.3L886.3 259.3L886.3 256.8L879.3 257.3Q876.7 257.5 875.3 258.6Q873.9 259.6 873.9 261.4L873.9 261.4Q873.9 263.3 875.3 264.4Q876.8 265.5 879.1 265.5ZM909.1 271.0Q907.8 272.2 905.8 272.2Q903.7 272.2 902.4 271.0Q901.2 269.7 901.2 267.5L901.2 267.5L901.2 242.0Q901.2 239.8 902.4 238.6Q903.5 237.4 905.6 237.4Q907.7 237.4 908.9 238.6Q910.2 239.9 910.2 242.0L910.2 242.0L910.2 243.9L910.3 243.9Q913.1 237.4 920.7 237.4L920.7 237.4Q926.2 237.4 929.3 240.7Q932.3 244.1 932.3 250.0L932.3 250.0L932.3 267.5Q932.3 269.7 931.0 271.0Q929.8 272.2 927.7 272.2Q925.7 272.2 924.4 271.0Q923.2 269.7 923.2 267.5L923.2 267.5L923.2 251.9Q923.2 248.6 921.6 246.8Q920.0 245.0 917 245.0Q914.0 245.0 912.1 247.0Q910.3 249.1 910.3 252.3L910.3 252.3L910.3 267.5Q910.3 269.7 909.1 271.0ZM945.9 271.0Q944.7 272.2 942.6 272.2Q940.6 272.2 939.3 271.0Q938.1 269.7 938.1 267.5L938.1 267.5L938.1 242.0Q938.1 239.8 939.2 238.6Q940.4 237.4 942.5 237.4Q944.5 237.4 945.8 238.6Q947.0 239.9 947.0 242.0L947.0 242.0L947.0 243.9L947.2 243.9Q950.0 237.4 957.5 237.4L957.5 237.4Q963.1 237.4 966.1 240.7Q969.2 244.1 969.2 250.0L969.2 250.0L969.2 267.5Q969.2 269.7 967.9 271.0Q966.7 272.2 964.6 272.2Q962.5 272.2 961.3 271.0Q960.0 269.7 960.0 267.5L960.0 267.5L960.0 251.9Q960.0 248.6 958.5 246.8Q956.9 245.0 953.9 245.0Q950.8 245.0 949.0 247.0Q947.2 249.1 947.2 252.3L947.2 252.3L947.2 267.5Q947.2 269.7 945.9 271.0ZM983.1 232.5Q981.7 233.9 979.7 233.9Q977.6 233.9 976.2 232.5Q974.8 231.1 974.8 229.2L974.8 229.2Q974.8 227.2 976.2 225.8Q977.6 224.5 979.7 224.5Q981.7 224.5 983.1 225.8Q984.5 227.2 984.5 229.2L984.5 229.2Q984.5 231.1 983.1 232.5ZM983 270.9Q981.8 272.2 979.7 272.2Q977.5 272.2 976.3 270.9Q975.1 269.7 975.1 267.5L975.1 267.5L975.1 242.1Q975.1 239.9 976.3 238.6Q977.5 237.4 979.7 237.4Q981.8 237.4 983 238.6Q984.2 239.9 984.2 242.1L984.2 242.1L984.2 267.5Q984.2 269.7 983 270.9ZM998.2 271.0Q996.9 272.2 994.8 272.2Q992.8 272.2 991.5 271.0Q990.3 269.7 990.3 267.5L990.3 267.5L990.3 242.0Q990.3 239.8 991.5 238.6Q992.6 237.4 994.7 237.4Q996.8 237.4 998 238.6Q999.3 239.9 999.3 242.0L999.3 242.0L999.3 243.9L999.4 243.9Q1002.2 237.4 1009.8 237.4L1009.8 237.4Q1015.3 237.4 1018.3 240.7Q1021.4 244.1 1021.4 250.0L1021.4 250.0L1021.4 267.5Q1021.4 269.7 1020.1 271.0Q1018.9 272.2 1016.8 272.2Q1014.8 272.2 1013.5 271.0Q1012.3 269.7 1012.3 267.5L1012.3 267.5L1012.3 251.9Q1012.3 248.6 1010.7 246.8Q1009.1 245.0 1006.1 245.0Q1003.1 245.0 1001.2 247.0Q999.4 249.1 999.4 252.3L999.4 252.3L999.4 267.5Q999.4 269.7 998.2 271.0ZM1042.1 284.1L1042.1 284.1Q1037.2 284.1 1033.4 282.4Q1029.7 280.7 1028.0 278.0L1028.0 278.0Q1027.3 276.8 1027.3 275.5L1027.3 275.5Q1027.3 274.0 1028.4 273.1Q1029.4 272.1 1031.1 272.1L1031.1 272.1Q1032.8 272.1 1034.2 273.4L1034.2 273.4Q1038.0 277.1 1042.1 277.1L1042.1 277.1Q1045.8 277.1 1047.9 275.2Q1050.0 273.4 1050.0 270.2L1050.0 270.2L1050.0 264.8L1049.8 264.8Q1048.7 267.6 1045.9 269.2Q1043.1 270.8 1039.5 270.8L1039.5 270.8Q1033.3 270.8 1029.6 266.4Q1025.9 261.9 1025.9 254.2L1025.9 254.2Q1025.9 246.4 1029.6 241.9Q1033.2 237.5 1039.7 237.5L1039.7 237.5Q1043.2 237.5 1045.9 239.2Q1048.6 240.9 1049.9 243.8L1049.9 243.8L1050.1 243.8L1050.1 242.0Q1050.1 239.7 1051.4 238.6Q1052.6 237.4 1054.7 237.4L1054.7 237.4Q1056.7 237.4 1058.0 238.6Q1059.2 239.7 1059.2 242.0L1059.2 242.0L1059.2 270.2Q1059.2 276.8 1054.7 280.5Q1050.2 284.2 1042.1 284.1ZM1042.6 264.1L1042.6 264.1Q1046.1 264.1 1048.1 261.5Q1050.1 258.9 1050.1 254.4Q1050.1 249.8 1048.1 247.1Q1046.1 244.5 1042.6 244.5L1042.6 244.5Q1039.3 244.5 1037.3 247.1Q1035.3 249.8 1035.3 254.3L1035.3 254.3Q1035.3 258.9 1037.3 261.5Q1039.2 264.1 1042.6 264.1Z M86.2 345.8L86.2 345.8Q83.9 345.8 82.5 344.7Q81.2 343.5 80.4 341.0L80.4 341.0L73.7 317.7Q73.2 316.0 73.2 314.9L73.2 314.9Q73.2 313.2 74.4 312.1Q75.7 311.0 77.6 311.0L77.6 311.0Q81.1 311.0 81.9 314.8L81.9 314.8L86.8 336.5L87.0 336.5L92.2 315.2Q93.1 311.0 97.4 311.0L97.4 311.0Q99.4 311.0 100.7 312.0Q102.0 313.1 102.5 315.2L102.5 315.2L107.7 336.5L107.9 336.5L112.9 314.8Q113.3 312.9 114.3 311.9Q115.4 311.0 117.1 311.0L117.1 311.0Q119 311.0 120.2 312.0Q121.4 313.1 121.4 314.8L121.4 314.8Q121.4 315.9 120.9 317.6L120.9 317.6L114.2 341.0Q113.4 343.5 112.0 344.7Q110.7 345.8 108.3 345.8L108.3 345.8Q105.8 345.8 104.4 344.7Q103 343.5 102.4 341.0L102.4 341.0L97.3 321.5L97.1 321.5L92.1 341.0Q91.5 343.5 90.1 344.7Q88.7 345.8 86.2 345.8ZM133.7 306.1Q132.3 307.5 130.3 307.5Q128.2 307.5 126.8 306.1Q125.4 304.7 125.4 302.8L125.4 302.8Q125.4 300.8 126.8 299.4Q128.2 298.1 130.3 298.1Q132.3 298.1 133.7 299.4Q135.1 300.8 135.1 302.8L135.1 302.8Q135.1 304.7 133.7 306.1ZM133.6 344.5Q132.4 345.8 130.3 345.8Q128.1 345.8 126.9 344.5Q125.7 343.3 125.7 341.1L125.7 341.1L125.7 315.7Q125.7 313.5 126.9 312.2Q128.1 311.0 130.3 311.0Q132.4 311.0 133.6 312.2Q134.8 313.5 134.8 315.7L134.8 315.7L134.8 341.1Q134.8 343.3 133.6 344.5ZM143.3 336.6L143.3 336.6L143.3 318.5L141.6 318.5Q139.9 318.5 139.0 317.6Q138.0 316.7 138.0 315.1Q138.0 313.5 139.0 312.6Q139.9 311.7 141.6 311.7L141.6 311.7L143.3 311.7L143.3 307.9Q143.3 305.7 144.5 304.4Q145.8 303.2 147.9 303.2Q150 303.2 151.2 304.4Q152.4 305.7 152.4 307.9L152.4 307.9L152.4 311.7L155.7 311.7Q157.3 311.7 158.2 312.6Q159.2 313.5 159.2 315.1Q159.2 316.7 158.2 317.6Q157.3 318.5 155.7 318.5L155.7 318.5L152.4 318.5L152.4 334.6Q152.4 336.3 153.1 337.2Q153.8 338.0 155.2 338.1L155.2 338.1L155.8 338.2Q157.6 338.3 158.4 339.1Q159.3 339.9 159.3 341.5L159.3 341.5Q159.3 343.4 157.5 344.5Q155.8 345.5 152.8 345.5L152.8 345.5L152.5 345.5Q143.3 345.5 143.3 336.6ZM171.7 344.6Q170.5 345.8 168.4 345.8Q166.3 345.8 165.1 344.6Q163.8 343.3 163.8 341.1L163.8 341.1L163.8 304.1Q163.8 301.9 165.0 300.6Q166.2 299.4 168.3 299.4L168.3 299.4Q170.4 299.4 171.6 300.6Q172.8 301.8 172.8 304.1L172.8 304.1L172.8 317.6L173 317.6Q174.3 314.4 177.0 312.7Q179.8 311.0 183.5 311.0L183.5 311.0Q189.1 311.0 192.1 314.4Q195.2 317.7 195.2 323.6L195.2 323.6L195.2 341.1Q195.2 343.3 194.0 344.6Q192.7 345.8 190.7 345.8Q188.6 345.8 187.3 344.6Q186.1 343.3 186.1 341.1L186.1 341.1L186.1 325.5Q186.1 322.2 184.5 320.4Q182.9 318.6 179.8 318.6L179.8 318.6Q176.6 318.6 174.8 320.6Q173.0 322.7 173.0 326.0L173.0 326.0L173.0 341.1Q173.0 343.3 171.7 344.6Z M221.8 344.6Q220.7 345.7 218.7 345.7Q216.7 345.7 215.6 344.6Q214.5 343.4 214.5 341.3L214.5 341.3L214.5 305.5Q214.5 302.7 216.1 301.0Q217.7 299.4 220.6 299.4L220.6 299.4Q223.0 299.4 224.5 300.6Q226 301.7 227.0 304.3L227.0 304.3L238.2 332.0L238.5 332.0L249.6 304.3Q250.7 301.7 252.2 300.6Q253.7 299.4 256.2 299.4L256.2 299.4Q259.0 299.4 260.6 301.0Q262.2 302.7 262.2 305.5L262.2 305.5L262.2 341.3Q262.2 343.4 261.1 344.6Q260 345.7 258 345.7Q256 345.7 254.9 344.6Q253.8 343.4 253.8 341.3L253.8 341.3L253.8 314.7L253.6 314.7L242.4 342.0Q241.3 344.9 238.4 344.9L238.4 344.9Q235.4 344.9 234.3 342.0L234.3 342.0L223.1 314.7L222.9 314.7L222.9 341.3Q222.9 343.4 221.8 344.6ZM278.8 345.7L278.8 345.7Q274 345.7 270.8 342.8Q267.6 340.0 267.6 335.5L267.6 335.5Q267.6 331.0 271 328.4Q274.4 325.8 280.7 325.4L280.7 325.4L289.1 324.9L289.1 322.7Q289.1 320.4 287.6 319.1Q286.1 317.7 283.5 317.7L283.5 317.7Q281.4 317.7 280.0 318.5Q278.5 319.3 277 321.3L277 321.3Q275.5 323.0 273.4 323.0L273.4 323.0Q271.7 323.0 270.6 322.0Q269.6 321.0 269.6 319.5L269.6 319.5Q269.6 318.4 270.0 317.4L270.0 317.4Q271.2 314.4 274.9 312.7Q278.7 310.9 283.9 310.9L283.9 310.9Q290.3 310.9 294.2 314.0Q298.1 317.1 298.1 322.1L298.1 322.1L298.1 341.2Q298.1 343.4 296.9 344.6Q295.7 345.8 293.7 345.8L293.7 345.8Q291.8 345.8 290.6 344.8Q289.4 343.7 289.3 341.7L289.3 341.7L289.3 340.0L289.1 340.0Q287.7 342.7 284.9 344.2Q282.1 345.7 278.8 345.7ZM281.8 339.1L281.8 339.1Q284.9 339.1 287 337.3Q289.1 335.6 289.1 332.9L289.1 332.9L289.1 330.4L282.1 330.9Q279.5 331.1 278.1 332.2Q276.7 333.2 276.7 335.0L276.7 335.0Q276.7 336.9 278.1 338.0Q279.5 339.1 281.8 339.1ZM319.3 345.9L319.3 345.9Q311.7 345.9 307.2 341.2Q302.8 336.5 302.8 328.4L302.8 328.4Q302.8 320.4 307.2 315.7Q311.6 310.9 319.2 310.9L319.2 310.9Q324.2 310.9 328.1 313.1Q331.9 315.3 333.3 318.9L333.3 318.9Q333.8 320.2 333.8 321.2L333.8 321.2Q333.8 322.8 332.7 323.8Q331.6 324.7 329.9 324.7L329.9 324.7Q328.6 324.7 327.7 324.2Q326.8 323.6 326.1 322.4L326.1 322.4Q323.7 318.1 319.5 318.1L319.5 318.1Q316 318.1 314 320.8Q312 323.5 312 328.4L312 328.4Q312 333.3 314.0 336.0Q316.0 338.7 319.4 338.7L319.4 338.7Q323.6 338.7 326.0 334.8L326.0 334.8Q326.9 333.3 327.8 332.7Q328.7 332.1 330.1 332.1L330.1 332.1Q331.8 332.1 332.9 333.1Q334.0 334.1 334.0 335.7L334.0 335.7Q334.0 336.8 333.4 338.1L333.4 338.1Q331.9 341.6 328.0 343.7Q324.0 345.9 319.3 345.9ZM343.4 345.8L343.4 345.8Q341.3 345.8 340.1 344.6Q338.8 343.3 338.8 341.1L338.8 341.1L338.8 315.6Q338.8 313.4 340.0 312.2Q341.3 311.0 343.3 311.0L343.3 311.0Q345.2 311.0 346.4 312.2Q347.6 313.4 347.6 315.6L347.6 315.6L347.6 317.7L347.8 317.7Q348.4 314.7 350.3 312.9Q352.2 311.1 354.7 311.1L354.7 311.1Q356.6 311.1 357.6 312.0L357.6 312.0Q358.9 313.0 358.9 315.3L358.9 315.3Q358.9 317.5 357.6 318.6L357.6 318.6Q356.2 319.8 353.6 319.8L353.6 319.8Q350.6 319.8 349.3 321.4Q348.0 323.1 348.0 326.2L348.0 326.2L348.0 341.1Q348.0 343.3 346.8 344.6Q345.5 345.8 343.4 345.8ZM389.6 341.2Q385.2 345.9 377.5 345.9Q369.8 345.9 365.4 341.2Q360.9 336.6 360.9 328.4L360.9 328.4Q360.9 320.3 365.4 315.6Q369.9 310.9 377.5 310.9L377.5 310.9Q385.1 310.9 389.6 315.6Q394.1 320.3 394.1 328.4L394.1 328.4Q394.1 336.6 389.6 341.2ZM377.5 338.9L377.5 338.9Q380.9 338.9 382.8 336.2Q384.8 333.4 384.8 328.4L384.8 328.4Q384.8 323.5 382.8 320.7Q380.9 317.9 377.5 317.9Q374.1 317.9 372.1 320.7Q370.2 323.5 370.2 328.4L370.2 328.4Q370.2 333.4 372.1 336.2Q374.1 338.9 377.5 338.9Z M415.2 345.7L415.2 345.7Q413.0 345.7 411.7 344.5Q410.4 343.3 410.4 341.3L410.4 341.3Q410.4 340.1 411.1 338.3L411.1 338.3L423.4 304.8Q424.4 302.0 426.1 300.7Q427.8 299.4 430.5 299.4L430.5 299.4Q433.2 299.4 435.0 300.7Q436.7 302.0 437.7 304.7L437.7 304.7L450.1 338.3Q450.7 340.0 450.7 341.3L450.7 341.3Q450.7 343.2 449.3 344.5Q448 345.7 445.9 345.7L445.9 345.7Q443.9 345.7 442.8 344.8Q441.7 343.8 441.0 341.6L441.0 341.6L438.7 334.5L422.4 334.5L420 341.5Q419.3 343.7 418.2 344.7Q417.1 345.7 415.2 345.7ZM430.3 308.7L424.4 327.2L436.5 327.2L430.5 308.7L430.3 308.7ZM470.9 345.9L470.9 345.9Q463.3 345.9 458.8 341.2Q454.4 336.5 454.4 328.4L454.4 328.4Q454.4 320.4 458.8 315.7Q463.3 310.9 470.8 310.9L470.8 310.9Q475.8 310.9 479.7 313.1Q483.6 315.3 484.9 318.9L484.9 318.9Q485.4 320.2 485.4 321.2L485.4 321.2Q485.4 322.8 484.3 323.8Q483.2 324.7 481.5 324.7L481.5 324.7Q480.2 324.7 479.3 324.2Q478.4 323.6 477.7 322.4L477.7 322.4Q475.3 318.1 471.1 318.1L471.1 318.1Q467.6 318.1 465.6 320.8Q463.6 323.5 463.6 328.4L463.6 328.4Q463.6 333.3 465.6 336.0Q467.6 338.7 471.0 338.7L471.0 338.7Q475.3 338.7 477.6 334.8L477.6 334.8Q478.5 333.3 479.4 332.7Q480.3 332.1 481.8 332.1L481.8 332.1Q483.4 332.1 484.5 333.1Q485.6 334.1 485.6 335.7L485.6 335.7Q485.6 336.8 485 338.1L485 338.1Q483.5 341.6 479.6 343.7Q475.7 345.9 470.9 345.9ZM492.9 336.6L492.9 336.6L492.9 318.5L491.2 318.5Q489.5 318.5 488.6 317.6Q487.6 316.7 487.6 315.1Q487.6 313.5 488.6 312.6Q489.5 311.7 491.2 311.7L491.2 311.7L492.9 311.7L492.9 307.9Q492.9 305.7 494.1 304.4Q495.3 303.2 497.5 303.2Q499.6 303.2 500.8 304.4Q502.0 305.7 502.0 307.9L502.0 307.9L502.0 311.7L505.3 311.7Q506.9 311.7 507.8 312.6Q508.8 313.5 508.8 315.1Q508.8 316.7 507.8 317.6Q506.9 318.5 505.3 318.5L505.3 318.5L502.0 318.5L502.0 334.6Q502.0 336.3 502.7 337.2Q503.3 338.0 504.8 338.1L504.8 338.1L505.4 338.2Q507.2 338.3 508.0 339.1Q508.9 339.9 508.9 341.5L508.9 341.5Q508.9 343.4 507.1 344.5Q505.4 345.5 502.4 345.5L502.4 345.5L502.1 345.5Q492.9 345.5 492.9 336.6ZM521.4 306.1Q520 307.5 517.9 307.5Q515.9 307.5 514.5 306.1Q513.1 304.7 513.1 302.8L513.1 302.8Q513.1 300.8 514.5 299.4Q515.9 298.1 517.9 298.1Q520 298.1 521.4 299.4Q522.8 300.8 522.8 302.8L522.8 302.8Q522.8 304.7 521.4 306.1ZM521.3 344.5Q520.1 345.8 517.9 345.8Q515.8 345.8 514.6 344.5Q513.4 343.3 513.4 341.1L513.4 341.1L513.4 315.7Q513.4 313.5 514.6 312.2Q515.8 311.0 517.9 311.0Q520.1 311.0 521.3 312.2Q522.5 313.5 522.5 315.7L522.5 315.7L522.5 341.1Q522.5 343.3 521.3 344.5ZM556.1 341.2Q551.6 345.9 543.9 345.9Q536.3 345.9 531.8 341.2Q527.3 336.6 527.3 328.4L527.3 328.4Q527.3 320.3 531.9 315.6Q536.4 310.9 543.9 310.9L543.9 310.9Q551.5 310.9 556.0 315.6Q560.5 320.3 560.5 328.4L560.5 328.4Q560.5 336.6 556.1 341.2ZM543.9 338.9L543.9 338.9Q547.3 338.9 549.3 336.2Q551.3 333.4 551.3 328.4L551.3 328.4Q551.3 323.5 549.3 320.7Q547.3 317.9 543.9 317.9Q540.6 317.9 538.6 320.7Q536.6 323.5 536.6 328.4L536.6 328.4Q536.6 333.4 538.6 336.2Q540.5 338.9 543.9 338.9ZM573.1 344.6Q571.8 345.8 569.8 345.8Q567.7 345.8 566.5 344.6Q565.2 343.3 565.2 341.1L565.2 341.1L565.2 315.6Q565.2 313.4 566.4 312.2Q567.6 311.0 569.6 311.0Q571.7 311.0 572.9 312.2Q574.2 313.5 574.2 315.6L574.2 315.6L574.2 317.5L574.4 317.5Q577.1 311.0 584.7 311.0L584.7 311.0Q590.3 311.0 593.3 314.3Q596.3 317.7 596.3 323.6L596.3 323.6L596.3 341.1Q596.3 343.3 595.1 344.6Q593.8 345.8 591.8 345.8Q589.7 345.8 588.4 344.6Q587.2 343.3 587.2 341.1L587.2 341.1L587.2 325.5Q587.2 322.2 585.6 320.4Q584.1 318.6 581.0 318.6Q578 318.6 576.2 320.6Q574.3 322.7 574.3 325.9L574.3 325.9L574.3 341.1Q574.3 343.3 573.1 344.6ZM615.8 345.9L615.8 345.9Q610.1 345.9 606.3 344.0Q602.6 342.2 601.3 339.2L601.3 339.2Q601 338.2 601 337.5L601 337.5Q601 335.9 602.0 335.0Q603.1 334.0 604.7 334.0L604.7 334.0Q606.8 334.0 608.7 336.1L608.7 336.1Q610.0 337.8 611.7 338.7Q613.4 339.5 616.0 339.5L616.0 339.5Q618.5 339.5 620.0 338.5Q621.4 337.5 621.4 335.9L621.4 335.9Q621.4 334.5 620.4 333.7Q619.4 332.9 617 332.4L617 332.4L611.4 331.2Q606.5 330.1 604.0 327.7Q601.5 325.2 601.5 321.5L601.5 321.5Q601.5 316.7 605.4 313.8Q609.2 310.9 615.7 310.9L615.7 310.9Q620.8 310.9 624.4 312.9Q628 314.9 628.8 317.9L628.8 317.9Q629.1 318.7 629.1 319.2L629.1 319.2Q629.1 320.7 628.2 321.5Q627.3 322.3 625.6 322.3L625.6 322.3Q623.4 322.3 622.3 320.9L622.3 320.9Q620.9 319.2 619.4 318.3Q617.8 317.3 615.6 317.3L615.6 317.3Q613.3 317.3 611.8 318.3Q610.3 319.3 610.3 321.0L610.3 321.0Q610.3 322.3 611.4 323.2Q612.5 324.1 615.0 324.6L615.0 324.6L620.5 325.8Q625.8 326.9 628.2 329.0Q630.6 331.2 630.6 334.9L630.6 334.9Q630.6 339.9 626.5 342.9Q622.4 345.9 615.8 345.9Z " clip-path="url(#satori_cp-id-0)" mask="url(#satori_om-id-0)"/><defs><clipPath id="satori_bc-id-0-1" clip-path="url(#satori_cp-id-0)"><rect x="0" y="509" width="1200" height="121"/></clipPath></defs><mask id="satori_om-id-0-1"><rect x="0" y="510" width="1200" height="120" fill="#fff" mask="url(#satori_om-id-0)"/><path width="1200" height="121" fill="none" stroke="#000" stroke-width="2" d="M0,509 A0,0 0 0 1 0,509 h1200 A0,0 0 0 1 1200,509"/></mask><path width="1200" height="121" clip-path="url(#satori_bc-id-0-1)" fill="none" stroke="rgba(0,0,0,0.08)" stroke-width="2" d="M0,509 A0,0 0 0 1 0,509 h1200 A0,0 0 0 1 1200,509"/><mask id="satori_om-id-0-1-0"><rect x="48" y="538" width="228" height="64" fill="#fff" mask="url(#satori_om-id-0)"/></mask><mask id="satori_om-id-0-1-0-0"><rect x="48" y="538" width="72" height="64" fill="#fff" mask="url(#satori_om-id-0)"/></mask><clipPath id="satori_cp-id-0-1-0-0-0" clip-path="url(#satori_cp-id-0)"><rect x="48" y="538" width="72" height="64"/></clipPath><mask id="satori_om-id-0-1-0-0-0"><rect x="48" y="538" width="72" height="64" fill="#fff" mask="url(#satori_om-id-0)"/></mask><image x="48" y="538" width="72" height="64" href="data:image/svg+xml;utf8,%3Csvg  xmlns=%22http://www.w3.org/2000/svg%22 width=%2273.60461760461762%22 height=%2264%22 viewBox=%220 0 797 693%22%3E%3Cg transform=%22matrix(1,0,0,1,-345,-96.5)%22%3E%3Cpath d=%22M756.942,197.15L756.942,474C701.751,474 656.942,518.808 656.942,574C656.942,629.192 701.751,674 756.942,674L756.942,777L495.122,777C443.175,777 401,734.825 401,682.878L401,614L364.755,614C353.852,614 345,605.148 345,594.245L345,436.814C345,425.878 353.878,417 364.814,417L401,417L401,365.122C401,313.175 443.175,271 495.122,271L715.058,271L715.058,197.15C696.492,189.056 683.5,170.533 683.5,149C683.5,120.024 707.024,96.5 736,96.5C764.976,96.5 788.5,120.024 788.5,149C788.5,170.533 775.508,189.056 756.942,197.15ZM559,388C520.918,388 490,418.918 490,457C490,495.082 520.918,526 559,526C597.082,526 628,495.082 628,457C628,418.918 597.082,388 559,388Z%22 fill=%22%23ad47ff%22%3E%3C/path%3E%3Cg transform=%22matrix(-1,1.22465e-16,-1.22465e-16,-1,1486.06,1043)%22%3E%3Cpath d=%22M401,417L401,348.122C401,296.175 443.175,254 495.122,254L705.058,254L705.058,357C760.249,357 805.058,401.808 805.058,457C805.058,512.192 760.249,557 705.058,557L705.058,760L495.122,760C443.175,760 401,717.825 401,665.878L401,614L364.755,614C353.852,614 345,605.148 345,594.245L345,436.814C345,425.878 353.878,417 364.814,417L401,417ZM552,643C590.082,643 621,612.082 621,574C621,535.918 590.082,505 552,505C513.918,505 483,535.918 483,574C483,612.082 513.918,643 552,643Z%22 fill=%22%2300d5bd%22%3E%3C/path%3E%3C/g%3E%3C/g%3E%3C/svg%3E" preserveAspectRatio="none" clip-path="url(#satori_cp-id-0-1-0-0-0)" mask="url(#satori_om-id-0-1-0-0-0)"/><mask id="satori_om-id-0-1-0-0-0-0"><rect x="48" y="538" width="0" height="64" fill="#fff" mask="url(#satori_om-id-0)"/></mask><mask id="satori_om-id-0-1-0-0-0-0-0"><rect x="48" y="538" width="0" height="64" fill="#fff" mask="url(#satori_om-id-0)"/></mask><mask id="satori_om-id-0-1-0-0-0-0-1"><rect x="48" y="538" width="0" height="64" fill="#fff" mask="url(#satori_om-id-0)"/></mask><mask id="satori_om-id-0-1-0-0-0-0-1-0"><rect x="48" y="538" width="0" height="64" fill="#fff" mask="url(#satori_om-id-0)"/></mask><mask id="satori_om-id-0-1-0-1"><rect x="138" y="540" width="138" height="60" fill="#fff" mask="url(#satori_om-id-0)"/></mask><mask id="satori_om-id-0-1-0-1-0"><rect x="138" y="540" width="138" height="36" fill="#fff" mask="url(#satori_om-id-0)"/></mask><path fill="#0f172a" d="M150.7 571.2L150.7 571.2Q145.9 571.2 143.0 568.6Q140.1 566.1 140.1 561.8L140.1 561.8L140.1 547.9Q140.1 546.5 140.8 545.8Q141.5 545.1 142.8 545.1Q144.0 545.1 144.7 545.8Q145.4 546.5 145.4 547.9L145.4 547.9L145.4 561.3Q145.4 563.8 146.8 565.2Q148.2 566.7 150.7 566.7L150.7 566.7Q153.3 566.7 154.7 565.2Q156.1 563.8 156.1 561.3L156.1 561.3L156.1 547.9Q156.1 546.5 156.8 545.8Q157.5 545.1 158.7 545.1Q160.0 545.1 160.7 545.8Q161.4 546.5 161.4 547.9L161.4 547.9L161.4 561.8Q161.4 566.1 158.5 568.6Q155.6 571.2 150.7 571.2ZM170.2 570.4Q169.5 571.2 168.2 571.2Q167.0 571.2 166.3 570.4Q165.6 569.7 165.6 568.4L165.6 568.4L165.6 548.2Q165.6 546.9 166.3 546.2Q167.0 545.4 168.2 545.4L168.2 545.4L176.0 545.4Q180.3 545.4 182.7 547.6Q185.1 549.7 185.1 553.5L185.1 553.5Q185.1 555.9 184.0 557.8Q182.9 559.7 180.8 560.6L180.8 560.6L184.4 566.9Q185.0 567.9 185.0 568.7L185.0 568.7Q185.0 569.8 184.2 570.5Q183.5 571.2 182.3 571.2L182.3 571.2Q181.4 571.2 180.8 570.8Q180.3 570.3 179.6 569.2L179.6 569.2L175.4 561.5L170.9 561.5L170.9 568.4Q170.9 569.7 170.2 570.4ZM170.9 549.6L170.9 557.7L175.5 557.7Q177.5 557.7 178.6 556.6Q179.7 555.5 179.7 553.6L179.7 553.6Q179.7 551.8 178.5 550.7Q177.4 549.6 175.4 549.6L175.4 549.6L170.9 549.6ZM198.1 562.7L190.8 562.7Q189.7 562.7 189.1 562.1Q188.4 561.5 188.4 560.5Q188.4 559.4 189.1 558.8Q189.7 558.2 190.8 558.2L190.8 558.2L198.1 558.2Q199.2 558.2 199.9 558.8Q200.6 559.4 200.6 560.5Q200.6 561.5 199.9 562.1Q199.2 562.7 198.1 562.7L198.1 562.7ZM209.1 570.4Q208.4 571.2 207.2 571.2Q205.9 571.2 205.2 570.4Q204.5 569.7 204.5 568.4L204.5 568.4L204.5 548.2Q204.5 546.9 205.2 546.2Q205.9 545.4 207.2 545.4L207.2 545.4L214.9 545.4Q219.3 545.4 221.7 547.6Q224.1 549.7 224.1 553.5L224.1 553.5Q224.1 555.9 223.0 557.8Q221.8 559.7 219.7 560.6L219.7 560.6L223.4 566.9Q224.0 567.9 224.0 568.7L224.0 568.7Q224.0 569.8 223.2 570.5Q222.4 571.2 221.3 571.2L221.3 571.2Q220.3 571.2 219.8 570.8Q219.2 570.3 218.6 569.2L218.6 569.2L214.4 561.5L209.8 561.5L209.8 568.4Q209.8 569.7 209.1 570.4ZM209.8 549.6L209.8 557.7L214.4 557.7Q216.4 557.7 217.5 556.6Q218.6 555.5 218.6 553.6L218.6 553.6Q218.6 551.8 217.5 550.7Q216.3 549.6 214.4 549.6L214.4 549.6L209.8 549.6ZM229.3 571.1L229.3 571.1Q228.0 571.1 227.3 570.5Q226.6 569.8 226.6 568.6L226.6 568.6Q226.6 567.9 226.9 566.9L226.9 566.9L233.9 548.1Q234.4 546.5 235.4 545.8Q236.3 545.1 237.8 545.1L237.8 545.1Q239.4 545.1 240.4 545.8Q241.3 546.5 241.9 548.1L241.9 548.1L248.9 566.9Q249.2 567.9 249.2 568.6L249.2 568.6Q249.2 569.7 248.5 570.4Q247.7 571.1 246.5 571.1L246.5 571.1Q245.4 571.1 244.8 570.6Q244.1 570.0 243.8 568.8L243.8 568.8L242.4 564.8L233.3 564.8L232.0 568.7Q231.6 570.0 231.0 570.6Q230.3 571.1 229.3 571.1ZM237.7 550.3L234.5 560.7L241.2 560.7L237.9 550.3L237.7 550.3ZM262.1 570.8L255.1 570.8Q253.8 570.8 253.1 570.1Q252.4 569.3 252.4 568.0L252.4 568.0L252.4 548.2Q252.4 546.9 253.1 546.2Q253.8 545.4 255.1 545.4L255.1 545.4L262.1 545.4Q267.8 545.4 271.0 548.7Q274.2 552.0 274.2 558.0L274.2 558.0Q274.2 564.0 271.0 567.4Q267.8 570.8 262.1 570.8L262.1 570.8ZM257.7 549.8L257.7 566.4L261.5 566.4Q265.0 566.4 266.9 564.3Q268.8 562.1 268.8 558.0L268.8 558.0Q268.8 554.1 266.9 551.9Q265.0 549.8 261.5 549.8L261.5 549.8L257.7 549.8Z " clip-path="url(#satori_cp-id-0)" mask="url(#satori_om-id-0)"/><mask id="satori_om-id-0-1-0-1-1"><rect x="138" y="576" width="138" height="24" fill="#fff" mask="url(#satori_om-id-0)"/></mask><path fill="#334155" d="M145.0 595.3L145.0 595.3Q142.4 595.3 140.8 593.8Q139.2 592.4 139.2 590.1L139.2 590.1L139.2 582.1Q139.2 581.5 139.6 581.1Q139.9 580.8 140.5 580.8L140.5 580.8Q141.1 580.8 141.4 581.1Q141.8 581.5 141.8 582.1L141.8 582.1L141.8 589.8Q141.8 591.3 142.6 592.2Q143.5 593.1 145.0 593.1Q146.6 593.1 147.4 592.2Q148.3 591.3 148.3 589.8L148.3 589.8L148.3 582.1Q148.3 581.5 148.6 581.1Q149.0 580.8 149.6 580.8L149.6 580.8Q150.2 580.8 150.5 581.1Q150.8 581.5 150.8 582.1L150.8 582.1L150.8 590.1Q150.8 592.4 149.3 593.8Q147.7 595.3 145.0 595.3ZM155.5 594.9Q155.2 595.2 154.6 595.2Q154.0 595.2 153.6 594.9Q153.3 594.5 153.3 593.9L153.3 593.9L153.3 582.3Q153.3 581.6 153.6 581.3Q154.0 581.0 154.6 581.0L154.6 581.0L158.9 581.0Q161.2 581.0 162.5 582.1Q163.8 583.3 163.8 585.3L163.8 585.3Q163.8 586.7 163.1 587.8Q162.4 588.8 161.2 589.3L161.2 589.3L163.4 593.2Q163.7 593.7 163.7 594.1L163.7 594.1Q163.7 594.6 163.4 594.9Q163.0 595.2 162.4 595.2L162.4 595.2Q162.0 595.2 161.7 595.0Q161.5 594.8 161.2 594.3L161.2 594.3L158.7 589.7L155.8 589.7L155.8 593.9Q155.8 594.5 155.5 594.9ZM155.8 583.0L155.8 587.8L158.7 587.8Q159.9 587.8 160.5 587.2Q161.2 586.5 161.2 585.4L161.2 585.4Q161.2 584.3 160.5 583.6Q159.8 583.0 158.6 583.0L158.6 583.0L155.8 583.0ZM171.1 590.4L166.7 590.4Q166.2 590.4 165.9 590.1Q165.6 589.8 165.6 589.3Q165.6 588.8 165.9 588.5Q166.2 588.2 166.7 588.2L166.7 588.2L171.1 588.2Q171.7 588.2 172.0 588.5Q172.3 588.8 172.3 589.3Q172.3 589.8 172.0 590.1Q171.7 590.4 171.1 590.4L171.1 590.4ZM176.7 594.9Q176.4 595.2 175.8 595.2Q175.2 595.2 174.9 594.9Q174.6 594.5 174.6 593.9L174.6 593.9L174.6 582.3Q174.6 581.6 174.9 581.3Q175.2 581.0 175.8 581.0L175.8 581.0L180.1 581.0Q182.4 581.0 183.7 582.1Q185.0 583.3 185.0 585.3L185.0 585.3Q185.0 586.7 184.3 587.8Q183.7 588.8 182.5 589.3L182.5 589.3L184.7 593.2Q185.0 593.7 185.0 594.1L185.0 594.1Q185.0 594.6 184.6 594.9Q184.2 595.2 183.7 595.2L183.7 595.2Q183.2 595.2 183.0 595.0Q182.7 594.8 182.4 594.3L182.4 594.3L179.9 589.7L177.1 589.7L177.1 593.9Q177.1 594.5 176.7 594.9ZM177.1 583.0L177.1 587.8L179.9 587.8Q181.1 587.8 181.8 587.2Q182.4 586.5 182.4 585.4L182.4 585.4Q182.4 584.3 181.8 583.6Q181.1 583.0 179.9 583.0L179.9 583.0L177.1 583.0ZM187.7 595.2L187.7 595.2Q187.1 595.2 186.7 594.9Q186.4 594.6 186.4 594.0L186.4 594.0Q186.4 593.7 186.6 593.3L186.6 593.3L190.7 582.2Q190.9 581.4 191.4 581.1Q191.8 580.8 192.5 580.8L192.5 580.8Q193.2 580.8 193.6 581.1Q194.1 581.4 194.3 582.1L194.3 582.1L198.4 593.3Q198.6 593.7 198.6 594.0L198.6 594.0Q198.6 594.6 198.2 594.9Q197.9 595.2 197.3 595.2L197.3 595.2Q196.8 595.2 196.5 595.0Q196.2 594.7 196.0 594.1L196.0 594.1L195.1 591.4L189.9 591.4L188.9 594.1Q188.8 594.7 188.5 595.0Q188.2 595.2 187.7 595.2ZM192.4 583.4L190.5 589.5L194.5 589.5L192.5 583.4L192.4 583.4ZM205.6 595.0L201.7 595.0Q201.1 595.0 200.8 594.7Q200.4 594.3 200.4 593.7L200.4 593.7L200.4 582.3Q200.4 581.6 200.8 581.3Q201.1 581.0 201.7 581.0L201.7 581.0L205.6 581.0Q208.7 581.0 210.5 582.8Q212.3 584.6 212.3 588.0L212.3 588.0Q212.3 591.3 210.5 593.2Q208.7 595.0 205.6 595.0L205.6 595.0ZM202.9 583.1L202.9 592.9L205.3 592.9Q207.4 592.9 208.6 591.6Q209.7 590.4 209.7 588.0L209.7 588.0Q209.7 585.6 208.6 584.3Q207.4 583.1 205.3 583.1L205.3 583.1L202.9 583.1Z M227.0 595.0L219.2 595.0Q218.7 595.0 218.3 594.8Q218.0 594.5 218.0 594.0L218.0 594.0Q218.0 593.6 218.2 593.3Q218.3 593.1 218.7 592.7L218.7 592.7L223.0 588.4Q224.4 587.1 224.8 586.4Q225.3 585.7 225.3 584.9L225.3 584.9Q225.3 583.9 224.6 583.3Q224.0 582.7 223.0 582.7L223.0 582.7Q221.1 582.7 220.3 584.6L220.3 584.6Q220.1 585.0 219.9 585.2Q219.6 585.4 219.2 585.4L219.2 585.4Q218.7 585.4 218.4 585.1Q218.1 584.8 218.1 584.3L218.1 584.3Q218.1 584.1 218.2 583.8L218.2 583.8Q218.3 583.2 218.7 582.7Q219.1 582.1 219.7 581.7Q220.3 581.2 221.1 580.9Q222.0 580.7 223.0 580.7L223.0 580.7Q225.1 580.7 226.4 581.8Q227.8 582.9 227.8 584.7L227.8 584.7Q227.8 585.9 227.1 586.9Q226.4 588.0 224.6 589.8L224.6 589.8L221.4 592.9L221.4 593.0L227.0 593.0Q227.5 593.0 227.8 593.3Q228.1 593.5 228.1 594.0Q228.1 594.5 227.8 594.8Q227.5 595.0 227.0 595.0L227.0 595.0ZM235.2 595.3L235.2 595.3Q232.6 595.3 231.1 593.4Q229.7 591.4 229.7 588.0L229.7 588.0Q229.7 584.6 231.1 582.6Q232.6 580.7 235.2 580.7L235.2 580.7Q237.8 580.7 239.3 582.6Q240.7 584.6 240.7 588.0L240.7 588.0Q240.7 591.4 239.3 593.3Q237.8 595.3 235.2 595.3ZM235.2 593.3L235.2 593.3Q236.6 593.3 237.4 591.9Q238.2 590.5 238.2 588.0L238.2 588.0Q238.2 585.5 237.4 584.1Q236.6 582.7 235.2 582.7Q233.8 582.7 233.0 584.1Q232.2 585.5 232.2 588.0L232.2 588.0Q232.2 590.5 233.0 591.9Q233.8 593.3 235.2 593.3ZM251.6 595.0L243.8 595.0Q243.2 595.0 242.9 594.8Q242.6 594.5 242.6 594.0L242.6 594.0Q242.6 593.6 242.7 593.3Q242.9 593.1 243.3 592.7L243.3 592.7L247.6 588.4Q248.9 587.1 249.4 586.4Q249.8 585.7 249.8 584.9L249.8 584.9Q249.8 583.9 249.2 583.3Q248.5 582.7 247.5 582.7L247.5 582.7Q245.6 582.7 244.9 584.6L244.9 584.6Q244.7 585.0 244.4 585.2Q244.2 585.4 243.7 585.4L243.7 585.4Q243.2 585.4 242.9 585.1Q242.6 584.8 242.6 584.3L242.6 584.3Q242.6 584.1 242.7 583.8L242.7 583.8Q242.9 583.2 243.2 582.7Q243.6 582.1 244.2 581.7Q244.8 581.2 245.7 580.9Q246.5 580.7 247.5 580.7L247.5 580.7Q249.6 580.7 251.0 581.8Q252.3 582.9 252.3 584.7L252.3 584.7Q252.3 585.9 251.6 586.9Q251.0 588.0 249.2 589.8L249.2 589.8L245.9 592.9L245.9 593.0L251.6 593.0Q252.1 593.0 252.4 593.3Q252.6 593.5 252.6 594.0Q252.6 594.5 252.4 594.8Q252.1 595.0 251.6 595.0L251.6 595.0ZM259.6 595.3L259.6 595.3Q258.0 595.3 256.7 594.6Q255.4 593.9 254.9 592.8L254.9 592.8Q254.6 592.3 254.6 591.8L254.6 591.8Q254.6 591.3 254.9 591.0Q255.2 590.7 255.7 590.7L255.7 590.7Q256.1 590.7 256.4 590.9Q256.6 591.1 256.8 591.5L256.8 591.5Q257.2 592.3 257.9 592.8Q258.6 593.3 259.6 593.3L259.6 593.3Q260.9 593.3 261.7 592.5Q262.5 591.7 262.5 590.4L262.5 590.4Q262.5 589.2 261.7 588.4Q260.9 587.7 259.6 587.7L259.6 587.7Q258.3 587.7 257.4 588.5L257.4 588.5Q257.0 589.0 256.7 589.1Q256.4 589.3 256.0 589.3L256.0 589.3Q255.4 589.3 255.1 588.9Q254.8 588.5 254.8 588.0L254.8 588.0Q254.8 587.9 254.8 587.8L254.8 587.8L255.3 582.5Q255.4 581.7 255.8 581.3Q256.2 581.0 257.0 581.0L257.0 581.0L263.1 581.0Q263.6 581.0 263.9 581.2Q264.2 581.5 264.2 582.0L264.2 582.0Q264.2 582.4 263.9 582.7Q263.6 583.0 263.1 583.0L263.1 583.0L257.4 583.0L257.1 587.2L257.1 587.2Q257.6 586.5 258.4 586.1Q259.2 585.8 260.3 585.8L260.3 585.8Q262.3 585.8 263.6 587.0Q264.9 588.3 264.9 590.4L264.9 590.4Q264.9 592.6 263.4 593.9Q261.9 595.3 259.6 595.3Z " clip-path="url(#satori_cp-id-0)" mask="url(#satori_om-id-0)"/><mask id="satori_om-id-0-1-1"><rect x="964" y="557" width="188" height="26" fill="#fff" mask="url(#satori_om-id-0)"/></mask><path fill="#334155" d="M967.4 577.8Q967.1 578.2 966.5 578.2Q965.9 578.2 965.5 577.8Q965.2 577.5 965.2 576.8L965.2 576.8L965.2 563.6Q965.2 563.0 965.5 562.6Q965.9 562.2 966.5 562.2Q967.1 562.2 967.5 562.6Q967.8 563.0 967.8 563.6L967.8 563.6L967.8 568.5L967.9 568.5Q968.4 567.5 969.3 566.9Q970.3 566.4 971.5 566.4L971.5 566.4Q973.6 566.4 974.9 568.0Q976.2 569.5 976.2 572.3L976.2 572.3Q976.2 575.0 974.9 576.6Q973.6 578.1 971.5 578.1L971.5 578.1Q970.2 578.1 969.3 577.6Q968.4 577.0 967.8 576.0L967.8 576.0L967.8 576.0L967.8 576.8Q967.8 577.5 967.4 577.8ZM970.6 575.9L970.6 575.9Q971.9 575.9 972.7 574.9Q973.4 574.0 973.4 572.3Q973.4 570.6 972.7 569.6Q971.9 568.6 970.6 568.6L970.6 568.6Q969.4 568.6 968.6 569.6Q967.8 570.6 967.8 572.3L967.8 572.3Q967.8 573.9 968.6 574.9Q969.4 575.9 970.6 575.9ZM979.5 582.2L979.5 582.2Q978.6 582.2 978.1 581.9Q977.7 581.5 977.7 580.9L977.7 580.9Q977.7 580.5 977.9 580.3Q978.2 580.0 978.7 580.0L978.7 580.0Q978.8 580.0 979.0 580.0Q979.1 580.0 979.3 580.0L979.3 580.0Q980.3 580.0 980.9 578.7L980.9 578.7L981.1 578.2L977.3 568.3Q977.2 567.9 977.2 567.6L977.2 567.6Q977.2 567.0 977.6 566.7Q978.0 566.3 978.6 566.3L978.6 566.3Q979.1 566.3 979.4 566.6Q979.7 566.8 979.8 567.4L979.8 567.4L982.6 575.7L982.6 575.7L985.3 567.4Q985.5 566.8 985.8 566.6Q986.1 566.3 986.6 566.3L986.6 566.3Q987.2 566.3 987.5 566.7Q987.9 567.0 987.9 567.5L987.9 567.5Q987.9 567.9 987.8 568.3L987.8 568.3L984.0 578.4Q983.2 580.5 982.2 581.3Q981.2 582.2 979.5 582.2Z M1000.8 578.2L1000.8 578.2Q997.4 578.2 995.5 576.1Q993.5 573.9 993.5 570.2L993.5 570.2Q993.5 566.5 995.5 564.3Q997.4 562.2 1000.7 562.2L1000.7 562.2Q1002.9 562.2 1004.5 563.1Q1006.1 564.1 1006.9 565.8L1006.9 565.8Q1007.1 566.3 1007.1 566.8L1007.1 566.8Q1007.1 567.4 1006.8 567.7Q1006.5 568.1 1005.9 568.1L1005.9 568.1Q1005.0 568.1 1004.5 567.1L1004.5 567.1Q1004.0 565.8 1003.0 565.2Q1002.0 564.5 1000.7 564.5L1000.7 564.5Q998.7 564.5 997.5 566.1Q996.4 567.6 996.4 570.2L996.4 570.2Q996.4 572.8 997.5 574.3Q998.7 575.9 1000.7 575.9L1000.7 575.9Q1003.5 575.9 1004.6 573.4L1004.6 573.4Q1004.8 573.0 1005.1 572.8Q1005.4 572.6 1005.8 572.6L1005.8 572.6Q1006.4 572.6 1006.7 572.9Q1007.1 573.2 1007.1 573.8L1007.1 573.8Q1007.1 574.3 1006.9 574.8L1006.9 574.8Q1006.1 576.4 1004.5 577.3Q1002.9 578.2 1000.8 578.2ZM1018.3 576.6Q1016.8 578.2 1014.3 578.2Q1011.7 578.2 1010.3 576.6Q1008.8 575.0 1008.8 572.3L1008.8 572.3Q1008.8 569.5 1010.3 567.9Q1011.8 566.3 1014.3 566.3L1014.3 566.3Q1016.8 566.3 1018.3 567.9Q1019.8 569.5 1019.8 572.3L1019.8 572.3Q1019.8 575.0 1018.3 576.6ZM1012.2 575.1Q1013.0 576.1 1014.3 576.1Q1015.6 576.1 1016.3 575.1Q1017.1 574.1 1017.1 572.3L1017.1 572.3Q1017.1 570.5 1016.3 569.5Q1015.6 568.5 1014.3 568.5L1014.3 568.5Q1013.0 568.5 1012.2 569.5Q1011.5 570.5 1011.5 572.3L1011.5 572.3Q1011.5 574.1 1012.2 575.1ZM1023.8 577.8Q1023.4 578.2 1022.8 578.2Q1022.2 578.2 1021.9 577.8Q1021.5 577.4 1021.5 576.8L1021.5 576.8L1021.5 567.7Q1021.5 567.1 1021.8 566.7Q1022.2 566.3 1022.8 566.3Q1023.4 566.3 1023.7 566.7Q1024.1 567.1 1024.1 567.7L1024.1 567.7L1024.1 568.5L1024.2 568.5Q1025.1 566.3 1027.7 566.3L1027.7 566.3Q1029.6 566.3 1030.6 567.5Q1031.6 568.6 1031.6 570.6L1031.6 570.6L1031.6 576.8Q1031.6 577.4 1031.3 577.8Q1030.9 578.2 1030.3 578.2Q1029.7 578.2 1029.3 577.8Q1029.0 577.4 1029.0 576.8L1029.0 576.8L1029.0 571.1Q1029.0 569.9 1028.4 569.3Q1027.8 568.6 1026.7 568.6L1026.7 568.6Q1025.5 568.6 1024.9 569.4Q1024.2 570.1 1024.2 571.4L1024.2 571.4L1024.2 576.8Q1024.2 577.4 1023.8 577.8ZM1037.4 578.2L1037.4 578.2Q1036.7 578.2 1036.3 577.8Q1035.9 577.5 1035.7 576.8L1035.7 576.8L1033.2 568.3Q1033.1 567.8 1033.1 567.5L1033.1 567.5Q1033.1 567.0 1033.5 566.7Q1033.8 566.3 1034.4 566.3L1034.4 566.3Q1035.4 566.3 1035.6 567.5L1035.6 567.5L1037.5 575.3L1037.6 575.3L1039.6 567.6Q1039.9 566.3 1041.1 566.3L1041.1 566.3Q1042.3 566.3 1042.6 567.6L1042.6 567.6L1044.6 575.3L1044.7 575.3L1046.6 567.5Q1046.8 566.3 1047.8 566.3L1047.8 566.3Q1048.3 566.3 1048.7 566.7Q1049.1 567.0 1049.1 567.5L1049.1 567.5Q1049.1 567.8 1048.9 568.3L1048.9 568.3L1046.5 576.8Q1046.3 577.5 1045.8 577.8Q1045.4 578.2 1044.8 578.2L1044.8 578.2Q1044.0 578.2 1043.6 577.8Q1043.2 577.5 1043.0 576.8L1043.0 576.8L1041.1 569.6L1041.0 569.6L1039.1 576.8Q1038.7 578.2 1037.4 578.2ZM1053.9 578.1L1053.9 578.1Q1052.2 578.1 1051.2 577.2Q1050.1 576.2 1050.1 574.7L1050.1 574.7Q1050.1 573.2 1051.2 572.3Q1052.3 571.4 1054.4 571.3L1054.4 571.3L1057.4 571.1L1057.4 570.3Q1057.4 569.4 1056.9 568.9Q1056.3 568.4 1055.3 568.4L1055.3 568.4Q1054.5 568.4 1054.0 568.7Q1053.4 569.0 1052.9 569.8L1052.9 569.8Q1052.5 570.3 1051.8 570.3L1051.8 570.3Q1051.4 570.3 1051.0 570.0Q1050.7 569.7 1050.7 569.2L1050.7 569.2Q1050.7 568.9 1050.9 568.5L1050.9 568.5Q1051.3 567.5 1052.6 566.9Q1053.8 566.3 1055.4 566.3L1055.4 566.3Q1057.5 566.3 1058.8 567.4Q1060.1 568.4 1060.1 570.1L1060.1 570.1L1060.1 576.8Q1060.1 577.5 1059.7 577.8Q1059.4 578.2 1058.8 578.2L1058.8 578.2Q1058.2 578.2 1057.9 577.8Q1057.5 577.5 1057.5 576.9L1057.5 576.9L1057.5 576.1L1057.5 576.1Q1057.0 577.0 1056.0 577.6Q1055.0 578.1 1053.9 578.1ZM1054.7 576.1L1054.7 576.1Q1055.9 576.1 1056.7 575.4Q1057.4 574.7 1057.4 573.7L1057.4 573.7L1057.4 572.9L1054.8 573.0Q1053.8 573.1 1053.3 573.5Q1052.8 573.9 1052.8 574.6L1052.8 574.6Q1052.8 575.3 1053.3 575.7Q1053.8 576.1 1054.7 576.1ZM1063.9 582.2L1063.9 582.2Q1063.0 582.2 1062.5 581.9Q1062.0 581.5 1062.0 580.9L1062.0 580.9Q1062.0 580.5 1062.3 580.3Q1062.6 580.0 1063.0 580.0L1063.0 580.0Q1063.1 580.0 1063.3 580.0Q1063.5 580.0 1063.6 580.0L1063.6 580.0Q1064.7 580.0 1065.2 578.7L1065.2 578.7L1065.4 578.2L1061.7 568.3Q1061.5 567.9 1061.5 567.6L1061.5 567.6Q1061.5 567.0 1061.9 566.7Q1062.3 566.3 1062.9 566.3L1062.9 566.3Q1063.4 566.3 1063.7 566.6Q1064.0 566.8 1064.2 567.4L1064.2 567.4L1066.9 575.7L1067.0 575.7L1069.7 567.4Q1069.8 566.8 1070.1 566.6Q1070.5 566.3 1071.0 566.3L1071.0 566.3Q1071.5 566.3 1071.9 566.7Q1072.3 567.0 1072.3 567.5L1072.3 567.5Q1072.3 567.9 1072.1 568.3L1072.1 568.3L1068.4 578.4Q1067.6 580.5 1066.6 581.3Q1065.6 582.2 1063.9 582.2ZM1075.6 575.2L1075.6 575.2Q1076.1 575.2 1076.5 575.5Q1076.8 575.8 1076.8 576.3L1076.8 576.3Q1076.8 576.6 1076.7 576.9L1076.7 576.9L1075.8 580.6Q1075.7 581.1 1075.4 581.3Q1075.2 581.5 1074.7 581.5Q1074.2 581.5 1074.0 581.2Q1073.7 581.0 1073.7 580.5L1073.7 580.5Q1073.7 580.4 1073.7 580.3L1073.7 580.3L1074.3 576.3Q1074.5 575.2 1075.6 575.2Z M1093.3 577.9L1085.7 577.9Q1085.1 577.9 1084.7 577.6Q1084.3 577.2 1084.3 576.5L1084.3 576.5L1084.3 563.9Q1084.3 563.2 1084.7 562.8Q1085.1 562.4 1085.7 562.4L1085.7 562.4L1093.3 562.4Q1093.8 562.4 1094.2 562.8Q1094.5 563.1 1094.5 563.6Q1094.5 564.2 1094.2 564.5Q1093.8 564.8 1093.3 564.8L1093.3 564.8L1087.1 564.8L1087.1 569.0L1092.9 569.0Q1093.5 569.0 1093.8 569.3Q1094.1 569.6 1094.1 570.1Q1094.1 570.6 1093.8 570.9Q1093.5 571.2 1092.9 571.2L1092.9 571.2L1087.1 571.2L1087.1 575.6L1093.3 575.6Q1093.8 575.6 1094.2 575.9Q1094.5 576.2 1094.5 576.8Q1094.5 577.3 1094.2 577.6Q1093.8 577.9 1093.3 577.9L1093.3 577.9ZM1098.4 578.1L1098.4 578.1Q1097.7 578.1 1097.3 577.6Q1096.8 577.2 1096.8 576.5L1096.8 576.5Q1096.8 575.9 1097.3 575.4Q1097.7 575.0 1098.4 575.0L1098.4 575.0Q1099.0 575.0 1099.4 575.4Q1099.9 575.9 1099.9 576.5L1099.9 576.5Q1099.9 577.2 1099.4 577.6Q1099.0 578.1 1098.4 578.1Z M1111.9 578.2L1111.9 578.2Q1109.3 578.2 1107.8 576.6Q1106.3 575.1 1106.3 572.3L1106.3 572.3Q1106.3 569.6 1107.8 567.9Q1109.3 566.3 1111.7 566.3L1111.7 566.3Q1114.0 566.3 1115.5 567.8Q1117.0 569.3 1117.0 571.6L1117.0 571.6Q1117.0 572.2 1116.6 572.6Q1116.3 572.9 1115.7 572.9L1115.7 572.9L1109.0 572.9L1109.0 573.0Q1109.0 574.4 1109.8 575.3Q1110.5 576.1 1111.8 576.1L1111.8 576.1Q1112.7 576.1 1113.4 575.8Q1114.0 575.4 1114.7 574.6L1114.7 574.6Q1115.1 574.2 1115.6 574.2L1115.6 574.2Q1116.1 574.2 1116.4 574.4Q1116.7 574.7 1116.7 575.2L1116.7 575.2Q1116.7 575.5 1116.5 575.9L1116.5 575.9Q1115.9 577.0 1114.7 577.6Q1113.5 578.2 1111.9 578.2ZM1109.0 571.1L1109.0 571.1L1114.3 571.1Q1114.3 569.9 1113.6 569.1Q1112.9 568.4 1111.7 568.4Q1110.6 568.4 1109.8 569.2Q1109.1 569.9 1109.0 571.1ZM1119.4 575.1L1119.4 575.1L1119.4 568.6L1118.7 568.6Q1118.2 568.6 1117.9 568.3Q1117.6 568.1 1117.6 567.6L1117.6 567.6Q1117.6 567.1 1117.9 566.8Q1118.2 566.6 1118.7 566.6L1118.7 566.6L1119.4 566.6L1119.4 565.0Q1119.4 564.4 1119.8 564.0Q1120.1 563.6 1120.8 563.6L1120.8 563.6Q1121.4 563.6 1121.7 564.0Q1122.1 564.4 1122.1 565.0L1122.1 565.0L1122.1 566.6L1123.3 566.6Q1123.8 566.6 1124.1 566.8Q1124.4 567.1 1124.4 567.6L1124.4 567.6Q1124.4 568.1 1124.1 568.3Q1123.8 568.6 1123.3 568.6L1123.3 568.6L1122.1 568.6L1122.1 574.6Q1122.1 575.2 1122.3 575.5Q1122.6 575.8 1123.2 575.9L1123.2 575.9L1123.4 575.9Q1124.4 576.0 1124.4 576.9L1124.4 576.9Q1124.4 577.5 1123.9 577.8Q1123.4 578.1 1122.5 578.1L1122.5 578.1L1122.4 578.1Q1119.4 578.1 1119.4 575.1Z M1133.8 578.1L1133.8 578.1Q1132.1 578.1 1131.1 577.2Q1130.0 576.2 1130.0 574.7L1130.0 574.7Q1130.0 573.2 1131.1 572.3Q1132.2 571.4 1134.3 571.3L1134.3 571.3L1137.3 571.1L1137.3 570.3Q1137.3 569.4 1136.8 568.9Q1136.2 568.4 1135.2 568.4L1135.2 568.4Q1134.4 568.4 1133.9 568.7Q1133.3 569.0 1132.8 569.8L1132.8 569.8Q1132.4 570.3 1131.8 570.3L1131.8 570.3Q1131.3 570.3 1130.9 570.0Q1130.6 569.7 1130.6 569.2L1130.6 569.2Q1130.6 568.9 1130.8 568.5L1130.8 568.5Q1131.2 567.5 1132.5 566.9Q1133.7 566.3 1135.3 566.3L1135.3 566.3Q1137.4 566.3 1138.7 567.4Q1140.0 568.4 1140.0 570.1L1140.0 570.1L1140.0 576.8Q1140.0 577.5 1139.6 577.8Q1139.3 578.2 1138.7 578.2L1138.7 578.2Q1138.1 578.2 1137.8 577.8Q1137.4 577.5 1137.4 576.9L1137.4 576.9L1137.4 576.1L1137.4 576.1Q1136.9 577.0 1135.9 577.6Q1134.9 578.1 1133.8 578.1ZM1134.6 576.1L1134.6 576.1Q1135.8 576.1 1136.6 575.4Q1137.3 574.7 1137.3 573.7L1137.3 573.7L1137.3 572.9L1134.7 573.0Q1133.7 573.1 1133.2 573.5Q1132.7 573.9 1132.7 574.6L1132.7 574.6Q1132.7 575.3 1133.2 575.7Q1133.7 576.1 1134.6 576.1ZM1144.5 577.8Q1144.2 578.2 1143.6 578.2Q1143.0 578.2 1142.6 577.8Q1142.2 577.4 1142.2 576.8L1142.2 576.8L1142.2 563.6Q1142.2 563.0 1142.6 562.6Q1143.0 562.2 1143.6 562.2Q1144.2 562.2 1144.5 562.6Q1144.9 563.0 1144.9 563.6L1144.9 563.6L1144.9 576.8Q1144.9 577.4 1144.5 577.8ZM1149.0 578.1L1149.0 578.1Q1148.4 578.1 1147.9 577.6Q1147.5 577.2 1147.5 576.5L1147.5 576.5Q1147.5 575.9 1147.9 575.4Q1148.4 575.0 1149.0 575.0L1149.0 575.0Q1149.7 575.0 1150.1 575.4Q1150.6 575.9 1150.6 576.5L1150.6 576.5Q1150.6 577.2 1150.1 577.6Q1149.7 578.1 1149.0 578.1Z " clip-path="url(#satori_cp-id-0)" mask="url(#satori_om-id-0)"/></svg>