<svg width="1200" height="630" viewBox="0 0 1200 630" xmlns="http://www.w3.org/2000/svg"><mask id="satori_om-id"><rect x="0" y="0" width="1200" height="630" fill="#fff"/></mask><defs><pattern id="satori_pattern_id-0_0" x="0" y="0" width="1" height="1" patternUnits="objectBoundingBox"><linearGradient id="satori_biid-0_0" x1="-0.09774620284174435" y1="0.18618324350808482" x2="1.0977462028417444" y2="0.8138167564919152" spreadMethod="pad"><stop offset="0%" stop-color="#f8fafc"/><stop offset="50%" stop-color="#eef2ff"/><stop offset="100%" stop-color="#ffffff"/></linearGradient><rect x="0" y="0" width="1200" height="630" fill="url(#satori_biid-0_0)"/></pattern></defs><clipPath id="satori_cp-id-0"><rect x="0" y="0" width="1200" height="630"/></clipPath><mask id="satori_om-id-0"><rect x="0" y="0" width="1200" height="630" fill="#fff"/></mask><rect x="0" y="0" width="1200" height="630" fill="url(#satori_pattern_id-0_0)"/><mask id="satori_om-id-0-0"><rect x="0" y="0" width="1200" height="509" fill="#fff" mask="url(#satori_om-id-0)"/></mask><mask id="satori_om-id-0-0-0"><rect x="72" y="72" width="1056" height="365" fill="#fff" mask="url(#satori_om-id-0)"/></mask><mask id="satori_om-id-0-0-0-0"><rect x="72" y="113" width="1056" height="38" fill="#fff" mask="url(#satori_om-id-0)"/></mask><path fill="#64748b" d="M82.7 143.2Q82.2 143.7 81.4 143.7Q80.6 143.7 80.1 143.2Q79.7 142.8 79.7 141.9L79.7 141.9L79.7 124.0L74.1 124.0Q73.4 124.0 73.0 123.5Q72.5 123.1 72.5 122.4Q72.5 121.8 73.0 121.3Q73.4 120.9 74.1 120.9L74.1 120.9L88.7 120.9Q89.4 120.9 89.9 121.3Q90.3 121.8 90.3 122.4Q90.3 123.1 89.9 123.5Q89.4 124.0 88.7 124.0L88.7 124.0L83.2 124.0L83.2 141.9Q83.2 142.8 82.7 143.2ZM95.5 143.3Q95.1 143.8 94.3 143.8Q93.6 143.8 93.1 143.3Q92.6 142.8 92.6 142.0L92.6 142.0L92.6 122.4Q92.6 121.6 93.1 121.1Q93.5 120.6 94.3 120.6L94.3 120.6Q95.1 120.6 95.5 121.1Q96.0 121.6 96.0 122.4L96.0 122.4L96.0 129.8L96.0 129.8Q96.7 128.3 98.1 127.5Q99.4 126.8 101.3 126.8L101.3 126.8Q103.9 126.8 105.5 128.4Q107.0 130.1 107.0 132.9L107.0 132.9L107.0 142.0Q107.0 142.8 106.5 143.3Q106.1 143.8 105.3 143.8L105.3 143.8Q104.6 143.8 104.1 143.3Q103.6 142.8 103.6 142.0L103.6 142.0L103.6 133.5Q103.6 131.7 102.7 130.7Q101.8 129.7 100.0 129.7L100.0 129.7Q98.2 129.7 97.1 130.8Q96 132.0 96 134.0L96 134.0L96 142.0Q96 142.8 95.5 143.3ZM116.0 143.8L116.0 143.8Q113.3 143.8 111.7 142.1Q110.2 140.5 110.2 137.7L110.2 137.7L110.2 128.5Q110.2 127.7 110.6 127.2Q111.1 126.7 111.9 126.7L111.9 126.7Q112.6 126.7 113.1 127.2Q113.6 127.7 113.6 128.5L113.6 128.5L113.6 137.0Q113.6 138.9 114.5 139.9Q115.3 140.9 117.1 140.9L117.1 140.9Q118.9 140.9 119.9 139.7Q121.0 138.5 121.0 136.6L121.0 136.6L121.0 128.5Q121.0 127.7 121.5 127.2Q121.9 126.7 122.7 126.7L122.7 126.7Q123.4 126.7 123.9 127.2Q124.4 127.7 124.4 128.5L124.4 128.5L124.4 142.0Q124.4 142.8 123.9 143.3Q123.5 143.8 122.8 143.8Q122.0 143.8 121.6 143.3Q121.1 142.8 121.1 142.1L121.1 142.1L121.1 140.7L121.0 140.7Q119.6 143.8 116.0 143.8ZM129.4 143.8L129.4 143.8Q128.6 143.8 128.1 143.3Q127.7 142.8 127.7 142.0L127.7 142.0L127.7 128.4Q127.7 127.7 128.1 127.2Q128.6 126.7 129.3 126.7L129.3 126.7Q130 126.7 130.4 127.2Q130.9 127.7 130.9 128.4L130.9 128.4L130.9 129.8L131.0 129.8Q131.3 128.5 132.3 127.6Q133.3 126.8 134.6 126.8L134.6 126.8Q135.5 126.8 135.9 127.2L135.9 127.2Q136.4 127.5 136.4 128.4L136.4 128.4Q136.4 129.1 135.9 129.5L135.9 129.5Q135.4 130.0 134.3 130.0L134.3 130.0Q132.7 130 131.9 131.0Q131.1 132.0 131.1 133.6L131.1 133.6L131.1 142.0Q131.1 142.8 130.6 143.3Q130.1 143.8 129.4 143.8ZM144.3 143.8L144.3 143.8Q141.9 143.8 140.2 142.9Q138.5 142.0 137.9 140.4L137.9 140.4Q137.7 140.1 137.7 139.7L137.7 139.7Q137.7 139.1 138.1 138.8Q138.5 138.4 139.2 138.4L139.2 138.4Q140.0 138.4 140.6 139.3L140.6 139.3Q141.3 140.3 142.1 140.8Q143.0 141.2 144.4 141.2L144.4 141.2Q145.9 141.2 146.8 140.6Q147.6 140.0 147.6 139.0L147.6 139.0Q147.6 138.2 147.1 137.7Q146.5 137.3 145.2 136.9L145.2 136.9L142.6 136.3Q137.9 135.2 137.9 131.7L137.9 131.7Q137.9 129.4 139.7 128.1Q141.5 126.7 144.4 126.7L144.4 126.7Q146.6 126.7 148.2 127.7Q149.9 128.7 150.3 130.2L150.3 130.2Q150.3 130.6 150.3 130.7L150.3 130.7Q150.3 131.3 150.0 131.6Q149.6 131.9 149 131.9L149 131.9Q148.1 131.9 147.6 131.2L147.6 131.2Q147.1 130.3 146.3 129.8Q145.5 129.3 144.3 129.3L144.3 129.3Q142.9 129.3 142.0 129.9Q141.2 130.5 141.2 131.5L141.2 131.5Q141.2 133.0 143.7 133.6L143.7 133.6L146.3 134.2Q148.9 134.8 150.0 135.9Q151.0 136.9 151.0 138.7L151.0 138.7Q151.0 141.0 149.2 142.4Q147.3 143.8 144.3 143.8ZM159.8 143.8L159.8 143.8Q156.7 143.8 154.8 141.4Q152.9 139.1 152.9 135.3Q152.9 131.4 154.8 129.1Q156.7 126.8 159.8 126.8L159.8 126.8Q161.5 126.8 162.9 127.6Q164.3 128.4 165.0 129.8L165.0 129.8L165.0 129.8L165.0 122.4Q165.0 121.6 165.5 121.1Q166.0 120.6 166.7 120.6L166.7 120.6Q167.5 120.6 167.9 121.1Q168.4 121.6 168.4 122.4L168.4 122.4L168.4 142.1Q168.4 142.9 167.9 143.3Q167.5 143.8 166.7 143.8L166.7 143.8Q166 143.8 165.5 143.3Q165.0 142.9 165.0 142.1L165.0 142.1L165.0 140.5L165.0 140.5Q164.3 142.0 163 142.9Q161.7 143.8 159.8 143.8ZM160.7 140.9L160.7 140.9Q162.7 140.9 163.9 139.4Q165.0 137.8 165.0 135.3L165.0 135.3Q165.0 132.7 163.9 131.2Q162.7 129.6 160.7 129.6L160.7 129.6Q158.7 129.6 157.5 131.1Q156.4 132.7 156.4 135.3L156.4 135.3Q156.4 137.9 157.5 139.4Q158.7 140.9 160.7 140.9ZM176.7 143.8L176.7 143.8Q174.3 143.8 172.7 142.4Q171.2 141 171.2 138.8L171.2 138.8Q171.2 136.6 172.8 135.4Q174.4 134.1 177.3 133.9L177.3 133.9L181.8 133.7L181.8 132.4Q181.8 131.0 180.9 130.3Q180.1 129.5 178.5 129.5L178.5 129.5Q177.3 129.5 176.4 130.0Q175.6 130.5 174.9 131.6L174.9 131.6Q174.4 132.3 173.5 132.3L173.5 132.3Q172.9 132.3 172.5 131.9Q172.0 131.5 172.0 130.9L172.0 130.9Q172.0 130.3 172.3 129.8L172.3 129.8Q173.0 128.4 174.7 127.6Q176.4 126.7 178.6 126.7L178.6 126.7Q181.6 126.7 183.4 128.2Q185.2 129.7 185.2 132.1L185.2 132.1L185.2 142.1Q185.2 142.8 184.7 143.3Q184.3 143.8 183.5 143.8L183.5 143.8Q182.8 143.8 182.4 143.3Q182.0 142.9 181.9 142.2L181.9 142.2L181.9 140.8L181.9 140.8Q181.2 142.1 179.7 142.9Q178.3 143.8 176.7 143.8ZM177.6 141.1L177.6 141.1Q179.4 141.1 180.6 140.0Q181.8 138.9 181.8 137.3L181.8 137.3L181.8 136.0L177.8 136.3Q176.2 136.4 175.4 137.0Q174.6 137.6 174.6 138.7L174.6 138.7Q174.6 139.8 175.4 140.4Q176.3 141.1 177.6 141.1ZM190.5 149.6L190.5 149.6Q189.3 149.6 188.7 149.2Q188.0 148.8 188.0 148.0L188.0 148.0Q188.0 147.4 188.4 147.1Q188.8 146.8 189.4 146.8L189.4 146.8Q189.5 146.8 189.8 146.8Q190.0 146.8 190.2 146.8L190.2 146.8Q191.9 146.8 192.7 144.6L192.7 144.6L193.0 143.6L187.5 129.3Q187.4 128.7 187.4 128.3L187.4 128.3Q187.4 127.6 187.8 127.2Q188.3 126.7 189.1 126.7L189.1 126.7Q189.7 126.7 190.1 127.0Q190.5 127.3 190.7 128.0L190.7 128.0L194.9 140.4L194.9 140.4L199.1 128.0Q199.3 127.3 199.7 127.0Q200.1 126.7 200.8 126.7L200.8 126.7Q201.5 126.7 201.9 127.2Q202.4 127.6 202.4 128.3L202.4 128.3Q202.4 128.7 202.2 129.2L202.2 129.2L196.5 144.3Q195.4 147.3 194.1 148.4Q192.8 149.6 190.5 149.6ZM207.2 139.7L207.2 139.7Q207.9 139.7 208.3 140.0Q208.7 140.4 208.7 141.1L208.7 141.1Q208.7 141.5 208.6 142.0L208.6 142.0L207.3 147.3Q207.0 148.5 205.8 148.5L205.8 148.5Q205.2 148.5 204.9 148.1Q204.5 147.8 204.5 147.3L204.5 147.3Q204.5 147.1 204.5 146.9L204.5 146.9L205.5 141.1Q205.8 139.7 207.2 139.7Z M223.1 143.8L223.1 143.8Q222.4 143.8 222.0 143.4Q221.5 143.0 221.5 142.3L221.5 142.3Q221.5 141.8 221.8 141.2L221.8 141.2L230.9 124.0L230.9 123.9L220.4 123.9Q219.7 123.9 219.3 123.5Q218.8 123.1 218.8 122.4L218.8 122.4Q218.8 121.7 219.3 121.3Q219.7 120.9 220.4 120.9L220.4 120.9L232.3 120.9Q233.3 120.9 233.9 121.5Q234.5 122 234.5 122.9L234.5 122.9Q234.5 123.7 233.8 125.1L233.8 125.1L224.7 142.8Q224.4 143.3 224.1 143.5Q223.7 143.8 223.1 143.8Z M247.2 143.2Q246.7 143.7 245.9 143.7Q245.1 143.7 244.7 143.2Q244.2 142.8 244.2 141.9L244.2 141.9L244.2 122.6Q244.2 121.7 244.7 121.2Q245.2 120.7 246.1 120.7L246.1 120.7Q246.7 120.7 247.1 120.9Q247.5 121.2 248.0 121.8L248.0 121.8L259.1 137.5L259.2 137.5L259.2 122.5Q259.2 121.6 259.7 121.1Q260.1 120.7 260.9 120.7L260.9 120.7Q261.7 120.7 262.2 121.1Q262.6 121.6 262.6 122.5L262.6 122.5L262.6 141.9Q262.6 142.8 262.1 143.2Q261.6 143.7 260.8 143.7L260.8 143.7Q260.1 143.7 259.7 143.5Q259.3 143.3 258.9 142.6L258.9 142.6L247.8 126.9L247.6 126.9L247.6 141.9Q247.6 142.8 247.2 143.2ZM279.1 141.5Q277.0 143.8 273.4 143.8Q269.9 143.8 267.8 141.5Q265.6 139.2 265.6 135.3L265.6 135.3Q265.6 131.3 267.8 129.0Q269.9 126.7 273.4 126.7Q277.0 126.7 279.1 129.0Q281.2 131.3 281.2 135.3L281.2 135.3Q281.2 139.2 279.1 141.5ZM273.4 141L273.4 141Q275.4 141 276.6 139.5Q277.8 138.0 277.8 135.3L277.8 135.3Q277.8 132.5 276.6 131.0Q275.4 129.5 273.4 129.5Q271.4 129.5 270.2 131.0Q269.1 132.5 269.1 135.3L269.1 135.3Q269.1 138.0 270.2 139.5Q271.4 141 273.4 141ZM290.2 143.8L290.2 143.8Q289.3 143.8 288.7 143.4Q288.2 143.0 287.8 142.0L287.8 142.0L283.0 129.2Q282.8 128.7 282.8 128.3L282.8 128.3Q282.8 127.6 283.2 127.2Q283.7 126.7 284.5 126.7L284.5 126.7Q285.7 126.7 286.1 128.1L286.1 128.1L290.1 140.2L290.2 140.2L294.3 128.0Q294.7 126.7 295.9 126.7L295.9 126.7Q296.6 126.7 297.0 127.2Q297.5 127.6 297.5 128.3L297.5 128.3Q297.5 128.7 297.3 129.2L297.3 129.2L292.5 142.0Q292.1 142.9 291.6 143.4Q291.0 143.8 290.2 143.8ZM306.9 143.8L306.9 143.8Q303.2 143.8 301.1 141.5Q299.1 139.3 299.1 135.3L299.1 135.3Q299.1 131.4 301.1 129.1Q303.2 126.7 306.7 126.7L306.7 126.7Q310.0 126.7 312.0 128.9Q314.1 131 314.1 134.4L314.1 134.4Q314.1 135.2 313.6 135.6Q313.2 136.1 312.4 136.1L312.4 136.1L302.5 136.1L302.5 136.2Q302.5 138.4 303.6 139.7Q304.8 141.0 306.8 141.0L306.8 141.0Q308.2 141.0 309.2 140.5Q310.2 140.0 311.1 138.7L311.1 138.7Q311.6 138.1 312.3 138.1L312.3 138.1Q312.9 138.1 313.3 138.5Q313.7 138.9 313.7 139.5L313.7 139.5Q313.7 139.8 313.5 140.4L313.5 140.4Q312.6 142 310.9 142.9Q309.2 143.8 306.9 143.8ZM302.5 133.7L302.5 133.7L310.7 133.7Q310.6 131.8 309.5 130.6Q308.4 129.5 306.7 129.5L306.7 129.5Q304.9 129.5 303.8 130.6Q302.6 131.8 302.5 133.7ZM319.6 143.3Q319.1 143.8 318.4 143.8Q317.6 143.8 317.1 143.3Q316.7 142.8 316.7 142.0L316.7 142.0L316.7 128.5Q316.7 127.7 317.1 127.2Q317.6 126.7 318.3 126.7Q319.0 126.7 319.5 127.2Q319.9 127.7 319.9 128.5L319.9 128.5L319.9 129.8L320.0 129.8Q320.5 128.4 321.8 127.6Q323.0 126.8 324.7 126.8L324.7 126.8Q326.4 126.8 327.6 127.6Q328.8 128.4 329.3 130.0L329.3 130.0L329.3 130.0Q330.0 128.5 331.3 127.6Q332.7 126.8 334.5 126.8L334.5 126.8Q336.9 126.8 338.4 128.2Q339.8 129.7 339.8 132.2L339.8 132.2L339.8 142.0Q339.8 142.8 339.4 143.3Q338.9 143.8 338.1 143.8Q337.4 143.8 336.9 143.3Q336.4 142.8 336.4 142.0L336.4 142.0L336.4 133.0Q336.4 131.4 335.6 130.5Q334.8 129.6 333.3 129.6Q331.8 129.6 330.9 130.6Q329.9 131.6 329.9 133.2L329.9 133.2L329.9 142.0Q329.9 142.8 329.5 143.3Q329.0 143.8 328.3 143.8Q327.5 143.8 327.0 143.3Q326.6 142.8 326.6 142.0L326.6 142.0L326.6 132.7Q326.6 131.3 325.8 130.5Q324.9 129.6 323.5 129.6L323.5 129.6Q322.0 129.6 321.0 130.7Q320.1 131.7 320.1 133.3L320.1 133.3L320.1 142.0Q320.1 142.8 319.6 143.3ZM344.8 143.8L344.8 143.8Q344.1 143.8 343.6 143.3Q343.2 142.9 343.2 142.1L343.2 142.1L343.2 122.4Q343.2 121.6 343.7 121.1Q344.1 120.6 344.9 120.6Q345.6 120.6 346.1 121.1Q346.6 121.6 346.6 122.4L346.6 122.4L346.6 129.8L346.7 129.8Q347.4 128.4 348.8 127.6Q350.1 126.8 351.9 126.8L351.9 126.8Q355.0 126.8 356.8 129.1Q358.7 131.4 358.7 135.3L358.7 135.3Q358.7 139.2 356.8 141.5Q355.0 143.8 351.8 143.8L351.8 143.8Q350.1 143.8 348.7 142.9Q347.3 142.1 346.5 140.7L346.5 140.7L346.5 140.7L346.5 142.1Q346.5 142.9 346.0 143.3Q345.6 143.8 344.8 143.8ZM350.9 140.9L350.9 140.9Q352.9 140.9 354.1 139.4Q355.2 137.9 355.2 135.3L355.2 135.3Q355.2 132.7 354.1 131.1Q352.9 129.6 350.9 129.6L350.9 129.6Q349 129.6 347.8 131.2Q346.6 132.7 346.6 135.3L346.6 135.3Q346.6 137.8 347.8 139.3Q349 140.9 350.9 140.9ZM368.4 143.8L368.4 143.8Q364.7 143.8 362.6 141.5Q360.6 139.3 360.6 135.3L360.6 135.3Q360.6 131.4 362.6 129.1Q364.7 126.7 368.2 126.7L368.2 126.7Q371.5 126.7 373.5 128.9Q375.6 131 375.6 134.4L375.6 134.4Q375.6 135.2 375.1 135.6Q374.7 136.1 373.9 136.1L373.9 136.1L364.0 136.1L364.0 136.2Q364.0 138.4 365.2 139.7Q366.3 141.0 368.4 141.0L368.4 141.0Q369.7 141.0 370.7 140.5Q371.7 140.0 372.6 138.7L372.6 138.7Q373.1 138.1 373.8 138.1L373.8 138.1Q374.4 138.1 374.8 138.5Q375.2 138.9 375.2 139.5L375.2 139.5Q375.2 139.8 375.0 140.4L375.0 140.4Q374.2 142 372.4 142.9Q370.7 143.8 368.4 143.8ZM364 133.7L364 133.7L372.2 133.7Q372.2 131.8 371.1 130.6Q370.0 129.5 368.2 129.5L368.2 129.5Q366.4 129.5 365.3 130.6Q364.1 131.8 364 133.7ZM379.9 143.8L379.9 143.8Q379.1 143.8 378.7 143.3Q378.2 142.8 378.2 142.0L378.2 142.0L378.2 128.4Q378.2 127.7 378.6 127.2Q379.1 126.7 379.8 126.7L379.8 126.7Q380.5 126.7 381.0 127.2Q381.4 127.7 381.4 128.4L381.4 128.4L381.4 129.8L381.5 129.8Q381.8 128.5 382.8 127.6Q383.8 126.8 385.1 126.8L385.1 126.8Q386.0 126.8 386.4 127.2L386.4 127.2Q386.9 127.5 386.9 128.4L386.9 128.4Q386.9 129.1 386.4 129.5L386.4 129.5Q385.9 130.0 384.8 130.0L384.8 130.0Q383.2 130 382.4 131.0Q381.6 132.0 381.6 133.6L381.6 133.6L381.6 142.0Q381.6 142.8 381.1 143.3Q380.6 143.8 379.9 143.8Z M409.3 143.5L396.9 143.5Q396.1 143.5 395.6 143.1Q395.2 142.7 395.2 142L395.2 142Q395.2 141.5 395.4 141.1Q395.6 140.8 396.2 140.2L396.2 140.2L403.2 133.0Q405.4 130.8 406.1 129.6Q406.9 128.4 406.9 127.1L406.9 127.1Q406.9 125.5 405.8 124.4Q404.7 123.4 403.0 123.4L403.0 123.4Q399.6 123.4 398.4 126.7L398.4 126.7Q398.2 127.3 397.8 127.6Q397.5 127.9 396.8 127.9L396.8 127.9Q396.1 127.9 395.7 127.5Q395.3 127.0 395.3 126.4L395.3 126.4Q395.3 126 395.4 125.6L395.4 125.6Q395.6 124.7 396.2 123.8Q396.8 122.9 397.7 122.2Q398.6 121.4 400.0 121.0Q401.4 120.5 403.0 120.5L403.0 120.5Q406.2 120.5 408.3 122.3Q410.3 124.1 410.3 126.9L410.3 126.9Q410.3 128.8 409.3 130.5Q408.2 132.1 405.3 135.0L405.3 135.0L400.0 140.4L400.0 140.5L409.3 140.5Q410.0 140.5 410.4 140.9Q410.9 141.3 410.9 142L410.9 142Q410.9 142.7 410.4 143.1Q410.0 143.5 409.3 143.5L409.3 143.5ZM428.4 140.7Q426.1 143.9 422.0 143.9Q418 143.9 415.7 140.7Q413.4 137.6 413.4 132.2L413.4 132.2Q413.4 126.8 415.7 123.6Q418.0 120.5 422.0 120.5L422.0 120.5Q426.1 120.5 428.4 123.6Q430.7 126.8 430.7 132.2L430.7 132.2Q430.7 137.6 428.4 140.7ZM422.0 141.0L422.0 141.0Q424.5 141.0 425.8 138.6Q427.1 136.3 427.1 132.2L427.1 132.2Q427.1 128.1 425.8 125.8Q424.5 123.4 422.0 123.4Q419.6 123.4 418.3 125.8Q417.0 128.1 417.0 132.2L417.0 132.2Q417.0 136.3 418.3 138.6Q419.6 141.0 422.0 141.0ZM447.8 143.5L435.4 143.5Q434.6 143.5 434.1 143.1Q433.7 142.7 433.7 142L433.7 142Q433.7 141.5 433.9 141.1Q434.1 140.8 434.7 140.2L434.7 140.2L441.7 133.0Q443.9 130.8 444.6 129.6Q445.4 128.4 445.4 127.1L445.4 127.1Q445.4 125.5 444.3 124.4Q443.2 123.4 441.5 123.4L441.5 123.4Q438.1 123.4 436.9 126.7L436.9 126.7Q436.7 127.3 436.3 127.6Q436.0 127.9 435.3 127.9L435.3 127.9Q434.6 127.9 434.2 127.5Q433.8 127.0 433.8 126.4L433.8 126.4Q433.8 126 433.9 125.6L433.9 125.6Q434.1 124.7 434.7 123.8Q435.3 122.9 436.2 122.2Q437.1 121.4 438.5 121.0Q439.9 120.5 441.5 120.5L441.5 120.5Q444.7 120.5 446.8 122.3Q448.8 124.1 448.8 126.9L448.8 126.9Q448.8 128.8 447.8 130.5Q446.7 132.1 443.8 135.0L443.8 135.0L438.5 140.4L438.5 140.5L447.8 140.5Q448.5 140.5 448.9 140.9Q449.4 141.3 449.4 142L449.4 142Q449.4 142.7 448.9 143.1Q448.5 143.5 447.8 143.5L447.8 143.5ZM464.7 143.8L464.7 143.8Q464.0 143.8 463.5 143.3Q463.0 142.8 463.0 142.0L463.0 142.0L463.0 139.0L453.7 139.0Q452.8 139.0 452.2 138.4Q451.7 137.9 451.7 137L451.7 137Q451.7 135.9 452.5 134.5L452.5 134.5Q454.4 131.0 459.8 123.3L459.8 123.3Q460.8 121.8 461.6 121.2Q462.4 120.6 463.5 120.6L463.5 120.6Q464.9 120.6 465.6 121.3Q466.4 122 466.4 123.3L466.4 123.3L466.4 136.0L468.2 136.0Q468.8 136.0 469.3 136.5Q469.7 136.9 469.7 137.5Q469.7 138.2 469.3 138.6Q468.8 139.0 468.2 139.0L468.2 139.0L466.4 139.0L466.4 142.0Q466.4 142.8 465.9 143.3Q465.4 143.8 464.7 143.8ZM455.0 136.1L463.0 136.1L463.0 123.7L463.0 123.7Q457.2 132.0 455.0 136L455.0 136L455.0 136.1Z " clip-path="url(#satori_cp-id-0)" mask="url(#satori_om-id-0)"/><mask id="satori_om-id-0-0-0-1"><rect x="72" y="175" width="1056" height="221" fill="#fff" mask="url(#satori_om-id-0)"/></mask><path fill="#0f172a" d="M94.7 235.3L94.7 235.3Q86.0 235.3 80.9 230.7Q75.8 226.1 75.8 218.6L75.8 218.6L75.8 193.8Q75.8 191.4 77 190.1Q78.3 188.8 80.5 188.8Q82.7 188.8 83.9 190.1Q85.2 191.4 85.2 193.8L85.2 193.8L85.2 217.7Q85.2 222.1 87.7 224.7Q90.2 227.2 94.7 227.2L94.7 227.2Q99.1 227.2 101.6 224.7Q104.1 222.1 104.1 217.7L104.1 217.7L104.1 193.8Q104.1 191.4 105.3 190.1Q106.6 188.8 108.8 188.8Q111.0 188.8 112.3 190.1Q113.5 191.4 113.5 193.8L113.5 193.8L113.5 218.6Q113.5 226.1 108.4 230.7Q103.3 235.3 94.7 235.3ZM133.9 235.3L133.9 235.3Q128.3 235.3 124.5 233.4Q120.7 231.6 119.5 228.6L119.5 228.6Q119.2 227.6 119.2 226.9L119.2 226.9Q119.2 225.3 120.2 224.4Q121.3 223.4 122.8 223.4L122.8 223.4Q125.0 223.4 126.8 225.5L126.8 225.5Q128.2 227.2 129.9 228.1Q131.6 228.9 134.1 228.9L134.1 228.9Q136.6 228.9 138.1 227.9Q139.6 226.9 139.6 225.3L139.6 225.3Q139.6 223.9 138.6 223.1Q137.6 222.3 135.2 221.8L135.2 221.8L129.5 220.6Q124.6 219.5 122.1 217.1Q119.7 214.6 119.7 210.9L119.7 210.9Q119.7 206.1 123.5 203.2Q127.4 200.3 133.9 200.3L133.9 200.3Q138.9 200.3 142.5 202.3Q146.2 204.3 147 207.3L147 207.3Q147.2 208.1 147.2 208.6L147.2 208.6Q147.2 210.1 146.3 210.9Q145.4 211.7 143.7 211.7L143.7 211.7Q141.6 211.7 140.4 210.3L140.4 210.3Q139.0 208.6 137.5 207.7Q136 206.7 133.7 206.7L133.7 206.7Q131.4 206.7 129.9 207.7Q128.5 208.7 128.5 210.4L128.5 210.4Q128.5 211.7 129.6 212.6Q130.7 213.5 133.1 214.0L133.1 214.0L138.7 215.2Q144 216.3 146.4 218.4Q148.7 220.6 148.7 224.3L148.7 224.3Q148.7 229.3 144.6 232.3Q140.6 235.3 133.9 235.3ZM161.4 195.5Q160 196.9 157.9 196.9Q155.9 196.9 154.5 195.5Q153.1 194.1 153.1 192.2L153.1 192.2Q153.1 190.2 154.5 188.8Q155.9 187.5 157.9 187.5Q160 187.5 161.4 188.8Q162.8 190.2 162.8 192.2L162.8 192.2Q162.8 194.1 161.4 195.5ZM161.3 233.9Q160.1 235.2 157.9 235.2Q155.8 235.2 154.6 233.9Q153.4 232.7 153.4 230.5L153.4 230.5L153.4 205.1Q153.4 202.9 154.6 201.6Q155.8 200.4 157.9 200.4Q160.1 200.4 161.3 201.6Q162.5 202.9 162.5 205.1L162.5 205.1L162.5 230.5Q162.5 232.7 161.3 233.9ZM176.4 234.0Q175.2 235.2 173.1 235.2Q171.1 235.2 169.8 234.0Q168.6 232.7 168.6 230.5L168.6 230.5L168.6 205.0Q168.6 202.8 169.7 201.6Q170.9 200.4 173.0 200.4Q175.0 200.4 176.3 201.6Q177.5 202.9 177.5 205.0L177.5 205.0L177.5 206.9L177.7 206.9Q180.5 200.4 188.0 200.4L188.0 200.4Q193.6 200.4 196.6 203.7Q199.7 207.1 199.7 213.0L199.7 213.0L199.7 230.5Q199.7 232.7 198.4 234.0Q197.2 235.2 195.1 235.2Q193.0 235.2 191.8 234.0Q190.5 232.7 190.5 230.5L190.5 230.5L190.5 214.9Q190.5 211.6 189.0 209.8Q187.4 208.0 184.4 208.0Q181.3 208.0 179.5 210.0Q177.7 212.1 177.7 215.3L177.7 215.3L177.7 230.5Q177.7 232.7 176.4 234.0ZM220.4 247.1L220.4 247.1Q215.4 247.1 211.7 245.4Q208 243.7 206.3 241.0L206.3 241.0Q205.6 239.8 205.6 238.5L205.6 238.5Q205.6 237.0 206.6 236.1Q207.7 235.1 209.3 235.1L209.3 235.1Q211.1 235.1 212.5 236.4L212.5 236.4Q216.3 240.1 220.4 240.1L220.4 240.1Q224.1 240.1 226.2 238.2Q228.3 236.4 228.3 233.2L228.3 233.2L228.3 227.8L228.1 227.8Q226.9 230.6 224.2 232.2Q221.4 233.8 217.8 233.8L217.8 233.8Q211.6 233.8 207.9 229.4Q204.2 224.9 204.2 217.2L204.2 217.2Q204.2 209.4 207.9 204.9Q211.5 200.5 218.0 200.5L218.0 200.5Q221.5 200.5 224.2 202.2Q226.8 203.9 228.2 206.8L228.2 206.8L228.4 206.8L228.4 205.0Q228.4 202.7 229.6 201.6Q230.9 200.4 233.0 200.4L233.0 200.4Q235 200.4 236.3 201.6Q237.5 202.7 237.5 205.0L237.5 205.0L237.5 233.2Q237.5 239.8 233.0 243.5Q228.5 247.2 220.4 247.1ZM220.9 227.1L220.9 227.1Q224.3 227.1 226.4 224.5Q228.4 221.9 228.4 217.4Q228.4 212.8 226.4 210.1Q224.3 207.5 220.9 207.5L220.9 207.5Q217.5 207.5 215.5 210.1Q213.6 212.8 213.6 217.3L213.6 217.3Q213.6 221.9 215.5 224.5Q217.5 227.1 220.9 227.1Z M273.3 235.3L273.3 235.3Q266.6 235.3 262.1 232.9Q257.7 230.5 256.3 226.6L256.3 226.6Q255.8 225.3 255.8 224.1L255.8 224.1Q255.8 222.2 256.9 221.1Q258.1 220.0 259.9 220.0L259.9 220.0Q261.4 220.0 262.4 220.6Q263.4 221.2 264.3 222.7L264.3 222.7Q265.3 225.2 267.8 226.5Q270.2 227.7 273.6 227.7L273.6 227.7Q277.3 227.7 279.7 226.1Q282.1 224.5 282.1 222.0L282.1 222.0Q282.1 219.7 280.3 218.4Q278.5 217.0 274.3 216.1L274.3 216.1L269.5 215.2Q256.1 212.6 256.1 202.4L256.1 202.4Q256.1 198.3 258.3 195.2Q260.5 192.1 264.4 190.4Q268.3 188.7 273.3 188.7L273.3 188.7Q279.5 188.7 283.9 191.1Q288.3 193.6 289.8 198.0L289.8 198.0Q290.1 199.0 290.1 200.1L290.1 200.1Q290.1 201.8 289.0 202.8Q287.9 203.9 286.1 203.9L286.1 203.9Q284.5 203.9 283.5 203.2Q282.4 202.6 281.6 201.1L281.6 201.1Q279.5 196.3 273.3 196.3L273.3 196.3Q269.8 196.3 267.7 197.8Q265.6 199.3 265.6 201.8L265.6 201.8Q265.6 203.9 267.3 205.2Q269.1 206.6 273.1 207.4L273.1 207.4L277.8 208.3Q285.0 209.8 288.2 212.8Q291.5 215.8 291.5 220.9L291.5 220.9Q291.5 227.6 286.6 231.4Q281.8 235.3 273.3 235.3ZM324.0 230.6Q319.5 235.3 311.8 235.3Q304.2 235.3 299.7 230.6Q295.3 226.0 295.3 217.8L295.3 217.8Q295.3 209.7 299.8 205.0Q304.3 200.3 311.8 200.3L311.8 200.3Q319.4 200.3 323.9 205.0Q328.4 209.7 328.4 217.8L328.4 217.8Q328.4 226.0 324.0 230.6ZM311.8 228.3L311.8 228.3Q315.2 228.3 317.2 225.6Q319.2 222.8 319.2 217.8L319.2 217.8Q319.2 212.9 317.2 210.1Q315.2 207.3 311.8 207.3Q308.5 207.3 306.5 210.1Q304.5 212.9 304.5 217.8L304.5 217.8Q304.5 222.8 306.5 225.6Q308.4 228.3 311.8 228.3ZM348.4 235.3L348.4 235.3Q340.8 235.3 336.4 230.6Q331.9 225.9 331.9 217.8L331.9 217.8Q331.9 209.8 336.3 205.1Q340.8 200.3 348.3 200.3L348.3 200.3Q353.3 200.3 357.2 202.5Q361.1 204.7 362.5 208.3L362.5 208.3Q363.0 209.6 363.0 210.6L363.0 210.6Q363.0 212.2 361.9 213.2Q360.8 214.1 359.1 214.1L359.1 214.1Q357.7 214.1 356.8 213.6Q355.9 213.0 355.2 211.8L355.2 211.8Q352.8 207.5 348.6 207.5L348.6 207.5Q345.2 207.5 343.2 210.2Q341.2 212.9 341.2 217.8L341.2 217.8Q341.2 222.7 343.1 225.4Q345.1 228.1 348.6 228.1L348.6 228.1Q352.8 228.1 355.1 224.2L355.1 224.2Q356.1 222.7 357.0 222.1Q357.9 221.5 359.3 221.5L359.3 221.5Q360.9 221.5 362.0 222.5Q363.1 223.5 363.1 225.1L363.1 225.1Q363.1 226.2 362.5 227.5L362.5 227.5Q361.0 231.0 357.1 233.1Q353.2 235.3 348.4 235.3ZM376.2 195.5Q374.8 196.9 372.7 196.9Q370.7 196.9 369.3 195.5Q367.8 194.1 367.8 192.2L367.8 192.2Q367.8 190.2 369.3 188.8Q370.7 187.5 372.7 187.5Q374.8 187.5 376.2 188.8Q377.6 190.2 377.6 192.2L377.6 192.2Q377.6 194.1 376.2 195.5ZM376.1 233.9Q374.8 235.2 372.7 235.2Q370.6 235.2 369.4 233.9Q368.2 232.7 368.2 230.5L368.2 230.5L368.2 205.1Q368.2 202.9 369.4 201.6Q370.6 200.4 372.7 200.4Q374.8 200.4 376.1 201.6Q377.3 202.9 377.3 205.1L377.3 205.1L377.3 230.5Q377.3 232.7 376.1 233.9ZM393.3 235.1L393.3 235.1Q388.4 235.1 385.2 232.2Q382.0 229.4 382.0 224.9L382.0 224.9Q382.0 220.4 385.4 217.8Q388.8 215.2 395.1 214.8L395.1 214.8L403.5 214.3L403.5 212.1Q403.5 209.8 402.0 208.5Q400.5 207.1 397.9 207.1L397.9 207.1Q395.8 207.1 394.4 207.9Q392.9 208.7 391.4 210.7L391.4 210.7Q389.9 212.4 387.8 212.4L387.8 212.4Q386.1 212.4 385.0 211.4Q384.0 210.4 384.0 208.9L384.0 208.9Q384.0 207.8 384.4 206.8L384.4 206.8Q385.6 203.8 389.3 202.1Q393.1 200.3 398.3 200.3L398.3 200.3Q404.8 200.3 408.6 203.4Q412.5 206.5 412.5 211.5L412.5 211.5L412.5 230.6Q412.5 232.8 411.3 234.0Q410.1 235.2 408.1 235.2L408.1 235.2Q406.2 235.2 405.0 234.2Q403.8 233.1 403.7 231.1L403.7 231.1L403.7 229.4L403.5 229.4Q402.1 232.1 399.3 233.6Q396.5 235.1 393.3 235.1ZM396.3 228.5L396.3 228.5Q399.3 228.5 401.4 226.7Q403.5 225.0 403.5 222.3L403.5 222.3L403.5 219.8L396.5 220.3Q393.9 220.5 392.5 221.6Q391.1 222.6 391.1 224.4L391.1 224.4Q391.1 226.3 392.5 227.4Q393.9 228.5 396.3 228.5ZM426.5 234.0Q425.2 235.2 423.2 235.2Q421.1 235.2 419.8 234.0Q418.6 232.7 418.6 230.5L418.6 230.5L418.6 193.6Q418.6 191.3 419.8 190.0Q421.1 188.8 423.2 188.8Q425.2 188.8 426.5 190.0Q427.7 191.3 427.7 193.6L427.7 193.6L427.7 230.5Q427.7 232.7 426.5 234.0Z M455.5 233.9Q454.3 235.2 452.0 235.2Q449.8 235.2 448.6 233.9Q447.3 232.6 447.3 230.3L447.3 230.3L447.3 194.4Q447.3 192.1 448.6 190.8Q449.8 189.5 452.0 189.5L452.0 189.5L465.8 189.5Q473.5 189.5 477.8 193.3Q482.1 197.1 482.1 203.8L482.1 203.8Q482.1 208.1 480.1 211.5Q478.0 214.8 474.3 216.4L474.3 216.4L480.8 227.6Q481.8 229.4 481.8 230.9L481.8 230.9Q481.8 232.8 480.5 234.0Q479.2 235.2 477.1 235.2L477.1 235.2Q475.4 235.2 474.4 234.5Q473.4 233.7 472.3 231.6L472.3 231.6L464.8 218.1L456.8 218.1L456.8 230.3Q456.8 232.6 455.5 233.9ZM456.8 196.8L456.8 211.2L464.9 211.2Q468.4 211.2 470.4 209.3Q472.4 207.4 472.4 204.0L472.4 204.0Q472.4 200.7 470.3 198.8Q468.3 196.8 464.8 196.8L464.8 196.8L456.8 196.8ZM515 230.6Q510.5 235.3 502.9 235.3Q495.2 235.3 490.8 230.6Q486.3 226.0 486.3 217.8L486.3 217.8Q486.3 209.7 490.8 205.0Q495.3 200.3 502.9 200.3L502.9 200.3Q510.5 200.3 515.0 205.0Q519.5 209.7 519.5 217.8L519.5 217.8Q519.5 226.0 515 230.6ZM502.9 228.3L502.9 228.3Q506.3 228.3 508.2 225.6Q510.2 222.8 510.2 217.8L510.2 217.8Q510.2 212.9 508.2 210.1Q506.3 207.3 502.9 207.3Q499.5 207.3 497.5 210.1Q495.5 212.9 495.5 217.8L495.5 217.8Q495.5 222.8 497.5 225.6Q499.5 228.3 502.9 228.3ZM528.8 235.2L528.8 235.2Q526.8 235.2 525.6 234.0Q524.4 232.8 524.4 230.6L524.4 230.6L524.4 193.6Q524.4 191.3 525.6 190.0Q526.9 188.8 528.9 188.8Q531 188.8 532.3 190.0Q533.5 191.3 533.5 193.6L533.5 193.6L533.5 206.9L533.7 206.9Q535.1 203.9 537.8 202.2Q540.5 200.5 544.0 200.5L544.0 200.5Q550.4 200.5 554.0 205.1Q557.7 209.7 557.7 217.8Q557.7 225.9 554.0 230.5Q550.4 235.1 544.1 235.1L544.1 235.1Q540.4 235.1 537.7 233.4Q535 231.8 533.6 228.8L533.6 228.8L533.4 228.8L533.4 230.6Q533.4 232.8 532.1 234.0Q530.9 235.2 528.8 235.2ZM540.9 227.7L540.9 227.7Q544.3 227.7 546.3 225.1Q548.3 222.4 548.3 217.8L548.3 217.8Q548.3 213.2 546.3 210.5Q544.3 207.8 540.9 207.8L540.9 207.8Q537.6 207.8 535.5 210.6Q533.5 213.3 533.5 217.8L533.5 217.8Q533.5 222.3 535.5 225.0Q537.6 227.7 540.9 227.7ZM589.9 230.6Q585.4 235.3 577.8 235.3Q570.1 235.3 565.6 230.6Q561.2 226.0 561.2 217.8L561.2 217.8Q561.2 209.7 565.7 205.0Q570.2 200.3 577.8 200.3L577.8 200.3Q585.3 200.3 589.8 205.0Q594.3 209.7 594.3 217.8L594.3 217.8Q594.3 226.0 589.9 230.6ZM577.8 228.3L577.8 228.3Q581.1 228.3 583.1 225.6Q585.1 222.8 585.1 217.8L585.1 217.8Q585.1 212.9 583.1 210.1Q581.1 207.3 577.8 207.3Q574.4 207.3 572.4 210.1Q570.4 212.9 570.4 217.8L570.4 217.8Q570.4 222.8 572.4 225.6Q574.3 228.3 577.8 228.3ZM601.5 226.0L601.5 226.0L601.5 207.9L599.7 207.9Q598.1 207.9 597.1 207.0Q596.2 206.1 596.2 204.5Q596.2 202.9 597.1 202.0Q598.1 201.1 599.7 201.1L599.7 201.1L601.5 201.1L601.5 197.3Q601.5 195.1 602.7 193.8Q603.9 192.6 606.0 192.6Q608.2 192.6 609.4 193.8Q610.6 195.1 610.6 197.3L610.6 197.3L610.6 201.1L613.8 201.1Q615.4 201.1 616.4 202.0Q617.3 202.9 617.3 204.5Q617.3 206.1 616.4 207.0Q615.4 207.9 613.8 207.9L613.8 207.9L610.6 207.9L610.6 224.0Q610.6 225.7 611.3 226.6Q611.9 227.4 613.4 227.5L613.4 227.5L614.0 227.6Q615.7 227.7 616.6 228.5Q617.4 229.3 617.4 230.9L617.4 230.9Q617.4 232.8 615.7 233.9Q613.9 234.9 611.0 234.9L611.0 234.9L610.7 234.9Q601.5 234.9 601.5 226.0ZM635.4 235.3L635.4 235.3Q629.8 235.3 626.0 233.4Q622.3 231.6 621.0 228.6L621.0 228.6Q620.7 227.6 620.7 226.9L620.7 226.9Q620.7 225.3 621.7 224.4Q622.8 223.4 624.4 223.4L624.4 223.4Q626.5 223.4 628.3 225.5L628.3 225.5Q629.7 227.2 631.4 228.1Q633.1 228.9 635.7 228.9L635.7 228.9Q638.2 228.9 639.6 227.9Q641.1 226.9 641.1 225.3L641.1 225.3Q641.1 223.9 640.1 223.1Q639.1 222.3 636.7 221.8L636.7 221.8L631.1 220.6Q626.2 219.5 623.7 217.1Q621.2 214.6 621.2 210.9L621.2 210.9Q621.2 206.1 625.0 203.2Q628.9 200.3 635.4 200.3L635.4 200.3Q640.5 200.3 644.1 202.3Q647.7 204.3 648.5 207.3L648.5 207.3Q648.8 208.1 648.8 208.6L648.8 208.6Q648.8 210.1 647.9 210.9Q647.0 211.7 645.3 211.7L645.3 211.7Q643.1 211.7 641.9 210.3L641.9 210.3Q640.6 208.6 639.0 207.7Q637.5 206.7 635.3 206.7L635.3 206.7Q632.9 206.7 631.5 207.7Q630 208.7 630 210.4L630 210.4Q630 211.7 631.1 212.6Q632.2 213.5 634.7 214.0L634.7 214.0L640.2 215.2Q645.5 216.3 647.9 218.4Q650.3 220.6 650.3 224.3L650.3 224.3Q650.3 229.3 646.2 232.3Q642.1 235.3 635.4 235.3Z M677.3 235.1L677.3 235.1Q672.5 235.1 669.3 232.2Q666.1 229.4 666.1 224.9L666.1 224.9Q666.1 220.4 669.5 217.8Q672.8 215.2 679.2 214.8L679.2 214.8L687.6 214.3L687.6 212.1Q687.6 209.8 686.1 208.5Q684.6 207.1 682.0 207.1L682.0 207.1Q679.9 207.1 678.4 207.9Q677 208.7 675.5 210.7L675.5 210.7Q674.0 212.4 671.8 212.4L671.8 212.4Q670.2 212.4 669.1 211.4Q668.0 210.4 668.0 208.9L668.0 208.9Q668.0 207.8 668.5 206.8L668.5 206.8Q669.7 203.8 673.4 202.1Q677.2 200.3 682.4 200.3L682.4 200.3Q688.8 200.3 692.7 203.4Q696.6 206.5 696.6 211.5L696.6 211.5L696.6 230.6Q696.6 232.8 695.3 234.0Q694.1 235.2 692.1 235.2L692.1 235.2Q690.2 235.2 689.0 234.2Q687.9 233.1 687.8 231.1L687.8 231.1L687.8 229.4L687.6 229.4Q686.2 232.1 683.4 233.6Q680.5 235.1 677.3 235.1ZM680.3 228.5L680.3 228.5Q683.3 228.5 685.5 226.7Q687.6 225.0 687.6 222.3L687.6 222.3L687.6 219.8L680.5 220.3Q678.0 220.5 676.6 221.6Q675.2 222.6 675.2 224.4L675.2 224.4Q675.2 226.3 676.6 227.4Q678 228.5 680.3 228.5ZM710.3 234.0Q709.1 235.2 707 235.2Q704.9 235.2 703.7 234.0Q702.4 232.7 702.4 230.5L702.4 230.5L702.4 205.0Q702.4 202.8 703.6 201.6Q704.8 200.4 706.8 200.4Q708.9 200.4 710.2 201.6Q711.4 202.9 711.4 205.0L711.4 205.0L711.4 206.9L711.6 206.9Q714.3 200.4 721.9 200.4L721.9 200.4Q727.5 200.4 730.5 203.7Q733.5 207.1 733.5 213.0L733.5 213.0L733.5 230.5Q733.5 232.7 732.3 234.0Q731.0 235.2 729.0 235.2Q726.9 235.2 725.7 234.0Q724.4 232.7 724.4 230.5L724.4 230.5L724.4 214.9Q724.4 211.6 722.8 209.8Q721.3 208.0 718.3 208.0Q715.2 208.0 713.4 210.0Q711.6 212.1 711.6 215.3L711.6 215.3L711.6 230.5Q711.6 232.7 710.3 234.0ZM751.8 235.1L751.8 235.1Q745.5 235.1 741.8 230.4Q738.1 225.8 738.1 217.7L738.1 217.7Q738.1 209.8 741.8 205.1Q745.5 200.5 751.8 200.5L751.8 200.5Q755.4 200.5 758.1 202.2Q760.8 204.0 762.0 206.8L762.0 206.8L762.2 206.8L762.2 193.6Q762.2 191.3 763.5 190.0Q764.7 188.8 766.8 188.8Q768.8 188.8 770.1 190.0Q771.3 191.3 771.3 193.6L771.3 193.6L771.3 230.6Q771.3 232.8 770.1 234.0Q768.9 235.2 766.8 235.2L766.8 235.2Q764.8 235.2 763.5 234.0Q762.2 232.8 762.2 230.6L762.2 230.6L762.2 228.6L762.1 228.6Q760.9 231.6 758.2 233.3Q755.5 235.1 751.8 235.1ZM754.8 227.7L754.8 227.7Q758.3 227.7 760.3 225.1Q762.3 222.4 762.3 217.8L762.3 217.8Q762.3 213.2 760.3 210.5Q758.3 207.8 754.8 207.8L754.8 207.8Q751.4 207.8 749.4 210.5Q747.4 213.2 747.4 217.8L747.4 217.8Q747.4 222.4 749.4 225.1Q751.4 227.7 754.8 227.7Z M793.9 235.1L793.9 235.1Q791.7 235.1 790.4 233.9Q789.1 232.7 789.1 230.7L789.1 230.7Q789.1 229.5 789.7 227.7L789.7 227.7L802.0 194.2Q803.0 191.4 804.8 190.1Q806.5 188.8 809.1 188.8L809.1 188.8Q811.9 188.8 813.6 190.1Q815.3 191.4 816.3 194.1L816.3 194.1L828.7 227.7Q829.3 229.4 829.3 230.7L829.3 230.7Q829.3 232.6 828.0 233.9Q826.7 235.1 824.6 235.1L824.6 235.1Q822.6 235.1 821.5 234.2Q820.3 233.2 819.7 231.0L819.7 231.0L817.3 223.9L801.0 223.9L798.7 230.9Q798 233.1 796.9 234.1Q795.8 235.1 793.9 235.1ZM808.9 198.1L803.1 216.6L815.1 216.6L809.2 198.1L808.9 198.1ZM843.2 233.8Q842.0 235.1 839.8 235.1Q837.5 235.1 836.3 233.8Q835.0 232.6 835.0 230.2L835.0 230.2L835.0 193.8Q835.0 191.4 836.3 190.1Q837.5 188.8 839.8 188.8Q842.0 188.8 843.2 190.1Q844.5 191.4 844.5 193.8L844.5 193.8L844.5 230.2Q844.5 232.6 843.2 233.8Z M866.3 226.0L866.3 226.0L866.3 207.9L864.5 207.9Q862.9 207.9 862.0 207.0Q861 206.1 861 204.5Q861 202.9 862.0 202.0Q862.9 201.1 864.5 201.1L864.5 201.1L866.3 201.1L866.3 197.3Q866.3 195.1 867.5 193.8Q868.7 192.6 870.8 192.6Q873.0 192.6 874.2 193.8Q875.4 195.1 875.4 197.3L875.4 197.3L875.4 201.1L878.6 201.1Q880.3 201.1 881.2 202.0Q882.1 202.9 882.1 204.5Q882.1 206.1 881.2 207.0Q880.3 207.9 878.6 207.9L878.6 207.9L875.4 207.9L875.4 224.0Q875.4 225.7 876.1 226.6Q876.7 227.4 878.2 227.5L878.2 227.5L878.8 227.6Q880.5 227.7 881.4 228.5Q882.3 229.3 882.3 230.9L882.3 230.9Q882.3 232.8 880.5 233.9Q878.8 234.9 875.8 234.9L875.8 234.9L875.5 234.9Q866.3 234.9 866.3 226.0ZM914.1 230.6Q909.6 235.3 902.0 235.3Q894.3 235.3 889.8 230.6Q885.4 226.0 885.4 217.8L885.4 217.8Q885.4 209.7 889.9 205.0Q894.4 200.3 902.0 200.3L902.0 200.3Q909.6 200.3 914.1 205.0Q918.6 209.7 918.6 217.8L918.6 217.8Q918.6 226.0 914.1 230.6ZM902.0 228.3L902.0 228.3Q905.3 228.3 907.3 225.6Q909.3 222.8 909.3 217.8L909.3 217.8Q909.3 212.9 907.3 210.1Q905.3 207.3 902.0 207.3Q898.6 207.3 896.6 210.1Q894.6 212.9 894.6 217.8L894.6 217.8Q894.6 222.8 896.6 225.6Q898.6 228.3 902.0 228.3Z M83.9 307.4Q82.7 308.7 80.5 308.7Q78.3 308.7 77 307.4Q75.8 306.1 75.8 303.8L75.8 303.8L75.8 268.0Q75.8 265.6 77 264.4Q78.3 263.1 80.5 263.1L80.5 263.1L94.1 263.1Q101.1 263.1 105.4 267.3Q109.7 271.6 109.7 278.5L109.7 278.5Q109.7 285.4 105.3 289.7Q100.8 293.9 93.6 293.9L93.6 293.9L85.2 293.9L85.2 303.8Q85.2 306.1 83.9 307.4ZM85.2 270.5L85.2 286.6L91.6 286.6Q95.6 286.6 97.9 284.5Q100.1 282.4 100.1 278.5Q100.1 274.7 97.9 272.6Q95.7 270.5 91.6 270.5L91.6 270.5L85.2 270.5ZM129.9 308.9L129.9 308.9Q122.1 308.9 117.7 304.3Q113.3 299.7 113.3 291.6L113.3 291.6Q113.3 283.5 117.7 278.7Q122.0 273.9 129.5 273.9L129.5 273.9Q136.6 273.9 141.0 278.3Q145.3 282.6 145.3 289.5L145.3 289.5Q145.3 291.4 144.3 292.5Q143.3 293.5 141.4 293.5L141.4 293.5L122.3 293.5L122.3 293.9Q122.3 297.6 124.3 299.9Q126.4 302.1 129.9 302.1L129.9 302.1Q132.4 302.1 134.2 301.2Q136.0 300.3 137.9 298.1L137.9 298.1Q139.2 296.7 140.8 296.7L140.8 296.7Q142.4 296.7 143.4 297.6Q144.4 298.6 144.4 300.1L144.4 300.1Q144.4 301.1 143.8 302.3L143.8 302.3Q142.1 305.4 138.4 307.1Q134.8 308.9 129.9 308.9ZM122.3 287.9L122.3 287.9L136.6 287.9Q136.4 284.6 134.5 282.6Q132.6 280.7 129.6 280.7Q126.6 280.7 124.6 282.7Q122.6 284.7 122.3 287.9ZM154.6 308.8L154.6 308.8Q152.5 308.8 151.3 307.6Q150.0 306.3 150.0 304.1L150.0 304.1L150.0 278.6Q150.0 276.4 151.2 275.2Q152.4 274.0 154.4 274.0L154.4 274.0Q156.4 274.0 157.6 275.2Q158.8 276.4 158.8 278.6L158.8 278.6L158.8 280.7L158.9 280.7Q159.6 277.6 161.5 275.9Q163.4 274.1 165.9 274.1L165.9 274.1Q167.8 274.1 168.8 275.0L168.8 275.0Q170.1 276.0 170.1 278.3L170.1 278.3Q170.1 280.5 168.8 281.6L168.8 281.6Q167.4 282.8 164.8 282.8L164.8 282.8Q161.8 282.8 160.5 284.4Q159.2 286.1 159.2 289.2L159.2 289.2L159.2 304.1Q159.2 306.3 157.9 307.6Q156.7 308.8 154.6 308.8ZM183.6 307.6Q182.4 308.8 180.3 308.8Q178.2 308.8 177.0 307.6Q175.8 306.4 175.8 304.1L175.8 304.1L175.8 281.5L174 281.5Q172.5 281.5 171.6 280.6Q170.7 279.7 170.7 278.1Q170.7 276.6 171.6 275.7Q172.5 274.8 174 274.8L174 274.8L175.8 274.8L175.8 272.3Q175.8 267.4 178.1 265.0Q180.5 262.7 185.3 262.6L185.3 262.6Q188.8 262.6 190.5 263.6Q192.2 264.6 192.2 266.3L192.2 266.3Q192.2 268.2 190.3 268.7L190.3 268.7Q189.5 269.0 188.6 269.0L188.6 269.0Q186.5 269.1 185.6 269.9Q184.7 270.8 184.7 272.7L184.7 272.7L184.7 274.8L188.5 274.8Q190.0 274.8 190.9 275.7Q191.8 276.6 191.8 278.1Q191.8 279.7 190.9 280.6Q190.0 281.5 188.5 281.5L188.5 281.5L184.9 281.5L184.9 304.1Q184.9 306.4 183.6 307.6ZM223.6 304.2Q219.1 308.9 211.5 308.9Q203.8 308.9 199.3 304.2Q194.9 299.6 194.9 291.4L194.9 291.4Q194.9 283.3 199.4 278.6Q203.9 273.9 211.5 273.9L211.5 273.9Q219.1 273.9 223.6 278.6Q228.1 283.3 228.1 291.4L228.1 291.4Q228.1 299.6 223.6 304.2ZM211.5 301.9L211.5 301.9Q214.8 301.9 216.8 299.1Q218.8 296.4 218.8 291.4L218.8 291.4Q218.8 286.5 216.8 283.7Q214.8 280.9 211.5 280.9Q208.1 280.9 206.1 283.7Q204.1 286.5 204.1 291.4L204.1 291.4Q204.1 296.4 206.1 299.1Q208.1 301.9 211.5 301.9ZM237.3 308.8L237.3 308.8Q235.2 308.8 234.0 307.6Q232.8 306.3 232.8 304.1L232.8 304.1L232.8 278.6Q232.8 276.4 234.0 275.2Q235.2 274.0 237.2 274.0L237.2 274.0Q239.1 274.0 240.3 275.2Q241.5 276.4 241.5 278.6L241.5 278.6L241.5 280.7L241.7 280.7Q242.3 277.6 244.2 275.9Q246.1 274.1 248.6 274.1L248.6 274.1Q250.5 274.1 251.5 275.0L251.5 275.0Q252.8 276.0 252.8 278.3L252.8 278.3Q252.8 280.5 251.5 281.6L251.5 281.6Q250.1 282.8 247.5 282.8L247.5 282.8Q244.5 282.8 243.2 284.4Q241.9 286.1 241.9 289.2L241.9 289.2L241.9 304.1Q241.9 306.3 240.7 307.6Q239.4 308.8 237.3 308.8ZM260.6 308.8L260.6 308.8Q258.5 308.8 257.3 307.6Q256.0 306.3 256.0 304.1L256.0 304.1L256.0 278.6Q256.0 276.4 257.2 275.2Q258.4 274.0 260.4 274.0Q262.4 274.0 263.6 275.2Q264.8 276.4 264.8 278.6L264.8 278.6L264.8 280.7L265.0 280.7Q266.1 277.6 268.7 275.8Q271.2 274.0 274.6 274.0L274.6 274.0Q278.2 274.0 280.7 275.8Q283.1 277.6 283.9 280.9L283.9 280.9L284.1 280.9Q285.3 277.7 288.0 275.9Q290.8 274.0 294.5 274.0L294.5 274.0Q299.5 274.0 302.5 277.1Q305.5 280.2 305.5 285.3L305.5 285.3L305.5 304.1Q305.5 306.3 304.3 307.6Q303 308.8 300.9 308.8L300.9 308.8Q298.8 308.8 297.6 307.6Q296.4 306.3 296.4 304.1L296.4 304.1L296.4 287.6Q296.4 284.6 295.0 283.1Q293.6 281.6 290.9 281.6L290.9 281.6Q288.3 281.6 286.7 283.3Q285.2 285.0 285.2 287.8L285.2 287.8L285.2 304.1Q285.2 306.3 284.0 307.6Q282.8 308.8 280.8 308.8L280.8 308.8Q278.7 308.8 277.5 307.6Q276.4 306.3 276.4 304.1L276.4 304.1L276.4 287.3Q276.4 284.6 274.9 283.1Q273.5 281.6 271.0 281.6L271.0 281.6Q268.4 281.6 266.8 283.3Q265.2 285.1 265.2 287.9L265.2 287.9L265.2 304.1Q265.2 306.3 263.9 307.6Q262.7 308.8 260.6 308.8Z M345.0 308.9L345.0 308.9Q334.9 308.9 329.1 302.7Q323.3 296.4 323.3 285.5L323.3 285.5Q323.3 274.6 329.1 268.5Q334.8 262.3 344.8 262.3L344.8 262.3Q351.2 262.3 356 264.9Q360.8 267.6 362.8 271.9L362.8 271.9Q363.5 273.3 363.5 274.8L363.5 274.8Q363.5 276.6 362.3 277.7Q361.2 278.8 359.3 278.8L359.3 278.8Q356.4 278.8 354.8 276.1L354.8 276.1Q351.5 270.1 344.8 270.1L344.8 270.1Q339.3 270.1 336.1 274.1Q332.9 278.1 332.9 285.3L332.9 285.3Q332.9 292.6 336.2 296.9Q339.5 301.1 345.2 301.1L345.2 301.1Q349.8 301.1 352.7 298.5Q355.7 295.9 355.8 291.7L355.8 291.7L355.8 291.0L349.3 291.0Q347.6 291.0 346.5 290.1Q345.5 289.1 345.5 287.6Q345.5 286.0 346.5 285.0Q347.6 284.1 349.3 284.1L349.3 284.1L360.3 284.1Q362.5 284.1 363.8 285.4Q365.0 286.7 365.0 289.0L365.0 289.0L365.0 289.7Q365.0 298.5 359.7 303.7Q354.4 308.9 345.0 308.9ZM385.9 308.9L385.9 308.9Q378.0 308.9 373.6 304.3Q369.3 299.7 369.3 291.6L369.3 291.6Q369.3 283.5 373.6 278.7Q378 273.9 385.4 273.9L385.4 273.9Q392.5 273.9 396.9 278.3Q401.3 282.6 401.3 289.5L401.3 289.5Q401.3 291.4 400.3 292.5Q399.3 293.5 397.3 293.5L397.3 293.5L378.2 293.5L378.2 293.9Q378.2 297.6 380.3 299.9Q382.4 302.1 385.8 302.1L385.8 302.1Q388.3 302.1 390.2 301.2Q392 300.3 393.8 298.1L393.8 298.1Q395.2 296.7 396.8 296.7L396.8 296.7Q398.3 296.7 399.4 297.6Q400.4 298.6 400.4 300.1L400.4 300.1Q400.4 301.1 399.8 302.3L399.8 302.3Q398.1 305.4 394.4 307.1Q390.7 308.9 385.9 308.9ZM378.3 287.9L378.3 287.9L392.5 287.9Q392.4 284.6 390.5 282.6Q388.5 280.7 385.5 280.7Q382.5 280.7 380.5 282.7Q378.6 284.7 378.3 287.9ZM413.9 307.6Q412.6 308.8 410.6 308.8Q408.5 308.8 407.3 307.6Q406 306.3 406 304.1L406 304.1L406 278.6Q406 276.4 407.2 275.2Q408.3 274.0 410.4 274.0Q412.5 274.0 413.7 275.2Q415.0 276.5 415.0 278.6L415.0 278.6L415.0 280.5L415.2 280.5Q417.9 274.0 425.5 274.0L425.5 274.0Q431.0 274.0 434.1 277.3Q437.1 280.6 437.1 286.6L437.1 286.6L437.1 304.1Q437.1 306.3 435.8 307.6Q434.6 308.8 432.5 308.8Q430.5 308.8 429.2 307.6Q428.0 306.3 428.0 304.1L428.0 304.1L428.0 288.5Q428.0 285.1 426.4 283.4Q424.8 281.6 421.8 281.6Q418.8 281.6 417.0 283.6Q415.1 285.6 415.1 288.9L415.1 288.9L415.1 304.1Q415.1 306.3 413.9 307.6ZM458.3 308.9L458.3 308.9Q450.4 308.9 446.0 304.3Q441.7 299.7 441.7 291.6L441.7 291.6Q441.7 283.5 446.0 278.7Q450.4 273.9 457.8 273.9L457.8 273.9Q464.9 273.9 469.3 278.3Q473.7 282.6 473.7 289.5L473.7 289.5Q473.7 291.4 472.7 292.5Q471.7 293.5 469.8 293.5L469.8 293.5L450.6 293.5L450.6 293.9Q450.6 297.6 452.7 299.9Q454.8 302.1 458.3 302.1L458.3 302.1Q460.8 302.1 462.6 301.2Q464.4 300.3 466.3 298.1L466.3 298.1Q467.6 296.7 469.2 296.7L469.2 296.7Q470.8 296.7 471.8 297.6Q472.8 298.6 472.8 300.1L472.8 300.1Q472.8 301.1 472.2 302.3L472.2 302.3Q470.5 305.4 466.8 307.1Q463.1 308.9 458.3 308.9ZM450.7 287.9L450.7 287.9L464.9 287.9Q464.8 284.6 462.9 282.6Q460.9 280.7 457.9 280.7Q454.9 280.7 453.0 282.7Q451.0 284.7 450.7 287.9ZM480.8 299.6L480.8 299.6L480.8 281.5L479.1 281.5Q477.5 281.5 476.5 280.6Q475.6 279.7 475.6 278.1Q475.6 276.5 476.5 275.6Q477.5 274.6 479.1 274.6L479.1 274.6L480.8 274.6L480.8 270.9Q480.8 268.7 482.1 267.4Q483.3 266.2 485.4 266.2Q487.5 266.2 488.8 267.4Q490.0 268.7 490.0 270.9L490.0 270.9L490.0 274.6L493.2 274.6Q494.8 274.6 495.8 275.6Q496.7 276.5 496.7 278.1Q496.7 279.6 495.8 280.6Q494.8 281.5 493.2 281.5L493.2 281.5L490.0 281.5L490.0 297.6Q490.0 299.3 490.6 300.1Q491.3 301.0 492.8 301.1L492.8 301.1L493.3 301.1Q495.1 301.3 496.0 302.1Q496.8 302.9 496.8 304.5L496.8 304.5Q496.8 306.4 495.1 307.5Q493.3 308.5 490.3 308.5L490.3 308.5L490.0 308.5Q480.8 308.5 480.8 299.6ZM509.3 269.1Q507.9 270.5 505.9 270.5Q503.8 270.5 502.4 269.1Q501 267.7 501 265.8L501 265.8Q501 263.8 502.4 262.4Q503.8 261.1 505.9 261.1Q507.9 261.1 509.3 262.4Q510.8 263.8 510.8 265.8L510.8 265.8Q510.8 267.7 509.3 269.1ZM509.2 307.5Q508 308.8 505.9 308.8Q503.8 308.8 502.5 307.5Q501.3 306.3 501.3 304.1L501.3 304.1L501.3 278.7Q501.3 276.5 502.5 275.2Q503.8 274.0 505.9 274.0Q508 274.0 509.2 275.2Q510.4 276.5 510.4 278.7L510.4 278.7L510.4 304.1Q510.4 306.3 509.2 307.5ZM531.8 308.9L531.8 308.9Q524.2 308.9 519.7 304.2Q515.3 299.5 515.3 291.4L515.3 291.4Q515.3 283.4 519.7 278.6Q524.2 273.9 531.7 273.9L531.7 273.9Q536.7 273.9 540.6 276.1Q544.5 278.3 545.8 281.9L545.8 281.9Q546.3 283.2 546.3 284.2L546.3 284.2Q546.3 285.8 545.2 286.8Q544.1 287.7 542.4 287.7L542.4 287.7Q541.1 287.7 540.2 287.2Q539.3 286.6 538.6 285.4L538.6 285.4Q536.2 281.1 532 281.1L532 281.1Q528.5 281.1 526.5 283.8Q524.5 286.5 524.5 291.4L524.5 291.4Q524.5 296.3 526.5 299.0Q528.5 301.7 531.9 301.7L531.9 301.7Q536.2 301.7 538.5 297.8L538.5 297.8Q539.4 296.3 540.3 295.7Q541.3 295.1 542.7 295.1L542.7 295.1Q544.3 295.1 545.4 296.1Q546.5 297.1 546.5 298.7L546.5 298.7Q546.5 299.8 545.9 301.1L545.9 301.1Q544.4 304.6 540.5 306.7Q536.6 308.9 531.8 308.9Z M573 307.5Q571.8 308.8 569.5 308.8Q567.3 308.8 566.1 307.5Q564.8 306.2 564.8 303.9L564.8 303.9L564.8 268.0Q564.8 265.6 566.1 264.4Q567.3 263.1 569.5 263.1L569.5 263.1L583.3 263.1Q591 263.1 595.3 266.9Q599.6 270.7 599.6 277.4L599.6 277.4Q599.6 281.7 597.6 285.1Q595.5 288.4 591.8 290.0L591.8 290.0L598.3 301.2Q599.3 303.0 599.3 304.5L599.3 304.5Q599.3 306.4 598 307.6Q596.7 308.8 594.6 308.8L594.6 308.8Q592.9 308.8 591.9 308.1Q590.9 307.3 589.8 305.2L589.8 305.2L582.3 291.6L574.3 291.6L574.3 303.9Q574.3 306.2 573 307.5ZM574.3 270.4L574.3 284.8L582.4 284.8Q585.9 284.8 587.9 282.9Q589.9 281.0 589.9 277.6L589.9 277.6Q589.9 274.3 587.8 272.4Q585.8 270.4 582.3 270.4L582.3 270.4L574.3 270.4ZM613.2 269.1Q611.8 270.5 609.7 270.5Q607.7 270.5 606.3 269.1Q604.8 267.7 604.8 265.8L604.8 265.8Q604.8 263.8 606.3 262.4Q607.7 261.1 609.7 261.1Q611.8 261.1 613.2 262.4Q614.6 263.8 614.6 265.8L614.6 265.8Q614.6 267.7 613.2 269.1ZM613.1 307.5Q611.8 308.8 609.7 308.8Q607.6 308.8 606.4 307.5Q605.2 306.3 605.2 304.1L605.2 304.1L605.2 278.7Q605.2 276.5 606.4 275.2Q607.6 274.0 609.7 274.0Q611.8 274.0 613.1 275.2Q614.3 276.5 614.3 278.7L614.3 278.7L614.3 304.1Q614.3 306.3 613.1 307.5ZM634 308.9L634 308.9Q628.4 308.9 624.6 307.0Q620.8 305.2 619.6 302.2L619.6 302.2Q619.3 301.2 619.3 300.5L619.3 300.5Q619.3 298.9 620.3 298.0Q621.3 297.0 622.9 297.0L622.9 297.0Q625.1 297.0 626.9 299.1L626.9 299.1Q628.3 300.8 630.0 301.6Q631.7 302.5 634.2 302.5L634.2 302.5Q636.7 302.5 638.2 301.5Q639.7 300.5 639.7 298.9L639.7 298.9Q639.7 297.5 638.7 296.7Q637.7 295.9 635.3 295.4L635.3 295.4L629.6 294.2Q624.7 293.1 622.2 290.7Q619.8 288.2 619.8 284.5L619.8 284.5Q619.8 279.6 623.6 276.8Q627.5 273.9 634.0 273.9L634.0 273.9Q639.0 273.9 642.6 275.9Q646.3 277.9 647.1 280.9L647.1 280.9Q647.3 281.7 647.3 282.2L647.3 282.2Q647.3 283.6 646.4 284.5Q645.5 285.3 643.8 285.3L643.8 285.3Q641.7 285.3 640.5 283.9L640.5 283.9Q639.1 282.2 637.6 281.3Q636.1 280.3 633.8 280.3L633.8 280.3Q631.5 280.3 630.0 281.3Q628.6 282.3 628.6 284.0L628.6 284.0Q628.6 285.3 629.7 286.2Q630.8 287.1 633.2 287.6L633.2 287.6L638.8 288.8Q644.1 289.9 646.5 292.0Q648.8 294.1 648.8 297.9L648.8 297.9Q648.8 302.9 644.7 305.9Q640.7 308.9 634 308.9ZM661.4 307.6Q660.2 308.8 658.1 308.8Q656.0 308.8 654.8 307.6Q653.5 306.3 653.5 304.1L653.5 304.1L653.5 267.1Q653.5 264.9 654.8 263.6Q656.0 262.4 658.1 262.4Q660.2 262.4 661.4 263.6Q662.7 264.9 662.7 267.1L662.7 267.1L662.7 287.9L662.8 287.9L674.9 275.8Q676.6 274.0 678.5 274.0L678.5 274.0Q680.3 274.0 681.4 275.1Q682.6 276.2 682.6 277.9L682.6 277.9Q682.6 279.0 682.2 279.7Q681.8 280.5 680.9 281.4L680.9 281.4L672.3 289.4L681.7 301.3Q683.0 303.1 683.0 304.7L683.0 304.7Q683.0 306.5 681.8 307.6Q680.6 308.8 678.6 308.8L678.6 308.8Q677.2 308.8 676.2 308.2Q675.2 307.6 674.2 306.0L674.2 306.0L665.6 294.6L662.7 297.3L662.7 304.1Q662.7 306.3 661.4 307.6Z M704.2 308.7L704.2 308.7Q702 308.7 700.7 307.5Q699.4 306.3 699.4 304.3L699.4 304.3Q699.4 303.1 700.0 301.3L700.0 301.3L712.3 267.8Q713.3 265.0 715.1 263.7Q716.8 262.4 719.4 262.4L719.4 262.4Q722.2 262.4 723.9 263.7Q725.7 265.0 726.7 267.7L726.7 267.7L739.0 301.3Q739.6 303.0 739.6 304.3L739.6 304.3Q739.6 306.2 738.3 307.5Q737.0 308.7 734.9 308.7L734.9 308.7Q732.9 308.7 731.8 307.8Q730.6 306.8 730 304.6L730 304.6L727.6 297.5L711.3 297.5L709.0 304.5Q708.3 306.7 707.2 307.7Q706.1 308.7 704.2 308.7ZM719.3 271.7L713.4 290.1L725.4 290.1L719.5 271.7L719.3 271.7ZM758.2 308.9L758.2 308.9Q752.6 308.9 748.8 307.0Q745.0 305.2 743.8 302.2L743.8 302.2Q743.5 301.2 743.5 300.5L743.5 300.5Q743.5 298.9 744.5 298.0Q745.6 297.0 747.2 297.0L747.2 297.0Q749.3 297.0 751.1 299.1L751.1 299.1Q752.5 300.8 754.2 301.6Q755.9 302.5 758.4 302.5L758.4 302.5Q760.9 302.5 762.4 301.5Q763.9 300.5 763.9 298.9L763.9 298.9Q763.9 297.5 762.9 296.7Q761.9 295.9 759.5 295.4L759.5 295.4L753.8 294.2Q748.9 293.1 746.5 290.7Q744.0 288.2 744.0 284.5L744.0 284.5Q744.0 279.6 747.8 276.8Q751.7 273.9 758.2 273.9L758.2 273.9Q763.3 273.9 766.9 275.9Q770.5 277.9 771.3 280.9L771.3 280.9Q771.5 281.7 771.5 282.2L771.5 282.2Q771.5 283.6 770.6 284.5Q769.8 285.3 768.0 285.3L768.0 285.3Q765.9 285.3 764.7 283.9L764.7 283.9Q763.3 282.2 761.8 281.3Q760.3 280.3 758.0 280.3L758.0 280.3Q755.7 280.3 754.3 281.3Q752.8 282.3 752.8 284.0L752.8 284.0Q752.8 285.3 753.9 286.2Q755.0 287.1 757.4 287.6L757.4 287.6L763.0 288.8Q768.3 289.9 770.7 292.0Q773.0 294.1 773.0 297.9L773.0 297.9Q773.0 302.9 769.0 305.9Q764.9 308.9 758.2 308.9ZM791.2 308.9L791.2 308.9Q785.6 308.9 781.8 307.0Q778 305.2 776.8 302.2L776.8 302.2Q776.4 301.2 776.4 300.5L776.4 300.5Q776.4 298.9 777.5 298.0Q778.5 297.0 780.1 297.0L780.1 297.0Q782.3 297.0 784.1 299.1L784.1 299.1Q785.5 300.8 787.2 301.6Q788.8 302.5 791.4 302.5L791.4 302.5Q793.9 302.5 795.4 301.5Q796.9 300.5 796.9 298.9L796.9 298.9Q796.9 297.5 795.9 296.7Q794.9 295.9 792.4 295.4L792.4 295.4L786.8 294.2Q781.9 293.1 779.4 290.7Q776.9 288.2 776.9 284.5L776.9 284.5Q776.9 279.6 780.8 276.8Q784.7 273.9 791.2 273.9L791.2 273.9Q796.2 273.9 799.8 275.9Q803.4 277.9 804.3 280.9L804.3 280.9Q804.5 281.7 804.5 282.2L804.5 282.2Q804.5 283.6 803.6 284.5Q802.7 285.3 801 285.3L801 285.3Q798.9 285.3 797.7 283.9L797.7 283.9Q796.3 282.2 794.8 281.3Q793.3 280.3 791 280.3L791 280.3Q788.7 280.3 787.2 281.3Q785.8 282.3 785.8 284.0L785.8 284.0Q785.8 285.3 786.8 286.2Q787.9 287.1 790.4 287.6L790.4 287.6L795.9 288.8Q801.3 289.9 803.6 292.0Q806 294.1 806 297.9L806 297.9Q806 302.9 801.9 305.9Q797.8 308.9 791.2 308.9ZM825.9 308.9L825.9 308.9Q818.1 308.9 813.7 304.3Q809.3 299.7 809.3 291.6L809.3 291.6Q809.3 283.5 813.7 278.7Q818.0 273.9 825.5 273.9L825.5 273.9Q832.6 273.9 837.0 278.3Q841.3 282.6 841.3 289.5L841.3 289.5Q841.3 291.4 840.3 292.5Q839.3 293.5 837.4 293.5L837.4 293.5L818.3 293.5L818.3 293.9Q818.3 297.6 820.3 299.9Q822.4 302.1 825.9 302.1L825.9 302.1Q828.4 302.1 830.2 301.2Q832.0 300.3 833.9 298.1L833.9 298.1Q835.2 296.7 836.8 296.7L836.8 296.7Q838.4 296.7 839.4 297.6Q840.4 298.6 840.4 300.1L840.4 300.1Q840.4 301.1 839.8 302.3L839.8 302.3Q838.1 305.4 834.4 307.1Q830.8 308.9 825.9 308.9ZM818.3 287.9L818.3 287.9L832.6 287.9Q832.4 284.6 830.5 282.6Q828.6 280.7 825.6 280.7Q822.6 280.7 820.6 282.7Q818.6 284.7 818.3 287.9ZM859.7 308.9L859.7 308.9Q854.1 308.9 850.3 307.0Q846.5 305.2 845.3 302.2L845.3 302.2Q844.9 301.2 844.9 300.5L844.9 300.5Q844.9 298.9 846.0 298.0Q847.0 297.0 848.6 297.0L848.6 297.0Q850.8 297.0 852.6 299.1L852.6 299.1Q854.0 300.8 855.7 301.6Q857.3 302.5 859.9 302.5L859.9 302.5Q862.4 302.5 863.9 301.5Q865.4 300.5 865.4 298.9L865.4 298.9Q865.4 297.5 864.4 296.7Q863.4 295.9 860.9 295.4L860.9 295.4L855.3 294.2Q850.4 293.1 847.9 290.7Q845.4 288.2 845.4 284.5L845.4 284.5Q845.4 279.6 849.3 276.8Q853.2 273.9 859.7 273.9L859.7 273.9Q864.7 273.9 868.3 275.9Q871.9 277.9 872.8 280.9L872.8 280.9Q873 281.7 873 282.2L873 282.2Q873 283.6 872.1 284.5Q871.2 285.3 869.5 285.3L869.5 285.3Q867.4 285.3 866.2 283.9L866.2 283.9Q864.8 282.2 863.3 281.3Q861.8 280.3 859.5 280.3L859.5 280.3Q857.2 280.3 855.7 281.3Q854.3 282.3 854.3 284.0L854.3 284.0Q854.3 285.3 855.3 286.2Q856.4 287.1 858.9 287.6L858.9 287.6L864.4 288.8Q869.8 289.9 872.1 292.0Q874.5 294.1 874.5 297.9L874.5 297.9Q874.5 302.9 870.4 305.9Q866.3 308.9 859.7 308.9ZM892.7 308.9L892.7 308.9Q887.0 308.9 883.3 307.0Q879.5 305.2 878.3 302.2L878.3 302.2Q877.9 301.2 877.9 300.5L877.9 300.5Q877.9 298.9 879.0 298.0Q880 297.0 881.6 297.0L881.6 297.0Q883.7 297.0 885.6 299.1L885.6 299.1Q886.9 300.8 888.6 301.6Q890.3 302.5 892.9 302.5L892.9 302.5Q895.4 302.5 896.9 301.5Q898.3 300.5 898.3 298.9L898.3 298.9Q898.3 297.5 897.3 296.7Q896.3 295.9 893.9 295.4L893.9 295.4L888.3 294.2Q883.4 293.1 880.9 290.7Q878.4 288.2 878.4 284.5L878.4 284.5Q878.4 279.6 882.3 276.8Q886.1 273.9 892.6 273.9L892.6 273.9Q897.7 273.9 901.3 275.9Q904.9 277.9 905.8 280.9L905.8 280.9Q906.0 281.7 906.0 282.2L906.0 282.2Q906.0 283.6 905.1 284.5Q904.2 285.3 902.5 285.3L902.5 285.3Q900.3 285.3 899.2 283.9L899.2 283.9Q897.8 282.2 896.3 281.3Q894.8 280.3 892.5 280.3L892.5 280.3Q890.2 280.3 888.7 281.3Q887.2 282.3 887.2 284.0L887.2 284.0Q887.2 285.3 888.3 286.2Q889.4 287.1 891.9 287.6L891.9 287.6L897.4 288.8Q902.8 289.9 905.1 292.0Q907.5 294.1 907.5 297.9L907.5 297.9Q907.5 302.9 903.4 305.9Q899.3 308.9 892.7 308.9ZM916.5 308.8L916.5 308.8Q914.4 308.8 913.2 307.6Q912.0 306.3 912.0 304.1L912.0 304.1L912.0 278.6Q912.0 276.4 913.2 275.2Q914.4 274.0 916.4 274.0Q918.4 274.0 919.6 275.2Q920.8 276.4 920.8 278.6L920.8 278.6L920.8 280.7L921.0 280.7Q922.0 277.6 924.6 275.8Q927.2 274.0 930.5 274.0L930.5 274.0Q934.2 274.0 936.6 275.8Q939.0 277.6 939.9 280.9L939.9 280.9L940.1 280.9Q941.2 277.7 944.0 275.9Q946.8 274.0 950.5 274.0L950.5 274.0Q955.4 274.0 958.4 277.1Q961.4 280.2 961.4 285.3L961.4 285.3L961.4 304.1Q961.4 306.3 960.2 307.6Q958.9 308.8 956.8 308.8L956.8 308.8Q954.8 308.8 953.5 307.6Q952.3 306.3 952.3 304.1L952.3 304.1L952.3 287.6Q952.3 284.6 950.9 283.1Q949.5 281.6 946.8 281.6L946.8 281.6Q944.3 281.6 942.7 283.3Q941.1 285.0 941.1 287.8L941.1 287.8L941.1 304.1Q941.1 306.3 939.9 307.6Q938.8 308.8 936.7 308.8L936.7 308.8Q934.7 308.8 933.5 307.6Q932.3 306.3 932.3 304.1L932.3 304.1L932.3 287.3Q932.3 284.6 930.9 283.1Q929.4 281.6 926.9 281.6L926.9 281.6Q924.3 281.6 922.7 283.3Q921.1 285.1 921.1 287.9L921.1 287.9L921.1 304.1Q921.1 306.3 919.8 307.6Q918.6 308.8 916.5 308.8ZM982.6 308.9L982.6 308.9Q974.8 308.9 970.4 304.3Q966 299.7 966 291.6L966 291.6Q966 283.5 970.4 278.7Q974.8 273.9 982.2 273.9L982.2 273.9Q989.3 273.9 993.7 278.3Q998.1 282.6 998.1 289.5L998.1 289.5Q998.1 291.4 997.0 292.5Q996 293.5 994.1 293.5L994.1 293.5L975.0 293.5L975.0 293.9Q975.0 297.6 977.0 299.9Q979.1 302.1 982.6 302.1L982.6 302.1Q985.1 302.1 986.9 301.2Q988.8 300.3 990.6 298.1L990.6 298.1Q991.9 296.7 993.6 296.7L993.6 296.7Q995.1 296.7 996.1 297.6Q997.1 298.6 997.1 300.1L997.1 300.1Q997.1 301.1 996.5 302.3L996.5 302.3Q994.8 305.4 991.2 307.1Q987.5 308.9 982.6 308.9ZM975.1 287.9L975.1 287.9L989.3 287.9Q989.2 284.6 987.2 282.6Q985.3 280.7 982.3 280.7Q979.3 280.7 977.3 282.7Q975.3 284.7 975.1 287.9ZM1010.6 307.6Q1009.4 308.8 1007.3 308.8Q1005.3 308.8 1004 307.6Q1002.8 306.3 1002.8 304.1L1002.8 304.1L1002.8 278.6Q1002.8 276.4 1003.9 275.2Q1005.1 274.0 1007.2 274.0Q1009.2 274.0 1010.5 275.2Q1011.7 276.5 1011.7 278.6L1011.7 278.6L1011.7 280.5L1011.9 280.5Q1014.7 274.0 1022.2 274.0L1022.2 274.0Q1027.8 274.0 1030.8 277.3Q1033.8 280.6 1033.8 286.6L1033.8 286.6L1033.8 304.1Q1033.8 306.3 1032.6 307.6Q1031.3 308.8 1029.3 308.8Q1027.2 308.8 1026.0 307.6Q1024.7 306.3 1024.7 304.1L1024.7 304.1L1024.7 288.5Q1024.7 285.1 1023.2 283.4Q1021.6 281.6 1018.6 281.6Q1015.5 281.6 1013.7 283.6Q1011.9 285.6 1011.9 288.9L1011.9 288.9L1011.9 304.1Q1011.9 306.3 1010.6 307.6ZM1042.1 299.6L1042.1 299.6L1042.1 281.5L1040.3 281.5Q1038.7 281.5 1037.7 280.6Q1036.8 279.7 1036.8 278.1Q1036.8 276.5 1037.7 275.6Q1038.7 274.6 1040.3 274.6L1040.3 274.6L1042.1 274.6L1042.1 270.9Q1042.1 268.7 1043.3 267.4Q1044.5 266.2 1046.6 266.2Q1048.8 266.2 1050.0 267.4Q1051.2 268.7 1051.2 270.9L1051.2 270.9L1051.2 274.6L1054.4 274.6Q1056.0 274.6 1057.0 275.6Q1057.9 276.5 1057.9 278.1Q1057.9 279.6 1057.0 280.6Q1056.0 281.5 1054.4 281.5L1054.4 281.5L1051.2 281.5L1051.2 297.6Q1051.2 299.3 1051.8 300.1Q1052.5 301.0 1054.0 301.1L1054.0 301.1L1054.6 301.1Q1056.3 301.3 1057.2 302.1Q1058.0 302.9 1058.0 304.5L1058.0 304.5Q1058.0 306.4 1056.3 307.5Q1054.5 308.5 1051.6 308.5L1051.6 308.5L1051.3 308.5Q1042.1 308.5 1042.1 299.6Z M85.3 381.2Q84.1 382.4 82.0 382.4Q79.9 382.4 78.6 381.2Q77.4 380.0 77.4 377.7L77.4 377.7L77.4 355.1L75.7 355.1Q74.2 355.1 73.3 354.2Q72.3 353.3 72.3 351.8Q72.3 350.2 73.3 349.3Q74.2 348.4 75.7 348.4L75.7 348.4L77.4 348.4L77.4 345.9Q77.4 341.0 79.8 338.6Q82.2 336.3 87.0 336.3L87.0 336.3Q90.5 336.3 92.2 337.3Q93.8 338.3 93.8 339.9L93.8 339.9Q93.8 341.8 92 342.3L92 342.3Q91.2 342.6 90.3 342.6L90.3 342.6Q88.2 342.7 87.2 343.5Q86.3 344.4 86.3 346.3L86.3 346.3L86.3 348.4L90.2 348.4Q91.6 348.4 92.6 349.3Q93.5 350.2 93.5 351.8Q93.5 353.3 92.6 354.2Q91.6 355.1 90.2 355.1L90.2 355.1L86.5 355.1L86.5 377.7Q86.5 380.0 85.3 381.2ZM125.3 377.8Q120.8 382.5 113.1 382.5Q105.5 382.5 101 377.8Q96.5 373.2 96.5 365.0L96.5 365.0Q96.5 356.9 101.0 352.2Q105.6 347.5 113.1 347.5L113.1 347.5Q120.7 347.5 125.2 352.2Q129.7 356.9 129.7 365.0L129.7 365.0Q129.7 373.2 125.3 377.8ZM113.1 375.5L113.1 375.5Q116.5 375.5 118.5 372.8Q120.4 370 120.4 365L120.4 365Q120.4 360.1 118.5 357.3Q116.5 354.5 113.1 354.5Q109.8 354.5 107.8 357.3Q105.8 360.1 105.8 365L105.8 365Q105.8 370 107.8 372.8Q109.7 375.5 113.1 375.5ZM139.0 382.4L139.0 382.4Q136.9 382.4 135.6 381.2Q134.4 379.9 134.4 377.7L134.4 377.7L134.4 352.2Q134.4 350 135.6 348.8Q136.8 347.6 138.8 347.6L138.8 347.6Q140.8 347.6 141.9 348.8Q143.1 350 143.1 352.2L143.1 352.2L143.1 354.3L143.3 354.3Q144.0 351.3 145.9 349.5Q147.8 347.7 150.3 347.7L150.3 347.7Q152.1 347.7 153.1 348.6L153.1 348.6Q154.4 349.6 154.4 351.9L154.4 351.9Q154.4 354.1 153.1 355.2L153.1 355.2Q151.8 356.4 149.2 356.4L149.2 356.4Q146.2 356.4 144.8 358.0Q143.5 359.7 143.5 362.8L143.5 362.8L143.5 377.7Q143.5 379.9 142.3 381.2Q141.1 382.4 139.0 382.4Z M191.2 382.5L191.2 382.5Q181.2 382.5 175.5 376.3Q169.7 370.1 169.7 359.2L169.7 359.2Q169.7 348.3 175.5 342.1Q181.2 335.9 191.0 335.9L191.0 335.9Q197.3 335.9 202 338.6Q206.7 341.3 209.0 346.1L209.0 346.1Q210.0 347.9 210.0 349.7L210.0 349.7Q210.0 351.5 208.8 352.6Q207.7 353.7 205.8 353.7L205.8 353.7Q204.2 353.7 203.2 353.0Q202.1 352.3 201.3 350.6L201.3 350.6Q199.8 347.2 197.1 345.4Q194.5 343.7 191.1 343.7L191.1 343.7Q185.7 343.7 182.5 347.9Q179.3 352.1 179.3 359.2L179.3 359.2Q179.3 366.4 182.5 370.5Q185.7 374.7 191.1 374.7L191.1 374.7Q198.4 374.7 201.4 368.0L201.4 368.0Q202.2 366.4 203.1 365.8Q204.1 365.1 205.6 365.1L205.6 365.1Q207.6 365.1 208.8 366.2Q210 367.4 210 369.3L210 369.3Q210 370.7 209.3 372.4L209.3 372.4Q207.2 377.1 202.4 379.8Q197.6 382.5 191.2 382.5ZM225.8 382.3L225.8 382.3Q221 382.3 217.8 379.4Q214.6 376.6 214.6 372.1L214.6 372.1Q214.6 367.6 218 365.0Q221.4 362.4 227.7 362L227.7 362L236.1 361.5L236.1 359.3Q236.1 357.0 234.6 355.7Q233.1 354.3 230.5 354.3L230.5 354.3Q228.4 354.3 227.0 355.1Q225.5 355.9 224 357.9L224 357.9Q222.5 359.6 220.4 359.6L220.4 359.6Q218.7 359.6 217.6 358.6Q216.6 357.6 216.6 356.1L216.6 356.1Q216.6 355.0 217.0 354L217.0 354Q218.2 351 221.9 349.3Q225.7 347.5 230.9 347.5L230.9 347.5Q237.3 347.5 241.2 350.6Q245.1 353.7 245.1 358.7L245.1 358.7L245.1 377.8Q245.1 380.0 243.9 381.2Q242.7 382.4 240.7 382.4L240.7 382.4Q238.8 382.4 237.6 381.4Q236.4 380.3 236.3 378.3L236.3 378.3L236.3 376.6L236.1 376.6Q234.7 379.3 231.9 380.8Q229.1 382.3 225.8 382.3ZM228.8 375.7L228.8 375.7Q231.9 375.7 234 373.9Q236.1 372.2 236.1 369.5L236.1 369.5L236.1 367.0L229.1 367.5Q226.5 367.7 225.1 368.8Q223.7 369.8 223.7 371.6L223.7 371.6Q223.7 373.5 225.1 374.6Q226.5 375.7 228.8 375.7ZM258.8 381.2Q257.6 382.4 255.5 382.4Q253.5 382.4 252.2 381.2Q251.0 379.9 251.0 377.7L251.0 377.7L251.0 352.2Q251.0 350.0 252.1 348.8Q253.3 347.6 255.4 347.6Q257.4 347.6 258.7 348.8Q259.9 350.1 259.9 352.2L259.9 352.2L259.9 354.1L260.1 354.1Q262.9 347.6 270.4 347.6L270.4 347.6Q276 347.6 279.0 350.9Q282.1 354.3 282.1 360.2L282.1 360.2L282.1 377.7Q282.1 379.9 280.8 381.2Q279.6 382.4 277.5 382.4Q275.4 382.4 274.2 381.2Q272.9 379.9 272.9 377.7L272.9 377.7L272.9 362.1Q272.9 358.8 271.4 357.0Q269.8 355.2 266.8 355.2Q263.8 355.2 261.9 357.2Q260.1 359.3 260.1 362.5L260.1 362.5L260.1 377.7Q260.1 379.9 258.8 381.2ZM303.1 382.5L303.1 382.5Q295.5 382.5 291.1 377.8Q286.6 373.1 286.6 365L286.6 365Q286.6 357.0 291.1 352.3Q295.5 347.5 303.1 347.5L303.1 347.5Q308.1 347.5 311.9 349.7Q315.8 351.9 317.2 355.5L317.2 355.5Q317.7 356.8 317.7 357.8L317.7 357.8Q317.7 359.4 316.6 360.4Q315.5 361.3 313.8 361.3L313.8 361.3Q312.4 361.3 311.5 360.8Q310.7 360.2 309.9 359.0L309.9 359.0Q307.5 354.7 303.3 354.7L303.3 354.7Q299.9 354.7 297.9 357.4Q295.9 360.1 295.9 365.0L295.9 365.0Q295.9 369.9 297.9 372.6Q299.8 375.3 303.3 375.3L303.3 375.3Q307.5 375.3 309.8 371.4L309.8 371.4Q310.8 369.9 311.7 369.3Q312.6 368.7 314 368.7L314 368.7Q315.6 368.7 316.7 369.7Q317.8 370.7 317.8 372.3L317.8 372.3Q317.8 373.4 317.3 374.7L317.3 374.7Q315.8 378.2 311.8 380.3Q307.9 382.5 303.1 382.5ZM338.1 382.5L338.1 382.5Q330.3 382.5 325.9 377.9Q321.5 373.3 321.5 365.2L321.5 365.2Q321.5 357.1 325.9 352.3Q330.3 347.5 337.7 347.5L337.7 347.5Q344.8 347.5 349.2 351.9Q353.6 356.3 353.6 363.1L353.6 363.1Q353.6 365.0 352.5 366.1Q351.5 367.1 349.6 367.1L349.6 367.1L330.5 367.1L330.5 367.5Q330.5 371.2 332.5 373.5Q334.6 375.7 338.1 375.7L338.1 375.7Q340.6 375.7 342.4 374.8Q344.3 373.9 346.1 371.7L346.1 371.7Q347.4 370.3 349.1 370.3L349.1 370.3Q350.6 370.3 351.6 371.3Q352.6 372.2 352.6 373.7L352.6 373.7Q352.6 374.8 352 375.9L352 375.9Q350.3 379 346.7 380.7Q343.0 382.5 338.1 382.5ZM330.6 361.5L330.6 361.5L344.8 361.5Q344.7 358.2 342.7 356.3Q340.8 354.3 337.8 354.3Q334.8 354.3 332.8 356.3Q330.8 358.3 330.6 361.5ZM362.8 382.4L362.8 382.4Q360.7 382.4 359.5 381.2Q358.3 379.9 358.3 377.7L358.3 377.7L358.3 352.2Q358.3 350 359.5 348.8Q360.7 347.6 362.7 347.6L362.7 347.6Q364.6 347.6 365.8 348.8Q367.0 350 367.0 352.2L367.0 352.2L367.0 354.3L367.2 354.3Q367.8 351.3 369.7 349.5Q371.6 347.7 374.1 347.7L374.1 347.7Q376.0 347.7 377.0 348.6L377.0 348.6Q378.3 349.6 378.3 351.9L378.3 351.9Q378.3 354.1 377.0 355.2L377.0 355.2Q375.6 356.4 373 356.4L373 356.4Q370 356.4 368.7 358.0Q367.4 359.7 367.4 362.8L367.4 362.8L367.4 377.7Q367.4 379.9 366.2 381.2Q364.9 382.4 362.8 382.4Z " clip-path="url(#satori_cp-id-0)" mask="url(#satori_om-id-0)"/><defs><clipPath id="satori_bc-id-0-1" clip-path="url(#satori_cp-id-0)"><rect x="0" y="509" width="1200" height="121"/></clipPath></defs><mask id="satori_om-id-0-1"><rect x="0" y="510" width="1200" height="120" fill="#fff" mask="url(#satori_om-id-0)"/><path width="1200" height="121" fill="none" stroke="#000" stroke-width="2" d="M0,509 A0,0 0 0 1 0,509 h1200 A0,0 0 0 1 1200,509"/></mask><path width="1200" height="121" clip-path="url(#satori_bc-id-0-1)" fill="none" stroke="rgba(0,0,0,0.08)" stroke-width="2" d="M0,509 A0,0 0 0 1 0,509 h1200 A0,0 0 0 1 1200,509"/><mask id="satori_om-id-0-1-0"><rect x="48" y="538" width="228" height="64" fill="#fff" mask="url(#satori_om-id-0)"/></mask><mask id="satori_om-id-0-1-0-0"><rect x="48" y="538" width="72" height="64" fill="#fff" mask="url(#satori_om-id-0)"/></mask><clipPath id="satori_cp-id-0-1-0-0-0" clip-path="url(#satori_cp-id-0)"><rect x="48" y="538" width="72" height="64"/></clipPath><mask id="satori_om-id-0-1-0-0-0"><rect x="48" y="538" width="72" height="64" fill="#fff" mask="url(#satori_om-id-0)"/></mask><image x="48" y="538" width="72" height="64" href="data:image/svg+xml;utf8,%3Csvg  xmlns=%22http://www.w3.org/2000/svg%22 width=%2273.60461760461762%22 height=%2264%22 viewBox=%220 0 797 693%22%3E%3Cg transform=%22matrix(1,0,0,1,-345,-96.5)%22%3E%3Cpath d=%22M756.942,197.15L756.942,474C701.751,474 656.942,518.808 656.942,574C656.942,629.192 701.751,674 756.942,674L756.942,777L495.122,777C443.175,777 401,734.825 401,682.878L401,614L364.755,614C353.852,614 345,605.148 345,594.245L345,436.814C345,425.878 353.878,417 364.814,417L401,417L401,365.122C401,313.175 443.175,271 495.122,271L715.058,271L715.058,197.15C696.492,189.056 683.5,170.533 683.5,149C683.5,120.024 707.024,96.5 736,96.5C764.976,96.5 788.5,120.024 788.5,149C788.5,170.533 775.508,189.056 756.942,197.15ZM559,388C520.918,388 490,418.918 490,457C490,495.082 520.918,526 559,526C597.082,526 628,495.082 628,457C628,418.918 597.082,388 559,388Z%22 fill=%22%23ad47ff%22%3E%3C/path%3E%3Cg transform=%22matrix(-1,1.22465e-16,-1.22465e-16,-1,1486.06,1043)%22%3E%3Cpath d=%22M401,417L401,348.122C401,296.175 443.175,254 495.122,254L705.058,254L705.058,357C760.249,357 805.058,401.808 805.058,457C805.058,512.192 760.249,557 705.058,557L705.058,760L495.122,760C443.175,760 401,717.825 401,665.878L401,614L364.755,614C353.852,614 345,605.148 345,594.245L345,436.814C345,425.878 353.878,417 364.814,417L401,417ZM552,643C590.082,643 621,612.082 621,574C621,535.918 590.082,505 552,505C513.918,505 483,535.918 483,574C483,612.082 513.918,643 552,643Z%22 fill=%22%2300d5bd%22%3E%3C/path%3E%3C/g%3E%3C/g%3E%3C/svg%3E" preserveAspectRatio="none" clip-path="url(#satori_cp-id-0-1-0-0-0)" mask="url(#satori_om-id-0-1-0-0-0)"/><mask id="satori_om-id-0-1-0-0-0-0"><rect x="48" y="538" width="0" height="64" fill="#fff" mask="url(#satori_om-id-0)"/></mask><mask id="satori_om-id-0-1-0-0-0-0-0"><rect x="48" y="538" width="0" height="64" fill="#fff" mask="url(#satori_om-id-0)"/></mask><mask id="satori_om-id-0-1-0-0-0-0-1"><rect x="48" y="538" width="0" height="64" fill="#fff" mask="url(#satori_om-id-0)"/></mask><mask id="satori_om-id-0-1-0-0-0-0-1-0"><rect x="48" y="538" width="0" height="64" fill="#fff" mask="url(#satori_om-id-0)"/></mask><mask id="satori_om-id-0-1-0-1"><rect x="138" y="540" width="138" height="60" fill="#fff" mask="url(#satori_om-id-0)"/></mask><mask id="satori_om-id-0-1-0-1-0"><rect x="138" y="540" width="138" height="36" fill="#fff" mask="url(#satori_om-id-0)"/></mask><path fill="#0f172a" d="M150.7 571.2L150.7 571.2Q145.9 571.2 143.0 568.6Q140.1 566.1 140.1 561.8L140.1 561.8L140.1 547.9Q140.1 546.5 140.8 545.8Q141.5 545.1 142.8 545.1Q144.0 545.1 144.7 545.8Q145.4 546.5 145.4 547.9L145.4 547.9L145.4 561.3Q145.4 563.8 146.8 565.2Q148.2 566.7 150.7 566.7L150.7 566.7Q153.3 566.7 154.7 565.2Q156.1 563.8 156.1 561.3L156.1 561.3L156.1 547.9Q156.1 546.5 156.8 545.8Q157.5 545.1 158.7 545.1Q160.0 545.1 160.7 545.8Q161.4 546.5 161.4 547.9L161.4 547.9L161.4 561.8Q161.4 566.1 158.5 568.6Q155.6 571.2 150.7 571.2ZM170.2 570.4Q169.5 571.2 168.2 571.2Q167.0 571.2 166.3 570.4Q165.6 569.7 165.6 568.4L165.6 568.4L165.6 548.2Q165.6 546.9 166.3 546.2Q167.0 545.4 168.2 545.4L168.2 545.4L176.0 545.4Q180.3 545.4 182.7 547.6Q185.1 549.7 185.1 553.5L185.1 553.5Q185.1 555.9 184.0 557.8Q182.9 559.7 180.8 560.6L180.8 560.6L184.4 566.9Q185.0 567.9 185.0 568.7L185.0 568.7Q185.0 569.8 184.2 570.5Q183.5 571.2 182.3 571.2L182.3 571.2Q181.4 571.2 180.8 570.8Q180.3 570.3 179.6 569.2L179.6 569.2L175.4 561.5L170.9 561.5L170.9 568.4Q170.9 569.7 170.2 570.4ZM170.9 549.6L170.9 557.7L175.5 557.7Q177.5 557.7 178.6 556.6Q179.7 555.5 179.7 553.6L179.7 553.6Q179.7 551.8 178.5 550.7Q177.4 549.6 175.4 549.6L175.4 549.6L170.9 549.6ZM198.1 562.7L190.8 562.7Q189.7 562.7 189.1 562.1Q188.4 561.5 188.4 560.5Q188.4 559.4 189.1 558.8Q189.7 558.2 190.8 558.2L190.8 558.2L198.1 558.2Q199.2 558.2 199.9 558.8Q200.6 559.4 200.6 560.5Q200.6 561.5 199.9 562.1Q199.2 562.7 198.1 562.7L198.1 562.7ZM209.1 570.4Q208.4 571.2 207.2 571.2Q205.9 571.2 205.2 570.4Q204.5 569.7 204.5 568.4L204.5 568.4L204.5 548.2Q204.5 546.9 205.2 546.2Q205.9 545.4 207.2 545.4L207.2 545.4L214.9 545.4Q219.3 545.4 221.7 547.6Q224.1 549.7 224.1 553.5L224.1 553.5Q224.1 555.9 223.0 557.8Q221.8 559.7 219.7 560.6L219.7 560.6L223.4 566.9Q224.0 567.9 224.0 568.7L224.0 568.7Q224.0 569.8 223.2 570.5Q222.4 571.2 221.3 571.2L221.3 571.2Q220.3 571.2 219.8 570.8Q219.2 570.3 218.6 569.2L218.6 569.2L214.4 561.5L209.8 561.5L209.8 568.4Q209.8 569.7 209.1 570.4ZM209.8 549.6L209.8 557.7L214.4 557.7Q216.4 557.7 217.5 556.6Q218.6 555.5 218.6 553.6L218.6 553.6Q218.6 551.8 217.5 550.7Q216.3 549.6 214.4 549.6L214.4 549.6L209.8 549.6ZM229.3 571.1L229.3 571.1Q228.0 571.1 227.3 570.5Q226.6 569.8 226.6 568.6L226.6 568.6Q226.6 567.9 226.9 566.9L226.9 566.9L233.9 548.1Q234.4 546.5 235.4 545.8Q236.3 545.1 237.8 545.1L237.8 545.1Q239.4 545.1 240.4 545.8Q241.3 546.5 241.9 548.1L241.9 548.1L248.9 566.9Q249.2 567.9 249.2 568.6L249.2 568.6Q249.2 569.7 248.5 570.4Q247.7 571.1 246.5 571.1L246.5 571.1Q245.4 571.1 244.8 570.6Q244.1 570.0 243.8 568.8L243.8 568.8L242.4 564.8L233.3 564.8L232.0 568.7Q231.6 570.0 231.0 570.6Q230.3 571.1 229.3 571.1ZM237.7 550.3L234.5 560.7L241.2 560.7L237.9 550.3L237.7 550.3ZM262.1 570.8L255.1 570.8Q253.8 570.8 253.1 570.1Q252.4 569.3 252.4 568.0L252.4 568.0L252.4 548.2Q252.4 546.9 253.1 546.2Q253.8 545.4 255.1 545.4L255.1 545.4L262.1 545.4Q267.8 545.4 271.0 548.7Q274.2 552.0 274.2 558.0L274.2 558.0Q274.2 564.0 271.0 567.4Q267.8 570.8 262.1 570.8L262.1 570.8ZM257.7 549.8L257.7 566.4L261.5 566.4Q265.0 566.4 266.9 564.3Q268.8 562.1 268.8 558.0L268.8 558.0Q268.8 554.1 266.9 551.9Q265.0 549.8 261.5 549.8L261.5 549.8L257.7 549.8Z " clip-path="url(#satori_cp-id-0)" mask="url(#satori_om-id-0)"/><mask id="satori_om-id-0-1-0-1-1"><rect x="138" y="576" width="138" height="24" fill="#fff" mask="url(#satori_om-id-0)"/></mask><path fill="#334155" d="M145.0 595.3L145.0 595.3Q142.4 595.3 140.8 593.8Q139.2 592.4 139.2 590.1L139.2 590.1L139.2 582.1Q139.2 581.5 139.6 581.1Q139.9 580.8 140.5 580.8L140.5 580.8Q141.1 580.8 141.4 581.1Q141.8 581.5 141.8 582.1L141.8 582.1L141.8 589.8Q141.8 591.3 142.6 592.2Q143.5 593.1 145.0 593.1Q146.6 593.1 147.4 592.2Q148.3 591.3 148.3 589.8L148.3 589.8L148.3 582.1Q148.3 581.5 148.6 581.1Q149.0 580.8 149.6 580.8L149.6 580.8Q150.2 580.8 150.5 581.1Q150.8 581.5 150.8 582.1L150.8 582.1L150.8 590.1Q150.8 592.4 149.3 593.8Q147.7 595.3 145.0 595.3ZM155.5 594.9Q155.2 595.2 154.6 595.2Q154.0 595.2 153.6 594.9Q153.3 594.5 153.3 593.9L153.3 593.9L153.3 582.3Q153.3 581.6 153.6 581.3Q154.0 581.0 154.6 581.0L154.6 581.0L158.9 581.0Q161.2 581.0 162.5 582.1Q163.8 583.3 163.8 585.3L163.8 585.3Q163.8 586.7 163.1 587.8Q162.4 588.8 161.2 589.3L161.2 589.3L163.4 593.2Q163.7 593.7 163.7 594.1L163.7 594.1Q163.7 594.6 163.4 594.9Q163.0 595.2 162.4 595.2L162.4 595.2Q162.0 595.2 161.7 595.0Q161.5 594.8 161.2 594.3L161.2 594.3L158.7 589.7L155.8 589.7L155.8 593.9Q155.8 594.5 155.5 594.9ZM155.8 583.0L155.8 587.8L158.7 587.8Q159.9 587.8 160.5 587.2Q161.2 586.5 161.2 585.4L161.2 585.4Q161.2 584.3 160.5 583.6Q159.8 583.0 158.6 583.0L158.6 583.0L155.8 583.0ZM171.1 590.4L166.7 590.4Q166.2 590.4 165.9 590.1Q165.6 589.8 165.6 589.3Q165.6 588.8 165.9 588.5Q166.2 588.2 166.7 588.2L166.7 588.2L171.1 588.2Q171.7 588.2 172.0 588.5Q172.3 588.8 172.3 589.3Q172.3 589.8 172.0 590.1Q171.7 590.4 171.1 590.4L171.1 590.4ZM176.7 594.9Q176.4 595.2 175.8 595.2Q175.2 595.2 174.9 594.9Q174.6 594.5 174.6 593.9L174.6 593.9L174.6 582.3Q174.6 581.6 174.9 581.3Q175.2 581.0 175.8 581.0L175.8 581.0L180.1 581.0Q182.4 581.0 183.7 582.1Q185.0 583.3 185.0 585.3L185.0 585.3Q185.0 586.7 184.3 587.8Q183.7 588.8 182.5 589.3L182.5 589.3L184.7 593.2Q185.0 593.7 185.0 594.1L185.0 594.1Q185.0 594.6 184.6 594.9Q184.2 595.2 183.7 595.2L183.7 595.2Q183.2 595.2 183.0 595.0Q182.7 594.8 182.4 594.3L182.4 594.3L179.9 589.7L177.1 589.7L177.1 593.9Q177.1 594.5 176.7 594.9ZM177.1 583.0L177.1 587.8L179.9 587.8Q181.1 587.8 181.8 587.2Q182.4 586.5 182.4 585.4L182.4 585.4Q182.4 584.3 181.8 583.6Q181.1 583.0 179.9 583.0L179.9 583.0L177.1 583.0ZM187.7 595.2L187.7 595.2Q187.1 595.2 186.7 594.9Q186.4 594.6 186.4 594.0L186.4 594.0Q186.4 593.7 186.6 593.3L186.6 593.3L190.7 582.2Q190.9 581.4 191.4 581.1Q191.8 580.8 192.5 580.8L192.5 580.8Q193.2 580.8 193.6 581.1Q194.1 581.4 194.3 582.1L194.3 582.1L198.4 593.3Q198.6 593.7 198.6 594.0L198.6 594.0Q198.6 594.6 198.2 594.9Q197.9 595.2 197.3 595.2L197.3 595.2Q196.8 595.2 196.5 595.0Q196.2 594.7 196.0 594.1L196.0 594.1L195.1 591.4L189.9 591.4L188.9 594.1Q188.8 594.7 188.5 595.0Q188.2 595.2 187.7 595.2ZM192.4 583.4L190.5 589.5L194.5 589.5L192.5 583.4L192.4 583.4ZM205.6 595.0L201.7 595.0Q201.1 595.0 200.8 594.7Q200.4 594.3 200.4 593.7L200.4 593.7L200.4 582.3Q200.4 581.6 200.8 581.3Q201.1 581.0 201.7 581.0L201.7 581.0L205.6 581.0Q208.7 581.0 210.5 582.8Q212.3 584.6 212.3 588.0L212.3 588.0Q212.3 591.3 210.5 593.2Q208.7 595.0 205.6 595.0L205.6 595.0ZM202.9 583.1L202.9 592.9L205.3 592.9Q207.4 592.9 208.6 591.6Q209.7 590.4 209.7 588.0L209.7 588.0Q209.7 585.6 208.6 584.3Q207.4 583.1 205.3 583.1L205.3 583.1L202.9 583.1Z M227.0 595.0L219.2 595.0Q218.7 595.0 218.3 594.8Q218.0 594.5 218.0 594.0L218.0 594.0Q218.0 593.6 218.2 593.3Q218.3 593.1 218.7 592.7L218.7 592.7L223.0 588.4Q224.4 587.1 224.8 586.4Q225.3 585.7 225.3 584.9L225.3 584.9Q225.3 583.9 224.6 583.3Q224.0 582.7 223.0 582.7L223.0 582.7Q221.1 582.7 220.3 584.6L220.3 584.6Q220.1 585.0 219.9 585.2Q219.6 585.4 219.2 585.4L219.2 585.4Q218.7 585.4 218.4 585.1Q218.1 584.8 218.1 584.3L218.1 584.3Q218.1 584.1 218.2 583.8L218.2 583.8Q218.3 583.2 218.7 582.7Q219.1 582.1 219.7 581.7Q220.3 581.2 221.1 580.9Q222.0 580.7 223.0 580.7L223.0 580.7Q225.1 580.7 226.4 581.8Q227.8 582.9 227.8 584.7L227.8 584.7Q227.8 585.9 227.1 586.9Q226.4 588.0 224.6 589.8L224.6 589.8L221.4 592.9L221.4 593.0L227.0 593.0Q227.5 593.0 227.8 593.3Q228.1 593.5 228.1 594.0Q228.1 594.5 227.8 594.8Q227.5 595.0 227.0 595.0L227.0 595.0ZM235.2 595.3L235.2 595.3Q232.6 595.3 231.1 593.4Q229.7 591.4 229.7 588.0L229.7 588.0Q229.7 584.6 231.1 582.6Q232.6 580.7 235.2 580.7L235.2 580.7Q237.8 580.7 239.3 582.6Q240.7 584.6 240.7 588.0L240.7 588.0Q240.7 591.4 239.3 593.3Q237.8 595.3 235.2 595.3ZM235.2 593.3L235.2 593.3Q236.6 593.3 237.4 591.9Q238.2 590.5 238.2 588.0L238.2 588.0Q238.2 585.5 237.4 584.1Q236.6 582.7 235.2 582.7Q233.8 582.7 233.0 584.1Q232.2 585.5 232.2 588.0L232.2 588.0Q232.2 590.5 233.0 591.9Q233.8 593.3 235.2 593.3ZM251.6 595.0L243.8 595.0Q243.2 595.0 242.9 594.8Q242.6 594.5 242.6 594.0L242.6 594.0Q242.6 593.6 242.7 593.3Q242.9 593.1 243.3 592.7L243.3 592.7L247.6 588.4Q248.9 587.1 249.4 586.4Q249.8 585.7 249.8 584.9L249.8 584.9Q249.8 583.9 249.2 583.3Q248.5 582.7 247.5 582.7L247.5 582.7Q245.6 582.7 244.9 584.6L244.9 584.6Q244.7 585.0 244.4 585.2Q244.2 585.4 243.7 585.4L243.7 585.4Q243.2 585.4 242.9 585.1Q242.6 584.8 242.6 584.3L242.6 584.3Q242.6 584.1 242.7 583.8L242.7 583.8Q242.9 583.2 243.2 582.7Q243.6 582.1 244.2 581.7Q244.8 581.2 245.7 580.9Q246.5 580.7 247.5 580.7L247.5 580.7Q249.6 580.7 251.0 581.8Q252.3 582.9 252.3 584.7L252.3 584.7Q252.3 585.9 251.6 586.9Q251.0 588.0 249.2 589.8L249.2 589.8L245.9 592.9L245.9 593.0L251.6 593.0Q252.1 593.0 252.4 593.3Q252.6 593.5 252.6 594.0Q252.6 594.5 252.4 594.8Q252.1 595.0 251.6 595.0L251.6 595.0ZM259.6 595.3L259.6 595.3Q258.0 595.3 256.7 594.6Q255.4 593.9 254.9 592.8L254.9 592.8Q254.6 592.3 254.6 591.8L254.6 591.8Q254.6 591.3 254.9 591.0Q255.2 590.7 255.7 590.7L255.7 590.7Q256.1 590.7 256.4 590.9Q256.6 591.1 256.8 591.5L256.8 591.5Q257.2 592.3 257.9 592.8Q258.6 593.3 259.6 593.3L259.6 593.3Q260.9 593.3 261.7 592.5Q262.5 591.7 262.5 590.4L262.5 590.4Q262.5 589.2 261.7 588.4Q260.9 587.7 259.6 587.7L259.6 587.7Q258.3 587.7 257.4 588.5L257.4 588.5Q257.0 589.0 256.7 589.1Q256.4 589.3 256.0 589.3L256.0 589.3Q255.4 589.3 255.1 588.9Q254.8 588.5 254.8 588.0L254.8 588.0Q254.8 587.9 254.8 587.8L254.8 587.8L255.3 582.5Q255.4 581.7 255.8 581.3Q256.2 581.0 257.0 581.0L257.0 581.0L263.1 581.0Q263.6 581.0 263.9 581.2Q264.2 581.5 264.2 582.0L264.2 582.0Q264.2 582.4 263.9 582.7Q263.6 583.0 263.1 583.0L263.1 583.0L257.4 583.0L257.1 587.2L257.1 587.2Q257.6 586.5 258.4 586.1Q259.2 585.8 260.3 585.8L260.3 585.8Q262.3 585.8 263.6 587.0Q264.9 588.3 264.9 590.4L264.9 590.4Q264.9 592.6 263.4 593.9Q261.9 595.3 259.6 595.3Z " clip-path="url(#satori_cp-id-0)" mask="url(#satori_om-id-0)"/><mask id="satori_om-id-0-1-1"><rect x="981" y="557" width="171" height="26" fill="#fff" mask="url(#satori_om-id-0)"/></mask><path fill="#334155" d="M984.4 577.8Q984.1 578.2 983.5 578.2Q982.9 578.2 982.5 577.8Q982.2 577.5 982.2 576.8L982.2 576.8L982.2 563.6Q982.2 563.0 982.5 562.6Q982.9 562.2 983.5 562.2Q984.1 562.2 984.5 562.6Q984.8 563.0 984.8 563.6L984.8 563.6L984.8 568.5L984.9 568.5Q985.4 567.5 986.3 566.9Q987.3 566.4 988.5 566.4L988.5 566.4Q990.6 566.4 991.9 568.0Q993.2 569.5 993.2 572.3L993.2 572.3Q993.2 575.0 991.9 576.6Q990.6 578.1 988.5 578.1L988.5 578.1Q987.2 578.1 986.3 577.6Q985.4 577.0 984.8 576.0L984.8 576.0L984.8 576.0L984.8 576.8Q984.8 577.5 984.4 577.8ZM987.6 575.9L987.6 575.9Q988.9 575.9 989.7 574.9Q990.4 574.0 990.4 572.3Q990.4 570.6 989.7 569.6Q988.9 568.6 987.6 568.6L987.6 568.6Q986.4 568.6 985.6 569.6Q984.8 570.6 984.8 572.3L984.8 572.3Q984.8 573.9 985.6 574.9Q986.4 575.9 987.6 575.9ZM996.5 582.2L996.5 582.2Q995.6 582.2 995.1 581.9Q994.7 581.5 994.7 580.9L994.7 580.9Q994.7 580.5 994.9 580.3Q995.2 580.0 995.7 580.0L995.7 580.0Q995.8 580.0 996.0 580.0Q996.1 580.0 996.3 580.0L996.3 580.0Q997.3 580.0 997.9 578.7L997.9 578.7L998.1 578.2L994.3 568.3Q994.2 567.9 994.2 567.6L994.2 567.6Q994.2 567.0 994.6 566.7Q995.0 566.3 995.6 566.3L995.6 566.3Q996.1 566.3 996.4 566.6Q996.7 566.8 996.8 567.4L996.8 567.4L999.6 575.7L999.6 575.7L1002.3 567.4Q1002.5 566.8 1002.8 566.6Q1003.1 566.3 1003.6 566.3L1003.6 566.3Q1004.2 566.3 1004.5 566.7Q1004.9 567.0 1004.9 567.5L1004.9 567.5Q1004.9 567.9 1004.8 568.3L1004.8 568.3L1001.0 578.4Q1000.2 580.5 999.2 581.3Q998.2 582.2 996.5 582.2Z M1013.2 577.8Q1012.9 578.1 1012.3 578.1Q1011.7 578.1 1011.4 577.8Q1011.0 577.4 1011.0 576.8L1011.0 576.8L1011.0 564.0Q1011.0 563.2 1011.5 562.7Q1012.0 562.3 1012.8 562.3L1012.8 562.3Q1013.5 562.3 1014.0 562.6Q1014.4 562.9 1014.7 563.7L1014.7 563.7L1019.0 574.1L1019.1 574.1L1023.3 563.7Q1023.7 562.9 1024.1 562.6Q1024.6 562.3 1025.3 562.3L1025.3 562.3Q1026.1 562.3 1026.6 562.7Q1027.0 563.2 1027.0 564.0L1027.0 564.0L1027.0 576.8Q1027.0 577.4 1026.7 577.8Q1026.4 578.1 1025.8 578.1Q1025.2 578.1 1024.9 577.8Q1024.5 577.4 1024.5 576.8L1024.5 576.8L1024.5 566.9L1024.5 566.9L1020.4 576.9Q1020.0 577.9 1019.0 577.9L1019.0 577.9Q1018.1 577.9 1017.7 576.9L1017.7 576.9L1013.6 566.9L1013.5 566.9L1013.5 576.8Q1013.5 577.4 1013.2 577.8ZM1038.6 576.6Q1037.1 578.2 1034.5 578.2Q1032.0 578.2 1030.5 576.6Q1029.0 575.0 1029.0 572.3L1029.0 572.3Q1029.0 569.5 1030.5 567.9Q1032.0 566.3 1034.5 566.3L1034.5 566.3Q1037.1 566.3 1038.6 567.9Q1040.1 569.5 1040.1 572.3L1040.1 572.3Q1040.1 575.0 1038.6 576.6ZM1032.5 575.1Q1033.3 576.1 1034.5 576.1Q1035.8 576.1 1036.6 575.1Q1037.3 574.1 1037.3 572.3L1037.3 572.3Q1037.3 570.5 1036.6 569.5Q1035.8 568.5 1034.5 568.5L1034.5 568.5Q1033.3 568.5 1032.5 569.5Q1031.8 570.5 1031.8 572.3L1031.8 572.3Q1031.8 574.1 1032.5 575.1ZM1044.1 577.8Q1043.7 578.2 1043.1 578.2Q1042.5 578.2 1042.1 577.8Q1041.8 577.4 1041.8 576.8L1041.8 576.8L1041.8 567.7Q1041.8 567.1 1042.1 566.7Q1042.5 566.3 1043.1 566.3L1043.1 566.3Q1043.6 566.3 1044.0 566.7Q1044.3 567.1 1044.3 567.7L1044.3 567.7L1044.3 568.6L1044.4 568.6Q1044.6 567.6 1045.3 567.0Q1046.0 566.4 1046.8 566.4L1046.8 566.4Q1047.4 566.4 1047.8 566.7L1047.8 566.7Q1048.1 567.0 1048.1 567.6L1048.1 567.6Q1048.1 568.2 1047.7 568.6L1047.7 568.6Q1047.4 568.9 1046.6 568.9L1046.6 568.9Q1044.5 568.9 1044.5 571.3L1044.5 571.3L1044.5 576.8Q1044.5 577.4 1044.1 577.8ZM1051.7 577.8Q1051.3 578.2 1050.7 578.2Q1050.1 578.2 1049.7 577.8Q1049.3 577.4 1049.3 576.8L1049.3 576.8L1049.3 567.7Q1049.3 567.1 1049.7 566.7Q1050.0 566.3 1050.6 566.3L1050.6 566.3Q1051.2 566.3 1051.5 566.7Q1051.9 567.1 1051.9 567.7L1051.9 567.7L1051.9 568.6L1051.9 568.6Q1052.2 567.6 1052.8 567.0Q1053.5 566.4 1054.4 566.4L1054.4 566.4Q1055.0 566.4 1055.3 566.7L1055.3 566.7Q1055.7 567.0 1055.7 567.6L1055.7 567.6Q1055.7 568.2 1055.3 568.6L1055.3 568.6Q1054.9 568.9 1054.1 568.9L1054.1 568.9Q1052.0 568.9 1052.0 571.3L1052.0 571.3L1052.0 576.8Q1052.0 577.4 1051.7 577.8ZM1059.4 564.5Q1058.9 565.0 1058.3 565.0Q1057.7 565.0 1057.2 564.5Q1056.8 564.1 1056.8 563.5L1056.8 563.5Q1056.8 562.9 1057.2 562.5Q1057.7 562.1 1058.3 562.1L1058.3 562.1Q1058.9 562.1 1059.4 562.5Q1059.8 562.9 1059.8 563.5L1059.8 563.5Q1059.8 564.1 1059.4 564.5ZM1059.3 577.8Q1058.9 578.2 1058.3 578.2Q1057.7 578.2 1057.3 577.8Q1057.0 577.4 1057.0 576.8L1057.0 576.8L1057.0 567.7Q1057.0 567.1 1057.3 566.7Q1057.7 566.3 1058.3 566.3Q1058.9 566.3 1059.3 566.7Q1059.6 567.1 1059.6 567.8L1059.6 567.8L1059.6 576.8Q1059.6 577.4 1059.3 577.8ZM1066.3 578.2L1066.3 578.2Q1064.5 578.2 1063.3 577.5Q1062.1 576.9 1061.6 575.9L1061.6 575.9Q1061.5 575.6 1061.5 575.4L1061.5 575.4Q1061.5 574.9 1061.8 574.6Q1062.2 574.3 1062.7 574.3L1062.7 574.3Q1063.3 574.3 1063.8 575.0L1063.8 575.0Q1064.3 575.6 1064.9 575.9Q1065.4 576.2 1066.4 576.2L1066.4 576.2Q1067.3 576.2 1067.9 575.8Q1068.5 575.5 1068.5 574.8L1068.5 574.8Q1068.5 574.3 1068.1 574.0Q1067.7 573.7 1066.9 573.5L1066.9 573.5L1065.0 573.1Q1061.7 572.3 1061.7 569.8L1061.7 569.8Q1061.7 568.2 1063.0 567.3Q1064.2 566.3 1066.3 566.3L1066.3 566.3Q1067.9 566.3 1069.1 567.0Q1070.3 567.7 1070.6 568.7L1070.6 568.7Q1070.6 568.9 1070.6 569.1L1070.6 569.1Q1070.6 569.5 1070.4 569.8Q1070.1 570.1 1069.6 570.1L1069.6 570.1Q1068.9 570.1 1068.6 569.6L1068.6 569.6Q1068.2 568.9 1067.6 568.6Q1067.1 568.3 1066.3 568.3L1066.3 568.3Q1065.4 568.3 1064.8 568.7Q1064.3 569.1 1064.3 569.7L1064.3 569.7Q1064.3 570.7 1066.0 571.1L1066.0 571.1L1067.8 571.5Q1069.6 571.9 1070.4 572.6Q1071.1 573.3 1071.1 574.6L1071.1 574.6Q1071.1 576.2 1069.8 577.2Q1068.5 578.2 1066.3 578.2ZM1074.7 575.2L1074.7 575.2Q1075.3 575.2 1075.6 575.5Q1075.9 575.8 1075.9 576.3L1075.9 576.3Q1075.9 576.6 1075.8 576.9L1075.8 576.9L1074.9 580.6Q1074.8 581.1 1074.5 581.3Q1074.3 581.5 1073.8 581.5Q1073.3 581.5 1073.1 581.2Q1072.8 581.0 1072.8 580.5L1072.8 580.5Q1072.8 580.4 1072.8 580.3L1072.8 580.3L1073.4 576.3Q1073.6 575.2 1074.7 575.2Z M1088.6 578.1L1088.6 578.1Q1087.9 578.1 1087.6 577.8Q1087.2 577.4 1087.2 576.7L1087.2 576.7L1087.2 564.8L1083.7 564.8Q1083.1 564.8 1082.7 564.5Q1082.4 564.2 1082.4 563.6Q1082.4 563.1 1082.7 562.8Q1083.1 562.4 1083.7 562.4L1083.7 562.4L1093.5 562.4Q1094.1 562.4 1094.4 562.8Q1094.8 563.1 1094.8 563.6Q1094.8 564.2 1094.4 564.5Q1094.1 564.8 1093.5 564.8L1093.5 564.8L1090.0 564.8L1090.0 576.7Q1090.0 577.4 1089.6 577.8Q1089.2 578.1 1088.6 578.1ZM1098.1 578.1L1098.1 578.1Q1097.4 578.1 1097.0 577.6Q1096.5 577.2 1096.5 576.5L1096.5 576.5Q1096.5 575.9 1097.0 575.4Q1097.4 575.0 1098.1 575.0L1098.1 575.0Q1098.7 575.0 1099.2 575.4Q1099.6 575.9 1099.6 576.5L1099.6 576.5Q1099.6 577.2 1099.2 577.6Q1098.7 578.1 1098.1 578.1Z M1111.6 578.2L1111.6 578.2Q1109.0 578.2 1107.5 576.6Q1106.1 575.1 1106.1 572.3L1106.1 572.3Q1106.1 569.6 1107.5 567.9Q1109.0 566.3 1111.5 566.3L1111.5 566.3Q1113.8 566.3 1115.2 567.8Q1116.7 569.3 1116.7 571.6L1116.7 571.6Q1116.7 572.2 1116.4 572.6Q1116.0 572.9 1115.4 572.9L1115.4 572.9L1108.7 572.9L1108.7 573.0Q1108.7 574.4 1109.5 575.3Q1110.3 576.1 1111.6 576.1L1111.6 576.1Q1112.5 576.1 1113.1 575.8Q1113.8 575.4 1114.4 574.6L1114.4 574.6Q1114.8 574.2 1115.3 574.2L1115.3 574.2Q1115.8 574.2 1116.1 574.4Q1116.4 574.7 1116.4 575.2L1116.4 575.2Q1116.4 575.5 1116.2 575.9L1116.2 575.9Q1115.7 577.0 1114.4 577.6Q1113.2 578.2 1111.6 578.2ZM1108.8 571.1L1108.8 571.1L1114.1 571.1Q1114.0 569.9 1113.3 569.1Q1112.6 568.4 1111.5 568.4Q1110.3 568.4 1109.6 569.2Q1108.8 569.9 1108.8 571.1ZM1119.2 575.1L1119.2 575.1L1119.2 568.6L1118.4 568.6Q1117.9 568.6 1117.7 568.3Q1117.4 568.1 1117.4 567.6L1117.4 567.6Q1117.4 567.1 1117.6 566.8Q1117.9 566.6 1118.4 566.6L1118.4 566.6L1119.2 566.6L1119.2 565.0Q1119.2 564.4 1119.5 564.0Q1119.9 563.6 1120.5 563.6L1120.5 563.6Q1121.1 563.6 1121.5 564.0Q1121.8 564.4 1121.8 565.0L1121.8 565.0L1121.8 566.6L1123.1 566.6Q1123.6 566.6 1123.9 566.8Q1124.1 567.1 1124.1 567.6L1124.1 567.6Q1124.1 568.1 1123.8 568.3Q1123.6 568.6 1123.1 568.6L1123.1 568.6L1121.8 568.6L1121.8 574.6Q1121.8 575.2 1122.1 575.5Q1122.3 575.8 1122.9 575.9L1122.9 575.9L1123.1 575.9Q1124.2 576.0 1124.2 576.9L1124.2 576.9Q1124.2 577.5 1123.7 577.8Q1123.2 578.1 1122.3 578.1L1122.3 578.1L1122.2 578.1Q1119.2 578.1 1119.2 575.1Z M1133.5 578.1L1133.5 578.1Q1131.9 578.1 1130.8 577.2Q1129.7 576.2 1129.7 574.7L1129.7 574.7Q1129.7 573.2 1130.9 572.3Q1132.0 571.4 1134.1 571.3L1134.1 571.3L1137.1 571.1L1137.1 570.3Q1137.1 569.4 1136.5 568.9Q1136.0 568.4 1135.0 568.4L1135.0 568.4Q1134.2 568.4 1133.6 568.7Q1133.1 569.0 1132.6 569.8L1132.6 569.8Q1132.2 570.3 1131.5 570.3L1131.5 570.3Q1131.0 570.3 1130.7 570.0Q1130.4 569.7 1130.4 569.2L1130.4 569.2Q1130.4 568.9 1130.5 568.5L1130.5 568.5Q1131.0 567.5 1132.2 566.9Q1133.4 566.3 1135.1 566.3L1135.1 566.3Q1137.2 566.3 1138.5 567.4Q1139.7 568.4 1139.7 570.1L1139.7 570.1L1139.7 576.8Q1139.7 577.5 1139.4 577.8Q1139.0 578.2 1138.4 578.2L1138.4 578.2Q1137.9 578.2 1137.5 577.8Q1137.2 577.5 1137.1 576.9L1137.1 576.9L1137.1 576.1L1137.1 576.1Q1136.6 577.0 1135.6 577.6Q1134.7 578.1 1133.5 578.1ZM1134.4 576.1L1134.4 576.1Q1135.5 576.1 1136.3 575.4Q1137.1 574.7 1137.1 573.7L1137.1 573.7L1137.1 572.9L1134.4 573.0Q1133.5 573.1 1132.9 573.5Q1132.4 573.9 1132.4 574.6L1132.4 574.6Q1132.4 575.3 1132.9 575.7Q1133.5 576.1 1134.4 576.1ZM1144.3 577.8Q1143.9 578.2 1143.3 578.2Q1142.7 578.2 1142.3 577.8Q1142.0 577.4 1142.0 576.8L1142.0 576.8L1142.0 563.6Q1142.0 563.0 1142.3 562.6Q1142.7 562.2 1143.3 562.2Q1143.9 562.2 1144.3 562.6Q1144.6 563.0 1144.6 563.6L1144.6 563.6L1144.6 576.8Q1144.6 577.4 1144.3 577.8ZM1148.8 578.1L1148.8 578.1Q1148.1 578.1 1147.7 577.6Q1147.2 577.2 1147.2 576.5L1147.2 576.5Q1147.2 575.9 1147.7 575.4Q1148.1 575.0 1148.8 575.0L1148.8 575.0Q1149.4 575.0 1149.9 575.4Q1150.3 575.9 1150.3 576.5L1150.3 576.5Q1150.3 577.2 1149.9 577.6Q1149.4 578.1 1148.8 578.1Z " clip-path="url(#satori_cp-id-0)" mask="url(#satori_om-id-0)"/></svg>