<svg width="1200" height="630" viewBox="0 0 1200 630" xmlns="http://www.w3.org/2000/svg"><mask id="satori_om-id"><rect x="0" y="0" width="1200" height="630" fill="#fff"/></mask><mask id="satori_om-id-0"><rect x="0" y="0" width="1200" height="630" fill="#fff"/></mask><rect x="0" y="0" width="1200" height="630" fill="#f2f2f2"/><mask id="satori_om-id-0-0"><rect x="0" y="0" width="1200" height="441" fill="#fff"/></mask><mask id="satori_om-id-0-0-0"><rect x="40" y="56" width="1120" height="35" fill="#fff"/></mask><path fill="#8e8e8e" d="M50.0 84.4Q49.6 84.9 48.8 84.9Q48.1 84.9 47.6 84.4Q47.2 84.0 47.2 83.2L47.2 83.2L47.2 66.4L42.0 66.4Q41.3 66.4 40.9 66.0Q40.5 65.6 40.5 64.9Q40.5 64.3 40.9 63.9Q41.3 63.5 42.0 63.5L42.0 63.5L55.6 63.5Q56.3 63.5 56.8 63.9Q57.2 64.3 57.2 64.9Q57.2 65.6 56.8 66.0Q56.3 66.4 55.6 66.4L55.6 66.4L50.5 66.4L50.5 83.2Q50.5 84.0 50.0 84.4ZM62.1 84.5Q61.6 84.9 60.9 84.9Q60.2 84.9 59.8 84.5Q59.3 84.0 59.3 83.3L59.3 83.3L59.3 64.9Q59.3 64.1 59.8 63.7Q60.2 63.2 60.9 63.2L60.9 63.2Q61.6 63.2 62.1 63.7Q62.5 64.1 62.5 64.9L62.5 64.9L62.5 71.8L62.5 71.8Q63.2 70.5 64.4 69.7Q65.7 69.0 67.4 69.0L67.4 69.0Q69.9 69.0 71.4 70.5Q72.8 72.1 72.8 74.7L72.8 74.7L72.8 83.3Q72.8 84.0 72.4 84.5Q71.9 84.9 71.2 84.9L71.2 84.9Q70.5 84.9 70.1 84.5Q69.6 84.0 69.6 83.3L69.6 83.3L69.6 75.3Q69.6 73.6 68.8 72.7Q67.9 71.7 66.3 71.7L66.3 71.7Q64.5 71.7 63.5 72.8Q62.5 73.9 62.5 75.8L62.5 75.8L62.5 83.3Q62.5 84.0 62.1 84.5ZM81.2 84.9L81.2 84.9Q78.7 84.9 77.2 83.4Q75.8 81.9 75.8 79.2L75.8 79.2L75.8 70.7Q75.8 69.9 76.2 69.4Q76.7 69.0 77.4 69.0L77.4 69.0Q78.1 69.0 78.5 69.4Q79.0 69.9 79.0 70.7L79.0 70.7L79.0 78.6Q79.0 80.4 79.8 81.3Q80.6 82.2 82.3 82.2L82.3 82.2Q84.0 82.2 84.9 81.1Q85.9 80.0 85.9 78.2L85.9 78.2L85.9 70.7Q85.9 69.9 86.4 69.4Q86.8 69.0 87.5 69.0L87.5 69.0Q88.2 69.0 88.7 69.4Q89.1 69.9 89.1 70.7L89.1 70.7L89.1 83.3Q89.1 84.1 88.7 84.5Q88.3 84.9 87.6 84.9Q86.9 84.9 86.5 84.5Q86.1 84.1 86.1 83.3L86.1 83.3L86.1 82.1L86.0 82.1Q84.6 84.9 81.2 84.9ZM93.8 84.9L93.8 84.9Q93.1 84.9 92.6 84.5Q92.2 84.0 92.2 83.3L92.2 83.3L92.2 70.6Q92.2 69.9 92.6 69.4Q93.0 69.0 93.7 69.0L93.7 69.0Q94.4 69.0 94.8 69.4Q95.2 69.9 95.2 70.6L95.2 70.6L95.2 71.9L95.3 71.9Q95.6 70.6 96.6 69.8Q97.5 69.0 98.7 69.0L98.7 69.0Q99.5 69.0 99.9 69.4L99.9 69.4Q100.3 69.7 100.3 70.5L100.3 70.5Q100.3 71.2 99.9 71.6L99.9 71.6Q99.4 72.0 98.4 72.0L98.4 72.0Q96.9 72.0 96.1 73.0Q95.4 73.9 95.4 75.4L95.4 75.4L95.4 83.3Q95.4 84.0 94.9 84.5Q94.5 84.9 93.8 84.9ZM107.7 85.0L107.7 85.0Q105.5 85.0 103.9 84.1Q102.3 83.3 101.7 81.8L101.7 81.8Q101.6 81.5 101.6 81.2L101.6 81.2Q101.6 80.6 102.0 80.2Q102.4 79.9 103.0 79.9L103.0 79.9Q103.8 79.9 104.4 80.7L104.4 80.7Q105.0 81.7 105.8 82.1Q106.5 82.5 107.9 82.5L107.9 82.5Q109.3 82.5 110.1 82.0Q110.9 81.4 110.9 80.5L110.9 80.5Q110.9 79.7 110.4 79.3Q109.9 78.8 108.7 78.5L108.7 78.5L106.2 78.0Q101.8 76.9 101.8 73.6L101.8 73.6Q101.8 71.5 103.4 70.2Q105.1 69.0 107.9 69.0L107.9 69.0Q109.9 69.0 111.5 69.9Q113.0 70.8 113.4 72.2L113.4 72.2Q113.4 72.6 113.4 72.7L113.4 72.7Q113.4 73.2 113.1 73.5Q112.8 73.9 112.2 73.9L112.2 73.9Q111.3 73.9 110.9 73.2L110.9 73.2Q110.4 72.3 109.6 71.8Q108.9 71.4 107.7 71.4L107.7 71.4Q106.5 71.4 105.7 72.0Q104.9 72.5 104.9 73.4L104.9 73.4Q104.9 74.9 107.2 75.5L107.2 75.5L109.6 76.0Q112.1 76.6 113.1 77.5Q114.1 78.5 114.1 80.2L114.1 80.2Q114.1 82.3 112.3 83.6Q110.6 85.0 107.7 85.0ZM122.3 84.9L122.3 84.9Q119.4 84.9 117.6 82.8Q115.9 80.6 115.9 77.0Q115.9 73.3 117.6 71.2Q119.4 69.0 122.3 69.0L122.3 69.0Q123.9 69.0 125.2 69.8Q126.5 70.5 127.1 71.8L127.1 71.8L127.2 71.8L127.2 64.9Q127.2 64.1 127.6 63.7Q128.1 63.2 128.8 63.2L128.8 63.2Q129.5 63.2 129.9 63.7Q130.4 64.2 130.4 64.9L130.4 64.9L130.4 83.4Q130.4 84.1 129.9 84.5Q129.5 84.9 128.8 84.9L128.8 84.9Q128.1 84.9 127.7 84.5Q127.2 84.1 127.2 83.4L127.2 83.4L127.2 81.9L127.2 81.9Q126.5 83.3 125.3 84.1Q124.1 84.9 122.3 84.9ZM123.2 82.2L123.2 82.2Q125.0 82.2 126.1 80.8Q127.2 79.4 127.2 77.0L127.2 77.0Q127.2 74.6 126.1 73.1Q125.0 71.7 123.2 71.7L123.2 71.7Q121.3 71.7 120.2 73.1Q119.1 74.5 119.1 77.0L119.1 77.0Q119.1 79.4 120.2 80.8Q121.3 82.2 123.2 82.2ZM138.1 84.9L138.1 84.9Q135.9 84.9 134.4 83.6Q133.0 82.3 133.0 80.3L133.0 80.3Q133.0 78.3 134.5 77.1Q136.0 75.9 138.7 75.7L138.7 75.7L142.9 75.5L142.9 74.3Q142.9 73.0 142.1 72.3Q141.3 71.6 139.9 71.6L139.9 71.6Q138.7 71.6 137.9 72.0Q137.1 72.5 136.4 73.5L136.4 73.5Q136.0 74.2 135.2 74.2L135.2 74.2Q134.6 74.2 134.2 73.8Q133.8 73.4 133.8 72.9L133.8 72.9Q133.8 72.3 134.1 71.8L134.1 71.8Q134.7 70.5 136.3 69.8Q137.9 69.0 140.0 69.0L140.0 69.0Q142.8 69.0 144.4 70.4Q146.1 71.7 146.1 74.0L146.1 74.0L146.1 83.3Q146.1 84.1 145.7 84.5Q145.2 84.9 144.6 84.9L144.6 84.9Q143.9 84.9 143.5 84.5Q143.1 84.1 143.1 83.4L143.1 83.4L143.1 82.1L143.0 82.1Q142.3 83.4 141.0 84.2Q139.7 84.9 138.1 84.9ZM139.0 82.4L139.0 82.4Q140.7 82.4 141.8 81.4Q142.9 80.4 142.9 78.9L142.9 78.9L142.9 77.7L139.1 77.9Q137.7 78.0 137.0 78.6Q136.2 79.2 136.2 80.2L136.2 80.2Q136.2 81.2 137.0 81.8Q137.7 82.4 139.0 82.4ZM151.1 90.4L151.1 90.4Q150.0 90.4 149.4 90.0Q148.8 89.6 148.8 88.9L148.8 88.9Q148.8 88.4 149.1 88.1Q149.5 87.8 150.0 87.8L150.0 87.8Q150.2 87.8 150.4 87.8Q150.7 87.8 150.8 87.8L150.8 87.8Q152.4 87.8 153.2 85.7L153.2 85.7L153.5 84.8L148.3 71.3Q148.1 70.9 148.1 70.4L148.1 70.4Q148.1 69.8 148.6 69.4Q149.1 69.0 149.8 69.0L149.8 69.0Q150.4 69.0 150.7 69.3Q151.1 69.5 151.3 70.2L151.3 70.2L155.2 81.8L155.3 81.8L159.2 70.2Q159.4 69.5 159.7 69.3Q160.1 69.0 160.7 69.0L160.7 69.0Q161.4 69.0 161.8 69.4Q162.2 69.8 162.2 70.4L162.2 70.4Q162.2 70.8 162.1 71.3L162.1 71.3L156.7 85.4Q155.7 88.2 154.5 89.3Q153.2 90.4 151.1 90.4ZM166.7 81.1L166.7 81.1Q167.4 81.1 167.8 81.5Q168.2 81.8 168.2 82.4L168.2 82.4Q168.2 82.8 168.1 83.3L168.1 83.3L166.8 88.3Q166.5 89.4 165.4 89.4L165.4 89.4Q164.9 89.4 164.5 89.1Q164.2 88.7 164.2 88.2L164.2 88.2Q164.2 88.1 164.3 87.8L164.3 87.8L165.2 82.4Q165.4 81.1 166.7 81.1Z M181.7 84.9L181.7 84.9Q181.0 84.9 180.6 84.6Q180.2 84.2 180.2 83.6L180.2 83.6Q180.2 83.1 180.5 82.6L180.5 82.6L189.0 66.4L189.0 66.3L179.1 66.3Q178.5 66.3 178.1 65.9Q177.7 65.5 177.7 64.9L177.7 64.9Q177.7 64.3 178.1 63.9Q178.5 63.5 179.1 63.5L179.1 63.5L190.3 63.5Q191.2 63.5 191.8 64.0Q192.3 64.5 192.3 65.4L192.3 65.4Q192.3 66.1 191.7 67.4L191.7 67.4L183.2 84.0Q182.9 84.5 182.6 84.7Q182.2 84.9 181.7 84.9Z M204.2 84.5Q203.8 84.9 203.1 84.9Q202.3 84.9 201.9 84.5Q201.5 84.0 201.5 83.2L201.5 83.2L201.5 65.1Q201.5 64.2 201.9 63.8Q202.4 63.3 203.2 63.3L203.2 63.3Q203.8 63.3 204.2 63.5Q204.6 63.7 205.0 64.3L205.0 64.3L215.4 79.1L215.5 79.1L215.5 65.0Q215.5 64.2 215.9 63.7Q216.4 63.3 217.1 63.3L217.1 63.3Q217.8 63.3 218.3 63.7Q218.7 64.2 218.7 65.0L218.7 65.0L218.7 83.2Q218.7 84.0 218.2 84.5Q217.8 84.9 217.0 84.9L217.0 84.9Q216.4 84.9 216.0 84.7Q215.6 84.5 215.2 83.9L215.2 83.9L204.8 69.1L204.6 69.1L204.6 83.2Q204.6 84.0 204.2 84.5ZM234.2 82.8Q232.2 85.0 228.8 85.0Q225.5 85.0 223.5 82.8Q221.5 80.7 221.5 77.0L221.5 77.0Q221.5 73.3 223.5 71.1Q225.5 69.0 228.8 69.0Q232.2 69.0 234.2 71.1Q236.1 73.3 236.1 77.0L236.1 77.0Q236.1 80.7 234.2 82.8ZM228.8 82.3L228.8 82.3Q230.7 82.3 231.8 80.9Q232.9 79.5 232.9 77.0L232.9 77.0Q232.9 74.4 231.8 73.0Q230.7 71.6 228.8 71.6Q227.0 71.6 225.9 73.0Q224.7 74.4 224.7 77.0L224.7 77.0Q224.7 79.5 225.9 80.9Q227.0 82.3 228.8 82.3ZM244.5 84.9L244.5 84.9Q243.7 84.9 243.2 84.6Q242.7 84.2 242.3 83.3L242.3 83.3L237.8 71.3Q237.6 70.8 237.6 70.4L237.6 70.4Q237.6 69.8 238.0 69.4Q238.5 69.0 239.2 69.0L239.2 69.0Q240.3 69.0 240.7 70.2L240.7 70.2L244.5 81.6L244.6 81.6L248.4 70.2Q248.8 69.0 249.9 69.0L249.9 69.0Q250.5 69.0 251.0 69.4Q251.4 69.8 251.4 70.4L251.4 70.4Q251.4 70.9 251.3 71.3L251.3 71.3L246.7 83.3Q246.4 84.2 245.9 84.6Q245.3 84.9 244.5 84.9ZM260.2 85.0L260.2 85.0Q256.8 85.0 254.8 82.9Q252.9 80.8 252.9 77.0L252.9 77.0Q252.9 73.4 254.8 71.2Q256.8 69.0 260.0 69.0L260.0 69.0Q263.1 69.0 265.0 71.0Q266.9 73.0 266.9 76.1L266.9 76.1Q266.9 76.9 266.5 77.3Q266.1 77.8 265.4 77.8L265.4 77.8L256.1 77.8L256.1 77.8Q256.1 79.9 257.2 81.2Q258.3 82.4 260.2 82.4L260.2 82.4Q261.5 82.4 262.4 81.9Q263.3 81.4 264.2 80.2L264.2 80.2Q264.6 79.6 265.3 79.6L265.3 79.6Q265.8 79.6 266.2 80.0Q266.6 80.3 266.6 80.9L266.6 80.9Q266.6 81.3 266.4 81.8L266.4 81.8Q265.6 83.3 264.0 84.1Q262.4 85.0 260.2 85.0ZM256.1 75.5L256.1 75.5L263.8 75.5Q263.7 73.7 262.7 72.6Q261.7 71.5 260.0 71.5L260.0 71.5Q258.4 71.5 257.3 72.6Q256.2 73.7 256.1 75.5ZM272.1 84.5Q271.7 84.9 271.0 84.9Q270.3 84.9 269.8 84.5Q269.4 84.0 269.4 83.3L269.4 83.3L269.4 70.6Q269.4 69.9 269.8 69.4Q270.2 69.0 270.9 69.0Q271.6 69.0 272.0 69.4Q272.4 69.8 272.4 70.6L272.4 70.6L272.4 71.8L272.5 71.8Q273.0 70.5 274.2 69.8Q275.3 69.0 276.9 69.0L276.9 69.0Q278.5 69.0 279.6 69.8Q280.7 70.6 281.2 72.0L281.2 72.0L281.2 72.0Q281.8 70.6 283.1 69.8Q284.4 69.0 286.0 69.0L286.0 69.0Q288.3 69.0 289.7 70.4Q291.1 71.8 291.1 74.1L291.1 74.1L291.1 83.3Q291.1 84.0 290.6 84.5Q290.2 84.9 289.5 84.9Q288.8 84.9 288.3 84.5Q287.9 84.0 287.9 83.3L287.9 83.3L287.9 74.8Q287.9 73.3 287.1 72.5Q286.4 71.7 285.0 71.7Q283.6 71.7 282.7 72.6Q281.8 73.6 281.8 75.0L281.8 75.0L281.8 83.3Q281.8 84.0 281.4 84.5Q281.0 84.9 280.2 84.9Q279.5 84.9 279.1 84.5Q278.7 84.0 278.7 83.3L278.7 83.3L278.7 74.6Q278.7 73.3 277.9 72.5Q277.1 71.7 275.8 71.7L275.8 71.7Q274.4 71.7 273.5 72.7Q272.6 73.6 272.6 75.1L272.6 75.1L272.6 83.3Q272.6 84.0 272.1 84.5ZM295.8 84.9L295.8 84.9Q295.1 84.9 294.7 84.5Q294.3 84.1 294.3 83.4L294.3 83.4L294.3 64.9Q294.3 64.2 294.7 63.7Q295.1 63.2 295.8 63.2Q296.5 63.2 297.0 63.7Q297.4 64.2 297.4 64.9L297.4 64.9L297.4 71.9L297.5 71.9Q298.2 70.5 299.5 69.8Q300.7 69.0 302.4 69.0L302.4 69.0Q305.3 69.0 307.0 71.2Q308.8 73.3 308.8 77.0L308.8 77.0Q308.8 80.6 307.0 82.8Q305.3 84.9 302.3 84.9L302.3 84.9Q300.7 84.9 299.4 84.2Q298.1 83.4 297.4 82.0L297.4 82.0L297.3 82.0L297.3 83.4Q297.3 84.1 296.9 84.5Q296.5 84.9 295.8 84.9ZM301.5 82.2L301.5 82.2Q303.4 82.2 304.4 80.8Q305.5 79.4 305.5 77.0L305.5 77.0Q305.5 74.5 304.4 73.1Q303.3 71.7 301.5 71.7L301.5 71.7Q299.7 71.7 298.5 73.1Q297.4 74.6 297.4 77.0L297.4 77.0Q297.4 79.3 298.5 80.8Q299.7 82.2 301.5 82.2ZM317.9 85.0L317.9 85.0Q314.4 85.0 312.5 82.9Q310.5 80.8 310.5 77.0L310.5 77.0Q310.5 73.4 312.5 71.2Q314.4 69.0 317.7 69.0L317.7 69.0Q320.8 69.0 322.7 71.0Q324.6 73.0 324.6 76.1L324.6 76.1Q324.6 76.9 324.2 77.3Q323.8 77.8 323.1 77.8L323.1 77.8L313.7 77.8L313.7 77.8Q313.7 79.9 314.8 81.2Q315.9 82.4 317.8 82.4L317.8 82.4Q319.1 82.4 320.0 81.9Q320.9 81.4 321.8 80.2L321.8 80.2Q322.3 79.6 322.9 79.6L322.9 79.6Q323.5 79.6 323.9 80.0Q324.3 80.3 324.3 80.9L324.3 80.9Q324.3 81.3 324.0 81.8L324.0 81.8Q323.3 83.3 321.7 84.1Q320.1 85.0 317.9 85.0ZM313.8 75.5L313.8 75.5L321.5 75.5Q321.4 73.7 320.4 72.6Q319.3 71.5 317.7 71.5L317.7 71.5Q316.0 71.5 315.0 72.6Q313.9 73.7 313.8 75.5ZM328.6 84.9L328.6 84.9Q327.9 84.9 327.5 84.5Q327.1 84.0 327.1 83.3L327.1 83.3L327.1 70.6Q327.1 69.9 327.5 69.4Q327.9 69.0 328.6 69.0L328.6 69.0Q329.2 69.0 329.7 69.4Q330.1 69.9 330.1 70.6L330.1 70.6L330.1 71.9L330.1 71.9Q330.5 70.6 331.4 69.8Q332.4 69.0 333.5 69.0L333.5 69.0Q334.4 69.0 334.8 69.4L334.8 69.4Q335.2 69.7 335.2 70.5L335.2 70.5Q335.2 71.2 334.7 71.6L334.7 71.6Q334.3 72.0 333.3 72.0L333.3 72.0Q331.7 72.0 331.0 73.0Q330.2 73.9 330.2 75.4L330.2 75.4L330.2 83.3Q330.2 84.0 329.8 84.5Q329.4 84.9 328.6 84.9Z M356.2 84.7L344.6 84.7Q343.8 84.7 343.4 84.3Q343.0 83.9 343.0 83.3L343.0 83.3Q343.0 82.8 343.2 82.5Q343.4 82.1 343.9 81.6L343.9 81.6L350.5 74.9Q352.6 72.8 353.3 71.7Q353.9 70.6 353.9 69.3L353.9 69.3Q353.9 67.8 352.9 66.8Q351.9 65.8 350.3 65.8L350.3 65.8Q347.1 65.8 346.0 69.0L346.0 69.0Q345.8 69.5 345.4 69.8Q345.1 70.0 344.5 70.0L344.5 70.0Q343.9 70.0 343.5 69.6Q343.1 69.3 343.1 68.6L343.1 68.6Q343.1 68.3 343.2 68.0L343.2 68.0Q343.4 67.1 343.9 66.3Q344.5 65.4 345.3 64.7Q346.2 64.0 347.5 63.6Q348.8 63.1 350.3 63.1L350.3 63.1Q353.3 63.1 355.2 64.8Q357.2 66.5 357.2 69.1L357.2 69.1Q357.2 70.9 356.2 72.5Q355.2 74.0 352.5 76.8L352.5 76.8L347.5 81.8L347.5 81.9L356.2 81.9Q356.9 81.9 357.3 82.3Q357.7 82.7 357.7 83.3L357.7 83.3Q357.7 83.9 357.3 84.3Q356.9 84.7 356.2 84.7L356.2 84.7ZM374.1 82.1Q372.0 85.1 368.2 85.1Q364.4 85.1 362.2 82.1Q360.1 79.2 360.1 74.1L360.1 74.1Q360.1 69.0 362.2 66.1Q364.4 63.1 368.2 63.1L368.2 63.1Q371.9 63.1 374.1 66.1Q376.2 69.0 376.2 74.1L376.2 74.1Q376.2 79.1 374.1 82.1ZM368.2 82.3L368.2 82.3Q370.4 82.3 371.7 80.1Q372.9 77.9 372.9 74.1L372.9 74.1Q372.9 70.3 371.7 68.1Q370.4 65.9 368.2 65.9Q365.9 65.9 364.7 68.1Q363.4 70.3 363.4 74.1L363.4 74.1Q363.4 77.9 364.6 80.1Q365.9 82.3 368.2 82.3ZM392.3 84.7L380.6 84.7Q379.9 84.7 379.5 84.3Q379.1 83.9 379.1 83.3L379.1 83.3Q379.1 82.8 379.3 82.5Q379.5 82.1 380.0 81.6L380.0 81.6L386.6 74.9Q388.7 72.8 389.4 71.7Q390.0 70.6 390.0 69.3L390.0 69.3Q390.0 67.8 389.0 66.8Q388.0 65.8 386.4 65.8L386.4 65.8Q383.2 65.8 382.1 69.0L382.1 69.0Q381.9 69.5 381.5 69.8Q381.2 70.0 380.6 70.0L380.6 70.0Q380.0 70.0 379.6 69.6Q379.2 69.3 379.2 68.6L379.2 68.6Q379.2 68.3 379.3 68.0L379.3 68.0Q379.4 67.1 380.0 66.3Q380.5 65.4 381.4 64.7Q382.3 64.0 383.6 63.6Q384.9 63.1 386.4 63.1L386.4 63.1Q389.4 63.1 391.3 64.8Q393.3 66.5 393.3 69.1L393.3 69.1Q393.3 70.9 392.3 72.5Q391.3 74.0 388.6 76.8L388.6 76.8L383.5 81.8L383.5 81.9L392.3 81.9Q393.0 81.9 393.4 82.3Q393.8 82.7 393.8 83.3L393.8 83.3Q393.8 83.9 393.4 84.3Q393.0 84.7 392.3 84.7L392.3 84.7ZM408.1 84.9L408.1 84.9Q407.5 84.9 407.0 84.5Q406.6 84.0 406.6 83.3L406.6 83.3L406.6 80.5L397.9 80.5Q397.0 80.5 396.5 80.0Q396.0 79.4 396.0 78.6L396.0 78.6Q396.0 77.6 396.7 76.3L396.7 76.3Q398.5 73.0 403.5 65.7L403.5 65.7Q404.5 64.3 405.2 63.8Q406.0 63.2 407.0 63.2L407.0 63.2Q408.3 63.2 409.0 63.9Q409.7 64.5 409.7 65.7L409.7 65.7L409.7 77.7L411.4 77.7Q412.0 77.7 412.4 78.1Q412.8 78.5 412.8 79.1Q412.8 79.7 412.4 80.1Q412.0 80.5 411.4 80.5L411.4 80.5L409.7 80.5L409.7 83.3Q409.7 84.0 409.3 84.5Q408.8 84.9 408.1 84.9ZM399.0 77.8L406.6 77.8L406.6 66.1L406.5 66.1Q401.1 73.9 399.0 77.7L399.0 77.7L399.0 77.8Z "/><mask id="satori_om-id-0-0-1"><rect x="40" y="137" width="1120" height="243" fill="#fff"/></mask><path fill="#224d67" d="M45.6 200.1L45.6 200.1Q43.8 200.1 42.8 199.1Q41.8 198.2 41.8 196.6L41.8 196.6Q41.8 195.6 42.3 194.3L42.3 194.3L54.5 160.9Q55.3 158.8 56.6 157.8Q58.0 156.8 60.0 156.8L60.0 156.8Q62.1 156.8 63.4 157.8Q64.8 158.7 65.5 160.9L65.5 160.9L77.9 194.3Q78.3 195.7 78.3 196.6L78.3 196.6Q78.3 198.1 77.3 199.1Q76.2 200.1 74.6 200.1L74.6 200.1Q73.0 200.1 72.1 199.3Q71.2 198.6 70.7 196.9L70.7 196.9L67.9 188.8L52.1 188.8L49.3 196.8Q48.8 198.6 47.9 199.3Q47.0 200.1 45.6 200.1ZM59.9 164.8L53.9 182.8L66.1 182.8L60.1 164.8L59.9 164.8Z M114.2 200.3L114.2 200.3Q105.0 200.3 99.7 194.4Q94.4 188.6 94.4 178.4L94.4 178.4Q94.4 168.3 99.7 162.5Q105.0 156.6 114.0 156.6L114.0 156.6Q119.9 156.6 124.3 159.2Q128.7 161.8 130.8 166.4L130.8 166.4Q131.5 167.9 131.5 169.3L131.5 169.3Q131.5 170.8 130.6 171.7Q129.7 172.6 128.2 172.6L128.2 172.6Q125.6 172.6 124.5 169.9L124.5 169.9Q123.0 166.6 120.3 164.8Q117.5 163.0 114.1 163.0L114.1 163.0Q108.6 163.0 105.4 167.2Q102.1 171.4 102.1 178.4L102.1 178.4Q102.1 185.5 105.4 189.7Q108.6 193.9 114.1 193.9L114.1 193.9Q121.7 193.9 124.6 187.3L124.6 187.3Q125.2 186.0 125.9 185.4Q126.7 184.9 127.9 184.9L127.9 184.9Q129.5 184.9 130.5 185.8Q131.5 186.7 131.5 188.2L131.5 188.2Q131.5 189.6 130.8 191.1L130.8 191.1Q128.7 195.4 124.4 197.8Q120.0 200.3 114.2 200.3ZM146.4 200.1L146.4 200.1Q141.8 200.1 138.9 197.5Q136.0 194.9 136.0 190.7L136.0 190.7Q136.0 186.6 139.1 184.2Q142.1 181.8 147.8 181.4L147.8 181.4L156.0 180.9L156.0 178.7Q156.0 176.3 154.5 174.9Q153.0 173.6 150.2 173.6L150.2 173.6Q148.1 173.6 146.6 174.4Q145.1 175.2 143.7 177.2L143.7 177.2Q142.6 178.7 140.8 178.7L140.8 178.7Q139.4 178.7 138.6 177.9Q137.7 177.1 137.7 175.8L137.7 175.8Q137.7 174.8 138.2 173.8L138.2 173.8Q139.4 171.1 142.7 169.5Q146.1 167.9 150.5 167.9L150.5 167.9Q156.3 167.9 159.8 170.7Q163.3 173.5 163.3 178.2L163.3 178.2L163.3 196.5Q163.3 198.2 162.3 199.2Q161.3 200.2 159.7 200.2L159.7 200.2Q158.2 200.2 157.2 199.3Q156.3 198.4 156.2 196.8L156.2 196.8L156.2 194.6L156.1 194.6Q154.8 197.1 152.1 198.6Q149.4 200.1 146.4 200.1ZM148.6 194.6L148.6 194.6Q151.7 194.6 153.9 192.7Q156.0 190.8 156.0 188.1L156.0 188.1L156.0 185.7L148.8 186.1Q146.2 186.3 144.8 187.4Q143.3 188.6 143.3 190.4L143.3 190.4Q143.3 192.3 144.8 193.4Q146.2 194.6 148.6 194.6ZM171.1 191.9L171.1 191.9L171.1 174.1L169.2 174.1Q167.8 174.1 167.0 173.4Q166.2 172.6 166.2 171.3L166.2 171.3Q166.2 170.0 167.0 169.3Q167.8 168.5 169.2 168.5L169.2 168.5L171.1 168.5L171.1 164.4Q171.1 162.6 172.1 161.6Q173.1 160.6 174.8 160.6L174.8 160.6Q176.5 160.6 177.4 161.6Q178.4 162.6 178.4 164.4L178.4 164.4L178.4 168.5L181.8 168.5Q183.2 168.5 184.0 169.3Q184.7 170.0 184.7 171.3L184.7 171.3Q184.7 172.6 183.9 173.4Q183.1 174.1 181.8 174.1L181.8 174.1L178.4 174.1L178.4 190.3Q178.4 192.1 179.1 192.9Q179.8 193.7 181.4 193.9L181.4 193.9L181.9 193.9Q184.8 194.2 184.8 196.6L184.8 196.6Q184.8 198.2 183.5 199.1Q182.1 199.9 179.6 199.9L179.6 199.9L179.3 199.9Q171.1 199.9 171.1 191.9ZM203.0 200.2L203.0 200.2Q195.9 200.2 191.9 196.0Q187.9 191.7 187.9 184.2L187.9 184.2Q187.9 176.7 191.9 172.3Q195.9 167.9 202.6 167.9L202.6 167.9Q209.0 167.9 213.0 171.9Q216.9 176.0 216.9 182.4L216.9 182.4Q216.9 184.0 216.0 184.9Q215.1 185.8 213.5 185.8L213.5 185.8L195.2 185.8L195.2 186.0Q195.2 189.9 197.3 192.3Q199.4 194.6 203.0 194.6L203.0 194.6Q205.4 194.6 207.2 193.6Q209.0 192.7 210.7 190.4L210.7 190.4Q211.8 189.3 213.2 189.3L213.2 189.3Q214.5 189.3 215.3 190.0Q216.1 190.8 216.1 192.1L216.1 192.1Q216.1 192.9 215.6 193.9L215.6 193.9Q214.1 196.9 210.8 198.5Q207.5 200.2 203.0 200.2ZM195.3 181.0L195.3 181.0L209.8 181.0Q209.7 177.6 207.7 175.6Q205.7 173.5 202.7 173.5Q199.6 173.5 197.5 175.6Q195.5 177.7 195.3 181.0ZM235 211.3L235 211.3Q230.6 211.2 227.3 209.7Q224.0 208.2 222.4 205.6L222.4 205.6Q221.8 204.6 221.8 203.4L221.8 203.4Q221.8 202.2 222.6 201.4Q223.5 200.6 224.8 200.6L224.8 200.6Q226.2 200.6 227.5 201.8L227.5 201.8Q229.4 203.7 231.1 204.6Q232.9 205.4 235.1 205.5L235.1 205.5Q238.7 205.5 240.8 203.6Q243.0 201.7 243.0 198.6L243.0 198.6L243.0 193.7L242.8 193.7Q241.6 196.2 239.0 197.7Q236.4 199.3 233.1 199.3L233.1 199.3Q227.2 199.3 223.8 195.0Q220.3 190.8 220.3 183.7L220.3 183.7Q220.3 176.4 223.8 172.2Q227.2 168.0 233.2 168.0L233.2 168.0Q236.5 168.0 239.0 169.5Q241.5 171.1 242.9 173.8L242.9 173.8L243.0 173.8L243.0 171.6Q243.0 169.9 244.0 168.9Q245.0 167.9 246.7 167.9Q248.3 167.9 249.3 168.9Q250.3 169.9 250.3 171.6L250.3 171.6L250.3 198.6Q250.3 204.5 246.2 207.9Q242.1 211.3 235 211.3ZM235.3 193.6L235.3 193.6Q238.8 193.6 240.9 190.9Q243.0 188.3 243.0 183.7L243.0 183.7Q243.0 179.2 240.9 176.5Q238.8 173.8 235.3 173.8L235.3 173.8Q231.9 173.8 229.8 176.5Q227.8 179.2 227.8 183.7L227.8 183.7Q227.8 188.3 229.8 191.0Q231.9 193.6 235.3 193.6ZM280.9 195.9Q276.9 200.2 270.0 200.2Q263.1 200.2 259.0 195.9Q255.0 191.6 255.0 184.1L255.0 184.1Q255.0 176.6 259.1 172.2Q263.2 167.9 270.0 167.9L270.0 167.9Q276.8 167.9 280.9 172.2Q285.0 176.6 285.0 184.1L285.0 184.1Q285.0 191.6 280.9 195.9ZM264.4 191.7Q266.5 194.4 270.0 194.4Q273.5 194.4 275.5 191.7Q277.6 189.0 277.6 184.1L277.6 184.1Q277.6 179.2 275.5 176.4Q273.5 173.7 270.0 173.7L270.0 173.7Q266.5 173.7 264.4 176.4Q262.4 179.2 262.4 184.1L262.4 184.1Q262.4 189.0 264.4 191.7ZM296.0 199.1Q295 200.2 293.3 200.2Q291.7 200.2 290.7 199.1Q289.7 198.1 289.7 196.3L289.7 196.3L289.7 171.6Q289.7 169.9 290.6 168.9Q291.6 167.9 293.2 167.9L293.2 167.9Q294.7 167.9 295.7 168.9Q296.6 169.9 296.6 171.6L296.6 171.6L296.6 174.0L296.8 174.0Q297.4 171.3 299.3 169.6Q301.1 168.0 303.4 168.0L303.4 168.0Q305.1 168.0 306.0 168.8L306.0 168.8Q307.0 169.6 307.0 171.4L307.0 171.4Q307.0 173.1 306.0 174.0L306.0 174.0Q304.9 174.9 302.7 175.0L302.7 175.0Q297.0 175.0 297.0 181.4L297.0 181.4L297.0 196.3Q297.0 198.1 296.0 199.1ZM317.0 163.0Q315.8 164.2 314.1 164.2Q312.4 164.2 311.3 163.0Q310.1 161.8 310.1 160.2L310.1 160.2Q310.1 158.5 311.3 157.4Q312.4 156.2 314.1 156.2L314.1 156.2Q315.9 156.2 317.0 157.4Q318.2 158.5 318.2 160.2L318.2 160.2Q318.2 161.8 317.0 163.0ZM316.8 199.1Q315.8 200.2 314.1 200.2Q312.5 200.2 311.5 199.1Q310.5 198.1 310.5 196.3L310.5 196.3L310.5 171.7Q310.5 170.0 311.5 168.9Q312.5 167.9 314.1 167.9Q315.8 167.9 316.8 168.9Q317.8 170.0 317.8 171.8L317.8 171.8L317.8 196.3Q317.8 198.1 316.8 199.1ZM337.6 200.2L337.6 200.2Q330.7 200.2 326.7 195.9Q322.6 191.5 322.6 184.1L322.6 184.1Q322.6 176.7 326.7 172.3Q330.7 167.9 337.5 167.9L337.5 167.9Q342.1 167.9 345.6 170.0Q349.2 172.1 350.3 175.4L350.3 175.4Q350.7 176.4 350.7 177.1L350.7 177.1Q350.7 178.5 349.8 179.3Q348.9 180.1 347.5 180.1L347.5 180.1Q346.4 180.1 345.7 179.6Q345.0 179.1 344.3 178.0L344.3 178.0Q342.1 173.8 337.7 173.8L337.7 173.8Q334.2 173.8 332.1 176.6Q330.0 179.3 330.0 184.1L330.0 184.1Q330.0 188.9 332.1 191.6Q334.2 194.3 337.7 194.3L337.7 194.3Q342.1 194.3 344.3 190.3L344.3 190.3Q345.1 189.1 345.8 188.6Q346.5 188.1 347.7 188.1L347.7 188.1Q349.0 188.1 349.9 188.9Q350.8 189.7 350.8 191.1L350.8 191.1Q350.8 191.9 350.3 192.9L350.3 192.9Q349.0 196.1 345.5 198.2Q341.9 200.2 337.6 200.2ZM364.8 200.1L364.8 200.1Q360.2 200.1 357.3 197.5Q354.4 194.9 354.4 190.7L354.4 190.7Q354.4 186.6 357.4 184.2Q360.5 181.8 366.2 181.4L366.2 181.4L374.4 180.9L374.4 178.7Q374.4 176.3 372.9 174.9Q371.3 173.6 368.6 173.6L368.6 173.6Q366.5 173.6 365.0 174.4Q363.5 175.2 362.1 177.2L362.1 177.2Q361.0 178.7 359.2 178.7L359.2 178.7Q357.8 178.7 356.9 177.9Q356.1 177.1 356.1 175.8L356.1 175.8Q356.1 174.8 356.6 173.8L356.6 173.8Q357.8 171.1 361.1 169.5Q364.5 167.9 368.9 167.9L368.9 167.9Q374.7 167.9 378.2 170.7Q381.6 173.5 381.6 178.2L381.6 178.2L381.6 196.5Q381.6 198.2 380.6 199.2Q379.7 200.2 378.1 200.2L378.1 200.2Q376.6 200.2 375.6 199.3Q374.7 198.4 374.6 196.8L374.6 196.8L374.6 194.6L374.5 194.6Q373.1 197.1 370.5 198.6Q367.8 200.1 364.8 200.1ZM367.0 194.6L367.0 194.6Q370.1 194.6 372.3 192.7Q374.4 190.8 374.4 188.1L374.4 188.1L374.4 185.7L367.2 186.1Q364.6 186.3 363.1 187.4Q361.7 188.6 361.7 190.4L361.7 190.4Q361.7 192.3 363.1 193.4Q364.6 194.6 367.0 194.6ZM394.0 199.2Q393.0 200.2 391.4 200.2Q389.7 200.2 388.7 199.2Q387.7 198.1 387.7 196.3L387.7 196.3L387.7 160.6Q387.7 158.7 388.7 157.7Q389.7 156.7 391.4 156.7Q393.0 156.7 394.0 157.7Q395.0 158.7 395.0 160.6L395.0 160.6L395.0 196.3Q395.0 198.1 394.0 199.2Z M420.5 199.1Q419.5 200.2 417.7 200.2Q416.0 200.2 415.0 199.1Q413.9 198.1 413.9 196.2L413.9 196.2L413.9 161.2Q413.9 159.4 415.0 158.3Q416.0 157.3 417.7 157.3L417.7 157.3L430.7 157.3Q437.6 157.3 441.5 160.8Q445.4 164.4 445.4 170.5L445.4 170.5Q445.4 174.6 443.3 177.8Q441.3 181.0 437.6 182.4L437.6 182.4L444.3 194.1Q445.1 195.5 445.1 196.7L445.1 196.7Q445.1 198.2 444.1 199.2Q443.0 200.2 441.3 200.2L441.3 200.2Q440.0 200.2 439.2 199.6Q438.4 199.0 437.5 197.4L437.5 197.4L430.0 183.7L421.5 183.7L421.5 196.2Q421.5 198.1 420.5 199.1ZM421.5 163.4L421.5 177.9L430.0 177.9Q433.6 177.9 435.6 176.0Q437.6 174.1 437.6 170.6L437.6 170.6Q437.6 167.3 435.5 165.4Q433.5 163.4 429.9 163.4L429.9 163.4L421.5 163.4ZM464.5 200.2L464.5 200.2Q457.4 200.2 453.4 196.0Q449.4 191.7 449.4 184.2L449.4 184.2Q449.4 176.7 453.4 172.3Q457.4 167.9 464.1 167.9L464.1 167.9Q470.5 167.9 474.4 171.9Q478.4 176.0 478.4 182.4L478.4 182.4Q478.4 184.0 477.5 184.9Q476.6 185.8 475 185.8L475 185.8L456.7 185.8L456.7 186.0Q456.7 189.9 458.8 192.3Q460.9 194.6 464.5 194.6L464.5 194.6Q466.9 194.6 468.7 193.6Q470.5 192.7 472.2 190.4L472.2 190.4Q473.3 189.3 474.7 189.3L474.7 189.3Q475.9 189.3 476.8 190.0Q477.6 190.8 477.6 192.1L477.6 192.1Q477.6 192.9 477.1 193.9L477.1 193.9Q475.6 196.9 472.2 198.5Q468.9 200.2 464.5 200.2ZM456.7 181.0L456.7 181.0L471.3 181.0Q471.1 177.6 469.2 175.6Q467.2 173.5 464.1 173.5Q461.1 173.5 459.0 175.6Q457.0 177.7 456.7 181.0ZM489.4 209.6Q488.4 210.6 486.7 210.6Q485.1 210.6 484.1 209.6Q483.1 208.6 483.1 206.8L483.1 206.8L483.1 171.7Q483.1 169.9 484.1 168.9Q485.0 167.9 486.6 167.9L486.6 167.9Q488.2 167.9 489.2 168.9Q490.2 169.9 490.2 171.7L490.2 171.7L490.2 173.9L490.4 173.9Q491.7 171.1 494.2 169.6Q496.8 168.0 500.1 168.0L500.1 168.0Q506.1 168.0 509.5 172.3Q513.0 176.6 513.0 184.1L513.0 184.1Q513.0 191.5 509.6 195.8Q506.1 200.1 500.3 200.1L500.3 200.1Q496.9 200.1 494.4 198.6Q491.8 197.1 490.5 194.4L490.5 194.4L490.4 194.4L490.4 206.8Q490.4 208.6 489.4 209.6ZM497.9 194.1L497.9 194.1Q501.5 194.1 503.5 191.4Q505.6 188.7 505.6 184.1L505.6 184.1Q505.6 179.5 503.5 176.7Q501.4 174.0 497.9 174.0L497.9 174.0Q494.5 174.0 492.4 176.8Q490.4 179.5 490.3 184.1L490.3 184.1Q490.4 188.6 492.4 191.4Q494.5 194.1 497.9 194.1ZM524.0 199.1Q523.0 200.2 521.3 200.2Q519.7 200.2 518.7 199.1Q517.7 198.1 517.7 196.3L517.7 196.3L517.7 171.6Q517.7 169.9 518.7 168.9Q519.6 167.9 521.2 167.9L521.2 167.9Q522.7 167.9 523.7 168.9Q524.7 169.9 524.7 171.6L524.7 171.6L524.7 174.0L524.8 174.0Q525.4 171.3 527.3 169.6Q529.1 168.0 531.5 168.0L531.5 168.0Q533.2 168.0 534.0 168.8L534.0 168.8Q535.1 169.6 535.1 171.4L535.1 171.4Q535.1 173.1 534.0 174.0L534.0 174.0Q532.9 174.9 530.8 175.0L530.8 175.0Q525.0 175.0 525.0 181.4L525.0 181.4L525.0 196.3Q525.0 198.1 524.0 199.1ZM552.1 200.2L552.1 200.2Q545.0 200.2 541.0 196.0Q537.1 191.7 537.1 184.2L537.1 184.2Q537.1 176.7 541.0 172.3Q545.0 167.9 551.7 167.9L551.7 167.9Q558.1 167.9 562.1 171.9Q566.0 176.0 566.0 182.4L566.0 182.4Q566.0 184.0 565.1 184.9Q564.2 185.8 562.6 185.8L562.6 185.8L544.3 185.8L544.3 186.0Q544.3 189.9 546.4 192.3Q548.5 194.6 552.1 194.6L552.1 194.6Q554.5 194.6 556.3 193.6Q558.1 192.7 559.8 190.4L559.8 190.4Q560.9 189.3 562.3 189.3L562.3 189.3Q563.6 189.3 564.4 190.0Q565.2 190.8 565.2 192.1L565.2 192.1Q565.2 192.9 564.7 193.9L564.7 193.9Q563.2 196.9 559.9 198.5Q556.6 200.2 552.1 200.2ZM544.4 181.0L544.4 181.0L558.9 181.0Q558.8 177.6 556.8 175.6Q554.8 173.5 551.8 173.5Q548.7 173.5 546.6 175.6Q544.6 177.7 544.4 181.0ZM582.7 200.2L582.7 200.2Q577.9 200.2 574.5 198.5Q571.2 196.8 570.0 194.0L570.0 194.0Q569.7 193.2 569.7 192.5L569.7 192.5Q569.7 191.2 570.6 190.4Q571.4 189.6 572.8 189.6L572.8 189.6Q574.6 189.6 576.0 191.4L576.0 191.4Q577.2 193.3 578.8 194.1Q580.4 194.9 583.0 194.9L583.0 194.9Q585.5 194.9 587.1 193.9Q588.6 192.8 588.6 191.1L588.6 191.1Q588.6 189.7 587.6 188.8Q586.6 188.0 584.2 187.4L584.2 187.4L579.2 186.3Q570.2 184.3 570.2 177.4L570.2 177.4Q570.2 173.1 573.6 170.5Q577.1 167.9 582.8 167.9L582.8 167.9Q587.2 167.9 590.4 169.8Q593.7 171.6 594.4 174.4L594.4 174.4Q594.5 175.0 594.5 175.5L594.5 175.5Q594.5 176.6 593.8 177.4Q593.1 178.1 591.7 178.1L591.7 178.1Q589.9 178.1 588.9 176.7L588.9 176.7Q587.8 175.0 586.3 174.1Q584.8 173.2 582.6 173.2L582.6 173.2Q580.2 173.2 578.7 174.3Q577.2 175.3 577.2 177.0L577.2 177.0Q577.2 179.8 581.8 180.8L581.8 180.8L586.8 181.9Q591.7 183.0 593.8 184.9Q595.9 186.9 595.9 190.3L595.9 190.3Q595.9 194.8 592.3 197.5Q588.6 200.2 582.7 200.2ZM614.3 200.2L614.3 200.2Q607.2 200.2 603.2 196.0Q599.2 191.7 599.2 184.2L599.2 184.2Q599.2 176.7 603.2 172.3Q607.2 167.9 613.9 167.9L613.9 167.9Q620.3 167.9 624.3 171.9Q628.2 176.0 628.2 182.4L628.2 182.4Q628.2 184.0 627.3 184.9Q626.4 185.8 624.8 185.8L624.8 185.8L606.5 185.8L606.5 186.0Q606.5 189.9 608.6 192.3Q610.7 194.6 614.3 194.6L614.3 194.6Q616.7 194.6 618.5 193.6Q620.3 192.7 622.0 190.4L622.0 190.4Q623.1 189.3 624.5 189.3L624.5 189.3Q625.8 189.3 626.6 190.0Q627.4 190.8 627.4 192.1L627.4 192.1Q627.4 192.9 626.9 193.9L626.9 193.9Q625.4 196.9 622.1 198.5Q618.8 200.2 614.3 200.2ZM606.6 181.0L606.6 181.0L621.1 181.0Q621.0 177.6 619.0 175.6Q617.0 173.5 614.0 173.5Q610.9 173.5 608.8 175.6Q606.8 177.7 606.6 181.0ZM639.2 199.2Q638.2 200.2 636.5 200.2Q634.9 200.2 633.9 199.2Q632.9 198.1 632.9 196.3L632.9 196.3L632.9 171.6Q632.9 169.9 633.8 168.9Q634.8 167.9 636.4 167.9Q638.0 167.9 639.0 168.9Q640 169.9 640 171.6L640 171.6L640 173.8L640.1 173.8Q642.8 167.9 649.8 167.9L649.8 167.9Q654.9 167.9 657.7 171.0Q660.6 174.1 660.6 179.5L660.6 179.5L660.6 196.3Q660.6 198.1 659.6 199.2Q658.6 200.2 656.9 200.2Q655.3 200.2 654.3 199.2Q653.3 198.1 653.3 196.3L653.3 196.3L653.3 181.0Q653.3 177.6 651.7 175.9Q650.1 174.1 647.1 174.1L647.1 174.1Q643.9 174.1 642.1 176.2Q640.2 178.2 640.2 181.6L640.2 181.6L640.2 196.3Q640.2 198.1 639.2 199.2ZM668.4 191.9L668.4 191.9L668.4 174.1L666.5 174.1Q665.1 174.1 664.3 173.4Q663.5 172.6 663.5 171.3L663.5 171.3Q663.5 170.0 664.3 169.3Q665.1 168.5 666.5 168.5L666.5 168.5L668.4 168.5L668.4 164.4Q668.4 162.6 669.4 161.6Q670.4 160.6 672.1 160.6L672.1 160.6Q673.8 160.6 674.7 161.6Q675.7 162.6 675.7 164.4L675.7 164.4L675.7 168.5L679.1 168.5Q680.5 168.5 681.2 169.3Q682.0 170.0 682.0 171.3L682.0 171.3Q682.0 172.6 681.2 173.4Q680.4 174.1 679.1 174.1L679.1 174.1L675.7 174.1L675.7 190.3Q675.7 192.1 676.4 192.9Q677.1 193.7 678.6 193.9L678.6 193.9L679.2 193.9Q682.1 194.2 682.1 196.6L682.1 196.6Q682.1 198.2 680.8 199.1Q679.4 199.9 676.9 199.9L676.9 199.9L676.6 199.9Q668.4 199.9 668.4 191.9ZM695.6 200.1L695.6 200.1Q691.1 200.1 688.2 197.5Q685.3 194.9 685.3 190.7L685.3 190.7Q685.3 186.6 688.3 184.2Q691.4 181.8 697.1 181.4L697.1 181.4L705.3 180.9L705.3 178.7Q705.3 176.3 703.8 174.9Q702.2 173.6 699.5 173.6L699.5 173.6Q697.3 173.6 695.8 174.4Q694.3 175.2 693.0 177.2L693.0 177.2Q691.9 178.7 690.0 178.7L690.0 178.7Q688.7 178.7 687.8 177.9Q687.0 177.1 687.0 175.8L687.0 175.8Q687.0 174.8 687.5 173.8L687.5 173.8Q688.6 171.1 692.0 169.5Q695.3 167.9 699.8 167.9L699.8 167.9Q705.6 167.9 709.0 170.7Q712.5 173.5 712.5 178.2L712.5 178.2L712.5 196.5Q712.5 198.2 711.5 199.2Q710.5 200.2 709.0 200.2L709.0 200.2Q707.4 200.2 706.5 199.3Q705.6 198.4 705.5 196.8L705.5 196.8L705.5 194.6L705.3 194.6Q704.0 197.1 701.3 198.6Q698.7 200.1 695.6 200.1ZM697.9 194.6L697.9 194.6Q701.0 194.6 703.1 192.7Q705.3 190.8 705.3 188.1L705.3 188.1L705.3 185.7L698.1 186.1Q695.5 186.3 694.0 187.4Q692.6 188.6 692.6 190.4L692.6 190.4Q692.6 192.3 694.0 193.4Q695.5 194.6 697.9 194.6ZM720.4 191.9L720.4 191.9L720.4 174.1L718.4 174.1Q717.1 174.1 716.3 173.4Q715.5 172.6 715.5 171.3L715.5 171.3Q715.5 170.0 716.3 169.3Q717.1 168.5 718.4 168.5L718.4 168.5L720.4 168.5L720.4 164.4Q720.4 162.6 721.4 161.6Q722.4 160.6 724.1 160.6L724.1 160.6Q725.7 160.6 726.7 161.6Q727.7 162.6 727.7 164.4L727.7 164.4L727.7 168.5L731.1 168.5Q732.4 168.5 733.2 169.3Q734.0 170.0 734.0 171.3L734.0 171.3Q734.0 172.6 733.2 173.4Q732.4 174.1 731.1 174.1L731.1 174.1L727.7 174.1L727.7 190.3Q727.7 192.1 728.4 192.9Q729.0 193.7 730.6 193.9L730.6 193.9L731.1 193.9Q734.1 194.2 734.1 196.6L734.1 196.6Q734.1 198.2 732.7 199.1Q731.4 199.9 728.9 199.9L728.9 199.9L728.6 199.9Q720.4 199.9 720.4 191.9ZM745.2 163.0Q744.0 164.2 742.3 164.2Q740.6 164.2 739.4 163.0Q738.3 161.8 738.3 160.2L738.3 160.2Q738.3 158.5 739.4 157.4Q740.6 156.2 742.3 156.2L742.3 156.2Q744.0 156.2 745.2 157.4Q746.4 158.5 746.4 160.2L746.4 160.2Q746.4 161.8 745.2 163.0ZM745.0 199.1Q744.0 200.2 742.3 200.2Q740.6 200.2 739.7 199.1Q738.7 198.1 738.7 196.3L738.7 196.3L738.7 171.7Q738.7 170.0 739.7 168.9Q740.6 167.9 742.3 167.9Q744.0 167.9 745.0 168.9Q746.0 170.0 746.0 171.8L746.0 171.8L746.0 196.3Q746.0 198.1 745.0 199.1ZM776.8 195.9Q772.7 200.2 765.8 200.2Q758.9 200.2 754.9 195.9Q750.8 191.6 750.8 184.1L750.8 184.1Q750.8 176.6 754.9 172.2Q759.0 167.9 765.8 167.9L765.8 167.9Q772.7 167.9 776.8 172.2Q780.9 176.6 780.9 184.1L780.9 184.1Q780.9 191.6 776.8 195.9ZM760.3 191.7Q762.3 194.4 765.8 194.4Q769.3 194.4 771.4 191.7Q773.4 189.0 773.4 184.1L773.4 184.1Q773.4 179.2 771.4 176.4Q769.3 173.7 765.8 173.7L765.8 173.7Q762.3 173.7 760.3 176.4Q758.2 179.2 758.2 184.1L758.2 184.1Q758.2 189.0 760.3 191.7ZM791.8 199.2Q790.8 200.2 789.2 200.2Q787.5 200.2 786.5 199.2Q785.5 198.1 785.5 196.3L785.5 196.3L785.5 171.6Q785.5 169.9 786.5 168.9Q787.4 167.9 789.0 167.9Q790.6 167.9 791.6 168.9Q792.6 169.9 792.6 171.6L792.6 171.6L792.6 173.8L792.8 173.8Q795.4 167.9 802.5 167.9L802.5 167.9Q807.5 167.9 810.4 171.0Q813.2 174.1 813.2 179.5L813.2 179.5L813.2 196.3Q813.2 198.1 812.2 199.2Q811.2 200.2 809.6 200.2Q807.9 200.2 806.9 199.2Q805.9 198.1 805.9 196.3L805.9 196.3L805.9 181.0Q805.9 177.6 804.3 175.9Q802.8 174.1 799.7 174.1L799.7 174.1Q796.6 174.1 794.7 176.2Q792.8 178.2 792.8 181.6L792.8 181.6L792.8 196.3Q792.8 198.1 791.8 199.2Z M855.5 199.6L835.6 199.6Q833.8 199.6 832.8 198.5Q831.8 197.5 831.8 195.7L831.8 195.7L831.8 160.7Q831.8 158.9 832.8 157.8Q833.8 156.8 835.6 156.8L835.6 156.8Q837.3 156.8 838.3 157.8Q839.3 158.9 839.3 160.7L839.3 160.7L839.3 193.2L855.5 193.2Q857.1 193.2 858.0 194.1Q859.0 194.9 859.0 196.4Q859.0 197.8 858.1 198.7Q857.1 199.6 855.5 199.6L855.5 199.6ZM872.3 200.1L872.3 200.1Q867.8 200.1 864.9 197.5Q862.0 194.9 862.0 190.7L862.0 190.7Q862.0 186.6 865.0 184.2Q868.1 181.8 873.8 181.4L873.8 181.4L882.0 180.9L882.0 178.7Q882.0 176.3 880.5 174.9Q878.9 173.6 876.2 173.6L876.2 173.6Q874.0 173.6 872.5 174.4Q871.0 175.2 869.7 177.2L869.7 177.2Q868.6 178.7 866.7 178.7L866.7 178.7Q865.4 178.7 864.5 177.9Q863.7 177.1 863.7 175.8L863.7 175.8Q863.7 174.8 864.2 173.8L864.2 173.8Q865.3 171.1 868.7 169.5Q872.0 167.9 876.5 167.9L876.5 167.9Q882.3 167.9 885.7 170.7Q889.2 173.5 889.2 178.2L889.2 178.2L889.2 196.5Q889.2 198.2 888.2 199.2Q887.2 200.2 885.7 200.2L885.7 200.2Q884.1 200.2 883.2 199.3Q882.3 198.4 882.2 196.8L882.2 196.8L882.2 194.6L882.0 194.6Q880.7 197.1 878.0 198.6Q875.4 200.1 872.3 200.1ZM874.6 194.6L874.6 194.6Q877.7 194.6 879.8 192.7Q882.0 190.8 882.0 188.1L882.0 188.1L882.0 185.7L874.8 186.1Q872.1 186.3 870.7 187.4Q869.2 188.6 869.2 190.4L869.2 190.4Q869.2 192.3 870.7 193.4Q872.1 194.6 874.6 194.6ZM901.3 199.2Q900.3 200.2 898.7 200.2Q897.1 200.2 896.1 199.2Q895.1 198.1 895.1 196.3L895.1 196.3L895.1 171.6Q895.1 169.9 896.0 168.9Q896.9 167.9 898.5 167.9Q900.2 167.9 901.2 168.9Q902.1 169.9 902.1 171.6L902.1 171.6L902.1 173.8L902.3 173.8Q904.9 167.9 912.0 167.9L912.0 167.9Q917.1 167.9 919.9 171.0Q922.7 174.1 922.7 179.5L922.7 179.5L922.7 196.3Q922.7 198.1 921.7 199.2Q920.7 200.2 919.1 200.2Q917.4 200.2 916.4 199.2Q915.4 198.1 915.4 196.3L915.4 196.3L915.4 181.0Q915.4 177.6 913.9 175.9Q912.3 174.1 909.2 174.1L909.2 174.1Q906.1 174.1 904.2 176.2Q902.4 178.2 902.4 181.6L902.4 181.6L902.4 196.3Q902.4 198.1 901.3 199.2ZM941.9 211.3L941.9 211.3Q937.6 211.2 934.3 209.7Q930.9 208.2 929.3 205.6L929.3 205.6Q928.7 204.6 928.7 203.4L928.7 203.4Q928.7 202.2 929.6 201.4Q930.4 200.6 931.8 200.6L931.8 200.6Q933.2 200.6 934.4 201.8L934.4 201.8Q936.3 203.7 938.1 204.6Q939.8 205.4 942.0 205.5L942.0 205.5Q945.7 205.5 947.8 203.6Q949.9 201.7 949.9 198.6L949.9 198.6L949.9 193.7L949.8 193.7Q948.5 196.2 945.9 197.7Q943.3 199.3 940.0 199.3L940.0 199.3Q934.2 199.3 930.7 195.0Q927.3 190.8 927.3 183.7L927.3 183.7Q927.3 176.4 930.7 172.2Q934.2 168.0 940.2 168.0L940.2 168.0Q943.4 168.0 945.9 169.5Q948.4 171.1 949.8 173.8L949.8 173.8L949.9 173.8L949.9 171.6Q949.9 169.9 951.0 168.9Q952.0 167.9 953.6 167.9Q955.2 167.9 956.2 168.9Q957.2 169.9 957.2 171.6L957.2 171.6L957.2 198.6Q957.2 204.5 953.2 207.9Q949.1 211.3 941.9 211.3ZM942.3 193.6L942.3 193.6Q945.8 193.6 947.9 190.9Q950.0 188.3 950.0 183.7L950.0 183.7Q950.0 179.2 947.9 176.5Q945.7 173.8 942.3 173.8L942.3 173.8Q938.8 173.8 936.8 176.5Q934.7 179.2 934.7 183.7L934.7 183.7Q934.7 188.3 936.8 191.0Q938.8 193.6 942.3 193.6ZM974.0 200.1L974.0 200.1Q969.0 200.1 966.0 197.0Q963.0 194.0 963.0 188.6L963.0 188.6L963.0 171.7Q963.0 170.0 964.0 168.9Q965.0 167.9 966.7 167.9Q968.3 167.9 969.3 168.9Q970.3 170.0 970.3 171.8L970.3 171.8L970.3 187.1Q970.3 190.5 971.9 192.2Q973.5 194.0 976.6 194.0L976.6 194.0Q979.7 194.0 981.6 191.9Q983.4 189.9 983.4 186.5L983.4 186.5L983.4 171.7Q983.4 170.0 984.4 168.9Q985.4 167.9 987.1 167.9L987.1 167.9Q988.7 167.9 989.7 168.9Q990.7 170.0 990.7 171.8L990.7 171.8L990.7 196.5Q990.7 198.2 989.8 199.2Q988.8 200.2 987.2 200.2L987.2 200.2Q985.6 200.2 984.6 199.2Q983.7 198.2 983.7 196.5L983.7 196.5L983.7 194.2L983.5 194.2Q981.0 200.1 974.0 200.1ZM1005.8 200.1L1005.8 200.1Q1001.2 200.1 998.3 197.5Q995.4 194.9 995.4 190.7L995.4 190.7Q995.4 186.6 998.5 184.2Q1001.5 181.8 1007.2 181.4L1007.2 181.4L1015.4 180.9L1015.4 178.7Q1015.4 176.3 1013.9 174.9Q1012.4 173.6 1009.6 173.6L1009.6 173.6Q1007.5 173.6 1006.0 174.4Q1004.5 175.2 1003.1 177.2L1003.1 177.2Q1002.0 178.7 1000.2 178.7L1000.2 178.7Q998.8 178.7 998.0 177.9Q997.1 177.1 997.1 175.8L997.1 175.8Q997.1 174.8 997.6 173.8L997.6 173.8Q998.8 171.1 1002.1 169.5Q1005.5 167.9 1009.9 167.9L1009.9 167.9Q1015.7 167.9 1019.2 170.7Q1022.6 173.5 1022.6 178.2L1022.6 178.2L1022.6 196.5Q1022.6 198.2 1021.7 199.2Q1020.7 200.2 1019.1 200.2L1019.1 200.2Q1017.6 200.2 1016.6 199.3Q1015.7 198.4 1015.6 196.8L1015.6 196.8L1015.6 194.6L1015.5 194.6Q1014.2 197.1 1011.5 198.6Q1008.8 200.1 1005.8 200.1ZM1008.0 194.6L1008.0 194.6Q1011.1 194.6 1013.3 192.7Q1015.4 190.8 1015.4 188.1L1015.4 188.1L1015.4 185.7L1008.2 186.1Q1005.6 186.3 1004.1 187.4Q1002.7 188.6 1002.7 190.4L1002.7 190.4Q1002.7 192.3 1004.1 193.4Q1005.6 194.6 1008.0 194.6ZM1041.9 211.3L1041.9 211.3Q1037.5 211.2 1034.2 209.7Q1030.9 208.2 1029.3 205.6L1029.3 205.6Q1028.7 204.6 1028.7 203.4L1028.7 203.4Q1028.7 202.2 1029.5 201.4Q1030.4 200.6 1031.7 200.6L1031.7 200.6Q1033.1 200.6 1034.4 201.8L1034.4 201.8Q1036.3 203.7 1038.0 204.6Q1039.8 205.4 1042.0 205.5L1042.0 205.5Q1045.6 205.5 1047.7 203.6Q1049.9 201.7 1049.9 198.6L1049.9 198.6L1049.9 193.7L1049.7 193.7Q1048.5 196.2 1045.9 197.7Q1043.3 199.3 1040.0 199.3L1040.0 199.3Q1034.1 199.3 1030.7 195.0Q1027.2 190.8 1027.2 183.7L1027.2 183.7Q1027.2 176.4 1030.7 172.2Q1034.1 168.0 1040.1 168.0L1040.1 168.0Q1043.4 168.0 1045.9 169.5Q1048.4 171.1 1049.8 173.8L1049.8 173.8L1049.9 173.8L1049.9 171.6Q1049.9 169.9 1050.9 168.9Q1051.9 167.9 1053.6 167.9Q1055.2 167.9 1056.2 168.9Q1057.2 169.9 1057.2 171.6L1057.2 171.6L1057.2 198.6Q1057.2 204.5 1053.1 207.9Q1049.0 211.3 1041.9 211.3ZM1042.2 193.6L1042.2 193.6Q1045.7 193.6 1047.8 190.9Q1049.9 188.3 1049.9 183.7L1049.9 183.7Q1049.9 179.2 1047.8 176.5Q1045.7 173.8 1042.2 173.8L1042.2 173.8Q1038.8 173.8 1036.7 176.5Q1034.7 179.2 1034.7 183.7L1034.7 183.7Q1034.7 188.3 1036.7 191.0Q1038.8 193.6 1042.2 193.6ZM1076.9 200.2L1076.9 200.2Q1069.8 200.2 1065.8 196.0Q1061.8 191.7 1061.8 184.2L1061.8 184.2Q1061.8 176.7 1065.8 172.3Q1069.8 167.9 1076.5 167.9L1076.5 167.9Q1082.9 167.9 1086.9 171.9Q1090.8 176.0 1090.8 182.4L1090.8 182.4Q1090.8 184.0 1089.9 184.9Q1089.0 185.8 1087.4 185.8L1087.4 185.8L1069.1 185.8L1069.1 186.0Q1069.1 189.9 1071.2 192.3Q1073.3 194.6 1076.9 194.6L1076.9 194.6Q1079.3 194.6 1081.1 193.6Q1082.9 192.7 1084.6 190.4L1084.6 190.4Q1085.7 189.3 1087.1 189.3L1087.1 189.3Q1088.4 189.3 1089.2 190.0Q1090.0 190.8 1090.0 192.1L1090.0 192.1Q1090.0 192.9 1089.5 193.9L1089.5 193.9Q1088.0 196.9 1084.7 198.5Q1081.4 200.2 1076.9 200.2ZM1069.2 181.0L1069.2 181.0L1083.7 181.0Q1083.6 177.6 1081.6 175.6Q1079.6 173.5 1076.6 173.5Q1073.5 173.5 1071.4 175.6Q1069.4 177.7 1069.2 181.0Z M52.1 282.6L52.1 282.6Q47.6 282.6 44.6 280.0Q41.7 277.4 41.7 273.2L41.7 273.2Q41.7 269.1 44.8 266.7Q47.9 264.3 53.5 263.9L53.5 263.9L61.8 263.4L61.8 261.2Q61.8 258.8 60.2 257.4Q58.7 256.1 56.0 256.1L56.0 256.1Q53.8 256.1 52.3 256.9Q50.8 257.7 49.5 259.7L49.5 259.7Q48.3 261.2 46.5 261.2L46.5 261.2Q45.2 261.2 44.3 260.4Q43.4 259.6 43.4 258.3L43.4 258.3Q43.4 257.3 43.9 256.3L43.9 256.3Q45.1 253.6 48.5 252.0Q51.8 250.4 56.3 250.4L56.3 250.4Q62.0 250.4 65.5 253.2Q69.0 256.0 69.0 260.7L69.0 260.7L69.0 279.0Q69.0 280.7 68.0 281.7Q67.0 282.7 65.4 282.7L65.4 282.7Q63.9 282.7 63.0 281.8Q62.0 280.9 61.9 279.3L61.9 279.3L61.9 277.1L61.8 277.1Q60.5 279.6 57.8 281.1Q55.1 282.6 52.1 282.6ZM54.3 277.1L54.3 277.1Q57.4 277.1 59.6 275.2Q61.8 273.3 61.8 270.6L61.8 270.6L61.8 268.2L54.6 268.6Q51.9 268.8 50.5 269.9Q49.0 271.1 49.0 272.9L49.0 272.9Q49.0 274.8 50.5 275.9Q51.9 277.1 54.3 277.1ZM81.1 281.7Q80.1 282.7 78.5 282.7Q76.8 282.7 75.8 281.7Q74.8 280.6 74.8 278.8L74.8 278.8L74.8 254.1Q74.8 252.4 75.8 251.4Q76.7 250.4 78.3 250.4Q79.9 250.4 80.9 251.4Q81.9 252.4 81.9 254.1L81.9 254.1L81.9 256.3L82.1 256.3Q84.7 250.4 91.7 250.4L91.7 250.4Q96.8 250.4 99.7 253.5Q102.5 256.6 102.5 262.0L102.5 262.0L102.5 278.8Q102.5 280.6 101.5 281.7Q100.5 282.7 98.9 282.7Q97.2 282.7 96.2 281.7Q95.2 280.6 95.2 278.8L95.2 278.8L95.2 263.5Q95.2 260.1 93.6 258.4Q92.1 256.6 89.0 256.6L89.0 256.6Q85.8 256.6 84.0 258.7Q82.1 260.7 82.1 264.1L82.1 264.1L82.1 278.8Q82.1 280.6 81.1 281.7ZM119.9 282.6L119.9 282.6Q114.0 282.6 110.5 278.2Q107.0 273.9 107.0 266.5L107.0 266.5Q107.0 259.2 110.5 254.8Q114.0 250.5 119.9 250.5L119.9 250.5Q123.2 250.5 125.7 252.0Q128.3 253.6 129.5 256.2L129.5 256.2L129.7 256.2L129.7 243.1Q129.7 241.2 130.7 240.2Q131.7 239.2 133.3 239.2Q135.0 239.2 136.0 240.2Q137.0 241.2 137.0 243.1L137.0 243.1L137.0 279.0Q137.0 280.7 136.0 281.7Q135.0 282.7 133.4 282.7L133.4 282.7Q131.8 282.7 130.7 281.7Q129.7 280.7 129.7 279.0L129.7 279.0L129.7 276.6L129.6 276.6Q128.4 279.4 125.9 281.0Q123.4 282.6 119.9 282.6ZM122.1 276.6L122.1 276.6Q125.6 276.6 127.7 273.9Q129.7 271.2 129.7 266.6L129.7 266.6Q129.7 262.0 127.7 259.2Q125.6 256.5 122.1 256.5L122.1 256.5Q118.6 256.5 116.6 259.2Q114.5 261.9 114.5 266.6L114.5 266.6Q114.5 271.2 116.5 273.9Q118.6 276.6 122.1 276.6Z M174.2 282.8L174.2 282.8Q165.0 282.8 159.7 276.9Q154.4 271.1 154.4 260.9L154.4 260.9Q154.4 250.8 159.7 245.0Q165.0 239.1 174.0 239.1L174.0 239.1Q179.9 239.1 184.3 241.7Q188.7 244.3 190.8 248.9L190.8 248.9Q191.5 250.4 191.5 251.8L191.5 251.8Q191.5 253.3 190.6 254.2Q189.7 255.1 188.2 255.1L188.2 255.1Q185.7 255.1 184.5 252.4L184.5 252.4Q183.0 249.1 180.3 247.3Q177.6 245.5 174.1 245.5L174.1 245.5Q168.6 245.5 165.4 249.7Q162.2 253.9 162.2 260.9L162.2 260.9Q162.2 268.0 165.4 272.2Q168.6 276.4 174.1 276.4L174.1 276.4Q181.8 276.4 184.6 269.8L184.6 269.8Q185.2 268.5 186.0 267.9Q186.7 267.4 188.0 267.4L188.0 267.4Q189.5 267.4 190.5 268.3Q191.5 269.2 191.5 270.7L191.5 270.7Q191.5 272.1 190.8 273.6L190.8 273.6Q188.7 277.9 184.4 280.3Q180.1 282.8 174.2 282.8ZM222.0 278.4Q217.9 282.7 211.0 282.7Q204.2 282.7 200.1 278.4Q196.0 274.1 196.0 266.6L196.0 266.6Q196.0 259.1 200.1 254.7Q204.2 250.4 211.0 250.4L211.0 250.4Q217.9 250.4 222.0 254.7Q226.1 259.1 226.1 266.6L226.1 266.6Q226.1 274.1 222.0 278.4ZM205.5 274.2Q207.5 276.9 211.0 276.9Q214.6 276.9 216.6 274.2Q218.7 271.5 218.7 266.6L218.7 266.6Q218.7 261.7 216.6 258.9Q214.6 256.2 211.0 256.2L211.0 256.2Q207.5 256.2 205.5 258.9Q203.4 261.7 203.4 266.6L203.4 266.6Q203.4 271.5 205.5 274.2ZM234.4 282.7L234.4 282.7Q232.7 282.7 231.7 281.7Q230.8 280.6 230.8 278.8L230.8 278.8L230.8 254.1Q230.8 252.4 231.7 251.4Q232.7 250.4 234.2 250.4Q235.8 250.4 236.8 251.4Q237.8 252.4 237.8 254.1L237.8 254.1L237.8 256.4L237.9 256.4Q238.9 253.7 241.3 252.0Q243.6 250.4 246.7 250.4L246.7 250.4Q250.0 250.4 252.3 252.1Q254.6 253.7 255.4 256.7L255.4 256.7L255.6 256.7Q256.7 253.8 259.3 252.1Q261.9 250.4 265.3 250.4L265.3 250.4Q269.9 250.4 272.6 253.3Q275.4 256.1 275.4 260.8L275.4 260.8L275.4 278.8Q275.4 280.6 274.4 281.6Q273.4 282.7 271.8 282.7L271.8 282.7Q270.1 282.7 269.1 281.6Q268.1 280.6 268.1 278.8L268.1 278.8L268.1 262.6Q268.1 259.7 266.7 258.1Q265.2 256.6 262.5 256.6L262.5 256.6Q259.9 256.6 258.3 258.3Q256.6 260.1 256.6 262.9L256.6 262.9L256.6 278.8Q256.6 280.6 255.7 281.7Q254.7 282.7 253.1 282.7L253.1 282.7Q251.4 282.7 250.5 281.7Q249.5 280.6 249.5 278.8L249.5 278.8L249.5 262.2Q249.5 259.6 248.1 258.1Q246.6 256.6 244.0 256.6L244.0 256.6Q241.4 256.6 239.7 258.4Q238.0 260.3 238.0 263.1L238.0 263.1L238.0 278.8Q238.0 280.6 237.0 281.6Q236.0 282.7 234.4 282.7ZM287.5 292.1Q286.5 293.1 284.9 293.1Q283.2 293.1 282.2 292.1Q281.2 291.1 281.2 289.3L281.2 289.3L281.2 254.2Q281.2 252.4 282.2 251.4Q283.2 250.4 284.8 250.4L284.8 250.4Q286.4 250.4 287.4 251.4Q288.3 252.4 288.3 254.2L288.3 254.2L288.3 256.4L288.5 256.4Q289.8 253.6 292.4 252.1Q294.9 250.5 298.3 250.5L298.3 250.5Q304.2 250.5 307.7 254.8Q311.2 259.1 311.2 266.6L311.2 266.6Q311.2 274.0 307.7 278.3Q304.3 282.6 298.4 282.6L298.4 282.6Q295.1 282.6 292.5 281.1Q290.0 279.6 288.7 276.9L288.7 276.9L288.5 276.9L288.5 289.3Q288.5 291.1 287.5 292.1ZM296.1 276.6L296.1 276.6Q299.6 276.6 301.7 273.9Q303.7 271.2 303.7 266.6L303.7 266.6Q303.7 262.0 301.6 259.2Q299.6 256.5 296.1 256.5L296.1 256.5Q292.7 256.5 290.6 259.3Q288.5 262.0 288.5 266.6L288.5 266.6Q288.5 271.1 290.6 273.9Q292.7 276.6 296.1 276.6ZM326.7 282.6L326.7 282.6Q321.7 282.6 318.7 279.5Q315.7 276.5 315.7 271.1L315.7 271.1L315.7 254.2Q315.7 252.5 316.7 251.4Q317.7 250.4 319.3 250.4Q321.0 250.4 322.0 251.4Q323.0 252.5 323.0 254.3L323.0 254.3L323.0 269.6Q323.0 273.0 324.6 274.7Q326.2 276.5 329.3 276.5L329.3 276.5Q332.4 276.5 334.3 274.4Q336.1 272.4 336.1 269.0L336.1 269.0L336.1 254.2Q336.1 252.5 337.1 251.4Q338.1 250.4 339.8 250.4L339.8 250.4Q341.4 250.4 342.4 251.4Q343.4 252.5 343.4 254.3L343.4 254.3L343.4 279.0Q343.4 280.7 342.4 281.7Q341.5 282.7 339.9 282.7L339.9 282.7Q338.3 282.7 337.3 281.7Q336.4 280.7 336.4 279.0L336.4 279.0L336.4 276.7L336.2 276.7Q333.6 282.6 326.7 282.6ZM351.4 274.4L351.4 274.4L351.4 256.6L349.4 256.6Q348.1 256.6 347.3 255.9Q346.5 255.1 346.5 253.8L346.5 253.8Q346.5 252.5 347.3 251.8Q348.0 251.0 349.4 251.0L349.4 251.0L351.4 251.0L351.4 246.9Q351.4 245.1 352.3 244.1Q353.3 243.1 355.0 243.1L355.0 243.1Q356.7 243.1 357.7 244.1Q358.7 245.1 358.7 246.9L358.7 246.9L358.7 251.0L362.0 251.0Q363.4 251.0 364.2 251.8Q365.0 252.5 365.0 253.8L365.0 253.8Q365.0 255.1 364.2 255.9Q363.4 256.6 362.0 256.6L362.0 256.6L358.7 256.6L358.7 272.8Q358.7 274.6 359.3 275.4Q360.0 276.2 361.6 276.4L361.6 276.4L362.1 276.4Q365.0 276.7 365.0 279.1L365.0 279.1Q365.0 280.7 363.7 281.6Q362.4 282.4 359.8 282.4L359.8 282.4L359.5 282.4Q351.4 282.4 351.4 274.4ZM378.6 282.6L378.6 282.6Q374.0 282.6 371.1 280.0Q368.2 277.4 368.2 273.2L368.2 273.2Q368.2 269.1 371.3 266.7Q374.3 264.3 380.0 263.9L380.0 263.9L388.3 263.4L388.3 261.2Q388.3 258.8 386.7 257.4Q385.2 256.1 382.5 256.1L382.5 256.1Q380.3 256.1 378.8 256.9Q377.3 257.7 375.9 259.7L375.9 259.7Q374.8 261.2 373.0 261.2L373.0 261.2Q371.6 261.2 370.8 260.4Q369.9 259.6 369.9 258.3L369.9 258.3Q369.9 257.3 370.4 256.3L370.4 256.3Q371.6 253.6 374.9 252.0Q378.3 250.4 382.7 250.4L382.7 250.4Q388.5 250.4 392.0 253.2Q395.5 256.0 395.5 260.7L395.5 260.7L395.5 279.0Q395.5 280.7 394.5 281.7Q393.5 282.7 391.9 282.7L391.9 282.7Q390.4 282.7 389.5 281.8Q388.5 280.9 388.4 279.3L388.4 279.3L388.4 277.1L388.3 277.1Q387.0 279.6 384.3 281.1Q381.6 282.6 378.6 282.6ZM380.8 277.1L380.8 277.1Q383.9 277.1 386.1 275.2Q388.3 273.3 388.3 270.6L388.3 270.6L388.3 268.2L381.0 268.6Q378.4 268.8 377.0 269.9Q375.5 271.1 375.5 272.9L375.5 272.9Q375.5 274.8 377.0 275.9Q378.4 277.1 380.8 277.1ZM403.3 274.4L403.3 274.4L403.3 256.6L401.4 256.6Q400.0 256.6 399.2 255.9Q398.4 255.1 398.4 253.8L398.4 253.8Q398.4 252.5 399.2 251.8Q400 251.0 401.4 251.0L401.4 251.0L403.3 251.0L403.3 246.9Q403.3 245.1 404.3 244.1Q405.3 243.1 407.0 243.1L407.0 243.1Q408.7 243.1 409.7 244.1Q410.6 245.1 410.6 246.9L410.6 246.9L410.6 251.0L414.0 251.0Q415.4 251.0 416.2 251.8Q416.9 252.5 416.9 253.8L416.9 253.8Q416.9 255.1 416.1 255.9Q415.4 256.6 414.0 256.6L414.0 256.6L410.6 256.6L410.6 272.8Q410.6 274.6 411.3 275.4Q412.0 276.2 413.6 276.4L413.6 276.4L414.1 276.4Q417.0 276.7 417.0 279.1L417.0 279.1Q417.0 280.7 415.7 281.6Q414.3 282.4 411.8 282.4L411.8 282.4L411.5 282.4Q403.3 282.4 403.3 274.4ZM428.1 245.5Q427.0 246.7 425.3 246.7Q423.6 246.7 422.4 245.5Q421.2 244.3 421.2 242.7L421.2 242.7Q421.2 241.0 422.4 239.9Q423.6 238.7 425.3 238.7L425.3 238.7Q427.0 238.7 428.2 239.9Q429.3 241.0 429.3 242.7L429.3 242.7Q429.3 244.3 428.1 245.5ZM427.9 281.6Q426.9 282.7 425.3 282.7Q423.6 282.7 422.6 281.6Q421.6 280.6 421.6 278.8L421.6 278.8L421.6 254.2Q421.6 252.5 422.6 251.4Q423.6 250.4 425.3 250.4Q426.9 250.4 427.9 251.4Q428.9 252.5 428.9 254.3L428.9 254.3L428.9 278.8Q428.9 280.6 427.9 281.6ZM459.7 278.4Q455.7 282.7 448.8 282.7Q441.9 282.7 437.8 278.4Q433.8 274.1 433.8 266.6L433.8 266.6Q433.8 259.1 437.9 254.7Q442.0 250.4 448.8 250.4L448.8 250.4Q455.6 250.4 459.7 254.7Q463.8 259.1 463.8 266.6L463.8 266.6Q463.8 274.1 459.7 278.4ZM443.2 274.2Q445.3 276.9 448.8 276.9Q452.3 276.9 454.3 274.2Q456.4 271.5 456.4 266.6L456.4 266.6Q456.4 261.7 454.3 258.9Q452.3 256.2 448.8 256.2L448.8 256.2Q445.3 256.2 443.2 258.9Q441.2 261.7 441.2 266.6L441.2 266.6Q441.2 271.5 443.2 274.2ZM474.8 281.7Q473.8 282.7 472.1 282.7Q470.5 282.7 469.5 281.7Q468.5 280.6 468.5 278.8L468.5 278.8L468.5 254.1Q468.5 252.4 469.4 251.4Q470.4 250.4 472.0 250.4Q473.6 250.4 474.6 251.4Q475.6 252.4 475.6 254.1L475.6 254.1L475.6 256.3L475.7 256.3Q478.4 250.4 485.4 250.4L485.4 250.4Q490.5 250.4 493.3 253.5Q496.2 256.6 496.2 262.0L496.2 262.0L496.2 278.8Q496.2 280.6 495.2 281.7Q494.2 282.7 492.5 282.7Q490.9 282.7 489.9 281.7Q488.9 280.6 488.9 278.8L488.9 278.8L488.9 263.5Q488.9 260.1 487.3 258.4Q485.7 256.6 482.6 256.6L482.6 256.6Q479.5 256.6 477.7 258.7Q475.8 260.7 475.8 264.1L475.8 264.1L475.8 278.8Q475.8 280.6 474.8 281.7ZM511.1 282.6L511.1 282.6Q506.6 282.6 503.6 280.0Q500.7 277.4 500.7 273.2L500.7 273.2Q500.7 269.1 503.8 266.7Q506.8 264.3 512.5 263.9L512.5 263.9L520.8 263.4L520.8 261.2Q520.8 258.8 519.2 257.4Q517.7 256.1 515.0 256.1L515.0 256.1Q512.8 256.1 511.3 256.9Q509.8 257.7 508.5 259.7L508.5 259.7Q507.3 261.2 505.5 261.2L505.5 261.2Q504.2 261.2 503.3 260.4Q502.4 259.6 502.4 258.3L502.4 258.3Q502.4 257.3 502.9 256.3L502.9 256.3Q504.1 253.6 507.4 252.0Q510.8 250.4 515.3 250.4L515.3 250.4Q521.0 250.4 524.5 253.2Q528.0 256.0 528.0 260.7L528.0 260.7L528.0 279.0Q528.0 280.7 527.0 281.7Q526.0 282.7 524.4 282.7L524.4 282.7Q522.9 282.7 522.0 281.8Q521.0 280.9 520.9 279.3L520.9 279.3L520.9 277.1L520.8 277.1Q519.5 279.6 516.8 281.1Q514.1 282.6 511.1 282.6ZM513.3 277.1L513.3 277.1Q516.4 277.1 518.6 275.2Q520.8 273.3 520.8 270.6L520.8 270.6L520.8 268.2L513.6 268.6Q510.9 268.8 509.5 269.9Q508.0 271.1 508.0 272.9L508.0 272.9Q508.0 274.8 509.5 275.9Q510.9 277.1 513.3 277.1ZM540.3 281.7Q539.3 282.7 537.7 282.7Q536.1 282.7 535.0 281.7Q534.0 280.6 534.0 278.8L534.0 278.8L534.0 243.1Q534.0 241.2 535.0 240.2Q536.1 239.2 537.7 239.2Q539.3 239.2 540.3 240.2Q541.3 241.2 541.3 243.1L541.3 243.1L541.3 278.8Q541.3 280.6 540.3 281.7Z M575.2 282.8L575.2 282.8Q569.0 282.8 564.9 280.5Q560.7 278.2 559.5 274.5L559.5 274.5Q559.1 273.4 559.1 272.3L559.1 272.3Q559.1 270.7 560.0 269.8Q560.9 268.8 562.4 268.8L562.4 268.8Q563.7 268.8 564.5 269.4Q565.3 269.9 565.9 271.2L565.9 271.2Q566.9 273.9 569.4 275.2Q571.9 276.5 575.4 276.5L575.4 276.5Q579.2 276.5 581.6 274.8Q584.1 273.1 584.1 270.5L584.1 270.5Q584.1 268.2 582.3 266.7Q580.5 265.3 576.5 264.4L576.5 264.4L571.9 263.5Q559.5 260.9 559.5 251.6L559.5 251.6Q559.5 246.0 563.9 242.6Q568.3 239.1 575.2 239.1L575.2 239.1Q580.8 239.1 584.9 241.5Q588.9 243.9 590.2 248.0L590.2 248.0Q590.5 248.7 590.5 249.8L590.5 249.8Q590.5 251.1 589.6 252.0Q588.6 252.9 587.2 252.9L587.2 252.9Q584.7 252.9 583.5 250.5L583.5 250.5Q581.5 245.4 575.1 245.4L575.1 245.4Q571.6 245.4 569.4 246.9Q567.1 248.5 567.1 251.1L567.1 251.1Q567.1 253.3 568.9 254.7Q570.6 256.2 574.5 257.0L574.5 257.0L579.0 257.9Q585.7 259.3 588.7 262.1Q591.7 264.9 591.7 269.6L591.7 269.6Q591.7 275.7 587.2 279.2Q582.8 282.8 575.2 282.8ZM601.1 293.6L601.1 293.6Q598.6 293.6 597.3 292.7Q596.0 291.8 596.0 290.2L596.0 290.2Q596.0 289.1 596.7 288.4Q597.5 287.7 598.8 287.7L598.8 287.7Q599.0 287.7 599.5 287.7Q600.0 287.7 600.3 287.7L600.3 287.7Q603.3 287.7 604.8 284.2L604.8 284.2L605.3 282.6L595.1 255.9Q594.7 254.7 594.7 253.8L594.7 253.8Q594.7 252.3 595.8 251.4Q596.8 250.4 598.5 250.4L598.5 250.4Q599.8 250.4 600.7 251.1Q601.5 251.8 601.9 253.3L601.9 253.3L609.4 275.9L609.5 275.9L616.9 253.3Q617.4 251.8 618.2 251.1Q619.0 250.4 620.4 250.4L620.4 250.4Q622.0 250.4 622.9 251.3Q623.9 252.3 623.9 253.7L623.9 253.7Q623.9 254.7 623.5 255.8L623.5 255.8L613.3 283.2Q611.2 289.0 608.5 291.3Q605.7 293.6 601.1 293.6ZM639.9 282.7L639.9 282.7Q635.1 282.7 631.7 281.0Q628.4 279.3 627.3 276.5L627.3 276.5Q627.0 275.7 627.0 275.0L627.0 275.0Q627.0 273.7 627.8 272.9Q628.7 272.1 630.0 272.1L630.0 272.1Q631.8 272.1 633.2 273.9L633.2 273.9Q634.4 275.8 636.0 276.6Q637.6 277.4 640.2 277.4L640.2 277.4Q642.8 277.4 644.3 276.4Q645.8 275.3 645.8 273.6L645.8 273.6Q645.8 272.2 644.8 271.3Q643.8 270.5 641.5 269.9L641.5 269.9L636.4 268.8Q627.4 266.8 627.4 259.9L627.4 259.9Q627.4 255.6 630.8 253.0Q634.3 250.4 640.0 250.4L640.0 250.4Q644.4 250.4 647.6 252.3Q650.9 254.1 651.6 256.9L651.6 256.9Q651.7 257.5 651.7 258.0L651.7 258.0Q651.7 259.1 651.0 259.9Q650.3 260.6 648.9 260.6L648.9 260.6Q647.1 260.6 646.2 259.2L646.2 259.2Q645.0 257.5 643.5 256.6Q642.1 255.7 639.9 255.7L639.9 255.7Q637.5 255.7 636.0 256.8Q634.5 257.8 634.5 259.5L634.5 259.5Q634.5 262.3 639.0 263.3L639.0 263.3L644.0 264.4Q648.9 265.5 651.0 267.4Q653.2 269.4 653.2 272.8L653.2 272.8Q653.2 277.3 649.5 280.0Q645.9 282.7 639.9 282.7ZM659.8 274.4L659.8 274.4L659.8 256.6L657.8 256.6Q656.5 256.6 655.7 255.9Q654.9 255.1 654.9 253.8L654.9 253.8Q654.9 252.5 655.7 251.8Q656.4 251.0 657.8 251.0L657.8 251.0L659.8 251.0L659.8 246.9Q659.8 245.1 660.8 244.1Q661.7 243.1 663.4 243.1L663.4 243.1Q665.1 243.1 666.1 244.1Q667.1 245.1 667.1 246.9L667.1 246.9L667.1 251.0L670.4 251.0Q671.8 251.0 672.6 251.8Q673.4 252.5 673.4 253.8L673.4 253.8Q673.4 255.1 672.6 255.9Q671.8 256.6 670.4 256.6L670.4 256.6L667.1 256.6L667.1 272.8Q667.1 274.6 667.7 275.4Q668.4 276.2 670 276.4L670 276.4L670.5 276.4Q673.5 276.7 673.5 279.1L673.5 279.1Q673.5 280.7 672.1 281.6Q670.8 282.4 668.2 282.4L668.2 282.4L667.9 282.4Q659.8 282.4 659.8 274.4ZM691.7 282.7L691.7 282.7Q684.6 282.7 680.6 278.5Q676.6 274.2 676.6 266.7L676.6 266.7Q676.6 259.2 680.6 254.8Q684.6 250.4 691.3 250.4L691.3 250.4Q697.6 250.4 701.6 254.4Q705.6 258.5 705.6 264.9L705.6 264.9Q705.6 266.5 704.7 267.4Q703.8 268.3 702.2 268.3L702.2 268.3L683.9 268.3L683.9 268.5Q683.9 272.4 686.0 274.8Q688.1 277.1 691.6 277.1L691.6 277.1Q694.1 277.1 695.9 276.1Q697.6 275.2 699.4 272.9L699.4 272.9Q700.4 271.8 701.8 271.8L701.8 271.8Q703.1 271.8 703.9 272.5Q704.8 273.3 704.8 274.6L704.8 274.6Q704.8 275.4 704.3 276.4L704.3 276.4Q702.7 279.4 699.4 281.0Q696.1 282.7 691.7 282.7ZM683.9 263.5L683.9 263.5L698.4 263.5Q698.3 260.1 696.3 258.1Q694.4 256.0 691.3 256.0Q688.2 256.0 686.2 258.1Q684.1 260.2 683.9 263.5ZM713.9 282.7L713.9 282.7Q712.2 282.7 711.2 281.7Q710.3 280.6 710.3 278.8L710.3 278.8L710.3 254.1Q710.3 252.4 711.2 251.4Q712.2 250.4 713.7 250.4Q715.3 250.4 716.3 251.4Q717.3 252.4 717.3 254.1L717.3 254.1L717.3 256.4L717.4 256.4Q718.4 253.7 720.8 252.0Q723.1 250.4 726.3 250.4L726.3 250.4Q729.5 250.4 731.8 252.1Q734.1 253.7 734.9 256.7L734.9 256.7L735.1 256.7Q736.2 253.8 738.8 252.1Q741.4 250.4 744.8 250.4L744.8 250.4Q749.4 250.4 752.1 253.3Q754.9 256.1 754.9 260.8L754.9 260.8L754.9 278.8Q754.9 280.6 753.9 281.6Q752.9 282.7 751.3 282.7L751.3 282.7Q749.6 282.7 748.6 281.6Q747.6 280.6 747.6 278.8L747.6 278.8L747.6 262.6Q747.6 259.7 746.2 258.1Q744.7 256.6 742.0 256.6L742.0 256.6Q739.4 256.6 737.8 258.3Q736.1 260.1 736.1 262.9L736.1 262.9L736.1 278.8Q736.1 280.6 735.2 281.7Q734.2 282.7 732.6 282.7L732.6 282.7Q730.9 282.7 730.0 281.7Q729.0 280.6 729.0 278.8L729.0 278.8L729.0 262.2Q729.0 259.6 727.6 258.1Q726.1 256.6 723.5 256.6L723.5 256.6Q720.9 256.6 719.2 258.4Q717.5 260.3 717.5 263.1L717.5 263.1L717.5 278.8Q717.5 280.6 716.5 281.6Q715.5 282.7 713.9 282.7Z M781.1 281.7Q780.1 282.7 778.4 282.7Q776.8 282.7 775.8 281.7Q774.8 280.7 774.8 278.9L774.8 278.9L774.8 256.6L772.8 256.6Q771.6 256.6 770.8 255.9Q770.0 255.2 770.0 253.9L770.0 253.9Q770.0 252.6 770.8 251.9Q771.6 251.1 772.8 251.1L772.8 251.1L774.8 251.1L774.8 248.4Q774.8 239.5 783.3 239.5L783.3 239.5Q786.1 239.5 787.5 240.3Q788.9 241.1 788.9 242.5L788.9 242.5Q788.9 244.2 787.3 244.6L787.3 244.6Q786.7 244.8 785.7 244.8L785.7 244.8Q783.7 244.9 782.8 245.8Q781.9 246.7 781.9 248.7L781.9 248.7L781.9 251.1L785.9 251.1Q787.1 251.1 787.9 251.9Q788.7 252.6 788.7 253.9L788.7 253.9Q788.7 255.2 787.9 255.9Q787.1 256.6 785.9 256.6L785.9 256.6L782.1 256.6L782.1 278.9Q782.1 280.7 781.1 281.7ZM817.7 278.4Q813.6 282.7 806.7 282.7Q799.8 282.7 795.7 278.4Q791.7 274.1 791.7 266.6L791.7 266.6Q791.7 259.1 795.8 254.7Q799.9 250.4 806.7 250.4L806.7 250.4Q813.6 250.4 817.6 254.7Q821.7 259.1 821.7 266.6L821.7 266.6Q821.7 274.1 817.7 278.4ZM801.1 274.2Q803.2 276.9 806.7 276.9Q810.2 276.9 812.3 274.2Q814.3 271.5 814.3 266.6L814.3 266.6Q814.3 261.7 812.3 258.9Q810.2 256.2 806.7 256.2L806.7 256.2Q803.2 256.2 801.1 258.9Q799.1 261.7 799.1 266.6L799.1 266.6Q799.1 271.5 801.1 274.2ZM832.7 281.6Q831.7 282.7 830.0 282.7Q828.4 282.7 827.4 281.6Q826.4 280.6 826.4 278.8L826.4 278.8L826.4 254.1Q826.4 252.4 827.4 251.4Q828.3 250.4 829.9 250.4L829.9 250.4Q831.4 250.4 832.4 251.4Q833.4 252.4 833.4 254.1L833.4 254.1L833.4 256.5L833.5 256.5Q834.2 253.8 836.0 252.1Q837.8 250.5 840.2 250.5L840.2 250.5Q841.9 250.5 842.7 251.3L842.7 251.3Q843.8 252.1 843.8 253.9L843.8 253.9Q843.8 255.6 842.7 256.5L842.7 256.5Q841.6 257.4 839.5 257.5L839.5 257.5Q833.7 257.5 833.7 263.9L833.7 263.9L833.7 278.8Q833.7 280.6 832.7 281.6Z M47.5 365.1L47.5 365.1Q45.7 365.1 44.7 364.0Q43.7 363.0 43.7 361.2L43.7 361.2L43.7 325.7Q43.7 323.9 44.7 322.8Q45.7 321.8 47.5 321.8L47.5 321.8Q49.3 321.8 50.3 322.8Q51.3 323.9 51.3 325.7L51.3 325.7L51.3 341.7L51.5 341.7L68.5 323.4Q70 321.8 71.7 321.8L71.7 321.8Q73.2 321.8 74.2 322.8Q75.2 323.8 75.2 325.2L75.2 325.2Q75.2 326.7 74.0 328.0L74.0 328.0L61.3 341.3L75.2 358.2Q76.7 359.9 76.7 361.5Q76.7 363.0 75.7 364.1Q74.6 365.1 73.1 365.1L73.1 365.1Q72.0 365.1 71.1 364.6Q70.3 364.2 69.4 363.1L69.4 363.1L55.7 346.3L51.3 351.0L51.3 361.2Q51.3 363.0 50.3 364.1Q49.3 365.1 47.5 365.1ZM87.9 364.2Q86.9 365.2 85.3 365.2Q83.6 365.2 82.6 364.2Q81.6 363.1 81.6 361.3L81.6 361.3L81.6 336.6Q81.6 334.9 82.6 333.9Q83.5 332.9 85.1 332.9Q86.7 332.9 87.7 333.9Q88.7 334.9 88.7 336.6L88.7 336.6L88.7 338.8L88.9 338.8Q91.5 332.9 98.5 332.9L98.5 332.9Q103.6 332.9 106.5 336.0Q109.3 339.1 109.3 344.5L109.3 344.5L109.3 361.3Q109.3 363.1 108.3 364.2Q107.3 365.2 105.7 365.2Q104.0 365.2 103.0 364.2Q102.0 363.1 102.0 361.3L102.0 361.3L102.0 346.0Q102.0 342.6 100.4 340.9Q98.9 339.1 95.8 339.1L95.8 339.1Q92.6 339.1 90.8 341.2Q88.9 343.2 88.9 346.6L88.9 346.6L88.9 361.3Q88.9 363.1 87.9 364.2ZM139.8 360.9Q135.7 365.2 128.9 365.2Q122.0 365.2 117.9 360.9Q113.8 356.6 113.8 349.1L113.8 349.1Q113.8 341.6 117.9 337.2Q122.0 332.9 128.9 332.9L128.9 332.9Q135.7 332.9 139.8 337.2Q143.9 341.6 143.9 349.1L143.9 349.1Q143.9 356.6 139.8 360.9ZM123.3 356.7Q125.3 359.4 128.9 359.4Q132.4 359.4 134.4 356.7Q136.5 354.0 136.5 349.1L136.5 349.1Q136.5 344.2 134.4 341.4Q132.4 338.7 128.9 338.7L128.9 338.7Q125.4 338.7 123.3 341.4Q121.2 344.2 121.2 349.1L121.2 349.1Q121.2 354.0 123.3 356.7ZM158.4 365.2L158.4 365.2Q156.5 365.2 155.5 364.3Q154.4 363.4 153.8 361.4L153.8 361.4L147.1 338.2Q146.7 336.9 146.7 336.0L146.7 336.0Q146.7 334.7 147.7 333.8Q148.7 332.9 150.2 332.9L150.2 332.9Q153.0 332.9 153.6 336.0L153.6 336.0L158.8 357.4L158.9 357.4L164.4 336.2Q165.1 332.9 168.5 332.9L168.5 332.9Q171.9 332.9 172.6 336.2L172.6 336.2L178.1 357.4L178.3 357.4L183.4 336.0Q184.1 332.9 186.7 332.9L186.7 332.9Q188.3 332.9 189.3 333.8Q190.2 334.6 190.2 336.0L190.2 336.0Q190.2 336.9 189.9 338.2L189.9 338.2L183.1 361.4Q182.6 363.3 181.5 364.3Q180.4 365.2 178.5 365.2L178.5 365.2Q176.6 365.2 175.4 364.3Q174.3 363.4 173.8 361.4L173.8 361.4L168.5 341.9L168.3 341.9L163.0 361.4Q162.1 365.2 158.4 365.2ZM200.8 364.2Q199.8 365.2 198.2 365.2Q196.6 365.2 195.6 364.2Q194.5 363.1 194.5 361.3L194.5 361.3L194.5 325.6Q194.5 323.7 195.6 322.7Q196.6 321.7 198.2 321.7Q199.8 321.7 200.8 322.7Q201.8 323.7 201.8 325.6L201.8 325.6L201.8 361.3Q201.8 363.1 200.8 364.2ZM221.8 365.2L221.8 365.2Q214.7 365.2 210.7 361.0Q206.8 356.7 206.8 349.2L206.8 349.2Q206.8 341.7 210.7 337.3Q214.7 332.9 221.4 332.9L221.4 332.9Q227.8 332.9 231.8 336.9Q235.7 341.0 235.7 347.4L235.7 347.4Q235.7 349.0 234.8 349.9Q233.9 350.8 232.3 350.8L232.3 350.8L214.0 350.8L214.0 351.0Q214.0 354.9 216.1 357.3Q218.2 359.6 221.8 359.6L221.8 359.6Q224.2 359.6 226.0 358.6Q227.8 357.7 229.6 355.4L229.6 355.4Q230.6 354.3 232.0 354.3L232.0 354.3Q233.3 354.3 234.1 355.0Q234.9 355.8 234.9 357.1L234.9 357.1Q234.9 357.9 234.4 358.9L234.4 358.9Q232.9 361.9 229.6 363.5Q226.3 365.2 221.8 365.2ZM214.1 346.0L214.1 346.0L228.6 346.0Q228.5 342.6 226.5 340.6Q224.5 338.5 221.5 338.5Q218.4 338.5 216.3 340.6Q214.3 342.7 214.1 346.0ZM252.0 365.1L252.0 365.1Q246.1 365.1 242.6 360.7Q239.1 356.4 239.1 349.0L239.1 349.0Q239.1 341.7 242.6 337.3Q246.1 333.0 252.0 333.0L252.0 333.0Q255.3 333.0 257.8 334.5Q260.4 336.1 261.6 338.7L261.6 338.7L261.8 338.7L261.8 325.6Q261.8 323.7 262.8 322.7Q263.8 321.7 265.4 321.7Q267.1 321.7 268.1 322.7Q269.1 323.7 269.1 325.6L269.1 325.6L269.1 361.5Q269.1 363.2 268.1 364.2Q267.1 365.2 265.5 365.2L265.5 365.2Q263.9 365.2 262.8 364.2Q261.8 363.2 261.8 361.5L261.8 361.5L261.8 359.1L261.7 359.1Q260.5 361.9 258.0 363.5Q255.5 365.1 252.0 365.1ZM254.2 359.1L254.2 359.1Q257.7 359.1 259.8 356.4Q261.8 353.7 261.8 349.1L261.8 349.1Q261.8 344.5 259.8 341.7Q257.7 339.0 254.2 339.0L254.2 339.0Q250.7 339.0 248.7 341.7Q246.6 344.4 246.6 349.1L246.6 349.1Q246.6 353.7 248.6 356.4Q250.7 359.1 254.2 359.1ZM288.6 376.3L288.6 376.3Q284.2 376.2 280.9 374.7Q277.6 373.2 276.0 370.6L276.0 370.6Q275.4 369.6 275.4 368.4L275.4 368.4Q275.4 367.2 276.2 366.4Q277.1 365.6 278.4 365.6L278.4 365.6Q279.9 365.6 281.1 366.8L281.1 366.8Q283.0 368.7 284.7 369.6Q286.5 370.4 288.7 370.5L288.7 370.5Q292.3 370.5 294.5 368.6Q296.6 366.7 296.6 363.6L296.6 363.6L296.6 358.7L296.4 358.7Q295.2 361.2 292.6 362.7Q290.0 364.3 286.7 364.3L286.7 364.3Q280.8 364.3 277.4 360.0Q273.9 355.8 273.9 348.7L273.9 348.7Q273.9 341.4 277.4 337.2Q280.8 333.0 286.9 333.0L286.9 333.0Q290.1 333.0 292.6 334.5Q295.1 336.1 296.5 338.8L296.5 338.8L296.6 338.8L296.6 336.6Q296.6 334.9 297.6 333.9Q298.7 332.9 300.3 332.9Q301.9 332.9 302.9 333.9Q303.9 334.9 303.9 336.6L303.9 336.6L303.9 363.6Q303.9 369.5 299.8 372.9Q295.8 376.3 288.6 376.3ZM288.9 358.6L288.9 358.6Q292.5 358.6 294.5 355.9Q296.6 353.3 296.6 348.7L296.6 348.7Q296.6 344.2 294.5 341.5Q292.4 338.8 288.9 338.8L288.9 338.8Q285.5 338.8 283.4 341.5Q281.4 344.2 281.4 348.7L281.4 348.7Q281.4 353.3 283.4 356.0Q285.5 358.6 288.9 358.6ZM323.7 365.2L323.7 365.2Q316.5 365.2 312.5 361.0Q308.6 356.7 308.6 349.2L308.6 349.2Q308.6 341.7 312.5 337.3Q316.5 332.9 323.2 332.9L323.2 332.9Q329.6 332.9 333.6 336.9Q337.5 341.0 337.5 347.4L337.5 347.4Q337.5 349.0 336.6 349.9Q335.8 350.8 334.1 350.8L334.1 350.8L315.8 350.8L315.8 351.0Q315.8 354.9 317.9 357.3Q320.0 359.6 323.6 359.6L323.6 359.6Q326.1 359.6 327.8 358.6Q329.6 357.7 331.4 355.4L331.4 355.4Q332.4 354.3 333.8 354.3L333.8 354.3Q335.1 354.3 335.9 355.0Q336.7 355.8 336.7 357.1L336.7 357.1Q336.7 357.9 336.3 358.9L336.3 358.9Q334.7 361.9 331.4 363.5Q328.1 365.2 323.7 365.2ZM315.9 346.0L315.9 346.0L330.4 346.0Q330.3 342.6 328.3 340.6Q326.3 338.5 323.3 338.5Q320.2 338.5 318.1 340.6Q316.1 342.7 315.9 346.0ZM359.0 350.7L345.7 350.7Q344.2 350.7 343.2 349.8Q342.2 348.9 342.2 347.4Q342.2 345.9 343.2 345.0Q344.2 344.2 345.7 344.2L345.7 344.2L359.0 344.2Q360.5 344.2 361.5 345.0Q362.4 345.9 362.4 347.4Q362.4 348.9 361.5 349.8Q360.5 350.7 359.0 350.7L359.0 350.7ZM386.9 364.6L373.0 364.6Q371.2 364.6 370.2 363.5Q369.2 362.5 369.2 360.7L369.2 360.7L369.2 326.2Q369.2 324.4 370.2 323.3Q371.2 322.3 373.0 322.3L373.0 322.3L386.7 322.3Q392.5 322.3 395.9 325.2Q399.4 328.0 399.4 332.8L399.4 332.8Q399.4 336.2 397.1 338.9Q394.9 341.5 391.7 342.0L391.7 342.0L391.7 342.3Q396.0 342.7 398.7 345.5Q401.4 348.4 401.4 352.6L401.4 352.6Q401.4 358.2 397.5 361.4Q393.7 364.6 386.9 364.6L386.9 364.6ZM376.7 328.2L376.7 340.1L383.7 340.1Q387.6 340.1 389.7 338.5Q391.9 336.9 391.9 334.0L391.9 334.0Q391.9 331.2 390.1 329.7Q388.2 328.2 384.8 328.2L384.8 328.2L376.7 328.2ZM376.7 345.5L376.7 358.7L385.2 358.7Q389.3 358.7 391.5 357.0Q393.7 355.3 393.7 352.0L393.7 352.0Q393.7 348.8 391.5 347.1Q389.2 345.5 384.9 345.5L384.9 345.5L376.7 345.5ZM415.2 365.1L415.2 365.1Q410.6 365.1 407.7 362.5Q404.8 359.9 404.8 355.7L404.8 355.7Q404.8 351.6 407.9 349.2Q410.9 346.8 416.6 346.4L416.6 346.4L424.8 345.9L424.8 343.7Q424.8 341.3 423.3 339.9Q421.8 338.6 419.0 338.6L419.0 338.6Q416.9 338.6 415.4 339.4Q413.9 340.2 412.5 342.2L412.5 342.2Q411.4 343.7 409.6 343.7L409.6 343.7Q408.2 343.7 407.4 342.9Q406.5 342.1 406.5 340.8L406.5 340.8Q406.5 339.8 407.0 338.8L407.0 338.8Q408.2 336.1 411.5 334.5Q414.9 332.9 419.3 332.9L419.3 332.9Q425.1 332.9 428.6 335.7Q432.1 338.5 432.1 343.2L432.1 343.2L432.1 361.5Q432.1 363.2 431.1 364.2Q430.1 365.2 428.5 365.2L428.5 365.2Q427.0 365.2 426.0 364.3Q425.1 363.4 425.0 361.8L425.0 361.8L425.0 359.6L424.9 359.6Q423.6 362.1 420.9 363.6Q418.2 365.1 415.2 365.1ZM417.4 359.6L417.4 359.6Q420.5 359.6 422.7 357.7Q424.8 355.8 424.8 353.1L424.8 353.1L424.8 350.7L417.6 351.1Q415 351.3 413.5 352.4Q412.1 353.6 412.1 355.4L412.1 355.4Q412.1 357.3 413.5 358.4Q415 359.6 417.4 359.6ZM449.9 365.2L449.9 365.2Q445.1 365.2 441.7 363.5Q438.4 361.8 437.2 359.0L437.2 359.0Q436.9 358.2 436.9 357.5L436.9 357.5Q436.9 356.2 437.8 355.4Q438.6 354.6 440.0 354.6L440.0 354.6Q441.8 354.6 443.2 356.4L443.2 356.4Q444.4 358.3 446.0 359.1Q447.6 359.9 450.2 359.9L450.2 359.9Q452.7 359.9 454.3 358.9Q455.8 357.8 455.8 356.1L455.8 356.1Q455.8 354.7 454.8 353.8Q453.8 353.0 451.4 352.4L451.4 352.4L446.4 351.3Q437.4 349.3 437.4 342.4L437.4 342.4Q437.4 338.1 440.8 335.5Q444.3 332.9 450.0 332.9L450.0 332.9Q454.4 332.9 457.6 334.8Q460.8 336.6 461.6 339.4L461.6 339.4Q461.7 340.0 461.7 340.5L461.7 340.5Q461.7 341.6 461.0 342.4Q460.3 343.1 458.9 343.1L458.9 343.1Q457.1 343.1 456.1 341.7L456.1 341.7Q455.0 340.0 453.5 339.1Q452.0 338.2 449.8 338.2L449.8 338.2Q447.4 338.2 445.9 339.3Q444.4 340.3 444.4 342.0L444.4 342.0Q444.4 344.8 449.0 345.8L449.0 345.8L454.0 346.9Q458.9 348.0 461.0 349.9Q463.1 351.9 463.1 355.3L463.1 355.3Q463.1 359.8 459.5 362.5Q455.8 365.2 449.9 365.2ZM481.5 365.2L481.5 365.2Q474.4 365.2 470.4 361.0Q466.4 356.7 466.4 349.2L466.4 349.2Q466.4 341.7 470.4 337.3Q474.4 332.9 481.1 332.9L481.1 332.9Q487.5 332.9 491.5 336.9Q495.4 341.0 495.4 347.4L495.4 347.4Q495.4 349.0 494.5 349.9Q493.6 350.8 492.0 350.8L492.0 350.8L473.7 350.8L473.7 351.0Q473.7 354.9 475.8 357.3Q477.9 359.6 481.5 359.6L481.5 359.6Q483.9 359.6 485.7 358.6Q487.5 357.7 489.2 355.4L489.2 355.4Q490.3 354.3 491.7 354.3L491.7 354.3Q493.0 354.3 493.8 355.0Q494.6 355.8 494.6 357.1L494.6 357.1Q494.6 357.9 494.1 358.9L494.1 358.9Q492.6 361.9 489.3 363.5Q486.0 365.2 481.5 365.2ZM473.8 346.0L473.8 346.0L488.3 346.0Q488.2 342.6 486.2 340.6Q484.2 338.5 481.2 338.5Q478.1 338.5 476.0 340.6Q474.0 342.7 473.8 346.0ZM511.7 365.1L511.7 365.1Q505.8 365.1 502.3 360.7Q498.8 356.4 498.8 349.0L498.8 349.0Q498.8 341.7 502.3 337.3Q505.8 333.0 511.7 333.0L511.7 333.0Q515.0 333.0 517.5 334.5Q520.1 336.1 521.3 338.7L521.3 338.7L521.5 338.7L521.5 325.6Q521.5 323.7 522.5 322.7Q523.5 321.7 525.1 321.7Q526.8 321.7 527.8 322.7Q528.8 323.7 528.8 325.6L528.8 325.6L528.8 361.5Q528.8 363.2 527.8 364.2Q526.8 365.2 525.2 365.2L525.2 365.2Q523.5 365.2 522.5 364.2Q521.5 363.2 521.5 361.5L521.5 361.5L521.5 359.1L521.3 359.1Q520.2 361.9 517.7 363.5Q515.2 365.1 511.7 365.1ZM513.9 359.1L513.9 359.1Q517.4 359.1 519.4 356.4Q521.5 353.7 521.5 349.1L521.5 349.1Q521.5 344.5 519.4 341.7Q517.4 339.0 513.9 339.0L513.9 339.0Q510.4 339.0 508.3 341.7Q506.3 344.4 506.3 349.1L506.3 349.1Q506.3 353.7 508.3 356.4Q510.4 359.1 513.9 359.1Z M554.2 364.1Q553.2 365.2 551.4 365.2Q549.7 365.2 548.7 364.1Q547.7 363.1 547.7 361.2L547.7 361.2L547.7 326.2Q547.7 324.4 548.7 323.3Q549.7 322.3 551.4 322.3L551.4 322.3L564.4 322.3Q571.3 322.3 575.2 325.8Q579.1 329.4 579.1 335.5L579.1 335.5Q579.1 339.6 577.0 342.8Q575.0 346.0 571.4 347.4L571.4 347.4L578.0 359.1Q578.9 360.5 578.9 361.7L578.9 361.7Q578.9 363.2 577.8 364.2Q576.7 365.2 575.0 365.2L575.0 365.2Q573.7 365.2 572.9 364.6Q572.1 364.0 571.2 362.4L571.2 362.4L563.7 348.7L555.2 348.7L555.2 361.2Q555.2 363.1 554.2 364.1ZM555.2 328.4L555.2 342.9L563.7 342.9Q567.3 342.9 569.3 341.0Q571.3 339.1 571.3 335.6L571.3 335.6Q571.3 332.3 569.2 330.4Q567.2 328.4 563.6 328.4L563.6 328.4L555.2 328.4ZM609.1 360.9Q605.0 365.2 598.2 365.2Q591.3 365.2 587.2 360.9Q583.1 356.6 583.1 349.1L583.1 349.1Q583.1 341.6 587.2 337.2Q591.3 332.9 598.2 332.9L598.2 332.9Q605.0 332.9 609.1 337.2Q613.2 341.6 613.2 349.1L613.2 349.1Q613.2 356.6 609.1 360.9ZM592.6 356.7Q594.6 359.4 598.2 359.4Q601.7 359.4 603.7 356.7Q605.8 354.0 605.8 349.1L605.8 349.1Q605.8 344.2 603.7 341.4Q601.7 338.7 598.2 338.7L598.2 338.7Q594.7 338.7 592.6 341.4Q590.5 344.2 590.5 349.1L590.5 349.1Q590.5 354.0 592.6 356.7ZM624.2 364.2Q623.2 365.2 621.6 365.2Q620.0 365.2 619.1 364.2Q618.1 363.3 618.1 361.5L618.1 361.5L618.1 325.6Q618.1 323.7 619.1 322.7Q620.1 321.7 621.7 321.7Q623.4 321.7 624.4 322.7Q625.4 323.7 625.4 325.6L625.4 325.6L625.4 338.9L625.6 338.9Q626.9 336.1 629.5 334.5Q632.0 333.0 635.3 333.0L635.3 333.0Q641.2 333.0 644.6 337.3Q648.1 341.6 648.1 349.1L648.1 349.1Q648.1 356.5 644.6 360.8Q641.2 365.1 635.3 365.1L635.3 365.1Q631.9 365.1 629.3 363.6Q626.8 362.0 625.4 359.3L625.4 359.3L625.2 359.3L625.2 361.5Q625.2 363.2 624.2 364.2ZM633.0 359.1L633.0 359.1Q636.5 359.1 638.6 356.4Q640.6 353.7 640.6 349.1Q640.6 344.4 638.6 341.7Q636.5 339.0 633.0 339.0L633.0 339.0Q629.6 339.0 627.5 341.8Q625.4 344.5 625.4 349.1L625.4 349.1Q625.4 353.6 627.5 356.3Q629.6 359.1 633.0 359.1ZM677.5 360.9Q673.4 365.2 666.5 365.2Q659.6 365.2 655.6 360.9Q651.5 356.6 651.5 349.1L651.5 349.1Q651.5 341.6 655.6 337.2Q659.7 332.9 666.5 332.9L666.5 332.9Q673.4 332.9 677.5 337.2Q681.5 341.6 681.5 349.1L681.5 349.1Q681.5 356.6 677.5 360.9ZM660.9 356.7Q663.0 359.4 666.5 359.4Q670.0 359.4 672.1 356.7Q674.1 354.0 674.1 349.1L674.1 349.1Q674.1 344.2 672.1 341.4Q670.0 338.7 666.5 338.7L666.5 338.7Q663.0 338.7 661.0 341.4Q658.9 344.2 658.9 349.1L658.9 349.1Q658.9 354.0 660.9 356.7ZM688.3 356.9L688.3 356.9L688.3 339.1L686.3 339.1Q684.9 339.1 684.2 338.4Q683.4 337.6 683.4 336.3L683.4 336.3Q683.4 335.0 684.1 334.3Q684.9 333.5 686.3 333.5L686.3 333.5L688.3 333.5L688.3 329.4Q688.3 327.6 689.2 326.6Q690.2 325.6 691.9 325.6L691.9 325.6Q693.6 325.6 694.6 326.6Q695.5 327.6 695.5 329.4L695.5 329.4L695.5 333.5L698.9 333.5Q700.3 333.5 701.1 334.3Q701.8 335.0 701.8 336.3L701.8 336.3Q701.8 337.6 701.1 338.4Q700.3 339.1 698.9 339.1L698.9 339.1L695.5 339.1L695.5 355.3Q695.5 357.1 696.2 357.9Q696.9 358.7 698.5 358.9L698.5 358.9L699.0 358.9Q701.9 359.2 701.9 361.6L701.9 361.6Q701.9 363.2 700.6 364.1Q699.2 364.9 696.7 364.9L696.7 364.9L696.4 364.9Q688.3 364.9 688.3 356.9ZM713.1 328.0Q711.9 329.2 710.2 329.2Q708.5 329.2 707.3 328.0Q706.1 326.8 706.1 325.2L706.1 325.2Q706.1 323.5 707.3 322.4Q708.5 321.2 710.2 321.2L710.2 321.2Q711.9 321.2 713.1 322.4Q714.2 323.5 714.2 325.2L714.2 325.2Q714.2 326.8 713.1 328.0ZM712.8 364.1Q711.8 365.2 710.2 365.2Q708.5 365.2 707.5 364.1Q706.5 363.1 706.5 361.3L706.5 361.3L706.5 336.7Q706.5 335.0 707.5 333.9Q708.5 332.9 710.2 332.9Q711.8 332.9 712.8 333.9Q713.8 335.0 713.8 336.8L713.8 336.8L713.8 361.3Q713.8 363.1 712.8 364.1ZM733.6 365.2L733.6 365.2Q726.8 365.2 722.7 360.9Q718.7 356.5 718.7 349.1L718.7 349.1Q718.7 341.7 722.7 337.3Q726.7 332.9 733.5 332.9L733.5 332.9Q738.1 332.9 741.6 335.0Q745.2 337.1 746.3 340.4L746.3 340.4Q746.7 341.4 746.7 342.1L746.7 342.1Q746.7 343.5 745.8 344.3Q744.9 345.1 743.6 345.1L743.6 345.1Q742.5 345.1 741.7 344.6Q741.0 344.1 740.4 343.0L740.4 343.0Q738.1 338.8 733.8 338.8L733.8 338.8Q730.2 338.8 728.2 341.6Q726.1 344.3 726.1 349.1L726.1 349.1Q726.1 353.9 728.1 356.6Q730.2 359.3 733.7 359.3L733.7 359.3Q738.1 359.3 740.3 355.3L740.3 355.3Q741.1 354.1 741.8 353.6Q742.5 353.1 743.7 353.1L743.7 353.1Q745.0 353.1 745.9 353.9Q746.8 354.7 746.8 356.1L746.8 356.1Q746.8 356.9 746.3 357.9L746.3 357.9Q745.0 361.1 741.5 363.2Q738.0 365.2 733.6 365.2Z M778.5 365.1L778.5 365.1Q776.8 365.1 775.8 364.1Q774.8 363.0 774.8 361.2L774.8 361.2L774.8 328.7L765.1 328.7Q763.5 328.7 762.6 327.8Q761.6 327.0 761.6 325.5Q761.6 324.0 762.6 323.2Q763.5 322.3 765.1 322.3L765.1 322.3L792.0 322.3Q793.5 322.3 794.5 323.2Q795.4 324.0 795.4 325.5Q795.4 327.0 794.5 327.8Q793.5 328.7 792.0 328.7L792.0 328.7L782.3 328.7L782.3 361.2Q782.3 363.0 781.3 364.1Q780.3 365.1 778.5 365.1ZM808.5 365.1L808.5 365.1Q803.9 365.1 801.0 362.5Q798.1 359.9 798.1 355.7L798.1 355.7Q798.1 351.6 801.1 349.2Q804.2 346.8 809.9 346.4L809.9 346.4L818.1 345.9L818.1 343.7Q818.1 341.3 816.6 339.9Q815.0 338.6 812.3 338.6L812.3 338.6Q810.2 338.6 808.7 339.4Q807.2 340.2 805.8 342.2L805.8 342.2Q804.7 343.7 802.9 343.7L802.9 343.7Q801.5 343.7 800.6 342.9Q799.8 342.1 799.8 340.8L799.8 340.8Q799.8 339.8 800.3 338.8L800.3 338.8Q801.5 336.1 804.8 334.5Q808.2 332.9 812.6 332.9L812.6 332.9Q818.4 332.9 821.9 335.7Q825.3 338.5 825.3 343.2L825.3 343.2L825.3 361.5Q825.3 363.2 824.4 364.2Q823.4 365.2 821.8 365.2L821.8 365.2Q820.3 365.2 819.3 364.3Q818.4 363.4 818.3 361.8L818.3 361.8L818.3 359.6L818.2 359.6Q816.8 362.1 814.2 363.6Q811.5 365.1 808.5 365.1ZM810.7 359.6L810.7 359.6Q813.8 359.6 816.0 357.7Q818.1 355.8 818.1 353.1L818.1 353.1L818.1 350.7L810.9 351.1Q808.3 351.3 806.8 352.4Q805.4 353.6 805.4 355.4L805.4 355.4Q805.4 357.3 806.8 358.4Q808.3 359.6 810.7 359.6ZM843.2 365.2L843.2 365.2Q838.3 365.2 835 363.5Q831.7 361.8 830.5 359.0L830.5 359.0Q830.2 358.2 830.2 357.5L830.2 357.5Q830.2 356.2 831.1 355.4Q831.9 354.6 833.3 354.6L833.3 354.6Q835.1 354.6 836.4 356.4L836.4 356.4Q837.7 358.3 839.3 359.1Q840.9 359.9 843.4 359.9L843.4 359.9Q846.0 359.9 847.6 358.9Q849.1 357.8 849.1 356.1L849.1 356.1Q849.1 354.7 848.1 353.8Q847.1 353.0 844.7 352.4L844.7 352.4L839.7 351.3Q830.6 349.3 830.6 342.4L830.6 342.4Q830.6 338.1 834.1 335.5Q837.5 332.9 843.3 332.9L843.3 332.9Q847.7 332.9 850.9 334.8Q854.1 336.6 854.9 339.4L854.9 339.4Q855.0 340.0 855.0 340.5L855.0 340.5Q855.0 341.6 854.3 342.4Q853.5 343.1 852.2 343.1L852.2 343.1Q850.4 343.1 849.4 341.7L849.4 341.7Q848.3 340.0 846.8 339.1Q845.3 338.2 843.1 338.2L843.1 338.2Q840.7 338.2 839.2 339.3Q837.7 340.3 837.7 342.0L837.7 342.0Q837.7 344.8 842.3 345.8L842.3 345.8L847.2 346.9Q852.2 348.0 854.3 349.9Q856.4 351.9 856.4 355.3L856.4 355.3Q856.4 359.8 852.8 362.5Q849.1 365.2 843.2 365.2ZM867.5 364.2Q866.5 365.2 864.9 365.2Q863.2 365.2 862.2 364.2Q861.2 363.1 861.2 361.3L861.2 361.3L861.2 325.6Q861.2 323.7 862.2 322.7Q863.2 321.7 864.9 321.7Q866.5 321.7 867.5 322.7Q868.5 323.7 868.5 325.6L868.5 325.6L868.5 346.4L868.6 346.4L880.8 334.3Q882.1 332.9 883.6 332.9L883.6 332.9Q885.0 332.9 885.9 333.8Q886.8 334.7 886.8 336.0L886.8 336.0Q886.8 337.5 885.5 338.7L885.5 338.7L876.7 347.1L886.4 359.3Q887.4 360.7 887.4 361.9L887.4 361.9Q887.4 363.3 886.4 364.3Q885.4 365.2 883.9 365.2L883.9 365.2Q882.8 365.2 882.1 364.7Q881.4 364.3 880.6 363.1L880.6 363.1L871.3 351.3L868.5 353.9L868.5 361.3Q868.5 363.1 867.5 364.2Z M908.7 365.1L908.7 365.1Q906.9 365.1 905.9 364.0Q904.9 363.0 904.9 361.2L904.9 361.2L904.9 326.2Q904.9 324.4 905.9 323.3Q906.9 322.3 908.7 322.3L908.7 322.3L921.3 322.3Q927.6 322.3 931.6 326.2Q935.5 330.1 935.5 336.5L935.5 336.5Q935.5 342.8 931.5 346.7Q927.4 350.6 921.0 350.6L921.0 350.6L912.4 350.6L912.4 361.2Q912.4 363.0 911.4 364.1Q910.4 365.1 908.7 365.1ZM912.4 328.5L912.4 344.5L919.3 344.5Q923.4 344.5 925.6 342.4Q927.9 340.3 927.9 336.5L927.9 336.5Q927.9 332.6 925.6 330.6Q923.4 328.5 919.3 328.5L919.3 328.5L912.4 328.5ZM946.8 364.2Q945.8 365.2 944.2 365.2Q942.5 365.2 941.5 364.2Q940.5 363.1 940.5 361.3L940.5 361.3L940.5 325.6Q940.5 323.7 941.5 322.7Q942.5 321.7 944.2 321.7Q945.8 321.7 946.8 322.7Q947.8 323.7 947.8 325.6L947.8 325.6L947.8 361.3Q947.8 363.1 946.8 364.2ZM963.1 365.1L963.1 365.1Q958.6 365.1 955.7 362.5Q952.8 359.9 952.8 355.7L952.8 355.7Q952.8 351.6 955.8 349.2Q958.9 346.8 964.6 346.4L964.6 346.4L972.8 345.9L972.8 343.7Q972.8 341.3 971.3 339.9Q969.7 338.6 967.0 338.6L967.0 338.6Q964.8 338.6 963.3 339.4Q961.9 340.2 960.5 342.2L960.5 342.2Q959.4 343.7 957.5 343.7L957.5 343.7Q956.2 343.7 955.3 342.9Q954.5 342.1 954.5 340.8L954.5 340.8Q954.5 339.8 955.0 338.8L955.0 338.8Q956.1 336.1 959.5 334.5Q962.9 332.9 967.3 332.9L967.3 332.9Q973.1 332.9 976.5 335.7Q980.0 338.5 980.0 343.2L980.0 343.2L980.0 361.5Q980.0 363.2 979.0 364.2Q978.1 365.2 976.5 365.2L976.5 365.2Q975.0 365.2 974.0 364.3Q973.1 363.4 973.0 361.8L973.0 361.8L973.0 359.6L972.8 359.6Q971.5 362.1 968.9 363.6Q966.2 365.1 963.1 365.1ZM965.4 359.6L965.4 359.6Q968.5 359.6 970.6 357.7Q972.8 355.8 972.8 353.1L972.8 353.1L972.8 350.7L965.6 351.1Q963.0 351.3 961.5 352.4Q960.1 353.6 960.1 355.4L960.1 355.4Q960.1 357.3 961.5 358.4Q963.0 359.6 965.4 359.6ZM992.2 364.2Q991.2 365.2 989.5 365.2Q987.9 365.2 986.9 364.2Q985.9 363.1 985.9 361.3L985.9 361.3L985.9 336.6Q985.9 334.9 986.8 333.9Q987.8 332.9 989.4 332.9Q991.0 332.9 992.0 333.9Q993.0 334.9 993.0 336.6L993.0 336.6L993.0 338.8L993.1 338.8Q995.8 332.9 1002.8 332.9L1002.8 332.9Q1007.9 332.9 1010.7 336.0Q1013.5 339.1 1013.5 344.5L1013.5 344.5L1013.5 361.3Q1013.5 363.1 1012.5 364.2Q1011.5 365.2 1009.9 365.2Q1008.3 365.2 1007.3 364.2Q1006.2 363.1 1006.2 361.3L1006.2 361.3L1006.2 346.0Q1006.2 342.6 1004.7 340.9Q1003.1 339.1 1000.0 339.1L1000.0 339.1Q996.9 339.1 995.0 341.2Q993.2 343.2 993.2 346.6L993.2 346.6L993.2 361.3Q993.2 363.1 992.2 364.2ZM1025.6 364.2Q1024.6 365.2 1023.0 365.2Q1021.4 365.2 1020.4 364.2Q1019.4 363.1 1019.4 361.3L1019.4 361.3L1019.4 336.6Q1019.4 334.9 1020.3 333.9Q1021.2 332.9 1022.9 332.9Q1024.5 332.9 1025.5 333.9Q1026.5 334.9 1026.5 336.6L1026.5 336.6L1026.5 338.8L1026.6 338.8Q1029.2 332.9 1036.3 332.9L1036.3 332.9Q1041.4 332.9 1044.2 336.0Q1047.0 339.1 1047.0 344.5L1047.0 344.5L1047.0 361.3Q1047.0 363.1 1046.0 364.2Q1045.0 365.2 1043.4 365.2Q1041.7 365.2 1040.7 364.2Q1039.7 363.1 1039.7 361.3L1039.7 361.3L1039.7 346.0Q1039.7 342.6 1038.2 340.9Q1036.6 339.1 1033.5 339.1L1033.5 339.1Q1030.4 339.1 1028.5 341.2Q1026.7 343.2 1026.7 346.6L1026.7 346.6L1026.7 361.3Q1026.7 363.1 1025.6 364.2ZM1059.5 328.0Q1058.4 329.2 1056.7 329.2Q1055.0 329.2 1053.8 328.0Q1052.6 326.8 1052.6 325.2L1052.6 325.2Q1052.6 323.5 1053.8 322.4Q1055.0 321.2 1056.7 321.2L1056.7 321.2Q1058.4 321.2 1059.6 322.4Q1060.7 323.5 1060.7 325.2L1060.7 325.2Q1060.7 326.8 1059.5 328.0ZM1059.3 364.1Q1058.3 365.2 1056.7 365.2Q1055.0 365.2 1054.0 364.1Q1053.0 363.1 1053.0 361.3L1053.0 361.3L1053.0 336.7Q1053.0 335.0 1054.0 333.9Q1055.0 332.9 1056.7 332.9Q1058.3 332.9 1059.3 333.9Q1060.3 335.0 1060.3 336.8L1060.3 336.8L1060.3 361.3Q1060.3 363.1 1059.3 364.1ZM1072.7 364.2Q1071.7 365.2 1070.1 365.2Q1068.4 365.2 1067.4 364.2Q1066.4 363.1 1066.4 361.3L1066.4 361.3L1066.4 336.6Q1066.4 334.9 1067.4 333.9Q1068.3 332.9 1069.9 332.9Q1071.5 332.9 1072.5 333.9Q1073.5 334.9 1073.5 336.6L1073.5 336.6L1073.5 338.8L1073.7 338.8Q1076.3 332.9 1083.3 332.9L1083.3 332.9Q1088.4 332.9 1091.3 336.0Q1094.1 339.1 1094.1 344.5L1094.1 344.5L1094.1 361.3Q1094.1 363.1 1093.1 364.2Q1092.1 365.2 1090.5 365.2Q1088.8 365.2 1087.8 364.2Q1086.8 363.1 1086.8 361.3L1086.8 361.3L1086.8 346.0Q1086.8 342.6 1085.2 340.9Q1083.7 339.1 1080.6 339.1L1080.6 339.1Q1077.5 339.1 1075.6 341.2Q1073.7 343.2 1073.7 346.6L1073.7 346.6L1073.7 361.3Q1073.7 363.1 1072.7 364.2ZM1113.3 376.3L1113.3 376.3Q1109.0 376.2 1105.6 374.7Q1102.3 373.2 1100.7 370.6L1100.7 370.6Q1100.1 369.6 1100.1 368.4L1100.1 368.4Q1100.1 367.2 1100.9 366.4Q1101.8 365.6 1103.2 365.6L1103.2 365.6Q1104.6 365.6 1105.8 366.8L1105.8 366.8Q1107.7 368.7 1109.5 369.6Q1111.2 370.4 1113.4 370.5L1113.4 370.5Q1117.0 370.5 1119.2 368.6Q1121.3 366.7 1121.3 363.6L1121.3 363.6L1121.3 358.7L1121.1 358.7Q1119.9 361.2 1117.3 362.7Q1114.7 364.3 1111.4 364.3L1111.4 364.3Q1105.6 364.3 1102.1 360.0Q1098.6 355.8 1098.6 348.7L1098.6 348.7Q1098.6 341.4 1102.1 337.2Q1105.6 333.0 1111.6 333.0L1111.6 333.0Q1114.8 333.0 1117.3 334.5Q1119.8 336.1 1121.2 338.8L1121.2 338.8L1121.3 338.8L1121.3 336.6Q1121.3 334.9 1122.3 333.9Q1123.4 332.9 1125.0 332.9Q1126.6 332.9 1127.6 333.9Q1128.6 334.9 1128.6 336.6L1128.6 336.6L1128.6 363.6Q1128.6 369.5 1124.5 372.9Q1120.5 376.3 1113.3 376.3ZM1113.6 358.6L1113.6 358.6Q1117.2 358.6 1119.3 355.9Q1121.3 353.3 1121.3 348.7L1121.3 348.7Q1121.3 344.2 1119.2 341.5Q1117.1 338.8 1113.6 338.8L1113.6 338.8Q1110.2 338.8 1108.1 341.5Q1106.1 344.2 1106.1 348.7L1106.1 348.7Q1106.1 353.3 1108.1 356.0Q1110.2 358.6 1113.6 358.6Z "/><defs><clipPath id="satori_bc-id-0-1"><rect x="0" y="441" width="1200" height="189"/></clipPath></defs><mask id="satori_om-id-0-1"><rect x="0" y="442" width="1200" height="188" fill="#fff"/><path width="1200" height="189" fill="none" stroke="#000" stroke-width="2" d="M0,441 A0,0 0 0 1 0,441 h1200 A0,0 0 0 1 1200,441"/></mask><path width="1200" height="189" clip-path="url(#satori_bc-id-0-1)" fill="none" stroke="#dbdbdb" stroke-width="2" d="M0,441 A0,0 0 0 1 0,441 h1200 A0,0 0 0 1 1200,441"/><mask id="satori_om-id-0-1-0"><rect x="40" y="482" width="389" height="108" fill="#fff"/></mask><clipPath id="satori_cp-id-0-1-0-0"><rect x="40" y="504" width="64" height="64"/></clipPath><mask id="satori_om-id-0-1-0-0"><rect x="40" y="504" width="64" height="64" fill="#fff"/></mask><image x="40" y="504" width="64" height="64" href="data:image/svg+xml;utf8,%3Csvg  xmlns=%22http://www.w3.org/2000/svg%22 width=%2264%22 height=%2264%22 viewBox=%220 0 128 128%22%3E%3Cpath fill=%22%23224d67%22 d=%22M22.5 14.8c2.9 1.3 99 44 99 44c2.7 1.2 2.9 3.1 2 12.4c-1 10.5-1.9 37.8-40.2 42.9c-24.6 3.2-55.9-4.3-70.9-27.2C-6 58.8 11 23.4 14.8 17.7c2.4-3.5 4.8-4.2 7.7-2.9%22%3E%3C/path%3E%3Cpath fill=%22%23f0f4c3%22 d=%22M121.5 58.8c-.3-.2-92-40.8-98.9-43.9C9.6 31.5-3.8 76 27.9 96.2c33.6 21.5 78.7-10.2 93.6-37.4%22%3E%3C/path%3E%3Cpath fill=%22%23f0f4c3%22 d=%22M117.7 57c-.3-.2-86.7-38.4-93.2-41.3c-12.2 15.5-23.9 59.1 5.7 78c31.4 20.2 73.6-11.2 87.5-36.7%22%3E%3C/path%3E%3Cpath fill=%22%23cb2a42%22 d=%22M56.2 37.6L19.5 48.2c-2.5.8-4.4 2.8-5 5.3c-1.9 8.5.8 23.3 8.9 29.8c3.5 2.7 8.6 1.8 10.8-2.1L58.5 41c1.3-1.7.5-4.2-2.3-3.4m14.3 2.9s14.6 30.1 16 33s6.3 4.7 9.9 2.8c10.7-5.6 15.5-12.4 19.2-20.2c-8.9-3.9-42.4-18.8-42.4-18.8c-2.4-1.1-4 .6-2.7 3.2m-8.6 1.9C60.3 45.1 39.5 81 37.6 84.1c-1.9 3.2-.7 7.5 2.7 9.2c12.3 6.5 30.9.4 39.6-7c2.2-1.9 4.5-5.1 3.2-8.2S68.9 44.6 67.8 42.3c-1.2-2.7-4.1-2.8-5.9.1%22%3E%3C/path%3E%3Cpath fill=%22%23f0f4c3%22 d=%22M52.2 42.2c-1.4.4-10.1 3-11.1 3.4c-1.4.5-2.2 1.7-1.9 2.5c.3.9 1.7 1.1 3.1.6c.8-.3 7.1-3.9 9.5-5.2c-3.1 2.4-10.2 9.4-11.1 10.3c-1.4 1.5-1.7 3.4-.8 4.3c1 .9 2.9.5 4.3-1c1.2-1.3 8.5-12.8 9.1-13.9s.4-1.4-1.1-1m10.1 16.4c0-2.2 1.4-10.3 1.8-12.3c.4-1.6 1.5-1.8 1.8.5s1.7 9.7 1.7 11.8s-1.2 3.3-2.7 3.3c-1.4 0-2.6-1.1-2.6-3.3M79.9 49c-1.2-1.8-3.3-4.9-4.1-6.1c-.7-1.2.1-2.1 1.8-.9s4 2.9 5.4 4c1.6 1.3 1.9 3 .8 4s-2.7.8-3.9-1%22%3E%3C/path%3E%3Cellipse cx=%2287.3%22 cy=%22103.12%22 fill=%22%23cb2a42%22 rx=%223.4%22 ry=%222.3%22 transform=%22rotate(-27.098 87.298 103.126)%22%3E%3C/ellipse%3E%3Cellipse cx=%2298.89%22 cy=%22103.82%22 fill=%22%23cb2a42%22 rx=%223.4%22 ry=%222.3%22 transform=%22rotate(-30.642 98.887 103.818)%22%3E%3C/ellipse%3E%3Cellipse cx=%22102.02%22 cy=%2293.8%22 fill=%22%23cb2a42%22 rx=%223.4%22 ry=%222.3%22 transform=%22rotate(-37.16 102.017 93.797)%22%3E%3C/ellipse%3E%3Cpath fill=%22%23cb2a42%22 d=%22M57.6 30.3c-8.3-3.7-24.4-10.7-29.6-13c-3.6 2.2-9.7 11.4-11.2 21.2c-.6 3.6 1.7 5.9 5.3 4.9c0 0 33.7-9.3 35.3-9.7c1.6-.5 2-2.6.2-3.4%22%3E%3C/path%3E%3C/svg%3E" preserveAspectRatio="none" clip-path="url(#satori_cp-id-0-1-0-0)" mask="url(#satori_om-id-0-1-0-0)"/><mask id="satori_om-id-0-1-0-0-0"><rect x="40" y="504" width="0" height="64" fill="#fff"/></mask><mask id="satori_om-id-0-1-0-0-1"><rect x="40" y="504" width="0" height="64" fill="#fff"/></mask><mask id="satori_om-id-0-1-0-0-2"><rect x="40" y="504" width="0" height="64" fill="#fff"/></mask><mask id="satori_om-id-0-1-0-0-3"><rect x="40" y="504" width="0" height="64" fill="#fff"/></mask><mask id="satori_om-id-0-1-0-0-4"><rect x="40" y="504" width="0" height="64" fill="#fff"/></mask><mask id="satori_om-id-0-1-0-0-5"><rect x="40" y="504" width="0" height="64" fill="#fff"/></mask><mask id="satori_om-id-0-1-0-0-6"><rect x="40" y="504" width="0" height="64" fill="#fff"/></mask><mask id="satori_om-id-0-1-0-0-7"><rect x="40" y="504" width="0" height="64" fill="#fff"/></mask><mask id="satori_om-id-0-1-0-0-8"><rect x="40" y="504" width="0" height="64" fill="#fff"/></mask><mask id="satori_om-id-0-1-0-1"><rect x="116" y="512" width="313" height="48" fill="#fff"/></mask><path fill="#545454" d="M133.0 553.6L133.0 553.6Q126.5 553.6 122.7 550.2Q118.8 546.7 118.8 541.1L118.8 541.1L118.8 522.5Q118.8 520.7 119.8 519.7Q120.7 518.8 122.4 518.8Q124.0 518.8 125.0 519.7Q125.9 520.7 125.9 522.5L125.9 522.5L125.9 540.4Q125.9 543.7 127.8 545.6Q129.6 547.6 133.0 547.6L133.0 547.6Q136.3 547.6 138.2 545.6Q140.1 543.7 140.1 540.4L140.1 540.4L140.1 522.5Q140.1 520.7 141.0 519.7Q141.9 518.8 143.6 518.8Q145.3 518.8 146.2 519.7Q147.1 520.7 147.1 522.5L147.1 522.5L147.1 541.1Q147.1 546.7 143.3 550.2Q139.4 553.6 133.0 553.6ZM158.9 552.6Q158.0 553.6 156.3 553.6Q154.6 553.6 153.7 552.6Q152.8 551.6 152.8 549.9L152.8 549.9L152.8 522.9Q152.8 521.2 153.7 520.2Q154.6 519.2 156.3 519.2L156.3 519.2L166.6 519.2Q172.4 519.2 175.6 522.1Q178.9 525.0 178.9 530.0L178.9 530.0Q178.9 533.2 177.3 535.8Q175.8 538.3 173.0 539.4L173.0 539.4L177.9 547.9Q178.7 549.2 178.7 550.3L178.7 550.3Q178.7 551.7 177.7 552.6Q176.7 553.6 175.1 553.6L175.1 553.6Q173.8 553.6 173.1 553.0Q172.4 552.5 171.5 550.9L171.5 550.9L165.9 540.7L159.9 540.7L159.9 549.9Q159.9 551.6 158.9 552.6ZM159.9 524.8L159.9 535.6L165.9 535.6Q168.6 535.6 170.1 534.1Q171.6 532.7 171.6 530.2L171.6 530.2Q171.6 527.7 170.0 526.2Q168.5 524.8 165.9 524.8L165.9 524.8L159.9 524.8ZM196.2 542.3L186.4 542.3Q185.0 542.3 184.1 541.5Q183.2 540.7 183.2 539.3Q183.2 537.9 184.1 537.1Q185.0 536.3 186.4 536.3L186.4 536.3L196.2 536.3Q197.6 536.3 198.5 537.1Q199.4 537.9 199.4 539.3Q199.4 540.7 198.5 541.5Q197.6 542.3 196.2 542.3L196.2 542.3ZM210.9 552.6Q209.9 553.6 208.3 553.6Q206.6 553.6 205.6 552.6Q204.7 551.6 204.7 549.9L204.7 549.9L204.7 522.9Q204.7 521.2 205.6 520.2Q206.6 519.2 208.3 519.2L208.3 519.2L218.6 519.2Q224.4 519.2 227.6 522.1Q230.8 525.0 230.8 530.0L230.8 530.0Q230.8 533.2 229.3 535.8Q227.8 538.3 225.0 539.4L225.0 539.4L229.9 547.9Q230.6 549.2 230.6 550.3L230.6 550.3Q230.6 551.7 229.6 552.6Q228.6 553.6 227.0 553.6L227.0 553.6Q225.8 553.6 225.0 553.0Q224.3 552.5 223.4 550.9L223.4 550.9L217.8 540.7L211.8 540.7L211.8 549.9Q211.8 551.6 210.9 552.6ZM211.8 524.8L211.8 535.6L217.9 535.6Q220.6 535.6 222.0 534.1Q223.5 532.7 223.5 530.2L223.5 530.2Q223.5 527.7 222.0 526.2Q220.4 524.8 217.8 524.8L217.8 524.8L211.8 524.8ZM237.7 553.5L237.7 553.5Q236.0 553.5 235.1 552.6Q234.1 551.7 234.1 550.2L234.1 550.2Q234.1 549.3 234.6 547.9L234.6 547.9L243.8 522.8Q244.6 520.7 245.8 519.7Q247.1 518.8 249.1 518.8L249.1 518.8Q251.2 518.8 252.5 519.7Q253.8 520.7 254.5 522.8L254.5 522.8L263.8 547.9Q264.3 549.2 264.3 550.2L264.3 550.2Q264.3 551.6 263.3 552.6Q262.3 553.5 260.7 553.5L260.7 553.5Q259.2 553.5 258.4 552.8Q257.5 552.1 257.0 550.4L257.0 550.4L255.3 545.0L243.1 545.0L241.3 550.3Q240.8 552.0 239.9 552.8Q239.1 553.5 237.7 553.5ZM249.0 525.7L244.6 539.6L253.6 539.6L249.1 525.7L249.0 525.7ZM281.5 553.1L272.1 553.1Q270.4 553.1 269.5 552.1Q268.6 551.1 268.6 549.4L268.6 549.4L268.6 522.9Q268.6 521.2 269.5 520.2Q270.4 519.2 272.1 519.2L272.1 519.2L281.5 519.2Q289.1 519.2 293.4 523.6Q297.6 528.0 297.6 536.0L297.6 536.0Q297.6 544.1 293.3 548.6Q289.1 553.1 281.5 553.1L281.5 553.1ZM275.6 525.1L275.6 547.2L280.6 547.2Q285.4 547.2 287.9 544.4Q290.4 541.5 290.4 536.0L290.4 536.0Q290.4 530.8 287.8 527.9Q285.3 525.1 280.6 525.1L280.6 525.1L275.6 525.1Z M333.2 553.1L314.5 553.1Q312.9 553.1 312.0 552.2Q311.2 551.4 311.2 550.0L311.2 550.0Q311.2 549.1 311.6 548.3Q312.0 547.5 313.1 546.5L313.1 546.5L323.2 536.9Q326.3 533.8 327.4 532.2Q328.4 530.6 328.4 528.8L328.4 528.8Q328.4 526.7 327.0 525.3Q325.5 524 323.3 524L323.3 524Q319.3 524 317.4 528.1L317.4 528.1Q316.8 529.2 316.1 529.7Q315.4 530.1 314.3 530.1L314.3 530.1Q312.9 530.1 312.1 529.4Q311.3 528.6 311.3 527.3L311.3 527.3Q311.3 526.5 311.5 525.7L311.5 525.7Q312.5 522.7 315.6 520.6Q318.8 518.5 323.3 518.5L323.3 518.5Q328.7 518.5 332.0 521.2Q335.3 524.0 335.3 528.3L335.3 528.3Q335.3 529.9 335.0 531.2Q334.6 532.5 333.6 533.9Q332.6 535.3 331.3 536.8Q330.0 538.2 327.8 540.3L327.8 540.3L320.5 547.3L320.5 547.4L333.2 547.4Q334.6 547.4 335.4 548.2Q336.1 549.0 336.1 550.3L336.1 550.3Q336.1 551.5 335.4 552.3Q334.6 553.1 333.2 553.1L333.2 553.1ZM363.6 549.0Q359.9 553.8 353.5 553.8Q347.1 553.8 343.4 549.1Q339.7 544.3 339.7 536.1L339.7 536.1Q339.7 527.9 343.4 523.2Q347.1 518.5 353.5 518.5Q359.9 518.5 363.6 523.2Q367.3 527.9 367.3 536.1L367.3 536.1Q367.3 544.3 363.6 549.0ZM348.6 545.0Q350.4 548.1 353.5 548.1Q356.7 548.1 358.4 545.0Q360.1 541.9 360.1 536.1L360.1 536.1Q360.1 530.4 358.4 527.2Q356.7 524.1 353.5 524.1L353.5 524.1Q350.4 524.1 348.7 527.3Q346.9 530.4 346.9 536.1L346.9 536.1Q346.9 541.9 348.6 545.0ZM393.6 553.1L374.9 553.1Q373.3 553.1 372.4 552.2Q371.6 551.4 371.6 550.0L371.6 550.0Q371.6 549.1 372.0 548.3Q372.5 547.5 373.5 546.5L373.5 546.5L383.6 536.9Q386.8 533.8 387.8 532.2Q388.9 530.6 388.9 528.8L388.9 528.8Q388.9 526.7 387.4 525.3Q386.0 524 383.7 524L383.7 524Q379.7 524 377.9 528.1L377.9 528.1Q377.3 529.2 376.5 529.7Q375.8 530.1 374.7 530.1L374.7 530.1Q373.3 530.1 372.5 529.4Q371.7 528.6 371.7 527.3L371.7 527.3Q371.7 526.5 372.0 525.7L372.0 525.7Q372.9 522.7 376.0 520.6Q379.2 518.5 383.8 518.5L383.8 518.5Q389.1 518.5 392.4 521.2Q395.8 524.0 395.8 528.3L395.8 528.3Q395.8 529.9 395.4 531.2Q395 532.5 394.0 533.9Q393.1 535.3 391.7 536.8Q390.4 538.2 388.2 540.3L388.2 540.3L380.9 547.3L380.9 547.4L393.6 547.4Q395 547.4 395.8 548.2Q396.6 549.0 396.6 550.3L396.6 550.3Q396.6 551.5 395.8 552.3Q395 553.1 393.6 553.1L393.6 553.1ZM413.6 553.8L413.6 553.8Q409.6 553.8 406.3 552.1Q403.1 550.4 401.8 547.7L401.8 547.7Q401.3 546.5 401.3 545.4L401.3 545.4Q401.3 544.0 402.0 543.3Q402.8 542.5 404.2 542.5L404.2 542.5Q405.3 542.5 406.0 542.9Q406.7 543.3 407.3 544.3L407.3 544.3Q409.3 548.2 413.6 548.2L413.6 548.2Q416.3 548.2 418.1 546.4Q419.9 544.6 419.9 541.9L419.9 541.9Q419.9 539.2 418.1 537.5Q416.4 535.8 413.6 535.8L413.6 535.8Q410.8 535.8 408.7 537.8L408.7 537.8Q407.6 538.8 406.9 539.1Q406.2 539.4 405.0 539.4L405.0 539.4Q403.4 539.4 402.5 538.4Q401.6 537.4 401.7 535.9L401.7 535.9Q401.7 535.8 401.7 535.6L401.7 535.6L402.7 523.3Q402.9 521.1 404.0 520.2Q405.1 519.2 407.2 519.2L407.2 519.2L422 519.2Q423.3 519.2 424.1 520.0Q424.9 520.8 424.9 522.1Q424.9 523.3 424.1 524.1Q423.3 524.9 422 524.9L422 524.9L408.6 524.9L407.8 534.3L408.0 534.3Q409.0 532.6 411.0 531.7Q413.0 530.7 415.6 530.7L415.6 530.7Q420.4 530.7 423.5 533.8Q426.6 536.9 426.6 541.7L426.6 541.7Q426.6 547.1 423.0 550.5Q419.4 553.8 413.6 553.8Z "/><mask id="satori_om-id-0-1-1"><rect x="1013" y="524" width="147" height="36" fill="#fff"/></mask><path fill="#8e8e8e" d="M1016.9 552.6Q1016.5 552.9 1016.0 552.9Q1015.4 552.9 1015.1 552.6Q1014.8 552.2 1014.8 551.7L1014.8 551.7L1014.8 532.6Q1014.8 532.0 1015.1 531.6Q1015.5 531.3 1016.1 531.3Q1016.6 531.3 1017.0 531.6Q1017.3 532.0 1017.3 532.6L1017.3 532.6L1017.3 540.0L1017.4 540.0Q1018.1 538.7 1019.4 537.9Q1020.7 537.2 1022.3 537.2L1022.3 537.2Q1025.2 537.2 1026.9 539.3Q1028.7 541.5 1028.7 545.0L1028.7 545.0Q1028.7 548.6 1026.9 550.8Q1025.2 552.9 1022.2 552.9L1022.2 552.9Q1020.6 552.9 1019.3 552.2Q1018.0 551.4 1017.3 550.1L1017.3 550.1L1017.2 550.1L1017.2 551.7Q1017.2 552.2 1016.9 552.6ZM1021.7 550.7L1021.7 550.7Q1023.8 550.7 1024.9 549.2Q1026.1 547.7 1026.1 545.0L1026.1 545.0Q1026.1 542.5 1024.9 540.9Q1023.8 539.4 1021.7 539.4L1021.7 539.4Q1019.8 539.4 1018.6 541.0Q1017.3 542.5 1017.3 545.0L1017.3 545.0Q1017.3 547.6 1018.6 549.1Q1019.8 550.7 1021.7 550.7ZM1032.8 558.4L1032.8 558.4Q1031.9 558.4 1031.4 558.0Q1030.9 557.7 1030.9 557.1L1030.9 557.1Q1030.9 556.7 1031.1 556.4Q1031.4 556.2 1031.9 556.2L1031.9 556.2Q1032.1 556.2 1032.3 556.2Q1032.5 556.2 1032.7 556.2L1032.7 556.2Q1034.4 556.2 1035.2 553.7L1035.2 553.7L1035.6 552.7L1030.3 539.0Q1030.2 538.6 1030.2 538.3L1030.2 538.3Q1030.2 537.8 1030.6 537.5Q1030.9 537.2 1031.5 537.2L1031.5 537.2Q1032.4 537.2 1032.7 538.1L1032.7 538.1L1036.9 550.1L1037.0 550.1L1041.2 538.1Q1041.3 537.6 1041.6 537.4Q1041.9 537.2 1042.4 537.2L1042.4 537.2Q1042.9 537.2 1043.3 537.5Q1043.6 537.8 1043.6 538.3L1043.6 538.3Q1043.6 538.6 1043.5 539.0L1043.5 539.0L1037.9 553.7Q1036.9 556.4 1035.8 557.4Q1034.7 558.4 1032.8 558.4Z M1066.9 550.9Q1064.7 553.0 1060.8 553.0Q1056.9 553.0 1054.7 550.9Q1052.4 548.7 1052.4 545.3L1052.4 545.3L1052.4 532.7Q1052.4 532.1 1052.8 531.7Q1053.1 531.3 1053.7 531.3Q1054.3 531.3 1054.7 531.7Q1055.0 532.1 1055.0 532.7L1055.0 532.7L1055.0 545.1Q1055.0 547.5 1056.6 549.1Q1058.1 550.6 1060.8 550.6Q1063.5 550.6 1065.0 549.1Q1066.6 547.5 1066.6 545.1L1066.6 545.1L1066.6 532.7Q1066.6 532.1 1066.9 531.7Q1067.3 531.3 1067.9 531.3Q1068.5 531.3 1068.8 531.7Q1069.2 532.1 1069.2 532.7L1069.2 532.7L1069.2 545.3Q1069.2 548.7 1066.9 550.9ZM1075.6 552.6Q1075.2 552.9 1074.6 552.9Q1074.0 552.9 1073.7 552.6Q1073.3 552.2 1073.3 551.6L1073.3 551.6L1073.3 532.9Q1073.3 532.3 1073.7 531.9Q1074.0 531.5 1074.6 531.5L1074.6 531.5L1081.2 531.5Q1084.3 531.5 1086.1 533.2Q1088.0 535.0 1088.0 537.8L1088.0 537.8Q1088.0 540.0 1086.8 541.6Q1085.7 543.3 1083.7 543.9L1083.7 543.9L1087.6 550.8Q1087.9 551.3 1087.9 551.7L1087.9 551.7Q1087.9 552.2 1087.5 552.6Q1087.1 552.9 1086.5 552.9L1086.5 552.9Q1086.1 552.9 1085.8 552.7Q1085.5 552.5 1085.2 552.1L1085.2 552.1L1081.0 544.3L1075.9 544.3L1075.9 551.6Q1075.9 552.2 1075.6 552.6ZM1075.9 533.9L1075.9 542.0L1081.0 542.0Q1083.0 542.0 1084.1 540.9Q1085.2 539.9 1085.2 537.9L1085.2 537.9Q1085.2 536.0 1084.1 534.9Q1082.9 533.9 1080.9 533.9L1080.9 533.9L1075.9 533.9ZM1099.4 545.3L1091.9 545.3Q1091.3 545.3 1091.0 545.0Q1090.6 544.6 1090.6 544.1Q1090.6 543.6 1091.0 543.2Q1091.3 542.9 1091.9 542.9L1091.9 542.9L1099.4 542.9Q1100.0 542.9 1100.3 543.2Q1100.7 543.6 1100.7 544.1Q1100.7 544.6 1100.3 545.0Q1100.0 545.3 1099.4 545.3L1099.4 545.3ZM1106.4 552.6Q1106.0 552.9 1105.4 552.9Q1104.8 552.9 1104.5 552.6Q1104.1 552.2 1104.1 551.6L1104.1 551.6L1104.1 532.9Q1104.1 532.3 1104.5 531.9Q1104.8 531.5 1105.4 531.5L1105.4 531.5L1112.1 531.5Q1115.1 531.5 1117.0 533.2Q1118.8 535.0 1118.8 537.8L1118.8 537.8Q1118.8 540.0 1117.7 541.6Q1116.5 543.3 1114.5 543.9L1114.5 543.9L1118.4 550.8Q1118.7 551.3 1118.7 551.7L1118.7 551.7Q1118.7 552.2 1118.3 552.6Q1117.9 552.9 1117.3 552.9L1117.3 552.9Q1116.9 552.9 1116.6 552.7Q1116.3 552.5 1116.1 552.1L1116.1 552.1L1111.8 544.3L1106.8 544.3L1106.8 551.6Q1106.8 552.2 1106.4 552.6ZM1106.8 533.9L1106.8 542.0L1111.8 542.0Q1113.9 542.0 1115.0 540.9Q1116.1 539.9 1116.1 537.9L1116.1 537.9Q1116.1 536.0 1114.9 534.9Q1113.8 533.9 1111.7 533.9L1111.7 533.9L1106.8 533.9ZM1122.2 552.9L1122.2 552.9Q1121.6 552.9 1121.2 552.5Q1120.9 552.2 1120.9 551.7L1120.9 551.7Q1120.9 551.4 1121.0 551.0L1121.0 551.0L1127.8 532.6Q1128.3 531.3 1129.5 531.3L1129.5 531.3Q1130.7 531.3 1131.2 532.6L1131.2 532.6L1138.0 551.0Q1138.2 551.4 1138.2 551.7L1138.2 551.7Q1138.2 552.2 1137.8 552.5Q1137.4 552.9 1136.9 552.9L1136.9 552.9Q1135.9 552.9 1135.6 551.9L1135.6 551.9L1133.7 546.6L1125.3 546.6L1123.5 551.9Q1123.1 552.9 1122.2 552.9ZM1129.5 534.7L1126.1 544.4L1132.9 544.4L1129.6 534.7L1129.5 534.7ZM1148.1 552.7L1142.3 552.7Q1141.7 552.7 1141.4 552.3Q1141.0 551.9 1141.0 551.3L1141.0 551.3L1141.0 532.9Q1141.0 532.3 1141.4 531.9Q1141.7 531.5 1142.3 531.5L1142.3 531.5L1148.1 531.5Q1152.8 531.5 1155.5 534.3Q1158.1 537.1 1158.1 542.1L1158.1 542.1Q1158.1 547.1 1155.5 549.9Q1152.8 552.7 1148.1 552.7L1148.1 552.7ZM1143.7 533.9L1143.7 550.3L1148.0 550.3Q1151.5 550.3 1153.5 548.2Q1155.4 546.1 1155.4 542.1L1155.4 542.1Q1155.4 538.1 1153.5 536.0Q1151.6 533.9 1148.0 533.9L1148.0 533.9L1143.7 533.9Z "/></svg>