<svg width="1200" height="630" viewBox="0 0 1200 630" xmlns="http://www.w3.org/2000/svg"><mask id="satori_om-id"><rect x="0" y="0" width="1200" height="630" fill="#fff"/></mask><mask id="satori_om-id-0"><rect x="0" y="0" width="1200" height="630" fill="#fff"/></mask><rect x="0" y="0" width="1200" height="630" fill="#f2f2f2"/><mask id="satori_om-id-0-0"><rect x="0" y="0" width="1200" height="441" fill="#fff"/></mask><mask id="satori_om-id-0-0-0"><rect x="40" y="56" width="1120" height="35" fill="#fff"/></mask><path fill="#8e8e8e" d="M44.8 84.4Q44.4 84.9 43.6 84.9Q42.8 84.9 42.4 84.4Q41.9 84.0 41.9 83.2L41.9 83.2L41.9 65.2Q41.9 64.4 42.4 64.0Q42.8 63.5 43.6 63.5L43.6 63.5L53.8 63.5Q54.5 63.5 55.0 63.9Q55.4 64.3 55.4 64.9Q55.4 65.6 55.0 66.0Q54.5 66.4 53.8 66.4L53.8 66.4L45.2 66.4L45.2 73.0L53.1 73.0Q53.7 73.0 54.1 73.4Q54.5 73.8 54.5 74.4Q54.5 75.1 54.1 75.4Q53.7 75.8 53.1 75.8L53.1 75.8L45.2 75.8L45.2 83.2Q45.2 84.0 44.8 84.4ZM59.2 84.9L59.2 84.9Q58.5 84.9 58.1 84.5Q57.6 84.0 57.6 83.3L57.6 83.3L57.6 70.6Q57.6 69.9 58.0 69.4Q58.5 69.0 59.1 69.0L59.1 69.0Q59.8 69.0 60.2 69.4Q60.6 69.9 60.6 70.6L60.6 70.6L60.6 71.9L60.7 71.9Q61.0 70.6 62.0 69.8Q62.9 69.0 64.1 69.0L64.1 69.0Q64.9 69.0 65.3 69.4L65.3 69.4Q65.8 69.7 65.8 70.5L65.8 70.5Q65.8 71.2 65.3 71.6L65.3 71.6Q64.8 72.0 63.8 72.0L63.8 72.0Q62.3 72.0 61.5 73.0Q60.8 73.9 60.8 75.4L60.8 75.4L60.8 83.3Q60.8 84.0 60.3 84.5Q59.9 84.9 59.2 84.9ZM70.5 66.4Q69.9 66.9 69.2 66.9Q68.4 66.9 67.9 66.4Q67.3 65.9 67.3 65.1L67.3 65.1Q67.3 64.3 67.9 63.8Q68.4 63.3 69.2 63.3L69.2 63.3Q69.9 63.3 70.5 63.8Q71.0 64.3 71.0 65.1L71.0 65.1Q71.0 65.9 70.5 66.4ZM70.3 84.5Q69.9 84.9 69.2 84.9Q68.4 84.9 68.0 84.5Q67.6 84.0 67.6 83.3L67.6 83.3L67.6 70.7Q67.6 69.9 68.0 69.4Q68.4 69.0 69.2 69.0Q69.9 69.0 70.3 69.4Q70.7 69.9 70.7 70.7L70.7 70.7L70.7 83.3Q70.7 84.0 70.3 84.5ZM79.8 84.9L79.8 84.9Q76.8 84.9 75.1 82.8Q73.3 80.6 73.3 77.0Q73.3 73.3 75.0 71.2Q76.8 69.0 79.7 69.0L79.7 69.0Q81.4 69.0 82.6 69.8Q83.9 70.5 84.6 71.8L84.6 71.8L84.6 71.8L84.6 64.9Q84.6 64.1 85.1 63.7Q85.5 63.2 86.2 63.2L86.2 63.2Q86.9 63.2 87.4 63.7Q87.8 64.2 87.8 64.9L87.8 64.9L87.8 83.4Q87.8 84.1 87.4 84.5Q86.9 84.9 86.2 84.9L86.2 84.9Q85.5 84.9 85.1 84.5Q84.6 84.1 84.6 83.4L84.6 83.4L84.6 81.9L84.6 81.9Q84.0 83.3 82.7 84.1Q81.5 84.9 79.8 84.9ZM80.6 82.2L80.6 82.2Q82.4 82.2 83.5 80.8Q84.6 79.4 84.6 77.0L84.6 77.0Q84.6 74.6 83.5 73.1Q82.4 71.7 80.6 71.7L80.6 71.7Q78.7 71.7 77.6 73.1Q76.5 74.5 76.5 77.0L76.5 77.0Q76.5 79.4 77.6 80.8Q78.7 82.2 80.6 82.2ZM95.5 84.9L95.5 84.9Q93.3 84.9 91.8 83.6Q90.4 82.3 90.4 80.3L90.4 80.3Q90.4 78.3 91.9 77.1Q93.4 75.9 96.1 75.7L96.1 75.7L100.4 75.5L100.4 74.3Q100.4 73.0 99.5 72.3Q98.7 71.6 97.3 71.6L97.3 71.6Q96.1 71.6 95.3 72.0Q94.5 72.5 93.9 73.5L93.9 73.5Q93.4 74.2 92.6 74.2L92.6 74.2Q92.0 74.2 91.6 73.8Q91.2 73.4 91.2 72.9L91.2 72.9Q91.2 72.3 91.5 71.8L91.5 71.8Q92.1 70.5 93.7 69.8Q95.3 69.0 97.4 69.0L97.4 69.0Q100.2 69.0 101.9 70.4Q103.5 71.7 103.5 74.0L103.5 74.0L103.5 83.3Q103.5 84.1 103.1 84.5Q102.7 84.9 102.0 84.9L102.0 84.9Q101.3 84.9 100.9 84.5Q100.5 84.1 100.5 83.4L100.5 83.4L100.5 82.1L100.4 82.1Q99.8 83.4 98.4 84.2Q97.1 84.9 95.5 84.9ZM96.4 82.4L96.4 82.4Q98.1 82.4 99.2 81.4Q100.4 80.4 100.4 78.9L100.4 78.9L100.4 77.7L96.6 77.9Q95.1 78.0 94.4 78.6Q93.6 79.2 93.6 80.2L93.6 80.2Q93.6 81.2 94.4 81.8Q95.2 82.4 96.4 82.4ZM108.5 90.4L108.5 90.4Q107.4 90.4 106.8 90.0Q106.2 89.6 106.2 88.9L106.2 88.9Q106.2 88.4 106.5 88.1Q106.9 87.8 107.4 87.8L107.4 87.8Q107.6 87.8 107.8 87.8Q108.1 87.8 108.3 87.8L108.3 87.8Q109.9 87.8 110.6 85.7L110.6 85.7L110.9 84.8L105.7 71.3Q105.6 70.9 105.6 70.4L105.6 70.4Q105.6 69.8 106.0 69.4Q106.5 69.0 107.2 69.0L107.2 69.0Q107.8 69.0 108.1 69.3Q108.5 69.5 108.7 70.2L108.7 70.2L112.6 81.8L112.7 81.8L116.6 70.2Q116.8 69.5 117.2 69.3Q117.5 69.0 118.1 69.0L118.1 69.0Q118.8 69.0 119.2 69.4Q119.7 69.8 119.7 70.4L119.7 70.4Q119.7 70.8 119.5 71.3L119.5 71.3L114.2 85.4Q113.1 88.2 111.9 89.3Q110.6 90.4 108.5 90.4ZM124.1 81.1L124.1 81.1Q124.8 81.1 125.2 81.5Q125.6 81.8 125.6 82.4L125.6 82.4Q125.6 82.8 125.5 83.3L125.5 83.3L124.2 88.3Q123.9 89.4 122.9 89.4L122.9 89.4Q122.3 89.4 122.0 89.1Q121.6 88.7 121.6 88.2L121.6 88.2Q121.6 88.1 121.7 87.8L121.7 87.8L122.6 82.4Q122.8 81.1 124.1 81.1Z M143.4 85.1L143.4 85.1Q139.9 85.1 137.7 83.3Q135.4 81.6 135.4 79.0L135.4 79.0Q135.4 76.9 136.7 75.5Q138.0 74.0 140.1 73.5L140.1 73.5L140.1 73.5Q138.3 72.9 137.3 71.7Q136.2 70.4 136.2 68.7L136.2 68.7Q136.2 66.3 138.2 64.7Q140.3 63.1 143.4 63.1L143.4 63.1Q146.6 63.1 148.6 64.7Q150.6 66.3 150.6 68.8L150.6 68.8Q150.6 70.4 149.6 71.7Q148.5 72.9 146.7 73.5L146.7 73.5L146.7 73.5Q148.9 74 150.1 75.5Q151.4 77.0 151.4 79.0L151.4 79.0Q151.4 80.7 150.4 82.1Q149.4 83.5 147.6 84.3Q145.7 85.1 143.4 85.1ZM143.4 72.4L143.4 72.4Q145.2 72.4 146.3 71.4Q147.4 70.5 147.4 69.0L147.4 69.0Q147.4 67.6 146.3 66.7Q145.2 65.7 143.4 65.7L143.4 65.7Q141.7 65.7 140.6 66.7Q139.5 67.6 139.5 69.0L139.5 69.0Q139.5 70.5 140.6 71.4Q141.7 72.4 143.4 72.4ZM140.1 81.4Q141.4 82.4 143.4 82.4Q145.5 82.4 146.7 81.4Q148.0 80.3 148.0 78.7L148.0 78.7Q148.0 77.1 146.7 76.0Q145.5 75.0 143.4 75.0Q141.4 75.0 140.1 76.0Q138.8 77.1 138.8 78.7L138.8 78.7Q138.8 80.3 140.1 81.4Z M163.5 84.5Q163.1 84.9 162.3 84.9Q161.6 84.9 161.2 84.5Q160.7 84.0 160.7 83.2L160.7 83.2L160.7 65.1Q160.7 64.2 161.2 63.8Q161.7 63.3 162.5 63.3L162.5 63.3Q163.1 63.3 163.5 63.5Q163.9 63.7 164.3 64.3L164.3 64.3L174.7 79.1L174.8 79.1L174.8 65.0Q174.8 64.2 175.2 63.7Q175.6 63.3 176.4 63.3L176.4 63.3Q177.1 63.3 177.5 63.7Q178.0 64.2 178.0 65.0L178.0 65.0L178.0 83.2Q178.0 84.0 177.5 84.5Q177.1 84.9 176.2 84.9L176.2 84.9Q175.6 84.9 175.3 84.7Q174.9 84.5 174.5 83.9L174.5 83.9L164.1 69.1L163.9 69.1L163.9 83.2Q163.9 84.0 163.5 84.5ZM193.4 82.8Q191.4 85.0 188.1 85.0Q184.8 85.0 182.8 82.8Q180.8 80.7 180.8 77.0L180.8 77.0Q180.8 73.3 182.8 71.1Q184.8 69.0 188.1 69.0Q191.4 69.0 193.4 71.1Q195.4 73.3 195.4 77.0L195.4 77.0Q195.4 80.7 193.4 82.8ZM188.1 82.3L188.1 82.3Q190 82.3 191.1 80.9Q192.2 79.5 192.2 77.0L192.2 77.0Q192.2 74.4 191.1 73.0Q190.0 71.6 188.1 71.6Q186.2 71.6 185.1 73.0Q184.0 74.4 184.0 77.0L184.0 77.0Q184.0 79.5 185.1 80.9Q186.2 82.3 188.1 82.3ZM203.8 84.9L203.8 84.9Q203.0 84.9 202.5 84.6Q202.0 84.2 201.6 83.3L201.6 83.3L197.0 71.3Q196.9 70.8 196.9 70.4L196.9 70.4Q196.9 69.8 197.3 69.4Q197.8 69.0 198.5 69.0L198.5 69.0Q199.6 69.0 200.0 70.2L200.0 70.2L203.8 81.6L203.8 81.6L207.7 70.2Q208.1 69.0 209.1 69.0L209.1 69.0Q209.8 69.0 210.3 69.4Q210.7 69.8 210.7 70.4L210.7 70.4Q210.7 70.9 210.5 71.3L210.5 71.3L206.0 83.3Q205.7 84.2 205.1 84.6Q204.6 84.9 203.8 84.9ZM219.5 85.0L219.5 85.0Q216.0 85.0 214.1 82.9Q212.1 80.8 212.1 77.0L212.1 77.0Q212.1 73.4 214.1 71.2Q216.0 69.0 219.3 69.0L219.3 69.0Q222.4 69.0 224.3 71.0Q226.2 73.0 226.2 76.1L226.2 76.1Q226.2 76.9 225.8 77.3Q225.4 77.8 224.7 77.8L224.7 77.8L215.3 77.8L215.3 77.8Q215.3 79.9 216.4 81.2Q217.6 82.4 219.4 82.4L219.4 82.4Q220.7 82.4 221.6 81.9Q222.5 81.4 223.4 80.2L223.4 80.2Q223.9 79.6 224.5 79.6L224.5 79.6Q225.1 79.6 225.5 80.0Q225.9 80.3 225.9 80.9L225.9 80.9Q225.9 81.3 225.6 81.8L225.6 81.8Q224.9 83.3 223.3 84.1Q221.7 85.0 219.5 85.0ZM215.4 75.5L215.4 75.5L223.1 75.5Q223.0 73.7 222.0 72.6Q220.9 71.5 219.3 71.5L219.3 71.5Q217.6 71.5 216.6 72.6Q215.5 73.7 215.4 75.5ZM231.4 84.5Q231.0 84.9 230.3 84.9Q229.5 84.9 229.1 84.5Q228.7 84.0 228.7 83.3L228.7 83.3L228.7 70.6Q228.7 69.9 229.1 69.4Q229.5 69.0 230.2 69.0Q230.9 69.0 231.3 69.4Q231.7 69.8 231.7 70.6L231.7 70.6L231.7 71.8L231.8 71.8Q232.3 70.5 233.4 69.8Q234.6 69.0 236.1 69.0L236.1 69.0Q237.7 69.0 238.9 69.8Q240.0 70.6 240.4 72.0L240.4 72.0L240.5 72.0Q241.1 70.6 242.4 69.8Q243.7 69.0 245.3 69.0L245.3 69.0Q247.6 69.0 249.0 70.4Q250.4 71.8 250.4 74.1L250.4 74.1L250.4 83.3Q250.4 84.0 249.9 84.5Q249.5 84.9 248.8 84.9Q248.1 84.9 247.6 84.5Q247.2 84.0 247.2 83.3L247.2 83.3L247.2 74.8Q247.2 73.3 246.4 72.5Q245.6 71.7 244.2 71.7Q242.8 71.7 242.0 72.6Q241.1 73.6 241.1 75.0L241.1 75.0L241.1 83.3Q241.1 84.0 240.6 84.5Q240.2 84.9 239.5 84.9Q238.8 84.9 238.4 84.5Q238.0 84.0 238.0 83.3L238.0 83.3L238.0 74.6Q238.0 73.3 237.2 72.5Q236.4 71.7 235.0 71.7L235.0 71.7Q233.6 71.7 232.7 72.7Q231.8 73.6 231.8 75.1L231.8 75.1L231.8 83.3Q231.8 84.0 231.4 84.5ZM255.0 84.9L255.0 84.9Q254.4 84.9 253.9 84.5Q253.5 84.1 253.5 83.4L253.5 83.4L253.5 64.9Q253.5 64.2 254.0 63.7Q254.4 63.2 255.1 63.2Q255.8 63.2 256.3 63.7Q256.7 64.2 256.7 64.9L256.7 64.9L256.7 71.9L256.8 71.9Q257.5 70.5 258.7 69.8Q260.0 69.0 261.6 69.0L261.6 69.0Q264.6 69.0 266.3 71.2Q268.1 73.3 268.1 77.0L268.1 77.0Q268.1 80.6 266.3 82.8Q264.6 84.9 261.6 84.9L261.6 84.9Q260.0 84.9 258.7 84.2Q257.4 83.4 256.7 82.0L256.7 82.0L256.6 82.0L256.6 83.4Q256.6 84.1 256.2 84.5Q255.7 84.9 255.0 84.9ZM260.8 82.2L260.8 82.2Q262.6 82.2 263.7 80.8Q264.8 79.4 264.8 77.0L264.8 77.0Q264.8 74.5 263.7 73.1Q262.6 71.7 260.8 71.7L260.8 71.7Q259.0 71.7 257.8 73.1Q256.7 74.6 256.7 77.0L256.7 77.0Q256.7 79.3 257.8 80.8Q259.0 82.2 260.8 82.2ZM277.2 85.0L277.2 85.0Q273.7 85.0 271.8 82.9Q269.8 80.8 269.8 77.0L269.8 77.0Q269.8 73.4 271.8 71.2Q273.7 69.0 277.0 69.0L277.0 69.0Q280.0 69.0 282.0 71.0Q283.9 73.0 283.9 76.1L283.9 76.1Q283.9 76.9 283.5 77.3Q283.1 77.8 282.3 77.8L282.3 77.8L273.0 77.8L273.0 77.8Q273.0 79.9 274.1 81.2Q275.2 82.4 277.1 82.4L277.1 82.4Q278.4 82.4 279.3 81.9Q280.2 81.4 281.1 80.2L281.1 80.2Q281.6 79.6 282.2 79.6L282.2 79.6Q282.8 79.6 283.2 80.0Q283.5 80.3 283.5 80.9L283.5 80.9Q283.5 81.3 283.3 81.8L283.3 81.8Q282.5 83.3 280.9 84.1Q279.3 85.0 277.2 85.0ZM273.0 75.5L273.0 75.5L280.7 75.5Q280.7 73.7 279.6 72.6Q278.6 71.5 277.0 71.5L277.0 71.5Q275.3 71.5 274.2 72.6Q273.1 73.7 273.0 75.5ZM287.9 84.9L287.9 84.9Q287.2 84.9 286.8 84.5Q286.3 84.0 286.3 83.3L286.3 83.3L286.3 70.6Q286.3 69.9 286.8 69.4Q287.2 69.0 287.9 69.0L287.9 69.0Q288.5 69.0 288.9 69.4Q289.3 69.9 289.3 70.6L289.3 70.6L289.3 71.9L289.4 71.9Q289.7 70.6 290.7 69.8Q291.6 69.0 292.8 69.0L292.8 69.0Q293.6 69.0 294.0 69.4L294.0 69.4Q294.5 69.7 294.5 70.5L294.5 70.5Q294.5 71.2 294.0 71.6L294.0 71.6Q293.5 72.0 292.6 72.0L292.6 72.0Q291.0 72.0 290.3 73.0Q289.5 73.9 289.5 75.4L289.5 75.4L289.5 83.3Q289.5 84.0 289.1 84.5Q288.6 84.9 287.9 84.9Z M315.5 84.7L303.8 84.7Q303.1 84.7 302.7 84.3Q302.3 83.9 302.3 83.3L302.3 83.3Q302.3 82.8 302.5 82.5Q302.6 82.1 303.2 81.6L303.2 81.6L309.8 74.9Q311.9 72.8 312.5 71.7Q313.2 70.6 313.2 69.3L313.2 69.3Q313.2 67.8 312.2 66.8Q311.1 65.8 309.5 65.8L309.5 65.8Q306.4 65.8 305.3 69.0L305.3 69.0Q305.1 69.5 304.7 69.8Q304.4 70.0 303.8 70.0L303.8 70.0Q303.1 70.0 302.8 69.6Q302.4 69.3 302.4 68.6L302.4 68.6Q302.4 68.3 302.5 68.0L302.5 68.0Q302.6 67.1 303.2 66.3Q303.7 65.4 304.6 64.7Q305.5 64.0 306.8 63.6Q308.1 63.1 309.6 63.1L309.6 63.1Q312.6 63.1 314.5 64.8Q316.5 66.5 316.5 69.1L316.5 69.1Q316.5 70.9 315.5 72.5Q314.5 74.0 311.8 76.8L311.8 76.8L306.7 81.8L306.7 81.9L315.5 81.9Q316.2 81.9 316.6 82.3Q317.0 82.7 317.0 83.3L317.0 83.3Q317.0 83.9 316.6 84.3Q316.2 84.7 315.5 84.7L315.5 84.7ZM333.4 82.1Q331.2 85.1 327.4 85.1Q323.7 85.1 321.5 82.1Q319.3 79.2 319.3 74.1L319.3 74.1Q319.3 69.0 321.5 66.1Q323.7 63.1 327.4 63.1L327.4 63.1Q331.2 63.1 333.4 66.1Q335.5 69.0 335.5 74.1L335.5 74.1Q335.5 79.1 333.4 82.1ZM327.4 82.3L327.4 82.3Q329.7 82.3 331.0 80.1Q332.2 77.9 332.2 74.1L332.2 74.1Q332.2 70.3 331.0 68.1Q329.7 65.9 327.4 65.9Q325.2 65.9 323.9 68.1Q322.7 70.3 322.7 74.1L322.7 74.1Q322.7 77.9 323.9 80.1Q325.2 82.3 327.4 82.3ZM351.6 84.7L339.9 84.7Q339.2 84.7 338.8 84.3Q338.4 83.9 338.4 83.3L338.4 83.3Q338.4 82.8 338.6 82.5Q338.7 82.1 339.3 81.6L339.3 81.6L345.9 74.9Q348.0 72.8 348.6 71.7Q349.3 70.6 349.3 69.3L349.3 69.3Q349.3 67.8 348.3 66.8Q347.2 65.8 345.6 65.8L345.6 65.8Q342.5 65.8 341.4 69.0L341.4 69.0Q341.2 69.5 340.8 69.8Q340.5 70.0 339.9 70.0L339.9 70.0Q339.2 70.0 338.9 69.6Q338.5 69.3 338.5 68.6L338.5 68.6Q338.5 68.3 338.5 68.0L338.5 68.0Q338.7 67.1 339.3 66.3Q339.8 65.4 340.7 64.7Q341.6 64.0 342.8 63.6Q344.1 63.1 345.7 63.1L345.7 63.1Q348.7 63.1 350.6 64.8Q352.6 66.5 352.6 69.1L352.6 69.1Q352.6 70.9 351.6 72.5Q350.6 74.0 347.9 76.8L347.9 76.8L342.8 81.8L342.8 81.9L351.6 81.9Q352.3 81.9 352.7 82.3Q353.1 82.7 353.1 83.3L353.1 83.3Q353.1 83.9 352.7 84.3Q352.3 84.7 351.6 84.7L351.6 84.7ZM367.4 84.9L367.4 84.9Q366.7 84.9 366.3 84.5Q365.9 84.0 365.9 83.3L365.9 83.3L365.9 80.5L357.2 80.5Q356.3 80.5 355.8 80.0Q355.2 79.4 355.2 78.6L355.2 78.6Q355.2 77.6 356.0 76.3L356.0 76.3Q357.8 73.0 362.8 65.7L362.8 65.7Q363.8 64.3 364.5 63.8Q365.3 63.2 366.3 63.2L366.3 63.2Q367.6 63.2 368.3 63.9Q369.0 64.5 369.0 65.7L369.0 65.7L369.0 77.7L370.7 77.7Q371.3 77.7 371.7 78.1Q372.1 78.5 372.1 79.1Q372.1 79.7 371.7 80.1Q371.3 80.5 370.7 80.5L370.7 80.5L369.0 80.5L369.0 83.3Q369.0 84.0 368.6 84.5Q368.1 84.9 367.4 84.9ZM358.3 77.8L365.9 77.8L365.9 66.1L365.8 66.1Q360.4 73.9 358.3 77.7L358.3 77.7L358.3 77.8Z "/><mask id="satori_om-id-0-0-1"><rect x="40" y="137" width="1120" height="243" fill="#fff"/></mask><path fill="#224d67" d="M57.8 200.1L57.8 200.1Q56.1 200.1 55.1 199.1Q54.1 198.0 54.1 196.2L54.1 196.2L54.1 163.7L44.4 163.7Q42.8 163.7 41.9 162.8Q40.9 162.0 40.9 160.5Q40.9 159.0 41.9 158.2Q42.8 157.3 44.4 157.3L44.4 157.3L71.3 157.3Q72.8 157.3 73.8 158.2Q74.7 159.0 74.7 160.5Q74.7 162.0 73.8 162.8Q72.8 163.7 71.3 163.7L71.3 163.7L61.6 163.7L61.6 196.2Q61.6 198.0 60.6 199.1Q59.6 200.1 57.8 200.1ZM85.1 199.2Q84.2 200.2 82.5 200.2Q80.9 200.2 79.9 199.2Q78.8 198.1 78.8 196.3L78.8 196.3L78.8 160.5Q78.8 158.7 79.8 157.7Q80.8 156.7 82.5 156.7L82.5 156.7Q84.2 156.7 85.1 157.7Q86.1 158.7 86.1 160.5L86.1 160.5L86.1 173.9L86.2 173.9Q87.5 171.0 90.0 169.5Q92.5 167.9 96.0 167.9L96.0 167.9Q101.1 167.9 104.0 171.1Q106.9 174.2 106.9 179.6L106.9 179.6L106.9 196.3Q106.9 198.1 105.9 199.2Q104.9 200.2 103.2 200.2Q101.6 200.2 100.6 199.2Q99.6 198.1 99.6 196.3L99.6 196.3L99.6 181.1Q99.6 177.8 98.0 175.9Q96.3 174.1 93.2 174.1L93.2 174.1Q89.9 174.1 88.0 176.2Q86.1 178.3 86.1 181.7L86.1 181.7L86.1 196.3Q86.1 198.1 85.1 199.2ZM126.5 200.2L126.5 200.2Q119.4 200.2 115.4 196.0Q111.4 191.7 111.4 184.2L111.4 184.2Q111.4 176.7 115.4 172.3Q119.4 167.9 126.1 167.9L126.1 167.9Q132.5 167.9 136.4 171.9Q140.4 176.0 140.4 182.4L140.4 182.4Q140.4 184.0 139.5 184.9Q138.6 185.8 137.0 185.8L137.0 185.8L118.7 185.8L118.7 186.0Q118.7 189.9 120.8 192.3Q122.9 194.6 126.5 194.6L126.5 194.6Q128.9 194.6 130.7 193.6Q132.5 192.7 134.2 190.4L134.2 190.4Q135.3 189.3 136.7 189.3L136.7 189.3Q137.9 189.3 138.8 190.0Q139.6 190.8 139.6 192.1L139.6 192.1Q139.6 192.9 139.1 193.9L139.1 193.9Q137.6 196.9 134.2 198.5Q130.9 200.2 126.5 200.2ZM118.8 181.0L118.8 181.0L133.3 181.0Q133.1 177.6 131.2 175.6Q129.2 173.5 126.1 173.5Q123.1 173.5 121.0 175.6Q119.0 177.7 118.8 181.0Z M164.4 199.1Q163.4 200.2 161.6 200.2Q159.9 200.2 158.8 199.1Q157.8 198.1 157.8 196.2L157.8 196.2L157.8 161.2Q157.8 159.4 158.8 158.3Q159.9 157.3 161.6 157.3L161.6 157.3L174.6 157.3Q181.4 157.3 185.3 160.8Q189.2 164.4 189.2 170.5L189.2 170.5Q189.2 174.6 187.2 177.8Q185.2 181.0 181.5 182.4L181.5 182.4L188.2 194.1Q189.0 195.5 189.0 196.7L189.0 196.7Q189.0 198.2 187.9 199.2Q186.9 200.2 185.2 200.2L185.2 200.2Q183.9 200.2 183.1 199.6Q182.3 199.0 181.4 197.4L181.4 197.4L173.9 183.7L165.4 183.7L165.4 196.2Q165.4 198.1 164.4 199.1ZM165.4 163.4L165.4 177.9L173.9 177.9Q177.5 177.9 179.5 176.0Q181.5 174.1 181.5 170.6L181.5 170.6Q181.5 167.3 179.4 165.4Q177.3 163.4 173.8 163.4L173.8 163.4L165.4 163.4ZM219.3 195.9Q215.2 200.2 208.3 200.2Q201.5 200.2 197.4 195.9Q193.3 191.6 193.3 184.1L193.3 184.1Q193.3 176.6 197.4 172.2Q201.5 167.9 208.3 167.9L208.3 167.9Q215.2 167.9 219.3 172.2Q223.4 176.6 223.4 184.1L223.4 184.1Q223.4 191.6 219.3 195.9ZM202.8 191.7Q204.8 194.4 208.3 194.4Q211.9 194.4 213.9 191.7Q216.0 189.0 216.0 184.1L216.0 184.1Q216.0 179.2 213.9 176.4Q211.9 173.7 208.3 173.7L208.3 173.7Q204.9 173.7 202.8 176.4Q200.7 179.2 200.7 184.1L200.7 184.1Q200.7 189.0 202.8 191.7ZM234.6 199.2Q233.6 200.2 231.9 200.2Q230.3 200.2 229.3 199.2Q228.3 198.1 228.3 196.3L228.3 196.3L228.3 160.6Q228.3 158.7 229.3 157.7Q230.3 156.7 231.9 156.7Q233.6 156.7 234.6 157.7Q235.6 158.7 235.6 160.6L235.6 160.6L235.6 196.3Q235.6 198.1 234.6 199.2ZM255.6 200.2L255.6 200.2Q248.4 200.2 244.5 196.0Q240.5 191.7 240.5 184.2L240.5 184.2Q240.5 176.7 244.5 172.3Q248.4 167.9 255.2 167.9L255.2 167.9Q261.5 167.9 265.5 171.9Q269.5 176.0 269.5 182.4L269.5 182.4Q269.5 184.0 268.6 184.9Q267.7 185.8 266.1 185.8L266.1 185.8L247.7 185.8L247.7 186.0Q247.7 189.9 249.9 192.3Q252.0 194.6 255.5 194.6L255.5 194.6Q258.0 194.6 259.7 193.6Q261.5 192.7 263.3 190.4L263.3 190.4Q264.3 189.3 265.7 189.3L265.7 189.3Q267.0 189.3 267.8 190.0Q268.7 190.8 268.7 192.1L268.7 192.1Q268.7 192.9 268.2 193.9L268.2 193.9Q266.6 196.9 263.3 198.5Q260.0 200.2 255.6 200.2ZM247.8 181.0L247.8 181.0L262.3 181.0Q262.2 177.6 260.2 175.6Q258.3 173.5 255.2 173.5Q252.1 173.5 250.1 175.6Q248.0 177.7 247.8 181.0Z M310.8 195.9Q306.8 200.2 299.9 200.2Q293.0 200.2 288.9 195.9Q284.9 191.6 284.9 184.1L284.9 184.1Q284.9 176.6 289.0 172.2Q293.1 167.9 299.9 167.9L299.9 167.9Q306.7 167.9 310.8 172.2Q314.9 176.6 314.9 184.1L314.9 184.1Q314.9 191.6 310.8 195.9ZM294.3 191.7Q296.4 194.4 299.9 194.4Q303.4 194.4 305.5 191.7Q307.5 189.0 307.5 184.1L307.5 184.1Q307.5 179.2 305.5 176.4Q303.4 173.7 299.9 173.7L299.9 173.7Q296.4 173.7 294.3 176.4Q292.3 179.2 292.3 184.1L292.3 184.1Q292.3 189.0 294.3 191.7ZM327.9 199.2Q327.0 200.2 325.3 200.2Q323.6 200.2 322.6 199.2Q321.6 198.2 321.6 196.4L321.6 196.4L321.6 174.1L319.7 174.1Q318.4 174.1 317.7 173.4Q316.9 172.7 316.9 171.4L316.9 171.4Q316.9 170.1 317.7 169.4Q318.4 168.6 319.7 168.6L319.7 168.6L321.6 168.6L321.6 165.9Q321.6 157.0 330.2 157.0L330.2 157.0Q333.0 157.0 334.4 157.8Q335.8 158.6 335.8 160.0L335.8 160.0Q335.8 161.7 334.2 162.1L334.2 162.1Q333.5 162.3 332.6 162.3L332.6 162.3Q330.6 162.4 329.7 163.3Q328.8 164.2 328.8 166.2L328.8 166.2L328.8 168.6L332.7 168.6Q334.0 168.6 334.7 169.4Q335.5 170.1 335.5 171.4L335.5 171.4Q335.5 172.7 334.7 173.4Q334.0 174.1 332.7 174.1L332.7 174.1L328.9 174.1L328.9 196.4Q328.9 198.2 327.9 199.2Z M376.9 199.6L356.3 199.6Q354.6 199.6 353.6 198.5Q352.6 197.5 352.6 195.7L352.6 195.7L352.6 161.2Q352.6 159.4 353.6 158.3Q354.6 157.3 356.3 157.3L356.3 157.3L376.9 157.3Q378.5 157.3 379.5 158.2Q380.4 159.0 380.4 160.5Q380.4 162.0 379.5 162.8Q378.5 163.7 376.9 163.7L376.9 163.7L360.1 163.7L360.1 175.1L376.1 175.1Q377.5 175.1 378.4 175.9Q379.3 176.7 379.3 178.1Q379.3 179.5 378.4 180.3Q377.5 181.1 376.1 181.1L376.1 181.1L360.1 181.1L360.1 193.2L376.9 193.2Q378.5 193.2 379.5 194.1Q380.4 194.9 380.4 196.4Q380.4 197.8 379.5 198.7Q378.5 199.6 376.9 199.6L376.9 199.6ZM389.4 200.2L389.4 200.2Q387.7 200.2 386.7 199.2Q385.8 198.1 385.8 196.3L385.8 196.3L385.8 171.6Q385.8 169.9 386.7 168.9Q387.7 167.9 389.2 167.9Q390.8 167.9 391.8 168.9Q392.8 169.9 392.8 171.6L392.8 171.6L392.8 173.9L392.9 173.9Q393.9 171.2 396.3 169.5Q398.6 167.9 401.8 167.9L401.8 167.9Q405.0 167.9 407.3 169.6Q409.6 171.2 410.4 174.2L410.4 174.2L410.6 174.2Q411.7 171.3 414.3 169.6Q416.9 167.9 420.3 167.9L420.3 167.9Q424.9 167.9 427.6 170.8Q430.4 173.6 430.4 178.3L430.4 178.3L430.4 196.3Q430.4 198.1 429.4 199.1Q428.4 200.2 426.8 200.2L426.8 200.2Q425.1 200.2 424.1 199.1Q423.1 198.1 423.1 196.3L423.1 196.3L423.1 180.1Q423.1 177.2 421.7 175.6Q420.2 174.1 417.5 174.1L417.5 174.1Q414.9 174.1 413.3 175.8Q411.6 177.6 411.6 180.4L411.6 180.4L411.6 196.3Q411.6 198.1 410.7 199.2Q409.7 200.2 408.1 200.2L408.1 200.2Q406.4 200.2 405.5 199.2Q404.5 198.1 404.5 196.3L404.5 196.3L404.5 179.7Q404.5 177.1 403.1 175.6Q401.6 174.1 399.0 174.1L399.0 174.1Q396.4 174.1 394.7 175.9Q393.1 177.8 393.1 180.6L393.1 180.6L393.1 196.3Q393.1 198.1 392.0 199.1Q391.0 200.2 389.4 200.2ZM442.6 199.2Q441.6 200.2 440.0 200.2Q438.4 200.2 437.4 199.2Q436.4 198.3 436.4 196.5L436.4 196.5L436.4 160.6Q436.4 158.7 437.5 157.7Q438.5 156.7 440.1 156.7Q441.7 156.7 442.7 157.7Q443.7 158.7 443.7 160.6L443.7 160.6L443.7 173.9L443.9 173.9Q445.3 171.1 447.8 169.5Q450.4 168.0 453.6 168.0L453.6 168.0Q459.5 168.0 463.0 172.3Q466.4 176.6 466.4 184.1L466.4 184.1Q466.4 191.5 463.0 195.8Q459.5 200.1 453.6 200.1L453.6 200.1Q450.2 200.1 447.7 198.6Q445.1 197.0 443.7 194.3L443.7 194.3L443.6 194.3L443.6 196.5Q443.6 198.2 442.6 199.2ZM451.4 194.1L451.4 194.1Q454.9 194.1 456.9 191.4Q459.0 188.7 459.0 184.1Q459.0 179.4 456.9 176.7Q454.9 174.0 451.4 174.0L451.4 174.0Q448.0 174.0 445.8 176.8Q443.7 179.5 443.7 184.1L443.7 184.1Q443.7 188.6 445.8 191.3Q448.0 194.1 451.4 194.1ZM495.8 195.9Q491.8 200.2 484.9 200.2Q478.0 200.2 473.9 195.9Q469.8 191.6 469.8 184.1L469.8 184.1Q469.8 176.6 473.9 172.2Q478.0 167.9 484.9 167.9L484.9 167.9Q491.7 167.9 495.8 172.2Q499.9 176.6 499.9 184.1L499.9 184.1Q499.9 191.6 495.8 195.9ZM479.3 191.7Q481.4 194.4 484.9 194.4Q488.4 194.4 490.4 191.7Q492.5 189.0 492.5 184.1L492.5 184.1Q492.5 179.2 490.4 176.4Q488.4 173.7 484.9 173.7L484.9 173.7Q481.4 173.7 479.3 176.4Q477.3 179.2 477.3 184.1L477.3 184.1Q477.3 189.0 479.3 191.7ZM516.2 200.1L516.2 200.1Q510.3 200.1 506.8 195.7Q503.3 191.4 503.3 184.0L503.3 184.0Q503.3 176.7 506.8 172.3Q510.3 168.0 516.2 168.0L516.2 168.0Q519.5 168.0 522.0 169.5Q524.5 171.1 525.8 173.7L525.8 173.7L526.0 173.7L526.0 160.6Q526.0 158.7 527.0 157.7Q528.0 156.7 529.6 156.7Q531.3 156.7 532.3 157.7Q533.3 158.7 533.3 160.6L533.3 160.6L533.3 196.5Q533.3 198.2 532.3 199.2Q531.3 200.2 529.7 200.2L529.7 200.2Q528.0 200.2 527.0 199.2Q526.0 198.2 526.0 196.5L526.0 196.5L526.0 194.1L525.8 194.1Q524.7 196.9 522.2 198.5Q519.7 200.1 516.2 200.1ZM518.4 194.1L518.4 194.1Q521.8 194.1 523.9 191.4Q526.0 188.7 526.0 184.1L526.0 184.1Q526.0 179.5 523.9 176.7Q521.8 174.0 518.4 174.0L518.4 174.0Q514.9 174.0 512.8 176.7Q510.8 179.4 510.8 184.1L510.8 184.1Q510.8 188.7 512.8 191.4Q514.8 194.1 518.4 194.1ZM546.1 163.0Q544.9 164.2 543.2 164.2Q541.5 164.2 540.3 163.0Q539.2 161.8 539.2 160.2L539.2 160.2Q539.2 158.5 540.3 157.4Q541.5 156.2 543.2 156.2L543.2 156.2Q544.9 156.2 546.1 157.4Q547.3 158.5 547.3 160.2L547.3 160.2Q547.3 161.8 546.1 163.0ZM545.9 199.1Q544.9 200.2 543.2 200.2Q541.5 200.2 540.6 199.1Q539.6 198.1 539.6 196.3L539.6 196.3L539.6 171.7Q539.6 170.0 540.6 168.9Q541.5 167.9 543.2 167.9Q544.9 167.9 545.9 168.9Q546.9 170.0 546.9 171.8L546.9 171.8L546.9 196.3Q546.9 198.1 545.9 199.1ZM556.6 200.2L556.6 200.2Q555.0 200.2 554.0 199.2Q553.0 198.1 553.0 196.3L553.0 196.3L553.0 171.6Q553.0 169.9 553.9 168.9Q554.9 167.9 556.5 167.9Q558.1 167.9 559.0 168.9Q560.0 169.9 560.0 171.6L560.0 171.6L560.0 173.9L560.1 173.9Q561.2 171.2 563.5 169.5Q565.8 167.9 569.0 167.9L569.0 167.9Q572.3 167.9 574.5 169.6Q576.8 171.2 577.7 174.2L577.7 174.2L577.8 174.2Q578.9 171.3 581.5 169.6Q584.1 167.9 587.5 167.9L587.5 167.9Q592.1 167.9 594.9 170.8Q597.6 173.6 597.6 178.3L597.6 178.3L597.6 196.3Q597.6 198.1 596.6 199.1Q595.6 200.2 594.0 200.2L594.0 200.2Q592.3 200.2 591.3 199.1Q590.3 198.1 590.3 196.3L590.3 196.3L590.3 180.1Q590.3 177.2 588.9 175.6Q587.4 174.1 584.8 174.1L584.8 174.1Q582.1 174.1 580.5 175.8Q578.9 177.6 578.9 180.4L578.9 180.4L578.9 196.3Q578.9 198.1 577.9 199.2Q577.0 200.2 575.3 200.2L575.3 200.2Q573.6 200.2 572.7 199.2Q571.8 198.1 571.8 196.3L571.8 196.3L571.8 179.7Q571.8 177.1 570.3 175.6Q568.8 174.1 566.3 174.1L566.3 174.1Q563.6 174.1 562.0 175.9Q560.3 177.8 560.3 180.6L560.3 180.6L560.3 196.3Q560.3 198.1 559.3 199.1Q558.3 200.2 556.6 200.2ZM617.3 200.2L617.3 200.2Q610.1 200.2 606.2 196.0Q602.2 191.7 602.2 184.2L602.2 184.2Q602.2 176.7 606.2 172.3Q610.1 167.9 616.9 167.9L616.9 167.9Q623.2 167.9 627.2 171.9Q631.2 176.0 631.2 182.4L631.2 182.4Q631.2 184.0 630.3 184.9Q629.4 185.8 627.8 185.8L627.8 185.8L609.4 185.8L609.4 186.0Q609.4 189.9 611.6 192.3Q613.7 194.6 617.2 194.6L617.2 194.6Q619.7 194.6 621.4 193.6Q623.2 192.7 625.0 190.4L625.0 190.4Q626.0 189.3 627.4 189.3L627.4 189.3Q628.7 189.3 629.5 190.0Q630.4 190.8 630.4 192.1L630.4 192.1Q630.4 192.9 629.9 193.9L629.9 193.9Q628.3 196.9 625 198.5Q621.7 200.2 617.3 200.2ZM609.5 181.0L609.5 181.0L624.0 181.0Q623.9 177.6 621.9 175.6Q620.0 173.5 616.9 173.5Q613.8 173.5 611.8 175.6Q609.7 177.7 609.5 181.0ZM642.1 199.2Q641.1 200.2 639.5 200.2Q637.8 200.2 636.8 199.2Q635.8 198.1 635.8 196.3L635.8 196.3L635.8 171.6Q635.8 169.9 636.8 168.9Q637.7 167.9 639.3 167.9Q640.9 167.9 641.9 168.9Q642.9 169.9 642.9 171.6L642.9 171.6L642.9 173.8L643.1 173.8Q645.7 167.9 652.7 167.9L652.7 167.9Q657.8 167.9 660.7 171.0Q663.5 174.1 663.5 179.5L663.5 179.5L663.5 196.3Q663.5 198.1 662.5 199.2Q661.5 200.2 659.9 200.2Q658.2 200.2 657.2 199.2Q656.2 198.1 656.2 196.3L656.2 196.3L656.2 181.0Q656.2 177.6 654.6 175.9Q653.1 174.1 650.0 174.1L650.0 174.1Q646.9 174.1 645.0 176.2Q643.1 178.2 643.1 181.6L643.1 181.6L643.1 196.3Q643.1 198.1 642.1 199.2ZM671.3 191.9L671.3 191.9L671.3 174.1L669.4 174.1Q668.0 174.1 667.2 173.4Q666.5 172.6 666.5 171.3L666.5 171.3Q666.5 170.0 667.2 169.3Q668.0 168.5 669.4 168.5L669.4 168.5L671.3 168.5L671.3 164.4Q671.3 162.6 672.3 161.6Q673.3 160.6 675.0 160.6L675.0 160.6Q676.7 160.6 677.7 161.6Q678.6 162.6 678.6 164.4L678.6 164.4L678.6 168.5L682.0 168.5Q683.4 168.5 684.2 169.3Q684.9 170.0 684.9 171.3L684.9 171.3Q684.9 172.6 684.2 173.4Q683.4 174.1 682.0 174.1L682.0 174.1L678.6 174.1L678.6 190.3Q678.6 192.1 679.3 192.9Q680.0 193.7 681.6 193.9L681.6 193.9L682.1 193.9Q685.0 194.2 685.0 196.6L685.0 196.6Q685.0 198.2 683.7 199.1Q682.3 199.9 679.8 199.9L679.8 199.9L679.5 199.9Q671.3 199.9 671.3 191.9Z M708.2 163.0Q707.0 164.2 705.3 164.2Q703.6 164.2 702.4 163.0Q701.2 161.8 701.2 160.2L701.2 160.2Q701.2 158.5 702.4 157.4Q703.6 156.2 705.3 156.2L705.3 156.2Q707.0 156.2 708.2 157.4Q709.3 158.5 709.3 160.2L709.3 160.2Q709.3 161.8 708.2 163.0ZM707.9 199.1Q706.9 200.2 705.3 200.2Q703.6 200.2 702.6 199.1Q701.6 198.1 701.6 196.3L701.6 196.3L701.6 171.7Q701.6 170.0 702.6 168.9Q703.6 167.9 705.3 167.9Q706.9 167.9 707.9 168.9Q708.9 170.0 708.9 171.8L708.9 171.8L708.9 196.3Q708.9 198.1 707.9 199.1ZM721.3 199.2Q720.3 200.2 718.7 200.2Q717.1 200.2 716.1 199.2Q715.1 198.1 715.1 196.3L715.1 196.3L715.1 171.6Q715.1 169.9 716.0 168.9Q716.9 167.9 718.5 167.9Q720.2 167.9 721.2 168.9Q722.1 169.9 722.1 171.6L722.1 171.6L722.1 173.8L722.3 173.8Q724.9 167.9 732.0 167.9L732.0 167.9Q737.1 167.9 739.9 171.0Q742.7 174.1 742.7 179.5L742.7 179.5L742.7 196.3Q742.7 198.1 741.7 199.2Q740.7 200.2 739.1 200.2Q737.4 200.2 736.4 199.2Q735.4 198.1 735.4 196.3L735.4 196.3L735.4 181.0Q735.4 177.6 733.9 175.9Q732.3 174.1 729.2 174.1L729.2 174.1Q726.1 174.1 724.2 176.2Q722.4 178.2 722.4 181.6L722.4 181.6L722.4 196.3Q722.4 198.1 721.3 199.2Z M785.0 199.6L765.1 199.6Q763.3 199.6 762.3 198.5Q761.3 197.5 761.3 195.7L761.3 195.7L761.3 160.7Q761.3 158.9 762.3 157.8Q763.3 156.8 765.1 156.8L765.1 156.8Q766.9 156.8 767.9 157.8Q768.8 158.9 768.8 160.7L768.8 160.7L768.8 193.2L785.0 193.2Q786.6 193.2 787.6 194.1Q788.5 194.9 788.5 196.4Q788.5 197.8 787.6 198.7Q786.6 199.6 785.0 199.6L785.0 199.6ZM806.5 200.2L806.5 200.2Q799.4 200.2 795.4 196.0Q791.4 191.7 791.4 184.2L791.4 184.2Q791.4 176.7 795.4 172.3Q799.4 167.9 806.1 167.9L806.1 167.9Q812.5 167.9 816.4 171.9Q820.4 176.0 820.4 182.4L820.4 182.4Q820.4 184.0 819.5 184.9Q818.6 185.8 817.0 185.8L817.0 185.8L798.7 185.8L798.7 186.0Q798.7 189.9 800.8 192.3Q802.9 194.6 806.5 194.6L806.5 194.6Q808.9 194.6 810.7 193.6Q812.5 192.7 814.2 190.4L814.2 190.4Q815.3 189.3 816.7 189.3L816.7 189.3Q817.9 189.3 818.8 190.0Q819.6 190.8 819.6 192.1L819.6 192.1Q819.6 192.9 819.1 193.9L819.1 193.9Q817.6 196.9 814.3 198.5Q810.9 200.2 806.5 200.2ZM798.8 181.0L798.8 181.0L813.3 181.0Q813.1 177.6 811.2 175.6Q809.2 173.5 806.1 173.5Q803.1 173.5 801.0 175.6Q799.0 177.7 798.8 181.0ZM834.2 200.1L834.2 200.1Q829.7 200.1 826.8 197.5Q823.8 194.9 823.8 190.7L823.8 190.7Q823.8 186.6 826.9 184.2Q830.0 181.8 835.6 181.4L835.6 181.4L843.9 180.9L843.9 178.7Q843.9 176.3 842.3 174.9Q840.8 173.6 838.1 173.6L838.1 173.6Q835.9 173.6 834.4 174.4Q832.9 175.2 831.6 177.2L831.6 177.2Q830.5 178.7 828.6 178.7L828.6 178.7Q827.3 178.7 826.4 177.9Q825.5 177.1 825.5 175.8L825.5 175.8Q825.5 174.8 826.0 173.8L826.0 173.8Q827.2 171.1 830.6 169.5Q833.9 167.9 838.4 167.9L838.4 167.9Q844.1 167.9 847.6 170.7Q851.1 173.5 851.1 178.2L851.1 178.2L851.1 196.5Q851.1 198.2 850.1 199.2Q849.1 200.2 847.5 200.2L847.5 200.2Q846.0 200.2 845.1 199.3Q844.1 198.4 844.1 196.8L844.1 196.8L844.1 194.6L843.9 194.6Q842.6 197.1 839.9 198.6Q837.3 200.1 834.2 200.1ZM836.4 194.6L836.4 194.6Q839.5 194.6 841.7 192.7Q843.9 190.8 843.9 188.1L843.9 188.1L843.9 185.7L836.7 186.1Q834.0 186.3 832.6 187.4Q831.1 188.6 831.1 190.4L831.1 190.4Q831.1 192.3 832.6 193.4Q834.0 194.6 836.4 194.6ZM863.2 199.1Q862.2 200.2 860.6 200.2Q858.9 200.2 857.9 199.1Q856.9 198.1 856.9 196.3L856.9 196.3L856.9 171.6Q856.9 169.9 857.9 168.9Q858.8 167.9 860.4 167.9L860.4 167.9Q862.0 167.9 862.9 168.9Q863.9 169.9 863.9 171.6L863.9 171.6L863.9 174.0L864.0 174.0Q864.7 171.3 866.5 169.6Q868.3 168.0 870.7 168.0L870.7 168.0Q872.4 168.0 873.3 168.8L873.3 168.8Q874.3 169.6 874.3 171.4L874.3 171.4Q874.3 173.1 873.2 174.0L873.2 174.0Q872.1 174.9 870.0 175.0L870.0 175.0Q864.2 175.0 864.2 181.4L864.2 181.4L864.2 196.3Q864.2 198.1 863.2 199.1ZM883.9 199.2Q882.8 200.2 881.2 200.2Q879.6 200.2 878.6 199.2Q877.6 198.1 877.6 196.3L877.6 196.3L877.6 171.6Q877.6 169.9 878.5 168.9Q879.4 167.9 881.1 167.9Q882.7 167.9 883.7 168.9Q884.7 169.9 884.7 171.6L884.7 171.6L884.7 173.8L884.8 173.8Q887.4 167.9 894.5 167.9L894.5 167.9Q899.6 167.9 902.4 171.0Q905.2 174.1 905.2 179.5L905.2 179.5L905.2 196.3Q905.2 198.1 904.2 199.2Q903.2 200.2 901.6 200.2Q900.0 200.2 898.9 199.2Q897.9 198.1 897.9 196.3L897.9 196.3L897.9 181.0Q897.9 177.6 896.4 175.9Q894.8 174.1 891.7 174.1L891.7 174.1Q888.6 174.1 886.7 176.2Q884.9 178.2 884.9 181.6L884.9 181.6L884.9 196.3Q884.9 198.1 883.9 199.2ZM917.7 163.0Q916.6 164.2 914.9 164.2Q913.2 164.2 912.0 163.0Q910.8 161.8 910.8 160.2L910.8 160.2Q910.8 158.5 912.0 157.4Q913.2 156.2 914.9 156.2L914.9 156.2Q916.6 156.2 917.8 157.4Q918.9 158.5 918.9 160.2L918.9 160.2Q918.9 161.8 917.7 163.0ZM917.5 199.1Q916.5 200.2 914.9 200.2Q913.2 200.2 912.2 199.1Q911.2 198.1 911.2 196.3L911.2 196.3L911.2 171.7Q911.2 170.0 912.2 168.9Q913.2 167.9 914.9 167.9Q916.5 167.9 917.5 168.9Q918.5 170.0 918.5 171.8L918.5 171.8L918.5 196.3Q918.5 198.1 917.5 199.1ZM930.9 199.2Q929.9 200.2 928.3 200.2Q926.6 200.2 925.6 199.2Q924.6 198.1 924.6 196.3L924.6 196.3L924.6 171.6Q924.6 169.9 925.6 168.9Q926.5 167.9 928.1 167.9Q929.7 167.9 930.7 168.9Q931.7 169.9 931.7 171.6L931.7 171.6L931.7 173.8L931.9 173.8Q934.5 167.9 941.6 167.9L941.6 167.9Q946.7 167.9 949.5 171.0Q952.3 174.1 952.3 179.5L952.3 179.5L952.3 196.3Q952.3 198.1 951.3 199.2Q950.3 200.2 948.7 200.2Q947.0 200.2 946.0 199.2Q945.0 198.1 945.0 196.3L945.0 196.3L945.0 181.0Q945.0 177.6 943.4 175.9Q941.9 174.1 938.8 174.1L938.8 174.1Q935.7 174.1 933.8 176.2Q931.9 178.2 931.9 181.6L931.9 181.6L931.9 196.3Q931.9 198.1 930.9 199.2ZM971.5 211.3L971.5 211.3Q967.2 211.2 963.8 209.7Q960.5 208.2 958.9 205.6L958.9 205.6Q958.3 204.6 958.3 203.4L958.3 203.4Q958.3 202.2 959.1 201.4Q960.0 200.6 961.4 200.6L961.4 200.6Q962.8 200.6 964.0 201.8L964.0 201.8Q965.9 203.7 967.7 204.6Q969.4 205.4 971.6 205.5L971.6 205.5Q975.2 205.5 977.4 203.6Q979.5 201.7 979.5 198.6L979.5 198.6L979.5 193.7L979.3 193.7Q978.1 196.2 975.5 197.7Q972.9 199.3 969.6 199.3L969.6 199.3Q963.8 199.3 960.3 195.0Q956.8 190.8 956.8 183.7L956.8 183.7Q956.8 176.4 960.3 172.2Q963.8 168.0 969.8 168.0L969.8 168.0Q973.0 168.0 975.5 169.5Q978.0 171.1 979.4 173.8L979.4 173.8L979.5 173.8L979.5 171.6Q979.5 169.9 980.5 168.9Q981.6 167.9 983.2 167.9Q984.8 167.9 985.8 168.9Q986.8 169.9 986.8 171.6L986.8 171.6L986.8 198.6Q986.8 204.5 982.7 207.9Q978.7 211.3 971.5 211.3ZM971.8 193.6L971.8 193.6Q975.4 193.6 977.5 190.9Q979.6 188.3 979.6 183.7L979.6 183.7Q979.6 179.2 977.4 176.5Q975.3 173.8 971.8 173.8L971.8 173.8Q968.4 173.8 966.4 176.5Q964.3 179.2 964.3 183.7L964.3 183.7Q964.3 188.3 966.4 191.0Q968.4 193.6 971.8 193.6Z M50.3 281.6Q49.3 282.7 47.5 282.7Q45.7 282.7 44.7 281.6Q43.7 280.6 43.7 278.7L43.7 278.7L43.7 243.7Q43.7 241.9 44.7 240.8Q45.7 239.8 47.5 239.8L47.5 239.8L60.5 239.8Q67.3 239.8 71.2 243.3Q75.1 246.9 75.1 253.0L75.1 253.0Q75.1 257.1 73.1 260.3Q71.1 263.5 67.4 264.9L67.4 264.9L74.1 276.6Q74.9 278.0 74.9 279.2L74.9 279.2Q74.9 280.7 73.8 281.7Q72.8 282.7 71.1 282.7L71.1 282.7Q69.8 282.7 69.0 282.1Q68.2 281.5 67.3 279.9L67.3 279.9L59.7 266.2L51.3 266.2L51.3 278.7Q51.3 280.6 50.3 281.6ZM51.3 245.9L51.3 260.4L59.8 260.4Q63.4 260.4 65.4 258.5Q67.4 256.6 67.4 253.1L67.4 253.1Q67.4 249.8 65.3 247.9Q63.2 245.9 59.7 245.9L59.7 245.9L51.3 245.9ZM94.3 282.7L94.3 282.7Q87.2 282.7 83.2 278.5Q79.2 274.2 79.2 266.7L79.2 266.7Q79.2 259.2 83.2 254.8Q87.2 250.4 93.9 250.4L93.9 250.4Q100.2 250.4 104.2 254.4Q108.2 258.5 108.2 264.9L108.2 264.9Q108.2 266.5 107.3 267.4Q106.4 268.3 104.8 268.3L104.8 268.3L86.5 268.3L86.5 268.5Q86.5 272.4 88.6 274.8Q90.7 277.1 94.2 277.1L94.2 277.1Q96.7 277.1 98.5 276.1Q100.2 275.2 102.0 272.9L102.0 272.9Q103.0 271.8 104.5 271.8L104.5 271.8Q105.7 271.8 106.5 272.5Q107.4 273.3 107.4 274.6L107.4 274.6Q107.4 275.4 106.9 276.4L106.9 276.4Q105.3 279.4 102.0 281.0Q98.7 282.7 94.3 282.7ZM86.5 263.5L86.5 263.5L101.0 263.5Q100.9 260.1 98.9 258.1Q97.0 256.0 93.9 256.0Q90.8 256.0 88.8 258.1Q86.7 260.2 86.5 263.5ZM119.1 292.1Q118.1 293.1 116.5 293.1Q114.9 293.1 113.9 292.1Q112.9 291.1 112.9 289.3L112.9 289.3L112.9 254.2Q112.9 252.4 113.8 251.4Q114.8 250.4 116.4 250.4L116.4 250.4Q118.0 250.4 119.0 251.4Q120.0 252.4 120.0 254.2L120.0 254.2L120.0 256.4L120.1 256.4Q121.5 253.6 124.0 252.1Q126.6 250.5 129.9 250.5L129.9 250.5Q135.8 250.5 139.3 254.8Q142.8 259.1 142.8 266.6L142.8 266.6Q142.8 274.0 139.3 278.3Q135.9 282.6 130.0 282.6L130.0 282.6Q126.7 282.6 124.1 281.1Q121.6 279.6 120.3 276.9L120.3 276.9L120.2 276.9L120.2 289.3Q120.2 291.1 119.1 292.1ZM127.7 276.6L127.7 276.6Q131.2 276.6 133.3 273.9Q135.3 271.2 135.3 266.6L135.3 266.6Q135.3 262.0 133.3 259.2Q131.2 256.5 127.7 256.5L127.7 256.5Q124.3 256.5 122.2 259.3Q120.1 262.0 120.1 266.6L120.1 266.6Q120.1 271.1 122.2 273.9Q124.3 276.6 127.7 276.6ZM153.8 281.6Q152.8 282.7 151.1 282.7Q149.5 282.7 148.5 281.6Q147.5 280.6 147.5 278.8L147.5 278.8L147.5 254.1Q147.5 252.4 148.4 251.4Q149.4 250.4 151.0 250.4L151.0 250.4Q152.5 250.4 153.5 251.4Q154.4 252.4 154.4 254.1L154.4 254.1L154.4 256.5L154.6 256.5Q155.2 253.8 157.1 252.1Q158.9 250.5 161.2 250.5L161.2 250.5Q162.9 250.5 163.8 251.3L163.8 251.3Q164.8 252.1 164.8 253.9L164.8 253.9Q164.8 255.6 163.8 256.5L163.8 256.5Q162.7 257.4 160.5 257.5L160.5 257.5Q154.8 257.5 154.8 263.9L154.8 263.9L154.8 278.8Q154.8 280.6 153.8 281.6ZM181.9 282.7L181.9 282.7Q174.8 282.7 170.8 278.5Q166.8 274.2 166.8 266.7L166.8 266.7Q166.8 259.2 170.8 254.8Q174.8 250.4 181.5 250.4L181.5 250.4Q187.9 250.4 191.8 254.4Q195.8 258.5 195.8 264.9L195.8 264.9Q195.8 266.5 194.9 267.4Q194.0 268.3 192.4 268.3L192.4 268.3L174.1 268.3L174.1 268.5Q174.1 272.4 176.2 274.8Q178.3 277.1 181.9 277.1L181.9 277.1Q184.3 277.1 186.1 276.1Q187.9 275.2 189.6 272.9L189.6 272.9Q190.7 271.8 192.1 271.8L192.1 271.8Q193.3 271.8 194.2 272.5Q195.0 273.3 195.0 274.6L195.0 274.6Q195.0 275.4 194.5 276.4L194.5 276.4Q193.0 279.4 189.6 281.0Q186.3 282.7 181.9 282.7ZM174.2 263.5L174.2 263.5L188.7 263.5Q188.5 260.1 186.6 258.1Q184.6 256.0 181.5 256.0Q178.5 256.0 176.4 258.1Q174.4 260.2 174.2 263.5ZM212.5 282.7L212.5 282.7Q207.6 282.7 204.3 281.0Q201.0 279.3 199.8 276.5L199.8 276.5Q199.5 275.7 199.5 275.0L199.5 275.0Q199.5 273.7 200.4 272.9Q201.2 272.1 202.6 272.1L202.6 272.1Q204.4 272.1 205.7 273.9L205.7 273.9Q207.0 275.8 208.6 276.6Q210.2 277.4 212.7 277.4L212.7 277.4Q215.3 277.4 216.9 276.4Q218.4 275.3 218.4 273.6L218.4 273.6Q218.4 272.2 217.4 271.3Q216.4 270.5 214.0 269.9L214.0 269.9L209.0 268.8Q199.9 266.8 199.9 259.9L199.9 259.9Q199.9 255.6 203.4 253.0Q206.8 250.4 212.6 250.4L212.6 250.4Q217.0 250.4 220.2 252.3Q223.4 254.1 224.2 256.9L224.2 256.9Q224.3 257.5 224.3 258.0L224.3 258.0Q224.3 259.1 223.6 259.9Q222.8 260.6 221.5 260.6L221.5 260.6Q219.6 260.6 218.7 259.2L218.7 259.2Q217.6 257.5 216.1 256.6Q214.6 255.7 212.4 255.7L212.4 255.7Q210.0 255.7 208.5 256.8Q207.0 257.8 207.0 259.5L207.0 259.5Q207.0 262.3 211.6 263.3L211.6 263.3L216.5 264.4Q221.5 265.5 223.6 267.4Q225.7 269.4 225.7 272.8L225.7 272.8Q225.7 277.3 222.1 280.0Q218.4 282.7 212.5 282.7ZM244.1 282.7L244.1 282.7Q237.0 282.7 233.0 278.5Q229.0 274.2 229.0 266.7L229.0 266.7Q229.0 259.2 233.0 254.8Q237.0 250.4 243.7 250.4L243.7 250.4Q250.1 250.4 254.0 254.4Q258.0 258.5 258.0 264.9L258.0 264.9Q258.0 266.5 257.1 267.4Q256.2 268.3 254.6 268.3L254.6 268.3L236.3 268.3L236.3 268.5Q236.3 272.4 238.4 274.8Q240.5 277.1 244.1 277.1L244.1 277.1Q246.5 277.1 248.3 276.1Q250.1 275.2 251.8 272.9L251.8 272.9Q252.9 271.8 254.3 271.8L254.3 271.8Q255.5 271.8 256.4 272.5Q257.2 273.3 257.2 274.6L257.2 274.6Q257.2 275.4 256.7 276.4L256.7 276.4Q255.2 279.4 251.8 281.0Q248.5 282.7 244.1 282.7ZM236.3 263.5L236.3 263.5L250.8 263.5Q250.7 260.1 248.8 258.1Q246.8 256.0 243.7 256.0Q240.7 256.0 238.6 258.1Q236.6 260.2 236.3 263.5ZM269.0 281.7Q268.0 282.7 266.3 282.7Q264.7 282.7 263.7 281.7Q262.7 280.6 262.7 278.8L262.7 278.8L262.7 254.1Q262.7 252.4 263.6 251.4Q264.6 250.4 266.2 250.4Q267.8 250.4 268.8 251.4Q269.8 252.4 269.8 254.1L269.8 254.1L269.8 256.3L269.9 256.3Q272.6 250.4 279.6 250.4L279.6 250.4Q284.7 250.4 287.5 253.5Q290.3 256.6 290.3 262.0L290.3 262.0L290.3 278.8Q290.3 280.6 289.3 281.7Q288.3 282.7 286.7 282.7Q285.1 282.7 284.1 281.7Q283.0 280.6 283.0 278.8L283.0 278.8L283.0 263.5Q283.0 260.1 281.5 258.4Q279.9 256.6 276.8 256.6L276.8 256.6Q273.7 256.6 271.8 258.7Q270.0 260.7 270.0 264.1L270.0 264.1L270.0 278.8Q270.0 280.6 269.0 281.7ZM298.2 274.4L298.2 274.4L298.2 256.6L296.2 256.6Q294.9 256.6 294.1 255.9Q293.3 255.1 293.3 253.8L293.3 253.8Q293.3 252.5 294.1 251.8Q294.9 251.0 296.2 251.0L296.2 251.0L298.2 251.0L298.2 246.9Q298.2 245.1 299.2 244.1Q300.2 243.1 301.9 243.1L301.9 243.1Q303.5 243.1 304.5 244.1Q305.5 245.1 305.5 246.9L305.5 246.9L305.5 251.0L308.9 251.0Q310.2 251.0 311.0 251.8Q311.8 252.5 311.8 253.8L311.8 253.8Q311.8 255.1 311.0 255.9Q310.2 256.6 308.9 256.6L308.9 256.6L305.5 256.6L305.5 272.8Q305.5 274.6 306.2 275.4Q306.8 276.2 308.4 276.4L308.4 276.4L308.9 276.4Q311.9 276.7 311.9 279.1L311.9 279.1Q311.9 280.7 310.5 281.6Q309.2 282.4 306.7 282.4L306.7 282.4L306.4 282.4Q298.2 282.4 298.2 274.4ZM325.4 282.6L325.4 282.6Q320.9 282.6 318.0 280.0Q315.0 277.4 315.0 273.2L315.0 273.2Q315.0 269.1 318.1 266.7Q321.2 264.3 326.8 263.9L326.8 263.9L335.1 263.4L335.1 261.2Q335.1 258.8 333.5 257.4Q332.0 256.1 329.3 256.1L329.3 256.1Q327.1 256.1 325.6 256.9Q324.1 257.7 322.8 259.7L322.8 259.7Q321.7 261.2 319.8 261.2L319.8 261.2Q318.5 261.2 317.6 260.4Q316.7 259.6 316.7 258.3L316.7 258.3Q316.7 257.3 317.2 256.3L317.2 256.3Q318.4 253.6 321.8 252.0Q325.1 250.4 329.6 250.4L329.6 250.4Q335.3 250.4 338.8 253.2Q342.3 256.0 342.3 260.7L342.3 260.7L342.3 279.0Q342.3 280.7 341.3 281.7Q340.3 282.7 338.7 282.7L338.7 282.7Q337.2 282.7 336.3 281.8Q335.3 280.9 335.3 279.3L335.3 279.3L335.3 277.1L335.1 277.1Q333.8 279.6 331.1 281.1Q328.5 282.6 325.4 282.6ZM327.6 277.1L327.6 277.1Q330.7 277.1 332.9 275.2Q335.1 273.3 335.1 270.6L335.1 270.6L335.1 268.2L327.9 268.6Q325.2 268.8 323.8 269.9Q322.3 271.1 322.3 272.9L322.3 272.9Q322.3 274.8 323.8 275.9Q325.2 277.1 327.6 277.1ZM350.2 274.4L350.2 274.4L350.2 256.6L348.2 256.6Q346.9 256.6 346.1 255.9Q345.3 255.1 345.3 253.8L345.3 253.8Q345.3 252.5 346.0 251.8Q346.8 251.0 348.2 251.0L348.2 251.0L350.2 251.0L350.2 246.9Q350.2 245.1 351.1 244.1Q352.1 243.1 353.8 243.1L353.8 243.1Q355.5 243.1 356.5 244.1Q357.5 245.1 357.5 246.9L357.5 246.9L357.5 251.0L360.8 251.0Q362.2 251.0 363.0 251.8Q363.8 252.5 363.8 253.8L363.8 253.8Q363.8 255.1 363.0 255.9Q362.2 256.6 360.8 256.6L360.8 256.6L357.5 256.6L357.5 272.8Q357.5 274.6 358.1 275.4Q358.8 276.2 360.4 276.4L360.4 276.4L360.9 276.4Q363.8 276.7 363.8 279.1L363.8 279.1Q363.8 280.7 362.5 281.6Q361.2 282.4 358.6 282.4L358.6 282.4L358.3 282.4Q350.2 282.4 350.2 274.4ZM375.0 245.5Q373.8 246.7 372.1 246.7Q370.4 246.7 369.2 245.5Q368.0 244.3 368.0 242.7L368.0 242.7Q368.0 241.0 369.2 239.9Q370.4 238.7 372.1 238.7L372.1 238.7Q373.8 238.7 375.0 239.9Q376.2 241.0 376.2 242.7L376.2 242.7Q376.2 244.3 375.0 245.5ZM374.7 281.6Q373.8 282.7 372.1 282.7Q370.4 282.7 369.4 281.6Q368.4 280.6 368.4 278.8L368.4 278.8L368.4 254.2Q368.4 252.5 369.4 251.4Q370.4 250.4 372.1 250.4Q373.8 250.4 374.7 251.4Q375.7 252.5 375.7 254.3L375.7 254.3L375.7 278.8Q375.7 280.6 374.7 281.6ZM406.6 278.4Q402.5 282.7 395.6 282.7Q388.7 282.7 384.6 278.4Q380.6 274.1 380.6 266.6L380.6 266.6Q380.6 259.1 384.7 254.7Q388.8 250.4 395.6 250.4L395.6 250.4Q402.5 250.4 406.5 254.7Q410.6 259.1 410.6 266.6L410.6 266.6Q410.6 274.1 406.6 278.4ZM390.0 274.2Q392.1 276.9 395.6 276.9Q399.1 276.9 401.2 274.2Q403.2 271.5 403.2 266.6L403.2 266.6Q403.2 261.7 401.2 258.9Q399.1 256.2 395.6 256.2L395.6 256.2Q392.1 256.2 390.1 258.9Q388.0 261.7 388.0 266.6L388.0 266.6Q388.0 271.5 390.0 274.2ZM421.6 281.7Q420.6 282.7 419.0 282.7Q417.3 282.7 416.3 281.7Q415.3 280.6 415.3 278.8L415.3 278.8L415.3 254.1Q415.3 252.4 416.3 251.4Q417.2 250.4 418.8 250.4Q420.4 250.4 421.4 251.4Q422.4 252.4 422.4 254.1L422.4 254.1L422.4 256.3L422.6 256.3Q425.2 250.4 432.2 250.4L432.2 250.4Q437.3 250.4 440.2 253.5Q443.0 256.6 443.0 262.0L443.0 262.0L443.0 278.8Q443.0 280.6 442.0 281.7Q441.0 282.7 439.3 282.7Q437.7 282.7 436.7 281.7Q435.7 280.6 435.7 278.8L435.7 278.8L435.7 263.5Q435.7 260.1 434.1 258.4Q432.5 256.6 429.5 256.6L429.5 256.6Q426.3 256.6 424.5 258.7Q422.6 260.7 422.6 264.1L422.6 264.1L422.6 278.8Q422.6 280.6 421.6 281.7ZM460.8 282.7L460.8 282.7Q456.0 282.7 452.6 281.0Q449.3 279.3 448.1 276.5L448.1 276.5Q447.8 275.7 447.8 275.0L447.8 275.0Q447.8 273.7 448.7 272.9Q449.5 272.1 450.9 272.1L450.9 272.1Q452.7 272.1 454.1 273.9L454.1 273.9Q455.3 275.8 456.9 276.6Q458.5 277.4 461.1 277.4L461.1 277.4Q463.6 277.4 465.2 276.4Q466.7 275.3 466.7 273.6L466.7 273.6Q466.7 272.2 465.7 271.3Q464.7 270.5 462.3 269.9L462.3 269.9L457.3 268.8Q448.3 266.8 448.3 259.9L448.3 259.9Q448.3 255.6 451.7 253.0Q455.2 250.4 460.9 250.4L460.9 250.4Q465.3 250.4 468.5 252.3Q471.7 254.1 472.5 256.9L472.5 256.9Q472.6 257.5 472.6 258.0L472.6 258.0Q472.6 259.1 471.9 259.9Q471.2 260.6 469.8 260.6L469.8 260.6Q468.0 260.6 467.0 259.2L467.0 259.2Q465.9 257.5 464.4 256.6Q462.9 255.7 460.7 255.7L460.7 255.7Q458.3 255.7 456.8 256.8Q455.3 257.8 455.3 259.5L455.3 259.5Q455.3 262.3 459.9 263.3L459.9 263.3L464.9 264.4Q469.8 265.5 471.9 267.4Q474.0 269.4 474.0 272.8L474.0 272.8Q474.0 277.3 470.4 280.0Q466.7 282.7 460.8 282.7ZM483.7 261.2L483.7 261.2Q481.9 261.2 480.7 260.0Q479.5 258.8 479.5 257.0Q479.5 255.3 480.7 254.0Q481.9 252.8 483.7 252.8L483.7 252.8Q485.5 252.8 486.7 254.0Q487.9 255.3 487.9 257.0Q487.9 258.8 486.7 260.0Q485.5 261.2 483.7 261.2ZM483.7 282.4L483.7 282.4Q481.9 282.4 480.7 281.2Q479.5 280.0 479.5 278.2L479.5 278.2Q479.5 276.4 480.7 275.2Q481.9 274.0 483.7 274.0L483.7 274.0Q485.5 274.0 486.7 275.2Q487.9 276.4 487.9 278.2L487.9 278.2Q487.9 280.0 486.7 281.2Q485.5 282.4 483.7 282.4Z M523.0 282.1L511.3 282.1Q509.5 282.1 508.5 281.0Q507.5 280.0 507.5 278.2L507.5 278.2L507.5 243.7Q507.5 241.9 508.5 240.8Q509.5 239.8 511.3 239.8L511.3 239.8L523.0 239.8Q532.5 239.8 537.8 245.3Q543.1 250.8 543.1 260.8L543.1 260.8Q543.1 270.9 537.8 276.5Q532.5 282.1 523.0 282.1L523.0 282.1ZM515.1 246.2L515.1 275.7L522.2 275.7Q528.6 275.7 532.0 271.9Q535.4 268.1 535.4 260.9L535.4 260.9Q535.4 253.8 531.9 250.0Q528.5 246.2 522.2 246.2L522.2 246.2L515.1 246.2ZM555.0 245.5Q553.8 246.7 552.1 246.7Q550.4 246.7 549.2 245.5Q548.1 244.3 548.1 242.7L548.1 242.7Q548.1 241.0 549.2 239.9Q550.4 238.7 552.1 238.7L552.1 238.7Q553.8 238.7 555.0 239.9Q556.2 241.0 556.2 242.7L556.2 242.7Q556.2 244.3 555.0 245.5ZM554.8 281.6Q553.8 282.7 552.1 282.7Q550.4 282.7 549.5 281.6Q548.5 280.6 548.5 278.8L548.5 278.8L548.5 254.2Q548.5 252.5 549.5 251.4Q550.4 250.4 552.1 250.4Q553.8 250.4 554.8 251.4Q555.8 252.5 555.8 254.3L555.8 254.3L555.8 278.8Q555.8 280.6 554.8 281.6ZM573.9 282.7L573.9 282.7Q569.0 282.7 565.7 281.0Q562.4 279.3 561.2 276.5L561.2 276.5Q560.9 275.7 560.9 275.0L560.9 275.0Q560.9 273.7 561.8 272.9Q562.6 272.1 564.0 272.1L564.0 272.1Q565.8 272.1 567.1 273.9L567.1 273.9Q568.4 275.8 570.0 276.6Q571.6 277.4 574.1 277.4L574.1 277.4Q576.7 277.4 578.3 276.4Q579.8 275.3 579.8 273.6L579.8 273.6Q579.8 272.2 578.8 271.3Q577.8 270.5 575.4 269.9L575.4 269.9L570.4 268.8Q561.3 266.8 561.3 259.9L561.3 259.9Q561.3 255.6 564.8 253.0Q568.3 250.4 574.0 250.4L574.0 250.4Q578.4 250.4 581.6 252.3Q584.8 254.1 585.6 256.9L585.6 256.9Q585.7 257.5 585.7 258.0L585.7 258.0Q585.7 259.1 585.0 259.9Q584.2 260.6 582.9 260.6L582.9 260.6Q581.1 260.6 580.1 259.2L580.1 259.2Q579.0 257.5 577.5 256.6Q576.0 255.7 573.8 255.7L573.8 255.7Q571.4 255.7 569.9 256.8Q568.4 257.8 568.4 259.5L568.4 259.5Q568.4 262.3 573.0 263.3L573.0 263.3L577.9 264.4Q582.9 265.5 585.0 267.4Q587.1 269.4 587.1 272.8L587.1 272.8Q587.1 277.3 583.5 280.0Q579.8 282.7 573.9 282.7ZM605.4 282.7L605.4 282.7Q598.5 282.7 594.5 278.4Q590.4 274.0 590.4 266.6L590.4 266.6Q590.4 259.2 594.5 254.8Q598.5 250.4 605.3 250.4L605.3 250.4Q609.9 250.4 613.4 252.5Q617.0 254.6 618.1 257.9L618.1 257.9Q618.5 258.9 618.5 259.6L618.5 259.6Q618.5 261.0 617.6 261.8Q616.7 262.6 615.3 262.6L615.3 262.6Q614.2 262.6 613.5 262.1Q612.8 261.6 612.1 260.5L612.1 260.5Q609.9 256.3 605.5 256.3L605.5 256.3Q602.0 256.3 599.9 259.1Q597.8 261.8 597.8 266.6L597.8 266.6Q597.8 271.4 599.9 274.1Q602.0 276.8 605.5 276.8L605.5 276.8Q609.9 276.8 612.1 272.8L612.1 272.8Q612.9 271.6 613.6 271.1Q614.3 270.6 615.5 270.6L615.5 270.6Q616.8 270.6 617.7 271.4Q618.6 272.2 618.6 273.6L618.6 273.6Q618.6 274.4 618.1 275.4L618.1 275.4Q616.8 278.6 613.3 280.7Q609.7 282.7 605.4 282.7ZM648.1 278.4Q644.1 282.7 637.2 282.7Q630.3 282.7 626.2 278.4Q622.2 274.1 622.2 266.6L622.2 266.6Q622.2 259.1 626.3 254.7Q630.4 250.4 637.2 250.4L637.2 250.4Q644.0 250.4 648.1 254.7Q652.2 259.1 652.2 266.6L652.2 266.6Q652.2 274.1 648.1 278.4ZM631.6 274.2Q633.7 276.9 637.2 276.9Q640.7 276.9 642.8 274.2Q644.8 271.5 644.8 266.6L644.8 266.6Q644.8 261.7 642.8 258.9Q640.7 256.2 637.2 256.2L637.2 256.2Q633.7 256.2 631.6 258.9Q629.6 261.7 629.6 266.6L629.6 266.6Q629.6 271.5 631.6 274.2ZM669.3 282.7L669.3 282.7Q667.3 282.7 666.1 281.8Q664.9 280.9 664.2 278.9L664.2 278.9L655.5 255.8Q655.1 254.7 655.1 253.7L655.1 253.7Q655.1 252.3 656.1 251.3Q657.1 250.4 658.7 250.4L658.7 250.4Q661.4 250.4 662.2 253.3L662.2 253.3L669.3 275.3L669.4 275.3L676.5 253.3Q677.3 250.4 679.9 250.4L679.9 250.4Q681.5 250.4 682.5 251.3Q683.5 252.3 683.5 253.7L683.5 253.7Q683.5 254.7 683.1 255.7L683.1 255.7L674.4 278.9Q673.7 280.8 672.5 281.8Q671.3 282.7 669.3 282.7ZM701.4 282.7L701.4 282.7Q694.3 282.7 690.3 278.5Q686.3 274.2 686.3 266.7L686.3 266.7Q686.3 259.2 690.3 254.8Q694.3 250.4 701.0 250.4L701.0 250.4Q707.3 250.4 711.3 254.4Q715.3 258.5 715.3 264.9L715.3 264.9Q715.3 266.5 714.4 267.4Q713.5 268.3 711.9 268.3L711.9 268.3L693.6 268.3L693.6 268.5Q693.6 272.4 695.7 274.8Q697.8 277.1 701.3 277.1L701.3 277.1Q703.8 277.1 705.6 276.1Q707.3 275.2 709.1 272.9L709.1 272.9Q710.1 271.8 711.5 271.8L711.5 271.8Q712.8 271.8 713.6 272.5Q714.5 273.3 714.5 274.6L714.5 274.6Q714.5 275.4 714.0 276.4L714.0 276.4Q712.4 279.4 709.1 281.0Q705.8 282.7 701.4 282.7ZM693.6 263.5L693.6 263.5L708.1 263.5Q708.0 260.1 706.0 258.1Q704.1 256.0 701.0 256.0Q697.9 256.0 695.9 258.1Q693.8 260.2 693.6 263.5ZM726.3 281.6Q725.3 282.7 723.6 282.7Q721.9 282.7 720.9 281.6Q720.0 280.6 720.0 278.8L720.0 278.8L720.0 254.1Q720.0 252.4 720.9 251.4Q721.9 250.4 723.4 250.4L723.4 250.4Q725.0 250.4 725.9 251.4Q726.9 252.4 726.9 254.1L726.9 254.1L726.9 256.5L727.0 256.5Q727.7 253.8 729.5 252.1Q731.3 250.5 733.7 250.5L733.7 250.5Q735.4 250.5 736.3 251.3L736.3 251.3Q737.3 252.1 737.3 253.9L737.3 253.9Q737.3 255.6 736.2 256.5L736.2 256.5Q735.2 257.4 733.0 257.5L733.0 257.5Q727.2 257.5 727.2 263.9L727.2 263.9L727.2 278.8Q727.2 280.6 726.3 281.6ZM747.3 245.5Q746.1 246.7 744.4 246.7Q742.7 246.7 741.5 245.5Q740.3 244.3 740.3 242.7L740.3 242.7Q740.3 241.0 741.5 239.9Q742.7 238.7 744.4 238.7L744.4 238.7Q746.1 238.7 747.3 239.9Q748.5 241.0 748.5 242.7L748.5 242.7Q748.5 244.3 747.3 245.5ZM747.1 281.6Q746.1 282.7 744.4 282.7Q742.7 282.7 741.7 281.6Q740.8 280.6 740.8 278.8L740.8 278.8L740.8 254.2Q740.8 252.5 741.7 251.4Q742.7 250.4 744.4 250.4Q746.1 250.4 747.1 251.4Q748.0 252.5 748.0 254.3L748.0 254.3L748.0 278.8Q748.0 280.6 747.1 281.6ZM760.5 281.7Q759.4 282.7 757.8 282.7Q756.2 282.7 755.2 281.7Q754.2 280.6 754.2 278.8L754.2 278.8L754.2 254.1Q754.2 252.4 755.1 251.4Q756.0 250.4 757.7 250.4Q759.3 250.4 760.3 251.4Q761.3 252.4 761.3 254.1L761.3 254.1L761.3 256.3L761.4 256.3Q764.0 250.4 771.1 250.4L771.1 250.4Q776.2 250.4 779.0 253.5Q781.8 256.6 781.8 262.0L781.8 262.0L781.8 278.8Q781.8 280.6 780.8 281.7Q779.8 282.7 778.2 282.7Q776.6 282.7 775.5 281.7Q774.5 280.6 774.5 278.8L774.5 278.8L774.5 263.5Q774.5 260.1 773.0 258.4Q771.4 256.6 768.3 256.6L768.3 256.6Q765.2 256.6 763.3 258.7Q761.5 260.7 761.5 264.1L761.5 264.1L761.5 278.8Q761.5 280.6 760.5 281.7ZM801.0 293.8L801.0 293.8Q796.7 293.7 793.4 292.2Q790.1 290.7 788.4 288.1L788.4 288.1Q787.8 287.1 787.8 285.9L787.8 285.9Q787.8 284.7 788.7 283.9Q789.5 283.1 790.9 283.1L790.9 283.1Q792.3 283.1 793.5 284.3L793.5 284.3Q795.4 286.2 797.2 287.1Q798.9 287.9 801.1 288.0L801.1 288.0Q804.8 288.0 806.9 286.1Q809.0 284.2 809.0 281.1L809.0 281.1L809.0 276.2L808.9 276.2Q807.6 278.7 805.0 280.2Q802.4 281.8 799.1 281.8L799.1 281.8Q793.3 281.8 789.8 277.5Q786.4 273.3 786.4 266.2L786.4 266.2Q786.4 258.9 789.8 254.7Q793.3 250.5 799.3 250.5L799.3 250.5Q802.5 250.5 805.0 252.0Q807.5 253.6 808.9 256.3L808.9 256.3L809.0 256.3L809.0 254.1Q809.0 252.4 810.1 251.4Q811.1 250.4 812.7 250.4Q814.3 250.4 815.3 251.4Q816.3 252.4 816.3 254.1L816.3 254.1L816.3 281.1Q816.3 287.0 812.3 290.4Q808.2 293.8 801.0 293.8ZM801.4 276.1L801.4 276.1Q804.9 276.1 807.0 273.4Q809.1 270.8 809.1 266.2L809.1 266.2Q809.1 261.7 807.0 259.0Q804.9 256.3 801.4 256.3L801.4 256.3Q797.9 256.3 795.9 259.0Q793.8 261.7 793.8 266.2L793.8 266.2Q793.8 270.8 795.9 273.5Q797.9 276.1 801.4 276.1Z M849.9 282.8L849.9 282.8Q843.8 282.8 839.6 280.5Q835.5 278.2 834.2 274.5L834.2 274.5Q833.8 273.4 833.8 272.3L833.8 272.3Q833.8 270.7 834.7 269.8Q835.6 268.8 837.1 268.8L837.1 268.8Q838.4 268.8 839.2 269.4Q840.1 269.9 840.7 271.2L840.7 271.2Q841.7 273.9 844.1 275.2Q846.6 276.5 850.1 276.5L850.1 276.5Q854.0 276.5 856.4 274.8Q858.8 273.1 858.8 270.5L858.8 270.5Q858.8 268.2 857.0 266.7Q855.3 265.3 851.2 264.4L851.2 264.4L846.7 263.5Q834.2 260.9 834.2 251.6L834.2 251.6Q834.2 246.0 838.6 242.6Q843.0 239.1 849.9 239.1L849.9 239.1Q855.6 239.1 859.6 241.5Q863.7 243.9 864.9 248.0L864.9 248.0Q865.2 248.7 865.2 249.8L865.2 249.8Q865.2 251.1 864.3 252.0Q863.4 252.9 861.9 252.9L861.9 252.9Q859.5 252.9 858.3 250.5L858.3 250.5Q856.2 245.4 849.9 245.4L849.9 245.4Q846.3 245.4 844.1 246.9Q841.9 248.5 841.9 251.1L841.9 251.1Q841.9 253.3 843.6 254.7Q845.3 256.2 849.2 257.0L849.2 257.0L853.8 257.9Q860.4 259.3 863.4 262.1Q866.4 264.9 866.4 269.6L866.4 269.6Q866.4 275.7 862.0 279.2Q857.5 282.8 849.9 282.8ZM877.6 292.1Q876.6 293.1 875.0 293.1Q873.3 293.1 872.4 292.1Q871.4 291.1 871.4 289.3L871.4 289.3L871.4 254.2Q871.4 252.4 872.3 251.4Q873.3 250.4 874.9 250.4L874.9 250.4Q876.5 250.4 877.5 251.4Q878.5 252.4 878.5 254.2L878.5 254.2L878.5 256.4L878.6 256.4Q880.0 253.6 882.5 252.1Q885.1 250.5 888.4 250.5L888.4 250.5Q894.3 250.5 897.8 254.8Q901.3 259.1 901.3 266.6L901.3 266.6Q901.3 274.0 897.8 278.3Q894.4 282.6 888.5 282.6L888.5 282.6Q885.2 282.6 882.6 281.1Q880.1 279.6 878.8 276.9L878.8 276.9L878.7 276.9L878.7 289.3Q878.7 291.1 877.6 292.1ZM886.2 276.6L886.2 276.6Q889.7 276.6 891.8 273.9Q893.8 271.2 893.8 266.6L893.8 266.6Q893.8 262.0 891.8 259.2Q889.7 256.5 886.2 256.5L886.2 256.5Q882.8 256.5 880.7 259.3Q878.6 262.0 878.6 266.6L878.6 266.6Q878.6 271.1 880.7 273.9Q882.8 276.6 886.2 276.6ZM915.1 282.6L915.1 282.6Q910.6 282.6 907.6 280.0Q904.7 277.4 904.7 273.2L904.7 273.2Q904.7 269.1 907.8 266.7Q910.8 264.3 916.5 263.9L916.5 263.9L924.8 263.4L924.8 261.2Q924.8 258.8 923.2 257.4Q921.7 256.1 919.0 256.1L919.0 256.1Q916.8 256.1 915.3 256.9Q913.8 257.7 912.5 259.7L912.5 259.7Q911.3 261.2 909.5 261.2L909.5 261.2Q908.2 261.2 907.3 260.4Q906.4 259.6 906.4 258.3L906.4 258.3Q906.4 257.3 906.9 256.3L906.9 256.3Q908.1 253.6 911.5 252.0Q914.8 250.4 919.3 250.4L919.3 250.4Q925.0 250.4 928.5 253.2Q932.0 256.0 932.0 260.7L932.0 260.7L932.0 279.0Q932.0 280.7 931.0 281.7Q930.0 282.7 928.4 282.7L928.4 282.7Q926.9 282.7 926.0 281.8Q925.0 280.9 924.9 279.3L924.9 279.3L924.9 277.1L924.8 277.1Q923.5 279.6 920.8 281.1Q918.1 282.6 915.1 282.6ZM917.3 277.1L917.3 277.1Q920.4 277.1 922.6 275.2Q924.8 273.3 924.8 270.6L924.8 270.6L924.8 268.2L917.6 268.6Q914.9 268.8 913.5 269.9Q912.0 271.1 912.0 272.9L912.0 272.9Q912.0 274.8 913.5 275.9Q914.9 277.1 917.3 277.1ZM951.5 282.7L951.5 282.7Q944.7 282.7 940.6 278.4Q936.5 274.0 936.5 266.6L936.5 266.6Q936.5 259.2 940.6 254.8Q944.6 250.4 951.4 250.4L951.4 250.4Q956.0 250.4 959.5 252.5Q963.1 254.6 964.2 257.9L964.2 257.9Q964.6 258.9 964.6 259.6L964.6 259.6Q964.6 261.0 963.7 261.8Q962.8 262.6 961.4 262.6L961.4 262.6Q960.4 262.6 959.6 262.1Q958.9 261.6 958.3 260.5L958.3 260.5Q956.0 256.3 951.6 256.3L951.6 256.3Q948.1 256.3 946.0 259.1Q944.0 261.8 944.0 266.6L944.0 266.6Q944.0 271.4 946.0 274.1Q948.1 276.8 951.6 276.8L951.6 276.8Q956.0 276.8 958.2 272.8L958.2 272.8Q959.0 271.6 959.7 271.1Q960.4 270.6 961.6 270.6L961.6 270.6Q962.9 270.6 963.8 271.4Q964.7 272.2 964.7 273.6L964.7 273.6Q964.7 274.4 964.2 275.4L964.2 275.4Q962.9 278.6 959.4 280.7Q955.8 282.7 951.5 282.7ZM983.4 282.7L983.4 282.7Q976.2 282.7 972.3 278.5Q968.3 274.2 968.3 266.7L968.3 266.7Q968.3 259.2 972.3 254.8Q976.2 250.4 982.9 250.4L982.9 250.4Q989.3 250.4 993.3 254.4Q997.2 258.5 997.2 264.9L997.2 264.9Q997.2 266.5 996.4 267.4Q995.5 268.3 993.8 268.3L993.8 268.3L975.5 268.3L975.5 268.5Q975.5 272.4 977.6 274.8Q979.8 277.1 983.3 277.1L983.3 277.1Q985.8 277.1 987.5 276.1Q989.3 275.2 991.1 272.9L991.1 272.9Q992.1 271.8 993.5 271.8L993.5 271.8Q994.8 271.8 995.6 272.5Q996.5 273.3 996.5 274.6L996.5 274.6Q996.5 275.4 996.0 276.4L996.0 276.4Q994.4 279.4 991.1 281.0Q987.8 282.7 983.4 282.7ZM975.6 263.5L975.6 263.5L990.1 263.5Q990.0 260.1 988.0 258.1Q986.1 256.0 983.0 256.0Q979.9 256.0 977.9 258.1Q975.8 260.2 975.6 263.5Z M57.8 365.1L57.8 365.1Q56.1 365.1 55.1 364.1Q54.1 363.0 54.1 361.2L54.1 361.2L54.1 328.7L44.4 328.7Q42.8 328.7 41.9 327.8Q40.9 327.0 40.9 325.5Q40.9 324.0 41.9 323.2Q42.8 322.3 44.4 322.3L44.4 322.3L71.3 322.3Q72.8 322.3 73.8 323.2Q74.7 324.0 74.7 325.5Q74.7 327.0 73.8 327.8Q72.8 328.7 71.3 328.7L71.3 328.7L61.6 328.7L61.6 361.2Q61.6 363.0 60.6 364.1Q59.6 365.1 57.8 365.1ZM103.3 360.9Q99.3 365.2 92.4 365.2Q85.5 365.2 81.4 360.9Q77.4 356.6 77.4 349.1L77.4 349.1Q77.4 341.6 81.5 337.2Q85.6 332.9 92.4 332.9L92.4 332.9Q99.2 332.9 103.3 337.2Q107.4 341.6 107.4 349.1L107.4 349.1Q107.4 356.6 103.3 360.9ZM86.8 356.7Q88.9 359.4 92.4 359.4Q95.9 359.4 97.9 356.7Q100 354.0 100 349.1L100 349.1Q100 344.2 97.9 341.4Q95.9 338.7 92.4 338.7L92.4 338.7Q88.9 338.7 86.8 341.4Q84.8 344.2 84.8 349.1L84.8 349.1Q84.8 354.0 86.8 356.7ZM118.4 374.6Q117.4 375.6 115.7 375.6Q114.1 375.6 113.1 374.6Q112.1 373.6 112.1 371.8L112.1 371.8L112.1 336.7Q112.1 334.9 113.1 333.9Q114.1 332.9 115.6 332.9L115.6 332.9Q117.3 332.9 118.2 333.9Q119.2 334.9 119.2 336.7L119.2 336.7L119.2 338.9L119.4 338.9Q120.7 336.1 123.3 334.6Q125.8 333.0 129.2 333.0L129.2 333.0Q135.1 333.0 138.6 337.3Q142.0 341.6 142.0 349.1L142.0 349.1Q142.0 356.5 138.6 360.8Q135.1 365.1 129.3 365.1L129.3 365.1Q125.9 365.1 123.4 363.6Q120.8 362.1 119.5 359.4L119.5 359.4L119.4 359.4L119.4 371.8Q119.4 373.6 118.4 374.6ZM126.9 359.1L126.9 359.1Q130.5 359.1 132.5 356.4Q134.6 353.7 134.6 349.1L134.6 349.1Q134.6 344.5 132.5 341.7Q130.4 339.0 126.9 339.0L126.9 339.0Q123.5 339.0 121.4 341.8Q119.4 344.5 119.3 349.1L119.3 349.1Q119.4 353.6 121.4 356.4Q123.5 359.1 126.9 359.1ZM171.4 360.9Q167.4 365.2 160.5 365.2Q153.6 365.2 149.5 360.9Q145.4 356.6 145.4 349.1L145.4 349.1Q145.4 341.6 149.5 337.2Q153.6 332.9 160.5 332.9L160.5 332.9Q167.3 332.9 171.4 337.2Q175.5 341.6 175.5 349.1L175.5 349.1Q175.5 356.6 171.4 360.9ZM154.9 356.7Q157.0 359.4 160.5 359.4Q164.0 359.4 166.0 356.7Q168.1 354.0 168.1 349.1L168.1 349.1Q168.1 344.2 166.0 341.4Q164.0 338.7 160.5 338.7L160.5 338.7Q157.0 338.7 154.9 341.4Q152.9 344.2 152.9 349.1L152.9 349.1Q152.9 354.0 154.9 356.7ZM186.7 364.2Q185.7 365.2 184.1 365.2Q182.4 365.2 181.4 364.2Q180.4 363.1 180.4 361.3L180.4 361.3L180.4 325.6Q180.4 323.7 181.4 322.7Q182.4 321.7 184.1 321.7Q185.7 321.7 186.7 322.7Q187.7 323.7 187.7 325.6L187.7 325.6L187.7 361.3Q187.7 363.1 186.7 364.2ZM218.6 360.9Q214.5 365.2 207.6 365.2Q200.8 365.2 196.7 360.9Q192.6 356.6 192.6 349.1L192.6 349.1Q192.6 341.6 196.7 337.2Q200.8 332.9 207.6 332.9L207.6 332.9Q214.5 332.9 218.6 337.2Q222.7 341.6 222.7 349.1L222.7 349.1Q222.7 356.6 218.6 360.9ZM202.1 356.7Q204.1 359.4 207.6 359.4Q211.2 359.4 213.2 356.7Q215.3 354.0 215.3 349.1L215.3 349.1Q215.3 344.2 213.2 341.4Q211.2 338.7 207.6 338.7L207.6 338.7Q204.2 338.7 202.1 341.4Q200.0 344.2 200.0 349.1L200.0 349.1Q200.0 354.0 202.1 356.7ZM240.7 376.3L240.7 376.3Q236.4 376.2 233.1 374.7Q229.8 373.2 228.1 370.6L228.1 370.6Q227.5 369.6 227.5 368.4L227.5 368.4Q227.5 367.2 228.4 366.4Q229.2 365.6 230.6 365.6L230.6 365.6Q232.0 365.6 233.2 366.8L233.2 366.8Q235.1 368.7 236.9 369.6Q238.6 370.4 240.8 370.5L240.8 370.5Q244.5 370.5 246.6 368.6Q248.7 366.7 248.7 363.6L248.7 363.6L248.7 358.7L248.6 358.7Q247.3 361.2 244.7 362.7Q242.1 364.3 238.8 364.3L238.8 364.3Q233.0 364.3 229.5 360.0Q226.1 355.8 226.1 348.7L226.1 348.7Q226.1 341.4 229.5 337.2Q233.0 333.0 239.0 333.0L239.0 333.0Q242.2 333.0 244.7 334.5Q247.2 336.1 248.6 338.8L248.6 338.8L248.7 338.8L248.7 336.6Q248.7 334.9 249.8 333.9Q250.8 332.9 252.4 332.9Q254.0 332.9 255.0 333.9Q256.0 334.9 256.0 336.6L256.0 336.6L256.0 363.6Q256.0 369.5 252.0 372.9Q247.9 376.3 240.7 376.3ZM241.1 358.6L241.1 358.6Q244.6 358.6 246.7 355.9Q248.8 353.3 248.8 348.7L248.8 348.7Q248.8 344.2 246.7 341.5Q244.6 338.8 241.1 338.8L241.1 338.8Q237.6 338.8 235.6 341.5Q233.5 344.2 233.5 348.7L233.5 348.7Q233.5 353.3 235.6 356.0Q237.6 358.6 241.1 358.6ZM266.4 376.1L266.4 376.1Q264.0 376.1 262.7 375.2Q261.4 374.3 261.4 372.7L261.4 372.7Q261.4 371.6 262.1 370.9Q262.9 370.2 264.1 370.2L264.1 370.2Q264.4 370.2 264.9 370.2Q265.4 370.2 265.7 370.2L265.7 370.2Q268.7 370.2 270.1 366.7L270.1 366.7L270.7 365.1L260.5 338.4Q260.1 337.2 260.1 336.3L260.1 336.3Q260.1 334.8 261.1 333.9Q262.2 332.9 263.8 332.9L263.8 332.9Q265.2 332.9 266.0 333.6Q266.8 334.3 267.3 335.8L267.3 335.8L274.7 358.4L274.8 358.4L282.3 335.8Q282.7 334.3 283.6 333.6Q284.4 332.9 285.8 332.9L285.8 332.9Q287.3 332.9 288.3 333.8Q289.3 334.8 289.3 336.2L289.3 336.2Q289.3 337.2 288.9 338.3L288.9 338.3L278.7 365.7Q276.6 371.5 273.8 373.8Q271.1 376.1 266.4 376.1Z M317.7 365.2L317.7 365.2Q315.7 365.2 314.5 364.3Q313.3 363.4 312.6 361.4L312.6 361.4L303.9 338.3Q303.5 337.2 303.5 336.2L303.5 336.2Q303.5 334.8 304.5 333.8Q305.5 332.9 307.1 332.9L307.1 332.9Q309.8 332.9 310.6 335.8L310.6 335.8L317.7 357.8L317.8 357.8L324.9 335.8Q325.7 332.9 328.3 332.9L328.3 332.9Q329.9 332.9 330.9 333.8Q331.9 334.8 331.9 336.2L331.9 336.2Q331.9 337.2 331.5 338.2L331.5 338.2L322.8 361.4Q322.1 363.3 320.9 364.3Q319.7 365.2 317.7 365.2ZM342.7 328.0Q341.5 329.2 339.8 329.2Q338.1 329.2 336.9 328.0Q335.8 326.8 335.8 325.2L335.8 325.2Q335.8 323.5 336.9 322.4Q338.1 321.2 339.8 321.2L339.8 321.2Q341.5 321.2 342.7 322.4Q343.9 323.5 343.9 325.2L343.9 325.2Q343.9 326.8 342.7 328.0ZM342.5 364.1Q341.5 365.2 339.8 365.2Q338.1 365.2 337.1 364.1Q336.2 363.1 336.2 361.3L336.2 361.3L336.2 336.7Q336.2 335.0 337.1 333.9Q338.1 332.9 339.8 332.9Q341.5 332.9 342.5 333.9Q343.5 335.0 343.5 336.8L343.5 336.8L343.5 361.3Q343.5 363.1 342.5 364.1ZM358.7 365.1L358.7 365.1Q354.2 365.1 351.2 362.5Q348.3 359.9 348.3 355.7L348.3 355.7Q348.3 351.6 351.4 349.2Q354.4 346.8 360.1 346.4L360.1 346.4L368.4 345.9L368.4 343.7Q368.4 341.3 366.8 339.9Q365.3 338.6 362.6 338.6L362.6 338.6Q360.4 338.6 358.9 339.4Q357.4 340.2 356.1 342.2L356.1 342.2Q354.9 343.7 353.1 343.7L353.1 343.7Q351.7 343.7 350.9 342.9Q350.0 342.1 350.0 340.8L350.0 340.8Q350.0 339.8 350.5 338.8L350.5 338.8Q351.7 336.1 355.0 334.5Q358.4 332.9 362.9 332.9L362.9 332.9Q368.6 332.9 372.1 335.7Q375.6 338.5 375.6 343.2L375.6 343.2L375.6 361.5Q375.6 363.2 374.6 364.2Q373.6 365.2 372.0 365.2L372.0 365.2Q370.5 365.2 369.6 364.3Q368.6 363.4 368.5 361.8L368.5 361.8L368.5 359.6L368.4 359.6Q367.1 362.1 364.4 363.6Q361.7 365.1 358.7 365.1ZM360.9 359.6L360.9 359.6Q364.0 359.6 366.2 357.7Q368.4 355.8 368.4 353.1L368.4 353.1L368.4 350.7L361.2 351.1Q358.5 351.3 357.1 352.4Q355.6 353.6 355.6 355.4L355.6 355.4Q355.6 357.3 357.1 358.4Q358.5 359.6 360.9 359.6Z M409.1 365.3L409.1 365.3Q402.9 365.3 398.8 363.0Q394.6 360.7 393.3 357.0L393.3 357.0Q392.9 355.9 392.9 354.8L392.9 354.8Q392.9 353.2 393.9 352.3Q394.8 351.3 396.3 351.3L396.3 351.3Q397.5 351.3 398.4 351.9Q399.2 352.4 399.8 353.7L399.8 353.7Q400.8 356.4 403.3 357.7Q405.8 359.0 409.3 359.0L409.3 359.0Q413.1 359.0 415.5 357.3Q418.0 355.6 418.0 353.0L418.0 353.0Q418.0 350.7 416.2 349.2Q414.4 347.8 410.3 346.9L410.3 346.9L405.8 346.0Q393.4 343.4 393.4 334.1L393.4 334.1Q393.4 328.5 397.8 325.1Q402.2 321.6 409.1 321.6L409.1 321.6Q414.7 321.6 418.8 324.0Q422.8 326.4 424.1 330.5L424.1 330.5Q424.3 331.2 424.3 332.3L424.3 332.3Q424.3 333.6 423.4 334.5Q422.5 335.4 421.1 335.4L421.1 335.4Q418.6 335.4 417.4 333.0L417.4 333.0Q415.4 327.9 409.0 327.9L409.0 327.9Q405.5 327.9 403.2 329.4Q401.0 331.0 401.0 333.6L401.0 333.6Q401.0 335.8 402.7 337.2Q404.5 338.7 408.4 339.5L408.4 339.5L412.9 340.4Q419.6 341.8 422.6 344.6Q425.6 347.4 425.6 352.1L425.6 352.1Q425.6 358.2 421.1 361.7Q416.7 365.3 409.1 365.3ZM444.3 365.2L444.3 365.2Q437.2 365.2 433.2 361.0Q429.2 356.7 429.2 349.2L429.2 349.2Q429.2 341.7 433.2 337.3Q437.2 332.9 443.9 332.9L443.9 332.9Q450.2 332.9 454.2 336.9Q458.2 341.0 458.2 347.4L458.2 347.4Q458.2 349.0 457.3 349.9Q456.4 350.8 454.8 350.8L454.8 350.8L436.5 350.8L436.5 351.0Q436.5 354.9 438.6 357.3Q440.7 359.6 444.2 359.6L444.2 359.6Q446.7 359.6 448.5 358.6Q450.2 357.7 452.0 355.4L452.0 355.4Q453.1 354.3 454.5 354.3L454.5 354.3Q455.7 354.3 456.6 355.0Q457.4 355.8 457.4 357.1L457.4 357.1Q457.4 357.9 456.9 358.9L456.9 358.9Q455.3 361.9 452.0 363.5Q448.7 365.2 444.3 365.2ZM436.5 346.0L436.5 346.0L451.0 346.0Q450.9 342.6 449.0 340.6Q447.0 338.5 443.9 338.5Q440.8 338.5 438.8 340.6Q436.7 342.7 436.5 346.0ZM469.2 364.2Q468.1 365.2 466.5 365.2Q464.9 365.2 463.9 364.2Q462.9 363.1 462.9 361.3L462.9 361.3L462.9 336.6Q462.9 334.9 463.8 333.9Q464.7 332.9 466.4 332.9Q468.0 332.9 469.0 333.9Q470.0 334.9 470.0 336.6L470.0 336.6L470.0 338.8L470.1 338.8Q472.7 332.9 479.8 332.9L479.8 332.9Q484.9 332.9 487.7 336.0Q490.5 339.1 490.5 344.5L490.5 344.5L490.5 361.3Q490.5 363.1 489.5 364.2Q488.5 365.2 486.9 365.2Q485.3 365.2 484.2 364.2Q483.2 363.1 483.2 361.3L483.2 361.3L483.2 346.0Q483.2 342.6 481.7 340.9Q480.1 339.1 477.0 339.1L477.0 339.1Q473.9 339.1 472.0 341.2Q470.2 343.2 470.2 346.6L470.2 346.6L470.2 361.3Q470.2 363.1 469.2 364.2ZM508.3 365.2L508.3 365.2Q503.5 365.2 500.2 363.5Q496.8 361.8 495.7 359.0L495.7 359.0Q495.4 358.2 495.4 357.5L495.4 357.5Q495.4 356.2 496.2 355.4Q497.1 354.6 498.4 354.6L498.4 354.6Q500.3 354.6 501.6 356.4L501.6 356.4Q502.9 358.3 504.5 359.1Q506.1 359.9 508.6 359.9L508.6 359.9Q511.2 359.9 512.7 358.9Q514.3 357.8 514.3 356.1L514.3 356.1Q514.3 354.7 513.3 353.8Q512.3 353.0 509.9 352.4L509.9 352.4L504.9 351.3Q495.8 349.3 495.8 342.4L495.8 342.4Q495.8 338.1 499.3 335.5Q502.7 332.9 508.5 332.9L508.5 332.9Q512.9 332.9 516.1 334.8Q519.3 336.6 520.0 339.4L520.0 339.4Q520.2 340.0 520.2 340.5L520.2 340.5Q520.2 341.6 519.4 342.4Q518.7 343.1 517.4 343.1L517.4 343.1Q515.5 343.1 514.6 341.7L514.6 341.7Q513.4 340.0 512.0 339.1Q510.5 338.2 508.3 338.2L508.3 338.2Q505.9 338.2 504.4 339.3Q502.9 340.3 502.9 342.0L502.9 342.0Q502.9 344.8 507.5 345.8L507.5 345.8L512.4 346.9Q517.3 348.0 519.5 349.9Q521.6 351.9 521.6 355.3L521.6 355.3Q521.6 359.8 517.9 362.5Q514.3 365.2 508.3 365.2ZM550.9 360.9Q546.8 365.2 539.9 365.2Q533.0 365.2 529.0 360.9Q524.9 356.6 524.9 349.1L524.9 349.1Q524.9 341.6 529.0 337.2Q533.1 332.9 539.9 332.9L539.9 332.9Q546.8 332.9 550.9 337.2Q555.0 341.6 555.0 349.1L555.0 349.1Q555.0 356.6 550.9 360.9ZM534.4 356.7Q536.4 359.4 539.9 359.4Q543.4 359.4 545.5 356.7Q547.5 354.0 547.5 349.1L547.5 349.1Q547.5 344.2 545.5 341.4Q543.4 338.7 539.9 338.7L539.9 338.7Q536.4 338.7 534.4 341.4Q532.3 344.2 532.3 349.1L532.3 349.1Q532.3 354.0 534.4 356.7ZM565.9 364.1Q564.9 365.2 563.3 365.2Q561.6 365.2 560.6 364.1Q559.6 363.1 559.6 361.3L559.6 361.3L559.6 336.6Q559.6 334.9 560.6 333.9Q561.5 332.9 563.1 332.9L563.1 332.9Q564.6 332.9 565.6 333.9Q566.6 334.9 566.6 336.6L566.6 336.6L566.6 339.0L566.7 339.0Q567.4 336.3 569.2 334.6Q571.0 333.0 573.4 333.0L573.4 333.0Q575.1 333.0 576.0 333.8L576.0 333.8Q577.0 334.6 577.0 336.4L577.0 336.4Q577.0 338.1 575.9 339.0L575.9 339.0Q574.8 339.9 572.7 340.0L572.7 340.0Q566.9 340.0 566.9 346.4L566.9 346.4L566.9 361.3Q566.9 363.1 565.9 364.1ZM584.7 376.1L584.7 376.1Q582.3 376.1 581.0 375.2Q579.6 374.3 579.6 372.7L579.6 372.7Q579.6 371.6 580.4 370.9Q581.1 370.2 582.4 370.2L582.4 370.2Q582.7 370.2 583.2 370.2Q583.6 370.2 584.0 370.2L584.0 370.2Q587.0 370.2 588.4 366.7L588.4 366.7L588.9 365.1L578.8 338.4Q578.4 337.2 578.4 336.3L578.4 336.3Q578.4 334.8 579.4 333.9Q580.5 332.9 582.1 332.9L582.1 332.9Q583.5 332.9 584.3 333.6Q585.1 334.3 585.6 335.8L585.6 335.8L593.0 358.4L593.1 358.4L600.5 335.8Q601.0 334.3 601.8 333.6Q602.7 332.9 604.1 332.9L604.1 332.9Q605.6 332.9 606.6 333.8Q607.6 334.8 607.6 336.2L607.6 336.2Q607.6 337.2 607.2 338.3L607.2 338.3L597.0 365.7Q594.9 371.5 592.1 373.8Q589.4 376.1 584.7 376.1ZM628.3 350.7L615.1 350.7Q613.5 350.7 612.6 349.8Q611.6 348.9 611.6 347.4Q611.6 345.9 612.6 345.0Q613.5 344.2 615.1 344.2L615.1 344.2L628.3 344.2Q629.9 344.2 630.8 345.0Q631.8 345.9 631.8 347.4Q631.8 348.9 630.8 349.8Q629.9 350.7 628.3 350.7L628.3 350.7ZM644.5 364.1Q643.5 365.1 641.9 365.1Q640.3 365.1 639.4 364.1Q638.5 363.2 638.5 361.5L638.5 361.5L638.5 326.6Q638.5 324.4 639.8 323.1Q641.1 321.8 643.4 321.8L643.4 321.8Q645.4 321.8 646.6 322.7Q647.8 323.6 648.6 325.7L648.6 325.7L660.2 354.2L660.5 354.2L672.1 325.7Q672.9 323.7 674.2 322.7Q675.4 321.8 677.4 321.8L677.4 321.8Q679.6 321.8 680.9 323.1Q682.2 324.4 682.2 326.6L682.2 326.6L682.2 361.5Q682.2 363.2 681.3 364.1Q680.4 365.1 678.8 365.1Q677.1 365.1 676.3 364.1Q675.4 363.2 675.4 361.5L675.4 361.5L675.4 334.6L675.2 334.6L663.9 361.8Q662.9 364.3 660.4 364.3L660.4 364.3Q657.8 364.3 656.8 361.8L656.8 361.8L645.6 334.6L645.4 334.6L645.4 361.5Q645.4 363.2 644.5 364.1ZM713.6 360.9Q709.5 365.2 702.6 365.2Q695.8 365.2 691.7 360.9Q687.6 356.6 687.6 349.1L687.6 349.1Q687.6 341.6 691.7 337.2Q695.8 332.9 702.6 332.9L702.6 332.9Q709.5 332.9 713.6 337.2Q717.7 341.6 717.7 349.1L717.7 349.1Q717.7 356.6 713.6 360.9ZM697.1 356.7Q699.1 359.4 702.6 359.4Q706.2 359.4 708.2 356.7Q710.3 354.0 710.3 349.1L710.3 349.1Q710.3 344.2 708.2 341.4Q706.2 338.7 702.6 338.7L702.6 338.7Q699.2 338.7 697.1 341.4Q695.0 344.2 695.0 349.1L695.0 349.1Q695.0 354.0 697.1 356.7ZM724.4 356.9L724.4 356.9L724.4 339.1L722.4 339.1Q721.1 339.1 720.3 338.4Q719.5 337.6 719.5 336.3L719.5 336.3Q719.5 335.0 720.3 334.3Q721.0 333.5 722.4 333.5L722.4 333.5L724.4 333.5L724.4 329.4Q724.4 327.6 725.4 326.6Q726.3 325.6 728.0 325.6L728.0 325.6Q729.7 325.6 730.7 326.6Q731.7 327.6 731.7 329.4L731.7 329.4L731.7 333.5L735.0 333.5Q736.4 333.5 737.2 334.3Q738.0 335.0 738.0 336.3L738.0 336.3Q738.0 337.6 737.2 338.4Q736.4 339.1 735.0 339.1L735.0 339.1L731.7 339.1L731.7 355.3Q731.7 357.1 732.3 357.9Q733.0 358.7 734.6 358.9L734.6 358.9L735.1 358.9Q738.1 359.2 738.1 361.6L738.1 361.6Q738.1 363.2 736.7 364.1Q735.4 364.9 732.8 364.9L732.8 364.9L732.5 364.9Q724.4 364.9 724.4 356.9ZM767.2 360.9Q763.1 365.2 756.2 365.2Q749.3 365.2 745.3 360.9Q741.2 356.6 741.2 349.1L741.2 349.1Q741.2 341.6 745.3 337.2Q749.4 332.9 756.2 332.9L756.2 332.9Q763.1 332.9 767.2 337.2Q771.3 341.6 771.3 349.1L771.3 349.1Q771.3 356.6 767.2 360.9ZM750.7 356.7Q752.7 359.4 756.2 359.4Q759.7 359.4 761.8 356.7Q763.8 354.0 763.8 349.1L763.8 349.1Q763.8 344.2 761.8 341.4Q759.7 338.7 756.2 338.7L756.2 338.7Q752.7 338.7 750.7 341.4Q748.6 344.2 748.6 349.1L748.6 349.1Q748.6 354.0 750.7 356.7ZM782.2 364.1Q781.2 365.2 779.6 365.2Q777.9 365.2 776.9 364.1Q775.9 363.1 775.9 361.3L775.9 361.3L775.9 336.6Q775.9 334.9 776.9 333.9Q777.8 332.9 779.4 332.9L779.4 332.9Q780.9 332.9 781.9 333.9Q782.9 334.9 782.9 336.6L782.9 336.6L782.9 339.0L783.0 339.0Q783.7 336.3 785.5 334.6Q787.3 333.0 789.7 333.0L789.7 333.0Q791.4 333.0 792.3 333.8L792.3 333.8Q793.3 334.6 793.3 336.4L793.3 336.4Q793.3 338.1 792.2 339.0L792.2 339.0Q791.1 339.9 789.0 340.0L789.0 340.0Q783.2 340.0 783.2 346.4L783.2 346.4L783.2 361.3Q783.2 363.1 782.2 364.1Z M813.1 365.1L813.1 365.1Q811.3 365.1 810.3 364.0Q809.3 363.0 809.3 361.2L809.3 361.2L809.3 326.2Q809.3 324.4 810.3 323.3Q811.3 322.3 813.1 322.3L813.1 322.3L825.7 322.3Q832.1 322.3 836.0 326.2Q840.0 330.1 840.0 336.5L840.0 336.5Q840.0 342.8 835.9 346.7Q831.9 350.6 825.4 350.6L825.4 350.6L816.9 350.6L816.9 361.2Q816.9 363.0 815.9 364.1Q814.9 365.1 813.1 365.1ZM816.9 328.5L816.9 344.5L823.7 344.5Q827.8 344.5 830.0 342.4Q832.3 340.3 832.3 336.5L832.3 336.5Q832.3 332.6 830.1 330.6Q827.8 328.5 823.8 328.5L823.8 328.5L816.9 328.5ZM851.1 364.1Q850.1 365.2 848.4 365.2Q846.7 365.2 845.7 364.1Q844.8 363.1 844.8 361.3L844.8 361.3L844.8 336.6Q844.8 334.9 845.7 333.9Q846.7 332.9 848.2 332.9L848.2 332.9Q849.8 332.9 850.7 333.9Q851.7 334.9 851.7 336.6L851.7 336.6L851.7 339.0L851.8 339.0Q852.5 336.3 854.3 334.6Q856.2 333.0 858.5 333.0L858.5 333.0Q860.2 333.0 861.1 333.8L861.1 333.8Q862.1 334.6 862.1 336.4L862.1 336.4Q862.1 338.1 861.0 339.0L861.0 339.0Q860.0 339.9 857.8 340.0L857.8 340.0Q852.1 340.0 852.1 346.4L852.1 346.4L852.1 361.3Q852.1 363.1 851.1 364.1ZM879.2 365.2L879.2 365.2Q872.1 365.2 868.1 361.0Q864.1 356.7 864.1 349.2L864.1 349.2Q864.1 341.7 868.1 337.3Q872.1 332.9 878.8 332.9L878.8 332.9Q885.1 332.9 889.1 336.9Q893.1 341.0 893.1 347.4L893.1 347.4Q893.1 349.0 892.2 349.9Q891.3 350.8 889.7 350.8L889.7 350.8L871.4 350.8L871.4 351.0Q871.4 354.9 873.5 357.3Q875.6 359.6 879.1 359.6L879.1 359.6Q881.6 359.6 883.4 358.6Q885.1 357.7 886.9 355.4L886.9 355.4Q887.9 354.3 889.3 354.3L889.3 354.3Q890.6 354.3 891.4 355.0Q892.3 355.8 892.3 357.1L892.3 357.1Q892.3 357.9 891.8 358.9L891.8 358.9Q890.2 361.9 886.9 363.5Q883.6 365.2 879.2 365.2ZM871.4 346.0L871.4 346.0L885.9 346.0Q885.8 342.6 883.8 340.6Q881.9 338.5 878.8 338.5Q875.7 338.5 873.7 340.6Q871.6 342.7 871.4 346.0ZM909.4 365.1L909.4 365.1Q903.5 365.1 900.0 360.7Q896.5 356.4 896.5 349.0L896.5 349.0Q896.5 341.7 900.0 337.3Q903.5 333.0 909.4 333.0L909.4 333.0Q912.6 333.0 915.2 334.5Q917.7 336.1 919.0 338.7L919.0 338.7L919.1 338.7L919.1 325.6Q919.1 323.7 920.1 322.7Q921.1 321.7 922.8 321.7Q924.4 321.7 925.4 322.7Q926.4 323.7 926.4 325.6L926.4 325.6L926.4 361.5Q926.4 363.2 925.4 364.2Q924.4 365.2 922.8 365.2L922.8 365.2Q921.2 365.2 920.2 364.2Q919.1 363.2 919.1 361.5L919.1 361.5L919.1 359.1L919.0 359.1Q917.8 361.9 915.3 363.5Q912.9 365.1 909.4 365.1ZM911.6 359.1L911.6 359.1Q915.0 359.1 917.1 356.4Q919.2 353.7 919.2 349.1L919.2 349.1Q919.2 344.5 917.1 341.7Q915.0 339.0 911.6 339.0L911.6 339.0Q908.0 339.0 906.0 341.7Q903.9 344.4 903.9 349.1L903.9 349.1Q903.9 353.7 906.0 356.4Q908.0 359.1 911.6 359.1ZM939.3 328.0Q938.1 329.2 936.4 329.2Q934.7 329.2 933.5 328.0Q932.3 326.8 932.3 325.2L932.3 325.2Q932.3 323.5 933.5 322.4Q934.7 321.2 936.4 321.2L936.4 321.2Q938.1 321.2 939.3 322.4Q940.4 323.5 940.4 325.2L940.4 325.2Q940.4 326.8 939.3 328.0ZM939.0 364.1Q938.0 365.2 936.4 365.2Q934.7 365.2 933.7 364.1Q932.7 363.1 932.7 361.3L932.7 361.3L932.7 336.7Q932.7 335.0 933.7 333.9Q934.7 332.9 936.4 332.9Q938.0 332.9 939.0 333.9Q940.0 335.0 940.0 336.8L940.0 336.8L940.0 361.3Q940.0 363.1 939.0 364.1ZM959.8 365.2L959.8 365.2Q953.0 365.2 948.9 360.9Q944.9 356.5 944.9 349.1L944.9 349.1Q944.9 341.7 948.9 337.3Q952.9 332.9 959.7 332.9L959.7 332.9Q964.3 332.9 967.8 335.0Q971.4 337.1 972.5 340.4L972.5 340.4Q972.9 341.4 972.9 342.1L972.9 342.1Q972.9 343.5 972.0 344.3Q971.1 345.1 969.8 345.1L969.8 345.1Q968.7 345.1 967.9 344.6Q967.2 344.1 966.6 343.0L966.6 343.0Q964.3 338.8 960.0 338.8L960.0 338.8Q956.4 338.8 954.4 341.6Q952.3 344.3 952.3 349.1L952.3 349.1Q952.3 353.9 954.3 356.6Q956.4 359.3 959.9 359.3L959.9 359.3Q964.3 359.3 966.5 355.3L966.5 355.3Q967.3 354.1 968.0 353.6Q968.7 353.1 969.9 353.1L969.9 353.1Q971.2 353.1 972.1 353.9Q973.0 354.7 973.0 356.1L973.0 356.1Q973.0 356.9 972.5 357.9L972.5 357.9Q971.2 361.1 967.7 363.2Q964.2 365.2 959.8 365.2ZM979.9 356.9L979.9 356.9L979.9 339.1L977.9 339.1Q976.6 339.1 975.8 338.4Q975.0 337.6 975.0 336.3L975.0 336.3Q975.0 335.0 975.8 334.3Q976.6 333.5 977.9 333.5L977.9 333.5L979.9 333.5L979.9 329.4Q979.9 327.6 980.9 326.6Q981.9 325.6 983.6 325.6L983.6 325.6Q985.2 325.6 986.2 326.6Q987.2 327.6 987.2 329.4L987.2 329.4L987.2 333.5L990.6 333.5Q991.9 333.5 992.7 334.3Q993.5 335.0 993.5 336.3L993.5 336.3Q993.5 337.6 992.7 338.4Q991.9 339.1 990.6 339.1L990.6 339.1L987.2 339.1L987.2 355.3Q987.2 357.1 987.9 357.9Q988.5 358.7 990.1 358.9L990.1 358.9L990.7 358.9Q993.6 359.2 993.6 361.6L993.6 361.6Q993.6 363.2 992.2 364.1Q990.9 364.9 988.4 364.9L988.4 364.9L988.1 364.9Q979.9 364.9 979.9 356.9ZM1004.7 328.0Q1003.5 329.2 1001.8 329.2Q1000.1 329.2 998.9 328.0Q997.8 326.8 997.8 325.2L997.8 325.2Q997.8 323.5 998.9 322.4Q1000.1 321.2 1001.8 321.2L1001.8 321.2Q1003.5 321.2 1004.7 322.4Q1005.9 323.5 1005.9 325.2L1005.9 325.2Q1005.9 326.8 1004.7 328.0ZM1004.5 364.1Q1003.5 365.2 1001.8 365.2Q1000.1 365.2 999.2 364.1Q998.2 363.1 998.2 361.3L998.2 361.3L998.2 336.7Q998.2 335.0 999.2 333.9Q1000.1 332.9 1001.8 332.9Q1003.5 332.9 1004.5 333.9Q1005.5 335.0 1005.5 336.8L1005.5 336.8L1005.5 361.3Q1005.5 363.1 1004.5 364.1ZM1036.3 360.9Q1032.2 365.2 1025.3 365.2Q1018.5 365.2 1014.4 360.9Q1010.3 356.6 1010.3 349.1L1010.3 349.1Q1010.3 341.6 1014.4 337.2Q1018.5 332.9 1025.3 332.9L1025.3 332.9Q1032.2 332.9 1036.3 337.2Q1040.4 341.6 1040.4 349.1L1040.4 349.1Q1040.4 356.6 1036.3 360.9ZM1019.8 356.7Q1021.8 359.4 1025.3 359.4Q1028.9 359.4 1030.9 356.7Q1033.0 354.0 1033.0 349.1L1033.0 349.1Q1033.0 344.2 1030.9 341.4Q1028.9 338.7 1025.3 338.7L1025.3 338.7Q1021.9 338.7 1019.8 341.4Q1017.7 344.2 1017.7 349.1L1017.7 349.1Q1017.7 354.0 1019.8 356.7ZM1051.3 364.2Q1050.3 365.2 1048.7 365.2Q1047.1 365.2 1046.1 364.2Q1045.1 363.1 1045.1 361.3L1045.1 361.3L1045.1 336.6Q1045.1 334.9 1046.0 333.9Q1046.9 332.9 1048.5 332.9Q1050.2 332.9 1051.2 333.9Q1052.1 334.9 1052.1 336.6L1052.1 336.6L1052.1 338.8L1052.3 338.8Q1054.9 332.9 1062.0 332.9L1062.0 332.9Q1067.1 332.9 1069.9 336.0Q1072.7 339.1 1072.7 344.5L1072.7 344.5L1072.7 361.3Q1072.7 363.1 1071.7 364.2Q1070.7 365.2 1069.1 365.2Q1067.4 365.2 1066.4 364.2Q1065.4 363.1 1065.4 361.3L1065.4 361.3L1065.4 346.0Q1065.4 342.6 1063.9 340.9Q1062.3 339.1 1059.2 339.1L1059.2 339.1Q1056.1 339.1 1054.2 341.2Q1052.4 343.2 1052.4 346.6L1052.4 346.6L1052.4 361.3Q1052.4 363.1 1051.3 364.2Z "/><defs><clipPath id="satori_bc-id-0-1"><rect x="0" y="441" width="1200" height="189"/></clipPath></defs><mask id="satori_om-id-0-1"><rect x="0" y="442" width="1200" height="188" fill="#fff"/><path width="1200" height="189" fill="none" stroke="#000" stroke-width="2" d="M0,441 A0,0 0 0 1 0,441 h1200 A0,0 0 0 1 1200,441"/></mask><path width="1200" height="189" clip-path="url(#satori_bc-id-0-1)" fill="none" stroke="#dbdbdb" stroke-width="2" d="M0,441 A0,0 0 0 1 0,441 h1200 A0,0 0 0 1 1200,441"/><mask id="satori_om-id-0-1-0"><rect x="40" y="482" width="389" height="108" fill="#fff"/></mask><clipPath id="satori_cp-id-0-1-0-0"><rect x="40" y="504" width="64" height="64"/></clipPath><mask id="satori_om-id-0-1-0-0"><rect x="40" y="504" width="64" height="64" fill="#fff"/></mask><image x="40" y="504" width="64" height="64" href="data:image/svg+xml;utf8,%3Csvg  xmlns=%22http://www.w3.org/2000/svg%22 width=%2264%22 height=%2264%22 viewBox=%220 0 128 128%22%3E%3Cpath fill=%22%23224d67%22 d=%22M22.5 14.8c2.9 1.3 99 44 99 44c2.7 1.2 2.9 3.1 2 12.4c-1 10.5-1.9 37.8-40.2 42.9c-24.6 3.2-55.9-4.3-70.9-27.2C-6 58.8 11 23.4 14.8 17.7c2.4-3.5 4.8-4.2 7.7-2.9%22%3E%3C/path%3E%3Cpath fill=%22%23f0f4c3%22 d=%22M121.5 58.8c-.3-.2-92-40.8-98.9-43.9C9.6 31.5-3.8 76 27.9 96.2c33.6 21.5 78.7-10.2 93.6-37.4%22%3E%3C/path%3E%3Cpath fill=%22%23f0f4c3%22 d=%22M117.7 57c-.3-.2-86.7-38.4-93.2-41.3c-12.2 15.5-23.9 59.1 5.7 78c31.4 20.2 73.6-11.2 87.5-36.7%22%3E%3C/path%3E%3Cpath fill=%22%23cb2a42%22 d=%22M56.2 37.6L19.5 48.2c-2.5.8-4.4 2.8-5 5.3c-1.9 8.5.8 23.3 8.9 29.8c3.5 2.7 8.6 1.8 10.8-2.1L58.5 41c1.3-1.7.5-4.2-2.3-3.4m14.3 2.9s14.6 30.1 16 33s6.3 4.7 9.9 2.8c10.7-5.6 15.5-12.4 19.2-20.2c-8.9-3.9-42.4-18.8-42.4-18.8c-2.4-1.1-4 .6-2.7 3.2m-8.6 1.9C60.3 45.1 39.5 81 37.6 84.1c-1.9 3.2-.7 7.5 2.7 9.2c12.3 6.5 30.9.4 39.6-7c2.2-1.9 4.5-5.1 3.2-8.2S68.9 44.6 67.8 42.3c-1.2-2.7-4.1-2.8-5.9.1%22%3E%3C/path%3E%3Cpath fill=%22%23f0f4c3%22 d=%22M52.2 42.2c-1.4.4-10.1 3-11.1 3.4c-1.4.5-2.2 1.7-1.9 2.5c.3.9 1.7 1.1 3.1.6c.8-.3 7.1-3.9 9.5-5.2c-3.1 2.4-10.2 9.4-11.1 10.3c-1.4 1.5-1.7 3.4-.8 4.3c1 .9 2.9.5 4.3-1c1.2-1.3 8.5-12.8 9.1-13.9s.4-1.4-1.1-1m10.1 16.4c0-2.2 1.4-10.3 1.8-12.3c.4-1.6 1.5-1.8 1.8.5s1.7 9.7 1.7 11.8s-1.2 3.3-2.7 3.3c-1.4 0-2.6-1.1-2.6-3.3M79.9 49c-1.2-1.8-3.3-4.9-4.1-6.1c-.7-1.2.1-2.1 1.8-.9s4 2.9 5.4 4c1.6 1.3 1.9 3 .8 4s-2.7.8-3.9-1%22%3E%3C/path%3E%3Cellipse cx=%2287.3%22 cy=%22103.12%22 fill=%22%23cb2a42%22 rx=%223.4%22 ry=%222.3%22 transform=%22rotate(-27.098 87.298 103.126)%22%3E%3C/ellipse%3E%3Cellipse cx=%2298.89%22 cy=%22103.82%22 fill=%22%23cb2a42%22 rx=%223.4%22 ry=%222.3%22 transform=%22rotate(-30.642 98.887 103.818)%22%3E%3C/ellipse%3E%3Cellipse cx=%22102.02%22 cy=%2293.8%22 fill=%22%23cb2a42%22 rx=%223.4%22 ry=%222.3%22 transform=%22rotate(-37.16 102.017 93.797)%22%3E%3C/ellipse%3E%3Cpath fill=%22%23cb2a42%22 d=%22M57.6 30.3c-8.3-3.7-24.4-10.7-29.6-13c-3.6 2.2-9.7 11.4-11.2 21.2c-.6 3.6 1.7 5.9 5.3 4.9c0 0 33.7-9.3 35.3-9.7c1.6-.5 2-2.6.2-3.4%22%3E%3C/path%3E%3C/svg%3E" preserveAspectRatio="none" clip-path="url(#satori_cp-id-0-1-0-0)" mask="url(#satori_om-id-0-1-0-0)"/><mask id="satori_om-id-0-1-0-0-0"><rect x="40" y="504" width="0" height="64" fill="#fff"/></mask><mask id="satori_om-id-0-1-0-0-1"><rect x="40" y="504" width="0" height="64" fill="#fff"/></mask><mask id="satori_om-id-0-1-0-0-2"><rect x="40" y="504" width="0" height="64" fill="#fff"/></mask><mask id="satori_om-id-0-1-0-0-3"><rect x="40" y="504" width="0" height="64" fill="#fff"/></mask><mask id="satori_om-id-0-1-0-0-4"><rect x="40" y="504" width="0" height="64" fill="#fff"/></mask><mask id="satori_om-id-0-1-0-0-5"><rect x="40" y="504" width="0" height="64" fill="#fff"/></mask><mask id="satori_om-id-0-1-0-0-6"><rect x="40" y="504" width="0" height="64" fill="#fff"/></mask><mask id="satori_om-id-0-1-0-0-7"><rect x="40" y="504" width="0" height="64" fill="#fff"/></mask><mask id="satori_om-id-0-1-0-0-8"><rect x="40" y="504" width="0" height="64" fill="#fff"/></mask><mask id="satori_om-id-0-1-0-1"><rect x="116" y="512" width="313" height="48" fill="#fff"/></mask><path fill="#545454" d="M133.0 553.6L133.0 553.6Q126.5 553.6 122.7 550.2Q118.8 546.7 118.8 541.1L118.8 541.1L118.8 522.5Q118.8 520.7 119.8 519.7Q120.7 518.8 122.4 518.8Q124.0 518.8 125.0 519.7Q125.9 520.7 125.9 522.5L125.9 522.5L125.9 540.4Q125.9 543.7 127.8 545.6Q129.6 547.6 133.0 547.6L133.0 547.6Q136.3 547.6 138.2 545.6Q140.1 543.7 140.1 540.4L140.1 540.4L140.1 522.5Q140.1 520.7 141.0 519.7Q141.9 518.8 143.6 518.8Q145.3 518.8 146.2 519.7Q147.1 520.7 147.1 522.5L147.1 522.5L147.1 541.1Q147.1 546.7 143.3 550.2Q139.4 553.6 133.0 553.6ZM158.9 552.6Q158.0 553.6 156.3 553.6Q154.6 553.6 153.7 552.6Q152.8 551.6 152.8 549.9L152.8 549.9L152.8 522.9Q152.8 521.2 153.7 520.2Q154.6 519.2 156.3 519.2L156.3 519.2L166.6 519.2Q172.4 519.2 175.6 522.1Q178.9 525.0 178.9 530.0L178.9 530.0Q178.9 533.2 177.3 535.8Q175.8 538.3 173.0 539.4L173.0 539.4L177.9 547.9Q178.7 549.2 178.7 550.3L178.7 550.3Q178.7 551.7 177.7 552.6Q176.7 553.6 175.1 553.6L175.1 553.6Q173.8 553.6 173.1 553.0Q172.4 552.5 171.5 550.9L171.5 550.9L165.9 540.7L159.9 540.7L159.9 549.9Q159.9 551.6 158.9 552.6ZM159.9 524.8L159.9 535.6L165.9 535.6Q168.6 535.6 170.1 534.1Q171.6 532.7 171.6 530.2L171.6 530.2Q171.6 527.7 170.0 526.2Q168.5 524.8 165.9 524.8L165.9 524.8L159.9 524.8ZM196.2 542.3L186.4 542.3Q185.0 542.3 184.1 541.5Q183.2 540.7 183.2 539.3Q183.2 537.9 184.1 537.1Q185.0 536.3 186.4 536.3L186.4 536.3L196.2 536.3Q197.6 536.3 198.5 537.1Q199.4 537.9 199.4 539.3Q199.4 540.7 198.5 541.5Q197.6 542.3 196.2 542.3L196.2 542.3ZM210.9 552.6Q209.9 553.6 208.3 553.6Q206.6 553.6 205.6 552.6Q204.7 551.6 204.7 549.9L204.7 549.9L204.7 522.9Q204.7 521.2 205.6 520.2Q206.6 519.2 208.3 519.2L208.3 519.2L218.6 519.2Q224.4 519.2 227.6 522.1Q230.8 525.0 230.8 530.0L230.8 530.0Q230.8 533.2 229.3 535.8Q227.8 538.3 225.0 539.4L225.0 539.4L229.9 547.9Q230.6 549.2 230.6 550.3L230.6 550.3Q230.6 551.7 229.6 552.6Q228.6 553.6 227.0 553.6L227.0 553.6Q225.8 553.6 225.0 553.0Q224.3 552.5 223.4 550.9L223.4 550.9L217.8 540.7L211.8 540.7L211.8 549.9Q211.8 551.6 210.9 552.6ZM211.8 524.8L211.8 535.6L217.9 535.6Q220.6 535.6 222.0 534.1Q223.5 532.7 223.5 530.2L223.5 530.2Q223.5 527.7 222.0 526.2Q220.4 524.8 217.8 524.8L217.8 524.8L211.8 524.8ZM237.7 553.5L237.7 553.5Q236.0 553.5 235.1 552.6Q234.1 551.7 234.1 550.2L234.1 550.2Q234.1 549.3 234.6 547.9L234.6 547.9L243.8 522.8Q244.6 520.7 245.8 519.7Q247.1 518.8 249.1 518.8L249.1 518.8Q251.2 518.8 252.5 519.7Q253.8 520.7 254.5 522.8L254.5 522.8L263.8 547.9Q264.3 549.2 264.3 550.2L264.3 550.2Q264.3 551.6 263.3 552.6Q262.3 553.5 260.7 553.5L260.7 553.5Q259.2 553.5 258.4 552.8Q257.5 552.1 257.0 550.4L257.0 550.4L255.3 545.0L243.1 545.0L241.3 550.3Q240.8 552.0 239.9 552.8Q239.1 553.5 237.7 553.5ZM249.0 525.7L244.6 539.6L253.6 539.6L249.1 525.7L249.0 525.7ZM281.5 553.1L272.1 553.1Q270.4 553.1 269.5 552.1Q268.6 551.1 268.6 549.4L268.6 549.4L268.6 522.9Q268.6 521.2 269.5 520.2Q270.4 519.2 272.1 519.2L272.1 519.2L281.5 519.2Q289.1 519.2 293.4 523.6Q297.6 528.0 297.6 536.0L297.6 536.0Q297.6 544.1 293.3 548.6Q289.1 553.1 281.5 553.1L281.5 553.1ZM275.6 525.1L275.6 547.2L280.6 547.2Q285.4 547.2 287.9 544.4Q290.4 541.5 290.4 536.0L290.4 536.0Q290.4 530.8 287.8 527.9Q285.3 525.1 280.6 525.1L280.6 525.1L275.6 525.1Z M333.2 553.1L314.5 553.1Q312.9 553.1 312.0 552.2Q311.2 551.4 311.2 550.0L311.2 550.0Q311.2 549.1 311.6 548.3Q312.0 547.5 313.1 546.5L313.1 546.5L323.2 536.9Q326.3 533.8 327.4 532.2Q328.4 530.6 328.4 528.8L328.4 528.8Q328.4 526.7 327.0 525.3Q325.5 524 323.3 524L323.3 524Q319.3 524 317.4 528.1L317.4 528.1Q316.8 529.2 316.1 529.7Q315.4 530.1 314.3 530.1L314.3 530.1Q312.9 530.1 312.1 529.4Q311.3 528.6 311.3 527.3L311.3 527.3Q311.3 526.5 311.5 525.7L311.5 525.7Q312.5 522.7 315.6 520.6Q318.8 518.5 323.3 518.5L323.3 518.5Q328.7 518.5 332.0 521.2Q335.3 524.0 335.3 528.3L335.3 528.3Q335.3 529.9 335.0 531.2Q334.6 532.5 333.6 533.9Q332.6 535.3 331.3 536.8Q330.0 538.2 327.8 540.3L327.8 540.3L320.5 547.3L320.5 547.4L333.2 547.4Q334.6 547.4 335.4 548.2Q336.1 549.0 336.1 550.3L336.1 550.3Q336.1 551.5 335.4 552.3Q334.6 553.1 333.2 553.1L333.2 553.1ZM363.6 549.0Q359.9 553.8 353.5 553.8Q347.1 553.8 343.4 549.1Q339.7 544.3 339.7 536.1L339.7 536.1Q339.7 527.9 343.4 523.2Q347.1 518.5 353.5 518.5Q359.9 518.5 363.6 523.2Q367.3 527.9 367.3 536.1L367.3 536.1Q367.3 544.3 363.6 549.0ZM348.6 545.0Q350.4 548.1 353.5 548.1Q356.7 548.1 358.4 545.0Q360.1 541.9 360.1 536.1L360.1 536.1Q360.1 530.4 358.4 527.2Q356.7 524.1 353.5 524.1L353.5 524.1Q350.4 524.1 348.7 527.3Q346.9 530.4 346.9 536.1L346.9 536.1Q346.9 541.9 348.6 545.0ZM393.6 553.1L374.9 553.1Q373.3 553.1 372.4 552.2Q371.6 551.4 371.6 550.0L371.6 550.0Q371.6 549.1 372.0 548.3Q372.5 547.5 373.5 546.5L373.5 546.5L383.6 536.9Q386.8 533.8 387.8 532.2Q388.9 530.6 388.9 528.8L388.9 528.8Q388.9 526.7 387.4 525.3Q386.0 524 383.7 524L383.7 524Q379.7 524 377.9 528.1L377.9 528.1Q377.3 529.2 376.5 529.7Q375.8 530.1 374.7 530.1L374.7 530.1Q373.3 530.1 372.5 529.4Q371.7 528.6 371.7 527.3L371.7 527.3Q371.7 526.5 372.0 525.7L372.0 525.7Q372.9 522.7 376.0 520.6Q379.2 518.5 383.8 518.5L383.8 518.5Q389.1 518.5 392.4 521.2Q395.8 524.0 395.8 528.3L395.8 528.3Q395.8 529.9 395.4 531.2Q395 532.5 394.0 533.9Q393.1 535.3 391.7 536.8Q390.4 538.2 388.2 540.3L388.2 540.3L380.9 547.3L380.9 547.4L393.6 547.4Q395 547.4 395.8 548.2Q396.6 549.0 396.6 550.3L396.6 550.3Q396.6 551.5 395.8 552.3Q395 553.1 393.6 553.1L393.6 553.1ZM413.6 553.8L413.6 553.8Q409.6 553.8 406.3 552.1Q403.1 550.4 401.8 547.7L401.8 547.7Q401.3 546.5 401.3 545.4L401.3 545.4Q401.3 544.0 402.0 543.3Q402.8 542.5 404.2 542.5L404.2 542.5Q405.3 542.5 406.0 542.9Q406.7 543.3 407.3 544.3L407.3 544.3Q409.3 548.2 413.6 548.2L413.6 548.2Q416.3 548.2 418.1 546.4Q419.9 544.6 419.9 541.9L419.9 541.9Q419.9 539.2 418.1 537.5Q416.4 535.8 413.6 535.8L413.6 535.8Q410.8 535.8 408.7 537.8L408.7 537.8Q407.6 538.8 406.9 539.1Q406.2 539.4 405.0 539.4L405.0 539.4Q403.4 539.4 402.5 538.4Q401.6 537.4 401.7 535.9L401.7 535.9Q401.7 535.8 401.7 535.6L401.7 535.6L402.7 523.3Q402.9 521.1 404.0 520.2Q405.1 519.2 407.2 519.2L407.2 519.2L422 519.2Q423.3 519.2 424.1 520.0Q424.9 520.8 424.9 522.1Q424.9 523.3 424.1 524.1Q423.3 524.9 422 524.9L422 524.9L408.6 524.9L407.8 534.3L408.0 534.3Q409.0 532.6 411.0 531.7Q413.0 530.7 415.6 530.7L415.6 530.7Q420.4 530.7 423.5 533.8Q426.6 536.9 426.6 541.7L426.6 541.7Q426.6 547.1 423.0 550.5Q419.4 553.8 413.6 553.8Z "/><mask id="satori_om-id-0-1-1"><rect x="1013" y="524" width="147" height="36" fill="#fff"/></mask><path fill="#8e8e8e" d="M1016.9 552.6Q1016.5 552.9 1016.0 552.9Q1015.4 552.9 1015.1 552.6Q1014.8 552.2 1014.8 551.7L1014.8 551.7L1014.8 532.6Q1014.8 532.0 1015.1 531.6Q1015.5 531.3 1016.1 531.3Q1016.6 531.3 1017.0 531.6Q1017.3 532.0 1017.3 532.6L1017.3 532.6L1017.3 540.0L1017.4 540.0Q1018.1 538.7 1019.4 537.9Q1020.7 537.2 1022.3 537.2L1022.3 537.2Q1025.2 537.2 1026.9 539.3Q1028.7 541.5 1028.7 545.0L1028.7 545.0Q1028.7 548.6 1026.9 550.8Q1025.2 552.9 1022.2 552.9L1022.2 552.9Q1020.6 552.9 1019.3 552.2Q1018.0 551.4 1017.3 550.1L1017.3 550.1L1017.2 550.1L1017.2 551.7Q1017.2 552.2 1016.9 552.6ZM1021.7 550.7L1021.7 550.7Q1023.8 550.7 1024.9 549.2Q1026.1 547.7 1026.1 545.0L1026.1 545.0Q1026.1 542.5 1024.9 540.9Q1023.8 539.4 1021.7 539.4L1021.7 539.4Q1019.8 539.4 1018.6 541.0Q1017.3 542.5 1017.3 545.0L1017.3 545.0Q1017.3 547.6 1018.6 549.1Q1019.8 550.7 1021.7 550.7ZM1032.8 558.4L1032.8 558.4Q1031.9 558.4 1031.4 558.0Q1030.9 557.7 1030.9 557.1L1030.9 557.1Q1030.9 556.7 1031.1 556.4Q1031.4 556.2 1031.9 556.2L1031.9 556.2Q1032.1 556.2 1032.3 556.2Q1032.5 556.2 1032.7 556.2L1032.7 556.2Q1034.4 556.2 1035.2 553.7L1035.2 553.7L1035.6 552.7L1030.3 539.0Q1030.2 538.6 1030.2 538.3L1030.2 538.3Q1030.2 537.8 1030.6 537.5Q1030.9 537.2 1031.5 537.2L1031.5 537.2Q1032.4 537.2 1032.7 538.1L1032.7 538.1L1036.9 550.1L1037.0 550.1L1041.2 538.1Q1041.3 537.6 1041.6 537.4Q1041.9 537.2 1042.4 537.2L1042.4 537.2Q1042.9 537.2 1043.3 537.5Q1043.6 537.8 1043.6 538.3L1043.6 538.3Q1043.6 538.6 1043.5 539.0L1043.5 539.0L1037.9 553.7Q1036.9 556.4 1035.8 557.4Q1034.7 558.4 1032.8 558.4Z M1066.9 550.9Q1064.7 553.0 1060.8 553.0Q1056.9 553.0 1054.7 550.9Q1052.4 548.7 1052.4 545.3L1052.4 545.3L1052.4 532.7Q1052.4 532.1 1052.8 531.7Q1053.1 531.3 1053.7 531.3Q1054.3 531.3 1054.7 531.7Q1055.0 532.1 1055.0 532.7L1055.0 532.7L1055.0 545.1Q1055.0 547.5 1056.6 549.1Q1058.1 550.6 1060.8 550.6Q1063.5 550.6 1065.0 549.1Q1066.6 547.5 1066.6 545.1L1066.6 545.1L1066.6 532.7Q1066.6 532.1 1066.9 531.7Q1067.3 531.3 1067.9 531.3Q1068.5 531.3 1068.8 531.7Q1069.2 532.1 1069.2 532.7L1069.2 532.7L1069.2 545.3Q1069.2 548.7 1066.9 550.9ZM1075.6 552.6Q1075.2 552.9 1074.6 552.9Q1074.0 552.9 1073.7 552.6Q1073.3 552.2 1073.3 551.6L1073.3 551.6L1073.3 532.9Q1073.3 532.3 1073.7 531.9Q1074.0 531.5 1074.6 531.5L1074.6 531.5L1081.2 531.5Q1084.3 531.5 1086.1 533.2Q1088.0 535.0 1088.0 537.8L1088.0 537.8Q1088.0 540.0 1086.8 541.6Q1085.7 543.3 1083.7 543.9L1083.7 543.9L1087.6 550.8Q1087.9 551.3 1087.9 551.7L1087.9 551.7Q1087.9 552.2 1087.5 552.6Q1087.1 552.9 1086.5 552.9L1086.5 552.9Q1086.1 552.9 1085.8 552.7Q1085.5 552.5 1085.2 552.1L1085.2 552.1L1081.0 544.3L1075.9 544.3L1075.9 551.6Q1075.9 552.2 1075.6 552.6ZM1075.9 533.9L1075.9 542.0L1081.0 542.0Q1083.0 542.0 1084.1 540.9Q1085.2 539.9 1085.2 537.9L1085.2 537.9Q1085.2 536.0 1084.1 534.9Q1082.9 533.9 1080.9 533.9L1080.9 533.9L1075.9 533.9ZM1099.4 545.3L1091.9 545.3Q1091.3 545.3 1091.0 545.0Q1090.6 544.6 1090.6 544.1Q1090.6 543.6 1091.0 543.2Q1091.3 542.9 1091.9 542.9L1091.9 542.9L1099.4 542.9Q1100.0 542.9 1100.3 543.2Q1100.7 543.6 1100.7 544.1Q1100.7 544.6 1100.3 545.0Q1100.0 545.3 1099.4 545.3L1099.4 545.3ZM1106.4 552.6Q1106.0 552.9 1105.4 552.9Q1104.8 552.9 1104.5 552.6Q1104.1 552.2 1104.1 551.6L1104.1 551.6L1104.1 532.9Q1104.1 532.3 1104.5 531.9Q1104.8 531.5 1105.4 531.5L1105.4 531.5L1112.1 531.5Q1115.1 531.5 1117.0 533.2Q1118.8 535.0 1118.8 537.8L1118.8 537.8Q1118.8 540.0 1117.7 541.6Q1116.5 543.3 1114.5 543.9L1114.5 543.9L1118.4 550.8Q1118.7 551.3 1118.7 551.7L1118.7 551.7Q1118.7 552.2 1118.3 552.6Q1117.9 552.9 1117.3 552.9L1117.3 552.9Q1116.9 552.9 1116.6 552.7Q1116.3 552.5 1116.1 552.1L1116.1 552.1L1111.8 544.3L1106.8 544.3L1106.8 551.6Q1106.8 552.2 1106.4 552.6ZM1106.8 533.9L1106.8 542.0L1111.8 542.0Q1113.9 542.0 1115.0 540.9Q1116.1 539.9 1116.1 537.9L1116.1 537.9Q1116.1 536.0 1114.9 534.9Q1113.8 533.9 1111.7 533.9L1111.7 533.9L1106.8 533.9ZM1122.2 552.9L1122.2 552.9Q1121.6 552.9 1121.2 552.5Q1120.9 552.2 1120.9 551.7L1120.9 551.7Q1120.9 551.4 1121.0 551.0L1121.0 551.0L1127.8 532.6Q1128.3 531.3 1129.5 531.3L1129.5 531.3Q1130.7 531.3 1131.2 532.6L1131.2 532.6L1138.0 551.0Q1138.2 551.4 1138.2 551.7L1138.2 551.7Q1138.2 552.2 1137.8 552.5Q1137.4 552.9 1136.9 552.9L1136.9 552.9Q1135.9 552.9 1135.6 551.9L1135.6 551.9L1133.7 546.6L1125.3 546.6L1123.5 551.9Q1123.1 552.9 1122.2 552.9ZM1129.5 534.7L1126.1 544.4L1132.9 544.4L1129.6 534.7L1129.5 534.7ZM1148.1 552.7L1142.3 552.7Q1141.7 552.7 1141.4 552.3Q1141.0 551.9 1141.0 551.3L1141.0 551.3L1141.0 532.9Q1141.0 532.3 1141.4 531.9Q1141.7 531.5 1142.3 531.5L1142.3 531.5L1148.1 531.5Q1152.8 531.5 1155.5 534.3Q1158.1 537.1 1158.1 542.1L1158.1 542.1Q1158.1 547.1 1155.5 549.9Q1152.8 552.7 1148.1 552.7L1148.1 552.7ZM1143.7 533.9L1143.7 550.3L1148.0 550.3Q1151.5 550.3 1153.5 548.2Q1155.4 546.1 1155.4 542.1L1155.4 542.1Q1155.4 538.1 1153.5 536.0Q1151.6 533.9 1148.0 533.9L1148.0 533.9L1143.7 533.9Z "/></svg>