<svg width="1200" height="630" viewBox="0 0 1200 630" xmlns="http://www.w3.org/2000/svg"><mask id="satori_om-id"><rect x="0" y="0" width="1200" height="630" fill="#fff"/></mask><mask id="satori_om-id-0"><rect x="0" y="0" width="1200" height="630" fill="#fff"/></mask><rect x="0" y="0" width="1200" height="630" fill="#f2f2f2"/><mask id="satori_om-id-0-0"><rect x="0" y="0" width="1200" height="441" fill="#fff"/></mask><mask id="satori_om-id-0-0-0"><rect x="40" y="95" width="1120" height="36" fill="#fff"/></mask><path fill="#8e8e8e" d="M50.0 123.4Q49.6 123.9 48.8 123.9Q48.1 123.9 47.6 123.4Q47.2 123.0 47.2 122.2L47.2 122.2L47.2 105.4L42.0 105.4Q41.3 105.4 40.9 105.0Q40.5 104.6 40.5 103.9Q40.5 103.3 40.9 102.9Q41.3 102.5 42.0 102.5L42.0 102.5L55.6 102.5Q56.3 102.5 56.8 102.9Q57.2 103.3 57.2 103.9Q57.2 104.6 56.8 105.0Q56.3 105.4 55.6 105.4L55.6 105.4L50.5 105.4L50.5 122.2Q50.5 123.0 50.0 123.4ZM62.1 123.5Q61.6 123.9 60.9 123.9Q60.2 123.9 59.8 123.5Q59.3 123.0 59.3 122.3L59.3 122.3L59.3 103.9Q59.3 103.1 59.8 102.7Q60.2 102.2 60.9 102.2L60.9 102.2Q61.6 102.2 62.1 102.7Q62.5 103.1 62.5 103.9L62.5 103.9L62.5 110.8L62.5 110.8Q63.2 109.5 64.4 108.7Q65.7 108.0 67.4 108.0L67.4 108.0Q69.9 108.0 71.4 109.5Q72.8 111.1 72.8 113.7L72.8 113.7L72.8 122.3Q72.8 123.0 72.4 123.5Q71.9 123.9 71.2 123.9L71.2 123.9Q70.5 123.9 70.1 123.5Q69.6 123.0 69.6 122.3L69.6 122.3L69.6 114.3Q69.6 112.6 68.8 111.7Q67.9 110.7 66.3 110.7L66.3 110.7Q64.5 110.7 63.5 111.8Q62.5 112.9 62.5 114.8L62.5 114.8L62.5 122.3Q62.5 123.0 62.1 123.5ZM81.2 123.9L81.2 123.9Q78.7 123.9 77.2 122.4Q75.8 120.9 75.8 118.2L75.8 118.2L75.8 109.7Q75.8 108.9 76.2 108.4Q76.7 108.0 77.4 108.0L77.4 108.0Q78.1 108.0 78.5 108.4Q79.0 108.9 79.0 109.7L79.0 109.7L79.0 117.6Q79.0 119.4 79.8 120.3Q80.6 121.2 82.3 121.2L82.3 121.2Q84.0 121.2 84.9 120.1Q85.9 119.0 85.9 117.2L85.9 117.2L85.9 109.7Q85.9 108.9 86.4 108.4Q86.8 108.0 87.5 108.0L87.5 108.0Q88.2 108.0 88.7 108.4Q89.1 108.9 89.1 109.7L89.1 109.7L89.1 122.3Q89.1 123.1 88.7 123.5Q88.3 123.9 87.6 123.9Q86.9 123.9 86.5 123.5Q86.1 123.1 86.1 122.3L86.1 122.3L86.1 121.1L86.0 121.1Q84.6 123.9 81.2 123.9ZM93.8 123.9L93.8 123.9Q93.1 123.9 92.6 123.5Q92.2 123.0 92.2 122.3L92.2 122.3L92.2 109.6Q92.2 108.9 92.6 108.4Q93.0 108.0 93.7 108.0L93.7 108.0Q94.4 108.0 94.8 108.4Q95.2 108.9 95.2 109.6L95.2 109.6L95.2 110.9L95.3 110.9Q95.6 109.6 96.6 108.8Q97.5 108.0 98.7 108.0L98.7 108.0Q99.5 108.0 99.9 108.4L99.9 108.4Q100.3 108.7 100.3 109.5L100.3 109.5Q100.3 110.2 99.9 110.6L99.9 110.6Q99.4 111.0 98.4 111.0L98.4 111.0Q96.9 111.0 96.1 112.0Q95.4 112.9 95.4 114.4L95.4 114.4L95.4 122.3Q95.4 123.0 94.9 123.5Q94.5 123.9 93.8 123.9ZM107.7 124.0L107.7 124.0Q105.5 124.0 103.9 123.1Q102.3 122.3 101.7 120.8L101.7 120.8Q101.6 120.5 101.6 120.2L101.6 120.2Q101.6 119.6 102.0 119.2Q102.4 118.9 103.0 118.9L103.0 118.9Q103.8 118.9 104.4 119.7L104.4 119.7Q105.0 120.7 105.8 121.1Q106.5 121.5 107.9 121.5L107.9 121.5Q109.3 121.5 110.1 121.0Q110.9 120.4 110.9 119.5L110.9 119.5Q110.9 118.7 110.4 118.3Q109.9 117.8 108.7 117.5L108.7 117.5L106.2 117.0Q101.8 115.9 101.8 112.6L101.8 112.6Q101.8 110.5 103.4 109.2Q105.1 108.0 107.9 108.0L107.9 108.0Q109.9 108.0 111.5 108.9Q113.0 109.8 113.4 111.2L113.4 111.2Q113.4 111.6 113.4 111.7L113.4 111.7Q113.4 112.2 113.1 112.5Q112.8 112.9 112.2 112.9L112.2 112.9Q111.3 112.9 110.9 112.2L110.9 112.2Q110.4 111.3 109.6 110.8Q108.9 110.4 107.7 110.4L107.7 110.4Q106.5 110.4 105.7 111.0Q104.9 111.5 104.9 112.4L104.9 112.4Q104.9 113.9 107.2 114.5L107.2 114.5L109.6 115.0Q112.1 115.6 113.1 116.5Q114.1 117.5 114.1 119.2L114.1 119.2Q114.1 121.3 112.3 122.6Q110.6 124.0 107.7 124.0ZM122.3 123.9L122.3 123.9Q119.4 123.9 117.6 121.8Q115.9 119.6 115.9 116.0Q115.9 112.3 117.6 110.2Q119.4 108.0 122.3 108.0L122.3 108.0Q123.9 108.0 125.2 108.8Q126.5 109.5 127.1 110.8L127.1 110.8L127.2 110.8L127.2 103.9Q127.2 103.1 127.6 102.7Q128.1 102.2 128.8 102.2L128.8 102.2Q129.5 102.2 129.9 102.7Q130.4 103.2 130.4 103.9L130.4 103.9L130.4 122.4Q130.4 123.1 129.9 123.5Q129.5 123.9 128.8 123.9L128.8 123.9Q128.1 123.9 127.7 123.5Q127.2 123.1 127.2 122.4L127.2 122.4L127.2 120.9L127.2 120.9Q126.5 122.3 125.3 123.1Q124.1 123.9 122.3 123.9ZM123.2 121.2L123.2 121.2Q125.0 121.2 126.1 119.8Q127.2 118.4 127.2 116.0L127.2 116.0Q127.2 113.6 126.1 112.1Q125.0 110.7 123.2 110.7L123.2 110.7Q121.3 110.7 120.2 112.1Q119.1 113.5 119.1 116.0L119.1 116.0Q119.1 118.4 120.2 119.8Q121.3 121.2 123.2 121.2ZM138.1 123.9L138.1 123.9Q135.9 123.9 134.4 122.6Q133.0 121.3 133.0 119.3L133.0 119.3Q133.0 117.3 134.5 116.1Q136.0 114.9 138.7 114.7L138.7 114.7L142.9 114.5L142.9 113.3Q142.9 112.0 142.1 111.3Q141.3 110.6 139.9 110.6L139.9 110.6Q138.7 110.6 137.9 111.0Q137.1 111.5 136.4 112.5L136.4 112.5Q136.0 113.2 135.2 113.2L135.2 113.2Q134.6 113.2 134.2 112.8Q133.8 112.4 133.8 111.9L133.8 111.9Q133.8 111.3 134.1 110.8L134.1 110.8Q134.7 109.5 136.3 108.8Q137.9 108.0 140.0 108.0L140.0 108.0Q142.8 108.0 144.4 109.4Q146.1 110.7 146.1 113.0L146.1 113.0L146.1 122.3Q146.1 123.1 145.7 123.5Q145.2 123.9 144.6 123.9L144.6 123.9Q143.9 123.9 143.5 123.5Q143.1 123.1 143.1 122.4L143.1 122.4L143.1 121.1L143.0 121.1Q142.3 122.4 141.0 123.2Q139.7 123.9 138.1 123.9ZM139.0 121.4L139.0 121.4Q140.7 121.4 141.8 120.4Q142.9 119.4 142.9 117.9L142.9 117.9L142.9 116.7L139.1 116.9Q137.7 117.0 137.0 117.6Q136.2 118.2 136.2 119.2L136.2 119.2Q136.2 120.2 137.0 120.8Q137.7 121.4 139.0 121.4ZM151.1 129.4L151.1 129.4Q150.0 129.4 149.4 129.0Q148.8 128.6 148.8 127.9L148.8 127.9Q148.8 127.4 149.1 127.1Q149.5 126.8 150.0 126.8L150.0 126.8Q150.2 126.8 150.4 126.8Q150.7 126.8 150.8 126.8L150.8 126.8Q152.4 126.8 153.2 124.7L153.2 124.7L153.5 123.8L148.3 110.3Q148.1 109.9 148.1 109.4L148.1 109.4Q148.1 108.8 148.6 108.4Q149.1 108.0 149.8 108.0L149.8 108.0Q150.4 108.0 150.7 108.3Q151.1 108.5 151.3 109.2L151.3 109.2L155.2 120.8L155.3 120.8L159.2 109.2Q159.4 108.5 159.7 108.3Q160.1 108.0 160.7 108.0L160.7 108.0Q161.4 108.0 161.8 108.4Q162.2 108.8 162.2 109.4L162.2 109.4Q162.2 109.8 162.1 110.3L162.1 110.3L156.7 124.4Q155.7 127.2 154.5 128.3Q153.2 129.4 151.1 129.4ZM166.7 120.1L166.7 120.1Q167.4 120.1 167.8 120.5Q168.2 120.8 168.2 121.4L168.2 121.4Q168.2 121.8 168.1 122.3L168.1 122.3L166.8 127.3Q166.5 128.4 165.4 128.4L165.4 128.4Q164.9 128.4 164.5 128.1Q164.2 127.7 164.2 127.2L164.2 127.2Q164.2 127.1 164.3 126.8L164.3 126.8L165.2 121.4Q165.4 120.1 166.7 120.1Z M191.6 123.7L179.9 123.7Q179.1 123.7 178.7 123.3Q178.3 122.9 178.3 122.3L178.3 122.3Q178.3 121.8 178.5 121.5Q178.7 121.1 179.2 120.6L179.2 120.6L185.8 113.9Q187.9 111.8 188.6 110.7Q189.3 109.6 189.3 108.3L189.3 108.3Q189.3 106.8 188.2 105.8Q187.2 104.8 185.6 104.8L185.6 104.8Q182.5 104.8 181.3 108.0L181.3 108.0Q181.1 108.5 180.8 108.8Q180.4 109.0 179.9 109.0L179.9 109.0Q179.2 109.0 178.8 108.6Q178.4 108.3 178.4 107.6L178.4 107.6Q178.4 107.3 178.5 107.0L178.5 107.0Q178.7 106.1 179.2 105.3Q179.8 104.4 180.6 103.7Q181.5 103.0 182.8 102.6Q184.1 102.1 185.6 102.1L185.6 102.1Q188.6 102.1 190.6 103.8Q192.5 105.5 192.5 108.1L192.5 108.1Q192.5 109.9 191.5 111.5Q190.5 113.0 187.8 115.8L187.8 115.8L182.8 120.8L182.8 120.9L191.6 120.9Q192.2 120.9 192.6 121.3Q193.0 121.7 193.0 122.3L193.0 122.3Q193.0 122.9 192.6 123.3Q192.2 123.7 191.6 123.7L191.6 123.7ZM203.7 124.1L203.7 124.1Q201.3 124.1 199.4 122.9Q197.6 121.6 196.5 119.3L196.5 119.3Q195.4 116.9 195.4 113.4L195.4 113.4Q195.4 108.1 197.6 105.1Q199.9 102.1 203.8 102.1L203.8 102.1Q206.0 102.1 207.8 103.0Q209.5 103.9 210.4 105.5L210.4 105.5Q210.7 106.1 210.7 106.7L210.7 106.7Q210.7 107.3 210.3 107.7Q209.9 108.1 209.3 108.1L209.3 108.1Q208.8 108.1 208.4 107.8Q208.1 107.6 207.7 107.0L207.7 107.0Q206.2 104.9 203.8 104.9L203.8 104.9Q201.3 104.9 200.0 107.0Q198.6 109.1 198.6 113.0L198.6 113.0L198.6 113.2L198.6 113.2Q199.3 111.7 200.8 110.7Q202.4 109.8 204.5 109.8L204.5 109.8Q207.5 109.8 209.5 111.8Q211.4 113.7 211.4 116.8L211.4 116.8Q211.4 119.9 209.2 122.0Q207.1 124.1 203.7 124.1ZM203.7 121.3L203.7 121.3Q205.6 121.3 206.9 120.0Q208.2 118.7 208.2 116.9L208.2 116.9Q208.2 114.9 206.9 113.7Q205.7 112.5 203.7 112.5Q201.8 112.5 200.5 113.7Q199.2 114.9 199.2 116.8L199.2 116.8Q199.2 118.7 200.5 120.0Q201.8 121.3 203.7 121.3Z M237.0 121.1Q234.3 124.0 229.7 124.0Q225.2 124.0 222.5 121.1Q219.8 118.1 219.8 113.1Q219.8 108.1 222.5 105.1Q225.2 102.2 229.7 102.2L229.7 102.2Q234.3 102.2 237.0 105.1Q239.6 108.1 239.6 113.1Q239.6 118.1 237.0 121.1ZM229.7 121.1L229.7 121.1Q232.7 121.1 234.5 119.0Q236.3 116.8 236.3 113.1L236.3 113.1Q236.3 109.4 234.5 107.2Q232.7 105.1 229.7 105.1L229.7 105.1Q226.7 105.1 224.9 107.2Q223.2 109.4 223.2 113.1L223.2 113.1Q223.2 116.8 224.9 119.0Q226.7 121.1 229.7 121.1ZM249.0 124.0L249.0 124.0Q245.6 124.0 243.7 121.8Q241.7 119.7 241.7 116.0L241.7 116.0Q241.7 112.3 243.7 110.2Q245.6 108.0 248.9 108.0L248.9 108.0Q251.1 108.0 252.9 109.0Q254.6 110.1 255.1 111.7L255.1 111.7Q255.3 112.1 255.3 112.4L255.3 112.4Q255.3 113.0 254.9 113.4Q254.5 113.7 253.9 113.7L253.9 113.7Q253.4 113.7 253.1 113.5Q252.8 113.3 252.5 112.8L252.5 112.8Q251.9 111.7 251.0 111.1Q250.2 110.6 249.0 110.6L249.0 110.6Q247.1 110.6 246.0 112.1Q244.9 113.5 244.9 116.0L244.9 116.0Q244.9 118.4 246.0 119.9Q247.1 121.3 249.0 121.3L249.0 121.3Q251.3 121.3 252.5 119.2L252.5 119.2Q252.8 118.6 253.1 118.4Q253.4 118.2 254.0 118.2L254.0 118.2Q254.5 118.2 254.9 118.6Q255.3 118.9 255.3 119.5L255.3 119.5Q255.3 119.9 255.1 120.3L255.1 120.3Q254.5 121.9 252.8 122.9Q251.1 124.0 249.0 124.0ZM258.8 120.0L258.8 120.0L258.8 110.8L257.7 110.8Q257.1 110.8 256.7 110.4Q256.4 110.1 256.4 109.5Q256.4 108.9 256.7 108.6Q257.1 108.3 257.7 108.3L257.7 108.3L258.8 108.3L258.8 106.0Q258.8 105.2 259.2 104.7Q259.7 104.3 260.4 104.3Q261.1 104.3 261.5 104.7Q262.0 105.2 262.0 106.0L262.0 106.0L262.0 108.3L263.8 108.3Q264.4 108.3 264.7 108.6Q265.1 108.9 265.1 109.5Q265.1 110.1 264.7 110.4Q264.4 110.8 263.8 110.8L263.8 110.8L262.0 110.8L262.0 119.3Q262.0 120.2 262.3 120.6Q262.7 121.1 263.5 121.1L263.5 121.1L263.8 121.2Q265.1 121.3 265.1 122.4L265.1 122.4Q265.1 123.8 262.9 123.8L262.9 123.8L262.7 123.8Q258.8 123.8 258.8 120.0ZM279.4 121.8Q277.4 124.0 274.1 124.0Q270.8 124.0 268.8 121.8Q266.8 119.7 266.8 116.0L266.8 116.0Q266.8 112.3 268.8 110.1Q270.8 108.0 274.1 108.0Q277.4 108.0 279.4 110.1Q281.4 112.3 281.4 116.0L281.4 116.0Q281.4 119.7 279.4 121.8ZM274.1 121.3L274.1 121.3Q276.0 121.3 277.1 119.9Q278.2 118.5 278.2 116.0L278.2 116.0Q278.2 113.4 277.1 112.0Q276.0 110.6 274.1 110.6Q272.2 110.6 271.1 112.0Q270.0 113.4 270.0 116.0L270.0 116.0Q270.0 118.5 271.1 119.9Q272.2 121.3 274.1 121.3ZM285.5 123.9L285.5 123.9Q284.8 123.9 284.4 123.5Q284.0 123.1 284.0 122.4L284.0 122.4L284.0 103.9Q284.0 103.2 284.4 102.7Q284.9 102.2 285.6 102.2Q286.3 102.2 286.7 102.7Q287.1 103.2 287.1 103.9L287.1 103.9L287.1 110.9L287.2 110.9Q287.9 109.5 289.2 108.8Q290.5 108.0 292.1 108.0L292.1 108.0Q295.0 108.0 296.8 110.2Q298.5 112.3 298.5 116.0L298.5 116.0Q298.5 119.6 296.8 121.8Q295.0 123.9 292.1 123.9L292.1 123.9Q290.4 123.9 289.1 123.2Q287.8 122.4 287.1 121.0L287.1 121.0L287.1 121.0L287.1 122.4Q287.1 123.1 286.6 123.5Q286.2 123.9 285.5 123.9ZM291.2 121.2L291.2 121.2Q293.1 121.2 294.2 119.8Q295.3 118.4 295.3 116.0L295.3 116.0Q295.3 113.5 294.2 112.1Q293.1 110.7 291.2 110.7L291.2 110.7Q289.4 110.7 288.3 112.1Q287.1 113.6 287.1 116.0L287.1 116.0Q287.1 118.3 288.3 119.8Q289.4 121.2 291.2 121.2ZM307.6 124.0L307.6 124.0Q304.2 124.0 302.2 121.9Q300.3 119.8 300.3 116.0L300.3 116.0Q300.3 112.4 302.2 110.2Q304.2 108.0 307.4 108.0L307.4 108.0Q310.5 108.0 312.4 110.0Q314.4 112.0 314.4 115.1L314.4 115.1Q314.4 115.9 313.9 116.3Q313.5 116.8 312.8 116.8L312.8 116.8L303.5 116.8L303.5 116.8Q303.5 118.9 304.6 120.2Q305.7 121.4 307.6 121.4L307.6 121.4Q308.9 121.4 309.8 120.9Q310.7 120.4 311.6 119.2L311.6 119.2Q312.0 118.6 312.7 118.6L312.7 118.6Q313.3 118.6 313.6 119.0Q314.0 119.3 314.0 119.9L314.0 119.9Q314.0 120.3 313.8 120.8L313.8 120.8Q313.0 122.3 311.4 123.1Q309.8 124.0 307.6 124.0ZM303.5 114.5L303.5 114.5L311.2 114.5Q311.1 112.7 310.1 111.6Q309.1 110.5 307.4 110.5L307.4 110.5Q305.8 110.5 304.7 111.6Q303.6 112.7 303.5 114.5ZM318.4 123.9L318.4 123.9Q317.7 123.9 317.2 123.5Q316.8 123.0 316.8 122.3L316.8 122.3L316.8 109.6Q316.8 108.9 317.2 108.4Q317.6 108.0 318.3 108.0L318.3 108.0Q319.0 108.0 319.4 108.4Q319.8 108.9 319.8 109.6L319.8 109.6L319.8 110.9L319.9 110.9Q320.2 109.6 321.1 108.8Q322.1 108.0 323.3 108.0L323.3 108.0Q324.1 108.0 324.5 108.4L324.5 108.4Q324.9 108.7 324.9 109.5L324.9 109.5Q324.9 110.2 324.5 110.6L324.5 110.6Q324.0 111.0 323.0 111.0L323.0 111.0Q321.5 111.0 320.7 112.0Q320.0 112.9 320.0 114.4L320.0 114.4L320.0 122.3Q320.0 123.0 319.5 123.5Q319.1 123.9 318.4 123.9Z M346.0 123.7L334.3 123.7Q333.6 123.7 333.1 123.3Q332.7 122.9 332.7 122.3L332.7 122.3Q332.7 121.8 332.9 121.5Q333.1 121.1 333.6 120.6L333.6 120.6L340.2 113.9Q342.3 111.8 343.0 110.7Q343.7 109.6 343.7 108.3L343.7 108.3Q343.7 106.8 342.6 105.8Q341.6 104.8 340 104.8L340 104.8Q336.9 104.8 335.8 108.0L335.8 108.0Q335.5 108.5 335.2 108.8Q334.8 109.0 334.3 109.0L334.3 109.0Q333.6 109.0 333.2 108.6Q332.8 108.3 332.8 107.6L332.8 107.6Q332.8 107.3 332.9 107.0L332.9 107.0Q333.1 106.1 333.6 105.3Q334.2 104.4 335.0 103.7Q335.9 103.0 337.2 102.6Q338.5 102.1 340.0 102.1L340.0 102.1Q343.0 102.1 345.0 103.8Q346.9 105.5 346.9 108.1L346.9 108.1Q346.9 109.9 345.9 111.5Q345.0 113.0 342.2 115.8L342.2 115.8L337.2 120.8L337.2 120.9L346.0 120.9Q346.6 120.9 347.0 121.3Q347.4 121.7 347.4 122.3L347.4 122.3Q347.4 122.9 347.0 123.3Q346.6 123.7 346.0 123.7L346.0 123.7ZM363.8 121.1Q361.7 124.1 357.9 124.1Q354.1 124.1 352.0 121.1Q349.8 118.2 349.8 113.1L349.8 113.1Q349.8 108.0 352.0 105.1Q354.1 102.1 357.9 102.1L357.9 102.1Q361.7 102.1 363.8 105.1Q366.0 108.0 366.0 113.1L366.0 113.1Q366.0 118.1 363.8 121.1ZM357.9 121.3L357.9 121.3Q360.2 121.3 361.4 119.1Q362.7 116.9 362.7 113.1L362.7 113.1Q362.7 109.3 361.4 107.1Q360.2 104.9 357.9 104.9Q355.6 104.9 354.4 107.1Q353.1 109.3 353.1 113.1L353.1 113.1Q353.1 116.9 354.4 119.1Q355.6 121.3 357.9 121.3ZM382.1 123.7L370.4 123.7Q369.6 123.7 369.2 123.3Q368.8 122.9 368.8 122.3L368.8 122.3Q368.8 121.8 369.0 121.5Q369.2 121.1 369.7 120.6L369.7 120.6L376.3 113.9Q378.4 111.8 379.1 110.7Q379.8 109.6 379.8 108.3L379.8 108.3Q379.8 106.8 378.7 105.8Q377.7 104.8 376.1 104.8L376.1 104.8Q373.0 104.8 371.8 108.0L371.8 108.0Q371.6 108.5 371.3 108.8Q370.9 109.0 370.4 109.0L370.4 109.0Q369.7 109.0 369.3 108.6Q368.9 108.3 368.9 107.6L368.9 107.6Q368.9 107.3 369.0 107.0L369.0 107.0Q369.2 106.1 369.7 105.3Q370.3 104.4 371.1 103.7Q372.0 103.0 373.3 102.6Q374.6 102.1 376.1 102.1L376.1 102.1Q379.1 102.1 381.1 103.8Q383.0 105.5 383.0 108.1L383.0 108.1Q383.0 109.9 382.0 111.5Q381.0 113.0 378.3 115.8L378.3 115.8L373.3 120.8L373.3 120.9L382.1 120.9Q382.7 120.9 383.1 121.3Q383.5 121.7 383.5 122.3L383.5 122.3Q383.5 122.9 383.1 123.3Q382.7 123.7 382.1 123.7L382.1 123.7ZM393.6 124.1L393.6 124.1Q391.1 124.1 389.3 123.1Q387.5 122.2 386.6 120.6L386.6 120.6Q386.2 119.8 386.2 119.0L386.2 119.0Q386.2 118.3 386.6 117.9Q387.0 117.5 387.7 117.5L387.7 117.5Q388.2 117.5 388.6 117.8Q388.9 118.1 389.1 118.6L389.1 118.6Q390.3 121.3 393.7 121.3L393.7 121.3Q395.6 121.3 396.8 120.3Q397.9 119.4 398.0 117.8L398.0 117.8Q398.0 116.0 396.8 115.0Q395.5 114.0 393.4 114.0L393.4 114.0L392.0 114.0Q391.4 114.0 391.0 113.7Q390.6 113.3 390.6 112.8Q390.6 112.2 391.0 111.8Q391.4 111.5 392.0 111.5L392.0 111.5L393.3 111.5Q395.1 111.5 396.3 110.5Q397.4 109.6 397.4 108.1L397.4 108.1Q397.4 106.6 396.4 105.7Q395.4 104.8 393.6 104.8L393.6 104.8Q392.0 104.8 391.1 105.5Q390.1 106.1 389.5 107.5L389.5 107.5Q389.3 108.1 389.0 108.4Q388.6 108.6 388.1 108.6L388.1 108.6Q387.4 108.6 387.0 108.3Q386.6 107.9 386.6 107.2L386.6 107.2Q386.6 106.4 387.0 105.6L387.0 105.6Q387.9 104.0 389.6 103.1Q391.3 102.1 393.6 102.1L393.6 102.1Q396.8 102.1 398.7 103.7Q400.6 105.2 400.6 107.6L400.6 107.6Q400.6 109.6 399.3 110.9Q398.1 112.2 396.1 112.6L396.1 112.6L396.1 112.7Q398.5 112.9 399.9 114.3Q401.3 115.6 401.3 117.8L401.3 117.8Q401.3 120.6 399.1 122.3Q397.0 124.1 393.6 124.1Z "/><mask id="satori_om-id-0-0-1"><rect x="40" y="176" width="1120" height="165" fill="#fff"/></mask><path fill="#224d67" d="M47.5 239.1L47.5 239.1Q45.7 239.1 44.7 238.0Q43.7 237.0 43.7 235.2L43.7 235.2L43.7 199.7Q43.7 197.9 44.7 196.8Q45.7 195.8 47.5 195.8L47.5 195.8Q49.3 195.8 50.3 196.8Q51.3 197.9 51.3 199.7L51.3 199.7L51.3 213.9L71.8 213.9L71.8 199.7Q71.8 197.9 72.8 196.8Q73.8 195.8 75.6 195.8L75.6 195.8Q77.4 195.8 78.4 196.8Q79.4 197.9 79.4 199.7L79.4 199.7L79.4 235.2Q79.4 237.0 78.4 238.1Q77.4 239.1 75.6 239.1L75.6 239.1Q73.8 239.1 72.8 238.1Q71.8 237.0 71.8 235.2L71.8 235.2L71.8 220.2L51.3 220.2L51.3 235.2Q51.3 237.0 50.3 238.1Q49.3 239.1 47.5 239.1ZM110.8 234.9Q106.7 239.2 99.8 239.2Q92.9 239.2 88.9 234.9Q84.8 230.6 84.8 223.1L84.8 223.1Q84.8 215.6 88.9 211.2Q93.0 206.9 99.8 206.9L99.8 206.9Q106.7 206.9 110.8 211.2Q114.9 215.6 114.9 223.1L114.9 223.1Q114.9 230.6 110.8 234.9ZM94.3 230.7Q96.3 233.4 99.8 233.4Q103.3 233.4 105.4 230.7Q107.4 228.0 107.4 223.1L107.4 223.1Q107.4 218.2 105.4 215.4Q103.3 212.7 99.8 212.7L99.8 212.7Q96.3 212.7 94.3 215.4Q92.2 218.2 92.2 223.1L92.2 223.1Q92.2 228.0 94.3 230.7ZM123.2 239.2L123.2 239.2Q121.5 239.2 120.5 238.2Q119.5 237.1 119.5 235.3L119.5 235.3L119.5 210.6Q119.5 208.9 120.5 207.9Q121.4 206.9 123.0 206.9Q124.6 206.9 125.6 207.9Q126.5 208.9 126.5 210.6L126.5 210.6L126.5 212.9L126.7 212.9Q127.7 210.2 130.1 208.5Q132.4 206.9 135.5 206.9L135.5 206.9Q138.8 206.9 141.1 208.6Q143.4 210.2 144.2 213.2L144.2 213.2L144.4 213.2Q145.5 210.3 148.1 208.6Q150.7 206.9 154.1 206.9L154.1 206.9Q158.7 206.9 161.4 209.8Q164.2 212.6 164.2 217.3L164.2 217.3L164.2 235.3Q164.2 237.1 163.2 238.1Q162.2 239.2 160.6 239.2L160.6 239.2Q158.9 239.2 157.9 238.1Q156.9 237.1 156.9 235.3L156.9 235.3L156.9 219.1Q156.9 216.2 155.4 214.6Q154.0 213.1 151.3 213.1L151.3 213.1Q148.7 213.1 147.1 214.8Q145.4 216.6 145.4 219.4L145.4 219.4L145.4 235.3Q145.4 237.1 144.5 238.2Q143.5 239.2 141.9 239.2L141.9 239.2Q140.2 239.2 139.3 238.2Q138.3 237.1 138.3 235.3L138.3 235.3L138.3 218.7Q138.3 216.1 136.8 214.6Q135.4 213.1 132.8 213.1L132.8 213.1Q130.2 213.1 128.5 214.9Q126.8 216.8 126.8 219.6L126.8 219.6L126.8 235.3Q126.8 237.1 125.8 238.1Q124.8 239.2 123.2 239.2ZM183.8 239.2L183.8 239.2Q176.7 239.2 172.7 235.0Q168.7 230.7 168.7 223.2L168.7 223.2Q168.7 215.7 172.7 211.3Q176.7 206.9 183.4 206.9L183.4 206.9Q189.8 206.9 193.7 210.9Q197.7 215.0 197.7 221.4L197.7 221.4Q197.7 223.0 196.8 223.9Q195.9 224.8 194.3 224.8L194.3 224.8L176.0 224.8L176.0 225.0Q176.0 228.9 178.1 231.3Q180.2 233.6 183.8 233.6L183.8 233.6Q186.2 233.6 188.0 232.6Q189.8 231.7 191.5 229.4L191.5 229.4Q192.6 228.3 194.0 228.3L194.0 228.3Q195.2 228.3 196.1 229.0Q196.9 229.8 196.9 231.1L196.9 231.1Q196.9 231.9 196.4 232.9L196.4 232.9Q194.9 235.9 191.6 237.5Q188.2 239.2 183.8 239.2ZM176.1 220.0L176.1 220.0L190.6 220.0Q190.4 216.6 188.5 214.6Q186.5 212.5 183.4 212.5Q180.4 212.5 178.3 214.6Q176.3 216.7 176.1 220.0ZM209.7 238.1Q208.7 239.2 206.9 239.2Q205.1 239.2 204.1 238.1Q203.1 237.1 203.1 235.2L203.1 235.2L203.1 200.2Q203.1 198.4 204.1 197.3Q205.1 196.3 206.9 196.3L206.9 196.3L219.9 196.3Q226.7 196.3 230.6 199.8Q234.5 203.4 234.5 209.5L234.5 209.5Q234.5 213.6 232.5 216.8Q230.5 220.0 226.8 221.4L226.8 221.4L233.5 233.1Q234.3 234.5 234.3 235.7L234.3 235.7Q234.3 237.2 233.2 238.2Q232.2 239.2 230.5 239.2L230.5 239.2Q229.2 239.2 228.4 238.6Q227.6 238.0 226.7 236.4L226.7 236.4L219.2 222.7L210.7 222.7L210.7 235.2Q210.7 237.1 209.7 238.1ZM210.7 202.4L210.7 216.9L219.2 216.9Q222.8 216.9 224.8 215.0Q226.8 213.1 226.8 209.6L226.8 209.6Q226.8 206.3 224.7 204.4Q222.6 202.4 219.1 202.4L219.1 202.4L210.7 202.4ZM264.6 234.9Q260.5 239.2 253.6 239.2Q246.7 239.2 242.7 234.9Q238.6 230.6 238.6 223.1L238.6 223.1Q238.6 215.6 242.7 211.2Q246.8 206.9 253.6 206.9L253.6 206.9Q260.5 206.9 264.6 211.2Q268.7 215.6 268.7 223.1L268.7 223.1Q268.7 230.6 264.6 234.9ZM248.1 230.7Q250.1 233.4 253.6 233.4Q257.1 233.4 259.2 230.7Q261.3 228.0 261.3 223.1L261.3 223.1Q261.3 218.2 259.2 215.4Q257.1 212.7 253.6 212.7L253.6 212.7Q250.1 212.7 248.1 215.4Q246.0 218.2 246.0 223.1L246.0 223.1Q246.0 228.0 248.1 230.7ZM279.7 238.2Q278.7 239.2 277.1 239.2Q275.5 239.2 274.5 238.2Q273.6 237.3 273.6 235.5L273.6 235.5L273.6 199.6Q273.6 197.7 274.6 196.7Q275.6 195.7 277.2 195.7Q278.9 195.7 279.9 196.7Q280.8 197.7 280.8 199.6L280.8 199.6L280.8 212.9L281.0 212.9Q282.4 210.1 284.9 208.5Q287.5 207.0 290.8 207.0L290.8 207.0Q296.6 207.0 300.1 211.3Q303.6 215.6 303.6 223.1L303.6 223.1Q303.6 230.5 300.1 234.8Q296.6 239.1 290.7 239.1L290.7 239.1Q287.4 239.1 284.8 237.6Q282.3 236.0 280.8 233.3L280.8 233.3L280.7 233.3L280.7 235.5Q280.7 237.2 279.7 238.2ZM288.5 233.1L288.5 233.1Q292.0 233.1 294.0 230.4Q296.1 227.7 296.1 223.1Q296.1 218.4 294.0 215.7Q292.0 213.0 288.5 213.0L288.5 213.0Q285.1 213.0 283.0 215.8Q280.8 218.5 280.8 223.1L280.8 223.1Q280.8 227.6 283.0 230.3Q285.1 233.1 288.5 233.1ZM332.9 234.9Q328.9 239.2 322.0 239.2Q315.1 239.2 311.0 234.9Q307.0 230.6 307.0 223.1L307.0 223.1Q307.0 215.6 311.1 211.2Q315.2 206.9 322.0 206.9L322.0 206.9Q328.8 206.9 332.9 211.2Q337.0 215.6 337.0 223.1L337.0 223.1Q337.0 230.6 332.9 234.9ZM316.4 230.7Q318.5 233.4 322.0 233.4Q325.5 233.4 327.5 230.7Q329.6 228.0 329.6 223.1L329.6 223.1Q329.6 218.2 327.5 215.4Q325.5 212.7 322.0 212.7L322.0 212.7Q318.5 212.7 316.4 215.4Q314.4 218.2 314.4 223.1L314.4 223.1Q314.4 228.0 316.4 230.7ZM343.7 230.9L343.7 230.9L343.7 213.1L341.8 213.1Q340.4 213.1 339.6 212.4Q338.8 211.6 338.8 210.3L338.8 210.3Q338.8 209.0 339.6 208.3Q340.4 207.5 341.8 207.5L341.8 207.5L343.7 207.5L343.7 203.4Q343.7 201.6 344.7 200.6Q345.7 199.6 347.4 199.6L347.4 199.6Q349.1 199.6 350.0 200.6Q351.0 201.6 351.0 203.4L351.0 203.4L351.0 207.5L354.4 207.5Q355.8 207.5 356.5 208.3Q357.3 209.0 357.3 210.3L357.3 210.3Q357.3 211.6 356.5 212.4Q355.7 213.1 354.4 213.1L354.4 213.1L351.0 213.1L351.0 229.3Q351.0 231.1 351.7 231.9Q352.4 232.7 353.9 232.9L353.9 232.9L354.5 232.9Q357.4 233.2 357.4 235.6L357.4 235.6Q357.4 237.2 356.1 238.1Q354.7 238.9 352.2 238.9L352.2 238.9L351.9 238.9Q343.7 238.9 343.7 230.9ZM366.9 217.7L366.9 217.7Q365.1 217.7 363.9 216.5Q362.7 215.3 362.7 213.5Q362.7 211.8 363.9 210.5Q365.1 209.3 366.9 209.3L366.9 209.3Q368.7 209.3 369.9 210.5Q371.1 211.8 371.1 213.5Q371.1 215.3 369.9 216.5Q368.7 217.7 366.9 217.7ZM366.9 238.9L366.9 238.9Q365.1 238.9 363.9 237.7Q362.7 236.5 362.7 234.7L362.7 234.7Q362.7 232.9 363.9 231.7Q365.1 230.5 366.9 230.5L366.9 230.5Q368.7 230.5 369.9 231.7Q371.1 232.9 371.1 234.7L371.1 234.7Q371.1 236.5 369.9 237.7Q368.7 238.9 366.9 238.9Z M392.6 239.1L392.6 239.1Q390.8 239.1 389.8 238.1Q388.8 237.2 388.8 235.6L388.8 235.6Q388.8 234.6 389.2 233.3L389.2 233.3L401.5 199.9Q402.3 197.8 403.6 196.8Q405.0 195.8 407.0 195.8L407.0 195.8Q409.1 195.8 410.4 196.8Q411.7 197.7 412.5 199.9L412.5 199.9L424.8 233.3Q425.3 234.7 425.3 235.6L425.3 235.6Q425.3 237.1 424.3 238.1Q423.2 239.1 421.6 239.1L421.6 239.1Q420.0 239.1 419.1 238.3Q418.2 237.6 417.7 235.9L417.7 235.9L414.9 227.8L399.1 227.8L396.3 235.8Q395.8 237.6 394.9 238.3Q394.0 239.1 392.6 239.1ZM406.9 203.8L400.9 221.8L413.1 221.8L407.1 203.8L406.9 203.8ZM436.4 238.2Q435.4 239.2 433.7 239.2Q432.1 239.2 431.1 238.2Q430.1 237.1 430.1 235.3L430.1 235.3L430.1 210.6Q430.1 208.9 431.0 207.9Q432.0 206.9 433.6 206.9Q435.2 206.9 436.2 207.9Q437.2 208.9 437.2 210.6L437.2 210.6L437.2 212.8L437.3 212.8Q440.0 206.9 447.0 206.9L447.0 206.9Q452.1 206.9 454.9 210.0Q457.7 213.1 457.7 218.5L457.7 218.5L457.7 235.3Q457.7 237.1 456.7 238.2Q455.8 239.2 454.1 239.2Q452.5 239.2 451.5 238.2Q450.4 237.1 450.4 235.3L450.4 235.3L450.4 220.0Q450.4 216.6 448.9 214.9Q447.3 213.1 444.2 213.1L444.2 213.1Q441.1 213.1 439.2 215.2Q437.4 217.2 437.4 220.6L437.4 220.6L437.4 235.3Q437.4 237.1 436.4 238.2Z M495.0 239.3L495.0 239.3Q485.7 239.3 480.3 233.4Q474.9 227.5 474.9 217.5Q474.9 207.4 480.3 201.5Q485.7 195.6 495.0 195.6L495.0 195.6Q504.2 195.6 509.6 201.5Q515.0 207.4 515.0 217.5Q515.0 227.5 509.6 233.4Q504.2 239.3 495.0 239.3ZM486.0 228.7Q489.3 232.8 495.0 232.8Q500.6 232.8 503.9 228.7Q507.3 224.5 507.3 217.5Q507.3 210.4 503.9 206.2Q500.6 202.0 495.0 202.0Q489.3 202.0 486.0 206.2Q482.6 210.4 482.6 217.5L482.6 217.5Q482.6 224.5 486.0 228.7ZM526.5 248.6Q525.5 249.6 523.9 249.6Q522.3 249.6 521.3 248.6Q520.3 247.6 520.3 245.8L520.3 245.8L520.3 210.7Q520.3 208.9 521.2 207.9Q522.2 206.9 523.8 206.9L523.8 206.9Q525.4 206.9 526.4 207.9Q527.4 208.9 527.4 210.7L527.4 210.7L527.4 212.9L527.5 212.9Q528.9 210.1 531.4 208.6Q534.0 207.0 537.3 207.0L537.3 207.0Q543.2 207.0 546.7 211.3Q550.2 215.6 550.2 223.1L550.2 223.1Q550.2 230.5 546.7 234.8Q543.3 239.1 537.4 239.1L537.4 239.1Q534.1 239.1 531.5 237.6Q529.0 236.1 527.7 233.4L527.7 233.4L527.6 233.4L527.6 245.8Q527.6 247.6 526.5 248.6ZM535.1 233.1L535.1 233.1Q538.6 233.1 540.7 230.4Q542.7 227.7 542.7 223.1L542.7 223.1Q542.7 218.5 540.7 215.7Q538.6 213.0 535.1 213.0L535.1 213.0Q531.7 213.0 529.6 215.8Q527.5 218.5 527.5 223.1L527.5 223.1Q527.5 227.6 529.6 230.4Q531.7 233.1 535.1 233.1ZM568.7 239.2L568.7 239.2Q561.6 239.2 557.6 235.0Q553.6 230.7 553.6 223.2L553.6 223.2Q553.6 215.7 557.6 211.3Q561.6 206.9 568.3 206.9L568.3 206.9Q574.6 206.9 578.6 210.9Q582.6 215.0 582.6 221.4L582.6 221.4Q582.6 223.0 581.7 223.9Q580.8 224.8 579.2 224.8L579.2 224.8L560.9 224.8L560.9 225.0Q560.9 228.9 563.0 231.3Q565.1 233.6 568.6 233.6L568.6 233.6Q571.1 233.6 572.9 232.6Q574.6 231.7 576.4 229.4L576.4 229.4Q577.5 228.3 578.9 228.3L578.9 228.3Q580.1 228.3 581.0 229.0Q581.8 229.8 581.8 231.1L581.8 231.1Q581.8 231.9 581.3 232.9L581.3 232.9Q579.7 235.9 576.4 237.5Q573.1 239.2 568.7 239.2ZM560.9 220.0L560.9 220.0L575.4 220.0Q575.3 216.6 573.3 214.6Q571.4 212.5 568.3 212.5Q565.2 212.5 563.2 214.6Q561.1 216.7 560.9 220.0ZM593.5 238.2Q592.5 239.2 590.9 239.2Q589.3 239.2 588.3 238.2Q587.3 237.1 587.3 235.3L587.3 235.3L587.3 210.6Q587.3 208.9 588.2 207.9Q589.1 206.9 590.8 206.9Q592.4 206.9 593.4 207.9Q594.4 208.9 594.4 210.6L594.4 210.6L594.4 212.8L594.5 212.8Q597.1 206.9 604.2 206.9L604.2 206.9Q609.3 206.9 612.1 210.0Q614.9 213.1 614.9 218.5L614.9 218.5L614.9 235.3Q614.9 237.1 613.9 238.2Q612.9 239.2 611.3 239.2Q609.6 239.2 608.6 238.2Q607.6 237.1 607.6 235.3L607.6 235.3L607.6 220.0Q607.6 216.6 606.1 214.9Q604.5 213.1 601.4 213.1L601.4 213.1Q598.3 213.1 596.4 215.2Q594.6 217.2 594.6 220.6L594.6 220.6L594.6 235.3Q594.6 237.1 593.5 238.2Z M648.4 239.3L648.4 239.3Q642.2 239.3 638.1 237.0Q633.9 234.7 632.7 231.0L632.7 231.0Q632.3 229.9 632.3 228.8L632.3 228.8Q632.3 227.2 633.2 226.3Q634.1 225.3 635.6 225.3L635.6 225.3Q636.9 225.3 637.7 225.9Q638.5 226.4 639.2 227.7L639.2 227.7Q640.1 230.4 642.6 231.7Q645.1 233.0 648.6 233.0L648.6 233.0Q652.4 233.0 654.9 231.3Q657.3 229.6 657.3 227.0L657.3 227.0Q657.3 224.7 655.5 223.2Q653.7 221.8 649.7 220.9L649.7 220.9L645.1 220.0Q632.7 217.4 632.7 208.1L632.7 208.1Q632.7 202.5 637.1 199.1Q641.5 195.6 648.4 195.6L648.4 195.6Q654.0 195.6 658.1 198.0Q662.1 200.4 663.4 204.5L663.4 204.5Q663.7 205.2 663.7 206.3L663.7 206.3Q663.7 207.6 662.8 208.5Q661.9 209.4 660.4 209.4L660.4 209.4Q657.9 209.4 656.8 207.0L656.8 207.0Q654.7 201.9 648.3 201.9L648.3 201.9Q644.8 201.9 642.6 203.4Q640.3 205.0 640.3 207.6L640.3 207.6Q640.3 209.8 642.1 211.2Q643.8 212.7 647.7 213.5L647.7 213.5L652.2 214.4Q658.9 215.8 661.9 218.6Q664.9 221.4 664.9 226.1L664.9 226.1Q664.9 232.2 660.4 235.7Q656.0 239.3 648.4 239.3ZM694.5 234.9Q690.4 239.2 683.6 239.2Q676.7 239.2 672.6 234.9Q668.5 230.6 668.5 223.1L668.5 223.1Q668.5 215.6 672.6 211.2Q676.7 206.9 683.6 206.9L683.6 206.9Q690.4 206.9 694.5 211.2Q698.6 215.6 698.6 223.1L698.6 223.1Q698.6 230.6 694.5 234.9ZM678.0 230.7Q680.0 233.4 683.6 233.4Q687.1 233.4 689.1 230.7Q691.2 228.0 691.2 223.1L691.2 223.1Q691.2 218.2 689.1 215.4Q687.1 212.7 683.6 212.7L683.6 212.7Q680.1 212.7 678.0 215.4Q675.9 218.2 675.9 223.1L675.9 223.1Q675.9 228.0 678.0 230.7ZM714.2 239.1L714.2 239.1Q709.1 239.1 706.1 236.0Q703.1 233.0 703.1 227.6L703.1 227.6L703.1 210.7Q703.1 209.0 704.1 207.9Q705.1 206.9 706.8 206.9Q708.4 206.9 709.4 207.9Q710.4 209.0 710.4 210.8L710.4 210.8L710.4 226.1Q710.4 229.5 712.0 231.2Q713.6 233.0 716.7 233.0L716.7 233.0Q719.8 233.0 721.7 230.9Q723.5 228.9 723.5 225.5L723.5 225.5L723.5 210.7Q723.5 209.0 724.5 207.9Q725.5 206.9 727.2 206.9L727.2 206.9Q728.8 206.9 729.8 207.9Q730.8 209.0 730.8 210.8L730.8 210.8L730.8 235.5Q730.8 237.2 729.9 238.2Q728.9 239.2 727.3 239.2L727.3 239.2Q725.7 239.2 724.8 238.2Q723.8 237.2 723.8 235.5L723.8 235.5L723.8 233.2L723.6 233.2Q721.1 239.1 714.2 239.1ZM743.1 238.1Q742.1 239.2 740.4 239.2Q738.7 239.2 737.7 238.1Q736.8 237.1 736.8 235.3L736.8 235.3L736.8 210.6Q736.8 208.9 737.7 207.9Q738.7 206.9 740.3 206.9L740.3 206.9Q741.8 206.9 742.7 207.9Q743.7 208.9 743.7 210.6L743.7 210.6L743.7 213.0L743.9 213.0Q744.5 210.3 746.3 208.6Q748.2 207.0 750.5 207.0L750.5 207.0Q752.2 207.0 753.1 207.8L753.1 207.8Q754.1 208.6 754.1 210.4L754.1 210.4Q754.1 212.1 753.0 213.0L753.0 213.0Q752.0 213.9 749.8 214.0L749.8 214.0Q744.1 214.0 744.1 220.4L744.1 220.4L744.1 235.3Q744.1 237.1 743.1 238.1ZM771.0 239.2L771.0 239.2Q764.2 239.2 760.2 234.9Q756.1 230.5 756.1 223.1L756.1 223.1Q756.1 215.7 760.1 211.3Q764.2 206.9 771.0 206.9L771.0 206.9Q775.5 206.9 779.1 209.0Q782.6 211.1 783.8 214.4L783.8 214.4Q784.1 215.4 784.1 216.1L784.1 216.1Q784.1 217.5 783.2 218.3Q782.4 219.1 781.0 219.1L781.0 219.1Q779.9 219.1 779.2 218.6Q778.5 218.1 777.8 217.0L777.8 217.0Q775.5 212.8 771.2 212.8L771.2 212.8Q767.7 212.8 765.6 215.6Q763.5 218.3 763.5 223.1L763.5 223.1Q763.5 227.9 765.6 230.6Q767.6 233.3 771.2 233.3L771.2 233.3Q775.5 233.3 777.8 229.3L777.8 229.3Q778.5 228.1 779.3 227.6Q780.0 227.1 781.2 227.1L781.2 227.1Q782.5 227.1 783.3 227.9Q784.2 228.7 784.2 230.1L784.2 230.1Q784.2 230.9 783.8 231.9L783.8 231.9Q782.5 235.1 778.9 237.2Q775.4 239.2 771.0 239.2ZM802.9 239.2L802.9 239.2Q795.8 239.2 791.8 235.0Q787.8 230.7 787.8 223.2L787.8 223.2Q787.8 215.7 791.8 211.3Q795.8 206.9 802.5 206.9L802.5 206.9Q808.9 206.9 812.8 210.9Q816.8 215.0 816.8 221.4L816.8 221.4Q816.8 223.0 815.9 223.9Q815.0 224.8 813.4 224.8L813.4 224.8L795.1 224.8L795.1 225.0Q795.1 228.9 797.2 231.3Q799.3 233.6 802.9 233.6L802.9 233.6Q805.3 233.6 807.1 232.6Q808.9 231.7 810.6 229.4L810.6 229.4Q811.7 228.3 813.1 228.3L813.1 228.3Q814.3 228.3 815.2 229.0Q816.0 229.8 816.0 231.1L816.0 231.1Q816.0 231.9 815.5 232.9L815.5 232.9Q814.0 235.9 810.7 237.5Q807.3 239.2 802.9 239.2ZM795.2 220.0L795.2 220.0L809.7 220.0Q809.5 216.6 807.6 214.6Q805.6 212.5 802.5 212.5Q799.5 212.5 797.4 214.6Q795.4 216.7 795.2 220.0Z M849.1 239.3L849.1 239.3Q843.0 239.3 838.8 237.0Q834.7 234.7 833.4 231.0L833.4 231.0Q833.0 229.9 833.0 228.8L833.0 228.8Q833.0 227.2 833.9 226.3Q834.9 225.3 836.3 225.3L836.3 225.3Q837.6 225.3 838.4 225.9Q839.3 226.4 839.9 227.7L839.9 227.7Q840.9 230.4 843.3 231.7Q845.8 233.0 849.4 233.0L849.4 233.0Q853.2 233.0 855.6 231.3Q858.0 229.6 858.0 227.0L858.0 227.0Q858.0 224.7 856.3 223.2Q854.5 221.8 850.4 220.9L850.4 220.9L845.9 220.0Q833.4 217.4 833.4 208.1L833.4 208.1Q833.4 202.5 837.8 199.1Q842.2 195.6 849.2 195.6L849.2 195.6Q854.8 195.6 858.8 198.0Q862.9 200.4 864.2 204.5L864.2 204.5Q864.4 205.2 864.4 206.3L864.4 206.3Q864.4 207.6 863.5 208.5Q862.6 209.4 861.1 209.4L861.1 209.4Q858.7 209.4 857.5 207.0L857.5 207.0Q855.4 201.9 849.1 201.9L849.1 201.9Q845.5 201.9 843.3 203.4Q841.1 205.0 841.1 207.6L841.1 207.6Q841.1 209.8 842.8 211.2Q844.6 212.7 848.4 213.5L848.4 213.5L853.0 214.4Q859.6 215.8 862.6 218.6Q865.6 221.4 865.6 226.1L865.6 226.1Q865.6 232.2 861.2 235.7Q856.7 239.3 849.1 239.3ZM895.3 234.9Q891.2 239.2 884.3 239.2Q877.4 239.2 873.3 234.9Q869.3 230.6 869.3 223.1L869.3 223.1Q869.3 215.6 873.4 211.2Q877.5 206.9 884.3 206.9L884.3 206.9Q891.2 206.9 895.2 211.2Q899.3 215.6 899.3 223.1L899.3 223.1Q899.3 230.6 895.3 234.9ZM878.7 230.7Q880.8 233.4 884.3 233.4Q887.8 233.4 889.9 230.7Q891.9 228.0 891.9 223.1L891.9 223.1Q891.9 218.2 889.9 215.4Q887.8 212.7 884.3 212.7L884.3 212.7Q880.8 212.7 878.8 215.4Q876.7 218.2 876.7 223.1L876.7 223.1Q876.7 228.0 878.7 230.7ZM912.4 238.2Q911.4 239.2 909.7 239.2Q908.0 239.2 907.0 238.2Q906.0 237.2 906.0 235.4L906.0 235.4L906.0 213.1L904.1 213.1Q902.9 213.1 902.1 212.4Q901.3 211.7 901.3 210.4L901.3 210.4Q901.3 209.1 902.1 208.4Q902.9 207.6 904.1 207.6L904.1 207.6L906.0 207.6L906.0 204.9Q906.0 196.0 914.6 196.0L914.6 196.0Q917.4 196.0 918.8 196.8Q920.2 197.6 920.2 199.0L920.2 199.0Q920.2 200.7 918.6 201.1L918.6 201.1Q917.9 201.3 917.0 201.3L917.0 201.3Q915.0 201.4 914.1 202.3Q913.2 203.2 913.2 205.2L913.2 205.2L913.2 207.6L917.1 207.6Q918.4 207.6 919.2 208.4Q919.9 209.1 919.9 210.4L919.9 210.4Q919.9 211.7 919.2 212.4Q918.4 213.1 917.1 213.1L917.1 213.1L913.3 213.1L913.3 235.4Q913.3 237.2 912.4 238.2ZM926.3 230.9L926.3 230.9L926.3 213.1L924.3 213.1Q922.9 213.1 922.2 212.4Q921.4 211.6 921.4 210.3L921.4 210.3Q921.4 209.0 922.1 208.3Q922.9 207.5 924.3 207.5L924.3 207.5L926.3 207.5L926.3 203.4Q926.3 201.6 927.2 200.6Q928.2 199.6 929.9 199.6L929.9 199.6Q931.6 199.6 932.6 200.6Q933.6 201.6 933.6 203.4L933.6 203.4L933.6 207.5L936.9 207.5Q938.3 207.5 939.1 208.3Q939.9 209.0 939.9 210.3L939.9 210.3Q939.9 211.6 939.1 212.4Q938.3 213.1 936.9 213.1L936.9 213.1L933.6 213.1L933.6 229.3Q933.6 231.1 934.2 231.9Q934.9 232.7 936.5 232.9L936.5 232.9L937.0 232.9Q939.9 233.2 939.9 235.6L939.9 235.6Q939.9 237.2 938.6 238.1Q937.2 238.9 934.7 238.9L934.7 238.9L934.4 238.9Q926.3 238.9 926.3 230.9ZM954.2 239.2L954.2 239.2Q952.3 239.2 951.3 238.3Q950.2 237.4 949.6 235.4L949.6 235.4L942.9 212.2Q942.5 210.9 942.5 210.0L942.5 210.0Q942.5 208.7 943.5 207.8Q944.5 206.9 946.0 206.9L946.0 206.9Q948.8 206.9 949.4 210.0L949.4 210.0L954.6 231.4L954.7 231.4L960.2 210.2Q960.9 206.9 964.3 206.9L964.3 206.9Q967.7 206.9 968.4 210.2L968.4 210.2L973.9 231.4L974.0 231.4L979.2 210.0Q979.9 206.9 982.5 206.9L982.5 206.9Q984.1 206.9 985.1 207.8Q986.0 208.6 986.0 210.0L986.0 210.0Q986.0 210.9 985.6 212.2L985.6 212.2L978.9 235.4Q978.4 237.3 977.3 238.3Q976.2 239.2 974.3 239.2L974.3 239.2Q972.3 239.2 971.2 238.3Q970.1 237.4 969.6 235.4L969.6 235.4L964.3 215.9L964.1 215.9L958.8 235.4Q957.9 239.2 954.2 239.2ZM999.2 239.1L999.2 239.1Q994.7 239.1 991.8 236.5Q988.9 233.9 988.9 229.7L988.9 229.7Q988.9 225.6 991.9 223.2Q995.0 220.8 1000.7 220.4L1000.7 220.4L1008.9 219.9L1008.9 217.7Q1008.9 215.3 1007.4 213.9Q1005.8 212.6 1003.1 212.6L1003.1 212.6Q1000.9 212.6 999.4 213.4Q997.9 214.2 996.6 216.2L996.6 216.2Q995.5 217.7 993.6 217.7L993.6 217.7Q992.3 217.7 991.4 216.9Q990.6 216.1 990.6 214.8L990.6 214.8Q990.6 213.8 991.1 212.8L991.1 212.8Q992.2 210.1 995.6 208.5Q998.9 206.9 1003.4 206.9L1003.4 206.9Q1009.2 206.9 1012.6 209.7Q1016.1 212.5 1016.1 217.2L1016.1 217.2L1016.1 235.5Q1016.1 237.2 1015.1 238.2Q1014.2 239.2 1012.6 239.2L1012.6 239.2Q1011.0 239.2 1010.1 238.3Q1009.2 237.4 1009.1 235.8L1009.1 235.8L1009.1 233.6L1008.9 233.6Q1007.6 236.1 1005.0 237.6Q1002.3 239.1 999.2 239.1ZM1001.5 233.6L1001.5 233.6Q1004.6 233.6 1006.7 231.7Q1008.9 229.8 1008.9 227.1L1008.9 227.1L1008.9 224.7L1001.7 225.1Q999.1 225.3 997.6 226.4Q996.2 227.6 996.2 229.4L996.2 229.4Q996.2 231.3 997.6 232.4Q999.1 233.6 1001.5 233.6ZM1028.3 238.1Q1027.3 239.2 1025.6 239.2Q1023.9 239.2 1023.0 238.1Q1022.0 237.1 1022.0 235.3L1022.0 235.3L1022.0 210.6Q1022.0 208.9 1022.9 207.9Q1023.9 206.9 1025.5 206.9L1025.5 206.9Q1027.0 206.9 1027.9 207.9Q1028.9 208.9 1028.9 210.6L1028.9 210.6L1028.9 213.0L1029.1 213.0Q1029.7 210.3 1031.5 208.6Q1033.4 207.0 1035.7 207.0L1035.7 207.0Q1037.4 207.0 1038.3 207.8L1038.3 207.8Q1039.3 208.6 1039.3 210.4L1039.3 210.4Q1039.3 212.1 1038.2 213.0L1038.2 213.0Q1037.2 213.9 1035.0 214.0L1035.0 214.0Q1029.3 214.0 1029.3 220.4L1029.3 220.4L1029.3 235.3Q1029.3 237.1 1028.3 238.1ZM1056.4 239.2L1056.4 239.2Q1049.3 239.2 1045.3 235.0Q1041.3 230.7 1041.3 223.2L1041.3 223.2Q1041.3 215.7 1045.3 211.3Q1049.3 206.9 1056.0 206.9L1056.0 206.9Q1062.3 206.9 1066.3 210.9Q1070.3 215.0 1070.3 221.4L1070.3 221.4Q1070.3 223.0 1069.4 223.9Q1068.5 224.8 1066.9 224.8L1066.9 224.8L1048.6 224.8L1048.6 225.0Q1048.6 228.9 1050.7 231.3Q1052.8 233.6 1056.3 233.6L1056.3 233.6Q1058.8 233.6 1060.6 232.6Q1062.3 231.7 1064.1 229.4L1064.1 229.4Q1065.2 228.3 1066.6 228.3L1066.6 228.3Q1067.8 228.3 1068.7 229.0Q1069.5 229.8 1069.5 231.1L1069.5 231.1Q1069.5 231.9 1069.0 232.9L1069.0 232.9Q1067.4 235.9 1064.1 237.5Q1060.8 239.2 1056.4 239.2ZM1048.6 220.0L1048.6 220.0L1063.1 220.0Q1063.0 216.6 1061.1 214.6Q1059.1 212.5 1056.0 212.5Q1052.9 212.5 1050.9 214.6Q1048.8 216.7 1048.6 220.0Z M58.6 321.8L58.6 321.8Q52.5 321.8 48.3 319.5Q44.2 317.2 42.9 313.5L42.9 313.5Q42.5 312.4 42.5 311.3L42.5 311.3Q42.5 309.7 43.4 308.8Q44.3 307.8 45.8 307.8L45.8 307.8Q47.1 307.8 47.9 308.4Q48.8 308.9 49.4 310.2L49.4 310.2Q50.3 312.9 52.8 314.2Q55.3 315.5 58.8 315.5L58.8 315.5Q62.6 315.5 65.1 313.8Q67.5 312.1 67.5 309.5L67.5 309.5Q67.5 307.2 65.7 305.7Q64.0 304.3 59.9 303.4L59.9 303.4L55.4 302.5Q42.9 299.9 42.9 290.6L42.9 290.6Q42.9 285.0 47.3 281.6Q51.7 278.1 58.6 278.1L58.6 278.1Q64.3 278.1 68.3 280.5Q72.3 282.9 73.6 287.0L73.6 287.0Q73.9 287.7 73.9 288.8L73.9 288.8Q73.9 290.1 73.0 291.0Q72.1 291.9 70.6 291.9L70.6 291.9Q68.2 291.9 67.0 289.5L67.0 289.5Q64.9 284.4 58.6 284.4L58.6 284.4Q55.0 284.4 52.8 285.9Q50.5 287.5 50.5 290.1L50.5 290.1Q50.5 292.3 52.3 293.7Q54.0 295.2 57.9 296.0L57.9 296.0L62.5 296.9Q69.1 298.3 72.1 301.1Q75.1 303.9 75.1 308.6L75.1 308.6Q75.1 314.7 70.7 318.2Q66.2 321.8 58.6 321.8ZM82.1 313.4L82.1 313.4L82.1 295.6L80.1 295.6Q78.8 295.6 78.0 294.9Q77.2 294.1 77.2 292.8L77.2 292.8Q77.2 291.5 78.0 290.8Q78.7 290.0 80.1 290.0L80.1 290.0L82.1 290.0L82.1 285.9Q82.1 284.1 83.1 283.1Q84.0 282.1 85.7 282.1L85.7 282.1Q87.4 282.1 88.4 283.1Q89.4 284.1 89.4 285.9L89.4 285.9L89.4 290.0L92.7 290.0Q94.1 290.0 94.9 290.8Q95.7 291.5 95.7 292.8L95.7 292.8Q95.7 294.1 94.9 294.9Q94.1 295.6 92.7 295.6L92.7 295.6L89.4 295.6L89.4 311.8Q89.4 313.6 90.0 314.4Q90.7 315.2 92.3 315.4L92.3 315.4L92.8 315.4Q95.8 315.7 95.8 318.1L95.8 318.1Q95.8 319.7 94.4 320.6Q93.1 321.4 90.5 321.4L90.5 321.4L90.2 321.4Q82.1 321.4 82.1 313.4ZM109.3 321.6L109.3 321.6Q104.7 321.6 101.8 319.0Q98.9 316.4 98.9 312.2L98.9 312.2Q98.9 308.1 102.0 305.7Q105.0 303.3 110.7 302.9L110.7 302.9L119.0 302.4L119.0 300.2Q119.0 297.8 117.4 296.4Q115.9 295.1 113.2 295.1L113.2 295.1Q111.0 295.1 109.5 295.9Q108.0 296.7 106.7 298.7L106.7 298.7Q105.5 300.2 103.7 300.2L103.7 300.2Q102.3 300.2 101.5 299.4Q100.6 298.6 100.6 297.3L100.6 297.3Q100.6 296.3 101.1 295.3L101.1 295.3Q102.3 292.6 105.6 291.0Q109.0 289.4 113.4 289.4L113.4 289.4Q119.2 289.4 122.7 292.2Q126.2 295.0 126.2 299.7L126.2 299.7L126.2 318.0Q126.2 319.7 125.2 320.7Q124.2 321.7 122.6 321.7L122.6 321.7Q121.1 321.7 120.2 320.8Q119.2 319.9 119.1 318.3L119.1 318.3L119.1 316.1L119.0 316.1Q117.7 318.6 115 320.1Q112.3 321.6 109.3 321.6ZM111.5 316.1L111.5 316.1Q114.6 316.1 116.8 314.2Q119.0 312.3 119.0 309.6L119.0 309.6L119.0 307.2L111.7 307.6Q109.1 307.8 107.7 308.9Q106.2 310.1 106.2 311.9L106.2 311.9Q106.2 313.8 107.7 314.9Q109.1 316.1 111.5 316.1ZM145.7 321.7L145.7 321.7Q138.8 321.7 134.8 317.4Q130.7 313.0 130.7 305.6L130.7 305.6Q130.7 298.2 134.8 293.8Q138.8 289.4 145.6 289.4L145.6 289.4Q150.2 289.4 153.7 291.5Q157.3 293.6 158.4 296.9L158.4 296.9Q158.8 297.9 158.8 298.6L158.8 298.6Q158.8 300.0 157.9 300.8Q157.0 301.6 155.6 301.6L155.6 301.6Q154.6 301.6 153.8 301.1Q153.1 300.6 152.4 299.5L152.4 299.5Q150.2 295.3 145.8 295.3L145.8 295.3Q142.3 295.3 140.2 298.1Q138.1 300.8 138.1 305.6L138.1 305.6Q138.1 310.4 140.2 313.1Q142.3 315.8 145.8 315.8L145.8 315.8Q150.2 315.8 152.4 311.8L152.4 311.8Q153.2 310.6 153.9 310.1Q154.6 309.6 155.8 309.6L155.8 309.6Q157.1 309.6 158.0 310.4Q158.9 311.2 158.9 312.6L158.9 312.6Q158.9 313.4 158.4 314.4L158.4 314.4Q157.1 317.6 153.6 319.7Q150.0 321.7 145.7 321.7ZM170.3 320.7Q169.3 321.7 167.6 321.7Q166.0 321.7 165.0 320.7Q164.0 319.6 164.0 317.8L164.0 317.8L164.0 282.1Q164.0 280.2 165.0 279.2Q166.0 278.2 167.6 278.2Q169.3 278.2 170.3 279.2Q171.3 280.2 171.3 282.1L171.3 282.1L171.3 302.9L171.3 302.9L183.5 290.8Q184.8 289.4 186.4 289.4L186.4 289.4Q187.7 289.4 188.6 290.3Q189.6 291.2 189.6 292.5L189.6 292.5Q189.6 294.0 188.2 295.2L188.2 295.2L179.4 303.6L189.1 315.8Q190.1 317.2 190.1 318.4L190.1 318.4Q190.1 319.8 189.2 320.8Q188.2 321.7 186.7 321.7L186.7 321.7Q185.6 321.7 184.8 321.2Q184.1 320.8 183.3 319.6L183.3 319.6L174.0 307.8L171.3 310.4L171.3 317.8Q171.3 319.6 170.3 320.7Z M215.2 320.7Q214.2 321.7 212.6 321.7Q210.9 321.7 209.9 320.7Q208.9 319.7 208.9 317.9L208.9 317.9L208.9 295.6L207.0 295.6Q205.7 295.6 204.9 294.9Q204.2 294.2 204.2 292.9L204.2 292.9Q204.2 291.6 204.9 290.9Q205.7 290.1 207.0 290.1L207.0 290.1L208.9 290.1L208.9 287.4Q208.9 278.5 217.5 278.5L217.5 278.5Q220.3 278.5 221.7 279.3Q223.0 280.1 223.0 281.5L223.0 281.5Q223.0 283.2 221.4 283.6L221.4 283.6Q220.8 283.8 219.8 283.8L219.8 283.8Q217.8 283.9 217.0 284.8Q216.1 285.7 216.1 287.7L216.1 287.7L216.1 290.1L220 290.1Q221.2 290.1 222.0 290.9Q222.8 291.6 222.8 292.9L222.8 292.9Q222.8 294.2 222.0 294.9Q221.2 295.6 220 295.6L220 295.6L216.2 295.6L216.2 317.9Q216.2 319.7 215.2 320.7ZM251.8 317.4Q247.7 321.7 240.8 321.7Q233.9 321.7 229.9 317.4Q225.8 313.1 225.8 305.6L225.8 305.6Q225.8 298.1 229.9 293.7Q234.0 289.4 240.8 289.4L240.8 289.4Q247.7 289.4 251.8 293.7Q255.9 298.1 255.9 305.6L255.9 305.6Q255.9 313.1 251.8 317.4ZM235.3 313.2Q237.3 315.9 240.8 315.9Q244.3 315.9 246.4 313.2Q248.4 310.5 248.4 305.6L248.4 305.6Q248.4 300.7 246.4 297.9Q244.3 295.2 240.8 295.2L240.8 295.2Q237.3 295.2 235.3 297.9Q233.2 300.7 233.2 305.6L233.2 305.6Q233.2 310.5 235.3 313.2ZM266.8 320.6Q265.8 321.7 264.2 321.7Q262.5 321.7 261.5 320.6Q260.5 319.6 260.5 317.8L260.5 317.8L260.5 293.1Q260.5 291.4 261.5 290.4Q262.5 289.4 264.0 289.4L264.0 289.4Q265.6 289.4 266.5 290.4Q267.5 291.4 267.5 293.1L267.5 293.1L267.5 295.5L267.6 295.5Q268.3 292.8 270.1 291.1Q271.9 289.5 274.3 289.5L274.3 289.5Q276.0 289.5 276.9 290.3L276.9 290.3Q277.9 291.1 277.9 292.9L277.9 292.9Q277.9 294.6 276.8 295.5L276.8 295.5Q275.8 296.4 273.6 296.5L273.6 296.5Q267.8 296.5 267.8 302.9L267.8 302.9L267.8 317.8Q267.8 319.6 266.8 320.6Z M299.8 320.6Q298.9 321.6 297.3 321.6Q295.7 321.6 294.8 320.6Q293.9 319.7 293.9 318.0L293.9 318.0L293.9 283.1Q293.9 280.9 295.2 279.6Q296.5 278.3 298.8 278.3L298.8 278.3Q300.7 278.3 302.0 279.2Q303.2 280.1 304.0 282.2L304.0 282.2L315.6 310.7L315.9 310.7L327.5 282.2Q328.3 280.2 329.5 279.2Q330.8 278.3 332.7 278.3L332.7 278.3Q335.0 278.3 336.3 279.6Q337.5 280.9 337.5 283.1L337.5 283.1L337.5 318.0Q337.5 319.7 336.6 320.6Q335.8 321.6 334.1 321.6Q332.5 321.6 331.6 320.6Q330.7 319.7 330.7 318.0L330.7 318.0L330.7 291.1L330.5 291.1L319.3 318.3Q318.3 320.8 315.7 320.8L315.7 320.8Q313.2 320.8 312.2 318.3L312.2 318.3L300.9 291.1L300.7 291.1L300.7 318.0Q300.7 319.7 299.8 320.6ZM369.0 317.4Q364.9 321.7 358.0 321.7Q351.1 321.7 347.1 317.4Q343.0 313.1 343.0 305.6L343.0 305.6Q343.0 298.1 347.1 293.7Q351.2 289.4 358.0 289.4L358.0 289.4Q364.9 289.4 369.0 293.7Q373.0 298.1 373.0 305.6L373.0 305.6Q373.0 313.1 369.0 317.4ZM352.5 313.2Q354.5 315.9 358.0 315.9Q361.5 315.9 363.6 313.2Q365.6 310.5 365.6 305.6L365.6 305.6Q365.6 300.7 363.6 297.9Q361.5 295.2 358.0 295.2L358.0 295.2Q354.5 295.2 352.5 297.9Q350.4 300.7 350.4 305.6L350.4 305.6Q350.4 310.5 352.5 313.2ZM384.1 320.7Q383.1 321.7 381.5 321.7Q379.9 321.7 378.9 320.7Q377.9 319.8 377.9 318.0L377.9 318.0L377.9 282.1Q377.9 280.2 379.0 279.2Q380.0 278.2 381.6 278.2Q383.2 278.2 384.2 279.2Q385.2 280.2 385.2 282.1L385.2 282.1L385.2 295.4L385.4 295.4Q386.8 292.6 389.3 291.0Q391.9 289.5 395.1 289.5L395.1 289.5Q401.0 289.5 404.5 293.8Q407.9 298.1 407.9 305.6L407.9 305.6Q407.9 313.0 404.5 317.3Q401.0 321.6 395.1 321.6L395.1 321.6Q391.7 321.6 389.2 320.1Q386.6 318.5 385.2 315.8L385.2 315.8L385.1 315.8L385.1 318.0Q385.1 319.7 384.1 320.7ZM392.9 315.6L392.9 315.6Q396.4 315.6 398.4 312.9Q400.5 310.2 400.5 305.6Q400.5 300.9 398.4 298.2Q396.4 295.5 392.9 295.5L392.9 295.5Q389.5 295.5 387.3 298.3Q385.2 301.0 385.2 305.6L385.2 305.6Q385.2 310.1 387.3 312.8Q389.5 315.6 392.9 315.6ZM419.3 284.5Q418.1 285.7 416.4 285.7Q414.7 285.7 413.6 284.5Q412.4 283.3 412.4 281.7L412.4 281.7Q412.4 280.0 413.6 278.9Q414.7 277.7 416.4 277.7L416.4 277.7Q418.2 277.7 419.3 278.9Q420.5 280.0 420.5 281.7L420.5 281.7Q420.5 283.3 419.3 284.5ZM419.1 320.6Q418.1 321.7 416.4 321.7Q414.8 321.7 413.8 320.6Q412.8 319.6 412.8 317.8L412.8 317.8L412.8 293.2Q412.8 291.5 413.8 290.4Q414.8 289.4 416.4 289.4Q418.1 289.4 419.1 290.4Q420.1 291.5 420.1 293.3L420.1 293.3L420.1 317.8Q420.1 319.6 419.1 320.6ZM432.7 320.7Q431.7 321.7 430.1 321.7Q428.4 321.7 427.4 320.7Q426.4 319.6 426.4 317.8L426.4 317.8L426.4 282.1Q426.4 280.2 427.4 279.2Q428.4 278.2 430.1 278.2Q431.7 278.2 432.7 279.2Q433.7 280.2 433.7 282.1L433.7 282.1L433.7 317.8Q433.7 319.6 432.7 320.7ZM453.7 321.7L453.7 321.7Q446.6 321.7 442.6 317.5Q438.6 313.2 438.6 305.7L438.6 305.7Q438.6 298.2 442.6 293.8Q446.6 289.4 453.3 289.4L453.3 289.4Q459.7 289.4 463.6 293.4Q467.6 297.5 467.6 303.9L467.6 303.9Q467.6 305.5 466.7 306.4Q465.8 307.3 464.2 307.3L464.2 307.3L445.9 307.3L445.9 307.5Q445.9 311.4 448.0 313.8Q450.1 316.1 453.7 316.1L453.7 316.1Q456.1 316.1 457.9 315.1Q459.7 314.2 461.4 311.9L461.4 311.9Q462.5 310.8 463.9 310.8L463.9 310.8Q465.2 310.8 466.0 311.5Q466.8 312.3 466.8 313.6L466.8 313.6Q466.8 314.4 466.3 315.4L466.3 315.4Q464.8 318.4 461.5 320.0Q458.2 321.7 453.7 321.7ZM446.0 302.5L446.0 302.5L460.5 302.5Q460.4 299.1 458.4 297.1Q456.4 295.0 453.3 295.0Q450.3 295.0 448.2 297.1Q446.2 299.2 446.0 302.5Z M491.0 320.6Q490.1 321.6 488.4 321.6Q486.8 321.6 485.9 320.6Q485.0 319.7 485.0 318.0L485.0 318.0L485.0 283.1Q485.0 280.9 486.4 279.6Q487.7 278.3 489.9 278.3L489.9 278.3Q491.9 278.3 493.1 279.2Q494.3 280.1 495.1 282.2L495.1 282.2L506.8 310.7L507.0 310.7L518.6 282.2Q519.4 280.2 520.7 279.2Q521.9 278.3 523.9 278.3L523.9 278.3Q526.1 278.3 527.4 279.6Q528.7 280.9 528.7 283.1L528.7 283.1L528.7 318.0Q528.7 319.7 527.8 320.6Q526.9 321.6 525.3 321.6Q523.7 321.6 522.8 320.6Q521.9 319.7 521.9 318.0L521.9 318.0L521.9 291.1L521.7 291.1L510.4 318.3Q509.4 320.8 506.9 320.8L506.9 320.8Q504.3 320.8 503.3 318.3L503.3 318.3L492.1 291.1L491.9 291.1L491.9 318.0Q491.9 319.7 491.0 320.6ZM544.5 321.6L544.5 321.6Q540.0 321.6 537.1 319.0Q534.2 316.4 534.2 312.2L534.2 312.2Q534.2 308.1 537.2 305.7Q540.3 303.3 546.0 302.9L546.0 302.9L554.2 302.4L554.2 300.2Q554.2 297.8 552.7 296.4Q551.1 295.1 548.4 295.1L548.4 295.1Q546.2 295.1 544.7 295.9Q543.2 296.7 541.9 298.7L541.9 298.7Q540.8 300.2 538.9 300.2L538.9 300.2Q537.6 300.2 536.7 299.4Q535.8 298.6 535.8 297.3L535.8 297.3Q535.8 296.3 536.3 295.3L536.3 295.3Q537.5 292.6 540.9 291.0Q544.2 289.4 548.7 289.4L548.7 289.4Q554.5 289.4 557.9 292.2Q561.4 295.0 561.4 299.7L561.4 299.7L561.4 318.0Q561.4 319.7 560.4 320.7Q559.4 321.7 557.9 321.7L557.9 321.7Q556.3 321.7 555.4 320.8Q554.5 319.9 554.4 318.3L554.4 318.3L554.4 316.1L554.2 316.1Q552.9 318.6 550.2 320.1Q547.6 321.6 544.5 321.6ZM546.7 316.1L546.7 316.1Q549.9 316.1 552.0 314.2Q554.2 312.3 554.2 309.6L554.2 309.6L554.2 307.2L547.0 307.6Q544.3 307.8 542.9 308.9Q541.4 310.1 541.4 311.9L541.4 311.9Q541.4 313.8 542.9 314.9Q544.3 316.1 546.7 316.1ZM573.5 320.7Q572.5 321.7 570.9 321.7Q569.2 321.7 568.3 320.7Q567.3 319.6 567.3 317.8L567.3 317.8L567.3 293.1Q567.3 291.4 568.2 290.4Q569.1 289.4 570.7 289.4Q572.4 289.4 573.3 290.4Q574.3 291.4 574.3 293.1L574.3 293.1L574.3 295.3L574.5 295.3Q577.1 289.4 584.2 289.4L584.2 289.4Q589.3 289.4 592.1 292.5Q594.9 295.6 594.9 301.0L594.9 301.0L594.9 317.8Q594.9 319.6 593.9 320.7Q592.9 321.7 591.3 321.7Q589.6 321.7 588.6 320.7Q587.6 319.6 587.6 317.8L587.6 317.8L587.6 302.5Q587.6 299.1 586.0 297.4Q584.5 295.6 581.4 295.6L581.4 295.6Q578.3 295.6 576.4 297.7Q574.6 299.7 574.6 303.1L574.6 303.1L574.6 317.8Q574.6 319.6 573.5 320.7ZM607.4 284.5Q606.3 285.7 604.6 285.7Q602.9 285.7 601.7 284.5Q600.5 283.3 600.5 281.7L600.5 281.7Q600.5 280.0 601.7 278.9Q602.9 277.7 604.6 277.7L604.6 277.7Q606.3 277.7 607.5 278.9Q608.6 280.0 608.6 281.7L608.6 281.7Q608.6 283.3 607.4 284.5ZM607.2 320.6Q606.2 321.7 604.6 321.7Q602.9 321.7 601.9 320.6Q600.9 319.6 600.9 317.8L600.9 317.8L600.9 293.2Q600.9 291.5 601.9 290.4Q602.9 289.4 604.6 289.4Q606.2 289.4 607.2 290.4Q608.2 291.5 608.2 293.3L608.2 293.3L608.2 317.8Q608.2 319.6 607.2 320.6ZM620.6 331.1Q619.6 332.1 618.0 332.1Q616.3 332.1 615.3 331.1Q614.3 330.1 614.3 328.3L614.3 328.3L614.3 293.2Q614.3 291.4 615.3 290.4Q616.3 289.4 617.9 289.4L617.9 289.4Q619.5 289.4 620.5 290.4Q621.5 291.4 621.5 293.2L621.5 293.2L621.5 295.4L621.6 295.4Q622.9 292.6 625.5 291.1Q628.0 289.5 631.4 289.5L631.4 289.5Q637.3 289.5 640.8 293.8Q644.3 298.1 644.3 305.6L644.3 305.6Q644.3 313.0 640.8 317.3Q637.4 321.6 631.5 321.6L631.5 321.6Q628.2 321.6 625.6 320.1Q623.1 318.6 621.8 315.9L621.8 315.9L621.6 315.9L621.6 328.3Q621.6 330.1 620.6 331.1ZM629.2 315.6L629.2 315.6Q632.7 315.6 634.8 312.9Q636.8 310.2 636.8 305.6L636.8 305.6Q636.8 301.0 634.7 298.2Q632.7 295.5 629.2 295.5L629.2 295.5Q625.8 295.5 623.7 298.3Q621.6 301.0 621.6 305.6L621.6 305.6Q621.6 310.1 623.7 312.9Q625.8 315.6 629.2 315.6ZM659.8 321.6L659.8 321.6Q654.8 321.6 651.8 318.5Q648.8 315.5 648.8 310.1L648.8 310.1L648.8 293.2Q648.8 291.5 649.8 290.4Q650.8 289.4 652.5 289.4Q654.1 289.4 655.1 290.4Q656.1 291.5 656.1 293.3L656.1 293.3L656.1 308.6Q656.1 312.0 657.7 313.7Q659.3 315.5 662.4 315.5L662.4 315.5Q665.5 315.5 667.4 313.4Q669.2 311.4 669.2 308.0L669.2 308.0L669.2 293.2Q669.2 291.5 670.2 290.4Q671.2 289.4 672.9 289.4L672.9 289.4Q674.5 289.4 675.5 290.4Q676.5 291.5 676.5 293.3L676.5 293.3L676.5 318.0Q676.5 319.7 675.6 320.7Q674.6 321.7 673.0 321.7L673.0 321.7Q671.4 321.7 670.4 320.7Q669.5 319.7 669.5 318.0L669.5 318.0L669.5 315.7L669.3 315.7Q666.7 321.6 659.8 321.6ZM689.0 320.7Q688.0 321.7 686.3 321.7Q684.7 321.7 683.7 320.7Q682.7 319.6 682.7 317.8L682.7 317.8L682.7 282.1Q682.7 280.2 683.7 279.2Q684.7 278.2 686.3 278.2Q688.0 278.2 689.0 279.2Q690.0 280.2 690.0 282.1L690.0 282.1L690.0 317.8Q690.0 319.6 689.0 320.7ZM705.3 321.6L705.3 321.6Q700.7 321.6 697.8 319.0Q694.9 316.4 694.9 312.2L694.9 312.2Q694.9 308.1 698.0 305.7Q701.0 303.3 706.7 302.9L706.7 302.9L714.9 302.4L714.9 300.2Q714.9 297.8 713.4 296.4Q711.9 295.1 709.1 295.1L709.1 295.1Q707.0 295.1 705.5 295.9Q704.0 296.7 702.6 298.7L702.6 298.7Q701.5 300.2 699.7 300.2L699.7 300.2Q698.3 300.2 697.5 299.4Q696.6 298.6 696.6 297.3L696.6 297.3Q696.6 296.3 697.1 295.3L697.1 295.3Q698.3 292.6 701.6 291.0Q705.0 289.4 709.4 289.4L709.4 289.4Q715.2 289.4 718.7 292.2Q722.1 295.0 722.1 299.7L722.1 299.7L722.1 318.0Q722.1 319.7 721.2 320.7Q720.2 321.7 718.6 321.7L718.6 321.7Q717.1 321.7 716.1 320.8Q715.2 319.9 715.1 318.3L715.1 318.3L715.1 316.1L715.0 316.1Q713.7 318.6 711.0 320.1Q708.3 321.6 705.3 321.6ZM707.5 316.1L707.5 316.1Q710.6 316.1 712.8 314.2Q714.9 312.3 714.9 309.6L714.9 309.6L714.9 307.2L707.7 307.6Q705.1 307.8 703.6 308.9Q702.2 310.1 702.2 311.9L702.2 311.9Q702.2 313.8 703.6 314.9Q705.1 316.1 707.5 316.1ZM730.0 313.4L730.0 313.4L730.0 295.6L728.1 295.6Q726.7 295.6 725.9 294.9Q725.1 294.1 725.1 292.8L725.1 292.8Q725.1 291.5 725.9 290.8Q726.7 290.0 728.1 290.0L728.1 290.0L730.0 290.0L730.0 285.9Q730.0 284.1 731.0 283.1Q732.0 282.1 733.7 282.1L733.7 282.1Q735.4 282.1 736.3 283.1Q737.3 284.1 737.3 285.9L737.3 285.9L737.3 290.0L740.7 290.0Q742.1 290.0 742.8 290.8Q743.6 291.5 743.6 292.8L743.6 292.8Q743.6 294.1 742.8 294.9Q742.0 295.6 740.7 295.6L740.7 295.6L737.3 295.6L737.3 311.8Q737.3 313.6 738.0 314.4Q738.7 315.2 740.3 315.4L740.3 315.4L740.8 315.4Q743.7 315.7 743.7 318.1L743.7 318.1Q743.7 319.7 742.4 320.6Q741.0 321.4 738.5 321.4L738.5 321.4L738.2 321.4Q730.0 321.4 730.0 313.4ZM754.8 284.5Q753.6 285.7 751.9 285.7Q750.2 285.7 749.1 284.5Q747.9 283.3 747.9 281.7L747.9 281.7Q747.9 280.0 749.1 278.9Q750.2 277.7 751.9 277.7L751.9 277.7Q753.7 277.7 754.8 278.9Q756.0 280.0 756.0 281.7L756.0 281.7Q756.0 283.3 754.8 284.5ZM754.6 320.6Q753.6 321.7 751.9 321.7Q750.3 321.7 749.3 320.6Q748.3 319.6 748.3 317.8L748.3 317.8L748.3 293.2Q748.3 291.5 749.3 290.4Q750.3 289.4 751.9 289.4Q753.6 289.4 754.6 290.4Q755.6 291.5 755.6 293.3L755.6 293.3L755.6 317.8Q755.6 319.6 754.6 320.6ZM786.4 317.4Q782.4 321.7 775.5 321.7Q768.6 321.7 764.5 317.4Q760.4 313.1 760.4 305.6L760.4 305.6Q760.4 298.1 764.5 293.7Q768.6 289.4 775.5 289.4L775.5 289.4Q782.3 289.4 786.4 293.7Q790.5 298.1 790.5 305.6L790.5 305.6Q790.5 313.1 786.4 317.4ZM769.9 313.2Q772.0 315.9 775.5 315.9Q779.0 315.9 781.0 313.2Q783.1 310.5 783.1 305.6L783.1 305.6Q783.1 300.7 781.0 297.9Q779.0 295.2 775.5 295.2L775.5 295.2Q772.0 295.2 769.9 297.9Q767.9 300.7 767.9 305.6L767.9 305.6Q767.9 310.5 769.9 313.2ZM801.5 320.7Q800.5 321.7 798.8 321.7Q797.2 321.7 796.2 320.7Q795.2 319.6 795.2 317.8L795.2 317.8L795.2 293.1Q795.2 291.4 796.1 290.4Q797.1 289.4 798.7 289.4Q800.3 289.4 801.3 290.4Q802.3 291.4 802.3 293.1L802.3 293.1L802.3 295.3L802.4 295.3Q805.1 289.4 812.1 289.4L812.1 289.4Q817.2 289.4 820.0 292.5Q822.8 295.6 822.8 301.0L822.8 301.0L822.8 317.8Q822.8 319.6 821.8 320.7Q820.8 321.7 819.2 321.7Q817.6 321.7 816.6 320.7Q815.5 319.6 815.5 317.8L815.5 317.8L815.5 302.5Q815.5 299.1 814.0 297.4Q812.4 295.6 809.3 295.6L809.3 295.6Q806.2 295.6 804.3 297.7Q802.5 299.7 802.5 303.1L802.5 303.1L802.5 317.8Q802.5 319.6 801.5 320.7Z M848.0 320.6Q847.0 321.7 845.2 321.7Q843.4 321.7 842.4 320.6Q841.4 319.6 841.4 317.7L841.4 317.7L841.4 282.7Q841.4 280.9 842.4 279.8Q843.4 278.8 845.2 278.8L845.2 278.8L858.2 278.8Q865.0 278.8 868.9 282.3Q872.8 285.9 872.8 292.0L872.8 292.0Q872.8 296.1 870.8 299.3Q868.8 302.5 865.1 303.9L865.1 303.9L871.8 315.6Q872.6 317.0 872.6 318.2L872.6 318.2Q872.6 319.7 871.5 320.7Q870.4 321.7 868.8 321.7L868.8 321.7Q867.5 321.7 866.7 321.1Q865.8 320.5 865.0 318.9L865.0 318.9L857.4 305.2L849.0 305.2L849.0 317.7Q849.0 319.6 848.0 320.6ZM849.0 284.9L849.0 299.4L857.5 299.4Q861.1 299.4 863.1 297.5Q865.1 295.6 865.1 292.1L865.1 292.1Q865.1 288.8 863.0 286.9Q860.9 284.9 857.4 284.9L857.4 284.9L849.0 284.9ZM892.0 321.7L892.0 321.7Q884.9 321.7 880.9 317.5Q876.9 313.2 876.9 305.7L876.9 305.7Q876.9 298.2 880.9 293.8Q884.9 289.4 891.6 289.4L891.6 289.4Q897.9 289.4 901.9 293.4Q905.9 297.5 905.9 303.9L905.9 303.9Q905.9 305.5 905.0 306.4Q904.1 307.3 902.5 307.3L902.5 307.3L884.2 307.3L884.2 307.5Q884.2 311.4 886.3 313.8Q888.4 316.1 891.9 316.1L891.9 316.1Q894.4 316.1 896.2 315.1Q897.9 314.2 899.7 311.9L899.7 311.9Q900.7 310.8 902.1 310.8L902.1 310.8Q903.4 310.8 904.2 311.5Q905.1 312.3 905.1 313.6L905.1 313.6Q905.1 314.4 904.6 315.4L904.6 315.4Q903.0 318.4 899.7 320.0Q896.4 321.7 892.0 321.7ZM884.2 302.5L884.2 302.5L898.7 302.5Q898.6 299.1 896.6 297.1Q894.7 295.0 891.6 295.0Q888.5 295.0 886.5 297.1Q884.4 299.2 884.2 302.5ZM922.5 321.7L922.5 321.7Q917.7 321.7 914.4 320.0Q911.0 318.3 909.9 315.5L909.9 315.5Q909.6 314.7 909.6 314.0L909.6 314.0Q909.6 312.7 910.4 311.9Q911.3 311.1 912.6 311.1L912.6 311.1Q914.5 311.1 915.8 312.9L915.8 312.9Q917.1 314.8 918.7 315.6Q920.3 316.4 922.8 316.4L922.8 316.4Q925.4 316.4 926.9 315.4Q928.5 314.3 928.5 312.6L928.5 312.6Q928.5 311.2 927.5 310.3Q926.5 309.5 924.1 308.9L924.1 308.9L919.1 307.8Q910 305.8 910 298.9L910 298.9Q910 294.6 913.5 292.0Q916.9 289.4 922.7 289.4L922.7 289.4Q927.1 289.4 930.3 291.3Q933.5 293.1 934.2 295.9L934.2 295.9Q934.4 296.5 934.4 297.0L934.4 297.0Q934.4 298.1 933.6 298.9Q932.9 299.6 931.6 299.6L931.6 299.6Q929.7 299.6 928.8 298.2L928.8 298.2Q927.6 296.5 926.2 295.6Q924.7 294.7 922.5 294.7L922.5 294.7Q920.1 294.7 918.6 295.8Q917.1 296.8 917.1 298.5L917.1 298.5Q917.1 301.3 921.7 302.3L921.7 302.3L926.6 303.4Q931.5 304.5 933.7 306.4Q935.8 308.4 935.8 311.8L935.8 311.8Q935.8 316.3 932.1 319.0Q928.5 321.7 922.5 321.7ZM954.2 321.7L954.2 321.7Q947.1 321.7 943.1 317.5Q939.1 313.2 939.1 305.7L939.1 305.7Q939.1 298.2 943.1 293.8Q947.1 289.4 953.8 289.4L953.8 289.4Q960.1 289.4 964.1 293.4Q968.1 297.5 968.1 303.9L968.1 303.9Q968.1 305.5 967.2 306.4Q966.3 307.3 964.7 307.3L964.7 307.3L946.4 307.3L946.4 307.5Q946.4 311.4 948.5 313.8Q950.6 316.1 954.1 316.1L954.1 316.1Q956.6 316.1 958.4 315.1Q960.1 314.2 961.9 311.9L961.9 311.9Q962.9 310.8 964.3 310.8L964.3 310.8Q965.6 310.8 966.4 311.5Q967.3 312.3 967.3 313.6L967.3 313.6Q967.3 314.4 966.8 315.4L966.8 315.4Q965.2 318.4 961.9 320.0Q958.6 321.7 954.2 321.7ZM946.4 302.5L946.4 302.5L960.9 302.5Q960.8 299.1 958.8 297.1Q956.9 295.0 953.8 295.0Q950.7 295.0 948.7 297.1Q946.6 299.2 946.4 302.5ZM981.9 321.6L981.9 321.6Q977.3 321.6 974.4 319.0Q971.5 316.4 971.5 312.2L971.5 312.2Q971.5 308.1 974.6 305.7Q977.6 303.3 983.3 302.9L983.3 302.9L991.5 302.4L991.5 300.2Q991.5 297.8 990.0 296.4Q988.5 295.1 985.7 295.1L985.7 295.1Q983.6 295.1 982.1 295.9Q980.6 296.7 979.2 298.7L979.2 298.7Q978.1 300.2 976.3 300.2L976.3 300.2Q974.9 300.2 974.1 299.4Q973.2 298.6 973.2 297.3L973.2 297.3Q973.2 296.3 973.7 295.3L973.7 295.3Q974.9 292.6 978.2 291.0Q981.6 289.4 986.0 289.4L986.0 289.4Q991.8 289.4 995.3 292.2Q998.7 295.0 998.7 299.7L998.7 299.7L998.7 318.0Q998.7 319.7 997.8 320.7Q996.8 321.7 995.2 321.7L995.2 321.7Q993.7 321.7 992.7 320.8Q991.8 319.9 991.7 318.3L991.7 318.3L991.7 316.1L991.6 316.1Q990.2 318.6 987.6 320.1Q984.9 321.6 981.9 321.6ZM984.1 316.1L984.1 316.1Q987.2 316.1 989.4 314.2Q991.5 312.3 991.5 309.6L991.5 309.6L991.5 307.2L984.3 307.6Q981.7 307.8 980.2 308.9Q978.8 310.1 978.8 311.9L978.8 311.9Q978.8 313.8 980.2 314.9Q981.7 316.1 984.1 316.1ZM1010.9 320.6Q1009.9 321.7 1008.2 321.7Q1006.6 321.7 1005.6 320.6Q1004.6 319.6 1004.6 317.8L1004.6 317.8L1004.6 293.1Q1004.6 291.4 1005.6 290.4Q1006.5 289.4 1008.1 289.4L1008.1 289.4Q1009.6 289.4 1010.6 290.4Q1011.5 291.4 1011.5 293.1L1011.5 293.1L1011.5 295.5L1011.7 295.5Q1012.3 292.8 1014.2 291.1Q1016.0 289.5 1018.3 289.5L1018.3 289.5Q1020.0 289.5 1020.9 290.3L1020.9 290.3Q1021.9 291.1 1021.9 292.9L1021.9 292.9Q1021.9 294.6 1020.9 295.5L1020.9 295.5Q1019.8 296.4 1017.6 296.5L1017.6 296.5Q1011.9 296.5 1011.9 302.9L1011.9 302.9L1011.9 317.8Q1011.9 319.6 1010.9 320.6ZM1038.9 321.7L1038.9 321.7Q1032.1 321.7 1028.0 317.4Q1023.9 313.0 1023.9 305.6L1023.9 305.6Q1023.9 298.2 1028.0 293.8Q1032.0 289.4 1038.8 289.4L1038.8 289.4Q1043.4 289.4 1046.9 291.5Q1050.5 293.6 1051.6 296.9L1051.6 296.9Q1052.0 297.9 1052.0 298.6L1052.0 298.6Q1052.0 300.0 1051.1 300.8Q1050.2 301.6 1048.8 301.6L1048.8 301.6Q1047.8 301.6 1047.0 301.1Q1046.3 300.6 1045.6 299.5L1045.6 299.5Q1043.4 295.3 1039.0 295.3L1039.0 295.3Q1035.5 295.3 1033.4 298.1Q1031.3 300.8 1031.3 305.6L1031.3 305.6Q1031.3 310.4 1033.4 313.1Q1035.5 315.8 1039.0 315.8L1039.0 315.8Q1043.4 315.8 1045.6 311.8L1045.6 311.8Q1046.4 310.6 1047.1 310.1Q1047.8 309.6 1049.0 309.6L1049.0 309.6Q1050.3 309.6 1051.2 310.4Q1052.1 311.2 1052.1 312.6L1052.1 312.6Q1052.1 313.4 1051.6 314.4L1051.6 314.4Q1050.3 317.6 1046.8 319.7Q1043.2 321.7 1038.9 321.7ZM1063.5 320.7Q1062.5 321.7 1060.8 321.7Q1059.2 321.7 1058.2 320.7Q1057.2 319.6 1057.2 317.8L1057.2 317.8L1057.2 282.0Q1057.2 280.2 1058.1 279.2Q1059.1 278.2 1060.8 278.2L1060.8 278.2Q1062.5 278.2 1063.4 279.2Q1064.4 280.2 1064.4 282.0L1064.4 282.0L1064.4 295.4L1064.5 295.4Q1065.8 292.5 1068.3 291.0Q1070.8 289.4 1074.3 289.4L1074.3 289.4Q1079.4 289.4 1082.3 292.6Q1085.2 295.7 1085.2 301.1L1085.2 301.1L1085.2 317.8Q1085.2 319.6 1084.2 320.7Q1083.2 321.7 1081.5 321.7Q1079.9 321.7 1078.9 320.7Q1077.9 319.6 1077.9 317.8L1077.9 317.8L1077.9 302.6Q1077.9 299.3 1076.3 297.4Q1074.6 295.6 1071.5 295.6L1071.5 295.6Q1068.2 295.6 1066.3 297.7Q1064.5 299.8 1064.5 303.2L1064.5 303.2L1064.5 317.8Q1064.5 319.6 1063.5 320.7Z "/><defs><clipPath id="satori_bc-id-0-1"><rect x="0" y="441" width="1200" height="189"/></clipPath></defs><mask id="satori_om-id-0-1"><rect x="0" y="442" width="1200" height="188" fill="#fff"/><path width="1200" height="189" fill="none" stroke="#000" stroke-width="2" d="M0,441 A0,0 0 0 1 0,441 h1200 A0,0 0 0 1 1200,441"/></mask><path width="1200" height="189" clip-path="url(#satori_bc-id-0-1)" fill="none" stroke="#dbdbdb" stroke-width="2" d="M0,441 A0,0 0 0 1 0,441 h1200 A0,0 0 0 1 1200,441"/><mask id="satori_om-id-0-1-0"><rect x="40" y="482" width="389" height="108" fill="#fff"/></mask><clipPath id="satori_cp-id-0-1-0-0"><rect x="40" y="504" width="64" height="64"/></clipPath><mask id="satori_om-id-0-1-0-0"><rect x="40" y="504" width="64" height="64" fill="#fff"/></mask><image x="40" y="504" width="64" height="64" href="data:image/svg+xml;utf8,%3Csvg  xmlns=%22http://www.w3.org/2000/svg%22 width=%2264%22 height=%2264%22 viewBox=%220 0 128 128%22%3E%3Cpath fill=%22%23224d67%22 d=%22M22.5 14.8c2.9 1.3 99 44 99 44c2.7 1.2 2.9 3.1 2 12.4c-1 10.5-1.9 37.8-40.2 42.9c-24.6 3.2-55.9-4.3-70.9-27.2C-6 58.8 11 23.4 14.8 17.7c2.4-3.5 4.8-4.2 7.7-2.9%22%3E%3C/path%3E%3Cpath fill=%22%23f0f4c3%22 d=%22M121.5 58.8c-.3-.2-92-40.8-98.9-43.9C9.6 31.5-3.8 76 27.9 96.2c33.6 21.5 78.7-10.2 93.6-37.4%22%3E%3C/path%3E%3Cpath fill=%22%23f0f4c3%22 d=%22M117.7 57c-.3-.2-86.7-38.4-93.2-41.3c-12.2 15.5-23.9 59.1 5.7 78c31.4 20.2 73.6-11.2 87.5-36.7%22%3E%3C/path%3E%3Cpath fill=%22%23cb2a42%22 d=%22M56.2 37.6L19.5 48.2c-2.5.8-4.4 2.8-5 5.3c-1.9 8.5.8 23.3 8.9 29.8c3.5 2.7 8.6 1.8 10.8-2.1L58.5 41c1.3-1.7.5-4.2-2.3-3.4m14.3 2.9s14.6 30.1 16 33s6.3 4.7 9.9 2.8c10.7-5.6 15.5-12.4 19.2-20.2c-8.9-3.9-42.4-18.8-42.4-18.8c-2.4-1.1-4 .6-2.7 3.2m-8.6 1.9C60.3 45.1 39.5 81 37.6 84.1c-1.9 3.2-.7 7.5 2.7 9.2c12.3 6.5 30.9.4 39.6-7c2.2-1.9 4.5-5.1 3.2-8.2S68.9 44.6 67.8 42.3c-1.2-2.7-4.1-2.8-5.9.1%22%3E%3C/path%3E%3Cpath fill=%22%23f0f4c3%22 d=%22M52.2 42.2c-1.4.4-10.1 3-11.1 3.4c-1.4.5-2.2 1.7-1.9 2.5c.3.9 1.7 1.1 3.1.6c.8-.3 7.1-3.9 9.5-5.2c-3.1 2.4-10.2 9.4-11.1 10.3c-1.4 1.5-1.7 3.4-.8 4.3c1 .9 2.9.5 4.3-1c1.2-1.3 8.5-12.8 9.1-13.9s.4-1.4-1.1-1m10.1 16.4c0-2.2 1.4-10.3 1.8-12.3c.4-1.6 1.5-1.8 1.8.5s1.7 9.7 1.7 11.8s-1.2 3.3-2.7 3.3c-1.4 0-2.6-1.1-2.6-3.3M79.9 49c-1.2-1.8-3.3-4.9-4.1-6.1c-.7-1.2.1-2.1 1.8-.9s4 2.9 5.4 4c1.6 1.3 1.9 3 .8 4s-2.7.8-3.9-1%22%3E%3C/path%3E%3Cellipse cx=%2287.3%22 cy=%22103.12%22 fill=%22%23cb2a42%22 rx=%223.4%22 ry=%222.3%22 transform=%22rotate(-27.098 87.298 103.126)%22%3E%3C/ellipse%3E%3Cellipse cx=%2298.89%22 cy=%22103.82%22 fill=%22%23cb2a42%22 rx=%223.4%22 ry=%222.3%22 transform=%22rotate(-30.642 98.887 103.818)%22%3E%3C/ellipse%3E%3Cellipse cx=%22102.02%22 cy=%2293.8%22 fill=%22%23cb2a42%22 rx=%223.4%22 ry=%222.3%22 transform=%22rotate(-37.16 102.017 93.797)%22%3E%3C/ellipse%3E%3Cpath fill=%22%23cb2a42%22 d=%22M57.6 30.3c-8.3-3.7-24.4-10.7-29.6-13c-3.6 2.2-9.7 11.4-11.2 21.2c-.6 3.6 1.7 5.9 5.3 4.9c0 0 33.7-9.3 35.3-9.7c1.6-.5 2-2.6.2-3.4%22%3E%3C/path%3E%3C/svg%3E" preserveAspectRatio="none" clip-path="url(#satori_cp-id-0-1-0-0)" mask="url(#satori_om-id-0-1-0-0)"/><mask id="satori_om-id-0-1-0-0-0"><rect x="40" y="504" width="0" height="64" fill="#fff"/></mask><mask id="satori_om-id-0-1-0-0-1"><rect x="40" y="504" width="0" height="64" fill="#fff"/></mask><mask id="satori_om-id-0-1-0-0-2"><rect x="40" y="504" width="0" height="64" fill="#fff"/></mask><mask id="satori_om-id-0-1-0-0-3"><rect x="40" y="504" width="0" height="64" fill="#fff"/></mask><mask id="satori_om-id-0-1-0-0-4"><rect x="40" y="504" width="0" height="64" fill="#fff"/></mask><mask id="satori_om-id-0-1-0-0-5"><rect x="40" y="504" width="0" height="64" fill="#fff"/></mask><mask id="satori_om-id-0-1-0-0-6"><rect x="40" y="504" width="0" height="64" fill="#fff"/></mask><mask id="satori_om-id-0-1-0-0-7"><rect x="40" y="504" width="0" height="64" fill="#fff"/></mask><mask id="satori_om-id-0-1-0-0-8"><rect x="40" y="504" width="0" height="64" fill="#fff"/></mask><mask id="satori_om-id-0-1-0-1"><rect x="116" y="512" width="313" height="48" fill="#fff"/></mask><path fill="#545454" d="M133.0 553.6L133.0 553.6Q126.5 553.6 122.7 550.2Q118.8 546.7 118.8 541.1L118.8 541.1L118.8 522.5Q118.8 520.7 119.8 519.7Q120.7 518.8 122.4 518.8Q124.0 518.8 125.0 519.7Q125.9 520.7 125.9 522.5L125.9 522.5L125.9 540.4Q125.9 543.7 127.8 545.6Q129.6 547.6 133.0 547.6L133.0 547.6Q136.3 547.6 138.2 545.6Q140.1 543.7 140.1 540.4L140.1 540.4L140.1 522.5Q140.1 520.7 141.0 519.7Q141.9 518.8 143.6 518.8Q145.3 518.8 146.2 519.7Q147.1 520.7 147.1 522.5L147.1 522.5L147.1 541.1Q147.1 546.7 143.3 550.2Q139.4 553.6 133.0 553.6ZM158.9 552.6Q158.0 553.6 156.3 553.6Q154.6 553.6 153.7 552.6Q152.8 551.6 152.8 549.9L152.8 549.9L152.8 522.9Q152.8 521.2 153.7 520.2Q154.6 519.2 156.3 519.2L156.3 519.2L166.6 519.2Q172.4 519.2 175.6 522.1Q178.9 525.0 178.9 530.0L178.9 530.0Q178.9 533.2 177.3 535.8Q175.8 538.3 173.0 539.4L173.0 539.4L177.9 547.9Q178.7 549.2 178.7 550.3L178.7 550.3Q178.7 551.7 177.7 552.6Q176.7 553.6 175.1 553.6L175.1 553.6Q173.8 553.6 173.1 553.0Q172.4 552.5 171.5 550.9L171.5 550.9L165.9 540.7L159.9 540.7L159.9 549.9Q159.9 551.6 158.9 552.6ZM159.9 524.8L159.9 535.6L165.9 535.6Q168.6 535.6 170.1 534.1Q171.6 532.7 171.6 530.2L171.6 530.2Q171.6 527.7 170.0 526.2Q168.5 524.8 165.9 524.8L165.9 524.8L159.9 524.8ZM196.2 542.3L186.4 542.3Q185.0 542.3 184.1 541.5Q183.2 540.7 183.2 539.3Q183.2 537.9 184.1 537.1Q185.0 536.3 186.4 536.3L186.4 536.3L196.2 536.3Q197.6 536.3 198.5 537.1Q199.4 537.9 199.4 539.3Q199.4 540.7 198.5 541.5Q197.6 542.3 196.2 542.3L196.2 542.3ZM210.9 552.6Q209.9 553.6 208.3 553.6Q206.6 553.6 205.6 552.6Q204.7 551.6 204.7 549.9L204.7 549.9L204.7 522.9Q204.7 521.2 205.6 520.2Q206.6 519.2 208.3 519.2L208.3 519.2L218.6 519.2Q224.4 519.2 227.6 522.1Q230.8 525.0 230.8 530.0L230.8 530.0Q230.8 533.2 229.3 535.8Q227.8 538.3 225.0 539.4L225.0 539.4L229.9 547.9Q230.6 549.2 230.6 550.3L230.6 550.3Q230.6 551.7 229.6 552.6Q228.6 553.6 227.0 553.6L227.0 553.6Q225.8 553.6 225.0 553.0Q224.3 552.5 223.4 550.9L223.4 550.9L217.8 540.7L211.8 540.7L211.8 549.9Q211.8 551.6 210.9 552.6ZM211.8 524.8L211.8 535.6L217.9 535.6Q220.6 535.6 222.0 534.1Q223.5 532.7 223.5 530.2L223.5 530.2Q223.5 527.7 222.0 526.2Q220.4 524.8 217.8 524.8L217.8 524.8L211.8 524.8ZM237.7 553.5L237.7 553.5Q236.0 553.5 235.1 552.6Q234.1 551.7 234.1 550.2L234.1 550.2Q234.1 549.3 234.6 547.9L234.6 547.9L243.8 522.8Q244.6 520.7 245.8 519.7Q247.1 518.8 249.1 518.8L249.1 518.8Q251.2 518.8 252.5 519.7Q253.8 520.7 254.5 522.8L254.5 522.8L263.8 547.9Q264.3 549.2 264.3 550.2L264.3 550.2Q264.3 551.6 263.3 552.6Q262.3 553.5 260.7 553.5L260.7 553.5Q259.2 553.5 258.4 552.8Q257.5 552.1 257.0 550.4L257.0 550.4L255.3 545.0L243.1 545.0L241.3 550.3Q240.8 552.0 239.9 552.8Q239.1 553.5 237.7 553.5ZM249.0 525.7L244.6 539.6L253.6 539.6L249.1 525.7L249.0 525.7ZM281.5 553.1L272.1 553.1Q270.4 553.1 269.5 552.1Q268.6 551.1 268.6 549.4L268.6 549.4L268.6 522.9Q268.6 521.2 269.5 520.2Q270.4 519.2 272.1 519.2L272.1 519.2L281.5 519.2Q289.1 519.2 293.4 523.6Q297.6 528.0 297.6 536.0L297.6 536.0Q297.6 544.1 293.3 548.6Q289.1 553.1 281.5 553.1L281.5 553.1ZM275.6 525.1L275.6 547.2L280.6 547.2Q285.4 547.2 287.9 544.4Q290.4 541.5 290.4 536.0L290.4 536.0Q290.4 530.8 287.8 527.9Q285.3 525.1 280.6 525.1L280.6 525.1L275.6 525.1Z M333.2 553.1L314.5 553.1Q312.9 553.1 312.0 552.2Q311.2 551.4 311.2 550.0L311.2 550.0Q311.2 549.1 311.6 548.3Q312.0 547.5 313.1 546.5L313.1 546.5L323.2 536.9Q326.3 533.8 327.4 532.2Q328.4 530.6 328.4 528.8L328.4 528.8Q328.4 526.7 327.0 525.3Q325.5 524 323.3 524L323.3 524Q319.3 524 317.4 528.1L317.4 528.1Q316.8 529.2 316.1 529.7Q315.4 530.1 314.3 530.1L314.3 530.1Q312.9 530.1 312.1 529.4Q311.3 528.6 311.3 527.3L311.3 527.3Q311.3 526.5 311.5 525.7L311.5 525.7Q312.5 522.7 315.6 520.6Q318.8 518.5 323.3 518.5L323.3 518.5Q328.7 518.5 332.0 521.2Q335.3 524.0 335.3 528.3L335.3 528.3Q335.3 529.9 335.0 531.2Q334.6 532.5 333.6 533.9Q332.6 535.3 331.3 536.8Q330.0 538.2 327.8 540.3L327.8 540.3L320.5 547.3L320.5 547.4L333.2 547.4Q334.6 547.4 335.4 548.2Q336.1 549.0 336.1 550.3L336.1 550.3Q336.1 551.5 335.4 552.3Q334.6 553.1 333.2 553.1L333.2 553.1ZM363.6 549.0Q359.9 553.8 353.5 553.8Q347.1 553.8 343.4 549.1Q339.7 544.3 339.7 536.1L339.7 536.1Q339.7 527.9 343.4 523.2Q347.1 518.5 353.5 518.5Q359.9 518.5 363.6 523.2Q367.3 527.9 367.3 536.1L367.3 536.1Q367.3 544.3 363.6 549.0ZM348.6 545.0Q350.4 548.1 353.5 548.1Q356.7 548.1 358.4 545.0Q360.1 541.9 360.1 536.1L360.1 536.1Q360.1 530.4 358.4 527.2Q356.7 524.1 353.5 524.1L353.5 524.1Q350.4 524.1 348.7 527.3Q346.9 530.4 346.9 536.1L346.9 536.1Q346.9 541.9 348.6 545.0ZM393.6 553.1L374.9 553.1Q373.3 553.1 372.4 552.2Q371.6 551.4 371.6 550.0L371.6 550.0Q371.6 549.1 372.0 548.3Q372.5 547.5 373.5 546.5L373.5 546.5L383.6 536.9Q386.8 533.8 387.8 532.2Q388.9 530.6 388.9 528.8L388.9 528.8Q388.9 526.7 387.4 525.3Q386.0 524 383.7 524L383.7 524Q379.7 524 377.9 528.1L377.9 528.1Q377.3 529.2 376.5 529.7Q375.8 530.1 374.7 530.1L374.7 530.1Q373.3 530.1 372.5 529.4Q371.7 528.6 371.7 527.3L371.7 527.3Q371.7 526.5 372.0 525.7L372.0 525.7Q372.9 522.7 376.0 520.6Q379.2 518.5 383.8 518.5L383.8 518.5Q389.1 518.5 392.4 521.2Q395.8 524.0 395.8 528.3L395.8 528.3Q395.8 529.9 395.4 531.2Q395 532.5 394.0 533.9Q393.1 535.3 391.7 536.8Q390.4 538.2 388.2 540.3L388.2 540.3L380.9 547.3L380.9 547.4L393.6 547.4Q395 547.4 395.8 548.2Q396.6 549.0 396.6 550.3L396.6 550.3Q396.6 551.5 395.8 552.3Q395 553.1 393.6 553.1L393.6 553.1ZM413.6 553.8L413.6 553.8Q409.6 553.8 406.3 552.1Q403.1 550.4 401.8 547.7L401.8 547.7Q401.3 546.5 401.3 545.4L401.3 545.4Q401.3 544.0 402.0 543.3Q402.8 542.5 404.2 542.5L404.2 542.5Q405.3 542.5 406.0 542.9Q406.7 543.3 407.3 544.3L407.3 544.3Q409.3 548.2 413.6 548.2L413.6 548.2Q416.3 548.2 418.1 546.4Q419.9 544.6 419.9 541.9L419.9 541.9Q419.9 539.2 418.1 537.5Q416.4 535.8 413.6 535.8L413.6 535.8Q410.8 535.8 408.7 537.8L408.7 537.8Q407.6 538.8 406.9 539.1Q406.2 539.4 405.0 539.4L405.0 539.4Q403.4 539.4 402.5 538.4Q401.6 537.4 401.7 535.9L401.7 535.9Q401.7 535.8 401.7 535.6L401.7 535.6L402.7 523.3Q402.9 521.1 404.0 520.2Q405.1 519.2 407.2 519.2L407.2 519.2L422 519.2Q423.3 519.2 424.1 520.0Q424.9 520.8 424.9 522.1Q424.9 523.3 424.1 524.1Q423.3 524.9 422 524.9L422 524.9L408.6 524.9L407.8 534.3L408.0 534.3Q409.0 532.6 411.0 531.7Q413.0 530.7 415.6 530.7L415.6 530.7Q420.4 530.7 423.5 533.8Q426.6 536.9 426.6 541.7L426.6 541.7Q426.6 547.1 423.0 550.5Q419.4 553.8 413.6 553.8Z "/><mask id="satori_om-id-0-1-1"><rect x="1013" y="524" width="147" height="36" fill="#fff"/></mask><path fill="#8e8e8e" d="M1016.9 552.6Q1016.5 552.9 1016.0 552.9Q1015.4 552.9 1015.1 552.6Q1014.8 552.2 1014.8 551.7L1014.8 551.7L1014.8 532.6Q1014.8 532.0 1015.1 531.6Q1015.5 531.3 1016.1 531.3Q1016.6 531.3 1017.0 531.6Q1017.3 532.0 1017.3 532.6L1017.3 532.6L1017.3 540.0L1017.4 540.0Q1018.1 538.7 1019.4 537.9Q1020.7 537.2 1022.3 537.2L1022.3 537.2Q1025.2 537.2 1026.9 539.3Q1028.7 541.5 1028.7 545.0L1028.7 545.0Q1028.7 548.6 1026.9 550.8Q1025.2 552.9 1022.2 552.9L1022.2 552.9Q1020.6 552.9 1019.3 552.2Q1018.0 551.4 1017.3 550.1L1017.3 550.1L1017.2 550.1L1017.2 551.7Q1017.2 552.2 1016.9 552.6ZM1021.7 550.7L1021.7 550.7Q1023.8 550.7 1024.9 549.2Q1026.1 547.7 1026.1 545.0L1026.1 545.0Q1026.1 542.5 1024.9 540.9Q1023.8 539.4 1021.7 539.4L1021.7 539.4Q1019.8 539.4 1018.6 541.0Q1017.3 542.5 1017.3 545.0L1017.3 545.0Q1017.3 547.6 1018.6 549.1Q1019.8 550.7 1021.7 550.7ZM1032.8 558.4L1032.8 558.4Q1031.9 558.4 1031.4 558.0Q1030.9 557.7 1030.9 557.1L1030.9 557.1Q1030.9 556.7 1031.1 556.4Q1031.4 556.2 1031.9 556.2L1031.9 556.2Q1032.1 556.2 1032.3 556.2Q1032.5 556.2 1032.7 556.2L1032.7 556.2Q1034.4 556.2 1035.2 553.7L1035.2 553.7L1035.6 552.7L1030.3 539.0Q1030.2 538.6 1030.2 538.3L1030.2 538.3Q1030.2 537.8 1030.6 537.5Q1030.9 537.2 1031.5 537.2L1031.5 537.2Q1032.4 537.2 1032.7 538.1L1032.7 538.1L1036.9 550.1L1037.0 550.1L1041.2 538.1Q1041.3 537.6 1041.6 537.4Q1041.9 537.2 1042.4 537.2L1042.4 537.2Q1042.9 537.2 1043.3 537.5Q1043.6 537.8 1043.6 538.3L1043.6 538.3Q1043.6 538.6 1043.5 539.0L1043.5 539.0L1037.9 553.7Q1036.9 556.4 1035.8 557.4Q1034.7 558.4 1032.8 558.4Z M1066.9 550.9Q1064.7 553.0 1060.8 553.0Q1056.9 553.0 1054.7 550.9Q1052.4 548.7 1052.4 545.3L1052.4 545.3L1052.4 532.7Q1052.4 532.1 1052.8 531.7Q1053.1 531.3 1053.7 531.3Q1054.3 531.3 1054.7 531.7Q1055.0 532.1 1055.0 532.7L1055.0 532.7L1055.0 545.1Q1055.0 547.5 1056.6 549.1Q1058.1 550.6 1060.8 550.6Q1063.5 550.6 1065.0 549.1Q1066.6 547.5 1066.6 545.1L1066.6 545.1L1066.6 532.7Q1066.6 532.1 1066.9 531.7Q1067.3 531.3 1067.9 531.3Q1068.5 531.3 1068.8 531.7Q1069.2 532.1 1069.2 532.7L1069.2 532.7L1069.2 545.3Q1069.2 548.7 1066.9 550.9ZM1075.6 552.6Q1075.2 552.9 1074.6 552.9Q1074.0 552.9 1073.7 552.6Q1073.3 552.2 1073.3 551.6L1073.3 551.6L1073.3 532.9Q1073.3 532.3 1073.7 531.9Q1074.0 531.5 1074.6 531.5L1074.6 531.5L1081.2 531.5Q1084.3 531.5 1086.1 533.2Q1088.0 535.0 1088.0 537.8L1088.0 537.8Q1088.0 540.0 1086.8 541.6Q1085.7 543.3 1083.7 543.9L1083.7 543.9L1087.6 550.8Q1087.9 551.3 1087.9 551.7L1087.9 551.7Q1087.9 552.2 1087.5 552.6Q1087.1 552.9 1086.5 552.9L1086.5 552.9Q1086.1 552.9 1085.8 552.7Q1085.5 552.5 1085.2 552.1L1085.2 552.1L1081.0 544.3L1075.9 544.3L1075.9 551.6Q1075.9 552.2 1075.6 552.6ZM1075.9 533.9L1075.9 542.0L1081.0 542.0Q1083.0 542.0 1084.1 540.9Q1085.2 539.9 1085.2 537.9L1085.2 537.9Q1085.2 536.0 1084.1 534.9Q1082.9 533.9 1080.9 533.9L1080.9 533.9L1075.9 533.9ZM1099.4 545.3L1091.9 545.3Q1091.3 545.3 1091.0 545.0Q1090.6 544.6 1090.6 544.1Q1090.6 543.6 1091.0 543.2Q1091.3 542.9 1091.9 542.9L1091.9 542.9L1099.4 542.9Q1100.0 542.9 1100.3 543.2Q1100.7 543.6 1100.7 544.1Q1100.7 544.6 1100.3 545.0Q1100.0 545.3 1099.4 545.3L1099.4 545.3ZM1106.4 552.6Q1106.0 552.9 1105.4 552.9Q1104.8 552.9 1104.5 552.6Q1104.1 552.2 1104.1 551.6L1104.1 551.6L1104.1 532.9Q1104.1 532.3 1104.5 531.9Q1104.8 531.5 1105.4 531.5L1105.4 531.5L1112.1 531.5Q1115.1 531.5 1117.0 533.2Q1118.8 535.0 1118.8 537.8L1118.8 537.8Q1118.8 540.0 1117.7 541.6Q1116.5 543.3 1114.5 543.9L1114.5 543.9L1118.4 550.8Q1118.7 551.3 1118.7 551.7L1118.7 551.7Q1118.7 552.2 1118.3 552.6Q1117.9 552.9 1117.3 552.9L1117.3 552.9Q1116.9 552.9 1116.6 552.7Q1116.3 552.5 1116.1 552.1L1116.1 552.1L1111.8 544.3L1106.8 544.3L1106.8 551.6Q1106.8 552.2 1106.4 552.6ZM1106.8 533.9L1106.8 542.0L1111.8 542.0Q1113.9 542.0 1115.0 540.9Q1116.1 539.9 1116.1 537.9L1116.1 537.9Q1116.1 536.0 1114.9 534.9Q1113.8 533.9 1111.7 533.9L1111.7 533.9L1106.8 533.9ZM1122.2 552.9L1122.2 552.9Q1121.6 552.9 1121.2 552.5Q1120.9 552.2 1120.9 551.7L1120.9 551.7Q1120.9 551.4 1121.0 551.0L1121.0 551.0L1127.8 532.6Q1128.3 531.3 1129.5 531.3L1129.5 531.3Q1130.7 531.3 1131.2 532.6L1131.2 532.6L1138.0 551.0Q1138.2 551.4 1138.2 551.7L1138.2 551.7Q1138.2 552.2 1137.8 552.5Q1137.4 552.9 1136.9 552.9L1136.9 552.9Q1135.9 552.9 1135.6 551.9L1135.6 551.9L1133.7 546.6L1125.3 546.6L1123.5 551.9Q1123.1 552.9 1122.2 552.9ZM1129.5 534.7L1126.1 544.4L1132.9 544.4L1129.6 534.7L1129.5 534.7ZM1148.1 552.7L1142.3 552.7Q1141.7 552.7 1141.4 552.3Q1141.0 551.9 1141.0 551.3L1141.0 551.3L1141.0 532.9Q1141.0 532.3 1141.4 531.9Q1141.7 531.5 1142.3 531.5L1142.3 531.5L1148.1 531.5Q1152.8 531.5 1155.5 534.3Q1158.1 537.1 1158.1 542.1L1158.1 542.1Q1158.1 547.1 1155.5 549.9Q1152.8 552.7 1148.1 552.7L1148.1 552.7ZM1143.7 533.9L1143.7 550.3L1148.0 550.3Q1151.5 550.3 1153.5 548.2Q1155.4 546.1 1155.4 542.1L1155.4 542.1Q1155.4 538.1 1153.5 536.0Q1151.6 533.9 1148.0 533.9L1148.0 533.9L1143.7 533.9Z "/></svg>