<svg width="1200" height="630" viewBox="0 0 1200 630" xmlns="http://www.w3.org/2000/svg"><mask id="satori_om-id"><rect x="0" y="0" width="1200" height="630" fill="#fff"/></mask><mask id="satori_om-id-0"><rect x="0" y="0" width="1200" height="630" fill="#fff"/></mask><rect x="0" y="0" width="1200" height="630" fill="#f2f2f2"/><mask id="satori_om-id-0-0"><rect x="0" y="0" width="1200" height="441" fill="#fff"/></mask><mask id="satori_om-id-0-0-0"><rect x="40" y="95" width="1120" height="36" fill="#fff"/></mask><path fill="#8e8e8e" d="M50.0 123.4Q49.6 123.9 48.8 123.9Q48.1 123.9 47.6 123.4Q47.2 123.0 47.2 122.2L47.2 122.2L47.2 105.4L42.0 105.4Q41.3 105.4 40.9 105.0Q40.5 104.6 40.5 103.9Q40.5 103.3 40.9 102.9Q41.3 102.5 42.0 102.5L42.0 102.5L55.6 102.5Q56.3 102.5 56.8 102.9Q57.2 103.3 57.2 103.9Q57.2 104.6 56.8 105.0Q56.3 105.4 55.6 105.4L55.6 105.4L50.5 105.4L50.5 122.2Q50.5 123.0 50.0 123.4ZM62.1 123.5Q61.6 123.9 60.9 123.9Q60.2 123.9 59.8 123.5Q59.3 123.0 59.3 122.3L59.3 122.3L59.3 103.9Q59.3 103.1 59.8 102.7Q60.2 102.2 60.9 102.2L60.9 102.2Q61.6 102.2 62.1 102.7Q62.5 103.1 62.5 103.9L62.5 103.9L62.5 110.8L62.5 110.8Q63.2 109.5 64.4 108.7Q65.7 108.0 67.4 108.0L67.4 108.0Q69.9 108.0 71.4 109.5Q72.8 111.1 72.8 113.7L72.8 113.7L72.8 122.3Q72.8 123.0 72.4 123.5Q71.9 123.9 71.2 123.9L71.2 123.9Q70.5 123.9 70.1 123.5Q69.6 123.0 69.6 122.3L69.6 122.3L69.6 114.3Q69.6 112.6 68.8 111.7Q67.9 110.7 66.3 110.7L66.3 110.7Q64.5 110.7 63.5 111.8Q62.5 112.9 62.5 114.8L62.5 114.8L62.5 122.3Q62.5 123.0 62.1 123.5ZM81.2 123.9L81.2 123.9Q78.7 123.9 77.2 122.4Q75.8 120.9 75.8 118.2L75.8 118.2L75.8 109.7Q75.8 108.9 76.2 108.4Q76.7 108.0 77.4 108.0L77.4 108.0Q78.1 108.0 78.5 108.4Q79.0 108.9 79.0 109.7L79.0 109.7L79.0 117.6Q79.0 119.4 79.8 120.3Q80.6 121.2 82.3 121.2L82.3 121.2Q84.0 121.2 84.9 120.1Q85.9 119.0 85.9 117.2L85.9 117.2L85.9 109.7Q85.9 108.9 86.4 108.4Q86.8 108.0 87.5 108.0L87.5 108.0Q88.2 108.0 88.7 108.4Q89.1 108.9 89.1 109.7L89.1 109.7L89.1 122.3Q89.1 123.1 88.7 123.5Q88.3 123.9 87.6 123.9Q86.9 123.9 86.5 123.5Q86.1 123.1 86.1 122.3L86.1 122.3L86.1 121.1L86.0 121.1Q84.6 123.9 81.2 123.9ZM93.8 123.9L93.8 123.9Q93.1 123.9 92.6 123.5Q92.2 123.0 92.2 122.3L92.2 122.3L92.2 109.6Q92.2 108.9 92.6 108.4Q93.0 108.0 93.7 108.0L93.7 108.0Q94.4 108.0 94.8 108.4Q95.2 108.9 95.2 109.6L95.2 109.6L95.2 110.9L95.3 110.9Q95.6 109.6 96.6 108.8Q97.5 108.0 98.7 108.0L98.7 108.0Q99.5 108.0 99.9 108.4L99.9 108.4Q100.3 108.7 100.3 109.5L100.3 109.5Q100.3 110.2 99.9 110.6L99.9 110.6Q99.4 111.0 98.4 111.0L98.4 111.0Q96.9 111.0 96.1 112.0Q95.4 112.9 95.4 114.4L95.4 114.4L95.4 122.3Q95.4 123.0 94.9 123.5Q94.5 123.9 93.8 123.9ZM107.7 124.0L107.7 124.0Q105.5 124.0 103.9 123.1Q102.3 122.3 101.7 120.8L101.7 120.8Q101.6 120.5 101.6 120.2L101.6 120.2Q101.6 119.6 102.0 119.2Q102.4 118.9 103.0 118.9L103.0 118.9Q103.8 118.9 104.4 119.7L104.4 119.7Q105.0 120.7 105.8 121.1Q106.5 121.5 107.9 121.5L107.9 121.5Q109.3 121.5 110.1 121.0Q110.9 120.4 110.9 119.5L110.9 119.5Q110.9 118.7 110.4 118.3Q109.9 117.8 108.7 117.5L108.7 117.5L106.2 117.0Q101.8 115.9 101.8 112.6L101.8 112.6Q101.8 110.5 103.4 109.2Q105.1 108.0 107.9 108.0L107.9 108.0Q109.9 108.0 111.5 108.9Q113.0 109.8 113.4 111.2L113.4 111.2Q113.4 111.6 113.4 111.7L113.4 111.7Q113.4 112.2 113.1 112.5Q112.8 112.9 112.2 112.9L112.2 112.9Q111.3 112.9 110.9 112.2L110.9 112.2Q110.4 111.3 109.6 110.8Q108.9 110.4 107.7 110.4L107.7 110.4Q106.5 110.4 105.7 111.0Q104.9 111.5 104.9 112.4L104.9 112.4Q104.9 113.9 107.2 114.5L107.2 114.5L109.6 115.0Q112.1 115.6 113.1 116.5Q114.1 117.5 114.1 119.2L114.1 119.2Q114.1 121.3 112.3 122.6Q110.6 124.0 107.7 124.0ZM122.3 123.9L122.3 123.9Q119.4 123.9 117.6 121.8Q115.9 119.6 115.9 116.0Q115.9 112.3 117.6 110.2Q119.4 108.0 122.3 108.0L122.3 108.0Q123.9 108.0 125.2 108.8Q126.5 109.5 127.1 110.8L127.1 110.8L127.2 110.8L127.2 103.9Q127.2 103.1 127.6 102.7Q128.1 102.2 128.8 102.2L128.8 102.2Q129.5 102.2 129.9 102.7Q130.4 103.2 130.4 103.9L130.4 103.9L130.4 122.4Q130.4 123.1 129.9 123.5Q129.5 123.9 128.8 123.9L128.8 123.9Q128.1 123.9 127.7 123.5Q127.2 123.1 127.2 122.4L127.2 122.4L127.2 120.9L127.2 120.9Q126.5 122.3 125.3 123.1Q124.1 123.9 122.3 123.9ZM123.2 121.2L123.2 121.2Q125.0 121.2 126.1 119.8Q127.2 118.4 127.2 116.0L127.2 116.0Q127.2 113.6 126.1 112.1Q125.0 110.7 123.2 110.7L123.2 110.7Q121.3 110.7 120.2 112.1Q119.1 113.5 119.1 116.0L119.1 116.0Q119.1 118.4 120.2 119.8Q121.3 121.2 123.2 121.2ZM138.1 123.9L138.1 123.9Q135.9 123.9 134.4 122.6Q133.0 121.3 133.0 119.3L133.0 119.3Q133.0 117.3 134.5 116.1Q136.0 114.9 138.7 114.7L138.7 114.7L142.9 114.5L142.9 113.3Q142.9 112.0 142.1 111.3Q141.3 110.6 139.9 110.6L139.9 110.6Q138.7 110.6 137.9 111.0Q137.1 111.5 136.4 112.5L136.4 112.5Q136.0 113.2 135.2 113.2L135.2 113.2Q134.6 113.2 134.2 112.8Q133.8 112.4 133.8 111.9L133.8 111.9Q133.8 111.3 134.1 110.8L134.1 110.8Q134.7 109.5 136.3 108.8Q137.9 108.0 140.0 108.0L140.0 108.0Q142.8 108.0 144.4 109.4Q146.1 110.7 146.1 113.0L146.1 113.0L146.1 122.3Q146.1 123.1 145.7 123.5Q145.2 123.9 144.6 123.9L144.6 123.9Q143.9 123.9 143.5 123.5Q143.1 123.1 143.1 122.4L143.1 122.4L143.1 121.1L143.0 121.1Q142.3 122.4 141.0 123.2Q139.7 123.9 138.1 123.9ZM139.0 121.4L139.0 121.4Q140.7 121.4 141.8 120.4Q142.9 119.4 142.9 117.9L142.9 117.9L142.9 116.7L139.1 116.9Q137.7 117.0 137.0 117.6Q136.2 118.2 136.2 119.2L136.2 119.2Q136.2 120.2 137.0 120.8Q137.7 121.4 139.0 121.4ZM151.1 129.4L151.1 129.4Q150.0 129.4 149.4 129.0Q148.8 128.6 148.8 127.9L148.8 127.9Q148.8 127.4 149.1 127.1Q149.5 126.8 150.0 126.8L150.0 126.8Q150.2 126.8 150.4 126.8Q150.7 126.8 150.8 126.8L150.8 126.8Q152.4 126.8 153.2 124.7L153.2 124.7L153.5 123.8L148.3 110.3Q148.1 109.9 148.1 109.4L148.1 109.4Q148.1 108.8 148.6 108.4Q149.1 108.0 149.8 108.0L149.8 108.0Q150.4 108.0 150.7 108.3Q151.1 108.5 151.3 109.2L151.3 109.2L155.2 120.8L155.3 120.8L159.2 109.2Q159.4 108.5 159.7 108.3Q160.1 108.0 160.7 108.0L160.7 108.0Q161.4 108.0 161.8 108.4Q162.2 108.8 162.2 109.4L162.2 109.4Q162.2 109.8 162.1 110.3L162.1 110.3L156.7 124.4Q155.7 127.2 154.5 128.3Q153.2 129.4 151.1 129.4ZM166.7 120.1L166.7 120.1Q167.4 120.1 167.8 120.5Q168.2 120.8 168.2 121.4L168.2 121.4Q168.2 121.8 168.1 122.3L168.1 122.3L166.8 127.3Q166.5 128.4 165.4 128.4L165.4 128.4Q164.9 128.4 164.5 128.1Q164.2 127.7 164.2 127.2L164.2 127.2Q164.2 127.1 164.3 126.8L164.3 126.8L165.2 121.4Q165.4 120.1 166.7 120.1Z M181.7 123.9L181.7 123.9Q181.0 123.9 180.6 123.6Q180.2 123.2 180.2 122.6L180.2 122.6Q180.2 122.1 180.5 121.6L180.5 121.6L189.0 105.4L189.0 105.3L179.1 105.3Q178.5 105.3 178.1 104.9Q177.7 104.5 177.7 103.9L177.7 103.9Q177.7 103.3 178.1 102.9Q178.5 102.5 179.1 102.5L179.1 102.5L190.3 102.5Q191.2 102.5 191.8 103.0Q192.3 103.5 192.3 104.4L192.3 104.4Q192.3 105.1 191.7 106.4L191.7 106.4L183.2 123.0Q182.9 123.5 182.6 123.7Q182.2 123.9 181.7 123.9Z M204.2 123.5Q203.8 123.9 203.1 123.9Q202.3 123.9 201.9 123.5Q201.5 123.0 201.5 122.2L201.5 122.2L201.5 104.1Q201.5 103.2 201.9 102.8Q202.4 102.3 203.2 102.3L203.2 102.3Q203.8 102.3 204.2 102.5Q204.6 102.7 205.0 103.3L205.0 103.3L215.4 118.1L215.5 118.1L215.5 104.0Q215.5 103.2 215.9 102.7Q216.4 102.3 217.1 102.3L217.1 102.3Q217.8 102.3 218.3 102.7Q218.7 103.2 218.7 104.0L218.7 104.0L218.7 122.2Q218.7 123.0 218.2 123.5Q217.8 123.9 217.0 123.9L217.0 123.9Q216.4 123.9 216.0 123.7Q215.6 123.5 215.2 122.9L215.2 122.9L204.8 108.1L204.6 108.1L204.6 122.2Q204.6 123.0 204.2 123.5ZM234.2 121.8Q232.2 124.0 228.8 124.0Q225.5 124.0 223.5 121.8Q221.5 119.7 221.5 116.0L221.5 116.0Q221.5 112.3 223.5 110.1Q225.5 108.0 228.8 108.0Q232.2 108.0 234.2 110.1Q236.1 112.3 236.1 116.0L236.1 116.0Q236.1 119.7 234.2 121.8ZM228.8 121.3L228.8 121.3Q230.7 121.3 231.8 119.9Q232.9 118.5 232.9 116.0L232.9 116.0Q232.9 113.4 231.8 112.0Q230.7 110.6 228.8 110.6Q227.0 110.6 225.9 112.0Q224.7 113.4 224.7 116.0L224.7 116.0Q224.7 118.5 225.9 119.9Q227.0 121.3 228.8 121.3ZM244.5 123.9L244.5 123.9Q243.7 123.9 243.2 123.6Q242.7 123.2 242.3 122.3L242.3 122.3L237.8 110.3Q237.6 109.8 237.6 109.4L237.6 109.4Q237.6 108.8 238.0 108.4Q238.5 108.0 239.2 108.0L239.2 108.0Q240.3 108.0 240.7 109.2L240.7 109.2L244.5 120.6L244.6 120.6L248.4 109.2Q248.8 108.0 249.9 108.0L249.9 108.0Q250.5 108.0 251.0 108.4Q251.4 108.8 251.4 109.4L251.4 109.4Q251.4 109.9 251.3 110.3L251.3 110.3L246.7 122.3Q246.4 123.2 245.9 123.6Q245.3 123.9 244.5 123.9ZM260.2 124.0L260.2 124.0Q256.8 124.0 254.8 121.9Q252.9 119.8 252.9 116.0L252.9 116.0Q252.9 112.4 254.8 110.2Q256.8 108.0 260.0 108.0L260.0 108.0Q263.1 108.0 265.0 110.0Q266.9 112.0 266.9 115.1L266.9 115.1Q266.9 115.9 266.5 116.3Q266.1 116.8 265.4 116.8L265.4 116.8L256.1 116.8L256.1 116.8Q256.1 118.9 257.2 120.2Q258.3 121.4 260.2 121.4L260.2 121.4Q261.5 121.4 262.4 120.9Q263.3 120.4 264.2 119.2L264.2 119.2Q264.6 118.6 265.3 118.6L265.3 118.6Q265.8 118.6 266.2 119.0Q266.6 119.3 266.6 119.9L266.6 119.9Q266.6 120.3 266.4 120.8L266.4 120.8Q265.6 122.3 264.0 123.1Q262.4 124.0 260.2 124.0ZM256.1 114.5L256.1 114.5L263.8 114.5Q263.7 112.7 262.7 111.6Q261.7 110.5 260.0 110.5L260.0 110.5Q258.4 110.5 257.3 111.6Q256.2 112.7 256.1 114.5ZM272.1 123.5Q271.7 123.9 271.0 123.9Q270.3 123.9 269.8 123.5Q269.4 123.0 269.4 122.3L269.4 122.3L269.4 109.6Q269.4 108.9 269.8 108.4Q270.2 108.0 270.9 108.0Q271.6 108.0 272.0 108.4Q272.4 108.8 272.4 109.6L272.4 109.6L272.4 110.8L272.5 110.8Q273.0 109.5 274.2 108.8Q275.3 108.0 276.9 108.0L276.9 108.0Q278.5 108.0 279.6 108.8Q280.7 109.6 281.2 111.0L281.2 111.0L281.2 111.0Q281.8 109.6 283.1 108.8Q284.4 108.0 286.0 108.0L286.0 108.0Q288.3 108.0 289.7 109.4Q291.1 110.8 291.1 113.1L291.1 113.1L291.1 122.3Q291.1 123.0 290.6 123.5Q290.2 123.9 289.5 123.9Q288.8 123.9 288.3 123.5Q287.9 123.0 287.9 122.3L287.9 122.3L287.9 113.8Q287.9 112.3 287.1 111.5Q286.4 110.7 285.0 110.7Q283.6 110.7 282.7 111.6Q281.8 112.6 281.8 114.0L281.8 114.0L281.8 122.3Q281.8 123.0 281.4 123.5Q281.0 123.9 280.2 123.9Q279.5 123.9 279.1 123.5Q278.7 123.0 278.7 122.3L278.7 122.3L278.7 113.6Q278.7 112.3 277.9 111.5Q277.1 110.7 275.8 110.7L275.8 110.7Q274.4 110.7 273.5 111.7Q272.6 112.6 272.6 114.1L272.6 114.1L272.6 122.3Q272.6 123.0 272.1 123.5ZM295.8 123.9L295.8 123.9Q295.1 123.9 294.7 123.5Q294.3 123.1 294.3 122.4L294.3 122.4L294.3 103.9Q294.3 103.2 294.7 102.7Q295.1 102.2 295.8 102.2Q296.5 102.2 297.0 102.7Q297.4 103.2 297.4 103.9L297.4 103.9L297.4 110.9L297.5 110.9Q298.2 109.5 299.5 108.8Q300.7 108.0 302.4 108.0L302.4 108.0Q305.3 108.0 307.0 110.2Q308.8 112.3 308.8 116.0L308.8 116.0Q308.8 119.6 307.0 121.8Q305.3 123.9 302.3 123.9L302.3 123.9Q300.7 123.9 299.4 123.2Q298.1 122.4 297.4 121.0L297.4 121.0L297.3 121.0L297.3 122.4Q297.3 123.1 296.9 123.5Q296.5 123.9 295.8 123.9ZM301.5 121.2L301.5 121.2Q303.4 121.2 304.4 119.8Q305.5 118.4 305.5 116.0L305.5 116.0Q305.5 113.5 304.4 112.1Q303.3 110.7 301.5 110.7L301.5 110.7Q299.7 110.7 298.5 112.1Q297.4 113.6 297.4 116.0L297.4 116.0Q297.4 118.3 298.5 119.8Q299.7 121.2 301.5 121.2ZM317.9 124.0L317.9 124.0Q314.4 124.0 312.5 121.9Q310.5 119.8 310.5 116.0L310.5 116.0Q310.5 112.4 312.5 110.2Q314.4 108.0 317.7 108.0L317.7 108.0Q320.8 108.0 322.7 110.0Q324.6 112.0 324.6 115.1L324.6 115.1Q324.6 115.9 324.2 116.3Q323.8 116.8 323.1 116.8L323.1 116.8L313.7 116.8L313.7 116.8Q313.7 118.9 314.8 120.2Q315.9 121.4 317.8 121.4L317.8 121.4Q319.1 121.4 320.0 120.9Q320.9 120.4 321.8 119.2L321.8 119.2Q322.3 118.6 322.9 118.6L322.9 118.6Q323.5 118.6 323.9 119.0Q324.3 119.3 324.3 119.9L324.3 119.9Q324.3 120.3 324.0 120.8L324.0 120.8Q323.3 122.3 321.7 123.1Q320.1 124.0 317.9 124.0ZM313.8 114.5L313.8 114.5L321.5 114.5Q321.4 112.7 320.4 111.6Q319.3 110.5 317.7 110.5L317.7 110.5Q316.0 110.5 315.0 111.6Q313.9 112.7 313.8 114.5ZM328.6 123.9L328.6 123.9Q327.9 123.9 327.5 123.5Q327.1 123.0 327.1 122.3L327.1 122.3L327.1 109.6Q327.1 108.9 327.5 108.4Q327.9 108.0 328.6 108.0L328.6 108.0Q329.2 108.0 329.7 108.4Q330.1 108.9 330.1 109.6L330.1 109.6L330.1 110.9L330.1 110.9Q330.5 109.6 331.4 108.8Q332.4 108.0 333.5 108.0L333.5 108.0Q334.4 108.0 334.8 108.4L334.8 108.4Q335.2 108.7 335.2 109.5L335.2 109.5Q335.2 110.2 334.7 110.6L334.7 110.6Q334.3 111.0 333.3 111.0L333.3 111.0Q331.7 111.0 331.0 112.0Q330.2 112.9 330.2 114.4L330.2 114.4L330.2 122.3Q330.2 123.0 329.8 123.5Q329.4 123.9 328.6 123.9Z M356.2 123.7L344.6 123.7Q343.8 123.7 343.4 123.3Q343.0 122.9 343.0 122.3L343.0 122.3Q343.0 121.8 343.2 121.5Q343.4 121.1 343.9 120.6L343.9 120.6L350.5 113.9Q352.6 111.8 353.3 110.7Q353.9 109.6 353.9 108.3L353.9 108.3Q353.9 106.8 352.9 105.8Q351.9 104.8 350.3 104.8L350.3 104.8Q347.1 104.8 346.0 108.0L346.0 108.0Q345.8 108.5 345.4 108.8Q345.1 109.0 344.5 109.0L344.5 109.0Q343.9 109.0 343.5 108.6Q343.1 108.3 343.1 107.6L343.1 107.6Q343.1 107.3 343.2 107.0L343.2 107.0Q343.4 106.1 343.9 105.3Q344.5 104.4 345.3 103.7Q346.2 103.0 347.5 102.6Q348.8 102.1 350.3 102.1L350.3 102.1Q353.3 102.1 355.2 103.8Q357.2 105.5 357.2 108.1L357.2 108.1Q357.2 109.9 356.2 111.5Q355.2 113.0 352.5 115.8L352.5 115.8L347.5 120.8L347.5 120.9L356.2 120.9Q356.9 120.9 357.3 121.3Q357.7 121.7 357.7 122.3L357.7 122.3Q357.7 122.9 357.3 123.3Q356.9 123.7 356.2 123.7L356.2 123.7ZM374.1 121.1Q372.0 124.1 368.2 124.1Q364.4 124.1 362.2 121.1Q360.1 118.2 360.1 113.1L360.1 113.1Q360.1 108.0 362.2 105.1Q364.4 102.1 368.2 102.1L368.2 102.1Q371.9 102.1 374.1 105.1Q376.2 108.0 376.2 113.1L376.2 113.1Q376.2 118.1 374.1 121.1ZM368.2 121.3L368.2 121.3Q370.4 121.3 371.7 119.1Q372.9 116.9 372.9 113.1L372.9 113.1Q372.9 109.3 371.7 107.1Q370.4 104.9 368.2 104.9Q365.9 104.9 364.7 107.1Q363.4 109.3 363.4 113.1L363.4 113.1Q363.4 116.9 364.6 119.1Q365.9 121.3 368.2 121.3ZM392.3 123.7L380.6 123.7Q379.9 123.7 379.5 123.3Q379.1 122.9 379.1 122.3L379.1 122.3Q379.1 121.8 379.3 121.5Q379.5 121.1 380.0 120.6L380.0 120.6L386.6 113.9Q388.7 111.8 389.4 110.7Q390.0 109.6 390.0 108.3L390.0 108.3Q390.0 106.8 389.0 105.8Q388.0 104.8 386.4 104.8L386.4 104.8Q383.2 104.8 382.1 108.0L382.1 108.0Q381.9 108.5 381.5 108.8Q381.2 109.0 380.6 109.0L380.6 109.0Q380.0 109.0 379.6 108.6Q379.2 108.3 379.2 107.6L379.2 107.6Q379.2 107.3 379.3 107.0L379.3 107.0Q379.4 106.1 380.0 105.3Q380.5 104.4 381.4 103.7Q382.3 103.0 383.6 102.6Q384.9 102.1 386.4 102.1L386.4 102.1Q389.4 102.1 391.3 103.8Q393.3 105.5 393.3 108.1L393.3 108.1Q393.3 109.9 392.3 111.5Q391.3 113.0 388.6 115.8L388.6 115.8L383.5 120.8L383.5 120.9L392.3 120.9Q393.0 120.9 393.4 121.3Q393.8 121.7 393.8 122.3L393.8 122.3Q393.8 122.9 393.4 123.3Q393.0 123.7 392.3 123.7L392.3 123.7ZM408.1 123.9L408.1 123.9Q407.5 123.9 407.0 123.5Q406.6 123.0 406.6 122.3L406.6 122.3L406.6 119.5L397.9 119.5Q397.0 119.5 396.5 119.0Q396.0 118.4 396.0 117.6L396.0 117.6Q396.0 116.6 396.7 115.3L396.7 115.3Q398.5 112.0 403.5 104.7L403.5 104.7Q404.5 103.3 405.2 102.8Q406.0 102.2 407.0 102.2L407.0 102.2Q408.3 102.2 409.0 102.9Q409.7 103.5 409.7 104.7L409.7 104.7L409.7 116.7L411.4 116.7Q412.0 116.7 412.4 117.1Q412.8 117.5 412.8 118.1Q412.8 118.7 412.4 119.1Q412.0 119.5 411.4 119.5L411.4 119.5L409.7 119.5L409.7 122.3Q409.7 123.0 409.3 123.5Q408.8 123.9 408.1 123.9ZM399.0 116.8L406.6 116.8L406.6 105.1L406.5 105.1Q401.1 112.9 399.0 116.7L399.0 116.7L399.0 116.8Z "/><mask id="satori_om-id-0-0-1"><rect x="40" y="176" width="1120" height="165" fill="#fff"/></mask><path fill="#224d67" d="M47.5 239.1L47.5 239.1Q45.7 239.1 44.7 238.0Q43.7 237.0 43.7 235.2L43.7 235.2L43.7 199.7Q43.7 197.9 44.7 196.8Q45.7 195.8 47.5 195.8L47.5 195.8Q49.3 195.8 50.3 196.8Q51.3 197.9 51.3 199.7L51.3 199.7L51.3 213.9L71.8 213.9L71.8 199.7Q71.8 197.9 72.8 196.8Q73.8 195.8 75.6 195.8L75.6 195.8Q77.4 195.8 78.4 196.8Q79.4 197.9 79.4 199.7L79.4 199.7L79.4 235.2Q79.4 237.0 78.4 238.1Q77.4 239.1 75.6 239.1L75.6 239.1Q73.8 239.1 72.8 238.1Q71.8 237.0 71.8 235.2L71.8 235.2L71.8 220.2L51.3 220.2L51.3 235.2Q51.3 237.0 50.3 238.1Q49.3 239.1 47.5 239.1ZM97.0 239.1L97.0 239.1Q91.9 239.1 88.9 236.0Q85.9 233.0 85.9 227.6L85.9 227.6L85.9 210.7Q85.9 209.0 86.9 207.9Q87.9 206.9 89.6 206.9Q91.2 206.9 92.2 207.9Q93.2 209.0 93.2 210.8L93.2 210.8L93.2 226.1Q93.2 229.5 94.8 231.2Q96.4 233.0 99.5 233.0L99.5 233.0Q102.6 233.0 104.5 230.9Q106.3 228.9 106.3 225.5L106.3 225.5L106.3 210.7Q106.3 209.0 107.3 207.9Q108.3 206.9 110.0 206.9L110.0 206.9Q111.6 206.9 112.6 207.9Q113.6 209.0 113.6 210.8L113.6 210.8L113.6 235.5Q113.6 237.2 112.7 238.2Q111.7 239.2 110.1 239.2L110.1 239.2Q108.5 239.2 107.6 238.2Q106.6 237.2 106.6 235.5L106.6 235.5L106.6 233.2L106.4 233.2Q103.9 239.1 97.0 239.1ZM123.2 239.2L123.2 239.2Q121.5 239.2 120.6 238.2Q119.6 237.1 119.6 235.3L119.6 235.3L119.6 210.6Q119.6 208.9 120.5 207.9Q121.5 206.9 123.1 206.9Q124.6 206.9 125.6 207.9Q126.6 208.9 126.6 210.6L126.6 210.6L126.6 212.9L126.7 212.9Q127.7 210.2 130.1 208.5Q132.4 206.9 135.6 206.9L135.6 206.9Q138.8 206.9 141.1 208.6Q143.4 210.2 144.2 213.2L144.2 213.2L144.4 213.2Q145.5 210.3 148.1 208.6Q150.7 206.9 154.1 206.9L154.1 206.9Q158.7 206.9 161.5 209.8Q164.2 212.6 164.2 217.3L164.2 217.3L164.2 235.3Q164.2 237.1 163.2 238.1Q162.2 239.2 160.6 239.2L160.6 239.2Q158.9 239.2 157.9 238.1Q156.9 237.1 156.9 235.3L156.9 235.3L156.9 219.1Q156.9 216.2 155.5 214.6Q154.0 213.1 151.4 213.1L151.4 213.1Q148.7 213.1 147.1 214.8Q145.4 216.6 145.4 219.4L145.4 219.4L145.4 235.3Q145.4 237.1 144.5 238.2Q143.5 239.2 141.9 239.2L141.9 239.2Q140.2 239.2 139.3 238.2Q138.3 237.1 138.3 235.3L138.3 235.3L138.3 218.7Q138.3 216.1 136.9 214.6Q135.4 213.1 132.8 213.1L132.8 213.1Q130.2 213.1 128.5 214.9Q126.9 216.8 126.9 219.6L126.9 219.6L126.9 235.3Q126.9 237.1 125.9 238.1Q124.8 239.2 123.2 239.2ZM179.2 239.1L179.2 239.1Q174.6 239.1 171.7 236.5Q168.8 233.9 168.8 229.7L168.8 229.7Q168.8 225.6 171.9 223.2Q174.9 220.8 180.6 220.4L180.6 220.4L188.8 219.9L188.8 217.7Q188.8 215.3 187.3 213.9Q185.8 212.6 183.0 212.6L183.0 212.6Q180.9 212.6 179.4 213.4Q177.9 214.2 176.5 216.2L176.5 216.2Q175.4 217.7 173.6 217.7L173.6 217.7Q172.2 217.7 171.4 216.9Q170.5 216.1 170.5 214.8L170.5 214.8Q170.5 213.8 171.0 212.8L171.0 212.8Q172.2 210.1 175.5 208.5Q178.9 206.9 183.3 206.9L183.3 206.9Q189.1 206.9 192.6 209.7Q196.0 212.5 196.0 217.2L196.0 217.2L196.0 235.5Q196.0 237.2 195.1 238.2Q194.1 239.2 192.5 239.2L192.5 239.2Q191.0 239.2 190.0 238.3Q189.1 237.4 189.0 235.8L189.0 235.8L189.0 233.6L188.9 233.6Q187.5 236.1 184.9 237.6Q182.2 239.1 179.2 239.1ZM181.4 233.6L181.4 233.6Q184.5 233.6 186.7 231.7Q188.8 229.8 188.8 227.1L188.8 227.1L188.8 224.7L181.6 225.1Q179.0 225.3 177.5 226.4Q176.1 227.6 176.1 229.4L176.1 229.4Q176.1 231.3 177.5 232.4Q179.0 233.6 181.4 233.6ZM208.2 238.2Q207.2 239.2 205.5 239.2Q203.9 239.2 202.9 238.2Q201.9 237.1 201.9 235.3L201.9 235.3L201.9 210.6Q201.9 208.9 202.8 207.9Q203.8 206.9 205.4 206.9Q207.0 206.9 208.0 207.9Q209.0 208.9 209.0 210.6L209.0 210.6L209.0 212.8L209.1 212.8Q211.8 206.9 218.8 206.9L218.8 206.9Q223.9 206.9 226.7 210.0Q229.6 213.1 229.6 218.5L229.6 218.5L229.6 235.3Q229.6 237.1 228.6 238.2Q227.6 239.2 225.9 239.2Q224.3 239.2 223.3 238.2Q222.3 237.1 222.3 235.3L222.3 235.3L222.3 220.0Q222.3 216.6 220.7 214.9Q219.1 213.1 216.0 213.1L216.0 213.1Q212.9 213.1 211.0 215.2Q209.2 217.2 209.2 220.6L209.2 220.6L209.2 235.3Q209.2 237.1 208.2 238.2Z M251.9 239.1L251.9 239.1Q250.1 239.1 249.1 238.0Q248.1 237.0 248.1 235.2L248.1 235.2L248.1 200.2Q248.1 198.4 249.1 197.3Q250.1 196.3 251.9 196.3L251.9 196.3L264.6 196.3Q270.9 196.3 274.8 200.2Q278.8 204.1 278.8 210.5L278.8 210.5Q278.8 216.8 274.7 220.7Q270.7 224.6 264.2 224.6L264.2 224.6L255.7 224.6L255.7 235.2Q255.7 237.0 254.7 238.1Q253.7 239.1 251.9 239.1ZM255.7 202.5L255.7 218.5L262.5 218.5Q266.6 218.5 268.9 216.4Q271.1 214.3 271.1 210.5L271.1 210.5Q271.1 206.6 268.9 204.6Q266.6 202.5 262.6 202.5L262.6 202.5L255.7 202.5ZM297.4 239.2L297.4 239.2Q290.3 239.2 286.3 235.0Q282.3 230.7 282.3 223.2L282.3 223.2Q282.3 215.7 286.3 211.3Q290.3 206.9 297.0 206.9L297.0 206.9Q303.3 206.9 307.3 210.9Q311.3 215.0 311.3 221.4L311.3 221.4Q311.3 223.0 310.4 223.9Q309.5 224.8 307.9 224.8L307.9 224.8L289.6 224.8L289.6 225.0Q289.6 228.9 291.7 231.3Q293.8 233.6 297.3 233.6L297.3 233.6Q299.8 233.6 301.5 232.6Q303.3 231.7 305.1 229.4L305.1 229.4Q306.1 228.3 307.5 228.3L307.5 228.3Q308.8 228.3 309.6 229.0Q310.5 229.8 310.5 231.1L310.5 231.1Q310.5 231.9 310.0 232.9L310.0 232.9Q308.4 235.9 305.1 237.5Q301.8 239.2 297.4 239.2ZM289.6 220.0L289.6 220.0L304.1 220.0Q304.0 216.6 302.0 214.6Q300.1 212.5 297.0 212.5Q293.9 212.5 291.9 214.6Q289.8 216.7 289.6 220.0ZM322.2 238.1Q321.3 239.2 319.6 239.2Q317.9 239.2 316.9 238.1Q315.9 237.1 315.9 235.3L315.9 235.3L315.9 210.6Q315.9 208.9 316.9 207.9Q317.9 206.9 319.4 206.9L319.4 206.9Q321.0 206.9 321.9 207.9Q322.9 208.9 322.9 210.6L322.9 210.6L322.9 213.0L323.0 213.0Q323.7 210.3 325.5 208.6Q327.3 207.0 329.7 207.0L329.7 207.0Q331.4 207.0 332.3 207.8L332.3 207.8Q333.3 208.6 333.3 210.4L333.3 210.4Q333.3 212.1 332.2 213.0L332.2 213.0Q331.2 213.9 329.0 214.0L329.0 214.0Q323.2 214.0 323.2 220.4L323.2 220.4L323.2 235.3Q323.2 237.1 322.2 238.1ZM350.2 239.2L350.2 239.2Q343.4 239.2 339.3 234.9Q335.3 230.5 335.3 223.1L335.3 223.1Q335.3 215.7 339.3 211.3Q343.4 206.9 350.2 206.9L350.2 206.9Q354.7 206.9 358.3 209.0Q361.8 211.1 362.9 214.4L362.9 214.4Q363.3 215.4 363.3 216.1L363.3 216.1Q363.3 217.5 362.4 218.3Q361.5 219.1 360.2 219.1L360.2 219.1Q359.1 219.1 358.4 218.6Q357.6 218.1 357.0 217.0L357.0 217.0Q354.7 212.8 350.4 212.8L350.4 212.8Q346.9 212.8 344.8 215.6Q342.7 218.3 342.7 223.1L342.7 223.1Q342.7 227.9 344.8 230.6Q346.8 233.3 350.3 233.3L350.3 233.3Q354.7 233.3 357.0 229.3L357.0 229.3Q357.7 228.1 358.4 227.6Q359.2 227.1 360.3 227.1L360.3 227.1Q361.7 227.1 362.5 227.9Q363.4 228.7 363.4 230.1L363.4 230.1Q363.4 230.9 363.0 231.9L363.0 231.9Q361.7 235.1 358.1 237.2Q354.6 239.2 350.2 239.2ZM382.1 239.2L382.1 239.2Q375.0 239.2 371.0 235.0Q367.0 230.7 367.0 223.2L367.0 223.2Q367.0 215.7 371.0 211.3Q375.0 206.9 381.7 206.9L381.7 206.9Q388.0 206.9 392.0 210.9Q396.0 215.0 396.0 221.4L396.0 221.4Q396.0 223.0 395.1 223.9Q394.2 224.8 392.6 224.8L392.6 224.8L374.3 224.8L374.3 225.0Q374.3 228.9 376.4 231.3Q378.5 233.6 382.0 233.6L382.0 233.6Q384.5 233.6 386.3 232.6Q388.0 231.7 389.8 229.4L389.8 229.4Q390.9 228.3 392.3 228.3L392.3 228.3Q393.5 228.3 394.4 229.0Q395.2 229.8 395.2 231.1L395.2 231.1Q395.2 231.9 394.7 232.9L394.7 232.9Q393.1 235.9 389.8 237.5Q386.5 239.2 382.1 239.2ZM374.3 220.0L374.3 220.0L388.8 220.0Q388.7 216.6 386.8 214.6Q384.8 212.5 381.7 212.5Q378.6 212.5 376.6 214.6Q374.5 216.7 374.3 220.0ZM407.0 248.6Q405.9 249.6 404.3 249.6Q402.7 249.6 401.7 248.6Q400.7 247.6 400.7 245.8L400.7 245.8L400.7 210.7Q400.7 208.9 401.7 207.9Q402.6 206.9 404.2 206.9L404.2 206.9Q405.8 206.9 406.8 207.9Q407.8 208.9 407.8 210.7L407.8 210.7L407.8 212.9L407.9 212.9Q409.3 210.1 411.8 208.6Q414.4 207.0 417.7 207.0L417.7 207.0Q423.6 207.0 427.1 211.3Q430.6 215.6 430.6 223.1L430.6 223.1Q430.6 230.5 427.2 234.8Q423.7 239.1 417.8 239.1L417.8 239.1Q414.5 239.1 412.0 237.6Q409.4 236.1 408.1 233.4L408.1 233.4L408.0 233.4L408.0 245.8Q408.0 247.6 407.0 248.6ZM415.5 233.1L415.5 233.1Q419.0 233.1 421.1 230.4Q423.1 227.7 423.1 223.1L423.1 223.1Q423.1 218.5 421.1 215.7Q419.0 213.0 415.5 213.0L415.5 213.0Q412.1 213.0 410.0 215.8Q407.9 218.5 407.9 223.1L407.9 223.1Q407.9 227.6 410.0 230.4Q412.1 233.1 415.5 233.1ZM437.3 230.9L437.3 230.9L437.3 213.1L435.4 213.1Q434.0 213.1 433.2 212.4Q432.4 211.6 432.4 210.3L432.4 210.3Q432.4 209.0 433.2 208.3Q434.0 207.5 435.4 207.5L435.4 207.5L437.3 207.5L437.3 203.4Q437.3 201.6 438.3 200.6Q439.3 199.6 441.0 199.6L441.0 199.6Q442.7 199.6 443.6 200.6Q444.6 201.6 444.6 203.4L444.6 203.4L444.6 207.5L448.0 207.5Q449.4 207.5 450.1 208.3Q450.9 209.0 450.9 210.3L450.9 210.3Q450.9 211.6 450.1 212.4Q449.3 213.1 448.0 213.1L448.0 213.1L444.6 213.1L444.6 229.3Q444.6 231.1 445.3 231.9Q446.0 232.7 447.5 232.9L447.5 232.9L448.1 232.9Q451.0 233.2 451.0 235.6L451.0 235.6Q451.0 237.2 449.7 238.1Q448.3 238.9 445.8 238.9L445.8 238.9L445.5 238.9Q437.3 238.9 437.3 230.9ZM462.1 202.0Q460.9 203.2 459.2 203.2Q457.5 203.2 456.4 202.0Q455.2 200.8 455.2 199.2L455.2 199.2Q455.2 197.5 456.4 196.4Q457.5 195.2 459.2 195.2L459.2 195.2Q461.0 195.2 462.1 196.4Q463.3 197.5 463.3 199.2L463.3 199.2Q463.3 200.8 462.1 202.0ZM461.9 238.1Q460.9 239.2 459.2 239.2Q457.6 239.2 456.6 238.1Q455.6 237.1 455.6 235.3L455.6 235.3L455.6 210.7Q455.6 209.0 456.6 207.9Q457.6 206.9 459.2 206.9Q460.9 206.9 461.9 207.9Q462.9 209.0 462.9 210.8L462.9 210.8L462.9 235.3Q462.9 237.1 461.9 238.1ZM493.7 234.9Q489.6 239.2 482.8 239.2Q475.9 239.2 471.8 234.9Q467.7 230.6 467.7 223.1L467.7 223.1Q467.7 215.6 471.8 211.2Q475.9 206.9 482.8 206.9L482.8 206.9Q489.6 206.9 493.7 211.2Q497.8 215.6 497.8 223.1L497.8 223.1Q497.8 230.6 493.7 234.9ZM477.2 230.7Q479.2 233.4 482.8 233.4Q486.3 233.4 488.3 230.7Q490.4 228.0 490.4 223.1L490.4 223.1Q490.4 218.2 488.3 215.4Q486.3 212.7 482.8 212.7L482.8 212.7Q479.3 212.7 477.2 215.4Q475.1 218.2 475.1 223.1L475.1 223.1Q475.1 228.0 477.2 230.7ZM508.8 238.2Q507.8 239.2 506.1 239.2Q504.5 239.2 503.5 238.2Q502.5 237.1 502.5 235.3L502.5 235.3L502.5 210.6Q502.5 208.9 503.4 207.9Q504.4 206.9 506.0 206.9Q507.6 206.9 508.6 207.9Q509.6 208.9 509.6 210.6L509.6 210.6L509.6 212.8L509.7 212.8Q512.4 206.9 519.4 206.9L519.4 206.9Q524.5 206.9 527.3 210.0Q530.1 213.1 530.1 218.5L530.1 218.5L530.1 235.3Q530.1 237.1 529.1 238.2Q528.1 239.2 526.5 239.2Q524.9 239.2 523.9 238.2Q522.8 237.1 522.8 235.3L522.8 235.3L522.8 220.0Q522.8 216.6 521.3 214.9Q519.7 213.1 516.6 213.1L516.6 213.1Q513.5 213.1 511.6 215.2Q509.8 217.2 509.8 220.6L509.8 220.6L509.8 235.3Q509.8 237.1 508.8 238.2Z M572.7 234.9Q568.6 239.2 561.7 239.2Q554.8 239.2 550.8 234.9Q546.7 230.6 546.7 223.1L546.7 223.1Q546.7 215.6 550.8 211.2Q554.9 206.9 561.7 206.9L561.7 206.9Q568.6 206.9 572.7 211.2Q576.7 215.6 576.7 223.1L576.7 223.1Q576.7 230.6 572.7 234.9ZM556.2 230.7Q558.2 233.4 561.7 233.4Q565.2 233.4 567.3 230.7Q569.3 228.0 569.3 223.1L569.3 223.1Q569.3 218.2 567.3 215.4Q565.2 212.7 561.7 212.7L561.7 212.7Q558.2 212.7 556.2 215.4Q554.1 218.2 554.1 223.1L554.1 223.1Q554.1 228.0 556.2 230.7ZM589.8 238.2Q588.8 239.2 587.1 239.2Q585.4 239.2 584.5 238.2Q583.5 237.2 583.5 235.4L583.5 235.4L583.5 213.1L581.5 213.1Q580.3 213.1 579.5 212.4Q578.7 211.7 578.7 210.4L578.7 210.4Q578.7 209.1 579.5 208.4Q580.3 207.6 581.5 207.6L581.5 207.6L583.5 207.6L583.5 204.9Q583.5 196.0 592.0 196.0L592.0 196.0Q594.8 196.0 596.2 196.8Q597.6 197.6 597.6 199.0L597.6 199.0Q597.6 200.7 596.0 201.1L596.0 201.1Q595.4 201.3 594.4 201.3L594.4 201.3Q592.4 201.4 591.5 202.3Q590.6 203.2 590.6 205.2L590.6 205.2L590.6 207.6L594.6 207.6Q595.8 207.6 596.6 208.4Q597.3 209.1 597.3 210.4L597.3 210.4Q597.3 211.7 596.6 212.4Q595.8 213.1 594.6 213.1L594.6 213.1L590.8 213.1L590.8 235.4Q590.8 237.2 589.8 238.2Z M620.9 238.1Q619.9 239.2 618.2 239.2Q616.4 239.2 615.4 238.1Q614.4 237.1 614.4 235.2L614.4 235.2L614.4 200.2Q614.4 198.4 615.4 197.3Q616.4 196.3 618.2 196.3L618.2 196.3L631.2 196.3Q638.0 196.3 641.9 199.8Q645.8 203.4 645.8 209.5L645.8 209.5Q645.8 213.6 643.8 216.8Q641.7 220.0 638.1 221.4L638.1 221.4L644.8 233.1Q645.6 234.5 645.6 235.7L645.6 235.7Q645.6 237.2 644.5 238.2Q643.4 239.2 641.8 239.2L641.8 239.2Q640.4 239.2 639.6 238.6Q638.8 238.0 637.9 236.4L637.9 236.4L630.4 222.7L622.0 222.7L622.0 235.2Q622.0 237.1 620.9 238.1ZM622.0 202.4L622.0 216.9L630.5 216.9Q634.1 216.9 636.1 215.0Q638.1 213.1 638.1 209.6L638.1 209.6Q638.1 206.3 636.0 204.4Q633.9 202.4 630.3 202.4L630.3 202.4L622.0 202.4ZM675.9 234.9Q671.8 239.2 664.9 239.2Q658.0 239.2 653.9 234.9Q649.9 230.6 649.9 223.1L649.9 223.1Q649.9 215.6 654.0 211.2Q658.1 206.9 664.9 206.9L664.9 206.9Q671.8 206.9 675.8 211.2Q679.9 215.6 679.9 223.1L679.9 223.1Q679.9 230.6 675.9 234.9ZM659.3 230.7Q661.4 233.4 664.9 233.4Q668.4 233.4 670.5 230.7Q672.5 228.0 672.5 223.1L672.5 223.1Q672.5 218.2 670.5 215.4Q668.4 212.7 664.9 212.7L664.9 212.7Q661.4 212.7 659.4 215.4Q657.3 218.2 657.3 223.1L657.3 223.1Q657.3 228.0 659.3 230.7ZM691.0 238.2Q690.0 239.2 688.4 239.2Q686.8 239.2 685.8 238.2Q684.8 237.3 684.8 235.5L684.8 235.5L684.8 199.6Q684.8 197.7 685.8 196.7Q686.8 195.7 688.5 195.7Q690.1 195.7 691.1 196.7Q692.1 197.7 692.1 199.6L692.1 199.6L692.1 212.9L692.3 212.9Q693.6 210.1 696.2 208.5Q698.7 207.0 702.0 207.0L702.0 207.0Q707.9 207.0 711.4 211.3Q714.8 215.6 714.8 223.1L714.8 223.1Q714.8 230.5 711.4 234.8Q707.9 239.1 702.0 239.1L702.0 239.1Q698.6 239.1 696.1 237.6Q693.5 236.0 692.1 233.3L692.1 233.3L692.0 233.3L692.0 235.5Q692.0 237.2 691.0 238.2ZM699.8 233.1L699.8 233.1Q703.3 233.1 705.3 230.4Q707.4 227.7 707.4 223.1Q707.4 218.4 705.3 215.7Q703.3 213.0 699.8 213.0L699.8 213.0Q696.4 213.0 694.2 215.8Q692.1 218.5 692.1 223.1L692.1 223.1Q692.1 227.6 694.2 230.3Q696.4 233.1 699.8 233.1ZM744.2 234.9Q740.1 239.2 733.3 239.2Q726.4 239.2 722.3 234.9Q718.2 230.6 718.2 223.1L718.2 223.1Q718.2 215.6 722.3 211.2Q726.4 206.9 733.3 206.9L733.3 206.9Q740.1 206.9 744.2 211.2Q748.3 215.6 748.3 223.1L748.3 223.1Q748.3 230.6 744.2 234.9ZM727.7 230.7Q729.7 233.4 733.3 233.4Q736.8 233.4 738.8 230.7Q740.9 228.0 740.9 223.1L740.9 223.1Q740.9 218.2 738.8 215.4Q736.8 212.7 733.3 212.7L733.3 212.7Q729.8 212.7 727.7 215.4Q725.6 218.2 725.6 223.1L725.6 223.1Q725.6 228.0 727.7 230.7ZM755.0 230.9L755.0 230.9L755.0 213.1L753.0 213.1Q751.7 213.1 750.9 212.4Q750.1 211.6 750.1 210.3L750.1 210.3Q750.1 209.0 750.9 208.3Q751.7 207.5 753.0 207.5L753.0 207.5L755.0 207.5L755.0 203.4Q755.0 201.6 756.0 200.6Q757.0 199.6 758.7 199.6L758.7 199.6Q760.3 199.6 761.3 200.6Q762.3 201.6 762.3 203.4L762.3 203.4L762.3 207.5L765.7 207.5Q767.0 207.5 767.8 208.3Q768.6 209.0 768.6 210.3L768.6 210.3Q768.6 211.6 767.8 212.4Q767.0 213.1 765.7 213.1L765.7 213.1L762.3 213.1L762.3 229.3Q762.3 231.1 763.0 231.9Q763.6 232.7 765.2 232.9L765.2 232.9L765.7 232.9Q768.7 233.2 768.7 235.6L768.7 235.6Q768.7 237.2 767.3 238.1Q766.0 238.9 763.5 238.9L763.5 238.9L763.2 238.9Q755.0 238.9 755.0 230.9Z M789.6 239.1L789.6 239.1Q787.9 239.1 786.9 238.0Q785.8 237.0 785.8 235.2L785.8 235.2L785.8 200.2Q785.8 198.4 786.9 197.3Q787.9 196.3 789.6 196.3L789.6 196.3L809.8 196.3Q811.4 196.3 812.4 197.2Q813.3 198.0 813.3 199.5Q813.3 201.0 812.3 201.8Q811.4 202.7 809.8 202.7L809.8 202.7L793.4 202.7L793.4 215.2L808.3 215.2Q809.8 215.2 810.7 216.0Q811.6 216.8 811.6 218.2Q811.6 219.7 810.7 220.5Q809.8 221.3 808.3 221.3L808.3 221.3L793.4 221.3L793.4 235.2Q793.4 237.0 792.4 238.1Q791.4 239.1 789.6 239.1ZM826.7 239.1L826.7 239.1Q822.1 239.1 819.2 236.5Q816.3 233.9 816.3 229.7L816.3 229.7Q816.3 225.6 819.3 223.2Q822.4 220.8 828.1 220.4L828.1 220.4L836.3 219.9L836.3 217.7Q836.3 215.3 834.8 213.9Q833.2 212.6 830.5 212.6L830.5 212.6Q828.3 212.6 826.9 213.4Q825.4 214.2 824.0 216.2L824.0 216.2Q822.9 217.7 821.1 217.7L821.1 217.7Q819.7 217.7 818.8 216.9Q818.0 216.1 818.0 214.8L818.0 214.8Q818.0 213.8 818.5 212.8L818.5 212.8Q819.6 210.1 823.0 208.5Q826.4 206.9 830.8 206.9L830.8 206.9Q836.6 206.9 840.1 209.7Q843.5 212.5 843.5 217.2L843.5 217.2L843.5 235.5Q843.5 237.2 842.5 238.2Q841.6 239.2 840.0 239.2L840.0 239.2Q838.5 239.2 837.5 238.3Q836.6 237.4 836.5 235.8L836.5 235.8L836.5 233.6L836.3 233.6Q835.0 236.1 832.4 237.6Q829.7 239.1 826.7 239.1ZM828.9 233.6L828.9 233.6Q832.0 233.6 834.2 231.7Q836.3 229.8 836.3 227.1L836.3 227.1L836.3 224.7L829.1 225.1Q826.5 225.3 825.0 226.4Q823.6 227.6 823.6 229.4L823.6 229.4Q823.6 231.3 825.0 232.4Q826.5 233.6 828.9 233.6ZM856.1 202.0Q854.9 203.2 853.2 203.2Q851.5 203.2 850.3 202.0Q849.2 200.8 849.2 199.2L849.2 199.2Q849.2 197.5 850.3 196.4Q851.5 195.2 853.2 195.2L853.2 195.2Q854.9 195.2 856.1 196.4Q857.3 197.5 857.3 199.2L857.3 199.2Q857.3 200.8 856.1 202.0ZM855.9 238.1Q854.9 239.2 853.2 239.2Q851.5 239.2 850.5 238.1Q849.6 237.1 849.6 235.3L849.6 235.3L849.6 210.7Q849.6 209.0 850.5 207.9Q851.5 206.9 853.2 206.9Q854.9 206.9 855.9 207.9Q856.9 209.0 856.9 210.8L856.9 210.8L856.9 235.3Q856.9 237.1 855.9 238.1ZM869.5 238.2Q868.5 239.2 866.8 239.2Q865.2 239.2 864.2 238.2Q863.2 237.1 863.2 235.3L863.2 235.3L863.2 199.6Q863.2 197.7 864.2 196.7Q865.2 195.7 866.8 195.7Q868.5 195.7 869.5 196.7Q870.5 197.7 870.5 199.6L870.5 199.6L870.5 235.3Q870.5 237.1 869.5 238.2ZM887.6 239.1L887.6 239.1Q882.5 239.1 879.5 236.0Q876.5 233.0 876.5 227.6L876.5 227.6L876.5 210.7Q876.5 209.0 877.5 207.9Q878.5 206.9 880.2 206.9Q881.8 206.9 882.8 207.9Q883.8 209.0 883.8 210.8L883.8 210.8L883.8 226.1Q883.8 229.5 885.4 231.2Q887.0 233.0 890.1 233.0L890.1 233.0Q893.2 233.0 895.1 230.9Q896.9 228.9 896.9 225.5L896.9 225.5L896.9 210.7Q896.9 209.0 897.9 207.9Q899.0 206.9 900.6 206.9L900.6 206.9Q902.2 206.9 903.2 207.9Q904.2 209.0 904.2 210.8L904.2 210.8L904.2 235.5Q904.2 237.2 903.3 238.2Q902.3 239.2 900.7 239.2L900.7 239.2Q899.1 239.2 898.2 238.2Q897.2 237.2 897.2 235.5L897.2 235.5L897.2 233.2L897.1 233.2Q894.5 239.1 887.6 239.1ZM916.5 238.1Q915.5 239.2 913.8 239.2Q912.1 239.2 911.2 238.1Q910.2 237.1 910.2 235.3L910.2 235.3L910.2 210.6Q910.2 208.9 911.1 207.9Q912.1 206.9 913.7 206.9L913.7 206.9Q915.2 206.9 916.2 207.9Q917.1 208.9 917.1 210.6L917.1 210.6L917.1 213.0L917.3 213.0Q917.9 210.3 919.7 208.6Q921.6 207.0 923.9 207.0L923.9 207.0Q925.6 207.0 926.5 207.8L926.5 207.8Q927.5 208.6 927.5 210.4L927.5 210.4Q927.5 212.1 926.4 213.0L926.4 213.0Q925.4 213.9 923.2 214.0L923.2 214.0Q917.5 214.0 917.5 220.4L917.5 220.4L917.5 235.3Q917.5 237.1 916.5 238.1ZM944.6 239.2L944.6 239.2Q937.5 239.2 933.5 235.0Q929.5 230.7 929.5 223.2L929.5 223.2Q929.5 215.7 933.5 211.3Q937.5 206.9 944.2 206.9L944.2 206.9Q950.5 206.9 954.5 210.9Q958.5 215.0 958.5 221.4L958.5 221.4Q958.5 223.0 957.6 223.9Q956.7 224.8 955.1 224.8L955.1 224.8L936.8 224.8L936.8 225.0Q936.8 228.9 938.9 231.3Q941.0 233.6 944.5 233.6L944.5 233.6Q947.0 233.6 948.8 232.6Q950.5 231.7 952.3 229.4L952.3 229.4Q953.4 228.3 954.8 228.3L954.8 228.3Q956.0 228.3 956.9 229.0Q957.7 229.8 957.7 231.1L957.7 231.1Q957.7 231.9 957.2 232.9L957.2 232.9Q955.6 235.9 952.3 237.5Q949.0 239.2 944.6 239.2ZM936.8 220.0L936.8 220.0L951.3 220.0Q951.2 216.6 949.3 214.6Q947.3 212.5 944.2 212.5Q941.1 212.5 939.1 214.6Q937.0 216.7 936.8 220.0Z M68.1 321.1L47.5 321.1Q45.7 321.1 44.7 320.0Q43.7 319.0 43.7 317.2L43.7 317.2L43.7 282.7Q43.7 280.9 44.7 279.8Q45.7 278.8 47.5 278.8L47.5 278.8L68.1 278.8Q69.7 278.8 70.6 279.7Q71.6 280.5 71.6 282.0Q71.6 283.5 70.6 284.3Q69.7 285.2 68.1 285.2L68.1 285.2L51.3 285.2L51.3 296.6L67.2 296.6Q68.7 296.6 69.6 297.4Q70.5 298.2 70.5 299.6Q70.5 301.0 69.6 301.8Q68.7 302.6 67.2 302.6L67.2 302.6L51.3 302.6L51.3 314.7L68.1 314.7Q69.7 314.7 70.6 315.6Q71.6 316.4 71.6 317.9Q71.6 319.3 70.6 320.2Q69.7 321.1 68.1 321.1L68.1 321.1ZM79.3 321.7L79.3 321.7Q77.8 321.7 76.9 320.8Q75.9 320.0 75.9 318.6L75.9 318.6Q75.9 317.5 76.8 316.2L76.8 316.2L84.7 305.6L76.9 294.9Q76.2 293.8 76.2 292.6L76.2 292.6Q76.2 291.2 77.2 290.3Q78.2 289.4 79.7 289.4L79.7 289.4Q80.7 289.4 81.4 289.8Q82.1 290.3 82.8 291.4L82.8 291.4L89.2 300.9L89.4 300.9L95.7 291.4Q96.4 290.3 97.1 289.9Q97.8 289.4 98.7 289.4L98.7 289.4Q100.3 289.4 101.2 290.3Q102.2 291.1 102.2 292.5L102.2 292.5Q102.2 293.7 101.3 294.9L101.3 294.9L93.6 305.4L101.3 316.2Q102.1 317.4 102.1 318.4L102.1 318.4Q102.1 319.9 101.1 320.8Q100.1 321.7 98.7 321.7L98.7 321.7Q96.9 321.7 95.8 319.9L95.8 319.9L89.0 309.9L88.9 309.9L82.2 319.8Q81.5 320.8 80.9 321.3Q80.2 321.7 79.3 321.7ZM113.6 331.1Q112.6 332.1 110.9 332.1Q109.3 332.1 108.3 331.1Q107.3 330.1 107.3 328.3L107.3 328.3L107.3 293.2Q107.3 291.4 108.3 290.4Q109.3 289.4 110.8 289.4L110.8 289.4Q112.5 289.4 113.4 290.4Q114.4 291.4 114.4 293.2L114.4 293.2L114.4 295.4L114.6 295.4Q115.9 292.6 118.5 291.1Q121.0 289.5 124.3 289.5L124.3 289.5Q130.3 289.5 133.8 293.8Q137.2 298.1 137.2 305.6L137.2 305.6Q137.2 313.0 133.8 317.3Q130.3 321.6 124.5 321.6L124.5 321.6Q121.1 321.6 118.6 320.1Q116.0 318.6 114.7 315.9L114.7 315.9L114.6 315.9L114.6 328.3Q114.6 330.1 113.6 331.1ZM122.1 315.6L122.1 315.6Q125.7 315.6 127.7 312.9Q129.8 310.2 129.8 305.6L129.8 305.6Q129.8 301.0 127.7 298.2Q125.6 295.5 122.1 295.5L122.1 295.5Q118.7 295.5 116.6 298.3Q114.6 301.0 114.5 305.6L114.5 305.6Q114.6 310.1 116.6 312.9Q118.7 315.6 122.1 315.6ZM148.4 320.7Q147.4 321.7 145.8 321.7Q144.2 321.7 143.1 320.7Q142.1 319.6 142.1 317.8L142.1 317.8L142.1 282.1Q142.1 280.2 143.1 279.2Q144.2 278.2 145.8 278.2Q147.4 278.2 148.4 279.2Q149.4 280.2 149.4 282.1L149.4 282.1L149.4 317.8Q149.4 319.6 148.4 320.7ZM164.7 321.6L164.7 321.6Q160.2 321.6 157.3 319.0Q154.4 316.4 154.4 312.2L154.4 312.2Q154.4 308.1 157.4 305.7Q160.5 303.3 166.2 302.9L166.2 302.9L174.4 302.4L174.4 300.2Q174.4 297.8 172.9 296.4Q171.3 295.1 168.6 295.1L168.6 295.1Q166.4 295.1 165.0 295.9Q163.5 296.7 162.1 298.7L162.1 298.7Q161.0 300.2 159.2 300.2L159.2 300.2Q157.8 300.2 156.9 299.4Q156.1 298.6 156.1 297.3L156.1 297.3Q156.1 296.3 156.6 295.3L156.6 295.3Q157.7 292.6 161.1 291.0Q164.5 289.4 168.9 289.4L168.9 289.4Q174.7 289.4 178.1 292.2Q181.6 295.0 181.6 299.7L181.6 299.7L181.6 318.0Q181.6 319.7 180.6 320.7Q179.7 321.7 178.1 321.7L178.1 321.7Q176.6 321.7 175.6 320.8Q174.7 319.9 174.6 318.3L174.6 318.3L174.6 316.1L174.4 316.1Q173.1 318.6 170.5 320.1Q167.8 321.6 164.7 321.6ZM167.0 316.1L167.0 316.1Q170.1 316.1 172.2 314.2Q174.4 312.3 174.4 309.6L174.4 309.6L174.4 307.2L167.2 307.6Q164.6 307.8 163.1 308.9Q161.7 310.1 161.7 311.9L161.7 311.9Q161.7 313.8 163.1 314.9Q164.6 316.1 167.0 316.1ZM193.8 320.7Q192.8 321.7 191.1 321.7Q189.5 321.7 188.5 320.7Q187.5 319.6 187.5 317.8L187.5 317.8L187.5 293.1Q187.5 291.4 188.4 290.4Q189.4 289.4 191.0 289.4Q192.6 289.4 193.6 290.4Q194.6 291.4 194.6 293.1L194.6 293.1L194.6 295.3L194.7 295.3Q197.4 289.4 204.4 289.4L204.4 289.4Q209.5 289.4 212.3 292.5Q215.1 295.6 215.1 301.0L215.1 301.0L215.1 317.8Q215.1 319.6 214.1 320.7Q213.1 321.7 211.5 321.7Q209.9 321.7 208.9 320.7Q207.8 319.6 207.8 317.8L207.8 317.8L207.8 302.5Q207.8 299.1 206.3 297.4Q204.7 295.6 201.6 295.6L201.6 295.6Q198.5 295.6 196.6 297.7Q194.8 299.7 194.8 303.1L194.8 303.1L194.8 317.8Q194.8 319.6 193.8 320.7ZM230.1 321.6L230.1 321.6Q225.5 321.6 222.6 319.0Q219.7 316.4 219.7 312.2L219.7 312.2Q219.7 308.1 222.8 305.7Q225.8 303.3 231.5 302.9L231.5 302.9L239.7 302.4L239.7 300.2Q239.7 297.8 238.2 296.4Q236.7 295.1 233.9 295.1L233.9 295.1Q231.8 295.1 230.3 295.9Q228.8 296.7 227.4 298.7L227.4 298.7Q226.3 300.2 224.5 300.2L224.5 300.2Q223.1 300.2 222.3 299.4Q221.4 298.6 221.4 297.3L221.4 297.3Q221.4 296.3 221.9 295.3L221.9 295.3Q223.1 292.6 226.4 291.0Q229.8 289.4 234.2 289.4L234.2 289.4Q240.0 289.4 243.5 292.2Q247.0 295.0 247.0 299.7L247.0 299.7L247.0 318.0Q247.0 319.7 246.0 320.7Q245.0 321.7 243.4 321.7L243.4 321.7Q241.9 321.7 240.9 320.8Q240.0 319.9 239.9 318.3L239.9 318.3L239.9 316.1L239.8 316.1Q238.5 318.6 235.8 320.1Q233.1 321.6 230.1 321.6ZM232.3 316.1L232.3 316.1Q235.4 316.1 237.6 314.2Q239.7 312.3 239.7 309.6L239.7 309.6L239.7 307.2L232.5 307.6Q229.9 307.8 228.5 308.9Q227.0 310.1 227.0 311.9L227.0 311.9Q227.0 313.8 228.5 314.9Q229.9 316.1 232.3 316.1ZM254.8 313.4L254.8 313.4L254.8 295.6L252.9 295.6Q251.5 295.6 250.7 294.9Q249.9 294.1 249.9 292.8L249.9 292.8Q249.9 291.5 250.7 290.8Q251.5 290.0 252.9 290.0L252.9 290.0L254.8 290.0L254.8 285.9Q254.8 284.1 255.8 283.1Q256.8 282.1 258.5 282.1L258.5 282.1Q260.2 282.1 261.1 283.1Q262.1 284.1 262.1 285.9L262.1 285.9L262.1 290.0L265.5 290.0Q266.9 290.0 267.7 290.8Q268.4 291.5 268.4 292.8L268.4 292.8Q268.4 294.1 267.6 294.9Q266.8 295.6 265.5 295.6L265.5 295.6L262.1 295.6L262.1 311.8Q262.1 313.6 262.8 314.4Q263.5 315.2 265.1 315.4L265.1 315.4L265.6 315.4Q268.5 315.7 268.5 318.1L268.5 318.1Q268.5 319.7 267.2 320.6Q265.8 321.4 263.3 321.4L263.3 321.4L263.0 321.4Q254.8 321.4 254.8 313.4ZM279.6 284.5Q278.4 285.7 276.7 285.7Q275.0 285.7 273.9 284.5Q272.7 283.3 272.7 281.7L272.7 281.7Q272.7 280.0 273.9 278.9Q275.0 277.7 276.7 277.7L276.7 277.7Q278.5 277.7 279.6 278.9Q280.8 280.0 280.8 281.7L280.8 281.7Q280.8 283.3 279.6 284.5ZM279.4 320.6Q278.4 321.7 276.7 321.7Q275.1 321.7 274.1 320.6Q273.1 319.6 273.1 317.8L273.1 317.8L273.1 293.2Q273.1 291.5 274.1 290.4Q275.1 289.4 276.7 289.4Q278.4 289.4 279.4 290.4Q280.4 291.5 280.4 293.3L280.4 293.3L280.4 317.8Q280.4 319.6 279.4 320.6ZM311.2 317.4Q307.2 321.7 300.3 321.7Q293.4 321.7 289.3 317.4Q285.2 313.1 285.2 305.6L285.2 305.6Q285.2 298.1 289.3 293.7Q293.4 289.4 300.3 289.4L300.3 289.4Q307.1 289.4 311.2 293.7Q315.3 298.1 315.3 305.6L315.3 305.6Q315.3 313.1 311.2 317.4ZM294.7 313.2Q296.8 315.9 300.3 315.9Q303.8 315.9 305.8 313.2Q307.9 310.5 307.9 305.6L307.9 305.6Q307.9 300.7 305.8 297.9Q303.8 295.2 300.3 295.2L300.3 295.2Q296.8 295.2 294.7 297.9Q292.7 300.7 292.7 305.6L292.7 305.6Q292.7 310.5 294.7 313.2ZM326.3 320.7Q325.3 321.7 323.6 321.7Q322.0 321.7 321.0 320.7Q320.0 319.6 320.0 317.8L320.0 317.8L320.0 293.1Q320.0 291.4 320.9 290.4Q321.9 289.4 323.5 289.4Q325.1 289.4 326.1 290.4Q327.1 291.4 327.1 293.1L327.1 293.1L327.1 295.3L327.2 295.3Q329.9 289.4 336.9 289.4L336.9 289.4Q342.0 289.4 344.8 292.5Q347.6 295.6 347.6 301.0L347.6 301.0L347.6 317.8Q347.6 319.6 346.7 320.7Q345.7 321.7 344.0 321.7Q342.4 321.7 341.4 320.7Q340.4 319.6 340.4 317.8L340.4 317.8L340.4 302.5Q340.4 299.1 338.8 297.4Q337.2 295.6 334.1 295.6L334.1 295.6Q331.0 295.6 329.1 297.7Q327.3 299.7 327.3 303.1L327.3 303.1L327.3 317.8Q327.3 319.6 326.3 320.7Z M381.7 321.1L370 321.1Q368.2 321.1 367.2 320.0Q366.2 319.0 366.2 317.2L366.2 317.2L366.2 282.7Q366.2 280.9 367.2 279.8Q368.2 278.8 370 278.8L370 278.8L381.7 278.8Q391.2 278.8 396.5 284.3Q401.8 289.8 401.8 299.8L401.8 299.8Q401.8 309.9 396.5 315.5Q391.2 321.1 381.7 321.1L381.7 321.1ZM373.8 285.2L373.8 314.7L380.9 314.7Q387.3 314.7 390.7 310.9Q394.1 307.1 394.1 299.9L394.1 299.9Q394.1 292.8 390.6 289.0Q387.2 285.2 380.9 285.2L380.9 285.2L373.8 285.2ZM417.9 321.6L417.9 321.6Q412.8 321.6 409.8 318.5Q406.9 315.5 406.9 310.1L406.9 310.1L406.9 293.2Q406.9 291.5 407.9 290.4Q408.8 289.4 410.5 289.4Q412.1 289.4 413.1 290.4Q414.2 291.5 414.2 293.3L414.2 293.3L414.2 308.6Q414.2 312.0 415.7 313.7Q417.3 315.5 420.4 315.5L420.4 315.5Q423.6 315.5 425.4 313.4Q427.2 311.4 427.2 308.0L427.2 308.0L427.2 293.2Q427.2 291.5 428.3 290.4Q429.3 289.4 430.9 289.4L430.9 289.4Q432.5 289.4 433.5 290.4Q434.5 291.5 434.5 293.3L434.5 293.3L434.5 318.0Q434.5 319.7 433.6 320.7Q432.6 321.7 431.1 321.7L431.1 321.7Q429.4 321.7 428.5 320.7Q427.5 319.7 427.5 318.0L427.5 318.0L427.5 315.7L427.4 315.7Q424.8 321.6 417.9 321.6ZM446.8 320.6Q445.8 321.7 444.1 321.7Q442.5 321.7 441.5 320.6Q440.5 319.6 440.5 317.8L440.5 317.8L440.5 293.1Q440.5 291.4 441.4 290.4Q442.4 289.4 444.0 289.4L444.0 289.4Q445.5 289.4 446.5 290.4Q447.4 291.4 447.4 293.1L447.4 293.1L447.4 295.5L447.6 295.5Q448.2 292.8 450.1 291.1Q451.9 289.5 454.2 289.5L454.2 289.5Q455.9 289.5 456.8 290.3L456.8 290.3Q457.8 291.1 457.8 292.9L457.8 292.9Q457.8 294.6 456.7 295.5L456.7 295.5Q455.7 296.4 453.5 296.5L453.5 296.5Q447.8 296.5 447.8 302.9L447.8 302.9L447.8 317.8Q447.8 319.6 446.8 320.6ZM467.8 284.5Q466.6 285.7 464.9 285.7Q463.2 285.7 462.1 284.5Q460.9 283.3 460.9 281.7L460.9 281.7Q460.9 280.0 462.1 278.9Q463.2 277.7 464.9 277.7L464.9 277.7Q466.7 277.7 467.8 278.9Q469.0 280.0 469.0 281.7L469.0 281.7Q469.0 283.3 467.8 284.5ZM467.6 320.6Q466.6 321.7 464.9 321.7Q463.3 321.7 462.3 320.6Q461.3 319.6 461.3 317.8L461.3 317.8L461.3 293.2Q461.3 291.5 462.3 290.4Q463.3 289.4 464.9 289.4Q466.6 289.4 467.6 290.4Q468.6 291.5 468.6 293.3L468.6 293.3L468.6 317.8Q468.6 319.6 467.6 320.6ZM481.0 320.7Q480.0 321.7 478.3 321.7Q476.7 321.7 475.7 320.7Q474.7 319.6 474.7 317.8L474.7 317.8L474.7 293.1Q474.7 291.4 475.6 290.4Q476.6 289.4 478.2 289.4Q479.8 289.4 480.8 290.4Q481.8 291.4 481.8 293.1L481.8 293.1L481.8 295.3L481.9 295.3Q484.6 289.4 491.6 289.4L491.6 289.4Q496.7 289.4 499.5 292.5Q502.4 295.6 502.4 301.0L502.4 301.0L502.4 317.8Q502.4 319.6 501.4 320.7Q500.4 321.7 498.7 321.7Q497.1 321.7 496.1 320.7Q495.1 319.6 495.1 317.8L495.1 317.8L495.1 302.5Q495.1 299.1 493.5 297.4Q491.9 295.6 488.9 295.6L488.9 295.6Q485.7 295.6 483.9 297.7Q482.0 299.7 482.0 303.1L482.0 303.1L482.0 317.8Q482.0 319.6 481.0 320.7ZM521.6 332.8L521.6 332.8Q517.2 332.7 513.9 331.2Q510.6 329.7 509.0 327.1L509.0 327.1Q508.4 326.1 508.4 324.9L508.4 324.9Q508.4 323.7 509.2 322.9Q510.0 322.1 511.4 322.1L511.4 322.1Q512.8 322.1 514.1 323.3L514.1 323.3Q516.0 325.2 517.7 326.1Q519.5 326.9 521.6 327.0L521.6 327.0Q525.3 327.0 527.4 325.1Q529.6 323.2 529.6 320.1L529.6 320.1L529.6 315.2L529.4 315.2Q528.2 317.7 525.6 319.2Q523.0 320.8 519.7 320.8L519.7 320.8Q513.8 320.8 510.4 316.5Q506.9 312.3 506.9 305.2L506.9 305.2Q506.9 297.9 510.4 293.7Q513.8 289.5 519.8 289.5L519.8 289.5Q523.1 289.5 525.6 291.0Q528.1 292.6 529.5 295.3L529.5 295.3L529.6 295.3L529.6 293.1Q529.6 291.4 530.6 290.4Q531.6 289.4 533.2 289.4Q534.9 289.4 535.9 290.4Q536.9 291.4 536.9 293.1L536.9 293.1L536.9 320.1Q536.9 326.0 532.8 329.4Q528.7 332.8 521.6 332.8ZM521.9 315.1L521.9 315.1Q525.4 315.1 527.5 312.4Q529.6 309.8 529.6 305.2L529.6 305.2Q529.6 300.7 527.5 298.0Q525.4 295.3 521.9 295.3L521.9 295.3Q518.4 295.3 516.4 298.0Q514.4 300.7 514.4 305.2L514.4 305.2Q514.4 309.8 516.4 312.5Q518.4 315.1 521.9 315.1Z M563.9 321.6L563.9 321.6Q559.4 321.6 556.5 319.0Q553.6 316.4 553.6 312.2L553.6 312.2Q553.6 308.1 556.6 305.7Q559.7 303.3 565.4 302.9L565.4 302.9L573.6 302.4L573.6 300.2Q573.6 297.8 572.1 296.4Q570.5 295.1 567.8 295.1L567.8 295.1Q565.6 295.1 564.2 295.9Q562.7 296.7 561.3 298.7L561.3 298.7Q560.2 300.2 558.3 300.2L558.3 300.2Q557.0 300.2 556.1 299.4Q555.3 298.6 555.3 297.3L555.3 297.3Q555.3 296.3 555.8 295.3L555.8 295.3Q556.9 292.6 560.3 291.0Q563.7 289.4 568.1 289.4L568.1 289.4Q573.9 289.4 577.3 292.2Q580.8 295.0 580.8 299.7L580.8 299.7L580.8 318.0Q580.8 319.7 579.8 320.7Q578.9 321.7 577.3 321.7L577.3 321.7Q575.8 321.7 574.8 320.8Q573.9 319.9 573.8 318.3L573.8 318.3L573.8 316.1L573.6 316.1Q572.3 318.6 569.7 320.1Q567.0 321.6 563.9 321.6ZM566.2 316.1L566.2 316.1Q569.3 316.1 571.4 314.2Q573.6 312.3 573.6 309.6L573.6 309.6L573.6 307.2L566.4 307.6Q563.8 307.8 562.3 308.9Q560.9 310.1 560.9 311.9L560.9 311.9Q560.9 313.8 562.3 314.9Q563.8 316.1 566.2 316.1Z M603.2 321.6L603.2 321.6Q601.4 321.6 600.4 320.5Q599.4 319.5 599.4 317.7L599.4 317.7L599.4 282.7Q599.4 280.9 600.4 279.8Q601.4 278.8 603.2 278.8L603.2 278.8L615.9 278.8Q622.2 278.8 626.1 282.7Q630.1 286.6 630.1 293.0L630.1 293.0Q630.1 299.3 626.0 303.2Q622.0 307.1 615.5 307.1L615.5 307.1L607.0 307.1L607.0 317.7Q607.0 319.5 606.0 320.6Q605.0 321.6 603.2 321.6ZM607.0 285.0L607.0 301.0L613.8 301.0Q617.9 301.0 620.2 298.9Q622.4 296.8 622.4 293.0L622.4 293.0Q622.4 289.1 620.2 287.1Q617.9 285.0 613.9 285.0L613.9 285.0L607.0 285.0ZM641.6 284.5Q640.4 285.7 638.7 285.7Q637.0 285.7 635.8 284.5Q634.6 283.3 634.6 281.7L634.6 281.7Q634.6 280.0 635.8 278.9Q637.0 277.7 638.7 277.7L638.7 277.7Q640.4 277.7 641.6 278.9Q642.8 280.0 642.8 281.7L642.8 281.7Q642.8 283.3 641.6 284.5ZM641.3 320.6Q640.4 321.7 638.7 321.7Q637.0 321.7 636.0 320.6Q635.0 319.6 635.0 317.8L635.0 317.8L635.0 293.2Q635.0 291.5 636.0 290.4Q637.0 289.4 638.7 289.4Q640.4 289.4 641.3 290.4Q642.3 291.5 642.3 293.3L642.3 293.3L642.3 317.8Q642.3 319.6 641.3 320.6ZM662.1 321.7L662.1 321.7Q655.3 321.7 651.2 317.4Q647.2 313.0 647.2 305.6L647.2 305.6Q647.2 298.2 651.2 293.8Q655.3 289.4 662.1 289.4L662.1 289.4Q666.6 289.4 670.2 291.5Q673.7 293.6 674.8 296.9L674.8 296.9Q675.2 297.9 675.2 298.6L675.2 298.6Q675.2 300.0 674.3 300.8Q673.4 301.6 672.1 301.6L672.1 301.6Q671.0 301.6 670.3 301.1Q669.5 300.6 668.9 299.5L668.9 299.5Q666.6 295.3 662.3 295.3L662.3 295.3Q658.8 295.3 656.7 298.1Q654.6 300.8 654.6 305.6L654.6 305.6Q654.6 310.4 656.7 313.1Q658.7 315.8 662.2 315.8L662.2 315.8Q666.6 315.8 668.9 311.8L668.9 311.8Q669.6 310.6 670.3 310.1Q671.1 309.6 672.2 309.6L672.2 309.6Q673.5 309.6 674.4 310.4Q675.3 311.2 675.3 312.6L675.3 312.6Q675.3 313.4 674.9 314.4L674.9 314.4Q673.5 317.6 670.0 319.7Q666.5 321.7 662.1 321.7ZM686.7 320.7Q685.7 321.7 684.1 321.7Q682.4 321.7 681.4 320.7Q680.4 319.6 680.4 317.8L680.4 317.8L680.4 282.1Q680.4 280.2 681.4 279.2Q682.4 278.2 684.1 278.2Q685.7 278.2 686.7 279.2Q687.7 280.2 687.7 282.1L687.7 282.1L687.7 302.9L687.8 302.9L700.0 290.8Q701.3 289.4 702.8 289.4L702.8 289.4Q704.2 289.4 705.1 290.3Q706.0 291.2 706.0 292.5L706.0 292.5Q706.0 294.0 704.7 295.2L704.7 295.2L695.8 303.6L705.6 315.8Q706.6 317.2 706.6 318.4L706.6 318.4Q706.6 319.8 705.6 320.8Q704.6 321.7 703.1 321.7L703.1 321.7Q702.0 321.7 701.3 321.2Q700.6 320.8 699.8 319.6L699.8 319.6L690.4 307.8L687.7 310.4L687.7 317.8Q687.7 319.6 686.7 320.7Z M732.4 321.6L732.4 321.6Q727.9 321.6 725.0 319.0Q722.1 316.4 722.1 312.2L722.1 312.2Q722.1 308.1 725.1 305.7Q728.2 303.3 733.9 302.9L733.9 302.9L742.1 302.4L742.1 300.2Q742.1 297.8 740.6 296.4Q739.0 295.1 736.3 295.1L736.3 295.1Q734.1 295.1 732.6 295.9Q731.1 296.7 729.8 298.7L729.8 298.7Q728.7 300.2 726.8 300.2L726.8 300.2Q725.5 300.2 724.6 299.4Q723.8 298.6 723.8 297.3L723.8 297.3Q723.8 296.3 724.3 295.3L724.3 295.3Q725.4 292.6 728.8 291.0Q732.1 289.4 736.6 289.4L736.6 289.4Q742.4 289.4 745.8 292.2Q749.3 295.0 749.3 299.7L749.3 299.7L749.3 318.0Q749.3 319.7 748.3 320.7Q747.3 321.7 745.8 321.7L745.8 321.7Q744.2 321.7 743.3 320.8Q742.4 319.9 742.3 318.3L742.3 318.3L742.3 316.1L742.1 316.1Q740.8 318.6 738.1 320.1Q735.5 321.6 732.4 321.6ZM734.7 316.1L734.7 316.1Q737.8 316.1 739.9 314.2Q742.1 312.3 742.1 309.6L742.1 309.6L742.1 307.2L734.9 307.6Q732.3 307.8 730.8 308.9Q729.4 310.1 729.4 311.9L729.4 311.9Q729.4 313.8 730.8 314.9Q732.3 316.1 734.7 316.1ZM761.5 320.7Q760.4 321.7 758.8 321.7Q757.2 321.7 756.2 320.7Q755.2 319.6 755.2 317.8L755.2 317.8L755.2 293.1Q755.2 291.4 756.1 290.4Q757.0 289.4 758.7 289.4Q760.3 289.4 761.3 290.4Q762.3 291.4 762.3 293.1L762.3 293.1L762.3 295.3L762.4 295.3Q765.0 289.4 772.1 289.4L772.1 289.4Q777.2 289.4 780.0 292.5Q782.8 295.6 782.8 301.0L782.8 301.0L782.8 317.8Q782.8 319.6 781.8 320.7Q780.8 321.7 779.2 321.7Q777.5 321.7 776.5 320.7Q775.5 319.6 775.5 317.8L775.5 317.8L775.5 302.5Q775.5 299.1 774.0 297.4Q772.4 295.6 769.3 295.6L769.3 295.6Q766.2 295.6 764.3 297.7Q762.5 299.7 762.5 303.1L762.5 303.1L762.5 317.8Q762.5 319.6 761.5 320.7ZM800.3 321.6L800.3 321.6Q794.4 321.6 790.9 317.2Q787.4 312.9 787.4 305.5L787.4 305.5Q787.4 298.2 790.9 293.8Q794.4 289.5 800.3 289.5L800.3 289.5Q803.5 289.5 806.1 291.0Q808.6 292.6 809.9 295.2L809.9 295.2L810.0 295.2L810.0 282.1Q810.0 280.2 811.0 279.2Q812.0 278.2 813.7 278.2Q815.3 278.2 816.3 279.2Q817.3 280.2 817.3 282.1L817.3 282.1L817.3 318.0Q817.3 319.7 816.3 320.7Q815.3 321.7 813.7 321.7L813.7 321.7Q812.1 321.7 811.1 320.7Q810.0 319.7 810.0 318.0L810.0 318.0L810.0 315.6L809.9 315.6Q808.7 318.4 806.2 320.0Q803.8 321.6 800.3 321.6ZM802.5 315.6L802.5 315.6Q805.9 315.6 808.0 312.9Q810.1 310.2 810.1 305.6L810.1 305.6Q810.1 301.0 808.0 298.2Q805.9 295.5 802.5 295.5L802.5 295.5Q798.9 295.5 796.9 298.2Q794.8 300.9 794.8 305.6L794.8 305.6Q794.8 310.2 796.9 312.9Q798.9 315.6 802.5 315.6Z M840.0 321.6L840.0 321.6Q838.2 321.6 837.2 320.5Q836.2 319.5 836.2 317.7L836.2 317.7L836.2 282.7Q836.2 280.9 837.2 279.8Q838.2 278.8 840.0 278.8L840.0 278.8L852.6 278.8Q859.0 278.8 862.9 282.7Q866.9 286.6 866.9 293.0L866.9 293.0Q866.9 299.3 862.8 303.2Q858.8 307.1 852.3 307.1L852.3 307.1L843.8 307.1L843.8 317.7Q843.8 319.5 842.8 320.6Q841.8 321.6 840.0 321.6ZM843.8 285.0L843.8 301.0L850.6 301.0Q854.7 301.0 856.9 298.9Q859.2 296.8 859.2 293.0L859.2 293.0Q859.2 289.1 857.0 287.1Q854.7 285.0 850.6 285.0L850.6 285.0L843.8 285.0ZM878.2 320.7Q877.2 321.7 875.5 321.7Q873.9 321.7 872.9 320.7Q871.9 319.6 871.9 317.8L871.9 317.8L871.9 282.1Q871.9 280.2 872.9 279.2Q873.9 278.2 875.5 278.2Q877.2 278.2 878.2 279.2Q879.2 280.2 879.2 282.1L879.2 282.1L879.2 317.8Q879.2 319.6 878.2 320.7ZM894.5 321.6L894.5 321.6Q889.9 321.6 887.0 319.0Q884.1 316.4 884.1 312.2L884.1 312.2Q884.1 308.1 887.2 305.7Q890.2 303.3 895.9 302.9L895.9 302.9L904.1 302.4L904.1 300.2Q904.1 297.8 902.6 296.4Q901.1 295.1 898.3 295.1L898.3 295.1Q896.2 295.1 894.7 295.9Q893.2 296.7 891.8 298.7L891.8 298.7Q890.7 300.2 888.9 300.2L888.9 300.2Q887.5 300.2 886.7 299.4Q885.8 298.6 885.8 297.3L885.8 297.3Q885.8 296.3 886.3 295.3L886.3 295.3Q887.5 292.6 890.8 291.0Q894.2 289.4 898.6 289.4L898.6 289.4Q904.4 289.4 907.9 292.2Q911.3 295.0 911.3 299.7L911.3 299.7L911.3 318.0Q911.3 319.7 910.4 320.7Q909.4 321.7 907.8 321.7L907.8 321.7Q906.3 321.7 905.3 320.8Q904.4 319.9 904.3 318.3L904.3 318.3L904.3 316.1L904.2 316.1Q902.9 318.6 900.2 320.1Q897.5 321.6 894.5 321.6ZM896.7 316.1L896.7 316.1Q899.8 316.1 902.0 314.2Q904.1 312.3 904.1 309.6L904.1 309.6L904.1 307.2L896.9 307.6Q894.3 307.8 892.8 308.9Q891.4 310.1 891.4 311.9L891.4 311.9Q891.4 313.8 892.8 314.9Q894.3 316.1 896.7 316.1ZM930.9 321.7L930.9 321.7Q924.0 321.7 920.0 317.4Q915.9 313.0 915.9 305.6L915.9 305.6Q915.9 298.2 920.0 293.8Q924.0 289.4 930.8 289.4L930.8 289.4Q935.3 289.4 938.9 291.5Q942.5 293.6 943.6 296.9L943.6 296.9Q944.0 297.9 944.0 298.6L944.0 298.6Q944.0 300.0 943.1 300.8Q942.2 301.6 940.8 301.6L940.8 301.6Q939.7 301.6 939.0 301.1Q938.3 300.6 937.6 299.5L937.6 299.5Q935.3 295.3 931.0 295.3L931.0 295.3Q927.5 295.3 925.4 298.1Q923.3 300.8 923.3 305.6L923.3 305.6Q923.3 310.4 925.4 313.1Q927.5 315.8 931.0 315.8L931.0 315.8Q935.3 315.8 937.6 311.8L937.6 311.8Q938.4 310.6 939.1 310.1Q939.8 309.6 941.0 309.6L941.0 309.6Q942.3 309.6 943.2 310.4Q944.0 311.2 944.0 312.6L944.0 312.6Q944.0 313.4 943.6 314.4L943.6 314.4Q942.3 317.6 938.8 319.7Q935.2 321.7 930.9 321.7ZM962.7 321.7L962.7 321.7Q955.6 321.7 951.6 317.5Q947.6 313.2 947.6 305.7L947.6 305.7Q947.6 298.2 951.6 293.8Q955.6 289.4 962.3 289.4L962.3 289.4Q968.7 289.4 972.7 293.4Q976.6 297.5 976.6 303.9L976.6 303.9Q976.6 305.5 975.7 306.4Q974.8 307.3 973.2 307.3L973.2 307.3L954.9 307.3L954.9 307.5Q954.9 311.4 957.0 313.8Q959.1 316.1 962.7 316.1L962.7 316.1Q965.1 316.1 966.9 315.1Q968.7 314.2 970.4 311.9L970.4 311.9Q971.5 310.8 972.9 310.8L972.9 310.8Q974.2 310.8 975.0 311.5Q975.8 312.3 975.8 313.6L975.8 313.6Q975.8 314.4 975.3 315.4L975.3 315.4Q973.8 318.4 970.5 320.0Q967.2 321.7 962.7 321.7ZM955.0 302.5L955.0 302.5L969.5 302.5Q969.4 299.1 967.4 297.1Q965.4 295.0 962.4 295.0Q959.3 295.0 957.2 297.1Q955.2 299.2 955.0 302.5Z M1008.1 321.6L1008.1 321.6Q1006.4 321.6 1005.4 320.6Q1004.4 319.5 1004.4 317.7L1004.4 317.7L1004.4 285.2L994.7 285.2Q993.2 285.2 992.2 284.3Q991.3 283.5 991.3 282.0Q991.3 280.5 992.2 279.7Q993.1 278.8 994.7 278.8L994.7 278.8L1021.6 278.8Q1023.2 278.8 1024.1 279.7Q1025.0 280.5 1025.0 282.0Q1025.0 283.5 1024.1 284.3Q1023.1 285.2 1021.6 285.2L1021.6 285.2L1011.9 285.2L1011.9 317.7Q1011.9 319.5 1010.9 320.6Q1009.9 321.6 1008.1 321.6ZM1038.1 321.6L1038.1 321.6Q1033.5 321.6 1030.6 319.0Q1027.7 316.4 1027.7 312.2L1027.7 312.2Q1027.7 308.1 1030.8 305.7Q1033.8 303.3 1039.5 302.9L1039.5 302.9L1047.8 302.4L1047.8 300.2Q1047.8 297.8 1046.2 296.4Q1044.7 295.1 1042.0 295.1L1042.0 295.1Q1039.8 295.1 1038.3 295.9Q1036.8 296.7 1035.4 298.7L1035.4 298.7Q1034.3 300.2 1032.5 300.2L1032.5 300.2Q1031.1 300.2 1030.3 299.4Q1029.4 298.6 1029.4 297.3L1029.4 297.3Q1029.4 296.3 1029.9 295.3L1029.9 295.3Q1031.1 292.6 1034.4 291.0Q1037.8 289.4 1042.2 289.4L1042.2 289.4Q1048.0 289.4 1051.5 292.2Q1055.0 295.0 1055.0 299.7L1055.0 299.7L1055.0 318.0Q1055.0 319.7 1054.0 320.7Q1053.0 321.7 1051.4 321.7L1051.4 321.7Q1049.9 321.7 1049.0 320.8Q1048.0 319.9 1047.9 318.3L1047.9 318.3L1047.9 316.1L1047.8 316.1Q1046.5 318.6 1043.8 320.1Q1041.1 321.6 1038.1 321.6ZM1040.3 316.1L1040.3 316.1Q1043.4 316.1 1045.6 314.2Q1047.8 312.3 1047.8 309.6L1047.8 309.6L1047.8 307.2L1040.5 307.6Q1037.9 307.8 1036.5 308.9Q1035.0 310.1 1035.0 311.9L1035.0 311.9Q1035.0 313.8 1036.5 314.9Q1037.9 316.1 1040.3 316.1ZM1072.8 321.7L1072.8 321.7Q1068.0 321.7 1064.6 320.0Q1061.3 318.3 1060.1 315.5L1060.1 315.5Q1059.9 314.7 1059.9 314.0L1059.9 314.0Q1059.9 312.7 1060.7 311.9Q1061.6 311.1 1062.9 311.1L1062.9 311.1Q1064.7 311.1 1066.1 312.9L1066.1 312.9Q1067.3 314.8 1068.9 315.6Q1070.5 316.4 1073.1 316.4L1073.1 316.4Q1075.6 316.4 1077.2 315.4Q1078.7 314.3 1078.7 312.6L1078.7 312.6Q1078.7 311.2 1077.7 310.3Q1076.7 309.5 1074.4 308.9L1074.4 308.9L1069.3 307.8Q1060.3 305.8 1060.3 298.9L1060.3 298.9Q1060.3 294.6 1063.7 292.0Q1067.2 289.4 1072.9 289.4L1072.9 289.4Q1077.3 289.4 1080.5 291.3Q1083.8 293.1 1084.5 295.9L1084.5 295.9Q1084.6 296.5 1084.6 297.0L1084.6 297.0Q1084.6 298.1 1083.9 298.9Q1083.2 299.6 1081.8 299.6L1081.8 299.6Q1080.0 299.6 1079.0 298.2L1079.0 298.2Q1077.9 296.5 1076.4 295.6Q1074.9 294.7 1072.7 294.7L1072.7 294.7Q1070.3 294.7 1068.8 295.8Q1067.4 296.8 1067.4 298.5L1067.4 298.5Q1067.4 301.3 1071.9 302.3L1071.9 302.3L1076.9 303.4Q1081.8 304.5 1083.9 306.4Q1086.0 308.4 1086.0 311.8L1086.0 311.8Q1086.0 316.3 1082.4 319.0Q1078.8 321.7 1072.8 321.7ZM1097.1 320.7Q1096.2 321.7 1094.5 321.7Q1092.9 321.7 1091.9 320.7Q1090.8 319.6 1090.8 317.8L1090.8 317.8L1090.8 282.1Q1090.8 280.2 1091.9 279.2Q1092.9 278.2 1094.5 278.2Q1096.2 278.2 1097.1 279.2Q1098.1 280.2 1098.1 282.1L1098.1 282.1L1098.1 302.9L1098.2 302.9L1110.4 290.8Q1111.7 289.4 1113.3 289.4L1113.3 289.4Q1114.6 289.4 1115.5 290.3Q1116.5 291.2 1116.5 292.5L1116.5 292.5Q1116.5 294.0 1115.1 295.2L1115.1 295.2L1106.3 303.6L1116.0 315.8Q1117.0 317.2 1117.0 318.4L1117.0 318.4Q1117.0 319.8 1116.0 320.8Q1115.1 321.7 1113.6 321.7L1113.6 321.7Q1112.5 321.7 1111.7 321.2Q1111.0 320.8 1110.2 319.6L1110.2 319.6L1100.9 307.8L1098.1 310.4L1098.1 317.8Q1098.1 319.6 1097.1 320.7Z "/><defs><clipPath id="satori_bc-id-0-1"><rect x="0" y="441" width="1200" height="189"/></clipPath></defs><mask id="satori_om-id-0-1"><rect x="0" y="442" width="1200" height="188" fill="#fff"/><path width="1200" height="189" fill="none" stroke="#000" stroke-width="2" d="M0,441 A0,0 0 0 1 0,441 h1200 A0,0 0 0 1 1200,441"/></mask><path width="1200" height="189" clip-path="url(#satori_bc-id-0-1)" fill="none" stroke="#dbdbdb" stroke-width="2" d="M0,441 A0,0 0 0 1 0,441 h1200 A0,0 0 0 1 1200,441"/><mask id="satori_om-id-0-1-0"><rect x="40" y="482" width="389" height="108" fill="#fff"/></mask><clipPath id="satori_cp-id-0-1-0-0"><rect x="40" y="504" width="64" height="64"/></clipPath><mask id="satori_om-id-0-1-0-0"><rect x="40" y="504" width="64" height="64" fill="#fff"/></mask><image x="40" y="504" width="64" height="64" href="data:image/svg+xml;utf8,%3Csvg  xmlns=%22http://www.w3.org/2000/svg%22 width=%2264%22 height=%2264%22 viewBox=%220 0 128 128%22%3E%3Cpath fill=%22%23224d67%22 d=%22M22.5 14.8c2.9 1.3 99 44 99 44c2.7 1.2 2.9 3.1 2 12.4c-1 10.5-1.9 37.8-40.2 42.9c-24.6 3.2-55.9-4.3-70.9-27.2C-6 58.8 11 23.4 14.8 17.7c2.4-3.5 4.8-4.2 7.7-2.9%22%3E%3C/path%3E%3Cpath fill=%22%23f0f4c3%22 d=%22M121.5 58.8c-.3-.2-92-40.8-98.9-43.9C9.6 31.5-3.8 76 27.9 96.2c33.6 21.5 78.7-10.2 93.6-37.4%22%3E%3C/path%3E%3Cpath fill=%22%23f0f4c3%22 d=%22M117.7 57c-.3-.2-86.7-38.4-93.2-41.3c-12.2 15.5-23.9 59.1 5.7 78c31.4 20.2 73.6-11.2 87.5-36.7%22%3E%3C/path%3E%3Cpath fill=%22%23cb2a42%22 d=%22M56.2 37.6L19.5 48.2c-2.5.8-4.4 2.8-5 5.3c-1.9 8.5.8 23.3 8.9 29.8c3.5 2.7 8.6 1.8 10.8-2.1L58.5 41c1.3-1.7.5-4.2-2.3-3.4m14.3 2.9s14.6 30.1 16 33s6.3 4.7 9.9 2.8c10.7-5.6 15.5-12.4 19.2-20.2c-8.9-3.9-42.4-18.8-42.4-18.8c-2.4-1.1-4 .6-2.7 3.2m-8.6 1.9C60.3 45.1 39.5 81 37.6 84.1c-1.9 3.2-.7 7.5 2.7 9.2c12.3 6.5 30.9.4 39.6-7c2.2-1.9 4.5-5.1 3.2-8.2S68.9 44.6 67.8 42.3c-1.2-2.7-4.1-2.8-5.9.1%22%3E%3C/path%3E%3Cpath fill=%22%23f0f4c3%22 d=%22M52.2 42.2c-1.4.4-10.1 3-11.1 3.4c-1.4.5-2.2 1.7-1.9 2.5c.3.9 1.7 1.1 3.1.6c.8-.3 7.1-3.9 9.5-5.2c-3.1 2.4-10.2 9.4-11.1 10.3c-1.4 1.5-1.7 3.4-.8 4.3c1 .9 2.9.5 4.3-1c1.2-1.3 8.5-12.8 9.1-13.9s.4-1.4-1.1-1m10.1 16.4c0-2.2 1.4-10.3 1.8-12.3c.4-1.6 1.5-1.8 1.8.5s1.7 9.7 1.7 11.8s-1.2 3.3-2.7 3.3c-1.4 0-2.6-1.1-2.6-3.3M79.9 49c-1.2-1.8-3.3-4.9-4.1-6.1c-.7-1.2.1-2.1 1.8-.9s4 2.9 5.4 4c1.6 1.3 1.9 3 .8 4s-2.7.8-3.9-1%22%3E%3C/path%3E%3Cellipse cx=%2287.3%22 cy=%22103.12%22 fill=%22%23cb2a42%22 rx=%223.4%22 ry=%222.3%22 transform=%22rotate(-27.098 87.298 103.126)%22%3E%3C/ellipse%3E%3Cellipse cx=%2298.89%22 cy=%22103.82%22 fill=%22%23cb2a42%22 rx=%223.4%22 ry=%222.3%22 transform=%22rotate(-30.642 98.887 103.818)%22%3E%3C/ellipse%3E%3Cellipse cx=%22102.02%22 cy=%2293.8%22 fill=%22%23cb2a42%22 rx=%223.4%22 ry=%222.3%22 transform=%22rotate(-37.16 102.017 93.797)%22%3E%3C/ellipse%3E%3Cpath fill=%22%23cb2a42%22 d=%22M57.6 30.3c-8.3-3.7-24.4-10.7-29.6-13c-3.6 2.2-9.7 11.4-11.2 21.2c-.6 3.6 1.7 5.9 5.3 4.9c0 0 33.7-9.3 35.3-9.7c1.6-.5 2-2.6.2-3.4%22%3E%3C/path%3E%3C/svg%3E" preserveAspectRatio="none" clip-path="url(#satori_cp-id-0-1-0-0)" mask="url(#satori_om-id-0-1-0-0)"/><mask id="satori_om-id-0-1-0-0-0"><rect x="40" y="504" width="0" height="64" fill="#fff"/></mask><mask id="satori_om-id-0-1-0-0-1"><rect x="40" y="504" width="0" height="64" fill="#fff"/></mask><mask id="satori_om-id-0-1-0-0-2"><rect x="40" y="504" width="0" height="64" fill="#fff"/></mask><mask id="satori_om-id-0-1-0-0-3"><rect x="40" y="504" width="0" height="64" fill="#fff"/></mask><mask id="satori_om-id-0-1-0-0-4"><rect x="40" y="504" width="0" height="64" fill="#fff"/></mask><mask id="satori_om-id-0-1-0-0-5"><rect x="40" y="504" width="0" height="64" fill="#fff"/></mask><mask id="satori_om-id-0-1-0-0-6"><rect x="40" y="504" width="0" height="64" fill="#fff"/></mask><mask id="satori_om-id-0-1-0-0-7"><rect x="40" y="504" width="0" height="64" fill="#fff"/></mask><mask id="satori_om-id-0-1-0-0-8"><rect x="40" y="504" width="0" height="64" fill="#fff"/></mask><mask id="satori_om-id-0-1-0-1"><rect x="116" y="512" width="313" height="48" fill="#fff"/></mask><path fill="#545454" d="M133.0 553.6L133.0 553.6Q126.5 553.6 122.7 550.2Q118.8 546.7 118.8 541.1L118.8 541.1L118.8 522.5Q118.8 520.7 119.8 519.7Q120.7 518.8 122.4 518.8Q124.0 518.8 125.0 519.7Q125.9 520.7 125.9 522.5L125.9 522.5L125.9 540.4Q125.9 543.7 127.8 545.6Q129.6 547.6 133.0 547.6L133.0 547.6Q136.3 547.6 138.2 545.6Q140.1 543.7 140.1 540.4L140.1 540.4L140.1 522.5Q140.1 520.7 141.0 519.7Q141.9 518.8 143.6 518.8Q145.3 518.8 146.2 519.7Q147.1 520.7 147.1 522.5L147.1 522.5L147.1 541.1Q147.1 546.7 143.3 550.2Q139.4 553.6 133.0 553.6ZM158.9 552.6Q158.0 553.6 156.3 553.6Q154.6 553.6 153.7 552.6Q152.8 551.6 152.8 549.9L152.8 549.9L152.8 522.9Q152.8 521.2 153.7 520.2Q154.6 519.2 156.3 519.2L156.3 519.2L166.6 519.2Q172.4 519.2 175.6 522.1Q178.9 525.0 178.9 530.0L178.9 530.0Q178.9 533.2 177.3 535.8Q175.8 538.3 173.0 539.4L173.0 539.4L177.9 547.9Q178.7 549.2 178.7 550.3L178.7 550.3Q178.7 551.7 177.7 552.6Q176.7 553.6 175.1 553.6L175.1 553.6Q173.8 553.6 173.1 553.0Q172.4 552.5 171.5 550.9L171.5 550.9L165.9 540.7L159.9 540.7L159.9 549.9Q159.9 551.6 158.9 552.6ZM159.9 524.8L159.9 535.6L165.9 535.6Q168.6 535.6 170.1 534.1Q171.6 532.7 171.6 530.2L171.6 530.2Q171.6 527.7 170.0 526.2Q168.5 524.8 165.9 524.8L165.9 524.8L159.9 524.8ZM196.2 542.3L186.4 542.3Q185.0 542.3 184.1 541.5Q183.2 540.7 183.2 539.3Q183.2 537.9 184.1 537.1Q185.0 536.3 186.4 536.3L186.4 536.3L196.2 536.3Q197.6 536.3 198.5 537.1Q199.4 537.9 199.4 539.3Q199.4 540.7 198.5 541.5Q197.6 542.3 196.2 542.3L196.2 542.3ZM210.9 552.6Q209.9 553.6 208.3 553.6Q206.6 553.6 205.6 552.6Q204.7 551.6 204.7 549.9L204.7 549.9L204.7 522.9Q204.7 521.2 205.6 520.2Q206.6 519.2 208.3 519.2L208.3 519.2L218.6 519.2Q224.4 519.2 227.6 522.1Q230.8 525.0 230.8 530.0L230.8 530.0Q230.8 533.2 229.3 535.8Q227.8 538.3 225.0 539.4L225.0 539.4L229.9 547.9Q230.6 549.2 230.6 550.3L230.6 550.3Q230.6 551.7 229.6 552.6Q228.6 553.6 227.0 553.6L227.0 553.6Q225.8 553.6 225.0 553.0Q224.3 552.5 223.4 550.9L223.4 550.9L217.8 540.7L211.8 540.7L211.8 549.9Q211.8 551.6 210.9 552.6ZM211.8 524.8L211.8 535.6L217.9 535.6Q220.6 535.6 222.0 534.1Q223.5 532.7 223.5 530.2L223.5 530.2Q223.5 527.7 222.0 526.2Q220.4 524.8 217.8 524.8L217.8 524.8L211.8 524.8ZM237.7 553.5L237.7 553.5Q236.0 553.5 235.1 552.6Q234.1 551.7 234.1 550.2L234.1 550.2Q234.1 549.3 234.6 547.9L234.6 547.9L243.8 522.8Q244.6 520.7 245.8 519.7Q247.1 518.8 249.1 518.8L249.1 518.8Q251.2 518.8 252.5 519.7Q253.8 520.7 254.5 522.8L254.5 522.8L263.8 547.9Q264.3 549.2 264.3 550.2L264.3 550.2Q264.3 551.6 263.3 552.6Q262.3 553.5 260.7 553.5L260.7 553.5Q259.2 553.5 258.4 552.8Q257.5 552.1 257.0 550.4L257.0 550.4L255.3 545.0L243.1 545.0L241.3 550.3Q240.8 552.0 239.9 552.8Q239.1 553.5 237.7 553.5ZM249.0 525.7L244.6 539.6L253.6 539.6L249.1 525.7L249.0 525.7ZM281.5 553.1L272.1 553.1Q270.4 553.1 269.5 552.1Q268.6 551.1 268.6 549.4L268.6 549.4L268.6 522.9Q268.6 521.2 269.5 520.2Q270.4 519.2 272.1 519.2L272.1 519.2L281.5 519.2Q289.1 519.2 293.4 523.6Q297.6 528.0 297.6 536.0L297.6 536.0Q297.6 544.1 293.3 548.6Q289.1 553.1 281.5 553.1L281.5 553.1ZM275.6 525.1L275.6 547.2L280.6 547.2Q285.4 547.2 287.9 544.4Q290.4 541.5 290.4 536.0L290.4 536.0Q290.4 530.8 287.8 527.9Q285.3 525.1 280.6 525.1L280.6 525.1L275.6 525.1Z M333.2 553.1L314.5 553.1Q312.9 553.1 312.0 552.2Q311.2 551.4 311.2 550.0L311.2 550.0Q311.2 549.1 311.6 548.3Q312.0 547.5 313.1 546.5L313.1 546.5L323.2 536.9Q326.3 533.8 327.4 532.2Q328.4 530.6 328.4 528.8L328.4 528.8Q328.4 526.7 327.0 525.3Q325.5 524 323.3 524L323.3 524Q319.3 524 317.4 528.1L317.4 528.1Q316.8 529.2 316.1 529.7Q315.4 530.1 314.3 530.1L314.3 530.1Q312.9 530.1 312.1 529.4Q311.3 528.6 311.3 527.3L311.3 527.3Q311.3 526.5 311.5 525.7L311.5 525.7Q312.5 522.7 315.6 520.6Q318.8 518.5 323.3 518.5L323.3 518.5Q328.7 518.5 332.0 521.2Q335.3 524.0 335.3 528.3L335.3 528.3Q335.3 529.9 335.0 531.2Q334.6 532.5 333.6 533.9Q332.6 535.3 331.3 536.8Q330.0 538.2 327.8 540.3L327.8 540.3L320.5 547.3L320.5 547.4L333.2 547.4Q334.6 547.4 335.4 548.2Q336.1 549.0 336.1 550.3L336.1 550.3Q336.1 551.5 335.4 552.3Q334.6 553.1 333.2 553.1L333.2 553.1ZM363.6 549.0Q359.9 553.8 353.5 553.8Q347.1 553.8 343.4 549.1Q339.7 544.3 339.7 536.1L339.7 536.1Q339.7 527.9 343.4 523.2Q347.1 518.5 353.5 518.5Q359.9 518.5 363.6 523.2Q367.3 527.9 367.3 536.1L367.3 536.1Q367.3 544.3 363.6 549.0ZM348.6 545.0Q350.4 548.1 353.5 548.1Q356.7 548.1 358.4 545.0Q360.1 541.9 360.1 536.1L360.1 536.1Q360.1 530.4 358.4 527.2Q356.7 524.1 353.5 524.1L353.5 524.1Q350.4 524.1 348.7 527.3Q346.9 530.4 346.9 536.1L346.9 536.1Q346.9 541.9 348.6 545.0ZM393.6 553.1L374.9 553.1Q373.3 553.1 372.4 552.2Q371.6 551.4 371.6 550.0L371.6 550.0Q371.6 549.1 372.0 548.3Q372.5 547.5 373.5 546.5L373.5 546.5L383.6 536.9Q386.8 533.8 387.8 532.2Q388.9 530.6 388.9 528.8L388.9 528.8Q388.9 526.7 387.4 525.3Q386.0 524 383.7 524L383.7 524Q379.7 524 377.9 528.1L377.9 528.1Q377.3 529.2 376.5 529.7Q375.8 530.1 374.7 530.1L374.7 530.1Q373.3 530.1 372.5 529.4Q371.7 528.6 371.7 527.3L371.7 527.3Q371.7 526.5 372.0 525.7L372.0 525.7Q372.9 522.7 376.0 520.6Q379.2 518.5 383.8 518.5L383.8 518.5Q389.1 518.5 392.4 521.2Q395.8 524.0 395.8 528.3L395.8 528.3Q395.8 529.9 395.4 531.2Q395 532.5 394.0 533.9Q393.1 535.3 391.7 536.8Q390.4 538.2 388.2 540.3L388.2 540.3L380.9 547.3L380.9 547.4L393.6 547.4Q395 547.4 395.8 548.2Q396.6 549.0 396.6 550.3L396.6 550.3Q396.6 551.5 395.8 552.3Q395 553.1 393.6 553.1L393.6 553.1ZM413.6 553.8L413.6 553.8Q409.6 553.8 406.3 552.1Q403.1 550.4 401.8 547.7L401.8 547.7Q401.3 546.5 401.3 545.4L401.3 545.4Q401.3 544.0 402.0 543.3Q402.8 542.5 404.2 542.5L404.2 542.5Q405.3 542.5 406.0 542.9Q406.7 543.3 407.3 544.3L407.3 544.3Q409.3 548.2 413.6 548.2L413.6 548.2Q416.3 548.2 418.1 546.4Q419.9 544.6 419.9 541.9L419.9 541.9Q419.9 539.2 418.1 537.5Q416.4 535.8 413.6 535.8L413.6 535.8Q410.8 535.8 408.7 537.8L408.7 537.8Q407.6 538.8 406.9 539.1Q406.2 539.4 405.0 539.4L405.0 539.4Q403.4 539.4 402.5 538.4Q401.6 537.4 401.7 535.9L401.7 535.9Q401.7 535.8 401.7 535.6L401.7 535.6L402.7 523.3Q402.9 521.1 404.0 520.2Q405.1 519.2 407.2 519.2L407.2 519.2L422 519.2Q423.3 519.2 424.1 520.0Q424.9 520.8 424.9 522.1Q424.9 523.3 424.1 524.1Q423.3 524.9 422 524.9L422 524.9L408.6 524.9L407.8 534.3L408.0 534.3Q409.0 532.6 411.0 531.7Q413.0 530.7 415.6 530.7L415.6 530.7Q420.4 530.7 423.5 533.8Q426.6 536.9 426.6 541.7L426.6 541.7Q426.6 547.1 423.0 550.5Q419.4 553.8 413.6 553.8Z "/><mask id="satori_om-id-0-1-1"><rect x="1013" y="524" width="147" height="36" fill="#fff"/></mask><path fill="#8e8e8e" d="M1016.9 552.6Q1016.5 552.9 1016.0 552.9Q1015.4 552.9 1015.1 552.6Q1014.8 552.2 1014.8 551.7L1014.8 551.7L1014.8 532.6Q1014.8 532.0 1015.1 531.6Q1015.5 531.3 1016.1 531.3Q1016.6 531.3 1017.0 531.6Q1017.3 532.0 1017.3 532.6L1017.3 532.6L1017.3 540.0L1017.4 540.0Q1018.1 538.7 1019.4 537.9Q1020.7 537.2 1022.3 537.2L1022.3 537.2Q1025.2 537.2 1026.9 539.3Q1028.7 541.5 1028.7 545.0L1028.7 545.0Q1028.7 548.6 1026.9 550.8Q1025.2 552.9 1022.2 552.9L1022.2 552.9Q1020.6 552.9 1019.3 552.2Q1018.0 551.4 1017.3 550.1L1017.3 550.1L1017.2 550.1L1017.2 551.7Q1017.2 552.2 1016.9 552.6ZM1021.7 550.7L1021.7 550.7Q1023.8 550.7 1024.9 549.2Q1026.1 547.7 1026.1 545.0L1026.1 545.0Q1026.1 542.5 1024.9 540.9Q1023.8 539.4 1021.7 539.4L1021.7 539.4Q1019.8 539.4 1018.6 541.0Q1017.3 542.5 1017.3 545.0L1017.3 545.0Q1017.3 547.6 1018.6 549.1Q1019.8 550.7 1021.7 550.7ZM1032.8 558.4L1032.8 558.4Q1031.9 558.4 1031.4 558.0Q1030.9 557.7 1030.9 557.1L1030.9 557.1Q1030.9 556.7 1031.1 556.4Q1031.4 556.2 1031.9 556.2L1031.9 556.2Q1032.1 556.2 1032.3 556.2Q1032.5 556.2 1032.7 556.2L1032.7 556.2Q1034.4 556.2 1035.2 553.7L1035.2 553.7L1035.6 552.7L1030.3 539.0Q1030.2 538.6 1030.2 538.3L1030.2 538.3Q1030.2 537.8 1030.6 537.5Q1030.9 537.2 1031.5 537.2L1031.5 537.2Q1032.4 537.2 1032.7 538.1L1032.7 538.1L1036.9 550.1L1037.0 550.1L1041.2 538.1Q1041.3 537.6 1041.6 537.4Q1041.9 537.2 1042.4 537.2L1042.4 537.2Q1042.9 537.2 1043.3 537.5Q1043.6 537.8 1043.6 538.3L1043.6 538.3Q1043.6 538.6 1043.5 539.0L1043.5 539.0L1037.9 553.7Q1036.9 556.4 1035.8 557.4Q1034.7 558.4 1032.8 558.4Z M1066.9 550.9Q1064.7 553.0 1060.8 553.0Q1056.9 553.0 1054.7 550.9Q1052.4 548.7 1052.4 545.3L1052.4 545.3L1052.4 532.7Q1052.4 532.1 1052.8 531.7Q1053.1 531.3 1053.7 531.3Q1054.3 531.3 1054.7 531.7Q1055.0 532.1 1055.0 532.7L1055.0 532.7L1055.0 545.1Q1055.0 547.5 1056.6 549.1Q1058.1 550.6 1060.8 550.6Q1063.5 550.6 1065.0 549.1Q1066.6 547.5 1066.6 545.1L1066.6 545.1L1066.6 532.7Q1066.6 532.1 1066.9 531.7Q1067.3 531.3 1067.9 531.3Q1068.5 531.3 1068.8 531.7Q1069.2 532.1 1069.2 532.7L1069.2 532.7L1069.2 545.3Q1069.2 548.7 1066.9 550.9ZM1075.6 552.6Q1075.2 552.9 1074.6 552.9Q1074.0 552.9 1073.7 552.6Q1073.3 552.2 1073.3 551.6L1073.3 551.6L1073.3 532.9Q1073.3 532.3 1073.7 531.9Q1074.0 531.5 1074.6 531.5L1074.6 531.5L1081.2 531.5Q1084.3 531.5 1086.1 533.2Q1088.0 535.0 1088.0 537.8L1088.0 537.8Q1088.0 540.0 1086.8 541.6Q1085.7 543.3 1083.7 543.9L1083.7 543.9L1087.6 550.8Q1087.9 551.3 1087.9 551.7L1087.9 551.7Q1087.9 552.2 1087.5 552.6Q1087.1 552.9 1086.5 552.9L1086.5 552.9Q1086.1 552.9 1085.8 552.7Q1085.5 552.5 1085.2 552.1L1085.2 552.1L1081.0 544.3L1075.9 544.3L1075.9 551.6Q1075.9 552.2 1075.6 552.6ZM1075.9 533.9L1075.9 542.0L1081.0 542.0Q1083.0 542.0 1084.1 540.9Q1085.2 539.9 1085.2 537.9L1085.2 537.9Q1085.2 536.0 1084.1 534.9Q1082.9 533.9 1080.9 533.9L1080.9 533.9L1075.9 533.9ZM1099.4 545.3L1091.9 545.3Q1091.3 545.3 1091.0 545.0Q1090.6 544.6 1090.6 544.1Q1090.6 543.6 1091.0 543.2Q1091.3 542.9 1091.9 542.9L1091.9 542.9L1099.4 542.9Q1100.0 542.9 1100.3 543.2Q1100.7 543.6 1100.7 544.1Q1100.7 544.6 1100.3 545.0Q1100.0 545.3 1099.4 545.3L1099.4 545.3ZM1106.4 552.6Q1106.0 552.9 1105.4 552.9Q1104.8 552.9 1104.5 552.6Q1104.1 552.2 1104.1 551.6L1104.1 551.6L1104.1 532.9Q1104.1 532.3 1104.5 531.9Q1104.8 531.5 1105.4 531.5L1105.4 531.5L1112.1 531.5Q1115.1 531.5 1117.0 533.2Q1118.8 535.0 1118.8 537.8L1118.8 537.8Q1118.8 540.0 1117.7 541.6Q1116.5 543.3 1114.5 543.9L1114.5 543.9L1118.4 550.8Q1118.7 551.3 1118.7 551.7L1118.7 551.7Q1118.7 552.2 1118.3 552.6Q1117.9 552.9 1117.3 552.9L1117.3 552.9Q1116.9 552.9 1116.6 552.7Q1116.3 552.5 1116.1 552.1L1116.1 552.1L1111.8 544.3L1106.8 544.3L1106.8 551.6Q1106.8 552.2 1106.4 552.6ZM1106.8 533.9L1106.8 542.0L1111.8 542.0Q1113.9 542.0 1115.0 540.9Q1116.1 539.9 1116.1 537.9L1116.1 537.9Q1116.1 536.0 1114.9 534.9Q1113.8 533.9 1111.7 533.9L1111.7 533.9L1106.8 533.9ZM1122.2 552.9L1122.2 552.9Q1121.6 552.9 1121.2 552.5Q1120.9 552.2 1120.9 551.7L1120.9 551.7Q1120.9 551.4 1121.0 551.0L1121.0 551.0L1127.8 532.6Q1128.3 531.3 1129.5 531.3L1129.5 531.3Q1130.7 531.3 1131.2 532.6L1131.2 532.6L1138.0 551.0Q1138.2 551.4 1138.2 551.7L1138.2 551.7Q1138.2 552.2 1137.8 552.5Q1137.4 552.9 1136.9 552.9L1136.9 552.9Q1135.9 552.9 1135.6 551.9L1135.6 551.9L1133.7 546.6L1125.3 546.6L1123.5 551.9Q1123.1 552.9 1122.2 552.9ZM1129.5 534.7L1126.1 544.4L1132.9 544.4L1129.6 534.7L1129.5 534.7ZM1148.1 552.7L1142.3 552.7Q1141.7 552.7 1141.4 552.3Q1141.0 551.9 1141.0 551.3L1141.0 551.3L1141.0 532.9Q1141.0 532.3 1141.4 531.9Q1141.7 531.5 1142.3 531.5L1142.3 531.5L1148.1 531.5Q1152.8 531.5 1155.5 534.3Q1158.1 537.1 1158.1 542.1L1158.1 542.1Q1158.1 547.1 1155.5 549.9Q1152.8 552.7 1148.1 552.7L1148.1 552.7ZM1143.7 533.9L1143.7 550.3L1148.0 550.3Q1151.5 550.3 1153.5 548.2Q1155.4 546.1 1155.4 542.1L1155.4 542.1Q1155.4 538.1 1153.5 536.0Q1151.6 533.9 1148.0 533.9L1148.0 533.9L1143.7 533.9Z "/></svg>