<svg width="1200" height="630" viewBox="0 0 1200 630" xmlns="http://www.w3.org/2000/svg"><mask id="satori_om-id"><rect x="0" y="0" width="1200" height="630" fill="#fff"/></mask><mask id="satori_om-id-0"><rect x="0" y="0" width="1200" height="630" fill="#fff"/></mask><rect x="0" y="0" width="1200" height="630" fill="#f2f2f2"/><mask id="satori_om-id-0-0"><rect x="0" y="0" width="1200" height="441" fill="#fff"/></mask><mask id="satori_om-id-0-0-0"><rect x="40" y="95" width="1120" height="36" fill="#fff"/></mask><path fill="#8e8e8e" d="M44.8 123.4Q44.4 123.9 43.6 123.9Q42.8 123.9 42.4 123.4Q41.9 123.0 41.9 122.2L41.9 122.2L41.9 104.2Q41.9 103.4 42.4 103.0Q42.8 102.5 43.6 102.5L43.6 102.5L53.8 102.5Q54.5 102.5 55.0 102.9Q55.4 103.3 55.4 103.9Q55.4 104.6 55.0 105.0Q54.5 105.4 53.8 105.4L53.8 105.4L45.2 105.4L45.2 112.0L53.1 112.0Q53.7 112.0 54.1 112.4Q54.5 112.8 54.5 113.4Q54.5 114.1 54.1 114.4Q53.7 114.8 53.1 114.8L53.1 114.8L45.2 114.8L45.2 122.2Q45.2 123.0 44.8 123.4ZM59.2 123.9L59.2 123.9Q58.5 123.9 58.1 123.5Q57.6 123.0 57.6 122.3L57.6 122.3L57.6 109.6Q57.6 108.9 58.0 108.4Q58.5 108.0 59.1 108.0L59.1 108.0Q59.8 108.0 60.2 108.4Q60.6 108.9 60.6 109.6L60.6 109.6L60.6 110.9L60.7 110.9Q61.0 109.6 62.0 108.8Q62.9 108.0 64.1 108.0L64.1 108.0Q64.9 108.0 65.3 108.4L65.3 108.4Q65.8 108.7 65.8 109.5L65.8 109.5Q65.8 110.2 65.3 110.6L65.3 110.6Q64.8 111.0 63.8 111.0L63.8 111.0Q62.3 111.0 61.5 112.0Q60.8 112.9 60.8 114.4L60.8 114.4L60.8 122.3Q60.8 123.0 60.3 123.5Q59.9 123.9 59.2 123.9ZM70.5 105.4Q69.9 105.9 69.2 105.9Q68.4 105.9 67.9 105.4Q67.3 104.9 67.3 104.1L67.3 104.1Q67.3 103.3 67.9 102.8Q68.4 102.3 69.2 102.3L69.2 102.3Q69.9 102.3 70.5 102.8Q71.0 103.3 71.0 104.1L71.0 104.1Q71.0 104.9 70.5 105.4ZM70.3 123.5Q69.9 123.9 69.2 123.9Q68.4 123.9 68.0 123.5Q67.6 123.0 67.6 122.3L67.6 122.3L67.6 109.7Q67.6 108.9 68.0 108.4Q68.4 108.0 69.2 108.0Q69.9 108.0 70.3 108.4Q70.7 108.9 70.7 109.7L70.7 109.7L70.7 122.3Q70.7 123.0 70.3 123.5ZM79.8 123.9L79.8 123.9Q76.8 123.9 75.1 121.8Q73.3 119.6 73.3 116.0Q73.3 112.3 75.0 110.2Q76.8 108.0 79.7 108.0L79.7 108.0Q81.4 108.0 82.6 108.8Q83.9 109.5 84.6 110.8L84.6 110.8L84.6 110.8L84.6 103.9Q84.6 103.1 85.1 102.7Q85.5 102.2 86.2 102.2L86.2 102.2Q86.9 102.2 87.4 102.7Q87.8 103.2 87.8 103.9L87.8 103.9L87.8 122.4Q87.8 123.1 87.4 123.5Q86.9 123.9 86.2 123.9L86.2 123.9Q85.5 123.9 85.1 123.5Q84.6 123.1 84.6 122.4L84.6 122.4L84.6 120.9L84.6 120.9Q84.0 122.3 82.7 123.1Q81.5 123.9 79.8 123.9ZM80.6 121.2L80.6 121.2Q82.4 121.2 83.5 119.8Q84.6 118.4 84.6 116.0L84.6 116.0Q84.6 113.6 83.5 112.1Q82.4 110.7 80.6 110.7L80.6 110.7Q78.7 110.7 77.6 112.1Q76.5 113.5 76.5 116.0L76.5 116.0Q76.5 118.4 77.6 119.8Q78.7 121.2 80.6 121.2ZM95.5 123.9L95.5 123.9Q93.3 123.9 91.8 122.6Q90.4 121.3 90.4 119.3L90.4 119.3Q90.4 117.3 91.9 116.1Q93.4 114.9 96.1 114.7L96.1 114.7L100.4 114.5L100.4 113.3Q100.4 112.0 99.5 111.3Q98.7 110.6 97.3 110.6L97.3 110.6Q96.1 110.6 95.3 111.0Q94.5 111.5 93.9 112.5L93.9 112.5Q93.4 113.2 92.6 113.2L92.6 113.2Q92.0 113.2 91.6 112.8Q91.2 112.4 91.2 111.9L91.2 111.9Q91.2 111.3 91.5 110.8L91.5 110.8Q92.1 109.5 93.7 108.8Q95.3 108.0 97.4 108.0L97.4 108.0Q100.2 108.0 101.9 109.4Q103.5 110.7 103.5 113.0L103.5 113.0L103.5 122.3Q103.5 123.1 103.1 123.5Q102.7 123.9 102.0 123.9L102.0 123.9Q101.3 123.9 100.9 123.5Q100.5 123.1 100.5 122.4L100.5 122.4L100.5 121.1L100.4 121.1Q99.8 122.4 98.4 123.2Q97.1 123.9 95.5 123.9ZM96.4 121.4L96.4 121.4Q98.1 121.4 99.2 120.4Q100.4 119.4 100.4 117.9L100.4 117.9L100.4 116.7L96.6 116.9Q95.1 117.0 94.4 117.6Q93.6 118.2 93.6 119.2L93.6 119.2Q93.6 120.2 94.4 120.8Q95.2 121.4 96.4 121.4ZM108.5 129.4L108.5 129.4Q107.4 129.4 106.8 129.0Q106.2 128.6 106.2 127.9L106.2 127.9Q106.2 127.4 106.5 127.1Q106.9 126.8 107.4 126.8L107.4 126.8Q107.6 126.8 107.8 126.8Q108.1 126.8 108.3 126.8L108.3 126.8Q109.9 126.8 110.6 124.7L110.6 124.7L110.9 123.8L105.7 110.3Q105.6 109.9 105.6 109.4L105.6 109.4Q105.6 108.8 106.0 108.4Q106.5 108.0 107.2 108.0L107.2 108.0Q107.8 108.0 108.1 108.3Q108.5 108.5 108.7 109.2L108.7 109.2L112.6 120.8L112.7 120.8L116.6 109.2Q116.8 108.5 117.2 108.3Q117.5 108.0 118.1 108.0L118.1 108.0Q118.8 108.0 119.2 108.4Q119.7 108.8 119.7 109.4L119.7 109.4Q119.7 109.8 119.5 110.3L119.5 110.3L114.2 124.4Q113.1 127.2 111.9 128.3Q110.6 129.4 108.5 129.4ZM124.1 120.1L124.1 120.1Q124.8 120.1 125.2 120.5Q125.6 120.8 125.6 121.4L125.6 121.4Q125.6 121.8 125.5 122.3L125.5 122.3L124.2 127.3Q123.9 128.4 122.9 128.4L122.9 128.4Q122.3 128.4 122.0 128.1Q121.6 127.7 121.6 127.2L121.6 127.2Q121.6 127.1 121.7 126.8L121.7 126.8L122.6 121.4Q122.8 120.1 124.1 120.1Z M143.4 124.1L143.4 124.1Q139.9 124.1 137.7 122.3Q135.4 120.6 135.4 118.0L135.4 118.0Q135.4 115.9 136.7 114.5Q138.0 113.0 140.1 112.5L140.1 112.5L140.1 112.5Q138.3 111.9 137.3 110.7Q136.2 109.4 136.2 107.7L136.2 107.7Q136.2 105.3 138.2 103.7Q140.3 102.1 143.4 102.1L143.4 102.1Q146.6 102.1 148.6 103.7Q150.6 105.3 150.6 107.8L150.6 107.8Q150.6 109.4 149.6 110.7Q148.5 111.9 146.7 112.5L146.7 112.5L146.7 112.5Q148.9 113 150.1 114.5Q151.4 116.0 151.4 118.0L151.4 118.0Q151.4 119.7 150.4 121.1Q149.4 122.5 147.6 123.3Q145.7 124.1 143.4 124.1ZM143.4 111.4L143.4 111.4Q145.2 111.4 146.3 110.4Q147.4 109.5 147.4 108.0L147.4 108.0Q147.4 106.6 146.3 105.7Q145.2 104.7 143.4 104.7L143.4 104.7Q141.7 104.7 140.6 105.7Q139.5 106.6 139.5 108.0L139.5 108.0Q139.5 109.5 140.6 110.4Q141.7 111.4 143.4 111.4ZM140.1 120.4Q141.4 121.4 143.4 121.4Q145.5 121.4 146.7 120.4Q148.0 119.3 148.0 117.7L148.0 117.7Q148.0 116.1 146.7 115.0Q145.5 114.0 143.4 114.0Q141.4 114.0 140.1 115.0Q138.8 116.1 138.8 117.7L138.8 117.7Q138.8 119.3 140.1 120.4Z M163.5 123.5Q163.1 123.9 162.3 123.9Q161.6 123.9 161.2 123.5Q160.7 123.0 160.7 122.2L160.7 122.2L160.7 104.1Q160.7 103.2 161.2 102.8Q161.7 102.3 162.5 102.3L162.5 102.3Q163.1 102.3 163.5 102.5Q163.9 102.7 164.3 103.3L164.3 103.3L174.7 118.1L174.8 118.1L174.8 104.0Q174.8 103.2 175.2 102.7Q175.6 102.3 176.4 102.3L176.4 102.3Q177.1 102.3 177.5 102.7Q178.0 103.2 178.0 104.0L178.0 104.0L178.0 122.2Q178.0 123.0 177.5 123.5Q177.1 123.9 176.2 123.9L176.2 123.9Q175.6 123.9 175.3 123.7Q174.9 123.5 174.5 122.9L174.5 122.9L164.1 108.1L163.9 108.1L163.9 122.2Q163.9 123.0 163.5 123.5ZM193.4 121.8Q191.4 124.0 188.1 124.0Q184.8 124.0 182.8 121.8Q180.8 119.7 180.8 116.0L180.8 116.0Q180.8 112.3 182.8 110.1Q184.8 108.0 188.1 108.0Q191.4 108.0 193.4 110.1Q195.4 112.3 195.4 116.0L195.4 116.0Q195.4 119.7 193.4 121.8ZM188.1 121.3L188.1 121.3Q190 121.3 191.1 119.9Q192.2 118.5 192.2 116.0L192.2 116.0Q192.2 113.4 191.1 112.0Q190.0 110.6 188.1 110.6Q186.2 110.6 185.1 112.0Q184.0 113.4 184.0 116.0L184.0 116.0Q184.0 118.5 185.1 119.9Q186.2 121.3 188.1 121.3ZM203.8 123.9L203.8 123.9Q203.0 123.9 202.5 123.6Q202.0 123.2 201.6 122.3L201.6 122.3L197.0 110.3Q196.9 109.8 196.9 109.4L196.9 109.4Q196.9 108.8 197.3 108.4Q197.8 108.0 198.5 108.0L198.5 108.0Q199.6 108.0 200.0 109.2L200.0 109.2L203.8 120.6L203.8 120.6L207.7 109.2Q208.1 108.0 209.1 108.0L209.1 108.0Q209.8 108.0 210.3 108.4Q210.7 108.8 210.7 109.4L210.7 109.4Q210.7 109.9 210.5 110.3L210.5 110.3L206.0 122.3Q205.7 123.2 205.1 123.6Q204.6 123.9 203.8 123.9ZM219.5 124.0L219.5 124.0Q216.0 124.0 214.1 121.9Q212.1 119.8 212.1 116.0L212.1 116.0Q212.1 112.4 214.1 110.2Q216.0 108.0 219.3 108.0L219.3 108.0Q222.4 108.0 224.3 110.0Q226.2 112.0 226.2 115.1L226.2 115.1Q226.2 115.9 225.8 116.3Q225.4 116.8 224.7 116.8L224.7 116.8L215.3 116.8L215.3 116.8Q215.3 118.9 216.4 120.2Q217.6 121.4 219.4 121.4L219.4 121.4Q220.7 121.4 221.6 120.9Q222.5 120.4 223.4 119.2L223.4 119.2Q223.9 118.6 224.5 118.6L224.5 118.6Q225.1 118.6 225.5 119.0Q225.9 119.3 225.9 119.9L225.9 119.9Q225.9 120.3 225.6 120.8L225.6 120.8Q224.9 122.3 223.3 123.1Q221.7 124.0 219.5 124.0ZM215.4 114.5L215.4 114.5L223.1 114.5Q223.0 112.7 222.0 111.6Q220.9 110.5 219.3 110.5L219.3 110.5Q217.6 110.5 216.6 111.6Q215.5 112.7 215.4 114.5ZM231.4 123.5Q231.0 123.9 230.3 123.9Q229.5 123.9 229.1 123.5Q228.7 123.0 228.7 122.3L228.7 122.3L228.7 109.6Q228.7 108.9 229.1 108.4Q229.5 108.0 230.2 108.0Q230.9 108.0 231.3 108.4Q231.7 108.8 231.7 109.6L231.7 109.6L231.7 110.8L231.8 110.8Q232.3 109.5 233.4 108.8Q234.6 108.0 236.1 108.0L236.1 108.0Q237.7 108.0 238.9 108.8Q240.0 109.6 240.4 111.0L240.4 111.0L240.5 111.0Q241.1 109.6 242.4 108.8Q243.7 108.0 245.3 108.0L245.3 108.0Q247.6 108.0 249.0 109.4Q250.4 110.8 250.4 113.1L250.4 113.1L250.4 122.3Q250.4 123.0 249.9 123.5Q249.5 123.9 248.8 123.9Q248.1 123.9 247.6 123.5Q247.2 123.0 247.2 122.3L247.2 122.3L247.2 113.8Q247.2 112.3 246.4 111.5Q245.6 110.7 244.2 110.7Q242.8 110.7 242.0 111.6Q241.1 112.6 241.1 114.0L241.1 114.0L241.1 122.3Q241.1 123.0 240.6 123.5Q240.2 123.9 239.5 123.9Q238.8 123.9 238.4 123.5Q238.0 123.0 238.0 122.3L238.0 122.3L238.0 113.6Q238.0 112.3 237.2 111.5Q236.4 110.7 235.0 110.7L235.0 110.7Q233.6 110.7 232.7 111.7Q231.8 112.6 231.8 114.1L231.8 114.1L231.8 122.3Q231.8 123.0 231.4 123.5ZM255.0 123.9L255.0 123.9Q254.4 123.9 253.9 123.5Q253.5 123.1 253.5 122.4L253.5 122.4L253.5 103.9Q253.5 103.2 254.0 102.7Q254.4 102.2 255.1 102.2Q255.8 102.2 256.3 102.7Q256.7 103.2 256.7 103.9L256.7 103.9L256.7 110.9L256.8 110.9Q257.5 109.5 258.7 108.8Q260.0 108.0 261.6 108.0L261.6 108.0Q264.6 108.0 266.3 110.2Q268.1 112.3 268.1 116.0L268.1 116.0Q268.1 119.6 266.3 121.8Q264.6 123.9 261.6 123.9L261.6 123.9Q260.0 123.9 258.7 123.2Q257.4 122.4 256.7 121.0L256.7 121.0L256.6 121.0L256.6 122.4Q256.6 123.1 256.2 123.5Q255.7 123.9 255.0 123.9ZM260.8 121.2L260.8 121.2Q262.6 121.2 263.7 119.8Q264.8 118.4 264.8 116.0L264.8 116.0Q264.8 113.5 263.7 112.1Q262.6 110.7 260.8 110.7L260.8 110.7Q259.0 110.7 257.8 112.1Q256.7 113.6 256.7 116.0L256.7 116.0Q256.7 118.3 257.8 119.8Q259.0 121.2 260.8 121.2ZM277.2 124.0L277.2 124.0Q273.7 124.0 271.8 121.9Q269.8 119.8 269.8 116.0L269.8 116.0Q269.8 112.4 271.8 110.2Q273.7 108.0 277.0 108.0L277.0 108.0Q280.0 108.0 282.0 110.0Q283.9 112.0 283.9 115.1L283.9 115.1Q283.9 115.9 283.5 116.3Q283.1 116.8 282.3 116.8L282.3 116.8L273.0 116.8L273.0 116.8Q273.0 118.9 274.1 120.2Q275.2 121.4 277.1 121.4L277.1 121.4Q278.4 121.4 279.3 120.9Q280.2 120.4 281.1 119.2L281.1 119.2Q281.6 118.6 282.2 118.6L282.2 118.6Q282.8 118.6 283.2 119.0Q283.5 119.3 283.5 119.9L283.5 119.9Q283.5 120.3 283.3 120.8L283.3 120.8Q282.5 122.3 280.9 123.1Q279.3 124.0 277.2 124.0ZM273.0 114.5L273.0 114.5L280.7 114.5Q280.7 112.7 279.6 111.6Q278.6 110.5 277.0 110.5L277.0 110.5Q275.3 110.5 274.2 111.6Q273.1 112.7 273.0 114.5ZM287.9 123.9L287.9 123.9Q287.2 123.9 286.8 123.5Q286.3 123.0 286.3 122.3L286.3 122.3L286.3 109.6Q286.3 108.9 286.8 108.4Q287.2 108.0 287.9 108.0L287.9 108.0Q288.5 108.0 288.9 108.4Q289.3 108.9 289.3 109.6L289.3 109.6L289.3 110.9L289.4 110.9Q289.7 109.6 290.7 108.8Q291.6 108.0 292.8 108.0L292.8 108.0Q293.6 108.0 294.0 108.4L294.0 108.4Q294.5 108.7 294.5 109.5L294.5 109.5Q294.5 110.2 294.0 110.6L294.0 110.6Q293.5 111.0 292.6 111.0L292.6 111.0Q291.0 111.0 290.3 112.0Q289.5 112.9 289.5 114.4L289.5 114.4L289.5 122.3Q289.5 123.0 289.1 123.5Q288.6 123.9 287.9 123.9Z M315.5 123.7L303.8 123.7Q303.1 123.7 302.7 123.3Q302.3 122.9 302.3 122.3L302.3 122.3Q302.3 121.8 302.5 121.5Q302.6 121.1 303.2 120.6L303.2 120.6L309.8 113.9Q311.9 111.8 312.5 110.7Q313.2 109.6 313.2 108.3L313.2 108.3Q313.2 106.8 312.2 105.8Q311.1 104.8 309.5 104.8L309.5 104.8Q306.4 104.8 305.3 108.0L305.3 108.0Q305.1 108.5 304.7 108.8Q304.4 109.0 303.8 109.0L303.8 109.0Q303.1 109.0 302.8 108.6Q302.4 108.3 302.4 107.6L302.4 107.6Q302.4 107.3 302.5 107.0L302.5 107.0Q302.6 106.1 303.2 105.3Q303.7 104.4 304.6 103.7Q305.5 103.0 306.8 102.6Q308.1 102.1 309.6 102.1L309.6 102.1Q312.6 102.1 314.5 103.8Q316.5 105.5 316.5 108.1L316.5 108.1Q316.5 109.9 315.5 111.5Q314.5 113.0 311.8 115.8L311.8 115.8L306.7 120.8L306.7 120.9L315.5 120.9Q316.2 120.9 316.6 121.3Q317.0 121.7 317.0 122.3L317.0 122.3Q317.0 122.9 316.6 123.3Q316.2 123.7 315.5 123.7L315.5 123.7ZM333.4 121.1Q331.2 124.1 327.4 124.1Q323.7 124.1 321.5 121.1Q319.3 118.2 319.3 113.1L319.3 113.1Q319.3 108.0 321.5 105.1Q323.7 102.1 327.4 102.1L327.4 102.1Q331.2 102.1 333.4 105.1Q335.5 108.0 335.5 113.1L335.5 113.1Q335.5 118.1 333.4 121.1ZM327.4 121.3L327.4 121.3Q329.7 121.3 331.0 119.1Q332.2 116.9 332.2 113.1L332.2 113.1Q332.2 109.3 331.0 107.1Q329.7 104.9 327.4 104.9Q325.2 104.9 323.9 107.1Q322.7 109.3 322.7 113.1L322.7 113.1Q322.7 116.9 323.9 119.1Q325.2 121.3 327.4 121.3ZM351.6 123.7L339.9 123.7Q339.2 123.7 338.8 123.3Q338.4 122.9 338.4 122.3L338.4 122.3Q338.4 121.8 338.6 121.5Q338.7 121.1 339.3 120.6L339.3 120.6L345.9 113.9Q348.0 111.8 348.6 110.7Q349.3 109.6 349.3 108.3L349.3 108.3Q349.3 106.8 348.3 105.8Q347.2 104.8 345.6 104.8L345.6 104.8Q342.5 104.8 341.4 108.0L341.4 108.0Q341.2 108.5 340.8 108.8Q340.5 109.0 339.9 109.0L339.9 109.0Q339.2 109.0 338.9 108.6Q338.5 108.3 338.5 107.6L338.5 107.6Q338.5 107.3 338.5 107.0L338.5 107.0Q338.7 106.1 339.3 105.3Q339.8 104.4 340.7 103.7Q341.6 103.0 342.8 102.6Q344.1 102.1 345.7 102.1L345.7 102.1Q348.7 102.1 350.6 103.8Q352.6 105.5 352.6 108.1L352.6 108.1Q352.6 109.9 351.6 111.5Q350.6 113.0 347.9 115.8L347.9 115.8L342.8 120.8L342.8 120.9L351.6 120.9Q352.3 120.9 352.7 121.3Q353.1 121.7 353.1 122.3L353.1 122.3Q353.1 122.9 352.7 123.3Q352.3 123.7 351.6 123.7L351.6 123.7ZM367.4 123.9L367.4 123.9Q366.7 123.9 366.3 123.5Q365.9 123.0 365.9 122.3L365.9 122.3L365.9 119.5L357.2 119.5Q356.3 119.5 355.8 119.0Q355.2 118.4 355.2 117.6L355.2 117.6Q355.2 116.6 356.0 115.3L356.0 115.3Q357.8 112.0 362.8 104.7L362.8 104.7Q363.8 103.3 364.5 102.8Q365.3 102.2 366.3 102.2L366.3 102.2Q367.6 102.2 368.3 102.9Q369.0 103.5 369.0 104.7L369.0 104.7L369.0 116.7L370.7 116.7Q371.3 116.7 371.7 117.1Q372.1 117.5 372.1 118.1Q372.1 118.7 371.7 119.1Q371.3 119.5 370.7 119.5L370.7 119.5L369.0 119.5L369.0 122.3Q369.0 123.0 368.6 123.5Q368.1 123.9 367.4 123.9ZM358.3 116.8L365.9 116.8L365.9 105.1L365.8 105.1Q360.4 112.9 358.3 116.7L358.3 116.7L358.3 116.8Z "/><mask id="satori_om-id-0-0-1"><rect x="40" y="176" width="1120" height="165" fill="#fff"/></mask><path fill="#224d67" d="M67.5 238.6L47.5 238.6Q45.7 238.6 44.7 237.5Q43.7 236.5 43.7 234.7L43.7 234.7L43.7 199.7Q43.7 197.9 44.7 196.8Q45.7 195.8 47.5 195.8L47.5 195.8Q49.3 195.8 50.3 196.8Q51.3 197.9 51.3 199.7L51.3 199.7L51.3 232.2L67.5 232.2Q69.0 232.2 70.0 233.1Q70.9 233.9 70.9 235.4Q70.9 236.8 70 237.7Q69.1 238.6 67.5 238.6L67.5 238.6ZM81.9 202.0Q80.7 203.2 79.0 203.2Q77.3 203.2 76.1 202.0Q74.9 200.8 74.9 199.2L74.9 199.2Q74.9 197.5 76.1 196.4Q77.3 195.2 79.0 195.2L79.0 195.2Q80.7 195.2 81.9 196.4Q83.0 197.5 83.0 199.2L83.0 199.2Q83.0 200.8 81.9 202.0ZM81.6 238.1Q80.6 239.2 79.0 239.2Q77.3 239.2 76.3 238.1Q75.3 237.1 75.3 235.3L75.3 235.3L75.3 210.7Q75.3 209.0 76.3 207.9Q77.3 206.9 79.0 206.9Q80.6 206.9 81.6 207.9Q82.6 209.0 82.6 210.8L82.6 210.8L82.6 235.3Q82.6 237.1 81.6 238.1ZM102.1 250.3L102.1 250.3Q97.8 250.2 94.5 248.7Q91.2 247.2 89.5 244.6L89.5 244.6Q88.9 243.6 88.9 242.4L88.9 242.4Q88.9 241.2 89.8 240.4Q90.6 239.6 92.0 239.6L92.0 239.6Q93.4 239.6 94.6 240.8L94.6 240.8Q96.5 242.7 98.3 243.6Q100.0 244.4 102.2 244.5L102.2 244.5Q105.9 244.5 108.0 242.6Q110.1 240.7 110.1 237.6L110.1 237.6L110.1 232.7L110.0 232.7Q108.7 235.2 106.1 236.7Q103.5 238.3 100.2 238.3L100.2 238.3Q94.4 238.3 90.9 234.0Q87.5 229.8 87.5 222.7L87.5 222.7Q87.5 215.4 90.9 211.2Q94.4 207.0 100.4 207.0L100.4 207.0Q103.6 207.0 106.1 208.5Q108.6 210.1 110.0 212.8L110.0 212.8L110.1 212.8L110.1 210.6Q110.1 208.9 111.2 207.9Q112.2 206.9 113.8 206.9Q115.4 206.9 116.4 207.9Q117.4 208.9 117.4 210.6L117.4 210.6L117.4 237.6Q117.4 243.5 113.4 246.9Q109.3 250.3 102.1 250.3ZM102.5 232.6L102.5 232.6Q106.0 232.6 108.1 229.9Q110.2 227.3 110.2 222.7L110.2 222.7Q110.2 218.2 108.1 215.5Q105.9 212.8 102.5 212.8L102.5 212.8Q99.0 212.8 97.0 215.5Q94.9 218.2 94.9 222.7L94.9 222.7Q94.9 227.3 97.0 230.0Q99.0 232.6 102.5 232.6ZM129.9 238.2Q128.9 239.2 127.2 239.2Q125.6 239.2 124.6 238.2Q123.6 237.1 123.6 235.3L123.6 235.3L123.6 199.5Q123.6 197.7 124.6 196.7Q125.5 195.7 127.2 195.7L127.2 195.7Q128.9 195.7 129.8 196.7Q130.8 197.7 130.8 199.5L130.8 199.5L130.8 212.9L130.9 212.9Q132.2 210.0 134.7 208.5Q137.2 206.9 140.8 206.9L140.8 206.9Q145.8 206.9 148.7 210.1Q151.6 213.2 151.6 218.6L151.6 218.6L151.6 235.3Q151.6 237.1 150.6 238.2Q149.6 239.2 148.0 239.2Q146.3 239.2 145.3 238.2Q144.3 237.1 144.3 235.3L144.3 235.3L144.3 220.1Q144.3 216.8 142.7 214.9Q141.1 213.1 137.9 213.1L137.9 213.1Q134.7 213.1 132.8 215.2Q130.9 217.3 130.9 220.7L130.9 220.7L130.9 235.3Q130.9 237.1 129.9 238.2ZM159.5 230.9L159.5 230.9L159.5 213.1L157.5 213.1Q156.2 213.1 155.4 212.4Q154.6 211.6 154.6 210.3L154.6 210.3Q154.6 209.0 155.4 208.3Q156.1 207.5 157.5 207.5L157.5 207.5L159.5 207.5L159.5 203.4Q159.5 201.6 160.5 200.6Q161.4 199.6 163.1 199.6L163.1 199.6Q164.8 199.6 165.8 200.6Q166.8 201.6 166.8 203.4L166.8 203.4L166.8 207.5L170.1 207.5Q171.5 207.5 172.3 208.3Q173.1 209.0 173.1 210.3L173.1 210.3Q173.1 211.6 172.3 212.4Q171.5 213.1 170.1 213.1L170.1 213.1L166.8 213.1L166.8 229.3Q166.8 231.1 167.4 231.9Q168.1 232.7 169.7 232.9L169.7 232.9L170.2 232.9Q173.2 233.2 173.2 235.6L173.2 235.6Q173.2 237.2 171.8 238.1Q170.5 238.9 167.9 238.9L167.9 238.9L167.6 238.9Q159.5 238.9 159.5 230.9ZM187.4 239.2L187.4 239.2Q185.5 239.2 184.5 238.3Q183.4 237.4 182.8 235.4L182.8 235.4L176.1 212.2Q175.7 210.9 175.7 210.0L175.7 210.0Q175.7 208.7 176.7 207.8Q177.7 206.9 179.2 206.9L179.2 206.9Q182.0 206.9 182.6 210.0L182.6 210.0L187.8 231.4L187.9 231.4L193.4 210.2Q194.1 206.9 197.5 206.9L197.5 206.9Q200.9 206.9 201.6 210.2L201.6 210.2L207.1 231.4L207.3 231.4L212.4 210.0Q213.1 206.9 215.8 206.9L215.8 206.9Q217.3 206.9 218.3 207.8Q219.2 208.6 219.2 210.0L219.2 210.0Q219.2 210.9 218.9 212.2L218.9 212.2L212.1 235.4Q211.6 237.3 210.5 238.3Q209.4 239.2 207.5 239.2L207.5 239.2Q205.6 239.2 204.4 238.3Q203.3 237.4 202.8 235.4L202.8 235.4L197.5 215.9L197.4 215.9L192.0 235.4Q191.1 239.2 187.4 239.2ZM237.1 239.2L237.1 239.2Q230.0 239.2 226.0 235.0Q222.1 230.7 222.1 223.2L222.1 223.2Q222.1 215.7 226.0 211.3Q230.0 206.9 236.7 206.9L236.7 206.9Q243.1 206.9 247.1 210.9Q251.0 215.0 251.0 221.4L251.0 221.4Q251.0 223.0 250.1 223.9Q249.2 224.8 247.6 224.8L247.6 224.8L229.3 224.8L229.3 225.0Q229.3 228.9 231.4 231.3Q233.5 233.6 237.1 233.6L237.1 233.6Q239.5 233.6 241.3 232.6Q243.1 231.7 244.8 229.4L244.8 229.4Q245.9 228.3 247.3 228.3L247.3 228.3Q248.6 228.3 249.4 229.0Q250.2 229.8 250.2 231.1L250.2 231.1Q250.2 231.9 249.7 232.9L249.7 232.9Q248.2 235.9 244.9 237.5Q241.6 239.2 237.1 239.2ZM229.4 220.0L229.4 220.0L243.9 220.0Q243.8 216.6 241.8 214.6Q239.8 212.5 236.8 212.5Q233.7 212.5 231.6 214.6Q229.6 216.7 229.4 220.0ZM262.4 202.0Q261.2 203.2 259.5 203.2Q257.8 203.2 256.7 202.0Q255.5 200.8 255.5 199.2L255.5 199.2Q255.5 197.5 256.7 196.4Q257.8 195.2 259.5 195.2L259.5 195.2Q261.3 195.2 262.4 196.4Q263.6 197.5 263.6 199.2L263.6 199.2Q263.6 200.8 262.4 202.0ZM262.2 238.1Q261.2 239.2 259.5 239.2Q257.9 239.2 256.9 238.1Q255.9 237.1 255.9 235.3L255.9 235.3L255.9 210.7Q255.9 209.0 256.9 207.9Q257.9 206.9 259.5 206.9Q261.2 206.9 262.2 207.9Q263.2 209.0 263.2 210.8L263.2 210.8L263.2 235.3Q263.2 237.1 262.2 238.1ZM282.7 250.3L282.7 250.3Q278.3 250.2 275.0 248.7Q271.7 247.2 270.1 244.6L270.1 244.6Q269.5 243.6 269.5 242.4L269.5 242.4Q269.5 241.2 270.3 240.4Q271.2 239.6 272.5 239.6L272.5 239.6Q273.9 239.6 275.2 240.8L275.2 240.8Q277.1 242.7 278.8 243.6Q280.6 244.4 282.8 244.5L282.8 244.5Q286.4 244.5 288.5 242.6Q290.7 240.7 290.7 237.6L290.7 237.6L290.7 232.7L290.5 232.7Q289.3 235.2 286.7 236.7Q284.1 238.3 280.8 238.3L280.8 238.3Q274.9 238.3 271.5 234.0Q268.0 229.8 268.0 222.7L268.0 222.7Q268.0 215.4 271.5 211.2Q274.9 207.0 280.9 207.0L280.9 207.0Q284.2 207.0 286.7 208.5Q289.2 210.1 290.6 212.8L290.6 212.8L290.7 212.8L290.7 210.6Q290.7 208.9 291.7 207.9Q292.7 206.9 294.4 206.9Q296.0 206.9 297.0 207.9Q298.0 208.9 298.0 210.6L298.0 210.6L298.0 237.6Q298.0 243.5 293.9 246.9Q289.8 250.3 282.7 250.3ZM283.0 232.6L283.0 232.6Q286.5 232.6 288.6 229.9Q290.7 227.3 290.7 222.7L290.7 222.7Q290.7 218.2 288.6 215.5Q286.5 212.8 283.0 212.8L283.0 212.8Q279.6 212.8 277.5 215.5Q275.5 218.2 275.5 222.7L275.5 222.7Q275.5 227.3 277.5 230.0Q279.6 232.6 283.0 232.6ZM310.4 238.2Q309.4 239.2 307.8 239.2Q306.2 239.2 305.2 238.2Q304.1 237.1 304.1 235.3L304.1 235.3L304.1 199.5Q304.1 197.7 305.1 196.7Q306.1 195.7 307.7 195.7L307.7 195.7Q309.4 195.7 310.4 196.7Q311.3 197.7 311.3 199.5L311.3 199.5L311.3 212.9L311.5 212.9Q312.8 210.0 315.3 208.5Q317.8 206.9 321.3 206.9L321.3 206.9Q326.4 206.9 329.3 210.1Q332.2 213.2 332.2 218.6L332.2 218.6L332.2 235.3Q332.2 237.1 331.2 238.2Q330.2 239.2 328.5 239.2Q326.9 239.2 325.9 238.2Q324.9 237.1 324.9 235.3L324.9 235.3L324.9 220.1Q324.9 216.8 323.3 214.9Q321.6 213.1 318.5 213.1L318.5 213.1Q315.2 213.1 313.3 215.2Q311.4 217.3 311.4 220.7L311.4 220.7L311.4 235.3Q311.4 237.1 310.4 238.2ZM340.0 230.9L340.0 230.9L340.0 213.1L338.1 213.1Q336.7 213.1 335.9 212.4Q335.1 211.6 335.1 210.3L335.1 210.3Q335.1 209.0 335.9 208.3Q336.7 207.5 338.1 207.5L338.1 207.5L340.0 207.5L340.0 203.4Q340.0 201.6 341.0 200.6Q342.0 199.6 343.7 199.6L343.7 199.6Q345.4 199.6 346.3 200.6Q347.3 201.6 347.3 203.4L347.3 203.4L347.3 207.5L350.7 207.5Q352.1 207.5 352.8 208.3Q353.6 209.0 353.6 210.3L353.6 210.3Q353.6 211.6 352.8 212.4Q352.0 213.1 350.7 213.1L350.7 213.1L347.3 213.1L347.3 229.3Q347.3 231.1 348.0 231.9Q348.7 232.7 350.3 232.9L350.3 232.9L350.8 232.9Q353.7 233.2 353.7 235.6L353.7 235.6Q353.7 237.2 352.4 238.1Q351.0 238.9 348.5 238.9L348.5 238.9L348.2 238.9Q340.0 238.9 340.0 230.9Z M374.7 239.1L374.7 239.1Q372.9 239.1 371.9 238.0Q370.9 237.0 370.9 235.2L370.9 235.2L370.9 200.2Q370.9 198.4 371.9 197.3Q372.9 196.3 374.7 196.3L374.7 196.3L387.3 196.3Q393.6 196.3 397.6 200.2Q401.6 204.1 401.6 210.5L401.6 210.5Q401.6 216.8 397.5 220.7Q393.4 224.6 387.0 224.6L387.0 224.6L378.4 224.6L378.4 235.2Q378.4 237.0 377.4 238.1Q376.4 239.1 374.7 239.1ZM378.4 202.5L378.4 218.5L385.3 218.5Q389.4 218.5 391.6 216.4Q393.9 214.3 393.9 210.5L393.9 210.5Q393.9 206.6 391.6 204.6Q389.4 202.5 385.3 202.5L385.3 202.5L378.4 202.5ZM412.6 238.1Q411.6 239.2 410.0 239.2Q408.3 239.2 407.3 238.1Q406.3 237.1 406.3 235.3L406.3 235.3L406.3 210.6Q406.3 208.9 407.3 207.9Q408.2 206.9 409.8 206.9L409.8 206.9Q411.3 206.9 412.3 207.9Q413.3 208.9 413.3 210.6L413.3 210.6L413.3 213.0L413.4 213.0Q414.1 210.3 415.9 208.6Q417.7 207.0 420.1 207.0L420.1 207.0Q421.8 207.0 422.6 207.8L422.6 207.8Q423.7 208.6 423.7 210.4L423.7 210.4Q423.7 212.1 422.6 213.0L422.6 213.0Q421.5 213.9 419.4 214.0L419.4 214.0Q413.6 214.0 413.6 220.4L413.6 220.4L413.6 235.3Q413.6 237.1 412.6 238.1ZM451.7 234.9Q447.6 239.2 440.7 239.2Q433.8 239.2 429.7 234.9Q425.7 230.6 425.7 223.1L425.7 223.1Q425.7 215.6 429.8 211.2Q433.9 206.9 440.7 206.9L440.7 206.9Q447.5 206.9 451.6 211.2Q455.7 215.6 455.7 223.1L455.7 223.1Q455.7 230.6 451.7 234.9ZM435.1 230.7Q437.2 233.4 440.7 233.4Q444.2 233.4 446.3 230.7Q448.3 228.0 448.3 223.1L448.3 223.1Q448.3 218.2 446.3 215.4Q444.2 212.7 440.7 212.7L440.7 212.7Q437.2 212.7 435.1 215.4Q433.1 218.2 433.1 223.1L433.1 223.1Q433.1 228.0 435.1 230.7ZM466.8 238.2Q465.8 239.2 464.2 239.2Q462.5 239.2 461.6 238.2Q460.6 237.3 460.6 235.5L460.6 235.5L460.6 199.6Q460.6 197.7 461.6 196.7Q462.6 195.7 464.3 195.7Q465.9 195.7 466.9 196.7Q467.9 197.7 467.9 199.6L467.9 199.6L467.9 212.9L468.1 212.9Q469.4 210.1 472.0 208.5Q474.5 207.0 477.8 207.0L477.8 207.0Q483.7 207.0 487.2 211.3Q490.6 215.6 490.6 223.1L490.6 223.1Q490.6 230.5 487.2 234.8Q483.7 239.1 477.8 239.1L477.8 239.1Q474.4 239.1 471.9 237.6Q469.3 236.0 467.9 233.3L467.9 233.3L467.8 233.3L467.8 235.5Q467.8 237.2 466.8 238.2ZM475.6 233.1L475.6 233.1Q479.0 233.1 481.1 230.4Q483.1 227.7 483.1 223.1Q483.1 218.4 481.1 215.7Q479.0 213.0 475.6 213.0L475.6 213.0Q472.2 213.0 470.0 215.8Q467.9 218.5 467.9 223.1L467.9 223.1Q467.9 227.6 470.0 230.3Q472.2 233.1 475.6 233.1ZM504.4 239.1L504.4 239.1Q499.9 239.1 497.0 236.5Q494.0 233.9 494.0 229.7L494.0 229.7Q494.0 225.6 497.1 223.2Q500.2 220.8 505.8 220.4L505.8 220.4L514.1 219.9L514.1 217.7Q514.1 215.3 512.5 213.9Q511.0 212.6 508.3 212.6L508.3 212.6Q506.1 212.6 504.6 213.4Q503.1 214.2 501.8 216.2L501.8 216.2Q500.7 217.7 498.8 217.7L498.8 217.7Q497.5 217.7 496.6 216.9Q495.7 216.1 495.7 214.8L495.7 214.8Q495.7 213.8 496.2 212.8L496.2 212.8Q497.4 210.1 500.8 208.5Q504.1 206.9 508.6 206.9L508.6 206.9Q514.3 206.9 517.8 209.7Q521.3 212.5 521.3 217.2L521.3 217.2L521.3 235.5Q521.3 237.2 520.3 238.2Q519.3 239.2 517.7 239.2L517.7 239.2Q516.2 239.2 515.3 238.3Q514.3 237.4 514.3 235.8L514.3 235.8L514.3 233.6L514.1 233.6Q512.8 236.1 510.1 237.6Q507.5 239.1 504.4 239.1ZM506.6 233.6L506.6 233.6Q509.7 233.6 511.9 231.7Q514.1 229.8 514.1 227.1L514.1 227.1L514.1 224.7L506.9 225.1Q504.2 225.3 502.8 226.4Q501.3 227.6 501.3 229.4L501.3 229.4Q501.3 231.3 502.8 232.4Q504.2 233.6 506.6 233.6ZM533.5 238.2Q532.5 239.2 530.9 239.2Q529.3 239.2 528.3 238.2Q527.4 237.3 527.4 235.5L527.4 235.5L527.4 199.6Q527.4 197.7 528.4 196.7Q529.4 195.7 531.0 195.7Q532.7 195.7 533.7 196.7Q534.6 197.7 534.6 199.6L534.6 199.6L534.6 212.9L534.8 212.9Q536.2 210.1 538.7 208.5Q541.3 207.0 544.6 207.0L544.6 207.0Q550.4 207.0 553.9 211.3Q557.4 215.6 557.4 223.1L557.4 223.1Q557.4 230.5 553.9 234.8Q550.4 239.1 544.5 239.1L544.5 239.1Q541.2 239.1 538.6 237.6Q536.1 236.0 534.6 233.3L534.6 233.3L534.5 233.3L534.5 235.5Q534.5 237.2 533.5 238.2ZM542.3 233.1L542.3 233.1Q545.8 233.1 547.8 230.4Q549.9 227.7 549.9 223.1Q549.9 218.4 547.8 215.7Q545.8 213.0 542.3 213.0L542.3 213.0Q538.9 213.0 536.8 215.8Q534.6 218.5 534.6 223.1L534.6 223.1Q534.6 227.6 536.8 230.3Q538.9 233.1 542.3 233.1ZM568.7 202.0Q567.5 203.2 565.8 203.2Q564.2 203.2 563.0 202.0Q561.8 200.8 561.8 199.2L561.8 199.2Q561.8 197.5 563.0 196.4Q564.2 195.2 565.8 195.2L565.8 195.2Q567.6 195.2 568.8 196.4Q569.9 197.5 569.9 199.2L569.9 199.2Q569.9 200.8 568.7 202.0ZM568.5 238.1Q567.5 239.2 565.8 239.2Q564.2 239.2 563.2 238.1Q562.2 237.1 562.2 235.3L562.2 235.3L562.2 210.7Q562.2 209.0 563.2 207.9Q564.2 206.9 565.8 206.9Q567.5 206.9 568.5 207.9Q569.5 209.0 569.5 210.8L569.5 210.8L569.5 235.3Q569.5 237.1 568.5 238.1ZM582.1 238.2Q581.1 239.2 579.5 239.2Q577.9 239.2 576.9 238.2Q575.8 237.1 575.8 235.3L575.8 235.3L575.8 199.6Q575.8 197.7 576.9 196.7Q577.9 195.7 579.5 195.7Q581.1 195.7 582.1 196.7Q583.1 197.7 583.1 199.6L583.1 199.6L583.1 235.3Q583.1 237.1 582.1 238.2ZM596.0 202.0Q594.9 203.2 593.2 203.2Q591.5 203.2 590.3 202.0Q589.1 200.8 589.1 199.2L589.1 199.2Q589.1 197.5 590.3 196.4Q591.5 195.2 593.2 195.2L593.2 195.2Q594.9 195.2 596.1 196.4Q597.2 197.5 597.2 199.2L597.2 199.2Q597.2 200.8 596.0 202.0ZM595.8 238.1Q594.8 239.2 593.2 239.2Q591.5 239.2 590.5 238.1Q589.5 237.1 589.5 235.3L589.5 235.3L589.5 210.7Q589.5 209.0 590.5 207.9Q591.5 206.9 593.2 206.9Q594.8 206.9 595.8 207.9Q596.8 209.0 596.8 210.8L596.8 210.8L596.8 235.3Q596.8 237.1 595.8 238.1ZM614.9 239.2L614.9 239.2Q610.1 239.2 606.7 237.5Q603.4 235.8 602.3 233.0L602.3 233.0Q602.0 232.2 602.0 231.5L602.0 231.5Q602.0 230.2 602.8 229.4Q603.7 228.6 605.0 228.6L605.0 228.6Q606.8 228.6 608.2 230.4L608.2 230.4Q609.4 232.3 611.0 233.1Q612.6 233.9 615.2 233.9L615.2 233.9Q617.8 233.9 619.3 232.9Q620.8 231.8 620.8 230.1L620.8 230.1Q620.8 228.7 619.8 227.8Q618.8 227.0 616.5 226.4L616.5 226.4L611.4 225.3Q602.4 223.3 602.4 216.4L602.4 216.4Q602.4 212.1 605.8 209.5Q609.3 206.9 615.0 206.9L615.0 206.9Q619.4 206.9 622.7 208.8Q625.9 210.6 626.6 213.4L626.6 213.4Q626.8 214.0 626.8 214.5L626.8 214.5Q626.8 215.6 626.0 216.4Q625.3 217.1 623.9 217.1L623.9 217.1Q622.1 217.1 621.2 215.7L621.2 215.7Q620.0 214.0 618.5 213.1Q617.1 212.2 614.9 212.2L614.9 212.2Q612.5 212.2 611.0 213.3Q609.5 214.3 609.5 216.0L609.5 216.0Q609.5 218.8 614.0 219.8L614.0 219.8L619.0 220.9Q623.9 222.0 626.0 223.9Q628.2 225.9 628.2 229.3L628.2 229.3Q628.2 233.8 624.5 236.5Q620.9 239.2 614.9 239.2ZM634.8 230.9L634.8 230.9L634.8 213.1L632.8 213.1Q631.5 213.1 630.7 212.4Q629.9 211.6 629.9 210.3L629.9 210.3Q629.9 209.0 630.7 208.3Q631.4 207.5 632.8 207.5L632.8 207.5L634.8 207.5L634.8 203.4Q634.8 201.6 635.8 200.6Q636.7 199.6 638.4 199.6L638.4 199.6Q640.1 199.6 641.1 200.6Q642.1 201.6 642.1 203.4L642.1 203.4L642.1 207.5L645.4 207.5Q646.8 207.5 647.6 208.3Q648.4 209.0 648.4 210.3L648.4 210.3Q648.4 211.6 647.6 212.4Q646.8 213.1 645.4 213.1L645.4 213.1L642.1 213.1L642.1 229.3Q642.1 231.1 642.8 231.9Q643.4 232.7 645.0 232.9L645.0 232.9L645.5 232.9Q648.5 233.2 648.5 235.6L648.5 235.6Q648.5 237.2 647.1 238.1Q645.8 238.9 643.3 238.9L643.3 238.9L643.0 238.9Q634.8 238.9 634.8 230.9ZM659.6 202.0Q658.4 203.2 656.7 203.2Q655 203.2 653.8 202.0Q652.7 200.8 652.7 199.2L652.7 199.2Q652.7 197.5 653.8 196.4Q655 195.2 656.7 195.2L656.7 195.2Q658.4 195.2 659.6 196.4Q660.8 197.5 660.8 199.2L660.8 199.2Q660.8 200.8 659.6 202.0ZM659.4 238.1Q658.4 239.2 656.7 239.2Q655.0 239.2 654.0 238.1Q653.1 237.1 653.1 235.3L653.1 235.3L653.1 210.7Q653.1 209.0 654.0 207.9Q655.0 206.9 656.7 206.9Q658.4 206.9 659.4 207.9Q660.4 209.0 660.4 210.8L660.4 210.8L660.4 235.3Q660.4 237.1 659.4 238.1ZM680.1 239.2L680.1 239.2Q673.3 239.2 669.3 234.9Q665.2 230.5 665.2 223.1L665.2 223.1Q665.2 215.7 669.2 211.3Q673.3 206.9 680.1 206.9L680.1 206.9Q684.6 206.9 688.2 209.0Q691.7 211.1 692.9 214.4L692.9 214.4Q693.2 215.4 693.2 216.1L693.2 216.1Q693.2 217.5 692.3 218.3Q691.4 219.1 690.1 219.1L690.1 219.1Q689.0 219.1 688.3 218.6Q687.5 218.1 686.9 217.0L686.9 217.0Q684.6 212.8 680.3 212.8L680.3 212.8Q676.8 212.8 674.7 215.6Q672.6 218.3 672.6 223.1L672.6 223.1Q672.6 227.9 674.7 230.6Q676.7 233.3 680.3 233.3L680.3 233.3Q684.6 233.3 686.9 229.3L686.9 229.3Q687.6 228.1 688.4 227.6Q689.1 227.1 690.2 227.1L690.2 227.1Q691.6 227.1 692.4 227.9Q693.3 228.7 693.3 230.1L693.3 230.1Q693.3 230.9 692.9 231.9L692.9 231.9Q691.6 235.1 688.0 237.2Q684.5 239.2 680.1 239.2Z M714.7 239.1L714.7 239.1Q713.0 239.1 712.0 238.0Q711.0 237.0 711.0 235.2L711.0 235.2L711.0 200.2Q711.0 198.4 712.0 197.3Q713.0 196.3 714.7 196.3L714.7 196.3L727.4 196.3Q733.7 196.3 737.7 200.2Q741.6 204.1 741.6 210.5L741.6 210.5Q741.6 216.8 737.6 220.7Q733.5 224.6 727.1 224.6L727.1 224.6L718.5 224.6L718.5 235.2Q718.5 237.0 717.5 238.1Q716.5 239.1 714.7 239.1ZM718.5 202.5L718.5 218.5L725.4 218.5Q729.4 218.5 731.7 216.4Q734.0 214.3 734.0 210.5L734.0 210.5Q734.0 206.6 731.7 204.6Q729.5 202.5 725.4 202.5L725.4 202.5L718.5 202.5ZM752.9 238.2Q751.9 239.2 750.3 239.2Q748.6 239.2 747.6 238.2Q746.6 237.1 746.6 235.3L746.6 235.3L746.6 199.6Q746.6 197.7 747.6 196.7Q748.6 195.7 750.3 195.7Q751.9 195.7 752.9 196.7Q753.9 197.7 753.9 199.6L753.9 199.6L753.9 235.3Q753.9 237.1 752.9 238.2ZM769.2 239.1L769.2 239.1Q764.7 239.1 761.8 236.5Q758.9 233.9 758.9 229.7L758.9 229.7Q758.9 225.6 761.9 223.2Q765.0 220.8 770.7 220.4L770.7 220.4L778.9 219.9L778.9 217.7Q778.9 215.3 777.4 213.9Q775.8 212.6 773.1 212.6L773.1 212.6Q770.9 212.6 769.4 213.4Q767.9 214.2 766.6 216.2L766.6 216.2Q765.5 217.7 763.6 217.7L763.6 217.7Q762.3 217.7 761.4 216.9Q760.6 216.1 760.6 214.8L760.6 214.8Q760.6 213.8 761.1 212.8L761.1 212.8Q762.2 210.1 765.6 208.5Q768.9 206.9 773.4 206.9L773.4 206.9Q779.2 206.9 782.6 209.7Q786.1 212.5 786.1 217.2L786.1 217.2L786.1 235.5Q786.1 237.2 785.1 238.2Q784.1 239.2 782.6 239.2L782.6 239.2Q781.0 239.2 780.1 238.3Q779.2 237.4 779.1 235.8L779.1 235.8L779.1 233.6L778.9 233.6Q777.6 236.1 774.9 237.6Q772.3 239.1 769.2 239.1ZM771.5 233.6L771.5 233.6Q774.6 233.6 776.7 231.7Q778.9 229.8 778.9 227.1L778.9 227.1L778.9 224.7L771.7 225.1Q769.1 225.3 767.6 226.4Q766.2 227.6 766.2 229.4L766.2 229.4Q766.2 231.3 767.6 232.4Q769.1 233.6 771.5 233.6ZM798.2 238.2Q797.2 239.2 795.6 239.2Q794.0 239.2 793.0 238.2Q792.0 237.1 792.0 235.3L792.0 235.3L792.0 210.6Q792.0 208.9 792.9 207.9Q793.8 206.9 795.4 206.9Q797.1 206.9 798.1 207.9Q799.1 208.9 799.1 210.6L799.1 210.6L799.1 212.8L799.2 212.8Q801.8 206.9 808.9 206.9L808.9 206.9Q814.0 206.9 816.8 210.0Q819.6 213.1 819.6 218.5L819.6 218.5L819.6 235.3Q819.6 237.1 818.6 238.2Q817.6 239.2 816.0 239.2Q814.3 239.2 813.3 238.2Q812.3 237.1 812.3 235.3L812.3 235.3L812.3 220.0Q812.3 216.6 810.8 214.9Q809.2 213.1 806.1 213.1L806.1 213.1Q803.0 213.1 801.1 215.2Q799.3 217.2 799.3 220.6L799.3 220.6L799.3 235.3Q799.3 237.1 798.2 238.2ZM831.7 238.2Q830.7 239.2 829.1 239.2Q827.4 239.2 826.4 238.2Q825.4 237.1 825.4 235.3L825.4 235.3L825.4 210.6Q825.4 208.9 826.4 207.9Q827.3 206.9 828.9 206.9Q830.5 206.9 831.5 207.9Q832.5 208.9 832.5 210.6L832.5 210.6L832.5 212.8L832.7 212.8Q835.3 206.9 842.4 206.9L842.4 206.9Q847.5 206.9 850.3 210.0Q853.1 213.1 853.1 218.5L853.1 218.5L853.1 235.3Q853.1 237.1 852.1 238.2Q851.1 239.2 849.5 239.2Q847.8 239.2 846.8 238.2Q845.8 237.1 845.8 235.3L845.8 235.3L845.8 220.0Q845.8 216.6 844.2 214.9Q842.7 213.1 839.6 213.1L839.6 213.1Q836.5 213.1 834.6 215.2Q832.7 217.2 832.7 220.6L832.7 220.6L832.7 235.3Q832.7 237.1 831.7 238.2ZM865.6 202.0Q864.4 203.2 862.7 203.2Q861.0 203.2 859.9 202.0Q858.7 200.8 858.7 199.2L858.7 199.2Q858.7 197.5 859.9 196.4Q861.0 195.2 862.7 195.2L862.7 195.2Q864.5 195.2 865.6 196.4Q866.8 197.5 866.8 199.2L866.8 199.2Q866.8 200.8 865.6 202.0ZM865.4 238.1Q864.4 239.2 862.7 239.2Q861.1 239.2 860.1 238.1Q859.1 237.1 859.1 235.3L859.1 235.3L859.1 210.7Q859.1 209.0 860.1 207.9Q861.1 206.9 862.7 206.9Q864.4 206.9 865.4 207.9Q866.4 209.0 866.4 210.8L866.4 210.8L866.4 235.3Q866.4 237.1 865.4 238.1ZM878.8 238.2Q877.8 239.2 876.2 239.2Q874.5 239.2 873.5 238.2Q872.5 237.1 872.5 235.3L872.5 235.3L872.5 210.6Q872.5 208.9 873.5 207.9Q874.4 206.9 876.0 206.9Q877.6 206.9 878.6 207.9Q879.6 208.9 879.6 210.6L879.6 210.6L879.6 212.8L879.8 212.8Q882.4 206.9 889.4 206.9L889.4 206.9Q894.5 206.9 897.4 210.0Q900.2 213.1 900.2 218.5L900.2 218.5L900.2 235.3Q900.2 237.1 899.2 238.2Q898.2 239.2 896.6 239.2Q894.9 239.2 893.9 238.2Q892.9 237.1 892.9 235.3L892.9 235.3L892.9 220.0Q892.9 216.6 891.3 214.9Q889.8 213.1 886.7 213.1L886.7 213.1Q883.5 213.1 881.7 215.2Q879.8 217.2 879.8 220.6L879.8 220.6L879.8 235.3Q879.8 237.1 878.8 238.2ZM919.4 250.3L919.4 250.3Q915.0 250.2 911.7 248.7Q908.4 247.2 906.8 244.6L906.8 244.6Q906.2 243.6 906.2 242.4L906.2 242.4Q906.2 241.2 907.0 240.4Q907.9 239.6 909.2 239.6L909.2 239.6Q910.6 239.6 911.9 240.8L911.9 240.8Q913.8 242.7 915.5 243.6Q917.3 244.4 919.5 244.5L919.5 244.5Q923.1 244.5 925.2 242.6Q927.4 240.7 927.4 237.6L927.4 237.6L927.4 232.7L927.2 232.7Q926.0 235.2 923.4 236.7Q920.8 238.3 917.5 238.3L917.5 238.3Q911.6 238.3 908.2 234.0Q904.7 229.8 904.7 222.7L904.7 222.7Q904.7 215.4 908.2 211.2Q911.6 207.0 917.6 207.0L917.6 207.0Q920.9 207.0 923.4 208.5Q925.9 210.1 927.3 212.8L927.3 212.8L927.4 212.8L927.4 210.6Q927.4 208.9 928.4 207.9Q929.5 206.9 931.1 206.9Q932.7 206.9 933.7 207.9Q934.7 208.9 934.7 210.6L934.7 210.6L934.7 237.6Q934.7 243.5 930.6 246.9Q926.6 250.3 919.4 250.3ZM919.7 232.6L919.7 232.6Q923.2 232.6 925.3 229.9Q927.4 227.3 927.4 222.7L927.4 222.7Q927.4 218.2 925.3 215.5Q923.2 212.8 919.7 212.8L919.7 212.8Q916.3 212.8 914.2 215.5Q912.2 218.2 912.2 222.7L912.2 222.7Q912.2 227.3 914.2 230.0Q916.3 232.6 919.7 232.6Z M962.5 239.2L962.5 239.2Q960.6 239.2 959.6 238.3Q958.5 237.4 957.9 235.4L957.9 235.4L951.2 212.2Q950.8 210.9 950.8 210.0L950.8 210.0Q950.8 208.7 951.8 207.8Q952.8 206.9 954.3 206.9L954.3 206.9Q957.1 206.9 957.7 210.0L957.7 210.0L962.9 231.4L963.0 231.4L968.4 210.2Q969.2 206.9 972.6 206.9L972.6 206.9Q975.9 206.9 976.7 210.2L976.7 210.2L982.2 231.4L982.3 231.4L987.5 210.0Q988.2 206.9 990.8 206.9L990.8 206.9Q992.4 206.9 993.3 207.8Q994.3 208.6 994.3 210.0L994.3 210.0Q994.3 210.9 993.9 212.2L993.9 212.2L987.2 235.4Q986.7 237.3 985.6 238.3Q984.4 239.2 982.6 239.2L982.6 239.2Q980.6 239.2 979.5 238.3Q978.4 237.4 977.9 235.4L977.9 235.4L972.6 215.9L972.4 215.9L967.1 235.4Q966.2 239.2 962.5 239.2ZM1005.1 202.0Q1003.9 203.2 1002.2 203.2Q1000.5 203.2 999.4 202.0Q998.2 200.8 998.2 199.2L998.2 199.2Q998.2 197.5 999.4 196.4Q1000.5 195.2 1002.2 195.2L1002.2 195.2Q1004.0 195.2 1005.1 196.4Q1006.3 197.5 1006.3 199.2L1006.3 199.2Q1006.3 200.8 1005.1 202.0ZM1004.9 238.1Q1003.9 239.2 1002.2 239.2Q1000.6 239.2 999.6 238.1Q998.6 237.1 998.6 235.3L998.6 235.3L998.6 210.7Q998.6 209.0 999.6 207.9Q1000.6 206.9 1002.2 206.9Q1003.9 206.9 1004.9 207.9Q1005.9 209.0 1005.9 210.8L1005.9 210.8L1005.9 235.3Q1005.9 237.1 1004.9 238.1ZM1014.0 230.9L1014.0 230.9L1014.0 213.1L1012.1 213.1Q1010.7 213.1 1009.9 212.4Q1009.1 211.6 1009.1 210.3L1009.1 210.3Q1009.1 209.0 1009.9 208.3Q1010.7 207.5 1012.1 207.5L1012.1 207.5L1014.0 207.5L1014.0 203.4Q1014.0 201.6 1015.0 200.6Q1016.0 199.6 1017.7 199.6L1017.7 199.6Q1019.4 199.6 1020.3 200.6Q1021.3 201.6 1021.3 203.4L1021.3 203.4L1021.3 207.5L1024.7 207.5Q1026.1 207.5 1026.9 208.3Q1027.6 209.0 1027.6 210.3L1027.6 210.3Q1027.6 211.6 1026.8 212.4Q1026.0 213.1 1024.7 213.1L1024.7 213.1L1021.3 213.1L1021.3 229.3Q1021.3 231.1 1022.0 231.9Q1022.7 232.7 1024.3 232.9L1024.3 232.9L1024.8 232.9Q1027.7 233.2 1027.7 235.6L1027.7 235.6Q1027.7 237.2 1026.4 238.1Q1025.0 238.9 1022.5 238.9L1022.5 238.9L1022.2 238.9Q1014.0 238.9 1014.0 230.9ZM1038.6 238.2Q1037.6 239.2 1036.0 239.2Q1034.4 239.2 1033.4 238.2Q1032.3 237.1 1032.3 235.3L1032.3 235.3L1032.3 199.5Q1032.3 197.7 1033.3 196.7Q1034.3 195.7 1035.9 195.7L1035.9 195.7Q1037.6 195.7 1038.6 196.7Q1039.6 197.7 1039.6 199.5L1039.6 199.5L1039.6 212.9L1039.7 212.9Q1041.0 210.0 1043.5 208.5Q1046.0 206.9 1049.5 206.9L1049.5 206.9Q1054.6 206.9 1057.5 210.1Q1060.4 213.2 1060.4 218.6L1060.4 218.6L1060.4 235.3Q1060.4 237.1 1059.4 238.2Q1058.4 239.2 1056.7 239.2Q1055.1 239.2 1054.1 238.2Q1053.1 237.1 1053.1 235.3L1053.1 235.3L1053.1 220.1Q1053.1 216.8 1051.5 214.9Q1049.8 213.1 1046.7 213.1L1046.7 213.1Q1043.4 213.1 1041.5 215.2Q1039.6 217.3 1039.6 220.7L1039.6 220.7L1039.6 235.3Q1039.6 237.1 1038.6 238.2Z M49.6 320.6Q48.7 321.6 47.1 321.6Q45.5 321.6 44.6 320.6Q43.7 319.7 43.7 318.0L43.7 318.0L43.7 283.1Q43.7 280.9 45.0 279.6Q46.3 278.3 48.6 278.3L48.6 278.3Q50.5 278.3 51.8 279.2Q53.0 280.1 53.8 282.2L53.8 282.2L65.4 310.7L65.7 310.7L77.3 282.2Q78.1 280.2 79.3 279.2Q80.6 278.3 82.5 278.3L82.5 278.3Q84.8 278.3 86.1 279.6Q87.3 280.9 87.3 283.1L87.3 283.1L87.3 318.0Q87.3 319.7 86.5 320.6Q85.6 321.6 83.9 321.6Q82.3 321.6 81.4 320.6Q80.5 319.7 80.5 318.0L80.5 318.0L80.5 291.1L80.3 291.1L69.1 318.3Q68.1 320.8 65.5 320.8L65.5 320.8Q63.0 320.8 62.0 318.3L62.0 318.3L50.8 291.1L50.5 291.1L50.5 318.0Q50.5 319.7 49.6 320.6ZM103.2 321.6L103.2 321.6Q98.7 321.6 95.7 319.0Q92.8 316.4 92.8 312.2L92.8 312.2Q92.8 308.1 95.9 305.7Q98.9 303.3 104.6 302.9L104.6 302.9L112.9 302.4L112.9 300.2Q112.9 297.8 111.3 296.4Q109.8 295.1 107.1 295.1L107.1 295.1Q104.9 295.1 103.4 295.9Q101.9 296.7 100.6 298.7L100.6 298.7Q99.4 300.2 97.6 300.2L97.6 300.2Q96.3 300.2 95.4 299.4Q94.5 298.6 94.5 297.3L94.5 297.3Q94.5 296.3 95.0 295.3L95.0 295.3Q96.2 292.6 99.5 291.0Q102.9 289.4 107.4 289.4L107.4 289.4Q113.1 289.4 116.6 292.2Q120.1 295.0 120.1 299.7L120.1 299.7L120.1 318.0Q120.1 319.7 119.1 320.7Q118.1 321.7 116.5 321.7L116.5 321.7Q115 321.7 114.1 320.8Q113.1 319.9 113.0 318.3L113.0 318.3L113.0 316.1L112.9 316.1Q111.6 318.6 108.9 320.1Q106.2 321.6 103.2 321.6ZM105.4 316.1L105.4 316.1Q108.5 316.1 110.7 314.2Q112.9 312.3 112.9 309.6L112.9 309.6L112.9 307.2L105.7 307.6Q103.0 307.8 101.6 308.9Q100.1 310.1 100.1 311.9L100.1 311.9Q100.1 313.8 101.6 314.9Q103.0 316.1 105.4 316.1ZM139.6 321.7L139.6 321.7Q132.8 321.7 128.7 317.4Q124.6 313.0 124.6 305.6L124.6 305.6Q124.6 298.2 128.7 293.8Q132.7 289.4 139.5 289.4L139.5 289.4Q144.1 289.4 147.6 291.5Q151.2 293.6 152.3 296.9L152.3 296.9Q152.7 297.9 152.7 298.6L152.7 298.6Q152.7 300.0 151.8 300.8Q150.9 301.6 149.5 301.6L149.5 301.6Q148.5 301.6 147.7 301.1Q147.0 300.6 146.3 299.5L146.3 299.5Q144.1 295.3 139.7 295.3L139.7 295.3Q136.2 295.3 134.1 298.1Q132.1 300.8 132.1 305.6L132.1 305.6Q132.1 310.4 134.1 313.1Q136.2 315.8 139.7 315.8L139.7 315.8Q144.1 315.8 146.3 311.8L146.3 311.8Q147.1 310.6 147.8 310.1Q148.5 309.6 149.7 309.6L149.7 309.6Q151.0 309.6 151.9 310.4Q152.8 311.2 152.8 312.6L152.8 312.6Q152.8 313.4 152.3 314.4L152.3 314.4Q151.0 317.6 147.5 319.7Q143.9 321.7 139.6 321.7ZM164.0 320.6Q163.0 321.7 161.3 321.7Q159.6 321.7 158.6 320.6Q157.7 319.6 157.7 317.8L157.7 317.8L157.7 293.1Q157.7 291.4 158.6 290.4Q159.6 289.4 161.1 289.4L161.1 289.4Q162.7 289.4 163.6 290.4Q164.6 291.4 164.6 293.1L164.6 293.1L164.6 295.5L164.7 295.5Q165.4 292.8 167.2 291.1Q169.1 289.5 171.4 289.5L171.4 289.5Q173.1 289.5 174.0 290.3L174.0 290.3Q175 291.1 175 292.9L175 292.9Q175 294.6 173.9 295.5L173.9 295.5Q172.9 296.4 170.7 296.5L170.7 296.5Q165.0 296.5 165.0 302.9L165.0 302.9L165.0 317.8Q165.0 319.6 164.0 320.6ZM203.0 317.4Q198.9 321.7 192.0 321.7Q185.1 321.7 181.1 317.4Q177.0 313.1 177.0 305.6L177.0 305.6Q177.0 298.1 181.1 293.7Q185.2 289.4 192.0 289.4L192.0 289.4Q198.9 289.4 203.0 293.7Q207.1 298.1 207.1 305.6L207.1 305.6Q207.1 313.1 203.0 317.4ZM186.5 313.2Q188.5 315.9 192.0 315.9Q195.5 315.9 197.6 313.2Q199.6 310.5 199.6 305.6L199.6 305.6Q199.6 300.7 197.6 297.9Q195.5 295.2 192.0 295.2L192.0 295.2Q188.5 295.2 186.5 297.9Q184.4 300.7 184.4 305.6L184.4 305.6Q184.4 310.5 186.5 313.2Z M226.3 321.6L226.3 321.6Q224.6 321.6 223.6 320.6Q222.5 319.7 222.5 318.1L222.5 318.1Q222.5 317.1 223.0 315.8L223.0 315.8L235.3 282.4Q236.1 280.3 237.4 279.3Q238.7 278.3 240.8 278.3L240.8 278.3Q242.9 278.3 244.2 279.3Q245.5 280.2 246.3 282.4L246.3 282.4L258.6 315.8Q259.1 317.2 259.1 318.1L259.1 318.1Q259.1 319.6 258.0 320.6Q257.0 321.6 255.3 321.6L255.3 321.6Q253.8 321.6 252.9 320.8Q252.0 320.1 251.5 318.4L251.5 318.4L248.7 310.3L232.9 310.3L230.1 318.3Q229.6 320.1 228.7 320.8Q227.8 321.6 226.3 321.6ZM240.6 286.3L234.7 304.3L246.8 304.3L240.8 286.3L240.6 286.3ZM277.5 321.7L277.5 321.7Q270.7 321.7 266.6 317.4Q262.6 313.0 262.6 305.6L262.6 305.6Q262.6 298.2 266.6 293.8Q270.7 289.4 277.5 289.4L277.5 289.4Q282.0 289.4 285.6 291.5Q289.1 293.6 290.2 296.9L290.2 296.9Q290.6 297.9 290.6 298.6L290.6 298.6Q290.6 300.0 289.7 300.8Q288.8 301.6 287.5 301.6L287.5 301.6Q286.4 301.6 285.7 301.1Q284.9 300.6 284.3 299.5L284.3 299.5Q282.0 295.3 277.7 295.3L277.7 295.3Q274.1 295.3 272.1 298.1Q270.0 300.8 270.0 305.6L270.0 305.6Q270.0 310.4 272.0 313.1Q274.1 315.8 277.6 315.8L277.6 315.8Q282.0 315.8 284.2 311.8L284.2 311.8Q285.0 310.6 285.7 310.1Q286.4 309.6 287.6 309.6L287.6 309.6Q288.9 309.6 289.8 310.4Q290.7 311.2 290.7 312.6L290.7 312.6Q290.7 313.4 290.3 314.4L290.3 314.4Q288.9 317.6 285.4 319.7Q281.9 321.7 277.5 321.7ZM297.6 313.4L297.6 313.4L297.6 295.6L295.6 295.6Q294.3 295.6 293.5 294.9Q292.7 294.1 292.7 292.8L292.7 292.8Q292.7 291.5 293.5 290.8Q294.3 290.0 295.6 290.0L295.6 290.0L297.6 290.0L297.6 285.9Q297.6 284.1 298.6 283.1Q299.6 282.1 301.3 282.1L301.3 282.1Q302.9 282.1 303.9 283.1Q304.9 284.1 304.9 285.9L304.9 285.9L304.9 290.0L308.3 290.0Q309.6 290.0 310.4 290.8Q311.2 291.5 311.2 292.8L311.2 292.8Q311.2 294.1 310.4 294.9Q309.6 295.6 308.3 295.6L308.3 295.6L304.9 295.6L304.9 311.8Q304.9 313.6 305.6 314.4Q306.3 315.2 307.8 315.4L307.8 315.4L308.4 315.4Q311.3 315.7 311.3 318.1L311.3 318.1Q311.3 319.7 309.9 320.6Q308.6 321.4 306.1 321.4L306.1 321.4L305.8 321.4Q297.6 321.4 297.6 313.4ZM322.4 284.5Q321.2 285.7 319.5 285.7Q317.8 285.7 316.7 284.5Q315.5 283.3 315.5 281.7L315.5 281.7Q315.5 280.0 316.7 278.9Q317.8 277.7 319.5 277.7L319.5 277.7Q321.3 277.7 322.4 278.9Q323.6 280.0 323.6 281.7L323.6 281.7Q323.6 283.3 322.4 284.5ZM322.2 320.6Q321.2 321.7 319.5 321.7Q317.9 321.7 316.9 320.6Q315.9 319.6 315.9 317.8L315.9 317.8L315.9 293.2Q315.9 291.5 316.9 290.4Q317.9 289.4 319.5 289.4Q321.2 289.4 322.2 290.4Q323.2 291.5 323.2 293.3L323.2 293.3L323.2 317.8Q323.2 319.6 322.2 320.6ZM354.0 317.4Q349.9 321.7 343.0 321.7Q336.2 321.7 332.1 317.4Q328.0 313.1 328.0 305.6L328.0 305.6Q328.0 298.1 332.1 293.7Q336.2 289.4 343.0 289.4L343.0 289.4Q349.9 289.4 354.0 293.7Q358.1 298.1 358.1 305.6L358.1 305.6Q358.1 313.1 354.0 317.4ZM337.5 313.2Q339.5 315.9 343.0 315.9Q346.6 315.9 348.6 313.2Q350.7 310.5 350.7 305.6L350.7 305.6Q350.7 300.7 348.6 297.9Q346.6 295.2 343.0 295.2L343.0 295.2Q339.6 295.2 337.5 297.9Q335.4 300.7 335.4 305.6L335.4 305.6Q335.4 310.5 337.5 313.2ZM369.0 320.7Q368.0 321.7 366.4 321.7Q364.8 321.7 363.8 320.7Q362.8 319.6 362.8 317.8L362.8 317.8L362.8 293.1Q362.8 291.4 363.7 290.4Q364.6 289.4 366.3 289.4Q367.9 289.4 368.9 290.4Q369.9 291.4 369.9 293.1L369.9 293.1L369.9 295.3L370 295.3Q372.6 289.4 379.7 289.4L379.7 289.4Q384.8 289.4 387.6 292.5Q390.4 295.6 390.4 301.0L390.4 301.0L390.4 317.8Q390.4 319.6 389.4 320.7Q388.4 321.7 386.8 321.7Q385.1 321.7 384.1 320.7Q383.1 319.6 383.1 317.8L383.1 317.8L383.1 302.5Q383.1 299.1 381.6 297.4Q380.0 295.6 376.9 295.6L376.9 295.6Q373.8 295.6 371.9 297.7Q370.1 299.7 370.1 303.1L370.1 303.1L370.1 317.8Q370.1 319.6 369.0 320.7ZM408.2 321.7L408.2 321.7Q403.4 321.7 400.1 320.0Q396.7 318.3 395.6 315.5L395.6 315.5Q395.3 314.7 395.3 314.0L395.3 314.0Q395.3 312.7 396.1 311.9Q397.0 311.1 398.3 311.1L398.3 311.1Q400.1 311.1 401.5 312.9L401.5 312.9Q402.8 314.8 404.4 315.6Q405.9 316.4 408.5 316.4L408.5 316.4Q411.1 316.4 412.6 315.4Q414.2 314.3 414.2 312.6L414.2 312.6Q414.2 311.2 413.2 310.3Q412.2 309.5 409.8 308.9L409.8 308.9L404.7 307.8Q395.7 305.8 395.7 298.9L395.7 298.9Q395.7 294.6 399.2 292.0Q402.6 289.4 408.3 289.4L408.3 289.4Q412.7 289.4 416.0 291.3Q419.2 293.1 419.9 295.9L419.9 295.9Q420.1 296.5 420.1 297.0L420.1 297.0Q420.1 298.1 419.3 298.9Q418.6 299.6 417.3 299.6L417.3 299.6Q415.4 299.6 414.5 298.2L414.5 298.2Q413.3 296.5 411.9 295.6Q410.4 294.7 408.2 294.7L408.2 294.7Q405.8 294.7 404.3 295.8Q402.8 296.8 402.8 298.5L402.8 298.5Q402.8 301.3 407.4 302.3L407.4 302.3L412.3 303.4Q417.2 304.5 419.4 306.4Q421.5 308.4 421.5 311.8L421.5 311.8Q421.5 316.3 417.8 319.0Q414.2 321.7 408.2 321.7Z "/><defs><clipPath id="satori_bc-id-0-1"><rect x="0" y="441" width="1200" height="189"/></clipPath></defs><mask id="satori_om-id-0-1"><rect x="0" y="442" width="1200" height="188" fill="#fff"/><path width="1200" height="189" fill="none" stroke="#000" stroke-width="2" d="M0,441 A0,0 0 0 1 0,441 h1200 A0,0 0 0 1 1200,441"/></mask><path width="1200" height="189" clip-path="url(#satori_bc-id-0-1)" fill="none" stroke="#dbdbdb" stroke-width="2" d="M0,441 A0,0 0 0 1 0,441 h1200 A0,0 0 0 1 1200,441"/><mask id="satori_om-id-0-1-0"><rect x="40" y="482" width="389" height="108" fill="#fff"/></mask><clipPath id="satori_cp-id-0-1-0-0"><rect x="40" y="504" width="64" height="64"/></clipPath><mask id="satori_om-id-0-1-0-0"><rect x="40" y="504" width="64" height="64" fill="#fff"/></mask><image x="40" y="504" width="64" height="64" href="data:image/svg+xml;utf8,%3Csvg  xmlns=%22http://www.w3.org/2000/svg%22 width=%2264%22 height=%2264%22 viewBox=%220 0 128 128%22%3E%3Cpath fill=%22%23224d67%22 d=%22M22.5 14.8c2.9 1.3 99 44 99 44c2.7 1.2 2.9 3.1 2 12.4c-1 10.5-1.9 37.8-40.2 42.9c-24.6 3.2-55.9-4.3-70.9-27.2C-6 58.8 11 23.4 14.8 17.7c2.4-3.5 4.8-4.2 7.7-2.9%22%3E%3C/path%3E%3Cpath fill=%22%23f0f4c3%22 d=%22M121.5 58.8c-.3-.2-92-40.8-98.9-43.9C9.6 31.5-3.8 76 27.9 96.2c33.6 21.5 78.7-10.2 93.6-37.4%22%3E%3C/path%3E%3Cpath fill=%22%23f0f4c3%22 d=%22M117.7 57c-.3-.2-86.7-38.4-93.2-41.3c-12.2 15.5-23.9 59.1 5.7 78c31.4 20.2 73.6-11.2 87.5-36.7%22%3E%3C/path%3E%3Cpath fill=%22%23cb2a42%22 d=%22M56.2 37.6L19.5 48.2c-2.5.8-4.4 2.8-5 5.3c-1.9 8.5.8 23.3 8.9 29.8c3.5 2.7 8.6 1.8 10.8-2.1L58.5 41c1.3-1.7.5-4.2-2.3-3.4m14.3 2.9s14.6 30.1 16 33s6.3 4.7 9.9 2.8c10.7-5.6 15.5-12.4 19.2-20.2c-8.9-3.9-42.4-18.8-42.4-18.8c-2.4-1.1-4 .6-2.7 3.2m-8.6 1.9C60.3 45.1 39.5 81 37.6 84.1c-1.9 3.2-.7 7.5 2.7 9.2c12.3 6.5 30.9.4 39.6-7c2.2-1.9 4.5-5.1 3.2-8.2S68.9 44.6 67.8 42.3c-1.2-2.7-4.1-2.8-5.9.1%22%3E%3C/path%3E%3Cpath fill=%22%23f0f4c3%22 d=%22M52.2 42.2c-1.4.4-10.1 3-11.1 3.4c-1.4.5-2.2 1.7-1.9 2.5c.3.9 1.7 1.1 3.1.6c.8-.3 7.1-3.9 9.5-5.2c-3.1 2.4-10.2 9.4-11.1 10.3c-1.4 1.5-1.7 3.4-.8 4.3c1 .9 2.9.5 4.3-1c1.2-1.3 8.5-12.8 9.1-13.9s.4-1.4-1.1-1m10.1 16.4c0-2.2 1.4-10.3 1.8-12.3c.4-1.6 1.5-1.8 1.8.5s1.7 9.7 1.7 11.8s-1.2 3.3-2.7 3.3c-1.4 0-2.6-1.1-2.6-3.3M79.9 49c-1.2-1.8-3.3-4.9-4.1-6.1c-.7-1.2.1-2.1 1.8-.9s4 2.9 5.4 4c1.6 1.3 1.9 3 .8 4s-2.7.8-3.9-1%22%3E%3C/path%3E%3Cellipse cx=%2287.3%22 cy=%22103.12%22 fill=%22%23cb2a42%22 rx=%223.4%22 ry=%222.3%22 transform=%22rotate(-27.098 87.298 103.126)%22%3E%3C/ellipse%3E%3Cellipse cx=%2298.89%22 cy=%22103.82%22 fill=%22%23cb2a42%22 rx=%223.4%22 ry=%222.3%22 transform=%22rotate(-30.642 98.887 103.818)%22%3E%3C/ellipse%3E%3Cellipse cx=%22102.02%22 cy=%2293.8%22 fill=%22%23cb2a42%22 rx=%223.4%22 ry=%222.3%22 transform=%22rotate(-37.16 102.017 93.797)%22%3E%3C/ellipse%3E%3Cpath fill=%22%23cb2a42%22 d=%22M57.6 30.3c-8.3-3.7-24.4-10.7-29.6-13c-3.6 2.2-9.7 11.4-11.2 21.2c-.6 3.6 1.7 5.9 5.3 4.9c0 0 33.7-9.3 35.3-9.7c1.6-.5 2-2.6.2-3.4%22%3E%3C/path%3E%3C/svg%3E" preserveAspectRatio="none" clip-path="url(#satori_cp-id-0-1-0-0)" mask="url(#satori_om-id-0-1-0-0)"/><mask id="satori_om-id-0-1-0-0-0"><rect x="40" y="504" width="0" height="64" fill="#fff"/></mask><mask id="satori_om-id-0-1-0-0-1"><rect x="40" y="504" width="0" height="64" fill="#fff"/></mask><mask id="satori_om-id-0-1-0-0-2"><rect x="40" y="504" width="0" height="64" fill="#fff"/></mask><mask id="satori_om-id-0-1-0-0-3"><rect x="40" y="504" width="0" height="64" fill="#fff"/></mask><mask id="satori_om-id-0-1-0-0-4"><rect x="40" y="504" width="0" height="64" fill="#fff"/></mask><mask id="satori_om-id-0-1-0-0-5"><rect x="40" y="504" width="0" height="64" fill="#fff"/></mask><mask id="satori_om-id-0-1-0-0-6"><rect x="40" y="504" width="0" height="64" fill="#fff"/></mask><mask id="satori_om-id-0-1-0-0-7"><rect x="40" y="504" width="0" height="64" fill="#fff"/></mask><mask id="satori_om-id-0-1-0-0-8"><rect x="40" y="504" width="0" height="64" fill="#fff"/></mask><mask id="satori_om-id-0-1-0-1"><rect x="116" y="512" width="313" height="48" fill="#fff"/></mask><path fill="#545454" d="M133.0 553.6L133.0 553.6Q126.5 553.6 122.7 550.2Q118.8 546.7 118.8 541.1L118.8 541.1L118.8 522.5Q118.8 520.7 119.8 519.7Q120.7 518.8 122.4 518.8Q124.0 518.8 125.0 519.7Q125.9 520.7 125.9 522.5L125.9 522.5L125.9 540.4Q125.9 543.7 127.8 545.6Q129.6 547.6 133.0 547.6L133.0 547.6Q136.3 547.6 138.2 545.6Q140.1 543.7 140.1 540.4L140.1 540.4L140.1 522.5Q140.1 520.7 141.0 519.7Q141.9 518.8 143.6 518.8Q145.3 518.8 146.2 519.7Q147.1 520.7 147.1 522.5L147.1 522.5L147.1 541.1Q147.1 546.7 143.3 550.2Q139.4 553.6 133.0 553.6ZM158.9 552.6Q158.0 553.6 156.3 553.6Q154.6 553.6 153.7 552.6Q152.8 551.6 152.8 549.9L152.8 549.9L152.8 522.9Q152.8 521.2 153.7 520.2Q154.6 519.2 156.3 519.2L156.3 519.2L166.6 519.2Q172.4 519.2 175.6 522.1Q178.9 525.0 178.9 530.0L178.9 530.0Q178.9 533.2 177.3 535.8Q175.8 538.3 173.0 539.4L173.0 539.4L177.9 547.9Q178.7 549.2 178.7 550.3L178.7 550.3Q178.7 551.7 177.7 552.6Q176.7 553.6 175.1 553.6L175.1 553.6Q173.8 553.6 173.1 553.0Q172.4 552.5 171.5 550.9L171.5 550.9L165.9 540.7L159.9 540.7L159.9 549.9Q159.9 551.6 158.9 552.6ZM159.9 524.8L159.9 535.6L165.9 535.6Q168.6 535.6 170.1 534.1Q171.6 532.7 171.6 530.2L171.6 530.2Q171.6 527.7 170.0 526.2Q168.5 524.8 165.9 524.8L165.9 524.8L159.9 524.8ZM196.2 542.3L186.4 542.3Q185.0 542.3 184.1 541.5Q183.2 540.7 183.2 539.3Q183.2 537.9 184.1 537.1Q185.0 536.3 186.4 536.3L186.4 536.3L196.2 536.3Q197.6 536.3 198.5 537.1Q199.4 537.9 199.4 539.3Q199.4 540.7 198.5 541.5Q197.6 542.3 196.2 542.3L196.2 542.3ZM210.9 552.6Q209.9 553.6 208.3 553.6Q206.6 553.6 205.6 552.6Q204.7 551.6 204.7 549.9L204.7 549.9L204.7 522.9Q204.7 521.2 205.6 520.2Q206.6 519.2 208.3 519.2L208.3 519.2L218.6 519.2Q224.4 519.2 227.6 522.1Q230.8 525.0 230.8 530.0L230.8 530.0Q230.8 533.2 229.3 535.8Q227.8 538.3 225.0 539.4L225.0 539.4L229.9 547.9Q230.6 549.2 230.6 550.3L230.6 550.3Q230.6 551.7 229.6 552.6Q228.6 553.6 227.0 553.6L227.0 553.6Q225.8 553.6 225.0 553.0Q224.3 552.5 223.4 550.9L223.4 550.9L217.8 540.7L211.8 540.7L211.8 549.9Q211.8 551.6 210.9 552.6ZM211.8 524.8L211.8 535.6L217.9 535.6Q220.6 535.6 222.0 534.1Q223.5 532.7 223.5 530.2L223.5 530.2Q223.5 527.7 222.0 526.2Q220.4 524.8 217.8 524.8L217.8 524.8L211.8 524.8ZM237.7 553.5L237.7 553.5Q236.0 553.5 235.1 552.6Q234.1 551.7 234.1 550.2L234.1 550.2Q234.1 549.3 234.6 547.9L234.6 547.9L243.8 522.8Q244.6 520.7 245.8 519.7Q247.1 518.8 249.1 518.8L249.1 518.8Q251.2 518.8 252.5 519.7Q253.8 520.7 254.5 522.8L254.5 522.8L263.8 547.9Q264.3 549.2 264.3 550.2L264.3 550.2Q264.3 551.6 263.3 552.6Q262.3 553.5 260.7 553.5L260.7 553.5Q259.2 553.5 258.4 552.8Q257.5 552.1 257.0 550.4L257.0 550.4L255.3 545.0L243.1 545.0L241.3 550.3Q240.8 552.0 239.9 552.8Q239.1 553.5 237.7 553.5ZM249.0 525.7L244.6 539.6L253.6 539.6L249.1 525.7L249.0 525.7ZM281.5 553.1L272.1 553.1Q270.4 553.1 269.5 552.1Q268.6 551.1 268.6 549.4L268.6 549.4L268.6 522.9Q268.6 521.2 269.5 520.2Q270.4 519.2 272.1 519.2L272.1 519.2L281.5 519.2Q289.1 519.2 293.4 523.6Q297.6 528.0 297.6 536.0L297.6 536.0Q297.6 544.1 293.3 548.6Q289.1 553.1 281.5 553.1L281.5 553.1ZM275.6 525.1L275.6 547.2L280.6 547.2Q285.4 547.2 287.9 544.4Q290.4 541.5 290.4 536.0L290.4 536.0Q290.4 530.8 287.8 527.9Q285.3 525.1 280.6 525.1L280.6 525.1L275.6 525.1Z M333.2 553.1L314.5 553.1Q312.9 553.1 312.0 552.2Q311.2 551.4 311.2 550.0L311.2 550.0Q311.2 549.1 311.6 548.3Q312.0 547.5 313.1 546.5L313.1 546.5L323.2 536.9Q326.3 533.8 327.4 532.2Q328.4 530.6 328.4 528.8L328.4 528.8Q328.4 526.7 327.0 525.3Q325.5 524 323.3 524L323.3 524Q319.3 524 317.4 528.1L317.4 528.1Q316.8 529.2 316.1 529.7Q315.4 530.1 314.3 530.1L314.3 530.1Q312.9 530.1 312.1 529.4Q311.3 528.6 311.3 527.3L311.3 527.3Q311.3 526.5 311.5 525.7L311.5 525.7Q312.5 522.7 315.6 520.6Q318.8 518.5 323.3 518.5L323.3 518.5Q328.7 518.5 332.0 521.2Q335.3 524.0 335.3 528.3L335.3 528.3Q335.3 529.9 335.0 531.2Q334.6 532.5 333.6 533.9Q332.6 535.3 331.3 536.8Q330.0 538.2 327.8 540.3L327.8 540.3L320.5 547.3L320.5 547.4L333.2 547.4Q334.6 547.4 335.4 548.2Q336.1 549.0 336.1 550.3L336.1 550.3Q336.1 551.5 335.4 552.3Q334.6 553.1 333.2 553.1L333.2 553.1ZM363.6 549.0Q359.9 553.8 353.5 553.8Q347.1 553.8 343.4 549.1Q339.7 544.3 339.7 536.1L339.7 536.1Q339.7 527.9 343.4 523.2Q347.1 518.5 353.5 518.5Q359.9 518.5 363.6 523.2Q367.3 527.9 367.3 536.1L367.3 536.1Q367.3 544.3 363.6 549.0ZM348.6 545.0Q350.4 548.1 353.5 548.1Q356.7 548.1 358.4 545.0Q360.1 541.9 360.1 536.1L360.1 536.1Q360.1 530.4 358.4 527.2Q356.7 524.1 353.5 524.1L353.5 524.1Q350.4 524.1 348.7 527.3Q346.9 530.4 346.9 536.1L346.9 536.1Q346.9 541.9 348.6 545.0ZM393.6 553.1L374.9 553.1Q373.3 553.1 372.4 552.2Q371.6 551.4 371.6 550.0L371.6 550.0Q371.6 549.1 372.0 548.3Q372.5 547.5 373.5 546.5L373.5 546.5L383.6 536.9Q386.8 533.8 387.8 532.2Q388.9 530.6 388.9 528.8L388.9 528.8Q388.9 526.7 387.4 525.3Q386.0 524 383.7 524L383.7 524Q379.7 524 377.9 528.1L377.9 528.1Q377.3 529.2 376.5 529.7Q375.8 530.1 374.7 530.1L374.7 530.1Q373.3 530.1 372.5 529.4Q371.7 528.6 371.7 527.3L371.7 527.3Q371.7 526.5 372.0 525.7L372.0 525.7Q372.9 522.7 376.0 520.6Q379.2 518.5 383.8 518.5L383.8 518.5Q389.1 518.5 392.4 521.2Q395.8 524.0 395.8 528.3L395.8 528.3Q395.8 529.9 395.4 531.2Q395 532.5 394.0 533.9Q393.1 535.3 391.7 536.8Q390.4 538.2 388.2 540.3L388.2 540.3L380.9 547.3L380.9 547.4L393.6 547.4Q395 547.4 395.8 548.2Q396.6 549.0 396.6 550.3L396.6 550.3Q396.6 551.5 395.8 552.3Q395 553.1 393.6 553.1L393.6 553.1ZM413.6 553.8L413.6 553.8Q409.6 553.8 406.3 552.1Q403.1 550.4 401.8 547.7L401.8 547.7Q401.3 546.5 401.3 545.4L401.3 545.4Q401.3 544.0 402.0 543.3Q402.8 542.5 404.2 542.5L404.2 542.5Q405.3 542.5 406.0 542.9Q406.7 543.3 407.3 544.3L407.3 544.3Q409.3 548.2 413.6 548.2L413.6 548.2Q416.3 548.2 418.1 546.4Q419.9 544.6 419.9 541.9L419.9 541.9Q419.9 539.2 418.1 537.5Q416.4 535.8 413.6 535.8L413.6 535.8Q410.8 535.8 408.7 537.8L408.7 537.8Q407.6 538.8 406.9 539.1Q406.2 539.4 405.0 539.4L405.0 539.4Q403.4 539.4 402.5 538.4Q401.6 537.4 401.7 535.9L401.7 535.9Q401.7 535.8 401.7 535.6L401.7 535.6L402.7 523.3Q402.9 521.1 404.0 520.2Q405.1 519.2 407.2 519.2L407.2 519.2L422 519.2Q423.3 519.2 424.1 520.0Q424.9 520.8 424.9 522.1Q424.9 523.3 424.1 524.1Q423.3 524.9 422 524.9L422 524.9L408.6 524.9L407.8 534.3L408.0 534.3Q409.0 532.6 411.0 531.7Q413.0 530.7 415.6 530.7L415.6 530.7Q420.4 530.7 423.5 533.8Q426.6 536.9 426.6 541.7L426.6 541.7Q426.6 547.1 423.0 550.5Q419.4 553.8 413.6 553.8Z "/><mask id="satori_om-id-0-1-1"><rect x="1013" y="524" width="147" height="36" fill="#fff"/></mask><path fill="#8e8e8e" d="M1016.9 552.6Q1016.5 552.9 1016.0 552.9Q1015.4 552.9 1015.1 552.6Q1014.8 552.2 1014.8 551.7L1014.8 551.7L1014.8 532.6Q1014.8 532.0 1015.1 531.6Q1015.5 531.3 1016.1 531.3Q1016.6 531.3 1017.0 531.6Q1017.3 532.0 1017.3 532.6L1017.3 532.6L1017.3 540.0L1017.4 540.0Q1018.1 538.7 1019.4 537.9Q1020.7 537.2 1022.3 537.2L1022.3 537.2Q1025.2 537.2 1026.9 539.3Q1028.7 541.5 1028.7 545.0L1028.7 545.0Q1028.7 548.6 1026.9 550.8Q1025.2 552.9 1022.2 552.9L1022.2 552.9Q1020.6 552.9 1019.3 552.2Q1018.0 551.4 1017.3 550.1L1017.3 550.1L1017.2 550.1L1017.2 551.7Q1017.2 552.2 1016.9 552.6ZM1021.7 550.7L1021.7 550.7Q1023.8 550.7 1024.9 549.2Q1026.1 547.7 1026.1 545.0L1026.1 545.0Q1026.1 542.5 1024.9 540.9Q1023.8 539.4 1021.7 539.4L1021.7 539.4Q1019.8 539.4 1018.6 541.0Q1017.3 542.5 1017.3 545.0L1017.3 545.0Q1017.3 547.6 1018.6 549.1Q1019.8 550.7 1021.7 550.7ZM1032.8 558.4L1032.8 558.4Q1031.9 558.4 1031.4 558.0Q1030.9 557.7 1030.9 557.1L1030.9 557.1Q1030.9 556.7 1031.1 556.4Q1031.4 556.2 1031.9 556.2L1031.9 556.2Q1032.1 556.2 1032.3 556.2Q1032.5 556.2 1032.7 556.2L1032.7 556.2Q1034.4 556.2 1035.2 553.7L1035.2 553.7L1035.6 552.7L1030.3 539.0Q1030.2 538.6 1030.2 538.3L1030.2 538.3Q1030.2 537.8 1030.6 537.5Q1030.9 537.2 1031.5 537.2L1031.5 537.2Q1032.4 537.2 1032.7 538.1L1032.7 538.1L1036.9 550.1L1037.0 550.1L1041.2 538.1Q1041.3 537.6 1041.6 537.4Q1041.9 537.2 1042.4 537.2L1042.4 537.2Q1042.9 537.2 1043.3 537.5Q1043.6 537.8 1043.6 538.3L1043.6 538.3Q1043.6 538.6 1043.5 539.0L1043.5 539.0L1037.9 553.7Q1036.9 556.4 1035.8 557.4Q1034.7 558.4 1032.8 558.4Z M1066.9 550.9Q1064.7 553.0 1060.8 553.0Q1056.9 553.0 1054.7 550.9Q1052.4 548.7 1052.4 545.3L1052.4 545.3L1052.4 532.7Q1052.4 532.1 1052.8 531.7Q1053.1 531.3 1053.7 531.3Q1054.3 531.3 1054.7 531.7Q1055.0 532.1 1055.0 532.7L1055.0 532.7L1055.0 545.1Q1055.0 547.5 1056.6 549.1Q1058.1 550.6 1060.8 550.6Q1063.5 550.6 1065.0 549.1Q1066.6 547.5 1066.6 545.1L1066.6 545.1L1066.6 532.7Q1066.6 532.1 1066.9 531.7Q1067.3 531.3 1067.9 531.3Q1068.5 531.3 1068.8 531.7Q1069.2 532.1 1069.2 532.7L1069.2 532.7L1069.2 545.3Q1069.2 548.7 1066.9 550.9ZM1075.6 552.6Q1075.2 552.9 1074.6 552.9Q1074.0 552.9 1073.7 552.6Q1073.3 552.2 1073.3 551.6L1073.3 551.6L1073.3 532.9Q1073.3 532.3 1073.7 531.9Q1074.0 531.5 1074.6 531.5L1074.6 531.5L1081.2 531.5Q1084.3 531.5 1086.1 533.2Q1088.0 535.0 1088.0 537.8L1088.0 537.8Q1088.0 540.0 1086.8 541.6Q1085.7 543.3 1083.7 543.9L1083.7 543.9L1087.6 550.8Q1087.9 551.3 1087.9 551.7L1087.9 551.7Q1087.9 552.2 1087.5 552.6Q1087.1 552.9 1086.5 552.9L1086.5 552.9Q1086.1 552.9 1085.8 552.7Q1085.5 552.5 1085.2 552.1L1085.2 552.1L1081.0 544.3L1075.9 544.3L1075.9 551.6Q1075.9 552.2 1075.6 552.6ZM1075.9 533.9L1075.9 542.0L1081.0 542.0Q1083.0 542.0 1084.1 540.9Q1085.2 539.9 1085.2 537.9L1085.2 537.9Q1085.2 536.0 1084.1 534.9Q1082.9 533.9 1080.9 533.9L1080.9 533.9L1075.9 533.9ZM1099.4 545.3L1091.9 545.3Q1091.3 545.3 1091.0 545.0Q1090.6 544.6 1090.6 544.1Q1090.6 543.6 1091.0 543.2Q1091.3 542.9 1091.9 542.9L1091.9 542.9L1099.4 542.9Q1100.0 542.9 1100.3 543.2Q1100.7 543.6 1100.7 544.1Q1100.7 544.6 1100.3 545.0Q1100.0 545.3 1099.4 545.3L1099.4 545.3ZM1106.4 552.6Q1106.0 552.9 1105.4 552.9Q1104.8 552.9 1104.5 552.6Q1104.1 552.2 1104.1 551.6L1104.1 551.6L1104.1 532.9Q1104.1 532.3 1104.5 531.9Q1104.8 531.5 1105.4 531.5L1105.4 531.5L1112.1 531.5Q1115.1 531.5 1117.0 533.2Q1118.8 535.0 1118.8 537.8L1118.8 537.8Q1118.8 540.0 1117.7 541.6Q1116.5 543.3 1114.5 543.9L1114.5 543.9L1118.4 550.8Q1118.7 551.3 1118.7 551.7L1118.7 551.7Q1118.7 552.2 1118.3 552.6Q1117.9 552.9 1117.3 552.9L1117.3 552.9Q1116.9 552.9 1116.6 552.7Q1116.3 552.5 1116.1 552.1L1116.1 552.1L1111.8 544.3L1106.8 544.3L1106.8 551.6Q1106.8 552.2 1106.4 552.6ZM1106.8 533.9L1106.8 542.0L1111.8 542.0Q1113.9 542.0 1115.0 540.9Q1116.1 539.9 1116.1 537.9L1116.1 537.9Q1116.1 536.0 1114.9 534.9Q1113.8 533.9 1111.7 533.9L1111.7 533.9L1106.8 533.9ZM1122.2 552.9L1122.2 552.9Q1121.6 552.9 1121.2 552.5Q1120.9 552.2 1120.9 551.7L1120.9 551.7Q1120.9 551.4 1121.0 551.0L1121.0 551.0L1127.8 532.6Q1128.3 531.3 1129.5 531.3L1129.5 531.3Q1130.7 531.3 1131.2 532.6L1131.2 532.6L1138.0 551.0Q1138.2 551.4 1138.2 551.7L1138.2 551.7Q1138.2 552.2 1137.8 552.5Q1137.4 552.9 1136.9 552.9L1136.9 552.9Q1135.9 552.9 1135.6 551.9L1135.6 551.9L1133.7 546.6L1125.3 546.6L1123.5 551.9Q1123.1 552.9 1122.2 552.9ZM1129.5 534.7L1126.1 544.4L1132.9 544.4L1129.6 534.7L1129.5 534.7ZM1148.1 552.7L1142.3 552.7Q1141.7 552.7 1141.4 552.3Q1141.0 551.9 1141.0 551.3L1141.0 551.3L1141.0 532.9Q1141.0 532.3 1141.4 531.9Q1141.7 531.5 1142.3 531.5L1142.3 531.5L1148.1 531.5Q1152.8 531.5 1155.5 534.3Q1158.1 537.1 1158.1 542.1L1158.1 542.1Q1158.1 547.1 1155.5 549.9Q1152.8 552.7 1148.1 552.7L1148.1 552.7ZM1143.7 533.9L1143.7 550.3L1148.0 550.3Q1151.5 550.3 1153.5 548.2Q1155.4 546.1 1155.4 542.1L1155.4 542.1Q1155.4 538.1 1153.5 536.0Q1151.6 533.9 1148.0 533.9L1148.0 533.9L1143.7 533.9Z "/></svg>