<svg width="1200" height="630" viewBox="0 0 1200 630" xmlns="http://www.w3.org/2000/svg"><mask id="satori_om-id"><rect x="0" y="0" width="1200" height="630" fill="#fff"/></mask><mask id="satori_om-id-0"><rect x="0" y="0" width="1200" height="630" fill="#fff"/></mask><rect x="0" y="0" width="1200" height="630" fill="#f2f2f2"/><mask id="satori_om-id-0-0"><rect x="0" y="0" width="1200" height="441" fill="#fff"/></mask><mask id="satori_om-id-0-0-0"><rect x="40" y="56" width="1120" height="35" fill="#fff"/></mask><path fill="#8e8e8e" d="M44.8 84.4Q44.4 84.9 43.6 84.9Q42.8 84.9 42.4 84.4Q41.9 84.0 41.9 83.2L41.9 83.2L41.9 65.2Q41.9 64.4 42.4 64.0Q42.8 63.5 43.6 63.5L43.6 63.5L53.8 63.5Q54.5 63.5 55.0 63.9Q55.4 64.3 55.4 64.9Q55.4 65.6 55.0 66.0Q54.5 66.4 53.8 66.4L53.8 66.4L45.2 66.4L45.2 73.0L53.1 73.0Q53.7 73.0 54.1 73.4Q54.5 73.8 54.5 74.4Q54.5 75.1 54.1 75.4Q53.7 75.8 53.1 75.8L53.1 75.8L45.2 75.8L45.2 83.2Q45.2 84.0 44.8 84.4ZM59.2 84.9L59.2 84.9Q58.5 84.9 58.1 84.5Q57.6 84.0 57.6 83.3L57.6 83.3L57.6 70.6Q57.6 69.9 58.0 69.4Q58.5 69.0 59.1 69.0L59.1 69.0Q59.8 69.0 60.2 69.4Q60.6 69.9 60.6 70.6L60.6 70.6L60.6 71.9L60.7 71.9Q61.0 70.6 62.0 69.8Q62.9 69.0 64.1 69.0L64.1 69.0Q64.9 69.0 65.3 69.4L65.3 69.4Q65.8 69.7 65.8 70.5L65.8 70.5Q65.8 71.2 65.3 71.6L65.3 71.6Q64.8 72.0 63.8 72.0L63.8 72.0Q62.3 72.0 61.5 73.0Q60.8 73.9 60.8 75.4L60.8 75.4L60.8 83.3Q60.8 84.0 60.3 84.5Q59.9 84.9 59.2 84.9ZM70.5 66.4Q69.9 66.9 69.2 66.9Q68.4 66.9 67.9 66.4Q67.3 65.9 67.3 65.1L67.3 65.1Q67.3 64.3 67.9 63.8Q68.4 63.3 69.2 63.3L69.2 63.3Q69.9 63.3 70.5 63.8Q71.0 64.3 71.0 65.1L71.0 65.1Q71.0 65.9 70.5 66.4ZM70.3 84.5Q69.9 84.9 69.2 84.9Q68.4 84.9 68.0 84.5Q67.6 84.0 67.6 83.3L67.6 83.3L67.6 70.7Q67.6 69.9 68.0 69.4Q68.4 69.0 69.2 69.0Q69.9 69.0 70.3 69.4Q70.7 69.9 70.7 70.7L70.7 70.7L70.7 83.3Q70.7 84.0 70.3 84.5ZM79.8 84.9L79.8 84.9Q76.8 84.9 75.1 82.8Q73.3 80.6 73.3 77.0Q73.3 73.3 75.0 71.2Q76.8 69.0 79.7 69.0L79.7 69.0Q81.4 69.0 82.6 69.8Q83.9 70.5 84.6 71.8L84.6 71.8L84.6 71.8L84.6 64.9Q84.6 64.1 85.1 63.7Q85.5 63.2 86.2 63.2L86.2 63.2Q86.9 63.2 87.4 63.7Q87.8 64.2 87.8 64.9L87.8 64.9L87.8 83.4Q87.8 84.1 87.4 84.5Q86.9 84.9 86.2 84.9L86.2 84.9Q85.5 84.9 85.1 84.5Q84.6 84.1 84.6 83.4L84.6 83.4L84.6 81.9L84.6 81.9Q84.0 83.3 82.7 84.1Q81.5 84.9 79.8 84.9ZM80.6 82.2L80.6 82.2Q82.4 82.2 83.5 80.8Q84.6 79.4 84.6 77.0L84.6 77.0Q84.6 74.6 83.5 73.1Q82.4 71.7 80.6 71.7L80.6 71.7Q78.7 71.7 77.6 73.1Q76.5 74.5 76.5 77.0L76.5 77.0Q76.5 79.4 77.6 80.8Q78.7 82.2 80.6 82.2ZM95.5 84.9L95.5 84.9Q93.3 84.9 91.8 83.6Q90.4 82.3 90.4 80.3L90.4 80.3Q90.4 78.3 91.9 77.1Q93.4 75.9 96.1 75.7L96.1 75.7L100.4 75.5L100.4 74.3Q100.4 73.0 99.5 72.3Q98.7 71.6 97.3 71.6L97.3 71.6Q96.1 71.6 95.3 72.0Q94.5 72.5 93.9 73.5L93.9 73.5Q93.4 74.2 92.6 74.2L92.6 74.2Q92.0 74.2 91.6 73.8Q91.2 73.4 91.2 72.9L91.2 72.9Q91.2 72.3 91.5 71.8L91.5 71.8Q92.1 70.5 93.7 69.8Q95.3 69.0 97.4 69.0L97.4 69.0Q100.2 69.0 101.9 70.4Q103.5 71.7 103.5 74.0L103.5 74.0L103.5 83.3Q103.5 84.1 103.1 84.5Q102.7 84.9 102.0 84.9L102.0 84.9Q101.3 84.9 100.9 84.5Q100.5 84.1 100.5 83.4L100.5 83.4L100.5 82.1L100.4 82.1Q99.8 83.4 98.4 84.2Q97.1 84.9 95.5 84.9ZM96.4 82.4L96.4 82.4Q98.1 82.4 99.2 81.4Q100.4 80.4 100.4 78.9L100.4 78.9L100.4 77.7L96.6 77.9Q95.1 78.0 94.4 78.6Q93.6 79.2 93.6 80.2L93.6 80.2Q93.6 81.2 94.4 81.8Q95.2 82.4 96.4 82.4ZM108.5 90.4L108.5 90.4Q107.4 90.4 106.8 90.0Q106.2 89.6 106.2 88.9L106.2 88.9Q106.2 88.4 106.5 88.1Q106.9 87.8 107.4 87.8L107.4 87.8Q107.6 87.8 107.8 87.8Q108.1 87.8 108.3 87.8L108.3 87.8Q109.9 87.8 110.6 85.7L110.6 85.7L110.9 84.8L105.7 71.3Q105.6 70.9 105.6 70.4L105.6 70.4Q105.6 69.8 106.0 69.4Q106.5 69.0 107.2 69.0L107.2 69.0Q107.8 69.0 108.1 69.3Q108.5 69.5 108.7 70.2L108.7 70.2L112.6 81.8L112.7 81.8L116.6 70.2Q116.8 69.5 117.2 69.3Q117.5 69.0 118.1 69.0L118.1 69.0Q118.8 69.0 119.2 69.4Q119.7 69.8 119.7 70.4L119.7 70.4Q119.7 70.8 119.5 71.3L119.5 71.3L114.2 85.4Q113.1 88.2 111.9 89.3Q110.6 90.4 108.5 90.4ZM124.1 81.1L124.1 81.1Q124.8 81.1 125.2 81.5Q125.6 81.8 125.6 82.4L125.6 82.4Q125.6 82.8 125.5 83.3L125.5 83.3L124.2 88.3Q123.9 89.4 122.9 89.4L122.9 89.4Q122.3 89.4 122.0 89.1Q121.6 88.7 121.6 88.2L121.6 88.2Q121.6 88.1 121.7 87.8L121.7 87.8L122.6 82.4Q122.8 81.1 124.1 81.1Z M143.4 85.1L143.4 85.1Q139.9 85.1 137.7 83.3Q135.4 81.6 135.4 79.0L135.4 79.0Q135.4 76.9 136.7 75.5Q138.0 74.0 140.1 73.5L140.1 73.5L140.1 73.5Q138.3 72.9 137.3 71.7Q136.2 70.4 136.2 68.7L136.2 68.7Q136.2 66.3 138.2 64.7Q140.3 63.1 143.4 63.1L143.4 63.1Q146.6 63.1 148.6 64.7Q150.6 66.3 150.6 68.8L150.6 68.8Q150.6 70.4 149.6 71.7Q148.5 72.9 146.7 73.5L146.7 73.5L146.7 73.5Q148.9 74 150.1 75.5Q151.4 77.0 151.4 79.0L151.4 79.0Q151.4 80.7 150.4 82.1Q149.4 83.5 147.6 84.3Q145.7 85.1 143.4 85.1ZM143.4 72.4L143.4 72.4Q145.2 72.4 146.3 71.4Q147.4 70.5 147.4 69.0L147.4 69.0Q147.4 67.6 146.3 66.7Q145.2 65.7 143.4 65.7L143.4 65.7Q141.7 65.7 140.6 66.7Q139.5 67.6 139.5 69.0L139.5 69.0Q139.5 70.5 140.6 71.4Q141.7 72.4 143.4 72.4ZM140.1 81.4Q141.4 82.4 143.4 82.4Q145.5 82.4 146.7 81.4Q148.0 80.3 148.0 78.7L148.0 78.7Q148.0 77.1 146.7 76.0Q145.5 75.0 143.4 75.0Q141.4 75.0 140.1 76.0Q138.8 77.1 138.8 78.7L138.8 78.7Q138.8 80.3 140.1 81.4Z M163.5 84.5Q163.1 84.9 162.3 84.9Q161.6 84.9 161.2 84.5Q160.7 84.0 160.7 83.2L160.7 83.2L160.7 65.1Q160.7 64.2 161.2 63.8Q161.7 63.3 162.5 63.3L162.5 63.3Q163.1 63.3 163.5 63.5Q163.9 63.7 164.3 64.3L164.3 64.3L174.7 79.1L174.8 79.1L174.8 65.0Q174.8 64.2 175.2 63.7Q175.6 63.3 176.4 63.3L176.4 63.3Q177.1 63.3 177.5 63.7Q178.0 64.2 178.0 65.0L178.0 65.0L178.0 83.2Q178.0 84.0 177.5 84.5Q177.1 84.9 176.2 84.9L176.2 84.9Q175.6 84.9 175.3 84.7Q174.9 84.5 174.5 83.9L174.5 83.9L164.1 69.1L163.9 69.1L163.9 83.2Q163.9 84.0 163.5 84.5ZM193.4 82.8Q191.4 85.0 188.1 85.0Q184.8 85.0 182.8 82.8Q180.8 80.7 180.8 77.0L180.8 77.0Q180.8 73.3 182.8 71.1Q184.8 69.0 188.1 69.0Q191.4 69.0 193.4 71.1Q195.4 73.3 195.4 77.0L195.4 77.0Q195.4 80.7 193.4 82.8ZM188.1 82.3L188.1 82.3Q190 82.3 191.1 80.9Q192.2 79.5 192.2 77.0L192.2 77.0Q192.2 74.4 191.1 73.0Q190.0 71.6 188.1 71.6Q186.2 71.6 185.1 73.0Q184.0 74.4 184.0 77.0L184.0 77.0Q184.0 79.5 185.1 80.9Q186.2 82.3 188.1 82.3ZM203.8 84.9L203.8 84.9Q203.0 84.9 202.5 84.6Q202.0 84.2 201.6 83.3L201.6 83.3L197.0 71.3Q196.9 70.8 196.9 70.4L196.9 70.4Q196.9 69.8 197.3 69.4Q197.8 69.0 198.5 69.0L198.5 69.0Q199.6 69.0 200.0 70.2L200.0 70.2L203.8 81.6L203.8 81.6L207.7 70.2Q208.1 69.0 209.1 69.0L209.1 69.0Q209.8 69.0 210.3 69.4Q210.7 69.8 210.7 70.4L210.7 70.4Q210.7 70.9 210.5 71.3L210.5 71.3L206.0 83.3Q205.7 84.2 205.1 84.6Q204.6 84.9 203.8 84.9ZM219.5 85.0L219.5 85.0Q216.0 85.0 214.1 82.9Q212.1 80.8 212.1 77.0L212.1 77.0Q212.1 73.4 214.1 71.2Q216.0 69.0 219.3 69.0L219.3 69.0Q222.4 69.0 224.3 71.0Q226.2 73.0 226.2 76.1L226.2 76.1Q226.2 76.9 225.8 77.3Q225.4 77.8 224.7 77.8L224.7 77.8L215.3 77.8L215.3 77.8Q215.3 79.9 216.4 81.2Q217.6 82.4 219.4 82.4L219.4 82.4Q220.7 82.4 221.6 81.9Q222.5 81.4 223.4 80.2L223.4 80.2Q223.9 79.6 224.5 79.6L224.5 79.6Q225.1 79.6 225.5 80.0Q225.9 80.3 225.9 80.9L225.9 80.9Q225.9 81.3 225.6 81.8L225.6 81.8Q224.9 83.3 223.3 84.1Q221.7 85.0 219.5 85.0ZM215.4 75.5L215.4 75.5L223.1 75.5Q223.0 73.7 222.0 72.6Q220.9 71.5 219.3 71.5L219.3 71.5Q217.6 71.5 216.6 72.6Q215.5 73.7 215.4 75.5ZM231.4 84.5Q231.0 84.9 230.3 84.9Q229.5 84.9 229.1 84.5Q228.7 84.0 228.7 83.3L228.7 83.3L228.7 70.6Q228.7 69.9 229.1 69.4Q229.5 69.0 230.2 69.0Q230.9 69.0 231.3 69.4Q231.7 69.8 231.7 70.6L231.7 70.6L231.7 71.8L231.8 71.8Q232.3 70.5 233.4 69.8Q234.6 69.0 236.1 69.0L236.1 69.0Q237.7 69.0 238.9 69.8Q240.0 70.6 240.4 72.0L240.4 72.0L240.5 72.0Q241.1 70.6 242.4 69.8Q243.7 69.0 245.3 69.0L245.3 69.0Q247.6 69.0 249.0 70.4Q250.4 71.8 250.4 74.1L250.4 74.1L250.4 83.3Q250.4 84.0 249.9 84.5Q249.5 84.9 248.8 84.9Q248.1 84.9 247.6 84.5Q247.2 84.0 247.2 83.3L247.2 83.3L247.2 74.8Q247.2 73.3 246.4 72.5Q245.6 71.7 244.2 71.7Q242.8 71.7 242.0 72.6Q241.1 73.6 241.1 75.0L241.1 75.0L241.1 83.3Q241.1 84.0 240.6 84.5Q240.2 84.9 239.5 84.9Q238.8 84.9 238.4 84.5Q238.0 84.0 238.0 83.3L238.0 83.3L238.0 74.6Q238.0 73.3 237.2 72.5Q236.4 71.7 235.0 71.7L235.0 71.7Q233.6 71.7 232.7 72.7Q231.8 73.6 231.8 75.1L231.8 75.1L231.8 83.3Q231.8 84.0 231.4 84.5ZM255.0 84.9L255.0 84.9Q254.4 84.9 253.9 84.5Q253.5 84.1 253.5 83.4L253.5 83.4L253.5 64.9Q253.5 64.2 254.0 63.7Q254.4 63.2 255.1 63.2Q255.8 63.2 256.3 63.7Q256.7 64.2 256.7 64.9L256.7 64.9L256.7 71.9L256.8 71.9Q257.5 70.5 258.7 69.8Q260.0 69.0 261.6 69.0L261.6 69.0Q264.6 69.0 266.3 71.2Q268.1 73.3 268.1 77.0L268.1 77.0Q268.1 80.6 266.3 82.8Q264.6 84.9 261.6 84.9L261.6 84.9Q260.0 84.9 258.7 84.2Q257.4 83.4 256.7 82.0L256.7 82.0L256.6 82.0L256.6 83.4Q256.6 84.1 256.2 84.5Q255.7 84.9 255.0 84.9ZM260.8 82.2L260.8 82.2Q262.6 82.2 263.7 80.8Q264.8 79.4 264.8 77.0L264.8 77.0Q264.8 74.5 263.7 73.1Q262.6 71.7 260.8 71.7L260.8 71.7Q259.0 71.7 257.8 73.1Q256.7 74.6 256.7 77.0L256.7 77.0Q256.7 79.3 257.8 80.8Q259.0 82.2 260.8 82.2ZM277.2 85.0L277.2 85.0Q273.7 85.0 271.8 82.9Q269.8 80.8 269.8 77.0L269.8 77.0Q269.8 73.4 271.8 71.2Q273.7 69.0 277.0 69.0L277.0 69.0Q280.0 69.0 282.0 71.0Q283.9 73.0 283.9 76.1L283.9 76.1Q283.9 76.9 283.5 77.3Q283.1 77.8 282.3 77.8L282.3 77.8L273.0 77.8L273.0 77.8Q273.0 79.9 274.1 81.2Q275.2 82.4 277.1 82.4L277.1 82.4Q278.4 82.4 279.3 81.9Q280.2 81.4 281.1 80.2L281.1 80.2Q281.6 79.6 282.2 79.6L282.2 79.6Q282.8 79.6 283.2 80.0Q283.5 80.3 283.5 80.9L283.5 80.9Q283.5 81.3 283.3 81.8L283.3 81.8Q282.5 83.3 280.9 84.1Q279.3 85.0 277.2 85.0ZM273.0 75.5L273.0 75.5L280.7 75.5Q280.7 73.7 279.6 72.6Q278.6 71.5 277.0 71.5L277.0 71.5Q275.3 71.5 274.2 72.6Q273.1 73.7 273.0 75.5ZM287.9 84.9L287.9 84.9Q287.2 84.9 286.8 84.5Q286.3 84.0 286.3 83.3L286.3 83.3L286.3 70.6Q286.3 69.9 286.8 69.4Q287.2 69.0 287.9 69.0L287.9 69.0Q288.5 69.0 288.9 69.4Q289.3 69.9 289.3 70.6L289.3 70.6L289.3 71.9L289.4 71.9Q289.7 70.6 290.7 69.8Q291.6 69.0 292.8 69.0L292.8 69.0Q293.6 69.0 294.0 69.4L294.0 69.4Q294.5 69.7 294.5 70.5L294.5 70.5Q294.5 71.2 294.0 71.6L294.0 71.6Q293.5 72.0 292.6 72.0L292.6 72.0Q291.0 72.0 290.3 73.0Q289.5 73.9 289.5 75.4L289.5 75.4L289.5 83.3Q289.5 84.0 289.1 84.5Q288.6 84.9 287.9 84.9Z M315.5 84.7L303.8 84.7Q303.1 84.7 302.7 84.3Q302.3 83.9 302.3 83.3L302.3 83.3Q302.3 82.8 302.5 82.5Q302.6 82.1 303.2 81.6L303.2 81.6L309.8 74.9Q311.9 72.8 312.5 71.7Q313.2 70.6 313.2 69.3L313.2 69.3Q313.2 67.8 312.2 66.8Q311.1 65.8 309.5 65.8L309.5 65.8Q306.4 65.8 305.3 69.0L305.3 69.0Q305.1 69.5 304.7 69.8Q304.4 70.0 303.8 70.0L303.8 70.0Q303.1 70.0 302.8 69.6Q302.4 69.3 302.4 68.6L302.4 68.6Q302.4 68.3 302.5 68.0L302.5 68.0Q302.6 67.1 303.2 66.3Q303.7 65.4 304.6 64.7Q305.5 64.0 306.8 63.6Q308.1 63.1 309.6 63.1L309.6 63.1Q312.6 63.1 314.5 64.8Q316.5 66.5 316.5 69.1L316.5 69.1Q316.5 70.9 315.5 72.5Q314.5 74.0 311.8 76.8L311.8 76.8L306.7 81.8L306.7 81.9L315.5 81.9Q316.2 81.9 316.6 82.3Q317.0 82.7 317.0 83.3L317.0 83.3Q317.0 83.9 316.6 84.3Q316.2 84.7 315.5 84.7L315.5 84.7ZM333.4 82.1Q331.2 85.1 327.4 85.1Q323.7 85.1 321.5 82.1Q319.3 79.2 319.3 74.1L319.3 74.1Q319.3 69.0 321.5 66.1Q323.7 63.1 327.4 63.1L327.4 63.1Q331.2 63.1 333.4 66.1Q335.5 69.0 335.5 74.1L335.5 74.1Q335.5 79.1 333.4 82.1ZM327.4 82.3L327.4 82.3Q329.7 82.3 331.0 80.1Q332.2 77.9 332.2 74.1L332.2 74.1Q332.2 70.3 331.0 68.1Q329.7 65.9 327.4 65.9Q325.2 65.9 323.9 68.1Q322.7 70.3 322.7 74.1L322.7 74.1Q322.7 77.9 323.9 80.1Q325.2 82.3 327.4 82.3ZM351.6 84.7L339.9 84.7Q339.2 84.7 338.8 84.3Q338.4 83.9 338.4 83.3L338.4 83.3Q338.4 82.8 338.6 82.5Q338.7 82.1 339.3 81.6L339.3 81.6L345.9 74.9Q348.0 72.8 348.6 71.7Q349.3 70.6 349.3 69.3L349.3 69.3Q349.3 67.8 348.3 66.8Q347.2 65.8 345.6 65.8L345.6 65.8Q342.5 65.8 341.4 69.0L341.4 69.0Q341.2 69.5 340.8 69.8Q340.5 70.0 339.9 70.0L339.9 70.0Q339.2 70.0 338.9 69.6Q338.5 69.3 338.5 68.6L338.5 68.6Q338.5 68.3 338.5 68.0L338.5 68.0Q338.7 67.1 339.3 66.3Q339.8 65.4 340.7 64.7Q341.6 64.0 342.8 63.6Q344.1 63.1 345.7 63.1L345.7 63.1Q348.7 63.1 350.6 64.8Q352.6 66.5 352.6 69.1L352.6 69.1Q352.6 70.9 351.6 72.5Q350.6 74.0 347.9 76.8L347.9 76.8L342.8 81.8L342.8 81.9L351.6 81.9Q352.3 81.9 352.7 82.3Q353.1 82.7 353.1 83.3L353.1 83.3Q353.1 83.9 352.7 84.3Q352.3 84.7 351.6 84.7L351.6 84.7ZM367.4 84.9L367.4 84.9Q366.7 84.9 366.3 84.5Q365.9 84.0 365.9 83.3L365.9 83.3L365.9 80.5L357.2 80.5Q356.3 80.5 355.8 80.0Q355.2 79.4 355.2 78.6L355.2 78.6Q355.2 77.6 356.0 76.3L356.0 76.3Q357.8 73.0 362.8 65.7L362.8 65.7Q363.8 64.3 364.5 63.8Q365.3 63.2 366.3 63.2L366.3 63.2Q367.6 63.2 368.3 63.9Q369.0 64.5 369.0 65.7L369.0 65.7L369.0 77.7L370.7 77.7Q371.3 77.7 371.7 78.1Q372.1 78.5 372.1 79.1Q372.1 79.7 371.7 80.1Q371.3 80.5 370.7 80.5L370.7 80.5L369.0 80.5L369.0 83.3Q369.0 84.0 368.6 84.5Q368.1 84.9 367.4 84.9ZM358.3 77.8L365.9 77.8L365.9 66.1L365.8 66.1Q360.4 73.9 358.3 77.7L358.3 77.7L358.3 77.8Z "/><mask id="satori_om-id-0-0-1"><rect x="40" y="137" width="1120" height="243" fill="#fff"/></mask><path fill="#224d67" d="M57.8 200.1L57.8 200.1Q56.1 200.1 55.1 199.1Q54.1 198.0 54.1 196.2L54.1 196.2L54.1 163.7L44.4 163.7Q42.8 163.7 41.9 162.8Q40.9 162.0 40.9 160.5Q40.9 159.0 41.9 158.2Q42.8 157.3 44.4 157.3L44.4 157.3L71.3 157.3Q72.8 157.3 73.8 158.2Q74.7 159.0 74.7 160.5Q74.7 162.0 73.8 162.8Q72.8 163.7 71.3 163.7L71.3 163.7L61.6 163.7L61.6 196.2Q61.6 198.0 60.6 199.1Q59.6 200.1 57.8 200.1ZM103.3 195.9Q99.3 200.2 92.4 200.2Q85.5 200.2 81.4 195.9Q77.4 191.6 77.4 184.1L77.4 184.1Q77.4 176.6 81.5 172.2Q85.6 167.9 92.4 167.9L92.4 167.9Q99.2 167.9 103.3 172.2Q107.4 176.6 107.4 184.1L107.4 184.1Q107.4 191.6 103.3 195.9ZM86.8 191.7Q88.9 194.4 92.4 194.4Q95.9 194.4 97.9 191.7Q100 189.0 100 184.1L100 184.1Q100 179.2 97.9 176.4Q95.9 173.7 92.4 173.7L92.4 173.7Q88.9 173.7 86.8 176.4Q84.8 179.2 84.8 184.1L84.8 184.1Q84.8 189.0 86.8 191.7ZM121.9 200.2L121.9 200.2Q120.1 200.2 119.0 199.3Q117.9 198.4 117.3 196.4L117.3 196.4L110.6 173.2Q110.3 171.9 110.3 171.0L110.3 171.0Q110.3 169.7 111.2 168.8Q112.2 167.9 113.8 167.9L113.8 167.9Q116.5 167.9 117.2 171.0L117.2 171.0L122.3 192.4L122.5 192.4L127.9 171.2Q128.7 167.9 132.1 167.9L132.1 167.9Q135.4 167.9 136.2 171.2L136.2 171.2L141.6 192.4L141.8 192.4L146.9 171.0Q147.6 167.9 150.3 167.9L150.3 167.9Q151.8 167.9 152.8 168.8Q153.8 169.6 153.8 171.0L153.8 171.0Q153.8 171.9 153.4 173.2L153.4 173.2L146.7 196.4Q146.1 198.3 145 199.3Q143.9 200.2 142.0 200.2L142.0 200.2Q140.1 200.2 139.0 199.3Q137.9 198.4 137.4 196.4L137.4 196.4L132.0 176.9L131.9 176.9L126.5 196.4Q125.6 200.2 121.9 200.2ZM167.0 200.1L167.0 200.1Q162.4 200.1 159.5 197.5Q156.6 194.9 156.6 190.7L156.6 190.7Q156.6 186.6 159.7 184.2Q162.7 181.8 168.4 181.4L168.4 181.4L176.6 180.9L176.6 178.7Q176.6 176.3 175.1 174.9Q173.6 173.6 170.8 173.6L170.8 173.6Q168.7 173.6 167.2 174.4Q165.7 175.2 164.3 177.2L164.3 177.2Q163.2 178.7 161.4 178.7L161.4 178.7Q160.0 178.7 159.2 177.9Q158.3 177.1 158.3 175.8L158.3 175.8Q158.3 174.8 158.8 173.8L158.8 173.8Q160.0 171.1 163.3 169.5Q166.7 167.9 171.1 167.9L171.1 167.9Q176.9 167.9 180.4 170.7Q183.8 173.5 183.8 178.2L183.8 178.2L183.8 196.5Q183.8 198.2 182.9 199.2Q181.9 200.2 180.3 200.2L180.3 200.2Q178.8 200.2 177.8 199.3Q176.9 198.4 176.8 196.8L176.8 196.8L176.8 194.6L176.7 194.6Q175.4 197.1 172.7 198.6Q170.0 200.1 167.0 200.1ZM169.2 194.6L169.2 194.6Q172.3 194.6 174.5 192.7Q176.6 190.8 176.6 188.1L176.6 188.1L176.6 185.7L169.4 186.1Q166.8 186.3 165.3 187.4Q163.9 188.6 163.9 190.4L163.9 190.4Q163.9 192.3 165.3 193.4Q166.8 194.6 169.2 194.6ZM196.0 199.1Q195.0 200.2 193.3 200.2Q191.7 200.2 190.7 199.1Q189.7 198.1 189.7 196.3L189.7 196.3L189.7 171.6Q189.7 169.9 190.7 168.9Q191.6 167.9 193.2 167.9L193.2 167.9Q194.7 167.9 195.7 168.9Q196.7 169.9 196.7 171.6L196.7 171.6L196.7 174.0L196.8 174.0Q197.4 171.3 199.3 169.6Q201.1 168.0 203.4 168.0L203.4 168.0Q205.1 168.0 206.0 168.8L206.0 168.8Q207.1 169.6 207.1 171.4L207.1 171.4Q207.1 173.1 206.0 174.0L206.0 174.0Q204.9 174.9 202.7 175.0L202.7 175.0Q197.0 175.0 197.0 181.4L197.0 181.4L197.0 196.3Q197.0 198.1 196.0 199.1ZM221.9 200.1L221.9 200.1Q216.0 200.1 212.5 195.7Q209.0 191.4 209.0 184.0L209.0 184.0Q209.0 176.7 212.5 172.3Q216.0 168.0 221.9 168.0L221.9 168.0Q225.2 168.0 227.7 169.5Q230.3 171.1 231.5 173.7L231.5 173.7L231.7 173.7L231.7 160.6Q231.7 158.7 232.7 157.7Q233.7 156.7 235.4 156.7Q237.0 156.7 238.0 157.7Q239.0 158.7 239.0 160.6L239.0 160.6L239.0 196.5Q239.0 198.2 238.0 199.2Q237.0 200.2 235.4 200.2L235.4 200.2Q233.8 200.2 232.7 199.2Q231.7 198.2 231.7 196.5L231.7 196.5L231.7 194.1L231.6 194.1Q230.4 196.9 227.9 198.5Q225.4 200.1 221.9 200.1ZM224.1 194.1L224.1 194.1Q227.6 194.1 229.7 191.4Q231.7 188.7 231.7 184.1L231.7 184.1Q231.7 179.5 229.7 176.7Q227.6 174.0 224.1 174.0L224.1 174.0Q220.6 174.0 218.6 176.7Q216.5 179.4 216.5 184.1L216.5 184.1Q216.5 188.7 218.5 191.4Q220.6 194.1 224.1 194.1ZM257.1 200.2L257.1 200.2Q252.3 200.2 248.9 198.5Q245.6 196.8 244.5 194.0L244.5 194.0Q244.2 193.2 244.2 192.5L244.2 192.5Q244.2 191.2 245.0 190.4Q245.9 189.6 247.2 189.6L247.2 189.6Q249.0 189.6 250.4 191.4L250.4 191.4Q251.6 193.3 253.2 194.1Q254.8 194.9 257.4 194.9L257.4 194.9Q260.0 194.9 261.5 193.9Q263.0 192.8 263.0 191.1L263.0 191.1Q263.0 189.7 262.0 188.8Q261.0 188.0 258.7 187.4L258.7 187.4L253.6 186.3Q244.6 184.3 244.6 177.4L244.6 177.4Q244.6 173.1 248.0 170.5Q251.5 167.9 257.2 167.9L257.2 167.9Q261.6 167.9 264.9 169.8Q268.1 171.6 268.8 174.4L268.8 174.4Q269.0 175.0 269.0 175.5L269.0 175.5Q269.0 176.6 268.2 177.4Q267.5 178.1 266.1 178.1L266.1 178.1Q264.3 178.1 263.4 176.7L263.4 176.7Q262.2 175.0 260.7 174.1Q259.3 173.2 257.1 173.2L257.1 173.2Q254.7 173.2 253.2 174.3Q251.7 175.3 251.7 177.0L251.7 177.0Q251.7 179.8 256.2 180.8L256.2 180.8L261.2 181.9Q266.1 183.0 268.2 184.9Q270.4 186.9 270.4 190.3L270.4 190.3Q270.4 194.8 266.7 197.5Q263.1 200.2 257.1 200.2Z M291.5 200.1L291.5 200.1Q289.7 200.1 288.7 199.0Q287.7 198.0 287.7 196.2L287.7 196.2L287.7 161.2Q287.7 159.4 288.7 158.3Q289.7 157.3 291.5 157.3L291.5 157.3L304.1 157.3Q310.5 157.3 314.4 161.2Q318.4 165.1 318.4 171.5L318.4 171.5Q318.4 177.8 314.3 181.7Q310.3 185.6 303.8 185.6L303.8 185.6L295.3 185.6L295.3 196.2Q295.3 198.0 294.3 199.1Q293.3 200.1 291.5 200.1ZM295.3 163.5L295.3 179.5L302.1 179.5Q306.2 179.5 308.4 177.4Q310.7 175.3 310.7 171.5L310.7 171.5Q310.7 167.6 308.5 165.6Q306.2 163.5 302.1 163.5L302.1 163.5L295.3 163.5ZM329.5 199.1Q328.5 200.2 326.8 200.2Q325.1 200.2 324.1 199.1Q323.2 198.1 323.2 196.3L323.2 196.3L323.2 171.6Q323.2 169.9 324.1 168.9Q325.1 167.9 326.6 167.9L326.6 167.9Q328.2 167.9 329.1 168.9Q330.1 169.9 330.1 171.6L330.1 171.6L330.1 174.0L330.2 174.0Q330.9 171.3 332.7 169.6Q334.6 168.0 336.9 168.0L336.9 168.0Q338.6 168.0 339.5 168.8L339.5 168.8Q340.5 169.6 340.5 171.4L340.5 171.4Q340.5 173.1 339.4 174.0L339.4 174.0Q338.4 174.9 336.2 175.0L336.2 175.0Q330.4 175.0 330.4 181.4L330.4 181.4L330.4 196.3Q330.4 198.1 329.5 199.1ZM352.9 200.1L352.9 200.1Q348.3 200.1 345.4 197.5Q342.5 194.9 342.5 190.7L342.5 190.7Q342.5 186.6 345.6 184.2Q348.6 181.8 354.3 181.4L354.3 181.4L362.6 180.9L362.6 178.7Q362.6 176.3 361.0 174.9Q359.5 173.6 356.8 173.6L356.8 173.6Q354.6 173.6 353.1 174.4Q351.6 175.2 350.3 177.2L350.3 177.2Q349.1 178.7 347.3 178.7L347.3 178.7Q345.9 178.7 345.1 177.9Q344.2 177.1 344.2 175.8L344.2 175.8Q344.2 174.8 344.7 173.8L344.7 173.8Q345.9 171.1 349.2 169.5Q352.6 167.9 357.1 167.9L357.1 167.9Q362.8 167.9 366.3 170.7Q369.8 173.5 369.8 178.2L369.8 178.2L369.8 196.5Q369.8 198.2 368.8 199.2Q367.8 200.2 366.2 200.2L366.2 200.2Q364.7 200.2 363.8 199.3Q362.8 198.4 362.7 196.8L362.7 196.8L362.7 194.6L362.6 194.6Q361.3 197.1 358.6 198.6Q355.9 200.1 352.9 200.1ZM355.1 194.6L355.1 194.6Q358.2 194.6 360.4 192.7Q362.6 190.8 362.6 188.1L362.6 188.1L362.6 185.7L355.4 186.1Q352.7 186.3 351.3 187.4Q349.8 188.6 349.8 190.4L349.8 190.4Q349.8 192.3 351.3 193.4Q352.7 194.6 355.1 194.6ZM389.0 211.3L389.0 211.3Q384.6 211.2 381.3 209.7Q378.0 208.2 376.4 205.6L376.4 205.6Q375.8 204.6 375.8 203.4L375.8 203.4Q375.8 202.2 376.6 201.4Q377.5 200.6 378.8 200.6L378.8 200.6Q380.3 200.6 381.5 201.8L381.5 201.8Q383.4 203.7 385.1 204.6Q386.9 205.4 389.1 205.5L389.1 205.5Q392.7 205.5 394.9 203.6Q397.0 201.7 397.0 198.6L397.0 198.6L397.0 193.7L396.8 193.7Q395.6 196.2 393.0 197.7Q390.4 199.3 387.1 199.3L387.1 199.3Q381.3 199.3 377.8 195.0Q374.3 190.8 374.3 183.7L374.3 183.7Q374.3 176.4 377.8 172.2Q381.3 168.0 387.3 168.0L387.3 168.0Q390.5 168.0 393.0 169.5Q395.5 171.1 396.9 173.8L396.9 173.8L397.0 173.8L397.0 171.6Q397.0 169.9 398.0 168.9Q399.1 167.9 400.7 167.9Q402.3 167.9 403.3 168.9Q404.3 169.9 404.3 171.6L404.3 171.6L404.3 198.6Q404.3 204.5 400.2 207.9Q396.2 211.3 389.0 211.3ZM389.3 193.6L389.3 193.6Q392.9 193.6 394.9 190.9Q397.0 188.3 397.0 183.7L397.0 183.7Q397.0 179.2 394.9 176.5Q392.8 173.8 389.3 173.8L389.3 173.8Q385.9 173.8 383.8 176.5Q381.8 179.2 381.8 183.7L381.8 183.7Q381.8 188.3 383.8 191.0Q385.9 193.6 389.3 193.6ZM413.9 200.2L413.9 200.2Q412.2 200.2 411.2 199.2Q410.3 198.1 410.3 196.3L410.3 196.3L410.3 171.6Q410.3 169.9 411.2 168.9Q412.2 167.9 413.7 167.9Q415.3 167.9 416.3 168.9Q417.3 169.9 417.3 171.6L417.3 171.6L417.3 173.9L417.4 173.9Q418.4 171.2 420.8 169.5Q423.1 167.9 426.3 167.9L426.3 167.9Q429.5 167.9 431.8 169.6Q434.1 171.2 434.9 174.2L434.9 174.2L435.1 174.2Q436.2 171.3 438.8 169.6Q441.4 167.9 444.8 167.9L444.8 167.9Q449.4 167.9 452.1 170.8Q454.9 173.6 454.9 178.3L454.9 178.3L454.9 196.3Q454.9 198.1 453.9 199.1Q452.9 200.2 451.3 200.2L451.3 200.2Q449.6 200.2 448.6 199.1Q447.6 198.1 447.6 196.3L447.6 196.3L447.6 180.1Q447.6 177.2 446.2 175.6Q444.7 174.1 442.0 174.1L442.0 174.1Q439.4 174.1 437.8 175.8Q436.1 177.6 436.1 180.4L436.1 180.4L436.1 196.3Q436.1 198.1 435.2 199.2Q434.2 200.2 432.6 200.2L432.6 200.2Q430.9 200.2 430.0 199.2Q429.0 198.1 429.0 196.3L429.0 196.3L429.0 179.7Q429.0 177.1 427.6 175.6Q426.1 174.1 423.5 174.1L423.5 174.1Q420.9 174.1 419.2 175.9Q417.5 177.8 417.5 180.6L417.5 180.6L417.5 196.3Q417.5 198.1 416.5 199.1Q415.5 200.2 413.9 200.2ZM469.8 200.1L469.8 200.1Q465.3 200.1 462.4 197.5Q459.5 194.9 459.5 190.7L459.5 190.7Q459.5 186.6 462.5 184.2Q465.6 181.8 471.3 181.4L471.3 181.4L479.5 180.9L479.5 178.7Q479.5 176.3 478.0 174.9Q476.4 173.6 473.7 173.6L473.7 173.6Q471.5 173.6 470.0 174.4Q468.6 175.2 467.2 177.2L467.2 177.2Q466.1 178.7 464.2 178.7L464.2 178.7Q462.9 178.7 462.0 177.9Q461.2 177.1 461.2 175.8L461.2 175.8Q461.2 174.8 461.7 173.8L461.7 173.8Q462.8 171.1 466.2 169.5Q469.6 167.9 474.0 167.9L474.0 167.9Q479.8 167.9 483.2 170.7Q486.7 173.5 486.7 178.2L486.7 178.2L486.7 196.5Q486.7 198.2 485.7 199.2Q484.8 200.2 483.2 200.2L483.2 200.2Q481.7 200.2 480.7 199.3Q479.8 198.4 479.7 196.8L479.7 196.8L479.7 194.6L479.5 194.6Q478.2 197.1 475.6 198.6Q472.9 200.1 469.8 200.1ZM472.1 194.6L472.1 194.6Q475.2 194.6 477.3 192.7Q479.5 190.8 479.5 188.1L479.5 188.1L479.5 185.7L472.3 186.1Q469.7 186.3 468.2 187.4Q466.8 188.6 466.8 190.4L466.8 190.4Q466.8 192.3 468.2 193.4Q469.7 194.6 472.1 194.6ZM494.6 191.9L494.6 191.9L494.6 174.1L492.6 174.1Q491.3 174.1 490.5 173.4Q489.7 172.6 489.7 171.3L489.7 171.3Q489.7 170.0 490.5 169.3Q491.3 168.5 492.6 168.5L492.6 168.5L494.6 168.5L494.6 164.4Q494.6 162.6 495.6 161.6Q496.6 160.6 498.3 160.6L498.3 160.6Q499.9 160.6 500.9 161.6Q501.9 162.6 501.9 164.4L501.9 164.4L501.9 168.5L505.3 168.5Q506.6 168.5 507.4 169.3Q508.2 170.0 508.2 171.3L508.2 171.3Q508.2 172.6 507.4 173.4Q506.6 174.1 505.3 174.1L505.3 174.1L501.9 174.1L501.9 190.3Q501.9 192.1 502.6 192.9Q503.2 193.7 504.8 193.9L504.8 193.9L505.4 193.9Q508.3 194.2 508.3 196.6L508.3 196.6Q508.3 198.2 506.9 199.1Q505.6 199.9 503.1 199.9L503.1 199.9L502.8 199.9Q494.6 199.9 494.6 191.9ZM519.4 163.0Q518.2 164.2 516.5 164.2Q514.8 164.2 513.6 163.0Q512.5 161.8 512.5 160.2L512.5 160.2Q512.5 158.5 513.6 157.4Q514.8 156.2 516.5 156.2L516.5 156.2Q518.2 156.2 519.4 157.4Q520.6 158.5 520.6 160.2L520.6 160.2Q520.6 161.8 519.4 163.0ZM519.2 199.1Q518.2 200.2 516.5 200.2Q514.8 200.2 513.9 199.1Q512.9 198.1 512.9 196.3L512.9 196.3L512.9 171.7Q512.9 170.0 513.9 168.9Q514.8 167.9 516.5 167.9Q518.2 167.9 519.2 168.9Q520.2 170.0 520.2 171.8L520.2 171.8L520.2 196.3Q520.2 198.1 519.2 199.1ZM540.0 200.2L540.0 200.2Q533.1 200.2 529.1 195.9Q525.0 191.5 525.0 184.1L525.0 184.1Q525.0 176.7 529.1 172.3Q533.1 167.9 539.9 167.9L539.9 167.9Q544.4 167.9 548.0 170.0Q551.6 172.1 552.7 175.4L552.7 175.4Q553.0 176.4 553.0 177.1L553.0 177.1Q553.0 178.5 552.2 179.3Q551.3 180.1 549.9 180.1L549.9 180.1Q548.8 180.1 548.1 179.6Q547.4 179.1 546.7 178.0L546.7 178.0Q544.4 173.8 540.1 173.8L540.1 173.8Q536.6 173.8 534.5 176.6Q532.4 179.3 532.4 184.1L532.4 184.1Q532.4 188.9 534.5 191.6Q536.6 194.3 540.1 194.3L540.1 194.3Q544.4 194.3 546.7 190.3L546.7 190.3Q547.5 189.1 548.2 188.6Q548.9 188.1 550.1 188.1L550.1 188.1Q551.4 188.1 552.3 188.9Q553.1 189.7 553.1 191.1L553.1 191.1Q553.1 191.9 552.7 192.9L552.7 192.9Q551.4 196.1 547.8 198.2Q544.3 200.2 540.0 200.2Z M584.9 200.1L584.9 200.1Q583.1 200.1 582.1 199.1Q581.1 198.0 581.1 196.2L581.1 196.2L581.1 163.7L571.4 163.7Q569.9 163.7 568.9 162.8Q568.0 162.0 568.0 160.5Q568.0 159.0 568.9 158.2Q569.9 157.3 571.4 157.3L571.4 157.3L598.3 157.3Q599.9 157.3 600.8 158.2Q601.8 159.0 601.8 160.5Q601.8 162.0 600.8 162.8Q599.9 163.7 598.3 163.7L598.3 163.7L588.6 163.7L588.6 196.2Q588.6 198.0 587.6 199.1Q586.7 200.1 584.9 200.1ZM619.5 200.2L619.5 200.2Q612.4 200.2 608.4 196.0Q604.4 191.7 604.4 184.2L604.4 184.2Q604.4 176.7 608.4 172.3Q612.4 167.9 619.1 167.9L619.1 167.9Q625.4 167.9 629.4 171.9Q633.4 176.0 633.4 182.4L633.4 182.4Q633.4 184.0 632.5 184.9Q631.6 185.8 630.0 185.8L630.0 185.8L611.7 185.8L611.7 186.0Q611.7 189.9 613.8 192.3Q615.9 194.6 619.4 194.6L619.4 194.6Q621.9 194.6 623.7 193.6Q625.4 192.7 627.2 190.4L627.2 190.4Q628.3 189.3 629.7 189.3L629.7 189.3Q630.9 189.3 631.8 190.0Q632.6 190.8 632.6 192.1L632.6 192.1Q632.6 192.9 632.1 193.9L632.1 193.9Q630.5 196.9 627.2 198.5Q623.9 200.2 619.5 200.2ZM611.7 181.0L611.7 181.0L626.2 181.0Q626.1 177.6 624.2 175.6Q622.2 173.5 619.1 173.5Q616.0 173.5 614.0 175.6Q611.9 177.7 611.7 181.0ZM641.7 200.2L641.7 200.2Q640.0 200.2 639.0 199.2Q638.1 198.1 638.1 196.3L638.1 196.3L638.1 171.6Q638.1 169.9 639.0 168.9Q640.0 167.9 641.6 167.9Q643.1 167.9 644.1 168.9Q645.1 169.9 645.1 171.6L645.1 171.6L645.1 173.9L645.2 173.9Q646.2 171.2 648.6 169.5Q650.9 167.9 654.1 167.9L654.1 167.9Q657.3 167.9 659.6 169.6Q661.9 171.2 662.7 174.2L662.7 174.2L662.9 174.2Q664.0 171.3 666.6 169.6Q669.2 167.9 672.6 167.9L672.6 167.9Q677.2 167.9 679.9 170.8Q682.7 173.6 682.7 178.3L682.7 178.3L682.7 196.3Q682.7 198.1 681.7 199.1Q680.7 200.2 679.1 200.2L679.1 200.2Q677.4 200.2 676.4 199.1Q675.4 198.1 675.4 196.3L675.4 196.3L675.4 180.1Q675.4 177.2 674.0 175.6Q672.5 174.1 669.9 174.1L669.9 174.1Q667.2 174.1 665.6 175.8Q663.9 177.6 663.9 180.4L663.9 180.4L663.9 196.3Q663.9 198.1 663.0 199.2Q662.0 200.2 660.4 200.2L660.4 200.2Q658.7 200.2 657.8 199.2Q656.8 198.1 656.8 196.3L656.8 196.3L656.8 179.7Q656.8 177.1 655.4 175.6Q653.9 174.1 651.3 174.1L651.3 174.1Q648.7 174.1 647.0 175.9Q645.4 177.8 645.4 180.6L645.4 180.6L645.4 196.3Q645.4 198.1 644.4 199.1Q643.3 200.2 641.7 200.2ZM694.8 209.6Q693.8 210.6 692.2 210.6Q690.5 210.6 689.5 209.6Q688.5 208.6 688.5 206.8L688.5 206.8L688.5 171.7Q688.5 169.9 689.5 168.9Q690.5 167.9 692.1 167.9L692.1 167.9Q693.7 167.9 694.7 168.9Q695.7 169.9 695.7 171.7L695.7 171.7L695.7 173.9L695.8 173.9Q697.2 171.1 699.7 169.6Q702.3 168.0 705.6 168.0L705.6 168.0Q711.5 168.0 715 172.3Q718.5 176.6 718.5 184.1L718.5 184.1Q718.5 191.5 715.0 195.8Q711.6 200.1 705.7 200.1L705.7 200.1Q702.4 200.1 699.8 198.6Q697.3 197.1 696.0 194.4L696.0 194.4L695.8 194.4L695.8 206.8Q695.8 208.6 694.8 209.6ZM703.4 194.1L703.4 194.1Q706.9 194.1 709.0 191.4Q711.0 188.7 711.0 184.1L711.0 184.1Q711.0 179.5 709.0 176.7Q706.9 174.0 703.4 174.0L703.4 174.0Q700.0 174.0 697.9 176.8Q695.8 179.5 695.8 184.1L695.8 184.1Q695.8 188.6 697.9 191.4Q700.0 194.1 703.4 194.1ZM747.9 195.9Q743.8 200.2 736.9 200.2Q730.0 200.2 726.0 195.9Q721.9 191.6 721.9 184.1L721.9 184.1Q721.9 176.6 726.0 172.2Q730.1 167.9 736.9 167.9L736.9 167.9Q743.8 167.9 747.9 172.2Q751.9 176.6 751.9 184.1L751.9 184.1Q751.9 191.6 747.9 195.9ZM731.3 191.7Q733.4 194.4 736.9 194.4Q740.4 194.4 742.5 191.7Q744.5 189.0 744.5 184.1L744.5 184.1Q744.5 179.2 742.5 176.4Q740.4 173.7 736.9 173.7L736.9 173.7Q733.4 173.7 731.4 176.4Q729.3 179.2 729.3 184.1L729.3 184.1Q729.3 189.0 731.3 191.7ZM762.9 199.1Q761.9 200.2 760.3 200.2Q758.6 200.2 757.6 199.1Q756.6 198.1 756.6 196.3L756.6 196.3L756.6 171.6Q756.6 169.9 757.6 168.9Q758.5 167.9 760.1 167.9L760.1 167.9Q761.6 167.9 762.6 168.9Q763.6 169.9 763.6 171.6L763.6 171.6L763.6 174.0L763.7 174.0Q764.4 171.3 766.2 169.6Q768.0 168.0 770.4 168.0L770.4 168.0Q772.1 168.0 772.9 168.8L772.9 168.8Q774.0 169.6 774.0 171.4L774.0 171.4Q774.0 173.1 772.9 174.0L772.9 174.0Q771.8 174.9 769.7 175.0L769.7 175.0Q763.9 175.0 763.9 181.4L763.9 181.4L763.9 196.3Q763.9 198.1 762.9 199.1ZM786.4 200.1L786.4 200.1Q781.8 200.1 778.9 197.5Q776.0 194.9 776.0 190.7L776.0 190.7Q776.0 186.6 779.1 184.2Q782.1 181.8 787.8 181.4L787.8 181.4L796.0 180.9L796.0 178.7Q796.0 176.3 794.5 174.9Q793.0 173.6 790.2 173.6L790.2 173.6Q788.1 173.6 786.6 174.4Q785.1 175.2 783.7 177.2L783.7 177.2Q782.6 178.7 780.8 178.7L780.8 178.7Q779.4 178.7 778.6 177.9Q777.7 177.1 777.7 175.8L777.7 175.8Q777.7 174.8 778.2 173.8L778.2 173.8Q779.4 171.1 782.7 169.5Q786.1 167.9 790.5 167.9L790.5 167.9Q796.3 167.9 799.8 170.7Q803.2 173.5 803.2 178.2L803.2 178.2L803.2 196.5Q803.2 198.2 802.3 199.2Q801.3 200.2 799.7 200.2L799.7 200.2Q798.2 200.2 797.2 199.3Q796.3 198.4 796.2 196.8L796.2 196.8L796.2 194.6L796.1 194.6Q794.7 197.1 792.1 198.6Q789.4 200.1 786.4 200.1ZM788.6 194.6L788.6 194.6Q791.7 194.6 793.9 192.7Q796.0 190.8 796.0 188.1L796.0 188.1L796.0 185.7L788.8 186.1Q786.2 186.3 784.7 187.4Q783.3 188.6 783.3 190.4L783.3 190.4Q783.3 192.3 784.7 193.4Q786.2 194.6 788.6 194.6ZM815.6 199.2Q814.6 200.2 813.0 200.2Q811.3 200.2 810.3 199.2Q809.3 198.1 809.3 196.3L809.3 196.3L809.3 160.6Q809.3 158.7 810.3 157.7Q811.3 156.7 813.0 156.7Q814.6 156.7 815.6 157.7Q816.6 158.7 816.6 160.6L816.6 160.6L816.6 196.3Q816.6 198.1 815.6 199.2Z M837.4 200.1L837.4 200.1Q835.7 200.1 834.6 199.1Q833.6 198.2 833.6 196.6L833.6 196.6Q833.6 195.6 834.1 194.3L834.1 194.3L846.4 160.9Q847.1 158.8 848.5 157.8Q849.8 156.8 851.8 156.8L851.8 156.8Q853.9 156.8 855.3 157.8Q856.6 158.7 857.4 160.9L857.4 160.9L869.7 194.3Q870.2 195.7 870.2 196.6L870.2 196.6Q870.2 198.1 869.1 199.1Q868.0 200.1 866.4 200.1L866.4 200.1Q864.9 200.1 863.9 199.3Q863.0 198.6 862.5 196.9L862.5 196.9L859.8 188.8L844.0 188.8L841.2 196.8Q840.7 198.6 839.8 199.3Q838.9 200.1 837.4 200.1ZM851.7 164.8L845.8 182.8L857.9 182.8L851.9 164.8L851.7 164.8ZM881.4 199.2Q880.4 200.2 878.8 200.2Q877.2 200.2 876.1 199.2Q875.1 198.1 875.1 196.3L875.1 196.3L875.1 160.6Q875.1 158.7 876.1 157.7Q877.2 156.7 878.8 156.7Q880.4 156.7 881.4 157.7Q882.4 158.7 882.4 160.6L882.4 160.6L882.4 196.3Q882.4 198.1 881.4 199.2ZM895.3 163.0Q894.2 164.2 892.5 164.2Q890.8 164.2 889.6 163.0Q888.4 161.8 888.4 160.2L888.4 160.2Q888.4 158.5 889.6 157.4Q890.8 156.2 892.5 156.2L892.5 156.2Q894.2 156.2 895.4 157.4Q896.5 158.5 896.5 160.2L896.5 160.2Q896.5 161.8 895.3 163.0ZM895.1 199.1Q894.1 200.2 892.5 200.2Q890.8 200.2 889.8 199.1Q888.8 198.1 888.8 196.3L888.8 196.3L888.8 171.7Q888.8 170.0 889.8 168.9Q890.8 167.9 892.5 167.9Q894.1 167.9 895.1 168.9Q896.1 170.0 896.1 171.8L896.1 171.8L896.1 196.3Q896.1 198.1 895.1 199.1ZM915.6 211.3L915.6 211.3Q911.3 211.2 907.9 209.7Q904.6 208.2 903.0 205.6L903.0 205.6Q902.4 204.6 902.4 203.4L902.4 203.4Q902.4 202.2 903.2 201.4Q904.1 200.6 905.5 200.6L905.5 200.6Q906.9 200.6 908.1 201.8L908.1 201.8Q910 203.7 911.8 204.6Q913.5 205.4 915.7 205.5L915.7 205.5Q919.3 205.5 921.5 203.6Q923.6 201.7 923.6 198.6L923.6 198.6L923.6 193.7L923.4 193.7Q922.2 196.2 919.6 197.7Q917.0 199.3 913.7 199.3L913.7 199.3Q907.9 199.3 904.4 195.0Q900.9 190.8 900.9 183.7L900.9 183.7Q900.9 176.4 904.4 172.2Q907.9 168.0 913.9 168.0L913.9 168.0Q917.1 168.0 919.6 169.5Q922.1 171.1 923.5 173.8L923.5 173.8L923.6 173.8L923.6 171.6Q923.6 169.9 924.6 168.9Q925.7 167.9 927.3 167.9Q928.9 167.9 929.9 168.9Q930.9 169.9 930.9 171.6L930.9 171.6L930.9 198.6Q930.9 204.5 926.8 207.9Q922.8 211.3 915.6 211.3ZM915.9 193.6L915.9 193.6Q919.5 193.6 921.6 190.9Q923.7 188.3 923.7 183.7L923.7 183.7Q923.7 179.2 921.5 176.5Q919.4 173.8 915.9 173.8L915.9 173.8Q912.5 173.8 910.5 176.5Q908.4 179.2 908.4 183.7L908.4 183.7Q908.4 188.3 910.5 191.0Q912.5 193.6 915.9 193.6ZM943.1 199.2Q942.1 200.2 940.5 200.2Q938.9 200.2 937.9 199.2Q936.9 198.1 936.9 196.3L936.9 196.3L936.9 171.6Q936.9 169.9 937.8 168.9Q938.7 167.9 940.4 167.9Q942.0 167.9 943.0 168.9Q944.0 169.9 944.0 171.6L944.0 171.6L944.0 173.8L944.1 173.8Q946.7 167.9 953.8 167.9L953.8 167.9Q958.9 167.9 961.7 171.0Q964.5 174.1 964.5 179.5L964.5 179.5L964.5 196.3Q964.5 198.1 963.5 199.2Q962.5 200.2 960.9 200.2Q959.2 200.2 958.2 199.2Q957.2 198.1 957.2 196.3L957.2 196.3L957.2 181.0Q957.2 177.6 955.7 175.9Q954.1 174.1 951.0 174.1L951.0 174.1Q947.9 174.1 946.0 176.2Q944.2 178.2 944.2 181.6L944.2 181.6L944.2 196.3Q944.2 198.1 943.1 199.2ZM974.0 200.2L974.0 200.2Q972.3 200.2 971.3 199.2Q970.4 198.1 970.4 196.3L970.4 196.3L970.4 171.6Q970.4 169.9 971.3 168.9Q972.3 167.9 973.8 167.9Q975.4 167.9 976.4 168.9Q977.4 169.9 977.4 171.6L977.4 171.6L977.4 173.9L977.5 173.9Q978.5 171.2 980.9 169.5Q983.2 167.9 986.3 167.9L986.3 167.9Q989.6 167.9 991.9 169.6Q994.2 171.2 995.0 174.2L995.0 174.2L995.2 174.2Q996.3 171.3 998.9 169.6Q1001.5 167.9 1004.9 167.9L1004.9 167.9Q1009.5 167.9 1012.2 170.8Q1015 173.6 1015 178.3L1015 178.3L1015 196.3Q1015 198.1 1014.0 199.1Q1013.0 200.2 1011.4 200.2L1011.4 200.2Q1009.7 200.2 1008.7 199.1Q1007.7 198.1 1007.7 196.3L1007.7 196.3L1007.7 180.1Q1007.7 177.2 1006.3 175.6Q1004.8 174.1 1002.1 174.1L1002.1 174.1Q999.5 174.1 997.9 175.8Q996.2 177.6 996.2 180.4L996.2 180.4L996.2 196.3Q996.2 198.1 995.3 199.2Q994.3 200.2 992.7 200.2L992.7 200.2Q991.0 200.2 990.1 199.2Q989.1 198.1 989.1 196.3L989.1 196.3L989.1 179.7Q989.1 177.1 987.7 175.6Q986.2 174.1 983.6 174.1L983.6 174.1Q981.0 174.1 979.3 175.9Q977.6 177.8 977.6 180.6L977.6 180.6L977.6 196.3Q977.6 198.1 976.6 199.1Q975.6 200.2 974.0 200.2ZM1034.6 200.2L1034.6 200.2Q1027.5 200.2 1023.5 196.0Q1019.5 191.7 1019.5 184.2L1019.5 184.2Q1019.5 176.7 1023.5 172.3Q1027.5 167.9 1034.2 167.9L1034.2 167.9Q1040.6 167.9 1044.5 171.9Q1048.5 176.0 1048.5 182.4L1048.5 182.4Q1048.5 184.0 1047.6 184.9Q1046.7 185.8 1045.1 185.8L1045.1 185.8L1026.8 185.8L1026.8 186.0Q1026.8 189.9 1028.9 192.3Q1031.0 194.6 1034.6 194.6L1034.6 194.6Q1037.0 194.6 1038.8 193.6Q1040.6 192.7 1042.3 190.4L1042.3 190.4Q1043.4 189.3 1044.8 189.3L1044.8 189.3Q1046.1 189.3 1046.9 190.0Q1047.7 190.8 1047.7 192.1L1047.7 192.1Q1047.7 192.9 1047.2 193.9L1047.2 193.9Q1045.7 196.9 1042.4 198.5Q1039.1 200.2 1034.6 200.2ZM1026.9 181.0L1026.9 181.0L1041.4 181.0Q1041.3 177.6 1039.3 175.6Q1037.3 173.5 1034.2 173.5Q1031.2 173.5 1029.1 175.6Q1027.1 177.7 1026.9 181.0ZM1059.5 199.2Q1058.5 200.2 1056.8 200.2Q1055.2 200.2 1054.2 199.2Q1053.2 198.1 1053.2 196.3L1053.2 196.3L1053.2 171.6Q1053.2 169.9 1054.1 168.9Q1055.1 167.9 1056.7 167.9Q1058.3 167.9 1059.3 168.9Q1060.3 169.9 1060.3 171.6L1060.3 171.6L1060.3 173.8L1060.4 173.8Q1063.1 167.9 1070.1 167.9L1070.1 167.9Q1075.2 167.9 1078.0 171.0Q1080.9 174.1 1080.9 179.5L1080.9 179.5L1080.9 196.3Q1080.9 198.1 1079.9 199.2Q1078.9 200.2 1077.2 200.2Q1075.6 200.2 1074.6 199.2Q1073.6 198.1 1073.6 196.3L1073.6 196.3L1073.6 181.0Q1073.6 177.6 1072.0 175.9Q1070.4 174.1 1067.4 174.1L1067.4 174.1Q1064.2 174.1 1062.4 176.2Q1060.5 178.2 1060.5 181.6L1060.5 181.6L1060.5 196.3Q1060.5 198.1 1059.5 199.2ZM1088.7 191.9L1088.7 191.9L1088.7 174.1L1086.7 174.1Q1085.4 174.1 1084.6 173.4Q1083.8 172.6 1083.8 171.3L1083.8 171.3Q1083.8 170.0 1084.6 169.3Q1085.4 168.5 1086.7 168.5L1086.7 168.5L1088.7 168.5L1088.7 164.4Q1088.7 162.6 1089.7 161.6Q1090.7 160.6 1092.4 160.6L1092.4 160.6Q1094.0 160.6 1095.0 161.6Q1096.0 162.6 1096.0 164.4L1096.0 164.4L1096.0 168.5L1099.4 168.5Q1100.8 168.5 1101.5 169.3Q1102.3 170.0 1102.3 171.3L1102.3 171.3Q1102.3 172.6 1101.5 173.4Q1100.7 174.1 1099.4 174.1L1099.4 174.1L1096.0 174.1L1096.0 190.3Q1096.0 192.1 1096.7 192.9Q1097.4 193.7 1098.9 193.9L1098.9 193.9L1099.5 193.9Q1102.4 194.2 1102.4 196.6L1102.4 196.6Q1102.4 198.2 1101.0 199.1Q1099.7 199.9 1097.2 199.9L1097.2 199.9L1096.9 199.9Q1088.7 199.9 1088.7 191.9Z M49.7 245.5Q48.5 246.7 46.8 246.7Q45.1 246.7 43.9 245.5Q42.8 244.3 42.8 242.7L42.8 242.7Q42.8 241.0 43.9 239.9Q45.1 238.7 46.8 238.7L46.8 238.7Q48.5 238.7 49.7 239.9Q50.9 241.0 50.9 242.7L50.9 242.7Q50.9 244.3 49.7 245.5ZM49.5 281.6Q48.5 282.7 46.8 282.7Q45.1 282.7 44.1 281.6Q43.2 280.6 43.2 278.8L43.2 278.8L43.2 254.2Q43.2 252.5 44.1 251.4Q45.1 250.4 46.8 250.4Q48.5 250.4 49.5 251.4Q50.5 252.5 50.5 254.3L50.5 254.3L50.5 278.8Q50.5 280.6 49.5 281.6ZM62.9 281.7Q61.9 282.7 60.2 282.7Q58.6 282.7 57.6 281.7Q56.6 280.6 56.6 278.8L56.6 278.8L56.6 254.1Q56.6 252.4 57.5 251.4Q58.5 250.4 60.1 250.4Q61.7 250.4 62.7 251.4Q63.7 252.4 63.7 254.1L63.7 254.1L63.7 256.3L63.8 256.3Q66.5 250.4 73.5 250.4L73.5 250.4Q78.6 250.4 81.4 253.5Q84.2 256.6 84.2 262.0L84.2 262.0L84.2 278.8Q84.2 280.6 83.2 281.7Q82.2 282.7 80.6 282.7Q79.0 282.7 78.0 281.7Q76.9 280.6 76.9 278.8L76.9 278.8L76.9 263.5Q76.9 260.1 75.4 258.4Q73.8 256.6 70.7 256.6L70.7 256.6Q67.6 256.6 65.7 258.7Q63.9 260.7 63.9 264.1L63.9 264.1L63.9 278.8Q63.9 280.6 62.9 281.7Z M117.7 282.8L117.7 282.8Q111.5 282.8 107.4 280.5Q103.3 278.2 102.0 274.5L102.0 274.5Q101.6 273.4 101.6 272.3L101.6 272.3Q101.6 270.7 102.5 269.8Q103.4 268.8 104.9 268.8L104.9 268.8Q106.2 268.8 107.0 269.4Q107.9 269.9 108.5 271.2L108.5 271.2Q109.4 273.9 111.9 275.2Q114.4 276.5 117.9 276.5L117.9 276.5Q121.7 276.5 124.2 274.8Q126.6 273.1 126.6 270.5L126.6 270.5Q126.6 268.2 124.8 266.7Q123.1 265.3 119.0 264.4L119.0 264.4L114.4 263.5Q102.0 260.9 102.0 251.6L102.0 251.6Q102.0 246.0 106.4 242.6Q110.8 239.1 117.7 239.1L117.7 239.1Q123.3 239.1 127.4 241.5Q131.4 243.9 132.7 248.0L132.7 248.0Q133.0 248.7 133.0 249.8L133.0 249.8Q133.0 251.1 132.1 252.0Q131.2 252.9 129.7 252.9L129.7 252.9Q127.2 252.9 126.1 250.5L126.1 250.5Q124.0 245.4 117.7 245.4L117.7 245.4Q114.1 245.4 111.9 246.9Q109.6 248.5 109.6 251.1L109.6 251.1Q109.6 253.3 111.4 254.7Q113.1 256.2 117.0 257.0L117.0 257.0L121.6 257.9Q128.2 259.3 131.2 262.1Q134.2 264.9 134.2 269.6L134.2 269.6Q134.2 275.7 129.8 279.2Q125.3 282.8 117.7 282.8ZM141.2 274.4L141.2 274.4L141.2 256.6L139.2 256.6Q137.9 256.6 137.1 255.9Q136.3 255.1 136.3 253.8L136.3 253.8Q136.3 252.5 137.0 251.8Q137.8 251.0 139.2 251.0L139.2 251.0L141.2 251.0L141.2 246.9Q141.2 245.1 142.1 244.1Q143.1 243.1 144.8 243.1L144.8 243.1Q146.5 243.1 147.5 244.1Q148.5 245.1 148.5 246.9L148.5 246.9L148.5 251.0L151.8 251.0Q153.2 251.0 154.0 251.8Q154.8 252.5 154.8 253.8L154.8 253.8Q154.8 255.1 154.0 255.9Q153.2 256.6 151.8 256.6L151.8 256.6L148.5 256.6L148.5 272.8Q148.5 274.6 149.1 275.4Q149.8 276.2 151.4 276.4L151.4 276.4L151.9 276.4Q154.8 276.7 154.8 279.1L154.8 279.1Q154.8 280.7 153.5 281.6Q152.1 282.4 149.6 282.4L149.6 282.4L149.3 282.4Q141.2 282.4 141.2 274.4ZM168.4 282.6L168.4 282.6Q163.8 282.6 160.9 280.0Q158.0 277.4 158.0 273.2L158.0 273.2Q158.0 269.1 161.1 266.7Q164.1 264.3 169.8 263.9L169.8 263.9L178.0 263.4L178.0 261.2Q178.0 258.8 176.5 257.4Q175.0 256.1 172.2 256.1L172.2 256.1Q170.1 256.1 168.6 256.9Q167.1 257.7 165.7 259.7L165.7 259.7Q164.6 261.2 162.8 261.2L162.8 261.2Q161.4 261.2 160.6 260.4Q159.7 259.6 159.7 258.3L159.7 258.3Q159.7 257.3 160.2 256.3L160.2 256.3Q161.4 253.6 164.7 252.0Q168.1 250.4 172.5 250.4L172.5 250.4Q178.3 250.4 181.8 253.2Q185.3 256.0 185.3 260.7L185.3 260.7L185.3 279.0Q185.3 280.7 184.3 281.7Q183.3 282.7 181.7 282.7L181.7 282.7Q180.2 282.7 179.2 281.8Q178.3 280.9 178.2 279.3L178.2 279.3L178.2 277.1L178.1 277.1Q176.8 279.6 174.1 281.1Q171.4 282.6 168.4 282.6ZM170.6 277.1L170.6 277.1Q173.7 277.1 175.9 275.2Q178.0 273.3 178.0 270.6L178.0 270.6L178.0 268.2L170.8 268.6Q168.2 268.8 166.8 269.9Q165.3 271.1 165.3 272.9L165.3 272.9Q165.3 274.8 166.8 275.9Q168.2 277.1 170.6 277.1ZM193.1 274.4L193.1 274.4L193.1 256.6L191.2 256.6Q189.8 256.6 189.0 255.9Q188.2 255.1 188.2 253.8L188.2 253.8Q188.2 252.5 189.0 251.8Q189.8 251.0 191.2 251.0L191.2 251.0L193.1 251.0L193.1 246.9Q193.1 245.1 194.1 244.1Q195.1 243.1 196.8 243.1L196.8 243.1Q198.5 243.1 199.4 244.1Q200.4 245.1 200.4 246.9L200.4 246.9L200.4 251.0L203.8 251.0Q205.2 251.0 206.0 251.8Q206.7 252.5 206.7 253.8L206.7 253.8Q206.7 255.1 205.9 255.9Q205.1 256.6 203.8 256.6L203.8 256.6L200.4 256.6L200.4 272.8Q200.4 274.6 201.1 275.4Q201.8 276.2 203.4 276.4L203.4 276.4L203.9 276.4Q206.8 276.7 206.8 279.1L206.8 279.1Q206.8 280.7 205.5 281.6Q204.1 282.4 201.6 282.4L201.6 282.4L201.3 282.4Q193.1 282.4 193.1 274.4ZM225.0 282.7L225.0 282.7Q217.9 282.7 213.9 278.5Q210.0 274.2 210.0 266.7L210.0 266.7Q210.0 259.2 213.9 254.8Q217.9 250.4 224.6 250.4L224.6 250.4Q231.0 250.4 235.0 254.4Q238.9 258.5 238.9 264.9L238.9 264.9Q238.9 266.5 238.0 267.4Q237.1 268.3 235.5 268.3L235.5 268.3L217.2 268.3L217.2 268.5Q217.2 272.4 219.3 274.8Q221.4 277.1 225.0 277.1L225.0 277.1Q227.4 277.1 229.2 276.1Q231.0 275.2 232.7 272.9L232.7 272.9Q233.8 271.8 235.2 271.8L235.2 271.8Q236.5 271.8 237.3 272.5Q238.1 273.3 238.1 274.6L238.1 274.6Q238.1 275.4 237.6 276.4L237.6 276.4Q236.1 279.4 232.8 281.0Q229.5 282.7 225.0 282.7ZM217.3 263.5L217.3 263.5L231.8 263.5Q231.7 260.1 229.7 258.1Q227.7 256.0 224.7 256.0Q221.6 256.0 219.5 258.1Q217.5 260.2 217.3 263.5ZM251.9 281.7Q251.0 282.7 249.3 282.7Q247.6 282.7 246.6 281.7Q245.6 280.7 245.6 278.9L245.6 278.9L245.6 256.6L243.7 256.6Q242.4 256.6 241.7 255.9Q240.9 255.2 240.9 253.9L240.9 253.9Q240.9 252.6 241.7 251.9Q242.4 251.1 243.7 251.1L243.7 251.1L245.6 251.1L245.6 248.4Q245.6 239.5 254.2 239.5L254.2 239.5Q257.0 239.5 258.4 240.3Q259.8 241.1 259.8 242.5L259.8 242.5Q259.8 244.2 258.2 244.6L258.2 244.6Q257.5 244.8 256.6 244.8L256.6 244.8Q254.6 244.9 253.7 245.8Q252.8 246.7 252.8 248.7L252.8 248.7L252.8 251.1L256.7 251.1Q258.0 251.1 258.7 251.9Q259.5 252.6 259.5 253.9L259.5 253.9Q259.5 255.2 258.7 255.9Q258.0 256.6 256.7 256.6L256.7 256.6L252.9 256.6L252.9 278.9Q252.9 280.7 251.9 281.7ZM274.7 282.6L274.7 282.6Q269.6 282.6 266.7 279.5Q263.7 276.5 263.7 271.1L263.7 271.1L263.7 254.2Q263.7 252.5 264.7 251.4Q265.7 250.4 267.3 250.4Q269.0 250.4 270.0 251.4Q271.0 252.5 271.0 254.3L271.0 254.3L271.0 269.6Q271.0 273.0 272.6 274.7Q274.2 276.5 277.2 276.5L277.2 276.5Q280.4 276.5 282.2 274.4Q284.1 272.4 284.1 269.0L284.1 269.0L284.1 254.2Q284.1 252.5 285.1 251.4Q286.1 250.4 287.7 250.4L287.7 250.4Q289.3 250.4 290.4 251.4Q291.4 252.5 291.4 254.3L291.4 254.3L291.4 279.0Q291.4 280.7 290.4 281.7Q289.5 282.7 287.9 282.7L287.9 282.7Q286.3 282.7 285.3 281.7Q284.3 280.7 284.3 279.0L284.3 279.0L284.3 276.7L284.2 276.7Q281.6 282.6 274.7 282.6ZM303.8 281.7Q302.8 282.7 301.2 282.7Q299.5 282.7 298.5 281.7Q297.5 280.6 297.5 278.8L297.5 278.8L297.5 243.1Q297.5 241.2 298.5 240.2Q299.5 239.2 301.2 239.2Q302.8 239.2 303.8 240.2Q304.8 241.2 304.8 243.1L304.8 243.1L304.8 278.8Q304.8 280.6 303.8 281.7Z M342.3 282.8L342.3 282.8Q333.1 282.8 327.7 276.9Q322.3 271.0 322.3 260.8L322.3 260.8Q322.3 250.7 327.7 244.9Q333.0 239.1 342.2 239.1L342.2 239.1Q348.1 239.1 352.6 241.7Q357.1 244.3 358.9 248.4L358.9 248.4Q359.4 249.7 359.4 250.9L359.4 250.9Q359.4 252.4 358.5 253.3Q357.6 254.2 356.1 254.2L356.1 254.2Q353.7 254.2 352.4 251.8L352.4 251.8Q349.2 245.5 342.2 245.5L342.2 245.5Q336.5 245.5 333.3 249.5Q330.1 253.5 330.1 260.7L330.1 260.7Q330.1 268.0 333.4 272.2Q336.7 276.4 342.4 276.4L342.4 276.4Q347.2 276.4 350.2 273.6Q353.3 270.9 353.4 266.4L353.4 266.4L353.4 265.7L345.9 265.7Q344.5 265.7 343.6 264.9Q342.7 264.1 342.7 262.8Q342.7 261.5 343.6 260.7Q344.5 259.9 345.9 259.9L345.9 259.9L357.0 259.9Q358.8 259.9 359.8 261.0Q360.8 262.0 360.8 263.9L360.8 263.9L360.8 264.7Q360.8 273.1 355.9 277.9Q351.0 282.8 342.3 282.8ZM380.0 282.7L380.0 282.7Q372.9 282.7 368.9 278.5Q364.9 274.2 364.9 266.7L364.9 266.7Q364.9 259.2 368.9 254.8Q372.9 250.4 379.6 250.4L379.6 250.4Q385.9 250.4 389.9 254.4Q393.9 258.5 393.9 264.9L393.9 264.9Q393.9 266.5 393.0 267.4Q392.1 268.3 390.5 268.3L390.5 268.3L372.2 268.3L372.2 268.5Q372.2 272.4 374.3 274.8Q376.4 277.1 379.9 277.1L379.9 277.1Q382.4 277.1 384.2 276.1Q385.9 275.2 387.7 272.9L387.7 272.9Q388.8 271.8 390.2 271.8L390.2 271.8Q391.4 271.8 392.3 272.5Q393.1 273.3 393.1 274.6L393.1 274.6Q393.1 275.4 392.6 276.4L392.6 276.4Q391.0 279.4 387.7 281.0Q384.4 282.7 380.0 282.7ZM372.2 263.5L372.2 263.5L386.7 263.5Q386.6 260.1 384.6 258.1Q382.7 256.0 379.6 256.0Q376.5 256.0 374.5 258.1Q372.4 260.2 372.2 263.5ZM404.8 281.7Q403.8 282.7 402.2 282.7Q400.6 282.7 399.6 281.7Q398.6 280.6 398.6 278.8L398.6 278.8L398.6 254.1Q398.6 252.4 399.5 251.4Q400.4 250.4 402.1 250.4Q403.7 250.4 404.7 251.4Q405.7 252.4 405.7 254.1L405.7 254.1L405.7 256.3L405.8 256.3Q408.4 250.4 415.5 250.4L415.5 250.4Q420.6 250.4 423.4 253.5Q426.2 256.6 426.2 262.0L426.2 262.0L426.2 278.8Q426.2 280.6 425.2 281.7Q424.2 282.7 422.6 282.7Q420.9 282.7 419.9 281.7Q418.9 280.6 418.9 278.8L418.9 278.8L418.9 263.5Q418.9 260.1 417.4 258.4Q415.8 256.6 412.7 256.6L412.7 256.6Q409.6 256.6 407.7 258.7Q405.9 260.7 405.9 264.1L405.9 264.1L405.9 278.8Q405.9 280.6 404.8 281.7ZM445.8 282.7L445.8 282.7Q438.7 282.7 434.7 278.5Q430.8 274.2 430.8 266.7L430.8 266.7Q430.8 259.2 434.7 254.8Q438.7 250.4 445.4 250.4L445.4 250.4Q451.8 250.4 455.8 254.4Q459.7 258.5 459.7 264.9L459.7 264.9Q459.7 266.5 458.8 267.4Q457.9 268.3 456.3 268.3L456.3 268.3L438.0 268.3L438.0 268.5Q438.0 272.4 440.1 274.8Q442.2 277.1 445.8 277.1L445.8 277.1Q448.3 277.1 450.0 276.1Q451.8 275.2 453.6 272.9L453.6 272.9Q454.6 271.8 456.0 271.8L456.0 271.8Q457.3 271.8 458.1 272.5Q458.9 273.3 458.9 274.6L458.9 274.6Q458.9 275.4 458.4 276.4L458.4 276.4Q456.9 279.4 453.6 281.0Q450.3 282.7 445.8 282.7ZM438.1 263.5L438.1 263.5L452.6 263.5Q452.5 260.1 450.5 258.1Q448.5 256.0 445.5 256.0Q442.4 256.0 440.3 258.1Q438.3 260.2 438.1 263.5ZM470.7 281.6Q469.7 282.7 468.1 282.7Q466.4 282.7 465.4 281.6Q464.4 280.6 464.4 278.8L464.4 278.8L464.4 254.1Q464.4 252.4 465.4 251.4Q466.3 250.4 467.9 250.4L467.9 250.4Q469.4 250.4 470.4 251.4Q471.4 252.4 471.4 254.1L471.4 254.1L471.4 256.5L471.5 256.5Q472.2 253.8 474.0 252.1Q475.8 250.5 478.2 250.5L478.2 250.5Q479.9 250.5 480.7 251.3L480.7 251.3Q481.8 252.1 481.8 253.9L481.8 253.9Q481.8 255.6 480.7 256.5L480.7 256.5Q479.6 257.4 477.5 257.5L477.5 257.5Q471.7 257.5 471.7 263.9L471.7 263.9L471.7 278.8Q471.7 280.6 470.7 281.6ZM494.2 282.6L494.2 282.6Q489.6 282.6 486.7 280.0Q483.8 277.4 483.8 273.2L483.8 273.2Q483.8 269.1 486.9 266.7Q489.9 264.3 495.6 263.9L495.6 263.9L503.8 263.4L503.8 261.2Q503.8 258.8 502.3 257.4Q500.8 256.1 498.0 256.1L498.0 256.1Q495.9 256.1 494.4 256.9Q492.9 257.7 491.5 259.7L491.5 259.7Q490.4 261.2 488.6 261.2L488.6 261.2Q487.2 261.2 486.4 260.4Q485.5 259.6 485.5 258.3L485.5 258.3Q485.5 257.3 486.0 256.3L486.0 256.3Q487.2 253.6 490.5 252.0Q493.9 250.4 498.3 250.4L498.3 250.4Q504.1 250.4 507.6 253.2Q511.0 256.0 511.0 260.7L511.0 260.7L511.0 279.0Q511.0 280.7 510.1 281.7Q509.1 282.7 507.5 282.7L507.5 282.7Q506.0 282.7 505.0 281.8Q504.1 280.9 504.0 279.3L504.0 279.3L504.0 277.1L503.9 277.1Q502.5 279.6 499.9 281.1Q497.2 282.6 494.2 282.6ZM496.4 277.1L496.4 277.1Q499.5 277.1 501.7 275.2Q503.8 273.3 503.8 270.6L503.8 270.6L503.8 268.2L496.6 268.6Q494.0 268.8 492.5 269.9Q491.1 271.1 491.1 272.9L491.1 272.9Q491.1 274.8 492.5 275.9Q494.0 277.1 496.4 277.1ZM518.9 274.4L518.9 274.4L518.9 256.6L517.0 256.6Q515.6 256.6 514.8 255.9Q514.0 255.1 514.0 253.8L514.0 253.8Q514.0 252.5 514.8 251.8Q515.6 251.0 517.0 251.0L517.0 251.0L518.9 251.0L518.9 246.9Q518.9 245.1 519.9 244.1Q520.9 243.1 522.6 243.1L522.6 243.1Q524.2 243.1 525.2 244.1Q526.2 245.1 526.2 246.9L526.2 246.9L526.2 251.0L529.6 251.0Q531.0 251.0 531.7 251.8Q532.5 252.5 532.5 253.8L532.5 253.8Q532.5 255.1 531.7 255.9Q530.9 256.6 529.6 256.6L529.6 256.6L526.2 256.6L526.2 272.8Q526.2 274.6 526.9 275.4Q527.6 276.2 529.1 276.4L529.1 276.4L529.7 276.4Q532.6 276.7 532.6 279.1L532.6 279.1Q532.6 280.7 531.3 281.6Q529.9 282.4 527.4 282.4L527.4 282.4L527.1 282.4Q518.9 282.4 518.9 274.4ZM543.7 245.5Q542.5 246.7 540.8 246.7Q539.1 246.7 538.0 245.5Q536.8 244.3 536.8 242.7L536.8 242.7Q536.8 241.0 538.0 239.9Q539.1 238.7 540.8 238.7L540.8 238.7Q542.6 238.7 543.7 239.9Q544.9 241.0 544.9 242.7L544.9 242.7Q544.9 244.3 543.7 245.5ZM543.5 281.6Q542.5 282.7 540.8 282.7Q539.2 282.7 538.2 281.6Q537.2 280.6 537.2 278.8L537.2 278.8L537.2 254.2Q537.2 252.5 538.2 251.4Q539.2 250.4 540.8 250.4Q542.5 250.4 543.5 251.4Q544.5 252.5 544.5 254.3L544.5 254.3L544.5 278.8Q544.5 280.6 543.5 281.6ZM563.0 282.7L563.0 282.7Q561.0 282.7 559.8 281.8Q558.6 280.9 557.9 278.9L557.9 278.9L549.2 255.8Q548.8 254.7 548.8 253.7L548.8 253.7Q548.8 252.3 549.8 251.3Q550.8 250.4 552.4 250.4L552.4 250.4Q555.1 250.4 555.9 253.3L555.9 253.3L563.0 275.3L563.1 275.3L570.2 253.3Q571.0 250.4 573.6 250.4L573.6 250.4Q575.2 250.4 576.2 251.3Q577.2 252.3 577.2 253.7L577.2 253.7Q577.2 254.7 576.8 255.7L576.8 255.7L568.1 278.9Q567.4 280.8 566.2 281.8Q565.0 282.7 563.0 282.7ZM595.1 282.7L595.1 282.7Q588.0 282.7 584.0 278.5Q580 274.2 580 266.7L580 266.7Q580 259.2 584.0 254.8Q588.0 250.4 594.7 250.4L594.7 250.4Q601.0 250.4 605.0 254.4Q609.0 258.5 609.0 264.9L609.0 264.9Q609.0 266.5 608.1 267.4Q607.2 268.3 605.6 268.3L605.6 268.3L587.3 268.3L587.3 268.5Q587.3 272.4 589.4 274.8Q591.5 277.1 595.0 277.1L595.0 277.1Q597.5 277.1 599.3 276.1Q601.0 275.2 602.8 272.9L602.8 272.9Q603.8 271.8 605.3 271.8L605.3 271.8Q606.5 271.8 607.3 272.5Q608.2 273.3 608.2 274.6L608.2 274.6Q608.2 275.4 607.7 276.4L607.7 276.4Q606.1 279.4 602.8 281.0Q599.5 282.7 595.1 282.7ZM587.3 263.5L587.3 263.5L601.8 263.5Q601.7 260.1 599.7 258.1Q597.8 256.0 594.7 256.0Q591.6 256.0 589.6 258.1Q587.5 260.2 587.3 263.5Z M628.3 282.6L628.3 282.6Q626.5 282.6 625.5 281.6Q624.4 280.7 624.4 279.1L624.4 279.1Q624.4 278.1 624.9 276.8L624.9 276.8L637.2 243.4Q638.0 241.3 639.3 240.3Q640.6 239.3 642.7 239.3L642.7 239.3Q644.8 239.3 646.1 240.3Q647.4 241.2 648.2 243.4L648.2 243.4L660.5 276.8Q661.0 278.2 661.0 279.1L661.0 279.1Q661.0 280.6 660.0 281.6Q658.9 282.6 657.3 282.6L657.3 282.6Q655.7 282.6 654.8 281.8Q653.9 281.1 653.4 279.4L653.4 279.4L650.6 271.3L634.8 271.3L632.0 279.3Q631.5 281.1 630.6 281.8Q629.7 282.6 628.3 282.6ZM642.5 247.3L636.6 265.3L648.8 265.3L642.8 247.3L642.5 247.3ZM670.3 282.6L670.3 282.6Q668.5 282.6 667.5 281.5Q666.5 280.5 666.5 278.7L666.5 278.7L666.5 243.2Q666.5 241.4 667.5 240.3Q668.5 239.3 670.3 239.3L670.3 239.3Q672.1 239.3 673.1 240.3Q674.1 241.4 674.1 243.2L674.1 243.2L674.1 278.7Q674.1 280.5 673.1 281.6Q672.1 282.6 670.3 282.6Z M708.4 282.8L708.4 282.8Q702.3 282.8 698.1 280.5Q694.0 278.2 692.7 274.5L692.7 274.5Q692.3 273.4 692.3 272.3L692.3 272.3Q692.3 270.7 693.2 269.8Q694.1 268.8 695.6 268.8L695.6 268.8Q696.9 268.8 697.7 269.4Q698.6 269.9 699.2 271.2L699.2 271.2Q700.1 273.9 702.6 275.2Q705.1 276.5 708.6 276.5L708.6 276.5Q712.5 276.5 714.9 274.8Q717.3 273.1 717.3 270.5L717.3 270.5Q717.3 268.2 715.5 266.7Q713.8 265.3 709.7 264.4L709.7 264.4L705.2 263.5Q692.7 260.9 692.7 251.6L692.7 251.6Q692.7 246.0 697.1 242.6Q701.5 239.1 708.4 239.1L708.4 239.1Q714.1 239.1 718.1 241.5Q722.1 243.9 723.4 248.0L723.4 248.0Q723.7 248.7 723.7 249.8L723.7 249.8Q723.7 251.1 722.8 252.0Q721.9 252.9 720.4 252.9L720.4 252.9Q718.0 252.9 716.8 250.5L716.8 250.5Q714.7 245.4 708.4 245.4L708.4 245.4Q704.8 245.4 702.6 246.9Q700.4 248.5 700.4 251.1L700.4 251.1Q700.4 253.3 702.1 254.7Q703.8 256.2 707.7 257.0L707.7 257.0L712.3 257.9Q718.9 259.3 721.9 262.1Q724.9 264.9 724.9 269.6L724.9 269.6Q724.9 275.7 720.5 279.2Q716.0 282.8 708.4 282.8ZM734.3 293.6L734.3 293.6Q731.8 293.6 730.5 292.7Q729.2 291.8 729.2 290.2L729.2 290.2Q729.2 289.1 730.0 288.4Q730.7 287.7 732.0 287.7L732.0 287.7Q732.3 287.7 732.8 287.7Q733.2 287.7 733.6 287.7L733.6 287.7Q736.6 287.7 738.0 284.2L738.0 284.2L738.5 282.6L728.4 255.9Q727.9 254.7 727.9 253.8L727.9 253.8Q727.9 252.3 729.0 251.4Q730.1 250.4 731.7 250.4L731.7 250.4Q733.1 250.4 733.9 251.1Q734.7 251.8 735.2 253.3L735.2 253.3L742.6 275.9L742.7 275.9L750.1 253.3Q750.6 251.8 751.4 251.1Q752.3 250.4 753.6 250.4L753.6 250.4Q755.2 250.4 756.2 251.3Q757.2 252.3 757.2 253.7L757.2 253.7Q757.2 254.7 756.8 255.8L756.8 255.8L746.6 283.2Q744.4 289.0 741.7 291.3Q739.0 293.6 734.3 293.6ZM773.2 282.7L773.2 282.7Q768.3 282.7 765.0 281.0Q761.6 279.3 760.5 276.5L760.5 276.5Q760.2 275.7 760.2 275.0L760.2 275.0Q760.2 273.7 761.1 272.9Q761.9 272.1 763.3 272.1L763.3 272.1Q765.1 272.1 766.4 273.9L766.4 273.9Q767.7 275.8 769.3 276.6Q770.9 277.4 773.4 277.4L773.4 277.4Q776.0 277.4 777.5 276.4Q779.1 275.3 779.1 273.6L779.1 273.6Q779.1 272.2 778.1 271.3Q777.1 270.5 774.7 269.9L774.7 269.9L769.7 268.8Q760.6 266.8 760.6 259.9L760.6 259.9Q760.6 255.6 764.1 253.0Q767.5 250.4 773.3 250.4L773.3 250.4Q777.7 250.4 780.9 252.3Q784.1 254.1 784.8 256.9L784.8 256.9Q785.0 257.5 785.0 258.0L785.0 258.0Q785.0 259.1 784.3 259.9Q783.5 260.6 782.2 260.6L782.2 260.6Q780.3 260.6 779.4 259.2L779.4 259.2Q778.3 257.5 776.8 256.6Q775.3 255.7 773.1 255.7L773.1 255.7Q770.7 255.7 769.2 256.8Q767.7 257.8 767.7 259.5L767.7 259.5Q767.7 262.3 772.3 263.3L772.3 263.3L777.2 264.4Q782.1 265.5 784.3 267.4Q786.4 269.4 786.4 272.8L786.4 272.8Q786.4 277.3 782.7 280.0Q779.1 282.7 773.2 282.7ZM793.0 274.4L793.0 274.4L793.0 256.6L791.1 256.6Q789.7 256.6 788.9 255.9Q788.1 255.1 788.1 253.8L788.1 253.8Q788.1 252.5 788.9 251.8Q789.7 251.0 791.1 251.0L791.1 251.0L793.0 251.0L793.0 246.9Q793.0 245.1 794.0 244.1Q795.0 243.1 796.7 243.1L796.7 243.1Q798.3 243.1 799.3 244.1Q800.3 245.1 800.3 246.9L800.3 246.9L800.3 251.0L803.7 251.0Q805.1 251.0 805.8 251.8Q806.6 252.5 806.6 253.8L806.6 253.8Q806.6 255.1 805.8 255.9Q805.0 256.6 803.7 256.6L803.7 256.6L800.3 256.6L800.3 272.8Q800.3 274.6 801.0 275.4Q801.7 276.2 803.2 276.4L803.2 276.4L803.8 276.4Q806.7 276.7 806.7 279.1L806.7 279.1Q806.7 280.7 805.4 281.6Q804.0 282.4 801.5 282.4L801.5 282.4L801.2 282.4Q793.0 282.4 793.0 274.4ZM824.9 282.7L824.9 282.7Q817.8 282.7 813.8 278.5Q809.8 274.2 809.8 266.7L809.8 266.7Q809.8 259.2 813.8 254.8Q817.8 250.4 824.5 250.4L824.5 250.4Q830.9 250.4 834.8 254.4Q838.8 258.5 838.8 264.9L838.8 264.9Q838.8 266.5 837.9 267.4Q837.0 268.3 835.4 268.3L835.4 268.3L817.1 268.3L817.1 268.5Q817.1 272.4 819.2 274.8Q821.3 277.1 824.9 277.1L824.9 277.1Q827.3 277.1 829.1 276.1Q830.9 275.2 832.6 272.9L832.6 272.9Q833.7 271.8 835.1 271.8L835.1 271.8Q836.3 271.8 837.2 272.5Q838.0 273.3 838.0 274.6L838.0 274.6Q838.0 275.4 837.5 276.4L837.5 276.4Q836.0 279.4 832.7 281.0Q829.3 282.7 824.9 282.7ZM817.2 263.5L817.2 263.5L831.7 263.5Q831.5 260.1 829.6 258.1Q827.6 256.0 824.5 256.0Q821.5 256.0 819.4 258.1Q817.4 260.2 817.2 263.5ZM847.1 282.7L847.1 282.7Q845.5 282.7 844.5 281.7Q843.5 280.6 843.5 278.8L843.5 278.8L843.5 254.1Q843.5 252.4 844.4 251.4Q845.4 250.4 847.0 250.4Q848.6 250.4 849.5 251.4Q850.5 252.4 850.5 254.1L850.5 254.1L850.5 256.4L850.6 256.4Q851.7 253.7 854.0 252.0Q856.4 250.4 859.5 250.4L859.5 250.4Q862.8 250.4 865.0 252.1Q867.3 253.7 868.2 256.7L868.2 256.7L868.3 256.7Q869.5 253.8 872.0 252.1Q874.6 250.4 878.0 250.4L878.0 250.4Q882.6 250.4 885.4 253.3Q888.1 256.1 888.1 260.8L888.1 260.8L888.1 278.8Q888.1 280.6 887.1 281.6Q886.2 282.7 884.5 282.7L884.5 282.7Q882.8 282.7 881.8 281.6Q880.8 280.6 880.8 278.8L880.8 278.8L880.8 262.6Q880.8 259.7 879.4 258.1Q877.9 256.6 875.3 256.6L875.3 256.6Q872.6 256.6 871.0 258.3Q869.4 260.1 869.4 262.9L869.4 262.9L869.4 278.8Q869.4 280.6 868.4 281.7Q867.5 282.7 865.8 282.7L865.8 282.7Q864.2 282.7 863.2 281.7Q862.3 280.6 862.3 278.8L862.3 278.8L862.3 262.2Q862.3 259.6 860.8 258.1Q859.3 256.6 856.8 256.6L856.8 256.6Q854.1 256.6 852.5 258.4Q850.8 260.3 850.8 263.1L850.8 263.1L850.8 278.8Q850.8 280.6 849.8 281.6Q848.8 282.7 847.1 282.7ZM906.0 282.7L906.0 282.7Q901.1 282.7 897.8 281.0Q894.4 279.3 893.3 276.5L893.3 276.5Q893.0 275.7 893.0 275.0L893.0 275.0Q893.0 273.7 893.9 272.9Q894.7 272.1 896.1 272.1L896.1 272.1Q897.9 272.1 899.2 273.9L899.2 273.9Q900.5 275.8 902.1 276.6Q903.7 277.4 906.2 277.4L906.2 277.4Q908.8 277.4 910.3 276.4Q911.9 275.3 911.9 273.6L911.9 273.6Q911.9 272.2 910.9 271.3Q909.9 270.5 907.5 269.9L907.5 269.9L902.5 268.8Q893.4 266.8 893.4 259.9L893.4 259.9Q893.4 255.6 896.9 253.0Q900.3 250.4 906.1 250.4L906.1 250.4Q910.5 250.4 913.7 252.3Q916.9 254.1 917.6 256.9L917.6 256.9Q917.8 257.5 917.8 258.0L917.8 258.0Q917.8 259.1 917.1 259.9Q916.3 260.6 915.0 260.6L915.0 260.6Q913.1 260.6 912.2 259.2L912.2 259.2Q911.1 257.5 909.6 256.6Q908.1 255.7 905.9 255.7L905.9 255.7Q903.5 255.7 902.0 256.8Q900.5 257.8 900.5 259.5L900.5 259.5Q900.5 262.3 905.1 263.3L905.1 263.3L910.0 264.4Q915.0 265.5 917.1 267.4Q919.2 269.4 919.2 272.8L919.2 272.8Q919.2 277.3 915.6 280.0Q911.9 282.7 906.0 282.7ZM928.9 261.2L928.9 261.2Q927.1 261.2 925.9 260.0Q924.7 258.8 924.7 257.0Q924.7 255.3 925.9 254.0Q927.1 252.8 928.9 252.8L928.9 252.8Q930.7 252.8 931.9 254.0Q933.1 255.3 933.1 257.0Q933.1 258.8 931.9 260.0Q930.7 261.2 928.9 261.2ZM928.9 282.4L928.9 282.4Q927.1 282.4 925.9 281.2Q924.7 280.0 924.7 278.2L924.7 278.2Q924.7 276.4 925.9 275.2Q927.1 274.0 928.9 274.0L928.9 274.0Q930.7 274.0 931.9 275.2Q933.1 276.4 933.1 278.2L933.1 278.2Q933.1 280.0 931.9 281.2Q930.7 282.4 928.9 282.4Z M954.5 282.6L954.5 282.6Q952.8 282.6 951.8 281.6Q950.7 280.7 950.7 279.1L950.7 279.1Q950.7 278.1 951.2 276.8L951.2 276.8L963.5 243.4Q964.3 241.3 965.6 240.3Q966.9 239.3 969.0 239.3L969.0 239.3Q971.1 239.3 972.4 240.3Q973.7 241.2 974.5 243.4L974.5 243.4L986.8 276.8Q987.3 278.2 987.3 279.1L987.3 279.1Q987.3 280.6 986.2 281.6Q985.2 282.6 983.5 282.6L983.5 282.6Q982.0 282.6 981.1 281.8Q980.2 281.1 979.7 279.4L979.7 279.4L976.9 271.3L961.1 271.3L958.3 279.3Q957.8 281.1 956.9 281.8Q956.0 282.6 954.5 282.6ZM968.8 247.3L962.9 265.3L975.0 265.3L969.0 247.3L968.8 247.3Z M62.0 365.3L62.0 365.3Q52.9 365.3 47.6 359.4Q42.3 353.6 42.3 343.4L42.3 343.4Q42.3 333.3 47.6 327.5Q52.9 321.6 61.9 321.6L61.9 321.6Q67.7 321.6 72.2 324.2Q76.6 326.8 78.7 331.4L78.7 331.4Q79.4 332.9 79.4 334.3L79.4 334.3Q79.4 335.8 78.5 336.7Q77.6 337.6 76.0 337.6L76.0 337.6Q73.5 337.6 72.3 334.9L72.3 334.9Q70.9 331.6 68.2 329.8Q65.4 328.0 61.9 328.0L61.9 328.0Q56.5 328.0 53.3 332.2Q50.0 336.4 50.0 343.4L50.0 343.4Q50.0 350.5 53.2 354.7Q56.5 358.9 62.0 358.9L62.0 358.9Q69.6 358.9 72.5 352.3L72.5 352.3Q73.0 351.0 73.8 350.4Q74.6 349.9 75.8 349.9L75.8 349.9Q77.4 349.9 78.4 350.8Q79.3 351.7 79.3 353.2L79.3 353.2Q79.3 354.6 78.6 356.1L78.6 356.1Q76.6 360.4 72.3 362.8Q67.9 365.3 62.0 365.3ZM109.8 360.9Q105.8 365.2 98.9 365.2Q92.0 365.2 87.9 360.9Q83.9 356.6 83.9 349.1L83.9 349.1Q83.9 341.6 88.0 337.2Q92.1 332.9 98.9 332.9L98.9 332.9Q105.7 332.9 109.8 337.2Q113.9 341.6 113.9 349.1L113.9 349.1Q113.9 356.6 109.8 360.9ZM93.3 356.7Q95.4 359.4 98.9 359.4Q102.4 359.4 104.5 356.7Q106.5 354.0 106.5 349.1L106.5 349.1Q106.5 344.2 104.5 341.4Q102.4 338.7 98.9 338.7L98.9 338.7Q95.4 338.7 93.3 341.4Q91.3 344.2 91.3 349.1L91.3 349.1Q91.3 354.0 93.3 356.7ZM124.9 364.2Q123.9 365.2 122.2 365.2Q120.6 365.2 119.6 364.2Q118.6 363.1 118.6 361.3L118.6 361.3L118.6 336.6Q118.6 334.9 119.5 333.9Q120.5 332.9 122.1 332.9Q123.7 332.9 124.7 333.9Q125.7 334.9 125.7 336.6L125.7 336.6L125.7 338.8L125.8 338.8Q128.5 332.9 135.5 332.9L135.5 332.9Q140.6 332.9 143.4 336.0Q146.3 339.1 146.3 344.5L146.3 344.5L146.3 361.3Q146.3 363.1 145.3 364.2Q144.3 365.2 142.6 365.2Q141.0 365.2 140.0 364.2Q139.0 363.1 139.0 361.3L139.0 361.3L139.0 346.0Q139.0 342.6 137.4 340.9Q135.8 339.1 132.8 339.1L132.8 339.1Q129.6 339.1 127.8 341.2Q125.9 343.2 125.9 346.6L125.9 346.6L125.9 361.3Q125.9 363.1 124.9 364.2ZM160.4 364.2Q159.4 365.2 157.8 365.2Q156.1 365.2 155.1 364.2Q154.1 363.2 154.1 361.4L154.1 361.4L154.1 339.1L152.2 339.1Q150.9 339.1 150.1 338.4Q149.4 337.7 149.4 336.4L149.4 336.4Q149.4 335.1 150.1 334.4Q150.9 333.6 152.2 333.6L152.2 333.6L154.1 333.6L154.1 330.9Q154.1 322.0 162.7 322.0L162.7 322.0Q165.5 322.0 166.9 322.8Q168.3 323.6 168.3 325.0L168.3 325.0Q168.3 326.7 166.7 327.1L166.7 327.1Q166.0 327.3 165.0 327.3L165.0 327.3Q163.0 327.4 162.2 328.3Q161.3 329.2 161.3 331.2L161.3 331.2L161.3 333.6L165.2 333.6Q166.4 333.6 167.2 334.4Q168.0 335.1 168.0 336.4L168.0 336.4Q168.0 337.7 167.2 338.4Q166.4 339.1 165.2 339.1L165.2 339.1L161.4 339.1L161.4 361.4Q161.4 363.2 160.4 364.2ZM179.0 328.0Q177.8 329.2 176.1 329.2Q174.4 329.2 173.2 328.0Q172.1 326.8 172.1 325.2L172.1 325.2Q172.1 323.5 173.2 322.4Q174.4 321.2 176.1 321.2L176.1 321.2Q177.8 321.2 179.0 322.4Q180.2 323.5 180.2 325.2L180.2 325.2Q180.2 326.8 179.0 328.0ZM178.8 364.1Q177.8 365.2 176.1 365.2Q174.4 365.2 173.5 364.1Q172.5 363.1 172.5 361.3L172.5 361.3L172.5 336.7Q172.5 335.0 173.5 333.9Q174.4 332.9 176.1 332.9Q177.8 332.9 178.8 333.9Q179.8 335.0 179.8 336.8L179.8 336.8L179.8 361.3Q179.8 363.1 178.8 364.1ZM199.3 376.3L199.3 376.3Q194.9 376.2 191.6 374.7Q188.3 373.2 186.7 370.6L186.7 370.6Q186.1 369.6 186.1 368.4L186.1 368.4Q186.1 367.2 186.9 366.4Q187.7 365.6 189.1 365.6L189.1 365.6Q190.5 365.6 191.8 366.8L191.8 366.8Q193.7 368.7 195.4 369.6Q197.2 370.4 199.3 370.5L199.3 370.5Q203.0 370.5 205.1 368.6Q207.3 366.7 207.3 363.6L207.3 363.6L207.3 358.7L207.1 358.7Q205.9 361.2 203.3 362.7Q200.7 364.3 197.4 364.3L197.4 364.3Q191.5 364.3 188.1 360.0Q184.6 355.8 184.6 348.7L184.6 348.7Q184.6 341.4 188.1 337.2Q191.5 333.0 197.5 333.0L197.5 333.0Q200.8 333.0 203.3 334.5Q205.8 336.1 207.2 338.8L207.2 338.8L207.3 338.8L207.3 336.6Q207.3 334.9 208.3 333.9Q209.3 332.9 210.9 332.9Q212.6 332.9 213.6 333.9Q214.6 334.9 214.6 336.6L214.6 336.6L214.6 363.6Q214.6 369.5 210.5 372.9Q206.4 376.3 199.3 376.3ZM199.6 358.6L199.6 358.6Q203.1 358.6 205.2 355.9Q207.3 353.3 207.3 348.7L207.3 348.7Q207.3 344.2 205.2 341.5Q203.1 338.8 199.6 338.8L199.6 338.8Q196.2 338.8 194.1 341.5Q192.1 344.2 192.1 348.7L192.1 348.7Q192.1 353.3 194.1 356.0Q196.2 358.6 199.6 358.6ZM231.4 365.1L231.4 365.1Q226.3 365.1 223.4 362.0Q220.4 359.0 220.4 353.6L220.4 353.6L220.4 336.7Q220.4 335.0 221.4 333.9Q222.4 332.9 224.0 332.9Q225.7 332.9 226.7 333.9Q227.7 335.0 227.7 336.8L227.7 336.8L227.7 352.1Q227.7 355.5 229.3 357.2Q230.9 359.0 233.9 359.0L233.9 359.0Q237.1 359.0 238.9 356.9Q240.8 354.9 240.8 351.5L240.8 351.5L240.8 336.7Q240.8 335.0 241.8 333.9Q242.8 332.9 244.4 332.9L244.4 332.9Q246.0 332.9 247.1 333.9Q248.1 335.0 248.1 336.8L248.1 336.8L248.1 361.5Q248.1 363.2 247.1 364.2Q246.2 365.2 244.6 365.2L244.6 365.2Q243.0 365.2 242.0 364.2Q241.0 363.2 241.0 361.5L241.0 361.5L241.0 359.2L240.9 359.2Q238.3 365.1 231.4 365.1ZM260.3 364.1Q259.3 365.2 257.6 365.2Q256.0 365.2 255.0 364.1Q254.0 363.1 254.0 361.3L254.0 361.3L254.0 336.6Q254.0 334.9 255.0 333.9Q255.9 332.9 257.5 332.9L257.5 332.9Q259.0 332.9 260.0 333.9Q261.0 334.9 261.0 336.6L261.0 336.6L261.0 339.0L261.1 339.0Q261.7 336.3 263.6 334.6Q265.4 333.0 267.8 333.0L267.8 333.0Q269.5 333.0 270.3 333.8L270.3 333.8Q271.4 334.6 271.4 336.4L271.4 336.4Q271.4 338.1 270.3 339.0L270.3 339.0Q269.2 339.9 267.1 340.0L267.1 340.0Q261.3 340.0 261.3 346.4L261.3 346.4L261.3 361.3Q261.3 363.1 260.3 364.1ZM283.8 365.1L283.8 365.1Q279.2 365.1 276.3 362.5Q273.4 359.9 273.4 355.7L273.4 355.7Q273.4 351.6 276.4 349.2Q279.5 346.8 285.2 346.4L285.2 346.4L293.4 345.9L293.4 343.7Q293.4 341.3 291.9 339.9Q290.3 338.6 287.6 338.6L287.6 338.6Q285.4 338.6 284.0 339.4Q282.5 340.2 281.1 342.2L281.1 342.2Q280 343.7 278.2 343.7L278.2 343.7Q276.8 343.7 275.9 342.9Q275.1 342.1 275.1 340.8L275.1 340.8Q275.1 339.8 275.6 338.8L275.6 338.8Q276.7 336.1 280.1 334.5Q283.5 332.9 287.9 332.9L287.9 332.9Q293.7 332.9 297.2 335.7Q300.6 338.5 300.6 343.2L300.6 343.2L300.6 361.5Q300.6 363.2 299.6 364.2Q298.7 365.2 297.1 365.2L297.1 365.2Q295.6 365.2 294.6 364.3Q293.7 363.4 293.6 361.8L293.6 361.8L293.6 359.6L293.4 359.6Q292.1 362.1 289.5 363.6Q286.8 365.1 283.8 365.1ZM286.0 359.6L286.0 359.6Q289.1 359.6 291.3 357.7Q293.4 355.8 293.4 353.1L293.4 353.1L293.4 350.7L286.2 351.1Q283.6 351.3 282.1 352.4Q280.7 353.6 280.7 355.4L280.7 355.4Q280.7 357.3 282.1 358.4Q283.6 359.6 286.0 359.6ZM312.8 364.2Q311.8 365.2 310.2 365.2Q308.6 365.2 307.7 364.2Q306.7 363.3 306.7 361.5L306.7 361.5L306.7 325.6Q306.7 323.7 307.7 322.7Q308.7 321.7 310.4 321.7Q312.0 321.7 313.0 322.7Q314.0 323.7 314.0 325.6L314.0 325.6L314.0 338.9L314.2 338.9Q315.5 336.1 318.1 334.5Q320.6 333.0 323.9 333.0L323.9 333.0Q329.8 333.0 333.2 337.3Q336.7 341.6 336.7 349.1L336.7 349.1Q336.7 356.5 333.2 360.8Q329.8 365.1 323.9 365.1L323.9 365.1Q320.5 365.1 317.9 363.6Q315.4 362.0 314.0 359.3L314.0 359.3L313.8 359.3L313.8 361.5Q313.8 363.2 312.8 364.2ZM321.6 359.1L321.6 359.1Q325.1 359.1 327.2 356.4Q329.2 353.7 329.2 349.1Q329.2 344.4 327.2 341.7Q325.1 339.0 321.6 339.0L321.6 339.0Q318.2 339.0 316.1 341.8Q314.0 344.5 314.0 349.1L314.0 349.1Q314.0 353.6 316.1 356.3Q318.2 359.1 321.6 359.1ZM347.9 364.2Q346.9 365.2 345.2 365.2Q343.6 365.2 342.6 364.2Q341.6 363.1 341.6 361.3L341.6 361.3L341.6 325.6Q341.6 323.7 342.6 322.7Q343.6 321.7 345.2 321.7Q346.9 321.7 347.9 322.7Q348.9 323.7 348.9 325.6L348.9 325.6L348.9 361.3Q348.9 363.1 347.9 364.2ZM368.9 365.2L368.9 365.2Q361.8 365.2 357.8 361.0Q353.8 356.7 353.8 349.2L353.8 349.2Q353.8 341.7 357.8 337.3Q361.8 332.9 368.5 332.9L368.5 332.9Q374.8 332.9 378.8 336.9Q382.8 341.0 382.8 347.4L382.8 347.4Q382.8 349.0 381.9 349.9Q381.0 350.8 379.4 350.8L379.4 350.8L361.1 350.8L361.1 351.0Q361.1 354.9 363.2 357.3Q365.3 359.6 368.8 359.6L368.8 359.6Q371.3 359.6 373.1 358.6Q374.8 357.7 376.6 355.4L376.6 355.4Q377.6 354.3 379.1 354.3L379.1 354.3Q380.3 354.3 381.1 355.0Q382.0 355.8 382.0 357.1L382.0 357.1Q382.0 357.9 381.5 358.9L381.5 358.9Q379.9 361.9 376.6 363.5Q373.3 365.2 368.9 365.2ZM361.1 346.0L361.1 346.0L375.6 346.0Q375.5 342.6 373.5 340.6Q371.6 338.5 368.5 338.5Q365.4 338.5 363.4 340.6Q361.3 342.7 361.1 346.0Z M402.1 365.1L402.1 365.1Q400.3 365.1 399.3 364.1Q398.2 363.2 398.2 361.6L398.2 361.6Q398.2 360.6 398.7 359.3L398.7 359.3L411.0 325.9Q411.8 323.8 413.1 322.8Q414.4 321.8 416.5 321.8L416.5 321.8Q418.6 321.8 419.9 322.8Q421.2 323.7 422.0 325.9L422.0 325.9L434.3 359.3Q434.8 360.7 434.8 361.6L434.8 361.6Q434.8 363.1 433.8 364.1Q432.7 365.1 431.1 365.1L431.1 365.1Q429.5 365.1 428.6 364.3Q427.7 363.6 427.2 361.9L427.2 361.9L424.4 353.8L408.6 353.8L405.8 361.8Q405.3 363.6 404.4 364.3Q403.5 365.1 402.1 365.1ZM416.3 329.8L410.4 347.8L422.6 347.8L416.6 329.8L416.3 329.8ZM445.9 374.6Q444.9 375.6 443.2 375.6Q441.6 375.6 440.6 374.6Q439.6 373.6 439.6 371.8L439.6 371.8L439.6 336.7Q439.6 334.9 440.6 333.9Q441.5 332.9 443.1 332.9L443.1 332.9Q444.7 332.9 445.7 333.9Q446.7 334.9 446.7 336.7L446.7 336.7L446.7 338.9L446.8 338.9Q448.2 336.1 450.7 334.6Q453.3 333.0 456.6 333.0L456.6 333.0Q462.5 333.0 466.0 337.3Q469.5 341.6 469.5 349.1L469.5 349.1Q469.5 356.5 466.1 360.8Q462.6 365.1 456.7 365.1L456.7 365.1Q453.4 365.1 450.9 363.6Q448.3 362.1 447.0 359.4L447.0 359.4L446.9 359.4L446.9 371.8Q446.9 373.6 445.9 374.6ZM454.4 359.1L454.4 359.1Q457.9 359.1 460 356.4Q462.1 353.7 462.1 349.1L462.1 349.1Q462.1 344.5 460.0 341.7Q457.9 339.0 454.4 339.0L454.4 339.0Q451.0 339.0 448.9 341.8Q446.8 344.5 446.8 349.1L446.8 349.1Q446.8 353.6 448.9 356.4Q451.0 359.1 454.4 359.1ZM480.5 374.6Q479.5 375.6 477.8 375.6Q476.2 375.6 475.2 374.6Q474.2 373.6 474.2 371.8L474.2 371.8L474.2 336.7Q474.2 334.9 475.2 333.9Q476.2 332.9 477.8 332.9L477.8 332.9Q479.4 332.9 480.3 333.9Q481.3 334.9 481.3 336.7L481.3 336.7L481.3 338.9L481.5 338.9Q482.8 336.1 485.4 334.6Q487.9 333.0 491.3 333.0L491.3 333.0Q497.2 333.0 500.7 337.3Q504.2 341.6 504.2 349.1L504.2 349.1Q504.2 356.5 500.7 360.8Q497.2 365.1 491.4 365.1L491.4 365.1Q488.0 365.1 485.5 363.6Q482.9 362.1 481.7 359.4L481.7 359.4L481.5 359.4L481.5 371.8Q481.5 373.6 480.5 374.6ZM489.0 359.1L489.0 359.1Q492.6 359.1 494.6 356.4Q496.7 353.7 496.7 349.1L496.7 349.1Q496.7 344.5 494.6 341.7Q492.5 339.0 489.0 339.0L489.0 339.0Q485.6 339.0 483.6 341.8Q481.5 344.5 481.4 349.1L481.4 349.1Q481.5 353.6 483.6 356.4Q485.6 359.1 489.0 359.1ZM515.1 364.1Q514.1 365.2 512.5 365.2Q510.8 365.2 509.8 364.1Q508.8 363.1 508.8 361.3L508.8 361.3L508.8 336.6Q508.8 334.9 509.8 333.9Q510.7 332.9 512.3 332.9L512.3 332.9Q513.8 332.9 514.8 333.9Q515.8 334.9 515.8 336.6L515.8 336.6L515.8 339.0L515.9 339.0Q516.6 336.3 518.4 334.6Q520.2 333.0 522.6 333.0L522.6 333.0Q524.3 333.0 525.2 333.8L525.2 333.8Q526.2 334.6 526.2 336.4L526.2 336.4Q526.2 338.1 525.1 339.0L525.1 339.0Q524.0 339.9 521.9 340.0L521.9 340.0Q516.1 340.0 516.1 346.4L516.1 346.4L516.1 361.3Q516.1 363.1 515.1 364.1ZM554.2 360.9Q550.1 365.2 543.2 365.2Q536.3 365.2 532.2 360.9Q528.2 356.6 528.2 349.1L528.2 349.1Q528.2 341.6 532.3 337.2Q536.4 332.9 543.2 332.9L543.2 332.9Q550.1 332.9 554.1 337.2Q558.2 341.6 558.2 349.1L558.2 349.1Q558.2 356.6 554.2 360.9ZM537.6 356.7Q539.7 359.4 543.2 359.4Q546.7 359.4 548.8 356.7Q550.8 354.0 550.8 349.1L550.8 349.1Q550.8 344.2 548.8 341.4Q546.7 338.7 543.2 338.7L543.2 338.7Q539.7 338.7 537.7 341.4Q535.6 344.2 535.6 349.1L535.6 349.1Q535.6 354.0 537.6 356.7ZM572.0 365.1L572.0 365.1Q567.5 365.1 564.6 362.5Q561.7 359.9 561.7 355.7L561.7 355.7Q561.7 351.6 564.7 349.2Q567.8 346.8 573.5 346.4L573.5 346.4L581.7 345.9L581.7 343.7Q581.7 341.3 580.2 339.9Q578.6 338.6 575.9 338.6L575.9 338.6Q573.7 338.6 572.2 339.4Q570.7 340.2 569.4 342.2L569.4 342.2Q568.3 343.7 566.4 343.7L566.4 343.7Q565.1 343.7 564.2 342.9Q563.4 342.1 563.4 340.8L563.4 340.8Q563.4 339.8 563.9 338.8L563.9 338.8Q565.0 336.1 568.4 334.5Q571.7 332.9 576.2 332.9L576.2 332.9Q582.0 332.9 585.4 335.7Q588.9 338.5 588.9 343.2L588.9 343.2L588.9 361.5Q588.9 363.2 587.9 364.2Q586.9 365.2 585.4 365.2L585.4 365.2Q583.8 365.2 582.9 364.3Q582.0 363.4 581.9 361.8L581.9 361.8L581.9 359.6L581.7 359.6Q580.4 362.1 577.7 363.6Q575.1 365.1 572.0 365.1ZM574.3 359.6L574.3 359.6Q577.4 359.6 579.5 357.7Q581.7 355.8 581.7 353.1L581.7 353.1L581.7 350.7L574.5 351.1Q571.9 351.3 570.4 352.4Q569.0 353.6 569.0 355.4L569.0 355.4Q569.0 357.3 570.4 358.4Q571.9 359.6 574.3 359.6ZM608.4 365.2L608.4 365.2Q601.6 365.2 597.5 360.9Q593.5 356.5 593.5 349.1L593.5 349.1Q593.5 341.7 597.5 337.3Q601.6 332.9 608.4 332.9L608.4 332.9Q612.9 332.9 616.5 335.0Q620.0 337.1 621.1 340.4L621.1 340.4Q621.5 341.4 621.5 342.1L621.5 342.1Q621.5 343.5 620.6 344.3Q619.7 345.1 618.4 345.1L618.4 345.1Q617.3 345.1 616.6 344.6Q615.8 344.1 615.2 343.0L615.2 343.0Q612.9 338.8 608.6 338.8L608.6 338.8Q605.0 338.8 603.0 341.6Q600.9 344.3 600.9 349.1L600.9 349.1Q600.9 353.9 603.0 356.6Q605.0 359.3 608.5 359.3L608.5 359.3Q612.9 359.3 615.2 355.3L615.2 355.3Q615.9 354.1 616.6 353.6Q617.4 353.1 618.5 353.1L618.5 353.1Q619.8 353.1 620.7 353.9Q621.6 354.7 621.6 356.1L621.6 356.1Q621.6 356.9 621.2 357.9L621.2 357.9Q619.8 361.1 616.3 363.2Q612.8 365.2 608.4 365.2ZM633.0 364.2Q632.0 365.2 630.4 365.2Q628.7 365.2 627.7 364.2Q626.7 363.1 626.7 361.3L626.7 361.3L626.7 325.5Q626.7 323.7 627.7 322.7Q628.6 321.7 630.3 321.7L630.3 321.7Q632.0 321.7 633.0 322.7Q633.9 323.7 633.9 325.5L633.9 325.5L633.9 338.9L634.1 338.9Q635.3 336.0 637.8 334.5Q640.4 332.9 643.9 332.9L643.9 332.9Q649.0 332.9 651.9 336.1Q654.7 339.2 654.7 344.6L654.7 344.6L654.7 361.3Q654.7 363.1 653.7 364.2Q652.7 365.2 651.1 365.2Q649.4 365.2 648.4 364.2Q647.4 363.1 647.4 361.3L647.4 361.3L647.4 346.1Q647.4 342.8 645.8 340.9Q644.2 339.1 641.1 339.1L641.1 339.1Q637.8 339.1 635.9 341.2Q634.0 343.3 634.0 346.7L634.0 346.7L634.0 361.3Q634.0 363.1 633.0 364.2Z "/><defs><clipPath id="satori_bc-id-0-1"><rect x="0" y="441" width="1200" height="189"/></clipPath></defs><mask id="satori_om-id-0-1"><rect x="0" y="442" width="1200" height="188" fill="#fff"/><path width="1200" height="189" fill="none" stroke="#000" stroke-width="2" d="M0,441 A0,0 0 0 1 0,441 h1200 A0,0 0 0 1 1200,441"/></mask><path width="1200" height="189" clip-path="url(#satori_bc-id-0-1)" fill="none" stroke="#dbdbdb" stroke-width="2" d="M0,441 A0,0 0 0 1 0,441 h1200 A0,0 0 0 1 1200,441"/><mask id="satori_om-id-0-1-0"><rect x="40" y="482" width="389" height="108" fill="#fff"/></mask><clipPath id="satori_cp-id-0-1-0-0"><rect x="40" y="504" width="64" height="64"/></clipPath><mask id="satori_om-id-0-1-0-0"><rect x="40" y="504" width="64" height="64" fill="#fff"/></mask><image x="40" y="504" width="64" height="64" href="data:image/svg+xml;utf8,%3Csvg  xmlns=%22http://www.w3.org/2000/svg%22 width=%2264%22 height=%2264%22 viewBox=%220 0 128 128%22%3E%3Cpath fill=%22%23224d67%22 d=%22M22.5 14.8c2.9 1.3 99 44 99 44c2.7 1.2 2.9 3.1 2 12.4c-1 10.5-1.9 37.8-40.2 42.9c-24.6 3.2-55.9-4.3-70.9-27.2C-6 58.8 11 23.4 14.8 17.7c2.4-3.5 4.8-4.2 7.7-2.9%22%3E%3C/path%3E%3Cpath fill=%22%23f0f4c3%22 d=%22M121.5 58.8c-.3-.2-92-40.8-98.9-43.9C9.6 31.5-3.8 76 27.9 96.2c33.6 21.5 78.7-10.2 93.6-37.4%22%3E%3C/path%3E%3Cpath fill=%22%23f0f4c3%22 d=%22M117.7 57c-.3-.2-86.7-38.4-93.2-41.3c-12.2 15.5-23.9 59.1 5.7 78c31.4 20.2 73.6-11.2 87.5-36.7%22%3E%3C/path%3E%3Cpath fill=%22%23cb2a42%22 d=%22M56.2 37.6L19.5 48.2c-2.5.8-4.4 2.8-5 5.3c-1.9 8.5.8 23.3 8.9 29.8c3.5 2.7 8.6 1.8 10.8-2.1L58.5 41c1.3-1.7.5-4.2-2.3-3.4m14.3 2.9s14.6 30.1 16 33s6.3 4.7 9.9 2.8c10.7-5.6 15.5-12.4 19.2-20.2c-8.9-3.9-42.4-18.8-42.4-18.8c-2.4-1.1-4 .6-2.7 3.2m-8.6 1.9C60.3 45.1 39.5 81 37.6 84.1c-1.9 3.2-.7 7.5 2.7 9.2c12.3 6.5 30.9.4 39.6-7c2.2-1.9 4.5-5.1 3.2-8.2S68.9 44.6 67.8 42.3c-1.2-2.7-4.1-2.8-5.9.1%22%3E%3C/path%3E%3Cpath fill=%22%23f0f4c3%22 d=%22M52.2 42.2c-1.4.4-10.1 3-11.1 3.4c-1.4.5-2.2 1.7-1.9 2.5c.3.9 1.7 1.1 3.1.6c.8-.3 7.1-3.9 9.5-5.2c-3.1 2.4-10.2 9.4-11.1 10.3c-1.4 1.5-1.7 3.4-.8 4.3c1 .9 2.9.5 4.3-1c1.2-1.3 8.5-12.8 9.1-13.9s.4-1.4-1.1-1m10.1 16.4c0-2.2 1.4-10.3 1.8-12.3c.4-1.6 1.5-1.8 1.8.5s1.7 9.7 1.7 11.8s-1.2 3.3-2.7 3.3c-1.4 0-2.6-1.1-2.6-3.3M79.9 49c-1.2-1.8-3.3-4.9-4.1-6.1c-.7-1.2.1-2.1 1.8-.9s4 2.9 5.4 4c1.6 1.3 1.9 3 .8 4s-2.7.8-3.9-1%22%3E%3C/path%3E%3Cellipse cx=%2287.3%22 cy=%22103.12%22 fill=%22%23cb2a42%22 rx=%223.4%22 ry=%222.3%22 transform=%22rotate(-27.098 87.298 103.126)%22%3E%3C/ellipse%3E%3Cellipse cx=%2298.89%22 cy=%22103.82%22 fill=%22%23cb2a42%22 rx=%223.4%22 ry=%222.3%22 transform=%22rotate(-30.642 98.887 103.818)%22%3E%3C/ellipse%3E%3Cellipse cx=%22102.02%22 cy=%2293.8%22 fill=%22%23cb2a42%22 rx=%223.4%22 ry=%222.3%22 transform=%22rotate(-37.16 102.017 93.797)%22%3E%3C/ellipse%3E%3Cpath fill=%22%23cb2a42%22 d=%22M57.6 30.3c-8.3-3.7-24.4-10.7-29.6-13c-3.6 2.2-9.7 11.4-11.2 21.2c-.6 3.6 1.7 5.9 5.3 4.9c0 0 33.7-9.3 35.3-9.7c1.6-.5 2-2.6.2-3.4%22%3E%3C/path%3E%3C/svg%3E" preserveAspectRatio="none" clip-path="url(#satori_cp-id-0-1-0-0)" mask="url(#satori_om-id-0-1-0-0)"/><mask id="satori_om-id-0-1-0-0-0"><rect x="40" y="504" width="0" height="64" fill="#fff"/></mask><mask id="satori_om-id-0-1-0-0-1"><rect x="40" y="504" width="0" height="64" fill="#fff"/></mask><mask id="satori_om-id-0-1-0-0-2"><rect x="40" y="504" width="0" height="64" fill="#fff"/></mask><mask id="satori_om-id-0-1-0-0-3"><rect x="40" y="504" width="0" height="64" fill="#fff"/></mask><mask id="satori_om-id-0-1-0-0-4"><rect x="40" y="504" width="0" height="64" fill="#fff"/></mask><mask id="satori_om-id-0-1-0-0-5"><rect x="40" y="504" width="0" height="64" fill="#fff"/></mask><mask id="satori_om-id-0-1-0-0-6"><rect x="40" y="504" width="0" height="64" fill="#fff"/></mask><mask id="satori_om-id-0-1-0-0-7"><rect x="40" y="504" width="0" height="64" fill="#fff"/></mask><mask id="satori_om-id-0-1-0-0-8"><rect x="40" y="504" width="0" height="64" fill="#fff"/></mask><mask id="satori_om-id-0-1-0-1"><rect x="116" y="512" width="313" height="48" fill="#fff"/></mask><path fill="#545454" d="M133.0 553.6L133.0 553.6Q126.5 553.6 122.7 550.2Q118.8 546.7 118.8 541.1L118.8 541.1L118.8 522.5Q118.8 520.7 119.8 519.7Q120.7 518.8 122.4 518.8Q124.0 518.8 125.0 519.7Q125.9 520.7 125.9 522.5L125.9 522.5L125.9 540.4Q125.9 543.7 127.8 545.6Q129.6 547.6 133.0 547.6L133.0 547.6Q136.3 547.6 138.2 545.6Q140.1 543.7 140.1 540.4L140.1 540.4L140.1 522.5Q140.1 520.7 141.0 519.7Q141.9 518.8 143.6 518.8Q145.3 518.8 146.2 519.7Q147.1 520.7 147.1 522.5L147.1 522.5L147.1 541.1Q147.1 546.7 143.3 550.2Q139.4 553.6 133.0 553.6ZM158.9 552.6Q158.0 553.6 156.3 553.6Q154.6 553.6 153.7 552.6Q152.8 551.6 152.8 549.9L152.8 549.9L152.8 522.9Q152.8 521.2 153.7 520.2Q154.6 519.2 156.3 519.2L156.3 519.2L166.6 519.2Q172.4 519.2 175.6 522.1Q178.9 525.0 178.9 530.0L178.9 530.0Q178.9 533.2 177.3 535.8Q175.8 538.3 173.0 539.4L173.0 539.4L177.9 547.9Q178.7 549.2 178.7 550.3L178.7 550.3Q178.7 551.7 177.7 552.6Q176.7 553.6 175.1 553.6L175.1 553.6Q173.8 553.6 173.1 553.0Q172.4 552.5 171.5 550.9L171.5 550.9L165.9 540.7L159.9 540.7L159.9 549.9Q159.9 551.6 158.9 552.6ZM159.9 524.8L159.9 535.6L165.9 535.6Q168.6 535.6 170.1 534.1Q171.6 532.7 171.6 530.2L171.6 530.2Q171.6 527.7 170.0 526.2Q168.5 524.8 165.9 524.8L165.9 524.8L159.9 524.8ZM196.2 542.3L186.4 542.3Q185.0 542.3 184.1 541.5Q183.2 540.7 183.2 539.3Q183.2 537.9 184.1 537.1Q185.0 536.3 186.4 536.3L186.4 536.3L196.2 536.3Q197.6 536.3 198.5 537.1Q199.4 537.9 199.4 539.3Q199.4 540.7 198.5 541.5Q197.6 542.3 196.2 542.3L196.2 542.3ZM210.9 552.6Q209.9 553.6 208.3 553.6Q206.6 553.6 205.6 552.6Q204.7 551.6 204.7 549.9L204.7 549.9L204.7 522.9Q204.7 521.2 205.6 520.2Q206.6 519.2 208.3 519.2L208.3 519.2L218.6 519.2Q224.4 519.2 227.6 522.1Q230.8 525.0 230.8 530.0L230.8 530.0Q230.8 533.2 229.3 535.8Q227.8 538.3 225.0 539.4L225.0 539.4L229.9 547.9Q230.6 549.2 230.6 550.3L230.6 550.3Q230.6 551.7 229.6 552.6Q228.6 553.6 227.0 553.6L227.0 553.6Q225.8 553.6 225.0 553.0Q224.3 552.5 223.4 550.9L223.4 550.9L217.8 540.7L211.8 540.7L211.8 549.9Q211.8 551.6 210.9 552.6ZM211.8 524.8L211.8 535.6L217.9 535.6Q220.6 535.6 222.0 534.1Q223.5 532.7 223.5 530.2L223.5 530.2Q223.5 527.7 222.0 526.2Q220.4 524.8 217.8 524.8L217.8 524.8L211.8 524.8ZM237.7 553.5L237.7 553.5Q236.0 553.5 235.1 552.6Q234.1 551.7 234.1 550.2L234.1 550.2Q234.1 549.3 234.6 547.9L234.6 547.9L243.8 522.8Q244.6 520.7 245.8 519.7Q247.1 518.8 249.1 518.8L249.1 518.8Q251.2 518.8 252.5 519.7Q253.8 520.7 254.5 522.8L254.5 522.8L263.8 547.9Q264.3 549.2 264.3 550.2L264.3 550.2Q264.3 551.6 263.3 552.6Q262.3 553.5 260.7 553.5L260.7 553.5Q259.2 553.5 258.4 552.8Q257.5 552.1 257.0 550.4L257.0 550.4L255.3 545.0L243.1 545.0L241.3 550.3Q240.8 552.0 239.9 552.8Q239.1 553.5 237.7 553.5ZM249.0 525.7L244.6 539.6L253.6 539.6L249.1 525.7L249.0 525.7ZM281.5 553.1L272.1 553.1Q270.4 553.1 269.5 552.1Q268.6 551.1 268.6 549.4L268.6 549.4L268.6 522.9Q268.6 521.2 269.5 520.2Q270.4 519.2 272.1 519.2L272.1 519.2L281.5 519.2Q289.1 519.2 293.4 523.6Q297.6 528.0 297.6 536.0L297.6 536.0Q297.6 544.1 293.3 548.6Q289.1 553.1 281.5 553.1L281.5 553.1ZM275.6 525.1L275.6 547.2L280.6 547.2Q285.4 547.2 287.9 544.4Q290.4 541.5 290.4 536.0L290.4 536.0Q290.4 530.8 287.8 527.9Q285.3 525.1 280.6 525.1L280.6 525.1L275.6 525.1Z M333.2 553.1L314.5 553.1Q312.9 553.1 312.0 552.2Q311.2 551.4 311.2 550.0L311.2 550.0Q311.2 549.1 311.6 548.3Q312.0 547.5 313.1 546.5L313.1 546.5L323.2 536.9Q326.3 533.8 327.4 532.2Q328.4 530.6 328.4 528.8L328.4 528.8Q328.4 526.7 327.0 525.3Q325.5 524 323.3 524L323.3 524Q319.3 524 317.4 528.1L317.4 528.1Q316.8 529.2 316.1 529.7Q315.4 530.1 314.3 530.1L314.3 530.1Q312.9 530.1 312.1 529.4Q311.3 528.6 311.3 527.3L311.3 527.3Q311.3 526.5 311.5 525.7L311.5 525.7Q312.5 522.7 315.6 520.6Q318.8 518.5 323.3 518.5L323.3 518.5Q328.7 518.5 332.0 521.2Q335.3 524.0 335.3 528.3L335.3 528.3Q335.3 529.9 335.0 531.2Q334.6 532.5 333.6 533.9Q332.6 535.3 331.3 536.8Q330.0 538.2 327.8 540.3L327.8 540.3L320.5 547.3L320.5 547.4L333.2 547.4Q334.6 547.4 335.4 548.2Q336.1 549.0 336.1 550.3L336.1 550.3Q336.1 551.5 335.4 552.3Q334.6 553.1 333.2 553.1L333.2 553.1ZM363.6 549.0Q359.9 553.8 353.5 553.8Q347.1 553.8 343.4 549.1Q339.7 544.3 339.7 536.1L339.7 536.1Q339.7 527.9 343.4 523.2Q347.1 518.5 353.5 518.5Q359.9 518.5 363.6 523.2Q367.3 527.9 367.3 536.1L367.3 536.1Q367.3 544.3 363.6 549.0ZM348.6 545.0Q350.4 548.1 353.5 548.1Q356.7 548.1 358.4 545.0Q360.1 541.9 360.1 536.1L360.1 536.1Q360.1 530.4 358.4 527.2Q356.7 524.1 353.5 524.1L353.5 524.1Q350.4 524.1 348.7 527.3Q346.9 530.4 346.9 536.1L346.9 536.1Q346.9 541.9 348.6 545.0ZM393.6 553.1L374.9 553.1Q373.3 553.1 372.4 552.2Q371.6 551.4 371.6 550.0L371.6 550.0Q371.6 549.1 372.0 548.3Q372.5 547.5 373.5 546.5L373.5 546.5L383.6 536.9Q386.8 533.8 387.8 532.2Q388.9 530.6 388.9 528.8L388.9 528.8Q388.9 526.7 387.4 525.3Q386.0 524 383.7 524L383.7 524Q379.7 524 377.9 528.1L377.9 528.1Q377.3 529.2 376.5 529.7Q375.8 530.1 374.7 530.1L374.7 530.1Q373.3 530.1 372.5 529.4Q371.7 528.6 371.7 527.3L371.7 527.3Q371.7 526.5 372.0 525.7L372.0 525.7Q372.9 522.7 376.0 520.6Q379.2 518.5 383.8 518.5L383.8 518.5Q389.1 518.5 392.4 521.2Q395.8 524.0 395.8 528.3L395.8 528.3Q395.8 529.9 395.4 531.2Q395 532.5 394.0 533.9Q393.1 535.3 391.7 536.8Q390.4 538.2 388.2 540.3L388.2 540.3L380.9 547.3L380.9 547.4L393.6 547.4Q395 547.4 395.8 548.2Q396.6 549.0 396.6 550.3L396.6 550.3Q396.6 551.5 395.8 552.3Q395 553.1 393.6 553.1L393.6 553.1ZM413.6 553.8L413.6 553.8Q409.6 553.8 406.3 552.1Q403.1 550.4 401.8 547.7L401.8 547.7Q401.3 546.5 401.3 545.4L401.3 545.4Q401.3 544.0 402.0 543.3Q402.8 542.5 404.2 542.5L404.2 542.5Q405.3 542.5 406.0 542.9Q406.7 543.3 407.3 544.3L407.3 544.3Q409.3 548.2 413.6 548.2L413.6 548.2Q416.3 548.2 418.1 546.4Q419.9 544.6 419.9 541.9L419.9 541.9Q419.9 539.2 418.1 537.5Q416.4 535.8 413.6 535.8L413.6 535.8Q410.8 535.8 408.7 537.8L408.7 537.8Q407.6 538.8 406.9 539.1Q406.2 539.4 405.0 539.4L405.0 539.4Q403.4 539.4 402.5 538.4Q401.6 537.4 401.7 535.9L401.7 535.9Q401.7 535.8 401.7 535.6L401.7 535.6L402.7 523.3Q402.9 521.1 404.0 520.2Q405.1 519.2 407.2 519.2L407.2 519.2L422 519.2Q423.3 519.2 424.1 520.0Q424.9 520.8 424.9 522.1Q424.9 523.3 424.1 524.1Q423.3 524.9 422 524.9L422 524.9L408.6 524.9L407.8 534.3L408.0 534.3Q409.0 532.6 411.0 531.7Q413.0 530.7 415.6 530.7L415.6 530.7Q420.4 530.7 423.5 533.8Q426.6 536.9 426.6 541.7L426.6 541.7Q426.6 547.1 423.0 550.5Q419.4 553.8 413.6 553.8Z "/><mask id="satori_om-id-0-1-1"><rect x="1013" y="524" width="147" height="36" fill="#fff"/></mask><path fill="#8e8e8e" d="M1016.9 552.6Q1016.5 552.9 1016.0 552.9Q1015.4 552.9 1015.1 552.6Q1014.8 552.2 1014.8 551.7L1014.8 551.7L1014.8 532.6Q1014.8 532.0 1015.1 531.6Q1015.5 531.3 1016.1 531.3Q1016.6 531.3 1017.0 531.6Q1017.3 532.0 1017.3 532.6L1017.3 532.6L1017.3 540.0L1017.4 540.0Q1018.1 538.7 1019.4 537.9Q1020.7 537.2 1022.3 537.2L1022.3 537.2Q1025.2 537.2 1026.9 539.3Q1028.7 541.5 1028.7 545.0L1028.7 545.0Q1028.7 548.6 1026.9 550.8Q1025.2 552.9 1022.2 552.9L1022.2 552.9Q1020.6 552.9 1019.3 552.2Q1018.0 551.4 1017.3 550.1L1017.3 550.1L1017.2 550.1L1017.2 551.7Q1017.2 552.2 1016.9 552.6ZM1021.7 550.7L1021.7 550.7Q1023.8 550.7 1024.9 549.2Q1026.1 547.7 1026.1 545.0L1026.1 545.0Q1026.1 542.5 1024.9 540.9Q1023.8 539.4 1021.7 539.4L1021.7 539.4Q1019.8 539.4 1018.6 541.0Q1017.3 542.5 1017.3 545.0L1017.3 545.0Q1017.3 547.6 1018.6 549.1Q1019.8 550.7 1021.7 550.7ZM1032.8 558.4L1032.8 558.4Q1031.9 558.4 1031.4 558.0Q1030.9 557.7 1030.9 557.1L1030.9 557.1Q1030.9 556.7 1031.1 556.4Q1031.4 556.2 1031.9 556.2L1031.9 556.2Q1032.1 556.2 1032.3 556.2Q1032.5 556.2 1032.7 556.2L1032.7 556.2Q1034.4 556.2 1035.2 553.7L1035.2 553.7L1035.6 552.7L1030.3 539.0Q1030.2 538.6 1030.2 538.3L1030.2 538.3Q1030.2 537.8 1030.6 537.5Q1030.9 537.2 1031.5 537.2L1031.5 537.2Q1032.4 537.2 1032.7 538.1L1032.7 538.1L1036.9 550.1L1037.0 550.1L1041.2 538.1Q1041.3 537.6 1041.6 537.4Q1041.9 537.2 1042.4 537.2L1042.4 537.2Q1042.9 537.2 1043.3 537.5Q1043.6 537.8 1043.6 538.3L1043.6 538.3Q1043.6 538.6 1043.5 539.0L1043.5 539.0L1037.9 553.7Q1036.9 556.4 1035.8 557.4Q1034.7 558.4 1032.8 558.4Z M1066.9 550.9Q1064.7 553.0 1060.8 553.0Q1056.9 553.0 1054.7 550.9Q1052.4 548.7 1052.4 545.3L1052.4 545.3L1052.4 532.7Q1052.4 532.1 1052.8 531.7Q1053.1 531.3 1053.7 531.3Q1054.3 531.3 1054.7 531.7Q1055.0 532.1 1055.0 532.7L1055.0 532.7L1055.0 545.1Q1055.0 547.5 1056.6 549.1Q1058.1 550.6 1060.8 550.6Q1063.5 550.6 1065.0 549.1Q1066.6 547.5 1066.6 545.1L1066.6 545.1L1066.6 532.7Q1066.6 532.1 1066.9 531.7Q1067.3 531.3 1067.9 531.3Q1068.5 531.3 1068.8 531.7Q1069.2 532.1 1069.2 532.7L1069.2 532.7L1069.2 545.3Q1069.2 548.7 1066.9 550.9ZM1075.6 552.6Q1075.2 552.9 1074.6 552.9Q1074.0 552.9 1073.7 552.6Q1073.3 552.2 1073.3 551.6L1073.3 551.6L1073.3 532.9Q1073.3 532.3 1073.7 531.9Q1074.0 531.5 1074.6 531.5L1074.6 531.5L1081.2 531.5Q1084.3 531.5 1086.1 533.2Q1088.0 535.0 1088.0 537.8L1088.0 537.8Q1088.0 540.0 1086.8 541.6Q1085.7 543.3 1083.7 543.9L1083.7 543.9L1087.6 550.8Q1087.9 551.3 1087.9 551.7L1087.9 551.7Q1087.9 552.2 1087.5 552.6Q1087.1 552.9 1086.5 552.9L1086.5 552.9Q1086.1 552.9 1085.8 552.7Q1085.5 552.5 1085.2 552.1L1085.2 552.1L1081.0 544.3L1075.9 544.3L1075.9 551.6Q1075.9 552.2 1075.6 552.6ZM1075.9 533.9L1075.9 542.0L1081.0 542.0Q1083.0 542.0 1084.1 540.9Q1085.2 539.9 1085.2 537.9L1085.2 537.9Q1085.2 536.0 1084.1 534.9Q1082.9 533.9 1080.9 533.9L1080.9 533.9L1075.9 533.9ZM1099.4 545.3L1091.9 545.3Q1091.3 545.3 1091.0 545.0Q1090.6 544.6 1090.6 544.1Q1090.6 543.6 1091.0 543.2Q1091.3 542.9 1091.9 542.9L1091.9 542.9L1099.4 542.9Q1100.0 542.9 1100.3 543.2Q1100.7 543.6 1100.7 544.1Q1100.7 544.6 1100.3 545.0Q1100.0 545.3 1099.4 545.3L1099.4 545.3ZM1106.4 552.6Q1106.0 552.9 1105.4 552.9Q1104.8 552.9 1104.5 552.6Q1104.1 552.2 1104.1 551.6L1104.1 551.6L1104.1 532.9Q1104.1 532.3 1104.5 531.9Q1104.8 531.5 1105.4 531.5L1105.4 531.5L1112.1 531.5Q1115.1 531.5 1117.0 533.2Q1118.8 535.0 1118.8 537.8L1118.8 537.8Q1118.8 540.0 1117.7 541.6Q1116.5 543.3 1114.5 543.9L1114.5 543.9L1118.4 550.8Q1118.7 551.3 1118.7 551.7L1118.7 551.7Q1118.7 552.2 1118.3 552.6Q1117.9 552.9 1117.3 552.9L1117.3 552.9Q1116.9 552.9 1116.6 552.7Q1116.3 552.5 1116.1 552.1L1116.1 552.1L1111.8 544.3L1106.8 544.3L1106.8 551.6Q1106.8 552.2 1106.4 552.6ZM1106.8 533.9L1106.8 542.0L1111.8 542.0Q1113.9 542.0 1115.0 540.9Q1116.1 539.9 1116.1 537.9L1116.1 537.9Q1116.1 536.0 1114.9 534.9Q1113.8 533.9 1111.7 533.9L1111.7 533.9L1106.8 533.9ZM1122.2 552.9L1122.2 552.9Q1121.6 552.9 1121.2 552.5Q1120.9 552.2 1120.9 551.7L1120.9 551.7Q1120.9 551.4 1121.0 551.0L1121.0 551.0L1127.8 532.6Q1128.3 531.3 1129.5 531.3L1129.5 531.3Q1130.7 531.3 1131.2 532.6L1131.2 532.6L1138.0 551.0Q1138.2 551.4 1138.2 551.7L1138.2 551.7Q1138.2 552.2 1137.8 552.5Q1137.4 552.9 1136.9 552.9L1136.9 552.9Q1135.9 552.9 1135.6 551.9L1135.6 551.9L1133.7 546.6L1125.3 546.6L1123.5 551.9Q1123.1 552.9 1122.2 552.9ZM1129.5 534.7L1126.1 544.4L1132.9 544.4L1129.6 534.7L1129.5 534.7ZM1148.1 552.7L1142.3 552.7Q1141.7 552.7 1141.4 552.3Q1141.0 551.9 1141.0 551.3L1141.0 551.3L1141.0 532.9Q1141.0 532.3 1141.4 531.9Q1141.7 531.5 1142.3 531.5L1142.3 531.5L1148.1 531.5Q1152.8 531.5 1155.5 534.3Q1158.1 537.1 1158.1 542.1L1158.1 542.1Q1158.1 547.1 1155.5 549.9Q1152.8 552.7 1148.1 552.7L1148.1 552.7ZM1143.7 533.9L1143.7 550.3L1148.0 550.3Q1151.5 550.3 1153.5 548.2Q1155.4 546.1 1155.4 542.1L1155.4 542.1Q1155.4 538.1 1153.5 536.0Q1151.6 533.9 1148.0 533.9L1148.0 533.9L1143.7 533.9Z "/></svg>