<svg width="1200" height="630" viewBox="0 0 1200 630" xmlns="http://www.w3.org/2000/svg"><mask id="satori_om-id"><rect x="0" y="0" width="1200" height="630" fill="#fff"/></mask><mask id="satori_om-id-0"><rect x="0" y="0" width="1200" height="630" fill="#fff"/></mask><rect x="0" y="0" width="1200" height="630" fill="#f2f2f2"/><mask id="satori_om-id-0-0"><rect x="0" y="0" width="1200" height="441" fill="#fff"/></mask><mask id="satori_om-id-0-0-0"><rect x="40" y="95" width="1120" height="36" fill="#fff"/></mask><path fill="#8e8e8e" d="M50.0 123.4Q49.6 123.9 48.8 123.9Q48.1 123.9 47.6 123.4Q47.2 123.0 47.2 122.2L47.2 122.2L47.2 105.4L42.0 105.4Q41.3 105.4 40.9 105.0Q40.5 104.6 40.5 103.9Q40.5 103.3 40.9 102.9Q41.3 102.5 42.0 102.5L42.0 102.5L55.6 102.5Q56.3 102.5 56.8 102.9Q57.2 103.3 57.2 103.9Q57.2 104.6 56.8 105.0Q56.3 105.4 55.6 105.4L55.6 105.4L50.5 105.4L50.5 122.2Q50.5 123.0 50.0 123.4ZM62.1 123.5Q61.6 123.9 60.9 123.9Q60.2 123.9 59.8 123.5Q59.3 123.0 59.3 122.3L59.3 122.3L59.3 103.9Q59.3 103.1 59.8 102.7Q60.2 102.2 60.9 102.2L60.9 102.2Q61.6 102.2 62.1 102.7Q62.5 103.1 62.5 103.9L62.5 103.9L62.5 110.8L62.5 110.8Q63.2 109.5 64.4 108.7Q65.7 108.0 67.4 108.0L67.4 108.0Q69.9 108.0 71.4 109.5Q72.8 111.1 72.8 113.7L72.8 113.7L72.8 122.3Q72.8 123.0 72.4 123.5Q71.9 123.9 71.2 123.9L71.2 123.9Q70.5 123.9 70.1 123.5Q69.6 123.0 69.6 122.3L69.6 122.3L69.6 114.3Q69.6 112.6 68.8 111.7Q67.9 110.7 66.3 110.7L66.3 110.7Q64.5 110.7 63.5 111.8Q62.5 112.9 62.5 114.8L62.5 114.8L62.5 122.3Q62.5 123.0 62.1 123.5ZM81.2 123.9L81.2 123.9Q78.7 123.9 77.2 122.4Q75.8 120.9 75.8 118.2L75.8 118.2L75.8 109.7Q75.8 108.9 76.2 108.4Q76.7 108.0 77.4 108.0L77.4 108.0Q78.1 108.0 78.5 108.4Q79.0 108.9 79.0 109.7L79.0 109.7L79.0 117.6Q79.0 119.4 79.8 120.3Q80.6 121.2 82.3 121.2L82.3 121.2Q84.0 121.2 84.9 120.1Q85.9 119.0 85.9 117.2L85.9 117.2L85.9 109.7Q85.9 108.9 86.4 108.4Q86.8 108.0 87.5 108.0L87.5 108.0Q88.2 108.0 88.7 108.4Q89.1 108.9 89.1 109.7L89.1 109.7L89.1 122.3Q89.1 123.1 88.7 123.5Q88.3 123.9 87.6 123.9Q86.9 123.9 86.5 123.5Q86.1 123.1 86.1 122.3L86.1 122.3L86.1 121.1L86.0 121.1Q84.6 123.9 81.2 123.9ZM93.8 123.9L93.8 123.9Q93.1 123.9 92.6 123.5Q92.2 123.0 92.2 122.3L92.2 122.3L92.2 109.6Q92.2 108.9 92.6 108.4Q93.0 108.0 93.7 108.0L93.7 108.0Q94.4 108.0 94.8 108.4Q95.2 108.9 95.2 109.6L95.2 109.6L95.2 110.9L95.3 110.9Q95.6 109.6 96.6 108.8Q97.5 108.0 98.7 108.0L98.7 108.0Q99.5 108.0 99.9 108.4L99.9 108.4Q100.3 108.7 100.3 109.5L100.3 109.5Q100.3 110.2 99.9 110.6L99.9 110.6Q99.4 111.0 98.4 111.0L98.4 111.0Q96.9 111.0 96.1 112.0Q95.4 112.9 95.4 114.4L95.4 114.4L95.4 122.3Q95.4 123.0 94.9 123.5Q94.5 123.9 93.8 123.9ZM107.7 124.0L107.7 124.0Q105.5 124.0 103.9 123.1Q102.3 122.3 101.7 120.8L101.7 120.8Q101.6 120.5 101.6 120.2L101.6 120.2Q101.6 119.6 102.0 119.2Q102.4 118.9 103.0 118.9L103.0 118.9Q103.8 118.9 104.4 119.7L104.4 119.7Q105.0 120.7 105.8 121.1Q106.5 121.5 107.9 121.5L107.9 121.5Q109.3 121.5 110.1 121.0Q110.9 120.4 110.9 119.5L110.9 119.5Q110.9 118.7 110.4 118.3Q109.9 117.8 108.7 117.5L108.7 117.5L106.2 117.0Q101.8 115.9 101.8 112.6L101.8 112.6Q101.8 110.5 103.4 109.2Q105.1 108.0 107.9 108.0L107.9 108.0Q109.9 108.0 111.5 108.9Q113.0 109.8 113.4 111.2L113.4 111.2Q113.4 111.6 113.4 111.7L113.4 111.7Q113.4 112.2 113.1 112.5Q112.8 112.9 112.2 112.9L112.2 112.9Q111.3 112.9 110.9 112.2L110.9 112.2Q110.4 111.3 109.6 110.8Q108.9 110.4 107.7 110.4L107.7 110.4Q106.5 110.4 105.7 111.0Q104.9 111.5 104.9 112.4L104.9 112.4Q104.9 113.9 107.2 114.5L107.2 114.5L109.6 115.0Q112.1 115.6 113.1 116.5Q114.1 117.5 114.1 119.2L114.1 119.2Q114.1 121.3 112.3 122.6Q110.6 124.0 107.7 124.0ZM122.3 123.9L122.3 123.9Q119.4 123.9 117.6 121.8Q115.9 119.6 115.9 116.0Q115.9 112.3 117.6 110.2Q119.4 108.0 122.3 108.0L122.3 108.0Q123.9 108.0 125.2 108.8Q126.5 109.5 127.1 110.8L127.1 110.8L127.2 110.8L127.2 103.9Q127.2 103.1 127.6 102.7Q128.1 102.2 128.8 102.2L128.8 102.2Q129.5 102.2 129.9 102.7Q130.4 103.2 130.4 103.9L130.4 103.9L130.4 122.4Q130.4 123.1 129.9 123.5Q129.5 123.9 128.8 123.9L128.8 123.9Q128.1 123.9 127.7 123.5Q127.2 123.1 127.2 122.4L127.2 122.4L127.2 120.9L127.2 120.9Q126.5 122.3 125.3 123.1Q124.1 123.9 122.3 123.9ZM123.2 121.2L123.2 121.2Q125.0 121.2 126.1 119.8Q127.2 118.4 127.2 116.0L127.2 116.0Q127.2 113.6 126.1 112.1Q125.0 110.7 123.2 110.7L123.2 110.7Q121.3 110.7 120.2 112.1Q119.1 113.5 119.1 116.0L119.1 116.0Q119.1 118.4 120.2 119.8Q121.3 121.2 123.2 121.2ZM138.1 123.9L138.1 123.9Q135.9 123.9 134.4 122.6Q133.0 121.3 133.0 119.3L133.0 119.3Q133.0 117.3 134.5 116.1Q136.0 114.9 138.7 114.7L138.7 114.7L142.9 114.5L142.9 113.3Q142.9 112.0 142.1 111.3Q141.3 110.6 139.9 110.6L139.9 110.6Q138.7 110.6 137.9 111.0Q137.1 111.5 136.4 112.5L136.4 112.5Q136.0 113.2 135.2 113.2L135.2 113.2Q134.6 113.2 134.2 112.8Q133.8 112.4 133.8 111.9L133.8 111.9Q133.8 111.3 134.1 110.8L134.1 110.8Q134.7 109.5 136.3 108.8Q137.9 108.0 140.0 108.0L140.0 108.0Q142.8 108.0 144.4 109.4Q146.1 110.7 146.1 113.0L146.1 113.0L146.1 122.3Q146.1 123.1 145.7 123.5Q145.2 123.9 144.6 123.9L144.6 123.9Q143.9 123.9 143.5 123.5Q143.1 123.1 143.1 122.4L143.1 122.4L143.1 121.1L143.0 121.1Q142.3 122.4 141.0 123.2Q139.7 123.9 138.1 123.9ZM139.0 121.4L139.0 121.4Q140.7 121.4 141.8 120.4Q142.9 119.4 142.9 117.9L142.9 117.9L142.9 116.7L139.1 116.9Q137.7 117.0 137.0 117.6Q136.2 118.2 136.2 119.2L136.2 119.2Q136.2 120.2 137.0 120.8Q137.7 121.4 139.0 121.4ZM151.1 129.4L151.1 129.4Q150.0 129.4 149.4 129.0Q148.8 128.6 148.8 127.9L148.8 127.9Q148.8 127.4 149.1 127.1Q149.5 126.8 150.0 126.8L150.0 126.8Q150.2 126.8 150.4 126.8Q150.7 126.8 150.8 126.8L150.8 126.8Q152.4 126.8 153.2 124.7L153.2 124.7L153.5 123.8L148.3 110.3Q148.1 109.9 148.1 109.4L148.1 109.4Q148.1 108.8 148.6 108.4Q149.1 108.0 149.8 108.0L149.8 108.0Q150.4 108.0 150.7 108.3Q151.1 108.5 151.3 109.2L151.3 109.2L155.2 120.8L155.3 120.8L159.2 109.2Q159.4 108.5 159.7 108.3Q160.1 108.0 160.7 108.0L160.7 108.0Q161.4 108.0 161.8 108.4Q162.2 108.8 162.2 109.4L162.2 109.4Q162.2 109.8 162.1 110.3L162.1 110.3L156.7 124.4Q155.7 127.2 154.5 128.3Q153.2 129.4 151.1 129.4ZM166.7 120.1L166.7 120.1Q167.4 120.1 167.8 120.5Q168.2 120.8 168.2 121.4L168.2 121.4Q168.2 121.8 168.1 122.3L168.1 122.3L166.8 127.3Q166.5 128.4 165.4 128.4L165.4 128.4Q164.9 128.4 164.5 128.1Q164.2 127.7 164.2 127.2L164.2 127.2Q164.2 127.1 164.3 126.8L164.3 126.8L165.2 121.4Q165.4 120.1 166.7 120.1Z M181.7 123.9L181.7 123.9Q181.0 123.9 180.6 123.6Q180.2 123.2 180.2 122.6L180.2 122.6Q180.2 122.1 180.5 121.6L180.5 121.6L189.0 105.4L189.0 105.3L179.1 105.3Q178.5 105.3 178.1 104.9Q177.7 104.5 177.7 103.9L177.7 103.9Q177.7 103.3 178.1 102.9Q178.5 102.5 179.1 102.5L179.1 102.5L190.3 102.5Q191.2 102.5 191.8 103.0Q192.3 103.5 192.3 104.4L192.3 104.4Q192.3 105.1 191.7 106.4L191.7 106.4L183.2 123.0Q182.9 123.5 182.6 123.7Q182.2 123.9 181.7 123.9Z M204.2 123.5Q203.8 123.9 203.1 123.9Q202.3 123.9 201.9 123.5Q201.5 123.0 201.5 122.2L201.5 122.2L201.5 104.1Q201.5 103.2 201.9 102.8Q202.4 102.3 203.2 102.3L203.2 102.3Q203.8 102.3 204.2 102.5Q204.6 102.7 205.0 103.3L205.0 103.3L215.4 118.1L215.5 118.1L215.5 104.0Q215.5 103.2 215.9 102.7Q216.4 102.3 217.1 102.3L217.1 102.3Q217.8 102.3 218.3 102.7Q218.7 103.2 218.7 104.0L218.7 104.0L218.7 122.2Q218.7 123.0 218.2 123.5Q217.8 123.9 217.0 123.9L217.0 123.9Q216.4 123.9 216.0 123.7Q215.6 123.5 215.2 122.9L215.2 122.9L204.8 108.1L204.6 108.1L204.6 122.2Q204.6 123.0 204.2 123.5ZM234.2 121.8Q232.2 124.0 228.8 124.0Q225.5 124.0 223.5 121.8Q221.5 119.7 221.5 116.0L221.5 116.0Q221.5 112.3 223.5 110.1Q225.5 108.0 228.8 108.0Q232.2 108.0 234.2 110.1Q236.1 112.3 236.1 116.0L236.1 116.0Q236.1 119.7 234.2 121.8ZM228.8 121.3L228.8 121.3Q230.7 121.3 231.8 119.9Q232.9 118.5 232.9 116.0L232.9 116.0Q232.9 113.4 231.8 112.0Q230.7 110.6 228.8 110.6Q227.0 110.6 225.9 112.0Q224.7 113.4 224.7 116.0L224.7 116.0Q224.7 118.5 225.9 119.9Q227.0 121.3 228.8 121.3ZM244.5 123.9L244.5 123.9Q243.7 123.9 243.2 123.6Q242.7 123.2 242.3 122.3L242.3 122.3L237.8 110.3Q237.6 109.8 237.6 109.4L237.6 109.4Q237.6 108.8 238.0 108.4Q238.5 108.0 239.2 108.0L239.2 108.0Q240.3 108.0 240.7 109.2L240.7 109.2L244.5 120.6L244.6 120.6L248.4 109.2Q248.8 108.0 249.9 108.0L249.9 108.0Q250.5 108.0 251.0 108.4Q251.4 108.8 251.4 109.4L251.4 109.4Q251.4 109.9 251.3 110.3L251.3 110.3L246.7 122.3Q246.4 123.2 245.9 123.6Q245.3 123.9 244.5 123.9ZM260.2 124.0L260.2 124.0Q256.8 124.0 254.8 121.9Q252.9 119.8 252.9 116.0L252.9 116.0Q252.9 112.4 254.8 110.2Q256.8 108.0 260.0 108.0L260.0 108.0Q263.1 108.0 265.0 110.0Q266.9 112.0 266.9 115.1L266.9 115.1Q266.9 115.9 266.5 116.3Q266.1 116.8 265.4 116.8L265.4 116.8L256.1 116.8L256.1 116.8Q256.1 118.9 257.2 120.2Q258.3 121.4 260.2 121.4L260.2 121.4Q261.5 121.4 262.4 120.9Q263.3 120.4 264.2 119.2L264.2 119.2Q264.6 118.6 265.3 118.6L265.3 118.6Q265.8 118.6 266.2 119.0Q266.6 119.3 266.6 119.9L266.6 119.9Q266.6 120.3 266.4 120.8L266.4 120.8Q265.6 122.3 264.0 123.1Q262.4 124.0 260.2 124.0ZM256.1 114.5L256.1 114.5L263.8 114.5Q263.7 112.7 262.7 111.6Q261.7 110.5 260.0 110.5L260.0 110.5Q258.4 110.5 257.3 111.6Q256.2 112.7 256.1 114.5ZM272.1 123.5Q271.7 123.9 271.0 123.9Q270.3 123.9 269.8 123.5Q269.4 123.0 269.4 122.3L269.4 122.3L269.4 109.6Q269.4 108.9 269.8 108.4Q270.2 108.0 270.9 108.0Q271.6 108.0 272.0 108.4Q272.4 108.8 272.4 109.6L272.4 109.6L272.4 110.8L272.5 110.8Q273.0 109.5 274.2 108.8Q275.3 108.0 276.9 108.0L276.9 108.0Q278.5 108.0 279.6 108.8Q280.7 109.6 281.2 111.0L281.2 111.0L281.2 111.0Q281.8 109.6 283.1 108.8Q284.4 108.0 286.0 108.0L286.0 108.0Q288.3 108.0 289.7 109.4Q291.1 110.8 291.1 113.1L291.1 113.1L291.1 122.3Q291.1 123.0 290.6 123.5Q290.2 123.9 289.5 123.9Q288.8 123.9 288.3 123.5Q287.9 123.0 287.9 122.3L287.9 122.3L287.9 113.8Q287.9 112.3 287.1 111.5Q286.4 110.7 285.0 110.7Q283.6 110.7 282.7 111.6Q281.8 112.6 281.8 114.0L281.8 114.0L281.8 122.3Q281.8 123.0 281.4 123.5Q281.0 123.9 280.2 123.9Q279.5 123.9 279.1 123.5Q278.7 123.0 278.7 122.3L278.7 122.3L278.7 113.6Q278.7 112.3 277.9 111.5Q277.1 110.7 275.8 110.7L275.8 110.7Q274.4 110.7 273.5 111.7Q272.6 112.6 272.6 114.1L272.6 114.1L272.6 122.3Q272.6 123.0 272.1 123.5ZM295.8 123.9L295.8 123.9Q295.1 123.9 294.7 123.5Q294.3 123.1 294.3 122.4L294.3 122.4L294.3 103.9Q294.3 103.2 294.7 102.7Q295.1 102.2 295.8 102.2Q296.5 102.2 297.0 102.7Q297.4 103.2 297.4 103.9L297.4 103.9L297.4 110.9L297.5 110.9Q298.2 109.5 299.5 108.8Q300.7 108.0 302.4 108.0L302.4 108.0Q305.3 108.0 307.0 110.2Q308.8 112.3 308.8 116.0L308.8 116.0Q308.8 119.6 307.0 121.8Q305.3 123.9 302.3 123.9L302.3 123.9Q300.7 123.9 299.4 123.2Q298.1 122.4 297.4 121.0L297.4 121.0L297.3 121.0L297.3 122.4Q297.3 123.1 296.9 123.5Q296.5 123.9 295.8 123.9ZM301.5 121.2L301.5 121.2Q303.4 121.2 304.4 119.8Q305.5 118.4 305.5 116.0L305.5 116.0Q305.5 113.5 304.4 112.1Q303.3 110.7 301.5 110.7L301.5 110.7Q299.7 110.7 298.5 112.1Q297.4 113.6 297.4 116.0L297.4 116.0Q297.4 118.3 298.5 119.8Q299.7 121.2 301.5 121.2ZM317.9 124.0L317.9 124.0Q314.4 124.0 312.5 121.9Q310.5 119.8 310.5 116.0L310.5 116.0Q310.5 112.4 312.5 110.2Q314.4 108.0 317.7 108.0L317.7 108.0Q320.8 108.0 322.7 110.0Q324.6 112.0 324.6 115.1L324.6 115.1Q324.6 115.9 324.2 116.3Q323.8 116.8 323.1 116.8L323.1 116.8L313.7 116.8L313.7 116.8Q313.7 118.9 314.8 120.2Q315.9 121.4 317.8 121.4L317.8 121.4Q319.1 121.4 320.0 120.9Q320.9 120.4 321.8 119.2L321.8 119.2Q322.3 118.6 322.9 118.6L322.9 118.6Q323.5 118.6 323.9 119.0Q324.3 119.3 324.3 119.9L324.3 119.9Q324.3 120.3 324.0 120.8L324.0 120.8Q323.3 122.3 321.7 123.1Q320.1 124.0 317.9 124.0ZM313.8 114.5L313.8 114.5L321.5 114.5Q321.4 112.7 320.4 111.6Q319.3 110.5 317.7 110.5L317.7 110.5Q316.0 110.5 315.0 111.6Q313.9 112.7 313.8 114.5ZM328.6 123.9L328.6 123.9Q327.9 123.9 327.5 123.5Q327.1 123.0 327.1 122.3L327.1 122.3L327.1 109.6Q327.1 108.9 327.5 108.4Q327.9 108.0 328.6 108.0L328.6 108.0Q329.2 108.0 329.7 108.4Q330.1 108.9 330.1 109.6L330.1 109.6L330.1 110.9L330.1 110.9Q330.5 109.6 331.4 108.8Q332.4 108.0 333.5 108.0L333.5 108.0Q334.4 108.0 334.8 108.4L334.8 108.4Q335.2 108.7 335.2 109.5L335.2 109.5Q335.2 110.2 334.7 110.6L334.7 110.6Q334.3 111.0 333.3 111.0L333.3 111.0Q331.7 111.0 331.0 112.0Q330.2 112.9 330.2 114.4L330.2 114.4L330.2 122.3Q330.2 123.0 329.8 123.5Q329.4 123.9 328.6 123.9Z M356.2 123.7L344.6 123.7Q343.8 123.7 343.4 123.3Q343.0 122.9 343.0 122.3L343.0 122.3Q343.0 121.8 343.2 121.5Q343.4 121.1 343.9 120.6L343.9 120.6L350.5 113.9Q352.6 111.8 353.3 110.7Q353.9 109.6 353.9 108.3L353.9 108.3Q353.9 106.8 352.9 105.8Q351.9 104.8 350.3 104.8L350.3 104.8Q347.1 104.8 346.0 108.0L346.0 108.0Q345.8 108.5 345.4 108.8Q345.1 109.0 344.5 109.0L344.5 109.0Q343.9 109.0 343.5 108.6Q343.1 108.3 343.1 107.6L343.1 107.6Q343.1 107.3 343.2 107.0L343.2 107.0Q343.4 106.1 343.9 105.3Q344.5 104.4 345.3 103.7Q346.2 103.0 347.5 102.6Q348.8 102.1 350.3 102.1L350.3 102.1Q353.3 102.1 355.2 103.8Q357.2 105.5 357.2 108.1L357.2 108.1Q357.2 109.9 356.2 111.5Q355.2 113.0 352.5 115.8L352.5 115.8L347.5 120.8L347.5 120.9L356.2 120.9Q356.9 120.9 357.3 121.3Q357.7 121.7 357.7 122.3L357.7 122.3Q357.7 122.9 357.3 123.3Q356.9 123.7 356.2 123.7L356.2 123.7ZM374.1 121.1Q372.0 124.1 368.2 124.1Q364.4 124.1 362.2 121.1Q360.1 118.2 360.1 113.1L360.1 113.1Q360.1 108.0 362.2 105.1Q364.4 102.1 368.2 102.1L368.2 102.1Q371.9 102.1 374.1 105.1Q376.2 108.0 376.2 113.1L376.2 113.1Q376.2 118.1 374.1 121.1ZM368.2 121.3L368.2 121.3Q370.4 121.3 371.7 119.1Q372.9 116.9 372.9 113.1L372.9 113.1Q372.9 109.3 371.7 107.1Q370.4 104.9 368.2 104.9Q365.9 104.9 364.7 107.1Q363.4 109.3 363.4 113.1L363.4 113.1Q363.4 116.9 364.6 119.1Q365.9 121.3 368.2 121.3ZM392.3 123.7L380.6 123.7Q379.9 123.7 379.5 123.3Q379.1 122.9 379.1 122.3L379.1 122.3Q379.1 121.8 379.3 121.5Q379.5 121.1 380.0 120.6L380.0 120.6L386.6 113.9Q388.7 111.8 389.4 110.7Q390.0 109.6 390.0 108.3L390.0 108.3Q390.0 106.8 389.0 105.8Q388.0 104.8 386.4 104.8L386.4 104.8Q383.2 104.8 382.1 108.0L382.1 108.0Q381.9 108.5 381.5 108.8Q381.2 109.0 380.6 109.0L380.6 109.0Q380.0 109.0 379.6 108.6Q379.2 108.3 379.2 107.6L379.2 107.6Q379.2 107.3 379.3 107.0L379.3 107.0Q379.4 106.1 380.0 105.3Q380.5 104.4 381.4 103.7Q382.3 103.0 383.6 102.6Q384.9 102.1 386.4 102.1L386.4 102.1Q389.4 102.1 391.3 103.8Q393.3 105.5 393.3 108.1L393.3 108.1Q393.3 109.9 392.3 111.5Q391.3 113.0 388.6 115.8L388.6 115.8L383.5 120.8L383.5 120.9L392.3 120.9Q393.0 120.9 393.4 121.3Q393.8 121.7 393.8 122.3L393.8 122.3Q393.8 122.9 393.4 123.3Q393.0 123.7 392.3 123.7L392.3 123.7ZM408.1 123.9L408.1 123.9Q407.5 123.9 407.0 123.5Q406.6 123.0 406.6 122.3L406.6 122.3L406.6 119.5L397.9 119.5Q397.0 119.5 396.5 119.0Q396.0 118.4 396.0 117.6L396.0 117.6Q396.0 116.6 396.7 115.3L396.7 115.3Q398.5 112.0 403.5 104.7L403.5 104.7Q404.5 103.3 405.2 102.8Q406.0 102.2 407.0 102.2L407.0 102.2Q408.3 102.2 409.0 102.9Q409.7 103.5 409.7 104.7L409.7 104.7L409.7 116.7L411.4 116.7Q412.0 116.7 412.4 117.1Q412.8 117.5 412.8 118.1Q412.8 118.7 412.4 119.1Q412.0 119.5 411.4 119.5L411.4 119.5L409.7 119.5L409.7 122.3Q409.7 123.0 409.3 123.5Q408.8 123.9 408.1 123.9ZM399.0 116.8L406.6 116.8L406.6 105.1L406.5 105.1Q401.1 112.9 399.0 116.7L399.0 116.7L399.0 116.8Z "/><mask id="satori_om-id-0-0-1"><rect x="40" y="176" width="1120" height="165" fill="#fff"/></mask><path fill="#224d67" d="M58.6 239.3L58.6 239.3Q52.5 239.3 48.3 237.0Q44.2 234.7 42.9 231.0L42.9 231.0Q42.5 229.9 42.5 228.8L42.5 228.8Q42.5 227.2 43.4 226.3Q44.3 225.3 45.8 225.3L45.8 225.3Q47.1 225.3 47.9 225.9Q48.8 226.4 49.4 227.7L49.4 227.7Q50.3 230.4 52.8 231.7Q55.3 233.0 58.8 233.0L58.8 233.0Q62.6 233.0 65.1 231.3Q67.5 229.6 67.5 227.0L67.5 227.0Q67.5 224.7 65.7 223.2Q64.0 221.8 59.9 220.9L59.9 220.9L55.4 220.0Q42.9 217.4 42.9 208.1L42.9 208.1Q42.9 202.5 47.3 199.1Q51.7 195.6 58.6 195.6L58.6 195.6Q64.3 195.6 68.3 198.0Q72.3 200.4 73.6 204.5L73.6 204.5Q73.9 205.2 73.9 206.3L73.9 206.3Q73.9 207.6 73.0 208.5Q72.1 209.4 70.6 209.4L70.6 209.4Q68.2 209.4 67.0 207.0L67.0 207.0Q64.9 201.9 58.6 201.9L58.6 201.9Q55.0 201.9 52.8 203.4Q50.5 205.0 50.5 207.6L50.5 207.6Q50.5 209.8 52.3 211.2Q54.0 212.7 57.9 213.5L57.9 213.5L62.5 214.4Q69.1 215.8 72.1 218.6Q75.1 221.4 75.1 226.1L75.1 226.1Q75.1 232.2 70.7 235.7Q66.2 239.3 58.6 239.3ZM84.6 239.1L84.6 239.1Q82.8 239.1 81.8 238.0Q80.8 237.0 80.8 235.2L80.8 235.2L80.8 199.7Q80.8 197.9 81.8 196.8Q82.8 195.8 84.6 195.8L84.6 195.8Q86.3 195.8 87.3 196.8Q88.3 197.9 88.3 199.7L88.3 199.7L88.3 235.2Q88.3 237.0 87.3 238.1Q86.3 239.1 84.6 239.1ZM99.6 239.1L99.6 239.1Q97.8 239.1 96.8 238.0Q95.8 237.0 95.8 235.2L95.8 235.2L95.8 200.2Q95.8 198.4 96.8 197.3Q97.8 196.3 99.6 196.3L99.6 196.3L119.8 196.3Q121.4 196.3 122.3 197.2Q123.2 198.0 123.2 199.5Q123.2 201.0 122.3 201.8Q121.3 202.7 119.8 202.7L119.8 202.7L103.3 202.7L103.3 215.2L118.3 215.2Q119.7 215.2 120.7 216.0Q121.6 216.8 121.6 218.2Q121.6 219.7 120.7 220.5Q119.7 221.3 118.3 221.3L118.3 221.3L103.3 221.3L103.3 235.2Q103.3 237.0 102.3 238.1Q101.3 239.1 99.6 239.1ZM142.3 239.1L142.3 239.1Q140.5 239.1 139.6 238.1Q138.6 237.0 138.6 235.2L138.6 235.2L138.6 202.7L128.9 202.7Q127.3 202.7 126.4 201.8Q125.4 201.0 125.4 199.5Q125.4 198.0 126.4 197.2Q127.3 196.3 128.9 196.3L128.9 196.3L155.8 196.3Q157.3 196.3 158.3 197.2Q159.2 198.0 159.2 199.5Q159.2 201.0 158.3 201.8Q157.3 202.7 155.8 202.7L155.8 202.7L146.1 202.7L146.1 235.2Q146.1 237.0 145.1 238.1Q144.1 239.1 142.3 239.1ZM187.8 234.9Q183.8 239.2 176.9 239.2Q170.0 239.2 165.9 234.9Q161.8 230.6 161.8 223.1L161.8 223.1Q161.8 215.6 165.9 211.2Q170.0 206.9 176.9 206.9L176.9 206.9Q183.7 206.9 187.8 211.2Q191.9 215.6 191.9 223.1L191.9 223.1Q191.9 230.6 187.8 234.9ZM171.3 230.7Q173.4 233.4 176.9 233.4Q180.4 233.4 182.4 230.7Q184.5 228.0 184.5 223.1L184.5 223.1Q184.5 218.2 182.4 215.4Q180.4 212.7 176.9 212.7L176.9 212.7Q173.4 212.7 171.3 215.4Q169.3 218.2 169.3 223.1L169.3 223.1Q169.3 228.0 171.3 230.7ZM203.2 238.1Q202.3 239.1 200.7 239.1Q199.1 239.1 198.2 238.1Q197.3 237.2 197.3 235.5L197.3 235.5L197.3 200.6Q197.3 198.4 198.6 197.1Q199.9 195.8 202.2 195.8L202.2 195.8Q204.2 195.8 205.4 196.7Q206.6 197.6 207.4 199.7L207.4 199.7L219.0 228.2L219.3 228.2L230.9 199.7Q231.7 197.7 232.9 196.7Q234.2 195.8 236.1 195.8L236.1 195.8Q238.4 195.8 239.7 197.1Q240.9 198.4 240.9 200.6L240.9 200.6L240.9 235.5Q240.9 237.2 240.1 238.1Q239.2 239.1 237.5 239.1Q235.9 239.1 235.0 238.1Q234.2 237.2 234.2 235.5L234.2 235.5L234.2 208.6L233.9 208.6L222.7 235.8Q221.7 238.3 219.2 238.3L219.2 238.3Q216.6 238.3 215.6 235.8L215.6 235.8L204.4 208.6L204.2 208.6L204.2 235.5Q204.2 237.2 203.2 238.1ZM252.8 217.7L252.8 217.7Q251.0 217.7 249.8 216.5Q248.6 215.3 248.6 213.5Q248.6 211.8 249.8 210.5Q251.0 209.3 252.8 209.3L252.8 209.3Q254.5 209.3 255.8 210.5Q257.0 211.8 257.0 213.5Q257.0 215.3 255.8 216.5Q254.5 217.7 252.8 217.7ZM252.8 238.9L252.8 238.9Q251.0 238.9 249.8 237.7Q248.6 236.5 248.6 234.7L248.6 234.7Q248.6 232.9 249.8 231.7Q251.0 230.5 252.8 230.5L252.8 230.5Q254.5 230.5 255.8 231.7Q257.0 232.9 257.0 234.7L257.0 234.7Q257.0 236.5 255.8 237.7Q254.5 238.9 252.8 238.9Z M283.1 238.1Q282.1 239.2 280.4 239.2Q278.6 239.2 277.6 238.1Q276.6 237.1 276.6 235.2L276.6 235.2L276.6 200.2Q276.6 198.4 277.6 197.3Q278.6 196.3 280.4 196.3L280.4 196.3L293.4 196.3Q300.2 196.3 304.1 199.8Q308.0 203.4 308.0 209.5L308.0 209.5Q308.0 213.6 305.9 216.8Q303.9 220.0 300.3 221.4L300.3 221.4L307.0 233.1Q307.8 234.5 307.8 235.7L307.8 235.7Q307.8 237.2 306.7 238.2Q305.6 239.2 304.0 239.2L304.0 239.2Q302.6 239.2 301.8 238.6Q301.0 238.0 300.1 236.4L300.1 236.4L292.6 222.7L284.1 222.7L284.1 235.2Q284.1 237.1 283.1 238.1ZM284.1 202.4L284.1 216.9L292.7 216.9Q296.3 216.9 298.3 215.0Q300.2 213.1 300.2 209.6L300.2 209.6Q300.2 206.3 298.2 204.4Q296.1 202.4 292.5 202.4L292.5 202.4L284.1 202.4ZM338.0 234.9Q334.0 239.2 327.1 239.2Q320.2 239.2 316.1 234.9Q312.1 230.6 312.1 223.1L312.1 223.1Q312.1 215.6 316.2 211.2Q320.3 206.9 327.1 206.9L327.1 206.9Q333.9 206.9 338.0 211.2Q342.1 215.6 342.1 223.1L342.1 223.1Q342.1 230.6 338.0 234.9ZM321.5 230.7Q323.6 233.4 327.1 233.4Q330.6 233.4 332.6 230.7Q334.7 228.0 334.7 223.1L334.7 223.1Q334.7 218.2 332.6 215.4Q330.6 212.7 327.1 212.7L327.1 212.7Q323.6 212.7 321.5 215.4Q319.5 218.2 319.5 223.1L319.5 223.1Q319.5 228.0 321.5 230.7ZM353.2 238.2Q352.2 239.2 350.5 239.2Q348.9 239.2 348.0 238.2Q347.0 237.3 347.0 235.5L347.0 235.5L347.0 199.6Q347.0 197.7 348.0 196.7Q349.0 195.7 350.7 195.7Q352.3 195.7 353.3 196.7Q354.3 197.7 354.3 199.6L354.3 199.6L354.3 212.9L354.5 212.9Q355.8 210.1 358.4 208.5Q360.9 207.0 364.2 207.0L364.2 207.0Q370.1 207.0 373.5 211.3Q377.0 215.6 377.0 223.1L377.0 223.1Q377.0 230.5 373.5 234.8Q370.1 239.1 364.2 239.1L364.2 239.1Q360.8 239.1 358.3 237.6Q355.7 236.0 354.3 233.3L354.3 233.3L354.2 233.3L354.2 235.5Q354.2 237.2 353.2 238.2ZM361.9 233.1L361.9 233.1Q365.4 233.1 367.5 230.4Q369.5 227.7 369.5 223.1Q369.5 218.4 367.5 215.7Q365.4 213.0 361.9 213.0L361.9 213.0Q358.5 213.0 356.4 215.8Q354.3 218.5 354.3 223.1L354.3 223.1Q354.3 227.6 356.4 230.3Q358.5 233.1 361.9 233.1ZM392.6 239.1L392.6 239.1Q387.5 239.1 384.5 236.0Q381.5 233.0 381.5 227.6L381.5 227.6L381.5 210.7Q381.5 209.0 382.5 207.9Q383.5 206.9 385.2 206.9Q386.8 206.9 387.8 207.9Q388.8 209.0 388.8 210.8L388.8 210.8L388.8 226.1Q388.8 229.5 390.4 231.2Q392.0 233.0 395.1 233.0L395.1 233.0Q398.2 233.0 400.1 230.9Q401.9 228.9 401.9 225.5L401.9 225.5L401.9 210.7Q401.9 209.0 402.9 207.9Q404.0 206.9 405.6 206.9L405.6 206.9Q407.2 206.9 408.2 207.9Q409.2 209.0 409.2 210.8L409.2 210.8L409.2 235.5Q409.2 237.2 408.3 238.2Q407.3 239.2 405.7 239.2L405.7 239.2Q404.1 239.2 403.2 238.2Q402.2 237.2 402.2 235.5L402.2 235.5L402.2 233.2L402.1 233.2Q399.5 239.1 392.6 239.1ZM427.2 239.2L427.2 239.2Q422.3 239.2 419.0 237.5Q415.6 235.8 414.5 233.0L414.5 233.0Q414.2 232.2 414.2 231.5L414.2 231.5Q414.2 230.2 415.1 229.4Q415.9 228.6 417.3 228.6L417.3 228.6Q419.1 228.6 420.4 230.4L420.4 230.4Q421.7 232.3 423.3 233.1Q424.9 233.9 427.4 233.9L427.4 233.9Q430 233.9 431.5 232.9Q433.1 231.8 433.1 230.1L433.1 230.1Q433.1 228.7 432.1 227.8Q431.1 227.0 428.7 226.4L428.7 226.4L423.7 225.3Q414.6 223.3 414.6 216.4L414.6 216.4Q414.6 212.1 418.1 209.5Q421.5 206.9 427.3 206.9L427.3 206.9Q431.7 206.9 434.9 208.8Q438.1 210.6 438.8 213.4L438.8 213.4Q439.0 214.0 439.0 214.5L439.0 214.5Q439.0 215.6 438.3 216.4Q437.5 217.1 436.2 217.1L436.2 217.1Q434.3 217.1 433.4 215.7L433.4 215.7Q432.3 214.0 430.8 213.1Q429.3 212.2 427.1 212.2L427.1 212.2Q424.7 212.2 423.2 213.3Q421.7 214.3 421.7 216.0L421.7 216.0Q421.7 218.8 426.3 219.8L426.3 219.8L431.2 220.9Q436.2 222.0 438.3 223.9Q440.4 225.9 440.4 229.3L440.4 229.3Q440.4 233.8 436.8 236.5Q433.1 239.2 427.2 239.2ZM447.0 230.9L447.0 230.9L447.0 213.1L445.1 213.1Q443.7 213.1 442.9 212.4Q442.1 211.6 442.1 210.3L442.1 210.3Q442.1 209.0 442.9 208.3Q443.7 207.5 445.1 207.5L445.1 207.5L447.0 207.5L447.0 203.4Q447.0 201.6 448.0 200.6Q449.0 199.6 450.7 199.6L450.7 199.6Q452.4 199.6 453.3 200.6Q454.3 201.6 454.3 203.4L454.3 203.4L454.3 207.5L457.7 207.5Q459.1 207.5 459.8 208.3Q460.6 209.0 460.6 210.3L460.6 210.3Q460.6 211.6 459.8 212.4Q459.0 213.1 457.7 213.1L457.7 213.1L454.3 213.1L454.3 229.3Q454.3 231.1 455.0 231.9Q455.7 232.7 457.2 232.9L457.2 232.9L457.8 232.9Q460.7 233.2 460.7 235.6L460.7 235.6Q460.7 237.2 459.4 238.1Q458.0 238.9 455.5 238.9L455.5 238.9L455.2 238.9Q447.0 238.9 447.0 230.9Z M492.8 239.3L492.8 239.3Q486.6 239.3 482.5 237.0Q478.3 234.7 477.1 231.0L477.1 231.0Q476.6 229.9 476.6 228.8L476.6 228.8Q476.6 227.2 477.6 226.3Q478.5 225.3 480.0 225.3L480.0 225.3Q481.2 225.3 482.1 225.9Q482.9 226.4 483.5 227.7L483.5 227.7Q484.5 230.4 487.0 231.7Q489.5 233.0 493.0 233.0L493.0 233.0Q496.8 233.0 499.2 231.3Q501.7 229.6 501.7 227.0L501.7 227.0Q501.7 224.7 499.9 223.2Q498.1 221.8 494.0 220.9L494.0 220.9L489.5 220.0Q477.1 217.4 477.1 208.1L477.1 208.1Q477.1 202.5 481.5 199.1Q485.9 195.6 492.8 195.6L492.8 195.6Q498.4 195.6 502.5 198.0Q506.5 200.4 507.8 204.5L507.8 204.5Q508.0 205.2 508.0 206.3L508.0 206.3Q508.0 207.6 507.1 208.5Q506.2 209.4 504.8 209.4L504.8 209.4Q502.3 209.4 501.1 207.0L501.1 207.0Q499.1 201.9 492.7 201.9L492.7 201.9Q489.2 201.9 486.9 203.4Q484.7 205.0 484.7 207.6L484.7 207.6Q484.7 209.8 486.4 211.2Q488.2 212.7 492.1 213.5L492.1 213.5L496.6 214.4Q503.3 215.8 506.3 218.6Q509.3 221.4 509.3 226.1L509.3 226.1Q509.3 232.2 504.8 235.7Q500.4 239.3 492.8 239.3ZM520.5 248.6Q519.5 249.6 517.8 249.6Q516.2 249.6 515.2 248.6Q514.2 247.6 514.2 245.8L514.2 245.8L514.2 210.7Q514.2 208.9 515.2 207.9Q516.2 206.9 517.7 206.9L517.7 206.9Q519.4 206.9 520.3 207.9Q521.3 208.9 521.3 210.7L521.3 210.7L521.3 212.9L521.5 212.9Q522.8 210.1 525.4 208.6Q527.9 207.0 531.3 207.0L531.3 207.0Q537.2 207.0 540.7 211.3Q544.1 215.6 544.1 223.1L544.1 223.1Q544.1 230.5 540.7 234.8Q537.2 239.1 531.4 239.1L531.4 239.1Q528.0 239.1 525.5 237.6Q522.9 236.1 521.6 233.4L521.6 233.4L521.5 233.4L521.5 245.8Q521.5 247.6 520.5 248.6ZM529.0 233.1L529.0 233.1Q532.6 233.1 534.6 230.4Q536.7 227.7 536.7 223.1L536.7 223.1Q536.7 218.5 534.6 215.7Q532.5 213.0 529.0 213.0L529.0 213.0Q525.6 213.0 523.5 215.8Q521.5 218.5 521.4 223.1L521.4 223.1Q521.5 227.6 523.5 230.4Q525.6 233.1 529.0 233.1ZM573.5 234.9Q569.5 239.2 562.6 239.2Q555.7 239.2 551.6 234.9Q547.5 230.6 547.5 223.1L547.5 223.1Q547.5 215.6 551.6 211.2Q555.7 206.9 562.6 206.9L562.6 206.9Q569.4 206.9 573.5 211.2Q577.6 215.6 577.6 223.1L577.6 223.1Q577.6 230.6 573.5 234.9ZM557.0 230.7Q559.1 233.4 562.6 233.4Q566.1 233.4 568.1 230.7Q570.2 228.0 570.2 223.1L570.2 223.1Q570.2 218.2 568.1 215.4Q566.1 212.7 562.6 212.7L562.6 212.7Q559.1 212.7 557.0 215.4Q555.0 218.2 555.0 223.1L555.0 223.1Q555.0 228.0 557.0 230.7ZM588.8 238.2Q587.8 239.2 586.2 239.2Q584.5 239.2 583.5 238.2Q582.5 237.1 582.5 235.3L582.5 235.3L582.5 199.6Q582.5 197.7 583.5 196.7Q584.5 195.7 586.2 195.7Q587.8 195.7 588.8 196.7Q589.8 197.7 589.8 199.6L589.8 199.6L589.8 220.4L589.9 220.4L602.1 208.3Q603.4 206.9 604.9 206.9L604.9 206.9Q606.3 206.9 607.2 207.8Q608.1 208.7 608.1 210.0L608.1 210.0Q608.1 211.5 606.8 212.7L606.8 212.7L597.9 221.1L607.7 233.3Q608.7 234.7 608.7 235.9L608.7 235.9Q608.7 237.3 607.7 238.3Q606.7 239.2 605.2 239.2L605.2 239.2Q604.1 239.2 603.4 238.7Q602.6 238.3 601.9 237.1L601.9 237.1L592.5 225.3L589.8 227.9L589.8 235.3Q589.8 237.1 588.8 238.2ZM627.2 239.2L627.2 239.2Q620.1 239.2 616.1 235.0Q612.1 230.7 612.1 223.2L612.1 223.2Q612.1 215.7 616.1 211.3Q620.1 206.9 626.8 206.9L626.8 206.9Q633.1 206.9 637.1 210.9Q641.1 215.0 641.1 221.4L641.1 221.4Q641.1 223.0 640.2 223.9Q639.3 224.8 637.7 224.8L637.7 224.8L619.4 224.8L619.4 225.0Q619.4 228.9 621.5 231.3Q623.6 233.6 627.1 233.6L627.1 233.6Q629.6 233.6 631.4 232.6Q633.1 231.7 634.9 229.4L634.9 229.4Q636.0 228.3 637.4 228.3L637.4 228.3Q638.6 228.3 639.5 229.0Q640.3 229.8 640.3 231.1L640.3 231.1Q640.3 231.9 639.8 232.9L639.8 232.9Q638.2 235.9 634.9 237.5Q631.6 239.2 627.2 239.2ZM619.4 220.0L619.4 220.0L633.9 220.0Q633.8 216.6 631.9 214.6Q629.9 212.5 626.8 212.5Q623.7 212.5 621.7 214.6Q619.6 216.7 619.4 220.0ZM652.1 238.2Q651.0 239.2 649.4 239.2Q647.8 239.2 646.8 238.2Q645.8 237.1 645.8 235.3L645.8 235.3L645.8 210.6Q645.8 208.9 646.7 207.9Q647.6 206.9 649.3 206.9Q650.9 206.9 651.9 207.9Q652.9 208.9 652.9 210.6L652.9 210.6L652.9 212.8L653.0 212.8Q655.6 206.9 662.7 206.9L662.7 206.9Q667.8 206.9 670.6 210.0Q673.4 213.1 673.4 218.5L673.4 218.5L673.4 235.3Q673.4 237.1 672.4 238.2Q671.4 239.2 669.8 239.2Q668.2 239.2 667.1 238.2Q666.1 237.1 666.1 235.3L666.1 235.3L666.1 220.0Q666.1 216.6 664.6 214.9Q663.0 213.1 659.9 213.1L659.9 213.1Q656.8 213.1 654.9 215.2Q653.1 217.2 653.1 220.6L653.1 220.6L653.1 235.3Q653.1 237.1 652.1 238.2Z M695.8 239.1L695.8 239.1Q694.0 239.1 693.0 238.0Q692.0 237.0 692.0 235.2L692.0 235.2L692.0 199.7Q692.0 197.9 693.0 196.8Q694.0 195.8 695.8 195.8L695.8 195.8Q697.6 195.8 698.6 196.8Q699.6 197.9 699.6 199.7L699.6 199.7L699.6 235.2Q699.6 237.0 698.6 238.1Q697.6 239.1 695.8 239.1ZM712.6 238.2Q711.5 239.2 709.9 239.2Q708.3 239.2 707.3 238.2Q706.3 237.1 706.3 235.3L706.3 235.3L706.3 210.6Q706.3 208.9 707.2 207.9Q708.1 206.9 709.8 206.9Q711.4 206.9 712.4 207.9Q713.4 208.9 713.4 210.6L713.4 210.6L713.4 212.8L713.5 212.8Q716.1 206.9 723.2 206.9L723.2 206.9Q728.3 206.9 731.1 210.0Q733.9 213.1 733.9 218.5L733.9 218.5L733.9 235.3Q733.9 237.1 732.9 238.2Q731.9 239.2 730.3 239.2Q728.7 239.2 727.6 238.2Q726.6 237.1 726.6 235.3L726.6 235.3L726.6 220.0Q726.6 216.6 725.1 214.9Q723.5 213.1 720.4 213.1L720.4 213.1Q717.3 213.1 715.4 215.2Q713.6 217.2 713.6 220.6L713.6 220.6L713.6 235.3Q713.6 237.1 712.6 238.2ZM751.7 239.2L751.7 239.2Q746.9 239.2 743.6 237.5Q740.2 235.8 739.1 233.0L739.1 233.0Q738.8 232.2 738.8 231.5L738.8 231.5Q738.8 230.2 739.6 229.4Q740.5 228.6 741.8 228.6L741.8 228.6Q743.7 228.6 745 230.4L745 230.4Q746.3 232.3 747.9 233.1Q749.5 233.9 752.0 233.9L752.0 233.9Q754.6 233.9 756.1 232.9Q757.7 231.8 757.7 230.1L757.7 230.1Q757.7 228.7 756.7 227.8Q755.7 227.0 753.3 226.4L753.3 226.4L748.3 225.3Q739.2 223.3 739.2 216.4L739.2 216.4Q739.2 212.1 742.7 209.5Q746.1 206.9 751.9 206.9L751.9 206.9Q756.3 206.9 759.5 208.8Q762.7 210.6 763.4 213.4L763.4 213.4Q763.6 214.0 763.6 214.5L763.6 214.5Q763.6 215.6 762.8 216.4Q762.1 217.1 760.8 217.1L760.8 217.1Q758.9 217.1 758.0 215.7L758.0 215.7Q756.8 214.0 755.4 213.1Q753.9 212.2 751.7 212.2L751.7 212.2Q749.3 212.2 747.8 213.3Q746.3 214.3 746.3 216.0L746.3 216.0Q746.3 218.8 750.9 219.8L750.9 219.8L755.8 220.9Q760.7 222.0 762.9 223.9Q765.0 225.9 765.0 229.3L765.0 229.3Q765.0 233.8 761.3 236.5Q757.7 239.2 751.7 239.2ZM771.6 230.9L771.6 230.9L771.6 213.1L769.6 213.1Q768.3 213.1 767.5 212.4Q766.7 211.6 766.7 210.3L766.7 210.3Q766.7 209.0 767.5 208.3Q768.3 207.5 769.6 207.5L769.6 207.5L771.6 207.5L771.6 203.4Q771.6 201.6 772.6 200.6Q773.6 199.6 775.3 199.6L775.3 199.6Q776.9 199.6 777.9 200.6Q778.9 201.6 778.9 203.4L778.9 203.4L778.9 207.5L782.3 207.5Q783.6 207.5 784.4 208.3Q785.2 209.0 785.2 210.3L785.2 210.3Q785.2 211.6 784.4 212.4Q783.6 213.1 782.3 213.1L782.3 213.1L778.9 213.1L778.9 229.3Q778.9 231.1 779.6 231.9Q780.2 232.7 781.8 232.9L781.8 232.9L782.4 232.9Q785.3 233.2 785.3 235.6L785.3 235.6Q785.3 237.2 783.9 238.1Q782.6 238.9 780.1 238.9L780.1 238.9L779.8 238.9Q771.6 238.9 771.6 230.9ZM796.0 238.1Q795.0 239.2 793.3 239.2Q791.7 239.2 790.7 238.1Q789.7 237.1 789.7 235.3L789.7 235.3L789.7 210.6Q789.7 208.9 790.7 207.9Q791.6 206.9 793.2 206.9L793.2 206.9Q794.7 206.9 795.7 207.9Q796.7 208.9 796.7 210.6L796.7 210.6L796.7 213.0L796.8 213.0Q797.4 210.3 799.3 208.6Q801.1 207.0 803.4 207.0L803.4 207.0Q805.1 207.0 806.0 207.8L806.0 207.8Q807.1 208.6 807.1 210.4L807.1 210.4Q807.1 212.1 806.0 213.0L806.0 213.0Q804.9 213.9 802.7 214.0L802.7 214.0Q797.0 214.0 797.0 220.4L797.0 220.4L797.0 235.3Q797.0 237.1 796.0 238.1ZM821.2 239.1L821.2 239.1Q816.1 239.1 813.2 236.0Q810.2 233.0 810.2 227.6L810.2 227.6L810.2 210.7Q810.2 209.0 811.2 207.9Q812.2 206.9 813.8 206.9Q815.5 206.9 816.5 207.9Q817.5 209.0 817.5 210.8L817.5 210.8L817.5 226.1Q817.5 229.5 819.1 231.2Q820.7 233.0 823.8 233.0L823.8 233.0Q826.9 233.0 828.7 230.9Q830.6 228.9 830.6 225.5L830.6 225.5L830.6 210.7Q830.6 209.0 831.6 207.9Q832.6 206.9 834.2 206.9L834.2 206.9Q835.8 206.9 836.9 207.9Q837.9 209.0 837.9 210.8L837.9 210.8L837.9 235.5Q837.9 237.2 836.9 238.2Q836.0 239.2 834.4 239.2L834.4 239.2Q832.8 239.2 831.8 238.2Q830.8 237.2 830.8 235.5L830.8 235.5L830.8 233.2L830.7 233.2Q828.1 239.1 821.2 239.1ZM857.5 239.2L857.5 239.2Q850.6 239.2 846.6 234.9Q842.5 230.5 842.5 223.1L842.5 223.1Q842.5 215.7 846.6 211.3Q850.6 206.9 857.4 206.9L857.4 206.9Q862.0 206.9 865.5 209.0Q869.1 211.1 870.2 214.4L870.2 214.4Q870.6 215.4 870.6 216.1L870.6 216.1Q870.6 217.5 869.7 218.3Q868.8 219.1 867.4 219.1L867.4 219.1Q866.3 219.1 865.6 218.6Q864.9 218.1 864.2 217.0L864.2 217.0Q862.0 212.8 857.6 212.8L857.6 212.8Q854.1 212.8 852.0 215.6Q849.9 218.3 849.9 223.1L849.9 223.1Q849.9 227.9 852.0 230.6Q854.1 233.3 857.6 233.3L857.6 233.3Q862.0 233.3 864.2 229.3L864.2 229.3Q865.0 228.1 865.7 227.6Q866.4 227.1 867.6 227.1L867.6 227.1Q868.9 227.1 869.8 227.9Q870.7 228.7 870.7 230.1L870.7 230.1Q870.7 230.9 870.2 231.9L870.2 231.9Q868.9 235.1 865.4 237.2Q861.8 239.2 857.5 239.2ZM877.6 230.9L877.6 230.9L877.6 213.1L875.6 213.1Q874.3 213.1 873.5 212.4Q872.7 211.6 872.7 210.3L872.7 210.3Q872.7 209.0 873.5 208.3Q874.2 207.5 875.6 207.5L875.6 207.5L877.6 207.5L877.6 203.4Q877.6 201.6 878.5 200.6Q879.5 199.6 881.2 199.6L881.2 199.6Q882.9 199.6 883.9 200.6Q884.9 201.6 884.9 203.4L884.9 203.4L884.9 207.5L888.2 207.5Q889.6 207.5 890.4 208.3Q891.2 209.0 891.2 210.3L891.2 210.3Q891.2 211.6 890.4 212.4Q889.6 213.1 888.2 213.1L888.2 213.1L884.9 213.1L884.9 229.3Q884.9 231.1 885.5 231.9Q886.2 232.7 887.8 232.9L887.8 232.9L888.3 232.9Q891.3 233.2 891.3 235.6L891.3 235.6Q891.3 237.2 889.9 238.1Q888.6 238.9 886.0 238.9L886.0 238.9L885.7 238.9Q877.6 238.9 877.6 230.9ZM902.4 202.0Q901.2 203.2 899.5 203.2Q897.8 203.2 896.6 202.0Q895.4 200.8 895.4 199.2L895.4 199.2Q895.4 197.5 896.6 196.4Q897.8 195.2 899.5 195.2L899.5 195.2Q901.2 195.2 902.4 196.4Q903.6 197.5 903.6 199.2L903.6 199.2Q903.6 200.8 902.4 202.0ZM902.1 238.1Q901.2 239.2 899.5 239.2Q897.8 239.2 896.8 238.1Q895.8 237.1 895.8 235.3L895.8 235.3L895.8 210.7Q895.8 209.0 896.8 207.9Q897.8 206.9 899.5 206.9Q901.2 206.9 902.1 207.9Q903.1 209.0 903.1 210.8L903.1 210.8L903.1 235.3Q903.1 237.1 902.1 238.1ZM934.0 234.9Q929.9 239.2 923.0 239.2Q916.1 239.2 912.1 234.9Q908.0 230.6 908.0 223.1L908.0 223.1Q908.0 215.6 912.1 211.2Q916.2 206.9 923.0 206.9L923.0 206.9Q929.9 206.9 934.0 211.2Q938.0 215.6 938.0 223.1L938.0 223.1Q938.0 230.6 934.0 234.9ZM917.4 230.7Q919.5 233.4 923.0 233.4Q926.5 233.4 928.6 230.7Q930.6 228.0 930.6 223.1L930.6 223.1Q930.6 218.2 928.6 215.4Q926.5 212.7 923.0 212.7L923.0 212.7Q919.5 212.7 917.5 215.4Q915.4 218.2 915.4 223.1L915.4 223.1Q915.4 228.0 917.4 230.7ZM949.0 238.2Q948.0 239.2 946.4 239.2Q944.7 239.2 943.7 238.2Q942.7 237.1 942.7 235.3L942.7 235.3L942.7 210.6Q942.7 208.9 943.7 207.9Q944.6 206.9 946.2 206.9Q947.8 206.9 948.8 207.9Q949.8 208.9 949.8 210.6L949.8 210.6L949.8 212.8L950.0 212.8Q952.6 206.9 959.6 206.9L959.6 206.9Q964.7 206.9 967.6 210.0Q970.4 213.1 970.4 218.5L970.4 218.5L970.4 235.3Q970.4 237.1 969.4 238.2Q968.4 239.2 966.7 239.2Q965.1 239.2 964.1 238.2Q963.1 237.1 963.1 235.3L963.1 235.3L963.1 220.0Q963.1 216.6 961.5 214.9Q960.0 213.1 956.9 213.1L956.9 213.1Q953.7 213.1 951.9 215.2Q950.0 217.2 950.0 220.6L950.0 220.6L950.0 235.3Q950.0 237.1 949.0 238.2Z M47.5 321.6L47.5 321.6Q45.7 321.6 44.7 320.5Q43.7 319.5 43.7 317.7L43.7 317.7L43.7 282.7Q43.7 280.9 44.7 279.8Q45.7 278.8 47.5 278.8L47.5 278.8L67.7 278.8Q69.3 278.8 70.2 279.7Q71.2 280.5 71.2 282.0Q71.2 283.5 70.2 284.3Q69.3 285.2 67.7 285.2L67.7 285.2L51.3 285.2L51.3 297.7L66.2 297.7Q67.7 297.7 68.6 298.5Q69.5 299.3 69.5 300.7Q69.5 302.2 68.6 303.0Q67.7 303.8 66.2 303.8L66.2 303.8L51.3 303.8L51.3 317.7Q51.3 319.5 50.3 320.6Q49.3 321.6 47.5 321.6ZM100.1 317.4Q96.0 321.7 89.2 321.7Q82.3 321.7 78.2 317.4Q74.1 313.1 74.1 305.6L74.1 305.6Q74.1 298.1 78.2 293.7Q82.3 289.4 89.2 289.4L89.2 289.4Q96.0 289.4 100.1 293.7Q104.2 298.1 104.2 305.6L104.2 305.6Q104.2 313.1 100.1 317.4ZM83.6 313.2Q85.6 315.9 89.2 315.9Q92.7 315.9 94.7 313.2Q96.8 310.5 96.8 305.6L96.8 305.6Q96.8 300.7 94.7 297.9Q92.7 295.2 89.2 295.2L89.2 295.2Q85.7 295.2 83.6 297.9Q81.5 300.7 81.5 305.6L81.5 305.6Q81.5 310.5 83.6 313.2ZM115.4 320.7Q114.4 321.7 112.7 321.7Q111.1 321.7 110.1 320.7Q109.1 319.6 109.1 317.8L109.1 317.8L109.1 282.1Q109.1 280.2 110.1 279.2Q111.1 278.2 112.7 278.2Q114.4 278.2 115.4 279.2Q116.4 280.2 116.4 282.1L116.4 282.1L116.4 317.8Q116.4 319.6 115.4 320.7ZM129.1 320.7Q128.1 321.7 126.5 321.7Q124.8 321.7 123.8 320.7Q122.8 319.6 122.8 317.8L122.8 317.8L122.8 282.1Q122.8 280.2 123.8 279.2Q124.8 278.2 126.5 278.2Q128.1 278.2 129.1 279.2Q130.1 280.2 130.1 282.1L130.1 282.1L130.1 317.8Q130.1 319.6 129.1 320.7ZM161.0 317.4Q156.9 321.7 150.0 321.7Q143.2 321.7 139.1 317.4Q135.0 313.1 135.0 305.6L135.0 305.6Q135.0 298.1 139.1 293.7Q143.2 289.4 150.0 289.4L150.0 289.4Q156.9 289.4 161.0 293.7Q165.1 298.1 165.1 305.6L165.1 305.6Q165.1 313.1 161.0 317.4ZM144.5 313.2Q146.5 315.9 150.0 315.9Q153.6 315.9 155.6 313.2Q157.7 310.5 157.7 305.6L157.7 305.6Q157.7 300.7 155.6 297.9Q153.6 295.2 150.0 295.2L150.0 295.2Q146.6 295.2 144.5 297.9Q142.4 300.7 142.4 305.6L142.4 305.6Q142.4 310.5 144.5 313.2ZM179.6 321.7L179.6 321.7Q177.7 321.7 176.7 320.8Q175.6 319.9 175 317.9L175 317.9L168.3 294.7Q167.9 293.4 167.9 292.5L167.9 292.5Q167.9 291.2 168.9 290.3Q169.9 289.4 171.4 289.4L171.4 289.4Q174.2 289.4 174.8 292.5L174.8 292.5L180.0 313.9L180.1 313.9L185.5 292.7Q186.3 289.4 189.7 289.4L189.7 289.4Q193.0 289.4 193.8 292.7L193.8 292.7L199.3 313.9L199.4 313.9L204.6 292.5Q205.3 289.4 207.9 289.4L207.9 289.4Q209.5 289.4 210.4 290.3Q211.4 291.1 211.4 292.5L211.4 292.5Q211.4 293.4 211.0 294.7L211.0 294.7L204.3 317.9Q203.8 319.8 202.7 320.8Q201.5 321.7 199.7 321.7L199.7 321.7Q197.7 321.7 196.6 320.8Q195.5 319.9 195.0 317.9L195.0 317.9L189.7 298.4L189.5 298.4L184.2 317.9Q183.3 321.7 179.6 321.7ZM222.2 284.5Q221.0 285.7 219.3 285.7Q217.6 285.7 216.5 284.5Q215.3 283.3 215.3 281.7L215.3 281.7Q215.3 280.0 216.5 278.9Q217.6 277.7 219.3 277.7L219.3 277.7Q221.1 277.7 222.2 278.9Q223.4 280.0 223.4 281.7L223.4 281.7Q223.4 283.3 222.2 284.5ZM222.0 320.6Q221.0 321.7 219.3 321.7Q217.7 321.7 216.7 320.6Q215.7 319.6 215.7 317.8L215.7 317.8L215.7 293.2Q215.7 291.5 216.7 290.4Q217.7 289.4 219.3 289.4Q221.0 289.4 222.0 290.4Q223.0 291.5 223.0 293.3L223.0 293.3L223.0 317.8Q223.0 319.6 222.0 320.6ZM235.4 320.7Q234.4 321.7 232.7 321.7Q231.1 321.7 230.1 320.7Q229.1 319.6 229.1 317.8L229.1 317.8L229.1 293.1Q229.1 291.4 230.0 290.4Q231.0 289.4 232.6 289.4Q234.2 289.4 235.2 290.4Q236.2 291.4 236.2 293.1L236.2 293.1L236.2 295.3L236.3 295.3Q239.0 289.4 246.0 289.4L246.0 289.4Q251.1 289.4 253.9 292.5Q256.8 295.6 256.8 301.0L256.8 301.0L256.8 317.8Q256.8 319.6 255.8 320.7Q254.8 321.7 253.1 321.7Q251.5 321.7 250.5 320.7Q249.5 319.6 249.5 317.8L249.5 317.8L249.5 302.5Q249.5 299.1 247.9 297.4Q246.3 295.6 243.3 295.6L243.3 295.6Q240.1 295.6 238.3 297.7Q236.4 299.7 236.4 303.1L236.4 303.1L236.4 317.8Q236.4 319.6 235.4 320.7ZM276.0 332.8L276.0 332.8Q271.6 332.7 268.3 331.2Q265 329.7 263.4 327.1L263.4 327.1Q262.8 326.1 262.8 324.9L262.8 324.9Q262.8 323.7 263.6 322.9Q264.4 322.1 265.8 322.1L265.8 322.1Q267.2 322.1 268.5 323.3L268.5 323.3Q270.4 325.2 272.1 326.1Q273.9 326.9 276.0 327.0L276.0 327.0Q279.7 327.0 281.8 325.1Q284.0 323.2 284.0 320.1L284.0 320.1L284.0 315.2L283.8 315.2Q282.6 317.7 280.0 319.2Q277.4 320.8 274.1 320.8L274.1 320.8Q268.2 320.8 264.8 316.5Q261.3 312.3 261.3 305.2L261.3 305.2Q261.3 297.9 264.8 293.7Q268.2 289.5 274.2 289.5L274.2 289.5Q277.5 289.5 280.0 291.0Q282.5 292.6 283.9 295.3L283.9 295.3L284.0 295.3L284.0 293.1Q284.0 291.4 285.0 290.4Q286.0 289.4 287.6 289.4Q289.3 289.4 290.3 290.4Q291.3 291.4 291.3 293.1L291.3 293.1L291.3 320.1Q291.3 326.0 287.2 329.4Q283.1 332.8 276.0 332.8ZM276.3 315.1L276.3 315.1Q279.8 315.1 281.9 312.4Q284.0 309.8 284.0 305.2L284.0 305.2Q284.0 300.7 281.9 298.0Q279.8 295.3 276.3 295.3L276.3 295.3Q272.9 295.3 270.8 298.0Q268.8 300.7 268.8 305.2L268.8 305.2Q268.8 309.8 270.8 312.5Q272.9 315.1 276.3 315.1Z M311.3 313.4L311.3 313.4L311.3 295.6L309.3 295.6Q307.9 295.6 307.2 294.9Q306.4 294.1 306.4 292.8L306.4 292.8Q306.4 291.5 307.1 290.8Q307.9 290.0 309.3 290.0L309.3 290.0L311.3 290.0L311.3 285.9Q311.3 284.1 312.2 283.1Q313.2 282.1 314.9 282.1L314.9 282.1Q316.6 282.1 317.6 283.1Q318.6 284.1 318.6 285.9L318.6 285.9L318.6 290.0L321.9 290.0Q323.3 290.0 324.1 290.8Q324.9 291.5 324.9 292.8L324.9 292.8Q324.9 294.1 324.1 294.9Q323.3 295.6 321.9 295.6L321.9 295.6L318.6 295.6L318.6 311.8Q318.6 313.6 319.2 314.4Q319.9 315.2 321.5 315.4L321.5 315.4L322.0 315.4Q324.9 315.7 324.9 318.1L324.9 318.1Q324.9 319.7 323.6 320.6Q322.2 321.4 319.7 321.4L319.7 321.4L319.4 321.4Q311.3 321.4 311.3 313.4ZM335.9 320.7Q334.9 321.7 333.2 321.7Q331.6 321.7 330.6 320.7Q329.6 319.6 329.6 317.8L329.6 317.8L329.6 282.0Q329.6 280.2 330.5 279.2Q331.5 278.2 333.2 278.2L333.2 278.2Q334.9 278.2 335.8 279.2Q336.8 280.2 336.8 282.0L336.8 282.0L336.8 295.4L336.9 295.4Q338.2 292.5 340.7 291.0Q343.2 289.4 346.7 289.4L346.7 289.4Q351.8 289.4 354.7 292.6Q357.6 295.7 357.6 301.1L357.6 301.1L357.6 317.8Q357.6 319.6 356.6 320.7Q355.6 321.7 353.9 321.7Q352.3 321.7 351.3 320.7Q350.3 319.6 350.3 317.8L350.3 317.8L350.3 302.6Q350.3 299.3 348.7 297.4Q347.1 295.6 343.9 295.6L343.9 295.6Q340.6 295.6 338.8 297.7Q336.9 299.8 336.9 303.2L336.9 303.2L336.9 317.8Q336.9 319.6 335.9 320.7ZM369.7 320.6Q368.7 321.7 367.1 321.7Q365.4 321.7 364.4 320.6Q363.4 319.6 363.4 317.8L363.4 317.8L363.4 293.1Q363.4 291.4 364.4 290.4Q365.3 289.4 366.9 289.4L366.9 289.4Q368.4 289.4 369.4 290.4Q370.4 291.4 370.4 293.1L370.4 293.1L370.4 295.5L370.5 295.5Q371.2 292.8 373.0 291.1Q374.8 289.5 377.2 289.5L377.2 289.5Q378.9 289.5 379.8 290.3L379.8 290.3Q380.8 291.1 380.8 292.9L380.8 292.9Q380.8 294.6 379.7 295.5L379.7 295.5Q378.6 296.4 376.5 296.5L376.5 296.5Q370.7 296.5 370.7 302.9L370.7 302.9L370.7 317.8Q370.7 319.6 369.7 320.6ZM408.8 317.4Q404.7 321.7 397.8 321.7Q390.9 321.7 386.8 317.4Q382.8 313.1 382.8 305.6L382.8 305.6Q382.8 298.1 386.9 293.7Q391.0 289.4 397.8 289.4L397.8 289.4Q404.7 289.4 408.7 293.7Q412.8 298.1 412.8 305.6L412.8 305.6Q412.8 313.1 408.8 317.4ZM392.2 313.2Q394.3 315.9 397.8 315.9Q401.3 315.9 403.4 313.2Q405.4 310.5 405.4 305.6L405.4 305.6Q405.4 300.7 403.4 297.9Q401.3 295.2 397.8 295.2L397.8 295.2Q394.3 295.2 392.3 297.9Q390.2 300.7 390.2 305.6L390.2 305.6Q390.2 310.5 392.2 313.2ZM428.4 321.6L428.4 321.6Q423.3 321.6 420.3 318.5Q417.4 315.5 417.4 310.1L417.4 310.1L417.4 293.2Q417.4 291.5 418.4 290.4Q419.4 289.4 421.0 289.4Q422.6 289.4 423.7 290.4Q424.7 291.5 424.7 293.3L424.7 293.3L424.7 308.6Q424.7 312.0 426.3 313.7Q427.9 315.5 430.9 315.5L430.9 315.5Q434.1 315.5 435.9 313.4Q437.8 311.4 437.8 308.0L437.8 308.0L437.8 293.2Q437.8 291.5 438.8 290.4Q439.8 289.4 441.4 289.4L441.4 289.4Q443.0 289.4 444.0 290.4Q445.1 291.5 445.1 293.3L445.1 293.3L445.1 318.0Q445.1 319.7 444.1 320.7Q443.2 321.7 441.6 321.7L441.6 321.7Q440.0 321.7 439.0 320.7Q438.0 319.7 438.0 318.0L438.0 318.0L438.0 315.7L437.9 315.7Q435.3 321.6 428.4 321.6ZM464.4 332.8L464.4 332.8Q460.0 332.7 456.7 331.2Q453.4 329.7 451.8 327.1L451.8 327.1Q451.2 326.1 451.2 324.9L451.2 324.9Q451.2 323.7 452.0 322.9Q452.9 322.1 454.2 322.1L454.2 322.1Q455.6 322.1 456.9 323.3L456.9 323.3Q458.8 325.2 460.5 326.1Q462.3 326.9 464.5 327.0L464.5 327.0Q468.1 327.0 470.2 325.1Q472.4 323.2 472.4 320.1L472.4 320.1L472.4 315.2L472.2 315.2Q471.0 317.7 468.4 319.2Q465.8 320.8 462.5 320.8L462.5 320.8Q456.6 320.8 453.2 316.5Q449.7 312.3 449.7 305.2L449.7 305.2Q449.7 297.9 453.2 293.7Q456.6 289.5 462.6 289.5L462.6 289.5Q465.9 289.5 468.4 291.0Q470.9 292.6 472.3 295.3L472.3 295.3L472.4 295.3L472.4 293.1Q472.4 291.4 473.4 290.4Q474.4 289.4 476.1 289.4Q477.7 289.4 478.7 290.4Q479.7 291.4 479.7 293.1L479.7 293.1L479.7 320.1Q479.7 326.0 475.6 329.4Q471.5 332.8 464.4 332.8ZM464.7 315.1L464.7 315.1Q468.2 315.1 470.3 312.4Q472.4 309.8 472.4 305.2L472.4 305.2Q472.4 300.7 470.3 298.0Q468.2 295.3 464.7 295.3L464.7 295.3Q461.3 295.3 459.2 298.0Q457.2 300.7 457.2 305.2L457.2 305.2Q457.2 309.8 459.2 312.5Q461.3 315.1 464.7 315.1ZM492.1 320.7Q491.1 321.7 489.5 321.7Q487.9 321.7 486.9 320.7Q485.8 319.6 485.8 317.8L485.8 317.8L485.8 282.0Q485.8 280.2 486.8 279.2Q487.8 278.2 489.4 278.2L489.4 278.2Q491.1 278.2 492.1 279.2Q493.0 280.2 493.0 282.0L493.0 282.0L493.0 295.4L493.2 295.4Q494.5 292.5 497.0 291.0Q499.5 289.4 503.0 289.4L503.0 289.4Q508.1 289.4 511.0 292.6Q513.9 295.7 513.9 301.1L513.9 301.1L513.9 317.8Q513.9 319.6 512.9 320.7Q511.9 321.7 510.2 321.7Q508.6 321.7 507.6 320.7Q506.6 319.6 506.6 317.8L506.6 317.8L506.6 302.6Q506.6 299.3 505.0 297.4Q503.3 295.6 500.2 295.6L500.2 295.6Q496.9 295.6 495.0 297.7Q493.1 299.8 493.1 303.2L493.1 303.2L493.1 317.8Q493.1 319.6 492.1 320.7Z M546.5 321.6L546.5 321.6Q544.8 321.6 543.8 320.6Q542.8 319.5 542.8 317.7L542.8 317.7L542.8 285.2L533.1 285.2Q531.6 285.2 530.6 284.3Q529.7 283.5 529.7 282.0Q529.7 280.5 530.6 279.7Q531.5 278.8 533.1 278.8L533.1 278.8L560.0 278.8Q561.6 278.8 562.5 279.7Q563.4 280.5 563.4 282.0Q563.4 283.5 562.5 284.3Q561.5 285.2 560.0 285.2L560.0 285.2L550.3 285.2L550.3 317.7Q550.3 319.5 549.3 320.6Q548.3 321.6 546.5 321.6ZM573.9 320.7Q572.9 321.7 571.2 321.7Q569.6 321.7 568.6 320.7Q567.6 319.6 567.6 317.8L567.6 317.8L567.6 282.0Q567.6 280.2 568.5 279.2Q569.5 278.2 571.2 278.2L571.2 278.2Q572.9 278.2 573.8 279.2Q574.8 280.2 574.8 282.0L574.8 282.0L574.8 295.4L574.9 295.4Q576.2 292.5 578.7 291.0Q581.2 289.4 584.7 289.4L584.7 289.4Q589.8 289.4 592.7 292.6Q595.6 295.7 595.6 301.1L595.6 301.1L595.6 317.8Q595.6 319.6 594.6 320.7Q593.6 321.7 592.0 321.7Q590.3 321.7 589.3 320.7Q588.3 319.6 588.3 317.8L588.3 317.8L588.3 302.6Q588.3 299.3 586.7 297.4Q585.1 295.6 581.9 295.6L581.9 295.6Q578.7 295.6 576.8 297.7Q574.9 299.8 574.9 303.2L574.9 303.2L574.9 317.8Q574.9 319.6 573.9 320.7ZM615.2 321.7L615.2 321.7Q608.1 321.7 604.1 317.5Q600.2 313.2 600.2 305.7L600.2 305.7Q600.2 298.2 604.1 293.8Q608.1 289.4 614.8 289.4L614.8 289.4Q621.2 289.4 625.2 293.4Q629.1 297.5 629.1 303.9L629.1 303.9Q629.1 305.5 628.2 306.4Q627.3 307.3 625.7 307.3L625.7 307.3L607.4 307.3L607.4 307.5Q607.4 311.4 609.5 313.8Q611.6 316.1 615.2 316.1L615.2 316.1Q617.6 316.1 619.4 315.1Q621.2 314.2 622.9 311.9L622.9 311.9Q624.0 310.8 625.4 310.8L625.4 310.8Q626.7 310.8 627.5 311.5Q628.3 312.3 628.3 313.6L628.3 313.6Q628.3 314.4 627.8 315.4L627.8 315.4Q626.3 318.4 623.0 320.0Q619.7 321.7 615.2 321.7ZM607.5 302.5L607.5 302.5L622.0 302.5Q621.9 299.1 619.9 297.1Q617.9 295.0 614.9 295.0Q611.8 295.0 609.7 297.1Q607.7 299.2 607.5 302.5ZM658.5 317.4Q654.4 321.7 647.6 321.7Q640.7 321.7 636.6 317.4Q632.5 313.1 632.5 305.6L632.5 305.6Q632.5 298.1 636.6 293.7Q640.7 289.4 647.6 289.4L647.6 289.4Q654.4 289.4 658.5 293.7Q662.6 298.1 662.6 305.6L662.6 305.6Q662.6 313.1 658.5 317.4ZM642.0 313.2Q644.0 315.9 647.6 315.9Q651.1 315.9 653.1 313.2Q655.2 310.5 655.2 305.6L655.2 305.6Q655.2 300.7 653.1 297.9Q651.1 295.2 647.6 295.2L647.6 295.2Q644.1 295.2 642.0 297.9Q639.9 300.7 639.9 305.6L639.9 305.6Q639.9 310.5 642.0 313.2ZM673.6 320.6Q672.6 321.7 670.9 321.7Q669.2 321.7 668.3 320.6Q667.3 319.6 667.3 317.8L667.3 317.8L667.3 293.1Q667.3 291.4 668.2 290.4Q669.2 289.4 670.8 289.4L670.8 289.4Q672.3 289.4 673.3 290.4Q674.2 291.4 674.2 293.1L674.2 293.1L674.2 295.5L674.4 295.5Q675.0 292.8 676.8 291.1Q678.7 289.5 681.0 289.5L681.0 289.5Q682.7 289.5 683.6 290.3L683.6 290.3Q684.6 291.1 684.6 292.9L684.6 292.9Q684.6 294.6 683.5 295.5L683.5 295.5Q682.5 296.4 680.3 296.5L680.3 296.5Q674.6 296.5 674.6 302.9L674.6 302.9L674.6 317.8Q674.6 319.6 673.6 320.6ZM692.4 332.6L692.4 332.6Q689.9 332.6 688.6 331.7Q687.3 330.8 687.3 329.2L687.3 329.2Q687.3 328.1 688.0 327.4Q688.8 326.7 690.0 326.7L690.0 326.7Q690.3 326.7 690.8 326.7Q691.3 326.7 691.6 326.7L691.6 326.7Q694.6 326.7 696.0 323.2L696.0 323.2L696.6 321.6L686.4 294.9Q686.0 293.7 686.0 292.8L686.0 292.8Q686.0 291.3 687.1 290.4Q688.1 289.4 689.7 289.4L689.7 289.4Q691.1 289.4 691.9 290.1Q692.8 290.8 693.2 292.3L693.2 292.3L700.6 314.9L700.8 314.9L708.2 292.3Q708.6 290.8 709.5 290.1Q710.3 289.4 711.7 289.4L711.7 289.4Q713.2 289.4 714.2 290.3Q715.2 291.3 715.2 292.7L715.2 292.7Q715.2 293.7 714.8 294.8L714.8 294.8L704.6 322.2Q702.5 328.0 699.8 330.3Q697.0 332.6 692.4 332.6Z M755.9 317.4Q751.9 321.7 745.0 321.7Q738.1 321.7 734.0 317.4Q729.9 313.1 729.9 305.6L729.9 305.6Q729.9 298.1 734.0 293.7Q738.1 289.4 745.0 289.4L745.0 289.4Q751.8 289.4 755.9 293.7Q760 298.1 760 305.6L760 305.6Q760 313.1 755.9 317.4ZM739.4 313.2Q741.5 315.9 745.0 315.9Q748.5 315.9 750.5 313.2Q752.6 310.5 752.6 305.6L752.6 305.6Q752.6 300.7 750.5 297.9Q748.5 295.2 745.0 295.2L745.0 295.2Q741.5 295.2 739.4 297.9Q737.4 300.7 737.4 305.6L737.4 305.6Q737.4 310.5 739.4 313.2ZM773.0 320.7Q772.0 321.7 770.4 321.7Q768.7 321.7 767.7 320.7Q766.7 319.7 766.7 317.9L766.7 317.9L766.7 295.6L764.8 295.6Q763.5 295.6 762.7 294.9Q762.0 294.2 762.0 292.9L762.0 292.9Q762.0 291.6 762.7 290.9Q763.5 290.1 764.8 290.1L764.8 290.1L766.7 290.1L766.7 287.4Q766.7 278.5 775.3 278.5L775.3 278.5Q778.1 278.5 779.5 279.3Q780.9 280.1 780.9 281.5L780.9 281.5Q780.9 283.2 779.2 283.6L779.2 283.6Q778.6 283.8 777.6 283.8L777.6 283.8Q775.6 283.9 774.8 284.8Q773.9 285.7 773.9 287.7L773.9 287.7L773.9 290.1L777.8 290.1Q779.0 290.1 779.8 290.9Q780.6 291.6 780.6 292.9L780.6 292.9Q780.6 294.2 779.8 294.9Q779.0 295.6 777.8 295.6L777.8 295.6L774.0 295.6L774.0 317.9Q774.0 319.7 773.0 320.7Z M803.6 320.6Q802.7 321.6 801.0 321.6Q799.4 321.6 798.5 320.6Q797.6 319.7 797.6 318.0L797.6 318.0L797.6 283.1Q797.6 280.9 799.0 279.6Q800.3 278.3 802.5 278.3L802.5 278.3Q804.5 278.3 805.7 279.2Q806.9 280.1 807.7 282.2L807.7 282.2L819.4 310.7L819.6 310.7L831.2 282.2Q832.0 280.2 833.3 279.2Q834.5 278.3 836.5 278.3L836.5 278.3Q838.7 278.3 840.0 279.6Q841.3 280.9 841.3 283.1L841.3 283.1L841.3 318.0Q841.3 319.7 840.4 320.6Q839.5 321.6 837.9 321.6Q836.3 321.6 835.4 320.6Q834.5 319.7 834.5 318.0L834.5 318.0L834.5 291.1L834.3 291.1L823.0 318.3Q822.0 320.8 819.5 320.8L819.5 320.8Q816.9 320.8 815.9 318.3L815.9 318.3L804.7 291.1L804.5 291.1L804.5 318.0Q804.5 319.7 803.6 320.6ZM854.7 284.5Q853.5 285.7 851.8 285.7Q850.1 285.7 848.9 284.5Q847.8 283.3 847.8 281.7L847.8 281.7Q847.8 280.0 848.9 278.9Q850.1 277.7 851.8 277.7L851.8 277.7Q853.5 277.7 854.7 278.9Q855.9 280.0 855.9 281.7L855.9 281.7Q855.9 283.3 854.7 284.5ZM854.5 320.6Q853.5 321.7 851.8 321.7Q850.1 321.7 849.2 320.6Q848.2 319.6 848.2 317.8L848.2 317.8L848.2 293.2Q848.2 291.5 849.2 290.4Q850.1 289.4 851.8 289.4Q853.5 289.4 854.5 290.4Q855.5 291.5 855.5 293.3L855.5 293.3L855.5 317.8Q855.5 319.6 854.5 320.6ZM867.9 320.7Q866.9 321.7 865.2 321.7Q863.6 321.7 862.6 320.7Q861.6 319.6 861.6 317.8L861.6 317.8L861.6 293.1Q861.6 291.4 862.5 290.4Q863.5 289.4 865.1 289.4Q866.7 289.4 867.7 290.4Q868.7 291.4 868.7 293.1L868.7 293.1L868.7 295.3L868.8 295.3Q871.5 289.4 878.5 289.4L878.5 289.4Q883.6 289.4 886.4 292.5Q889.3 295.6 889.3 301.0L889.3 301.0L889.3 317.8Q889.3 319.6 888.3 320.7Q887.3 321.7 885.6 321.7Q884.0 321.7 883.0 320.7Q882.0 319.6 882.0 317.8L882.0 317.8L882.0 302.5Q882.0 299.1 880.4 297.4Q878.8 295.6 875.8 295.6L875.8 295.6Q872.6 295.6 870.8 297.7Q868.9 299.7 868.9 303.1L868.9 303.1L868.9 317.8Q868.9 319.6 867.9 320.7ZM906.7 321.6L906.7 321.6Q900.8 321.6 897.3 317.2Q893.8 312.9 893.8 305.5L893.8 305.5Q893.8 298.2 897.3 293.8Q900.8 289.5 906.7 289.5L906.7 289.5Q910.0 289.5 912.5 291.0Q915.0 292.6 916.3 295.2L916.3 295.2L916.5 295.2L916.5 282.1Q916.5 280.2 917.5 279.2Q918.5 278.2 920.1 278.2Q921.7 278.2 922.8 279.2Q923.8 280.2 923.8 282.1L923.8 282.1L923.8 318.0Q923.8 319.7 922.8 320.7Q921.8 321.7 920.2 321.7L920.2 321.7Q918.5 321.7 917.5 320.7Q916.5 319.7 916.5 318.0L916.5 318.0L916.5 315.6L916.3 315.6Q915.2 318.4 912.7 320.0Q910.2 321.6 906.7 321.6ZM908.9 315.6L908.9 315.6Q912.3 315.6 914.4 312.9Q916.5 310.2 916.5 305.6L916.5 305.6Q916.5 301.0 914.4 298.2Q912.3 295.5 908.9 295.5L908.9 295.5Q905.4 295.5 903.3 298.2Q901.3 300.9 901.3 305.6L901.3 305.6Q901.3 310.2 903.3 312.9Q905.3 315.6 908.9 315.6Z "/><defs><clipPath id="satori_bc-id-0-1"><rect x="0" y="441" width="1200" height="189"/></clipPath></defs><mask id="satori_om-id-0-1"><rect x="0" y="442" width="1200" height="188" fill="#fff"/><path width="1200" height="189" fill="none" stroke="#000" stroke-width="2" d="M0,441 A0,0 0 0 1 0,441 h1200 A0,0 0 0 1 1200,441"/></mask><path width="1200" height="189" clip-path="url(#satori_bc-id-0-1)" fill="none" stroke="#dbdbdb" stroke-width="2" d="M0,441 A0,0 0 0 1 0,441 h1200 A0,0 0 0 1 1200,441"/><mask id="satori_om-id-0-1-0"><rect x="40" y="482" width="389" height="108" fill="#fff"/></mask><clipPath id="satori_cp-id-0-1-0-0"><rect x="40" y="504" width="64" height="64"/></clipPath><mask id="satori_om-id-0-1-0-0"><rect x="40" y="504" width="64" height="64" fill="#fff"/></mask><image x="40" y="504" width="64" height="64" href="data:image/svg+xml;utf8,%3Csvg  xmlns=%22http://www.w3.org/2000/svg%22 width=%2264%22 height=%2264%22 viewBox=%220 0 128 128%22%3E%3Cpath fill=%22%23224d67%22 d=%22M22.5 14.8c2.9 1.3 99 44 99 44c2.7 1.2 2.9 3.1 2 12.4c-1 10.5-1.9 37.8-40.2 42.9c-24.6 3.2-55.9-4.3-70.9-27.2C-6 58.8 11 23.4 14.8 17.7c2.4-3.5 4.8-4.2 7.7-2.9%22%3E%3C/path%3E%3Cpath fill=%22%23f0f4c3%22 d=%22M121.5 58.8c-.3-.2-92-40.8-98.9-43.9C9.6 31.5-3.8 76 27.9 96.2c33.6 21.5 78.7-10.2 93.6-37.4%22%3E%3C/path%3E%3Cpath fill=%22%23f0f4c3%22 d=%22M117.7 57c-.3-.2-86.7-38.4-93.2-41.3c-12.2 15.5-23.9 59.1 5.7 78c31.4 20.2 73.6-11.2 87.5-36.7%22%3E%3C/path%3E%3Cpath fill=%22%23cb2a42%22 d=%22M56.2 37.6L19.5 48.2c-2.5.8-4.4 2.8-5 5.3c-1.9 8.5.8 23.3 8.9 29.8c3.5 2.7 8.6 1.8 10.8-2.1L58.5 41c1.3-1.7.5-4.2-2.3-3.4m14.3 2.9s14.6 30.1 16 33s6.3 4.7 9.9 2.8c10.7-5.6 15.5-12.4 19.2-20.2c-8.9-3.9-42.4-18.8-42.4-18.8c-2.4-1.1-4 .6-2.7 3.2m-8.6 1.9C60.3 45.1 39.5 81 37.6 84.1c-1.9 3.2-.7 7.5 2.7 9.2c12.3 6.5 30.9.4 39.6-7c2.2-1.9 4.5-5.1 3.2-8.2S68.9 44.6 67.8 42.3c-1.2-2.7-4.1-2.8-5.9.1%22%3E%3C/path%3E%3Cpath fill=%22%23f0f4c3%22 d=%22M52.2 42.2c-1.4.4-10.1 3-11.1 3.4c-1.4.5-2.2 1.7-1.9 2.5c.3.9 1.7 1.1 3.1.6c.8-.3 7.1-3.9 9.5-5.2c-3.1 2.4-10.2 9.4-11.1 10.3c-1.4 1.5-1.7 3.4-.8 4.3c1 .9 2.9.5 4.3-1c1.2-1.3 8.5-12.8 9.1-13.9s.4-1.4-1.1-1m10.1 16.4c0-2.2 1.4-10.3 1.8-12.3c.4-1.6 1.5-1.8 1.8.5s1.7 9.7 1.7 11.8s-1.2 3.3-2.7 3.3c-1.4 0-2.6-1.1-2.6-3.3M79.9 49c-1.2-1.8-3.3-4.9-4.1-6.1c-.7-1.2.1-2.1 1.8-.9s4 2.9 5.4 4c1.6 1.3 1.9 3 .8 4s-2.7.8-3.9-1%22%3E%3C/path%3E%3Cellipse cx=%2287.3%22 cy=%22103.12%22 fill=%22%23cb2a42%22 rx=%223.4%22 ry=%222.3%22 transform=%22rotate(-27.098 87.298 103.126)%22%3E%3C/ellipse%3E%3Cellipse cx=%2298.89%22 cy=%22103.82%22 fill=%22%23cb2a42%22 rx=%223.4%22 ry=%222.3%22 transform=%22rotate(-30.642 98.887 103.818)%22%3E%3C/ellipse%3E%3Cellipse cx=%22102.02%22 cy=%2293.8%22 fill=%22%23cb2a42%22 rx=%223.4%22 ry=%222.3%22 transform=%22rotate(-37.16 102.017 93.797)%22%3E%3C/ellipse%3E%3Cpath fill=%22%23cb2a42%22 d=%22M57.6 30.3c-8.3-3.7-24.4-10.7-29.6-13c-3.6 2.2-9.7 11.4-11.2 21.2c-.6 3.6 1.7 5.9 5.3 4.9c0 0 33.7-9.3 35.3-9.7c1.6-.5 2-2.6.2-3.4%22%3E%3C/path%3E%3C/svg%3E" preserveAspectRatio="none" clip-path="url(#satori_cp-id-0-1-0-0)" mask="url(#satori_om-id-0-1-0-0)"/><mask id="satori_om-id-0-1-0-0-0"><rect x="40" y="504" width="0" height="64" fill="#fff"/></mask><mask id="satori_om-id-0-1-0-0-1"><rect x="40" y="504" width="0" height="64" fill="#fff"/></mask><mask id="satori_om-id-0-1-0-0-2"><rect x="40" y="504" width="0" height="64" fill="#fff"/></mask><mask id="satori_om-id-0-1-0-0-3"><rect x="40" y="504" width="0" height="64" fill="#fff"/></mask><mask id="satori_om-id-0-1-0-0-4"><rect x="40" y="504" width="0" height="64" fill="#fff"/></mask><mask id="satori_om-id-0-1-0-0-5"><rect x="40" y="504" width="0" height="64" fill="#fff"/></mask><mask id="satori_om-id-0-1-0-0-6"><rect x="40" y="504" width="0" height="64" fill="#fff"/></mask><mask id="satori_om-id-0-1-0-0-7"><rect x="40" y="504" width="0" height="64" fill="#fff"/></mask><mask id="satori_om-id-0-1-0-0-8"><rect x="40" y="504" width="0" height="64" fill="#fff"/></mask><mask id="satori_om-id-0-1-0-1"><rect x="116" y="512" width="313" height="48" fill="#fff"/></mask><path fill="#545454" d="M133.0 553.6L133.0 553.6Q126.5 553.6 122.7 550.2Q118.8 546.7 118.8 541.1L118.8 541.1L118.8 522.5Q118.8 520.7 119.8 519.7Q120.7 518.8 122.4 518.8Q124.0 518.8 125.0 519.7Q125.9 520.7 125.9 522.5L125.9 522.5L125.9 540.4Q125.9 543.7 127.8 545.6Q129.6 547.6 133.0 547.6L133.0 547.6Q136.3 547.6 138.2 545.6Q140.1 543.7 140.1 540.4L140.1 540.4L140.1 522.5Q140.1 520.7 141.0 519.7Q141.9 518.8 143.6 518.8Q145.3 518.8 146.2 519.7Q147.1 520.7 147.1 522.5L147.1 522.5L147.1 541.1Q147.1 546.7 143.3 550.2Q139.4 553.6 133.0 553.6ZM158.9 552.6Q158.0 553.6 156.3 553.6Q154.6 553.6 153.7 552.6Q152.8 551.6 152.8 549.9L152.8 549.9L152.8 522.9Q152.8 521.2 153.7 520.2Q154.6 519.2 156.3 519.2L156.3 519.2L166.6 519.2Q172.4 519.2 175.6 522.1Q178.9 525.0 178.9 530.0L178.9 530.0Q178.9 533.2 177.3 535.8Q175.8 538.3 173.0 539.4L173.0 539.4L177.9 547.9Q178.7 549.2 178.7 550.3L178.7 550.3Q178.7 551.7 177.7 552.6Q176.7 553.6 175.1 553.6L175.1 553.6Q173.8 553.6 173.1 553.0Q172.4 552.5 171.5 550.9L171.5 550.9L165.9 540.7L159.9 540.7L159.9 549.9Q159.9 551.6 158.9 552.6ZM159.9 524.8L159.9 535.6L165.9 535.6Q168.6 535.6 170.1 534.1Q171.6 532.7 171.6 530.2L171.6 530.2Q171.6 527.7 170.0 526.2Q168.5 524.8 165.9 524.8L165.9 524.8L159.9 524.8ZM196.2 542.3L186.4 542.3Q185.0 542.3 184.1 541.5Q183.2 540.7 183.2 539.3Q183.2 537.9 184.1 537.1Q185.0 536.3 186.4 536.3L186.4 536.3L196.2 536.3Q197.6 536.3 198.5 537.1Q199.4 537.9 199.4 539.3Q199.4 540.7 198.5 541.5Q197.6 542.3 196.2 542.3L196.2 542.3ZM210.9 552.6Q209.9 553.6 208.3 553.6Q206.6 553.6 205.6 552.6Q204.7 551.6 204.7 549.9L204.7 549.9L204.7 522.9Q204.7 521.2 205.6 520.2Q206.6 519.2 208.3 519.2L208.3 519.2L218.6 519.2Q224.4 519.2 227.6 522.1Q230.8 525.0 230.8 530.0L230.8 530.0Q230.8 533.2 229.3 535.8Q227.8 538.3 225.0 539.4L225.0 539.4L229.9 547.9Q230.6 549.2 230.6 550.3L230.6 550.3Q230.6 551.7 229.6 552.6Q228.6 553.6 227.0 553.6L227.0 553.6Q225.8 553.6 225.0 553.0Q224.3 552.5 223.4 550.9L223.4 550.9L217.8 540.7L211.8 540.7L211.8 549.9Q211.8 551.6 210.9 552.6ZM211.8 524.8L211.8 535.6L217.9 535.6Q220.6 535.6 222.0 534.1Q223.5 532.7 223.5 530.2L223.5 530.2Q223.5 527.7 222.0 526.2Q220.4 524.8 217.8 524.8L217.8 524.8L211.8 524.8ZM237.7 553.5L237.7 553.5Q236.0 553.5 235.1 552.6Q234.1 551.7 234.1 550.2L234.1 550.2Q234.1 549.3 234.6 547.9L234.6 547.9L243.8 522.8Q244.6 520.7 245.8 519.7Q247.1 518.8 249.1 518.8L249.1 518.8Q251.2 518.8 252.5 519.7Q253.8 520.7 254.5 522.8L254.5 522.8L263.8 547.9Q264.3 549.2 264.3 550.2L264.3 550.2Q264.3 551.6 263.3 552.6Q262.3 553.5 260.7 553.5L260.7 553.5Q259.2 553.5 258.4 552.8Q257.5 552.1 257.0 550.4L257.0 550.4L255.3 545.0L243.1 545.0L241.3 550.3Q240.8 552.0 239.9 552.8Q239.1 553.5 237.7 553.5ZM249.0 525.7L244.6 539.6L253.6 539.6L249.1 525.7L249.0 525.7ZM281.5 553.1L272.1 553.1Q270.4 553.1 269.5 552.1Q268.6 551.1 268.6 549.4L268.6 549.4L268.6 522.9Q268.6 521.2 269.5 520.2Q270.4 519.2 272.1 519.2L272.1 519.2L281.5 519.2Q289.1 519.2 293.4 523.6Q297.6 528.0 297.6 536.0L297.6 536.0Q297.6 544.1 293.3 548.6Q289.1 553.1 281.5 553.1L281.5 553.1ZM275.6 525.1L275.6 547.2L280.6 547.2Q285.4 547.2 287.9 544.4Q290.4 541.5 290.4 536.0L290.4 536.0Q290.4 530.8 287.8 527.9Q285.3 525.1 280.6 525.1L280.6 525.1L275.6 525.1Z M333.2 553.1L314.5 553.1Q312.9 553.1 312.0 552.2Q311.2 551.4 311.2 550.0L311.2 550.0Q311.2 549.1 311.6 548.3Q312.0 547.5 313.1 546.5L313.1 546.5L323.2 536.9Q326.3 533.8 327.4 532.2Q328.4 530.6 328.4 528.8L328.4 528.8Q328.4 526.7 327.0 525.3Q325.5 524 323.3 524L323.3 524Q319.3 524 317.4 528.1L317.4 528.1Q316.8 529.2 316.1 529.7Q315.4 530.1 314.3 530.1L314.3 530.1Q312.9 530.1 312.1 529.4Q311.3 528.6 311.3 527.3L311.3 527.3Q311.3 526.5 311.5 525.7L311.5 525.7Q312.5 522.7 315.6 520.6Q318.8 518.5 323.3 518.5L323.3 518.5Q328.7 518.5 332.0 521.2Q335.3 524.0 335.3 528.3L335.3 528.3Q335.3 529.9 335.0 531.2Q334.6 532.5 333.6 533.9Q332.6 535.3 331.3 536.8Q330.0 538.2 327.8 540.3L327.8 540.3L320.5 547.3L320.5 547.4L333.2 547.4Q334.6 547.4 335.4 548.2Q336.1 549.0 336.1 550.3L336.1 550.3Q336.1 551.5 335.4 552.3Q334.6 553.1 333.2 553.1L333.2 553.1ZM363.6 549.0Q359.9 553.8 353.5 553.8Q347.1 553.8 343.4 549.1Q339.7 544.3 339.7 536.1L339.7 536.1Q339.7 527.9 343.4 523.2Q347.1 518.5 353.5 518.5Q359.9 518.5 363.6 523.2Q367.3 527.9 367.3 536.1L367.3 536.1Q367.3 544.3 363.6 549.0ZM348.6 545.0Q350.4 548.1 353.5 548.1Q356.7 548.1 358.4 545.0Q360.1 541.9 360.1 536.1L360.1 536.1Q360.1 530.4 358.4 527.2Q356.7 524.1 353.5 524.1L353.5 524.1Q350.4 524.1 348.7 527.3Q346.9 530.4 346.9 536.1L346.9 536.1Q346.9 541.9 348.6 545.0ZM393.6 553.1L374.9 553.1Q373.3 553.1 372.4 552.2Q371.6 551.4 371.6 550.0L371.6 550.0Q371.6 549.1 372.0 548.3Q372.5 547.5 373.5 546.5L373.5 546.5L383.6 536.9Q386.8 533.8 387.8 532.2Q388.9 530.6 388.9 528.8L388.9 528.8Q388.9 526.7 387.4 525.3Q386.0 524 383.7 524L383.7 524Q379.7 524 377.9 528.1L377.9 528.1Q377.3 529.2 376.5 529.7Q375.8 530.1 374.7 530.1L374.7 530.1Q373.3 530.1 372.5 529.4Q371.7 528.6 371.7 527.3L371.7 527.3Q371.7 526.5 372.0 525.7L372.0 525.7Q372.9 522.7 376.0 520.6Q379.2 518.5 383.8 518.5L383.8 518.5Q389.1 518.5 392.4 521.2Q395.8 524.0 395.8 528.3L395.8 528.3Q395.8 529.9 395.4 531.2Q395 532.5 394.0 533.9Q393.1 535.3 391.7 536.8Q390.4 538.2 388.2 540.3L388.2 540.3L380.9 547.3L380.9 547.4L393.6 547.4Q395 547.4 395.8 548.2Q396.6 549.0 396.6 550.3L396.6 550.3Q396.6 551.5 395.8 552.3Q395 553.1 393.6 553.1L393.6 553.1ZM413.6 553.8L413.6 553.8Q409.6 553.8 406.3 552.1Q403.1 550.4 401.8 547.7L401.8 547.7Q401.3 546.5 401.3 545.4L401.3 545.4Q401.3 544.0 402.0 543.3Q402.8 542.5 404.2 542.5L404.2 542.5Q405.3 542.5 406.0 542.9Q406.7 543.3 407.3 544.3L407.3 544.3Q409.3 548.2 413.6 548.2L413.6 548.2Q416.3 548.2 418.1 546.4Q419.9 544.6 419.9 541.9L419.9 541.9Q419.9 539.2 418.1 537.5Q416.4 535.8 413.6 535.8L413.6 535.8Q410.8 535.8 408.7 537.8L408.7 537.8Q407.6 538.8 406.9 539.1Q406.2 539.4 405.0 539.4L405.0 539.4Q403.4 539.4 402.5 538.4Q401.6 537.4 401.7 535.9L401.7 535.9Q401.7 535.8 401.7 535.6L401.7 535.6L402.7 523.3Q402.9 521.1 404.0 520.2Q405.1 519.2 407.2 519.2L407.2 519.2L422 519.2Q423.3 519.2 424.1 520.0Q424.9 520.8 424.9 522.1Q424.9 523.3 424.1 524.1Q423.3 524.9 422 524.9L422 524.9L408.6 524.9L407.8 534.3L408.0 534.3Q409.0 532.6 411.0 531.7Q413.0 530.7 415.6 530.7L415.6 530.7Q420.4 530.7 423.5 533.8Q426.6 536.9 426.6 541.7L426.6 541.7Q426.6 547.1 423.0 550.5Q419.4 553.8 413.6 553.8Z "/><mask id="satori_om-id-0-1-1"><rect x="1013" y="524" width="147" height="36" fill="#fff"/></mask><path fill="#8e8e8e" d="M1016.9 552.6Q1016.5 552.9 1016.0 552.9Q1015.4 552.9 1015.1 552.6Q1014.8 552.2 1014.8 551.7L1014.8 551.7L1014.8 532.6Q1014.8 532.0 1015.1 531.6Q1015.5 531.3 1016.1 531.3Q1016.6 531.3 1017.0 531.6Q1017.3 532.0 1017.3 532.6L1017.3 532.6L1017.3 540.0L1017.4 540.0Q1018.1 538.7 1019.4 537.9Q1020.7 537.2 1022.3 537.2L1022.3 537.2Q1025.2 537.2 1026.9 539.3Q1028.7 541.5 1028.7 545.0L1028.7 545.0Q1028.7 548.6 1026.9 550.8Q1025.2 552.9 1022.2 552.9L1022.2 552.9Q1020.6 552.9 1019.3 552.2Q1018.0 551.4 1017.3 550.1L1017.3 550.1L1017.2 550.1L1017.2 551.7Q1017.2 552.2 1016.9 552.6ZM1021.7 550.7L1021.7 550.7Q1023.8 550.7 1024.9 549.2Q1026.1 547.7 1026.1 545.0L1026.1 545.0Q1026.1 542.5 1024.9 540.9Q1023.8 539.4 1021.7 539.4L1021.7 539.4Q1019.8 539.4 1018.6 541.0Q1017.3 542.5 1017.3 545.0L1017.3 545.0Q1017.3 547.6 1018.6 549.1Q1019.8 550.7 1021.7 550.7ZM1032.8 558.4L1032.8 558.4Q1031.9 558.4 1031.4 558.0Q1030.9 557.7 1030.9 557.1L1030.9 557.1Q1030.9 556.7 1031.1 556.4Q1031.4 556.2 1031.9 556.2L1031.9 556.2Q1032.1 556.2 1032.3 556.2Q1032.5 556.2 1032.7 556.2L1032.7 556.2Q1034.4 556.2 1035.2 553.7L1035.2 553.7L1035.6 552.7L1030.3 539.0Q1030.2 538.6 1030.2 538.3L1030.2 538.3Q1030.2 537.8 1030.6 537.5Q1030.9 537.2 1031.5 537.2L1031.5 537.2Q1032.4 537.2 1032.7 538.1L1032.7 538.1L1036.9 550.1L1037.0 550.1L1041.2 538.1Q1041.3 537.6 1041.6 537.4Q1041.9 537.2 1042.4 537.2L1042.4 537.2Q1042.9 537.2 1043.3 537.5Q1043.6 537.8 1043.6 538.3L1043.6 538.3Q1043.6 538.6 1043.5 539.0L1043.5 539.0L1037.9 553.7Q1036.9 556.4 1035.8 557.4Q1034.7 558.4 1032.8 558.4Z M1066.9 550.9Q1064.7 553.0 1060.8 553.0Q1056.9 553.0 1054.7 550.9Q1052.4 548.7 1052.4 545.3L1052.4 545.3L1052.4 532.7Q1052.4 532.1 1052.8 531.7Q1053.1 531.3 1053.7 531.3Q1054.3 531.3 1054.7 531.7Q1055.0 532.1 1055.0 532.7L1055.0 532.7L1055.0 545.1Q1055.0 547.5 1056.6 549.1Q1058.1 550.6 1060.8 550.6Q1063.5 550.6 1065.0 549.1Q1066.6 547.5 1066.6 545.1L1066.6 545.1L1066.6 532.7Q1066.6 532.1 1066.9 531.7Q1067.3 531.3 1067.9 531.3Q1068.5 531.3 1068.8 531.7Q1069.2 532.1 1069.2 532.7L1069.2 532.7L1069.2 545.3Q1069.2 548.7 1066.9 550.9ZM1075.6 552.6Q1075.2 552.9 1074.6 552.9Q1074.0 552.9 1073.7 552.6Q1073.3 552.2 1073.3 551.6L1073.3 551.6L1073.3 532.9Q1073.3 532.3 1073.7 531.9Q1074.0 531.5 1074.6 531.5L1074.6 531.5L1081.2 531.5Q1084.3 531.5 1086.1 533.2Q1088.0 535.0 1088.0 537.8L1088.0 537.8Q1088.0 540.0 1086.8 541.6Q1085.7 543.3 1083.7 543.9L1083.7 543.9L1087.6 550.8Q1087.9 551.3 1087.9 551.7L1087.9 551.7Q1087.9 552.2 1087.5 552.6Q1087.1 552.9 1086.5 552.9L1086.5 552.9Q1086.1 552.9 1085.8 552.7Q1085.5 552.5 1085.2 552.1L1085.2 552.1L1081.0 544.3L1075.9 544.3L1075.9 551.6Q1075.9 552.2 1075.6 552.6ZM1075.9 533.9L1075.9 542.0L1081.0 542.0Q1083.0 542.0 1084.1 540.9Q1085.2 539.9 1085.2 537.9L1085.2 537.9Q1085.2 536.0 1084.1 534.9Q1082.9 533.9 1080.9 533.9L1080.9 533.9L1075.9 533.9ZM1099.4 545.3L1091.9 545.3Q1091.3 545.3 1091.0 545.0Q1090.6 544.6 1090.6 544.1Q1090.6 543.6 1091.0 543.2Q1091.3 542.9 1091.9 542.9L1091.9 542.9L1099.4 542.9Q1100.0 542.9 1100.3 543.2Q1100.7 543.6 1100.7 544.1Q1100.7 544.6 1100.3 545.0Q1100.0 545.3 1099.4 545.3L1099.4 545.3ZM1106.4 552.6Q1106.0 552.9 1105.4 552.9Q1104.8 552.9 1104.5 552.6Q1104.1 552.2 1104.1 551.6L1104.1 551.6L1104.1 532.9Q1104.1 532.3 1104.5 531.9Q1104.8 531.5 1105.4 531.5L1105.4 531.5L1112.1 531.5Q1115.1 531.5 1117.0 533.2Q1118.8 535.0 1118.8 537.8L1118.8 537.8Q1118.8 540.0 1117.7 541.6Q1116.5 543.3 1114.5 543.9L1114.5 543.9L1118.4 550.8Q1118.7 551.3 1118.7 551.7L1118.7 551.7Q1118.7 552.2 1118.3 552.6Q1117.9 552.9 1117.3 552.9L1117.3 552.9Q1116.9 552.9 1116.6 552.7Q1116.3 552.5 1116.1 552.1L1116.1 552.1L1111.8 544.3L1106.8 544.3L1106.8 551.6Q1106.8 552.2 1106.4 552.6ZM1106.8 533.9L1106.8 542.0L1111.8 542.0Q1113.9 542.0 1115.0 540.9Q1116.1 539.9 1116.1 537.9L1116.1 537.9Q1116.1 536.0 1114.9 534.9Q1113.8 533.9 1111.7 533.9L1111.7 533.9L1106.8 533.9ZM1122.2 552.9L1122.2 552.9Q1121.6 552.9 1121.2 552.5Q1120.9 552.2 1120.9 551.7L1120.9 551.7Q1120.9 551.4 1121.0 551.0L1121.0 551.0L1127.8 532.6Q1128.3 531.3 1129.5 531.3L1129.5 531.3Q1130.7 531.3 1131.2 532.6L1131.2 532.6L1138.0 551.0Q1138.2 551.4 1138.2 551.7L1138.2 551.7Q1138.2 552.2 1137.8 552.5Q1137.4 552.9 1136.9 552.9L1136.9 552.9Q1135.9 552.9 1135.6 551.9L1135.6 551.9L1133.7 546.6L1125.3 546.6L1123.5 551.9Q1123.1 552.9 1122.2 552.9ZM1129.5 534.7L1126.1 544.4L1132.9 544.4L1129.6 534.7L1129.5 534.7ZM1148.1 552.7L1142.3 552.7Q1141.7 552.7 1141.4 552.3Q1141.0 551.9 1141.0 551.3L1141.0 551.3L1141.0 532.9Q1141.0 532.3 1141.4 531.9Q1141.7 531.5 1142.3 531.5L1142.3 531.5L1148.1 531.5Q1152.8 531.5 1155.5 534.3Q1158.1 537.1 1158.1 542.1L1158.1 542.1Q1158.1 547.1 1155.5 549.9Q1152.8 552.7 1148.1 552.7L1148.1 552.7ZM1143.7 533.9L1143.7 550.3L1148.0 550.3Q1151.5 550.3 1153.5 548.2Q1155.4 546.1 1155.4 542.1L1155.4 542.1Q1155.4 538.1 1153.5 536.0Q1151.6 533.9 1148.0 533.9L1148.0 533.9L1143.7 533.9Z "/></svg>