<svg width="1200" height="630" viewBox="0 0 1200 630" xmlns="http://www.w3.org/2000/svg"><mask id="satori_om-id"><rect x="0" y="0" width="1200" height="630" fill="#fff"/></mask><mask id="satori_om-id-0"><rect x="0" y="0" width="1200" height="630" fill="#fff"/></mask><rect x="0" y="0" width="1200" height="630" fill="#f2f2f2"/><mask id="satori_om-id-0-0"><rect x="0" y="0" width="1200" height="441" fill="#fff"/></mask><mask id="satori_om-id-0-0-0"><rect x="40" y="95" width="1120" height="36" fill="#fff"/></mask><path fill="#8e8e8e" d="M44.8 123.4Q44.4 123.9 43.6 123.9Q42.8 123.9 42.4 123.4Q41.9 123.0 41.9 122.2L41.9 122.2L41.9 104.2Q41.9 103.4 42.4 103.0Q42.8 102.5 43.6 102.5L43.6 102.5L53.8 102.5Q54.5 102.5 55.0 102.9Q55.4 103.3 55.4 103.9Q55.4 104.6 55.0 105.0Q54.5 105.4 53.8 105.4L53.8 105.4L45.2 105.4L45.2 112.0L53.1 112.0Q53.7 112.0 54.1 112.4Q54.5 112.8 54.5 113.4Q54.5 114.1 54.1 114.4Q53.7 114.8 53.1 114.8L53.1 114.8L45.2 114.8L45.2 122.2Q45.2 123.0 44.8 123.4ZM59.2 123.9L59.2 123.9Q58.5 123.9 58.1 123.5Q57.6 123.0 57.6 122.3L57.6 122.3L57.6 109.6Q57.6 108.9 58.0 108.4Q58.5 108.0 59.1 108.0L59.1 108.0Q59.8 108.0 60.2 108.4Q60.6 108.9 60.6 109.6L60.6 109.6L60.6 110.9L60.7 110.9Q61.0 109.6 62.0 108.8Q62.9 108.0 64.1 108.0L64.1 108.0Q64.9 108.0 65.3 108.4L65.3 108.4Q65.8 108.7 65.8 109.5L65.8 109.5Q65.8 110.2 65.3 110.6L65.3 110.6Q64.8 111.0 63.8 111.0L63.8 111.0Q62.3 111.0 61.5 112.0Q60.8 112.9 60.8 114.4L60.8 114.4L60.8 122.3Q60.8 123.0 60.3 123.5Q59.9 123.9 59.2 123.9ZM70.5 105.4Q69.9 105.9 69.2 105.9Q68.4 105.9 67.9 105.4Q67.3 104.9 67.3 104.1L67.3 104.1Q67.3 103.3 67.9 102.8Q68.4 102.3 69.2 102.3L69.2 102.3Q69.9 102.3 70.5 102.8Q71.0 103.3 71.0 104.1L71.0 104.1Q71.0 104.9 70.5 105.4ZM70.3 123.5Q69.9 123.9 69.2 123.9Q68.4 123.9 68.0 123.5Q67.6 123.0 67.6 122.3L67.6 122.3L67.6 109.7Q67.6 108.9 68.0 108.4Q68.4 108.0 69.2 108.0Q69.9 108.0 70.3 108.4Q70.7 108.9 70.7 109.7L70.7 109.7L70.7 122.3Q70.7 123.0 70.3 123.5ZM79.8 123.9L79.8 123.9Q76.8 123.9 75.1 121.8Q73.3 119.6 73.3 116.0Q73.3 112.3 75.0 110.2Q76.8 108.0 79.7 108.0L79.7 108.0Q81.4 108.0 82.6 108.8Q83.9 109.5 84.6 110.8L84.6 110.8L84.6 110.8L84.6 103.9Q84.6 103.1 85.1 102.7Q85.5 102.2 86.2 102.2L86.2 102.2Q86.9 102.2 87.4 102.7Q87.8 103.2 87.8 103.9L87.8 103.9L87.8 122.4Q87.8 123.1 87.4 123.5Q86.9 123.9 86.2 123.9L86.2 123.9Q85.5 123.9 85.1 123.5Q84.6 123.1 84.6 122.4L84.6 122.4L84.6 120.9L84.6 120.9Q84.0 122.3 82.7 123.1Q81.5 123.9 79.8 123.9ZM80.6 121.2L80.6 121.2Q82.4 121.2 83.5 119.8Q84.6 118.4 84.6 116.0L84.6 116.0Q84.6 113.6 83.5 112.1Q82.4 110.7 80.6 110.7L80.6 110.7Q78.7 110.7 77.6 112.1Q76.5 113.5 76.5 116.0L76.5 116.0Q76.5 118.4 77.6 119.8Q78.7 121.2 80.6 121.2ZM95.5 123.9L95.5 123.9Q93.3 123.9 91.8 122.6Q90.4 121.3 90.4 119.3L90.4 119.3Q90.4 117.3 91.9 116.1Q93.4 114.9 96.1 114.7L96.1 114.7L100.4 114.5L100.4 113.3Q100.4 112.0 99.5 111.3Q98.7 110.6 97.3 110.6L97.3 110.6Q96.1 110.6 95.3 111.0Q94.5 111.5 93.9 112.5L93.9 112.5Q93.4 113.2 92.6 113.2L92.6 113.2Q92.0 113.2 91.6 112.8Q91.2 112.4 91.2 111.9L91.2 111.9Q91.2 111.3 91.5 110.8L91.5 110.8Q92.1 109.5 93.7 108.8Q95.3 108.0 97.4 108.0L97.4 108.0Q100.2 108.0 101.9 109.4Q103.5 110.7 103.5 113.0L103.5 113.0L103.5 122.3Q103.5 123.1 103.1 123.5Q102.7 123.9 102.0 123.9L102.0 123.9Q101.3 123.9 100.9 123.5Q100.5 123.1 100.5 122.4L100.5 122.4L100.5 121.1L100.4 121.1Q99.8 122.4 98.4 123.2Q97.1 123.9 95.5 123.9ZM96.4 121.4L96.4 121.4Q98.1 121.4 99.2 120.4Q100.4 119.4 100.4 117.9L100.4 117.9L100.4 116.7L96.6 116.9Q95.1 117.0 94.4 117.6Q93.6 118.2 93.6 119.2L93.6 119.2Q93.6 120.2 94.4 120.8Q95.2 121.4 96.4 121.4ZM108.5 129.4L108.5 129.4Q107.4 129.4 106.8 129.0Q106.2 128.6 106.2 127.9L106.2 127.9Q106.2 127.4 106.5 127.1Q106.9 126.8 107.4 126.8L107.4 126.8Q107.6 126.8 107.8 126.8Q108.1 126.8 108.3 126.8L108.3 126.8Q109.9 126.8 110.6 124.7L110.6 124.7L110.9 123.8L105.7 110.3Q105.6 109.9 105.6 109.4L105.6 109.4Q105.6 108.8 106.0 108.4Q106.5 108.0 107.2 108.0L107.2 108.0Q107.8 108.0 108.1 108.3Q108.5 108.5 108.7 109.2L108.7 109.2L112.6 120.8L112.7 120.8L116.6 109.2Q116.8 108.5 117.2 108.3Q117.5 108.0 118.1 108.0L118.1 108.0Q118.8 108.0 119.2 108.4Q119.7 108.8 119.7 109.4L119.7 109.4Q119.7 109.8 119.5 110.3L119.5 110.3L114.2 124.4Q113.1 127.2 111.9 128.3Q110.6 129.4 108.5 129.4ZM124.1 120.1L124.1 120.1Q124.8 120.1 125.2 120.5Q125.6 120.8 125.6 121.4L125.6 121.4Q125.6 121.8 125.5 122.3L125.5 122.3L124.2 127.3Q123.9 128.4 122.9 128.4L122.9 128.4Q122.3 128.4 122.0 128.1Q121.6 127.7 121.6 127.2L121.6 127.2Q121.6 127.1 121.7 126.8L121.7 126.8L122.6 121.4Q122.8 120.1 124.1 120.1Z M143.4 124.1L143.4 124.1Q139.9 124.1 137.7 122.3Q135.4 120.6 135.4 118.0L135.4 118.0Q135.4 115.9 136.7 114.5Q138.0 113.0 140.1 112.5L140.1 112.5L140.1 112.5Q138.3 111.9 137.3 110.7Q136.2 109.4 136.2 107.7L136.2 107.7Q136.2 105.3 138.2 103.7Q140.3 102.1 143.4 102.1L143.4 102.1Q146.6 102.1 148.6 103.7Q150.6 105.3 150.6 107.8L150.6 107.8Q150.6 109.4 149.6 110.7Q148.5 111.9 146.7 112.5L146.7 112.5L146.7 112.5Q148.9 113 150.1 114.5Q151.4 116.0 151.4 118.0L151.4 118.0Q151.4 119.7 150.4 121.1Q149.4 122.5 147.6 123.3Q145.7 124.1 143.4 124.1ZM143.4 111.4L143.4 111.4Q145.2 111.4 146.3 110.4Q147.4 109.5 147.4 108.0L147.4 108.0Q147.4 106.6 146.3 105.7Q145.2 104.7 143.4 104.7L143.4 104.7Q141.7 104.7 140.6 105.7Q139.5 106.6 139.5 108.0L139.5 108.0Q139.5 109.5 140.6 110.4Q141.7 111.4 143.4 111.4ZM140.1 120.4Q141.4 121.4 143.4 121.4Q145.5 121.4 146.7 120.4Q148.0 119.3 148.0 117.7L148.0 117.7Q148.0 116.1 146.7 115.0Q145.5 114.0 143.4 114.0Q141.4 114.0 140.1 115.0Q138.8 116.1 138.8 117.7L138.8 117.7Q138.8 119.3 140.1 120.4Z M163.5 123.5Q163.1 123.9 162.3 123.9Q161.6 123.9 161.2 123.5Q160.7 123.0 160.7 122.2L160.7 122.2L160.7 104.1Q160.7 103.2 161.2 102.8Q161.7 102.3 162.5 102.3L162.5 102.3Q163.1 102.3 163.5 102.5Q163.9 102.7 164.3 103.3L164.3 103.3L174.7 118.1L174.8 118.1L174.8 104.0Q174.8 103.2 175.2 102.7Q175.6 102.3 176.4 102.3L176.4 102.3Q177.1 102.3 177.5 102.7Q178.0 103.2 178.0 104.0L178.0 104.0L178.0 122.2Q178.0 123.0 177.5 123.5Q177.1 123.9 176.2 123.9L176.2 123.9Q175.6 123.9 175.3 123.7Q174.9 123.5 174.5 122.9L174.5 122.9L164.1 108.1L163.9 108.1L163.9 122.2Q163.9 123.0 163.5 123.5ZM193.4 121.8Q191.4 124.0 188.1 124.0Q184.8 124.0 182.8 121.8Q180.8 119.7 180.8 116.0L180.8 116.0Q180.8 112.3 182.8 110.1Q184.8 108.0 188.1 108.0Q191.4 108.0 193.4 110.1Q195.4 112.3 195.4 116.0L195.4 116.0Q195.4 119.7 193.4 121.8ZM188.1 121.3L188.1 121.3Q190 121.3 191.1 119.9Q192.2 118.5 192.2 116.0L192.2 116.0Q192.2 113.4 191.1 112.0Q190.0 110.6 188.1 110.6Q186.2 110.6 185.1 112.0Q184.0 113.4 184.0 116.0L184.0 116.0Q184.0 118.5 185.1 119.9Q186.2 121.3 188.1 121.3ZM203.8 123.9L203.8 123.9Q203.0 123.9 202.5 123.6Q202.0 123.2 201.6 122.3L201.6 122.3L197.0 110.3Q196.9 109.8 196.9 109.4L196.9 109.4Q196.9 108.8 197.3 108.4Q197.8 108.0 198.5 108.0L198.5 108.0Q199.6 108.0 200.0 109.2L200.0 109.2L203.8 120.6L203.8 120.6L207.7 109.2Q208.1 108.0 209.1 108.0L209.1 108.0Q209.8 108.0 210.3 108.4Q210.7 108.8 210.7 109.4L210.7 109.4Q210.7 109.9 210.5 110.3L210.5 110.3L206.0 122.3Q205.7 123.2 205.1 123.6Q204.6 123.9 203.8 123.9ZM219.5 124.0L219.5 124.0Q216.0 124.0 214.1 121.9Q212.1 119.8 212.1 116.0L212.1 116.0Q212.1 112.4 214.1 110.2Q216.0 108.0 219.3 108.0L219.3 108.0Q222.4 108.0 224.3 110.0Q226.2 112.0 226.2 115.1L226.2 115.1Q226.2 115.9 225.8 116.3Q225.4 116.8 224.7 116.8L224.7 116.8L215.3 116.8L215.3 116.8Q215.3 118.9 216.4 120.2Q217.6 121.4 219.4 121.4L219.4 121.4Q220.7 121.4 221.6 120.9Q222.5 120.4 223.4 119.2L223.4 119.2Q223.9 118.6 224.5 118.6L224.5 118.6Q225.1 118.6 225.5 119.0Q225.9 119.3 225.9 119.9L225.9 119.9Q225.9 120.3 225.6 120.8L225.6 120.8Q224.9 122.3 223.3 123.1Q221.7 124.0 219.5 124.0ZM215.4 114.5L215.4 114.5L223.1 114.5Q223.0 112.7 222.0 111.6Q220.9 110.5 219.3 110.5L219.3 110.5Q217.6 110.5 216.6 111.6Q215.5 112.7 215.4 114.5ZM231.4 123.5Q231.0 123.9 230.3 123.9Q229.5 123.9 229.1 123.5Q228.7 123.0 228.7 122.3L228.7 122.3L228.7 109.6Q228.7 108.9 229.1 108.4Q229.5 108.0 230.2 108.0Q230.9 108.0 231.3 108.4Q231.7 108.8 231.7 109.6L231.7 109.6L231.7 110.8L231.8 110.8Q232.3 109.5 233.4 108.8Q234.6 108.0 236.1 108.0L236.1 108.0Q237.7 108.0 238.9 108.8Q240.0 109.6 240.4 111.0L240.4 111.0L240.5 111.0Q241.1 109.6 242.4 108.8Q243.7 108.0 245.3 108.0L245.3 108.0Q247.6 108.0 249.0 109.4Q250.4 110.8 250.4 113.1L250.4 113.1L250.4 122.3Q250.4 123.0 249.9 123.5Q249.5 123.9 248.8 123.9Q248.1 123.9 247.6 123.5Q247.2 123.0 247.2 122.3L247.2 122.3L247.2 113.8Q247.2 112.3 246.4 111.5Q245.6 110.7 244.2 110.7Q242.8 110.7 242.0 111.6Q241.1 112.6 241.1 114.0L241.1 114.0L241.1 122.3Q241.1 123.0 240.6 123.5Q240.2 123.9 239.5 123.9Q238.8 123.9 238.4 123.5Q238.0 123.0 238.0 122.3L238.0 122.3L238.0 113.6Q238.0 112.3 237.2 111.5Q236.4 110.7 235.0 110.7L235.0 110.7Q233.6 110.7 232.7 111.7Q231.8 112.6 231.8 114.1L231.8 114.1L231.8 122.3Q231.8 123.0 231.4 123.5ZM255.0 123.9L255.0 123.9Q254.4 123.9 253.9 123.5Q253.5 123.1 253.5 122.4L253.5 122.4L253.5 103.9Q253.5 103.2 254.0 102.7Q254.4 102.2 255.1 102.2Q255.8 102.2 256.3 102.7Q256.7 103.2 256.7 103.9L256.7 103.9L256.7 110.9L256.8 110.9Q257.5 109.5 258.7 108.8Q260.0 108.0 261.6 108.0L261.6 108.0Q264.6 108.0 266.3 110.2Q268.1 112.3 268.1 116.0L268.1 116.0Q268.1 119.6 266.3 121.8Q264.6 123.9 261.6 123.9L261.6 123.9Q260.0 123.9 258.7 123.2Q257.4 122.4 256.7 121.0L256.7 121.0L256.6 121.0L256.6 122.4Q256.6 123.1 256.2 123.5Q255.7 123.9 255.0 123.9ZM260.8 121.2L260.8 121.2Q262.6 121.2 263.7 119.8Q264.8 118.4 264.8 116.0L264.8 116.0Q264.8 113.5 263.7 112.1Q262.6 110.7 260.8 110.7L260.8 110.7Q259.0 110.7 257.8 112.1Q256.7 113.6 256.7 116.0L256.7 116.0Q256.7 118.3 257.8 119.8Q259.0 121.2 260.8 121.2ZM277.2 124.0L277.2 124.0Q273.7 124.0 271.8 121.9Q269.8 119.8 269.8 116.0L269.8 116.0Q269.8 112.4 271.8 110.2Q273.7 108.0 277.0 108.0L277.0 108.0Q280.0 108.0 282.0 110.0Q283.9 112.0 283.9 115.1L283.9 115.1Q283.9 115.9 283.5 116.3Q283.1 116.8 282.3 116.8L282.3 116.8L273.0 116.8L273.0 116.8Q273.0 118.9 274.1 120.2Q275.2 121.4 277.1 121.4L277.1 121.4Q278.4 121.4 279.3 120.9Q280.2 120.4 281.1 119.2L281.1 119.2Q281.6 118.6 282.2 118.6L282.2 118.6Q282.8 118.6 283.2 119.0Q283.5 119.3 283.5 119.9L283.5 119.9Q283.5 120.3 283.3 120.8L283.3 120.8Q282.5 122.3 280.9 123.1Q279.3 124.0 277.2 124.0ZM273.0 114.5L273.0 114.5L280.7 114.5Q280.7 112.7 279.6 111.6Q278.6 110.5 277.0 110.5L277.0 110.5Q275.3 110.5 274.2 111.6Q273.1 112.7 273.0 114.5ZM287.9 123.9L287.9 123.9Q287.2 123.9 286.8 123.5Q286.3 123.0 286.3 122.3L286.3 122.3L286.3 109.6Q286.3 108.9 286.8 108.4Q287.2 108.0 287.9 108.0L287.9 108.0Q288.5 108.0 288.9 108.4Q289.3 108.9 289.3 109.6L289.3 109.6L289.3 110.9L289.4 110.9Q289.7 109.6 290.7 108.8Q291.6 108.0 292.8 108.0L292.8 108.0Q293.6 108.0 294.0 108.4L294.0 108.4Q294.5 108.7 294.5 109.5L294.5 109.5Q294.5 110.2 294.0 110.6L294.0 110.6Q293.5 111.0 292.6 111.0L292.6 111.0Q291.0 111.0 290.3 112.0Q289.5 112.9 289.5 114.4L289.5 114.4L289.5 122.3Q289.5 123.0 289.1 123.5Q288.6 123.9 287.9 123.9Z M315.5 123.7L303.8 123.7Q303.1 123.7 302.7 123.3Q302.3 122.9 302.3 122.3L302.3 122.3Q302.3 121.8 302.5 121.5Q302.6 121.1 303.2 120.6L303.2 120.6L309.8 113.9Q311.9 111.8 312.5 110.7Q313.2 109.6 313.2 108.3L313.2 108.3Q313.2 106.8 312.2 105.8Q311.1 104.8 309.5 104.8L309.5 104.8Q306.4 104.8 305.3 108.0L305.3 108.0Q305.1 108.5 304.7 108.8Q304.4 109.0 303.8 109.0L303.8 109.0Q303.1 109.0 302.8 108.6Q302.4 108.3 302.4 107.6L302.4 107.6Q302.4 107.3 302.5 107.0L302.5 107.0Q302.6 106.1 303.2 105.3Q303.7 104.4 304.6 103.7Q305.5 103.0 306.8 102.6Q308.1 102.1 309.6 102.1L309.6 102.1Q312.6 102.1 314.5 103.8Q316.5 105.5 316.5 108.1L316.5 108.1Q316.5 109.9 315.5 111.5Q314.5 113.0 311.8 115.8L311.8 115.8L306.7 120.8L306.7 120.9L315.5 120.9Q316.2 120.9 316.6 121.3Q317.0 121.7 317.0 122.3L317.0 122.3Q317.0 122.9 316.6 123.3Q316.2 123.7 315.5 123.7L315.5 123.7ZM333.4 121.1Q331.2 124.1 327.4 124.1Q323.7 124.1 321.5 121.1Q319.3 118.2 319.3 113.1L319.3 113.1Q319.3 108.0 321.5 105.1Q323.7 102.1 327.4 102.1L327.4 102.1Q331.2 102.1 333.4 105.1Q335.5 108.0 335.5 113.1L335.5 113.1Q335.5 118.1 333.4 121.1ZM327.4 121.3L327.4 121.3Q329.7 121.3 331.0 119.1Q332.2 116.9 332.2 113.1L332.2 113.1Q332.2 109.3 331.0 107.1Q329.7 104.9 327.4 104.9Q325.2 104.9 323.9 107.1Q322.7 109.3 322.7 113.1L322.7 113.1Q322.7 116.9 323.9 119.1Q325.2 121.3 327.4 121.3ZM351.6 123.7L339.9 123.7Q339.2 123.7 338.8 123.3Q338.4 122.9 338.4 122.3L338.4 122.3Q338.4 121.8 338.6 121.5Q338.7 121.1 339.3 120.6L339.3 120.6L345.9 113.9Q348.0 111.8 348.6 110.7Q349.3 109.6 349.3 108.3L349.3 108.3Q349.3 106.8 348.3 105.8Q347.2 104.8 345.6 104.8L345.6 104.8Q342.5 104.8 341.4 108.0L341.4 108.0Q341.2 108.5 340.8 108.8Q340.5 109.0 339.9 109.0L339.9 109.0Q339.2 109.0 338.9 108.6Q338.5 108.3 338.5 107.6L338.5 107.6Q338.5 107.3 338.5 107.0L338.5 107.0Q338.7 106.1 339.3 105.3Q339.8 104.4 340.7 103.7Q341.6 103.0 342.8 102.6Q344.1 102.1 345.7 102.1L345.7 102.1Q348.7 102.1 350.6 103.8Q352.6 105.5 352.6 108.1L352.6 108.1Q352.6 109.9 351.6 111.5Q350.6 113.0 347.9 115.8L347.9 115.8L342.8 120.8L342.8 120.9L351.6 120.9Q352.3 120.9 352.7 121.3Q353.1 121.7 353.1 122.3L353.1 122.3Q353.1 122.9 352.7 123.3Q352.3 123.7 351.6 123.7L351.6 123.7ZM367.4 123.9L367.4 123.9Q366.7 123.9 366.3 123.5Q365.9 123.0 365.9 122.3L365.9 122.3L365.9 119.5L357.2 119.5Q356.3 119.5 355.8 119.0Q355.2 118.4 355.2 117.6L355.2 117.6Q355.2 116.6 356.0 115.3L356.0 115.3Q357.8 112.0 362.8 104.7L362.8 104.7Q363.8 103.3 364.5 102.8Q365.3 102.2 366.3 102.2L366.3 102.2Q367.6 102.2 368.3 102.9Q369.0 103.5 369.0 104.7L369.0 104.7L369.0 116.7L370.7 116.7Q371.3 116.7 371.7 117.1Q372.1 117.5 372.1 118.1Q372.1 118.7 371.7 119.1Q371.3 119.5 370.7 119.5L370.7 119.5L369.0 119.5L369.0 122.3Q369.0 123.0 368.6 123.5Q368.1 123.9 367.4 123.9ZM358.3 116.8L365.9 116.8L365.9 105.1L365.8 105.1Q360.4 112.9 358.3 116.7L358.3 116.7L358.3 116.8Z "/><mask id="satori_om-id-0-0-1"><rect x="40" y="176" width="1120" height="165" fill="#fff"/></mask><path fill="#224d67" d="M58.6 239.3L58.6 239.3Q52.5 239.3 48.3 237.0Q44.2 234.7 42.9 231.0L42.9 231.0Q42.5 229.9 42.5 228.8L42.5 228.8Q42.5 227.2 43.4 226.3Q44.3 225.3 45.8 225.3L45.8 225.3Q47.1 225.3 47.9 225.9Q48.8 226.4 49.4 227.7L49.4 227.7Q50.3 230.4 52.8 231.7Q55.3 233.0 58.8 233.0L58.8 233.0Q62.6 233.0 65.1 231.3Q67.5 229.6 67.5 227.0L67.5 227.0Q67.5 224.7 65.7 223.2Q64.0 221.8 59.9 220.9L59.9 220.9L55.4 220.0Q42.9 217.4 42.9 208.1L42.9 208.1Q42.9 202.5 47.3 199.1Q51.7 195.6 58.6 195.6L58.6 195.6Q64.3 195.6 68.3 198.0Q72.3 200.4 73.6 204.5L73.6 204.5Q73.9 205.2 73.9 206.3L73.9 206.3Q73.9 207.6 73.0 208.5Q72.1 209.4 70.6 209.4L70.6 209.4Q68.2 209.4 67.0 207.0L67.0 207.0Q64.9 201.9 58.6 201.9L58.6 201.9Q55.0 201.9 52.8 203.4Q50.5 205.0 50.5 207.6L50.5 207.6Q50.5 209.8 52.3 211.2Q54.0 212.7 57.9 213.5L57.9 213.5L62.5 214.4Q69.1 215.8 72.1 218.6Q75.1 221.4 75.1 226.1L75.1 226.1Q75.1 232.2 70.7 235.7Q66.2 239.3 58.6 239.3ZM82.1 230.9L82.1 230.9L82.1 213.1L80.1 213.1Q78.8 213.1 78.0 212.4Q77.2 211.6 77.2 210.3L77.2 210.3Q77.2 209.0 78.0 208.3Q78.7 207.5 80.1 207.5L80.1 207.5L82.1 207.5L82.1 203.4Q82.1 201.6 83.1 200.6Q84.0 199.6 85.7 199.6L85.7 199.6Q87.4 199.6 88.4 200.6Q89.4 201.6 89.4 203.4L89.4 203.4L89.4 207.5L92.7 207.5Q94.1 207.5 94.9 208.3Q95.7 209.0 95.7 210.3L95.7 210.3Q95.7 211.6 94.9 212.4Q94.1 213.1 92.7 213.1L92.7 213.1L89.4 213.1L89.4 229.3Q89.4 231.1 90.0 231.9Q90.7 232.7 92.3 232.9L92.3 232.9L92.8 232.9Q95.8 233.2 95.8 235.6L95.8 235.6Q95.8 237.2 94.4 238.1Q93.1 238.9 90.5 238.9L90.5 238.9L90.2 238.9Q82.1 238.9 82.1 230.9ZM109.3 239.1L109.3 239.1Q104.7 239.1 101.8 236.5Q98.9 233.9 98.9 229.7L98.9 229.7Q98.9 225.6 102.0 223.2Q105.0 220.8 110.7 220.4L110.7 220.4L119.0 219.9L119.0 217.7Q119.0 215.3 117.4 213.9Q115.9 212.6 113.2 212.6L113.2 212.6Q111.0 212.6 109.5 213.4Q108.0 214.2 106.7 216.2L106.7 216.2Q105.5 217.7 103.7 217.7L103.7 217.7Q102.3 217.7 101.5 216.9Q100.6 216.1 100.6 214.8L100.6 214.8Q100.6 213.8 101.1 212.8L101.1 212.8Q102.3 210.1 105.6 208.5Q109.0 206.9 113.4 206.9L113.4 206.9Q119.2 206.9 122.7 209.7Q126.2 212.5 126.2 217.2L126.2 217.2L126.2 235.5Q126.2 237.2 125.2 238.2Q124.2 239.2 122.6 239.2L122.6 239.2Q121.1 239.2 120.2 238.3Q119.2 237.4 119.1 235.8L119.1 235.8L119.1 233.6L119.0 233.6Q117.7 236.1 115 237.6Q112.3 239.1 109.3 239.1ZM111.5 233.6L111.5 233.6Q114.6 233.6 116.8 231.7Q119.0 229.8 119.0 227.1L119.0 227.1L119.0 224.7L111.7 225.1Q109.1 225.3 107.7 226.4Q106.2 227.6 106.2 229.4L106.2 229.4Q106.2 231.3 107.7 232.4Q109.1 233.6 111.5 233.6ZM134.0 230.9L134.0 230.9L134.0 213.1L132.1 213.1Q130.7 213.1 129.9 212.4Q129.2 211.6 129.2 210.3L129.2 210.3Q129.2 209.0 129.9 208.3Q130.7 207.5 132.1 207.5L132.1 207.5L134.0 207.5L134.0 203.4Q134.0 201.6 135.0 200.6Q136.0 199.6 137.7 199.6L137.7 199.6Q139.4 199.6 140.4 200.6Q141.3 201.6 141.3 203.4L141.3 203.4L141.3 207.5L144.7 207.5Q146.1 207.5 146.9 208.3Q147.6 209.0 147.6 210.3L147.6 210.3Q147.6 211.6 146.8 212.4Q146.1 213.1 144.7 213.1L144.7 213.1L141.3 213.1L141.3 229.3Q141.3 231.1 142.0 231.9Q142.7 232.7 144.3 232.9L144.3 232.9L144.8 232.9Q147.7 233.2 147.7 235.6L147.7 235.6Q147.7 237.2 146.4 238.1Q145.0 238.9 142.5 238.9L142.5 238.9L142.2 238.9Q134.0 238.9 134.0 230.9ZM165.9 239.2L165.9 239.2Q158.8 239.2 154.8 235.0Q150.9 230.7 150.9 223.2L150.9 223.2Q150.9 215.7 154.8 211.3Q158.8 206.9 165.5 206.9L165.5 206.9Q171.9 206.9 175.9 210.9Q179.8 215.0 179.8 221.4L179.8 221.4Q179.8 223.0 178.9 223.9Q178.0 224.8 176.4 224.8L176.4 224.8L158.1 224.8L158.1 225.0Q158.1 228.9 160.2 231.3Q162.3 233.6 165.9 233.6L165.9 233.6Q168.3 233.6 170.1 232.6Q171.9 231.7 173.7 229.4L173.7 229.4Q174.7 228.3 176.1 228.3L176.1 228.3Q177.4 228.3 178.2 229.0Q179.0 229.8 179.0 231.1L179.0 231.1Q179.0 231.9 178.5 232.9L178.5 232.9Q177.0 235.9 173.7 237.5Q170.4 239.2 165.9 239.2ZM158.2 220.0L158.2 220.0L172.7 220.0Q172.6 216.6 170.6 214.6Q168.6 212.5 165.6 212.5Q162.5 212.5 160.4 214.6Q158.4 216.7 158.2 220.0ZM194.3 239.2L194.3 239.2Q192.5 239.2 191.4 238.3Q190.4 237.4 189.8 235.4L189.8 235.4L183.0 212.2Q182.7 210.9 182.7 210.0L182.7 210.0Q182.7 208.7 183.7 207.8Q184.6 206.9 186.2 206.9L186.2 206.9Q188.9 206.9 189.6 210.0L189.6 210.0L194.7 231.4L194.9 231.4L200.3 210.2Q201.1 206.9 204.5 206.9L204.5 206.9Q207.8 206.9 208.6 210.2L208.6 210.2L214.0 231.4L214.2 231.4L219.4 210.0Q220.0 206.9 222.7 206.9L222.7 206.9Q224.2 206.9 225.2 207.8Q226.2 208.6 226.2 210.0L226.2 210.0Q226.2 210.9 225.8 212.2L225.8 212.2L219.1 235.4Q218.5 237.3 217.4 238.3Q216.3 239.2 214.5 239.2L214.5 239.2Q212.5 239.2 211.4 238.3Q210.3 237.4 209.8 235.4L209.8 235.4L204.4 215.9L204.3 215.9L199.0 235.4Q198.1 239.2 194.3 239.2ZM237.0 202.0Q235.8 203.2 234.1 203.2Q232.4 203.2 231.2 202.0Q230.0 200.8 230.0 199.2L230.0 199.2Q230.0 197.5 231.2 196.4Q232.4 195.2 234.1 195.2L234.1 195.2Q235.8 195.2 237.0 196.4Q238.2 197.5 238.2 199.2L238.2 199.2Q238.2 200.8 237.0 202.0ZM236.8 238.1Q235.8 239.2 234.1 239.2Q232.4 239.2 231.4 238.1Q230.5 237.1 230.5 235.3L230.5 235.3L230.5 210.7Q230.5 209.0 231.4 207.9Q232.4 206.9 234.1 206.9Q235.8 206.9 236.8 207.9Q237.8 209.0 237.8 210.8L237.8 210.8L237.8 235.3Q237.8 237.1 236.8 238.1ZM255.9 239.2L255.9 239.2Q251.0 239.2 247.7 237.5Q244.3 235.8 243.2 233.0L243.2 233.0Q242.9 232.2 242.9 231.5L242.9 231.5Q242.9 230.2 243.8 229.4Q244.6 228.6 246.0 228.6L246.0 228.6Q247.8 228.6 249.1 230.4L249.1 230.4Q250.4 232.3 252.0 233.1Q253.6 233.9 256.1 233.9L256.1 233.9Q258.7 233.9 260.2 232.9Q261.8 231.8 261.8 230.1L261.8 230.1Q261.8 228.7 260.8 227.8Q259.8 227.0 257.4 226.4L257.4 226.4L252.4 225.3Q243.3 223.3 243.3 216.4L243.3 216.4Q243.3 212.1 246.8 209.5Q250.2 206.9 256.0 206.9L256.0 206.9Q260.4 206.9 263.6 208.8Q266.8 210.6 267.5 213.4L267.5 213.4Q267.7 214.0 267.7 214.5L267.7 214.5Q267.7 215.6 267.0 216.4Q266.2 217.1 264.9 217.1L264.9 217.1Q263.0 217.1 262.1 215.7L262.1 215.7Q261.0 214.0 259.5 213.1Q258.0 212.2 255.8 212.2L255.8 212.2Q253.4 212.2 251.9 213.3Q250.4 214.3 250.4 216.0L250.4 216.0Q250.4 218.8 255.0 219.8L255.0 219.8L259.9 220.9Q264.9 222.0 267.0 223.9Q269.1 225.9 269.1 229.3L269.1 229.3Q269.1 233.8 265.5 236.5Q261.8 239.2 255.9 239.2ZM287.5 239.2L287.5 239.2Q280.4 239.2 276.4 235.0Q272.4 230.7 272.4 223.2L272.4 223.2Q272.4 215.7 276.4 211.3Q280.4 206.9 287.1 206.9L287.1 206.9Q293.4 206.9 297.4 210.9Q301.4 215.0 301.4 221.4L301.4 221.4Q301.4 223.0 300.5 223.9Q299.6 224.8 298.0 224.8L298.0 224.8L279.7 224.8L279.7 225.0Q279.7 228.9 281.8 231.3Q283.9 233.6 287.4 233.6L287.4 233.6Q289.9 233.6 291.7 232.6Q293.4 231.7 295.2 229.4L295.2 229.4Q296.3 228.3 297.7 228.3L297.7 228.3Q298.9 228.3 299.8 229.0Q300.6 229.8 300.6 231.1L300.6 231.1Q300.6 231.9 300.1 232.9L300.1 232.9Q298.5 235.9 295.2 237.5Q291.9 239.2 287.5 239.2ZM279.7 220.0L279.7 220.0L294.2 220.0Q294.1 216.6 292.2 214.6Q290.2 212.5 287.1 212.5Q284.0 212.5 282.0 214.6Q279.9 216.7 279.7 220.0ZM311.2 217.7L311.2 217.7Q309.4 217.7 308.2 216.5Q307.0 215.3 307.0 213.5Q307.0 211.8 308.2 210.5Q309.4 209.3 311.2 209.3L311.2 209.3Q312.9 209.3 314.1 210.5Q315.4 211.8 315.4 213.5Q315.4 215.3 314.1 216.5Q312.9 217.7 311.2 217.7ZM311.2 238.9L311.2 238.9Q309.4 238.9 308.2 237.7Q307.0 236.5 307.0 234.7L307.0 234.7Q307.0 232.9 308.2 231.7Q309.4 230.5 311.2 230.5L311.2 230.5Q312.9 230.5 314.1 231.7Q315.4 232.9 315.4 234.7L315.4 234.7Q315.4 236.5 314.1 237.7Q312.9 238.9 311.2 238.9Z M336.8 239.1L336.8 239.1Q335.1 239.1 334.0 238.1Q333.0 237.2 333.0 235.6L333.0 235.6Q333.0 234.6 333.5 233.3L333.5 233.3L345.8 199.9Q346.5 197.8 347.9 196.8Q349.2 195.8 351.3 195.8L351.3 195.8Q353.3 195.8 354.7 196.8Q356.0 197.7 356.8 199.9L356.8 199.9L369.1 233.3Q369.6 234.7 369.6 235.6L369.6 235.6Q369.6 237.1 368.5 238.1Q367.5 239.1 365.8 239.1L365.8 239.1Q364.3 239.1 363.3 238.3Q362.4 237.6 361.9 235.9L361.9 235.9L359.2 227.8L343.4 227.8L340.6 235.8Q340.1 237.6 339.2 238.3Q338.3 239.1 336.8 239.1ZM351.1 203.8L345.2 221.8L357.3 221.8L351.3 203.8L351.1 203.8Z M390.9 239.1L390.9 239.1Q389.1 239.1 388.1 238.0Q387.1 237.0 387.1 235.2L387.1 235.2L387.1 200.2Q387.1 198.4 388.1 197.3Q389.1 196.3 390.9 196.3L390.9 196.3L403.5 196.3Q409.8 196.3 413.8 200.2Q417.8 204.1 417.8 210.5L417.8 210.5Q417.8 216.8 413.7 220.7Q409.6 224.6 403.2 224.6L403.2 224.6L394.6 224.6L394.6 235.2Q394.6 237.0 393.6 238.1Q392.6 239.1 390.9 239.1ZM394.6 202.5L394.6 218.5L401.5 218.5Q405.6 218.5 407.8 216.4Q410.1 214.3 410.1 210.5L410.1 210.5Q410.1 206.6 407.8 204.6Q405.6 202.5 401.5 202.5L401.5 202.5L394.6 202.5ZM436.3 239.2L436.3 239.2Q429.2 239.2 425.2 235.0Q421.2 230.7 421.2 223.2L421.2 223.2Q421.2 215.7 425.2 211.3Q429.2 206.9 435.9 206.9L435.9 206.9Q442.3 206.9 446.2 210.9Q450.2 215.0 450.2 221.4L450.2 221.4Q450.2 223.0 449.3 223.9Q448.4 224.8 446.8 224.8L446.8 224.8L428.5 224.8L428.5 225.0Q428.5 228.9 430.6 231.3Q432.7 233.6 436.3 233.6L436.3 233.6Q438.7 233.6 440.5 232.6Q442.3 231.7 444.0 229.4L444.0 229.4Q445.1 228.3 446.5 228.3L446.5 228.3Q447.8 228.3 448.6 229.0Q449.4 229.8 449.4 231.1L449.4 231.1Q449.4 231.9 448.9 232.9L448.9 232.9Q447.4 235.9 444.1 237.5Q440.8 239.2 436.3 239.2ZM428.6 220.0L428.6 220.0L443.1 220.0Q442.9 216.6 441.0 214.6Q439.0 212.5 435.9 212.5Q432.9 212.5 430.8 214.6Q428.8 216.7 428.6 220.0ZM456.9 230.9L456.9 230.9L456.9 213.1L455.0 213.1Q453.6 213.1 452.8 212.4Q452.0 211.6 452.0 210.3L452.0 210.3Q452.0 209.0 452.8 208.3Q453.6 207.5 455.0 207.5L455.0 207.5L456.9 207.5L456.9 203.4Q456.9 201.6 457.9 200.6Q458.9 199.6 460.6 199.6L460.6 199.6Q462.3 199.6 463.2 200.6Q464.2 201.6 464.2 203.4L464.2 203.4L464.2 207.5L467.6 207.5Q469.0 207.5 469.7 208.3Q470.5 209.0 470.5 210.3L470.5 210.3Q470.5 211.6 469.7 212.4Q468.9 213.1 467.6 213.1L467.6 213.1L464.2 213.1L464.2 229.3Q464.2 231.1 464.9 231.9Q465.6 232.7 467.1 232.9L467.1 232.9L467.7 232.9Q470.6 233.2 470.6 235.6L470.6 235.6Q470.6 237.2 469.3 238.1Q467.9 238.9 465.4 238.9L465.4 238.9L465.1 238.9Q456.9 238.9 456.9 230.9ZM481.3 238.1Q480.3 239.2 478.7 239.2Q477.0 239.2 476.0 238.1Q475.0 237.1 475.0 235.3L475.0 235.3L475.0 210.6Q475.0 208.9 476.0 207.9Q476.9 206.9 478.5 206.9L478.5 206.9Q480.0 206.9 481.0 207.9Q482.0 208.9 482.0 210.6L482.0 210.6L482.0 213.0L482.1 213.0Q482.8 210.3 484.6 208.6Q486.4 207.0 488.8 207.0L488.8 207.0Q490.5 207.0 491.3 207.8L491.3 207.8Q492.4 208.6 492.4 210.4L492.4 210.4Q492.4 212.1 491.3 213.0L491.3 213.0Q490.2 213.9 488.1 214.0L488.1 214.0Q482.3 214.0 482.3 220.4L482.3 220.4L482.3 235.3Q482.3 237.1 481.3 238.1ZM502.3 202.0Q501.2 203.2 499.5 203.2Q497.8 203.2 496.6 202.0Q495.4 200.8 495.4 199.2L495.4 199.2Q495.4 197.5 496.6 196.4Q497.8 195.2 499.5 195.2L499.5 195.2Q501.2 195.2 502.4 196.4Q503.5 197.5 503.5 199.2L503.5 199.2Q503.5 200.8 502.3 202.0ZM502.1 238.1Q501.1 239.2 499.5 239.2Q497.8 239.2 496.8 238.1Q495.8 237.1 495.8 235.3L495.8 235.3L495.8 210.7Q495.8 209.0 496.8 207.9Q497.8 206.9 499.5 206.9Q501.1 206.9 502.1 207.9Q503.1 209.0 503.1 210.8L503.1 210.8L503.1 235.3Q503.1 237.1 502.1 238.1Z M525.7 239.1L525.7 239.1Q523.9 239.1 523.0 238.1Q522.0 237.1 522.0 235.3L522.0 235.3L522.0 199.7Q522.0 197.9 523.0 196.8Q524.1 195.8 525.9 195.8L525.9 195.8Q527.2 195.8 528.1 196.3Q528.9 196.8 529.8 198.1L529.8 198.1L549.5 225.9L549.8 225.9L549.8 199.6Q549.8 197.8 550.8 196.8Q551.7 195.8 553.4 195.8L553.4 195.8Q555.2 195.8 556.1 196.8Q557.1 197.8 557.1 199.6L557.1 199.6L557.1 235.3Q557.1 237.1 556.1 238.1Q555.1 239.1 553.2 239.1L553.2 239.1Q551.9 239.1 551.1 238.6Q550.2 238.1 549.3 236.8L549.3 236.8L529.6 208.9L529.3 208.9L529.3 235.3Q529.3 237.1 528.3 238.1Q527.4 239.1 525.7 239.1ZM577.6 239.2L577.6 239.2Q570.5 239.2 566.5 235.0Q562.5 230.7 562.5 223.2L562.5 223.2Q562.5 215.7 566.5 211.3Q570.5 206.9 577.2 206.9L577.2 206.9Q583.5 206.9 587.5 210.9Q591.5 215.0 591.5 221.4L591.5 221.4Q591.5 223.0 590.6 223.9Q589.7 224.8 588.1 224.8L588.1 224.8L569.8 224.8L569.8 225.0Q569.8 228.9 571.9 231.3Q574.0 233.6 577.5 233.6L577.5 233.6Q580 233.6 581.8 232.6Q583.5 231.7 585.3 229.4L585.3 229.4Q586.4 228.3 587.8 228.3L587.8 228.3Q589.0 228.3 589.9 229.0Q590.7 229.8 590.7 231.1L590.7 231.1Q590.7 231.9 590.2 232.9L590.2 232.9Q588.6 235.9 585.3 237.5Q582.0 239.2 577.6 239.2ZM569.8 220.0L569.8 220.0L584.3 220.0Q584.2 216.6 582.3 214.6Q580.3 212.5 577.2 212.5Q574.1 212.5 572.1 214.6Q570.0 216.7 569.8 220.0ZM598.2 230.9L598.2 230.9L598.2 213.1L596.2 213.1Q594.9 213.1 594.1 212.4Q593.3 211.6 593.3 210.3L593.3 210.3Q593.3 209.0 594.1 208.3Q594.9 207.5 596.2 207.5L596.2 207.5L598.2 207.5L598.2 203.4Q598.2 201.6 599.2 200.6Q600.2 199.6 601.9 199.6L601.9 199.6Q603.5 199.6 604.5 200.6Q605.5 201.6 605.5 203.4L605.5 203.4L605.5 207.5L608.9 207.5Q610.2 207.5 611.0 208.3Q611.8 209.0 611.8 210.3L611.8 210.3Q611.8 211.6 611.0 212.4Q610.2 213.1 608.9 213.1L608.9 213.1L605.5 213.1L605.5 229.3Q605.5 231.1 606.2 231.9Q606.8 232.7 608.4 232.9L608.4 232.9L608.9 232.9Q611.9 233.2 611.9 235.6L611.9 235.6Q611.9 237.2 610.5 238.1Q609.2 238.9 606.7 238.9L606.7 238.9L606.4 238.9Q598.2 238.9 598.2 230.9ZM633.0 224.7L619.8 224.7Q618.3 224.7 617.3 223.8Q616.3 222.9 616.3 221.4Q616.3 219.9 617.3 219.0Q618.3 218.2 619.8 218.2L619.8 218.2L633.0 218.2Q634.6 218.2 635.5 219.0Q636.5 219.9 636.5 221.4Q636.5 222.9 635.5 223.8Q634.6 224.7 633.0 224.7L633.0 224.7ZM661.0 238.6L647.0 238.6Q645.3 238.6 644.3 237.5Q643.3 236.5 643.3 234.7L643.3 234.7L643.3 200.2Q643.3 198.4 644.3 197.3Q645.3 196.3 647.0 196.3L647.0 196.3L660.8 196.3Q666.6 196.3 670 199.2Q673.4 202.0 673.4 206.8L673.4 206.8Q673.4 210.2 671.2 212.9Q669.0 215.5 665.7 216.0L665.7 216.0L665.7 216.3Q670.1 216.7 672.8 219.5Q675.5 222.4 675.5 226.6L675.5 226.6Q675.5 232.2 671.6 235.4Q667.7 238.6 661.0 238.6L661.0 238.6ZM650.8 202.2L650.8 214.1L657.7 214.1Q661.7 214.1 663.8 212.5Q666.0 210.9 666.0 208.0L666.0 208.0Q666.0 205.2 664.1 203.7Q662.3 202.2 658.9 202.2L658.9 202.2L650.8 202.2ZM650.8 219.5L650.8 232.7L659.2 232.7Q663.4 232.7 665.6 231.0Q667.8 229.3 667.8 226.0L667.8 226.0Q667.8 222.8 665.5 221.1Q663.3 219.5 658.9 219.5L658.9 219.5L650.8 219.5ZM689.2 239.1L689.2 239.1Q684.7 239.1 681.8 236.5Q678.9 233.9 678.9 229.7L678.9 229.7Q678.9 225.6 681.9 223.2Q685 220.8 690.7 220.4L690.7 220.4L698.9 219.9L698.9 217.7Q698.9 215.3 697.4 213.9Q695.8 212.6 693.1 212.6L693.1 212.6Q690.9 212.6 689.5 213.4Q688.0 214.2 686.6 216.2L686.6 216.2Q685.5 217.7 683.7 217.7L683.7 217.7Q682.3 217.7 681.4 216.9Q680.6 216.1 680.6 214.8L680.6 214.8Q680.6 213.8 681.1 212.8L681.1 212.8Q682.2 210.1 685.6 208.5Q689.0 206.9 693.4 206.9L693.4 206.9Q699.2 206.9 702.7 209.7Q706.1 212.5 706.1 217.2L706.1 217.2L706.1 235.5Q706.1 237.2 705.1 238.2Q704.2 239.2 702.6 239.2L702.6 239.2Q701.1 239.2 700.1 238.3Q699.2 237.4 699.1 235.8L699.1 235.8L699.1 233.6L698.9 233.6Q697.6 236.1 695.0 237.6Q692.3 239.1 689.2 239.1ZM691.5 233.6L691.5 233.6Q694.6 233.6 696.7 231.7Q698.9 229.8 698.9 227.1L698.9 227.1L698.9 224.7L691.7 225.1Q689.1 225.3 687.6 226.4Q686.2 227.6 686.2 229.4L686.2 229.4Q686.2 231.3 687.6 232.4Q689.1 233.6 691.5 233.6ZM724.0 239.2L724.0 239.2Q719.1 239.2 715.8 237.5Q712.5 235.8 711.3 233.0L711.3 233.0Q711.0 232.2 711.0 231.5L711.0 231.5Q711.0 230.2 711.9 229.4Q712.7 228.6 714.1 228.6L714.1 228.6Q715.9 228.6 717.2 230.4L717.2 230.4Q718.5 232.3 720.1 233.1Q721.7 233.9 724.2 233.9L724.2 233.9Q726.8 233.9 728.3 232.9Q729.9 231.8 729.9 230.1L729.9 230.1Q729.9 228.7 728.9 227.8Q727.9 227.0 725.5 226.4L725.5 226.4L720.5 225.3Q711.4 223.3 711.4 216.4L711.4 216.4Q711.4 212.1 714.9 209.5Q718.3 206.9 724.1 206.9L724.1 206.9Q728.5 206.9 731.7 208.8Q734.9 210.6 735.7 213.4L735.7 213.4Q735.8 214.0 735.8 214.5L735.8 214.5Q735.8 215.6 735.1 216.4Q734.3 217.1 733.0 217.1L733.0 217.1Q731.1 217.1 730.2 215.7L730.2 215.7Q729.1 214.0 727.6 213.1Q726.1 212.2 723.9 212.2L723.9 212.2Q721.5 212.2 720.0 213.3Q718.5 214.3 718.5 216.0L718.5 216.0Q718.5 218.8 723.1 219.8L723.1 219.8L728.0 220.9Q733.0 222.0 735.1 223.9Q737.2 225.9 737.2 229.3L737.2 229.3Q737.2 233.8 733.6 236.5Q729.9 239.2 724.0 239.2ZM755.6 239.2L755.6 239.2Q748.5 239.2 744.5 235.0Q740.5 230.7 740.5 223.2L740.5 223.2Q740.5 215.7 744.5 211.3Q748.5 206.9 755.2 206.9L755.2 206.9Q761.6 206.9 765.5 210.9Q769.5 215.0 769.5 221.4L769.5 221.4Q769.5 223.0 768.6 223.9Q767.7 224.8 766.1 224.8L766.1 224.8L747.8 224.8L747.8 225.0Q747.8 228.9 749.9 231.3Q752.0 233.6 755.5 233.6L755.5 233.6Q758.0 233.6 759.8 232.6Q761.6 231.7 763.3 229.4L763.3 229.4Q764.4 228.3 765.8 228.3L765.8 228.3Q767.0 228.3 767.9 229.0Q768.7 229.8 768.7 231.1L768.7 231.1Q768.7 231.9 768.2 232.9L768.2 232.9Q766.7 235.9 763.3 237.5Q760.0 239.2 755.6 239.2ZM747.8 220.0L747.8 220.0L762.3 220.0Q762.2 216.6 760.3 214.6Q758.3 212.5 755.2 212.5Q752.1 212.5 750.1 214.6Q748.0 216.7 747.8 220.0ZM785.8 239.1L785.8 239.1Q779.9 239.1 776.4 234.7Q772.9 230.4 772.9 223.0L772.9 223.0Q772.9 215.7 776.4 211.3Q779.9 207.0 785.8 207.0L785.8 207.0Q789.1 207.0 791.6 208.5Q794.1 210.1 795.4 212.7L795.4 212.7L795.6 212.7L795.6 199.6Q795.6 197.7 796.6 196.7Q797.6 195.7 799.2 195.7Q800.8 195.7 801.9 196.7Q802.9 197.7 802.9 199.6L802.9 199.6L802.9 235.5Q802.9 237.2 801.9 238.2Q800.9 239.2 799.3 239.2L799.3 239.2Q797.6 239.2 796.6 238.2Q795.6 237.2 795.6 235.5L795.6 235.5L795.6 233.1L795.4 233.1Q794.2 235.9 791.8 237.5Q789.3 239.1 785.8 239.1ZM788.0 233.1L788.0 233.1Q791.4 233.1 793.5 230.4Q795.6 227.7 795.6 223.1L795.6 223.1Q795.6 218.5 793.5 215.7Q791.4 213.0 788.0 213.0L788.0 213.0Q784.5 213.0 782.4 215.7Q780.4 218.4 780.4 223.1L780.4 223.1Q780.4 227.7 782.4 230.4Q784.4 233.1 788.0 233.1Z M841.2 238.1Q839.9 239.1 837.8 239.1Q835.7 239.1 834.4 238.1Q833.1 237.1 832.3 234.9L832.3 234.9L819.7 201.4Q819.3 200.4 819.3 199.3L819.3 199.3Q819.3 197.7 820.4 196.8Q821.4 195.8 823.2 195.8L823.2 195.8Q826.1 195.8 827.0 198.7L827.0 198.7L837.8 230.5L838.0 230.5L848.9 198.6Q849.3 197.1 850.2 196.5Q851.1 195.8 852.5 195.8L852.5 195.8Q854.2 195.8 855.3 196.8Q856.4 197.7 856.4 199.2L856.4 199.2Q856.4 200.2 856.0 201.3L856.0 201.3L843.3 235.0Q842.5 237.1 841.2 238.1ZM867.4 202.0Q866.2 203.2 864.5 203.2Q862.8 203.2 861.6 202.0Q860.4 200.8 860.4 199.2L860.4 199.2Q860.4 197.5 861.6 196.4Q862.8 195.2 864.5 195.2L864.5 195.2Q866.2 195.2 867.4 196.4Q868.5 197.5 868.5 199.2L868.5 199.2Q868.5 200.8 867.4 202.0ZM867.1 238.1Q866.1 239.2 864.5 239.2Q862.8 239.2 861.8 238.1Q860.8 237.1 860.8 235.3L860.8 235.3L860.8 210.7Q860.8 209.0 861.8 207.9Q862.8 206.9 864.5 206.9Q866.1 206.9 867.1 207.9Q868.1 209.0 868.1 210.8L868.1 210.8L868.1 235.3Q868.1 237.1 867.1 238.1ZM886.2 239.2L886.2 239.2Q881.4 239.2 878.1 237.5Q874.7 235.8 873.6 233.0L873.6 233.0Q873.3 232.2 873.3 231.5L873.3 231.5Q873.3 230.2 874.1 229.4Q875.0 228.6 876.3 228.6L876.3 228.6Q878.2 228.6 879.5 230.4L879.5 230.4Q880.8 232.3 882.4 233.1Q884.0 233.9 886.5 233.9L886.5 233.9Q889.1 233.9 890.6 232.9Q892.2 231.8 892.2 230.1L892.2 230.1Q892.2 228.7 891.2 227.8Q890.2 227.0 887.8 226.4L887.8 226.4L882.8 225.3Q873.7 223.3 873.7 216.4L873.7 216.4Q873.7 212.1 877.2 209.5Q880.6 206.9 886.4 206.9L886.4 206.9Q890.8 206.9 894.0 208.8Q897.2 210.6 897.9 213.4L897.9 213.4Q898.1 214.0 898.1 214.5L898.1 214.5Q898.1 215.6 897.3 216.4Q896.6 217.1 895.3 217.1L895.3 217.1Q893.4 217.1 892.5 215.7L892.5 215.7Q891.3 214.0 889.9 213.1Q888.4 212.2 886.2 212.2L886.2 212.2Q883.8 212.2 882.3 213.3Q880.8 214.3 880.8 216.0L880.8 216.0Q880.8 218.8 885.4 219.8L885.4 219.8L890.3 220.9Q895.2 222.0 897.4 223.9Q899.5 225.9 899.5 229.3L899.5 229.3Q899.5 233.8 895.8 236.5Q892.2 239.2 886.2 239.2ZM915.0 239.1L915.0 239.1Q909.9 239.1 906.9 236.0Q903.9 233.0 903.9 227.6L903.9 227.6L903.9 210.7Q903.9 209.0 904.9 207.9Q905.9 206.9 907.6 206.9Q909.2 206.9 910.2 207.9Q911.2 209.0 911.2 210.8L911.2 210.8L911.2 226.1Q911.2 229.5 912.8 231.2Q914.4 233.0 917.5 233.0L917.5 233.0Q920.6 233.0 922.5 230.9Q924.3 228.9 924.3 225.5L924.3 225.5L924.3 210.7Q924.3 209.0 925.3 207.9Q926.3 206.9 928.0 206.9L928.0 206.9Q929.6 206.9 930.6 207.9Q931.6 209.0 931.6 210.8L931.6 210.8L931.6 235.5Q931.6 237.2 930.7 238.2Q929.7 239.2 928.1 239.2L928.1 239.2Q926.5 239.2 925.6 238.2Q924.6 237.2 924.6 235.5L924.6 235.5L924.6 233.2L924.4 233.2Q921.9 239.1 915.0 239.1ZM946.7 239.1L946.7 239.1Q942.1 239.1 939.2 236.5Q936.3 233.9 936.3 229.7L936.3 229.7Q936.3 225.6 939.4 223.2Q942.4 220.8 948.1 220.4L948.1 220.4L956.3 219.9L956.3 217.7Q956.3 215.3 954.8 213.9Q953.3 212.6 950.5 212.6L950.5 212.6Q948.4 212.6 946.9 213.4Q945.4 214.2 944.0 216.2L944.0 216.2Q942.9 217.7 941.1 217.7L941.1 217.7Q939.7 217.7 938.9 216.9Q938.0 216.1 938.0 214.8L938.0 214.8Q938.0 213.8 938.5 212.8L938.5 212.8Q939.7 210.1 943.0 208.5Q946.4 206.9 950.8 206.9L950.8 206.9Q956.6 206.9 960.1 209.7Q963.6 212.5 963.6 217.2L963.6 217.2L963.6 235.5Q963.6 237.2 962.6 238.2Q961.6 239.2 960.0 239.2L960.0 239.2Q958.5 239.2 957.5 238.3Q956.6 237.4 956.5 235.8L956.5 235.8L956.5 233.6L956.4 233.6Q955.1 236.1 952.4 237.6Q949.7 239.1 946.7 239.1ZM948.9 233.6L948.9 233.6Q952.0 233.6 954.2 231.7Q956.3 229.8 956.3 227.1L956.3 227.1L956.3 224.7L949.1 225.1Q946.5 225.3 945.1 226.4Q943.6 227.6 943.6 229.4L943.6 229.4Q943.6 231.3 945.1 232.4Q946.5 233.6 948.9 233.6ZM975.9 238.2Q974.9 239.2 973.3 239.2Q971.6 239.2 970.6 238.2Q969.6 237.1 969.6 235.3L969.6 235.3L969.6 199.6Q969.6 197.7 970.6 196.7Q971.6 195.7 973.3 195.7Q974.9 195.7 975.9 196.7Q976.9 197.7 976.9 199.6L976.9 199.6L976.9 235.3Q976.9 237.1 975.9 238.2Z M1020.2 238.6L999.6 238.6Q997.9 238.6 996.9 237.5Q995.9 236.5 995.9 234.7L995.9 234.7L995.9 200.2Q995.9 198.4 996.9 197.3Q997.9 196.3 999.6 196.3L999.6 196.3L1020.2 196.3Q1021.8 196.3 1022.8 197.2Q1023.7 198.0 1023.7 199.5Q1023.7 201.0 1022.8 201.8Q1021.8 202.7 1020.2 202.7L1020.2 202.7L1003.4 202.7L1003.4 214.1L1019.4 214.1Q1020.8 214.1 1021.7 214.9Q1022.6 215.7 1022.6 217.1Q1022.6 218.5 1021.7 219.3Q1020.8 220.1 1019.4 220.1L1019.4 220.1L1003.4 220.1L1003.4 232.2L1020.2 232.2Q1021.8 232.2 1022.8 233.1Q1023.7 233.9 1023.7 235.4Q1023.7 236.8 1022.8 237.7Q1021.8 238.6 1020.2 238.6L1020.2 238.6ZM1040.7 239.1L1040.7 239.1Q1034.8 239.1 1031.3 234.7Q1027.8 230.4 1027.8 223.0L1027.8 223.0Q1027.8 215.7 1031.3 211.3Q1034.8 207.0 1040.7 207.0L1040.7 207.0Q1043.9 207.0 1046.5 208.5Q1049.0 210.1 1050.3 212.7L1050.3 212.7L1050.4 212.7L1050.4 199.6Q1050.4 197.7 1051.4 196.7Q1052.4 195.7 1054.1 195.7Q1055.7 195.7 1056.7 196.7Q1057.7 197.7 1057.7 199.6L1057.7 199.6L1057.7 235.5Q1057.7 237.2 1056.7 238.2Q1055.8 239.2 1054.1 239.2L1054.1 239.2Q1052.5 239.2 1051.5 238.2Q1050.4 237.2 1050.4 235.5L1050.4 235.5L1050.4 233.1L1050.3 233.1Q1049.1 235.9 1046.7 237.5Q1044.2 239.1 1040.7 239.1ZM1042.9 233.1L1042.9 233.1Q1046.3 233.1 1048.4 230.4Q1050.5 227.7 1050.5 223.1L1050.5 223.1Q1050.5 218.5 1048.4 215.7Q1046.3 213.0 1042.9 213.0L1042.9 213.0Q1039.3 213.0 1037.3 215.7Q1035.2 218.4 1035.2 223.1L1035.2 223.1Q1035.2 227.7 1037.3 230.4Q1039.3 233.1 1042.9 233.1ZM1070.6 202.0Q1069.4 203.2 1067.7 203.2Q1066.0 203.2 1064.8 202.0Q1063.6 200.8 1063.6 199.2L1063.6 199.2Q1063.6 197.5 1064.8 196.4Q1066.0 195.2 1067.7 195.2L1067.7 195.2Q1069.4 195.2 1070.6 196.4Q1071.7 197.5 1071.7 199.2L1071.7 199.2Q1071.7 200.8 1070.6 202.0ZM1070.3 238.1Q1069.3 239.2 1067.7 239.2Q1066.0 239.2 1065.0 238.1Q1064.0 237.1 1064.0 235.3L1064.0 235.3L1064.0 210.7Q1064.0 209.0 1065.0 207.9Q1066.0 206.9 1067.7 206.9Q1069.3 206.9 1070.3 207.9Q1071.3 209.0 1071.3 210.8L1071.3 210.8L1071.3 235.3Q1071.3 237.1 1070.3 238.1ZM1079.5 230.9L1079.5 230.9L1079.5 213.1L1077.5 213.1Q1076.2 213.1 1075.4 212.4Q1074.6 211.6 1074.6 210.3L1074.6 210.3Q1074.6 209.0 1075.4 208.3Q1076.1 207.5 1077.5 207.5L1077.5 207.5L1079.5 207.5L1079.5 203.4Q1079.5 201.6 1080.5 200.6Q1081.4 199.6 1083.1 199.6L1083.1 199.6Q1084.8 199.6 1085.8 200.6Q1086.8 201.6 1086.8 203.4L1086.8 203.4L1086.8 207.5L1090.1 207.5Q1091.5 207.5 1092.3 208.3Q1093.1 209.0 1093.1 210.3L1093.1 210.3Q1093.1 211.6 1092.3 212.4Q1091.5 213.1 1090.1 213.1L1090.1 213.1L1086.8 213.1L1086.8 229.3Q1086.8 231.1 1087.5 231.9Q1088.1 232.7 1089.7 232.9L1089.7 232.9L1090.2 232.9Q1093.2 233.2 1093.2 235.6L1093.2 235.6Q1093.2 237.2 1091.8 238.1Q1090.5 238.9 1087.9 238.9L1087.9 238.9L1087.7 238.9Q1079.5 238.9 1079.5 230.9ZM1122.3 234.9Q1118.2 239.2 1111.3 239.2Q1104.4 239.2 1100.4 234.9Q1096.3 230.6 1096.3 223.1L1096.3 223.1Q1096.3 215.6 1100.4 211.2Q1104.5 206.9 1111.3 206.9L1111.3 206.9Q1118.2 206.9 1122.3 211.2Q1126.4 215.6 1126.4 223.1L1126.4 223.1Q1126.4 230.6 1122.3 234.9ZM1105.8 230.7Q1107.8 233.4 1111.3 233.4Q1114.8 233.4 1116.9 230.7Q1118.9 228.0 1118.9 223.1L1118.9 223.1Q1118.9 218.2 1116.9 215.4Q1114.8 212.7 1111.3 212.7L1111.3 212.7Q1107.8 212.7 1105.8 215.4Q1103.7 218.2 1103.7 223.1L1103.7 223.1Q1103.7 228.0 1105.8 230.7ZM1137.3 238.1Q1136.3 239.2 1134.7 239.2Q1133.0 239.2 1132.0 238.1Q1131.0 237.1 1131.0 235.3L1131.0 235.3L1131.0 210.6Q1131.0 208.9 1132.0 207.9Q1132.9 206.9 1134.5 206.9L1134.5 206.9Q1136.1 206.9 1137.0 207.9Q1138.0 208.9 1138.0 210.6L1138.0 210.6L1138.0 213.0L1138.1 213.0Q1138.8 210.3 1140.6 208.6Q1142.4 207.0 1144.8 207.0L1144.8 207.0Q1146.5 207.0 1147.4 207.8L1147.4 207.8Q1148.4 208.6 1148.4 210.4L1148.4 210.4Q1148.4 212.1 1147.3 213.0L1147.3 213.0Q1146.3 213.9 1144.1 214.0L1144.1 214.0Q1138.3 214.0 1138.3 220.4L1138.3 220.4L1138.3 235.3Q1138.3 237.1 1137.3 238.1Z M51.3 320.7Q50.3 321.7 48.7 321.7Q47.0 321.7 46.0 320.7Q45.0 319.7 45.0 317.9L45.0 317.9L45.0 295.6L43.1 295.6Q41.8 295.6 41.0 294.9Q40.3 294.2 40.3 292.9L40.3 292.9Q40.3 291.6 41.0 290.9Q41.8 290.1 43.1 290.1L43.1 290.1L45.0 290.1L45.0 287.4Q45.0 278.5 53.6 278.5L53.6 278.5Q56.4 278.5 57.8 279.3Q59.2 280.1 59.2 281.5L59.2 281.5Q59.2 283.2 57.5 283.6L57.5 283.6Q56.9 283.8 55.9 283.8L55.9 283.8Q53.9 283.9 53.1 284.8Q52.2 285.7 52.2 287.7L52.2 287.7L52.2 290.1L56.1 290.1Q57.3 290.1 58.1 290.9Q58.9 291.6 58.9 292.9L58.9 292.9Q58.9 294.2 58.1 294.9Q57.3 295.6 56.1 295.6L56.1 295.6L52.3 295.6L52.3 317.9Q52.3 319.7 51.3 320.7ZM87.9 317.4Q83.8 321.7 76.9 321.7Q70.1 321.7 66.0 317.4Q61.9 313.1 61.9 305.6L61.9 305.6Q61.9 298.1 66.0 293.7Q70.1 289.4 76.9 289.4L76.9 289.4Q83.8 289.4 87.9 293.7Q92.0 298.1 92.0 305.6L92.0 305.6Q92.0 313.1 87.9 317.4ZM71.4 313.2Q73.4 315.9 76.9 315.9Q80.5 315.9 82.5 313.2Q84.6 310.5 84.6 305.6L84.6 305.6Q84.6 300.7 82.5 297.9Q80.5 295.2 76.9 295.2L76.9 295.2Q73.5 295.2 71.4 297.9Q69.3 300.7 69.3 305.6L69.3 305.6Q69.3 310.5 71.4 313.2ZM103.0 320.6Q102.0 321.7 100.3 321.7Q98.6 321.7 97.6 320.6Q96.7 319.6 96.7 317.8L96.7 317.8L96.7 293.1Q96.7 291.4 97.6 290.4Q98.6 289.4 100.1 289.4L100.1 289.4Q101.7 289.4 102.6 290.4Q103.6 291.4 103.6 293.1L103.6 293.1L103.6 295.5L103.8 295.5Q104.4 292.8 106.2 291.1Q108.1 289.5 110.4 289.5L110.4 289.5Q112.1 289.5 113.0 290.3L113.0 290.3Q114.0 291.1 114.0 292.9L114.0 292.9Q114.0 294.6 112.9 295.5L112.9 295.5Q111.9 296.4 109.7 296.5L109.7 296.5Q104.0 296.5 104.0 302.9L104.0 302.9L104.0 317.8Q104.0 319.6 103.0 320.6Z M144.9 321.8L144.9 321.8Q138.8 321.8 134.6 319.5Q130.5 317.2 129.2 313.5L129.2 313.5Q128.8 312.4 128.8 311.3L128.8 311.3Q128.8 309.7 129.7 308.8Q130.6 307.8 132.1 307.8L132.1 307.8Q133.4 307.8 134.2 308.4Q135.1 308.9 135.7 310.2L135.7 310.2Q136.7 312.9 139.1 314.2Q141.6 315.5 145.1 315.5L145.1 315.5Q149.0 315.5 151.4 313.8Q153.8 312.1 153.8 309.5L153.8 309.5Q153.8 307.2 152.0 305.7Q150.3 304.3 146.2 303.4L146.2 303.4L141.7 302.5Q129.2 299.9 129.2 290.6L129.2 290.6Q129.2 285.0 133.6 281.6Q138.0 278.1 144.9 278.1L144.9 278.1Q150.6 278.1 154.6 280.5Q158.7 282.9 159.9 287.0L159.9 287.0Q160.2 287.7 160.2 288.8L160.2 288.8Q160.2 290.1 159.3 291.0Q158.4 291.9 156.9 291.9L156.9 291.9Q154.5 291.9 153.3 289.5L153.3 289.5Q151.2 284.4 144.9 284.4L144.9 284.4Q141.3 284.4 139.1 285.9Q136.9 287.5 136.9 290.1L136.9 290.1Q136.9 292.3 138.6 293.7Q140.3 295.2 144.2 296.0L144.2 296.0L148.8 296.9Q155.4 298.3 158.4 301.1Q161.4 303.9 161.4 308.6L161.4 308.6Q161.4 314.7 157.0 318.2Q152.5 321.8 144.9 321.8ZM172.6 331.1Q171.6 332.1 170.0 332.1Q168.3 332.1 167.4 331.1Q166.4 330.1 166.4 328.3L166.4 328.3L166.4 293.2Q166.4 291.4 167.3 290.4Q168.3 289.4 169.9 289.4L169.9 289.4Q171.5 289.4 172.5 290.4Q173.5 291.4 173.5 293.2L173.5 293.2L173.5 295.4L173.6 295.4Q175.0 292.6 177.5 291.1Q180.1 289.5 183.4 289.5L183.4 289.5Q189.3 289.5 192.8 293.8Q196.3 298.1 196.3 305.6L196.3 305.6Q196.3 313.0 192.8 317.3Q189.4 321.6 183.5 321.6L183.5 321.6Q180.2 321.6 177.6 320.1Q175.1 318.6 173.8 315.9L173.8 315.9L173.7 315.9L173.7 328.3Q173.7 330.1 172.6 331.1ZM181.2 315.6L181.2 315.6Q184.7 315.6 186.8 312.9Q188.8 310.2 188.8 305.6L188.8 305.6Q188.8 301.0 186.8 298.2Q184.7 295.5 181.2 295.5L181.2 295.5Q177.8 295.5 175.7 298.3Q173.6 301.0 173.6 305.6L173.6 305.6Q173.6 310.1 175.7 312.9Q177.8 315.6 181.2 315.6ZM214.8 321.7L214.8 321.7Q207.7 321.7 203.7 317.5Q199.7 313.2 199.7 305.7L199.7 305.7Q199.7 298.2 203.7 293.8Q207.7 289.4 214.4 289.4L214.4 289.4Q220.7 289.4 224.7 293.4Q228.7 297.5 228.7 303.9L228.7 303.9Q228.7 305.5 227.8 306.4Q226.9 307.3 225.3 307.3L225.3 307.3L207.0 307.3L207.0 307.5Q207.0 311.4 209.1 313.8Q211.2 316.1 214.7 316.1L214.7 316.1Q217.2 316.1 219.0 315.1Q220.7 314.2 222.5 311.9L222.5 311.9Q223.5 310.8 225.0 310.8L225.0 310.8Q226.2 310.8 227.0 311.5Q227.9 312.3 227.9 313.6L227.9 313.6Q227.9 314.4 227.4 315.4L227.4 315.4Q225.8 318.4 222.5 320.0Q219.2 321.7 214.8 321.7ZM207.0 302.5L207.0 302.5L221.5 302.5Q221.4 299.1 219.4 297.1Q217.5 295.0 214.4 295.0Q211.3 295.0 209.3 297.1Q207.2 299.2 207.0 302.5ZM247.0 321.7L247.0 321.7Q240.2 321.7 236.1 317.4Q232.1 313.0 232.1 305.6L232.1 305.6Q232.1 298.2 236.1 293.8Q240.2 289.4 247.0 289.4L247.0 289.4Q251.5 289.4 255.1 291.5Q258.6 293.6 259.7 296.9L259.7 296.9Q260.1 297.9 260.1 298.6L260.1 298.6Q260.1 300.0 259.2 300.8Q258.3 301.6 257.0 301.6L257.0 301.6Q255.9 301.6 255.2 301.1Q254.4 300.6 253.8 299.5L253.8 299.5Q251.5 295.3 247.2 295.3L247.2 295.3Q243.6 295.3 241.6 298.1Q239.5 300.8 239.5 305.6L239.5 305.6Q239.5 310.4 241.5 313.1Q243.6 315.8 247.1 315.8L247.1 315.8Q251.5 315.8 253.8 311.8L253.8 311.8Q254.5 310.6 255.2 310.1Q255.9 309.6 257.1 309.6L257.1 309.6Q258.4 309.6 259.3 310.4Q260.2 311.2 260.2 312.6L260.2 312.6Q260.2 313.4 259.8 314.4L259.8 314.4Q258.4 317.6 254.9 319.7Q251.4 321.7 247.0 321.7ZM271.8 284.5Q270.6 285.7 268.9 285.7Q267.2 285.7 266.0 284.5Q264.9 283.3 264.9 281.7L264.9 281.7Q264.9 280.0 266.0 278.9Q267.2 277.7 268.9 277.7L268.9 277.7Q270.6 277.7 271.8 278.9Q273.0 280.0 273.0 281.7L273.0 281.7Q273.0 283.3 271.8 284.5ZM271.6 320.6Q270.6 321.7 268.9 321.7Q267.2 321.7 266.2 320.6Q265.3 319.6 265.3 317.8L265.3 317.8L265.3 293.2Q265.3 291.5 266.2 290.4Q267.2 289.4 268.9 289.4Q270.6 289.4 271.6 290.4Q272.6 291.5 272.6 293.3L272.6 293.3L272.6 317.8Q272.6 319.6 271.6 320.6ZM287.0 320.7Q286.0 321.7 284.4 321.7Q282.7 321.7 281.7 320.7Q280.7 319.7 280.7 317.9L280.7 317.9L280.7 295.6L278.8 295.6Q277.5 295.6 276.7 294.9Q276.0 294.2 276.0 292.9L276.0 292.9Q276.0 291.6 276.7 290.9Q277.5 290.1 278.8 290.1L278.8 290.1L280.7 290.1L280.7 287.4Q280.7 278.5 289.3 278.5L289.3 278.5Q292.1 278.5 293.5 279.3Q294.9 280.1 294.9 281.5L294.9 281.5Q294.9 283.2 293.2 283.6L293.2 283.6Q292.6 283.8 291.6 283.8L291.6 283.8Q289.6 283.9 288.8 284.8Q287.9 285.7 287.9 287.7L287.9 287.7L287.9 290.1L291.8 290.1Q293.0 290.1 293.8 290.9Q294.6 291.6 294.6 292.9L294.6 292.9Q294.6 294.2 293.8 294.9Q293.0 295.6 291.8 295.6L291.8 295.6L288.0 295.6L288.0 317.9Q288.0 319.7 287.0 320.7ZM303.3 332.6L303.3 332.6Q300.9 332.6 299.6 331.7Q298.3 330.8 298.3 329.2L298.3 329.2Q298.3 328.1 299.0 327.4Q299.8 326.7 301.0 326.7L301.0 326.7Q301.3 326.7 301.8 326.7Q302.3 326.7 302.6 326.7L302.6 326.7Q305.6 326.7 307.0 323.2L307.0 323.2L307.6 321.6L297.4 294.9Q297.0 293.7 297.0 292.8L297.0 292.8Q297.0 291.3 298.1 290.4Q299.1 289.4 300.7 289.4L300.7 289.4Q302.1 289.4 302.9 290.1Q303.8 290.8 304.2 292.3L304.2 292.3L311.6 314.9L311.8 314.9L319.2 292.3Q319.6 290.8 320.5 290.1Q321.3 289.4 322.7 289.4L322.7 289.4Q324.2 289.4 325.2 290.3Q326.2 291.3 326.2 292.7L326.2 292.7Q326.2 293.7 325.8 294.8L325.8 294.8L315.6 322.2Q313.5 328.0 310.7 330.3Q308.0 332.6 303.3 332.6ZM336.9 284.5Q335.7 285.7 334.0 285.7Q332.3 285.7 331.2 284.5Q330.0 283.3 330.0 281.7L330.0 281.7Q330.0 280.0 331.2 278.9Q332.3 277.7 334.0 277.7L334.0 277.7Q335.8 277.7 336.9 278.9Q338.1 280.0 338.1 281.7L338.1 281.7Q338.1 283.3 336.9 284.5ZM336.7 320.6Q335.7 321.7 334.0 321.7Q332.4 321.7 331.4 320.6Q330.4 319.6 330.4 317.8L330.4 317.8L330.4 293.2Q330.4 291.5 331.4 290.4Q332.4 289.4 334.0 289.4Q335.7 289.4 336.7 290.4Q337.7 291.5 337.7 293.3L337.7 293.3L337.7 317.8Q337.7 319.6 336.7 320.6ZM350.1 320.7Q349.1 321.7 347.4 321.7Q345.8 321.7 344.8 320.7Q343.8 319.6 343.8 317.8L343.8 317.8L343.8 293.1Q343.8 291.4 344.7 290.4Q345.7 289.4 347.3 289.4Q348.9 289.4 349.9 290.4Q350.9 291.4 350.9 293.1L350.9 293.1L350.9 295.3L351.0 295.3Q353.7 289.4 360.7 289.4L360.7 289.4Q365.8 289.4 368.6 292.5Q371.5 295.6 371.5 301.0L371.5 301.0L371.5 317.8Q371.5 319.6 370.5 320.7Q369.5 321.7 367.8 321.7Q366.2 321.7 365.2 320.7Q364.2 319.6 364.2 317.8L364.2 317.8L364.2 302.5Q364.2 299.1 362.6 297.4Q361.0 295.6 358.0 295.6L358.0 295.6Q354.8 295.6 353.0 297.7Q351.1 299.7 351.1 303.1L351.1 303.1L351.1 317.8Q351.1 319.6 350.1 320.7ZM390.7 332.8L390.7 332.8Q386.3 332.7 383.0 331.2Q379.7 329.7 378.1 327.1L378.1 327.1Q377.5 326.1 377.5 324.9L377.5 324.9Q377.5 323.7 378.3 322.9Q379.1 322.1 380.5 322.1L380.5 322.1Q381.9 322.1 383.2 323.3L383.2 323.3Q385.1 325.2 386.8 326.1Q388.6 326.9 390.7 327.0L390.7 327.0Q394.4 327.0 396.5 325.1Q398.7 323.2 398.7 320.1L398.7 320.1L398.7 315.2L398.5 315.2Q397.3 317.7 394.7 319.2Q392.1 320.8 388.8 320.8L388.8 320.8Q382.9 320.8 379.5 316.5Q376.0 312.3 376.0 305.2L376.0 305.2Q376.0 297.9 379.5 293.7Q382.9 289.5 388.9 289.5L388.9 289.5Q392.2 289.5 394.7 291.0Q397.2 292.6 398.6 295.3L398.6 295.3L398.7 295.3L398.7 293.1Q398.7 291.4 399.7 290.4Q400.7 289.4 402.3 289.4Q404.0 289.4 405.0 290.4Q406.0 291.4 406.0 293.1L406.0 293.1L406.0 320.1Q406.0 326.0 401.9 329.4Q397.8 332.8 390.7 332.8ZM391.0 315.1L391.0 315.1Q394.5 315.1 396.6 312.4Q398.7 309.8 398.7 305.2L398.7 305.2Q398.7 300.7 396.6 298.0Q394.5 295.3 391.0 295.3L391.0 295.3Q387.5 295.3 385.5 298.0Q383.5 300.7 383.5 305.2L383.5 305.2Q383.5 309.8 385.5 312.5Q387.5 315.1 391.0 315.1Z M431.2 320.6Q430.2 321.7 428.4 321.7Q426.7 321.7 425.7 320.6Q424.7 319.6 424.7 317.7L424.7 317.7L424.7 282.7Q424.7 280.9 425.7 279.8Q426.7 278.8 428.4 278.8L428.4 278.8L441.5 278.8Q448.3 278.8 452.2 282.3Q456.1 285.9 456.1 292.0L456.1 292.0Q456.1 296.1 454.0 299.3Q452.0 302.5 448.4 303.9L448.4 303.9L455.0 315.6Q455.9 317.0 455.9 318.2L455.9 318.2Q455.9 319.7 454.8 320.7Q453.7 321.7 452.1 321.7L452.1 321.7Q450.7 321.7 449.9 321.1Q449.1 320.5 448.2 318.9L448.2 318.9L440.7 305.2L432.2 305.2L432.2 317.7Q432.2 319.6 431.2 320.6ZM432.2 284.9L432.2 299.4L440.8 299.4Q444.4 299.4 446.3 297.5Q448.3 295.6 448.3 292.1L448.3 292.1Q448.3 288.8 446.3 286.9Q444.2 284.9 440.6 284.9L440.6 284.9L432.2 284.9ZM486.1 317.4Q482.1 321.7 475.2 321.7Q468.3 321.7 464.2 317.4Q460.1 313.1 460.1 305.6L460.1 305.6Q460.1 298.1 464.2 293.7Q468.3 289.4 475.2 289.4L475.2 289.4Q482.0 289.4 486.1 293.7Q490.2 298.1 490.2 305.6L490.2 305.6Q490.2 313.1 486.1 317.4ZM469.6 313.2Q471.7 315.9 475.2 315.9Q478.7 315.9 480.7 313.2Q482.8 310.5 482.8 305.6L482.8 305.6Q482.8 300.7 480.7 297.9Q478.7 295.2 475.2 295.2L475.2 295.2Q471.7 295.2 469.6 297.9Q467.6 300.7 467.6 305.6L467.6 305.6Q467.6 310.5 469.6 313.2ZM501.3 320.7Q500.3 321.7 498.6 321.7Q497.0 321.7 496.1 320.7Q495.1 319.8 495.1 318.0L495.1 318.0L495.1 282.1Q495.1 280.2 496.1 279.2Q497.1 278.2 498.8 278.2Q500.4 278.2 501.4 279.2Q502.4 280.2 502.4 282.1L502.4 282.1L502.4 295.4L502.6 295.4Q503.9 292.6 506.5 291.0Q509.0 289.5 512.3 289.5L512.3 289.5Q518.2 289.5 521.6 293.8Q525.1 298.1 525.1 305.6L525.1 305.6Q525.1 313.0 521.6 317.3Q518.2 321.6 512.3 321.6L512.3 321.6Q508.9 321.6 506.3 320.1Q503.8 318.5 502.4 315.8L502.4 315.8L502.2 315.8L502.2 318.0Q502.2 319.7 501.3 320.7ZM510.0 315.6L510.0 315.6Q513.5 315.6 515.6 312.9Q517.6 310.2 517.6 305.6Q517.6 300.9 515.6 298.2Q513.5 295.5 510.0 295.5L510.0 295.5Q506.6 295.5 504.5 298.3Q502.4 301.0 502.4 305.6L502.4 305.6Q502.4 310.1 504.5 312.8Q506.6 315.6 510.0 315.6ZM554.5 317.4Q550.4 321.7 543.5 321.7Q536.6 321.7 532.6 317.4Q528.5 313.1 528.5 305.6L528.5 305.6Q528.5 298.1 532.6 293.7Q536.7 289.4 543.5 289.4L543.5 289.4Q550.4 289.4 554.5 293.7Q558.6 298.1 558.6 305.6L558.6 305.6Q558.6 313.1 554.5 317.4ZM538.0 313.2Q540.0 315.9 543.5 315.9Q547.0 315.9 549.1 313.2Q551.1 310.5 551.1 305.6L551.1 305.6Q551.1 300.7 549.1 297.9Q547.0 295.2 543.5 295.2L543.5 295.2Q540.0 295.2 538.0 297.9Q535.9 300.7 535.9 305.6L535.9 305.6Q535.9 310.5 538.0 313.2ZM565.3 313.4L565.3 313.4L565.3 295.6L563.3 295.6Q562.0 295.6 561.2 294.9Q560.4 294.1 560.4 292.8L560.4 292.8Q560.4 291.5 561.1 290.8Q561.9 290.0 563.3 290.0L563.3 290.0L565.3 290.0L565.3 285.9Q565.3 284.1 566.2 283.1Q567.2 282.1 568.9 282.1L568.9 282.1Q570.6 282.1 571.6 283.1Q572.6 284.1 572.6 285.9L572.6 285.9L572.6 290.0L575.9 290.0Q577.3 290.0 578.1 290.8Q578.9 291.5 578.9 292.8L578.9 292.8Q578.9 294.1 578.1 294.9Q577.3 295.6 575.9 295.6L575.9 295.6L572.6 295.6L572.6 311.8Q572.6 313.6 573.2 314.4Q573.9 315.2 575.5 315.4L575.5 315.4L576.0 315.4Q578.9 315.7 578.9 318.1L578.9 318.1Q578.9 319.7 577.6 320.6Q576.3 321.4 573.7 321.4L573.7 321.4L573.4 321.4Q565.3 321.4 565.3 313.4ZM590.1 284.5Q588.9 285.7 587.2 285.7Q585.5 285.7 584.3 284.5Q583.1 283.3 583.1 281.7L583.1 281.7Q583.1 280.0 584.3 278.9Q585.5 277.7 587.2 277.7L587.2 277.7Q588.9 277.7 590.1 278.9Q591.3 280.0 591.3 281.7L591.3 281.7Q591.3 283.3 590.1 284.5ZM589.8 320.6Q588.8 321.7 587.2 321.7Q585.5 321.7 584.5 320.6Q583.5 319.6 583.5 317.8L583.5 317.8L583.5 293.2Q583.5 291.5 584.5 290.4Q585.5 289.4 587.2 289.4Q588.8 289.4 589.8 290.4Q590.8 291.5 590.8 293.3L590.8 293.3L590.8 317.8Q590.8 319.6 589.8 320.6ZM610.6 321.7L610.6 321.7Q603.8 321.7 599.7 317.4Q595.7 313.0 595.7 305.6L595.7 305.6Q595.7 298.2 599.7 293.8Q603.8 289.4 610.6 289.4L610.6 289.4Q615.1 289.4 618.7 291.5Q622.2 293.6 623.3 296.9L623.3 296.9Q623.7 297.9 623.7 298.6L623.7 298.6Q623.7 300.0 622.8 300.8Q621.9 301.6 620.6 301.6L620.6 301.6Q619.5 301.6 618.8 301.1Q618.0 300.6 617.4 299.5L617.4 299.5Q615.1 295.3 610.8 295.3L610.8 295.3Q607.2 295.3 605.2 298.1Q603.1 300.8 603.1 305.6L603.1 305.6Q603.1 310.4 605.2 313.1Q607.2 315.8 610.7 315.8L610.7 315.8Q615.1 315.8 617.4 311.8L617.4 311.8Q618.1 310.6 618.8 310.1Q619.6 309.6 620.7 309.6L620.7 309.6Q622.0 309.6 622.9 310.4Q623.8 311.2 623.8 312.6L623.8 312.6Q623.8 313.4 623.4 314.4L623.4 314.4Q622.0 317.6 618.5 319.7Q615.0 321.7 610.6 321.7Z M656.3 321.8L656.3 321.8Q650.2 321.8 646.0 319.5Q641.9 317.2 640.6 313.5L640.6 313.5Q640.2 312.4 640.2 311.3L640.2 311.3Q640.2 309.7 641.1 308.8Q642.1 307.8 643.5 307.8L643.5 307.8Q644.8 307.8 645.6 308.4Q646.5 308.9 647.1 310.2L647.1 310.2Q648.1 312.9 650.5 314.2Q653.0 315.5 656.6 315.5L656.6 315.5Q660.4 315.5 662.8 313.8Q665.2 312.1 665.2 309.5L665.2 309.5Q665.2 307.2 663.5 305.7Q661.7 304.3 657.6 303.4L657.6 303.4L653.1 302.5Q640.6 299.9 640.6 290.6L640.6 290.6Q640.6 285.0 645.0 281.6Q649.4 278.1 656.3 278.1L656.3 278.1Q662.0 278.1 666.0 280.5Q670.1 282.9 671.3 287.0L671.3 287.0Q671.6 287.7 671.6 288.8L671.6 288.8Q671.6 290.1 670.7 291.0Q669.8 291.9 668.3 291.9L668.3 291.9Q665.9 291.9 664.7 289.5L664.7 289.5Q662.6 284.4 656.3 284.4L656.3 284.4Q652.7 284.4 650.5 285.9Q648.3 287.5 648.3 290.1L648.3 290.1Q648.3 292.3 650.0 293.7Q651.7 295.2 655.6 296.0L655.6 296.0L660.2 296.9Q666.8 298.3 669.8 301.1Q672.8 303.9 672.8 308.6L672.8 308.6Q672.8 314.7 668.4 318.2Q663.9 321.8 656.3 321.8ZM682.2 332.6L682.2 332.6Q679.8 332.6 678.5 331.7Q677.1 330.8 677.1 329.2L677.1 329.2Q677.1 328.1 677.9 327.4Q678.6 326.7 679.9 326.7L679.9 326.7Q680.2 326.7 680.7 326.7Q681.1 326.7 681.5 326.7L681.5 326.7Q684.5 326.7 685.9 323.2L685.9 323.2L686.4 321.6L676.3 294.9Q675.9 293.7 675.9 292.8L675.9 292.8Q675.9 291.3 676.9 290.4Q678.0 289.4 679.6 289.4L679.6 289.4Q681.0 289.4 681.8 290.1Q682.6 290.8 683.1 292.3L683.1 292.3L690.5 314.9L690.6 314.9L698.0 292.3Q698.5 290.8 699.3 290.1Q700.2 289.4 701.6 289.4L701.6 289.4Q703.1 289.4 704.1 290.3Q705.1 291.3 705.1 292.7L705.1 292.7Q705.1 293.7 704.7 294.8L704.7 294.8L694.5 322.2Q692.4 328.0 689.6 330.3Q686.9 332.6 682.2 332.6ZM721.1 321.7L721.1 321.7Q716.2 321.7 712.9 320.0Q709.6 318.3 708.4 315.5L708.4 315.5Q708.1 314.7 708.1 314.0L708.1 314.0Q708.1 312.7 709.0 311.9Q709.8 311.1 711.2 311.1L711.2 311.1Q713.0 311.1 714.3 312.9L714.3 312.9Q715.6 314.8 717.2 315.6Q718.8 316.4 721.3 316.4L721.3 316.4Q723.9 316.4 725.4 315.4Q727.0 314.3 727.0 312.6L727.0 312.6Q727.0 311.2 726.0 310.3Q725.0 309.5 722.6 308.9L722.6 308.9L717.6 307.8Q708.5 305.8 708.5 298.9L708.5 298.9Q708.5 294.6 712.0 292.0Q715.4 289.4 721.2 289.4L721.2 289.4Q725.6 289.4 728.8 291.3Q732.0 293.1 732.8 295.9L732.8 295.9Q732.9 296.5 732.9 297.0L732.9 297.0Q732.9 298.1 732.2 298.9Q731.4 299.6 730.1 299.6L730.1 299.6Q728.2 299.6 727.3 298.2L727.3 298.2Q726.2 296.5 724.7 295.6Q723.2 294.7 721.0 294.7L721.0 294.7Q718.6 294.7 717.1 295.8Q715.6 296.8 715.6 298.5L715.6 298.5Q715.6 301.3 720.2 302.3L720.2 302.3L725.1 303.4Q730.1 304.5 732.2 306.4Q734.3 308.4 734.3 311.8L734.3 311.8Q734.3 316.3 730.7 319.0Q727.0 321.7 721.1 321.7ZM740.9 313.4L740.9 313.4L740.9 295.6L739.0 295.6Q737.6 295.6 736.8 294.9Q736.0 294.1 736.0 292.8L736.0 292.8Q736.0 291.5 736.8 290.8Q737.6 290.0 739.0 290.0L739.0 290.0L740.9 290.0L740.9 285.9Q740.9 284.1 741.9 283.1Q742.9 282.1 744.6 282.1L744.6 282.1Q746.3 282.1 747.2 283.1Q748.2 284.1 748.2 285.9L748.2 285.9L748.2 290.0L751.6 290.0Q753.0 290.0 753.7 290.8Q754.5 291.5 754.5 292.8L754.5 292.8Q754.5 294.1 753.7 294.9Q752.9 295.6 751.6 295.6L751.6 295.6L748.2 295.6L748.2 311.8Q748.2 313.6 748.9 314.4Q749.6 315.2 751.2 315.4L751.2 315.4L751.7 315.4Q754.6 315.7 754.6 318.1L754.6 318.1Q754.6 319.7 753.3 320.6Q751.9 321.4 749.4 321.4L749.4 321.4L749.1 321.4Q740.9 321.4 740.9 313.4ZM772.8 321.7L772.8 321.7Q765.7 321.7 761.7 317.5Q757.7 313.2 757.7 305.7L757.7 305.7Q757.7 298.2 761.7 293.8Q765.7 289.4 772.4 289.4L772.4 289.4Q778.8 289.4 782.7 293.4Q786.7 297.5 786.7 303.9L786.7 303.9Q786.7 305.5 785.8 306.4Q784.9 307.3 783.3 307.3L783.3 307.3L765.0 307.3L765.0 307.5Q765.0 311.4 767.1 313.8Q769.2 316.1 772.8 316.1L772.8 316.1Q775.2 316.1 777.0 315.1Q778.8 314.2 780.5 311.9L780.5 311.9Q781.6 310.8 783.0 310.8L783.0 310.8Q784.3 310.8 785.1 311.5Q785.9 312.3 785.9 313.6L785.9 313.6Q785.9 314.4 785.4 315.4L785.4 315.4Q783.9 318.4 780.6 320.0Q777.3 321.7 772.8 321.7ZM765.1 302.5L765.1 302.5L779.6 302.5Q779.5 299.1 777.5 297.1Q775.5 295.0 772.5 295.0Q769.4 295.0 767.3 297.1Q765.3 299.2 765.1 302.5ZM795.0 321.7L795.0 321.7Q793.4 321.7 792.4 320.7Q791.4 319.6 791.4 317.8L791.4 317.8L791.4 293.1Q791.4 291.4 792.4 290.4Q793.3 289.4 794.9 289.4Q796.5 289.4 797.4 290.4Q798.4 291.4 798.4 293.1L798.4 293.1L798.4 295.4L798.6 295.4Q799.6 292.7 801.9 291.0Q804.3 289.4 807.4 289.4L807.4 289.4Q810.7 289.4 813.0 291.1Q815.2 292.7 816.1 295.7L816.1 295.7L816.3 295.7Q817.4 292.8 820.0 291.1Q822.5 289.4 825.9 289.4L825.9 289.4Q830.5 289.4 833.3 292.3Q836.1 295.1 836.1 299.8L836.1 299.8L836.1 317.8Q836.1 319.6 835.1 320.6Q834.1 321.7 832.4 321.7L832.4 321.7Q830.8 321.7 829.8 320.6Q828.8 319.6 828.8 317.8L828.8 317.8L828.8 301.6Q828.8 298.7 827.3 297.1Q825.9 295.6 823.2 295.6L823.2 295.6Q820.6 295.6 818.9 297.3Q817.3 299.1 817.3 301.9L817.3 301.9L817.3 317.8Q817.3 319.6 816.3 320.7Q815.4 321.7 813.7 321.7L813.7 321.7Q812.1 321.7 811.1 320.7Q810.2 319.6 810.2 317.8L810.2 317.8L810.2 301.2Q810.2 298.6 808.7 297.1Q807.2 295.6 804.7 295.6L804.7 295.6Q802.0 295.6 800.4 297.4Q798.7 299.3 798.7 302.1L798.7 302.1L798.7 317.8Q798.7 319.6 797.7 320.6Q796.7 321.7 795.0 321.7ZM853.9 321.7L853.9 321.7Q849.0 321.7 845.7 320.0Q842.4 318.3 841.2 315.5L841.2 315.5Q840.9 314.7 840.9 314.0L840.9 314.0Q840.9 312.7 841.8 311.9Q842.6 311.1 844.0 311.1L844.0 311.1Q845.8 311.1 847.1 312.9L847.1 312.9Q848.4 314.8 850.0 315.6Q851.6 316.4 854.1 316.4L854.1 316.4Q856.7 316.4 858.2 315.4Q859.8 314.3 859.8 312.6L859.8 312.6Q859.8 311.2 858.8 310.3Q857.8 309.5 855.4 308.9L855.4 308.9L850.4 307.8Q841.3 305.8 841.3 298.9L841.3 298.9Q841.3 294.6 844.8 292.0Q848.2 289.4 854.0 289.4L854.0 289.4Q858.4 289.4 861.6 291.3Q864.8 293.1 865.6 295.9L865.6 295.9Q865.7 296.5 865.7 297.0L865.7 297.0Q865.7 298.1 865.0 298.9Q864.2 299.6 862.9 299.6L862.9 299.6Q861.0 299.6 860.1 298.2L860.1 298.2Q859.0 296.5 857.5 295.6Q856.0 294.7 853.8 294.7L853.8 294.7Q851.4 294.7 849.9 295.8Q848.4 296.8 848.4 298.5L848.4 298.5Q848.4 301.3 853.0 302.3L853.0 302.3L857.9 303.4Q862.9 304.5 865.0 306.4Q867.1 308.4 867.1 311.8L867.1 311.8Q867.1 316.3 863.5 319.0Q859.8 321.7 853.9 321.7Z "/><defs><clipPath id="satori_bc-id-0-1"><rect x="0" y="441" width="1200" height="189"/></clipPath></defs><mask id="satori_om-id-0-1"><rect x="0" y="442" width="1200" height="188" fill="#fff"/><path width="1200" height="189" fill="none" stroke="#000" stroke-width="2" d="M0,441 A0,0 0 0 1 0,441 h1200 A0,0 0 0 1 1200,441"/></mask><path width="1200" height="189" clip-path="url(#satori_bc-id-0-1)" fill="none" stroke="#dbdbdb" stroke-width="2" d="M0,441 A0,0 0 0 1 0,441 h1200 A0,0 0 0 1 1200,441"/><mask id="satori_om-id-0-1-0"><rect x="40" y="482" width="389" height="108" fill="#fff"/></mask><clipPath id="satori_cp-id-0-1-0-0"><rect x="40" y="504" width="64" height="64"/></clipPath><mask id="satori_om-id-0-1-0-0"><rect x="40" y="504" width="64" height="64" fill="#fff"/></mask><image x="40" y="504" width="64" height="64" href="data:image/svg+xml;utf8,%3Csvg  xmlns=%22http://www.w3.org/2000/svg%22 width=%2264%22 height=%2264%22 viewBox=%220 0 128 128%22%3E%3Cpath fill=%22%23224d67%22 d=%22M22.5 14.8c2.9 1.3 99 44 99 44c2.7 1.2 2.9 3.1 2 12.4c-1 10.5-1.9 37.8-40.2 42.9c-24.6 3.2-55.9-4.3-70.9-27.2C-6 58.8 11 23.4 14.8 17.7c2.4-3.5 4.8-4.2 7.7-2.9%22%3E%3C/path%3E%3Cpath fill=%22%23f0f4c3%22 d=%22M121.5 58.8c-.3-.2-92-40.8-98.9-43.9C9.6 31.5-3.8 76 27.9 96.2c33.6 21.5 78.7-10.2 93.6-37.4%22%3E%3C/path%3E%3Cpath fill=%22%23f0f4c3%22 d=%22M117.7 57c-.3-.2-86.7-38.4-93.2-41.3c-12.2 15.5-23.9 59.1 5.7 78c31.4 20.2 73.6-11.2 87.5-36.7%22%3E%3C/path%3E%3Cpath fill=%22%23cb2a42%22 d=%22M56.2 37.6L19.5 48.2c-2.5.8-4.4 2.8-5 5.3c-1.9 8.5.8 23.3 8.9 29.8c3.5 2.7 8.6 1.8 10.8-2.1L58.5 41c1.3-1.7.5-4.2-2.3-3.4m14.3 2.9s14.6 30.1 16 33s6.3 4.7 9.9 2.8c10.7-5.6 15.5-12.4 19.2-20.2c-8.9-3.9-42.4-18.8-42.4-18.8c-2.4-1.1-4 .6-2.7 3.2m-8.6 1.9C60.3 45.1 39.5 81 37.6 84.1c-1.9 3.2-.7 7.5 2.7 9.2c12.3 6.5 30.9.4 39.6-7c2.2-1.9 4.5-5.1 3.2-8.2S68.9 44.6 67.8 42.3c-1.2-2.7-4.1-2.8-5.9.1%22%3E%3C/path%3E%3Cpath fill=%22%23f0f4c3%22 d=%22M52.2 42.2c-1.4.4-10.1 3-11.1 3.4c-1.4.5-2.2 1.7-1.9 2.5c.3.9 1.7 1.1 3.1.6c.8-.3 7.1-3.9 9.5-5.2c-3.1 2.4-10.2 9.4-11.1 10.3c-1.4 1.5-1.7 3.4-.8 4.3c1 .9 2.9.5 4.3-1c1.2-1.3 8.5-12.8 9.1-13.9s.4-1.4-1.1-1m10.1 16.4c0-2.2 1.4-10.3 1.8-12.3c.4-1.6 1.5-1.8 1.8.5s1.7 9.7 1.7 11.8s-1.2 3.3-2.7 3.3c-1.4 0-2.6-1.1-2.6-3.3M79.9 49c-1.2-1.8-3.3-4.9-4.1-6.1c-.7-1.2.1-2.1 1.8-.9s4 2.9 5.4 4c1.6 1.3 1.9 3 .8 4s-2.7.8-3.9-1%22%3E%3C/path%3E%3Cellipse cx=%2287.3%22 cy=%22103.12%22 fill=%22%23cb2a42%22 rx=%223.4%22 ry=%222.3%22 transform=%22rotate(-27.098 87.298 103.126)%22%3E%3C/ellipse%3E%3Cellipse cx=%2298.89%22 cy=%22103.82%22 fill=%22%23cb2a42%22 rx=%223.4%22 ry=%222.3%22 transform=%22rotate(-30.642 98.887 103.818)%22%3E%3C/ellipse%3E%3Cellipse cx=%22102.02%22 cy=%2293.8%22 fill=%22%23cb2a42%22 rx=%223.4%22 ry=%222.3%22 transform=%22rotate(-37.16 102.017 93.797)%22%3E%3C/ellipse%3E%3Cpath fill=%22%23cb2a42%22 d=%22M57.6 30.3c-8.3-3.7-24.4-10.7-29.6-13c-3.6 2.2-9.7 11.4-11.2 21.2c-.6 3.6 1.7 5.9 5.3 4.9c0 0 33.7-9.3 35.3-9.7c1.6-.5 2-2.6.2-3.4%22%3E%3C/path%3E%3C/svg%3E" preserveAspectRatio="none" clip-path="url(#satori_cp-id-0-1-0-0)" mask="url(#satori_om-id-0-1-0-0)"/><mask id="satori_om-id-0-1-0-0-0"><rect x="40" y="504" width="0" height="64" fill="#fff"/></mask><mask id="satori_om-id-0-1-0-0-1"><rect x="40" y="504" width="0" height="64" fill="#fff"/></mask><mask id="satori_om-id-0-1-0-0-2"><rect x="40" y="504" width="0" height="64" fill="#fff"/></mask><mask id="satori_om-id-0-1-0-0-3"><rect x="40" y="504" width="0" height="64" fill="#fff"/></mask><mask id="satori_om-id-0-1-0-0-4"><rect x="40" y="504" width="0" height="64" fill="#fff"/></mask><mask id="satori_om-id-0-1-0-0-5"><rect x="40" y="504" width="0" height="64" fill="#fff"/></mask><mask id="satori_om-id-0-1-0-0-6"><rect x="40" y="504" width="0" height="64" fill="#fff"/></mask><mask id="satori_om-id-0-1-0-0-7"><rect x="40" y="504" width="0" height="64" fill="#fff"/></mask><mask id="satori_om-id-0-1-0-0-8"><rect x="40" y="504" width="0" height="64" fill="#fff"/></mask><mask id="satori_om-id-0-1-0-1"><rect x="116" y="512" width="313" height="48" fill="#fff"/></mask><path fill="#545454" d="M133.0 553.6L133.0 553.6Q126.5 553.6 122.7 550.2Q118.8 546.7 118.8 541.1L118.8 541.1L118.8 522.5Q118.8 520.7 119.8 519.7Q120.7 518.8 122.4 518.8Q124.0 518.8 125.0 519.7Q125.9 520.7 125.9 522.5L125.9 522.5L125.9 540.4Q125.9 543.7 127.8 545.6Q129.6 547.6 133.0 547.6L133.0 547.6Q136.3 547.6 138.2 545.6Q140.1 543.7 140.1 540.4L140.1 540.4L140.1 522.5Q140.1 520.7 141.0 519.7Q141.9 518.8 143.6 518.8Q145.3 518.8 146.2 519.7Q147.1 520.7 147.1 522.5L147.1 522.5L147.1 541.1Q147.1 546.7 143.3 550.2Q139.4 553.6 133.0 553.6ZM158.9 552.6Q158.0 553.6 156.3 553.6Q154.6 553.6 153.7 552.6Q152.8 551.6 152.8 549.9L152.8 549.9L152.8 522.9Q152.8 521.2 153.7 520.2Q154.6 519.2 156.3 519.2L156.3 519.2L166.6 519.2Q172.4 519.2 175.6 522.1Q178.9 525.0 178.9 530.0L178.9 530.0Q178.9 533.2 177.3 535.8Q175.8 538.3 173.0 539.4L173.0 539.4L177.9 547.9Q178.7 549.2 178.7 550.3L178.7 550.3Q178.7 551.7 177.7 552.6Q176.7 553.6 175.1 553.6L175.1 553.6Q173.8 553.6 173.1 553.0Q172.4 552.5 171.5 550.9L171.5 550.9L165.9 540.7L159.9 540.7L159.9 549.9Q159.9 551.6 158.9 552.6ZM159.9 524.8L159.9 535.6L165.9 535.6Q168.6 535.6 170.1 534.1Q171.6 532.7 171.6 530.2L171.6 530.2Q171.6 527.7 170.0 526.2Q168.5 524.8 165.9 524.8L165.9 524.8L159.9 524.8ZM196.2 542.3L186.4 542.3Q185.0 542.3 184.1 541.5Q183.2 540.7 183.2 539.3Q183.2 537.9 184.1 537.1Q185.0 536.3 186.4 536.3L186.4 536.3L196.2 536.3Q197.6 536.3 198.5 537.1Q199.4 537.9 199.4 539.3Q199.4 540.7 198.5 541.5Q197.6 542.3 196.2 542.3L196.2 542.3ZM210.9 552.6Q209.9 553.6 208.3 553.6Q206.6 553.6 205.6 552.6Q204.7 551.6 204.7 549.9L204.7 549.9L204.7 522.9Q204.7 521.2 205.6 520.2Q206.6 519.2 208.3 519.2L208.3 519.2L218.6 519.2Q224.4 519.2 227.6 522.1Q230.8 525.0 230.8 530.0L230.8 530.0Q230.8 533.2 229.3 535.8Q227.8 538.3 225.0 539.4L225.0 539.4L229.9 547.9Q230.6 549.2 230.6 550.3L230.6 550.3Q230.6 551.7 229.6 552.6Q228.6 553.6 227.0 553.6L227.0 553.6Q225.8 553.6 225.0 553.0Q224.3 552.5 223.4 550.9L223.4 550.9L217.8 540.7L211.8 540.7L211.8 549.9Q211.8 551.6 210.9 552.6ZM211.8 524.8L211.8 535.6L217.9 535.6Q220.6 535.6 222.0 534.1Q223.5 532.7 223.5 530.2L223.5 530.2Q223.5 527.7 222.0 526.2Q220.4 524.8 217.8 524.8L217.8 524.8L211.8 524.8ZM237.7 553.5L237.7 553.5Q236.0 553.5 235.1 552.6Q234.1 551.7 234.1 550.2L234.1 550.2Q234.1 549.3 234.6 547.9L234.6 547.9L243.8 522.8Q244.6 520.7 245.8 519.7Q247.1 518.8 249.1 518.8L249.1 518.8Q251.2 518.8 252.5 519.7Q253.8 520.7 254.5 522.8L254.5 522.8L263.8 547.9Q264.3 549.2 264.3 550.2L264.3 550.2Q264.3 551.6 263.3 552.6Q262.3 553.5 260.7 553.5L260.7 553.5Q259.2 553.5 258.4 552.8Q257.5 552.1 257.0 550.4L257.0 550.4L255.3 545.0L243.1 545.0L241.3 550.3Q240.8 552.0 239.9 552.8Q239.1 553.5 237.7 553.5ZM249.0 525.7L244.6 539.6L253.6 539.6L249.1 525.7L249.0 525.7ZM281.5 553.1L272.1 553.1Q270.4 553.1 269.5 552.1Q268.6 551.1 268.6 549.4L268.6 549.4L268.6 522.9Q268.6 521.2 269.5 520.2Q270.4 519.2 272.1 519.2L272.1 519.2L281.5 519.2Q289.1 519.2 293.4 523.6Q297.6 528.0 297.6 536.0L297.6 536.0Q297.6 544.1 293.3 548.6Q289.1 553.1 281.5 553.1L281.5 553.1ZM275.6 525.1L275.6 547.2L280.6 547.2Q285.4 547.2 287.9 544.4Q290.4 541.5 290.4 536.0L290.4 536.0Q290.4 530.8 287.8 527.9Q285.3 525.1 280.6 525.1L280.6 525.1L275.6 525.1Z M333.2 553.1L314.5 553.1Q312.9 553.1 312.0 552.2Q311.2 551.4 311.2 550.0L311.2 550.0Q311.2 549.1 311.6 548.3Q312.0 547.5 313.1 546.5L313.1 546.5L323.2 536.9Q326.3 533.8 327.4 532.2Q328.4 530.6 328.4 528.8L328.4 528.8Q328.4 526.7 327.0 525.3Q325.5 524 323.3 524L323.3 524Q319.3 524 317.4 528.1L317.4 528.1Q316.8 529.2 316.1 529.7Q315.4 530.1 314.3 530.1L314.3 530.1Q312.9 530.1 312.1 529.4Q311.3 528.6 311.3 527.3L311.3 527.3Q311.3 526.5 311.5 525.7L311.5 525.7Q312.5 522.7 315.6 520.6Q318.8 518.5 323.3 518.5L323.3 518.5Q328.7 518.5 332.0 521.2Q335.3 524.0 335.3 528.3L335.3 528.3Q335.3 529.9 335.0 531.2Q334.6 532.5 333.6 533.9Q332.6 535.3 331.3 536.8Q330.0 538.2 327.8 540.3L327.8 540.3L320.5 547.3L320.5 547.4L333.2 547.4Q334.6 547.4 335.4 548.2Q336.1 549.0 336.1 550.3L336.1 550.3Q336.1 551.5 335.4 552.3Q334.6 553.1 333.2 553.1L333.2 553.1ZM363.6 549.0Q359.9 553.8 353.5 553.8Q347.1 553.8 343.4 549.1Q339.7 544.3 339.7 536.1L339.7 536.1Q339.7 527.9 343.4 523.2Q347.1 518.5 353.5 518.5Q359.9 518.5 363.6 523.2Q367.3 527.9 367.3 536.1L367.3 536.1Q367.3 544.3 363.6 549.0ZM348.6 545.0Q350.4 548.1 353.5 548.1Q356.7 548.1 358.4 545.0Q360.1 541.9 360.1 536.1L360.1 536.1Q360.1 530.4 358.4 527.2Q356.7 524.1 353.5 524.1L353.5 524.1Q350.4 524.1 348.7 527.3Q346.9 530.4 346.9 536.1L346.9 536.1Q346.9 541.9 348.6 545.0ZM393.6 553.1L374.9 553.1Q373.3 553.1 372.4 552.2Q371.6 551.4 371.6 550.0L371.6 550.0Q371.6 549.1 372.0 548.3Q372.5 547.5 373.5 546.5L373.5 546.5L383.6 536.9Q386.8 533.8 387.8 532.2Q388.9 530.6 388.9 528.8L388.9 528.8Q388.9 526.7 387.4 525.3Q386.0 524 383.7 524L383.7 524Q379.7 524 377.9 528.1L377.9 528.1Q377.3 529.2 376.5 529.7Q375.8 530.1 374.7 530.1L374.7 530.1Q373.3 530.1 372.5 529.4Q371.7 528.6 371.7 527.3L371.7 527.3Q371.7 526.5 372.0 525.7L372.0 525.7Q372.9 522.7 376.0 520.6Q379.2 518.5 383.8 518.5L383.8 518.5Q389.1 518.5 392.4 521.2Q395.8 524.0 395.8 528.3L395.8 528.3Q395.8 529.9 395.4 531.2Q395 532.5 394.0 533.9Q393.1 535.3 391.7 536.8Q390.4 538.2 388.2 540.3L388.2 540.3L380.9 547.3L380.9 547.4L393.6 547.4Q395 547.4 395.8 548.2Q396.6 549.0 396.6 550.3L396.6 550.3Q396.6 551.5 395.8 552.3Q395 553.1 393.6 553.1L393.6 553.1ZM413.6 553.8L413.6 553.8Q409.6 553.8 406.3 552.1Q403.1 550.4 401.8 547.7L401.8 547.7Q401.3 546.5 401.3 545.4L401.3 545.4Q401.3 544.0 402.0 543.3Q402.8 542.5 404.2 542.5L404.2 542.5Q405.3 542.5 406.0 542.9Q406.7 543.3 407.3 544.3L407.3 544.3Q409.3 548.2 413.6 548.2L413.6 548.2Q416.3 548.2 418.1 546.4Q419.9 544.6 419.9 541.9L419.9 541.9Q419.9 539.2 418.1 537.5Q416.4 535.8 413.6 535.8L413.6 535.8Q410.8 535.8 408.7 537.8L408.7 537.8Q407.6 538.8 406.9 539.1Q406.2 539.4 405.0 539.4L405.0 539.4Q403.4 539.4 402.5 538.4Q401.6 537.4 401.7 535.9L401.7 535.9Q401.7 535.8 401.7 535.6L401.7 535.6L402.7 523.3Q402.9 521.1 404.0 520.2Q405.1 519.2 407.2 519.2L407.2 519.2L422 519.2Q423.3 519.2 424.1 520.0Q424.9 520.8 424.9 522.1Q424.9 523.3 424.1 524.1Q423.3 524.9 422 524.9L422 524.9L408.6 524.9L407.8 534.3L408.0 534.3Q409.0 532.6 411.0 531.7Q413.0 530.7 415.6 530.7L415.6 530.7Q420.4 530.7 423.5 533.8Q426.6 536.9 426.6 541.7L426.6 541.7Q426.6 547.1 423.0 550.5Q419.4 553.8 413.6 553.8Z "/><mask id="satori_om-id-0-1-1"><rect x="1013" y="524" width="147" height="36" fill="#fff"/></mask><path fill="#8e8e8e" d="M1016.9 552.6Q1016.5 552.9 1016.0 552.9Q1015.4 552.9 1015.1 552.6Q1014.8 552.2 1014.8 551.7L1014.8 551.7L1014.8 532.6Q1014.8 532.0 1015.1 531.6Q1015.5 531.3 1016.1 531.3Q1016.6 531.3 1017.0 531.6Q1017.3 532.0 1017.3 532.6L1017.3 532.6L1017.3 540.0L1017.4 540.0Q1018.1 538.7 1019.4 537.9Q1020.7 537.2 1022.3 537.2L1022.3 537.2Q1025.2 537.2 1026.9 539.3Q1028.7 541.5 1028.7 545.0L1028.7 545.0Q1028.7 548.6 1026.9 550.8Q1025.2 552.9 1022.2 552.9L1022.2 552.9Q1020.6 552.9 1019.3 552.2Q1018.0 551.4 1017.3 550.1L1017.3 550.1L1017.2 550.1L1017.2 551.7Q1017.2 552.2 1016.9 552.6ZM1021.7 550.7L1021.7 550.7Q1023.8 550.7 1024.9 549.2Q1026.1 547.7 1026.1 545.0L1026.1 545.0Q1026.1 542.5 1024.9 540.9Q1023.8 539.4 1021.7 539.4L1021.7 539.4Q1019.8 539.4 1018.6 541.0Q1017.3 542.5 1017.3 545.0L1017.3 545.0Q1017.3 547.6 1018.6 549.1Q1019.8 550.7 1021.7 550.7ZM1032.8 558.4L1032.8 558.4Q1031.9 558.4 1031.4 558.0Q1030.9 557.7 1030.9 557.1L1030.9 557.1Q1030.9 556.7 1031.1 556.4Q1031.4 556.2 1031.9 556.2L1031.9 556.2Q1032.1 556.2 1032.3 556.2Q1032.5 556.2 1032.7 556.2L1032.7 556.2Q1034.4 556.2 1035.2 553.7L1035.2 553.7L1035.6 552.7L1030.3 539.0Q1030.2 538.6 1030.2 538.3L1030.2 538.3Q1030.2 537.8 1030.6 537.5Q1030.9 537.2 1031.5 537.2L1031.5 537.2Q1032.4 537.2 1032.7 538.1L1032.7 538.1L1036.9 550.1L1037.0 550.1L1041.2 538.1Q1041.3 537.6 1041.6 537.4Q1041.9 537.2 1042.4 537.2L1042.4 537.2Q1042.9 537.2 1043.3 537.5Q1043.6 537.8 1043.6 538.3L1043.6 538.3Q1043.6 538.6 1043.5 539.0L1043.5 539.0L1037.9 553.7Q1036.9 556.4 1035.8 557.4Q1034.7 558.4 1032.8 558.4Z M1066.9 550.9Q1064.7 553.0 1060.8 553.0Q1056.9 553.0 1054.7 550.9Q1052.4 548.7 1052.4 545.3L1052.4 545.3L1052.4 532.7Q1052.4 532.1 1052.8 531.7Q1053.1 531.3 1053.7 531.3Q1054.3 531.3 1054.7 531.7Q1055.0 532.1 1055.0 532.7L1055.0 532.7L1055.0 545.1Q1055.0 547.5 1056.6 549.1Q1058.1 550.6 1060.8 550.6Q1063.5 550.6 1065.0 549.1Q1066.6 547.5 1066.6 545.1L1066.6 545.1L1066.6 532.7Q1066.6 532.1 1066.9 531.7Q1067.3 531.3 1067.9 531.3Q1068.5 531.3 1068.8 531.7Q1069.2 532.1 1069.2 532.7L1069.2 532.7L1069.2 545.3Q1069.2 548.7 1066.9 550.9ZM1075.6 552.6Q1075.2 552.9 1074.6 552.9Q1074.0 552.9 1073.7 552.6Q1073.3 552.2 1073.3 551.6L1073.3 551.6L1073.3 532.9Q1073.3 532.3 1073.7 531.9Q1074.0 531.5 1074.6 531.5L1074.6 531.5L1081.2 531.5Q1084.3 531.5 1086.1 533.2Q1088.0 535.0 1088.0 537.8L1088.0 537.8Q1088.0 540.0 1086.8 541.6Q1085.7 543.3 1083.7 543.9L1083.7 543.9L1087.6 550.8Q1087.9 551.3 1087.9 551.7L1087.9 551.7Q1087.9 552.2 1087.5 552.6Q1087.1 552.9 1086.5 552.9L1086.5 552.9Q1086.1 552.9 1085.8 552.7Q1085.5 552.5 1085.2 552.1L1085.2 552.1L1081.0 544.3L1075.9 544.3L1075.9 551.6Q1075.9 552.2 1075.6 552.6ZM1075.9 533.9L1075.9 542.0L1081.0 542.0Q1083.0 542.0 1084.1 540.9Q1085.2 539.9 1085.2 537.9L1085.2 537.9Q1085.2 536.0 1084.1 534.9Q1082.9 533.9 1080.9 533.9L1080.9 533.9L1075.9 533.9ZM1099.4 545.3L1091.9 545.3Q1091.3 545.3 1091.0 545.0Q1090.6 544.6 1090.6 544.1Q1090.6 543.6 1091.0 543.2Q1091.3 542.9 1091.9 542.9L1091.9 542.9L1099.4 542.9Q1100.0 542.9 1100.3 543.2Q1100.7 543.6 1100.7 544.1Q1100.7 544.6 1100.3 545.0Q1100.0 545.3 1099.4 545.3L1099.4 545.3ZM1106.4 552.6Q1106.0 552.9 1105.4 552.9Q1104.8 552.9 1104.5 552.6Q1104.1 552.2 1104.1 551.6L1104.1 551.6L1104.1 532.9Q1104.1 532.3 1104.5 531.9Q1104.8 531.5 1105.4 531.5L1105.4 531.5L1112.1 531.5Q1115.1 531.5 1117.0 533.2Q1118.8 535.0 1118.8 537.8L1118.8 537.8Q1118.8 540.0 1117.7 541.6Q1116.5 543.3 1114.5 543.9L1114.5 543.9L1118.4 550.8Q1118.7 551.3 1118.7 551.7L1118.7 551.7Q1118.7 552.2 1118.3 552.6Q1117.9 552.9 1117.3 552.9L1117.3 552.9Q1116.9 552.9 1116.6 552.7Q1116.3 552.5 1116.1 552.1L1116.1 552.1L1111.8 544.3L1106.8 544.3L1106.8 551.6Q1106.8 552.2 1106.4 552.6ZM1106.8 533.9L1106.8 542.0L1111.8 542.0Q1113.9 542.0 1115.0 540.9Q1116.1 539.9 1116.1 537.9L1116.1 537.9Q1116.1 536.0 1114.9 534.9Q1113.8 533.9 1111.7 533.9L1111.7 533.9L1106.8 533.9ZM1122.2 552.9L1122.2 552.9Q1121.6 552.9 1121.2 552.5Q1120.9 552.2 1120.9 551.7L1120.9 551.7Q1120.9 551.4 1121.0 551.0L1121.0 551.0L1127.8 532.6Q1128.3 531.3 1129.5 531.3L1129.5 531.3Q1130.7 531.3 1131.2 532.6L1131.2 532.6L1138.0 551.0Q1138.2 551.4 1138.2 551.7L1138.2 551.7Q1138.2 552.2 1137.8 552.5Q1137.4 552.9 1136.9 552.9L1136.9 552.9Q1135.9 552.9 1135.6 551.9L1135.6 551.9L1133.7 546.6L1125.3 546.6L1123.5 551.9Q1123.1 552.9 1122.2 552.9ZM1129.5 534.7L1126.1 544.4L1132.9 544.4L1129.6 534.7L1129.5 534.7ZM1148.1 552.7L1142.3 552.7Q1141.7 552.7 1141.4 552.3Q1141.0 551.9 1141.0 551.3L1141.0 551.3L1141.0 532.9Q1141.0 532.3 1141.4 531.9Q1141.7 531.5 1142.3 531.5L1142.3 531.5L1148.1 531.5Q1152.8 531.5 1155.5 534.3Q1158.1 537.1 1158.1 542.1L1158.1 542.1Q1158.1 547.1 1155.5 549.9Q1152.8 552.7 1148.1 552.7L1148.1 552.7ZM1143.7 533.9L1143.7 550.3L1148.0 550.3Q1151.5 550.3 1153.5 548.2Q1155.4 546.1 1155.4 542.1L1155.4 542.1Q1155.4 538.1 1153.5 536.0Q1151.6 533.9 1148.0 533.9L1148.0 533.9L1143.7 533.9Z "/></svg>