<svg width="1200" height="630" viewBox="0 0 1200 630" xmlns="http://www.w3.org/2000/svg"><mask id="satori_om-id"><rect x="0" y="0" width="1200" height="630" fill="#fff"/></mask><mask id="satori_om-id-0"><rect x="0" y="0" width="1200" height="630" fill="#fff"/></mask><rect x="0" y="0" width="1200" height="630" fill="#f2f2f2"/><mask id="satori_om-id-0-0"><rect x="0" y="0" width="1200" height="441" fill="#fff"/></mask><mask id="satori_om-id-0-0-0"><rect x="40" y="95" width="1120" height="36" fill="#fff"/></mask><path fill="#8e8e8e" d="M50.0 123.4Q49.6 123.9 48.8 123.9Q48.1 123.9 47.6 123.4Q47.2 123.0 47.2 122.2L47.2 122.2L47.2 105.4L42.0 105.4Q41.3 105.4 40.9 105.0Q40.5 104.6 40.5 103.9Q40.5 103.3 40.9 102.9Q41.3 102.5 42.0 102.5L42.0 102.5L55.6 102.5Q56.3 102.5 56.8 102.9Q57.2 103.3 57.2 103.9Q57.2 104.6 56.8 105.0Q56.3 105.4 55.6 105.4L55.6 105.4L50.5 105.4L50.5 122.2Q50.5 123.0 50.0 123.4ZM62.1 123.5Q61.6 123.9 60.9 123.9Q60.2 123.9 59.8 123.5Q59.3 123.0 59.3 122.3L59.3 122.3L59.3 103.9Q59.3 103.1 59.8 102.7Q60.2 102.2 60.9 102.2L60.9 102.2Q61.6 102.2 62.1 102.7Q62.5 103.1 62.5 103.9L62.5 103.9L62.5 110.8L62.5 110.8Q63.2 109.5 64.4 108.7Q65.7 108.0 67.4 108.0L67.4 108.0Q69.9 108.0 71.4 109.5Q72.8 111.1 72.8 113.7L72.8 113.7L72.8 122.3Q72.8 123.0 72.4 123.5Q71.9 123.9 71.2 123.9L71.2 123.9Q70.5 123.9 70.1 123.5Q69.6 123.0 69.6 122.3L69.6 122.3L69.6 114.3Q69.6 112.6 68.8 111.7Q67.9 110.7 66.3 110.7L66.3 110.7Q64.5 110.7 63.5 111.8Q62.5 112.9 62.5 114.8L62.5 114.8L62.5 122.3Q62.5 123.0 62.1 123.5ZM81.2 123.9L81.2 123.9Q78.7 123.9 77.2 122.4Q75.8 120.9 75.8 118.2L75.8 118.2L75.8 109.7Q75.8 108.9 76.2 108.4Q76.7 108.0 77.4 108.0L77.4 108.0Q78.1 108.0 78.5 108.4Q79.0 108.9 79.0 109.7L79.0 109.7L79.0 117.6Q79.0 119.4 79.8 120.3Q80.6 121.2 82.3 121.2L82.3 121.2Q84.0 121.2 84.9 120.1Q85.9 119.0 85.9 117.2L85.9 117.2L85.9 109.7Q85.9 108.9 86.4 108.4Q86.8 108.0 87.5 108.0L87.5 108.0Q88.2 108.0 88.7 108.4Q89.1 108.9 89.1 109.7L89.1 109.7L89.1 122.3Q89.1 123.1 88.7 123.5Q88.3 123.9 87.6 123.9Q86.9 123.9 86.5 123.5Q86.1 123.1 86.1 122.3L86.1 122.3L86.1 121.1L86.0 121.1Q84.6 123.9 81.2 123.9ZM93.8 123.9L93.8 123.9Q93.1 123.9 92.6 123.5Q92.2 123.0 92.2 122.3L92.2 122.3L92.2 109.6Q92.2 108.9 92.6 108.4Q93.0 108.0 93.7 108.0L93.7 108.0Q94.4 108.0 94.8 108.4Q95.2 108.9 95.2 109.6L95.2 109.6L95.2 110.9L95.3 110.9Q95.6 109.6 96.6 108.8Q97.5 108.0 98.7 108.0L98.7 108.0Q99.5 108.0 99.9 108.4L99.9 108.4Q100.3 108.7 100.3 109.5L100.3 109.5Q100.3 110.2 99.9 110.6L99.9 110.6Q99.4 111.0 98.4 111.0L98.4 111.0Q96.9 111.0 96.1 112.0Q95.4 112.9 95.4 114.4L95.4 114.4L95.4 122.3Q95.4 123.0 94.9 123.5Q94.5 123.9 93.8 123.9ZM107.7 124.0L107.7 124.0Q105.5 124.0 103.9 123.1Q102.3 122.3 101.7 120.8L101.7 120.8Q101.6 120.5 101.6 120.2L101.6 120.2Q101.6 119.6 102.0 119.2Q102.4 118.9 103.0 118.9L103.0 118.9Q103.8 118.9 104.4 119.7L104.4 119.7Q105.0 120.7 105.8 121.1Q106.5 121.5 107.9 121.5L107.9 121.5Q109.3 121.5 110.1 121.0Q110.9 120.4 110.9 119.5L110.9 119.5Q110.9 118.7 110.4 118.3Q109.9 117.8 108.7 117.5L108.7 117.5L106.2 117.0Q101.8 115.9 101.8 112.6L101.8 112.6Q101.8 110.5 103.4 109.2Q105.1 108.0 107.9 108.0L107.9 108.0Q109.9 108.0 111.5 108.9Q113.0 109.8 113.4 111.2L113.4 111.2Q113.4 111.6 113.4 111.7L113.4 111.7Q113.4 112.2 113.1 112.5Q112.8 112.9 112.2 112.9L112.2 112.9Q111.3 112.9 110.9 112.2L110.9 112.2Q110.4 111.3 109.6 110.8Q108.9 110.4 107.7 110.4L107.7 110.4Q106.5 110.4 105.7 111.0Q104.9 111.5 104.9 112.4L104.9 112.4Q104.9 113.9 107.2 114.5L107.2 114.5L109.6 115.0Q112.1 115.6 113.1 116.5Q114.1 117.5 114.1 119.2L114.1 119.2Q114.1 121.3 112.3 122.6Q110.6 124.0 107.7 124.0ZM122.3 123.9L122.3 123.9Q119.4 123.9 117.6 121.8Q115.9 119.6 115.9 116.0Q115.9 112.3 117.6 110.2Q119.4 108.0 122.3 108.0L122.3 108.0Q123.9 108.0 125.2 108.8Q126.5 109.5 127.1 110.8L127.1 110.8L127.2 110.8L127.2 103.9Q127.2 103.1 127.6 102.7Q128.1 102.2 128.8 102.2L128.8 102.2Q129.5 102.2 129.9 102.7Q130.4 103.2 130.4 103.9L130.4 103.9L130.4 122.4Q130.4 123.1 129.9 123.5Q129.5 123.9 128.8 123.9L128.8 123.9Q128.1 123.9 127.7 123.5Q127.2 123.1 127.2 122.4L127.2 122.4L127.2 120.9L127.2 120.9Q126.5 122.3 125.3 123.1Q124.1 123.9 122.3 123.9ZM123.2 121.2L123.2 121.2Q125.0 121.2 126.1 119.8Q127.2 118.4 127.2 116.0L127.2 116.0Q127.2 113.6 126.1 112.1Q125.0 110.7 123.2 110.7L123.2 110.7Q121.3 110.7 120.2 112.1Q119.1 113.5 119.1 116.0L119.1 116.0Q119.1 118.4 120.2 119.8Q121.3 121.2 123.2 121.2ZM138.1 123.9L138.1 123.9Q135.9 123.9 134.4 122.6Q133.0 121.3 133.0 119.3L133.0 119.3Q133.0 117.3 134.5 116.1Q136.0 114.9 138.7 114.7L138.7 114.7L142.9 114.5L142.9 113.3Q142.9 112.0 142.1 111.3Q141.3 110.6 139.9 110.6L139.9 110.6Q138.7 110.6 137.9 111.0Q137.1 111.5 136.4 112.5L136.4 112.5Q136.0 113.2 135.2 113.2L135.2 113.2Q134.6 113.2 134.2 112.8Q133.8 112.4 133.8 111.9L133.8 111.9Q133.8 111.3 134.1 110.8L134.1 110.8Q134.7 109.5 136.3 108.8Q137.9 108.0 140.0 108.0L140.0 108.0Q142.8 108.0 144.4 109.4Q146.1 110.7 146.1 113.0L146.1 113.0L146.1 122.3Q146.1 123.1 145.7 123.5Q145.2 123.9 144.6 123.9L144.6 123.9Q143.9 123.9 143.5 123.5Q143.1 123.1 143.1 122.4L143.1 122.4L143.1 121.1L143.0 121.1Q142.3 122.4 141.0 123.2Q139.7 123.9 138.1 123.9ZM139.0 121.4L139.0 121.4Q140.7 121.4 141.8 120.4Q142.9 119.4 142.9 117.9L142.9 117.9L142.9 116.7L139.1 116.9Q137.7 117.0 137.0 117.6Q136.2 118.2 136.2 119.2L136.2 119.2Q136.2 120.2 137.0 120.8Q137.7 121.4 139.0 121.4ZM151.1 129.4L151.1 129.4Q150.0 129.4 149.4 129.0Q148.8 128.6 148.8 127.9L148.8 127.9Q148.8 127.4 149.1 127.1Q149.5 126.8 150.0 126.8L150.0 126.8Q150.2 126.8 150.4 126.8Q150.7 126.8 150.8 126.8L150.8 126.8Q152.4 126.8 153.2 124.7L153.2 124.7L153.5 123.8L148.3 110.3Q148.1 109.9 148.1 109.4L148.1 109.4Q148.1 108.8 148.6 108.4Q149.1 108.0 149.8 108.0L149.8 108.0Q150.4 108.0 150.7 108.3Q151.1 108.5 151.3 109.2L151.3 109.2L155.2 120.8L155.3 120.8L159.2 109.2Q159.4 108.5 159.7 108.3Q160.1 108.0 160.7 108.0L160.7 108.0Q161.4 108.0 161.8 108.4Q162.2 108.8 162.2 109.4L162.2 109.4Q162.2 109.8 162.1 110.3L162.1 110.3L156.7 124.4Q155.7 127.2 154.5 128.3Q153.2 129.4 151.1 129.4ZM166.7 120.1L166.7 120.1Q167.4 120.1 167.8 120.5Q168.2 120.8 168.2 121.4L168.2 121.4Q168.2 121.8 168.1 122.3L168.1 122.3L166.8 127.3Q166.5 128.4 165.4 128.4L165.4 128.4Q164.9 128.4 164.5 128.1Q164.2 127.7 164.2 127.2L164.2 127.2Q164.2 127.1 164.3 126.8L164.3 126.8L165.2 121.4Q165.4 120.1 166.7 120.1Z M191.6 123.7L179.9 123.7Q179.1 123.7 178.7 123.3Q178.3 122.9 178.3 122.3L178.3 122.3Q178.3 121.8 178.5 121.5Q178.7 121.1 179.2 120.6L179.2 120.6L185.8 113.9Q187.9 111.8 188.6 110.7Q189.3 109.6 189.3 108.3L189.3 108.3Q189.3 106.8 188.2 105.8Q187.2 104.8 185.6 104.8L185.6 104.8Q182.5 104.8 181.3 108.0L181.3 108.0Q181.1 108.5 180.8 108.8Q180.4 109.0 179.9 109.0L179.9 109.0Q179.2 109.0 178.8 108.6Q178.4 108.3 178.4 107.6L178.4 107.6Q178.4 107.3 178.5 107.0L178.5 107.0Q178.7 106.1 179.2 105.3Q179.8 104.4 180.6 103.7Q181.5 103.0 182.8 102.6Q184.1 102.1 185.6 102.1L185.6 102.1Q188.6 102.1 190.6 103.8Q192.5 105.5 192.5 108.1L192.5 108.1Q192.5 109.9 191.5 111.5Q190.5 113.0 187.8 115.8L187.8 115.8L182.8 120.8L182.8 120.9L191.6 120.9Q192.2 120.9 192.6 121.3Q193.0 121.7 193.0 122.3L193.0 122.3Q193.0 122.9 192.6 123.3Q192.2 123.7 191.6 123.7L191.6 123.7ZM203.7 124.1L203.7 124.1Q201.3 124.1 199.4 122.9Q197.6 121.6 196.5 119.3L196.5 119.3Q195.4 116.9 195.4 113.4L195.4 113.4Q195.4 108.1 197.6 105.1Q199.9 102.1 203.8 102.1L203.8 102.1Q206.0 102.1 207.8 103.0Q209.5 103.9 210.4 105.5L210.4 105.5Q210.7 106.1 210.7 106.7L210.7 106.7Q210.7 107.3 210.3 107.7Q209.9 108.1 209.3 108.1L209.3 108.1Q208.8 108.1 208.4 107.8Q208.1 107.6 207.7 107.0L207.7 107.0Q206.2 104.9 203.8 104.9L203.8 104.9Q201.3 104.9 200.0 107.0Q198.6 109.1 198.6 113.0L198.6 113.0L198.6 113.2L198.6 113.2Q199.3 111.7 200.8 110.7Q202.4 109.8 204.5 109.8L204.5 109.8Q207.5 109.8 209.5 111.8Q211.4 113.7 211.4 116.8L211.4 116.8Q211.4 119.9 209.2 122.0Q207.1 124.1 203.7 124.1ZM203.7 121.3L203.7 121.3Q205.6 121.3 206.9 120.0Q208.2 118.7 208.2 116.9L208.2 116.9Q208.2 114.9 206.9 113.7Q205.7 112.5 203.7 112.5Q201.8 112.5 200.5 113.7Q199.2 114.9 199.2 116.8L199.2 116.8Q199.2 118.7 200.5 120.0Q201.8 121.3 203.7 121.3Z M237.0 121.1Q234.3 124.0 229.7 124.0Q225.2 124.0 222.5 121.1Q219.8 118.1 219.8 113.1Q219.8 108.1 222.5 105.1Q225.2 102.2 229.7 102.2L229.7 102.2Q234.3 102.2 237.0 105.1Q239.6 108.1 239.6 113.1Q239.6 118.1 237.0 121.1ZM229.7 121.1L229.7 121.1Q232.7 121.1 234.5 119.0Q236.3 116.8 236.3 113.1L236.3 113.1Q236.3 109.4 234.5 107.2Q232.7 105.1 229.7 105.1L229.7 105.1Q226.7 105.1 224.9 107.2Q223.2 109.4 223.2 113.1L223.2 113.1Q223.2 116.8 224.9 119.0Q226.7 121.1 229.7 121.1ZM249.0 124.0L249.0 124.0Q245.6 124.0 243.7 121.8Q241.7 119.7 241.7 116.0L241.7 116.0Q241.7 112.3 243.7 110.2Q245.6 108.0 248.9 108.0L248.9 108.0Q251.1 108.0 252.9 109.0Q254.6 110.1 255.1 111.7L255.1 111.7Q255.3 112.1 255.3 112.4L255.3 112.4Q255.3 113.0 254.9 113.4Q254.5 113.7 253.9 113.7L253.9 113.7Q253.4 113.7 253.1 113.5Q252.8 113.3 252.5 112.8L252.5 112.8Q251.9 111.7 251.0 111.1Q250.2 110.6 249.0 110.6L249.0 110.6Q247.1 110.6 246.0 112.1Q244.9 113.5 244.9 116.0L244.9 116.0Q244.9 118.4 246.0 119.9Q247.1 121.3 249.0 121.3L249.0 121.3Q251.3 121.3 252.5 119.2L252.5 119.2Q252.8 118.6 253.1 118.4Q253.4 118.2 254.0 118.2L254.0 118.2Q254.5 118.2 254.9 118.6Q255.3 118.9 255.3 119.5L255.3 119.5Q255.3 119.9 255.1 120.3L255.1 120.3Q254.5 121.9 252.8 122.9Q251.1 124.0 249.0 124.0ZM258.8 120.0L258.8 120.0L258.8 110.8L257.7 110.8Q257.1 110.8 256.7 110.4Q256.4 110.1 256.4 109.5Q256.4 108.9 256.7 108.6Q257.1 108.3 257.7 108.3L257.7 108.3L258.8 108.3L258.8 106.0Q258.8 105.2 259.2 104.7Q259.7 104.3 260.4 104.3Q261.1 104.3 261.5 104.7Q262.0 105.2 262.0 106.0L262.0 106.0L262.0 108.3L263.8 108.3Q264.4 108.3 264.7 108.6Q265.1 108.9 265.1 109.5Q265.1 110.1 264.7 110.4Q264.4 110.8 263.8 110.8L263.8 110.8L262.0 110.8L262.0 119.3Q262.0 120.2 262.3 120.6Q262.7 121.1 263.5 121.1L263.5 121.1L263.8 121.2Q265.1 121.3 265.1 122.4L265.1 122.4Q265.1 123.8 262.9 123.8L262.9 123.8L262.7 123.8Q258.8 123.8 258.8 120.0ZM279.4 121.8Q277.4 124.0 274.1 124.0Q270.8 124.0 268.8 121.8Q266.8 119.7 266.8 116.0L266.8 116.0Q266.8 112.3 268.8 110.1Q270.8 108.0 274.1 108.0Q277.4 108.0 279.4 110.1Q281.4 112.3 281.4 116.0L281.4 116.0Q281.4 119.7 279.4 121.8ZM274.1 121.3L274.1 121.3Q276.0 121.3 277.1 119.9Q278.2 118.5 278.2 116.0L278.2 116.0Q278.2 113.4 277.1 112.0Q276.0 110.6 274.1 110.6Q272.2 110.6 271.1 112.0Q270.0 113.4 270.0 116.0L270.0 116.0Q270.0 118.5 271.1 119.9Q272.2 121.3 274.1 121.3ZM285.5 123.9L285.5 123.9Q284.8 123.9 284.4 123.5Q284.0 123.1 284.0 122.4L284.0 122.4L284.0 103.9Q284.0 103.2 284.4 102.7Q284.9 102.2 285.6 102.2Q286.3 102.2 286.7 102.7Q287.1 103.2 287.1 103.9L287.1 103.9L287.1 110.9L287.2 110.9Q287.9 109.5 289.2 108.8Q290.5 108.0 292.1 108.0L292.1 108.0Q295.0 108.0 296.8 110.2Q298.5 112.3 298.5 116.0L298.5 116.0Q298.5 119.6 296.8 121.8Q295.0 123.9 292.1 123.9L292.1 123.9Q290.4 123.9 289.1 123.2Q287.8 122.4 287.1 121.0L287.1 121.0L287.1 121.0L287.1 122.4Q287.1 123.1 286.6 123.5Q286.2 123.9 285.5 123.9ZM291.2 121.2L291.2 121.2Q293.1 121.2 294.2 119.8Q295.3 118.4 295.3 116.0L295.3 116.0Q295.3 113.5 294.2 112.1Q293.1 110.7 291.2 110.7L291.2 110.7Q289.4 110.7 288.3 112.1Q287.1 113.6 287.1 116.0L287.1 116.0Q287.1 118.3 288.3 119.8Q289.4 121.2 291.2 121.2ZM307.6 124.0L307.6 124.0Q304.2 124.0 302.2 121.9Q300.3 119.8 300.3 116.0L300.3 116.0Q300.3 112.4 302.2 110.2Q304.2 108.0 307.4 108.0L307.4 108.0Q310.5 108.0 312.4 110.0Q314.4 112.0 314.4 115.1L314.4 115.1Q314.4 115.9 313.9 116.3Q313.5 116.8 312.8 116.8L312.8 116.8L303.5 116.8L303.5 116.8Q303.5 118.9 304.6 120.2Q305.7 121.4 307.6 121.4L307.6 121.4Q308.9 121.4 309.8 120.9Q310.7 120.4 311.6 119.2L311.6 119.2Q312.0 118.6 312.7 118.6L312.7 118.6Q313.3 118.6 313.6 119.0Q314.0 119.3 314.0 119.9L314.0 119.9Q314.0 120.3 313.8 120.8L313.8 120.8Q313.0 122.3 311.4 123.1Q309.8 124.0 307.6 124.0ZM303.5 114.5L303.5 114.5L311.2 114.5Q311.1 112.7 310.1 111.6Q309.1 110.5 307.4 110.5L307.4 110.5Q305.8 110.5 304.7 111.6Q303.6 112.7 303.5 114.5ZM318.4 123.9L318.4 123.9Q317.7 123.9 317.2 123.5Q316.8 123.0 316.8 122.3L316.8 122.3L316.8 109.6Q316.8 108.9 317.2 108.4Q317.6 108.0 318.3 108.0L318.3 108.0Q319.0 108.0 319.4 108.4Q319.8 108.9 319.8 109.6L319.8 109.6L319.8 110.9L319.9 110.9Q320.2 109.6 321.1 108.8Q322.1 108.0 323.3 108.0L323.3 108.0Q324.1 108.0 324.5 108.4L324.5 108.4Q324.9 108.7 324.9 109.5L324.9 109.5Q324.9 110.2 324.5 110.6L324.5 110.6Q324.0 111.0 323.0 111.0L323.0 111.0Q321.5 111.0 320.7 112.0Q320.0 112.9 320.0 114.4L320.0 114.4L320.0 122.3Q320.0 123.0 319.5 123.5Q319.1 123.9 318.4 123.9Z M346.0 123.7L334.3 123.7Q333.6 123.7 333.1 123.3Q332.7 122.9 332.7 122.3L332.7 122.3Q332.7 121.8 332.9 121.5Q333.1 121.1 333.6 120.6L333.6 120.6L340.2 113.9Q342.3 111.8 343.0 110.7Q343.7 109.6 343.7 108.3L343.7 108.3Q343.7 106.8 342.6 105.8Q341.6 104.8 340 104.8L340 104.8Q336.9 104.8 335.8 108.0L335.8 108.0Q335.5 108.5 335.2 108.8Q334.8 109.0 334.3 109.0L334.3 109.0Q333.6 109.0 333.2 108.6Q332.8 108.3 332.8 107.6L332.8 107.6Q332.8 107.3 332.9 107.0L332.9 107.0Q333.1 106.1 333.6 105.3Q334.2 104.4 335.0 103.7Q335.9 103.0 337.2 102.6Q338.5 102.1 340.0 102.1L340.0 102.1Q343.0 102.1 345.0 103.8Q346.9 105.5 346.9 108.1L346.9 108.1Q346.9 109.9 345.9 111.5Q345.0 113.0 342.2 115.8L342.2 115.8L337.2 120.8L337.2 120.9L346.0 120.9Q346.6 120.9 347.0 121.3Q347.4 121.7 347.4 122.3L347.4 122.3Q347.4 122.9 347.0 123.3Q346.6 123.7 346.0 123.7L346.0 123.7ZM363.8 121.1Q361.7 124.1 357.9 124.1Q354.1 124.1 352.0 121.1Q349.8 118.2 349.8 113.1L349.8 113.1Q349.8 108.0 352.0 105.1Q354.1 102.1 357.9 102.1L357.9 102.1Q361.7 102.1 363.8 105.1Q366.0 108.0 366.0 113.1L366.0 113.1Q366.0 118.1 363.8 121.1ZM357.9 121.3L357.9 121.3Q360.2 121.3 361.4 119.1Q362.7 116.9 362.7 113.1L362.7 113.1Q362.7 109.3 361.4 107.1Q360.2 104.9 357.9 104.9Q355.6 104.9 354.4 107.1Q353.1 109.3 353.1 113.1L353.1 113.1Q353.1 116.9 354.4 119.1Q355.6 121.3 357.9 121.3ZM382.1 123.7L370.4 123.7Q369.6 123.7 369.2 123.3Q368.8 122.9 368.8 122.3L368.8 122.3Q368.8 121.8 369.0 121.5Q369.2 121.1 369.7 120.6L369.7 120.6L376.3 113.9Q378.4 111.8 379.1 110.7Q379.8 109.6 379.8 108.3L379.8 108.3Q379.8 106.8 378.7 105.8Q377.7 104.8 376.1 104.8L376.1 104.8Q373.0 104.8 371.8 108.0L371.8 108.0Q371.6 108.5 371.3 108.8Q370.9 109.0 370.4 109.0L370.4 109.0Q369.7 109.0 369.3 108.6Q368.9 108.3 368.9 107.6L368.9 107.6Q368.9 107.3 369.0 107.0L369.0 107.0Q369.2 106.1 369.7 105.3Q370.3 104.4 371.1 103.7Q372.0 103.0 373.3 102.6Q374.6 102.1 376.1 102.1L376.1 102.1Q379.1 102.1 381.1 103.8Q383.0 105.5 383.0 108.1L383.0 108.1Q383.0 109.9 382.0 111.5Q381.0 113.0 378.3 115.8L378.3 115.8L373.3 120.8L373.3 120.9L382.1 120.9Q382.7 120.9 383.1 121.3Q383.5 121.7 383.5 122.3L383.5 122.3Q383.5 122.9 383.1 123.3Q382.7 123.7 382.1 123.7L382.1 123.7ZM393.6 124.1L393.6 124.1Q391.1 124.1 389.3 123.1Q387.5 122.2 386.6 120.6L386.6 120.6Q386.2 119.8 386.2 119.0L386.2 119.0Q386.2 118.3 386.6 117.9Q387.0 117.5 387.7 117.5L387.7 117.5Q388.2 117.5 388.6 117.8Q388.9 118.1 389.1 118.6L389.1 118.6Q390.3 121.3 393.7 121.3L393.7 121.3Q395.6 121.3 396.8 120.3Q397.9 119.4 398.0 117.8L398.0 117.8Q398.0 116.0 396.8 115.0Q395.5 114.0 393.4 114.0L393.4 114.0L392.0 114.0Q391.4 114.0 391.0 113.7Q390.6 113.3 390.6 112.8Q390.6 112.2 391.0 111.8Q391.4 111.5 392.0 111.5L392.0 111.5L393.3 111.5Q395.1 111.5 396.3 110.5Q397.4 109.6 397.4 108.1L397.4 108.1Q397.4 106.6 396.4 105.7Q395.4 104.8 393.6 104.8L393.6 104.8Q392.0 104.8 391.1 105.5Q390.1 106.1 389.5 107.5L389.5 107.5Q389.3 108.1 389.0 108.4Q388.6 108.6 388.1 108.6L388.1 108.6Q387.4 108.6 387.0 108.3Q386.6 107.9 386.6 107.2L386.6 107.2Q386.6 106.4 387.0 105.6L387.0 105.6Q387.9 104.0 389.6 103.1Q391.3 102.1 393.6 102.1L393.6 102.1Q396.8 102.1 398.7 103.7Q400.6 105.2 400.6 107.6L400.6 107.6Q400.6 109.6 399.3 110.9Q398.1 112.2 396.1 112.6L396.1 112.6L396.1 112.7Q398.5 112.9 399.9 114.3Q401.3 115.6 401.3 117.8L401.3 117.8Q401.3 120.6 399.1 122.3Q397.0 124.1 393.6 124.1Z "/><mask id="satori_om-id-0-0-1"><rect x="40" y="176" width="1120" height="165" fill="#fff"/></mask><path fill="#224d67" d="M58.6 239.3L58.6 239.3Q52.5 239.3 48.3 237.0Q44.2 234.7 42.9 231.0L42.9 231.0Q42.5 229.9 42.5 228.8L42.5 228.8Q42.5 227.2 43.4 226.3Q44.3 225.3 45.8 225.3L45.8 225.3Q47.1 225.3 47.9 225.9Q48.8 226.4 49.4 227.7L49.4 227.7Q50.3 230.4 52.8 231.7Q55.3 233.0 58.8 233.0L58.8 233.0Q62.6 233.0 65.1 231.3Q67.5 229.6 67.5 227.0L67.5 227.0Q67.5 224.7 65.7 223.2Q64.0 221.8 59.9 220.9L59.9 220.9L55.4 220.0Q42.9 217.4 42.9 208.1L42.9 208.1Q42.9 202.5 47.3 199.1Q51.7 195.6 58.6 195.6L58.6 195.6Q64.3 195.6 68.3 198.0Q72.3 200.4 73.6 204.5L73.6 204.5Q73.9 205.2 73.9 206.3L73.9 206.3Q73.9 207.6 73.0 208.5Q72.1 209.4 70.6 209.4L70.6 209.4Q68.2 209.4 67.0 207.0L67.0 207.0Q64.9 201.9 58.6 201.9L58.6 201.9Q55.0 201.9 52.8 203.4Q50.5 205.0 50.5 207.6L50.5 207.6Q50.5 209.8 52.3 211.2Q54.0 212.7 57.9 213.5L57.9 213.5L62.5 214.4Q69.1 215.8 72.1 218.6Q75.1 221.4 75.1 226.1L75.1 226.1Q75.1 232.2 70.7 235.7Q66.2 239.3 58.6 239.3ZM90.9 239.1L90.9 239.1Q85.8 239.1 82.9 236.0Q79.9 233.0 79.9 227.6L79.9 227.6L79.9 210.7Q79.9 209.0 80.9 207.9Q81.9 206.9 83.5 206.9Q85.2 206.9 86.2 207.9Q87.2 209.0 87.2 210.8L87.2 210.8L87.2 226.1Q87.2 229.5 88.8 231.2Q90.4 233.0 93.5 233.0L93.5 233.0Q96.6 233.0 98.4 230.9Q100.3 228.9 100.3 225.5L100.3 225.5L100.3 210.7Q100.3 209.0 101.3 207.9Q102.3 206.9 104.0 206.9L104.0 206.9Q105.6 206.9 106.6 207.9Q107.6 209.0 107.6 210.8L107.6 210.8L107.6 235.5Q107.6 237.2 106.6 238.2Q105.7 239.2 104.1 239.2L104.1 239.2Q102.5 239.2 101.5 238.2Q100.6 237.2 100.6 235.5L100.6 235.5L100.6 233.2L100.4 233.2Q97.8 239.1 90.9 239.1ZM119.8 248.6Q118.8 249.6 117.2 249.6Q115.5 249.6 114.5 248.6Q113.5 247.6 113.5 245.8L113.5 245.8L113.5 210.7Q113.5 208.9 114.5 207.9Q115.5 206.9 117.1 206.9L117.1 206.9Q118.7 206.9 119.7 207.9Q120.7 208.9 120.7 210.7L120.7 210.7L120.7 212.9L120.8 212.9Q122.1 210.1 124.7 208.6Q127.2 207.0 130.6 207.0L130.6 207.0Q136.5 207.0 140.0 211.3Q143.5 215.6 143.5 223.1L143.5 223.1Q143.5 230.5 140.0 234.8Q136.6 239.1 130.7 239.1L130.7 239.1Q127.4 239.1 124.8 237.6Q122.3 236.1 121.0 233.4L121.0 233.4L120.8 233.4L120.8 245.8Q120.8 247.6 119.8 248.6ZM128.4 233.1L128.4 233.1Q131.9 233.1 134.0 230.4Q136.0 227.7 136.0 223.1L136.0 223.1Q136.0 218.5 133.9 215.7Q131.9 213.0 128.4 213.0L128.4 213.0Q125.0 213.0 122.9 215.8Q120.8 218.5 120.8 223.1L120.8 223.1Q120.8 227.6 122.9 230.4Q125.0 233.1 128.4 233.1ZM154.4 248.6Q153.4 249.6 151.8 249.6Q150.2 249.6 149.2 248.6Q148.2 247.6 148.2 245.8L148.2 245.8L148.2 210.7Q148.2 208.9 149.1 207.9Q150.1 206.9 151.7 206.9L151.7 206.9Q153.3 206.9 154.3 207.9Q155.3 208.9 155.3 210.7L155.3 210.7L155.3 212.9L155.4 212.9Q156.8 210.1 159.3 208.6Q161.9 207.0 165.2 207.0L165.2 207.0Q171.1 207.0 174.6 211.3Q178.1 215.6 178.1 223.1L178.1 223.1Q178.1 230.5 174.6 234.8Q171.2 239.1 165.3 239.1L165.3 239.1Q162.0 239.1 159.4 237.6Q156.9 236.1 155.6 233.4L155.6 233.4L155.5 233.4L155.5 245.8Q155.5 247.6 154.4 248.6ZM163.0 233.1L163.0 233.1Q166.5 233.1 168.6 230.4Q170.6 227.7 170.6 223.1L170.6 223.1Q170.6 218.5 168.6 215.7Q166.5 213.0 163.0 213.0L163.0 213.0Q159.6 213.0 157.5 215.8Q155.4 218.5 155.4 223.1L155.4 223.1Q155.4 227.6 157.5 230.4Q159.6 233.1 163.0 233.1ZM207.5 234.9Q203.4 239.2 196.5 239.2Q189.6 239.2 185.6 234.9Q181.5 230.6 181.5 223.1L181.5 223.1Q181.5 215.6 185.6 211.2Q189.7 206.9 196.5 206.9L196.5 206.9Q203.4 206.9 207.5 211.2Q211.6 215.6 211.6 223.1L211.6 223.1Q211.6 230.6 207.5 234.9ZM191.0 230.7Q193.0 233.4 196.5 233.4Q200.0 233.4 202.1 230.7Q204.2 228.0 204.2 223.1L204.2 223.1Q204.2 218.2 202.1 215.4Q200.0 212.7 196.5 212.7L196.5 212.7Q193.0 212.7 191.0 215.4Q188.9 218.2 188.9 223.1L188.9 223.1Q188.9 228.0 191.0 230.7ZM222.5 238.1Q221.6 239.2 219.9 239.2Q218.2 239.2 217.2 238.1Q216.3 237.1 216.3 235.3L216.3 235.3L216.3 210.6Q216.3 208.9 217.2 207.9Q218.2 206.9 219.7 206.9L219.7 206.9Q221.3 206.9 222.2 207.9Q223.2 208.9 223.2 210.6L223.2 210.6L223.2 213.0L223.3 213.0Q224.0 210.3 225.8 208.6Q227.6 207.0 230.0 207.0L230.0 207.0Q231.7 207.0 232.6 207.8L232.6 207.8Q233.6 208.6 233.6 210.4L233.6 210.4Q233.6 212.1 232.5 213.0L232.5 213.0Q231.5 213.9 229.3 214.0L229.3 214.0Q223.5 214.0 223.5 220.4L223.5 220.4L223.5 235.3Q223.5 237.1 222.5 238.1ZM238.9 230.9L238.9 230.9L238.9 213.1L236.9 213.1Q235.6 213.1 234.8 212.4Q234.0 211.6 234.0 210.3L234.0 210.3Q234.0 209.0 234.8 208.3Q235.6 207.5 236.9 207.5L236.9 207.5L238.9 207.5L238.9 203.4Q238.9 201.6 239.9 200.6Q240.9 199.6 242.6 199.6L242.6 199.6Q244.2 199.6 245.2 200.6Q246.2 201.6 246.2 203.4L246.2 203.4L246.2 207.5L249.6 207.5Q250.9 207.5 251.7 208.3Q252.5 209.0 252.5 210.3L252.5 210.3Q252.5 211.6 251.7 212.4Q250.9 213.1 249.6 213.1L249.6 213.1L246.2 213.1L246.2 229.3Q246.2 231.1 246.9 231.9Q247.5 232.7 249.1 232.9L249.1 232.9L249.6 232.9Q252.6 233.2 252.6 235.6L252.6 235.6Q252.6 237.2 251.2 238.1Q249.9 238.9 247.4 238.9L247.4 238.9L247.1 238.9Q238.9 238.9 238.9 230.9ZM263.7 202.0Q262.5 203.2 260.8 203.2Q259.1 203.2 257.9 202.0Q256.8 200.8 256.8 199.2L256.8 199.2Q256.8 197.5 257.9 196.4Q259.1 195.2 260.8 195.2L260.8 195.2Q262.5 195.2 263.7 196.4Q264.9 197.5 264.9 199.2L264.9 199.2Q264.9 200.8 263.7 202.0ZM263.5 238.1Q262.5 239.2 260.8 239.2Q259.1 239.2 258.2 238.1Q257.2 237.1 257.2 235.3L257.2 235.3L257.2 210.7Q257.2 209.0 258.2 207.9Q259.1 206.9 260.8 206.9Q262.5 206.9 263.5 207.9Q264.5 209.0 264.5 210.8L264.5 210.8L264.5 235.3Q264.5 237.1 263.5 238.1ZM276.9 238.2Q275.9 239.2 274.2 239.2Q272.6 239.2 271.6 238.2Q270.6 237.1 270.6 235.3L270.6 235.3L270.6 210.6Q270.6 208.9 271.5 207.9Q272.5 206.9 274.1 206.9Q275.7 206.9 276.7 207.9Q277.7 208.9 277.7 210.6L277.7 210.6L277.7 212.8L277.8 212.8Q280.5 206.9 287.5 206.9L287.5 206.9Q292.6 206.9 295.4 210.0Q298.3 213.1 298.3 218.5L298.3 218.5L298.3 235.3Q298.3 237.1 297.3 238.2Q296.3 239.2 294.6 239.2Q293.0 239.2 292.0 238.2Q291.0 237.1 291.0 235.3L291.0 235.3L291.0 220.0Q291.0 216.6 289.4 214.9Q287.8 213.1 284.7 213.1L284.7 213.1Q281.6 213.1 279.8 215.2Q277.9 217.2 277.9 220.6L277.9 220.6L277.9 235.3Q277.9 237.1 276.9 238.2ZM317.5 250.3L317.5 250.3Q313.1 250.2 309.8 248.7Q306.5 247.2 304.9 244.6L304.9 244.6Q304.3 243.6 304.3 242.4L304.3 242.4Q304.3 241.2 305.1 240.4Q305.9 239.6 307.3 239.6L307.3 239.6Q308.7 239.6 310.0 240.8L310.0 240.8Q311.8 242.7 313.6 243.6Q315.4 244.4 317.5 244.5L317.5 244.5Q321.2 244.5 323.3 242.6Q325.4 240.7 325.4 237.6L325.4 237.6L325.4 232.7L325.3 232.7Q324.1 235.2 321.5 236.7Q318.8 238.3 315.6 238.3L315.6 238.3Q309.7 238.3 306.3 234.0Q302.8 229.8 302.8 222.7L302.8 222.7Q302.8 215.4 306.3 211.2Q309.7 207.0 315.7 207.0L315.7 207.0Q319.0 207.0 321.5 208.5Q324.0 210.1 325.4 212.8L325.4 212.8L325.5 212.8L325.5 210.6Q325.5 208.9 326.5 207.9Q327.5 206.9 329.1 206.9Q330.7 206.9 331.8 207.9Q332.8 208.9 332.8 210.6L332.8 210.6L332.8 237.6Q332.8 243.5 328.7 246.9Q324.6 250.3 317.5 250.3ZM317.8 232.6L317.8 232.6Q321.3 232.6 323.4 229.9Q325.5 227.3 325.5 222.7L325.5 222.7Q325.5 218.2 323.4 215.5Q321.3 212.8 317.8 212.8L317.8 212.8Q314.3 212.8 312.3 215.5Q310.3 218.2 310.3 222.7L310.3 222.7Q310.3 227.3 312.3 230.0Q314.3 232.6 317.8 232.6Z M353.3 239.1L353.3 239.1Q351.6 239.1 350.5 238.1Q349.5 237.2 349.5 235.6L349.5 235.6Q349.5 234.6 350.0 233.3L350.0 233.3L362.3 199.9Q363.0 197.8 364.4 196.8Q365.7 195.8 367.7 195.8L367.7 195.8Q369.8 195.8 371.2 196.8Q372.5 197.7 373.3 199.9L373.3 199.9L385.6 233.3Q386.1 234.7 386.1 235.6L386.1 235.6Q386.1 237.1 385.0 238.1Q383.9 239.1 382.3 239.1L382.3 239.1Q380.8 239.1 379.8 238.3Q378.9 237.6 378.4 235.9L378.4 235.9L375.7 227.8L359.9 227.8L357.1 235.8Q356.6 237.6 355.7 238.3Q354.8 239.1 353.3 239.1ZM367.6 203.8L361.7 221.8L373.8 221.8L367.8 203.8L367.6 203.8ZM395.3 239.1L395.3 239.1Q393.6 239.1 392.6 238.0Q391.6 237.0 391.6 235.2L391.6 235.2L391.6 199.7Q391.6 197.9 392.6 196.8Q393.6 195.8 395.3 195.8L395.3 195.8Q397.1 195.8 398.1 196.8Q399.1 197.9 399.1 199.7L399.1 199.7L399.1 235.2Q399.1 237.0 398.1 238.1Q397.1 239.1 395.3 239.1Z M422.4 239.1L422.4 239.1Q420.6 239.1 419.6 238.0Q418.6 237.0 418.6 235.2L418.6 235.2L418.6 200.2Q418.6 198.4 419.6 197.3Q420.6 196.3 422.4 196.3L422.4 196.3L435.0 196.3Q441.3 196.3 445.3 200.2Q449.2 204.1 449.2 210.5L449.2 210.5Q449.2 216.8 445.2 220.7Q441.1 224.6 434.7 224.6L434.7 224.6L426.1 224.6L426.1 235.2Q426.1 237.0 425.1 238.1Q424.1 239.1 422.4 239.1ZM426.1 202.5L426.1 218.5L433.0 218.5Q437.1 218.5 439.3 216.4Q441.6 214.3 441.6 210.5L441.6 210.5Q441.6 206.6 439.3 204.6Q437.1 202.5 433.0 202.5L433.0 202.5L426.1 202.5ZM460.5 238.2Q459.5 239.2 457.9 239.2Q456.3 239.2 455.2 238.2Q454.2 237.1 454.2 235.3L454.2 235.3L454.2 199.6Q454.2 197.7 455.2 196.7Q456.3 195.7 457.9 195.7Q459.5 195.7 460.5 196.7Q461.5 197.7 461.5 199.6L461.5 199.6L461.5 235.3Q461.5 237.1 460.5 238.2ZM476.8 239.1L476.8 239.1Q472.3 239.1 469.4 236.5Q466.5 233.9 466.5 229.7L466.5 229.7Q466.5 225.6 469.5 223.2Q472.6 220.8 478.3 220.4L478.3 220.4L486.5 219.9L486.5 217.7Q486.5 215.3 485.0 213.9Q483.4 212.6 480.7 212.6L480.7 212.6Q478.5 212.6 477.1 213.4Q475.6 214.2 474.2 216.2L474.2 216.2Q473.1 217.7 471.3 217.7L471.3 217.7Q469.9 217.7 469.0 216.9Q468.2 216.1 468.2 214.8L468.2 214.8Q468.2 213.8 468.7 212.8L468.7 212.8Q469.8 210.1 473.2 208.5Q476.6 206.9 481.0 206.9L481.0 206.9Q486.8 206.9 490.2 209.7Q493.7 212.5 493.7 217.2L493.7 217.2L493.7 235.5Q493.7 237.2 492.7 238.2Q491.8 239.2 490.2 239.2L490.2 239.2Q488.7 239.2 487.7 238.3Q486.8 237.4 486.7 235.8L486.7 235.8L486.7 233.6L486.5 233.6Q485.2 236.1 482.6 237.6Q479.9 239.1 476.8 239.1ZM479.1 233.6L479.1 233.6Q482.2 233.6 484.3 231.7Q486.5 229.8 486.5 227.1L486.5 227.1L486.5 224.7L479.3 225.1Q476.7 225.3 475.2 226.4Q473.8 227.6 473.8 229.4L473.8 229.4Q473.8 231.3 475.2 232.4Q476.7 233.6 479.1 233.6ZM505.9 238.2Q504.9 239.2 503.2 239.2Q501.6 239.2 500.6 238.2Q499.6 237.1 499.6 235.3L499.6 235.3L499.6 210.6Q499.6 208.9 500.5 207.9Q501.5 206.9 503.1 206.9Q504.7 206.9 505.7 207.9Q506.7 208.9 506.7 210.6L506.7 210.6L506.7 212.8L506.8 212.8Q509.5 206.9 516.5 206.9L516.5 206.9Q521.6 206.9 524.4 210.0Q527.2 213.1 527.2 218.5L527.2 218.5L527.2 235.3Q527.2 237.1 526.2 238.2Q525.2 239.2 523.6 239.2Q522.0 239.2 521.0 238.2Q519.9 237.1 519.9 235.3L519.9 235.3L519.9 220.0Q519.9 216.6 518.4 214.9Q516.8 213.1 513.7 213.1L513.7 213.1Q510.6 213.1 508.7 215.2Q506.9 217.2 506.9 220.6L506.9 220.6L506.9 235.3Q506.9 237.1 505.9 238.2ZM539.4 238.2Q538.3 239.2 536.7 239.2Q535.1 239.2 534.1 238.2Q533.1 237.1 533.1 235.3L533.1 235.3L533.1 210.6Q533.1 208.9 534.0 207.9Q534.9 206.9 536.6 206.9Q538.2 206.9 539.2 207.9Q540.2 208.9 540.2 210.6L540.2 210.6L540.2 212.8L540.3 212.8Q542.9 206.9 550.0 206.9L550.0 206.9Q555.1 206.9 557.9 210.0Q560.7 213.1 560.7 218.5L560.7 218.5L560.7 235.3Q560.7 237.1 559.7 238.2Q558.7 239.2 557.1 239.2Q555.4 239.2 554.4 238.2Q553.4 237.1 553.4 235.3L553.4 235.3L553.4 220.0Q553.4 216.6 551.9 214.9Q550.3 213.1 547.2 213.1L547.2 213.1Q544.1 213.1 542.2 215.2Q540.4 217.2 540.4 220.6L540.4 220.6L540.4 235.3Q540.4 237.1 539.4 238.2ZM573.2 202.0Q572.1 203.2 570.4 203.2Q568.7 203.2 567.5 202.0Q566.3 200.8 566.3 199.2L566.3 199.2Q566.3 197.5 567.5 196.4Q568.7 195.2 570.4 195.2L570.4 195.2Q572.1 195.2 573.3 196.4Q574.4 197.5 574.4 199.2L574.4 199.2Q574.4 200.8 573.2 202.0ZM573.0 238.1Q572.0 239.2 570.4 239.2Q568.7 239.2 567.7 238.1Q566.7 237.1 566.7 235.3L566.7 235.3L566.7 210.7Q566.7 209.0 567.7 207.9Q568.7 206.9 570.4 206.9Q572.0 206.9 573.0 207.9Q574.0 209.0 574.0 210.8L574.0 210.8L574.0 235.3Q574.0 237.1 573.0 238.1ZM586.4 238.2Q585.4 239.2 583.8 239.2Q582.1 239.2 581.1 238.2Q580.1 237.1 580.1 235.3L580.1 235.3L580.1 210.6Q580.1 208.9 581.1 207.9Q582.0 206.9 583.6 206.9Q585.2 206.9 586.2 207.9Q587.2 208.9 587.2 210.6L587.2 210.6L587.2 212.8L587.4 212.8Q590.0 206.9 597.1 206.9L597.1 206.9Q602.1 206.9 605.0 210.0Q607.8 213.1 607.8 218.5L607.8 218.5L607.8 235.3Q607.8 237.1 606.8 238.2Q605.8 239.2 604.2 239.2Q602.5 239.2 601.5 238.2Q600.5 237.1 600.5 235.3L600.5 235.3L600.5 220.0Q600.5 216.6 598.9 214.9Q597.4 213.1 594.3 213.1L594.3 213.1Q591.2 213.1 589.3 215.2Q587.4 217.2 587.4 220.6L587.4 220.6L587.4 235.3Q587.4 237.1 586.4 238.2ZM627.0 250.3L627.0 250.3Q622.7 250.2 619.3 248.7Q616.0 247.2 614.4 244.6L614.4 244.6Q613.8 243.6 613.8 242.4L613.8 242.4Q613.8 241.2 614.6 240.4Q615.5 239.6 616.9 239.6L616.9 239.6Q618.3 239.6 619.5 240.8L619.5 240.8Q621.4 242.7 623.2 243.6Q624.9 244.4 627.1 244.5L627.1 244.5Q630.7 244.5 632.9 242.6Q635.0 240.7 635.0 237.6L635.0 237.6L635.0 232.7L634.8 232.7Q633.6 235.2 631.0 236.7Q628.4 238.3 625.1 238.3L625.1 238.3Q619.3 238.3 615.8 234.0Q612.3 229.8 612.3 222.7L612.3 222.7Q612.3 215.4 615.8 211.2Q619.3 207.0 625.3 207.0L625.3 207.0Q628.5 207.0 631.0 208.5Q633.5 210.1 634.9 212.8L634.9 212.8L635.0 212.8L635.0 210.6Q635.0 208.9 636.0 207.9Q637.1 206.9 638.7 206.9Q640.3 206.9 641.3 207.9Q642.3 208.9 642.3 210.6L642.3 210.6L642.3 237.6Q642.3 243.5 638.2 246.9Q634.2 250.3 627.0 250.3ZM627.3 232.6L627.3 232.6Q630.9 232.6 633.0 229.9Q635.0 227.3 635.0 222.7L635.0 222.7Q635.0 218.2 632.9 215.5Q630.8 212.8 627.3 212.8L627.3 212.8Q623.9 212.8 621.9 215.5Q619.8 218.2 619.8 222.7L619.8 222.7Q619.8 227.3 621.9 230.0Q623.9 232.6 627.3 232.6Z M669.4 239.1L669.4 239.1Q664.8 239.1 661.9 236.5Q659.0 233.9 659.0 229.7L659.0 229.7Q659.0 225.6 662.1 223.2Q665.1 220.8 670.8 220.4L670.8 220.4L679.1 219.9L679.1 217.7Q679.1 215.3 677.5 213.9Q676.0 212.6 673.3 212.6L673.3 212.6Q671.1 212.6 669.6 213.4Q668.1 214.2 666.7 216.2L666.7 216.2Q665.6 217.7 663.8 217.7L663.8 217.7Q662.4 217.7 661.6 216.9Q660.7 216.1 660.7 214.8L660.7 214.8Q660.7 213.8 661.2 212.8L661.2 212.8Q662.4 210.1 665.7 208.5Q669.1 206.9 673.5 206.9L673.5 206.9Q679.3 206.9 682.8 209.7Q686.3 212.5 686.3 217.2L686.3 217.2L686.3 235.5Q686.3 237.2 685.3 238.2Q684.3 239.2 682.7 239.2L682.7 239.2Q681.2 239.2 680.3 238.3Q679.3 237.4 679.2 235.8L679.2 235.8L679.2 233.6L679.1 233.6Q677.8 236.1 675.1 237.6Q672.4 239.1 669.4 239.1ZM671.6 233.6L671.6 233.6Q674.7 233.6 676.9 231.7Q679.1 229.8 679.1 227.1L679.1 227.1L679.1 224.7L671.8 225.1Q669.2 225.3 667.8 226.4Q666.3 227.6 666.3 229.4L666.3 229.4Q666.3 231.3 667.8 232.4Q669.2 233.6 671.6 233.6ZM698.4 238.2Q697.4 239.2 695.8 239.2Q694.1 239.2 693.1 238.2Q692.1 237.1 692.1 235.3L692.1 235.3L692.1 210.6Q692.1 208.9 693.1 207.9Q694.0 206.9 695.6 206.9Q697.2 206.9 698.2 207.9Q699.2 208.9 699.2 210.6L699.2 210.6L699.2 212.8L699.4 212.8Q702.0 206.9 709.0 206.9L709.0 206.9Q714.1 206.9 716.9 210.0Q719.8 213.1 719.8 218.5L719.8 218.5L719.8 235.3Q719.8 237.1 718.8 238.2Q717.8 239.2 716.1 239.2Q714.5 239.2 713.5 238.2Q712.5 237.1 712.5 235.3L712.5 235.3L712.5 220.0Q712.5 216.6 710.9 214.9Q709.3 213.1 706.3 213.1L706.3 213.1Q703.1 213.1 701.3 215.2Q699.4 217.2 699.4 220.6L699.4 220.6L699.4 235.3Q699.4 237.1 698.4 238.2ZM737.2 239.1L737.2 239.1Q731.3 239.1 727.8 234.7Q724.3 230.4 724.3 223.0L724.3 223.0Q724.3 215.7 727.8 211.3Q731.3 207.0 737.2 207.0L737.2 207.0Q740.5 207.0 743.0 208.5Q745.6 210.1 746.8 212.7L746.8 212.7L747.0 212.7L747.0 199.6Q747.0 197.7 748.0 196.7Q749.0 195.7 750.6 195.7Q752.3 195.7 753.3 196.7Q754.3 197.7 754.3 199.6L754.3 199.6L754.3 235.5Q754.3 237.2 753.3 238.2Q752.3 239.2 750.7 239.2L750.7 239.2Q749.0 239.2 748.0 238.2Q747.0 237.2 747.0 235.5L747.0 235.5L747.0 233.1L746.8 233.1Q745.7 235.9 743.2 237.5Q740.7 239.1 737.2 239.1ZM739.4 233.1L739.4 233.1Q742.9 233.1 744.9 230.4Q747.0 227.7 747.0 223.1L747.0 223.1Q747.0 218.5 744.9 215.7Q742.9 213.0 739.4 213.0L739.4 213.0Q735.9 213.0 733.8 215.7Q731.8 218.4 731.8 223.1L731.8 223.1Q731.8 227.7 733.8 230.4Q735.9 233.1 739.4 233.1Z M791.5 239.3L791.5 239.3Q782.3 239.3 777.0 233.4Q771.7 227.6 771.7 217.4L771.7 217.4Q771.7 207.3 777.0 201.5Q782.3 195.6 791.3 195.6L791.3 195.6Q797.2 195.6 801.6 198.2Q806.0 200.8 808.1 205.4L808.1 205.4Q808.8 206.9 808.8 208.3L808.8 208.3Q808.8 209.8 807.9 210.7Q807.0 211.6 805.5 211.6L805.5 211.6Q802.9 211.6 801.8 208.9L801.8 208.9Q800.3 205.6 797.6 203.8Q794.9 202.0 791.4 202.0L791.4 202.0Q785.9 202.0 782.7 206.2Q779.5 210.4 779.5 217.4L779.5 217.4Q779.5 224.5 782.7 228.7Q785.9 232.9 791.4 232.9L791.4 232.9Q799.1 232.9 801.9 226.3L801.9 226.3Q802.5 225.0 803.3 224.4Q804.0 223.9 805.3 223.9L805.3 223.9Q806.8 223.9 807.8 224.8Q808.8 225.7 808.8 227.2L808.8 227.2Q808.8 228.6 808.1 230.1L808.1 230.1Q806.0 234.4 801.7 236.8Q797.4 239.3 791.5 239.3ZM839.3 234.9Q835.2 239.2 828.3 239.2Q821.4 239.2 817.4 234.9Q813.3 230.6 813.3 223.1L813.3 223.1Q813.3 215.6 817.4 211.2Q821.5 206.9 828.3 206.9L828.3 206.9Q835.2 206.9 839.3 211.2Q843.3 215.6 843.3 223.1L843.3 223.1Q843.3 230.6 839.3 234.9ZM822.8 230.7Q824.8 233.4 828.3 233.4Q831.8 233.4 833.9 230.7Q835.9 228.0 835.9 223.1L835.9 223.1Q835.9 218.2 833.9 215.4Q831.8 212.7 828.3 212.7L828.3 212.7Q824.8 212.7 822.8 215.4Q820.7 218.2 820.7 223.1L820.7 223.1Q820.7 228.0 822.8 230.7ZM854.5 238.2Q853.5 239.2 851.9 239.2Q850.3 239.2 849.3 238.2Q848.2 237.1 848.2 235.3L848.2 235.3L848.2 199.6Q848.2 197.7 849.3 196.7Q850.3 195.7 851.9 195.7Q853.5 195.7 854.5 196.7Q855.5 197.7 855.5 199.6L855.5 199.6L855.5 235.3Q855.5 237.1 854.5 238.2ZM868.3 238.2Q867.3 239.2 865.6 239.2Q864.0 239.2 863.0 238.2Q862.0 237.1 862.0 235.3L862.0 235.3L862.0 199.6Q862.0 197.7 863.0 196.7Q864.0 195.7 865.6 195.7Q867.3 195.7 868.3 196.7Q869.2 197.7 869.2 199.6L869.2 199.6L869.2 235.3Q869.2 237.1 868.3 238.2ZM884.6 239.1L884.6 239.1Q880.0 239.1 877.1 236.5Q874.2 233.9 874.2 229.7L874.2 229.7Q874.2 225.6 877.3 223.2Q880.3 220.8 886.0 220.4L886.0 220.4L894.2 219.9L894.2 217.7Q894.2 215.3 892.7 213.9Q891.2 212.6 888.4 212.6L888.4 212.6Q886.3 212.6 884.8 213.4Q883.3 214.2 881.9 216.2L881.9 216.2Q880.8 217.7 879.0 217.7L879.0 217.7Q877.6 217.7 876.8 216.9Q875.9 216.1 875.9 214.8L875.9 214.8Q875.9 213.8 876.4 212.8L876.4 212.8Q877.6 210.1 880.9 208.5Q884.3 206.9 888.7 206.9L888.7 206.9Q894.5 206.9 898.0 209.7Q901.4 212.5 901.4 217.2L901.4 217.2L901.4 235.5Q901.4 237.2 900.5 238.2Q899.5 239.2 897.9 239.2L897.9 239.2Q896.4 239.2 895.4 238.3Q894.5 237.4 894.4 235.8L894.4 235.8L894.4 233.6L894.3 233.6Q892.9 236.1 890.3 237.6Q887.6 239.1 884.6 239.1ZM886.8 233.6L886.8 233.6Q889.9 233.6 892.1 231.7Q894.2 229.8 894.2 227.1L894.2 227.1L894.2 224.7L887.0 225.1Q884.4 225.3 882.9 226.4Q881.5 227.6 881.5 229.4L881.5 229.4Q881.5 231.3 882.9 232.4Q884.4 233.6 886.8 233.6ZM913.7 238.2Q912.7 239.2 911.1 239.2Q909.4 239.2 908.5 238.2Q907.5 237.3 907.5 235.5L907.5 235.5L907.5 199.6Q907.5 197.7 908.5 196.7Q909.5 195.7 911.2 195.7Q912.8 195.7 913.8 196.7Q914.8 197.7 914.8 199.6L914.8 199.6L914.8 212.9L915.0 212.9Q916.3 210.1 918.9 208.5Q921.4 207.0 924.7 207.0L924.7 207.0Q930.6 207.0 934.1 211.3Q937.5 215.6 937.5 223.1L937.5 223.1Q937.5 230.5 934.1 234.8Q930.6 239.1 924.7 239.1L924.7 239.1Q921.3 239.1 918.8 237.6Q916.2 236.0 914.8 233.3L914.8 233.3L914.7 233.3L914.7 235.5Q914.7 237.2 913.7 238.2ZM922.5 233.1L922.5 233.1Q925.9 233.1 928.0 230.4Q930.0 227.7 930.0 223.1Q930.0 218.4 928.0 215.7Q925.9 213.0 922.5 213.0L922.5 213.0Q919.1 213.0 916.9 215.8Q914.8 218.5 914.8 223.1L914.8 223.1Q914.8 227.6 916.9 230.3Q919.1 233.1 922.5 233.1ZM966.9 234.9Q962.8 239.2 955.9 239.2Q949.1 239.2 945.0 234.9Q940.9 230.6 940.9 223.1L940.9 223.1Q940.9 215.6 945.0 211.2Q949.1 206.9 955.9 206.9L955.9 206.9Q962.8 206.9 966.9 211.2Q971.0 215.6 971.0 223.1L971.0 223.1Q971.0 230.6 966.9 234.9ZM950.4 230.7Q952.4 233.4 955.9 233.4Q959.5 233.4 961.5 230.7Q963.6 228.0 963.6 223.1L963.6 223.1Q963.6 218.2 961.5 215.4Q959.5 212.7 955.9 212.7L955.9 212.7Q952.5 212.7 950.4 215.4Q948.3 218.2 948.3 223.1L948.3 223.1Q948.3 228.0 950.4 230.7ZM982.0 238.1Q981.0 239.2 979.3 239.2Q977.6 239.2 976.6 238.1Q975.7 237.1 975.7 235.3L975.7 235.3L975.7 210.6Q975.7 208.9 976.6 207.9Q977.6 206.9 979.1 206.9L979.1 206.9Q980.7 206.9 981.6 207.9Q982.6 208.9 982.6 210.6L982.6 210.6L982.6 213.0L982.7 213.0Q983.4 210.3 985.2 208.6Q987.1 207.0 989.4 207.0L989.4 207.0Q991.1 207.0 992.0 207.8L992.0 207.8Q993.0 208.6 993.0 210.4L993.0 210.4Q993.0 212.1 991.9 213.0L991.9 213.0Q990.9 213.9 988.7 214.0L988.7 214.0Q982.9 214.0 982.9 220.4L982.9 220.4L982.9 235.3Q982.9 237.1 982.0 238.1ZM1005.4 239.1L1005.4 239.1Q1000.8 239.1 997.9 236.5Q995.0 233.9 995.0 229.7L995.0 229.7Q995.0 225.6 998.1 223.2Q1001.1 220.8 1006.8 220.4L1006.8 220.4L1015.1 219.9L1015.1 217.7Q1015.1 215.3 1013.5 213.9Q1012.0 212.6 1009.3 212.6L1009.3 212.6Q1007.1 212.6 1005.6 213.4Q1004.1 214.2 1002.8 216.2L1002.8 216.2Q1001.6 217.7 999.8 217.7L999.8 217.7Q998.4 217.7 997.6 216.9Q996.7 216.1 996.7 214.8L996.7 214.8Q996.7 213.8 997.2 212.8L997.2 212.8Q998.4 210.1 1001.7 208.5Q1005.1 206.9 1009.6 206.9L1009.6 206.9Q1015.3 206.9 1018.8 209.7Q1022.3 212.5 1022.3 217.2L1022.3 217.2L1022.3 235.5Q1022.3 237.2 1021.3 238.2Q1020.3 239.2 1018.7 239.2L1018.7 239.2Q1017.2 239.2 1016.3 238.3Q1015.3 237.4 1015.2 235.8L1015.2 235.8L1015.2 233.6L1015.1 233.6Q1013.8 236.1 1011.1 237.6Q1008.4 239.1 1005.4 239.1ZM1007.6 233.6L1007.6 233.6Q1010.7 233.6 1012.9 231.7Q1015.1 229.8 1015.1 227.1L1015.1 227.1L1015.1 224.7L1007.9 225.1Q1005.2 225.3 1003.8 226.4Q1002.3 227.6 1002.3 229.4L1002.3 229.4Q1002.3 231.3 1003.8 232.4Q1005.2 233.6 1007.6 233.6ZM1030.1 230.9L1030.1 230.9L1030.1 213.1L1028.2 213.1Q1026.8 213.1 1026.0 212.4Q1025.3 211.6 1025.3 210.3L1025.3 210.3Q1025.3 209.0 1026.0 208.3Q1026.8 207.5 1028.2 207.5L1028.2 207.5L1030.1 207.5L1030.1 203.4Q1030.1 201.6 1031.1 200.6Q1032.1 199.6 1033.8 199.6L1033.8 199.6Q1035.5 199.6 1036.5 200.6Q1037.4 201.6 1037.4 203.4L1037.4 203.4L1037.4 207.5L1040.8 207.5Q1042.2 207.5 1043.0 208.3Q1043.7 209.0 1043.7 210.3L1043.7 210.3Q1043.7 211.6 1042.9 212.4Q1042.2 213.1 1040.8 213.1L1040.8 213.1L1037.4 213.1L1037.4 229.3Q1037.4 231.1 1038.1 231.9Q1038.8 232.7 1040.4 232.9L1040.4 232.9L1040.9 232.9Q1043.8 233.2 1043.8 235.6L1043.8 235.6Q1043.8 237.2 1042.5 238.1Q1041.1 238.9 1038.6 238.9L1038.6 238.9L1038.3 238.9Q1030.1 238.9 1030.1 230.9ZM1054.9 202.0Q1053.8 203.2 1052.1 203.2Q1050.4 203.2 1049.2 202.0Q1048.0 200.8 1048.0 199.2L1048.0 199.2Q1048.0 197.5 1049.2 196.4Q1050.4 195.2 1052.1 195.2L1052.1 195.2Q1053.8 195.2 1055.0 196.4Q1056.1 197.5 1056.1 199.2L1056.1 199.2Q1056.1 200.8 1054.9 202.0ZM1054.7 238.1Q1053.7 239.2 1052.1 239.2Q1050.4 239.2 1049.4 238.1Q1048.4 237.1 1048.4 235.3L1048.4 235.3L1048.4 210.7Q1048.4 209.0 1049.4 207.9Q1050.4 206.9 1052.1 206.9Q1053.7 206.9 1054.7 207.9Q1055.7 209.0 1055.7 210.8L1055.7 210.8L1055.7 235.3Q1055.7 237.1 1054.7 238.1ZM1086.5 234.9Q1082.5 239.2 1075.6 239.2Q1068.7 239.2 1064.6 234.9Q1060.6 230.6 1060.6 223.1L1060.6 223.1Q1060.6 215.6 1064.7 211.2Q1068.8 206.9 1075.6 206.9L1075.6 206.9Q1082.4 206.9 1086.5 211.2Q1090.6 215.6 1090.6 223.1L1090.6 223.1Q1090.6 230.6 1086.5 234.9ZM1070.0 230.7Q1072.1 233.4 1075.6 233.4Q1079.1 233.4 1081.2 230.7Q1083.2 228.0 1083.2 223.1L1083.2 223.1Q1083.2 218.2 1081.2 215.4Q1079.1 212.7 1075.6 212.7L1075.6 212.7Q1072.1 212.7 1070.0 215.4Q1068.0 218.2 1068.0 223.1L1068.0 223.1Q1068.0 228.0 1070.0 230.7ZM1101.6 238.2Q1100.6 239.2 1098.9 239.2Q1097.3 239.2 1096.3 238.2Q1095.3 237.1 1095.3 235.3L1095.3 235.3L1095.3 210.6Q1095.3 208.9 1096.2 207.9Q1097.2 206.9 1098.8 206.9Q1100.4 206.9 1101.4 207.9Q1102.4 208.9 1102.4 210.6L1102.4 210.6L1102.4 212.8L1102.5 212.8Q1105.2 206.9 1112.2 206.9L1112.2 206.9Q1117.3 206.9 1120.1 210.0Q1123.0 213.1 1123.0 218.5L1123.0 218.5L1123.0 235.3Q1123.0 237.1 1122.0 238.2Q1121.0 239.2 1119.3 239.2Q1117.7 239.2 1116.7 238.2Q1115.7 237.1 1115.7 235.3L1115.7 235.3L1115.7 220.0Q1115.7 216.6 1114.1 214.9Q1112.5 213.1 1109.5 213.1L1109.5 213.1Q1106.3 213.1 1104.5 215.2Q1102.6 217.2 1102.6 220.6L1102.6 220.6L1102.6 235.3Q1102.6 237.1 1101.6 238.2Z M51.3 320.7Q50.3 321.7 48.7 321.7Q47.0 321.7 46.0 320.7Q45.0 319.7 45.0 317.9L45.0 317.9L45.0 295.6L43.1 295.6Q41.8 295.6 41.0 294.9Q40.3 294.2 40.3 292.9L40.3 292.9Q40.3 291.6 41.0 290.9Q41.8 290.1 43.1 290.1L43.1 290.1L45.0 290.1L45.0 287.4Q45.0 278.5 53.6 278.5L53.6 278.5Q56.4 278.5 57.8 279.3Q59.2 280.1 59.2 281.5L59.2 281.5Q59.2 283.2 57.5 283.6L57.5 283.6Q56.9 283.8 55.9 283.8L55.9 283.8Q53.9 283.9 53.1 284.8Q52.2 285.7 52.2 287.7L52.2 287.7L52.2 290.1L56.1 290.1Q57.3 290.1 58.1 290.9Q58.9 291.6 58.9 292.9L58.9 292.9Q58.9 294.2 58.1 294.9Q57.3 295.6 56.1 295.6L56.1 295.6L52.3 295.6L52.3 317.9Q52.3 319.7 51.3 320.7ZM87.9 317.4Q83.8 321.7 76.9 321.7Q70.1 321.7 66.0 317.4Q61.9 313.1 61.9 305.6L61.9 305.6Q61.9 298.1 66.0 293.7Q70.1 289.4 76.9 289.4L76.9 289.4Q83.8 289.4 87.9 293.7Q92.0 298.1 92.0 305.6L92.0 305.6Q92.0 313.1 87.9 317.4ZM71.4 313.2Q73.4 315.9 76.9 315.9Q80.5 315.9 82.5 313.2Q84.6 310.5 84.6 305.6L84.6 305.6Q84.6 300.7 82.5 297.9Q80.5 295.2 76.9 295.2L76.9 295.2Q73.5 295.2 71.4 297.9Q69.3 300.7 69.3 305.6L69.3 305.6Q69.3 310.5 71.4 313.2ZM103.0 320.6Q102.0 321.7 100.3 321.7Q98.6 321.7 97.6 320.6Q96.7 319.6 96.7 317.8L96.7 317.8L96.7 293.1Q96.7 291.4 97.6 290.4Q98.6 289.4 100.1 289.4L100.1 289.4Q101.7 289.4 102.6 290.4Q103.6 291.4 103.6 293.1L103.6 293.1L103.6 295.5L103.8 295.5Q104.4 292.8 106.2 291.1Q108.1 289.5 110.4 289.5L110.4 289.5Q112.1 289.5 113.0 290.3L113.0 290.3Q114.0 291.1 114.0 292.9L114.0 292.9Q114.0 294.6 112.9 295.5L112.9 295.5Q111.9 296.4 109.7 296.5L109.7 296.5Q104.0 296.5 104.0 302.9L104.0 302.9L104.0 317.8Q104.0 319.6 103.0 320.6Z M136.6 320.6Q135.6 321.7 133.8 321.7Q132.1 321.7 131.0 320.6Q130.0 319.6 130.0 317.7L130.0 317.7L130.0 282.7Q130.0 280.9 131.0 279.8Q132.1 278.8 133.8 278.8L133.8 278.8L146.8 278.8Q153.6 278.8 157.5 282.3Q161.4 285.9 161.4 292.0L161.4 292.0Q161.4 296.1 159.4 299.3Q157.4 302.5 153.7 303.9L153.7 303.9L160.4 315.6Q161.2 317.0 161.2 318.2L161.2 318.2Q161.2 319.7 160.1 320.7Q159.1 321.7 157.4 321.7L157.4 321.7Q156.1 321.7 155.3 321.1Q154.5 320.5 153.6 318.9L153.6 318.9L146.1 305.2L137.6 305.2L137.6 317.7Q137.6 319.6 136.6 320.6ZM137.6 284.9L137.6 299.4L146.1 299.4Q149.7 299.4 151.7 297.5Q153.7 295.6 153.7 292.1L153.7 292.1Q153.7 288.8 151.6 286.9Q149.5 284.9 146.0 284.9L146.0 284.9L137.6 284.9ZM191.5 317.4Q187.4 321.7 180.5 321.7Q173.7 321.7 169.6 317.4Q165.5 313.1 165.5 305.6L165.5 305.6Q165.5 298.1 169.6 293.7Q173.7 289.4 180.5 289.4L180.5 289.4Q187.4 289.4 191.5 293.7Q195.6 298.1 195.6 305.6L195.6 305.6Q195.6 313.1 191.5 317.4ZM175.0 313.2Q177.0 315.9 180.5 315.9Q184.1 315.9 186.1 313.2Q188.2 310.5 188.2 305.6L188.2 305.6Q188.2 300.7 186.1 297.9Q184.1 295.2 180.5 295.2L180.5 295.2Q177.1 295.2 175.0 297.9Q172.9 300.7 172.9 305.6L172.9 305.6Q172.9 310.5 175.0 313.2ZM206.6 320.7Q205.6 321.7 204.0 321.7Q202.4 321.7 201.4 320.7Q200.5 319.8 200.5 318.0L200.5 318.0L200.5 282.1Q200.5 280.2 201.5 279.2Q202.5 278.2 204.1 278.2Q205.8 278.2 206.8 279.2Q207.8 280.2 207.8 282.1L207.8 282.1L207.8 295.4L207.9 295.4Q209.3 292.6 211.8 291.0Q214.4 289.5 217.7 289.5L217.7 289.5Q223.5 289.5 227.0 293.8Q230.5 298.1 230.5 305.6L230.5 305.6Q230.5 313.0 227.0 317.3Q223.5 321.6 217.6 321.6L217.6 321.6Q214.3 321.6 211.7 320.1Q209.2 318.5 207.8 315.8L207.8 315.8L207.6 315.8L207.6 318.0Q207.6 319.7 206.6 320.7ZM215.4 315.6L215.4 315.6Q218.9 315.6 220.9 312.9Q223.0 310.2 223.0 305.6Q223.0 300.9 220.9 298.2Q218.9 295.5 215.4 295.5L215.4 295.5Q212.0 295.5 209.9 298.3Q207.7 301.0 207.7 305.6L207.7 305.6Q207.7 310.1 209.9 312.8Q212.0 315.6 215.4 315.6ZM259.8 317.4Q255.8 321.7 248.9 321.7Q242.0 321.7 237.9 317.4Q233.9 313.1 233.9 305.6L233.9 305.6Q233.9 298.1 238.0 293.7Q242.1 289.4 248.9 289.4L248.9 289.4Q255.7 289.4 259.8 293.7Q263.9 298.1 263.9 305.6L263.9 305.6Q263.9 313.1 259.8 317.4ZM243.3 313.2Q245.4 315.9 248.9 315.9Q252.4 315.9 254.5 313.2Q256.5 310.5 256.5 305.6L256.5 305.6Q256.5 300.7 254.5 297.9Q252.4 295.2 248.9 295.2L248.9 295.2Q245.4 295.2 243.3 297.9Q241.3 300.7 241.3 305.6L241.3 305.6Q241.3 310.5 243.3 313.2ZM270.6 313.4L270.6 313.4L270.6 295.6L268.7 295.6Q267.3 295.6 266.5 294.9Q265.7 294.1 265.7 292.8L265.7 292.8Q265.7 291.5 266.5 290.8Q267.3 290.0 268.7 290.0L268.7 290.0L270.6 290.0L270.6 285.9Q270.6 284.1 271.6 283.1Q272.6 282.1 274.3 282.1L274.3 282.1Q276.0 282.1 276.9 283.1Q277.9 284.1 277.9 285.9L277.9 285.9L277.9 290.0L281.3 290.0Q282.7 290.0 283.4 290.8Q284.2 291.5 284.2 292.8L284.2 292.8Q284.2 294.1 283.4 294.9Q282.6 295.6 281.3 295.6L281.3 295.6L277.9 295.6L277.9 311.8Q277.9 313.6 278.6 314.4Q279.3 315.2 280.8 315.4L280.8 315.4L281.4 315.4Q284.3 315.7 284.3 318.1L284.3 318.1Q284.3 319.7 283.0 320.6Q281.6 321.4 279.1 321.4L279.1 321.4L278.8 321.4Q270.6 321.4 270.6 313.4ZM295.4 284.5Q294.2 285.7 292.5 285.7Q290.8 285.7 289.7 284.5Q288.5 283.3 288.5 281.7L288.5 281.7Q288.5 280.0 289.7 278.9Q290.8 277.7 292.5 277.7L292.5 277.7Q294.3 277.7 295.4 278.9Q296.6 280.0 296.6 281.7L296.6 281.7Q296.6 283.3 295.4 284.5ZM295.2 320.6Q294.2 321.7 292.5 321.7Q290.9 321.7 289.9 320.6Q288.9 319.6 288.9 317.8L288.9 317.8L288.9 293.2Q288.9 291.5 289.9 290.4Q290.9 289.4 292.5 289.4Q294.2 289.4 295.2 290.4Q296.2 291.5 296.2 293.3L296.2 293.3L296.2 317.8Q296.2 319.6 295.2 320.6ZM316.0 321.7L316.0 321.7Q309.2 321.7 305.1 317.4Q301.0 313.0 301.0 305.6L301.0 305.6Q301.0 298.2 305.1 293.8Q309.1 289.4 315.9 289.4L315.9 289.4Q320.5 289.4 324.0 291.5Q327.6 293.6 328.7 296.9L328.7 296.9Q329.1 297.9 329.1 298.6L329.1 298.6Q329.1 300.0 328.2 300.8Q327.3 301.6 325.9 301.6L325.9 301.6Q324.9 301.6 324.1 301.1Q323.4 300.6 322.7 299.5L322.7 299.5Q320.5 295.3 316.1 295.3L316.1 295.3Q312.6 295.3 310.5 298.1Q308.4 300.8 308.4 305.6L308.4 305.6Q308.4 310.4 310.5 313.1Q312.6 315.8 316.1 315.8L316.1 315.8Q320.5 315.8 322.7 311.8L322.7 311.8Q323.5 310.6 324.2 310.1Q324.9 309.6 326.1 309.6L326.1 309.6Q327.4 309.6 328.3 310.4Q329.2 311.2 329.2 312.6L329.2 312.6Q329.2 313.4 328.7 314.4L328.7 314.4Q327.4 317.6 323.9 319.7Q320.3 321.7 316.0 321.7Z M348.6 321.6L348.6 321.6Q346.9 321.6 345.9 320.6Q344.8 319.7 344.8 318.1L344.8 318.1Q344.8 317.1 345.3 315.8L345.3 315.8L357.6 282.4Q358.4 280.3 359.7 279.3Q361.0 278.3 363.1 278.3L363.1 278.3Q365.2 278.3 366.5 279.3Q367.8 280.2 368.6 282.4L368.6 282.4L380.9 315.8Q381.4 317.2 381.4 318.1L381.4 318.1Q381.4 319.6 380.4 320.6Q379.3 321.6 377.6 321.6L377.6 321.6Q376.1 321.6 375.2 320.8Q374.3 320.1 373.8 318.4L373.8 318.4L371.0 310.3L355.2 310.3L352.4 318.3Q351.9 320.1 351.0 320.8Q350.1 321.6 348.6 321.6ZM362.9 286.3L357.0 304.3L369.2 304.3L363.1 286.3L362.9 286.3ZM392.5 331.1Q391.4 332.1 389.8 332.1Q388.2 332.1 387.2 331.1Q386.2 330.1 386.2 328.3L386.2 328.3L386.2 293.2Q386.2 291.4 387.2 290.4Q388.1 289.4 389.7 289.4L389.7 289.4Q391.3 289.4 392.3 290.4Q393.3 291.4 393.3 293.2L393.3 293.2L393.3 295.4L393.4 295.4Q394.8 292.6 397.3 291.1Q399.9 289.5 403.2 289.5L403.2 289.5Q409.1 289.5 412.6 293.8Q416.1 298.1 416.1 305.6L416.1 305.6Q416.1 313.0 412.7 317.3Q409.2 321.6 403.3 321.6L403.3 321.6Q400 321.6 397.5 320.1Q394.9 318.6 393.6 315.9L393.6 315.9L393.5 315.9L393.5 328.3Q393.5 330.1 392.5 331.1ZM401.0 315.6L401.0 315.6Q404.5 315.6 406.6 312.9Q408.6 310.2 408.6 305.6L408.6 305.6Q408.6 301.0 406.6 298.2Q404.5 295.5 401.0 295.5L401.0 295.5Q397.6 295.5 395.5 298.3Q393.4 301.0 393.4 305.6L393.4 305.6Q393.4 310.1 395.5 312.9Q397.6 315.6 401.0 315.6ZM427.1 331.1Q426.1 332.1 424.4 332.1Q422.8 332.1 421.8 331.1Q420.8 330.1 420.8 328.3L420.8 328.3L420.8 293.2Q420.8 291.4 421.8 290.4Q422.8 289.4 424.3 289.4L424.3 289.4Q426.0 289.4 426.9 290.4Q427.9 291.4 427.9 293.2L427.9 293.2L427.9 295.4L428.1 295.4Q429.4 292.6 432.0 291.1Q434.5 289.5 437.9 289.5L437.9 289.5Q443.8 289.5 447.3 293.8Q450.7 298.1 450.7 305.6L450.7 305.6Q450.7 313.0 447.3 317.3Q443.8 321.6 438.0 321.6L438.0 321.6Q434.6 321.6 432.1 320.1Q429.5 318.6 428.2 315.9L428.2 315.9L428.1 315.9L428.1 328.3Q428.1 330.1 427.1 331.1ZM435.6 315.6L435.6 315.6Q439.2 315.6 441.2 312.9Q443.3 310.2 443.3 305.6L443.3 305.6Q443.3 301.0 441.2 298.2Q439.1 295.5 435.6 295.5L435.6 295.5Q432.2 295.5 430.1 298.3Q428.1 301.0 428.0 305.6L428.0 305.6Q428.1 310.1 430.1 312.9Q432.2 315.6 435.6 315.6ZM461.9 320.7Q460.9 321.7 459.3 321.7Q457.7 321.7 456.6 320.7Q455.6 319.6 455.6 317.8L455.6 317.8L455.6 282.1Q455.6 280.2 456.6 279.2Q457.7 278.2 459.3 278.2Q460.9 278.2 461.9 279.2Q462.9 280.2 462.9 282.1L462.9 282.1L462.9 317.8Q462.9 319.6 461.9 320.7ZM475.8 284.5Q474.6 285.7 472.9 285.7Q471.3 285.7 470.1 284.5Q468.9 283.3 468.9 281.7L468.9 281.7Q468.9 280.0 470.1 278.9Q471.3 277.7 472.9 277.7L472.9 277.7Q474.7 277.7 475.8 278.9Q477.0 280.0 477.0 281.7L477.0 281.7Q477.0 283.3 475.8 284.5ZM475.6 320.6Q474.6 321.7 472.9 321.7Q471.3 321.7 470.3 320.6Q469.3 319.6 469.3 317.8L469.3 317.8L469.3 293.2Q469.3 291.5 470.3 290.4Q471.3 289.4 472.9 289.4Q474.6 289.4 475.6 290.4Q476.6 291.5 476.6 293.3L476.6 293.3L476.6 317.8Q476.6 319.6 475.6 320.6ZM496.4 321.7L496.4 321.7Q489.6 321.7 485.5 317.4Q481.4 313.0 481.4 305.6L481.4 305.6Q481.4 298.2 485.5 293.8Q489.5 289.4 496.3 289.4L496.3 289.4Q500.9 289.4 504.4 291.5Q508.0 293.6 509.1 296.9L509.1 296.9Q509.5 297.9 509.5 298.6L509.5 298.6Q509.5 300.0 508.6 300.8Q507.7 301.6 506.3 301.6L506.3 301.6Q505.3 301.6 504.5 301.1Q503.8 300.6 503.2 299.5L503.2 299.5Q500.9 295.3 496.5 295.3L496.5 295.3Q493.0 295.3 490.9 298.1Q488.9 300.8 488.9 305.6L488.9 305.6Q488.9 310.4 490.9 313.1Q493.0 315.8 496.5 315.8L496.5 315.8Q500.9 315.8 503.1 311.8L503.1 311.8Q503.9 310.6 504.6 310.1Q505.3 309.6 506.5 309.6L506.5 309.6Q507.8 309.6 508.7 310.4Q509.6 311.2 509.6 312.6L509.6 312.6Q509.6 313.4 509.1 314.4L509.1 314.4Q507.8 317.6 504.3 319.7Q500.8 321.7 496.4 321.7ZM523.6 321.6L523.6 321.6Q519.0 321.6 516.1 319.0Q513.2 316.4 513.2 312.2L513.2 312.2Q513.2 308.1 516.3 305.7Q519.3 303.3 525.0 302.9L525.0 302.9L533.2 302.4L533.2 300.2Q533.2 297.8 531.7 296.4Q530.2 295.1 527.4 295.1L527.4 295.1Q525.3 295.1 523.8 295.9Q522.3 296.7 520.9 298.7L520.9 298.7Q519.8 300.2 518.0 300.2L518.0 300.2Q516.6 300.2 515.8 299.4Q514.9 298.6 514.9 297.3L514.9 297.3Q514.9 296.3 515.4 295.3L515.4 295.3Q516.6 292.6 519.9 291.0Q523.3 289.4 527.7 289.4L527.7 289.4Q533.5 289.4 537.0 292.2Q540.4 295.0 540.4 299.7L540.4 299.7L540.4 318.0Q540.4 319.7 539.5 320.7Q538.5 321.7 536.9 321.7L536.9 321.7Q535.4 321.7 534.4 320.8Q533.5 319.9 533.4 318.3L533.4 318.3L533.4 316.1L533.3 316.1Q532.0 318.6 529.3 320.1Q526.6 321.6 523.6 321.6ZM525.8 316.1L525.8 316.1Q528.9 316.1 531.1 314.2Q533.2 312.3 533.2 309.6L533.2 309.6L533.2 307.2L526.0 307.6Q523.4 307.8 521.9 308.9Q520.5 310.1 520.5 311.9L520.5 311.9Q520.5 313.8 521.9 314.9Q523.4 316.1 525.8 316.1ZM548.3 313.4L548.3 313.4L548.3 295.6L546.4 295.6Q545.0 295.6 544.2 294.9Q543.4 294.1 543.4 292.8L543.4 292.8Q543.4 291.5 544.2 290.8Q545.0 290.0 546.4 290.0L546.4 290.0L548.3 290.0L548.3 285.9Q548.3 284.1 549.3 283.1Q550.3 282.1 552.0 282.1L552.0 282.1Q553.7 282.1 554.6 283.1Q555.6 284.1 555.6 285.9L555.6 285.9L555.6 290.0L559.0 290.0Q560.4 290.0 561.1 290.8Q561.9 291.5 561.9 292.8L561.9 292.8Q561.9 294.1 561.1 294.9Q560.3 295.6 559.0 295.6L559.0 295.6L555.6 295.6L555.6 311.8Q555.6 313.6 556.3 314.4Q557.0 315.2 558.6 315.4L558.6 315.4L559.1 315.4Q562.0 315.7 562.0 318.1L562.0 318.1Q562.0 319.7 560.7 320.6Q559.3 321.4 556.8 321.4L556.8 321.4L556.5 321.4Q548.3 321.4 548.3 313.4ZM573.1 284.5Q571.9 285.7 570.2 285.7Q568.5 285.7 567.4 284.5Q566.2 283.3 566.2 281.7L566.2 281.7Q566.2 280.0 567.4 278.9Q568.5 277.7 570.2 277.7L570.2 277.7Q572.0 277.7 573.1 278.9Q574.3 280.0 574.3 281.7L574.3 281.7Q574.3 283.3 573.1 284.5ZM572.9 320.6Q571.9 321.7 570.2 321.7Q568.6 321.7 567.6 320.6Q566.6 319.6 566.6 317.8L566.6 317.8L566.6 293.2Q566.6 291.5 567.6 290.4Q568.6 289.4 570.2 289.4Q571.9 289.4 572.9 290.4Q573.9 291.5 573.9 293.3L573.9 293.3L573.9 317.8Q573.9 319.6 572.9 320.6ZM604.7 317.4Q600.7 321.7 593.8 321.7Q586.9 321.7 582.8 317.4Q578.7 313.1 578.7 305.6L578.7 305.6Q578.7 298.1 582.8 293.7Q586.9 289.4 593.8 289.4L593.8 289.4Q600.6 289.4 604.7 293.7Q608.8 298.1 608.8 305.6L608.8 305.6Q608.8 313.1 604.7 317.4ZM588.2 313.2Q590.3 315.9 593.8 315.9Q597.3 315.9 599.3 313.2Q601.4 310.5 601.4 305.6L601.4 305.6Q601.4 300.7 599.3 297.9Q597.3 295.2 593.8 295.2L593.8 295.2Q590.3 295.2 588.2 297.9Q586.2 300.7 586.2 305.6L586.2 305.6Q586.2 310.5 588.2 313.2ZM619.8 320.7Q618.8 321.7 617.1 321.7Q615.5 321.7 614.5 320.7Q613.5 319.6 613.5 317.8L613.5 317.8L613.5 293.1Q613.5 291.4 614.4 290.4Q615.4 289.4 617.0 289.4Q618.6 289.4 619.6 290.4Q620.6 291.4 620.6 293.1L620.6 293.1L620.6 295.3L620.7 295.3Q623.4 289.4 630.4 289.4L630.4 289.4Q635.5 289.4 638.3 292.5Q641.1 295.6 641.1 301.0L641.1 301.0L641.1 317.8Q641.1 319.6 640.1 320.7Q639.2 321.7 637.5 321.7Q635.9 321.7 634.9 320.7Q633.8 319.6 633.8 317.8L633.8 317.8L633.8 302.5Q633.8 299.1 632.3 297.4Q630.7 295.6 627.6 295.6L627.6 295.6Q624.5 295.6 622.6 297.7Q620.8 299.7 620.8 303.1L620.8 303.1L620.8 317.8Q620.8 319.6 619.8 320.7ZM659.0 321.7L659.0 321.7Q654.1 321.7 650.8 320.0Q647.4 318.3 646.3 315.5L646.3 315.5Q646.0 314.7 646.0 314.0L646.0 314.0Q646.0 312.7 646.9 311.9Q647.7 311.1 649.1 311.1L649.1 311.1Q650.9 311.1 652.2 312.9L652.2 312.9Q653.5 314.8 655.1 315.6Q656.7 316.4 659.2 316.4L659.2 316.4Q661.8 316.4 663.3 315.4Q664.9 314.3 664.9 312.6L664.9 312.6Q664.9 311.2 663.9 310.3Q662.9 309.5 660.5 308.9L660.5 308.9L655.5 307.8Q646.4 305.8 646.4 298.9L646.4 298.9Q646.4 294.6 649.9 292.0Q653.3 289.4 659.1 289.4L659.1 289.4Q663.5 289.4 666.7 291.3Q669.9 293.1 670.6 295.9L670.6 295.9Q670.8 296.5 670.8 297.0L670.8 297.0Q670.8 298.1 670.1 298.9Q669.3 299.6 668.0 299.6L668.0 299.6Q666.1 299.6 665.2 298.2L665.2 298.2Q664.1 296.5 662.6 295.6Q661.1 294.7 658.9 294.7L658.9 294.7Q656.5 294.7 655 295.8Q653.5 296.8 653.5 298.5L653.5 298.5Q653.5 301.3 658.1 302.3L658.1 302.3L663.0 303.4Q667.9 304.5 670.1 306.4Q672.2 308.4 672.2 311.8L672.2 311.8Q672.2 316.3 668.5 319.0Q664.9 321.7 659.0 321.7Z M706.9 321.8L706.9 321.8Q699.0 321.8 694.3 317.5Q689.5 313.2 689.5 306.2L689.5 306.2L689.5 282.2Q689.5 280.4 690.6 279.3Q691.6 278.3 693.3 278.3L693.3 278.3Q695.1 278.3 696.1 279.3Q697.1 280.4 697.1 282.2L697.1 282.2L697.1 305.5Q697.1 309.9 699.7 312.5Q702.3 315.2 706.9 315.2Q711.5 315.2 714.2 312.5Q716.8 309.9 716.8 305.5L716.8 305.5L716.8 282.2Q716.8 280.4 717.8 279.3Q718.8 278.3 720.5 278.3L720.5 278.3Q722.3 278.3 723.3 279.3Q724.3 280.4 724.3 282.2L724.3 282.2L724.3 306.2Q724.3 313.2 719.6 317.5Q714.9 321.8 706.9 321.8ZM743.0 321.7L743.0 321.7Q738.2 321.7 734.8 320.0Q731.5 318.3 730.4 315.5L730.4 315.5Q730.1 314.7 730.1 314.0L730.1 314.0Q730.1 312.7 730.9 311.9Q731.8 311.1 733.1 311.1L733.1 311.1Q734.9 311.1 736.3 312.9L736.3 312.9Q737.5 314.8 739.1 315.6Q740.7 316.4 743.3 316.4L743.3 316.4Q745.8 316.4 747.4 315.4Q748.9 314.3 748.9 312.6L748.9 312.6Q748.9 311.2 747.9 310.3Q746.9 309.5 744.6 308.9L744.6 308.9L739.5 307.8Q730.5 305.8 730.5 298.9L730.5 298.9Q730.5 294.6 733.9 292.0Q737.4 289.4 743.1 289.4L743.1 289.4Q747.5 289.4 750.7 291.3Q754.0 293.1 754.7 295.9L754.7 295.9Q754.8 296.5 754.8 297.0L754.8 297.0Q754.8 298.1 754.1 298.9Q753.4 299.6 752.0 299.6L752.0 299.6Q750.2 299.6 749.2 298.2L749.2 298.2Q748.1 296.5 746.6 295.6Q745.1 294.7 742.9 294.7L742.9 294.7Q740.5 294.7 739.1 295.8Q737.6 296.8 737.6 298.5L737.6 298.5Q737.6 301.3 742.1 302.3L742.1 302.3L747.1 303.4Q752.0 304.5 754.1 306.4Q756.3 308.4 756.3 311.8L756.3 311.8Q756.3 316.3 752.6 319.0Q749.0 321.7 743.0 321.7ZM767.5 284.5Q766.4 285.7 764.7 285.7Q763.0 285.7 761.8 284.5Q760.6 283.3 760.6 281.7L760.6 281.7Q760.6 280.0 761.8 278.9Q763.0 277.7 764.7 277.7L764.7 277.7Q766.4 277.7 767.6 278.9Q768.7 280.0 768.7 281.7L768.7 281.7Q768.7 283.3 767.5 284.5ZM767.3 320.6Q766.3 321.7 764.7 321.7Q763.0 321.7 762.0 320.6Q761.0 319.6 761.0 317.8L761.0 317.8L761.0 293.2Q761.0 291.5 762.0 290.4Q763.0 289.4 764.7 289.4Q766.3 289.4 767.3 290.4Q768.3 291.5 768.3 293.3L768.3 293.3L768.3 317.8Q768.3 319.6 767.3 320.6ZM780.7 320.7Q779.7 321.7 778.1 321.7Q776.4 321.7 775.4 320.7Q774.4 319.6 774.4 317.8L774.4 317.8L774.4 293.1Q774.4 291.4 775.4 290.4Q776.3 289.4 777.9 289.4Q779.5 289.4 780.5 290.4Q781.5 291.4 781.5 293.1L781.5 293.1L781.5 295.3L781.7 295.3Q784.3 289.4 791.3 289.4L791.3 289.4Q796.4 289.4 799.3 292.5Q802.1 295.6 802.1 301.0L802.1 301.0L802.1 317.8Q802.1 319.6 801.1 320.7Q800.1 321.7 798.5 321.7Q796.8 321.7 795.8 320.7Q794.8 319.6 794.8 317.8L794.8 317.8L794.8 302.5Q794.8 299.1 793.2 297.4Q791.7 295.6 788.6 295.6L788.6 295.6Q785.5 295.6 783.6 297.7Q781.7 299.7 781.7 303.1L781.7 303.1L781.7 317.8Q781.7 319.6 780.7 320.7ZM821.3 332.8L821.3 332.8Q817.0 332.7 813.6 331.2Q810.3 329.7 808.7 327.1L808.7 327.1Q808.1 326.1 808.1 324.9L808.1 324.9Q808.1 323.7 808.9 322.9Q809.8 322.1 811.2 322.1L811.2 322.1Q812.6 322.1 813.8 323.3L813.8 323.3Q815.7 325.2 817.5 326.1Q819.2 326.9 821.4 327.0L821.4 327.0Q825.0 327.0 827.2 325.1Q829.3 323.2 829.3 320.1L829.3 320.1L829.3 315.2L829.1 315.2Q827.9 317.7 825.3 319.2Q822.7 320.8 819.4 320.8L819.4 320.8Q813.6 320.8 810.1 316.5Q806.6 312.3 806.6 305.2L806.6 305.2Q806.6 297.9 810.1 293.7Q813.6 289.5 819.6 289.5L819.6 289.5Q822.8 289.5 825.3 291.0Q827.8 292.6 829.2 295.3L829.2 295.3L829.3 295.3L829.3 293.1Q829.3 291.4 830.3 290.4Q831.4 289.4 833.0 289.4Q834.6 289.4 835.6 290.4Q836.6 291.4 836.6 293.1L836.6 293.1L836.6 320.1Q836.6 326.0 832.5 329.4Q828.5 332.8 821.3 332.8ZM821.6 315.1L821.6 315.1Q825.2 315.1 827.3 312.4Q829.3 309.8 829.3 305.2L829.3 305.2Q829.3 300.7 827.2 298.0Q825.1 295.3 821.6 295.3L821.6 295.3Q818.2 295.3 816.1 298.0Q814.1 300.7 814.1 305.2L814.1 305.2Q814.1 309.8 816.1 312.5Q818.2 315.1 821.6 315.1Z M869.4 321.6L869.4 321.6Q867.6 321.6 866.6 320.6Q865.6 319.5 865.6 317.7L865.6 317.7L865.6 285.2L856.0 285.2Q854.4 285.2 853.5 284.3Q852.5 283.5 852.5 282.0Q852.5 280.5 853.5 279.7Q854.4 278.8 856.0 278.8L856.0 278.8L882.8 278.8Q884.4 278.8 885.4 279.7Q886.3 280.5 886.3 282.0Q886.3 283.5 885.3 284.3Q884.4 285.2 882.8 285.2L882.8 285.2L873.2 285.2L873.2 317.7Q873.2 319.5 872.2 320.6Q871.2 321.6 869.4 321.6ZM892.8 321.6L892.8 321.6Q891.1 321.6 890.0 320.6Q889.0 319.7 889.0 318.1L889.0 318.1Q889.0 317.1 889.5 315.8L889.5 315.8L901.8 282.4Q902.5 280.3 903.9 279.3Q905.2 278.3 907.2 278.3L907.2 278.3Q909.3 278.3 910.7 279.3Q912.0 280.2 912.8 282.4L912.8 282.4L925.1 315.8Q925.6 317.2 925.6 318.1L925.6 318.1Q925.6 319.6 924.5 320.6Q923.4 321.6 921.8 321.6L921.8 321.6Q920.3 321.6 919.3 320.8Q918.4 320.1 917.9 318.4L917.9 318.4L915.2 310.3L899.4 310.3L896.6 318.3Q896.1 320.1 895.2 320.8Q894.3 321.6 892.8 321.6ZM907.1 286.3L901.2 304.3L913.3 304.3L907.3 286.3L907.1 286.3ZM955.4 321.1L934.8 321.1Q933.1 321.1 932.1 320.0Q931.1 319.0 931.1 317.2L931.1 317.2L931.1 282.7Q931.1 280.9 932.1 279.8Q933.1 278.8 934.8 278.8L934.8 278.8L955.4 278.8Q957.0 278.8 958.0 279.7Q958.9 280.5 958.9 282.0Q958.9 283.5 958.0 284.3Q957.0 285.2 955.4 285.2L955.4 285.2L938.6 285.2L938.6 296.6L954.6 296.6Q956.0 296.6 956.9 297.4Q957.8 298.2 957.8 299.6Q957.8 301.0 956.9 301.8Q956.0 302.6 954.6 302.6L954.6 302.6L938.6 302.6L938.6 314.7L955.4 314.7Q957.0 314.7 958.0 315.6Q958.9 316.4 958.9 317.9Q958.9 319.3 958.0 320.2Q957.0 321.1 955.4 321.1L955.4 321.1ZM970.9 320.6Q970 321.6 968.4 321.6Q966.8 321.6 965.9 320.6Q965.0 319.7 965.0 318.0L965.0 318.0L965.0 283.1Q965.0 280.9 966.3 279.6Q967.6 278.3 969.9 278.3L969.9 278.3Q971.8 278.3 973.0 279.2Q974.2 280.1 975.1 282.2L975.1 282.2L986.7 310.7L986.9 310.7L998.5 282.2Q999.4 280.2 1000.6 279.2Q1001.8 278.3 1003.8 278.3L1003.8 278.3Q1006.1 278.3 1007.3 279.6Q1008.6 280.9 1008.6 283.1L1008.6 283.1L1008.6 318.0Q1008.6 319.7 1007.7 320.6Q1006.8 321.6 1005.2 321.6Q1003.6 321.6 1002.7 320.6Q1001.8 319.7 1001.8 318.0L1001.8 318.0L1001.8 291.1L1001.6 291.1L990.4 318.3Q989.3 320.8 986.8 320.8L986.8 320.8Q984.3 320.8 983.2 318.3L983.2 318.3L972.0 291.1L971.8 291.1L971.8 318.0Q971.8 319.7 970.9 320.6ZM1031.0 321.8L1031.0 321.8Q1024.8 321.8 1020.7 319.5Q1016.5 317.2 1015.3 313.5L1015.3 313.5Q1014.9 312.4 1014.9 311.3L1014.9 311.3Q1014.9 309.7 1015.8 308.8Q1016.7 307.8 1018.2 307.8L1018.2 307.8Q1019.5 307.8 1020.3 308.4Q1021.1 308.9 1021.7 310.2L1021.7 310.2Q1022.7 312.9 1025.2 314.2Q1027.7 315.5 1031.2 315.5L1031.2 315.5Q1035.0 315.5 1037.4 313.8Q1039.9 312.1 1039.9 309.5L1039.9 309.5Q1039.9 307.2 1038.1 305.7Q1036.3 304.3 1032.3 303.4L1032.3 303.4L1027.7 302.5Q1015.3 299.9 1015.3 290.6L1015.3 290.6Q1015.3 285.0 1019.7 281.6Q1024.1 278.1 1031.0 278.1L1031.0 278.1Q1036.6 278.1 1040.7 280.5Q1044.7 282.9 1046.0 287.0L1046.0 287.0Q1046.3 287.7 1046.3 288.8L1046.3 288.8Q1046.3 290.1 1045.4 291.0Q1044.4 291.9 1043.0 291.9L1043.0 291.9Q1040.5 291.9 1039.3 289.5L1039.3 289.5Q1037.3 284.4 1030.9 284.4L1030.9 284.4Q1027.4 284.4 1025.2 285.9Q1022.9 287.5 1022.9 290.1L1022.9 290.1Q1022.9 292.3 1024.7 293.7Q1026.4 295.2 1030.3 296.0L1030.3 296.0L1034.8 296.9Q1041.5 298.3 1044.5 301.1Q1047.5 303.9 1047.5 308.6L1047.5 308.6Q1047.5 314.7 1043.0 318.2Q1038.6 321.8 1031.0 321.8Z "/><defs><clipPath id="satori_bc-id-0-1"><rect x="0" y="441" width="1200" height="189"/></clipPath></defs><mask id="satori_om-id-0-1"><rect x="0" y="442" width="1200" height="188" fill="#fff"/><path width="1200" height="189" fill="none" stroke="#000" stroke-width="2" d="M0,441 A0,0 0 0 1 0,441 h1200 A0,0 0 0 1 1200,441"/></mask><path width="1200" height="189" clip-path="url(#satori_bc-id-0-1)" fill="none" stroke="#dbdbdb" stroke-width="2" d="M0,441 A0,0 0 0 1 0,441 h1200 A0,0 0 0 1 1200,441"/><mask id="satori_om-id-0-1-0"><rect x="40" y="482" width="389" height="108" fill="#fff"/></mask><clipPath id="satori_cp-id-0-1-0-0"><rect x="40" y="504" width="64" height="64"/></clipPath><mask id="satori_om-id-0-1-0-0"><rect x="40" y="504" width="64" height="64" fill="#fff"/></mask><image x="40" y="504" width="64" height="64" href="data:image/svg+xml;utf8,%3Csvg  xmlns=%22http://www.w3.org/2000/svg%22 width=%2264%22 height=%2264%22 viewBox=%220 0 128 128%22%3E%3Cpath fill=%22%23224d67%22 d=%22M22.5 14.8c2.9 1.3 99 44 99 44c2.7 1.2 2.9 3.1 2 12.4c-1 10.5-1.9 37.8-40.2 42.9c-24.6 3.2-55.9-4.3-70.9-27.2C-6 58.8 11 23.4 14.8 17.7c2.4-3.5 4.8-4.2 7.7-2.9%22%3E%3C/path%3E%3Cpath fill=%22%23f0f4c3%22 d=%22M121.5 58.8c-.3-.2-92-40.8-98.9-43.9C9.6 31.5-3.8 76 27.9 96.2c33.6 21.5 78.7-10.2 93.6-37.4%22%3E%3C/path%3E%3Cpath fill=%22%23f0f4c3%22 d=%22M117.7 57c-.3-.2-86.7-38.4-93.2-41.3c-12.2 15.5-23.9 59.1 5.7 78c31.4 20.2 73.6-11.2 87.5-36.7%22%3E%3C/path%3E%3Cpath fill=%22%23cb2a42%22 d=%22M56.2 37.6L19.5 48.2c-2.5.8-4.4 2.8-5 5.3c-1.9 8.5.8 23.3 8.9 29.8c3.5 2.7 8.6 1.8 10.8-2.1L58.5 41c1.3-1.7.5-4.2-2.3-3.4m14.3 2.9s14.6 30.1 16 33s6.3 4.7 9.9 2.8c10.7-5.6 15.5-12.4 19.2-20.2c-8.9-3.9-42.4-18.8-42.4-18.8c-2.4-1.1-4 .6-2.7 3.2m-8.6 1.9C60.3 45.1 39.5 81 37.6 84.1c-1.9 3.2-.7 7.5 2.7 9.2c12.3 6.5 30.9.4 39.6-7c2.2-1.9 4.5-5.1 3.2-8.2S68.9 44.6 67.8 42.3c-1.2-2.7-4.1-2.8-5.9.1%22%3E%3C/path%3E%3Cpath fill=%22%23f0f4c3%22 d=%22M52.2 42.2c-1.4.4-10.1 3-11.1 3.4c-1.4.5-2.2 1.7-1.9 2.5c.3.9 1.7 1.1 3.1.6c.8-.3 7.1-3.9 9.5-5.2c-3.1 2.4-10.2 9.4-11.1 10.3c-1.4 1.5-1.7 3.4-.8 4.3c1 .9 2.9.5 4.3-1c1.2-1.3 8.5-12.8 9.1-13.9s.4-1.4-1.1-1m10.1 16.4c0-2.2 1.4-10.3 1.8-12.3c.4-1.6 1.5-1.8 1.8.5s1.7 9.7 1.7 11.8s-1.2 3.3-2.7 3.3c-1.4 0-2.6-1.1-2.6-3.3M79.9 49c-1.2-1.8-3.3-4.9-4.1-6.1c-.7-1.2.1-2.1 1.8-.9s4 2.9 5.4 4c1.6 1.3 1.9 3 .8 4s-2.7.8-3.9-1%22%3E%3C/path%3E%3Cellipse cx=%2287.3%22 cy=%22103.12%22 fill=%22%23cb2a42%22 rx=%223.4%22 ry=%222.3%22 transform=%22rotate(-27.098 87.298 103.126)%22%3E%3C/ellipse%3E%3Cellipse cx=%2298.89%22 cy=%22103.82%22 fill=%22%23cb2a42%22 rx=%223.4%22 ry=%222.3%22 transform=%22rotate(-30.642 98.887 103.818)%22%3E%3C/ellipse%3E%3Cellipse cx=%22102.02%22 cy=%2293.8%22 fill=%22%23cb2a42%22 rx=%223.4%22 ry=%222.3%22 transform=%22rotate(-37.16 102.017 93.797)%22%3E%3C/ellipse%3E%3Cpath fill=%22%23cb2a42%22 d=%22M57.6 30.3c-8.3-3.7-24.4-10.7-29.6-13c-3.6 2.2-9.7 11.4-11.2 21.2c-.6 3.6 1.7 5.9 5.3 4.9c0 0 33.7-9.3 35.3-9.7c1.6-.5 2-2.6.2-3.4%22%3E%3C/path%3E%3C/svg%3E" preserveAspectRatio="none" clip-path="url(#satori_cp-id-0-1-0-0)" mask="url(#satori_om-id-0-1-0-0)"/><mask id="satori_om-id-0-1-0-0-0"><rect x="40" y="504" width="0" height="64" fill="#fff"/></mask><mask id="satori_om-id-0-1-0-0-1"><rect x="40" y="504" width="0" height="64" fill="#fff"/></mask><mask id="satori_om-id-0-1-0-0-2"><rect x="40" y="504" width="0" height="64" fill="#fff"/></mask><mask id="satori_om-id-0-1-0-0-3"><rect x="40" y="504" width="0" height="64" fill="#fff"/></mask><mask id="satori_om-id-0-1-0-0-4"><rect x="40" y="504" width="0" height="64" fill="#fff"/></mask><mask id="satori_om-id-0-1-0-0-5"><rect x="40" y="504" width="0" height="64" fill="#fff"/></mask><mask id="satori_om-id-0-1-0-0-6"><rect x="40" y="504" width="0" height="64" fill="#fff"/></mask><mask id="satori_om-id-0-1-0-0-7"><rect x="40" y="504" width="0" height="64" fill="#fff"/></mask><mask id="satori_om-id-0-1-0-0-8"><rect x="40" y="504" width="0" height="64" fill="#fff"/></mask><mask id="satori_om-id-0-1-0-1"><rect x="116" y="512" width="313" height="48" fill="#fff"/></mask><path fill="#545454" d="M133.0 553.6L133.0 553.6Q126.5 553.6 122.7 550.2Q118.8 546.7 118.8 541.1L118.8 541.1L118.8 522.5Q118.8 520.7 119.8 519.7Q120.7 518.8 122.4 518.8Q124.0 518.8 125.0 519.7Q125.9 520.7 125.9 522.5L125.9 522.5L125.9 540.4Q125.9 543.7 127.8 545.6Q129.6 547.6 133.0 547.6L133.0 547.6Q136.3 547.6 138.2 545.6Q140.1 543.7 140.1 540.4L140.1 540.4L140.1 522.5Q140.1 520.7 141.0 519.7Q141.9 518.8 143.6 518.8Q145.3 518.8 146.2 519.7Q147.1 520.7 147.1 522.5L147.1 522.5L147.1 541.1Q147.1 546.7 143.3 550.2Q139.4 553.6 133.0 553.6ZM158.9 552.6Q158.0 553.6 156.3 553.6Q154.6 553.6 153.7 552.6Q152.8 551.6 152.8 549.9L152.8 549.9L152.8 522.9Q152.8 521.2 153.7 520.2Q154.6 519.2 156.3 519.2L156.3 519.2L166.6 519.2Q172.4 519.2 175.6 522.1Q178.9 525.0 178.9 530.0L178.9 530.0Q178.9 533.2 177.3 535.8Q175.8 538.3 173.0 539.4L173.0 539.4L177.9 547.9Q178.7 549.2 178.7 550.3L178.7 550.3Q178.7 551.7 177.7 552.6Q176.7 553.6 175.1 553.6L175.1 553.6Q173.8 553.6 173.1 553.0Q172.4 552.5 171.5 550.9L171.5 550.9L165.9 540.7L159.9 540.7L159.9 549.9Q159.9 551.6 158.9 552.6ZM159.9 524.8L159.9 535.6L165.9 535.6Q168.6 535.6 170.1 534.1Q171.6 532.7 171.6 530.2L171.6 530.2Q171.6 527.7 170.0 526.2Q168.5 524.8 165.9 524.8L165.9 524.8L159.9 524.8ZM196.2 542.3L186.4 542.3Q185.0 542.3 184.1 541.5Q183.2 540.7 183.2 539.3Q183.2 537.9 184.1 537.1Q185.0 536.3 186.4 536.3L186.4 536.3L196.2 536.3Q197.6 536.3 198.5 537.1Q199.4 537.9 199.4 539.3Q199.4 540.7 198.5 541.5Q197.6 542.3 196.2 542.3L196.2 542.3ZM210.9 552.6Q209.9 553.6 208.3 553.6Q206.6 553.6 205.6 552.6Q204.7 551.6 204.7 549.9L204.7 549.9L204.7 522.9Q204.7 521.2 205.6 520.2Q206.6 519.2 208.3 519.2L208.3 519.2L218.6 519.2Q224.4 519.2 227.6 522.1Q230.8 525.0 230.8 530.0L230.8 530.0Q230.8 533.2 229.3 535.8Q227.8 538.3 225.0 539.4L225.0 539.4L229.9 547.9Q230.6 549.2 230.6 550.3L230.6 550.3Q230.6 551.7 229.6 552.6Q228.6 553.6 227.0 553.6L227.0 553.6Q225.8 553.6 225.0 553.0Q224.3 552.5 223.4 550.9L223.4 550.9L217.8 540.7L211.8 540.7L211.8 549.9Q211.8 551.6 210.9 552.6ZM211.8 524.8L211.8 535.6L217.9 535.6Q220.6 535.6 222.0 534.1Q223.5 532.7 223.5 530.2L223.5 530.2Q223.5 527.7 222.0 526.2Q220.4 524.8 217.8 524.8L217.8 524.8L211.8 524.8ZM237.7 553.5L237.7 553.5Q236.0 553.5 235.1 552.6Q234.1 551.7 234.1 550.2L234.1 550.2Q234.1 549.3 234.6 547.9L234.6 547.9L243.8 522.8Q244.6 520.7 245.8 519.7Q247.1 518.8 249.1 518.8L249.1 518.8Q251.2 518.8 252.5 519.7Q253.8 520.7 254.5 522.8L254.5 522.8L263.8 547.9Q264.3 549.2 264.3 550.2L264.3 550.2Q264.3 551.6 263.3 552.6Q262.3 553.5 260.7 553.5L260.7 553.5Q259.2 553.5 258.4 552.8Q257.5 552.1 257.0 550.4L257.0 550.4L255.3 545.0L243.1 545.0L241.3 550.3Q240.8 552.0 239.9 552.8Q239.1 553.5 237.7 553.5ZM249.0 525.7L244.6 539.6L253.6 539.6L249.1 525.7L249.0 525.7ZM281.5 553.1L272.1 553.1Q270.4 553.1 269.5 552.1Q268.6 551.1 268.6 549.4L268.6 549.4L268.6 522.9Q268.6 521.2 269.5 520.2Q270.4 519.2 272.1 519.2L272.1 519.2L281.5 519.2Q289.1 519.2 293.4 523.6Q297.6 528.0 297.6 536.0L297.6 536.0Q297.6 544.1 293.3 548.6Q289.1 553.1 281.5 553.1L281.5 553.1ZM275.6 525.1L275.6 547.2L280.6 547.2Q285.4 547.2 287.9 544.4Q290.4 541.5 290.4 536.0L290.4 536.0Q290.4 530.8 287.8 527.9Q285.3 525.1 280.6 525.1L280.6 525.1L275.6 525.1Z M333.2 553.1L314.5 553.1Q312.9 553.1 312.0 552.2Q311.2 551.4 311.2 550.0L311.2 550.0Q311.2 549.1 311.6 548.3Q312.0 547.5 313.1 546.5L313.1 546.5L323.2 536.9Q326.3 533.8 327.4 532.2Q328.4 530.6 328.4 528.8L328.4 528.8Q328.4 526.7 327.0 525.3Q325.5 524 323.3 524L323.3 524Q319.3 524 317.4 528.1L317.4 528.1Q316.8 529.2 316.1 529.7Q315.4 530.1 314.3 530.1L314.3 530.1Q312.9 530.1 312.1 529.4Q311.3 528.6 311.3 527.3L311.3 527.3Q311.3 526.5 311.5 525.7L311.5 525.7Q312.5 522.7 315.6 520.6Q318.8 518.5 323.3 518.5L323.3 518.5Q328.7 518.5 332.0 521.2Q335.3 524.0 335.3 528.3L335.3 528.3Q335.3 529.9 335.0 531.2Q334.6 532.5 333.6 533.9Q332.6 535.3 331.3 536.8Q330.0 538.2 327.8 540.3L327.8 540.3L320.5 547.3L320.5 547.4L333.2 547.4Q334.6 547.4 335.4 548.2Q336.1 549.0 336.1 550.3L336.1 550.3Q336.1 551.5 335.4 552.3Q334.6 553.1 333.2 553.1L333.2 553.1ZM363.6 549.0Q359.9 553.8 353.5 553.8Q347.1 553.8 343.4 549.1Q339.7 544.3 339.7 536.1L339.7 536.1Q339.7 527.9 343.4 523.2Q347.1 518.5 353.5 518.5Q359.9 518.5 363.6 523.2Q367.3 527.9 367.3 536.1L367.3 536.1Q367.3 544.3 363.6 549.0ZM348.6 545.0Q350.4 548.1 353.5 548.1Q356.7 548.1 358.4 545.0Q360.1 541.9 360.1 536.1L360.1 536.1Q360.1 530.4 358.4 527.2Q356.7 524.1 353.5 524.1L353.5 524.1Q350.4 524.1 348.7 527.3Q346.9 530.4 346.9 536.1L346.9 536.1Q346.9 541.9 348.6 545.0ZM393.6 553.1L374.9 553.1Q373.3 553.1 372.4 552.2Q371.6 551.4 371.6 550.0L371.6 550.0Q371.6 549.1 372.0 548.3Q372.5 547.5 373.5 546.5L373.5 546.5L383.6 536.9Q386.8 533.8 387.8 532.2Q388.9 530.6 388.9 528.8L388.9 528.8Q388.9 526.7 387.4 525.3Q386.0 524 383.7 524L383.7 524Q379.7 524 377.9 528.1L377.9 528.1Q377.3 529.2 376.5 529.7Q375.8 530.1 374.7 530.1L374.7 530.1Q373.3 530.1 372.5 529.4Q371.7 528.6 371.7 527.3L371.7 527.3Q371.7 526.5 372.0 525.7L372.0 525.7Q372.9 522.7 376.0 520.6Q379.2 518.5 383.8 518.5L383.8 518.5Q389.1 518.5 392.4 521.2Q395.8 524.0 395.8 528.3L395.8 528.3Q395.8 529.9 395.4 531.2Q395 532.5 394.0 533.9Q393.1 535.3 391.7 536.8Q390.4 538.2 388.2 540.3L388.2 540.3L380.9 547.3L380.9 547.4L393.6 547.4Q395 547.4 395.8 548.2Q396.6 549.0 396.6 550.3L396.6 550.3Q396.6 551.5 395.8 552.3Q395 553.1 393.6 553.1L393.6 553.1ZM413.6 553.8L413.6 553.8Q409.6 553.8 406.3 552.1Q403.1 550.4 401.8 547.7L401.8 547.7Q401.3 546.5 401.3 545.4L401.3 545.4Q401.3 544.0 402.0 543.3Q402.8 542.5 404.2 542.5L404.2 542.5Q405.3 542.5 406.0 542.9Q406.7 543.3 407.3 544.3L407.3 544.3Q409.3 548.2 413.6 548.2L413.6 548.2Q416.3 548.2 418.1 546.4Q419.9 544.6 419.9 541.9L419.9 541.9Q419.9 539.2 418.1 537.5Q416.4 535.8 413.6 535.8L413.6 535.8Q410.8 535.8 408.7 537.8L408.7 537.8Q407.6 538.8 406.9 539.1Q406.2 539.4 405.0 539.4L405.0 539.4Q403.4 539.4 402.5 538.4Q401.6 537.4 401.7 535.9L401.7 535.9Q401.7 535.8 401.7 535.6L401.7 535.6L402.7 523.3Q402.9 521.1 404.0 520.2Q405.1 519.2 407.2 519.2L407.2 519.2L422 519.2Q423.3 519.2 424.1 520.0Q424.9 520.8 424.9 522.1Q424.9 523.3 424.1 524.1Q423.3 524.9 422 524.9L422 524.9L408.6 524.9L407.8 534.3L408.0 534.3Q409.0 532.6 411.0 531.7Q413.0 530.7 415.6 530.7L415.6 530.7Q420.4 530.7 423.5 533.8Q426.6 536.9 426.6 541.7L426.6 541.7Q426.6 547.1 423.0 550.5Q419.4 553.8 413.6 553.8Z "/><mask id="satori_om-id-0-1-1"><rect x="1013" y="524" width="147" height="36" fill="#fff"/></mask><path fill="#8e8e8e" d="M1016.9 552.6Q1016.5 552.9 1016.0 552.9Q1015.4 552.9 1015.1 552.6Q1014.8 552.2 1014.8 551.7L1014.8 551.7L1014.8 532.6Q1014.8 532.0 1015.1 531.6Q1015.5 531.3 1016.1 531.3Q1016.6 531.3 1017.0 531.6Q1017.3 532.0 1017.3 532.6L1017.3 532.6L1017.3 540.0L1017.4 540.0Q1018.1 538.7 1019.4 537.9Q1020.7 537.2 1022.3 537.2L1022.3 537.2Q1025.2 537.2 1026.9 539.3Q1028.7 541.5 1028.7 545.0L1028.7 545.0Q1028.7 548.6 1026.9 550.8Q1025.2 552.9 1022.2 552.9L1022.2 552.9Q1020.6 552.9 1019.3 552.2Q1018.0 551.4 1017.3 550.1L1017.3 550.1L1017.2 550.1L1017.2 551.7Q1017.2 552.2 1016.9 552.6ZM1021.7 550.7L1021.7 550.7Q1023.8 550.7 1024.9 549.2Q1026.1 547.7 1026.1 545.0L1026.1 545.0Q1026.1 542.5 1024.9 540.9Q1023.8 539.4 1021.7 539.4L1021.7 539.4Q1019.8 539.4 1018.6 541.0Q1017.3 542.5 1017.3 545.0L1017.3 545.0Q1017.3 547.6 1018.6 549.1Q1019.8 550.7 1021.7 550.7ZM1032.8 558.4L1032.8 558.4Q1031.9 558.4 1031.4 558.0Q1030.9 557.7 1030.9 557.1L1030.9 557.1Q1030.9 556.7 1031.1 556.4Q1031.4 556.2 1031.9 556.2L1031.9 556.2Q1032.1 556.2 1032.3 556.2Q1032.5 556.2 1032.7 556.2L1032.7 556.2Q1034.4 556.2 1035.2 553.7L1035.2 553.7L1035.6 552.7L1030.3 539.0Q1030.2 538.6 1030.2 538.3L1030.2 538.3Q1030.2 537.8 1030.6 537.5Q1030.9 537.2 1031.5 537.2L1031.5 537.2Q1032.4 537.2 1032.7 538.1L1032.7 538.1L1036.9 550.1L1037.0 550.1L1041.2 538.1Q1041.3 537.6 1041.6 537.4Q1041.9 537.2 1042.4 537.2L1042.4 537.2Q1042.9 537.2 1043.3 537.5Q1043.6 537.8 1043.6 538.3L1043.6 538.3Q1043.6 538.6 1043.5 539.0L1043.5 539.0L1037.9 553.7Q1036.9 556.4 1035.8 557.4Q1034.7 558.4 1032.8 558.4Z M1066.9 550.9Q1064.7 553.0 1060.8 553.0Q1056.9 553.0 1054.7 550.9Q1052.4 548.7 1052.4 545.3L1052.4 545.3L1052.4 532.7Q1052.4 532.1 1052.8 531.7Q1053.1 531.3 1053.7 531.3Q1054.3 531.3 1054.7 531.7Q1055.0 532.1 1055.0 532.7L1055.0 532.7L1055.0 545.1Q1055.0 547.5 1056.6 549.1Q1058.1 550.6 1060.8 550.6Q1063.5 550.6 1065.0 549.1Q1066.6 547.5 1066.6 545.1L1066.6 545.1L1066.6 532.7Q1066.6 532.1 1066.9 531.7Q1067.3 531.3 1067.9 531.3Q1068.5 531.3 1068.8 531.7Q1069.2 532.1 1069.2 532.7L1069.2 532.7L1069.2 545.3Q1069.2 548.7 1066.9 550.9ZM1075.6 552.6Q1075.2 552.9 1074.6 552.9Q1074.0 552.9 1073.7 552.6Q1073.3 552.2 1073.3 551.6L1073.3 551.6L1073.3 532.9Q1073.3 532.3 1073.7 531.9Q1074.0 531.5 1074.6 531.5L1074.6 531.5L1081.2 531.5Q1084.3 531.5 1086.1 533.2Q1088.0 535.0 1088.0 537.8L1088.0 537.8Q1088.0 540.0 1086.8 541.6Q1085.7 543.3 1083.7 543.9L1083.7 543.9L1087.6 550.8Q1087.9 551.3 1087.9 551.7L1087.9 551.7Q1087.9 552.2 1087.5 552.6Q1087.1 552.9 1086.5 552.9L1086.5 552.9Q1086.1 552.9 1085.8 552.7Q1085.5 552.5 1085.2 552.1L1085.2 552.1L1081.0 544.3L1075.9 544.3L1075.9 551.6Q1075.9 552.2 1075.6 552.6ZM1075.9 533.9L1075.9 542.0L1081.0 542.0Q1083.0 542.0 1084.1 540.9Q1085.2 539.9 1085.2 537.9L1085.2 537.9Q1085.2 536.0 1084.1 534.9Q1082.9 533.9 1080.9 533.9L1080.9 533.9L1075.9 533.9ZM1099.4 545.3L1091.9 545.3Q1091.3 545.3 1091.0 545.0Q1090.6 544.6 1090.6 544.1Q1090.6 543.6 1091.0 543.2Q1091.3 542.9 1091.9 542.9L1091.9 542.9L1099.4 542.9Q1100.0 542.9 1100.3 543.2Q1100.7 543.6 1100.7 544.1Q1100.7 544.6 1100.3 545.0Q1100.0 545.3 1099.4 545.3L1099.4 545.3ZM1106.4 552.6Q1106.0 552.9 1105.4 552.9Q1104.8 552.9 1104.5 552.6Q1104.1 552.2 1104.1 551.6L1104.1 551.6L1104.1 532.9Q1104.1 532.3 1104.5 531.9Q1104.8 531.5 1105.4 531.5L1105.4 531.5L1112.1 531.5Q1115.1 531.5 1117.0 533.2Q1118.8 535.0 1118.8 537.8L1118.8 537.8Q1118.8 540.0 1117.7 541.6Q1116.5 543.3 1114.5 543.9L1114.5 543.9L1118.4 550.8Q1118.7 551.3 1118.7 551.7L1118.7 551.7Q1118.7 552.2 1118.3 552.6Q1117.9 552.9 1117.3 552.9L1117.3 552.9Q1116.9 552.9 1116.6 552.7Q1116.3 552.5 1116.1 552.1L1116.1 552.1L1111.8 544.3L1106.8 544.3L1106.8 551.6Q1106.8 552.2 1106.4 552.6ZM1106.8 533.9L1106.8 542.0L1111.8 542.0Q1113.9 542.0 1115.0 540.9Q1116.1 539.9 1116.1 537.9L1116.1 537.9Q1116.1 536.0 1114.9 534.9Q1113.8 533.9 1111.7 533.9L1111.7 533.9L1106.8 533.9ZM1122.2 552.9L1122.2 552.9Q1121.6 552.9 1121.2 552.5Q1120.9 552.2 1120.9 551.7L1120.9 551.7Q1120.9 551.4 1121.0 551.0L1121.0 551.0L1127.8 532.6Q1128.3 531.3 1129.5 531.3L1129.5 531.3Q1130.7 531.3 1131.2 532.6L1131.2 532.6L1138.0 551.0Q1138.2 551.4 1138.2 551.7L1138.2 551.7Q1138.2 552.2 1137.8 552.5Q1137.4 552.9 1136.9 552.9L1136.9 552.9Q1135.9 552.9 1135.6 551.9L1135.6 551.9L1133.7 546.6L1125.3 546.6L1123.5 551.9Q1123.1 552.9 1122.2 552.9ZM1129.5 534.7L1126.1 544.4L1132.9 544.4L1129.6 534.7L1129.5 534.7ZM1148.1 552.7L1142.3 552.7Q1141.7 552.7 1141.4 552.3Q1141.0 551.9 1141.0 551.3L1141.0 551.3L1141.0 532.9Q1141.0 532.3 1141.4 531.9Q1141.7 531.5 1142.3 531.5L1142.3 531.5L1148.1 531.5Q1152.8 531.5 1155.5 534.3Q1158.1 537.1 1158.1 542.1L1158.1 542.1Q1158.1 547.1 1155.5 549.9Q1152.8 552.7 1148.1 552.7L1148.1 552.7ZM1143.7 533.9L1143.7 550.3L1148.0 550.3Q1151.5 550.3 1153.5 548.2Q1155.4 546.1 1155.4 542.1L1155.4 542.1Q1155.4 538.1 1153.5 536.0Q1151.6 533.9 1148.0 533.9L1148.0 533.9L1143.7 533.9Z "/></svg>