<svg width="1200" height="630" viewBox="0 0 1200 630" xmlns="http://www.w3.org/2000/svg"><mask id="satori_om-id"><rect x="0" y="0" width="1200" height="630" fill="#fff"/></mask><mask id="satori_om-id-0"><rect x="0" y="0" width="1200" height="630" fill="#fff"/></mask><rect x="0" y="0" width="1200" height="630" fill="#f2f2f2"/><mask id="satori_om-id-0-0"><rect x="0" y="0" width="1200" height="441" fill="#fff"/></mask><mask id="satori_om-id-0-0-0"><rect x="40" y="95" width="1120" height="36" fill="#fff"/></mask><path fill="#8e8e8e" d="M44.8 123.4Q44.4 123.9 43.6 123.9Q42.8 123.9 42.4 123.4Q41.9 123.0 41.9 122.2L41.9 122.2L41.9 104.2Q41.9 103.4 42.4 103.0Q42.8 102.5 43.6 102.5L43.6 102.5L53.8 102.5Q54.5 102.5 55.0 102.9Q55.4 103.3 55.4 103.9Q55.4 104.6 55.0 105.0Q54.5 105.4 53.8 105.4L53.8 105.4L45.2 105.4L45.2 112.0L53.1 112.0Q53.7 112.0 54.1 112.4Q54.5 112.8 54.5 113.4Q54.5 114.1 54.1 114.4Q53.7 114.8 53.1 114.8L53.1 114.8L45.2 114.8L45.2 122.2Q45.2 123.0 44.8 123.4ZM59.2 123.9L59.2 123.9Q58.5 123.9 58.1 123.5Q57.6 123.0 57.6 122.3L57.6 122.3L57.6 109.6Q57.6 108.9 58.0 108.4Q58.5 108.0 59.1 108.0L59.1 108.0Q59.8 108.0 60.2 108.4Q60.6 108.9 60.6 109.6L60.6 109.6L60.6 110.9L60.7 110.9Q61.0 109.6 62.0 108.8Q62.9 108.0 64.1 108.0L64.1 108.0Q64.9 108.0 65.3 108.4L65.3 108.4Q65.8 108.7 65.8 109.5L65.8 109.5Q65.8 110.2 65.3 110.6L65.3 110.6Q64.8 111.0 63.8 111.0L63.8 111.0Q62.3 111.0 61.5 112.0Q60.8 112.9 60.8 114.4L60.8 114.4L60.8 122.3Q60.8 123.0 60.3 123.5Q59.9 123.9 59.2 123.9ZM70.5 105.4Q69.9 105.9 69.2 105.9Q68.4 105.9 67.9 105.4Q67.3 104.9 67.3 104.1L67.3 104.1Q67.3 103.3 67.9 102.8Q68.4 102.3 69.2 102.3L69.2 102.3Q69.9 102.3 70.5 102.8Q71.0 103.3 71.0 104.1L71.0 104.1Q71.0 104.9 70.5 105.4ZM70.3 123.5Q69.9 123.9 69.2 123.9Q68.4 123.9 68.0 123.5Q67.6 123.0 67.6 122.3L67.6 122.3L67.6 109.7Q67.6 108.9 68.0 108.4Q68.4 108.0 69.2 108.0Q69.9 108.0 70.3 108.4Q70.7 108.9 70.7 109.7L70.7 109.7L70.7 122.3Q70.7 123.0 70.3 123.5ZM79.8 123.9L79.8 123.9Q76.8 123.9 75.1 121.8Q73.3 119.6 73.3 116.0Q73.3 112.3 75.0 110.2Q76.8 108.0 79.7 108.0L79.7 108.0Q81.4 108.0 82.6 108.8Q83.9 109.5 84.6 110.8L84.6 110.8L84.6 110.8L84.6 103.9Q84.6 103.1 85.1 102.7Q85.5 102.2 86.2 102.2L86.2 102.2Q86.9 102.2 87.4 102.7Q87.8 103.2 87.8 103.9L87.8 103.9L87.8 122.4Q87.8 123.1 87.4 123.5Q86.9 123.9 86.2 123.9L86.2 123.9Q85.5 123.9 85.1 123.5Q84.6 123.1 84.6 122.4L84.6 122.4L84.6 120.9L84.6 120.9Q84.0 122.3 82.7 123.1Q81.5 123.9 79.8 123.9ZM80.6 121.2L80.6 121.2Q82.4 121.2 83.5 119.8Q84.6 118.4 84.6 116.0L84.6 116.0Q84.6 113.6 83.5 112.1Q82.4 110.7 80.6 110.7L80.6 110.7Q78.7 110.7 77.6 112.1Q76.5 113.5 76.5 116.0L76.5 116.0Q76.5 118.4 77.6 119.8Q78.7 121.2 80.6 121.2ZM95.5 123.9L95.5 123.9Q93.3 123.9 91.8 122.6Q90.4 121.3 90.4 119.3L90.4 119.3Q90.4 117.3 91.9 116.1Q93.4 114.9 96.1 114.7L96.1 114.7L100.4 114.5L100.4 113.3Q100.4 112.0 99.5 111.3Q98.7 110.6 97.3 110.6L97.3 110.6Q96.1 110.6 95.3 111.0Q94.5 111.5 93.9 112.5L93.9 112.5Q93.4 113.2 92.6 113.2L92.6 113.2Q92.0 113.2 91.6 112.8Q91.2 112.4 91.2 111.9L91.2 111.9Q91.2 111.3 91.5 110.8L91.5 110.8Q92.1 109.5 93.7 108.8Q95.3 108.0 97.4 108.0L97.4 108.0Q100.2 108.0 101.9 109.4Q103.5 110.7 103.5 113.0L103.5 113.0L103.5 122.3Q103.5 123.1 103.1 123.5Q102.7 123.9 102.0 123.9L102.0 123.9Q101.3 123.9 100.9 123.5Q100.5 123.1 100.5 122.4L100.5 122.4L100.5 121.1L100.4 121.1Q99.8 122.4 98.4 123.2Q97.1 123.9 95.5 123.9ZM96.4 121.4L96.4 121.4Q98.1 121.4 99.2 120.4Q100.4 119.4 100.4 117.9L100.4 117.9L100.4 116.7L96.6 116.9Q95.1 117.0 94.4 117.6Q93.6 118.2 93.6 119.2L93.6 119.2Q93.6 120.2 94.4 120.8Q95.2 121.4 96.4 121.4ZM108.5 129.4L108.5 129.4Q107.4 129.4 106.8 129.0Q106.2 128.6 106.2 127.9L106.2 127.9Q106.2 127.4 106.5 127.1Q106.9 126.8 107.4 126.8L107.4 126.8Q107.6 126.8 107.8 126.8Q108.1 126.8 108.3 126.8L108.3 126.8Q109.9 126.8 110.6 124.7L110.6 124.7L110.9 123.8L105.7 110.3Q105.6 109.9 105.6 109.4L105.6 109.4Q105.6 108.8 106.0 108.4Q106.5 108.0 107.2 108.0L107.2 108.0Q107.8 108.0 108.1 108.3Q108.5 108.5 108.7 109.2L108.7 109.2L112.6 120.8L112.7 120.8L116.6 109.2Q116.8 108.5 117.2 108.3Q117.5 108.0 118.1 108.0L118.1 108.0Q118.8 108.0 119.2 108.4Q119.7 108.8 119.7 109.4L119.7 109.4Q119.7 109.8 119.5 110.3L119.5 110.3L114.2 124.4Q113.1 127.2 111.9 128.3Q110.6 129.4 108.5 129.4ZM124.1 120.1L124.1 120.1Q124.8 120.1 125.2 120.5Q125.6 120.8 125.6 121.4L125.6 121.4Q125.6 121.8 125.5 122.3L125.5 122.3L124.2 127.3Q123.9 128.4 122.9 128.4L122.9 128.4Q122.3 128.4 122.0 128.1Q121.6 127.7 121.6 127.2L121.6 127.2Q121.6 127.1 121.7 126.8L121.7 126.8L122.6 121.4Q122.8 120.1 124.1 120.1Z M143.4 124.1L143.4 124.1Q139.9 124.1 137.7 122.3Q135.4 120.6 135.4 118.0L135.4 118.0Q135.4 115.9 136.7 114.5Q138.0 113.0 140.1 112.5L140.1 112.5L140.1 112.5Q138.3 111.9 137.3 110.7Q136.2 109.4 136.2 107.7L136.2 107.7Q136.2 105.3 138.2 103.7Q140.3 102.1 143.4 102.1L143.4 102.1Q146.6 102.1 148.6 103.7Q150.6 105.3 150.6 107.8L150.6 107.8Q150.6 109.4 149.6 110.7Q148.5 111.9 146.7 112.5L146.7 112.5L146.7 112.5Q148.9 113 150.1 114.5Q151.4 116.0 151.4 118.0L151.4 118.0Q151.4 119.7 150.4 121.1Q149.4 122.5 147.6 123.3Q145.7 124.1 143.4 124.1ZM143.4 111.4L143.4 111.4Q145.2 111.4 146.3 110.4Q147.4 109.5 147.4 108.0L147.4 108.0Q147.4 106.6 146.3 105.7Q145.2 104.7 143.4 104.7L143.4 104.7Q141.7 104.7 140.6 105.7Q139.5 106.6 139.5 108.0L139.5 108.0Q139.5 109.5 140.6 110.4Q141.7 111.4 143.4 111.4ZM140.1 120.4Q141.4 121.4 143.4 121.4Q145.5 121.4 146.7 120.4Q148.0 119.3 148.0 117.7L148.0 117.7Q148.0 116.1 146.7 115.0Q145.5 114.0 143.4 114.0Q141.4 114.0 140.1 115.0Q138.8 116.1 138.8 117.7L138.8 117.7Q138.8 119.3 140.1 120.4Z M163.5 123.5Q163.1 123.9 162.3 123.9Q161.6 123.9 161.2 123.5Q160.7 123.0 160.7 122.2L160.7 122.2L160.7 104.1Q160.7 103.2 161.2 102.8Q161.7 102.3 162.5 102.3L162.5 102.3Q163.1 102.3 163.5 102.5Q163.9 102.7 164.3 103.3L164.3 103.3L174.7 118.1L174.8 118.1L174.8 104.0Q174.8 103.2 175.2 102.7Q175.6 102.3 176.4 102.3L176.4 102.3Q177.1 102.3 177.5 102.7Q178.0 103.2 178.0 104.0L178.0 104.0L178.0 122.2Q178.0 123.0 177.5 123.5Q177.1 123.9 176.2 123.9L176.2 123.9Q175.6 123.9 175.3 123.7Q174.9 123.5 174.5 122.9L174.5 122.9L164.1 108.1L163.9 108.1L163.9 122.2Q163.9 123.0 163.5 123.5ZM193.4 121.8Q191.4 124.0 188.1 124.0Q184.8 124.0 182.8 121.8Q180.8 119.7 180.8 116.0L180.8 116.0Q180.8 112.3 182.8 110.1Q184.8 108.0 188.1 108.0Q191.4 108.0 193.4 110.1Q195.4 112.3 195.4 116.0L195.4 116.0Q195.4 119.7 193.4 121.8ZM188.1 121.3L188.1 121.3Q190 121.3 191.1 119.9Q192.2 118.5 192.2 116.0L192.2 116.0Q192.2 113.4 191.1 112.0Q190.0 110.6 188.1 110.6Q186.2 110.6 185.1 112.0Q184.0 113.4 184.0 116.0L184.0 116.0Q184.0 118.5 185.1 119.9Q186.2 121.3 188.1 121.3ZM203.8 123.9L203.8 123.9Q203.0 123.9 202.5 123.6Q202.0 123.2 201.6 122.3L201.6 122.3L197.0 110.3Q196.9 109.8 196.9 109.4L196.9 109.4Q196.9 108.8 197.3 108.4Q197.8 108.0 198.5 108.0L198.5 108.0Q199.6 108.0 200.0 109.2L200.0 109.2L203.8 120.6L203.8 120.6L207.7 109.2Q208.1 108.0 209.1 108.0L209.1 108.0Q209.8 108.0 210.3 108.4Q210.7 108.8 210.7 109.4L210.7 109.4Q210.7 109.9 210.5 110.3L210.5 110.3L206.0 122.3Q205.7 123.2 205.1 123.6Q204.6 123.9 203.8 123.9ZM219.5 124.0L219.5 124.0Q216.0 124.0 214.1 121.9Q212.1 119.8 212.1 116.0L212.1 116.0Q212.1 112.4 214.1 110.2Q216.0 108.0 219.3 108.0L219.3 108.0Q222.4 108.0 224.3 110.0Q226.2 112.0 226.2 115.1L226.2 115.1Q226.2 115.9 225.8 116.3Q225.4 116.8 224.7 116.8L224.7 116.8L215.3 116.8L215.3 116.8Q215.3 118.9 216.4 120.2Q217.6 121.4 219.4 121.4L219.4 121.4Q220.7 121.4 221.6 120.9Q222.5 120.4 223.4 119.2L223.4 119.2Q223.9 118.6 224.5 118.6L224.5 118.6Q225.1 118.6 225.5 119.0Q225.9 119.3 225.9 119.9L225.9 119.9Q225.9 120.3 225.6 120.8L225.6 120.8Q224.9 122.3 223.3 123.1Q221.7 124.0 219.5 124.0ZM215.4 114.5L215.4 114.5L223.1 114.5Q223.0 112.7 222.0 111.6Q220.9 110.5 219.3 110.5L219.3 110.5Q217.6 110.5 216.6 111.6Q215.5 112.7 215.4 114.5ZM231.4 123.5Q231.0 123.9 230.3 123.9Q229.5 123.9 229.1 123.5Q228.7 123.0 228.7 122.3L228.7 122.3L228.7 109.6Q228.7 108.9 229.1 108.4Q229.5 108.0 230.2 108.0Q230.9 108.0 231.3 108.4Q231.7 108.8 231.7 109.6L231.7 109.6L231.7 110.8L231.8 110.8Q232.3 109.5 233.4 108.8Q234.6 108.0 236.1 108.0L236.1 108.0Q237.7 108.0 238.9 108.8Q240.0 109.6 240.4 111.0L240.4 111.0L240.5 111.0Q241.1 109.6 242.4 108.8Q243.7 108.0 245.3 108.0L245.3 108.0Q247.6 108.0 249.0 109.4Q250.4 110.8 250.4 113.1L250.4 113.1L250.4 122.3Q250.4 123.0 249.9 123.5Q249.5 123.9 248.8 123.9Q248.1 123.9 247.6 123.5Q247.2 123.0 247.2 122.3L247.2 122.3L247.2 113.8Q247.2 112.3 246.4 111.5Q245.6 110.7 244.2 110.7Q242.8 110.7 242.0 111.6Q241.1 112.6 241.1 114.0L241.1 114.0L241.1 122.3Q241.1 123.0 240.6 123.5Q240.2 123.9 239.5 123.9Q238.8 123.9 238.4 123.5Q238.0 123.0 238.0 122.3L238.0 122.3L238.0 113.6Q238.0 112.3 237.2 111.5Q236.4 110.7 235.0 110.7L235.0 110.7Q233.6 110.7 232.7 111.7Q231.8 112.6 231.8 114.1L231.8 114.1L231.8 122.3Q231.8 123.0 231.4 123.5ZM255.0 123.9L255.0 123.9Q254.4 123.9 253.9 123.5Q253.5 123.1 253.5 122.4L253.5 122.4L253.5 103.9Q253.5 103.2 254.0 102.7Q254.4 102.2 255.1 102.2Q255.8 102.2 256.3 102.7Q256.7 103.2 256.7 103.9L256.7 103.9L256.7 110.9L256.8 110.9Q257.5 109.5 258.7 108.8Q260.0 108.0 261.6 108.0L261.6 108.0Q264.6 108.0 266.3 110.2Q268.1 112.3 268.1 116.0L268.1 116.0Q268.1 119.6 266.3 121.8Q264.6 123.9 261.6 123.9L261.6 123.9Q260.0 123.9 258.7 123.2Q257.4 122.4 256.7 121.0L256.7 121.0L256.6 121.0L256.6 122.4Q256.6 123.1 256.2 123.5Q255.7 123.9 255.0 123.9ZM260.8 121.2L260.8 121.2Q262.6 121.2 263.7 119.8Q264.8 118.4 264.8 116.0L264.8 116.0Q264.8 113.5 263.7 112.1Q262.6 110.7 260.8 110.7L260.8 110.7Q259.0 110.7 257.8 112.1Q256.7 113.6 256.7 116.0L256.7 116.0Q256.7 118.3 257.8 119.8Q259.0 121.2 260.8 121.2ZM277.2 124.0L277.2 124.0Q273.7 124.0 271.8 121.9Q269.8 119.8 269.8 116.0L269.8 116.0Q269.8 112.4 271.8 110.2Q273.7 108.0 277.0 108.0L277.0 108.0Q280.0 108.0 282.0 110.0Q283.9 112.0 283.9 115.1L283.9 115.1Q283.9 115.9 283.5 116.3Q283.1 116.8 282.3 116.8L282.3 116.8L273.0 116.8L273.0 116.8Q273.0 118.9 274.1 120.2Q275.2 121.4 277.1 121.4L277.1 121.4Q278.4 121.4 279.3 120.9Q280.2 120.4 281.1 119.2L281.1 119.2Q281.6 118.6 282.2 118.6L282.2 118.6Q282.8 118.6 283.2 119.0Q283.5 119.3 283.5 119.9L283.5 119.9Q283.5 120.3 283.3 120.8L283.3 120.8Q282.5 122.3 280.9 123.1Q279.3 124.0 277.2 124.0ZM273.0 114.5L273.0 114.5L280.7 114.5Q280.7 112.7 279.6 111.6Q278.6 110.5 277.0 110.5L277.0 110.5Q275.3 110.5 274.2 111.6Q273.1 112.7 273.0 114.5ZM287.9 123.9L287.9 123.9Q287.2 123.9 286.8 123.5Q286.3 123.0 286.3 122.3L286.3 122.3L286.3 109.6Q286.3 108.9 286.8 108.4Q287.2 108.0 287.9 108.0L287.9 108.0Q288.5 108.0 288.9 108.4Q289.3 108.9 289.3 109.6L289.3 109.6L289.3 110.9L289.4 110.9Q289.7 109.6 290.7 108.8Q291.6 108.0 292.8 108.0L292.8 108.0Q293.6 108.0 294.0 108.4L294.0 108.4Q294.5 108.7 294.5 109.5L294.5 109.5Q294.5 110.2 294.0 110.6L294.0 110.6Q293.5 111.0 292.6 111.0L292.6 111.0Q291.0 111.0 290.3 112.0Q289.5 112.9 289.5 114.4L289.5 114.4L289.5 122.3Q289.5 123.0 289.1 123.5Q288.6 123.9 287.9 123.9Z M315.5 123.7L303.8 123.7Q303.1 123.7 302.7 123.3Q302.3 122.9 302.3 122.3L302.3 122.3Q302.3 121.8 302.5 121.5Q302.6 121.1 303.2 120.6L303.2 120.6L309.8 113.9Q311.9 111.8 312.5 110.7Q313.2 109.6 313.2 108.3L313.2 108.3Q313.2 106.8 312.2 105.8Q311.1 104.8 309.5 104.8L309.5 104.8Q306.4 104.8 305.3 108.0L305.3 108.0Q305.1 108.5 304.7 108.8Q304.4 109.0 303.8 109.0L303.8 109.0Q303.1 109.0 302.8 108.6Q302.4 108.3 302.4 107.6L302.4 107.6Q302.4 107.3 302.5 107.0L302.5 107.0Q302.6 106.1 303.2 105.3Q303.7 104.4 304.6 103.7Q305.5 103.0 306.8 102.6Q308.1 102.1 309.6 102.1L309.6 102.1Q312.6 102.1 314.5 103.8Q316.5 105.5 316.5 108.1L316.5 108.1Q316.5 109.9 315.5 111.5Q314.5 113.0 311.8 115.8L311.8 115.8L306.7 120.8L306.7 120.9L315.5 120.9Q316.2 120.9 316.6 121.3Q317.0 121.7 317.0 122.3L317.0 122.3Q317.0 122.9 316.6 123.3Q316.2 123.7 315.5 123.7L315.5 123.7ZM333.4 121.1Q331.2 124.1 327.4 124.1Q323.7 124.1 321.5 121.1Q319.3 118.2 319.3 113.1L319.3 113.1Q319.3 108.0 321.5 105.1Q323.7 102.1 327.4 102.1L327.4 102.1Q331.2 102.1 333.4 105.1Q335.5 108.0 335.5 113.1L335.5 113.1Q335.5 118.1 333.4 121.1ZM327.4 121.3L327.4 121.3Q329.7 121.3 331.0 119.1Q332.2 116.9 332.2 113.1L332.2 113.1Q332.2 109.3 331.0 107.1Q329.7 104.9 327.4 104.9Q325.2 104.9 323.9 107.1Q322.7 109.3 322.7 113.1L322.7 113.1Q322.7 116.9 323.9 119.1Q325.2 121.3 327.4 121.3ZM351.6 123.7L339.9 123.7Q339.2 123.7 338.8 123.3Q338.4 122.9 338.4 122.3L338.4 122.3Q338.4 121.8 338.6 121.5Q338.7 121.1 339.3 120.6L339.3 120.6L345.9 113.9Q348.0 111.8 348.6 110.7Q349.3 109.6 349.3 108.3L349.3 108.3Q349.3 106.8 348.3 105.8Q347.2 104.8 345.6 104.8L345.6 104.8Q342.5 104.8 341.4 108.0L341.4 108.0Q341.2 108.5 340.8 108.8Q340.5 109.0 339.9 109.0L339.9 109.0Q339.2 109.0 338.9 108.6Q338.5 108.3 338.5 107.6L338.5 107.6Q338.5 107.3 338.5 107.0L338.5 107.0Q338.7 106.1 339.3 105.3Q339.8 104.4 340.7 103.7Q341.6 103.0 342.8 102.6Q344.1 102.1 345.7 102.1L345.7 102.1Q348.7 102.1 350.6 103.8Q352.6 105.5 352.6 108.1L352.6 108.1Q352.6 109.9 351.6 111.5Q350.6 113.0 347.9 115.8L347.9 115.8L342.8 120.8L342.8 120.9L351.6 120.9Q352.3 120.9 352.7 121.3Q353.1 121.7 353.1 122.3L353.1 122.3Q353.1 122.9 352.7 123.3Q352.3 123.7 351.6 123.7L351.6 123.7ZM367.4 123.9L367.4 123.9Q366.7 123.9 366.3 123.5Q365.9 123.0 365.9 122.3L365.9 122.3L365.9 119.5L357.2 119.5Q356.3 119.5 355.8 119.0Q355.2 118.4 355.2 117.6L355.2 117.6Q355.2 116.6 356.0 115.3L356.0 115.3Q357.8 112.0 362.8 104.7L362.8 104.7Q363.8 103.3 364.5 102.8Q365.3 102.2 366.3 102.2L366.3 102.2Q367.6 102.2 368.3 102.9Q369.0 103.5 369.0 104.7L369.0 104.7L369.0 116.7L370.7 116.7Q371.3 116.7 371.7 117.1Q372.1 117.5 372.1 118.1Q372.1 118.7 371.7 119.1Q371.3 119.5 370.7 119.5L370.7 119.5L369.0 119.5L369.0 122.3Q369.0 123.0 368.6 123.5Q368.1 123.9 367.4 123.9ZM358.3 116.8L365.9 116.8L365.9 105.1L365.8 105.1Q360.4 112.9 358.3 116.7L358.3 116.7L358.3 116.8Z "/><mask id="satori_om-id-0-0-1"><rect x="40" y="176" width="1120" height="165" fill="#fff"/></mask><path fill="#224d67" d="M57.8 239.1L57.8 239.1Q56.1 239.1 55.1 238.1Q54.1 237.0 54.1 235.2L54.1 235.2L54.1 202.7L44.4 202.7Q42.8 202.7 41.9 201.8Q40.9 201.0 40.9 199.5Q40.9 198.0 41.9 197.2Q42.8 196.3 44.4 196.3L44.4 196.3L71.3 196.3Q72.8 196.3 73.8 197.2Q74.7 198.0 74.7 199.5Q74.7 201.0 73.8 201.8Q72.8 202.7 71.3 202.7L71.3 202.7L61.6 202.7L61.6 235.2Q61.6 237.0 60.6 238.1Q59.6 239.1 57.8 239.1ZM103.3 234.9Q99.3 239.2 92.4 239.2Q85.5 239.2 81.4 234.9Q77.4 230.6 77.4 223.1L77.4 223.1Q77.4 215.6 81.5 211.2Q85.6 206.9 92.4 206.9L92.4 206.9Q99.2 206.9 103.3 211.2Q107.4 215.6 107.4 223.1L107.4 223.1Q107.4 230.6 103.3 234.9ZM86.8 230.7Q88.9 233.4 92.4 233.4Q95.9 233.4 97.9 230.7Q100 228.0 100 223.1L100 223.1Q100 218.2 97.9 215.4Q95.9 212.7 92.4 212.7L92.4 212.7Q88.9 212.7 86.8 215.4Q84.8 218.2 84.8 223.1L84.8 223.1Q84.8 228.0 86.8 230.7ZM121.9 239.2L121.9 239.2Q120.1 239.2 119.0 238.3Q117.9 237.4 117.3 235.4L117.3 235.4L110.6 212.2Q110.3 210.9 110.3 210.0L110.3 210.0Q110.3 208.7 111.2 207.8Q112.2 206.9 113.8 206.9L113.8 206.9Q116.5 206.9 117.2 210.0L117.2 210.0L122.3 231.4L122.5 231.4L127.9 210.2Q128.7 206.9 132.1 206.9L132.1 206.9Q135.4 206.9 136.2 210.2L136.2 210.2L141.6 231.4L141.8 231.4L146.9 210.0Q147.6 206.9 150.3 206.9L150.3 206.9Q151.8 206.9 152.8 207.8Q153.8 208.6 153.8 210.0L153.8 210.0Q153.8 210.9 153.4 212.2L153.4 212.2L146.7 235.4Q146.1 237.3 145 238.3Q143.9 239.2 142.0 239.2L142.0 239.2Q140.1 239.2 139.0 238.3Q137.9 237.4 137.4 235.4L137.4 235.4L132.0 215.9L131.9 215.9L126.5 235.4Q125.6 239.2 121.9 239.2ZM167.0 239.1L167.0 239.1Q162.4 239.1 159.5 236.5Q156.6 233.9 156.6 229.7L156.6 229.7Q156.6 225.6 159.7 223.2Q162.7 220.8 168.4 220.4L168.4 220.4L176.6 219.9L176.6 217.7Q176.6 215.3 175.1 213.9Q173.6 212.6 170.8 212.6L170.8 212.6Q168.7 212.6 167.2 213.4Q165.7 214.2 164.3 216.2L164.3 216.2Q163.2 217.7 161.4 217.7L161.4 217.7Q160.0 217.7 159.2 216.9Q158.3 216.1 158.3 214.8L158.3 214.8Q158.3 213.8 158.8 212.8L158.8 212.8Q160.0 210.1 163.3 208.5Q166.7 206.9 171.1 206.9L171.1 206.9Q176.9 206.9 180.4 209.7Q183.8 212.5 183.8 217.2L183.8 217.2L183.8 235.5Q183.8 237.2 182.9 238.2Q181.9 239.2 180.3 239.2L180.3 239.2Q178.8 239.2 177.8 238.3Q176.9 237.4 176.8 235.8L176.8 235.8L176.8 233.6L176.7 233.6Q175.4 236.1 172.7 237.6Q170.0 239.1 167.0 239.1ZM169.2 233.6L169.2 233.6Q172.3 233.6 174.5 231.7Q176.6 229.8 176.6 227.1L176.6 227.1L176.6 224.7L169.4 225.1Q166.8 225.3 165.3 226.4Q163.9 227.6 163.9 229.4L163.9 229.4Q163.9 231.3 165.3 232.4Q166.8 233.6 169.2 233.6ZM196.0 238.1Q195.0 239.2 193.3 239.2Q191.7 239.2 190.7 238.1Q189.7 237.1 189.7 235.3L189.7 235.3L189.7 210.6Q189.7 208.9 190.7 207.9Q191.6 206.9 193.2 206.9L193.2 206.9Q194.7 206.9 195.7 207.9Q196.7 208.9 196.7 210.6L196.7 210.6L196.7 213.0L196.8 213.0Q197.4 210.3 199.3 208.6Q201.1 207.0 203.4 207.0L203.4 207.0Q205.1 207.0 206.0 207.8L206.0 207.8Q207.1 208.6 207.1 210.4L207.1 210.4Q207.1 212.1 206.0 213.0L206.0 213.0Q204.9 213.9 202.7 214.0L202.7 214.0Q197.0 214.0 197.0 220.4L197.0 220.4L197.0 235.3Q197.0 237.1 196.0 238.1ZM221.9 239.1L221.9 239.1Q216.0 239.1 212.5 234.7Q209.0 230.4 209.0 223.0L209.0 223.0Q209.0 215.7 212.5 211.3Q216.0 207.0 221.9 207.0L221.9 207.0Q225.2 207.0 227.7 208.5Q230.3 210.1 231.5 212.7L231.5 212.7L231.7 212.7L231.7 199.6Q231.7 197.7 232.7 196.7Q233.7 195.7 235.4 195.7Q237.0 195.7 238.0 196.7Q239.0 197.7 239.0 199.6L239.0 199.6L239.0 235.5Q239.0 237.2 238.0 238.2Q237.0 239.2 235.4 239.2L235.4 239.2Q233.8 239.2 232.7 238.2Q231.7 237.2 231.7 235.5L231.7 235.5L231.7 233.1L231.6 233.1Q230.4 235.9 227.9 237.5Q225.4 239.1 221.9 239.1ZM224.1 233.1L224.1 233.1Q227.6 233.1 229.7 230.4Q231.7 227.7 231.7 223.1L231.7 223.1Q231.7 218.5 229.7 215.7Q227.6 213.0 224.1 213.0L224.1 213.0Q220.6 213.0 218.6 215.7Q216.5 218.4 216.5 223.1L216.5 223.1Q216.5 227.7 218.5 230.4Q220.6 233.1 224.1 233.1ZM257.1 239.2L257.1 239.2Q252.3 239.2 248.9 237.5Q245.6 235.8 244.5 233.0L244.5 233.0Q244.2 232.2 244.2 231.5L244.2 231.5Q244.2 230.2 245.0 229.4Q245.9 228.6 247.2 228.6L247.2 228.6Q249.0 228.6 250.4 230.4L250.4 230.4Q251.6 232.3 253.2 233.1Q254.8 233.9 257.4 233.9L257.4 233.9Q260.0 233.9 261.5 232.9Q263.0 231.8 263.0 230.1L263.0 230.1Q263.0 228.7 262.0 227.8Q261.0 227.0 258.7 226.4L258.7 226.4L253.6 225.3Q244.6 223.3 244.6 216.4L244.6 216.4Q244.6 212.1 248.0 209.5Q251.5 206.9 257.2 206.9L257.2 206.9Q261.6 206.9 264.9 208.8Q268.1 210.6 268.8 213.4L268.8 213.4Q269.0 214.0 269.0 214.5L269.0 214.5Q269.0 215.6 268.2 216.4Q267.5 217.1 266.1 217.1L266.1 217.1Q264.3 217.1 263.4 215.7L263.4 215.7Q262.2 214.0 260.7 213.1Q259.3 212.2 257.1 212.2L257.1 212.2Q254.7 212.2 253.2 213.3Q251.7 214.3 251.7 216.0L251.7 216.0Q251.7 218.8 256.2 219.8L256.2 219.8L261.2 220.9Q266.1 222.0 268.2 223.9Q270.4 225.9 270.4 229.3L270.4 229.3Q270.4 233.8 266.7 236.5Q263.1 239.2 257.1 239.2Z M296.1 239.1L296.1 239.1Q291.5 239.1 288.6 236.5Q285.7 233.9 285.7 229.7L285.7 229.7Q285.7 225.6 288.8 223.2Q291.8 220.8 297.5 220.4L297.5 220.4L305.8 219.9L305.8 217.7Q305.8 215.3 304.2 213.9Q302.7 212.6 300.0 212.6L300.0 212.6Q297.8 212.6 296.3 213.4Q294.8 214.2 293.4 216.2L293.4 216.2Q292.3 217.7 290.5 217.7L290.5 217.7Q289.1 217.7 288.3 216.9Q287.4 216.1 287.4 214.8L287.4 214.8Q287.4 213.8 287.9 212.8L287.9 212.8Q289.1 210.1 292.4 208.5Q295.8 206.9 300.2 206.9L300.2 206.9Q306.0 206.9 309.5 209.7Q313.0 212.5 313.0 217.2L313.0 217.2L313.0 235.5Q313.0 237.2 312.0 238.2Q311.0 239.2 309.4 239.2L309.4 239.2Q307.9 239.2 307.0 238.3Q306.0 237.4 305.9 235.8L305.9 235.8L305.9 233.6L305.8 233.6Q304.5 236.1 301.8 237.6Q299.1 239.1 296.1 239.1ZM298.3 233.6L298.3 233.6Q301.4 233.6 303.6 231.7Q305.8 229.8 305.8 227.1L305.8 227.1L305.8 224.7L298.5 225.1Q295.9 225.3 294.5 226.4Q293.0 227.6 293.0 229.4L293.0 229.4Q293.0 231.3 294.5 232.4Q295.9 233.6 298.3 233.6Z M351.0 238.1Q349.8 239.1 347.6 239.1Q345.5 239.1 344.2 238.1Q343.0 237.1 342.1 234.9L342.1 234.9L329.5 201.4Q329.1 200.4 329.1 199.3L329.1 199.3Q329.1 197.7 330.2 196.8Q331.3 195.8 333.0 195.8L333.0 195.8Q335.9 195.8 336.8 198.7L336.8 198.7L347.7 230.5L347.9 230.5L358.7 198.6Q359.2 197.1 360.0 196.5Q360.9 195.8 362.4 195.8L362.4 195.8Q364.1 195.8 365.2 196.8Q366.3 197.7 366.3 199.2L366.3 199.2Q366.3 200.2 365.8 201.3L365.8 201.3L353.1 235.0Q352.3 237.1 351.0 238.1ZM384.3 239.2L384.3 239.2Q377.2 239.2 373.2 235.0Q369.2 230.7 369.2 223.2L369.2 223.2Q369.2 215.7 373.2 211.3Q377.2 206.9 383.9 206.9L383.9 206.9Q390.2 206.9 394.2 210.9Q398.2 215.0 398.2 221.4L398.2 221.4Q398.2 223.0 397.3 223.9Q396.4 224.8 394.8 224.8L394.8 224.8L376.5 224.8L376.5 225.0Q376.5 228.9 378.6 231.3Q380.7 233.6 384.2 233.6L384.2 233.6Q386.7 233.6 388.5 232.6Q390.2 231.7 392.0 229.4L392.0 229.4Q393.1 228.3 394.5 228.3L394.5 228.3Q395.7 228.3 396.6 229.0Q397.4 229.8 397.4 231.1L397.4 231.1Q397.4 231.9 396.9 232.9L396.9 232.9Q395.3 235.9 392.0 237.5Q388.7 239.2 384.3 239.2ZM376.5 220.0L376.5 220.0L391.0 220.0Q390.9 216.6 389.0 214.6Q387.0 212.5 383.9 212.5Q380.8 212.5 378.8 214.6Q376.7 216.7 376.5 220.0ZM409.2 238.1Q408.2 239.2 406.5 239.2Q404.8 239.2 403.9 238.1Q402.9 237.1 402.9 235.3L402.9 235.3L402.9 210.6Q402.9 208.9 403.8 207.9Q404.8 206.9 406.4 206.9L406.4 206.9Q407.9 206.9 408.8 207.9Q409.8 208.9 409.8 210.6L409.8 210.6L409.8 213.0L410.0 213.0Q410.6 210.3 412.4 208.6Q414.3 207.0 416.6 207.0L416.6 207.0Q418.3 207.0 419.2 207.8L419.2 207.8Q420.2 208.6 420.2 210.4L420.2 210.4Q420.2 212.1 419.1 213.0L419.1 213.0Q418.1 213.9 415.9 214.0L415.9 214.0Q410.2 214.0 410.2 220.4L410.2 220.4L410.2 235.3Q410.2 237.1 409.2 238.1ZM430.2 202.0Q429.0 203.2 427.3 203.2Q425.6 203.2 424.4 202.0Q423.3 200.8 423.3 199.2L423.3 199.2Q423.3 197.5 424.4 196.4Q425.6 195.2 427.3 195.2L427.3 195.2Q429.0 195.2 430.2 196.4Q431.4 197.5 431.4 199.2L431.4 199.2Q431.4 200.8 430.2 202.0ZM430.0 238.1Q429.0 239.2 427.3 239.2Q425.6 239.2 424.7 238.1Q423.7 237.1 423.7 235.3L423.7 235.3L423.7 210.7Q423.7 209.0 424.7 207.9Q425.6 206.9 427.3 206.9Q429.0 206.9 430.0 207.9Q431.0 209.0 431.0 210.8L431.0 210.8L431.0 235.3Q431.0 237.1 430.0 238.1ZM445.4 238.2Q444.4 239.2 442.8 239.2Q441.1 239.2 440.1 238.2Q439.1 237.2 439.1 235.4L439.1 235.4L439.1 213.1L437.2 213.1Q435.9 213.1 435.1 212.4Q434.4 211.7 434.4 210.4L434.4 210.4Q434.4 209.1 435.1 208.4Q435.9 207.6 437.2 207.6L437.2 207.6L439.1 207.6L439.1 204.9Q439.1 196.0 447.7 196.0L447.7 196.0Q450.5 196.0 451.9 196.8Q453.3 197.6 453.3 199.0L453.3 199.0Q453.3 200.7 451.7 201.1L451.7 201.1Q451.0 201.3 450.0 201.3L450.0 201.3Q448.0 201.4 447.2 202.3Q446.3 203.2 446.3 205.2L446.3 205.2L446.3 207.6L450.2 207.6Q451.4 207.6 452.2 208.4Q453.0 209.1 453.0 210.4L453.0 210.4Q453.0 211.7 452.2 212.4Q451.4 213.1 450.2 213.1L450.2 213.1L446.4 213.1L446.4 235.4Q446.4 237.2 445.4 238.2ZM464.0 202.0Q462.8 203.2 461.1 203.2Q459.4 203.2 458.2 202.0Q457.1 200.8 457.1 199.2L457.1 199.2Q457.1 197.5 458.2 196.4Q459.4 195.2 461.1 195.2L461.1 195.2Q462.8 195.2 464.0 196.4Q465.2 197.5 465.2 199.2L465.2 199.2Q465.2 200.8 464.0 202.0ZM463.8 238.1Q462.8 239.2 461.1 239.2Q459.4 239.2 458.5 238.1Q457.5 237.1 457.5 235.3L457.5 235.3L457.5 210.7Q457.5 209.0 458.5 207.9Q459.4 206.9 461.1 206.9Q462.8 206.9 463.8 207.9Q464.8 209.0 464.8 210.8L464.8 210.8L464.8 235.3Q464.8 237.1 463.8 238.1ZM480.0 239.1L480.0 239.1Q475.5 239.1 472.6 236.5Q469.6 233.9 469.6 229.7L469.6 229.7Q469.6 225.6 472.7 223.2Q475.8 220.8 481.4 220.4L481.4 220.4L489.7 219.9L489.7 217.7Q489.7 215.3 488.1 213.9Q486.6 212.6 483.9 212.6L483.9 212.6Q481.7 212.6 480.2 213.4Q478.7 214.2 477.4 216.2L477.4 216.2Q476.3 217.7 474.4 217.7L474.4 217.7Q473.1 217.7 472.2 216.9Q471.3 216.1 471.3 214.8L471.3 214.8Q471.3 213.8 471.8 212.8L471.8 212.8Q473.0 210.1 476.4 208.5Q479.7 206.9 484.2 206.9L484.2 206.9Q489.9 206.9 493.4 209.7Q496.9 212.5 496.9 217.2L496.9 217.2L496.9 235.5Q496.9 237.2 495.9 238.2Q494.9 239.2 493.3 239.2L493.3 239.2Q491.8 239.2 490.9 238.3Q489.9 237.4 489.9 235.8L489.9 235.8L489.9 233.6L489.7 233.6Q488.4 236.1 485.7 237.6Q483.1 239.1 480.0 239.1ZM482.2 233.6L482.2 233.6Q485.3 233.6 487.5 231.7Q489.7 229.8 489.7 227.1L489.7 227.1L489.7 224.7L482.5 225.1Q479.8 225.3 478.4 226.4Q476.9 227.6 476.9 229.4L476.9 229.4Q476.9 231.3 478.4 232.4Q479.8 233.6 482.2 233.6ZM509.1 238.2Q508.1 239.2 506.5 239.2Q504.9 239.2 503.9 238.2Q502.9 237.3 502.9 235.5L502.9 235.5L502.9 199.6Q502.9 197.7 504.0 196.7Q505.0 195.7 506.6 195.7Q508.3 195.7 509.2 196.7Q510.2 197.7 510.2 199.6L510.2 199.6L510.2 212.9L510.4 212.9Q511.8 210.1 514.3 208.5Q516.9 207.0 520.1 207.0L520.1 207.0Q526.0 207.0 529.5 211.3Q532.9 215.6 532.9 223.1L532.9 223.1Q532.9 230.5 529.5 234.8Q526.0 239.1 520.1 239.1L520.1 239.1Q516.7 239.1 514.2 237.6Q511.7 236.0 510.2 233.3L510.2 233.3L510.1 233.3L510.1 235.5Q510.1 237.2 509.1 238.2ZM517.9 233.1L517.9 233.1Q521.4 233.1 523.4 230.4Q525.5 227.7 525.5 223.1Q525.5 218.4 523.4 215.7Q521.4 213.0 517.9 213.0L517.9 213.0Q514.5 213.0 512.4 215.8Q510.2 218.5 510.2 223.1L510.2 223.1Q510.2 227.6 512.4 230.3Q514.5 233.1 517.9 233.1ZM544.1 238.2Q543.1 239.2 541.5 239.2Q539.9 239.2 538.9 238.2Q537.8 237.1 537.8 235.3L537.8 235.3L537.8 199.6Q537.8 197.7 538.9 196.7Q539.9 195.7 541.5 195.7Q543.1 195.7 544.1 196.7Q545.1 197.7 545.1 199.6L545.1 199.6L545.1 235.3Q545.1 237.1 544.1 238.2ZM565.1 239.2L565.1 239.2Q558.0 239.2 554.0 235.0Q550.1 230.7 550.1 223.2L550.1 223.2Q550.1 215.7 554.0 211.3Q558.0 206.9 564.7 206.9L564.7 206.9Q571.1 206.9 575.1 210.9Q579.0 215.0 579.0 221.4L579.0 221.4Q579.0 223.0 578.1 223.9Q577.2 224.8 575.6 224.8L575.6 224.8L557.3 224.8L557.3 225.0Q557.3 228.9 559.4 231.3Q561.5 233.6 565.1 233.6L565.1 233.6Q567.5 233.6 569.3 232.6Q571.1 231.7 572.9 229.4L572.9 229.4Q573.9 228.3 575.3 228.3L575.3 228.3Q576.6 228.3 577.4 229.0Q578.2 229.8 578.2 231.1L578.2 231.1Q578.2 231.9 577.7 232.9L577.7 232.9Q576.2 235.9 572.9 237.5Q569.6 239.2 565.1 239.2ZM557.4 220.0L557.4 220.0L571.9 220.0Q571.8 216.6 569.8 214.6Q567.8 212.5 564.8 212.5Q561.7 212.5 559.6 214.6Q557.6 216.7 557.4 220.0Z M610.6 239.1L610.6 239.1Q608.8 239.1 607.8 238.1Q606.8 237.0 606.8 235.2L606.8 235.2L606.8 202.7L597.1 202.7Q595.6 202.7 594.6 201.8Q593.7 201.0 593.7 199.5Q593.7 198.0 594.6 197.2Q595.6 196.3 597.1 196.3L597.1 196.3L624.0 196.3Q625.6 196.3 626.5 197.2Q627.5 198.0 627.5 199.5Q627.5 201.0 626.5 201.8Q625.6 202.7 624.0 202.7L624.0 202.7L614.3 202.7L614.3 235.2Q614.3 237.0 613.3 238.1Q612.3 239.1 610.6 239.1ZM656.1 234.9Q652.0 239.2 645.1 239.2Q638.2 239.2 634.2 234.9Q630.1 230.6 630.1 223.1L630.1 223.1Q630.1 215.6 634.2 211.2Q638.3 206.9 645.1 206.9L645.1 206.9Q652.0 206.9 656.1 211.2Q660.2 215.6 660.2 223.1L660.2 223.1Q660.2 230.6 656.1 234.9ZM639.6 230.7Q641.6 233.4 645.1 233.4Q648.6 233.4 650.7 230.7Q652.7 228.0 652.7 223.1L652.7 223.1Q652.7 218.2 650.7 215.4Q648.6 212.7 645.1 212.7L645.1 212.7Q641.6 212.7 639.6 215.4Q637.5 218.2 637.5 223.1L637.5 223.1Q637.5 228.0 639.6 230.7ZM689.5 234.9Q685.5 239.2 678.6 239.2Q671.7 239.2 667.6 234.9Q663.6 230.6 663.6 223.1L663.6 223.1Q663.6 215.6 667.7 211.2Q671.8 206.9 678.6 206.9L678.6 206.9Q685.4 206.9 689.5 211.2Q693.6 215.6 693.6 223.1L693.6 223.1Q693.6 230.6 689.5 234.9ZM673.0 230.7Q675.1 233.4 678.6 233.4Q682.1 233.4 684.2 230.7Q686.2 228.0 686.2 223.1L686.2 223.1Q686.2 218.2 684.2 215.4Q682.1 212.7 678.6 212.7L678.6 212.7Q675.1 212.7 673.0 215.4Q671.0 218.2 671.0 223.1L671.0 223.1Q671.0 228.0 673.0 230.7ZM704.8 238.2Q703.8 239.2 702.2 239.2Q700.5 239.2 699.5 238.2Q698.5 237.1 698.5 235.3L698.5 235.3L698.5 199.6Q698.5 197.7 699.5 196.7Q700.5 195.7 702.2 195.7Q703.8 195.7 704.8 196.7Q705.8 197.7 705.8 199.6L705.8 199.6L705.8 235.3Q705.8 237.1 704.8 238.2ZM725.7 239.2L725.7 239.2Q718.8 239.2 714.8 234.9Q710.7 230.5 710.7 223.1L710.7 223.1Q710.7 215.7 714.8 211.3Q718.8 206.9 725.6 206.9L725.6 206.9Q730.1 206.9 733.7 209.0Q737.3 211.1 738.4 214.4L738.4 214.4Q738.8 215.4 738.8 216.1L738.8 216.1Q738.8 217.5 737.9 218.3Q737.0 219.1 735.6 219.1L735.6 219.1Q734.5 219.1 733.8 218.6Q733.1 218.1 732.4 217.0L732.4 217.0Q730.1 212.8 725.8 212.8L725.8 212.8Q722.3 212.8 720.2 215.6Q718.1 218.3 718.1 223.1L718.1 223.1Q718.1 227.9 720.2 230.6Q722.3 233.3 725.8 233.3L725.8 233.3Q730.1 233.3 732.4 229.3L732.4 229.3Q733.2 228.1 733.9 227.6Q734.6 227.1 735.8 227.1L735.8 227.1Q737.1 227.1 738.0 227.9Q738.8 228.7 738.8 230.1L738.8 230.1Q738.8 230.9 738.4 231.9L738.4 231.9Q737.1 235.1 733.6 237.2Q730.0 239.2 725.7 239.2ZM750.2 238.2Q749.2 239.2 747.6 239.2Q746.0 239.2 745.0 238.2Q743.9 237.1 743.9 235.3L743.9 235.3L743.9 199.5Q743.9 197.7 744.9 196.7Q745.9 195.7 747.5 195.7L747.5 195.7Q749.2 195.7 750.2 196.7Q751.2 197.7 751.2 199.5L751.2 199.5L751.2 212.9L751.3 212.9Q752.6 210.0 755.1 208.5Q757.6 206.9 761.1 206.9L761.1 206.9Q766.2 206.9 769.1 210.1Q772.0 213.2 772.0 218.6L772.0 218.6L772.0 235.3Q772.0 237.1 771.0 238.2Q770.0 239.2 768.3 239.2Q766.7 239.2 765.7 238.2Q764.7 237.1 764.7 235.3L764.7 235.3L764.7 220.1Q764.7 216.8 763.1 214.9Q761.4 213.1 758.3 213.1L758.3 213.1Q755.0 213.1 753.1 215.2Q751.2 217.3 751.2 220.7L751.2 220.7L751.2 235.3Q751.2 237.1 750.2 238.2ZM786.9 239.1L786.9 239.1Q782.4 239.1 779.5 236.5Q776.6 233.9 776.6 229.7L776.6 229.7Q776.6 225.6 779.6 223.2Q782.7 220.8 788.4 220.4L788.4 220.4L796.6 219.9L796.6 217.7Q796.6 215.3 795.1 213.9Q793.5 212.6 790.8 212.6L790.8 212.6Q788.6 212.6 787.1 213.4Q785.6 214.2 784.3 216.2L784.3 216.2Q783.2 217.7 781.3 217.7L781.3 217.7Q780.0 217.7 779.1 216.9Q778.3 216.1 778.3 214.8L778.3 214.8Q778.3 213.8 778.8 212.8L778.8 212.8Q779.9 210.1 783.3 208.5Q786.6 206.9 791.1 206.9L791.1 206.9Q796.9 206.9 800.3 209.7Q803.8 212.5 803.8 217.2L803.8 217.2L803.8 235.5Q803.8 237.2 802.8 238.2Q801.8 239.2 800.3 239.2L800.3 239.2Q798.7 239.2 797.8 238.3Q796.9 237.4 796.8 235.8L796.8 235.8L796.8 233.6L796.6 233.6Q795.3 236.1 792.6 237.6Q790.0 239.1 786.9 239.1ZM789.2 233.6L789.2 233.6Q792.3 233.6 794.4 231.7Q796.6 229.8 796.6 227.1L796.6 227.1L796.6 224.7L789.4 225.1Q786.7 225.3 785.3 226.4Q783.8 227.6 783.8 229.4L783.8 229.4Q783.8 231.3 785.3 232.4Q786.7 233.6 789.2 233.6ZM816.4 202.0Q815.2 203.2 813.5 203.2Q811.8 203.2 810.6 202.0Q809.4 200.8 809.4 199.2L809.4 199.2Q809.4 197.5 810.6 196.4Q811.8 195.2 813.5 195.2L813.5 195.2Q815.2 195.2 816.4 196.4Q817.5 197.5 817.5 199.2L817.5 199.2Q817.5 200.8 816.4 202.0ZM816.1 238.1Q815.1 239.2 813.5 239.2Q811.8 239.2 810.8 238.1Q809.8 237.1 809.8 235.3L809.8 235.3L809.8 210.7Q809.8 209.0 810.8 207.9Q811.8 206.9 813.5 206.9Q815.1 206.9 816.1 207.9Q817.1 209.0 817.1 210.8L817.1 210.8L817.1 235.3Q817.1 237.1 816.1 238.1ZM829.5 238.2Q828.5 239.2 826.9 239.2Q825.2 239.2 824.2 238.2Q823.3 237.1 823.3 235.3L823.3 235.3L823.3 210.6Q823.3 208.9 824.2 207.9Q825.1 206.9 826.7 206.9Q828.3 206.9 829.3 207.9Q830.3 208.9 830.3 210.6L830.3 210.6L830.3 212.8L830.5 212.8Q833.1 206.9 840.2 206.9L840.2 206.9Q845.3 206.9 848.1 210.0Q850.9 213.1 850.9 218.5L850.9 218.5L850.9 235.3Q850.9 237.1 849.9 238.2Q848.9 239.2 847.3 239.2Q845.6 239.2 844.6 238.2Q843.6 237.1 843.6 235.3L843.6 235.3L843.6 220.0Q843.6 216.6 842.0 214.9Q840.5 213.1 837.4 213.1L837.4 213.1Q834.3 213.1 832.4 215.2Q830.5 217.2 830.5 220.6L830.5 220.6L830.5 235.3Q830.5 237.1 829.5 238.2Z M877.1 238.2Q876.1 239.2 874.4 239.2Q872.8 239.2 871.8 238.2Q870.8 237.2 870.8 235.4L870.8 235.4L870.8 213.1L868.8 213.1Q867.6 213.1 866.8 212.4Q866.0 211.7 866.0 210.4L866.0 210.4Q866.0 209.1 866.8 208.4Q867.6 207.6 868.8 207.6L868.8 207.6L870.8 207.6L870.8 204.9Q870.8 196.0 879.3 196.0L879.3 196.0Q882.1 196.0 883.5 196.8Q884.9 197.6 884.9 199.0L884.9 199.0Q884.9 200.7 883.3 201.1L883.3 201.1Q882.7 201.3 881.7 201.3L881.7 201.3Q879.7 201.4 878.8 202.3Q877.9 203.2 877.9 205.2L877.9 205.2L877.9 207.6L881.9 207.6Q883.1 207.6 883.9 208.4Q884.7 209.1 884.7 210.4L884.7 210.4Q884.7 211.7 883.9 212.4Q883.1 213.1 881.9 213.1L881.9 213.1L878.1 213.1L878.1 235.4Q878.1 237.2 877.1 238.2ZM913.7 234.9Q909.6 239.2 902.7 239.2Q895.8 239.2 891.7 234.9Q887.7 230.6 887.7 223.1L887.7 223.1Q887.7 215.6 891.8 211.2Q895.9 206.9 902.7 206.9L902.7 206.9Q909.6 206.9 913.6 211.2Q917.7 215.6 917.7 223.1L917.7 223.1Q917.7 230.6 913.7 234.9ZM897.1 230.7Q899.2 233.4 902.7 233.4Q906.2 233.4 908.3 230.7Q910.3 228.0 910.3 223.1L910.3 223.1Q910.3 218.2 908.3 215.4Q906.2 212.7 902.7 212.7L902.7 212.7Q899.2 212.7 897.2 215.4Q895.1 218.2 895.1 223.1L895.1 223.1Q895.1 228.0 897.1 230.7ZM928.7 238.1Q927.7 239.2 926.1 239.2Q924.4 239.2 923.4 238.1Q922.4 237.1 922.4 235.3L922.4 235.3L922.4 210.6Q922.4 208.9 923.4 207.9Q924.3 206.9 925.9 206.9L925.9 206.9Q927.4 206.9 928.4 207.9Q929.4 208.9 929.4 210.6L929.4 210.6L929.4 213.0L929.5 213.0Q930.2 210.3 932.0 208.6Q933.8 207.0 936.2 207.0L936.2 207.0Q937.9 207.0 938.7 207.8L938.7 207.8Q939.8 208.6 939.8 210.4L939.8 210.4Q939.8 212.1 938.7 213.0L938.7 213.0Q937.6 213.9 935.5 214.0L935.5 214.0Q929.7 214.0 929.7 220.4L929.7 220.4L929.7 235.3Q929.7 237.1 928.7 238.1Z M50.3 320.6Q49.3 321.7 47.5 321.7Q45.7 321.7 44.7 320.6Q43.7 319.6 43.7 317.7L43.7 317.7L43.7 282.7Q43.7 280.9 44.7 279.8Q45.7 278.8 47.5 278.8L47.5 278.8L60.5 278.8Q67.3 278.8 71.2 282.3Q75.1 285.9 75.1 292.0L75.1 292.0Q75.1 296.1 73.1 299.3Q71.1 302.5 67.4 303.9L67.4 303.9L74.1 315.6Q74.9 317.0 74.9 318.2L74.9 318.2Q74.9 319.7 73.8 320.7Q72.8 321.7 71.1 321.7L71.1 321.7Q69.8 321.7 69.0 321.1Q68.2 320.5 67.3 318.9L67.3 318.9L59.7 305.2L51.3 305.2L51.3 317.7Q51.3 319.6 50.3 320.6ZM51.3 284.9L51.3 299.4L59.8 299.4Q63.4 299.4 65.4 297.5Q67.4 295.6 67.4 292.1L67.4 292.1Q67.4 288.8 65.3 286.9Q63.2 284.9 59.7 284.9L59.7 284.9L51.3 284.9ZM105.2 317.4Q101.1 321.7 94.2 321.7Q87.3 321.7 83.3 317.4Q79.2 313.1 79.2 305.6L79.2 305.6Q79.2 298.1 83.3 293.7Q87.4 289.4 94.2 289.4L94.2 289.4Q101.1 289.4 105.2 293.7Q109.3 298.1 109.3 305.6L109.3 305.6Q109.3 313.1 105.2 317.4ZM88.7 313.2Q90.7 315.9 94.2 315.9Q97.7 315.9 99.8 313.2Q101.8 310.5 101.8 305.6L101.8 305.6Q101.8 300.7 99.8 297.9Q97.7 295.2 94.2 295.2L94.2 295.2Q90.7 295.2 88.7 297.9Q86.6 300.7 86.6 305.6L86.6 305.6Q86.6 310.5 88.7 313.2ZM120.3 320.7Q119.3 321.7 117.7 321.7Q116.1 321.7 115.1 320.7Q114.2 319.8 114.2 318.0L114.2 318.0L114.2 282.1Q114.2 280.2 115.2 279.2Q116.2 278.2 117.8 278.2Q119.5 278.2 120.4 279.2Q121.4 280.2 121.4 282.1L121.4 282.1L121.4 295.4L121.6 295.4Q123.0 292.6 125.5 291.0Q128.1 289.5 131.3 289.5L131.3 289.5Q137.2 289.5 140.7 293.8Q144.2 298.1 144.2 305.6L144.2 305.6Q144.2 313.0 140.7 317.3Q137.2 321.6 131.3 321.6L131.3 321.6Q127.9 321.6 125.4 320.1Q122.9 318.5 121.4 315.8L121.4 315.8L121.3 315.8L121.3 318.0Q121.3 319.7 120.3 320.7ZM129.1 315.6L129.1 315.6Q132.6 315.6 134.6 312.9Q136.7 310.2 136.7 305.6Q136.7 300.9 134.6 298.2Q132.6 295.5 129.1 295.5L129.1 295.5Q125.7 295.5 123.6 298.3Q121.4 301.0 121.4 305.6L121.4 305.6Q121.4 310.1 123.6 312.8Q125.7 315.6 129.1 315.6ZM173.5 317.4Q169.5 321.7 162.6 321.7Q155.7 321.7 151.6 317.4Q147.5 313.1 147.5 305.6L147.5 305.6Q147.5 298.1 151.7 293.7Q155.8 289.4 162.6 289.4L162.6 289.4Q169.4 289.4 173.5 293.7Q177.6 298.1 177.6 305.6L177.6 305.6Q177.6 313.1 173.5 317.4ZM157.0 313.2Q159.1 315.9 162.6 315.9Q166.1 315.9 168.1 313.2Q170.2 310.5 170.2 305.6L170.2 305.6Q170.2 300.7 168.1 297.9Q166.1 295.2 162.6 295.2L162.6 295.2Q159.1 295.2 157.0 297.9Q155.0 300.7 155.0 305.6L155.0 305.6Q155.0 310.5 157.0 313.2ZM184.3 313.4L184.3 313.4L184.3 295.6L182.4 295.6Q181.0 295.6 180.2 294.9Q179.4 294.1 179.4 292.8L179.4 292.8Q179.4 291.5 180.2 290.8Q181.0 290.0 182.4 290.0L182.4 290.0L184.3 290.0L184.3 285.9Q184.3 284.1 185.3 283.1Q186.3 282.1 188.0 282.1L188.0 282.1Q189.6 282.1 190.6 283.1Q191.6 284.1 191.6 285.9L191.6 285.9L191.6 290.0L195.0 290.0Q196.4 290.0 197.1 290.8Q197.9 291.5 197.9 292.8L197.9 292.8Q197.9 294.1 197.1 294.9Q196.3 295.6 195.0 295.6L195.0 295.6L191.6 295.6L191.6 311.8Q191.6 313.6 192.3 314.4Q193.0 315.2 194.5 315.4L194.5 315.4L195.1 315.4Q198.0 315.7 198.0 318.1L198.0 318.1Q198.0 319.7 196.7 320.6Q195.3 321.4 192.8 321.4L192.8 321.4L192.5 321.4Q184.3 321.4 184.3 313.4ZM209.1 284.5Q207.9 285.7 206.2 285.7Q204.5 285.7 203.4 284.5Q202.2 283.3 202.2 281.7L202.2 281.7Q202.2 280.0 203.4 278.9Q204.5 277.7 206.2 277.7L206.2 277.7Q208.0 277.7 209.1 278.9Q210.3 280.0 210.3 281.7L210.3 281.7Q210.3 283.3 209.1 284.5ZM208.9 320.6Q207.9 321.7 206.2 321.7Q204.6 321.7 203.6 320.6Q202.6 319.6 202.6 317.8L202.6 317.8L202.6 293.2Q202.6 291.5 203.6 290.4Q204.6 289.4 206.2 289.4Q207.9 289.4 208.9 290.4Q209.9 291.5 209.9 293.3L209.9 293.3L209.9 317.8Q209.9 319.6 208.9 320.6ZM229.7 321.7L229.7 321.7Q222.8 321.7 218.8 317.4Q214.7 313.0 214.7 305.6L214.7 305.6Q214.7 298.2 218.8 293.8Q222.8 289.4 229.6 289.4L229.6 289.4Q234.2 289.4 237.7 291.5Q241.3 293.6 242.4 296.9L242.4 296.9Q242.8 297.9 242.8 298.6L242.8 298.6Q242.8 300.0 241.9 300.8Q241.0 301.6 239.6 301.6L239.6 301.6Q238.5 301.6 237.8 301.1Q237.1 300.6 236.4 299.5L236.4 299.5Q234.2 295.3 229.8 295.3L229.8 295.3Q226.3 295.3 224.2 298.1Q222.1 300.8 222.1 305.6L222.1 305.6Q222.1 310.4 224.2 313.1Q226.3 315.8 229.8 315.8L229.8 315.8Q234.2 315.8 236.4 311.8L236.4 311.8Q237.2 310.6 237.9 310.1Q238.6 309.6 239.8 309.6L239.8 309.6Q241.1 309.6 242.0 310.4Q242.9 311.2 242.9 312.6L242.9 312.6Q242.9 313.4 242.4 314.4L242.4 314.4Q241.1 317.6 237.6 319.7Q234.0 321.7 229.7 321.7ZM259.7 321.7L259.7 321.7Q254.9 321.7 251.6 320.0Q248.2 318.3 247.1 315.5L247.1 315.5Q246.8 314.7 246.8 314.0L246.8 314.0Q246.8 312.7 247.6 311.9Q248.5 311.1 249.8 311.1L249.8 311.1Q251.6 311.1 253.0 312.9L253.0 312.9Q254.2 314.8 255.8 315.6Q257.4 316.4 260.0 316.4L260.0 316.4Q262.6 316.4 264.1 315.4Q265.6 314.3 265.6 312.6L265.6 312.6Q265.6 311.2 264.6 310.3Q263.7 309.5 261.3 308.9L261.3 308.9L256.2 307.8Q247.2 305.8 247.2 298.9L247.2 298.9Q247.2 294.6 250.6 292.0Q254.1 289.4 259.8 289.4L259.8 289.4Q264.2 289.4 267.5 291.3Q270.7 293.1 271.4 295.9L271.4 295.9Q271.6 296.5 271.6 297.0L271.6 297.0Q271.6 298.1 270.8 298.9Q270.1 299.6 268.8 299.6L268.8 299.6Q266.9 299.6 266.0 298.2L266.0 298.2Q264.8 296.5 263.3 295.6Q261.9 294.7 259.7 294.7L259.7 294.7Q257.3 294.7 255.8 295.8Q254.3 296.8 254.3 298.5L254.3 298.5Q254.3 301.3 258.8 302.3L258.8 302.3L263.8 303.4Q268.7 304.5 270.8 306.4Q273.0 308.4 273.0 311.8L273.0 311.8Q273.0 316.3 269.3 319.0Q265.7 321.7 259.7 321.7Z "/><defs><clipPath id="satori_bc-id-0-1"><rect x="0" y="441" width="1200" height="189"/></clipPath></defs><mask id="satori_om-id-0-1"><rect x="0" y="442" width="1200" height="188" fill="#fff"/><path width="1200" height="189" fill="none" stroke="#000" stroke-width="2" d="M0,441 A0,0 0 0 1 0,441 h1200 A0,0 0 0 1 1200,441"/></mask><path width="1200" height="189" clip-path="url(#satori_bc-id-0-1)" fill="none" stroke="#dbdbdb" stroke-width="2" d="M0,441 A0,0 0 0 1 0,441 h1200 A0,0 0 0 1 1200,441"/><mask id="satori_om-id-0-1-0"><rect x="40" y="482" width="389" height="108" fill="#fff"/></mask><clipPath id="satori_cp-id-0-1-0-0"><rect x="40" y="504" width="64" height="64"/></clipPath><mask id="satori_om-id-0-1-0-0"><rect x="40" y="504" width="64" height="64" fill="#fff"/></mask><image x="40" y="504" width="64" height="64" href="data:image/svg+xml;utf8,%3Csvg  xmlns=%22http://www.w3.org/2000/svg%22 width=%2264%22 height=%2264%22 viewBox=%220 0 128 128%22%3E%3Cpath fill=%22%23224d67%22 d=%22M22.5 14.8c2.9 1.3 99 44 99 44c2.7 1.2 2.9 3.1 2 12.4c-1 10.5-1.9 37.8-40.2 42.9c-24.6 3.2-55.9-4.3-70.9-27.2C-6 58.8 11 23.4 14.8 17.7c2.4-3.5 4.8-4.2 7.7-2.9%22%3E%3C/path%3E%3Cpath fill=%22%23f0f4c3%22 d=%22M121.5 58.8c-.3-.2-92-40.8-98.9-43.9C9.6 31.5-3.8 76 27.9 96.2c33.6 21.5 78.7-10.2 93.6-37.4%22%3E%3C/path%3E%3Cpath fill=%22%23f0f4c3%22 d=%22M117.7 57c-.3-.2-86.7-38.4-93.2-41.3c-12.2 15.5-23.9 59.1 5.7 78c31.4 20.2 73.6-11.2 87.5-36.7%22%3E%3C/path%3E%3Cpath fill=%22%23cb2a42%22 d=%22M56.2 37.6L19.5 48.2c-2.5.8-4.4 2.8-5 5.3c-1.9 8.5.8 23.3 8.9 29.8c3.5 2.7 8.6 1.8 10.8-2.1L58.5 41c1.3-1.7.5-4.2-2.3-3.4m14.3 2.9s14.6 30.1 16 33s6.3 4.7 9.9 2.8c10.7-5.6 15.5-12.4 19.2-20.2c-8.9-3.9-42.4-18.8-42.4-18.8c-2.4-1.1-4 .6-2.7 3.2m-8.6 1.9C60.3 45.1 39.5 81 37.6 84.1c-1.9 3.2-.7 7.5 2.7 9.2c12.3 6.5 30.9.4 39.6-7c2.2-1.9 4.5-5.1 3.2-8.2S68.9 44.6 67.8 42.3c-1.2-2.7-4.1-2.8-5.9.1%22%3E%3C/path%3E%3Cpath fill=%22%23f0f4c3%22 d=%22M52.2 42.2c-1.4.4-10.1 3-11.1 3.4c-1.4.5-2.2 1.7-1.9 2.5c.3.9 1.7 1.1 3.1.6c.8-.3 7.1-3.9 9.5-5.2c-3.1 2.4-10.2 9.4-11.1 10.3c-1.4 1.5-1.7 3.4-.8 4.3c1 .9 2.9.5 4.3-1c1.2-1.3 8.5-12.8 9.1-13.9s.4-1.4-1.1-1m10.1 16.4c0-2.2 1.4-10.3 1.8-12.3c.4-1.6 1.5-1.8 1.8.5s1.7 9.7 1.7 11.8s-1.2 3.3-2.7 3.3c-1.4 0-2.6-1.1-2.6-3.3M79.9 49c-1.2-1.8-3.3-4.9-4.1-6.1c-.7-1.2.1-2.1 1.8-.9s4 2.9 5.4 4c1.6 1.3 1.9 3 .8 4s-2.7.8-3.9-1%22%3E%3C/path%3E%3Cellipse cx=%2287.3%22 cy=%22103.12%22 fill=%22%23cb2a42%22 rx=%223.4%22 ry=%222.3%22 transform=%22rotate(-27.098 87.298 103.126)%22%3E%3C/ellipse%3E%3Cellipse cx=%2298.89%22 cy=%22103.82%22 fill=%22%23cb2a42%22 rx=%223.4%22 ry=%222.3%22 transform=%22rotate(-30.642 98.887 103.818)%22%3E%3C/ellipse%3E%3Cellipse cx=%22102.02%22 cy=%2293.8%22 fill=%22%23cb2a42%22 rx=%223.4%22 ry=%222.3%22 transform=%22rotate(-37.16 102.017 93.797)%22%3E%3C/ellipse%3E%3Cpath fill=%22%23cb2a42%22 d=%22M57.6 30.3c-8.3-3.7-24.4-10.7-29.6-13c-3.6 2.2-9.7 11.4-11.2 21.2c-.6 3.6 1.7 5.9 5.3 4.9c0 0 33.7-9.3 35.3-9.7c1.6-.5 2-2.6.2-3.4%22%3E%3C/path%3E%3C/svg%3E" preserveAspectRatio="none" clip-path="url(#satori_cp-id-0-1-0-0)" mask="url(#satori_om-id-0-1-0-0)"/><mask id="satori_om-id-0-1-0-0-0"><rect x="40" y="504" width="0" height="64" fill="#fff"/></mask><mask id="satori_om-id-0-1-0-0-1"><rect x="40" y="504" width="0" height="64" fill="#fff"/></mask><mask id="satori_om-id-0-1-0-0-2"><rect x="40" y="504" width="0" height="64" fill="#fff"/></mask><mask id="satori_om-id-0-1-0-0-3"><rect x="40" y="504" width="0" height="64" fill="#fff"/></mask><mask id="satori_om-id-0-1-0-0-4"><rect x="40" y="504" width="0" height="64" fill="#fff"/></mask><mask id="satori_om-id-0-1-0-0-5"><rect x="40" y="504" width="0" height="64" fill="#fff"/></mask><mask id="satori_om-id-0-1-0-0-6"><rect x="40" y="504" width="0" height="64" fill="#fff"/></mask><mask id="satori_om-id-0-1-0-0-7"><rect x="40" y="504" width="0" height="64" fill="#fff"/></mask><mask id="satori_om-id-0-1-0-0-8"><rect x="40" y="504" width="0" height="64" fill="#fff"/></mask><mask id="satori_om-id-0-1-0-1"><rect x="116" y="512" width="313" height="48" fill="#fff"/></mask><path fill="#545454" d="M133.0 553.6L133.0 553.6Q126.5 553.6 122.7 550.2Q118.8 546.7 118.8 541.1L118.8 541.1L118.8 522.5Q118.8 520.7 119.8 519.7Q120.7 518.8 122.4 518.8Q124.0 518.8 125.0 519.7Q125.9 520.7 125.9 522.5L125.9 522.5L125.9 540.4Q125.9 543.7 127.8 545.6Q129.6 547.6 133.0 547.6L133.0 547.6Q136.3 547.6 138.2 545.6Q140.1 543.7 140.1 540.4L140.1 540.4L140.1 522.5Q140.1 520.7 141.0 519.7Q141.9 518.8 143.6 518.8Q145.3 518.8 146.2 519.7Q147.1 520.7 147.1 522.5L147.1 522.5L147.1 541.1Q147.1 546.7 143.3 550.2Q139.4 553.6 133.0 553.6ZM158.9 552.6Q158.0 553.6 156.3 553.6Q154.6 553.6 153.7 552.6Q152.8 551.6 152.8 549.9L152.8 549.9L152.8 522.9Q152.8 521.2 153.7 520.2Q154.6 519.2 156.3 519.2L156.3 519.2L166.6 519.2Q172.4 519.2 175.6 522.1Q178.9 525.0 178.9 530.0L178.9 530.0Q178.9 533.2 177.3 535.8Q175.8 538.3 173.0 539.4L173.0 539.4L177.9 547.9Q178.7 549.2 178.7 550.3L178.7 550.3Q178.7 551.7 177.7 552.6Q176.7 553.6 175.1 553.6L175.1 553.6Q173.8 553.6 173.1 553.0Q172.4 552.5 171.5 550.9L171.5 550.9L165.9 540.7L159.9 540.7L159.9 549.9Q159.9 551.6 158.9 552.6ZM159.9 524.8L159.9 535.6L165.9 535.6Q168.6 535.6 170.1 534.1Q171.6 532.7 171.6 530.2L171.6 530.2Q171.6 527.7 170.0 526.2Q168.5 524.8 165.9 524.8L165.9 524.8L159.9 524.8ZM196.2 542.3L186.4 542.3Q185.0 542.3 184.1 541.5Q183.2 540.7 183.2 539.3Q183.2 537.9 184.1 537.1Q185.0 536.3 186.4 536.3L186.4 536.3L196.2 536.3Q197.6 536.3 198.5 537.1Q199.4 537.9 199.4 539.3Q199.4 540.7 198.5 541.5Q197.6 542.3 196.2 542.3L196.2 542.3ZM210.9 552.6Q209.9 553.6 208.3 553.6Q206.6 553.6 205.6 552.6Q204.7 551.6 204.7 549.9L204.7 549.9L204.7 522.9Q204.7 521.2 205.6 520.2Q206.6 519.2 208.3 519.2L208.3 519.2L218.6 519.2Q224.4 519.2 227.6 522.1Q230.8 525.0 230.8 530.0L230.8 530.0Q230.8 533.2 229.3 535.8Q227.8 538.3 225.0 539.4L225.0 539.4L229.9 547.9Q230.6 549.2 230.6 550.3L230.6 550.3Q230.6 551.7 229.6 552.6Q228.6 553.6 227.0 553.6L227.0 553.6Q225.8 553.6 225.0 553.0Q224.3 552.5 223.4 550.9L223.4 550.9L217.8 540.7L211.8 540.7L211.8 549.9Q211.8 551.6 210.9 552.6ZM211.8 524.8L211.8 535.6L217.9 535.6Q220.6 535.6 222.0 534.1Q223.5 532.7 223.5 530.2L223.5 530.2Q223.5 527.7 222.0 526.2Q220.4 524.8 217.8 524.8L217.8 524.8L211.8 524.8ZM237.7 553.5L237.7 553.5Q236.0 553.5 235.1 552.6Q234.1 551.7 234.1 550.2L234.1 550.2Q234.1 549.3 234.6 547.9L234.6 547.9L243.8 522.8Q244.6 520.7 245.8 519.7Q247.1 518.8 249.1 518.8L249.1 518.8Q251.2 518.8 252.5 519.7Q253.8 520.7 254.5 522.8L254.5 522.8L263.8 547.9Q264.3 549.2 264.3 550.2L264.3 550.2Q264.3 551.6 263.3 552.6Q262.3 553.5 260.7 553.5L260.7 553.5Q259.2 553.5 258.4 552.8Q257.5 552.1 257.0 550.4L257.0 550.4L255.3 545.0L243.1 545.0L241.3 550.3Q240.8 552.0 239.9 552.8Q239.1 553.5 237.7 553.5ZM249.0 525.7L244.6 539.6L253.6 539.6L249.1 525.7L249.0 525.7ZM281.5 553.1L272.1 553.1Q270.4 553.1 269.5 552.1Q268.6 551.1 268.6 549.4L268.6 549.4L268.6 522.9Q268.6 521.2 269.5 520.2Q270.4 519.2 272.1 519.2L272.1 519.2L281.5 519.2Q289.1 519.2 293.4 523.6Q297.6 528.0 297.6 536.0L297.6 536.0Q297.6 544.1 293.3 548.6Q289.1 553.1 281.5 553.1L281.5 553.1ZM275.6 525.1L275.6 547.2L280.6 547.2Q285.4 547.2 287.9 544.4Q290.4 541.5 290.4 536.0L290.4 536.0Q290.4 530.8 287.8 527.9Q285.3 525.1 280.6 525.1L280.6 525.1L275.6 525.1Z M333.2 553.1L314.5 553.1Q312.9 553.1 312.0 552.2Q311.2 551.4 311.2 550.0L311.2 550.0Q311.2 549.1 311.6 548.3Q312.0 547.5 313.1 546.5L313.1 546.5L323.2 536.9Q326.3 533.8 327.4 532.2Q328.4 530.6 328.4 528.8L328.4 528.8Q328.4 526.7 327.0 525.3Q325.5 524 323.3 524L323.3 524Q319.3 524 317.4 528.1L317.4 528.1Q316.8 529.2 316.1 529.7Q315.4 530.1 314.3 530.1L314.3 530.1Q312.9 530.1 312.1 529.4Q311.3 528.6 311.3 527.3L311.3 527.3Q311.3 526.5 311.5 525.7L311.5 525.7Q312.5 522.7 315.6 520.6Q318.8 518.5 323.3 518.5L323.3 518.5Q328.7 518.5 332.0 521.2Q335.3 524.0 335.3 528.3L335.3 528.3Q335.3 529.9 335.0 531.2Q334.6 532.5 333.6 533.9Q332.6 535.3 331.3 536.8Q330.0 538.2 327.8 540.3L327.8 540.3L320.5 547.3L320.5 547.4L333.2 547.4Q334.6 547.4 335.4 548.2Q336.1 549.0 336.1 550.3L336.1 550.3Q336.1 551.5 335.4 552.3Q334.6 553.1 333.2 553.1L333.2 553.1ZM363.6 549.0Q359.9 553.8 353.5 553.8Q347.1 553.8 343.4 549.1Q339.7 544.3 339.7 536.1L339.7 536.1Q339.7 527.9 343.4 523.2Q347.1 518.5 353.5 518.5Q359.9 518.5 363.6 523.2Q367.3 527.9 367.3 536.1L367.3 536.1Q367.3 544.3 363.6 549.0ZM348.6 545.0Q350.4 548.1 353.5 548.1Q356.7 548.1 358.4 545.0Q360.1 541.9 360.1 536.1L360.1 536.1Q360.1 530.4 358.4 527.2Q356.7 524.1 353.5 524.1L353.5 524.1Q350.4 524.1 348.7 527.3Q346.9 530.4 346.9 536.1L346.9 536.1Q346.9 541.9 348.6 545.0ZM393.6 553.1L374.9 553.1Q373.3 553.1 372.4 552.2Q371.6 551.4 371.6 550.0L371.6 550.0Q371.6 549.1 372.0 548.3Q372.5 547.5 373.5 546.5L373.5 546.5L383.6 536.9Q386.8 533.8 387.8 532.2Q388.9 530.6 388.9 528.8L388.9 528.8Q388.9 526.7 387.4 525.3Q386.0 524 383.7 524L383.7 524Q379.7 524 377.9 528.1L377.9 528.1Q377.3 529.2 376.5 529.7Q375.8 530.1 374.7 530.1L374.7 530.1Q373.3 530.1 372.5 529.4Q371.7 528.6 371.7 527.3L371.7 527.3Q371.7 526.5 372.0 525.7L372.0 525.7Q372.9 522.7 376.0 520.6Q379.2 518.5 383.8 518.5L383.8 518.5Q389.1 518.5 392.4 521.2Q395.8 524.0 395.8 528.3L395.8 528.3Q395.8 529.9 395.4 531.2Q395 532.5 394.0 533.9Q393.1 535.3 391.7 536.8Q390.4 538.2 388.2 540.3L388.2 540.3L380.9 547.3L380.9 547.4L393.6 547.4Q395 547.4 395.8 548.2Q396.6 549.0 396.6 550.3L396.6 550.3Q396.6 551.5 395.8 552.3Q395 553.1 393.6 553.1L393.6 553.1ZM413.6 553.8L413.6 553.8Q409.6 553.8 406.3 552.1Q403.1 550.4 401.8 547.7L401.8 547.7Q401.3 546.5 401.3 545.4L401.3 545.4Q401.3 544.0 402.0 543.3Q402.8 542.5 404.2 542.5L404.2 542.5Q405.3 542.5 406.0 542.9Q406.7 543.3 407.3 544.3L407.3 544.3Q409.3 548.2 413.6 548.2L413.6 548.2Q416.3 548.2 418.1 546.4Q419.9 544.6 419.9 541.9L419.9 541.9Q419.9 539.2 418.1 537.5Q416.4 535.8 413.6 535.8L413.6 535.8Q410.8 535.8 408.7 537.8L408.7 537.8Q407.6 538.8 406.9 539.1Q406.2 539.4 405.0 539.4L405.0 539.4Q403.4 539.4 402.5 538.4Q401.6 537.4 401.7 535.9L401.7 535.9Q401.7 535.8 401.7 535.6L401.7 535.6L402.7 523.3Q402.9 521.1 404.0 520.2Q405.1 519.2 407.2 519.2L407.2 519.2L422 519.2Q423.3 519.2 424.1 520.0Q424.9 520.8 424.9 522.1Q424.9 523.3 424.1 524.1Q423.3 524.9 422 524.9L422 524.9L408.6 524.9L407.8 534.3L408.0 534.3Q409.0 532.6 411.0 531.7Q413.0 530.7 415.6 530.7L415.6 530.7Q420.4 530.7 423.5 533.8Q426.6 536.9 426.6 541.7L426.6 541.7Q426.6 547.1 423.0 550.5Q419.4 553.8 413.6 553.8Z "/><mask id="satori_om-id-0-1-1"><rect x="1013" y="524" width="147" height="36" fill="#fff"/></mask><path fill="#8e8e8e" d="M1016.9 552.6Q1016.5 552.9 1016.0 552.9Q1015.4 552.9 1015.1 552.6Q1014.8 552.2 1014.8 551.7L1014.8 551.7L1014.8 532.6Q1014.8 532.0 1015.1 531.6Q1015.5 531.3 1016.1 531.3Q1016.6 531.3 1017.0 531.6Q1017.3 532.0 1017.3 532.6L1017.3 532.6L1017.3 540.0L1017.4 540.0Q1018.1 538.7 1019.4 537.9Q1020.7 537.2 1022.3 537.2L1022.3 537.2Q1025.2 537.2 1026.9 539.3Q1028.7 541.5 1028.7 545.0L1028.7 545.0Q1028.7 548.6 1026.9 550.8Q1025.2 552.9 1022.2 552.9L1022.2 552.9Q1020.6 552.9 1019.3 552.2Q1018.0 551.4 1017.3 550.1L1017.3 550.1L1017.2 550.1L1017.2 551.7Q1017.2 552.2 1016.9 552.6ZM1021.7 550.7L1021.7 550.7Q1023.8 550.7 1024.9 549.2Q1026.1 547.7 1026.1 545.0L1026.1 545.0Q1026.1 542.5 1024.9 540.9Q1023.8 539.4 1021.7 539.4L1021.7 539.4Q1019.8 539.4 1018.6 541.0Q1017.3 542.5 1017.3 545.0L1017.3 545.0Q1017.3 547.6 1018.6 549.1Q1019.8 550.7 1021.7 550.7ZM1032.8 558.4L1032.8 558.4Q1031.9 558.4 1031.4 558.0Q1030.9 557.7 1030.9 557.1L1030.9 557.1Q1030.9 556.7 1031.1 556.4Q1031.4 556.2 1031.9 556.2L1031.9 556.2Q1032.1 556.2 1032.3 556.2Q1032.5 556.2 1032.7 556.2L1032.7 556.2Q1034.4 556.2 1035.2 553.7L1035.2 553.7L1035.6 552.7L1030.3 539.0Q1030.2 538.6 1030.2 538.3L1030.2 538.3Q1030.2 537.8 1030.6 537.5Q1030.9 537.2 1031.5 537.2L1031.5 537.2Q1032.4 537.2 1032.7 538.1L1032.7 538.1L1036.9 550.1L1037.0 550.1L1041.2 538.1Q1041.3 537.6 1041.6 537.4Q1041.9 537.2 1042.4 537.2L1042.4 537.2Q1042.9 537.2 1043.3 537.5Q1043.6 537.8 1043.6 538.3L1043.6 538.3Q1043.6 538.6 1043.5 539.0L1043.5 539.0L1037.9 553.7Q1036.9 556.4 1035.8 557.4Q1034.7 558.4 1032.8 558.4Z M1066.9 550.9Q1064.7 553.0 1060.8 553.0Q1056.9 553.0 1054.7 550.9Q1052.4 548.7 1052.4 545.3L1052.4 545.3L1052.4 532.7Q1052.4 532.1 1052.8 531.7Q1053.1 531.3 1053.7 531.3Q1054.3 531.3 1054.7 531.7Q1055.0 532.1 1055.0 532.7L1055.0 532.7L1055.0 545.1Q1055.0 547.5 1056.6 549.1Q1058.1 550.6 1060.8 550.6Q1063.5 550.6 1065.0 549.1Q1066.6 547.5 1066.6 545.1L1066.6 545.1L1066.6 532.7Q1066.6 532.1 1066.9 531.7Q1067.3 531.3 1067.9 531.3Q1068.5 531.3 1068.8 531.7Q1069.2 532.1 1069.2 532.7L1069.2 532.7L1069.2 545.3Q1069.2 548.7 1066.9 550.9ZM1075.6 552.6Q1075.2 552.9 1074.6 552.9Q1074.0 552.9 1073.7 552.6Q1073.3 552.2 1073.3 551.6L1073.3 551.6L1073.3 532.9Q1073.3 532.3 1073.7 531.9Q1074.0 531.5 1074.6 531.5L1074.6 531.5L1081.2 531.5Q1084.3 531.5 1086.1 533.2Q1088.0 535.0 1088.0 537.8L1088.0 537.8Q1088.0 540.0 1086.8 541.6Q1085.7 543.3 1083.7 543.9L1083.7 543.9L1087.6 550.8Q1087.9 551.3 1087.9 551.7L1087.9 551.7Q1087.9 552.2 1087.5 552.6Q1087.1 552.9 1086.5 552.9L1086.5 552.9Q1086.1 552.9 1085.8 552.7Q1085.5 552.5 1085.2 552.1L1085.2 552.1L1081.0 544.3L1075.9 544.3L1075.9 551.6Q1075.9 552.2 1075.6 552.6ZM1075.9 533.9L1075.9 542.0L1081.0 542.0Q1083.0 542.0 1084.1 540.9Q1085.2 539.9 1085.2 537.9L1085.2 537.9Q1085.2 536.0 1084.1 534.9Q1082.9 533.9 1080.9 533.9L1080.9 533.9L1075.9 533.9ZM1099.4 545.3L1091.9 545.3Q1091.3 545.3 1091.0 545.0Q1090.6 544.6 1090.6 544.1Q1090.6 543.6 1091.0 543.2Q1091.3 542.9 1091.9 542.9L1091.9 542.9L1099.4 542.9Q1100.0 542.9 1100.3 543.2Q1100.7 543.6 1100.7 544.1Q1100.7 544.6 1100.3 545.0Q1100.0 545.3 1099.4 545.3L1099.4 545.3ZM1106.4 552.6Q1106.0 552.9 1105.4 552.9Q1104.8 552.9 1104.5 552.6Q1104.1 552.2 1104.1 551.6L1104.1 551.6L1104.1 532.9Q1104.1 532.3 1104.5 531.9Q1104.8 531.5 1105.4 531.5L1105.4 531.5L1112.1 531.5Q1115.1 531.5 1117.0 533.2Q1118.8 535.0 1118.8 537.8L1118.8 537.8Q1118.8 540.0 1117.7 541.6Q1116.5 543.3 1114.5 543.9L1114.5 543.9L1118.4 550.8Q1118.7 551.3 1118.7 551.7L1118.7 551.7Q1118.7 552.2 1118.3 552.6Q1117.9 552.9 1117.3 552.9L1117.3 552.9Q1116.9 552.9 1116.6 552.7Q1116.3 552.5 1116.1 552.1L1116.1 552.1L1111.8 544.3L1106.8 544.3L1106.8 551.6Q1106.8 552.2 1106.4 552.6ZM1106.8 533.9L1106.8 542.0L1111.8 542.0Q1113.9 542.0 1115.0 540.9Q1116.1 539.9 1116.1 537.9L1116.1 537.9Q1116.1 536.0 1114.9 534.9Q1113.8 533.9 1111.7 533.9L1111.7 533.9L1106.8 533.9ZM1122.2 552.9L1122.2 552.9Q1121.6 552.9 1121.2 552.5Q1120.9 552.2 1120.9 551.7L1120.9 551.7Q1120.9 551.4 1121.0 551.0L1121.0 551.0L1127.8 532.6Q1128.3 531.3 1129.5 531.3L1129.5 531.3Q1130.7 531.3 1131.2 532.6L1131.2 532.6L1138.0 551.0Q1138.2 551.4 1138.2 551.7L1138.2 551.7Q1138.2 552.2 1137.8 552.5Q1137.4 552.9 1136.9 552.9L1136.9 552.9Q1135.9 552.9 1135.6 551.9L1135.6 551.9L1133.7 546.6L1125.3 546.6L1123.5 551.9Q1123.1 552.9 1122.2 552.9ZM1129.5 534.7L1126.1 544.4L1132.9 544.4L1129.6 534.7L1129.5 534.7ZM1148.1 552.7L1142.3 552.7Q1141.7 552.7 1141.4 552.3Q1141.0 551.9 1141.0 551.3L1141.0 551.3L1141.0 532.9Q1141.0 532.3 1141.4 531.9Q1141.7 531.5 1142.3 531.5L1142.3 531.5L1148.1 531.5Q1152.8 531.5 1155.5 534.3Q1158.1 537.1 1158.1 542.1L1158.1 542.1Q1158.1 547.1 1155.5 549.9Q1152.8 552.7 1148.1 552.7L1148.1 552.7ZM1143.7 533.9L1143.7 550.3L1148.0 550.3Q1151.5 550.3 1153.5 548.2Q1155.4 546.1 1155.4 542.1L1155.4 542.1Q1155.4 538.1 1153.5 536.0Q1151.6 533.9 1148.0 533.9L1148.0 533.9L1143.7 533.9Z "/></svg>