<svg width="1200" height="630" viewBox="0 0 1200 630" xmlns="http://www.w3.org/2000/svg"><mask id="satori_om-id"><rect x="0" y="0" width="1200" height="630" fill="#fff"/></mask><defs><pattern id="satori_pattern_id-0_0" x="0" y="0" width="1" height="1" patternUnits="objectBoundingBox"><linearGradient id="satori_biid-0_0" x1="-0.09774620284174435" y1="0.18618324350808482" x2="1.0977462028417444" y2="0.8138167564919152" spreadMethod="pad"><stop offset="0%" stop-color="#f8fafc"/><stop offset="50%" stop-color="#eef2ff"/><stop offset="100%" stop-color="#ffffff"/></linearGradient><rect x="0" y="0" width="1200" height="630" fill="url(#satori_biid-0_0)"/></pattern></defs><clipPath id="satori_cp-id-0"><rect x="0" y="0" width="1200" height="630"/></clipPath><mask id="satori_om-id-0"><rect x="0" y="0" width="1200" height="630" fill="#fff"/></mask><rect x="0" y="0" width="1200" height="630" fill="url(#satori_pattern_id-0_0)"/><mask id="satori_om-id-0-0"><rect x="0" y="0" width="1200" height="509" fill="#fff" mask="url(#satori_om-id-0)"/></mask><mask id="satori_om-id-0-0-0"><rect x="72" y="72" width="1056" height="365" fill="#fff" mask="url(#satori_om-id-0)"/></mask><mask id="satori_om-id-0-0-0-0"><rect x="72" y="113" width="1056" height="38" fill="#fff" mask="url(#satori_om-id-0)"/></mask><path fill="#64748b" d="M82.7 143.2Q82.2 143.7 81.4 143.7Q80.6 143.7 80.1 143.2Q79.7 142.8 79.7 141.9L79.7 141.9L79.7 124.0L74.1 124.0Q73.4 124.0 73.0 123.5Q72.5 123.1 72.5 122.4Q72.5 121.8 73.0 121.3Q73.4 120.9 74.1 120.9L74.1 120.9L88.7 120.9Q89.4 120.9 89.9 121.3Q90.3 121.8 90.3 122.4Q90.3 123.1 89.9 123.5Q89.4 124.0 88.7 124.0L88.7 124.0L83.2 124.0L83.2 141.9Q83.2 142.8 82.7 143.2ZM95.5 143.3Q95.1 143.8 94.3 143.8Q93.6 143.8 93.1 143.3Q92.6 142.8 92.6 142.0L92.6 142.0L92.6 122.4Q92.6 121.6 93.1 121.1Q93.5 120.6 94.3 120.6L94.3 120.6Q95.1 120.6 95.5 121.1Q96.0 121.6 96.0 122.4L96.0 122.4L96.0 129.8L96.0 129.8Q96.7 128.3 98.1 127.5Q99.4 126.8 101.3 126.8L101.3 126.8Q103.9 126.8 105.5 128.4Q107.0 130.1 107.0 132.9L107.0 132.9L107.0 142.0Q107.0 142.8 106.5 143.3Q106.1 143.8 105.3 143.8L105.3 143.8Q104.6 143.8 104.1 143.3Q103.6 142.8 103.6 142.0L103.6 142.0L103.6 133.5Q103.6 131.7 102.7 130.7Q101.8 129.7 100.0 129.7L100.0 129.7Q98.2 129.7 97.1 130.8Q96 132.0 96 134.0L96 134.0L96 142.0Q96 142.8 95.5 143.3ZM116.0 143.8L116.0 143.8Q113.3 143.8 111.7 142.1Q110.2 140.5 110.2 137.7L110.2 137.7L110.2 128.5Q110.2 127.7 110.6 127.2Q111.1 126.7 111.9 126.7L111.9 126.7Q112.6 126.7 113.1 127.2Q113.6 127.7 113.6 128.5L113.6 128.5L113.6 137.0Q113.6 138.9 114.5 139.9Q115.3 140.9 117.1 140.9L117.1 140.9Q118.9 140.9 119.9 139.7Q121.0 138.5 121.0 136.6L121.0 136.6L121.0 128.5Q121.0 127.7 121.5 127.2Q121.9 126.7 122.7 126.7L122.7 126.7Q123.4 126.7 123.9 127.2Q124.4 127.7 124.4 128.5L124.4 128.5L124.4 142.0Q124.4 142.8 123.9 143.3Q123.5 143.8 122.8 143.8Q122.0 143.8 121.6 143.3Q121.1 142.8 121.1 142.1L121.1 142.1L121.1 140.7L121.0 140.7Q119.6 143.8 116.0 143.8ZM129.4 143.8L129.4 143.8Q128.6 143.8 128.1 143.3Q127.7 142.8 127.7 142.0L127.7 142.0L127.7 128.4Q127.7 127.7 128.1 127.2Q128.6 126.7 129.3 126.7L129.3 126.7Q130 126.7 130.4 127.2Q130.9 127.7 130.9 128.4L130.9 128.4L130.9 129.8L131.0 129.8Q131.3 128.5 132.3 127.6Q133.3 126.8 134.6 126.8L134.6 126.8Q135.5 126.8 135.9 127.2L135.9 127.2Q136.4 127.5 136.4 128.4L136.4 128.4Q136.4 129.1 135.9 129.5L135.9 129.5Q135.4 130.0 134.3 130.0L134.3 130.0Q132.7 130 131.9 131.0Q131.1 132.0 131.1 133.6L131.1 133.6L131.1 142.0Q131.1 142.8 130.6 143.3Q130.1 143.8 129.4 143.8ZM144.3 143.8L144.3 143.8Q141.9 143.8 140.2 142.9Q138.5 142.0 137.9 140.4L137.9 140.4Q137.7 140.1 137.7 139.7L137.7 139.7Q137.7 139.1 138.1 138.8Q138.5 138.4 139.2 138.4L139.2 138.4Q140.0 138.4 140.6 139.3L140.6 139.3Q141.3 140.3 142.1 140.8Q143.0 141.2 144.4 141.2L144.4 141.2Q145.9 141.2 146.8 140.6Q147.6 140.0 147.6 139.0L147.6 139.0Q147.6 138.2 147.1 137.7Q146.5 137.3 145.2 136.9L145.2 136.9L142.6 136.3Q137.9 135.2 137.9 131.7L137.9 131.7Q137.9 129.4 139.7 128.1Q141.5 126.7 144.4 126.7L144.4 126.7Q146.6 126.7 148.2 127.7Q149.9 128.7 150.3 130.2L150.3 130.2Q150.3 130.6 150.3 130.7L150.3 130.7Q150.3 131.3 150.0 131.6Q149.6 131.9 149 131.9L149 131.9Q148.1 131.9 147.6 131.2L147.6 131.2Q147.1 130.3 146.3 129.8Q145.5 129.3 144.3 129.3L144.3 129.3Q142.9 129.3 142.0 129.9Q141.2 130.5 141.2 131.5L141.2 131.5Q141.2 133.0 143.7 133.6L143.7 133.6L146.3 134.2Q148.9 134.8 150.0 135.9Q151.0 136.9 151.0 138.7L151.0 138.7Q151.0 141.0 149.2 142.4Q147.3 143.8 144.3 143.8ZM159.8 143.8L159.8 143.8Q156.7 143.8 154.8 141.4Q152.9 139.1 152.9 135.3Q152.9 131.4 154.8 129.1Q156.7 126.8 159.8 126.8L159.8 126.8Q161.5 126.8 162.9 127.6Q164.3 128.4 165.0 129.8L165.0 129.8L165.0 129.8L165.0 122.4Q165.0 121.6 165.5 121.1Q166.0 120.6 166.7 120.6L166.7 120.6Q167.5 120.6 167.9 121.1Q168.4 121.6 168.4 122.4L168.4 122.4L168.4 142.1Q168.4 142.9 167.9 143.3Q167.5 143.8 166.7 143.8L166.7 143.8Q166 143.8 165.5 143.3Q165.0 142.9 165.0 142.1L165.0 142.1L165.0 140.5L165.0 140.5Q164.3 142.0 163 142.9Q161.7 143.8 159.8 143.8ZM160.7 140.9L160.7 140.9Q162.7 140.9 163.9 139.4Q165.0 137.8 165.0 135.3L165.0 135.3Q165.0 132.7 163.9 131.2Q162.7 129.6 160.7 129.6L160.7 129.6Q158.7 129.6 157.5 131.1Q156.4 132.7 156.4 135.3L156.4 135.3Q156.4 137.9 157.5 139.4Q158.7 140.9 160.7 140.9ZM176.7 143.8L176.7 143.8Q174.3 143.8 172.7 142.4Q171.2 141 171.2 138.8L171.2 138.8Q171.2 136.6 172.8 135.4Q174.4 134.1 177.3 133.9L177.3 133.9L181.8 133.7L181.8 132.4Q181.8 131.0 180.9 130.3Q180.1 129.5 178.5 129.5L178.5 129.5Q177.3 129.5 176.4 130.0Q175.6 130.5 174.9 131.6L174.9 131.6Q174.4 132.3 173.5 132.3L173.5 132.3Q172.9 132.3 172.5 131.9Q172.0 131.5 172.0 130.9L172.0 130.9Q172.0 130.3 172.3 129.8L172.3 129.8Q173.0 128.4 174.7 127.6Q176.4 126.7 178.6 126.7L178.6 126.7Q181.6 126.7 183.4 128.2Q185.2 129.7 185.2 132.1L185.2 132.1L185.2 142.1Q185.2 142.8 184.7 143.3Q184.3 143.8 183.5 143.8L183.5 143.8Q182.8 143.8 182.4 143.3Q182.0 142.9 181.9 142.2L181.9 142.2L181.9 140.8L181.9 140.8Q181.2 142.1 179.7 142.9Q178.3 143.8 176.7 143.8ZM177.6 141.1L177.6 141.1Q179.4 141.1 180.6 140.0Q181.8 138.9 181.8 137.3L181.8 137.3L181.8 136.0L177.8 136.3Q176.2 136.4 175.4 137.0Q174.6 137.6 174.6 138.7L174.6 138.7Q174.6 139.8 175.4 140.4Q176.3 141.1 177.6 141.1ZM190.5 149.6L190.5 149.6Q189.3 149.6 188.7 149.2Q188.0 148.8 188.0 148.0L188.0 148.0Q188.0 147.4 188.4 147.1Q188.8 146.8 189.4 146.8L189.4 146.8Q189.5 146.8 189.8 146.8Q190.0 146.8 190.2 146.8L190.2 146.8Q191.9 146.8 192.7 144.6L192.7 144.6L193.0 143.6L187.5 129.3Q187.4 128.7 187.4 128.3L187.4 128.3Q187.4 127.6 187.8 127.2Q188.3 126.7 189.1 126.7L189.1 126.7Q189.7 126.7 190.1 127.0Q190.5 127.3 190.7 128.0L190.7 128.0L194.9 140.4L194.9 140.4L199.1 128.0Q199.3 127.3 199.7 127.0Q200.1 126.7 200.8 126.7L200.8 126.7Q201.5 126.7 201.9 127.2Q202.4 127.6 202.4 128.3L202.4 128.3Q202.4 128.7 202.2 129.2L202.2 129.2L196.5 144.3Q195.4 147.3 194.1 148.4Q192.8 149.6 190.5 149.6ZM207.2 139.7L207.2 139.7Q207.9 139.7 208.3 140.0Q208.7 140.4 208.7 141.1L208.7 141.1Q208.7 141.5 208.6 142.0L208.6 142.0L207.3 147.3Q207.0 148.5 205.8 148.5L205.8 148.5Q205.2 148.5 204.9 148.1Q204.5 147.8 204.5 147.3L204.5 147.3Q204.5 147.1 204.5 146.9L204.5 146.9L205.5 141.1Q205.8 139.7 207.2 139.7Z M223.1 143.8L223.1 143.8Q222.4 143.8 222.0 143.4Q221.5 143.0 221.5 142.3L221.5 142.3Q221.5 141.8 221.8 141.2L221.8 141.2L230.9 124.0L230.9 123.9L220.4 123.9Q219.7 123.9 219.3 123.5Q218.8 123.1 218.8 122.4L218.8 122.4Q218.8 121.7 219.3 121.3Q219.7 120.9 220.4 120.9L220.4 120.9L232.3 120.9Q233.3 120.9 233.9 121.5Q234.5 122 234.5 122.9L234.5 122.9Q234.5 123.7 233.8 125.1L233.8 125.1L224.7 142.8Q224.4 143.3 224.1 143.5Q223.7 143.8 223.1 143.8Z M247.2 143.2Q246.7 143.7 245.9 143.7Q245.1 143.7 244.7 143.2Q244.2 142.8 244.2 141.9L244.2 141.9L244.2 122.6Q244.2 121.7 244.7 121.2Q245.2 120.7 246.1 120.7L246.1 120.7Q246.7 120.7 247.1 120.9Q247.5 121.2 248.0 121.8L248.0 121.8L259.1 137.5L259.2 137.5L259.2 122.5Q259.2 121.6 259.7 121.1Q260.1 120.7 260.9 120.7L260.9 120.7Q261.7 120.7 262.2 121.1Q262.6 121.6 262.6 122.5L262.6 122.5L262.6 141.9Q262.6 142.8 262.1 143.2Q261.6 143.7 260.8 143.7L260.8 143.7Q260.1 143.7 259.7 143.5Q259.3 143.3 258.9 142.6L258.9 142.6L247.8 126.9L247.6 126.9L247.6 141.9Q247.6 142.8 247.2 143.2ZM279.1 141.5Q277.0 143.8 273.4 143.8Q269.9 143.8 267.8 141.5Q265.6 139.2 265.6 135.3L265.6 135.3Q265.6 131.3 267.8 129.0Q269.9 126.7 273.4 126.7Q277.0 126.7 279.1 129.0Q281.2 131.3 281.2 135.3L281.2 135.3Q281.2 139.2 279.1 141.5ZM273.4 141L273.4 141Q275.4 141 276.6 139.5Q277.8 138.0 277.8 135.3L277.8 135.3Q277.8 132.5 276.6 131.0Q275.4 129.5 273.4 129.5Q271.4 129.5 270.2 131.0Q269.1 132.5 269.1 135.3L269.1 135.3Q269.1 138.0 270.2 139.5Q271.4 141 273.4 141ZM290.2 143.8L290.2 143.8Q289.3 143.8 288.7 143.4Q288.2 143.0 287.8 142.0L287.8 142.0L283.0 129.2Q282.8 128.7 282.8 128.3L282.8 128.3Q282.8 127.6 283.2 127.2Q283.7 126.7 284.5 126.7L284.5 126.7Q285.7 126.7 286.1 128.1L286.1 128.1L290.1 140.2L290.2 140.2L294.3 128.0Q294.7 126.7 295.9 126.7L295.9 126.7Q296.6 126.7 297.0 127.2Q297.5 127.6 297.5 128.3L297.5 128.3Q297.5 128.7 297.3 129.2L297.3 129.2L292.5 142.0Q292.1 142.9 291.6 143.4Q291.0 143.8 290.2 143.8ZM306.9 143.8L306.9 143.8Q303.2 143.8 301.1 141.5Q299.1 139.3 299.1 135.3L299.1 135.3Q299.1 131.4 301.1 129.1Q303.2 126.7 306.7 126.7L306.7 126.7Q310.0 126.7 312.0 128.9Q314.1 131 314.1 134.4L314.1 134.4Q314.1 135.2 313.6 135.6Q313.2 136.1 312.4 136.1L312.4 136.1L302.5 136.1L302.5 136.2Q302.5 138.4 303.6 139.7Q304.8 141.0 306.8 141.0L306.8 141.0Q308.2 141.0 309.2 140.5Q310.2 140.0 311.1 138.7L311.1 138.7Q311.6 138.1 312.3 138.1L312.3 138.1Q312.9 138.1 313.3 138.5Q313.7 138.9 313.7 139.5L313.7 139.5Q313.7 139.8 313.5 140.4L313.5 140.4Q312.6 142 310.9 142.9Q309.2 143.8 306.9 143.8ZM302.5 133.7L302.5 133.7L310.7 133.7Q310.6 131.8 309.5 130.6Q308.4 129.5 306.7 129.5L306.7 129.5Q304.9 129.5 303.8 130.6Q302.6 131.8 302.5 133.7ZM319.6 143.3Q319.1 143.8 318.4 143.8Q317.6 143.8 317.1 143.3Q316.7 142.8 316.7 142.0L316.7 142.0L316.7 128.5Q316.7 127.7 317.1 127.2Q317.6 126.7 318.3 126.7Q319.0 126.7 319.5 127.2Q319.9 127.7 319.9 128.5L319.9 128.5L319.9 129.8L320.0 129.8Q320.5 128.4 321.8 127.6Q323.0 126.8 324.7 126.8L324.7 126.8Q326.4 126.8 327.6 127.6Q328.8 128.4 329.3 130.0L329.3 130.0L329.3 130.0Q330.0 128.5 331.3 127.6Q332.7 126.8 334.5 126.8L334.5 126.8Q336.9 126.8 338.4 128.2Q339.8 129.7 339.8 132.2L339.8 132.2L339.8 142.0Q339.8 142.8 339.4 143.3Q338.9 143.8 338.1 143.8Q337.4 143.8 336.9 143.3Q336.4 142.8 336.4 142.0L336.4 142.0L336.4 133.0Q336.4 131.4 335.6 130.5Q334.8 129.6 333.3 129.6Q331.8 129.6 330.9 130.6Q329.9 131.6 329.9 133.2L329.9 133.2L329.9 142.0Q329.9 142.8 329.5 143.3Q329.0 143.8 328.3 143.8Q327.5 143.8 327.0 143.3Q326.6 142.8 326.6 142.0L326.6 142.0L326.6 132.7Q326.6 131.3 325.8 130.5Q324.9 129.6 323.5 129.6L323.5 129.6Q322.0 129.6 321.0 130.7Q320.1 131.7 320.1 133.3L320.1 133.3L320.1 142.0Q320.1 142.8 319.6 143.3ZM344.8 143.8L344.8 143.8Q344.1 143.8 343.6 143.3Q343.2 142.9 343.2 142.1L343.2 142.1L343.2 122.4Q343.2 121.6 343.7 121.1Q344.1 120.6 344.9 120.6Q345.6 120.6 346.1 121.1Q346.6 121.6 346.6 122.4L346.6 122.4L346.6 129.8L346.7 129.8Q347.4 128.4 348.8 127.6Q350.1 126.8 351.9 126.8L351.9 126.8Q355.0 126.8 356.8 129.1Q358.7 131.4 358.7 135.3L358.7 135.3Q358.7 139.2 356.8 141.5Q355.0 143.8 351.8 143.8L351.8 143.8Q350.1 143.8 348.7 142.9Q347.3 142.1 346.5 140.7L346.5 140.7L346.5 140.7L346.5 142.1Q346.5 142.9 346.0 143.3Q345.6 143.8 344.8 143.8ZM350.9 140.9L350.9 140.9Q352.9 140.9 354.1 139.4Q355.2 137.9 355.2 135.3L355.2 135.3Q355.2 132.7 354.1 131.1Q352.9 129.6 350.9 129.6L350.9 129.6Q349 129.6 347.8 131.2Q346.6 132.7 346.6 135.3L346.6 135.3Q346.6 137.8 347.8 139.3Q349 140.9 350.9 140.9ZM368.4 143.8L368.4 143.8Q364.7 143.8 362.6 141.5Q360.6 139.3 360.6 135.3L360.6 135.3Q360.6 131.4 362.6 129.1Q364.7 126.7 368.2 126.7L368.2 126.7Q371.5 126.7 373.5 128.9Q375.6 131 375.6 134.4L375.6 134.4Q375.6 135.2 375.1 135.6Q374.7 136.1 373.9 136.1L373.9 136.1L364.0 136.1L364.0 136.2Q364.0 138.4 365.2 139.7Q366.3 141.0 368.4 141.0L368.4 141.0Q369.7 141.0 370.7 140.5Q371.7 140.0 372.6 138.7L372.6 138.7Q373.1 138.1 373.8 138.1L373.8 138.1Q374.4 138.1 374.8 138.5Q375.2 138.9 375.2 139.5L375.2 139.5Q375.2 139.8 375.0 140.4L375.0 140.4Q374.2 142 372.4 142.9Q370.7 143.8 368.4 143.8ZM364 133.7L364 133.7L372.2 133.7Q372.2 131.8 371.1 130.6Q370.0 129.5 368.2 129.5L368.2 129.5Q366.4 129.5 365.3 130.6Q364.1 131.8 364 133.7ZM379.9 143.8L379.9 143.8Q379.1 143.8 378.7 143.3Q378.2 142.8 378.2 142.0L378.2 142.0L378.2 128.4Q378.2 127.7 378.6 127.2Q379.1 126.7 379.8 126.7L379.8 126.7Q380.5 126.7 381.0 127.2Q381.4 127.7 381.4 128.4L381.4 128.4L381.4 129.8L381.5 129.8Q381.8 128.5 382.8 127.6Q383.8 126.8 385.1 126.8L385.1 126.8Q386.0 126.8 386.4 127.2L386.4 127.2Q386.9 127.5 386.9 128.4L386.9 128.4Q386.9 129.1 386.4 129.5L386.4 129.5Q385.9 130.0 384.8 130.0L384.8 130.0Q383.2 130 382.4 131.0Q381.6 132.0 381.6 133.6L381.6 133.6L381.6 142.0Q381.6 142.8 381.1 143.3Q380.6 143.8 379.9 143.8Z M409.3 143.5L396.9 143.5Q396.1 143.5 395.6 143.1Q395.2 142.7 395.2 142L395.2 142Q395.2 141.5 395.4 141.1Q395.6 140.8 396.2 140.2L396.2 140.2L403.2 133.0Q405.4 130.8 406.1 129.6Q406.9 128.4 406.9 127.1L406.9 127.1Q406.9 125.5 405.8 124.4Q404.7 123.4 403.0 123.4L403.0 123.4Q399.6 123.4 398.4 126.7L398.4 126.7Q398.2 127.3 397.8 127.6Q397.5 127.9 396.8 127.9L396.8 127.9Q396.1 127.9 395.7 127.5Q395.3 127.0 395.3 126.4L395.3 126.4Q395.3 126 395.4 125.6L395.4 125.6Q395.6 124.7 396.2 123.8Q396.8 122.9 397.7 122.2Q398.6 121.4 400.0 121.0Q401.4 120.5 403.0 120.5L403.0 120.5Q406.2 120.5 408.3 122.3Q410.3 124.1 410.3 126.9L410.3 126.9Q410.3 128.8 409.3 130.5Q408.2 132.1 405.3 135.0L405.3 135.0L400.0 140.4L400.0 140.5L409.3 140.5Q410.0 140.5 410.4 140.9Q410.9 141.3 410.9 142L410.9 142Q410.9 142.7 410.4 143.1Q410.0 143.5 409.3 143.5L409.3 143.5ZM428.4 140.7Q426.1 143.9 422.0 143.9Q418 143.9 415.7 140.7Q413.4 137.6 413.4 132.2L413.4 132.2Q413.4 126.8 415.7 123.6Q418.0 120.5 422.0 120.5L422.0 120.5Q426.1 120.5 428.4 123.6Q430.7 126.8 430.7 132.2L430.7 132.2Q430.7 137.6 428.4 140.7ZM422.0 141.0L422.0 141.0Q424.5 141.0 425.8 138.6Q427.1 136.3 427.1 132.2L427.1 132.2Q427.1 128.1 425.8 125.8Q424.5 123.4 422.0 123.4Q419.6 123.4 418.3 125.8Q417.0 128.1 417.0 132.2L417.0 132.2Q417.0 136.3 418.3 138.6Q419.6 141.0 422.0 141.0ZM447.8 143.5L435.4 143.5Q434.6 143.5 434.1 143.1Q433.7 142.7 433.7 142L433.7 142Q433.7 141.5 433.9 141.1Q434.1 140.8 434.7 140.2L434.7 140.2L441.7 133.0Q443.9 130.8 444.6 129.6Q445.4 128.4 445.4 127.1L445.4 127.1Q445.4 125.5 444.3 124.4Q443.2 123.4 441.5 123.4L441.5 123.4Q438.1 123.4 436.9 126.7L436.9 126.7Q436.7 127.3 436.3 127.6Q436.0 127.9 435.3 127.9L435.3 127.9Q434.6 127.9 434.2 127.5Q433.8 127.0 433.8 126.4L433.8 126.4Q433.8 126 433.9 125.6L433.9 125.6Q434.1 124.7 434.7 123.8Q435.3 122.9 436.2 122.2Q437.1 121.4 438.5 121.0Q439.9 120.5 441.5 120.5L441.5 120.5Q444.7 120.5 446.8 122.3Q448.8 124.1 448.8 126.9L448.8 126.9Q448.8 128.8 447.8 130.5Q446.7 132.1 443.8 135.0L443.8 135.0L438.5 140.4L438.5 140.5L447.8 140.5Q448.5 140.5 448.9 140.9Q449.4 141.3 449.4 142L449.4 142Q449.4 142.7 448.9 143.1Q448.5 143.5 447.8 143.5L447.8 143.5ZM464.7 143.8L464.7 143.8Q464.0 143.8 463.5 143.3Q463.0 142.8 463.0 142.0L463.0 142.0L463.0 139.0L453.7 139.0Q452.8 139.0 452.2 138.4Q451.7 137.9 451.7 137L451.7 137Q451.7 135.9 452.5 134.5L452.5 134.5Q454.4 131.0 459.8 123.3L459.8 123.3Q460.8 121.8 461.6 121.2Q462.4 120.6 463.5 120.6L463.5 120.6Q464.9 120.6 465.6 121.3Q466.4 122 466.4 123.3L466.4 123.3L466.4 136.0L468.2 136.0Q468.8 136.0 469.3 136.5Q469.7 136.9 469.7 137.5Q469.7 138.2 469.3 138.6Q468.8 139.0 468.2 139.0L468.2 139.0L466.4 139.0L466.4 142.0Q466.4 142.8 465.9 143.3Q465.4 143.8 464.7 143.8ZM455.0 136.1L463.0 136.1L463.0 123.7L463.0 123.7Q457.2 132.0 455.0 136L455.0 136L455.0 136.1Z " clip-path="url(#satori_cp-id-0)" mask="url(#satori_om-id-0)"/><mask id="satori_om-id-0-0-0-1"><rect x="72" y="175" width="1056" height="221" fill="#fff" mask="url(#satori_om-id-0)"/></mask><path fill="#0f172a" d="M78.8 235.1L78.8 235.1Q76.6 235.1 75.3 233.9Q74.0 232.7 74.0 230.7L74.0 230.7Q74.0 229.5 74.6 227.7L74.6 227.7L86.9 194.2Q87.9 191.4 89.6 190.1Q91.3 188.8 94 188.8L94 188.8Q96.8 188.8 98.5 190.1Q100.2 191.4 101.2 194.1L101.2 194.1L113.6 227.7Q114.2 229.4 114.2 230.7L114.2 230.7Q114.2 232.6 112.9 233.9Q111.5 235.1 109.5 235.1L109.5 235.1Q107.5 235.1 106.3 234.2Q105.2 233.2 104.6 231.0L104.6 231.0L102.2 223.9L85.9 223.9L83.5 230.9Q82.9 233.1 81.8 234.1Q80.6 235.1 78.8 235.1ZM93.8 198.1L88.0 216.6L100 216.6L94.0 198.1L93.8 198.1Z M149.8 234.6L137.3 234.6Q135.1 234.6 133.8 233.3Q132.6 232.0 132.6 229.6L132.6 229.6L132.6 194.4Q132.6 192.1 133.8 190.8Q135.1 189.5 137.3 189.5L137.3 189.5L149.8 189.5Q160.0 189.5 165.6 195.3Q171.3 201.1 171.3 211.8L171.3 211.8Q171.3 222.6 165.6 228.6Q159.9 234.6 149.8 234.6L149.8 234.6ZM142 197.2L142 226.7L148.7 226.7Q155 226.7 158.3 222.9Q161.7 219.1 161.7 211.9L161.7 211.9Q161.7 204.8 158.3 201.0Q154.9 197.2 148.7 197.2L148.7 197.2L142 197.2ZM184.8 195.5Q183.3 196.9 181.3 196.9Q179.2 196.9 177.8 195.5Q176.4 194.1 176.4 192.2L176.4 192.2Q176.4 190.2 177.8 188.8Q179.2 187.5 181.3 187.5Q183.3 187.5 184.8 188.8Q186.2 190.2 186.2 192.2L186.2 192.2Q186.2 194.1 184.8 195.5ZM184.6 233.9Q183.4 235.2 181.3 235.2Q179.2 235.2 177.9 233.9Q176.7 232.7 176.7 230.5L176.7 230.5L176.7 205.1Q176.7 202.9 177.9 201.6Q179.2 200.4 181.3 200.4Q183.4 200.4 184.6 201.6Q185.8 202.9 185.8 205.1L185.8 205.1L185.8 230.5Q185.8 232.7 184.6 233.9ZM205.6 235.3L205.6 235.3Q199.9 235.3 196.2 233.4Q192.4 231.6 191.2 228.6L191.2 228.6Q190.8 227.6 190.8 226.9L190.8 226.9Q190.8 225.3 191.9 224.4Q192.9 223.4 194.5 223.4L194.5 223.4Q196.6 223.4 198.5 225.5L198.5 225.5Q199.8 227.2 201.5 228.1Q203.2 228.9 205.8 228.9L205.8 228.9Q208.3 228.9 209.8 227.9Q211.3 226.9 211.3 225.3L211.3 225.3Q211.3 223.9 210.3 223.1Q209.3 222.3 206.8 221.8L206.8 221.8L201.2 220.6Q196.3 219.5 193.8 217.1Q191.3 214.6 191.3 210.9L191.3 210.9Q191.3 206.1 195.2 203.2Q199.0 200.3 205.5 200.3L205.5 200.3Q210.6 200.3 214.2 202.3Q217.8 204.3 218.7 207.3L218.7 207.3Q218.9 208.1 218.9 208.6L218.9 208.6Q218.9 210.1 218.0 210.9Q217.1 211.7 215.4 211.7L215.4 211.7Q213.3 211.7 212.1 210.3L212.1 210.3Q210.7 208.6 209.2 207.7Q207.7 206.7 205.4 206.7L205.4 206.7Q203.1 206.7 201.6 207.7Q200.1 208.7 200.1 210.4L200.1 210.4Q200.1 211.7 201.2 212.6Q202.3 213.5 204.8 214.0L204.8 214.0L210.3 215.2Q215.7 216.3 218.0 218.4Q220.4 220.6 220.4 224.3L220.4 224.3Q220.4 229.3 216.3 232.3Q212.2 235.3 205.6 235.3ZM240.2 235.3L240.2 235.3Q232.6 235.3 228.1 230.6Q223.7 225.9 223.7 217.8L223.7 217.8Q223.7 209.8 228.1 205.1Q232.5 200.3 240.1 200.3L240.1 200.3Q245.1 200.3 249.0 202.5Q252.8 204.7 254.2 208.3L254.2 208.3Q254.7 209.6 254.7 210.6L254.7 210.6Q254.7 212.2 253.6 213.2Q252.5 214.1 250.8 214.1L250.8 214.1Q249.5 214.1 248.6 213.6Q247.7 213.0 247.0 211.8L247.0 211.8Q244.6 207.5 240.4 207.5L240.4 207.5Q236.9 207.5 234.9 210.2Q232.9 212.9 232.9 217.8L232.9 217.8Q232.9 222.7 234.9 225.4Q236.9 228.1 240.3 228.1L240.3 228.1Q244.5 228.1 246.9 224.2L246.9 224.2Q247.8 222.7 248.7 222.1Q249.6 221.5 251.0 221.5L251.0 221.5Q252.7 221.5 253.8 222.5Q254.9 223.5 254.9 225.1L254.9 225.1Q254.9 226.2 254.3 227.5L254.3 227.5Q252.8 231.0 248.9 233.1Q244.9 235.3 240.2 235.3ZM271.7 235.2L271.7 235.2Q266.2 235.2 262.9 231.8Q259.6 228.5 259.6 222.6L259.6 222.6L259.6 205.1Q259.6 202.9 260.8 201.6Q262.1 200.4 264.2 200.4Q266.2 200.4 267.5 201.6Q268.7 202.9 268.7 205.1L268.7 205.1L268.7 220.7Q268.7 224.1 270.3 225.8Q271.9 227.6 275.0 227.6Q278 227.6 279.8 225.6Q281.6 223.6 281.6 220.2L281.6 220.2L281.6 205.1Q281.6 202.9 282.8 201.6Q284.1 200.4 286.1 200.4Q288.2 200.4 289.4 201.6Q290.7 202.9 290.7 205.1L290.7 205.1L290.7 230.6Q290.7 232.8 289.5 234.0Q288.3 235.2 286.3 235.2Q284.3 235.2 283.1 234.0Q281.9 232.8 281.9 230.6L281.9 230.6L281.9 228.5L281.7 228.5Q279.1 235.2 271.7 235.2ZM310.3 235.3L310.3 235.3Q304.7 235.3 300.9 233.4Q297.1 231.6 295.9 228.6L295.9 228.6Q295.5 227.6 295.5 226.9L295.5 226.9Q295.5 225.3 296.6 224.4Q297.6 223.4 299.2 223.4L299.2 223.4Q301.3 223.4 303.2 225.5L303.2 225.5Q304.6 227.2 306.3 228.1Q307.9 228.9 310.5 228.9L310.5 228.9Q313 228.9 314.5 227.9Q316.0 226.9 316.0 225.3L316.0 225.3Q316.0 223.9 315.0 223.1Q314.0 222.3 311.5 221.8L311.5 221.8L305.9 220.6Q301 219.5 298.5 217.1Q296.0 214.6 296.0 210.9L296.0 210.9Q296.0 206.1 299.9 203.2Q303.8 200.3 310.3 200.3L310.3 200.3Q315.3 200.3 318.9 202.3Q322.5 204.3 323.4 207.3L323.4 207.3Q323.6 208.1 323.6 208.6L323.6 208.6Q323.6 210.1 322.7 210.9Q321.8 211.7 320.1 211.7L320.1 211.7Q318.0 211.7 316.8 210.3L316.8 210.3Q315.4 208.6 313.9 207.7Q312.4 206.7 310.1 206.7L310.1 206.7Q307.8 206.7 306.3 207.7Q304.8 208.7 304.8 210.4L304.8 210.4Q304.8 211.7 305.9 212.6Q307.0 213.5 309.5 214.0L309.5 214.0L315.0 215.2Q320.4 216.3 322.7 218.4Q325.1 220.6 325.1 224.3L325.1 224.3Q325.1 229.3 321.0 232.3Q316.9 235.3 310.3 235.3ZM343.3 235.3L343.3 235.3Q337.6 235.3 333.8 233.4Q330.1 231.6 328.8 228.6L328.8 228.6Q328.5 227.6 328.5 226.9L328.5 226.9Q328.5 225.3 329.5 224.4Q330.6 223.4 332.2 223.4L332.2 223.4Q334.3 223.4 336.2 225.5L336.2 225.5Q337.5 227.2 339.2 228.1Q340.9 228.9 343.5 228.9L343.5 228.9Q346.0 228.9 347.5 227.9Q348.9 226.9 348.9 225.3L348.9 225.3Q348.9 223.9 347.9 223.1Q346.9 222.3 344.5 221.8L344.5 221.8L338.9 220.6Q334.0 219.5 331.5 217.1Q329 214.6 329 210.9L329 210.9Q329 206.1 332.9 203.2Q336.7 200.3 343.2 200.3L343.2 200.3Q348.3 200.3 351.9 202.3Q355.5 204.3 356.3 207.3L356.3 207.3Q356.6 208.1 356.6 208.6L356.6 208.6Q356.6 210.1 355.7 210.9Q354.8 211.7 353.1 211.7L353.1 211.7Q350.9 211.7 349.8 210.3L349.8 210.3Q348.4 208.6 346.9 207.7Q345.3 206.7 343.1 206.7L343.1 206.7Q340.8 206.7 339.3 207.7Q337.8 208.7 337.8 210.4L337.8 210.4Q337.8 211.7 338.9 212.6Q340 213.5 342.5 214.0L342.5 214.0L348 215.2Q353.3 216.3 355.7 218.4Q358.1 220.6 358.1 224.3L358.1 224.3Q358.1 229.3 354.0 232.3Q349.9 235.3 343.3 235.3ZM370.8 195.5Q369.3 196.9 367.3 196.9Q365.2 196.9 363.8 195.5Q362.4 194.1 362.4 192.2L362.4 192.2Q362.4 190.2 363.8 188.8Q365.2 187.5 367.3 187.5Q369.3 187.5 370.8 188.8Q372.2 190.2 372.2 192.2L372.2 192.2Q372.2 194.1 370.8 195.5ZM370.6 233.9Q369.4 235.2 367.3 235.2Q365.2 235.2 363.9 233.9Q362.7 232.7 362.7 230.5L362.7 230.5L362.7 205.1Q362.7 202.9 363.9 201.6Q365.2 200.4 367.3 200.4Q369.4 200.4 370.6 201.6Q371.8 202.9 371.8 205.1L371.8 205.1L371.8 230.5Q371.8 232.7 370.6 233.9ZM405.4 230.6Q400.9 235.3 393.3 235.3Q385.6 235.3 381.2 230.6Q376.7 226.0 376.7 217.8L376.7 217.8Q376.7 209.7 381.2 205.0Q385.7 200.3 393.3 200.3L393.3 200.3Q400.9 200.3 405.4 205.0Q409.9 209.7 409.9 217.8L409.9 217.8Q409.9 226.0 405.4 230.6ZM393.3 228.3L393.3 228.3Q396.7 228.3 398.6 225.6Q400.6 222.8 400.6 217.8L400.6 217.8Q400.6 212.9 398.6 210.1Q396.7 207.3 393.3 207.3Q389.9 207.3 387.9 210.1Q385.9 212.9 385.9 217.8L385.9 217.8Q385.9 222.8 387.9 225.6Q389.9 228.3 393.3 228.3ZM422.4 234.0Q421.2 235.2 419.1 235.2Q417.1 235.2 415.8 234.0Q414.6 232.7 414.6 230.5L414.6 230.5L414.6 205.0Q414.6 202.8 415.7 201.6Q416.9 200.4 419.0 200.4Q421.0 200.4 422.3 201.6Q423.5 202.9 423.5 205.0L423.5 205.0L423.5 206.9L423.7 206.9Q426.5 200.4 434.0 200.4L434.0 200.4Q439.6 200.4 442.6 203.7Q445.7 207.1 445.7 213.0L445.7 213.0L445.7 230.5Q445.7 232.7 444.4 234.0Q443.2 235.2 441.1 235.2Q439.0 235.2 437.8 234.0Q436.5 232.7 436.5 230.5L436.5 230.5L436.5 214.9Q436.5 211.6 435.0 209.8Q433.4 208.0 430.4 208.0Q427.3 208.0 425.5 210.0Q423.7 212.1 423.7 215.3L423.7 215.3L423.7 230.5Q423.7 232.7 422.4 234.0Z M491.6 230.6Q487.1 235.3 479.5 235.3Q471.8 235.3 467.3 230.6Q462.9 226.0 462.9 217.8L462.9 217.8Q462.9 209.7 467.4 205.0Q471.9 200.3 479.5 200.3L479.5 200.3Q487.1 200.3 491.6 205.0Q496.1 209.7 496.1 217.8L496.1 217.8Q496.1 226.0 491.6 230.6ZM479.5 228.3L479.5 228.3Q482.8 228.3 484.8 225.6Q486.8 222.8 486.8 217.8L486.8 217.8Q486.8 212.9 484.8 210.1Q482.8 207.3 479.5 207.3Q476.1 207.3 474.1 210.1Q472.1 212.9 472.1 217.8L472.1 217.8Q472.1 222.8 474.1 225.6Q476.1 228.3 479.5 228.3ZM508.6 234.0Q507.4 235.2 505.3 235.2Q503.3 235.2 502 234.0Q500.8 232.7 500.8 230.5L500.8 230.5L500.8 205.0Q500.8 202.8 501.9 201.6Q503.1 200.4 505.2 200.4Q507.2 200.4 508.5 201.6Q509.7 202.9 509.7 205.0L509.7 205.0L509.7 206.9L509.9 206.9Q512.7 200.4 520.2 200.4L520.2 200.4Q525.8 200.4 528.8 203.7Q531.8 207.1 531.8 213.0L531.8 213.0L531.8 230.5Q531.8 232.7 530.6 234.0Q529.3 235.2 527.3 235.2Q525.2 235.2 524.0 234.0Q522.7 232.7 522.7 230.5L522.7 230.5L522.7 214.9Q522.7 211.6 521.2 209.8Q519.6 208.0 516.6 208.0Q513.5 208.0 511.7 210.0Q509.9 212.1 509.9 215.3L509.9 215.3L509.9 230.5Q509.9 232.7 508.6 234.0Z M552.7 226.0L552.7 226.0L552.7 207.9L551.0 207.9Q549.3 207.9 548.4 207.0Q547.4 206.1 547.4 204.5Q547.4 202.9 548.4 202.0Q549.3 201.1 551.0 201.1L551.0 201.1L552.7 201.1L552.7 197.3Q552.7 195.1 553.9 193.8Q555.2 192.6 557.3 192.6Q559.4 192.6 560.6 193.8Q561.8 195.1 561.8 197.3L561.8 197.3L561.8 201.1L565.1 201.1Q566.7 201.1 567.6 202.0Q568.6 202.9 568.6 204.5Q568.6 206.1 567.6 207.0Q566.7 207.9 565.1 207.9L565.1 207.9L561.8 207.9L561.8 224.0Q561.8 225.7 562.5 226.6Q563.2 227.4 564.6 227.5L564.6 227.5L565.2 227.6Q567.0 227.7 567.8 228.5Q568.7 229.3 568.7 230.9L568.7 230.9Q568.7 232.8 566.9 233.9Q565.2 234.9 562.2 234.9L562.2 234.9L561.9 234.9Q552.7 234.9 552.7 226.0ZM581.1 234.0Q579.9 235.2 577.8 235.2Q575.8 235.2 574.5 234.0Q573.3 232.7 573.3 230.5L573.3 230.5L573.3 193.5Q573.3 191.3 574.4 190.0Q575.6 188.8 577.8 188.8L577.8 188.8Q579.8 188.8 581.0 190.0Q582.2 191.2 582.2 193.5L582.2 193.5L582.2 207.0L582.4 207.0Q583.8 203.8 586.5 202.1Q589.2 200.4 592.9 200.4L592.9 200.4Q598.5 200.4 601.5 203.8Q604.6 207.1 604.6 213.0L604.6 213.0L604.6 230.5Q604.6 232.7 603.4 234.0Q602.1 235.2 600.1 235.2Q598 235.2 596.8 234.0Q595.5 232.7 595.5 230.5L595.5 230.5L595.5 214.9Q595.5 211.6 593.9 209.8Q592.3 208.0 589.2 208.0L589.2 208.0Q586.0 208.0 584.2 210.0Q582.4 212.1 582.4 215.4L582.4 215.4L582.4 230.5Q582.4 232.7 581.1 234.0ZM625.8 235.3L625.8 235.3Q618 235.3 613.6 230.7Q609.2 226.1 609.2 218.0L609.2 218.0Q609.2 209.9 613.6 205.1Q618.0 200.3 625.4 200.3L625.4 200.3Q632.5 200.3 636.9 204.7Q641.3 209.1 641.3 215.9L641.3 215.9Q641.3 217.8 640.3 218.9Q639.2 219.9 637.3 219.9L637.3 219.9L618.2 219.9L618.2 220.3Q618.2 224.0 620.3 226.3Q622.3 228.5 625.8 228.5L625.8 228.5Q628.3 228.5 630.1 227.6Q632.0 226.7 633.8 224.5L633.8 224.5Q635.1 223.1 636.8 223.1L636.8 223.1Q638.3 223.1 639.3 224.1Q640.3 225.0 640.3 226.5L640.3 226.5Q640.3 227.6 639.7 228.7L639.7 228.7Q638.1 231.8 634.4 233.5Q630.7 235.3 625.8 235.3ZM618.3 214.3L618.3 214.3L632.5 214.3Q632.4 211.0 630.4 209.1Q628.5 207.1 625.5 207.1Q622.5 207.1 620.5 209.1Q618.5 211.1 618.3 214.3Z M679.5 235.3L679.5 235.3Q669.5 235.3 663.7 229.1Q658 222.9 658 212.0L658 212.0Q658 201.1 663.7 194.9Q669.5 188.7 679.3 188.7L679.3 188.7Q685.6 188.7 690.3 191.4Q695 194.1 697.3 198.9L697.3 198.9Q698.3 200.7 698.3 202.5L698.3 202.5Q698.3 204.3 697.1 205.4Q696.0 206.5 694.1 206.5L694.1 206.5Q692.5 206.5 691.4 205.8Q690.4 205.1 689.6 203.4L689.6 203.4Q688.1 200.0 685.4 198.2Q682.8 196.5 679.3 196.5L679.3 196.5Q674 196.5 670.8 200.7Q667.6 204.9 667.6 212.0L667.6 212.0Q667.6 219.2 670.8 223.3Q673.9 227.5 679.4 227.5L679.4 227.5Q686.7 227.5 689.7 220.8L689.7 220.8Q690.4 219.2 691.4 218.6Q692.4 217.9 693.9 217.9L693.9 217.9Q695.9 217.9 697.1 219.0Q698.3 220.2 698.3 222.1L698.3 222.1Q698.3 223.5 697.6 225.2L697.6 225.2Q695.4 229.9 690.7 232.6Q685.9 235.3 679.5 235.3ZM731.7 230.6Q727.3 235.3 719.6 235.3Q711.9 235.3 707.5 230.6Q703 226.0 703 217.8L703 217.8Q703 209.7 707.5 205.0Q712.0 200.3 719.6 200.3L719.6 200.3Q727.2 200.3 731.7 205.0Q736.2 209.7 736.2 217.8L736.2 217.8Q736.2 226.0 731.7 230.6ZM719.6 228.3L719.6 228.3Q723.0 228.3 724.9 225.6Q726.9 222.8 726.9 217.8L726.9 217.8Q726.9 212.9 724.9 210.1Q723.0 207.3 719.6 207.3Q716.2 207.3 714.2 210.1Q712.3 212.9 712.3 217.8L712.3 217.8Q712.3 222.8 714.2 225.6Q716.2 228.3 719.6 228.3ZM749.0 234.0Q747.7 235.2 745.7 235.2Q743.6 235.2 742.3 234.0Q741.1 232.7 741.1 230.5L741.1 230.5L741.1 193.6Q741.1 191.3 742.3 190.0Q743.6 188.8 745.7 188.8Q747.7 188.8 749.0 190.0Q750.2 191.3 750.2 193.6L750.2 193.6L750.2 230.5Q750.2 232.7 749.0 234.0ZM764.5 234.0Q763.2 235.2 761.2 235.2Q759.1 235.2 757.8 234.0Q756.6 232.7 756.6 230.5L756.6 230.5L756.6 193.6Q756.6 191.3 757.8 190.0Q759.1 188.8 761.2 188.8Q763.2 188.8 764.5 190.0Q765.7 191.3 765.7 193.6L765.7 193.6L765.7 230.5Q765.7 232.7 764.5 234.0ZM780.1 195.5Q778.7 196.9 776.6 196.9Q774.5 196.9 773.1 195.5Q771.7 194.1 771.7 192.2L771.7 192.2Q771.7 190.2 773.1 188.8Q774.5 187.5 776.6 187.5Q778.7 187.5 780.1 188.8Q781.5 190.2 781.5 192.2L781.5 192.2Q781.5 194.1 780.1 195.5ZM779.9 233.9Q778.7 235.2 776.6 235.2Q774.5 235.2 773.3 233.9Q772.0 232.7 772.0 230.5L772.0 230.5L772.0 205.1Q772.0 202.9 773.3 201.6Q774.5 200.4 776.6 200.4Q778.7 200.4 779.9 201.6Q781.2 202.9 781.2 205.1L781.2 205.1L781.2 230.5Q781.2 232.7 779.9 233.9ZM800.9 235.3L800.9 235.3Q795.3 235.3 791.5 233.4Q787.7 231.6 786.5 228.6L786.5 228.6Q786.1 227.6 786.1 226.9L786.1 226.9Q786.1 225.3 787.2 224.4Q788.2 223.4 789.8 223.4L789.8 223.4Q791.9 223.4 793.8 225.5L793.8 225.5Q795.2 227.2 796.8 228.1Q798.5 228.9 801.1 228.9L801.1 228.9Q803.6 228.9 805.1 227.9Q806.6 226.9 806.6 225.3L806.6 225.3Q806.6 223.9 805.6 223.1Q804.6 222.3 802.1 221.8L802.1 221.8L796.5 220.6Q791.6 219.5 789.1 217.1Q786.6 214.6 786.6 210.9L786.6 210.9Q786.6 206.1 790.5 203.2Q794.3 200.3 800.8 200.3L800.8 200.3Q805.9 200.3 809.5 202.3Q813.1 204.3 814.0 207.3L814.0 207.3Q814.2 208.1 814.2 208.6L814.2 208.6Q814.2 210.1 813.3 210.9Q812.4 211.7 810.7 211.7L810.7 211.7Q808.6 211.7 807.4 210.3L807.4 210.3Q806 208.6 804.5 207.7Q803.0 206.7 800.7 206.7L800.7 206.7Q798.4 206.7 796.9 207.7Q795.4 208.7 795.4 210.4L795.4 210.4Q795.4 211.7 796.5 212.6Q797.6 213.5 800.1 214.0L800.1 214.0L805.6 215.2Q811.0 216.3 813.3 218.4Q815.7 220.6 815.7 224.3L815.7 224.3Q815.7 229.3 811.6 232.3Q807.5 235.3 800.9 235.3ZM828.4 195.5Q827.0 196.9 824.9 196.9Q822.8 196.9 821.4 195.5Q820.0 194.1 820.0 192.2L820.0 192.2Q820.0 190.2 821.4 188.8Q822.8 187.5 824.9 187.5Q827.0 187.5 828.4 188.8Q829.8 190.2 829.8 192.2L829.8 192.2Q829.8 194.1 828.4 195.5ZM828.3 233.9Q827.0 235.2 824.9 235.2Q822.8 235.2 821.6 233.9Q820.3 232.7 820.3 230.5L820.3 230.5L820.3 205.1Q820.3 202.9 821.6 201.6Q822.8 200.4 824.9 200.4Q827.0 200.4 828.3 201.6Q829.5 202.9 829.5 205.1L829.5 205.1L829.5 230.5Q829.5 232.7 828.3 233.9ZM863.0 230.6Q858.6 235.3 850.9 235.3Q843.3 235.3 838.8 230.6Q834.3 226.0 834.3 217.8L834.3 217.8Q834.3 209.7 838.8 205.0Q843.3 200.3 850.9 200.3L850.9 200.3Q858.5 200.3 863 205.0Q867.5 209.7 867.5 217.8L867.5 217.8Q867.5 226.0 863.0 230.6ZM850.9 228.3L850.9 228.3Q854.3 228.3 856.3 225.6Q858.2 222.8 858.2 217.8L858.2 217.8Q858.2 212.9 856.3 210.1Q854.3 207.3 850.9 207.3Q847.5 207.3 845.5 210.1Q843.6 212.9 843.6 217.8L843.6 217.8Q843.6 222.8 845.5 225.6Q847.5 228.3 850.9 228.3ZM880.1 234.0Q878.8 235.2 876.8 235.2Q874.7 235.2 873.4 234.0Q872.2 232.7 872.2 230.5L872.2 230.5L872.2 205.0Q872.2 202.8 873.4 201.6Q874.5 200.4 876.6 200.4Q878.7 200.4 879.9 201.6Q881.2 202.9 881.2 205.0L881.2 205.0L881.2 206.9L881.3 206.9Q884.1 200.4 891.7 200.4L891.7 200.4Q897.2 200.4 900.3 203.7Q903.3 207.1 903.3 213.0L903.3 213.0L903.3 230.5Q903.3 232.7 902.0 234.0Q900.8 235.2 898.7 235.2Q896.7 235.2 895.4 234.0Q894.2 232.7 894.2 230.5L894.2 230.5L894.2 214.9Q894.2 211.6 892.6 209.8Q891.0 208.0 888 208.0Q885.0 208.0 883.1 210.0Q881.3 212.1 881.3 215.3L881.3 215.3L881.3 230.5Q881.3 232.7 880.1 234.0Z M95.8 308.9L95.8 308.9Q85.8 308.9 80.1 302.7Q74.3 296.5 74.3 285.6L74.3 285.6Q74.3 274.7 80.1 268.5Q85.8 262.3 95.6 262.3L95.6 262.3Q101.9 262.3 106.6 265.0Q111.3 267.6 113.7 272.5L113.7 272.5Q114.6 274.3 114.6 276.1L114.6 276.1Q114.6 277.9 113.5 279.0Q112.3 280.1 110.4 280.1L110.4 280.1Q108.8 280.1 107.8 279.4Q106.7 278.6 105.9 277.0L105.9 277.0Q104.4 273.6 101.8 271.8Q99.1 270.1 95.7 270.1L95.7 270.1Q90.3 270.1 87.2 274.3Q84.0 278.5 84.0 285.6L84.0 285.6Q84.0 292.8 87.1 296.9Q90.3 301.1 95.7 301.1L95.7 301.1Q103.1 301.1 106.1 294.4L106.1 294.4Q106.8 292.8 107.8 292.1Q108.7 291.5 110.2 291.5L110.2 291.5Q112.2 291.5 113.4 292.6Q114.6 293.8 114.6 295.6L114.6 295.6Q114.6 297.1 113.9 298.8L113.9 298.8Q111.8 303.5 107 306.2Q102.2 308.9 95.8 308.9ZM148.1 304.2Q143.6 308.9 135.9 308.9Q128.3 308.9 123.8 304.2Q119.3 299.6 119.3 291.4L119.3 291.4Q119.3 283.3 123.9 278.6Q128.4 273.9 135.9 273.9L135.9 273.9Q143.5 273.9 148.0 278.6Q152.5 283.3 152.5 291.4L152.5 291.4Q152.5 299.6 148.1 304.2ZM135.9 301.9L135.9 301.9Q139.3 301.9 141.3 299.1Q143.3 296.4 143.3 291.4L143.3 291.4Q143.3 286.5 141.3 283.7Q139.3 280.9 135.9 280.9Q132.6 280.9 130.6 283.7Q128.6 286.5 128.6 291.4L128.6 291.4Q128.6 296.4 130.6 299.1Q132.5 301.9 135.9 301.9ZM165.1 307.6Q163.8 308.8 161.8 308.8Q159.7 308.8 158.5 307.6Q157.2 306.3 157.2 304.1L157.2 304.1L157.2 278.6Q157.2 276.4 158.4 275.2Q159.6 274.0 161.6 274.0Q163.7 274.0 164.9 275.2Q166.2 276.5 166.2 278.6L166.2 278.6L166.2 280.5L166.4 280.5Q169.1 274.0 176.7 274.0L176.7 274.0Q182.3 274.0 185.3 277.3Q188.3 280.6 188.3 286.6L188.3 286.6L188.3 304.1Q188.3 306.3 187.1 307.6Q185.8 308.8 183.8 308.8Q181.7 308.8 180.4 307.6Q179.2 306.3 179.2 304.1L179.2 304.1L179.2 288.5Q179.2 285.1 177.6 283.4Q176.1 281.6 173.0 281.6Q170 281.6 168.2 283.6Q166.3 285.6 166.3 288.9L166.3 288.9L166.3 304.1Q166.3 306.3 165.1 307.6ZM196.5 299.6L196.5 299.6L196.5 281.5L194.8 281.5Q193.2 281.5 192.2 280.6Q191.3 279.7 191.3 278.1Q191.3 276.5 192.2 275.6Q193.2 274.6 194.8 274.6L194.8 274.6L196.5 274.6L196.5 270.9Q196.5 268.7 197.8 267.4Q199.0 266.2 201.1 266.2Q203.2 266.2 204.4 267.4Q205.7 268.7 205.7 270.9L205.7 270.9L205.7 274.6L208.9 274.6Q210.5 274.6 211.4 275.6Q212.4 276.5 212.4 278.1Q212.4 279.6 211.4 280.6Q210.5 281.5 208.9 281.5L208.9 281.5L205.7 281.5L205.7 297.6Q205.7 299.3 206.3 300.1Q207.0 301.0 208.4 301.1L208.4 301.1L209.0 301.1Q210.8 301.3 211.6 302.1Q212.5 302.9 212.5 304.5L212.5 304.5Q212.5 306.4 210.8 307.5Q209 308.5 206.0 308.5L206.0 308.5L205.7 308.5Q196.5 308.5 196.5 299.6ZM221.4 308.8L221.4 308.8Q219.3 308.8 218.1 307.6Q216.8 306.3 216.8 304.1L216.8 304.1L216.8 278.6Q216.8 276.4 218.0 275.2Q219.3 274.0 221.3 274.0L221.3 274.0Q223.2 274.0 224.4 275.2Q225.6 276.4 225.6 278.6L225.6 278.6L225.6 280.7L225.8 280.7Q226.4 277.6 228.3 275.9Q230.2 274.1 232.7 274.1L232.7 274.1Q234.6 274.1 235.6 275.0L235.6 275.0Q236.9 276.0 236.9 278.3L236.9 278.3Q236.9 280.5 235.6 281.6L235.6 281.6Q234.2 282.8 231.6 282.8L231.6 282.8Q228.6 282.8 227.3 284.4Q226.0 286.1 226.0 289.2L226.0 289.2L226.0 304.1Q226.0 306.3 224.8 307.6Q223.5 308.8 221.4 308.8ZM267.6 304.2Q263.2 308.9 255.5 308.9Q247.8 308.9 243.4 304.2Q238.9 299.6 238.9 291.4L238.9 291.4Q238.9 283.3 243.4 278.6Q247.9 273.9 255.5 273.9L255.5 273.9Q263.1 273.9 267.6 278.6Q272.1 283.3 272.1 291.4L272.1 291.4Q272.1 299.6 267.6 304.2ZM255.5 301.9L255.5 301.9Q258.9 301.9 260.8 299.1Q262.8 296.4 262.8 291.4L262.8 291.4Q262.8 286.5 260.8 283.7Q258.9 280.9 255.5 280.9Q252.1 280.9 250.1 283.7Q248.2 286.5 248.2 291.4L248.2 291.4Q248.2 296.4 250.1 299.1Q252.1 301.9 255.5 301.9ZM284.9 307.6Q283.6 308.8 281.6 308.8Q279.5 308.8 278.3 307.6Q277 306.3 277 304.1L277 304.1L277 267.1Q277 264.9 278.3 263.6Q279.5 262.4 281.6 262.4Q283.6 262.4 284.9 263.6Q286.1 264.9 286.1 267.1L286.1 267.1L286.1 304.1Q286.1 306.3 284.9 307.6Z M332.4 304.2Q328.0 308.9 320.3 308.9Q312.7 308.9 308.2 304.2Q303.7 299.6 303.7 291.4L303.7 291.4Q303.7 283.3 308.2 278.6Q312.8 273.9 320.3 273.9L320.3 273.9Q327.9 273.9 332.4 278.6Q336.9 283.3 336.9 291.4L336.9 291.4Q336.9 299.6 332.4 304.2ZM320.3 301.9L320.3 301.9Q323.7 301.9 325.7 299.1Q327.6 296.4 327.6 291.4L327.6 291.4Q327.6 286.5 325.7 283.7Q323.7 280.9 320.3 280.9Q316.9 280.9 315.0 283.7Q313.0 286.5 313.0 291.4L313.0 291.4Q313.0 296.4 314.9 299.1Q316.9 301.9 320.3 301.9ZM351.9 307.6Q350.7 308.8 348.6 308.8Q346.5 308.8 345.3 307.6Q344.0 306.4 344.0 304.1L344.0 304.1L344.0 281.5L342.3 281.5Q340.8 281.5 339.9 280.6Q338.9 279.7 338.9 278.1Q338.9 276.6 339.9 275.7Q340.8 274.8 342.3 274.8L342.3 274.8L344.0 274.8L344.0 272.3Q344.0 267.4 346.4 265.0Q348.8 262.7 353.6 262.6L353.6 262.6Q357.1 262.6 358.8 263.6Q360.5 264.6 360.5 266.3L360.5 266.3Q360.5 268.2 358.6 268.7L358.6 268.7Q357.8 269.0 356.9 269.0L356.9 269.0Q354.8 269.1 353.9 269.9Q352.9 270.8 352.9 272.7L352.9 272.7L352.9 274.8L356.8 274.8Q358.3 274.8 359.2 275.7Q360.1 276.6 360.1 278.1Q360.1 279.7 359.2 280.6Q358.3 281.5 356.8 281.5L356.8 281.5L353.2 281.5L353.2 304.1Q353.2 306.4 351.9 307.6Z M385.1 307.6Q384.0 308.7 382.0 308.7Q380.0 308.7 378.9 307.6Q377.8 306.4 377.8 304.3L377.8 304.3L377.8 268.5Q377.8 265.6 379.4 264.0Q381.0 262.4 383.9 262.4L383.9 262.4Q386.4 262.4 387.9 263.6Q389.3 264.7 390.4 267.3L390.4 267.3L401.6 295.0L401.8 295.0L413.0 267.3Q414 264.7 415.5 263.6Q417.0 262.4 419.5 262.4L419.5 262.4Q422.4 262.4 424.0 264.0Q425.6 265.6 425.6 268.5L425.6 268.5L425.6 304.3Q425.6 306.4 424.5 307.6Q423.3 308.7 421.3 308.7Q419.3 308.7 418.3 307.6Q417.2 306.4 417.2 304.3L417.2 304.3L417.2 277.7L416.9 277.7L405.8 305.0Q404.6 307.9 401.7 307.9L401.7 307.9Q398.8 307.9 397.6 305.0L397.6 305.0L386.5 277.7L386.2 277.7L386.2 304.3Q386.2 306.4 385.1 307.6ZM444.2 308.8L444.2 308.8Q438.7 308.8 435.4 305.4Q432.1 302.1 432.1 296.2L432.1 296.2L432.1 278.7Q432.1 276.5 433.4 275.2Q434.6 274.0 436.7 274.0Q438.8 274.0 440 275.2Q441.3 276.5 441.3 278.7L441.3 278.7L441.3 294.3Q441.3 297.7 442.9 299.4Q444.5 301.2 447.5 301.2Q450.5 301.2 452.3 299.2Q454.1 297.2 454.1 293.8L454.1 293.8L454.1 278.7Q454.1 276.5 455.3 275.2Q456.6 274.0 458.7 274.0Q460.7 274.0 462.0 275.2Q463.2 276.5 463.2 278.7L463.2 278.7L463.2 304.2Q463.2 306.4 462.0 307.6Q460.8 308.8 458.8 308.8Q456.8 308.8 455.6 307.6Q454.4 306.4 454.4 304.2L454.4 304.2L454.4 302.1L454.2 302.1Q451.6 308.8 444.2 308.8ZM477.3 307.6Q476 308.8 473.9 308.8Q471.9 308.8 470.6 307.6Q469.4 306.3 469.4 304.1L469.4 304.1L469.4 267.1Q469.4 264.9 470.6 263.6Q471.9 262.4 473.9 262.4Q476 262.4 477.3 263.6Q478.5 264.9 478.5 267.1L478.5 267.1L478.5 304.1Q478.5 306.3 477.3 307.6ZM487.1 299.6L487.1 299.6L487.1 281.5L485.3 281.5Q483.7 281.5 482.8 280.6Q481.8 279.7 481.8 278.1Q481.8 276.5 482.8 275.6Q483.7 274.6 485.3 274.6L485.3 274.6L487.1 274.6L487.1 270.9Q487.1 268.7 488.3 267.4Q489.5 266.2 491.7 266.2Q493.8 266.2 495 267.4Q496.2 268.7 496.2 270.9L496.2 270.9L496.2 274.6L499.4 274.6Q501.1 274.6 502 275.6Q502.9 276.5 502.9 278.1Q502.9 279.6 502 280.6Q501.1 281.5 499.4 281.5L499.4 281.5L496.2 281.5L496.2 297.6Q496.2 299.3 496.9 300.1Q497.5 301.0 499 301.1L499 301.1L499.6 301.1Q501.3 301.3 502.2 302.1Q503.1 302.9 503.1 304.5L503.1 304.5Q503.1 306.4 501.3 307.5Q499.6 308.5 496.6 308.5L496.6 308.5L496.3 308.5Q487.1 308.5 487.1 299.6ZM515.6 269.1Q514.2 270.5 512.1 270.5Q510.1 270.5 508.7 269.1Q507.3 267.7 507.3 265.8L507.3 265.8Q507.3 263.8 508.7 262.4Q510.1 261.1 512.1 261.1Q514.2 261.1 515.6 262.4Q517 263.8 517 265.8L517 265.8Q517 267.7 515.6 269.1ZM515.5 307.5Q514.3 308.8 512.1 308.8Q510 308.8 508.8 307.5Q507.6 306.3 507.6 304.1L507.6 304.1L507.6 278.7Q507.6 276.5 508.8 275.2Q510 274.0 512.1 274.0Q514.3 274.0 515.5 275.2Q516.7 276.5 516.7 278.7L516.7 278.7L516.7 304.1Q516.7 306.3 515.5 307.5ZM530.6 318.9Q529.4 320.1 527.3 320.1Q525.3 320.1 524 318.9Q522.8 317.6 522.8 315.3L522.8 315.3L522.8 278.6Q522.8 276.4 524.0 275.2Q525.2 274.0 527.3 274.0Q529.3 274.0 530.5 275.2Q531.8 276.4 531.8 278.7L531.8 278.7L531.8 280.5L531.9 280.5Q533.3 277.5 536.0 275.8Q538.7 274.1 542.3 274.1L542.3 274.1Q548.7 274.1 552.4 278.7Q556.0 283.3 556.0 291.4L556.0 291.4Q556.0 299.5 552.4 304.1Q548.8 308.7 542.5 308.7L542.5 308.7Q538.9 308.7 536.1 307.0Q533.4 305.4 532.1 302.5L532.1 302.5L531.9 302.5L531.9 315.3Q531.9 317.6 530.6 318.9ZM539.3 301.3L539.3 301.3Q542.7 301.3 544.7 298.6Q546.7 296.0 546.7 291.4Q546.7 286.8 544.7 284.1Q542.7 281.4 539.3 281.4L539.3 281.4Q535.9 281.4 533.9 284.2Q531.8 286.9 531.8 291.4L531.8 291.4Q531.8 295.9 533.9 298.6Q535.9 301.3 539.3 301.3ZM568.8 307.6Q567.6 308.8 565.5 308.8Q563.4 308.8 562.2 307.6Q560.9 306.3 560.9 304.1L560.9 304.1L560.9 267.1Q560.9 264.9 562.2 263.6Q563.4 262.4 565.5 262.4Q567.6 262.4 568.8 263.6Q570.1 264.9 570.1 267.1L570.1 267.1L570.1 304.1Q570.1 306.3 568.8 307.6ZM591.6 308.9L591.6 308.9Q583.8 308.9 579.4 304.3Q575 299.7 575 291.6L575 291.6Q575 283.5 579.4 278.7Q583.8 273.9 591.2 273.9L591.2 273.9Q598.3 273.9 602.7 278.3Q607.1 282.6 607.1 289.5L607.1 289.5Q607.1 291.4 606.0 292.5Q605 293.5 603.1 293.5L603.1 293.5L584.0 293.5L584.0 293.9Q584.0 297.6 586.0 299.9Q588.1 302.1 591.6 302.1L591.6 302.1Q594.1 302.1 595.9 301.2Q597.8 300.3 599.6 298.1L599.6 298.1Q600.9 296.7 602.6 296.7L602.6 296.7Q604.1 296.7 605.1 297.6Q606.1 298.6 606.1 300.1L606.1 300.1Q606.1 301.1 605.5 302.3L605.5 302.3Q603.8 305.4 600.2 307.1Q596.5 308.9 591.6 308.9ZM584.1 287.9L584.1 287.9L598.3 287.9Q598.2 284.6 596.2 282.6Q594.3 280.7 591.3 280.7Q588.3 280.7 586.3 282.7Q584.3 284.7 584.1 287.9Z M628.2 308.7L628.2 308.7Q626 308.7 624.7 307.5Q623.4 306.3 623.4 304.3L623.4 304.3Q623.4 303.1 624.0 301.3L624.0 301.3L636.3 267.8Q637.3 265.0 639.1 263.7Q640.8 262.4 643.4 262.4L643.4 262.4Q646.2 262.4 647.9 263.7Q649.7 265.0 650.7 267.7L650.7 267.7L663.0 301.3Q663.6 303.0 663.6 304.3L663.6 304.3Q663.6 306.2 662.3 307.5Q661.0 308.7 658.9 308.7L658.9 308.7Q656.9 308.7 655.8 307.8Q654.6 306.8 654 304.6L654 304.6L651.6 297.5L635.3 297.5L633.0 304.5Q632.3 306.7 631.2 307.7Q630.1 308.7 628.2 308.7ZM643.3 271.7L637.4 290.1L649.4 290.1L643.5 271.7L643.3 271.7ZM680.5 308.8L680.5 308.8Q675.0 308.8 671.7 305.4Q668.4 302.1 668.4 296.2L668.4 296.2L668.4 278.7Q668.4 276.5 669.7 275.2Q670.9 274.0 673.0 274.0Q675.0 274.0 676.3 275.2Q677.5 276.5 677.5 278.7L677.5 278.7L677.5 294.3Q677.5 297.7 679.1 299.4Q680.8 301.2 683.8 301.2Q686.8 301.2 688.6 299.2Q690.4 297.2 690.4 293.8L690.4 293.8L690.4 278.7Q690.4 276.5 691.6 275.2Q692.9 274.0 694.9 274.0Q697 274.0 698.3 275.2Q699.5 276.5 699.5 278.7L699.5 278.7L699.5 304.2Q699.5 306.4 698.3 307.6Q697.1 308.8 695.1 308.8Q693.1 308.8 691.9 307.6Q690.7 306.4 690.7 304.2L690.7 304.2L690.7 302.1L690.5 302.1Q687.9 308.8 680.5 308.8ZM707.9 299.6L707.9 299.6L707.9 281.5L706.1 281.5Q704.5 281.5 703.5 280.6Q702.6 279.7 702.6 278.1Q702.6 276.5 703.5 275.6Q704.5 274.6 706.1 274.6L706.1 274.6L707.9 274.6L707.9 270.9Q707.9 268.7 709.1 267.4Q710.3 266.2 712.4 266.2Q714.6 266.2 715.8 267.4Q717 268.7 717 270.9L717 270.9L717 274.6L720.2 274.6Q721.8 274.6 722.8 275.6Q723.7 276.5 723.7 278.1Q723.7 279.6 722.8 280.6Q721.8 281.5 720.2 281.5L720.2 281.5L717 281.5L717 297.6Q717 299.3 717.7 300.1Q718.3 301.0 719.8 301.1L719.8 301.1L720.4 301.1Q722.1 301.3 723.0 302.1Q723.8 302.9 723.8 304.5L723.8 304.5Q723.8 306.4 722.1 307.5Q720.3 308.5 717.4 308.5L717.4 308.5L717.1 308.5Q707.9 308.5 707.9 299.6ZM755.7 304.2Q751.2 308.9 743.6 308.9Q735.9 308.9 731.4 304.2Q727.0 299.6 727.0 291.4L727.0 291.4Q727.0 283.3 731.5 278.6Q736 273.9 743.6 273.9L743.6 273.9Q751.2 273.9 755.7 278.6Q760.2 283.3 760.2 291.4L760.2 291.4Q760.2 299.6 755.7 304.2ZM743.6 301.9L743.6 301.9Q746.9 301.9 748.9 299.1Q750.9 296.4 750.9 291.4L750.9 291.4Q750.9 286.5 748.9 283.7Q746.9 280.9 743.6 280.9Q740.2 280.9 738.2 283.7Q736.2 286.5 736.2 291.4L736.2 291.4Q736.2 296.4 738.2 299.1Q740.2 301.9 743.6 301.9ZM772.7 307.6Q771.5 308.8 769.4 308.8Q767.3 308.8 766.1 307.6Q764.8 306.3 764.8 304.1L764.8 304.1L764.8 278.6Q764.8 276.4 766.0 275.2Q767.2 274.0 769.3 274.0Q771.3 274.0 772.6 275.2Q773.8 276.5 773.8 278.6L773.8 278.6L773.8 280.5L774 280.5Q776.8 274.0 784.3 274.0L784.3 274.0Q789.9 274.0 792.9 277.3Q795.9 280.6 795.9 286.6L795.9 286.6L795.9 304.1Q795.9 306.3 794.7 307.6Q793.4 308.8 791.4 308.8Q789.3 308.8 788.1 307.6Q786.8 306.3 786.8 304.1L786.8 304.1L786.8 288.5Q786.8 285.1 785.3 283.4Q783.7 281.6 780.7 281.6Q777.6 281.6 775.8 283.6Q774.0 285.6 774.0 288.9L774.0 288.9L774.0 304.1Q774.0 306.3 772.7 307.6ZM829.2 304.2Q824.8 308.9 817.1 308.9Q809.4 308.9 805.0 304.2Q800.5 299.6 800.5 291.4L800.5 291.4Q800.5 283.3 805.0 278.6Q809.5 273.9 817.1 273.9L817.1 273.9Q824.7 273.9 829.2 278.6Q833.7 283.3 833.7 291.4L833.7 291.4Q833.7 299.6 829.2 304.2ZM817.1 301.9L817.1 301.9Q820.5 301.9 822.4 299.1Q824.4 296.4 824.4 291.4L824.4 291.4Q824.4 286.5 822.4 283.7Q820.5 280.9 817.1 280.9Q813.7 280.9 811.7 283.7Q809.8 286.5 809.8 291.4L809.8 291.4Q809.8 296.4 811.7 299.1Q813.7 301.9 817.1 301.9ZM842.9 308.8L842.9 308.8Q840.8 308.8 839.6 307.6Q838.4 306.3 838.4 304.1L838.4 304.1L838.4 278.6Q838.4 276.4 839.6 275.2Q840.8 274.0 842.8 274.0Q844.8 274.0 846.0 275.2Q847.2 276.4 847.2 278.6L847.2 278.6L847.2 280.7L847.4 280.7Q848.4 277.6 851 275.8Q853.6 274.0 856.9 274.0L856.9 274.0Q860.6 274.0 863 275.8Q865.4 277.6 866.3 280.9L866.3 280.9L866.5 280.9Q867.6 277.7 870.4 275.9Q873.2 274.0 876.9 274.0L876.9 274.0Q881.8 274.0 884.8 277.1Q887.8 280.2 887.8 285.3L887.8 285.3L887.8 304.1Q887.8 306.3 886.6 307.6Q885.3 308.8 883.3 308.8L883.3 308.8Q881.2 308.8 880.0 307.6Q878.7 306.3 878.7 304.1L878.7 304.1L878.7 287.6Q878.7 284.6 877.3 283.1Q875.9 281.6 873.3 281.6L873.3 281.6Q870.7 281.6 869.1 283.3Q867.5 285.0 867.5 287.8L867.5 287.8L867.5 304.1Q867.5 306.3 866.3 307.6Q865.2 308.8 863.1 308.8L863.1 308.8Q861.1 308.8 859.9 307.6Q858.7 306.3 858.7 304.1L858.7 304.1L858.7 287.3Q858.7 284.6 857.3 283.1Q855.8 281.6 853.3 281.6L853.3 281.6Q850.7 281.6 849.1 283.3Q847.5 285.1 847.5 287.9L847.5 287.9L847.5 304.1Q847.5 306.3 846.3 307.6Q845 308.8 842.9 308.8ZM921.1 304.2Q916.7 308.9 909 308.9Q901.3 308.9 896.9 304.2Q892.4 299.6 892.4 291.4L892.4 291.4Q892.4 283.3 896.9 278.6Q901.4 273.9 909 273.9L909 273.9Q916.6 273.9 921.1 278.6Q925.6 283.3 925.6 291.4L925.6 291.4Q925.6 299.6 921.1 304.2ZM909 301.9L909 301.9Q912.4 301.9 914.3 299.1Q916.3 296.4 916.3 291.4L916.3 291.4Q916.3 286.5 914.3 283.7Q912.4 280.9 909 280.9Q905.6 280.9 903.6 283.7Q901.7 286.5 901.7 291.4L901.7 291.4Q901.7 296.4 903.6 299.1Q905.6 301.9 909 301.9ZM942.2 308.8L942.2 308.8Q936.7 308.8 933.4 305.4Q930.1 302.1 930.1 296.2L930.1 296.2L930.1 278.7Q930.1 276.5 931.4 275.2Q932.6 274.0 934.7 274.0Q936.8 274.0 938 275.2Q939.3 276.5 939.3 278.7L939.3 278.7L939.3 294.3Q939.3 297.7 940.9 299.4Q942.5 301.2 945.5 301.2Q948.5 301.2 950.3 299.2Q952.1 297.2 952.1 293.8L952.1 293.8L952.1 278.7Q952.1 276.5 953.3 275.2Q954.6 274.0 956.7 274.0Q958.7 274.0 960.0 275.2Q961.2 276.5 961.2 278.7L961.2 278.7L961.2 304.2Q961.2 306.4 960.0 307.6Q958.8 308.8 956.8 308.8Q954.8 308.8 953.6 307.6Q952.4 306.4 952.4 304.2L952.4 304.2L952.4 302.1L952.2 302.1Q949.6 308.8 942.2 308.8ZM980.8 308.9L980.8 308.9Q975.2 308.9 971.4 307.0Q967.6 305.2 966.4 302.2L966.4 302.2Q966.1 301.2 966.1 300.5L966.1 300.5Q966.1 298.9 967.1 298.0Q968.2 297.0 969.8 297.0L969.8 297.0Q971.9 297.0 973.7 299.1L973.7 299.1Q975.1 300.8 976.8 301.6Q978.5 302.5 981.0 302.5L981.0 302.5Q983.5 302.5 985.0 301.5Q986.5 300.5 986.5 298.9L986.5 298.9Q986.5 297.5 985.5 296.7Q984.5 295.9 982.1 295.4L982.1 295.4L976.4 294.2Q971.5 293.1 969.0 290.7Q966.6 288.2 966.6 284.5L966.6 284.5Q966.6 279.6 970.4 276.8Q974.3 273.9 980.8 273.9L980.8 273.9Q985.8 273.9 989.5 275.9Q993.1 277.9 993.9 280.9L993.9 280.9Q994.1 281.7 994.1 282.2L994.1 282.2Q994.1 283.6 993.2 284.5Q992.3 285.3 990.6 285.3L990.6 285.3Q988.5 285.3 987.3 283.9L987.3 283.9Q985.9 282.2 984.4 281.3Q982.9 280.3 980.6 280.3L980.6 280.3Q978.3 280.3 976.8 281.3Q975.4 282.3 975.4 284.0L975.4 284.0Q975.4 285.3 976.5 286.2Q977.6 287.1 980.0 287.6L980.0 287.6L985.6 288.8Q990.9 289.9 993.3 292.0Q995.6 294.1 995.6 297.9L995.6 297.9Q995.6 302.9 991.5 305.9Q987.5 308.9 980.8 308.9Z M83.9 381.1Q82.7 382.4 80.5 382.4Q78.3 382.4 77 381.1Q75.8 379.8 75.8 377.5L75.8 377.5L75.8 341.6Q75.8 339.3 77 338.0Q78.3 336.7 80.5 336.7L80.5 336.7L94.2 336.7Q101.9 336.7 106.2 340.5Q110.5 344.3 110.5 351.0L110.5 351.0Q110.5 355.3 108.5 358.7Q106.5 362.0 102.8 363.6L102.8 363.6L109.3 374.8Q110.3 376.6 110.3 378.1L110.3 378.1Q110.3 380.0 108.9 381.2Q107.6 382.4 105.5 382.4L105.5 382.4Q103.8 382.4 102.9 381.7Q101.9 380.9 100.7 378.8L100.7 378.8L93.2 365.3L85.2 365.3L85.2 377.5Q85.2 379.8 83.9 381.1ZM85.2 344.0L85.2 358.4L93.3 358.4Q96.9 358.4 98.9 356.5Q100.8 354.6 100.8 351.2L100.8 351.2Q100.8 347.9 98.8 346.0Q96.7 344.0 93.2 344.0L93.2 344.0L85.2 344.0ZM143.4 377.8Q139.0 382.5 131.3 382.5Q123.7 382.5 119.2 377.8Q114.7 373.2 114.7 365.0L114.7 365.0Q114.7 356.9 119.2 352.2Q123.8 347.5 131.3 347.5L131.3 347.5Q138.9 347.5 143.4 352.2Q147.9 356.9 147.9 365.0L147.9 365.0Q147.9 373.2 143.4 377.8ZM131.3 375.5L131.3 375.5Q134.7 375.5 136.7 372.8Q138.6 370 138.6 365L138.6 365Q138.6 360.1 136.7 357.3Q134.7 354.5 131.3 354.5Q127.9 354.5 126.0 357.3Q124.0 360.1 124.0 365L124.0 365Q124.0 370 125.9 372.8Q127.9 375.5 131.3 375.5ZM157.3 382.4L157.3 382.4Q155.3 382.4 154.0 381.2Q152.8 380.0 152.8 377.8L152.8 377.8L152.8 340.8Q152.8 338.5 154.1 337.2Q155.3 336.0 157.4 336.0Q159.4 336.0 160.7 337.2Q161.9 338.5 161.9 340.8L161.9 340.8L161.9 354.1L162.1 354.1Q163.5 351.1 166.2 349.4Q168.9 347.7 172.5 347.7L172.5 347.7Q178.8 347.7 182.5 352.3Q186.1 356.9 186.1 365Q186.1 373.1 182.5 377.7Q178.8 382.3 172.5 382.3L172.5 382.3Q168.9 382.3 166.2 380.6Q163.4 379.0 162 376L162 376L161.8 376L161.8 377.8Q161.8 380 160.6 381.2Q159.3 382.4 157.3 382.4ZM169.4 374.9L169.4 374.9Q172.8 374.9 174.8 372.3Q176.8 369.6 176.8 365L176.8 365Q176.8 360.4 174.8 357.7Q172.8 355.0 169.4 355.0L169.4 355.0Q166.0 355.0 164.0 357.8Q161.9 360.5 161.9 365L161.9 365Q161.9 369.5 164.0 372.2Q166.0 374.9 169.4 374.9ZM218.3 377.8Q213.8 382.5 206.2 382.5Q198.5 382.5 194.1 377.8Q189.6 373.2 189.6 365.0L189.6 365.0Q189.6 356.9 194.1 352.2Q198.6 347.5 206.2 347.5L206.2 347.5Q213.8 347.5 218.3 352.2Q222.8 356.9 222.8 365.0L222.8 365.0Q222.8 373.2 218.3 377.8ZM206.2 375.5L206.2 375.5Q209.6 375.5 211.5 372.8Q213.5 370 213.5 365L213.5 365Q213.5 360.1 211.5 357.3Q209.6 354.5 206.2 354.5Q202.8 354.5 200.8 357.3Q198.8 360.1 198.8 365L198.8 365Q198.8 370 200.8 372.8Q202.8 375.5 206.2 375.5ZM229.9 373.2L229.9 373.2L229.9 355.1L228.2 355.1Q226.5 355.1 225.6 354.2Q224.6 353.3 224.6 351.7Q224.6 350.1 225.6 349.2Q226.5 348.3 228.2 348.3L228.2 348.3L229.9 348.3L229.9 344.5Q229.9 342.3 231.1 341.0Q232.3 339.8 234.5 339.8Q236.6 339.8 237.8 341.0Q239.0 342.3 239.0 344.5L239.0 344.5L239.0 348.3L242.3 348.3Q243.9 348.3 244.8 349.2Q245.8 350.1 245.8 351.7Q245.8 353.3 244.8 354.2Q243.9 355.1 242.3 355.1L242.3 355.1L239.0 355.1L239.0 371.2Q239.0 372.9 239.7 373.8Q240.3 374.6 241.8 374.7L241.8 374.7L242.4 374.8Q244.2 374.9 245.0 375.7Q245.9 376.5 245.9 378.1L245.9 378.1Q245.9 380.0 244.1 381.1Q242.4 382.1 239.4 382.1L239.4 382.1L239.1 382.1Q229.9 382.1 229.9 373.2ZM263.9 382.5L263.9 382.5Q258.3 382.5 254.5 380.6Q250.7 378.8 249.5 375.8L249.5 375.8Q249.1 374.8 249.1 374.1L249.1 374.1Q249.1 372.5 250.2 371.6Q251.2 370.6 252.8 370.6L252.8 370.6Q254.9 370.6 256.8 372.7L256.8 372.7Q258.2 374.4 259.8 375.3Q261.5 376.1 264.1 376.1L264.1 376.1Q266.6 376.1 268.1 375.1Q269.6 374.1 269.6 372.5L269.6 372.5Q269.6 371.1 268.6 370.3Q267.6 369.5 265.1 369.0L265.1 369.0L259.5 367.8Q254.6 366.7 252.1 364.3Q249.6 361.8 249.6 358.1L249.6 358.1Q249.6 353.3 253.5 350.4Q257.3 347.5 263.8 347.5L263.8 347.5Q268.9 347.5 272.5 349.5Q276.1 351.5 277.0 354.5L277.0 354.5Q277.2 355.3 277.2 355.8L277.2 355.8Q277.2 357.3 276.3 358.1Q275.4 358.9 273.7 358.9L273.7 358.9Q271.6 358.9 270.4 357.5L270.4 357.5Q269 355.8 267.5 354.9Q266.0 353.9 263.7 353.9L263.7 353.9Q261.4 353.9 259.9 354.9Q258.4 355.9 258.4 357.6L258.4 357.6Q258.4 358.9 259.5 359.8Q260.6 360.7 263.1 361.2L263.1 361.2L268.6 362.4Q274.0 363.5 276.3 365.6Q278.7 367.8 278.7 371.5L278.7 371.5Q278.7 376.5 274.6 379.5Q270.5 382.5 263.9 382.5Z " clip-path="url(#satori_cp-id-0)" mask="url(#satori_om-id-0)"/><defs><clipPath id="satori_bc-id-0-1" clip-path="url(#satori_cp-id-0)"><rect x="0" y="509" width="1200" height="121"/></clipPath></defs><mask id="satori_om-id-0-1"><rect x="0" y="510" width="1200" height="120" fill="#fff" mask="url(#satori_om-id-0)"/><path width="1200" height="121" fill="none" stroke="#000" stroke-width="2" d="M0,509 A0,0 0 0 1 0,509 h1200 A0,0 0 0 1 1200,509"/></mask><path width="1200" height="121" clip-path="url(#satori_bc-id-0-1)" fill="none" stroke="rgba(0,0,0,0.08)" stroke-width="2" d="M0,509 A0,0 0 0 1 0,509 h1200 A0,0 0 0 1 1200,509"/><mask id="satori_om-id-0-1-0"><rect x="48" y="538" width="228" height="64" fill="#fff" mask="url(#satori_om-id-0)"/></mask><mask id="satori_om-id-0-1-0-0"><rect x="48" y="538" width="72" height="64" fill="#fff" mask="url(#satori_om-id-0)"/></mask><clipPath id="satori_cp-id-0-1-0-0-0" clip-path="url(#satori_cp-id-0)"><rect x="48" y="538" width="72" height="64"/></clipPath><mask id="satori_om-id-0-1-0-0-0"><rect x="48" y="538" width="72" height="64" fill="#fff" mask="url(#satori_om-id-0)"/></mask><image x="48" y="538" width="72" height="64" href="data:image/svg+xml;utf8,%3Csvg  xmlns=%22http://www.w3.org/2000/svg%22 width=%2273.60461760461762%22 height=%2264%22 viewBox=%220 0 797 693%22%3E%3Cg transform=%22matrix(1,0,0,1,-345,-96.5)%22%3E%3Cpath d=%22M756.942,197.15L756.942,474C701.751,474 656.942,518.808 656.942,574C656.942,629.192 701.751,674 756.942,674L756.942,777L495.122,777C443.175,777 401,734.825 401,682.878L401,614L364.755,614C353.852,614 345,605.148 345,594.245L345,436.814C345,425.878 353.878,417 364.814,417L401,417L401,365.122C401,313.175 443.175,271 495.122,271L715.058,271L715.058,197.15C696.492,189.056 683.5,170.533 683.5,149C683.5,120.024 707.024,96.5 736,96.5C764.976,96.5 788.5,120.024 788.5,149C788.5,170.533 775.508,189.056 756.942,197.15ZM559,388C520.918,388 490,418.918 490,457C490,495.082 520.918,526 559,526C597.082,526 628,495.082 628,457C628,418.918 597.082,388 559,388Z%22 fill=%22%23ad47ff%22%3E%3C/path%3E%3Cg transform=%22matrix(-1,1.22465e-16,-1.22465e-16,-1,1486.06,1043)%22%3E%3Cpath d=%22M401,417L401,348.122C401,296.175 443.175,254 495.122,254L705.058,254L705.058,357C760.249,357 805.058,401.808 805.058,457C805.058,512.192 760.249,557 705.058,557L705.058,760L495.122,760C443.175,760 401,717.825 401,665.878L401,614L364.755,614C353.852,614 345,605.148 345,594.245L345,436.814C345,425.878 353.878,417 364.814,417L401,417ZM552,643C590.082,643 621,612.082 621,574C621,535.918 590.082,505 552,505C513.918,505 483,535.918 483,574C483,612.082 513.918,643 552,643Z%22 fill=%22%2300d5bd%22%3E%3C/path%3E%3C/g%3E%3C/g%3E%3C/svg%3E" preserveAspectRatio="none" clip-path="url(#satori_cp-id-0-1-0-0-0)" mask="url(#satori_om-id-0-1-0-0-0)"/><mask id="satori_om-id-0-1-0-0-0-0"><rect x="48" y="538" width="0" height="64" fill="#fff" mask="url(#satori_om-id-0)"/></mask><mask id="satori_om-id-0-1-0-0-0-0-0"><rect x="48" y="538" width="0" height="64" fill="#fff" mask="url(#satori_om-id-0)"/></mask><mask id="satori_om-id-0-1-0-0-0-0-1"><rect x="48" y="538" width="0" height="64" fill="#fff" mask="url(#satori_om-id-0)"/></mask><mask id="satori_om-id-0-1-0-0-0-0-1-0"><rect x="48" y="538" width="0" height="64" fill="#fff" mask="url(#satori_om-id-0)"/></mask><mask id="satori_om-id-0-1-0-1"><rect x="138" y="540" width="138" height="60" fill="#fff" mask="url(#satori_om-id-0)"/></mask><mask id="satori_om-id-0-1-0-1-0"><rect x="138" y="540" width="138" height="36" fill="#fff" mask="url(#satori_om-id-0)"/></mask><path fill="#0f172a" d="M150.7 571.2L150.7 571.2Q145.9 571.2 143.0 568.6Q140.1 566.1 140.1 561.8L140.1 561.8L140.1 547.9Q140.1 546.5 140.8 545.8Q141.5 545.1 142.8 545.1Q144.0 545.1 144.7 545.8Q145.4 546.5 145.4 547.9L145.4 547.9L145.4 561.3Q145.4 563.8 146.8 565.2Q148.2 566.7 150.7 566.7L150.7 566.7Q153.3 566.7 154.7 565.2Q156.1 563.8 156.1 561.3L156.1 561.3L156.1 547.9Q156.1 546.5 156.8 545.8Q157.5 545.1 158.7 545.1Q160.0 545.1 160.7 545.8Q161.4 546.5 161.4 547.9L161.4 547.9L161.4 561.8Q161.4 566.1 158.5 568.6Q155.6 571.2 150.7 571.2ZM170.2 570.4Q169.5 571.2 168.2 571.2Q167.0 571.2 166.3 570.4Q165.6 569.7 165.6 568.4L165.6 568.4L165.6 548.2Q165.6 546.9 166.3 546.2Q167.0 545.4 168.2 545.4L168.2 545.4L176.0 545.4Q180.3 545.4 182.7 547.6Q185.1 549.7 185.1 553.5L185.1 553.5Q185.1 555.9 184.0 557.8Q182.9 559.7 180.8 560.6L180.8 560.6L184.4 566.9Q185.0 567.9 185.0 568.7L185.0 568.7Q185.0 569.8 184.2 570.5Q183.5 571.2 182.3 571.2L182.3 571.2Q181.4 571.2 180.8 570.8Q180.3 570.3 179.6 569.2L179.6 569.2L175.4 561.5L170.9 561.5L170.9 568.4Q170.9 569.7 170.2 570.4ZM170.9 549.6L170.9 557.7L175.5 557.7Q177.5 557.7 178.6 556.6Q179.7 555.5 179.7 553.6L179.7 553.6Q179.7 551.8 178.5 550.7Q177.4 549.6 175.4 549.6L175.4 549.6L170.9 549.6ZM198.1 562.7L190.8 562.7Q189.7 562.7 189.1 562.1Q188.4 561.5 188.4 560.5Q188.4 559.4 189.1 558.8Q189.7 558.2 190.8 558.2L190.8 558.2L198.1 558.2Q199.2 558.2 199.9 558.8Q200.6 559.4 200.6 560.5Q200.6 561.5 199.9 562.1Q199.2 562.7 198.1 562.7L198.1 562.7ZM209.1 570.4Q208.4 571.2 207.2 571.2Q205.9 571.2 205.2 570.4Q204.5 569.7 204.5 568.4L204.5 568.4L204.5 548.2Q204.5 546.9 205.2 546.2Q205.9 545.4 207.2 545.4L207.2 545.4L214.9 545.4Q219.3 545.4 221.7 547.6Q224.1 549.7 224.1 553.5L224.1 553.5Q224.1 555.9 223.0 557.8Q221.8 559.7 219.7 560.6L219.7 560.6L223.4 566.9Q224.0 567.9 224.0 568.7L224.0 568.7Q224.0 569.8 223.2 570.5Q222.4 571.2 221.3 571.2L221.3 571.2Q220.3 571.2 219.8 570.8Q219.2 570.3 218.6 569.2L218.6 569.2L214.4 561.5L209.8 561.5L209.8 568.4Q209.8 569.7 209.1 570.4ZM209.8 549.6L209.8 557.7L214.4 557.7Q216.4 557.7 217.5 556.6Q218.6 555.5 218.6 553.6L218.6 553.6Q218.6 551.8 217.5 550.7Q216.3 549.6 214.4 549.6L214.4 549.6L209.8 549.6ZM229.3 571.1L229.3 571.1Q228.0 571.1 227.3 570.5Q226.6 569.8 226.6 568.6L226.6 568.6Q226.6 567.9 226.9 566.9L226.9 566.9L233.9 548.1Q234.4 546.5 235.4 545.8Q236.3 545.1 237.8 545.1L237.8 545.1Q239.4 545.1 240.4 545.8Q241.3 546.5 241.9 548.1L241.9 548.1L248.9 566.9Q249.2 567.9 249.2 568.6L249.2 568.6Q249.2 569.7 248.5 570.4Q247.7 571.1 246.5 571.1L246.5 571.1Q245.4 571.1 244.8 570.6Q244.1 570.0 243.8 568.8L243.8 568.8L242.4 564.8L233.3 564.8L232.0 568.7Q231.6 570.0 231.0 570.6Q230.3 571.1 229.3 571.1ZM237.7 550.3L234.5 560.7L241.2 560.7L237.9 550.3L237.7 550.3ZM262.1 570.8L255.1 570.8Q253.8 570.8 253.1 570.1Q252.4 569.3 252.4 568.0L252.4 568.0L252.4 548.2Q252.4 546.9 253.1 546.2Q253.8 545.4 255.1 545.4L255.1 545.4L262.1 545.4Q267.8 545.4 271.0 548.7Q274.2 552.0 274.2 558.0L274.2 558.0Q274.2 564.0 271.0 567.4Q267.8 570.8 262.1 570.8L262.1 570.8ZM257.7 549.8L257.7 566.4L261.5 566.4Q265.0 566.4 266.9 564.3Q268.8 562.1 268.8 558.0L268.8 558.0Q268.8 554.1 266.9 551.9Q265.0 549.8 261.5 549.8L261.5 549.8L257.7 549.8Z " clip-path="url(#satori_cp-id-0)" mask="url(#satori_om-id-0)"/><mask id="satori_om-id-0-1-0-1-1"><rect x="138" y="576" width="138" height="24" fill="#fff" mask="url(#satori_om-id-0)"/></mask><path fill="#334155" d="M145.0 595.3L145.0 595.3Q142.4 595.3 140.8 593.8Q139.2 592.4 139.2 590.1L139.2 590.1L139.2 582.1Q139.2 581.5 139.6 581.1Q139.9 580.8 140.5 580.8L140.5 580.8Q141.1 580.8 141.4 581.1Q141.8 581.5 141.8 582.1L141.8 582.1L141.8 589.8Q141.8 591.3 142.6 592.2Q143.5 593.1 145.0 593.1Q146.6 593.1 147.4 592.2Q148.3 591.3 148.3 589.8L148.3 589.8L148.3 582.1Q148.3 581.5 148.6 581.1Q149.0 580.8 149.6 580.8L149.6 580.8Q150.2 580.8 150.5 581.1Q150.8 581.5 150.8 582.1L150.8 582.1L150.8 590.1Q150.8 592.4 149.3 593.8Q147.7 595.3 145.0 595.3ZM155.5 594.9Q155.2 595.2 154.6 595.2Q154.0 595.2 153.6 594.9Q153.3 594.5 153.3 593.9L153.3 593.9L153.3 582.3Q153.3 581.6 153.6 581.3Q154.0 581.0 154.6 581.0L154.6 581.0L158.9 581.0Q161.2 581.0 162.5 582.1Q163.8 583.3 163.8 585.3L163.8 585.3Q163.8 586.7 163.1 587.8Q162.4 588.8 161.2 589.3L161.2 589.3L163.4 593.2Q163.7 593.7 163.7 594.1L163.7 594.1Q163.7 594.6 163.4 594.9Q163.0 595.2 162.4 595.2L162.4 595.2Q162.0 595.2 161.7 595.0Q161.5 594.8 161.2 594.3L161.2 594.3L158.7 589.7L155.8 589.7L155.8 593.9Q155.8 594.5 155.5 594.9ZM155.8 583.0L155.8 587.8L158.7 587.8Q159.9 587.8 160.5 587.2Q161.2 586.5 161.2 585.4L161.2 585.4Q161.2 584.3 160.5 583.6Q159.8 583.0 158.6 583.0L158.6 583.0L155.8 583.0ZM171.1 590.4L166.7 590.4Q166.2 590.4 165.9 590.1Q165.6 589.8 165.6 589.3Q165.6 588.8 165.9 588.5Q166.2 588.2 166.7 588.2L166.7 588.2L171.1 588.2Q171.7 588.2 172.0 588.5Q172.3 588.8 172.3 589.3Q172.3 589.8 172.0 590.1Q171.7 590.4 171.1 590.4L171.1 590.4ZM176.7 594.9Q176.4 595.2 175.8 595.2Q175.2 595.2 174.9 594.9Q174.6 594.5 174.6 593.9L174.6 593.9L174.6 582.3Q174.6 581.6 174.9 581.3Q175.2 581.0 175.8 581.0L175.8 581.0L180.1 581.0Q182.4 581.0 183.7 582.1Q185.0 583.3 185.0 585.3L185.0 585.3Q185.0 586.7 184.3 587.8Q183.7 588.8 182.5 589.3L182.5 589.3L184.7 593.2Q185.0 593.7 185.0 594.1L185.0 594.1Q185.0 594.6 184.6 594.9Q184.2 595.2 183.7 595.2L183.7 595.2Q183.2 595.2 183.0 595.0Q182.7 594.8 182.4 594.3L182.4 594.3L179.9 589.7L177.1 589.7L177.1 593.9Q177.1 594.5 176.7 594.9ZM177.1 583.0L177.1 587.8L179.9 587.8Q181.1 587.8 181.8 587.2Q182.4 586.5 182.4 585.4L182.4 585.4Q182.4 584.3 181.8 583.6Q181.1 583.0 179.9 583.0L179.9 583.0L177.1 583.0ZM187.7 595.2L187.7 595.2Q187.1 595.2 186.7 594.9Q186.4 594.6 186.4 594.0L186.4 594.0Q186.4 593.7 186.6 593.3L186.6 593.3L190.7 582.2Q190.9 581.4 191.4 581.1Q191.8 580.8 192.5 580.8L192.5 580.8Q193.2 580.8 193.6 581.1Q194.1 581.4 194.3 582.1L194.3 582.1L198.4 593.3Q198.6 593.7 198.6 594.0L198.6 594.0Q198.6 594.6 198.2 594.9Q197.9 595.2 197.3 595.2L197.3 595.2Q196.8 595.2 196.5 595.0Q196.2 594.7 196.0 594.1L196.0 594.1L195.1 591.4L189.9 591.4L188.9 594.1Q188.8 594.7 188.5 595.0Q188.2 595.2 187.7 595.2ZM192.4 583.4L190.5 589.5L194.5 589.5L192.5 583.4L192.4 583.4ZM205.6 595.0L201.7 595.0Q201.1 595.0 200.8 594.7Q200.4 594.3 200.4 593.7L200.4 593.7L200.4 582.3Q200.4 581.6 200.8 581.3Q201.1 581.0 201.7 581.0L201.7 581.0L205.6 581.0Q208.7 581.0 210.5 582.8Q212.3 584.6 212.3 588.0L212.3 588.0Q212.3 591.3 210.5 593.2Q208.7 595.0 205.6 595.0L205.6 595.0ZM202.9 583.1L202.9 592.9L205.3 592.9Q207.4 592.9 208.6 591.6Q209.7 590.4 209.7 588.0L209.7 588.0Q209.7 585.6 208.6 584.3Q207.4 583.1 205.3 583.1L205.3 583.1L202.9 583.1Z M227.0 595.0L219.2 595.0Q218.7 595.0 218.3 594.8Q218.0 594.5 218.0 594.0L218.0 594.0Q218.0 593.6 218.2 593.3Q218.3 593.1 218.7 592.7L218.7 592.7L223.0 588.4Q224.4 587.1 224.8 586.4Q225.3 585.7 225.3 584.9L225.3 584.9Q225.3 583.9 224.6 583.3Q224.0 582.7 223.0 582.7L223.0 582.7Q221.1 582.7 220.3 584.6L220.3 584.6Q220.1 585.0 219.9 585.2Q219.6 585.4 219.2 585.4L219.2 585.4Q218.7 585.4 218.4 585.1Q218.1 584.8 218.1 584.3L218.1 584.3Q218.1 584.1 218.2 583.8L218.2 583.8Q218.3 583.2 218.7 582.7Q219.1 582.1 219.7 581.7Q220.3 581.2 221.1 580.9Q222.0 580.7 223.0 580.7L223.0 580.7Q225.1 580.7 226.4 581.8Q227.8 582.9 227.8 584.7L227.8 584.7Q227.8 585.9 227.1 586.9Q226.4 588.0 224.6 589.8L224.6 589.8L221.4 592.9L221.4 593.0L227.0 593.0Q227.5 593.0 227.8 593.3Q228.1 593.5 228.1 594.0Q228.1 594.5 227.8 594.8Q227.5 595.0 227.0 595.0L227.0 595.0ZM235.2 595.3L235.2 595.3Q232.6 595.3 231.1 593.4Q229.7 591.4 229.7 588.0L229.7 588.0Q229.7 584.6 231.1 582.6Q232.6 580.7 235.2 580.7L235.2 580.7Q237.8 580.7 239.3 582.6Q240.7 584.6 240.7 588.0L240.7 588.0Q240.7 591.4 239.3 593.3Q237.8 595.3 235.2 595.3ZM235.2 593.3L235.2 593.3Q236.6 593.3 237.4 591.9Q238.2 590.5 238.2 588.0L238.2 588.0Q238.2 585.5 237.4 584.1Q236.6 582.7 235.2 582.7Q233.8 582.7 233.0 584.1Q232.2 585.5 232.2 588.0L232.2 588.0Q232.2 590.5 233.0 591.9Q233.8 593.3 235.2 593.3ZM251.6 595.0L243.8 595.0Q243.2 595.0 242.9 594.8Q242.6 594.5 242.6 594.0L242.6 594.0Q242.6 593.6 242.7 593.3Q242.9 593.1 243.3 592.7L243.3 592.7L247.6 588.4Q248.9 587.1 249.4 586.4Q249.8 585.7 249.8 584.9L249.8 584.9Q249.8 583.9 249.2 583.3Q248.5 582.7 247.5 582.7L247.5 582.7Q245.6 582.7 244.9 584.6L244.9 584.6Q244.7 585.0 244.4 585.2Q244.2 585.4 243.7 585.4L243.7 585.4Q243.2 585.4 242.9 585.1Q242.6 584.8 242.6 584.3L242.6 584.3Q242.6 584.1 242.7 583.8L242.7 583.8Q242.9 583.2 243.2 582.7Q243.6 582.1 244.2 581.7Q244.8 581.2 245.7 580.9Q246.5 580.7 247.5 580.7L247.5 580.7Q249.6 580.7 251.0 581.8Q252.3 582.9 252.3 584.7L252.3 584.7Q252.3 585.9 251.6 586.9Q251.0 588.0 249.2 589.8L249.2 589.8L245.9 592.9L245.9 593.0L251.6 593.0Q252.1 593.0 252.4 593.3Q252.6 593.5 252.6 594.0Q252.6 594.5 252.4 594.8Q252.1 595.0 251.6 595.0L251.6 595.0ZM259.6 595.3L259.6 595.3Q258.0 595.3 256.7 594.6Q255.4 593.9 254.9 592.8L254.9 592.8Q254.6 592.3 254.6 591.8L254.6 591.8Q254.6 591.3 254.9 591.0Q255.2 590.7 255.7 590.7L255.7 590.7Q256.1 590.7 256.4 590.9Q256.6 591.1 256.8 591.5L256.8 591.5Q257.2 592.3 257.9 592.8Q258.6 593.3 259.6 593.3L259.6 593.3Q260.9 593.3 261.7 592.5Q262.5 591.7 262.5 590.4L262.5 590.4Q262.5 589.2 261.7 588.4Q260.9 587.7 259.6 587.7L259.6 587.7Q258.3 587.7 257.4 588.5L257.4 588.5Q257.0 589.0 256.7 589.1Q256.4 589.3 256.0 589.3L256.0 589.3Q255.4 589.3 255.1 588.9Q254.8 588.5 254.8 588.0L254.8 588.0Q254.8 587.9 254.8 587.8L254.8 587.8L255.3 582.5Q255.4 581.7 255.8 581.3Q256.2 581.0 257.0 581.0L257.0 581.0L263.1 581.0Q263.6 581.0 263.9 581.2Q264.2 581.5 264.2 582.0L264.2 582.0Q264.2 582.4 263.9 582.7Q263.6 583.0 263.1 583.0L263.1 583.0L257.4 583.0L257.1 587.2L257.1 587.2Q257.6 586.5 258.4 586.1Q259.2 585.8 260.3 585.8L260.3 585.8Q262.3 585.8 263.6 587.0Q264.9 588.3 264.9 590.4L264.9 590.4Q264.9 592.6 263.4 593.9Q261.9 595.3 259.6 595.3Z " clip-path="url(#satori_cp-id-0)" mask="url(#satori_om-id-0)"/><mask id="satori_om-id-0-1-1"><rect x="1030" y="557" width="122" height="26" fill="#fff" mask="url(#satori_om-id-0)"/></mask><path fill="#334155" d="M1033.4 577.8Q1033.1 578.2 1032.5 578.2Q1031.9 578.2 1031.5 577.8Q1031.2 577.5 1031.2 576.8L1031.2 576.8L1031.2 563.6Q1031.2 563.0 1031.5 562.6Q1031.9 562.2 1032.5 562.2Q1033.1 562.2 1033.5 562.6Q1033.8 563.0 1033.8 563.6L1033.8 563.6L1033.8 568.5L1033.9 568.5Q1034.4 567.5 1035.3 566.9Q1036.3 566.4 1037.5 566.4L1037.5 566.4Q1039.6 566.4 1040.9 568.0Q1042.2 569.5 1042.2 572.3L1042.2 572.3Q1042.2 575.0 1040.9 576.6Q1039.6 578.1 1037.5 578.1L1037.5 578.1Q1036.2 578.1 1035.3 577.6Q1034.4 577.0 1033.8 576.0L1033.8 576.0L1033.8 576.0L1033.8 576.8Q1033.8 577.5 1033.4 577.8ZM1036.6 575.9L1036.6 575.9Q1037.9 575.9 1038.7 574.9Q1039.4 574.0 1039.4 572.3Q1039.4 570.6 1038.7 569.6Q1037.9 568.6 1036.6 568.6L1036.6 568.6Q1035.4 568.6 1034.6 569.6Q1033.8 570.6 1033.8 572.3L1033.8 572.3Q1033.8 573.9 1034.6 574.9Q1035.4 575.9 1036.6 575.9ZM1045.5 582.2L1045.5 582.2Q1044.6 582.2 1044.1 581.9Q1043.7 581.5 1043.7 580.9L1043.7 580.9Q1043.7 580.5 1043.9 580.3Q1044.2 580.0 1044.7 580.0L1044.7 580.0Q1044.8 580.0 1045.0 580.0Q1045.1 580.0 1045.3 580.0L1045.3 580.0Q1046.3 580.0 1046.9 578.7L1046.9 578.7L1047.1 578.2L1043.3 568.3Q1043.2 567.9 1043.2 567.6L1043.2 567.6Q1043.2 567.0 1043.6 566.7Q1044.0 566.3 1044.6 566.3L1044.6 566.3Q1045.1 566.3 1045.4 566.6Q1045.7 566.8 1045.8 567.4L1045.8 567.4L1048.6 575.7L1048.6 575.7L1051.3 567.4Q1051.5 566.8 1051.8 566.6Q1052.1 566.3 1052.6 566.3L1052.6 566.3Q1053.2 566.3 1053.5 566.7Q1053.9 567.0 1053.9 567.5L1053.9 567.5Q1053.9 567.9 1053.8 568.3L1053.8 568.3L1050.0 578.4Q1049.2 580.5 1048.2 581.3Q1047.2 582.2 1045.5 582.2Z M1070.4 577.9L1061.1 577.9Q1060.5 577.9 1060.1 577.6Q1059.7 577.2 1059.7 576.6L1059.7 576.6Q1059.7 576.1 1060.1 575.5L1060.1 575.5L1067.9 564.9L1067.9 564.8L1061.0 564.8Q1060.4 564.8 1060.1 564.5Q1059.7 564.2 1059.7 563.6Q1059.7 563.1 1060.1 562.8Q1060.4 562.4 1061.0 562.4L1061.0 562.4L1069.8 562.4Q1070.5 562.4 1070.9 562.8Q1071.3 563.2 1071.3 563.8L1071.3 563.8Q1071.3 564.3 1070.8 564.9L1070.8 564.9L1063.1 575.5L1063.1 575.6L1070.4 575.6Q1070.9 575.6 1071.3 575.9Q1071.6 576.2 1071.6 576.8Q1071.6 577.3 1071.3 577.6Q1070.9 577.9 1070.4 577.9L1070.4 577.9ZM1075.9 577.8Q1075.6 578.2 1075.0 578.2Q1074.4 578.2 1074.0 577.8Q1073.6 577.4 1073.6 576.8L1073.6 576.8L1073.6 563.6Q1073.6 563.0 1074.0 562.6Q1074.3 562.2 1074.9 562.2L1074.9 562.2Q1075.6 562.2 1075.9 562.6Q1076.3 563.0 1076.3 563.6L1076.3 563.6L1076.3 568.5L1076.3 568.5Q1076.8 567.5 1077.7 566.9Q1078.6 566.3 1079.9 566.3L1079.9 566.3Q1081.8 566.3 1082.8 567.5Q1083.9 568.6 1083.9 570.6L1083.9 570.6L1083.9 576.8Q1083.9 577.4 1083.5 577.8Q1083.2 578.2 1082.6 578.2Q1081.9 578.2 1081.6 577.8Q1081.2 577.4 1081.2 576.8L1081.2 576.8L1081.2 571.2Q1081.2 569.9 1080.6 569.3Q1080.0 568.6 1078.9 568.6L1078.9 568.6Q1077.7 568.6 1077.0 569.4Q1076.3 570.1 1076.3 571.4L1076.3 571.4L1076.3 576.8Q1076.3 577.4 1075.9 577.8ZM1089.4 578.1L1089.4 578.1Q1087.7 578.1 1086.6 577.2Q1085.6 576.2 1085.6 574.7L1085.6 574.7Q1085.6 573.2 1086.7 572.3Q1087.8 571.4 1089.9 571.3L1089.9 571.3L1092.9 571.1L1092.9 570.3Q1092.9 569.4 1092.4 568.9Q1091.8 568.4 1090.8 568.4L1090.8 568.4Q1090.0 568.4 1089.4 568.7Q1088.9 569.0 1088.4 569.8L1088.4 569.8Q1088.0 570.3 1087.3 570.3L1087.3 570.3Q1086.8 570.3 1086.5 570.0Q1086.2 569.7 1086.2 569.2L1086.2 569.2Q1086.2 568.9 1086.4 568.5L1086.4 568.5Q1086.8 567.5 1088.0 566.9Q1089.3 566.3 1090.9 566.3L1090.9 566.3Q1093.0 566.3 1094.3 567.4Q1095.6 568.4 1095.6 570.1L1095.6 570.1L1095.6 576.8Q1095.6 577.5 1095.2 577.8Q1094.8 578.2 1094.3 578.2L1094.3 578.2Q1093.7 578.2 1093.4 577.8Q1093.0 577.5 1093.0 576.9L1093.0 576.9L1093.0 576.1L1092.9 576.1Q1092.4 577.0 1091.5 577.6Q1090.5 578.1 1089.4 578.1ZM1090.2 576.1L1090.2 576.1Q1091.3 576.1 1092.1 575.4Q1092.9 574.7 1092.9 573.7L1092.9 573.7L1092.9 572.9L1090.3 573.0Q1089.3 573.1 1088.8 573.5Q1088.2 573.9 1088.2 574.6L1088.2 574.6Q1088.2 575.3 1088.8 575.7Q1089.3 576.1 1090.2 576.1ZM1100.0 577.8Q1099.6 578.2 1099.0 578.2Q1098.4 578.2 1098.1 577.8Q1097.7 577.4 1097.7 576.8L1097.7 576.8L1097.7 567.7Q1097.7 567.1 1098.1 566.7Q1098.4 566.3 1099.0 566.3Q1099.6 566.3 1099.9 566.7Q1100.3 567.1 1100.3 567.7L1100.3 567.7L1100.3 568.5L1100.4 568.5Q1101.3 566.3 1103.9 566.3L1103.9 566.3Q1105.8 566.3 1106.8 567.5Q1107.8 568.6 1107.8 570.6L1107.8 570.6L1107.8 576.8Q1107.8 577.4 1107.5 577.8Q1107.1 578.2 1106.5 578.2Q1105.9 578.2 1105.5 577.8Q1105.2 577.4 1105.2 576.8L1105.2 576.8L1105.2 571.1Q1105.2 569.9 1104.6 569.3Q1104.0 568.6 1102.9 568.6L1102.9 568.6Q1101.7 568.6 1101.1 569.4Q1100.4 570.1 1100.4 571.4L1100.4 571.4L1100.4 576.8Q1100.4 577.4 1100.0 577.8ZM1114.9 582.2L1114.9 582.2Q1113.3 582.2 1112.1 581.7Q1110.9 581.1 1110.3 580.2L1110.3 580.2Q1110.1 579.8 1110.1 579.4L1110.1 579.4Q1110.1 578.9 1110.4 578.6Q1110.7 578.3 1111.2 578.3L1111.2 578.3Q1111.7 578.3 1112.1 578.8L1112.1 578.8Q1112.8 579.5 1113.5 579.8Q1114.1 580.1 1114.9 580.1L1114.9 580.1Q1116.3 580.1 1117.0 579.4Q1117.8 578.7 1117.8 577.6L1117.8 577.6L1117.8 575.8L1117.8 575.8Q1117.3 576.7 1116.4 577.3Q1115.4 577.8 1114.2 577.8L1114.2 577.8Q1112.0 577.8 1110.8 576.3Q1109.5 574.7 1109.5 572.1L1109.5 572.1Q1109.5 569.4 1110.8 567.9Q1112.0 566.4 1114.3 566.4L1114.3 566.4Q1115.4 566.4 1116.4 566.9Q1117.3 567.5 1117.8 568.5L1117.8 568.5L1117.8 568.5L1117.8 567.7Q1117.8 567.1 1118.2 566.7Q1118.6 566.3 1119.2 566.3Q1119.8 566.3 1120.1 566.7Q1120.5 567.1 1120.5 567.7L1120.5 567.7L1120.5 577.6Q1120.5 579.7 1119.0 581.0Q1117.5 582.2 1114.9 582.2ZM1115.0 575.7L1115.0 575.7Q1116.3 575.7 1117.1 574.8Q1117.8 573.8 1117.8 572.1L1117.8 572.1Q1117.8 570.5 1117.1 569.5Q1116.3 568.5 1115.0 568.5L1115.0 568.5Q1113.7 568.5 1113.0 569.5Q1112.3 570.5 1112.3 572.1L1112.3 572.1Q1112.3 573.8 1113.0 574.8Q1113.7 575.7 1115.0 575.7ZM1124.6 575.2L1124.6 575.2Q1125.1 575.2 1125.4 575.5Q1125.8 575.8 1125.8 576.3L1125.8 576.3Q1125.8 576.6 1125.7 576.9L1125.7 576.9L1124.8 580.6Q1124.6 581.1 1124.4 581.3Q1124.1 581.5 1123.7 581.5Q1123.2 581.5 1122.9 581.2Q1122.6 581.0 1122.7 580.5L1122.7 580.5Q1122.7 580.4 1122.7 580.3L1122.7 580.3L1123.3 576.3Q1123.5 575.2 1124.6 575.2Z M1139.8 577.9L1134.7 577.9Q1134.0 577.9 1133.6 577.6Q1133.3 577.2 1133.3 576.5L1133.3 576.5L1133.3 563.9Q1133.3 563.2 1133.6 562.8Q1134.0 562.4 1134.7 562.4L1134.7 562.4L1139.7 562.4Q1141.8 562.4 1143.1 563.5Q1144.3 564.6 1144.3 566.3L1144.3 566.3Q1144.3 567.6 1143.5 568.5Q1142.7 569.5 1141.5 569.7L1141.5 569.7L1141.5 569.8Q1143.1 569.9 1144.1 571.0Q1145.1 572.0 1145.1 573.5L1145.1 573.5Q1145.1 575.6 1143.7 576.8Q1142.3 577.9 1139.8 577.9L1139.8 577.9ZM1136.0 564.6L1136.0 569.0L1138.6 569.0Q1140.0 569.0 1140.8 568.4Q1141.6 567.8 1141.6 566.7L1141.6 566.7Q1141.6 565.7 1140.9 565.2Q1140.3 564.6 1139.0 564.6L1139.0 564.6L1136.0 564.6ZM1136.0 570.9L1136.0 575.8L1139.1 575.8Q1140.7 575.8 1141.5 575.2Q1142.3 574.5 1142.3 573.3L1142.3 573.3Q1142.3 572.2 1141.4 571.6Q1140.6 570.9 1139.0 570.9L1139.0 570.9L1136.0 570.9ZM1148.7 578.1L1148.7 578.1Q1148.0 578.1 1147.6 577.6Q1147.1 577.2 1147.1 576.5L1147.1 576.5Q1147.1 575.9 1147.6 575.4Q1148.0 575.0 1148.7 575.0L1148.7 575.0Q1149.3 575.0 1149.8 575.4Q1150.2 575.9 1150.2 576.5L1150.2 576.5Q1150.2 577.2 1149.8 577.6Q1149.3 578.1 1148.7 578.1Z " clip-path="url(#satori_cp-id-0)" mask="url(#satori_om-id-0)"/></svg>