<svg width="1200" height="630" viewBox="0 0 1200 630" xmlns="http://www.w3.org/2000/svg"><mask id="satori_om-id"><rect x="0" y="0" width="1200" height="630" fill="#fff"/></mask><defs><pattern id="satori_pattern_id-0_0" x="0" y="0" width="1" height="1" patternUnits="objectBoundingBox"><linearGradient id="satori_biid-0_0" x1="-0.09774620284174435" y1="0.18618324350808482" x2="1.0977462028417444" y2="0.8138167564919152" spreadMethod="pad"><stop offset="0%" stop-color="#f8fafc"/><stop offset="50%" stop-color="#eef2ff"/><stop offset="100%" stop-color="#ffffff"/></linearGradient><rect x="0" y="0" width="1200" height="630" fill="url(#satori_biid-0_0)"/></pattern></defs><clipPath id="satori_cp-id-0"><rect x="0" y="0" width="1200" height="630"/></clipPath><mask id="satori_om-id-0"><rect x="0" y="0" width="1200" height="630" fill="#fff"/></mask><rect x="0" y="0" width="1200" height="630" fill="url(#satori_pattern_id-0_0)"/><mask id="satori_om-id-0-0"><rect x="0" y="0" width="1200" height="509" fill="#fff" mask="url(#satori_om-id-0)"/></mask><mask id="satori_om-id-0-0-0"><rect x="72" y="72" width="1056" height="365" fill="#fff" mask="url(#satori_om-id-0)"/></mask><mask id="satori_om-id-0-0-0-0"><rect x="72" y="113" width="1056" height="38" fill="#fff" mask="url(#satori_om-id-0)"/></mask><path fill="#64748b" d="M81.7 143.3Q81.2 143.7 80.4 143.7Q79.6 143.7 79.1 143.3Q78.7 142.9 78.4 142.0L78.4 142.0L73.2 123.3Q73.0 122.7 73.0 122.3L73.0 122.3Q73.0 121.5 73.5 121.1Q74.0 120.7 74.7 120.7L74.7 120.7Q76.1 120.7 76.4 122.1L76.4 122.1L80.5 138.6L80.6 138.6L85.0 122.4Q85.3 121.5 85.8 121.1Q86.2 120.7 87.0 120.7L87.0 120.7Q87.8 120.7 88.3 121.1Q88.8 121.5 89 122.4L89 122.4L93.4 138.6L93.5 138.6L97.6 122.1Q97.9 120.7 99.3 120.7L99.3 120.7Q100.1 120.7 100.6 121.1Q101.0 121.5 101.0 122.3L101.0 122.3Q101.0 122.7 100.9 123.3L100.9 123.3L95.6 142Q95.4 142.9 94.9 143.3Q94.4 143.7 93.6 143.7L93.6 143.7Q92.8 143.7 92.3 143.3Q91.9 142.9 91.6 142L91.6 142L87.1 126.5L86.9 126.5L82.5 142Q82.2 142.9 81.7 143.3ZM110.8 143.8L110.8 143.8Q107.1 143.8 105.1 141.5Q103.0 139.3 103.0 135.3L103.0 135.3Q103.0 131.4 105.1 129.1Q107.1 126.7 110.6 126.7L110.6 126.7Q113.9 126.7 115.9 128.9Q118 131 118 134.4L118 134.4Q118 135.2 117.6 135.6Q117.1 136.1 116.3 136.1L116.3 136.1L106.4 136.1L106.4 136.2Q106.4 138.4 107.6 139.7Q108.8 141.0 110.8 141.0L110.8 141.0Q112.1 141.0 113.1 140.5Q114.1 140.0 115.0 138.7L115.0 138.7Q115.5 138.1 116.2 138.1L116.2 138.1Q116.8 138.1 117.2 138.5Q117.6 138.9 117.6 139.5L117.6 139.5Q117.6 139.8 117.4 140.4L117.4 140.4Q116.6 142 114.9 142.9Q113.1 143.8 110.8 143.8ZM106.4 133.7L106.4 133.7L114.6 133.7Q114.6 131.8 113.5 130.6Q112.4 129.5 110.6 129.5L110.6 129.5Q108.8 129.5 107.7 130.6Q106.5 131.8 106.4 133.7ZM126.8 143.8L126.8 143.8Q123.7 143.8 121.8 141.4Q119.9 139.1 119.9 135.3Q119.9 131.4 121.8 129.1Q123.6 126.8 126.8 126.8L126.8 126.8Q128.5 126.8 129.8 127.6Q131.2 128.4 131.9 129.8L131.9 129.8L132.0 129.8L132.0 122.4Q132.0 121.6 132.4 121.1Q132.9 120.6 133.7 120.6L133.7 120.6Q134.4 120.6 134.9 121.1Q135.4 121.6 135.4 122.4L135.4 122.4L135.4 142.1Q135.4 142.9 134.9 143.3Q134.4 143.8 133.7 143.8L133.7 143.8Q133.0 143.8 132.5 143.3Q132.0 142.9 132.0 142.1L132.0 142.1L132.0 140.5L131.9 140.5Q131.3 142.0 130.0 142.9Q128.6 143.8 126.8 143.8ZM127.7 140.9L127.7 140.9Q129.6 140.9 130.8 139.4Q132 137.8 132 135.3L132 135.3Q132 132.7 130.8 131.2Q129.6 129.6 127.7 129.6L127.7 129.6Q125.7 129.6 124.5 131.1Q123.3 132.7 123.3 135.3L123.3 135.3Q123.3 137.9 124.5 139.4Q125.7 140.9 127.7 140.9ZM140.5 143.8L140.5 143.8Q139.7 143.8 139.3 143.3Q138.8 142.8 138.8 142.0L138.8 142.0L138.8 128.4Q138.8 127.7 139.3 127.2Q139.7 126.7 140.4 126.7Q141.2 126.7 141.6 127.2Q142.1 127.7 142.1 128.5L142.1 128.5L142.1 129.8L142.1 129.8Q143.6 126.8 147.3 126.8L147.3 126.8Q150.0 126.8 151.5 128.4Q153.0 130.0 153.0 132.8L153.0 132.8L153.0 142.0Q153.0 142.8 152.5 143.3Q152.0 143.8 151.3 143.8L151.3 143.8Q150.5 143.8 150.1 143.3Q149.6 142.8 149.6 142.0L149.6 142.0L149.6 133.5Q149.6 131.6 148.7 130.6Q147.8 129.7 146.1 129.7L146.1 129.7Q144.3 129.7 143.3 130.8Q142.2 132.0 142.2 133.9L142.2 133.9L142.2 142.0Q142.2 142.8 141.7 143.3Q141.3 143.8 140.5 143.8ZM163.4 143.8L163.4 143.8Q159.6 143.8 157.6 141.5Q155.5 139.3 155.5 135.3L155.5 135.3Q155.5 131.4 157.6 129.1Q159.6 126.7 163.1 126.7L163.1 126.7Q166.4 126.7 168.5 128.9Q170.5 131 170.5 134.4L170.5 134.4Q170.5 135.2 170.1 135.6Q169.6 136.1 168.8 136.1L168.8 136.1L158.9 136.1L158.9 136.2Q158.9 138.4 160.1 139.7Q161.3 141.0 163.3 141.0L163.3 141.0Q164.7 141.0 165.6 140.5Q166.6 140.0 167.5 138.7L167.5 138.7Q168.0 138.1 168.7 138.1L168.7 138.1Q169.3 138.1 169.7 138.5Q170.1 138.9 170.1 139.5L170.1 139.5Q170.1 139.8 169.9 140.4L169.9 140.4Q169.1 142 167.4 142.9Q165.7 143.8 163.4 143.8ZM158.9 133.7L158.9 133.7L167.1 133.7Q167.1 131.8 166.0 130.6Q164.9 129.5 163.1 129.5L163.1 129.5Q161.4 129.5 160.2 130.6Q159.0 131.8 158.9 133.7ZM179.2 143.8L179.2 143.8Q176.8 143.8 175.1 142.9Q173.4 142.0 172.8 140.4L172.8 140.4Q172.7 140.1 172.7 139.7L172.7 139.7Q172.7 139.1 173.1 138.8Q173.5 138.4 174.1 138.4L174.1 138.4Q175.0 138.4 175.6 139.3L175.6 139.3Q176.2 140.3 177.1 140.8Q177.9 141.2 179.4 141.2L179.4 141.2Q180.8 141.2 181.7 140.6Q182.6 140.0 182.6 139.0L182.6 139.0Q182.6 138.2 182.0 137.7Q181.5 137.3 180.2 136.9L180.2 136.9L177.6 136.3Q172.8 135.2 172.8 131.7L172.8 131.7Q172.8 129.4 174.6 128.1Q176.4 126.7 179.3 126.7L179.3 126.7Q181.5 126.7 183.2 127.7Q184.8 128.7 185.2 130.2L185.2 130.2Q185.3 130.6 185.3 130.7L185.3 130.7Q185.3 131.3 184.9 131.6Q184.6 131.9 183.9 131.9L183.9 131.9Q183.0 131.9 182.6 131.2L182.6 131.2Q182.0 130.3 181.2 129.8Q180.4 129.3 179.2 129.3L179.2 129.3Q177.8 129.3 177.0 129.9Q176.1 130.5 176.1 131.5L176.1 131.5Q176.1 133.0 178.7 133.6L178.7 133.6L181.2 134.2Q183.8 134.8 184.9 135.9Q186.0 136.9 186.0 138.7L186.0 138.7Q186.0 141.0 184.1 142.4Q182.2 143.8 179.2 143.8ZM194.8 143.8L194.8 143.8Q191.6 143.8 189.8 141.4Q187.9 139.1 187.9 135.3Q187.9 131.4 189.7 129.1Q191.6 126.8 194.7 126.8L194.7 126.8Q196.5 126.8 197.8 127.6Q199.2 128.4 199.9 129.8L199.9 129.8L200.0 129.8L200.0 122.4Q200.0 121.6 200.4 121.1Q200.9 120.6 201.7 120.6L201.7 120.6Q202.4 120.6 202.9 121.1Q203.3 121.6 203.3 122.4L203.3 122.4L203.3 142.1Q203.3 142.9 202.9 143.3Q202.4 143.8 201.7 143.8L201.7 143.8Q200.9 143.8 200.4 143.3Q200.0 142.9 200.0 142.1L200.0 142.1L200.0 140.5L199.9 140.5Q199.3 142.0 197.9 142.9Q196.6 143.8 194.8 143.8ZM195.7 140.9L195.7 140.9Q197.6 140.9 198.8 139.4Q200.0 137.8 200.0 135.3L200.0 135.3Q200.0 132.7 198.8 131.2Q197.6 129.6 195.7 129.6L195.7 129.6Q193.7 129.6 192.5 131.1Q191.3 132.7 191.3 135.3L191.3 135.3Q191.3 137.9 192.5 139.4Q193.7 140.9 195.7 140.9ZM211.6 143.8L211.6 143.8Q209.2 143.8 207.7 142.4Q206.1 141 206.1 138.8L206.1 138.8Q206.1 136.6 207.7 135.4Q209.3 134.1 212.2 133.9L212.2 133.9L216.8 133.7L216.8 132.4Q216.8 131.0 215.9 130.3Q215 129.5 213.5 129.5L213.5 129.5Q212.2 129.5 211.4 130.0Q210.5 130.5 209.8 131.6L209.8 131.6Q209.3 132.3 208.4 132.3L208.4 132.3Q207.8 132.3 207.4 131.9Q207.0 131.5 207.0 130.9L207.0 130.9Q207.0 130.3 207.3 129.8L207.3 129.8Q207.9 128.4 209.6 127.6Q211.4 126.7 213.6 126.7L213.6 126.7Q216.6 126.7 218.3 128.2Q220.1 129.7 220.1 132.1L220.1 132.1L220.1 142.1Q220.1 142.8 219.7 143.3Q219.2 143.8 218.5 143.8L218.5 143.8Q217.8 143.8 217.3 143.3Q216.9 142.9 216.9 142.2L216.9 142.2L216.9 140.8L216.8 140.8Q216.1 142.1 214.7 142.9Q213.2 143.8 211.6 143.8ZM212.5 141.1L212.5 141.1Q214.3 141.1 215.5 140.0Q216.8 138.9 216.8 137.3L216.8 137.3L216.8 136.0L212.7 136.3Q211.2 136.4 210.4 137.0Q209.5 137.6 209.5 138.7L209.5 138.7Q209.5 139.8 210.4 140.4Q211.2 141.1 212.5 141.1ZM225.4 149.6L225.4 149.6Q224.2 149.6 223.6 149.2Q223.0 148.8 223.0 148.0L223.0 148.0Q223.0 147.4 223.3 147.1Q223.7 146.8 224.3 146.8L224.3 146.8Q224.5 146.8 224.7 146.8Q225.0 146.8 225.2 146.8L225.2 146.8Q226.9 146.8 227.7 144.6L227.7 144.6L228.0 143.6L222.5 129.3Q222.3 128.7 222.3 128.3L222.3 128.3Q222.3 127.6 222.8 127.2Q223.3 126.7 224.0 126.7L224.0 126.7Q224.7 126.7 225.0 127.0Q225.4 127.3 225.6 128.0L225.6 128.0L229.8 140.4L229.9 140.4L234.1 128.0Q234.3 127.3 234.7 127.0Q235.0 126.7 235.7 126.7L235.7 126.7Q236.4 126.7 236.9 127.2Q237.3 127.6 237.3 128.3L237.3 128.3Q237.3 128.7 237.2 129.2L237.2 129.2L231.5 144.3Q230.4 147.3 229.0 148.4Q227.7 149.6 225.4 149.6ZM242.1 139.7L242.1 139.7Q242.8 139.7 243.2 140.0Q243.7 140.4 243.7 141.1L243.7 141.1Q243.7 141.5 243.6 142.0L243.6 142.0L242.2 147.3Q241.9 148.5 240.8 148.5L240.8 148.5Q240.2 148.5 239.8 148.1Q239.4 147.8 239.4 147.3L239.4 147.3Q239.4 147.1 239.5 146.9L239.5 146.9L240.5 141.1Q240.7 139.7 242.1 139.7Z M268.6 143.5L256.1 143.5Q255.4 143.5 254.9 143.1Q254.5 142.7 254.5 142L254.5 142Q254.5 141.5 254.7 141.1Q254.9 140.8 255.5 140.2L255.5 140.2L262.5 133.0Q264.7 130.8 265.4 129.6Q266.2 128.4 266.2 127.1L266.2 127.1Q266.2 125.5 265.0 124.4Q263.9 123.4 262.2 123.4L262.2 123.4Q258.9 123.4 257.7 126.7L257.7 126.7Q257.5 127.3 257.1 127.6Q256.7 127.9 256.1 127.9L256.1 127.9Q255.4 127.9 255.0 127.5Q254.6 127.0 254.6 126.4L254.6 126.4Q254.6 126 254.7 125.6L254.7 125.6Q254.9 124.7 255.4 123.8Q256.0 122.9 257.0 122.2Q257.9 121.4 259.3 121.0Q260.6 120.5 262.3 120.5L262.3 120.5Q265.5 120.5 267.5 122.3Q269.6 124.1 269.6 126.9L269.6 126.9Q269.6 128.8 268.6 130.5Q267.5 132.1 264.6 135.0L264.6 135.0L259.2 140.4L259.2 140.5L268.6 140.5Q269.3 140.5 269.7 140.9Q270.1 141.3 270.1 142L270.1 142Q270.1 142.7 269.7 143.1Q269.3 143.5 268.6 143.5L268.6 143.5ZM281.1 143.9L281.1 143.9Q278.6 143.9 276.6 142.8Q274.6 141.6 273.8 139.8L273.8 139.8Q273.4 139.0 273.4 138.2L273.4 138.2Q273.4 137.5 273.8 137.1Q274.3 136.7 275.0 136.7L275.0 136.7Q275.5 136.7 275.9 137.0Q276.3 137.2 276.5 137.8L276.5 137.8Q277.1 139.3 278.3 140.1Q279.5 141.0 281.2 141.0L281.2 141.0Q283.3 141.0 284.7 139.6Q286 138.3 286 136.1L286 136.1Q286 134.0 284.6 132.7Q283.3 131.4 281.2 131.4L281.2 131.4Q278.9 131.4 277.5 132.9L277.5 132.9Q276.8 133.6 276.4 133.9Q276 134.1 275.4 134.1L275.4 134.1Q274.6 134.1 274.1 133.6Q273.7 133.0 273.7 132.3L273.7 132.3L273.7 132.0L274.5 123.3Q274.6 122.0 275.2 121.5Q275.9 120.9 277.2 120.9L277.2 120.9L286.8 120.9Q287.5 120.9 287.9 121.3Q288.3 121.7 288.3 122.4Q288.3 123.1 287.9 123.5Q287.5 123.9 286.8 123.9L286.8 123.9L277.5 123.9L276.9 130.9L276.9 130.9Q277.7 129.8 279.0 129.2Q280.3 128.6 282 128.6L282 128.6Q285.3 128.6 287.3 130.7Q289.4 132.8 289.4 136.0L289.4 136.0Q289.4 139.5 287.1 141.7Q284.8 143.9 281.1 143.9Z M316.5 140.7Q313.7 143.8 308.8 143.8Q304.0 143.8 301.1 140.7Q298.3 137.6 298.3 132.2Q298.3 126.8 301.1 123.7Q304.0 120.5 308.8 120.5L308.8 120.5Q313.7 120.5 316.5 123.7Q319.4 126.8 319.4 132.2Q319.4 137.6 316.5 140.7ZM308.8 140.8L308.8 140.8Q312.0 140.8 313.9 138.5Q315.8 136.1 315.8 132.2L315.8 132.2Q315.8 128.3 313.9 125.9Q312.0 123.6 308.8 123.6L308.8 123.6Q305.6 123.6 303.7 125.9Q301.8 128.3 301.8 132.2L301.8 132.2Q301.8 136.1 303.7 138.5Q305.6 140.8 308.8 140.8ZM329.3 143.8L329.3 143.8Q325.8 143.8 323.7 141.5Q321.6 139.2 321.6 135.3L321.6 135.3Q321.6 131.4 323.7 129.1Q325.8 126.7 329.3 126.7L329.3 126.7Q331.7 126.7 333.5 127.9Q335.4 129.0 335.9 130.7L335.9 130.7Q336.1 131.2 336.1 131.5L336.1 131.5Q336.1 132.1 335.7 132.5Q335.3 132.9 334.6 132.9L334.6 132.9Q334.1 132.9 333.8 132.7Q333.4 132.4 333.1 131.9L333.1 131.9Q332.5 130.7 331.6 130.1Q330.7 129.5 329.4 129.5L329.4 129.5Q327.4 129.5 326.2 131.1Q325.0 132.6 325.0 135.3L325.0 135.3Q325.0 137.9 326.2 139.4Q327.4 141.0 329.4 141.0L329.4 141.0Q331.9 141.0 333.1 138.7L333.1 138.7Q333.5 138.1 333.8 137.9Q334.1 137.6 334.7 137.6L334.7 137.6Q335.3 137.6 335.7 138.0Q336.1 138.4 336.1 139.0L336.1 139.0Q336.1 139.4 335.9 139.9L335.9 139.9Q335.3 141.6 333.5 142.7Q331.6 143.8 329.3 143.8ZM339.8 139.5L339.8 139.5L339.8 129.7L338.6 129.7Q338.0 129.7 337.6 129.4Q337.2 129 337.2 128.4Q337.2 127.8 337.6 127.4Q338.0 127.0 338.6 127.0L338.6 127.0L339.8 127.0L339.8 124.6Q339.8 123.8 340.3 123.3Q340.8 122.8 341.5 122.8Q342.3 122.8 342.8 123.3Q343.2 123.8 343.2 124.6L343.2 124.6L343.2 127.0L345.1 127.0Q345.8 127.0 346.2 127.4Q346.5 127.8 346.5 128.4Q346.5 129 346.2 129.4Q345.8 129.7 345.1 129.7L345.1 129.7L343.2 129.7L343.2 138.8Q343.2 139.8 343.6 140.3Q344.0 140.7 344.9 140.8L344.9 140.8L345.2 140.8Q346.6 140.9 346.6 142.1L346.6 142.1Q346.6 143.6 344.2 143.6L344.2 143.6L344 143.6Q339.8 143.6 339.8 139.5ZM361.8 141.5Q359.7 143.8 356.2 143.8Q352.6 143.8 350.5 141.5Q348.4 139.2 348.4 135.3L348.4 135.3Q348.4 131.3 350.5 129.0Q352.6 126.7 356.2 126.7Q359.7 126.7 361.8 129.0Q364.0 131.3 364.0 135.3L364.0 135.3Q364.0 139.2 361.8 141.5ZM356.2 141L356.2 141Q358.2 141 359.4 139.5Q360.5 138.0 360.5 135.3L360.5 135.3Q360.5 132.5 359.4 131.0Q358.2 129.5 356.2 129.5Q354.2 129.5 353.0 131.0Q351.8 132.5 351.8 135.3L351.8 135.3Q351.8 138.0 353.0 139.5Q354.2 141 356.2 141ZM368.3 143.8L368.3 143.8Q367.6 143.8 367.1 143.3Q366.7 142.9 366.7 142.1L366.7 142.1L366.7 122.4Q366.7 121.6 367.2 121.1Q367.6 120.6 368.4 120.6Q369.1 120.6 369.6 121.1Q370.1 121.6 370.1 122.4L370.1 122.4L370.1 129.8L370.2 129.8Q370.9 128.4 372.3 127.6Q373.6 126.8 375.4 126.8L375.4 126.8Q378.5 126.8 380.3 129.1Q382.2 131.4 382.2 135.3L382.2 135.3Q382.2 139.2 380.3 141.5Q378.5 143.8 375.3 143.8L375.3 143.8Q373.6 143.8 372.2 142.9Q370.8 142.1 370.0 140.7L370.0 140.7L370.0 140.7L370.0 142.1Q370.0 142.9 369.5 143.3Q369.1 143.8 368.3 143.8ZM374.4 140.9L374.4 140.9Q376.4 140.9 377.6 139.4Q378.7 137.9 378.7 135.3L378.7 135.3Q378.7 132.7 377.6 131.1Q376.4 129.6 374.4 129.6L374.4 129.6Q372.5 129.6 371.3 131.2Q370.1 132.7 370.1 135.3L370.1 135.3Q370.1 137.8 371.3 139.3Q372.5 140.9 374.4 140.9ZM391.9 143.8L391.9 143.8Q388.2 143.8 386.1 141.5Q384.1 139.3 384.1 135.3L384.1 135.3Q384.1 131.4 386.1 129.1Q388.2 126.7 391.7 126.7L391.7 126.7Q395.0 126.7 397.0 128.9Q399.1 131 399.1 134.4L399.1 134.4Q399.1 135.2 398.6 135.6Q398.2 136.1 397.4 136.1L397.4 136.1L387.5 136.1L387.5 136.2Q387.5 138.4 388.7 139.7Q389.8 141.0 391.9 141.0L391.9 141.0Q393.2 141.0 394.2 140.5Q395.2 140.0 396.1 138.7L396.1 138.7Q396.6 138.1 397.3 138.1L397.3 138.1Q397.9 138.1 398.3 138.5Q398.7 138.9 398.7 139.5L398.7 139.5Q398.7 139.8 398.5 140.4L398.5 140.4Q397.7 142 395.9 142.9Q394.2 143.8 391.9 143.8ZM387.5 133.7L387.5 133.7L395.7 133.7Q395.7 131.8 394.6 130.6Q393.5 129.5 391.7 129.5L391.7 129.5Q389.9 129.5 388.8 130.6Q387.6 131.8 387.5 133.7ZM403.4 143.8L403.4 143.8Q402.6 143.8 402.2 143.3Q401.7 142.8 401.7 142.0L401.7 142.0L401.7 128.4Q401.7 127.7 402.1 127.2Q402.6 126.7 403.3 126.7L403.3 126.7Q404.0 126.7 404.5 127.2Q404.9 127.7 404.9 128.4L404.9 128.4L404.9 129.8L405.0 129.8Q405.3 128.5 406.3 127.6Q407.3 126.8 408.6 126.8L408.6 126.8Q409.5 126.8 409.9 127.2L409.9 127.2Q410.4 127.5 410.4 128.4L410.4 128.4Q410.4 129.1 409.9 129.5L409.9 129.5Q409.4 130.0 408.3 130.0L408.3 130.0Q406.7 130 405.9 131.0Q405.1 132.0 405.1 133.6L405.1 133.6L405.1 142.0Q405.1 142.8 404.6 143.3Q404.1 143.8 403.4 143.8Z M432.8 143.5L420.4 143.5Q419.6 143.5 419.1 143.1Q418.7 142.7 418.7 142L418.7 142Q418.7 141.5 418.9 141.1Q419.1 140.8 419.7 140.2L419.7 140.2L426.7 133.0Q428.9 130.8 429.6 129.6Q430.4 128.4 430.4 127.1L430.4 127.1Q430.4 125.5 429.3 124.4Q428.2 123.4 426.5 123.4L426.5 123.4Q423.1 123.4 421.9 126.7L421.9 126.7Q421.7 127.3 421.3 127.6Q421.0 127.9 420.3 127.9L420.3 127.9Q419.6 127.9 419.2 127.5Q418.8 127.0 418.8 126.4L418.8 126.4Q418.8 126 418.9 125.6L418.9 125.6Q419.1 124.7 419.7 123.8Q420.3 122.9 421.2 122.2Q422.1 121.4 423.5 121.0Q424.9 120.5 426.5 120.5L426.5 120.5Q429.7 120.5 431.8 122.3Q433.8 124.1 433.8 126.9L433.8 126.9Q433.8 128.8 432.8 130.5Q431.7 132.1 428.8 135.0L428.8 135.0L423.5 140.4L423.5 140.5L432.8 140.5Q433.5 140.5 433.9 140.9Q434.4 141.3 434.4 142L434.4 142Q434.4 142.7 433.9 143.1Q433.5 143.5 432.8 143.5L432.8 143.5ZM451.9 140.7Q449.6 143.9 445.5 143.9Q441.5 143.9 439.2 140.7Q436.9 137.6 436.9 132.2L436.9 132.2Q436.9 126.8 439.2 123.6Q441.5 120.5 445.5 120.5L445.5 120.5Q449.6 120.5 451.9 123.6Q454.2 126.8 454.2 132.2L454.2 132.2Q454.2 137.6 451.9 140.7ZM445.5 141.0L445.5 141.0Q448.0 141.0 449.3 138.6Q450.6 136.3 450.6 132.2L450.6 132.2Q450.6 128.1 449.3 125.8Q448.0 123.4 445.5 123.4Q443.1 123.4 441.8 125.8Q440.5 128.1 440.5 132.2L440.5 132.2Q440.5 136.3 441.8 138.6Q443.1 141.0 445.5 141.0ZM471.3 143.5L458.9 143.5Q458.1 143.5 457.6 143.1Q457.2 142.7 457.2 142L457.2 142Q457.2 141.5 457.4 141.1Q457.6 140.8 458.2 140.2L458.2 140.2L465.2 133.0Q467.4 130.8 468.1 129.6Q468.9 128.4 468.9 127.1L468.9 127.1Q468.9 125.5 467.8 124.4Q466.7 123.4 465.0 123.4L465.0 123.4Q461.6 123.4 460.4 126.7L460.4 126.7Q460.2 127.3 459.8 127.6Q459.5 127.9 458.8 127.9L458.8 127.9Q458.1 127.9 457.7 127.5Q457.3 127.0 457.3 126.4L457.3 126.4Q457.3 126 457.4 125.6L457.4 125.6Q457.6 124.7 458.2 123.8Q458.8 122.9 459.7 122.2Q460.6 121.4 462.0 121.0Q463.4 120.5 465.0 120.5L465.0 120.5Q468.2 120.5 470.3 122.3Q472.3 124.1 472.3 126.9L472.3 126.9Q472.3 128.8 471.3 130.5Q470.2 132.1 467.3 135.0L467.3 135.0L462.0 140.4L462.0 140.5L471.3 140.5Q472.0 140.5 472.4 140.9Q472.9 141.3 472.9 142L472.9 142Q472.9 142.7 472.4 143.1Q472.0 143.5 471.3 143.5L471.3 143.5ZM483.7 143.9L483.7 143.9Q481.0 143.9 479.1 142.9Q477.2 141.9 476.2 140.2L476.2 140.2Q475.8 139.3 475.8 138.5L475.8 138.5Q475.8 137.8 476.2 137.4Q476.6 136.9 477.3 136.9L477.3 136.9Q477.9 136.9 478.3 137.2Q478.6 137.5 478.9 138.1L478.9 138.1Q480.1 141.0 483.7 141.0L483.7 141.0Q485.7 141.0 487.0 139.9Q488.3 138.9 488.3 137.2L488.3 137.2Q488.3 135.3 487 134.3Q485.7 133.2 483.4 133.2L483.4 133.2L481.9 133.2Q481.3 133.2 480.9 132.8Q480.5 132.5 480.5 131.8Q480.5 131.2 480.9 130.9Q481.3 130.5 481.9 130.5L481.9 130.5L483.3 130.5Q485.3 130.5 486.5 129.5Q487.7 128.4 487.7 126.9L487.7 126.9Q487.7 125.3 486.6 124.3Q485.6 123.4 483.6 123.4L483.6 123.4Q482.0 123.4 480.9 124.1Q479.9 124.8 479.3 126.2L479.3 126.2Q479.0 126.9 478.7 127.2Q478.3 127.4 477.7 127.4L477.7 127.4Q477.0 127.4 476.6 127.0Q476.2 126.6 476.2 125.9L476.2 125.9Q476.2 125.1 476.6 124.2L476.6 124.2Q477.5 122.5 479.3 121.5Q481.1 120.5 483.6 120.5L483.6 120.5Q487.0 120.5 489.0 122.2Q491.1 123.8 491.1 126.4L491.1 126.4Q491.1 128.4 489.8 129.8Q488.5 131.2 486.3 131.7L486.3 131.7L486.3 131.8Q488.8 132.0 490.3 133.4Q491.8 134.9 491.8 137.2L491.8 137.2Q491.8 140.2 489.5 142.0Q487.2 143.9 483.7 143.9Z " clip-path="url(#satori_cp-id-0)" mask="url(#satori_om-id-0)"/><mask id="satori_om-id-0-0-0-1"><rect x="72" y="175" width="1056" height="221" fill="#fff" mask="url(#satori_om-id-0)"/></mask><path fill="#0f172a" d="M95.8 235.3L95.8 235.3Q85.8 235.3 80.1 229.1Q74.3 222.9 74.3 212.0L74.3 212.0Q74.3 201.1 80.1 194.9Q85.8 188.7 95.6 188.7L95.6 188.7Q101.9 188.7 106.6 191.4Q111.3 194.1 113.7 198.9L113.7 198.9Q114.6 200.7 114.6 202.5L114.6 202.5Q114.6 204.3 113.5 205.4Q112.3 206.5 110.4 206.5L110.4 206.5Q108.8 206.5 107.8 205.8Q106.7 205.1 105.9 203.4L105.9 203.4Q104.4 200.0 101.8 198.2Q99.1 196.5 95.7 196.5L95.7 196.5Q90.3 196.5 87.2 200.7Q84.0 204.9 84.0 212.0L84.0 212.0Q84.0 219.2 87.1 223.3Q90.3 227.5 95.7 227.5L95.7 227.5Q103.1 227.5 106.1 220.8L106.1 220.8Q106.8 219.2 107.8 218.6Q108.7 217.9 110.2 217.9L110.2 217.9Q112.2 217.9 113.4 219.0Q114.6 220.2 114.6 222.1L114.6 222.1Q114.6 223.5 113.9 225.2L113.9 225.2Q111.8 229.9 107 232.6Q102.2 235.3 95.8 235.3ZM148.1 230.6Q143.6 235.3 135.9 235.3Q128.3 235.3 123.8 230.6Q119.3 226.0 119.3 217.8L119.3 217.8Q119.3 209.7 123.9 205.0Q128.4 200.3 135.9 200.3L135.9 200.3Q143.5 200.3 148.0 205.0Q152.5 209.7 152.5 217.8L152.5 217.8Q152.5 226.0 148.1 230.6ZM135.9 228.3L135.9 228.3Q139.3 228.3 141.3 225.6Q143.3 222.8 143.3 217.8L143.3 217.8Q143.3 212.9 141.3 210.1Q139.3 207.3 135.9 207.3Q132.6 207.3 130.6 210.1Q128.6 212.9 128.6 217.8L128.6 217.8Q128.6 222.8 130.6 225.6Q132.5 228.3 135.9 228.3ZM165.1 234.0Q163.8 235.2 161.8 235.2Q159.7 235.2 158.5 234.0Q157.2 232.7 157.2 230.5L157.2 230.5L157.2 205.0Q157.2 202.8 158.4 201.6Q159.6 200.4 161.6 200.4Q163.7 200.4 164.9 201.6Q166.2 202.9 166.2 205.0L166.2 205.0L166.2 206.9L166.4 206.9Q169.1 200.4 176.7 200.4L176.7 200.4Q182.3 200.4 185.3 203.7Q188.3 207.1 188.3 213.0L188.3 213.0L188.3 230.5Q188.3 232.7 187.1 234.0Q185.8 235.2 183.8 235.2Q181.7 235.2 180.4 234.0Q179.2 232.7 179.2 230.5L179.2 230.5L179.2 214.9Q179.2 211.6 177.6 209.8Q176.1 208.0 173.0 208.0Q170 208.0 168.2 210.0Q166.3 212.1 166.3 215.3L166.3 215.3L166.3 230.5Q166.3 232.7 165.1 234.0ZM207.8 235.3L207.8 235.3Q202.1 235.3 198.3 233.4Q194.6 231.6 193.3 228.6L193.3 228.6Q193 227.6 193 226.9L193 226.9Q193 225.3 194.0 224.4Q195.1 223.4 196.7 223.4L196.7 223.4Q198.8 223.4 200.7 225.5L200.7 225.5Q202.0 227.2 203.7 228.1Q205.4 228.9 208.0 228.9L208.0 228.9Q210.5 228.9 212.0 227.9Q213.4 226.9 213.4 225.3L213.4 225.3Q213.4 223.9 212.4 223.1Q211.4 222.3 209 221.8L209 221.8L203.4 220.6Q198.5 219.5 196.0 217.1Q193.5 214.6 193.5 210.9L193.5 210.9Q193.5 206.1 197.4 203.2Q201.2 200.3 207.7 200.3L207.7 200.3Q212.8 200.3 216.4 202.3Q220 204.3 220.8 207.3L220.8 207.3Q221.1 208.1 221.1 208.6L221.1 208.6Q221.1 210.1 220.2 210.9Q219.3 211.7 217.6 211.7L217.6 211.7Q215.4 211.7 214.3 210.3L214.3 210.3Q212.9 208.6 211.4 207.7Q209.8 206.7 207.6 206.7L207.6 206.7Q205.3 206.7 203.8 207.7Q202.3 208.7 202.3 210.4L202.3 210.4Q202.3 211.7 203.4 212.6Q204.5 213.5 207.0 214.0L207.0 214.0L212.5 215.2Q217.8 216.3 220.2 218.4Q222.6 220.6 222.6 224.3L222.6 224.3Q222.6 229.3 218.5 232.3Q214.4 235.3 207.8 235.3ZM235.3 195.5Q233.8 196.9 231.8 196.9Q229.7 196.9 228.3 195.5Q226.9 194.1 226.9 192.2L226.9 192.2Q226.9 190.2 228.3 188.8Q229.7 187.5 231.8 187.5Q233.8 187.5 235.3 188.8Q236.7 190.2 236.7 192.2L236.7 192.2Q236.7 194.1 235.3 195.5ZM235.1 233.9Q233.9 235.2 231.8 235.2Q229.7 235.2 228.4 233.9Q227.2 232.7 227.2 230.5L227.2 230.5L227.2 205.1Q227.2 202.9 228.4 201.6Q229.7 200.4 231.8 200.4Q233.9 200.4 235.1 201.6Q236.3 202.9 236.3 205.1L236.3 205.1L236.3 230.5Q236.3 232.7 235.1 233.9ZM254.8 235.1L254.8 235.1Q248.6 235.1 244.9 230.4Q241.2 225.8 241.2 217.7L241.2 217.7Q241.2 209.8 244.9 205.1Q248.6 200.5 254.9 200.5L254.9 200.5Q258.5 200.5 261.2 202.2Q263.9 204.0 265.1 206.8L265.1 206.8L265.3 206.8L265.3 193.6Q265.3 191.3 266.6 190.0Q267.8 188.8 269.9 188.8Q271.9 188.8 273.2 190.0Q274.4 191.3 274.4 193.6L274.4 193.6L274.4 230.6Q274.4 232.8 273.2 234.0Q272.0 235.2 269.9 235.2L269.9 235.2Q267.9 235.2 266.6 234.0Q265.3 232.8 265.3 230.6L265.3 230.6L265.3 228.6L265.2 228.6Q264.0 231.6 261.3 233.3Q258.6 235.1 254.8 235.1ZM257.9 227.7L257.9 227.7Q261.3 227.7 263.4 225.1Q265.4 222.4 265.4 217.8L265.4 217.8Q265.4 213.2 263.4 210.5Q261.3 207.8 257.9 207.8L257.9 207.8Q254.5 207.8 252.5 210.5Q250.5 213.2 250.5 217.8L250.5 217.8Q250.5 222.4 252.5 225.1Q254.5 227.7 257.9 227.7ZM295.9 235.3L295.9 235.3Q288.1 235.3 283.7 230.7Q279.3 226.1 279.3 218.0L279.3 218.0Q279.3 209.9 283.7 205.1Q288.1 200.3 295.5 200.3L295.5 200.3Q302.6 200.3 307.0 204.7Q311.4 209.1 311.4 215.9L311.4 215.9Q311.4 217.8 310.3 218.9Q309.3 219.9 307.4 219.9L307.4 219.9L288.3 219.9L288.3 220.3Q288.3 224.0 290.4 226.3Q292.4 228.5 295.9 228.5L295.9 228.5Q298.4 228.5 300.2 227.6Q302.1 226.7 303.9 224.5L303.9 224.5Q305.2 223.1 306.9 223.1L306.9 223.1Q308.4 223.1 309.4 224.1Q310.4 225.0 310.4 226.5L310.4 226.5Q310.4 227.6 309.8 228.7L309.8 228.7Q308.2 231.8 304.5 233.5Q300.8 235.3 295.9 235.3ZM288.4 214.3L288.4 214.3L302.6 214.3Q302.5 211.0 300.5 209.1Q298.6 207.1 295.6 207.1Q292.6 207.1 290.6 209.1Q288.6 211.1 288.4 214.3ZM320.6 235.2L320.6 235.2Q318.5 235.2 317.3 234.0Q316.1 232.7 316.1 230.5L316.1 230.5L316.1 205.0Q316.1 202.8 317.3 201.6Q318.5 200.4 320.5 200.4L320.5 200.4Q322.4 200.4 323.6 201.6Q324.8 202.8 324.8 205.0L324.8 205.0L324.8 207.1L325.0 207.1Q325.6 204.1 327.5 202.3Q329.4 200.5 331.9 200.5L331.9 200.5Q333.8 200.5 334.8 201.4L334.8 201.4Q336.1 202.4 336.1 204.7L336.1 204.7Q336.1 206.9 334.8 208.0L334.8 208.0Q333.4 209.2 330.8 209.2L330.8 209.2Q327.8 209.2 326.5 210.8Q325.2 212.5 325.2 215.6L325.2 215.6L325.2 230.5Q325.2 232.7 324.0 234.0Q322.8 235.2 320.6 235.2ZM349.3 235.1L349.3 235.1Q344.4 235.1 341.2 232.2Q338.0 229.4 338.0 224.9L338.0 224.9Q338.0 220.4 341.4 217.8Q344.8 215.2 351.1 214.8L351.1 214.8L359.5 214.3L359.5 212.1Q359.5 209.8 358.0 208.5Q356.5 207.1 353.9 207.1L353.9 207.1Q351.8 207.1 350.4 207.9Q348.9 208.7 347.4 210.7L347.4 210.7Q345.9 212.4 343.8 212.4L343.8 212.4Q342.1 212.4 341.0 211.4Q340.0 210.4 340.0 208.9L340.0 208.9Q340.0 207.8 340.4 206.8L340.4 206.8Q341.6 203.8 345.3 202.1Q349.1 200.3 354.3 200.3L354.3 200.3Q360.8 200.3 364.6 203.4Q368.5 206.5 368.5 211.5L368.5 211.5L368.5 230.6Q368.5 232.8 367.3 234.0Q366.1 235.2 364.1 235.2L364.1 235.2Q362.2 235.2 361.0 234.2Q359.8 233.1 359.7 231.1L359.7 231.1L359.7 229.4L359.5 229.4Q358.1 232.1 355.3 233.6Q352.5 235.1 349.3 235.1ZM352.3 228.5L352.3 228.5Q355.3 228.5 357.4 226.7Q359.5 225.0 359.5 222.3L359.5 222.3L359.5 219.8L352.5 220.3Q349.9 220.5 348.5 221.6Q347.1 222.6 347.1 224.4L347.1 224.4Q347.1 226.3 348.5 227.4Q349.9 228.5 352.3 228.5ZM376.8 226.0L376.8 226.0L376.8 207.9L375.1 207.9Q373.4 207.9 372.5 207.0Q371.5 206.1 371.5 204.5Q371.5 202.9 372.5 202.0Q373.4 201.1 375.1 201.1L375.1 201.1L376.8 201.1L376.8 197.3Q376.8 195.1 378.0 193.8Q379.3 192.6 381.4 192.6Q383.5 192.6 384.7 193.8Q385.9 195.1 385.9 197.3L385.9 197.3L385.9 201.1L389.2 201.1Q390.8 201.1 391.7 202.0Q392.7 202.9 392.7 204.5Q392.7 206.1 391.7 207.0Q390.8 207.9 389.2 207.9L389.2 207.9L385.9 207.9L385.9 224.0Q385.9 225.7 386.6 226.6Q387.3 227.4 388.7 227.5L388.7 227.5L389.3 227.6Q391.1 227.7 391.9 228.5Q392.8 229.3 392.8 230.9L392.8 230.9Q392.8 232.8 391.0 233.9Q389.3 234.9 386.3 234.9L386.3 234.9L386 234.9Q376.8 234.9 376.8 226.0ZM405.3 195.5Q403.9 196.9 401.8 196.9Q399.8 196.9 398.4 195.5Q397.0 194.1 397.0 192.2L397.0 192.2Q397.0 190.2 398.4 188.8Q399.8 187.5 401.8 187.5Q403.9 187.5 405.3 188.8Q406.7 190.2 406.7 192.2L406.7 192.2Q406.7 194.1 405.3 195.5ZM405.2 233.9Q404.0 235.2 401.8 235.2Q399.7 235.2 398.5 233.9Q397.3 232.7 397.3 230.5L397.3 230.5L397.3 205.1Q397.3 202.9 398.5 201.6Q399.7 200.4 401.8 200.4Q404.0 200.4 405.2 201.6Q406.4 202.9 406.4 205.1L406.4 205.1L406.4 230.5Q406.4 232.7 405.2 233.9ZM440.0 230.6Q435.5 235.3 427.8 235.3Q420.2 235.3 415.7 230.6Q411.3 226.0 411.3 217.8L411.3 217.8Q411.3 209.7 415.8 205.0Q420.3 200.3 427.8 200.3L427.8 200.3Q435.4 200.3 439.9 205.0Q444.4 209.7 444.4 217.8L444.4 217.8Q444.4 226.0 440.0 230.6ZM427.8 228.3L427.8 228.3Q431.2 228.3 433.2 225.6Q435.2 222.8 435.2 217.8L435.2 217.8Q435.2 212.9 433.2 210.1Q431.2 207.3 427.8 207.3Q424.5 207.3 422.5 210.1Q420.5 212.9 420.5 217.8L420.5 217.8Q420.5 222.8 422.5 225.6Q424.4 228.3 427.8 228.3ZM457 234.0Q455.8 235.2 453.7 235.2Q451.6 235.2 450.4 234.0Q449.1 232.7 449.1 230.5L449.1 230.5L449.1 205.0Q449.1 202.8 450.3 201.6Q451.5 200.4 453.5 200.4Q455.6 200.4 456.8 201.6Q458.1 202.9 458.1 205.0L458.1 205.0L458.1 206.9L458.3 206.9Q461.0 200.4 468.6 200.4L468.6 200.4Q474.2 200.4 477.2 203.7Q480.2 207.1 480.2 213.0L480.2 213.0L480.2 230.5Q480.2 232.7 479.0 234.0Q477.7 235.2 475.7 235.2Q473.6 235.2 472.3 234.0Q471.1 232.7 471.1 230.5L471.1 230.5L471.1 214.9Q471.1 211.6 469.5 209.8Q468.0 208.0 464.9 208.0Q461.9 208.0 460.1 210.0Q458.3 212.1 458.3 215.3L458.3 215.3L458.3 230.5Q458.3 232.7 457 234.0ZM499.7 235.3L499.7 235.3Q494.0 235.3 490.3 233.4Q486.5 231.6 485.3 228.6L485.3 228.6Q484.9 227.6 484.9 226.9L484.9 226.9Q484.9 225.3 486.0 224.4Q487 223.4 488.6 223.4L488.6 223.4Q490.7 223.4 492.6 225.5L492.6 225.5Q493.9 227.2 495.6 228.1Q497.3 228.9 499.9 228.9L499.9 228.9Q502.4 228.9 503.9 227.9Q505.3 226.9 505.3 225.3L505.3 225.3Q505.3 223.9 504.3 223.1Q503.3 222.3 500.9 221.8L500.9 221.8L495.3 220.6Q490.4 219.5 487.9 217.1Q485.4 214.6 485.4 210.9L485.4 210.9Q485.4 206.1 489.3 203.2Q493.1 200.3 499.6 200.3L499.6 200.3Q504.7 200.3 508.3 202.3Q511.9 204.3 512.8 207.3L512.8 207.3Q513.0 208.1 513.0 208.6L513.0 208.6Q513.0 210.1 512.1 210.9Q511.2 211.7 509.5 211.7L509.5 211.7Q507.3 211.7 506.2 210.3L506.2 210.3Q504.8 208.6 503.3 207.7Q501.8 206.7 499.5 206.7L499.5 206.7Q497.2 206.7 495.7 207.7Q494.2 208.7 494.2 210.4L494.2 210.4Q494.2 211.7 495.3 212.6Q496.4 213.5 498.9 214.0L498.9 214.0L504.4 215.2Q509.8 216.3 512.1 218.4Q514.5 220.6 514.5 224.3L514.5 224.3Q514.5 229.3 510.4 232.3Q506.3 235.3 499.7 235.3Z M542.0 234.0Q540.7 235.2 538.6 235.2Q536.5 235.2 535.3 234.0Q534.1 232.8 534.1 230.5L534.1 230.5L534.1 207.9L532.3 207.9Q530.8 207.9 529.9 207.0Q529.0 206.1 529.0 204.6Q529.0 203.0 529.9 202.1Q530.8 201.2 532.3 201.2L532.3 201.2L534.1 201.2L534.1 198.7Q534.1 193.8 536.4 191.4Q538.8 189.1 543.6 189.1L543.6 189.1Q547.1 189.1 548.8 190.1Q550.5 191.1 550.5 192.7L550.5 192.7Q550.5 194.6 548.7 195.1L548.7 195.1Q547.8 195.4 546.9 195.4L546.9 195.4Q544.8 195.5 543.9 196.3Q543.0 197.2 543.0 199.1L543.0 199.1L543.0 201.2L546.8 201.2Q548.3 201.2 549.2 202.1Q550.2 203.0 550.2 204.6Q550.2 206.1 549.2 207.0Q548.3 207.9 546.8 207.9L546.8 207.9L543.2 207.9L543.2 230.5Q543.2 232.8 542.0 234.0ZM581.9 230.6Q577.4 235.3 569.8 235.3Q562.1 235.3 557.7 230.6Q553.2 226.0 553.2 217.8L553.2 217.8Q553.2 209.7 557.7 205.0Q562.2 200.3 569.8 200.3L569.8 200.3Q577.4 200.3 581.9 205.0Q586.4 209.7 586.4 217.8L586.4 217.8Q586.4 226.0 581.9 230.6ZM569.8 228.3L569.8 228.3Q573.2 228.3 575.1 225.6Q577.1 222.8 577.1 217.8L577.1 217.8Q577.1 212.9 575.1 210.1Q573.2 207.3 569.8 207.3Q566.4 207.3 564.4 210.1Q562.4 212.9 562.4 217.8L562.4 217.8Q562.4 222.8 564.4 225.6Q566.4 228.3 569.8 228.3ZM595.6 235.2L595.6 235.2Q593.5 235.2 592.3 234.0Q591.1 232.7 591.1 230.5L591.1 230.5L591.1 205.0Q591.1 202.8 592.3 201.6Q593.5 200.4 595.5 200.4L595.5 200.4Q597.4 200.4 598.6 201.6Q599.8 202.8 599.8 205.0L599.8 205.0L599.8 207.1L600.0 207.1Q600.6 204.1 602.5 202.3Q604.4 200.5 606.9 200.5L606.9 200.5Q608.8 200.5 609.8 201.4L609.8 201.4Q611.1 202.4 611.1 204.7L611.1 204.7Q611.1 206.9 609.8 208.0L609.8 208.0Q608.4 209.2 605.8 209.2L605.8 209.2Q602.8 209.2 601.5 210.8Q600.2 212.5 600.2 215.6L600.2 215.6L600.2 230.5Q600.2 232.7 599.0 234.0Q597.8 235.2 595.6 235.2Z M653.9 234.6L632.5 234.6Q630.3 234.6 629.0 233.3Q627.8 232.0 627.8 229.6L627.8 229.6L627.8 194.4Q627.8 192.1 629.0 190.8Q630.3 189.5 632.5 189.5L632.5 189.5L653.9 189.5Q655.9 189.5 657.1 190.5Q658.2 191.6 658.2 193.4Q658.2 195.2 657.0 196.2Q655.9 197.3 653.9 197.3L653.9 197.3L637.2 197.3L637.2 208.1L653.1 208.1Q654.9 208.1 656.0 209.1Q657.1 210.1 657.1 211.7L657.1 211.7Q657.1 213.4 656.0 214.4Q654.9 215.4 653.1 215.4L653.1 215.4L637.2 215.4L637.2 226.7L653.9 226.7Q655.9 226.7 657.0 227.8Q658.2 228.8 658.2 230.6Q658.2 232.5 657.1 233.5Q655.9 234.6 653.9 234.6L653.9 234.6ZM671.6 234.0Q670.3 235.2 668.3 235.2Q666.2 235.2 664.9 234.0Q663.7 232.7 663.7 230.5L663.7 230.5L663.7 205.0Q663.7 202.8 664.9 201.6Q666.0 200.4 668.1 200.4Q670.2 200.4 671.4 201.6Q672.7 202.9 672.7 205.0L672.7 205.0L672.7 206.9L672.8 206.9Q675.6 200.4 683.2 200.4L683.2 200.4Q688.7 200.4 691.8 203.7Q694.8 207.1 694.8 213.0L694.8 213.0L694.8 230.5Q694.8 232.7 693.5 234.0Q692.3 235.2 690.2 235.2Q688.2 235.2 686.9 234.0Q685.7 232.7 685.7 230.5L685.7 230.5L685.7 214.9Q685.7 211.6 684.1 209.8Q682.5 208.0 679.5 208.0Q676.5 208.0 674.6 210.0Q672.8 212.1 672.8 215.3L672.8 215.3L672.8 230.5Q672.8 232.7 671.6 234.0ZM713 235.1L713 235.1Q706.7 235.1 703.0 230.4Q699.3 225.8 699.3 217.7L699.3 217.7Q699.3 209.8 703.0 205.1Q706.8 200.5 713.1 200.5L713.1 200.5Q716.6 200.5 719.3 202.2Q722.0 204.0 723.3 206.8L723.3 206.8L723.5 206.8L723.5 193.6Q723.5 191.3 724.7 190.0Q726.0 188.8 728.0 188.8Q730.1 188.8 731.3 190.0Q732.6 191.3 732.6 193.6L732.6 193.6L732.6 230.6Q732.6 232.8 731.4 234.0Q730.1 235.2 728.1 235.2L728.1 235.2Q726.0 235.2 724.8 234.0Q723.5 232.8 723.5 230.6L723.5 230.6L723.5 228.6L723.3 228.6Q722.2 231.6 719.5 233.3Q716.8 235.1 713 235.1ZM716.1 227.7L716.1 227.7Q719.5 227.7 721.5 225.1Q723.5 222.4 723.5 217.8L723.5 217.8Q723.5 213.2 721.5 210.5Q719.5 207.8 716.1 207.8L716.1 207.8Q712.7 207.8 710.7 210.5Q708.7 213.2 708.7 217.8L708.7 217.8Q708.7 222.4 710.7 225.1Q712.7 227.7 716.1 227.7ZM756.4 220.2L743.3 220.2Q741.4 220.2 740.2 219.1Q739.0 218.1 739.0 216.2Q739.0 214.4 740.2 213.3Q741.4 212.2 743.3 212.2L743.3 212.2L756.4 212.2Q758.3 212.2 759.5 213.3Q760.7 214.4 760.7 216.2Q760.7 218.1 759.5 219.1Q758.3 220.2 756.4 220.2L756.4 220.2ZM786.7 235.3L786.7 235.3Q778.0 235.3 772.9 230.7Q767.8 226.1 767.8 218.6L767.8 218.6L767.8 193.8Q767.8 191.4 769 190.1Q770.3 188.8 772.5 188.8Q774.7 188.8 775.9 190.1Q777.2 191.4 777.2 193.8L777.2 193.8L777.2 217.7Q777.2 222.1 779.7 224.7Q782.2 227.2 786.7 227.2L786.7 227.2Q791.1 227.2 793.6 224.7Q796.1 222.1 796.1 217.7L796.1 217.7L796.1 193.8Q796.1 191.4 797.3 190.1Q798.6 188.8 800.8 188.8Q803.0 188.8 804.3 190.1Q805.5 191.4 805.5 193.8L805.5 193.8L805.5 218.6Q805.5 226.1 800.4 230.7Q795.3 235.3 786.7 235.3ZM825.9 235.3L825.9 235.3Q820.3 235.3 816.5 233.4Q812.7 231.6 811.5 228.6L811.5 228.6Q811.2 227.6 811.2 226.9L811.2 226.9Q811.2 225.3 812.2 224.4Q813.3 223.4 814.8 223.4L814.8 223.4Q817.0 223.4 818.8 225.5L818.8 225.5Q820.2 227.2 821.9 228.1Q823.6 228.9 826.1 228.9L826.1 228.9Q828.6 228.9 830.1 227.9Q831.6 226.9 831.6 225.3L831.6 225.3Q831.6 223.9 830.6 223.1Q829.6 222.3 827.2 221.8L827.2 221.8L821.5 220.6Q816.6 219.5 814.1 217.1Q811.7 214.6 811.7 210.9L811.7 210.9Q811.7 206.1 815.5 203.2Q819.4 200.3 825.9 200.3L825.9 200.3Q830.9 200.3 834.5 202.3Q838.2 204.3 839 207.3L839 207.3Q839.2 208.1 839.2 208.6L839.2 208.6Q839.2 210.1 838.3 210.9Q837.4 211.7 835.7 211.7L835.7 211.7Q833.6 211.7 832.4 210.3L832.4 210.3Q831.0 208.6 829.5 207.7Q828 206.7 825.7 206.7L825.7 206.7Q823.4 206.7 821.9 207.7Q820.5 208.7 820.5 210.4L820.5 210.4Q820.5 211.7 821.6 212.6Q822.7 213.5 825.1 214.0L825.1 214.0L830.7 215.2Q836 216.3 838.4 218.4Q840.7 220.6 840.7 224.3L840.7 224.3Q840.7 229.3 836.6 232.3Q832.6 235.3 825.9 235.3ZM860.6 235.3L860.6 235.3Q852.8 235.3 848.4 230.7Q844 226.1 844 218.0L844 218.0Q844 209.9 848.4 205.1Q852.8 200.3 860.2 200.3L860.2 200.3Q867.3 200.3 871.7 204.7Q876.1 209.1 876.1 215.9L876.1 215.9Q876.1 217.8 875.0 218.9Q874 219.9 872.1 219.9L872.1 219.9L853.0 219.9L853.0 220.3Q853.0 224.0 855.0 226.3Q857.1 228.5 860.6 228.5L860.6 228.5Q863.1 228.5 864.9 227.6Q866.8 226.7 868.6 224.5L868.6 224.5Q869.9 223.1 871.6 223.1L871.6 223.1Q873.1 223.1 874.1 224.1Q875.1 225.0 875.1 226.5L875.1 226.5Q875.1 227.6 874.5 228.7L874.5 228.7Q872.8 231.8 869.2 233.5Q865.5 235.3 860.6 235.3ZM853.1 214.3L853.1 214.3L867.3 214.3Q867.2 211.0 865.2 209.1Q863.3 207.1 860.3 207.1Q857.3 207.1 855.3 209.1Q853.3 211.1 853.1 214.3ZM885.3 235.2L885.3 235.2Q883.2 235.2 882.0 234.0Q880.8 232.7 880.8 230.5L880.8 230.5L880.8 205.0Q880.8 202.8 882.0 201.6Q883.2 200.4 885.2 200.4L885.2 200.4Q887.1 200.4 888.3 201.6Q889.5 202.8 889.5 205.0L889.5 205.0L889.5 207.1L889.7 207.1Q890.3 204.1 892.2 202.3Q894.1 200.5 896.6 200.5L896.6 200.5Q898.5 200.5 899.5 201.4L899.5 201.4Q900.8 202.4 900.8 204.7L900.8 204.7Q900.8 206.9 899.5 208.0L899.5 208.0Q898.1 209.2 895.5 209.2L895.5 209.2Q892.5 209.2 891.2 210.8Q889.9 212.5 889.9 215.6L889.9 215.6L889.9 230.5Q889.9 232.7 888.7 234.0Q887.4 235.2 885.3 235.2Z M93.0 308.1L80.5 308.1Q78.3 308.1 77 306.9Q75.8 305.6 75.8 303.2L75.8 303.2L75.8 268.0Q75.8 265.6 77 264.4Q78.3 263.1 80.5 263.1L80.5 263.1L93.0 263.1Q103.2 263.1 108.8 268.9Q114.5 274.7 114.5 285.4L114.5 285.4Q114.5 296.1 108.8 302.1Q103.1 308.1 93.0 308.1L93.0 308.1ZM85.2 270.8L85.2 300.3L91.8 300.3Q98.2 300.3 101.5 296.5Q104.8 292.7 104.8 285.5L104.8 285.5Q104.8 278.4 101.5 274.6Q98.1 270.8 91.8 270.8L91.8 270.8L85.2 270.8ZM135.2 308.9L135.2 308.9Q127.3 308.9 122.9 304.3Q118.5 299.7 118.5 291.6L118.5 291.6Q118.5 283.5 122.9 278.7Q127.3 273.9 134.7 273.9L134.7 273.9Q141.8 273.9 146.2 278.3Q150.6 282.6 150.6 289.5L150.6 289.5Q150.6 291.4 149.6 292.5Q148.5 293.5 146.6 293.5L146.6 293.5L127.5 293.5L127.5 293.9Q127.5 297.6 129.6 299.9Q131.7 302.1 135.1 302.1L135.1 302.1Q137.6 302.1 139.5 301.2Q141.3 300.3 143.1 298.1L143.1 298.1Q144.4 296.7 146.1 296.7L146.1 296.7Q147.6 296.7 148.6 297.6Q149.7 298.6 149.7 300.1L149.7 300.1Q149.7 301.1 149.0 302.3L149.0 302.3Q147.4 305.4 143.7 307.1Q140 308.9 135.2 308.9ZM127.6 287.9L127.6 287.9L141.8 287.9Q141.7 284.6 139.8 282.6Q137.8 280.7 134.8 280.7Q131.8 280.7 129.8 282.7Q127.8 284.7 127.6 287.9ZM169.3 308.8L169.3 308.8Q166.8 308.8 165.2 307.7Q163.7 306.6 162.8 304.1L162.8 304.1L154.0 280.8Q153.5 279.3 153.5 278.1L153.5 278.1Q153.5 276.2 154.8 275.1Q156.1 274.0 158.1 274.0L158.1 274.0Q161.4 274.0 162.5 277.6L162.5 277.6L169.3 300.1L169.4 300.1L176.2 277.5Q177.2 274.0 180.5 274.0L180.5 274.0Q182.4 274.0 183.7 275.1Q184.9 276.3 184.9 278.0L184.9 278.0Q184.9 279.2 184.4 280.6L184.4 280.6L175.7 304.1Q174.8 306.6 173.3 307.7Q171.8 308.8 169.3 308.8ZM204.5 308.9L204.5 308.9Q196.6 308.9 192.2 304.3Q187.8 299.7 187.8 291.6L187.8 291.6Q187.8 283.5 192.2 278.7Q196.6 273.9 204.0 273.9L204.0 273.9Q211.1 273.9 215.5 278.3Q219.9 282.6 219.9 289.5L219.9 289.5Q219.9 291.4 218.9 292.5Q217.8 293.5 215.9 293.5L215.9 293.5L196.8 293.5L196.8 293.9Q196.8 297.6 198.9 299.9Q201.0 302.1 204.4 302.1L204.4 302.1Q206.9 302.1 208.8 301.2Q210.6 300.3 212.4 298.1L212.4 298.1Q213.8 296.7 215.4 296.7L215.4 296.7Q216.9 296.7 218.0 297.6Q219.0 298.6 219.0 300.1L219.0 300.1Q219.0 301.1 218.3 302.3L218.3 302.3Q216.7 305.4 213 307.1Q209.3 308.9 204.5 308.9ZM196.9 287.9L196.9 287.9L211.1 287.9Q211 284.6 209.1 282.6Q207.1 280.7 204.1 280.7Q201.1 280.7 199.1 282.7Q197.2 284.7 196.9 287.9ZM232.7 307.6Q231.4 308.8 229.4 308.8Q227.3 308.8 226.1 307.6Q224.8 306.3 224.8 304.1L224.8 304.1L224.8 267.1Q224.8 264.9 226.1 263.6Q227.3 262.4 229.4 262.4Q231.4 262.4 232.7 263.6Q233.9 264.9 233.9 267.1L233.9 267.1L233.9 304.1Q233.9 306.3 232.7 307.6ZM267.6 304.2Q263.1 308.9 255.5 308.9Q247.8 308.9 243.3 304.2Q238.9 299.6 238.9 291.4L238.9 291.4Q238.9 283.3 243.4 278.6Q247.9 273.9 255.5 273.9L255.5 273.9Q263.1 273.9 267.6 278.6Q272.1 283.3 272.1 291.4L272.1 291.4Q272.1 299.6 267.6 304.2ZM255.5 301.9L255.5 301.9Q258.8 301.9 260.8 299.1Q262.8 296.4 262.8 291.4L262.8 291.4Q262.8 286.5 260.8 283.7Q258.8 280.9 255.5 280.9Q252.1 280.9 250.1 283.7Q248.1 286.5 248.1 291.4L248.1 291.4Q248.1 296.4 250.1 299.1Q252.1 301.9 255.5 301.9ZM284.6 318.9Q283.4 320.1 281.3 320.1Q279.3 320.1 278 318.9Q276.8 317.6 276.8 315.3L276.8 315.3L276.8 278.6Q276.8 276.4 278.0 275.2Q279.2 274.0 281.3 274.0Q283.3 274.0 284.5 275.2Q285.8 276.4 285.8 278.7L285.8 278.7L285.8 280.5L285.9 280.5Q287.3 277.5 290.0 275.8Q292.7 274.1 296.3 274.1L296.3 274.1Q302.7 274.1 306.4 278.7Q310.0 283.3 310.0 291.4L310.0 291.4Q310.0 299.5 306.4 304.1Q302.8 308.7 296.5 308.7L296.5 308.7Q292.9 308.7 290.1 307.0Q287.4 305.4 286.1 302.5L286.1 302.5L285.9 302.5L285.9 315.3Q285.9 317.6 284.6 318.9ZM293.3 301.3L293.3 301.3Q296.7 301.3 298.7 298.6Q300.7 296.0 300.7 291.4Q300.7 286.8 298.7 284.1Q296.7 281.4 293.3 281.4L293.3 281.4Q289.9 281.4 287.9 284.2Q285.8 286.9 285.8 291.4L285.8 291.4Q285.8 295.9 287.9 298.6Q289.9 301.3 293.3 301.3ZM319.3 308.8L319.3 308.8Q317.2 308.8 316.0 307.6Q314.7 306.3 314.7 304.1L314.7 304.1L314.7 278.6Q314.7 276.4 315.9 275.2Q317.1 274.0 319.1 274.0Q321.1 274.0 322.3 275.2Q323.5 276.4 323.5 278.6L323.5 278.6L323.5 280.7L323.7 280.7Q324.8 277.6 327.3 275.8Q329.9 274.0 333.3 274.0L333.3 274.0Q336.9 274.0 339.3 275.8Q341.8 277.6 342.6 280.9L342.6 280.9L342.8 280.9Q343.9 277.7 346.7 275.9Q349.5 274.0 353.2 274.0L353.2 274.0Q358.2 274.0 361.2 277.1Q364.2 280.2 364.2 285.3L364.2 285.3L364.2 304.1Q364.2 306.3 362.9 307.6Q361.7 308.8 359.6 308.8L359.6 308.8Q357.5 308.8 356.3 307.6Q355.1 306.3 355.1 304.1L355.1 304.1L355.1 287.6Q355.1 284.6 353.7 283.1Q352.3 281.6 349.6 281.6L349.6 281.6Q347 281.6 345.4 283.3Q343.8 285.0 343.8 287.8L343.8 287.8L343.8 304.1Q343.8 306.3 342.7 307.6Q341.5 308.8 339.4 308.8L339.4 308.8Q337.4 308.8 336.2 307.6Q335.1 306.3 335.1 304.1L335.1 304.1L335.1 287.3Q335.1 284.6 333.6 283.1Q332.2 281.6 329.7 281.6L329.7 281.6Q327.1 281.6 325.5 283.3Q323.8 285.1 323.8 287.9L323.8 287.9L323.8 304.1Q323.8 306.3 322.6 307.6Q321.3 308.8 319.3 308.8ZM385.4 308.9L385.4 308.9Q377.5 308.9 373.1 304.3Q368.8 299.7 368.8 291.6L368.8 291.6Q368.8 283.5 373.1 278.7Q377.5 273.9 384.9 273.9L384.9 273.9Q392.0 273.9 396.4 278.3Q400.8 282.6 400.8 289.5L400.8 289.5Q400.8 291.4 399.8 292.5Q398.8 293.5 396.8 293.5L396.8 293.5L377.7 293.5L377.7 293.9Q377.7 297.6 379.8 299.9Q381.9 302.1 385.3 302.1L385.3 302.1Q387.8 302.1 389.7 301.2Q391.5 300.3 393.3 298.1L393.3 298.1Q394.7 296.7 396.3 296.7L396.3 296.7Q397.8 296.7 398.9 297.6Q399.9 298.6 399.9 300.1L399.9 300.1Q399.9 301.1 399.3 302.3L399.3 302.3Q397.6 305.4 393.9 307.1Q390.2 308.9 385.4 308.9ZM377.8 287.9L377.8 287.9L392.0 287.9Q391.9 284.6 390.0 282.6Q388.0 280.7 385.0 280.7Q382.0 280.7 380.0 282.7Q378.1 284.7 377.8 287.9ZM413.4 307.6Q412.1 308.8 410.1 308.8Q408 308.8 406.8 307.6Q405.5 306.3 405.5 304.1L405.5 304.1L405.5 278.6Q405.5 276.4 406.7 275.2Q407.8 274.0 409.9 274.0Q412.0 274.0 413.2 275.2Q414.5 276.5 414.5 278.6L414.5 278.6L414.5 280.5L414.7 280.5Q417.4 274.0 425.0 274.0L425.0 274.0Q430.5 274.0 433.6 277.3Q436.6 280.6 436.6 286.6L436.6 286.6L436.6 304.1Q436.6 306.3 435.3 307.6Q434.1 308.8 432.0 308.8Q430.0 308.8 428.7 307.6Q427.5 306.3 427.5 304.1L427.5 304.1L427.5 288.5Q427.5 285.1 425.9 283.4Q424.3 281.6 421.3 281.6Q418.3 281.6 416.5 283.6Q414.6 285.6 414.6 288.9L414.6 288.9L414.6 304.1Q414.6 306.3 413.4 307.6ZM444.8 299.6L444.8 299.6L444.8 281.5L443.1 281.5Q441.4 281.5 440.5 280.6Q439.5 279.7 439.5 278.1Q439.5 276.5 440.5 275.6Q441.4 274.6 443.1 274.6L443.1 274.6L444.8 274.6L444.8 270.9Q444.8 268.7 446.0 267.4Q447.3 266.2 449.4 266.2Q451.5 266.2 452.7 267.4Q453.9 268.7 453.9 270.9L453.9 270.9L453.9 274.6L457.2 274.6Q458.8 274.6 459.7 275.6Q460.7 276.5 460.7 278.1Q460.7 279.6 459.7 280.6Q458.8 281.5 457.2 281.5L457.2 281.5L453.9 281.5L453.9 297.6Q453.9 299.3 454.6 300.1Q455.3 301.0 456.7 301.1L456.7 301.1L457.3 301.1Q459.1 301.3 459.9 302.1Q460.8 302.9 460.8 304.5L460.8 304.5Q460.8 306.4 459.0 307.5Q457.3 308.5 454.3 308.5L454.3 308.5L454 308.5Q444.8 308.5 444.8 299.6Z M486.0 269.1Q484.6 270.5 482.5 270.5Q480.4 270.5 479.0 269.1Q477.6 267.7 477.6 265.8L477.6 265.8Q477.6 263.8 479.0 262.4Q480.4 261.1 482.5 261.1Q484.6 261.1 486.0 262.4Q487.4 263.8 487.4 265.8L487.4 265.8Q487.4 267.7 486.0 269.1ZM485.8 307.5Q484.6 308.8 482.5 308.8Q480.4 308.8 479.2 307.5Q477.9 306.3 477.9 304.1L477.9 304.1L477.9 278.7Q477.9 276.5 479.2 275.2Q480.4 274.0 482.5 274.0Q484.6 274.0 485.8 275.2Q487.1 276.5 487.1 278.7L487.1 278.7L487.1 304.1Q487.1 306.3 485.8 307.5ZM501 307.6Q499.8 308.8 497.7 308.8Q495.6 308.8 494.4 307.6Q493.1 306.3 493.1 304.1L493.1 304.1L493.1 278.6Q493.1 276.4 494.3 275.2Q495.5 274.0 497.5 274.0Q499.6 274.0 500.8 275.2Q502.1 276.5 502.1 278.6L502.1 278.6L502.1 280.5L502.3 280.5Q505.0 274.0 512.6 274.0L512.6 274.0Q518.2 274.0 521.2 277.3Q524.2 280.6 524.2 286.6L524.2 286.6L524.2 304.1Q524.2 306.3 523.0 307.6Q521.7 308.8 519.7 308.8Q517.6 308.8 516.3 307.6Q515.1 306.3 515.1 304.1L515.1 304.1L515.1 288.5Q515.1 285.1 513.5 283.4Q512.0 281.6 508.9 281.6Q505.9 281.6 504.1 283.6Q502.3 285.6 502.3 288.9L502.3 288.9L502.3 304.1Q502.3 306.3 501 307.6Z M545.1 299.6L545.1 299.6L545.1 281.5L543.3 281.5Q541.7 281.5 540.8 280.6Q539.8 279.7 539.8 278.1Q539.8 276.5 540.8 275.6Q541.7 274.6 543.3 274.6L543.3 274.6L545.1 274.6L545.1 270.9Q545.1 268.7 546.3 267.4Q547.5 266.2 549.7 266.2Q551.8 266.2 553 267.4Q554.2 268.7 554.2 270.9L554.2 270.9L554.2 274.6L557.4 274.6Q559.1 274.6 560 275.6Q560.9 276.5 560.9 278.1Q560.9 279.6 560 280.6Q559.1 281.5 557.4 281.5L557.4 281.5L554.2 281.5L554.2 297.6Q554.2 299.3 554.9 300.1Q555.5 301.0 557 301.1L557 301.1L557.6 301.1Q559.3 301.3 560.2 302.1Q561.1 302.9 561.1 304.5L561.1 304.5Q561.1 306.4 559.3 307.5Q557.6 308.5 554.6 308.5L554.6 308.5L554.3 308.5Q545.1 308.5 545.1 299.6ZM573.5 307.6Q572.3 308.8 570.2 308.8Q568.1 308.8 566.9 307.6Q565.6 306.3 565.6 304.1L565.6 304.1L565.6 267.1Q565.6 264.9 566.8 263.6Q568 262.4 570.1 262.4L570.1 262.4Q572.2 262.4 573.4 263.6Q574.6 264.8 574.6 267.1L574.6 267.1L574.6 280.6L574.8 280.6Q576.1 277.4 578.8 275.7Q581.5 274.0 585.3 274.0L585.3 274.0Q590.8 274.0 593.9 277.4Q597 280.7 597 286.6L597 286.6L597 304.1Q597 306.3 595.8 307.6Q594.5 308.8 592.4 308.8Q590.4 308.8 589.1 307.6Q587.9 306.3 587.9 304.1L587.9 304.1L587.9 288.5Q587.9 285.2 586.3 283.4Q584.7 281.6 581.6 281.6L581.6 281.6Q578.4 281.6 576.6 283.6Q574.8 285.7 574.8 289.0L574.8 289.0L574.8 304.1Q574.8 306.3 573.5 307.6ZM618.2 308.9L618.2 308.9Q610.4 308.9 606.0 304.3Q601.6 299.7 601.6 291.6L601.6 291.6Q601.6 283.5 606.0 278.7Q610.3 273.9 617.8 273.9L617.8 273.9Q624.9 273.9 629.3 278.3Q633.7 282.6 633.7 289.5L633.7 289.5Q633.7 291.4 632.6 292.5Q631.6 293.5 629.7 293.5L629.7 293.5L610.6 293.5L610.6 293.9Q610.6 297.6 612.6 299.9Q614.7 302.1 618.2 302.1L618.2 302.1Q620.7 302.1 622.5 301.2Q624.3 300.3 626.2 298.1L626.2 298.1Q627.5 296.7 629.2 296.7L629.2 296.7Q630.7 296.7 631.7 297.6Q632.7 298.6 632.7 300.1L632.7 300.1Q632.7 301.1 632.1 302.3L632.1 302.3Q630.4 305.4 626.8 307.1Q623.1 308.9 618.2 308.9ZM610.7 287.9L610.7 287.9L624.9 287.9Q624.8 284.6 622.8 282.6Q620.9 280.7 617.9 280.7Q614.9 280.7 612.9 282.7Q610.9 284.7 610.7 287.9Z M671.9 308.9L671.9 308.9Q661.8 308.9 656.1 302.7Q650.4 296.5 650.4 285.6L650.4 285.6Q650.4 274.7 656.1 268.5Q661.8 262.3 671.6 262.3L671.6 262.3Q677.9 262.3 682.7 265.0Q687.4 267.6 689.7 272.5L689.7 272.5Q690.6 274.3 690.6 276.1L690.6 276.1Q690.6 277.9 689.5 279.0Q688.3 280.1 686.5 280.1L686.5 280.1Q684.9 280.1 683.8 279.4Q682.8 278.6 682.0 277.0L682.0 277.0Q680.4 273.6 677.8 271.8Q675.2 270.1 671.7 270.1L671.7 270.1Q666.4 270.1 663.2 274.3Q660 278.5 660 285.6L660 285.6Q660 292.8 663.2 296.9Q666.3 301.1 671.8 301.1L671.8 301.1Q679.1 301.1 682.1 294.4L682.1 294.4Q682.8 292.8 683.8 292.1Q684.8 291.5 686.3 291.5L686.3 291.5Q688.3 291.5 689.5 292.6Q690.7 293.8 690.7 295.6L690.7 295.6Q690.7 297.1 689.9 298.8L689.9 298.8Q687.8 303.5 683.0 306.2Q678.3 308.9 671.9 308.9ZM706.5 308.7L706.5 308.7Q701.7 308.7 698.5 305.8Q695.3 303.0 695.3 298.5L695.3 298.5Q695.3 294.0 698.7 291.4Q702.0 288.8 708.3 288.4L708.3 288.4L716.8 287.9L716.8 285.7Q716.8 283.4 715.3 282.1Q713.8 280.7 711.2 280.7L711.2 280.7Q709.1 280.7 707.6 281.5Q706.2 282.3 704.7 284.3L704.7 284.3Q703.2 286.0 701.0 286.0L701.0 286.0Q699.4 286.0 698.3 285.0Q697.2 284.0 697.2 282.5L697.2 282.5Q697.2 281.4 697.7 280.4L697.7 280.4Q698.8 277.4 702.6 275.7Q706.3 273.9 711.6 273.9L711.6 273.9Q718 273.9 721.9 277.0Q725.8 280.1 725.8 285.1L725.8 285.1L725.8 304.2Q725.8 306.4 724.5 307.6Q723.3 308.8 721.3 308.8L721.3 308.8Q719.4 308.8 718.2 307.8Q717.1 306.7 716.9 304.7L716.9 304.7L716.9 303.0L716.8 303.0Q715.4 305.6 712.5 307.2Q709.7 308.7 706.5 308.7ZM709.5 302.1L709.5 302.1Q712.5 302.1 714.7 300.3Q716.8 298.6 716.8 295.9L716.8 295.9L716.8 293.4L709.7 293.9Q707.2 294.1 705.8 295.1Q704.4 296.2 704.4 298.0L704.4 298.0Q704.4 299.9 705.8 301.0Q707.2 302.1 709.5 302.1ZM736.2 308.8L736.2 308.8Q734.1 308.8 732.9 307.6Q731.6 306.3 731.6 304.1L731.6 304.1L731.6 278.6Q731.6 276.4 732.8 275.2Q734.0 274.0 736.0 274.0L736.0 274.0Q738.0 274.0 739.2 275.2Q740.3 276.4 740.3 278.6L740.3 278.6L740.3 280.7L740.5 280.7Q741.2 277.6 743.1 275.9Q745.0 274.1 747.5 274.1L747.5 274.1Q749.3 274.1 750.3 275.0L750.3 275.0Q751.7 276.0 751.7 278.3L751.7 278.3Q751.7 280.5 750.3 281.6L750.3 281.6Q749 282.8 746.4 282.8L746.4 282.8Q743.4 282.8 742.1 284.4Q740.8 286.1 740.8 289.2L740.8 289.2L740.8 304.1Q740.8 306.3 739.5 307.6Q738.3 308.8 736.2 308.8ZM770.3 308.9L770.3 308.9Q762.5 308.9 758.1 304.3Q753.7 299.7 753.7 291.6L753.7 291.6Q753.7 283.5 758.1 278.7Q762.4 273.9 769.9 273.9L769.9 273.9Q777.0 273.9 781.4 278.3Q785.8 282.6 785.8 289.5L785.8 289.5Q785.8 291.4 784.7 292.5Q783.7 293.5 781.8 293.5L781.8 293.5L762.7 293.5L762.7 293.9Q762.7 297.6 764.7 299.9Q766.8 302.1 770.3 302.1L770.3 302.1Q772.8 302.1 774.6 301.2Q776.4 300.3 778.3 298.1L778.3 298.1Q779.6 296.7 781.3 296.7L781.3 296.7Q782.8 296.7 783.8 297.6Q784.8 298.6 784.8 300.1L784.8 300.1Q784.8 301.1 784.2 302.3L784.2 302.3Q782.5 305.4 778.8 307.1Q775.2 308.9 770.3 308.9ZM762.8 287.9L762.8 287.9L777.0 287.9Q776.8 284.6 774.9 282.6Q773.0 280.7 770.0 280.7Q767.0 280.7 765.0 282.7Q763 284.7 762.8 287.9ZM805.4 320.7L805.4 320.7Q800.4 320.7 796.7 319.0Q793 317.3 791.3 314.6L791.3 314.6Q790.6 313.4 790.6 312.1L790.6 312.1Q790.6 310.6 791.6 309.6Q792.7 308.7 794.3 308.7L794.3 308.7Q796.1 308.7 797.5 310.0L797.5 310.0Q801.3 313.6 805.4 313.7L805.4 313.7Q809.1 313.7 811.2 311.8Q813.3 310.0 813.3 306.8L813.3 306.8L813.3 301.4L813.1 301.4Q811.9 304.1 809.2 305.8Q806.4 307.4 802.8 307.4L802.8 307.4Q796.6 307.4 792.9 303.0Q789.2 298.5 789.2 290.8L789.2 290.8Q789.2 283.0 792.9 278.5Q796.5 274.1 803.0 274.1L803.0 274.1Q806.5 274.1 809.2 275.8Q811.8 277.5 813.2 280.4L813.2 280.4L813.4 280.4L813.4 278.6Q813.4 276.3 814.6 275.1Q815.9 274.0 818.0 274.0L818.0 274.0Q820 274.0 821.3 275.1Q822.5 276.3 822.5 278.6L822.5 278.6L822.5 306.8Q822.5 313.4 818.0 317.1Q813.5 320.8 805.4 320.7ZM805.9 300.6L805.9 300.6Q809.3 300.6 811.4 298.1Q813.4 295.5 813.4 291.0Q813.4 286.4 811.4 283.7Q809.3 281.1 805.9 281.1L805.9 281.1Q802.5 281.1 800.5 283.7Q798.6 286.4 798.6 290.9L798.6 290.9Q798.6 295.5 800.5 298.1Q802.5 300.6 805.9 300.6ZM836.6 269.1Q835.2 270.5 833.1 270.5Q831.1 270.5 829.7 269.1Q828.3 267.7 828.3 265.8L828.3 265.8Q828.3 263.8 829.7 262.4Q831.1 261.1 833.1 261.1Q835.2 261.1 836.6 262.4Q838 263.8 838 265.8L838 265.8Q838 267.7 836.6 269.1ZM836.5 307.5Q835.3 308.8 833.1 308.8Q831 308.8 829.8 307.5Q828.6 306.3 828.6 304.1L828.6 304.1L828.6 278.7Q828.6 276.5 829.8 275.2Q831 274.0 833.1 274.0Q835.3 274.0 836.5 275.2Q837.7 276.5 837.7 278.7L837.7 278.7L837.7 304.1Q837.7 306.3 836.5 307.5ZM857.8 308.8L857.8 308.8Q855.2 308.8 853.7 307.7Q852.2 306.6 851.2 304.1L851.2 304.1L842.5 280.8Q842 279.3 842 278.1L842 278.1Q842 276.2 843.3 275.1Q844.6 274.0 846.6 274.0L846.6 274.0Q849.9 274.0 850.9 277.6L850.9 277.6L857.7 300.1L857.9 300.1L864.7 277.5Q865.6 274.0 869.0 274.0L869.0 274.0Q870.9 274.0 872.1 275.1Q873.4 276.3 873.4 278.0L873.4 278.0Q873.4 279.2 872.9 280.6L872.9 280.6L864.2 304.1Q863.3 306.6 861.8 307.7Q860.3 308.8 857.8 308.8ZM885.7 269.1Q884.3 270.5 882.3 270.5Q880.2 270.5 878.8 269.1Q877.4 267.7 877.4 265.8L877.4 265.8Q877.4 263.8 878.8 262.4Q880.2 261.1 882.3 261.1Q884.3 261.1 885.7 262.4Q887.1 263.8 887.1 265.8L887.1 265.8Q887.1 267.7 885.7 269.1ZM885.6 307.5Q884.4 308.8 882.3 308.8Q880.1 308.8 878.9 307.5Q877.7 306.3 877.7 304.1L877.7 304.1L877.7 278.7Q877.7 276.5 878.9 275.2Q880.1 274.0 882.3 274.0Q884.4 274.0 885.6 275.2Q886.8 276.5 886.8 278.7L886.8 278.7L886.8 304.1Q886.8 306.3 885.6 307.5ZM900.8 307.6Q899.5 308.8 897.4 308.8Q895.4 308.8 894.1 307.6Q892.9 306.3 892.9 304.1L892.9 304.1L892.9 278.6Q892.9 276.4 894.0 275.2Q895.2 274.0 897.3 274.0Q899.3 274.0 900.6 275.2Q901.8 276.5 901.8 278.6L901.8 278.6L901.8 280.5L902.0 280.5Q904.8 274.0 912.3 274.0L912.3 274.0Q917.9 274.0 920.9 277.3Q924.0 280.6 924.0 286.6L924.0 286.6L924.0 304.1Q924.0 306.3 922.7 307.6Q921.5 308.8 919.4 308.8Q917.3 308.8 916.1 307.6Q914.8 306.3 914.8 304.1L914.8 304.1L914.8 288.5Q914.8 285.1 913.3 283.4Q911.7 281.6 908.7 281.6Q905.7 281.6 903.8 283.6Q902 285.6 902 288.9L902 288.9L902 304.1Q902 306.3 900.8 307.6ZM944.7 320.7L944.7 320.7Q939.8 320.7 936.0 319.0Q932.3 317.3 930.6 314.6L930.6 314.6Q929.9 313.4 929.9 312.1L929.9 312.1Q929.9 310.6 931.0 309.6Q932.0 308.7 933.7 308.7L933.7 308.7Q935.4 308.7 936.8 310.0L936.8 310.0Q940.6 313.6 944.7 313.7L944.7 313.7Q948.4 313.7 950.5 311.8Q952.6 310.0 952.6 306.8L952.6 306.8L952.6 301.4L952.4 301.4Q951.3 304.1 948.5 305.8Q945.7 307.4 942.1 307.4L942.1 307.4Q935.9 307.4 932.2 303.0Q928.5 298.5 928.5 290.8L928.5 290.8Q928.5 283.0 932.2 278.5Q935.8 274.1 942.3 274.1L942.3 274.1Q945.8 274.1 948.5 275.8Q951.2 277.5 952.5 280.4L952.5 280.4L952.7 280.4L952.7 278.6Q952.7 276.3 954.0 275.1Q955.2 274.0 957.3 274.0L957.3 274.0Q959.3 274.0 960.6 275.1Q961.8 276.3 961.8 278.6L961.8 278.6L961.8 306.8Q961.8 313.4 957.3 317.1Q952.8 320.8 944.7 320.7ZM945.2 300.6L945.2 300.6Q948.7 300.6 950.7 298.1Q952.7 295.5 952.7 291.0Q952.7 286.4 950.7 283.7Q948.7 281.1 945.2 281.1L945.2 281.1Q941.8 281.1 939.9 283.7Q937.9 286.4 937.9 290.9L937.9 290.9Q937.9 295.5 939.8 298.1Q941.8 300.6 945.2 300.6Z M93.0 381.8L80.5 381.8Q78.3 381.8 77 380.5Q75.8 379.2 75.8 376.8L75.8 376.8L75.8 341.6Q75.8 339.3 77 338.0Q78.3 336.7 80.5 336.7L80.5 336.7L93.0 336.7Q103.2 336.7 108.8 342.5Q114.5 348.3 114.5 359.0L114.5 359.0Q114.5 369.8 108.8 375.8Q103.1 381.8 93.0 381.8L93.0 381.8ZM85.2 344.4L85.2 373.9L91.8 373.9Q98.2 373.9 101.5 370.1Q104.8 366.3 104.8 359.1L104.8 359.1Q104.8 352 101.5 348.2Q98.1 344.4 91.8 344.4L91.8 344.4L85.2 344.4ZM147.3 377.8Q142.8 382.5 135.1 382.5Q127.5 382.5 123 377.8Q118.5 373.2 118.5 365.0L118.5 365.0Q118.5 356.9 123.0 352.2Q127.6 347.5 135.1 347.5L135.1 347.5Q142.7 347.5 147.2 352.2Q151.7 356.9 151.7 365.0L151.7 365.0Q151.7 373.2 147.3 377.8ZM135.1 375.5L135.1 375.5Q138.5 375.5 140.5 372.8Q142.4 370 142.4 365L142.4 365Q142.4 360.1 140.5 357.3Q138.5 354.5 135.1 354.5Q131.8 354.5 129.8 357.3Q127.8 360.1 127.8 365L127.8 365Q127.8 370 129.8 372.8Q131.7 375.5 135.1 375.5ZM161.0 382.4L161.0 382.4Q158.9 382.4 157.6 381.2Q156.4 379.9 156.4 377.7L156.4 377.7L156.4 352.2Q156.4 350.0 157.6 348.8Q158.8 347.6 160.8 347.6Q162.8 347.6 164.0 348.8Q165.2 350.0 165.2 352.2L165.2 352.2L165.2 354.3L165.4 354.3Q166.5 351.3 169.0 349.4Q171.6 347.6 175.0 347.6L175.0 347.6Q178.6 347.6 181.0 349.4Q183.5 351.2 184.3 354.5L184.3 354.5L184.5 354.5Q185.6 351.3 188.4 349.5Q191.2 347.6 194.9 347.6L194.9 347.6Q199.8 347.6 202.9 350.7Q205.9 353.8 205.9 358.9L205.9 358.9L205.9 377.7Q205.9 379.9 204.6 381.2Q203.4 382.4 201.3 382.4L201.3 382.4Q199.2 382.4 198.0 381.2Q196.8 379.9 196.8 377.7L196.8 377.7L196.8 361.2Q196.8 358.3 195.3 356.7Q193.9 355.2 191.3 355.2L191.3 355.2Q188.7 355.2 187.1 356.9Q185.5 358.6 185.5 361.4L185.5 361.4L185.5 377.7Q185.5 379.9 184.4 381.2Q183.2 382.4 181.1 382.4L181.1 382.4Q179.1 382.4 177.9 381.2Q176.8 379.9 176.8 377.7L176.8 377.7L176.8 360.9Q176.8 358.2 175.3 356.7Q173.9 355.2 171.3 355.2L171.3 355.2Q168.8 355.2 167.1 356.9Q165.5 358.7 165.5 361.5L165.5 361.5L165.5 377.7Q165.5 379.9 164.3 381.2Q163.0 382.4 161.0 382.4ZM221.6 382.3L221.6 382.3Q216.7 382.3 213.5 379.4Q210.3 376.6 210.3 372.1L210.3 372.1Q210.3 367.6 213.7 365.0Q217.1 362.4 223.4 362L223.4 362L231.8 361.5L231.8 359.3Q231.8 357.0 230.3 355.7Q228.8 354.3 226.2 354.3L226.2 354.3Q224.1 354.3 222.7 355.1Q221.3 355.9 219.7 357.9L219.7 357.9Q218.2 359.6 216.1 359.6L216.1 359.6Q214.4 359.6 213.4 358.6Q212.3 357.6 212.3 356.1L212.3 356.1Q212.3 355.0 212.8 354L212.8 354Q213.9 351 217.7 349.3Q221.4 347.5 226.6 347.5L226.6 347.5Q233.1 347.5 236.9 350.6Q240.8 353.7 240.8 358.7L240.8 358.7L240.8 377.8Q240.8 380.0 239.6 381.2Q238.4 382.4 236.4 382.4L236.4 382.4Q234.5 382.4 233.3 381.4Q232.1 380.3 232 378.3L232 378.3L232 376.6L231.8 376.6Q230.4 379.3 227.6 380.8Q224.8 382.3 221.6 382.3ZM224.6 375.7L224.6 375.7Q227.6 375.7 229.7 373.9Q231.8 372.2 231.8 369.5L231.8 369.5L231.8 367.0L224.8 367.5Q222.2 367.7 220.8 368.8Q219.4 369.8 219.4 371.6L219.4 371.6Q219.4 373.5 220.8 374.6Q222.3 375.7 224.6 375.7ZM254.9 342.7Q253.5 344.1 251.4 344.1Q249.3 344.1 247.9 342.7Q246.5 341.3 246.5 339.4L246.5 339.4Q246.5 337.4 247.9 336.0Q249.3 334.7 251.4 334.7Q253.5 334.7 254.9 336.0Q256.3 337.4 256.3 339.4L256.3 339.4Q256.3 341.3 254.9 342.7ZM254.8 381.1Q253.5 382.4 251.4 382.4Q249.3 382.4 248.1 381.1Q246.8 379.9 246.8 377.7L246.8 377.7L246.8 352.3Q246.8 350.1 248.1 348.8Q249.3 347.6 251.4 347.6Q253.5 347.6 254.8 348.8Q256.0 350.1 256.0 352.3L256.0 352.3L256.0 377.7Q256.0 379.9 254.8 381.1ZM269.9 381.2Q268.7 382.4 266.6 382.4Q264.5 382.4 263.3 381.2Q262.0 379.9 262.0 377.7L262.0 377.7L262.0 352.2Q262.0 350.0 263.2 348.8Q264.4 347.6 266.4 347.6Q268.5 347.6 269.8 348.8Q271 350.1 271 352.2L271 352.2L271 354.1L271.2 354.1Q273.9 347.6 281.5 347.6L281.5 347.6Q287.1 347.6 290.1 350.9Q293.1 354.3 293.1 360.2L293.1 360.2L293.1 377.7Q293.1 379.9 291.9 381.2Q290.6 382.4 288.6 382.4Q286.5 382.4 285.3 381.2Q284 379.9 284 377.7L284 377.7L284 362.1Q284 358.8 282.4 357.0Q280.9 355.2 277.8 355.2Q274.8 355.2 273.0 357.2Q271.2 359.3 271.2 362.5L271.2 362.5L271.2 377.7Q271.2 379.9 269.9 381.2Z " clip-path="url(#satori_cp-id-0)" mask="url(#satori_om-id-0)"/><defs><clipPath id="satori_bc-id-0-1" clip-path="url(#satori_cp-id-0)"><rect x="0" y="509" width="1200" height="121"/></clipPath></defs><mask id="satori_om-id-0-1"><rect x="0" y="510" width="1200" height="120" fill="#fff" mask="url(#satori_om-id-0)"/><path width="1200" height="121" fill="none" stroke="#000" stroke-width="2" d="M0,509 A0,0 0 0 1 0,509 h1200 A0,0 0 0 1 1200,509"/></mask><path width="1200" height="121" clip-path="url(#satori_bc-id-0-1)" fill="none" stroke="rgba(0,0,0,0.08)" stroke-width="2" d="M0,509 A0,0 0 0 1 0,509 h1200 A0,0 0 0 1 1200,509"/><mask id="satori_om-id-0-1-0"><rect x="48" y="538" width="228" height="64" fill="#fff" mask="url(#satori_om-id-0)"/></mask><mask id="satori_om-id-0-1-0-0"><rect x="48" y="538" width="72" height="64" fill="#fff" mask="url(#satori_om-id-0)"/></mask><clipPath id="satori_cp-id-0-1-0-0-0" clip-path="url(#satori_cp-id-0)"><rect x="48" y="538" width="72" height="64"/></clipPath><mask id="satori_om-id-0-1-0-0-0"><rect x="48" y="538" width="72" height="64" fill="#fff" mask="url(#satori_om-id-0)"/></mask><image x="48" y="538" width="72" height="64" href="data:image/svg+xml;utf8,%3Csvg  xmlns=%22http://www.w3.org/2000/svg%22 width=%2273.60461760461762%22 height=%2264%22 viewBox=%220 0 797 693%22%3E%3Cg transform=%22matrix(1,0,0,1,-345,-96.5)%22%3E%3Cpath d=%22M756.942,197.15L756.942,474C701.751,474 656.942,518.808 656.942,574C656.942,629.192 701.751,674 756.942,674L756.942,777L495.122,777C443.175,777 401,734.825 401,682.878L401,614L364.755,614C353.852,614 345,605.148 345,594.245L345,436.814C345,425.878 353.878,417 364.814,417L401,417L401,365.122C401,313.175 443.175,271 495.122,271L715.058,271L715.058,197.15C696.492,189.056 683.5,170.533 683.5,149C683.5,120.024 707.024,96.5 736,96.5C764.976,96.5 788.5,120.024 788.5,149C788.5,170.533 775.508,189.056 756.942,197.15ZM559,388C520.918,388 490,418.918 490,457C490,495.082 520.918,526 559,526C597.082,526 628,495.082 628,457C628,418.918 597.082,388 559,388Z%22 fill=%22%23ad47ff%22%3E%3C/path%3E%3Cg transform=%22matrix(-1,1.22465e-16,-1.22465e-16,-1,1486.06,1043)%22%3E%3Cpath d=%22M401,417L401,348.122C401,296.175 443.175,254 495.122,254L705.058,254L705.058,357C760.249,357 805.058,401.808 805.058,457C805.058,512.192 760.249,557 705.058,557L705.058,760L495.122,760C443.175,760 401,717.825 401,665.878L401,614L364.755,614C353.852,614 345,605.148 345,594.245L345,436.814C345,425.878 353.878,417 364.814,417L401,417ZM552,643C590.082,643 621,612.082 621,574C621,535.918 590.082,505 552,505C513.918,505 483,535.918 483,574C483,612.082 513.918,643 552,643Z%22 fill=%22%2300d5bd%22%3E%3C/path%3E%3C/g%3E%3C/g%3E%3C/svg%3E" preserveAspectRatio="none" clip-path="url(#satori_cp-id-0-1-0-0-0)" mask="url(#satori_om-id-0-1-0-0-0)"/><mask id="satori_om-id-0-1-0-0-0-0"><rect x="48" y="538" width="0" height="64" fill="#fff" mask="url(#satori_om-id-0)"/></mask><mask id="satori_om-id-0-1-0-0-0-0-0"><rect x="48" y="538" width="0" height="64" fill="#fff" mask="url(#satori_om-id-0)"/></mask><mask id="satori_om-id-0-1-0-0-0-0-1"><rect x="48" y="538" width="0" height="64" fill="#fff" mask="url(#satori_om-id-0)"/></mask><mask id="satori_om-id-0-1-0-0-0-0-1-0"><rect x="48" y="538" width="0" height="64" fill="#fff" mask="url(#satori_om-id-0)"/></mask><mask id="satori_om-id-0-1-0-1"><rect x="138" y="540" width="138" height="60" fill="#fff" mask="url(#satori_om-id-0)"/></mask><mask id="satori_om-id-0-1-0-1-0"><rect x="138" y="540" width="138" height="36" fill="#fff" mask="url(#satori_om-id-0)"/></mask><path fill="#0f172a" d="M150.7 571.2L150.7 571.2Q145.9 571.2 143.0 568.6Q140.1 566.1 140.1 561.8L140.1 561.8L140.1 547.9Q140.1 546.5 140.8 545.8Q141.5 545.1 142.8 545.1Q144.0 545.1 144.7 545.8Q145.4 546.5 145.4 547.9L145.4 547.9L145.4 561.3Q145.4 563.8 146.8 565.2Q148.2 566.7 150.7 566.7L150.7 566.7Q153.3 566.7 154.7 565.2Q156.1 563.8 156.1 561.3L156.1 561.3L156.1 547.9Q156.1 546.5 156.8 545.8Q157.5 545.1 158.7 545.1Q160.0 545.1 160.7 545.8Q161.4 546.5 161.4 547.9L161.4 547.9L161.4 561.8Q161.4 566.1 158.5 568.6Q155.6 571.2 150.7 571.2ZM170.2 570.4Q169.5 571.2 168.2 571.2Q167.0 571.2 166.3 570.4Q165.6 569.7 165.6 568.4L165.6 568.4L165.6 548.2Q165.6 546.9 166.3 546.2Q167.0 545.4 168.2 545.4L168.2 545.4L176.0 545.4Q180.3 545.4 182.7 547.6Q185.1 549.7 185.1 553.5L185.1 553.5Q185.1 555.9 184.0 557.8Q182.9 559.7 180.8 560.6L180.8 560.6L184.4 566.9Q185.0 567.9 185.0 568.7L185.0 568.7Q185.0 569.8 184.2 570.5Q183.5 571.2 182.3 571.2L182.3 571.2Q181.4 571.2 180.8 570.8Q180.3 570.3 179.6 569.2L179.6 569.2L175.4 561.5L170.9 561.5L170.9 568.4Q170.9 569.7 170.2 570.4ZM170.9 549.6L170.9 557.7L175.5 557.7Q177.5 557.7 178.6 556.6Q179.7 555.5 179.7 553.6L179.7 553.6Q179.7 551.8 178.5 550.7Q177.4 549.6 175.4 549.6L175.4 549.6L170.9 549.6ZM198.1 562.7L190.8 562.7Q189.7 562.7 189.1 562.1Q188.4 561.5 188.4 560.5Q188.4 559.4 189.1 558.8Q189.7 558.2 190.8 558.2L190.8 558.2L198.1 558.2Q199.2 558.2 199.9 558.8Q200.6 559.4 200.6 560.5Q200.6 561.5 199.9 562.1Q199.2 562.7 198.1 562.7L198.1 562.7ZM209.1 570.4Q208.4 571.2 207.2 571.2Q205.9 571.2 205.2 570.4Q204.5 569.7 204.5 568.4L204.5 568.4L204.5 548.2Q204.5 546.9 205.2 546.2Q205.9 545.4 207.2 545.4L207.2 545.4L214.9 545.4Q219.3 545.4 221.7 547.6Q224.1 549.7 224.1 553.5L224.1 553.5Q224.1 555.9 223.0 557.8Q221.8 559.7 219.7 560.6L219.7 560.6L223.4 566.9Q224.0 567.9 224.0 568.7L224.0 568.7Q224.0 569.8 223.2 570.5Q222.4 571.2 221.3 571.2L221.3 571.2Q220.3 571.2 219.8 570.8Q219.2 570.3 218.6 569.2L218.6 569.2L214.4 561.5L209.8 561.5L209.8 568.4Q209.8 569.7 209.1 570.4ZM209.8 549.6L209.8 557.7L214.4 557.7Q216.4 557.7 217.5 556.6Q218.6 555.5 218.6 553.6L218.6 553.6Q218.6 551.8 217.5 550.7Q216.3 549.6 214.4 549.6L214.4 549.6L209.8 549.6ZM229.3 571.1L229.3 571.1Q228.0 571.1 227.3 570.5Q226.6 569.8 226.6 568.6L226.6 568.6Q226.6 567.9 226.9 566.9L226.9 566.9L233.9 548.1Q234.4 546.5 235.4 545.8Q236.3 545.1 237.8 545.1L237.8 545.1Q239.4 545.1 240.4 545.8Q241.3 546.5 241.9 548.1L241.9 548.1L248.9 566.9Q249.2 567.9 249.2 568.6L249.2 568.6Q249.2 569.7 248.5 570.4Q247.7 571.1 246.5 571.1L246.5 571.1Q245.4 571.1 244.8 570.6Q244.1 570.0 243.8 568.8L243.8 568.8L242.4 564.8L233.3 564.8L232.0 568.7Q231.6 570.0 231.0 570.6Q230.3 571.1 229.3 571.1ZM237.7 550.3L234.5 560.7L241.2 560.7L237.9 550.3L237.7 550.3ZM262.1 570.8L255.1 570.8Q253.8 570.8 253.1 570.1Q252.4 569.3 252.4 568.0L252.4 568.0L252.4 548.2Q252.4 546.9 253.1 546.2Q253.8 545.4 255.1 545.4L255.1 545.4L262.1 545.4Q267.8 545.4 271.0 548.7Q274.2 552.0 274.2 558.0L274.2 558.0Q274.2 564.0 271.0 567.4Q267.8 570.8 262.1 570.8L262.1 570.8ZM257.7 549.8L257.7 566.4L261.5 566.4Q265.0 566.4 266.9 564.3Q268.8 562.1 268.8 558.0L268.8 558.0Q268.8 554.1 266.9 551.9Q265.0 549.8 261.5 549.8L261.5 549.8L257.7 549.8Z " clip-path="url(#satori_cp-id-0)" mask="url(#satori_om-id-0)"/><mask id="satori_om-id-0-1-0-1-1"><rect x="138" y="576" width="138" height="24" fill="#fff" mask="url(#satori_om-id-0)"/></mask><path fill="#334155" d="M145.0 595.3L145.0 595.3Q142.4 595.3 140.8 593.8Q139.2 592.4 139.2 590.1L139.2 590.1L139.2 582.1Q139.2 581.5 139.6 581.1Q139.9 580.8 140.5 580.8L140.5 580.8Q141.1 580.8 141.4 581.1Q141.8 581.5 141.8 582.1L141.8 582.1L141.8 589.8Q141.8 591.3 142.6 592.2Q143.5 593.1 145.0 593.1Q146.6 593.1 147.4 592.2Q148.3 591.3 148.3 589.8L148.3 589.8L148.3 582.1Q148.3 581.5 148.6 581.1Q149.0 580.8 149.6 580.8L149.6 580.8Q150.2 580.8 150.5 581.1Q150.8 581.5 150.8 582.1L150.8 582.1L150.8 590.1Q150.8 592.4 149.3 593.8Q147.7 595.3 145.0 595.3ZM155.5 594.9Q155.2 595.2 154.6 595.2Q154.0 595.2 153.6 594.9Q153.3 594.5 153.3 593.9L153.3 593.9L153.3 582.3Q153.3 581.6 153.6 581.3Q154.0 581.0 154.6 581.0L154.6 581.0L158.9 581.0Q161.2 581.0 162.5 582.1Q163.8 583.3 163.8 585.3L163.8 585.3Q163.8 586.7 163.1 587.8Q162.4 588.8 161.2 589.3L161.2 589.3L163.4 593.2Q163.7 593.7 163.7 594.1L163.7 594.1Q163.7 594.6 163.4 594.9Q163.0 595.2 162.4 595.2L162.4 595.2Q162.0 595.2 161.7 595.0Q161.5 594.8 161.2 594.3L161.2 594.3L158.7 589.7L155.8 589.7L155.8 593.9Q155.8 594.5 155.5 594.9ZM155.8 583.0L155.8 587.8L158.7 587.8Q159.9 587.8 160.5 587.2Q161.2 586.5 161.2 585.4L161.2 585.4Q161.2 584.3 160.5 583.6Q159.8 583.0 158.6 583.0L158.6 583.0L155.8 583.0ZM171.1 590.4L166.7 590.4Q166.2 590.4 165.9 590.1Q165.6 589.8 165.6 589.3Q165.6 588.8 165.9 588.5Q166.2 588.2 166.7 588.2L166.7 588.2L171.1 588.2Q171.7 588.2 172.0 588.5Q172.3 588.8 172.3 589.3Q172.3 589.8 172.0 590.1Q171.7 590.4 171.1 590.4L171.1 590.4ZM176.7 594.9Q176.4 595.2 175.8 595.2Q175.2 595.2 174.9 594.9Q174.6 594.5 174.6 593.9L174.6 593.9L174.6 582.3Q174.6 581.6 174.9 581.3Q175.2 581.0 175.8 581.0L175.8 581.0L180.1 581.0Q182.4 581.0 183.7 582.1Q185.0 583.3 185.0 585.3L185.0 585.3Q185.0 586.7 184.3 587.8Q183.7 588.8 182.5 589.3L182.5 589.3L184.7 593.2Q185.0 593.7 185.0 594.1L185.0 594.1Q185.0 594.6 184.6 594.9Q184.2 595.2 183.7 595.2L183.7 595.2Q183.2 595.2 183.0 595.0Q182.7 594.8 182.4 594.3L182.4 594.3L179.9 589.7L177.1 589.7L177.1 593.9Q177.1 594.5 176.7 594.9ZM177.1 583.0L177.1 587.8L179.9 587.8Q181.1 587.8 181.8 587.2Q182.4 586.5 182.4 585.4L182.4 585.4Q182.4 584.3 181.8 583.6Q181.1 583.0 179.9 583.0L179.9 583.0L177.1 583.0ZM187.7 595.2L187.7 595.2Q187.1 595.2 186.7 594.9Q186.4 594.6 186.4 594.0L186.4 594.0Q186.4 593.7 186.6 593.3L186.6 593.3L190.7 582.2Q190.9 581.4 191.4 581.1Q191.8 580.8 192.5 580.8L192.5 580.8Q193.2 580.8 193.6 581.1Q194.1 581.4 194.3 582.1L194.3 582.1L198.4 593.3Q198.6 593.7 198.6 594.0L198.6 594.0Q198.6 594.6 198.2 594.9Q197.9 595.2 197.3 595.2L197.3 595.2Q196.8 595.2 196.5 595.0Q196.2 594.7 196.0 594.1L196.0 594.1L195.1 591.4L189.9 591.4L188.9 594.1Q188.8 594.7 188.5 595.0Q188.2 595.2 187.7 595.2ZM192.4 583.4L190.5 589.5L194.5 589.5L192.5 583.4L192.4 583.4ZM205.6 595.0L201.7 595.0Q201.1 595.0 200.8 594.7Q200.4 594.3 200.4 593.7L200.4 593.7L200.4 582.3Q200.4 581.6 200.8 581.3Q201.1 581.0 201.7 581.0L201.7 581.0L205.6 581.0Q208.7 581.0 210.5 582.8Q212.3 584.6 212.3 588.0L212.3 588.0Q212.3 591.3 210.5 593.2Q208.7 595.0 205.6 595.0L205.6 595.0ZM202.9 583.1L202.9 592.9L205.3 592.9Q207.4 592.9 208.6 591.6Q209.7 590.4 209.7 588.0L209.7 588.0Q209.7 585.6 208.6 584.3Q207.4 583.1 205.3 583.1L205.3 583.1L202.9 583.1Z M227.0 595.0L219.2 595.0Q218.7 595.0 218.3 594.8Q218.0 594.5 218.0 594.0L218.0 594.0Q218.0 593.6 218.2 593.3Q218.3 593.1 218.7 592.7L218.7 592.7L223.0 588.4Q224.4 587.1 224.8 586.4Q225.3 585.7 225.3 584.9L225.3 584.9Q225.3 583.9 224.6 583.3Q224.0 582.7 223.0 582.7L223.0 582.7Q221.1 582.7 220.3 584.6L220.3 584.6Q220.1 585.0 219.9 585.2Q219.6 585.4 219.2 585.4L219.2 585.4Q218.7 585.4 218.4 585.1Q218.1 584.8 218.1 584.3L218.1 584.3Q218.1 584.1 218.2 583.8L218.2 583.8Q218.3 583.2 218.7 582.7Q219.1 582.1 219.7 581.7Q220.3 581.2 221.1 580.9Q222.0 580.7 223.0 580.7L223.0 580.7Q225.1 580.7 226.4 581.8Q227.8 582.9 227.8 584.7L227.8 584.7Q227.8 585.9 227.1 586.9Q226.4 588.0 224.6 589.8L224.6 589.8L221.4 592.9L221.4 593.0L227.0 593.0Q227.5 593.0 227.8 593.3Q228.1 593.5 228.1 594.0Q228.1 594.5 227.8 594.8Q227.5 595.0 227.0 595.0L227.0 595.0ZM235.2 595.3L235.2 595.3Q232.6 595.3 231.1 593.4Q229.7 591.4 229.7 588.0L229.7 588.0Q229.7 584.6 231.1 582.6Q232.6 580.7 235.2 580.7L235.2 580.7Q237.8 580.7 239.3 582.6Q240.7 584.6 240.7 588.0L240.7 588.0Q240.7 591.4 239.3 593.3Q237.8 595.3 235.2 595.3ZM235.2 593.3L235.2 593.3Q236.6 593.3 237.4 591.9Q238.2 590.5 238.2 588.0L238.2 588.0Q238.2 585.5 237.4 584.1Q236.6 582.7 235.2 582.7Q233.8 582.7 233.0 584.1Q232.2 585.5 232.2 588.0L232.2 588.0Q232.2 590.5 233.0 591.9Q233.8 593.3 235.2 593.3ZM251.6 595.0L243.8 595.0Q243.2 595.0 242.9 594.8Q242.6 594.5 242.6 594.0L242.6 594.0Q242.6 593.6 242.7 593.3Q242.9 593.1 243.3 592.7L243.3 592.7L247.6 588.4Q248.9 587.1 249.4 586.4Q249.8 585.7 249.8 584.9L249.8 584.9Q249.8 583.9 249.2 583.3Q248.5 582.7 247.5 582.7L247.5 582.7Q245.6 582.7 244.9 584.6L244.9 584.6Q244.7 585.0 244.4 585.2Q244.2 585.4 243.7 585.4L243.7 585.4Q243.2 585.4 242.9 585.1Q242.6 584.8 242.6 584.3L242.6 584.3Q242.6 584.1 242.7 583.8L242.7 583.8Q242.9 583.2 243.2 582.7Q243.6 582.1 244.2 581.7Q244.8 581.2 245.7 580.9Q246.5 580.7 247.5 580.7L247.5 580.7Q249.6 580.7 251.0 581.8Q252.3 582.9 252.3 584.7L252.3 584.7Q252.3 585.9 251.6 586.9Q251.0 588.0 249.2 589.8L249.2 589.8L245.9 592.9L245.9 593.0L251.6 593.0Q252.1 593.0 252.4 593.3Q252.6 593.5 252.6 594.0Q252.6 594.5 252.4 594.8Q252.1 595.0 251.6 595.0L251.6 595.0ZM259.6 595.3L259.6 595.3Q258.0 595.3 256.7 594.6Q255.4 593.9 254.9 592.8L254.9 592.8Q254.6 592.3 254.6 591.8L254.6 591.8Q254.6 591.3 254.9 591.0Q255.2 590.7 255.7 590.7L255.7 590.7Q256.1 590.7 256.4 590.9Q256.6 591.1 256.8 591.5L256.8 591.5Q257.2 592.3 257.9 592.8Q258.6 593.3 259.6 593.3L259.6 593.3Q260.9 593.3 261.7 592.5Q262.5 591.7 262.5 590.4L262.5 590.4Q262.5 589.2 261.7 588.4Q260.9 587.7 259.6 587.7L259.6 587.7Q258.3 587.7 257.4 588.5L257.4 588.5Q257.0 589.0 256.7 589.1Q256.4 589.3 256.0 589.3L256.0 589.3Q255.4 589.3 255.1 588.9Q254.8 588.5 254.8 588.0L254.8 588.0Q254.8 587.9 254.8 587.8L254.8 587.8L255.3 582.5Q255.4 581.7 255.8 581.3Q256.2 581.0 257.0 581.0L257.0 581.0L263.1 581.0Q263.6 581.0 263.9 581.2Q264.2 581.5 264.2 582.0L264.2 582.0Q264.2 582.4 263.9 582.7Q263.6 583.0 263.1 583.0L263.1 583.0L257.4 583.0L257.1 587.2L257.1 587.2Q257.6 586.5 258.4 586.1Q259.2 585.8 260.3 585.8L260.3 585.8Q262.3 585.8 263.6 587.0Q264.9 588.3 264.9 590.4L264.9 590.4Q264.9 592.6 263.4 593.9Q261.9 595.3 259.6 595.3Z " clip-path="url(#satori_cp-id-0)" mask="url(#satori_om-id-0)"/><mask id="satori_om-id-0-1-1"><rect x="967" y="557" width="185" height="26" fill="#fff" mask="url(#satori_om-id-0)"/></mask><path fill="#334155" d="M970.4 577.8Q970.1 578.2 969.5 578.2Q968.9 578.2 968.5 577.8Q968.2 577.5 968.2 576.8L968.2 576.8L968.2 563.6Q968.2 563.0 968.5 562.6Q968.9 562.2 969.5 562.2Q970.1 562.2 970.5 562.6Q970.8 563.0 970.8 563.6L970.8 563.6L970.8 568.5L970.9 568.5Q971.4 567.5 972.3 566.9Q973.3 566.4 974.5 566.4L974.5 566.4Q976.6 566.4 977.9 568.0Q979.2 569.5 979.2 572.3L979.2 572.3Q979.2 575.0 977.9 576.6Q976.6 578.1 974.5 578.1L974.5 578.1Q973.2 578.1 972.3 577.6Q971.4 577.0 970.8 576.0L970.8 576.0L970.8 576.0L970.8 576.8Q970.8 577.5 970.4 577.8ZM973.6 575.9L973.6 575.9Q974.9 575.9 975.7 574.9Q976.4 574.0 976.4 572.3Q976.4 570.6 975.7 569.6Q974.9 568.6 973.6 568.6L973.6 568.6Q972.4 568.6 971.6 569.6Q970.8 570.6 970.8 572.3L970.8 572.3Q970.8 573.9 971.6 574.9Q972.4 575.9 973.6 575.9ZM982.5 582.2L982.5 582.2Q981.6 582.2 981.1 581.9Q980.7 581.5 980.7 580.9L980.7 580.9Q980.7 580.5 980.9 580.3Q981.2 580.0 981.7 580.0L981.7 580.0Q981.8 580.0 982.0 580.0Q982.1 580.0 982.3 580.0L982.3 580.0Q983.3 580.0 983.9 578.7L983.9 578.7L984.1 578.2L980.3 568.3Q980.2 567.9 980.2 567.6L980.2 567.6Q980.2 567.0 980.6 566.7Q981.0 566.3 981.6 566.3L981.6 566.3Q982.1 566.3 982.4 566.6Q982.7 566.8 982.8 567.4L982.8 567.4L985.6 575.7L985.6 575.7L988.3 567.4Q988.5 566.8 988.8 566.6Q989.1 566.3 989.6 566.3L989.6 566.3Q990.2 566.3 990.5 566.7Q990.9 567.0 990.9 567.5L990.9 567.5Q990.9 567.9 990.8 568.3L990.8 568.3L987.0 578.4Q986.2 580.5 985.2 581.3Q984.2 582.2 982.5 582.2Z M1002.5 578.2L1002.5 578.2Q1000.2 578.2 998.7 577.4Q997.2 576.5 996.7 575.2L996.7 575.2Q996.6 574.8 996.6 574.4L996.6 574.4Q996.6 573.8 996.9 573.4Q997.3 573.1 997.8 573.1L997.8 573.1Q998.3 573.1 998.6 573.3Q998.9 573.5 999.1 574.0L999.1 574.0Q999.5 574.9 1000.4 575.4Q1001.3 575.9 1002.6 575.9L1002.6 575.9Q1004.0 575.9 1004.9 575.3Q1005.8 574.7 1005.8 573.7L1005.8 573.7Q1005.8 572.8 1005.1 572.3Q1004.5 571.8 1003.0 571.5L1003.0 571.5L1001.3 571.1Q996.8 570.2 996.8 566.8L996.8 566.8Q996.8 564.7 998.4 563.5Q1000.0 562.2 1002.5 562.2L1002.5 562.2Q1004.6 562.2 1006.1 563.1Q1007.5 563.9 1008.0 565.5L1008.0 565.5Q1008.1 565.7 1008.1 566.1L1008.1 566.1Q1008.1 566.6 1007.8 566.9Q1007.4 567.2 1006.9 567.2L1006.9 567.2Q1006.0 567.2 1005.6 566.4L1005.6 566.4Q1004.8 564.5 1002.5 564.5L1002.5 564.5Q1001.2 564.5 1000.4 565.1Q999.5 565.6 999.5 566.6L999.5 566.6Q999.5 567.4 1000.2 567.9Q1000.8 568.4 1002.3 568.7L1002.3 568.7L1003.9 569.1Q1006.4 569.6 1007.5 570.6Q1008.6 571.6 1008.6 573.4L1008.6 573.4Q1008.6 575.6 1006.9 576.9Q1005.3 578.2 1002.5 578.2ZM1011.1 575.1L1011.1 575.1L1011.1 568.6L1010.4 568.6Q1009.9 568.6 1009.6 568.3Q1009.3 568.1 1009.3 567.6L1009.3 567.6Q1009.3 567.1 1009.6 566.8Q1009.9 566.6 1010.4 566.6L1010.4 566.6L1011.1 566.6L1011.1 565.0Q1011.1 564.4 1011.5 564.0Q1011.8 563.6 1012.5 563.6L1012.5 563.6Q1013.1 563.6 1013.4 564.0Q1013.8 564.4 1013.8 565.0L1013.8 565.0L1013.8 566.6L1015.0 566.6Q1015.5 566.6 1015.8 566.8Q1016.1 567.1 1016.1 567.6L1016.1 567.6Q1016.1 568.1 1015.8 568.3Q1015.5 568.6 1015.0 568.6L1015.0 568.6L1013.8 568.6L1013.8 574.6Q1013.8 575.2 1014.0 575.5Q1014.3 575.8 1014.9 575.9L1014.9 575.9L1015.0 575.9Q1016.1 576.0 1016.1 576.9L1016.1 576.9Q1016.1 577.5 1015.6 577.8Q1015.1 578.1 1014.2 578.1L1014.2 578.1L1014.1 578.1Q1011.1 578.1 1011.1 575.1ZM1022.8 578.2L1022.8 578.2Q1020.2 578.2 1018.7 576.6Q1017.3 575.1 1017.3 572.3L1017.3 572.3Q1017.3 569.6 1018.7 567.9Q1020.2 566.3 1022.7 566.3L1022.7 566.3Q1025.0 566.3 1026.4 567.8Q1027.9 569.3 1027.9 571.6L1027.9 571.6Q1027.9 572.2 1027.6 572.6Q1027.2 572.9 1026.7 572.9L1026.7 572.9L1019.9 572.9L1019.9 573.0Q1019.9 574.4 1020.7 575.3Q1021.5 576.1 1022.8 576.1L1022.8 576.1Q1023.7 576.1 1024.3 575.8Q1025.0 575.4 1025.6 574.6L1025.6 574.6Q1026.0 574.2 1026.5 574.2L1026.5 574.2Q1027.0 574.2 1027.3 574.4Q1027.6 574.7 1027.6 575.2L1027.6 575.2Q1027.6 575.5 1027.4 575.9L1027.4 575.9Q1026.9 577.0 1025.6 577.6Q1024.4 578.2 1022.8 578.2ZM1020.0 571.1L1020.0 571.1L1025.3 571.1Q1025.2 569.9 1024.5 569.1Q1023.8 568.4 1022.7 568.4Q1021.5 568.4 1020.8 569.2Q1020.0 569.9 1020.0 571.1ZM1034.5 582.2L1034.5 582.2Q1032.9 582.2 1031.7 581.7Q1030.5 581.1 1029.9 580.2L1029.9 580.2Q1029.7 579.8 1029.7 579.4L1029.7 579.4Q1029.7 578.9 1030.0 578.6Q1030.3 578.3 1030.8 578.3L1030.8 578.3Q1031.3 578.3 1031.8 578.8L1031.8 578.8Q1032.5 579.5 1033.1 579.8Q1033.8 580.1 1034.5 580.1L1034.5 580.1Q1035.9 580.1 1036.7 579.4Q1037.4 578.7 1037.4 577.6L1037.4 577.6L1037.4 575.8L1037.4 575.8Q1036.9 576.7 1036.0 577.3Q1035.0 577.8 1033.8 577.8L1033.8 577.8Q1031.7 577.8 1030.4 576.3Q1029.1 574.7 1029.1 572.1L1029.1 572.1Q1029.1 569.4 1030.4 567.9Q1031.7 566.4 1033.9 566.4L1033.9 566.4Q1035.1 566.4 1036.0 566.9Q1036.9 567.5 1037.4 568.5L1037.4 568.5L1037.5 568.5L1037.5 567.7Q1037.5 567.1 1037.8 566.7Q1038.2 566.3 1038.8 566.3Q1039.4 566.3 1039.8 566.7Q1040.1 567.1 1040.1 567.7L1040.1 567.7L1040.1 577.6Q1040.1 579.7 1038.6 581.0Q1037.1 582.2 1034.5 582.2ZM1034.6 575.7L1034.6 575.7Q1035.9 575.7 1036.7 574.8Q1037.5 573.8 1037.5 572.1L1037.5 572.1Q1037.5 570.5 1036.7 569.5Q1035.9 568.5 1034.6 568.5L1034.6 568.5Q1033.4 568.5 1032.6 569.5Q1031.9 570.5 1031.9 572.1L1031.9 572.1Q1031.9 573.8 1032.6 574.8Q1033.4 575.7 1034.6 575.7ZM1044.6 577.8Q1044.2 578.2 1043.6 578.2Q1043.0 578.2 1042.7 577.8Q1042.3 577.4 1042.3 576.8L1042.3 576.8L1042.3 567.7Q1042.3 567.1 1042.7 566.7Q1043.0 566.3 1043.6 566.3Q1044.2 566.3 1044.5 566.7Q1044.9 567.1 1044.9 567.7L1044.9 567.7L1044.9 568.5L1045.0 568.5Q1045.9 566.3 1048.5 566.3L1048.5 566.3Q1050.4 566.3 1051.4 567.5Q1052.5 568.6 1052.5 570.6L1052.5 570.6L1052.5 576.8Q1052.5 577.4 1052.1 577.8Q1051.7 578.2 1051.1 578.2Q1050.5 578.2 1050.1 577.8Q1049.8 577.4 1049.8 576.8L1049.8 576.8L1049.8 571.1Q1049.8 569.9 1049.2 569.3Q1048.6 568.6 1047.5 568.6L1047.5 568.6Q1046.4 568.6 1045.7 569.4Q1045.0 570.1 1045.0 571.4L1045.0 571.4L1045.0 576.8Q1045.0 577.4 1044.6 577.8ZM1059.7 578.2L1059.7 578.2Q1057.0 578.2 1055.6 576.6Q1054.1 575.1 1054.1 572.3L1054.1 572.3Q1054.1 569.6 1055.6 567.9Q1057.0 566.3 1059.5 566.3L1059.5 566.3Q1061.8 566.3 1063.3 567.8Q1064.7 569.3 1064.7 571.6L1064.7 571.6Q1064.7 572.2 1064.4 572.6Q1064.1 572.9 1063.5 572.9L1063.5 572.9L1056.8 572.9L1056.8 573.0Q1056.8 574.4 1057.6 575.3Q1058.3 576.1 1059.6 576.1L1059.6 576.1Q1060.5 576.1 1061.2 575.8Q1061.8 575.4 1062.5 574.6L1062.5 574.6Q1062.9 574.2 1063.4 574.2L1063.4 574.2Q1063.8 574.2 1064.1 574.4Q1064.5 574.7 1064.5 575.2L1064.5 575.2Q1064.5 575.5 1064.3 575.9L1064.3 575.9Q1063.7 577.0 1062.5 577.6Q1061.3 578.2 1059.7 578.2ZM1056.8 571.1L1056.8 571.1L1062.1 571.1Q1062.1 569.9 1061.4 569.1Q1060.6 568.4 1059.5 568.4Q1058.4 568.4 1057.6 569.2Q1056.9 569.9 1056.8 571.1ZM1068.8 577.8Q1068.4 578.2 1067.8 578.2Q1067.2 578.2 1066.8 577.8Q1066.5 577.4 1066.5 576.8L1066.5 576.8L1066.5 567.7Q1066.5 567.1 1066.8 566.7Q1067.2 566.3 1067.7 566.3L1067.7 566.3Q1068.3 566.3 1068.7 566.7Q1069.0 567.1 1069.0 567.7L1069.0 567.7L1069.0 568.6L1069.1 568.6Q1069.3 567.6 1070.0 567.0Q1070.6 566.4 1071.5 566.4L1071.5 566.4Q1072.1 566.4 1072.4 566.7L1072.4 566.7Q1072.8 567.0 1072.8 567.6L1072.8 567.6Q1072.8 568.2 1072.4 568.6L1072.4 568.6Q1072.0 568.9 1071.2 568.9L1071.2 568.9Q1069.1 568.9 1069.1 571.3L1069.1 571.3L1069.1 576.8Q1069.1 577.4 1068.8 577.8ZM1075.9 575.2L1075.9 575.2Q1076.5 575.2 1076.8 575.5Q1077.1 575.8 1077.1 576.3L1077.1 576.3Q1077.1 576.6 1077.0 576.9L1077.0 576.9L1076.1 580.6Q1076.0 581.1 1075.7 581.3Q1075.5 581.5 1075.0 581.5Q1074.5 581.5 1074.3 581.2Q1074.0 581.0 1074.0 580.5L1074.0 580.5Q1074.0 580.4 1074.0 580.3L1074.0 580.3L1074.6 576.3Q1074.8 575.2 1075.9 575.2Z M1093.3 577.9L1086.0 577.9Q1085.4 577.9 1085.0 577.6Q1084.6 577.2 1084.6 576.5L1084.6 576.5L1084.6 563.7Q1084.6 563.0 1085.0 562.6Q1085.4 562.3 1086.0 562.3L1086.0 562.3Q1086.7 562.3 1087.0 562.6Q1087.4 563.0 1087.4 563.7L1087.4 563.7L1087.4 575.6L1093.3 575.6Q1093.9 575.6 1094.2 575.9Q1094.6 576.2 1094.6 576.8Q1094.6 577.3 1094.3 577.6Q1093.9 577.9 1093.3 577.9L1093.3 577.9ZM1098.0 578.1L1098.0 578.1Q1097.4 578.1 1096.9 577.6Q1096.5 577.2 1096.5 576.5L1096.5 576.5Q1096.5 575.9 1096.9 575.4Q1097.4 575.0 1098.0 575.0L1098.0 575.0Q1098.7 575.0 1099.1 575.4Q1099.5 575.9 1099.5 576.5L1099.5 576.5Q1099.5 577.2 1099.1 577.6Q1098.7 578.1 1098.0 578.1Z M1111.5 578.2L1111.5 578.2Q1108.9 578.2 1107.5 576.6Q1106.0 575.1 1106.0 572.3L1106.0 572.3Q1106.0 569.6 1107.5 567.9Q1108.9 566.3 1111.4 566.3L1111.4 566.3Q1113.7 566.3 1115.2 567.8Q1116.6 569.3 1116.6 571.6L1116.6 571.6Q1116.6 572.2 1116.3 572.6Q1116.0 572.9 1115.4 572.9L1115.4 572.9L1108.7 572.9L1108.7 573.0Q1108.7 574.4 1109.4 575.3Q1110.2 576.1 1111.5 576.1L1111.5 576.1Q1112.4 576.1 1113.1 575.8Q1113.7 575.4 1114.4 574.6L1114.4 574.6Q1114.7 574.2 1115.3 574.2L1115.3 574.2Q1115.7 574.2 1116.0 574.4Q1116.3 574.7 1116.3 575.2L1116.3 575.2Q1116.3 575.5 1116.1 575.9L1116.1 575.9Q1115.6 577.0 1114.4 577.6Q1113.1 578.2 1111.5 578.2ZM1108.7 571.1L1108.7 571.1L1114.0 571.1Q1114.0 569.9 1113.2 569.1Q1112.5 568.4 1111.4 568.4Q1110.3 568.4 1109.5 569.2Q1108.8 569.9 1108.7 571.1ZM1119.1 575.1L1119.1 575.1L1119.1 568.6L1118.4 568.6Q1117.9 568.6 1117.6 568.3Q1117.3 568.1 1117.3 567.6L1117.3 567.6Q1117.3 567.1 1117.6 566.8Q1117.9 566.6 1118.4 566.6L1118.4 566.6L1119.1 566.6L1119.1 565.0Q1119.1 564.4 1119.4 564.0Q1119.8 563.6 1120.4 563.6L1120.4 563.6Q1121.0 563.6 1121.4 564.0Q1121.8 564.4 1121.8 565.0L1121.8 565.0L1121.8 566.6L1123.0 566.6Q1123.5 566.6 1123.8 566.8Q1124.1 567.1 1124.1 567.6L1124.1 567.6Q1124.1 568.1 1123.8 568.3Q1123.5 568.6 1123.0 568.6L1123.0 568.6L1121.8 568.6L1121.8 574.6Q1121.8 575.2 1122.0 575.5Q1122.2 575.8 1122.8 575.9L1122.8 575.9L1123.0 575.9Q1124.1 576.0 1124.1 576.9L1124.1 576.9Q1124.1 577.5 1123.6 577.8Q1123.1 578.1 1122.2 578.1L1122.2 578.1L1122.1 578.1Q1119.1 578.1 1119.1 575.1Z M1133.5 578.1L1133.5 578.1Q1131.8 578.1 1130.7 577.2Q1129.7 576.2 1129.7 574.7L1129.7 574.7Q1129.7 573.2 1130.8 572.3Q1131.9 571.4 1134.0 571.3L1134.0 571.3L1137.0 571.1L1137.0 570.3Q1137.0 569.4 1136.4 568.9Q1135.9 568.4 1134.9 568.4L1134.9 568.4Q1134.1 568.4 1133.5 568.7Q1133.0 569.0 1132.5 569.8L1132.5 569.8Q1132.1 570.3 1131.4 570.3L1131.4 570.3Q1130.9 570.3 1130.6 570.0Q1130.3 569.7 1130.3 569.2L1130.3 569.2Q1130.3 568.9 1130.5 568.5L1130.5 568.5Q1130.9 567.5 1132.1 566.9Q1133.4 566.3 1135.0 566.3L1135.0 566.3Q1137.1 566.3 1138.4 567.4Q1139.6 568.4 1139.6 570.1L1139.6 570.1L1139.6 576.8Q1139.6 577.5 1139.3 577.8Q1138.9 578.2 1138.3 578.2L1138.3 578.2Q1137.8 578.2 1137.4 577.8Q1137.1 577.5 1137.1 576.9L1137.1 576.9L1137.1 576.1L1137.0 576.1Q1136.5 577.0 1135.6 577.6Q1134.6 578.1 1133.5 578.1ZM1134.3 576.1L1134.3 576.1Q1135.4 576.1 1136.2 575.4Q1137.0 574.7 1137.0 573.7L1137.0 573.7L1137.0 572.9L1134.4 573.0Q1133.4 573.1 1132.9 573.5Q1132.3 573.9 1132.3 574.6L1132.3 574.6Q1132.3 575.3 1132.9 575.7Q1133.4 576.1 1134.3 576.1ZM1144.2 577.8Q1143.8 578.2 1143.2 578.2Q1142.6 578.2 1142.2 577.8Q1141.9 577.4 1141.9 576.8L1141.9 576.8L1141.9 563.6Q1141.9 563.0 1142.2 562.6Q1142.6 562.2 1143.2 562.2Q1143.8 562.2 1144.2 562.6Q1144.5 563.0 1144.5 563.6L1144.5 563.6L1144.5 576.8Q1144.5 577.4 1144.2 577.8ZM1148.7 578.1L1148.7 578.1Q1148.0 578.1 1147.6 577.6Q1147.1 577.2 1147.1 576.5L1147.1 576.5Q1147.1 575.9 1147.6 575.4Q1148.0 575.0 1148.7 575.0L1148.7 575.0Q1149.3 575.0 1149.8 575.4Q1150.2 575.9 1150.2 576.5L1150.2 576.5Q1150.2 577.2 1149.8 577.6Q1149.3 578.1 1148.7 578.1Z " clip-path="url(#satori_cp-id-0)" mask="url(#satori_om-id-0)"/></svg>