<svg width="1200" height="630" viewBox="0 0 1200 630" xmlns="http://www.w3.org/2000/svg"><mask id="satori_om-id"><rect x="0" y="0" width="1200" height="630" fill="#fff"/></mask><defs><pattern id="satori_pattern_id-0_0" x="0" y="0" width="1" height="1" patternUnits="objectBoundingBox"><linearGradient id="satori_biid-0_0" x1="-0.09774620284174435" y1="0.18618324350808482" x2="1.0977462028417444" y2="0.8138167564919152" spreadMethod="pad"><stop offset="0%" stop-color="#f8fafc"/><stop offset="50%" stop-color="#eef2ff"/><stop offset="100%" stop-color="#ffffff"/></linearGradient><rect x="0" y="0" width="1200" height="630" fill="url(#satori_biid-0_0)"/></pattern></defs><clipPath id="satori_cp-id-0"><rect x="0" y="0" width="1200" height="630"/></clipPath><mask id="satori_om-id-0"><rect x="0" y="0" width="1200" height="630" fill="#fff"/></mask><rect x="0" y="0" width="1200" height="630" fill="url(#satori_pattern_id-0_0)"/><mask id="satori_om-id-0-0"><rect x="0" y="0" width="1200" height="509" fill="#fff" mask="url(#satori_om-id-0)"/></mask><mask id="satori_om-id-0-0-0"><rect x="72" y="72" width="1056" height="365" fill="#fff" mask="url(#satori_om-id-0)"/></mask><mask id="satori_om-id-0-0-0-0"><rect x="72" y="113" width="1056" height="38" fill="#fff" mask="url(#satori_om-id-0)"/></mask><path fill="#64748b" d="M77.1 143.2Q76.6 143.7 75.8 143.7Q75.0 143.7 74.5 143.2Q74.1 142.8 74.1 141.9L74.1 141.9L74.1 122.7Q74.1 121.9 74.5 121.4Q75.0 120.9 75.8 120.9L75.8 120.9L86.8 120.9Q87.5 120.9 88.0 121.3Q88.4 121.8 88.4 122.4Q88.4 123.1 88.0 123.5Q87.5 124.0 86.8 124.0L86.8 124.0L77.6 124.0L77.6 131.1L85.9 131.1Q86.6 131.1 87.1 131.5Q87.5 131.9 87.5 132.5Q87.5 133.2 87.1 133.6Q86.6 134.0 85.9 134.0L85.9 134.0L77.6 134.0L77.6 141.9Q77.6 142.8 77.1 143.2ZM92.5 143.8L92.5 143.8Q91.7 143.8 91.3 143.3Q90.8 142.8 90.8 142.0L90.8 142.0L90.8 128.4Q90.8 127.7 91.2 127.2Q91.7 126.7 92.4 126.7L92.4 126.7Q93.1 126.7 93.6 127.2Q94 127.7 94 128.4L94 128.4L94 129.8L94.1 129.8Q94.4 128.5 95.4 127.6Q96.4 126.8 97.7 126.8L97.7 126.8Q98.6 126.8 99.0 127.2L99.0 127.2Q99.5 127.5 99.5 128.4L99.5 128.4Q99.5 129.1 99.0 129.5L99.0 129.5Q98.5 130.0 97.4 130.0L97.4 130.0Q95.8 130 95.0 131.0Q94.2 132.0 94.2 133.6L94.2 133.6L94.2 142.0Q94.2 142.8 93.7 143.3Q93.2 143.8 92.5 143.8ZM104.5 124.0Q103.9 124.5 103.1 124.5Q102.3 124.5 101.7 124.0Q101.1 123.4 101.1 122.6L101.1 122.6Q101.1 121.8 101.7 121.2Q102.3 120.7 103.1 120.7L103.1 120.7Q103.9 120.7 104.5 121.2Q105.1 121.8 105.1 122.6L105.1 122.6Q105.1 123.4 104.5 124.0ZM104.3 143.3Q103.9 143.8 103.1 143.8Q102.3 143.8 101.9 143.3Q101.4 142.8 101.4 142.0L101.4 142.0L101.4 128.5Q101.4 127.7 101.9 127.2Q102.3 126.7 103.1 126.7Q103.9 126.7 104.3 127.2Q104.8 127.7 104.8 128.5L104.8 128.5L104.8 142.0Q104.8 142.8 104.3 143.3ZM114.4 143.8L114.4 143.8Q111.3 143.8 109.4 141.4Q107.5 139.1 107.5 135.3Q107.5 131.4 109.4 129.1Q111.3 126.8 114.4 126.8L114.4 126.8Q116.1 126.8 117.5 127.6Q118.8 128.4 119.5 129.8L119.5 129.8L119.6 129.8L119.6 122.4Q119.6 121.6 120.1 121.1Q120.5 120.6 121.3 120.6L121.3 120.6Q122.0 120.6 122.5 121.1Q123.0 121.6 123.0 122.4L123.0 122.4L123.0 142.1Q123.0 142.9 122.5 143.3Q122.1 143.8 121.3 143.8L121.3 143.8Q120.6 143.8 120.1 143.3Q119.6 142.9 119.6 142.1L119.6 142.1L119.6 140.5L119.5 140.5Q118.9 142.0 117.6 142.9Q116.3 143.8 114.4 143.8ZM115.3 140.9L115.3 140.9Q117.3 140.9 118.4 139.4Q119.6 137.8 119.6 135.3L119.6 135.3Q119.6 132.7 118.4 131.2Q117.3 129.6 115.3 129.6L115.3 129.6Q113.3 129.6 112.1 131.1Q111.0 132.7 111.0 135.3L111.0 135.3Q111.0 137.9 112.1 139.4Q113.3 140.9 115.3 140.9ZM131.3 143.8L131.3 143.8Q128.8 143.8 127.3 142.4Q125.8 141 125.8 138.8L125.8 138.8Q125.8 136.6 127.4 135.4Q129.0 134.1 131.9 133.9L131.9 133.9L136.4 133.7L136.4 132.4Q136.4 131.0 135.5 130.3Q134.6 129.5 133.1 129.5L133.1 129.5Q131.9 129.5 131.0 130.0Q130.2 130.5 129.5 131.6L129.5 131.6Q129.0 132.3 128.1 132.3L128.1 132.3Q127.4 132.3 127.0 131.9Q126.6 131.5 126.6 130.9L126.6 130.9Q126.6 130.3 126.9 129.8L126.9 129.8Q127.6 128.4 129.3 127.6Q131 126.7 133.2 126.7L133.2 126.7Q136.2 126.7 138.0 128.2Q139.8 129.7 139.8 132.1L139.8 132.1L139.8 142.1Q139.8 142.8 139.3 143.3Q138.8 143.8 138.1 143.8L138.1 143.8Q137.4 143.8 137.0 143.3Q136.5 142.9 136.5 142.2L136.5 142.2L136.5 140.8L136.4 140.8Q135.7 142.1 134.3 142.9Q132.9 143.8 131.3 143.8ZM132.2 141.1L132.2 141.1Q134.0 141.1 135.2 140.0Q136.4 138.9 136.4 137.3L136.4 137.3L136.4 136.0L132.3 136.3Q130.8 136.4 130.0 137.0Q129.2 137.6 129.2 138.7L129.2 138.7Q129.2 139.8 130 140.4Q130.8 141.1 132.2 141.1ZM145.0 149.6L145.0 149.6Q143.9 149.6 143.3 149.2Q142.6 148.8 142.6 148.0L142.6 148.0Q142.6 147.4 143.0 147.1Q143.3 146.8 143.9 146.8L143.9 146.8Q144.1 146.8 144.4 146.8Q144.6 146.8 144.8 146.8L144.8 146.8Q146.5 146.8 147.3 144.6L147.3 144.6L147.6 143.6L142.1 129.3Q141.9 128.7 141.9 128.3L141.9 128.3Q141.9 127.6 142.4 127.2Q142.9 126.7 143.7 126.7L143.7 126.7Q144.3 126.7 144.7 127.0Q145.1 127.3 145.3 128.0L145.3 128.0L149.5 140.4L149.5 140.4L153.7 128.0Q153.9 127.3 154.3 127.0Q154.7 126.7 155.3 126.7L155.3 126.7Q156.0 126.7 156.5 127.2Q157.0 127.6 157.0 128.3L157.0 128.3Q157.0 128.7 156.8 129.2L156.8 129.2L151.1 144.3Q150 147.3 148.7 148.4Q147.3 149.6 145.0 149.6ZM161.7 139.7L161.7 139.7Q162.5 139.7 162.9 140.0Q163.3 140.4 163.3 141.1L163.3 141.1Q163.3 141.5 163.2 142.0L163.2 142.0L161.8 147.3Q161.5 148.5 160.4 148.5L160.4 148.5Q159.8 148.5 159.4 148.1Q159.1 147.8 159.1 147.3L159.1 147.3Q159.1 147.1 159.1 146.9L159.1 146.9L160.1 141.1Q160.4 139.7 161.7 139.7Z M182.3 143.9L182.3 143.9Q178.6 143.9 176.2 142.1Q173.8 140.2 173.8 137.4L173.8 137.4Q173.8 135.2 175.2 133.7Q176.5 132.1 178.8 131.6L178.8 131.6L178.8 131.5Q176.9 131.0 175.7 129.6Q174.6 128.3 174.6 126.5L174.6 126.5Q174.6 123.9 176.8 122.2Q179.0 120.5 182.3 120.5L182.3 120.5Q185.7 120.5 187.9 122.2Q190.0 123.9 190.0 126.5L190.0 126.5Q190.0 128.3 188.9 129.6Q187.8 131.0 185.9 131.5L185.9 131.5L185.9 131.6Q188.1 132.1 189.5 133.7Q190.9 135.3 190.9 137.4L190.9 137.4Q190.9 139.3 189.8 140.8Q188.7 142.2 186.7 143.1Q184.8 143.9 182.3 143.9ZM182.3 130.3L182.3 130.3Q184.2 130.3 185.4 129.4Q186.6 128.4 186.6 126.8L186.6 126.8Q186.6 125.3 185.4 124.3Q184.2 123.3 182.3 123.3L182.3 123.3Q180.5 123.3 179.3 124.3Q178.1 125.3 178.1 126.8L178.1 126.8Q178.1 128.4 179.3 129.4Q180.5 130.3 182.3 130.3ZM178.8 140.0Q180.2 141.1 182.3 141.1Q184.5 141.1 185.9 140.0Q187.2 138.8 187.2 137.1L187.2 137.1Q187.2 135.4 185.9 134.3Q184.5 133.2 182.3 133.2Q180.2 133.2 178.8 134.3Q177.4 135.4 177.4 137.1L177.4 137.1Q177.4 138.8 178.8 140.0Z M203.7 143.2Q203.3 143.7 202.5 143.7Q201.7 143.7 201.2 143.2Q200.8 142.8 200.8 141.9L200.8 141.9L200.8 122.6Q200.8 121.7 201.3 121.2Q201.8 120.7 202.7 120.7L202.7 120.7Q203.3 120.7 203.7 120.9Q204.1 121.2 204.5 121.8L204.5 121.8L215.6 137.5L215.8 137.5L215.8 122.5Q215.8 121.6 216.2 121.1Q216.7 120.7 217.5 120.7L217.5 120.7Q218.3 120.7 218.7 121.1Q219.2 121.6 219.2 122.5L219.2 122.5L219.2 141.9Q219.2 142.8 218.7 143.2Q218.2 143.7 217.3 143.7L217.3 143.7Q216.7 143.7 216.3 143.5Q215.9 143.3 215.4 142.6L215.4 142.6L204.3 126.9L204.2 126.9L204.2 141.9Q204.2 142.8 203.7 143.2ZM235.7 141.5Q233.5 143.8 230.0 143.8Q226.4 143.8 224.3 141.5Q222.2 139.2 222.2 135.3L222.2 135.3Q222.2 131.3 224.3 129.0Q226.4 126.7 230.0 126.7Q233.5 126.7 235.7 129.0Q237.8 131.3 237.8 135.3L237.8 135.3Q237.8 139.2 235.7 141.5ZM230.0 141L230.0 141Q232 141 233.2 139.5Q234.3 138.0 234.3 135.3L234.3 135.3Q234.3 132.5 233.2 131.0Q232.0 129.5 230.0 129.5Q228.0 129.5 226.8 131.0Q225.6 132.5 225.6 135.3L225.6 135.3Q225.6 138.0 226.8 139.5Q228.0 141 230.0 141ZM246.7 143.8L246.7 143.8Q245.8 143.8 245.3 143.4Q244.8 143.0 244.4 142.0L244.4 142.0L239.5 129.2Q239.3 128.7 239.3 128.3L239.3 128.3Q239.3 127.6 239.8 127.2Q240.3 126.7 241.0 126.7L241.0 126.7Q242.2 126.7 242.6 128.1L242.6 128.1L246.7 140.2L246.8 140.2L250.8 128.0Q251.3 126.7 252.4 126.7L252.4 126.7Q253.1 126.7 253.6 127.2Q254.1 127.6 254.1 128.3L254.1 128.3Q254.1 128.7 253.9 129.2L253.9 129.2L249.0 142.0Q248.7 142.9 248.1 143.4Q247.6 143.8 246.7 143.8ZM263.5 143.8L263.5 143.8Q259.8 143.8 257.7 141.5Q255.6 139.3 255.6 135.3L255.6 135.3Q255.6 131.4 257.7 129.1Q259.8 126.7 263.3 126.7L263.3 126.7Q266.5 126.7 268.6 128.9Q270.6 131 270.6 134.4L270.6 134.4Q270.6 135.2 270.2 135.6Q269.8 136.1 269.0 136.1L269.0 136.1L259.0 136.1L259.0 136.2Q259.0 138.4 260.2 139.7Q261.4 141.0 263.4 141.0L263.4 141.0Q264.8 141.0 265.8 140.5Q266.7 140.0 267.7 138.7L267.7 138.7Q268.2 138.1 268.8 138.1L268.8 138.1Q269.5 138.1 269.9 138.5Q270.3 138.9 270.3 139.5L270.3 139.5Q270.3 139.8 270.0 140.4L270.0 140.4Q269.2 142 267.5 142.9Q265.8 143.8 263.5 143.8ZM259.0 133.7L259.0 133.7L267.3 133.7Q267.2 131.8 266.1 130.6Q265 129.5 263.2 129.5L263.2 129.5Q261.5 129.5 260.3 130.6Q259.2 131.8 259.0 133.7ZM276.2 143.3Q275.7 143.8 274.9 143.8Q274.2 143.8 273.7 143.3Q273.3 142.8 273.3 142.0L273.3 142.0L273.3 128.5Q273.3 127.7 273.7 127.2Q274.1 126.7 274.9 126.7Q275.6 126.7 276.0 127.2Q276.5 127.7 276.5 128.5L276.5 128.5L276.5 129.8L276.5 129.8Q277.1 128.4 278.3 127.6Q279.6 126.8 281.2 126.8L281.2 126.8Q282.9 126.8 284.1 127.6Q285.3 128.4 285.8 130.0L285.8 130.0L285.9 130.0Q286.5 128.5 287.9 127.6Q289.3 126.8 291.0 126.8L291.0 126.8Q293.5 126.8 294.9 128.2Q296.4 129.7 296.4 132.2L296.4 132.2L296.4 142.0Q296.4 142.8 295.9 143.3Q295.5 143.8 294.7 143.8Q293.9 143.8 293.5 143.3Q293 142.8 293 142.0L293 142.0L293 133.0Q293 131.4 292.2 130.5Q291.4 129.6 289.9 129.6Q288.4 129.6 287.4 130.6Q286.5 131.6 286.5 133.2L286.5 133.2L286.5 142.0Q286.5 142.8 286.0 143.3Q285.6 143.8 284.8 143.8Q284.0 143.8 283.6 143.3Q283.2 142.8 283.2 142.0L283.2 142.0L283.2 132.7Q283.2 131.3 282.3 130.5Q281.5 129.6 280.0 129.6L280.0 129.6Q278.5 129.6 277.6 130.7Q276.6 131.7 276.6 133.3L276.6 133.3L276.6 142.0Q276.6 142.8 276.2 143.3ZM301.4 143.8L301.4 143.8Q300.6 143.8 300.2 143.3Q299.8 142.9 299.8 142.1L299.8 142.1L299.8 122.4Q299.8 121.6 300.2 121.1Q300.7 120.6 301.5 120.6Q302.2 120.6 302.7 121.1Q303.1 121.6 303.1 122.4L303.1 122.4L303.1 129.8L303.2 129.8Q304.0 128.4 305.3 127.6Q306.7 126.8 308.4 126.8L308.4 126.8Q311.5 126.8 313.4 129.1Q315.3 131.4 315.3 135.3L315.3 135.3Q315.3 139.2 313.4 141.5Q311.5 143.8 308.4 143.8L308.4 143.8Q306.6 143.8 305.3 142.9Q303.9 142.1 303.1 140.7L303.1 140.7L303.0 140.7L303.0 142.1Q303.0 142.9 302.6 143.3Q302.1 143.8 301.4 143.8ZM307.5 140.9L307.5 140.9Q309.5 140.9 310.6 139.4Q311.8 137.9 311.8 135.3L311.8 135.3Q311.8 132.7 310.6 131.1Q309.5 129.6 307.5 129.6L307.5 129.6Q305.6 129.6 304.3 131.2Q303.1 132.7 303.1 135.3L303.1 135.3Q303.1 137.8 304.3 139.3Q305.6 140.9 307.5 140.9ZM325 143.8L325 143.8Q321.3 143.8 319.2 141.5Q317.1 139.3 317.1 135.3L317.1 135.3Q317.1 131.4 319.2 129.1Q321.3 126.7 324.8 126.7L324.8 126.7Q328.0 126.7 330.1 128.9Q332.2 131 332.2 134.4L332.2 134.4Q332.2 135.2 331.7 135.6Q331.3 136.1 330.5 136.1L330.5 136.1L320.5 136.1L320.5 136.2Q320.5 138.4 321.7 139.7Q322.9 141.0 324.9 141.0L324.9 141.0Q326.3 141.0 327.3 140.5Q328.2 140.0 329.2 138.7L329.2 138.7Q329.7 138.1 330.4 138.1L330.4 138.1Q331.0 138.1 331.4 138.5Q331.8 138.9 331.8 139.5L331.8 139.5Q331.8 139.8 331.5 140.4L331.5 140.4Q330.7 142 329.0 142.9Q327.3 143.8 325 143.8ZM320.6 133.7L320.6 133.7L328.8 133.7Q328.7 131.8 327.6 130.6Q326.5 129.5 324.8 129.5L324.8 129.5Q323 129.5 321.8 130.6Q320.7 131.8 320.6 133.7ZM336.5 143.8L336.5 143.8Q335.7 143.8 335.2 143.3Q334.8 142.8 334.8 142.0L334.8 142.0L334.8 128.4Q334.8 127.7 335.2 127.2Q335.7 126.7 336.4 126.7L336.4 126.7Q337.1 126.7 337.5 127.2Q338.0 127.7 338.0 128.4L338.0 128.4L338.0 129.8L338.0 129.8Q338.4 128.5 339.4 127.6Q340.4 126.8 341.7 126.8L341.7 126.8Q342.5 126.8 343.0 127.2L343.0 127.2Q343.4 127.5 343.4 128.4L343.4 128.4Q343.4 129.1 342.9 129.5L342.9 129.5Q342.4 130.0 341.4 130.0L341.4 130.0Q339.7 130 338.9 131.0Q338.1 132.0 338.1 133.6L338.1 133.6L338.1 142.0Q338.1 142.8 337.7 143.3Q337.2 143.8 336.5 143.8Z M365.9 143.5L353.4 143.5Q352.6 143.5 352.2 143.1Q351.8 142.7 351.8 142L351.8 142Q351.8 141.5 352.0 141.1Q352.2 140.8 352.7 140.2L352.7 140.2L359.8 133.0Q362.0 130.8 362.7 129.6Q363.4 128.4 363.4 127.1L363.4 127.1Q363.4 125.5 362.3 124.4Q361.2 123.4 359.5 123.4L359.5 123.4Q356.2 123.4 355.0 126.7L355.0 126.7Q354.7 127.3 354.4 127.6Q354.0 127.9 353.4 127.9L353.4 127.9Q352.7 127.9 352.3 127.5Q351.9 127.0 351.9 126.4L351.9 126.4Q351.9 126 352.0 125.6L352.0 125.6Q352.1 124.7 352.7 123.8Q353.3 122.9 354.2 122.2Q355.2 121.4 356.5 121.0Q357.9 120.5 359.5 120.5L359.5 120.5Q362.8 120.5 364.8 122.3Q366.9 124.1 366.9 126.9L366.9 126.9Q366.9 128.8 365.8 130.5Q364.8 132.1 361.9 135.0L361.9 135.0L356.5 140.4L356.5 140.5L365.9 140.5Q366.6 140.5 367 140.9Q367.4 141.3 367.4 142L367.4 142Q367.4 142.7 367 143.1Q366.6 143.5 365.9 143.5L365.9 143.5ZM384.9 140.7Q382.7 143.9 378.6 143.9Q374.6 143.9 372.3 140.7Q370.0 137.6 370.0 132.2L370.0 132.2Q370.0 126.8 372.3 123.6Q374.6 120.5 378.6 120.5L378.6 120.5Q382.6 120.5 384.9 123.6Q387.2 126.8 387.2 132.2L387.2 132.2Q387.2 137.6 384.9 140.7ZM378.6 141.0L378.6 141.0Q381.0 141.0 382.4 138.6Q383.7 136.3 383.7 132.2L383.7 132.2Q383.7 128.1 382.4 125.8Q381.0 123.4 378.6 123.4Q376.2 123.4 374.9 125.8Q373.5 128.1 373.5 132.2L373.5 132.2Q373.5 136.3 374.8 138.6Q376.2 141.0 378.6 141.0ZM404.4 143.5L391.9 143.5Q391.1 143.5 390.7 143.1Q390.3 142.7 390.3 142L390.3 142Q390.3 141.5 390.5 141.1Q390.7 140.8 391.2 140.2L391.2 140.2L398.3 133.0Q400.5 130.8 401.2 129.6Q401.9 128.4 401.9 127.1L401.9 127.1Q401.9 125.5 400.8 124.4Q399.7 123.4 398.0 123.4L398.0 123.4Q394.7 123.4 393.5 126.7L393.5 126.7Q393.2 127.3 392.9 127.6Q392.5 127.9 391.9 127.9L391.9 127.9Q391.2 127.9 390.8 127.5Q390.4 127.0 390.4 126.4L390.4 126.4Q390.4 126 390.5 125.6L390.5 125.6Q390.6 124.7 391.2 123.8Q391.8 122.9 392.7 122.2Q393.7 121.4 395.0 121.0Q396.4 120.5 398.0 120.5L398.0 120.5Q401.3 120.5 403.3 122.3Q405.4 124.1 405.4 126.9L405.4 126.9Q405.4 128.8 404.3 130.5Q403.3 132.1 400.4 135.0L400.4 135.0L395.0 140.4L395.0 140.5L404.4 140.5Q405.1 140.5 405.5 140.9Q405.9 141.3 405.9 142L405.9 142Q405.9 142.7 405.5 143.1Q405.1 143.5 404.4 143.5L404.4 143.5ZM421.3 143.8L421.3 143.8Q420.5 143.8 420.0 143.3Q419.6 142.8 419.6 142.0L419.6 142.0L419.6 139.0L410.3 139.0Q409.4 139.0 408.8 138.4Q408.3 137.9 408.3 137L408.3 137Q408.3 135.9 409.0 134.5L409.0 134.5Q411 131.0 416.3 123.3L416.3 123.3Q417.4 121.8 418.2 121.2Q419.0 120.6 420.1 120.6L420.1 120.6Q421.4 120.6 422.2 121.3Q422.9 122 422.9 123.3L422.9 123.3L422.9 136.0L424.7 136.0Q425.4 136.0 425.8 136.5Q426.3 136.9 426.3 137.5Q426.3 138.2 425.8 138.6Q425.4 139.0 424.7 139.0L424.7 139.0L422.9 139.0L422.9 142.0Q422.9 142.8 422.5 143.3Q422 143.8 421.3 143.8ZM411.5 136.1L419.6 136.1L419.6 123.7L419.5 123.7Q413.8 132.0 411.5 136L411.5 136L411.5 136.1Z " clip-path="url(#satori_cp-id-0)" mask="url(#satori_om-id-0)"/><mask id="satori_om-id-0-0-0-1"><rect x="72" y="175" width="1056" height="221" fill="#fff" mask="url(#satori_om-id-0)"/></mask><path fill="#0f172a" d="M96.1 235.3L96.1 235.3Q85.9 235.3 80.1 229.1Q74.3 222.8 74.3 211.9L74.3 211.9Q74.3 201.1 80.1 194.9Q85.9 188.7 95.8 188.7L95.8 188.7Q102.2 188.7 107.0 191.3Q111.9 194.0 113.8 198.3L113.8 198.3Q114.5 199.7 114.5 201.2L114.5 201.2Q114.5 203.0 113.4 204.1Q112.2 205.2 110.4 205.2L110.4 205.2Q107.5 205.2 105.8 202.5L105.8 202.5Q102.5 196.5 95.9 196.5L95.9 196.5Q90.3 196.5 87.1 200.5Q84.0 204.6 84.0 211.7L84.0 211.7Q84.0 219.1 87.3 223.3Q90.6 227.5 96.2 227.5L96.2 227.5Q100.8 227.5 103.8 224.9Q106.7 222.3 106.8 218.1L106.8 218.1L106.9 217.4L100.3 217.4Q98.6 217.4 97.6 216.5Q96.5 215.6 96.5 214.0Q96.5 212.4 97.6 211.4Q98.6 210.5 100.3 210.5L100.3 210.5L111.3 210.5Q113.6 210.5 114.8 211.8Q116.1 213.1 116.1 215.4L116.1 215.4L116.1 216.1Q116.1 224.9 110.8 230.1Q105.5 235.3 96.1 235.3ZM149 230.6Q144.5 235.3 136.9 235.3Q129.2 235.3 124.8 230.6Q120.3 226.0 120.3 217.8L120.3 217.8Q120.3 209.7 124.8 205.0Q129.3 200.3 136.9 200.3L136.9 200.3Q144.5 200.3 149.0 205.0Q153.5 209.7 153.5 217.8L153.5 217.8Q153.5 226.0 149 230.6ZM136.9 228.3L136.9 228.3Q140.3 228.3 142.2 225.6Q144.2 222.8 144.2 217.8L144.2 217.8Q144.2 212.9 142.2 210.1Q140.3 207.3 136.9 207.3Q133.5 207.3 131.5 210.1Q129.5 212.9 129.5 217.8L129.5 217.8Q129.5 222.8 131.5 225.6Q133.5 228.3 136.9 228.3ZM168.1 235.1L168.1 235.1Q163.2 235.1 160.0 232.2Q156.8 229.4 156.8 224.9L156.8 224.9Q156.8 220.4 160.2 217.8Q163.6 215.2 169.9 214.8L169.9 214.8L178.3 214.3L178.3 212.1Q178.3 209.8 176.8 208.5Q175.3 207.1 172.7 207.1L172.7 207.1Q170.6 207.1 169.2 207.9Q167.8 208.7 166.2 210.7L166.2 210.7Q164.7 212.4 162.6 212.4L162.6 212.4Q160.9 212.4 159.9 211.4Q158.8 210.4 158.8 208.9L158.8 208.9Q158.8 207.8 159.3 206.8L159.3 206.8Q160.4 203.8 164.2 202.1Q167.9 200.3 173.1 200.3L173.1 200.3Q179.6 200.3 183.4 203.4Q187.3 206.5 187.3 211.5L187.3 211.5L187.3 230.6Q187.3 232.8 186.1 234.0Q184.9 235.2 182.9 235.2L182.9 235.2Q181.0 235.2 179.8 234.2Q178.6 233.1 178.5 231.1L178.5 231.1L178.5 229.4L178.3 229.4Q176.9 232.1 174.1 233.6Q171.3 235.1 168.1 235.1ZM171.1 228.5L171.1 228.5Q174.1 228.5 176.2 226.7Q178.3 225.0 178.3 222.3L178.3 222.3L178.3 219.8L171.3 220.3Q168.7 220.5 167.3 221.6Q165.9 222.6 165.9 224.4L165.9 224.4Q165.9 226.3 167.3 227.4Q168.8 228.5 171.1 228.5ZM201.3 234.0Q200.0 235.2 198.0 235.2Q195.9 235.2 194.7 234.0Q193.4 232.7 193.4 230.5L193.4 230.5L193.4 193.6Q193.4 191.3 194.7 190.0Q195.9 188.8 198.0 188.8Q200.0 188.8 201.3 190.0Q202.5 191.3 202.5 193.6L202.5 193.6L202.5 230.5Q202.5 232.7 201.3 234.0ZM222.3 235.3L222.3 235.3Q216.7 235.3 212.9 233.4Q209.2 231.6 207.9 228.6L207.9 228.6Q207.6 227.6 207.6 226.9L207.6 226.9Q207.6 225.3 208.6 224.4Q209.7 223.4 211.3 223.4L211.3 223.4Q213.4 223.4 215.3 225.5L215.3 225.5Q216.6 227.2 218.3 228.1Q220 228.9 222.6 228.9L222.6 228.9Q225.1 228.9 226.5 227.9Q228.0 226.9 228.0 225.3L228.0 225.3Q228.0 223.9 227.0 223.1Q226.0 222.3 223.6 221.8L223.6 221.8L218.0 220.6Q213.1 219.5 210.6 217.1Q208.1 214.6 208.1 210.9L208.1 210.9Q208.1 206.1 212.0 203.2Q215.8 200.3 222.3 200.3L222.3 200.3Q227.4 200.3 231.0 202.3Q234.6 204.3 235.4 207.3L235.4 207.3Q235.7 208.1 235.7 208.6L235.7 208.6Q235.7 210.1 234.8 210.9Q233.9 211.7 232.2 211.7L232.2 211.7Q230.0 211.7 228.8 210.3L228.8 210.3Q227.5 208.6 226.0 207.7Q224.4 206.7 222.2 206.7L222.2 206.7Q219.8 206.7 218.4 207.7Q216.9 208.7 216.9 210.4L216.9 210.4Q216.9 211.7 218 212.6Q219.1 213.5 221.6 214.0L221.6 214.0L227.1 215.2Q232.4 216.3 234.8 218.4Q237.2 220.6 237.2 224.3L237.2 224.3Q237.2 229.3 233.1 232.3Q229 235.3 222.3 235.3Z M268.4 235.2L268.4 235.2Q265.8 235.2 264.3 234.1Q262.7 233.0 261.8 230.6L261.8 230.6L253.1 207.2Q252.6 205.7 252.6 204.5L252.6 204.5Q252.6 202.6 253.9 201.5Q255.2 200.4 257.1 200.4L257.1 200.4Q260.5 200.4 261.5 204.0L261.5 204.0L268.3 226.5L268.5 226.5L275.3 203.9Q276.2 200.4 279.5 200.4L279.5 200.4Q281.4 200.4 282.7 201.5Q284.0 202.7 284.0 204.4L284.0 204.4Q284.0 205.6 283.5 207.0L283.5 207.0L274.8 230.6Q273.9 233.0 272.4 234.1Q270.8 235.2 268.4 235.2ZM301.8 235.3L301.8 235.3Q296.1 235.3 292.3 233.4Q288.6 231.6 287.3 228.6L287.3 228.6Q287 227.6 287 226.9L287 226.9Q287 225.3 288.0 224.4Q289.1 223.4 290.7 223.4L290.7 223.4Q292.8 223.4 294.7 225.5L294.7 225.5Q296.0 227.2 297.7 228.1Q299.4 228.9 302.0 228.9L302.0 228.9Q304.5 228.9 306.0 227.9Q307.4 226.9 307.4 225.3L307.4 225.3Q307.4 223.9 306.4 223.1Q305.4 222.3 303 221.8L303 221.8L297.4 220.6Q292.5 219.5 290.0 217.1Q287.5 214.6 287.5 210.9L287.5 210.9Q287.5 206.1 291.4 203.2Q295.2 200.3 301.7 200.3L301.7 200.3Q306.8 200.3 310.4 202.3Q314 204.3 314.8 207.3L314.8 207.3Q315.1 208.1 315.1 208.6L315.1 208.6Q315.1 210.1 314.2 210.9Q313.3 211.7 311.6 211.7L311.6 211.7Q309.4 211.7 308.3 210.3L308.3 210.3Q306.9 208.6 305.4 207.7Q303.8 206.7 301.6 206.7L301.6 206.7Q299.3 206.7 297.8 207.7Q296.3 208.7 296.3 210.4L296.3 210.4Q296.3 211.7 297.4 212.6Q298.5 213.5 301.0 214.0L301.0 214.0L306.5 215.2Q311.8 216.3 314.2 218.4Q316.6 220.6 316.6 224.3L316.6 224.3Q316.6 229.3 312.5 232.3Q308.4 235.3 301.8 235.3ZM330.6 233.5Q329.1 234.9 327 234.9Q324.9 234.9 323.4 233.5Q322.0 232.0 322.0 229.9Q322.0 227.8 323.4 226.3Q324.9 224.9 327 224.9Q329.1 224.9 330.6 226.3Q332.0 227.8 332.0 229.9Q332.0 232.0 330.6 233.5Z M355.3 235.1L355.3 235.1Q353.1 235.1 351.8 233.9Q350.5 232.7 350.5 230.7L350.5 230.7Q350.5 229.5 351.1 227.7L351.1 227.7L363.4 194.2Q364.4 191.4 366.2 190.1Q367.9 188.8 370.5 188.8L370.5 188.8Q373.3 188.8 375.0 190.1Q376.8 191.4 377.8 194.1L377.8 194.1L390.1 227.7Q390.7 229.4 390.7 230.7L390.7 230.7Q390.7 232.6 389.4 233.9Q388.1 235.1 386 235.1L386 235.1Q384 235.1 382.9 234.2Q381.7 233.2 381.1 231.0L381.1 231.0L378.7 223.9L362.4 223.9L360.1 230.9Q359.4 233.1 358.3 234.1Q357.2 235.1 355.3 235.1ZM370.3 198.1L364.5 216.6L376.5 216.6L370.6 198.1L370.3 198.1ZM410.9 235.3L410.9 235.3Q403.3 235.3 398.9 230.6Q394.4 225.9 394.4 217.8L394.4 217.8Q394.4 209.8 398.9 205.1Q403.3 200.3 410.9 200.3L410.9 200.3Q415.9 200.3 419.8 202.5Q423.6 204.7 425 208.3L425 208.3Q425.5 209.6 425.5 210.6L425.5 210.6Q425.5 212.2 424.4 213.2Q423.3 214.1 421.6 214.1L421.6 214.1Q420.3 214.1 419.4 213.6Q418.5 213.0 417.8 211.8L417.8 211.8Q415.3 207.5 411.2 207.5L411.2 207.5Q407.7 207.5 405.7 210.2Q403.7 212.9 403.7 217.8L403.7 217.8Q403.7 222.7 405.7 225.4Q407.7 228.1 411.1 228.1L411.1 228.1Q415.3 228.1 417.7 224.2L417.7 224.2Q418.6 222.7 419.5 222.1Q420.4 221.5 421.8 221.5L421.8 221.5Q423.4 221.5 424.5 222.5Q425.7 223.5 425.7 225.1L425.7 225.1Q425.7 226.2 425.1 227.5L425.1 227.5Q423.6 231.0 419.6 233.1Q415.7 235.3 410.9 235.3ZM433.0 226.0L433.0 226.0L433.0 207.9L431.2 207.9Q429.6 207.9 428.6 207.0Q427.7 206.1 427.7 204.5Q427.7 202.9 428.6 202.0Q429.6 201.1 431.2 201.1L431.2 201.1L433.0 201.1L433.0 197.3Q433.0 195.1 434.2 193.8Q435.4 192.6 437.5 192.6Q439.7 192.6 440.9 193.8Q442.1 195.1 442.1 197.3L442.1 197.3L442.1 201.1L445.3 201.1Q446.9 201.1 447.9 202.0Q448.8 202.9 448.8 204.5Q448.8 206.1 447.9 207.0Q446.9 207.9 445.3 207.9L445.3 207.9L442.1 207.9L442.1 224.0Q442.1 225.7 442.8 226.6Q443.4 227.4 444.9 227.5L444.9 227.5L445.5 227.6Q447.2 227.7 448.1 228.5Q448.9 229.3 448.9 230.9L448.9 230.9Q448.9 232.8 447.2 233.9Q445.4 234.9 442.5 234.9L442.5 234.9L442.2 234.9Q433.0 234.9 433.0 226.0ZM461.5 195.5Q460.1 196.9 458 196.9Q455.9 196.9 454.5 195.5Q453.1 194.1 453.1 192.2L453.1 192.2Q453.1 190.2 454.5 188.8Q455.9 187.5 458 187.5Q460.1 187.5 461.5 188.8Q462.9 190.2 462.9 192.2L462.9 192.2Q462.9 194.1 461.5 195.5ZM461.3 233.9Q460.1 235.2 458 235.2Q455.9 235.2 454.7 233.9Q453.4 232.7 453.4 230.5L453.4 230.5L453.4 205.1Q453.4 202.9 454.7 201.6Q455.9 200.4 458 200.4Q460.1 200.4 461.3 201.6Q462.6 202.9 462.6 205.1L462.6 205.1L462.6 230.5Q462.6 232.7 461.3 233.9ZM496.1 230.6Q491.7 235.3 484 235.3Q476.3 235.3 471.9 230.6Q467.4 226.0 467.4 217.8L467.4 217.8Q467.4 209.7 471.9 205.0Q476.4 200.3 484 200.3L484 200.3Q491.6 200.3 496.1 205.0Q500.6 209.7 500.6 217.8L500.6 217.8Q500.6 226.0 496.1 230.6ZM484 228.3L484 228.3Q487.4 228.3 489.3 225.6Q491.3 222.8 491.3 217.8L491.3 217.8Q491.3 212.9 489.3 210.1Q487.4 207.3 484 207.3Q480.6 207.3 478.6 210.1Q476.7 212.9 476.7 217.8L476.7 217.8Q476.7 222.8 478.6 225.6Q480.6 228.3 484 228.3ZM513.2 234.0Q511.9 235.2 509.8 235.2Q507.8 235.2 506.5 234.0Q505.3 232.7 505.3 230.5L505.3 230.5L505.3 205.0Q505.3 202.8 506.5 201.6Q507.6 200.4 509.7 200.4Q511.8 200.4 513 201.6Q514.3 202.9 514.3 205.0L514.3 205.0L514.3 206.9L514.4 206.9Q517.2 200.4 524.8 200.4L524.8 200.4Q530.3 200.4 533.3 203.7Q536.4 207.1 536.4 213.0L536.4 213.0L536.4 230.5Q536.4 232.7 535.1 234.0Q533.9 235.2 531.8 235.2Q529.8 235.2 528.5 234.0Q527.3 232.7 527.3 230.5L527.3 230.5L527.3 214.9Q527.3 211.6 525.7 209.8Q524.1 208.0 521.1 208.0Q518.1 208.0 516.2 210.0Q514.4 212.1 514.4 215.3L514.4 215.3L514.4 230.5Q514.4 232.7 513.2 234.0ZM555.8 235.3L555.8 235.3Q550.2 235.3 546.4 233.4Q542.6 231.6 541.4 228.6L541.4 228.6Q541.1 227.6 541.1 226.9L541.1 226.9Q541.1 225.3 542.1 224.4Q543.2 223.4 544.8 223.4L544.8 223.4Q546.9 223.4 548.7 225.5L548.7 225.5Q550.1 227.2 551.8 228.1Q553.5 228.9 556.0 228.9L556.0 228.9Q558.5 228.9 560.0 227.9Q561.5 226.9 561.5 225.3L561.5 225.3Q561.5 223.9 560.5 223.1Q559.5 222.3 557.1 221.8L557.1 221.8L551.4 220.6Q546.5 219.5 544.0 217.1Q541.6 214.6 541.6 210.9L541.6 210.9Q541.6 206.1 545.4 203.2Q549.3 200.3 555.8 200.3L555.8 200.3Q560.8 200.3 564.5 202.3Q568.1 204.3 568.9 207.3L568.9 207.3Q569.1 208.1 569.1 208.6L569.1 208.6Q569.1 210.1 568.2 210.9Q567.3 211.7 565.6 211.7L565.6 211.7Q563.5 211.7 562.3 210.3L562.3 210.3Q560.9 208.6 559.4 207.7Q557.9 206.7 555.6 206.7L555.6 206.7Q553.3 206.7 551.8 207.7Q550.4 208.7 550.4 210.4L550.4 210.4Q550.4 211.7 551.5 212.6Q552.6 213.5 555.0 214.0L555.0 214.0L560.6 215.2Q565.9 216.3 568.3 218.4Q570.6 220.6 570.6 224.3L570.6 224.3Q570.6 229.3 566.5 232.3Q562.5 235.3 555.8 235.3Z M597.7 235.1L597.7 235.1Q592.8 235.1 589.7 232.2Q586.5 229.4 586.5 224.9L586.5 224.9Q586.5 220.4 589.8 217.8Q593.2 215.2 599.5 214.8L599.5 214.8L608.0 214.3L608.0 212.1Q608.0 209.8 606.5 208.5Q604.9 207.1 602.3 207.1L602.3 207.1Q600.3 207.1 598.8 207.9Q597.4 208.7 595.8 210.7L595.8 210.7Q594.3 212.4 592.2 212.4L592.2 212.4Q590.6 212.4 589.5 211.4Q588.4 210.4 588.4 208.9L588.4 208.9Q588.4 207.8 588.9 206.8L588.9 206.8Q590.0 203.8 593.8 202.1Q597.5 200.3 602.8 200.3L602.8 200.3Q609.2 200.3 613.1 203.4Q616.9 206.5 616.9 211.5L616.9 211.5L616.9 230.6Q616.9 232.8 615.7 234.0Q614.5 235.2 612.5 235.2L612.5 235.2Q610.6 235.2 609.4 234.2Q608.3 233.1 608.1 231.1L608.1 231.1L608.1 229.4L607.9 229.4Q606.6 232.1 603.7 233.6Q600.9 235.1 597.7 235.1ZM600.7 228.5L600.7 228.5Q603.7 228.5 605.8 226.7Q608.0 225.0 608.0 222.3L608.0 222.3L608.0 219.8L600.9 220.3Q598.3 220.5 597.0 221.6Q595.6 222.6 595.6 224.4L595.6 224.4Q595.6 226.3 597.0 227.4Q598.4 228.5 600.7 228.5ZM636.5 235.3L636.5 235.3Q630.8 235.3 627.1 233.4Q623.3 231.6 622.1 228.6L622.1 228.6Q621.7 227.6 621.7 226.9L621.7 226.9Q621.7 225.3 622.8 224.4Q623.8 223.4 625.4 223.4L625.4 223.4Q627.5 223.4 629.4 225.5L629.4 225.5Q630.8 227.2 632.4 228.1Q634.1 228.9 636.7 228.9L636.7 228.9Q639.2 228.9 640.7 227.9Q642.2 226.9 642.2 225.3L642.2 225.3Q642.2 223.9 641.2 223.1Q640.2 222.3 637.7 221.8L637.7 221.8L632.1 220.6Q627.2 219.5 624.7 217.1Q622.2 214.6 622.2 210.9L622.2 210.9Q622.2 206.1 626.1 203.2Q629.9 200.3 636.4 200.3L636.4 200.3Q641.5 200.3 645.1 202.3Q648.7 204.3 649.6 207.3L649.6 207.3Q649.8 208.1 649.8 208.6L649.8 208.6Q649.8 210.1 648.9 210.9Q648 211.7 646.3 211.7L646.3 211.7Q644.2 211.7 643.0 210.3L643.0 210.3Q641.6 208.6 640.1 207.7Q638.6 206.7 636.3 206.7L636.3 206.7Q634.0 206.7 632.5 207.7Q631.0 208.7 631.0 210.4L631.0 210.4Q631.0 211.7 632.1 212.6Q633.2 213.5 635.7 214.0L635.7 214.0L641.2 215.2Q646.6 216.3 648.9 218.4Q651.3 220.6 651.3 224.3L651.3 224.3Q651.3 229.3 647.2 232.3Q643.1 235.3 636.5 235.3Z M688.1 235.3L688.1 235.3Q679.5 235.3 674.4 230.7Q669.2 226.1 669.2 218.6L669.2 218.6L669.2 193.8Q669.2 191.4 670.5 190.1Q671.7 188.8 673.9 188.8Q676.2 188.8 677.4 190.1Q678.7 191.4 678.7 193.8L678.7 193.8L678.7 217.7Q678.7 222.1 681.1 224.7Q683.6 227.2 688.1 227.2L688.1 227.2Q692.6 227.2 695.1 224.7Q697.6 222.1 697.6 217.7L697.6 217.7L697.6 193.8Q697.6 191.4 698.8 190.1Q700.1 188.8 702.3 188.8Q704.5 188.8 705.8 190.1Q707 191.4 707 193.8L707 193.8L707 218.6Q707 226.1 701.9 230.7Q696.7 235.3 688.1 235.3ZM727.4 235.3L727.4 235.3Q721.8 235.3 718.0 233.4Q714.2 231.6 713.0 228.6L713.0 228.6Q712.6 227.6 712.6 226.9L712.6 226.9Q712.6 225.3 713.7 224.4Q714.7 223.4 716.3 223.4L716.3 223.4Q718.4 223.4 720.3 225.5L720.3 225.5Q721.7 227.2 723.3 228.1Q725.0 228.9 727.6 228.9L727.6 228.9Q730.1 228.9 731.6 227.9Q733.1 226.9 733.1 225.3L733.1 225.3Q733.1 223.9 732.1 223.1Q731.1 222.3 728.6 221.8L728.6 221.8L723 220.6Q718.1 219.5 715.6 217.1Q713.1 214.6 713.1 210.9L713.1 210.9Q713.1 206.1 717.0 203.2Q720.8 200.3 727.3 200.3L727.3 200.3Q732.4 200.3 736.0 202.3Q739.6 204.3 740.5 207.3L740.5 207.3Q740.7 208.1 740.7 208.6L740.7 208.6Q740.7 210.1 739.8 210.9Q738.9 211.7 737.2 211.7L737.2 211.7Q735.1 211.7 733.9 210.3L733.9 210.3Q732.5 208.6 731.0 207.7Q729.5 206.7 727.2 206.7L727.2 206.7Q724.9 206.7 723.4 207.7Q721.9 208.7 721.9 210.4L721.9 210.4Q721.9 211.7 723.0 212.6Q724.1 213.5 726.6 214.0L726.6 214.0L732.1 215.2Q737.5 216.3 739.8 218.4Q742.2 220.6 742.2 224.3L742.2 224.3Q742.2 229.3 738.1 232.3Q734.0 235.3 727.4 235.3ZM762.1 235.3L762.1 235.3Q754.3 235.3 749.9 230.7Q745.5 226.1 745.5 218.0L745.5 218.0Q745.5 209.9 749.8 205.1Q754.2 200.3 761.7 200.3L761.7 200.3Q768.8 200.3 773.1 204.7Q777.5 209.1 777.5 215.9L777.5 215.9Q777.5 217.8 776.5 218.9Q775.5 219.9 773.6 219.9L773.6 219.9L754.4 219.9L754.4 220.3Q754.4 224.0 756.5 226.3Q758.6 228.5 762.1 228.5L762.1 228.5Q764.6 228.5 766.4 227.6Q768.2 226.7 770.1 224.5L770.1 224.5Q771.4 223.1 773.0 223.1L773.0 223.1Q774.6 223.1 775.6 224.1Q776.6 225.0 776.6 226.5L776.6 226.5Q776.6 227.6 776.0 228.7L776.0 228.7Q774.3 231.8 770.6 233.5Q766.9 235.3 762.1 235.3ZM754.5 214.3L754.5 214.3L768.8 214.3Q768.6 211.0 766.7 209.1Q764.8 207.1 761.8 207.1Q758.8 207.1 756.8 209.1Q754.8 211.1 754.5 214.3ZM786.8 235.2L786.8 235.2Q784.7 235.2 783.5 234.0Q782.2 232.7 782.2 230.5L782.2 230.5L782.2 205.0Q782.2 202.8 783.4 201.6Q784.6 200.4 786.6 200.4L786.6 200.4Q788.6 200.4 789.8 201.6Q790.9 202.8 790.9 205.0L790.9 205.0L790.9 207.1L791.1 207.1Q791.8 204.1 793.7 202.3Q795.6 200.5 798.1 200.5L798.1 200.5Q799.9 200.5 800.9 201.4L800.9 201.4Q802.3 202.4 802.3 204.7L802.3 204.7Q802.3 206.9 800.9 208.0L800.9 208.0Q799.6 209.2 797.0 209.2L797.0 209.2Q794.0 209.2 792.7 210.8Q791.3 212.5 791.3 215.6L791.3 215.6L791.3 230.5Q791.3 232.7 790.1 234.0Q788.9 235.2 786.8 235.2ZM823.2 220.2L810.2 220.2Q808.3 220.2 807.0 219.1Q805.8 218.1 805.8 216.2Q805.8 214.4 807.0 213.3Q808.3 212.2 810.2 212.2L810.2 212.2L823.2 212.2Q825.1 212.2 826.3 213.3Q827.5 214.4 827.5 216.2Q827.5 218.1 826.3 219.1Q825.1 220.2 823.2 220.2L823.2 220.2ZM842.8 233.8Q841.5 235.1 839.3 235.1Q837.1 235.1 835.8 233.8Q834.6 232.6 834.6 230.2L834.6 230.2L834.6 194.4Q834.6 192.1 835.8 190.8Q837.1 189.5 839.3 189.5L839.3 189.5L860.4 189.5Q862.3 189.5 863.5 190.5Q864.7 191.6 864.7 193.4Q864.7 195.2 863.5 196.2Q862.3 197.3 860.4 197.3L860.4 197.3L844 197.3L844 209.3L858.8 209.3Q860.7 209.3 861.8 210.3Q862.9 211.3 862.9 213.1L862.9 213.1Q862.9 214.8 861.8 215.8Q860.7 216.8 858.8 216.8L858.8 216.8L844 216.8L844 230.2Q844 232.6 842.8 233.8ZM878.8 235.1L878.8 235.1Q873.9 235.1 870.8 232.2Q867.6 229.4 867.6 224.9L867.6 224.9Q867.6 220.4 870.9 217.8Q874.3 215.2 880.6 214.8L880.6 214.8L889.1 214.3L889.1 212.1Q889.1 209.8 887.5 208.5Q886.0 207.1 883.4 207.1L883.4 207.1Q881.3 207.1 879.9 207.9Q878.5 208.7 876.9 210.7L876.9 210.7Q875.4 212.4 873.3 212.4L873.3 212.4Q871.7 212.4 870.6 211.4Q869.5 210.4 869.5 208.9L869.5 208.9Q869.5 207.8 870.0 206.8L870.0 206.8Q871.1 203.8 874.9 202.1Q878.6 200.3 883.8 200.3L883.8 200.3Q890.3 200.3 894.2 203.4Q898.0 206.5 898.0 211.5L898.0 211.5L898.0 230.6Q898.0 232.8 896.8 234.0Q895.6 235.2 893.6 235.2L893.6 235.2Q891.7 235.2 890.5 234.2Q889.3 233.1 889.2 231.1L889.2 231.1L889.2 229.4L889.0 229.4Q887.7 232.1 884.8 233.6Q882 235.1 878.8 235.1ZM881.8 228.5L881.8 228.5Q884.8 228.5 886.9 226.7Q889.1 225.0 889.1 222.3L889.1 222.3L889.1 219.8L882 220.3Q879.4 220.5 878.0 221.6Q876.7 222.6 876.7 224.4L876.7 224.4Q876.7 226.3 878.1 227.4Q879.5 228.5 881.8 228.5ZM919.2 235.3L919.2 235.3Q911.6 235.3 907.1 230.6Q902.7 225.9 902.7 217.8L902.7 217.8Q902.7 209.8 907.1 205.1Q911.6 200.3 919.1 200.3L919.1 200.3Q924.1 200.3 928 202.5Q931.9 204.7 933.3 208.3L933.3 208.3Q933.8 209.6 933.8 210.6L933.8 210.6Q933.8 212.2 932.6 213.2Q931.5 214.1 929.8 214.1L929.8 214.1Q928.5 214.1 927.6 213.6Q926.7 213.0 926 211.8L926 211.8Q923.6 207.5 919.4 207.5L919.4 207.5Q915.9 207.5 913.9 210.2Q911.9 212.9 911.9 217.8L911.9 217.8Q911.9 222.7 913.9 225.4Q915.9 228.1 919.3 228.1L919.3 228.1Q923.6 228.1 925.9 224.2L925.9 224.2Q926.8 222.7 927.8 222.1Q928.7 221.5 930.1 221.5L930.1 221.5Q931.7 221.5 932.8 222.5Q933.9 223.5 933.9 225.1L933.9 225.1Q933.9 226.2 933.3 227.5L933.3 227.5Q931.8 231.0 927.9 233.1Q924.0 235.3 919.2 235.3ZM947.0 195.5Q945.6 196.9 943.5 196.9Q941.4 196.9 940.0 195.5Q938.6 194.1 938.6 192.2L938.6 192.2Q938.6 190.2 940.0 188.8Q941.4 187.5 943.5 187.5Q945.6 187.5 947.0 188.8Q948.4 190.2 948.4 192.2L948.4 192.2Q948.4 194.1 947.0 195.5ZM946.8 233.9Q945.6 235.2 943.5 235.2Q941.4 235.2 940.2 233.9Q938.9 232.7 938.9 230.5L938.9 230.5L938.9 205.1Q938.9 202.9 940.2 201.6Q941.4 200.4 943.5 200.4Q945.6 200.4 946.8 201.6Q948.1 202.9 948.1 205.1L948.1 205.1L948.1 230.5Q948.1 232.7 946.8 233.9ZM962 234.0Q960.8 235.2 958.7 235.2Q956.6 235.2 955.4 234.0Q954.1 232.7 954.1 230.5L954.1 230.5L954.1 205.0Q954.1 202.8 955.3 201.6Q956.5 200.4 958.5 200.4Q960.6 200.4 961.8 201.6Q963.1 202.9 963.1 205.0L963.1 205.0L963.1 206.9L963.3 206.9Q966.0 200.4 973.6 200.4L973.6 200.4Q979.2 200.4 982.2 203.7Q985.2 207.1 985.2 213.0L985.2 213.0L985.2 230.5Q985.2 232.7 984.0 234.0Q982.7 235.2 980.7 235.2Q978.6 235.2 977.3 234.0Q976.1 232.7 976.1 230.5L976.1 230.5L976.1 214.9Q976.1 211.6 974.5 209.8Q973.0 208.0 969.9 208.0Q966.9 208.0 965.1 210.0Q963.3 212.1 963.3 215.3L963.3 215.3L963.3 230.5Q963.3 232.7 962 234.0ZM1006.0 247.1L1006.0 247.1Q1001 247.1 997.3 245.4Q993.6 243.7 991.9 241.0L991.9 241.0Q991.2 239.8 991.2 238.5L991.2 238.5Q991.2 237.0 992.2 236.1Q993.2 235.1 994.9 235.1L994.9 235.1Q996.6 235.1 998.1 236.4L998.1 236.4Q1001.9 240.1 1005.9 240.1L1005.9 240.1Q1009.7 240.1 1011.8 238.2Q1013.9 236.4 1013.9 233.2L1013.9 233.2L1013.9 227.8L1013.7 227.8Q1012.5 230.6 1009.7 232.2Q1007.0 233.8 1003.4 233.8L1003.4 233.8Q997.1 233.8 993.5 229.4Q989.8 224.9 989.8 217.2L989.8 217.2Q989.8 209.4 993.4 204.9Q997.1 200.5 1003.5 200.5L1003.5 200.5Q1007.1 200.5 1009.7 202.2Q1012.4 203.9 1013.8 206.8L1013.8 206.8L1013.9 206.8L1013.9 205.0Q1013.9 202.7 1015.2 201.6Q1016.5 200.4 1018.5 200.4L1018.5 200.4Q1020.6 200.4 1021.8 201.6Q1023.1 202.7 1023.1 205.0L1023.1 205.0L1023.1 233.2Q1023.1 239.8 1018.5 243.5Q1014.0 247.2 1006.0 247.1ZM1006.5 227.1L1006.5 227.1Q1009.9 227.1 1011.9 224.5Q1014.0 221.9 1014.0 217.4Q1014.0 212.8 1011.9 210.1Q1009.9 207.5 1006.5 207.5L1006.5 207.5Q1003.1 207.5 1001.1 210.1Q999.1 212.8 999.1 217.3L999.1 217.3Q999.1 221.9 1001.1 224.5Q1003.1 227.1 1006.5 227.1Z M83.9 307.5Q82.7 308.8 80.5 308.8Q78.3 308.8 77 307.5Q75.8 306.2 75.8 303.9L75.8 303.9L75.8 268.0Q75.8 265.6 77 264.4Q78.3 263.1 80.5 263.1L80.5 263.1L94.2 263.1Q101.9 263.1 106.2 266.9Q110.5 270.7 110.5 277.4L110.5 277.4Q110.5 281.7 108.5 285.1Q106.5 288.4 102.8 290.0L102.8 290.0L109.3 301.2Q110.3 303.0 110.3 304.5L110.3 304.5Q110.3 306.4 108.9 307.6Q107.6 308.8 105.5 308.8L105.5 308.8Q103.8 308.8 102.9 308.1Q101.9 307.3 100.7 305.2L100.7 305.2L93.2 291.6L85.2 291.6L85.2 303.9Q85.2 306.2 83.9 307.5ZM85.2 270.4L85.2 284.8L93.3 284.8Q96.9 284.8 98.9 282.9Q100.8 281.0 100.8 277.6L100.8 277.6Q100.8 274.3 98.8 272.4Q96.7 270.4 93.2 270.4L93.2 270.4L85.2 270.4ZM131.3 308.9L131.3 308.9Q123.5 308.9 119.1 304.3Q114.7 299.7 114.7 291.6L114.7 291.6Q114.7 283.5 119.1 278.7Q123.5 273.9 130.9 273.9L130.9 273.9Q138 273.9 142.4 278.3Q146.8 282.6 146.8 289.5L146.8 289.5Q146.8 291.4 145.8 292.5Q144.7 293.5 142.8 293.5L142.8 293.5L123.7 293.5L123.7 293.9Q123.7 297.6 125.8 299.9Q127.8 302.1 131.3 302.1L131.3 302.1Q133.8 302.1 135.6 301.2Q137.5 300.3 139.3 298.1L139.3 298.1Q140.6 296.7 142.3 296.7L142.3 296.7Q143.8 296.7 144.8 297.6Q145.8 298.6 145.8 300.1L145.8 300.1Q145.8 301.1 145.2 302.3L145.2 302.3Q143.6 305.4 139.9 307.1Q136.2 308.9 131.3 308.9ZM123.8 287.9L123.8 287.9L138 287.9Q137.9 284.6 135.9 282.6Q134 280.7 131 280.7Q128 280.7 126.0 282.7Q124.0 284.7 123.8 287.9ZM159.3 318.9Q158.1 320.1 156.0 320.1Q154.0 320.1 152.7 318.9Q151.5 317.6 151.5 315.3L151.5 315.3L151.5 278.6Q151.5 276.4 152.7 275.2Q153.9 274.0 156.0 274.0Q158 274.0 159.2 275.2Q160.5 276.4 160.5 278.7L160.5 278.7L160.5 280.5L160.7 280.5Q162.0 277.5 164.7 275.8Q167.4 274.1 171.0 274.1L171.0 274.1Q177.4 274.1 181.1 278.7Q184.8 283.3 184.8 291.4L184.8 291.4Q184.8 299.5 181.1 304.1Q177.5 308.7 171.2 308.7L171.2 308.7Q167.6 308.7 164.9 307.0Q162.1 305.4 160.8 302.5L160.8 302.5L160.6 302.5L160.6 315.3Q160.6 317.6 159.3 318.9ZM168.0 301.3L168.0 301.3Q171.4 301.3 173.4 298.6Q175.4 296.0 175.4 291.4Q175.4 286.8 173.4 284.1Q171.4 281.4 168.0 281.4L168.0 281.4Q164.6 281.4 162.6 284.2Q160.6 286.9 160.6 291.4L160.6 291.4Q160.6 295.9 162.6 298.6Q164.6 301.3 168.0 301.3ZM194 308.8L194 308.8Q191.9 308.8 190.7 307.6Q189.4 306.3 189.4 304.1L189.4 304.1L189.4 278.6Q189.4 276.4 190.6 275.2Q191.8 274.0 193.8 274.0L193.8 274.0Q195.8 274.0 197.0 275.2Q198.2 276.4 198.2 278.6L198.2 278.6L198.2 280.7L198.3 280.7Q199 277.6 200.9 275.9Q202.8 274.1 205.3 274.1L205.3 274.1Q207.2 274.1 208.2 275.0L208.2 275.0Q209.5 276.0 209.5 278.3L209.5 278.3Q209.5 280.5 208.2 281.6L208.2 281.6Q206.8 282.8 204.2 282.8L204.2 282.8Q201.2 282.8 199.9 284.4Q198.6 286.1 198.6 289.2L198.6 289.2L198.6 304.1Q198.6 306.3 197.3 307.6Q196.1 308.8 194 308.8ZM228.1 308.9L228.1 308.9Q220.3 308.9 215.9 304.3Q211.5 299.7 211.5 291.6L211.5 291.6Q211.5 283.5 215.9 278.7Q220.3 273.9 227.7 273.9L227.7 273.9Q234.8 273.9 239.2 278.3Q243.6 282.6 243.6 289.5L243.6 289.5Q243.6 291.4 242.5 292.5Q241.5 293.5 239.6 293.5L239.6 293.5L220.5 293.5L220.5 293.9Q220.5 297.6 222.5 299.9Q224.6 302.1 228.1 302.1L228.1 302.1Q230.6 302.1 232.4 301.2Q234.3 300.3 236.1 298.1L236.1 298.1Q237.4 296.7 239.1 296.7L239.1 296.7Q240.6 296.7 241.6 297.6Q242.6 298.6 242.6 300.1L242.6 300.1Q242.6 301.1 242 302.3L242 302.3Q240.3 305.4 236.7 307.1Q233.0 308.9 228.1 308.9ZM220.6 287.9L220.6 287.9L234.8 287.9Q234.7 284.6 232.7 282.6Q230.8 280.7 227.8 280.7Q224.8 280.7 222.8 282.7Q220.8 284.7 220.6 287.9ZM261.9 308.9L261.9 308.9Q256.3 308.9 252.5 307.0Q248.7 305.2 247.5 302.2L247.5 302.2Q247.2 301.2 247.2 300.5L247.2 300.5Q247.2 298.9 248.2 298.0Q249.3 297.0 250.8 297.0L250.8 297.0Q253.0 297.0 254.8 299.1L254.8 299.1Q256.2 300.8 257.9 301.6Q259.6 302.5 262.1 302.5L262.1 302.5Q264.6 302.5 266.1 301.5Q267.6 300.5 267.6 298.9L267.6 298.9Q267.6 297.5 266.6 296.7Q265.6 295.9 263.2 295.4L263.2 295.4L257.5 294.2Q252.6 293.1 250.1 290.7Q247.7 288.2 247.7 284.5L247.7 284.5Q247.7 279.6 251.5 276.8Q255.4 273.9 261.9 273.9L261.9 273.9Q266.9 273.9 270.5 275.9Q274.2 277.9 275 280.9L275 280.9Q275.2 281.7 275.2 282.2L275.2 282.2Q275.2 283.6 274.3 284.5Q273.4 285.3 271.7 285.3L271.7 285.3Q269.6 285.3 268.4 283.9L268.4 283.9Q267.0 282.2 265.5 281.3Q264 280.3 261.7 280.3L261.7 280.3Q259.4 280.3 257.9 281.3Q256.5 282.3 256.5 284.0L256.5 284.0Q256.5 285.3 257.6 286.2Q258.7 287.1 261.1 287.6L261.1 287.6L266.7 288.8Q272 289.9 274.4 292.0Q276.7 294.1 276.7 297.9L276.7 297.9Q276.7 302.9 272.6 305.9Q268.6 308.9 261.9 308.9ZM296.6 308.9L296.6 308.9Q288.8 308.9 284.4 304.3Q280 299.7 280 291.6L280 291.6Q280 283.5 284.4 278.7Q288.8 273.9 296.2 273.9L296.2 273.9Q303.3 273.9 307.7 278.3Q312.1 282.6 312.1 289.5L312.1 289.5Q312.1 291.4 311.0 292.5Q310 293.5 308.1 293.5L308.1 293.5L289.0 293.5L289.0 293.9Q289.0 297.6 291.0 299.9Q293.1 302.1 296.6 302.1L296.6 302.1Q299.1 302.1 300.9 301.2Q302.8 300.3 304.6 298.1L304.6 298.1Q305.9 296.7 307.6 296.7L307.6 296.7Q309.1 296.7 310.1 297.6Q311.1 298.6 311.1 300.1L311.1 300.1Q311.1 301.1 310.5 302.3L310.5 302.3Q308.8 305.4 305.2 307.1Q301.5 308.9 296.6 308.9ZM289.1 287.9L289.1 287.9L303.3 287.9Q303.2 284.6 301.2 282.6Q299.3 280.7 296.3 280.7Q293.3 280.7 291.3 282.7Q289.3 284.7 289.1 287.9ZM324.6 307.6Q323.4 308.8 321.3 308.8Q319.3 308.8 318 307.6Q316.8 306.3 316.8 304.1L316.8 304.1L316.8 278.6Q316.8 276.4 317.9 275.2Q319.1 274.0 321.2 274.0Q323.2 274.0 324.5 275.2Q325.7 276.5 325.7 278.6L325.7 278.6L325.7 280.5L325.9 280.5Q328.7 274.0 336.2 274.0L336.2 274.0Q341.8 274.0 344.8 277.3Q347.8 280.6 347.8 286.6L347.8 286.6L347.8 304.1Q347.8 306.3 346.6 307.6Q345.3 308.8 343.3 308.8Q341.2 308.8 340.0 307.6Q338.7 306.3 338.7 304.1L338.7 304.1L338.7 288.5Q338.7 285.1 337.2 283.4Q335.6 281.6 332.6 281.6Q329.5 281.6 327.7 283.6Q325.9 285.6 325.9 288.9L325.9 288.9L325.9 304.1Q325.9 306.3 324.6 307.6ZM356.1 299.6L356.1 299.6L356.1 281.5L354.3 281.5Q352.7 281.5 351.7 280.6Q350.8 279.7 350.8 278.1Q350.8 276.5 351.7 275.6Q352.7 274.6 354.3 274.6L354.3 274.6L356.1 274.6L356.1 270.9Q356.1 268.7 357.3 267.4Q358.5 266.2 360.6 266.2Q362.8 266.2 364.0 267.4Q365.2 268.7 365.2 270.9L365.2 270.9L365.2 274.6L368.4 274.6Q370.0 274.6 371.0 275.6Q371.9 276.5 371.9 278.1Q371.9 279.6 371.0 280.6Q370.0 281.5 368.4 281.5L368.4 281.5L365.2 281.5L365.2 297.6Q365.2 299.3 365.8 300.1Q366.5 301.0 368.0 301.1L368.0 301.1L368.6 301.1Q370.3 301.3 371.2 302.1Q372.0 302.9 372.0 304.5L372.0 304.5Q372.0 306.4 370.3 307.5Q368.5 308.5 365.6 308.5L365.6 308.5L365.3 308.5Q356.1 308.5 356.1 299.6ZM386.3 308.7L386.3 308.7Q381.4 308.7 378.3 305.8Q375.1 303.0 375.1 298.5L375.1 298.5Q375.1 294.0 378.4 291.4Q381.8 288.8 388.1 288.4L388.1 288.4L396.6 287.9L396.6 285.7Q396.6 283.4 395.0 282.1Q393.5 280.7 390.9 280.7L390.9 280.7Q388.8 280.7 387.4 281.5Q386.0 282.3 384.4 284.3L384.4 284.3Q382.9 286.0 380.8 286.0L380.8 286.0Q379.2 286.0 378.1 285.0Q377 284.0 377 282.5L377 282.5Q377 281.4 377.5 280.4L377.5 280.4Q378.6 277.4 382.4 275.7Q386.1 273.9 391.3 273.9L391.3 273.9Q397.8 273.9 401.7 277.0Q405.5 280.1 405.5 285.1L405.5 285.1L405.5 304.2Q405.5 306.4 404.3 307.6Q403.1 308.8 401.1 308.8L401.1 308.8Q399.2 308.8 398.0 307.8Q396.8 306.7 396.7 304.7L396.7 304.7L396.7 303.0L396.5 303.0Q395.2 305.6 392.3 307.2Q389.5 308.7 386.3 308.7ZM389.3 302.1L389.3 302.1Q392.3 302.1 394.4 300.3Q396.6 298.6 396.6 295.9L396.6 295.9L396.6 293.4L389.5 293.9Q386.9 294.1 385.5 295.1Q384.2 296.2 384.2 298.0L384.2 298.0Q384.2 299.9 385.6 301.0Q387.0 302.1 389.3 302.1ZM413.8 299.6L413.8 299.6L413.8 281.5L412.1 281.5Q410.5 281.5 409.5 280.6Q408.6 279.7 408.6 278.1Q408.6 276.5 409.5 275.6Q410.5 274.6 412.1 274.6L412.1 274.6L413.8 274.6L413.8 270.9Q413.8 268.7 415.1 267.4Q416.3 266.2 418.4 266.2Q420.5 266.2 421.8 267.4Q423.0 268.7 423.0 270.9L423.0 270.9L423.0 274.6L426.2 274.6Q427.8 274.6 428.8 275.6Q429.7 276.5 429.7 278.1Q429.7 279.6 428.8 280.6Q427.8 281.5 426.2 281.5L426.2 281.5L423.0 281.5L423.0 297.6Q423.0 299.3 423.6 300.1Q424.3 301.0 425.8 301.1L425.8 301.1L426.3 301.1Q428.1 301.3 429.0 302.1Q429.8 302.9 429.8 304.5L429.8 304.5Q429.8 306.4 428.1 307.5Q426.3 308.5 423.3 308.5L423.3 308.5L423.0 308.5Q413.8 308.5 413.8 299.6ZM442.3 269.1Q440.9 270.5 438.9 270.5Q436.8 270.5 435.4 269.1Q434 267.7 434 265.8L434 265.8Q434 263.8 435.4 262.4Q436.8 261.1 438.9 261.1Q440.9 261.1 442.3 262.4Q443.8 263.8 443.8 265.8L443.8 265.8Q443.8 267.7 442.3 269.1ZM442.2 307.5Q441 308.8 438.9 308.8Q436.8 308.8 435.5 307.5Q434.3 306.3 434.3 304.1L434.3 304.1L434.3 278.7Q434.3 276.5 435.5 275.2Q436.8 274.0 438.9 274.0Q441 274.0 442.2 275.2Q443.4 276.5 443.4 278.7L443.4 278.7L443.4 304.1Q443.4 306.3 442.2 307.5ZM477 304.2Q472.5 308.9 464.9 308.9Q457.2 308.9 452.8 304.2Q448.3 299.6 448.3 291.4L448.3 291.4Q448.3 283.3 452.8 278.6Q457.3 273.9 464.9 273.9L464.9 273.9Q472.5 273.9 477.0 278.6Q481.5 283.3 481.5 291.4L481.5 291.4Q481.5 299.6 477 304.2ZM464.9 301.9L464.9 301.9Q468.3 301.9 470.2 299.1Q472.2 296.4 472.2 291.4L472.2 291.4Q472.2 286.5 470.2 283.7Q468.3 280.9 464.9 280.9Q461.5 280.9 459.5 283.7Q457.5 286.5 457.5 291.4L457.5 291.4Q457.5 296.4 459.5 299.1Q461.5 301.9 464.9 301.9ZM494.0 307.6Q492.8 308.8 490.7 308.8Q488.7 308.8 487.4 307.6Q486.2 306.3 486.2 304.1L486.2 304.1L486.2 278.6Q486.2 276.4 487.3 275.2Q488.5 274.0 490.6 274.0Q492.6 274.0 493.9 275.2Q495.1 276.5 495.1 278.6L495.1 278.6L495.1 280.5L495.3 280.5Q498.1 274.0 505.6 274.0L505.6 274.0Q511.2 274.0 514.2 277.3Q517.3 280.6 517.3 286.6L517.3 286.6L517.3 304.1Q517.3 306.3 516 307.6Q514.8 308.8 512.7 308.8Q510.6 308.8 509.4 307.6Q508.1 306.3 508.1 304.1L508.1 304.1L508.1 288.5Q508.1 285.1 506.6 283.4Q505 281.6 502.0 281.6Q498.9 281.6 497.1 283.6Q495.3 285.6 495.3 288.9L495.3 288.9L495.3 304.1Q495.3 306.3 494.0 307.6ZM536.7 308.9L536.7 308.9Q531.1 308.9 527.3 307.0Q523.5 305.2 522.3 302.2L522.3 302.2Q521.9 301.2 521.9 300.5L521.9 300.5Q521.9 298.9 523.0 298.0Q524.0 297.0 525.6 297.0L525.6 297.0Q527.8 297.0 529.6 299.1L529.6 299.1Q531.0 300.8 532.7 301.6Q534.3 302.5 536.9 302.5L536.9 302.5Q539.4 302.5 540.9 301.5Q542.4 300.5 542.4 298.9L542.4 298.9Q542.4 297.5 541.4 296.7Q540.4 295.9 537.9 295.4L537.9 295.4L532.3 294.2Q527.4 293.1 524.9 290.7Q522.4 288.2 522.4 284.5L522.4 284.5Q522.4 279.6 526.3 276.8Q530.2 273.9 536.7 273.9L536.7 273.9Q541.7 273.9 545.3 275.9Q548.9 277.9 549.8 280.9L549.8 280.9Q550 281.7 550 282.2L550 282.2Q550 283.6 549.1 284.5Q548.2 285.3 546.5 285.3L546.5 285.3Q544.4 285.3 543.2 283.9L543.2 283.9Q541.8 282.2 540.3 281.3Q538.8 280.3 536.5 280.3L536.5 280.3Q534.2 280.3 532.7 281.3Q531.3 282.3 531.3 284.0L531.3 284.0Q531.3 285.3 532.3 286.2Q533.4 287.1 535.9 287.6L535.9 287.6L541.4 288.8Q546.8 289.9 549.1 292.0Q551.5 294.1 551.5 297.9L551.5 297.9Q551.5 302.9 547.4 305.9Q543.3 308.9 536.7 308.9Z M579.0 307.6Q577.8 308.8 575.7 308.8Q573.6 308.8 572.3 307.6Q571.1 306.4 571.1 304.1L571.1 304.1L571.1 281.5L569.3 281.5Q567.9 281.5 566.9 280.6Q566 279.7 566 278.1Q566 276.6 566.9 275.7Q567.9 274.8 569.3 274.8L569.3 274.8L571.1 274.8L571.1 272.3Q571.1 267.4 573.5 265.0Q575.8 262.7 580.7 262.6L580.7 262.6Q584.2 262.6 585.8 263.6Q587.5 264.6 587.5 266.3L587.5 266.3Q587.5 268.2 585.7 268.7L585.7 268.7Q584.8 269.0 583.9 269.0L583.9 269.0Q581.8 269.1 580.9 269.9Q580 270.8 580 272.7L580 272.7L580 274.8L583.8 274.8Q585.3 274.8 586.3 275.7Q587.2 276.6 587.2 278.1Q587.2 279.7 586.3 280.6Q585.3 281.5 583.8 281.5L583.8 281.5L580.2 281.5L580.2 304.1Q580.2 306.4 579.0 307.6ZM618.9 304.2Q614.5 308.9 606.8 308.9Q599.2 308.9 594.7 304.2Q590.2 299.6 590.2 291.4L590.2 291.4Q590.2 283.3 594.7 278.6Q599.3 273.9 606.8 273.9L606.8 273.9Q614.4 273.9 618.9 278.6Q623.4 283.3 623.4 291.4L623.4 291.4Q623.4 299.6 618.9 304.2ZM606.8 301.9L606.8 301.9Q610.2 301.9 612.2 299.1Q614.1 296.4 614.1 291.4L614.1 291.4Q614.1 286.5 612.2 283.7Q610.2 280.9 606.8 280.9Q603.4 280.9 601.5 283.7Q599.5 286.5 599.5 291.4L599.5 291.4Q599.5 296.4 601.4 299.1Q603.4 301.9 606.8 301.9ZM632.7 308.8L632.7 308.8Q630.6 308.8 629.3 307.6Q628.1 306.3 628.1 304.1L628.1 304.1L628.1 278.6Q628.1 276.4 629.3 275.2Q630.5 274.0 632.5 274.0L632.5 274.0Q634.4 274.0 635.6 275.2Q636.8 276.4 636.8 278.6L636.8 278.6L636.8 280.7L637 280.7Q637.7 277.6 639.5 275.9Q641.4 274.1 644.0 274.1L644.0 274.1Q645.8 274.1 646.8 275.0L646.8 275.0Q648.1 276.0 648.1 278.3L648.1 278.3Q648.1 280.5 646.8 281.6L646.8 281.6Q645.5 282.8 642.8 282.8L642.8 282.8Q639.8 282.8 638.5 284.4Q637.2 286.1 637.2 289.2L637.2 289.2L637.2 304.1Q637.2 306.3 636 307.6Q634.8 308.8 632.7 308.8Z M673 307.5Q671.8 308.8 669.5 308.8Q667.3 308.8 666.1 307.5Q664.8 306.2 664.8 303.9L664.8 303.9L664.8 268.0Q664.8 265.6 666.1 264.4Q667.3 263.1 669.5 263.1L669.5 263.1L683.3 263.1Q691 263.1 695.3 266.9Q699.6 270.7 699.6 277.4L699.6 277.4Q699.6 281.7 697.6 285.1Q695.5 288.4 691.8 290.0L691.8 290.0L698.3 301.2Q699.3 303.0 699.3 304.5L699.3 304.5Q699.3 306.4 698 307.6Q696.7 308.8 694.6 308.8L694.6 308.8Q692.9 308.8 691.9 308.1Q690.9 307.3 689.8 305.2L689.8 305.2L682.3 291.6L674.3 291.6L674.3 303.9Q674.3 306.2 673 307.5ZM674.3 270.4L674.3 284.8L682.4 284.8Q685.9 284.8 687.9 282.9Q689.9 281.0 689.9 277.6L689.9 277.6Q689.9 274.3 687.8 272.4Q685.8 270.4 682.3 270.4L682.3 270.4L674.3 270.4ZM732.5 304.2Q728.0 308.9 720.4 308.9Q712.7 308.9 708.3 304.2Q703.8 299.6 703.8 291.4L703.8 291.4Q703.8 283.3 708.3 278.6Q712.8 273.9 720.4 273.9L720.4 273.9Q728.0 273.9 732.5 278.6Q737.0 283.3 737.0 291.4L737.0 291.4Q737.0 299.6 732.5 304.2ZM720.4 301.9L720.4 301.9Q723.8 301.9 725.7 299.1Q727.7 296.4 727.7 291.4L727.7 291.4Q727.7 286.5 725.7 283.7Q723.8 280.9 720.4 280.9Q717 280.9 715.0 283.7Q713.0 286.5 713.0 291.4L713.0 291.4Q713.0 296.4 715 299.1Q717.0 301.9 720.4 301.9ZM746.3 308.8L746.3 308.8Q744.3 308.8 743.1 307.6Q741.9 306.4 741.9 304.2L741.9 304.2L741.9 267.1Q741.9 264.9 743.1 263.6Q744.4 262.4 746.4 262.4Q748.5 262.4 749.8 263.6Q751 264.9 751 267.1L751 267.1L751 280.5L751.2 280.5Q752.6 277.5 755.3 275.8Q758 274.1 761.5 274.1L761.5 274.1Q767.9 274.1 771.5 278.7Q775.2 283.3 775.2 291.4Q775.2 299.5 771.5 304.1Q767.9 308.7 761.6 308.7L761.6 308.7Q757.9 308.7 755.2 307.0Q752.5 305.4 751.1 302.4L751.1 302.4L750.9 302.4L750.9 304.2Q750.9 306.4 749.6 307.6Q748.4 308.8 746.3 308.8ZM758.4 301.3L758.4 301.3Q761.8 301.3 763.8 298.7Q765.8 296.0 765.8 291.4L765.8 291.4Q765.8 286.8 763.8 284.1Q761.8 281.4 758.4 281.4L758.4 281.4Q755.1 281.4 753.0 284.2Q751.0 286.9 751.0 291.4L751.0 291.4Q751.0 295.9 753.0 298.6Q755.1 301.3 758.4 301.3ZM807.4 304.2Q802.9 308.9 795.3 308.9Q787.6 308.9 783.1 304.2Q778.7 299.6 778.7 291.4L778.7 291.4Q778.7 283.3 783.2 278.6Q787.7 273.9 795.3 273.9L795.3 273.9Q802.8 273.9 807.3 278.6Q811.8 283.3 811.8 291.4L811.8 291.4Q811.8 299.6 807.4 304.2ZM795.3 301.9L795.3 301.9Q798.6 301.9 800.6 299.1Q802.6 296.4 802.6 291.4L802.6 291.4Q802.6 286.5 800.6 283.7Q798.6 280.9 795.3 280.9Q791.9 280.9 789.9 283.7Q787.9 286.5 787.9 291.4L787.9 291.4Q787.9 296.4 789.9 299.1Q791.8 301.9 795.3 301.9ZM819.0 299.6L819.0 299.6L819.0 281.5L817.2 281.5Q815.6 281.5 814.6 280.6Q813.7 279.7 813.7 278.1Q813.7 276.5 814.6 275.6Q815.6 274.6 817.2 274.6L817.2 274.6L819.0 274.6L819.0 270.9Q819.0 268.7 820.2 267.4Q821.4 266.2 823.5 266.2Q825.7 266.2 826.9 267.4Q828.1 268.7 828.1 270.9L828.1 270.9L828.1 274.6L831.3 274.6Q832.9 274.6 833.9 275.6Q834.8 276.5 834.8 278.1Q834.8 279.6 833.9 280.6Q832.9 281.5 831.3 281.5L831.3 281.5L828.1 281.5L828.1 297.6Q828.1 299.3 828.8 300.1Q829.4 301.0 830.9 301.1L830.9 301.1L831.5 301.1Q833.2 301.3 834.1 302.1Q834.9 302.9 834.9 304.5L834.9 304.5Q834.9 306.4 833.2 307.5Q831.4 308.5 828.5 308.5L828.5 308.5L828.2 308.5Q819.0 308.5 819.0 299.6Z M83.9 381.0Q82.7 382.3 80.5 382.3Q78.3 382.3 77 381.0Q75.8 379.8 75.8 377.4L75.8 377.4L75.8 341.6Q75.8 339.3 77 338.0Q78.3 336.7 80.5 336.7L80.5 336.7L94.1 336.7Q101.1 336.7 105.4 340.9Q109.7 345.2 109.7 352.1L109.7 352.1Q109.7 359 105.3 363.3Q100.8 367.5 93.6 367.5L93.6 367.5L85.2 367.5L85.2 377.4Q85.2 379.8 83.9 381.0ZM85.2 344.1L85.2 360.2L91.6 360.2Q95.6 360.2 97.9 358.1Q100.1 356.0 100.1 352.1Q100.1 348.3 97.9 346.2Q95.7 344.1 91.6 344.1L91.6 344.1L85.2 344.1ZM119.1 382.4L119.1 382.4Q117.0 382.4 115.7 381.2Q114.5 379.9 114.5 377.7L114.5 377.7L114.5 352.2Q114.5 350 115.7 348.8Q116.9 347.6 118.9 347.6L118.9 347.6Q120.8 347.6 122.0 348.8Q123.2 350 123.2 352.2L123.2 352.2L123.2 354.3L123.4 354.3Q124.1 351.3 126.0 349.5Q127.8 347.7 130.4 347.7L130.4 347.7Q132.2 347.7 133.2 348.6L133.2 348.6Q134.5 349.6 134.5 351.9L134.5 351.9Q134.5 354.1 133.2 355.2L133.2 355.2Q131.9 356.4 129.3 356.4L129.3 356.4Q126.3 356.4 124.9 358.0Q123.6 359.7 123.6 362.8L123.6 362.8L123.6 377.7Q123.6 379.9 122.4 381.2Q121.2 382.4 119.1 382.4ZM165.3 377.8Q160.8 382.5 153.2 382.5Q145.5 382.5 141.0 377.8Q136.6 373.2 136.6 365.0L136.6 365.0Q136.6 356.9 141.1 352.2Q145.6 347.5 153.2 347.5L153.2 347.5Q160.8 347.5 165.3 352.2Q169.8 356.9 169.8 365.0L169.8 365.0Q169.8 373.2 165.3 377.8ZM153.2 375.5L153.2 375.5Q156.5 375.5 158.5 372.8Q160.5 370 160.5 365L160.5 365Q160.5 360.1 158.5 357.3Q156.5 354.5 153.2 354.5Q149.8 354.5 147.8 357.3Q145.8 360.1 145.8 365L145.8 365Q145.8 370 147.8 372.8Q149.8 375.5 153.2 375.5ZM189.4 394.3L189.4 394.3Q184.4 394.3 180.7 392.6Q177 390.9 175.3 388.2L175.3 388.2Q174.6 387.0 174.6 385.7L174.6 385.7Q174.6 384.2 175.6 383.3Q176.7 382.3 178.3 382.3L178.3 382.3Q180.1 382.3 181.5 383.6L181.5 383.6Q185.3 387.3 189.4 387.3L189.4 387.3Q193.1 387.3 195.2 385.4Q197.3 383.6 197.3 380.4L197.3 380.4L197.3 375.0L197.1 375.0Q195.9 377.8 193.2 379.4Q190.4 381.0 186.8 381.0L186.8 381.0Q180.6 381.0 176.9 376.6Q173.2 372.1 173.2 364.4L173.2 364.4Q173.2 356.6 176.9 352.1Q180.5 347.7 187.0 347.7L187.0 347.7Q190.5 347.7 193.2 349.4Q195.8 351.1 197.2 354.0L197.2 354.0L197.4 354.0L197.4 352.2Q197.4 349.9 198.6 348.8Q199.9 347.6 202.0 347.6L202.0 347.6Q204 347.6 205.3 348.8Q206.5 349.9 206.5 352.2L206.5 352.2L206.5 380.4Q206.5 387 202.0 390.7Q197.5 394.4 189.4 394.3ZM189.9 374.3L189.9 374.3Q193.3 374.3 195.4 371.7Q197.4 369.1 197.4 364.6Q197.4 360.0 195.4 357.3Q193.3 354.7 189.9 354.7L189.9 354.7Q186.5 354.7 184.5 357.3Q182.6 360 182.6 364.5L182.6 364.5Q182.6 369.1 184.5 371.7Q186.5 374.3 189.9 374.3ZM217.0 382.4L217.0 382.4Q214.9 382.4 213.6 381.2Q212.4 379.9 212.4 377.7L212.4 377.7L212.4 352.2Q212.4 350 213.6 348.8Q214.8 347.6 216.8 347.6L216.8 347.6Q218.8 347.6 219.9 348.8Q221.1 350 221.1 352.2L221.1 352.2L221.1 354.3L221.3 354.3Q222.0 351.3 223.9 349.5Q225.8 347.7 228.3 347.7L228.3 347.7Q230.1 347.7 231.1 348.6L231.1 348.6Q232.4 349.6 232.4 351.9L232.4 351.9Q232.4 354.1 231.1 355.2L231.1 355.2Q229.8 356.4 227.2 356.4L227.2 356.4Q224.2 356.4 222.8 358.0Q221.5 359.7 221.5 362.8L221.5 362.8L221.5 377.7Q221.5 379.9 220.3 381.2Q219.1 382.4 217.0 382.4ZM245.6 382.3L245.6 382.3Q240.8 382.3 237.6 379.4Q234.4 376.6 234.4 372.1L234.4 372.1Q234.4 367.6 237.8 365.0Q241.1 362.4 247.4 362L247.4 362L255.9 361.5L255.9 359.3Q255.9 357.0 254.4 355.7Q252.8 354.3 250.3 354.3L250.3 354.3Q248.2 354.3 246.7 355.1Q245.3 355.9 243.8 357.9L243.8 357.9Q242.3 359.6 240.1 359.6L240.1 359.6Q238.5 359.6 237.4 358.6Q236.3 357.6 236.3 356.1L236.3 356.1Q236.3 355.0 236.8 354L236.8 354Q237.9 351 241.7 349.3Q245.4 347.5 250.7 347.5L250.7 347.5Q257.1 347.5 261.0 350.6Q264.8 353.7 264.8 358.7L264.8 358.7L264.8 377.8Q264.8 380.0 263.6 381.2Q262.4 382.4 260.4 382.4L260.4 382.4Q258.5 382.4 257.3 381.4Q256.2 380.3 256.0 378.3L256.0 378.3L256.0 376.6L255.8 376.6Q254.5 379.3 251.6 380.8Q248.8 382.3 245.6 382.3ZM248.6 375.7L248.6 375.7Q251.6 375.7 253.8 373.9Q255.9 372.2 255.9 369.5L255.9 369.5L255.9 367.0L248.8 367.5Q246.3 367.7 244.9 368.8Q243.5 369.8 243.5 371.6L243.5 371.6Q243.5 373.5 244.9 374.6Q246.3 375.7 248.6 375.7ZM275.3 382.4L275.3 382.4Q273.2 382.4 272.0 381.2Q270.7 379.9 270.7 377.7L270.7 377.7L270.7 352.2Q270.7 350.0 271.9 348.8Q273.1 347.6 275.1 347.6Q277.1 347.6 278.3 348.8Q279.5 350.0 279.5 352.2L279.5 352.2L279.5 354.3L279.7 354.3Q280.8 351.3 283.3 349.4Q285.9 347.6 289.3 347.6L289.3 347.6Q292.9 347.6 295.3 349.4Q297.8 351.2 298.6 354.5L298.6 354.5L298.8 354.5Q299.9 351.3 302.7 349.5Q305.5 347.6 309.2 347.6L309.2 347.6Q314.2 347.6 317.2 350.7Q320.2 353.8 320.2 358.9L320.2 358.9L320.2 377.7Q320.2 379.9 318.9 381.2Q317.7 382.4 315.6 382.4L315.6 382.4Q313.5 382.4 312.3 381.2Q311.1 379.9 311.1 377.7L311.1 377.7L311.1 361.2Q311.1 358.3 309.7 356.7Q308.3 355.2 305.6 355.2L305.6 355.2Q303 355.2 301.4 356.9Q299.8 358.6 299.8 361.4L299.8 361.4L299.8 377.7Q299.8 379.9 298.7 381.2Q297.5 382.4 295.4 382.4L295.4 382.4Q293.4 382.4 292.2 381.2Q291.1 379.9 291.1 377.7L291.1 377.7L291.1 360.9Q291.1 358.2 289.6 356.7Q288.2 355.2 285.7 355.2L285.7 355.2Q283.1 355.2 281.5 356.9Q279.8 358.7 279.8 361.5L279.8 361.5L279.8 377.7Q279.8 379.9 278.6 381.2Q277.3 382.4 275.3 382.4ZM330.5 382.4L330.5 382.4Q328.4 382.4 327.2 381.2Q326.0 379.9 326.0 377.7L326.0 377.7L326.0 352.2Q326.0 350.0 327.2 348.8Q328.4 347.6 330.4 347.6Q332.4 347.6 333.6 348.8Q334.8 350.0 334.8 352.2L334.8 352.2L334.8 354.3L335.0 354.3Q336.0 351.3 338.6 349.4Q341.2 347.6 344.5 347.6L344.5 347.6Q348.2 347.6 350.6 349.4Q353.0 351.2 353.9 354.5L353.9 354.5L354.1 354.5Q355.2 351.3 358.0 349.5Q360.8 347.6 364.5 347.6L364.5 347.6Q369.4 347.6 372.4 350.7Q375.4 353.8 375.4 358.9L375.4 358.9L375.4 377.7Q375.4 379.9 374.2 381.2Q372.9 382.4 370.8 382.4L370.8 382.4Q368.8 382.4 367.5 381.2Q366.3 379.9 366.3 377.7L366.3 377.7L366.3 361.2Q366.3 358.3 364.9 356.7Q363.5 355.2 360.8 355.2L360.8 355.2Q358.3 355.2 356.7 356.9Q355.1 358.6 355.1 361.4L355.1 361.4L355.1 377.7Q355.1 379.9 353.9 381.2Q352.8 382.4 350.7 382.4L350.7 382.4Q348.7 382.4 347.5 381.2Q346.3 379.9 346.3 377.7L346.3 377.7L346.3 360.9Q346.3 358.2 344.9 356.7Q343.4 355.2 340.9 355.2L340.9 355.2Q338.3 355.2 336.7 356.9Q335.1 358.7 335.1 361.5L335.1 361.5L335.1 377.7Q335.1 379.9 333.8 381.2Q332.6 382.4 330.5 382.4ZM389.4 342.7Q388 344.1 385.9 344.1Q383.9 344.1 382.5 342.7Q381.1 341.3 381.1 339.4L381.1 339.4Q381.1 337.4 382.5 336.0Q383.9 334.7 385.9 334.7Q388 334.7 389.4 336.0Q390.8 337.4 390.8 339.4L390.8 339.4Q390.8 341.3 389.4 342.7ZM389.3 381.1Q388.1 382.4 385.9 382.4Q383.8 382.4 382.6 381.1Q381.4 379.9 381.4 377.7L381.4 377.7L381.4 352.3Q381.4 350.1 382.6 348.8Q383.8 347.6 385.9 347.6Q388.1 347.6 389.3 348.8Q390.5 350.1 390.5 352.3L390.5 352.3L390.5 377.7Q390.5 379.9 389.3 381.1ZM404.4 381.2Q403.2 382.4 401.1 382.4Q399.1 382.4 397.8 381.2Q396.6 379.9 396.6 377.7L396.6 377.7L396.6 352.2Q396.6 350.0 397.7 348.8Q398.9 347.6 401.0 347.6Q403.0 347.6 404.3 348.8Q405.5 350.1 405.5 352.2L405.5 352.2L405.5 354.1L405.7 354.1Q408.5 347.6 416.0 347.6L416.0 347.6Q421.6 347.6 424.6 350.9Q427.7 354.3 427.7 360.2L427.7 360.2L427.7 377.7Q427.7 379.9 426.4 381.2Q425.2 382.4 423.1 382.4Q421.0 382.4 419.8 381.2Q418.5 379.9 418.5 377.7L418.5 377.7L418.5 362.1Q418.5 358.8 417.0 357.0Q415.4 355.2 412.4 355.2Q409.3 355.2 407.5 357.2Q405.7 359.3 405.7 362.5L405.7 362.5L405.7 377.7Q405.7 379.9 404.4 381.2ZM448.4 394.3L448.4 394.3Q443.4 394.3 439.7 392.6Q436 390.9 434.3 388.2L434.3 388.2Q433.6 387.0 433.6 385.7L433.6 385.7Q433.6 384.2 434.6 383.3Q435.7 382.3 437.3 382.3L437.3 382.3Q439.1 382.3 440.5 383.6L440.5 383.6Q444.3 387.3 448.4 387.3L448.4 387.3Q452.1 387.3 454.2 385.4Q456.3 383.6 456.3 380.4L456.3 380.4L456.3 375.0L456.1 375.0Q454.9 377.8 452.2 379.4Q449.4 381.0 445.8 381.0L445.8 381.0Q439.6 381.0 435.9 376.6Q432.2 372.1 432.2 364.4L432.2 364.4Q432.2 356.6 435.9 352.1Q439.5 347.7 446.0 347.7L446.0 347.7Q449.5 347.7 452.2 349.4Q454.8 351.1 456.2 354.0L456.2 354.0L456.4 354.0L456.4 352.2Q456.4 349.9 457.6 348.8Q458.9 347.6 461.0 347.6L461.0 347.6Q463 347.6 464.3 348.8Q465.5 349.9 465.5 352.2L465.5 352.2L465.5 380.4Q465.5 387 461.0 390.7Q456.5 394.4 448.4 394.3ZM448.9 374.3L448.9 374.3Q452.3 374.3 454.4 371.7Q456.4 369.1 456.4 364.6Q456.4 360.0 454.4 357.3Q452.3 354.7 448.9 354.7L448.9 354.7Q445.5 354.7 443.5 357.3Q441.6 360 441.6 364.5L441.6 364.5Q441.6 369.1 443.5 371.7Q445.5 374.3 448.9 374.3Z " clip-path="url(#satori_cp-id-0)" mask="url(#satori_om-id-0)"/><defs><clipPath id="satori_bc-id-0-1" clip-path="url(#satori_cp-id-0)"><rect x="0" y="509" width="1200" height="121"/></clipPath></defs><mask id="satori_om-id-0-1"><rect x="0" y="510" width="1200" height="120" fill="#fff" mask="url(#satori_om-id-0)"/><path width="1200" height="121" fill="none" stroke="#000" stroke-width="2" d="M0,509 A0,0 0 0 1 0,509 h1200 A0,0 0 0 1 1200,509"/></mask><path width="1200" height="121" clip-path="url(#satori_bc-id-0-1)" fill="none" stroke="rgba(0,0,0,0.08)" stroke-width="2" d="M0,509 A0,0 0 0 1 0,509 h1200 A0,0 0 0 1 1200,509"/><mask id="satori_om-id-0-1-0"><rect x="48" y="538" width="228" height="64" fill="#fff" mask="url(#satori_om-id-0)"/></mask><mask id="satori_om-id-0-1-0-0"><rect x="48" y="538" width="72" height="64" fill="#fff" mask="url(#satori_om-id-0)"/></mask><clipPath id="satori_cp-id-0-1-0-0-0" clip-path="url(#satori_cp-id-0)"><rect x="48" y="538" width="72" height="64"/></clipPath><mask id="satori_om-id-0-1-0-0-0"><rect x="48" y="538" width="72" height="64" fill="#fff" mask="url(#satori_om-id-0)"/></mask><image x="48" y="538" width="72" height="64" href="data:image/svg+xml;utf8,%3Csvg  xmlns=%22http://www.w3.org/2000/svg%22 width=%2273.60461760461762%22 height=%2264%22 viewBox=%220 0 797 693%22%3E%3Cg transform=%22matrix(1,0,0,1,-345,-96.5)%22%3E%3Cpath d=%22M756.942,197.15L756.942,474C701.751,474 656.942,518.808 656.942,574C656.942,629.192 701.751,674 756.942,674L756.942,777L495.122,777C443.175,777 401,734.825 401,682.878L401,614L364.755,614C353.852,614 345,605.148 345,594.245L345,436.814C345,425.878 353.878,417 364.814,417L401,417L401,365.122C401,313.175 443.175,271 495.122,271L715.058,271L715.058,197.15C696.492,189.056 683.5,170.533 683.5,149C683.5,120.024 707.024,96.5 736,96.5C764.976,96.5 788.5,120.024 788.5,149C788.5,170.533 775.508,189.056 756.942,197.15ZM559,388C520.918,388 490,418.918 490,457C490,495.082 520.918,526 559,526C597.082,526 628,495.082 628,457C628,418.918 597.082,388 559,388Z%22 fill=%22%23ad47ff%22%3E%3C/path%3E%3Cg transform=%22matrix(-1,1.22465e-16,-1.22465e-16,-1,1486.06,1043)%22%3E%3Cpath d=%22M401,417L401,348.122C401,296.175 443.175,254 495.122,254L705.058,254L705.058,357C760.249,357 805.058,401.808 805.058,457C805.058,512.192 760.249,557 705.058,557L705.058,760L495.122,760C443.175,760 401,717.825 401,665.878L401,614L364.755,614C353.852,614 345,605.148 345,594.245L345,436.814C345,425.878 353.878,417 364.814,417L401,417ZM552,643C590.082,643 621,612.082 621,574C621,535.918 590.082,505 552,505C513.918,505 483,535.918 483,574C483,612.082 513.918,643 552,643Z%22 fill=%22%2300d5bd%22%3E%3C/path%3E%3C/g%3E%3C/g%3E%3C/svg%3E" preserveAspectRatio="none" clip-path="url(#satori_cp-id-0-1-0-0-0)" mask="url(#satori_om-id-0-1-0-0-0)"/><mask id="satori_om-id-0-1-0-0-0-0"><rect x="48" y="538" width="0" height="64" fill="#fff" mask="url(#satori_om-id-0)"/></mask><mask id="satori_om-id-0-1-0-0-0-0-0"><rect x="48" y="538" width="0" height="64" fill="#fff" mask="url(#satori_om-id-0)"/></mask><mask id="satori_om-id-0-1-0-0-0-0-1"><rect x="48" y="538" width="0" height="64" fill="#fff" mask="url(#satori_om-id-0)"/></mask><mask id="satori_om-id-0-1-0-0-0-0-1-0"><rect x="48" y="538" width="0" height="64" fill="#fff" mask="url(#satori_om-id-0)"/></mask><mask id="satori_om-id-0-1-0-1"><rect x="138" y="540" width="138" height="60" fill="#fff" mask="url(#satori_om-id-0)"/></mask><mask id="satori_om-id-0-1-0-1-0"><rect x="138" y="540" width="138" height="36" fill="#fff" mask="url(#satori_om-id-0)"/></mask><path fill="#0f172a" d="M150.7 571.2L150.7 571.2Q145.9 571.2 143.0 568.6Q140.1 566.1 140.1 561.8L140.1 561.8L140.1 547.9Q140.1 546.5 140.8 545.8Q141.5 545.1 142.8 545.1Q144.0 545.1 144.7 545.8Q145.4 546.5 145.4 547.9L145.4 547.9L145.4 561.3Q145.4 563.8 146.8 565.2Q148.2 566.7 150.7 566.7L150.7 566.7Q153.3 566.7 154.7 565.2Q156.1 563.8 156.1 561.3L156.1 561.3L156.1 547.9Q156.1 546.5 156.8 545.8Q157.5 545.1 158.7 545.1Q160.0 545.1 160.7 545.8Q161.4 546.5 161.4 547.9L161.4 547.9L161.4 561.8Q161.4 566.1 158.5 568.6Q155.6 571.2 150.7 571.2ZM170.2 570.4Q169.5 571.2 168.2 571.2Q167.0 571.2 166.3 570.4Q165.6 569.7 165.6 568.4L165.6 568.4L165.6 548.2Q165.6 546.9 166.3 546.2Q167.0 545.4 168.2 545.4L168.2 545.4L176.0 545.4Q180.3 545.4 182.7 547.6Q185.1 549.7 185.1 553.5L185.1 553.5Q185.1 555.9 184.0 557.8Q182.9 559.7 180.8 560.6L180.8 560.6L184.4 566.9Q185.0 567.9 185.0 568.7L185.0 568.7Q185.0 569.8 184.2 570.5Q183.5 571.2 182.3 571.2L182.3 571.2Q181.4 571.2 180.8 570.8Q180.3 570.3 179.6 569.2L179.6 569.2L175.4 561.5L170.9 561.5L170.9 568.4Q170.9 569.7 170.2 570.4ZM170.9 549.6L170.9 557.7L175.5 557.7Q177.5 557.7 178.6 556.6Q179.7 555.5 179.7 553.6L179.7 553.6Q179.7 551.8 178.5 550.7Q177.4 549.6 175.4 549.6L175.4 549.6L170.9 549.6ZM198.1 562.7L190.8 562.7Q189.7 562.7 189.1 562.1Q188.4 561.5 188.4 560.5Q188.4 559.4 189.1 558.8Q189.7 558.2 190.8 558.2L190.8 558.2L198.1 558.2Q199.2 558.2 199.9 558.8Q200.6 559.4 200.6 560.5Q200.6 561.5 199.9 562.1Q199.2 562.7 198.1 562.7L198.1 562.7ZM209.1 570.4Q208.4 571.2 207.2 571.2Q205.9 571.2 205.2 570.4Q204.5 569.7 204.5 568.4L204.5 568.4L204.5 548.2Q204.5 546.9 205.2 546.2Q205.9 545.4 207.2 545.4L207.2 545.4L214.9 545.4Q219.3 545.4 221.7 547.6Q224.1 549.7 224.1 553.5L224.1 553.5Q224.1 555.9 223.0 557.8Q221.8 559.7 219.7 560.6L219.7 560.6L223.4 566.9Q224.0 567.9 224.0 568.7L224.0 568.7Q224.0 569.8 223.2 570.5Q222.4 571.2 221.3 571.2L221.3 571.2Q220.3 571.2 219.8 570.8Q219.2 570.3 218.6 569.2L218.6 569.2L214.4 561.5L209.8 561.5L209.8 568.4Q209.8 569.7 209.1 570.4ZM209.8 549.6L209.8 557.7L214.4 557.7Q216.4 557.7 217.5 556.6Q218.6 555.5 218.6 553.6L218.6 553.6Q218.6 551.8 217.5 550.7Q216.3 549.6 214.4 549.6L214.4 549.6L209.8 549.6ZM229.3 571.1L229.3 571.1Q228.0 571.1 227.3 570.5Q226.6 569.8 226.6 568.6L226.6 568.6Q226.6 567.9 226.9 566.9L226.9 566.9L233.9 548.1Q234.4 546.5 235.4 545.8Q236.3 545.1 237.8 545.1L237.8 545.1Q239.4 545.1 240.4 545.8Q241.3 546.5 241.9 548.1L241.9 548.1L248.9 566.9Q249.2 567.9 249.2 568.6L249.2 568.6Q249.2 569.7 248.5 570.4Q247.7 571.1 246.5 571.1L246.5 571.1Q245.4 571.1 244.8 570.6Q244.1 570.0 243.8 568.8L243.8 568.8L242.4 564.8L233.3 564.8L232.0 568.7Q231.6 570.0 231.0 570.6Q230.3 571.1 229.3 571.1ZM237.7 550.3L234.5 560.7L241.2 560.7L237.9 550.3L237.7 550.3ZM262.1 570.8L255.1 570.8Q253.8 570.8 253.1 570.1Q252.4 569.3 252.4 568.0L252.4 568.0L252.4 548.2Q252.4 546.9 253.1 546.2Q253.8 545.4 255.1 545.4L255.1 545.4L262.1 545.4Q267.8 545.4 271.0 548.7Q274.2 552.0 274.2 558.0L274.2 558.0Q274.2 564.0 271.0 567.4Q267.8 570.8 262.1 570.8L262.1 570.8ZM257.7 549.8L257.7 566.4L261.5 566.4Q265.0 566.4 266.9 564.3Q268.8 562.1 268.8 558.0L268.8 558.0Q268.8 554.1 266.9 551.9Q265.0 549.8 261.5 549.8L261.5 549.8L257.7 549.8Z " clip-path="url(#satori_cp-id-0)" mask="url(#satori_om-id-0)"/><mask id="satori_om-id-0-1-0-1-1"><rect x="138" y="576" width="138" height="24" fill="#fff" mask="url(#satori_om-id-0)"/></mask><path fill="#334155" d="M145.0 595.3L145.0 595.3Q142.4 595.3 140.8 593.8Q139.2 592.4 139.2 590.1L139.2 590.1L139.2 582.1Q139.2 581.5 139.6 581.1Q139.9 580.8 140.5 580.8L140.5 580.8Q141.1 580.8 141.4 581.1Q141.8 581.5 141.8 582.1L141.8 582.1L141.8 589.8Q141.8 591.3 142.6 592.2Q143.5 593.1 145.0 593.1Q146.6 593.1 147.4 592.2Q148.3 591.3 148.3 589.8L148.3 589.8L148.3 582.1Q148.3 581.5 148.6 581.1Q149.0 580.8 149.6 580.8L149.6 580.8Q150.2 580.8 150.5 581.1Q150.8 581.5 150.8 582.1L150.8 582.1L150.8 590.1Q150.8 592.4 149.3 593.8Q147.7 595.3 145.0 595.3ZM155.5 594.9Q155.2 595.2 154.6 595.2Q154.0 595.2 153.6 594.9Q153.3 594.5 153.3 593.9L153.3 593.9L153.3 582.3Q153.3 581.6 153.6 581.3Q154.0 581.0 154.6 581.0L154.6 581.0L158.9 581.0Q161.2 581.0 162.5 582.1Q163.8 583.3 163.8 585.3L163.8 585.3Q163.8 586.7 163.1 587.8Q162.4 588.8 161.2 589.3L161.2 589.3L163.4 593.2Q163.7 593.7 163.7 594.1L163.7 594.1Q163.7 594.6 163.4 594.9Q163.0 595.2 162.4 595.2L162.4 595.2Q162.0 595.2 161.7 595.0Q161.5 594.8 161.2 594.3L161.2 594.3L158.7 589.7L155.8 589.7L155.8 593.9Q155.8 594.5 155.5 594.9ZM155.8 583.0L155.8 587.8L158.7 587.8Q159.9 587.8 160.5 587.2Q161.2 586.5 161.2 585.4L161.2 585.4Q161.2 584.3 160.5 583.6Q159.8 583.0 158.6 583.0L158.6 583.0L155.8 583.0ZM171.1 590.4L166.7 590.4Q166.2 590.4 165.9 590.1Q165.6 589.8 165.6 589.3Q165.6 588.8 165.9 588.5Q166.2 588.2 166.7 588.2L166.7 588.2L171.1 588.2Q171.7 588.2 172.0 588.5Q172.3 588.8 172.3 589.3Q172.3 589.8 172.0 590.1Q171.7 590.4 171.1 590.4L171.1 590.4ZM176.7 594.9Q176.4 595.2 175.8 595.2Q175.2 595.2 174.9 594.9Q174.6 594.5 174.6 593.9L174.6 593.9L174.6 582.3Q174.6 581.6 174.9 581.3Q175.2 581.0 175.8 581.0L175.8 581.0L180.1 581.0Q182.4 581.0 183.7 582.1Q185.0 583.3 185.0 585.3L185.0 585.3Q185.0 586.7 184.3 587.8Q183.7 588.8 182.5 589.3L182.5 589.3L184.7 593.2Q185.0 593.7 185.0 594.1L185.0 594.1Q185.0 594.6 184.6 594.9Q184.2 595.2 183.7 595.2L183.7 595.2Q183.2 595.2 183.0 595.0Q182.7 594.8 182.4 594.3L182.4 594.3L179.9 589.7L177.1 589.7L177.1 593.9Q177.1 594.5 176.7 594.9ZM177.1 583.0L177.1 587.8L179.9 587.8Q181.1 587.8 181.8 587.2Q182.4 586.5 182.4 585.4L182.4 585.4Q182.4 584.3 181.8 583.6Q181.1 583.0 179.9 583.0L179.9 583.0L177.1 583.0ZM187.7 595.2L187.7 595.2Q187.1 595.2 186.7 594.9Q186.4 594.6 186.4 594.0L186.4 594.0Q186.4 593.7 186.6 593.3L186.6 593.3L190.7 582.2Q190.9 581.4 191.4 581.1Q191.8 580.8 192.5 580.8L192.5 580.8Q193.2 580.8 193.6 581.1Q194.1 581.4 194.3 582.1L194.3 582.1L198.4 593.3Q198.6 593.7 198.6 594.0L198.6 594.0Q198.6 594.6 198.2 594.9Q197.9 595.2 197.3 595.2L197.3 595.2Q196.8 595.2 196.5 595.0Q196.2 594.7 196.0 594.1L196.0 594.1L195.1 591.4L189.9 591.4L188.9 594.1Q188.8 594.7 188.5 595.0Q188.2 595.2 187.7 595.2ZM192.4 583.4L190.5 589.5L194.5 589.5L192.5 583.4L192.4 583.4ZM205.6 595.0L201.7 595.0Q201.1 595.0 200.8 594.7Q200.4 594.3 200.4 593.7L200.4 593.7L200.4 582.3Q200.4 581.6 200.8 581.3Q201.1 581.0 201.7 581.0L201.7 581.0L205.6 581.0Q208.7 581.0 210.5 582.8Q212.3 584.6 212.3 588.0L212.3 588.0Q212.3 591.3 210.5 593.2Q208.7 595.0 205.6 595.0L205.6 595.0ZM202.9 583.1L202.9 592.9L205.3 592.9Q207.4 592.9 208.6 591.6Q209.7 590.4 209.7 588.0L209.7 588.0Q209.7 585.6 208.6 584.3Q207.4 583.1 205.3 583.1L205.3 583.1L202.9 583.1Z M227.0 595.0L219.2 595.0Q218.7 595.0 218.3 594.8Q218.0 594.5 218.0 594.0L218.0 594.0Q218.0 593.6 218.2 593.3Q218.3 593.1 218.7 592.7L218.7 592.7L223.0 588.4Q224.4 587.1 224.8 586.4Q225.3 585.7 225.3 584.9L225.3 584.9Q225.3 583.9 224.6 583.3Q224.0 582.7 223.0 582.7L223.0 582.7Q221.1 582.7 220.3 584.6L220.3 584.6Q220.1 585.0 219.9 585.2Q219.6 585.4 219.2 585.4L219.2 585.4Q218.7 585.4 218.4 585.1Q218.1 584.8 218.1 584.3L218.1 584.3Q218.1 584.1 218.2 583.8L218.2 583.8Q218.3 583.2 218.7 582.7Q219.1 582.1 219.7 581.7Q220.3 581.2 221.1 580.9Q222.0 580.7 223.0 580.7L223.0 580.7Q225.1 580.7 226.4 581.8Q227.8 582.9 227.8 584.7L227.8 584.7Q227.8 585.9 227.1 586.9Q226.4 588.0 224.6 589.8L224.6 589.8L221.4 592.9L221.4 593.0L227.0 593.0Q227.5 593.0 227.8 593.3Q228.1 593.5 228.1 594.0Q228.1 594.5 227.8 594.8Q227.5 595.0 227.0 595.0L227.0 595.0ZM235.2 595.3L235.2 595.3Q232.6 595.3 231.1 593.4Q229.7 591.4 229.7 588.0L229.7 588.0Q229.7 584.6 231.1 582.6Q232.6 580.7 235.2 580.7L235.2 580.7Q237.8 580.7 239.3 582.6Q240.7 584.6 240.7 588.0L240.7 588.0Q240.7 591.4 239.3 593.3Q237.8 595.3 235.2 595.3ZM235.2 593.3L235.2 593.3Q236.6 593.3 237.4 591.9Q238.2 590.5 238.2 588.0L238.2 588.0Q238.2 585.5 237.4 584.1Q236.6 582.7 235.2 582.7Q233.8 582.7 233.0 584.1Q232.2 585.5 232.2 588.0L232.2 588.0Q232.2 590.5 233.0 591.9Q233.8 593.3 235.2 593.3ZM251.6 595.0L243.8 595.0Q243.2 595.0 242.9 594.8Q242.6 594.5 242.6 594.0L242.6 594.0Q242.6 593.6 242.7 593.3Q242.9 593.1 243.3 592.7L243.3 592.7L247.6 588.4Q248.9 587.1 249.4 586.4Q249.8 585.7 249.8 584.9L249.8 584.9Q249.8 583.9 249.2 583.3Q248.5 582.7 247.5 582.7L247.5 582.7Q245.6 582.7 244.9 584.6L244.9 584.6Q244.7 585.0 244.4 585.2Q244.2 585.4 243.7 585.4L243.7 585.4Q243.2 585.4 242.9 585.1Q242.6 584.8 242.6 584.3L242.6 584.3Q242.6 584.1 242.7 583.8L242.7 583.8Q242.9 583.2 243.2 582.7Q243.6 582.1 244.2 581.7Q244.8 581.2 245.7 580.9Q246.5 580.7 247.5 580.7L247.5 580.7Q249.6 580.7 251.0 581.8Q252.3 582.9 252.3 584.7L252.3 584.7Q252.3 585.9 251.6 586.9Q251.0 588.0 249.2 589.8L249.2 589.8L245.9 592.9L245.9 593.0L251.6 593.0Q252.1 593.0 252.4 593.3Q252.6 593.5 252.6 594.0Q252.6 594.5 252.4 594.8Q252.1 595.0 251.6 595.0L251.6 595.0ZM259.6 595.3L259.6 595.3Q258.0 595.3 256.7 594.6Q255.4 593.9 254.9 592.8L254.9 592.8Q254.6 592.3 254.6 591.8L254.6 591.8Q254.6 591.3 254.9 591.0Q255.2 590.7 255.7 590.7L255.7 590.7Q256.1 590.7 256.4 590.9Q256.6 591.1 256.8 591.5L256.8 591.5Q257.2 592.3 257.9 592.8Q258.6 593.3 259.6 593.3L259.6 593.3Q260.9 593.3 261.7 592.5Q262.5 591.7 262.5 590.4L262.5 590.4Q262.5 589.2 261.7 588.4Q260.9 587.7 259.6 587.7L259.6 587.7Q258.3 587.7 257.4 588.5L257.4 588.5Q257.0 589.0 256.7 589.1Q256.4 589.3 256.0 589.3L256.0 589.3Q255.4 589.3 255.1 588.9Q254.8 588.5 254.8 588.0L254.8 588.0Q254.8 587.9 254.8 587.8L254.8 587.8L255.3 582.5Q255.4 581.7 255.8 581.3Q256.2 581.0 257.0 581.0L257.0 581.0L263.1 581.0Q263.6 581.0 263.9 581.2Q264.2 581.5 264.2 582.0L264.2 582.0Q264.2 582.4 263.9 582.7Q263.6 583.0 263.1 583.0L263.1 583.0L257.4 583.0L257.1 587.2L257.1 587.2Q257.6 586.5 258.4 586.1Q259.2 585.8 260.3 585.8L260.3 585.8Q262.3 585.8 263.6 587.0Q264.9 588.3 264.9 590.4L264.9 590.4Q264.9 592.6 263.4 593.9Q261.9 595.3 259.6 595.3Z " clip-path="url(#satori_cp-id-0)" mask="url(#satori_om-id-0)"/><mask id="satori_om-id-0-1-1"><rect x="1046" y="557" width="106" height="26" fill="#fff" mask="url(#satori_om-id-0)"/></mask><path fill="#334155" d="M1049.4 577.8Q1049.1 578.2 1048.5 578.2Q1047.9 578.2 1047.5 577.8Q1047.2 577.5 1047.2 576.8L1047.2 576.8L1047.2 563.6Q1047.2 563.0 1047.5 562.6Q1047.9 562.2 1048.5 562.2Q1049.1 562.2 1049.5 562.6Q1049.8 563.0 1049.8 563.6L1049.8 563.6L1049.8 568.5L1049.9 568.5Q1050.4 567.5 1051.3 566.9Q1052.3 566.4 1053.5 566.4L1053.5 566.4Q1055.6 566.4 1056.9 568.0Q1058.2 569.5 1058.2 572.3L1058.2 572.3Q1058.2 575.0 1056.9 576.6Q1055.6 578.1 1053.5 578.1L1053.5 578.1Q1052.2 578.1 1051.3 577.6Q1050.4 577.0 1049.8 576.0L1049.8 576.0L1049.8 576.0L1049.8 576.8Q1049.8 577.5 1049.4 577.8ZM1052.6 575.9L1052.6 575.9Q1053.9 575.9 1054.7 574.9Q1055.4 574.0 1055.4 572.3Q1055.4 570.6 1054.7 569.6Q1053.9 568.6 1052.6 568.6L1052.6 568.6Q1051.4 568.6 1050.6 569.6Q1049.8 570.6 1049.8 572.3L1049.8 572.3Q1049.8 573.9 1050.6 574.9Q1051.4 575.9 1052.6 575.9ZM1061.5 582.2L1061.5 582.2Q1060.6 582.2 1060.1 581.9Q1059.7 581.5 1059.7 580.9L1059.7 580.9Q1059.7 580.5 1059.9 580.3Q1060.2 580.0 1060.7 580.0L1060.7 580.0Q1060.8 580.0 1061.0 580.0Q1061.1 580.0 1061.3 580.0L1061.3 580.0Q1062.3 580.0 1062.9 578.7L1062.9 578.7L1063.1 578.2L1059.3 568.3Q1059.2 567.9 1059.2 567.6L1059.2 567.6Q1059.2 567.0 1059.6 566.7Q1060.0 566.3 1060.6 566.3L1060.6 566.3Q1061.1 566.3 1061.4 566.6Q1061.7 566.8 1061.8 567.4L1061.8 567.4L1064.6 575.7L1064.6 575.7L1067.3 567.4Q1067.5 566.8 1067.8 566.6Q1068.1 566.3 1068.6 566.3L1068.6 566.3Q1069.2 566.3 1069.5 566.7Q1069.9 567.0 1069.9 567.5L1069.9 567.5Q1069.9 567.9 1069.8 568.3L1069.8 568.3L1066.0 578.4Q1065.2 580.5 1064.2 581.3Q1063.2 582.2 1061.5 582.2Z M1081.2 578.1L1081.2 578.1Q1080.6 578.1 1080.2 577.8Q1079.8 577.4 1079.8 576.7L1079.8 576.7L1079.8 564.8L1076.3 564.8Q1075.7 564.8 1075.4 564.5Q1075.0 564.2 1075.0 563.6Q1075.0 563.1 1075.4 562.8Q1075.7 562.4 1076.3 562.4L1076.3 562.4L1086.1 562.4Q1086.7 562.4 1087.1 562.8Q1087.4 563.1 1087.4 563.6Q1087.4 564.2 1087.1 564.5Q1086.7 564.8 1086.1 564.8L1086.1 564.8L1082.6 564.8L1082.6 576.7Q1082.6 577.4 1082.2 577.8Q1081.9 578.1 1081.2 578.1ZM1091.2 577.8Q1090.8 578.2 1090.2 578.2Q1089.6 578.2 1089.2 577.8Q1088.9 577.4 1088.9 576.8L1088.9 576.8L1088.9 567.7Q1088.9 567.1 1089.2 566.7Q1089.5 566.3 1090.1 566.3L1090.1 566.3Q1090.7 566.3 1091.0 566.7Q1091.4 567.1 1091.4 567.7L1091.4 567.7L1091.4 568.6L1091.5 568.6Q1091.7 567.6 1092.4 567.0Q1093.0 566.4 1093.9 566.4L1093.9 566.4Q1094.5 566.4 1094.8 566.7L1094.8 566.7Q1095.2 567.0 1095.2 567.6L1095.2 567.6Q1095.2 568.2 1094.8 568.6L1094.8 568.6Q1094.4 568.9 1093.6 568.9L1093.6 568.9Q1091.5 568.9 1091.5 571.3L1091.5 571.3L1091.5 576.8Q1091.5 577.4 1091.2 577.8ZM1099.8 578.1L1099.8 578.1Q1098.1 578.1 1097.0 577.2Q1096.0 576.2 1096.0 574.7L1096.0 574.7Q1096.0 573.2 1097.1 572.3Q1098.2 571.4 1100.3 571.3L1100.3 571.3L1103.3 571.1L1103.3 570.3Q1103.3 569.4 1102.7 568.9Q1102.2 568.4 1101.2 568.4L1101.2 568.4Q1100.4 568.4 1099.8 568.7Q1099.3 569.0 1098.8 569.8L1098.8 569.8Q1098.4 570.3 1097.7 570.3L1097.7 570.3Q1097.2 570.3 1096.9 570.0Q1096.6 569.7 1096.6 569.2L1096.6 569.2Q1096.6 568.9 1096.8 568.5L1096.8 568.5Q1097.2 567.5 1098.4 566.9Q1099.6 566.3 1101.3 566.3L1101.3 566.3Q1103.4 566.3 1104.7 567.4Q1105.9 568.4 1105.9 570.1L1105.9 570.1L1105.9 576.8Q1105.9 577.5 1105.6 577.8Q1105.2 578.2 1104.6 578.2L1104.6 578.2Q1104.1 578.2 1103.7 577.8Q1103.4 577.5 1103.4 576.9L1103.4 576.9L1103.4 576.1L1103.3 576.1Q1102.8 577.0 1101.8 577.6Q1100.9 578.1 1099.8 578.1ZM1100.6 576.1L1100.6 576.1Q1101.7 576.1 1102.5 575.4Q1103.3 574.7 1103.3 573.7L1103.3 573.7L1103.3 572.9L1100.7 573.0Q1099.7 573.1 1099.2 573.5Q1098.6 573.9 1098.6 574.6L1098.6 574.6Q1098.6 575.3 1099.2 575.7Q1099.7 576.1 1100.6 576.1ZM1110.4 577.8Q1110.0 578.2 1109.4 578.2Q1108.8 578.2 1108.5 577.8Q1108.1 577.4 1108.1 576.8L1108.1 576.8L1108.1 567.7Q1108.1 567.1 1108.4 566.7Q1108.8 566.3 1109.4 566.3Q1110.0 566.3 1110.3 566.7Q1110.7 567.1 1110.7 567.7L1110.7 567.7L1110.7 568.5L1110.7 568.5Q1111.7 566.3 1114.3 566.3L1114.3 566.3Q1116.2 566.3 1117.2 567.5Q1118.2 568.6 1118.2 570.6L1118.2 570.6L1118.2 576.8Q1118.2 577.4 1117.9 577.8Q1117.5 578.2 1116.9 578.2Q1116.3 578.2 1115.9 577.8Q1115.6 577.4 1115.6 576.8L1115.6 576.8L1115.6 571.1Q1115.6 569.9 1115.0 569.3Q1114.4 568.6 1113.3 568.6L1113.3 568.6Q1112.1 568.6 1111.4 569.4Q1110.8 570.1 1110.8 571.4L1110.8 571.4L1110.8 576.8Q1110.8 577.4 1110.4 577.8ZM1122.2 575.2L1122.2 575.2Q1122.8 575.2 1123.1 575.5Q1123.5 575.8 1123.5 576.3L1123.5 576.3Q1123.5 576.6 1123.4 576.9L1123.4 576.9L1122.5 580.6Q1122.3 581.1 1122.1 581.3Q1121.8 581.5 1121.3 581.5Q1120.9 581.5 1120.6 581.2Q1120.3 581.0 1120.3 580.5L1120.3 580.5Q1120.3 580.4 1120.4 580.3L1120.4 580.3L1121.0 576.3Q1121.2 575.2 1122.2 575.2Z M1132.3 578.1L1132.3 578.1Q1131.7 578.1 1131.3 577.8Q1131.0 577.4 1131.0 576.7L1131.0 576.7L1131.0 563.7Q1131.0 563.0 1131.3 562.6Q1131.7 562.3 1132.4 562.3L1132.4 562.3Q1132.9 562.3 1133.2 562.4Q1133.5 562.6 1133.8 563.1L1133.8 563.1L1141.1 573.3L1141.2 573.3L1141.2 563.7Q1141.2 563.0 1141.5 562.6Q1141.9 562.3 1142.5 562.3L1142.5 562.3Q1143.1 562.3 1143.5 562.6Q1143.8 563.0 1143.8 563.7L1143.8 563.7L1143.8 576.7Q1143.8 577.4 1143.5 577.8Q1143.1 578.1 1142.4 578.1L1142.4 578.1Q1141.9 578.1 1141.6 577.9Q1141.3 577.8 1141.0 577.3L1141.0 577.3L1133.7 567.1L1133.6 567.1L1133.6 576.7Q1133.6 577.4 1133.3 577.8Q1132.9 578.1 1132.3 578.1ZM1148.2 578.1L1148.2 578.1Q1147.5 578.1 1147.1 577.6Q1146.6 577.2 1146.6 576.5L1146.6 576.5Q1146.6 575.9 1147.1 575.4Q1147.5 575.0 1148.2 575.0L1148.2 575.0Q1148.8 575.0 1149.2 575.4Q1149.7 575.9 1149.7 576.5L1149.7 576.5Q1149.7 577.2 1149.2 577.6Q1148.8 578.1 1148.2 578.1Z " clip-path="url(#satori_cp-id-0)" mask="url(#satori_om-id-0)"/></svg>