<svg width="1200" height="630" viewBox="0 0 1200 630" xmlns="http://www.w3.org/2000/svg"><mask id="satori_om-id"><rect x="0" y="0" width="1200" height="630" fill="#fff"/></mask><defs><pattern id="satori_pattern_id-0_0" x="0" y="0" width="1" height="1" patternUnits="objectBoundingBox"><linearGradient id="satori_biid-0_0" x1="-0.09774620284174435" y1="0.18618324350808482" x2="1.0977462028417444" y2="0.8138167564919152" spreadMethod="pad"><stop offset="0%" stop-color="#f8fafc"/><stop offset="50%" stop-color="#eef2ff"/><stop offset="100%" stop-color="#ffffff"/></linearGradient><rect x="0" y="0" width="1200" height="630" fill="url(#satori_biid-0_0)"/></pattern></defs><clipPath id="satori_cp-id-0"><rect x="0" y="0" width="1200" height="630"/></clipPath><mask id="satori_om-id-0"><rect x="0" y="0" width="1200" height="630" fill="#fff"/></mask><rect x="0" y="0" width="1200" height="630" fill="url(#satori_pattern_id-0_0)"/><mask id="satori_om-id-0-0"><rect x="0" y="0" width="1200" height="509" fill="#fff" mask="url(#satori_om-id-0)"/></mask><mask id="satori_om-id-0-0-0"><rect x="72" y="72" width="1056" height="365" fill="#fff" mask="url(#satori_om-id-0)"/></mask><mask id="satori_om-id-0-0-0-0"><rect x="72" y="113" width="1056" height="38" fill="#fff" mask="url(#satori_om-id-0)"/></mask><path fill="#64748b" d="M82.7 143.2Q82.2 143.7 81.4 143.7Q80.6 143.7 80.1 143.2Q79.7 142.8 79.7 141.9L79.7 141.9L79.7 124.0L74.1 124.0Q73.4 124.0 73.0 123.5Q72.5 123.1 72.5 122.4Q72.5 121.8 73.0 121.3Q73.4 120.9 74.1 120.9L74.1 120.9L88.7 120.9Q89.4 120.9 89.9 121.3Q90.3 121.8 90.3 122.4Q90.3 123.1 89.9 123.5Q89.4 124.0 88.7 124.0L88.7 124.0L83.2 124.0L83.2 141.9Q83.2 142.8 82.7 143.2ZM95.5 143.3Q95.1 143.8 94.3 143.8Q93.6 143.8 93.1 143.3Q92.6 142.8 92.6 142.0L92.6 142.0L92.6 122.4Q92.6 121.6 93.1 121.1Q93.5 120.6 94.3 120.6L94.3 120.6Q95.1 120.6 95.5 121.1Q96.0 121.6 96.0 122.4L96.0 122.4L96.0 129.8L96.0 129.8Q96.7 128.3 98.1 127.5Q99.4 126.8 101.3 126.8L101.3 126.8Q103.9 126.8 105.5 128.4Q107.0 130.1 107.0 132.9L107.0 132.9L107.0 142.0Q107.0 142.8 106.5 143.3Q106.1 143.8 105.3 143.8L105.3 143.8Q104.6 143.8 104.1 143.3Q103.6 142.8 103.6 142.0L103.6 142.0L103.6 133.5Q103.6 131.7 102.7 130.7Q101.8 129.7 100.0 129.7L100.0 129.7Q98.2 129.7 97.1 130.8Q96 132.0 96 134.0L96 134.0L96 142.0Q96 142.8 95.5 143.3ZM116.0 143.8L116.0 143.8Q113.3 143.8 111.7 142.1Q110.2 140.5 110.2 137.7L110.2 137.7L110.2 128.5Q110.2 127.7 110.6 127.2Q111.1 126.7 111.9 126.7L111.9 126.7Q112.6 126.7 113.1 127.2Q113.6 127.7 113.6 128.5L113.6 128.5L113.6 137.0Q113.6 138.9 114.5 139.9Q115.3 140.9 117.1 140.9L117.1 140.9Q118.9 140.9 119.9 139.7Q121.0 138.5 121.0 136.6L121.0 136.6L121.0 128.5Q121.0 127.7 121.5 127.2Q121.9 126.7 122.7 126.7L122.7 126.7Q123.4 126.7 123.9 127.2Q124.4 127.7 124.4 128.5L124.4 128.5L124.4 142.0Q124.4 142.8 123.9 143.3Q123.5 143.8 122.8 143.8Q122.0 143.8 121.6 143.3Q121.1 142.8 121.1 142.1L121.1 142.1L121.1 140.7L121.0 140.7Q119.6 143.8 116.0 143.8ZM129.4 143.8L129.4 143.8Q128.6 143.8 128.1 143.3Q127.7 142.8 127.7 142.0L127.7 142.0L127.7 128.4Q127.7 127.7 128.1 127.2Q128.6 126.7 129.3 126.7L129.3 126.7Q130 126.7 130.4 127.2Q130.9 127.7 130.9 128.4L130.9 128.4L130.9 129.8L131.0 129.8Q131.3 128.5 132.3 127.6Q133.3 126.8 134.6 126.8L134.6 126.8Q135.5 126.8 135.9 127.2L135.9 127.2Q136.4 127.5 136.4 128.4L136.4 128.4Q136.4 129.1 135.9 129.5L135.9 129.5Q135.4 130.0 134.3 130.0L134.3 130.0Q132.7 130 131.9 131.0Q131.1 132.0 131.1 133.6L131.1 133.6L131.1 142.0Q131.1 142.8 130.6 143.3Q130.1 143.8 129.4 143.8ZM144.3 143.8L144.3 143.8Q141.9 143.8 140.2 142.9Q138.5 142.0 137.9 140.4L137.9 140.4Q137.7 140.1 137.7 139.7L137.7 139.7Q137.7 139.1 138.1 138.8Q138.5 138.4 139.2 138.4L139.2 138.4Q140.0 138.4 140.6 139.3L140.6 139.3Q141.3 140.3 142.1 140.8Q143.0 141.2 144.4 141.2L144.4 141.2Q145.9 141.2 146.8 140.6Q147.6 140.0 147.6 139.0L147.6 139.0Q147.6 138.2 147.1 137.7Q146.5 137.3 145.2 136.9L145.2 136.9L142.6 136.3Q137.9 135.2 137.9 131.7L137.9 131.7Q137.9 129.4 139.7 128.1Q141.5 126.7 144.4 126.7L144.4 126.7Q146.6 126.7 148.2 127.7Q149.9 128.7 150.3 130.2L150.3 130.2Q150.3 130.6 150.3 130.7L150.3 130.7Q150.3 131.3 150.0 131.6Q149.6 131.9 149 131.9L149 131.9Q148.1 131.9 147.6 131.2L147.6 131.2Q147.1 130.3 146.3 129.8Q145.5 129.3 144.3 129.3L144.3 129.3Q142.9 129.3 142.0 129.9Q141.2 130.5 141.2 131.5L141.2 131.5Q141.2 133.0 143.7 133.6L143.7 133.6L146.3 134.2Q148.9 134.8 150.0 135.9Q151.0 136.9 151.0 138.7L151.0 138.7Q151.0 141.0 149.2 142.4Q147.3 143.8 144.3 143.8ZM159.8 143.8L159.8 143.8Q156.7 143.8 154.8 141.4Q152.9 139.1 152.9 135.3Q152.9 131.4 154.8 129.1Q156.7 126.8 159.8 126.8L159.8 126.8Q161.5 126.8 162.9 127.6Q164.3 128.4 165.0 129.8L165.0 129.8L165.0 129.8L165.0 122.4Q165.0 121.6 165.5 121.1Q166.0 120.6 166.7 120.6L166.7 120.6Q167.5 120.6 167.9 121.1Q168.4 121.6 168.4 122.4L168.4 122.4L168.4 142.1Q168.4 142.9 167.9 143.3Q167.5 143.8 166.7 143.8L166.7 143.8Q166 143.8 165.5 143.3Q165.0 142.9 165.0 142.1L165.0 142.1L165.0 140.5L165.0 140.5Q164.3 142.0 163 142.9Q161.7 143.8 159.8 143.8ZM160.7 140.9L160.7 140.9Q162.7 140.9 163.9 139.4Q165.0 137.8 165.0 135.3L165.0 135.3Q165.0 132.7 163.9 131.2Q162.7 129.6 160.7 129.6L160.7 129.6Q158.7 129.6 157.5 131.1Q156.4 132.7 156.4 135.3L156.4 135.3Q156.4 137.9 157.5 139.4Q158.7 140.9 160.7 140.9ZM176.7 143.8L176.7 143.8Q174.3 143.8 172.7 142.4Q171.2 141 171.2 138.8L171.2 138.8Q171.2 136.6 172.8 135.4Q174.4 134.1 177.3 133.9L177.3 133.9L181.8 133.7L181.8 132.4Q181.8 131.0 180.9 130.3Q180.1 129.5 178.5 129.5L178.5 129.5Q177.3 129.5 176.4 130.0Q175.6 130.5 174.9 131.6L174.9 131.6Q174.4 132.3 173.5 132.3L173.5 132.3Q172.9 132.3 172.5 131.9Q172.0 131.5 172.0 130.9L172.0 130.9Q172.0 130.3 172.3 129.8L172.3 129.8Q173.0 128.4 174.7 127.6Q176.4 126.7 178.6 126.7L178.6 126.7Q181.6 126.7 183.4 128.2Q185.2 129.7 185.2 132.1L185.2 132.1L185.2 142.1Q185.2 142.8 184.7 143.3Q184.3 143.8 183.5 143.8L183.5 143.8Q182.8 143.8 182.4 143.3Q182.0 142.9 181.9 142.2L181.9 142.2L181.9 140.8L181.9 140.8Q181.2 142.1 179.7 142.9Q178.3 143.8 176.7 143.8ZM177.6 141.1L177.6 141.1Q179.4 141.1 180.6 140.0Q181.8 138.9 181.8 137.3L181.8 137.3L181.8 136.0L177.8 136.3Q176.2 136.4 175.4 137.0Q174.6 137.6 174.6 138.7L174.6 138.7Q174.6 139.8 175.4 140.4Q176.3 141.1 177.6 141.1ZM190.5 149.6L190.5 149.6Q189.3 149.6 188.7 149.2Q188.0 148.8 188.0 148.0L188.0 148.0Q188.0 147.4 188.4 147.1Q188.8 146.8 189.4 146.8L189.4 146.8Q189.5 146.8 189.8 146.8Q190.0 146.8 190.2 146.8L190.2 146.8Q191.9 146.8 192.7 144.6L192.7 144.6L193.0 143.6L187.5 129.3Q187.4 128.7 187.4 128.3L187.4 128.3Q187.4 127.6 187.8 127.2Q188.3 126.7 189.1 126.7L189.1 126.7Q189.7 126.7 190.1 127.0Q190.5 127.3 190.7 128.0L190.7 128.0L194.9 140.4L194.9 140.4L199.1 128.0Q199.3 127.3 199.7 127.0Q200.1 126.7 200.8 126.7L200.8 126.7Q201.5 126.7 201.9 127.2Q202.4 127.6 202.4 128.3L202.4 128.3Q202.4 128.7 202.2 129.2L202.2 129.2L196.5 144.3Q195.4 147.3 194.1 148.4Q192.8 149.6 190.5 149.6ZM207.2 139.7L207.2 139.7Q207.9 139.7 208.3 140.0Q208.7 140.4 208.7 141.1L208.7 141.1Q208.7 141.5 208.6 142.0L208.6 142.0L207.3 147.3Q207.0 148.5 205.8 148.5L205.8 148.5Q205.2 148.5 204.9 148.1Q204.5 147.8 204.5 147.3L204.5 147.3Q204.5 147.1 204.5 146.9L204.5 146.9L205.5 141.1Q205.8 139.7 207.2 139.7Z M233.7 143.5L221.2 143.5Q220.4 143.5 220.0 143.1Q219.5 142.7 219.5 142L219.5 142Q219.5 141.5 219.7 141.1Q219.9 140.8 220.5 140.2L220.5 140.2L227.6 133.0Q229.8 130.8 230.5 129.6Q231.2 128.4 231.2 127.1L231.2 127.1Q231.2 125.5 230.1 124.4Q229 123.4 227.3 123.4L227.3 123.4Q224.0 123.4 222.8 126.7L222.8 126.7Q222.5 127.3 222.2 127.6Q221.8 127.9 221.2 127.9L221.2 127.9Q220.5 127.9 220.1 127.5Q219.6 127.0 219.6 126.4L219.6 126.4Q219.6 126 219.7 125.6L219.7 125.6Q219.9 124.7 220.5 123.8Q221.1 122.9 222.0 122.2Q222.9 121.4 224.3 121.0Q225.7 120.5 227.3 120.5L227.3 120.5Q230.5 120.5 232.6 122.3Q234.7 124.1 234.7 126.9L234.7 126.9Q234.7 128.8 233.6 130.5Q232.6 132.1 229.7 135.0L229.7 135.0L224.3 140.4L224.3 140.5L233.7 140.5Q234.4 140.5 234.8 140.9Q235.2 141.3 235.2 142L235.2 142Q235.2 142.7 234.8 143.1Q234.4 143.5 233.7 143.5L233.7 143.5ZM246.6 143.9L246.6 143.9Q244.0 143.9 242.0 142.6Q240.1 141.3 239.0 138.9L239.0 138.9Q237.8 136.3 237.8 132.5L237.8 132.5Q237.8 126.8 240.1 123.7Q242.5 120.5 246.8 120.5L246.8 120.5Q249.1 120.5 251.0 121.5Q252.8 122.4 253.7 124.1L253.7 124.1Q254.1 124.8 254.1 125.4L254.1 125.4Q254.1 126.0 253.7 126.4Q253.3 126.8 252.6 126.8L252.6 126.8Q252.0 126.8 251.7 126.6Q251.3 126.3 250.8 125.7L250.8 125.7Q249.3 123.4 246.7 123.4L246.7 123.4Q244.1 123.4 242.6 125.7Q241.2 128.0 241.1 132.1L241.1 132.1L241.1 132.3L241.2 132.3Q241.9 130.7 243.6 129.7Q245.2 128.7 247.4 128.7L247.4 128.7Q250.7 128.7 252.8 130.8Q254.9 132.9 254.9 136.1L254.9 136.1Q254.9 139.5 252.5 141.7Q250.2 143.9 246.6 143.9ZM246.6 141.0L246.6 141.0Q248.6 141.0 250.0 139.6Q251.4 138.2 251.4 136.2L251.4 136.2Q251.4 134.2 250.0 132.8Q248.7 131.5 246.6 131.5Q244.5 131.5 243.2 132.8Q241.8 134.1 241.8 136.1L241.8 136.1Q241.8 138.2 243.2 139.6Q244.6 141.0 246.6 141.0Z M282.1 140.7Q279.3 143.8 274.4 143.8Q269.5 143.8 266.7 140.7Q263.8 137.6 263.8 132.2Q263.8 126.8 266.7 123.7Q269.5 120.5 274.4 120.5L274.4 120.5Q279.2 120.5 282.1 123.7Q284.9 126.8 284.9 132.2Q284.9 137.6 282.1 140.7ZM274.4 140.8L274.4 140.8Q277.6 140.8 279.5 138.5Q281.3 136.1 281.3 132.2L281.3 132.2Q281.3 128.3 279.5 125.9Q277.6 123.6 274.4 123.6L274.4 123.6Q271.2 123.6 269.3 125.9Q267.4 128.3 267.4 132.2L267.4 132.2Q267.4 136.1 269.3 138.5Q271.2 140.8 274.4 140.8ZM294.9 143.8L294.9 143.8Q291.3 143.8 289.2 141.5Q287.1 139.2 287.1 135.3L287.1 135.3Q287.1 131.4 289.2 129.1Q291.3 126.7 294.9 126.7L294.9 126.7Q297.2 126.7 299.1 127.9Q300.9 129.0 301.5 130.7L301.5 130.7Q301.6 131.2 301.6 131.5L301.6 131.5Q301.6 132.1 301.2 132.5Q300.8 132.9 300.2 132.9L300.2 132.9Q299.7 132.9 299.3 132.7Q299.0 132.4 298.7 131.9L298.7 131.9Q298.0 130.7 297.1 130.1Q296.2 129.5 294.9 129.5L294.9 129.5Q292.9 129.5 291.8 131.1Q290.6 132.6 290.6 135.3L290.6 135.3Q290.6 137.9 291.8 139.4Q292.9 141.0 294.9 141.0L294.9 141.0Q297.4 141.0 298.7 138.7L298.7 138.7Q299.0 138.1 299.3 137.9Q299.7 137.6 300.2 137.6L300.2 137.6Q300.8 137.6 301.3 138.0Q301.7 138.4 301.7 139.0L301.7 139.0Q301.7 139.4 301.5 139.9L301.5 139.9Q300.8 141.6 299 142.7Q297.2 143.8 294.9 143.8ZM305.4 139.5L305.4 139.5L305.4 129.7L304.2 129.7Q303.5 129.7 303.2 129.4Q302.8 129 302.8 128.4Q302.8 127.8 303.2 127.4Q303.5 127.0 304.2 127.0L304.2 127.0L305.4 127.0L305.4 124.6Q305.4 123.8 305.8 123.3Q306.3 122.8 307.1 122.8Q307.8 122.8 308.3 123.3Q308.8 123.8 308.8 124.6L308.8 124.6L308.8 127.0L310.7 127.0Q311.3 127.0 311.7 127.4Q312.1 127.8 312.1 128.4Q312.1 129 311.7 129.4Q311.3 129.7 310.7 129.7L310.7 129.7L308.8 129.7L308.8 138.8Q308.8 139.8 309.1 140.3Q309.5 140.7 310.4 140.8L310.4 140.8L310.7 140.8Q312.2 140.9 312.2 142.1L312.2 142.1Q312.2 143.6 309.7 143.6L309.7 143.6L309.5 143.6Q305.4 143.6 305.4 139.5ZM327.4 141.5Q325.3 143.8 321.7 143.8Q318.2 143.8 316.0 141.5Q313.9 139.2 313.9 135.3L313.9 135.3Q313.9 131.3 316.0 129.0Q318.2 126.7 321.7 126.7Q325.3 126.7 327.4 129.0Q329.5 131.3 329.5 135.3L329.5 135.3Q329.5 139.2 327.4 141.5ZM321.7 141L321.7 141Q323.7 141 324.9 139.5Q326.1 138.0 326.1 135.3L326.1 135.3Q326.1 132.5 324.9 131.0Q323.7 129.5 321.7 129.5Q319.7 129.5 318.5 131.0Q317.4 132.5 317.4 135.3L317.4 135.3Q317.4 138.0 318.5 139.5Q319.7 141 321.7 141ZM333.9 143.8L333.9 143.8Q333.1 143.8 332.7 143.3Q332.3 142.9 332.3 142.1L332.3 142.1L332.3 122.4Q332.3 121.6 332.7 121.1Q333.2 120.6 333.9 120.6Q334.7 120.6 335.2 121.1Q335.6 121.6 335.6 122.4L335.6 122.4L335.6 129.8L335.7 129.8Q336.5 128.4 337.8 127.6Q339.2 126.8 340.9 126.8L340.9 126.8Q344.0 126.8 345.9 129.1Q347.8 131.4 347.8 135.3L347.8 135.3Q347.8 139.2 345.9 141.5Q344.0 143.8 340.9 143.8L340.9 143.8Q339.1 143.8 337.7 142.9Q336.4 142.1 335.6 140.7L335.6 140.7L335.5 140.7L335.5 142.1Q335.5 142.9 335.1 143.3Q334.6 143.8 333.9 143.8ZM340.0 140.9L340.0 140.9Q342.0 140.9 343.1 139.4Q344.3 137.9 344.3 135.3L344.3 135.3Q344.3 132.7 343.1 131.1Q342.0 129.6 340.0 129.6L340.0 129.6Q338.0 129.6 336.8 131.2Q335.6 132.7 335.6 135.3L335.6 135.3Q335.6 137.8 336.8 139.3Q338.0 140.9 340.0 140.9ZM357.5 143.8L357.5 143.8Q353.8 143.8 351.7 141.5Q349.6 139.3 349.6 135.3L349.6 135.3Q349.6 131.4 351.7 129.1Q353.8 126.7 357.3 126.7L357.3 126.7Q360.5 126.7 362.6 128.9Q364.6 131 364.6 134.4L364.6 134.4Q364.6 135.2 364.2 135.6Q363.8 136.1 363.0 136.1L363.0 136.1L353.0 136.1L353.0 136.2Q353.0 138.4 354.2 139.7Q355.4 141.0 357.4 141.0L357.4 141.0Q358.8 141.0 359.8 140.5Q360.7 140.0 361.7 138.7L361.7 138.7Q362.2 138.1 362.8 138.1L362.8 138.1Q363.5 138.1 363.9 138.5Q364.3 138.9 364.3 139.5L364.3 139.5Q364.3 139.8 364.0 140.4L364.0 140.4Q363.2 142 361.5 142.9Q359.8 143.8 357.5 143.8ZM353.0 133.7L353.0 133.7L361.3 133.7Q361.2 131.8 360.1 130.6Q359 129.5 357.2 129.5L357.2 129.5Q355.5 129.5 354.3 130.6Q353.2 131.8 353.0 133.7ZM368.9 143.8L368.9 143.8Q368.2 143.8 367.7 143.3Q367.3 142.8 367.3 142.0L367.3 142.0L367.3 128.4Q367.3 127.7 367.7 127.2Q368.1 126.7 368.9 126.7L368.9 126.7Q369.6 126.7 370.0 127.2Q370.5 127.7 370.5 128.4L370.5 128.4L370.5 129.8L370.5 129.8Q370.9 128.5 371.9 127.6Q372.9 126.8 374.1 126.8L374.1 126.8Q375.0 126.8 375.5 127.2L375.5 127.2Q375.9 127.5 375.9 128.4L375.9 128.4Q375.9 129.1 375.4 129.5L375.4 129.5Q374.9 130.0 373.9 130.0L373.9 130.0Q372.2 130 371.4 131.0Q370.6 132.0 370.6 133.6L370.6 133.6L370.6 142.0Q370.6 142.8 370.2 143.3Q369.7 143.8 368.9 143.8Z M398.4 143.5L385.9 143.5Q385.1 143.5 384.7 143.1Q384.3 142.7 384.3 142L384.3 142Q384.3 141.5 384.4 141.1Q384.6 140.8 385.2 140.2L385.2 140.2L392.3 133.0Q394.5 130.8 395.2 129.6Q395.9 128.4 395.9 127.1L395.9 127.1Q395.9 125.5 394.8 124.4Q393.7 123.4 392 123.4L392 123.4Q388.7 123.4 387.5 126.7L387.5 126.7Q387.2 127.3 386.9 127.6Q386.5 127.9 385.9 127.9L385.9 127.9Q385.2 127.9 384.8 127.5Q384.3 127.0 384.3 126.4L384.3 126.4Q384.3 126 384.4 125.6L384.4 125.6Q384.6 124.7 385.2 123.8Q385.8 122.9 386.7 122.2Q387.6 121.4 389.0 121.0Q390.4 120.5 392.0 120.5L392.0 120.5Q395.3 120.5 397.3 122.3Q399.4 124.1 399.4 126.9L399.4 126.9Q399.4 128.8 398.3 130.5Q397.3 132.1 394.4 135.0L394.4 135.0L389 140.4L389 140.5L398.4 140.5Q399.1 140.5 399.5 140.9Q399.9 141.3 399.9 142L399.9 142Q399.9 142.7 399.5 143.1Q399.1 143.5 398.4 143.5L398.4 143.5ZM417.4 140.7Q415.1 143.9 411.1 143.9Q407.0 143.9 404.8 140.7Q402.5 137.6 402.5 132.2L402.5 132.2Q402.5 126.8 404.8 123.6Q407.1 120.5 411.1 120.5L411.1 120.5Q415.1 120.5 417.4 123.6Q419.7 126.8 419.7 132.2L419.7 132.2Q419.7 137.6 417.4 140.7ZM411.1 141.0L411.1 141.0Q413.5 141.0 414.8 138.6Q416.2 136.3 416.2 132.2L416.2 132.2Q416.2 128.1 414.8 125.8Q413.5 123.4 411.1 123.4Q408.7 123.4 407.3 125.8Q406 128.1 406 132.2L406 132.2Q406 136.3 407.3 138.6Q408.7 141.0 411.1 141.0ZM436.9 143.5L424.4 143.5Q423.6 143.5 423.2 143.1Q422.8 142.7 422.8 142L422.8 142Q422.8 141.5 422.9 141.1Q423.1 140.8 423.7 140.2L423.7 140.2L430.8 133.0Q433.0 130.8 433.7 129.6Q434.4 128.4 434.4 127.1L434.4 127.1Q434.4 125.5 433.3 124.4Q432.2 123.4 430.5 123.4L430.5 123.4Q427.2 123.4 426.0 126.7L426.0 126.7Q425.7 127.3 425.4 127.6Q425 127.9 424.4 127.9L424.4 127.9Q423.7 127.9 423.3 127.5Q422.8 127.0 422.8 126.4L422.8 126.4Q422.8 126 422.9 125.6L422.9 125.6Q423.1 124.7 423.7 123.8Q424.3 122.9 425.2 122.2Q426.1 121.4 427.5 121.0Q428.9 120.5 430.5 120.5L430.5 120.5Q433.8 120.5 435.8 122.3Q437.9 124.1 437.9 126.9L437.9 126.9Q437.9 128.8 436.8 130.5Q435.8 132.1 432.9 135.0L432.9 135.0L427.5 140.4L427.5 140.5L436.9 140.5Q437.6 140.5 438.0 140.9Q438.4 141.3 438.4 142L438.4 142Q438.4 142.7 438.0 143.1Q437.6 143.5 436.9 143.5L436.9 143.5ZM449.2 143.9L449.2 143.9Q446.5 143.9 444.6 142.9Q442.7 141.9 441.8 140.2L441.8 140.2Q441.3 139.3 441.3 138.5L441.3 138.5Q441.3 137.8 441.7 137.4Q442.1 136.9 442.9 136.9L442.9 136.9Q443.4 136.9 443.8 137.2Q444.2 137.5 444.4 138.1L444.4 138.1Q445.6 141.0 449.2 141.0L449.2 141.0Q451.3 141.0 452.5 139.9Q453.8 138.9 453.8 137.2L453.8 137.2Q453.8 135.3 452.5 134.3Q451.3 133.2 449.0 133.2L449.0 133.2L447.5 133.2Q446.8 133.2 446.4 132.8Q446.0 132.5 446.0 131.8Q446.0 131.2 446.4 130.9Q446.8 130.5 447.5 130.5L447.5 130.5L448.9 130.5Q450.8 130.5 452 129.5Q453.2 128.4 453.2 126.9L453.2 126.9Q453.2 125.3 452.2 124.3Q451.1 123.4 449.2 123.4L449.2 123.4Q447.5 123.4 446.5 124.1Q445.4 124.8 444.8 126.2L444.8 126.2Q444.6 126.9 444.2 127.2Q443.9 127.4 443.3 127.4L443.3 127.4Q442.5 127.4 442.1 127.0Q441.8 126.6 441.8 125.9L441.8 125.9Q441.8 125.1 442.2 124.2L442.2 124.2Q443.0 122.5 444.9 121.5Q446.7 120.5 449.2 120.5L449.2 120.5Q452.6 120.5 454.6 122.2Q456.6 123.8 456.6 126.4L456.6 126.4Q456.6 128.4 455.3 129.8Q454 131.2 451.9 131.7L451.9 131.7L451.9 131.8Q454.4 132.0 455.9 133.4Q457.4 134.9 457.4 137.2L457.4 137.2Q457.4 140.2 455.1 142.0Q452.8 143.9 449.2 143.9Z " clip-path="url(#satori_cp-id-0)" mask="url(#satori_om-id-0)"/><mask id="satori_om-id-0-0-0-1"><rect x="72" y="175" width="1056" height="221" fill="#fff" mask="url(#satori_om-id-0)"/></mask><path fill="#0f172a" d="M96.1 235.3L96.1 235.3Q85.9 235.3 80.1 229.1Q74.3 222.8 74.3 211.9L74.3 211.9Q74.3 201.1 80.1 194.9Q85.9 188.7 95.8 188.7L95.8 188.7Q102.2 188.7 107.0 191.3Q111.9 194.0 113.8 198.3L113.8 198.3Q114.5 199.7 114.5 201.2L114.5 201.2Q114.5 203.0 113.4 204.1Q112.2 205.2 110.4 205.2L110.4 205.2Q107.5 205.2 105.8 202.5L105.8 202.5Q102.5 196.5 95.9 196.5L95.9 196.5Q90.3 196.5 87.1 200.5Q84.0 204.6 84.0 211.7L84.0 211.7Q84.0 219.1 87.3 223.3Q90.6 227.5 96.2 227.5L96.2 227.5Q100.8 227.5 103.8 224.9Q106.7 222.3 106.8 218.1L106.8 218.1L106.9 217.4L100.3 217.4Q98.6 217.4 97.6 216.5Q96.5 215.6 96.5 214.0Q96.5 212.4 97.6 211.4Q98.6 210.5 100.3 210.5L100.3 210.5L111.3 210.5Q113.6 210.5 114.8 211.8Q116.1 213.1 116.1 215.4L116.1 215.4L116.1 216.1Q116.1 224.9 110.8 230.1Q105.5 235.3 96.1 235.3ZM126.1 235.2L126.1 235.2Q124.0 235.2 122.7 234.0Q121.5 232.7 121.5 230.5L121.5 230.5L121.5 205.0Q121.5 202.8 122.7 201.6Q123.9 200.4 125.9 200.4L125.9 200.4Q127.8 200.4 129.0 201.6Q130.2 202.8 130.2 205.0L130.2 205.0L130.2 207.1L130.4 207.1Q131.1 204.1 133.0 202.3Q134.8 200.5 137.4 200.5L137.4 200.5Q139.2 200.5 140.2 201.4L140.2 201.4Q141.5 202.4 141.5 204.7L141.5 204.7Q141.5 206.9 140.2 208.0L140.2 208.0Q138.9 209.2 136.3 209.2L136.3 209.2Q133.3 209.2 131.9 210.8Q130.6 212.5 130.6 215.6L130.6 215.6L130.6 230.5Q130.6 232.7 129.4 234.0Q128.2 235.2 126.1 235.2ZM172.3 230.6Q167.8 235.3 160.2 235.3Q152.5 235.3 148.0 230.6Q143.6 226.0 143.6 217.8L143.6 217.8Q143.6 209.7 148.1 205.0Q152.6 200.3 160.2 200.3L160.2 200.3Q167.8 200.3 172.3 205.0Q176.8 209.7 176.8 217.8L176.8 217.8Q176.8 226.0 172.3 230.6ZM160.2 228.3L160.2 228.3Q163.5 228.3 165.5 225.6Q167.5 222.8 167.5 217.8L167.5 217.8Q167.5 212.9 165.5 210.1Q163.5 207.3 160.2 207.3Q156.8 207.3 154.8 210.1Q152.8 212.9 152.8 217.8L152.8 217.8Q152.8 222.8 154.8 225.6Q156.8 228.3 160.2 228.3ZM193.3 235.2L193.3 235.2Q187.8 235.2 184.6 231.8Q181.3 228.5 181.3 222.6L181.3 222.6L181.3 205.1Q181.3 202.9 182.5 201.6Q183.8 200.4 185.8 200.4Q187.9 200.4 189.2 201.6Q190.4 202.9 190.4 205.1L190.4 205.1L190.4 220.7Q190.4 224.1 192.0 225.8Q193.6 227.6 196.7 227.6Q199.7 227.6 201.5 225.6Q203.3 223.6 203.3 220.2L203.3 220.2L203.3 205.1Q203.3 202.9 204.5 201.6Q205.8 200.4 207.8 200.4Q209.9 200.4 211.1 201.6Q212.4 202.9 212.4 205.1L212.4 205.1L212.4 230.6Q212.4 232.8 211.2 234.0Q210 235.2 208.0 235.2Q205.9 235.2 204.8 234.0Q203.6 232.8 203.6 230.6L203.6 230.6L203.6 228.5L203.4 228.5Q200.8 235.2 193.3 235.2ZM226.2 234.0Q224.9 235.2 222.9 235.2Q220.8 235.2 219.6 234.0Q218.3 232.7 218.3 230.5L218.3 230.5L218.3 205.0Q218.3 202.8 219.5 201.6Q220.7 200.4 222.7 200.4Q224.8 200.4 226.0 201.6Q227.3 202.9 227.3 205.0L227.3 205.0L227.3 206.9L227.5 206.9Q230.2 200.4 237.8 200.4L237.8 200.4Q243.3 200.4 246.4 203.7Q249.4 207.1 249.4 213.0L249.4 213.0L249.4 230.5Q249.4 232.7 248.2 234.0Q246.9 235.2 244.8 235.2Q242.8 235.2 241.5 234.0Q240.3 232.7 240.3 230.5L240.3 230.5L240.3 214.9Q240.3 211.6 238.7 209.8Q237.2 208.0 234.1 208.0Q231.1 208.0 229.3 210.0Q227.4 212.1 227.4 215.3L227.4 215.3L227.4 230.5Q227.4 232.7 226.2 234.0ZM267.6 235.1L267.6 235.1Q261.3 235.1 257.7 230.4Q254.0 225.8 254.0 217.7L254.0 217.7Q254.0 209.8 257.7 205.1Q261.4 200.5 267.7 200.5L267.7 200.5Q271.3 200.5 274.0 202.2Q276.7 204.0 277.9 206.8L277.9 206.8L278.1 206.8L278.1 193.6Q278.1 191.3 279.3 190.0Q280.6 188.8 282.7 188.8Q284.7 188.8 286.0 190.0Q287.2 191.3 287.2 193.6L287.2 193.6L287.2 230.6Q287.2 232.8 286.0 234.0Q284.8 235.2 282.7 235.2L282.7 235.2Q280.7 235.2 279.4 234.0Q278.1 232.8 278.1 230.6L278.1 230.6L278.1 228.6L277.9 228.6Q276.8 231.6 274.1 233.3Q271.4 235.1 267.6 235.1ZM270.7 227.7L270.7 227.7Q274.1 227.7 276.1 225.1Q278.2 222.4 278.2 217.8L278.2 217.8Q278.2 213.2 276.1 210.5Q274.1 207.8 270.7 207.8L270.7 207.8Q267.3 207.8 265.3 210.5Q263.3 213.2 263.3 217.8L263.3 217.8Q263.3 222.4 265.3 225.1Q267.3 227.7 270.7 227.7Z M314.1 234.0Q313.0 235.1 311.0 235.1Q309.0 235.1 307.9 234.0Q306.8 232.8 306.8 230.7L306.8 230.7L306.8 194.9Q306.8 192.1 308.4 190.4Q310.0 188.8 312.8 188.8L312.8 188.8Q315.3 188.8 316.8 190.0Q318.3 191.1 319.3 193.7L319.3 193.7L330.5 221.4L330.8 221.4L341.9 193.7Q342.9 191.1 344.5 190.0Q346.0 188.8 348.4 188.8L348.4 188.8Q351.3 188.8 352.9 190.4Q354.5 192.1 354.5 194.9L354.5 194.9L354.5 230.7Q354.5 232.8 353.4 234.0Q352.3 235.1 350.3 235.1Q348.3 235.1 347.2 234.0Q346.1 232.8 346.1 230.7L346.1 230.7L346.1 204.1L345.8 204.1L334.7 231.4Q333.5 234.3 330.7 234.3L330.7 234.3Q327.7 234.3 326.6 231.4L326.6 231.4L315.4 204.1L315.2 204.1L315.2 230.7Q315.2 232.8 314.1 234.0ZM371.1 235.1L371.1 235.1Q366.3 235.1 363.1 232.2Q359.9 229.4 359.9 224.9L359.9 224.9Q359.9 220.4 363.3 217.8Q366.7 215.2 373.0 214.8L373.0 214.8L381.4 214.3L381.4 212.1Q381.4 209.8 379.9 208.5Q378.4 207.1 375.8 207.1L375.8 207.1Q373.7 207.1 372.3 207.9Q370.8 208.7 369.3 210.7L369.3 210.7Q367.8 212.4 365.7 212.4L365.7 212.4Q364 212.4 362.9 211.4Q361.8 210.4 361.8 208.9L361.8 208.9Q361.8 207.8 362.3 206.8L362.3 206.8Q363.5 203.8 367.2 202.1Q371.0 200.3 376.2 200.3L376.2 200.3Q382.6 200.3 386.5 203.4Q390.4 206.5 390.4 211.5L390.4 211.5L390.4 230.6Q390.4 232.8 389.2 234.0Q387.9 235.2 385.9 235.2L385.9 235.2Q384.0 235.2 382.9 234.2Q381.7 233.1 381.6 231.1L381.6 231.1L381.6 229.4L381.4 229.4Q380 232.1 377.2 233.6Q374.3 235.1 371.1 235.1ZM374.1 228.5L374.1 228.5Q377.2 228.5 379.3 226.7Q381.4 225.0 381.4 222.3L381.4 222.3L381.4 219.8L374.3 220.3Q371.8 220.5 370.4 221.6Q369 222.6 369 224.4L369 224.4Q369 226.3 370.4 227.4Q371.8 228.5 374.1 228.5ZM404.1 234.0Q402.9 235.2 400.8 235.2Q398.8 235.2 397.5 234.0Q396.3 232.7 396.3 230.5L396.3 230.5L396.3 205.0Q396.3 202.8 397.4 201.6Q398.6 200.4 400.7 200.4Q402.7 200.4 404.0 201.6Q405.2 202.9 405.2 205.0L405.2 205.0L405.2 206.9L405.4 206.9Q408.2 200.4 415.7 200.4L415.7 200.4Q421.3 200.4 424.3 203.7Q427.3 207.1 427.3 213.0L427.3 213.0L427.3 230.5Q427.3 232.7 426.1 234.0Q424.8 235.2 422.8 235.2Q420.7 235.2 419.5 234.0Q418.2 232.7 418.2 230.5L418.2 230.5L418.2 214.9Q418.2 211.6 416.7 209.8Q415.1 208.0 412.1 208.0Q409.0 208.0 407.2 210.0Q405.4 212.1 405.4 215.3L405.4 215.3L405.4 230.5Q405.4 232.7 404.1 234.0ZM441.3 195.5Q439.9 196.9 437.8 196.9Q435.8 196.9 434.4 195.5Q433.0 194.1 433.0 192.2L433.0 192.2Q433.0 190.2 434.4 188.8Q435.8 187.5 437.8 187.5Q439.9 187.5 441.3 188.8Q442.7 190.2 442.7 192.2L442.7 192.2Q442.7 194.1 441.3 195.5ZM441.2 233.9Q440.0 235.2 437.8 235.2Q435.7 235.2 434.5 233.9Q433.3 232.7 433.3 230.5L433.3 230.5L433.3 205.1Q433.3 202.9 434.5 201.6Q435.7 200.4 437.8 200.4Q440.0 200.4 441.2 201.6Q442.4 202.9 442.4 205.1L442.4 205.1L442.4 230.5Q442.4 232.7 441.2 233.9ZM456.3 245.3Q455.1 246.5 453.0 246.5Q451.0 246.5 449.7 245.3Q448.5 244.0 448.5 241.7L448.5 241.7L448.5 205.1Q448.5 202.8 449.7 201.6Q450.9 200.4 453.0 200.4Q455 200.4 456.2 201.6Q457.5 202.8 457.5 205.1L457.5 205.1L457.5 206.9L457.7 206.9Q459.0 203.9 461.7 202.2Q464.4 200.5 468.0 200.5L468.0 200.5Q474.4 200.5 478.1 205.1Q481.8 209.7 481.8 217.8L481.8 217.8Q481.8 225.9 478.1 230.5Q474.5 235.1 468.2 235.1L468.2 235.1Q464.6 235.1 461.9 233.4Q459.1 231.8 457.8 228.9L457.8 228.9L457.6 228.9L457.6 241.7Q457.6 244.0 456.3 245.3ZM465.0 227.7L465.0 227.7Q468.4 227.7 470.4 225.1Q472.4 222.4 472.4 217.8Q472.4 213.2 470.4 210.5Q468.4 207.8 465.0 207.8L465.0 207.8Q461.6 207.8 459.6 210.6Q457.6 213.3 457.6 217.8L457.6 217.8Q457.6 222.3 459.6 225.0Q461.6 227.7 465.0 227.7ZM498.3 235.2L498.3 235.2Q492.8 235.2 489.6 231.8Q486.3 228.5 486.3 222.6L486.3 222.6L486.3 205.1Q486.3 202.9 487.5 201.6Q488.8 200.4 490.8 200.4Q492.9 200.4 494.2 201.6Q495.4 202.9 495.4 205.1L495.4 205.1L495.4 220.7Q495.4 224.1 497.0 225.8Q498.6 227.6 501.7 227.6Q504.7 227.6 506.5 225.6Q508.3 223.6 508.3 220.2L508.3 220.2L508.3 205.1Q508.3 202.9 509.5 201.6Q510.8 200.4 512.8 200.4Q514.9 200.4 516.1 201.6Q517.4 202.9 517.4 205.1L517.4 205.1L517.4 230.6Q517.4 232.8 516.2 234.0Q515 235.2 513.0 235.2Q510.9 235.2 509.8 234.0Q508.6 232.8 508.6 230.6L508.6 230.6L508.6 228.5L508.4 228.5Q505.8 235.2 498.3 235.2ZM531.4 234.0Q530.2 235.2 528.1 235.2Q526.0 235.2 524.8 234.0Q523.5 232.7 523.5 230.5L523.5 230.5L523.5 193.6Q523.5 191.3 524.8 190.0Q526.0 188.8 528.1 188.8Q530.2 188.8 531.4 190.0Q532.7 191.3 532.7 193.6L532.7 193.6L532.7 230.5Q532.7 232.7 531.4 234.0ZM548.7 235.1L548.7 235.1Q543.9 235.1 540.7 232.2Q537.5 229.4 537.5 224.9L537.5 224.9Q537.5 220.4 540.9 217.8Q544.3 215.2 550.6 214.8L550.6 214.8L559 214.3L559 212.1Q559 209.8 557.5 208.5Q556.0 207.1 553.4 207.1L553.4 207.1Q551.3 207.1 549.8 207.9Q548.4 208.7 546.9 210.7L546.9 210.7Q545.4 212.4 543.3 212.4L543.3 212.4Q541.6 212.4 540.5 211.4Q539.4 210.4 539.4 208.9L539.4 208.9Q539.4 207.8 539.9 206.8L539.9 206.8Q541.1 203.8 544.8 202.1Q548.6 200.3 553.8 200.3L553.8 200.3Q560.2 200.3 564.1 203.4Q568.0 206.5 568.0 211.5L568.0 211.5L568.0 230.6Q568.0 232.8 566.8 234.0Q565.5 235.2 563.5 235.2L563.5 235.2Q561.6 235.2 560.5 234.2Q559.3 233.1 559.2 231.1L559.2 231.1L559.2 229.4L559.0 229.4Q557.6 232.1 554.8 233.6Q551.9 235.1 548.7 235.1ZM551.7 228.5L551.7 228.5Q554.8 228.5 556.9 226.7Q559 225.0 559 222.3L559 222.3L559 219.8L551.9 220.3Q549.4 220.5 548.0 221.6Q546.6 222.6 546.6 224.4L546.6 224.4Q546.6 226.3 548 227.4Q549.4 228.5 551.7 228.5ZM576.3 226.0L576.3 226.0L576.3 207.9L574.5 207.9Q572.9 207.9 572.0 207.0Q571 206.1 571 204.5Q571 202.9 572.0 202.0Q572.9 201.1 574.5 201.1L574.5 201.1L576.3 201.1L576.3 197.3Q576.3 195.1 577.5 193.8Q578.7 192.6 580.8 192.6Q583.0 192.6 584.2 193.8Q585.4 195.1 585.4 197.3L585.4 197.3L585.4 201.1L588.6 201.1Q590.3 201.1 591.2 202.0Q592.1 202.9 592.1 204.5Q592.1 206.1 591.2 207.0Q590.3 207.9 588.6 207.9L588.6 207.9L585.4 207.9L585.4 224.0Q585.4 225.7 586.1 226.6Q586.7 227.4 588.2 227.5L588.2 227.5L588.8 227.6Q590.5 227.7 591.4 228.5Q592.3 229.3 592.3 230.9L592.3 230.9Q592.3 232.8 590.5 233.9Q588.8 234.9 585.8 234.9L585.8 234.9L585.5 234.9Q576.3 234.9 576.3 226.0ZM624.1 230.6Q619.6 235.3 612.0 235.3Q604.3 235.3 599.8 230.6Q595.4 226.0 595.4 217.8L595.4 217.8Q595.4 209.7 599.9 205.0Q604.4 200.3 612.0 200.3L612.0 200.3Q619.6 200.3 624.1 205.0Q628.6 209.7 628.6 217.8L628.6 217.8Q628.6 226.0 624.1 230.6ZM612.0 228.3L612.0 228.3Q615.3 228.3 617.3 225.6Q619.3 222.8 619.3 217.8L619.3 217.8Q619.3 212.9 617.3 210.1Q615.3 207.3 612.0 207.3Q608.6 207.3 606.6 210.1Q604.6 212.9 604.6 217.8L604.6 217.8Q604.6 222.8 606.6 225.6Q608.6 228.3 612.0 228.3ZM637.8 235.2L637.8 235.2Q635.7 235.2 634.5 234.0Q633.3 232.7 633.3 230.5L633.3 230.5L633.3 205.0Q633.3 202.8 634.5 201.6Q635.7 200.4 637.7 200.4L637.7 200.4Q639.6 200.4 640.8 201.6Q642.0 202.8 642.0 205.0L642.0 205.0L642.0 207.1L642.2 207.1Q642.8 204.1 644.7 202.3Q646.6 200.5 649.1 200.5L649.1 200.5Q651.0 200.5 652.0 201.4L652.0 201.4Q653.3 202.4 653.3 204.7L653.3 204.7Q653.3 206.9 652.0 208.0L652.0 208.0Q650.6 209.2 648 209.2L648 209.2Q645 209.2 643.7 210.8Q642.4 212.5 642.4 215.6L642.4 215.6L642.4 230.5Q642.4 232.7 641.2 234.0Q639.9 235.2 637.8 235.2Z M678.2 233.8Q676.9 235.1 674.7 235.1Q672.5 235.1 671.2 233.8Q670.0 232.6 670.0 230.2L670.0 230.2L670.0 194.4Q670.0 192.1 671.2 190.8Q672.5 189.5 674.7 189.5L674.7 189.5L688.3 189.5Q695.3 189.5 699.6 193.7Q703.9 198.0 703.9 204.9L703.9 204.9Q703.9 211.8 699.5 216.1Q695 220.3 687.8 220.3L687.8 220.3L679.4 220.3L679.4 230.2Q679.4 232.6 678.2 233.8ZM679.4 196.9L679.4 213.0L685.8 213.0Q689.8 213.0 692.1 210.9Q694.3 208.8 694.3 204.9Q694.3 201.1 692.1 199.0Q689.9 196.9 685.8 196.9L685.8 196.9L679.4 196.9ZM713.3 235.2L713.3 235.2Q711.2 235.2 710.0 234.0Q708.7 232.7 708.7 230.5L708.7 230.5L708.7 205.0Q708.7 202.8 709.9 201.6Q711.1 200.4 713.1 200.4L713.1 200.4Q715.1 200.4 716.3 201.6Q717.4 202.8 717.4 205.0L717.4 205.0L717.4 207.1L717.6 207.1Q718.3 204.1 720.2 202.3Q722.1 200.5 724.6 200.5L724.6 200.5Q726.4 200.5 727.4 201.4L727.4 201.4Q728.8 202.4 728.8 204.7L728.8 204.7Q728.8 206.9 727.4 208.0L727.4 208.0Q726.1 209.2 723.5 209.2L723.5 209.2Q720.5 209.2 719.2 210.8Q717.8 212.5 717.8 215.6L717.8 215.6L717.8 230.5Q717.8 232.7 716.6 234.0Q715.4 235.2 713.3 235.2ZM740.2 195.5Q738.8 196.9 736.7 196.9Q734.7 196.9 733.3 195.5Q731.8 194.1 731.8 192.2L731.8 192.2Q731.8 190.2 733.3 188.8Q734.7 187.5 736.7 187.5Q738.8 187.5 740.2 188.8Q741.6 190.2 741.6 192.2L741.6 192.2Q741.6 194.1 740.2 195.5ZM740.1 233.9Q738.8 235.2 736.7 235.2Q734.6 235.2 733.4 233.9Q732.2 232.7 732.2 230.5L732.2 230.5L732.2 205.1Q732.2 202.9 733.4 201.6Q734.6 200.4 736.7 200.4Q738.8 200.4 740.1 201.6Q741.3 202.9 741.3 205.1L741.3 205.1L741.3 230.5Q741.3 232.7 740.1 233.9ZM751.9 235.2L751.9 235.2Q749.8 235.2 748.6 234.0Q747.3 232.7 747.3 230.5L747.3 230.5L747.3 205.0Q747.3 202.8 748.5 201.6Q749.8 200.4 751.8 200.4Q753.8 200.4 755.0 201.6Q756.2 202.8 756.2 205.0L756.2 205.0L756.2 207.1L756.3 207.1Q757.4 204.1 760.0 202.2Q762.5 200.4 765.9 200.4L765.9 200.4Q769.5 200.4 772.0 202.2Q774.4 204.0 775.3 207.3L775.3 207.3L775.4 207.3Q776.6 204.1 779.4 202.3Q782.2 200.4 785.8 200.4L785.8 200.4Q790.8 200.4 793.8 203.5Q796.8 206.6 796.8 211.7L796.8 211.7L796.8 230.5Q796.8 232.7 795.6 234.0Q794.3 235.2 792.2 235.2L792.2 235.2Q790.2 235.2 788.9 234.0Q787.7 232.7 787.7 230.5L787.7 230.5L787.7 214.0Q787.7 211.1 786.3 209.5Q784.9 208.0 782.2 208.0L782.2 208.0Q779.6 208.0 778.0 209.7Q776.5 211.4 776.5 214.2L776.5 214.2L776.5 230.5Q776.5 232.7 775.3 234.0Q774.1 235.2 772.1 235.2L772.1 235.2Q770.0 235.2 768.9 234.0Q767.7 232.7 767.7 230.5L767.7 230.5L767.7 213.7Q767.7 211.0 766.3 209.5Q764.8 208.0 762.3 208.0L762.3 208.0Q759.7 208.0 758.1 209.7Q756.5 211.5 756.5 214.3L756.5 214.3L756.5 230.5Q756.5 232.7 755.2 234.0Q754.0 235.2 751.9 235.2ZM810.8 195.5Q809.4 196.9 807.3 196.9Q805.3 196.9 803.8 195.5Q802.4 194.1 802.4 192.2L802.4 192.2Q802.4 190.2 803.8 188.8Q805.3 187.5 807.3 187.5Q809.4 187.5 810.8 188.8Q812.2 190.2 812.2 192.2L812.2 192.2Q812.2 194.1 810.8 195.5ZM810.7 233.9Q809.4 235.2 807.3 235.2Q805.2 235.2 804.0 233.9Q802.8 232.7 802.8 230.5L802.8 230.5L802.8 205.1Q802.8 202.9 804.0 201.6Q805.2 200.4 807.3 200.4Q809.4 200.4 810.7 201.6Q811.9 202.9 811.9 205.1L811.9 205.1L811.9 230.5Q811.9 232.7 810.7 233.9ZM820.4 226.0L820.4 226.0L820.4 207.9L818.6 207.9Q817 207.9 816.0 207.0Q815.1 206.1 815.1 204.5Q815.1 202.9 816.0 202.0Q817 201.1 818.6 201.1L818.6 201.1L820.4 201.1L820.4 197.3Q820.4 195.1 821.6 193.8Q822.8 192.6 824.9 192.6Q827.1 192.6 828.3 193.8Q829.5 195.1 829.5 197.3L829.5 197.3L829.5 201.1L832.7 201.1Q834.3 201.1 835.3 202.0Q836.2 202.9 836.2 204.5Q836.2 206.1 835.3 207.0Q834.3 207.9 832.7 207.9L832.7 207.9L829.5 207.9L829.5 224.0Q829.5 225.7 830.2 226.6Q830.8 227.4 832.3 227.5L832.3 227.5L832.9 227.6Q834.6 227.7 835.5 228.5Q836.3 229.3 836.3 230.9L836.3 230.9Q836.3 232.8 834.6 233.9Q832.8 234.9 829.9 234.9L829.9 234.9L829.6 234.9Q820.4 234.9 820.4 226.0ZM848.9 195.5Q847.5 196.9 845.4 196.9Q843.3 196.9 841.9 195.5Q840.5 194.1 840.5 192.2L840.5 192.2Q840.5 190.2 841.9 188.8Q843.3 187.5 845.4 187.5Q847.5 187.5 848.9 188.8Q850.3 190.2 850.3 192.2L850.3 192.2Q850.3 194.1 848.9 195.5ZM848.8 233.9Q847.5 235.2 845.4 235.2Q843.3 235.2 842.1 233.9Q840.8 232.7 840.8 230.5L840.8 230.5L840.8 205.1Q840.8 202.9 842.1 201.6Q843.3 200.4 845.4 200.4Q847.5 200.4 848.8 201.6Q850.0 202.9 850.0 205.1L850.0 205.1L850.0 230.5Q850.0 232.7 848.8 233.9ZM870.1 235.2L870.1 235.2Q867.5 235.2 866.0 234.1Q864.4 233.0 863.5 230.6L863.5 230.6L854.8 207.2Q854.3 205.7 854.3 204.5L854.3 204.5Q854.3 202.6 855.6 201.5Q856.9 200.4 858.8 200.4L858.8 200.4Q862.2 200.4 863.2 204.0L863.2 204.0L870 226.5L870.2 226.5L877.0 203.9Q877.9 200.4 881.3 200.4L881.3 200.4Q883.2 200.4 884.4 201.5Q885.7 202.7 885.7 204.4L885.7 204.4Q885.7 205.6 885.2 207.0L885.2 207.0L876.5 230.6Q875.6 233.0 874.1 234.1Q872.6 235.2 870.1 235.2ZM905.2 235.3L905.2 235.3Q897.4 235.3 893.0 230.7Q888.6 226.1 888.6 218.0L888.6 218.0Q888.6 209.9 893.0 205.1Q897.3 200.3 904.8 200.3L904.8 200.3Q911.9 200.3 916.3 204.7Q920.7 209.1 920.7 215.9L920.7 215.9Q920.7 217.8 919.6 218.9Q918.6 219.9 916.7 219.9L916.7 219.9L897.6 219.9L897.6 220.3Q897.6 224.0 899.6 226.3Q901.7 228.5 905.2 228.5L905.2 228.5Q907.7 228.5 909.5 227.6Q911.3 226.7 913.2 224.5L913.2 224.5Q914.5 223.1 916.2 223.1L916.2 223.1Q917.7 223.1 918.7 224.1Q919.7 225.0 919.7 226.5L919.7 226.5Q919.7 227.6 919.1 228.7L919.1 228.7Q917.4 231.8 913.8 233.5Q910.1 235.3 905.2 235.3ZM897.7 214.3L897.7 214.3L911.9 214.3Q911.8 211.0 909.8 209.1Q907.9 207.1 904.9 207.1Q901.9 207.1 899.9 209.1Q897.9 211.1 897.7 214.3Z M957.8 233.8Q956.5 235.1 954.3 235.1Q952.1 235.1 950.8 233.8Q949.6 232.6 949.6 230.2L949.6 230.2L949.6 197.3L940.3 197.3Q938.3 197.3 937.1 196.2Q936.0 195.2 936.0 193.4Q936.0 191.6 937.1 190.5Q938.3 189.5 940.3 189.5L940.3 189.5L968.3 189.5Q970.3 189.5 971.4 190.5Q972.6 191.6 972.6 193.4Q972.6 195.2 971.4 196.2Q970.3 197.3 968.3 197.3L968.3 197.3L959 197.3L959 230.2Q959 232.6 957.8 233.8ZM986.4 235.1L986.4 235.1Q981.6 235.1 978.4 232.2Q975.2 229.4 975.2 224.9L975.2 224.9Q975.2 220.4 978.6 217.8Q981.9 215.2 988.3 214.8L988.3 214.8L996.7 214.3L996.7 212.1Q996.7 209.8 995.2 208.5Q993.7 207.1 991.1 207.1L991.1 207.1Q989.0 207.1 987.5 207.9Q986.1 208.7 984.6 210.7L984.6 210.7Q983.1 212.4 980.9 212.4L980.9 212.4Q979.3 212.4 978.2 211.4Q977.1 210.4 977.1 208.9L977.1 208.9Q977.1 207.8 977.6 206.8L977.6 206.8Q978.8 203.8 982.5 202.1Q986.3 200.3 991.5 200.3L991.5 200.3Q997.9 200.3 1001.8 203.4Q1005.7 206.5 1005.7 211.5L1005.7 211.5L1005.7 230.6Q1005.7 232.8 1004.4 234.0Q1003.2 235.2 1001.2 235.2L1001.2 235.2Q999.3 235.2 998.1 234.2Q997.0 233.1 996.8 231.1L996.8 231.1L996.8 229.4L996.7 229.4Q995.3 232.1 992.5 233.6Q989.6 235.1 986.4 235.1ZM989.4 228.5L989.4 228.5Q992.4 228.5 994.6 226.7Q996.7 225.0 996.7 222.3L996.7 222.3L996.7 219.8L989.6 220.3Q987.1 220.5 985.7 221.6Q984.3 222.6 984.3 224.4L984.3 224.4Q984.3 226.3 985.7 227.4Q987.1 228.5 989.4 228.5ZM1025.2 235.3L1025.2 235.3Q1019.6 235.3 1015.8 233.4Q1012 231.6 1010.8 228.6L1010.8 228.6Q1010.4 227.6 1010.4 226.9L1010.4 226.9Q1010.4 225.3 1011.5 224.4Q1012.5 223.4 1014.1 223.4L1014.1 223.4Q1016.3 223.4 1018.1 225.5L1018.1 225.5Q1019.5 227.2 1021.2 228.1Q1022.8 228.9 1025.4 228.9L1025.4 228.9Q1027.9 228.9 1029.4 227.9Q1030.9 226.9 1030.9 225.3L1030.9 225.3Q1030.9 223.9 1029.9 223.1Q1028.9 222.3 1026.4 221.8L1026.4 221.8L1020.8 220.6Q1015.9 219.5 1013.4 217.1Q1010.9 214.6 1010.9 210.9L1010.9 210.9Q1010.9 206.1 1014.8 203.2Q1018.7 200.3 1025.2 200.3L1025.2 200.3Q1030.2 200.3 1033.8 202.3Q1037.4 204.3 1038.3 207.3L1038.3 207.3Q1038.5 208.1 1038.5 208.6L1038.5 208.6Q1038.5 210.1 1037.6 210.9Q1036.7 211.7 1035 211.7L1035 211.7Q1032.9 211.7 1031.7 210.3L1031.7 210.3Q1030.3 208.6 1028.8 207.7Q1027.3 206.7 1025 206.7L1025 206.7Q1022.7 206.7 1021.2 207.7Q1019.8 208.7 1019.8 210.4L1019.8 210.4Q1019.8 211.7 1020.8 212.6Q1021.9 213.5 1024.4 214.0L1024.4 214.0L1029.9 215.2Q1035.3 216.3 1037.6 218.4Q1040 220.6 1040 224.3L1040 224.3Q1040 229.3 1035.9 232.3Q1031.8 235.3 1025.2 235.3ZM1052.6 234.0Q1051.3 235.2 1049.3 235.2Q1047.2 235.2 1046.0 234.0Q1044.7 232.7 1044.7 230.5L1044.7 230.5L1044.7 193.6Q1044.7 191.3 1046.0 190.0Q1047.2 188.8 1049.3 188.8Q1051.3 188.8 1052.6 190.0Q1053.8 191.3 1053.8 193.6L1053.8 193.6L1053.8 214.3L1054.0 214.3L1066.1 202.2Q1067.8 200.4 1069.7 200.4L1069.7 200.4Q1071.5 200.4 1072.6 201.5Q1073.8 202.6 1073.8 204.3L1073.8 204.3Q1073.8 205.4 1073.4 206.1Q1073.0 206.9 1072.1 207.8L1072.1 207.8L1063.5 215.8L1072.9 227.7Q1074.2 229.5 1074.2 231.1L1074.2 231.1Q1074.2 232.9 1073.0 234.1Q1071.8 235.2 1069.8 235.2L1069.8 235.2Q1068.3 235.2 1067.4 234.6Q1066.4 234.0 1065.3 232.4L1065.3 232.4L1056.8 221.0L1053.8 223.7L1053.8 230.5Q1053.8 232.7 1052.6 234.0ZM1092.6 235.3L1092.6 235.3Q1087.0 235.3 1083.2 233.4Q1079.4 231.6 1078.2 228.6L1078.2 228.6Q1077.8 227.6 1077.8 226.9L1077.8 226.9Q1077.8 225.3 1078.9 224.4Q1079.9 223.4 1081.5 223.4L1081.5 223.4Q1083.7 223.4 1085.5 225.5L1085.5 225.5Q1086.9 227.2 1088.6 228.1Q1090.3 228.9 1092.8 228.9L1092.8 228.9Q1095.3 228.9 1096.8 227.9Q1098.3 226.9 1098.3 225.3L1098.3 225.3Q1098.3 223.9 1097.3 223.1Q1096.3 222.3 1093.8 221.8L1093.8 221.8L1088.2 220.6Q1083.3 219.5 1080.8 217.1Q1078.3 214.6 1078.3 210.9L1078.3 210.9Q1078.3 206.1 1082.2 203.2Q1086.1 200.3 1092.6 200.3L1092.6 200.3Q1097.6 200.3 1101.2 202.3Q1104.8 204.3 1105.7 207.3L1105.7 207.3Q1105.9 208.1 1105.9 208.6L1105.9 208.6Q1105.9 210.1 1105.0 210.9Q1104.1 211.7 1102.4 211.7L1102.4 211.7Q1100.3 211.7 1099.1 210.3L1099.1 210.3Q1097.7 208.6 1096.2 207.7Q1094.7 206.7 1092.4 206.7L1092.4 206.7Q1090.1 206.7 1088.6 207.7Q1087.2 208.7 1087.2 210.4L1087.2 210.4Q1087.2 211.7 1088.3 212.6Q1089.3 213.5 1091.8 214.0L1091.8 214.0L1097.3 215.2Q1102.7 216.3 1105.0 218.4Q1107.4 220.6 1107.4 224.3L1107.4 224.3Q1107.4 229.3 1103.3 232.3Q1099.3 235.3 1092.6 235.3Z M77.4 299.6L77.4 299.6L77.4 281.5L75.7 281.5Q74.0 281.5 73.1 280.6Q72.1 279.7 72.1 278.1Q72.1 276.5 73.1 275.6Q74.0 274.6 75.7 274.6L75.7 274.6L77.4 274.6L77.4 270.9Q77.4 268.7 78.6 267.4Q79.8 266.2 82.0 266.2Q84.1 266.2 85.3 267.4Q86.5 268.7 86.5 270.9L86.5 270.9L86.5 274.6L89.8 274.6Q91.4 274.6 92.3 275.6Q93.3 276.5 93.3 278.1Q93.3 279.6 92.3 280.6Q91.4 281.5 89.8 281.5L89.8 281.5L86.5 281.5L86.5 297.6Q86.5 299.3 87.2 300.1Q87.8 301.0 89.3 301.1L89.3 301.1L89.9 301.1Q91.7 301.3 92.5 302.1Q93.4 302.9 93.4 304.5L93.4 304.5Q93.4 306.4 91.6 307.5Q89.9 308.5 86.9 308.5L86.9 308.5L86.6 308.5Q77.4 308.5 77.4 299.6ZM125.2 304.2Q120.8 308.9 113.1 308.9Q105.4 308.9 101.0 304.2Q96.5 299.6 96.5 291.4L96.5 291.4Q96.5 283.3 101.0 278.6Q105.5 273.9 113.1 273.9L113.1 273.9Q120.7 273.9 125.2 278.6Q129.7 283.3 129.7 291.4L129.7 291.4Q129.7 299.6 125.2 304.2ZM113.1 301.9L113.1 301.9Q116.5 301.9 118.4 299.1Q120.4 296.4 120.4 291.4L120.4 291.4Q120.4 286.5 118.4 283.7Q116.5 280.9 113.1 280.9Q109.7 280.9 107.7 283.7Q105.8 286.5 105.8 291.4L105.8 291.4Q105.8 296.4 107.7 299.1Q109.7 301.9 113.1 301.9Z M174.0 308.1L152.5 308.1Q150.3 308.1 149.1 306.9Q147.8 305.6 147.8 303.2L147.8 303.2L147.8 268.0Q147.8 265.6 149.1 264.4Q150.3 263.1 152.5 263.1L152.5 263.1L174.0 263.1Q175.9 263.1 177.1 264.1Q178.3 265.1 178.3 267.0Q178.3 268.8 177.1 269.8Q175.9 270.9 174.0 270.9L174.0 270.9L157.3 270.9L157.3 281.7L173.2 281.7Q174.9 281.7 176.0 282.7Q177.1 283.7 177.1 285.3L177.1 285.3Q177.1 287.0 176.0 288.0Q174.9 289.0 173.2 289.0L173.2 289.0L157.3 289.0L157.3 300.3L174.0 300.3Q175.9 300.3 177.1 301.4Q178.3 302.4 178.3 304.2Q178.3 306.1 177.1 307.1Q175.9 308.1 174.0 308.1L174.0 308.1ZM187 308.8L187 308.8Q185.2 308.8 184.0 307.8Q182.9 306.7 182.9 305.1L182.9 305.1Q182.9 303.6 184.1 302.0L184.1 302.0L191.9 291.5L184.1 280.8Q183.2 279.5 183.2 278.0L183.2 278.0Q183.2 276.2 184.4 275.1Q185.7 274.0 187.5 274.0L187.5 274.0Q188.9 274.0 189.8 274.5Q190.7 275.1 191.6 276.6L191.6 276.6L197.8 286.0L198 286.0L204.1 276.6Q205.1 275.1 205.9 274.6Q206.8 274.0 208 274.0L208 274.0Q209.9 274.0 211.1 275.0Q212.3 276.1 212.3 277.8L212.3 277.8Q212.3 279.4 211.1 281.0L211.1 281.0L203.4 291.2L211.2 302.0Q212.2 303.3 212.2 304.8L212.2 304.8Q212.2 306.6 211.0 307.7Q209.7 308.8 207.8 308.8L207.8 308.8Q206.6 308.8 205.8 308.3Q205.0 307.7 204.2 306.5L204.2 306.5L197.5 296.5L197.3 296.5L190.8 306.3Q189.8 307.8 189.0 308.3Q188.3 308.8 187 308.8ZM232.9 308.9L232.9 308.9Q225.1 308.9 220.7 304.3Q216.3 299.7 216.3 291.6L216.3 291.6Q216.3 283.5 220.7 278.7Q225.0 273.9 232.5 273.9L232.5 273.9Q239.6 273.9 244.0 278.3Q248.3 282.6 248.3 289.5L248.3 289.5Q248.3 291.4 247.3 292.5Q246.3 293.5 244.4 293.5L244.4 293.5L225.3 293.5L225.3 293.9Q225.3 297.6 227.3 299.9Q229.4 302.1 232.9 302.1L232.9 302.1Q235.4 302.1 237.2 301.2Q239.0 300.3 240.9 298.1L240.9 298.1Q242.2 296.7 243.8 296.7L243.8 296.7Q245.4 296.7 246.4 297.6Q247.4 298.6 247.4 300.1L247.4 300.1Q247.4 301.1 246.8 302.3L246.8 302.3Q245.1 305.4 241.4 307.1Q237.8 308.9 232.9 308.9ZM225.3 287.9L225.3 287.9L239.6 287.9Q239.4 284.6 237.5 282.6Q235.6 280.7 232.6 280.7Q229.6 280.7 227.6 282.7Q225.6 284.7 225.3 287.9ZM268.3 308.9L268.3 308.9Q260.7 308.9 256.3 304.2Q251.8 299.5 251.8 291.4L251.8 291.4Q251.8 283.4 256.3 278.6Q260.7 273.9 268.3 273.9L268.3 273.9Q273.3 273.9 277.1 276.1Q281 278.3 282.4 281.9L282.4 281.9Q282.9 283.2 282.9 284.2L282.9 284.2Q282.9 285.8 281.8 286.8Q280.7 287.7 279.0 287.7L279.0 287.7Q277.6 287.7 276.7 287.2Q275.8 286.6 275.1 285.4L275.1 285.4Q272.7 281.1 268.5 281.1L268.5 281.1Q265.1 281.1 263.1 283.8Q261.1 286.5 261.1 291.4L261.1 291.4Q261.1 296.3 263.0 299.0Q265.0 301.7 268.5 301.7L268.5 301.7Q272.7 301.7 275.0 297.8L275.0 297.8Q276.0 296.3 276.9 295.7Q277.8 295.1 279.2 295.1L279.2 295.1Q280.8 295.1 281.9 296.1Q283.0 297.1 283.0 298.7L283.0 298.7Q283.0 299.8 282.4 301.1L282.4 301.1Q280.9 304.6 277.0 306.7Q273.1 308.9 268.3 308.9ZM299.8 308.8L299.8 308.8Q294.3 308.8 291.0 305.4Q287.8 302.1 287.8 296.2L287.8 296.2L287.8 278.7Q287.8 276.5 289 275.2Q290.3 274.0 292.3 274.0Q294.4 274.0 295.6 275.2Q296.9 276.5 296.9 278.7L296.9 278.7L296.9 294.3Q296.9 297.7 298.5 299.4Q300.1 301.2 303.1 301.2Q306.2 301.2 307.9 299.2Q309.7 297.2 309.7 293.8L309.7 293.8L309.7 278.7Q309.7 276.5 311.0 275.2Q312.2 274.0 314.3 274.0Q316.3 274.0 317.6 275.2Q318.8 276.5 318.8 278.7L318.8 278.7L318.8 304.2Q318.8 306.4 317.7 307.6Q316.5 308.8 314.4 308.8Q312.4 308.8 311.2 307.6Q310.0 306.4 310.0 304.2L310.0 304.2L310.0 302.1L309.8 302.1Q307.2 308.8 299.8 308.8ZM327.2 299.6L327.2 299.6L327.2 281.5L325.5 281.5Q323.8 281.5 322.9 280.6Q321.9 279.7 321.9 278.1Q321.9 276.5 322.9 275.6Q323.8 274.6 325.5 274.6L325.5 274.6L327.2 274.6L327.2 270.9Q327.2 268.7 328.4 267.4Q329.7 266.2 331.8 266.2Q333.9 266.2 335.1 267.4Q336.3 268.7 336.3 270.9L336.3 270.9L336.3 274.6L339.6 274.6Q341.2 274.6 342.1 275.6Q343.1 276.5 343.1 278.1Q343.1 279.6 342.1 280.6Q341.2 281.5 339.6 281.5L339.6 281.5L336.3 281.5L336.3 297.6Q336.3 299.3 337 300.1Q337.7 301.0 339.1 301.1L339.1 301.1L339.7 301.1Q341.5 301.3 342.3 302.1Q343.2 302.9 343.2 304.5L343.2 304.5Q343.2 306.4 341.4 307.5Q339.7 308.5 336.7 308.5L336.7 308.5L336.4 308.5Q327.2 308.5 327.2 299.6ZM357.4 308.7L357.4 308.7Q352.6 308.7 349.4 305.8Q346.2 303.0 346.2 298.5L346.2 298.5Q346.2 294.0 349.6 291.4Q353.0 288.8 359.3 288.4L359.3 288.4L367.7 287.9L367.7 285.7Q367.7 283.4 366.2 282.1Q364.7 280.7 362.1 280.7L362.1 280.7Q360 280.7 358.6 281.5Q357.1 282.3 355.6 284.3L355.6 284.3Q354.1 286.0 352.0 286.0L352.0 286.0Q350.3 286.0 349.2 285.0Q348.2 284.0 348.2 282.5L348.2 282.5Q348.2 281.4 348.6 280.4L348.6 280.4Q349.8 277.4 353.5 275.7Q357.3 273.9 362.5 273.9L362.5 273.9Q368.9 273.9 372.8 277.0Q376.7 280.1 376.7 285.1L376.7 285.1L376.7 304.2Q376.7 306.4 375.5 307.6Q374.3 308.8 372.3 308.8L372.3 308.8Q370.3 308.8 369.2 307.8Q368 306.7 367.9 304.7L367.9 304.7L367.9 303.0L367.7 303.0Q366.3 305.6 363.5 307.2Q360.7 308.7 357.4 308.7ZM360.4 302.1L360.4 302.1Q363.5 302.1 365.6 300.3Q367.7 298.6 367.7 295.9L367.7 295.9L367.7 293.4L360.7 293.9Q358.1 294.1 356.7 295.1Q355.3 296.2 355.3 298.0L355.3 298.0Q355.3 299.9 356.7 301.0Q358.1 302.1 360.4 302.1ZM387.3 308.8L387.3 308.8Q385.2 308.8 384 307.6Q382.8 306.4 382.8 304.2L382.8 304.2L382.8 267.1Q382.8 264.9 384.0 263.6Q385.3 262.4 387.3 262.4Q389.4 262.4 390.7 263.6Q391.9 264.9 391.9 267.1L391.9 267.1L391.9 280.5L392.1 280.5Q393.5 277.5 396.2 275.8Q398.9 274.1 402.4 274.1L402.4 274.1Q408.8 274.1 412.4 278.7Q416.1 283.3 416.1 291.4Q416.1 299.5 412.4 304.1Q408.8 308.7 402.5 308.7L402.5 308.7Q398.8 308.7 396.1 307.0Q393.4 305.4 392.0 302.4L392.0 302.4L391.8 302.4L391.8 304.2Q391.8 306.4 390.5 307.6Q389.3 308.8 387.3 308.8ZM399.3 301.3L399.3 301.3Q402.8 301.3 404.7 298.7Q406.7 296.0 406.7 291.4L406.7 291.4Q406.7 286.8 404.7 284.1Q402.8 281.4 399.3 281.4L399.3 281.4Q396 281.4 393.9 284.2Q391.9 286.9 391.9 291.4L391.9 291.4Q391.9 295.9 393.9 298.6Q396 301.3 399.3 301.3ZM428.9 307.6Q427.6 308.8 425.6 308.8Q423.5 308.8 422.3 307.6Q421 306.3 421 304.1L421 304.1L421 267.1Q421 264.9 422.3 263.6Q423.5 262.4 425.6 262.4Q427.6 262.4 428.9 263.6Q430.1 264.9 430.1 267.1L430.1 267.1L430.1 304.1Q430.1 306.3 428.9 307.6ZM451.7 308.9L451.7 308.9Q443.8 308.9 439.5 304.3Q435.1 299.7 435.1 291.6L435.1 291.6Q435.1 283.5 439.4 278.7Q443.8 273.9 451.3 273.9L451.3 273.9Q458.3 273.9 462.7 278.3Q467.1 282.6 467.1 289.5L467.1 289.5Q467.1 291.4 466.1 292.5Q465.1 293.5 463.2 293.5L463.2 293.5L444.0 293.5L444.0 293.9Q444.0 297.6 446.1 299.9Q448.2 302.1 451.7 302.1L451.7 302.1Q454.2 302.1 456.0 301.2Q457.8 300.3 459.7 298.1L459.7 298.1Q461.0 296.7 462.6 296.7L462.6 296.7Q464.2 296.7 465.2 297.6Q466.2 298.6 466.2 300.1L466.2 300.1Q466.2 301.1 465.6 302.3L465.6 302.3Q463.9 305.4 460.2 307.1Q456.5 308.9 451.7 308.9ZM444.1 287.9L444.1 287.9L458.3 287.9Q458.2 284.6 456.3 282.6Q454.3 280.7 451.3 280.7Q448.3 280.7 446.4 282.7Q444.4 284.7 444.1 287.9Z M488.3 308.7L488.3 308.7Q486.1 308.7 484.8 307.5Q483.5 306.3 483.5 304.3L483.5 304.3Q483.5 303.1 484.1 301.3L484.1 301.3L496.4 267.8Q497.4 265.0 499.1 263.7Q500.8 262.4 503.5 262.4L503.5 262.4Q506.3 262.4 508.0 263.7Q509.7 265.0 510.7 267.7L510.7 267.7L523.1 301.3Q523.7 303.0 523.7 304.3L523.7 304.3Q523.7 306.2 522.4 307.5Q521.0 308.7 519.0 308.7L519.0 308.7Q517.0 308.7 515.8 307.8Q514.7 306.8 514.1 304.6L514.1 304.6L511.7 297.5L495.4 297.5L493.0 304.5Q492.4 306.7 491.3 307.7Q490.1 308.7 488.3 308.7ZM503.3 271.7L497.5 290.1L509.5 290.1L503.5 271.7L503.3 271.7ZM543.9 308.9L543.9 308.9Q536.3 308.9 531.9 304.2Q527.4 299.5 527.4 291.4L527.4 291.4Q527.4 283.4 531.8 278.6Q536.3 273.9 543.8 273.9L543.8 273.9Q548.8 273.9 552.7 276.1Q556.6 278.3 558.0 281.9L558.0 281.9Q558.5 283.2 558.5 284.2L558.5 284.2Q558.5 285.8 557.4 286.8Q556.3 287.7 554.6 287.7L554.6 287.7Q553.2 287.7 552.3 287.2Q551.4 286.6 550.7 285.4L550.7 285.4Q548.3 281.1 544.1 281.1L544.1 281.1Q540.7 281.1 538.7 283.8Q536.7 286.5 536.7 291.4L536.7 291.4Q536.7 296.3 538.6 299.0Q540.6 301.7 544.1 301.7L544.1 301.7Q548.3 301.7 550.6 297.8L550.6 297.8Q551.6 296.3 552.5 295.7Q553.4 295.1 554.8 295.1L554.8 295.1Q556.4 295.1 557.5 296.1Q558.6 297.1 558.6 298.7L558.6 298.7Q558.6 299.8 558.0 301.1L558.0 301.1Q556.5 304.6 552.6 306.7Q548.7 308.9 543.9 308.9ZM565.9 299.6L565.9 299.6L565.9 281.5L564.2 281.5Q562.6 281.5 561.6 280.6Q560.7 279.7 560.7 278.1Q560.7 276.5 561.6 275.6Q562.6 274.6 564.2 274.6L564.2 274.6L565.9 274.6L565.9 270.9Q565.9 268.7 567.2 267.4Q568.4 266.2 570.5 266.2Q572.6 266.2 573.8 267.4Q575.1 268.7 575.1 270.9L575.1 270.9L575.1 274.6L578.3 274.6Q579.9 274.6 580.8 275.6Q581.8 276.5 581.8 278.1Q581.8 279.6 580.8 280.6Q579.9 281.5 578.3 281.5L578.3 281.5L575.1 281.5L575.1 297.6Q575.1 299.3 575.7 300.1Q576.4 301.0 577.8 301.1L577.8 301.1L578.4 301.1Q580.2 301.3 581.0 302.1Q581.9 302.9 581.9 304.5L581.9 304.5Q581.9 306.4 580.2 307.5Q578.4 308.5 575.4 308.5L575.4 308.5L575.1 308.5Q565.9 308.5 565.9 299.6ZM594.4 269.1Q593.0 270.5 591.0 270.5Q588.9 270.5 587.5 269.1Q586.1 267.7 586.1 265.8L586.1 265.8Q586.1 263.8 587.5 262.4Q588.9 261.1 591.0 261.1Q593.0 261.1 594.4 262.4Q595.8 263.8 595.8 265.8L595.8 265.8Q595.8 267.7 594.4 269.1ZM594.3 307.5Q593.1 308.8 591.0 308.8Q588.8 308.8 587.6 307.5Q586.4 306.3 586.4 304.1L586.4 304.1L586.4 278.7Q586.4 276.5 587.6 275.2Q588.8 274.0 591.0 274.0Q593.1 274.0 594.3 275.2Q595.5 276.5 595.5 278.7L595.5 278.7L595.5 304.1Q595.5 306.3 594.3 307.5ZM629.1 304.2Q624.6 308.9 617.0 308.9Q609.3 308.9 604.8 304.2Q600.4 299.6 600.4 291.4L600.4 291.4Q600.4 283.3 604.9 278.6Q609.4 273.9 617.0 273.9L617.0 273.9Q624.6 273.9 629.1 278.6Q633.6 283.3 633.6 291.4L633.6 291.4Q633.6 299.6 629.1 304.2ZM617.0 301.9L617.0 301.9Q620.3 301.9 622.3 299.1Q624.3 296.4 624.3 291.4L624.3 291.4Q624.3 286.5 622.3 283.7Q620.3 280.9 617.0 280.9Q613.6 280.9 611.6 283.7Q609.6 286.5 609.6 291.4L609.6 291.4Q609.6 296.4 611.6 299.1Q613.6 301.9 617.0 301.9ZM646.1 307.6Q644.9 308.8 642.8 308.8Q640.8 308.8 639.5 307.6Q638.3 306.3 638.3 304.1L638.3 304.1L638.3 278.6Q638.3 276.4 639.4 275.2Q640.6 274.0 642.7 274.0Q644.7 274.0 646.0 275.2Q647.2 276.5 647.2 278.6L647.2 278.6L647.2 280.5L647.4 280.5Q650.2 274.0 657.7 274.0L657.7 274.0Q663.3 274.0 666.3 277.3Q669.3 280.6 669.3 286.6L669.3 286.6L669.3 304.1Q669.3 306.3 668.1 307.6Q666.8 308.8 664.8 308.8Q662.7 308.8 661.5 307.6Q660.2 306.3 660.2 304.1L660.2 304.1L660.2 288.5Q660.2 285.1 658.7 283.4Q657.1 281.6 654.1 281.6Q651.0 281.6 649.2 283.6Q647.4 285.6 647.4 288.9L647.4 288.9L647.4 304.1Q647.4 306.3 646.1 307.6ZM688.8 308.9L688.8 308.9Q683.2 308.9 679.4 307.0Q675.6 305.2 674.4 302.2L674.4 302.2Q674.0 301.2 674.0 300.5L674.0 300.5Q674.0 298.9 675.1 298.0Q676.1 297.0 677.7 297.0L677.7 297.0Q679.8 297.0 681.7 299.1L681.7 299.1Q683.1 300.8 684.8 301.6Q686.4 302.5 689 302.5L689 302.5Q691.5 302.5 693.0 301.5Q694.5 300.5 694.5 298.9L694.5 298.9Q694.5 297.5 693.5 296.7Q692.5 295.9 690.0 295.4L690.0 295.4L684.4 294.2Q679.5 293.1 677.0 290.7Q674.5 288.2 674.5 284.5L674.5 284.5Q674.5 279.6 678.4 276.8Q682.3 273.9 688.8 273.9L688.8 273.9Q693.8 273.9 697.4 275.9Q701.0 277.9 701.9 280.9L701.9 280.9Q702.1 281.7 702.1 282.2L702.1 282.2Q702.1 283.6 701.2 284.5Q700.3 285.3 698.6 285.3L698.6 285.3Q696.5 285.3 695.3 283.9L695.3 283.9Q693.9 282.2 692.4 281.3Q690.9 280.3 688.6 280.3L688.6 280.3Q686.3 280.3 684.8 281.3Q683.3 282.3 683.3 284.0L683.3 284.0Q683.3 285.3 684.4 286.2Q685.5 287.1 688 287.6L688 287.6L693.5 288.8Q698.9 289.9 701.2 292.0Q703.6 294.1 703.6 297.9L703.6 297.9Q703.6 302.9 699.5 305.9Q695.4 308.9 688.8 308.9Z M732.7 308.8L732.7 308.8Q727.2 308.8 723.9 305.4Q720.6 302.1 720.6 296.2L720.6 296.2L720.6 278.7Q720.6 276.5 721.8 275.2Q723.1 274.0 725.2 274.0Q727.2 274.0 728.5 275.2Q729.7 276.5 729.7 278.7L729.7 278.7L729.7 294.3Q729.7 297.7 731.3 299.4Q732.9 301.2 736.0 301.2Q739 301.2 740.8 299.2Q742.6 297.2 742.6 293.8L742.6 293.8L742.6 278.7Q742.6 276.5 743.8 275.2Q745.1 274.0 747.1 274.0Q749.2 274.0 750.4 275.2Q751.7 276.5 751.7 278.7L751.7 278.7L751.7 304.2Q751.7 306.4 750.5 307.6Q749.3 308.8 747.3 308.8Q745.3 308.8 744.1 307.6Q742.9 306.4 742.9 304.2L742.9 304.2L742.9 302.1L742.7 302.1Q740.1 308.8 732.7 308.8ZM771.3 308.9L771.3 308.9Q765.7 308.9 761.9 307.0Q758.1 305.2 756.9 302.2L756.9 302.2Q756.5 301.2 756.5 300.5L756.5 300.5Q756.5 298.9 757.6 298.0Q758.6 297.0 760.2 297.0L760.2 297.0Q762.3 297.0 764.2 299.1L764.2 299.1Q765.6 300.8 767.3 301.6Q768.9 302.5 771.5 302.5L771.5 302.5Q774 302.5 775.5 301.5Q777.0 300.5 777.0 298.9L777.0 298.9Q777.0 297.5 776.0 296.7Q775.0 295.9 772.5 295.4L772.5 295.4L766.9 294.2Q762 293.1 759.5 290.7Q757.0 288.2 757.0 284.5L757.0 284.5Q757.0 279.6 760.9 276.8Q764.8 273.9 771.3 273.9L771.3 273.9Q776.3 273.9 779.9 275.9Q783.5 277.9 784.4 280.9L784.4 280.9Q784.6 281.7 784.6 282.2L784.6 282.2Q784.6 283.6 783.7 284.5Q782.8 285.3 781.1 285.3L781.1 285.3Q779.0 285.3 777.8 283.9L777.8 283.9Q776.4 282.2 774.9 281.3Q773.4 280.3 771.1 280.3L771.1 280.3Q768.8 280.3 767.3 281.3Q765.8 282.3 765.8 284.0L765.8 284.0Q765.8 285.3 766.9 286.2Q768.0 287.1 770.5 287.6L770.5 287.6L776.0 288.8Q781.4 289.9 783.7 292.0Q786.1 294.1 786.1 297.9L786.1 297.9Q786.1 302.9 782.0 305.9Q777.9 308.9 771.3 308.9ZM798.8 269.1Q797.4 270.5 795.3 270.5Q793.3 270.5 791.8 269.1Q790.4 267.7 790.4 265.8L790.4 265.8Q790.4 263.8 791.8 262.4Q793.3 261.1 795.3 261.1Q797.4 261.1 798.8 262.4Q800.2 263.8 800.2 265.8L800.2 265.8Q800.2 267.7 798.8 269.1ZM798.7 307.5Q797.4 308.8 795.3 308.8Q793.2 308.8 792.0 307.5Q790.8 306.3 790.8 304.1L790.8 304.1L790.8 278.7Q790.8 276.5 792.0 275.2Q793.2 274.0 795.3 274.0Q797.4 274.0 798.7 275.2Q799.9 276.5 799.9 278.7L799.9 278.7L799.9 304.1Q799.9 306.3 798.7 307.5ZM813.8 307.6Q812.6 308.8 810.5 308.8Q808.4 308.8 807.2 307.6Q805.9 306.3 805.9 304.1L805.9 304.1L805.9 278.6Q805.9 276.4 807.1 275.2Q808.3 274.0 810.3 274.0Q812.4 274.0 813.7 275.2Q814.9 276.5 814.9 278.6L814.9 278.6L814.9 280.5L815.1 280.5Q817.8 274.0 825.4 274.0L825.4 274.0Q831.0 274.0 834 277.3Q837.0 280.6 837.0 286.6L837.0 286.6L837.0 304.1Q837.0 306.3 835.8 307.6Q834.5 308.8 832.5 308.8Q830.4 308.8 829.2 307.6Q827.9 306.3 827.9 304.1L827.9 304.1L827.9 288.5Q827.9 285.1 826.3 283.4Q824.8 281.6 821.8 281.6Q818.7 281.6 816.9 283.6Q815.1 285.6 815.1 288.9L815.1 288.9L815.1 304.1Q815.1 306.3 813.8 307.6ZM857.8 320.7L857.8 320.7Q852.8 320.7 849.1 319.0Q845.4 317.3 843.7 314.6L843.7 314.6Q843 313.4 843 312.1L843 312.1Q843 310.6 844.0 309.6Q845.0 308.7 846.7 308.7L846.7 308.7Q848.4 308.7 849.9 310.0L849.9 310.0Q853.7 313.6 857.8 313.7L857.8 313.7Q861.5 313.7 863.6 311.8Q865.7 310.0 865.7 306.8L865.7 306.8L865.7 301.4L865.5 301.4Q864.3 304.1 861.5 305.8Q858.8 307.4 855.2 307.4L855.2 307.4Q848.9 307.4 845.3 303.0Q841.6 298.5 841.6 290.8L841.6 290.8Q841.6 283.0 845.2 278.5Q848.9 274.1 855.3 274.1L855.3 274.1Q858.9 274.1 861.5 275.8Q864.2 277.5 865.6 280.4L865.6 280.4L865.8 280.4L865.8 278.6Q865.8 276.3 867.0 275.1Q868.3 274.0 870.3 274.0L870.3 274.0Q872.4 274.0 873.6 275.1Q874.9 276.3 874.9 278.6L874.9 278.6L874.9 306.8Q874.9 313.4 870.4 317.1Q865.8 320.8 857.8 320.7ZM858.3 300.6L858.3 300.6Q861.7 300.6 863.8 298.1Q865.8 295.5 865.8 291.0Q865.8 286.4 863.8 283.7Q861.7 281.1 858.3 281.1L858.3 281.1Q854.9 281.1 852.9 283.7Q850.9 286.4 850.9 290.9L850.9 290.9Q850.9 295.5 852.9 298.1Q854.9 300.6 858.3 300.6Z M919.7 308.1L898.9 308.1Q896.7 308.1 895.5 306.9Q894.2 305.6 894.2 303.2L894.2 303.2L894.2 267.4Q894.2 265.0 895.5 263.7Q896.7 262.4 898.9 262.4Q901.2 262.4 902.4 263.7Q903.7 265.0 903.7 267.4L903.7 267.4L903.7 300.3L919.7 300.3Q921.6 300.3 922.8 301.4Q923.9 302.4 923.9 304.2Q923.9 306.1 922.8 307.1Q921.6 308.1 919.7 308.1L919.7 308.1ZM938.1 308.7L938.1 308.7Q933.3 308.7 930.1 305.8Q926.9 303.0 926.9 298.5L926.9 298.5Q926.9 294.0 930.3 291.4Q933.6 288.8 939.9 288.4L939.9 288.4L948.4 287.9L948.4 285.7Q948.4 283.4 946.9 282.1Q945.3 280.7 942.8 280.7L942.8 280.7Q940.7 280.7 939.2 281.5Q937.8 282.3 936.3 284.3L936.3 284.3Q934.8 286.0 932.6 286.0L932.6 286.0Q931.0 286.0 929.9 285.0Q928.8 284.0 928.8 282.5L928.8 282.5Q928.8 281.4 929.3 280.4L929.3 280.4Q930.4 277.4 934.2 275.7Q937.9 273.9 943.2 273.9L943.2 273.9Q949.6 273.9 953.5 277.0Q957.3 280.1 957.3 285.1L957.3 285.1L957.3 304.2Q957.3 306.4 956.1 307.6Q954.9 308.8 952.9 308.8L952.9 308.8Q951 308.8 949.8 307.8Q948.7 306.7 948.5 304.7L948.5 304.7L948.5 303.0L948.3 303.0Q947.0 305.6 944.1 307.2Q941.3 308.7 938.1 308.7ZM941.1 302.1L941.1 302.1Q944.1 302.1 946.3 300.3Q948.4 298.6 948.4 295.9L948.4 295.9L948.4 293.4L941.3 293.9Q938.8 294.1 937.4 295.1Q936.0 296.2 936.0 298.0L936.0 298.0Q936.0 299.9 937.4 301.0Q938.8 302.1 941.1 302.1ZM967.8 308.8L967.8 308.8Q965.7 308.8 964.5 307.6Q963.2 306.3 963.2 304.1L963.2 304.1L963.2 278.6Q963.2 276.4 964.4 275.2Q965.6 274.0 967.6 274.0L967.6 274.0Q969.6 274.0 970.8 275.2Q971.9 276.4 971.9 278.6L971.9 278.6L971.9 280.7L972.1 280.7Q972.8 277.6 974.7 275.9Q976.6 274.1 979.1 274.1L979.1 274.1Q980.9 274.1 981.9 275.0L981.9 275.0Q983.3 276.0 983.3 278.3L983.3 278.3Q983.3 280.5 981.9 281.6L981.9 281.6Q980.6 282.8 978.0 282.8L978.0 282.8Q975.0 282.8 973.7 284.4Q972.3 286.1 972.3 289.2L972.3 289.2L972.3 304.1Q972.3 306.3 971.1 307.6Q969.9 308.8 967.8 308.8ZM1001.5 320.7L1001.5 320.7Q996.5 320.7 992.8 319.0Q989.1 317.3 987.4 314.6L987.4 314.6Q986.7 313.4 986.7 312.1L986.7 312.1Q986.7 310.6 987.7 309.6Q988.7 308.7 990.4 308.7L990.4 308.7Q992.1 308.7 993.6 310.0L993.6 310.0Q997.4 313.6 1001.4 313.7L1001.4 313.7Q1005.2 313.7 1007.3 311.8Q1009.4 310.0 1009.4 306.8L1009.4 306.8L1009.4 301.4L1009.2 301.4Q1008 304.1 1005.2 305.8Q1002.5 307.4 998.9 307.4L998.9 307.4Q992.6 307.4 989.0 303.0Q985.3 298.5 985.3 290.8L985.3 290.8Q985.3 283.0 988.9 278.5Q992.6 274.1 999.0 274.1L999.0 274.1Q1002.6 274.1 1005.2 275.8Q1007.9 277.5 1009.3 280.4L1009.3 280.4L1009.4 280.4L1009.4 278.6Q1009.4 276.3 1010.7 275.1Q1012.0 274.0 1014.0 274.0L1014.0 274.0Q1016.1 274.0 1017.3 275.1Q1018.6 276.3 1018.6 278.6L1018.6 278.6L1018.6 306.8Q1018.6 313.4 1014.0 317.1Q1009.5 320.8 1001.5 320.7ZM1002.0 300.6L1002.0 300.6Q1005.4 300.6 1007.4 298.1Q1009.5 295.5 1009.5 291.0Q1009.5 286.4 1007.4 283.7Q1005.4 281.1 1002.0 281.1L1002.0 281.1Q998.6 281.1 996.6 283.7Q994.6 286.4 994.6 290.9L994.6 290.9Q994.6 295.5 996.6 298.1Q998.6 300.6 1002.0 300.6ZM1039.9 308.9L1039.9 308.9Q1032.0 308.9 1027.6 304.3Q1023.3 299.7 1023.3 291.6L1023.3 291.6Q1023.3 283.5 1027.6 278.7Q1032 273.9 1039.4 273.9L1039.4 273.9Q1046.5 273.9 1050.9 278.3Q1055.3 282.6 1055.3 289.5L1055.3 289.5Q1055.3 291.4 1054.3 292.5Q1053.3 293.5 1051.3 293.5L1051.3 293.5L1032.2 293.5L1032.2 293.9Q1032.2 297.6 1034.3 299.9Q1036.4 302.1 1039.8 302.1L1039.8 302.1Q1042.3 302.1 1044.2 301.2Q1046 300.3 1047.8 298.1L1047.8 298.1Q1049.2 296.7 1050.8 296.7L1050.8 296.7Q1052.3 296.7 1053.4 297.6Q1054.4 298.6 1054.4 300.1L1054.4 300.1Q1054.4 301.1 1053.8 302.3L1053.8 302.3Q1052.1 305.4 1048.4 307.1Q1044.7 308.9 1039.9 308.9ZM1032.3 287.9L1032.3 287.9L1046.5 287.9Q1046.4 284.6 1044.5 282.6Q1042.5 280.7 1039.5 280.7Q1036.5 280.7 1034.5 282.7Q1032.6 284.7 1032.3 287.9Z M101.2 381.8L80.5 381.8Q78.3 381.8 77 380.5Q75.8 379.2 75.8 376.8L75.8 376.8L75.8 341.0Q75.8 338.6 77 337.3Q78.3 336.0 80.5 336.0Q82.7 336.0 83.9 337.3Q85.2 338.6 85.2 341.0L85.2 341.0L85.2 373.9L101.2 373.9Q103.1 373.9 104.3 375.0Q105.5 376.0 105.5 377.8Q105.5 379.7 104.3 380.7Q103.2 381.8 101.2 381.8L101.2 381.8ZM119.6 382.3L119.6 382.3Q114.8 382.3 111.6 379.4Q108.4 376.6 108.4 372.1L108.4 372.1Q108.4 367.6 111.8 365.0Q115.2 362.4 121.5 362L121.5 362L129.9 361.5L129.9 359.3Q129.9 357.0 128.4 355.7Q126.9 354.3 124.3 354.3L124.3 354.3Q122.2 354.3 120.8 355.1Q119.3 355.9 117.8 357.9L117.8 357.9Q116.3 359.6 114.2 359.6L114.2 359.6Q112.5 359.6 111.4 358.6Q110.3 357.6 110.3 356.1L110.3 356.1Q110.3 355.0 110.8 354L110.8 354Q112.0 351 115.7 349.3Q119.5 347.5 124.7 347.5L124.7 347.5Q131.1 347.5 135 350.6Q138.9 353.7 138.9 358.7L138.9 358.7L138.9 377.8Q138.9 380.0 137.7 381.2Q136.4 382.4 134.4 382.4L134.4 382.4Q132.5 382.4 131.4 381.4Q130.2 380.3 130.1 378.3L130.1 378.3L130.1 376.6L129.9 376.6Q128.5 379.3 125.7 380.8Q122.8 382.3 119.6 382.3ZM122.6 375.7L122.6 375.7Q125.7 375.7 127.8 373.9Q129.9 372.2 129.9 369.5L129.9 369.5L129.9 367.0L122.8 367.5Q120.3 367.7 118.9 368.8Q117.5 369.8 117.5 371.6L117.5 371.6Q117.5 373.5 118.9 374.6Q120.3 375.7 122.6 375.7ZM152.6 381.2Q151.4 382.4 149.3 382.4Q147.3 382.4 146 381.2Q144.8 379.9 144.8 377.7L144.8 377.7L144.8 352.2Q144.8 350.0 145.9 348.8Q147.1 347.6 149.2 347.6Q151.2 347.6 152.5 348.8Q153.7 350.1 153.7 352.2L153.7 352.2L153.7 354.1L153.9 354.1Q156.7 347.6 164.2 347.6L164.2 347.6Q169.8 347.6 172.8 350.9Q175.8 354.3 175.8 360.2L175.8 360.2L175.8 377.7Q175.8 379.9 174.6 381.2Q173.3 382.4 171.3 382.4Q169.2 382.4 168.0 381.2Q166.7 379.9 166.7 377.7L166.7 377.7L166.7 362.1Q166.7 358.8 165.2 357.0Q163.6 355.2 160.6 355.2Q157.5 355.2 155.7 357.2Q153.9 359.3 153.9 362.5L153.9 362.5L153.9 377.7Q153.9 379.9 152.6 381.2ZM196.6 394.3L196.6 394.3Q191.6 394.3 187.9 392.6Q184.2 390.9 182.5 388.2L182.5 388.2Q181.8 387.0 181.8 385.7L181.8 385.7Q181.8 384.2 182.8 383.3Q183.8 382.3 185.5 382.3L185.5 382.3Q187.3 382.3 188.7 383.6L188.7 383.6Q192.5 387.3 196.6 387.3L196.6 387.3Q200.3 387.3 202.4 385.4Q204.5 383.6 204.5 380.4L204.5 380.4L204.5 375.0L204.3 375.0Q203.1 377.8 200.4 379.4Q197.6 381.0 194 381.0L194 381.0Q187.8 381.0 184.1 376.6Q180.4 372.1 180.4 364.4L180.4 364.4Q180.4 356.6 184.0 352.1Q187.7 347.7 194.2 347.7L194.2 347.7Q197.7 347.7 200.4 349.4Q203.0 351.1 204.4 354.0L204.4 354.0L204.6 354.0L204.6 352.2Q204.6 349.9 205.8 348.8Q207.1 347.6 209.2 347.6L209.2 347.6Q211.2 347.6 212.4 348.8Q213.7 349.9 213.7 352.2L213.7 352.2L213.7 380.4Q213.7 387 209.2 390.7Q204.7 394.4 196.6 394.3ZM197.1 374.3L197.1 374.3Q200.5 374.3 202.6 371.7Q204.6 369.1 204.6 364.6Q204.6 360.0 202.6 357.3Q200.5 354.7 197.1 354.7L197.1 354.7Q193.7 354.7 191.7 357.3Q189.8 360 189.8 364.5L189.8 364.5Q189.8 369.1 191.7 371.7Q193.7 374.3 197.1 374.3ZM231.5 382.4L231.5 382.4Q226 382.4 222.7 379.0Q219.4 375.7 219.4 369.8L219.4 369.8L219.4 352.3Q219.4 350.1 220.7 348.8Q221.9 347.6 224 347.6Q226.1 347.6 227.3 348.8Q228.6 350.1 228.6 352.3L228.6 352.3L228.6 367.9Q228.6 371.3 230.2 373.0Q231.8 374.8 234.8 374.8Q237.8 374.8 239.6 372.8Q241.4 370.8 241.4 367.4L241.4 367.4L241.4 352.3Q241.4 350.1 242.7 348.8Q243.9 347.6 246.0 347.6Q248.0 347.6 249.3 348.8Q250.5 350.1 250.5 352.3L250.5 352.3L250.5 377.8Q250.5 380 249.3 381.2Q248.2 382.4 246.1 382.4Q244.1 382.4 242.9 381.2Q241.7 380 241.7 377.8L241.7 377.8L241.7 375.7L241.5 375.7Q238.9 382.4 231.5 382.4ZM266.4 382.3L266.4 382.3Q261.5 382.3 258.3 379.4Q255.2 376.6 255.2 372.1L255.2 372.1Q255.2 367.6 258.5 365.0Q261.9 362.4 268.2 362L268.2 362L276.7 361.5L276.7 359.3Q276.7 357.0 275.1 355.7Q273.6 354.3 271.0 354.3L271.0 354.3Q268.9 354.3 267.5 355.1Q266.1 355.9 264.5 357.9L264.5 357.9Q263.0 359.6 260.9 359.6L260.9 359.6Q259.3 359.6 258.2 358.6Q257.1 357.6 257.1 356.1L257.1 356.1Q257.1 355.0 257.6 354L257.6 354Q258.7 351 262.5 349.3Q266.2 347.5 271.4 347.5L271.4 347.5Q277.9 347.5 281.8 350.6Q285.6 353.7 285.6 358.7L285.6 358.7L285.6 377.8Q285.6 380.0 284.4 381.2Q283.2 382.4 281.2 382.4L281.2 382.4Q279.3 382.4 278.1 381.4Q276.9 380.3 276.8 378.3L276.8 378.3L276.8 376.6L276.6 376.6Q275.3 379.3 272.4 380.8Q269.6 382.3 266.4 382.3ZM269.4 375.7L269.4 375.7Q272.4 375.7 274.5 373.9Q276.7 372.2 276.7 369.5L276.7 369.5L276.7 367.0L269.6 367.5Q267.0 367.7 265.6 368.8Q264.3 369.8 264.3 371.6L264.3 371.6Q264.3 373.5 265.7 374.6Q267.1 375.7 269.4 375.7ZM306.5 394.3L306.5 394.3Q301.5 394.3 297.8 392.6Q294.1 390.9 292.4 388.2L292.4 388.2Q291.7 387.0 291.7 385.7L291.7 385.7Q291.7 384.2 292.7 383.3Q293.7 382.3 295.4 382.3L295.4 382.3Q297.1 382.3 298.6 383.6L298.6 383.6Q302.4 387.3 306.4 387.3L306.4 387.3Q310.2 387.3 312.3 385.4Q314.4 383.6 314.4 380.4L314.4 380.4L314.4 375.0L314.2 375.0Q313 377.8 310.2 379.4Q307.5 381.0 303.9 381.0L303.9 381.0Q297.6 381.0 294.0 376.6Q290.3 372.1 290.3 364.4L290.3 364.4Q290.3 356.6 293.9 352.1Q297.6 347.7 304.0 347.7L304.0 347.7Q307.6 347.7 310.2 349.4Q312.9 351.1 314.3 354.0L314.3 354.0L314.4 354.0L314.4 352.2Q314.4 349.9 315.7 348.8Q317.0 347.6 319.0 347.6L319.0 347.6Q321.1 347.6 322.3 348.8Q323.6 349.9 323.6 352.2L323.6 352.2L323.6 380.4Q323.6 387 319.0 390.7Q314.5 394.4 306.5 394.3ZM307.0 374.3L307.0 374.3Q310.4 374.3 312.4 371.7Q314.5 369.1 314.5 364.6Q314.5 360.0 312.4 357.3Q310.4 354.7 307.0 354.7L307.0 354.7Q303.6 354.7 301.6 357.3Q299.6 360 299.6 364.5L299.6 364.5Q299.6 369.1 301.6 371.7Q303.6 374.3 307.0 374.3ZM344.9 382.5L344.9 382.5Q337.0 382.5 332.6 377.9Q328.3 373.3 328.3 365.2L328.3 365.2Q328.3 357.1 332.6 352.3Q337 347.5 344.4 347.5L344.4 347.5Q351.5 347.5 355.9 351.9Q360.3 356.3 360.3 363.1L360.3 363.1Q360.3 365.0 359.3 366.1Q358.3 367.1 356.3 367.1L356.3 367.1L337.2 367.1L337.2 367.5Q337.2 371.2 339.3 373.5Q341.4 375.7 344.8 375.7L344.8 375.7Q347.3 375.7 349.2 374.8Q351 373.9 352.8 371.7L352.8 371.7Q354.2 370.3 355.8 370.3L355.8 370.3Q357.3 370.3 358.4 371.3Q359.4 372.2 359.4 373.7L359.4 373.7Q359.4 374.8 358.8 375.9L358.8 375.9Q357.1 379 353.4 380.7Q349.7 382.5 344.9 382.5ZM337.3 361.5L337.3 361.5L351.5 361.5Q351.4 358.2 349.5 356.3Q347.5 354.3 344.5 354.3Q341.5 354.3 339.5 356.3Q337.6 358.3 337.3 361.5Z M385.8 381.2Q384.7 382.3 382.7 382.3Q380.7 382.3 379.5 381.2Q378.4 380.0 378.4 377.9L378.4 377.9L378.4 342.1Q378.4 339.3 380.0 337.6Q381.7 336.0 384.5 336.0L384.5 336.0Q387 336.0 388.5 337.2Q390.0 338.3 391 340.9L391 340.9L402.2 368.6L402.4 368.6L413.6 340.9Q414.6 338.3 416.1 337.2Q417.7 336.0 420.1 336.0L420.1 336.0Q423 336.0 424.6 337.6Q426.2 339.3 426.2 342.1L426.2 342.1L426.2 377.9Q426.2 380.0 425.1 381.2Q424.0 382.3 422.0 382.3Q420.0 382.3 418.9 381.2Q417.8 380.0 417.8 377.9L417.8 377.9L417.8 351.3L417.5 351.3L406.4 378.6Q405.2 381.5 402.3 381.5L402.3 381.5Q399.4 381.5 398.3 378.6L398.3 378.6L387.1 351.3L386.8 351.3L386.8 377.9Q386.8 380.0 385.8 381.2ZM460.4 377.8Q455.9 382.5 448.3 382.5Q440.6 382.5 436.2 377.8Q431.7 373.2 431.7 365.0L431.7 365.0Q431.7 356.9 436.2 352.2Q440.7 347.5 448.3 347.5L448.3 347.5Q455.9 347.5 460.4 352.2Q464.9 356.9 464.9 365.0L464.9 365.0Q464.9 373.2 460.4 377.8ZM448.3 375.5L448.3 375.5Q451.7 375.5 453.6 372.8Q455.6 370 455.6 365L455.6 365Q455.6 360.1 453.6 357.3Q451.7 354.5 448.3 354.5Q444.9 354.5 442.9 357.3Q440.9 360.1 440.9 365L440.9 365Q440.9 370 442.9 372.8Q444.9 375.5 448.3 375.5ZM482 382.3L482 382.3Q475.7 382.3 472.0 377.6Q468.3 373.0 468.3 364.9L468.3 364.9Q468.3 357.0 472.0 352.3Q475.8 347.7 482.1 347.7L482.1 347.7Q485.6 347.7 488.3 349.4Q491.0 351.2 492.3 354L492.3 354L492.5 354L492.5 340.8Q492.5 338.5 493.7 337.2Q495.0 336.0 497.0 336.0Q499.1 336.0 500.3 337.2Q501.6 338.5 501.6 340.8L501.6 340.8L501.6 377.8Q501.6 380 500.4 381.2Q499.1 382.4 497.1 382.4L497.1 382.4Q495.0 382.4 493.8 381.2Q492.5 380 492.5 377.8L492.5 377.8L492.5 375.8L492.3 375.8Q491.2 378.8 488.5 380.5Q485.8 382.3 482 382.3ZM485.1 374.9L485.1 374.9Q488.5 374.9 490.5 372.3Q492.5 369.6 492.5 365L492.5 365Q492.5 360.4 490.5 357.7Q488.5 355.0 485.1 355.0L485.1 355.0Q481.7 355.0 479.7 357.7Q477.7 360.4 477.7 365L477.7 365Q477.7 369.6 479.7 372.3Q481.7 374.9 485.1 374.9ZM523.1 382.5L523.1 382.5Q515.3 382.5 510.9 377.9Q506.5 373.3 506.5 365.2L506.5 365.2Q506.5 357.1 510.8 352.3Q515.2 347.5 522.7 347.5L522.7 347.5Q529.8 347.5 534.1 351.9Q538.5 356.3 538.5 363.1L538.5 363.1Q538.5 365.0 537.5 366.1Q536.5 367.1 534.6 367.1L534.6 367.1L515.4 367.1L515.4 367.5Q515.4 371.2 517.5 373.5Q519.6 375.7 523.1 375.7L523.1 375.7Q525.6 375.7 527.4 374.8Q529.2 373.9 531.1 371.7L531.1 371.7Q532.4 370.3 534.0 370.3L534.0 370.3Q535.6 370.3 536.6 371.3Q537.6 372.2 537.6 373.7L537.6 373.7Q537.6 374.8 537.0 375.9L537.0 375.9Q535.3 379 531.6 380.7Q527.9 382.5 523.1 382.5ZM515.5 361.5L515.5 361.5L529.8 361.5Q529.6 358.2 527.7 356.3Q525.8 354.3 522.8 354.3Q519.8 354.3 517.8 356.3Q515.8 358.3 515.5 361.5ZM551.3 381.2Q550.1 382.4 548 382.4Q545.9 382.4 544.7 381.2Q543.4 379.9 543.4 377.7L543.4 377.7L543.4 340.8Q543.4 338.5 544.7 337.2Q545.9 336.0 548 336.0Q550.1 336.0 551.3 337.2Q552.6 338.5 552.6 340.8L552.6 340.8L552.6 377.7Q552.6 379.9 551.3 381.2ZM572.4 382.5L572.4 382.5Q566.8 382.5 563.0 380.6Q559.2 378.8 558.0 375.8L558.0 375.8Q557.6 374.8 557.6 374.1L557.6 374.1Q557.6 372.5 558.7 371.6Q559.7 370.6 561.3 370.6L561.3 370.6Q563.4 370.6 565.3 372.7L565.3 372.7Q566.7 374.4 568.3 375.3Q570.0 376.1 572.6 376.1L572.6 376.1Q575.1 376.1 576.6 375.1Q578.1 374.1 578.1 372.5L578.1 372.5Q578.1 371.1 577.1 370.3Q576.1 369.5 573.6 369.0L573.6 369.0L568 367.8Q563.1 366.7 560.6 364.3Q558.1 361.8 558.1 358.1L558.1 358.1Q558.1 353.3 562.0 350.4Q565.8 347.5 572.3 347.5L572.3 347.5Q577.4 347.5 581.0 349.5Q584.6 351.5 585.5 354.5L585.5 354.5Q585.7 355.3 585.7 355.8L585.7 355.8Q585.7 357.3 584.8 358.1Q583.9 358.9 582.2 358.9L582.2 358.9Q580.1 358.9 578.9 357.5L578.9 357.5Q577.5 355.8 576.0 354.9Q574.5 353.9 572.2 353.9L572.2 353.9Q569.9 353.9 568.4 354.9Q566.9 355.9 566.9 357.6L566.9 357.6Q566.9 358.9 568.0 359.8Q569.1 360.7 571.6 361.2L571.6 361.2L577.1 362.4Q582.5 363.5 584.8 365.6Q587.2 367.8 587.2 371.5L587.2 371.5Q587.2 376.5 583.1 379.5Q579.0 382.5 572.4 382.5Z " clip-path="url(#satori_cp-id-0)" mask="url(#satori_om-id-0)"/><defs><clipPath id="satori_bc-id-0-1" clip-path="url(#satori_cp-id-0)"><rect x="0" y="509" width="1200" height="121"/></clipPath></defs><mask id="satori_om-id-0-1"><rect x="0" y="510" width="1200" height="120" fill="#fff" mask="url(#satori_om-id-0)"/><path width="1200" height="121" fill="none" stroke="#000" stroke-width="2" d="M0,509 A0,0 0 0 1 0,509 h1200 A0,0 0 0 1 1200,509"/></mask><path width="1200" height="121" clip-path="url(#satori_bc-id-0-1)" fill="none" stroke="rgba(0,0,0,0.08)" stroke-width="2" d="M0,509 A0,0 0 0 1 0,509 h1200 A0,0 0 0 1 1200,509"/><mask id="satori_om-id-0-1-0"><rect x="48" y="538" width="228" height="64" fill="#fff" mask="url(#satori_om-id-0)"/></mask><mask id="satori_om-id-0-1-0-0"><rect x="48" y="538" width="72" height="64" fill="#fff" mask="url(#satori_om-id-0)"/></mask><clipPath id="satori_cp-id-0-1-0-0-0" clip-path="url(#satori_cp-id-0)"><rect x="48" y="538" width="72" height="64"/></clipPath><mask id="satori_om-id-0-1-0-0-0"><rect x="48" y="538" width="72" height="64" fill="#fff" mask="url(#satori_om-id-0)"/></mask><image x="48" y="538" width="72" height="64" href="data:image/svg+xml;utf8,%3Csvg  xmlns=%22http://www.w3.org/2000/svg%22 width=%2273.60461760461762%22 height=%2264%22 viewBox=%220 0 797 693%22%3E%3Cg transform=%22matrix(1,0,0,1,-345,-96.5)%22%3E%3Cpath d=%22M756.942,197.15L756.942,474C701.751,474 656.942,518.808 656.942,574C656.942,629.192 701.751,674 756.942,674L756.942,777L495.122,777C443.175,777 401,734.825 401,682.878L401,614L364.755,614C353.852,614 345,605.148 345,594.245L345,436.814C345,425.878 353.878,417 364.814,417L401,417L401,365.122C401,313.175 443.175,271 495.122,271L715.058,271L715.058,197.15C696.492,189.056 683.5,170.533 683.5,149C683.5,120.024 707.024,96.5 736,96.5C764.976,96.5 788.5,120.024 788.5,149C788.5,170.533 775.508,189.056 756.942,197.15ZM559,388C520.918,388 490,418.918 490,457C490,495.082 520.918,526 559,526C597.082,526 628,495.082 628,457C628,418.918 597.082,388 559,388Z%22 fill=%22%23ad47ff%22%3E%3C/path%3E%3Cg transform=%22matrix(-1,1.22465e-16,-1.22465e-16,-1,1486.06,1043)%22%3E%3Cpath d=%22M401,417L401,348.122C401,296.175 443.175,254 495.122,254L705.058,254L705.058,357C760.249,357 805.058,401.808 805.058,457C805.058,512.192 760.249,557 705.058,557L705.058,760L495.122,760C443.175,760 401,717.825 401,665.878L401,614L364.755,614C353.852,614 345,605.148 345,594.245L345,436.814C345,425.878 353.878,417 364.814,417L401,417ZM552,643C590.082,643 621,612.082 621,574C621,535.918 590.082,505 552,505C513.918,505 483,535.918 483,574C483,612.082 513.918,643 552,643Z%22 fill=%22%2300d5bd%22%3E%3C/path%3E%3C/g%3E%3C/g%3E%3C/svg%3E" preserveAspectRatio="none" clip-path="url(#satori_cp-id-0-1-0-0-0)" mask="url(#satori_om-id-0-1-0-0-0)"/><mask id="satori_om-id-0-1-0-0-0-0"><rect x="48" y="538" width="0" height="64" fill="#fff" mask="url(#satori_om-id-0)"/></mask><mask id="satori_om-id-0-1-0-0-0-0-0"><rect x="48" y="538" width="0" height="64" fill="#fff" mask="url(#satori_om-id-0)"/></mask><mask id="satori_om-id-0-1-0-0-0-0-1"><rect x="48" y="538" width="0" height="64" fill="#fff" mask="url(#satori_om-id-0)"/></mask><mask id="satori_om-id-0-1-0-0-0-0-1-0"><rect x="48" y="538" width="0" height="64" fill="#fff" mask="url(#satori_om-id-0)"/></mask><mask id="satori_om-id-0-1-0-1"><rect x="138" y="540" width="138" height="60" fill="#fff" mask="url(#satori_om-id-0)"/></mask><mask id="satori_om-id-0-1-0-1-0"><rect x="138" y="540" width="138" height="36" fill="#fff" mask="url(#satori_om-id-0)"/></mask><path fill="#0f172a" d="M150.7 571.2L150.7 571.2Q145.9 571.2 143.0 568.6Q140.1 566.1 140.1 561.8L140.1 561.8L140.1 547.9Q140.1 546.5 140.8 545.8Q141.5 545.1 142.8 545.1Q144.0 545.1 144.7 545.8Q145.4 546.5 145.4 547.9L145.4 547.9L145.4 561.3Q145.4 563.8 146.8 565.2Q148.2 566.7 150.7 566.7L150.7 566.7Q153.3 566.7 154.7 565.2Q156.1 563.8 156.1 561.3L156.1 561.3L156.1 547.9Q156.1 546.5 156.8 545.8Q157.5 545.1 158.7 545.1Q160.0 545.1 160.7 545.8Q161.4 546.5 161.4 547.9L161.4 547.9L161.4 561.8Q161.4 566.1 158.5 568.6Q155.6 571.2 150.7 571.2ZM170.2 570.4Q169.5 571.2 168.2 571.2Q167.0 571.2 166.3 570.4Q165.6 569.7 165.6 568.4L165.6 568.4L165.6 548.2Q165.6 546.9 166.3 546.2Q167.0 545.4 168.2 545.4L168.2 545.4L176.0 545.4Q180.3 545.4 182.7 547.6Q185.1 549.7 185.1 553.5L185.1 553.5Q185.1 555.9 184.0 557.8Q182.9 559.7 180.8 560.6L180.8 560.6L184.4 566.9Q185.0 567.9 185.0 568.7L185.0 568.7Q185.0 569.8 184.2 570.5Q183.5 571.2 182.3 571.2L182.3 571.2Q181.4 571.2 180.8 570.8Q180.3 570.3 179.6 569.2L179.6 569.2L175.4 561.5L170.9 561.5L170.9 568.4Q170.9 569.7 170.2 570.4ZM170.9 549.6L170.9 557.7L175.5 557.7Q177.5 557.7 178.6 556.6Q179.7 555.5 179.7 553.6L179.7 553.6Q179.7 551.8 178.5 550.7Q177.4 549.6 175.4 549.6L175.4 549.6L170.9 549.6ZM198.1 562.7L190.8 562.7Q189.7 562.7 189.1 562.1Q188.4 561.5 188.4 560.5Q188.4 559.4 189.1 558.8Q189.7 558.2 190.8 558.2L190.8 558.2L198.1 558.2Q199.2 558.2 199.9 558.8Q200.6 559.4 200.6 560.5Q200.6 561.5 199.9 562.1Q199.2 562.7 198.1 562.7L198.1 562.7ZM209.1 570.4Q208.4 571.2 207.2 571.2Q205.9 571.2 205.2 570.4Q204.5 569.7 204.5 568.4L204.5 568.4L204.5 548.2Q204.5 546.9 205.2 546.2Q205.9 545.4 207.2 545.4L207.2 545.4L214.9 545.4Q219.3 545.4 221.7 547.6Q224.1 549.7 224.1 553.5L224.1 553.5Q224.1 555.9 223.0 557.8Q221.8 559.7 219.7 560.6L219.7 560.6L223.4 566.9Q224.0 567.9 224.0 568.7L224.0 568.7Q224.0 569.8 223.2 570.5Q222.4 571.2 221.3 571.2L221.3 571.2Q220.3 571.2 219.8 570.8Q219.2 570.3 218.6 569.2L218.6 569.2L214.4 561.5L209.8 561.5L209.8 568.4Q209.8 569.7 209.1 570.4ZM209.8 549.6L209.8 557.7L214.4 557.7Q216.4 557.7 217.5 556.6Q218.6 555.5 218.6 553.6L218.6 553.6Q218.6 551.8 217.5 550.7Q216.3 549.6 214.4 549.6L214.4 549.6L209.8 549.6ZM229.3 571.1L229.3 571.1Q228.0 571.1 227.3 570.5Q226.6 569.8 226.6 568.6L226.6 568.6Q226.6 567.9 226.9 566.9L226.9 566.9L233.9 548.1Q234.4 546.5 235.4 545.8Q236.3 545.1 237.8 545.1L237.8 545.1Q239.4 545.1 240.4 545.8Q241.3 546.5 241.9 548.1L241.9 548.1L248.9 566.9Q249.2 567.9 249.2 568.6L249.2 568.6Q249.2 569.7 248.5 570.4Q247.7 571.1 246.5 571.1L246.5 571.1Q245.4 571.1 244.8 570.6Q244.1 570.0 243.8 568.8L243.8 568.8L242.4 564.8L233.3 564.8L232.0 568.7Q231.6 570.0 231.0 570.6Q230.3 571.1 229.3 571.1ZM237.7 550.3L234.5 560.7L241.2 560.7L237.9 550.3L237.7 550.3ZM262.1 570.8L255.1 570.8Q253.8 570.8 253.1 570.1Q252.4 569.3 252.4 568.0L252.4 568.0L252.4 548.2Q252.4 546.9 253.1 546.2Q253.8 545.4 255.1 545.4L255.1 545.4L262.1 545.4Q267.8 545.4 271.0 548.7Q274.2 552.0 274.2 558.0L274.2 558.0Q274.2 564.0 271.0 567.4Q267.8 570.8 262.1 570.8L262.1 570.8ZM257.7 549.8L257.7 566.4L261.5 566.4Q265.0 566.4 266.9 564.3Q268.8 562.1 268.8 558.0L268.8 558.0Q268.8 554.1 266.9 551.9Q265.0 549.8 261.5 549.8L261.5 549.8L257.7 549.8Z " clip-path="url(#satori_cp-id-0)" mask="url(#satori_om-id-0)"/><mask id="satori_om-id-0-1-0-1-1"><rect x="138" y="576" width="138" height="24" fill="#fff" mask="url(#satori_om-id-0)"/></mask><path fill="#334155" d="M145.0 595.3L145.0 595.3Q142.4 595.3 140.8 593.8Q139.2 592.4 139.2 590.1L139.2 590.1L139.2 582.1Q139.2 581.5 139.6 581.1Q139.9 580.8 140.5 580.8L140.5 580.8Q141.1 580.8 141.4 581.1Q141.8 581.5 141.8 582.1L141.8 582.1L141.8 589.8Q141.8 591.3 142.6 592.2Q143.5 593.1 145.0 593.1Q146.6 593.1 147.4 592.2Q148.3 591.3 148.3 589.8L148.3 589.8L148.3 582.1Q148.3 581.5 148.6 581.1Q149.0 580.8 149.6 580.8L149.6 580.8Q150.2 580.8 150.5 581.1Q150.8 581.5 150.8 582.1L150.8 582.1L150.8 590.1Q150.8 592.4 149.3 593.8Q147.7 595.3 145.0 595.3ZM155.5 594.9Q155.2 595.2 154.6 595.2Q154.0 595.2 153.6 594.9Q153.3 594.5 153.3 593.9L153.3 593.9L153.3 582.3Q153.3 581.6 153.6 581.3Q154.0 581.0 154.6 581.0L154.6 581.0L158.9 581.0Q161.2 581.0 162.5 582.1Q163.8 583.3 163.8 585.3L163.8 585.3Q163.8 586.7 163.1 587.8Q162.4 588.8 161.2 589.3L161.2 589.3L163.4 593.2Q163.7 593.7 163.7 594.1L163.7 594.1Q163.7 594.6 163.4 594.9Q163.0 595.2 162.4 595.2L162.4 595.2Q162.0 595.2 161.7 595.0Q161.5 594.8 161.2 594.3L161.2 594.3L158.7 589.7L155.8 589.7L155.8 593.9Q155.8 594.5 155.5 594.9ZM155.8 583.0L155.8 587.8L158.7 587.8Q159.9 587.8 160.5 587.2Q161.2 586.5 161.2 585.4L161.2 585.4Q161.2 584.3 160.5 583.6Q159.8 583.0 158.6 583.0L158.6 583.0L155.8 583.0ZM171.1 590.4L166.7 590.4Q166.2 590.4 165.9 590.1Q165.6 589.8 165.6 589.3Q165.6 588.8 165.9 588.5Q166.2 588.2 166.7 588.2L166.7 588.2L171.1 588.2Q171.7 588.2 172.0 588.5Q172.3 588.8 172.3 589.3Q172.3 589.8 172.0 590.1Q171.7 590.4 171.1 590.4L171.1 590.4ZM176.7 594.9Q176.4 595.2 175.8 595.2Q175.2 595.2 174.9 594.9Q174.6 594.5 174.6 593.9L174.6 593.9L174.6 582.3Q174.6 581.6 174.9 581.3Q175.2 581.0 175.8 581.0L175.8 581.0L180.1 581.0Q182.4 581.0 183.7 582.1Q185.0 583.3 185.0 585.3L185.0 585.3Q185.0 586.7 184.3 587.8Q183.7 588.8 182.5 589.3L182.5 589.3L184.7 593.2Q185.0 593.7 185.0 594.1L185.0 594.1Q185.0 594.6 184.6 594.9Q184.2 595.2 183.7 595.2L183.7 595.2Q183.2 595.2 183.0 595.0Q182.7 594.8 182.4 594.3L182.4 594.3L179.9 589.7L177.1 589.7L177.1 593.9Q177.1 594.5 176.7 594.9ZM177.1 583.0L177.1 587.8L179.9 587.8Q181.1 587.8 181.8 587.2Q182.4 586.5 182.4 585.4L182.4 585.4Q182.4 584.3 181.8 583.6Q181.1 583.0 179.9 583.0L179.9 583.0L177.1 583.0ZM187.7 595.2L187.7 595.2Q187.1 595.2 186.7 594.9Q186.4 594.6 186.4 594.0L186.4 594.0Q186.4 593.7 186.6 593.3L186.6 593.3L190.7 582.2Q190.9 581.4 191.4 581.1Q191.8 580.8 192.5 580.8L192.5 580.8Q193.2 580.8 193.6 581.1Q194.1 581.4 194.3 582.1L194.3 582.1L198.4 593.3Q198.6 593.7 198.6 594.0L198.6 594.0Q198.6 594.6 198.2 594.9Q197.9 595.2 197.3 595.2L197.3 595.2Q196.8 595.2 196.5 595.0Q196.2 594.7 196.0 594.1L196.0 594.1L195.1 591.4L189.9 591.4L188.9 594.1Q188.8 594.7 188.5 595.0Q188.2 595.2 187.7 595.2ZM192.4 583.4L190.5 589.5L194.5 589.5L192.5 583.4L192.4 583.4ZM205.6 595.0L201.7 595.0Q201.1 595.0 200.8 594.7Q200.4 594.3 200.4 593.7L200.4 593.7L200.4 582.3Q200.4 581.6 200.8 581.3Q201.1 581.0 201.7 581.0L201.7 581.0L205.6 581.0Q208.7 581.0 210.5 582.8Q212.3 584.6 212.3 588.0L212.3 588.0Q212.3 591.3 210.5 593.2Q208.7 595.0 205.6 595.0L205.6 595.0ZM202.9 583.1L202.9 592.9L205.3 592.9Q207.4 592.9 208.6 591.6Q209.7 590.4 209.7 588.0L209.7 588.0Q209.7 585.6 208.6 584.3Q207.4 583.1 205.3 583.1L205.3 583.1L202.9 583.1Z M227.0 595.0L219.2 595.0Q218.7 595.0 218.3 594.8Q218.0 594.5 218.0 594.0L218.0 594.0Q218.0 593.6 218.2 593.3Q218.3 593.1 218.7 592.7L218.7 592.7L223.0 588.4Q224.4 587.1 224.8 586.4Q225.3 585.7 225.3 584.9L225.3 584.9Q225.3 583.9 224.6 583.3Q224.0 582.7 223.0 582.7L223.0 582.7Q221.1 582.7 220.3 584.6L220.3 584.6Q220.1 585.0 219.9 585.2Q219.6 585.4 219.2 585.4L219.2 585.4Q218.7 585.4 218.4 585.1Q218.1 584.8 218.1 584.3L218.1 584.3Q218.1 584.1 218.2 583.8L218.2 583.8Q218.3 583.2 218.7 582.7Q219.1 582.1 219.7 581.7Q220.3 581.2 221.1 580.9Q222.0 580.7 223.0 580.7L223.0 580.7Q225.1 580.7 226.4 581.8Q227.8 582.9 227.8 584.7L227.8 584.7Q227.8 585.9 227.1 586.9Q226.4 588.0 224.6 589.8L224.6 589.8L221.4 592.9L221.4 593.0L227.0 593.0Q227.5 593.0 227.8 593.3Q228.1 593.5 228.1 594.0Q228.1 594.5 227.8 594.8Q227.5 595.0 227.0 595.0L227.0 595.0ZM235.2 595.3L235.2 595.3Q232.6 595.3 231.1 593.4Q229.7 591.4 229.7 588.0L229.7 588.0Q229.7 584.6 231.1 582.6Q232.6 580.7 235.2 580.7L235.2 580.7Q237.8 580.7 239.3 582.6Q240.7 584.6 240.7 588.0L240.7 588.0Q240.7 591.4 239.3 593.3Q237.8 595.3 235.2 595.3ZM235.2 593.3L235.2 593.3Q236.6 593.3 237.4 591.9Q238.2 590.5 238.2 588.0L238.2 588.0Q238.2 585.5 237.4 584.1Q236.6 582.7 235.2 582.7Q233.8 582.7 233.0 584.1Q232.2 585.5 232.2 588.0L232.2 588.0Q232.2 590.5 233.0 591.9Q233.8 593.3 235.2 593.3ZM251.6 595.0L243.8 595.0Q243.2 595.0 242.9 594.8Q242.6 594.5 242.6 594.0L242.6 594.0Q242.6 593.6 242.7 593.3Q242.9 593.1 243.3 592.7L243.3 592.7L247.6 588.4Q248.9 587.1 249.4 586.4Q249.8 585.7 249.8 584.9L249.8 584.9Q249.8 583.9 249.2 583.3Q248.5 582.7 247.5 582.7L247.5 582.7Q245.6 582.7 244.9 584.6L244.9 584.6Q244.7 585.0 244.4 585.2Q244.2 585.4 243.7 585.4L243.7 585.4Q243.2 585.4 242.9 585.1Q242.6 584.8 242.6 584.3L242.6 584.3Q242.6 584.1 242.7 583.8L242.7 583.8Q242.9 583.2 243.2 582.7Q243.6 582.1 244.2 581.7Q244.8 581.2 245.7 580.9Q246.5 580.7 247.5 580.7L247.5 580.7Q249.6 580.7 251.0 581.8Q252.3 582.9 252.3 584.7L252.3 584.7Q252.3 585.9 251.6 586.9Q251.0 588.0 249.2 589.8L249.2 589.8L245.9 592.9L245.9 593.0L251.6 593.0Q252.1 593.0 252.4 593.3Q252.6 593.5 252.6 594.0Q252.6 594.5 252.4 594.8Q252.1 595.0 251.6 595.0L251.6 595.0ZM259.6 595.3L259.6 595.3Q258.0 595.3 256.7 594.6Q255.4 593.9 254.9 592.8L254.9 592.8Q254.6 592.3 254.6 591.8L254.6 591.8Q254.6 591.3 254.9 591.0Q255.2 590.7 255.7 590.7L255.7 590.7Q256.1 590.7 256.4 590.9Q256.6 591.1 256.8 591.5L256.8 591.5Q257.2 592.3 257.9 592.8Q258.6 593.3 259.6 593.3L259.6 593.3Q260.9 593.3 261.7 592.5Q262.5 591.7 262.5 590.4L262.5 590.4Q262.5 589.2 261.7 588.4Q260.9 587.7 259.6 587.7L259.6 587.7Q258.3 587.7 257.4 588.5L257.4 588.5Q257.0 589.0 256.7 589.1Q256.4 589.3 256.0 589.3L256.0 589.3Q255.4 589.3 255.1 588.9Q254.8 588.5 254.8 588.0L254.8 588.0Q254.8 587.9 254.8 587.8L254.8 587.8L255.3 582.5Q255.4 581.7 255.8 581.3Q256.2 581.0 257.0 581.0L257.0 581.0L263.1 581.0Q263.6 581.0 263.9 581.2Q264.2 581.5 264.2 582.0L264.2 582.0Q264.2 582.4 263.9 582.7Q263.6 583.0 263.1 583.0L263.1 583.0L257.4 583.0L257.1 587.2L257.1 587.2Q257.6 586.5 258.4 586.1Q259.2 585.8 260.3 585.8L260.3 585.8Q262.3 585.8 263.6 587.0Q264.9 588.3 264.9 590.4L264.9 590.4Q264.9 592.6 263.4 593.9Q261.9 595.3 259.6 595.3Z " clip-path="url(#satori_cp-id-0)" mask="url(#satori_om-id-0)"/><mask id="satori_om-id-0-1-1"><rect x="940" y="557" width="212" height="26" fill="#fff" mask="url(#satori_om-id-0)"/></mask><path fill="#334155" d="M943.4 577.8Q943.1 578.2 942.5 578.2Q941.9 578.2 941.5 577.8Q941.2 577.5 941.2 576.8L941.2 576.8L941.2 563.6Q941.2 563.0 941.5 562.6Q941.9 562.2 942.5 562.2Q943.1 562.2 943.5 562.6Q943.8 563.0 943.8 563.6L943.8 563.6L943.8 568.5L943.9 568.5Q944.4 567.5 945.3 566.9Q946.3 566.4 947.5 566.4L947.5 566.4Q949.6 566.4 950.9 568.0Q952.2 569.5 952.2 572.3L952.2 572.3Q952.2 575.0 950.9 576.6Q949.6 578.1 947.5 578.1L947.5 578.1Q946.2 578.1 945.3 577.6Q944.4 577.0 943.8 576.0L943.8 576.0L943.8 576.0L943.8 576.8Q943.8 577.5 943.4 577.8ZM946.6 575.9L946.6 575.9Q947.9 575.9 948.7 574.9Q949.4 574.0 949.4 572.3Q949.4 570.6 948.7 569.6Q947.9 568.6 946.6 568.6L946.6 568.6Q945.4 568.6 944.6 569.6Q943.8 570.6 943.8 572.3L943.8 572.3Q943.8 573.9 944.6 574.9Q945.4 575.9 946.6 575.9ZM955.5 582.2L955.5 582.2Q954.6 582.2 954.1 581.9Q953.7 581.5 953.7 580.9L953.7 580.9Q953.7 580.5 953.9 580.3Q954.2 580.0 954.7 580.0L954.7 580.0Q954.8 580.0 955.0 580.0Q955.1 580.0 955.3 580.0L955.3 580.0Q956.3 580.0 956.9 578.7L956.9 578.7L957.1 578.2L953.3 568.3Q953.2 567.9 953.2 567.6L953.2 567.6Q953.2 567.0 953.6 566.7Q954.0 566.3 954.6 566.3L954.6 566.3Q955.1 566.3 955.4 566.6Q955.7 566.8 955.8 567.4L955.8 567.4L958.6 575.7L958.6 575.7L961.3 567.4Q961.5 566.8 961.8 566.6Q962.1 566.3 962.6 566.3L962.6 566.3Q963.2 566.3 963.5 566.7Q963.9 567.0 963.9 567.5L963.9 567.5Q963.9 567.9 963.8 568.3L963.8 568.3L960.0 578.4Q959.2 580.5 958.2 581.3Q957.2 582.2 955.5 582.2Z M976.8 578.2L976.8 578.2Q973.4 578.2 971.5 576.1Q969.5 573.9 969.5 570.2L969.5 570.2Q969.5 566.5 971.5 564.3Q973.4 562.2 976.7 562.2L976.7 562.2Q978.9 562.2 980.5 563.1Q982.1 564.1 982.9 565.8L982.9 565.8Q983.1 566.3 983.1 566.8L983.1 566.8Q983.1 567.4 982.8 567.7Q982.5 568.1 981.9 568.1L981.9 568.1Q981.0 568.1 980.5 567.1L980.5 567.1Q980.0 565.8 979.0 565.2Q978.0 564.5 976.7 564.5L976.7 564.5Q974.7 564.5 973.5 566.1Q972.4 567.6 972.4 570.2L972.4 570.2Q972.4 572.8 973.5 574.3Q974.7 575.9 976.7 575.9L976.7 575.9Q979.5 575.9 980.6 573.4L980.6 573.4Q980.8 573.0 981.1 572.8Q981.4 572.6 981.8 572.6L981.8 572.6Q982.4 572.6 982.7 572.9Q983.1 573.2 983.1 573.8L983.1 573.8Q983.1 574.3 982.9 574.8L982.9 574.8Q982.1 576.4 980.5 577.3Q978.9 578.2 976.8 578.2ZM988.6 578.1L988.6 578.1Q986.9 578.1 985.8 577.2Q984.8 576.2 984.8 574.7L984.8 574.7Q984.8 573.2 985.9 572.3Q987.0 571.4 989.1 571.3L989.1 571.3L992.1 571.1L992.1 570.3Q992.1 569.4 991.6 568.9Q991.0 568.4 990.0 568.4L990.0 568.4Q989.2 568.4 988.7 568.7Q988.1 569.0 987.6 569.8L987.6 569.8Q987.2 570.3 986.5 570.3L986.5 570.3Q986.0 570.3 985.7 570.0Q985.4 569.7 985.4 569.2L985.4 569.2Q985.4 568.9 985.6 568.5L985.6 568.5Q986.0 567.5 987.2 566.9Q988.5 566.3 990.1 566.3L990.1 566.3Q992.2 566.3 993.5 567.4Q994.8 568.4 994.8 570.1L994.8 570.1L994.8 576.8Q994.8 577.5 994.4 577.8Q994.0 578.2 993.5 578.2L993.5 578.2Q992.9 578.2 992.6 577.8Q992.2 577.5 992.2 576.9L992.2 576.9L992.2 576.1L992.1 576.1Q991.6 577.0 990.7 577.6Q989.7 578.1 988.6 578.1ZM989.4 576.1L989.4 576.1Q990.5 576.1 991.3 575.4Q992.1 574.7 992.1 573.7L992.1 573.7L992.1 572.9L989.5 573.0Q988.5 573.1 988.0 573.5Q987.4 573.9 987.4 574.6L987.4 574.6Q987.4 575.3 988.0 575.7Q988.5 576.1 989.4 576.1ZM1006.0 576.6Q1004.5 578.2 1002.0 578.2Q999.4 578.2 997.9 576.6Q996.4 575.0 996.4 572.3L996.4 572.3Q996.4 569.5 997.9 567.9Q999.4 566.3 1002.0 566.3L1002.0 566.3Q1004.5 566.3 1006.0 567.9Q1007.5 569.5 1007.5 572.3L1007.5 572.3Q1007.5 575.0 1006.0 576.6ZM999.9 575.1Q1000.7 576.1 1002.0 576.1Q1003.2 576.1 1004.0 575.1Q1004.7 574.1 1004.7 572.3L1004.7 572.3Q1004.7 570.5 1004.0 569.5Q1003.2 568.5 1002.0 568.5L1002.0 568.5Q1000.7 568.5 999.9 569.5Q999.2 570.5 999.2 572.3L999.2 572.3Q999.2 574.1 999.9 575.1ZM1011.1 575.2L1011.1 575.2Q1011.6 575.2 1011.9 575.5Q1012.3 575.8 1012.3 576.3L1012.3 576.3Q1012.3 576.6 1012.2 576.9L1012.2 576.9L1011.3 580.6Q1011.1 581.1 1010.9 581.3Q1010.6 581.5 1010.2 581.5Q1009.7 581.5 1009.4 581.2Q1009.1 581.0 1009.2 580.5L1009.2 580.5Q1009.2 580.4 1009.2 580.3L1009.2 580.3L1009.8 576.3Q1010.0 575.2 1011.1 575.2Z M1025.5 578.1L1025.5 578.1Q1024.9 578.1 1024.5 577.8Q1024.1 577.4 1024.1 576.7L1024.1 576.7L1024.1 571.8L1019.3 564.5Q1019.0 564.0 1019.0 563.5L1019.0 563.5Q1019.0 563.0 1019.4 562.6Q1019.8 562.3 1020.4 562.3L1020.4 562.3Q1020.8 562.3 1021.1 562.4Q1021.4 562.6 1021.7 563.1L1021.7 563.1L1025.5 569.2L1025.6 569.2L1029.4 563.1Q1029.7 562.6 1030.0 562.4Q1030.2 562.3 1030.7 562.3L1030.7 562.3Q1031.2 562.3 1031.6 562.6Q1032.0 563.0 1032.0 563.5L1032.0 563.5Q1032.0 564.0 1031.7 564.5L1031.7 564.5L1026.9 571.8L1026.9 576.7Q1026.9 577.4 1026.5 577.8Q1026.2 578.1 1025.5 578.1ZM1035.6 578.1L1035.6 578.1Q1034.9 578.1 1034.5 577.6Q1034.0 577.2 1034.0 576.5L1034.0 576.5Q1034.0 575.9 1034.5 575.4Q1034.9 575.0 1035.6 575.0L1035.6 575.0Q1036.2 575.0 1036.7 575.4Q1037.1 575.9 1037.1 576.5L1037.1 576.5Q1037.1 577.2 1036.7 577.6Q1036.2 578.1 1035.6 578.1Z M1047.4 578.1L1047.4 578.1Q1045.7 578.1 1044.6 577.2Q1043.6 576.2 1043.6 574.7L1043.6 574.7Q1043.6 573.2 1044.7 572.3Q1045.8 571.4 1047.9 571.3L1047.9 571.3L1050.9 571.1L1050.9 570.3Q1050.9 569.4 1050.4 568.9Q1049.8 568.4 1048.8 568.4L1048.8 568.4Q1048.0 568.4 1047.5 568.7Q1046.9 569.0 1046.4 569.8L1046.4 569.8Q1046.0 570.3 1045.3 570.3L1045.3 570.3Q1044.8 570.3 1044.5 570.0Q1044.2 569.7 1044.2 569.2L1044.2 569.2Q1044.2 568.9 1044.4 568.5L1044.4 568.5Q1044.8 567.5 1046.0 566.9Q1047.3 566.3 1048.9 566.3L1048.9 566.3Q1051.0 566.3 1052.3 567.4Q1053.6 568.4 1053.6 570.1L1053.6 570.1L1053.6 576.8Q1053.6 577.5 1053.2 577.8Q1052.8 578.2 1052.3 578.2L1052.3 578.2Q1051.7 578.2 1051.4 577.8Q1051.0 577.5 1051.0 576.9L1051.0 576.9L1051.0 576.1L1050.9 576.1Q1050.5 577.0 1049.5 577.6Q1048.5 578.1 1047.4 578.1ZM1048.2 576.1L1048.2 576.1Q1049.3 576.1 1050.1 575.4Q1050.9 574.7 1050.9 573.7L1050.9 573.7L1050.9 572.9L1048.3 573.0Q1047.3 573.1 1046.8 573.5Q1046.3 573.9 1046.3 574.6L1046.3 574.6Q1046.3 575.3 1046.8 575.7Q1047.3 576.1 1048.2 576.1ZM1058.0 577.8Q1057.6 578.2 1057.0 578.2Q1056.4 578.2 1056.1 577.8Q1055.7 577.4 1055.7 576.8L1055.7 576.8L1055.7 567.7Q1055.7 567.1 1056.1 566.7Q1056.4 566.3 1057.0 566.3Q1057.6 566.3 1057.9 566.7Q1058.3 567.1 1058.3 567.7L1058.3 567.7L1058.3 568.5L1058.4 568.5Q1059.3 566.3 1061.9 566.3L1061.9 566.3Q1063.8 566.3 1064.8 567.5Q1065.9 568.6 1065.9 570.6L1065.9 570.6L1065.9 576.8Q1065.9 577.4 1065.5 577.8Q1065.1 578.2 1064.5 578.2Q1063.9 578.2 1063.6 577.8Q1063.2 577.4 1063.2 576.8L1063.2 576.8L1063.2 571.1Q1063.2 569.9 1062.6 569.3Q1062.0 568.6 1060.9 568.6L1060.9 568.6Q1059.8 568.6 1059.1 569.4Q1058.4 570.1 1058.4 571.4L1058.4 571.4L1058.4 576.8Q1058.4 577.4 1058.0 577.8ZM1072.2 578.1L1072.2 578.1Q1070.1 578.1 1068.8 576.5Q1067.5 575.0 1067.5 572.2L1067.5 572.2Q1067.5 569.5 1068.8 568.0Q1070.1 566.4 1072.2 566.4L1072.2 566.4Q1073.5 566.4 1074.4 566.9Q1075.3 567.5 1075.8 568.5L1075.8 568.5L1075.8 568.5L1075.8 563.6Q1075.8 563.0 1076.2 562.6Q1076.6 562.2 1077.2 562.2Q1077.8 562.2 1078.1 562.6Q1078.5 563.0 1078.5 563.6L1078.5 563.6L1078.5 576.8Q1078.5 577.5 1078.1 577.8Q1077.8 578.2 1077.2 578.2L1077.2 578.2Q1076.6 578.2 1076.2 577.8Q1075.8 577.5 1075.8 576.8L1075.8 576.8L1075.8 575.9L1075.8 575.9Q1075.4 576.9 1074.4 577.5Q1073.5 578.1 1072.2 578.1ZM1073.1 575.9L1073.1 575.9Q1074.3 575.9 1075.1 574.9Q1075.8 573.9 1075.8 572.3L1075.8 572.3Q1075.8 570.6 1075.1 569.6Q1074.3 568.6 1073.1 568.6L1073.1 568.6Q1071.8 568.6 1071.0 569.6Q1070.3 570.6 1070.3 572.3L1070.3 572.3Q1070.3 574.0 1071.0 575.0Q1071.8 575.9 1073.1 575.9Z M1094.1 577.9L1086.8 577.9Q1086.2 577.9 1085.8 577.6Q1085.4 577.2 1085.4 576.5L1085.4 576.5L1085.4 563.7Q1085.4 563.0 1085.8 562.6Q1086.2 562.3 1086.8 562.3L1086.8 562.3Q1087.5 562.3 1087.8 562.6Q1088.2 563.0 1088.2 563.7L1088.2 563.7L1088.2 575.6L1094.1 575.6Q1094.7 575.6 1095.1 575.9Q1095.4 576.2 1095.4 576.8Q1095.4 577.3 1095.1 577.6Q1094.7 577.9 1094.1 577.9L1094.1 577.9ZM1102.0 578.2L1102.0 578.2Q1099.4 578.2 1097.9 576.6Q1096.5 575.1 1096.5 572.3L1096.5 572.3Q1096.5 569.6 1097.9 567.9Q1099.4 566.3 1101.9 566.3L1101.9 566.3Q1104.2 566.3 1105.6 567.8Q1107.1 569.3 1107.1 571.6L1107.1 571.6Q1107.1 572.2 1106.8 572.6Q1106.5 572.9 1105.9 572.9L1105.9 572.9L1099.1 572.9L1099.1 573.0Q1099.1 574.4 1099.9 575.3Q1100.7 576.1 1102.0 576.1L1102.0 576.1Q1102.9 576.1 1103.5 575.8Q1104.2 575.4 1104.8 574.6L1104.8 574.6Q1105.2 574.2 1105.7 574.2L1105.7 574.2Q1106.2 574.2 1106.5 574.4Q1106.8 574.7 1106.8 575.2L1106.8 575.2Q1106.8 575.5 1106.6 575.9L1106.6 575.9Q1106.1 577.0 1104.8 577.6Q1103.6 578.2 1102.0 578.2ZM1099.2 571.1L1099.2 571.1L1104.5 571.1Q1104.4 569.9 1103.7 569.1Q1103.0 568.4 1101.9 568.4Q1100.7 568.4 1100.0 569.2Q1099.2 569.9 1099.2 571.1ZM1113.9 578.2L1113.9 578.2Q1111.3 578.2 1109.8 576.6Q1108.4 575.1 1108.4 572.3L1108.4 572.3Q1108.4 569.6 1109.8 567.9Q1111.3 566.3 1113.7 566.3L1113.7 566.3Q1116.1 566.3 1117.5 567.8Q1119.0 569.3 1119.0 571.6L1119.0 571.6Q1119.0 572.2 1118.6 572.6Q1118.3 572.9 1117.7 572.9L1117.7 572.9L1111.0 572.9L1111.0 573.0Q1111.0 574.4 1111.8 575.3Q1112.6 576.1 1113.9 576.1L1113.9 576.1Q1114.8 576.1 1115.4 575.8Q1116.1 575.4 1116.7 574.6L1116.7 574.6Q1117.1 574.2 1117.6 574.2L1117.6 574.2Q1118.1 574.2 1118.4 574.4Q1118.7 574.7 1118.7 575.2L1118.7 575.2Q1118.7 575.5 1118.5 575.9L1118.5 575.9Q1117.9 577.0 1116.7 577.6Q1115.5 578.2 1113.9 578.2ZM1111.0 571.1L1111.0 571.1L1116.4 571.1Q1116.3 569.9 1115.6 569.1Q1114.9 568.4 1113.7 568.4Q1112.6 568.4 1111.9 569.2Q1111.1 569.9 1111.0 571.1ZM1122.6 575.2L1122.6 575.2Q1123.1 575.2 1123.4 575.5Q1123.8 575.8 1123.8 576.3L1123.8 576.3Q1123.8 576.6 1123.7 576.9L1123.7 576.9L1122.8 580.6Q1122.7 581.1 1122.4 581.3Q1122.1 581.5 1121.7 581.5Q1121.2 581.5 1120.9 581.2Q1120.7 581.0 1120.7 580.5L1120.7 580.5Q1120.7 580.4 1120.7 580.3L1120.7 580.3L1121.3 576.3Q1121.5 575.2 1122.6 575.2Z M1138 578.2L1138 578.2Q1134.6 578.2 1132.7 576.1Q1130.8 573.9 1130.8 570.2L1130.8 570.2Q1130.8 566.5 1132.7 564.3Q1134.6 562.2 1137.9 562.2L1137.9 562.2Q1140.1 562.2 1141.7 563.1Q1143.3 564.1 1144.1 565.8L1144.1 565.8Q1144.4 566.3 1144.4 566.8L1144.4 566.8Q1144.4 567.4 1144.0 567.7Q1143.7 568.1 1143.1 568.1L1143.1 568.1Q1142.2 568.1 1141.8 567.1L1141.8 567.1Q1141.2 565.8 1140.2 565.2Q1139.2 564.5 1138.0 564.5L1138.0 564.5Q1136.0 564.5 1134.8 566.1Q1133.6 567.6 1133.6 570.2L1133.6 570.2Q1133.6 572.8 1134.8 574.3Q1136.0 575.9 1138.0 575.9L1138.0 575.9Q1140.8 575.9 1141.8 573.4L1141.8 573.4Q1142.0 573.0 1142.3 572.8Q1142.6 572.6 1143.1 572.6L1143.1 572.6Q1143.6 572.6 1144.0 572.9Q1144.3 573.2 1144.3 573.8L1144.3 573.8Q1144.3 574.3 1144.1 574.8L1144.1 574.8Q1143.3 576.4 1141.7 577.3Q1140.2 578.2 1138 578.2ZM1148.3 578.1L1148.3 578.1Q1147.7 578.1 1147.2 577.6Q1146.8 577.2 1146.8 576.5L1146.8 576.5Q1146.8 575.9 1147.2 575.4Q1147.7 575.0 1148.3 575.0L1148.3 575.0Q1149.0 575.0 1149.4 575.4Q1149.9 575.9 1149.9 576.5L1149.9 576.5Q1149.9 577.2 1149.4 577.6Q1149.0 578.1 1148.3 578.1Z " clip-path="url(#satori_cp-id-0)" mask="url(#satori_om-id-0)"/></svg>