<svg width="1200" height="630" viewBox="0 0 1200 630" xmlns="http://www.w3.org/2000/svg"><mask id="satori_om-id"><rect x="0" y="0" width="1200" height="630" fill="#fff"/></mask><defs><pattern id="satori_pattern_id-0_0" x="0" y="0" width="1" height="1" patternUnits="objectBoundingBox"><linearGradient id="satori_biid-0_0" x1="-0.09774620284174435" y1="0.18618324350808482" x2="1.0977462028417444" y2="0.8138167564919152" spreadMethod="pad"><stop offset="0%" stop-color="#f8fafc"/><stop offset="50%" stop-color="#eef2ff"/><stop offset="100%" stop-color="#ffffff"/></linearGradient><rect x="0" y="0" width="1200" height="630" fill="url(#satori_biid-0_0)"/></pattern></defs><clipPath id="satori_cp-id-0"><rect x="0" y="0" width="1200" height="630"/></clipPath><mask id="satori_om-id-0"><rect x="0" y="0" width="1200" height="630" fill="#fff"/></mask><rect x="0" y="0" width="1200" height="630" fill="url(#satori_pattern_id-0_0)"/><mask id="satori_om-id-0-0"><rect x="0" y="0" width="1200" height="509" fill="#fff" mask="url(#satori_om-id-0)"/></mask><mask id="satori_om-id-0-0-0"><rect x="72" y="72" width="1056" height="365" fill="#fff" mask="url(#satori_om-id-0)"/></mask><mask id="satori_om-id-0-0-0-0"><rect x="72" y="113" width="1056" height="38" fill="#fff" mask="url(#satori_om-id-0)"/></mask><path fill="#64748b" d="M81.7 143.3Q81.2 143.7 80.4 143.7Q79.6 143.7 79.1 143.3Q78.7 142.9 78.4 142.0L78.4 142.0L73.2 123.3Q73.0 122.7 73.0 122.3L73.0 122.3Q73.0 121.5 73.5 121.1Q74.0 120.7 74.7 120.7L74.7 120.7Q76.1 120.7 76.4 122.1L76.4 122.1L80.5 138.6L80.6 138.6L85.0 122.4Q85.3 121.5 85.8 121.1Q86.2 120.7 87.0 120.7L87.0 120.7Q87.8 120.7 88.3 121.1Q88.8 121.5 89 122.4L89 122.4L93.4 138.6L93.5 138.6L97.6 122.1Q97.9 120.7 99.3 120.7L99.3 120.7Q100.1 120.7 100.6 121.1Q101.0 121.5 101.0 122.3L101.0 122.3Q101.0 122.7 100.9 123.3L100.9 123.3L95.6 142Q95.4 142.9 94.9 143.3Q94.4 143.7 93.6 143.7L93.6 143.7Q92.8 143.7 92.3 143.3Q91.9 142.9 91.6 142L91.6 142L87.1 126.5L86.9 126.5L82.5 142Q82.2 142.9 81.7 143.3ZM110.8 143.8L110.8 143.8Q107.1 143.8 105.1 141.5Q103.0 139.3 103.0 135.3L103.0 135.3Q103.0 131.4 105.1 129.1Q107.1 126.7 110.6 126.7L110.6 126.7Q113.9 126.7 115.9 128.9Q118 131 118 134.4L118 134.4Q118 135.2 117.6 135.6Q117.1 136.1 116.3 136.1L116.3 136.1L106.4 136.1L106.4 136.2Q106.4 138.4 107.6 139.7Q108.8 141.0 110.8 141.0L110.8 141.0Q112.1 141.0 113.1 140.5Q114.1 140.0 115.0 138.7L115.0 138.7Q115.5 138.1 116.2 138.1L116.2 138.1Q116.8 138.1 117.2 138.5Q117.6 138.9 117.6 139.5L117.6 139.5Q117.6 139.8 117.4 140.4L117.4 140.4Q116.6 142 114.9 142.9Q113.1 143.8 110.8 143.8ZM106.4 133.7L106.4 133.7L114.6 133.7Q114.6 131.8 113.5 130.6Q112.4 129.5 110.6 129.5L110.6 129.5Q108.8 129.5 107.7 130.6Q106.5 131.8 106.4 133.7ZM126.8 143.8L126.8 143.8Q123.7 143.8 121.8 141.4Q119.9 139.1 119.9 135.3Q119.9 131.4 121.8 129.1Q123.6 126.8 126.8 126.8L126.8 126.8Q128.5 126.8 129.8 127.6Q131.2 128.4 131.9 129.8L131.9 129.8L132.0 129.8L132.0 122.4Q132.0 121.6 132.4 121.1Q132.9 120.6 133.7 120.6L133.7 120.6Q134.4 120.6 134.9 121.1Q135.4 121.6 135.4 122.4L135.4 122.4L135.4 142.1Q135.4 142.9 134.9 143.3Q134.4 143.8 133.7 143.8L133.7 143.8Q133.0 143.8 132.5 143.3Q132.0 142.9 132.0 142.1L132.0 142.1L132.0 140.5L131.9 140.5Q131.3 142.0 130.0 142.9Q128.6 143.8 126.8 143.8ZM127.7 140.9L127.7 140.9Q129.6 140.9 130.8 139.4Q132 137.8 132 135.3L132 135.3Q132 132.7 130.8 131.2Q129.6 129.6 127.7 129.6L127.7 129.6Q125.7 129.6 124.5 131.1Q123.3 132.7 123.3 135.3L123.3 135.3Q123.3 137.9 124.5 139.4Q125.7 140.9 127.7 140.9ZM140.5 143.8L140.5 143.8Q139.7 143.8 139.3 143.3Q138.8 142.8 138.8 142.0L138.8 142.0L138.8 128.4Q138.8 127.7 139.3 127.2Q139.7 126.7 140.4 126.7Q141.2 126.7 141.6 127.2Q142.1 127.7 142.1 128.5L142.1 128.5L142.1 129.8L142.1 129.8Q143.6 126.8 147.3 126.8L147.3 126.8Q150.0 126.8 151.5 128.4Q153.0 130.0 153.0 132.8L153.0 132.8L153.0 142.0Q153.0 142.8 152.5 143.3Q152.0 143.8 151.3 143.8L151.3 143.8Q150.5 143.8 150.1 143.3Q149.6 142.8 149.6 142.0L149.6 142.0L149.6 133.5Q149.6 131.6 148.7 130.6Q147.8 129.7 146.1 129.7L146.1 129.7Q144.3 129.7 143.3 130.8Q142.2 132.0 142.2 133.9L142.2 133.9L142.2 142.0Q142.2 142.8 141.7 143.3Q141.3 143.8 140.5 143.8ZM163.4 143.8L163.4 143.8Q159.6 143.8 157.6 141.5Q155.5 139.3 155.5 135.3L155.5 135.3Q155.5 131.4 157.6 129.1Q159.6 126.7 163.1 126.7L163.1 126.7Q166.4 126.7 168.5 128.9Q170.5 131 170.5 134.4L170.5 134.4Q170.5 135.2 170.1 135.6Q169.6 136.1 168.8 136.1L168.8 136.1L158.9 136.1L158.9 136.2Q158.9 138.4 160.1 139.7Q161.3 141.0 163.3 141.0L163.3 141.0Q164.7 141.0 165.6 140.5Q166.6 140.0 167.5 138.7L167.5 138.7Q168.0 138.1 168.7 138.1L168.7 138.1Q169.3 138.1 169.7 138.5Q170.1 138.9 170.1 139.5L170.1 139.5Q170.1 139.8 169.9 140.4L169.9 140.4Q169.1 142 167.4 142.9Q165.7 143.8 163.4 143.8ZM158.9 133.7L158.9 133.7L167.1 133.7Q167.1 131.8 166.0 130.6Q164.9 129.5 163.1 129.5L163.1 129.5Q161.4 129.5 160.2 130.6Q159.0 131.8 158.9 133.7ZM179.2 143.8L179.2 143.8Q176.8 143.8 175.1 142.9Q173.4 142.0 172.8 140.4L172.8 140.4Q172.7 140.1 172.7 139.7L172.7 139.7Q172.7 139.1 173.1 138.8Q173.5 138.4 174.1 138.4L174.1 138.4Q175.0 138.4 175.6 139.3L175.6 139.3Q176.2 140.3 177.1 140.8Q177.9 141.2 179.4 141.2L179.4 141.2Q180.8 141.2 181.7 140.6Q182.6 140.0 182.6 139.0L182.6 139.0Q182.6 138.2 182.0 137.7Q181.5 137.3 180.2 136.9L180.2 136.9L177.6 136.3Q172.8 135.2 172.8 131.7L172.8 131.7Q172.8 129.4 174.6 128.1Q176.4 126.7 179.3 126.7L179.3 126.7Q181.5 126.7 183.2 127.7Q184.8 128.7 185.2 130.2L185.2 130.2Q185.3 130.6 185.3 130.7L185.3 130.7Q185.3 131.3 184.9 131.6Q184.6 131.9 183.9 131.9L183.9 131.9Q183.0 131.9 182.6 131.2L182.6 131.2Q182.0 130.3 181.2 129.8Q180.4 129.3 179.2 129.3L179.2 129.3Q177.8 129.3 177.0 129.9Q176.1 130.5 176.1 131.5L176.1 131.5Q176.1 133.0 178.7 133.6L178.7 133.6L181.2 134.2Q183.8 134.8 184.9 135.9Q186.0 136.9 186.0 138.7L186.0 138.7Q186.0 141.0 184.1 142.4Q182.2 143.8 179.2 143.8ZM194.8 143.8L194.8 143.8Q191.6 143.8 189.8 141.4Q187.9 139.1 187.9 135.3Q187.9 131.4 189.7 129.1Q191.6 126.8 194.7 126.8L194.7 126.8Q196.5 126.8 197.8 127.6Q199.2 128.4 199.9 129.8L199.9 129.8L200.0 129.8L200.0 122.4Q200.0 121.6 200.4 121.1Q200.9 120.6 201.7 120.6L201.7 120.6Q202.4 120.6 202.9 121.1Q203.3 121.6 203.3 122.4L203.3 122.4L203.3 142.1Q203.3 142.9 202.9 143.3Q202.4 143.8 201.7 143.8L201.7 143.8Q200.9 143.8 200.4 143.3Q200.0 142.9 200.0 142.1L200.0 142.1L200.0 140.5L199.9 140.5Q199.3 142.0 197.9 142.9Q196.6 143.8 194.8 143.8ZM195.7 140.9L195.7 140.9Q197.6 140.9 198.8 139.4Q200.0 137.8 200.0 135.3L200.0 135.3Q200.0 132.7 198.8 131.2Q197.6 129.6 195.7 129.6L195.7 129.6Q193.7 129.6 192.5 131.1Q191.3 132.7 191.3 135.3L191.3 135.3Q191.3 137.9 192.5 139.4Q193.7 140.9 195.7 140.9ZM211.6 143.8L211.6 143.8Q209.2 143.8 207.7 142.4Q206.1 141 206.1 138.8L206.1 138.8Q206.1 136.6 207.7 135.4Q209.3 134.1 212.2 133.9L212.2 133.9L216.8 133.7L216.8 132.4Q216.8 131.0 215.9 130.3Q215 129.5 213.5 129.5L213.5 129.5Q212.2 129.5 211.4 130.0Q210.5 130.5 209.8 131.6L209.8 131.6Q209.3 132.3 208.4 132.3L208.4 132.3Q207.8 132.3 207.4 131.9Q207.0 131.5 207.0 130.9L207.0 130.9Q207.0 130.3 207.3 129.8L207.3 129.8Q207.9 128.4 209.6 127.6Q211.4 126.7 213.6 126.7L213.6 126.7Q216.6 126.7 218.3 128.2Q220.1 129.7 220.1 132.1L220.1 132.1L220.1 142.1Q220.1 142.8 219.7 143.3Q219.2 143.8 218.5 143.8L218.5 143.8Q217.8 143.8 217.3 143.3Q216.9 142.9 216.9 142.2L216.9 142.2L216.9 140.8L216.8 140.8Q216.1 142.1 214.7 142.9Q213.2 143.8 211.6 143.8ZM212.5 141.1L212.5 141.1Q214.3 141.1 215.5 140.0Q216.8 138.9 216.8 137.3L216.8 137.3L216.8 136.0L212.7 136.3Q211.2 136.4 210.4 137.0Q209.5 137.6 209.5 138.7L209.5 138.7Q209.5 139.8 210.4 140.4Q211.2 141.1 212.5 141.1ZM225.4 149.6L225.4 149.6Q224.2 149.6 223.6 149.2Q223.0 148.8 223.0 148.0L223.0 148.0Q223.0 147.4 223.3 147.1Q223.7 146.8 224.3 146.8L224.3 146.8Q224.5 146.8 224.7 146.8Q225.0 146.8 225.2 146.8L225.2 146.8Q226.9 146.8 227.7 144.6L227.7 144.6L228.0 143.6L222.5 129.3Q222.3 128.7 222.3 128.3L222.3 128.3Q222.3 127.6 222.8 127.2Q223.3 126.7 224.0 126.7L224.0 126.7Q224.7 126.7 225.0 127.0Q225.4 127.3 225.6 128.0L225.6 128.0L229.8 140.4L229.9 140.4L234.1 128.0Q234.3 127.3 234.7 127.0Q235.0 126.7 235.7 126.7L235.7 126.7Q236.4 126.7 236.9 127.2Q237.3 127.6 237.3 128.3L237.3 128.3Q237.3 128.7 237.2 129.2L237.2 129.2L231.5 144.3Q230.4 147.3 229.0 148.4Q227.7 149.6 225.4 149.6ZM242.1 139.7L242.1 139.7Q242.8 139.7 243.2 140.0Q243.7 140.4 243.7 141.1L243.7 141.1Q243.7 141.5 243.6 142.0L243.6 142.0L242.2 147.3Q241.9 148.5 240.8 148.5L240.8 148.5Q240.2 148.5 239.8 148.1Q239.4 147.8 239.4 147.3L239.4 147.3Q239.4 147.1 239.5 146.9L239.5 146.9L240.5 141.1Q240.7 139.7 242.1 139.7Z M268.6 143.5L256.1 143.5Q255.4 143.5 254.9 143.1Q254.5 142.7 254.5 142L254.5 142Q254.5 141.5 254.7 141.1Q254.9 140.8 255.5 140.2L255.5 140.2L262.5 133.0Q264.7 130.8 265.4 129.6Q266.2 128.4 266.2 127.1L266.2 127.1Q266.2 125.5 265.0 124.4Q263.9 123.4 262.2 123.4L262.2 123.4Q258.9 123.4 257.7 126.7L257.7 126.7Q257.5 127.3 257.1 127.6Q256.7 127.9 256.1 127.9L256.1 127.9Q255.4 127.9 255.0 127.5Q254.6 127.0 254.6 126.4L254.6 126.4Q254.6 126 254.7 125.6L254.7 125.6Q254.9 124.7 255.4 123.8Q256.0 122.9 257.0 122.2Q257.9 121.4 259.3 121.0Q260.6 120.5 262.3 120.5L262.3 120.5Q265.5 120.5 267.5 122.3Q269.6 124.1 269.6 126.9L269.6 126.9Q269.6 128.8 268.6 130.5Q267.5 132.1 264.6 135.0L264.6 135.0L259.2 140.4L259.2 140.5L268.6 140.5Q269.3 140.5 269.7 140.9Q270.1 141.3 270.1 142L270.1 142Q270.1 142.7 269.7 143.1Q269.3 143.5 268.6 143.5L268.6 143.5ZM281.1 143.9L281.1 143.9Q278.6 143.9 276.6 142.8Q274.6 141.6 273.8 139.8L273.8 139.8Q273.4 139.0 273.4 138.2L273.4 138.2Q273.4 137.5 273.8 137.1Q274.3 136.7 275.0 136.7L275.0 136.7Q275.5 136.7 275.9 137.0Q276.3 137.2 276.5 137.8L276.5 137.8Q277.1 139.3 278.3 140.1Q279.5 141.0 281.2 141.0L281.2 141.0Q283.3 141.0 284.7 139.6Q286 138.3 286 136.1L286 136.1Q286 134.0 284.6 132.7Q283.3 131.4 281.2 131.4L281.2 131.4Q278.9 131.4 277.5 132.9L277.5 132.9Q276.8 133.6 276.4 133.9Q276 134.1 275.4 134.1L275.4 134.1Q274.6 134.1 274.1 133.6Q273.7 133.0 273.7 132.3L273.7 132.3L273.7 132.0L274.5 123.3Q274.6 122.0 275.2 121.5Q275.9 120.9 277.2 120.9L277.2 120.9L286.8 120.9Q287.5 120.9 287.9 121.3Q288.3 121.7 288.3 122.4Q288.3 123.1 287.9 123.5Q287.5 123.9 286.8 123.9L286.8 123.9L277.5 123.9L276.9 130.9L276.9 130.9Q277.7 129.8 279.0 129.2Q280.3 128.6 282 128.6L282 128.6Q285.3 128.6 287.3 130.7Q289.4 132.8 289.4 136.0L289.4 136.0Q289.4 139.5 287.1 141.7Q284.8 143.9 281.1 143.9Z M316.5 140.7Q313.7 143.8 308.8 143.8Q304.0 143.8 301.1 140.7Q298.3 137.6 298.3 132.2Q298.3 126.8 301.1 123.7Q304.0 120.5 308.8 120.5L308.8 120.5Q313.7 120.5 316.5 123.7Q319.4 126.8 319.4 132.2Q319.4 137.6 316.5 140.7ZM308.8 140.8L308.8 140.8Q312.0 140.8 313.9 138.5Q315.8 136.1 315.8 132.2L315.8 132.2Q315.8 128.3 313.9 125.9Q312.0 123.6 308.8 123.6L308.8 123.6Q305.6 123.6 303.7 125.9Q301.8 128.3 301.8 132.2L301.8 132.2Q301.8 136.1 303.7 138.5Q305.6 140.8 308.8 140.8ZM329.3 143.8L329.3 143.8Q325.8 143.8 323.7 141.5Q321.6 139.2 321.6 135.3L321.6 135.3Q321.6 131.4 323.7 129.1Q325.8 126.7 329.3 126.7L329.3 126.7Q331.7 126.7 333.5 127.9Q335.4 129.0 335.9 130.7L335.9 130.7Q336.1 131.2 336.1 131.5L336.1 131.5Q336.1 132.1 335.7 132.5Q335.3 132.9 334.6 132.9L334.6 132.9Q334.1 132.9 333.8 132.7Q333.4 132.4 333.1 131.9L333.1 131.9Q332.5 130.7 331.6 130.1Q330.7 129.5 329.4 129.5L329.4 129.5Q327.4 129.5 326.2 131.1Q325.0 132.6 325.0 135.3L325.0 135.3Q325.0 137.9 326.2 139.4Q327.4 141.0 329.4 141.0L329.4 141.0Q331.9 141.0 333.1 138.7L333.1 138.7Q333.5 138.1 333.8 137.9Q334.1 137.6 334.7 137.6L334.7 137.6Q335.3 137.6 335.7 138.0Q336.1 138.4 336.1 139.0L336.1 139.0Q336.1 139.4 335.9 139.9L335.9 139.9Q335.3 141.6 333.5 142.7Q331.6 143.8 329.3 143.8ZM339.8 139.5L339.8 139.5L339.8 129.7L338.6 129.7Q338.0 129.7 337.6 129.4Q337.2 129 337.2 128.4Q337.2 127.8 337.6 127.4Q338.0 127.0 338.6 127.0L338.6 127.0L339.8 127.0L339.8 124.6Q339.8 123.8 340.3 123.3Q340.8 122.8 341.5 122.8Q342.3 122.8 342.8 123.3Q343.2 123.8 343.2 124.6L343.2 124.6L343.2 127.0L345.1 127.0Q345.8 127.0 346.2 127.4Q346.5 127.8 346.5 128.4Q346.5 129 346.2 129.4Q345.8 129.7 345.1 129.7L345.1 129.7L343.2 129.7L343.2 138.8Q343.2 139.8 343.6 140.3Q344.0 140.7 344.9 140.8L344.9 140.8L345.2 140.8Q346.6 140.9 346.6 142.1L346.6 142.1Q346.6 143.6 344.2 143.6L344.2 143.6L344 143.6Q339.8 143.6 339.8 139.5ZM361.8 141.5Q359.7 143.8 356.2 143.8Q352.6 143.8 350.5 141.5Q348.4 139.2 348.4 135.3L348.4 135.3Q348.4 131.3 350.5 129.0Q352.6 126.7 356.2 126.7Q359.7 126.7 361.8 129.0Q364.0 131.3 364.0 135.3L364.0 135.3Q364.0 139.2 361.8 141.5ZM356.2 141L356.2 141Q358.2 141 359.4 139.5Q360.5 138.0 360.5 135.3L360.5 135.3Q360.5 132.5 359.4 131.0Q358.2 129.5 356.2 129.5Q354.2 129.5 353.0 131.0Q351.8 132.5 351.8 135.3L351.8 135.3Q351.8 138.0 353.0 139.5Q354.2 141 356.2 141ZM368.3 143.8L368.3 143.8Q367.6 143.8 367.1 143.3Q366.7 142.9 366.7 142.1L366.7 142.1L366.7 122.4Q366.7 121.6 367.2 121.1Q367.6 120.6 368.4 120.6Q369.1 120.6 369.6 121.1Q370.1 121.6 370.1 122.4L370.1 122.4L370.1 129.8L370.2 129.8Q370.9 128.4 372.3 127.6Q373.6 126.8 375.4 126.8L375.4 126.8Q378.5 126.8 380.3 129.1Q382.2 131.4 382.2 135.3L382.2 135.3Q382.2 139.2 380.3 141.5Q378.5 143.8 375.3 143.8L375.3 143.8Q373.6 143.8 372.2 142.9Q370.8 142.1 370.0 140.7L370.0 140.7L370.0 140.7L370.0 142.1Q370.0 142.9 369.5 143.3Q369.1 143.8 368.3 143.8ZM374.4 140.9L374.4 140.9Q376.4 140.9 377.6 139.4Q378.7 137.9 378.7 135.3L378.7 135.3Q378.7 132.7 377.6 131.1Q376.4 129.6 374.4 129.6L374.4 129.6Q372.5 129.6 371.3 131.2Q370.1 132.7 370.1 135.3L370.1 135.3Q370.1 137.8 371.3 139.3Q372.5 140.9 374.4 140.9ZM391.9 143.8L391.9 143.8Q388.2 143.8 386.1 141.5Q384.1 139.3 384.1 135.3L384.1 135.3Q384.1 131.4 386.1 129.1Q388.2 126.7 391.7 126.7L391.7 126.7Q395.0 126.7 397.0 128.9Q399.1 131 399.1 134.4L399.1 134.4Q399.1 135.2 398.6 135.6Q398.2 136.1 397.4 136.1L397.4 136.1L387.5 136.1L387.5 136.2Q387.5 138.4 388.7 139.7Q389.8 141.0 391.9 141.0L391.9 141.0Q393.2 141.0 394.2 140.5Q395.2 140.0 396.1 138.7L396.1 138.7Q396.6 138.1 397.3 138.1L397.3 138.1Q397.9 138.1 398.3 138.5Q398.7 138.9 398.7 139.5L398.7 139.5Q398.7 139.8 398.5 140.4L398.5 140.4Q397.7 142 395.9 142.9Q394.2 143.8 391.9 143.8ZM387.5 133.7L387.5 133.7L395.7 133.7Q395.7 131.8 394.6 130.6Q393.5 129.5 391.7 129.5L391.7 129.5Q389.9 129.5 388.8 130.6Q387.6 131.8 387.5 133.7ZM403.4 143.8L403.4 143.8Q402.6 143.8 402.2 143.3Q401.7 142.8 401.7 142.0L401.7 142.0L401.7 128.4Q401.7 127.7 402.1 127.2Q402.6 126.7 403.3 126.7L403.3 126.7Q404.0 126.7 404.5 127.2Q404.9 127.7 404.9 128.4L404.9 128.4L404.9 129.8L405.0 129.8Q405.3 128.5 406.3 127.6Q407.3 126.8 408.6 126.8L408.6 126.8Q409.5 126.8 409.9 127.2L409.9 127.2Q410.4 127.5 410.4 128.4L410.4 128.4Q410.4 129.1 409.9 129.5L409.9 129.5Q409.4 130.0 408.3 130.0L408.3 130.0Q406.7 130 405.9 131.0Q405.1 132.0 405.1 133.6L405.1 133.6L405.1 142.0Q405.1 142.8 404.6 143.3Q404.1 143.8 403.4 143.8Z M432.8 143.5L420.4 143.5Q419.6 143.5 419.1 143.1Q418.7 142.7 418.7 142L418.7 142Q418.7 141.5 418.9 141.1Q419.1 140.8 419.7 140.2L419.7 140.2L426.7 133.0Q428.9 130.8 429.6 129.6Q430.4 128.4 430.4 127.1L430.4 127.1Q430.4 125.5 429.3 124.4Q428.2 123.4 426.5 123.4L426.5 123.4Q423.1 123.4 421.9 126.7L421.9 126.7Q421.7 127.3 421.3 127.6Q421.0 127.9 420.3 127.9L420.3 127.9Q419.6 127.9 419.2 127.5Q418.8 127.0 418.8 126.4L418.8 126.4Q418.8 126 418.9 125.6L418.9 125.6Q419.1 124.7 419.7 123.8Q420.3 122.9 421.2 122.2Q422.1 121.4 423.5 121.0Q424.9 120.5 426.5 120.5L426.5 120.5Q429.7 120.5 431.8 122.3Q433.8 124.1 433.8 126.9L433.8 126.9Q433.8 128.8 432.8 130.5Q431.7 132.1 428.8 135.0L428.8 135.0L423.5 140.4L423.5 140.5L432.8 140.5Q433.5 140.5 433.9 140.9Q434.4 141.3 434.4 142L434.4 142Q434.4 142.7 433.9 143.1Q433.5 143.5 432.8 143.5L432.8 143.5ZM451.9 140.7Q449.6 143.9 445.5 143.9Q441.5 143.9 439.2 140.7Q436.9 137.6 436.9 132.2L436.9 132.2Q436.9 126.8 439.2 123.6Q441.5 120.5 445.5 120.5L445.5 120.5Q449.6 120.5 451.9 123.6Q454.2 126.8 454.2 132.2L454.2 132.2Q454.2 137.6 451.9 140.7ZM445.5 141.0L445.5 141.0Q448.0 141.0 449.3 138.6Q450.6 136.3 450.6 132.2L450.6 132.2Q450.6 128.1 449.3 125.8Q448.0 123.4 445.5 123.4Q443.1 123.4 441.8 125.8Q440.5 128.1 440.5 132.2L440.5 132.2Q440.5 136.3 441.8 138.6Q443.1 141.0 445.5 141.0ZM471.3 143.5L458.9 143.5Q458.1 143.5 457.6 143.1Q457.2 142.7 457.2 142L457.2 142Q457.2 141.5 457.4 141.1Q457.6 140.8 458.2 140.2L458.2 140.2L465.2 133.0Q467.4 130.8 468.1 129.6Q468.9 128.4 468.9 127.1L468.9 127.1Q468.9 125.5 467.8 124.4Q466.7 123.4 465.0 123.4L465.0 123.4Q461.6 123.4 460.4 126.7L460.4 126.7Q460.2 127.3 459.8 127.6Q459.5 127.9 458.8 127.9L458.8 127.9Q458.1 127.9 457.7 127.5Q457.3 127.0 457.3 126.4L457.3 126.4Q457.3 126 457.4 125.6L457.4 125.6Q457.6 124.7 458.2 123.8Q458.8 122.9 459.7 122.2Q460.6 121.4 462.0 121.0Q463.4 120.5 465.0 120.5L465.0 120.5Q468.2 120.5 470.3 122.3Q472.3 124.1 472.3 126.9L472.3 126.9Q472.3 128.8 471.3 130.5Q470.2 132.1 467.3 135.0L467.3 135.0L462.0 140.4L462.0 140.5L471.3 140.5Q472.0 140.5 472.4 140.9Q472.9 141.3 472.9 142L472.9 142Q472.9 142.7 472.4 143.1Q472.0 143.5 471.3 143.5L471.3 143.5ZM483.7 143.9L483.7 143.9Q481.0 143.9 479.1 142.9Q477.2 141.9 476.2 140.2L476.2 140.2Q475.8 139.3 475.8 138.5L475.8 138.5Q475.8 137.8 476.2 137.4Q476.6 136.9 477.3 136.9L477.3 136.9Q477.9 136.9 478.3 137.2Q478.6 137.5 478.9 138.1L478.9 138.1Q480.1 141.0 483.7 141.0L483.7 141.0Q485.7 141.0 487.0 139.9Q488.3 138.9 488.3 137.2L488.3 137.2Q488.3 135.3 487 134.3Q485.7 133.2 483.4 133.2L483.4 133.2L481.9 133.2Q481.3 133.2 480.9 132.8Q480.5 132.5 480.5 131.8Q480.5 131.2 480.9 130.9Q481.3 130.5 481.9 130.5L481.9 130.5L483.3 130.5Q485.3 130.5 486.5 129.5Q487.7 128.4 487.7 126.9L487.7 126.9Q487.7 125.3 486.6 124.3Q485.6 123.4 483.6 123.4L483.6 123.4Q482.0 123.4 480.9 124.1Q479.9 124.8 479.3 126.2L479.3 126.2Q479.0 126.9 478.7 127.2Q478.3 127.4 477.7 127.4L477.7 127.4Q477.0 127.4 476.6 127.0Q476.2 126.6 476.2 125.9L476.2 125.9Q476.2 125.1 476.6 124.2L476.6 124.2Q477.5 122.5 479.3 121.5Q481.1 120.5 483.6 120.5L483.6 120.5Q487.0 120.5 489.0 122.2Q491.1 123.8 491.1 126.4L491.1 126.4Q491.1 128.4 489.8 129.8Q488.5 131.2 486.3 131.7L486.3 131.7L486.3 131.8Q488.8 132.0 490.3 133.4Q491.8 134.9 491.8 137.2L491.8 137.2Q491.8 140.2 489.5 142.0Q487.2 143.9 483.7 143.9Z " clip-path="url(#satori_cp-id-0)" mask="url(#satori_om-id-0)"/><mask id="satori_om-id-0-0-0-1"><rect x="72" y="175" width="1056" height="221" fill="#fff" mask="url(#satori_om-id-0)"/></mask><path fill="#0f172a" d="M96.1 235.3L96.1 235.3Q85.9 235.3 80.1 229.1Q74.3 222.8 74.3 211.9L74.3 211.9Q74.3 201.1 80.1 194.9Q85.9 188.7 95.8 188.7L95.8 188.7Q102.2 188.7 107.0 191.3Q111.9 194.0 113.8 198.3L113.8 198.3Q114.5 199.7 114.5 201.2L114.5 201.2Q114.5 203.0 113.4 204.1Q112.2 205.2 110.4 205.2L110.4 205.2Q107.5 205.2 105.8 202.5L105.8 202.5Q102.5 196.5 95.9 196.5L95.9 196.5Q90.3 196.5 87.1 200.5Q84.0 204.6 84.0 211.7L84.0 211.7Q84.0 219.1 87.3 223.3Q90.6 227.5 96.2 227.5L96.2 227.5Q100.8 227.5 103.8 224.9Q106.7 222.3 106.8 218.1L106.8 218.1L106.9 217.4L100.3 217.4Q98.6 217.4 97.6 216.5Q96.5 215.6 96.5 214.0Q96.5 212.4 97.6 211.4Q98.6 210.5 100.3 210.5L100.3 210.5L111.3 210.5Q113.6 210.5 114.8 211.8Q116.1 213.1 116.1 215.4L116.1 215.4L116.1 216.1Q116.1 224.9 110.8 230.1Q105.5 235.3 96.1 235.3ZM126.1 235.2L126.1 235.2Q124.0 235.2 122.7 234.0Q121.5 232.7 121.5 230.5L121.5 230.5L121.5 205.0Q121.5 202.8 122.7 201.6Q123.9 200.4 125.9 200.4L125.9 200.4Q127.8 200.4 129.0 201.6Q130.2 202.8 130.2 205.0L130.2 205.0L130.2 207.1L130.4 207.1Q131.1 204.1 133.0 202.3Q134.8 200.5 137.4 200.5L137.4 200.5Q139.2 200.5 140.2 201.4L140.2 201.4Q141.5 202.4 141.5 204.7L141.5 204.7Q141.5 206.9 140.2 208.0L140.2 208.0Q138.9 209.2 136.3 209.2L136.3 209.2Q133.3 209.2 131.9 210.8Q130.6 212.5 130.6 215.6L130.6 215.6L130.6 230.5Q130.6 232.7 129.4 234.0Q128.2 235.2 126.1 235.2ZM172.3 230.6Q167.8 235.3 160.2 235.3Q152.5 235.3 148.0 230.6Q143.6 226.0 143.6 217.8L143.6 217.8Q143.6 209.7 148.1 205.0Q152.6 200.3 160.2 200.3L160.2 200.3Q167.8 200.3 172.3 205.0Q176.8 209.7 176.8 217.8L176.8 217.8Q176.8 226.0 172.3 230.6ZM160.2 228.3L160.2 228.3Q163.5 228.3 165.5 225.6Q167.5 222.8 167.5 217.8L167.5 217.8Q167.5 212.9 165.5 210.1Q163.5 207.3 160.2 207.3Q156.8 207.3 154.8 210.1Q152.8 212.9 152.8 217.8L152.8 217.8Q152.8 222.8 154.8 225.6Q156.8 228.3 160.2 228.3ZM193.3 235.2L193.3 235.2Q187.8 235.2 184.6 231.8Q181.3 228.5 181.3 222.6L181.3 222.6L181.3 205.1Q181.3 202.9 182.5 201.6Q183.8 200.4 185.8 200.4Q187.9 200.4 189.2 201.6Q190.4 202.9 190.4 205.1L190.4 205.1L190.4 220.7Q190.4 224.1 192.0 225.8Q193.6 227.6 196.7 227.6Q199.7 227.6 201.5 225.6Q203.3 223.6 203.3 220.2L203.3 220.2L203.3 205.1Q203.3 202.9 204.5 201.6Q205.8 200.4 207.8 200.4Q209.9 200.4 211.1 201.6Q212.4 202.9 212.4 205.1L212.4 205.1L212.4 230.6Q212.4 232.8 211.2 234.0Q210 235.2 208.0 235.2Q205.9 235.2 204.8 234.0Q203.6 232.8 203.6 230.6L203.6 230.6L203.6 228.5L203.4 228.5Q200.8 235.2 193.3 235.2ZM226.2 234.0Q224.9 235.2 222.9 235.2Q220.8 235.2 219.6 234.0Q218.3 232.7 218.3 230.5L218.3 230.5L218.3 205.0Q218.3 202.8 219.5 201.6Q220.7 200.4 222.7 200.4Q224.8 200.4 226.0 201.6Q227.3 202.9 227.3 205.0L227.3 205.0L227.3 206.9L227.5 206.9Q230.2 200.4 237.8 200.4L237.8 200.4Q243.3 200.4 246.4 203.7Q249.4 207.1 249.4 213.0L249.4 213.0L249.4 230.5Q249.4 232.7 248.2 234.0Q246.9 235.2 244.8 235.2Q242.8 235.2 241.5 234.0Q240.3 232.7 240.3 230.5L240.3 230.5L240.3 214.9Q240.3 211.6 238.7 209.8Q237.2 208.0 234.1 208.0Q231.1 208.0 229.3 210.0Q227.4 212.1 227.4 215.3L227.4 215.3L227.4 230.5Q227.4 232.7 226.2 234.0ZM267.6 235.1L267.6 235.1Q261.3 235.1 257.7 230.4Q254.0 225.8 254.0 217.7L254.0 217.7Q254.0 209.8 257.7 205.1Q261.4 200.5 267.7 200.5L267.7 200.5Q271.3 200.5 274.0 202.2Q276.7 204.0 277.9 206.8L277.9 206.8L278.1 206.8L278.1 193.6Q278.1 191.3 279.3 190.0Q280.6 188.8 282.7 188.8Q284.7 188.8 286.0 190.0Q287.2 191.3 287.2 193.6L287.2 193.6L287.2 230.6Q287.2 232.8 286.0 234.0Q284.8 235.2 282.7 235.2L282.7 235.2Q280.7 235.2 279.4 234.0Q278.1 232.8 278.1 230.6L278.1 230.6L278.1 228.6L277.9 228.6Q276.8 231.6 274.1 233.3Q271.4 235.1 267.6 235.1ZM270.7 227.7L270.7 227.7Q274.1 227.7 276.1 225.1Q278.2 222.4 278.2 217.8L278.2 217.8Q278.2 213.2 276.1 210.5Q274.1 207.8 270.7 207.8L270.7 207.8Q267.3 207.8 265.3 210.5Q263.3 213.2 263.3 217.8L263.3 217.8Q263.3 222.4 265.3 225.1Q267.3 227.7 270.7 227.7ZM301.5 195.5Q300.1 196.9 298.0 196.9Q296.0 196.9 294.6 195.5Q293.2 194.1 293.2 192.2L293.2 192.2Q293.2 190.2 294.6 188.8Q296.0 187.5 298.0 187.5Q300.1 187.5 301.5 188.8Q302.9 190.2 302.9 192.2L302.9 192.2Q302.9 194.1 301.5 195.5ZM301.4 233.9Q300.2 235.2 298.0 235.2Q295.9 235.2 294.7 233.9Q293.5 232.7 293.5 230.5L293.5 230.5L293.5 205.1Q293.5 202.9 294.7 201.6Q295.9 200.4 298.0 200.4Q300.2 200.4 301.4 201.6Q302.6 202.9 302.6 205.1L302.6 205.1L302.6 230.5Q302.6 232.7 301.4 233.9ZM316.5 234.0Q315.3 235.2 313.2 235.2Q311.2 235.2 309.9 234.0Q308.7 232.7 308.7 230.5L308.7 230.5L308.7 205.0Q308.7 202.8 309.8 201.6Q311 200.4 313.1 200.4Q315.1 200.4 316.4 201.6Q317.6 202.9 317.6 205.0L317.6 205.0L317.6 206.9L317.8 206.9Q320.6 200.4 328.1 200.4L328.1 200.4Q333.7 200.4 336.7 203.7Q339.8 207.1 339.8 213.0L339.8 213.0L339.8 230.5Q339.8 232.7 338.5 234.0Q337.3 235.2 335.2 235.2Q333.1 235.2 331.9 234.0Q330.6 232.7 330.6 230.5L330.6 230.5L330.6 214.9Q330.6 211.6 329.1 209.8Q327.5 208.0 324.5 208.0Q321.4 208.0 319.6 210.0Q317.8 212.1 317.8 215.3L317.8 215.3L317.8 230.5Q317.8 232.7 316.5 234.0ZM360.5 247.1L360.5 247.1Q355.5 247.1 351.8 245.4Q348.1 243.7 346.4 241.0L346.4 241.0Q345.7 239.8 345.7 238.5L345.7 238.5Q345.7 237.0 346.7 236.1Q347.8 235.1 349.4 235.1L349.4 235.1Q351.2 235.1 352.6 236.4L352.6 236.4Q356.4 240.1 360.5 240.1L360.5 240.1Q364.2 240.1 366.3 238.2Q368.4 236.4 368.4 233.2L368.4 233.2L368.4 227.8L368.2 227.8Q367.0 230.6 364.3 232.2Q361.5 233.8 357.9 233.8L357.9 233.8Q351.7 233.8 348.0 229.4Q344.3 224.9 344.3 217.2L344.3 217.2Q344.3 209.4 348.0 204.9Q351.6 200.5 358.1 200.5L358.1 200.5Q361.6 200.5 364.3 202.2Q366.9 203.9 368.3 206.8L368.3 206.8L368.5 206.8L368.5 205.0Q368.5 202.7 369.7 201.6Q371 200.4 373.1 200.4L373.1 200.4Q375.1 200.4 376.3 201.6Q377.6 202.7 377.6 205.0L377.6 205.0L377.6 233.2Q377.6 239.8 373.1 243.5Q368.6 247.2 360.5 247.1ZM361 227.1L361 227.1Q364.4 227.1 366.5 224.5Q368.5 221.9 368.5 217.4Q368.5 212.8 366.5 210.1Q364.4 207.5 361 207.5L361 207.5Q357.6 207.5 355.6 210.1Q353.7 212.8 353.7 217.3L353.7 217.3Q353.7 221.9 355.6 224.5Q357.6 227.1 361 227.1Z M417.0 235.3L417.0 235.3Q407 235.3 401.3 229.1Q395.5 222.9 395.5 212.0L395.5 212.0Q395.5 201.1 401.3 194.9Q407 188.7 416.8 188.7L416.8 188.7Q423.1 188.7 427.8 191.4Q432.5 194.1 434.8 198.9L434.8 198.9Q435.8 200.7 435.8 202.5L435.8 202.5Q435.8 204.3 434.6 205.4Q433.5 206.5 431.6 206.5L431.6 206.5Q430.0 206.5 429.0 205.8Q427.9 205.1 427.1 203.4L427.1 203.4Q425.6 200.0 423.0 198.2Q420.3 196.5 416.9 196.5L416.9 196.5Q411.5 196.5 408.3 200.7Q405.2 204.9 405.2 212.0L405.2 212.0Q405.2 219.2 408.3 223.3Q411.5 227.5 416.9 227.5L416.9 227.5Q424.3 227.5 427.3 220.8L427.3 220.8Q428.0 219.2 428.9 218.6Q429.9 217.9 431.4 217.9L431.4 217.9Q433.4 217.9 434.6 219.0Q435.8 220.2 435.8 222.1L435.8 222.1Q435.8 223.5 435.1 225.2L435.1 225.2Q433.0 229.9 428.2 232.6Q423.4 235.3 417.0 235.3ZM469.3 230.6Q464.8 235.3 457.1 235.3Q449.5 235.3 445 230.6Q440.5 226.0 440.5 217.8L440.5 217.8Q440.5 209.7 445.0 205.0Q449.6 200.3 457.1 200.3L457.1 200.3Q464.7 200.3 469.2 205.0Q473.7 209.7 473.7 217.8L473.7 217.8Q473.7 226.0 469.3 230.6ZM457.1 228.3L457.1 228.3Q460.5 228.3 462.5 225.6Q464.4 222.8 464.4 217.8L464.4 217.8Q464.4 212.9 462.5 210.1Q460.5 207.3 457.1 207.3Q453.8 207.3 451.8 210.1Q449.8 212.9 449.8 217.8L449.8 217.8Q449.8 222.8 451.8 225.6Q453.7 228.3 457.1 228.3ZM483.0 235.2L483.0 235.2Q480.9 235.2 479.6 234.0Q478.4 232.7 478.4 230.5L478.4 230.5L478.4 205.0Q478.4 202.8 479.6 201.6Q480.8 200.4 482.8 200.4Q484.8 200.4 486.0 201.6Q487.2 202.8 487.2 205.0L487.2 205.0L487.2 207.1L487.4 207.1Q488.5 204.1 491.0 202.2Q493.6 200.4 497.0 200.4L497.0 200.4Q500.6 200.4 503.0 202.2Q505.5 204.0 506.3 207.3L506.3 207.3L506.5 207.3Q507.6 204.1 510.4 202.3Q513.2 200.4 516.9 200.4L516.9 200.4Q521.8 200.4 524.9 203.5Q527.9 206.6 527.9 211.7L527.9 211.7L527.9 230.5Q527.9 232.7 526.6 234.0Q525.4 235.2 523.3 235.2L523.3 235.2Q521.2 235.2 520.0 234.0Q518.8 232.7 518.8 230.5L518.8 230.5L518.8 214.0Q518.8 211.1 517.3 209.5Q515.9 208.0 513.3 208.0L513.3 208.0Q510.7 208.0 509.1 209.7Q507.5 211.4 507.5 214.2L507.5 214.2L507.5 230.5Q507.5 232.7 506.4 234.0Q505.2 235.2 503.1 235.2L503.1 235.2Q501.1 235.2 499.9 234.0Q498.8 232.7 498.8 230.5L498.8 230.5L498.8 213.7Q498.8 211.0 497.3 209.5Q495.9 208.0 493.3 208.0L493.3 208.0Q490.8 208.0 489.1 209.7Q487.5 211.5 487.5 214.3L487.5 214.3L487.5 230.5Q487.5 232.7 486.3 234.0Q485.0 235.2 483.0 235.2ZM541.5 245.3Q540.3 246.5 538.2 246.5Q536.2 246.5 534.9 245.3Q533.7 244.0 533.7 241.7L533.7 241.7L533.7 205.1Q533.7 202.8 534.9 201.6Q536.1 200.4 538.2 200.4Q540.2 200.4 541.4 201.6Q542.7 202.8 542.7 205.1L542.7 205.1L542.7 206.9L542.8 206.9Q544.2 203.9 546.9 202.2Q549.6 200.5 553.2 200.5L553.2 200.5Q559.6 200.5 563.3 205.1Q566.9 209.7 566.9 217.8L566.9 217.8Q566.9 225.9 563.3 230.5Q559.7 235.1 553.4 235.1L553.4 235.1Q549.8 235.1 547.0 233.4Q544.3 231.8 543.0 228.9L543.0 228.9L542.8 228.9L542.8 241.7Q542.8 244.0 541.5 245.3ZM550.2 227.7L550.2 227.7Q553.6 227.7 555.6 225.1Q557.6 222.4 557.6 217.8Q557.6 213.2 555.6 210.5Q553.6 207.8 550.2 207.8L550.2 207.8Q546.8 207.8 544.8 210.6Q542.8 213.3 542.8 217.8L542.8 217.8Q542.8 222.3 544.8 225.0Q546.8 227.7 550.2 227.7ZM579.7 234.0Q578.5 235.2 576.4 235.2Q574.3 235.2 573.1 234.0Q571.8 232.7 571.8 230.5L571.8 230.5L571.8 193.6Q571.8 191.3 573.1 190.0Q574.3 188.8 576.4 188.8Q578.5 188.8 579.7 190.0Q581.0 191.3 581.0 193.6L581.0 193.6L581.0 230.5Q581.0 232.7 579.7 234.0ZM602.5 235.3L602.5 235.3Q594.7 235.3 590.3 230.7Q585.9 226.1 585.9 218.0L585.9 218.0Q585.9 209.9 590.3 205.1Q594.7 200.3 602.1 200.3L602.1 200.3Q609.2 200.3 613.6 204.7Q618.0 209.1 618.0 215.9L618.0 215.9Q618.0 217.8 616.9 218.9Q615.9 219.9 614 219.9L614 219.9L594.9 219.9L594.9 220.3Q594.9 224.0 597.0 226.3Q599.0 228.5 602.5 228.5L602.5 228.5Q605 228.5 606.8 227.6Q608.7 226.7 610.5 224.5L610.5 224.5Q611.8 223.1 613.5 223.1L613.5 223.1Q615 223.1 616.0 224.1Q617.0 225.0 617.0 226.5L617.0 226.5Q617.0 227.6 616.4 228.7L616.4 228.7Q614.8 231.8 611.1 233.5Q607.4 235.3 602.5 235.3ZM595.0 214.3L595.0 214.3L609.2 214.3Q609.1 211.0 607.1 209.1Q605.2 207.1 602.2 207.1Q599.2 207.1 597.2 209.1Q595.2 211.1 595.0 214.3ZM625.9 235.2L625.9 235.2Q624.1 235.2 623.0 234.2Q621.8 233.1 621.8 231.5L621.8 231.5Q621.8 230.0 623.0 228.4L623.0 228.4L630.9 217.9L623.1 207.2Q622.1 205.9 622.1 204.4L622.1 204.4Q622.1 202.6 623.3 201.5Q624.6 200.4 626.5 200.4L626.5 200.4Q627.8 200.4 628.7 200.9Q629.6 201.5 630.5 203.0L630.5 203.0L636.8 212.4L636.9 212.4L643.1 203.0Q644 201.6 644.8 201.0Q645.7 200.4 646.9 200.4L646.9 200.4Q648.8 200.4 650.0 201.4Q651.2 202.5 651.2 204.2L651.2 204.2Q651.2 205.8 650 207.4L650 207.4L642.3 217.6L650.1 228.4Q651.1 229.7 651.1 231.2L651.1 231.2Q651.1 233.0 649.9 234.1Q648.7 235.2 646.8 235.2L646.8 235.2Q645.5 235.2 644.7 234.7Q643.9 234.1 643.1 232.9L643.1 232.9L636.4 222.9L636.3 222.9L629.7 232.7Q628.8 234.2 628.0 234.7Q627.2 235.2 625.9 235.2Z M677.7 233.9Q676.5 235.1 674.4 235.1Q672.3 235.1 671.1 233.9Q669.9 232.7 669.9 230.4L669.9 230.4L669.9 193.6Q669.9 191.3 671.1 190.1Q672.4 188.8 674.6 188.8L674.6 188.8Q676.1 188.8 677.1 189.5Q678.2 190.1 679.3 191.6L679.3 191.6L698.8 218.8L699.1 218.8L699.1 193.6Q699.1 191.3 700.3 190.1Q701.4 188.8 703.6 188.8L703.6 188.8Q705.7 188.8 706.9 190.1Q708.1 191.3 708.1 193.6L708.1 193.6L708.1 230.6Q708.1 232.8 706.9 234.0Q705.7 235.1 703.5 235.1L703.5 235.1Q701.9 235.1 700.9 234.5Q699.8 233.9 698.8 232.4L698.8 232.4L679.2 205.0L678.9 205.0L678.9 230.4Q678.9 232.7 677.7 233.9ZM724.7 235.1L724.7 235.1Q719.9 235.1 716.7 232.2Q713.5 229.4 713.5 224.9L713.5 224.9Q713.5 220.4 716.9 217.8Q720.3 215.2 726.6 214.8L726.6 214.8L735 214.3L735 212.1Q735 209.8 733.5 208.5Q732.0 207.1 729.4 207.1L729.4 207.1Q727.3 207.1 725.8 207.9Q724.4 208.7 722.9 210.7L722.9 210.7Q721.4 212.4 719.3 212.4L719.3 212.4Q717.6 212.4 716.5 211.4Q715.4 210.4 715.4 208.9L715.4 208.9Q715.4 207.8 715.9 206.8L715.9 206.8Q717.1 203.8 720.8 202.1Q724.6 200.3 729.8 200.3L729.8 200.3Q736.2 200.3 740.1 203.4Q744.0 206.5 744.0 211.5L744.0 211.5L744.0 230.6Q744.0 232.8 742.8 234.0Q741.5 235.2 739.5 235.2L739.5 235.2Q737.6 235.2 736.5 234.2Q735.3 233.1 735.2 231.1L735.2 231.1L735.2 229.4L735.0 229.4Q733.6 232.1 730.8 233.6Q727.9 235.1 724.7 235.1ZM727.7 228.5L727.7 228.5Q730.8 228.5 732.9 226.7Q735 225.0 735 222.3L735 222.3L735 219.8L727.9 220.3Q725.4 220.5 724.0 221.6Q722.6 222.6 722.6 224.4L722.6 224.4Q722.6 226.3 724 227.4Q725.4 228.5 727.7 228.5ZM752.3 226.0L752.3 226.0L752.3 207.9L750.5 207.9Q748.9 207.9 748.0 207.0Q747 206.1 747 204.5Q747 202.9 748.0 202.0Q748.9 201.1 750.5 201.1L750.5 201.1L752.3 201.1L752.3 197.3Q752.3 195.1 753.5 193.8Q754.7 192.6 756.8 192.6Q759.0 192.6 760.2 193.8Q761.4 195.1 761.4 197.3L761.4 197.3L761.4 201.1L764.6 201.1Q766.3 201.1 767.2 202.0Q768.1 202.9 768.1 204.5Q768.1 206.1 767.2 207.0Q766.3 207.9 764.6 207.9L764.6 207.9L761.4 207.9L761.4 224.0Q761.4 225.7 762.1 226.6Q762.7 227.4 764.2 227.5L764.2 227.5L764.8 227.6Q766.5 227.7 767.4 228.5Q768.3 229.3 768.3 230.9L768.3 230.9Q768.3 232.8 766.5 233.9Q764.8 234.9 761.8 234.9L761.8 234.9L761.5 234.9Q752.3 234.9 752.3 226.0ZM784.5 235.2L784.5 235.2Q779 235.2 775.7 231.8Q772.4 228.5 772.4 222.6L772.4 222.6L772.4 205.1Q772.4 202.9 773.7 201.6Q774.9 200.4 777 200.4Q779.1 200.4 780.3 201.6Q781.6 202.9 781.6 205.1L781.6 205.1L781.6 220.7Q781.6 224.1 783.2 225.8Q784.8 227.6 787.8 227.6Q790.8 227.6 792.6 225.6Q794.4 223.6 794.4 220.2L794.4 220.2L794.4 205.1Q794.4 202.9 795.7 201.6Q796.9 200.4 799.0 200.4Q801.0 200.4 802.3 201.6Q803.5 202.9 803.5 205.1L803.5 205.1L803.5 230.6Q803.5 232.8 802.3 234.0Q801.2 235.2 799.1 235.2Q797.1 235.2 795.9 234.0Q794.7 232.8 794.7 230.6L794.7 230.6L794.7 228.5L794.5 228.5Q791.9 235.2 784.5 235.2ZM814.0 235.2L814.0 235.2Q811.9 235.2 810.7 234.0Q809.5 232.7 809.5 230.5L809.5 230.5L809.5 205.0Q809.5 202.8 810.7 201.6Q811.9 200.4 813.9 200.4L813.9 200.4Q815.8 200.4 817 201.6Q818.2 202.8 818.2 205.0L818.2 205.0L818.2 207.1L818.4 207.1Q819.0 204.1 820.9 202.3Q822.8 200.5 825.3 200.5L825.3 200.5Q827.2 200.5 828.2 201.4L828.2 201.4Q829.5 202.4 829.5 204.7L829.5 204.7Q829.5 206.9 828.2 208.0L828.2 208.0Q826.8 209.2 824.2 209.2L824.2 209.2Q821.2 209.2 819.9 210.8Q818.6 212.5 818.6 215.6L818.6 215.6L818.6 230.5Q818.6 232.7 817.4 234.0Q816.2 235.2 814.0 235.2ZM842.7 235.1L842.7 235.1Q837.8 235.1 834.6 232.2Q831.4 229.4 831.4 224.9L831.4 224.9Q831.4 220.4 834.8 217.8Q838.2 215.2 844.5 214.8L844.5 214.8L852.9 214.3L852.9 212.1Q852.9 209.8 851.4 208.5Q849.9 207.1 847.3 207.1L847.3 207.1Q845.2 207.1 843.8 207.9Q842.3 208.7 840.8 210.7L840.8 210.7Q839.3 212.4 837.2 212.4L837.2 212.4Q835.5 212.4 834.5 211.4Q833.4 210.4 833.4 208.9L833.4 208.9Q833.4 207.8 833.8 206.8L833.8 206.8Q835 203.8 838.8 202.1Q842.5 200.3 847.7 200.3L847.7 200.3Q854.2 200.3 858.0 203.4Q861.9 206.5 861.9 211.5L861.9 211.5L861.9 230.6Q861.9 232.8 860.7 234.0Q859.5 235.2 857.5 235.2L857.5 235.2Q855.6 235.2 854.4 234.2Q853.2 233.1 853.1 231.1L853.1 231.1L853.1 229.4L852.9 229.4Q851.5 232.1 848.7 233.6Q845.9 235.1 842.7 235.1ZM845.7 228.5L845.7 228.5Q848.7 228.5 850.8 226.7Q852.9 225.0 852.9 222.3L852.9 222.3L852.9 219.8L845.9 220.3Q843.3 220.5 841.9 221.6Q840.5 222.6 840.5 224.4L840.5 224.4Q840.5 226.3 841.9 227.4Q843.3 228.5 845.7 228.5ZM875.9 234.0Q874.6 235.2 872.6 235.2Q870.5 235.2 869.3 234.0Q868 232.7 868 230.5L868 230.5L868 193.6Q868 191.3 869.3 190.0Q870.5 188.8 872.6 188.8Q874.6 188.8 875.9 190.0Q877.1 191.3 877.1 193.6L877.1 193.6L877.1 230.5Q877.1 232.7 875.9 234.0Z M101.2 308.1L80.5 308.1Q78.3 308.1 77 306.9Q75.8 305.6 75.8 303.2L75.8 303.2L75.8 267.4Q75.8 265.0 77 263.7Q78.3 262.4 80.5 262.4Q82.7 262.4 83.9 263.7Q85.2 265.0 85.2 267.4L85.2 267.4L85.2 300.3L101.2 300.3Q103.1 300.3 104.3 301.4Q105.5 302.4 105.5 304.2Q105.5 306.1 104.3 307.1Q103.2 308.1 101.2 308.1L101.2 308.1ZM119.6 308.7L119.6 308.7Q114.8 308.7 111.6 305.8Q108.4 303.0 108.4 298.5L108.4 298.5Q108.4 294.0 111.8 291.4Q115.2 288.8 121.5 288.4L121.5 288.4L129.9 287.9L129.9 285.7Q129.9 283.4 128.4 282.1Q126.9 280.7 124.3 280.7L124.3 280.7Q122.2 280.7 120.8 281.5Q119.3 282.3 117.8 284.3L117.8 284.3Q116.3 286.0 114.2 286.0L114.2 286.0Q112.5 286.0 111.4 285.0Q110.3 284.0 110.3 282.5L110.3 282.5Q110.3 281.4 110.8 280.4L110.8 280.4Q112.0 277.4 115.7 275.7Q119.5 273.9 124.7 273.9L124.7 273.9Q131.1 273.9 135 277.0Q138.9 280.1 138.9 285.1L138.9 285.1L138.9 304.2Q138.9 306.4 137.7 307.6Q136.4 308.8 134.4 308.8L134.4 308.8Q132.5 308.8 131.4 307.8Q130.2 306.7 130.1 304.7L130.1 304.7L130.1 303.0L129.9 303.0Q128.5 305.6 125.7 307.2Q122.8 308.7 119.6 308.7ZM122.6 302.1L122.6 302.1Q125.7 302.1 127.8 300.3Q129.9 298.6 129.9 295.9L129.9 295.9L129.9 293.4L122.8 293.9Q120.3 294.1 118.9 295.1Q117.5 296.2 117.5 298.0L117.5 298.0Q117.5 299.9 118.9 301.0Q120.3 302.1 122.6 302.1ZM152.6 307.6Q151.4 308.8 149.3 308.8Q147.3 308.8 146 307.6Q144.8 306.3 144.8 304.1L144.8 304.1L144.8 278.6Q144.8 276.4 145.9 275.2Q147.1 274.0 149.2 274.0Q151.2 274.0 152.5 275.2Q153.7 276.5 153.7 278.6L153.7 278.6L153.7 280.5L153.9 280.5Q156.7 274.0 164.2 274.0L164.2 274.0Q169.8 274.0 172.8 277.3Q175.8 280.6 175.8 286.6L175.8 286.6L175.8 304.1Q175.8 306.3 174.6 307.6Q173.3 308.8 171.3 308.8Q169.2 308.8 168.0 307.6Q166.7 306.3 166.7 304.1L166.7 304.1L166.7 288.5Q166.7 285.1 165.2 283.4Q163.6 281.6 160.6 281.6Q157.5 281.6 155.7 283.6Q153.9 285.6 153.9 288.9L153.9 288.9L153.9 304.1Q153.9 306.3 152.6 307.6ZM196.6 320.7L196.6 320.7Q191.6 320.7 187.9 319.0Q184.2 317.3 182.5 314.6L182.5 314.6Q181.8 313.4 181.8 312.1L181.8 312.1Q181.8 310.6 182.8 309.6Q183.8 308.7 185.5 308.7L185.5 308.7Q187.3 308.7 188.7 310.0L188.7 310.0Q192.5 313.6 196.6 313.7L196.6 313.7Q200.3 313.7 202.4 311.8Q204.5 310.0 204.5 306.8L204.5 306.8L204.5 301.4L204.3 301.4Q203.1 304.1 200.4 305.8Q197.6 307.4 194 307.4L194 307.4Q187.8 307.4 184.1 303.0Q180.4 298.5 180.4 290.8L180.4 290.8Q180.4 283.0 184.0 278.5Q187.7 274.1 194.2 274.1L194.2 274.1Q197.7 274.1 200.4 275.8Q203.0 277.5 204.4 280.4L204.4 280.4L204.6 280.4L204.6 278.6Q204.6 276.3 205.8 275.1Q207.1 274.0 209.2 274.0L209.2 274.0Q211.2 274.0 212.4 275.1Q213.7 276.3 213.7 278.6L213.7 278.6L213.7 306.8Q213.7 313.4 209.2 317.1Q204.7 320.8 196.6 320.7ZM197.1 300.6L197.1 300.6Q200.5 300.6 202.6 298.1Q204.6 295.5 204.6 291.0Q204.6 286.4 202.6 283.7Q200.5 281.1 197.1 281.1L197.1 281.1Q193.7 281.1 191.7 283.7Q189.8 286.4 189.8 290.9L189.8 290.9Q189.8 295.5 191.7 298.1Q193.7 300.6 197.1 300.6ZM231.5 308.8L231.5 308.8Q226 308.8 222.7 305.4Q219.4 302.1 219.4 296.2L219.4 296.2L219.4 278.7Q219.4 276.5 220.7 275.2Q221.9 274.0 224 274.0Q226.1 274.0 227.3 275.2Q228.6 276.5 228.6 278.7L228.6 278.7L228.6 294.3Q228.6 297.7 230.2 299.4Q231.8 301.2 234.8 301.2Q237.8 301.2 239.6 299.2Q241.4 297.2 241.4 293.8L241.4 293.8L241.4 278.7Q241.4 276.5 242.7 275.2Q243.9 274.0 246.0 274.0Q248.0 274.0 249.3 275.2Q250.5 276.5 250.5 278.7L250.5 278.7L250.5 304.2Q250.5 306.4 249.3 307.6Q248.2 308.8 246.1 308.8Q244.1 308.8 242.9 307.6Q241.7 306.4 241.7 304.2L241.7 304.2L241.7 302.1L241.5 302.1Q238.9 308.8 231.5 308.8ZM266.4 308.7L266.4 308.7Q261.5 308.7 258.3 305.8Q255.2 303.0 255.2 298.5L255.2 298.5Q255.2 294.0 258.5 291.4Q261.9 288.8 268.2 288.4L268.2 288.4L276.7 287.9L276.7 285.7Q276.7 283.4 275.1 282.1Q273.6 280.7 271.0 280.7L271.0 280.7Q268.9 280.7 267.5 281.5Q266.1 282.3 264.5 284.3L264.5 284.3Q263.0 286.0 260.9 286.0L260.9 286.0Q259.3 286.0 258.2 285.0Q257.1 284.0 257.1 282.5L257.1 282.5Q257.1 281.4 257.6 280.4L257.6 280.4Q258.7 277.4 262.5 275.7Q266.2 273.9 271.4 273.9L271.4 273.9Q277.9 273.9 281.8 277.0Q285.6 280.1 285.6 285.1L285.6 285.1L285.6 304.2Q285.6 306.4 284.4 307.6Q283.2 308.8 281.2 308.8L281.2 308.8Q279.3 308.8 278.1 307.8Q276.9 306.7 276.8 304.7L276.8 304.7L276.8 303.0L276.6 303.0Q275.3 305.6 272.4 307.2Q269.6 308.7 266.4 308.7ZM269.4 302.1L269.4 302.1Q272.4 302.1 274.5 300.3Q276.7 298.6 276.7 295.9L276.7 295.9L276.7 293.4L269.6 293.9Q267.0 294.1 265.6 295.1Q264.3 296.2 264.3 298.0L264.3 298.0Q264.3 299.9 265.7 301.0Q267.1 302.1 269.4 302.1ZM306.5 320.7L306.5 320.7Q301.5 320.7 297.8 319.0Q294.1 317.3 292.4 314.6L292.4 314.6Q291.7 313.4 291.7 312.1L291.7 312.1Q291.7 310.6 292.7 309.6Q293.7 308.7 295.4 308.7L295.4 308.7Q297.1 308.7 298.6 310.0L298.6 310.0Q302.4 313.6 306.4 313.7L306.4 313.7Q310.2 313.7 312.3 311.8Q314.4 310.0 314.4 306.8L314.4 306.8L314.4 301.4L314.2 301.4Q313 304.1 310.2 305.8Q307.5 307.4 303.9 307.4L303.9 307.4Q297.6 307.4 294.0 303.0Q290.3 298.5 290.3 290.8L290.3 290.8Q290.3 283.0 293.9 278.5Q297.6 274.1 304.0 274.1L304.0 274.1Q307.6 274.1 310.2 275.8Q312.9 277.5 314.3 280.4L314.3 280.4L314.4 280.4L314.4 278.6Q314.4 276.3 315.7 275.1Q317.0 274.0 319.0 274.0L319.0 274.0Q321.1 274.0 322.3 275.1Q323.6 276.3 323.6 278.6L323.6 278.6L323.6 306.8Q323.6 313.4 319.0 317.1Q314.5 320.8 306.5 320.7ZM307.0 300.6L307.0 300.6Q310.4 300.6 312.4 298.1Q314.5 295.5 314.5 291.0Q314.5 286.4 312.4 283.7Q310.4 281.1 307.0 281.1L307.0 281.1Q303.6 281.1 301.6 283.7Q299.6 286.4 299.6 290.9L299.6 290.9Q299.6 295.5 301.6 298.1Q303.6 300.6 307.0 300.6ZM344.9 308.9L344.9 308.9Q337.0 308.9 332.6 304.3Q328.3 299.7 328.3 291.6L328.3 291.6Q328.3 283.5 332.6 278.7Q337 273.9 344.4 273.9L344.4 273.9Q351.5 273.9 355.9 278.3Q360.3 282.6 360.3 289.5L360.3 289.5Q360.3 291.4 359.3 292.5Q358.3 293.5 356.3 293.5L356.3 293.5L337.2 293.5L337.2 293.9Q337.2 297.6 339.3 299.9Q341.4 302.1 344.8 302.1L344.8 302.1Q347.3 302.1 349.2 301.2Q351 300.3 352.8 298.1L352.8 298.1Q354.2 296.7 355.8 296.7L355.8 296.7Q357.3 296.7 358.4 297.6Q359.4 298.6 359.4 300.1L359.4 300.1Q359.4 301.1 358.8 302.3L358.8 302.3Q357.1 305.4 353.4 307.1Q349.7 308.9 344.9 308.9ZM337.3 287.9L337.3 287.9L351.5 287.9Q351.4 284.6 349.5 282.6Q347.5 280.7 344.5 280.7Q341.5 280.7 339.5 282.7Q337.6 284.7 337.3 287.9Z M398.5 308.9L398.5 308.9Q388.5 308.9 382.8 302.7Q377.0 296.5 377.0 285.6L377.0 285.6Q377.0 274.7 382.8 268.5Q388.5 262.3 398.3 262.3L398.3 262.3Q404.6 262.3 409.3 265.0Q414.0 267.6 416.3 272.5L416.3 272.5Q417.3 274.3 417.3 276.1L417.3 276.1Q417.3 277.9 416.1 279.0Q415 280.1 413.1 280.1L413.1 280.1Q411.5 280.1 410.5 279.4Q409.4 278.6 408.6 277.0L408.6 277.0Q407.1 273.6 404.5 271.8Q401.8 270.1 398.4 270.1L398.4 270.1Q393.0 270.1 389.8 274.3Q386.7 278.5 386.7 285.6L386.7 285.6Q386.7 292.8 389.8 296.9Q393.0 301.1 398.4 301.1L398.4 301.1Q405.8 301.1 408.8 294.4L408.8 294.4Q409.5 292.8 410.4 292.1Q411.4 291.5 412.9 291.5L412.9 291.5Q414.9 291.5 416.1 292.6Q417.3 293.8 417.3 295.6L417.3 295.6Q417.3 297.1 416.6 298.8L416.6 298.8Q414.5 303.5 409.7 306.2Q404.9 308.9 398.5 308.9ZM450.8 304.2Q446.3 308.9 438.6 308.9Q431.0 308.9 426.5 304.2Q422.0 299.6 422.0 291.4L422.0 291.4Q422.0 283.3 426.5 278.6Q431.1 273.9 438.6 273.9L438.6 273.9Q446.2 273.9 450.7 278.6Q455.2 283.3 455.2 291.4L455.2 291.4Q455.2 299.6 450.8 304.2ZM438.6 301.9L438.6 301.9Q442 301.9 444.0 299.1Q445.9 296.4 445.9 291.4L445.9 291.4Q445.9 286.5 444.0 283.7Q442 280.9 438.6 280.9Q435.3 280.9 433.3 283.7Q431.3 286.5 431.3 291.4L431.3 291.4Q431.3 296.4 433.3 299.1Q435.2 301.9 438.6 301.9ZM464.5 308.8L464.5 308.8Q462.4 308.8 461.1 307.6Q459.9 306.3 459.9 304.1L459.9 304.1L459.9 278.6Q459.9 276.4 461.1 275.2Q462.3 274.0 464.3 274.0Q466.3 274.0 467.5 275.2Q468.7 276.4 468.7 278.6L468.7 278.6L468.7 280.7L468.9 280.7Q470.0 277.6 472.5 275.8Q475.1 274.0 478.5 274.0L478.5 274.0Q482.1 274.0 484.5 275.8Q487.0 277.6 487.8 280.9L487.8 280.9L488 280.9Q489.1 277.7 491.9 275.9Q494.7 274.0 498.4 274.0L498.4 274.0Q503.3 274.0 506.4 277.1Q509.4 280.2 509.4 285.3L509.4 285.3L509.4 304.1Q509.4 306.3 508.1 307.6Q506.9 308.8 504.8 308.8L504.8 308.8Q502.7 308.8 501.5 307.6Q500.3 306.3 500.3 304.1L500.3 304.1L500.3 287.6Q500.3 284.6 498.8 283.1Q497.4 281.6 494.8 281.6L494.8 281.6Q492.2 281.6 490.6 283.3Q489.0 285.0 489.0 287.8L489.0 287.8L489.0 304.1Q489.0 306.3 487.9 307.6Q486.7 308.8 484.6 308.8L484.6 308.8Q482.6 308.8 481.4 307.6Q480.3 306.3 480.3 304.1L480.3 304.1L480.3 287.3Q480.3 284.6 478.8 283.1Q477.4 281.6 474.8 281.6L474.8 281.6Q472.3 281.6 470.6 283.3Q469.0 285.1 469.0 287.9L469.0 287.9L469.0 304.1Q469.0 306.3 467.8 307.6Q466.5 308.8 464.5 308.8ZM519.7 308.8L519.7 308.8Q517.6 308.8 516.4 307.6Q515.2 306.3 515.2 304.1L515.2 304.1L515.2 278.6Q515.2 276.4 516.4 275.2Q517.6 274.0 519.6 274.0Q521.6 274.0 522.8 275.2Q524.0 276.4 524.0 278.6L524.0 278.6L524.0 280.7L524.2 280.7Q525.2 277.6 527.8 275.8Q530.3 274.0 533.7 274.0L533.7 274.0Q537.3 274.0 539.8 275.8Q542.2 277.6 543.1 280.9L543.1 280.9L543.3 280.9Q544.4 277.7 547.2 275.9Q550.0 274.0 553.7 274.0L553.7 274.0Q558.6 274.0 561.6 277.1Q564.6 280.2 564.6 285.3L564.6 285.3L564.6 304.1Q564.6 306.3 563.4 307.6Q562.1 308.8 560.0 308.8L560.0 308.8Q558.0 308.8 556.7 307.6Q555.5 306.3 555.5 304.1L555.5 304.1L555.5 287.6Q555.5 284.6 554.1 283.1Q552.7 281.6 550.0 281.6L550.0 281.6Q547.4 281.6 545.9 283.3Q544.3 285.0 544.3 287.8L544.3 287.8L544.3 304.1Q544.3 306.3 543.1 307.6Q541.9 308.8 539.9 308.8L539.9 308.8Q537.8 308.8 536.7 307.6Q535.5 306.3 535.5 304.1L535.5 304.1L535.5 287.3Q535.5 284.6 534.1 283.1Q532.6 281.6 530.1 281.6L530.1 281.6Q527.5 281.6 525.9 283.3Q524.3 285.1 524.3 287.9L524.3 287.9L524.3 304.1Q524.3 306.3 523.0 307.6Q521.8 308.8 519.7 308.8ZM580.3 308.7L580.3 308.7Q575.5 308.7 572.3 305.8Q569.1 303.0 569.1 298.5L569.1 298.5Q569.1 294.0 572.5 291.4Q575.8 288.8 582.2 288.4L582.2 288.4L590.6 287.9L590.6 285.7Q590.6 283.4 589.1 282.1Q587.6 280.7 585.0 280.7L585.0 280.7Q582.9 280.7 581.4 281.5Q580 282.3 578.5 284.3L578.5 284.3Q577.0 286.0 574.8 286.0L574.8 286.0Q573.2 286.0 572.1 285.0Q571.0 284.0 571.0 282.5L571.0 282.5Q571.0 281.4 571.5 280.4L571.5 280.4Q572.7 277.4 576.4 275.7Q580.2 273.9 585.4 273.9L585.4 273.9Q591.8 273.9 595.7 277.0Q599.6 280.1 599.6 285.1L599.6 285.1L599.6 304.2Q599.6 306.4 598.3 307.6Q597.1 308.8 595.1 308.8L595.1 308.8Q593.2 308.8 592.0 307.8Q590.9 306.7 590.8 304.7L590.8 304.7L590.8 303.0L590.6 303.0Q589.2 305.6 586.4 307.2Q583.5 308.7 580.3 308.7ZM583.3 302.1L583.3 302.1Q586.3 302.1 588.5 300.3Q590.6 298.6 590.6 295.9L590.6 295.9L590.6 293.4L583.5 293.9Q581.0 294.1 579.6 295.1Q578.2 296.2 578.2 298.0L578.2 298.0Q578.2 299.9 579.6 301.0Q581 302.1 583.3 302.1ZM613.3 307.6Q612.1 308.8 610 308.8Q607.9 308.8 606.7 307.6Q605.4 306.3 605.4 304.1L605.4 304.1L605.4 278.6Q605.4 276.4 606.6 275.2Q607.8 274.0 609.8 274.0Q611.9 274.0 613.2 275.2Q614.4 276.5 614.4 278.6L614.4 278.6L614.4 280.5L614.6 280.5Q617.3 274.0 624.9 274.0L624.9 274.0Q630.5 274.0 633.5 277.3Q636.5 280.6 636.5 286.6L636.5 286.6L636.5 304.1Q636.5 306.3 635.3 307.6Q634.0 308.8 632.0 308.8Q629.9 308.8 628.7 307.6Q627.4 306.3 627.4 304.1L627.4 304.1L627.4 288.5Q627.4 285.1 625.8 283.4Q624.3 281.6 621.3 281.6Q618.2 281.6 616.4 283.6Q614.6 285.6 614.6 288.9L614.6 288.9L614.6 304.1Q614.6 306.3 613.3 307.6ZM654.8 308.7L654.8 308.7Q648.5 308.7 644.8 304.0Q641.1 299.4 641.1 291.3L641.1 291.3Q641.1 283.4 644.8 278.7Q648.5 274.1 654.8 274.1L654.8 274.1Q658.4 274.1 661.1 275.8Q663.8 277.6 665.0 280.4L665.0 280.4L665.2 280.4L665.2 267.1Q665.2 264.9 666.5 263.6Q667.7 262.4 669.8 262.4Q671.8 262.4 673.1 263.6Q674.3 264.9 674.3 267.1L674.3 267.1L674.3 304.2Q674.3 306.4 673.1 307.6Q671.9 308.8 669.8 308.8L669.8 308.8Q667.8 308.8 666.5 307.6Q665.2 306.4 665.2 304.2L665.2 304.2L665.2 302.2L665.1 302.2Q663.9 305.1 661.2 306.9Q658.5 308.7 654.8 308.7ZM657.8 301.3L657.8 301.3Q661.3 301.3 663.3 298.7Q665.3 296.0 665.3 291.4L665.3 291.4Q665.3 286.8 663.3 284.1Q661.3 281.4 657.8 281.4L657.8 281.4Q654.4 281.4 652.4 284.1Q650.4 286.8 650.4 291.4L650.4 291.4Q650.4 296.0 652.4 298.7Q654.4 301.3 657.8 301.3ZM694.1 308.9L694.1 308.9Q688.5 308.9 684.7 307.0Q680.9 305.2 679.7 302.2L679.7 302.2Q679.3 301.2 679.3 300.5L679.3 300.5Q679.3 298.9 680.4 298.0Q681.4 297.0 683.0 297.0L683.0 297.0Q685.2 297.0 687 299.1L687 299.1Q688.4 300.8 690.1 301.6Q691.8 302.5 694.3 302.5L694.3 302.5Q696.8 302.5 698.3 301.5Q699.8 300.5 699.8 298.9L699.8 298.9Q699.8 297.5 698.8 296.7Q697.8 295.9 695.3 295.4L695.3 295.4L689.7 294.2Q684.8 293.1 682.3 290.7Q679.8 288.2 679.8 284.5L679.8 284.5Q679.8 279.6 683.7 276.8Q687.6 273.9 694.1 273.9L694.1 273.9Q699.1 273.9 702.7 275.9Q706.3 277.9 707.2 280.9L707.2 280.9Q707.4 281.7 707.4 282.2L707.4 282.2Q707.4 283.6 706.5 284.5Q705.6 285.3 703.9 285.3L703.9 285.3Q701.8 285.3 700.6 283.9L700.6 283.9Q699.2 282.2 697.7 281.3Q696.2 280.3 693.9 280.3L693.9 280.3Q691.6 280.3 690.1 281.3Q688.7 282.3 688.7 284.0L688.7 284.0Q688.7 285.3 689.8 286.2Q690.8 287.1 693.3 287.6L693.3 287.6L698.8 288.8Q704.2 289.9 706.5 292.0Q708.9 294.1 708.9 297.9L708.9 297.9Q708.9 302.9 704.8 305.9Q700.8 308.9 694.1 308.9Z M736.4 307.6Q735.2 308.8 733.1 308.8Q731.0 308.8 729.7 307.6Q728.5 306.4 728.5 304.1L728.5 304.1L728.5 281.5L726.8 281.5Q725.3 281.5 724.3 280.6Q723.4 279.7 723.4 278.1Q723.4 276.6 724.3 275.7Q725.3 274.8 726.8 274.8L726.8 274.8L728.5 274.8L728.5 272.3Q728.5 267.4 730.9 265.0Q733.3 262.7 738.1 262.6L738.1 262.6Q741.6 262.6 743.3 263.6Q744.9 264.6 744.9 266.3L744.9 266.3Q744.9 268.2 743.1 268.7L743.1 268.7Q742.3 269.0 741.3 269.0L741.3 269.0Q739.3 269.1 738.3 269.9Q737.4 270.8 737.4 272.7L737.4 272.7L737.4 274.8L741.3 274.8Q742.7 274.8 743.7 275.7Q744.6 276.6 744.6 278.1Q744.6 279.7 743.7 280.6Q742.7 281.5 741.3 281.5L741.3 281.5L737.6 281.5L737.6 304.1Q737.6 306.4 736.4 307.6ZM776.3 304.2Q771.9 308.9 764.2 308.9Q756.6 308.9 752.1 304.2Q747.6 299.6 747.6 291.4L747.6 291.4Q747.6 283.3 752.1 278.6Q756.7 273.9 764.2 273.9L764.2 273.9Q771.8 273.9 776.3 278.6Q780.8 283.3 780.8 291.4L780.8 291.4Q780.8 299.6 776.3 304.2ZM764.2 301.9L764.2 301.9Q767.6 301.9 769.6 299.1Q771.5 296.4 771.5 291.4L771.5 291.4Q771.5 286.5 769.6 283.7Q767.6 280.9 764.2 280.9Q760.8 280.9 758.9 283.7Q756.9 286.5 756.9 291.4L756.9 291.4Q756.9 296.4 758.8 299.1Q760.8 301.9 764.2 301.9ZM790.1 308.8L790.1 308.8Q788.0 308.8 786.7 307.6Q785.5 306.3 785.5 304.1L785.5 304.1L785.5 278.6Q785.5 276.4 786.7 275.2Q787.9 274.0 789.9 274.0L789.9 274.0Q791.8 274.0 793.0 275.2Q794.2 276.4 794.2 278.6L794.2 278.6L794.2 280.7L794.4 280.7Q795.1 277.6 797.0 275.9Q798.8 274.1 801.4 274.1L801.4 274.1Q803.2 274.1 804.2 275.0L804.2 275.0Q805.5 276.0 805.5 278.3L805.5 278.3Q805.5 280.5 804.2 281.6L804.2 281.6Q802.9 282.8 800.3 282.8L800.3 282.8Q797.3 282.8 795.9 284.4Q794.6 286.1 794.6 289.2L794.6 289.2L794.6 304.1Q794.6 306.3 793.4 307.6Q792.2 308.8 790.1 308.8Z M841.2 307.4Q839.9 308.7 837.7 308.7Q835.5 308.7 834.3 307.4Q833 306.1 833 303.8L833 303.8L833 270.9L823.7 270.9Q821.8 270.9 820.6 269.8Q819.4 268.8 819.4 267.0Q819.4 265.1 820.6 264.1Q821.7 263.1 823.7 263.1L823.7 263.1L851.8 263.1Q853.7 263.1 854.9 264.1Q856.0 265.1 856.0 267.0Q856.0 268.8 854.9 269.8Q853.7 270.9 851.8 270.9L851.8 270.9L842.4 270.9L842.4 303.8Q842.4 306.1 841.2 307.4ZM875.3 308.9L875.3 308.9Q867.5 308.9 863.1 304.3Q858.7 299.7 858.7 291.6L858.7 291.6Q858.7 283.5 863.1 278.7Q867.5 273.9 874.9 273.9L874.9 273.9Q882 273.9 886.4 278.3Q890.8 282.6 890.8 289.5L890.8 289.5Q890.8 291.4 889.8 292.5Q888.7 293.5 886.8 293.5L886.8 293.5L867.7 293.5L867.7 293.9Q867.7 297.6 869.8 299.9Q871.8 302.1 875.3 302.1L875.3 302.1Q877.8 302.1 879.6 301.2Q881.5 300.3 883.3 298.1L883.3 298.1Q884.6 296.7 886.3 296.7L886.3 296.7Q887.8 296.7 888.8 297.6Q889.8 298.6 889.8 300.1L889.8 300.1Q889.8 301.1 889.2 302.3L889.2 302.3Q887.6 305.4 883.9 307.1Q880.2 308.9 875.3 308.9ZM867.8 287.9L867.8 287.9L882 287.9Q881.9 284.6 879.9 282.6Q878 280.7 875 280.7Q872 280.7 870.0 282.7Q868.0 284.7 867.8 287.9ZM900.0 308.8L900.0 308.8Q897.9 308.8 896.7 307.6Q895.5 306.3 895.5 304.1L895.5 304.1L895.5 278.6Q895.5 276.4 896.7 275.2Q897.9 274.0 899.9 274.0Q901.9 274.0 903.1 275.2Q904.3 276.4 904.3 278.6L904.3 278.6L904.3 280.7L904.5 280.7Q905.5 277.6 908.1 275.8Q910.7 274.0 914.0 274.0L914.0 274.0Q917.7 274.0 920.1 275.8Q922.5 277.6 923.4 280.9L923.4 280.9L923.6 280.9Q924.7 277.7 927.5 275.9Q930.3 274.0 934.0 274.0L934.0 274.0Q938.9 274.0 941.9 277.1Q944.9 280.2 944.9 285.3L944.9 285.3L944.9 304.1Q944.9 306.3 943.7 307.6Q942.4 308.8 940.3 308.8L940.3 308.8Q938.3 308.8 937.0 307.6Q935.8 306.3 935.8 304.1L935.8 304.1L935.8 287.6Q935.8 284.6 934.4 283.1Q933 281.6 930.3 281.6L930.3 281.6Q927.8 281.6 926.2 283.3Q924.6 285.0 924.6 287.8L924.6 287.8L924.6 304.1Q924.6 306.3 923.4 307.6Q922.3 308.8 920.2 308.8L920.2 308.8Q918.2 308.8 917.0 307.6Q915.8 306.3 915.8 304.1L915.8 304.1L915.8 287.3Q915.8 284.6 914.4 283.1Q912.9 281.6 910.4 281.6L910.4 281.6Q907.8 281.6 906.2 283.3Q904.6 285.1 904.6 287.9L904.6 287.9L904.6 304.1Q904.6 306.3 903.3 307.6Q902.1 308.8 900.0 308.8ZM958.6 318.9Q957.3 320.1 955.3 320.1Q953.2 320.1 952.0 318.9Q950.7 317.6 950.7 315.3L950.7 315.3L950.7 278.6Q950.7 276.4 952.0 275.2Q953.2 274.0 955.2 274.0Q957.3 274.0 958.5 275.2Q959.7 276.4 959.7 278.7L959.7 278.7L959.7 280.5L959.9 280.5Q961.3 277.5 964.0 275.8Q966.7 274.1 970.3 274.1L970.3 274.1Q976.7 274.1 980.3 278.7Q984 283.3 984 291.4L984 291.4Q984 299.5 980.4 304.1Q976.8 308.7 970.4 308.7L970.4 308.7Q966.8 308.7 964.1 307.0Q961.4 305.4 960.0 302.5L960.0 302.5L959.8 302.5L959.8 315.3Q959.8 317.6 958.6 318.9ZM967.2 301.3L967.2 301.3Q970.6 301.3 972.6 298.6Q974.7 296.0 974.7 291.4Q974.7 286.8 972.6 284.1Q970.6 281.4 967.2 281.4L967.2 281.4Q963.9 281.4 961.8 284.2Q959.8 286.9 959.8 291.4L959.8 291.4Q959.8 295.9 961.8 298.6Q963.8 301.3 967.2 301.3ZM1016.2 304.2Q1011.7 308.9 1004.1 308.9Q996.4 308.9 991.9 304.2Q987.5 299.6 987.5 291.4L987.5 291.4Q987.5 283.3 992.0 278.6Q996.5 273.9 1004.1 273.9L1004.1 273.9Q1011.7 273.9 1016.2 278.6Q1020.7 283.3 1020.7 291.4L1020.7 291.4Q1020.7 299.6 1016.2 304.2ZM1004.1 301.9L1004.1 301.9Q1007.4 301.9 1009.4 299.1Q1011.4 296.4 1011.4 291.4L1011.4 291.4Q1011.4 286.5 1009.4 283.7Q1007.4 280.9 1004.1 280.9Q1000.7 280.9 998.7 283.7Q996.7 286.5 996.7 291.4L996.7 291.4Q996.7 296.4 998.7 299.1Q1000.7 301.9 1004.1 301.9ZM1029.9 308.8L1029.9 308.8Q1027.8 308.8 1026.6 307.6Q1025.3 306.3 1025.3 304.1L1025.3 304.1L1025.3 278.6Q1025.3 276.4 1026.5 275.2Q1027.8 274.0 1029.8 274.0L1029.8 274.0Q1031.7 274.0 1032.9 275.2Q1034.1 276.4 1034.1 278.6L1034.1 278.6L1034.1 280.7L1034.3 280.7Q1034.9 277.6 1036.8 275.9Q1038.7 274.1 1041.2 274.1L1041.2 274.1Q1043.1 274.1 1044.1 275.0L1044.1 275.0Q1045.4 276.0 1045.4 278.3L1045.4 278.3Q1045.4 280.5 1044.1 281.6L1044.1 281.6Q1042.7 282.8 1040.1 282.8L1040.1 282.8Q1037.1 282.8 1035.8 284.4Q1034.5 286.1 1034.5 289.2L1034.5 289.2L1034.5 304.1Q1034.5 306.3 1033.3 307.6Q1032.0 308.8 1029.9 308.8ZM1058.5 308.7L1058.5 308.7Q1053.7 308.7 1050.5 305.8Q1047.3 303.0 1047.3 298.5L1047.3 298.5Q1047.3 294.0 1050.7 291.4Q1054.1 288.8 1060.4 288.4L1060.4 288.4L1068.8 287.9L1068.8 285.7Q1068.8 283.4 1067.3 282.1Q1065.8 280.7 1063.2 280.7L1063.2 280.7Q1061.1 280.7 1059.7 281.5Q1058.2 282.3 1056.7 284.3L1056.7 284.3Q1055.2 286.0 1053.1 286.0L1053.1 286.0Q1051.4 286.0 1050.3 285.0Q1049.3 284.0 1049.3 282.5L1049.3 282.5Q1049.3 281.4 1049.7 280.4L1049.7 280.4Q1050.9 277.4 1054.6 275.7Q1058.4 273.9 1063.6 273.9L1063.6 273.9Q1070.0 273.9 1073.9 277.0Q1077.8 280.1 1077.8 285.1L1077.8 285.1L1077.8 304.2Q1077.8 306.4 1076.6 307.6Q1075.3 308.8 1073.3 308.8L1073.3 308.8Q1071.4 308.8 1070.3 307.8Q1069.1 306.7 1069.0 304.7L1069.0 304.7L1069.0 303.0L1068.8 303.0Q1067.4 305.6 1064.6 307.2Q1061.8 308.7 1058.5 308.7ZM1061.5 302.1L1061.5 302.1Q1064.6 302.1 1066.7 300.3Q1068.8 298.6 1068.8 295.9L1068.8 295.9L1068.8 293.4L1061.8 293.9Q1059.2 294.1 1057.8 295.1Q1056.4 296.2 1056.4 298.0L1056.4 298.0Q1056.4 299.9 1057.8 301.0Q1059.2 302.1 1061.5 302.1ZM1091.8 307.6Q1090.5 308.8 1088.4 308.8Q1086.4 308.8 1085.1 307.6Q1083.9 306.3 1083.9 304.1L1083.9 304.1L1083.9 267.1Q1083.9 264.9 1085.1 263.6Q1086.4 262.4 1088.4 262.4Q1090.5 262.4 1091.8 263.6Q1093 264.9 1093 267.1L1093 267.1L1093 304.1Q1093 306.3 1091.8 307.6Z M94.7 381.0Q93.5 382.3 91.3 382.3Q89.0 382.3 87.8 381.0Q86.5 379.8 86.5 377.4L86.5 377.4L86.5 344.5L77.2 344.5Q75.3 344.5 74.1 343.4Q72.9 342.4 72.9 340.6Q72.9 338.8 74.1 337.7Q75.3 336.7 77.2 336.7L77.2 336.7L105.3 336.7Q107.3 336.7 108.4 337.7Q109.6 338.8 109.6 340.6Q109.6 342.4 108.4 343.4Q107.2 344.5 105.3 344.5L105.3 344.5L96.0 344.5L96.0 377.4Q96.0 379.8 94.7 381.0ZM123.4 382.3L123.4 382.3Q118.5 382.3 115.3 379.4Q112.2 376.6 112.2 372.1L112.2 372.1Q112.2 367.6 115.5 365.0Q118.9 362.4 125.2 362L125.2 362L133.7 361.5L133.7 359.3Q133.7 357.0 132.1 355.7Q130.6 354.3 128.0 354.3L128.0 354.3Q125.9 354.3 124.5 355.1Q123.1 355.9 121.5 357.9L121.5 357.9Q120.0 359.6 117.9 359.6L117.9 359.6Q116.3 359.6 115.2 358.6Q114.1 357.6 114.1 356.1L114.1 356.1Q114.1 355.0 114.6 354L114.6 354Q115.7 351 119.5 349.3Q123.2 347.5 128.4 347.5L128.4 347.5Q134.9 347.5 138.8 350.6Q142.6 353.7 142.6 358.7L142.6 358.7L142.6 377.8Q142.6 380.0 141.4 381.2Q140.2 382.4 138.2 382.4L138.2 382.4Q136.3 382.4 135.1 381.4Q133.9 380.3 133.8 378.3L133.8 378.3L133.8 376.6L133.6 376.6Q132.3 379.3 129.4 380.8Q126.6 382.3 123.4 382.3ZM126.4 375.7L126.4 375.7Q129.4 375.7 131.5 373.9Q133.7 372.2 133.7 369.5L133.7 369.5L133.7 367.0L126.6 367.5Q124.0 367.7 122.6 368.8Q121.3 369.8 121.3 371.6L121.3 371.6Q121.3 373.5 122.7 374.6Q124.1 375.7 126.4 375.7ZM162.2 382.5L162.2 382.5Q156.5 382.5 152.8 380.6Q149.0 378.8 147.8 375.8L147.8 375.8Q147.4 374.8 147.4 374.1L147.4 374.1Q147.4 372.5 148.5 371.6Q149.5 370.6 151.1 370.6L151.1 370.6Q153.2 370.6 155.1 372.7L155.1 372.7Q156.4 374.4 158.1 375.3Q159.8 376.1 162.4 376.1L162.4 376.1Q164.9 376.1 166.4 375.1Q167.8 374.1 167.8 372.5L167.8 372.5Q167.8 371.1 166.8 370.3Q165.8 369.5 163.4 369.0L163.4 369.0L157.8 367.8Q152.9 366.7 150.4 364.3Q147.9 361.8 147.9 358.1L147.9 358.1Q147.9 353.3 151.8 350.4Q155.6 347.5 162.1 347.5L162.1 347.5Q167.2 347.5 170.8 349.5Q174.4 351.5 175.3 354.5L175.3 354.5Q175.5 355.3 175.5 355.8L175.5 355.8Q175.5 357.3 174.6 358.1Q173.7 358.9 172.0 358.9L172.0 358.9Q169.8 358.9 168.7 357.5L168.7 357.5Q167.3 355.8 165.8 354.9Q164.3 353.9 162.0 353.9L162.0 353.9Q159.7 353.9 158.2 354.9Q156.7 355.9 156.7 357.6L156.7 357.6Q156.7 358.9 157.8 359.8Q158.9 360.7 161.4 361.2L161.4 361.2L166.9 362.4Q172.3 363.5 174.6 365.6Q177.0 367.8 177.0 371.5L177.0 371.5Q177.0 376.5 172.9 379.5Q168.8 382.5 162.2 382.5ZM189.6 381.2Q188.3 382.4 186.3 382.4Q184.2 382.4 182.9 381.2Q181.7 379.9 181.7 377.7L181.7 377.7L181.7 340.8Q181.7 338.5 182.9 337.2Q184.2 336.0 186.3 336.0Q188.3 336.0 189.6 337.2Q190.8 338.5 190.8 340.8L190.8 340.8L190.8 361.5L190.9 361.5L203.1 349.4Q204.8 347.6 206.7 347.6L206.7 347.6Q208.4 347.6 209.6 348.7Q210.8 349.8 210.8 351.5L210.8 351.5Q210.8 352.6 210.4 353.3Q210 354.1 209.0 355.0L209.0 355.0L200.5 363.0L209.8 374.9Q211.1 376.7 211.1 378.3L211.1 378.3Q211.1 380.1 209.9 381.3Q208.7 382.4 206.8 382.4L206.8 382.4Q205.3 382.4 204.3 381.8Q203.4 381.2 202.3 379.6L202.3 379.6L193.7 368.2L190.8 370.9L190.8 377.7Q190.8 379.9 189.6 381.2ZM229.6 382.5L229.6 382.5Q223.9 382.5 220.2 380.6Q216.4 378.8 215.2 375.8L215.2 375.8Q214.8 374.8 214.8 374.1L214.8 374.1Q214.8 372.5 215.9 371.6Q216.9 370.6 218.5 370.6L218.5 370.6Q220.6 370.6 222.5 372.7L222.5 372.7Q223.8 374.4 225.5 375.3Q227.2 376.1 229.8 376.1L229.8 376.1Q232.3 376.1 233.8 375.1Q235.3 374.1 235.3 372.5L235.3 372.5Q235.3 371.1 234.3 370.3Q233.3 369.5 230.8 369.0L230.8 369.0L225.2 367.8Q220.3 366.7 217.8 364.3Q215.3 361.8 215.3 358.1L215.3 358.1Q215.3 353.3 219.2 350.4Q223.0 347.5 229.5 347.5L229.5 347.5Q234.6 347.5 238.2 349.5Q241.8 351.5 242.7 354.5L242.7 354.5Q242.9 355.3 242.9 355.8L242.9 355.8Q242.9 357.3 242.0 358.1Q241.1 358.9 239.4 358.9L239.4 358.9Q237.3 358.9 236.1 357.5L236.1 357.5Q234.7 355.8 233.2 354.9Q231.7 353.9 229.4 353.9L229.4 353.9Q227.1 353.9 225.6 354.9Q224.1 355.9 224.1 357.6L224.1 357.6Q224.1 358.9 225.2 359.8Q226.3 360.7 228.8 361.2L228.8 361.2L234.3 362.4Q239.7 363.5 242.0 365.6Q244.4 367.8 244.4 371.5L244.4 371.5Q244.4 376.5 240.3 379.5Q236.2 382.5 229.6 382.5Z M269.7 342.7Q268.3 344.1 266.3 344.1Q264.2 344.1 262.8 342.7Q261.4 341.3 261.4 339.4L261.4 339.4Q261.4 337.4 262.8 336.0Q264.2 334.7 266.3 334.7Q268.3 334.7 269.7 336.0Q271.1 337.4 271.1 339.4L271.1 339.4Q271.1 341.3 269.7 342.7ZM269.6 381.1Q268.4 382.4 266.3 382.4Q264.1 382.4 262.9 381.1Q261.7 379.9 261.7 377.7L261.7 377.7L261.7 352.3Q261.7 350.1 262.9 348.8Q264.1 347.6 266.3 347.6Q268.4 347.6 269.6 348.8Q270.8 350.1 270.8 352.3L270.8 352.3L270.8 377.7Q270.8 379.9 269.6 381.1ZM284.8 381.2Q283.5 382.4 281.4 382.4Q279.4 382.4 278.1 381.2Q276.9 379.9 276.9 377.7L276.9 377.7L276.9 352.2Q276.9 350.0 278.0 348.8Q279.2 347.6 281.3 347.6Q283.3 347.6 284.6 348.8Q285.8 350.1 285.8 352.2L285.8 352.2L285.8 354.1L286.0 354.1Q288.8 347.6 296.3 347.6L296.3 347.6Q301.9 347.6 304.9 350.9Q308.0 354.3 308.0 360.2L308.0 360.2L308.0 377.7Q308.0 379.9 306.7 381.2Q305.5 382.4 303.4 382.4Q301.3 382.4 300.1 381.2Q298.8 379.9 298.8 377.7L298.8 377.7L298.8 362.1Q298.8 358.8 297.3 357.0Q295.7 355.2 292.7 355.2Q289.7 355.2 287.8 357.2Q286 359.3 286 362.5L286 362.5L286 377.7Q286 379.9 284.8 381.2Z M346.1 382.5L346.1 382.5Q337.5 382.5 332.3 377.9Q327.2 373.3 327.2 365.8L327.2 365.8L327.2 341.0Q327.2 338.6 328.4 337.3Q329.7 336.0 331.9 336.0Q334.1 336.0 335.4 337.3Q336.6 338.6 336.6 341.0L336.6 341.0L336.6 364.9Q336.6 369.3 339.1 371.9Q341.6 374.4 346.1 374.4L346.1 374.4Q350.6 374.4 353.0 371.9Q355.5 369.3 355.5 364.9L355.5 364.9L355.5 341.0Q355.5 338.6 356.8 337.3Q358.0 336.0 360.3 336.0Q362.5 336.0 363.7 337.3Q365.0 338.6 365.0 341.0L365.0 341.0L365.0 365.8Q365.0 373.3 359.8 377.9Q354.7 382.5 346.1 382.5ZM379.6 381.2Q378.3 382.4 376.3 382.4Q374.2 382.4 372.9 381.2Q371.7 379.9 371.7 377.7L371.7 377.7L371.7 352.2Q371.7 350.0 372.9 348.8Q374.0 347.6 376.1 347.6Q378.2 347.6 379.4 348.8Q380.7 350.1 380.7 352.2L380.7 352.2L380.7 354.1L380.8 354.1Q383.6 347.6 391.2 347.6L391.2 347.6Q396.7 347.6 399.8 350.9Q402.8 354.3 402.8 360.2L402.8 360.2L402.8 377.7Q402.8 379.9 401.5 381.2Q400.3 382.4 398.2 382.4Q396.2 382.4 394.9 381.2Q393.7 379.9 393.7 377.7L393.7 377.7L393.7 362.1Q393.7 358.8 392.1 357.0Q390.5 355.2 387.5 355.2Q384.5 355.2 382.6 357.2Q380.8 359.3 380.8 362.5L380.8 362.5L380.8 377.7Q380.8 379.9 379.6 381.2ZM422.2 382.5L422.2 382.5Q416.6 382.5 412.8 380.6Q409.0 378.8 407.8 375.8L407.8 375.8Q407.5 374.8 407.5 374.1L407.5 374.1Q407.5 372.5 408.5 371.6Q409.6 370.6 411.2 370.6L411.2 370.6Q413.3 370.6 415.1 372.7L415.1 372.7Q416.5 374.4 418.2 375.3Q419.9 376.1 422.4 376.1L422.4 376.1Q424.9 376.1 426.4 375.1Q427.9 374.1 427.9 372.5L427.9 372.5Q427.9 371.1 426.9 370.3Q425.9 369.5 423.5 369.0L423.5 369.0L417.8 367.8Q412.9 366.7 410.5 364.3Q408.0 361.8 408.0 358.1L408.0 358.1Q408.0 353.3 411.8 350.4Q415.7 347.5 422.2 347.5L422.2 347.5Q427.3 347.5 430.9 349.5Q434.5 351.5 435.3 354.5L435.3 354.5Q435.5 355.3 435.5 355.8L435.5 355.8Q435.5 357.3 434.6 358.1Q433.8 358.9 432.0 358.9L432.0 358.9Q429.9 358.9 428.7 357.5L428.7 357.5Q427.3 355.8 425.8 354.9Q424.3 353.9 422.0 353.9L422.0 353.9Q419.7 353.9 418.3 354.9Q416.8 355.9 416.8 357.6L416.8 357.6Q416.8 358.9 417.9 359.8Q419.0 360.7 421.4 361.2L421.4 361.2L427.0 362.4Q432.3 363.5 434.7 365.6Q437.0 367.8 437.0 371.5L437.0 371.5Q437.0 376.5 433.0 379.5Q428.9 382.5 422.2 382.5ZM456.9 382.5L456.9 382.5Q449.1 382.5 444.7 377.9Q440.3 373.3 440.3 365.2L440.3 365.2Q440.3 357.1 444.7 352.3Q449.1 347.5 456.5 347.5L456.5 347.5Q463.6 347.5 468.0 351.9Q472.4 356.3 472.4 363.1L472.4 363.1Q472.4 365.0 471.3 366.1Q470.3 367.1 468.4 367.1L468.4 367.1L449.3 367.1L449.3 367.5Q449.3 371.2 451.4 373.5Q453.4 375.7 456.9 375.7L456.9 375.7Q459.4 375.7 461.2 374.8Q463.1 373.9 464.9 371.7L464.9 371.7Q466.2 370.3 467.9 370.3L467.9 370.3Q469.4 370.3 470.4 371.3Q471.4 372.2 471.4 373.7L471.4 373.7Q471.4 374.8 470.8 375.9L470.8 375.9Q469.2 379 465.5 380.7Q461.8 382.5 456.9 382.5ZM449.4 361.5L449.4 361.5L463.6 361.5Q463.5 358.2 461.5 356.3Q459.6 354.3 456.6 354.3Q453.6 354.3 451.6 356.3Q449.6 358.3 449.4 361.5ZM492.5 382.5L492.5 382.5Q484.6 382.5 480.2 377.9Q475.8 373.3 475.8 365.2L475.8 365.2Q475.8 357.1 480.2 352.3Q484.6 347.5 492.0 347.5L492.0 347.5Q499.1 347.5 503.5 351.9Q507.9 356.3 507.9 363.1L507.9 363.1Q507.9 365.0 506.9 366.1Q505.8 367.1 503.9 367.1L503.9 367.1L484.8 367.1L484.8 367.5Q484.8 371.2 486.9 373.5Q489.0 375.7 492.4 375.7L492.4 375.7Q494.9 375.7 496.8 374.8Q498.6 373.9 500.4 371.7L500.4 371.7Q501.8 370.3 503.4 370.3L503.4 370.3Q504.9 370.3 506.0 371.3Q507.0 372.2 507.0 373.7L507.0 373.7Q507.0 374.8 506.3 375.9L506.3 375.9Q504.7 379 501 380.7Q497.3 382.5 492.5 382.5ZM484.9 361.5L484.9 361.5L499.1 361.5Q499 358.2 497.1 356.3Q495.1 354.3 492.1 354.3Q489.1 354.3 487.1 356.3Q485.2 358.3 484.9 361.5ZM520.5 381.2Q519.2 382.4 517.2 382.4Q515.1 382.4 513.8 381.2Q512.6 379.9 512.6 377.7L512.6 377.7L512.6 352.2Q512.6 350.0 513.8 348.8Q514.9 347.6 517 347.6Q519.1 347.6 520.3 348.8Q521.6 350.1 521.6 352.2L521.6 352.2L521.6 354.1L521.8 354.1Q524.5 347.6 532.1 347.6L532.1 347.6Q537.6 347.6 540.7 350.9Q543.7 354.3 543.7 360.2L543.7 360.2L543.7 377.7Q543.7 379.9 542.4 381.2Q541.2 382.4 539.1 382.4Q537.1 382.4 535.8 381.2Q534.6 379.9 534.6 377.7L534.6 377.7L534.6 362.1Q534.6 358.8 533 357.0Q531.4 355.2 528.4 355.2Q525.4 355.2 523.5 357.2Q521.7 359.3 521.7 362.5L521.7 362.5L521.7 377.7Q521.7 379.9 520.5 381.2Z M589.1 381.8L567.6 381.8Q565.4 381.8 564.2 380.5Q562.9 379.2 562.9 376.8L562.9 376.8L562.9 341.6Q562.9 339.3 564.2 338.0Q565.4 336.7 567.6 336.7L567.6 336.7L589.1 336.7Q591.0 336.7 592.2 337.7Q593.3 338.8 593.3 340.6Q593.3 342.4 592.2 343.4Q591 344.5 589.1 344.5L589.1 344.5L572.3 344.5L572.3 355.3L588.3 355.3Q590.0 355.3 591.1 356.3Q592.2 357.3 592.2 358.9L592.2 358.9Q592.2 360.6 591.1 361.6Q590.0 362.6 588.3 362.6L588.3 362.6L572.3 362.6L572.3 373.9L589.1 373.9Q591 373.9 592.2 375.0Q593.3 376.0 593.3 377.8Q593.3 379.7 592.2 380.7Q591.0 381.8 589.1 381.8L589.1 381.8ZM606.7 381.2Q605.4 382.4 603.4 382.4Q601.3 382.4 600.1 381.2Q598.8 379.9 598.8 377.7L598.8 377.7L598.8 352.2Q598.8 350.0 600.0 348.8Q601.2 347.6 603.2 347.6Q605.3 347.6 606.5 348.8Q607.8 350.1 607.8 352.2L607.8 352.2L607.8 354.1L608.0 354.1Q610.7 347.6 618.3 347.6L618.3 347.6Q623.8 347.6 626.9 350.9Q629.9 354.3 629.9 360.2L629.9 360.2L629.9 377.7Q629.9 379.9 628.7 381.2Q627.4 382.4 625.3 382.4Q623.3 382.4 622.0 381.2Q620.8 379.9 620.8 377.7L620.8 377.7L620.8 362.1Q620.8 358.8 619.2 357.0Q617.7 355.2 614.6 355.2Q611.6 355.2 609.8 357.2Q607.9 359.3 607.9 362.5L607.9 362.5L607.9 377.7Q607.9 379.9 606.7 381.2ZM649.8 382.4L649.8 382.4Q647.2 382.4 645.6 381.3Q644.1 380.2 643.2 377.8L643.2 377.8L634.4 354.4Q633.9 352.9 633.9 351.7L633.9 351.7Q633.9 349.8 635.2 348.7Q636.5 347.6 638.5 347.6L638.5 347.6Q641.8 347.6 642.9 351.2L642.9 351.2L649.7 373.7L649.8 373.7L656.6 351.1Q657.6 347.6 660.9 347.6L660.9 347.6Q662.8 347.6 664.1 348.7Q665.3 349.9 665.3 351.6L665.3 351.6Q665.3 352.8 664.8 354.2L664.8 354.2L656.1 377.8Q655.3 380.2 653.7 381.3Q652.2 382.4 649.8 382.4ZM677.7 342.7Q676.3 344.1 674.2 344.1Q672.1 344.1 670.7 342.7Q669.3 341.3 669.3 339.4L669.3 339.4Q669.3 337.4 670.7 336.0Q672.1 334.7 674.2 334.7Q676.3 334.7 677.7 336.0Q679.1 337.4 679.1 339.4L679.1 339.4Q679.1 341.3 677.7 342.7ZM677.5 381.1Q676.3 382.4 674.2 382.4Q672.1 382.4 670.8 381.1Q669.6 379.9 669.6 377.7L669.6 377.7L669.6 352.3Q669.6 350.1 670.8 348.8Q672.1 347.6 674.2 347.6Q676.3 347.6 677.5 348.8Q678.8 350.1 678.8 352.3L678.8 352.3L678.8 377.7Q678.8 379.9 677.5 381.1ZM689.4 382.4L689.4 382.4Q687.3 382.4 686.0 381.2Q684.8 379.9 684.8 377.7L684.8 377.7L684.8 352.2Q684.8 350 686.0 348.8Q687.2 347.6 689.2 347.6L689.2 347.6Q691.2 347.6 692.3 348.8Q693.5 350 693.5 352.2L693.5 352.2L693.5 354.3L693.7 354.3Q694.4 351.3 696.3 349.5Q698.2 347.7 700.7 347.7L700.7 347.7Q702.5 347.7 703.5 348.6L703.5 348.6Q704.8 349.6 704.8 351.9L704.8 351.9Q704.8 354.1 703.5 355.2L703.5 355.2Q702.2 356.4 699.6 356.4L699.6 356.4Q696.6 356.4 695.3 358.0Q693.9 359.7 693.9 362.8L693.9 362.8L693.9 377.7Q693.9 379.9 692.7 381.2Q691.5 382.4 689.4 382.4ZM735.6 377.8Q731.1 382.5 723.5 382.5Q715.8 382.5 711.3 377.8Q706.9 373.2 706.9 365.0L706.9 365.0Q706.9 356.9 711.4 352.2Q715.9 347.5 723.5 347.5L723.5 347.5Q731.1 347.5 735.6 352.2Q740.1 356.9 740.1 365.0L740.1 365.0Q740.1 373.2 735.6 377.8ZM723.5 375.5L723.5 375.5Q726.8 375.5 728.8 372.8Q730.8 370 730.8 365L730.8 365Q730.8 360.1 728.8 357.3Q726.8 354.5 723.5 354.5Q720.1 354.5 718.1 357.3Q716.1 360.1 716.1 365L716.1 365Q716.1 370 718.1 372.8Q720.1 375.5 723.5 375.5ZM752.6 381.2Q751.4 382.4 749.3 382.4Q747.3 382.4 746 381.2Q744.8 379.9 744.8 377.7L744.8 377.7L744.8 352.2Q744.8 350.0 745.9 348.8Q747.1 347.6 749.2 347.6Q751.2 347.6 752.5 348.8Q753.7 350.1 753.7 352.2L753.7 352.2L753.7 354.1L753.9 354.1Q756.7 347.6 764.2 347.6L764.2 347.6Q769.8 347.6 772.8 350.9Q775.8 354.3 775.8 360.2L775.8 360.2L775.8 377.7Q775.8 379.9 774.6 381.2Q773.3 382.4 771.3 382.4Q769.2 382.4 768.0 381.2Q766.7 379.9 766.7 377.7L766.7 377.7L766.7 362.1Q766.7 358.8 765.2 357.0Q763.6 355.2 760.6 355.2Q757.5 355.2 755.7 357.2Q753.9 359.3 753.9 362.5L753.9 362.5L753.9 377.7Q753.9 379.9 752.6 381.2ZM786.2 382.4L786.2 382.4Q784.1 382.4 782.9 381.2Q781.6 379.9 781.6 377.7L781.6 377.7L781.6 352.2Q781.6 350.0 782.8 348.8Q784.0 347.6 786.0 347.6Q788.0 347.6 789.2 348.8Q790.4 350.0 790.4 352.2L790.4 352.2L790.4 354.3L790.6 354.3Q791.7 351.3 794.3 349.4Q796.8 347.6 800.2 347.6L800.2 347.6Q803.8 347.6 806.3 349.4Q808.7 351.2 809.5 354.5L809.5 354.5L809.7 354.5Q810.8 351.3 813.6 349.5Q816.4 347.6 820.1 347.6L820.1 347.6Q825.1 347.6 828.1 350.7Q831.1 353.8 831.1 358.9L831.1 358.9L831.1 377.7Q831.1 379.9 829.8 381.2Q828.6 382.4 826.5 382.4L826.5 382.4Q824.4 382.4 823.2 381.2Q822.0 379.9 822.0 377.7L822.0 377.7L822.0 361.2Q822.0 358.3 820.6 356.7Q819.2 355.2 816.5 355.2L816.5 355.2Q813.9 355.2 812.3 356.9Q810.8 358.6 810.8 361.4L810.8 361.4L810.8 377.7Q810.8 379.9 809.6 381.2Q808.4 382.4 806.3 382.4L806.3 382.4Q804.3 382.4 803.1 381.2Q802.0 379.9 802.0 377.7L802.0 377.7L802.0 360.9Q802.0 358.2 800.5 356.7Q799.1 355.2 796.6 355.2L796.6 355.2Q794.0 355.2 792.4 356.9Q790.8 358.7 790.8 361.5L790.8 361.5L790.8 377.7Q790.8 379.9 789.5 381.2Q788.3 382.4 786.2 382.4ZM852.3 382.5L852.3 382.5Q844.4 382.5 840.0 377.9Q835.7 373.3 835.7 365.2L835.7 365.2Q835.7 357.1 840.0 352.3Q844.4 347.5 851.8 347.5L851.8 347.5Q858.9 347.5 863.3 351.9Q867.7 356.3 867.7 363.1L867.7 363.1Q867.7 365.0 866.7 366.1Q865.7 367.1 863.8 367.1L863.8 367.1L844.6 367.1L844.6 367.5Q844.6 371.2 846.7 373.5Q848.8 375.7 852.3 375.7L852.3 375.7Q854.8 375.7 856.6 374.8Q858.4 373.9 860.3 371.7L860.3 371.7Q861.6 370.3 863.2 370.3L863.2 370.3Q864.8 370.3 865.8 371.3Q866.8 372.2 866.8 373.7L866.8 373.7Q866.8 374.8 866.2 375.9L866.2 375.9Q864.5 379 860.8 380.7Q857.1 382.5 852.3 382.5ZM844.7 361.5L844.7 361.5L858.9 361.5Q858.8 358.2 856.9 356.3Q854.9 354.3 851.9 354.3Q848.9 354.3 847.0 356.3Q845.0 358.3 844.7 361.5ZM880.3 381.2Q879.0 382.4 877.0 382.4Q874.9 382.4 873.7 381.2Q872.4 379.9 872.4 377.7L872.4 377.7L872.4 352.2Q872.4 350.0 873.6 348.8Q874.8 347.6 876.8 347.6Q878.9 347.6 880.1 348.8Q881.4 350.1 881.4 352.2L881.4 352.2L881.4 354.1L881.6 354.1Q884.3 347.6 891.9 347.6L891.9 347.6Q897.4 347.6 900.5 350.9Q903.5 354.3 903.5 360.2L903.5 360.2L903.5 377.7Q903.5 379.9 902.3 381.2Q901 382.4 898.9 382.4Q896.9 382.4 895.6 381.2Q894.4 379.9 894.4 377.7L894.4 377.7L894.4 362.1Q894.4 358.8 892.8 357.0Q891.3 355.2 888.2 355.2Q885.2 355.2 883.4 357.2Q881.5 359.3 881.5 362.5L881.5 362.5L881.5 377.7Q881.5 379.9 880.3 381.2ZM911.7 373.2L911.7 373.2L911.7 355.1L910.0 355.1Q908.3 355.1 907.4 354.2Q906.4 353.3 906.4 351.7Q906.4 350.1 907.4 349.2Q908.3 348.3 910.0 348.3L910.0 348.3L911.7 348.3L911.7 344.5Q911.7 342.3 912.9 341.0Q914.2 339.8 916.3 339.8Q918.4 339.8 919.6 341.0Q920.8 342.3 920.8 344.5L920.8 344.5L920.8 348.3L924.1 348.3Q925.7 348.3 926.6 349.2Q927.6 350.1 927.6 351.7Q927.6 353.3 926.6 354.2Q925.7 355.1 924.1 355.1L924.1 355.1L920.8 355.1L920.8 371.2Q920.8 372.9 921.5 373.8Q922.2 374.6 923.6 374.7L923.6 374.7L924.2 374.8Q926.0 374.9 926.8 375.7Q927.7 376.5 927.7 378.1L927.7 378.1Q927.7 380.0 925.9 381.1Q924.2 382.1 921.2 382.1L921.2 382.1L920.9 382.1Q911.7 382.1 911.7 373.2ZM945.7 382.5L945.7 382.5Q940.1 382.5 936.3 380.6Q932.5 378.8 931.3 375.8L931.3 375.8Q930.9 374.8 930.9 374.1L930.9 374.1Q930.9 372.5 932.0 371.6Q933.0 370.6 934.6 370.6L934.6 370.6Q936.8 370.6 938.6 372.7L938.6 372.7Q940.0 374.4 941.7 375.3Q943.3 376.1 945.9 376.1L945.9 376.1Q948.4 376.1 949.9 375.1Q951.4 374.1 951.4 372.5L951.4 372.5Q951.4 371.1 950.4 370.3Q949.4 369.5 946.9 369.0L946.9 369.0L941.3 367.8Q936.4 366.7 933.9 364.3Q931.4 361.8 931.4 358.1L931.4 358.1Q931.4 353.3 935.3 350.4Q939.2 347.5 945.7 347.5L945.7 347.5Q950.7 347.5 954.3 349.5Q957.9 351.5 958.8 354.5L958.8 354.5Q959 355.3 959 355.8L959 355.8Q959 357.3 958.1 358.1Q957.2 358.9 955.5 358.9L955.5 358.9Q953.4 358.9 952.2 357.5L952.2 357.5Q950.8 355.8 949.3 354.9Q947.8 353.9 945.5 353.9L945.5 353.9Q943.2 353.9 941.7 354.9Q940.3 355.9 940.3 357.6L940.3 357.6Q940.3 358.9 941.3 359.8Q942.4 360.7 944.9 361.2L944.9 361.2L950.4 362.4Q955.8 363.5 958.1 365.6Q960.5 367.8 960.5 371.5L960.5 371.5Q960.5 376.5 956.4 379.5Q952.3 382.5 945.7 382.5Z " clip-path="url(#satori_cp-id-0)" mask="url(#satori_om-id-0)"/><defs><clipPath id="satori_bc-id-0-1" clip-path="url(#satori_cp-id-0)"><rect x="0" y="509" width="1200" height="121"/></clipPath></defs><mask id="satori_om-id-0-1"><rect x="0" y="510" width="1200" height="120" fill="#fff" mask="url(#satori_om-id-0)"/><path width="1200" height="121" fill="none" stroke="#000" stroke-width="2" d="M0,509 A0,0 0 0 1 0,509 h1200 A0,0 0 0 1 1200,509"/></mask><path width="1200" height="121" clip-path="url(#satori_bc-id-0-1)" fill="none" stroke="rgba(0,0,0,0.08)" stroke-width="2" d="M0,509 A0,0 0 0 1 0,509 h1200 A0,0 0 0 1 1200,509"/><mask id="satori_om-id-0-1-0"><rect x="48" y="538" width="228" height="64" fill="#fff" mask="url(#satori_om-id-0)"/></mask><mask id="satori_om-id-0-1-0-0"><rect x="48" y="538" width="72" height="64" fill="#fff" mask="url(#satori_om-id-0)"/></mask><clipPath id="satori_cp-id-0-1-0-0-0" clip-path="url(#satori_cp-id-0)"><rect x="48" y="538" width="72" height="64"/></clipPath><mask id="satori_om-id-0-1-0-0-0"><rect x="48" y="538" width="72" height="64" fill="#fff" mask="url(#satori_om-id-0)"/></mask><image x="48" y="538" width="72" height="64" href="data:image/svg+xml;utf8,%3Csvg  xmlns=%22http://www.w3.org/2000/svg%22 width=%2273.60461760461762%22 height=%2264%22 viewBox=%220 0 797 693%22%3E%3Cg transform=%22matrix(1,0,0,1,-345,-96.5)%22%3E%3Cpath d=%22M756.942,197.15L756.942,474C701.751,474 656.942,518.808 656.942,574C656.942,629.192 701.751,674 756.942,674L756.942,777L495.122,777C443.175,777 401,734.825 401,682.878L401,614L364.755,614C353.852,614 345,605.148 345,594.245L345,436.814C345,425.878 353.878,417 364.814,417L401,417L401,365.122C401,313.175 443.175,271 495.122,271L715.058,271L715.058,197.15C696.492,189.056 683.5,170.533 683.5,149C683.5,120.024 707.024,96.5 736,96.5C764.976,96.5 788.5,120.024 788.5,149C788.5,170.533 775.508,189.056 756.942,197.15ZM559,388C520.918,388 490,418.918 490,457C490,495.082 520.918,526 559,526C597.082,526 628,495.082 628,457C628,418.918 597.082,388 559,388Z%22 fill=%22%23ad47ff%22%3E%3C/path%3E%3Cg transform=%22matrix(-1,1.22465e-16,-1.22465e-16,-1,1486.06,1043)%22%3E%3Cpath d=%22M401,417L401,348.122C401,296.175 443.175,254 495.122,254L705.058,254L705.058,357C760.249,357 805.058,401.808 805.058,457C805.058,512.192 760.249,557 705.058,557L705.058,760L495.122,760C443.175,760 401,717.825 401,665.878L401,614L364.755,614C353.852,614 345,605.148 345,594.245L345,436.814C345,425.878 353.878,417 364.814,417L401,417ZM552,643C590.082,643 621,612.082 621,574C621,535.918 590.082,505 552,505C513.918,505 483,535.918 483,574C483,612.082 513.918,643 552,643Z%22 fill=%22%2300d5bd%22%3E%3C/path%3E%3C/g%3E%3C/g%3E%3C/svg%3E" preserveAspectRatio="none" clip-path="url(#satori_cp-id-0-1-0-0-0)" mask="url(#satori_om-id-0-1-0-0-0)"/><mask id="satori_om-id-0-1-0-0-0-0"><rect x="48" y="538" width="0" height="64" fill="#fff" mask="url(#satori_om-id-0)"/></mask><mask id="satori_om-id-0-1-0-0-0-0-0"><rect x="48" y="538" width="0" height="64" fill="#fff" mask="url(#satori_om-id-0)"/></mask><mask id="satori_om-id-0-1-0-0-0-0-1"><rect x="48" y="538" width="0" height="64" fill="#fff" mask="url(#satori_om-id-0)"/></mask><mask id="satori_om-id-0-1-0-0-0-0-1-0"><rect x="48" y="538" width="0" height="64" fill="#fff" mask="url(#satori_om-id-0)"/></mask><mask id="satori_om-id-0-1-0-1"><rect x="138" y="540" width="138" height="60" fill="#fff" mask="url(#satori_om-id-0)"/></mask><mask id="satori_om-id-0-1-0-1-0"><rect x="138" y="540" width="138" height="36" fill="#fff" mask="url(#satori_om-id-0)"/></mask><path fill="#0f172a" d="M150.7 571.2L150.7 571.2Q145.9 571.2 143.0 568.6Q140.1 566.1 140.1 561.8L140.1 561.8L140.1 547.9Q140.1 546.5 140.8 545.8Q141.5 545.1 142.8 545.1Q144.0 545.1 144.7 545.8Q145.4 546.5 145.4 547.9L145.4 547.9L145.4 561.3Q145.4 563.8 146.8 565.2Q148.2 566.7 150.7 566.7L150.7 566.7Q153.3 566.7 154.7 565.2Q156.1 563.8 156.1 561.3L156.1 561.3L156.1 547.9Q156.1 546.5 156.8 545.8Q157.5 545.1 158.7 545.1Q160.0 545.1 160.7 545.8Q161.4 546.5 161.4 547.9L161.4 547.9L161.4 561.8Q161.4 566.1 158.5 568.6Q155.6 571.2 150.7 571.2ZM170.2 570.4Q169.5 571.2 168.2 571.2Q167.0 571.2 166.3 570.4Q165.6 569.7 165.6 568.4L165.6 568.4L165.6 548.2Q165.6 546.9 166.3 546.2Q167.0 545.4 168.2 545.4L168.2 545.4L176.0 545.4Q180.3 545.4 182.7 547.6Q185.1 549.7 185.1 553.5L185.1 553.5Q185.1 555.9 184.0 557.8Q182.9 559.7 180.8 560.6L180.8 560.6L184.4 566.9Q185.0 567.9 185.0 568.7L185.0 568.7Q185.0 569.8 184.2 570.5Q183.5 571.2 182.3 571.2L182.3 571.2Q181.4 571.2 180.8 570.8Q180.3 570.3 179.6 569.2L179.6 569.2L175.4 561.5L170.9 561.5L170.9 568.4Q170.9 569.7 170.2 570.4ZM170.9 549.6L170.9 557.7L175.5 557.7Q177.5 557.7 178.6 556.6Q179.7 555.5 179.7 553.6L179.7 553.6Q179.7 551.8 178.5 550.7Q177.4 549.6 175.4 549.6L175.4 549.6L170.9 549.6ZM198.1 562.7L190.8 562.7Q189.7 562.7 189.1 562.1Q188.4 561.5 188.4 560.5Q188.4 559.4 189.1 558.8Q189.7 558.2 190.8 558.2L190.8 558.2L198.1 558.2Q199.2 558.2 199.9 558.8Q200.6 559.4 200.6 560.5Q200.6 561.5 199.9 562.1Q199.2 562.7 198.1 562.7L198.1 562.7ZM209.1 570.4Q208.4 571.2 207.2 571.2Q205.9 571.2 205.2 570.4Q204.5 569.7 204.5 568.4L204.5 568.4L204.5 548.2Q204.5 546.9 205.2 546.2Q205.9 545.4 207.2 545.4L207.2 545.4L214.9 545.4Q219.3 545.4 221.7 547.6Q224.1 549.7 224.1 553.5L224.1 553.5Q224.1 555.9 223.0 557.8Q221.8 559.7 219.7 560.6L219.7 560.6L223.4 566.9Q224.0 567.9 224.0 568.7L224.0 568.7Q224.0 569.8 223.2 570.5Q222.4 571.2 221.3 571.2L221.3 571.2Q220.3 571.2 219.8 570.8Q219.2 570.3 218.6 569.2L218.6 569.2L214.4 561.5L209.8 561.5L209.8 568.4Q209.8 569.7 209.1 570.4ZM209.8 549.6L209.8 557.7L214.4 557.7Q216.4 557.7 217.5 556.6Q218.6 555.5 218.6 553.6L218.6 553.6Q218.6 551.8 217.5 550.7Q216.3 549.6 214.4 549.6L214.4 549.6L209.8 549.6ZM229.3 571.1L229.3 571.1Q228.0 571.1 227.3 570.5Q226.6 569.8 226.6 568.6L226.6 568.6Q226.6 567.9 226.9 566.9L226.9 566.9L233.9 548.1Q234.4 546.5 235.4 545.8Q236.3 545.1 237.8 545.1L237.8 545.1Q239.4 545.1 240.4 545.8Q241.3 546.5 241.9 548.1L241.9 548.1L248.9 566.9Q249.2 567.9 249.2 568.6L249.2 568.6Q249.2 569.7 248.5 570.4Q247.7 571.1 246.5 571.1L246.5 571.1Q245.4 571.1 244.8 570.6Q244.1 570.0 243.8 568.8L243.8 568.8L242.4 564.8L233.3 564.8L232.0 568.7Q231.6 570.0 231.0 570.6Q230.3 571.1 229.3 571.1ZM237.7 550.3L234.5 560.7L241.2 560.7L237.9 550.3L237.7 550.3ZM262.1 570.8L255.1 570.8Q253.8 570.8 253.1 570.1Q252.4 569.3 252.4 568.0L252.4 568.0L252.4 548.2Q252.4 546.9 253.1 546.2Q253.8 545.4 255.1 545.4L255.1 545.4L262.1 545.4Q267.8 545.4 271.0 548.7Q274.2 552.0 274.2 558.0L274.2 558.0Q274.2 564.0 271.0 567.4Q267.8 570.8 262.1 570.8L262.1 570.8ZM257.7 549.8L257.7 566.4L261.5 566.4Q265.0 566.4 266.9 564.3Q268.8 562.1 268.8 558.0L268.8 558.0Q268.8 554.1 266.9 551.9Q265.0 549.8 261.5 549.8L261.5 549.8L257.7 549.8Z " clip-path="url(#satori_cp-id-0)" mask="url(#satori_om-id-0)"/><mask id="satori_om-id-0-1-0-1-1"><rect x="138" y="576" width="138" height="24" fill="#fff" mask="url(#satori_om-id-0)"/></mask><path fill="#334155" d="M145.0 595.3L145.0 595.3Q142.4 595.3 140.8 593.8Q139.2 592.4 139.2 590.1L139.2 590.1L139.2 582.1Q139.2 581.5 139.6 581.1Q139.9 580.8 140.5 580.8L140.5 580.8Q141.1 580.8 141.4 581.1Q141.8 581.5 141.8 582.1L141.8 582.1L141.8 589.8Q141.8 591.3 142.6 592.2Q143.5 593.1 145.0 593.1Q146.6 593.1 147.4 592.2Q148.3 591.3 148.3 589.8L148.3 589.8L148.3 582.1Q148.3 581.5 148.6 581.1Q149.0 580.8 149.6 580.8L149.6 580.8Q150.2 580.8 150.5 581.1Q150.8 581.5 150.8 582.1L150.8 582.1L150.8 590.1Q150.8 592.4 149.3 593.8Q147.7 595.3 145.0 595.3ZM155.5 594.9Q155.2 595.2 154.6 595.2Q154.0 595.2 153.6 594.9Q153.3 594.5 153.3 593.9L153.3 593.9L153.3 582.3Q153.3 581.6 153.6 581.3Q154.0 581.0 154.6 581.0L154.6 581.0L158.9 581.0Q161.2 581.0 162.5 582.1Q163.8 583.3 163.8 585.3L163.8 585.3Q163.8 586.7 163.1 587.8Q162.4 588.8 161.2 589.3L161.2 589.3L163.4 593.2Q163.7 593.7 163.7 594.1L163.7 594.1Q163.7 594.6 163.4 594.9Q163.0 595.2 162.4 595.2L162.4 595.2Q162.0 595.2 161.7 595.0Q161.5 594.8 161.2 594.3L161.2 594.3L158.7 589.7L155.8 589.7L155.8 593.9Q155.8 594.5 155.5 594.9ZM155.8 583.0L155.8 587.8L158.7 587.8Q159.9 587.8 160.5 587.2Q161.2 586.5 161.2 585.4L161.2 585.4Q161.2 584.3 160.5 583.6Q159.8 583.0 158.6 583.0L158.6 583.0L155.8 583.0ZM171.1 590.4L166.7 590.4Q166.2 590.4 165.9 590.1Q165.6 589.8 165.6 589.3Q165.6 588.8 165.9 588.5Q166.2 588.2 166.7 588.2L166.7 588.2L171.1 588.2Q171.7 588.2 172.0 588.5Q172.3 588.8 172.3 589.3Q172.3 589.8 172.0 590.1Q171.7 590.4 171.1 590.4L171.1 590.4ZM176.7 594.9Q176.4 595.2 175.8 595.2Q175.2 595.2 174.9 594.9Q174.6 594.5 174.6 593.9L174.6 593.9L174.6 582.3Q174.6 581.6 174.9 581.3Q175.2 581.0 175.8 581.0L175.8 581.0L180.1 581.0Q182.4 581.0 183.7 582.1Q185.0 583.3 185.0 585.3L185.0 585.3Q185.0 586.7 184.3 587.8Q183.7 588.8 182.5 589.3L182.5 589.3L184.7 593.2Q185.0 593.7 185.0 594.1L185.0 594.1Q185.0 594.6 184.6 594.9Q184.2 595.2 183.7 595.2L183.7 595.2Q183.2 595.2 183.0 595.0Q182.7 594.8 182.4 594.3L182.4 594.3L179.9 589.7L177.1 589.7L177.1 593.9Q177.1 594.5 176.7 594.9ZM177.1 583.0L177.1 587.8L179.9 587.8Q181.1 587.8 181.8 587.2Q182.4 586.5 182.4 585.4L182.4 585.4Q182.4 584.3 181.8 583.6Q181.1 583.0 179.9 583.0L179.9 583.0L177.1 583.0ZM187.7 595.2L187.7 595.2Q187.1 595.2 186.7 594.9Q186.4 594.6 186.4 594.0L186.4 594.0Q186.4 593.7 186.6 593.3L186.6 593.3L190.7 582.2Q190.9 581.4 191.4 581.1Q191.8 580.8 192.5 580.8L192.5 580.8Q193.2 580.8 193.6 581.1Q194.1 581.4 194.3 582.1L194.3 582.1L198.4 593.3Q198.6 593.7 198.6 594.0L198.6 594.0Q198.6 594.6 198.2 594.9Q197.9 595.2 197.3 595.2L197.3 595.2Q196.8 595.2 196.5 595.0Q196.2 594.7 196.0 594.1L196.0 594.1L195.1 591.4L189.9 591.4L188.9 594.1Q188.8 594.7 188.5 595.0Q188.2 595.2 187.7 595.2ZM192.4 583.4L190.5 589.5L194.5 589.5L192.5 583.4L192.4 583.4ZM205.6 595.0L201.7 595.0Q201.1 595.0 200.8 594.7Q200.4 594.3 200.4 593.7L200.4 593.7L200.4 582.3Q200.4 581.6 200.8 581.3Q201.1 581.0 201.7 581.0L201.7 581.0L205.6 581.0Q208.7 581.0 210.5 582.8Q212.3 584.6 212.3 588.0L212.3 588.0Q212.3 591.3 210.5 593.2Q208.7 595.0 205.6 595.0L205.6 595.0ZM202.9 583.1L202.9 592.9L205.3 592.9Q207.4 592.9 208.6 591.6Q209.7 590.4 209.7 588.0L209.7 588.0Q209.7 585.6 208.6 584.3Q207.4 583.1 205.3 583.1L205.3 583.1L202.9 583.1Z M227.0 595.0L219.2 595.0Q218.7 595.0 218.3 594.8Q218.0 594.5 218.0 594.0L218.0 594.0Q218.0 593.6 218.2 593.3Q218.3 593.1 218.7 592.7L218.7 592.7L223.0 588.4Q224.4 587.1 224.8 586.4Q225.3 585.7 225.3 584.9L225.3 584.9Q225.3 583.9 224.6 583.3Q224.0 582.7 223.0 582.7L223.0 582.7Q221.1 582.7 220.3 584.6L220.3 584.6Q220.1 585.0 219.9 585.2Q219.6 585.4 219.2 585.4L219.2 585.4Q218.7 585.4 218.4 585.1Q218.1 584.8 218.1 584.3L218.1 584.3Q218.1 584.1 218.2 583.8L218.2 583.8Q218.3 583.2 218.7 582.7Q219.1 582.1 219.7 581.7Q220.3 581.2 221.1 580.9Q222.0 580.7 223.0 580.7L223.0 580.7Q225.1 580.7 226.4 581.8Q227.8 582.9 227.8 584.7L227.8 584.7Q227.8 585.9 227.1 586.9Q226.4 588.0 224.6 589.8L224.6 589.8L221.4 592.9L221.4 593.0L227.0 593.0Q227.5 593.0 227.8 593.3Q228.1 593.5 228.1 594.0Q228.1 594.5 227.8 594.8Q227.5 595.0 227.0 595.0L227.0 595.0ZM235.2 595.3L235.2 595.3Q232.6 595.3 231.1 593.4Q229.7 591.4 229.7 588.0L229.7 588.0Q229.7 584.6 231.1 582.6Q232.6 580.7 235.2 580.7L235.2 580.7Q237.8 580.7 239.3 582.6Q240.7 584.6 240.7 588.0L240.7 588.0Q240.7 591.4 239.3 593.3Q237.8 595.3 235.2 595.3ZM235.2 593.3L235.2 593.3Q236.6 593.3 237.4 591.9Q238.2 590.5 238.2 588.0L238.2 588.0Q238.2 585.5 237.4 584.1Q236.6 582.7 235.2 582.7Q233.8 582.7 233.0 584.1Q232.2 585.5 232.2 588.0L232.2 588.0Q232.2 590.5 233.0 591.9Q233.8 593.3 235.2 593.3ZM251.6 595.0L243.8 595.0Q243.2 595.0 242.9 594.8Q242.6 594.5 242.6 594.0L242.6 594.0Q242.6 593.6 242.7 593.3Q242.9 593.1 243.3 592.7L243.3 592.7L247.6 588.4Q248.9 587.1 249.4 586.4Q249.8 585.7 249.8 584.9L249.8 584.9Q249.8 583.9 249.2 583.3Q248.5 582.7 247.5 582.7L247.5 582.7Q245.6 582.7 244.9 584.6L244.9 584.6Q244.7 585.0 244.4 585.2Q244.2 585.4 243.7 585.4L243.7 585.4Q243.2 585.4 242.9 585.1Q242.6 584.8 242.6 584.3L242.6 584.3Q242.6 584.1 242.7 583.8L242.7 583.8Q242.9 583.2 243.2 582.7Q243.6 582.1 244.2 581.7Q244.8 581.2 245.7 580.9Q246.5 580.7 247.5 580.7L247.5 580.7Q249.6 580.7 251.0 581.8Q252.3 582.9 252.3 584.7L252.3 584.7Q252.3 585.9 251.6 586.9Q251.0 588.0 249.2 589.8L249.2 589.8L245.9 592.9L245.9 593.0L251.6 593.0Q252.1 593.0 252.4 593.3Q252.6 593.5 252.6 594.0Q252.6 594.5 252.4 594.8Q252.1 595.0 251.6 595.0L251.6 595.0ZM259.6 595.3L259.6 595.3Q258.0 595.3 256.7 594.6Q255.4 593.9 254.9 592.8L254.9 592.8Q254.6 592.3 254.6 591.8L254.6 591.8Q254.6 591.3 254.9 591.0Q255.2 590.7 255.7 590.7L255.7 590.7Q256.1 590.7 256.4 590.9Q256.6 591.1 256.8 591.5L256.8 591.5Q257.2 592.3 257.9 592.8Q258.6 593.3 259.6 593.3L259.6 593.3Q260.9 593.3 261.7 592.5Q262.5 591.7 262.5 590.4L262.5 590.4Q262.5 589.2 261.7 588.4Q260.9 587.7 259.6 587.7L259.6 587.7Q258.3 587.7 257.4 588.5L257.4 588.5Q257.0 589.0 256.7 589.1Q256.4 589.3 256.0 589.3L256.0 589.3Q255.4 589.3 255.1 588.9Q254.8 588.5 254.8 588.0L254.8 588.0Q254.8 587.9 254.8 587.8L254.8 587.8L255.3 582.5Q255.4 581.7 255.8 581.3Q256.2 581.0 257.0 581.0L257.0 581.0L263.1 581.0Q263.6 581.0 263.9 581.2Q264.2 581.5 264.2 582.0L264.2 582.0Q264.2 582.4 263.9 582.7Q263.6 583.0 263.1 583.0L263.1 583.0L257.4 583.0L257.1 587.2L257.1 587.2Q257.6 586.5 258.4 586.1Q259.2 585.8 260.3 585.8L260.3 585.8Q262.3 585.8 263.6 587.0Q264.9 588.3 264.9 590.4L264.9 590.4Q264.9 592.6 263.4 593.9Q261.9 595.3 259.6 595.3Z " clip-path="url(#satori_cp-id-0)" mask="url(#satori_om-id-0)"/><mask id="satori_om-id-0-1-1"><rect x="1015" y="557" width="137" height="26" fill="#fff" mask="url(#satori_om-id-0)"/></mask><path fill="#334155" d="M1018.4 577.8Q1018.1 578.2 1017.5 578.2Q1016.9 578.2 1016.5 577.8Q1016.2 577.5 1016.2 576.8L1016.2 576.8L1016.2 563.6Q1016.2 563.0 1016.5 562.6Q1016.9 562.2 1017.5 562.2Q1018.1 562.2 1018.5 562.6Q1018.8 563.0 1018.8 563.6L1018.8 563.6L1018.8 568.5L1018.9 568.5Q1019.4 567.5 1020.3 566.9Q1021.3 566.4 1022.5 566.4L1022.5 566.4Q1024.6 566.4 1025.9 568.0Q1027.2 569.5 1027.2 572.3L1027.2 572.3Q1027.2 575.0 1025.9 576.6Q1024.6 578.1 1022.5 578.1L1022.5 578.1Q1021.2 578.1 1020.3 577.6Q1019.4 577.0 1018.8 576.0L1018.8 576.0L1018.8 576.0L1018.8 576.8Q1018.8 577.5 1018.4 577.8ZM1021.6 575.9L1021.6 575.9Q1022.9 575.9 1023.7 574.9Q1024.4 574.0 1024.4 572.3Q1024.4 570.6 1023.7 569.6Q1022.9 568.6 1021.6 568.6L1021.6 568.6Q1020.4 568.6 1019.6 569.6Q1018.8 570.6 1018.8 572.3L1018.8 572.3Q1018.8 573.9 1019.6 574.9Q1020.4 575.9 1021.6 575.9ZM1030.5 582.2L1030.5 582.2Q1029.6 582.2 1029.1 581.9Q1028.7 581.5 1028.7 580.9L1028.7 580.9Q1028.7 580.5 1028.9 580.3Q1029.2 580.0 1029.7 580.0L1029.7 580.0Q1029.8 580.0 1030.0 580.0Q1030.1 580.0 1030.3 580.0L1030.3 580.0Q1031.3 580.0 1031.9 578.7L1031.9 578.7L1032.1 578.2L1028.3 568.3Q1028.2 567.9 1028.2 567.6L1028.2 567.6Q1028.2 567.0 1028.6 566.7Q1029.0 566.3 1029.6 566.3L1029.6 566.3Q1030.1 566.3 1030.4 566.6Q1030.7 566.8 1030.8 567.4L1030.8 567.4L1033.6 575.7L1033.6 575.7L1036.3 567.4Q1036.5 566.8 1036.8 566.6Q1037.1 566.3 1037.6 566.3L1037.6 566.3Q1038.2 566.3 1038.5 566.7Q1038.9 567.0 1038.9 567.5L1038.9 567.5Q1038.9 567.9 1038.8 568.3L1038.8 568.3L1035.0 578.4Q1034.2 580.5 1033.2 581.3Q1032.2 582.2 1030.5 582.2Z M1053.8 577.9L1046.4 577.9Q1045.8 577.9 1045.4 577.6Q1045.0 577.2 1045.0 576.5L1045.0 576.5L1045.0 563.7Q1045.0 563.0 1045.4 562.6Q1045.8 562.3 1046.4 562.3L1046.4 562.3Q1047.1 562.3 1047.5 562.6Q1047.8 563.0 1047.8 563.7L1047.8 563.7L1047.8 575.6L1053.8 575.6Q1054.3 575.6 1054.7 575.9Q1055.0 576.2 1055.0 576.8Q1055.0 577.3 1054.7 577.6Q1054.3 577.9 1053.8 577.9L1053.8 577.9ZM1059.0 564.5Q1058.6 565.0 1058.0 565.0Q1057.3 565.0 1056.9 564.5Q1056.5 564.1 1056.5 563.5L1056.5 563.5Q1056.5 562.9 1056.9 562.5Q1057.3 562.1 1058.0 562.1L1058.0 562.1Q1058.6 562.1 1059.0 562.5Q1059.5 562.9 1059.5 563.5L1059.5 563.5Q1059.5 564.1 1059.0 564.5ZM1058.9 577.8Q1058.6 578.2 1058.0 578.2Q1057.4 578.2 1057.0 577.8Q1056.6 577.4 1056.6 576.8L1056.6 576.8L1056.6 567.7Q1056.6 567.1 1057.0 566.7Q1057.4 566.3 1058.0 566.3Q1058.6 566.3 1058.9 566.7Q1059.3 567.1 1059.3 567.8L1059.3 567.8L1059.3 576.8Q1059.3 577.4 1058.9 577.8ZM1065.5 578.2L1065.5 578.2Q1063.7 578.2 1062.6 577.0Q1061.5 575.9 1061.5 573.9L1061.5 573.9L1061.5 567.7Q1061.5 567.1 1061.9 566.7Q1062.2 566.3 1062.8 566.3Q1063.4 566.3 1063.8 566.7Q1064.2 567.1 1064.2 567.8L1064.2 567.8L1064.2 573.4Q1064.2 574.6 1064.8 575.3Q1065.3 575.9 1066.5 575.9L1066.5 575.9Q1067.6 575.9 1068.3 575.1Q1069.0 574.4 1069.0 573.1L1069.0 573.1L1069.0 567.7Q1069.0 567.1 1069.4 566.7Q1069.7 566.3 1070.3 566.3L1070.3 566.3Q1070.9 566.3 1071.3 566.7Q1071.7 567.1 1071.7 567.8L1071.7 567.8L1071.7 576.8Q1071.7 577.4 1071.3 577.8Q1071.0 578.2 1070.4 578.2L1070.4 578.2Q1069.8 578.2 1069.4 577.8Q1069.1 577.4 1069.1 576.8L1069.1 576.8L1069.1 576.0L1069.0 576.0Q1068.1 578.2 1065.5 578.2ZM1075.7 575.2L1075.7 575.2Q1076.3 575.2 1076.6 575.5Q1076.9 575.8 1076.9 576.3L1076.9 576.3Q1076.9 576.6 1076.8 576.9L1076.8 576.9L1075.9 580.6Q1075.8 581.1 1075.5 581.3Q1075.3 581.5 1074.8 581.5Q1074.3 581.5 1074.1 581.2Q1073.8 581.0 1073.8 580.5L1073.8 580.5Q1073.8 580.4 1073.8 580.3L1073.8 580.3L1074.5 576.3Q1074.6 575.2 1075.7 575.2Z M1088.4 578.2L1088.4 578.2Q1086.7 578.2 1085.5 577.5Q1084.3 576.7 1083.8 575.4L1083.8 575.4Q1083.5 574.8 1083.5 574.2L1083.5 574.2Q1083.5 573.6 1083.9 573.2Q1084.2 572.9 1084.8 572.9L1084.8 572.9Q1085.3 572.9 1085.6 573.2Q1086.0 573.4 1086.1 574.0L1086.1 574.0Q1086.4 574.9 1086.9 575.3Q1087.5 575.8 1088.3 575.8L1088.3 575.8Q1089.5 575.8 1090.0 575.1Q1090.6 574.5 1090.6 573.2L1090.6 573.2L1090.6 563.7Q1090.6 563.0 1091.0 562.6Q1091.4 562.3 1092.0 562.3L1092.0 562.3Q1092.7 562.3 1093.0 562.6Q1093.4 563.0 1093.4 563.7L1093.4 563.7L1093.4 573.2Q1093.4 575.6 1092.1 576.9Q1090.7 578.2 1088.4 578.2ZM1097.8 578.1L1097.8 578.1Q1097.1 578.1 1096.7 577.6Q1096.3 577.2 1096.3 576.5L1096.3 576.5Q1096.3 575.9 1096.7 575.4Q1097.1 575.0 1097.8 575.0L1097.8 575.0Q1098.4 575.0 1098.9 575.4Q1099.3 575.9 1099.3 576.5L1099.3 576.5Q1099.3 577.2 1098.9 577.6Q1098.4 578.1 1097.8 578.1Z M1111.3 578.2L1111.3 578.2Q1108.7 578.2 1107.2 576.6Q1105.8 575.1 1105.8 572.3L1105.8 572.3Q1105.8 569.6 1107.2 567.9Q1108.7 566.3 1111.2 566.3L1111.2 566.3Q1113.5 566.3 1115.0 567.8Q1116.4 569.3 1116.4 571.6L1116.4 571.6Q1116.4 572.2 1116.1 572.6Q1115.8 572.9 1115.2 572.9L1115.2 572.9L1108.4 572.9L1108.4 573.0Q1108.4 574.4 1109.2 575.3Q1110.0 576.1 1111.3 576.1L1111.3 576.1Q1112.2 576.1 1112.8 575.8Q1113.5 575.4 1114.1 574.6L1114.1 574.6Q1114.5 574.2 1115.0 574.2L1115.0 574.2Q1115.5 574.2 1115.8 574.4Q1116.1 574.7 1116.1 575.2L1116.1 575.2Q1116.1 575.5 1115.9 575.9L1115.9 575.9Q1115.4 577.0 1114.2 577.6Q1112.9 578.2 1111.3 578.2ZM1108.5 571.1L1108.5 571.1L1113.8 571.1Q1113.7 569.9 1113.0 569.1Q1112.3 568.4 1111.2 568.4Q1110.0 568.4 1109.3 569.2Q1108.5 569.9 1108.5 571.1ZM1118.9 575.1L1118.9 575.1L1118.9 568.6L1118.1 568.6Q1117.7 568.6 1117.4 568.3Q1117.1 568.1 1117.1 567.6L1117.1 567.6Q1117.1 567.1 1117.4 566.8Q1117.6 566.6 1118.1 566.6L1118.1 566.6L1118.9 566.6L1118.9 565.0Q1118.9 564.4 1119.2 564.0Q1119.6 563.6 1120.2 563.6L1120.2 563.6Q1120.8 563.6 1121.2 564.0Q1121.5 564.4 1121.5 565.0L1121.5 565.0L1121.5 566.6L1122.8 566.6Q1123.3 566.6 1123.6 566.8Q1123.9 567.1 1123.9 567.6L1123.9 567.6Q1123.9 568.1 1123.6 568.3Q1123.3 568.6 1122.8 568.6L1122.8 568.6L1121.5 568.6L1121.5 574.6Q1121.5 575.2 1121.8 575.5Q1122.0 575.8 1122.6 575.9L1122.6 575.9L1122.8 575.9Q1123.9 576.0 1123.9 576.9L1123.9 576.9Q1123.9 577.5 1123.4 577.8Q1122.9 578.1 1122.0 578.1L1122.0 578.1L1121.9 578.1Q1118.9 578.1 1118.9 575.1Z M1133.3 578.1L1133.3 578.1Q1131.6 578.1 1130.5 577.2Q1129.4 576.2 1129.4 574.7L1129.4 574.7Q1129.4 573.2 1130.6 572.3Q1131.7 571.4 1133.8 571.3L1133.8 571.3L1136.8 571.1L1136.8 570.3Q1136.8 569.4 1136.2 568.9Q1135.7 568.4 1134.7 568.4L1134.7 568.4Q1133.9 568.4 1133.3 568.7Q1132.8 569.0 1132.3 569.8L1132.3 569.8Q1131.9 570.3 1131.2 570.3L1131.2 570.3Q1130.7 570.3 1130.4 570.0Q1130.1 569.7 1130.1 569.2L1130.1 569.2Q1130.1 568.9 1130.3 568.5L1130.3 568.5Q1130.7 567.5 1131.9 566.9Q1133.1 566.3 1134.8 566.3L1134.8 566.3Q1136.9 566.3 1138.2 567.4Q1139.4 568.4 1139.4 570.1L1139.4 570.1L1139.4 576.8Q1139.4 577.5 1139.1 577.8Q1138.7 578.2 1138.1 578.2L1138.1 578.2Q1137.6 578.2 1137.2 577.8Q1136.9 577.5 1136.9 576.9L1136.9 576.9L1136.9 576.1L1136.8 576.1Q1136.3 577.0 1135.3 577.6Q1134.4 578.1 1133.3 578.1ZM1134.1 576.1L1134.1 576.1Q1135.2 576.1 1136 575.4Q1136.8 574.7 1136.8 573.7L1136.8 573.7L1136.8 572.9L1134.2 573.0Q1133.2 573.1 1132.7 573.5Q1132.1 573.9 1132.1 574.6L1132.1 574.6Q1132.1 575.3 1132.7 575.7Q1133.2 576.1 1134.1 576.1ZM1144.0 577.8Q1143.6 578.2 1143.0 578.2Q1142.4 578.2 1142.0 577.8Q1141.7 577.4 1141.7 576.8L1141.7 576.8L1141.7 563.6Q1141.7 563.0 1142.0 562.6Q1142.4 562.2 1143.0 562.2Q1143.6 562.2 1144.0 562.6Q1144.3 563.0 1144.3 563.6L1144.3 563.6L1144.3 576.8Q1144.3 577.4 1144.0 577.8ZM1148.5 578.1L1148.5 578.1Q1147.8 578.1 1147.4 577.6Q1146.9 577.2 1146.9 576.5L1146.9 576.5Q1146.9 575.9 1147.4 575.4Q1147.8 575.0 1148.5 575.0L1148.5 575.0Q1149.1 575.0 1149.6 575.4Q1150.0 575.9 1150.0 576.5L1150.0 576.5Q1150.0 577.2 1149.6 577.6Q1149.1 578.1 1148.5 578.1Z " clip-path="url(#satori_cp-id-0)" mask="url(#satori_om-id-0)"/></svg>