<svg width="1200" height="630" viewBox="0 0 1200 630" xmlns="http://www.w3.org/2000/svg"><mask id="satori_om-id"><rect x="0" y="0" width="1200" height="630" fill="#fff"/></mask><defs><pattern id="satori_pattern_id-0_0" x="0" y="0" width="1" height="1" patternUnits="objectBoundingBox"><linearGradient id="satori_biid-0_0" x1="-0.09774620284174435" y1="0.18618324350808482" x2="1.0977462028417444" y2="0.8138167564919152" spreadMethod="pad"><stop offset="0%" stop-color="#f8fafc"/><stop offset="50%" stop-color="#eef2ff"/><stop offset="100%" stop-color="#ffffff"/></linearGradient><rect x="0" y="0" width="1200" height="630" fill="url(#satori_biid-0_0)"/></pattern></defs><clipPath id="satori_cp-id-0"><rect x="0" y="0" width="1200" height="630"/></clipPath><mask id="satori_om-id-0"><rect x="0" y="0" width="1200" height="630" fill="#fff"/></mask><rect x="0" y="0" width="1200" height="630" fill="url(#satori_pattern_id-0_0)"/><mask id="satori_om-id-0-0"><rect x="0" y="0" width="1200" height="509" fill="#fff" mask="url(#satori_om-id-0)"/></mask><mask id="satori_om-id-0-0-0"><rect x="72" y="72" width="1056" height="365" fill="#fff" mask="url(#satori_om-id-0)"/></mask><mask id="satori_om-id-0-0-0-0"><rect x="72" y="113" width="1056" height="38" fill="#fff" mask="url(#satori_om-id-0)"/></mask><path fill="#64748b" d="M82.7 143.2Q82.2 143.7 81.4 143.7Q80.6 143.7 80.1 143.2Q79.7 142.8 79.7 141.9L79.7 141.9L79.7 124.0L74.1 124.0Q73.4 124.0 73.0 123.5Q72.5 123.1 72.5 122.4Q72.5 121.8 73.0 121.3Q73.4 120.9 74.1 120.9L74.1 120.9L88.7 120.9Q89.4 120.9 89.9 121.3Q90.3 121.8 90.3 122.4Q90.3 123.1 89.9 123.5Q89.4 124.0 88.7 124.0L88.7 124.0L83.2 124.0L83.2 141.9Q83.2 142.8 82.7 143.2ZM95.5 143.3Q95.1 143.8 94.3 143.8Q93.6 143.8 93.1 143.3Q92.6 142.8 92.6 142.0L92.6 142.0L92.6 122.4Q92.6 121.6 93.1 121.1Q93.5 120.6 94.3 120.6L94.3 120.6Q95.1 120.6 95.5 121.1Q96.0 121.6 96.0 122.4L96.0 122.4L96.0 129.8L96.0 129.8Q96.7 128.3 98.1 127.5Q99.4 126.8 101.3 126.8L101.3 126.8Q103.9 126.8 105.5 128.4Q107.0 130.1 107.0 132.9L107.0 132.9L107.0 142.0Q107.0 142.8 106.5 143.3Q106.1 143.8 105.3 143.8L105.3 143.8Q104.6 143.8 104.1 143.3Q103.6 142.8 103.6 142.0L103.6 142.0L103.6 133.5Q103.6 131.7 102.7 130.7Q101.8 129.7 100.0 129.7L100.0 129.7Q98.2 129.7 97.1 130.8Q96 132.0 96 134.0L96 134.0L96 142.0Q96 142.8 95.5 143.3ZM116.0 143.8L116.0 143.8Q113.3 143.8 111.7 142.1Q110.2 140.5 110.2 137.7L110.2 137.7L110.2 128.5Q110.2 127.7 110.6 127.2Q111.1 126.7 111.9 126.7L111.9 126.7Q112.6 126.7 113.1 127.2Q113.6 127.7 113.6 128.5L113.6 128.5L113.6 137.0Q113.6 138.9 114.5 139.9Q115.3 140.9 117.1 140.9L117.1 140.9Q118.9 140.9 119.9 139.7Q121.0 138.5 121.0 136.6L121.0 136.6L121.0 128.5Q121.0 127.7 121.5 127.2Q121.9 126.7 122.7 126.7L122.7 126.7Q123.4 126.7 123.9 127.2Q124.4 127.7 124.4 128.5L124.4 128.5L124.4 142.0Q124.4 142.8 123.9 143.3Q123.5 143.8 122.8 143.8Q122.0 143.8 121.6 143.3Q121.1 142.8 121.1 142.1L121.1 142.1L121.1 140.7L121.0 140.7Q119.6 143.8 116.0 143.8ZM129.4 143.8L129.4 143.8Q128.6 143.8 128.1 143.3Q127.7 142.8 127.7 142.0L127.7 142.0L127.7 128.4Q127.7 127.7 128.1 127.2Q128.6 126.7 129.3 126.7L129.3 126.7Q130 126.7 130.4 127.2Q130.9 127.7 130.9 128.4L130.9 128.4L130.9 129.8L131.0 129.8Q131.3 128.5 132.3 127.6Q133.3 126.8 134.6 126.8L134.6 126.8Q135.5 126.8 135.9 127.2L135.9 127.2Q136.4 127.5 136.4 128.4L136.4 128.4Q136.4 129.1 135.9 129.5L135.9 129.5Q135.4 130.0 134.3 130.0L134.3 130.0Q132.7 130 131.9 131.0Q131.1 132.0 131.1 133.6L131.1 133.6L131.1 142.0Q131.1 142.8 130.6 143.3Q130.1 143.8 129.4 143.8ZM144.3 143.8L144.3 143.8Q141.9 143.8 140.2 142.9Q138.5 142.0 137.9 140.4L137.9 140.4Q137.7 140.1 137.7 139.7L137.7 139.7Q137.7 139.1 138.1 138.8Q138.5 138.4 139.2 138.4L139.2 138.4Q140.0 138.4 140.6 139.3L140.6 139.3Q141.3 140.3 142.1 140.8Q143.0 141.2 144.4 141.2L144.4 141.2Q145.9 141.2 146.8 140.6Q147.6 140.0 147.6 139.0L147.6 139.0Q147.6 138.2 147.1 137.7Q146.5 137.3 145.2 136.9L145.2 136.9L142.6 136.3Q137.9 135.2 137.9 131.7L137.9 131.7Q137.9 129.4 139.7 128.1Q141.5 126.7 144.4 126.7L144.4 126.7Q146.6 126.7 148.2 127.7Q149.9 128.7 150.3 130.2L150.3 130.2Q150.3 130.6 150.3 130.7L150.3 130.7Q150.3 131.3 150.0 131.6Q149.6 131.9 149 131.9L149 131.9Q148.1 131.9 147.6 131.2L147.6 131.2Q147.1 130.3 146.3 129.8Q145.5 129.3 144.3 129.3L144.3 129.3Q142.9 129.3 142.0 129.9Q141.2 130.5 141.2 131.5L141.2 131.5Q141.2 133.0 143.7 133.6L143.7 133.6L146.3 134.2Q148.9 134.8 150.0 135.9Q151.0 136.9 151.0 138.7L151.0 138.7Q151.0 141.0 149.2 142.4Q147.3 143.8 144.3 143.8ZM159.8 143.8L159.8 143.8Q156.7 143.8 154.8 141.4Q152.9 139.1 152.9 135.3Q152.9 131.4 154.8 129.1Q156.7 126.8 159.8 126.8L159.8 126.8Q161.5 126.8 162.9 127.6Q164.3 128.4 165.0 129.8L165.0 129.8L165.0 129.8L165.0 122.4Q165.0 121.6 165.5 121.1Q166.0 120.6 166.7 120.6L166.7 120.6Q167.5 120.6 167.9 121.1Q168.4 121.6 168.4 122.4L168.4 122.4L168.4 142.1Q168.4 142.9 167.9 143.3Q167.5 143.8 166.7 143.8L166.7 143.8Q166 143.8 165.5 143.3Q165.0 142.9 165.0 142.1L165.0 142.1L165.0 140.5L165.0 140.5Q164.3 142.0 163 142.9Q161.7 143.8 159.8 143.8ZM160.7 140.9L160.7 140.9Q162.7 140.9 163.9 139.4Q165.0 137.8 165.0 135.3L165.0 135.3Q165.0 132.7 163.9 131.2Q162.7 129.6 160.7 129.6L160.7 129.6Q158.7 129.6 157.5 131.1Q156.4 132.7 156.4 135.3L156.4 135.3Q156.4 137.9 157.5 139.4Q158.7 140.9 160.7 140.9ZM176.7 143.8L176.7 143.8Q174.3 143.8 172.7 142.4Q171.2 141 171.2 138.8L171.2 138.8Q171.2 136.6 172.8 135.4Q174.4 134.1 177.3 133.9L177.3 133.9L181.8 133.7L181.8 132.4Q181.8 131.0 180.9 130.3Q180.1 129.5 178.5 129.5L178.5 129.5Q177.3 129.5 176.4 130.0Q175.6 130.5 174.9 131.6L174.9 131.6Q174.4 132.3 173.5 132.3L173.5 132.3Q172.9 132.3 172.5 131.9Q172.0 131.5 172.0 130.9L172.0 130.9Q172.0 130.3 172.3 129.8L172.3 129.8Q173.0 128.4 174.7 127.6Q176.4 126.7 178.6 126.7L178.6 126.7Q181.6 126.7 183.4 128.2Q185.2 129.7 185.2 132.1L185.2 132.1L185.2 142.1Q185.2 142.8 184.7 143.3Q184.3 143.8 183.5 143.8L183.5 143.8Q182.8 143.8 182.4 143.3Q182.0 142.9 181.9 142.2L181.9 142.2L181.9 140.8L181.9 140.8Q181.2 142.1 179.7 142.9Q178.3 143.8 176.7 143.8ZM177.6 141.1L177.6 141.1Q179.4 141.1 180.6 140.0Q181.8 138.9 181.8 137.3L181.8 137.3L181.8 136.0L177.8 136.3Q176.2 136.4 175.4 137.0Q174.6 137.6 174.6 138.7L174.6 138.7Q174.6 139.8 175.4 140.4Q176.3 141.1 177.6 141.1ZM190.5 149.6L190.5 149.6Q189.3 149.6 188.7 149.2Q188.0 148.8 188.0 148.0L188.0 148.0Q188.0 147.4 188.4 147.1Q188.8 146.8 189.4 146.8L189.4 146.8Q189.5 146.8 189.8 146.8Q190.0 146.8 190.2 146.8L190.2 146.8Q191.9 146.8 192.7 144.6L192.7 144.6L193.0 143.6L187.5 129.3Q187.4 128.7 187.4 128.3L187.4 128.3Q187.4 127.6 187.8 127.2Q188.3 126.7 189.1 126.7L189.1 126.7Q189.7 126.7 190.1 127.0Q190.5 127.3 190.7 128.0L190.7 128.0L194.9 140.4L194.9 140.4L199.1 128.0Q199.3 127.3 199.7 127.0Q200.1 126.7 200.8 126.7L200.8 126.7Q201.5 126.7 201.9 127.2Q202.4 127.6 202.4 128.3L202.4 128.3Q202.4 128.7 202.2 129.2L202.2 129.2L196.5 144.3Q195.4 147.3 194.1 148.4Q192.8 149.6 190.5 149.6ZM207.2 139.7L207.2 139.7Q207.9 139.7 208.3 140.0Q208.7 140.4 208.7 141.1L208.7 141.1Q208.7 141.5 208.6 142.0L208.6 142.0L207.3 147.3Q207.0 148.5 205.8 148.5L205.8 148.5Q205.2 148.5 204.9 148.1Q204.5 147.8 204.5 147.3L204.5 147.3Q204.5 147.1 204.5 146.9L204.5 146.9L205.5 141.1Q205.8 139.7 207.2 139.7Z M228.1 143.9L228.1 143.9Q225.5 143.9 223.5 142.6Q221.5 141.3 220.4 138.9L220.4 138.9Q219.2 136.3 219.2 132.5L219.2 132.5Q219.2 126.8 221.6 123.7Q224.0 120.5 228.2 120.5L228.2 120.5Q230.6 120.5 232.4 121.5Q234.3 122.4 235.2 124.1L235.2 124.1Q235.6 124.8 235.6 125.4L235.6 125.4Q235.6 126.0 235.1 126.4Q234.7 126.8 234.0 126.8L234.0 126.8Q233.5 126.8 233.1 126.6Q232.8 126.3 232.3 125.7L232.3 125.7Q230.8 123.4 228.2 123.4L228.2 123.4Q225.5 123.4 224.1 125.7Q222.7 128.0 222.6 132.1L222.6 132.1L222.6 132.3L222.7 132.3Q223.4 130.7 225.0 129.7Q226.7 128.7 228.9 128.7L228.9 128.7Q232.1 128.7 234.2 130.8Q236.3 132.9 236.3 136.1L236.3 136.1Q236.3 139.5 234 141.7Q231.7 143.9 228.1 143.9ZM228.0 141.0L228.0 141.0Q230.1 141.0 231.5 139.6Q232.8 138.2 232.8 136.2L232.8 136.2Q232.8 134.2 231.5 132.8Q230.2 131.5 228.1 131.5Q226.0 131.5 224.6 132.8Q223.3 134.1 223.3 136.1L223.3 136.1Q223.3 138.2 224.7 139.6Q226.0 141.0 228.0 141.0Z M249.0 143.2Q248.6 143.7 247.8 143.7Q247 143.7 246.5 143.2Q246.1 142.8 246.1 141.9L246.1 141.9L246.1 122.6Q246.1 121.7 246.6 121.2Q247.1 120.7 248.0 120.7L248.0 120.7Q248.6 120.7 249.0 120.9Q249.4 121.2 249.9 121.8L249.9 121.8L261.0 137.5L261.1 137.5L261.1 122.5Q261.1 121.6 261.5 121.1Q262 120.7 262.8 120.7L262.8 120.7Q263.6 120.7 264.0 121.1Q264.5 121.6 264.5 122.5L264.5 122.5L264.5 141.9Q264.5 142.8 264 143.2Q263.5 143.7 262.6 143.7L262.6 143.7Q262 143.7 261.6 143.5Q261.2 143.3 260.8 142.6L260.8 142.6L249.6 126.9L249.5 126.9L249.5 141.9Q249.5 142.8 249.0 143.2ZM281.0 141.5Q278.8 143.8 275.3 143.8Q271.8 143.8 269.6 141.5Q267.5 139.2 267.5 135.3L267.5 135.3Q267.5 131.3 269.6 129.0Q271.8 126.7 275.3 126.7Q278.8 126.7 281.0 129.0Q283.1 131.3 283.1 135.3L283.1 135.3Q283.1 139.2 281.0 141.5ZM275.3 141L275.3 141Q277.3 141 278.5 139.5Q279.7 138.0 279.7 135.3L279.7 135.3Q279.7 132.5 278.5 131.0Q277.3 129.5 275.3 129.5Q273.3 129.5 272.1 131.0Q270.9 132.5 270.9 135.3L270.9 135.3Q270.9 138.0 272.1 139.5Q273.3 141 275.3 141ZM292.0 143.8L292.0 143.8Q291.1 143.8 290.6 143.4Q290.1 143.0 289.7 142.0L289.7 142.0L284.8 129.2Q284.6 128.7 284.6 128.3L284.6 128.3Q284.6 127.6 285.1 127.2Q285.6 126.7 286.3 126.7L286.3 126.7Q287.5 126.7 287.9 128.1L287.9 128.1L292.0 140.2L292.1 140.2L296.2 128.0Q296.6 126.7 297.7 126.7L297.7 126.7Q298.5 126.7 298.9 127.2Q299.4 127.6 299.4 128.3L299.4 128.3Q299.4 128.7 299.2 129.2L299.2 129.2L294.3 142.0Q294.0 142.9 293.5 143.4Q292.9 143.8 292.0 143.8ZM308.8 143.8L308.8 143.8Q305.1 143.8 303.0 141.5Q300.9 139.3 300.9 135.3L300.9 135.3Q300.9 131.4 303.0 129.1Q305.1 126.7 308.6 126.7L308.6 126.7Q311.8 126.7 313.9 128.9Q316.0 131 316.0 134.4L316.0 134.4Q316.0 135.2 315.5 135.6Q315.1 136.1 314.3 136.1L314.3 136.1L304.3 136.1L304.3 136.2Q304.3 138.4 305.5 139.7Q306.7 141.0 308.7 141.0L308.7 141.0Q310.1 141.0 311.1 140.5Q312.0 140.0 313.0 138.7L313.0 138.7Q313.5 138.1 314.2 138.1L314.2 138.1Q314.8 138.1 315.2 138.5Q315.6 138.9 315.6 139.5L315.6 139.5Q315.6 139.8 315.3 140.4L315.3 140.4Q314.5 142 312.8 142.9Q311.1 143.8 308.8 143.8ZM304.4 133.7L304.4 133.7L312.6 133.7Q312.5 131.8 311.4 130.6Q310.3 129.5 308.5 129.5L308.5 129.5Q306.8 129.5 305.6 130.6Q304.5 131.8 304.4 133.7ZM321.5 143.3Q321.0 143.8 320.3 143.8Q319.5 143.8 319.0 143.3Q318.6 142.8 318.6 142.0L318.6 142.0L318.6 128.5Q318.6 127.7 319.0 127.2Q319.5 126.7 320.2 126.7Q320.9 126.7 321.3 127.2Q321.8 127.7 321.8 128.5L321.8 128.5L321.8 129.8L321.9 129.8Q322.4 128.4 323.7 127.6Q324.9 126.8 326.5 126.8L326.5 126.8Q328.2 126.8 329.4 127.6Q330.6 128.4 331.1 130.0L331.1 130.0L331.2 130.0Q331.8 128.5 333.2 127.6Q334.6 126.8 336.3 126.8L336.3 126.8Q338.8 126.8 340.2 128.2Q341.7 129.7 341.7 132.2L341.7 132.2L341.7 142.0Q341.7 142.8 341.2 143.3Q340.8 143.8 340 143.8Q339.2 143.8 338.8 143.3Q338.3 142.8 338.3 142.0L338.3 142.0L338.3 133.0Q338.3 131.4 337.5 130.5Q336.7 129.6 335.2 129.6Q333.7 129.6 332.7 130.6Q331.8 131.6 331.8 133.2L331.8 133.2L331.8 142.0Q331.8 142.8 331.3 143.3Q330.9 143.8 330.1 143.8Q329.4 143.8 328.9 143.3Q328.5 142.8 328.5 142.0L328.5 142.0L328.5 132.7Q328.5 131.3 327.6 130.5Q326.8 129.6 325.4 129.6L325.4 129.6Q323.9 129.6 322.9 130.7Q321.9 131.7 321.9 133.3L321.9 133.3L321.9 142.0Q321.9 142.8 321.5 143.3ZM346.7 143.8L346.7 143.8Q346.0 143.8 345.5 143.3Q345.1 142.9 345.1 142.1L345.1 142.1L345.1 122.4Q345.1 121.6 345.5 121.1Q346.0 120.6 346.8 120.6Q347.5 120.6 348.0 121.1Q348.5 121.6 348.5 122.4L348.5 122.4L348.5 129.8L348.5 129.8Q349.3 128.4 350.6 127.6Q352 126.8 353.7 126.8L353.7 126.8Q356.8 126.8 358.7 129.1Q360.6 131.4 360.6 135.3L360.6 135.3Q360.6 139.2 358.7 141.5Q356.8 143.8 353.7 143.8L353.7 143.8Q351.9 143.8 350.6 142.9Q349.2 142.1 348.4 140.7L348.4 140.7L348.4 140.7L348.4 142.1Q348.4 142.9 347.9 143.3Q347.4 143.8 346.7 143.8ZM352.8 140.9L352.8 140.9Q354.8 140.9 356.0 139.4Q357.1 137.9 357.1 135.3L357.1 135.3Q357.1 132.7 355.9 131.1Q354.8 129.6 352.8 129.6L352.8 129.6Q350.9 129.6 349.7 131.2Q348.4 132.7 348.4 135.3L348.4 135.3Q348.4 137.8 349.7 139.3Q350.9 140.9 352.8 140.9ZM370.3 143.8L370.3 143.8Q366.6 143.8 364.5 141.5Q362.5 139.3 362.5 135.3L362.5 135.3Q362.5 131.4 364.5 129.1Q366.6 126.7 370.1 126.7L370.1 126.7Q373.4 126.7 375.4 128.9Q377.5 131 377.5 134.4L377.5 134.4Q377.5 135.2 377.0 135.6Q376.6 136.1 375.8 136.1L375.8 136.1L365.9 136.1L365.9 136.2Q365.9 138.4 367.0 139.7Q368.2 141.0 370.2 141.0L370.2 141.0Q371.6 141.0 372.6 140.5Q373.5 140.0 374.5 138.7L374.5 138.7Q375.0 138.1 375.7 138.1L375.7 138.1Q376.3 138.1 376.7 138.5Q377.1 138.9 377.1 139.5L377.1 139.5Q377.1 139.8 376.8 140.4L376.8 140.4Q376.0 142 374.3 142.9Q372.6 143.8 370.3 143.8ZM365.9 133.7L365.9 133.7L374.1 133.7Q374.0 131.8 372.9 130.6Q371.8 129.5 370.1 129.5L370.1 129.5Q368.3 129.5 367.2 130.6Q366 131.8 365.9 133.7ZM381.8 143.8L381.8 143.8Q381 143.8 380.5 143.3Q380.1 142.8 380.1 142.0L380.1 142.0L380.1 128.4Q380.1 127.7 380.5 127.2Q381.0 126.7 381.7 126.7L381.7 126.7Q382.4 126.7 382.8 127.2Q383.3 127.7 383.3 128.4L383.3 128.4L383.3 129.8L383.4 129.8Q383.7 128.5 384.7 127.6Q385.7 126.8 387.0 126.8L387.0 126.8Q387.9 126.8 388.3 127.2L388.3 127.2Q388.8 127.5 388.8 128.4L388.8 128.4Q388.8 129.1 388.3 129.5L388.3 129.5Q387.8 130.0 386.7 130.0L386.7 130.0Q385.0 130 384.3 131.0Q383.5 132.0 383.5 133.6L383.5 133.6L383.5 142.0Q383.5 142.8 383.0 143.3Q382.5 143.8 381.8 143.8Z M411.2 143.5L398.7 143.5Q398.0 143.5 397.5 143.1Q397.1 142.7 397.1 142L397.1 142Q397.1 141.5 397.3 141.1Q397.5 140.8 398.0 140.2L398.0 140.2L405.1 133.0Q407.3 130.8 408.0 129.6Q408.8 128.4 408.8 127.1L408.8 127.1Q408.8 125.5 407.6 124.4Q406.5 123.4 404.8 123.4L404.8 123.4Q401.5 123.4 400.3 126.7L400.3 126.7Q400.0 127.3 399.7 127.6Q399.3 127.9 398.7 127.9L398.7 127.9Q398 127.9 397.6 127.5Q397.2 127.0 397.2 126.4L397.2 126.4Q397.2 126 397.3 125.6L397.3 125.6Q397.5 124.7 398.0 123.8Q398.6 122.9 399.5 122.2Q400.5 121.4 401.9 121.0Q403.2 120.5 404.8 120.5L404.8 120.5Q408.1 120.5 410.1 122.3Q412.2 124.1 412.2 126.9L412.2 126.9Q412.2 128.8 411.2 130.5Q410.1 132.1 407.2 135.0L407.2 135.0L401.8 140.4L401.8 140.5L411.2 140.5Q411.9 140.5 412.3 140.9Q412.7 141.3 412.7 142L412.7 142Q412.7 142.7 412.3 143.1Q411.9 143.5 411.2 143.5L411.2 143.5ZM430.3 140.7Q428.0 143.9 423.9 143.9Q419.9 143.9 417.6 140.7Q415.3 137.6 415.3 132.2L415.3 132.2Q415.3 126.8 417.6 123.6Q419.9 120.5 423.9 120.5L423.9 120.5Q427.9 120.5 430.2 123.6Q432.5 126.8 432.5 132.2L432.5 132.2Q432.5 137.6 430.3 140.7ZM423.9 141.0L423.9 141.0Q426.3 141.0 427.7 138.6Q429 136.3 429 132.2L429 132.2Q429 128.1 427.7 125.8Q426.3 123.4 423.9 123.4Q421.5 123.4 420.2 125.8Q418.8 128.1 418.8 132.2L418.8 132.2Q418.8 136.3 420.2 138.6Q421.5 141.0 423.9 141.0ZM449.7 143.5L437.2 143.5Q436.5 143.5 436.0 143.1Q435.6 142.7 435.6 142L435.6 142Q435.6 141.5 435.8 141.1Q436.0 140.8 436.5 140.2L436.5 140.2L443.6 133.0Q445.8 130.8 446.5 129.6Q447.3 128.4 447.3 127.1L447.3 127.1Q447.3 125.5 446.1 124.4Q445.0 123.4 443.3 123.4L443.3 123.4Q440.0 123.4 438.8 126.7L438.8 126.7Q438.5 127.3 438.2 127.6Q437.8 127.9 437.2 127.9L437.2 127.9Q436.5 127.9 436.1 127.5Q435.7 127.0 435.7 126.4L435.7 126.4Q435.7 126 435.8 125.6L435.8 125.6Q436.0 124.7 436.5 123.8Q437.1 122.9 438.0 122.2Q439.0 121.4 440.4 121.0Q441.7 120.5 443.3 120.5L443.3 120.5Q446.6 120.5 448.6 122.3Q450.7 124.1 450.7 126.9L450.7 126.9Q450.7 128.8 449.7 130.5Q448.6 132.1 445.7 135.0L445.7 135.0L440.3 140.4L440.3 140.5L449.7 140.5Q450.4 140.5 450.8 140.9Q451.2 141.3 451.2 142L451.2 142Q451.2 142.7 450.8 143.1Q450.4 143.5 449.7 143.5L449.7 143.5ZM462.2 143.9L462.2 143.9Q459.7 143.9 457.7 142.8Q455.7 141.6 454.9 139.8L454.9 139.8Q454.5 139.0 454.5 138.2L454.5 138.2Q454.5 137.5 454.9 137.1Q455.3 136.7 456.1 136.7L456.1 136.7Q456.6 136.7 457.0 137.0Q457.4 137.2 457.6 137.8L457.6 137.8Q458.2 139.3 459.4 140.1Q460.6 141.0 462.3 141.0L462.3 141.0Q464.4 141.0 465.8 139.6Q467.1 138.3 467.1 136.1L467.1 136.1Q467.1 134.0 465.7 132.7Q464.4 131.4 462.3 131.4L462.3 131.4Q460.0 131.4 458.6 132.9L458.6 132.9Q457.9 133.6 457.5 133.9Q457.1 134.1 456.5 134.1L456.5 134.1Q455.7 134.1 455.2 133.6Q454.8 133.0 454.8 132.3L454.8 132.3L454.8 132.0L455.6 123.3Q455.7 122.0 456.3 121.5Q457.0 120.9 458.3 120.9L458.3 120.9L467.8 120.9Q468.5 120.9 469.0 121.3Q469.4 121.7 469.4 122.4Q469.4 123.1 469.0 123.5Q468.5 123.9 467.8 123.9L467.8 123.9L458.6 123.9L458.0 130.9L458.0 130.9Q458.8 129.8 460.1 129.2Q461.4 128.6 463.1 128.6L463.1 128.6Q466.4 128.6 468.4 130.7Q470.5 132.8 470.5 136.0L470.5 136.0Q470.5 139.5 468.2 141.7Q465.9 143.9 462.2 143.9Z " clip-path="url(#satori_cp-id-0)" mask="url(#satori_om-id-0)"/><mask id="satori_om-id-0-0-0-1"><rect x="72" y="175" width="1056" height="221" fill="#fff" mask="url(#satori_om-id-0)"/></mask><path fill="#0f172a" d="M83.9 233.8Q82.7 235.1 80.5 235.1Q78.3 235.1 77 233.8Q75.8 232.6 75.8 230.2L75.8 230.2L75.8 194.4Q75.8 192.1 77 190.8Q78.3 189.5 80.5 189.5L80.5 189.5L94.1 189.5Q101.1 189.5 105.4 193.7Q109.7 198.0 109.7 204.9L109.7 204.9Q109.7 211.8 105.3 216.1Q100.8 220.3 93.6 220.3L93.6 220.3L85.2 220.3L85.2 230.2Q85.2 232.6 83.9 233.8ZM85.2 196.9L85.2 213.0L91.6 213.0Q95.6 213.0 97.9 210.9Q100.1 208.8 100.1 204.9Q100.1 201.1 97.9 199.0Q95.7 196.9 91.6 196.9L91.6 196.9L85.2 196.9ZM122.6 234.0Q121.3 235.2 119.3 235.2Q117.2 235.2 116.0 234.0Q114.7 232.7 114.7 230.5L114.7 230.5L114.7 193.6Q114.7 191.3 116.0 190.0Q117.2 188.8 119.3 188.8Q121.3 188.8 122.6 190.0Q123.8 191.3 123.8 193.6L123.8 193.6L123.8 230.5Q123.8 232.7 122.6 234.0ZM139.9 235.1L139.9 235.1Q135.1 235.1 131.9 232.2Q128.7 229.4 128.7 224.9L128.7 224.9Q128.7 220.4 132.1 217.8Q135.4 215.2 141.8 214.8L141.8 214.8L150.2 214.3L150.2 212.1Q150.2 209.8 148.7 208.5Q147.2 207.1 144.6 207.1L144.6 207.1Q142.5 207.1 141.0 207.9Q139.6 208.7 138.1 210.7L138.1 210.7Q136.6 212.4 134.4 212.4L134.4 212.4Q132.8 212.4 131.7 211.4Q130.6 210.4 130.6 208.9L130.6 208.9Q130.6 207.8 131.1 206.8L131.1 206.8Q132.3 203.8 136 202.1Q139.8 200.3 145.0 200.3L145.0 200.3Q151.4 200.3 155.3 203.4Q159.2 206.5 159.2 211.5L159.2 211.5L159.2 230.6Q159.2 232.8 157.9 234.0Q156.7 235.2 154.7 235.2L154.7 235.2Q152.8 235.2 151.6 234.2Q150.5 233.1 150.3 231.1L150.3 231.1L150.3 229.4L150.2 229.4Q148.8 232.1 146.0 233.6Q143.1 235.1 139.9 235.1ZM142.9 228.5L142.9 228.5Q145.9 228.5 148.1 226.7Q150.2 225.0 150.2 222.3L150.2 222.3L150.2 219.8L143.1 220.3Q140.6 220.5 139.2 221.6Q137.8 222.6 137.8 224.4L137.8 224.4Q137.8 226.3 139.2 227.4Q140.6 228.5 142.9 228.5ZM172.9 234.0Q171.7 235.2 169.6 235.2Q167.5 235.2 166.3 234.0Q165.0 232.7 165.0 230.5L165.0 230.5L165.0 205.0Q165.0 202.8 166.2 201.6Q167.4 200.4 169.4 200.4Q171.5 200.4 172.8 201.6Q174 202.9 174 205.0L174 205.0L174 206.9L174.2 206.9Q176.9 200.4 184.5 200.4L184.5 200.4Q190.1 200.4 193.1 203.7Q196.1 207.1 196.1 213.0L196.1 213.0L196.1 230.5Q196.1 232.7 194.9 234.0Q193.6 235.2 191.6 235.2Q189.5 235.2 188.3 234.0Q187 232.7 187 230.5L187 230.5L187 214.9Q187 211.6 185.4 209.8Q183.9 208.0 180.8 208.0Q177.8 208.0 176.0 210.0Q174.2 212.1 174.2 215.3L174.2 215.3L174.2 230.5Q174.2 232.7 172.9 234.0ZM238.9 229.0Q233.1 235.3 223.0 235.3Q213 235.3 207.1 229.0Q201.3 222.8 201.3 212.0L201.3 212.0Q201.3 201.2 207.1 195.0Q213 188.7 223.0 188.7Q233.1 188.7 238.9 195.0Q244.8 201.2 244.8 212.0L244.8 212.0Q244.8 222.8 238.9 229.0ZM223.0 227.4L223.0 227.4Q228.6 227.4 231.8 223.3Q235.1 219.1 235.1 212.0L235.1 212.0Q235.1 204.9 231.8 200.7Q228.6 196.6 223.0 196.6Q217.5 196.6 214.2 200.7Q210.9 204.9 210.9 212.0L210.9 212.0Q210.9 219.1 214.2 223.3Q217.5 227.4 223.0 227.4ZM261.3 235.2L261.3 235.2Q259.0 235.2 257.6 234.1Q256.3 232.9 255.5 230.4L255.5 230.4L248.8 207.1Q248.3 205.4 248.3 204.3L248.3 204.3Q248.3 202.6 249.5 201.5Q250.8 200.4 252.7 200.4L252.7 200.4Q256.2 200.4 257.0 204.2L257.0 204.2L261.9 225.9L262.1 225.9L267.3 204.6Q268.2 200.4 272.5 200.4L272.5 200.4Q274.5 200.4 275.8 201.4Q277.1 202.5 277.6 204.6L277.6 204.6L282.8 225.9L283.0 225.9L288.0 204.2Q288.3 202.3 289.4 201.3Q290.5 200.4 292.2 200.4L292.2 200.4Q294.1 200.4 295.3 201.4Q296.5 202.5 296.5 204.2L296.5 204.2Q296.5 205.3 296 207.0L296 207.0L289.3 230.4Q288.5 232.9 287.1 234.1Q285.8 235.2 283.4 235.2L283.4 235.2Q280.9 235.2 279.5 234.1Q278.1 232.9 277.5 230.4L277.5 230.4L272.4 210.9L272.2 210.9L267.2 230.4Q266.6 232.9 265.2 234.1Q263.8 235.2 261.3 235.2ZM308.7 234.0Q307.5 235.2 305.4 235.2Q303.3 235.2 302.1 234.0Q300.8 232.7 300.8 230.5L300.8 230.5L300.8 193.6Q300.8 191.3 302.1 190.0Q303.3 188.8 305.4 188.8Q307.5 188.8 308.7 190.0Q310.0 191.3 310.0 193.6L310.0 193.6L310.0 230.5Q310.0 232.7 308.7 234.0ZM325.6 211.1Q324.2 212.6 322.1 212.6Q320.0 212.6 318.5 211.1Q317.0 209.6 317.0 207.6L317.0 207.6Q317.0 205.4 318.5 204.0Q320.0 202.5 322.1 202.5Q324.2 202.5 325.6 204.0Q327.1 205.5 327.1 207.6Q327.1 209.6 325.6 211.1ZM325.6 233.5Q324.2 234.9 322.1 234.9Q320.0 234.9 318.5 233.5Q317.0 232.0 317.0 229.9Q317.0 227.8 318.5 226.3Q320.0 224.9 322.1 224.9Q324.2 224.9 325.6 226.3Q327.1 227.8 327.1 229.9Q327.1 232.0 325.6 233.5Z M350.3 235.1L350.3 235.1Q348.2 235.1 346.9 233.9Q345.6 232.7 345.6 230.7L345.6 230.7Q345.6 229.5 346.2 227.7L346.2 227.7L358.5 194.2Q359.5 191.4 361.2 190.1Q362.9 188.8 365.6 188.8L365.6 188.8Q368.3 188.8 370.1 190.1Q371.8 191.4 372.8 194.1L372.8 194.1L385.2 227.7Q385.8 229.4 385.8 230.7L385.8 230.7Q385.8 232.6 384.5 233.9Q383.1 235.1 381.1 235.1L381.1 235.1Q379.1 235.1 377.9 234.2Q376.8 233.2 376.2 231.0L376.2 231.0L373.8 223.9L357.5 223.9L355.1 230.9Q354.5 233.1 353.3 234.1Q352.2 235.1 350.3 235.1ZM365.4 198.1L359.6 216.6L371.6 216.6L365.6 198.1L365.4 198.1ZM402.6 235.2L402.6 235.2Q397.1 235.2 393.8 231.8Q390.6 228.5 390.6 222.6L390.6 222.6L390.6 205.1Q390.6 202.9 391.8 201.6Q393.1 200.4 395.1 200.4Q397.2 200.4 398.4 201.6Q399.7 202.9 399.7 205.1L399.7 205.1L399.7 220.7Q399.7 224.1 401.3 225.8Q402.9 227.6 405.9 227.6Q409.0 227.6 410.8 225.6Q412.5 223.6 412.5 220.2L412.5 220.2L412.5 205.1Q412.5 202.9 413.8 201.6Q415.0 200.4 417.1 200.4Q419.2 200.4 420.4 201.6Q421.7 202.9 421.7 205.1L421.7 205.1L421.7 230.6Q421.7 232.8 420.5 234.0Q419.3 235.2 417.3 235.2Q415.2 235.2 414.0 234.0Q412.8 232.8 412.8 230.6L412.8 230.6L412.8 228.5L412.7 228.5Q410.0 235.2 402.6 235.2ZM430.0 226.0L430.0 226.0L430.0 207.9L428.3 207.9Q426.7 207.9 425.7 207.0Q424.8 206.1 424.8 204.5Q424.8 202.9 425.7 202.0Q426.7 201.1 428.3 201.1L428.3 201.1L430.0 201.1L430.0 197.3Q430.0 195.1 431.3 193.8Q432.5 192.6 434.6 192.6Q436.7 192.6 437.9 193.8Q439.2 195.1 439.2 197.3L439.2 197.3L439.2 201.1L442.4 201.1Q444 201.1 444.9 202.0Q445.9 202.9 445.9 204.5Q445.9 206.1 444.9 207.0Q444 207.9 442.4 207.9L442.4 207.9L439.2 207.9L439.2 224.0Q439.2 225.7 439.8 226.6Q440.5 227.4 441.9 227.5L441.9 227.5L442.5 227.6Q444.3 227.7 445.1 228.5Q446 229.3 446 230.9L446 230.9Q446 232.8 444.3 233.9Q442.5 234.9 439.5 234.9L439.5 234.9L439.2 234.9Q430.0 234.9 430.0 226.0ZM477.8 230.6Q473.4 235.3 465.7 235.3Q458.1 235.3 453.6 230.6Q449.1 226.0 449.1 217.8L449.1 217.8Q449.1 209.7 453.6 205.0Q458.2 200.3 465.7 200.3L465.7 200.3Q473.3 200.3 477.8 205.0Q482.3 209.7 482.3 217.8L482.3 217.8Q482.3 226.0 477.8 230.6ZM465.7 228.3L465.7 228.3Q469.1 228.3 471.1 225.6Q473.0 222.8 473.0 217.8L473.0 217.8Q473.0 212.9 471.1 210.1Q469.1 207.3 465.7 207.3Q462.3 207.3 460.4 210.1Q458.4 212.9 458.4 217.8L458.4 217.8Q458.4 222.8 460.3 225.6Q462.3 228.3 465.7 228.3ZM491.6 235.2L491.6 235.2Q489.5 235.2 488.2 234.0Q487 232.7 487 230.5L487 230.5L487 205.0Q487 202.8 488.2 201.6Q489.4 200.4 491.4 200.4Q493.4 200.4 494.6 201.6Q495.8 202.8 495.8 205.0L495.8 205.0L495.8 207.1L496 207.1Q497.1 204.1 499.6 202.2Q502.2 200.4 505.6 200.4L505.6 200.4Q509.2 200.4 511.6 202.2Q514.1 204.0 514.9 207.3L514.9 207.3L515.1 207.3Q516.2 204.1 519.0 202.3Q521.8 200.4 525.5 200.4L525.5 200.4Q530.4 200.4 533.5 203.5Q536.5 206.6 536.5 211.7L536.5 211.7L536.5 230.5Q536.5 232.7 535.2 234.0Q534.0 235.2 531.9 235.2L531.9 235.2Q529.8 235.2 528.6 234.0Q527.3 232.7 527.3 230.5L527.3 230.5L527.3 214.0Q527.3 211.1 525.9 209.5Q524.5 208.0 521.9 208.0L521.9 208.0Q519.3 208.0 517.7 209.7Q516.1 211.4 516.1 214.2L516.1 214.2L516.1 230.5Q516.1 232.7 515.0 234.0Q513.8 235.2 511.7 235.2L511.7 235.2Q509.7 235.2 508.5 234.0Q507.3 232.7 507.3 230.5L507.3 230.5L507.3 213.7Q507.3 211.0 505.9 209.5Q504.5 208.0 501.9 208.0L501.9 208.0Q499.3 208.0 497.7 209.7Q496.1 211.5 496.1 214.3L496.1 214.3L496.1 230.5Q496.1 232.7 494.9 234.0Q493.6 235.2 491.6 235.2ZM552.2 235.1L552.2 235.1Q547.3 235.1 544.1 232.2Q540.9 229.4 540.9 224.9L540.9 224.9Q540.9 220.4 544.3 217.8Q547.7 215.2 554 214.8L554 214.8L562.4 214.3L562.4 212.1Q562.4 209.8 560.9 208.5Q559.4 207.1 556.8 207.1L556.8 207.1Q554.7 207.1 553.3 207.9Q551.8 208.7 550.3 210.7L550.3 210.7Q548.8 212.4 546.7 212.4L546.7 212.4Q545.0 212.4 544.0 211.4Q542.9 210.4 542.9 208.9L542.9 208.9Q542.9 207.8 543.3 206.8L543.3 206.8Q544.5 203.8 548.3 202.1Q552 200.3 557.2 200.3L557.2 200.3Q563.7 200.3 567.5 203.4Q571.4 206.5 571.4 211.5L571.4 211.5L571.4 230.6Q571.4 232.8 570.2 234.0Q569.0 235.2 567.0 235.2L567.0 235.2Q565.1 235.2 563.9 234.2Q562.7 233.1 562.6 231.1L562.6 231.1L562.6 229.4L562.4 229.4Q561.0 232.1 558.2 233.6Q555.4 235.1 552.2 235.1ZM555.2 228.5L555.2 228.5Q558.2 228.5 560.3 226.7Q562.4 225.0 562.4 222.3L562.4 222.3L562.4 219.8L555.4 220.3Q552.8 220.5 551.4 221.6Q550.0 222.6 550.0 224.4L550.0 224.4Q550.0 226.3 551.4 227.4Q552.8 228.5 555.2 228.5ZM579.7 226.0L579.7 226.0L579.7 207.9L578.0 207.9Q576.3 207.9 575.4 207.0Q574.4 206.1 574.4 204.5Q574.4 202.9 575.4 202.0Q576.3 201.1 578.0 201.1L578.0 201.1L579.7 201.1L579.7 197.3Q579.7 195.1 580.9 193.8Q582.2 192.6 584.3 192.6Q586.4 192.6 587.6 193.8Q588.8 195.1 588.8 197.3L588.8 197.3L588.8 201.1L592.1 201.1Q593.7 201.1 594.6 202.0Q595.6 202.9 595.6 204.5Q595.6 206.1 594.6 207.0Q593.7 207.9 592.1 207.9L592.1 207.9L588.8 207.9L588.8 224.0Q588.8 225.7 589.5 226.6Q590.2 227.4 591.6 227.5L591.6 227.5L592.2 227.6Q594.0 227.7 594.8 228.5Q595.7 229.3 595.7 230.9L595.7 230.9Q595.7 232.8 593.9 233.9Q592.2 234.9 589.2 234.9L589.2 234.9L588.9 234.9Q579.7 234.9 579.7 226.0ZM615.4 235.3L615.4 235.3Q607.6 235.3 603.2 230.7Q598.8 226.1 598.8 218.0L598.8 218.0Q598.8 209.9 603.2 205.1Q607.6 200.3 615 200.3L615 200.3Q622.1 200.3 626.5 204.7Q630.9 209.1 630.9 215.9L630.9 215.9Q630.9 217.8 629.8 218.9Q628.8 219.9 626.9 219.9L626.9 219.9L607.8 219.9L607.8 220.3Q607.8 224.0 609.9 226.3Q611.9 228.5 615.4 228.5L615.4 228.5Q617.9 228.5 619.7 227.6Q621.6 226.7 623.4 224.5L623.4 224.5Q624.7 223.1 626.4 223.1L626.4 223.1Q627.9 223.1 628.9 224.1Q629.9 225.0 629.9 226.5L629.9 226.5Q629.9 227.6 629.3 228.7L629.3 228.7Q627.7 231.8 624.0 233.5Q620.3 235.3 615.4 235.3ZM607.9 214.3L607.9 214.3L622.1 214.3Q622.0 211.0 620.0 209.1Q618.1 207.1 615.1 207.1Q612.1 207.1 610.1 209.1Q608.1 211.1 607.9 214.3ZM648 235.1L648 235.1Q641.7 235.1 638.0 230.4Q634.3 225.8 634.3 217.7L634.3 217.7Q634.3 209.8 638.0 205.1Q641.8 200.5 648.1 200.5L648.1 200.5Q651.6 200.5 654.3 202.2Q657.0 204.0 658.3 206.8L658.3 206.8L658.5 206.8L658.5 193.6Q658.5 191.3 659.7 190.0Q661.0 188.8 663.0 188.8Q665.1 188.8 666.3 190.0Q667.6 191.3 667.6 193.6L667.6 193.6L667.6 230.6Q667.6 232.8 666.4 234.0Q665.1 235.2 663.1 235.2L663.1 235.2Q661.0 235.2 659.8 234.0Q658.5 232.8 658.5 230.6L658.5 230.6L658.5 228.6L658.3 228.6Q657.2 231.6 654.5 233.3Q651.8 235.1 648 235.1ZM651.1 227.7L651.1 227.7Q654.5 227.7 656.5 225.1Q658.5 222.4 658.5 217.8L658.5 217.8Q658.5 213.2 656.5 210.5Q654.5 207.8 651.1 207.8L651.1 207.8Q647.7 207.8 645.7 210.5Q643.7 213.2 643.7 217.8L643.7 217.8Q643.7 222.4 645.7 225.1Q647.7 227.7 651.1 227.7Z M695.3 233.8Q694.1 235.1 691.8 235.1Q689.6 235.1 688.4 233.8Q687.1 232.6 687.1 230.2L687.1 230.2L687.1 194.4Q687.1 192.1 688.4 190.8Q689.6 189.5 691.8 189.5L691.8 189.5L705.5 189.5Q712.4 189.5 716.8 193.7Q721.1 198.0 721.1 204.9L721.1 204.9Q721.1 211.8 716.6 216.1Q712.2 220.3 705 220.3L705 220.3L696.6 220.3L696.6 230.2Q696.6 232.6 695.3 233.8ZM696.6 196.9L696.6 213.0L702.9 213.0Q707 213.0 709.3 210.9Q711.5 208.8 711.5 204.9Q711.5 201.1 709.3 199.0Q707.0 196.9 703.0 196.9L703.0 196.9L696.6 196.9ZM743.9 234.6L731.4 234.6Q729.2 234.6 727.9 233.3Q726.7 232.0 726.7 229.6L726.7 229.6L726.7 194.4Q726.7 192.1 727.9 190.8Q729.2 189.5 731.4 189.5L731.4 189.5L743.9 189.5Q754.1 189.5 759.7 195.3Q765.4 201.1 765.4 211.8L765.4 211.8Q765.4 222.6 759.7 228.6Q754.0 234.6 743.9 234.6L743.9 234.6ZM736.1 197.2L736.1 226.7L742.8 226.7Q749.1 226.7 752.4 222.9Q755.8 219.1 755.8 211.9L755.8 211.9Q755.8 204.8 752.4 201.0Q749 197.2 742.8 197.2L742.8 197.2L736.1 197.2ZM788.7 234.6L776.2 234.6Q773.9 234.6 772.7 233.3Q771.4 232.0 771.4 229.6L771.4 229.6L771.4 194.4Q771.4 192.1 772.7 190.8Q773.9 189.5 776.2 189.5L776.2 189.5L788.7 189.5Q798.8 189.5 804.5 195.3Q810.2 201.1 810.2 211.8L810.2 211.8Q810.2 222.6 804.5 228.6Q798.8 234.6 788.7 234.6L788.7 234.6ZM780.9 197.2L780.9 226.7L787.5 226.7Q793.9 226.7 797.2 222.9Q800.5 219.1 800.5 211.9L800.5 211.9Q800.5 204.8 797.2 201.0Q793.8 197.2 787.5 197.2L787.5 197.2L780.9 197.2ZM841.7 234.6L820.9 234.6Q818.7 234.6 817.5 233.3Q816.2 232.0 816.2 229.6L816.2 229.6L816.2 193.8Q816.2 191.4 817.5 190.1Q818.7 188.8 820.9 188.8Q823.2 188.8 824.4 190.1Q825.7 191.4 825.7 193.8L825.7 193.8L825.7 226.7L841.7 226.7Q843.6 226.7 844.8 227.8Q845.9 228.8 845.9 230.6Q845.9 232.5 844.8 233.5Q843.6 234.6 841.7 234.6L841.7 234.6Z M871.8 233.8Q870.6 235.1 868.3 235.1Q866.1 235.1 864.9 233.8Q863.6 232.6 863.6 230.2L863.6 230.2L863.6 194.4Q863.6 192.1 864.9 190.8Q866.1 189.5 868.3 189.5L868.3 189.5L889.4 189.5Q891.4 189.5 892.6 190.5Q893.7 191.6 893.7 193.4Q893.7 195.2 892.5 196.2Q891.4 197.3 889.4 197.3L889.4 197.3L873.1 197.3L873.1 209.3L887.9 209.3Q889.8 209.3 890.8 210.3Q891.9 211.3 891.9 213.1L891.9 213.1Q891.9 214.8 890.9 215.8Q889.8 216.8 887.9 216.8L887.9 216.8L873.1 216.8L873.1 230.2Q873.1 232.6 871.8 233.8ZM906.1 195.5Q904.7 196.9 902.7 196.9Q900.6 196.9 899.2 195.5Q897.8 194.1 897.8 192.2L897.8 192.2Q897.8 190.2 899.2 188.8Q900.6 187.5 902.7 187.5Q904.7 187.5 906.1 188.8Q907.5 190.2 907.5 192.2L907.5 192.2Q907.5 194.1 906.1 195.5ZM906 233.9Q904.8 235.2 902.7 235.2Q900.5 235.2 899.3 233.9Q898.1 232.7 898.1 230.5L898.1 230.5L898.1 205.1Q898.1 202.9 899.3 201.6Q900.5 200.4 902.7 200.4Q904.8 200.4 906 201.6Q907.2 202.9 907.2 205.1L907.2 205.1L907.2 230.5Q907.2 232.7 906 233.9ZM921.4 234.0Q920.1 235.2 918.1 235.2Q916 235.2 914.8 234.0Q913.5 232.7 913.5 230.5L913.5 230.5L913.5 193.6Q913.5 191.3 914.8 190.0Q916 188.8 918.1 188.8Q920.1 188.8 921.4 190.0Q922.6 191.3 922.6 193.6L922.6 193.6L922.6 230.5Q922.6 232.7 921.4 234.0ZM944.2 235.3L944.2 235.3Q936.3 235.3 932.0 230.7Q927.6 226.1 927.6 218.0L927.6 218.0Q927.6 209.9 931.9 205.1Q936.3 200.3 943.8 200.3L943.8 200.3Q950.8 200.3 955.2 204.7Q959.6 209.1 959.6 215.9L959.6 215.9Q959.6 217.8 958.6 218.9Q957.6 219.9 955.7 219.9L955.7 219.9L936.5 219.9L936.5 220.3Q936.5 224.0 938.6 226.3Q940.7 228.5 944.2 228.5L944.2 228.5Q946.7 228.5 948.5 227.6Q950.3 226.7 952.2 224.5L952.2 224.5Q953.5 223.1 955.1 223.1L955.1 223.1Q956.7 223.1 957.7 224.1Q958.7 225.0 958.7 226.5L958.7 226.5Q958.7 227.6 958.1 228.7L958.1 228.7Q956.4 231.8 952.7 233.5Q949.0 235.3 944.2 235.3ZM936.6 214.3L936.6 214.3L950.8 214.3Q950.7 211.0 948.8 209.1Q946.8 207.1 943.8 207.1Q940.8 207.1 938.9 209.1Q936.9 211.1 936.6 214.3ZM978.0 235.3L978.0 235.3Q972.3 235.3 968.6 233.4Q964.8 231.6 963.6 228.6L963.6 228.6Q963.2 227.6 963.2 226.9L963.2 226.9Q963.2 225.3 964.3 224.4Q965.3 223.4 966.9 223.4L966.9 223.4Q969.0 223.4 970.9 225.5L970.9 225.5Q972.3 227.2 973.9 228.1Q975.6 228.9 978.2 228.9L978.2 228.9Q980.7 228.9 982.2 227.9Q983.7 226.9 983.7 225.3L983.7 225.3Q983.7 223.9 982.7 223.1Q981.7 222.3 979.2 221.8L979.2 221.8L973.6 220.6Q968.7 219.5 966.2 217.1Q963.7 214.6 963.7 210.9L963.7 210.9Q963.7 206.1 967.6 203.2Q971.4 200.3 977.9 200.3L977.9 200.3Q983 200.3 986.6 202.3Q990.2 204.3 991.1 207.3L991.1 207.3Q991.3 208.1 991.3 208.6L991.3 208.6Q991.3 210.1 990.4 210.9Q989.5 211.7 987.8 211.7L987.8 211.7Q985.7 211.7 984.5 210.3L984.5 210.3Q983.1 208.6 981.6 207.7Q980.1 206.7 977.8 206.7L977.8 206.7Q975.5 206.7 974 207.7Q972.5 208.7 972.5 210.4L972.5 210.4Q972.5 211.7 973.6 212.6Q974.7 213.5 977.2 214.0L977.2 214.0L982.7 215.2Q988.1 216.3 990.4 218.4Q992.8 220.6 992.8 224.3L992.8 224.3Q992.8 229.3 988.7 232.3Q984.6 235.3 978.0 235.3Z M96.1 308.9L96.1 308.9Q85.9 308.9 80.1 302.7Q74.3 296.4 74.3 285.5L74.3 285.5Q74.3 274.6 80.1 268.5Q85.9 262.3 95.8 262.3L95.8 262.3Q102.2 262.3 107.0 264.9Q111.9 267.6 113.8 271.9L113.8 271.9Q114.5 273.3 114.5 274.8L114.5 274.8Q114.5 276.6 113.4 277.7Q112.2 278.8 110.4 278.8L110.4 278.8Q107.5 278.8 105.8 276.1L105.8 276.1Q102.5 270.1 95.9 270.1L95.9 270.1Q90.3 270.1 87.1 274.1Q84.0 278.1 84.0 285.3L84.0 285.3Q84.0 292.6 87.3 296.9Q90.6 301.1 96.2 301.1L96.2 301.1Q100.8 301.1 103.8 298.5Q106.7 295.9 106.8 291.7L106.8 291.7L106.9 291.0L100.3 291.0Q98.6 291.0 97.6 290.1Q96.5 289.1 96.5 287.6Q96.5 286.0 97.6 285.0Q98.6 284.1 100.3 284.1L100.3 284.1L111.3 284.1Q113.6 284.1 114.8 285.4Q116.1 286.7 116.1 289.0L116.1 289.0L116.1 289.7Q116.1 298.5 110.8 303.7Q105.5 308.9 96.1 308.9ZM136.9 308.9L136.9 308.9Q129.1 308.9 124.7 304.3Q120.3 299.7 120.3 291.6L120.3 291.6Q120.3 283.5 124.7 278.7Q129.0 273.9 136.5 273.9L136.5 273.9Q143.6 273.9 148.0 278.3Q152.3 282.6 152.3 289.5L152.3 289.5Q152.3 291.4 151.3 292.5Q150.3 293.5 148.4 293.5L148.4 293.5L129.3 293.5L129.3 293.9Q129.3 297.6 131.3 299.9Q133.4 302.1 136.9 302.1L136.9 302.1Q139.4 302.1 141.2 301.2Q143.0 300.3 144.9 298.1L144.9 298.1Q146.2 296.7 147.8 296.7L147.8 296.7Q149.4 296.7 150.4 297.6Q151.4 298.6 151.4 300.1L151.4 300.1Q151.4 301.1 150.8 302.3L150.8 302.3Q149.1 305.4 145.4 307.1Q141.8 308.9 136.9 308.9ZM129.3 287.9L129.3 287.9L143.6 287.9Q143.4 284.6 141.5 282.6Q139.6 280.7 136.6 280.7Q133.6 280.7 131.6 282.7Q129.6 284.7 129.3 287.9ZM164.9 307.6Q163.7 308.8 161.6 308.8Q159.5 308.8 158.3 307.6Q157.0 306.3 157.0 304.1L157.0 304.1L157.0 278.6Q157.0 276.4 158.2 275.2Q159.4 274.0 161.4 274.0Q163.5 274.0 164.8 275.2Q166 276.5 166 278.6L166 278.6L166 280.5L166.2 280.5Q168.9 274.0 176.5 274.0L176.5 274.0Q182.1 274.0 185.1 277.3Q188.1 280.6 188.1 286.6L188.1 286.6L188.1 304.1Q188.1 306.3 186.9 307.6Q185.6 308.8 183.6 308.8Q181.5 308.8 180.3 307.6Q179 306.3 179 304.1L179 304.1L179 288.5Q179 285.1 177.4 283.4Q175.9 281.6 172.8 281.6Q169.8 281.6 168.0 283.6Q166.2 285.6 166.2 288.9L166.2 288.9L166.2 304.1Q166.2 306.3 164.9 307.6ZM209.3 308.9L209.3 308.9Q201.5 308.9 197.1 304.3Q192.7 299.7 192.7 291.6L192.7 291.6Q192.7 283.5 197.1 278.7Q201.4 273.9 208.9 273.9L208.9 273.9Q216.0 273.9 220.4 278.3Q224.8 282.6 224.8 289.5L224.8 289.5Q224.8 291.4 223.7 292.5Q222.7 293.5 220.8 293.5L220.8 293.5L201.7 293.5L201.7 293.9Q201.7 297.6 203.7 299.9Q205.8 302.1 209.3 302.1L209.3 302.1Q211.8 302.1 213.6 301.2Q215.4 300.3 217.3 298.1L217.3 298.1Q218.6 296.7 220.3 296.7L220.3 296.7Q221.8 296.7 222.8 297.6Q223.8 298.6 223.8 300.1L223.8 300.1Q223.8 301.1 223.2 302.3L223.2 302.3Q221.5 305.4 217.8 307.1Q214.2 308.9 209.3 308.9ZM201.8 287.9L201.8 287.9L216.0 287.9Q215.8 284.6 213.9 282.6Q212.0 280.7 209.0 280.7Q206.0 280.7 204.0 282.7Q202 284.7 201.8 287.9ZM234 308.8L234 308.8Q231.9 308.8 230.7 307.6Q229.4 306.3 229.4 304.1L229.4 304.1L229.4 278.6Q229.4 276.4 230.6 275.2Q231.8 274.0 233.8 274.0L233.8 274.0Q235.8 274.0 237.0 275.2Q238.2 276.4 238.2 278.6L238.2 278.6L238.2 280.7L238.3 280.7Q239 277.6 240.9 275.9Q242.8 274.1 245.3 274.1L245.3 274.1Q247.2 274.1 248.2 275.0L248.2 275.0Q249.5 276.0 249.5 278.3L249.5 278.3Q249.5 280.5 248.2 281.6L248.2 281.6Q246.8 282.8 244.2 282.8L244.2 282.8Q241.2 282.8 239.9 284.4Q238.6 286.1 238.6 289.2L238.6 289.2L238.6 304.1Q238.6 306.3 237.3 307.6Q236.1 308.8 234 308.8ZM262.6 308.7L262.6 308.7Q257.8 308.7 254.6 305.8Q251.4 303.0 251.4 298.5L251.4 298.5Q251.4 294.0 254.8 291.4Q258.2 288.8 264.5 288.4L264.5 288.4L272.9 287.9L272.9 285.7Q272.9 283.4 271.4 282.1Q269.9 280.7 267.3 280.7L267.3 280.7Q265.2 280.7 263.8 281.5Q262.3 282.3 260.8 284.3L260.8 284.3Q259.3 286.0 257.2 286.0L257.2 286.0Q255.5 286.0 254.4 285.0Q253.3 284.0 253.3 282.5L253.3 282.5Q253.3 281.4 253.8 280.4L253.8 280.4Q255.0 277.4 258.7 275.7Q262.5 273.9 267.7 273.9L267.7 273.9Q274.1 273.9 278 277.0Q281.9 280.1 281.9 285.1L281.9 285.1L281.9 304.2Q281.9 306.4 280.7 307.6Q279.4 308.8 277.4 308.8L277.4 308.8Q275.5 308.8 274.4 307.8Q273.2 306.7 273.1 304.7L273.1 304.7L273.1 303.0L272.9 303.0Q271.5 305.6 268.7 307.2Q265.8 308.7 262.6 308.7ZM265.6 302.1L265.6 302.1Q268.7 302.1 270.8 300.3Q272.9 298.6 272.9 295.9L272.9 295.9L272.9 293.4L265.8 293.9Q263.3 294.1 261.9 295.1Q260.5 296.2 260.5 298.0L260.5 298.0Q260.5 299.9 261.9 301.0Q263.3 302.1 265.6 302.1ZM290.2 299.6L290.2 299.6L290.2 281.5L288.4 281.5Q286.8 281.5 285.9 280.6Q284.9 279.7 284.9 278.1Q284.9 276.5 285.9 275.6Q286.8 274.6 288.4 274.6L288.4 274.6L290.2 274.6L290.2 270.9Q290.2 268.7 291.4 267.4Q292.6 266.2 294.8 266.2Q296.9 266.2 298.1 267.4Q299.3 268.7 299.3 270.9L299.3 270.9L299.3 274.6L302.5 274.6Q304.2 274.6 305.1 275.6Q306.0 276.5 306.0 278.1Q306.0 279.6 305.1 280.6Q304.2 281.5 302.5 281.5L302.5 281.5L299.3 281.5L299.3 297.6Q299.3 299.3 300.0 300.1Q300.6 301.0 302.1 301.1L302.1 301.1L302.7 301.1Q304.4 301.3 305.3 302.1Q306.2 302.9 306.2 304.5L306.2 304.5Q306.2 306.4 304.4 307.5Q302.7 308.5 299.7 308.5L299.7 308.5L299.4 308.5Q290.2 308.5 290.2 299.6ZM318.7 269.1Q317.3 270.5 315.2 270.5Q313.2 270.5 311.8 269.1Q310.3 267.7 310.3 265.8L310.3 265.8Q310.3 263.8 311.8 262.4Q313.2 261.1 315.2 261.1Q317.3 261.1 318.7 262.4Q320.1 263.8 320.1 265.8L320.1 265.8Q320.1 267.7 318.7 269.1ZM318.6 307.5Q317.3 308.8 315.2 308.8Q313.1 308.8 311.9 307.5Q310.7 306.3 310.7 304.1L310.7 304.1L310.7 278.7Q310.7 276.5 311.9 275.2Q313.1 274.0 315.2 274.0Q317.3 274.0 318.6 275.2Q319.8 276.5 319.8 278.7L319.8 278.7L319.8 304.1Q319.8 306.3 318.6 307.5ZM353.3 304.2Q348.9 308.9 341.2 308.9Q333.6 308.9 329.1 304.2Q324.6 299.6 324.6 291.4L324.6 291.4Q324.6 283.3 329.1 278.6Q333.7 273.9 341.2 273.9L341.2 273.9Q348.8 273.9 353.3 278.6Q357.8 283.3 357.8 291.4L357.8 291.4Q357.8 299.6 353.3 304.2ZM341.2 301.9L341.2 301.9Q344.6 301.9 346.6 299.1Q348.5 296.4 348.5 291.4L348.5 291.4Q348.5 286.5 346.6 283.7Q344.6 280.9 341.2 280.9Q337.8 280.9 335.9 283.7Q333.9 286.5 333.9 291.4L333.9 291.4Q333.9 296.4 335.8 299.1Q337.8 301.9 341.2 301.9ZM370.4 307.6Q369.1 308.8 367.1 308.8Q365 308.8 363.8 307.6Q362.5 306.3 362.5 304.1L362.5 304.1L362.5 278.6Q362.5 276.4 363.7 275.2Q364.8 274.0 366.9 274.0Q369.0 274.0 370.2 275.2Q371.5 276.5 371.5 278.6L371.5 278.6L371.5 280.5L371.7 280.5Q374.4 274.0 382.0 274.0L382.0 274.0Q387.5 274.0 390.6 277.3Q393.6 280.6 393.6 286.6L393.6 286.6L393.6 304.1Q393.6 306.3 392.3 307.6Q391.1 308.8 389.0 308.8Q387.0 308.8 385.7 307.6Q384.5 306.3 384.5 304.1L384.5 304.1L384.5 288.5Q384.5 285.1 382.9 283.4Q381.3 281.6 378.3 281.6Q375.3 281.6 373.5 283.6Q371.6 285.6 371.6 288.9L371.6 288.9L371.6 304.1Q371.6 306.3 370.4 307.6Z M422.4 307.6Q421.1 308.8 419.0 308.8Q416.9 308.8 415.7 307.6Q414.5 306.4 414.5 304.1L414.5 304.1L414.5 281.5L412.7 281.5Q411.3 281.5 410.3 280.6Q409.4 279.7 409.4 278.1Q409.4 276.6 410.3 275.7Q411.3 274.8 412.7 274.8L412.7 274.8L414.5 274.8L414.5 272.3Q414.5 267.4 416.8 265.0Q419.2 262.7 424.0 262.6L424.0 262.6Q427.5 262.6 429.2 263.6Q430.9 264.6 430.9 266.3L430.9 266.3Q430.9 268.2 429.1 268.7L429.1 268.7Q428.2 269.0 427.3 269.0L427.3 269.0Q425.2 269.1 424.3 269.9Q423.4 270.8 423.4 272.7L423.4 272.7L423.4 274.8L427.2 274.8Q428.7 274.8 429.6 275.7Q430.6 276.6 430.6 278.1Q430.6 279.7 429.6 280.6Q428.7 281.5 427.2 281.5L427.2 281.5L423.6 281.5L423.6 304.1Q423.6 306.4 422.4 307.6ZM439.4 308.8L439.4 308.8Q437.3 308.8 436.0 307.6Q434.8 306.3 434.8 304.1L434.8 304.1L434.8 278.6Q434.8 276.4 436.0 275.2Q437.2 274.0 439.2 274.0L439.2 274.0Q441.2 274.0 442.3 275.2Q443.5 276.4 443.5 278.6L443.5 278.6L443.5 280.7L443.7 280.7Q444.4 277.6 446.3 275.9Q448.2 274.1 450.7 274.1L450.7 274.1Q452.5 274.1 453.5 275.0L453.5 275.0Q454.8 276.0 454.8 278.3L454.8 278.3Q454.8 280.5 453.5 281.6L453.5 281.6Q452.2 282.8 449.6 282.8L449.6 282.8Q446.6 282.8 445.3 284.4Q443.9 286.1 443.9 289.2L443.9 289.2L443.9 304.1Q443.9 306.3 442.7 307.6Q441.5 308.8 439.4 308.8ZM485.6 304.2Q481.1 308.9 473.5 308.9Q465.8 308.9 461.3 304.2Q456.9 299.6 456.9 291.4L456.9 291.4Q456.9 283.3 461.4 278.6Q465.9 273.9 473.5 273.9L473.5 273.9Q481.1 273.9 485.6 278.6Q490.1 283.3 490.1 291.4L490.1 291.4Q490.1 299.6 485.6 304.2ZM473.5 301.9L473.5 301.9Q476.8 301.9 478.8 299.1Q480.8 296.4 480.8 291.4L480.8 291.4Q480.8 286.5 478.8 283.7Q476.8 280.9 473.5 280.9Q470.1 280.9 468.1 283.7Q466.1 286.5 466.1 291.4L466.1 291.4Q466.1 296.4 468.1 299.1Q470.1 301.9 473.5 301.9ZM499.3 308.8L499.3 308.8Q497.2 308.8 496.0 307.6Q494.8 306.3 494.8 304.1L494.8 304.1L494.8 278.6Q494.8 276.4 496.0 275.2Q497.2 274.0 499.2 274.0Q501.2 274.0 502.4 275.2Q503.6 276.4 503.6 278.6L503.6 278.6L503.6 280.7L503.8 280.7Q504.8 277.6 507.4 275.8Q509.9 274.0 513.3 274.0L513.3 274.0Q516.9 274.0 519.4 275.8Q521.8 277.6 522.7 280.9L522.7 280.9L522.8 280.9Q524.0 277.7 526.8 275.9Q529.6 274.0 533.3 274.0L533.3 274.0Q538.2 274.0 541.2 277.1Q544.2 280.2 544.2 285.3L544.2 285.3L544.2 304.1Q544.2 306.3 543.0 307.6Q541.7 308.8 539.6 308.8L539.6 308.8Q537.6 308.8 536.3 307.6Q535.1 306.3 535.1 304.1L535.1 304.1L535.1 287.6Q535.1 284.6 533.7 283.1Q532.3 281.6 529.6 281.6L529.6 281.6Q527.0 281.6 525.5 283.3Q523.9 285.0 523.9 287.8L523.9 287.8L523.9 304.1Q523.9 306.3 522.7 307.6Q521.5 308.8 519.5 308.8L519.5 308.8Q517.4 308.8 516.3 307.6Q515.1 306.3 515.1 304.1L515.1 304.1L515.1 287.3Q515.1 284.6 513.7 283.1Q512.2 281.6 509.7 281.6L509.7 281.6Q507.1 281.6 505.5 283.3Q503.9 285.1 503.9 287.9L503.9 287.9L503.9 304.1Q503.9 306.3 502.6 307.6Q501.4 308.8 499.3 308.8Z M599.7 302.6Q593.8 308.9 583.8 308.9Q573.8 308.9 567.9 302.6Q562.0 296.4 562.0 285.6L562.0 285.6Q562.0 274.8 567.9 268.6Q573.8 262.3 583.8 262.3Q593.8 262.3 599.7 268.6Q605.5 274.8 605.5 285.6L605.5 285.6Q605.5 296.4 599.7 302.6ZM583.8 301.0L583.8 301.0Q589.3 301.0 592.6 296.9Q595.9 292.7 595.9 285.6L595.9 285.6Q595.9 278.5 592.6 274.3Q589.3 270.1 583.8 270.1Q578.3 270.1 575.0 274.3Q571.7 278.5 571.7 285.6L571.7 285.6Q571.7 292.7 574.9 296.9Q578.2 301.0 583.8 301.0ZM629.1 307.6Q627.8 308.7 625.6 308.7Q623.3 308.7 622.0 307.6Q620.8 306.5 620.0 303.9L620.0 303.9L610.6 269.8Q610.1 268.0 610.1 266.7L610.1 266.7Q610.1 264.7 611.4 263.6Q612.6 262.4 614.8 262.4L614.8 262.4Q618.5 262.4 619.3 266.5L619.3 266.5L626.1 295.7L626.3 295.7L633.9 266.6Q634.4 264.5 635.6 263.4Q636.8 262.4 638.8 262.4L638.8 262.4Q642.5 262.4 643.6 266.6L643.6 266.6L651.2 295.7L651.4 295.7L658.2 266.5Q659.0 262.4 662.7 262.4L662.7 262.4Q664.9 262.4 666.1 263.6Q667.4 264.7 667.4 266.7L667.4 266.7Q667.4 267.9 666.9 269.8L666.9 269.8L657.4 304.0Q656.7 306.5 655.4 307.6Q654.2 308.7 652.0 308.7L652.0 308.7Q649.7 308.7 648.4 307.6Q647.1 306.5 646.4 304.0L646.4 304.0L638.9 277.3L638.6 277.3L631.1 304.0Q630.4 306.5 629.1 307.6ZM698.8 308.1L678.1 308.1Q675.9 308.1 674.6 306.9Q673.4 305.6 673.4 303.2L673.4 303.2L673.4 267.4Q673.4 265.0 674.6 263.7Q675.9 262.4 678.1 262.4Q680.3 262.4 681.6 263.7Q682.8 265.0 682.8 267.4L682.8 267.4L682.8 300.3L698.8 300.3Q700.8 300.3 701.9 301.4Q703.1 302.4 703.1 304.2Q703.1 306.1 701.9 307.1Q700.8 308.1 698.8 308.1L698.8 308.1Z M757.0 302.6Q751.2 308.9 741.1 308.9Q731.1 308.9 725.2 302.6Q719.4 296.4 719.4 285.6L719.4 285.6Q719.4 274.8 725.2 268.6Q731.1 262.3 741.1 262.3Q751.2 262.3 757.0 268.6Q762.9 274.8 762.9 285.6L762.9 285.6Q762.9 296.4 757.0 302.6ZM741.1 301.0L741.1 301.0Q746.7 301.0 749.9 296.9Q753.2 292.7 753.2 285.6L753.2 285.6Q753.2 278.5 749.9 274.3Q746.7 270.1 741.1 270.1Q735.6 270.1 732.3 274.3Q729 278.5 729 285.6L729 285.6Q729 292.7 732.3 296.9Q735.6 301.0 741.1 301.0ZM776.0 307.6Q774.8 308.8 772.7 308.8Q770.7 308.8 769.4 307.6Q768.2 306.3 768.2 304.1L768.2 304.1L768.2 278.6Q768.2 276.4 769.3 275.2Q770.5 274.0 772.6 274.0Q774.6 274.0 775.9 275.2Q777.1 276.5 777.1 278.6L777.1 278.6L777.1 280.5L777.3 280.5Q780.1 274.0 787.6 274.0L787.6 274.0Q793.2 274.0 796.2 277.3Q799.3 280.6 799.3 286.6L799.3 286.6L799.3 304.1Q799.3 306.3 798 307.6Q796.8 308.8 794.7 308.8Q792.6 308.8 791.4 307.6Q790.1 306.3 790.1 304.1L790.1 304.1L790.1 288.5Q790.1 285.1 788.6 283.4Q787 281.6 784.0 281.6Q780.9 281.6 779.1 283.6Q777.3 285.6 777.3 288.9L777.3 288.9L777.3 304.1Q777.3 306.3 776.0 307.6ZM807.5 299.6L807.5 299.6L807.5 281.5L805.7 281.5Q804.1 281.5 803.1 280.6Q802.2 279.7 802.2 278.1Q802.2 276.5 803.1 275.6Q804.1 274.6 805.7 274.6L805.7 274.6L807.5 274.6L807.5 270.9Q807.5 268.7 808.7 267.4Q809.9 266.2 812.0 266.2Q814.2 266.2 815.4 267.4Q816.6 268.7 816.6 270.9L816.6 270.9L816.6 274.6L819.8 274.6Q821.4 274.6 822.4 275.6Q823.3 276.5 823.3 278.1Q823.3 279.6 822.4 280.6Q821.4 281.5 819.8 281.5L819.8 281.5L816.6 281.5L816.6 297.6Q816.6 299.3 817.3 300.1Q817.9 301.0 819.4 301.1L819.4 301.1L820.0 301.1Q821.7 301.3 822.6 302.1Q823.4 302.9 823.4 304.5L823.4 304.5Q823.4 306.4 821.7 307.5Q819.9 308.5 817.0 308.5L817.0 308.5L816.7 308.5Q807.5 308.5 807.5 299.6ZM855.3 304.2Q850.8 308.9 843.2 308.9Q835.5 308.9 831.0 304.2Q826.6 299.6 826.6 291.4L826.6 291.4Q826.6 283.3 831.1 278.6Q835.6 273.9 843.2 273.9L843.2 273.9Q850.8 273.9 855.3 278.6Q859.8 283.3 859.8 291.4L859.8 291.4Q859.8 299.6 855.3 304.2ZM843.2 301.9L843.2 301.9Q846.5 301.9 848.5 299.1Q850.5 296.4 850.5 291.4L850.5 291.4Q850.5 286.5 848.5 283.7Q846.5 280.9 843.2 280.9Q839.8 280.9 837.8 283.7Q835.8 286.5 835.8 291.4L835.8 291.4Q835.8 296.4 837.8 299.1Q839.8 301.9 843.2 301.9ZM872.5 307.6Q871.3 308.8 869.2 308.8Q867.2 308.8 865.9 307.6Q864.7 306.3 864.7 304.1L864.7 304.1L864.7 267.1Q864.7 264.9 865.9 263.6Q867.2 262.4 869.2 262.4Q871.3 262.4 872.5 263.6Q873.8 264.9 873.8 267.1L873.8 267.1L873.8 304.1Q873.8 306.3 872.5 307.6ZM907.4 304.2Q903.0 308.9 895.3 308.9Q887.7 308.9 883.2 304.2Q878.7 299.6 878.7 291.4L878.7 291.4Q878.7 283.3 883.2 278.6Q887.8 273.9 895.3 273.9L895.3 273.9Q902.9 273.9 907.4 278.6Q911.9 283.3 911.9 291.4L911.9 291.4Q911.9 299.6 907.4 304.2ZM895.3 301.9L895.3 301.9Q898.7 301.9 900.7 299.1Q902.6 296.4 902.6 291.4L902.6 291.4Q902.6 286.5 900.7 283.7Q898.7 280.9 895.3 280.9Q891.9 280.9 890.0 283.7Q888.0 286.5 888.0 291.4L888.0 291.4Q888.0 296.4 889.9 299.1Q891.9 301.9 895.3 301.9ZM931.6 320.7L931.6 320.7Q926.6 320.7 922.9 319.0Q919.2 317.3 917.5 314.6L917.5 314.6Q916.8 313.4 916.8 312.1L916.8 312.1Q916.8 310.6 917.8 309.6Q918.8 308.7 920.5 308.7L920.5 308.7Q922.2 308.7 923.7 310.0L923.7 310.0Q927.5 313.6 931.5 313.7L931.5 313.7Q935.3 313.7 937.4 311.8Q939.5 310.0 939.5 306.8L939.5 306.8L939.5 301.4L939.3 301.4Q938.1 304.1 935.3 305.8Q932.6 307.4 929.0 307.4L929.0 307.4Q922.7 307.4 919.0 303.0Q915.4 298.5 915.4 290.8L915.4 290.8Q915.4 283.0 919.0 278.5Q922.7 274.1 929.1 274.1L929.1 274.1Q932.7 274.1 935.3 275.8Q938 277.5 939.3 280.4L939.3 280.4L939.5 280.4L939.5 278.6Q939.5 276.3 940.8 275.1Q942.1 274.0 944.1 274.0L944.1 274.0Q946.2 274.0 947.4 275.1Q948.7 276.3 948.7 278.6L948.7 278.6L948.7 306.8Q948.7 313.4 944.1 317.1Q939.6 320.8 931.6 320.7ZM932.1 300.6L932.1 300.6Q935.5 300.6 937.5 298.1Q939.6 295.5 939.6 291.0Q939.6 286.4 937.5 283.7Q935.5 281.1 932.1 281.1L932.1 281.1Q928.7 281.1 926.7 283.7Q924.7 286.4 924.7 290.9L924.7 290.9Q924.7 295.5 926.7 298.1Q928.7 300.6 932.1 300.6ZM962.8 269.1Q961.3 270.5 959.3 270.5Q957.2 270.5 955.8 269.1Q954.4 267.7 954.4 265.8L954.4 265.8Q954.4 263.8 955.8 262.4Q957.2 261.1 959.3 261.1Q961.3 261.1 962.8 262.4Q964.2 263.8 964.2 265.8L964.2 265.8Q964.2 267.7 962.8 269.1ZM962.6 307.5Q961.4 308.8 959.3 308.8Q957.2 308.8 955.9 307.5Q954.7 306.3 954.7 304.1L954.7 304.1L954.7 278.7Q954.7 276.5 955.9 275.2Q957.2 274.0 959.3 274.0Q961.4 274.0 962.6 275.2Q963.8 276.5 963.8 278.7L963.8 278.7L963.8 304.1Q963.8 306.3 962.6 307.5ZM985.3 308.9L985.3 308.9Q977.5 308.9 973.1 304.3Q968.7 299.7 968.7 291.6L968.7 291.6Q968.7 283.5 973.1 278.7Q977.4 273.9 984.9 273.9L984.9 273.9Q992.0 273.9 996.4 278.3Q1000.8 282.6 1000.8 289.5L1000.8 289.5Q1000.8 291.4 999.7 292.5Q998.7 293.5 996.8 293.5L996.8 293.5L977.7 293.5L977.7 293.9Q977.7 297.6 979.7 299.9Q981.8 302.1 985.3 302.1L985.3 302.1Q987.8 302.1 989.6 301.2Q991.4 300.3 993.3 298.1L993.3 298.1Q994.6 296.7 996.3 296.7L996.3 296.7Q997.8 296.7 998.8 297.6Q999.8 298.6 999.8 300.1L999.8 300.1Q999.8 301.1 999.2 302.3L999.2 302.3Q997.5 305.4 993.8 307.1Q990.2 308.9 985.3 308.9ZM977.8 287.9L977.8 287.9L992.0 287.9Q991.8 284.6 989.9 282.6Q988.0 280.7 985.0 280.7Q982.0 280.7 980.0 282.7Q978 284.7 977.8 287.9ZM1019.1 308.9L1019.1 308.9Q1013.5 308.9 1009.7 307.0Q1005.9 305.2 1004.7 302.2L1004.7 302.2Q1004.3 301.2 1004.3 300.5L1004.3 300.5Q1004.3 298.9 1005.4 298.0Q1006.4 297.0 1008.0 297.0L1008.0 297.0Q1010.2 297.0 1012 299.1L1012 299.1Q1013.4 300.8 1015.1 301.6Q1016.8 302.5 1019.3 302.5L1019.3 302.5Q1021.8 302.5 1023.3 301.5Q1024.8 300.5 1024.8 298.9L1024.8 298.9Q1024.8 297.5 1023.8 296.7Q1022.8 295.9 1020.3 295.4L1020.3 295.4L1014.7 294.2Q1009.8 293.1 1007.3 290.7Q1004.8 288.2 1004.8 284.5L1004.8 284.5Q1004.8 279.6 1008.7 276.8Q1012.6 273.9 1019.1 273.9L1019.1 273.9Q1024.1 273.9 1027.7 275.9Q1031.3 277.9 1032.2 280.9L1032.2 280.9Q1032.4 281.7 1032.4 282.2L1032.4 282.2Q1032.4 283.6 1031.5 284.5Q1030.6 285.3 1028.9 285.3L1028.9 285.3Q1026.8 285.3 1025.6 283.9L1025.6 283.9Q1024.2 282.2 1022.7 281.3Q1021.2 280.3 1018.9 280.3L1018.9 280.3Q1016.6 280.3 1015.1 281.3Q1013.7 282.3 1013.7 284.0L1013.7 284.0Q1013.7 285.3 1014.8 286.2Q1015.8 287.1 1018.3 287.6L1018.3 287.6L1023.8 288.8Q1029.2 289.9 1031.5 292.0Q1033.9 294.1 1033.9 297.9L1033.9 297.9Q1033.9 302.9 1029.8 305.9Q1025.8 308.9 1019.1 308.9Z M84.9 382.3L84.9 382.3Q80.0 382.3 76.8 379.4Q73.7 376.6 73.7 372.1L73.7 372.1Q73.7 367.6 77.0 365.0Q80.4 362.4 86.7 362L86.7 362L95.2 361.5L95.2 359.3Q95.2 357.0 93.6 355.7Q92.1 354.3 89.5 354.3L89.5 354.3Q87.4 354.3 86 355.1Q84.6 355.9 83.0 357.9L83.0 357.9Q81.5 359.6 79.4 359.6L79.4 359.6Q77.8 359.6 76.7 358.6Q75.6 357.6 75.6 356.1L75.6 356.1Q75.6 355.0 76.1 354L76.1 354Q77.2 351 81.0 349.3Q84.7 347.5 89.9 347.5L89.9 347.5Q96.4 347.5 100.3 350.6Q104.1 353.7 104.1 358.7L104.1 358.7L104.1 377.8Q104.1 380.0 102.9 381.2Q101.7 382.4 99.7 382.4L99.7 382.4Q97.8 382.4 96.6 381.4Q95.4 380.3 95.3 378.3L95.3 378.3L95.3 376.6L95.1 376.6Q93.8 379.3 90.9 380.8Q88.1 382.3 84.9 382.3ZM87.9 375.7L87.9 375.7Q90.9 375.7 93.0 373.9Q95.2 372.2 95.2 369.5L95.2 369.5L95.2 367.0L88.1 367.5Q85.5 367.7 84.1 368.8Q82.8 369.8 82.8 371.6L82.8 371.6Q82.8 373.5 84.2 374.6Q85.6 375.7 87.9 375.7ZM117.9 381.2Q116.6 382.4 114.6 382.4Q112.5 382.4 111.3 381.2Q110 379.9 110 377.7L110 377.7L110 352.2Q110 350.0 111.2 348.8Q112.3 347.6 114.4 347.6Q116.5 347.6 117.7 348.8Q119.0 350.1 119.0 352.2L119.0 352.2L119.0 354.1L119.2 354.1Q121.9 347.6 129.5 347.6L129.5 347.6Q135.0 347.6 138.1 350.9Q141.1 354.3 141.1 360.2L141.1 360.2L141.1 377.7Q141.1 379.9 139.8 381.2Q138.6 382.4 136.5 382.4Q134.5 382.4 133.2 381.2Q132.0 379.9 132.0 377.7L132.0 377.7L132.0 362.1Q132.0 358.8 130.4 357.0Q128.8 355.2 125.8 355.2Q122.8 355.2 121.0 357.2Q119.1 359.3 119.1 362.5L119.1 362.5L119.1 377.7Q119.1 379.9 117.9 381.2ZM159.3 382.3L159.3 382.3Q153.0 382.3 149.3 377.6Q145.7 373.0 145.7 364.9L145.7 364.9Q145.7 357.0 149.4 352.3Q153.1 347.7 159.4 347.7L159.4 347.7Q162.9 347.7 165.6 349.4Q168.3 351.2 169.6 354L169.6 354L169.8 354L169.8 340.8Q169.8 338.5 171.0 337.2Q172.3 336.0 174.3 336.0Q176.4 336.0 177.7 337.2Q178.9 338.5 178.9 340.8L178.9 340.8L178.9 377.8Q178.9 380 177.7 381.2Q176.4 382.4 174.4 382.4L174.4 382.4Q172.3 382.4 171.1 381.2Q169.8 380 169.8 377.8L169.8 377.8L169.8 375.8L169.6 375.8Q168.5 378.8 165.8 380.5Q163.1 382.3 159.3 382.3ZM162.4 374.9L162.4 374.9Q165.8 374.9 167.8 372.3Q169.8 369.6 169.8 365L169.8 365Q169.8 360.4 167.8 357.7Q165.8 355.0 162.4 355.0L162.4 355.0Q159.0 355.0 157.0 357.7Q155 360.4 155 365L155 365Q155 369.6 157.0 372.3Q159.0 374.9 162.4 374.9Z M216.4 382.3L216.4 382.3Q213.6 382.3 211.9 381.0Q210.2 379.8 209.1 376.9L209.1 376.9L196.6 343.2Q196.1 341.8 196.1 340.5L196.1 340.5Q196.1 338.5 197.5 337.3Q198.8 336.0 201.1 336.0L201.1 336.0Q204.8 336.0 205.9 339.8L205.9 339.8L216.4 372.0L216.7 372.0L227.2 339.7Q227.8 337.8 228.9 336.9Q230 336.0 231.8 336.0L231.8 336.0Q234 336.0 235.3 337.2Q236.7 338.4 236.7 340.4L236.7 340.4Q236.7 341.6 236.2 342.9L236.2 342.9L223.6 376.9Q222.6 379.8 220.8 381.0Q219.1 382.3 216.4 382.3ZM249.3 342.7Q247.8 344.1 245.8 344.1Q243.7 344.1 242.3 342.7Q240.9 341.3 240.9 339.4L240.9 339.4Q240.9 337.4 242.3 336.0Q243.7 334.7 245.8 334.7Q247.8 334.7 249.3 336.0Q250.7 337.4 250.7 339.4L250.7 339.4Q250.7 341.3 249.3 342.7ZM249.1 381.1Q247.9 382.4 245.8 382.4Q243.7 382.4 242.4 381.1Q241.2 379.9 241.2 377.7L241.2 377.7L241.2 352.3Q241.2 350.1 242.4 348.8Q243.7 347.6 245.8 347.6Q247.9 347.6 249.1 348.8Q250.3 350.1 250.3 352.3L250.3 352.3L250.3 377.7Q250.3 379.9 249.1 381.1ZM270.1 382.5L270.1 382.5Q264.4 382.5 260.7 380.6Q256.9 378.8 255.7 375.8L255.7 375.8Q255.3 374.8 255.3 374.1L255.3 374.1Q255.3 372.5 256.4 371.6Q257.4 370.6 259 370.6L259 370.6Q261.1 370.6 263.0 372.7L263.0 372.7Q264.3 374.4 266.0 375.3Q267.7 376.1 270.3 376.1L270.3 376.1Q272.8 376.1 274.3 375.1Q275.8 374.1 275.8 372.5L275.8 372.5Q275.8 371.1 274.8 370.3Q273.8 369.5 271.3 369.0L271.3 369.0L265.7 367.8Q260.8 366.7 258.3 364.3Q255.8 361.8 255.8 358.1L255.8 358.1Q255.8 353.3 259.7 350.4Q263.5 347.5 270.0 347.5L270.0 347.5Q275.1 347.5 278.7 349.5Q282.3 351.5 283.2 354.5L283.2 354.5Q283.4 355.3 283.4 355.8L283.4 355.8Q283.4 357.3 282.5 358.1Q281.6 358.9 279.9 358.9L279.9 358.9Q277.8 358.9 276.6 357.5L276.6 357.5Q275.2 355.8 273.7 354.9Q272.2 353.9 269.9 353.9L269.9 353.9Q267.6 353.9 266.1 354.9Q264.6 355.9 264.6 357.6L264.6 357.6Q264.6 358.9 265.7 359.8Q266.8 360.7 269.3 361.2L269.3 361.2L274.8 362.4Q280.2 363.5 282.5 365.6Q284.9 367.8 284.9 371.5L284.9 371.5Q284.9 376.5 280.8 379.5Q276.7 382.5 270.1 382.5ZM301.3 382.4L301.3 382.4Q295.8 382.4 292.5 379.0Q289.2 375.7 289.2 369.8L289.2 369.8L289.2 352.3Q289.2 350.1 290.5 348.8Q291.7 347.6 293.8 347.6Q295.8 347.6 297.1 348.8Q298.3 350.1 298.3 352.3L298.3 352.3L298.3 367.9Q298.3 371.3 300.0 373.0Q301.6 374.8 304.6 374.8Q307.6 374.8 309.4 372.8Q311.2 370.8 311.2 367.4L311.2 367.4L311.2 352.3Q311.2 350.1 312.4 348.8Q313.7 347.6 315.8 347.6Q317.8 347.6 319.1 348.8Q320.3 350.1 320.3 352.3L320.3 352.3L320.3 377.8Q320.3 380 319.1 381.2Q317.9 382.4 315.9 382.4Q313.9 382.4 312.7 381.2Q311.5 380 311.5 377.8L311.5 377.8L311.5 375.7L311.3 375.7Q308.7 382.4 301.3 382.4ZM336.2 382.3L336.2 382.3Q331.3 382.3 328.1 379.4Q324.9 376.6 324.9 372.1L324.9 372.1Q324.9 367.6 328.3 365.0Q331.7 362.4 338 362L338 362L346.4 361.5L346.4 359.3Q346.4 357.0 344.9 355.7Q343.4 354.3 340.8 354.3L340.8 354.3Q338.7 354.3 337.3 355.1Q335.8 355.9 334.3 357.9L334.3 357.9Q332.8 359.6 330.7 359.6L330.7 359.6Q329.0 359.6 328.0 358.6Q326.9 357.6 326.9 356.1L326.9 356.1Q326.9 355.0 327.3 354L327.3 354Q328.5 351 332.3 349.3Q336 347.5 341.2 347.5L341.2 347.5Q347.7 347.5 351.5 350.6Q355.4 353.7 355.4 358.7L355.4 358.7L355.4 377.8Q355.4 380.0 354.2 381.2Q353.0 382.4 351.0 382.4L351.0 382.4Q349.1 382.4 347.9 381.4Q346.7 380.3 346.6 378.3L346.6 378.3L346.6 376.6L346.4 376.6Q345.0 379.3 342.2 380.8Q339.4 382.3 336.2 382.3ZM339.2 375.7L339.2 375.7Q342.2 375.7 344.3 373.9Q346.4 372.2 346.4 369.5L346.4 369.5L346.4 367.0L339.4 367.5Q336.8 367.7 335.4 368.8Q334.0 369.8 334.0 371.6L334.0 371.6Q334.0 373.5 335.4 374.6Q336.8 375.7 339.2 375.7ZM369.4 381.2Q368.1 382.4 366.1 382.4Q364 382.4 362.8 381.2Q361.5 379.9 361.5 377.7L361.5 377.7L361.5 340.8Q361.5 338.5 362.8 337.2Q364 336.0 366.1 336.0Q368.1 336.0 369.4 337.2Q370.6 338.5 370.6 340.8L370.6 340.8L370.6 377.7Q370.6 379.9 369.4 381.2Z M415.7 381.8L394.9 381.8Q392.7 381.8 391.5 380.5Q390.2 379.2 390.2 376.8L390.2 376.8L390.2 341.0Q390.2 338.6 391.5 337.3Q392.7 336.0 394.9 336.0Q397.2 336.0 398.4 337.3Q399.7 338.6 399.7 341.0L399.7 341.0L399.7 373.9L415.7 373.9Q417.6 373.9 418.8 375.0Q419.9 376.0 419.9 377.8Q419.9 379.7 418.8 380.7Q417.6 381.8 415.7 381.8L415.7 381.8ZM434.1 382.3L434.1 382.3Q429.3 382.3 426.1 379.4Q422.9 376.6 422.9 372.1L422.9 372.1Q422.9 367.6 426.3 365.0Q429.6 362.4 435.9 362L435.9 362L444.4 361.5L444.4 359.3Q444.4 357.0 442.9 355.7Q441.3 354.3 438.8 354.3L438.8 354.3Q436.7 354.3 435.2 355.1Q433.8 355.9 432.3 357.9L432.3 357.9Q430.8 359.6 428.6 359.6L428.6 359.6Q427.0 359.6 425.9 358.6Q424.8 357.6 424.8 356.1L424.8 356.1Q424.8 355.0 425.3 354L425.3 354Q426.4 351 430.2 349.3Q433.9 347.5 439.2 347.5L439.2 347.5Q445.6 347.5 449.5 350.6Q453.3 353.7 453.3 358.7L453.3 358.7L453.3 377.8Q453.3 380.0 452.1 381.2Q450.9 382.4 448.9 382.4L448.9 382.4Q447 382.4 445.8 381.4Q444.7 380.3 444.5 378.3L444.5 378.3L444.5 376.6L444.3 376.6Q443.0 379.3 440.1 380.8Q437.3 382.3 434.1 382.3ZM437.1 375.7L437.1 375.7Q440.1 375.7 442.3 373.9Q444.4 372.2 444.4 369.5L444.4 369.5L444.4 367.0L437.3 367.5Q434.8 367.7 433.4 368.8Q432.0 369.8 432.0 371.6L432.0 371.6Q432.0 373.5 433.4 374.6Q434.8 375.7 437.1 375.7ZM467.1 381.2Q465.8 382.4 463.8 382.4Q461.7 382.4 460.5 381.2Q459.2 379.9 459.2 377.7L459.2 377.7L459.2 352.2Q459.2 350.0 460.4 348.8Q461.6 347.6 463.6 347.6Q465.7 347.6 466.9 348.8Q468.2 350.1 468.2 352.2L468.2 352.2L468.2 354.1L468.4 354.1Q471.1 347.6 478.7 347.6L478.7 347.6Q484.3 347.6 487.3 350.9Q490.3 354.3 490.3 360.2L490.3 360.2L490.3 377.7Q490.3 379.9 489.1 381.2Q487.8 382.4 485.8 382.4Q483.7 382.4 482.4 381.2Q481.2 379.9 481.2 377.7L481.2 377.7L481.2 362.1Q481.2 358.8 479.6 357.0Q478.1 355.2 475.0 355.2Q472 355.2 470.2 357.2Q468.3 359.3 468.3 362.5L468.3 362.5L468.3 377.7Q468.3 379.9 467.1 381.2ZM511.1 394.3L511.1 394.3Q506.1 394.3 502.4 392.6Q498.7 390.9 497.0 388.2L497.0 388.2Q496.3 387.0 496.3 385.7L496.3 385.7Q496.3 384.2 497.3 383.3Q498.3 382.3 500 382.3L500 382.3Q501.7 382.3 503.2 383.6L503.2 383.6Q507.0 387.3 511.0 387.3L511.0 387.3Q514.8 387.3 516.9 385.4Q519.0 383.6 519.0 380.4L519.0 380.4L519.0 375.0L518.8 375.0Q517.6 377.8 514.8 379.4Q512.1 381.0 508.5 381.0L508.5 381.0Q502.2 381.0 498.5 376.6Q494.9 372.1 494.9 364.4L494.9 364.4Q494.9 356.6 498.5 352.1Q502.2 347.7 508.6 347.7L508.6 347.7Q512.2 347.7 514.8 349.4Q517.5 351.1 518.8 354.0L518.8 354.0L519.0 354.0L519.0 352.2Q519.0 349.9 520.3 348.8Q521.6 347.6 523.6 347.6L523.6 347.6Q525.7 347.6 526.9 348.8Q528.2 349.9 528.2 352.2L528.2 352.2L528.2 380.4Q528.2 387 523.6 390.7Q519.1 394.4 511.1 394.3ZM511.6 374.3L511.6 374.3Q515 374.3 517.0 371.7Q519.1 369.1 519.1 364.6Q519.1 360.0 517.0 357.3Q515 354.7 511.6 354.7L511.6 354.7Q508.2 354.7 506.2 357.3Q504.2 360 504.2 364.5L504.2 364.5Q504.2 369.1 506.2 371.7Q508.2 374.3 511.6 374.3ZM546.0 382.4L546.0 382.4Q540.5 382.4 537.2 379.0Q533.9 375.7 533.9 369.8L533.9 369.8L533.9 352.3Q533.9 350.1 535.2 348.8Q536.4 347.6 538.5 347.6Q540.5 347.6 541.8 348.8Q543.0 350.1 543.0 352.3L543.0 352.3L543.0 367.9Q543.0 371.3 544.6 373.0Q546.3 374.8 549.3 374.8Q552.3 374.8 554.1 372.8Q555.9 370.8 555.9 367.4L555.9 367.4L555.9 352.3Q555.9 350.1 557.1 348.8Q558.4 347.6 560.4 347.6Q562.5 347.6 563.8 348.8Q565 350.1 565 352.3L565 352.3L565 377.8Q565 380 563.8 381.2Q562.6 382.4 560.6 382.4Q558.6 382.4 557.4 381.2Q556.2 380 556.2 377.8L556.2 377.8L556.2 375.7L556 375.7Q553.4 382.4 546.0 382.4ZM580.8 382.3L580.8 382.3Q576 382.3 572.8 379.4Q569.6 376.6 569.6 372.1L569.6 372.1Q569.6 367.6 573 365.0Q576.4 362.4 582.7 362L582.7 362L591.1 361.5L591.1 359.3Q591.1 357.0 589.6 355.7Q588.1 354.3 585.5 354.3L585.5 354.3Q583.4 354.3 582.0 355.1Q580.5 355.9 579 357.9L579 357.9Q577.5 359.6 575.4 359.6L575.4 359.6Q573.7 359.6 572.6 358.6Q571.6 357.6 571.6 356.1L571.6 356.1Q571.6 355.0 572.0 354L572.0 354Q573.2 351 576.9 349.3Q580.7 347.5 585.9 347.5L585.9 347.5Q592.3 347.5 596.2 350.6Q600.1 353.7 600.1 358.7L600.1 358.7L600.1 377.8Q600.1 380.0 598.9 381.2Q597.7 382.4 595.7 382.4L595.7 382.4Q593.8 382.4 592.6 381.4Q591.4 380.3 591.3 378.3L591.3 378.3L591.3 376.6L591.1 376.6Q589.7 379.3 586.9 380.8Q584.1 382.3 580.8 382.3ZM583.8 375.7L583.8 375.7Q586.9 375.7 589 373.9Q591.1 372.2 591.1 369.5L591.1 369.5L591.1 367.0L584.1 367.5Q581.5 367.7 580.1 368.8Q578.7 369.8 578.7 371.6L578.7 371.6Q578.7 373.5 580.1 374.6Q581.5 375.7 583.8 375.7ZM620.9 394.3L620.9 394.3Q616.0 394.3 612.3 392.6Q608.5 390.9 606.8 388.2L606.8 388.2Q606.2 387.0 606.2 385.7L606.2 385.7Q606.2 384.2 607.2 383.3Q608.2 382.3 609.9 382.3L609.9 382.3Q611.6 382.3 613.0 383.6L613.0 383.6Q616.8 387.3 620.9 387.3L620.9 387.3Q624.6 387.3 626.7 385.4Q628.8 383.6 628.8 380.4L628.8 380.4L628.8 375.0L628.7 375.0Q627.5 377.8 624.7 379.4Q621.9 381.0 618.3 381.0L618.3 381.0Q612.1 381.0 608.4 376.6Q604.8 372.1 604.8 364.4L604.8 364.4Q604.8 356.6 608.4 352.1Q612.0 347.7 618.5 347.7L618.5 347.7Q622.0 347.7 624.7 349.4Q627.4 351.1 628.7 354.0L628.7 354.0L628.9 354.0L628.9 352.2Q628.9 349.9 630.2 348.8Q631.4 347.6 633.5 347.6L633.5 347.6Q635.5 347.6 636.8 348.8Q638.0 349.9 638.0 352.2L638.0 352.2L638.0 380.4Q638.0 387 633.5 390.7Q629 394.4 620.9 394.3ZM621.4 374.3L621.4 374.3Q624.9 374.3 626.9 371.7Q628.9 369.1 628.9 364.6Q628.9 360.0 626.9 357.3Q624.9 354.7 621.4 354.7L621.4 354.7Q618.1 354.7 616.1 357.3Q614.1 360 614.1 364.5L614.1 364.5Q614.1 369.1 616.1 371.7Q618.0 374.3 621.4 374.3ZM659.3 382.5L659.3 382.5Q651.5 382.5 647.1 377.9Q642.7 373.3 642.7 365.2L642.7 365.2Q642.7 357.1 647.1 352.3Q651.5 347.5 658.9 347.5L658.9 347.5Q666 347.5 670.4 351.9Q674.8 356.3 674.8 363.1L674.8 363.1Q674.8 365.0 673.8 366.1Q672.7 367.1 670.8 367.1L670.8 367.1L651.7 367.1L651.7 367.5Q651.7 371.2 653.8 373.5Q655.8 375.7 659.3 375.7L659.3 375.7Q661.8 375.7 663.6 374.8Q665.5 373.9 667.3 371.7L667.3 371.7Q668.6 370.3 670.3 370.3L670.3 370.3Q671.8 370.3 672.8 371.3Q673.8 372.2 673.8 373.7L673.8 373.7Q673.8 374.8 673.2 375.9L673.2 375.9Q671.6 379 667.9 380.7Q664.2 382.5 659.3 382.5ZM651.8 361.5L651.8 361.5L666 361.5Q665.9 358.2 663.9 356.3Q662 354.3 659 354.3Q656 354.3 654.0 356.3Q652.0 358.3 651.8 361.5Z M700.2 381.2Q699.1 382.3 697.1 382.3Q695.1 382.3 694.0 381.2Q692.9 380.0 692.9 377.9L692.9 377.9L692.9 342.1Q692.9 339.3 694.5 337.6Q696.1 336.0 699 336.0L699 336.0Q701.5 336.0 703.0 337.2Q704.4 338.3 705.5 340.9L705.5 340.9L716.7 368.6L716.9 368.6L728.1 340.9Q729.1 338.3 730.6 337.2Q732.1 336.0 734.6 336.0L734.6 336.0Q737.5 336.0 739.1 337.6Q740.7 339.3 740.7 342.1L740.7 342.1L740.7 377.9Q740.7 380.0 739.5 381.2Q738.4 382.3 736.4 382.3Q734.4 382.3 733.3 381.2Q732.3 380.0 732.3 377.9L732.3 377.9L732.3 351.3L732 351.3L720.8 378.6Q719.7 381.5 716.8 381.5L716.8 381.5Q713.9 381.5 712.7 378.6L712.7 378.6L701.6 351.3L701.3 351.3L701.3 377.9Q701.3 380.0 700.2 381.2ZM774.9 377.8Q770.4 382.5 762.8 382.5Q755.1 382.5 750.6 377.8Q746.2 373.2 746.2 365.0L746.2 365.0Q746.2 356.9 750.7 352.2Q755.2 347.5 762.8 347.5L762.8 347.5Q770.3 347.5 774.8 352.2Q779.3 356.9 779.3 365.0L779.3 365.0Q779.3 373.2 774.9 377.8ZM762.8 375.5L762.8 375.5Q766.1 375.5 768.1 372.8Q770.1 370 770.1 365L770.1 365Q770.1 360.1 768.1 357.3Q766.1 354.5 762.8 354.5Q759.4 354.5 757.4 357.3Q755.4 360.1 755.4 365L755.4 365Q755.4 370 757.4 372.8Q759.3 375.5 762.8 375.5ZM796.5 382.3L796.5 382.3Q790.2 382.3 786.5 377.6Q782.8 373.0 782.8 364.9L782.8 364.9Q782.8 357.0 786.5 352.3Q790.2 347.7 796.5 347.7L796.5 347.7Q800.1 347.7 802.8 349.4Q805.5 351.2 806.8 354L806.8 354L806.9 354L806.9 340.8Q806.9 338.5 808.2 337.2Q809.4 336.0 811.5 336.0Q813.6 336.0 814.8 337.2Q816.1 338.5 816.1 340.8L816.1 340.8L816.1 377.8Q816.1 380 814.8 381.2Q813.6 382.4 811.5 382.4L811.5 382.4Q809.5 382.4 808.2 381.2Q806.9 380 806.9 377.8L806.9 377.8L806.9 375.8L806.8 375.8Q805.7 378.8 802.9 380.5Q800.2 382.3 796.5 382.3ZM799.6 374.9L799.6 374.9Q803.0 374.9 805.0 372.3Q807 369.6 807 365L807 365Q807 360.4 805.0 357.7Q803.0 355.0 799.6 355.0L799.6 355.0Q796.1 355.0 794.1 357.7Q792.2 360.4 792.2 365L792.2 365Q792.2 369.6 794.1 372.3Q796.1 374.9 799.6 374.9ZM837.6 382.5L837.6 382.5Q829.7 382.5 825.3 377.9Q820.9 373.3 820.9 365.2L820.9 365.2Q820.9 357.1 825.3 352.3Q829.7 347.5 837.1 347.5L837.1 347.5Q844.2 347.5 848.6 351.9Q853 356.3 853 363.1L853 363.1Q853 365.0 852.0 366.1Q850.9 367.1 849.0 367.1L849.0 367.1L829.9 367.1L829.9 367.5Q829.9 371.2 832.0 373.5Q834.1 375.7 837.5 375.7L837.5 375.7Q840.0 375.7 841.9 374.8Q843.7 373.9 845.5 371.7L845.5 371.7Q846.8 370.3 848.5 370.3L848.5 370.3Q850.0 370.3 851.0 371.3Q852.1 372.2 852.1 373.7L852.1 373.7Q852.1 374.8 851.4 375.9L851.4 375.9Q849.8 379 846.1 380.7Q842.4 382.5 837.6 382.5ZM830 361.5L830 361.5L844.2 361.5Q844.1 358.2 842.2 356.3Q840.2 354.3 837.2 354.3Q834.2 354.3 832.2 356.3Q830.3 358.3 830 361.5ZM865.8 381.2Q864.5 382.4 862.5 382.4Q860.4 382.4 859.2 381.2Q857.9 379.9 857.9 377.7L857.9 377.7L857.9 340.8Q857.9 338.5 859.2 337.2Q860.4 336.0 862.5 336.0Q864.5 336.0 865.8 337.2Q867.0 338.5 867.0 340.8L867.0 340.8L867.0 377.7Q867.0 379.9 865.8 381.2ZM886.8 382.5L886.8 382.5Q881.2 382.5 877.4 380.6Q873.7 378.8 872.4 375.8L872.4 375.8Q872.1 374.8 872.1 374.1L872.1 374.1Q872.1 372.5 873.1 371.6Q874.2 370.6 875.8 370.6L875.8 370.6Q877.9 370.6 879.8 372.7L879.8 372.7Q881.1 374.4 882.8 375.3Q884.5 376.1 887.1 376.1L887.1 376.1Q889.6 376.1 891.0 375.1Q892.5 374.1 892.5 372.5L892.5 372.5Q892.5 371.1 891.5 370.3Q890.5 369.5 888.1 369.0L888.1 369.0L882.5 367.8Q877.6 366.7 875.1 364.3Q872.6 361.8 872.6 358.1L872.6 358.1Q872.6 353.3 876.5 350.4Q880.3 347.5 886.8 347.5L886.8 347.5Q891.9 347.5 895.5 349.5Q899.1 351.5 899.9 354.5L899.9 354.5Q900.2 355.3 900.2 355.8L900.2 355.8Q900.2 357.3 899.3 358.1Q898.4 358.9 896.7 358.9L896.7 358.9Q894.5 358.9 893.3 357.5L893.3 357.5Q892.0 355.8 890.5 354.9Q888.9 353.9 886.7 353.9L886.7 353.9Q884.3 353.9 882.9 354.9Q881.4 355.9 881.4 357.6L881.4 357.6Q881.4 358.9 882.5 359.8Q883.6 360.7 886.1 361.2L886.1 361.2L891.6 362.4Q896.9 363.5 899.3 365.6Q901.7 367.8 901.7 371.5L901.7 371.5Q901.7 376.5 897.6 379.5Q893.5 382.5 886.8 382.5Z " clip-path="url(#satori_cp-id-0)" mask="url(#satori_om-id-0)"/><defs><clipPath id="satori_bc-id-0-1" clip-path="url(#satori_cp-id-0)"><rect x="0" y="509" width="1200" height="121"/></clipPath></defs><mask id="satori_om-id-0-1"><rect x="0" y="510" width="1200" height="120" fill="#fff" mask="url(#satori_om-id-0)"/><path width="1200" height="121" fill="none" stroke="#000" stroke-width="2" d="M0,509 A0,0 0 0 1 0,509 h1200 A0,0 0 0 1 1200,509"/></mask><path width="1200" height="121" clip-path="url(#satori_bc-id-0-1)" fill="none" stroke="rgba(0,0,0,0.08)" stroke-width="2" d="M0,509 A0,0 0 0 1 0,509 h1200 A0,0 0 0 1 1200,509"/><mask id="satori_om-id-0-1-0"><rect x="48" y="538" width="228" height="64" fill="#fff" mask="url(#satori_om-id-0)"/></mask><mask id="satori_om-id-0-1-0-0"><rect x="48" y="538" width="72" height="64" fill="#fff" mask="url(#satori_om-id-0)"/></mask><clipPath id="satori_cp-id-0-1-0-0-0" clip-path="url(#satori_cp-id-0)"><rect x="48" y="538" width="72" height="64"/></clipPath><mask id="satori_om-id-0-1-0-0-0"><rect x="48" y="538" width="72" height="64" fill="#fff" mask="url(#satori_om-id-0)"/></mask><image x="48" y="538" width="72" height="64" href="data:image/svg+xml;utf8,%3Csvg  xmlns=%22http://www.w3.org/2000/svg%22 width=%2273.60461760461762%22 height=%2264%22 viewBox=%220 0 797 693%22%3E%3Cg transform=%22matrix(1,0,0,1,-345,-96.5)%22%3E%3Cpath d=%22M756.942,197.15L756.942,474C701.751,474 656.942,518.808 656.942,574C656.942,629.192 701.751,674 756.942,674L756.942,777L495.122,777C443.175,777 401,734.825 401,682.878L401,614L364.755,614C353.852,614 345,605.148 345,594.245L345,436.814C345,425.878 353.878,417 364.814,417L401,417L401,365.122C401,313.175 443.175,271 495.122,271L715.058,271L715.058,197.15C696.492,189.056 683.5,170.533 683.5,149C683.5,120.024 707.024,96.5 736,96.5C764.976,96.5 788.5,120.024 788.5,149C788.5,170.533 775.508,189.056 756.942,197.15ZM559,388C520.918,388 490,418.918 490,457C490,495.082 520.918,526 559,526C597.082,526 628,495.082 628,457C628,418.918 597.082,388 559,388Z%22 fill=%22%23ad47ff%22%3E%3C/path%3E%3Cg transform=%22matrix(-1,1.22465e-16,-1.22465e-16,-1,1486.06,1043)%22%3E%3Cpath d=%22M401,417L401,348.122C401,296.175 443.175,254 495.122,254L705.058,254L705.058,357C760.249,357 805.058,401.808 805.058,457C805.058,512.192 760.249,557 705.058,557L705.058,760L495.122,760C443.175,760 401,717.825 401,665.878L401,614L364.755,614C353.852,614 345,605.148 345,594.245L345,436.814C345,425.878 353.878,417 364.814,417L401,417ZM552,643C590.082,643 621,612.082 621,574C621,535.918 590.082,505 552,505C513.918,505 483,535.918 483,574C483,612.082 513.918,643 552,643Z%22 fill=%22%2300d5bd%22%3E%3C/path%3E%3C/g%3E%3C/g%3E%3C/svg%3E" preserveAspectRatio="none" clip-path="url(#satori_cp-id-0-1-0-0-0)" mask="url(#satori_om-id-0-1-0-0-0)"/><mask id="satori_om-id-0-1-0-0-0-0"><rect x="48" y="538" width="0" height="64" fill="#fff" mask="url(#satori_om-id-0)"/></mask><mask id="satori_om-id-0-1-0-0-0-0-0"><rect x="48" y="538" width="0" height="64" fill="#fff" mask="url(#satori_om-id-0)"/></mask><mask id="satori_om-id-0-1-0-0-0-0-1"><rect x="48" y="538" width="0" height="64" fill="#fff" mask="url(#satori_om-id-0)"/></mask><mask id="satori_om-id-0-1-0-0-0-0-1-0"><rect x="48" y="538" width="0" height="64" fill="#fff" mask="url(#satori_om-id-0)"/></mask><mask id="satori_om-id-0-1-0-1"><rect x="138" y="540" width="138" height="60" fill="#fff" mask="url(#satori_om-id-0)"/></mask><mask id="satori_om-id-0-1-0-1-0"><rect x="138" y="540" width="138" height="36" fill="#fff" mask="url(#satori_om-id-0)"/></mask><path fill="#0f172a" d="M150.7 571.2L150.7 571.2Q145.9 571.2 143.0 568.6Q140.1 566.1 140.1 561.8L140.1 561.8L140.1 547.9Q140.1 546.5 140.8 545.8Q141.5 545.1 142.8 545.1Q144.0 545.1 144.7 545.8Q145.4 546.5 145.4 547.9L145.4 547.9L145.4 561.3Q145.4 563.8 146.8 565.2Q148.2 566.7 150.7 566.7L150.7 566.7Q153.3 566.7 154.7 565.2Q156.1 563.8 156.1 561.3L156.1 561.3L156.1 547.9Q156.1 546.5 156.8 545.8Q157.5 545.1 158.7 545.1Q160.0 545.1 160.7 545.8Q161.4 546.5 161.4 547.9L161.4 547.9L161.4 561.8Q161.4 566.1 158.5 568.6Q155.6 571.2 150.7 571.2ZM170.2 570.4Q169.5 571.2 168.2 571.2Q167.0 571.2 166.3 570.4Q165.6 569.7 165.6 568.4L165.6 568.4L165.6 548.2Q165.6 546.9 166.3 546.2Q167.0 545.4 168.2 545.4L168.2 545.4L176.0 545.4Q180.3 545.4 182.7 547.6Q185.1 549.7 185.1 553.5L185.1 553.5Q185.1 555.9 184.0 557.8Q182.9 559.7 180.8 560.6L180.8 560.6L184.4 566.9Q185.0 567.9 185.0 568.7L185.0 568.7Q185.0 569.8 184.2 570.5Q183.5 571.2 182.3 571.2L182.3 571.2Q181.4 571.2 180.8 570.8Q180.3 570.3 179.6 569.2L179.6 569.2L175.4 561.5L170.9 561.5L170.9 568.4Q170.9 569.7 170.2 570.4ZM170.9 549.6L170.9 557.7L175.5 557.7Q177.5 557.7 178.6 556.6Q179.7 555.5 179.7 553.6L179.7 553.6Q179.7 551.8 178.5 550.7Q177.4 549.6 175.4 549.6L175.4 549.6L170.9 549.6ZM198.1 562.7L190.8 562.7Q189.7 562.7 189.1 562.1Q188.4 561.5 188.4 560.5Q188.4 559.4 189.1 558.8Q189.7 558.2 190.8 558.2L190.8 558.2L198.1 558.2Q199.2 558.2 199.9 558.8Q200.6 559.4 200.6 560.5Q200.6 561.5 199.9 562.1Q199.2 562.7 198.1 562.7L198.1 562.7ZM209.1 570.4Q208.4 571.2 207.2 571.2Q205.9 571.2 205.2 570.4Q204.5 569.7 204.5 568.4L204.5 568.4L204.5 548.2Q204.5 546.9 205.2 546.2Q205.9 545.4 207.2 545.4L207.2 545.4L214.9 545.4Q219.3 545.4 221.7 547.6Q224.1 549.7 224.1 553.5L224.1 553.5Q224.1 555.9 223.0 557.8Q221.8 559.7 219.7 560.6L219.7 560.6L223.4 566.9Q224.0 567.9 224.0 568.7L224.0 568.7Q224.0 569.8 223.2 570.5Q222.4 571.2 221.3 571.2L221.3 571.2Q220.3 571.2 219.8 570.8Q219.2 570.3 218.6 569.2L218.6 569.2L214.4 561.5L209.8 561.5L209.8 568.4Q209.8 569.7 209.1 570.4ZM209.8 549.6L209.8 557.7L214.4 557.7Q216.4 557.7 217.5 556.6Q218.6 555.5 218.6 553.6L218.6 553.6Q218.6 551.8 217.5 550.7Q216.3 549.6 214.4 549.6L214.4 549.6L209.8 549.6ZM229.3 571.1L229.3 571.1Q228.0 571.1 227.3 570.5Q226.6 569.8 226.6 568.6L226.6 568.6Q226.6 567.9 226.9 566.9L226.9 566.9L233.9 548.1Q234.4 546.5 235.4 545.8Q236.3 545.1 237.8 545.1L237.8 545.1Q239.4 545.1 240.4 545.8Q241.3 546.5 241.9 548.1L241.9 548.1L248.9 566.9Q249.2 567.9 249.2 568.6L249.2 568.6Q249.2 569.7 248.5 570.4Q247.7 571.1 246.5 571.1L246.5 571.1Q245.4 571.1 244.8 570.6Q244.1 570.0 243.8 568.8L243.8 568.8L242.4 564.8L233.3 564.8L232.0 568.7Q231.6 570.0 231.0 570.6Q230.3 571.1 229.3 571.1ZM237.7 550.3L234.5 560.7L241.2 560.7L237.9 550.3L237.7 550.3ZM262.1 570.8L255.1 570.8Q253.8 570.8 253.1 570.1Q252.4 569.3 252.4 568.0L252.4 568.0L252.4 548.2Q252.4 546.9 253.1 546.2Q253.8 545.4 255.1 545.4L255.1 545.4L262.1 545.4Q267.8 545.4 271.0 548.7Q274.2 552.0 274.2 558.0L274.2 558.0Q274.2 564.0 271.0 567.4Q267.8 570.8 262.1 570.8L262.1 570.8ZM257.7 549.8L257.7 566.4L261.5 566.4Q265.0 566.4 266.9 564.3Q268.8 562.1 268.8 558.0L268.8 558.0Q268.8 554.1 266.9 551.9Q265.0 549.8 261.5 549.8L261.5 549.8L257.7 549.8Z " clip-path="url(#satori_cp-id-0)" mask="url(#satori_om-id-0)"/><mask id="satori_om-id-0-1-0-1-1"><rect x="138" y="576" width="138" height="24" fill="#fff" mask="url(#satori_om-id-0)"/></mask><path fill="#334155" d="M145.0 595.3L145.0 595.3Q142.4 595.3 140.8 593.8Q139.2 592.4 139.2 590.1L139.2 590.1L139.2 582.1Q139.2 581.5 139.6 581.1Q139.9 580.8 140.5 580.8L140.5 580.8Q141.1 580.8 141.4 581.1Q141.8 581.5 141.8 582.1L141.8 582.1L141.8 589.8Q141.8 591.3 142.6 592.2Q143.5 593.1 145.0 593.1Q146.6 593.1 147.4 592.2Q148.3 591.3 148.3 589.8L148.3 589.8L148.3 582.1Q148.3 581.5 148.6 581.1Q149.0 580.8 149.6 580.8L149.6 580.8Q150.2 580.8 150.5 581.1Q150.8 581.5 150.8 582.1L150.8 582.1L150.8 590.1Q150.8 592.4 149.3 593.8Q147.7 595.3 145.0 595.3ZM155.5 594.9Q155.2 595.2 154.6 595.2Q154.0 595.2 153.6 594.9Q153.3 594.5 153.3 593.9L153.3 593.9L153.3 582.3Q153.3 581.6 153.6 581.3Q154.0 581.0 154.6 581.0L154.6 581.0L158.9 581.0Q161.2 581.0 162.5 582.1Q163.8 583.3 163.8 585.3L163.8 585.3Q163.8 586.7 163.1 587.8Q162.4 588.8 161.2 589.3L161.2 589.3L163.4 593.2Q163.7 593.7 163.7 594.1L163.7 594.1Q163.7 594.6 163.4 594.9Q163.0 595.2 162.4 595.2L162.4 595.2Q162.0 595.2 161.7 595.0Q161.5 594.8 161.2 594.3L161.2 594.3L158.7 589.7L155.8 589.7L155.8 593.9Q155.8 594.5 155.5 594.9ZM155.8 583.0L155.8 587.8L158.7 587.8Q159.9 587.8 160.5 587.2Q161.2 586.5 161.2 585.4L161.2 585.4Q161.2 584.3 160.5 583.6Q159.8 583.0 158.6 583.0L158.6 583.0L155.8 583.0ZM171.1 590.4L166.7 590.4Q166.2 590.4 165.9 590.1Q165.6 589.8 165.6 589.3Q165.6 588.8 165.9 588.5Q166.2 588.2 166.7 588.2L166.7 588.2L171.1 588.2Q171.7 588.2 172.0 588.5Q172.3 588.8 172.3 589.3Q172.3 589.8 172.0 590.1Q171.7 590.4 171.1 590.4L171.1 590.4ZM176.7 594.9Q176.4 595.2 175.8 595.2Q175.2 595.2 174.9 594.9Q174.6 594.5 174.6 593.9L174.6 593.9L174.6 582.3Q174.6 581.6 174.9 581.3Q175.2 581.0 175.8 581.0L175.8 581.0L180.1 581.0Q182.4 581.0 183.7 582.1Q185.0 583.3 185.0 585.3L185.0 585.3Q185.0 586.7 184.3 587.8Q183.7 588.8 182.5 589.3L182.5 589.3L184.7 593.2Q185.0 593.7 185.0 594.1L185.0 594.1Q185.0 594.6 184.6 594.9Q184.2 595.2 183.7 595.2L183.7 595.2Q183.2 595.2 183.0 595.0Q182.7 594.8 182.4 594.3L182.4 594.3L179.9 589.7L177.1 589.7L177.1 593.9Q177.1 594.5 176.7 594.9ZM177.1 583.0L177.1 587.8L179.9 587.8Q181.1 587.8 181.8 587.2Q182.4 586.5 182.4 585.4L182.4 585.4Q182.4 584.3 181.8 583.6Q181.1 583.0 179.9 583.0L179.9 583.0L177.1 583.0ZM187.7 595.2L187.7 595.2Q187.1 595.2 186.7 594.9Q186.4 594.6 186.4 594.0L186.4 594.0Q186.4 593.7 186.6 593.3L186.6 593.3L190.7 582.2Q190.9 581.4 191.4 581.1Q191.8 580.8 192.5 580.8L192.5 580.8Q193.2 580.8 193.6 581.1Q194.1 581.4 194.3 582.1L194.3 582.1L198.4 593.3Q198.6 593.7 198.6 594.0L198.6 594.0Q198.6 594.6 198.2 594.9Q197.9 595.2 197.3 595.2L197.3 595.2Q196.8 595.2 196.5 595.0Q196.2 594.7 196.0 594.1L196.0 594.1L195.1 591.4L189.9 591.4L188.9 594.1Q188.8 594.7 188.5 595.0Q188.2 595.2 187.7 595.2ZM192.4 583.4L190.5 589.5L194.5 589.5L192.5 583.4L192.4 583.4ZM205.6 595.0L201.7 595.0Q201.1 595.0 200.8 594.7Q200.4 594.3 200.4 593.7L200.4 593.7L200.4 582.3Q200.4 581.6 200.8 581.3Q201.1 581.0 201.7 581.0L201.7 581.0L205.6 581.0Q208.7 581.0 210.5 582.8Q212.3 584.6 212.3 588.0L212.3 588.0Q212.3 591.3 210.5 593.2Q208.7 595.0 205.6 595.0L205.6 595.0ZM202.9 583.1L202.9 592.9L205.3 592.9Q207.4 592.9 208.6 591.6Q209.7 590.4 209.7 588.0L209.7 588.0Q209.7 585.6 208.6 584.3Q207.4 583.1 205.3 583.1L205.3 583.1L202.9 583.1Z M227.0 595.0L219.2 595.0Q218.7 595.0 218.3 594.8Q218.0 594.5 218.0 594.0L218.0 594.0Q218.0 593.6 218.2 593.3Q218.3 593.1 218.7 592.7L218.7 592.7L223.0 588.4Q224.4 587.1 224.8 586.4Q225.3 585.7 225.3 584.9L225.3 584.9Q225.3 583.9 224.6 583.3Q224.0 582.7 223.0 582.7L223.0 582.7Q221.1 582.7 220.3 584.6L220.3 584.6Q220.1 585.0 219.9 585.2Q219.6 585.4 219.2 585.4L219.2 585.4Q218.7 585.4 218.4 585.1Q218.1 584.8 218.1 584.3L218.1 584.3Q218.1 584.1 218.2 583.8L218.2 583.8Q218.3 583.2 218.7 582.7Q219.1 582.1 219.7 581.7Q220.3 581.2 221.1 580.9Q222.0 580.7 223.0 580.7L223.0 580.7Q225.1 580.7 226.4 581.8Q227.8 582.9 227.8 584.7L227.8 584.7Q227.8 585.9 227.1 586.9Q226.4 588.0 224.6 589.8L224.6 589.8L221.4 592.9L221.4 593.0L227.0 593.0Q227.5 593.0 227.8 593.3Q228.1 593.5 228.1 594.0Q228.1 594.5 227.8 594.8Q227.5 595.0 227.0 595.0L227.0 595.0ZM235.2 595.3L235.2 595.3Q232.6 595.3 231.1 593.4Q229.7 591.4 229.7 588.0L229.7 588.0Q229.7 584.6 231.1 582.6Q232.6 580.7 235.2 580.7L235.2 580.7Q237.8 580.7 239.3 582.6Q240.7 584.6 240.7 588.0L240.7 588.0Q240.7 591.4 239.3 593.3Q237.8 595.3 235.2 595.3ZM235.2 593.3L235.2 593.3Q236.6 593.3 237.4 591.9Q238.2 590.5 238.2 588.0L238.2 588.0Q238.2 585.5 237.4 584.1Q236.6 582.7 235.2 582.7Q233.8 582.7 233.0 584.1Q232.2 585.5 232.2 588.0L232.2 588.0Q232.2 590.5 233.0 591.9Q233.8 593.3 235.2 593.3ZM251.6 595.0L243.8 595.0Q243.2 595.0 242.9 594.8Q242.6 594.5 242.6 594.0L242.6 594.0Q242.6 593.6 242.7 593.3Q242.9 593.1 243.3 592.7L243.3 592.7L247.6 588.4Q248.9 587.1 249.4 586.4Q249.8 585.7 249.8 584.9L249.8 584.9Q249.8 583.9 249.2 583.3Q248.5 582.7 247.5 582.7L247.5 582.7Q245.6 582.7 244.9 584.6L244.9 584.6Q244.7 585.0 244.4 585.2Q244.2 585.4 243.7 585.4L243.7 585.4Q243.2 585.4 242.9 585.1Q242.6 584.8 242.6 584.3L242.6 584.3Q242.6 584.1 242.7 583.8L242.7 583.8Q242.9 583.2 243.2 582.7Q243.6 582.1 244.2 581.7Q244.8 581.2 245.7 580.9Q246.5 580.7 247.5 580.7L247.5 580.7Q249.6 580.7 251.0 581.8Q252.3 582.9 252.3 584.7L252.3 584.7Q252.3 585.9 251.6 586.9Q251.0 588.0 249.2 589.8L249.2 589.8L245.9 592.9L245.9 593.0L251.6 593.0Q252.1 593.0 252.4 593.3Q252.6 593.5 252.6 594.0Q252.6 594.5 252.4 594.8Q252.1 595.0 251.6 595.0L251.6 595.0ZM259.6 595.3L259.6 595.3Q258.0 595.3 256.7 594.6Q255.4 593.9 254.9 592.8L254.9 592.8Q254.6 592.3 254.6 591.8L254.6 591.8Q254.6 591.3 254.9 591.0Q255.2 590.7 255.7 590.7L255.7 590.7Q256.1 590.7 256.4 590.9Q256.6 591.1 256.8 591.5L256.8 591.5Q257.2 592.3 257.9 592.8Q258.6 593.3 259.6 593.3L259.6 593.3Q260.9 593.3 261.7 592.5Q262.5 591.7 262.5 590.4L262.5 590.4Q262.5 589.2 261.7 588.4Q260.9 587.7 259.6 587.7L259.6 587.7Q258.3 587.7 257.4 588.5L257.4 588.5Q257.0 589.0 256.7 589.1Q256.4 589.3 256.0 589.3L256.0 589.3Q255.4 589.3 255.1 588.9Q254.8 588.5 254.8 588.0L254.8 588.0Q254.8 587.9 254.8 587.8L254.8 587.8L255.3 582.5Q255.4 581.7 255.8 581.3Q256.2 581.0 257.0 581.0L257.0 581.0L263.1 581.0Q263.6 581.0 263.9 581.2Q264.2 581.5 264.2 582.0L264.2 582.0Q264.2 582.4 263.9 582.7Q263.6 583.0 263.1 583.0L263.1 583.0L257.4 583.0L257.1 587.2L257.1 587.2Q257.6 586.5 258.4 586.1Q259.2 585.8 260.3 585.8L260.3 585.8Q262.3 585.8 263.6 587.0Q264.9 588.3 264.9 590.4L264.9 590.4Q264.9 592.6 263.4 593.9Q261.9 595.3 259.6 595.3Z " clip-path="url(#satori_cp-id-0)" mask="url(#satori_om-id-0)"/><mask id="satori_om-id-0-1-1"><rect x="888" y="557" width="264" height="26" fill="#fff" mask="url(#satori_om-id-0)"/></mask><path fill="#334155" d="M891.4 577.8Q891.1 578.2 890.5 578.2Q889.9 578.2 889.5 577.8Q889.2 577.5 889.2 576.8L889.2 576.8L889.2 563.6Q889.2 563.0 889.5 562.6Q889.9 562.2 890.5 562.2Q891.1 562.2 891.5 562.6Q891.8 563.0 891.8 563.6L891.8 563.6L891.8 568.5L891.9 568.5Q892.4 567.5 893.3 566.9Q894.3 566.4 895.5 566.4L895.5 566.4Q897.6 566.4 898.9 568.0Q900.2 569.5 900.2 572.3L900.2 572.3Q900.2 575.0 898.9 576.6Q897.6 578.1 895.5 578.1L895.5 578.1Q894.2 578.1 893.3 577.6Q892.4 577.0 891.8 576.0L891.8 576.0L891.8 576.0L891.8 576.8Q891.8 577.5 891.4 577.8ZM894.6 575.9L894.6 575.9Q895.9 575.9 896.7 574.9Q897.4 574.0 897.4 572.3Q897.4 570.6 896.7 569.6Q895.9 568.6 894.6 568.6L894.6 568.6Q893.4 568.6 892.6 569.6Q891.8 570.6 891.8 572.3L891.8 572.3Q891.8 573.9 892.6 574.9Q893.4 575.9 894.6 575.9ZM903.5 582.2L903.5 582.2Q902.6 582.2 902.1 581.9Q901.7 581.5 901.7 580.9L901.7 580.9Q901.7 580.5 901.9 580.3Q902.2 580.0 902.7 580.0L902.7 580.0Q902.8 580.0 903.0 580.0Q903.1 580.0 903.3 580.0L903.3 580.0Q904.3 580.0 904.9 578.7L904.9 578.7L905.1 578.2L901.3 568.3Q901.2 567.9 901.2 567.6L901.2 567.6Q901.2 567.0 901.6 566.7Q902.0 566.3 902.6 566.3L902.6 566.3Q903.1 566.3 903.4 566.6Q903.7 566.8 903.8 567.4L903.8 567.4L906.6 575.7L906.6 575.7L909.3 567.4Q909.5 566.8 909.8 566.6Q910.1 566.3 910.6 566.3L910.6 566.3Q911.2 566.3 911.5 566.7Q911.9 567.0 911.9 567.5L911.9 567.5Q911.9 567.9 911.8 568.3L911.8 568.3L908.0 578.4Q907.2 580.5 906.2 581.3Q905.2 582.2 903.5 582.2Z M918.7 578.1L918.7 578.1Q918.1 578.1 917.7 577.8Q917.3 577.4 917.3 576.9L917.3 576.9Q917.3 576.5 917.5 576.0L917.5 576.0L922.0 563.8Q922.3 563.0 922.8 562.6Q923.3 562.3 924.0 562.3L924.0 562.3Q924.8 562.3 925.3 562.6Q925.8 563.0 926.0 563.8L926.0 563.8L930.6 576.0Q930.7 576.5 930.7 576.9L930.7 576.9Q930.7 577.4 930.4 577.8Q930.0 578.1 929.4 578.1L929.4 578.1Q928.8 578.1 928.5 577.9Q928.1 577.6 927.9 577.0L927.9 577.0L926.9 574.0L921.1 574.0L920.1 576.9Q919.9 577.6 919.6 577.9Q919.3 578.1 918.7 578.1ZM924.0 565.2L921.8 571.8L926.2 571.8L924.0 565.2L924.0 565.2ZM936.7 578.1L936.7 578.1Q934.6 578.1 933.3 576.5Q932.0 575.0 932.0 572.2L932.0 572.2Q932.0 569.5 933.3 568.0Q934.6 566.4 936.7 566.4L936.7 566.4Q937.9 566.4 938.9 566.9Q939.8 567.5 940.3 568.5L940.3 568.5L940.3 568.5L940.3 563.6Q940.3 563.0 940.7 562.6Q941.1 562.2 941.7 562.2Q942.3 562.2 942.6 562.6Q943 563.0 943 563.6L943 563.6L943 576.8Q943 577.5 942.6 577.8Q942.3 578.2 941.7 578.2L941.7 578.2Q941.1 578.2 940.7 577.8Q940.3 577.5 940.3 576.8L940.3 576.8L940.3 575.9L940.3 575.9Q939.8 576.9 938.9 577.5Q938.0 578.1 936.7 578.1ZM937.5 575.9L937.5 575.9Q938.8 575.9 939.6 574.9Q940.3 573.9 940.3 572.3L940.3 572.3Q940.3 570.6 939.6 569.6Q938.8 568.6 937.5 568.6L937.5 568.6Q936.3 568.6 935.5 569.6Q934.8 570.6 934.8 572.3L934.8 572.3Q934.8 574.0 935.5 575.0Q936.2 575.9 937.5 575.9ZM948.6 578.1L948.6 578.1Q946.9 578.1 945.9 577.2Q944.8 576.2 944.8 574.7L944.8 574.7Q944.8 573.2 945.9 572.3Q947.0 571.4 949.1 571.3L949.1 571.3L952.1 571.1L952.1 570.3Q952.1 569.4 951.6 568.9Q951.0 568.4 950.0 568.4L950.0 568.4Q949.2 568.4 948.7 568.7Q948.1 569.0 947.6 569.8L947.6 569.8Q947.2 570.3 946.5 570.3L946.5 570.3Q946.0 570.3 945.7 570.0Q945.4 569.7 945.4 569.2L945.4 569.2Q945.4 568.9 945.6 568.5L945.6 568.5Q946.0 567.5 947.2 566.9Q948.5 566.3 950.1 566.3L950.1 566.3Q952.2 566.3 953.5 567.4Q954.8 568.4 954.8 570.1L954.8 570.1L954.8 576.8Q954.8 577.5 954.4 577.8Q954.1 578.2 953.5 578.2L953.5 578.2Q952.9 578.2 952.6 577.8Q952.2 577.5 952.2 576.9L952.2 576.9L952.2 576.1L952.1 576.1Q951.7 577.0 950.7 577.6Q949.7 578.1 948.6 578.1ZM949.4 576.1L949.4 576.1Q950.5 576.1 951.3 575.4Q952.1 574.7 952.1 573.7L952.1 573.7L952.1 572.9L949.5 573.0Q948.5 573.1 948.0 573.5Q947.5 573.9 947.5 574.6L947.5 574.6Q947.5 575.3 948.0 575.7Q948.5 576.1 949.4 576.1ZM958.3 578.2L958.3 578.2Q957.6 578.2 957.3 577.8Q956.9 577.4 956.9 576.8L956.9 576.8L956.9 567.7Q956.9 567.1 957.3 566.7Q957.6 566.3 958.2 566.3Q958.8 566.3 959.1 566.7Q959.5 567.1 959.5 567.7L959.5 567.7L959.5 568.5L959.5 568.5Q959.9 567.5 960.8 566.9Q961.6 566.3 962.8 566.3L962.8 566.3Q964.0 566.3 964.8 566.9Q965.7 567.5 966.0 568.6L966.0 568.6L966.0 568.6Q966.4 567.6 967.4 567.0Q968.3 566.3 969.6 566.3L969.6 566.3Q971.3 566.3 972.3 567.4Q973.3 568.4 973.3 570.1L973.3 570.1L973.3 576.8Q973.3 577.4 972.9 577.8Q972.6 578.2 972.0 578.2L972.0 578.2Q971.3 578.2 971.0 577.8Q970.6 577.4 970.6 576.8L970.6 576.8L970.6 570.8Q970.6 569.7 970.1 569.2Q969.6 568.6 968.6 568.6L968.6 568.6Q967.6 568.6 967.0 569.2Q966.4 569.9 966.4 570.9L966.4 570.9L966.4 576.8Q966.4 577.4 966.1 577.8Q965.7 578.2 965.1 578.2L965.1 578.2Q964.5 578.2 964.2 577.8Q963.8 577.4 963.8 576.8L963.8 576.8L963.8 570.7Q963.8 569.7 963.3 569.2Q962.7 568.6 961.8 568.6L961.8 568.6Q960.8 568.6 960.2 569.3Q959.6 569.9 959.6 571.0L959.6 571.0L959.6 576.8Q959.6 577.4 959.2 577.8Q958.9 578.2 958.3 578.2ZM977.9 564.5Q977.5 565.0 976.8 565.0Q976.2 565.0 975.8 564.5Q975.3 564.1 975.3 563.5L975.3 563.5Q975.3 562.9 975.8 562.5Q976.2 562.1 976.8 562.1L976.8 562.1Q977.5 562.1 977.9 562.5Q978.3 562.9 978.3 563.5L978.3 563.5Q978.3 564.1 977.9 564.5ZM977.8 577.8Q977.4 578.2 976.8 578.2Q976.2 578.2 975.9 577.8Q975.5 577.4 975.5 576.8L975.5 576.8L975.5 567.7Q975.5 567.1 975.9 566.7Q976.2 566.3 976.8 566.3Q977.4 566.3 977.8 566.7Q978.2 567.1 978.2 567.8L978.2 567.8L978.2 576.8Q978.2 577.4 977.8 577.8ZM982.8 577.8Q982.4 578.2 981.8 578.2Q981.2 578.2 980.9 577.8Q980.5 577.4 980.5 576.8L980.5 576.8L980.5 563.6Q980.5 563.0 980.9 562.6Q981.2 562.2 981.8 562.2Q982.4 562.2 982.8 562.6Q983.2 563.0 983.2 563.6L983.2 563.6L983.2 571.3L983.2 571.3L987.7 566.9Q988.1 566.3 988.7 566.3L988.7 566.3Q989.2 566.3 989.5 566.7Q989.9 567.0 989.9 567.5L989.9 567.5Q989.9 568.0 989.4 568.5L989.4 568.5L986.2 571.5L989.7 576.0Q990.1 576.5 990.1 577.0L990.1 577.0Q990.1 577.5 989.7 577.8Q989.4 578.2 988.8 578.2L988.8 578.2Q988.4 578.2 988.1 578.0Q987.9 577.8 987.6 577.4L987.6 577.4L984.2 573.1L983.2 574.0L983.2 576.8Q983.2 577.4 982.8 577.8ZM993.7 575.2L993.7 575.2Q994.3 575.2 994.6 575.5Q994.9 575.8 994.9 576.3L994.9 576.3Q994.9 576.6 994.8 576.9L994.8 576.9L993.9 580.6Q993.8 581.1 993.5 581.3Q993.3 581.5 992.8 581.5Q992.3 581.5 992.1 581.2Q991.8 581.0 991.8 580.5L991.8 580.5Q991.8 580.4 991.8 580.3L991.8 580.3L992.4 576.3Q992.6 575.2 993.7 575.2Z M1004.6 577.8Q1004.3 578.1 1003.7 578.1Q1003.1 578.1 1002.7 577.8Q1002.4 577.4 1002.4 576.8L1002.4 576.8L1002.4 564.0Q1002.4 563.2 1002.9 562.7Q1003.4 562.3 1004.2 562.3L1004.2 562.3Q1004.9 562.3 1005.4 562.6Q1005.8 562.9 1006.1 563.7L1006.1 563.7L1010.4 574.1L1010.5 574.1L1014.7 563.7Q1015.0 562.9 1015.5 562.6Q1015.9 562.3 1016.6 562.3L1016.6 562.3Q1017.5 562.3 1017.9 562.7Q1018.4 563.2 1018.4 564.0L1018.4 564.0L1018.4 576.8Q1018.4 577.4 1018.1 577.8Q1017.8 578.1 1017.2 578.1Q1016.6 578.1 1016.2 577.8Q1015.9 577.4 1015.9 576.8L1015.9 576.8L1015.9 566.9L1015.8 566.9L1011.7 576.9Q1011.3 577.9 1010.4 577.9L1010.4 577.9Q1009.5 577.9 1009.1 576.9L1009.1 576.9L1005.0 566.9L1004.9 566.9L1004.9 576.8Q1004.9 577.4 1004.6 577.8ZM1022.8 578.1L1022.8 578.1Q1022.1 578.1 1021.6 577.6Q1021.2 577.2 1021.2 576.5L1021.2 576.5Q1021.2 575.9 1021.6 575.4Q1022.1 575.0 1022.8 575.0L1022.8 575.0Q1023.4 575.0 1023.8 575.4Q1024.3 575.9 1024.3 576.5L1024.3 576.5Q1024.3 577.2 1023.8 577.6Q1023.4 578.1 1022.8 578.1Z M1034.5 578.1L1034.5 578.1Q1032.9 578.1 1031.8 577.2Q1030.7 576.2 1030.7 574.7L1030.7 574.7Q1030.7 573.2 1031.9 572.3Q1033.0 571.4 1035.1 571.3L1035.1 571.3L1038.1 571.1L1038.1 570.3Q1038.1 569.4 1037.5 568.9Q1037.0 568.4 1036.0 568.4L1036.0 568.4Q1035.2 568.4 1034.6 568.7Q1034.1 569.0 1033.6 569.8L1033.6 569.8Q1033.2 570.3 1032.5 570.3L1032.5 570.3Q1032.0 570.3 1031.7 570.0Q1031.4 569.7 1031.4 569.2L1031.4 569.2Q1031.4 568.9 1031.5 568.5L1031.5 568.5Q1032.0 567.5 1033.2 566.9Q1034.4 566.3 1036.1 566.3L1036.1 566.3Q1038.2 566.3 1039.5 567.4Q1040.7 568.4 1040.7 570.1L1040.7 570.1L1040.7 576.8Q1040.7 577.5 1040.4 577.8Q1040.0 578.2 1039.4 578.2L1039.4 578.2Q1038.9 578.2 1038.5 577.8Q1038.2 577.5 1038.2 576.9L1038.2 576.9L1038.2 576.1L1038.1 576.1Q1037.6 577.0 1036.6 577.6Q1035.7 578.1 1034.5 578.1ZM1035.4 576.1L1035.4 576.1Q1036.5 576.1 1037.3 575.4Q1038.1 574.7 1038.1 573.7L1038.1 573.7L1038.1 572.9L1035.4 573.0Q1034.5 573.1 1033.9 573.5Q1033.4 573.9 1033.4 574.6L1033.4 574.6Q1033.4 575.3 1033.9 575.7Q1034.5 576.1 1035.4 576.1ZM1045.2 577.8Q1044.8 578.2 1044.2 578.2Q1043.6 578.2 1043.2 577.8Q1042.9 577.4 1042.9 576.8L1042.9 576.8L1042.9 567.7Q1042.9 567.1 1043.2 566.7Q1043.6 566.3 1044.2 566.3Q1044.8 566.3 1045.1 566.7Q1045.5 567.1 1045.5 567.7L1045.5 567.7L1045.5 568.5L1045.5 568.5Q1046.5 566.3 1049.1 566.3L1049.1 566.3Q1050.9 566.3 1052.0 567.5Q1053.0 568.6 1053.0 570.6L1053.0 570.6L1053.0 576.8Q1053.0 577.4 1052.7 577.8Q1052.3 578.2 1051.7 578.2Q1051.1 578.2 1050.7 577.8Q1050.3 577.4 1050.3 576.8L1050.3 576.8L1050.3 571.1Q1050.3 569.9 1049.8 569.3Q1049.2 568.6 1048.1 568.6L1048.1 568.6Q1046.9 568.6 1046.2 569.4Q1045.6 570.1 1045.6 571.4L1045.6 571.4L1045.6 576.8Q1045.6 577.4 1045.2 577.8ZM1059.4 578.1L1059.4 578.1Q1057.3 578.1 1056.0 576.5Q1054.7 575.0 1054.7 572.2L1054.7 572.2Q1054.7 569.5 1056.0 568.0Q1057.3 566.4 1059.4 566.4L1059.4 566.4Q1060.6 566.4 1061.5 566.9Q1062.5 567.5 1062.9 568.5L1062.9 568.5L1063.0 568.5L1063.0 563.6Q1063.0 563.0 1063.4 562.6Q1063.7 562.2 1064.3 562.2Q1064.9 562.2 1065.3 562.6Q1065.7 563.0 1065.7 563.6L1065.7 563.6L1065.7 576.8Q1065.7 577.5 1065.3 577.8Q1064.9 578.2 1064.4 578.2L1064.4 578.2Q1063.8 578.2 1063.4 577.8Q1063.0 577.5 1063.0 576.8L1063.0 576.8L1063.0 575.9L1062.9 575.9Q1062.5 576.9 1061.6 577.5Q1060.7 578.1 1059.4 578.1ZM1060.2 575.9L1060.2 575.9Q1061.5 575.9 1062.2 574.9Q1063.0 573.9 1063.0 572.3L1063.0 572.3Q1063.0 570.6 1062.2 569.6Q1061.5 568.6 1060.2 568.6L1060.2 568.6Q1058.9 568.6 1058.2 569.6Q1057.4 570.6 1057.4 572.3L1057.4 572.3Q1057.4 574.0 1058.2 575.0Q1058.9 575.9 1060.2 575.9Z M1074.0 578.1L1074.0 578.1Q1073.3 578.1 1073.0 577.7Q1072.6 577.4 1072.6 576.7L1072.6 576.7L1072.6 563.9Q1072.6 563.2 1073.0 562.8Q1073.3 562.4 1074.0 562.4L1074.0 562.4L1081.4 562.4Q1082.0 562.4 1082.3 562.8Q1082.7 563.1 1082.7 563.6Q1082.7 564.2 1082.3 564.5Q1082.0 564.8 1081.4 564.8L1081.4 564.8L1075.4 564.8L1075.4 569.4L1080.8 569.4Q1081.4 569.4 1081.7 569.7Q1082.0 570.0 1082.0 570.5Q1082.0 571.0 1081.7 571.3Q1081.4 571.6 1080.8 571.6L1080.8 571.6L1075.4 571.6L1075.4 576.7Q1075.4 577.4 1075 577.8Q1074.6 578.1 1074.0 578.1ZM1093.3 576.6Q1091.8 578.2 1089.3 578.2Q1086.7 578.2 1085.2 576.6Q1083.7 575.0 1083.7 572.3L1083.7 572.3Q1083.7 569.5 1085.2 567.9Q1086.8 566.3 1089.3 566.3L1089.3 566.3Q1091.8 566.3 1093.3 567.9Q1094.8 569.5 1094.8 572.3L1094.8 572.3Q1094.8 575.0 1093.3 576.6ZM1087.2 575.1Q1088.0 576.1 1089.3 576.1Q1090.5 576.1 1091.3 575.1Q1092.0 574.1 1092.0 572.3L1092.0 572.3Q1092.0 570.5 1091.3 569.5Q1090.5 568.5 1089.3 568.5L1089.3 568.5Q1088.0 568.5 1087.2 569.5Q1086.5 570.5 1086.5 572.3L1086.5 572.3Q1086.5 574.1 1087.2 575.1ZM1098.8 577.8Q1098.4 578.2 1097.8 578.2Q1097.2 578.2 1096.8 577.8Q1096.5 577.4 1096.5 576.8L1096.5 576.8L1096.5 567.7Q1096.5 567.1 1096.8 566.7Q1097.2 566.3 1097.8 566.3L1097.8 566.3Q1098.3 566.3 1098.7 566.7Q1099.0 567.1 1099.0 567.7L1099.0 567.7L1099.0 568.6L1099.1 568.6Q1099.3 567.6 1100.0 567.0Q1100.7 566.4 1101.5 566.4L1101.5 566.4Q1102.1 566.4 1102.5 566.7L1102.5 566.7Q1102.8 567.0 1102.8 567.6L1102.8 567.6Q1102.8 568.2 1102.4 568.6L1102.4 568.6Q1102.1 568.9 1101.3 568.9L1101.3 568.9Q1099.2 568.9 1099.2 571.3L1099.2 571.3L1099.2 576.8Q1099.2 577.4 1098.8 577.8ZM1104.8 575.1L1104.8 575.1L1104.8 568.6L1104.1 568.6Q1103.6 568.6 1103.3 568.3Q1103.0 568.1 1103.0 567.6L1103.0 567.6Q1103.0 567.1 1103.3 566.8Q1103.6 566.6 1104.1 566.6L1104.1 566.6L1104.8 566.6L1104.8 565.0Q1104.8 564.4 1105.1 564.0Q1105.5 563.6 1106.1 563.6L1106.1 563.6Q1106.7 563.6 1107.1 564.0Q1107.5 564.4 1107.5 565.0L1107.5 565.0L1107.5 566.6L1108.7 566.6Q1109.2 566.6 1109.5 566.8Q1109.8 567.1 1109.8 567.6L1109.8 567.6Q1109.8 568.1 1109.5 568.3Q1109.2 568.6 1108.7 568.6L1108.7 568.6L1107.5 568.6L1107.5 574.6Q1107.5 575.2 1107.7 575.5Q1108.0 575.8 1108.5 575.9L1108.5 575.9L1108.7 575.9Q1109.8 576.0 1109.8 576.9L1109.8 576.9Q1109.8 577.5 1109.3 577.8Q1108.8 578.1 1107.9 578.1L1107.9 578.1L1107.8 578.1Q1104.8 578.1 1104.8 575.1ZM1116.5 578.2L1116.5 578.2Q1113.9 578.2 1112.4 576.6Q1111.0 575.1 1111.0 572.3L1111.0 572.3Q1111.0 569.6 1112.4 567.9Q1113.9 566.3 1116.3 566.3L1116.3 566.3Q1118.7 566.3 1120.1 567.8Q1121.6 569.3 1121.6 571.6L1121.6 571.6Q1121.6 572.2 1121.3 572.6Q1120.9 572.9 1120.3 572.9L1120.3 572.9L1113.6 572.9L1113.6 573.0Q1113.6 574.4 1114.4 575.3Q1115.2 576.1 1116.5 576.1L1116.5 576.1Q1117.4 576.1 1118.0 575.8Q1118.7 575.4 1119.3 574.6L1119.3 574.6Q1119.7 574.2 1120.2 574.2L1120.2 574.2Q1120.7 574.2 1121.0 574.4Q1121.3 574.7 1121.3 575.2L1121.3 575.2Q1121.3 575.5 1121.1 575.9L1121.1 575.9Q1120.5 577.0 1119.3 577.6Q1118.1 578.2 1116.5 578.2ZM1113.6 571.1L1113.6 571.1L1119.0 571.1Q1118.9 569.9 1118.2 569.1Q1117.5 568.4 1116.3 568.4Q1115.2 568.4 1114.5 569.2Q1113.7 569.9 1113.6 571.1ZM1125.2 575.2L1125.2 575.2Q1125.7 575.2 1126.1 575.5Q1126.4 575.8 1126.4 576.3L1126.4 576.3Q1126.4 576.6 1126.3 576.9L1126.3 576.9L1125.4 580.6Q1125.3 581.1 1125.0 581.3Q1124.7 581.5 1124.3 581.5Q1123.8 581.5 1123.5 581.2Q1123.3 581.0 1123.3 580.5L1123.3 580.5Q1123.3 580.4 1123.3 580.3L1123.3 580.3L1123.9 576.3Q1124.1 575.2 1125.2 575.2Z M1135.3 578.1L1135.3 578.1Q1134.6 578.1 1134.3 577.7Q1133.9 577.4 1133.9 576.7L1133.9 576.7L1133.9 563.9Q1133.9 563.2 1134.3 562.8Q1134.6 562.4 1135.3 562.4L1135.3 562.4L1139.9 562.4Q1142.2 562.4 1143.7 563.9Q1145.1 565.3 1145.1 567.6L1145.1 567.6Q1145.1 569.9 1143.6 571.4Q1142.2 572.8 1139.8 572.8L1139.8 572.8L1136.7 572.8L1136.7 576.7Q1136.7 577.4 1136.3 577.8Q1135.9 578.1 1135.3 578.1ZM1136.7 564.7L1136.7 570.6L1139.2 570.6Q1140.7 570.6 1141.5 569.8Q1142.3 569.0 1142.3 567.6L1142.3 567.6Q1142.3 566.2 1141.5 565.5Q1140.7 564.7 1139.2 564.7L1139.2 564.7L1136.7 564.7ZM1148.8 578.1L1148.8 578.1Q1148.1 578.1 1147.7 577.6Q1147.2 577.2 1147.2 576.5L1147.2 576.5Q1147.2 575.9 1147.7 575.4Q1148.1 575.0 1148.8 575.0L1148.8 575.0Q1149.4 575.0 1149.8 575.4Q1150.3 575.9 1150.3 576.5L1150.3 576.5Q1150.3 577.2 1149.8 577.6Q1149.4 578.1 1148.8 578.1Z " clip-path="url(#satori_cp-id-0)" mask="url(#satori_om-id-0)"/></svg>