<svg width="1200" height="630" viewBox="0 0 1200 630" xmlns="http://www.w3.org/2000/svg"><mask id="satori_om-id"><rect x="0" y="0" width="1200" height="630" fill="#fff"/></mask><defs><pattern id="satori_pattern_id-0_0" x="0" y="0" width="1" height="1" patternUnits="objectBoundingBox"><linearGradient id="satori_biid-0_0" x1="-0.09774620284174435" y1="0.18618324350808482" x2="1.0977462028417444" y2="0.8138167564919152" spreadMethod="pad"><stop offset="0%" stop-color="#f8fafc"/><stop offset="50%" stop-color="#eef2ff"/><stop offset="100%" stop-color="#ffffff"/></linearGradient><rect x="0" y="0" width="1200" height="630" fill="url(#satori_biid-0_0)"/></pattern></defs><clipPath id="satori_cp-id-0"><rect x="0" y="0" width="1200" height="630"/></clipPath><mask id="satori_om-id-0"><rect x="0" y="0" width="1200" height="630" fill="#fff"/></mask><rect x="0" y="0" width="1200" height="630" fill="url(#satori_pattern_id-0_0)"/><mask id="satori_om-id-0-0"><rect x="0" y="0" width="1200" height="509" fill="#fff" mask="url(#satori_om-id-0)"/></mask><mask id="satori_om-id-0-0-0"><rect x="72" y="72" width="1056" height="365" fill="#fff" mask="url(#satori_om-id-0)"/></mask><mask id="satori_om-id-0-0-0-0"><rect x="72" y="150" width="1056" height="38" fill="#fff" mask="url(#satori_om-id-0)"/></mask><path fill="#64748b" d="M82.7 180.2Q82.2 180.7 81.4 180.7Q80.6 180.7 80.1 180.2Q79.7 179.8 79.7 178.9L79.7 178.9L79.7 161.0L74.1 161.0Q73.4 161.0 73.0 160.5Q72.5 160.1 72.5 159.4Q72.5 158.8 73.0 158.3Q73.4 157.9 74.1 157.9L74.1 157.9L88.7 157.9Q89.4 157.9 89.9 158.3Q90.3 158.8 90.3 159.4Q90.3 160.1 89.9 160.5Q89.4 161.0 88.7 161.0L88.7 161.0L83.2 161.0L83.2 178.9Q83.2 179.8 82.7 180.2ZM95.5 180.3Q95.1 180.8 94.3 180.8Q93.6 180.8 93.1 180.3Q92.6 179.8 92.6 179.0L92.6 179.0L92.6 159.4Q92.6 158.6 93.1 158.1Q93.5 157.6 94.3 157.6L94.3 157.6Q95.1 157.6 95.5 158.1Q96.0 158.6 96.0 159.4L96.0 159.4L96.0 166.8L96.0 166.8Q96.7 165.3 98.1 164.5Q99.4 163.8 101.3 163.8L101.3 163.8Q103.9 163.8 105.5 165.4Q107.0 167.1 107.0 169.9L107.0 169.9L107.0 179.0Q107.0 179.8 106.5 180.3Q106.1 180.8 105.3 180.8L105.3 180.8Q104.6 180.8 104.1 180.3Q103.6 179.8 103.6 179.0L103.6 179.0L103.6 170.5Q103.6 168.7 102.7 167.7Q101.8 166.7 100.0 166.7L100.0 166.7Q98.2 166.7 97.1 167.8Q96 169.0 96 171.0L96 171.0L96 179.0Q96 179.8 95.5 180.3ZM116.0 180.8L116.0 180.8Q113.3 180.8 111.7 179.1Q110.2 177.5 110.2 174.7L110.2 174.7L110.2 165.5Q110.2 164.7 110.6 164.2Q111.1 163.7 111.9 163.7L111.9 163.7Q112.6 163.7 113.1 164.2Q113.6 164.7 113.6 165.5L113.6 165.5L113.6 174.0Q113.6 175.9 114.5 176.9Q115.3 177.9 117.1 177.9L117.1 177.9Q118.9 177.9 119.9 176.7Q121.0 175.5 121.0 173.6L121.0 173.6L121.0 165.5Q121.0 164.7 121.5 164.2Q121.9 163.7 122.7 163.7L122.7 163.7Q123.4 163.7 123.9 164.2Q124.4 164.7 124.4 165.5L124.4 165.5L124.4 179.0Q124.4 179.8 123.9 180.3Q123.5 180.8 122.8 180.8Q122.0 180.8 121.6 180.3Q121.1 179.8 121.1 179.1L121.1 179.1L121.1 177.7L121.0 177.7Q119.6 180.8 116.0 180.8ZM129.4 180.8L129.4 180.8Q128.6 180.8 128.1 180.3Q127.7 179.8 127.7 179.0L127.7 179.0L127.7 165.4Q127.7 164.7 128.1 164.2Q128.6 163.7 129.3 163.7L129.3 163.7Q130 163.7 130.4 164.2Q130.9 164.7 130.9 165.4L130.9 165.4L130.9 166.8L131.0 166.8Q131.3 165.5 132.3 164.6Q133.3 163.8 134.6 163.8L134.6 163.8Q135.5 163.8 135.9 164.2L135.9 164.2Q136.4 164.5 136.4 165.4L136.4 165.4Q136.4 166.1 135.9 166.5L135.9 166.5Q135.4 167.0 134.3 167.0L134.3 167.0Q132.7 167 131.9 168.0Q131.1 169.0 131.1 170.6L131.1 170.6L131.1 179.0Q131.1 179.8 130.6 180.3Q130.1 180.8 129.4 180.8ZM144.3 180.8L144.3 180.8Q141.9 180.8 140.2 179.9Q138.5 179.0 137.9 177.4L137.9 177.4Q137.7 177.1 137.7 176.7L137.7 176.7Q137.7 176.1 138.1 175.8Q138.5 175.4 139.2 175.4L139.2 175.4Q140.0 175.4 140.6 176.3L140.6 176.3Q141.3 177.3 142.1 177.8Q143.0 178.2 144.4 178.2L144.4 178.2Q145.9 178.2 146.8 177.6Q147.6 177.0 147.6 176.0L147.6 176.0Q147.6 175.2 147.1 174.7Q146.5 174.3 145.2 173.9L145.2 173.9L142.6 173.3Q137.9 172.2 137.9 168.7L137.9 168.7Q137.9 166.4 139.7 165.1Q141.5 163.7 144.4 163.7L144.4 163.7Q146.6 163.7 148.2 164.7Q149.9 165.7 150.3 167.2L150.3 167.2Q150.3 167.6 150.3 167.7L150.3 167.7Q150.3 168.3 150.0 168.6Q149.6 168.9 149 168.9L149 168.9Q148.1 168.9 147.6 168.2L147.6 168.2Q147.1 167.3 146.3 166.8Q145.5 166.3 144.3 166.3L144.3 166.3Q142.9 166.3 142.0 166.9Q141.2 167.5 141.2 168.5L141.2 168.5Q141.2 170.0 143.7 170.6L143.7 170.6L146.3 171.2Q148.9 171.8 150.0 172.9Q151.0 173.9 151.0 175.7L151.0 175.7Q151.0 178.0 149.2 179.4Q147.3 180.8 144.3 180.8ZM159.8 180.8L159.8 180.8Q156.7 180.8 154.8 178.4Q152.9 176.1 152.9 172.3Q152.9 168.4 154.8 166.1Q156.7 163.8 159.8 163.8L159.8 163.8Q161.5 163.8 162.9 164.6Q164.3 165.4 165.0 166.8L165.0 166.8L165.0 166.8L165.0 159.4Q165.0 158.6 165.5 158.1Q166.0 157.6 166.7 157.6L166.7 157.6Q167.5 157.6 167.9 158.1Q168.4 158.6 168.4 159.4L168.4 159.4L168.4 179.1Q168.4 179.9 167.9 180.3Q167.5 180.8 166.7 180.8L166.7 180.8Q166 180.8 165.5 180.3Q165.0 179.9 165.0 179.1L165.0 179.1L165.0 177.5L165.0 177.5Q164.3 179.0 163 179.9Q161.7 180.8 159.8 180.8ZM160.7 177.9L160.7 177.9Q162.7 177.9 163.9 176.4Q165.0 174.8 165.0 172.3L165.0 172.3Q165.0 169.7 163.9 168.2Q162.7 166.6 160.7 166.6L160.7 166.6Q158.7 166.6 157.5 168.1Q156.4 169.7 156.4 172.3L156.4 172.3Q156.4 174.9 157.5 176.4Q158.7 177.9 160.7 177.9ZM176.7 180.8L176.7 180.8Q174.3 180.8 172.7 179.4Q171.2 178 171.2 175.8L171.2 175.8Q171.2 173.6 172.8 172.4Q174.4 171.1 177.3 170.9L177.3 170.9L181.8 170.7L181.8 169.4Q181.8 168.0 180.9 167.3Q180.1 166.5 178.5 166.5L178.5 166.5Q177.3 166.5 176.4 167.0Q175.6 167.5 174.9 168.6L174.9 168.6Q174.4 169.3 173.5 169.3L173.5 169.3Q172.9 169.3 172.5 168.9Q172.0 168.5 172.0 167.9L172.0 167.9Q172.0 167.3 172.3 166.8L172.3 166.8Q173.0 165.4 174.7 164.6Q176.4 163.7 178.6 163.7L178.6 163.7Q181.6 163.7 183.4 165.2Q185.2 166.7 185.2 169.1L185.2 169.1L185.2 179.1Q185.2 179.8 184.7 180.3Q184.3 180.8 183.5 180.8L183.5 180.8Q182.8 180.8 182.4 180.3Q182.0 179.9 181.9 179.2L181.9 179.2L181.9 177.8L181.9 177.8Q181.2 179.1 179.7 179.9Q178.3 180.8 176.7 180.8ZM177.6 178.1L177.6 178.1Q179.4 178.1 180.6 177.0Q181.8 175.9 181.8 174.3L181.8 174.3L181.8 173.0L177.8 173.3Q176.2 173.4 175.4 174.0Q174.6 174.6 174.6 175.7L174.6 175.7Q174.6 176.8 175.4 177.4Q176.3 178.1 177.6 178.1ZM190.5 186.6L190.5 186.6Q189.3 186.6 188.7 186.2Q188.0 185.8 188.0 185.0L188.0 185.0Q188.0 184.4 188.4 184.1Q188.8 183.8 189.4 183.8L189.4 183.8Q189.5 183.8 189.8 183.8Q190.0 183.8 190.2 183.8L190.2 183.8Q191.9 183.8 192.7 181.6L192.7 181.6L193.0 180.6L187.5 166.3Q187.4 165.7 187.4 165.3L187.4 165.3Q187.4 164.6 187.8 164.2Q188.3 163.7 189.1 163.7L189.1 163.7Q189.7 163.7 190.1 164.0Q190.5 164.3 190.7 165.0L190.7 165.0L194.9 177.4L194.9 177.4L199.1 165.0Q199.3 164.3 199.7 164.0Q200.1 163.7 200.8 163.7L200.8 163.7Q201.5 163.7 201.9 164.2Q202.4 164.6 202.4 165.3L202.4 165.3Q202.4 165.7 202.2 166.2L202.2 166.2L196.5 181.3Q195.4 184.3 194.1 185.4Q192.8 186.6 190.5 186.6ZM207.2 176.7L207.2 176.7Q207.9 176.7 208.3 177.0Q208.7 177.4 208.7 178.1L208.7 178.1Q208.7 178.5 208.6 179.0L208.6 179.0L207.3 184.3Q207.0 185.5 205.8 185.5L205.8 185.5Q205.2 185.5 204.9 185.1Q204.5 184.8 204.5 184.3L204.5 184.3Q204.5 184.1 204.5 183.9L204.5 183.9L205.5 178.1Q205.8 176.7 207.2 176.7Z M223.1 180.8L223.1 180.8Q222.4 180.8 222.0 180.4Q221.5 180.0 221.5 179.3L221.5 179.3Q221.5 178.8 221.8 178.2L221.8 178.2L230.9 161.0L230.9 160.9L220.4 160.9Q219.7 160.9 219.3 160.5Q218.8 160.1 218.8 159.4L218.8 159.4Q218.8 158.7 219.3 158.3Q219.7 157.9 220.4 157.9L220.4 157.9L232.3 157.9Q233.3 157.9 233.9 158.5Q234.5 159 234.5 159.9L234.5 159.9Q234.5 160.7 233.8 162.1L233.8 162.1L224.7 179.8Q224.4 180.3 224.1 180.5Q223.7 180.8 223.1 180.8Z M247.2 180.2Q246.7 180.7 245.9 180.7Q245.1 180.7 244.7 180.2Q244.2 179.8 244.2 178.9L244.2 178.9L244.2 159.6Q244.2 158.7 244.7 158.2Q245.2 157.7 246.1 157.7L246.1 157.7Q246.7 157.7 247.1 157.9Q247.5 158.2 248.0 158.8L248.0 158.8L259.1 174.5L259.2 174.5L259.2 159.5Q259.2 158.6 259.7 158.1Q260.1 157.7 260.9 157.7L260.9 157.7Q261.7 157.7 262.2 158.1Q262.6 158.6 262.6 159.5L262.6 159.5L262.6 178.9Q262.6 179.8 262.1 180.2Q261.6 180.7 260.8 180.7L260.8 180.7Q260.1 180.7 259.7 180.5Q259.3 180.3 258.9 179.6L258.9 179.6L247.8 163.9L247.6 163.9L247.6 178.9Q247.6 179.8 247.2 180.2ZM279.1 178.5Q277.0 180.8 273.4 180.8Q269.9 180.8 267.8 178.5Q265.6 176.2 265.6 172.3L265.6 172.3Q265.6 168.3 267.8 166.0Q269.9 163.7 273.4 163.7Q277.0 163.7 279.1 166.0Q281.2 168.3 281.2 172.3L281.2 172.3Q281.2 176.2 279.1 178.5ZM273.4 178L273.4 178Q275.4 178 276.6 176.5Q277.8 175.0 277.8 172.3L277.8 172.3Q277.8 169.5 276.6 168.0Q275.4 166.5 273.4 166.5Q271.4 166.5 270.2 168.0Q269.1 169.5 269.1 172.3L269.1 172.3Q269.1 175.0 270.2 176.5Q271.4 178 273.4 178ZM290.2 180.8L290.2 180.8Q289.3 180.8 288.7 180.4Q288.2 180.0 287.8 179.0L287.8 179.0L283.0 166.2Q282.8 165.7 282.8 165.3L282.8 165.3Q282.8 164.6 283.2 164.2Q283.7 163.7 284.5 163.7L284.5 163.7Q285.7 163.7 286.1 165.1L286.1 165.1L290.1 177.2L290.2 177.2L294.3 165.0Q294.7 163.7 295.9 163.7L295.9 163.7Q296.6 163.7 297.0 164.2Q297.5 164.6 297.5 165.3L297.5 165.3Q297.5 165.7 297.3 166.2L297.3 166.2L292.5 179.0Q292.1 179.9 291.6 180.4Q291.0 180.8 290.2 180.8ZM306.9 180.8L306.9 180.8Q303.2 180.8 301.1 178.5Q299.1 176.3 299.1 172.3L299.1 172.3Q299.1 168.4 301.1 166.1Q303.2 163.7 306.7 163.7L306.7 163.7Q310.0 163.7 312.0 165.9Q314.1 168 314.1 171.4L314.1 171.4Q314.1 172.2 313.6 172.6Q313.2 173.1 312.4 173.1L312.4 173.1L302.5 173.1L302.5 173.2Q302.5 175.4 303.6 176.7Q304.8 178.0 306.8 178.0L306.8 178.0Q308.2 178.0 309.2 177.5Q310.2 177.0 311.1 175.7L311.1 175.7Q311.6 175.1 312.3 175.1L312.3 175.1Q312.9 175.1 313.3 175.5Q313.7 175.9 313.7 176.5L313.7 176.5Q313.7 176.8 313.5 177.4L313.5 177.4Q312.6 179 310.9 179.9Q309.2 180.8 306.9 180.8ZM302.5 170.7L302.5 170.7L310.7 170.7Q310.6 168.8 309.5 167.6Q308.4 166.5 306.7 166.5L306.7 166.5Q304.9 166.5 303.8 167.6Q302.6 168.8 302.5 170.7ZM319.6 180.3Q319.1 180.8 318.4 180.8Q317.6 180.8 317.1 180.3Q316.7 179.8 316.7 179.0L316.7 179.0L316.7 165.5Q316.7 164.7 317.1 164.2Q317.6 163.7 318.3 163.7Q319.0 163.7 319.5 164.2Q319.9 164.7 319.9 165.5L319.9 165.5L319.9 166.8L320.0 166.8Q320.5 165.4 321.8 164.6Q323.0 163.8 324.7 163.8L324.7 163.8Q326.4 163.8 327.6 164.6Q328.8 165.4 329.3 167.0L329.3 167.0L329.3 167.0Q330.0 165.5 331.3 164.6Q332.7 163.8 334.5 163.8L334.5 163.8Q336.9 163.8 338.4 165.2Q339.8 166.7 339.8 169.2L339.8 169.2L339.8 179.0Q339.8 179.8 339.4 180.3Q338.9 180.8 338.1 180.8Q337.4 180.8 336.9 180.3Q336.4 179.8 336.4 179.0L336.4 179.0L336.4 170.0Q336.4 168.4 335.6 167.5Q334.8 166.6 333.3 166.6Q331.8 166.6 330.9 167.6Q329.9 168.6 329.9 170.2L329.9 170.2L329.9 179.0Q329.9 179.8 329.5 180.3Q329.0 180.8 328.3 180.8Q327.5 180.8 327.0 180.3Q326.6 179.8 326.6 179.0L326.6 179.0L326.6 169.7Q326.6 168.3 325.8 167.5Q324.9 166.6 323.5 166.6L323.5 166.6Q322.0 166.6 321.0 167.7Q320.1 168.7 320.1 170.3L320.1 170.3L320.1 179.0Q320.1 179.8 319.6 180.3ZM344.8 180.8L344.8 180.8Q344.1 180.8 343.6 180.3Q343.2 179.9 343.2 179.1L343.2 179.1L343.2 159.4Q343.2 158.6 343.7 158.1Q344.1 157.6 344.9 157.6Q345.6 157.6 346.1 158.1Q346.6 158.6 346.6 159.4L346.6 159.4L346.6 166.8L346.7 166.8Q347.4 165.4 348.8 164.6Q350.1 163.8 351.9 163.8L351.9 163.8Q355.0 163.8 356.8 166.1Q358.7 168.4 358.7 172.3L358.7 172.3Q358.7 176.2 356.8 178.5Q355.0 180.8 351.8 180.8L351.8 180.8Q350.1 180.8 348.7 179.9Q347.3 179.1 346.5 177.7L346.5 177.7L346.5 177.7L346.5 179.1Q346.5 179.9 346.0 180.3Q345.6 180.8 344.8 180.8ZM350.9 177.9L350.9 177.9Q352.9 177.9 354.1 176.4Q355.2 174.9 355.2 172.3L355.2 172.3Q355.2 169.7 354.1 168.1Q352.9 166.6 350.9 166.6L350.9 166.6Q349 166.6 347.8 168.2Q346.6 169.7 346.6 172.3L346.6 172.3Q346.6 174.8 347.8 176.3Q349 177.9 350.9 177.9ZM368.4 180.8L368.4 180.8Q364.7 180.8 362.6 178.5Q360.6 176.3 360.6 172.3L360.6 172.3Q360.6 168.4 362.6 166.1Q364.7 163.7 368.2 163.7L368.2 163.7Q371.5 163.7 373.5 165.9Q375.6 168 375.6 171.4L375.6 171.4Q375.6 172.2 375.1 172.6Q374.7 173.1 373.9 173.1L373.9 173.1L364.0 173.1L364.0 173.2Q364.0 175.4 365.2 176.7Q366.3 178.0 368.4 178.0L368.4 178.0Q369.7 178.0 370.7 177.5Q371.7 177.0 372.6 175.7L372.6 175.7Q373.1 175.1 373.8 175.1L373.8 175.1Q374.4 175.1 374.8 175.5Q375.2 175.9 375.2 176.5L375.2 176.5Q375.2 176.8 375.0 177.4L375.0 177.4Q374.2 179 372.4 179.9Q370.7 180.8 368.4 180.8ZM364 170.7L364 170.7L372.2 170.7Q372.2 168.8 371.1 167.6Q370.0 166.5 368.2 166.5L368.2 166.5Q366.4 166.5 365.3 167.6Q364.1 168.8 364 170.7ZM379.9 180.8L379.9 180.8Q379.1 180.8 378.7 180.3Q378.2 179.8 378.2 179.0L378.2 179.0L378.2 165.4Q378.2 164.7 378.6 164.2Q379.1 163.7 379.8 163.7L379.8 163.7Q380.5 163.7 381.0 164.2Q381.4 164.7 381.4 165.4L381.4 165.4L381.4 166.8L381.5 166.8Q381.8 165.5 382.8 164.6Q383.8 163.8 385.1 163.8L385.1 163.8Q386.0 163.8 386.4 164.2L386.4 164.2Q386.9 164.5 386.9 165.4L386.9 165.4Q386.9 166.1 386.4 166.5L386.4 166.5Q385.9 167.0 384.8 167.0L384.8 167.0Q383.2 167 382.4 168.0Q381.6 169.0 381.6 170.6L381.6 170.6L381.6 179.0Q381.6 179.8 381.1 180.3Q380.6 180.8 379.9 180.8Z M409.3 180.5L396.9 180.5Q396.1 180.5 395.6 180.1Q395.2 179.7 395.2 179L395.2 179Q395.2 178.5 395.4 178.1Q395.6 177.8 396.2 177.2L396.2 177.2L403.2 170.0Q405.4 167.8 406.1 166.6Q406.9 165.4 406.9 164.1L406.9 164.1Q406.9 162.5 405.8 161.4Q404.7 160.4 403.0 160.4L403.0 160.4Q399.6 160.4 398.4 163.7L398.4 163.7Q398.2 164.3 397.8 164.6Q397.5 164.9 396.8 164.9L396.8 164.9Q396.1 164.9 395.7 164.5Q395.3 164.0 395.3 163.4L395.3 163.4Q395.3 163 395.4 162.6L395.4 162.6Q395.6 161.7 396.2 160.8Q396.8 159.9 397.7 159.2Q398.6 158.4 400.0 158.0Q401.4 157.5 403.0 157.5L403.0 157.5Q406.2 157.5 408.3 159.3Q410.3 161.1 410.3 163.9L410.3 163.9Q410.3 165.8 409.3 167.5Q408.2 169.1 405.3 172.0L405.3 172.0L400.0 177.4L400.0 177.5L409.3 177.5Q410.0 177.5 410.4 177.9Q410.9 178.3 410.9 179L410.9 179Q410.9 179.7 410.4 180.1Q410.0 180.5 409.3 180.5L409.3 180.5ZM428.4 177.7Q426.1 180.9 422.0 180.9Q418 180.9 415.7 177.7Q413.4 174.6 413.4 169.2L413.4 169.2Q413.4 163.8 415.7 160.6Q418.0 157.5 422.0 157.5L422.0 157.5Q426.1 157.5 428.4 160.6Q430.7 163.8 430.7 169.2L430.7 169.2Q430.7 174.6 428.4 177.7ZM422.0 178.0L422.0 178.0Q424.5 178.0 425.8 175.6Q427.1 173.3 427.1 169.2L427.1 169.2Q427.1 165.1 425.8 162.8Q424.5 160.4 422.0 160.4Q419.6 160.4 418.3 162.8Q417.0 165.1 417.0 169.2L417.0 169.2Q417.0 173.3 418.3 175.6Q419.6 178.0 422.0 178.0ZM447.8 180.5L435.4 180.5Q434.6 180.5 434.1 180.1Q433.7 179.7 433.7 179L433.7 179Q433.7 178.5 433.9 178.1Q434.1 177.8 434.7 177.2L434.7 177.2L441.7 170.0Q443.9 167.8 444.6 166.6Q445.4 165.4 445.4 164.1L445.4 164.1Q445.4 162.5 444.3 161.4Q443.2 160.4 441.5 160.4L441.5 160.4Q438.1 160.4 436.9 163.7L436.9 163.7Q436.7 164.3 436.3 164.6Q436.0 164.9 435.3 164.9L435.3 164.9Q434.6 164.9 434.2 164.5Q433.8 164.0 433.8 163.4L433.8 163.4Q433.8 163 433.9 162.6L433.9 162.6Q434.1 161.7 434.7 160.8Q435.3 159.9 436.2 159.2Q437.1 158.4 438.5 158.0Q439.9 157.5 441.5 157.5L441.5 157.5Q444.7 157.5 446.8 159.3Q448.8 161.1 448.8 163.9L448.8 163.9Q448.8 165.8 447.8 167.5Q446.7 169.1 443.8 172.0L443.8 172.0L438.5 177.4L438.5 177.5L447.8 177.5Q448.5 177.5 448.9 177.9Q449.4 178.3 449.4 179L449.4 179Q449.4 179.7 448.9 180.1Q448.5 180.5 447.8 180.5L447.8 180.5ZM464.7 180.8L464.7 180.8Q464.0 180.8 463.5 180.3Q463.0 179.8 463.0 179.0L463.0 179.0L463.0 176.0L453.7 176.0Q452.8 176.0 452.2 175.4Q451.7 174.9 451.7 174L451.7 174Q451.7 172.9 452.5 171.5L452.5 171.5Q454.4 168.0 459.8 160.3L459.8 160.3Q460.8 158.8 461.6 158.2Q462.4 157.6 463.5 157.6L463.5 157.6Q464.9 157.6 465.6 158.3Q466.4 159 466.4 160.3L466.4 160.3L466.4 173.0L468.2 173.0Q468.8 173.0 469.3 173.5Q469.7 173.9 469.7 174.5Q469.7 175.2 469.3 175.6Q468.8 176.0 468.2 176.0L468.2 176.0L466.4 176.0L466.4 179.0Q466.4 179.8 465.9 180.3Q465.4 180.8 464.7 180.8ZM455.0 173.1L463.0 173.1L463.0 160.7L463.0 160.7Q457.2 169.0 455.0 173L455.0 173L455.0 173.1Z " clip-path="url(#satori_cp-id-0)" mask="url(#satori_om-id-0)"/><mask id="satori_om-id-0-0-0-1"><rect x="72" y="212" width="1056" height="147" fill="#fff" mask="url(#satori_om-id-0)"/></mask><path fill="#0f172a" d="M92.3 272.3L92.3 272.3Q85.5 272.3 81.0 269.9Q76.6 267.5 75.2 263.6L75.2 263.6Q74.7 262.3 74.7 261.1L74.7 261.1Q74.7 259.2 75.8 258.1Q77.0 257.0 78.8 257.0L78.8 257.0Q80.3 257.0 81.3 257.6Q82.3 258.2 83.2 259.7L83.2 259.7Q84.2 262.2 86.7 263.5Q89.1 264.7 92.5 264.7L92.5 264.7Q96.3 264.7 98.6 263.1Q101.0 261.5 101.0 259.0L101.0 259.0Q101.0 256.7 99.2 255.4Q97.4 254.0 93.2 253.1L93.2 253.1L88.4 252.2Q75 249.6 75 239.4L75 239.4Q75 235.3 77.2 232.2Q79.4 229.1 83.3 227.4Q87.3 225.7 92.2 225.7L92.2 225.7Q98.4 225.7 102.8 228.1Q107.2 230.6 108.7 235.0L108.7 235.0Q109.0 236.0 109.0 237.1L109.0 237.1Q109.0 238.8 107.9 239.8Q106.8 240.9 105 240.9L105 240.9Q103.4 240.9 102.4 240.2Q101.3 239.6 100.5 238.1L100.5 238.1Q98.4 233.3 92.2 233.3L92.2 233.3Q88.7 233.3 86.6 234.8Q84.5 236.3 84.5 238.8L84.5 238.8Q84.5 240.9 86.2 242.2Q88 243.6 92.0 244.4L92.0 244.4L96.7 245.3Q103.9 246.8 107.1 249.8Q110.4 252.8 110.4 257.9L110.4 257.9Q110.4 264.6 105.5 268.4Q100.7 272.3 92.3 272.3ZM124.3 270.8Q123.1 272.1 120.9 272.1Q118.7 272.1 117.4 270.8Q116.2 269.6 116.2 267.2L116.2 267.2L116.2 230.8Q116.2 228.4 117.4 227.1Q118.7 225.8 120.9 225.8Q123.1 225.8 124.3 227.1Q125.6 228.4 125.6 230.8L125.6 230.8L125.6 267.2Q125.6 269.6 124.3 270.8ZM141.3 270.8Q140.0 272.1 137.8 272.1Q135.6 272.1 134.3 270.8Q133.1 269.6 133.1 267.2L133.1 267.2L133.1 231.4Q133.1 229.1 134.3 227.8Q135.6 226.5 137.8 226.5L137.8 226.5L158.9 226.5Q160.9 226.5 162.0 227.5Q163.2 228.6 163.2 230.4Q163.2 232.2 162.0 233.2Q160.8 234.3 158.9 234.3L158.9 234.3L142.5 234.3L142.5 246.3L157.4 246.3Q159.2 246.3 160.3 247.3Q161.4 248.3 161.4 250.1L161.4 250.1Q161.4 251.8 160.3 252.8Q159.3 253.8 157.4 253.8L157.4 253.8L142.5 253.8L142.5 267.2Q142.5 269.6 141.3 270.8ZM187.2 270.8Q185.9 272.1 183.7 272.1Q181.5 272.1 180.2 270.8Q179.0 269.6 179.0 267.2L179.0 267.2L179.0 234.3L169.7 234.3Q167.7 234.3 166.5 233.2Q165.4 232.2 165.4 230.4Q165.4 228.6 166.5 227.5Q167.7 226.5 169.7 226.5L169.7 226.5L197.8 226.5Q199.7 226.5 200.8 227.5Q202 228.6 202 230.4Q202 232.2 200.8 233.2Q199.7 234.3 197.8 234.3L197.8 234.3L188.4 234.3L188.4 267.2Q188.4 269.6 187.2 270.8ZM233.4 267.6Q228.9 272.3 221.3 272.3Q213.6 272.3 209.2 267.6Q204.7 263.0 204.7 254.8L204.7 254.8Q204.7 246.7 209.2 242.0Q213.7 237.3 221.3 237.3L221.3 237.3Q228.9 237.3 233.4 242.0Q237.9 246.7 237.9 254.8L237.9 254.8Q237.9 263.0 233.4 267.6ZM221.3 265.3L221.3 265.3Q224.7 265.3 226.6 262.6Q228.6 259.8 228.6 254.8L228.6 254.8Q228.6 249.9 226.6 247.1Q224.7 244.3 221.3 244.3Q217.9 244.3 215.9 247.1Q213.9 249.9 213.9 254.8L213.9 254.8Q213.9 259.8 215.9 262.6Q217.9 265.3 221.3 265.3ZM250.7 271.0Q249.6 272.1 247.6 272.1Q245.6 272.1 244.5 271.0Q243.3 269.8 243.3 267.7L243.3 267.7L243.3 231.9Q243.3 229.1 245.0 227.4Q246.6 225.8 249.4 225.8L249.4 225.8Q251.9 225.8 253.4 227.0Q254.9 228.1 255.9 230.7L255.9 230.7L267.1 258.4L267.3 258.4L278.5 230.7Q279.5 228.1 281.0 227.0Q282.6 225.8 285.0 225.8L285.0 225.8Q287.9 225.8 289.5 227.4Q291.1 229.1 291.1 231.9L291.1 231.9L291.1 267.7Q291.1 269.8 290.0 271.0Q288.9 272.1 286.9 272.1Q284.9 272.1 283.8 271.0Q282.7 269.8 282.7 267.7L282.7 267.7L282.7 241.1L282.4 241.1L271.3 268.4Q270.1 271.3 267.3 271.3L267.3 271.3Q264.3 271.3 263.2 268.4L263.2 268.4L252 241.1L251.8 241.1L251.8 267.7Q251.8 269.8 250.7 271.0ZM307.3 248.1Q305.8 249.6 303.8 249.6Q301.7 249.6 300.2 248.1Q298.7 246.6 298.7 244.6L298.7 244.6Q298.7 242.4 300.2 241.0Q301.7 239.5 303.8 239.5Q305.8 239.5 307.3 241.0Q308.8 242.5 308.8 244.6Q308.8 246.6 307.3 248.1ZM307.3 270.5Q305.8 271.9 303.8 271.9Q301.7 271.9 300.2 270.5Q298.7 269.0 298.7 266.9Q298.7 264.8 300.2 263.3Q301.7 261.9 303.8 261.9Q305.8 261.9 307.3 263.3Q308.8 264.8 308.8 266.9Q308.8 269.0 307.3 270.5Z M337.2 270.9Q336.0 272.2 333.8 272.2Q331.5 272.2 330.3 270.9Q329.0 269.6 329.0 267.3L329.0 267.3L329.0 231.4Q329.0 229.1 330.3 227.8Q331.5 226.5 333.8 226.5L333.8 226.5L347.5 226.5Q355.2 226.5 359.5 230.3Q363.8 234.1 363.8 240.8L363.8 240.8Q363.8 245.1 361.8 248.5Q359.8 251.8 356.1 253.4L356.1 253.4L362.6 264.6Q363.6 266.4 363.6 267.9L363.6 267.9Q363.6 269.8 362.2 271.0Q360.9 272.2 358.8 272.2L358.8 272.2Q357.1 272.2 356.1 271.5Q355.2 270.7 354 268.6L354 268.6L346.5 255.1L338.5 255.1L338.5 267.3Q338.5 269.6 337.2 270.9ZM338.5 233.8L338.5 248.2L346.6 248.2Q350.2 248.2 352.1 246.3Q354.1 244.4 354.1 241.0L354.1 241.0Q354.1 237.7 352.1 235.8Q350 233.8 346.5 233.8L346.5 233.8L338.5 233.8ZM396.7 267.6Q392.3 272.3 384.6 272.3Q376.9 272.3 372.5 267.6Q368 263.0 368 254.8L368 254.8Q368 246.7 372.5 242.0Q377.0 237.3 384.6 237.3L384.6 237.3Q392.2 237.3 396.7 242.0Q401.2 246.7 401.2 254.8L401.2 254.8Q401.2 263.0 396.7 267.6ZM384.6 265.3L384.6 265.3Q388.0 265.3 389.9 262.6Q391.9 259.8 391.9 254.8L391.9 254.8Q391.9 249.9 389.9 247.1Q388.0 244.3 384.6 244.3Q381.2 244.3 379.2 247.1Q377.3 249.9 377.3 254.8L377.3 254.8Q377.3 259.8 379.2 262.6Q381.2 265.3 384.6 265.3ZM410.6 272.2L410.6 272.2Q408.5 272.2 407.3 271.0Q406.1 269.8 406.1 267.6L406.1 267.6L406.1 230.6Q406.1 228.3 407.3 227.0Q408.6 225.8 410.7 225.8Q412.7 225.8 414.0 227.0Q415.2 228.3 415.2 230.6L415.2 230.6L415.2 243.9L415.4 243.9Q416.8 240.9 419.5 239.2Q422.2 237.5 425.8 237.5L425.8 237.5Q432.1 237.5 435.8 242.1Q439.4 246.7 439.4 254.8Q439.4 262.9 435.8 267.5Q432.1 272.1 425.8 272.1L425.8 272.1Q422.2 272.1 419.4 270.4Q416.7 268.8 415.3 265.8L415.3 265.8L415.1 265.8L415.1 267.6Q415.1 269.8 413.9 271.0Q412.6 272.2 410.6 272.2ZM422.7 264.7L422.7 264.7Q426.1 264.7 428.0 262.1Q430.0 259.4 430.0 254.8L430.0 254.8Q430.0 250.2 428.0 247.5Q426.1 244.8 422.7 244.8L422.7 244.8Q419.3 244.8 417.3 247.6Q415.2 250.3 415.2 254.8L415.2 254.8Q415.2 259.3 417.3 262.0Q419.3 264.7 422.7 264.7ZM456 272.2L456 272.2Q450.5 272.2 447.2 268.8Q443.9 265.5 443.9 259.6L443.9 259.6L443.9 242.1Q443.9 239.9 445.2 238.6Q446.4 237.4 448.5 237.4Q450.6 237.4 451.8 238.6Q453.1 239.9 453.1 242.1L453.1 242.1L453.1 257.7Q453.1 261.1 454.7 262.8Q456.3 264.6 459.3 264.6Q462.3 264.6 464.1 262.6Q465.9 260.6 465.9 257.2L465.9 257.2L465.9 242.1Q465.9 239.9 467.2 238.6Q468.4 237.4 470.5 237.4Q472.5 237.4 473.8 238.6Q475.0 239.9 475.0 242.1L475.0 242.1L475.0 267.6Q475.0 269.8 473.8 271.0Q472.7 272.2 470.6 272.2Q468.6 272.2 467.4 271.0Q466.2 269.8 466.2 267.6L466.2 267.6L466.2 265.5L466.0 265.5Q463.4 272.2 456 272.2ZM494.6 272.3L494.6 272.3Q489 272.3 485.2 270.4Q481.4 268.6 480.2 265.6L480.2 265.6Q479.9 264.6 479.9 263.9L479.9 263.9Q479.9 262.3 480.9 261.4Q482.0 260.4 483.6 260.4L483.6 260.4Q485.7 260.4 487.5 262.5L487.5 262.5Q488.9 264.2 490.6 265.1Q492.3 265.9 494.8 265.9L494.8 265.9Q497.3 265.9 498.8 264.9Q500.3 263.9 500.3 262.3L500.3 262.3Q500.3 260.9 499.3 260.1Q498.3 259.3 495.9 258.8L495.9 258.8L490.3 257.6Q485.3 256.5 482.9 254.1Q480.4 251.6 480.4 247.9L480.4 247.9Q480.4 243.1 484.2 240.2Q488.1 237.3 494.6 237.3L494.6 237.3Q499.7 237.3 503.3 239.3Q506.9 241.3 507.7 244.3L507.7 244.3Q507.9 245.1 507.9 245.6L507.9 245.6Q507.9 247.1 507.0 247.9Q506.2 248.7 504.4 248.7L504.4 248.7Q502.3 248.7 501.1 247.3L501.1 247.3Q499.8 245.6 498.2 244.7Q496.7 243.7 494.4 243.7L494.4 243.7Q492.1 243.7 490.7 244.7Q489.2 245.7 489.2 247.4L489.2 247.4Q489.2 248.7 490.3 249.6Q491.4 250.5 493.8 251.0L493.8 251.0L499.4 252.2Q504.7 253.3 507.1 255.4Q509.4 257.6 509.4 261.3L509.4 261.3Q509.4 266.3 505.4 269.3Q501.3 272.3 494.6 272.3ZM516.4 263.0L516.4 263.0L516.4 244.9L514.6 244.9Q513 244.9 512.0 244.0Q511.1 243.1 511.1 241.5Q511.1 239.9 512.0 239.0Q513 238.1 514.6 238.1L514.6 238.1L516.4 238.1L516.4 234.3Q516.4 232.1 517.6 230.8Q518.8 229.6 520.9 229.6Q523.1 229.6 524.3 230.8Q525.5 232.1 525.5 234.3L525.5 234.3L525.5 238.1L528.7 238.1Q530.3 238.1 531.3 239.0Q532.2 239.9 532.2 241.5Q532.2 243.1 531.3 244.0Q530.3 244.9 528.7 244.9L528.7 244.9L525.5 244.9L525.5 261.0Q525.5 262.7 526.2 263.6Q526.8 264.4 528.3 264.5L528.3 264.5L528.9 264.6Q530.6 264.7 531.5 265.5Q532.3 266.3 532.3 267.9L532.3 267.9Q532.3 269.8 530.6 270.9Q528.8 271.9 525.9 271.9L525.9 271.9L525.6 271.9Q516.4 271.9 516.4 263.0Z M566.6 272.3L566.6 272.3Q559.9 272.3 555.4 269.9Q550.9 267.5 549.5 263.6L549.5 263.6Q549.0 262.3 549.0 261.1L549.0 261.1Q549.0 259.2 550.2 258.1Q551.3 257.0 553.2 257.0L553.2 257.0Q554.7 257.0 555.7 257.6Q556.7 258.2 557.5 259.7L557.5 259.7Q558.6 262.2 561.0 263.5Q563.5 264.7 566.8 264.7L566.8 264.7Q570.6 264.7 573.0 263.1Q575.3 261.5 575.3 259.0L575.3 259.0Q575.3 256.7 573.6 255.4Q571.8 254.0 567.6 253.1L567.6 253.1L562.8 252.2Q549.4 249.6 549.4 239.4L549.4 239.4Q549.4 235.3 551.6 232.2Q553.8 229.1 557.7 227.4Q561.6 225.7 566.6 225.7L566.6 225.7Q572.8 225.7 577.2 228.1Q581.6 230.6 583.1 235.0L583.1 235.0Q583.4 236.0 583.4 237.1L583.4 237.1Q583.4 238.8 582.3 239.8Q581.2 240.9 579.4 240.9L579.4 240.9Q577.8 240.9 576.7 240.2Q575.7 239.6 574.9 238.1L574.9 238.1Q572.8 233.3 566.6 233.3L566.6 233.3Q563.1 233.3 561.0 234.8Q558.8 236.3 558.8 238.8L558.8 238.8Q558.8 240.9 560.6 242.2Q562.4 243.6 566.3 244.4L566.3 244.4L571.1 245.3Q578.3 246.8 581.5 249.8Q584.8 252.8 584.8 257.9L584.8 257.9Q584.8 264.6 579.9 268.4Q575.0 272.3 566.6 272.3ZM597.6 282.3Q596.4 283.5 594.3 283.5Q592.3 283.5 591 282.3Q589.8 281.0 589.8 278.7L589.8 278.7L589.8 242.1Q589.8 239.8 591.0 238.6Q592.2 237.4 594.3 237.4Q596.3 237.4 597.5 238.6Q598.8 239.8 598.8 242.1L598.8 242.1L598.8 243.9L598.9 243.9Q600.3 240.9 603.0 239.2Q605.7 237.5 609.3 237.5L609.3 237.5Q615.7 237.5 619.4 242.1Q623.0 246.7 623.0 254.8L623.0 254.8Q623.0 262.9 619.4 267.5Q615.8 272.1 609.5 272.1L609.5 272.1Q605.9 272.1 603.1 270.4Q600.4 268.8 599.1 265.9L599.1 265.9L598.9 265.9L598.9 278.7Q598.9 281.0 597.6 282.3ZM606.3 264.7L606.3 264.7Q609.7 264.7 611.7 262.1Q613.7 259.4 613.7 254.8Q613.7 250.2 611.7 247.5Q609.7 244.8 606.3 244.8L606.3 244.8Q602.9 244.8 600.9 247.6Q598.8 250.3 598.8 254.8L598.8 254.8Q598.8 259.3 600.9 262.0Q602.9 264.7 606.3 264.7ZM655.2 267.6Q650.8 272.3 643.1 272.3Q635.4 272.3 631.0 267.6Q626.5 263.0 626.5 254.8L626.5 254.8Q626.5 246.7 631.0 242.0Q635.5 237.3 643.1 237.3L643.1 237.3Q650.7 237.3 655.2 242.0Q659.7 246.7 659.7 254.8L659.7 254.8Q659.7 263.0 655.2 267.6ZM643.1 265.3L643.1 265.3Q646.5 265.3 648.4 262.6Q650.4 259.8 650.4 254.8L650.4 254.8Q650.4 249.9 648.4 247.1Q646.5 244.3 643.1 244.3Q639.7 244.3 637.7 247.1Q635.8 249.9 635.8 254.8L635.8 254.8Q635.8 259.8 637.7 262.6Q639.7 265.3 643.1 265.3ZM672.5 271.0Q671.2 272.2 669.2 272.2Q667.1 272.2 665.8 271.0Q664.6 269.7 664.6 267.5L664.6 267.5L664.6 230.6Q664.6 228.3 665.8 227.0Q667.1 225.8 669.2 225.8Q671.2 225.8 672.5 227.0Q673.7 228.3 673.7 230.6L673.7 230.6L673.7 251.3L673.8 251.3L686.0 239.2Q687.7 237.4 689.6 237.4L689.6 237.4Q691.3 237.4 692.5 238.5Q693.7 239.6 693.7 241.3L693.7 241.3Q693.7 242.4 693.3 243.1Q692.9 243.9 691.9 244.8L691.9 244.8L683.4 252.8L692.8 264.7Q694.0 266.5 694.0 268.1L694.0 268.1Q694.0 269.9 692.8 271.1Q691.6 272.2 689.7 272.2L689.7 272.2Q688.2 272.2 687.3 271.6Q686.3 271.0 685.2 269.4L685.2 269.4L676.6 258.0L673.7 260.7L673.7 267.5Q673.7 269.7 672.5 271.0ZM714.2 272.3L714.2 272.3Q706.4 272.3 702.0 267.7Q697.6 263.1 697.6 255.0L697.6 255.0Q697.6 246.9 702.0 242.1Q706.3 237.3 713.8 237.3L713.8 237.3Q720.9 237.3 725.3 241.7Q729.7 246.1 729.7 252.9L729.7 252.9Q729.7 254.8 728.6 255.9Q727.6 256.9 725.7 256.9L725.7 256.9L706.6 256.9L706.6 257.3Q706.6 261.0 708.6 263.3Q710.7 265.5 714.2 265.5L714.2 265.5Q716.7 265.5 718.5 264.6Q720.3 263.7 722.2 261.5L722.2 261.5Q723.5 260.1 725.2 260.1L725.2 260.1Q726.7 260.1 727.7 261.1Q728.7 262.0 728.7 263.5L728.7 263.5Q728.7 264.6 728.1 265.7L728.1 265.7Q726.4 268.8 722.8 270.5Q719.1 272.3 714.2 272.3ZM706.7 251.3L706.7 251.3L720.9 251.3Q720.8 248.0 718.8 246.1Q716.9 244.1 713.9 244.1Q710.9 244.1 708.9 246.1Q706.9 248.1 706.7 251.3ZM742.2 271.0Q741.0 272.2 738.9 272.2Q736.8 272.2 735.6 271.0Q734.3 269.7 734.3 267.5L734.3 267.5L734.3 242.0Q734.3 239.8 735.5 238.6Q736.7 237.4 738.8 237.4Q740.8 237.4 742.1 238.6Q743.3 239.9 743.3 242.0L743.3 242.0L743.3 243.9L743.5 243.9Q746.3 237.4 753.8 237.4L753.8 237.4Q759.4 237.4 762.4 240.7Q765.4 244.1 765.4 250.0L765.4 250.0L765.4 267.5Q765.4 269.7 764.2 271.0Q762.9 272.2 760.9 272.2Q758.8 272.2 757.6 271.0Q756.3 269.7 756.3 267.5L756.3 267.5L756.3 251.9Q756.3 248.6 754.8 246.8Q753.2 245.0 750.2 245.0Q747.1 245.0 745.3 247.0Q743.5 249.1 743.5 252.3L743.5 252.3L743.5 267.5Q743.5 269.7 742.2 271.0Z M792.8 270.8Q791.6 272.1 789.4 272.1Q787.2 272.1 785.9 270.8Q784.7 269.6 784.7 267.2L784.7 267.2L784.7 230.8Q784.7 228.4 785.9 227.1Q787.2 225.8 789.4 225.8Q791.6 225.8 792.8 227.1Q794.1 228.4 794.1 230.8L794.1 230.8L794.1 267.2Q794.1 269.6 792.8 270.8ZM808.7 271.0Q807.4 272.2 805.4 272.2Q803.3 272.2 802.1 271.0Q800.8 269.7 800.8 267.5L800.8 267.5L800.8 242.0Q800.8 239.8 802.0 238.6Q803.2 237.4 805.2 237.4Q807.3 237.4 808.5 238.6Q809.8 239.9 809.8 242.0L809.8 242.0L809.8 243.9L810.0 243.9Q812.7 237.4 820.3 237.4L820.3 237.4Q825.8 237.4 828.9 240.7Q831.9 244.1 831.9 250.0L831.9 250.0L831.9 267.5Q831.9 269.7 830.7 271.0Q829.4 272.2 827.3 272.2Q825.3 272.2 824.0 271.0Q822.8 269.7 822.8 267.5L822.8 267.5L822.8 251.9Q822.8 248.6 821.2 246.8Q819.7 245.0 816.6 245.0Q813.6 245.0 811.8 247.0Q809.9 249.1 809.9 252.3L809.9 252.3L809.9 267.5Q809.9 269.7 808.7 271.0ZM851.3 272.3L851.3 272.3Q845.7 272.3 841.9 270.4Q838.2 268.6 836.9 265.6L836.9 265.6Q836.6 264.6 836.6 263.9L836.6 263.9Q836.6 262.3 837.6 261.4Q838.7 260.4 840.3 260.4L840.3 260.4Q842.4 260.4 844.3 262.5L844.3 262.5Q845.6 264.2 847.3 265.1Q849 265.9 851.6 265.9L851.6 265.9Q854.1 265.9 855.5 264.9Q857.0 263.9 857.0 262.3L857.0 262.3Q857.0 260.9 856.0 260.1Q855.0 259.3 852.6 258.8L852.6 258.8L847.0 257.6Q842.1 256.5 839.6 254.1Q837.1 251.6 837.1 247.9L837.1 247.9Q837.1 243.1 841.0 240.2Q844.8 237.3 851.3 237.3L851.3 237.3Q856.4 237.3 860.0 239.3Q863.6 241.3 864.4 244.3L864.4 244.3Q864.7 245.1 864.7 245.6L864.7 245.6Q864.7 247.1 863.8 247.9Q862.9 248.7 861.2 248.7L861.2 248.7Q859.0 248.7 857.8 247.3L857.8 247.3Q856.5 245.6 855.0 244.7Q853.4 243.7 851.2 243.7L851.2 243.7Q848.8 243.7 847.4 244.7Q845.9 245.7 845.9 247.4L845.9 247.4Q845.9 248.7 847 249.6Q848.1 250.5 850.6 251.0L850.6 251.0L856.1 252.2Q861.4 253.3 863.8 255.4Q866.2 257.6 866.2 261.3L866.2 261.3Q866.2 266.3 862.1 269.3Q858 272.3 851.3 272.3ZM873.1 263.0L873.1 263.0L873.1 244.9L871.3 244.9Q869.7 244.9 868.8 244.0Q867.8 243.1 867.8 241.5Q867.8 239.9 868.8 239.0Q869.7 238.1 871.3 238.1L871.3 238.1L873.1 238.1L873.1 234.3Q873.1 232.1 874.3 230.8Q875.5 229.6 877.7 229.6Q879.8 229.6 881 230.8Q882.2 232.1 882.2 234.3L882.2 234.3L882.2 238.1L885.4 238.1Q887.1 238.1 888 239.0Q888.9 239.9 888.9 241.5Q888.9 243.1 888 244.0Q887.1 244.9 885.4 244.9L885.4 244.9L882.2 244.9L882.2 261.0Q882.2 262.7 882.9 263.6Q883.5 264.4 885 264.5L885 264.5L885.6 264.6Q887.3 264.7 888.2 265.5Q889.1 266.3 889.1 267.9L889.1 267.9Q889.1 269.8 887.3 270.9Q885.6 271.9 882.6 271.9L882.6 271.9L882.3 271.9Q873.1 271.9 873.1 263.0ZM898.0 272.2L898.0 272.2Q895.9 272.2 894.6 271.0Q893.4 269.7 893.4 267.5L893.4 267.5L893.4 242.0Q893.4 239.8 894.6 238.6Q895.8 237.4 897.8 237.4L897.8 237.4Q899.8 237.4 900.9 238.6Q902.1 239.8 902.1 242.0L902.1 242.0L902.1 244.1L902.3 244.1Q903.0 241.1 904.9 239.3Q906.8 237.5 909.3 237.5L909.3 237.5Q911.1 237.5 912.1 238.4L912.1 238.4Q913.4 239.4 913.4 241.7L913.4 241.7Q913.4 243.9 912.1 245.0L912.1 245.0Q910.8 246.2 908.2 246.2L908.2 246.2Q905.2 246.2 903.8 247.8Q902.5 249.5 902.5 252.6L902.5 252.6L902.5 267.5Q902.5 269.7 901.3 271.0Q900.1 272.2 898.0 272.2ZM928.6 272.2L928.6 272.2Q923.1 272.2 919.8 268.8Q916.5 265.5 916.5 259.6L916.5 259.6L916.5 242.1Q916.5 239.9 917.8 238.6Q919.0 237.4 921.1 237.4Q923.2 237.4 924.4 238.6Q925.7 239.9 925.7 242.1L925.7 242.1L925.7 257.7Q925.7 261.1 927.3 262.8Q928.9 264.6 931.9 264.6Q934.9 264.6 936.7 262.6Q938.5 260.6 938.5 257.2L938.5 257.2L938.5 242.1Q938.5 239.9 939.8 238.6Q941 237.4 943.1 237.4Q945.1 237.4 946.4 238.6Q947.6 239.9 947.6 242.1L947.6 242.1L947.6 267.6Q947.6 269.8 946.4 271.0Q945.3 272.2 943.2 272.2Q941.2 272.2 940 271.0Q938.8 269.8 938.8 267.6L938.8 267.6L938.8 265.5L938.6 265.5Q936 272.2 928.6 272.2ZM968.8 272.3L968.8 272.3Q961.3 272.3 956.8 267.6Q952.3 262.9 952.3 254.8L952.3 254.8Q952.3 246.8 956.8 242.1Q961.2 237.3 968.8 237.3L968.8 237.3Q973.8 237.3 977.7 239.5Q981.5 241.7 982.9 245.3L982.9 245.3Q983.4 246.6 983.4 247.6L983.4 247.6Q983.4 249.2 982.3 250.2Q981.2 251.1 979.5 251.1L979.5 251.1Q978.2 251.1 977.3 250.6Q976.4 250.0 975.7 248.8L975.7 248.8Q973.3 244.5 969.1 244.5L969.1 244.5Q965.6 244.5 963.6 247.2Q961.6 249.9 961.6 254.8L961.6 254.8Q961.6 259.7 963.6 262.4Q965.6 265.1 969 265.1L969 265.1Q973.2 265.1 975.6 261.2L975.6 261.2Q976.5 259.7 977.4 259.1Q978.3 258.5 979.7 258.5L979.7 258.5Q981.3 258.5 982.5 259.5Q983.6 260.5 983.6 262.1L983.6 262.1Q983.6 263.2 983.0 264.5L983.0 264.5Q981.5 268.0 977.5 270.1Q973.6 272.3 968.8 272.3ZM990.9 263.0L990.9 263.0L990.9 244.9L989.1 244.9Q987.5 244.9 986.5 244.0Q985.6 243.1 985.6 241.5Q985.6 239.9 986.5 239.0Q987.5 238.1 989.1 238.1L989.1 238.1L990.9 238.1L990.9 234.3Q990.9 232.1 992.1 230.8Q993.3 229.6 995.4 229.6Q997.6 229.6 998.8 230.8Q1000 232.1 1000 234.3L1000 234.3L1000 238.1L1003.2 238.1Q1004.8 238.1 1005.8 239.0Q1006.7 239.9 1006.7 241.5Q1006.7 243.1 1005.8 244.0Q1004.8 244.9 1003.2 244.9L1003.2 244.9L1000 244.9L1000 261.0Q1000 262.7 1000.7 263.6Q1001.3 264.4 1002.8 264.5L1002.8 264.5L1003.4 264.6Q1005.1 264.7 1006.0 265.5Q1006.8 266.3 1006.8 267.9L1006.8 267.9Q1006.8 269.8 1005.1 270.9Q1003.3 271.9 1000.4 271.9L1000.4 271.9L1000.1 271.9Q990.9 271.9 990.9 263.0ZM1019.4 232.5Q1018.0 233.9 1015.9 233.9Q1013.8 233.9 1012.4 232.5Q1011.0 231.1 1011.0 229.2L1011.0 229.2Q1011.0 227.2 1012.4 225.8Q1013.8 224.5 1015.9 224.5Q1018.0 224.5 1019.4 225.8Q1020.8 227.2 1020.8 229.2L1020.8 229.2Q1020.8 231.1 1019.4 232.5ZM1019.3 270.9Q1018.0 272.2 1015.9 272.2Q1013.8 272.2 1012.6 270.9Q1011.3 269.7 1011.3 267.5L1011.3 267.5L1011.3 242.1Q1011.3 239.9 1012.6 238.6Q1013.8 237.4 1015.9 237.4Q1018.0 237.4 1019.3 238.6Q1020.5 239.9 1020.5 242.1L1020.5 242.1L1020.5 267.5Q1020.5 269.7 1019.3 270.9ZM1054.0 267.6Q1049.6 272.3 1041.9 272.3Q1034.3 272.3 1029.8 267.6Q1025.3 263.0 1025.3 254.8L1025.3 254.8Q1025.3 246.7 1029.8 242.0Q1034.3 237.3 1041.9 237.3L1041.9 237.3Q1049.5 237.3 1054 242.0Q1058.5 246.7 1058.5 254.8L1058.5 254.8Q1058.5 263.0 1054.0 267.6ZM1041.9 265.3L1041.9 265.3Q1045.3 265.3 1047.3 262.6Q1049.2 259.8 1049.2 254.8L1049.2 254.8Q1049.2 249.9 1047.3 247.1Q1045.3 244.3 1041.9 244.3Q1038.5 244.3 1036.5 247.1Q1034.6 249.9 1034.6 254.8L1034.6 254.8Q1034.6 259.8 1036.5 262.6Q1038.5 265.3 1041.9 265.3ZM1071.1 271.0Q1069.8 272.2 1067.8 272.2Q1065.7 272.2 1064.4 271.0Q1063.2 269.7 1063.2 267.5L1063.2 267.5L1063.2 242.0Q1063.2 239.8 1064.4 238.6Q1065.5 237.4 1067.6 237.4Q1069.7 237.4 1070.9 238.6Q1072.2 239.9 1072.2 242.0L1072.2 242.0L1072.2 243.9L1072.3 243.9Q1075.1 237.4 1082.7 237.4L1082.7 237.4Q1088.2 237.4 1091.3 240.7Q1094.3 244.1 1094.3 250.0L1094.3 250.0L1094.3 267.5Q1094.3 269.7 1093.0 271.0Q1091.8 272.2 1089.7 272.2Q1087.7 272.2 1086.4 271.0Q1085.2 269.7 1085.2 267.5L1085.2 267.5L1085.2 251.9Q1085.2 248.6 1083.6 246.8Q1082.0 245.0 1079 245.0Q1076.0 245.0 1074.1 247.0Q1072.3 249.1 1072.3 252.3L1072.3 252.3L1072.3 267.5Q1072.3 269.7 1071.1 271.0Z M83.9 344.4Q82.7 345.7 80.5 345.7Q78.3 345.7 77 344.4Q75.8 343.2 75.8 340.8L75.8 340.8L75.8 305.0Q75.8 302.7 77 301.4Q78.3 300.1 80.5 300.1L80.5 300.1L101.6 300.1Q103.5 300.1 104.7 301.1Q105.8 302.2 105.8 304.0Q105.8 305.8 104.7 306.8Q103.5 307.9 101.6 307.9L101.6 307.9L85.2 307.9L85.2 319.9L100.0 319.9Q101.9 319.9 103.0 320.9Q104.1 321.9 104.1 323.7L104.1 323.7Q104.1 325.4 103.0 326.4Q101.9 327.4 100.0 327.4L100.0 327.4L85.2 327.4L85.2 340.8Q85.2 343.2 83.9 344.4ZM137.6 341.2Q133.1 345.9 125.4 345.9Q117.8 345.9 113.3 341.2Q108.8 336.6 108.8 328.4L108.8 328.4Q108.8 320.3 113.4 315.6Q117.9 310.9 125.4 310.9L125.4 310.9Q133.0 310.9 137.5 315.6Q142.0 320.3 142.0 328.4L142.0 328.4Q142.0 336.6 137.6 341.2ZM125.4 338.9L125.4 338.9Q128.8 338.9 130.8 336.2Q132.8 333.4 132.8 328.4L132.8 328.4Q132.8 323.5 130.8 320.7Q128.8 317.9 125.4 317.9Q122.1 317.9 120.1 320.7Q118.1 323.5 118.1 328.4L118.1 328.4Q118.1 333.4 120.1 336.2Q122.0 338.9 125.4 338.9ZM154.8 344.6Q153.6 345.8 151.5 345.8Q149.4 345.8 148.2 344.6Q146.9 343.3 146.9 341.1L146.9 341.1L146.9 304.2Q146.9 301.9 148.2 300.6Q149.4 299.4 151.5 299.4Q153.6 299.4 154.8 300.6Q156.1 301.9 156.1 304.2L156.1 304.2L156.1 341.1Q156.1 343.3 154.8 344.6ZM170.3 344.6Q169.1 345.8 167 345.8Q164.9 345.8 163.7 344.6Q162.4 343.3 162.4 341.1L162.4 341.1L162.4 304.2Q162.4 301.9 163.7 300.6Q164.9 299.4 167 299.4Q169.1 299.4 170.3 300.6Q171.6 301.9 171.6 304.2L171.6 304.2L171.6 341.1Q171.6 343.3 170.3 344.6ZM205.2 341.2Q200.8 345.9 193.1 345.9Q185.4 345.9 181.0 341.2Q176.5 336.6 176.5 328.4L176.5 328.4Q176.5 320.3 181.0 315.6Q185.5 310.9 193.1 310.9L193.1 310.9Q200.7 310.9 205.2 315.6Q209.7 320.3 209.7 328.4L209.7 328.4Q209.7 336.6 205.2 341.2ZM193.1 338.9L193.1 338.9Q196.5 338.9 198.4 336.2Q200.4 333.4 200.4 328.4L200.4 328.4Q200.4 323.5 198.4 320.7Q196.5 317.9 193.1 317.9Q189.7 317.9 187.7 320.7Q185.8 323.5 185.8 328.4L185.8 328.4Q185.8 333.4 187.7 336.2Q189.7 338.9 193.1 338.9ZM225.6 345.8L225.6 345.8Q223.3 345.8 221.9 344.7Q220.6 343.5 219.8 341.0L219.8 341.0L213.1 317.7Q212.6 316.0 212.6 314.9L212.6 314.9Q212.6 313.2 213.8 312.1Q215.1 311.0 217 311.0L217 311.0Q220.5 311.0 221.3 314.8L221.3 314.8L226.3 336.5L226.4 336.5L231.6 315.2Q232.5 311.0 236.8 311.0L236.8 311.0Q238.8 311.0 240.1 312.0Q241.4 313.1 241.9 315.2L241.9 315.2L247.1 336.5L247.3 336.5L252.3 314.8Q252.7 312.9 253.7 311.9Q254.8 311.0 256.5 311.0L256.5 311.0Q258.4 311.0 259.6 312.0Q260.8 313.1 260.8 314.8L260.8 314.8Q260.8 315.9 260.3 317.6L260.3 317.6L253.6 341.0Q252.8 343.5 251.5 344.7Q250.1 345.8 247.7 345.8L247.7 345.8Q245.2 345.8 243.8 344.7Q242.4 343.5 241.8 341.0L241.8 341.0L236.7 321.5L236.5 321.5L231.5 341.0Q230.9 343.5 229.5 344.7Q228.1 345.8 225.6 345.8ZM273.1 306.1Q271.7 307.5 269.7 307.5Q267.6 307.5 266.2 306.1Q264.8 304.7 264.8 302.8L264.8 302.8Q264.8 300.8 266.2 299.4Q267.6 298.1 269.7 298.1Q271.7 298.1 273.1 299.4Q274.5 300.8 274.5 302.8L274.5 302.8Q274.5 304.7 273.1 306.1ZM273 344.5Q271.8 345.8 269.7 345.8Q267.5 345.8 266.3 344.5Q265.1 343.3 265.1 341.1L265.1 341.1L265.1 315.7Q265.1 313.5 266.3 312.2Q267.5 311.0 269.7 311.0Q271.8 311.0 273 312.2Q274.2 313.5 274.2 315.7L274.2 315.7L274.2 341.1Q274.2 343.3 273 344.5ZM288.2 344.6Q286.9 345.8 284.8 345.8Q282.8 345.8 281.5 344.6Q280.3 343.3 280.3 341.1L280.3 341.1L280.3 315.6Q280.3 313.4 281.5 312.2Q282.6 311.0 284.7 311.0Q286.8 311.0 288 312.2Q289.3 313.5 289.3 315.6L289.3 315.6L289.3 317.5L289.4 317.5Q292.2 311.0 299.8 311.0L299.8 311.0Q305.3 311.0 308.3 314.3Q311.4 317.7 311.4 323.6L311.4 323.6L311.4 341.1Q311.4 343.3 310.1 344.6Q308.9 345.8 306.8 345.8Q304.8 345.8 303.5 344.6Q302.3 343.3 302.3 341.1L302.3 341.1L302.3 325.5Q302.3 322.2 300.7 320.4Q299.1 318.6 296.1 318.6Q293.1 318.6 291.2 320.6Q289.4 322.7 289.4 325.9L289.4 325.9L289.4 341.1Q289.4 343.3 288.2 344.6ZM332.1 357.7L332.1 357.7Q327.2 357.7 323.4 356.0Q319.7 354.3 318.0 351.6L318.0 351.6Q317.3 350.4 317.3 349.1L317.3 349.1Q317.3 347.6 318.4 346.7Q319.4 345.7 321.1 345.7L321.1 345.7Q322.8 345.7 324.2 347.0L324.2 347.0Q328.0 350.7 332.1 350.7L332.1 350.7Q335.8 350.7 337.9 348.8Q340.0 347.0 340.0 343.8L340.0 343.8L340.0 338.4L339.8 338.4Q338.7 341.2 335.9 342.8Q333.1 344.4 329.5 344.4L329.5 344.4Q323.3 344.4 319.6 340.0Q315.9 335.5 315.9 327.8L315.9 327.8Q315.9 320.0 319.6 315.5Q323.2 311.1 329.7 311.1L329.7 311.1Q333.2 311.1 335.9 312.8Q338.6 314.5 339.9 317.4L339.9 317.4L340.1 317.4L340.1 315.6Q340.1 313.3 341.4 312.2Q342.6 311.0 344.7 311.0L344.7 311.0Q346.7 311.0 348.0 312.2Q349.2 313.3 349.2 315.6L349.2 315.6L349.2 343.8Q349.2 350.4 344.7 354.1Q340.2 357.8 332.1 357.7ZM332.6 337.7L332.6 337.7Q336.1 337.7 338.1 335.1Q340.1 332.5 340.1 328.0Q340.1 323.4 338.1 320.7Q336.1 318.1 332.6 318.1L332.6 318.1Q329.3 318.1 327.3 320.7Q325.3 323.4 325.3 327.9L325.3 327.9Q325.3 332.5 327.3 335.1Q329.2 337.7 332.6 337.7Z M370.2 336.6L370.2 336.6L370.2 318.5L368.5 318.5Q366.8 318.5 365.9 317.6Q364.9 316.7 364.9 315.1Q364.9 313.5 365.9 312.6Q366.8 311.7 368.5 311.7L368.5 311.7L370.2 311.7L370.2 307.9Q370.2 305.7 371.4 304.4Q372.7 303.2 374.8 303.2Q376.9 303.2 378.1 304.4Q379.3 305.7 379.3 307.9L379.3 307.9L379.3 311.7L382.6 311.7Q384.2 311.7 385.1 312.6Q386.1 313.5 386.1 315.1Q386.1 316.7 385.1 317.6Q384.2 318.5 382.6 318.5L382.6 318.5L379.3 318.5L379.3 334.6Q379.3 336.3 380 337.2Q380.7 338.0 382.1 338.1L382.1 338.1L382.7 338.2Q384.5 338.3 385.3 339.1Q386.2 339.9 386.2 341.5L386.2 341.5Q386.2 343.4 384.4 344.5Q382.7 345.5 379.7 345.5L379.7 345.5L379.4 345.5Q370.2 345.5 370.2 336.6ZM398.6 344.6Q397.4 345.8 395.3 345.8Q393.3 345.8 392 344.6Q390.8 343.3 390.8 341.1L390.8 341.1L390.8 304.1Q390.8 301.9 391.9 300.6Q393.1 299.4 395.3 299.4L395.3 299.4Q397.3 299.4 398.5 300.6Q399.7 301.8 399.7 304.1L399.7 304.1L399.7 317.6L399.9 317.6Q401.3 314.4 404.0 312.7Q406.7 311.0 410.4 311.0L410.4 311.0Q416.0 311.0 419.0 314.4Q422.1 317.7 422.1 323.6L422.1 323.6L422.1 341.1Q422.1 343.3 420.9 344.6Q419.6 345.8 417.6 345.8Q415.5 345.8 414.3 344.6Q413 343.3 413 341.1L413 341.1L413 325.5Q413 322.2 411.4 320.4Q409.8 318.6 406.7 318.6L406.7 318.6Q403.5 318.6 401.7 320.6Q399.9 322.7 399.9 326.0L399.9 326.0L399.9 341.1Q399.9 343.3 398.6 344.6ZM432.5 345.8L432.5 345.8Q430.4 345.8 429.2 344.6Q427.9 343.3 427.9 341.1L427.9 341.1L427.9 315.6Q427.9 313.4 429.1 312.2Q430.3 311.0 432.3 311.0L432.3 311.0Q434.3 311.0 435.5 312.2Q436.7 313.4 436.7 315.6L436.7 315.6L436.7 317.7L436.8 317.7Q437.5 314.7 439.4 312.9Q441.3 311.1 443.8 311.1L443.8 311.1Q445.7 311.1 446.7 312.0L446.7 312.0Q448.0 313.0 448.0 315.3L448.0 315.3Q448.0 317.5 446.7 318.6L446.7 318.6Q445.3 319.8 442.7 319.8L442.7 319.8Q439.7 319.8 438.4 321.4Q437.1 323.1 437.1 326.2L437.1 326.2L437.1 341.1Q437.1 343.3 435.8 344.6Q434.6 345.8 432.5 345.8ZM478.7 341.2Q474.3 345.9 466.6 345.9Q458.9 345.9 454.5 341.2Q450 336.6 450 328.4L450 328.4Q450 320.3 454.5 315.6Q459.0 310.9 466.6 310.9L466.6 310.9Q474.2 310.9 478.7 315.6Q483.2 320.3 483.2 328.4L483.2 328.4Q483.2 336.6 478.7 341.2ZM466.6 338.9L466.6 338.9Q470.0 338.9 471.9 336.2Q473.9 333.4 473.9 328.4L473.9 328.4Q473.9 323.5 471.9 320.7Q470.0 317.9 466.6 317.9Q463.2 317.9 461.2 320.7Q459.3 323.5 459.3 328.4L459.3 328.4Q459.3 333.4 461.2 336.2Q463.2 338.9 466.6 338.9ZM499.8 345.8L499.8 345.8Q494.3 345.8 491 342.4Q487.7 339.1 487.7 333.2L487.7 333.2L487.7 315.7Q487.7 313.5 489.0 312.2Q490.2 311.0 492.3 311.0Q494.3 311.0 495.6 312.2Q496.8 313.5 496.8 315.7L496.8 315.7L496.8 331.3Q496.8 334.7 498.5 336.4Q500.1 338.2 503.1 338.2Q506.1 338.2 507.9 336.2Q509.7 334.2 509.7 330.8L509.7 330.8L509.7 315.7Q509.7 313.5 510.9 312.2Q512.2 311.0 514.3 311.0Q516.3 311.0 517.6 312.2Q518.8 313.5 518.8 315.7L518.8 315.7L518.8 341.2Q518.8 343.4 517.6 344.6Q516.4 345.8 514.4 345.8Q512.4 345.8 511.2 344.6Q510 343.4 510 341.2L510 341.2L510 339.1L509.8 339.1Q507.2 345.8 499.8 345.8ZM539.7 357.7L539.7 357.7Q534.8 357.7 531.0 356.0Q527.3 354.3 525.6 351.6L525.6 351.6Q524.9 350.4 524.9 349.1L524.9 349.1Q524.9 347.6 526.0 346.7Q527.0 345.7 528.7 345.7L528.7 345.7Q530.4 345.7 531.8 347.0L531.8 347.0Q535.6 350.7 539.7 350.7L539.7 350.7Q543.4 350.7 545.5 348.8Q547.6 347.0 547.6 343.8L547.6 343.8L547.6 338.4L547.4 338.4Q546.3 341.2 543.5 342.8Q540.7 344.4 537.1 344.4L537.1 344.4Q530.9 344.4 527.2 340.0Q523.5 335.5 523.5 327.8L523.5 327.8Q523.5 320.0 527.2 315.5Q530.8 311.1 537.3 311.1L537.3 311.1Q540.8 311.1 543.5 312.8Q546.2 314.5 547.5 317.4L547.5 317.4L547.7 317.4L547.7 315.6Q547.7 313.3 549.0 312.2Q550.2 311.0 552.3 311.0L552.3 311.0Q554.3 311.0 555.6 312.2Q556.8 313.3 556.8 315.6L556.8 315.6L556.8 343.8Q556.8 350.4 552.3 354.1Q547.8 357.8 539.7 357.7ZM540.2 337.7L540.2 337.7Q543.7 337.7 545.7 335.1Q547.7 332.5 547.7 328.0Q547.7 323.4 545.7 320.7Q543.7 318.1 540.2 318.1L540.2 318.1Q536.8 318.1 534.9 320.7Q532.9 323.4 532.9 327.9L532.9 327.9Q532.9 332.5 534.8 335.1Q536.8 337.7 540.2 337.7ZM570.8 344.6Q569.6 345.8 567.5 345.8Q565.4 345.8 564.2 344.6Q562.9 343.3 562.9 341.1L562.9 341.1L562.9 304.1Q562.9 301.9 564.1 300.6Q565.3 299.4 567.4 299.4L567.4 299.4Q569.5 299.4 570.7 300.6Q571.9 301.8 571.9 304.1L571.9 304.1L571.9 317.6L572.1 317.6Q573.4 314.4 576.1 312.7Q578.8 311.0 582.6 311.0L582.6 311.0Q588.2 311.0 591.2 314.4Q594.3 317.7 594.3 323.6L594.3 323.6L594.3 341.1Q594.3 343.3 593.1 344.6Q591.8 345.8 589.8 345.8Q587.7 345.8 586.4 344.6Q585.2 343.3 585.2 341.1L585.2 341.1L585.2 325.5Q585.2 322.2 583.6 320.4Q582.0 318.6 578.9 318.6L578.9 318.6Q575.7 318.6 573.9 320.6Q572.1 322.7 572.1 326.0L572.1 326.0L572.1 341.1Q572.1 343.3 570.8 344.6Z M632.5 344.4Q631.3 345.7 629.1 345.7Q626.8 345.7 625.6 344.4Q624.3 343.2 624.3 340.8L624.3 340.8L624.3 307.9L615.0 307.9Q613.1 307.9 611.9 306.8Q610.8 305.8 610.8 304.0Q610.8 302.2 611.9 301.1Q613.1 300.1 615.0 300.1L615.0 300.1L643.1 300.1Q645.1 300.1 646.2 301.1Q647.4 302.2 647.4 304.0Q647.4 305.8 646.2 306.8Q645.0 307.9 643.1 307.9L643.1 307.9L633.8 307.9L633.8 340.8Q633.8 343.2 632.5 344.4ZM659.4 344.6Q658.1 345.8 656.1 345.8Q654 345.8 652.8 344.6Q651.5 343.3 651.5 341.1L651.5 341.1L651.5 304.1Q651.5 301.9 652.7 300.6Q653.9 299.4 656 299.4L656 299.4Q658.1 299.4 659.3 300.6Q660.5 301.8 660.5 304.1L660.5 304.1L660.5 317.6L660.7 317.6Q662 314.4 664.7 312.7Q667.4 311.0 671.2 311.0L671.2 311.0Q676.7 311.0 679.8 314.4Q682.9 317.7 682.9 323.6L682.9 323.6L682.9 341.1Q682.9 343.3 681.6 344.6Q680.4 345.8 678.3 345.8Q676.3 345.8 675 344.6Q673.8 343.3 673.8 341.1L673.8 341.1L673.8 325.5Q673.8 322.2 672.1 320.4Q670.5 318.6 667.5 318.6L667.5 318.6Q664.3 318.6 662.5 320.6Q660.6 322.7 660.6 326.0L660.6 326.0L660.6 341.1Q660.6 343.3 659.4 344.6ZM704.1 345.9L704.1 345.9Q696.3 345.9 691.9 341.3Q687.5 336.7 687.5 328.6L687.5 328.6Q687.5 320.5 691.8 315.7Q696.2 310.9 703.7 310.9L703.7 310.9Q710.8 310.9 715.1 315.3Q719.5 319.7 719.5 326.5L719.5 326.5Q719.5 328.4 718.5 329.5Q717.5 330.5 715.6 330.5L715.6 330.5L696.4 330.5L696.4 330.9Q696.4 334.6 698.5 336.9Q700.6 339.1 704.1 339.1L704.1 339.1Q706.6 339.1 708.4 338.2Q710.2 337.3 712.1 335.1L712.1 335.1Q713.4 333.7 715.0 333.7L715.0 333.7Q716.6 333.7 717.6 334.7Q718.6 335.6 718.6 337.1L718.6 337.1Q718.6 338.2 718.0 339.3L718.0 339.3Q716.3 342.4 712.6 344.1Q708.9 345.9 704.1 345.9ZM696.5 324.9L696.5 324.9L710.8 324.9Q710.6 321.6 708.7 319.7Q706.8 317.7 703.8 317.7Q700.8 317.7 698.8 319.7Q696.8 321.7 696.5 324.9ZM751.7 341.2Q747.3 345.9 739.6 345.9Q731.9 345.9 727.5 341.2Q723 336.6 723 328.4L723 328.4Q723 320.3 727.5 315.6Q732.0 310.9 739.6 310.9L739.6 310.9Q747.2 310.9 751.7 315.6Q756.2 320.3 756.2 328.4L756.2 328.4Q756.2 336.6 751.7 341.2ZM739.6 338.9L739.6 338.9Q743.0 338.9 744.9 336.2Q746.9 333.4 746.9 328.4L746.9 328.4Q746.9 323.5 744.9 320.7Q743.0 317.9 739.6 317.9Q736.2 317.9 734.2 320.7Q732.3 323.5 732.3 328.4L732.3 328.4Q732.3 333.4 734.2 336.2Q736.2 338.9 739.6 338.9ZM765.4 345.8L765.4 345.8Q763.3 345.8 762.1 344.6Q760.9 343.3 760.9 341.1L760.9 341.1L760.9 315.6Q760.9 313.4 762.1 312.2Q763.3 311.0 765.3 311.0L765.3 311.0Q767.2 311.0 768.4 312.2Q769.6 313.4 769.6 315.6L769.6 315.6L769.6 317.7L769.8 317.7Q770.4 314.7 772.3 312.9Q774.2 311.1 776.8 311.1L776.8 311.1Q778.6 311.1 779.6 312.0L779.6 312.0Q780.9 313.0 780.9 315.3L780.9 315.3Q780.9 317.5 779.6 318.6L779.6 318.6Q778.3 319.8 775.6 319.8L775.6 319.8Q772.6 319.8 771.3 321.4Q770 323.1 770 326.2L770 326.2L770 341.1Q770 343.3 768.8 344.6Q767.6 345.8 765.4 345.8ZM789.8 357.6L789.8 357.6Q786.8 357.6 785.3 356.4Q783.7 355.3 783.7 353.3L783.7 353.3Q783.7 351.9 784.6 351.1Q785.5 350.3 787.0 350.3L787.0 350.3Q787.3 350.3 787.8 350.3Q788.3 350.3 788.6 350.3L788.6 350.3Q791.6 350.3 793.0 347.3L793.0 347.3L793.5 346.1L782.8 317.9Q782.3 316.5 782.3 315.2L782.3 315.2Q782.3 313.4 783.6 312.2Q785.0 311.0 787 311.0L787 311.0Q788.8 311.0 789.8 311.8Q790.8 312.7 791.4 314.7L791.4 314.7L798.7 337.8L798.8 337.8L806.1 314.6Q806.7 312.7 807.7 311.8Q808.8 311.0 810.5 311.0L810.5 311.0Q812.5 311.0 813.7 312.1Q815.0 313.3 815.0 315.1L815.0 315.1Q815.0 316.4 814.5 317.8L814.5 317.8L804.2 345.7Q801.8 352.2 798.6 354.9Q795.3 357.6 789.8 357.6Z M859.1 341.2Q854.6 345.9 846.9 345.9Q839.3 345.9 834.8 341.2Q830.3 336.6 830.3 328.4L830.3 328.4Q830.3 320.3 834.9 315.6Q839.4 310.9 846.9 310.9L846.9 310.9Q854.5 310.9 859.0 315.6Q863.5 320.3 863.5 328.4L863.5 328.4Q863.5 336.6 859.1 341.2ZM846.9 338.9L846.9 338.9Q850.3 338.9 852.3 336.2Q854.3 333.4 854.3 328.4L854.3 328.4Q854.3 323.5 852.3 320.7Q850.3 317.9 846.9 317.9Q843.6 317.9 841.6 320.7Q839.6 323.5 839.6 328.4L839.6 328.4Q839.6 333.4 841.6 336.2Q843.5 338.9 846.9 338.9ZM878.5 344.6Q877.3 345.8 875.2 345.8Q873.1 345.8 871.9 344.6Q870.7 343.4 870.7 341.1L870.7 341.1L870.7 318.5L868.9 318.5Q867.4 318.5 866.5 317.6Q865.6 316.7 865.6 315.2Q865.6 313.6 866.5 312.7Q867.4 311.8 868.9 311.8L868.9 311.8L870.7 311.8L870.7 309.3Q870.7 304.4 873.0 302.0Q875.4 299.7 880.2 299.7L880.2 299.7Q883.7 299.7 885.4 300.7Q887.1 301.7 887.1 303.3L887.1 303.3Q887.1 305.2 885.3 305.7L885.3 305.7Q884.4 306.0 883.5 306.0L883.5 306.0Q881.4 306.1 880.5 306.9Q879.6 307.8 879.6 309.7L879.6 309.7L879.6 311.8L883.4 311.8Q884.9 311.8 885.8 312.7Q886.8 313.6 886.8 315.2Q886.8 316.7 885.8 317.6Q884.9 318.5 883.4 318.5L883.4 318.5L879.8 318.5L879.8 341.1Q879.8 343.4 878.5 344.6Z M911.8 344.6Q910.7 345.7 908.7 345.7Q906.7 345.7 905.5 344.6Q904.4 343.4 904.4 341.3L904.4 341.3L904.4 305.5Q904.4 302.7 906.0 301.0Q907.7 299.4 910.5 299.4L910.5 299.4Q913 299.4 914.5 300.6Q916.0 301.7 917 304.3L917 304.3L928.2 332.0L928.4 332.0L939.6 304.3Q940.6 301.7 942.1 300.6Q943.7 299.4 946.1 299.4L946.1 299.4Q949 299.4 950.6 301.0Q952.2 302.7 952.2 305.5L952.2 305.5L952.2 341.3Q952.2 343.4 951.1 344.6Q950.0 345.7 948.0 345.7Q946.0 345.7 944.9 344.6Q943.8 343.4 943.8 341.3L943.8 341.3L943.8 314.7L943.5 314.7L932.4 342.0Q931.2 344.9 928.3 344.9L928.3 344.9Q925.4 344.9 924.3 342.0L924.3 342.0L913.1 314.7L912.8 314.7L912.8 341.3Q912.8 343.4 911.8 344.6ZM967.1 306.1Q965.7 307.5 963.6 307.5Q961.6 307.5 960.2 306.1Q958.8 304.7 958.8 302.8L958.8 302.8Q958.8 300.8 960.2 299.4Q961.6 298.1 963.6 298.1Q965.7 298.1 967.1 299.4Q968.5 300.8 968.5 302.8L968.5 302.8Q968.5 304.7 967.1 306.1ZM967.0 344.5Q965.8 345.8 963.6 345.8Q961.5 345.8 960.3 344.5Q959.1 343.3 959.1 341.1L959.1 341.1L959.1 315.7Q959.1 313.5 960.3 312.2Q961.5 311.0 963.6 311.0Q965.8 311.0 967.0 312.2Q968.2 313.5 968.2 315.7L968.2 315.7L968.2 341.1Q968.2 343.3 967.0 344.5ZM982.1 344.6Q980.9 345.8 978.8 345.8Q976.8 345.8 975.5 344.6Q974.3 343.3 974.3 341.1L974.3 341.1L974.3 315.6Q974.3 313.4 975.4 312.2Q976.6 311.0 978.7 311.0Q980.7 311.0 982.0 312.2Q983.2 313.5 983.2 315.6L983.2 315.6L983.2 317.5L983.4 317.5Q986.2 311.0 993.7 311.0L993.7 311.0Q999.3 311.0 1002.3 314.3Q1005.3 317.7 1005.3 323.6L1005.3 323.6L1005.3 341.1Q1005.3 343.3 1004.1 344.6Q1002.8 345.8 1000.8 345.8Q998.7 345.8 997.5 344.6Q996.2 343.3 996.2 341.1L996.2 341.1L996.2 325.5Q996.2 322.2 994.7 320.4Q993.1 318.6 990.1 318.6Q987.0 318.6 985.2 320.6Q983.4 322.7 983.4 325.9L983.4 325.9L983.4 341.1Q983.4 343.3 982.1 344.6ZM1023.6 345.7L1023.6 345.7Q1017.3 345.7 1013.6 341.0Q1009.9 336.4 1009.9 328.3L1009.9 328.3Q1009.9 320.4 1013.6 315.7Q1017.3 311.1 1023.6 311.1L1023.6 311.1Q1027.2 311.1 1029.9 312.8Q1032.6 314.6 1033.8 317.4L1033.8 317.4L1034.0 317.4L1034.0 304.2Q1034.0 301.9 1035.3 300.6Q1036.5 299.4 1038.6 299.4Q1040.7 299.4 1041.9 300.6Q1043.2 301.9 1043.2 304.2L1043.2 304.2L1043.2 341.2Q1043.2 343.4 1041.9 344.6Q1040.7 345.8 1038.6 345.8L1038.6 345.8Q1036.6 345.8 1035.3 344.6Q1034.0 343.4 1034.0 341.2L1034.0 341.2L1034.0 339.2L1033.9 339.2Q1032.8 342.2 1030.0 343.9Q1027.3 345.7 1023.6 345.7ZM1026.7 338.3L1026.7 338.3Q1030.1 338.3 1032.1 335.7Q1034.1 333.0 1034.1 328.4L1034.1 328.4Q1034.1 323.8 1032.1 321.1Q1030.1 318.4 1026.7 318.4L1026.7 318.4Q1023.2 318.4 1021.2 321.1Q1019.3 323.8 1019.3 328.4L1019.3 328.4Q1019.3 333.0 1021.2 335.7Q1023.2 338.3 1026.7 338.3Z " clip-path="url(#satori_cp-id-0)" mask="url(#satori_om-id-0)"/><defs><clipPath id="satori_bc-id-0-1" clip-path="url(#satori_cp-id-0)"><rect x="0" y="509" width="1200" height="121"/></clipPath></defs><mask id="satori_om-id-0-1"><rect x="0" y="510" width="1200" height="120" fill="#fff" mask="url(#satori_om-id-0)"/><path width="1200" height="121" fill="none" stroke="#000" stroke-width="2" d="M0,509 A0,0 0 0 1 0,509 h1200 A0,0 0 0 1 1200,509"/></mask><path width="1200" height="121" clip-path="url(#satori_bc-id-0-1)" fill="none" stroke="rgba(0,0,0,0.08)" stroke-width="2" d="M0,509 A0,0 0 0 1 0,509 h1200 A0,0 0 0 1 1200,509"/><mask id="satori_om-id-0-1-0"><rect x="48" y="538" width="228" height="64" fill="#fff" mask="url(#satori_om-id-0)"/></mask><mask id="satori_om-id-0-1-0-0"><rect x="48" y="538" width="72" height="64" fill="#fff" mask="url(#satori_om-id-0)"/></mask><clipPath id="satori_cp-id-0-1-0-0-0" clip-path="url(#satori_cp-id-0)"><rect x="48" y="538" width="72" height="64"/></clipPath><mask id="satori_om-id-0-1-0-0-0"><rect x="48" y="538" width="72" height="64" fill="#fff" mask="url(#satori_om-id-0)"/></mask><image x="48" y="538" width="72" height="64" href="data:image/svg+xml;utf8,%3Csvg  xmlns=%22http://www.w3.org/2000/svg%22 width=%2273.60461760461762%22 height=%2264%22 viewBox=%220 0 797 693%22%3E%3Cg transform=%22matrix(1,0,0,1,-345,-96.5)%22%3E%3Cpath d=%22M756.942,197.15L756.942,474C701.751,474 656.942,518.808 656.942,574C656.942,629.192 701.751,674 756.942,674L756.942,777L495.122,777C443.175,777 401,734.825 401,682.878L401,614L364.755,614C353.852,614 345,605.148 345,594.245L345,436.814C345,425.878 353.878,417 364.814,417L401,417L401,365.122C401,313.175 443.175,271 495.122,271L715.058,271L715.058,197.15C696.492,189.056 683.5,170.533 683.5,149C683.5,120.024 707.024,96.5 736,96.5C764.976,96.5 788.5,120.024 788.5,149C788.5,170.533 775.508,189.056 756.942,197.15ZM559,388C520.918,388 490,418.918 490,457C490,495.082 520.918,526 559,526C597.082,526 628,495.082 628,457C628,418.918 597.082,388 559,388Z%22 fill=%22%23ad47ff%22%3E%3C/path%3E%3Cg transform=%22matrix(-1,1.22465e-16,-1.22465e-16,-1,1486.06,1043)%22%3E%3Cpath d=%22M401,417L401,348.122C401,296.175 443.175,254 495.122,254L705.058,254L705.058,357C760.249,357 805.058,401.808 805.058,457C805.058,512.192 760.249,557 705.058,557L705.058,760L495.122,760C443.175,760 401,717.825 401,665.878L401,614L364.755,614C353.852,614 345,605.148 345,594.245L345,436.814C345,425.878 353.878,417 364.814,417L401,417ZM552,643C590.082,643 621,612.082 621,574C621,535.918 590.082,505 552,505C513.918,505 483,535.918 483,574C483,612.082 513.918,643 552,643Z%22 fill=%22%2300d5bd%22%3E%3C/path%3E%3C/g%3E%3C/g%3E%3C/svg%3E" preserveAspectRatio="none" clip-path="url(#satori_cp-id-0-1-0-0-0)" mask="url(#satori_om-id-0-1-0-0-0)"/><mask id="satori_om-id-0-1-0-0-0-0"><rect x="48" y="538" width="0" height="64" fill="#fff" mask="url(#satori_om-id-0)"/></mask><mask id="satori_om-id-0-1-0-0-0-0-0"><rect x="48" y="538" width="0" height="64" fill="#fff" mask="url(#satori_om-id-0)"/></mask><mask id="satori_om-id-0-1-0-0-0-0-1"><rect x="48" y="538" width="0" height="64" fill="#fff" mask="url(#satori_om-id-0)"/></mask><mask id="satori_om-id-0-1-0-0-0-0-1-0"><rect x="48" y="538" width="0" height="64" fill="#fff" mask="url(#satori_om-id-0)"/></mask><mask id="satori_om-id-0-1-0-1"><rect x="138" y="540" width="138" height="60" fill="#fff" mask="url(#satori_om-id-0)"/></mask><mask id="satori_om-id-0-1-0-1-0"><rect x="138" y="540" width="138" height="36" fill="#fff" mask="url(#satori_om-id-0)"/></mask><path fill="#0f172a" d="M150.7 571.2L150.7 571.2Q145.9 571.2 143.0 568.6Q140.1 566.1 140.1 561.8L140.1 561.8L140.1 547.9Q140.1 546.5 140.8 545.8Q141.5 545.1 142.8 545.1Q144.0 545.1 144.7 545.8Q145.4 546.5 145.4 547.9L145.4 547.9L145.4 561.3Q145.4 563.8 146.8 565.2Q148.2 566.7 150.7 566.7L150.7 566.7Q153.3 566.7 154.7 565.2Q156.1 563.8 156.1 561.3L156.1 561.3L156.1 547.9Q156.1 546.5 156.8 545.8Q157.5 545.1 158.7 545.1Q160.0 545.1 160.7 545.8Q161.4 546.5 161.4 547.9L161.4 547.9L161.4 561.8Q161.4 566.1 158.5 568.6Q155.6 571.2 150.7 571.2ZM170.2 570.4Q169.5 571.2 168.2 571.2Q167.0 571.2 166.3 570.4Q165.6 569.7 165.6 568.4L165.6 568.4L165.6 548.2Q165.6 546.9 166.3 546.2Q167.0 545.4 168.2 545.4L168.2 545.4L176.0 545.4Q180.3 545.4 182.7 547.6Q185.1 549.7 185.1 553.5L185.1 553.5Q185.1 555.9 184.0 557.8Q182.9 559.7 180.8 560.6L180.8 560.6L184.4 566.9Q185.0 567.9 185.0 568.7L185.0 568.7Q185.0 569.8 184.2 570.5Q183.5 571.2 182.3 571.2L182.3 571.2Q181.4 571.2 180.8 570.8Q180.3 570.3 179.6 569.2L179.6 569.2L175.4 561.5L170.9 561.5L170.9 568.4Q170.9 569.7 170.2 570.4ZM170.9 549.6L170.9 557.7L175.5 557.7Q177.5 557.7 178.6 556.6Q179.7 555.5 179.7 553.6L179.7 553.6Q179.7 551.8 178.5 550.7Q177.4 549.6 175.4 549.6L175.4 549.6L170.9 549.6ZM198.1 562.7L190.8 562.7Q189.7 562.7 189.1 562.1Q188.4 561.5 188.4 560.5Q188.4 559.4 189.1 558.8Q189.7 558.2 190.8 558.2L190.8 558.2L198.1 558.2Q199.2 558.2 199.9 558.8Q200.6 559.4 200.6 560.5Q200.6 561.5 199.9 562.1Q199.2 562.7 198.1 562.7L198.1 562.7ZM209.1 570.4Q208.4 571.2 207.2 571.2Q205.9 571.2 205.2 570.4Q204.5 569.7 204.5 568.4L204.5 568.4L204.5 548.2Q204.5 546.9 205.2 546.2Q205.9 545.4 207.2 545.4L207.2 545.4L214.9 545.4Q219.3 545.4 221.7 547.6Q224.1 549.7 224.1 553.5L224.1 553.5Q224.1 555.9 223.0 557.8Q221.8 559.7 219.7 560.6L219.7 560.6L223.4 566.9Q224.0 567.9 224.0 568.7L224.0 568.7Q224.0 569.8 223.2 570.5Q222.4 571.2 221.3 571.2L221.3 571.2Q220.3 571.2 219.8 570.8Q219.2 570.3 218.6 569.2L218.6 569.2L214.4 561.5L209.8 561.5L209.8 568.4Q209.8 569.7 209.1 570.4ZM209.8 549.6L209.8 557.7L214.4 557.7Q216.4 557.7 217.5 556.6Q218.6 555.5 218.6 553.6L218.6 553.6Q218.6 551.8 217.5 550.7Q216.3 549.6 214.4 549.6L214.4 549.6L209.8 549.6ZM229.3 571.1L229.3 571.1Q228.0 571.1 227.3 570.5Q226.6 569.8 226.6 568.6L226.6 568.6Q226.6 567.9 226.9 566.9L226.9 566.9L233.9 548.1Q234.4 546.5 235.4 545.8Q236.3 545.1 237.8 545.1L237.8 545.1Q239.4 545.1 240.4 545.8Q241.3 546.5 241.9 548.1L241.9 548.1L248.9 566.9Q249.2 567.9 249.2 568.6L249.2 568.6Q249.2 569.7 248.5 570.4Q247.7 571.1 246.5 571.1L246.5 571.1Q245.4 571.1 244.8 570.6Q244.1 570.0 243.8 568.8L243.8 568.8L242.4 564.8L233.3 564.8L232.0 568.7Q231.6 570.0 231.0 570.6Q230.3 571.1 229.3 571.1ZM237.7 550.3L234.5 560.7L241.2 560.7L237.9 550.3L237.7 550.3ZM262.1 570.8L255.1 570.8Q253.8 570.8 253.1 570.1Q252.4 569.3 252.4 568.0L252.4 568.0L252.4 548.2Q252.4 546.9 253.1 546.2Q253.8 545.4 255.1 545.4L255.1 545.4L262.1 545.4Q267.8 545.4 271.0 548.7Q274.2 552.0 274.2 558.0L274.2 558.0Q274.2 564.0 271.0 567.4Q267.8 570.8 262.1 570.8L262.1 570.8ZM257.7 549.8L257.7 566.4L261.5 566.4Q265.0 566.4 266.9 564.3Q268.8 562.1 268.8 558.0L268.8 558.0Q268.8 554.1 266.9 551.9Q265.0 549.8 261.5 549.8L261.5 549.8L257.7 549.8Z " clip-path="url(#satori_cp-id-0)" mask="url(#satori_om-id-0)"/><mask id="satori_om-id-0-1-0-1-1"><rect x="138" y="576" width="138" height="24" fill="#fff" mask="url(#satori_om-id-0)"/></mask><path fill="#334155" d="M145.0 595.3L145.0 595.3Q142.4 595.3 140.8 593.8Q139.2 592.4 139.2 590.1L139.2 590.1L139.2 582.1Q139.2 581.5 139.6 581.1Q139.9 580.8 140.5 580.8L140.5 580.8Q141.1 580.8 141.4 581.1Q141.8 581.5 141.8 582.1L141.8 582.1L141.8 589.8Q141.8 591.3 142.6 592.2Q143.5 593.1 145.0 593.1Q146.6 593.1 147.4 592.2Q148.3 591.3 148.3 589.8L148.3 589.8L148.3 582.1Q148.3 581.5 148.6 581.1Q149.0 580.8 149.6 580.8L149.6 580.8Q150.2 580.8 150.5 581.1Q150.8 581.5 150.8 582.1L150.8 582.1L150.8 590.1Q150.8 592.4 149.3 593.8Q147.7 595.3 145.0 595.3ZM155.5 594.9Q155.2 595.2 154.6 595.2Q154.0 595.2 153.6 594.9Q153.3 594.5 153.3 593.9L153.3 593.9L153.3 582.3Q153.3 581.6 153.6 581.3Q154.0 581.0 154.6 581.0L154.6 581.0L158.9 581.0Q161.2 581.0 162.5 582.1Q163.8 583.3 163.8 585.3L163.8 585.3Q163.8 586.7 163.1 587.8Q162.4 588.8 161.2 589.3L161.2 589.3L163.4 593.2Q163.7 593.7 163.7 594.1L163.7 594.1Q163.7 594.6 163.4 594.9Q163.0 595.2 162.4 595.2L162.4 595.2Q162.0 595.2 161.7 595.0Q161.5 594.8 161.2 594.3L161.2 594.3L158.7 589.7L155.8 589.7L155.8 593.9Q155.8 594.5 155.5 594.9ZM155.8 583.0L155.8 587.8L158.7 587.8Q159.9 587.8 160.5 587.2Q161.2 586.5 161.2 585.4L161.2 585.4Q161.2 584.3 160.5 583.6Q159.8 583.0 158.6 583.0L158.6 583.0L155.8 583.0ZM171.1 590.4L166.7 590.4Q166.2 590.4 165.9 590.1Q165.6 589.8 165.6 589.3Q165.6 588.8 165.9 588.5Q166.2 588.2 166.7 588.2L166.7 588.2L171.1 588.2Q171.7 588.2 172.0 588.5Q172.3 588.8 172.3 589.3Q172.3 589.8 172.0 590.1Q171.7 590.4 171.1 590.4L171.1 590.4ZM176.7 594.9Q176.4 595.2 175.8 595.2Q175.2 595.2 174.9 594.9Q174.6 594.5 174.6 593.9L174.6 593.9L174.6 582.3Q174.6 581.6 174.9 581.3Q175.2 581.0 175.8 581.0L175.8 581.0L180.1 581.0Q182.4 581.0 183.7 582.1Q185.0 583.3 185.0 585.3L185.0 585.3Q185.0 586.7 184.3 587.8Q183.7 588.8 182.5 589.3L182.5 589.3L184.7 593.2Q185.0 593.7 185.0 594.1L185.0 594.1Q185.0 594.6 184.6 594.9Q184.2 595.2 183.7 595.2L183.7 595.2Q183.2 595.2 183.0 595.0Q182.7 594.8 182.4 594.3L182.4 594.3L179.9 589.7L177.1 589.7L177.1 593.9Q177.1 594.5 176.7 594.9ZM177.1 583.0L177.1 587.8L179.9 587.8Q181.1 587.8 181.8 587.2Q182.4 586.5 182.4 585.4L182.4 585.4Q182.4 584.3 181.8 583.6Q181.1 583.0 179.9 583.0L179.9 583.0L177.1 583.0ZM187.7 595.2L187.7 595.2Q187.1 595.2 186.7 594.9Q186.4 594.6 186.4 594.0L186.4 594.0Q186.4 593.7 186.6 593.3L186.6 593.3L190.7 582.2Q190.9 581.4 191.4 581.1Q191.8 580.8 192.5 580.8L192.5 580.8Q193.2 580.8 193.6 581.1Q194.1 581.4 194.3 582.1L194.3 582.1L198.4 593.3Q198.6 593.7 198.6 594.0L198.6 594.0Q198.6 594.6 198.2 594.9Q197.9 595.2 197.3 595.2L197.3 595.2Q196.8 595.2 196.5 595.0Q196.2 594.7 196.0 594.1L196.0 594.1L195.1 591.4L189.9 591.4L188.9 594.1Q188.8 594.7 188.5 595.0Q188.2 595.2 187.7 595.2ZM192.4 583.4L190.5 589.5L194.5 589.5L192.5 583.4L192.4 583.4ZM205.6 595.0L201.7 595.0Q201.1 595.0 200.8 594.7Q200.4 594.3 200.4 593.7L200.4 593.7L200.4 582.3Q200.4 581.6 200.8 581.3Q201.1 581.0 201.7 581.0L201.7 581.0L205.6 581.0Q208.7 581.0 210.5 582.8Q212.3 584.6 212.3 588.0L212.3 588.0Q212.3 591.3 210.5 593.2Q208.7 595.0 205.6 595.0L205.6 595.0ZM202.9 583.1L202.9 592.9L205.3 592.9Q207.4 592.9 208.6 591.6Q209.7 590.4 209.7 588.0L209.7 588.0Q209.7 585.6 208.6 584.3Q207.4 583.1 205.3 583.1L205.3 583.1L202.9 583.1Z M227.0 595.0L219.2 595.0Q218.7 595.0 218.3 594.8Q218.0 594.5 218.0 594.0L218.0 594.0Q218.0 593.6 218.2 593.3Q218.3 593.1 218.7 592.7L218.7 592.7L223.0 588.4Q224.4 587.1 224.8 586.4Q225.3 585.7 225.3 584.9L225.3 584.9Q225.3 583.9 224.6 583.3Q224.0 582.7 223.0 582.7L223.0 582.7Q221.1 582.7 220.3 584.6L220.3 584.6Q220.1 585.0 219.9 585.2Q219.6 585.4 219.2 585.4L219.2 585.4Q218.7 585.4 218.4 585.1Q218.1 584.8 218.1 584.3L218.1 584.3Q218.1 584.1 218.2 583.8L218.2 583.8Q218.3 583.2 218.7 582.7Q219.1 582.1 219.7 581.7Q220.3 581.2 221.1 580.9Q222.0 580.7 223.0 580.7L223.0 580.7Q225.1 580.7 226.4 581.8Q227.8 582.9 227.8 584.7L227.8 584.7Q227.8 585.9 227.1 586.9Q226.4 588.0 224.6 589.8L224.6 589.8L221.4 592.9L221.4 593.0L227.0 593.0Q227.5 593.0 227.8 593.3Q228.1 593.5 228.1 594.0Q228.1 594.5 227.8 594.8Q227.5 595.0 227.0 595.0L227.0 595.0ZM235.2 595.3L235.2 595.3Q232.6 595.3 231.1 593.4Q229.7 591.4 229.7 588.0L229.7 588.0Q229.7 584.6 231.1 582.6Q232.6 580.7 235.2 580.7L235.2 580.7Q237.8 580.7 239.3 582.6Q240.7 584.6 240.7 588.0L240.7 588.0Q240.7 591.4 239.3 593.3Q237.8 595.3 235.2 595.3ZM235.2 593.3L235.2 593.3Q236.6 593.3 237.4 591.9Q238.2 590.5 238.2 588.0L238.2 588.0Q238.2 585.5 237.4 584.1Q236.6 582.7 235.2 582.7Q233.8 582.7 233.0 584.1Q232.2 585.5 232.2 588.0L232.2 588.0Q232.2 590.5 233.0 591.9Q233.8 593.3 235.2 593.3ZM251.6 595.0L243.8 595.0Q243.2 595.0 242.9 594.8Q242.6 594.5 242.6 594.0L242.6 594.0Q242.6 593.6 242.7 593.3Q242.9 593.1 243.3 592.7L243.3 592.7L247.6 588.4Q248.9 587.1 249.4 586.4Q249.8 585.7 249.8 584.9L249.8 584.9Q249.8 583.9 249.2 583.3Q248.5 582.7 247.5 582.7L247.5 582.7Q245.6 582.7 244.9 584.6L244.9 584.6Q244.7 585.0 244.4 585.2Q244.2 585.4 243.7 585.4L243.7 585.4Q243.2 585.4 242.9 585.1Q242.6 584.8 242.6 584.3L242.6 584.3Q242.6 584.1 242.7 583.8L242.7 583.8Q242.9 583.2 243.2 582.7Q243.6 582.1 244.2 581.7Q244.8 581.2 245.7 580.9Q246.5 580.7 247.5 580.7L247.5 580.7Q249.6 580.7 251.0 581.8Q252.3 582.9 252.3 584.7L252.3 584.7Q252.3 585.9 251.6 586.9Q251.0 588.0 249.2 589.8L249.2 589.8L245.9 592.9L245.9 593.0L251.6 593.0Q252.1 593.0 252.4 593.3Q252.6 593.5 252.6 594.0Q252.6 594.5 252.4 594.8Q252.1 595.0 251.6 595.0L251.6 595.0ZM259.6 595.3L259.6 595.3Q258.0 595.3 256.7 594.6Q255.4 593.9 254.9 592.8L254.9 592.8Q254.6 592.3 254.6 591.8L254.6 591.8Q254.6 591.3 254.9 591.0Q255.2 590.7 255.7 590.7L255.7 590.7Q256.1 590.7 256.4 590.9Q256.6 591.1 256.8 591.5L256.8 591.5Q257.2 592.3 257.9 592.8Q258.6 593.3 259.6 593.3L259.6 593.3Q260.9 593.3 261.7 592.5Q262.5 591.7 262.5 590.4L262.5 590.4Q262.5 589.2 261.7 588.4Q260.9 587.7 259.6 587.7L259.6 587.7Q258.3 587.7 257.4 588.5L257.4 588.5Q257.0 589.0 256.7 589.1Q256.4 589.3 256.0 589.3L256.0 589.3Q255.4 589.3 255.1 588.9Q254.8 588.5 254.8 588.0L254.8 588.0Q254.8 587.9 254.8 587.8L254.8 587.8L255.3 582.5Q255.4 581.7 255.8 581.3Q256.2 581.0 257.0 581.0L257.0 581.0L263.1 581.0Q263.6 581.0 263.9 581.2Q264.2 581.5 264.2 582.0L264.2 582.0Q264.2 582.4 263.9 582.7Q263.6 583.0 263.1 583.0L263.1 583.0L257.4 583.0L257.1 587.2L257.1 587.2Q257.6 586.5 258.4 586.1Q259.2 585.8 260.3 585.8L260.3 585.8Q262.3 585.8 263.6 587.0Q264.9 588.3 264.9 590.4L264.9 590.4Q264.9 592.6 263.4 593.9Q261.9 595.3 259.6 595.3Z " clip-path="url(#satori_cp-id-0)" mask="url(#satori_om-id-0)"/><mask id="satori_om-id-0-1-1"><rect x="1000" y="557" width="152" height="26" fill="#fff" mask="url(#satori_om-id-0)"/></mask><path fill="#334155" d="M1003.4 577.8Q1003.1 578.2 1002.5 578.2Q1001.9 578.2 1001.5 577.8Q1001.2 577.5 1001.2 576.8L1001.2 576.8L1001.2 563.6Q1001.2 563.0 1001.5 562.6Q1001.9 562.2 1002.5 562.2Q1003.1 562.2 1003.5 562.6Q1003.8 563.0 1003.8 563.6L1003.8 563.6L1003.8 568.5L1003.9 568.5Q1004.4 567.5 1005.3 566.9Q1006.3 566.4 1007.5 566.4L1007.5 566.4Q1009.6 566.4 1010.9 568.0Q1012.2 569.5 1012.2 572.3L1012.2 572.3Q1012.2 575.0 1010.9 576.6Q1009.6 578.1 1007.5 578.1L1007.5 578.1Q1006.2 578.1 1005.3 577.6Q1004.4 577.0 1003.8 576.0L1003.8 576.0L1003.8 576.0L1003.8 576.8Q1003.8 577.5 1003.4 577.8ZM1006.6 575.9L1006.6 575.9Q1007.9 575.9 1008.7 574.9Q1009.4 574.0 1009.4 572.3Q1009.4 570.6 1008.7 569.6Q1007.9 568.6 1006.6 568.6L1006.6 568.6Q1005.4 568.6 1004.6 569.6Q1003.8 570.6 1003.8 572.3L1003.8 572.3Q1003.8 573.9 1004.6 574.9Q1005.4 575.9 1006.6 575.9ZM1015.5 582.2L1015.5 582.2Q1014.6 582.2 1014.1 581.9Q1013.7 581.5 1013.7 580.9L1013.7 580.9Q1013.7 580.5 1013.9 580.3Q1014.2 580.0 1014.7 580.0L1014.7 580.0Q1014.8 580.0 1015.0 580.0Q1015.1 580.0 1015.3 580.0L1015.3 580.0Q1016.3 580.0 1016.9 578.7L1016.9 578.7L1017.1 578.2L1013.3 568.3Q1013.2 567.9 1013.2 567.6L1013.2 567.6Q1013.2 567.0 1013.6 566.7Q1014.0 566.3 1014.6 566.3L1014.6 566.3Q1015.1 566.3 1015.4 566.6Q1015.7 566.8 1015.8 567.4L1015.8 567.4L1018.6 575.7L1018.6 575.7L1021.3 567.4Q1021.5 566.8 1021.8 566.6Q1022.1 566.3 1022.6 566.3L1022.6 566.3Q1023.2 566.3 1023.5 566.7Q1023.9 567.0 1023.9 567.5L1023.9 567.5Q1023.9 567.9 1023.8 568.3L1023.8 568.3L1020.0 578.4Q1019.2 580.5 1018.2 581.3Q1017.2 582.2 1015.5 582.2Z M1035.8 578.1L1035.8 578.1Q1035.1 578.1 1034.8 577.8Q1034.4 577.4 1034.4 576.7L1034.4 576.7L1034.4 571.8L1029.6 564.5Q1029.3 564.0 1029.3 563.5L1029.3 563.5Q1029.3 563.0 1029.7 562.6Q1030.1 562.3 1030.7 562.3L1030.7 562.3Q1031.1 562.3 1031.4 562.4Q1031.7 562.6 1031.9 563.1L1031.9 563.1L1035.8 569.2L1035.8 569.2L1039.7 563.1Q1040.0 562.6 1040.2 562.4Q1040.5 562.3 1040.9 562.3L1040.9 562.3Q1041.5 562.3 1041.9 562.6Q1042.3 563.0 1042.3 563.5L1042.3 563.5Q1042.3 564.0 1042.0 564.5L1042.0 564.5L1037.2 571.8L1037.2 576.7Q1037.2 577.4 1036.8 577.8Q1036.4 578.1 1035.8 578.1ZM1046.4 564.5Q1046.0 565.0 1045.4 565.0Q1044.8 565.0 1044.3 564.5Q1043.9 564.1 1043.9 563.5L1043.9 563.5Q1043.9 562.9 1044.3 562.5Q1044.8 562.1 1045.4 562.1L1045.4 562.1Q1046.0 562.1 1046.4 562.5Q1046.9 562.9 1046.9 563.5L1046.9 563.5Q1046.9 564.1 1046.4 564.5ZM1046.4 577.8Q1046.0 578.2 1045.4 578.2Q1044.8 578.2 1044.4 577.8Q1044.1 577.4 1044.1 576.8L1044.1 576.8L1044.1 567.7Q1044.1 567.1 1044.4 566.7Q1044.8 566.3 1045.4 566.3Q1046.0 566.3 1046.4 566.7Q1046.7 567.1 1046.7 567.8L1046.7 567.8L1046.7 576.8Q1046.7 577.4 1046.4 577.8ZM1051.3 577.8Q1050.9 578.2 1050.3 578.2Q1049.7 578.2 1049.3 577.8Q1049.0 577.4 1049.0 576.8L1049.0 576.8L1049.0 567.7Q1049.0 567.1 1049.3 566.7Q1049.7 566.3 1050.3 566.3Q1050.8 566.3 1051.2 566.7Q1051.6 567.1 1051.6 567.7L1051.6 567.7L1051.6 568.5L1051.6 568.5Q1052.6 566.3 1055.2 566.3L1055.2 566.3Q1057.0 566.3 1058.1 567.5Q1059.1 568.6 1059.1 570.6L1059.1 570.6L1059.1 576.8Q1059.1 577.4 1058.7 577.8Q1058.4 578.2 1057.8 578.2Q1057.2 578.2 1056.8 577.8Q1056.4 577.4 1056.4 576.8L1056.4 576.8L1056.4 571.1Q1056.4 569.9 1055.9 569.3Q1055.3 568.6 1054.2 568.6L1054.2 568.6Q1053.0 568.6 1052.3 569.4Q1051.6 570.1 1051.6 571.4L1051.6 571.4L1051.6 576.8Q1051.6 577.4 1051.3 577.8ZM1066.2 582.2L1066.2 582.2Q1064.6 582.2 1063.3 581.7Q1062.1 581.1 1061.5 580.2L1061.5 580.2Q1061.3 579.8 1061.3 579.4L1061.3 579.4Q1061.3 578.9 1061.6 578.6Q1061.9 578.3 1062.4 578.3L1062.4 578.3Q1062.9 578.3 1063.4 578.8L1063.4 578.8Q1064.1 579.5 1064.7 579.8Q1065.4 580.1 1066.2 580.1L1066.2 580.1Q1067.5 580.1 1068.3 579.4Q1069.1 578.7 1069.1 577.6L1069.1 577.6L1069.1 575.8L1069.0 575.8Q1068.6 576.7 1067.6 577.3Q1066.7 577.8 1065.5 577.8L1065.5 577.8Q1063.3 577.8 1062.0 576.3Q1060.8 574.7 1060.8 572.1L1060.8 572.1Q1060.8 569.4 1062.0 567.9Q1063.3 566.4 1065.5 566.4L1065.5 566.4Q1066.7 566.4 1067.6 566.9Q1068.5 567.5 1069.1 568.5L1069.1 568.5L1069.1 568.5L1069.1 567.7Q1069.1 567.1 1069.5 566.7Q1069.8 566.3 1070.4 566.3Q1071.0 566.3 1071.4 566.7Q1071.8 567.1 1071.8 567.7L1071.8 567.7L1071.8 577.6Q1071.8 579.7 1070.3 581.0Q1068.8 582.2 1066.2 582.2ZM1066.3 575.7L1066.3 575.7Q1067.6 575.7 1068.3 574.8Q1069.1 573.8 1069.1 572.1L1069.1 572.1Q1069.1 570.5 1068.3 569.5Q1067.6 568.5 1066.3 568.5L1066.3 568.5Q1065.0 568.5 1064.3 569.5Q1063.5 570.5 1063.5 572.1L1063.5 572.1Q1063.5 573.8 1064.3 574.8Q1065.0 575.7 1066.3 575.7ZM1075.8 575.2L1075.8 575.2Q1076.4 575.2 1076.7 575.5Q1077.0 575.8 1077.0 576.3L1077.0 576.3Q1077.0 576.6 1076.9 576.9L1076.9 576.9L1076.0 580.6Q1075.9 581.1 1075.7 581.3Q1075.4 581.5 1074.9 581.5Q1074.5 581.5 1074.2 581.2Q1073.9 581.0 1073.9 580.5L1073.9 580.5Q1073.9 580.4 1073.9 580.3L1073.9 580.3L1074.6 576.3Q1074.7 575.2 1075.8 575.2Z M1093.3 577.9L1085.9 577.9Q1085.3 577.9 1084.9 577.6Q1084.5 577.2 1084.5 576.5L1084.5 576.5L1084.5 563.7Q1084.5 563.0 1084.9 562.6Q1085.3 562.3 1085.9 562.3L1085.9 562.3Q1086.6 562.3 1086.9 562.6Q1087.3 563.0 1087.3 563.7L1087.3 563.7L1087.3 575.6L1093.3 575.6Q1093.8 575.6 1094.2 575.9Q1094.5 576.2 1094.5 576.8Q1094.5 577.3 1094.2 577.6Q1093.8 577.9 1093.3 577.9L1093.3 577.9ZM1097.9 578.1L1097.9 578.1Q1097.3 578.1 1096.8 577.6Q1096.4 577.2 1096.4 576.5L1096.4 576.5Q1096.4 575.9 1096.8 575.4Q1097.3 575.0 1097.9 575.0L1097.9 575.0Q1098.6 575.0 1099.0 575.4Q1099.5 575.9 1099.5 576.5L1099.5 576.5Q1099.5 577.2 1099.0 577.6Q1098.6 578.1 1097.9 578.1Z M1111.5 578.2L1111.5 578.2Q1108.8 578.2 1107.4 576.6Q1105.9 575.1 1105.9 572.3L1105.9 572.3Q1105.9 569.6 1107.4 567.9Q1108.8 566.3 1111.3 566.3L1111.3 566.3Q1113.6 566.3 1115.1 567.8Q1116.5 569.3 1116.5 571.6L1116.5 571.6Q1116.5 572.2 1116.2 572.6Q1115.9 572.9 1115.3 572.9L1115.3 572.9L1108.6 572.9L1108.6 573.0Q1108.6 574.4 1109.4 575.3Q1110.1 576.1 1111.4 576.1L1111.4 576.1Q1112.3 576.1 1113.0 575.8Q1113.6 575.4 1114.3 574.6L1114.3 574.6Q1114.7 574.2 1115.2 574.2L1115.2 574.2Q1115.6 574.2 1115.9 574.4Q1116.3 574.7 1116.3 575.2L1116.3 575.2Q1116.3 575.5 1116.1 575.9L1116.1 575.9Q1115.5 577.0 1114.3 577.6Q1113.1 578.2 1111.5 578.2ZM1108.6 571.1L1108.6 571.1L1113.9 571.1Q1113.9 569.9 1113.2 569.1Q1112.4 568.4 1111.3 568.4Q1110.2 568.4 1109.4 569.2Q1108.7 569.9 1108.6 571.1ZM1119.0 575.1L1119.0 575.1L1119.0 568.6L1118.3 568.6Q1117.8 568.6 1117.5 568.3Q1117.2 568.1 1117.2 567.6L1117.2 567.6Q1117.2 567.1 1117.5 566.8Q1117.8 566.6 1118.3 566.6L1118.3 566.6L1119.0 566.6L1119.0 565.0Q1119.0 564.4 1119.4 564.0Q1119.7 563.6 1120.3 563.6L1120.3 563.6Q1121.0 563.6 1121.3 564.0Q1121.7 564.4 1121.7 565.0L1121.7 565.0L1121.7 566.6L1122.9 566.6Q1123.4 566.6 1123.7 566.8Q1124.0 567.1 1124.0 567.6L1124.0 567.6Q1124.0 568.1 1123.7 568.3Q1123.4 568.6 1122.9 568.6L1122.9 568.6L1121.7 568.6L1121.7 574.6Q1121.7 575.2 1121.9 575.5Q1122.2 575.8 1122.8 575.9L1122.8 575.9L1122.9 575.9Q1124.0 576.0 1124.0 576.9L1124.0 576.9Q1124.0 577.5 1123.5 577.8Q1123.0 578.1 1122.1 578.1L1122.1 578.1L1122.0 578.1Q1119.0 578.1 1119.0 575.1Z M1133.4 578.1L1133.4 578.1Q1131.7 578.1 1130.7 577.2Q1129.6 576.2 1129.6 574.7L1129.6 574.7Q1129.6 573.2 1130.7 572.3Q1131.8 571.4 1133.9 571.3L1133.9 571.3L1136.9 571.1L1136.9 570.3Q1136.9 569.4 1136.4 568.9Q1135.8 568.4 1134.8 568.4L1134.8 568.4Q1134.0 568.4 1133.5 568.7Q1132.9 569.0 1132.4 569.8L1132.4 569.8Q1132.0 570.3 1131.3 570.3L1131.3 570.3Q1130.8 570.3 1130.5 570.0Q1130.2 569.7 1130.2 569.2L1130.2 569.2Q1130.2 568.9 1130.4 568.5L1130.4 568.5Q1130.8 567.5 1132.0 566.9Q1133.3 566.3 1134.9 566.3L1134.9 566.3Q1137.0 566.3 1138.3 567.4Q1139.6 568.4 1139.6 570.1L1139.6 570.1L1139.6 576.8Q1139.6 577.5 1139.2 577.8Q1138.9 578.2 1138.3 578.2L1138.3 578.2Q1137.7 578.2 1137.4 577.8Q1137.0 577.5 1137.0 576.9L1137.0 576.9L1137.0 576.1L1136.9 576.1Q1136.5 577.0 1135.5 577.6Q1134.5 578.1 1133.4 578.1ZM1134.2 576.1L1134.2 576.1Q1135.3 576.1 1136.1 575.4Q1136.9 574.7 1136.9 573.7L1136.9 573.7L1136.9 572.9L1134.3 573.0Q1133.3 573.1 1132.8 573.5Q1132.3 573.9 1132.3 574.6L1132.3 574.6Q1132.3 575.3 1132.8 575.7Q1133.3 576.1 1134.2 576.1ZM1144.1 577.8Q1143.7 578.2 1143.1 578.2Q1142.5 578.2 1142.2 577.8Q1141.8 577.4 1141.8 576.8L1141.8 576.8L1141.8 563.6Q1141.8 563.0 1142.2 562.6Q1142.5 562.2 1143.1 562.2Q1143.7 562.2 1144.1 562.6Q1144.5 563.0 1144.5 563.6L1144.5 563.6L1144.5 576.8Q1144.5 577.4 1144.1 577.8ZM1148.6 578.1L1148.6 578.1Q1148.0 578.1 1147.5 577.6Q1147.1 577.2 1147.1 576.5L1147.1 576.5Q1147.1 575.9 1147.5 575.4Q1148.0 575.0 1148.6 575.0L1148.6 575.0Q1149.3 575.0 1149.7 575.4Q1150.2 575.9 1150.2 576.5L1150.2 576.5Q1150.2 577.2 1149.7 577.6Q1149.3 578.1 1148.6 578.1Z " clip-path="url(#satori_cp-id-0)" mask="url(#satori_om-id-0)"/></svg>