<svg width="1200" height="630" viewBox="0 0 1200 630" xmlns="http://www.w3.org/2000/svg"><mask id="satori_om-id"><rect x="0" y="0" width="1200" height="630" fill="#fff"/></mask><defs><pattern id="satori_pattern_id-0_0" x="0" y="0" width="1" height="1" patternUnits="objectBoundingBox"><linearGradient id="satori_biid-0_0" x1="-0.09774620284174435" y1="0.18618324350808482" x2="1.0977462028417444" y2="0.8138167564919152" spreadMethod="pad"><stop offset="0%" stop-color="#f8fafc"/><stop offset="50%" stop-color="#eef2ff"/><stop offset="100%" stop-color="#ffffff"/></linearGradient><rect x="0" y="0" width="1200" height="630" fill="url(#satori_biid-0_0)"/></pattern></defs><clipPath id="satori_cp-id-0"><rect x="0" y="0" width="1200" height="630"/></clipPath><mask id="satori_om-id-0"><rect x="0" y="0" width="1200" height="630" fill="#fff"/></mask><rect x="0" y="0" width="1200" height="630" fill="url(#satori_pattern_id-0_0)"/><mask id="satori_om-id-0-0"><rect x="0" y="0" width="1200" height="509" fill="#fff" mask="url(#satori_om-id-0)"/></mask><mask id="satori_om-id-0-0-0"><rect x="72" y="72" width="1056" height="365" fill="#fff" mask="url(#satori_om-id-0)"/></mask><mask id="satori_om-id-0-0-0-0"><rect x="72" y="113" width="1056" height="38" fill="#fff" mask="url(#satori_om-id-0)"/></mask><path fill="#64748b" d="M77.1 143.2Q76.6 143.7 75.8 143.7Q75.0 143.7 74.5 143.2Q74.1 142.8 74.1 141.9L74.1 141.9L74.1 122.7Q74.1 121.9 74.5 121.4Q75.0 120.9 75.8 120.9L75.8 120.9L86.8 120.9Q87.5 120.9 88.0 121.3Q88.4 121.8 88.4 122.4Q88.4 123.1 88.0 123.5Q87.5 124.0 86.8 124.0L86.8 124.0L77.6 124.0L77.6 131.1L85.9 131.1Q86.6 131.1 87.1 131.5Q87.5 131.9 87.5 132.5Q87.5 133.2 87.1 133.6Q86.6 134.0 85.9 134.0L85.9 134.0L77.6 134.0L77.6 141.9Q77.6 142.8 77.1 143.2ZM92.5 143.8L92.5 143.8Q91.7 143.8 91.3 143.3Q90.8 142.8 90.8 142.0L90.8 142.0L90.8 128.4Q90.8 127.7 91.2 127.2Q91.7 126.7 92.4 126.7L92.4 126.7Q93.1 126.7 93.6 127.2Q94 127.7 94 128.4L94 128.4L94 129.8L94.1 129.8Q94.4 128.5 95.4 127.6Q96.4 126.8 97.7 126.8L97.7 126.8Q98.6 126.8 99.0 127.2L99.0 127.2Q99.5 127.5 99.5 128.4L99.5 128.4Q99.5 129.1 99.0 129.5L99.0 129.5Q98.5 130.0 97.4 130.0L97.4 130.0Q95.8 130 95.0 131.0Q94.2 132.0 94.2 133.6L94.2 133.6L94.2 142.0Q94.2 142.8 93.7 143.3Q93.2 143.8 92.5 143.8ZM104.5 124.0Q103.9 124.5 103.1 124.5Q102.3 124.5 101.7 124.0Q101.1 123.4 101.1 122.6L101.1 122.6Q101.1 121.8 101.7 121.2Q102.3 120.7 103.1 120.7L103.1 120.7Q103.9 120.7 104.5 121.2Q105.1 121.8 105.1 122.6L105.1 122.6Q105.1 123.4 104.5 124.0ZM104.3 143.3Q103.9 143.8 103.1 143.8Q102.3 143.8 101.9 143.3Q101.4 142.8 101.4 142.0L101.4 142.0L101.4 128.5Q101.4 127.7 101.9 127.2Q102.3 126.7 103.1 126.7Q103.9 126.7 104.3 127.2Q104.8 127.7 104.8 128.5L104.8 128.5L104.8 142.0Q104.8 142.8 104.3 143.3ZM114.4 143.8L114.4 143.8Q111.3 143.8 109.4 141.4Q107.5 139.1 107.5 135.3Q107.5 131.4 109.4 129.1Q111.3 126.8 114.4 126.8L114.4 126.8Q116.1 126.8 117.5 127.6Q118.8 128.4 119.5 129.8L119.5 129.8L119.6 129.8L119.6 122.4Q119.6 121.6 120.1 121.1Q120.5 120.6 121.3 120.6L121.3 120.6Q122.0 120.6 122.5 121.1Q123.0 121.6 123.0 122.4L123.0 122.4L123.0 142.1Q123.0 142.9 122.5 143.3Q122.1 143.8 121.3 143.8L121.3 143.8Q120.6 143.8 120.1 143.3Q119.6 142.9 119.6 142.1L119.6 142.1L119.6 140.5L119.5 140.5Q118.9 142.0 117.6 142.9Q116.3 143.8 114.4 143.8ZM115.3 140.9L115.3 140.9Q117.3 140.9 118.4 139.4Q119.6 137.8 119.6 135.3L119.6 135.3Q119.6 132.7 118.4 131.2Q117.3 129.6 115.3 129.6L115.3 129.6Q113.3 129.6 112.1 131.1Q111.0 132.7 111.0 135.3L111.0 135.3Q111.0 137.9 112.1 139.4Q113.3 140.9 115.3 140.9ZM131.3 143.8L131.3 143.8Q128.8 143.8 127.3 142.4Q125.8 141 125.8 138.8L125.8 138.8Q125.8 136.6 127.4 135.4Q129.0 134.1 131.9 133.9L131.9 133.9L136.4 133.7L136.4 132.4Q136.4 131.0 135.5 130.3Q134.6 129.5 133.1 129.5L133.1 129.5Q131.9 129.5 131.0 130.0Q130.2 130.5 129.5 131.6L129.5 131.6Q129.0 132.3 128.1 132.3L128.1 132.3Q127.4 132.3 127.0 131.9Q126.6 131.5 126.6 130.9L126.6 130.9Q126.6 130.3 126.9 129.8L126.9 129.8Q127.6 128.4 129.3 127.6Q131 126.7 133.2 126.7L133.2 126.7Q136.2 126.7 138.0 128.2Q139.8 129.7 139.8 132.1L139.8 132.1L139.8 142.1Q139.8 142.8 139.3 143.3Q138.8 143.8 138.1 143.8L138.1 143.8Q137.4 143.8 137.0 143.3Q136.5 142.9 136.5 142.2L136.5 142.2L136.5 140.8L136.4 140.8Q135.7 142.1 134.3 142.9Q132.9 143.8 131.3 143.8ZM132.2 141.1L132.2 141.1Q134.0 141.1 135.2 140.0Q136.4 138.9 136.4 137.3L136.4 137.3L136.4 136.0L132.3 136.3Q130.8 136.4 130.0 137.0Q129.2 137.6 129.2 138.7L129.2 138.7Q129.2 139.8 130 140.4Q130.8 141.1 132.2 141.1ZM145.0 149.6L145.0 149.6Q143.9 149.6 143.3 149.2Q142.6 148.8 142.6 148.0L142.6 148.0Q142.6 147.4 143.0 147.1Q143.3 146.8 143.9 146.8L143.9 146.8Q144.1 146.8 144.4 146.8Q144.6 146.8 144.8 146.8L144.8 146.8Q146.5 146.8 147.3 144.6L147.3 144.6L147.6 143.6L142.1 129.3Q141.9 128.7 141.9 128.3L141.9 128.3Q141.9 127.6 142.4 127.2Q142.9 126.7 143.7 126.7L143.7 126.7Q144.3 126.7 144.7 127.0Q145.1 127.3 145.3 128.0L145.3 128.0L149.5 140.4L149.5 140.4L153.7 128.0Q153.9 127.3 154.3 127.0Q154.7 126.7 155.3 126.7L155.3 126.7Q156.0 126.7 156.5 127.2Q157.0 127.6 157.0 128.3L157.0 128.3Q157.0 128.7 156.8 129.2L156.8 129.2L151.1 144.3Q150 147.3 148.7 148.4Q147.3 149.6 145.0 149.6ZM161.7 139.7L161.7 139.7Q162.5 139.7 162.9 140.0Q163.3 140.4 163.3 141.1L163.3 141.1Q163.3 141.5 163.2 142.0L163.2 142.0L161.8 147.3Q161.5 148.5 160.4 148.5L160.4 148.5Q159.8 148.5 159.4 148.1Q159.1 147.8 159.1 147.3L159.1 147.3Q159.1 147.1 159.1 146.9L159.1 146.9L160.1 141.1Q160.4 139.7 161.7 139.7Z M182.3 143.9L182.3 143.9Q178.6 143.9 176.2 142.1Q173.8 140.2 173.8 137.4L173.8 137.4Q173.8 135.2 175.2 133.7Q176.5 132.1 178.8 131.6L178.8 131.6L178.8 131.5Q176.9 131.0 175.7 129.6Q174.6 128.3 174.6 126.5L174.6 126.5Q174.6 123.9 176.8 122.2Q179.0 120.5 182.3 120.5L182.3 120.5Q185.7 120.5 187.9 122.2Q190.0 123.9 190.0 126.5L190.0 126.5Q190.0 128.3 188.9 129.6Q187.8 131.0 185.9 131.5L185.9 131.5L185.9 131.6Q188.1 132.1 189.5 133.7Q190.9 135.3 190.9 137.4L190.9 137.4Q190.9 139.3 189.8 140.8Q188.7 142.2 186.7 143.1Q184.8 143.9 182.3 143.9ZM182.3 130.3L182.3 130.3Q184.2 130.3 185.4 129.4Q186.6 128.4 186.6 126.8L186.6 126.8Q186.6 125.3 185.4 124.3Q184.2 123.3 182.3 123.3L182.3 123.3Q180.5 123.3 179.3 124.3Q178.1 125.3 178.1 126.8L178.1 126.8Q178.1 128.4 179.3 129.4Q180.5 130.3 182.3 130.3ZM178.8 140.0Q180.2 141.1 182.3 141.1Q184.5 141.1 185.9 140.0Q187.2 138.8 187.2 137.1L187.2 137.1Q187.2 135.4 185.9 134.3Q184.5 133.2 182.3 133.2Q180.2 133.2 178.8 134.3Q177.4 135.4 177.4 137.1L177.4 137.1Q177.4 138.8 178.8 140.0Z M203.7 143.2Q203.3 143.7 202.5 143.7Q201.7 143.7 201.2 143.2Q200.8 142.8 200.8 141.9L200.8 141.9L200.8 122.6Q200.8 121.7 201.3 121.2Q201.8 120.7 202.7 120.7L202.7 120.7Q203.3 120.7 203.7 120.9Q204.1 121.2 204.5 121.8L204.5 121.8L215.6 137.5L215.8 137.5L215.8 122.5Q215.8 121.6 216.2 121.1Q216.7 120.7 217.5 120.7L217.5 120.7Q218.3 120.7 218.7 121.1Q219.2 121.6 219.2 122.5L219.2 122.5L219.2 141.9Q219.2 142.8 218.7 143.2Q218.2 143.7 217.3 143.7L217.3 143.7Q216.7 143.7 216.3 143.5Q215.9 143.3 215.4 142.6L215.4 142.6L204.3 126.9L204.2 126.9L204.2 141.9Q204.2 142.8 203.7 143.2ZM235.7 141.5Q233.5 143.8 230.0 143.8Q226.4 143.8 224.3 141.5Q222.2 139.2 222.2 135.3L222.2 135.3Q222.2 131.3 224.3 129.0Q226.4 126.7 230.0 126.7Q233.5 126.7 235.7 129.0Q237.8 131.3 237.8 135.3L237.8 135.3Q237.8 139.2 235.7 141.5ZM230.0 141L230.0 141Q232 141 233.2 139.5Q234.3 138.0 234.3 135.3L234.3 135.3Q234.3 132.5 233.2 131.0Q232.0 129.5 230.0 129.5Q228.0 129.5 226.8 131.0Q225.6 132.5 225.6 135.3L225.6 135.3Q225.6 138.0 226.8 139.5Q228.0 141 230.0 141ZM246.7 143.8L246.7 143.8Q245.8 143.8 245.3 143.4Q244.8 143.0 244.4 142.0L244.4 142.0L239.5 129.2Q239.3 128.7 239.3 128.3L239.3 128.3Q239.3 127.6 239.8 127.2Q240.3 126.7 241.0 126.7L241.0 126.7Q242.2 126.7 242.6 128.1L242.6 128.1L246.7 140.2L246.8 140.2L250.8 128.0Q251.3 126.7 252.4 126.7L252.4 126.7Q253.1 126.7 253.6 127.2Q254.1 127.6 254.1 128.3L254.1 128.3Q254.1 128.7 253.9 129.2L253.9 129.2L249.0 142.0Q248.7 142.9 248.1 143.4Q247.6 143.8 246.7 143.8ZM263.5 143.8L263.5 143.8Q259.8 143.8 257.7 141.5Q255.6 139.3 255.6 135.3L255.6 135.3Q255.6 131.4 257.7 129.1Q259.8 126.7 263.3 126.7L263.3 126.7Q266.5 126.7 268.6 128.9Q270.6 131 270.6 134.4L270.6 134.4Q270.6 135.2 270.2 135.6Q269.8 136.1 269.0 136.1L269.0 136.1L259.0 136.1L259.0 136.2Q259.0 138.4 260.2 139.7Q261.4 141.0 263.4 141.0L263.4 141.0Q264.8 141.0 265.8 140.5Q266.7 140.0 267.7 138.7L267.7 138.7Q268.2 138.1 268.8 138.1L268.8 138.1Q269.5 138.1 269.9 138.5Q270.3 138.9 270.3 139.5L270.3 139.5Q270.3 139.8 270.0 140.4L270.0 140.4Q269.2 142 267.5 142.9Q265.8 143.8 263.5 143.8ZM259.0 133.7L259.0 133.7L267.3 133.7Q267.2 131.8 266.1 130.6Q265 129.5 263.2 129.5L263.2 129.5Q261.5 129.5 260.3 130.6Q259.2 131.8 259.0 133.7ZM276.2 143.3Q275.7 143.8 274.9 143.8Q274.2 143.8 273.7 143.3Q273.3 142.8 273.3 142.0L273.3 142.0L273.3 128.5Q273.3 127.7 273.7 127.2Q274.1 126.7 274.9 126.7Q275.6 126.7 276.0 127.2Q276.5 127.7 276.5 128.5L276.5 128.5L276.5 129.8L276.5 129.8Q277.1 128.4 278.3 127.6Q279.6 126.8 281.2 126.8L281.2 126.8Q282.9 126.8 284.1 127.6Q285.3 128.4 285.8 130.0L285.8 130.0L285.9 130.0Q286.5 128.5 287.9 127.6Q289.3 126.8 291.0 126.8L291.0 126.8Q293.5 126.8 294.9 128.2Q296.4 129.7 296.4 132.2L296.4 132.2L296.4 142.0Q296.4 142.8 295.9 143.3Q295.5 143.8 294.7 143.8Q293.9 143.8 293.5 143.3Q293 142.8 293 142.0L293 142.0L293 133.0Q293 131.4 292.2 130.5Q291.4 129.6 289.9 129.6Q288.4 129.6 287.4 130.6Q286.5 131.6 286.5 133.2L286.5 133.2L286.5 142.0Q286.5 142.8 286.0 143.3Q285.6 143.8 284.8 143.8Q284.0 143.8 283.6 143.3Q283.2 142.8 283.2 142.0L283.2 142.0L283.2 132.7Q283.2 131.3 282.3 130.5Q281.5 129.6 280.0 129.6L280.0 129.6Q278.5 129.6 277.6 130.7Q276.6 131.7 276.6 133.3L276.6 133.3L276.6 142.0Q276.6 142.8 276.2 143.3ZM301.4 143.8L301.4 143.8Q300.6 143.8 300.2 143.3Q299.8 142.9 299.8 142.1L299.8 142.1L299.8 122.4Q299.8 121.6 300.2 121.1Q300.7 120.6 301.5 120.6Q302.2 120.6 302.7 121.1Q303.1 121.6 303.1 122.4L303.1 122.4L303.1 129.8L303.2 129.8Q304.0 128.4 305.3 127.6Q306.7 126.8 308.4 126.8L308.4 126.8Q311.5 126.8 313.4 129.1Q315.3 131.4 315.3 135.3L315.3 135.3Q315.3 139.2 313.4 141.5Q311.5 143.8 308.4 143.8L308.4 143.8Q306.6 143.8 305.3 142.9Q303.9 142.1 303.1 140.7L303.1 140.7L303.0 140.7L303.0 142.1Q303.0 142.9 302.6 143.3Q302.1 143.8 301.4 143.8ZM307.5 140.9L307.5 140.9Q309.5 140.9 310.6 139.4Q311.8 137.9 311.8 135.3L311.8 135.3Q311.8 132.7 310.6 131.1Q309.5 129.6 307.5 129.6L307.5 129.6Q305.6 129.6 304.3 131.2Q303.1 132.7 303.1 135.3L303.1 135.3Q303.1 137.8 304.3 139.3Q305.6 140.9 307.5 140.9ZM325 143.8L325 143.8Q321.3 143.8 319.2 141.5Q317.1 139.3 317.1 135.3L317.1 135.3Q317.1 131.4 319.2 129.1Q321.3 126.7 324.8 126.7L324.8 126.7Q328.0 126.7 330.1 128.9Q332.2 131 332.2 134.4L332.2 134.4Q332.2 135.2 331.7 135.6Q331.3 136.1 330.5 136.1L330.5 136.1L320.5 136.1L320.5 136.2Q320.5 138.4 321.7 139.7Q322.9 141.0 324.9 141.0L324.9 141.0Q326.3 141.0 327.3 140.5Q328.2 140.0 329.2 138.7L329.2 138.7Q329.7 138.1 330.4 138.1L330.4 138.1Q331.0 138.1 331.4 138.5Q331.8 138.9 331.8 139.5L331.8 139.5Q331.8 139.8 331.5 140.4L331.5 140.4Q330.7 142 329.0 142.9Q327.3 143.8 325 143.8ZM320.6 133.7L320.6 133.7L328.8 133.7Q328.7 131.8 327.6 130.6Q326.5 129.5 324.8 129.5L324.8 129.5Q323 129.5 321.8 130.6Q320.7 131.8 320.6 133.7ZM336.5 143.8L336.5 143.8Q335.7 143.8 335.2 143.3Q334.8 142.8 334.8 142.0L334.8 142.0L334.8 128.4Q334.8 127.7 335.2 127.2Q335.7 126.7 336.4 126.7L336.4 126.7Q337.1 126.7 337.5 127.2Q338.0 127.7 338.0 128.4L338.0 128.4L338.0 129.8L338.0 129.8Q338.4 128.5 339.4 127.6Q340.4 126.8 341.7 126.8L341.7 126.8Q342.5 126.8 343.0 127.2L343.0 127.2Q343.4 127.5 343.4 128.4L343.4 128.4Q343.4 129.1 342.9 129.5L342.9 129.5Q342.4 130.0 341.4 130.0L341.4 130.0Q339.7 130 338.9 131.0Q338.1 132.0 338.1 133.6L338.1 133.6L338.1 142.0Q338.1 142.8 337.7 143.3Q337.2 143.8 336.5 143.8Z M365.9 143.5L353.4 143.5Q352.6 143.5 352.2 143.1Q351.8 142.7 351.8 142L351.8 142Q351.8 141.5 352.0 141.1Q352.2 140.8 352.7 140.2L352.7 140.2L359.8 133.0Q362.0 130.8 362.7 129.6Q363.4 128.4 363.4 127.1L363.4 127.1Q363.4 125.5 362.3 124.4Q361.2 123.4 359.5 123.4L359.5 123.4Q356.2 123.4 355.0 126.7L355.0 126.7Q354.7 127.3 354.4 127.6Q354.0 127.9 353.4 127.9L353.4 127.9Q352.7 127.9 352.3 127.5Q351.9 127.0 351.9 126.4L351.9 126.4Q351.9 126 352.0 125.6L352.0 125.6Q352.1 124.7 352.7 123.8Q353.3 122.9 354.2 122.2Q355.2 121.4 356.5 121.0Q357.9 120.5 359.5 120.5L359.5 120.5Q362.8 120.5 364.8 122.3Q366.9 124.1 366.9 126.9L366.9 126.9Q366.9 128.8 365.8 130.5Q364.8 132.1 361.9 135.0L361.9 135.0L356.5 140.4L356.5 140.5L365.9 140.5Q366.6 140.5 367 140.9Q367.4 141.3 367.4 142L367.4 142Q367.4 142.7 367 143.1Q366.6 143.5 365.9 143.5L365.9 143.5ZM384.9 140.7Q382.7 143.9 378.6 143.9Q374.6 143.9 372.3 140.7Q370.0 137.6 370.0 132.2L370.0 132.2Q370.0 126.8 372.3 123.6Q374.6 120.5 378.6 120.5L378.6 120.5Q382.6 120.5 384.9 123.6Q387.2 126.8 387.2 132.2L387.2 132.2Q387.2 137.6 384.9 140.7ZM378.6 141.0L378.6 141.0Q381.0 141.0 382.4 138.6Q383.7 136.3 383.7 132.2L383.7 132.2Q383.7 128.1 382.4 125.8Q381.0 123.4 378.6 123.4Q376.2 123.4 374.9 125.8Q373.5 128.1 373.5 132.2L373.5 132.2Q373.5 136.3 374.8 138.6Q376.2 141.0 378.6 141.0ZM404.4 143.5L391.9 143.5Q391.1 143.5 390.7 143.1Q390.3 142.7 390.3 142L390.3 142Q390.3 141.5 390.5 141.1Q390.7 140.8 391.2 140.2L391.2 140.2L398.3 133.0Q400.5 130.8 401.2 129.6Q401.9 128.4 401.9 127.1L401.9 127.1Q401.9 125.5 400.8 124.4Q399.7 123.4 398.0 123.4L398.0 123.4Q394.7 123.4 393.5 126.7L393.5 126.7Q393.2 127.3 392.9 127.6Q392.5 127.9 391.9 127.9L391.9 127.9Q391.2 127.9 390.8 127.5Q390.4 127.0 390.4 126.4L390.4 126.4Q390.4 126 390.5 125.6L390.5 125.6Q390.6 124.7 391.2 123.8Q391.8 122.9 392.7 122.2Q393.7 121.4 395.0 121.0Q396.4 120.5 398.0 120.5L398.0 120.5Q401.3 120.5 403.3 122.3Q405.4 124.1 405.4 126.9L405.4 126.9Q405.4 128.8 404.3 130.5Q403.3 132.1 400.4 135.0L400.4 135.0L395.0 140.4L395.0 140.5L404.4 140.5Q405.1 140.5 405.5 140.9Q405.9 141.3 405.9 142L405.9 142Q405.9 142.7 405.5 143.1Q405.1 143.5 404.4 143.5L404.4 143.5ZM421.3 143.8L421.3 143.8Q420.5 143.8 420.0 143.3Q419.6 142.8 419.6 142.0L419.6 142.0L419.6 139.0L410.3 139.0Q409.4 139.0 408.8 138.4Q408.3 137.9 408.3 137L408.3 137Q408.3 135.9 409.0 134.5L409.0 134.5Q411 131.0 416.3 123.3L416.3 123.3Q417.4 121.8 418.2 121.2Q419.0 120.6 420.1 120.6L420.1 120.6Q421.4 120.6 422.2 121.3Q422.9 122 422.9 123.3L422.9 123.3L422.9 136.0L424.7 136.0Q425.4 136.0 425.8 136.5Q426.3 136.9 426.3 137.5Q426.3 138.2 425.8 138.6Q425.4 139.0 424.7 139.0L424.7 139.0L422.9 139.0L422.9 142.0Q422.9 142.8 422.5 143.3Q422 143.8 421.3 143.8ZM411.5 136.1L419.6 136.1L419.6 123.7L419.5 123.7Q413.8 132.0 411.5 136L411.5 136L411.5 136.1Z " clip-path="url(#satori_cp-id-0)" mask="url(#satori_om-id-0)"/><mask id="satori_om-id-0-0-0-1"><rect x="72" y="175" width="1056" height="221" fill="#fff" mask="url(#satori_om-id-0)"/></mask><path fill="#0f172a" d="M92.3 235.3L92.3 235.3Q85.5 235.3 81.0 232.9Q76.6 230.5 75.2 226.6L75.2 226.6Q74.7 225.3 74.7 224.1L74.7 224.1Q74.7 222.2 75.8 221.1Q77.0 220.0 78.8 220.0L78.8 220.0Q80.3 220.0 81.3 220.6Q82.3 221.2 83.2 222.7L83.2 222.7Q84.2 225.2 86.7 226.5Q89.1 227.7 92.5 227.7L92.5 227.7Q96.3 227.7 98.6 226.1Q101.0 224.5 101.0 222.0L101.0 222.0Q101.0 219.7 99.2 218.4Q97.4 217.0 93.2 216.1L93.2 216.1L88.4 215.2Q75 212.6 75 202.4L75 202.4Q75 198.3 77.2 195.2Q79.4 192.1 83.3 190.4Q87.3 188.7 92.2 188.7L92.2 188.7Q98.4 188.7 102.8 191.1Q107.2 193.6 108.7 198.0L108.7 198.0Q109.0 199.0 109.0 200.1L109.0 200.1Q109.0 201.8 107.9 202.8Q106.8 203.9 105 203.9L105 203.9Q103.4 203.9 102.4 203.2Q101.3 202.6 100.5 201.1L100.5 201.1Q98.4 196.3 92.2 196.3L92.2 196.3Q88.7 196.3 86.6 197.8Q84.5 199.3 84.5 201.8L84.5 201.8Q84.5 203.9 86.2 205.2Q88 206.6 92.0 207.4L92.0 207.4L96.7 208.3Q103.9 209.8 107.1 212.8Q110.4 215.8 110.4 220.9L110.4 220.9Q110.4 227.6 105.5 231.4Q100.7 235.3 92.3 235.3ZM117.8 226.0L117.8 226.0L117.8 207.9L116.1 207.9Q114.4 207.9 113.5 207.0Q112.5 206.1 112.5 204.5Q112.5 202.9 113.5 202.0Q114.4 201.1 116.1 201.1L116.1 201.1L117.8 201.1L117.8 197.3Q117.8 195.1 119.0 193.8Q120.3 192.6 122.4 192.6Q124.5 192.6 125.7 193.8Q126.9 195.1 126.9 197.3L126.9 197.3L126.9 201.1L130.2 201.1Q131.8 201.1 132.7 202.0Q133.7 202.9 133.7 204.5Q133.7 206.1 132.7 207.0Q131.8 207.9 130.2 207.9L130.2 207.9L126.9 207.9L126.9 224.0Q126.9 225.7 127.6 226.6Q128.3 227.4 129.7 227.5L129.7 227.5L130.3 227.6Q132.1 227.7 132.9 228.5Q133.8 229.3 133.8 230.9L133.8 230.9Q133.8 232.8 132.0 233.9Q130.3 234.9 127.3 234.9L127.3 234.9L127 234.9Q117.8 234.9 117.8 226.0ZM148.0 235.1L148.0 235.1Q143.2 235.1 140 232.2Q136.8 229.4 136.8 224.9L136.8 224.9Q136.8 220.4 140.2 217.8Q143.6 215.2 149.9 214.8L149.9 214.8L158.3 214.3L158.3 212.1Q158.3 209.8 156.8 208.5Q155.3 207.1 152.7 207.1L152.7 207.1Q150.6 207.1 149.2 207.9Q147.7 208.7 146.2 210.7L146.2 210.7Q144.7 212.4 142.6 212.4L142.6 212.4Q140.9 212.4 139.8 211.4Q138.8 210.4 138.8 208.9L138.8 208.9Q138.8 207.8 139.2 206.8L139.2 206.8Q140.4 203.8 144.1 202.1Q147.9 200.3 153.1 200.3L153.1 200.3Q159.5 200.3 163.4 203.4Q167.3 206.5 167.3 211.5L167.3 211.5L167.3 230.6Q167.3 232.8 166.1 234.0Q164.8 235.2 162.8 235.2L162.8 235.2Q160.9 235.2 159.8 234.2Q158.6 233.1 158.5 231.1L158.5 231.1L158.5 229.4L158.3 229.4Q156.9 232.1 154.1 233.6Q151.3 235.1 148.0 235.1ZM151.0 228.5L151.0 228.5Q154.1 228.5 156.2 226.7Q158.3 225.0 158.3 222.3L158.3 222.3L158.3 219.8L151.3 220.3Q148.7 220.5 147.3 221.6Q145.9 222.6 145.9 224.4L145.9 224.4Q145.9 226.3 147.3 227.4Q148.7 228.5 151.0 228.5ZM175.6 226.0L175.6 226.0L175.6 207.9L173.8 207.9Q172.2 207.9 171.3 207.0Q170.3 206.1 170.3 204.5Q170.3 202.9 171.3 202.0Q172.2 201.1 173.8 201.1L173.8 201.1L175.6 201.1L175.6 197.3Q175.6 195.1 176.8 193.8Q178.0 192.6 180.2 192.6Q182.3 192.6 183.5 193.8Q184.7 195.1 184.7 197.3L184.7 197.3L184.7 201.1L187.9 201.1Q189.6 201.1 190.5 202.0Q191.4 202.9 191.4 204.5Q191.4 206.1 190.5 207.0Q189.6 207.9 187.9 207.9L187.9 207.9L184.7 207.9L184.7 224.0Q184.7 225.7 185.4 226.6Q186.0 227.4 187.5 227.5L187.5 227.5L188.1 227.6Q189.8 227.7 190.7 228.5Q191.6 229.3 191.6 230.9L191.6 230.9Q191.6 232.8 189.8 233.9Q188.1 234.9 185.1 234.9L185.1 234.9L184.8 234.9Q175.6 234.9 175.6 226.0ZM211.3 235.3L211.3 235.3Q203.5 235.3 199.1 230.7Q194.7 226.1 194.7 218.0L194.7 218.0Q194.7 209.9 199.1 205.1Q203.4 200.3 210.9 200.3L210.9 200.3Q218.0 200.3 222.4 204.7Q226.8 209.1 226.8 215.9L226.8 215.9Q226.8 217.8 225.7 218.9Q224.7 219.9 222.8 219.9L222.8 219.9L203.7 219.9L203.7 220.3Q203.7 224.0 205.7 226.3Q207.8 228.5 211.3 228.5L211.3 228.5Q213.8 228.5 215.6 227.6Q217.4 226.7 219.3 224.5L219.3 224.5Q220.6 223.1 222.3 223.1L222.3 223.1Q223.8 223.1 224.8 224.1Q225.8 225.0 225.8 226.5L225.8 226.5Q225.8 227.6 225.2 228.7L225.2 228.7Q223.5 231.8 219.8 233.5Q216.2 235.3 211.3 235.3ZM203.8 214.3L203.8 214.3L218.0 214.3Q217.8 211.0 215.9 209.1Q214.0 207.1 211.0 207.1Q208.0 207.1 206.0 209.1Q204 211.1 203.8 214.3ZM242.7 235.2L242.7 235.2Q240.3 235.2 239.0 234.1Q237.6 232.9 236.9 230.4L236.9 230.4L230.2 207.1Q229.7 205.4 229.7 204.3L229.7 204.3Q229.7 202.6 230.9 201.5Q232.1 200.4 234.1 200.4L234.1 200.4Q237.5 200.4 238.3 204.2L238.3 204.2L243.3 225.9L243.5 225.9L248.7 204.6Q249.6 200.4 253.8 200.4L253.8 200.4Q255.9 200.4 257.2 201.4Q258.5 202.5 258.9 204.6L258.9 204.6L264.2 225.9L264.3 225.9L269.3 204.2Q269.7 202.3 270.8 201.3Q271.9 200.4 273.6 200.4L273.6 200.4Q275.5 200.4 276.7 201.4Q277.9 202.5 277.9 204.2L277.9 204.2Q277.9 205.3 277.4 207.0L277.4 207.0L270.6 230.4Q269.9 232.9 268.5 234.1Q267.1 235.2 264.8 235.2L264.8 235.2Q262.3 235.2 260.9 234.1Q259.5 232.9 258.9 230.4L258.9 230.4L253.8 210.9L253.6 210.9L248.5 230.4Q247.9 232.9 246.5 234.1Q245.1 235.2 242.7 235.2ZM290.2 195.5Q288.8 196.9 286.7 196.9Q284.7 196.9 283.3 195.5Q281.8 194.1 281.8 192.2L281.8 192.2Q281.8 190.2 283.3 188.8Q284.7 187.5 286.7 187.5Q288.8 187.5 290.2 188.8Q291.6 190.2 291.6 192.2L291.6 192.2Q291.6 194.1 290.2 195.5ZM290.1 233.9Q288.8 235.2 286.7 235.2Q284.6 235.2 283.4 233.9Q282.2 232.7 282.2 230.5L282.2 230.5L282.2 205.1Q282.2 202.9 283.4 201.6Q284.6 200.4 286.7 200.4Q288.8 200.4 290.1 201.6Q291.3 202.9 291.3 205.1L291.3 205.1L291.3 230.5Q291.3 232.7 290.1 233.9ZM311 235.3L311 235.3Q305.4 235.3 301.6 233.4Q297.8 231.6 296.6 228.6L296.6 228.6Q296.3 227.6 296.3 226.9L296.3 226.9Q296.3 225.3 297.3 224.4Q298.3 223.4 299.9 223.4L299.9 223.4Q302.1 223.4 303.9 225.5L303.9 225.5Q305.3 227.2 307.0 228.1Q308.7 228.9 311.2 228.9L311.2 228.9Q313.7 228.9 315.2 227.9Q316.7 226.9 316.7 225.3L316.7 225.3Q316.7 223.9 315.7 223.1Q314.7 222.3 312.3 221.8L312.3 221.8L306.6 220.6Q301.7 219.5 299.2 217.1Q296.8 214.6 296.8 210.9L296.8 210.9Q296.8 206.1 300.6 203.2Q304.5 200.3 311.0 200.3L311.0 200.3Q316.0 200.3 319.6 202.3Q323.3 204.3 324.1 207.3L324.1 207.3Q324.3 208.1 324.3 208.6L324.3 208.6Q324.3 210.1 323.4 210.9Q322.5 211.7 320.8 211.7L320.8 211.7Q318.7 211.7 317.5 210.3L317.5 210.3Q316.1 208.6 314.6 207.7Q313.1 206.7 310.8 206.7L310.8 206.7Q308.5 206.7 307.0 207.7Q305.6 208.7 305.6 210.4L305.6 210.4Q305.6 211.7 306.7 212.6Q307.8 213.5 310.2 214.0L310.2 214.0L315.8 215.2Q321.1 216.3 323.5 218.4Q325.8 220.6 325.8 224.3L325.8 224.3Q325.8 229.3 321.7 232.3Q317.7 235.3 311 235.3ZM345.7 235.3L345.7 235.3Q337.9 235.3 333.5 230.7Q329.1 226.1 329.1 218.0L329.1 218.0Q329.1 209.9 333.5 205.1Q337.8 200.3 345.3 200.3L345.3 200.3Q352.4 200.3 356.8 204.7Q361.2 209.1 361.2 215.9L361.2 215.9Q361.2 217.8 360.1 218.9Q359.1 219.9 357.2 219.9L357.2 219.9L338.1 219.9L338.1 220.3Q338.1 224.0 340.1 226.3Q342.2 228.5 345.7 228.5L345.7 228.5Q348.2 228.5 350.0 227.6Q351.8 226.7 353.7 224.5L353.7 224.5Q355 223.1 356.7 223.1L356.7 223.1Q358.2 223.1 359.2 224.1Q360.2 225.0 360.2 226.5L360.2 226.5Q360.2 227.6 359.6 228.7L359.6 228.7Q357.9 231.8 354.3 233.5Q350.6 235.3 345.7 235.3ZM338.2 214.3L338.2 214.3L352.4 214.3Q352.3 211.0 350.3 209.1Q348.4 207.1 345.4 207.1Q342.4 207.1 340.4 209.1Q338.4 211.1 338.2 214.3ZM375.3 211.1Q373.9 212.6 371.8 212.6Q369.7 212.6 368.2 211.1Q366.8 209.6 366.8 207.6L366.8 207.6Q366.8 205.4 368.2 204.0Q369.7 202.5 371.8 202.5Q373.9 202.5 375.3 204.0Q376.8 205.5 376.8 207.6Q376.8 209.6 375.3 211.1ZM375.3 233.5Q373.9 234.9 371.8 234.9Q369.7 234.9 368.2 233.5Q366.8 232.0 366.8 229.9Q366.8 227.8 368.2 226.3Q369.7 224.9 371.8 224.9Q373.9 224.9 375.3 226.3Q376.8 227.8 376.8 229.9Q376.8 232.0 375.3 233.5Z M400.1 235.1L400.1 235.1Q397.9 235.1 396.6 233.9Q395.3 232.7 395.3 230.7L395.3 230.7Q395.3 229.5 395.9 227.7L395.9 227.7L408.2 194.2Q409.2 191.4 410.9 190.1Q412.7 188.8 415.3 188.8L415.3 188.8Q418.1 188.8 419.8 190.1Q421.5 191.4 422.5 194.1L422.5 194.1L434.9 227.7Q435.5 229.4 435.5 230.7L435.5 230.7Q435.5 232.6 434.2 233.9Q432.8 235.1 430.8 235.1L430.8 235.1Q428.8 235.1 427.6 234.2Q426.5 233.2 425.9 231.0L425.9 231.0L423.5 223.9L407.2 223.9L404.8 230.9Q404.2 233.1 403.1 234.1Q401.9 235.1 400.1 235.1ZM415.1 198.1L409.3 216.6L421.3 216.6L415.3 198.1L415.1 198.1Z M462.1 233.8Q460.8 235.1 458.6 235.1Q456.4 235.1 455.1 233.8Q453.9 232.6 453.9 230.2L453.9 230.2L453.9 194.4Q453.9 192.1 455.1 190.8Q456.4 189.5 458.6 189.5L458.6 189.5L472.2 189.5Q479.2 189.5 483.5 193.7Q487.8 198.0 487.8 204.9L487.8 204.9Q487.8 211.8 483.4 216.1Q478.9 220.3 471.8 220.3L471.8 220.3L463.3 220.3L463.3 230.2Q463.3 232.6 462.1 233.8ZM463.3 196.9L463.3 213.0L469.7 213.0Q473.8 213.0 476 210.9Q478.3 208.8 478.3 204.9Q478.3 201.1 476.0 199.0Q473.8 196.9 469.7 196.9L469.7 196.9L463.3 196.9ZM508.0 235.3L508.0 235.3Q500.2 235.3 495.8 230.7Q491.4 226.1 491.4 218.0L491.4 218.0Q491.4 209.9 495.8 205.1Q500.2 200.3 507.6 200.3L507.6 200.3Q514.7 200.3 519.1 204.7Q523.5 209.1 523.5 215.9L523.5 215.9Q523.5 217.8 522.4 218.9Q521.4 219.9 519.5 219.9L519.5 219.9L500.4 219.9L500.4 220.3Q500.4 224.0 502.5 226.3Q504.5 228.5 508 228.5L508 228.5Q510.5 228.5 512.3 227.6Q514.2 226.7 516 224.5L516 224.5Q517.3 223.1 519.0 223.1L519.0 223.1Q520.5 223.1 521.5 224.1Q522.5 225.0 522.5 226.5L522.5 226.5Q522.5 227.6 521.9 228.7L521.9 228.7Q520.3 231.8 516.6 233.5Q512.9 235.3 508.0 235.3ZM500.5 214.3L500.5 214.3L514.7 214.3Q514.6 211.0 512.6 209.1Q510.7 207.1 507.7 207.1Q504.7 207.1 502.7 209.1Q500.7 211.1 500.5 214.3ZM530.6 226.0L530.6 226.0L530.6 207.9L528.8 207.9Q527.2 207.9 526.3 207.0Q525.3 206.1 525.3 204.5Q525.3 202.9 526.3 202.0Q527.2 201.1 528.8 201.1L528.8 201.1L530.6 201.1L530.6 197.3Q530.6 195.1 531.8 193.8Q533.0 192.6 535.2 192.6Q537.3 192.6 538.5 193.8Q539.7 195.1 539.7 197.3L539.7 197.3L539.7 201.1L542.9 201.1Q544.6 201.1 545.5 202.0Q546.4 202.9 546.4 204.5Q546.4 206.1 545.5 207.0Q544.6 207.9 542.9 207.9L542.9 207.9L539.7 207.9L539.7 224.0Q539.7 225.7 540.4 226.6Q541.0 227.4 542.5 227.5L542.5 227.5L543.1 227.6Q544.8 227.7 545.7 228.5Q546.6 229.3 546.6 230.9L546.6 230.9Q546.6 232.8 544.8 233.9Q543.1 234.9 540.1 234.9L540.1 234.9L539.8 234.9Q530.6 234.9 530.6 226.0ZM555.5 235.2L555.5 235.2Q553.4 235.2 552.1 234.0Q550.9 232.7 550.9 230.5L550.9 230.5L550.9 205.0Q550.9 202.8 552.1 201.6Q553.3 200.4 555.3 200.4L555.3 200.4Q557.3 200.4 558.4 201.6Q559.6 202.8 559.6 205.0L559.6 205.0L559.6 207.1L559.8 207.1Q560.5 204.1 562.4 202.3Q564.3 200.5 566.8 200.5L566.8 200.5Q568.6 200.5 569.6 201.4L569.6 201.4Q570.9 202.4 570.9 204.7L570.9 204.7Q570.9 206.9 569.6 208.0L569.6 208.0Q568.3 209.2 565.7 209.2L565.7 209.2Q562.7 209.2 561.3 210.8Q560.0 212.5 560.0 215.6L560.0 215.6L560.0 230.5Q560.0 232.7 558.8 234.0Q557.6 235.2 555.5 235.2ZM582.4 195.5Q581.0 196.9 578.9 196.9Q576.8 196.9 575.4 195.5Q574.0 194.1 574.0 192.2L574.0 192.2Q574.0 190.2 575.4 188.8Q576.8 187.5 578.9 187.5Q581.0 187.5 582.4 188.8Q583.8 190.2 583.8 192.2L583.8 192.2Q583.8 194.1 582.4 195.5ZM582.3 233.9Q581.0 235.2 578.9 235.2Q576.8 235.2 575.6 233.9Q574.3 232.7 574.3 230.5L574.3 230.5L574.3 205.1Q574.3 202.9 575.6 201.6Q576.8 200.4 578.9 200.4Q581.0 200.4 582.3 201.6Q583.5 202.9 583.5 205.1L583.5 205.1L583.5 230.5Q583.5 232.7 582.3 233.9Z M610.8 233.9Q609.6 235.1 607.5 235.1Q605.4 235.1 604.2 233.9Q603.0 232.7 603.0 230.4L603.0 230.4L603.0 193.6Q603.0 191.3 604.2 190.1Q605.5 188.8 607.7 188.8L607.7 188.8Q609.2 188.8 610.2 189.5Q611.3 190.1 612.4 191.6L612.4 191.6L631.9 218.8L632.2 218.8L632.2 193.6Q632.2 191.3 633.3 190.1Q634.5 188.8 636.7 188.8L636.7 188.8Q638.8 188.8 640 190.1Q641.2 191.3 641.2 193.6L641.2 193.6L641.2 230.6Q641.2 232.8 640.0 234.0Q638.8 235.1 636.6 235.1L636.6 235.1Q635.0 235.1 634.0 234.5Q632.9 233.9 631.8 232.4L631.8 232.4L612.3 205.0L612 205.0L612 230.4Q612 232.7 610.8 233.9ZM663.3 235.3L663.3 235.3Q655.5 235.3 651.1 230.7Q646.7 226.1 646.7 218.0L646.7 218.0Q646.7 209.9 651.1 205.1Q655.4 200.3 662.9 200.3L662.9 200.3Q670.0 200.3 674.4 204.7Q678.8 209.1 678.8 215.9L678.8 215.9Q678.8 217.8 677.7 218.9Q676.7 219.9 674.8 219.9L674.8 219.9L655.7 219.9L655.7 220.3Q655.7 224.0 657.7 226.3Q659.8 228.5 663.3 228.5L663.3 228.5Q665.8 228.5 667.6 227.6Q669.4 226.7 671.3 224.5L671.3 224.5Q672.6 223.1 674.3 223.1L674.3 223.1Q675.8 223.1 676.8 224.1Q677.8 225.0 677.8 226.5L677.8 226.5Q677.8 227.6 677.2 228.7L677.2 228.7Q675.5 231.8 671.8 233.5Q668.2 235.3 663.3 235.3ZM655.8 214.3L655.8 214.3L670.0 214.3Q669.8 211.0 667.9 209.1Q666.0 207.1 663.0 207.1Q660.0 207.1 658.0 209.1Q656 211.1 655.8 214.3ZM685.9 226.0L685.9 226.0L685.9 207.9L684.1 207.9Q682.5 207.9 681.5 207.0Q680.6 206.1 680.6 204.5Q680.6 202.9 681.5 202.0Q682.5 201.1 684.1 201.1L684.1 201.1L685.9 201.1L685.9 197.3Q685.9 195.1 687.1 193.8Q688.3 192.6 690.4 192.6Q692.6 192.6 693.8 193.8Q695 195.1 695 197.3L695 197.3L695 201.1L698.2 201.1Q699.8 201.1 700.8 202.0Q701.7 202.9 701.7 204.5Q701.7 206.1 700.8 207.0Q699.8 207.9 698.2 207.9L698.2 207.9L695 207.9L695 224.0Q695 225.7 695.7 226.6Q696.3 227.4 697.8 227.5L697.8 227.5L698.4 227.6Q700.1 227.7 701.0 228.5Q701.8 229.3 701.8 230.9L701.8 230.9Q701.8 232.8 700.1 233.9Q698.3 234.9 695.4 234.9L695.4 234.9L695.1 234.9Q685.9 234.9 685.9 226.0ZM723.9 220.2L710.8 220.2Q708.9 220.2 707.7 219.1Q706.5 218.1 706.5 216.2Q706.5 214.4 707.7 213.3Q708.9 212.2 710.8 212.2L710.8 212.2L723.9 212.2Q725.8 212.2 727.0 213.3Q728.2 214.4 728.2 216.2Q728.2 218.1 727.0 219.1Q725.8 220.2 723.9 220.2L723.9 220.2ZM755.2 234.6L740.0 234.6Q737.8 234.6 736.5 233.3Q735.3 232.0 735.3 229.6L735.3 229.6L735.3 194.4Q735.3 192.1 736.5 190.8Q737.8 189.5 740.0 189.5L740.0 189.5L754.9 189.5Q761.2 189.5 764.9 192.5Q768.7 195.5 768.7 200.7L768.7 200.7Q768.7 204.4 766.2 207.2Q763.8 210.0 760.2 210.5L760.2 210.5L760.2 210.7Q764.8 211.1 767.8 214.1Q770.8 217.2 770.8 221.6L770.8 221.6Q770.8 227.6 766.6 231.1Q762.4 234.6 755.2 234.6L755.2 234.6ZM744.7 196.5L744.7 208.2L751.5 208.2Q755.3 208.2 757.3 206.6Q759.4 205.1 759.4 202.2L759.4 202.2Q759.4 199.5 757.6 198.0Q755.8 196.5 752.4 196.5L752.4 196.5L744.7 196.5ZM744.7 214.4L744.7 227.5L752.8 227.5Q756.9 227.5 759.0 225.8Q761.2 224.1 761.2 220.9L761.2 220.9Q761.2 217.7 759.0 216.1Q756.8 214.4 752.6 214.4L752.6 214.4L744.7 214.4ZM785.3 235.1L785.3 235.1Q780.5 235.1 777.3 232.2Q774.1 229.4 774.1 224.9L774.1 224.9Q774.1 220.4 777.5 217.8Q780.8 215.2 787.2 214.8L787.2 214.8L795.6 214.3L795.6 212.1Q795.6 209.8 794.1 208.5Q792.6 207.1 790.0 207.1L790.0 207.1Q787.9 207.1 786.4 207.9Q785 208.7 783.5 210.7L783.5 210.7Q782.0 212.4 779.8 212.4L779.8 212.4Q778.2 212.4 777.1 211.4Q776.0 210.4 776.0 208.9L776.0 208.9Q776.0 207.8 776.5 206.8L776.5 206.8Q777.7 203.8 781.4 202.1Q785.2 200.3 790.4 200.3L790.4 200.3Q796.8 200.3 800.7 203.4Q804.6 206.5 804.6 211.5L804.6 211.5L804.6 230.6Q804.6 232.8 803.3 234.0Q802.1 235.2 800.1 235.2L800.1 235.2Q798.2 235.2 797.0 234.2Q795.9 233.1 795.8 231.1L795.8 231.1L795.8 229.4L795.6 229.4Q794.2 232.1 791.4 233.6Q788.5 235.1 785.3 235.1ZM788.3 228.5L788.3 228.5Q791.3 228.5 793.5 226.7Q795.6 225.0 795.6 222.3L795.6 222.3L795.6 219.8L788.5 220.3Q786.0 220.5 784.6 221.6Q783.2 222.6 783.2 224.4L783.2 224.4Q783.2 226.3 784.6 227.4Q786 228.5 788.3 228.5ZM824.1 235.3L824.1 235.3Q818.5 235.3 814.7 233.4Q810.9 231.6 809.7 228.6L809.7 228.6Q809.3 227.6 809.3 226.9L809.3 226.9Q809.3 225.3 810.4 224.4Q811.4 223.4 813.0 223.4L813.0 223.4Q815.2 223.4 817 225.5L817 225.5Q818.4 227.2 820.1 228.1Q821.8 228.9 824.3 228.9L824.3 228.9Q826.8 228.9 828.3 227.9Q829.8 226.9 829.8 225.3L829.8 225.3Q829.8 223.9 828.8 223.1Q827.8 222.3 825.3 221.8L825.3 221.8L819.7 220.6Q814.8 219.5 812.3 217.1Q809.8 214.6 809.8 210.9L809.8 210.9Q809.8 206.1 813.7 203.2Q817.6 200.3 824.1 200.3L824.1 200.3Q829.1 200.3 832.7 202.3Q836.3 204.3 837.2 207.3L837.2 207.3Q837.4 208.1 837.4 208.6L837.4 208.6Q837.4 210.1 836.5 210.9Q835.6 211.7 833.9 211.7L833.9 211.7Q831.8 211.7 830.6 210.3L830.6 210.3Q829.2 208.6 827.7 207.7Q826.2 206.7 823.9 206.7L823.9 206.7Q821.6 206.7 820.1 207.7Q818.7 208.7 818.7 210.4L818.7 210.4Q818.7 211.7 819.8 212.6Q820.8 213.5 823.3 214.0L823.3 214.0L828.8 215.2Q834.2 216.3 836.5 218.4Q838.9 220.6 838.9 224.3L838.9 224.3Q838.9 229.3 834.8 232.3Q830.8 235.3 824.1 235.3ZM858.8 235.3L858.8 235.3Q851.0 235.3 846.6 230.7Q842.2 226.1 842.2 218.0L842.2 218.0Q842.2 209.9 846.6 205.1Q850.9 200.3 858.4 200.3L858.4 200.3Q865.5 200.3 869.9 204.7Q874.3 209.1 874.3 215.9L874.3 215.9Q874.3 217.8 873.2 218.9Q872.2 219.9 870.3 219.9L870.3 219.9L851.2 219.9L851.2 220.3Q851.2 224.0 853.2 226.3Q855.3 228.5 858.8 228.5L858.8 228.5Q861.3 228.5 863.1 227.6Q864.9 226.7 866.8 224.5L866.8 224.5Q868.1 223.1 869.8 223.1L869.8 223.1Q871.3 223.1 872.3 224.1Q873.3 225.0 873.3 226.5L873.3 226.5Q873.3 227.6 872.7 228.7L872.7 228.7Q871.0 231.8 867.3 233.5Q863.7 235.3 858.8 235.3ZM851.3 214.3L851.3 214.3L865.5 214.3Q865.3 211.0 863.4 209.1Q861.5 207.1 858.5 207.1Q855.5 207.1 853.5 209.1Q851.5 211.1 851.3 214.3ZM891.4 235.1L891.4 235.1Q885.1 235.1 881.4 230.4Q877.7 225.8 877.7 217.7L877.7 217.7Q877.7 209.8 881.4 205.1Q885.1 200.5 891.4 200.5L891.4 200.5Q895 200.5 897.7 202.2Q900.4 204.0 901.7 206.8L901.7 206.8L901.8 206.8L901.8 193.6Q901.8 191.3 903.1 190.0Q904.3 188.8 906.4 188.8Q908.5 188.8 909.7 190.0Q911.0 191.3 911.0 193.6L911.0 193.6L911.0 230.6Q911.0 232.8 909.7 234.0Q908.5 235.2 906.4 235.2L906.4 235.2Q904.4 235.2 903.1 234.0Q901.8 232.8 901.8 230.6L901.8 230.6L901.8 228.6L901.7 228.6Q900.6 231.6 897.8 233.3Q895.1 235.1 891.4 235.1ZM894.5 227.7L894.5 227.7Q897.9 227.7 899.9 225.1Q901.9 222.4 901.9 217.8L901.9 217.8Q901.9 213.2 899.9 210.5Q897.9 207.8 894.5 207.8L894.5 207.8Q891.0 207.8 889.0 210.5Q887.1 213.2 887.1 217.8L887.1 217.8Q887.1 222.4 889.0 225.1Q891.0 227.7 894.5 227.7Z M948.4 235.1L948.4 235.1Q945.7 235.1 943.9 233.8Q942.2 232.6 941.2 229.7L941.2 229.7L928.6 196.0Q928.2 194.6 928.2 193.3L928.2 193.3Q928.2 191.3 929.5 190.1Q930.9 188.8 933.1 188.8L933.1 188.8Q936.8 188.8 937.9 192.6L937.9 192.6L948.5 224.8L948.7 224.8L959.3 192.5Q959.8 190.6 961.0 189.7Q962.1 188.8 963.9 188.8L963.9 188.8Q966.1 188.8 967.4 190.0Q968.8 191.2 968.8 193.2L968.8 193.2Q968.8 194.4 968.3 195.7L968.3 195.7L955.7 229.7Q954.6 232.6 952.9 233.8Q951.2 235.1 948.4 235.1ZM981.3 195.5Q979.9 196.9 977.8 196.9Q975.8 196.9 974.4 195.5Q973.0 194.1 973.0 192.2L973.0 192.2Q973.0 190.2 974.4 188.8Q975.8 187.5 977.8 187.5Q979.9 187.5 981.3 188.8Q982.7 190.2 982.7 192.2L982.7 192.2Q982.7 194.1 981.3 195.5ZM981.2 233.9Q980.0 235.2 977.8 235.2Q975.7 235.2 974.5 233.9Q973.3 232.7 973.3 230.5L973.3 230.5L973.3 205.1Q973.3 202.9 974.5 201.6Q975.7 200.4 977.8 200.4Q980.0 200.4 981.2 201.6Q982.4 202.9 982.4 205.1L982.4 205.1L982.4 230.5Q982.4 232.7 981.2 233.9ZM1002.1 235.3L1002.1 235.3Q996.5 235.3 992.7 233.4Q988.9 231.6 987.7 228.6L987.7 228.6Q987.4 227.6 987.4 226.9L987.4 226.9Q987.4 225.3 988.4 224.4Q989.5 223.4 991.1 223.4L991.1 223.4Q993.2 223.4 995.0 225.5L995.0 225.5Q996.4 227.2 998.1 228.1Q999.8 228.9 1002.3 228.9L1002.3 228.9Q1004.8 228.9 1006.3 227.9Q1007.8 226.9 1007.8 225.3L1007.8 225.3Q1007.8 223.9 1006.8 223.1Q1005.8 222.3 1003.4 221.8L1003.4 221.8L997.8 220.6Q992.8 219.5 990.4 217.1Q987.9 214.6 987.9 210.9L987.9 210.9Q987.9 206.1 991.7 203.2Q995.6 200.3 1002.1 200.3L1002.1 200.3Q1007.2 200.3 1010.8 202.3Q1014.4 204.3 1015.2 207.3L1015.2 207.3Q1015.4 208.1 1015.4 208.6L1015.4 208.6Q1015.4 210.1 1014.5 210.9Q1013.7 211.7 1011.9 211.7L1011.9 211.7Q1009.8 211.7 1008.6 210.3L1008.6 210.3Q1007.3 208.6 1005.7 207.7Q1004.2 206.7 1001.9 206.7L1001.9 206.7Q999.6 206.7 998.2 207.7Q996.7 208.7 996.7 210.4L996.7 210.4Q996.7 211.7 997.8 212.6Q998.9 213.5 1001.3 214.0L1001.3 214.0L1006.9 215.2Q1012.2 216.3 1014.6 218.4Q1016.9 220.6 1016.9 224.3L1016.9 224.3Q1016.9 229.3 1012.9 232.3Q1008.8 235.3 1002.1 235.3ZM1033.3 235.2L1033.3 235.2Q1027.8 235.2 1024.6 231.8Q1021.3 228.5 1021.3 222.6L1021.3 222.6L1021.3 205.1Q1021.3 202.9 1022.5 201.6Q1023.8 200.4 1025.8 200.4Q1027.9 200.4 1029.2 201.6Q1030.4 202.9 1030.4 205.1L1030.4 205.1L1030.4 220.7Q1030.4 224.1 1032.0 225.8Q1033.6 227.6 1036.7 227.6Q1039.7 227.6 1041.5 225.6Q1043.3 223.6 1043.3 220.2L1043.3 220.2L1043.3 205.1Q1043.3 202.9 1044.5 201.6Q1045.8 200.4 1047.8 200.4Q1049.9 200.4 1051.1 201.6Q1052.4 202.9 1052.4 205.1L1052.4 205.1L1052.4 230.6Q1052.4 232.8 1051.2 234.0Q1050 235.2 1048.0 235.2Q1045.9 235.2 1044.8 234.0Q1043.6 232.8 1043.6 230.6L1043.6 230.6L1043.6 228.5L1043.4 228.5Q1040.8 235.2 1033.3 235.2ZM1068.2 235.1L1068.2 235.1Q1063.4 235.1 1060.2 232.2Q1057 229.4 1057 224.9L1057 224.9Q1057 220.4 1060.4 217.8Q1063.8 215.2 1070.1 214.8L1070.1 214.8L1078.5 214.3L1078.5 212.1Q1078.5 209.8 1077.0 208.5Q1075.5 207.1 1072.9 207.1L1072.9 207.1Q1070.8 207.1 1069.3 207.9Q1067.9 208.7 1066.4 210.7L1066.4 210.7Q1064.9 212.4 1062.8 212.4L1062.8 212.4Q1061.1 212.4 1060.0 211.4Q1058.9 210.4 1058.9 208.9L1058.9 208.9Q1058.9 207.8 1059.4 206.8L1059.4 206.8Q1060.6 203.8 1064.3 202.1Q1068.1 200.3 1073.3 200.3L1073.3 200.3Q1079.7 200.3 1083.6 203.4Q1087.5 206.5 1087.5 211.5L1087.5 211.5L1087.5 230.6Q1087.5 232.8 1086.3 234.0Q1085.0 235.2 1083.0 235.2L1083.0 235.2Q1081.1 235.2 1080.0 234.2Q1078.8 233.1 1078.7 231.1L1078.7 231.1L1078.7 229.4L1078.5 229.4Q1077.1 232.1 1074.3 233.6Q1071.4 235.1 1068.2 235.1ZM1071.2 228.5L1071.2 228.5Q1074.3 228.5 1076.4 226.7Q1078.5 225.0 1078.5 222.3L1078.5 222.3L1078.5 219.8L1071.4 220.3Q1068.9 220.5 1067.5 221.6Q1066.1 222.6 1066.1 224.4L1066.1 224.4Q1066.1 226.3 1067.5 227.4Q1068.9 228.5 1071.2 228.5ZM1101.4 234.0Q1100.2 235.2 1098.1 235.2Q1096.1 235.2 1094.8 234.0Q1093.6 232.7 1093.6 230.5L1093.6 230.5L1093.6 193.6Q1093.6 191.3 1094.8 190.0Q1096.1 188.8 1098.1 188.8Q1100.2 188.8 1101.4 190.0Q1102.7 191.3 1102.7 193.6L1102.7 193.6L1102.7 230.5Q1102.7 232.7 1101.4 234.0Z M101.9 308.1L80.5 308.1Q78.3 308.1 77 306.9Q75.8 305.6 75.8 303.2L75.8 303.2L75.8 268.0Q75.8 265.6 77 264.4Q78.3 263.1 80.5 263.1L80.5 263.1L101.9 263.1Q103.9 263.1 105.0 264.1Q106.2 265.1 106.2 267.0Q106.2 268.8 105.0 269.8Q103.8 270.9 101.9 270.9L101.9 270.9L85.2 270.9L85.2 281.7L101.1 281.7Q102.9 281.7 104.0 282.7Q105.0 283.7 105.0 285.3L105.0 285.3Q105.0 287.0 104.0 288.0Q102.9 289.0 101.1 289.0L101.1 289.0L85.2 289.0L85.2 300.3L101.9 300.3Q103.8 300.3 105.0 301.4Q106.2 302.4 106.2 304.2Q106.2 306.1 105.0 307.1Q103.9 308.1 101.9 308.1L101.9 308.1ZM124.1 308.7L124.1 308.7Q117.8 308.7 114.1 304.0Q110.4 299.4 110.4 291.3L110.4 291.3Q110.4 283.4 114.1 278.7Q117.8 274.1 124.2 274.1L124.2 274.1Q127.7 274.1 130.4 275.8Q133.1 277.6 134.4 280.4L134.4 280.4L134.6 280.4L134.6 267.1Q134.6 264.9 135.8 263.6Q137.1 262.4 139.1 262.4Q141.2 262.4 142.4 263.6Q143.7 264.9 143.7 267.1L143.7 267.1L143.7 304.2Q143.7 306.4 142.5 307.6Q141.2 308.8 139.2 308.8L139.2 308.8Q137.1 308.8 135.8 307.6Q134.6 306.4 134.6 304.2L134.6 304.2L134.6 302.2L134.4 302.2Q133.3 305.1 130.6 306.9Q127.8 308.7 124.1 308.7ZM127.2 301.3L127.2 301.3Q130.6 301.3 132.6 298.7Q134.6 296.0 134.6 291.4L134.6 291.4Q134.6 286.8 132.6 284.1Q130.6 281.4 127.2 281.4L127.2 281.4Q123.8 281.4 121.8 284.1Q119.8 286.8 119.8 291.4L119.8 291.4Q119.8 296.0 121.8 298.7Q123.8 301.3 127.2 301.3ZM158.0 269.1Q156.6 270.5 154.5 270.5Q152.4 270.5 151.0 269.1Q149.6 267.7 149.6 265.8L149.6 265.8Q149.6 263.8 151.0 262.4Q152.4 261.1 154.5 261.1Q156.6 261.1 158.0 262.4Q159.4 263.8 159.4 265.8L159.4 265.8Q159.4 267.7 158.0 269.1ZM157.8 307.5Q156.6 308.8 154.5 308.8Q152.4 308.8 151.2 307.5Q149.9 306.3 149.9 304.1L149.9 304.1L149.9 278.7Q149.9 276.5 151.2 275.2Q152.4 274.0 154.5 274.0Q156.6 274.0 157.8 275.2Q159.1 276.5 159.1 278.7L159.1 278.7L159.1 304.1Q159.1 306.3 157.8 307.5ZM167.6 299.6L167.6 299.6L167.6 281.5L165.8 281.5Q164.2 281.5 163.2 280.6Q162.3 279.7 162.3 278.1Q162.3 276.5 163.2 275.6Q164.2 274.6 165.8 274.6L165.8 274.6L167.6 274.6L167.6 270.9Q167.6 268.7 168.8 267.4Q170 266.2 172.1 266.2Q174.3 266.2 175.5 267.4Q176.7 268.7 176.7 270.9L176.7 270.9L176.7 274.6L179.9 274.6Q181.5 274.6 182.5 275.6Q183.4 276.5 183.4 278.1Q183.4 279.6 182.5 280.6Q181.5 281.5 179.9 281.5L179.9 281.5L176.7 281.5L176.7 297.6Q176.7 299.3 177.3 300.1Q178 301.0 179.5 301.1L179.5 301.1L180.1 301.1Q181.8 301.3 182.7 302.1Q183.5 302.9 183.5 304.5L183.5 304.5Q183.5 306.4 181.8 307.5Q180.0 308.5 177.1 308.5L177.1 308.5L176.8 308.5Q167.6 308.5 167.6 299.6ZM215.4 304.2Q210.9 308.9 203.3 308.9Q195.6 308.9 191.1 304.2Q186.7 299.6 186.7 291.4L186.7 291.4Q186.7 283.3 191.2 278.6Q195.7 273.9 203.3 273.9L203.3 273.9Q210.8 273.9 215.3 278.6Q219.8 283.3 219.8 291.4L219.8 291.4Q219.8 299.6 215.4 304.2ZM203.3 301.9L203.3 301.9Q206.6 301.9 208.6 299.1Q210.6 296.4 210.6 291.4L210.6 291.4Q210.6 286.5 208.6 283.7Q206.6 280.9 203.3 280.9Q199.9 280.9 197.9 283.7Q195.9 286.5 195.9 291.4L195.9 291.4Q195.9 296.4 197.9 299.1Q199.8 301.9 203.3 301.9ZM229.1 308.8L229.1 308.8Q227 308.8 225.8 307.6Q224.5 306.3 224.5 304.1L224.5 304.1L224.5 278.6Q224.5 276.4 225.7 275.2Q226.9 274.0 228.9 274.0L228.9 274.0Q230.9 274.0 232.1 275.2Q233.3 276.4 233.3 278.6L233.3 278.6L233.3 280.7L233.4 280.7Q234.1 277.6 236.0 275.9Q237.9 274.1 240.4 274.1L240.4 274.1Q242.3 274.1 243.3 275.0L243.3 275.0Q244.6 276.0 244.6 278.3L244.6 278.3Q244.6 280.5 243.3 281.6L243.3 281.6Q241.9 282.8 239.3 282.8L239.3 282.8Q236.3 282.8 235.0 284.4Q233.7 286.1 233.7 289.2L233.7 289.2L233.7 304.1Q233.7 306.3 232.4 307.6Q231.2 308.8 229.1 308.8Z M270.8 307.6Q269.6 308.8 267.5 308.8Q265.4 308.8 264.1 307.6Q262.9 306.4 262.9 304.1L262.9 304.1L262.9 281.5L261.2 281.5Q259.7 281.5 258.8 280.6Q257.8 279.7 257.8 278.1Q257.8 276.6 258.8 275.7Q259.7 274.8 261.2 274.8L261.2 274.8L262.9 274.8L262.9 272.3Q262.9 267.4 265.3 265.0Q267.7 262.7 272.5 262.6L272.5 262.6Q276.0 262.6 277.7 263.6Q279.3 264.6 279.3 266.3L279.3 266.3Q279.3 268.2 277.5 268.7L277.5 268.7Q276.7 269.0 275.8 269.0L275.8 269.0Q273.7 269.1 272.7 269.9Q271.8 270.8 271.8 272.7L271.8 272.7L271.8 274.8L275.7 274.8Q277.1 274.8 278.1 275.7Q279 276.6 279 278.1Q279 279.7 278.1 280.6Q277.1 281.5 275.7 281.5L275.7 281.5L272.0 281.5L272.0 304.1Q272.0 306.4 270.8 307.6ZM310.8 304.2Q306.3 308.9 298.6 308.9Q291.0 308.9 286.5 304.2Q282.0 299.6 282.0 291.4L282.0 291.4Q282.0 283.3 286.5 278.6Q291.1 273.9 298.6 273.9L298.6 273.9Q306.2 273.9 310.7 278.6Q315.2 283.3 315.2 291.4L315.2 291.4Q315.2 299.6 310.8 304.2ZM298.6 301.9L298.6 301.9Q302 301.9 304.0 299.1Q305.9 296.4 305.9 291.4L305.9 291.4Q305.9 286.5 304.0 283.7Q302 280.9 298.6 280.9Q295.3 280.9 293.3 283.7Q291.3 286.5 291.3 291.4L291.3 291.4Q291.3 296.4 293.3 299.1Q295.2 301.9 298.6 301.9ZM324.5 308.8L324.5 308.8Q322.4 308.8 321.1 307.6Q319.9 306.3 319.9 304.1L319.9 304.1L319.9 278.6Q319.9 276.4 321.1 275.2Q322.3 274.0 324.3 274.0L324.3 274.0Q326.3 274.0 327.4 275.2Q328.6 276.4 328.6 278.6L328.6 278.6L328.6 280.7L328.8 280.7Q329.5 277.6 331.4 275.9Q333.3 274.1 335.8 274.1L335.8 274.1Q337.6 274.1 338.6 275.0L338.6 275.0Q339.9 276.0 339.9 278.3L339.9 278.3Q339.9 280.5 338.6 281.6L338.6 281.6Q337.3 282.8 334.7 282.8L334.7 282.8Q331.7 282.8 330.3 284.4Q329.0 286.1 329.0 289.2L329.0 289.2L329.0 304.1Q329.0 306.3 327.8 307.6Q326.6 308.8 324.5 308.8Z M373.1 308.9L373.1 308.9Q366.4 308.9 361.9 306.5Q357.4 304.1 356.0 300.2L356.0 300.2Q355.5 298.9 355.5 297.7L355.5 297.7Q355.5 295.8 356.7 294.7Q357.8 293.6 359.7 293.6L359.7 293.6Q361.2 293.6 362.2 294.2Q363.2 294.8 364.0 296.3L364.0 296.3Q365.1 298.8 367.5 300.1Q370 301.3 373.3 301.3L373.3 301.3Q377.1 301.3 379.5 299.7Q381.8 298.1 381.8 295.6L381.8 295.6Q381.8 293.3 380.1 292.0Q378.3 290.6 374.1 289.7L374.1 289.7L369.3 288.8Q355.9 286.1 355.9 276.0L355.9 276.0Q355.9 271.9 358.1 268.8Q360.3 265.6 364.2 264.0Q368.1 262.3 373.1 262.3L373.1 262.3Q379.3 262.3 383.7 264.7Q388.1 267.2 389.6 271.6L389.6 271.6Q389.9 272.6 389.9 273.7L389.9 273.7Q389.9 275.4 388.8 276.4Q387.7 277.5 385.9 277.5L385.9 277.5Q384.3 277.5 383.2 276.8Q382.2 276.2 381.4 274.7L381.4 274.7Q379.3 269.9 373.1 269.9L373.1 269.9Q369.6 269.9 367.5 271.4Q365.3 272.9 365.3 275.4L365.3 275.4Q365.3 277.5 367.1 278.8Q368.9 280.2 372.8 281.0L372.8 281.0L377.6 281.9Q384.8 283.4 388.0 286.4Q391.3 289.4 391.3 294.5L391.3 294.5Q391.3 301.1 386.4 305.0Q381.5 308.9 373.1 308.9ZM404.1 318.9Q402.9 320.1 400.8 320.1Q398.8 320.1 397.5 318.9Q396.3 317.6 396.3 315.3L396.3 315.3L396.3 278.6Q396.3 276.4 397.5 275.2Q398.7 274.0 400.8 274.0Q402.8 274.0 404.0 275.2Q405.3 276.4 405.3 278.7L405.3 278.7L405.3 280.5L405.4 280.5Q406.8 277.5 409.5 275.8Q412.2 274.1 415.8 274.1L415.8 274.1Q422.2 274.1 425.9 278.7Q429.5 283.3 429.5 291.4L429.5 291.4Q429.5 299.5 425.9 304.1Q422.3 308.7 416.0 308.7L416.0 308.7Q412.4 308.7 409.6 307.0Q406.9 305.4 405.6 302.5L405.6 302.5L405.4 302.5L405.4 315.3Q405.4 317.6 404.1 318.9ZM412.8 301.3L412.8 301.3Q416.2 301.3 418.2 298.6Q420.2 296.0 420.2 291.4Q420.2 286.8 418.2 284.1Q416.2 281.4 412.8 281.4L412.8 281.4Q409.4 281.4 407.4 284.2Q405.3 286.9 405.3 291.4L405.3 291.4Q405.3 295.9 407.4 298.6Q409.4 301.3 412.8 301.3ZM449.6 308.9L449.6 308.9Q441.8 308.9 437.4 304.3Q433 299.7 433 291.6L433 291.6Q433 283.5 437.4 278.7Q441.8 273.9 449.2 273.9L449.2 273.9Q456.3 273.9 460.7 278.3Q465.1 282.6 465.1 289.5L465.1 289.5Q465.1 291.4 464.0 292.5Q463 293.5 461.1 293.5L461.1 293.5L442.0 293.5L442.0 293.9Q442.0 297.6 444.0 299.9Q446.1 302.1 449.6 302.1L449.6 302.1Q452.1 302.1 453.9 301.2Q455.8 300.3 457.6 298.1L457.6 298.1Q458.9 296.7 460.6 296.7L460.6 296.7Q462.1 296.7 463.1 297.6Q464.1 298.6 464.1 300.1L464.1 300.1Q464.1 301.1 463.5 302.3L463.5 302.3Q461.8 305.4 458.2 307.1Q454.5 308.9 449.6 308.9ZM442.1 287.9L442.1 287.9L456.3 287.9Q456.2 284.6 454.2 282.6Q452.3 280.7 449.3 280.7Q446.3 280.7 444.3 282.7Q442.3 284.7 442.1 287.9ZM485.0 308.9L485.0 308.9Q477.4 308.9 473.0 304.2Q468.5 299.5 468.5 291.4L468.5 291.4Q468.5 283.4 473.0 278.6Q477.4 273.9 485.0 273.9L485.0 273.9Q490.0 273.9 493.8 276.1Q497.7 278.3 499.1 281.9L499.1 281.9Q499.6 283.2 499.6 284.2L499.6 284.2Q499.6 285.8 498.5 286.8Q497.4 287.7 495.7 287.7L495.7 287.7Q494.3 287.7 493.5 287.2Q492.6 286.6 491.8 285.4L491.8 285.4Q489.4 281.1 485.3 281.1L485.3 281.1Q481.8 281.1 479.8 283.8Q477.8 286.5 477.8 291.4L477.8 291.4Q477.8 296.3 479.8 299.0Q481.8 301.7 485.2 301.7L485.2 301.7Q489.4 301.7 491.8 297.8L491.8 297.8Q492.7 296.3 493.6 295.7Q494.5 295.1 495.9 295.1L495.9 295.1Q497.5 295.1 498.6 296.1Q499.8 297.1 499.8 298.7L499.8 298.7Q499.8 299.8 499.2 301.1L499.2 301.1Q497.7 304.6 493.7 306.7Q489.8 308.9 485.0 308.9ZM512.8 269.1Q511.4 270.5 509.3 270.5Q507.3 270.5 505.9 269.1Q504.5 267.7 504.5 265.8L504.5 265.8Q504.5 263.8 505.9 262.4Q507.3 261.1 509.3 261.1Q511.4 261.1 512.8 262.4Q514.2 263.8 514.2 265.8L514.2 265.8Q514.2 267.7 512.8 269.1ZM512.7 307.5Q511.5 308.8 509.3 308.8Q507.2 308.8 506 307.5Q504.8 306.3 504.8 304.1L504.8 304.1L504.8 278.7Q504.8 276.5 506 275.2Q507.2 274.0 509.3 274.0Q511.5 274.0 512.7 275.2Q513.9 276.5 513.9 278.7L513.9 278.7L513.9 304.1Q513.9 306.3 512.7 307.5ZM530.3 307.6Q529.1 308.8 527.0 308.8Q524.9 308.8 523.6 307.6Q522.4 306.4 522.4 304.1L522.4 304.1L522.4 281.5L520.7 281.5Q519.2 281.5 518.3 280.6Q517.3 279.7 517.3 278.1Q517.3 276.6 518.3 275.7Q519.2 274.8 520.7 274.8L520.7 274.8L522.4 274.8L522.4 272.3Q522.4 267.4 524.8 265.0Q527.2 262.7 532.0 262.6L532.0 262.6Q535.5 262.6 537.2 263.6Q538.8 264.6 538.8 266.3L538.8 266.3Q538.8 268.2 537 268.7L537 268.7Q536.2 269.0 535.3 269.0L535.3 269.0Q533.2 269.1 532.2 269.9Q531.3 270.8 531.3 272.7L531.3 272.7L531.3 274.8L535.2 274.8Q536.6 274.8 537.6 275.7Q538.5 276.6 538.5 278.1Q538.5 279.7 537.6 280.6Q536.6 281.5 535.2 281.5L535.2 281.5L531.5 281.5L531.5 304.1Q531.5 306.4 530.3 307.6ZM548.4 320.6L548.4 320.6Q545.4 320.6 543.9 319.4Q542.3 318.3 542.3 316.3L542.3 316.3Q542.3 314.9 543.2 314.1Q544.1 313.3 545.6 313.3L545.6 313.3Q545.9 313.3 546.4 313.3Q546.9 313.3 547.2 313.3L547.2 313.3Q550.2 313.3 551.6 310.3L551.6 310.3L552.1 309.1L541.4 280.9Q540.9 279.5 540.9 278.2L540.9 278.2Q540.9 276.4 542.2 275.2Q543.6 274.0 545.6 274.0L545.6 274.0Q547.4 274.0 548.4 274.8Q549.4 275.6 550 277.6L550 277.6L557.3 300.8L557.4 300.8L564.7 277.6Q565.3 275.7 566.3 274.8Q567.4 274.0 569.1 274.0L569.1 274.0Q571.1 274.0 572.3 275.1Q573.6 276.3 573.6 278.1L573.6 278.1Q573.6 279.4 573.1 280.8L573.1 280.8L562.8 308.7Q560.4 315.2 557.2 317.9Q553.9 320.6 548.4 320.6ZM585.7 269.1Q584.3 270.5 582.2 270.5Q580.2 270.5 578.8 269.1Q577.3 267.7 577.3 265.8L577.3 265.8Q577.3 263.8 578.8 262.4Q580.2 261.1 582.2 261.1Q584.3 261.1 585.7 262.4Q587.1 263.8 587.1 265.8L587.1 265.8Q587.1 267.7 585.7 269.1ZM585.6 307.5Q584.3 308.8 582.2 308.8Q580.1 308.8 578.9 307.5Q577.7 306.3 577.7 304.1L577.7 304.1L577.7 278.7Q577.7 276.5 578.9 275.2Q580.1 274.0 582.2 274.0Q584.3 274.0 585.6 275.2Q586.8 276.5 586.8 278.7L586.8 278.7L586.8 304.1Q586.8 306.3 585.6 307.5ZM600.7 307.6Q599.5 308.8 597.4 308.8Q595.3 308.8 594.1 307.6Q592.8 306.3 592.8 304.1L592.8 304.1L592.8 278.6Q592.8 276.4 594.0 275.2Q595.2 274.0 597.3 274.0Q599.3 274.0 600.6 275.2Q601.8 276.5 601.8 278.6L601.8 278.6L601.8 280.5L602 280.5Q604.8 274.0 612.3 274.0L612.3 274.0Q617.9 274.0 620.9 277.3Q623.9 280.6 623.9 286.6L623.9 286.6L623.9 304.1Q623.9 306.3 622.7 307.6Q621.4 308.8 619.4 308.8Q617.3 308.8 616.1 307.6Q614.8 306.3 614.8 304.1L614.8 304.1L614.8 288.5Q614.8 285.1 613.3 283.4Q611.7 281.6 608.7 281.6Q605.6 281.6 603.8 283.6Q602.0 285.6 602.0 288.9L602.0 288.9L602.0 304.1Q602.0 306.3 600.7 307.6ZM644.7 320.7L644.7 320.7Q639.7 320.7 636 319.0Q632.3 317.3 630.6 314.6L630.6 314.6Q629.9 313.4 629.9 312.1L629.9 312.1Q629.9 310.6 630.9 309.6Q631.9 308.7 633.6 308.7L633.6 308.7Q635.3 308.7 636.8 310.0L636.8 310.0Q640.6 313.6 644.7 313.7L644.7 313.7Q648.4 313.7 650.5 311.8Q652.6 310.0 652.6 306.8L652.6 306.8L652.6 301.4L652.4 301.4Q651.2 304.1 648.5 305.8Q645.7 307.4 642.1 307.4L642.1 307.4Q635.8 307.4 632.2 303.0Q628.5 298.5 628.5 290.8L628.5 290.8Q628.5 283.0 632.1 278.5Q635.8 274.1 642.3 274.1L642.3 274.1Q645.8 274.1 648.5 275.8Q651.1 277.5 652.5 280.4L652.5 280.4L652.7 280.4L652.7 278.6Q652.7 276.3 653.9 275.1Q655.2 274.0 657.3 274.0L657.3 274.0Q659.3 274.0 660.5 275.1Q661.8 276.3 661.8 278.6L661.8 278.6L661.8 306.8Q661.8 313.4 657.3 317.1Q652.8 320.8 644.7 320.7ZM645.2 300.6L645.2 300.6Q648.6 300.6 650.7 298.1Q652.7 295.5 652.7 291.0Q652.7 286.4 650.7 283.7Q648.6 281.1 645.2 281.1L645.2 281.1Q641.8 281.1 639.8 283.7Q637.8 286.4 637.8 290.9L637.8 290.9Q637.8 295.5 639.8 298.1Q641.8 300.6 645.2 300.6Z M689.3 307.5Q688.1 308.8 685.8 308.8Q683.6 308.8 682.4 307.5Q681.1 306.2 681.1 303.9L681.1 303.9L681.1 268.0Q681.1 265.6 682.4 264.4Q683.6 263.1 685.8 263.1L685.8 263.1L699.6 263.1Q707.3 263.1 711.6 266.9Q715.9 270.7 715.9 277.4L715.9 277.4Q715.9 281.7 713.9 285.1Q711.8 288.4 708.2 290.0L708.2 290.0L714.7 301.2Q715.7 303.0 715.7 304.5L715.7 304.5Q715.7 306.4 714.3 307.6Q713.0 308.8 710.9 308.8L710.9 308.8Q709.2 308.8 708.2 308.1Q707.3 307.3 706.1 305.2L706.1 305.2L698.6 291.6L690.6 291.6L690.6 303.9Q690.6 306.2 689.3 307.5ZM690.6 270.4L690.6 284.8L698.7 284.8Q702.3 284.8 704.2 282.9Q706.2 281.0 706.2 277.6L706.2 277.6Q706.2 274.3 704.2 272.4Q702.1 270.4 698.6 270.4L698.6 270.4L690.6 270.4ZM748.8 304.2Q744.3 308.9 736.7 308.9Q729.0 308.9 724.6 304.2Q720.1 299.6 720.1 291.4L720.1 291.4Q720.1 283.3 724.6 278.6Q729.1 273.9 736.7 273.9L736.7 273.9Q744.3 273.9 748.8 278.6Q753.3 283.3 753.3 291.4L753.3 291.4Q753.3 299.6 748.8 304.2ZM736.7 301.9L736.7 301.9Q740.1 301.9 742.0 299.1Q744 296.4 744 291.4L744 291.4Q744 286.5 742.0 283.7Q740.1 280.9 736.7 280.9Q733.3 280.9 731.3 283.7Q729.3 286.5 729.3 291.4L729.3 291.4Q729.3 296.4 731.3 299.1Q733.3 301.9 736.7 301.9ZM762.7 308.8L762.7 308.8Q760.6 308.8 759.4 307.6Q758.2 306.4 758.2 304.2L758.2 304.2L758.2 267.1Q758.2 264.9 759.4 263.6Q760.7 262.4 762.8 262.4Q764.8 262.4 766.1 263.6Q767.3 264.9 767.3 267.1L767.3 267.1L767.3 280.5L767.5 280.5Q768.9 277.5 771.6 275.8Q774.3 274.1 777.8 274.1L777.8 274.1Q784.2 274.1 787.8 278.7Q791.5 283.3 791.5 291.4Q791.5 299.5 787.8 304.1Q784.2 308.7 777.9 308.7L777.9 308.7Q774.3 308.7 771.5 307.0Q768.8 305.4 767.4 302.4L767.4 302.4L767.2 302.4L767.2 304.2Q767.2 306.4 766.0 307.6Q764.7 308.8 762.7 308.8ZM774.8 301.3L774.8 301.3Q778.2 301.3 780.1 298.7Q782.1 296.0 782.1 291.4L782.1 291.4Q782.1 286.8 780.1 284.1Q778.2 281.4 774.8 281.4L774.8 281.4Q771.4 281.4 769.3 284.2Q767.3 286.9 767.3 291.4L767.3 291.4Q767.3 295.9 769.3 298.6Q771.4 301.3 774.8 301.3ZM823.7 304.2Q819.2 308.9 811.6 308.9Q803.9 308.9 799.4 304.2Q795.0 299.6 795.0 291.4L795.0 291.4Q795.0 283.3 799.5 278.6Q804 273.9 811.6 273.9L811.6 273.9Q819.2 273.9 823.7 278.6Q828.2 283.3 828.2 291.4L828.2 291.4Q828.2 299.6 823.7 304.2ZM811.6 301.9L811.6 301.9Q814.9 301.9 816.9 299.1Q818.9 296.4 818.9 291.4L818.9 291.4Q818.9 286.5 816.9 283.7Q814.9 280.9 811.6 280.9Q808.2 280.9 806.2 283.7Q804.2 286.5 804.2 291.4L804.2 291.4Q804.2 296.4 806.2 299.1Q808.2 301.9 811.6 301.9ZM835.3 299.6L835.3 299.6L835.3 281.5L833.5 281.5Q831.9 281.5 831.0 280.6Q830 279.7 830 278.1Q830 276.5 831.0 275.6Q831.9 274.6 833.5 274.6L833.5 274.6L835.3 274.6L835.3 270.9Q835.3 268.7 836.5 267.4Q837.7 266.2 839.8 266.2Q842.0 266.2 843.2 267.4Q844.4 268.7 844.4 270.9L844.4 270.9L844.4 274.6L847.6 274.6Q849.3 274.6 850.2 275.6Q851.1 276.5 851.1 278.1Q851.1 279.6 850.2 280.6Q849.3 281.5 847.6 281.5L847.6 281.5L844.4 281.5L844.4 297.6Q844.4 299.3 845.1 300.1Q845.7 301.0 847.2 301.1L847.2 301.1L847.8 301.1Q849.5 301.3 850.4 302.1Q851.3 302.9 851.3 304.5L851.3 304.5Q851.3 306.4 849.5 307.5Q847.8 308.5 844.8 308.5L844.8 308.5L844.5 308.5Q835.3 308.5 835.3 299.6ZM863.8 269.1Q862.4 270.5 860.3 270.5Q858.3 270.5 856.8 269.1Q855.4 267.7 855.4 265.8L855.4 265.8Q855.4 263.8 856.8 262.4Q858.3 261.1 860.3 261.1Q862.4 261.1 863.8 262.4Q865.2 263.8 865.2 265.8L865.2 265.8Q865.2 267.7 863.8 269.1ZM863.7 307.5Q862.4 308.8 860.3 308.8Q858.2 308.8 857.0 307.5Q855.8 306.3 855.8 304.1L855.8 304.1L855.8 278.7Q855.8 276.5 857.0 275.2Q858.2 274.0 860.3 274.0Q862.4 274.0 863.7 275.2Q864.9 276.5 864.9 278.7L864.9 278.7L864.9 304.1Q864.9 306.3 863.7 307.5ZM886.2 308.9L886.2 308.9Q878.6 308.9 874.2 304.2Q869.7 299.5 869.7 291.4L869.7 291.4Q869.7 283.4 874.2 278.6Q878.6 273.9 886.2 273.9L886.2 273.9Q891.2 273.9 895.0 276.1Q898.9 278.3 900.3 281.9L900.3 281.9Q900.8 283.2 900.8 284.2L900.8 284.2Q900.8 285.8 899.7 286.8Q898.6 287.7 896.9 287.7L896.9 287.7Q895.5 287.7 894.6 287.2Q893.8 286.6 893.0 285.4L893.0 285.4Q890.6 281.1 886.4 281.1L886.4 281.1Q883.0 281.1 881.0 283.8Q879.0 286.5 879.0 291.4L879.0 291.4Q879.0 296.3 881.0 299.0Q882.9 301.7 886.4 301.7L886.4 301.7Q890.6 301.7 892.9 297.8L892.9 297.8Q893.9 296.3 894.8 295.7Q895.7 295.1 897.1 295.1L897.1 295.1Q898.7 295.1 899.8 296.1Q900.9 297.1 900.9 298.7L900.9 298.7Q900.9 299.8 900.3 301.1L900.3 301.1Q898.8 304.6 894.9 306.7Q891 308.9 886.2 308.9Z M92.3 382.5L92.3 382.5Q85.5 382.5 81.0 380.1Q76.6 377.7 75.2 373.8L75.2 373.8Q74.7 372.5 74.7 371.3L74.7 371.3Q74.7 369.4 75.8 368.3Q77.0 367.2 78.8 367.2L78.8 367.2Q80.3 367.2 81.3 367.8Q82.3 368.4 83.2 369.9L83.2 369.9Q84.2 372.4 86.7 373.7Q89.1 374.9 92.5 374.9L92.5 374.9Q96.3 374.9 98.6 373.3Q101.0 371.7 101.0 369.2L101.0 369.2Q101.0 366.9 99.2 365.6Q97.4 364.2 93.2 363.3L93.2 363.3L88.4 362.4Q75 359.8 75 349.6L75 349.6Q75 345.5 77.2 342.4Q79.4 339.3 83.3 337.6Q87.3 335.9 92.2 335.9L92.2 335.9Q98.4 335.9 102.8 338.3Q107.2 340.8 108.7 345.2L108.7 345.2Q109.0 346.2 109.0 347.3L109.0 347.3Q109.0 349 107.9 350.0Q106.8 351.1 105 351.1L105 351.1Q103.4 351.1 102.4 350.4Q101.3 349.8 100.5 348.3L100.5 348.3Q98.4 343.5 92.2 343.5L92.2 343.5Q88.7 343.5 86.6 345.0Q84.5 346.5 84.5 349L84.5 349Q84.5 351.1 86.2 352.4Q88 353.8 92.0 354.6L92.0 354.6L96.7 355.5Q103.9 357.0 107.1 360.0Q110.4 363.0 110.4 368.1L110.4 368.1Q110.4 374.8 105.5 378.6Q100.7 382.5 92.3 382.5ZM121.1 394.2L121.1 394.2Q118.1 394.2 116.5 393.0Q114.9 391.9 114.9 389.9L114.9 389.9Q114.9 388.5 115.8 387.7Q116.7 386.9 118.3 386.9L118.3 386.9Q118.6 386.9 119.0 386.9Q119.5 386.9 119.8 386.9L119.8 386.9Q122.8 386.9 124.3 383.9L124.3 383.9L124.7 382.7L114.0 354.5Q113.5 353.1 113.5 351.8L113.5 351.8Q113.5 350.0 114.8 348.8Q116.2 347.6 118.2 347.6L118.2 347.6Q120.0 347.6 121.0 348.4Q122.1 349.3 122.6 351.3L122.6 351.3L129.9 374.4L130.1 374.4L137.3 351.2Q137.9 349.3 139.0 348.4Q140 347.6 141.8 347.6L141.8 347.6Q143.7 347.6 145.0 348.7Q146.2 349.9 146.2 351.7L146.2 351.7Q146.2 353.0 145.7 354.4L145.7 354.4L135.4 382.3Q133.1 388.8 129.8 391.5Q126.6 394.2 121.1 394.2ZM163.8 382.5L163.8 382.5Q158.2 382.5 154.4 380.6Q150.6 378.8 149.4 375.8L149.4 375.8Q149.0 374.8 149.0 374.1L149.0 374.1Q149.0 372.5 150.1 371.6Q151.1 370.6 152.7 370.6L152.7 370.6Q154.8 370.6 156.7 372.7L156.7 372.7Q158.1 374.4 159.8 375.3Q161.4 376.1 164 376.1L164 376.1Q166.5 376.1 168.0 375.1Q169.5 374.1 169.5 372.5L169.5 372.5Q169.5 371.1 168.5 370.3Q167.5 369.5 165.0 369.0L165.0 369.0L159.4 367.8Q154.5 366.7 152.0 364.3Q149.5 361.8 149.5 358.1L149.5 358.1Q149.5 353.3 153.4 350.4Q157.3 347.5 163.8 347.5L163.8 347.5Q168.8 347.5 172.4 349.5Q176.0 351.5 176.9 354.5L176.9 354.5Q177.1 355.3 177.1 355.8L177.1 355.8Q177.1 357.3 176.2 358.1Q175.3 358.9 173.6 358.9L173.6 358.9Q171.5 358.9 170.3 357.5L170.3 357.5Q168.9 355.8 167.4 354.9Q165.9 353.9 163.6 353.9L163.6 353.9Q161.3 353.9 159.8 354.9Q158.3 355.9 158.3 357.6L158.3 357.6Q158.3 358.9 159.4 359.8Q160.5 360.7 163 361.2L163 361.2L168.5 362.4Q173.9 363.5 176.2 365.6Q178.6 367.8 178.6 371.5L178.6 371.5Q178.6 376.5 174.5 379.5Q170.4 382.5 163.8 382.5ZM185.5 373.2L185.5 373.2L185.5 355.1L183.8 355.1Q182.2 355.1 181.2 354.2Q180.3 353.3 180.3 351.7Q180.3 350.1 181.2 349.2Q182.2 348.3 183.8 348.3L183.8 348.3L185.5 348.3L185.5 344.5Q185.5 342.3 186.8 341.0Q188.0 339.8 190.1 339.8Q192.2 339.8 193.4 341.0Q194.7 342.3 194.7 344.5L194.7 344.5L194.7 348.3L197.9 348.3Q199.5 348.3 200.4 349.2Q201.4 350.1 201.4 351.7Q201.4 353.3 200.4 354.2Q199.5 355.1 197.9 355.1L197.9 355.1L194.7 355.1L194.7 371.2Q194.7 372.9 195.3 373.8Q196.0 374.6 197.4 374.7L197.4 374.7L198.0 374.8Q199.8 374.9 200.6 375.7Q201.5 376.5 201.5 378.1L201.5 378.1Q201.5 380.0 199.8 381.1Q198 382.1 195.0 382.1L195.0 382.1L194.7 382.1Q185.5 382.1 185.5 373.2ZM221.3 382.5L221.3 382.5Q213.4 382.5 209.0 377.9Q204.6 373.3 204.6 365.2L204.6 365.2Q204.6 357.1 209 352.3Q213.4 347.5 220.8 347.5L220.8 347.5Q227.9 347.5 232.3 351.9Q236.7 356.3 236.7 363.1L236.7 363.1Q236.7 365.0 235.7 366.1Q234.6 367.1 232.7 367.1L232.7 367.1L213.6 367.1L213.6 367.5Q213.6 371.2 215.7 373.5Q217.8 375.7 221.2 375.7L221.2 375.7Q223.7 375.7 225.5 374.8Q227.4 373.9 229.2 371.7L229.2 371.7Q230.5 370.3 232.2 370.3L232.2 370.3Q233.7 370.3 234.7 371.3Q235.8 372.2 235.8 373.7L235.8 373.7Q235.8 374.8 235.1 375.9L235.1 375.9Q233.5 379 229.8 380.7Q226.1 382.5 221.3 382.5ZM213.7 361.5L213.7 361.5L227.9 361.5Q227.8 358.2 225.8 356.3Q223.9 354.3 220.9 354.3Q217.9 354.3 215.9 356.3Q213.9 358.3 213.7 361.5ZM245.9 382.4L245.9 382.4Q243.8 382.4 242.6 381.2Q241.4 379.9 241.4 377.7L241.4 377.7L241.4 352.2Q241.4 350.0 242.6 348.8Q243.8 347.6 245.8 347.6Q247.8 347.6 249.0 348.8Q250.2 350.0 250.2 352.2L250.2 352.2L250.2 354.3L250.4 354.3Q251.4 351.3 254 349.4Q256.6 347.6 259.9 347.6L259.9 347.6Q263.6 347.6 266 349.4Q268.4 351.2 269.3 354.5L269.3 354.5L269.5 354.5Q270.6 351.3 273.4 349.5Q276.2 347.6 279.9 347.6L279.9 347.6Q284.8 347.6 287.8 350.7Q290.8 353.8 290.8 358.9L290.8 358.9L290.8 377.7Q290.8 379.9 289.6 381.2Q288.3 382.4 286.3 382.4L286.3 382.4Q284.2 382.4 283.0 381.2Q281.7 379.9 281.7 377.7L281.7 377.7L281.7 361.2Q281.7 358.3 280.3 356.7Q278.9 355.2 276.3 355.2L276.3 355.2Q273.7 355.2 272.1 356.9Q270.5 358.6 270.5 361.4L270.5 361.4L270.5 377.7Q270.5 379.9 269.3 381.2Q268.2 382.4 266.1 382.4L266.1 382.4Q264.1 382.4 262.9 381.2Q261.7 379.9 261.7 377.7L261.7 377.7L261.7 360.9Q261.7 358.2 260.3 356.7Q258.8 355.2 256.3 355.2L256.3 355.2Q253.7 355.2 252.1 356.9Q250.5 358.7 250.5 361.5L250.5 361.5L250.5 377.7Q250.5 379.9 249.3 381.2Q248 382.4 245.9 382.4ZM310.3 382.5L310.3 382.5Q304.7 382.5 300.9 380.6Q297.1 378.8 295.9 375.8L295.9 375.8Q295.5 374.8 295.5 374.1L295.5 374.1Q295.5 372.5 296.6 371.6Q297.6 370.6 299.2 370.6L299.2 370.6Q301.3 370.6 303.2 372.7L303.2 372.7Q304.6 374.4 306.3 375.3Q307.9 376.1 310.5 376.1L310.5 376.1Q313 376.1 314.5 375.1Q316.0 374.1 316.0 372.5L316.0 372.5Q316.0 371.1 315.0 370.3Q314.0 369.5 311.5 369.0L311.5 369.0L305.9 367.8Q301 366.7 298.5 364.3Q296.0 361.8 296.0 358.1L296.0 358.1Q296.0 353.3 299.9 350.4Q303.8 347.5 310.3 347.5L310.3 347.5Q315.3 347.5 318.9 349.5Q322.5 351.5 323.4 354.5L323.4 354.5Q323.6 355.3 323.6 355.8L323.6 355.8Q323.6 357.3 322.7 358.1Q321.8 358.9 320.1 358.9L320.1 358.9Q318.0 358.9 316.8 357.5L316.8 357.5Q315.4 355.8 313.9 354.9Q312.4 353.9 310.1 353.9L310.1 353.9Q307.8 353.9 306.3 354.9Q304.8 355.9 304.8 357.6L304.8 357.6Q304.8 358.9 305.9 359.8Q307.0 360.7 309.5 361.2L309.5 361.2L315.0 362.4Q320.4 363.5 322.7 365.6Q325.1 367.8 325.1 371.5L325.1 371.5Q325.1 376.5 321.0 379.5Q316.9 382.5 310.3 382.5Z " clip-path="url(#satori_cp-id-0)" mask="url(#satori_om-id-0)"/><defs><clipPath id="satori_bc-id-0-1" clip-path="url(#satori_cp-id-0)"><rect x="0" y="509" width="1200" height="121"/></clipPath></defs><mask id="satori_om-id-0-1"><rect x="0" y="510" width="1200" height="120" fill="#fff" mask="url(#satori_om-id-0)"/><path width="1200" height="121" fill="none" stroke="#000" stroke-width="2" d="M0,509 A0,0 0 0 1 0,509 h1200 A0,0 0 0 1 1200,509"/></mask><path width="1200" height="121" clip-path="url(#satori_bc-id-0-1)" fill="none" stroke="rgba(0,0,0,0.08)" stroke-width="2" d="M0,509 A0,0 0 0 1 0,509 h1200 A0,0 0 0 1 1200,509"/><mask id="satori_om-id-0-1-0"><rect x="48" y="538" width="228" height="64" fill="#fff" mask="url(#satori_om-id-0)"/></mask><mask id="satori_om-id-0-1-0-0"><rect x="48" y="538" width="72" height="64" fill="#fff" mask="url(#satori_om-id-0)"/></mask><clipPath id="satori_cp-id-0-1-0-0-0" clip-path="url(#satori_cp-id-0)"><rect x="48" y="538" width="72" height="64"/></clipPath><mask id="satori_om-id-0-1-0-0-0"><rect x="48" y="538" width="72" height="64" fill="#fff" mask="url(#satori_om-id-0)"/></mask><image x="48" y="538" width="72" height="64" href="data:image/svg+xml;utf8,%3Csvg  xmlns=%22http://www.w3.org/2000/svg%22 width=%2273.60461760461762%22 height=%2264%22 viewBox=%220 0 797 693%22%3E%3Cg transform=%22matrix(1,0,0,1,-345,-96.5)%22%3E%3Cpath d=%22M756.942,197.15L756.942,474C701.751,474 656.942,518.808 656.942,574C656.942,629.192 701.751,674 756.942,674L756.942,777L495.122,777C443.175,777 401,734.825 401,682.878L401,614L364.755,614C353.852,614 345,605.148 345,594.245L345,436.814C345,425.878 353.878,417 364.814,417L401,417L401,365.122C401,313.175 443.175,271 495.122,271L715.058,271L715.058,197.15C696.492,189.056 683.5,170.533 683.5,149C683.5,120.024 707.024,96.5 736,96.5C764.976,96.5 788.5,120.024 788.5,149C788.5,170.533 775.508,189.056 756.942,197.15ZM559,388C520.918,388 490,418.918 490,457C490,495.082 520.918,526 559,526C597.082,526 628,495.082 628,457C628,418.918 597.082,388 559,388Z%22 fill=%22%23ad47ff%22%3E%3C/path%3E%3Cg transform=%22matrix(-1,1.22465e-16,-1.22465e-16,-1,1486.06,1043)%22%3E%3Cpath d=%22M401,417L401,348.122C401,296.175 443.175,254 495.122,254L705.058,254L705.058,357C760.249,357 805.058,401.808 805.058,457C805.058,512.192 760.249,557 705.058,557L705.058,760L495.122,760C443.175,760 401,717.825 401,665.878L401,614L364.755,614C353.852,614 345,605.148 345,594.245L345,436.814C345,425.878 353.878,417 364.814,417L401,417ZM552,643C590.082,643 621,612.082 621,574C621,535.918 590.082,505 552,505C513.918,505 483,535.918 483,574C483,612.082 513.918,643 552,643Z%22 fill=%22%2300d5bd%22%3E%3C/path%3E%3C/g%3E%3C/g%3E%3C/svg%3E" preserveAspectRatio="none" clip-path="url(#satori_cp-id-0-1-0-0-0)" mask="url(#satori_om-id-0-1-0-0-0)"/><mask id="satori_om-id-0-1-0-0-0-0"><rect x="48" y="538" width="0" height="64" fill="#fff" mask="url(#satori_om-id-0)"/></mask><mask id="satori_om-id-0-1-0-0-0-0-0"><rect x="48" y="538" width="0" height="64" fill="#fff" mask="url(#satori_om-id-0)"/></mask><mask id="satori_om-id-0-1-0-0-0-0-1"><rect x="48" y="538" width="0" height="64" fill="#fff" mask="url(#satori_om-id-0)"/></mask><mask id="satori_om-id-0-1-0-0-0-0-1-0"><rect x="48" y="538" width="0" height="64" fill="#fff" mask="url(#satori_om-id-0)"/></mask><mask id="satori_om-id-0-1-0-1"><rect x="138" y="540" width="138" height="60" fill="#fff" mask="url(#satori_om-id-0)"/></mask><mask id="satori_om-id-0-1-0-1-0"><rect x="138" y="540" width="138" height="36" fill="#fff" mask="url(#satori_om-id-0)"/></mask><path fill="#0f172a" d="M150.7 571.2L150.7 571.2Q145.9 571.2 143.0 568.6Q140.1 566.1 140.1 561.8L140.1 561.8L140.1 547.9Q140.1 546.5 140.8 545.8Q141.5 545.1 142.8 545.1Q144.0 545.1 144.7 545.8Q145.4 546.5 145.4 547.9L145.4 547.9L145.4 561.3Q145.4 563.8 146.8 565.2Q148.2 566.7 150.7 566.7L150.7 566.7Q153.3 566.7 154.7 565.2Q156.1 563.8 156.1 561.3L156.1 561.3L156.1 547.9Q156.1 546.5 156.8 545.8Q157.5 545.1 158.7 545.1Q160.0 545.1 160.7 545.8Q161.4 546.5 161.4 547.9L161.4 547.9L161.4 561.8Q161.4 566.1 158.5 568.6Q155.6 571.2 150.7 571.2ZM170.2 570.4Q169.5 571.2 168.2 571.2Q167.0 571.2 166.3 570.4Q165.6 569.7 165.6 568.4L165.6 568.4L165.6 548.2Q165.6 546.9 166.3 546.2Q167.0 545.4 168.2 545.4L168.2 545.4L176.0 545.4Q180.3 545.4 182.7 547.6Q185.1 549.7 185.1 553.5L185.1 553.5Q185.1 555.9 184.0 557.8Q182.9 559.7 180.8 560.6L180.8 560.6L184.4 566.9Q185.0 567.9 185.0 568.7L185.0 568.7Q185.0 569.8 184.2 570.5Q183.5 571.2 182.3 571.2L182.3 571.2Q181.4 571.2 180.8 570.8Q180.3 570.3 179.6 569.2L179.6 569.2L175.4 561.5L170.9 561.5L170.9 568.4Q170.9 569.7 170.2 570.4ZM170.9 549.6L170.9 557.7L175.5 557.7Q177.5 557.7 178.6 556.6Q179.7 555.5 179.7 553.6L179.7 553.6Q179.7 551.8 178.5 550.7Q177.4 549.6 175.4 549.6L175.4 549.6L170.9 549.6ZM198.1 562.7L190.8 562.7Q189.7 562.7 189.1 562.1Q188.4 561.5 188.4 560.5Q188.4 559.4 189.1 558.8Q189.7 558.2 190.8 558.2L190.8 558.2L198.1 558.2Q199.2 558.2 199.9 558.8Q200.6 559.4 200.6 560.5Q200.6 561.5 199.9 562.1Q199.2 562.7 198.1 562.7L198.1 562.7ZM209.1 570.4Q208.4 571.2 207.2 571.2Q205.9 571.2 205.2 570.4Q204.5 569.7 204.5 568.4L204.5 568.4L204.5 548.2Q204.5 546.9 205.2 546.2Q205.9 545.4 207.2 545.4L207.2 545.4L214.9 545.4Q219.3 545.4 221.7 547.6Q224.1 549.7 224.1 553.5L224.1 553.5Q224.1 555.9 223.0 557.8Q221.8 559.7 219.7 560.6L219.7 560.6L223.4 566.9Q224.0 567.9 224.0 568.7L224.0 568.7Q224.0 569.8 223.2 570.5Q222.4 571.2 221.3 571.2L221.3 571.2Q220.3 571.2 219.8 570.8Q219.2 570.3 218.6 569.2L218.6 569.2L214.4 561.5L209.8 561.5L209.8 568.4Q209.8 569.7 209.1 570.4ZM209.8 549.6L209.8 557.7L214.4 557.7Q216.4 557.7 217.5 556.6Q218.6 555.5 218.6 553.6L218.6 553.6Q218.6 551.8 217.5 550.7Q216.3 549.6 214.4 549.6L214.4 549.6L209.8 549.6ZM229.3 571.1L229.3 571.1Q228.0 571.1 227.3 570.5Q226.6 569.8 226.6 568.6L226.6 568.6Q226.6 567.9 226.9 566.9L226.9 566.9L233.9 548.1Q234.4 546.5 235.4 545.8Q236.3 545.1 237.8 545.1L237.8 545.1Q239.4 545.1 240.4 545.8Q241.3 546.5 241.9 548.1L241.9 548.1L248.9 566.9Q249.2 567.9 249.2 568.6L249.2 568.6Q249.2 569.7 248.5 570.4Q247.7 571.1 246.5 571.1L246.5 571.1Q245.4 571.1 244.8 570.6Q244.1 570.0 243.8 568.8L243.8 568.8L242.4 564.8L233.3 564.8L232.0 568.7Q231.6 570.0 231.0 570.6Q230.3 571.1 229.3 571.1ZM237.7 550.3L234.5 560.7L241.2 560.7L237.9 550.3L237.7 550.3ZM262.1 570.8L255.1 570.8Q253.8 570.8 253.1 570.1Q252.4 569.3 252.4 568.0L252.4 568.0L252.4 548.2Q252.4 546.9 253.1 546.2Q253.8 545.4 255.1 545.4L255.1 545.4L262.1 545.4Q267.8 545.4 271.0 548.7Q274.2 552.0 274.2 558.0L274.2 558.0Q274.2 564.0 271.0 567.4Q267.8 570.8 262.1 570.8L262.1 570.8ZM257.7 549.8L257.7 566.4L261.5 566.4Q265.0 566.4 266.9 564.3Q268.8 562.1 268.8 558.0L268.8 558.0Q268.8 554.1 266.9 551.9Q265.0 549.8 261.5 549.8L261.5 549.8L257.7 549.8Z " clip-path="url(#satori_cp-id-0)" mask="url(#satori_om-id-0)"/><mask id="satori_om-id-0-1-0-1-1"><rect x="138" y="576" width="138" height="24" fill="#fff" mask="url(#satori_om-id-0)"/></mask><path fill="#334155" d="M145.0 595.3L145.0 595.3Q142.4 595.3 140.8 593.8Q139.2 592.4 139.2 590.1L139.2 590.1L139.2 582.1Q139.2 581.5 139.6 581.1Q139.9 580.8 140.5 580.8L140.5 580.8Q141.1 580.8 141.4 581.1Q141.8 581.5 141.8 582.1L141.8 582.1L141.8 589.8Q141.8 591.3 142.6 592.2Q143.5 593.1 145.0 593.1Q146.6 593.1 147.4 592.2Q148.3 591.3 148.3 589.8L148.3 589.8L148.3 582.1Q148.3 581.5 148.6 581.1Q149.0 580.8 149.6 580.8L149.6 580.8Q150.2 580.8 150.5 581.1Q150.8 581.5 150.8 582.1L150.8 582.1L150.8 590.1Q150.8 592.4 149.3 593.8Q147.7 595.3 145.0 595.3ZM155.5 594.9Q155.2 595.2 154.6 595.2Q154.0 595.2 153.6 594.9Q153.3 594.5 153.3 593.9L153.3 593.9L153.3 582.3Q153.3 581.6 153.6 581.3Q154.0 581.0 154.6 581.0L154.6 581.0L158.9 581.0Q161.2 581.0 162.5 582.1Q163.8 583.3 163.8 585.3L163.8 585.3Q163.8 586.7 163.1 587.8Q162.4 588.8 161.2 589.3L161.2 589.3L163.4 593.2Q163.7 593.7 163.7 594.1L163.7 594.1Q163.7 594.6 163.4 594.9Q163.0 595.2 162.4 595.2L162.4 595.2Q162.0 595.2 161.7 595.0Q161.5 594.8 161.2 594.3L161.2 594.3L158.7 589.7L155.8 589.7L155.8 593.9Q155.8 594.5 155.5 594.9ZM155.8 583.0L155.8 587.8L158.7 587.8Q159.9 587.8 160.5 587.2Q161.2 586.5 161.2 585.4L161.2 585.4Q161.2 584.3 160.5 583.6Q159.8 583.0 158.6 583.0L158.6 583.0L155.8 583.0ZM171.1 590.4L166.7 590.4Q166.2 590.4 165.9 590.1Q165.6 589.8 165.6 589.3Q165.6 588.8 165.9 588.5Q166.2 588.2 166.7 588.2L166.7 588.2L171.1 588.2Q171.7 588.2 172.0 588.5Q172.3 588.8 172.3 589.3Q172.3 589.8 172.0 590.1Q171.7 590.4 171.1 590.4L171.1 590.4ZM176.7 594.9Q176.4 595.2 175.8 595.2Q175.2 595.2 174.9 594.9Q174.6 594.5 174.6 593.9L174.6 593.9L174.6 582.3Q174.6 581.6 174.9 581.3Q175.2 581.0 175.8 581.0L175.8 581.0L180.1 581.0Q182.4 581.0 183.7 582.1Q185.0 583.3 185.0 585.3L185.0 585.3Q185.0 586.7 184.3 587.8Q183.7 588.8 182.5 589.3L182.5 589.3L184.7 593.2Q185.0 593.7 185.0 594.1L185.0 594.1Q185.0 594.6 184.6 594.9Q184.2 595.2 183.7 595.2L183.7 595.2Q183.2 595.2 183.0 595.0Q182.7 594.8 182.4 594.3L182.4 594.3L179.9 589.7L177.1 589.7L177.1 593.9Q177.1 594.5 176.7 594.9ZM177.1 583.0L177.1 587.8L179.9 587.8Q181.1 587.8 181.8 587.2Q182.4 586.5 182.4 585.4L182.4 585.4Q182.4 584.3 181.8 583.6Q181.1 583.0 179.9 583.0L179.9 583.0L177.1 583.0ZM187.7 595.2L187.7 595.2Q187.1 595.2 186.7 594.9Q186.4 594.6 186.4 594.0L186.4 594.0Q186.4 593.7 186.6 593.3L186.6 593.3L190.7 582.2Q190.9 581.4 191.4 581.1Q191.8 580.8 192.5 580.8L192.5 580.8Q193.2 580.8 193.6 581.1Q194.1 581.4 194.3 582.1L194.3 582.1L198.4 593.3Q198.6 593.7 198.6 594.0L198.6 594.0Q198.6 594.6 198.2 594.9Q197.9 595.2 197.3 595.2L197.3 595.2Q196.8 595.2 196.5 595.0Q196.2 594.7 196.0 594.1L196.0 594.1L195.1 591.4L189.9 591.4L188.9 594.1Q188.8 594.7 188.5 595.0Q188.2 595.2 187.7 595.2ZM192.4 583.4L190.5 589.5L194.5 589.5L192.5 583.4L192.4 583.4ZM205.6 595.0L201.7 595.0Q201.1 595.0 200.8 594.7Q200.4 594.3 200.4 593.7L200.4 593.7L200.4 582.3Q200.4 581.6 200.8 581.3Q201.1 581.0 201.7 581.0L201.7 581.0L205.6 581.0Q208.7 581.0 210.5 582.8Q212.3 584.6 212.3 588.0L212.3 588.0Q212.3 591.3 210.5 593.2Q208.7 595.0 205.6 595.0L205.6 595.0ZM202.9 583.1L202.9 592.9L205.3 592.9Q207.4 592.9 208.6 591.6Q209.7 590.4 209.7 588.0L209.7 588.0Q209.7 585.6 208.6 584.3Q207.4 583.1 205.3 583.1L205.3 583.1L202.9 583.1Z M227.0 595.0L219.2 595.0Q218.7 595.0 218.3 594.8Q218.0 594.5 218.0 594.0L218.0 594.0Q218.0 593.6 218.2 593.3Q218.3 593.1 218.7 592.7L218.7 592.7L223.0 588.4Q224.4 587.1 224.8 586.4Q225.3 585.7 225.3 584.9L225.3 584.9Q225.3 583.9 224.6 583.3Q224.0 582.7 223.0 582.7L223.0 582.7Q221.1 582.7 220.3 584.6L220.3 584.6Q220.1 585.0 219.9 585.2Q219.6 585.4 219.2 585.4L219.2 585.4Q218.7 585.4 218.4 585.1Q218.1 584.8 218.1 584.3L218.1 584.3Q218.1 584.1 218.2 583.8L218.2 583.8Q218.3 583.2 218.7 582.7Q219.1 582.1 219.7 581.7Q220.3 581.2 221.1 580.9Q222.0 580.7 223.0 580.7L223.0 580.7Q225.1 580.7 226.4 581.8Q227.8 582.9 227.8 584.7L227.8 584.7Q227.8 585.9 227.1 586.9Q226.4 588.0 224.6 589.8L224.6 589.8L221.4 592.9L221.4 593.0L227.0 593.0Q227.5 593.0 227.8 593.3Q228.1 593.5 228.1 594.0Q228.1 594.5 227.8 594.8Q227.5 595.0 227.0 595.0L227.0 595.0ZM235.2 595.3L235.2 595.3Q232.6 595.3 231.1 593.4Q229.7 591.4 229.7 588.0L229.7 588.0Q229.7 584.6 231.1 582.6Q232.6 580.7 235.2 580.7L235.2 580.7Q237.8 580.7 239.3 582.6Q240.7 584.6 240.7 588.0L240.7 588.0Q240.7 591.4 239.3 593.3Q237.8 595.3 235.2 595.3ZM235.2 593.3L235.2 593.3Q236.6 593.3 237.4 591.9Q238.2 590.5 238.2 588.0L238.2 588.0Q238.2 585.5 237.4 584.1Q236.6 582.7 235.2 582.7Q233.8 582.7 233.0 584.1Q232.2 585.5 232.2 588.0L232.2 588.0Q232.2 590.5 233.0 591.9Q233.8 593.3 235.2 593.3ZM251.6 595.0L243.8 595.0Q243.2 595.0 242.9 594.8Q242.6 594.5 242.6 594.0L242.6 594.0Q242.6 593.6 242.7 593.3Q242.9 593.1 243.3 592.7L243.3 592.7L247.6 588.4Q248.9 587.1 249.4 586.4Q249.8 585.7 249.8 584.9L249.8 584.9Q249.8 583.9 249.2 583.3Q248.5 582.7 247.5 582.7L247.5 582.7Q245.6 582.7 244.9 584.6L244.9 584.6Q244.7 585.0 244.4 585.2Q244.2 585.4 243.7 585.4L243.7 585.4Q243.2 585.4 242.9 585.1Q242.6 584.8 242.6 584.3L242.6 584.3Q242.6 584.1 242.7 583.8L242.7 583.8Q242.9 583.2 243.2 582.7Q243.6 582.1 244.2 581.7Q244.8 581.2 245.7 580.9Q246.5 580.7 247.5 580.7L247.5 580.7Q249.6 580.7 251.0 581.8Q252.3 582.9 252.3 584.7L252.3 584.7Q252.3 585.9 251.6 586.9Q251.0 588.0 249.2 589.8L249.2 589.8L245.9 592.9L245.9 593.0L251.6 593.0Q252.1 593.0 252.4 593.3Q252.6 593.5 252.6 594.0Q252.6 594.5 252.4 594.8Q252.1 595.0 251.6 595.0L251.6 595.0ZM259.6 595.3L259.6 595.3Q258.0 595.3 256.7 594.6Q255.4 593.9 254.9 592.8L254.9 592.8Q254.6 592.3 254.6 591.8L254.6 591.8Q254.6 591.3 254.9 591.0Q255.2 590.7 255.7 590.7L255.7 590.7Q256.1 590.7 256.4 590.9Q256.6 591.1 256.8 591.5L256.8 591.5Q257.2 592.3 257.9 592.8Q258.6 593.3 259.6 593.3L259.6 593.3Q260.9 593.3 261.7 592.5Q262.5 591.7 262.5 590.4L262.5 590.4Q262.5 589.2 261.7 588.4Q260.9 587.7 259.6 587.7L259.6 587.7Q258.3 587.7 257.4 588.5L257.4 588.5Q257.0 589.0 256.7 589.1Q256.4 589.3 256.0 589.3L256.0 589.3Q255.4 589.3 255.1 588.9Q254.8 588.5 254.8 588.0L254.8 588.0Q254.8 587.9 254.8 587.8L254.8 587.8L255.3 582.5Q255.4 581.7 255.8 581.3Q256.2 581.0 257.0 581.0L257.0 581.0L263.1 581.0Q263.6 581.0 263.9 581.2Q264.2 581.5 264.2 582.0L264.2 582.0Q264.2 582.4 263.9 582.7Q263.6 583.0 263.1 583.0L263.1 583.0L257.4 583.0L257.1 587.2L257.1 587.2Q257.6 586.5 258.4 586.1Q259.2 585.8 260.3 585.8L260.3 585.8Q262.3 585.8 263.6 587.0Q264.9 588.3 264.9 590.4L264.9 590.4Q264.9 592.6 263.4 593.9Q261.9 595.3 259.6 595.3Z " clip-path="url(#satori_cp-id-0)" mask="url(#satori_om-id-0)"/><mask id="satori_om-id-0-1-1"><rect x="800" y="557" width="352" height="26" fill="#fff" mask="url(#satori_om-id-0)"/></mask><path fill="#334155" d="M803.4 577.8Q803.1 578.2 802.5 578.2Q801.9 578.2 801.5 577.8Q801.2 577.5 801.2 576.8L801.2 576.8L801.2 563.6Q801.2 563.0 801.5 562.6Q801.9 562.2 802.5 562.2Q803.1 562.2 803.5 562.6Q803.8 563.0 803.8 563.6L803.8 563.6L803.8 568.5L803.9 568.5Q804.4 567.5 805.3 566.9Q806.3 566.4 807.5 566.4L807.5 566.4Q809.6 566.4 810.9 568.0Q812.2 569.5 812.2 572.3L812.2 572.3Q812.2 575.0 810.9 576.6Q809.6 578.1 807.5 578.1L807.5 578.1Q806.2 578.1 805.3 577.6Q804.4 577.0 803.8 576.0L803.8 576.0L803.8 576.0L803.8 576.8Q803.8 577.5 803.4 577.8ZM806.6 575.9L806.6 575.9Q807.9 575.9 808.7 574.9Q809.4 574.0 809.4 572.3Q809.4 570.6 808.7 569.6Q807.9 568.6 806.6 568.6L806.6 568.6Q805.4 568.6 804.6 569.6Q803.8 570.6 803.8 572.3L803.8 572.3Q803.8 573.9 804.6 574.9Q805.4 575.9 806.6 575.9ZM815.5 582.2L815.5 582.2Q814.6 582.2 814.1 581.9Q813.7 581.5 813.7 580.9L813.7 580.9Q813.7 580.5 813.9 580.3Q814.2 580.0 814.7 580.0L814.7 580.0Q814.8 580.0 815.0 580.0Q815.1 580.0 815.3 580.0L815.3 580.0Q816.3 580.0 816.9 578.7L816.9 578.7L817.1 578.2L813.3 568.3Q813.2 567.9 813.2 567.6L813.2 567.6Q813.2 567.0 813.6 566.7Q814.0 566.3 814.6 566.3L814.6 566.3Q815.1 566.3 815.4 566.6Q815.7 566.8 815.8 567.4L815.8 567.4L818.6 575.7L818.6 575.7L821.3 567.4Q821.5 566.8 821.8 566.6Q822.1 566.3 822.6 566.3L822.6 566.3Q823.2 566.3 823.5 566.7Q823.9 567.0 823.9 567.5L823.9 567.5Q823.9 567.9 823.8 568.3L823.8 568.3L820.0 578.4Q819.2 580.5 818.2 581.3Q817.2 582.2 815.5 582.2Z M840.4 577.9L831.1 577.9Q830.5 577.9 830.1 577.6Q829.7 577.2 829.7 576.6L829.7 576.6Q829.7 576.1 830.1 575.5L830.1 575.5L837.9 564.9L837.9 564.8L831.0 564.8Q830.4 564.8 830.1 564.5Q829.7 564.2 829.7 563.6Q829.7 563.1 830.1 562.8Q830.4 562.4 831.0 562.4L831.0 562.4L839.8 562.4Q840.5 562.4 840.9 562.8Q841.3 563.2 841.3 563.8L841.3 563.8Q841.3 564.3 840.8 564.9L840.8 564.9L833.1 575.5L833.1 575.6L840.4 575.6Q840.9 575.6 841.3 575.9Q841.6 576.2 841.6 576.8Q841.6 577.3 841.3 577.6Q840.9 577.9 840.4 577.9L840.4 577.9ZM845.9 577.8Q845.6 578.2 845.0 578.2Q844.4 578.2 844.0 577.8Q843.6 577.4 843.6 576.8L843.6 576.8L843.6 563.6Q843.6 563.0 844.0 562.6Q844.3 562.2 844.9 562.2L844.9 562.2Q845.6 562.2 845.9 562.6Q846.3 563.0 846.3 563.6L846.3 563.6L846.3 568.5L846.3 568.5Q846.8 567.5 847.7 566.9Q848.6 566.3 849.9 566.3L849.9 566.3Q851.8 566.3 852.8 567.5Q853.9 568.6 853.9 570.6L853.9 570.6L853.9 576.8Q853.9 577.4 853.5 577.8Q853.2 578.2 852.6 578.2Q851.9 578.2 851.6 577.8Q851.2 577.4 851.2 576.8L851.2 576.8L851.2 571.2Q851.2 569.9 850.6 569.3Q850.0 568.6 848.9 568.6L848.9 568.6Q847.7 568.6 847.0 569.4Q846.3 570.1 846.3 571.4L846.3 571.4L846.3 576.8Q846.3 577.4 845.9 577.8ZM865.1 576.6Q863.6 578.2 861.1 578.2Q858.5 578.2 857.1 576.6Q855.6 575.0 855.6 572.3L855.6 572.3Q855.6 569.5 857.1 567.9Q858.6 566.3 861.1 566.3L861.1 566.3Q863.6 566.3 865.1 567.9Q866.6 569.5 866.6 572.3L866.6 572.3Q866.6 575.0 865.1 576.6ZM859.0 575.1Q859.8 576.1 861.1 576.1Q862.4 576.1 863.1 575.1Q863.9 574.1 863.9 572.3L863.9 572.3Q863.9 570.5 863.1 569.5Q862.4 568.5 861.1 568.5L861.1 568.5Q859.8 568.5 859.0 569.5Q858.3 570.5 858.3 572.3L858.3 572.3Q858.3 574.1 859.0 575.1ZM872.3 578.2L872.3 578.2Q870.4 578.2 869.3 577.0Q868.2 575.9 868.2 573.9L868.2 573.9L868.2 567.7Q868.2 567.1 868.6 566.7Q869.0 566.3 869.6 566.3Q870.2 566.3 870.5 566.7Q870.9 567.1 870.9 567.8L870.9 567.8L870.9 573.4Q870.9 574.6 871.5 575.3Q872.1 575.9 873.2 575.9L873.2 575.9Q874.4 575.9 875.0 575.1Q875.7 574.4 875.7 573.1L875.7 573.1L875.7 567.7Q875.7 567.1 876.1 566.7Q876.5 566.3 877.1 566.3L877.1 566.3Q877.7 566.3 878.0 566.7Q878.4 567.1 878.4 567.8L878.4 567.8L878.4 576.8Q878.4 577.4 878.0 577.8Q877.7 578.2 877.1 578.2L877.1 578.2Q876.5 578.2 876.2 577.8Q875.8 577.4 875.8 576.8L875.8 576.8L875.8 576.0L875.8 576.0Q874.8 578.2 872.3 578.2ZM882.5 575.2L882.5 575.2Q883.0 575.2 883.3 575.5Q883.7 575.8 883.7 576.3L883.7 576.3Q883.7 576.6 883.6 576.9L883.6 576.9L882.7 580.6Q882.5 581.1 882.3 581.3Q882.0 581.5 881.6 581.5Q881.1 581.5 880.8 581.2Q880.5 581.0 880.6 580.5L880.6 580.5Q880.6 580.4 880.6 580.3L880.6 580.3L881.2 576.3Q881.4 575.2 882.5 575.2Z M901.5 577.9L892.2 577.9Q891.6 577.9 891.2 577.6Q890.8 577.2 890.8 576.6L890.8 576.6Q890.8 576.1 891.2 575.5L891.2 575.5L899.0 564.9L899.0 564.8L892.1 564.8Q891.5 564.8 891.2 564.5Q890.8 564.2 890.8 563.6Q890.8 563.1 891.2 562.8Q891.5 562.4 892.1 562.4L892.1 562.4L900.9 562.4Q901.6 562.4 902.0 562.8Q902.4 563.2 902.4 563.8L902.4 563.8Q902.4 564.3 901.9 564.9L901.9 564.9L894.2 575.5L894.2 575.6L901.5 575.6Q902.1 575.6 902.4 575.9Q902.8 576.2 902.8 576.8Q902.8 577.3 902.4 577.6Q902.1 577.9 901.5 577.9L901.5 577.9ZM906.5 578.1L906.5 578.1Q905.9 578.1 905.4 577.6Q905.0 577.2 905.0 576.5L905.0 576.5Q905.0 575.9 905.4 575.4Q905.9 575.0 906.5 575.0L906.5 575.0Q907.2 575.0 907.6 575.4Q908.1 575.9 908.1 576.5L908.1 576.5Q908.1 577.2 907.6 577.6Q907.2 578.1 906.5 578.1ZM912.5 575.2L912.5 575.2Q913.0 575.2 913.3 575.5Q913.7 575.8 913.7 576.3L913.7 576.3Q913.7 576.6 913.6 576.9L913.6 576.9L912.7 580.6Q912.5 581.1 912.3 581.3Q912.0 581.5 911.6 581.5Q911.1 581.5 910.8 581.2Q910.5 581.0 910.6 580.5L910.6 580.5Q910.6 580.4 910.6 580.3L910.6 580.3L911.2 576.3Q911.4 575.2 912.5 575.2Z M925.1 578.2L925.1 578.2Q923.5 578.2 922.2 577.5Q921 576.7 920.5 575.4L920.5 575.4Q920.3 574.8 920.3 574.2L920.3 574.2Q920.3 573.6 920.6 573.2Q921.0 572.9 921.5 572.9L921.5 572.9Q922.1 572.9 922.4 573.2Q922.7 573.4 922.9 574.0L922.9 574.0Q923.1 574.9 923.7 575.3Q924.3 575.8 925.1 575.8L925.1 575.8Q926.2 575.8 926.8 575.1Q927.4 574.5 927.4 573.2L927.4 573.2L927.4 563.7Q927.4 563.0 927.7 562.6Q928.1 562.3 928.8 562.3L928.8 562.3Q929.4 562.3 929.8 562.6Q930.1 563.0 930.1 563.7L930.1 563.7L930.1 573.2Q930.1 575.6 928.8 576.9Q927.5 578.2 925.1 578.2ZM935.1 564.5Q934.7 565.0 934.1 565.0Q933.5 565.0 933.0 564.5Q932.6 564.1 932.6 563.5L932.6 563.5Q932.6 562.9 933.0 562.5Q933.5 562.1 934.1 562.1L934.1 562.1Q934.7 562.1 935.1 562.5Q935.6 562.9 935.6 563.5L935.6 563.5Q935.6 564.1 935.1 564.5ZM935.1 577.8Q934.7 578.2 934.1 578.2Q933.5 578.2 933.1 577.8Q932.7 577.4 932.7 576.8L932.7 576.8L932.7 567.7Q932.7 567.1 933.1 566.7Q933.5 566.3 934.1 566.3Q934.7 566.3 935.1 566.7Q935.4 567.1 935.4 567.8L935.4 567.8L935.4 576.8Q935.4 577.4 935.1 577.8ZM940.0 577.8Q939.6 578.2 939.0 578.2Q938.4 578.2 938.0 577.8Q937.7 577.4 937.7 576.8L937.7 576.8L937.7 567.7Q937.7 567.1 938.0 566.7Q938.3 566.3 938.9 566.3Q939.5 566.3 939.9 566.7Q940.3 567.1 940.3 567.7L940.3 567.7L940.3 568.5L940.3 568.5Q941.3 566.3 943.9 566.3L943.9 566.3Q945.7 566.3 946.8 567.5Q947.8 568.6 947.8 570.6L947.8 570.6L947.8 576.8Q947.8 577.4 947.4 577.8Q947.1 578.2 946.5 578.2Q945.9 578.2 945.5 577.8Q945.1 577.4 945.1 576.8L945.1 576.8L945.1 571.1Q945.1 569.9 944.6 569.3Q944.0 568.6 942.8 568.6L942.8 568.6Q941.7 568.6 941.0 569.4Q940.3 570.1 940.3 571.4L940.3 571.4L940.3 576.8Q940.3 577.4 940.0 577.8ZM951.8 575.2L951.8 575.2Q952.4 575.2 952.7 575.5Q953.0 575.8 953.0 576.3L953.0 576.3Q953.0 576.6 952.9 576.9L952.9 576.9L952.0 580.6Q951.9 581.1 951.6 581.3Q951.4 581.5 950.9 581.5Q950.4 581.5 950.2 581.2Q949.9 581.0 949.9 580.5L949.9 580.5Q949.9 580.4 949.9 580.3L949.9 580.3L950.6 576.3Q950.7 575.2 951.8 575.2Z M966.3 578.1L966.3 578.1Q965.6 578.1 965.3 577.8Q964.9 577.4 964.9 576.7L964.9 576.7L964.9 571.8L960.0 564.5Q959.8 564.0 959.8 563.5L959.8 563.5Q959.8 563.0 960.2 562.6Q960.6 562.3 961.1 562.3L961.1 562.3Q961.6 562.3 961.9 562.4Q962.1 562.6 962.4 563.1L962.4 563.1L966.3 569.2L966.3 569.2L970.2 563.1Q970.4 562.6 970.7 562.4Q971.0 562.3 971.4 562.3L971.4 562.3Q972.0 562.3 972.4 562.6Q972.8 563.0 972.8 563.5L972.8 563.5Q972.8 564.0 972.5 564.5L972.5 564.5L967.7 571.8L967.7 576.7Q967.7 577.4 967.3 577.8Q966.9 578.1 966.3 578.1ZM976.3 578.1L976.3 578.1Q975.7 578.1 975.2 577.6Q974.8 577.2 974.8 576.5L974.8 576.5Q974.8 575.9 975.2 575.4Q975.7 575.0 976.3 575.0L976.3 575.0Q977.0 575.0 977.4 575.4Q977.9 575.9 977.9 576.5L977.9 576.5Q977.9 577.2 977.4 577.6Q977.0 578.1 976.3 578.1ZM982.3 575.2L982.3 575.2Q982.8 575.2 983.1 575.5Q983.5 575.8 983.5 576.3L983.5 576.3Q983.5 576.6 983.4 576.9L983.4 576.9L982.5 580.6Q982.4 581.1 982.1 581.3Q981.8 581.5 981.4 581.5Q980.9 581.5 980.6 581.2Q980.4 581.0 980.4 580.5L980.4 580.5Q980.4 580.4 980.4 580.3L980.4 580.3L981.0 576.3Q981.2 575.2 982.3 575.2Z M994.1 578.1L994.1 578.1Q992.4 578.1 991.3 577.2Q990.3 576.2 990.3 574.7L990.3 574.7Q990.3 573.2 991.4 572.3Q992.5 571.4 994.6 571.3L994.6 571.3L997.6 571.1L997.6 570.3Q997.6 569.4 997.0 568.9Q996.5 568.4 995.5 568.4L995.5 568.4Q994.7 568.4 994.1 568.7Q993.6 569.0 993.1 569.8L993.1 569.8Q992.7 570.3 992.0 570.3L992.0 570.3Q991.5 570.3 991.2 570.0Q990.9 569.7 990.9 569.2L990.9 569.2Q990.9 568.9 991.1 568.5L991.1 568.5Q991.5 567.5 992.7 566.9Q994.0 566.3 995.6 566.3L995.6 566.3Q997.7 566.3 999.0 567.4Q1000.2 568.4 1000.2 570.1L1000.2 570.1L1000.2 576.8Q1000.2 577.5 999.9 577.8Q999.5 578.2 998.9 578.2L998.9 578.2Q998.4 578.2 998.0 577.8Q997.7 577.5 997.7 576.9L997.7 576.9L997.7 576.1L997.6 576.1Q997.1 577.0 996.2 577.6Q995.2 578.1 994.1 578.1ZM994.9 576.1L994.9 576.1Q996.0 576.1 996.8 575.4Q997.6 574.7 997.6 573.7L997.6 573.7L997.6 572.9L995.0 573.0Q994.0 573.1 993.5 573.5Q992.9 573.9 992.9 574.6L992.9 574.6Q992.9 575.3 993.5 575.7Q994.0 576.1 994.9 576.1ZM1004.7 577.8Q1004.3 578.2 1003.7 578.2Q1003.1 578.2 1002.8 577.8Q1002.4 577.4 1002.4 576.8L1002.4 576.8L1002.4 567.7Q1002.4 567.1 1002.7 566.7Q1003.1 566.3 1003.7 566.3Q1004.3 566.3 1004.6 566.7Q1005.0 567.1 1005.0 567.7L1005.0 567.7L1005.0 568.5L1005.0 568.5Q1006.0 566.3 1008.6 566.3L1008.6 566.3Q1010.5 566.3 1011.5 567.5Q1012.5 568.6 1012.5 570.6L1012.5 570.6L1012.5 576.8Q1012.5 577.4 1012.2 577.8Q1011.8 578.2 1011.2 578.2Q1010.6 578.2 1010.2 577.8Q1009.9 577.4 1009.9 576.8L1009.9 576.8L1009.9 571.1Q1009.9 569.9 1009.3 569.3Q1008.7 568.6 1007.6 568.6L1007.6 568.6Q1006.4 568.6 1005.8 569.4Q1005.1 570.1 1005.1 571.4L1005.1 571.4L1005.1 576.8Q1005.1 577.4 1004.7 577.8ZM1018.9 578.1L1018.9 578.1Q1016.8 578.1 1015.5 576.5Q1014.2 575.0 1014.2 572.2L1014.2 572.2Q1014.2 569.5 1015.5 568.0Q1016.8 566.4 1018.9 566.4L1018.9 566.4Q1020.1 566.4 1021.1 566.9Q1022.0 567.5 1022.4 568.5L1022.4 568.5L1022.5 568.5L1022.5 563.6Q1022.5 563.0 1022.9 562.6Q1023.2 562.2 1023.8 562.2Q1024.4 562.2 1024.8 562.6Q1025.2 563.0 1025.2 563.6L1025.2 563.6L1025.2 576.8Q1025.2 577.5 1024.8 577.8Q1024.5 578.2 1023.9 578.2L1023.9 578.2Q1023.3 578.2 1022.9 577.8Q1022.5 577.5 1022.5 576.8L1022.5 576.8L1022.5 575.9L1022.5 575.9Q1022.0 576.9 1021.1 577.5Q1020.2 578.1 1018.9 578.1ZM1019.7 575.9L1019.7 575.9Q1021.0 575.9 1021.8 574.9Q1022.5 573.9 1022.5 572.3L1022.5 572.3Q1022.5 570.6 1021.8 569.6Q1021.0 568.6 1019.7 568.6L1019.7 568.6Q1018.4 568.6 1017.7 569.6Q1016.9 570.6 1016.9 572.3L1016.9 572.3Q1016.9 574.0 1017.7 575.0Q1018.4 575.9 1019.7 575.9Z M1033.5 578.1L1033.5 578.1Q1032.8 578.1 1032.5 577.7Q1032.1 577.4 1032.1 576.7L1032.1 576.7L1032.1 563.9Q1032.1 563.2 1032.5 562.8Q1032.8 562.4 1033.5 562.4L1033.5 562.4L1038.1 562.4Q1040.5 562.4 1041.9 563.9Q1043.4 565.3 1043.4 567.6L1043.4 567.6Q1043.4 569.9 1041.9 571.4Q1040.4 572.8 1038.0 572.8L1038.0 572.8L1034.9 572.8L1034.9 576.7Q1034.9 577.4 1034.5 577.8Q1034.1 578.1 1033.5 578.1ZM1034.9 564.7L1034.9 570.6L1037.4 570.6Q1038.9 570.6 1039.7 569.8Q1040.5 569.0 1040.5 567.6L1040.5 567.6Q1040.5 566.2 1039.7 565.5Q1038.9 564.7 1037.4 564.7L1037.4 564.7L1034.9 564.7ZM1047.4 577.8Q1047.0 578.2 1046.4 578.2Q1045.8 578.2 1045.5 577.8Q1045.1 577.4 1045.1 576.8L1045.1 576.8L1045.1 567.7Q1045.1 567.1 1045.5 566.7Q1045.8 566.3 1046.4 566.3L1046.4 566.3Q1046.9 566.3 1047.3 566.7Q1047.7 567.1 1047.7 567.7L1047.7 567.7L1047.7 568.6L1047.7 568.6Q1047.9 567.6 1048.6 567.0Q1049.3 566.4 1050.1 566.4L1050.1 566.4Q1050.8 566.4 1051.1 566.7L1051.1 566.7Q1051.5 567.0 1051.5 567.6L1051.5 567.6Q1051.5 568.2 1051.1 568.6L1051.1 568.6Q1050.7 568.9 1049.9 568.9L1049.9 568.9Q1047.8 568.9 1047.8 571.3L1047.8 571.3L1047.8 576.8Q1047.8 577.4 1047.4 577.8ZM1056.0 578.1L1056.0 578.1Q1054.3 578.1 1053.3 577.2Q1052.2 576.2 1052.2 574.7L1052.2 574.7Q1052.2 573.2 1053.3 572.3Q1054.5 571.4 1056.5 571.3L1056.5 571.3L1059.6 571.1L1059.6 570.3Q1059.6 569.4 1059.0 568.9Q1058.4 568.4 1057.4 568.4L1057.4 568.4Q1056.6 568.4 1056.1 568.7Q1055.5 569.0 1055.0 569.8L1055.0 569.8Q1054.6 570.3 1054.0 570.3L1054.0 570.3Q1053.5 570.3 1053.1 570.0Q1052.8 569.7 1052.8 569.2L1052.8 569.2Q1052.8 568.9 1053.0 568.5L1053.0 568.5Q1053.4 567.5 1054.7 566.9Q1055.9 566.3 1057.5 566.3L1057.5 566.3Q1059.6 566.3 1060.9 567.4Q1062.2 568.4 1062.2 570.1L1062.2 570.1L1062.2 576.8Q1062.2 577.5 1061.8 577.8Q1061.5 578.2 1060.9 578.2L1060.9 578.2Q1060.3 578.2 1060.0 577.8Q1059.6 577.5 1059.6 576.9L1059.6 576.9L1059.6 576.1L1059.6 576.1Q1059.1 577.0 1058.1 577.6Q1057.1 578.1 1056.0 578.1ZM1056.8 576.1L1056.8 576.1Q1058.0 576.1 1058.8 575.4Q1059.6 574.7 1059.6 573.7L1059.6 573.7L1059.6 572.9L1056.9 573.0Q1055.9 573.1 1055.4 573.5Q1054.9 573.9 1054.9 574.6L1054.9 574.6Q1054.9 575.3 1055.4 575.7Q1055.9 576.1 1056.8 576.1ZM1068.9 578.2L1068.9 578.2Q1068.2 578.2 1067.7 577.8Q1067.3 577.5 1067.0 576.8L1067.0 576.8L1063.8 568.3Q1063.7 567.9 1063.7 567.5L1063.7 567.5Q1063.7 567.0 1064.0 566.7Q1064.4 566.3 1065.0 566.3L1065.0 566.3Q1066.0 566.3 1066.3 567.4L1066.3 567.4L1068.9 575.5L1068.9 575.5L1071.5 567.4Q1071.8 566.3 1072.8 566.3L1072.8 566.3Q1073.3 566.3 1073.7 566.7Q1074.1 567.0 1074.1 567.5L1074.1 567.5Q1074.1 567.9 1073.9 568.3L1073.9 568.3L1070.7 576.8Q1070.5 577.5 1070.1 577.8Q1069.6 578.2 1068.9 578.2ZM1080.7 578.2L1080.7 578.2Q1078.0 578.2 1076.6 576.6Q1075.1 575.1 1075.1 572.3L1075.1 572.3Q1075.1 569.6 1076.6 567.9Q1078.0 566.3 1080.5 566.3L1080.5 566.3Q1082.8 566.3 1084.3 567.8Q1085.7 569.3 1085.7 571.6L1085.7 571.6Q1085.7 572.2 1085.4 572.6Q1085.1 572.9 1084.5 572.9L1084.5 572.9L1077.8 572.9L1077.8 573.0Q1077.8 574.4 1078.6 575.3Q1079.3 576.1 1080.6 576.1L1080.6 576.1Q1081.5 576.1 1082.2 575.8Q1082.8 575.4 1083.5 574.6L1083.5 574.6Q1083.9 574.2 1084.4 574.2L1084.4 574.2Q1084.8 574.2 1085.1 574.4Q1085.5 574.7 1085.5 575.2L1085.5 575.2Q1085.5 575.5 1085.3 575.9L1085.3 575.9Q1084.7 577.0 1083.5 577.6Q1082.3 578.2 1080.7 578.2ZM1077.8 571.1L1077.8 571.1L1083.1 571.1Q1083.1 569.9 1082.4 569.1Q1081.6 568.4 1080.5 568.4Q1079.4 568.4 1078.6 569.2Q1077.9 569.9 1077.8 571.1ZM1092.5 578.2L1092.5 578.2Q1089.9 578.2 1088.4 576.6Q1087.0 575.1 1087.0 572.3L1087.0 572.3Q1087.0 569.6 1088.4 567.9Q1089.9 566.3 1092.4 566.3L1092.4 566.3Q1094.7 566.3 1096.2 567.8Q1097.6 569.3 1097.6 571.6L1097.6 571.6Q1097.6 572.2 1097.3 572.6Q1097.0 572.9 1096.4 572.9L1096.4 572.9L1089.7 572.9L1089.7 573.0Q1089.7 574.4 1090.4 575.3Q1091.2 576.1 1092.5 576.1L1092.5 576.1Q1093.4 576.1 1094.1 575.8Q1094.7 575.4 1095.3 574.6L1095.3 574.6Q1095.7 574.2 1096.2 574.2L1096.2 574.2Q1096.7 574.2 1097.0 574.4Q1097.3 574.7 1097.3 575.2L1097.3 575.2Q1097.3 575.5 1097.1 575.9L1097.1 575.9Q1096.6 577.0 1095.4 577.6Q1094.1 578.2 1092.5 578.2ZM1089.7 571.1L1089.7 571.1L1095.0 571.1Q1094.9 569.9 1094.2 569.1Q1093.5 568.4 1092.4 568.4Q1091.3 568.4 1090.5 569.2Q1089.7 569.9 1089.7 571.1ZM1101.6 577.8Q1101.3 578.2 1100.7 578.2Q1100.1 578.2 1099.7 577.8Q1099.3 577.4 1099.3 576.8L1099.3 576.8L1099.3 567.7Q1099.3 567.1 1099.7 566.7Q1100.0 566.3 1100.6 566.3Q1101.2 566.3 1101.6 566.7Q1101.9 567.1 1101.9 567.7L1101.9 567.7L1101.9 568.5L1102.0 568.5Q1103.0 566.3 1105.5 566.3L1105.5 566.3Q1107.4 566.3 1108.4 567.5Q1109.5 568.6 1109.5 570.6L1109.5 570.6L1109.5 576.8Q1109.5 577.4 1109.1 577.8Q1108.7 578.2 1108.1 578.2Q1107.5 578.2 1107.2 577.8Q1106.8 577.4 1106.8 576.8L1106.8 576.8L1106.8 571.1Q1106.8 569.9 1106.2 569.3Q1105.6 568.6 1104.5 568.6L1104.5 568.6Q1103.4 568.6 1102.7 569.4Q1102.0 570.1 1102.0 571.4L1102.0 571.4L1102.0 576.8Q1102.0 577.4 1101.6 577.8ZM1115.0 578.1L1115.0 578.1Q1113.3 578.1 1112.2 577.2Q1111.1 576.2 1111.1 574.7L1111.1 574.7Q1111.1 573.2 1112.3 572.3Q1113.4 571.4 1115.5 571.3L1115.5 571.3L1118.5 571.1L1118.5 570.3Q1118.5 569.4 1117.9 568.9Q1117.4 568.4 1116.4 568.4L1116.4 568.4Q1115.6 568.4 1115.0 568.7Q1114.5 569.0 1114.0 569.8L1114.0 569.8Q1113.6 570.3 1112.9 570.3L1112.9 570.3Q1112.4 570.3 1112.1 570.0Q1111.8 569.7 1111.8 569.2L1111.8 569.2Q1111.8 568.9 1112.0 568.5L1112.0 568.5Q1112.4 567.5 1113.6 566.9Q1114.8 566.3 1116.5 566.3L1116.5 566.3Q1118.6 566.3 1119.9 567.4Q1121.1 568.4 1121.1 570.1L1121.1 570.1L1121.1 576.8Q1121.1 577.5 1120.8 577.8Q1120.4 578.2 1119.8 578.2L1119.8 578.2Q1119.3 578.2 1118.9 577.8Q1118.6 577.5 1118.6 576.9L1118.6 576.9L1118.6 576.1L1118.5 576.1Q1118.0 577.0 1117.0 577.6Q1116.1 578.1 1115.0 578.1ZM1115.8 576.1L1115.8 576.1Q1116.9 576.1 1117.7 575.4Q1118.5 574.7 1118.5 573.7L1118.5 573.7L1118.5 572.9L1115.9 573.0Q1114.9 573.1 1114.4 573.5Q1113.8 573.9 1113.8 574.6L1113.8 574.6Q1113.8 575.3 1114.4 575.7Q1114.9 576.1 1115.8 576.1ZM1125.2 575.2L1125.2 575.2Q1125.7 575.2 1126.0 575.5Q1126.4 575.8 1126.4 576.3L1126.4 576.3Q1126.4 576.6 1126.3 576.9L1126.3 576.9L1125.4 580.6Q1125.3 581.1 1125.0 581.3Q1124.7 581.5 1124.3 581.5Q1123.8 581.5 1123.5 581.2Q1123.2 581.0 1123.3 580.5L1123.3 580.5Q1123.3 580.4 1123.3 580.3L1123.3 580.3L1123.9 576.3Q1124.1 575.2 1125.2 575.2Z M1135.3 578.1L1135.3 578.1Q1134.6 578.1 1134.2 577.7Q1133.9 577.4 1133.9 576.7L1133.9 576.7L1133.9 563.9Q1133.9 563.2 1134.2 562.8Q1134.6 562.4 1135.3 562.4L1135.3 562.4L1139.9 562.4Q1142.2 562.4 1143.7 563.9Q1145.1 565.3 1145.1 567.6L1145.1 567.6Q1145.1 569.9 1143.6 571.4Q1142.1 572.8 1139.8 572.8L1139.8 572.8L1136.6 572.8L1136.6 576.7Q1136.6 577.4 1136.3 577.8Q1135.9 578.1 1135.3 578.1ZM1136.6 564.7L1136.6 570.6L1139.2 570.6Q1140.7 570.6 1141.5 569.8Q1142.3 569.0 1142.3 567.6L1142.3 567.6Q1142.3 566.2 1141.5 565.5Q1140.7 564.7 1139.2 564.7L1139.2 564.7L1136.6 564.7ZM1148.7 578.1L1148.7 578.1Q1148.1 578.1 1147.6 577.6Q1147.2 577.2 1147.2 576.5L1147.2 576.5Q1147.2 575.9 1147.6 575.4Q1148.1 575.0 1148.7 575.0L1148.7 575.0Q1149.4 575.0 1149.8 575.4Q1150.3 575.9 1150.3 576.5L1150.3 576.5Q1150.3 577.2 1149.8 577.6Q1149.4 578.1 1148.7 578.1Z " clip-path="url(#satori_cp-id-0)" mask="url(#satori_om-id-0)"/></svg>