<svg width="1200" height="630" viewBox="0 0 1200 630" xmlns="http://www.w3.org/2000/svg"><mask id="satori_om-id"><rect x="0" y="0" width="1200" height="630" fill="#fff"/></mask><defs><pattern id="satori_pattern_id-0_0" x="0" y="0" width="1" height="1" patternUnits="objectBoundingBox"><linearGradient id="satori_biid-0_0" x1="-0.09774620284174435" y1="0.18618324350808482" x2="1.0977462028417444" y2="0.8138167564919152" spreadMethod="pad"><stop offset="0%" stop-color="#f8fafc"/><stop offset="50%" stop-color="#eef2ff"/><stop offset="100%" stop-color="#ffffff"/></linearGradient><rect x="0" y="0" width="1200" height="630" fill="url(#satori_biid-0_0)"/></pattern></defs><clipPath id="satori_cp-id-0"><rect x="0" y="0" width="1200" height="630"/></clipPath><mask id="satori_om-id-0"><rect x="0" y="0" width="1200" height="630" fill="#fff"/></mask><rect x="0" y="0" width="1200" height="630" fill="url(#satori_pattern_id-0_0)"/><mask id="satori_om-id-0-0"><rect x="0" y="0" width="1200" height="509" fill="#fff" mask="url(#satori_om-id-0)"/></mask><mask id="satori_om-id-0-0-0"><rect x="72" y="72" width="1056" height="365" fill="#fff" mask="url(#satori_om-id-0)"/></mask><mask id="satori_om-id-0-0-0-0"><rect x="72" y="113" width="1056" height="38" fill="#fff" mask="url(#satori_om-id-0)"/></mask><path fill="#64748b" d="M82.7 143.2Q82.2 143.7 81.4 143.7Q80.6 143.7 80.1 143.2Q79.7 142.8 79.7 141.9L79.7 141.9L79.7 124.0L74.1 124.0Q73.4 124.0 73.0 123.5Q72.5 123.1 72.5 122.4Q72.5 121.8 73.0 121.3Q73.4 120.9 74.1 120.9L74.1 120.9L88.7 120.9Q89.4 120.9 89.9 121.3Q90.3 121.8 90.3 122.4Q90.3 123.1 89.9 123.5Q89.4 124.0 88.7 124.0L88.7 124.0L83.2 124.0L83.2 141.9Q83.2 142.8 82.7 143.2ZM95.5 143.3Q95.1 143.8 94.3 143.8Q93.6 143.8 93.1 143.3Q92.6 142.8 92.6 142.0L92.6 142.0L92.6 122.4Q92.6 121.6 93.1 121.1Q93.5 120.6 94.3 120.6L94.3 120.6Q95.1 120.6 95.5 121.1Q96.0 121.6 96.0 122.4L96.0 122.4L96.0 129.8L96.0 129.8Q96.7 128.3 98.1 127.5Q99.4 126.8 101.3 126.8L101.3 126.8Q103.9 126.8 105.5 128.4Q107.0 130.1 107.0 132.9L107.0 132.9L107.0 142.0Q107.0 142.8 106.5 143.3Q106.1 143.8 105.3 143.8L105.3 143.8Q104.6 143.8 104.1 143.3Q103.6 142.8 103.6 142.0L103.6 142.0L103.6 133.5Q103.6 131.7 102.7 130.7Q101.8 129.7 100.0 129.7L100.0 129.7Q98.2 129.7 97.1 130.8Q96 132.0 96 134.0L96 134.0L96 142.0Q96 142.8 95.5 143.3ZM116.0 143.8L116.0 143.8Q113.3 143.8 111.7 142.1Q110.2 140.5 110.2 137.7L110.2 137.7L110.2 128.5Q110.2 127.7 110.6 127.2Q111.1 126.7 111.9 126.7L111.9 126.7Q112.6 126.7 113.1 127.2Q113.6 127.7 113.6 128.5L113.6 128.5L113.6 137.0Q113.6 138.9 114.5 139.9Q115.3 140.9 117.1 140.9L117.1 140.9Q118.9 140.9 119.9 139.7Q121.0 138.5 121.0 136.6L121.0 136.6L121.0 128.5Q121.0 127.7 121.5 127.2Q121.9 126.7 122.7 126.7L122.7 126.7Q123.4 126.7 123.9 127.2Q124.4 127.7 124.4 128.5L124.4 128.5L124.4 142.0Q124.4 142.8 123.9 143.3Q123.5 143.8 122.8 143.8Q122.0 143.8 121.6 143.3Q121.1 142.8 121.1 142.1L121.1 142.1L121.1 140.7L121.0 140.7Q119.6 143.8 116.0 143.8ZM129.4 143.8L129.4 143.8Q128.6 143.8 128.1 143.3Q127.7 142.8 127.7 142.0L127.7 142.0L127.7 128.4Q127.7 127.7 128.1 127.2Q128.6 126.7 129.3 126.7L129.3 126.7Q130 126.7 130.4 127.2Q130.9 127.7 130.9 128.4L130.9 128.4L130.9 129.8L131.0 129.8Q131.3 128.5 132.3 127.6Q133.3 126.8 134.6 126.8L134.6 126.8Q135.5 126.8 135.9 127.2L135.9 127.2Q136.4 127.5 136.4 128.4L136.4 128.4Q136.4 129.1 135.9 129.5L135.9 129.5Q135.4 130.0 134.3 130.0L134.3 130.0Q132.7 130 131.9 131.0Q131.1 132.0 131.1 133.6L131.1 133.6L131.1 142.0Q131.1 142.8 130.6 143.3Q130.1 143.8 129.4 143.8ZM144.3 143.8L144.3 143.8Q141.9 143.8 140.2 142.9Q138.5 142.0 137.9 140.4L137.9 140.4Q137.7 140.1 137.7 139.7L137.7 139.7Q137.7 139.1 138.1 138.8Q138.5 138.4 139.2 138.4L139.2 138.4Q140.0 138.4 140.6 139.3L140.6 139.3Q141.3 140.3 142.1 140.8Q143.0 141.2 144.4 141.2L144.4 141.2Q145.9 141.2 146.8 140.6Q147.6 140.0 147.6 139.0L147.6 139.0Q147.6 138.2 147.1 137.7Q146.5 137.3 145.2 136.9L145.2 136.9L142.6 136.3Q137.9 135.2 137.9 131.7L137.9 131.7Q137.9 129.4 139.7 128.1Q141.5 126.7 144.4 126.7L144.4 126.7Q146.6 126.7 148.2 127.7Q149.9 128.7 150.3 130.2L150.3 130.2Q150.3 130.6 150.3 130.7L150.3 130.7Q150.3 131.3 150.0 131.6Q149.6 131.9 149 131.9L149 131.9Q148.1 131.9 147.6 131.2L147.6 131.2Q147.1 130.3 146.3 129.8Q145.5 129.3 144.3 129.3L144.3 129.3Q142.9 129.3 142.0 129.9Q141.2 130.5 141.2 131.5L141.2 131.5Q141.2 133.0 143.7 133.6L143.7 133.6L146.3 134.2Q148.9 134.8 150.0 135.9Q151.0 136.9 151.0 138.7L151.0 138.7Q151.0 141.0 149.2 142.4Q147.3 143.8 144.3 143.8ZM159.8 143.8L159.8 143.8Q156.7 143.8 154.8 141.4Q152.9 139.1 152.9 135.3Q152.9 131.4 154.8 129.1Q156.7 126.8 159.8 126.8L159.8 126.8Q161.5 126.8 162.9 127.6Q164.3 128.4 165.0 129.8L165.0 129.8L165.0 129.8L165.0 122.4Q165.0 121.6 165.5 121.1Q166.0 120.6 166.7 120.6L166.7 120.6Q167.5 120.6 167.9 121.1Q168.4 121.6 168.4 122.4L168.4 122.4L168.4 142.1Q168.4 142.9 167.9 143.3Q167.5 143.8 166.7 143.8L166.7 143.8Q166 143.8 165.5 143.3Q165.0 142.9 165.0 142.1L165.0 142.1L165.0 140.5L165.0 140.5Q164.3 142.0 163 142.9Q161.7 143.8 159.8 143.8ZM160.7 140.9L160.7 140.9Q162.7 140.9 163.9 139.4Q165.0 137.8 165.0 135.3L165.0 135.3Q165.0 132.7 163.9 131.2Q162.7 129.6 160.7 129.6L160.7 129.6Q158.7 129.6 157.5 131.1Q156.4 132.7 156.4 135.3L156.4 135.3Q156.4 137.9 157.5 139.4Q158.7 140.9 160.7 140.9ZM176.7 143.8L176.7 143.8Q174.3 143.8 172.7 142.4Q171.2 141 171.2 138.8L171.2 138.8Q171.2 136.6 172.8 135.4Q174.4 134.1 177.3 133.9L177.3 133.9L181.8 133.7L181.8 132.4Q181.8 131.0 180.9 130.3Q180.1 129.5 178.5 129.5L178.5 129.5Q177.3 129.5 176.4 130.0Q175.6 130.5 174.9 131.6L174.9 131.6Q174.4 132.3 173.5 132.3L173.5 132.3Q172.9 132.3 172.5 131.9Q172.0 131.5 172.0 130.9L172.0 130.9Q172.0 130.3 172.3 129.8L172.3 129.8Q173.0 128.4 174.7 127.6Q176.4 126.7 178.6 126.7L178.6 126.7Q181.6 126.7 183.4 128.2Q185.2 129.7 185.2 132.1L185.2 132.1L185.2 142.1Q185.2 142.8 184.7 143.3Q184.3 143.8 183.5 143.8L183.5 143.8Q182.8 143.8 182.4 143.3Q182.0 142.9 181.9 142.2L181.9 142.2L181.9 140.8L181.9 140.8Q181.2 142.1 179.7 142.9Q178.3 143.8 176.7 143.8ZM177.6 141.1L177.6 141.1Q179.4 141.1 180.6 140.0Q181.8 138.9 181.8 137.3L181.8 137.3L181.8 136.0L177.8 136.3Q176.2 136.4 175.4 137.0Q174.6 137.6 174.6 138.7L174.6 138.7Q174.6 139.8 175.4 140.4Q176.3 141.1 177.6 141.1ZM190.5 149.6L190.5 149.6Q189.3 149.6 188.7 149.2Q188.0 148.8 188.0 148.0L188.0 148.0Q188.0 147.4 188.4 147.1Q188.8 146.8 189.4 146.8L189.4 146.8Q189.5 146.8 189.8 146.8Q190.0 146.8 190.2 146.8L190.2 146.8Q191.9 146.8 192.7 144.6L192.7 144.6L193.0 143.6L187.5 129.3Q187.4 128.7 187.4 128.3L187.4 128.3Q187.4 127.6 187.8 127.2Q188.3 126.7 189.1 126.7L189.1 126.7Q189.7 126.7 190.1 127.0Q190.5 127.3 190.7 128.0L190.7 128.0L194.9 140.4L194.9 140.4L199.1 128.0Q199.3 127.3 199.7 127.0Q200.1 126.7 200.8 126.7L200.8 126.7Q201.5 126.7 201.9 127.2Q202.4 127.6 202.4 128.3L202.4 128.3Q202.4 128.7 202.2 129.2L202.2 129.2L196.5 144.3Q195.4 147.3 194.1 148.4Q192.8 149.6 190.5 149.6ZM207.2 139.7L207.2 139.7Q207.9 139.7 208.3 140.0Q208.7 140.4 208.7 141.1L208.7 141.1Q208.7 141.5 208.6 142.0L208.6 142.0L207.3 147.3Q207.0 148.5 205.8 148.5L205.8 148.5Q205.2 148.5 204.9 148.1Q204.5 147.8 204.5 147.3L204.5 147.3Q204.5 147.1 204.5 146.9L204.5 146.9L205.5 141.1Q205.8 139.7 207.2 139.7Z M223.1 143.8L223.1 143.8Q222.4 143.8 222.0 143.4Q221.5 143.0 221.5 142.3L221.5 142.3Q221.5 141.8 221.8 141.2L221.8 141.2L230.9 124.0L230.9 123.9L220.4 123.9Q219.7 123.9 219.3 123.5Q218.8 123.1 218.8 122.4L218.8 122.4Q218.8 121.7 219.3 121.3Q219.7 120.9 220.4 120.9L220.4 120.9L232.3 120.9Q233.3 120.9 233.9 121.5Q234.5 122 234.5 122.9L234.5 122.9Q234.5 123.7 233.8 125.1L233.8 125.1L224.7 142.8Q224.4 143.3 224.1 143.5Q223.7 143.8 223.1 143.8Z M247.2 143.2Q246.7 143.7 245.9 143.7Q245.1 143.7 244.7 143.2Q244.2 142.8 244.2 141.9L244.2 141.9L244.2 122.6Q244.2 121.7 244.7 121.2Q245.2 120.7 246.1 120.7L246.1 120.7Q246.7 120.7 247.1 120.9Q247.5 121.2 248.0 121.8L248.0 121.8L259.1 137.5L259.2 137.5L259.2 122.5Q259.2 121.6 259.7 121.1Q260.1 120.7 260.9 120.7L260.9 120.7Q261.7 120.7 262.2 121.1Q262.6 121.6 262.6 122.5L262.6 122.5L262.6 141.9Q262.6 142.8 262.1 143.2Q261.6 143.7 260.8 143.7L260.8 143.7Q260.1 143.7 259.7 143.5Q259.3 143.3 258.9 142.6L258.9 142.6L247.8 126.9L247.6 126.9L247.6 141.9Q247.6 142.8 247.2 143.2ZM279.1 141.5Q277.0 143.8 273.4 143.8Q269.9 143.8 267.8 141.5Q265.6 139.2 265.6 135.3L265.6 135.3Q265.6 131.3 267.8 129.0Q269.9 126.7 273.4 126.7Q277.0 126.7 279.1 129.0Q281.2 131.3 281.2 135.3L281.2 135.3Q281.2 139.2 279.1 141.5ZM273.4 141L273.4 141Q275.4 141 276.6 139.5Q277.8 138.0 277.8 135.3L277.8 135.3Q277.8 132.5 276.6 131.0Q275.4 129.5 273.4 129.5Q271.4 129.5 270.2 131.0Q269.1 132.5 269.1 135.3L269.1 135.3Q269.1 138.0 270.2 139.5Q271.4 141 273.4 141ZM290.2 143.8L290.2 143.8Q289.3 143.8 288.7 143.4Q288.2 143.0 287.8 142.0L287.8 142.0L283.0 129.2Q282.8 128.7 282.8 128.3L282.8 128.3Q282.8 127.6 283.2 127.2Q283.7 126.7 284.5 126.7L284.5 126.7Q285.7 126.7 286.1 128.1L286.1 128.1L290.1 140.2L290.2 140.2L294.3 128.0Q294.7 126.7 295.9 126.7L295.9 126.7Q296.6 126.7 297.0 127.2Q297.5 127.6 297.5 128.3L297.5 128.3Q297.5 128.7 297.3 129.2L297.3 129.2L292.5 142.0Q292.1 142.9 291.6 143.4Q291.0 143.8 290.2 143.8ZM306.9 143.8L306.9 143.8Q303.2 143.8 301.1 141.5Q299.1 139.3 299.1 135.3L299.1 135.3Q299.1 131.4 301.1 129.1Q303.2 126.7 306.7 126.7L306.7 126.7Q310.0 126.7 312.0 128.9Q314.1 131 314.1 134.4L314.1 134.4Q314.1 135.2 313.6 135.6Q313.2 136.1 312.4 136.1L312.4 136.1L302.5 136.1L302.5 136.2Q302.5 138.4 303.6 139.7Q304.8 141.0 306.8 141.0L306.8 141.0Q308.2 141.0 309.2 140.5Q310.2 140.0 311.1 138.7L311.1 138.7Q311.6 138.1 312.3 138.1L312.3 138.1Q312.9 138.1 313.3 138.5Q313.7 138.9 313.7 139.5L313.7 139.5Q313.7 139.8 313.5 140.4L313.5 140.4Q312.6 142 310.9 142.9Q309.2 143.8 306.9 143.8ZM302.5 133.7L302.5 133.7L310.7 133.7Q310.6 131.8 309.5 130.6Q308.4 129.5 306.7 129.5L306.7 129.5Q304.9 129.5 303.8 130.6Q302.6 131.8 302.5 133.7ZM319.6 143.3Q319.1 143.8 318.4 143.8Q317.6 143.8 317.1 143.3Q316.7 142.8 316.7 142.0L316.7 142.0L316.7 128.5Q316.7 127.7 317.1 127.2Q317.6 126.7 318.3 126.7Q319.0 126.7 319.5 127.2Q319.9 127.7 319.9 128.5L319.9 128.5L319.9 129.8L320.0 129.8Q320.5 128.4 321.8 127.6Q323.0 126.8 324.7 126.8L324.7 126.8Q326.4 126.8 327.6 127.6Q328.8 128.4 329.3 130.0L329.3 130.0L329.3 130.0Q330.0 128.5 331.3 127.6Q332.7 126.8 334.5 126.8L334.5 126.8Q336.9 126.8 338.4 128.2Q339.8 129.7 339.8 132.2L339.8 132.2L339.8 142.0Q339.8 142.8 339.4 143.3Q338.9 143.8 338.1 143.8Q337.4 143.8 336.9 143.3Q336.4 142.8 336.4 142.0L336.4 142.0L336.4 133.0Q336.4 131.4 335.6 130.5Q334.8 129.6 333.3 129.6Q331.8 129.6 330.9 130.6Q329.9 131.6 329.9 133.2L329.9 133.2L329.9 142.0Q329.9 142.8 329.5 143.3Q329.0 143.8 328.3 143.8Q327.5 143.8 327.0 143.3Q326.6 142.8 326.6 142.0L326.6 142.0L326.6 132.7Q326.6 131.3 325.8 130.5Q324.9 129.6 323.5 129.6L323.5 129.6Q322.0 129.6 321.0 130.7Q320.1 131.7 320.1 133.3L320.1 133.3L320.1 142.0Q320.1 142.8 319.6 143.3ZM344.8 143.8L344.8 143.8Q344.1 143.8 343.6 143.3Q343.2 142.9 343.2 142.1L343.2 142.1L343.2 122.4Q343.2 121.6 343.7 121.1Q344.1 120.6 344.9 120.6Q345.6 120.6 346.1 121.1Q346.6 121.6 346.6 122.4L346.6 122.4L346.6 129.8L346.7 129.8Q347.4 128.4 348.8 127.6Q350.1 126.8 351.9 126.8L351.9 126.8Q355.0 126.8 356.8 129.1Q358.7 131.4 358.7 135.3L358.7 135.3Q358.7 139.2 356.8 141.5Q355.0 143.8 351.8 143.8L351.8 143.8Q350.1 143.8 348.7 142.9Q347.3 142.1 346.5 140.7L346.5 140.7L346.5 140.7L346.5 142.1Q346.5 142.9 346.0 143.3Q345.6 143.8 344.8 143.8ZM350.9 140.9L350.9 140.9Q352.9 140.9 354.1 139.4Q355.2 137.9 355.2 135.3L355.2 135.3Q355.2 132.7 354.1 131.1Q352.9 129.6 350.9 129.6L350.9 129.6Q349 129.6 347.8 131.2Q346.6 132.7 346.6 135.3L346.6 135.3Q346.6 137.8 347.8 139.3Q349 140.9 350.9 140.9ZM368.4 143.8L368.4 143.8Q364.7 143.8 362.6 141.5Q360.6 139.3 360.6 135.3L360.6 135.3Q360.6 131.4 362.6 129.1Q364.7 126.7 368.2 126.7L368.2 126.7Q371.5 126.7 373.5 128.9Q375.6 131 375.6 134.4L375.6 134.4Q375.6 135.2 375.1 135.6Q374.7 136.1 373.9 136.1L373.9 136.1L364.0 136.1L364.0 136.2Q364.0 138.4 365.2 139.7Q366.3 141.0 368.4 141.0L368.4 141.0Q369.7 141.0 370.7 140.5Q371.7 140.0 372.6 138.7L372.6 138.7Q373.1 138.1 373.8 138.1L373.8 138.1Q374.4 138.1 374.8 138.5Q375.2 138.9 375.2 139.5L375.2 139.5Q375.2 139.8 375.0 140.4L375.0 140.4Q374.2 142 372.4 142.9Q370.7 143.8 368.4 143.8ZM364 133.7L364 133.7L372.2 133.7Q372.2 131.8 371.1 130.6Q370.0 129.5 368.2 129.5L368.2 129.5Q366.4 129.5 365.3 130.6Q364.1 131.8 364 133.7ZM379.9 143.8L379.9 143.8Q379.1 143.8 378.7 143.3Q378.2 142.8 378.2 142.0L378.2 142.0L378.2 128.4Q378.2 127.7 378.6 127.2Q379.1 126.7 379.8 126.7L379.8 126.7Q380.5 126.7 381.0 127.2Q381.4 127.7 381.4 128.4L381.4 128.4L381.4 129.8L381.5 129.8Q381.8 128.5 382.8 127.6Q383.8 126.8 385.1 126.8L385.1 126.8Q386.0 126.8 386.4 127.2L386.4 127.2Q386.9 127.5 386.9 128.4L386.9 128.4Q386.9 129.1 386.4 129.5L386.4 129.5Q385.9 130.0 384.8 130.0L384.8 130.0Q383.2 130 382.4 131.0Q381.6 132.0 381.6 133.6L381.6 133.6L381.6 142.0Q381.6 142.8 381.1 143.3Q380.6 143.8 379.9 143.8Z M409.3 143.5L396.9 143.5Q396.1 143.5 395.6 143.1Q395.2 142.7 395.2 142L395.2 142Q395.2 141.5 395.4 141.1Q395.6 140.8 396.2 140.2L396.2 140.2L403.2 133.0Q405.4 130.8 406.1 129.6Q406.9 128.4 406.9 127.1L406.9 127.1Q406.9 125.5 405.8 124.4Q404.7 123.4 403.0 123.4L403.0 123.4Q399.6 123.4 398.4 126.7L398.4 126.7Q398.2 127.3 397.8 127.6Q397.5 127.9 396.8 127.9L396.8 127.9Q396.1 127.9 395.7 127.5Q395.3 127.0 395.3 126.4L395.3 126.4Q395.3 126 395.4 125.6L395.4 125.6Q395.6 124.7 396.2 123.8Q396.8 122.9 397.7 122.2Q398.6 121.4 400.0 121.0Q401.4 120.5 403.0 120.5L403.0 120.5Q406.2 120.5 408.3 122.3Q410.3 124.1 410.3 126.9L410.3 126.9Q410.3 128.8 409.3 130.5Q408.2 132.1 405.3 135.0L405.3 135.0L400.0 140.4L400.0 140.5L409.3 140.5Q410.0 140.5 410.4 140.9Q410.9 141.3 410.9 142L410.9 142Q410.9 142.7 410.4 143.1Q410.0 143.5 409.3 143.5L409.3 143.5ZM428.4 140.7Q426.1 143.9 422.0 143.9Q418 143.9 415.7 140.7Q413.4 137.6 413.4 132.2L413.4 132.2Q413.4 126.8 415.7 123.6Q418.0 120.5 422.0 120.5L422.0 120.5Q426.1 120.5 428.4 123.6Q430.7 126.8 430.7 132.2L430.7 132.2Q430.7 137.6 428.4 140.7ZM422.0 141.0L422.0 141.0Q424.5 141.0 425.8 138.6Q427.1 136.3 427.1 132.2L427.1 132.2Q427.1 128.1 425.8 125.8Q424.5 123.4 422.0 123.4Q419.6 123.4 418.3 125.8Q417.0 128.1 417.0 132.2L417.0 132.2Q417.0 136.3 418.3 138.6Q419.6 141.0 422.0 141.0ZM447.8 143.5L435.4 143.5Q434.6 143.5 434.1 143.1Q433.7 142.7 433.7 142L433.7 142Q433.7 141.5 433.9 141.1Q434.1 140.8 434.7 140.2L434.7 140.2L441.7 133.0Q443.9 130.8 444.6 129.6Q445.4 128.4 445.4 127.1L445.4 127.1Q445.4 125.5 444.3 124.4Q443.2 123.4 441.5 123.4L441.5 123.4Q438.1 123.4 436.9 126.7L436.9 126.7Q436.7 127.3 436.3 127.6Q436.0 127.9 435.3 127.9L435.3 127.9Q434.6 127.9 434.2 127.5Q433.8 127.0 433.8 126.4L433.8 126.4Q433.8 126 433.9 125.6L433.9 125.6Q434.1 124.7 434.7 123.8Q435.3 122.9 436.2 122.2Q437.1 121.4 438.5 121.0Q439.9 120.5 441.5 120.5L441.5 120.5Q444.7 120.5 446.8 122.3Q448.8 124.1 448.8 126.9L448.8 126.9Q448.8 128.8 447.8 130.5Q446.7 132.1 443.8 135.0L443.8 135.0L438.5 140.4L438.5 140.5L447.8 140.5Q448.5 140.5 448.9 140.9Q449.4 141.3 449.4 142L449.4 142Q449.4 142.7 448.9 143.1Q448.5 143.5 447.8 143.5L447.8 143.5ZM464.7 143.8L464.7 143.8Q464.0 143.8 463.5 143.3Q463.0 142.8 463.0 142.0L463.0 142.0L463.0 139.0L453.7 139.0Q452.8 139.0 452.2 138.4Q451.7 137.9 451.7 137L451.7 137Q451.7 135.9 452.5 134.5L452.5 134.5Q454.4 131.0 459.8 123.3L459.8 123.3Q460.8 121.8 461.6 121.2Q462.4 120.6 463.5 120.6L463.5 120.6Q464.9 120.6 465.6 121.3Q466.4 122 466.4 123.3L466.4 123.3L466.4 136.0L468.2 136.0Q468.8 136.0 469.3 136.5Q469.7 136.9 469.7 137.5Q469.7 138.2 469.3 138.6Q468.8 139.0 468.2 139.0L468.2 139.0L466.4 139.0L466.4 142.0Q466.4 142.8 465.9 143.3Q465.4 143.8 464.7 143.8ZM455.0 136.1L463.0 136.1L463.0 123.7L463.0 123.7Q457.2 132.0 455.0 136L455.0 136L455.0 136.1Z " clip-path="url(#satori_cp-id-0)" mask="url(#satori_om-id-0)"/><mask id="satori_om-id-0-0-0-1"><rect x="72" y="175" width="1056" height="221" fill="#fff" mask="url(#satori_om-id-0)"/></mask><path fill="#0f172a" d="M78.8 235.1L78.8 235.1Q76.6 235.1 75.3 233.9Q74.0 232.7 74.0 230.7L74.0 230.7Q74.0 229.5 74.6 227.7L74.6 227.7L86.9 194.2Q87.9 191.4 89.6 190.1Q91.3 188.8 94 188.8L94 188.8Q96.8 188.8 98.5 190.1Q100.2 191.4 101.2 194.1L101.2 194.1L113.6 227.7Q114.2 229.4 114.2 230.7L114.2 230.7Q114.2 232.6 112.9 233.9Q111.5 235.1 109.5 235.1L109.5 235.1Q107.5 235.1 106.3 234.2Q105.2 233.2 104.6 231.0L104.6 231.0L102.2 223.9L85.9 223.9L83.5 230.9Q82.9 233.1 81.8 234.1Q80.6 235.1 78.8 235.1ZM93.8 198.1L88.0 216.6L100 216.6L94.0 198.1L93.8 198.1Z M149.1 235.3L149.1 235.3Q142.3 235.3 137.8 232.9Q133.4 230.5 132.0 226.6L132.0 226.6Q131.5 225.3 131.5 224.1L131.5 224.1Q131.5 222.2 132.6 221.1Q133.8 220.0 135.6 220.0L135.6 220.0Q137.1 220.0 138.1 220.6Q139.1 221.2 140.0 222.7L140.0 222.7Q141.0 225.2 143.5 226.5Q145.9 227.7 149.3 227.7L149.3 227.7Q153.1 227.7 155.4 226.1Q157.8 224.5 157.8 222.0L157.8 222.0Q157.8 219.7 156 218.4Q154.2 217.0 150 216.1L150 216.1L145.2 215.2Q131.8 212.6 131.8 202.4L131.8 202.4Q131.8 198.3 134.0 195.2Q136.2 192.1 140.1 190.4Q144.1 188.7 149.0 188.7L149.0 188.7Q155.3 188.7 159.6 191.1Q164 193.6 165.5 198.0L165.5 198.0Q165.8 199.0 165.8 200.1L165.8 200.1Q165.8 201.8 164.7 202.8Q163.6 203.9 161.8 203.9L161.8 203.9Q160.2 203.9 159.2 203.2Q158.1 202.6 157.3 201.1L157.3 201.1Q155.2 196.3 149.0 196.3L149.0 196.3Q145.5 196.3 143.4 197.8Q141.3 199.3 141.3 201.8L141.3 201.8Q141.3 203.9 143.0 205.2Q144.8 206.6 148.8 207.4L148.8 207.4L153.5 208.3Q160.7 209.8 164.0 212.8Q167.2 215.8 167.2 220.9L167.2 220.9Q167.2 227.6 162.3 231.4Q157.5 235.3 149.1 235.3ZM184.1 235.2L184.1 235.2Q178.6 235.2 175.3 231.8Q172.0 228.5 172.0 222.6L172.0 222.6L172.0 205.1Q172.0 202.9 173.3 201.6Q174.5 200.4 176.6 200.4Q178.7 200.4 179.9 201.6Q181.2 202.9 181.2 205.1L181.2 205.1L181.2 220.7Q181.2 224.1 182.8 225.8Q184.4 227.6 187.4 227.6Q190.4 227.6 192.2 225.6Q194 223.6 194 220.2L194 220.2L194 205.1Q194 202.9 195.3 201.6Q196.5 200.4 198.6 200.4Q200.6 200.4 201.9 201.6Q203.1 202.9 203.1 205.1L203.1 205.1L203.1 230.6Q203.1 232.8 201.9 234.0Q200.8 235.2 198.7 235.2Q196.7 235.2 195.5 234.0Q194.3 232.8 194.3 230.6L194.3 230.6L194.3 228.5L194.1 228.5Q191.5 235.2 184.1 235.2ZM213.6 235.2L213.6 235.2Q211.5 235.2 210.3 234.0Q209.1 232.7 209.1 230.5L209.1 230.5L209.1 205.0Q209.1 202.8 210.3 201.6Q211.5 200.4 213.5 200.4L213.5 200.4Q215.4 200.4 216.6 201.6Q217.8 202.8 217.8 205.0L217.8 205.0L217.8 207.1L218.0 207.1Q218.6 204.1 220.5 202.3Q222.4 200.5 224.9 200.5L224.9 200.5Q226.8 200.5 227.8 201.4L227.8 201.4Q229.1 202.4 229.1 204.7L229.1 204.7Q229.1 206.9 227.8 208.0L227.8 208.0Q226.4 209.2 223.8 209.2L223.8 209.2Q220.8 209.2 219.5 210.8Q218.2 212.5 218.2 215.6L218.2 215.6L218.2 230.5Q218.2 232.7 217.0 234.0Q215.8 235.2 213.6 235.2ZM246.4 235.2L246.4 235.2Q243.8 235.2 242.3 234.1Q240.8 233.0 239.8 230.6L239.8 230.6L231.1 207.2Q230.6 205.7 230.6 204.5L230.6 204.5Q230.6 202.6 231.9 201.5Q233.2 200.4 235.2 200.4L235.2 200.4Q238.5 200.4 239.5 204.0L239.5 204.0L246.3 226.5L246.5 226.5L253.3 203.9Q254.2 200.4 257.6 200.4L257.6 200.4Q259.5 200.4 260.7 201.5Q262 202.7 262 204.4L262 204.4Q262 205.6 261.5 207.0L261.5 207.0L252.8 230.6Q251.9 233.0 250.4 234.1Q248.9 235.2 246.4 235.2ZM281.5 235.3L281.5 235.3Q273.7 235.3 269.3 230.7Q264.9 226.1 264.9 218.0L264.9 218.0Q264.9 209.9 269.3 205.1Q273.7 200.3 281.1 200.3L281.1 200.3Q288.2 200.3 292.6 204.7Q297.0 209.1 297.0 215.9L297.0 215.9Q297.0 217.8 295.9 218.9Q294.9 219.9 293 219.9L293 219.9L273.9 219.9L273.9 220.3Q273.9 224.0 276.0 226.3Q278.0 228.5 281.5 228.5L281.5 228.5Q284 228.5 285.8 227.6Q287.7 226.7 289.5 224.5L289.5 224.5Q290.8 223.1 292.5 223.1L292.5 223.1Q294 223.1 295.0 224.1Q296.0 225.0 296.0 226.5L296.0 226.5Q296.0 227.6 295.4 228.7L295.4 228.7Q293.8 231.8 290.1 233.5Q286.4 235.3 281.5 235.3ZM274.0 214.3L274.0 214.3L288.2 214.3Q288.1 211.0 286.1 209.1Q284.2 207.1 281.2 207.1Q278.2 207.1 276.2 209.1Q274.2 211.1 274.0 214.3ZM307.3 247.0L307.3 247.0Q304.3 247.0 302.8 245.8Q301.2 244.7 301.2 242.7L301.2 242.7Q301.2 241.3 302.1 240.5Q303 239.7 304.5 239.7L304.5 239.7Q304.8 239.7 305.3 239.7Q305.8 239.7 306.1 239.7L306.1 239.7Q309.1 239.7 310.5 236.7L310.5 236.7L311 235.5L300.3 207.3Q299.8 205.9 299.8 204.6L299.8 204.6Q299.8 202.8 301.1 201.6Q302.5 200.4 304.5 200.4L304.5 200.4Q306.3 200.4 307.3 201.2Q308.3 202.1 308.9 204.1L308.9 204.1L316.2 227.2L316.3 227.2L323.6 204.0Q324.2 202.1 325.2 201.2Q326.3 200.4 328.0 200.4L328.0 200.4Q330 200.4 331.2 201.5Q332.5 202.7 332.5 204.5L332.5 204.5Q332.5 205.8 332.0 207.2L332.0 207.2L321.7 235.1Q319.3 241.6 316.1 244.3Q312.8 247.0 307.3 247.0Z M376.6 230.6Q372.1 235.3 364.4 235.3Q356.8 235.3 352.3 230.6Q347.8 226.0 347.8 217.8L347.8 217.8Q347.8 209.7 352.4 205.0Q356.9 200.3 364.4 200.3L364.4 200.3Q372.0 200.3 376.5 205.0Q381.0 209.7 381.0 217.8L381.0 217.8Q381.0 226.0 376.6 230.6ZM364.4 228.3L364.4 228.3Q367.8 228.3 369.8 225.6Q371.8 222.8 371.8 217.8L371.8 217.8Q371.8 212.9 369.8 210.1Q367.8 207.3 364.4 207.3Q361.1 207.3 359.1 210.1Q357.1 212.9 357.1 217.8L357.1 217.8Q357.1 222.8 359.1 225.6Q361.0 228.3 364.4 228.3ZM396.0 234.0Q394.8 235.2 392.7 235.2Q390.6 235.2 389.4 234.0Q388.2 232.8 388.2 230.5L388.2 230.5L388.2 207.9L386.4 207.9Q384.9 207.9 384 207.0Q383.1 206.1 383.1 204.6Q383.1 203.0 384 202.1Q384.9 201.2 386.4 201.2L386.4 201.2L388.2 201.2L388.2 198.7Q388.2 193.8 390.5 191.4Q392.9 189.1 397.7 189.1L397.7 189.1Q401.2 189.1 402.9 190.1Q404.6 191.1 404.6 192.7L404.6 192.7Q404.6 194.6 402.8 195.1L402.8 195.1Q401.9 195.4 401 195.4L401 195.4Q398.9 195.5 398.0 196.3Q397.1 197.2 397.1 199.1L397.1 199.1L397.1 201.2L400.9 201.2Q402.4 201.2 403.3 202.1Q404.3 203.0 404.3 204.6Q404.3 206.1 403.3 207.0Q402.4 207.9 400.9 207.9L400.9 207.9L397.3 207.9L397.3 230.5Q397.3 232.8 396.0 234.0Z M430.1 233.9Q428.9 235.2 426.7 235.2Q424.4 235.2 423.2 233.9Q421.9 232.6 421.9 230.3L421.9 230.3L421.9 194.4Q421.9 192.1 423.2 190.8Q424.4 189.5 426.7 189.5L426.7 189.5L440.4 189.5Q448.1 189.5 452.4 193.3Q456.7 197.1 456.7 203.8L456.7 203.8Q456.7 208.1 454.7 211.5Q452.7 214.8 449.0 216.4L449.0 216.4L455.5 227.6Q456.5 229.4 456.5 230.9L456.5 230.9Q456.5 232.8 455.1 234.0Q453.8 235.2 451.7 235.2L451.7 235.2Q450.0 235.2 449.0 234.5Q448.1 233.7 446.9 231.6L446.9 231.6L439.4 218.1L431.4 218.1L431.4 230.3Q431.4 232.6 430.1 233.9ZM431.4 196.8L431.4 211.2L439.5 211.2Q443.1 211.2 445.0 209.3Q447.0 207.4 447.0 204.0L447.0 204.0Q447.0 200.7 445.0 198.8Q442.9 196.8 439.4 196.8L439.4 196.8L431.4 196.8ZM489.6 230.6Q485.2 235.3 477.5 235.3Q469.8 235.3 465.4 230.6Q460.9 226.0 460.9 217.8L460.9 217.8Q460.9 209.7 465.4 205.0Q469.9 200.3 477.5 200.3L477.5 200.3Q485.1 200.3 489.6 205.0Q494.1 209.7 494.1 217.8L494.1 217.8Q494.1 226.0 489.6 230.6ZM477.5 228.3L477.5 228.3Q480.9 228.3 482.8 225.6Q484.8 222.8 484.8 217.8L484.8 217.8Q484.8 212.9 482.8 210.1Q480.9 207.3 477.5 207.3Q474.1 207.3 472.1 210.1Q470.2 212.9 470.2 217.8L470.2 217.8Q470.2 222.8 472.1 225.6Q474.1 228.3 477.5 228.3ZM503.5 235.2L503.5 235.2Q501.4 235.2 500.2 234.0Q499 232.8 499 230.6L499 230.6L499 193.6Q499 191.3 500.3 190.0Q501.5 188.8 503.6 188.8Q505.6 188.8 506.9 190.0Q508.1 191.3 508.1 193.6L508.1 193.6L508.1 206.9L508.3 206.9Q509.7 203.9 512.4 202.2Q515.1 200.5 518.7 200.5L518.7 200.5Q525.0 200.5 528.7 205.1Q532.3 209.7 532.3 217.8Q532.3 225.9 528.7 230.5Q525.0 235.1 518.7 235.1L518.7 235.1Q515.1 235.1 512.3 233.4Q509.6 231.8 508.2 228.8L508.2 228.8L508 228.8L508 230.6Q508 232.8 506.8 234.0Q505.5 235.2 503.5 235.2ZM515.6 227.7L515.6 227.7Q519.0 227.7 521.0 225.1Q522.9 222.4 522.9 217.8L522.9 217.8Q522.9 213.2 521.0 210.5Q519.0 207.8 515.6 207.8L515.6 207.8Q512.2 207.8 510.2 210.6Q508.1 213.3 508.1 217.8L508.1 217.8Q508.1 222.3 510.2 225.0Q512.2 227.7 515.6 227.7ZM564.5 230.6Q560.0 235.3 552.4 235.3Q544.7 235.3 540.3 230.6Q535.8 226.0 535.8 217.8L535.8 217.8Q535.8 209.7 540.3 205.0Q544.8 200.3 552.4 200.3L552.4 200.3Q560.0 200.3 564.5 205.0Q569.0 209.7 569.0 217.8L569.0 217.8Q569.0 226.0 564.5 230.6ZM552.4 228.3L552.4 228.3Q555.8 228.3 557.7 225.6Q559.7 222.8 559.7 217.8L559.7 217.8Q559.7 212.9 557.7 210.1Q555.8 207.3 552.4 207.3Q549 207.3 547.0 210.1Q545.0 212.9 545.0 217.8L545.0 217.8Q545.0 222.8 547 225.6Q549.0 228.3 552.4 228.3ZM576.1 226.0L576.1 226.0L576.1 207.9L574.3 207.9Q572.7 207.9 571.8 207.0Q570.8 206.1 570.8 204.5Q570.8 202.9 571.8 202.0Q572.7 201.1 574.3 201.1L574.3 201.1L576.1 201.1L576.1 197.3Q576.1 195.1 577.3 193.8Q578.5 192.6 580.7 192.6Q582.8 192.6 584 193.8Q585.2 195.1 585.2 197.3L585.2 197.3L585.2 201.1L588.4 201.1Q590.1 201.1 591 202.0Q591.9 202.9 591.9 204.5Q591.9 206.1 591 207.0Q590.1 207.9 588.4 207.9L588.4 207.9L585.2 207.9L585.2 224.0Q585.2 225.7 585.9 226.6Q586.5 227.4 588 227.5L588 227.5L588.6 227.6Q590.3 227.7 591.2 228.5Q592.1 229.3 592.1 230.9L592.1 230.9Q592.1 232.8 590.3 233.9Q588.6 234.9 585.6 234.9L585.6 234.9L585.3 234.9Q576.1 234.9 576.1 226.0ZM604.6 195.5Q603.2 196.9 601.1 196.9Q599.1 196.9 597.7 195.5Q596.3 194.1 596.3 192.2L596.3 192.2Q596.3 190.2 597.7 188.8Q599.1 187.5 601.1 187.5Q603.2 187.5 604.6 188.8Q606 190.2 606 192.2L606 192.2Q606 194.1 604.6 195.5ZM604.5 233.9Q603.3 235.2 601.1 235.2Q599 235.2 597.8 233.9Q596.6 232.7 596.6 230.5L596.6 230.5L596.6 205.1Q596.6 202.9 597.8 201.6Q599 200.4 601.1 200.4Q603.3 200.4 604.5 201.6Q605.7 202.9 605.7 205.1L605.7 205.1L605.7 230.5Q605.7 232.7 604.5 233.9ZM627.0 235.3L627.0 235.3Q619.4 235.3 615.0 230.6Q610.5 225.9 610.5 217.8L610.5 217.8Q610.5 209.8 615.0 205.1Q619.4 200.3 627.0 200.3L627.0 200.3Q632.0 200.3 635.8 202.5Q639.7 204.7 641.1 208.3L641.1 208.3Q641.6 209.6 641.6 210.6L641.6 210.6Q641.6 212.2 640.5 213.2Q639.4 214.1 637.7 214.1L637.7 214.1Q636.3 214.1 635.5 213.6Q634.6 213.0 633.8 211.8L633.8 211.8Q631.4 207.5 627.3 207.5L627.3 207.5Q623.8 207.5 621.8 210.2Q619.8 212.9 619.8 217.8L619.8 217.8Q619.8 222.7 621.8 225.4Q623.8 228.1 627.2 228.1L627.2 228.1Q631.4 228.1 633.8 224.2L633.8 224.2Q634.7 222.7 635.6 222.1Q636.5 221.5 637.9 221.5L637.9 221.5Q639.5 221.5 640.6 222.5Q641.8 223.5 641.8 225.1L641.8 225.1Q641.8 226.2 641.2 227.5L641.2 227.5Q639.7 231.0 635.7 233.1Q631.8 235.3 627.0 235.3Z M685.5 234.6L664.8 234.6Q662.6 234.6 661.3 233.3Q660.1 232.0 660.1 229.6L660.1 229.6L660.1 193.8Q660.1 191.4 661.3 190.1Q662.6 188.8 664.8 188.8Q667 188.8 668.3 190.1Q669.5 191.4 669.5 193.8L669.5 193.8L669.5 226.7L685.5 226.7Q687.4 226.7 688.6 227.8Q689.8 228.8 689.8 230.6Q689.8 232.5 688.6 233.5Q687.5 234.6 685.5 234.6L685.5 234.6ZM703.9 235.1L703.9 235.1Q699.1 235.1 695.9 232.2Q692.7 229.4 692.7 224.9L692.7 224.9Q692.7 220.4 696.1 217.8Q699.5 215.2 705.8 214.8L705.8 214.8L714.2 214.3L714.2 212.1Q714.2 209.8 712.7 208.5Q711.2 207.1 708.6 207.1L708.6 207.1Q706.5 207.1 705.1 207.9Q703.6 208.7 702.1 210.7L702.1 210.7Q700.6 212.4 698.5 212.4L698.5 212.4Q696.8 212.4 695.7 211.4Q694.7 210.4 694.7 208.9L694.7 208.9Q694.7 207.8 695.1 206.8L695.1 206.8Q696.3 203.8 700.0 202.1Q703.8 200.3 709 200.3L709 200.3Q715.4 200.3 719.3 203.4Q723.2 206.5 723.2 211.5L723.2 211.5L723.2 230.6Q723.2 232.8 722.0 234.0Q720.8 235.2 718.8 235.2L718.8 235.2Q716.8 235.2 715.7 234.2Q714.5 233.1 714.4 231.1L714.4 231.1L714.4 229.4L714.2 229.4Q712.8 232.1 710.0 233.6Q707.2 235.1 703.9 235.1ZM706.9 228.5L706.9 228.5Q710.0 228.5 712.1 226.7Q714.2 225.0 714.2 222.3L714.2 222.3L714.2 219.8L707.2 220.3Q704.6 220.5 703.2 221.6Q701.8 222.6 701.8 224.4L701.8 224.4Q701.8 226.3 703.2 227.4Q704.6 228.5 706.9 228.5ZM736.9 234.0Q735.7 235.2 733.6 235.2Q731.6 235.2 730.3 234.0Q729.1 232.7 729.1 230.5L729.1 230.5L729.1 205.0Q729.1 202.8 730.2 201.6Q731.4 200.4 733.5 200.4Q735.5 200.4 736.8 201.6Q738.0 202.9 738.0 205.0L738.0 205.0L738.0 206.9L738.2 206.9Q741.0 200.4 748.5 200.4L748.5 200.4Q754.1 200.4 757.1 203.7Q760.2 207.1 760.2 213.0L760.2 213.0L760.2 230.5Q760.2 232.7 758.9 234.0Q757.7 235.2 755.6 235.2Q753.5 235.2 752.3 234.0Q751.0 232.7 751.0 230.5L751.0 230.5L751.0 214.9Q751.0 211.6 749.5 209.8Q747.9 208.0 744.9 208.0Q741.8 208.0 740.0 210.0Q738.2 212.1 738.2 215.3L738.2 215.3L738.2 230.5Q738.2 232.7 736.9 234.0ZM780.9 247.1L780.9 247.1Q775.9 247.1 772.2 245.4Q768.5 243.7 766.8 241.0L766.8 241.0Q766.1 239.8 766.1 238.5L766.1 238.5Q766.1 237.0 767.1 236.1Q768.2 235.1 769.8 235.1L769.8 235.1Q771.6 235.1 773 236.4L773 236.4Q776.8 240.1 780.9 240.1L780.9 240.1Q784.6 240.1 786.7 238.2Q788.8 236.4 788.8 233.2L788.8 233.2L788.8 227.8L788.6 227.8Q787.4 230.6 784.7 232.2Q781.9 233.8 778.3 233.8L778.3 233.8Q772.1 233.8 768.4 229.4Q764.7 224.9 764.7 217.2L764.7 217.2Q764.7 209.4 768.4 204.9Q772 200.5 778.5 200.5L778.5 200.5Q782 200.5 784.7 202.2Q787.3 203.9 788.7 206.8L788.7 206.8L788.9 206.8L788.9 205.0Q788.9 202.7 790.1 201.6Q791.4 200.4 793.5 200.4L793.5 200.4Q795.5 200.4 796.8 201.6Q798 202.7 798 205.0L798 205.0L798 233.2Q798 239.8 793.5 243.5Q789.0 247.2 780.9 247.1ZM781.4 227.1L781.4 227.1Q784.8 227.1 786.9 224.5Q788.9 221.9 788.9 217.4Q788.9 212.8 786.9 210.1Q784.8 207.5 781.4 207.5L781.4 207.5Q778.0 207.5 776.0 210.1Q774.1 212.8 774.1 217.3L774.1 217.3Q774.1 221.9 776.0 224.5Q778 227.1 781.4 227.1ZM815.8 235.2L815.8 235.2Q810.3 235.2 807.0 231.8Q803.8 228.5 803.8 222.6L803.8 222.6L803.8 205.1Q803.8 202.9 805 201.6Q806.3 200.4 808.3 200.4Q810.4 200.4 811.6 201.6Q812.9 202.9 812.9 205.1L812.9 205.1L812.9 220.7Q812.9 224.1 814.5 225.8Q816.1 227.6 819.1 227.6Q822.2 227.6 823.9 225.6Q825.7 223.6 825.7 220.2L825.7 220.2L825.7 205.1Q825.7 202.9 827.0 201.6Q828.2 200.4 830.3 200.4Q832.3 200.4 833.6 201.6Q834.8 202.9 834.8 205.1L834.8 205.1L834.8 230.6Q834.8 232.8 833.7 234.0Q832.5 235.2 830.4 235.2Q828.4 235.2 827.2 234.0Q826.0 232.8 826.0 230.6L826.0 230.6L826.0 228.5L825.8 228.5Q823.2 235.2 815.8 235.2ZM850.7 235.1L850.7 235.1Q845.8 235.1 842.7 232.2Q839.5 229.4 839.5 224.9L839.5 224.9Q839.5 220.4 842.8 217.8Q846.2 215.2 852.5 214.8L852.5 214.8L861.0 214.3L861.0 212.1Q861.0 209.8 859.5 208.5Q857.9 207.1 855.3 207.1L855.3 207.1Q853.3 207.1 851.8 207.9Q850.4 208.7 848.8 210.7L848.8 210.7Q847.3 212.4 845.2 212.4L845.2 212.4Q843.6 212.4 842.5 211.4Q841.4 210.4 841.4 208.9L841.4 208.9Q841.4 207.8 841.9 206.8L841.9 206.8Q843.0 203.8 846.8 202.1Q850.5 200.3 855.8 200.3L855.8 200.3Q862.2 200.3 866.1 203.4Q869.9 206.5 869.9 211.5L869.9 211.5L869.9 230.6Q869.9 232.8 868.7 234.0Q867.5 235.2 865.5 235.2L865.5 235.2Q863.6 235.2 862.4 234.2Q861.3 233.1 861.1 231.1L861.1 231.1L861.1 229.4L860.9 229.4Q859.6 232.1 856.7 233.6Q853.9 235.1 850.7 235.1ZM853.7 228.5L853.7 228.5Q856.7 228.5 858.8 226.7Q861.0 225.0 861.0 222.3L861.0 222.3L861.0 219.8L853.9 220.3Q851.3 220.5 850.0 221.6Q848.6 222.6 848.6 224.4L848.6 224.4Q848.6 226.3 850.0 227.4Q851.4 228.5 853.7 228.5ZM890.8 247.1L890.8 247.1Q885.8 247.1 882.1 245.4Q878.4 243.7 876.7 241.0L876.7 241.0Q876 239.8 876 238.5L876 238.5Q876 237.0 877.0 236.1Q878.0 235.1 879.7 235.1L879.7 235.1Q881.4 235.1 882.9 236.4L882.9 236.4Q886.7 240.1 890.8 240.1L890.8 240.1Q894.5 240.1 896.6 238.2Q898.7 236.4 898.7 233.2L898.7 233.2L898.7 227.8L898.5 227.8Q897.3 230.6 894.5 232.2Q891.8 233.8 888.2 233.8L888.2 233.8Q881.9 233.8 878.3 229.4Q874.6 224.9 874.6 217.2L874.6 217.2Q874.6 209.4 878.2 204.9Q881.9 200.5 888.3 200.5L888.3 200.5Q891.9 200.5 894.5 202.2Q897.2 203.9 898.6 206.8L898.6 206.8L898.8 206.8L898.8 205.0Q898.8 202.7 900.0 201.6Q901.3 200.4 903.3 200.4L903.3 200.4Q905.4 200.4 906.6 201.6Q907.9 202.7 907.9 205.0L907.9 205.0L907.9 233.2Q907.9 239.8 903.4 243.5Q898.8 247.2 890.8 247.1ZM891.3 227.1L891.3 227.1Q894.7 227.1 896.8 224.5Q898.8 221.9 898.8 217.4Q898.8 212.8 896.8 210.1Q894.7 207.5 891.3 207.5L891.3 207.5Q887.9 207.5 885.9 210.1Q883.9 212.8 883.9 217.3L883.9 217.3Q883.9 221.9 885.9 224.5Q887.9 227.1 891.3 227.1ZM929.2 235.3L929.2 235.3Q921.3 235.3 917.0 230.7Q912.6 226.1 912.6 218.0L912.6 218.0Q912.6 209.9 916.9 205.1Q921.3 200.3 928.8 200.3L928.8 200.3Q935.8 200.3 940.2 204.7Q944.6 209.1 944.6 215.9L944.6 215.9Q944.6 217.8 943.6 218.9Q942.6 219.9 940.7 219.9L940.7 219.9L921.5 219.9L921.5 220.3Q921.5 224.0 923.6 226.3Q925.7 228.5 929.2 228.5L929.2 228.5Q931.7 228.5 933.5 227.6Q935.3 226.7 937.2 224.5L937.2 224.5Q938.5 223.1 940.1 223.1L940.1 223.1Q941.7 223.1 942.7 224.1Q943.7 225.0 943.7 226.5L943.7 226.5Q943.7 227.6 943.1 228.7L943.1 228.7Q941.4 231.8 937.7 233.5Q934.0 235.3 929.2 235.3ZM921.6 214.3L921.6 214.3L935.8 214.3Q935.7 211.0 933.8 209.1Q931.8 207.1 928.8 207.1Q925.8 207.1 923.9 209.1Q921.9 211.1 921.6 214.3Z M96.1 308.9L96.1 308.9Q85.9 308.9 80.1 302.7Q74.3 296.4 74.3 285.5L74.3 285.5Q74.3 274.6 80.1 268.5Q85.9 262.3 95.8 262.3L95.8 262.3Q102.2 262.3 107.0 264.9Q111.9 267.6 113.8 271.9L113.8 271.9Q114.5 273.3 114.5 274.8L114.5 274.8Q114.5 276.6 113.4 277.7Q112.2 278.8 110.4 278.8L110.4 278.8Q107.5 278.8 105.8 276.1L105.8 276.1Q102.5 270.1 95.9 270.1L95.9 270.1Q90.3 270.1 87.1 274.1Q84.0 278.1 84.0 285.3L84.0 285.3Q84.0 292.6 87.3 296.9Q90.6 301.1 96.2 301.1L96.2 301.1Q100.8 301.1 103.8 298.5Q106.7 295.9 106.8 291.7L106.8 291.7L106.9 291.0L100.3 291.0Q98.6 291.0 97.6 290.1Q96.5 289.1 96.5 287.6Q96.5 286.0 97.6 285.0Q98.6 284.1 100.3 284.1L100.3 284.1L111.3 284.1Q113.6 284.1 114.8 285.4Q116.1 286.7 116.1 289.0L116.1 289.0L116.1 289.7Q116.1 298.5 110.8 303.7Q105.5 308.9 96.1 308.9ZM126.1 308.8L126.1 308.8Q124.0 308.8 122.7 307.6Q121.5 306.3 121.5 304.1L121.5 304.1L121.5 278.6Q121.5 276.4 122.7 275.2Q123.9 274.0 125.9 274.0L125.9 274.0Q127.8 274.0 129.0 275.2Q130.2 276.4 130.2 278.6L130.2 278.6L130.2 280.7L130.4 280.7Q131.1 277.6 133.0 275.9Q134.8 274.1 137.4 274.1L137.4 274.1Q139.2 274.1 140.2 275.0L140.2 275.0Q141.5 276.0 141.5 278.3L141.5 278.3Q141.5 280.5 140.2 281.6L140.2 281.6Q138.9 282.8 136.3 282.8L136.3 282.8Q133.3 282.8 131.9 284.4Q130.6 286.1 130.6 289.2L130.6 289.2L130.6 304.1Q130.6 306.3 129.4 307.6Q128.2 308.8 126.1 308.8ZM172.3 304.2Q167.8 308.9 160.2 308.9Q152.5 308.9 148.0 304.2Q143.6 299.6 143.6 291.4L143.6 291.4Q143.6 283.3 148.1 278.6Q152.6 273.9 160.2 273.9L160.2 273.9Q167.8 273.9 172.3 278.6Q176.8 283.3 176.8 291.4L176.8 291.4Q176.8 299.6 172.3 304.2ZM160.2 301.9L160.2 301.9Q163.5 301.9 165.5 299.1Q167.5 296.4 167.5 291.4L167.5 291.4Q167.5 286.5 165.5 283.7Q163.5 280.9 160.2 280.9Q156.8 280.9 154.8 283.7Q152.8 286.5 152.8 291.4L152.8 291.4Q152.8 296.4 154.8 299.1Q156.8 301.9 160.2 301.9ZM193.3 308.8L193.3 308.8Q187.8 308.8 184.6 305.4Q181.3 302.1 181.3 296.2L181.3 296.2L181.3 278.7Q181.3 276.5 182.5 275.2Q183.8 274.0 185.8 274.0Q187.9 274.0 189.2 275.2Q190.4 276.5 190.4 278.7L190.4 278.7L190.4 294.3Q190.4 297.7 192.0 299.4Q193.6 301.2 196.7 301.2Q199.7 301.2 201.5 299.2Q203.3 297.2 203.3 293.8L203.3 293.8L203.3 278.7Q203.3 276.5 204.5 275.2Q205.8 274.0 207.8 274.0Q209.9 274.0 211.1 275.2Q212.4 276.5 212.4 278.7L212.4 278.7L212.4 304.2Q212.4 306.4 211.2 307.6Q210 308.8 208.0 308.8Q205.9 308.8 204.8 307.6Q203.6 306.4 203.6 304.2L203.6 304.2L203.6 302.1L203.4 302.1Q200.8 308.8 193.3 308.8ZM226.2 307.6Q224.9 308.8 222.9 308.8Q220.8 308.8 219.6 307.6Q218.3 306.3 218.3 304.1L218.3 304.1L218.3 278.6Q218.3 276.4 219.5 275.2Q220.7 274.0 222.7 274.0Q224.8 274.0 226.0 275.2Q227.3 276.5 227.3 278.6L227.3 278.6L227.3 280.5L227.5 280.5Q230.2 274.0 237.8 274.0L237.8 274.0Q243.3 274.0 246.4 277.3Q249.4 280.6 249.4 286.6L249.4 286.6L249.4 304.1Q249.4 306.3 248.2 307.6Q246.9 308.8 244.8 308.8Q242.8 308.8 241.5 307.6Q240.3 306.3 240.3 304.1L240.3 304.1L240.3 288.5Q240.3 285.1 238.7 283.4Q237.2 281.6 234.1 281.6Q231.1 281.6 229.3 283.6Q227.4 285.6 227.4 288.9L227.4 288.9L227.4 304.1Q227.4 306.3 226.2 307.6ZM267.6 308.7L267.6 308.7Q261.3 308.7 257.7 304.0Q254.0 299.4 254.0 291.3L254.0 291.3Q254.0 283.4 257.7 278.7Q261.4 274.1 267.7 274.1L267.7 274.1Q271.3 274.1 274.0 275.8Q276.7 277.6 277.9 280.4L277.9 280.4L278.1 280.4L278.1 267.1Q278.1 264.9 279.3 263.6Q280.6 262.4 282.7 262.4Q284.7 262.4 286.0 263.6Q287.2 264.9 287.2 267.1L287.2 267.1L287.2 304.2Q287.2 306.4 286.0 307.6Q284.8 308.8 282.7 308.8L282.7 308.8Q280.7 308.8 279.4 307.6Q278.1 306.4 278.1 304.2L278.1 304.2L278.1 302.2L277.9 302.2Q276.8 305.1 274.1 306.9Q271.4 308.7 267.6 308.7ZM270.7 301.3L270.7 301.3Q274.1 301.3 276.1 298.7Q278.2 296.0 278.2 291.4L278.2 291.4Q278.2 286.8 276.1 284.1Q274.1 281.4 270.7 281.4L270.7 281.4Q267.3 281.4 265.3 284.1Q263.3 286.8 263.3 291.4L263.3 291.4Q263.3 296.0 265.3 298.7Q267.3 301.3 270.7 301.3ZM301.5 269.1Q300.1 270.5 298.0 270.5Q296.0 270.5 294.6 269.1Q293.2 267.7 293.2 265.8L293.2 265.8Q293.2 263.8 294.6 262.4Q296.0 261.1 298.0 261.1Q300.1 261.1 301.5 262.4Q302.9 263.8 302.9 265.8L302.9 265.8Q302.9 267.7 301.5 269.1ZM301.4 307.5Q300.2 308.8 298.0 308.8Q295.9 308.8 294.7 307.5Q293.5 306.3 293.5 304.1L293.5 304.1L293.5 278.7Q293.5 276.5 294.7 275.2Q295.9 274.0 298.0 274.0Q300.2 274.0 301.4 275.2Q302.6 276.5 302.6 278.7L302.6 278.7L302.6 304.1Q302.6 306.3 301.4 307.5ZM316.5 307.6Q315.3 308.8 313.2 308.8Q311.2 308.8 309.9 307.6Q308.7 306.3 308.7 304.1L308.7 304.1L308.7 278.6Q308.7 276.4 309.8 275.2Q311 274.0 313.1 274.0Q315.1 274.0 316.4 275.2Q317.6 276.5 317.6 278.6L317.6 278.6L317.6 280.5L317.8 280.5Q320.6 274.0 328.1 274.0L328.1 274.0Q333.7 274.0 336.7 277.3Q339.8 280.6 339.8 286.6L339.8 286.6L339.8 304.1Q339.8 306.3 338.5 307.6Q337.3 308.8 335.2 308.8Q333.1 308.8 331.9 307.6Q330.6 306.3 330.6 304.1L330.6 304.1L330.6 288.5Q330.6 285.1 329.1 283.4Q327.5 281.6 324.5 281.6Q321.4 281.6 319.6 283.6Q317.8 285.6 317.8 288.9L317.8 288.9L317.8 304.1Q317.8 306.3 316.5 307.6ZM360.5 320.7L360.5 320.7Q355.5 320.7 351.8 319.0Q348.1 317.3 346.4 314.6L346.4 314.6Q345.7 313.4 345.7 312.1L345.7 312.1Q345.7 310.6 346.7 309.6Q347.8 308.7 349.4 308.7L349.4 308.7Q351.2 308.7 352.6 310.0L352.6 310.0Q356.4 313.6 360.5 313.7L360.5 313.7Q364.2 313.7 366.3 311.8Q368.4 310.0 368.4 306.8L368.4 306.8L368.4 301.4L368.2 301.4Q367.0 304.1 364.3 305.8Q361.5 307.4 357.9 307.4L357.9 307.4Q351.7 307.4 348.0 303.0Q344.3 298.5 344.3 290.8L344.3 290.8Q344.3 283.0 348.0 278.5Q351.6 274.1 358.1 274.1L358.1 274.1Q361.6 274.1 364.3 275.8Q366.9 277.5 368.3 280.4L368.3 280.4L368.5 280.4L368.5 278.6Q368.5 276.3 369.7 275.1Q371 274.0 373.1 274.0L373.1 274.0Q375.1 274.0 376.3 275.1Q377.6 276.3 377.6 278.6L377.6 278.6L377.6 306.8Q377.6 313.4 373.1 317.1Q368.6 320.8 360.5 320.7ZM361 300.6L361 300.6Q364.4 300.6 366.5 298.1Q368.5 295.5 368.5 291.0Q368.5 286.4 366.5 283.7Q364.4 281.1 361 281.1L361 281.1Q357.6 281.1 355.6 283.7Q353.7 286.4 353.7 290.9L353.7 290.9Q353.7 295.5 355.6 298.1Q357.6 300.6 361 300.6ZM393 284.7Q391.5 286.2 389.4 286.2Q387.3 286.2 385.9 284.7Q384.4 283.2 384.4 281.1L384.4 281.1Q384.4 279.0 385.9 277.6Q387.3 276.1 389.4 276.1Q391.5 276.1 393 277.6Q394.5 279.1 394.5 281.1Q394.5 283.2 393 284.7ZM393 307.1Q391.5 308.5 389.4 308.5Q387.3 308.5 385.9 307.1Q384.4 305.6 384.4 303.5Q384.4 301.4 385.9 299.9Q387.3 298.5 389.4 298.5Q391.5 298.5 393 299.9Q394.5 301.4 394.5 303.5Q394.5 305.6 393 307.1Z M433.7 307.4Q432.4 308.7 430.2 308.7Q428 308.7 426.8 307.4Q425.5 306.1 425.5 303.8L425.5 303.8L425.5 270.9L416.2 270.9Q414.3 270.9 413.1 269.8Q411.9 268.8 411.9 267.0Q411.9 265.1 413.1 264.1Q414.2 263.1 416.2 263.1L416.2 263.1L444.3 263.1Q446.2 263.1 447.4 264.1Q448.5 265.1 448.5 267.0Q448.5 268.8 447.4 269.8Q446.2 270.9 444.3 270.9L444.3 270.9L434.9 270.9L434.9 303.8Q434.9 306.1 433.7 307.4ZM457 308.8L457 308.8Q454.9 308.8 453.7 307.6Q452.4 306.3 452.4 304.1L452.4 304.1L452.4 278.6Q452.4 276.4 453.6 275.2Q454.8 274.0 456.8 274.0L456.8 274.0Q458.8 274.0 460.0 275.2Q461.2 276.4 461.2 278.6L461.2 278.6L461.2 280.7L461.3 280.7Q462 277.6 463.9 275.9Q465.8 274.1 468.3 274.1L468.3 274.1Q470.2 274.1 471.2 275.0L471.2 275.0Q472.5 276.0 472.5 278.3L472.5 278.3Q472.5 280.5 471.2 281.6L471.2 281.6Q469.8 282.8 467.2 282.8L467.2 282.8Q464.2 282.8 462.9 284.4Q461.6 286.1 461.6 289.2L461.6 289.2L461.6 304.1Q461.6 306.3 460.3 307.6Q459.1 308.8 457 308.8ZM485.6 308.7L485.6 308.7Q480.8 308.7 477.6 305.8Q474.4 303.0 474.4 298.5L474.4 298.5Q474.4 294.0 477.8 291.4Q481.2 288.8 487.5 288.4L487.5 288.4L495.9 287.9L495.9 285.7Q495.9 283.4 494.4 282.1Q492.9 280.7 490.3 280.7L490.3 280.7Q488.2 280.7 486.8 281.5Q485.3 282.3 483.8 284.3L483.8 284.3Q482.3 286.0 480.2 286.0L480.2 286.0Q478.5 286.0 477.4 285.0Q476.3 284.0 476.3 282.5L476.3 282.5Q476.3 281.4 476.8 280.4L476.8 280.4Q478.0 277.4 481.7 275.7Q485.5 273.9 490.7 273.9L490.7 273.9Q497.1 273.9 501 277.0Q504.9 280.1 504.9 285.1L504.9 285.1L504.9 304.2Q504.9 306.4 503.7 307.6Q502.4 308.8 500.4 308.8L500.4 308.8Q498.5 308.8 497.4 307.8Q496.2 306.7 496.1 304.7L496.1 304.7L496.1 303.0L495.9 303.0Q494.5 305.6 491.7 307.2Q488.8 308.7 485.6 308.7ZM488.6 302.1L488.6 302.1Q491.7 302.1 493.8 300.3Q495.9 298.6 495.9 295.9L495.9 295.9L495.9 293.4L488.8 293.9Q486.3 294.1 484.9 295.1Q483.5 296.2 483.5 298.0L483.5 298.0Q483.5 299.9 484.9 301.0Q486.3 302.1 488.6 302.1ZM523.2 308.7L523.2 308.7Q516.9 308.7 513.2 304.0Q509.5 299.4 509.5 291.3L509.5 291.3Q509.5 283.4 513.2 278.7Q516.9 274.1 523.3 274.1L523.3 274.1Q526.8 274.1 529.5 275.8Q532.2 277.6 533.5 280.4L533.5 280.4L533.7 280.4L533.7 267.1Q533.7 264.9 534.9 263.6Q536.2 262.4 538.2 262.4Q540.3 262.4 541.5 263.6Q542.8 264.9 542.8 267.1L542.8 267.1L542.8 304.2Q542.8 306.4 541.5 307.6Q540.3 308.8 538.3 308.8L538.3 308.8Q536.2 308.8 534.9 307.6Q533.7 306.4 533.7 304.2L533.7 304.2L533.7 302.2L533.5 302.2Q532.4 305.1 529.7 306.9Q526.9 308.7 523.2 308.7ZM526.3 301.3L526.3 301.3Q529.7 301.3 531.7 298.7Q533.7 296.0 533.7 291.4L533.7 291.4Q533.7 286.8 531.7 284.1Q529.7 281.4 526.3 281.4L526.3 281.4Q522.8 281.4 520.9 284.1Q518.9 286.8 518.9 291.4L518.9 291.4Q518.9 296.0 520.9 298.7Q522.8 301.3 526.3 301.3ZM564.3 308.9L564.3 308.9Q556.4 308.9 552.0 304.3Q547.7 299.7 547.7 291.6L547.7 291.6Q547.7 283.5 552.0 278.7Q556.4 273.9 563.8 273.9L563.8 273.9Q570.9 273.9 575.3 278.3Q579.7 282.6 579.7 289.5L579.7 289.5Q579.7 291.4 578.7 292.5Q577.7 293.5 575.8 293.5L575.8 293.5L556.6 293.5L556.6 293.9Q556.6 297.6 558.7 299.9Q560.8 302.1 564.3 302.1L564.3 302.1Q566.8 302.1 568.6 301.2Q570.4 300.3 572.3 298.1L572.3 298.1Q573.6 296.7 575.2 296.7L575.2 296.7Q576.8 296.7 577.8 297.6Q578.8 298.6 578.8 300.1L578.8 300.1Q578.8 301.1 578.2 302.3L578.2 302.3Q576.5 305.4 572.8 307.1Q569.1 308.9 564.3 308.9ZM556.7 287.9L556.7 287.9L570.9 287.9Q570.8 284.6 568.9 282.6Q566.9 280.7 563.9 280.7Q560.9 280.7 559.0 282.7Q557.0 284.7 556.7 287.9ZM611.9 304.2Q607.4 308.9 599.8 308.9Q592.1 308.9 587.7 304.2Q583.2 299.6 583.2 291.4L583.2 291.4Q583.2 283.3 587.7 278.6Q592.2 273.9 599.8 273.9L599.8 273.9Q607.4 273.9 611.9 278.6Q616.4 283.3 616.4 291.4L616.4 291.4Q616.4 299.6 611.9 304.2ZM599.8 301.9L599.8 301.9Q603.2 301.9 605.1 299.1Q607.1 296.4 607.1 291.4L607.1 291.4Q607.1 286.5 605.1 283.7Q603.2 280.9 599.8 280.9Q596.4 280.9 594.4 283.7Q592.4 286.5 592.4 291.4L592.4 291.4Q592.4 296.4 594.4 299.1Q596.4 301.9 599.8 301.9ZM631.4 307.6Q630.2 308.8 628.1 308.8Q626.0 308.8 624.7 307.6Q623.5 306.4 623.5 304.1L623.5 304.1L623.5 281.5L621.8 281.5Q620.3 281.5 619.3 280.6Q618.4 279.7 618.4 278.1Q618.4 276.6 619.3 275.7Q620.3 274.8 621.8 274.8L621.8 274.8L623.5 274.8L623.5 272.3Q623.5 267.4 625.9 265.0Q628.3 262.7 633.1 262.6L633.1 262.6Q636.6 262.6 638.3 263.6Q639.9 264.6 639.9 266.3L639.9 266.3Q639.9 268.2 638.1 268.7L638.1 268.7Q637.3 269.0 636.3 269.0L636.3 269.0Q634.3 269.1 633.3 269.9Q632.4 270.8 632.4 272.7L632.4 272.7L632.4 274.8L636.3 274.8Q637.7 274.8 638.7 275.7Q639.6 276.6 639.6 278.1Q639.6 279.7 638.7 280.6Q637.7 281.5 636.3 281.5L636.3 281.5L632.6 281.5L632.6 304.1Q632.6 306.4 631.4 307.6ZM654.2 307.6Q652.9 308.8 650.8 308.8Q648.8 308.8 647.5 307.6Q646.3 306.4 646.3 304.1L646.3 304.1L646.3 281.5L644.5 281.5Q643.1 281.5 642.1 280.6Q641.2 279.7 641.2 278.1Q641.2 276.6 642.1 275.7Q643.1 274.8 644.5 274.8L644.5 274.8L646.3 274.8L646.3 272.3Q646.3 267.4 648.7 265.0Q651.0 262.7 655.8 262.6L655.8 262.6Q659.3 262.6 661.0 263.6Q662.7 264.6 662.7 266.3L662.7 266.3Q662.7 268.2 660.9 268.7L660.9 268.7Q660.0 269.0 659.1 269.0L659.1 269.0Q657.0 269.1 656.1 269.9Q655.2 270.8 655.2 272.7L655.2 272.7L655.2 274.8L659.0 274.8Q660.5 274.8 661.4 275.7Q662.4 276.6 662.4 278.1Q662.4 279.7 661.4 280.6Q660.5 281.5 659.0 281.5L659.0 281.5L655.4 281.5L655.4 304.1Q655.4 306.4 654.2 307.6ZM680.3 308.9L680.3 308.9Q674.7 308.9 670.9 307.0Q667.1 305.2 665.9 302.2L665.9 302.2Q665.5 301.2 665.5 300.5L665.5 300.5Q665.5 298.9 666.6 298.0Q667.6 297.0 669.2 297.0L669.2 297.0Q671.3 297.0 673.2 299.1L673.2 299.1Q674.6 300.8 676.3 301.6Q677.9 302.5 680.5 302.5L680.5 302.5Q683 302.5 684.5 301.5Q686.0 300.5 686.0 298.9L686.0 298.9Q686.0 297.5 685.0 296.7Q684.0 295.9 681.5 295.4L681.5 295.4L675.9 294.2Q671 293.1 668.5 290.7Q666.0 288.2 666.0 284.5L666.0 284.5Q666.0 279.6 669.9 276.8Q673.8 273.9 680.3 273.9L680.3 273.9Q685.3 273.9 688.9 275.9Q692.5 277.9 693.4 280.9L693.4 280.9Q693.6 281.7 693.6 282.2L693.6 282.2Q693.6 283.6 692.7 284.5Q691.8 285.3 690.1 285.3L690.1 285.3Q688.0 285.3 686.8 283.9L686.8 283.9Q685.4 282.2 683.9 281.3Q682.4 280.3 680.1 280.3L680.1 280.3Q677.8 280.3 676.3 281.3Q674.8 282.3 674.8 284.0L674.8 284.0Q674.8 285.3 675.9 286.2Q677.0 287.1 679.5 287.6L679.5 287.6L685.0 288.8Q690.4 289.9 692.7 292.0Q695.1 294.1 695.1 297.9L695.1 297.9Q695.1 302.9 691.0 305.9Q686.9 308.9 680.3 308.9Z M716.9 308.8L716.9 308.8Q714.9 308.8 713.7 307.6Q712.5 306.4 712.5 304.2L712.5 304.2L712.5 267.1Q712.5 264.9 713.7 263.6Q715.0 262.4 717.0 262.4Q719.1 262.4 720.3 263.6Q721.6 264.9 721.6 267.1L721.6 267.1L721.6 280.5L721.8 280.5Q723.2 277.5 725.9 275.8Q728.6 274.1 732.1 274.1L732.1 274.1Q738.5 274.1 742.1 278.7Q745.8 283.3 745.8 291.4Q745.8 299.5 742.1 304.1Q738.5 308.7 732.2 308.7L732.2 308.7Q728.5 308.7 725.8 307.0Q723.1 305.4 721.7 302.4L721.7 302.4L721.5 302.4L721.5 304.2Q721.5 306.4 720.2 307.6Q719 308.8 716.9 308.8ZM729.0 301.3L729.0 301.3Q732.4 301.3 734.4 298.7Q736.4 296.0 736.4 291.4L736.4 291.4Q736.4 286.8 734.4 284.1Q732.4 281.4 729.0 281.4L729.0 281.4Q725.7 281.4 723.6 284.2Q721.6 286.9 721.6 291.4L721.6 291.4Q721.6 295.9 723.6 298.6Q725.7 301.3 729.0 301.3ZM765.9 308.9L765.9 308.9Q758.0 308.9 753.6 304.3Q749.3 299.7 749.3 291.6L749.3 291.6Q749.3 283.5 753.6 278.7Q758 273.9 765.4 273.9L765.4 273.9Q772.5 273.9 776.9 278.3Q781.3 282.6 781.3 289.5L781.3 289.5Q781.3 291.4 780.3 292.5Q779.3 293.5 777.3 293.5L777.3 293.5L758.2 293.5L758.2 293.9Q758.2 297.6 760.3 299.9Q762.4 302.1 765.8 302.1L765.8 302.1Q768.3 302.1 770.2 301.2Q772 300.3 773.8 298.1L773.8 298.1Q775.2 296.7 776.8 296.7L776.8 296.7Q778.3 296.7 779.4 297.6Q780.4 298.6 780.4 300.1L780.4 300.1Q780.4 301.1 779.8 302.3L779.8 302.3Q778.1 305.4 774.4 307.1Q770.7 308.9 765.9 308.9ZM758.3 287.9L758.3 287.9L772.5 287.9Q772.4 284.6 770.5 282.6Q768.5 280.7 765.5 280.7Q762.5 280.7 760.5 282.7Q758.6 284.7 758.3 287.9ZM788.4 299.6L788.4 299.6L788.4 281.5L786.7 281.5Q785.1 281.5 784.1 280.6Q783.2 279.7 783.2 278.1Q783.2 276.5 784.1 275.6Q785.1 274.6 786.7 274.6L786.7 274.6L788.4 274.6L788.4 270.9Q788.4 268.7 789.7 267.4Q790.9 266.2 793 266.2Q795.1 266.2 796.3 267.4Q797.6 268.7 797.6 270.9L797.6 270.9L797.6 274.6L800.8 274.6Q802.4 274.6 803.3 275.6Q804.3 276.5 804.3 278.1Q804.3 279.6 803.3 280.6Q802.4 281.5 800.8 281.5L800.8 281.5L797.6 281.5L797.6 297.6Q797.6 299.3 798.2 300.1Q798.9 301.0 800.3 301.1L800.3 301.1L800.9 301.1Q802.7 301.3 803.5 302.1Q804.4 302.9 804.4 304.5L804.4 304.5Q804.4 306.4 802.7 307.5Q800.9 308.5 797.9 308.5L797.9 308.5L797.6 308.5Q788.4 308.5 788.4 299.6ZM820 308.8L820 308.8Q817.7 308.8 816.3 307.7Q814.9 306.5 814.2 304.0L814.2 304.0L807.5 280.7Q807.0 279.0 807.0 277.9L807.0 277.9Q807.0 276.1 808.2 275.1Q809.4 274.0 811.4 274.0L811.4 274.0Q814.8 274.0 815.7 277.8L815.7 277.8L820.6 299.5L820.8 299.5L826 278.1Q826.9 274.0 831.2 274.0L831.2 274.0Q833.2 274.0 834.5 275.0Q835.8 276.1 836.3 278.1L836.3 278.1L841.5 299.5L841.7 299.5L846.7 277.8Q847.0 275.9 848.1 274.9Q849.2 274.0 850.9 274.0L850.9 274.0Q852.8 274.0 854.0 275.0Q855.2 276.1 855.2 277.8L855.2 277.8Q855.2 278.9 854.7 280.6L854.7 280.6L847.9 304.0Q847.2 306.5 845.8 307.6Q844.4 308.8 842.1 308.8L842.1 308.8Q839.6 308.8 838.2 307.7Q836.8 306.5 836.2 304.0L836.2 304.0L831.1 284.5L830.9 284.5L825.8 304.0Q825.3 306.5 823.8 307.6Q822.4 308.8 820 308.8ZM874.7 308.9L874.7 308.9Q866.9 308.9 862.5 304.3Q858.1 299.7 858.1 291.6L858.1 291.6Q858.1 283.5 862.5 278.7Q866.8 273.9 874.3 273.9L874.3 273.9Q881.4 273.9 885.8 278.3Q890.2 282.6 890.2 289.5L890.2 289.5Q890.2 291.4 889.1 292.5Q888.1 293.5 886.2 293.5L886.2 293.5L867.1 293.5L867.1 293.9Q867.1 297.6 869.1 299.9Q871.2 302.1 874.7 302.1L874.7 302.1Q877.2 302.1 879.0 301.2Q880.8 300.3 882.7 298.1L882.7 298.1Q884 296.7 885.7 296.7L885.7 296.7Q887.2 296.7 888.2 297.6Q889.2 298.6 889.2 300.1L889.2 300.1Q889.2 301.1 888.6 302.3L888.6 302.3Q886.9 305.4 883.3 307.1Q879.6 308.9 874.7 308.9ZM867.2 287.9L867.2 287.9L881.4 287.9Q881.3 284.6 879.3 282.6Q877.4 280.7 874.4 280.7Q871.4 280.7 869.4 282.7Q867.4 284.7 867.2 287.9ZM910.3 308.9L910.3 308.9Q902.4 308.9 898.0 304.3Q893.6 299.7 893.6 291.6L893.6 291.6Q893.6 283.5 898 278.7Q902.4 273.9 909.8 273.9L909.8 273.9Q916.9 273.9 921.3 278.3Q925.7 282.6 925.7 289.5L925.7 289.5Q925.7 291.4 924.7 292.5Q923.6 293.5 921.7 293.5L921.7 293.5L902.6 293.5L902.6 293.9Q902.6 297.6 904.7 299.9Q906.8 302.1 910.2 302.1L910.2 302.1Q912.7 302.1 914.5 301.2Q916.4 300.3 918.2 298.1L918.2 298.1Q919.5 296.7 921.2 296.7L921.2 296.7Q922.7 296.7 923.7 297.6Q924.8 298.6 924.8 300.1L924.8 300.1Q924.8 301.1 924.1 302.3L924.1 302.3Q922.5 305.4 918.8 307.1Q915.1 308.9 910.3 308.9ZM902.7 287.9L902.7 287.9L916.9 287.9Q916.8 284.6 914.8 282.6Q912.9 280.7 909.9 280.7Q906.9 280.7 904.9 282.7Q902.9 284.7 902.7 287.9ZM938.3 307.6Q937 308.8 934.9 308.8Q932.9 308.8 931.6 307.6Q930.4 306.3 930.4 304.1L930.4 304.1L930.4 278.6Q930.4 276.4 931.5 275.2Q932.7 274.0 934.8 274.0Q936.8 274.0 938.1 275.2Q939.3 276.5 939.3 278.6L939.3 278.6L939.3 280.5L939.5 280.5Q942.3 274.0 949.8 274.0L949.8 274.0Q955.4 274.0 958.4 277.3Q961.5 280.6 961.5 286.6L961.5 286.6L961.5 304.1Q961.5 306.3 960.2 307.6Q959.0 308.8 956.9 308.8Q954.8 308.8 953.6 307.6Q952.3 306.3 952.3 304.1L952.3 304.1L952.3 288.5Q952.3 285.1 950.8 283.4Q949.2 281.6 946.2 281.6Q943.2 281.6 941.3 283.6Q939.5 285.6 939.5 288.9L939.5 288.9L939.5 304.1Q939.5 306.3 938.3 307.6Z M92.3 382.5L92.3 382.5Q85.5 382.5 81.0 380.1Q76.6 377.7 75.2 373.8L75.2 373.8Q74.7 372.5 74.7 371.3L74.7 371.3Q74.7 369.4 75.8 368.3Q77.0 367.2 78.8 367.2L78.8 367.2Q80.3 367.2 81.3 367.8Q82.3 368.4 83.2 369.9L83.2 369.9Q84.2 372.4 86.7 373.7Q89.1 374.9 92.5 374.9L92.5 374.9Q96.3 374.9 98.6 373.3Q101.0 371.7 101.0 369.2L101.0 369.2Q101.0 366.9 99.2 365.6Q97.4 364.2 93.2 363.3L93.2 363.3L88.4 362.4Q75 359.8 75 349.6L75 349.6Q75 345.5 77.2 342.4Q79.4 339.3 83.3 337.6Q87.3 335.9 92.2 335.9L92.2 335.9Q98.4 335.9 102.8 338.3Q107.2 340.8 108.7 345.2L108.7 345.2Q109.0 346.2 109.0 347.3L109.0 347.3Q109.0 349 107.9 350.0Q106.8 351.1 105 351.1L105 351.1Q103.4 351.1 102.4 350.4Q101.3 349.8 100.5 348.3L100.5 348.3Q98.4 343.5 92.2 343.5L92.2 343.5Q88.7 343.5 86.6 345.0Q84.5 346.5 84.5 349L84.5 349Q84.5 351.1 86.2 352.4Q88 353.8 92.0 354.6L92.0 354.6L96.7 355.5Q103.9 357.0 107.1 360.0Q110.4 363.0 110.4 368.1L110.4 368.1Q110.4 374.8 105.5 378.6Q100.7 382.5 92.3 382.5ZM121.1 394.2L121.1 394.2Q118.1 394.2 116.5 393.0Q114.9 391.9 114.9 389.9L114.9 389.9Q114.9 388.5 115.8 387.7Q116.7 386.9 118.3 386.9L118.3 386.9Q118.6 386.9 119.0 386.9Q119.5 386.9 119.8 386.9L119.8 386.9Q122.8 386.9 124.3 383.9L124.3 383.9L124.7 382.7L114.0 354.5Q113.5 353.1 113.5 351.8L113.5 351.8Q113.5 350.0 114.8 348.8Q116.2 347.6 118.2 347.6L118.2 347.6Q120.0 347.6 121.0 348.4Q122.1 349.3 122.6 351.3L122.6 351.3L129.9 374.4L130.1 374.4L137.3 351.2Q137.9 349.3 139.0 348.4Q140 347.6 141.8 347.6L141.8 347.6Q143.7 347.6 145.0 348.7Q146.2 349.9 146.2 351.7L146.2 351.7Q146.2 353.0 145.7 354.4L145.7 354.4L135.4 382.3Q133.1 388.8 129.8 391.5Q126.6 394.2 121.1 394.2ZM154.7 382.4L154.7 382.4Q152.6 382.4 151.4 381.2Q150.1 379.9 150.1 377.7L150.1 377.7L150.1 352.2Q150.1 350.0 151.3 348.8Q152.5 347.6 154.5 347.6Q156.5 347.6 157.7 348.8Q158.9 350.0 158.9 352.2L158.9 352.2L158.9 354.3L159.1 354.3Q160.2 351.3 162.8 349.4Q165.3 347.6 168.7 347.6L168.7 347.6Q172.3 347.6 174.8 349.4Q177.2 351.2 178.0 354.5L178.0 354.5L178.2 354.5Q179.3 351.3 182.1 349.5Q184.9 347.6 188.6 347.6L188.6 347.6Q193.6 347.6 196.6 350.7Q199.6 353.8 199.6 358.9L199.6 358.9L199.6 377.7Q199.6 379.9 198.3 381.2Q197.1 382.4 195 382.4L195 382.4Q192.9 382.4 191.7 381.2Q190.5 379.9 190.5 377.7L190.5 377.7L190.5 361.2Q190.5 358.3 189.1 356.7Q187.7 355.2 185 355.2L185 355.2Q182.4 355.2 180.8 356.9Q179.3 358.6 179.3 361.4L179.3 361.4L179.3 377.7Q179.3 379.9 178.1 381.2Q176.9 382.4 174.8 382.4L174.8 382.4Q172.8 382.4 171.6 381.2Q170.5 379.9 170.5 377.7L170.5 377.7L170.5 360.9Q170.5 358.2 169.0 356.7Q167.6 355.2 165.1 355.2L165.1 355.2Q162.5 355.2 160.9 356.9Q159.3 358.7 159.3 361.5L159.3 361.5L159.3 377.7Q159.3 379.9 158 381.2Q156.8 382.4 154.7 382.4ZM210.1 382.4L210.1 382.4Q208.0 382.4 206.8 381.2Q205.6 380.0 205.6 377.8L205.6 377.8L205.6 340.8Q205.6 338.5 206.8 337.2Q208.1 336.0 210.2 336.0Q212.2 336.0 213.5 337.2Q214.7 338.5 214.7 340.8L214.7 340.8L214.7 354.1L214.9 354.1Q216.3 351.1 219.0 349.4Q221.7 347.7 225.3 347.7L225.3 347.7Q231.6 347.7 235.3 352.3Q238.9 356.9 238.9 365Q238.9 373.1 235.3 377.7Q231.6 382.3 225.3 382.3L225.3 382.3Q221.7 382.3 218.9 380.6Q216.2 379.0 214.8 376L214.8 376L214.6 376L214.6 377.8Q214.6 380 213.4 381.2Q212.1 382.4 210.1 382.4ZM222.2 374.9L222.2 374.9Q225.6 374.9 227.5 372.3Q229.5 369.6 229.5 365L229.5 365Q229.5 360.4 227.5 357.7Q225.6 355.0 222.2 355.0L222.2 355.0Q218.8 355.0 216.8 357.8Q214.7 360.5 214.7 365L214.7 365Q214.7 369.5 216.8 372.2Q218.8 374.9 222.2 374.9ZM271.1 377.8Q266.6 382.5 259.0 382.5Q251.3 382.5 246.8 377.8Q242.4 373.2 242.4 365.0L242.4 365.0Q242.4 356.9 246.9 352.2Q251.4 347.5 259.0 347.5L259.0 347.5Q266.6 347.5 271.1 352.2Q275.6 356.9 275.6 365.0L275.6 365.0Q275.6 373.2 271.1 377.8ZM259.0 375.5L259.0 375.5Q262.3 375.5 264.3 372.8Q266.3 370 266.3 365L266.3 365Q266.3 360.1 264.3 357.3Q262.3 354.5 259.0 354.5Q255.6 354.5 253.6 357.3Q251.6 360.1 251.6 365L251.6 365Q251.6 370 253.6 372.8Q255.6 375.5 259.0 375.5ZM288.3 381.2Q287.1 382.4 285.0 382.4Q283.0 382.4 281.7 381.2Q280.5 379.9 280.5 377.7L280.5 377.7L280.5 340.8Q280.5 338.5 281.7 337.2Q283.0 336.0 285.0 336.0Q287.1 336.0 288.3 337.2Q289.6 338.5 289.6 340.8L289.6 340.8L289.6 377.7Q289.6 379.9 288.3 381.2ZM309.4 382.5L309.4 382.5Q303.8 382.5 300 380.6Q296.2 378.8 295 375.8L295 375.8Q294.7 374.8 294.7 374.1L294.7 374.1Q294.7 372.5 295.7 371.6Q296.8 370.6 298.3 370.6L298.3 370.6Q300.5 370.6 302.3 372.7L302.3 372.7Q303.7 374.4 305.4 375.3Q307.1 376.1 309.6 376.1L309.6 376.1Q312.1 376.1 313.6 375.1Q315.1 374.1 315.1 372.5L315.1 372.5Q315.1 371.1 314.1 370.3Q313.1 369.5 310.7 369.0L310.7 369.0L305.0 367.8Q300.1 366.7 297.6 364.3Q295.2 361.8 295.2 358.1L295.2 358.1Q295.2 353.3 299.0 350.4Q302.9 347.5 309.4 347.5L309.4 347.5Q314.4 347.5 318.0 349.5Q321.7 351.5 322.5 354.5L322.5 354.5Q322.7 355.3 322.7 355.8L322.7 355.8Q322.7 357.3 321.8 358.1Q320.9 358.9 319.2 358.9L319.2 358.9Q317.1 358.9 315.9 357.5L315.9 357.5Q314.5 355.8 313.0 354.9Q311.5 353.9 309.2 353.9L309.2 353.9Q306.9 353.9 305.4 354.9Q304.0 355.9 304.0 357.6L304.0 357.6Q304.0 358.9 305.1 359.8Q306.2 360.7 308.6 361.2L308.6 361.2L314.2 362.4Q319.5 363.5 321.9 365.6Q324.2 367.8 324.2 371.5L324.2 371.5Q324.2 376.5 320.1 379.5Q316.1 382.5 309.4 382.5Z M351.3 382.3L351.3 382.3Q346.4 382.3 343.3 379.4Q340.1 376.6 340.1 372.1L340.1 372.1Q340.1 367.6 343.4 365.0Q346.8 362.4 353.1 362L353.1 362L361.6 361.5L361.6 359.3Q361.6 357.0 360.0 355.7Q358.5 354.3 355.9 354.3L355.9 354.3Q353.8 354.3 352.4 355.1Q351.0 355.9 349.4 357.9L349.4 357.9Q347.9 359.6 345.8 359.6L345.8 359.6Q344.2 359.6 343.1 358.6Q342 357.6 342 356.1L342 356.1Q342 355.0 342.5 354L342.5 354Q343.6 351 347.4 349.3Q351.1 347.5 356.3 347.5L356.3 347.5Q362.8 347.5 366.7 350.6Q370.5 353.7 370.5 358.7L370.5 358.7L370.5 377.8Q370.5 380.0 369.3 381.2Q368.1 382.4 366.1 382.4L366.1 382.4Q364.2 382.4 363.0 381.4Q361.8 380.3 361.7 378.3L361.7 378.3L361.7 376.6L361.5 376.6Q360.2 379.3 357.3 380.8Q354.5 382.3 351.3 382.3ZM354.3 375.7L354.3 375.7Q357.3 375.7 359.4 373.9Q361.6 372.2 361.6 369.5L361.6 369.5L361.6 367.0L354.5 367.5Q351.9 367.7 350.5 368.8Q349.2 369.8 349.2 371.6L349.2 371.6Q349.2 373.5 350.6 374.6Q352.0 375.7 354.3 375.7ZM384.3 381.2Q383.0 382.4 381.0 382.4Q378.9 382.4 377.7 381.2Q376.4 379.9 376.4 377.7L376.4 377.7L376.4 352.2Q376.4 350.0 377.6 348.8Q378.8 347.6 380.8 347.6Q382.9 347.6 384.1 348.8Q385.4 350.1 385.4 352.2L385.4 352.2L385.4 354.1L385.6 354.1Q388.3 347.6 395.9 347.6L395.9 347.6Q401.4 347.6 404.5 350.9Q407.5 354.3 407.5 360.2L407.5 360.2L407.5 377.7Q407.5 379.9 406.3 381.2Q405 382.4 402.9 382.4Q400.9 382.4 399.6 381.2Q398.4 379.9 398.4 377.7L398.4 377.7L398.4 362.1Q398.4 358.8 396.8 357.0Q395.3 355.2 392.2 355.2Q389.2 355.2 387.4 357.2Q385.5 359.3 385.5 362.5L385.5 362.5L385.5 377.7Q385.5 379.9 384.3 381.2ZM425.7 382.3L425.7 382.3Q419.4 382.3 415.8 377.6Q412.1 373.0 412.1 364.9L412.1 364.9Q412.1 357.0 415.8 352.3Q419.5 347.7 425.8 347.7L425.8 347.7Q429.3 347.7 432.0 349.4Q434.8 351.2 436 354L436 354L436.2 354L436.2 340.8Q436.2 338.5 437.4 337.2Q438.7 336.0 440.8 336.0Q442.8 336.0 444.1 337.2Q445.3 338.5 445.3 340.8L445.3 340.8L445.3 377.8Q445.3 380 444.1 381.2Q442.8 382.4 440.8 382.4L440.8 382.4Q438.8 382.4 437.5 381.2Q436.2 380 436.2 377.8L436.2 377.8L436.2 375.8L436.0 375.8Q434.9 378.8 432.2 380.5Q429.5 382.3 425.7 382.3ZM428.8 374.9L428.8 374.9Q432.2 374.9 434.2 372.3Q436.3 369.6 436.3 365L436.3 365Q436.3 360.4 434.2 357.7Q432.2 355.0 428.8 355.0L428.8 355.0Q425.4 355.0 423.4 357.7Q421.4 360.4 421.4 365L421.4 365Q421.4 369.6 423.4 372.3Q425.4 374.9 428.8 374.9Z M491 381.8L469.6 381.8Q467.3 381.8 466.1 380.5Q464.8 379.2 464.8 376.8L464.8 376.8L464.8 341.6Q464.8 339.3 466.1 338.0Q467.3 336.7 469.6 336.7L469.6 336.7L491 336.7Q493.0 336.7 494.1 337.7Q495.3 338.8 495.3 340.6Q495.3 342.4 494.1 343.4Q492.9 344.5 491 344.5L491 344.5L474.3 344.5L474.3 355.3L490.2 355.3Q492.0 355.3 493.0 356.3Q494.1 357.3 494.1 358.9L494.1 358.9Q494.1 360.6 493.0 361.6Q492.0 362.6 490.2 362.6L490.2 362.6L474.3 362.6L474.3 373.9L491 373.9Q492.9 373.9 494.1 375.0Q495.3 376.0 495.3 377.8Q495.3 379.7 494.1 380.7Q493.0 381.8 491 381.8L491 381.8ZM505.3 382.4L505.3 382.4Q503.2 382.4 502.0 381.2Q500.8 379.9 500.8 377.7L500.8 377.7L500.8 352.2Q500.8 350.0 502.0 348.8Q503.2 347.6 505.2 347.6Q507.2 347.6 508.4 348.8Q509.6 350.0 509.6 352.2L509.6 352.2L509.6 354.3L509.8 354.3Q510.8 351.3 513.4 349.4Q515.9 347.6 519.3 347.6L519.3 347.6Q522.9 347.6 525.4 349.4Q527.8 351.2 528.7 354.5L528.7 354.5L528.8 354.5Q530.0 351.3 532.8 349.5Q535.6 347.6 539.3 347.6L539.3 347.6Q544.2 347.6 547.2 350.7Q550.2 353.8 550.2 358.9L550.2 358.9L550.2 377.7Q550.2 379.9 549.0 381.2Q547.7 382.4 545.6 382.4L545.6 382.4Q543.6 382.4 542.3 381.2Q541.1 379.9 541.1 377.7L541.1 377.7L541.1 361.2Q541.1 358.3 539.7 356.7Q538.3 355.2 535.6 355.2L535.6 355.2Q533.0 355.2 531.5 356.9Q529.9 358.6 529.9 361.4L529.9 361.4L529.9 377.7Q529.9 379.9 528.7 381.2Q527.5 382.4 525.5 382.4L525.5 382.4Q523.4 382.4 522.3 381.2Q521.1 379.9 521.1 377.7L521.1 377.7L521.1 360.9Q521.1 358.2 519.7 356.7Q518.2 355.2 515.7 355.2L515.7 355.2Q513.1 355.2 511.5 356.9Q509.9 358.7 509.9 361.5L509.9 361.5L509.9 377.7Q509.9 379.9 508.6 381.2Q507.4 382.4 505.3 382.4ZM560.7 382.4L560.7 382.4Q558.7 382.4 557.4 381.2Q556.2 380.0 556.2 377.8L556.2 377.8L556.2 340.8Q556.2 338.5 557.5 337.2Q558.7 336.0 560.8 336.0Q562.8 336.0 564.1 337.2Q565.3 338.5 565.3 340.8L565.3 340.8L565.3 354.1L565.5 354.1Q566.9 351.1 569.6 349.4Q572.3 347.7 575.9 347.7L575.9 347.7Q582.3 347.7 585.9 352.3Q589.5 356.9 589.5 365Q589.5 373.1 585.9 377.7Q582.3 382.3 575.9 382.3L575.9 382.3Q572.3 382.3 569.6 380.6Q566.8 379.0 565.4 376L565.4 376L565.2 376L565.2 377.8Q565.2 380 564.0 381.2Q562.8 382.4 560.7 382.4ZM572.8 374.9L572.8 374.9Q576.2 374.9 578.2 372.3Q580.2 369.6 580.2 365L580.2 365Q580.2 360.4 578.2 357.7Q576.2 355.0 572.8 355.0L572.8 355.0Q569.4 355.0 567.4 357.8Q565.3 360.5 565.3 365L565.3 365Q565.3 369.5 567.4 372.2Q569.4 374.9 572.8 374.9ZM609.6 382.5L609.6 382.5Q601.8 382.5 597.4 377.9Q593 373.3 593 365.2L593 365.2Q593 357.1 597.4 352.3Q601.8 347.5 609.2 347.5L609.2 347.5Q616.3 347.5 620.7 351.9Q625.1 356.3 625.1 363.1L625.1 363.1Q625.1 365.0 624.0 366.1Q623 367.1 621.1 367.1L621.1 367.1L602.0 367.1L602.0 367.5Q602.0 371.2 604.0 373.5Q606.1 375.7 609.6 375.7L609.6 375.7Q612.1 375.7 613.9 374.8Q615.8 373.9 617.6 371.7L617.6 371.7Q618.9 370.3 620.6 370.3L620.6 370.3Q622.1 370.3 623.1 371.3Q624.1 372.2 624.1 373.7L624.1 373.7Q624.1 374.8 623.5 375.9L623.5 375.9Q621.8 379 618.2 380.7Q614.5 382.5 609.6 382.5ZM602.1 361.5L602.1 361.5L616.3 361.5Q616.2 358.2 614.2 356.3Q612.3 354.3 609.3 354.3Q606.3 354.3 604.3 356.3Q602.3 358.3 602.1 361.5ZM642.2 382.3L642.2 382.3Q635.9 382.3 632.2 377.6Q628.5 373.0 628.5 364.9L628.5 364.9Q628.5 357.0 632.2 352.3Q635.9 347.7 642.3 347.7L642.3 347.7Q645.8 347.7 648.5 349.4Q651.2 351.2 652.5 354L652.5 354L652.7 354L652.7 340.8Q652.7 338.5 653.9 337.2Q655.2 336.0 657.2 336.0Q659.3 336.0 660.5 337.2Q661.8 338.5 661.8 340.8L661.8 340.8L661.8 377.8Q661.8 380 660.5 381.2Q659.3 382.4 657.3 382.4L657.3 382.4Q655.2 382.4 653.9 381.2Q652.7 380 652.7 377.8L652.7 377.8L652.7 375.8L652.5 375.8Q651.4 378.8 648.7 380.5Q645.9 382.3 642.2 382.3ZM645.3 374.9L645.3 374.9Q648.7 374.9 650.7 372.3Q652.7 369.6 652.7 365L652.7 365Q652.7 360.4 650.7 357.7Q648.7 355.0 645.3 355.0L645.3 355.0Q641.8 355.0 639.9 357.7Q637.9 360.4 637.9 365L637.9 365Q637.9 369.6 639.9 372.3Q641.8 374.9 645.3 374.9ZM680.3 382.3L680.3 382.3Q674.0 382.3 670.3 377.6Q666.7 373.0 666.7 364.9L666.7 364.9Q666.7 357.0 670.4 352.3Q674.1 347.7 680.4 347.7L680.4 347.7Q683.9 347.7 686.6 349.4Q689.3 351.2 690.6 354L690.6 354L690.8 354L690.8 340.8Q690.8 338.5 692.0 337.2Q693.3 336.0 695.3 336.0Q697.4 336.0 698.7 337.2Q699.9 338.5 699.9 340.8L699.9 340.8L699.9 377.8Q699.9 380 698.7 381.2Q697.4 382.4 695.4 382.4L695.4 382.4Q693.3 382.4 692.1 381.2Q690.8 380 690.8 377.8L690.8 377.8L690.8 375.8L690.6 375.8Q689.5 378.8 686.8 380.5Q684.1 382.3 680.3 382.3ZM683.4 374.9L683.4 374.9Q686.8 374.9 688.8 372.3Q690.8 369.6 690.8 365L690.8 365Q690.8 360.4 688.8 357.7Q686.8 355.0 683.4 355.0L683.4 355.0Q680.0 355.0 678.0 357.7Q676 360.4 676 365L676 365Q676 369.6 678.0 372.3Q680.0 374.9 683.4 374.9ZM714.2 342.7Q712.8 344.1 710.7 344.1Q708.7 344.1 707.3 342.7Q705.8 341.3 705.8 339.4L705.8 339.4Q705.8 337.4 707.3 336.0Q708.7 334.7 710.7 334.7Q712.8 334.7 714.2 336.0Q715.6 337.4 715.6 339.4L715.6 339.4Q715.6 341.3 714.2 342.7ZM714.1 381.1Q712.8 382.4 710.7 382.4Q708.6 382.4 707.4 381.1Q706.2 379.9 706.2 377.7L706.2 377.7L706.2 352.3Q706.2 350.1 707.4 348.8Q708.6 347.6 710.7 347.6Q712.8 347.6 714.1 348.8Q715.3 350.1 715.3 352.3L715.3 352.3L715.3 377.7Q715.3 379.9 714.1 381.1ZM729.2 381.2Q728.0 382.4 725.9 382.4Q723.8 382.4 722.6 381.2Q721.3 379.9 721.3 377.7L721.3 377.7L721.3 352.2Q721.3 350.0 722.5 348.8Q723.7 347.6 725.8 347.6Q727.8 347.6 729.1 348.8Q730.3 350.1 730.3 352.2L730.3 352.2L730.3 354.1L730.5 354.1Q733.3 347.6 740.8 347.6L740.8 347.6Q746.4 347.6 749.4 350.9Q752.4 354.3 752.4 360.2L752.4 360.2L752.4 377.7Q752.4 379.9 751.2 381.2Q749.9 382.4 747.9 382.4Q745.8 382.4 744.6 381.2Q743.3 379.9 743.3 377.7L743.3 377.7L743.3 362.1Q743.3 358.8 741.8 357.0Q740.2 355.2 737.2 355.2Q734.1 355.2 732.3 357.2Q730.5 359.3 730.5 362.5L730.5 362.5L730.5 377.7Q730.5 379.9 729.2 381.2ZM773.2 394.3L773.2 394.3Q768.2 394.3 764.5 392.6Q760.8 390.9 759.1 388.2L759.1 388.2Q758.4 387.0 758.4 385.7L758.4 385.7Q758.4 384.2 759.4 383.3Q760.4 382.3 762.1 382.3L762.1 382.3Q763.8 382.3 765.3 383.6L765.3 383.6Q769.1 387.3 773.2 387.3L773.2 387.3Q776.9 387.3 779.0 385.4Q781.1 383.6 781.1 380.4L781.1 380.4L781.1 375.0L780.9 375.0Q779.7 377.8 777.0 379.4Q774.2 381.0 770.6 381.0L770.6 381.0Q764.3 381.0 760.7 376.6Q757 372.1 757 364.4L757 364.4Q757 356.6 760.6 352.1Q764.3 347.7 770.8 347.7L770.8 347.7Q774.3 347.7 777.0 349.4Q779.6 351.1 781.0 354.0L781.0 354.0L781.2 354.0L781.2 352.2Q781.2 349.9 782.4 348.8Q783.7 347.6 785.8 347.6L785.8 347.6Q787.8 347.6 789.0 348.8Q790.3 349.9 790.3 352.2L790.3 352.2L790.3 380.4Q790.3 387 785.8 390.7Q781.3 394.4 773.2 394.3ZM773.7 374.3L773.7 374.3Q777.1 374.3 779.2 371.7Q781.2 369.1 781.2 364.6Q781.2 360.0 779.2 357.3Q777.1 354.7 773.7 354.7L773.7 354.7Q770.3 354.7 768.3 357.3Q766.3 360 766.3 364.5L766.3 364.5Q766.3 369.1 768.3 371.7Q770.3 374.3 773.7 374.3ZM809.8 382.5L809.8 382.5Q804.2 382.5 800.4 380.6Q796.7 378.8 795.4 375.8L795.4 375.8Q795.1 374.8 795.1 374.1L795.1 374.1Q795.1 372.5 796.1 371.6Q797.2 370.6 798.8 370.6L798.8 370.6Q800.9 370.6 802.8 372.7L802.8 372.7Q804.1 374.4 805.8 375.3Q807.5 376.1 810.1 376.1L810.1 376.1Q812.6 376.1 814.0 375.1Q815.5 374.1 815.5 372.5L815.5 372.5Q815.5 371.1 814.5 370.3Q813.5 369.5 811.1 369.0L811.1 369.0L805.5 367.8Q800.6 366.7 798.1 364.3Q795.6 361.8 795.6 358.1L795.6 358.1Q795.6 353.3 799.5 350.4Q803.3 347.5 809.8 347.5L809.8 347.5Q814.9 347.5 818.5 349.5Q822.1 351.5 822.9 354.5L822.9 354.5Q823.2 355.3 823.2 355.8L823.2 355.8Q823.2 357.3 822.3 358.1Q821.4 358.9 819.7 358.9L819.7 358.9Q817.5 358.9 816.3 357.5L816.3 357.5Q815.0 355.8 813.5 354.9Q811.9 353.9 809.7 353.9L809.7 353.9Q807.3 353.9 805.9 354.9Q804.4 355.9 804.4 357.6L804.4 357.6Q804.4 358.9 805.5 359.8Q806.6 360.7 809.1 361.2L809.1 361.2L814.6 362.4Q819.9 363.5 822.3 365.6Q824.7 367.8 824.7 371.5L824.7 371.5Q824.7 376.5 820.6 379.5Q816.5 382.5 809.8 382.5Z " clip-path="url(#satori_cp-id-0)" mask="url(#satori_om-id-0)"/><defs><clipPath id="satori_bc-id-0-1" clip-path="url(#satori_cp-id-0)"><rect x="0" y="509" width="1200" height="121"/></clipPath></defs><mask id="satori_om-id-0-1"><rect x="0" y="510" width="1200" height="120" fill="#fff" mask="url(#satori_om-id-0)"/><path width="1200" height="121" fill="none" stroke="#000" stroke-width="2" d="M0,509 A0,0 0 0 1 0,509 h1200 A0,0 0 0 1 1200,509"/></mask><path width="1200" height="121" clip-path="url(#satori_bc-id-0-1)" fill="none" stroke="rgba(0,0,0,0.08)" stroke-width="2" d="M0,509 A0,0 0 0 1 0,509 h1200 A0,0 0 0 1 1200,509"/><mask id="satori_om-id-0-1-0"><rect x="48" y="538" width="228" height="64" fill="#fff" mask="url(#satori_om-id-0)"/></mask><mask id="satori_om-id-0-1-0-0"><rect x="48" y="538" width="72" height="64" fill="#fff" mask="url(#satori_om-id-0)"/></mask><clipPath id="satori_cp-id-0-1-0-0-0" clip-path="url(#satori_cp-id-0)"><rect x="48" y="538" width="72" height="64"/></clipPath><mask id="satori_om-id-0-1-0-0-0"><rect x="48" y="538" width="72" height="64" fill="#fff" mask="url(#satori_om-id-0)"/></mask><image x="48" y="538" width="72" height="64" href="data:image/svg+xml;utf8,%3Csvg  xmlns=%22http://www.w3.org/2000/svg%22 width=%2273.60461760461762%22 height=%2264%22 viewBox=%220 0 797 693%22%3E%3Cg transform=%22matrix(1,0,0,1,-345,-96.5)%22%3E%3Cpath d=%22M756.942,197.15L756.942,474C701.751,474 656.942,518.808 656.942,574C656.942,629.192 701.751,674 756.942,674L756.942,777L495.122,777C443.175,777 401,734.825 401,682.878L401,614L364.755,614C353.852,614 345,605.148 345,594.245L345,436.814C345,425.878 353.878,417 364.814,417L401,417L401,365.122C401,313.175 443.175,271 495.122,271L715.058,271L715.058,197.15C696.492,189.056 683.5,170.533 683.5,149C683.5,120.024 707.024,96.5 736,96.5C764.976,96.5 788.5,120.024 788.5,149C788.5,170.533 775.508,189.056 756.942,197.15ZM559,388C520.918,388 490,418.918 490,457C490,495.082 520.918,526 559,526C597.082,526 628,495.082 628,457C628,418.918 597.082,388 559,388Z%22 fill=%22%23ad47ff%22%3E%3C/path%3E%3Cg transform=%22matrix(-1,1.22465e-16,-1.22465e-16,-1,1486.06,1043)%22%3E%3Cpath d=%22M401,417L401,348.122C401,296.175 443.175,254 495.122,254L705.058,254L705.058,357C760.249,357 805.058,401.808 805.058,457C805.058,512.192 760.249,557 705.058,557L705.058,760L495.122,760C443.175,760 401,717.825 401,665.878L401,614L364.755,614C353.852,614 345,605.148 345,594.245L345,436.814C345,425.878 353.878,417 364.814,417L401,417ZM552,643C590.082,643 621,612.082 621,574C621,535.918 590.082,505 552,505C513.918,505 483,535.918 483,574C483,612.082 513.918,643 552,643Z%22 fill=%22%2300d5bd%22%3E%3C/path%3E%3C/g%3E%3C/g%3E%3C/svg%3E" preserveAspectRatio="none" clip-path="url(#satori_cp-id-0-1-0-0-0)" mask="url(#satori_om-id-0-1-0-0-0)"/><mask id="satori_om-id-0-1-0-0-0-0"><rect x="48" y="538" width="0" height="64" fill="#fff" mask="url(#satori_om-id-0)"/></mask><mask id="satori_om-id-0-1-0-0-0-0-0"><rect x="48" y="538" width="0" height="64" fill="#fff" mask="url(#satori_om-id-0)"/></mask><mask id="satori_om-id-0-1-0-0-0-0-1"><rect x="48" y="538" width="0" height="64" fill="#fff" mask="url(#satori_om-id-0)"/></mask><mask id="satori_om-id-0-1-0-0-0-0-1-0"><rect x="48" y="538" width="0" height="64" fill="#fff" mask="url(#satori_om-id-0)"/></mask><mask id="satori_om-id-0-1-0-1"><rect x="138" y="540" width="138" height="60" fill="#fff" mask="url(#satori_om-id-0)"/></mask><mask id="satori_om-id-0-1-0-1-0"><rect x="138" y="540" width="138" height="36" fill="#fff" mask="url(#satori_om-id-0)"/></mask><path fill="#0f172a" d="M150.7 571.2L150.7 571.2Q145.9 571.2 143.0 568.6Q140.1 566.1 140.1 561.8L140.1 561.8L140.1 547.9Q140.1 546.5 140.8 545.8Q141.5 545.1 142.8 545.1Q144.0 545.1 144.7 545.8Q145.4 546.5 145.4 547.9L145.4 547.9L145.4 561.3Q145.4 563.8 146.8 565.2Q148.2 566.7 150.7 566.7L150.7 566.7Q153.3 566.7 154.7 565.2Q156.1 563.8 156.1 561.3L156.1 561.3L156.1 547.9Q156.1 546.5 156.8 545.8Q157.5 545.1 158.7 545.1Q160.0 545.1 160.7 545.8Q161.4 546.5 161.4 547.9L161.4 547.9L161.4 561.8Q161.4 566.1 158.5 568.6Q155.6 571.2 150.7 571.2ZM170.2 570.4Q169.5 571.2 168.2 571.2Q167.0 571.2 166.3 570.4Q165.6 569.7 165.6 568.4L165.6 568.4L165.6 548.2Q165.6 546.9 166.3 546.2Q167.0 545.4 168.2 545.4L168.2 545.4L176.0 545.4Q180.3 545.4 182.7 547.6Q185.1 549.7 185.1 553.5L185.1 553.5Q185.1 555.9 184.0 557.8Q182.9 559.7 180.8 560.6L180.8 560.6L184.4 566.9Q185.0 567.9 185.0 568.7L185.0 568.7Q185.0 569.8 184.2 570.5Q183.5 571.2 182.3 571.2L182.3 571.2Q181.4 571.2 180.8 570.8Q180.3 570.3 179.6 569.2L179.6 569.2L175.4 561.5L170.9 561.5L170.9 568.4Q170.9 569.7 170.2 570.4ZM170.9 549.6L170.9 557.7L175.5 557.7Q177.5 557.7 178.6 556.6Q179.7 555.5 179.7 553.6L179.7 553.6Q179.7 551.8 178.5 550.7Q177.4 549.6 175.4 549.6L175.4 549.6L170.9 549.6ZM198.1 562.7L190.8 562.7Q189.7 562.7 189.1 562.1Q188.4 561.5 188.4 560.5Q188.4 559.4 189.1 558.8Q189.7 558.2 190.8 558.2L190.8 558.2L198.1 558.2Q199.2 558.2 199.9 558.8Q200.6 559.4 200.6 560.5Q200.6 561.5 199.9 562.1Q199.2 562.7 198.1 562.7L198.1 562.7ZM209.1 570.4Q208.4 571.2 207.2 571.2Q205.9 571.2 205.2 570.4Q204.5 569.7 204.5 568.4L204.5 568.4L204.5 548.2Q204.5 546.9 205.2 546.2Q205.9 545.4 207.2 545.4L207.2 545.4L214.9 545.4Q219.3 545.4 221.7 547.6Q224.1 549.7 224.1 553.5L224.1 553.5Q224.1 555.9 223.0 557.8Q221.8 559.7 219.7 560.6L219.7 560.6L223.4 566.9Q224.0 567.9 224.0 568.7L224.0 568.7Q224.0 569.8 223.2 570.5Q222.4 571.2 221.3 571.2L221.3 571.2Q220.3 571.2 219.8 570.8Q219.2 570.3 218.6 569.2L218.6 569.2L214.4 561.5L209.8 561.5L209.8 568.4Q209.8 569.7 209.1 570.4ZM209.8 549.6L209.8 557.7L214.4 557.7Q216.4 557.7 217.5 556.6Q218.6 555.5 218.6 553.6L218.6 553.6Q218.6 551.8 217.5 550.7Q216.3 549.6 214.4 549.6L214.4 549.6L209.8 549.6ZM229.3 571.1L229.3 571.1Q228.0 571.1 227.3 570.5Q226.6 569.8 226.6 568.6L226.6 568.6Q226.6 567.9 226.9 566.9L226.9 566.9L233.9 548.1Q234.4 546.5 235.4 545.8Q236.3 545.1 237.8 545.1L237.8 545.1Q239.4 545.1 240.4 545.8Q241.3 546.5 241.9 548.1L241.9 548.1L248.9 566.9Q249.2 567.9 249.2 568.6L249.2 568.6Q249.2 569.7 248.5 570.4Q247.7 571.1 246.5 571.1L246.5 571.1Q245.4 571.1 244.8 570.6Q244.1 570.0 243.8 568.8L243.8 568.8L242.4 564.8L233.3 564.8L232.0 568.7Q231.6 570.0 231.0 570.6Q230.3 571.1 229.3 571.1ZM237.7 550.3L234.5 560.7L241.2 560.7L237.9 550.3L237.7 550.3ZM262.1 570.8L255.1 570.8Q253.8 570.8 253.1 570.1Q252.4 569.3 252.4 568.0L252.4 568.0L252.4 548.2Q252.4 546.9 253.1 546.2Q253.8 545.4 255.1 545.4L255.1 545.4L262.1 545.4Q267.8 545.4 271.0 548.7Q274.2 552.0 274.2 558.0L274.2 558.0Q274.2 564.0 271.0 567.4Q267.8 570.8 262.1 570.8L262.1 570.8ZM257.7 549.8L257.7 566.4L261.5 566.4Q265.0 566.4 266.9 564.3Q268.8 562.1 268.8 558.0L268.8 558.0Q268.8 554.1 266.9 551.9Q265.0 549.8 261.5 549.8L261.5 549.8L257.7 549.8Z " clip-path="url(#satori_cp-id-0)" mask="url(#satori_om-id-0)"/><mask id="satori_om-id-0-1-0-1-1"><rect x="138" y="576" width="138" height="24" fill="#fff" mask="url(#satori_om-id-0)"/></mask><path fill="#334155" d="M145.0 595.3L145.0 595.3Q142.4 595.3 140.8 593.8Q139.2 592.4 139.2 590.1L139.2 590.1L139.2 582.1Q139.2 581.5 139.6 581.1Q139.9 580.8 140.5 580.8L140.5 580.8Q141.1 580.8 141.4 581.1Q141.8 581.5 141.8 582.1L141.8 582.1L141.8 589.8Q141.8 591.3 142.6 592.2Q143.5 593.1 145.0 593.1Q146.6 593.1 147.4 592.2Q148.3 591.3 148.3 589.8L148.3 589.8L148.3 582.1Q148.3 581.5 148.6 581.1Q149.0 580.8 149.6 580.8L149.6 580.8Q150.2 580.8 150.5 581.1Q150.8 581.5 150.8 582.1L150.8 582.1L150.8 590.1Q150.8 592.4 149.3 593.8Q147.7 595.3 145.0 595.3ZM155.5 594.9Q155.2 595.2 154.6 595.2Q154.0 595.2 153.6 594.9Q153.3 594.5 153.3 593.9L153.3 593.9L153.3 582.3Q153.3 581.6 153.6 581.3Q154.0 581.0 154.6 581.0L154.6 581.0L158.9 581.0Q161.2 581.0 162.5 582.1Q163.8 583.3 163.8 585.3L163.8 585.3Q163.8 586.7 163.1 587.8Q162.4 588.8 161.2 589.3L161.2 589.3L163.4 593.2Q163.7 593.7 163.7 594.1L163.7 594.1Q163.7 594.6 163.4 594.9Q163.0 595.2 162.4 595.2L162.4 595.2Q162.0 595.2 161.7 595.0Q161.5 594.8 161.2 594.3L161.2 594.3L158.7 589.7L155.8 589.7L155.8 593.9Q155.8 594.5 155.5 594.9ZM155.8 583.0L155.8 587.8L158.7 587.8Q159.9 587.8 160.5 587.2Q161.2 586.5 161.2 585.4L161.2 585.4Q161.2 584.3 160.5 583.6Q159.8 583.0 158.6 583.0L158.6 583.0L155.8 583.0ZM171.1 590.4L166.7 590.4Q166.2 590.4 165.9 590.1Q165.6 589.8 165.6 589.3Q165.6 588.8 165.9 588.5Q166.2 588.2 166.7 588.2L166.7 588.2L171.1 588.2Q171.7 588.2 172.0 588.5Q172.3 588.8 172.3 589.3Q172.3 589.8 172.0 590.1Q171.7 590.4 171.1 590.4L171.1 590.4ZM176.7 594.9Q176.4 595.2 175.8 595.2Q175.2 595.2 174.9 594.9Q174.6 594.5 174.6 593.9L174.6 593.9L174.6 582.3Q174.6 581.6 174.9 581.3Q175.2 581.0 175.8 581.0L175.8 581.0L180.1 581.0Q182.4 581.0 183.7 582.1Q185.0 583.3 185.0 585.3L185.0 585.3Q185.0 586.7 184.3 587.8Q183.7 588.8 182.5 589.3L182.5 589.3L184.7 593.2Q185.0 593.7 185.0 594.1L185.0 594.1Q185.0 594.6 184.6 594.9Q184.2 595.2 183.7 595.2L183.7 595.2Q183.2 595.2 183.0 595.0Q182.7 594.8 182.4 594.3L182.4 594.3L179.9 589.7L177.1 589.7L177.1 593.9Q177.1 594.5 176.7 594.9ZM177.1 583.0L177.1 587.8L179.9 587.8Q181.1 587.8 181.8 587.2Q182.4 586.5 182.4 585.4L182.4 585.4Q182.4 584.3 181.8 583.6Q181.1 583.0 179.9 583.0L179.9 583.0L177.1 583.0ZM187.7 595.2L187.7 595.2Q187.1 595.2 186.7 594.9Q186.4 594.6 186.4 594.0L186.4 594.0Q186.4 593.7 186.6 593.3L186.6 593.3L190.7 582.2Q190.9 581.4 191.4 581.1Q191.8 580.8 192.5 580.8L192.5 580.8Q193.2 580.8 193.6 581.1Q194.1 581.4 194.3 582.1L194.3 582.1L198.4 593.3Q198.6 593.7 198.6 594.0L198.6 594.0Q198.6 594.6 198.2 594.9Q197.9 595.2 197.3 595.2L197.3 595.2Q196.8 595.2 196.5 595.0Q196.2 594.7 196.0 594.1L196.0 594.1L195.1 591.4L189.9 591.4L188.9 594.1Q188.8 594.7 188.5 595.0Q188.2 595.2 187.7 595.2ZM192.4 583.4L190.5 589.5L194.5 589.5L192.5 583.4L192.4 583.4ZM205.6 595.0L201.7 595.0Q201.1 595.0 200.8 594.7Q200.4 594.3 200.4 593.7L200.4 593.7L200.4 582.3Q200.4 581.6 200.8 581.3Q201.1 581.0 201.7 581.0L201.7 581.0L205.6 581.0Q208.7 581.0 210.5 582.8Q212.3 584.6 212.3 588.0L212.3 588.0Q212.3 591.3 210.5 593.2Q208.7 595.0 205.6 595.0L205.6 595.0ZM202.9 583.1L202.9 592.9L205.3 592.9Q207.4 592.9 208.6 591.6Q209.7 590.4 209.7 588.0L209.7 588.0Q209.7 585.6 208.6 584.3Q207.4 583.1 205.3 583.1L205.3 583.1L202.9 583.1Z M227.0 595.0L219.2 595.0Q218.7 595.0 218.3 594.8Q218.0 594.5 218.0 594.0L218.0 594.0Q218.0 593.6 218.2 593.3Q218.3 593.1 218.7 592.7L218.7 592.7L223.0 588.4Q224.4 587.1 224.8 586.4Q225.3 585.7 225.3 584.9L225.3 584.9Q225.3 583.9 224.6 583.3Q224.0 582.7 223.0 582.7L223.0 582.7Q221.1 582.7 220.3 584.6L220.3 584.6Q220.1 585.0 219.9 585.2Q219.6 585.4 219.2 585.4L219.2 585.4Q218.7 585.4 218.4 585.1Q218.1 584.8 218.1 584.3L218.1 584.3Q218.1 584.1 218.2 583.8L218.2 583.8Q218.3 583.2 218.7 582.7Q219.1 582.1 219.7 581.7Q220.3 581.2 221.1 580.9Q222.0 580.7 223.0 580.7L223.0 580.7Q225.1 580.7 226.4 581.8Q227.8 582.9 227.8 584.7L227.8 584.7Q227.8 585.9 227.1 586.9Q226.4 588.0 224.6 589.8L224.6 589.8L221.4 592.9L221.4 593.0L227.0 593.0Q227.5 593.0 227.8 593.3Q228.1 593.5 228.1 594.0Q228.1 594.5 227.8 594.8Q227.5 595.0 227.0 595.0L227.0 595.0ZM235.2 595.3L235.2 595.3Q232.6 595.3 231.1 593.4Q229.7 591.4 229.7 588.0L229.7 588.0Q229.7 584.6 231.1 582.6Q232.6 580.7 235.2 580.7L235.2 580.7Q237.8 580.7 239.3 582.6Q240.7 584.6 240.7 588.0L240.7 588.0Q240.7 591.4 239.3 593.3Q237.8 595.3 235.2 595.3ZM235.2 593.3L235.2 593.3Q236.6 593.3 237.4 591.9Q238.2 590.5 238.2 588.0L238.2 588.0Q238.2 585.5 237.4 584.1Q236.6 582.7 235.2 582.7Q233.8 582.7 233.0 584.1Q232.2 585.5 232.2 588.0L232.2 588.0Q232.2 590.5 233.0 591.9Q233.8 593.3 235.2 593.3ZM251.6 595.0L243.8 595.0Q243.2 595.0 242.9 594.8Q242.6 594.5 242.6 594.0L242.6 594.0Q242.6 593.6 242.7 593.3Q242.9 593.1 243.3 592.7L243.3 592.7L247.6 588.4Q248.9 587.1 249.4 586.4Q249.8 585.7 249.8 584.9L249.8 584.9Q249.8 583.9 249.2 583.3Q248.5 582.7 247.5 582.7L247.5 582.7Q245.6 582.7 244.9 584.6L244.9 584.6Q244.7 585.0 244.4 585.2Q244.2 585.4 243.7 585.4L243.7 585.4Q243.2 585.4 242.9 585.1Q242.6 584.8 242.6 584.3L242.6 584.3Q242.6 584.1 242.7 583.8L242.7 583.8Q242.9 583.2 243.2 582.7Q243.6 582.1 244.2 581.7Q244.8 581.2 245.7 580.9Q246.5 580.7 247.5 580.7L247.5 580.7Q249.6 580.7 251.0 581.8Q252.3 582.9 252.3 584.7L252.3 584.7Q252.3 585.9 251.6 586.9Q251.0 588.0 249.2 589.8L249.2 589.8L245.9 592.9L245.9 593.0L251.6 593.0Q252.1 593.0 252.4 593.3Q252.6 593.5 252.6 594.0Q252.6 594.5 252.4 594.8Q252.1 595.0 251.6 595.0L251.6 595.0ZM259.6 595.3L259.6 595.3Q258.0 595.3 256.7 594.6Q255.4 593.9 254.9 592.8L254.9 592.8Q254.6 592.3 254.6 591.8L254.6 591.8Q254.6 591.3 254.9 591.0Q255.2 590.7 255.7 590.7L255.7 590.7Q256.1 590.7 256.4 590.9Q256.6 591.1 256.8 591.5L256.8 591.5Q257.2 592.3 257.9 592.8Q258.6 593.3 259.6 593.3L259.6 593.3Q260.9 593.3 261.7 592.5Q262.5 591.7 262.5 590.4L262.5 590.4Q262.5 589.2 261.7 588.4Q260.9 587.7 259.6 587.7L259.6 587.7Q258.3 587.7 257.4 588.5L257.4 588.5Q257.0 589.0 256.7 589.1Q256.4 589.3 256.0 589.3L256.0 589.3Q255.4 589.3 255.1 588.9Q254.8 588.5 254.8 588.0L254.8 588.0Q254.8 587.9 254.8 587.8L254.8 587.8L255.3 582.5Q255.4 581.7 255.8 581.3Q256.2 581.0 257.0 581.0L257.0 581.0L263.1 581.0Q263.6 581.0 263.9 581.2Q264.2 581.5 264.2 582.0L264.2 582.0Q264.2 582.4 263.9 582.7Q263.6 583.0 263.1 583.0L263.1 583.0L257.4 583.0L257.1 587.2L257.1 587.2Q257.6 586.5 258.4 586.1Q259.2 585.8 260.3 585.8L260.3 585.8Q262.3 585.8 263.6 587.0Q264.9 588.3 264.9 590.4L264.9 590.4Q264.9 592.6 263.4 593.9Q261.9 595.3 259.6 595.3Z " clip-path="url(#satori_cp-id-0)" mask="url(#satori_om-id-0)"/><mask id="satori_om-id-0-1-1"><rect x="977" y="557" width="175" height="26" fill="#fff" mask="url(#satori_om-id-0)"/></mask><path fill="#334155" d="M980.4 577.8Q980.1 578.2 979.5 578.2Q978.9 578.2 978.5 577.8Q978.2 577.5 978.2 576.8L978.2 576.8L978.2 563.6Q978.2 563.0 978.5 562.6Q978.9 562.2 979.5 562.2Q980.1 562.2 980.5 562.6Q980.8 563.0 980.8 563.6L980.8 563.6L980.8 568.5L980.9 568.5Q981.4 567.5 982.3 566.9Q983.3 566.4 984.5 566.4L984.5 566.4Q986.6 566.4 987.9 568.0Q989.2 569.5 989.2 572.3L989.2 572.3Q989.2 575.0 987.9 576.6Q986.6 578.1 984.5 578.1L984.5 578.1Q983.2 578.1 982.3 577.6Q981.4 577.0 980.8 576.0L980.8 576.0L980.8 576.0L980.8 576.8Q980.8 577.5 980.4 577.8ZM983.6 575.9L983.6 575.9Q984.9 575.9 985.7 574.9Q986.4 574.0 986.4 572.3Q986.4 570.6 985.7 569.6Q984.9 568.6 983.6 568.6L983.6 568.6Q982.4 568.6 981.6 569.6Q980.8 570.6 980.8 572.3L980.8 572.3Q980.8 573.9 981.6 574.9Q982.4 575.9 983.6 575.9ZM992.5 582.2L992.5 582.2Q991.6 582.2 991.1 581.9Q990.7 581.5 990.7 580.9L990.7 580.9Q990.7 580.5 990.9 580.3Q991.2 580.0 991.7 580.0L991.7 580.0Q991.8 580.0 992.0 580.0Q992.1 580.0 992.3 580.0L992.3 580.0Q993.3 580.0 993.9 578.7L993.9 578.7L994.1 578.2L990.3 568.3Q990.2 567.9 990.2 567.6L990.2 567.6Q990.2 567.0 990.6 566.7Q991.0 566.3 991.6 566.3L991.6 566.3Q992.1 566.3 992.4 566.6Q992.7 566.8 992.8 567.4L992.8 567.4L995.6 575.7L995.6 575.7L998.3 567.4Q998.5 566.8 998.8 566.6Q999.1 566.3 999.6 566.3L999.6 566.3Q1000.2 566.3 1000.5 566.7Q1000.9 567.0 1000.9 567.5L1000.9 567.5Q1000.9 567.9 1000.8 568.3L1000.8 568.3L997.0 578.4Q996.2 580.5 995.2 581.3Q994.2 582.2 992.5 582.2Z M1013.8 578.2L1013.8 578.2Q1010.4 578.2 1008.5 576.1Q1006.5 573.9 1006.5 570.2L1006.5 570.2Q1006.5 566.5 1008.5 564.3Q1010.4 562.2 1013.7 562.2L1013.7 562.2Q1015.9 562.2 1017.5 563.1Q1019.1 564.1 1019.9 565.8L1019.9 565.8Q1020.1 566.3 1020.1 566.8L1020.1 566.8Q1020.1 567.4 1019.8 567.7Q1019.5 568.1 1018.9 568.1L1018.9 568.1Q1018.0 568.1 1017.5 567.1L1017.5 567.1Q1017.0 565.8 1016.0 565.2Q1015.0 564.5 1013.7 564.5L1013.7 564.5Q1011.7 564.5 1010.5 566.1Q1009.4 567.6 1009.4 570.2L1009.4 570.2Q1009.4 572.8 1010.5 574.3Q1011.7 575.9 1013.7 575.9L1013.7 575.9Q1016.5 575.9 1017.6 573.4L1017.6 573.4Q1017.8 573.0 1018.1 572.8Q1018.4 572.6 1018.8 572.6L1018.8 572.6Q1019.4 572.6 1019.7 572.9Q1020.1 573.2 1020.1 573.8L1020.1 573.8Q1020.1 574.3 1019.9 574.8L1019.9 574.8Q1019.1 576.4 1017.5 577.3Q1015.9 578.2 1013.8 578.2ZM1031.3 576.6Q1029.8 578.2 1027.3 578.2Q1024.7 578.2 1023.3 576.6Q1021.8 575.0 1021.8 572.3L1021.8 572.3Q1021.8 569.5 1023.3 567.9Q1024.8 566.3 1027.3 566.3L1027.3 566.3Q1029.8 566.3 1031.3 567.9Q1032.8 569.5 1032.8 572.3L1032.8 572.3Q1032.8 575.0 1031.3 576.6ZM1025.2 575.1Q1026.0 576.1 1027.3 576.1Q1028.6 576.1 1029.3 575.1Q1030.1 574.1 1030.1 572.3L1030.1 572.3Q1030.1 570.5 1029.3 569.5Q1028.6 568.5 1027.3 568.5L1027.3 568.5Q1026.0 568.5 1025.2 569.5Q1024.5 570.5 1024.5 572.3L1024.5 572.3Q1024.5 574.1 1025.2 575.1ZM1036.9 577.8Q1036.5 578.2 1035.9 578.2Q1035.3 578.2 1034.9 577.8Q1034.6 577.4 1034.6 576.8L1034.6 576.8L1034.6 563.6Q1034.6 563.0 1034.9 562.6Q1035.3 562.2 1035.9 562.2L1035.9 562.2Q1036.5 562.2 1036.9 562.6Q1037.2 563.0 1037.2 563.6L1037.2 563.6L1037.2 568.5L1037.3 568.5Q1037.7 567.5 1038.7 566.9Q1039.6 566.3 1040.9 566.3L1040.9 566.3Q1042.7 566.3 1043.8 567.5Q1044.9 568.6 1044.9 570.6L1044.9 570.6L1044.9 576.8Q1044.9 577.4 1044.5 577.8Q1044.1 578.2 1043.5 578.2Q1042.9 578.2 1042.5 577.8Q1042.2 577.4 1042.2 576.8L1042.2 576.8L1042.2 571.2Q1042.2 569.9 1041.6 569.3Q1041.0 568.6 1039.8 568.6L1039.8 568.6Q1038.6 568.6 1037.9 569.4Q1037.3 570.1 1037.3 571.4L1037.3 571.4L1037.3 576.8Q1037.3 577.4 1036.9 577.8ZM1052.1 578.2L1052.1 578.2Q1049.4 578.2 1048.0 576.6Q1046.5 575.1 1046.5 572.3L1046.5 572.3Q1046.5 569.6 1048.0 567.9Q1049.4 566.3 1051.9 566.3L1051.9 566.3Q1054.2 566.3 1055.7 567.8Q1057.1 569.3 1057.1 571.6L1057.1 571.6Q1057.1 572.2 1056.8 572.6Q1056.5 572.9 1055.9 572.9L1055.9 572.9L1049.2 572.9L1049.2 573.0Q1049.2 574.4 1050.0 575.3Q1050.7 576.1 1052.0 576.1L1052.0 576.1Q1052.9 576.1 1053.6 575.8Q1054.2 575.4 1054.9 574.6L1054.9 574.6Q1055.3 574.2 1055.8 574.2L1055.8 574.2Q1056.2 574.2 1056.6 574.4Q1056.9 574.7 1056.9 575.2L1056.9 575.2Q1056.9 575.5 1056.7 575.9L1056.7 575.9Q1056.1 577.0 1054.9 577.6Q1053.7 578.2 1052.1 578.2ZM1049.2 571.1L1049.2 571.1L1054.5 571.1Q1054.5 569.9 1053.8 569.1Q1053.0 568.4 1051.9 568.4Q1050.8 568.4 1050.0 569.2Q1049.3 569.9 1049.2 571.1ZM1061.2 577.8Q1060.8 578.2 1060.2 578.2Q1059.6 578.2 1059.2 577.8Q1058.9 577.4 1058.9 576.8L1058.9 576.8L1058.9 567.7Q1058.9 567.1 1059.2 566.7Q1059.6 566.3 1060.1 566.3Q1060.7 566.3 1061.1 566.7Q1061.5 567.1 1061.5 567.7L1061.5 567.7L1061.5 568.5L1061.5 568.5Q1062.5 566.3 1065.1 566.3L1065.1 566.3Q1066.9 566.3 1068.0 567.5Q1069.0 568.6 1069.0 570.6L1069.0 570.6L1069.0 576.8Q1069.0 577.4 1068.6 577.8Q1068.3 578.2 1067.7 578.2Q1067.1 578.2 1066.7 577.8Q1066.3 577.4 1066.3 576.8L1066.3 576.8L1066.3 571.1Q1066.3 569.9 1065.8 569.3Q1065.2 568.6 1064.1 568.6L1064.1 568.6Q1062.9 568.6 1062.2 569.4Q1061.5 570.1 1061.5 571.4L1061.5 571.4L1061.5 576.8Q1061.5 577.4 1061.2 577.8ZM1073.0 575.2L1073.0 575.2Q1073.6 575.2 1073.9 575.5Q1074.2 575.8 1074.2 576.3L1074.2 576.3Q1074.2 576.6 1074.1 576.9L1074.1 576.9L1073.2 580.6Q1073.1 581.1 1072.9 581.3Q1072.6 581.5 1072.1 581.5Q1071.6 581.5 1071.4 581.2Q1071.1 581.0 1071.1 580.5L1071.1 580.5Q1071.1 580.4 1071.1 580.3L1071.1 580.3L1071.8 576.3Q1071.9 575.2 1073.0 575.2Z M1088.9 577.8Q1088.4 578.1 1087.6 578.1Q1086.9 578.1 1086.4 577.8Q1085.9 577.4 1085.6 576.6L1085.6 576.6L1081.0 564.3Q1080.8 563.9 1080.8 563.5L1080.8 563.5Q1080.8 563.0 1081.2 562.6Q1081.6 562.3 1082.3 562.3L1082.3 562.3Q1083.3 562.3 1083.7 563.3L1083.7 563.3L1087.6 575.0L1087.7 575.0L1091.7 563.3Q1091.9 562.7 1092.2 562.5Q1092.5 562.3 1093.0 562.3L1093.0 562.3Q1093.7 562.3 1094.1 562.6Q1094.5 563.0 1094.5 563.5L1094.5 563.5Q1094.5 563.9 1094.3 564.3L1094.3 564.3L1089.6 576.6Q1089.4 577.4 1088.9 577.8ZM1097.9 578.1L1097.9 578.1Q1097.2 578.1 1096.8 577.6Q1096.3 577.2 1096.3 576.5L1096.3 576.5Q1096.3 575.9 1096.8 575.4Q1097.2 575.0 1097.9 575.0L1097.9 575.0Q1098.5 575.0 1099.0 575.4Q1099.4 575.9 1099.4 576.5L1099.4 576.5Q1099.4 577.2 1099.0 577.6Q1098.5 578.1 1097.9 578.1Z M1111.4 578.2L1111.4 578.2Q1108.8 578.2 1107.3 576.6Q1105.9 575.1 1105.9 572.3L1105.9 572.3Q1105.9 569.6 1107.3 567.9Q1108.8 566.3 1111.2 566.3L1111.2 566.3Q1113.6 566.3 1115.0 567.8Q1116.5 569.3 1116.5 571.6L1116.5 571.6Q1116.5 572.2 1116.2 572.6Q1115.8 572.9 1115.2 572.9L1115.2 572.9L1108.5 572.9L1108.5 573.0Q1108.5 574.4 1109.3 575.3Q1110.1 576.1 1111.4 576.1L1111.4 576.1Q1112.3 576.1 1112.9 575.8Q1113.6 575.4 1114.2 574.6L1114.2 574.6Q1114.6 574.2 1115.1 574.2L1115.1 574.2Q1115.6 574.2 1115.9 574.4Q1116.2 574.7 1116.2 575.2L1116.2 575.2Q1116.2 575.5 1116.0 575.9L1116.0 575.9Q1115.4 577.0 1114.2 577.6Q1113.0 578.2 1111.4 578.2ZM1108.5 571.1L1108.5 571.1L1113.9 571.1Q1113.8 569.9 1113.1 569.1Q1112.4 568.4 1111.3 568.4Q1110.1 568.4 1109.4 569.2Q1108.6 569.9 1108.5 571.1ZM1118.9 575.1L1118.9 575.1L1118.9 568.6L1118.2 568.6Q1117.7 568.6 1117.4 568.3Q1117.2 568.1 1117.2 567.6L1117.2 567.6Q1117.2 567.1 1117.4 566.8Q1117.7 566.6 1118.2 566.6L1118.2 566.6L1118.9 566.6L1118.9 565.0Q1118.9 564.4 1119.3 564.0Q1119.7 563.6 1120.3 563.6L1120.3 563.6Q1120.9 563.6 1121.3 564.0Q1121.6 564.4 1121.6 565.0L1121.6 565.0L1121.6 566.6L1122.9 566.6Q1123.4 566.6 1123.6 566.8Q1123.9 567.1 1123.9 567.6L1123.9 567.6Q1123.9 568.1 1123.6 568.3Q1123.4 568.6 1122.9 568.6L1122.9 568.6L1121.6 568.6L1121.6 574.6Q1121.6 575.2 1121.9 575.5Q1122.1 575.8 1122.7 575.9L1122.7 575.9L1122.9 575.9Q1124.0 576.0 1124.0 576.9L1124.0 576.9Q1124.0 577.5 1123.5 577.8Q1123.0 578.1 1122.1 578.1L1122.1 578.1L1121.9 578.1Q1118.9 578.1 1118.9 575.1Z M1133.3 578.1L1133.3 578.1Q1131.7 578.1 1130.6 577.2Q1129.5 576.2 1129.5 574.7L1129.5 574.7Q1129.5 573.2 1130.7 572.3Q1131.8 571.4 1133.9 571.3L1133.9 571.3L1136.9 571.1L1136.9 570.3Q1136.9 569.4 1136.3 568.9Q1135.7 568.4 1134.7 568.4L1134.7 568.4Q1134.0 568.4 1133.4 568.7Q1132.9 569.0 1132.4 569.8L1132.4 569.8Q1132.0 570.3 1131.3 570.3L1131.3 570.3Q1130.8 570.3 1130.5 570.0Q1130.2 569.7 1130.2 569.2L1130.2 569.2Q1130.2 568.9 1130.3 568.5L1130.3 568.5Q1130.8 567.5 1132.0 566.9Q1133.2 566.3 1134.9 566.3L1134.9 566.3Q1137.0 566.3 1138.2 567.4Q1139.5 568.4 1139.5 570.1L1139.5 570.1L1139.5 576.8Q1139.5 577.5 1139.2 577.8Q1138.8 578.2 1138.2 578.2L1138.2 578.2Q1137.7 578.2 1137.3 577.8Q1137.0 577.5 1136.9 576.9L1136.9 576.9L1136.9 576.1L1136.9 576.1Q1136.4 577.0 1135.4 577.6Q1134.4 578.1 1133.3 578.1ZM1134.1 576.1L1134.1 576.1Q1135.3 576.1 1136.1 575.4Q1136.9 574.7 1136.9 573.7L1136.9 573.7L1136.9 572.9L1134.2 573.0Q1133.3 573.1 1132.7 573.5Q1132.2 573.9 1132.2 574.6L1132.2 574.6Q1132.2 575.3 1132.7 575.7Q1133.3 576.1 1134.1 576.1ZM1144.1 577.8Q1143.7 578.2 1143.1 578.2Q1142.5 578.2 1142.1 577.8Q1141.7 577.4 1141.7 576.8L1141.7 576.8L1141.7 563.6Q1141.7 563.0 1142.1 562.6Q1142.5 562.2 1143.1 562.2Q1143.7 562.2 1144.1 562.6Q1144.4 563.0 1144.4 563.6L1144.4 563.6L1144.4 576.8Q1144.4 577.4 1144.1 577.8ZM1148.6 578.1L1148.6 578.1Q1147.9 578.1 1147.5 577.6Q1147.0 577.2 1147.0 576.5L1147.0 576.5Q1147.0 575.9 1147.5 575.4Q1147.9 575.0 1148.6 575.0L1148.6 575.0Q1149.2 575.0 1149.7 575.4Q1150.1 575.9 1150.1 576.5L1150.1 576.5Q1150.1 577.2 1149.7 577.6Q1149.2 578.1 1148.6 578.1Z " clip-path="url(#satori_cp-id-0)" mask="url(#satori_om-id-0)"/></svg>