<svg width="1200" height="630" viewBox="0 0 1200 630" xmlns="http://www.w3.org/2000/svg"><mask id="satori_om-id"><rect x="0" y="0" width="1200" height="630" fill="#fff"/></mask><defs><pattern id="satori_pattern_id-0_0" x="0" y="0" width="1" height="1" patternUnits="objectBoundingBox"><linearGradient id="satori_biid-0_0" x1="-0.09774620284174435" y1="0.18618324350808482" x2="1.0977462028417444" y2="0.8138167564919152" spreadMethod="pad"><stop offset="0%" stop-color="#f8fafc"/><stop offset="50%" stop-color="#eef2ff"/><stop offset="100%" stop-color="#ffffff"/></linearGradient><rect x="0" y="0" width="1200" height="630" fill="url(#satori_biid-0_0)"/></pattern></defs><clipPath id="satori_cp-id-0"><rect x="0" y="0" width="1200" height="630"/></clipPath><mask id="satori_om-id-0"><rect x="0" y="0" width="1200" height="630" fill="#fff"/></mask><rect x="0" y="0" width="1200" height="630" fill="url(#satori_pattern_id-0_0)"/><mask id="satori_om-id-0-0"><rect x="0" y="0" width="1200" height="509" fill="#fff" mask="url(#satori_om-id-0)"/></mask><mask id="satori_om-id-0-0-0"><rect x="72" y="72" width="1056" height="365" fill="#fff" mask="url(#satori_om-id-0)"/></mask><mask id="satori_om-id-0-0-0-0"><rect x="72" y="150" width="1056" height="38" fill="#fff" mask="url(#satori_om-id-0)"/></mask><path fill="#64748b" d="M77.1 180.2Q76.6 180.7 75.8 180.7Q75.0 180.7 74.5 180.2Q74.1 179.8 74.1 178.9L74.1 178.9L74.1 159.7Q74.1 158.9 74.5 158.4Q75.0 157.9 75.8 157.9L75.8 157.9L86.8 157.9Q87.5 157.9 88.0 158.3Q88.4 158.8 88.4 159.4Q88.4 160.1 88.0 160.5Q87.5 161.0 86.8 161.0L86.8 161.0L77.6 161.0L77.6 168.1L85.9 168.1Q86.6 168.1 87.1 168.5Q87.5 168.9 87.5 169.5Q87.5 170.2 87.1 170.6Q86.6 171.0 85.9 171.0L85.9 171.0L77.6 171.0L77.6 178.9Q77.6 179.8 77.1 180.2ZM92.5 180.8L92.5 180.8Q91.7 180.8 91.3 180.3Q90.8 179.8 90.8 179.0L90.8 179.0L90.8 165.4Q90.8 164.7 91.2 164.2Q91.7 163.7 92.4 163.7L92.4 163.7Q93.1 163.7 93.6 164.2Q94 164.7 94 165.4L94 165.4L94 166.8L94.1 166.8Q94.4 165.5 95.4 164.6Q96.4 163.8 97.7 163.8L97.7 163.8Q98.6 163.8 99.0 164.2L99.0 164.2Q99.5 164.5 99.5 165.4L99.5 165.4Q99.5 166.1 99.0 166.5L99.0 166.5Q98.5 167.0 97.4 167.0L97.4 167.0Q95.8 167 95.0 168.0Q94.2 169.0 94.2 170.6L94.2 170.6L94.2 179.0Q94.2 179.8 93.7 180.3Q93.2 180.8 92.5 180.8ZM104.5 161.0Q103.9 161.5 103.1 161.5Q102.3 161.5 101.7 161.0Q101.1 160.4 101.1 159.6L101.1 159.6Q101.1 158.8 101.7 158.2Q102.3 157.7 103.1 157.7L103.1 157.7Q103.9 157.7 104.5 158.2Q105.1 158.8 105.1 159.6L105.1 159.6Q105.1 160.4 104.5 161.0ZM104.3 180.3Q103.9 180.8 103.1 180.8Q102.3 180.8 101.9 180.3Q101.4 179.8 101.4 179.0L101.4 179.0L101.4 165.5Q101.4 164.7 101.9 164.2Q102.3 163.7 103.1 163.7Q103.9 163.7 104.3 164.2Q104.8 164.7 104.8 165.5L104.8 165.5L104.8 179.0Q104.8 179.8 104.3 180.3ZM114.4 180.8L114.4 180.8Q111.3 180.8 109.4 178.4Q107.5 176.1 107.5 172.3Q107.5 168.4 109.4 166.1Q111.3 163.8 114.4 163.8L114.4 163.8Q116.1 163.8 117.5 164.6Q118.8 165.4 119.5 166.8L119.5 166.8L119.6 166.8L119.6 159.4Q119.6 158.6 120.1 158.1Q120.5 157.6 121.3 157.6L121.3 157.6Q122.0 157.6 122.5 158.1Q123.0 158.6 123.0 159.4L123.0 159.4L123.0 179.1Q123.0 179.9 122.5 180.3Q122.1 180.8 121.3 180.8L121.3 180.8Q120.6 180.8 120.1 180.3Q119.6 179.9 119.6 179.1L119.6 179.1L119.6 177.5L119.5 177.5Q118.9 179.0 117.6 179.9Q116.3 180.8 114.4 180.8ZM115.3 177.9L115.3 177.9Q117.3 177.9 118.4 176.4Q119.6 174.8 119.6 172.3L119.6 172.3Q119.6 169.7 118.4 168.2Q117.3 166.6 115.3 166.6L115.3 166.6Q113.3 166.6 112.1 168.1Q111.0 169.7 111.0 172.3L111.0 172.3Q111.0 174.9 112.1 176.4Q113.3 177.9 115.3 177.9ZM131.3 180.8L131.3 180.8Q128.8 180.8 127.3 179.4Q125.8 178 125.8 175.8L125.8 175.8Q125.8 173.6 127.4 172.4Q129.0 171.1 131.9 170.9L131.9 170.9L136.4 170.7L136.4 169.4Q136.4 168.0 135.5 167.3Q134.6 166.5 133.1 166.5L133.1 166.5Q131.9 166.5 131.0 167.0Q130.2 167.5 129.5 168.6L129.5 168.6Q129.0 169.3 128.1 169.3L128.1 169.3Q127.4 169.3 127.0 168.9Q126.6 168.5 126.6 167.9L126.6 167.9Q126.6 167.3 126.9 166.8L126.9 166.8Q127.6 165.4 129.3 164.6Q131 163.7 133.2 163.7L133.2 163.7Q136.2 163.7 138.0 165.2Q139.8 166.7 139.8 169.1L139.8 169.1L139.8 179.1Q139.8 179.8 139.3 180.3Q138.8 180.8 138.1 180.8L138.1 180.8Q137.4 180.8 137.0 180.3Q136.5 179.9 136.5 179.2L136.5 179.2L136.5 177.8L136.4 177.8Q135.7 179.1 134.3 179.9Q132.9 180.8 131.3 180.8ZM132.2 178.1L132.2 178.1Q134.0 178.1 135.2 177.0Q136.4 175.9 136.4 174.3L136.4 174.3L136.4 173.0L132.3 173.3Q130.8 173.4 130.0 174.0Q129.2 174.6 129.2 175.7L129.2 175.7Q129.2 176.8 130 177.4Q130.8 178.1 132.2 178.1ZM145.0 186.6L145.0 186.6Q143.9 186.6 143.3 186.2Q142.6 185.8 142.6 185.0L142.6 185.0Q142.6 184.4 143.0 184.1Q143.3 183.8 143.9 183.8L143.9 183.8Q144.1 183.8 144.4 183.8Q144.6 183.8 144.8 183.8L144.8 183.8Q146.5 183.8 147.3 181.6L147.3 181.6L147.6 180.6L142.1 166.3Q141.9 165.7 141.9 165.3L141.9 165.3Q141.9 164.6 142.4 164.2Q142.9 163.7 143.7 163.7L143.7 163.7Q144.3 163.7 144.7 164.0Q145.1 164.3 145.3 165.0L145.3 165.0L149.5 177.4L149.5 177.4L153.7 165.0Q153.9 164.3 154.3 164.0Q154.7 163.7 155.3 163.7L155.3 163.7Q156.0 163.7 156.5 164.2Q157.0 164.6 157.0 165.3L157.0 165.3Q157.0 165.7 156.8 166.2L156.8 166.2L151.1 181.3Q150 184.3 148.7 185.4Q147.3 186.6 145.0 186.6ZM161.7 176.7L161.7 176.7Q162.5 176.7 162.9 177.0Q163.3 177.4 163.3 178.1L163.3 178.1Q163.3 178.5 163.2 179.0L163.2 179.0L161.8 184.3Q161.5 185.5 160.4 185.5L160.4 185.5Q159.8 185.5 159.4 185.1Q159.1 184.8 159.1 184.3L159.1 184.3Q159.1 184.1 159.1 183.9L159.1 183.9L160.1 178.1Q160.4 176.7 161.7 176.7Z M182.3 180.9L182.3 180.9Q178.6 180.9 176.2 179.1Q173.8 177.2 173.8 174.4L173.8 174.4Q173.8 172.2 175.2 170.7Q176.5 169.1 178.8 168.6L178.8 168.6L178.8 168.5Q176.9 168.0 175.7 166.6Q174.6 165.3 174.6 163.5L174.6 163.5Q174.6 160.9 176.8 159.2Q179.0 157.5 182.3 157.5L182.3 157.5Q185.7 157.5 187.9 159.2Q190.0 160.9 190.0 163.5L190.0 163.5Q190.0 165.3 188.9 166.6Q187.8 168.0 185.9 168.5L185.9 168.5L185.9 168.6Q188.1 169.1 189.5 170.7Q190.9 172.3 190.9 174.4L190.9 174.4Q190.9 176.3 189.8 177.8Q188.7 179.2 186.7 180.1Q184.8 180.9 182.3 180.9ZM182.3 167.3L182.3 167.3Q184.2 167.3 185.4 166.4Q186.6 165.4 186.6 163.8L186.6 163.8Q186.6 162.3 185.4 161.3Q184.2 160.3 182.3 160.3L182.3 160.3Q180.5 160.3 179.3 161.3Q178.1 162.3 178.1 163.8L178.1 163.8Q178.1 165.4 179.3 166.4Q180.5 167.3 182.3 167.3ZM178.8 177.0Q180.2 178.1 182.3 178.1Q184.5 178.1 185.9 177.0Q187.2 175.8 187.2 174.1L187.2 174.1Q187.2 172.4 185.9 171.3Q184.5 170.2 182.3 170.2Q180.2 170.2 178.8 171.3Q177.4 172.4 177.4 174.1L177.4 174.1Q177.4 175.8 178.8 177.0Z M203.7 180.2Q203.3 180.7 202.5 180.7Q201.7 180.7 201.2 180.2Q200.8 179.8 200.8 178.9L200.8 178.9L200.8 159.6Q200.8 158.7 201.3 158.2Q201.8 157.7 202.7 157.7L202.7 157.7Q203.3 157.7 203.7 157.9Q204.1 158.2 204.5 158.8L204.5 158.8L215.6 174.5L215.8 174.5L215.8 159.5Q215.8 158.6 216.2 158.1Q216.7 157.7 217.5 157.7L217.5 157.7Q218.3 157.7 218.7 158.1Q219.2 158.6 219.2 159.5L219.2 159.5L219.2 178.9Q219.2 179.8 218.7 180.2Q218.2 180.7 217.3 180.7L217.3 180.7Q216.7 180.7 216.3 180.5Q215.9 180.3 215.4 179.6L215.4 179.6L204.3 163.9L204.2 163.9L204.2 178.9Q204.2 179.8 203.7 180.2ZM235.7 178.5Q233.5 180.8 230.0 180.8Q226.4 180.8 224.3 178.5Q222.2 176.2 222.2 172.3L222.2 172.3Q222.2 168.3 224.3 166.0Q226.4 163.7 230.0 163.7Q233.5 163.7 235.7 166.0Q237.8 168.3 237.8 172.3L237.8 172.3Q237.8 176.2 235.7 178.5ZM230.0 178L230.0 178Q232 178 233.2 176.5Q234.3 175.0 234.3 172.3L234.3 172.3Q234.3 169.5 233.2 168.0Q232.0 166.5 230.0 166.5Q228.0 166.5 226.8 168.0Q225.6 169.5 225.6 172.3L225.6 172.3Q225.6 175.0 226.8 176.5Q228.0 178 230.0 178ZM246.7 180.8L246.7 180.8Q245.8 180.8 245.3 180.4Q244.8 180.0 244.4 179.0L244.4 179.0L239.5 166.2Q239.3 165.7 239.3 165.3L239.3 165.3Q239.3 164.6 239.8 164.2Q240.3 163.7 241.0 163.7L241.0 163.7Q242.2 163.7 242.6 165.1L242.6 165.1L246.7 177.2L246.8 177.2L250.8 165.0Q251.3 163.7 252.4 163.7L252.4 163.7Q253.1 163.7 253.6 164.2Q254.1 164.6 254.1 165.3L254.1 165.3Q254.1 165.7 253.9 166.2L253.9 166.2L249.0 179.0Q248.7 179.9 248.1 180.4Q247.6 180.8 246.7 180.8ZM263.5 180.8L263.5 180.8Q259.8 180.8 257.7 178.5Q255.6 176.3 255.6 172.3L255.6 172.3Q255.6 168.4 257.7 166.1Q259.8 163.7 263.3 163.7L263.3 163.7Q266.5 163.7 268.6 165.9Q270.6 168 270.6 171.4L270.6 171.4Q270.6 172.2 270.2 172.6Q269.8 173.1 269.0 173.1L269.0 173.1L259.0 173.1L259.0 173.2Q259.0 175.4 260.2 176.7Q261.4 178.0 263.4 178.0L263.4 178.0Q264.8 178.0 265.8 177.5Q266.7 177.0 267.7 175.7L267.7 175.7Q268.2 175.1 268.8 175.1L268.8 175.1Q269.5 175.1 269.9 175.5Q270.3 175.9 270.3 176.5L270.3 176.5Q270.3 176.8 270.0 177.4L270.0 177.4Q269.2 179 267.5 179.9Q265.8 180.8 263.5 180.8ZM259.0 170.7L259.0 170.7L267.3 170.7Q267.2 168.8 266.1 167.6Q265 166.5 263.2 166.5L263.2 166.5Q261.5 166.5 260.3 167.6Q259.2 168.8 259.0 170.7ZM276.2 180.3Q275.7 180.8 274.9 180.8Q274.2 180.8 273.7 180.3Q273.3 179.8 273.3 179.0L273.3 179.0L273.3 165.5Q273.3 164.7 273.7 164.2Q274.1 163.7 274.9 163.7Q275.6 163.7 276.0 164.2Q276.5 164.7 276.5 165.5L276.5 165.5L276.5 166.8L276.5 166.8Q277.1 165.4 278.3 164.6Q279.6 163.8 281.2 163.8L281.2 163.8Q282.9 163.8 284.1 164.6Q285.3 165.4 285.8 167.0L285.8 167.0L285.9 167.0Q286.5 165.5 287.9 164.6Q289.3 163.8 291.0 163.8L291.0 163.8Q293.5 163.8 294.9 165.2Q296.4 166.7 296.4 169.2L296.4 169.2L296.4 179.0Q296.4 179.8 295.9 180.3Q295.5 180.8 294.7 180.8Q293.9 180.8 293.5 180.3Q293 179.8 293 179.0L293 179.0L293 170.0Q293 168.4 292.2 167.5Q291.4 166.6 289.9 166.6Q288.4 166.6 287.4 167.6Q286.5 168.6 286.5 170.2L286.5 170.2L286.5 179.0Q286.5 179.8 286.0 180.3Q285.6 180.8 284.8 180.8Q284.0 180.8 283.6 180.3Q283.2 179.8 283.2 179.0L283.2 179.0L283.2 169.7Q283.2 168.3 282.3 167.5Q281.5 166.6 280.0 166.6L280.0 166.6Q278.5 166.6 277.6 167.7Q276.6 168.7 276.6 170.3L276.6 170.3L276.6 179.0Q276.6 179.8 276.2 180.3ZM301.4 180.8L301.4 180.8Q300.6 180.8 300.2 180.3Q299.8 179.9 299.8 179.1L299.8 179.1L299.8 159.4Q299.8 158.6 300.2 158.1Q300.7 157.6 301.5 157.6Q302.2 157.6 302.7 158.1Q303.1 158.6 303.1 159.4L303.1 159.4L303.1 166.8L303.2 166.8Q304.0 165.4 305.3 164.6Q306.7 163.8 308.4 163.8L308.4 163.8Q311.5 163.8 313.4 166.1Q315.3 168.4 315.3 172.3L315.3 172.3Q315.3 176.2 313.4 178.5Q311.5 180.8 308.4 180.8L308.4 180.8Q306.6 180.8 305.3 179.9Q303.9 179.1 303.1 177.7L303.1 177.7L303.0 177.7L303.0 179.1Q303.0 179.9 302.6 180.3Q302.1 180.8 301.4 180.8ZM307.5 177.9L307.5 177.9Q309.5 177.9 310.6 176.4Q311.8 174.9 311.8 172.3L311.8 172.3Q311.8 169.7 310.6 168.1Q309.5 166.6 307.5 166.6L307.5 166.6Q305.6 166.6 304.3 168.2Q303.1 169.7 303.1 172.3L303.1 172.3Q303.1 174.8 304.3 176.3Q305.6 177.9 307.5 177.9ZM325 180.8L325 180.8Q321.3 180.8 319.2 178.5Q317.1 176.3 317.1 172.3L317.1 172.3Q317.1 168.4 319.2 166.1Q321.3 163.7 324.8 163.7L324.8 163.7Q328.0 163.7 330.1 165.9Q332.2 168 332.2 171.4L332.2 171.4Q332.2 172.2 331.7 172.6Q331.3 173.1 330.5 173.1L330.5 173.1L320.5 173.1L320.5 173.2Q320.5 175.4 321.7 176.7Q322.9 178.0 324.9 178.0L324.9 178.0Q326.3 178.0 327.3 177.5Q328.2 177.0 329.2 175.7L329.2 175.7Q329.7 175.1 330.4 175.1L330.4 175.1Q331.0 175.1 331.4 175.5Q331.8 175.9 331.8 176.5L331.8 176.5Q331.8 176.8 331.5 177.4L331.5 177.4Q330.7 179 329.0 179.9Q327.3 180.8 325 180.8ZM320.6 170.7L320.6 170.7L328.8 170.7Q328.7 168.8 327.6 167.6Q326.5 166.5 324.8 166.5L324.8 166.5Q323 166.5 321.8 167.6Q320.7 168.8 320.6 170.7ZM336.5 180.8L336.5 180.8Q335.7 180.8 335.2 180.3Q334.8 179.8 334.8 179.0L334.8 179.0L334.8 165.4Q334.8 164.7 335.2 164.2Q335.7 163.7 336.4 163.7L336.4 163.7Q337.1 163.7 337.5 164.2Q338.0 164.7 338.0 165.4L338.0 165.4L338.0 166.8L338.0 166.8Q338.4 165.5 339.4 164.6Q340.4 163.8 341.7 163.8L341.7 163.8Q342.5 163.8 343.0 164.2L343.0 164.2Q343.4 164.5 343.4 165.4L343.4 165.4Q343.4 166.1 342.9 166.5L342.9 166.5Q342.4 167.0 341.4 167.0L341.4 167.0Q339.7 167 338.9 168.0Q338.1 169.0 338.1 170.6L338.1 170.6L338.1 179.0Q338.1 179.8 337.7 180.3Q337.2 180.8 336.5 180.8Z M365.9 180.5L353.4 180.5Q352.6 180.5 352.2 180.1Q351.8 179.7 351.8 179L351.8 179Q351.8 178.5 352.0 178.1Q352.2 177.8 352.7 177.2L352.7 177.2L359.8 170.0Q362.0 167.8 362.7 166.6Q363.4 165.4 363.4 164.1L363.4 164.1Q363.4 162.5 362.3 161.4Q361.2 160.4 359.5 160.4L359.5 160.4Q356.2 160.4 355.0 163.7L355.0 163.7Q354.7 164.3 354.4 164.6Q354.0 164.9 353.4 164.9L353.4 164.9Q352.7 164.9 352.3 164.5Q351.9 164.0 351.9 163.4L351.9 163.4Q351.9 163 352.0 162.6L352.0 162.6Q352.1 161.7 352.7 160.8Q353.3 159.9 354.2 159.2Q355.2 158.4 356.5 158.0Q357.9 157.5 359.5 157.5L359.5 157.5Q362.8 157.5 364.8 159.3Q366.9 161.1 366.9 163.9L366.9 163.9Q366.9 165.8 365.8 167.5Q364.8 169.1 361.9 172.0L361.9 172.0L356.5 177.4L356.5 177.5L365.9 177.5Q366.6 177.5 367 177.9Q367.4 178.3 367.4 179L367.4 179Q367.4 179.7 367 180.1Q366.6 180.5 365.9 180.5L365.9 180.5ZM384.9 177.7Q382.7 180.9 378.6 180.9Q374.6 180.9 372.3 177.7Q370.0 174.6 370.0 169.2L370.0 169.2Q370.0 163.8 372.3 160.6Q374.6 157.5 378.6 157.5L378.6 157.5Q382.6 157.5 384.9 160.6Q387.2 163.8 387.2 169.2L387.2 169.2Q387.2 174.6 384.9 177.7ZM378.6 178.0L378.6 178.0Q381.0 178.0 382.4 175.6Q383.7 173.3 383.7 169.2L383.7 169.2Q383.7 165.1 382.4 162.8Q381.0 160.4 378.6 160.4Q376.2 160.4 374.9 162.8Q373.5 165.1 373.5 169.2L373.5 169.2Q373.5 173.3 374.8 175.6Q376.2 178.0 378.6 178.0ZM404.4 180.5L391.9 180.5Q391.1 180.5 390.7 180.1Q390.3 179.7 390.3 179L390.3 179Q390.3 178.5 390.5 178.1Q390.7 177.8 391.2 177.2L391.2 177.2L398.3 170.0Q400.5 167.8 401.2 166.6Q401.9 165.4 401.9 164.1L401.9 164.1Q401.9 162.5 400.8 161.4Q399.7 160.4 398.0 160.4L398.0 160.4Q394.7 160.4 393.5 163.7L393.5 163.7Q393.2 164.3 392.9 164.6Q392.5 164.9 391.9 164.9L391.9 164.9Q391.2 164.9 390.8 164.5Q390.4 164.0 390.4 163.4L390.4 163.4Q390.4 163 390.5 162.6L390.5 162.6Q390.6 161.7 391.2 160.8Q391.8 159.9 392.7 159.2Q393.7 158.4 395.0 158.0Q396.4 157.5 398.0 157.5L398.0 157.5Q401.3 157.5 403.3 159.3Q405.4 161.1 405.4 163.9L405.4 163.9Q405.4 165.8 404.3 167.5Q403.3 169.1 400.4 172.0L400.4 172.0L395.0 177.4L395.0 177.5L404.4 177.5Q405.1 177.5 405.5 177.9Q405.9 178.3 405.9 179L405.9 179Q405.9 179.7 405.5 180.1Q405.1 180.5 404.4 180.5L404.4 180.5ZM421.3 180.8L421.3 180.8Q420.5 180.8 420.0 180.3Q419.6 179.8 419.6 179.0L419.6 179.0L419.6 176.0L410.3 176.0Q409.4 176.0 408.8 175.4Q408.3 174.9 408.3 174L408.3 174Q408.3 172.9 409.0 171.5L409.0 171.5Q411 168.0 416.3 160.3L416.3 160.3Q417.4 158.8 418.2 158.2Q419.0 157.6 420.1 157.6L420.1 157.6Q421.4 157.6 422.2 158.3Q422.9 159 422.9 160.3L422.9 160.3L422.9 173.0L424.7 173.0Q425.4 173.0 425.8 173.5Q426.3 173.9 426.3 174.5Q426.3 175.2 425.8 175.6Q425.4 176.0 424.7 176.0L424.7 176.0L422.9 176.0L422.9 179.0Q422.9 179.8 422.5 180.3Q422 180.8 421.3 180.8ZM411.5 173.1L419.6 173.1L419.6 160.7L419.5 160.7Q413.8 169.0 411.5 173L411.5 173L411.5 173.1Z " clip-path="url(#satori_cp-id-0)" mask="url(#satori_om-id-0)"/><mask id="satori_om-id-0-0-0-1"><rect x="72" y="212" width="1056" height="147" fill="#fff" mask="url(#satori_om-id-0)"/></mask><path fill="#0f172a" d="M94.7 270.8Q93.5 272.1 91.3 272.1Q89.0 272.1 87.8 270.8Q86.5 269.6 86.5 267.2L86.5 267.2L86.5 234.3L77.2 234.3Q75.3 234.3 74.1 233.2Q72.9 232.2 72.9 230.4Q72.9 228.6 74.1 227.5Q75.3 226.5 77.2 226.5L77.2 226.5L105.3 226.5Q107.3 226.5 108.4 227.5Q109.6 228.6 109.6 230.4Q109.6 232.2 108.4 233.2Q107.2 234.3 105.3 234.3L105.3 234.3L96.0 234.3L96.0 267.2Q96.0 269.6 94.7 270.8ZM141.0 267.6Q136.5 272.3 128.8 272.3Q121.2 272.3 116.7 267.6Q112.3 263.0 112.3 254.8L112.3 254.8Q112.3 246.7 116.8 242.0Q121.3 237.3 128.8 237.3L128.8 237.3Q136.4 237.3 140.9 242.0Q145.4 246.7 145.4 254.8L145.4 254.8Q145.4 263.0 141.0 267.6ZM128.8 265.3L128.8 265.3Q132.2 265.3 134.2 262.6Q136.2 259.8 136.2 254.8L136.2 254.8Q136.2 249.9 134.2 247.1Q132.2 244.3 128.8 244.3Q125.5 244.3 123.5 247.1Q121.5 249.9 121.5 254.8L121.5 254.8Q121.5 259.8 123.5 262.6Q125.4 265.3 128.8 265.3ZM161.4 272.2L161.4 272.2Q159.0 272.2 157.7 271.1Q156.3 269.9 155.6 267.4L155.6 267.4L148.8 244.1Q148.3 242.4 148.3 241.3L148.3 241.3Q148.3 239.6 149.6 238.5Q150.8 237.4 152.8 237.4L152.8 237.4Q156.2 237.4 157.0 241.2L157.0 241.2L162 262.9L162.2 262.9L167.4 241.6Q168.3 237.4 172.5 237.4L172.5 237.4Q174.6 237.4 175.9 238.4Q177.2 239.5 177.6 241.6L177.6 241.6L182.8 262.9L183.0 262.9L188.0 241.2Q188.4 239.3 189.5 238.3Q190.6 237.4 192.3 237.4L192.3 237.4Q194.2 237.4 195.4 238.4Q196.6 239.5 196.6 241.2L196.6 241.2Q196.6 242.3 196.1 244.0L196.1 244.0L189.3 267.4Q188.6 269.9 187.2 271.1Q185.8 272.2 183.5 272.2L183.5 272.2Q181.0 272.2 179.6 271.1Q178.2 269.9 177.6 267.4L177.6 267.4L172.5 247.9L172.3 247.9L167.2 267.4Q166.6 269.9 165.2 271.1Q163.8 272.2 161.4 272.2ZM210.6 272.1L210.6 272.1Q205.8 272.1 202.6 269.2Q199.4 266.4 199.4 261.9L199.4 261.9Q199.4 257.4 202.8 254.8Q206.1 252.2 212.4 251.8L212.4 251.8L220.9 251.3L220.9 249.1Q220.9 246.8 219.4 245.5Q217.8 244.1 215.3 244.1L215.3 244.1Q213.2 244.1 211.7 244.9Q210.3 245.7 208.8 247.7L208.8 247.7Q207.3 249.4 205.1 249.4L205.1 249.4Q203.5 249.4 202.4 248.4Q201.3 247.4 201.3 245.9L201.3 245.9Q201.3 244.8 201.8 243.8L201.8 243.8Q202.9 240.8 206.7 239.1Q210.4 237.3 215.7 237.3L215.7 237.3Q222.1 237.3 226.0 240.4Q229.8 243.5 229.8 248.5L229.8 248.5L229.8 267.6Q229.8 269.8 228.6 271.0Q227.4 272.2 225.4 272.2L225.4 272.2Q223.5 272.2 222.3 271.2Q221.2 270.1 221.0 268.1L221.0 268.1L221.0 266.4L220.8 266.4Q219.5 269.1 216.6 270.6Q213.8 272.1 210.6 272.1ZM213.6 265.5L213.6 265.5Q216.6 265.5 218.8 263.7Q220.9 262.0 220.9 259.3L220.9 259.3L220.9 256.8L213.8 257.3Q211.3 257.5 209.9 258.6Q208.5 259.6 208.5 261.4L208.5 261.4Q208.5 263.3 209.9 264.4Q211.3 265.5 213.6 265.5ZM240.3 272.2L240.3 272.2Q238.2 272.2 237.0 271.0Q235.7 269.7 235.7 267.5L235.7 267.5L235.7 242.0Q235.7 239.8 236.9 238.6Q238.1 237.4 240.1 237.4L240.1 237.4Q242.1 237.4 243.3 238.6Q244.4 239.8 244.4 242.0L244.4 242.0L244.4 244.1L244.6 244.1Q245.3 241.1 247.2 239.3Q249.1 237.5 251.6 237.5L251.6 237.5Q253.4 237.5 254.4 238.4L254.4 238.4Q255.8 239.4 255.8 241.7L255.8 241.7Q255.8 243.9 254.4 245.0L254.4 245.0Q253.1 246.2 250.5 246.2L250.5 246.2Q247.5 246.2 246.2 247.8Q244.8 249.5 244.8 252.6L244.8 252.6L244.8 267.5Q244.8 269.7 243.6 271.0Q242.4 272.2 240.3 272.2ZM271.4 272.1L271.4 272.1Q265.2 272.1 261.5 267.4Q257.8 262.8 257.8 254.7L257.8 254.7Q257.8 246.8 261.5 242.1Q265.2 237.5 271.5 237.5L271.5 237.5Q275.1 237.5 277.8 239.2Q280.5 241.0 281.7 243.8L281.7 243.8L281.9 243.8L281.9 230.6Q281.9 228.3 283.2 227.0Q284.4 225.8 286.5 225.8Q288.5 225.8 289.8 227.0Q291.0 228.3 291.0 230.6L291.0 230.6L291.0 267.6Q291.0 269.8 289.8 271.0Q288.6 272.2 286.5 272.2L286.5 272.2Q284.5 272.2 283.2 271.0Q281.9 269.8 281.9 267.6L281.9 267.6L281.9 265.6L281.8 265.6Q280.6 268.6 277.9 270.3Q275.2 272.1 271.4 272.1ZM274.5 264.7L274.5 264.7Q277.9 264.7 280.0 262.1Q282.0 259.4 282.0 254.8L282.0 254.8Q282.0 250.2 280.0 247.5Q277.9 244.8 274.5 244.8L274.5 244.8Q271.1 244.8 269.1 247.5Q267.1 250.2 267.1 254.8L267.1 254.8Q267.1 259.4 269.1 262.1Q271.1 264.7 274.5 264.7ZM310.8 272.3L310.8 272.3Q305.2 272.3 301.4 270.4Q297.6 268.6 296.4 265.6L296.4 265.6Q296.0 264.6 296.0 263.9L296.0 263.9Q296.0 262.3 297.1 261.4Q298.1 260.4 299.7 260.4L299.7 260.4Q301.8 260.4 303.7 262.5L303.7 262.5Q305.1 264.2 306.8 265.1Q308.4 265.9 311 265.9L311 265.9Q313.5 265.9 315.0 264.9Q316.5 263.9 316.5 262.3L316.5 262.3Q316.5 260.9 315.5 260.1Q314.5 259.3 312.0 258.8L312.0 258.8L306.4 257.6Q301.5 256.5 299.0 254.1Q296.5 251.6 296.5 247.9L296.5 247.9Q296.5 243.1 300.4 240.2Q304.3 237.3 310.8 237.3L310.8 237.3Q315.8 237.3 319.4 239.3Q323.0 241.3 323.9 244.3L323.9 244.3Q324.1 245.1 324.1 245.6L324.1 245.6Q324.1 247.1 323.2 247.9Q322.3 248.7 320.6 248.7L320.6 248.7Q318.5 248.7 317.3 247.3L317.3 247.3Q315.9 245.6 314.4 244.7Q312.9 243.7 310.6 243.7L310.6 243.7Q308.3 243.7 306.8 244.7Q305.3 245.7 305.3 247.4L305.3 247.4Q305.3 248.7 306.4 249.6Q307.5 250.5 310 251.0L310 251.0L315.5 252.2Q320.9 253.3 323.2 255.4Q325.6 257.6 325.6 261.3L325.6 261.3Q325.6 266.3 321.5 269.3Q317.4 272.3 310.8 272.3Z M352.7 272.1L352.7 272.1Q347.8 272.1 344.6 269.2Q341.4 266.4 341.4 261.9L341.4 261.9Q341.4 257.4 344.8 254.8Q348.2 252.2 354.5 251.8L354.5 251.8L362.9 251.3L362.9 249.1Q362.9 246.8 361.4 245.5Q359.9 244.1 357.3 244.1L357.3 244.1Q355.2 244.1 353.8 244.9Q352.3 245.7 350.8 247.7L350.8 247.7Q349.3 249.4 347.2 249.4L347.2 249.4Q345.5 249.4 344.5 248.4Q343.4 247.4 343.4 245.9L343.4 245.9Q343.4 244.8 343.8 243.8L343.8 243.8Q345 240.8 348.8 239.1Q352.5 237.3 357.7 237.3L357.7 237.3Q364.2 237.3 368.0 240.4Q371.9 243.5 371.9 248.5L371.9 248.5L371.9 267.6Q371.9 269.8 370.7 271.0Q369.5 272.2 367.5 272.2L367.5 272.2Q365.6 272.2 364.4 271.2Q363.2 270.1 363.1 268.1L363.1 268.1L363.1 266.4L362.9 266.4Q361.5 269.1 358.7 270.6Q355.9 272.1 352.7 272.1ZM355.7 265.5L355.7 265.5Q358.7 265.5 360.8 263.7Q362.9 262.0 362.9 259.3L362.9 259.3L362.9 256.8L355.9 257.3Q353.3 257.5 351.9 258.6Q350.5 259.6 350.5 261.4L350.5 261.4Q350.5 263.3 351.9 264.4Q353.3 265.5 355.7 265.5Z M409.2 272.1L409.2 272.1Q406.4 272.1 404.7 270.8Q402.9 269.6 401.9 266.7L401.9 266.7L389.3 233.0Q388.9 231.6 388.9 230.3L388.9 230.3Q388.9 228.3 390.3 227.1Q391.6 225.8 393.8 225.8L393.8 225.8Q397.5 225.8 398.7 229.6L398.7 229.6L409.2 261.8L409.4 261.8L420.0 229.5Q420.6 227.6 421.7 226.7Q422.8 225.8 424.6 225.8L424.6 225.8Q426.8 225.8 428.1 227.0Q429.5 228.2 429.5 230.2L429.5 230.2Q429.5 231.4 429 232.7L429 232.7L416.4 266.7Q415.3 269.6 413.6 270.8Q411.9 272.1 409.2 272.1ZM449.3 272.3L449.3 272.3Q441.4 272.3 437.0 267.7Q432.6 263.1 432.6 255.0L432.6 255.0Q432.6 246.9 437 242.1Q441.4 237.3 448.8 237.3L448.8 237.3Q455.9 237.3 460.3 241.7Q464.7 246.1 464.7 252.9L464.7 252.9Q464.7 254.8 463.7 255.9Q462.6 256.9 460.7 256.9L460.7 256.9L441.6 256.9L441.6 257.3Q441.6 261.0 443.7 263.3Q445.8 265.5 449.2 265.5L449.2 265.5Q451.7 265.5 453.5 264.6Q455.4 263.7 457.2 261.5L457.2 261.5Q458.5 260.1 460.2 260.1L460.2 260.1Q461.7 260.1 462.7 261.1Q463.8 262.0 463.8 263.5L463.8 263.5Q463.8 264.6 463.1 265.7L463.1 265.7Q461.5 268.8 457.8 270.5Q454.1 272.3 449.3 272.3ZM441.7 251.3L441.7 251.3L455.9 251.3Q455.8 248.0 453.8 246.1Q451.9 244.1 448.9 244.1Q445.9 244.1 443.9 246.1Q441.9 248.1 441.7 251.3ZM473.9 272.2L473.9 272.2Q471.8 272.2 470.6 271.0Q469.4 269.7 469.4 267.5L469.4 267.5L469.4 242.0Q469.4 239.8 470.6 238.6Q471.8 237.4 473.8 237.4L473.8 237.4Q475.7 237.4 476.9 238.6Q478.1 239.8 478.1 242.0L478.1 242.0L478.1 244.1L478.3 244.1Q478.9 241.1 480.8 239.3Q482.7 237.5 485.3 237.5L485.3 237.5Q487.1 237.5 488.1 238.4L488.1 238.4Q489.4 239.4 489.4 241.7L489.4 241.7Q489.4 243.9 488.1 245.0L488.1 245.0Q486.8 246.2 484.1 246.2L484.1 246.2Q481.1 246.2 479.8 247.8Q478.5 249.5 478.5 252.6L478.5 252.6L478.5 267.5Q478.5 269.7 477.3 271.0Q476.1 272.2 473.9 272.2ZM500.8 232.5Q499.4 233.9 497.4 233.9Q495.3 233.9 493.9 232.5Q492.5 231.1 492.5 229.2L492.5 229.2Q492.5 227.2 493.9 225.8Q495.3 224.5 497.4 224.5Q499.4 224.5 500.8 225.8Q502.3 227.2 502.3 229.2L502.3 229.2Q502.3 231.1 500.8 232.5ZM500.7 270.9Q499.5 272.2 497.4 272.2Q495.3 272.2 494.0 270.9Q492.8 269.7 492.8 267.5L492.8 267.5L492.8 242.1Q492.8 239.9 494.0 238.6Q495.3 237.4 497.4 237.4Q499.5 237.4 500.7 238.6Q501.9 239.9 501.9 242.1L501.9 242.1L501.9 267.5Q501.9 269.7 500.7 270.9ZM518.3 271.0Q517.1 272.2 515 272.2Q512.9 272.2 511.7 271.0Q510.4 269.8 510.4 267.5L510.4 267.5L510.4 244.9L508.7 244.9Q507.2 244.9 506.3 244.0Q505.3 243.1 505.3 241.6Q505.3 240.0 506.3 239.1Q507.2 238.2 508.7 238.2L508.7 238.2L510.4 238.2L510.4 235.7Q510.4 230.8 512.8 228.4Q515.2 226.1 520 226.1L520 226.1Q523.5 226.1 525.2 227.1Q526.9 228.1 526.9 229.7L526.9 229.7Q526.9 231.6 525.0 232.1L525.0 232.1Q524.2 232.4 523.3 232.4L523.3 232.4Q521.2 232.5 520.3 233.3Q519.3 234.2 519.3 236.1L519.3 236.1L519.3 238.2L523.2 238.2Q524.7 238.2 525.6 239.1Q526.5 240.0 526.5 241.6Q526.5 243.1 525.6 244.0Q524.7 244.9 523.2 244.9L523.2 244.9L519.6 244.9L519.6 267.5Q519.6 269.8 518.3 271.0ZM539.0 232.5Q537.6 233.9 535.5 233.9Q533.4 233.9 532.0 232.5Q530.6 231.1 530.6 229.2L530.6 229.2Q530.6 227.2 532.0 225.8Q533.4 224.5 535.5 224.5Q537.6 224.5 539.0 225.8Q540.4 227.2 540.4 229.2L540.4 229.2Q540.4 231.1 539.0 232.5ZM538.8 270.9Q537.6 272.2 535.5 272.2Q533.4 272.2 532.2 270.9Q530.9 269.7 530.9 267.5L530.9 267.5L530.9 242.1Q530.9 239.9 532.2 238.6Q533.4 237.4 535.5 237.4Q537.6 237.4 538.8 238.6Q540.1 239.9 540.1 242.1L540.1 242.1L540.1 267.5Q540.1 269.7 538.8 270.9ZM556.0 272.1L556.0 272.1Q551.2 272.1 548 269.2Q544.8 266.4 544.8 261.9L544.8 261.9Q544.8 257.4 548.2 254.8Q551.6 252.2 557.9 251.8L557.9 251.8L566.3 251.3L566.3 249.1Q566.3 246.8 564.8 245.5Q563.3 244.1 560.7 244.1L560.7 244.1Q558.6 244.1 557.2 244.9Q555.7 245.7 554.2 247.7L554.2 247.7Q552.7 249.4 550.6 249.4L550.6 249.4Q548.9 249.4 547.8 248.4Q546.8 247.4 546.8 245.9L546.8 245.9Q546.8 244.8 547.2 243.8L547.2 243.8Q548.4 240.8 552.1 239.1Q555.9 237.3 561.1 237.3L561.1 237.3Q567.5 237.3 571.4 240.4Q575.3 243.5 575.3 248.5L575.3 248.5L575.3 267.6Q575.3 269.8 574.1 271.0Q572.8 272.2 570.8 272.2L570.8 272.2Q568.9 272.2 567.8 271.2Q566.6 270.1 566.5 268.1L566.5 268.1L566.5 266.4L566.3 266.4Q564.9 269.1 562.1 270.6Q559.3 272.1 556.0 272.1ZM559.0 265.5L559.0 265.5Q562.1 265.5 564.2 263.7Q566.3 262.0 566.3 259.3L566.3 259.3L566.3 256.8L559.3 257.3Q556.7 257.5 555.3 258.6Q553.9 259.6 553.9 261.4L553.9 261.4Q553.9 263.3 555.3 264.4Q556.7 265.5 559.0 265.5ZM585.8 272.2L585.8 272.2Q583.8 272.2 582.6 271.0Q581.4 269.8 581.4 267.6L581.4 267.6L581.4 230.6Q581.4 228.3 582.6 227.0Q583.9 225.8 585.9 225.8Q588 225.8 589.3 227.0Q590.5 228.3 590.5 230.6L590.5 230.6L590.5 243.9L590.7 243.9Q592.1 240.9 594.8 239.2Q597.5 237.5 601.0 237.5L601.0 237.5Q607.4 237.5 611.0 242.1Q614.7 246.7 614.7 254.8Q614.7 262.9 611.0 267.5Q607.4 272.1 601.1 272.1L601.1 272.1Q597.4 272.1 594.7 270.4Q592 268.8 590.6 265.8L590.6 265.8L590.4 265.8L590.4 267.6Q590.4 269.8 589.1 271.0Q587.9 272.2 585.8 272.2ZM597.9 264.7L597.9 264.7Q601.3 264.7 603.3 262.1Q605.3 259.4 605.3 254.8L605.3 254.8Q605.3 250.2 603.3 247.5Q601.3 244.8 597.9 244.8L597.9 244.8Q594.6 244.8 592.5 247.6Q590.5 250.3 590.5 254.8L590.5 254.8Q590.5 259.3 592.5 262.0Q594.6 264.7 597.9 264.7ZM627.5 271.0Q626.2 272.2 624.2 272.2Q622.1 272.2 620.8 271.0Q619.6 269.7 619.6 267.5L619.6 267.5L619.6 230.6Q619.6 228.3 620.8 227.0Q622.1 225.8 624.2 225.8Q626.2 225.8 627.5 227.0Q628.7 228.3 628.7 230.6L628.7 230.6L628.7 267.5Q628.7 269.7 627.5 271.0ZM650.3 272.3L650.3 272.3Q642.4 272.3 638.0 267.7Q633.7 263.1 633.7 255.0L633.7 255.0Q633.7 246.9 638.0 242.1Q642.4 237.3 649.8 237.3L649.8 237.3Q656.9 237.3 661.3 241.7Q665.7 246.1 665.7 252.9L665.7 252.9Q665.7 254.8 664.7 255.9Q663.7 256.9 661.8 256.9L661.8 256.9L642.6 256.9L642.6 257.3Q642.6 261.0 644.7 263.3Q646.8 265.5 650.3 265.5L650.3 265.5Q652.8 265.5 654.6 264.6Q656.4 263.7 658.3 261.5L658.3 261.5Q659.6 260.1 661.2 260.1L661.2 260.1Q662.8 260.1 663.8 261.1Q664.8 262.0 664.8 263.5L664.8 263.5Q664.8 264.6 664.2 265.7L664.2 265.7Q662.5 268.8 658.8 270.5Q655.1 272.3 650.3 272.3ZM642.7 251.3L642.7 251.3L656.9 251.3Q656.8 248.0 654.9 246.1Q652.9 244.1 649.9 244.1Q646.9 244.1 645.0 246.1Q643.0 248.1 642.7 251.3Z M702.8 270.8Q701.6 272.1 699.3 272.1Q697.1 272.1 695.9 270.8Q694.6 269.6 694.6 267.2L694.6 267.2L694.6 234.3L685.3 234.3Q683.4 234.3 682.2 233.2Q681.0 232.2 681.0 230.4Q681.0 228.6 682.2 227.5Q683.3 226.5 685.3 226.5L685.3 226.5L713.4 226.5Q715.3 226.5 716.5 227.5Q717.7 228.6 717.7 230.4Q717.7 232.2 716.5 233.2Q715.3 234.3 713.4 234.3L713.4 234.3L704.1 234.3L704.1 267.2Q704.1 269.6 702.8 270.8ZM749.1 267.6Q744.6 272.3 736.9 272.3Q729.3 272.3 724.8 267.6Q720.3 263.0 720.3 254.8L720.3 254.8Q720.3 246.7 724.9 242.0Q729.4 237.3 736.9 237.3L736.9 237.3Q744.5 237.3 749.0 242.0Q753.5 246.7 753.5 254.8L753.5 254.8Q753.5 263.0 749.1 267.6ZM736.9 265.3L736.9 265.3Q740.3 265.3 742.3 262.6Q744.3 259.8 744.3 254.8L744.3 254.8Q744.3 249.9 742.3 247.1Q740.3 244.3 736.9 244.3Q733.6 244.3 731.6 247.1Q729.6 249.9 729.6 254.8L729.6 254.8Q729.6 259.8 731.6 262.6Q733.5 265.3 736.9 265.3ZM785.7 267.6Q781.3 272.3 773.6 272.3Q765.9 272.3 761.5 267.6Q757 263.0 757 254.8L757 254.8Q757 246.7 761.5 242.0Q766.0 237.3 773.6 237.3L773.6 237.3Q781.2 237.3 785.7 242.0Q790.2 246.7 790.2 254.8L790.2 254.8Q790.2 263.0 785.7 267.6ZM773.6 265.3L773.6 265.3Q777.0 265.3 778.9 262.6Q780.9 259.8 780.9 254.8L780.9 254.8Q780.9 249.9 778.9 247.1Q777.0 244.3 773.6 244.3Q770.2 244.3 768.2 247.1Q766.3 249.9 766.3 254.8L766.3 254.8Q766.3 259.8 768.2 262.6Q770.2 265.3 773.6 265.3ZM803.0 271.0Q801.7 272.2 799.7 272.2Q797.6 272.2 796.3 271.0Q795.1 269.7 795.1 267.5L795.1 267.5L795.1 230.6Q795.1 228.3 796.3 227.0Q797.6 225.8 799.7 225.8Q801.7 225.8 803.0 227.0Q804.2 228.3 804.2 230.6L804.2 230.6L804.2 267.5Q804.2 269.7 803.0 271.0ZM825.7 272.3L825.7 272.3Q818.1 272.3 813.6 267.6Q809.2 262.9 809.2 254.8L809.2 254.8Q809.2 246.8 813.6 242.1Q818.0 237.3 825.6 237.3L825.6 237.3Q830.6 237.3 834.5 239.5Q838.3 241.7 839.7 245.3L839.7 245.3Q840.2 246.6 840.2 247.6L840.2 247.6Q840.2 249.2 839.1 250.2Q838 251.1 836.3 251.1L836.3 251.1Q835.0 251.1 834.1 250.6Q833.2 250.0 832.5 248.8L832.5 248.8Q830.1 244.5 825.9 244.5L825.9 244.5Q822.4 244.5 820.4 247.2Q818.4 249.9 818.4 254.8L818.4 254.8Q818.4 259.7 820.4 262.4Q822.4 265.1 825.8 265.1L825.8 265.1Q830.0 265.1 832.4 261.2L832.4 261.2Q833.3 259.7 834.2 259.1Q835.1 258.5 836.5 258.5L836.5 258.5Q838.2 258.5 839.3 259.5Q840.4 260.5 840.4 262.1L840.4 262.1Q840.4 263.2 839.8 264.5L839.8 264.5Q838.3 268.0 834.4 270.1Q830.4 272.3 825.7 272.3ZM853.3 271.0Q852.1 272.2 850.0 272.2Q848.0 272.2 846.7 271.0Q845.5 269.7 845.5 267.5L845.5 267.5L845.5 230.5Q845.5 228.3 846.7 227.0Q847.8 225.8 850.0 225.8L850.0 225.8Q852.1 225.8 853.3 227.0Q854.4 228.2 854.4 230.5L854.4 230.5L854.4 244.0L854.6 244.0Q856.0 240.8 858.7 239.1Q861.4 237.4 865.2 237.4L865.2 237.4Q870.7 237.4 873.8 240.8Q876.8 244.1 876.8 250.0L876.8 250.0L876.8 267.5Q876.8 269.7 875.6 271.0Q874.3 272.2 872.3 272.2Q870.2 272.2 869.0 271.0Q867.7 269.7 867.7 267.5L867.7 267.5L867.7 251.9Q867.7 248.6 866.1 246.8Q864.5 245.0 861.4 245.0L861.4 245.0Q858.3 245.0 856.4 247.0Q854.6 249.1 854.6 252.4L854.6 252.4L854.6 267.5Q854.6 269.7 853.3 271.0ZM892.6 272.1L892.6 272.1Q887.7 272.1 884.5 269.2Q881.3 266.4 881.3 261.9L881.3 261.9Q881.3 257.4 884.7 254.8Q888.1 252.2 894.4 251.8L894.4 251.8L902.8 251.3L902.8 249.1Q902.8 246.8 901.3 245.5Q899.8 244.1 897.2 244.1L897.2 244.1Q895.1 244.1 893.7 244.9Q892.3 245.7 890.7 247.7L890.7 247.7Q889.2 249.4 887.1 249.4L887.1 249.4Q885.4 249.4 884.4 248.4Q883.3 247.4 883.3 245.9L883.3 245.9Q883.3 244.8 883.8 243.8L883.8 243.8Q884.9 240.8 888.7 239.1Q892.4 237.3 897.6 237.3L897.6 237.3Q904.1 237.3 907.9 240.4Q911.8 243.5 911.8 248.5L911.8 248.5L911.8 267.6Q911.8 269.8 910.6 271.0Q909.4 272.2 907.4 272.2L907.4 272.2Q905.5 272.2 904.3 271.2Q903.1 270.1 903 268.1L903 268.1L903 266.4L902.8 266.4Q901.4 269.1 898.6 270.6Q895.8 272.1 892.6 272.1ZM895.6 265.5L895.6 265.5Q898.6 265.5 900.7 263.7Q902.8 262.0 902.8 259.3L902.8 259.3L902.8 256.8L895.8 257.3Q893.2 257.5 891.8 258.6Q890.4 259.6 890.4 261.4L890.4 261.4Q890.4 263.3 891.8 264.4Q893.3 265.5 895.6 265.5ZM925.9 232.5Q924.5 233.9 922.4 233.9Q920.3 233.9 918.9 232.5Q917.5 231.1 917.5 229.2L917.5 229.2Q917.5 227.2 918.9 225.8Q920.3 224.5 922.4 224.5Q924.5 224.5 925.9 225.8Q927.3 227.2 927.3 229.2L927.3 229.2Q927.3 231.1 925.9 232.5ZM925.8 270.9Q924.5 272.2 922.4 272.2Q920.3 272.2 919.1 270.9Q917.8 269.7 917.8 267.5L917.8 267.5L917.8 242.1Q917.8 239.9 919.1 238.6Q920.3 237.4 922.4 237.4Q924.5 237.4 925.8 238.6Q927.0 239.9 927.0 242.1L927.0 242.1L927.0 267.5Q927.0 269.7 925.8 270.9ZM940.9 271.0Q939.7 272.2 937.6 272.2Q935.5 272.2 934.3 271.0Q933.0 269.7 933.0 267.5L933.0 267.5L933.0 242.0Q933.0 239.8 934.2 238.6Q935.4 237.4 937.4 237.4Q939.5 237.4 940.8 238.6Q942 239.9 942 242.0L942 242.0L942 243.9L942.2 243.9Q944.9 237.4 952.5 237.4L952.5 237.4Q958.1 237.4 961.1 240.7Q964.1 244.1 964.1 250.0L964.1 250.0L964.1 267.5Q964.1 269.7 962.9 271.0Q961.6 272.2 959.6 272.2Q957.5 272.2 956.3 271.0Q955 269.7 955 267.5L955 267.5L955 251.9Q955 248.6 953.4 246.8Q951.9 245.0 948.8 245.0Q945.8 245.0 944.0 247.0Q942.2 249.1 942.2 252.3L942.2 252.3L942.2 267.5Q942.2 269.7 940.9 271.0Z M992.9 271.0Q991.7 272.2 989.6 272.2Q987.5 272.2 986.2 271.0Q985 269.8 985 267.5L985 267.5L985 244.9L983.3 244.9Q981.8 244.9 980.8 244.0Q979.9 243.1 979.9 241.6Q979.9 240.0 980.8 239.1Q981.8 238.2 983.3 238.2L983.3 238.2L985 238.2L985 235.7Q985 230.8 987.4 228.4Q989.8 226.1 994.6 226.1L994.6 226.1Q998.1 226.1 999.8 227.1Q1001.4 228.1 1001.4 229.7L1001.4 229.7Q1001.4 231.6 999.6 232.1L999.6 232.1Q998.8 232.4 997.8 232.4L997.8 232.4Q995.8 232.5 994.8 233.3Q993.9 234.2 993.9 236.1L993.9 236.1L993.9 238.2L997.8 238.2Q999.2 238.2 1000.2 239.1Q1001.1 240.0 1001.1 241.6Q1001.1 243.1 1000.2 244.0Q999.2 244.9 997.8 244.9L997.8 244.9L994.1 244.9L994.1 267.5Q994.1 269.8 992.9 271.0ZM1032.8 267.6Q1028.4 272.3 1020.7 272.3Q1013.1 272.3 1008.6 267.6Q1004.1 263.0 1004.1 254.8L1004.1 254.8Q1004.1 246.7 1008.6 242.0Q1013.2 237.3 1020.7 237.3L1020.7 237.3Q1028.3 237.3 1032.8 242.0Q1037.3 246.7 1037.3 254.8L1037.3 254.8Q1037.3 263.0 1032.8 267.6ZM1020.7 265.3L1020.7 265.3Q1024.1 265.3 1026.1 262.6Q1028.0 259.8 1028.0 254.8L1028.0 254.8Q1028.0 249.9 1026.1 247.1Q1024.1 244.3 1020.7 244.3Q1017.3 244.3 1015.4 247.1Q1013.4 249.9 1013.4 254.8L1013.4 254.8Q1013.4 259.8 1015.3 262.6Q1017.3 265.3 1020.7 265.3ZM1046.6 272.2L1046.6 272.2Q1044.5 272.2 1043.2 271.0Q1042 269.7 1042 267.5L1042 267.5L1042 242.0Q1042 239.8 1043.2 238.6Q1044.4 237.4 1046.4 237.4L1046.4 237.4Q1048.3 237.4 1049.5 238.6Q1050.7 239.8 1050.7 242.0L1050.7 242.0L1050.7 244.1L1050.9 244.1Q1051.6 241.1 1053.5 239.3Q1055.3 237.5 1057.9 237.5L1057.9 237.5Q1059.7 237.5 1060.7 238.4L1060.7 238.4Q1062.0 239.4 1062.0 241.7L1062.0 241.7Q1062.0 243.9 1060.7 245.0L1060.7 245.0Q1059.4 246.2 1056.8 246.2L1056.8 246.2Q1053.8 246.2 1052.4 247.8Q1051.1 249.5 1051.1 252.6L1051.1 252.6L1051.1 267.5Q1051.1 269.7 1049.9 271.0Q1048.7 272.2 1046.6 272.2Z M83.9 344.5Q82.7 345.8 80.5 345.8Q78.3 345.8 77 344.5Q75.8 343.2 75.8 340.9L75.8 340.9L75.8 305.0Q75.8 302.7 77 301.4Q78.3 300.1 80.5 300.1L80.5 300.1L94.2 300.1Q101.9 300.1 106.2 303.9Q110.5 307.7 110.5 314.4L110.5 314.4Q110.5 318.7 108.5 322.1Q106.5 325.4 102.8 327.0L102.8 327.0L109.3 338.2Q110.3 340.0 110.3 341.5L110.3 341.5Q110.3 343.4 108.9 344.6Q107.6 345.8 105.5 345.8L105.5 345.8Q103.8 345.8 102.9 345.1Q101.9 344.3 100.7 342.2L100.7 342.2L93.2 328.7L85.2 328.7L85.2 340.9Q85.2 343.2 83.9 344.5ZM85.2 307.4L85.2 321.8L93.3 321.8Q96.9 321.8 98.9 319.9Q100.8 318.0 100.8 314.6L100.8 314.6Q100.8 311.3 98.8 309.4Q96.7 307.4 93.2 307.4L93.2 307.4L85.2 307.4ZM143.4 341.2Q139.0 345.9 131.3 345.9Q123.7 345.9 119.2 341.2Q114.7 336.6 114.7 328.4L114.7 328.4Q114.7 320.3 119.2 315.6Q123.8 310.9 131.3 310.9L131.3 310.9Q138.9 310.9 143.4 315.6Q147.9 320.3 147.9 328.4L147.9 328.4Q147.9 336.6 143.4 341.2ZM131.3 338.9L131.3 338.9Q134.7 338.9 136.7 336.2Q138.6 333.4 138.6 328.4L138.6 328.4Q138.6 323.5 136.7 320.7Q134.7 317.9 131.3 317.9Q127.9 317.9 126.0 320.7Q124.0 323.5 124.0 328.4L124.0 328.4Q124.0 333.4 125.9 336.2Q127.9 338.9 131.3 338.9ZM157.3 345.8L157.3 345.8Q155.3 345.8 154.0 344.6Q152.8 343.4 152.8 341.2L152.8 341.2L152.8 304.2Q152.8 301.9 154.1 300.6Q155.3 299.4 157.4 299.4Q159.4 299.4 160.7 300.6Q161.9 301.9 161.9 304.2L161.9 304.2L161.9 317.5L162.1 317.5Q163.5 314.5 166.2 312.8Q168.9 311.1 172.5 311.1L172.5 311.1Q178.8 311.1 182.5 315.7Q186.1 320.3 186.1 328.4Q186.1 336.5 182.5 341.1Q178.8 345.7 172.5 345.7L172.5 345.7Q168.9 345.7 166.2 344.0Q163.4 342.4 162 339.4L162 339.4L161.8 339.4L161.8 341.2Q161.8 343.4 160.6 344.6Q159.3 345.8 157.3 345.8ZM169.4 338.3L169.4 338.3Q172.8 338.3 174.8 335.7Q176.8 333.0 176.8 328.4L176.8 328.4Q176.8 323.8 174.8 321.1Q172.8 318.4 169.4 318.4L169.4 318.4Q166.0 318.4 164.0 321.2Q161.9 323.9 161.9 328.4L161.9 328.4Q161.9 332.9 164.0 335.6Q166.0 338.3 169.4 338.3ZM218.3 341.2Q213.8 345.9 206.2 345.9Q198.5 345.9 194.1 341.2Q189.6 336.6 189.6 328.4L189.6 328.4Q189.6 320.3 194.1 315.6Q198.6 310.9 206.2 310.9L206.2 310.9Q213.8 310.9 218.3 315.6Q222.8 320.3 222.8 328.4L222.8 328.4Q222.8 336.6 218.3 341.2ZM206.2 338.9L206.2 338.9Q209.6 338.9 211.5 336.2Q213.5 333.4 213.5 328.4L213.5 328.4Q213.5 323.5 211.5 320.7Q209.6 317.9 206.2 317.9Q202.8 317.9 200.8 320.7Q198.8 323.5 198.8 328.4L198.8 328.4Q198.8 333.4 200.8 336.2Q202.8 338.9 206.2 338.9ZM229.9 336.6L229.9 336.6L229.9 318.5L228.2 318.5Q226.5 318.5 225.6 317.6Q224.6 316.7 224.6 315.1Q224.6 313.5 225.6 312.6Q226.5 311.7 228.2 311.7L228.2 311.7L229.9 311.7L229.9 307.9Q229.9 305.7 231.1 304.4Q232.3 303.2 234.5 303.2Q236.6 303.2 237.8 304.4Q239.0 305.7 239.0 307.9L239.0 307.9L239.0 311.7L242.3 311.7Q243.9 311.7 244.8 312.6Q245.8 313.5 245.8 315.1Q245.8 316.7 244.8 317.6Q243.9 318.5 242.3 318.5L242.3 318.5L239.0 318.5L239.0 334.6Q239.0 336.3 239.7 337.2Q240.3 338.0 241.8 338.1L241.8 338.1L242.4 338.2Q244.2 338.3 245.0 339.1Q245.9 339.9 245.9 341.5L245.9 341.5Q245.9 343.4 244.1 344.5Q242.4 345.5 239.4 345.5L239.4 345.5L239.1 345.5Q229.9 345.5 229.9 336.6ZM258.4 306.1Q257 307.5 254.9 307.5Q252.9 307.5 251.5 306.1Q250.1 304.7 250.1 302.8L250.1 302.8Q250.1 300.8 251.5 299.4Q252.9 298.1 254.9 298.1Q257 298.1 258.4 299.4Q259.8 300.8 259.8 302.8L259.8 302.8Q259.8 304.7 258.4 306.1ZM258.3 344.5Q257.1 345.8 254.9 345.8Q252.8 345.8 251.6 344.5Q250.4 343.3 250.4 341.1L250.4 341.1L250.4 315.7Q250.4 313.5 251.6 312.2Q252.8 311.0 254.9 311.0Q257.1 311.0 258.3 312.2Q259.5 313.5 259.5 315.7L259.5 315.7L259.5 341.1Q259.5 343.3 258.3 344.5ZM280.8 345.9L280.8 345.9Q273.3 345.9 268.8 341.2Q264.3 336.5 264.3 328.4L264.3 328.4Q264.3 320.4 268.8 315.7Q273.2 310.9 280.8 310.9L280.8 310.9Q285.8 310.9 289.7 313.1Q293.5 315.3 294.9 318.9L294.9 318.9Q295.4 320.2 295.4 321.2L295.4 321.2Q295.4 322.8 294.3 323.8Q293.2 324.7 291.5 324.7L291.5 324.7Q290.2 324.7 289.3 324.2Q288.4 323.6 287.7 322.4L287.7 322.4Q285.3 318.1 281.1 318.1L281.1 318.1Q277.6 318.1 275.6 320.8Q273.6 323.5 273.6 328.4L273.6 328.4Q273.6 333.3 275.6 336.0Q277.6 338.7 281 338.7L281 338.7Q285.2 338.7 287.6 334.8L287.6 334.8Q288.5 333.3 289.4 332.7Q290.3 332.1 291.7 332.1L291.7 332.1Q293.3 332.1 294.5 333.1Q295.6 334.1 295.6 335.7L295.6 335.7Q295.6 336.8 295.0 338.1L295.0 338.1Q293.5 341.6 289.5 343.7Q285.6 345.9 280.8 345.9ZM314.1 345.9L314.1 345.9Q308.5 345.9 304.7 344.0Q300.9 342.2 299.7 339.2L299.7 339.2Q299.3 338.2 299.3 337.5L299.3 337.5Q299.3 335.9 300.4 335.0Q301.4 334.0 303.0 334.0L303.0 334.0Q305.2 334.0 307 336.1L307 336.1Q308.4 337.8 310.1 338.7Q311.8 339.5 314.3 339.5L314.3 339.5Q316.8 339.5 318.3 338.5Q319.8 337.5 319.8 335.9L319.8 335.9Q319.8 334.5 318.8 333.7Q317.8 332.9 315.3 332.4L315.3 332.4L309.7 331.2Q304.8 330.1 302.3 327.7Q299.8 325.2 299.8 321.5L299.8 321.5Q299.8 316.7 303.7 313.8Q307.6 310.9 314.1 310.9L314.1 310.9Q319.1 310.9 322.7 312.9Q326.3 314.9 327.2 317.9L327.2 317.9Q327.4 318.7 327.4 319.2L327.4 319.2Q327.4 320.7 326.5 321.5Q325.6 322.3 323.9 322.3L323.9 322.3Q321.8 322.3 320.6 320.9L320.6 320.9Q319.2 319.2 317.7 318.3Q316.2 317.3 313.9 317.3L313.9 317.3Q311.6 317.3 310.1 318.3Q308.7 319.3 308.7 321.0L308.7 321.0Q308.7 322.3 309.8 323.2Q310.8 324.1 313.3 324.6L313.3 324.6L318.8 325.8Q324.2 326.9 326.5 329.0Q328.9 331.2 328.9 334.9L328.9 334.9Q328.9 339.9 324.8 342.9Q320.8 345.9 314.1 345.9Z " clip-path="url(#satori_cp-id-0)" mask="url(#satori_om-id-0)"/><defs><clipPath id="satori_bc-id-0-1" clip-path="url(#satori_cp-id-0)"><rect x="0" y="509" width="1200" height="121"/></clipPath></defs><mask id="satori_om-id-0-1"><rect x="0" y="510" width="1200" height="120" fill="#fff" mask="url(#satori_om-id-0)"/><path width="1200" height="121" fill="none" stroke="#000" stroke-width="2" d="M0,509 A0,0 0 0 1 0,509 h1200 A0,0 0 0 1 1200,509"/></mask><path width="1200" height="121" clip-path="url(#satori_bc-id-0-1)" fill="none" stroke="rgba(0,0,0,0.08)" stroke-width="2" d="M0,509 A0,0 0 0 1 0,509 h1200 A0,0 0 0 1 1200,509"/><mask id="satori_om-id-0-1-0"><rect x="48" y="538" width="228" height="64" fill="#fff" mask="url(#satori_om-id-0)"/></mask><mask id="satori_om-id-0-1-0-0"><rect x="48" y="538" width="72" height="64" fill="#fff" mask="url(#satori_om-id-0)"/></mask><clipPath id="satori_cp-id-0-1-0-0-0" clip-path="url(#satori_cp-id-0)"><rect x="48" y="538" width="72" height="64"/></clipPath><mask id="satori_om-id-0-1-0-0-0"><rect x="48" y="538" width="72" height="64" fill="#fff" mask="url(#satori_om-id-0)"/></mask><image x="48" y="538" width="72" height="64" href="data:image/svg+xml;utf8,%3Csvg  xmlns=%22http://www.w3.org/2000/svg%22 width=%2273.60461760461762%22 height=%2264%22 viewBox=%220 0 797 693%22%3E%3Cg transform=%22matrix(1,0,0,1,-345,-96.5)%22%3E%3Cpath d=%22M756.942,197.15L756.942,474C701.751,474 656.942,518.808 656.942,574C656.942,629.192 701.751,674 756.942,674L756.942,777L495.122,777C443.175,777 401,734.825 401,682.878L401,614L364.755,614C353.852,614 345,605.148 345,594.245L345,436.814C345,425.878 353.878,417 364.814,417L401,417L401,365.122C401,313.175 443.175,271 495.122,271L715.058,271L715.058,197.15C696.492,189.056 683.5,170.533 683.5,149C683.5,120.024 707.024,96.5 736,96.5C764.976,96.5 788.5,120.024 788.5,149C788.5,170.533 775.508,189.056 756.942,197.15ZM559,388C520.918,388 490,418.918 490,457C490,495.082 520.918,526 559,526C597.082,526 628,495.082 628,457C628,418.918 597.082,388 559,388Z%22 fill=%22%23ad47ff%22%3E%3C/path%3E%3Cg transform=%22matrix(-1,1.22465e-16,-1.22465e-16,-1,1486.06,1043)%22%3E%3Cpath d=%22M401,417L401,348.122C401,296.175 443.175,254 495.122,254L705.058,254L705.058,357C760.249,357 805.058,401.808 805.058,457C805.058,512.192 760.249,557 705.058,557L705.058,760L495.122,760C443.175,760 401,717.825 401,665.878L401,614L364.755,614C353.852,614 345,605.148 345,594.245L345,436.814C345,425.878 353.878,417 364.814,417L401,417ZM552,643C590.082,643 621,612.082 621,574C621,535.918 590.082,505 552,505C513.918,505 483,535.918 483,574C483,612.082 513.918,643 552,643Z%22 fill=%22%2300d5bd%22%3E%3C/path%3E%3C/g%3E%3C/g%3E%3C/svg%3E" preserveAspectRatio="none" clip-path="url(#satori_cp-id-0-1-0-0-0)" mask="url(#satori_om-id-0-1-0-0-0)"/><mask id="satori_om-id-0-1-0-0-0-0"><rect x="48" y="538" width="0" height="64" fill="#fff" mask="url(#satori_om-id-0)"/></mask><mask id="satori_om-id-0-1-0-0-0-0-0"><rect x="48" y="538" width="0" height="64" fill="#fff" mask="url(#satori_om-id-0)"/></mask><mask id="satori_om-id-0-1-0-0-0-0-1"><rect x="48" y="538" width="0" height="64" fill="#fff" mask="url(#satori_om-id-0)"/></mask><mask id="satori_om-id-0-1-0-0-0-0-1-0"><rect x="48" y="538" width="0" height="64" fill="#fff" mask="url(#satori_om-id-0)"/></mask><mask id="satori_om-id-0-1-0-1"><rect x="138" y="540" width="138" height="60" fill="#fff" mask="url(#satori_om-id-0)"/></mask><mask id="satori_om-id-0-1-0-1-0"><rect x="138" y="540" width="138" height="36" fill="#fff" mask="url(#satori_om-id-0)"/></mask><path fill="#0f172a" d="M150.7 571.2L150.7 571.2Q145.9 571.2 143.0 568.6Q140.1 566.1 140.1 561.8L140.1 561.8L140.1 547.9Q140.1 546.5 140.8 545.8Q141.5 545.1 142.8 545.1Q144.0 545.1 144.7 545.8Q145.4 546.5 145.4 547.9L145.4 547.9L145.4 561.3Q145.4 563.8 146.8 565.2Q148.2 566.7 150.7 566.7L150.7 566.7Q153.3 566.7 154.7 565.2Q156.1 563.8 156.1 561.3L156.1 561.3L156.1 547.9Q156.1 546.5 156.8 545.8Q157.5 545.1 158.7 545.1Q160.0 545.1 160.7 545.8Q161.4 546.5 161.4 547.9L161.4 547.9L161.4 561.8Q161.4 566.1 158.5 568.6Q155.6 571.2 150.7 571.2ZM170.2 570.4Q169.5 571.2 168.2 571.2Q167.0 571.2 166.3 570.4Q165.6 569.7 165.6 568.4L165.6 568.4L165.6 548.2Q165.6 546.9 166.3 546.2Q167.0 545.4 168.2 545.4L168.2 545.4L176.0 545.4Q180.3 545.4 182.7 547.6Q185.1 549.7 185.1 553.5L185.1 553.5Q185.1 555.9 184.0 557.8Q182.9 559.7 180.8 560.6L180.8 560.6L184.4 566.9Q185.0 567.9 185.0 568.7L185.0 568.7Q185.0 569.8 184.2 570.5Q183.5 571.2 182.3 571.2L182.3 571.2Q181.4 571.2 180.8 570.8Q180.3 570.3 179.6 569.2L179.6 569.2L175.4 561.5L170.9 561.5L170.9 568.4Q170.9 569.7 170.2 570.4ZM170.9 549.6L170.9 557.7L175.5 557.7Q177.5 557.7 178.6 556.6Q179.7 555.5 179.7 553.6L179.7 553.6Q179.7 551.8 178.5 550.7Q177.4 549.6 175.4 549.6L175.4 549.6L170.9 549.6ZM198.1 562.7L190.8 562.7Q189.7 562.7 189.1 562.1Q188.4 561.5 188.4 560.5Q188.4 559.4 189.1 558.8Q189.7 558.2 190.8 558.2L190.8 558.2L198.1 558.2Q199.2 558.2 199.9 558.8Q200.6 559.4 200.6 560.5Q200.6 561.5 199.9 562.1Q199.2 562.7 198.1 562.7L198.1 562.7ZM209.1 570.4Q208.4 571.2 207.2 571.2Q205.9 571.2 205.2 570.4Q204.5 569.7 204.5 568.4L204.5 568.4L204.5 548.2Q204.5 546.9 205.2 546.2Q205.9 545.4 207.2 545.4L207.2 545.4L214.9 545.4Q219.3 545.4 221.7 547.6Q224.1 549.7 224.1 553.5L224.1 553.5Q224.1 555.9 223.0 557.8Q221.8 559.7 219.7 560.6L219.7 560.6L223.4 566.9Q224.0 567.9 224.0 568.7L224.0 568.7Q224.0 569.8 223.2 570.5Q222.4 571.2 221.3 571.2L221.3 571.2Q220.3 571.2 219.8 570.8Q219.2 570.3 218.6 569.2L218.6 569.2L214.4 561.5L209.8 561.5L209.8 568.4Q209.8 569.7 209.1 570.4ZM209.8 549.6L209.8 557.7L214.4 557.7Q216.4 557.7 217.5 556.6Q218.6 555.5 218.6 553.6L218.6 553.6Q218.6 551.8 217.5 550.7Q216.3 549.6 214.4 549.6L214.4 549.6L209.8 549.6ZM229.3 571.1L229.3 571.1Q228.0 571.1 227.3 570.5Q226.6 569.8 226.6 568.6L226.6 568.6Q226.6 567.9 226.9 566.9L226.9 566.9L233.9 548.1Q234.4 546.5 235.4 545.8Q236.3 545.1 237.8 545.1L237.8 545.1Q239.4 545.1 240.4 545.8Q241.3 546.5 241.9 548.1L241.9 548.1L248.9 566.9Q249.2 567.9 249.2 568.6L249.2 568.6Q249.2 569.7 248.5 570.4Q247.7 571.1 246.5 571.1L246.5 571.1Q245.4 571.1 244.8 570.6Q244.1 570.0 243.8 568.8L243.8 568.8L242.4 564.8L233.3 564.8L232.0 568.7Q231.6 570.0 231.0 570.6Q230.3 571.1 229.3 571.1ZM237.7 550.3L234.5 560.7L241.2 560.7L237.9 550.3L237.7 550.3ZM262.1 570.8L255.1 570.8Q253.8 570.8 253.1 570.1Q252.4 569.3 252.4 568.0L252.4 568.0L252.4 548.2Q252.4 546.9 253.1 546.2Q253.8 545.4 255.1 545.4L255.1 545.4L262.1 545.4Q267.8 545.4 271.0 548.7Q274.2 552.0 274.2 558.0L274.2 558.0Q274.2 564.0 271.0 567.4Q267.8 570.8 262.1 570.8L262.1 570.8ZM257.7 549.8L257.7 566.4L261.5 566.4Q265.0 566.4 266.9 564.3Q268.8 562.1 268.8 558.0L268.8 558.0Q268.8 554.1 266.9 551.9Q265.0 549.8 261.5 549.8L261.5 549.8L257.7 549.8Z " clip-path="url(#satori_cp-id-0)" mask="url(#satori_om-id-0)"/><mask id="satori_om-id-0-1-0-1-1"><rect x="138" y="576" width="138" height="24" fill="#fff" mask="url(#satori_om-id-0)"/></mask><path fill="#334155" d="M145.0 595.3L145.0 595.3Q142.4 595.3 140.8 593.8Q139.2 592.4 139.2 590.1L139.2 590.1L139.2 582.1Q139.2 581.5 139.6 581.1Q139.9 580.8 140.5 580.8L140.5 580.8Q141.1 580.8 141.4 581.1Q141.8 581.5 141.8 582.1L141.8 582.1L141.8 589.8Q141.8 591.3 142.6 592.2Q143.5 593.1 145.0 593.1Q146.6 593.1 147.4 592.2Q148.3 591.3 148.3 589.8L148.3 589.8L148.3 582.1Q148.3 581.5 148.6 581.1Q149.0 580.8 149.6 580.8L149.6 580.8Q150.2 580.8 150.5 581.1Q150.8 581.5 150.8 582.1L150.8 582.1L150.8 590.1Q150.8 592.4 149.3 593.8Q147.7 595.3 145.0 595.3ZM155.5 594.9Q155.2 595.2 154.6 595.2Q154.0 595.2 153.6 594.9Q153.3 594.5 153.3 593.9L153.3 593.9L153.3 582.3Q153.3 581.6 153.6 581.3Q154.0 581.0 154.6 581.0L154.6 581.0L158.9 581.0Q161.2 581.0 162.5 582.1Q163.8 583.3 163.8 585.3L163.8 585.3Q163.8 586.7 163.1 587.8Q162.4 588.8 161.2 589.3L161.2 589.3L163.4 593.2Q163.7 593.7 163.7 594.1L163.7 594.1Q163.7 594.6 163.4 594.9Q163.0 595.2 162.4 595.2L162.4 595.2Q162.0 595.2 161.7 595.0Q161.5 594.8 161.2 594.3L161.2 594.3L158.7 589.7L155.8 589.7L155.8 593.9Q155.8 594.5 155.5 594.9ZM155.8 583.0L155.8 587.8L158.7 587.8Q159.9 587.8 160.5 587.2Q161.2 586.5 161.2 585.4L161.2 585.4Q161.2 584.3 160.5 583.6Q159.8 583.0 158.6 583.0L158.6 583.0L155.8 583.0ZM171.1 590.4L166.7 590.4Q166.2 590.4 165.9 590.1Q165.6 589.8 165.6 589.3Q165.6 588.8 165.9 588.5Q166.2 588.2 166.7 588.2L166.7 588.2L171.1 588.2Q171.7 588.2 172.0 588.5Q172.3 588.8 172.3 589.3Q172.3 589.8 172.0 590.1Q171.7 590.4 171.1 590.4L171.1 590.4ZM176.7 594.9Q176.4 595.2 175.8 595.2Q175.2 595.2 174.9 594.9Q174.6 594.5 174.6 593.9L174.6 593.9L174.6 582.3Q174.6 581.6 174.9 581.3Q175.2 581.0 175.8 581.0L175.8 581.0L180.1 581.0Q182.4 581.0 183.7 582.1Q185.0 583.3 185.0 585.3L185.0 585.3Q185.0 586.7 184.3 587.8Q183.7 588.8 182.5 589.3L182.5 589.3L184.7 593.2Q185.0 593.7 185.0 594.1L185.0 594.1Q185.0 594.6 184.6 594.9Q184.2 595.2 183.7 595.2L183.7 595.2Q183.2 595.2 183.0 595.0Q182.7 594.8 182.4 594.3L182.4 594.3L179.9 589.7L177.1 589.7L177.1 593.9Q177.1 594.5 176.7 594.9ZM177.1 583.0L177.1 587.8L179.9 587.8Q181.1 587.8 181.8 587.2Q182.4 586.5 182.4 585.4L182.4 585.4Q182.4 584.3 181.8 583.6Q181.1 583.0 179.9 583.0L179.9 583.0L177.1 583.0ZM187.7 595.2L187.7 595.2Q187.1 595.2 186.7 594.9Q186.4 594.6 186.4 594.0L186.4 594.0Q186.4 593.7 186.6 593.3L186.6 593.3L190.7 582.2Q190.9 581.4 191.4 581.1Q191.8 580.8 192.5 580.8L192.5 580.8Q193.2 580.8 193.6 581.1Q194.1 581.4 194.3 582.1L194.3 582.1L198.4 593.3Q198.6 593.7 198.6 594.0L198.6 594.0Q198.6 594.6 198.2 594.9Q197.9 595.2 197.3 595.2L197.3 595.2Q196.8 595.2 196.5 595.0Q196.2 594.7 196.0 594.1L196.0 594.1L195.1 591.4L189.9 591.4L188.9 594.1Q188.8 594.7 188.5 595.0Q188.2 595.2 187.7 595.2ZM192.4 583.4L190.5 589.5L194.5 589.5L192.5 583.4L192.4 583.4ZM205.6 595.0L201.7 595.0Q201.1 595.0 200.8 594.7Q200.4 594.3 200.4 593.7L200.4 593.7L200.4 582.3Q200.4 581.6 200.8 581.3Q201.1 581.0 201.7 581.0L201.7 581.0L205.6 581.0Q208.7 581.0 210.5 582.8Q212.3 584.6 212.3 588.0L212.3 588.0Q212.3 591.3 210.5 593.2Q208.7 595.0 205.6 595.0L205.6 595.0ZM202.9 583.1L202.9 592.9L205.3 592.9Q207.4 592.9 208.6 591.6Q209.7 590.4 209.7 588.0L209.7 588.0Q209.7 585.6 208.6 584.3Q207.4 583.1 205.3 583.1L205.3 583.1L202.9 583.1Z M227.0 595.0L219.2 595.0Q218.7 595.0 218.3 594.8Q218.0 594.5 218.0 594.0L218.0 594.0Q218.0 593.6 218.2 593.3Q218.3 593.1 218.7 592.7L218.7 592.7L223.0 588.4Q224.4 587.1 224.8 586.4Q225.3 585.7 225.3 584.9L225.3 584.9Q225.3 583.9 224.6 583.3Q224.0 582.7 223.0 582.7L223.0 582.7Q221.1 582.7 220.3 584.6L220.3 584.6Q220.1 585.0 219.9 585.2Q219.6 585.4 219.2 585.4L219.2 585.4Q218.7 585.4 218.4 585.1Q218.1 584.8 218.1 584.3L218.1 584.3Q218.1 584.1 218.2 583.8L218.2 583.8Q218.3 583.2 218.7 582.7Q219.1 582.1 219.7 581.7Q220.3 581.2 221.1 580.9Q222.0 580.7 223.0 580.7L223.0 580.7Q225.1 580.7 226.4 581.8Q227.8 582.9 227.8 584.7L227.8 584.7Q227.8 585.9 227.1 586.9Q226.4 588.0 224.6 589.8L224.6 589.8L221.4 592.9L221.4 593.0L227.0 593.0Q227.5 593.0 227.8 593.3Q228.1 593.5 228.1 594.0Q228.1 594.5 227.8 594.8Q227.5 595.0 227.0 595.0L227.0 595.0ZM235.2 595.3L235.2 595.3Q232.6 595.3 231.1 593.4Q229.7 591.4 229.7 588.0L229.7 588.0Q229.7 584.6 231.1 582.6Q232.6 580.7 235.2 580.7L235.2 580.7Q237.8 580.7 239.3 582.6Q240.7 584.6 240.7 588.0L240.7 588.0Q240.7 591.4 239.3 593.3Q237.8 595.3 235.2 595.3ZM235.2 593.3L235.2 593.3Q236.6 593.3 237.4 591.9Q238.2 590.5 238.2 588.0L238.2 588.0Q238.2 585.5 237.4 584.1Q236.6 582.7 235.2 582.7Q233.8 582.7 233.0 584.1Q232.2 585.5 232.2 588.0L232.2 588.0Q232.2 590.5 233.0 591.9Q233.8 593.3 235.2 593.3ZM251.6 595.0L243.8 595.0Q243.2 595.0 242.9 594.8Q242.6 594.5 242.6 594.0L242.6 594.0Q242.6 593.6 242.7 593.3Q242.9 593.1 243.3 592.7L243.3 592.7L247.6 588.4Q248.9 587.1 249.4 586.4Q249.8 585.7 249.8 584.9L249.8 584.9Q249.8 583.9 249.2 583.3Q248.5 582.7 247.5 582.7L247.5 582.7Q245.6 582.7 244.9 584.6L244.9 584.6Q244.7 585.0 244.4 585.2Q244.2 585.4 243.7 585.4L243.7 585.4Q243.2 585.4 242.9 585.1Q242.6 584.8 242.6 584.3L242.6 584.3Q242.6 584.1 242.7 583.8L242.7 583.8Q242.9 583.2 243.2 582.7Q243.6 582.1 244.2 581.7Q244.8 581.2 245.7 580.9Q246.5 580.7 247.5 580.7L247.5 580.7Q249.6 580.7 251.0 581.8Q252.3 582.9 252.3 584.7L252.3 584.7Q252.3 585.9 251.6 586.9Q251.0 588.0 249.2 589.8L249.2 589.8L245.9 592.9L245.9 593.0L251.6 593.0Q252.1 593.0 252.4 593.3Q252.6 593.5 252.6 594.0Q252.6 594.5 252.4 594.8Q252.1 595.0 251.6 595.0L251.6 595.0ZM259.6 595.3L259.6 595.3Q258.0 595.3 256.7 594.6Q255.4 593.9 254.9 592.8L254.9 592.8Q254.6 592.3 254.6 591.8L254.6 591.8Q254.6 591.3 254.9 591.0Q255.2 590.7 255.7 590.7L255.7 590.7Q256.1 590.7 256.4 590.9Q256.6 591.1 256.8 591.5L256.8 591.5Q257.2 592.3 257.9 592.8Q258.6 593.3 259.6 593.3L259.6 593.3Q260.9 593.3 261.7 592.5Q262.5 591.7 262.5 590.4L262.5 590.4Q262.5 589.2 261.7 588.4Q260.9 587.7 259.6 587.7L259.6 587.7Q258.3 587.7 257.4 588.5L257.4 588.5Q257.0 589.0 256.7 589.1Q256.4 589.3 256.0 589.3L256.0 589.3Q255.4 589.3 255.1 588.9Q254.8 588.5 254.8 588.0L254.8 588.0Q254.8 587.9 254.8 587.8L254.8 587.8L255.3 582.5Q255.4 581.7 255.8 581.3Q256.2 581.0 257.0 581.0L257.0 581.0L263.1 581.0Q263.6 581.0 263.9 581.2Q264.2 581.5 264.2 582.0L264.2 582.0Q264.2 582.4 263.9 582.7Q263.6 583.0 263.1 583.0L263.1 583.0L257.4 583.0L257.1 587.2L257.1 587.2Q257.6 586.5 258.4 586.1Q259.2 585.8 260.3 585.8L260.3 585.8Q262.3 585.8 263.6 587.0Q264.9 588.3 264.9 590.4L264.9 590.4Q264.9 592.6 263.4 593.9Q261.9 595.3 259.6 595.3Z " clip-path="url(#satori_cp-id-0)" mask="url(#satori_om-id-0)"/><mask id="satori_om-id-0-1-1"><rect x="981" y="557" width="171" height="26" fill="#fff" mask="url(#satori_om-id-0)"/></mask><path fill="#334155" d="M984.4 577.8Q984.1 578.2 983.5 578.2Q982.9 578.2 982.5 577.8Q982.2 577.5 982.2 576.8L982.2 576.8L982.2 563.6Q982.2 563.0 982.5 562.6Q982.9 562.2 983.5 562.2Q984.1 562.2 984.5 562.6Q984.8 563.0 984.8 563.6L984.8 563.6L984.8 568.5L984.9 568.5Q985.4 567.5 986.3 566.9Q987.3 566.4 988.5 566.4L988.5 566.4Q990.6 566.4 991.9 568.0Q993.2 569.5 993.2 572.3L993.2 572.3Q993.2 575.0 991.9 576.6Q990.6 578.1 988.5 578.1L988.5 578.1Q987.2 578.1 986.3 577.6Q985.4 577.0 984.8 576.0L984.8 576.0L984.8 576.0L984.8 576.8Q984.8 577.5 984.4 577.8ZM987.6 575.9L987.6 575.9Q988.9 575.9 989.7 574.9Q990.4 574.0 990.4 572.3Q990.4 570.6 989.7 569.6Q988.9 568.6 987.6 568.6L987.6 568.6Q986.4 568.6 985.6 569.6Q984.8 570.6 984.8 572.3L984.8 572.3Q984.8 573.9 985.6 574.9Q986.4 575.9 987.6 575.9ZM996.5 582.2L996.5 582.2Q995.6 582.2 995.1 581.9Q994.7 581.5 994.7 580.9L994.7 580.9Q994.7 580.5 994.9 580.3Q995.2 580.0 995.7 580.0L995.7 580.0Q995.8 580.0 996.0 580.0Q996.1 580.0 996.3 580.0L996.3 580.0Q997.3 580.0 997.9 578.7L997.9 578.7L998.1 578.2L994.3 568.3Q994.2 567.9 994.2 567.6L994.2 567.6Q994.2 567.0 994.6 566.7Q995.0 566.3 995.6 566.3L995.6 566.3Q996.1 566.3 996.4 566.6Q996.7 566.8 996.8 567.4L996.8 567.4L999.6 575.7L999.6 575.7L1002.3 567.4Q1002.5 566.8 1002.8 566.6Q1003.1 566.3 1003.6 566.3L1003.6 566.3Q1004.2 566.3 1004.5 566.7Q1004.9 567.0 1004.9 567.5L1004.9 567.5Q1004.9 567.9 1004.8 568.3L1004.8 568.3L1001.0 578.4Q1000.2 580.5 999.2 581.3Q998.2 582.2 996.5 582.2Z M1016.5 578.2L1016.5 578.2Q1014.2 578.2 1012.7 577.4Q1011.2 576.5 1010.7 575.2L1010.7 575.2Q1010.6 574.8 1010.6 574.4L1010.6 574.4Q1010.6 573.8 1010.9 573.4Q1011.3 573.1 1011.8 573.1L1011.8 573.1Q1012.3 573.1 1012.6 573.3Q1012.9 573.5 1013.1 574.0L1013.1 574.0Q1013.5 574.9 1014.4 575.4Q1015.3 575.9 1016.6 575.9L1016.6 575.9Q1018.0 575.9 1018.9 575.3Q1019.8 574.7 1019.8 573.7L1019.8 573.7Q1019.8 572.8 1019.1 572.3Q1018.5 571.8 1017.0 571.5L1017.0 571.5L1015.3 571.1Q1010.8 570.2 1010.8 566.8L1010.8 566.8Q1010.8 564.7 1012.4 563.5Q1014.0 562.2 1016.5 562.2L1016.5 562.2Q1018.6 562.2 1020.1 563.1Q1021.5 563.9 1022.0 565.5L1022.0 565.5Q1022.1 565.7 1022.1 566.1L1022.1 566.1Q1022.1 566.6 1021.8 566.9Q1021.4 567.2 1020.9 567.2L1020.9 567.2Q1020.0 567.2 1019.6 566.4L1019.6 566.4Q1018.8 564.5 1016.5 564.5L1016.5 564.5Q1015.2 564.5 1014.4 565.1Q1013.5 565.6 1013.5 566.6L1013.5 566.6Q1013.5 567.4 1014.2 567.9Q1014.8 568.4 1016.3 568.7L1016.3 568.7L1017.9 569.1Q1020.4 569.6 1021.5 570.6Q1022.6 571.6 1022.6 573.4L1022.6 573.4Q1022.6 575.6 1020.9 576.9Q1019.3 578.2 1016.5 578.2ZM1025.1 575.1L1025.1 575.1L1025.1 568.6L1024.4 568.6Q1023.9 568.6 1023.6 568.3Q1023.3 568.1 1023.3 567.6L1023.3 567.6Q1023.3 567.1 1023.6 566.8Q1023.9 566.6 1024.4 566.6L1024.4 566.6L1025.1 566.6L1025.1 565.0Q1025.1 564.4 1025.5 564.0Q1025.8 563.6 1026.5 563.6L1026.5 563.6Q1027.1 563.6 1027.4 564.0Q1027.8 564.4 1027.8 565.0L1027.8 565.0L1027.8 566.6L1029.0 566.6Q1029.5 566.6 1029.8 566.8Q1030.1 567.1 1030.1 567.6L1030.1 567.6Q1030.1 568.1 1029.8 568.3Q1029.5 568.6 1029.0 568.6L1029.0 568.6L1027.8 568.6L1027.8 574.6Q1027.8 575.2 1028.0 575.5Q1028.3 575.8 1028.9 575.9L1028.9 575.9L1029.0 575.9Q1030.1 576.0 1030.1 576.9L1030.1 576.9Q1030.1 577.5 1029.6 577.8Q1029.1 578.1 1028.2 578.1L1028.2 578.1L1028.1 578.1Q1025.1 578.1 1025.1 575.1ZM1034.1 577.8Q1033.7 578.2 1033.1 578.2Q1032.5 578.2 1032.1 577.8Q1031.7 577.4 1031.7 576.8L1031.7 576.8L1031.7 567.7Q1031.7 567.1 1032.1 566.7Q1032.4 566.3 1033.0 566.3L1033.0 566.3Q1033.6 566.3 1033.9 566.7Q1034.3 567.1 1034.3 567.7L1034.3 567.7L1034.3 568.6L1034.3 568.6Q1034.6 567.6 1035.3 567.0Q1035.9 566.4 1036.8 566.4L1036.8 566.4Q1037.4 566.4 1037.7 566.7L1037.7 566.7Q1038.1 567.0 1038.1 567.6L1038.1 567.6Q1038.1 568.2 1037.7 568.6L1037.7 568.6Q1037.3 568.9 1036.5 568.9L1036.5 568.9Q1034.4 568.9 1034.4 571.3L1034.4 571.3L1034.4 576.8Q1034.4 577.4 1034.1 577.8ZM1044.4 578.2L1044.4 578.2Q1041.8 578.2 1040.3 576.6Q1038.8 575.1 1038.8 572.3L1038.8 572.3Q1038.8 569.6 1040.3 567.9Q1041.8 566.3 1044.2 566.3L1044.2 566.3Q1046.5 566.3 1048.0 567.8Q1049.5 569.3 1049.5 571.6L1049.5 571.6Q1049.5 572.2 1049.1 572.6Q1048.8 572.9 1048.2 572.9L1048.2 572.9L1041.5 572.9L1041.5 573.0Q1041.5 574.4 1042.3 575.3Q1043.0 576.1 1044.3 576.1L1044.3 576.1Q1045.2 576.1 1045.9 575.8Q1046.5 575.4 1047.2 574.6L1047.2 574.6Q1047.6 574.2 1048.1 574.2L1048.1 574.2Q1048.6 574.2 1048.9 574.4Q1049.2 574.7 1049.2 575.2L1049.2 575.2Q1049.2 575.5 1049.0 575.9L1049.0 575.9Q1048.4 577.0 1047.2 577.6Q1046.0 578.2 1044.4 578.2ZM1041.5 571.1L1041.5 571.1L1046.8 571.1Q1046.8 569.9 1046.1 569.1Q1045.4 568.4 1044.2 568.4Q1043.1 568.4 1042.3 569.2Q1041.6 569.9 1041.5 571.1ZM1056.2 578.2L1056.2 578.2Q1053.6 578.2 1052.2 576.6Q1050.7 575.1 1050.7 572.3L1050.7 572.3Q1050.7 569.6 1052.2 567.9Q1053.6 566.3 1056.1 566.3L1056.1 566.3Q1058.4 566.3 1059.9 567.8Q1061.3 569.3 1061.3 571.6L1061.3 571.6Q1061.3 572.2 1061.0 572.6Q1060.7 572.9 1060.1 572.9L1060.1 572.9L1053.4 572.9L1053.4 573.0Q1053.4 574.4 1054.1 575.3Q1054.9 576.1 1056.2 576.1L1056.2 576.1Q1057.1 576.1 1057.8 575.8Q1058.4 575.4 1059.1 574.6L1059.1 574.6Q1059.5 574.2 1060.0 574.2L1060.0 574.2Q1060.4 574.2 1060.7 574.4Q1061.0 574.7 1061.0 575.2L1061.0 575.2Q1061.0 575.5 1060.9 575.9L1060.9 575.9Q1060.3 577.0 1059.1 577.6Q1057.9 578.2 1056.2 578.2ZM1053.4 571.1L1053.4 571.1L1058.7 571.1Q1058.7 569.9 1057.9 569.1Q1057.2 568.4 1056.1 568.4Q1055.0 568.4 1054.2 569.2Q1053.5 569.9 1053.4 571.1ZM1063.8 575.1L1063.8 575.1L1063.8 568.6L1063.1 568.6Q1062.6 568.6 1062.3 568.3Q1062.0 568.1 1062.0 567.6L1062.0 567.6Q1062.0 567.1 1062.3 566.8Q1062.6 566.6 1063.1 566.6L1063.1 566.6L1063.8 566.6L1063.8 565.0Q1063.8 564.4 1064.1 564.0Q1064.5 563.6 1065.1 563.6L1065.1 563.6Q1065.7 563.6 1066.1 564.0Q1066.5 564.4 1066.5 565.0L1066.5 565.0L1066.5 566.6L1067.7 566.6Q1068.2 566.6 1068.5 566.8Q1068.8 567.1 1068.8 567.6L1068.8 567.6Q1068.8 568.1 1068.5 568.3Q1068.2 568.6 1067.7 568.6L1067.7 568.6L1066.5 568.6L1066.5 574.6Q1066.5 575.2 1066.7 575.5Q1067.0 575.8 1067.5 575.9L1067.5 575.9L1067.7 575.9Q1068.8 576.0 1068.8 576.9L1068.8 576.9Q1068.8 577.5 1068.3 577.8Q1067.8 578.1 1066.9 578.1L1066.9 578.1L1066.8 578.1Q1063.8 578.1 1063.8 575.1ZM1072.3 575.2L1072.3 575.2Q1072.9 575.2 1073.2 575.5Q1073.5 575.8 1073.5 576.3L1073.5 576.3Q1073.5 576.6 1073.4 576.9L1073.4 576.9L1072.5 580.6Q1072.4 581.1 1072.1 581.3Q1071.9 581.5 1071.4 581.5Q1070.9 581.5 1070.7 581.2Q1070.4 581.0 1070.4 580.5L1070.4 580.5Q1070.4 580.4 1070.4 580.3L1070.4 580.3L1071.1 576.3Q1071.2 575.2 1072.3 575.2Z M1087.7 578.2L1087.7 578.2Q1084.4 578.2 1082.4 576.1Q1080.5 573.9 1080.5 570.2L1080.5 570.2Q1080.5 566.5 1082.4 564.3Q1084.4 562.2 1087.7 562.2L1087.7 562.2Q1089.8 562.2 1091.5 563.1Q1093.1 564.1 1093.8 565.8L1093.8 565.8Q1094.1 566.3 1094.1 566.8L1094.1 566.8Q1094.1 567.4 1093.8 567.7Q1093.4 568.1 1092.9 568.1L1092.9 568.1Q1091.9 568.1 1091.5 567.1L1091.5 567.1Q1091.0 565.8 1090.0 565.2Q1089.0 564.5 1087.7 564.5L1087.7 564.5Q1085.7 564.5 1084.5 566.1Q1083.3 567.6 1083.3 570.2L1083.3 570.2Q1083.3 572.8 1084.5 574.3Q1085.7 575.9 1087.7 575.9L1087.7 575.9Q1090.5 575.9 1091.6 573.4L1091.6 573.4Q1091.8 573.0 1092.1 572.8Q1092.3 572.6 1092.8 572.6L1092.8 572.6Q1093.4 572.6 1093.7 572.9Q1094.1 573.2 1094.1 573.8L1094.1 573.8Q1094.1 574.3 1093.8 574.8L1093.8 574.8Q1093.1 576.4 1091.5 577.3Q1089.9 578.2 1087.7 578.2ZM1098.1 578.1L1098.1 578.1Q1097.4 578.1 1097.0 577.6Q1096.5 577.2 1096.5 576.5L1096.5 576.5Q1096.5 575.9 1097.0 575.4Q1097.4 575.0 1098.1 575.0L1098.1 575.0Q1098.7 575.0 1099.2 575.4Q1099.6 575.9 1099.6 576.5L1099.6 576.5Q1099.6 577.2 1099.2 577.6Q1098.7 578.1 1098.1 578.1Z M1111.6 578.2L1111.6 578.2Q1109.0 578.2 1107.5 576.6Q1106.1 575.1 1106.1 572.3L1106.1 572.3Q1106.1 569.6 1107.5 567.9Q1109.0 566.3 1111.4 566.3L1111.4 566.3Q1113.8 566.3 1115.2 567.8Q1116.7 569.3 1116.7 571.6L1116.7 571.6Q1116.7 572.2 1116.4 572.6Q1116.0 572.9 1115.4 572.9L1115.4 572.9L1108.7 572.9L1108.7 573.0Q1108.7 574.4 1109.5 575.3Q1110.3 576.1 1111.6 576.1L1111.6 576.1Q1112.5 576.1 1113.1 575.8Q1113.8 575.4 1114.4 574.6L1114.4 574.6Q1114.8 574.2 1115.3 574.2L1115.3 574.2Q1115.8 574.2 1116.1 574.4Q1116.4 574.7 1116.4 575.2L1116.4 575.2Q1116.4 575.5 1116.2 575.9L1116.2 575.9Q1115.6 577.0 1114.4 577.6Q1113.2 578.2 1111.6 578.2ZM1108.7 571.1L1108.7 571.1L1114.1 571.1Q1114.0 569.9 1113.3 569.1Q1112.6 568.4 1111.5 568.4Q1110.3 568.4 1109.6 569.2Q1108.8 569.9 1108.7 571.1ZM1119.1 575.1L1119.1 575.1L1119.1 568.6L1118.4 568.6Q1117.9 568.6 1117.6 568.3Q1117.4 568.1 1117.4 567.6L1117.4 567.6Q1117.4 567.1 1117.6 566.8Q1117.9 566.6 1118.4 566.6L1118.4 566.6L1119.1 566.6L1119.1 565.0Q1119.1 564.4 1119.5 564.0Q1119.9 563.6 1120.5 563.6L1120.5 563.6Q1121.1 563.6 1121.5 564.0Q1121.8 564.4 1121.8 565.0L1121.8 565.0L1121.8 566.6L1123.1 566.6Q1123.6 566.6 1123.8 566.8Q1124.1 567.1 1124.1 567.6L1124.1 567.6Q1124.1 568.1 1123.8 568.3Q1123.5 568.6 1123.1 568.6L1123.1 568.6L1121.8 568.6L1121.8 574.6Q1121.8 575.2 1122.1 575.5Q1122.3 575.8 1122.9 575.9L1122.9 575.9L1123.1 575.9Q1124.2 576.0 1124.2 576.9L1124.2 576.9Q1124.2 577.5 1123.7 577.8Q1123.2 578.1 1122.2 578.1L1122.2 578.1L1122.1 578.1Q1119.1 578.1 1119.1 575.1Z M1133.5 578.1L1133.5 578.1Q1131.9 578.1 1130.8 577.2Q1129.7 576.2 1129.7 574.7L1129.7 574.7Q1129.7 573.2 1130.8 572.3Q1132.0 571.4 1134.1 571.3L1134.1 571.3L1137.1 571.1L1137.1 570.3Q1137.1 569.4 1136.5 568.9Q1135.9 568.4 1134.9 568.4L1134.9 568.4Q1134.2 568.4 1133.6 568.7Q1133.1 569.0 1132.6 569.8L1132.6 569.8Q1132.2 570.3 1131.5 570.3L1131.5 570.3Q1131.0 570.3 1130.7 570.0Q1130.3 569.7 1130.3 569.2L1130.3 569.2Q1130.3 568.9 1130.5 568.5L1130.5 568.5Q1131.0 567.5 1132.2 566.9Q1133.4 566.3 1135.1 566.3L1135.1 566.3Q1137.2 566.3 1138.4 567.4Q1139.7 568.4 1139.7 570.1L1139.7 570.1L1139.7 576.8Q1139.7 577.5 1139.4 577.8Q1139.0 578.2 1138.4 578.2L1138.4 578.2Q1137.9 578.2 1137.5 577.8Q1137.2 577.5 1137.1 576.9L1137.1 576.9L1137.1 576.1L1137.1 576.1Q1136.6 577.0 1135.6 577.6Q1134.6 578.1 1133.5 578.1ZM1134.3 576.1L1134.3 576.1Q1135.5 576.1 1136.3 575.4Q1137.1 574.7 1137.1 573.7L1137.1 573.7L1137.1 572.9L1134.4 573.0Q1133.5 573.1 1132.9 573.5Q1132.4 573.9 1132.4 574.6L1132.4 574.6Q1132.4 575.3 1132.9 575.7Q1133.5 576.1 1134.3 576.1ZM1144.2 577.8Q1143.9 578.2 1143.3 578.2Q1142.7 578.2 1142.3 577.8Q1141.9 577.4 1141.9 576.8L1141.9 576.8L1141.9 563.6Q1141.9 563.0 1142.3 562.6Q1142.7 562.2 1143.3 562.2Q1143.9 562.2 1144.2 562.6Q1144.6 563.0 1144.6 563.6L1144.6 563.6L1144.6 576.8Q1144.6 577.4 1144.2 577.8ZM1148.8 578.1L1148.8 578.1Q1148.1 578.1 1147.7 577.6Q1147.2 577.2 1147.2 576.5L1147.2 576.5Q1147.2 575.9 1147.7 575.4Q1148.1 575.0 1148.8 575.0L1148.8 575.0Q1149.4 575.0 1149.9 575.4Q1150.3 575.9 1150.3 576.5L1150.3 576.5Q1150.3 577.2 1149.9 577.6Q1149.4 578.1 1148.8 578.1Z " clip-path="url(#satori_cp-id-0)" mask="url(#satori_om-id-0)"/></svg>