<svg width="1200" height="630" viewBox="0 0 1200 630" xmlns="http://www.w3.org/2000/svg"><mask id="satori_om-id"><rect x="0" y="0" width="1200" height="630" fill="#fff"/></mask><defs><pattern id="satori_pattern_id-0_0" x="0" y="0" width="1" height="1" patternUnits="objectBoundingBox"><linearGradient id="satori_biid-0_0" x1="-0.09774620284174435" y1="0.18618324350808482" x2="1.0977462028417444" y2="0.8138167564919152" spreadMethod="pad"><stop offset="0%" stop-color="#f8fafc"/><stop offset="50%" stop-color="#eef2ff"/><stop offset="100%" stop-color="#ffffff"/></linearGradient><rect x="0" y="0" width="1200" height="630" fill="url(#satori_biid-0_0)"/></pattern></defs><clipPath id="satori_cp-id-0"><rect x="0" y="0" width="1200" height="630"/></clipPath><mask id="satori_om-id-0"><rect x="0" y="0" width="1200" height="630" fill="#fff"/></mask><rect x="0" y="0" width="1200" height="630" fill="url(#satori_pattern_id-0_0)"/><mask id="satori_om-id-0-0"><rect x="0" y="0" width="1200" height="509" fill="#fff" mask="url(#satori_om-id-0)"/></mask><mask id="satori_om-id-0-0-0"><rect x="72" y="72" width="1056" height="365" fill="#fff" mask="url(#satori_om-id-0)"/></mask><mask id="satori_om-id-0-0-0-0"><rect x="72" y="113" width="1056" height="38" fill="#fff" mask="url(#satori_om-id-0)"/></mask><path fill="#64748b" d="M77.1 143.2Q76.6 143.7 75.8 143.7Q75.0 143.7 74.5 143.2Q74.1 142.8 74.1 141.9L74.1 141.9L74.1 122.7Q74.1 121.9 74.5 121.4Q75.0 120.9 75.8 120.9L75.8 120.9L86.8 120.9Q87.5 120.9 88.0 121.3Q88.4 121.8 88.4 122.4Q88.4 123.1 88.0 123.5Q87.5 124.0 86.8 124.0L86.8 124.0L77.6 124.0L77.6 131.1L85.9 131.1Q86.6 131.1 87.1 131.5Q87.5 131.9 87.5 132.5Q87.5 133.2 87.1 133.6Q86.6 134.0 85.9 134.0L85.9 134.0L77.6 134.0L77.6 141.9Q77.6 142.8 77.1 143.2ZM92.5 143.8L92.5 143.8Q91.7 143.8 91.3 143.3Q90.8 142.8 90.8 142.0L90.8 142.0L90.8 128.4Q90.8 127.7 91.2 127.2Q91.7 126.7 92.4 126.7L92.4 126.7Q93.1 126.7 93.6 127.2Q94 127.7 94 128.4L94 128.4L94 129.8L94.1 129.8Q94.4 128.5 95.4 127.6Q96.4 126.8 97.7 126.8L97.7 126.8Q98.6 126.8 99.0 127.2L99.0 127.2Q99.5 127.5 99.5 128.4L99.5 128.4Q99.5 129.1 99.0 129.5L99.0 129.5Q98.5 130.0 97.4 130.0L97.4 130.0Q95.8 130 95.0 131.0Q94.2 132.0 94.2 133.6L94.2 133.6L94.2 142.0Q94.2 142.8 93.7 143.3Q93.2 143.8 92.5 143.8ZM104.5 124.0Q103.9 124.5 103.1 124.5Q102.3 124.5 101.7 124.0Q101.1 123.4 101.1 122.6L101.1 122.6Q101.1 121.8 101.7 121.2Q102.3 120.7 103.1 120.7L103.1 120.7Q103.9 120.7 104.5 121.2Q105.1 121.8 105.1 122.6L105.1 122.6Q105.1 123.4 104.5 124.0ZM104.3 143.3Q103.9 143.8 103.1 143.8Q102.3 143.8 101.9 143.3Q101.4 142.8 101.4 142.0L101.4 142.0L101.4 128.5Q101.4 127.7 101.9 127.2Q102.3 126.7 103.1 126.7Q103.9 126.7 104.3 127.2Q104.8 127.7 104.8 128.5L104.8 128.5L104.8 142.0Q104.8 142.8 104.3 143.3ZM114.4 143.8L114.4 143.8Q111.3 143.8 109.4 141.4Q107.5 139.1 107.5 135.3Q107.5 131.4 109.4 129.1Q111.3 126.8 114.4 126.8L114.4 126.8Q116.1 126.8 117.5 127.6Q118.8 128.4 119.5 129.8L119.5 129.8L119.6 129.8L119.6 122.4Q119.6 121.6 120.1 121.1Q120.5 120.6 121.3 120.6L121.3 120.6Q122.0 120.6 122.5 121.1Q123.0 121.6 123.0 122.4L123.0 122.4L123.0 142.1Q123.0 142.9 122.5 143.3Q122.1 143.8 121.3 143.8L121.3 143.8Q120.6 143.8 120.1 143.3Q119.6 142.9 119.6 142.1L119.6 142.1L119.6 140.5L119.5 140.5Q118.9 142.0 117.6 142.9Q116.3 143.8 114.4 143.8ZM115.3 140.9L115.3 140.9Q117.3 140.9 118.4 139.4Q119.6 137.8 119.6 135.3L119.6 135.3Q119.6 132.7 118.4 131.2Q117.3 129.6 115.3 129.6L115.3 129.6Q113.3 129.6 112.1 131.1Q111.0 132.7 111.0 135.3L111.0 135.3Q111.0 137.9 112.1 139.4Q113.3 140.9 115.3 140.9ZM131.3 143.8L131.3 143.8Q128.8 143.8 127.3 142.4Q125.8 141 125.8 138.8L125.8 138.8Q125.8 136.6 127.4 135.4Q129.0 134.1 131.9 133.9L131.9 133.9L136.4 133.7L136.4 132.4Q136.4 131.0 135.5 130.3Q134.6 129.5 133.1 129.5L133.1 129.5Q131.9 129.5 131.0 130.0Q130.2 130.5 129.5 131.6L129.5 131.6Q129.0 132.3 128.1 132.3L128.1 132.3Q127.4 132.3 127.0 131.9Q126.6 131.5 126.6 130.9L126.6 130.9Q126.6 130.3 126.9 129.8L126.9 129.8Q127.6 128.4 129.3 127.6Q131 126.7 133.2 126.7L133.2 126.7Q136.2 126.7 138.0 128.2Q139.8 129.7 139.8 132.1L139.8 132.1L139.8 142.1Q139.8 142.8 139.3 143.3Q138.8 143.8 138.1 143.8L138.1 143.8Q137.4 143.8 137.0 143.3Q136.5 142.9 136.5 142.2L136.5 142.2L136.5 140.8L136.4 140.8Q135.7 142.1 134.3 142.9Q132.9 143.8 131.3 143.8ZM132.2 141.1L132.2 141.1Q134.0 141.1 135.2 140.0Q136.4 138.9 136.4 137.3L136.4 137.3L136.4 136.0L132.3 136.3Q130.8 136.4 130.0 137.0Q129.2 137.6 129.2 138.7L129.2 138.7Q129.2 139.8 130 140.4Q130.8 141.1 132.2 141.1ZM145.0 149.6L145.0 149.6Q143.9 149.6 143.3 149.2Q142.6 148.8 142.6 148.0L142.6 148.0Q142.6 147.4 143.0 147.1Q143.3 146.8 143.9 146.8L143.9 146.8Q144.1 146.8 144.4 146.8Q144.6 146.8 144.8 146.8L144.8 146.8Q146.5 146.8 147.3 144.6L147.3 144.6L147.6 143.6L142.1 129.3Q141.9 128.7 141.9 128.3L141.9 128.3Q141.9 127.6 142.4 127.2Q142.9 126.7 143.7 126.7L143.7 126.7Q144.3 126.7 144.7 127.0Q145.1 127.3 145.3 128.0L145.3 128.0L149.5 140.4L149.5 140.4L153.7 128.0Q153.9 127.3 154.3 127.0Q154.7 126.7 155.3 126.7L155.3 126.7Q156.0 126.7 156.5 127.2Q157.0 127.6 157.0 128.3L157.0 128.3Q157.0 128.7 156.8 129.2L156.8 129.2L151.1 144.3Q150 147.3 148.7 148.4Q147.3 149.6 145.0 149.6ZM161.7 139.7L161.7 139.7Q162.5 139.7 162.9 140.0Q163.3 140.4 163.3 141.1L163.3 141.1Q163.3 141.5 163.2 142.0L163.2 142.0L161.8 147.3Q161.5 148.5 160.4 148.5L160.4 148.5Q159.8 148.5 159.4 148.1Q159.1 147.8 159.1 147.3L159.1 147.3Q159.1 147.1 159.1 146.9L159.1 146.9L160.1 141.1Q160.4 139.7 161.7 139.7Z M177.7 143.8L177.7 143.8Q177.0 143.8 176.5 143.4Q176.1 143.0 176.1 142.3L176.1 142.3Q176.1 141.8 176.4 141.2L176.4 141.2L185.5 124.0L185.5 123.9L175.0 123.9Q174.3 123.9 173.8 123.5Q173.4 123.1 173.4 122.4L173.4 122.4Q173.4 121.7 173.8 121.3Q174.3 120.9 175.0 120.9L175.0 120.9L186.9 120.9Q187.9 120.9 188.5 121.5Q189.1 122 189.1 122.9L189.1 122.9Q189.1 123.7 188.4 125.1L188.4 125.1L179.3 142.8Q179 143.3 178.6 143.5Q178.3 143.8 177.7 143.8Z M201.8 143.2Q201.3 143.7 200.5 143.7Q199.7 143.7 199.3 143.2Q198.8 142.8 198.8 141.9L198.8 141.9L198.8 122.6Q198.8 121.7 199.3 121.2Q199.8 120.7 200.7 120.7L200.7 120.7Q201.3 120.7 201.7 120.9Q202.1 121.2 202.6 121.8L202.6 121.8L213.7 137.5L213.8 137.5L213.8 122.5Q213.8 121.6 214.2 121.1Q214.7 120.7 215.5 120.7L215.5 120.7Q216.3 120.7 216.7 121.1Q217.2 121.6 217.2 122.5L217.2 122.5L217.2 141.9Q217.2 142.8 216.7 143.2Q216.2 143.7 215.3 143.7L215.3 143.7Q214.7 143.7 214.3 143.5Q213.9 143.3 213.5 142.6L213.5 142.6L202.3 126.9L202.2 126.9L202.2 141.9Q202.2 142.8 201.8 143.2ZM233.7 141.5Q231.5 143.8 228 143.8Q224.5 143.8 222.3 141.5Q220.2 139.2 220.2 135.3L220.2 135.3Q220.2 131.3 222.3 129.0Q224.5 126.7 228 126.7Q231.5 126.7 233.7 129.0Q235.8 131.3 235.8 135.3L235.8 135.3Q235.8 139.2 233.7 141.5ZM228 141L228 141Q230.0 141 231.2 139.5Q232.4 138.0 232.4 135.3L232.4 135.3Q232.4 132.5 231.2 131.0Q230 129.5 228 129.5Q226 129.5 224.8 131.0Q223.6 132.5 223.6 135.3L223.6 135.3Q223.6 138.0 224.8 139.5Q226 141 228 141ZM244.7 143.8L244.7 143.8Q243.8 143.8 243.3 143.4Q242.8 143.0 242.4 142.0L242.4 142.0L237.5 129.2Q237.3 128.7 237.3 128.3L237.3 128.3Q237.3 127.6 237.8 127.2Q238.3 126.7 239.0 126.7L239.0 126.7Q240.2 126.7 240.6 128.1L240.6 128.1L244.7 140.2L244.8 140.2L248.9 128.0Q249.3 126.7 250.4 126.7L250.4 126.7Q251.2 126.7 251.6 127.2Q252.1 127.6 252.1 128.3L252.1 128.3Q252.1 128.7 251.9 129.2L251.9 129.2L247.0 142.0Q246.7 142.9 246.2 143.4Q245.6 143.8 244.7 143.8ZM261.5 143.8L261.5 143.8Q257.8 143.8 255.7 141.5Q253.6 139.3 253.6 135.3L253.6 135.3Q253.6 131.4 255.7 129.1Q257.8 126.7 261.3 126.7L261.3 126.7Q264.5 126.7 266.6 128.9Q268.7 131 268.7 134.4L268.7 134.4Q268.7 135.2 268.2 135.6Q267.8 136.1 267.0 136.1L267.0 136.1L257.0 136.1L257.0 136.2Q257.0 138.4 258.2 139.7Q259.4 141.0 261.4 141.0L261.4 141.0Q262.8 141.0 263.8 140.5Q264.7 140.0 265.7 138.7L265.7 138.7Q266.2 138.1 266.9 138.1L266.9 138.1Q267.5 138.1 267.9 138.5Q268.3 138.9 268.3 139.5L268.3 139.5Q268.3 139.8 268.0 140.4L268.0 140.4Q267.2 142 265.5 142.9Q263.8 143.8 261.5 143.8ZM257.1 133.7L257.1 133.7L265.3 133.7Q265.2 131.8 264.1 130.6Q263.0 129.5 261.3 129.5L261.3 129.5Q259.5 129.5 258.3 130.6Q257.2 131.8 257.1 133.7ZM274.2 143.3Q273.7 143.8 273.0 143.8Q272.2 143.8 271.7 143.3Q271.3 142.8 271.3 142.0L271.3 142.0L271.3 128.5Q271.3 127.7 271.7 127.2Q272.2 126.7 272.9 126.7Q273.6 126.7 274.0 127.2Q274.5 127.7 274.5 128.5L274.5 128.5L274.5 129.8L274.6 129.8Q275.1 128.4 276.4 127.6Q277.6 126.8 279.2 126.8L279.2 126.8Q280.9 126.8 282.1 127.6Q283.3 128.4 283.8 130.0L283.8 130.0L283.9 130.0Q284.5 128.5 285.9 127.6Q287.3 126.8 289.0 126.8L289.0 126.8Q291.5 126.8 292.9 128.2Q294.4 129.7 294.4 132.2L294.4 132.2L294.4 142.0Q294.4 142.8 293.9 143.3Q293.5 143.8 292.7 143.8Q291.9 143.8 291.5 143.3Q291.0 142.8 291.0 142.0L291.0 142.0L291.0 133.0Q291.0 131.4 290.2 130.5Q289.4 129.6 287.9 129.6Q286.4 129.6 285.4 130.6Q284.5 131.6 284.5 133.2L284.5 133.2L284.5 142.0Q284.5 142.8 284.0 143.3Q283.6 143.8 282.8 143.8Q282.1 143.8 281.6 143.3Q281.2 142.8 281.2 142.0L281.2 142.0L281.2 132.7Q281.2 131.3 280.3 130.5Q279.5 129.6 278.1 129.6L278.1 129.6Q276.6 129.6 275.6 130.7Q274.6 131.7 274.6 133.3L274.6 133.3L274.6 142.0Q274.6 142.8 274.2 143.3ZM299.4 143.8L299.4 143.8Q298.7 143.8 298.2 143.3Q297.8 142.9 297.8 142.1L297.8 142.1L297.8 122.4Q297.8 121.6 298.3 121.1Q298.7 120.6 299.5 120.6Q300.2 120.6 300.7 121.1Q301.2 121.6 301.2 122.4L301.2 122.4L301.2 129.8L301.2 129.8Q302.0 128.4 303.3 127.6Q304.7 126.8 306.4 126.8L306.4 126.8Q309.5 126.8 311.4 129.1Q313.3 131.4 313.3 135.3L313.3 135.3Q313.3 139.2 311.4 141.5Q309.5 143.8 306.4 143.8L306.4 143.8Q304.6 143.8 303.3 142.9Q301.9 142.1 301.1 140.7L301.1 140.7L301.1 140.7L301.1 142.1Q301.1 142.9 300.6 143.3Q300.1 143.8 299.4 143.8ZM305.5 140.9L305.5 140.9Q307.5 140.9 308.7 139.4Q309.8 137.9 309.8 135.3L309.8 135.3Q309.8 132.7 308.6 131.1Q307.5 129.6 305.5 129.6L305.5 129.6Q303.6 129.6 302.4 131.2Q301.1 132.7 301.1 135.3L301.1 135.3Q301.1 137.8 302.4 139.3Q303.6 140.9 305.5 140.9ZM323.0 143.8L323.0 143.8Q319.3 143.8 317.2 141.5Q315.2 139.3 315.2 135.3L315.2 135.3Q315.2 131.4 317.2 129.1Q319.3 126.7 322.8 126.7L322.8 126.7Q326.1 126.7 328.1 128.9Q330.2 131 330.2 134.4L330.2 134.4Q330.2 135.2 329.7 135.6Q329.3 136.1 328.5 136.1L328.5 136.1L318.6 136.1L318.6 136.2Q318.6 138.4 319.7 139.7Q320.9 141.0 322.9 141.0L322.9 141.0Q324.3 141.0 325.3 140.5Q326.3 140.0 327.2 138.7L327.2 138.7Q327.7 138.1 328.4 138.1L328.4 138.1Q329 138.1 329.4 138.5Q329.8 138.9 329.8 139.5L329.8 139.5Q329.8 139.8 329.5 140.4L329.5 140.4Q328.7 142 327.0 142.9Q325.3 143.8 323.0 143.8ZM318.6 133.7L318.6 133.7L326.8 133.7Q326.7 131.8 325.6 130.6Q324.5 129.5 322.8 129.5L322.8 129.5Q321.0 129.5 319.9 130.6Q318.7 131.8 318.6 133.7ZM334.5 143.8L334.5 143.8Q333.7 143.8 333.2 143.3Q332.8 142.8 332.8 142.0L332.8 142.0L332.8 128.4Q332.8 127.7 333.2 127.2Q333.7 126.7 334.4 126.7L334.4 126.7Q335.1 126.7 335.5 127.2Q336.0 127.7 336.0 128.4L336.0 128.4L336.0 129.8L336.1 129.8Q336.4 128.5 337.4 127.6Q338.4 126.8 339.7 126.8L339.7 126.8Q340.6 126.8 341 127.2L341 127.2Q341.5 127.5 341.5 128.4L341.5 128.4Q341.5 129.1 341.0 129.5L341.0 129.5Q340.5 130.0 339.4 130.0L339.4 130.0Q337.8 130 337.0 131.0Q336.2 132.0 336.2 133.6L336.2 133.6L336.2 142.0Q336.2 142.8 335.7 143.3Q335.2 143.8 334.5 143.8Z M363.9 143.5L351.4 143.5Q350.7 143.5 350.2 143.1Q349.8 142.7 349.8 142L349.8 142Q349.8 141.5 350.0 141.1Q350.2 140.8 350.8 140.2L350.8 140.2L357.8 133.0Q360 130.8 360.7 129.6Q361.5 128.4 361.5 127.1L361.5 127.1Q361.5 125.5 360.3 124.4Q359.2 123.4 357.5 123.4L357.5 123.4Q354.2 123.4 353 126.7L353 126.7Q352.8 127.3 352.4 127.6Q352.0 127.9 351.4 127.9L351.4 127.9Q350.7 127.9 350.3 127.5Q349.9 127.0 349.9 126.4L349.9 126.4Q349.9 126 350.0 125.6L350.0 125.6Q350.2 124.7 350.7 123.8Q351.3 122.9 352.3 122.2Q353.2 121.4 354.6 121.0Q355.9 120.5 357.5 120.5L357.5 120.5Q360.8 120.5 362.8 122.3Q364.9 124.1 364.9 126.9L364.9 126.9Q364.9 128.8 363.9 130.5Q362.8 132.1 359.9 135.0L359.9 135.0L354.5 140.4L354.5 140.5L363.9 140.5Q364.6 140.5 365.0 140.9Q365.4 141.3 365.4 142L365.4 142Q365.4 142.7 365.0 143.1Q364.6 143.5 363.9 143.5L363.9 143.5ZM383.0 140.7Q380.7 143.9 376.6 143.9Q372.6 143.9 370.3 140.7Q368.0 137.6 368.0 132.2L368.0 132.2Q368.0 126.8 370.3 123.6Q372.6 120.5 376.6 120.5L376.6 120.5Q380.6 120.5 382.9 123.6Q385.2 126.8 385.2 132.2L385.2 132.2Q385.2 137.6 383.0 140.7ZM376.6 141.0L376.6 141.0Q379.0 141.0 380.4 138.6Q381.7 136.3 381.7 132.2L381.7 132.2Q381.7 128.1 380.4 125.8Q379.0 123.4 376.6 123.4Q374.2 123.4 372.9 125.8Q371.5 128.1 371.5 132.2L371.5 132.2Q371.5 136.3 372.9 138.6Q374.2 141.0 376.6 141.0ZM402.4 143.5L389.9 143.5Q389.2 143.5 388.7 143.1Q388.3 142.7 388.3 142L388.3 142Q388.3 141.5 388.5 141.1Q388.7 140.8 389.3 140.2L389.3 140.2L396.3 133.0Q398.5 130.8 399.2 129.6Q400.0 128.4 400.0 127.1L400.0 127.1Q400.0 125.5 398.8 124.4Q397.7 123.4 396.0 123.4L396.0 123.4Q392.7 123.4 391.5 126.7L391.5 126.7Q391.3 127.3 390.9 127.6Q390.5 127.9 389.9 127.9L389.9 127.9Q389.2 127.9 388.8 127.5Q388.4 127.0 388.4 126.4L388.4 126.4Q388.4 126 388.5 125.6L388.5 125.6Q388.7 124.7 389.2 123.8Q389.8 122.9 390.8 122.2Q391.7 121.4 393.1 121.0Q394.4 120.5 396.0 120.5L396.0 120.5Q399.3 120.5 401.3 122.3Q403.4 124.1 403.4 126.9L403.4 126.9Q403.4 128.8 402.4 130.5Q401.3 132.1 398.4 135.0L398.4 135.0L393.0 140.4L393.0 140.5L402.4 140.5Q403.1 140.5 403.5 140.9Q403.9 141.3 403.9 142L403.9 142Q403.9 142.7 403.5 143.1Q403.1 143.5 402.4 143.5L402.4 143.5ZM414.9 143.9L414.9 143.9Q412.4 143.9 410.4 142.8Q408.4 141.6 407.6 139.8L407.6 139.8Q407.2 139.0 407.2 138.2L407.2 138.2Q407.2 137.5 407.6 137.1Q408.0 136.7 408.8 136.7L408.8 136.7Q409.3 136.7 409.7 137.0Q410.1 137.2 410.3 137.8L410.3 137.8Q410.9 139.3 412.1 140.1Q413.3 141.0 415.0 141.0L415.0 141.0Q417.1 141.0 418.5 139.6Q419.8 138.3 419.8 136.1L419.8 136.1Q419.8 134.0 418.4 132.7Q417.1 131.4 415.0 131.4L415.0 131.4Q412.7 131.4 411.3 132.9L411.3 132.9Q410.6 133.6 410.2 133.9Q409.8 134.1 409.2 134.1L409.2 134.1Q408.4 134.1 407.9 133.6Q407.5 133.0 407.5 132.3L407.5 132.3L407.5 132.0L408.3 123.3Q408.4 122.0 409.0 121.5Q409.7 120.9 411.0 120.9L411.0 120.9L420.5 120.9Q421.3 120.9 421.7 121.3Q422.1 121.7 422.1 122.4Q422.1 123.1 421.7 123.5Q421.3 123.9 420.5 123.9L420.5 123.9L411.3 123.9L410.7 130.9L410.7 130.9Q411.5 129.8 412.8 129.2Q414.1 128.6 415.8 128.6L415.8 128.6Q419.1 128.6 421.1 130.7Q423.2 132.8 423.2 136.0L423.2 136.0Q423.2 139.5 420.9 141.7Q418.6 143.9 414.9 143.9Z " clip-path="url(#satori_cp-id-0)" mask="url(#satori_om-id-0)"/><mask id="satori_om-id-0-0-0-1"><rect x="72" y="175" width="1056" height="221" fill="#fff" mask="url(#satori_om-id-0)"/></mask><path fill="#0f172a" d="M93.7 235.1L93.7 235.1Q90.9 235.1 89.2 233.8Q87.5 232.6 86.4 229.7L86.4 229.7L73.9 196.0Q73.4 194.6 73.4 193.3L73.4 193.3Q73.4 191.3 74.8 190.1Q76.2 188.8 78.4 188.8L78.4 188.8Q82.1 188.8 83.2 192.6L83.2 192.6L93.8 224.8L94.0 224.8L104.5 192.5Q105.1 190.6 106.2 189.7Q107.3 188.8 109.2 188.8L109.2 188.8Q111.3 188.8 112.7 190.0Q114 191.2 114 193.2L114 193.2Q114 194.4 113.5 195.7L113.5 195.7L100.9 229.7Q99.9 232.6 98.2 233.8Q96.4 235.1 93.7 235.1ZM126.6 195.5Q125.2 196.9 123.1 196.9Q121.0 196.9 119.6 195.5Q118.2 194.1 118.2 192.2L118.2 192.2Q118.2 190.2 119.6 188.8Q121.0 187.5 123.1 187.5Q125.2 187.5 126.6 188.8Q128.0 190.2 128.0 192.2L128.0 192.2Q128.0 194.1 126.6 195.5ZM126.4 233.9Q125.2 235.2 123.1 235.2Q121.0 235.2 119.8 233.9Q118.5 232.7 118.5 230.5L118.5 230.5L118.5 205.1Q118.5 202.9 119.8 201.6Q121.0 200.4 123.1 200.4Q125.2 200.4 126.4 201.6Q127.7 202.9 127.7 205.1L127.7 205.1L127.7 230.5Q127.7 232.7 126.4 233.9ZM157.6 234.6L137 234.6Q135.2 234.6 134.1 233.6Q133.1 232.6 133.1 230.9L133.1 230.9Q133.1 229.3 134.3 227.8L134.3 227.8L149.8 208.2L149.8 208.0L136.6 208.0Q134.8 208.0 133.8 207.1Q132.9 206.2 132.9 204.5Q132.9 202.9 133.8 202.0Q134.8 201.1 136.6 201.1L136.6 201.1L156.1 201.1Q158.1 201.1 159.2 202.1Q160.4 203.2 160.4 205.1Q160.4 206.9 158.9 208.7L158.9 208.7L144.7 227.4L144.7 227.6L157.6 227.6Q159.3 227.6 160.3 228.5Q161.3 229.4 161.3 231.1Q161.3 232.7 160.3 233.6Q159.3 234.6 157.6 234.6L157.6 234.6ZM174.3 195.5Q172.8 196.9 170.8 196.9Q168.7 196.9 167.3 195.5Q165.9 194.1 165.9 192.2L165.9 192.2Q165.9 190.2 167.3 188.8Q168.7 187.5 170.8 187.5Q172.8 187.5 174.3 188.8Q175.7 190.2 175.7 192.2L175.7 192.2Q175.7 194.1 174.3 195.5ZM174.1 233.9Q172.9 235.2 170.8 235.2Q168.7 235.2 167.4 233.9Q166.2 232.7 166.2 230.5L166.2 230.5L166.2 205.1Q166.2 202.9 167.4 201.6Q168.7 200.4 170.8 200.4Q172.9 200.4 174.1 201.6Q175.3 202.9 175.3 205.1L175.3 205.1L175.3 230.5Q175.3 232.7 174.1 233.9ZM189.5 195.5Q188.1 196.9 186.1 196.9Q184 196.9 182.6 195.5Q181.2 194.1 181.2 192.2L181.2 192.2Q181.2 190.2 182.6 188.8Q184 187.5 186.1 187.5Q188.1 187.5 189.5 188.8Q190.9 190.2 190.9 192.2L190.9 192.2Q190.9 194.1 189.5 195.5ZM182.7 201.6Q184 200.4 186.1 200.4Q188.1 200.4 189.4 201.6Q190.6 202.9 190.6 205.1L190.6 205.1L190.6 236.5Q190.6 241.2 188.0 243.8Q185.5 246.4 181.0 246.4L181.0 246.4L180.9 246.4Q178.3 246.4 176.8 245.4Q175.3 244.4 175.3 242.6L175.3 242.6Q175.3 240.1 178.3 239.5L178.3 239.5L178.7 239.5Q180.2 239.2 180.8 238.4Q181.5 237.5 181.5 235.9L181.5 235.9L181.5 205.1Q181.5 202.9 182.7 201.6ZM206.3 211.1Q204.8 212.6 202.7 212.6Q200.6 212.6 199.1 211.1Q197.7 209.6 197.7 207.6L197.7 207.6Q197.7 205.4 199.1 204.0Q200.6 202.5 202.7 202.5Q204.8 202.5 206.3 204.0Q207.7 205.5 207.7 207.6Q207.7 209.6 206.3 211.1ZM206.3 233.5Q204.8 234.9 202.7 234.9Q200.6 234.9 199.1 233.5Q197.7 232.0 197.7 229.9Q197.7 227.8 199.1 226.3Q200.6 224.9 202.7 224.9Q204.8 224.9 206.3 226.3Q207.7 227.8 207.7 229.9Q207.7 232.0 206.3 233.5Z M244.5 235.3L244.5 235.3Q237.7 235.3 233.3 232.9Q228.8 230.5 227.4 226.6L227.4 226.6Q226.9 225.3 226.9 224.1L226.9 224.1Q226.9 222.2 228.0 221.1Q229.2 220.0 231.0 220.0L231.0 220.0Q232.5 220.0 233.5 220.6Q234.5 221.2 235.4 222.7L235.4 222.7Q236.4 225.2 238.9 226.5Q241.3 227.7 244.7 227.7L244.7 227.7Q248.5 227.7 250.8 226.1Q253.2 224.5 253.2 222.0L253.2 222.0Q253.2 219.7 251.4 218.4Q249.6 217.0 245.4 216.1L245.4 216.1L240.6 215.2Q227.2 212.6 227.2 202.4L227.2 202.4Q227.2 198.3 229.4 195.2Q231.6 192.1 235.5 190.4Q239.5 188.7 244.4 188.7L244.4 188.7Q250.7 188.7 255.0 191.1Q259.4 193.6 260.9 198.0L260.9 198.0Q261.3 199.0 261.3 200.1L261.3 200.1Q261.3 201.8 260.1 202.8Q259.0 203.9 257.2 203.9L257.2 203.9Q255.6 203.9 254.6 203.2Q253.5 202.6 252.7 201.1L252.7 201.1Q250.6 196.3 244.4 196.3L244.4 196.3Q240.9 196.3 238.8 197.8Q236.7 199.3 236.7 201.8L236.7 201.8Q236.7 203.9 238.5 205.2Q240.2 206.6 244.2 207.4L244.2 207.4L248.9 208.3Q256.1 209.8 259.4 212.8Q262.6 215.8 262.6 220.9L262.6 220.9Q262.6 227.6 257.8 231.4Q252.9 235.3 244.5 235.3ZM279.5 235.2L279.5 235.2Q274 235.2 270.7 231.8Q267.4 228.5 267.4 222.6L267.4 222.6L267.4 205.1Q267.4 202.9 268.7 201.6Q269.9 200.4 272 200.4Q274.1 200.4 275.3 201.6Q276.6 202.9 276.6 205.1L276.6 205.1L276.6 220.7Q276.6 224.1 278.2 225.8Q279.8 227.6 282.8 227.6Q285.8 227.6 287.6 225.6Q289.4 223.6 289.4 220.2L289.4 220.2L289.4 205.1Q289.4 202.9 290.7 201.6Q291.9 200.4 294.0 200.4Q296.0 200.4 297.3 201.6Q298.5 202.9 298.5 205.1L298.5 205.1L298.5 230.6Q298.5 232.8 297.3 234.0Q296.2 235.2 294.1 235.2Q292.1 235.2 290.9 234.0Q289.7 232.8 289.7 230.6L289.7 230.6L289.7 228.5L289.5 228.5Q286.9 235.2 279.5 235.2ZM312.3 245.3Q311.1 246.5 309.0 246.5Q307.0 246.5 305.7 245.3Q304.5 244.0 304.5 241.7L304.5 241.7L304.5 205.1Q304.5 202.8 305.7 201.6Q306.9 200.4 309.0 200.4Q311 200.4 312.2 201.6Q313.5 202.8 313.5 205.1L313.5 205.1L313.5 206.9L313.7 206.9Q315.0 203.9 317.7 202.2Q320.4 200.5 324.0 200.5L324.0 200.5Q330.4 200.5 334.1 205.1Q337.8 209.7 337.8 217.8L337.8 217.8Q337.8 225.9 334.1 230.5Q330.5 235.1 324.2 235.1L324.2 235.1Q320.6 235.1 317.9 233.4Q315.1 231.8 313.8 228.9L313.8 228.9L313.6 228.9L313.6 241.7Q313.6 244.0 312.3 245.3ZM321.0 227.7L321.0 227.7Q324.4 227.7 326.4 225.1Q328.4 222.4 328.4 217.8Q328.4 213.2 326.4 210.5Q324.4 207.8 321.0 207.8L321.0 207.8Q317.6 207.8 315.6 210.6Q313.6 213.3 313.6 217.8L313.6 217.8Q313.6 222.3 315.6 225.0Q317.6 227.7 321.0 227.7ZM350.3 245.3Q349.1 246.5 347 246.5Q344.9 246.5 343.7 245.3Q342.4 244.0 342.4 241.7L342.4 241.7L342.4 205.1Q342.4 202.8 343.7 201.6Q344.9 200.4 346.9 200.4Q349.0 200.4 350.2 201.6Q351.4 202.8 351.4 205.1L351.4 205.1L351.4 206.9L351.6 206.9Q353 203.9 355.7 202.2Q358.4 200.5 362 200.5L362 200.5Q368.4 200.5 372.0 205.1Q375.7 209.7 375.7 217.8L375.7 217.8Q375.7 225.9 372.1 230.5Q368.5 235.1 362.2 235.1L362.2 235.1Q358.6 235.1 355.8 233.4Q353.1 231.8 351.8 228.9L351.8 228.9L351.6 228.9L351.6 241.7Q351.6 244.0 350.3 245.3ZM358.9 227.7L358.9 227.7Q362.3 227.7 364.4 225.1Q366.4 222.4 366.4 217.8Q366.4 213.2 364.4 210.5Q362.3 207.8 358.9 207.8L358.9 207.8Q355.6 207.8 353.6 210.6Q351.5 213.3 351.5 217.8L351.5 217.8Q351.5 222.3 353.5 225.0Q355.6 227.7 358.9 227.7ZM407.9 230.6Q403.4 235.3 395.8 235.3Q388.1 235.3 383.7 230.6Q379.2 226.0 379.2 217.8L379.2 217.8Q379.2 209.7 383.7 205.0Q388.2 200.3 395.8 200.3L395.8 200.3Q403.4 200.3 407.9 205.0Q412.4 209.7 412.4 217.8L412.4 217.8Q412.4 226.0 407.9 230.6ZM395.8 228.3L395.8 228.3Q399.2 228.3 401.1 225.6Q403.1 222.8 403.1 217.8L403.1 217.8Q403.1 212.9 401.1 210.1Q399.2 207.3 395.8 207.3Q392.4 207.3 390.4 210.1Q388.4 212.9 388.4 217.8L388.4 217.8Q388.4 222.8 390.4 225.6Q392.4 228.3 395.8 228.3ZM421.6 235.2L421.6 235.2Q419.5 235.2 418.3 234.0Q417.1 232.7 417.1 230.5L417.1 230.5L417.1 205.0Q417.1 202.8 418.3 201.6Q419.5 200.4 421.5 200.4L421.5 200.4Q423.4 200.4 424.6 201.6Q425.8 202.8 425.8 205.0L425.8 205.0L425.8 207.1L426.0 207.1Q426.6 204.1 428.5 202.3Q430.4 200.5 432.9 200.5L432.9 200.5Q434.8 200.5 435.8 201.4L435.8 201.4Q437.1 202.4 437.1 204.7L437.1 204.7Q437.1 206.9 435.8 208.0L435.8 208.0Q434.4 209.2 431.8 209.2L431.8 209.2Q428.8 209.2 427.5 210.8Q426.2 212.5 426.2 215.6L426.2 215.6L426.2 230.5Q426.2 232.7 425.0 234.0Q423.8 235.2 421.6 235.2ZM442.8 226.0L442.8 226.0L442.8 207.9L441.0 207.9Q439.4 207.9 438.5 207.0Q437.5 206.1 437.5 204.5Q437.5 202.9 438.5 202.0Q439.4 201.1 441.0 201.1L441.0 201.1L442.8 201.1L442.8 197.3Q442.8 195.1 444 193.8Q445.2 192.6 447.3 192.6Q449.5 192.6 450.7 193.8Q451.9 195.1 451.9 197.3L451.9 197.3L451.9 201.1L455.1 201.1Q456.8 201.1 457.7 202.0Q458.6 202.9 458.6 204.5Q458.6 206.1 457.7 207.0Q456.8 207.9 455.1 207.9L455.1 207.9L451.9 207.9L451.9 224.0Q451.9 225.7 452.6 226.6Q453.2 227.4 454.7 227.5L454.7 227.5L455.3 227.6Q457.0 227.7 457.9 228.5Q458.8 229.3 458.8 230.9L458.8 230.9Q458.8 232.8 457 233.9Q455.3 234.9 452.3 234.9L452.3 234.9L452.0 234.9Q442.8 234.9 442.8 226.0ZM471.3 195.5Q469.9 196.9 467.8 196.9Q465.8 196.9 464.3 195.5Q462.9 194.1 462.9 192.2L462.9 192.2Q462.9 190.2 464.3 188.8Q465.8 187.5 467.8 187.5Q469.9 187.5 471.3 188.8Q472.7 190.2 472.7 192.2L472.7 192.2Q472.7 194.1 471.3 195.5ZM471.2 233.9Q469.9 235.2 467.8 235.2Q465.7 235.2 464.5 233.9Q463.3 232.7 463.3 230.5L463.3 230.5L463.3 205.1Q463.3 202.9 464.5 201.6Q465.7 200.4 467.8 200.4Q469.9 200.4 471.2 201.6Q472.4 202.9 472.4 205.1L472.4 205.1L472.4 230.5Q472.4 232.7 471.2 233.9ZM486.3 234.0Q485.1 235.2 483 235.2Q480.9 235.2 479.7 234.0Q478.4 232.7 478.4 230.5L478.4 230.5L478.4 205.0Q478.4 202.8 479.6 201.6Q480.8 200.4 482.8 200.4Q484.9 200.4 486.2 201.6Q487.4 202.9 487.4 205.0L487.4 205.0L487.4 206.9L487.6 206.9Q490.3 200.4 497.9 200.4L497.9 200.4Q503.5 200.4 506.5 203.7Q509.5 207.1 509.5 213.0L509.5 213.0L509.5 230.5Q509.5 232.7 508.3 234.0Q507.0 235.2 505.0 235.2Q502.9 235.2 501.7 234.0Q500.4 232.7 500.4 230.5L500.4 230.5L500.4 214.9Q500.4 211.6 498.8 209.8Q497.3 208.0 494.3 208.0Q491.2 208.0 489.4 210.0Q487.6 212.1 487.6 215.3L487.6 215.3L487.6 230.5Q487.6 232.7 486.3 234.0ZM530.3 247.1L530.3 247.1Q525.3 247.1 521.6 245.4Q517.9 243.7 516.2 241.0L516.2 241.0Q515.5 239.8 515.5 238.5L515.5 238.5Q515.5 237.0 516.5 236.1Q517.5 235.1 519.2 235.1L519.2 235.1Q520.9 235.1 522.4 236.4L522.4 236.4Q526.2 240.1 530.3 240.1L530.3 240.1Q534.0 240.1 536.1 238.2Q538.2 236.4 538.2 233.2L538.2 233.2L538.2 227.8L538 227.8Q536.8 230.6 534.0 232.2Q531.3 233.8 527.7 233.8L527.7 233.8Q521.4 233.8 517.8 229.4Q514.1 224.9 514.1 217.2L514.1 217.2Q514.1 209.4 517.7 204.9Q521.4 200.5 527.8 200.5L527.8 200.5Q531.4 200.5 534.0 202.2Q536.7 203.9 538.1 206.8L538.1 206.8L538.3 206.8L538.3 205.0Q538.3 202.7 539.5 201.6Q540.8 200.4 542.8 200.4L542.8 200.4Q544.9 200.4 546.1 201.6Q547.4 202.7 547.4 205.0L547.4 205.0L547.4 233.2Q547.4 239.8 542.9 243.5Q538.3 247.2 530.3 247.1ZM530.8 227.1L530.8 227.1Q534.2 227.1 536.3 224.5Q538.3 221.9 538.3 217.4Q538.3 212.8 536.3 210.1Q534.2 207.5 530.8 207.5L530.8 207.5Q527.4 207.5 525.4 210.1Q523.4 212.8 523.4 217.3L523.4 217.3Q523.4 221.9 525.4 224.5Q527.4 227.1 530.8 227.1Z M568.4 226.0L568.4 226.0L568.4 207.9L566.6 207.9Q565 207.9 564.0 207.0Q563.1 206.1 563.1 204.5Q563.1 202.9 564.0 202.0Q565 201.1 566.6 201.1L566.6 201.1L568.4 201.1L568.4 197.3Q568.4 195.1 569.6 193.8Q570.8 192.6 572.9 192.6Q575.1 192.6 576.3 193.8Q577.5 195.1 577.5 197.3L577.5 197.3L577.5 201.1L580.7 201.1Q582.3 201.1 583.3 202.0Q584.2 202.9 584.2 204.5Q584.2 206.1 583.3 207.0Q582.3 207.9 580.7 207.9L580.7 207.9L577.5 207.9L577.5 224.0Q577.5 225.7 578.2 226.6Q578.8 227.4 580.3 227.5L580.3 227.5L580.9 227.6Q582.6 227.7 583.5 228.5Q584.3 229.3 584.3 230.9L584.3 230.9Q584.3 232.8 582.6 233.9Q580.8 234.9 577.9 234.9L577.9 234.9L577.6 234.9Q568.4 234.9 568.4 226.0ZM596.8 234.0Q595.5 235.2 593.5 235.2Q591.4 235.2 590.2 234.0Q588.9 232.7 588.9 230.5L588.9 230.5L588.9 193.5Q588.9 191.3 590.1 190.0Q591.3 188.8 593.4 188.8L593.4 188.8Q595.5 188.8 596.7 190.0Q597.9 191.2 597.9 193.5L597.9 193.5L597.9 207.0L598.1 207.0Q599.4 203.8 602.1 202.1Q604.8 200.4 608.6 200.4L608.6 200.4Q614.1 200.4 617.2 203.8Q620.3 207.1 620.3 213.0L620.3 213.0L620.3 230.5Q620.3 232.7 619.0 234.0Q617.8 235.2 615.7 235.2Q613.7 235.2 612.4 234.0Q611.2 232.7 611.2 230.5L611.2 230.5L611.2 214.9Q611.2 211.6 609.5 209.8Q607.9 208.0 604.9 208.0L604.9 208.0Q601.7 208.0 599.9 210.0Q598.0 212.1 598.0 215.4L598.0 215.4L598.0 230.5Q598.0 232.7 596.8 234.0ZM641.5 235.3L641.5 235.3Q633.7 235.3 629.3 230.7Q624.9 226.1 624.9 218.0L624.9 218.0Q624.9 209.9 629.3 205.1Q633.6 200.3 641.1 200.3L641.1 200.3Q648.2 200.3 652.5 204.7Q656.9 209.1 656.9 215.9L656.9 215.9Q656.9 217.8 655.9 218.9Q654.9 219.9 653.0 219.9L653.0 219.9L633.8 219.9L633.8 220.3Q633.8 224.0 635.9 226.3Q638 228.5 641.5 228.5L641.5 228.5Q644.0 228.5 645.8 227.6Q647.6 226.7 649.5 224.5L649.5 224.5Q650.8 223.1 652.4 223.1L652.4 223.1Q654.0 223.1 655.0 224.1Q656 225.0 656 226.5L656 226.5Q656 227.6 655.4 228.7L655.4 228.7Q653.7 231.8 650.0 233.5Q646.3 235.3 641.5 235.3ZM633.9 214.3L633.9 214.3L648.2 214.3Q648.0 211.0 646.1 209.1Q644.2 207.1 641.2 207.1Q638.2 207.1 636.2 209.1Q634.2 211.1 633.9 214.3Z M686.7 235.1L686.7 235.1Q680.4 235.1 676.8 230.4Q673.1 225.8 673.1 217.7L673.1 217.7Q673.1 209.8 676.8 205.1Q680.5 200.5 686.8 200.5L686.8 200.5Q690.3 200.5 693.0 202.2Q695.8 204.0 697 206.8L697 206.8L697.2 206.8L697.2 193.6Q697.2 191.3 698.4 190.0Q699.7 188.8 701.8 188.8Q703.8 188.8 705.1 190.0Q706.3 191.3 706.3 193.6L706.3 193.6L706.3 230.6Q706.3 232.8 705.1 234.0Q703.8 235.2 701.8 235.2L701.8 235.2Q699.8 235.2 698.5 234.0Q697.2 232.8 697.2 230.6L697.2 230.6L697.2 228.6L697.0 228.6Q695.9 231.6 693.2 233.3Q690.5 235.1 686.7 235.1ZM689.8 227.7L689.8 227.7Q693.2 227.7 695.2 225.1Q697.3 222.4 697.3 217.8L697.3 217.8Q697.3 213.2 695.2 210.5Q693.2 207.8 689.8 207.8L689.8 207.8Q686.4 207.8 684.4 210.5Q682.4 213.2 682.4 217.8L682.4 217.8Q682.4 222.4 684.4 225.1Q686.4 227.7 689.8 227.7ZM727.8 235.3L727.8 235.3Q720.0 235.3 715.6 230.7Q711.2 226.1 711.2 218.0L711.2 218.0Q711.2 209.9 715.6 205.1Q719.9 200.3 727.4 200.3L727.4 200.3Q734.5 200.3 738.9 204.7Q743.3 209.1 743.3 215.9L743.3 215.9Q743.3 217.8 742.2 218.9Q741.2 219.9 739.3 219.9L739.3 219.9L720.2 219.9L720.2 220.3Q720.2 224.0 722.2 226.3Q724.3 228.5 727.8 228.5L727.8 228.5Q730.3 228.5 732.1 227.6Q733.9 226.7 735.8 224.5L735.8 224.5Q737.1 223.1 738.8 223.1L738.8 223.1Q740.3 223.1 741.3 224.1Q742.3 225.0 742.3 226.5L742.3 226.5Q742.3 227.6 741.7 228.7L741.7 228.7Q740.0 231.8 736.3 233.5Q732.7 235.3 727.8 235.3ZM720.3 214.3L720.3 214.3L734.5 214.3Q734.3 211.0 732.4 209.1Q730.5 207.1 727.5 207.1Q724.5 207.1 722.5 209.1Q720.5 211.1 720.3 214.3ZM761.6 235.3L761.6 235.3Q756.0 235.3 752.2 233.4Q748.4 231.6 747.2 228.6L747.2 228.6Q746.8 227.6 746.8 226.9L746.8 226.9Q746.8 225.3 747.9 224.4Q748.9 223.4 750.5 223.4L750.5 223.4Q752.7 223.4 754.5 225.5L754.5 225.5Q755.9 227.2 757.6 228.1Q759.3 228.9 761.8 228.9L761.8 228.9Q764.3 228.9 765.8 227.9Q767.3 226.9 767.3 225.3L767.3 225.3Q767.3 223.9 766.3 223.1Q765.3 222.3 762.8 221.8L762.8 221.8L757.2 220.6Q752.3 219.5 749.8 217.1Q747.3 214.6 747.3 210.9L747.3 210.9Q747.3 206.1 751.2 203.2Q755.1 200.3 761.6 200.3L761.6 200.3Q766.6 200.3 770.2 202.3Q773.8 204.3 774.7 207.3L774.7 207.3Q774.9 208.1 774.9 208.6L774.9 208.6Q774.9 210.1 774.0 210.9Q773.1 211.7 771.4 211.7L771.4 211.7Q769.3 211.7 768.1 210.3L768.1 210.3Q766.7 208.6 765.2 207.7Q763.7 206.7 761.4 206.7L761.4 206.7Q759.1 206.7 757.6 207.7Q756.2 208.7 756.2 210.4L756.2 210.4Q756.2 211.7 757.3 212.6Q758.3 213.5 760.8 214.0L760.8 214.0L766.3 215.2Q771.7 216.3 774.0 218.4Q776.4 220.6 776.4 224.3L776.4 224.3Q776.4 229.3 772.3 232.3Q768.3 235.3 761.6 235.3ZM789.1 195.5Q787.7 196.9 785.6 196.9Q783.6 196.9 782.2 195.5Q780.8 194.1 780.8 192.2L780.8 192.2Q780.8 190.2 782.2 188.8Q783.6 187.5 785.6 187.5Q787.7 187.5 789.1 188.8Q790.5 190.2 790.5 192.2L790.5 192.2Q790.5 194.1 789.1 195.5ZM789.0 233.9Q787.8 235.2 785.6 235.2Q783.5 235.2 782.3 233.9Q781.1 232.7 781.1 230.5L781.1 230.5L781.1 205.1Q781.1 202.9 782.3 201.6Q783.5 200.4 785.6 200.4Q787.8 200.4 789.0 201.6Q790.2 202.9 790.2 205.1L790.2 205.1L790.2 230.5Q790.2 232.7 789.0 233.9ZM811.2 247.1L811.2 247.1Q806.3 247.1 802.5 245.4Q798.8 243.7 797.1 241.0L797.1 241.0Q796.4 239.8 796.4 238.5L796.4 238.5Q796.4 237.0 797.5 236.1Q798.5 235.1 800.2 235.1L800.2 235.1Q801.9 235.1 803.3 236.4L803.3 236.4Q807.1 240.1 811.2 240.1L811.2 240.1Q814.9 240.1 817.0 238.2Q819.1 236.4 819.1 233.2L819.1 233.2L819.1 227.8L818.9 227.8Q817.8 230.6 815.0 232.2Q812.2 233.8 808.6 233.8L808.6 233.8Q802.4 233.8 798.7 229.4Q795.0 224.9 795.0 217.2L795.0 217.2Q795.0 209.4 798.7 204.9Q802.3 200.5 808.8 200.5L808.8 200.5Q812.3 200.5 815.0 202.2Q817.7 203.9 819 206.8L819 206.8L819.2 206.8L819.2 205.0Q819.2 202.7 820.5 201.6Q821.7 200.4 823.8 200.4L823.8 200.4Q825.8 200.4 827.1 201.6Q828.3 202.7 828.3 205.0L828.3 205.0L828.3 233.2Q828.3 239.8 823.8 243.5Q819.3 247.2 811.2 247.1ZM811.7 227.1L811.7 227.1Q815.2 227.1 817.2 224.5Q819.2 221.9 819.2 217.4Q819.2 212.8 817.2 210.1Q815.2 207.5 811.7 207.5L811.7 207.5Q808.3 207.5 806.4 210.1Q804.4 212.8 804.4 217.3L804.4 217.3Q804.4 221.9 806.3 224.5Q808.3 227.1 811.7 227.1ZM842.1 234.0Q840.8 235.2 838.8 235.2Q836.7 235.2 835.5 234.0Q834.2 232.7 834.2 230.5L834.2 230.5L834.2 205.0Q834.2 202.8 835.4 201.6Q836.6 200.4 838.6 200.4Q840.7 200.4 841.9 201.6Q843.2 202.9 843.2 205.0L843.2 205.0L843.2 206.9L843.4 206.9Q846.1 200.4 853.7 200.4L853.7 200.4Q859.3 200.4 862.3 203.7Q865.3 207.1 865.3 213.0L865.3 213.0L865.3 230.5Q865.3 232.7 864.1 234.0Q862.8 235.2 860.8 235.2Q858.7 235.2 857.4 234.0Q856.2 232.7 856.2 230.5L856.2 230.5L856.2 214.9Q856.2 211.6 854.6 209.8Q853.1 208.0 850.0 208.0Q847 208.0 845.2 210.0Q843.3 212.1 843.3 215.3L843.3 215.3L843.3 230.5Q843.3 232.7 842.1 234.0ZM877.2 226.2L877.2 226.2Q878.9 226.2 880 227.2Q881.1 228.1 881.1 229.8L881.1 229.8Q881.1 230.8 880.8 231.7L880.8 231.7L878.3 242.2Q878.0 243.8 877.1 244.5Q876.2 245.3 874.6 245.3Q873 245.3 872.1 244.3Q871.2 243.4 871.3 241.9L871.3 241.9Q871.3 241.6 871.3 241.4L871.3 241.4L872.9 230.0Q873.4 226.2 877.2 226.2Z M84.9 308.7L84.9 308.7Q80.0 308.7 76.8 305.8Q73.7 303.0 73.7 298.5L73.7 298.5Q73.7 294.0 77.0 291.4Q80.4 288.8 86.7 288.4L86.7 288.4L95.2 287.9L95.2 285.7Q95.2 283.4 93.6 282.1Q92.1 280.7 89.5 280.7L89.5 280.7Q87.4 280.7 86 281.5Q84.6 282.3 83.0 284.3L83.0 284.3Q81.5 286.0 79.4 286.0L79.4 286.0Q77.8 286.0 76.7 285.0Q75.6 284.0 75.6 282.5L75.6 282.5Q75.6 281.4 76.1 280.4L76.1 280.4Q77.2 277.4 81.0 275.7Q84.7 273.9 89.9 273.9L89.9 273.9Q96.4 273.9 100.3 277.0Q104.1 280.1 104.1 285.1L104.1 285.1L104.1 304.2Q104.1 306.4 102.9 307.6Q101.7 308.8 99.7 308.8L99.7 308.8Q97.8 308.8 96.6 307.8Q95.4 306.7 95.3 304.7L95.3 304.7L95.3 303.0L95.1 303.0Q93.8 305.6 90.9 307.2Q88.1 308.7 84.9 308.7ZM87.9 302.1L87.9 302.1Q90.9 302.1 93.0 300.3Q95.2 298.6 95.2 295.9L95.2 295.9L95.2 293.4L88.1 293.9Q85.5 294.1 84.1 295.1Q82.8 296.2 82.8 298.0L82.8 298.0Q82.8 299.9 84.2 301.0Q85.6 302.1 87.9 302.1ZM117.9 307.6Q116.6 308.8 114.6 308.8Q112.5 308.8 111.3 307.6Q110 306.3 110 304.1L110 304.1L110 278.6Q110 276.4 111.2 275.2Q112.3 274.0 114.4 274.0Q116.5 274.0 117.7 275.2Q119.0 276.5 119.0 278.6L119.0 278.6L119.0 280.5L119.2 280.5Q121.9 274.0 129.5 274.0L129.5 274.0Q135.0 274.0 138.1 277.3Q141.1 280.6 141.1 286.6L141.1 286.6L141.1 304.1Q141.1 306.3 139.8 307.6Q138.6 308.8 136.5 308.8Q134.5 308.8 133.2 307.6Q132.0 306.3 132.0 304.1L132.0 304.1L132.0 288.5Q132.0 285.1 130.4 283.4Q128.8 281.6 125.8 281.6Q122.8 281.6 121.0 283.6Q119.1 285.6 119.1 288.9L119.1 288.9L119.1 304.1Q119.1 306.3 117.9 307.6ZM155.1 269.1Q153.7 270.5 151.6 270.5Q149.5 270.5 148.1 269.1Q146.7 267.7 146.7 265.8L146.7 265.8Q146.7 263.8 148.1 262.4Q149.5 261.1 151.6 261.1Q153.7 261.1 155.1 262.4Q156.5 263.8 156.5 265.8L156.5 265.8Q156.5 267.7 155.1 269.1ZM154.9 307.5Q153.7 308.8 151.6 308.8Q149.5 308.8 148.3 307.5Q147.0 306.3 147.0 304.1L147.0 304.1L147.0 278.7Q147.0 276.5 148.3 275.2Q149.5 274.0 151.6 274.0Q153.7 274.0 154.9 275.2Q156.2 276.5 156.2 278.7L156.2 278.7L156.2 304.1Q156.2 306.3 154.9 307.5ZM166.8 308.8L166.8 308.8Q164.7 308.8 163.5 307.6Q162.2 306.3 162.2 304.1L162.2 304.1L162.2 278.6Q162.2 276.4 163.4 275.2Q164.6 274.0 166.6 274.0Q168.6 274.0 169.8 275.2Q171.0 276.4 171.0 278.6L171.0 278.6L171.0 280.7L171.2 280.7Q172.3 277.6 174.8 275.8Q177.4 274.0 180.8 274.0L180.8 274.0Q184.4 274.0 186.8 275.8Q189.3 277.6 190.1 280.9L190.1 280.9L190.3 280.9Q191.4 277.7 194.2 275.9Q197.0 274.0 200.7 274.0L200.7 274.0Q205.7 274.0 208.7 277.1Q211.7 280.2 211.7 285.3L211.7 285.3L211.7 304.1Q211.7 306.3 210.4 307.6Q209.2 308.8 207.1 308.8L207.1 308.8Q205.0 308.8 203.8 307.6Q202.6 306.3 202.6 304.1L202.6 304.1L202.6 287.6Q202.6 284.6 201.2 283.1Q199.8 281.6 197.1 281.6L197.1 281.6Q194.5 281.6 192.9 283.3Q191.3 285.0 191.3 287.8L191.3 287.8L191.3 304.1Q191.3 306.3 190.2 307.6Q189 308.8 186.9 308.8L186.9 308.8Q184.9 308.8 183.7 307.6Q182.6 306.3 182.6 304.1L182.6 304.1L182.6 287.3Q182.6 284.6 181.1 283.1Q179.7 281.6 177.2 281.6L177.2 281.6Q174.6 281.6 173.0 283.3Q171.3 285.1 171.3 287.9L171.3 287.9L171.3 304.1Q171.3 306.3 170.1 307.6Q168.8 308.8 166.8 308.8ZM227.4 308.7L227.4 308.7Q222.5 308.7 219.3 305.8Q216.2 303.0 216.2 298.5L216.2 298.5Q216.2 294.0 219.5 291.4Q222.9 288.8 229.2 288.4L229.2 288.4L237.7 287.9L237.7 285.7Q237.7 283.4 236.1 282.1Q234.6 280.7 232.0 280.7L232.0 280.7Q229.9 280.7 228.5 281.5Q227.1 282.3 225.5 284.3L225.5 284.3Q224.0 286.0 221.9 286.0L221.9 286.0Q220.3 286.0 219.2 285.0Q218.1 284.0 218.1 282.5L218.1 282.5Q218.1 281.4 218.6 280.4L218.6 280.4Q219.7 277.4 223.5 275.7Q227.2 273.9 232.4 273.9L232.4 273.9Q238.9 273.9 242.8 277.0Q246.6 280.1 246.6 285.1L246.6 285.1L246.6 304.2Q246.6 306.4 245.4 307.6Q244.2 308.8 242.2 308.8L242.2 308.8Q240.3 308.8 239.1 307.8Q237.9 306.7 237.8 304.7L237.8 304.7L237.8 303.0L237.6 303.0Q236.3 305.6 233.4 307.2Q230.6 308.7 227.4 308.7ZM230.4 302.1L230.4 302.1Q233.4 302.1 235.5 300.3Q237.7 298.6 237.7 295.9L237.7 295.9L237.7 293.4L230.6 293.9Q228.0 294.1 226.6 295.1Q225.3 296.2 225.3 298.0L225.3 298.0Q225.3 299.9 226.7 301.0Q228.1 302.1 230.4 302.1ZM254.9 299.6L254.9 299.6L254.9 281.5L253.2 281.5Q251.6 281.5 250.6 280.6Q249.7 279.7 249.7 278.1Q249.7 276.5 250.6 275.6Q251.6 274.6 253.2 274.6L253.2 274.6L254.9 274.6L254.9 270.9Q254.9 268.7 256.2 267.4Q257.4 266.2 259.5 266.2Q261.6 266.2 262.8 267.4Q264.1 268.7 264.1 270.9L264.1 270.9L264.1 274.6L267.3 274.6Q268.9 274.6 269.8 275.6Q270.8 276.5 270.8 278.1Q270.8 279.6 269.8 280.6Q268.9 281.5 267.3 281.5L267.3 281.5L264.1 281.5L264.1 297.6Q264.1 299.3 264.7 300.1Q265.4 301.0 266.8 301.1L266.8 301.1L267.4 301.1Q269.2 301.3 270.0 302.1Q270.9 302.9 270.9 304.5L270.9 304.5Q270.9 306.4 269.2 307.5Q267.4 308.5 264.4 308.5L264.4 308.5L264.1 308.5Q254.9 308.5 254.9 299.6ZM283.4 269.1Q282.0 270.5 280.0 270.5Q277.9 270.5 276.5 269.1Q275.1 267.7 275.1 265.8L275.1 265.8Q275.1 263.8 276.5 262.4Q277.9 261.1 280.0 261.1Q282.0 261.1 283.4 262.4Q284.8 263.8 284.8 265.8L284.8 265.8Q284.8 267.7 283.4 269.1ZM283.3 307.5Q282.1 308.8 280.0 308.8Q277.8 308.8 276.6 307.5Q275.4 306.3 275.4 304.1L275.4 304.1L275.4 278.7Q275.4 276.5 276.6 275.2Q277.8 274.0 280.0 274.0Q282.1 274.0 283.3 275.2Q284.5 276.5 284.5 278.7L284.5 278.7L284.5 304.1Q284.5 306.3 283.3 307.5ZM318.1 304.2Q313.6 308.9 306.0 308.9Q298.3 308.9 293.8 304.2Q289.4 299.6 289.4 291.4L289.4 291.4Q289.4 283.3 293.9 278.6Q298.4 273.9 306.0 273.9L306.0 273.9Q313.6 273.9 318.1 278.6Q322.6 283.3 322.6 291.4L322.6 291.4Q322.6 299.6 318.1 304.2ZM306.0 301.9L306.0 301.9Q309.3 301.9 311.3 299.1Q313.3 296.4 313.3 291.4L313.3 291.4Q313.3 286.5 311.3 283.7Q309.3 280.9 306.0 280.9Q302.6 280.9 300.6 283.7Q298.6 286.5 298.6 291.4L298.6 291.4Q298.6 296.4 300.6 299.1Q302.6 301.9 306.0 301.9ZM335.1 307.6Q333.9 308.8 331.8 308.8Q329.8 308.8 328.5 307.6Q327.3 306.3 327.3 304.1L327.3 304.1L327.3 278.6Q327.3 276.4 328.4 275.2Q329.6 274.0 331.7 274.0Q333.7 274.0 335.0 275.2Q336.2 276.5 336.2 278.6L336.2 278.6L336.2 280.5L336.4 280.5Q339.2 274.0 346.7 274.0L346.7 274.0Q352.3 274.0 355.3 277.3Q358.3 280.6 358.3 286.6L358.3 286.6L358.3 304.1Q358.3 306.3 357.1 307.6Q355.8 308.8 353.8 308.8Q351.7 308.8 350.5 307.6Q349.2 306.3 349.2 304.1L349.2 304.1L349.2 288.5Q349.2 285.1 347.7 283.4Q346.1 281.6 343.1 281.6Q340.0 281.6 338.2 283.6Q336.4 285.6 336.4 288.9L336.4 288.9L336.4 304.1Q336.4 306.3 335.1 307.6ZM370.2 299.8L370.2 299.8Q372.0 299.8 373.0 300.8Q374.1 301.7 374.1 303.4L374.1 303.4Q374.1 304.4 373.9 305.3L373.9 305.3L371.3 315.8Q371 317.4 370.1 318.1Q369.2 318.9 367.6 318.9Q366.0 318.9 365.1 317.9Q364.3 317.0 364.3 315.5L364.3 315.5Q364.3 315.2 364.4 315.0L364.4 315.0L366.0 303.6Q366.4 299.8 370.2 299.8Z M404.5 308.7L404.5 308.7Q399.6 308.7 396.4 305.8Q393.3 303.0 393.3 298.5L393.3 298.5Q393.3 294.0 396.6 291.4Q400 288.8 406.3 288.4L406.3 288.4L414.8 287.9L414.8 285.7Q414.8 283.4 413.2 282.1Q411.7 280.7 409.1 280.7L409.1 280.7Q407.0 280.7 405.6 281.5Q404.2 282.3 402.6 284.3L402.6 284.3Q401.1 286.0 399 286.0L399 286.0Q397.3 286.0 396.3 285.0Q395.2 284.0 395.2 282.5L395.2 282.5Q395.2 281.4 395.7 280.4L395.7 280.4Q396.8 277.4 400.6 275.7Q404.3 273.9 409.5 273.9L409.5 273.9Q416.0 273.9 419.8 277.0Q423.7 280.1 423.7 285.1L423.7 285.1L423.7 304.2Q423.7 306.4 422.5 307.6Q421.3 308.8 419.3 308.8L419.3 308.8Q417.4 308.8 416.2 307.8Q415.0 306.7 414.9 304.7L414.9 304.7L414.9 303.0L414.7 303.0Q413.3 305.6 410.5 307.2Q407.7 308.7 404.5 308.7ZM407.5 302.1L407.5 302.1Q410.5 302.1 412.6 300.3Q414.8 298.6 414.8 295.9L414.8 295.9L414.8 293.4L407.7 293.9Q405.1 294.1 403.7 295.1Q402.3 296.2 402.3 298.0L402.3 298.0Q402.3 299.9 403.8 301.0Q405.2 302.1 407.5 302.1ZM437.5 307.6Q436.2 308.8 434.2 308.8Q432.1 308.8 430.8 307.6Q429.6 306.3 429.6 304.1L429.6 304.1L429.6 278.6Q429.6 276.4 430.8 275.2Q431.9 274.0 434 274.0Q436.1 274.0 437.3 275.2Q438.6 276.5 438.6 278.6L438.6 278.6L438.6 280.5L438.8 280.5Q441.5 274.0 449.1 274.0L449.1 274.0Q454.6 274.0 457.7 277.3Q460.7 280.6 460.7 286.6L460.7 286.6L460.7 304.1Q460.7 306.3 459.4 307.6Q458.2 308.8 456.1 308.8Q454.1 308.8 452.8 307.6Q451.6 306.3 451.6 304.1L451.6 304.1L451.6 288.5Q451.6 285.1 450 283.4Q448.4 281.6 445.4 281.6Q442.4 281.6 440.5 283.6Q438.7 285.6 438.7 288.9L438.7 288.9L438.7 304.1Q438.7 306.3 437.5 307.6ZM478.9 308.7L478.9 308.7Q472.6 308.7 468.9 304.0Q465.3 299.4 465.3 291.3L465.3 291.3Q465.3 283.4 469.0 278.7Q472.7 274.1 479.0 274.1L479.0 274.1Q482.5 274.1 485.2 275.8Q487.9 277.6 489.2 280.4L489.2 280.4L489.4 280.4L489.4 267.1Q489.4 264.9 490.6 263.6Q491.9 262.4 493.9 262.4Q496 262.4 497.3 263.6Q498.5 264.9 498.5 267.1L498.5 267.1L498.5 304.2Q498.5 306.4 497.3 307.6Q496.0 308.8 494.0 308.8L494.0 308.8Q491.9 308.8 490.7 307.6Q489.4 306.4 489.4 304.2L489.4 304.2L489.4 302.2L489.2 302.2Q488.1 305.1 485.4 306.9Q482.7 308.7 478.9 308.7ZM482 301.3L482 301.3Q485.4 301.3 487.4 298.7Q489.4 296.0 489.4 291.4L489.4 291.4Q489.4 286.8 487.4 284.1Q485.4 281.4 482 281.4L482 281.4Q478.6 281.4 476.6 284.1Q474.6 286.8 474.6 291.4L474.6 291.4Q474.6 296.0 476.6 298.7Q478.6 301.3 482 301.3Z M529.7 308.7L529.7 308.7Q523.4 308.7 519.7 304.0Q516.0 299.4 516.0 291.3L516.0 291.3Q516.0 283.4 519.7 278.7Q523.4 274.1 529.8 274.1L529.8 274.1Q533.3 274.1 536.0 275.8Q538.7 277.6 540.0 280.4L540.0 280.4L540.2 280.4L540.2 267.1Q540.2 264.9 541.4 263.6Q542.7 262.4 544.7 262.4Q546.8 262.4 548.0 263.6Q549.3 264.9 549.3 267.1L549.3 267.1L549.3 304.2Q549.3 306.4 548.0 307.6Q546.8 308.8 544.8 308.8L544.8 308.8Q542.7 308.8 541.4 307.6Q540.2 306.4 540.2 304.2L540.2 304.2L540.2 302.2L540 302.2Q538.9 305.1 536.2 306.9Q533.4 308.7 529.7 308.7ZM532.8 301.3L532.8 301.3Q536.2 301.3 538.2 298.7Q540.2 296.0 540.2 291.4L540.2 291.4Q540.2 286.8 538.2 284.1Q536.2 281.4 532.8 281.4L532.8 281.4Q529.3 281.4 527.4 284.1Q525.4 286.8 525.4 291.4L525.4 291.4Q525.4 296.0 527.4 298.7Q529.3 301.3 532.8 301.3ZM570.8 308.9L570.8 308.9Q562.9 308.9 558.5 304.3Q554.2 299.7 554.2 291.6L554.2 291.6Q554.2 283.5 558.5 278.7Q562.9 273.9 570.3 273.9L570.3 273.9Q577.4 273.9 581.8 278.3Q586.2 282.6 586.2 289.5L586.2 289.5Q586.2 291.4 585.2 292.5Q584.2 293.5 582.3 293.5L582.3 293.5L563.1 293.5L563.1 293.9Q563.1 297.6 565.2 299.9Q567.3 302.1 570.8 302.1L570.8 302.1Q573.3 302.1 575.1 301.2Q576.9 300.3 578.8 298.1L578.8 298.1Q580.1 296.7 581.7 296.7L581.7 296.7Q583.3 296.7 584.3 297.6Q585.3 298.6 585.3 300.1L585.3 300.1Q585.3 301.1 584.7 302.3L584.7 302.3Q583 305.4 579.3 307.1Q575.6 308.9 570.8 308.9ZM563.2 287.9L563.2 287.9L577.4 287.9Q577.3 284.6 575.4 282.6Q573.4 280.7 570.4 280.7Q567.4 280.7 565.5 282.7Q563.5 284.7 563.2 287.9ZM598.8 318.9Q597.5 320.1 595.5 320.1Q593.4 320.1 592.2 318.9Q590.9 317.6 590.9 315.3L590.9 315.3L590.9 278.6Q590.9 276.4 592.1 275.2Q593.4 274.0 595.4 274.0Q597.4 274.0 598.7 275.2Q599.9 276.4 599.9 278.7L599.9 278.7L599.9 280.5L600.1 280.5Q601.5 277.5 604.2 275.8Q606.9 274.1 610.5 274.1L610.5 274.1Q616.8 274.1 620.5 278.7Q624.2 283.3 624.2 291.4L624.2 291.4Q624.2 299.5 620.6 304.1Q616.9 308.7 610.6 308.7L610.6 308.7Q607.0 308.7 604.3 307.0Q601.6 305.4 600.2 302.5L600.2 302.5L600.0 302.5L600.0 315.3Q600.0 317.6 598.8 318.9ZM607.4 301.3L607.4 301.3Q610.8 301.3 612.8 298.6Q614.8 296.0 614.8 291.4Q614.8 286.8 612.8 284.1Q610.8 281.4 607.4 281.4L607.4 281.4Q604.1 281.4 602.0 284.2Q600 286.9 600 291.4L600 291.4Q600 295.9 602.0 298.6Q604.0 301.3 607.4 301.3ZM637.0 307.6Q635.7 308.8 633.7 308.8Q631.6 308.8 630.3 307.6Q629.1 306.3 629.1 304.1L629.1 304.1L629.1 267.1Q629.1 264.9 630.3 263.6Q631.6 262.4 633.7 262.4Q635.7 262.4 637.0 263.6Q638.2 264.9 638.2 267.1L638.2 267.1L638.2 304.1Q638.2 306.3 637.0 307.6ZM671.9 304.2Q667.4 308.9 659.8 308.9Q652.1 308.9 647.6 304.2Q643.2 299.6 643.2 291.4L643.2 291.4Q643.2 283.3 647.7 278.6Q652.2 273.9 659.8 273.9L659.8 273.9Q667.3 273.9 671.8 278.6Q676.3 283.3 676.3 291.4L676.3 291.4Q676.3 299.6 671.9 304.2ZM659.8 301.9L659.8 301.9Q663.1 301.9 665.1 299.1Q667.1 296.4 667.1 291.4L667.1 291.4Q667.1 286.5 665.1 283.7Q663.1 280.9 659.8 280.9Q656.4 280.9 654.4 283.7Q652.4 286.5 652.4 291.4L652.4 291.4Q652.4 296.4 654.4 299.1Q656.3 301.9 659.8 301.9ZM686.7 320.6L686.7 320.6Q683.7 320.6 682.1 319.4Q680.6 318.3 680.6 316.3L680.6 316.3Q680.6 314.9 681.5 314.1Q682.4 313.3 683.9 313.3L683.9 313.3Q684.2 313.3 684.7 313.3Q685.2 313.3 685.5 313.3L685.5 313.3Q688.5 313.3 689.9 310.3L689.9 310.3L690.4 309.1L679.7 280.9Q679.2 279.5 679.2 278.2L679.2 278.2Q679.2 276.4 680.5 275.2Q681.8 274.0 683.9 274.0L683.9 274.0Q685.7 274.0 686.7 274.8Q687.7 275.6 688.3 277.6L688.3 277.6L695.6 300.8L695.7 300.8L703 277.6Q703.6 275.7 704.6 274.8Q705.7 274.0 707.4 274.0L707.4 274.0Q709.4 274.0 710.6 275.1Q711.8 276.3 711.8 278.1L711.8 278.1Q711.8 279.4 711.3 280.8L711.3 280.8L701.1 308.7Q698.7 315.2 695.5 317.9Q692.2 320.6 686.7 320.6ZM720.3 308.8L720.3 308.8Q718.3 308.8 717.0 307.6Q715.8 306.3 715.8 304.1L715.8 304.1L715.8 278.6Q715.8 276.4 717.0 275.2Q718.2 274.0 720.2 274.0Q722.2 274.0 723.4 275.2Q724.6 276.4 724.6 278.6L724.6 278.6L724.6 280.7L724.8 280.7Q725.8 277.6 728.4 275.8Q731.0 274.0 734.3 274.0L734.3 274.0Q738.0 274.0 740.4 275.8Q742.8 277.6 743.7 280.9L743.7 280.9L743.9 280.9Q745 277.7 747.8 275.9Q750.6 274.0 754.3 274.0L754.3 274.0Q759.2 274.0 762.2 277.1Q765.3 280.2 765.3 285.3L765.3 285.3L765.3 304.1Q765.3 306.3 764 307.6Q762.8 308.8 760.7 308.8L760.7 308.8Q758.6 308.8 757.4 307.6Q756.1 306.3 756.1 304.1L756.1 304.1L756.1 287.6Q756.1 284.6 754.7 283.1Q753.3 281.6 750.7 281.6L750.7 281.6Q748.1 281.6 746.5 283.3Q744.9 285.0 744.9 287.8L744.9 287.8L744.9 304.1Q744.9 306.3 743.7 307.6Q742.6 308.8 740.5 308.8L740.5 308.8Q738.5 308.8 737.3 307.6Q736.1 306.3 736.1 304.1L736.1 304.1L736.1 287.3Q736.1 284.6 734.7 283.1Q733.3 281.6 730.7 281.6L730.7 281.6Q728.1 281.6 726.5 283.3Q724.9 285.1 724.9 287.9L724.9 287.9L724.9 304.1Q724.9 306.3 723.7 307.6Q722.4 308.8 720.3 308.8ZM786.4 308.9L786.4 308.9Q778.6 308.9 774.2 304.3Q769.8 299.7 769.8 291.6L769.8 291.6Q769.8 283.5 774.2 278.7Q778.6 273.9 786 273.9L786 273.9Q793.1 273.9 797.5 278.3Q801.9 282.6 801.9 289.5L801.9 289.5Q801.9 291.4 800.8 292.5Q799.8 293.5 797.9 293.5L797.9 293.5L778.8 293.5L778.8 293.9Q778.8 297.6 780.9 299.9Q782.9 302.1 786.4 302.1L786.4 302.1Q788.9 302.1 790.7 301.2Q792.6 300.3 794.4 298.1L794.4 298.1Q795.7 296.7 797.4 296.7L797.4 296.7Q798.9 296.7 799.9 297.6Q800.9 298.6 800.9 300.1L800.9 300.1Q800.9 301.1 800.3 302.3L800.3 302.3Q798.7 305.4 795.0 307.1Q791.3 308.9 786.4 308.9ZM778.9 287.9L778.9 287.9L793.1 287.9Q793.0 284.6 791.0 282.6Q789.1 280.7 786.1 280.7Q783.1 280.7 781.1 282.7Q779.1 284.7 778.9 287.9ZM814.4 307.6Q813.2 308.8 811.1 308.8Q809.1 308.8 807.8 307.6Q806.6 306.3 806.6 304.1L806.6 304.1L806.6 278.6Q806.6 276.4 807.7 275.2Q808.9 274.0 811.0 274.0Q813.0 274.0 814.3 275.2Q815.5 276.5 815.5 278.6L815.5 278.6L815.5 280.5L815.7 280.5Q818.5 274.0 826.0 274.0L826.0 274.0Q831.6 274.0 834.6 277.3Q837.7 280.6 837.7 286.6L837.7 286.6L837.7 304.1Q837.7 306.3 836.4 307.6Q835.2 308.8 833.1 308.8Q831.0 308.8 829.8 307.6Q828.5 306.3 828.5 304.1L828.5 304.1L828.5 288.5Q828.5 285.1 827.0 283.4Q825.4 281.6 822.4 281.6Q819.3 281.6 817.5 283.6Q815.7 285.6 815.7 288.9L815.7 288.9L815.7 304.1Q815.7 306.3 814.4 307.6ZM845.9 299.6L845.9 299.6L845.9 281.5L844.1 281.5Q842.5 281.5 841.5 280.6Q840.6 279.7 840.6 278.1Q840.6 276.5 841.5 275.6Q842.5 274.6 844.1 274.6L844.1 274.6L845.9 274.6L845.9 270.9Q845.9 268.7 847.1 267.4Q848.3 266.2 850.4 266.2Q852.6 266.2 853.8 267.4Q855 268.7 855 270.9L855 270.9L855 274.6L858.2 274.6Q859.8 274.6 860.8 275.6Q861.7 276.5 861.7 278.1Q861.7 279.6 860.8 280.6Q859.8 281.5 858.2 281.5L858.2 281.5L855 281.5L855 297.6Q855 299.3 855.7 300.1Q856.3 301.0 857.8 301.1L857.8 301.1L858.4 301.1Q860.1 301.3 861.0 302.1Q861.8 302.9 861.8 304.5L861.8 304.5Q861.8 306.4 860.1 307.5Q858.3 308.5 855.4 308.5L855.4 308.5L855.1 308.5Q845.9 308.5 845.9 299.6Z M906.3 304.2Q901.9 308.9 894.2 308.9Q886.6 308.9 882.1 304.2Q877.6 299.6 877.6 291.4L877.6 291.4Q877.6 283.3 882.1 278.6Q886.7 273.9 894.2 273.9L894.2 273.9Q901.8 273.9 906.3 278.6Q910.8 283.3 910.8 291.4L910.8 291.4Q910.8 299.6 906.3 304.2ZM894.2 301.9L894.2 301.9Q897.6 301.9 899.6 299.1Q901.5 296.4 901.5 291.4L901.5 291.4Q901.5 286.5 899.6 283.7Q897.6 280.9 894.2 280.9Q890.8 280.9 888.9 283.7Q886.9 286.5 886.9 291.4L886.9 291.4Q886.9 296.4 888.8 299.1Q890.8 301.9 894.2 301.9ZM925.8 307.6Q924.6 308.8 922.5 308.8Q920.4 308.8 919.2 307.6Q917.9 306.4 917.9 304.1L917.9 304.1L917.9 281.5L916.2 281.5Q914.7 281.5 913.8 280.6Q912.8 279.7 912.8 278.1Q912.8 276.6 913.8 275.7Q914.7 274.8 916.2 274.8L916.2 274.8L917.9 274.8L917.9 272.3Q917.9 267.4 920.3 265.0Q922.7 262.7 927.5 262.6L927.5 262.6Q931 262.6 932.7 263.6Q934.4 264.6 934.4 266.3L934.4 266.3Q934.4 268.2 932.5 268.7L932.5 268.7Q931.7 269.0 930.8 269.0L930.8 269.0Q928.7 269.1 927.8 269.9Q926.8 270.8 926.8 272.7L926.8 272.7L926.8 274.8L930.7 274.8Q932.2 274.8 933.1 275.7Q934.0 276.6 934.0 278.1Q934.0 279.7 933.1 280.6Q932.2 281.5 930.7 281.5L930.7 281.5L927.1 281.5L927.1 304.1Q927.1 306.4 925.8 307.6Z M79.5 382.4L79.5 382.4Q77.4 382.4 76.2 381.2Q75.0 379.9 75.0 377.7L75.0 377.7L75.0 352.2Q75.0 350 76.2 348.8Q77.4 347.6 79.4 347.6L79.4 347.6Q81.3 347.6 82.5 348.8Q83.7 350 83.7 352.2L83.7 352.2L83.7 354.3L83.9 354.3Q84.5 351.3 86.4 349.5Q88.3 347.7 90.8 347.7L90.8 347.7Q92.7 347.7 93.7 348.6L93.7 348.6Q95 349.6 95 351.9L95 351.9Q95 354.1 93.7 355.2L93.7 355.2Q92.3 356.4 89.7 356.4L89.7 356.4Q86.7 356.4 85.4 358.0Q84.1 359.7 84.1 362.8L84.1 362.8L84.1 377.7Q84.1 379.9 82.9 381.2Q81.7 382.4 79.5 382.4ZM113.7 382.5L113.7 382.5Q105.8 382.5 101.4 377.9Q97.0 373.3 97.0 365.2L97.0 365.2Q97.0 357.1 101.4 352.3Q105.8 347.5 113.2 347.5L113.2 347.5Q120.3 347.5 124.7 351.9Q129.1 356.3 129.1 363.1L129.1 363.1Q129.1 365.0 128.1 366.1Q127.0 367.1 125.1 367.1L125.1 367.1L106 367.1L106 367.5Q106 371.2 108.1 373.5Q110.2 375.7 113.6 375.7L113.6 375.7Q116.1 375.7 118.0 374.8Q119.8 373.9 121.6 371.7L121.6 371.7Q122.9 370.3 124.6 370.3L124.6 370.3Q126.1 370.3 127.1 371.3Q128.2 372.2 128.2 373.7L128.2 373.7Q128.2 374.8 127.5 375.9L127.5 375.9Q125.9 379 122.2 380.7Q118.5 382.5 113.7 382.5ZM106.1 361.5L106.1 361.5L120.3 361.5Q120.2 358.2 118.3 356.3Q116.3 354.3 113.3 354.3Q110.3 354.3 108.3 356.3Q106.3 358.3 106.1 361.5ZM141.7 381.2Q140.4 382.4 138.3 382.4Q136.3 382.4 135.0 381.2Q133.8 379.9 133.8 377.7L133.8 377.7L133.8 352.2Q133.8 350.0 135.0 348.8Q136.1 347.6 138.2 347.6Q140.3 347.6 141.5 348.8Q142.8 350.1 142.8 352.2L142.8 352.2L142.8 354.1L142.9 354.1Q145.7 347.6 153.3 347.6L153.3 347.6Q158.8 347.6 161.8 350.9Q164.9 354.3 164.9 360.2L164.9 360.2L164.9 377.7Q164.9 379.9 163.6 381.2Q162.4 382.4 160.3 382.4Q158.3 382.4 157 381.2Q155.8 379.9 155.8 377.7L155.8 377.7L155.8 362.1Q155.8 358.8 154.2 357.0Q152.6 355.2 149.6 355.2Q146.6 355.2 144.7 357.2Q142.9 359.3 142.9 362.5L142.9 362.5L142.9 377.7Q142.9 379.9 141.7 381.2ZM183.1 382.3L183.1 382.3Q176.8 382.3 173.1 377.6Q169.4 373.0 169.4 364.9L169.4 364.9Q169.4 357.0 173.1 352.3Q176.8 347.7 183.2 347.7L183.2 347.7Q186.7 347.7 189.4 349.4Q192.1 351.2 193.4 354L193.4 354L193.6 354L193.6 340.8Q193.6 338.5 194.8 337.2Q196.1 336.0 198.1 336.0Q200.2 336.0 201.4 337.2Q202.7 338.5 202.7 340.8L202.7 340.8L202.7 377.8Q202.7 380 201.5 381.2Q200.2 382.4 198.2 382.4L198.2 382.4Q196.1 382.4 194.8 381.2Q193.6 380 193.6 377.8L193.6 377.8L193.6 375.8L193.4 375.8Q192.3 378.8 189.6 380.5Q186.8 382.3 183.1 382.3ZM186.2 374.9L186.2 374.9Q189.6 374.9 191.6 372.3Q193.6 369.6 193.6 365L193.6 365Q193.6 360.4 191.6 357.7Q189.6 355.0 186.2 355.0L186.2 355.0Q182.8 355.0 180.8 357.7Q178.8 360.4 178.8 365L178.8 365Q178.8 369.6 180.8 372.3Q182.8 374.9 186.2 374.9ZM224.2 382.5L224.2 382.5Q216.3 382.5 212.0 377.9Q207.6 373.3 207.6 365.2L207.6 365.2Q207.6 357.1 211.9 352.3Q216.3 347.5 223.8 347.5L223.8 347.5Q230.8 347.5 235.2 351.9Q239.6 356.3 239.6 363.1L239.6 363.1Q239.6 365.0 238.6 366.1Q237.6 367.1 235.7 367.1L235.7 367.1L216.5 367.1L216.5 367.5Q216.5 371.2 218.6 373.5Q220.7 375.7 224.2 375.7L224.2 375.7Q226.7 375.7 228.5 374.8Q230.3 373.9 232.2 371.7L232.2 371.7Q233.5 370.3 235.1 370.3L235.1 370.3Q236.7 370.3 237.7 371.3Q238.7 372.2 238.7 373.7L238.7 373.7Q238.7 374.8 238.1 375.9L238.1 375.9Q236.4 379 232.7 380.7Q229.0 382.5 224.2 382.5ZM216.6 361.5L216.6 361.5L230.8 361.5Q230.7 358.2 228.8 356.3Q226.8 354.3 223.8 354.3Q220.8 354.3 218.9 356.3Q216.9 358.3 216.6 361.5ZM248.9 382.4L248.9 382.4Q246.8 382.4 245.5 381.2Q244.3 379.9 244.3 377.7L244.3 377.7L244.3 352.2Q244.3 350 245.5 348.8Q246.7 347.6 248.7 347.6L248.7 347.6Q250.7 347.6 251.8 348.8Q253.0 350 253.0 352.2L253.0 352.2L253.0 354.3L253.2 354.3Q253.9 351.3 255.8 349.5Q257.7 347.7 260.2 347.7L260.2 347.7Q262.0 347.7 263.0 348.6L263.0 348.6Q264.3 349.6 264.3 351.9L264.3 351.9Q264.3 354.1 263.0 355.2L263.0 355.2Q261.7 356.4 259.1 356.4L259.1 356.4Q256.1 356.4 254.8 358.0Q253.4 359.7 253.4 362.8L253.4 362.8L253.4 377.7Q253.4 379.9 252.2 381.2Q251 382.4 248.9 382.4ZM283 382.5L283 382.5Q275.2 382.5 270.8 377.9Q266.4 373.3 266.4 365.2L266.4 365.2Q266.4 357.1 270.8 352.3Q275.1 347.5 282.6 347.5L282.6 347.5Q289.7 347.5 294.0 351.9Q298.4 356.3 298.4 363.1L298.4 363.1Q298.4 365.0 297.4 366.1Q296.4 367.1 294.5 367.1L294.5 367.1L275.3 367.1L275.3 367.5Q275.3 371.2 277.4 373.5Q279.5 375.7 283.0 375.7L283.0 375.7Q285.5 375.7 287.3 374.8Q289.1 373.9 291.0 371.7L291.0 371.7Q292.3 370.3 293.9 370.3L293.9 370.3Q295.5 370.3 296.5 371.3Q297.5 372.2 297.5 373.7L297.5 373.7Q297.5 374.8 296.9 375.9L296.9 375.9Q295.2 379 291.5 380.7Q287.8 382.5 283 382.5ZM275.4 361.5L275.4 361.5L289.7 361.5Q289.5 358.2 287.6 356.3Q285.7 354.3 282.7 354.3Q279.7 354.3 277.7 356.3Q275.7 358.3 275.4 361.5ZM315.6 382.3L315.6 382.3Q309.3 382.3 305.6 377.6Q301.9 373.0 301.9 364.9L301.9 364.9Q301.9 357.0 305.6 352.3Q309.3 347.7 315.6 347.7L315.6 347.7Q319.2 347.7 321.9 349.4Q324.6 351.2 325.8 354L325.8 354L326.0 354L326.0 340.8Q326.0 338.5 327.3 337.2Q328.5 336.0 330.6 336.0Q332.7 336.0 333.9 337.2Q335.2 338.5 335.2 340.8L335.2 340.8L335.2 377.8Q335.2 380 333.9 381.2Q332.7 382.4 330.6 382.4L330.6 382.4Q328.6 382.4 327.3 381.2Q326.0 380 326.0 377.8L326.0 377.8L326.0 375.8L325.9 375.8Q324.8 378.8 322.0 380.5Q319.3 382.3 315.6 382.3ZM318.7 374.9L318.7 374.9Q322.1 374.9 324.1 372.3Q326.1 369.6 326.1 365L326.1 365Q326.1 360.4 324.1 357.7Q322.1 355.0 318.7 355.0L318.7 355.0Q315.2 355.0 313.2 357.7Q311.3 360.4 311.3 365L311.3 365Q311.3 369.6 313.2 372.3Q315.2 374.9 318.7 374.9Z M358.5 382.4L358.5 382.4Q356.4 382.4 355.1 381.2Q353.9 379.9 353.9 377.7L353.9 377.7L353.9 352.2Q353.9 350 355.1 348.8Q356.3 347.6 358.3 347.6L358.3 347.6Q360.3 347.6 361.4 348.8Q362.6 350 362.6 352.2L362.6 352.2L362.6 354.3L362.8 354.3Q363.5 351.3 365.4 349.5Q367.3 347.7 369.8 347.7L369.8 347.7Q371.6 347.7 372.6 348.6L372.6 348.6Q373.9 349.6 373.9 351.9L373.9 351.9Q373.9 354.1 372.6 355.2L372.6 355.2Q371.3 356.4 368.7 356.4L368.7 356.4Q365.7 356.4 364.3 358.0Q363.0 359.7 363.0 362.8L363.0 362.8L363.0 377.7Q363.0 379.9 361.8 381.2Q360.6 382.4 358.5 382.4ZM404.7 377.8Q400.2 382.5 392.6 382.5Q384.9 382.5 380.4 377.8Q376.0 373.2 376.0 365.0L376.0 365.0Q376.0 356.9 380.5 352.2Q385 347.5 392.6 347.5L392.6 347.5Q400.2 347.5 404.7 352.2Q409.2 356.9 409.2 365.0L409.2 365.0Q409.2 373.2 404.7 377.8ZM392.6 375.5L392.6 375.5Q395.9 375.5 397.9 372.8Q399.9 370 399.9 365L399.9 365Q399.9 360.1 397.9 357.3Q395.9 354.5 392.6 354.5Q389.2 354.5 387.2 357.3Q385.2 360.1 385.2 365L385.2 365Q385.2 370 387.2 372.8Q389.2 375.5 392.6 375.5ZM418.5 382.4L418.5 382.4Q416.5 382.4 415.3 381.2Q414.1 380.0 414.1 377.8L414.1 377.8L414.1 340.8Q414.1 338.5 415.3 337.2Q416.6 336.0 418.6 336.0Q420.7 336.0 421.9 337.2Q423.2 338.5 423.2 340.8L423.2 340.8L423.2 354.1L423.4 354.1Q424.8 351.1 427.5 349.4Q430.2 347.7 433.7 347.7L433.7 347.7Q440.1 347.7 443.7 352.3Q447.3 356.9 447.3 365Q447.3 373.1 443.7 377.7Q440.1 382.3 433.8 382.3L433.8 382.3Q430.1 382.3 427.4 380.6Q424.7 379.0 423.3 376L423.3 376L423.1 376L423.1 377.8Q423.1 380 421.8 381.2Q420.6 382.4 418.5 382.4ZM430.6 374.9L430.6 374.9Q434.0 374.9 436.0 372.3Q438 369.6 438 365L438 365Q438 360.4 436.0 357.7Q434.0 355.0 430.6 355.0L430.6 355.0Q427.3 355.0 425.2 357.8Q423.2 360.5 423.2 365L423.2 365Q423.2 369.5 425.2 372.2Q427.3 374.9 430.6 374.9ZM479.6 377.8Q475.1 382.5 467.4 382.5Q459.8 382.5 455.3 377.8Q450.8 373.2 450.8 365.0L450.8 365.0Q450.8 356.9 455.4 352.2Q459.9 347.5 467.4 347.5L467.4 347.5Q475.0 347.5 479.5 352.2Q484.0 356.9 484.0 365.0L484.0 365.0Q484.0 373.2 479.6 377.8ZM467.4 375.5L467.4 375.5Q470.8 375.5 472.8 372.8Q474.8 370 474.8 365L474.8 365Q474.8 360.1 472.8 357.3Q470.8 354.5 467.4 354.5Q464.1 354.5 462.1 357.3Q460.1 360.1 460.1 365L460.1 365Q460.1 370 462.1 372.8Q464.0 375.5 467.4 375.5ZM491.2 373.2L491.2 373.2L491.2 355.1L489.4 355.1Q487.8 355.1 486.8 354.2Q485.9 353.3 485.9 351.7Q485.9 350.1 486.8 349.2Q487.8 348.3 489.4 348.3L489.4 348.3L491.2 348.3L491.2 344.5Q491.2 342.3 492.4 341.0Q493.6 339.8 495.7 339.8Q497.8 339.8 499.1 341.0Q500.3 342.3 500.3 344.5L500.3 344.5L500.3 348.3L503.5 348.3Q505.1 348.3 506.1 349.2Q507 350.1 507 351.7Q507 353.3 506.1 354.2Q505.1 355.1 503.5 355.1L503.5 355.1L500.3 355.1L500.3 371.2Q500.3 372.9 500.9 373.8Q501.6 374.6 503.1 374.7L503.1 374.7L503.7 374.8Q505.4 374.9 506.3 375.7Q507.1 376.5 507.1 378.1L507.1 378.1Q507.1 380.0 505.4 381.1Q503.6 382.1 500.7 382.1L500.7 382.1L500.3 382.1Q491.2 382.1 491.2 373.2Z M534.5 381.2Q533.2 382.4 531.1 382.4Q529.0 382.4 527.8 381.2Q526.6 380.0 526.6 377.7L526.6 377.7L526.6 355.1L524.8 355.1Q523.3 355.1 522.4 354.2Q521.5 353.3 521.5 351.8Q521.5 350.2 522.4 349.3Q523.3 348.4 524.8 348.4L524.8 348.4L526.6 348.4L526.6 345.9Q526.6 341.0 528.9 338.6Q531.3 336.3 536.1 336.3L536.1 336.3Q539.6 336.3 541.3 337.3Q543 338.3 543 339.9L543 339.9Q543 341.8 541.2 342.3L541.2 342.3Q540.3 342.6 539.4 342.6L539.4 342.6Q537.3 342.7 536.4 343.5Q535.5 344.4 535.5 346.3L535.5 346.3L535.5 348.4L539.3 348.4Q540.8 348.4 541.7 349.3Q542.7 350.2 542.7 351.8Q542.7 353.3 541.7 354.2Q540.8 355.1 539.3 355.1L539.3 355.1L535.7 355.1L535.7 377.7Q535.7 380.0 534.5 381.2ZM556.8 382.3L556.8 382.3Q552.0 382.3 548.8 379.4Q545.6 376.6 545.6 372.1L545.6 372.1Q545.6 367.6 549.0 365.0Q552.3 362.4 558.7 362L558.7 362L567.1 361.5L567.1 359.3Q567.1 357.0 565.6 355.7Q564.1 354.3 561.5 354.3L561.5 354.3Q559.4 354.3 557.9 355.1Q556.5 355.9 555.0 357.9L555.0 357.9Q553.5 359.6 551.3 359.6L551.3 359.6Q549.7 359.6 548.6 358.6Q547.5 357.6 547.5 356.1L547.5 356.1Q547.5 355.0 548 354L548 354Q549.2 351 552.9 349.3Q556.7 347.5 561.9 347.5L561.9 347.5Q568.3 347.5 572.2 350.6Q576.1 353.7 576.1 358.7L576.1 358.7L576.1 377.8Q576.1 380.0 574.8 381.2Q573.6 382.4 571.6 382.4L571.6 382.4Q569.7 382.4 568.5 381.4Q567.4 380.3 567.3 378.3L567.3 378.3L567.3 376.6L567.1 376.6Q565.7 379.3 562.9 380.8Q560.0 382.3 556.8 382.3ZM559.8 375.7L559.8 375.7Q562.8 375.7 565.0 373.9Q567.1 372.2 567.1 369.5L567.1 369.5L567.1 367.0L560.0 367.5Q557.5 367.7 556.1 368.8Q554.7 369.8 554.7 371.6L554.7 371.6Q554.7 373.5 556.1 374.6Q557.5 375.7 559.8 375.7ZM597.2 382.5L597.2 382.5Q589.6 382.5 585.2 377.8Q580.7 373.1 580.7 365L580.7 365Q580.7 357.0 585.2 352.3Q589.6 347.5 597.2 347.5L597.2 347.5Q602.2 347.5 606.0 349.7Q609.9 351.9 611.3 355.5L611.3 355.5Q611.8 356.8 611.8 357.8L611.8 357.8Q611.8 359.4 610.7 360.4Q609.6 361.3 607.9 361.3L607.9 361.3Q606.5 361.3 605.6 360.8Q604.8 360.2 604.0 359.0L604.0 359.0Q601.6 354.7 597.4 354.7L597.4 354.7Q594.0 354.7 592.0 357.4Q590.0 360.1 590.0 365.0L590.0 365.0Q590.0 369.9 592.0 372.6Q593.9 375.3 597.4 375.3L597.4 375.3Q601.6 375.3 603.9 371.4L603.9 371.4Q604.9 369.9 605.8 369.3Q606.7 368.7 608.1 368.7L608.1 368.7Q609.7 368.7 610.8 369.7Q611.9 370.7 611.9 372.3L611.9 372.3Q611.9 373.4 611.3 374.7L611.3 374.7Q609.8 378.2 605.9 380.3Q602 382.5 597.2 382.5ZM632.2 382.5L632.2 382.5Q624.4 382.5 620.0 377.9Q615.6 373.3 615.6 365.2L615.6 365.2Q615.6 357.1 620.0 352.3Q624.3 347.5 631.8 347.5L631.8 347.5Q638.9 347.5 643.3 351.9Q647.7 356.3 647.7 363.1L647.7 363.1Q647.7 365.0 646.6 366.1Q645.6 367.1 643.7 367.1L643.7 367.1L624.6 367.1L624.6 367.5Q624.6 371.2 626.6 373.5Q628.7 375.7 632.2 375.7L632.2 375.7Q634.7 375.7 636.5 374.8Q638.3 373.9 640.2 371.7L640.2 371.7Q641.5 370.3 643.2 370.3L643.2 370.3Q644.7 370.3 645.7 371.3Q646.7 372.2 646.7 373.7L646.7 373.7Q646.7 374.8 646.1 375.9L646.1 375.9Q644.4 379 640.8 380.7Q637.1 382.5 632.2 382.5ZM624.7 361.5L624.7 361.5L638.9 361.5Q638.8 358.2 636.8 356.3Q634.9 354.3 631.9 354.3Q628.9 354.3 626.9 356.3Q624.9 358.3 624.7 361.5ZM666 382.5L666 382.5Q660.4 382.5 656.6 380.6Q652.8 378.8 651.6 375.8L651.6 375.8Q651.3 374.8 651.3 374.1L651.3 374.1Q651.3 372.5 652.3 371.6Q653.3 370.6 654.9 370.6L654.9 370.6Q657.1 370.6 658.9 372.7L658.9 372.7Q660.3 374.4 662.0 375.3Q663.7 376.1 666.2 376.1L666.2 376.1Q668.7 376.1 670.2 375.1Q671.7 374.1 671.7 372.5L671.7 372.5Q671.7 371.1 670.7 370.3Q669.7 369.5 667.3 369.0L667.3 369.0L661.6 367.8Q656.7 366.7 654.2 364.3Q651.8 361.8 651.8 358.1L651.8 358.1Q651.8 353.3 655.6 350.4Q659.5 347.5 666.0 347.5L666.0 347.5Q671.0 347.5 674.6 349.5Q678.3 351.5 679.1 354.5L679.1 354.5Q679.3 355.3 679.3 355.8L679.3 355.8Q679.3 357.3 678.4 358.1Q677.5 358.9 675.8 358.9L675.8 358.9Q673.7 358.9 672.5 357.5L672.5 357.5Q671.1 355.8 669.6 354.9Q668.1 353.9 665.8 353.9L665.8 353.9Q663.5 353.9 662.0 354.9Q660.6 355.9 660.6 357.6L660.6 357.6Q660.6 358.9 661.7 359.8Q662.8 360.7 665.2 361.2L665.2 361.2L670.8 362.4Q676.1 363.5 678.5 365.6Q680.8 367.8 680.8 371.5L680.8 371.5Q680.8 376.5 676.7 379.5Q672.7 382.5 666 382.5Z " clip-path="url(#satori_cp-id-0)" mask="url(#satori_om-id-0)"/><defs><clipPath id="satori_bc-id-0-1" clip-path="url(#satori_cp-id-0)"><rect x="0" y="509" width="1200" height="121"/></clipPath></defs><mask id="satori_om-id-0-1"><rect x="0" y="510" width="1200" height="120" fill="#fff" mask="url(#satori_om-id-0)"/><path width="1200" height="121" fill="none" stroke="#000" stroke-width="2" d="M0,509 A0,0 0 0 1 0,509 h1200 A0,0 0 0 1 1200,509"/></mask><path width="1200" height="121" clip-path="url(#satori_bc-id-0-1)" fill="none" stroke="rgba(0,0,0,0.08)" stroke-width="2" d="M0,509 A0,0 0 0 1 0,509 h1200 A0,0 0 0 1 1200,509"/><mask id="satori_om-id-0-1-0"><rect x="48" y="538" width="228" height="64" fill="#fff" mask="url(#satori_om-id-0)"/></mask><mask id="satori_om-id-0-1-0-0"><rect x="48" y="538" width="72" height="64" fill="#fff" mask="url(#satori_om-id-0)"/></mask><clipPath id="satori_cp-id-0-1-0-0-0" clip-path="url(#satori_cp-id-0)"><rect x="48" y="538" width="72" height="64"/></clipPath><mask id="satori_om-id-0-1-0-0-0"><rect x="48" y="538" width="72" height="64" fill="#fff" mask="url(#satori_om-id-0)"/></mask><image x="48" y="538" width="72" height="64" href="data:image/svg+xml;utf8,%3Csvg  xmlns=%22http://www.w3.org/2000/svg%22 width=%2273.60461760461762%22 height=%2264%22 viewBox=%220 0 797 693%22%3E%3Cg transform=%22matrix(1,0,0,1,-345,-96.5)%22%3E%3Cpath d=%22M756.942,197.15L756.942,474C701.751,474 656.942,518.808 656.942,574C656.942,629.192 701.751,674 756.942,674L756.942,777L495.122,777C443.175,777 401,734.825 401,682.878L401,614L364.755,614C353.852,614 345,605.148 345,594.245L345,436.814C345,425.878 353.878,417 364.814,417L401,417L401,365.122C401,313.175 443.175,271 495.122,271L715.058,271L715.058,197.15C696.492,189.056 683.5,170.533 683.5,149C683.5,120.024 707.024,96.5 736,96.5C764.976,96.5 788.5,120.024 788.5,149C788.5,170.533 775.508,189.056 756.942,197.15ZM559,388C520.918,388 490,418.918 490,457C490,495.082 520.918,526 559,526C597.082,526 628,495.082 628,457C628,418.918 597.082,388 559,388Z%22 fill=%22%23ad47ff%22%3E%3C/path%3E%3Cg transform=%22matrix(-1,1.22465e-16,-1.22465e-16,-1,1486.06,1043)%22%3E%3Cpath d=%22M401,417L401,348.122C401,296.175 443.175,254 495.122,254L705.058,254L705.058,357C760.249,357 805.058,401.808 805.058,457C805.058,512.192 760.249,557 705.058,557L705.058,760L495.122,760C443.175,760 401,717.825 401,665.878L401,614L364.755,614C353.852,614 345,605.148 345,594.245L345,436.814C345,425.878 353.878,417 364.814,417L401,417ZM552,643C590.082,643 621,612.082 621,574C621,535.918 590.082,505 552,505C513.918,505 483,535.918 483,574C483,612.082 513.918,643 552,643Z%22 fill=%22%2300d5bd%22%3E%3C/path%3E%3C/g%3E%3C/g%3E%3C/svg%3E" preserveAspectRatio="none" clip-path="url(#satori_cp-id-0-1-0-0-0)" mask="url(#satori_om-id-0-1-0-0-0)"/><mask id="satori_om-id-0-1-0-0-0-0"><rect x="48" y="538" width="0" height="64" fill="#fff" mask="url(#satori_om-id-0)"/></mask><mask id="satori_om-id-0-1-0-0-0-0-0"><rect x="48" y="538" width="0" height="64" fill="#fff" mask="url(#satori_om-id-0)"/></mask><mask id="satori_om-id-0-1-0-0-0-0-1"><rect x="48" y="538" width="0" height="64" fill="#fff" mask="url(#satori_om-id-0)"/></mask><mask id="satori_om-id-0-1-0-0-0-0-1-0"><rect x="48" y="538" width="0" height="64" fill="#fff" mask="url(#satori_om-id-0)"/></mask><mask id="satori_om-id-0-1-0-1"><rect x="138" y="540" width="138" height="60" fill="#fff" mask="url(#satori_om-id-0)"/></mask><mask id="satori_om-id-0-1-0-1-0"><rect x="138" y="540" width="138" height="36" fill="#fff" mask="url(#satori_om-id-0)"/></mask><path fill="#0f172a" d="M150.7 571.2L150.7 571.2Q145.9 571.2 143.0 568.6Q140.1 566.1 140.1 561.8L140.1 561.8L140.1 547.9Q140.1 546.5 140.8 545.8Q141.5 545.1 142.8 545.1Q144.0 545.1 144.7 545.8Q145.4 546.5 145.4 547.9L145.4 547.9L145.4 561.3Q145.4 563.8 146.8 565.2Q148.2 566.7 150.7 566.7L150.7 566.7Q153.3 566.7 154.7 565.2Q156.1 563.8 156.1 561.3L156.1 561.3L156.1 547.9Q156.1 546.5 156.8 545.8Q157.5 545.1 158.7 545.1Q160.0 545.1 160.7 545.8Q161.4 546.5 161.4 547.9L161.4 547.9L161.4 561.8Q161.4 566.1 158.5 568.6Q155.6 571.2 150.7 571.2ZM170.2 570.4Q169.5 571.2 168.2 571.2Q167.0 571.2 166.3 570.4Q165.6 569.7 165.6 568.4L165.6 568.4L165.6 548.2Q165.6 546.9 166.3 546.2Q167.0 545.4 168.2 545.4L168.2 545.4L176.0 545.4Q180.3 545.4 182.7 547.6Q185.1 549.7 185.1 553.5L185.1 553.5Q185.1 555.9 184.0 557.8Q182.9 559.7 180.8 560.6L180.8 560.6L184.4 566.9Q185.0 567.9 185.0 568.7L185.0 568.7Q185.0 569.8 184.2 570.5Q183.5 571.2 182.3 571.2L182.3 571.2Q181.4 571.2 180.8 570.8Q180.3 570.3 179.6 569.2L179.6 569.2L175.4 561.5L170.9 561.5L170.9 568.4Q170.9 569.7 170.2 570.4ZM170.9 549.6L170.9 557.7L175.5 557.7Q177.5 557.7 178.6 556.6Q179.7 555.5 179.7 553.6L179.7 553.6Q179.7 551.8 178.5 550.7Q177.4 549.6 175.4 549.6L175.4 549.6L170.9 549.6ZM198.1 562.7L190.8 562.7Q189.7 562.7 189.1 562.1Q188.4 561.5 188.4 560.5Q188.4 559.4 189.1 558.8Q189.7 558.2 190.8 558.2L190.8 558.2L198.1 558.2Q199.2 558.2 199.9 558.8Q200.6 559.4 200.6 560.5Q200.6 561.5 199.9 562.1Q199.2 562.7 198.1 562.7L198.1 562.7ZM209.1 570.4Q208.4 571.2 207.2 571.2Q205.9 571.2 205.2 570.4Q204.5 569.7 204.5 568.4L204.5 568.4L204.5 548.2Q204.5 546.9 205.2 546.2Q205.9 545.4 207.2 545.4L207.2 545.4L214.9 545.4Q219.3 545.4 221.7 547.6Q224.1 549.7 224.1 553.5L224.1 553.5Q224.1 555.9 223.0 557.8Q221.8 559.7 219.7 560.6L219.7 560.6L223.4 566.9Q224.0 567.9 224.0 568.7L224.0 568.7Q224.0 569.8 223.2 570.5Q222.4 571.2 221.3 571.2L221.3 571.2Q220.3 571.2 219.8 570.8Q219.2 570.3 218.6 569.2L218.6 569.2L214.4 561.5L209.8 561.5L209.8 568.4Q209.8 569.7 209.1 570.4ZM209.8 549.6L209.8 557.7L214.4 557.7Q216.4 557.7 217.5 556.6Q218.6 555.5 218.6 553.6L218.6 553.6Q218.6 551.8 217.5 550.7Q216.3 549.6 214.4 549.6L214.4 549.6L209.8 549.6ZM229.3 571.1L229.3 571.1Q228.0 571.1 227.3 570.5Q226.6 569.8 226.6 568.6L226.6 568.6Q226.6 567.9 226.9 566.9L226.9 566.9L233.9 548.1Q234.4 546.5 235.4 545.8Q236.3 545.1 237.8 545.1L237.8 545.1Q239.4 545.1 240.4 545.8Q241.3 546.5 241.9 548.1L241.9 548.1L248.9 566.9Q249.2 567.9 249.2 568.6L249.2 568.6Q249.2 569.7 248.5 570.4Q247.7 571.1 246.5 571.1L246.5 571.1Q245.4 571.1 244.8 570.6Q244.1 570.0 243.8 568.8L243.8 568.8L242.4 564.8L233.3 564.8L232.0 568.7Q231.6 570.0 231.0 570.6Q230.3 571.1 229.3 571.1ZM237.7 550.3L234.5 560.7L241.2 560.7L237.9 550.3L237.7 550.3ZM262.1 570.8L255.1 570.8Q253.8 570.8 253.1 570.1Q252.4 569.3 252.4 568.0L252.4 568.0L252.4 548.2Q252.4 546.9 253.1 546.2Q253.8 545.4 255.1 545.4L255.1 545.4L262.1 545.4Q267.8 545.4 271.0 548.7Q274.2 552.0 274.2 558.0L274.2 558.0Q274.2 564.0 271.0 567.4Q267.8 570.8 262.1 570.8L262.1 570.8ZM257.7 549.8L257.7 566.4L261.5 566.4Q265.0 566.4 266.9 564.3Q268.8 562.1 268.8 558.0L268.8 558.0Q268.8 554.1 266.9 551.9Q265.0 549.8 261.5 549.8L261.5 549.8L257.7 549.8Z " clip-path="url(#satori_cp-id-0)" mask="url(#satori_om-id-0)"/><mask id="satori_om-id-0-1-0-1-1"><rect x="138" y="576" width="138" height="24" fill="#fff" mask="url(#satori_om-id-0)"/></mask><path fill="#334155" d="M145.0 595.3L145.0 595.3Q142.4 595.3 140.8 593.8Q139.2 592.4 139.2 590.1L139.2 590.1L139.2 582.1Q139.2 581.5 139.6 581.1Q139.9 580.8 140.5 580.8L140.5 580.8Q141.1 580.8 141.4 581.1Q141.8 581.5 141.8 582.1L141.8 582.1L141.8 589.8Q141.8 591.3 142.6 592.2Q143.5 593.1 145.0 593.1Q146.6 593.1 147.4 592.2Q148.3 591.3 148.3 589.8L148.3 589.8L148.3 582.1Q148.3 581.5 148.6 581.1Q149.0 580.8 149.6 580.8L149.6 580.8Q150.2 580.8 150.5 581.1Q150.8 581.5 150.8 582.1L150.8 582.1L150.8 590.1Q150.8 592.4 149.3 593.8Q147.7 595.3 145.0 595.3ZM155.5 594.9Q155.2 595.2 154.6 595.2Q154.0 595.2 153.6 594.9Q153.3 594.5 153.3 593.9L153.3 593.9L153.3 582.3Q153.3 581.6 153.6 581.3Q154.0 581.0 154.6 581.0L154.6 581.0L158.9 581.0Q161.2 581.0 162.5 582.1Q163.8 583.3 163.8 585.3L163.8 585.3Q163.8 586.7 163.1 587.8Q162.4 588.8 161.2 589.3L161.2 589.3L163.4 593.2Q163.7 593.7 163.7 594.1L163.7 594.1Q163.7 594.6 163.4 594.9Q163.0 595.2 162.4 595.2L162.4 595.2Q162.0 595.2 161.7 595.0Q161.5 594.8 161.2 594.3L161.2 594.3L158.7 589.7L155.8 589.7L155.8 593.9Q155.8 594.5 155.5 594.9ZM155.8 583.0L155.8 587.8L158.7 587.8Q159.9 587.8 160.5 587.2Q161.2 586.5 161.2 585.4L161.2 585.4Q161.2 584.3 160.5 583.6Q159.8 583.0 158.6 583.0L158.6 583.0L155.8 583.0ZM171.1 590.4L166.7 590.4Q166.2 590.4 165.9 590.1Q165.6 589.8 165.6 589.3Q165.6 588.8 165.9 588.5Q166.2 588.2 166.7 588.2L166.7 588.2L171.1 588.2Q171.7 588.2 172.0 588.5Q172.3 588.8 172.3 589.3Q172.3 589.8 172.0 590.1Q171.7 590.4 171.1 590.4L171.1 590.4ZM176.7 594.9Q176.4 595.2 175.8 595.2Q175.2 595.2 174.9 594.9Q174.6 594.5 174.6 593.9L174.6 593.9L174.6 582.3Q174.6 581.6 174.9 581.3Q175.2 581.0 175.8 581.0L175.8 581.0L180.1 581.0Q182.4 581.0 183.7 582.1Q185.0 583.3 185.0 585.3L185.0 585.3Q185.0 586.7 184.3 587.8Q183.7 588.8 182.5 589.3L182.5 589.3L184.7 593.2Q185.0 593.7 185.0 594.1L185.0 594.1Q185.0 594.6 184.6 594.9Q184.2 595.2 183.7 595.2L183.7 595.2Q183.2 595.2 183.0 595.0Q182.7 594.8 182.4 594.3L182.4 594.3L179.9 589.7L177.1 589.7L177.1 593.9Q177.1 594.5 176.7 594.9ZM177.1 583.0L177.1 587.8L179.9 587.8Q181.1 587.8 181.8 587.2Q182.4 586.5 182.4 585.4L182.4 585.4Q182.4 584.3 181.8 583.6Q181.1 583.0 179.9 583.0L179.9 583.0L177.1 583.0ZM187.7 595.2L187.7 595.2Q187.1 595.2 186.7 594.9Q186.4 594.6 186.4 594.0L186.4 594.0Q186.4 593.7 186.6 593.3L186.6 593.3L190.7 582.2Q190.9 581.4 191.4 581.1Q191.8 580.8 192.5 580.8L192.5 580.8Q193.2 580.8 193.6 581.1Q194.1 581.4 194.3 582.1L194.3 582.1L198.4 593.3Q198.6 593.7 198.6 594.0L198.6 594.0Q198.6 594.6 198.2 594.9Q197.9 595.2 197.3 595.2L197.3 595.2Q196.8 595.2 196.5 595.0Q196.2 594.7 196.0 594.1L196.0 594.1L195.1 591.4L189.9 591.4L188.9 594.1Q188.8 594.7 188.5 595.0Q188.2 595.2 187.7 595.2ZM192.4 583.4L190.5 589.5L194.5 589.5L192.5 583.4L192.4 583.4ZM205.6 595.0L201.7 595.0Q201.1 595.0 200.8 594.7Q200.4 594.3 200.4 593.7L200.4 593.7L200.4 582.3Q200.4 581.6 200.8 581.3Q201.1 581.0 201.7 581.0L201.7 581.0L205.6 581.0Q208.7 581.0 210.5 582.8Q212.3 584.6 212.3 588.0L212.3 588.0Q212.3 591.3 210.5 593.2Q208.7 595.0 205.6 595.0L205.6 595.0ZM202.9 583.1L202.9 592.9L205.3 592.9Q207.4 592.9 208.6 591.6Q209.7 590.4 209.7 588.0L209.7 588.0Q209.7 585.6 208.6 584.3Q207.4 583.1 205.3 583.1L205.3 583.1L202.9 583.1Z M227.0 595.0L219.2 595.0Q218.7 595.0 218.3 594.8Q218.0 594.5 218.0 594.0L218.0 594.0Q218.0 593.6 218.2 593.3Q218.3 593.1 218.7 592.7L218.7 592.7L223.0 588.4Q224.4 587.1 224.8 586.4Q225.3 585.7 225.3 584.9L225.3 584.9Q225.3 583.9 224.6 583.3Q224.0 582.7 223.0 582.7L223.0 582.7Q221.1 582.7 220.3 584.6L220.3 584.6Q220.1 585.0 219.9 585.2Q219.6 585.4 219.2 585.4L219.2 585.4Q218.7 585.4 218.4 585.1Q218.1 584.8 218.1 584.3L218.1 584.3Q218.1 584.1 218.2 583.8L218.2 583.8Q218.3 583.2 218.7 582.7Q219.1 582.1 219.7 581.7Q220.3 581.2 221.1 580.9Q222.0 580.7 223.0 580.7L223.0 580.7Q225.1 580.7 226.4 581.8Q227.8 582.9 227.8 584.7L227.8 584.7Q227.8 585.9 227.1 586.9Q226.4 588.0 224.6 589.8L224.6 589.8L221.4 592.9L221.4 593.0L227.0 593.0Q227.5 593.0 227.8 593.3Q228.1 593.5 228.1 594.0Q228.1 594.5 227.8 594.8Q227.5 595.0 227.0 595.0L227.0 595.0ZM235.2 595.3L235.2 595.3Q232.6 595.3 231.1 593.4Q229.7 591.4 229.7 588.0L229.7 588.0Q229.7 584.6 231.1 582.6Q232.6 580.7 235.2 580.7L235.2 580.7Q237.8 580.7 239.3 582.6Q240.7 584.6 240.7 588.0L240.7 588.0Q240.7 591.4 239.3 593.3Q237.8 595.3 235.2 595.3ZM235.2 593.3L235.2 593.3Q236.6 593.3 237.4 591.9Q238.2 590.5 238.2 588.0L238.2 588.0Q238.2 585.5 237.4 584.1Q236.6 582.7 235.2 582.7Q233.8 582.7 233.0 584.1Q232.2 585.5 232.2 588.0L232.2 588.0Q232.2 590.5 233.0 591.9Q233.8 593.3 235.2 593.3ZM251.6 595.0L243.8 595.0Q243.2 595.0 242.9 594.8Q242.6 594.5 242.6 594.0L242.6 594.0Q242.6 593.6 242.7 593.3Q242.9 593.1 243.3 592.7L243.3 592.7L247.6 588.4Q248.9 587.1 249.4 586.4Q249.8 585.7 249.8 584.9L249.8 584.9Q249.8 583.9 249.2 583.3Q248.5 582.7 247.5 582.7L247.5 582.7Q245.6 582.7 244.9 584.6L244.9 584.6Q244.7 585.0 244.4 585.2Q244.2 585.4 243.7 585.4L243.7 585.4Q243.2 585.4 242.9 585.1Q242.6 584.8 242.6 584.3L242.6 584.3Q242.6 584.1 242.7 583.8L242.7 583.8Q242.9 583.2 243.2 582.7Q243.6 582.1 244.2 581.7Q244.8 581.2 245.7 580.9Q246.5 580.7 247.5 580.7L247.5 580.7Q249.6 580.7 251.0 581.8Q252.3 582.9 252.3 584.7L252.3 584.7Q252.3 585.9 251.6 586.9Q251.0 588.0 249.2 589.8L249.2 589.8L245.9 592.9L245.9 593.0L251.6 593.0Q252.1 593.0 252.4 593.3Q252.6 593.5 252.6 594.0Q252.6 594.5 252.4 594.8Q252.1 595.0 251.6 595.0L251.6 595.0ZM259.6 595.3L259.6 595.3Q258.0 595.3 256.7 594.6Q255.4 593.9 254.9 592.8L254.9 592.8Q254.6 592.3 254.6 591.8L254.6 591.8Q254.6 591.3 254.9 591.0Q255.2 590.7 255.7 590.7L255.7 590.7Q256.1 590.7 256.4 590.9Q256.6 591.1 256.8 591.5L256.8 591.5Q257.2 592.3 257.9 592.8Q258.6 593.3 259.6 593.3L259.6 593.3Q260.9 593.3 261.7 592.5Q262.5 591.7 262.5 590.4L262.5 590.4Q262.5 589.2 261.7 588.4Q260.9 587.7 259.6 587.7L259.6 587.7Q258.3 587.7 257.4 588.5L257.4 588.5Q257.0 589.0 256.7 589.1Q256.4 589.3 256.0 589.3L256.0 589.3Q255.4 589.3 255.1 588.9Q254.8 588.5 254.8 588.0L254.8 588.0Q254.8 587.9 254.8 587.8L254.8 587.8L255.3 582.5Q255.4 581.7 255.8 581.3Q256.2 581.0 257.0 581.0L257.0 581.0L263.1 581.0Q263.6 581.0 263.9 581.2Q264.2 581.5 264.2 582.0L264.2 582.0Q264.2 582.4 263.9 582.7Q263.6 583.0 263.1 583.0L263.1 583.0L257.4 583.0L257.1 587.2L257.1 587.2Q257.6 586.5 258.4 586.1Q259.2 585.8 260.3 585.8L260.3 585.8Q262.3 585.8 263.6 587.0Q264.9 588.3 264.9 590.4L264.9 590.4Q264.9 592.6 263.4 593.9Q261.9 595.3 259.6 595.3Z " clip-path="url(#satori_cp-id-0)" mask="url(#satori_om-id-0)"/><mask id="satori_om-id-0-1-1"><rect x="954" y="557" width="198" height="26" fill="#fff" mask="url(#satori_om-id-0)"/></mask><path fill="#334155" d="M957.4 577.8Q957.1 578.2 956.5 578.2Q955.9 578.2 955.5 577.8Q955.2 577.5 955.2 576.8L955.2 576.8L955.2 563.6Q955.2 563.0 955.5 562.6Q955.9 562.2 956.5 562.2Q957.1 562.2 957.5 562.6Q957.8 563.0 957.8 563.6L957.8 563.6L957.8 568.5L957.9 568.5Q958.4 567.5 959.3 566.9Q960.3 566.4 961.5 566.4L961.5 566.4Q963.6 566.4 964.9 568.0Q966.2 569.5 966.2 572.3L966.2 572.3Q966.2 575.0 964.9 576.6Q963.6 578.1 961.5 578.1L961.5 578.1Q960.2 578.1 959.3 577.6Q958.4 577.0 957.8 576.0L957.8 576.0L957.8 576.0L957.8 576.8Q957.8 577.5 957.4 577.8ZM960.6 575.9L960.6 575.9Q961.9 575.9 962.7 574.9Q963.4 574.0 963.4 572.3Q963.4 570.6 962.7 569.6Q961.9 568.6 960.6 568.6L960.6 568.6Q959.4 568.6 958.6 569.6Q957.8 570.6 957.8 572.3L957.8 572.3Q957.8 573.9 958.6 574.9Q959.4 575.9 960.6 575.9ZM969.5 582.2L969.5 582.2Q968.6 582.2 968.1 581.9Q967.7 581.5 967.7 580.9L967.7 580.9Q967.7 580.5 967.9 580.3Q968.2 580.0 968.7 580.0L968.7 580.0Q968.8 580.0 969.0 580.0Q969.1 580.0 969.3 580.0L969.3 580.0Q970.3 580.0 970.9 578.7L970.9 578.7L971.1 578.2L967.3 568.3Q967.2 567.9 967.2 567.6L967.2 567.6Q967.2 567.0 967.6 566.7Q968.0 566.3 968.6 566.3L968.6 566.3Q969.1 566.3 969.4 566.6Q969.7 566.8 969.8 567.4L969.8 567.4L972.6 575.7L972.6 575.7L975.3 567.4Q975.5 566.8 975.8 566.6Q976.1 566.3 976.6 566.3L976.6 566.3Q977.2 566.3 977.5 566.7Q977.9 567.0 977.9 567.5L977.9 567.5Q977.9 567.9 977.8 568.3L977.8 568.3L974.0 578.4Q973.2 580.5 972.2 581.3Q971.2 582.2 969.5 582.2Z M993.0 577.9L985.4 577.9Q984.8 577.9 984.4 577.6Q984.0 577.2 984.0 576.5L984.0 576.5L984.0 563.9Q984.0 563.2 984.4 562.8Q984.8 562.4 985.4 562.4L985.4 562.4L993.0 562.4Q993.6 562.4 993.9 562.8Q994.3 563.1 994.3 563.6Q994.3 564.2 993.9 564.5Q993.6 564.8 993.0 564.8L993.0 564.8L986.8 564.8L986.8 569.0L992.7 569.0Q993.2 569.0 993.5 569.3Q993.9 569.6 993.9 570.1Q993.9 570.6 993.5 570.9Q993.2 571.2 992.7 571.2L992.7 571.2L986.8 571.2L986.8 575.6L993.0 575.6Q993.6 575.6 993.9 575.9Q994.3 576.2 994.3 576.8Q994.3 577.3 993.9 577.6Q993.6 577.9 993.0 577.9L993.0 577.9ZM998.6 577.8Q998.2 578.2 997.6 578.2Q997.0 578.2 996.7 577.8Q996.3 577.4 996.3 576.8L996.3 576.8L996.3 563.6Q996.3 563.0 996.7 562.6Q997.0 562.2 997.6 562.2Q998.2 562.2 998.6 562.6Q999.0 563.0 999.0 563.6L999.0 563.6L999.0 576.8Q999.0 577.4 998.6 577.8ZM1003.6 577.8Q1003.2 578.2 1002.6 578.2Q1002.0 578.2 1001.7 577.8Q1001.3 577.5 1001.3 576.8L1001.3 576.8L1001.3 563.6Q1001.3 563.0 1001.7 562.6Q1002.1 562.2 1002.7 562.2Q1003.3 562.2 1003.6 562.6Q1004.0 563.0 1004.0 563.6L1004.0 563.6L1004.0 568.5L1004.1 568.5Q1004.6 567.5 1005.5 566.9Q1006.4 566.4 1007.6 566.4L1007.6 566.4Q1009.8 566.4 1011.1 568.0Q1012.3 569.5 1012.3 572.3L1012.3 572.3Q1012.3 575.0 1011.1 576.6Q1009.8 578.1 1007.6 578.1L1007.6 578.1Q1006.4 578.1 1005.4 577.6Q1004.5 577.0 1004.0 576.0L1004.0 576.0L1003.9 576.0L1003.9 576.8Q1003.9 577.5 1003.6 577.8ZM1006.8 575.9L1006.8 575.9Q1008.1 575.9 1008.8 574.9Q1009.6 574.0 1009.6 572.3Q1009.6 570.6 1008.8 569.6Q1008.1 568.6 1006.8 568.6L1006.8 568.6Q1005.6 568.6 1004.8 569.6Q1004.0 570.6 1004.0 572.3L1004.0 572.3Q1004.0 573.9 1004.8 574.9Q1005.6 575.9 1006.8 575.9ZM1019.1 578.2L1019.1 578.2Q1016.5 578.2 1015.0 576.6Q1013.6 575.1 1013.6 572.3L1013.6 572.3Q1013.6 569.6 1015.0 567.9Q1016.5 566.3 1018.9 566.3L1018.9 566.3Q1021.3 566.3 1022.7 567.8Q1024.2 569.3 1024.2 571.6L1024.2 571.6Q1024.2 572.2 1023.9 572.6Q1023.5 572.9 1022.9 572.9L1022.9 572.9L1016.2 572.9L1016.2 573.0Q1016.2 574.4 1017.0 575.3Q1017.8 576.1 1019.1 576.1L1019.1 576.1Q1020.0 576.1 1020.6 575.8Q1021.3 575.4 1021.9 574.6L1021.9 574.6Q1022.3 574.2 1022.8 574.2L1022.8 574.2Q1023.3 574.2 1023.6 574.4Q1023.9 574.7 1023.9 575.2L1023.9 575.2Q1023.9 575.5 1023.7 575.9L1023.7 575.9Q1023.1 577.0 1021.9 577.6Q1020.7 578.2 1019.1 578.2ZM1016.3 571.1L1016.3 571.1L1021.6 571.1Q1021.5 569.9 1020.8 569.1Q1020.1 568.4 1019.0 568.4Q1017.8 568.4 1017.1 569.2Q1016.3 569.9 1016.3 571.1ZM1028.3 577.8Q1027.9 578.2 1027.3 578.2Q1026.7 578.2 1026.4 577.8Q1026.0 577.4 1026.0 576.8L1026.0 576.8L1026.0 563.6Q1026.0 563.0 1026.4 562.6Q1026.7 562.2 1027.3 562.2Q1027.9 562.2 1028.3 562.6Q1028.7 563.0 1028.7 563.6L1028.7 563.6L1028.7 576.8Q1028.7 577.4 1028.3 577.8ZM1036.0 578.2L1036.0 578.2Q1033.4 578.2 1031.9 576.6Q1030.5 575.1 1030.5 572.3L1030.5 572.3Q1030.5 569.6 1031.9 567.9Q1033.4 566.3 1035.8 566.3L1035.8 566.3Q1038.2 566.3 1039.6 567.8Q1041.1 569.3 1041.1 571.6L1041.1 571.6Q1041.1 572.2 1040.8 572.6Q1040.4 572.9 1039.8 572.9L1039.8 572.9L1033.1 572.9L1033.1 573.0Q1033.1 574.4 1033.9 575.3Q1034.7 576.1 1036.0 576.1L1036.0 576.1Q1036.9 576.1 1037.5 575.8Q1038.2 575.4 1038.8 574.6L1038.8 574.6Q1039.2 574.2 1039.7 574.2L1039.7 574.2Q1040.2 574.2 1040.5 574.4Q1040.8 574.7 1040.8 575.2L1040.8 575.2Q1040.8 575.5 1040.6 575.9L1040.6 575.9Q1040.0 577.0 1038.8 577.6Q1037.6 578.2 1036.0 578.2ZM1033.1 571.1L1033.1 571.1L1038.5 571.1Q1038.4 569.9 1037.7 569.1Q1037.0 568.4 1035.9 568.4Q1034.7 568.4 1034.0 569.2Q1033.2 569.9 1033.1 571.1ZM1045.3 564.5Q1044.8 565.0 1044.2 565.0Q1043.6 565.0 1043.1 564.5Q1042.7 564.1 1042.7 563.5L1042.7 563.5Q1042.7 562.9 1043.1 562.5Q1043.6 562.1 1044.2 562.1L1044.2 562.1Q1044.8 562.1 1045.3 562.5Q1045.7 562.9 1045.7 563.5L1045.7 563.5Q1045.7 564.1 1045.3 564.5ZM1045.2 577.8Q1044.8 578.2 1044.2 578.2Q1043.6 578.2 1043.2 577.8Q1042.9 577.4 1042.9 576.8L1042.9 576.8L1042.9 567.7Q1042.9 567.1 1043.2 566.7Q1043.6 566.3 1044.2 566.3Q1044.8 566.3 1045.2 566.7Q1045.5 567.1 1045.5 567.8L1045.5 567.8L1045.5 576.8Q1045.5 577.4 1045.2 577.8ZM1052.0 578.1L1052.0 578.1Q1049.9 578.1 1048.6 576.5Q1047.3 575.0 1047.3 572.2L1047.3 572.2Q1047.3 569.5 1048.6 568.0Q1049.9 566.4 1052.0 566.4L1052.0 566.4Q1053.2 566.4 1054.2 566.9Q1055.1 567.5 1055.6 568.5L1055.6 568.5L1055.6 568.5L1055.6 563.6Q1055.6 563.0 1056.0 562.6Q1056.4 562.2 1057.0 562.2Q1057.6 562.2 1057.9 562.6Q1058.3 563.0 1058.3 563.6L1058.3 563.6L1058.3 576.8Q1058.3 577.5 1057.9 577.8Q1057.6 578.2 1057.0 578.2L1057.0 578.2Q1056.4 578.2 1056.0 577.8Q1055.6 577.5 1055.6 576.8L1055.6 576.8L1055.6 575.9L1055.6 575.9Q1055.1 576.9 1054.2 577.5Q1053.3 578.1 1052.0 578.1ZM1052.8 575.9L1052.8 575.9Q1054.1 575.9 1054.9 574.9Q1055.6 573.9 1055.6 572.3L1055.6 572.3Q1055.6 570.6 1054.9 569.6Q1054.1 568.6 1052.8 568.6L1052.8 568.6Q1051.6 568.6 1050.8 569.6Q1050.1 570.6 1050.1 572.3L1050.1 572.3Q1050.1 574.0 1050.8 575.0Q1051.5 575.9 1052.8 575.9ZM1062.2 582.2L1062.2 582.2Q1061.3 582.2 1060.8 581.9Q1060.3 581.5 1060.3 580.9L1060.3 580.9Q1060.3 580.5 1060.6 580.3Q1060.9 580.0 1061.3 580.0L1061.3 580.0Q1061.4 580.0 1061.6 580.0Q1061.8 580.0 1061.9 580.0L1061.9 580.0Q1063.0 580.0 1063.5 578.7L1063.5 578.7L1063.7 578.2L1060.0 568.3Q1059.9 567.9 1059.9 567.6L1059.9 567.6Q1059.9 567.0 1060.2 566.7Q1060.6 566.3 1061.2 566.3L1061.2 566.3Q1061.7 566.3 1062.0 566.6Q1062.3 566.8 1062.5 567.4L1062.5 567.4L1065.2 575.7L1065.3 575.7L1068.0 567.4Q1068.2 566.8 1068.5 566.6Q1068.8 566.3 1069.3 566.3L1069.3 566.3Q1069.8 566.3 1070.2 566.7Q1070.6 567.0 1070.6 567.5L1070.6 567.5Q1070.6 567.9 1070.4 568.3L1070.4 568.3L1066.7 578.4Q1065.9 580.5 1064.9 581.3Q1063.9 582.2 1062.2 582.2ZM1073.9 575.2L1073.9 575.2Q1074.5 575.2 1074.8 575.5Q1075.1 575.8 1075.1 576.3L1075.1 576.3Q1075.1 576.6 1075.0 576.9L1075.0 576.9L1074.1 580.6Q1074.0 581.1 1073.7 581.3Q1073.5 581.5 1073.0 581.5Q1072.5 581.5 1072.3 581.2Q1072.0 581.0 1072.0 580.5L1072.0 580.5Q1072.0 580.4 1072.0 580.3L1072.0 580.3L1072.7 576.3Q1072.8 575.2 1073.9 575.2Z M1088.1 578.2L1088.1 578.2Q1085.8 578.2 1084.3 577.4Q1082.8 576.5 1082.3 575.2L1082.3 575.2Q1082.2 574.8 1082.2 574.4L1082.2 574.4Q1082.2 573.8 1082.5 573.4Q1082.9 573.1 1083.4 573.1L1083.4 573.1Q1083.9 573.1 1084.2 573.3Q1084.5 573.5 1084.7 574.0L1084.7 574.0Q1085.1 574.9 1086.0 575.4Q1086.9 575.9 1088.2 575.9L1088.2 575.9Q1089.6 575.9 1090.5 575.3Q1091.3 574.7 1091.3 573.7L1091.3 573.7Q1091.3 572.8 1090.7 572.3Q1090.0 571.8 1088.6 571.5L1088.6 571.5L1086.9 571.1Q1082.3 570.2 1082.3 566.8L1082.3 566.8Q1082.3 564.7 1083.9 563.5Q1085.6 562.2 1088.1 562.2L1088.1 562.2Q1090.2 562.2 1091.6 563.1Q1093.1 563.9 1093.6 565.5L1093.6 565.5Q1093.7 565.7 1093.7 566.1L1093.7 566.1Q1093.7 566.6 1093.4 566.9Q1093.0 567.2 1092.5 567.2L1092.5 567.2Q1091.6 567.2 1091.2 566.4L1091.2 566.4Q1090.4 564.5 1088.1 564.5L1088.1 564.5Q1086.8 564.5 1086.0 565.1Q1085.1 565.6 1085.1 566.6L1085.1 566.6Q1085.1 567.4 1085.8 567.9Q1086.4 568.4 1087.8 568.7L1087.8 568.7L1089.5 569.1Q1091.9 569.6 1093.0 570.6Q1094.1 571.6 1094.1 573.4L1094.1 573.4Q1094.1 575.6 1092.5 576.9Q1090.9 578.2 1088.1 578.2ZM1097.8 578.1L1097.8 578.1Q1097.2 578.1 1096.7 577.6Q1096.3 577.2 1096.3 576.5L1096.3 576.5Q1096.3 575.9 1096.7 575.4Q1097.2 575.0 1097.8 575.0L1097.8 575.0Q1098.5 575.0 1098.9 575.4Q1099.4 575.9 1099.4 576.5L1099.4 576.5Q1099.4 577.2 1098.9 577.6Q1098.5 578.1 1097.8 578.1Z M1111.3 578.2L1111.3 578.2Q1108.7 578.2 1107.3 576.6Q1105.8 575.1 1105.8 572.3L1105.8 572.3Q1105.8 569.6 1107.3 567.9Q1108.7 566.3 1111.2 566.3L1111.2 566.3Q1113.5 566.3 1115.0 567.8Q1116.4 569.3 1116.4 571.6L1116.4 571.6Q1116.4 572.2 1116.1 572.6Q1115.8 572.9 1115.2 572.9L1115.2 572.9L1108.5 572.9L1108.5 573.0Q1108.5 574.4 1109.2 575.3Q1110.0 576.1 1111.3 576.1L1111.3 576.1Q1112.2 576.1 1112.9 575.8Q1113.5 575.4 1114.2 574.6L1114.2 574.6Q1114.5 574.2 1115.1 574.2L1115.1 574.2Q1115.5 574.2 1115.8 574.4Q1116.1 574.7 1116.1 575.2L1116.1 575.2Q1116.1 575.5 1115.9 575.9L1115.9 575.9Q1115.4 577.0 1114.2 577.6Q1113.0 578.2 1111.3 578.2ZM1108.5 571.1L1108.5 571.1L1113.8 571.1Q1113.8 569.9 1113.0 569.1Q1112.3 568.4 1111.2 568.4Q1110.1 568.4 1109.3 569.2Q1108.6 569.9 1108.5 571.1ZM1118.9 575.1L1118.9 575.1L1118.9 568.6L1118.2 568.6Q1117.7 568.6 1117.4 568.3Q1117.1 568.1 1117.1 567.6L1117.1 567.6Q1117.1 567.1 1117.4 566.8Q1117.7 566.6 1118.2 566.6L1118.2 566.6L1118.9 566.6L1118.9 565.0Q1118.9 564.4 1119.2 564.0Q1119.6 563.6 1120.2 563.6L1120.2 563.6Q1120.8 563.6 1121.2 564.0Q1121.6 564.4 1121.6 565.0L1121.6 565.0L1121.6 566.6L1122.8 566.6Q1123.3 566.6 1123.6 566.8Q1123.9 567.1 1123.9 567.6L1123.9 567.6Q1123.9 568.1 1123.6 568.3Q1123.3 568.6 1122.8 568.6L1122.8 568.6L1121.6 568.6L1121.6 574.6Q1121.6 575.2 1121.8 575.5Q1122.1 575.8 1122.6 575.9L1122.6 575.9L1122.8 575.9Q1123.9 576.0 1123.9 576.9L1123.9 576.9Q1123.9 577.5 1123.4 577.8Q1122.9 578.1 1122.0 578.1L1122.0 578.1L1121.9 578.1Q1118.9 578.1 1118.9 575.1Z M1133.3 578.1L1133.3 578.1Q1131.6 578.1 1130.5 577.2Q1129.5 576.2 1129.5 574.7L1129.5 574.7Q1129.5 573.2 1130.6 572.3Q1131.7 571.4 1133.8 571.3L1133.8 571.3L1136.8 571.1L1136.8 570.3Q1136.8 569.4 1136.2 568.9Q1135.7 568.4 1134.7 568.4L1134.7 568.4Q1133.9 568.4 1133.3 568.7Q1132.8 569.0 1132.3 569.8L1132.3 569.8Q1131.9 570.3 1131.2 570.3L1131.2 570.3Q1130.7 570.3 1130.4 570.0Q1130.1 569.7 1130.1 569.2L1130.1 569.2Q1130.1 568.9 1130.3 568.5L1130.3 568.5Q1130.7 567.5 1131.9 566.9Q1133.2 566.3 1134.8 566.3L1134.8 566.3Q1136.9 566.3 1138.2 567.4Q1139.5 568.4 1139.5 570.1L1139.5 570.1L1139.5 576.8Q1139.5 577.5 1139.1 577.8Q1138.7 578.2 1138.2 578.2L1138.2 578.2Q1137.6 578.2 1137.3 577.8Q1136.9 577.5 1136.9 576.9L1136.9 576.9L1136.9 576.1L1136.8 576.1Q1136.3 577.0 1135.4 577.6Q1134.4 578.1 1133.3 578.1ZM1134.1 576.1L1134.1 576.1Q1135.2 576.1 1136.0 575.4Q1136.8 574.7 1136.8 573.7L1136.8 573.7L1136.8 572.9L1134.2 573.0Q1133.2 573.1 1132.7 573.5Q1132.1 573.9 1132.1 574.6L1132.1 574.6Q1132.1 575.3 1132.7 575.7Q1133.2 576.1 1134.1 576.1ZM1144.0 577.8Q1143.6 578.2 1143.0 578.2Q1142.4 578.2 1142.0 577.8Q1141.7 577.4 1141.7 576.8L1141.7 576.8L1141.7 563.6Q1141.7 563.0 1142.0 562.6Q1142.4 562.2 1143.0 562.2Q1143.6 562.2 1144.0 562.6Q1144.4 563.0 1144.4 563.6L1144.4 563.6L1144.4 576.8Q1144.4 577.4 1144.0 577.8ZM1148.5 578.1L1148.5 578.1Q1147.8 578.1 1147.4 577.6Q1147.0 577.2 1147.0 576.5L1147.0 576.5Q1147.0 575.9 1147.4 575.4Q1147.8 575.0 1148.5 575.0L1148.5 575.0Q1149.1 575.0 1149.6 575.4Q1150.0 575.9 1150.0 576.5L1150.0 576.5Q1150.0 577.2 1149.6 577.6Q1149.1 578.1 1148.5 578.1Z " clip-path="url(#satori_cp-id-0)" mask="url(#satori_om-id-0)"/></svg>